<?xml version="1.0" encoding="utf-8"?>
<!-- Generator: Adobe Illustrator 21.1.0, SVG Export Plug-In . SVG Version: 6.00 Build 0)  -->
<svg version="1.1" id="Layer_1" xmlns="http://www.w3.org/2000/svg" xmlns:xlink="http://www.w3.org/1999/xlink" x="0px" y="0px"
	 viewBox="0 0 382.8 498.5" style="enable-background:new 0 0 382.8 498.5;" xml:space="preserve">
<style type="text/css">
	.st0{fill:#019147;}
	.st1{fill:#FFDE4C;}
	.st2{opacity:0.4;fill:#028142;}
	.st3{fill:#FFFFFF;}
	.st4{fill:#D2DCE0;}
	.st5{fill:#868C8E;}
	.st6{fill:#66BFEB;}
	.st7{fill:#A3CD3A;}
	.st8{fill:#FFE6BD;}
	.st9{fill:#231F20;}
	.st10{fill:#FFDEAB;}
	.st11{fill:#693B17;}
	.st12{fill:#F7CC98;}
	.st13{fill:#D2DDE1;}
	.st14{fill:#8CB33E;}
	.st15{fill:#4CA7D3;}
	.st16{fill:#868B8D;}
	.st17{fill:#8E4C2B;}
	.st18{fill:#4E6430;}
	.st19{fill:#285779;}
	.st20{fill:#DAE1F2;}
	.st21{fill:#FCCFB7;}
</style>
<g>
	<g>
		<g id="XMLID_156_">
			<g>
				<path class="st0" d="M258.8,369.6l107.4,10.1c0,0-17.2,16.6-29.2,26.1c-13.5,9.8-58.9,9.8-58.9,9.8
					c-24.9,33.8-105.6,29.8-105.6,29.8c-16.3-6.7-18.1-13.2-11.1-20.6c8.9-8.6,42.7-18.1,42.7-18.1c-21.2-9.2-6.4-14.4-3.7-16
					C203.2,389.2,258.8,369.6,258.8,369.6z"/>
				<path class="st1" d="M337,405.8c12-9.5,29.2-26.1,29.2-26.1l-107.4-10.1c0,0-55.6,19.6-58.3,21.2c-2.8,1.5-17.5,6.7,3.7,16
					c0,0-33.8,9.5-42.7,18.1c-7,7.4-5.2,13.8,11.1,20.6c0,0,80.7,4,105.6-29.8C278.1,415.6,323.5,415.6,337,405.8z M371.9,378.5
					l-91.8,92.1L61.1,435.8l197.7-67.7L371.9,378.5z"/>
				<path class="st0" d="M61.1,435.8l219.1,34.8l91.8-92.1l-113.2-10.4L61.1,435.8z M0,450.4l265.5-86.9l0.9,0.2l-3.9,2.1l1,0.1
					l4.3-1.8l1.8,0.1l-4,2l1.2,0.2l4-2l2,0.1c0,0-4.1,2-4,2.1c0.1,0.1,1.3,0.1,1.3,0.1l4.1-2l1.6,0.1l-3.1,2.2h1.4l3.5-2.1h1.7
					l-3.5,2.3c0,0,1.1,0,1.3,0c0.1,0,3.8-2,3.8-2l1.9,0.2l-3.7,2.1l1.4,0.1l3.6-1.9l2.3,0.1c0,0-3.9,2.2-3.8,2.2
					c0.1,0,1.3,0.1,1.3,0.1l3.8-2.2l2.5,0.2l-3.8,2.2h1.5l3.4-2c0,0,1.8,0.1,1.9,0.1c0,0-3,2.1-3,2.1l1.5,0l3-1.9c0,0,2.2,0,2.3,0
					s-3.3,2-3.3,2l1.2,0.1l3.6-1.9l2,0.2c0,0-3.5,2-3.3,2s1.5,0,1.5,0l3.2-1.7l2,0.2l-2.9,1.9l1.1,0.1l3.3-1.8h2.3l-3.7,2l1.8,0
					l3.3-1.6l2,0l-2.9,1.9l1.6,0.1l3-1.7l2.1,0.1l-3,1.9l1.4,0l3-1.7l2.2,0.1c0,0-3.2,2-2.9,2c0.2,0,1.4,0,1.4,0l3-1.9l2,0.2
					l-2.9,1.8h1.8l2.3-1.5l2.6,0.1l-3.1,1.8l1.5,0l3.1-1.8l2.1,0.1c0,0-3.1,2.2-3,2.2c0.1,0,1.2,0,1.2,0l2.9-1.8l2.5-0.1
					c0,0-2.8,2.1-2.7,2.1c0.1,0,1.4,0.1,1.4,0.1l2.8-1.8l2.6,0.1l-2.8,1.8l1.5,0l2.7-1.8l2.5,0.3c0,0-3.1,1.9-2.9,1.9
					c0.1,0,1.5,0.1,1.5,0.1l2.6-1.8h2.4l-2.8,2.1l1.4,0.2l2.8-2l2.3,0.1l-2.5,2l1.6,0.1l2.3-1.8l2.3,0c0,0-2.5,2-2.4,2
					c0.1,0,1.6,0,1.6,0l2.2-1.9l2.3,0.2l-2.2,2l1.5,0l2.2-1.8h2.5l-2.1,2.1l1.4-0.1l2.3-1.8l2.1,0.1c0,0-2.2,2.2-2.1,2.2
					c0.1,0,1.6,0,1.6,0l2.1-1.8h2.2l-2,2l1.6-0.1c0,0,2.1-1.7,2.3-1.7c0.1,0,2.4,0.2,2.4,0.2l-2.3,2.3l1.7-0.1l1.9-1.8l2.2,0.1
					l-1.8,2.2l1.4,0l1.9-1.8l2.1,0.1l-1.6,1.9l1.8,0.2l1.4-1.7l3.1,0.2l-100,112.5l-1.6-0.3l-11.1,11.5c0,0-5.6-0.8-5.8-0.8
					c0.1,0,10.8-11.5,10.8-11.5s-3.8-1-3.7-0.8c0,0.1-11.5,11.6-11.5,11.6c-0.2,0-5.3-1.2-5.3-1.2s11.5-11.2,11.2-11.2
					c-0.3,0-3.9-0.8-4.4-0.5c-0.5,0.3-11,11-11.1,11s-5.2-1.4-5.2-1.6c0.1-0.1,11.4-10.6,11.4-10.6l-3.7-0.7c0,0-10.9,10.1-11,10.1
					c-0.1,0-5.9-0.6-5.8-0.7c0.1,0,11.3-10.4,11.3-10.4s-4.4-0.4-4.4-0.4c0.1,0-11.5,10.3-11.6,10.2c-0.1-0.1-5.8-0.1-5.8-0.1
					l12.5-11.3c0,0-4-0.5-3.9-0.4c0.1,0-13.3,11-13.3,11l-5.9-0.5l14.1-11.4l-4.1-0.6l-13.3,11.2l-5-1.6l13-10.4
					c0,0-3.5-0.8-3.6-0.8c-0.1,0-12.5,10.1-12.5,10.1s-6-1-6-1.1c0.2,0,13.8-9.7,13.9-9.7c0.1,0-3.9-0.6-3.8-0.5
					c0,0.1-13.7,9.7-13.7,9.7l-4.8-0.9l13.8-9.9l-3.9-0.4l-13.9,9.6l-5-1l14.2-9.4l-3.8-0.5c0,0-14.2,9.4-14.4,9.4
					c-0.1,0-6.2-0.1-6.2-0.1c0.1,0,16-10.2,16-10.2s-3.5-0.5-3.7-0.5c0.1,0-15.2,10-15.2,10l-5.5-0.9c0,0,16-10,15.9-10
					c-0.1,0-3.9-0.5-3.9-0.5l-15.9,9.9l-4.4-0.9c0,0,16-9.8,15.9-9.8s-4-0.2-4-0.2l-15.5,9l-5-0.5l16.3-9.7l-3.8-0.5l-16.8,9.7l-5-1
					l17.7-9.7c0,0-3.8-0.5-3.9-0.5c-0.1,0.1-17.9,10-17.9,10l-4.2-1.3c0,0,17.7-9.6,17.5-9.6c-0.2,0-3.7-0.2-3.7-0.2l-15.8,8.7
					l-6.1-0.7c0.2,0,18-9.1,17.8-9.1c-0.1,0-3.6-0.4-3.6-0.4l-16.1,8.5l-5.5-0.9l17.5-8.6L126,461l-17.8,8.6l-4.6-0.8l17.9-8.7
					l-4.2-0.6l-16.3,8.3c0,0-6.7-0.2-6.7-0.3c0.1-0.1,19.3-9,19.3-9l-3.7-0.2l-16.5,8.1c0,0-7.1-0.3-7.1-0.3
					c0.1,0,19.5-8.8,19.5-8.8l-3.3-0.3l-19.4,8.7l-5-0.8l20.3-9.1l-3.5-0.4l-19.5,9.2l-4.7-1.1l20.2-8.9c0,0-2.8-0.2-3-0.2
					c-0.2,0-20.1,8.3-20.1,8.3l-3.1-1c0,0,19.5-8.2,19.4-8.3c-0.1,0-3.9-0.4-4-0.3c-0.1,0.1-18,7.5-18,7.5l-5.2-0.6l19.2-7.8
					l-2.3-0.6l-20,8.2l-5.8-0.8l21.4-8l-2.7-0.5c0,0-20.9,8.4-21.1,8.4c-0.2,0-5.1-0.6-5.1-0.6l21.9-8.6l-3.5-0.3l-20.7,8.1
					l-4.8-0.6l21.8-8.2l-3-0.5L31,456.3c0,0-4.5-0.6-4.8-0.6c0.8-0.2,22.1-7.7,22.1-7.7s-3.1-0.6-3.1-0.5c0,0.1-20.3,7.5-20.3,7.5
					l-5.9-0.7l22-7.7l-2.4-0.1l-22.2,8c0,0-4.6-1.2-4.4-1.2c0.1,0,22.8-7.7,22.8-7.7l-3.7-0.2l-20.6,7.2l-3.9-1l21.1-7.1l-2.4-0.5
					c0,0-21,7.2-21.1,7.1C4,451.1,0,450.4,0,450.4z"/>
			</g>
			<g>
			</g>
		</g>
	</g>
	<path class="st2" d="M257.5,376c-7.5-0.3-16.7,2.7-24,4.4c-4,0.9-13.1,3.8-14.1,8.9c-1.8,9.6,24.1,6.6,30.5,6.7
		c9.7,0.1,17.9,1.7,26.7,4.8c14.2,4.9,31.5,2.2,46.2,0.5c7.2-0.8,26.6-2.6,26.1-13.7c-0.4-8.7-17.6-9.3-24.3-11
		c-11.1-2.9-22.5-3.3-33.9-2.8c-6.7,0.3-13.4,1.5-19.8,1.8c-5.1,0.2-10.3-0.6-15.1,0.9"/>
	<g>
		<g>
			<path class="st3" d="M271.6,381.3l-0.1,0.2c-27.1,11.8-31.9,3.4-31,0.6c1-2.8,10-8.5,10.4-8.6v0c2.3,0.9,4.5,1.4,7,0.9
				c-0.3,0.6-0.6,1.2-0.9,1.8c0,0,7.8,1.8,12.2,4C270.1,380.5,270.9,380.9,271.6,381.3z"/>
		</g>
		<g>
			<path class="st4" d="M246.5,376.7c0.3,0,12.5,0.8,15,8l9.5-3.5c0,0-11.2-4.4-12.9-4.7c-1.7-0.3-1.7-0.3-1.7-0.3l1.1-1.7
				c0,0-4.3-0.2-5.8-0.6c-1.5-0.4-2.1-0.5-2.1-0.5L246.5,376.7z"/>
		</g>
		<g>
			<path class="st5" d="M249,388.1c-4.2,0-6.4-1.2-7.6-2.3c-1.5-1.4-1.7-3-1.3-3.9c1.1-3,10.1-8.7,10.8-8.9l0.2,0.9l-0.1-0.5
				l0.1,0.5c-0.6,0.3-9.2,5.7-10.1,8.3c-0.2,0.7,0,1.9,1.1,2.9c1.9,1.8,8.5,4.9,29.2-4.1l0.4,0.9C260.8,386.6,253.7,388.1,249,388.1
				z"/>
		</g>
	</g>
	<g>
		<g>
			<path class="st3" d="M310.3,382c0.8,2.7,1.2,7.4,1.2,7.4s-1.4,1.7-10.4,2.8c-9.1,1.1-14.5-0.7-15.1-3.4c-0.5-2.2,1.9-7.4,2.8-9.3
				C295.9,378.7,305.9,382.2,310.3,382z"/>
		</g>
		<g>
			<path class="st4" d="M289.4,379.2c-0.2,0.3-1.3,4.6-1.3,4.6s10.1-0.1,13.8,1.7c3.7,1.8,7.6,4.8,7.6,4.8l1.7-0.8l-1.1-7.7
				c0,0-5.6-0.9-8.2-1.1C299.4,380.5,289.4,379.2,289.4,379.2z"/>
		</g>
		<g>
			<path class="st5" d="M296.1,393c-5.9,0-10-1.5-10.6-4.1c-0.5-2.3,1.8-7.5,2.8-9.6c0.2-0.4-0.1,0-0.1,0l1.3-0.2
				c0,0-0.1,0.2-0.3,0.6c-1.6,3.3-3.1,7.3-2.7,9c0.5,2.3,5.7,4.1,14.6,3.1c7.2-0.9,9.5-2.1,10-2.5c-0.1-1-0.5-4.8-1.2-7.1l-0.1-0.2
				c0-0.1-0.1-0.3-0.1-0.4l1,0c0.1,0.1,0-0.1,0.1,0.1l0.1,0.3c0.8,2.7,1.2,7.4,1.3,7.6l0,0.2l-0.1,0.2c-0.2,0.2-1.8,1.9-10.8,3
				C299.4,392.9,297.7,393,296.1,393z"/>
		</g>
	</g>
	<g>
		<g>
			<g>
				<g>
					<g id="XMLID_114_">
						<g>
							<g>
								<path class="st6" d="M346.7,354.8c-0.8-3.8-11.3-57-11.7-82.4c-1.6-1.2-3-2.7-4.3-4.5c-0.6-0.8,0-1.7,0.8-1.9
									c0-0.1,0-0.2,0-0.3c-0.4,0.3-0.9,0.6-1.3,0.9c-1.3,0.9-2.6-1-1.6-2.1c0.7-0.7,1.4-1.4,2.1-2.1c-0.5-0.2-0.9-0.7-0.9-1.3
									c-1,0.7-2.1,1.4-3.1,2c-1.1,0.7-2.7-0.7-1.8-1.8c0.7-1,1.5-1.9,2.2-2.7c-0.8-0.2-1.2-0.7-1-1.6c0,0,0,0,0,0
									c-0.7,0.5-1.3,0.9-2,1.3c-1.4,0.8-2.6-1-1.6-2.1c1.3-1.5,2.6-2.9,4-4.3c-0.5-0.4-0.6-1.3-0.2-1.9c-0.3-0.5-0.4-1.2,0.1-1.7
									c0.3-0.3,0.5-0.5,0.8-0.8c-0.2-0.5-0.2-1.1,0.2-1.5c0,0,0.1-0.1,0.1-0.1c-0.3-0.5-0.3-1.1,0.1-1.7c0,0,0.1-0.1,0.1-0.1
									c-1-0.1-1.8-1.3-0.8-2.2c0.1-0.1,0.3-0.2,0.4-0.3c-0.5-0.5-0.7-1.4-0.1-2c0.2-0.2,0.4-0.4,0.5-0.5c-0.6,0.1-1.3-0.3-1.4-0.9
									c0-0.2-0.1-0.4-0.1-0.6c0,0,0,0-0.1-0.1c-0.8,0.7-2.1,0.4-2.2-0.9c-0.2-2.5-0.1-4.7,0.3-7.2c0.1-0.4,0.2-0.6,0.5-0.8
									c0.1-1.1,0.2-2.1,0.2-3.2c0-0.1,0-0.2,0.1-0.3c0-0.2-0.1-0.3-0.1-0.5c-0.3-0.2-0.5-0.5-0.5-1v-2.1c-0.1-1.6,0-3.3,0-5
									c0-0.3,0.1-0.6,0.3-0.8c0-0.4,0.1-0.8,0.1-1.3c-0.2-0.3-0.2-0.7,0-1c-0.1-0.2-0.1-0.3-0.1-0.5c0-0.2,0-0.4,0-0.6
									c-0.3-0.2-0.5-0.6-0.5-1c-0.2-5.7-1.3-11.3-1.3-17c0-0.7,0.5-1.1,1.1-1.3c0-0.4-0.1-0.9-0.1-1.3c-0.3-1.3-0.7-2.6-1.1-3.8
									c-0.2-0.1-0.4-0.3-0.5-0.5c-2.7-6-5-11.9-6.2-18.4c-0.1-0.7,0.3-1.3,0.8-1.6c0-0.3-0.1-0.5-0.1-0.8
									c-0.1-1.4,1.8-1.7,2.5-0.7c0.3,0.4,0.5,0.8,0.8,1.3c-0.3-2.3-0.3-4.7,0-7c0.1-1,1.2-1.2,2-0.8c0-1.7-0.1-3.5,0-5.2
									c0.1-1.5,2.2-1.8,2.6-0.4c0.7,2.2,1.4,4.4,1.9,6.6c2.9-2.3,5.8-4.4,9.1-5.9c0.2-1.1,0.3-2.3,0.5-3.4c-0.4-0.4-0.7-1-0.4-1.7
									c0.8-1.9,1.6-3.8,2.3-5.9c-0.5-1.9-1-3.6-1.5-5c-1.6-4.8-3.2-7.4-3.6-7.8c-5.8-1.6-12.4,0.6-15.5,4
									c-3.4,3.7-21.7,20.9-31.7,24c-11.1,3.4-19.7-4.2-24.9-11.1c-1.3-1.8-2.7-4.1-3.9-6.6l-0.4,0.2c-1.5-0.8-3.1-1.1-4.6-1.2v0.2
									c0,0-0.4,1.9-1.1,5.2c0.1,1.3,0.2,2.6,0.3,3.8c0.2,0.2,0.4,0.5,0.4,0.9c0,0,0,0.1,0,0.1c0.4,0.2,0.7,0.6,0.8,1.2
									c0,0.3,0,0.5,0,0.8c0.1,0.3,0.2,0.6,0.3,0.9l2.1,0.4c-1.4,6.3-3.7,42.1-4.2,54.1c-0.5,9.8-1.8,26.4-2.7,39.6
									c-0.1,1.9-0.2,3.7-0.4,5.4c-0.1,1.1-0.2,2.1-0.3,3.1c-0.1,1.2-0.2,2.4-0.3,3.4c0,0.1,0,0.2,0,0.4
									c-1.4,13.4-5.6,50.6-6.2,56.6c-0.6,6-4.4,37.3-8.1,42.1c-2.6,3-4.2,4.8-4.2,4.8s2.2,4.6,7.5,6c2.5,0.7,4.8,1.9,7.2,2.7
									c2.3,0.9,4.6,1.4,7,0.9c-0.3,0.6-0.6,1.2-0.9,1.8c0,0,7.9,1.8,12.3,4c0.9,0.4,1.6,0.8,2.3,1.2c2.9,1.4,4.5,2.3,6.9,4.3
									c3,2.4,18.9-1.4,26.4-2.6c0.2,0,0.5-0.1,0.7-0.1c7.2-0.9,17.3,2.7,21.7,2.5c0.1,0,0.2,0,0.3,0c4.4-0.4,5.6,1.6,14.3-6.6
									c8.1-4.4,16.5-9.1,16.5-9.1S347.5,358.6,346.7,354.8z"/>
							</g>
							<g>
								<path class="st7" d="M337.5,138.1c2.3-3,2.6-5,1.9-6.5c-0.3-0.4-0.6-0.8-0.8-1.2c-0.2-0.2-0.3-0.4-0.5-0.5
									c-2.1-1.8-6.8-3.5-6.7-4.3c0.1-0.8,3.8-8,0.4-8.9c-2.5-0.5-4.6-0.1-6,0.5l-0.1-0.2c0.6-0.9,1.1-1.9,1.6-2.8
									c1.8-3.3,3.7-6.6,5.4-9.9c5.6-11.4,8.5-23.9,10.2-36.5c1.4-10.7,0.4-35.2-15-50.6c-15.4-15.4-34.3-19.3-51-15
									c-16.7,4.3-27.3,16.3-32.6,26.3c-4.8,8.9-4.9,21.6-4.8,24.3c0,0,2.7-16.7,9-22.8c6.3-6.1,19.8-14.9,35.9-13.1
									c15,1.3,33.6,10.3,42.7,30.7c3.5,9.4,3.2,19.8,2.3,27.7c-0.3,2.8-0.8,5.2-1.2,7.2c-0.6,2.9-1.2,4.7-1.2,5
									c-0.1,0.4-1.1,7-6.7,14.2l1.2,1c0,0-18,26.1-35.6,29.9l0.7,4.9c-2,0.3-4,0.4-5.9,0.2c-11.5-2.1-23.4-24.4-23.4-24.4l0.9-1.4
									c-2.6-1.7-5-3.6-7.4-5.6c-5.4-6.4-6.5-9.1-6.5-11.7c0-2.4-1.1-15.3-2.7-23.1l-0.3,0c-0.1-0.2-1.3-2-2.1-4.9l-0.5,0
									c0,0,3.3,19.7,3.9,24.8c0.6,5.1,3.3,20.6,5.9,27.4c1.9,5.1,5.3,14.8,9,22.2c1.3,2.5,2.6,4.8,3.9,6.6
									c5.2,6.9,13.8,14.5,24.9,11.1c10-3.1,28.3-20.4,31.7-24c3.1-3.4,9.7-5.5,15.5-4c0.3,0.5,1.9,3,3.6,7.8L337.5,138.1z"/>
							</g>
							<g>
								<path class="st3" d="M329.2,75.2c-0.3,2.8-0.8,5.2-1.2,7.2h0c-4.2-19.1-29-36.8-40.4-39.3c-15.5-3.5-28,1.1-36.8,6.5
									c-8.1,5.1-9.6,16-9.9,19.4c0.2,0.6,0.3,1.3,0.5,2.1l-0.3,0c-0.1-0.2-1.3-2-2.1-4.9c-1-3.4-1.5-8.2,0.4-13.5v0
									c0,0,2.7-16.7,9-22.8c6.3-6.1,19.8-14.9,35.9-13.1c15,1.3,33.6,10.3,42.7,30.7C330.4,57,330.1,67.4,329.2,75.2z"/>
							</g>
							<g>
								<g>
									<path class="st8" d="M305.6,90.1c0.5-0.2,4.2-1.7,5.9-5.7c0.3-0.6,0.3-0.6,0.3-0.6l2.3-2c0,0-4.3-6.6-14.9-6.1
										c-4.5,0.7-11.4,3.6-10.7,10.1c0.1,0,1.8-6.7,8.8-8.1c5.9-1.3,11.9,2.1,12.9,6.1C310.7,86.1,306.9,89.5,305.6,90.1z
										 M264.3,87.8c0.2-0.4,0.9-2.3-0.6-5.5c-3-4.9-8.9-6.8-13.3-5c-4.4,1.8-4.5,6.1-4.5,6.1l2,0.7c0.9,3.4,4.1,4.9,4.4,5.1
										c-2-1.2-3.6-5.3-3.6-5.3c-0.8-3.1,3.3-6.8,9.1-5.3C265.1,81.2,264.4,87,264.3,87.8z M327.9,82.4L327.9,82.4
										c-0.6,2.9-1.1,4.7-1.2,5c-0.1,0.4-1.1,7-6.7,14.2c-4.3,5.5-11.4,11.3-22.8,14.9c-18.2,4.3-29.7,1.4-39.3-4.8
										c-2.6-1.7-5-3.6-7.4-5.6c-5.4-6.4-6.5-9.1-6.5-11.7c0-2.4-1.1-15.3-2.7-23.1c-0.1-0.7-0.3-1.4-0.5-2.1
										c0.3-3.4,1.8-14.3,9.9-19.4c8.7-5.5,21.3-10,36.8-6.5C299,45.6,323.8,63.3,327.9,82.4z M290,68.1c0,0,9.5-1.9,14-0.7
										c0,0-3.8-3.5-9.1-2.7C290,65.5,290,68.1,290,68.1z M302.1,88.5c0-1.4-1.4-2.5-3.1-2.5c-1.7,0-3.1,1.1-3.1,2.5
										c0,1.4,1.4,2.4,3.1,2.4C300.7,90.9,302.1,89.9,302.1,88.5z M261.9,66.6c0,0,0.2-2.6-3.7-3.1c-7.4-0.1-9.1,3.7-9.1,3.7
										c4.9-2.5,12.5-0.8,12.5-0.8L261.9,66.6z M260.3,87.2c0-1.4-1.3-2.5-3-2.5c-1.6,0-3,1.1-3,2.5c0,1.4,1.3,2.5,3,2.5
										C259,89.6,260.3,88.5,260.3,87.2z"/>
								</g>
							</g>
							<g>
								<path class="st7" d="M320.1,101.5l1.2,1c0,0-18,26.1-35.6,29.9l0.7,4.9c-2,0.3-4,0.4-5.9,0.2c-11.5-2.1-23.4-24.4-23.4-24.4
									l0.9-1.4c9.6,6.2,21.1,9.1,39.3,4.8C308.7,112.8,315.8,107,320.1,101.5z"/>
							</g>
							<g>
								<path class="st9" d="M304,67.3c-4.5-1.2-14,0.7-14,0.7s0-2.6,4.9-3.4C300.2,63.8,304,67.3,304,67.3z"/>
							</g>
							<g>
								<path class="st9" d="M258.2,63.5c3.9,0.5,3.7,3.1,3.7,3.1l-0.3-0.1c0,0-7.7-1.7-12.5,0.8C249.1,67.3,250.8,63.4,258.2,63.5z
									"/>
							</g>
							<g>
								<path class="st7" d="M248.2,118.5c0,2.5,0,5.1-0.2,7.6c-0.2,2.4-0.7,4.7-1.3,7c-2.7,9.5,1.6,3.7,2.8,5.4
									c0.4,0.1,0.7,0.4,0.9,0.9c0.1,0.1,0.1,0.3,0.2,0.4c0.5,0,1.1,0,1.7,0c1.4,0.1,3,0.4,4.6,1.2l0.4-0.2
									C253.5,133.3,250.2,123.5,248.2,118.5z"/>
							</g>
							<g>
								<path class="st10" d="M247.1,250.6c0.3,0.3,0.4,0.7,0.3,1.2c-0.5,2.6-1,5.1-1.4,7.7c0.2,0,0.5-0.1,0.8-0.2l0.2,0
									c0-0.1,0-0.2,0-0.4c0.1-1.1,0.2-2.2,0.3-3.4c0.1-1,0.2-2,0.3-3.1c0.1-1.7,0.3-3.5,0.4-5.4c-0.2,0-0.4,0-0.5-0.1
									C247.4,248.1,247.2,249.3,247.1,250.6z"/>
							</g>
							<g>
								<g>
									<g id="XMLID_115_">
										<g>
											<path class="st3" d="M310.6,83.7c0.1,1.4,0.1,1.4,0.1,1.4s-2,3.8-4.6,4.8c-0.5,0.2-1.3,0.4-2.3,0.6
												c0.8-0.8,1.2-1.8,1.2-3c0-2.7-2.6-4.9-5.7-4.9c-3.2,0-5.7,2.2-5.7,4.9c0,1.1,0.4,2.1,1.1,2.8c-2.6-0.7-4.9-2.2-6.1-5.1
												c0,0,1.9-8.1,11.5-8C307.6,77.6,310.5,82.3,310.6,83.7z"/>
											<path class="st11" d="M305,87.4c0,1.1-0.4,2.2-1.2,3c-2.4,0.5-6.3,0.6-9.5-0.3c-0.7-0.8-0.8-1.6-0.8-2.7
												c0-2.7,2.6-4.9,5.7-4.9C302.4,82.5,305,84.7,305,87.4z"/>
											<path class="st3" d="M258.2,78.2c6.8,2.8,6.1,9.3,6.1,9.3s0,0-0.2,0.1c-1,0.5-1.9,1-2.8,1.3c0.7-0.8,1-1.7,1-2.7
												c0-2.5-2.5-4.2-5.3-4.2c-2.8,0-5.3,1.6-5.3,4c0,1.2,0.6,2.4,1.5,3.3c-0.6-0.2-1.2-0.6-1.7-0.9c-2.3-1.7-3.4-4.5-3.4-4.5
												C248.3,78.6,254,76.8,258.2,78.2z"/>
											<path class="st11" d="M262.3,86.3c0,1-0.4,1.9-1,2.7c-3.4,1.3-6,1.2-8,0.5c-1-0.9-1.5-2.1-1.5-3.3c0-2.5,2.5-4,5.3-4
												C259.8,82.1,262.3,83.8,262.3,86.3z"/>
										</g>
									</g>
								</g>
							</g>
							<g>
								<path class="st9" d="M314.2,81.8l-2.3,2c0,0,0,0-0.3,0.6c-1.8,4-5.5,5.5-5.9,5.7c1.4-0.7,5.1-4,4.7-6.3
									c-1-4-7.1-7.4-12.9-6.1c-7.1,1.5-8.7,8.1-8.8,8.1c-0.7-6.5,6.1-9.4,10.7-10.1C309.8,75.2,314.2,81.8,314.2,81.8z"/>
							</g>
							<g>
								<ellipse class="st9" cx="299" cy="88.4" rx="3.1" ry="2.4"/>
							</g>
							<g>
								<path class="st9" d="M264.3,87.8c0.1-0.7,0.8-6.6-6.4-9.2c-5.8-1.6-9.9,2.2-9.1,5.3c0,0,2,4.3,4,5.3
									c-0.4-0.2-3.9-1.7-4.8-5.1l-2-0.7c0,0,0-4.3,4.5-6.1c4.4-1.8,10.3,0.1,13.3,5C265.2,85.5,264.5,87.4,264.3,87.8z"/>
							</g>
							<g>
								<path class="st9" d="M257.3,84.7c1.7,0,3,1.1,3,2.5c0,1.4-1.3,2.5-3,2.5c-1.6,0-3-1.1-3-2.5
									C254.3,85.8,255.7,84.7,257.3,84.7z"/>
							</g>
						</g>
					</g>
					<g>
						<g>
							<path class="st12" d="M241.3,68.3c0,0,3.7-8.4,15.7-11.9c12-3.4,35.6-5.9,60.1,10.9c0,0,9.1,33.5-13.6,46.1
								c0,0,20.6-10.2,23.4-26.2c1-6.5,1-6.5,1-6.5s-8.3-21.2-24.9-30.4c-16.6-9.1-32.5-11.2-47.1-3.3
								C241.1,54.9,241.4,63.1,241.3,68.3z"/>
						</g>
					</g>
					<g>
						<path class="st13" d="M315.4,60.4c-0.3-0.3,1.9-6.1,1.1-7.8c-0.8-1.8-14-15.9-14-15.9s11.7,6.6,15.1,9.6c0,0,0.9-6.1,0.6-8.1
							c-0.4-2-18.2-22.7-43.3-20.5c0,0,8.5-3.7,26.6,3.6c14.7,8.9,15.8,11.2,18.5,14.5c2.7,3.3,9.4,16,9.8,23.6
							c0.5,7.6-0.8,19.7-1.2,20.8c-0.4,1.1-0.4,1.7-0.4,1.7S321.7,67.6,315.4,60.4z"/>
					</g>
					<g>
						<path class="st13" d="M239.7,53c-0.1,0.6,6.5-11.9,16.3-19c0,0-10.4,5.1-15.4,12.1C240.5,46.2,240.1,50.1,239.7,53z"/>
					</g>
					<g>
						<path class="st14" d="M334.8,131.2l2,5.9c0,0,3.9-2.1,2.8-5c-0.1-0.2-0.2-0.4-0.3-0.6c-0.2-0.3-0.5-0.6-0.7-0.9
							c-2-2.2-5.8-4.1-6.5-4.1c-0.8,0-1.2,0.1-1.2,0.1s2.3-4.4,2.1-6.4c-0.1-2-0.5-4.9-6.5-3.3c0,0,10.7-21.9,13.8-36.9
							c3.1-14.9,4.4-32.5-2.3-47.5S317.3,7.7,308.4,3.9c0,0,10.7,13.4,12,30.5l-0.5,1.3c0,0,14.5,15.8,8.3,46.7
							c-3.2,17.8-15.7,30.3-28.8,33.3c-13.2,3.1-37.1,8.4-54.9-18.3c0.2,0.4-0.6-1.4-0.6-1.4s-0.2,2.5,0.1,3.6
							c0.2,0.6,5.1,12.6,6.8,13.8c0,0,7,18.5,15,27.5c7.9,9,15.4,13.4,21.7,5.9c0,0-8.4,5.5-17.9-6.3c-9.5-11.7-14.5-25.5-14.5-25.5
							s8.1,3.9,9.4,4.9c1.3,0.9,18.4,16.7,35,3.3c0.2,0.2,12.1-8.5,13.8-6.5c1.7,2-11,18.6-29.8,25.9c0,0,17.7-1.5,31.3-14.7
							c1.3-0.9,0.7,1.2,0.2,2.1c-0.5,0.9-19.6,21.6-30.4,28.1c0,0,0.5,1.2,7.4-2.6c6.9-3.8,24.6-20,28.9-23c4.4-3,12-2.7,13.6-2
							C336.2,131.2,334.8,131.2,334.8,131.2z"/>
					</g>
					<g>
						<path class="st14" d="M249,120.4c0,0-0.2,4.9-0.1,5.2c0.1,0.4,2.4,14.2,2.4,14.2s-0.2,0-0.5,0.1c0.1,0.2,0.2,0.4,0.3,0.6
							c0.4,0.6,0.2,1.2-0.2,1.6c0.1,1.1,0.3,2.1,0.4,3.2l1.2-5.2l5.5,1.4L249,120.4z"/>
					</g>
					<g>
						<path class="st15" d="M276.9,232.9c0,0-4.3,74.1-5,86.5s-0.3,30.1-0.3,30.1s3.1-16.7,4-22.9c0.9-6.2,4-52.4,3.7-57
							C279.1,264.8,276.9,232.9,276.9,232.9z"/>
					</g>
					<g>
						<path class="st15" d="M259,288.3c-0.3,1.2-13.9,62-15.5,65.7c-1.5,3.7-4,10.5-4,10.5s13.3-31,16.4-40c3.1-9,4.6-26.3,5.3-28.2
							c0.6-1.9-2.2-9.6-2.2-9.6"/>
					</g>
					<g>
						<g>
							<g>
								<path class="st16" d="M327.5,82.5c-4.1-18.6-28.4-36.4-40-38.9c-12.7-2.9-25-0.7-36.4,6.5c-7.6,4.8-9.3,14.9-9.6,19
									c0,0.6,0,1,0,1h-1c0,0,0-0.4,0.1-1.1c0.4-4.3,2.1-14.7,10.1-19.8c11.7-7.3,24.2-9.5,37.2-6.6c11.8,2.6,36.6,20.6,40.8,39.6
									L327.5,82.5z"/>
							</g>
						</g>
						<g>
							<g>
								<g>
									<path class="st16" d="M239.8,52.9l-0.9-0.3c3.4-9.4,13.1-17.3,13.1-17.4l-0.1,0.6C251.9,35.8,243.1,43.8,239.8,52.9z"/>
								</g>
							</g>
						</g>
						<g>
							<g>
								<path class="st16" d="M240.7,71.4c0,0-1.3-1.9-2.2-5c-0.9-3.2-1.6-8.2,0.4-13.8l0.9,0.3c-2,5.3-1.3,10.1-0.4,13.2
									c0.8,2.9,2,4.7,2,4.7L240.7,71.4z"/>
							</g>
						</g>
						<g>
							<path class="st17" d="M327.5,82.3c-0.4,2-0.8,3.5-1,4.3c-0.1,0.4-0.2,0.7-0.2,0.7c-0.2,1.2-1.4,7.3-6.6,13.9
								c-5.3,6.8-12.9,11.7-22.5,14.7c-16,3.8-28,2.3-38.9-4.7c-2.3-1.5-4.6-3.3-7.3-5.6c-5.4-6.4-6.4-9-6.4-11.4
								c0-2.2-1-15.3-2.7-23.2c-0.1-0.7-0.3-1.4-0.5-2c0-0.1,0-0.2-0.1-0.3l-0.9,0.4l0,0.1c0.2,0.6,0.3,1.3,0.5,2
								c1.7,7.9,2.7,20.9,2.7,23c0,2.7,1.1,5.4,6.7,12.1c2.8,2.4,5.1,4.2,7.5,5.7c7.2,4.6,14.8,6.9,23.7,6.9c4.9,0,10.2-0.7,16-2.1
								c9.8-3.1,17.6-8.1,23-15.1c5.4-6.8,6.6-13.2,6.8-14.4c0-0.1,0.1-0.3,0.2-0.6c0.2-0.7,0.5-2,0.9-3.6c-0.2-0.5-0.4-1.1-0.7-1.6
								C327.6,81.8,327.5,82,327.5,82.3z"/>
							<path class="st18" d="M329.6,75.2c1.3-10.6,0.5-20.2-2.3-27.9c-9.2-20.9-28.3-29.7-43-31C264.9,14.2,250.7,27,248,29.6
								c-6.3,6.2-9,22.4-9.1,23.1l1,0.2c0-0.2,2.8-16.6,8.8-22.5c7.1-7,20.7-14.6,35.5-12.9c14.5,1.3,33.2,9.9,42.2,30.4
								c3.5,9.5,3.1,20.2,2.2,27.4c-0.3,2.6-0.7,4.8-1,6.4c0.3,0.5,0.5,1.1,0.7,1.6c0-0.2,0.1-0.4,0.1-0.7
								C328.8,80.9,329.3,78.4,329.6,75.2z"/>
						</g>
						<g>
							<path class="st18" d="M326,117.2l-0.8-0.5c0.4-0.6,0.7-1.2,1-1.8l1.2-2.2c1.6-2.8,3.2-5.8,4.7-8.7
								c4.9-9.9,8.2-21.8,10.2-36.3c1.4-10.8,0.2-35.2-14.9-50.2C313.4,3.4,295-2,276.9,2.6c-19.2,4.9-29,19.9-32.3,26.1
								c-4.8,9-4.8,21.6-4.8,24v0.5h-1v-0.5c0-2.5,0-15.3,4.9-24.5c3.4-6.3,13.3-21.5,32.9-26.6c18.4-4.7,37.1,0.8,51.5,15.1
								c15.3,15.3,16.7,39.3,15.1,51c-2,14.6-5.3,26.6-10.3,36.6c-1.5,3-3.1,5.9-4.7,8.8l-1.2,2.2C326.7,116,326.4,116.6,326,117.2z
								"/>
						</g>
						<g>
							<path class="st18" d="M337.7,130.2c1.9,1.7,2.5,3.6-0.6,7.6l0.4,1.3c2-2.5,2.9-4.8,2.5-6.8c-0.9-1.1-0.2-1.3-2.3-3.3
								c-1-0.7-2.3-1.4-3.4-2c-0.9-0.5-2.1-1.1-2.4-1.4c0.1-0.2,0.2-0.5,0.3-0.8c0.7-1.9,2.1-5.4,1.2-7.4c-0.3-0.6-0.8-1-1.5-1.2
								c-2.2-0.4-4.3-0.3-6.3,0.5c-1.7,0.7-2.6,1.5-2.6,1.6l0.7,0.7c0,0,0.8-0.8,2.3-1.4c1.8-0.7,3.7-0.9,5.7-0.5
								c0.4,0.1,0.7,0.3,0.8,0.7c0.8,1.5-0.6,4.9-1.2,6.6c-0.2,0.6-0.4,0.9-0.4,1.1c-0.1,0.7,0.8,1.2,2.9,2.4
								C335.1,128.5,336.7,129.4,337.7,130.2z"/>
						</g>
						<g>
							<path class="st18" d="M246.7,134c0.7-2.5,1.7-5.3,1.9-7.9c0.2-2.5,0.3-5.1,0.2-7.6l-1,0c0,2.5,0,5.1-0.2,7.5
								c-0.2,2.1-0.6,4.2-1.1,6.3C246.6,132.8,246.4,133.5,246.7,134z"/>
						</g>
						<g>
							<path class="st18" d="M282.6,138c-0.8,0-1.5,0-2.2-0.1c-11.6-2.1-23.2-23.7-23.7-24.6l0.1-0.3c0.1,0.2,12.6,21.9,23.8,24
								c1.7,0.2,3.7,0.1,5.8-0.2c6.7-1,13.3-4.2,14.9-5.4l0.7,0.1c-1.7,1.2-8.6,5.3-15.5,6.3C285.1,137.9,283.8,138,282.6,138z"/>
						</g>
						<g>
							<path class="st18" d="M285.8,132.8l-0.1-0.5c17.2-3.7,35-29.9,35.2-30.2l-0.1,1.3C320.1,104.5,303.4,129,285.8,132.8z"/>
						</g>
						<g>
							<path class="st16" d="M328.7,76l-0.1-0.8c-0.2-2.1-2-13.9-8.4-21.3l1.3,0.4c6.6,7.6,7.8,18.6,8,20.8l0.1,0.8L328.7,76z"/>
						</g>
						<g>
							<path class="st17" d="M270.7,97.8c-0.1,0-3,0.2-4.3-1.5c-0.7-0.9-0.9-2-0.7-3.2c0.2-1,0.8-1.6,1.5-2.1c1.7-1.1,4-0.7,4.1-0.6
								l0.2,0.4c0,0-2.6,0.1-3.9,0.9c-0.5,0.4-0.9,0.9-1,1.6c-0.2,1,0,1.8,0.5,2.4c1.1,1.4,3.3,1.6,3.3,1.6L270.7,97.8z"/>
						</g>
						<g>
							<path class="st17" d="M287.9,79.1l-0.4-0.4c0.1-0.1,7.8-10.3,20.1-4.8l0.2,0.5C296.2,69.2,287.9,79,287.9,79.1z"/>
						</g>
						<g>
							<path class="st17" d="M261.5,77.2c-0.1-0.1-9.4-6.7-14.3-0.9l-0.3-0.4c5.5-6.5,15.1,0.4,15.2,0.5L261.5,77.2z"/>
						</g>
						<g>
							<path class="st17" d="M286.7,105.4c-0.7,0-1.6,0-3.2-0.1c-1.5-0.1-3.3-0.1-5-0.2c-3.9-0.1-7.9-1-8.2-1.1l0.1-0.4
								c0.3,0.1,4.2,0.5,8.2,0.5c1.7,0,3.5,0.1,5,0.2c1.7,0.1,3.6,0.2,3.9,0.1c0.1-0.1,0.2-0.3,0.2-0.3l1,0c0,0.3-0.2,0.8-0.7,1.2
								C287.7,105.4,287.4,105.4,286.7,105.4z"/>
						</g>
						<g>
							<path class="st17" d="M280.1,112c-1.7,0-3.4-1.2-3.5-1.3l0.4-0.3c0,0,2.3,0.8,4.2,0.4l0.2,1C281,112,280.5,112,280.1,112z"/>
						</g>
						<g>
							<path class="st9" d="M304,90.4l-0.4-0.3c0.6-0.8,0.9-1.7,0.9-2.6c0-2.6-2.5-4.8-5.5-4.8c-3,0-5.5,2.1-5.5,4.8
								c0,0.8,0.5,2,0.9,2.7l-0.6-0.1c-0.5-0.8-0.7-1.7-0.7-2.5c0-2.9,2.7-5.3,6-5.3c3.3,0,6,2.4,6,5.3
								C305,88.5,304.7,89.5,304,90.4z"/>
						</g>
						<g>
							<path class="st9" d="M262.1,86.4c0,1.1-0.7,2.1-1.7,2.8l0.1,0c0.2-0.1,0.6-0.1,0.8-0.2c0,0-0.1,0.1-0.1,0.1
								c0.8-0.8,1.3-1.7,1.4-2.8c0.1-1-0.3-2-1.1-2.9c-1-1.1-2.6-1.8-4.4-1.9c-0.1,0-0.2,0-0.3,0c-3,0-5.4,1.9-5.5,4.3
								c-0.1,1.1,0.6,2.4,1.5,3.3l0.6,0.1c-0.8-0.8-1.6-2.4-1.6-3.3c0.1-2.1,2.3-3.8,5-3.8c0.1,0,0.2,0,0.3,0c1.6,0.1,3.1,0.7,4,1.7
								C261.9,84.6,262.2,85.5,262.1,86.4z"/>
						</g>
						<g>
							<path class="st19" d="M338,144.1c0.2-0.6,0.4-1.1,0.6-1.7c-0.4-1.5-0.8-2.9-1.3-4.3c-1.7-5.1-3.4-7.7-3.6-7.9l-0.1-0.2
								l-0.7,0.7c0.2,0.3,1.8,2.7,3.5,7.7C337,140.2,337.5,142.1,338,144.1z"/>
						</g>
						<g>
							<path class="st19" d="M294.9,376.7c-1.1-8.7-3.4-40.2-4.2-57c-0.3-6.3-0.6-11.4-0.6-11.7l0.3-0.5c0.1,0.2,0.9,2.9,1.3,12.2
								c0.9,16.8,2.4,48,3.6,56.6L294.9,376.7z"/>
						</g>
						<g>
							<path class="st19" d="M337.1,369.2c-12.3-13.5-13.4-60.2-13.4-62.2l1,0c0,0.5,0.7,48.6,12.8,61.8L337.1,369.2z"/>
						</g>
					</g>
					<circle class="st3" cx="257.9" cy="84.6" r="1.4"/>
					<circle class="st3" cx="301.3" cy="86.1" r="1.3"/>
				</g>
				<path class="st20" d="M293.4,81.4c0.5-0.3,1.1-0.2,1.7-0.3c0.7-0.1,1.3-0.2,2-0.2c3.7-0.3,7.1,0.1,10,2.2
					c0.3,0.2,0.8,0.7,1.2,0.6c0.8,0,0.8-1.2,0.6-1.6c-1.4-2.7-5.2-3.8-8.4-3.5c-1,0.1-2.2,0.3-3.2,0.7
					C295.9,79.8,294.6,80.6,293.4,81.4z"/>
				<path class="st20" d="M260.2,81.1c-0.3-0.2-0.8-0.2-1.1-0.2c-0.4-0.1-0.9-0.1-1.3-0.1c-2.5-0.2-4.8,0.1-6.8,1.5
					c-0.2,0.2-0.5,0.4-0.8,0.4c-0.5,0-0.5-0.8-0.4-1.1c0.9-1.8,3.5-2.6,5.6-2.4c0.7,0.1,1.5,0.2,2.2,0.4
					C258.5,80,259.4,80.5,260.2,81.1z"/>
				
					<ellipse transform="matrix(0.9913 -0.1317 0.1317 0.9913 -10.3309 40.7476)" class="st21" cx="303" cy="98.5" rx="9.2" ry="4.7"/>
				
					<ellipse transform="matrix(0.2382 -0.9712 0.9712 0.2382 102.4277 321.504)" class="st21" cx="256.2" cy="95.5" rx="4.1" ry="8.1"/>
			</g>
			<g id="XMLID_112_">
				<g>
					<path class="st6" d="M256.6,142.4c-1.1-1.6-2.2-3.2-3.2-4.9c-1.5,0-3,0-4.5,0.1c0.2,0.3,0.3,0.6,0.5,0.9
						c0.4,0.1,0.7,0.4,0.9,0.9c0.2,0.4,0.4,0.8,0.6,1.2c0.4,0.6,0.2,1.2-0.2,1.6c1,7.8,1.1,15.7-0.9,23.4c1.6-0.6,3.1-1.3,4.2-2.2
						l0.2,0c0.6-7.6,1-13.6,1.3-16.4c-0.2-1-0.3-2.1-0.3-3.2C255.2,142.9,255.9,142.4,256.6,142.4z"/>
					<path class="st6" d="M266.5,159.4c-2.2-3-4.2-6.2-6-9.4c-0.7-0.8-1.4-1.6-2.1-2.3c1.2,4.6,4.2,8.5,7.5,12.2
						C266.1,159.7,266.3,159.6,266.5,159.4z"/>
					<path class="st6" d="M331.7,176.9c0.6,0.6,1.3,1.1,1.9,1.6c0-0.4,0-0.7,0-1.1c0.3-8.9,1.4-17.7,2.7-26.5
						c-0.4-0.4-0.7-1-0.4-1.7c2.1-5,4.2-10.2,4.1-15.8c-0.6-0.6-0.5-0.3-1-1c0,0.2-0.4-0.7-0.5-0.1c-3.6-1-7.1-2.1-10.8-2.7
						c0.7,0.3,1.1,1.1,0.7,1.9c-3.2,5.8-8.2,10.2-13.9,13.3c-1.9,2.3-3.9,4.5-5.9,6.4c-2.2,2.6-4.5,5.1-7.1,7.4
						c-0.3,0.2-0.6,0.3-0.9,0.3c-1.8,1.7-3.7,3.4-5.7,4.9c0,0,0,0-0.1,0.1c0,0,0,0,0,0c-0.1,0.1-0.2,0.1-0.3,0.2
						c-0.5,0.3-0.9,0.3-1.3,0c-1.2,1-2.4,2-3.6,3c0,0-0.1,0.1-0.1,0.1c0,0,0,0,0,0c-0.1,0.1-0.2,0.1-0.3,0.2
						c-0.6,0.4-1.1,0.3-1.5-0.1c-0.6,0.2-1.2,0.3-1.8,0.5c0.2,0.9-0.4,2-1.6,1.7c-0.3-0.1-0.5-0.2-0.8-0.3c-0.3,0.3-0.7,0.4-1.2,0.3
						c-1.4-0.4-2.7-0.9-4-1.5c0.3,0.7,0.6,1.5,0.9,2.3c0.4,1.4-1.3,2.2-2.2,1.3c-1.4-1.3-2.8-2.6-4.1-4c-0.6-0.1-1.1-0.6-1.1-1.2
						c-1.3-1.4-2.5-2.9-3.6-4.3c-0.2,0.1-0.3,0.1-0.5,0.2c1.2,1.4,2.5,2.7,3.6,4.1c1.1,1.3-0.8,3.2-1.9,1.9
						c-5.2-6.5-12.5-12.7-14-21.2c-0.2,2.9-0.7,8.9-1.3,16.4c-1.4,17.8-3.4,44.1-4.1,58c20,9.1,42,10.7,63.6,13
						c6.9,0.7,12.8,1.8,19.7,1.7c-1.3-23.1-1.9-58.8-1.9-58.8L331.7,176.9z"/>
				</g>
			</g>
			<path class="st15" d="M350.5,366.8c-0.1-0.4-4.3-9.7-4-11.9c0.2-2.3,0.4-3.3,0.4-3.3s-7.8-40.3-9.4-54.8
				c-1.5-14.3-1.8-23.7-1.8-23.9c-0.3-0.2-0.6-0.4-0.9-0.7c-0.1-1.4-0.3-2.8-0.5-3.9c0.4-12.1-0.9-22.3-1.1-33.2
				c0.1,0,0.2-0.1,0.4-0.1c-1-4-1.7-8-1.7-12.6c0-4.6,0-8.5,0.2-13c0.3-5.4,0.3-11.8-0.3-17.2c-0.6-4.8-0.9-8.8-0.6-13.7
				c0.8,0.3,1.6,0.7,2.4,1.1c0-0.7,0-1.3,0.1-2c0.3-8.9,1.4-17.7,2.7-26.5c-0.4-0.4-0.7-1-0.4-1.7c2.1-5,3.8-10.2,3.7-15.8
				c-1-1.1-0.5,0.1-1.2-1.2c0,0.1,0.1,0.1,0.1,0.2c-0.1-0.1-0.2-0.1-0.4,0.4c-0.4-1.5-0.7-0.5-2.3-1.3c-1.4-0.7-4.5-1.6-6.1-1.6
				c-5.6,0.1-8.7,0.8-12.5,4.5c-3.3,3.3-6.5,6.1-9.9,9.4c-3.6,3.4-6.6,6.1-11.1,8.6c-4.2,2.4-8.7,5.6-13.5,6.3
				c-4.8,0.8-9.2,0.5-12.6-3.1c-1.1-1.2-4.1-2.2-4.9-3.6c-1.5-2.9-3.7-4.2-5.7-6.6c-1.8-2.3-2.2-5.5-3.7-7.7
				c-0.3,0.2-0.6,0.3-1.1,0.1c-1.1-0.4-2.4-0.4-3.6-0.5c-0.9-0.1-1.7-0.2-2.6-0.2c0.2,0.4,0.4,0.9,0.7,1.3c0.4,0.1,0.7,0.4,0.9,0.9
				c0.2,0.4,0.4,0.8,0.6,1.2c0.4,0.6,0.2,1.2-0.2,1.6c1,7.4,1.1,14.8-0.6,22.1c2-1,3.9-2.5,5.3-4.4c1.6-2.1,2.5-5.3,4.3-7.4
				c5.4,6,12.5,12.9,17.8,14.5c2.5,0.6,6.7-0.7,11.1-2.6c5.9-0.8,11.8-3.6,14.8-8c0.3-0.2,0.5-0.3,0.6-0.4c-0.1,2-0.2,3.9-0.2,6
				c0,1.9,0.3,3.7,0.7,5.4c-0.5,15.1-1,38.9-0.9,43c0.2,6.1,1.1,29.3,1.2,29.7c0.1,0.4,1.2,39.5,0.5,57.4
				c-0.7,17.9,0.5,33.9,0.5,33.6c0-0.4,5.3-40.1,5.3-40.1s3.7,24,5.3,32.6c1.7,8.7,0.6,28.6,0.9,37.7c0.4,9.1,0.8,12-0.6,13.9
				c-1.4,1.9-2.6,4-2.3,5.1c0.4,1.1,6.5,4.9,11.2,3.2c5-1.8,12.3-9.4,15.8-10.8c3.4-1.4,9.4-5.1,9.5-5.7
				C351.2,366.2,350.6,367.1,350.5,366.8z"/>
			<path class="st18" d="M340.2,133c-1.1-1-2.3-1.6-6.3-2.9l-0.4-0.1c-6.3-1.7-13,0.8-16,4.1c-3.7,4-21.7,20.8-31.5,23.9
				c-10.9,3.3-19.2-4.1-24.4-10.9c-1.2-1.7-2.5-3.8-3.9-6.5c-2.9-5.8-5.6-13.1-7.6-18.4c-0.5-1.4-1-2.7-1.4-3.8
				c-2.8-7.3-3.9-15.5-5.2-23.1c-1.5-8.8-2.7-17.5-4.2-26.3c-0.1-0.9-0.3-1.8-0.4-2.6l-0.9-2c1.1,6.3,1.8,12.7,2.8,19
				c1.5,9.9,2.9,19.9,5.3,29.6c0.5,1.9,1,3.9,1.7,5.8c0.4,1.1,0.9,2.4,1.4,3.8c2,5.3,4.6,12.6,7.6,18.5c1.3,2.7,2.7,5,4,6.7
				c4.4,5.9,11.2,12.1,19.8,12.1c1.8,0,3.7-0.3,5.6-0.9c9.9-3.1,28.2-20.1,31.9-24.2c2.8-3.1,9.1-5.4,15-3.8l0.4,0.1
				c0.3,0.1,3.8,0.4,7.3,3.3L340.2,133z"/>
			<path class="st19" d="M351.2,367.7c0-0.1-3.2-9.3-4-13c-0.4-1.9-0.7-3.8-1.1-5.7c-0.9-4.8-1.8-9.6-2.7-14.5
				c-1.1-6.4-2.2-12.8-3.2-19.3c-1.1-6.8-2.1-13.7-2.9-20.6c-1.3-10.9-2-21.8-2.5-32.8c-0.1-3.1-0.2-6.2-0.3-9.2
				c-0.1-3.9-0.2-7.9-0.4-11.8c-0.1-1.6-0.1-3.2-0.2-4.8c-1.3-22.8-1.9-58.5-1.9-58.8l-1,0c0,0.4,0.6,36,1.9,58.8
				c0.2,4,1.4,35.3,1.6,38.2l0.1,0.2c1.1,27.5,11.6,79.8,11.7,80.4c0.7,3.4,3.3,10.9,3.9,12.8c-1.7,0.9-9.1,5-16.2,8.9l-0.1,0.1
				c-6.9,6.5-8.9,6.5-11.7,6.4c-0.7,0-1.4,0-2.3,0l-0.1,0l0,0.5l-0.2-0.5c-1.8,0.1-4.5-0.4-7.6-1.1c-4.6-0.9-9.8-1.9-14-1.4
				c-0.2,0-0.4,0-0.6,0l-0.3,0c-1.6,0.3-3.6,0.6-5.7,1c-7.2,1.4-18.1,3.4-20.3,1.7c-2.5-2-4.1-2.9-7-4.3c-0.4-0.2-0.8-0.4-1.3-0.6
				c-0.3-0.2-0.7-0.4-1.1-0.5c-3.8-1.9-9.8-3.4-11.8-3.9c0.2-0.4,0.4-0.8,0.6-1.3c8.4-18.2,11.4-52.6,11.4-53l-0.6,0.2
				c0,0.3-3.5,34.4-11.8,52.4c-0.3,0.6-0.6,1.2-0.9,1.8l-0.3,0.6l0.6,0.1c0.1,0,7.9,1.8,12.2,4c0.4,0.2,0.8,0.4,1.1,0.6
				c0.4,0.2,0.8,0.4,1.2,0.6c2.8,1.4,4.4,2.3,6.8,4.2c0.8,0.6,2.3,0.9,4.2,0.9c4.4,0,11.1-1.3,16.8-2.4c2.1-0.4,4.1-0.8,5.7-1l0.3,0
				c0.1,0,0.3,0,0.5,0c4.2-0.5,9.3,0.5,13.8,1.4c3.2,0.6,6,1.2,7.8,1.1c0.1,0,0.3,0,0.5,0c0.8-0.1,1.5-0.1,2.2,0
				c3,0,5.2,0.1,12.3-6.7c8-4.4,16.5-9,16.5-9l0.4-0.2L351.2,367.7z"/>
		</g>
		<g>
			<path class="st19" d="M241.3,315.9c0.3-3.3,1.8-16.7,3.3-29.7c1.9-17.5,3.8-35.1,5.1-52.7c0.4-5.2,0.7-10.4,1.1-15.6
				c1.2-15.9,2.3-31.8,3.5-47.7c0.3-4.4,0.7-8.8,1-13.3c0.3-3.7,1.6-8.5,0.3-12c-1.6,2.2-0.9,6.2-1,8.8c-0.2,3.6-0.6,7.1-0.8,10.7
				c-0.6,7.2-1.1,14.3-1.7,21.5c-1.2,14.4-1.7,28.8-2.9,43.2c-1,12.7-2.1,25.3-3.4,37.9c-0.4,3.5-0.8,7-1.2,10.6
				c-0.3,2.8-0.6,5.6-0.9,8.5c-1.5,13.6-2.9,26.4-3.3,29.7c-0.8,7.9-4.6,37.3-7.9,41.8c-2.6,3-4.2,4.8-4.2,4.8l-0.2,0.2l0.1,0.3
				c0.1,0.2,2.4,4.8,7.8,6.3c1.6,0.4,3.2,1.1,4.7,1.7c0.8,0.3,1.6,0.7,2.4,1c1.5,0.6,3.3,1.1,5.2,1.1c0.7,0,1.4-0.1,2.1-0.2
				c0.2-0.1-0.3-0.1-0.1-0.2l0.5-0.9c-0.2,0.1-0.5,0.1-0.7,0.2c-2.5,0.6-4.8-0.1-6.7-0.8c-0.8-0.3-1.6-0.6-2.4-1
				c-1.5-0.7-3.1-1.3-4.8-1.8c-4.2-1.1-6.4-4.5-7-5.5c0.5-0.6,2-2.2,4-4.6C236.9,353.3,240.7,321.5,241.3,315.9z"/>
		</g>
		<path class="st14" d="M248.4,137.9c-0.7-0.3-2.4,0.2-3.1,0.7c-1.2,0.8,0.7,1.9,1.3,2.4c0.4,0.4,0.9,0.7,1.4,1
			c0.6,0.3,0.7,0.2,1-0.4c0.3-0.7,0.7-1.3,1.1-1.9c0.3-0.4,0.9-1.1,0.8-1.6c-0.6-0.2-1.4-0.1-2-0.1c-0.3,0-0.6-0.1-0.9-0.1"/>
	</g>
	<g id="XMLID_111_">
		<g>
			<path class="st6" d="M253.7,168c3.2-2.5,5.4-3.8,6.9-5.1c3-2.6,5.9-2.2,8.7,0l0.2,0.6c-1.7,0.7-2.9,1.2-3.3,1.4
				c-1,1.9-2.9,6.5-3.2,11.5c-0.2,2.8,0.1,5.6,1.4,8.4c0.8,1.5,1.4,2.1,1.9,2.2v0c0,0-19.6,14.9-27.4,11.1c-7.8-3.8-7-18.5-5-24.7
				c1.9-6,16.3-33.5,17.7-35.6c1.5,0,2.9,0.1,4.1,0.2c-0.5,3-2.7,6.1-2.6,9.7c0.1,1.4,0.4,2.4,1.1,3.1
				C253.9,154.3,253.8,166,253.7,168z"/>
			<path class="st15" d="M264.4,184.7c-1.3-2.7-1.6-5.6-1.4-8.4l3.3-0.5c-0.8,2-0.2,3,0.2,3.4c-0.6,2.4,0.2,3.5,1,4l0,0
				c0,0,0.1,3.9-1.1,3.6C265.8,186.8,265.2,186.2,264.4,184.7z"/>
			<path class="st8" d="M300.1,178.3L300.1,178.3c0,0,0,0-0.2,0.4c-0.3,0.8-0.7,1.4-1.2,1.8c-2.7,2.7-7.1,0.3-7.1,0.3s0,0-1.6,1.2
				c-1.6,1.2-7.7,1.8-7.7,1.8s-2.4,0.6-6-1.4c-1.2-0.7-2.7-1.7-4.1-2.7c-1-0.8-2-1.5-2.9-2.2h0c-0.7-0.6-1.3-1.1-1.7-1.4v0
				c-0.4-0.3-0.6-0.5-0.6-0.5l-0.7,0.1l-3.3,0.5c0.3-5.1,2.3-9.6,3.2-11.5c0.3-0.1,1.6-0.7,3.3-1.4c4-1.6,10.3-4.2,12.2-4.7
				c2.8-0.8,9.1,0.3,11.1,2.1c2,1.8,2,1.8,2,1.8l0,0l-0.4,0.3c-2.7-0.2-5.2,0-5.2,0C290.4,166.7,299.6,177.7,300.1,178.3z"/>
			<path class="st8" d="M266.4,179.3c0.2-0.8,0.6-1.8,1.2-2.9c0.4,0.3,1,0.8,1.7,1.4c-1.3,3.3-1.5,5.1-1.3,5.9
				c-0.1,0-0.4-0.1-0.6-0.3C266.7,182.8,265.8,181.7,266.4,179.3z"/>
			<path class="st8" d="M270.2,184.1c0-1.6,1.9-4.1,1.9-4.1l0.1-0.1c1.4,1,2.8,2,4.1,2.7c-0.8,0-2.6,3.6-5.2,2.8
				C270.5,185.1,270.2,184.6,270.2,184.1z"/>
			<path class="st8" d="M298.6,163.8c0.9,3.4,2.7,10.3,3.2,15.3l-1.6-0.8l0,0c-0.6-0.7-9.7-11.6-10.9-15.3c0,0,2.5-0.3,5.2,0
				c1.4,0.1,2.8,0.3,3.9,0.8L298.6,163.8z"/>
			<path class="st15" d="M301.7,179.2c0.2,1.6,0.2,3.1,0,4.2c-0.6,4-0.6,4-0.6,4s-2-4.5-2.4-6.7c0.5-0.4,0.9-1.1,1.2-1.8
				c0.2-0.4,0.2-0.4,0.2-0.4L301.7,179.2z"/>
			<path class="st6" d="M320.9,170.1l0.1-0.1c0,0-0.6-12.7-0.2-17.2c1.6-0.4,1.9-0.8,3.3-2.3c3-3.2,6.8-5.8,9.5-9.2
				c1.7-2.2,1-3.9,2-6c0.4-1,1.3-1.8,2.1-2.6c2.3,4.7,6.8,23,7.2,26.8c0.4,4,4.7,24.3,4.9,33.6c0.2,9.3-3.2,11.5-3.2,11.5
				s-3.1,1.2-10.7,1.4c-10.5,0.2-26-15.5-26.2-16.1c-0.2-0.6-2.6-1.6-4-1.2c-1.4,0.4-4.1-1-4.6-1.4c0,0,0,0,0.6-4
				c0.2-1.1,0.2-2.5,0-4.2c-0.5-5.1-2.2-11.9-3.2-15.3l-0.2,0c-1.1-0.5-2.5-0.7-3.9-0.8l0.4-0.3l5.2-4.7l6.5,4.4
				c0,0,6.3,3.6,9.1,4.6C317.1,167.6,318.9,168.9,320.9,170.1z"/>
		</g>
	</g>
	<path class="st15" d="M316.4,148.2c-2.8,0.4-1.6,2.5,0.2,3.3c2.1,1,4,0.5,4.2,3.2c0.3,3.9-2.1,8.6-2.5,12.4
		c3.1-3.5,5-10.1,9.2-12.3c1.7,2,2.9,4.6,2.2,7c-0.9,3.5-6.2,6.6-5.9,10.4c2,0.1,4.1-0.2,6.1,0.3c1.8,0.5,3.7,1.7,5.3,2.2
		c-1.1,0.1-2.3-0.1-3.4,0.3c1.7-0.4,4.3,1.2,5.5,2.3c2.5,2.2,2.5,5.3,2.3,8.5c-0.2,4.7-3.4,9.9-6.6,13.3c-4.3,4.5-11.2-2.7-14.6-5.8
		c-3.6-3.2-8.3-3.5-12-6.5c-2.6-2.2-2.7-5.3-4.7-7.5c-1,0.8-1.7,4.6-1.7,5.9c0,2.1,1,2.4,3,3c1.7,0.5,4.4,0.3,5.7,1.4
		c1.3,1.1,1.1,2.1,1.4,3.8c0.5,3.2,2,4.9,4.3,7.2c2.1,2.2,3.6,4.9,6,6.7c3.1,2.4,5.5,3.7,9.3,3.7c-0.8-0.8-1-1.9-0.8-3
		c1.7,0,2.8-1.7,4.4-2c1.8-0.3,4,0.1,5.8,0c6.1-0.4,9.5-0.7,9.6-7.8c0.1-8.2-0.9-16.1-1.7-24.1c-0.8-7.9-2.1-16.1-4.6-23.6
		c-1.3-3.8-1.8-7.8-3.2-11.5c-1-2.5-2.2-4.9-4.9-5.4c-4.4-0.9-7.6,0.8-11.2,2.9c-2.8,1.5-5.3,3.2-6.6,6.2c-0.8,1.8-2.4,5.3-1.7,7.4
		c-0.3-0.5-0.6-1-1.1-1.5"/>
	<path class="st15" d="M306.4,165.3c1.8,2.8,4,7.4,5.4,11c1.8,4.4,2.6,8.5,5.2,12.2c0.4-2.5-0.7-5.6-1.5-7.4
		c0.7,1.4,1.8,4.7,3.5,4.7c1.2-3.3,0.1-7.5,1-10.9c1.9,1,3.1,3.5,5.1,4.6c-1.2-3.7-3.4-5.9-6.7-7.9c0,1.3,1.7,8.7-0.5,9.1
		c-1.9,0.3-4.8-8.5-5.7-10.1c-1-1.9-2-3.5-2.8-5.4c-0.9-2.2-1.6-3.8-4.4-3.5c0.9,2.1,2.4,4.7,4,6.3"/>
	<path class="st15" d="M262.2,180.4c-4.1,5.5-6.8,9.6-13.3,12.2c-2.5,1-5.6,2.7-8.4,2.1c-5.4-1.3-6.3-11.2-7.7-15.5
		c-1.6,5.8-0.4,13.2,4.6,17.2c3.9,3.2,8.7,0.8,12.8-0.4c4.7-1.4,9.2-2.9,13.1-5.9c1.6-1.2,2.5-2,2.4-4c-0.1-1.2-0.8-3.7-1.7-4.6
		c-1.1-1.1-2.2-1.5-2.6,0.7"/>
	<path class="st12" d="M262.9,176.2c1.9-0.4,4-0.9,5.8,0c1.9,1,3.3,2.5,5.7,2.9c1.6,0.3,3.7,0.1,5.3-0.2c2.3-0.5,3.8-0.4,6.3-0.5
		c2.4,0,4.4-1.2,6.8-1.4c3.4-0.3,2.2-0.7,1.9-3.5c-0.2-2.4,1.8-7,4.2-8.6c0.6,2,0.9,4.4,1.2,6.5c0.2,1.6,1.4,4.4,1.4,5.8
		c0,1.6-2.1,3.3-3.7,4.1c-1.7,0.8-4.5,0.6-6-0.6c-3.4,3.5-5.1,2.4-10.9,3.6c-0.8,0.2-2-0.9-2.8-0.9c-0.9,0-1.1-1.3-2-0.5
		c-2.2,1.8-5.5,3.8-6,1.3c-2.3,1.2-2.4,0.1-2.5-2.8c-0.4,0.1-1.1-0.2-1.6-0.1c-0.3-1.3,0.3-2.2,0-3.1c-0.3-1.2-0.3-2-1.9-2.2"/>
	<g>
		<g>
			<path class="st19" d="M241.9,199.2c-1.2,0-2.3-0.2-3.2-0.7c-8.2-4-7.1-19.5-5.2-25.2c1.9-6,16-33.1,17.7-35.7
				c0.1-0.1,0.1-0.2,0.2-0.3l0.7,0.7l-0.3-0.4l0.3,0.4c-1.5,2.3-15.8,29.9-17.6,35.6c-1.8,5.5-3,20.3,4.7,24.1
				c7.4,3.6,26.7-10.9,26.8-11l0.6,0.8C265.8,187.9,250.9,199.2,241.9,199.2z"/>
		</g>
		<g>
			<g>
				<path class="st19" d="M239.9,179.8l-0.2,0c0-0.8,1.6-3.7,5.1-5.6c1.4-0.7,4-2.6,7.5-5.2c3.3-2.5,6.5-5.1,8-6.4
					c3-2.5,6.4-2.2,9.7,0.4l-1,0.4c-2.9-2.2-5.5-2.3-8.1,0c-1.5,1.3-4.8,3.9-8.1,6.5c-2.5,1.9-5.9,4.4-7.7,5.3
					C241.9,176.7,239.9,179.4,239.9,179.8z"/>
			</g>
		</g>
		<g>
			<g>
				<path class="st19" d="M266.4,187.5c-0.1,0-0.2,0-0.2,0c-0.6-0.1-1.3-0.9-2.2-2.4c-1.2-2.6-1.7-5.4-1.5-8.6
					c0.3-5,2.2-9.5,3.3-11.7l0.4-0.7c0.1-0.2,0.1-0.3,0.2-0.3l0.9,0.4c0,0.1-0.1,0.2-0.2,0.4l-0.4,0.6c-1.1,2.2-2.9,6.5-3.2,11.3
					c-0.2,3,0.3,5.8,1.4,8.1c0.9,1.7,1.4,1.9,1.5,1.9c0.3-0.1,0.6-1.5,0.5-3.1l1,0c0,0.7,0,3.2-0.8,3.9
					C266.8,187.4,266.6,187.5,266.4,187.5z"/>
			</g>
		</g>
		<g>
			<g>
				<path class="st18" d="M255.5,137.5c-1.3-0.1-2.6-0.2-3.8-0.2c-3.3-0.2-5.5,0-6.5,0.5c-0.7,0.4-0.8,0.8-0.8,1.2
					c0,1.5,3.4,3.2,4.4,3.7l0.4-0.9c-1.8-0.9-3.8-2.2-3.8-2.8c0-0.1,0.2-0.2,0.3-0.3c0.5-0.2,1.9-0.6,6.1-0.4c1.3,0,2.7,0.1,4,0.2
					c0.1,0,0.2,0,0.3,0C255.7,138.2,255.6,137.9,255.5,137.5z"/>
			</g>
		</g>
		<g>
			<g>
				<path class="st18" d="M245.8,138.4l-0.9-0.3c0-0.1,3-11.3,2.9-18.1c0-0.6,0-1.1-0.1-1.6l1-0.1c0,0.5,0.1,1,0.1,1.6
					C248.9,127,245.9,137.9,245.8,138.4z"/>
			</g>
		</g>
		<g>
			<g>
				<path class="st19" d="M243.9,175.2c0,0-1.7-1.9-3.9-1.8l-0.1-0.1c2.5-0.2,4.4,1,4.5,1.1L243.9,175.2z"/>
			</g>
		</g>
		<g>
			<path class="st17" d="M266.4,165.3l0.6-1l0.1-0.2l2.1-1.2c4.8-2,10.5-4.3,12.2-4.8c2.9-0.8,9.4,0.3,11.6,2.2l2,1.8l-0.7,0.7
				l-2-1.8c-1.9-1.8-8-2.7-10.6-2c-2,0.5-9.1,3.5-12.1,4.7L266.4,165.3z"/>
		</g>
		<g>
			<g>
				<path class="st17" d="M299.7,178.7l-0.2-0.2c-3.6-4.4-9.9-12.2-10.8-15.2l-0.2-0.6l0.6-0.1c0.1,0,2.6-0.3,5.3,0
					c1.6,0.1,3,0.4,4,0.8l-0.4,0.9c-1-0.4-2.3-0.7-3.8-0.8c-1.8-0.2-3.6-0.1-4.5,0c1.1,2.5,4.8,7.6,10.4,14.3l0.2,0.2L299.7,178.7z"
					/>
			</g>
		</g>
		<g>
			<g>
				<path class="st17" d="M281.3,184.5c-1.1,0-2.9-0.2-5.3-1.5c-1.3-0.7-2.8-1.8-4.1-2.7c-1-0.8-2.1-1.5-2.9-2.2l0.6-0.8
					c0.8,0.7,1.8,1.4,2.9,2.2c1.3,0.9,2.8,2,4,2.6c3.3,1.8,5.6,1.3,5.6,1.3c1.7-0.2,6.4-0.8,7.6-1.7l1.8-1.4l0.3,0.1
					c0,0,4.2,2.1,6.6-0.3c0.4-0.4,0.8-1,1.1-1.7l0.2-0.4l0.9,0.4l-0.2,0.4c-0.3,0.8-0.8,1.5-1.3,2c-2.5,2.5-6.4,1-7.4,0.6l-1.4,1
					c-1.6,1.2-7.3,1.8-8,1.9C282.3,184.4,282,184.5,281.3,184.5z"/>
			</g>
		</g>
		<g>
			<g>
				<path class="st17" d="M269,178.1l-0.4-0.3c-0.5-0.4-1-0.8-1.3-1l0.6-0.8c0.3,0.2,0.8,0.6,1.3,1.1l0.4,0.3L269,178.1z"/>
			</g>
		</g>
		<g>
			<g>
				<path class="st17" d="M263.5,176.9v-1.1l3.6-0.5l0.2,0.1c0,0,0.2,0.2,0.6,0.5l-0.6,0.8c-0.2-0.2-0.4-0.3-0.5-0.4L263.5,176.9z"
					/>
			</g>
		</g>
		<g>
			<g>
				<path class="st19" d="M331.6,173.8c-1.6-0.3-3.2-0.7-4.7-1.1c-2.1-0.6-4.2-1.9-5.7-2.9c-0.5-0.3-0.9-0.6-1.3-0.9
					c-1.5-1-2.9-1.9-4-2.3c-2.7-1-9-4.6-9-4.6l-6.8-4.6l-5.3,4.8c0,0,0,0,0.1,0.1c0,0,0,0,0,0c0,0,0,0,0,0c0.1,0,0.1,0.1,0.2,0.1
					c0.2,0.1,0.4,0.3,0.5,0.4l4.6-4.2l6.2,4.2c0.3,0.2,6.4,3.7,9.2,4.7c1.1,0.4,2.4,1.3,3.8,2.2c0.4,0.3,0.9,0.6,1.3,0.9
					c1.5,1,3.7,2.3,5.9,3c1.6,0.5,3.2,0.8,4.8,1.2c2.6,0.6,5.1,1.1,7,2.1l0.3-0.4C336.7,175.4,334.3,174.3,331.6,173.8z"/>
			</g>
		</g>
		<g>
			<path class="st19" d="M330.7,173.7l-1.2-0.1c0.4-0.5,4.8-5.3,6.9-5.9l-0.2,0.4C334.7,168.6,331.8,172.3,330.7,173.7z"/>
		</g>
		<g>
			<path class="st19" d="M320.5,170c0-0.5-0.6-12.8-0.2-17.3c0.1-0.9,0.2-1.4,0.3-1.7l0.8,0.5c0,0-0.1,0.2-0.2,1.2
				c-0.3,4.4,0.2,17,0.2,17.2L320.5,170z"/>
		</g>
		<g>
			<g>
				<path class="st19" d="M302.2,179.1c-0.3-3.7-1.4-8.9-3.2-15.4c-0.4-1.3-0.6-2.1-0.6-2.1l-0.9,0.3c0,0,0.2,0.8,0.6,2.1
					c1.7,6.4,2.8,11.7,3.2,15.3c0.2,1.7,0.2,3.1,0,4l-0.4,2.3c-0.6-1.5-1.4-3.6-1.6-4.8c-0.3,0.2-0.6,0.5-0.9,0.7
					c0.6,2.3,2.2,6,2.3,6.2l0.8,0l0.8-4.1C302.4,182.4,302.4,180.9,302.2,179.1z"/>
			</g>
		</g>
		<g>
			<path class="st19" d="M335.7,206.5c-10.8,0-26.2-15.7-26.5-16.5c-0.2-0.3-2.2-1.2-3.4-0.9c-1.6,0.5-4.6-1-5-1.5l0.7-0.7
				c0.4,0.3,3,1.6,4.1,1.3c1.6-0.4,4.3,0.6,4.6,1.5c0.5,0.8,15.4,15.8,25.5,15.8c0.1,0,0.1,0,0.2,0c7.3-0.2,10.4-1.3,10.5-1.4l0,0
				c0,0,3-2.2,2.9-11c-0.1-6.3-2.2-18-3.6-25.7c-0.7-3.7-1.2-6.6-1.3-7.9c-0.4-3.7-4.9-22-7.2-26.6c-0.1-0.2-0.2-0.3-0.2-0.4
				l-0.1-0.1l0.9-0.5l0.1,0.1c0.1,0.1,0.2,0.3,0.3,0.5c2.3,4.7,6.9,23,7.3,27c0.1,1.2,0.6,4.1,1.3,7.8c1.4,7.7,3.5,19.4,3.6,25.9
				c0.2,9.5-3.2,11.8-3.4,11.9c-0.2,0.1-3.4,1.3-10.9,1.5C335.8,206.5,335.8,206.5,335.7,206.5z"/>
		</g>
		<g>
			<path class="st17" d="M271.9,185.9c-0.3,0-0.6,0-0.9-0.1c-0.8-0.2-1.3-0.9-1.3-1.7c0-1.8,2-4.3,2-4.4l0.8,0.6
				c-0.5,0.7-1.8,2.6-1.8,3.8c0,0.4,0.2,0.7,0.6,0.8c1.4,0.4,2.7-0.8,3.6-1.8c0.6-0.6,1-1,1.4-1l0,1c-0.1,0.1-0.5,0.4-0.8,0.7
				C274.7,184.6,273.5,185.9,271.9,185.9z"/>
		</g>
		<g>
			<path class="st17" d="M269,184.9c-0.2,0-0.5,0-0.7-0.1c-0.3-0.1-0.6-0.4-0.8-1c-0.3-1.2,0.1-3.2,1.3-6.2l0.1-0.3
				c0-0.1,0.1-0.1,0.1-0.2l0.9,0.4c-0.1,0.2-0.1,0.3-0.2,0.5l-0.2,0.4c-1.3,3.4-1.3,4.8-1.2,5.3c0.1,0.3,0.2,0.3,0.3,0.4
				c0.2,0.1,0.7,0,1.2-0.2l0.3-0.2l0.5,0.8l-0.4,0.2C269.9,184.7,269.4,184.9,269,184.9z"/>
		</g>
		<g>
			<path class="st17" d="M268.1,184.1c0,0-0.1,0-0.1,0c-0.3-0.1-0.6-0.2-0.8-0.4c-0.7-0.5-1.9-1.7-1.2-4.5c0.2-0.9,0.6-1.9,1.2-3
				l0.2-0.4l0.9,0.4l-0.2,0.4c-0.5,1-0.9,2-1.1,2.8c-0.4,1.7-0.2,2.9,0.8,3.5c0.2,0.1,0.4,0.2,0.5,0.3c0.1,0,0.2,0.1,0.2,0.1
				L268.1,184.1l0.2-0.5L268.1,184.1z"/>
		</g>
		<g>
			<g>
				<path class="st17" d="M266.4,179.9c0,0-0.1-0.1-0.3-0.2c-0.4-0.4-1.2-1.6-0.3-3.9c0.1-0.3,0,0.1,0.2-0.3l1,0.3
					c-0.2,0.4-0.2,0.1-0.3,0.4c-0.7,1.9-0.1,2.7,0.1,2.9c0.1,0.1,0.1,0.1,0.1,0.1L266.4,179.9z"/>
			</g>
		</g>
		<g>
			<g>
				<polygon class="st17" points="301.5,179.6 299.8,178.4 299.6,177.5 302,178.7 				"/>
			</g>
		</g>
	</g>
</g>
</svg>
