<?xml version="1.0" encoding="utf-8"?>
<!-- Generator: Adobe Illustrator 21.1.0, SVG Export Plug-In . SVG Version: 6.00 Build 0)  -->
<svg version="1.1" id="Layer_1" xmlns="http://www.w3.org/2000/svg" xmlns:xlink="http://www.w3.org/1999/xlink" x="0px" y="0px"
	 viewBox="0 0 121.5 121.5" style="enable-background:new 0 0 121.5 121.5;" xml:space="preserve">
<style type="text/css">
	.st0{clip-path:url(#SVGID_2_);}
	.st1{fill:#019147;}
	.st2{fill:#FFDE4C;}
	.st3{opacity:0.4;fill:#028142;}
	.st4{fill:#66BFEB;}
	.st5{fill:#FFE6BD;}
	.st6{fill:#4CA7D3;}
	.st7{fill:#F7CC98;}
	.st8{fill:#285779;}
	.st9{fill:#8E4C2B;}
	.st10{fill:#D2DCE0;}
	.st11{fill:#868C8E;}
	.st12{fill:#A3CD3A;}
	.st13{fill:#868B8D;}
	.st14{fill:#231F20;}
	.st15{fill:#FFFFFF;}
	.st16{fill:#693B17;}
	.st17{fill:#DAE1F2;}
	.st18{fill:#FCCFB7;}
	.st19{fill:#D2DDE1;}
	.st20{fill:#8CB33E;}
	.st21{fill:#4E6430;}
</style>
<g>
	<defs>
		<circle id="SVGID_1_" cx="60.8" cy="60.8" r="60.3"/>
	</defs>
	<use xlink:href="#SVGID_1_"  style="overflow:visible;fill:#FFFFFF;"/>
	<clipPath id="SVGID_2_">
		<use xlink:href="#SVGID_1_"  style="overflow:visible;"/>
	</clipPath>
	<g class="st0">
		<g>
			<g id="XMLID_150_">
				<g>
					<path class="st1" d="M132.1,173.5c0,0-13,12.5-22.1,19.8c-10.2,7.4-44.6,7.4-44.6,7.4c-18.8,25.6-80,22.5-80,22.5
						c-12.3-5.1-13.7-10-8.4-15.6c6.8-6.5,32.3-13.7,32.3-13.7c-16-7-4.9-10.9-2.8-12.1c2.1-1.2,44.2-16.1,44.2-16.1L132.1,173.5z"
						/>
					<path class="st2" d="M6.5,181.8c-2.1,1.2-13.2,5.1,2.8,12.1c0,0-25.6,7.2-32.3,13.7c-5.3,5.6-3.9,10.5,8.4,15.6
						c0,0,61.2,3,80-22.5c0,0,34.4,0,44.6-7.4c9.1-7.2,22.1-19.8,22.1-19.8l-81.4-7.7C50.7,165.8,8.6,180.7,6.5,181.8z M66.9,242.3
						l-166-26.4l149.7-51.3l85.8,7.9L66.9,242.3z"/>
					<path class="st1" d="M-99.1,216l166,26.4l69.5-69.8l-85.8-7.9L-99.1,216z M-67.7,232l-14.7,6.6l-3.8-0.6l15.4-6.9l-2.6-0.3
						l-14.8,6.9l-3.6-0.8l15.3-6.7c0,0-2.2-0.1-2.3-0.1c-0.1,0-15.2,6.3-15.2,6.3l-2.4-0.7c0,0,14.8-6.2,14.7-6.3
						c-0.1,0-2.9-0.3-3-0.2c-0.1,0.1-13.6,5.7-13.6,5.7l-4-0.4l14.5-5.9l-1.7-0.4l-15.2,6.2l-4.4-0.6l16.2-6l-2-0.4
						c0,0-15.8,6.4-16,6.4c-0.1,0-3.9-0.4-3.9-0.4l16.6-6.5l-2.7-0.3l-15.7,6.2l-3.6-0.5l16.5-6.2l-2.3-0.4l-16,5.8
						c0,0-3.4-0.5-3.6-0.5c0.6-0.2,16.8-5.8,16.8-5.8s-2.4-0.5-2.4-0.4c0,0.1-15.3,5.7-15.3,5.7l-4.5-0.5l16.7-5.8l-1.8-0.1l-16.9,6
						c0,0-3.5-0.9-3.4-0.9c0.1,0,17.3-5.8,17.3-5.8l-2.8-0.1l-15.6,5.5l-3-0.7l16-5.4l-1.8-0.4c0,0-15.9,5.5-16,5.4
						c-0.1-0.1-3.1-0.6-3.1-0.6l201.1-65.8l0.7,0.1l-3,1.6l0.8,0.1l3.3-1.3l1.4,0.1l-3.1,1.5l0.9,0.2l3.1-1.5l1.5,0.1
						c0,0-3.1,1.5-3,1.6c0.1,0.1,0.9,0.1,0.9,0.1l3.1-1.5l1.2,0.1l-2.4,1.7h1.1l2.6-1.6h1.3l-2.6,1.8c0,0,0.8,0,1,0
						c0.1,0,2.9-1.5,2.9-1.5l1.5,0.1l-2.8,1.6l1,0.1l2.7-1.5l1.7,0.1c0,0-2.9,1.7-2.8,1.7s1,0.1,1,0.1l2.8-1.7l1.9,0.1l-2.9,1.7h1.1
						l2.6-1.5c0,0,1.4,0.1,1.4,0.1c0,0-2.3,1.6-2.3,1.6l1.2,0l2.3-1.4c0,0,1.7,0,1.7,0c0.1,0-2.5,1.5-2.5,1.5l0.9,0.1l2.7-1.5
						l1.5,0.2c0,0-2.6,1.5-2.5,1.5c0.1,0,1.1,0,1.1,0l2.5-1.3l1.5,0.1l-2.2,1.4l0.8,0.1l2.5-1.3h1.7l-2.8,1.5l1.4,0l2.5-1.2l1.5,0
						l-2.2,1.4l1.2,0.1l2.3-1.3l1.6,0.1l-2.3,1.4l1,0l2.3-1.3l1.7,0.1c0,0-2.4,1.5-2.2,1.5c0.2,0,1,0,1,0l2.3-1.5l1.5,0.1l-2.2,1.4
						h1.4l1.7-1.2l1.9,0.1l-2.4,1.4l1.1,0l2.4-1.4l1.6,0.1c0,0-2.4,1.6-2.3,1.6c0.1,0,0.9,0,0.9,0l2.2-1.4l1.9-0.1
						c0,0-2.2,1.6-2.1,1.6c0.1,0,1,0.1,1,0.1l2.1-1.4l2,0.1l-2.2,1.4l1.1,0l2.1-1.4l1.9,0.3c0,0-2.3,1.5-2.2,1.5
						c0.1,0,1.1,0.1,1.1,0.1l1.9-1.4h1.8l-2.1,1.6l1,0.2l2.2-1.5l1.7,0.1l-1.9,1.5l1.2,0.1l1.7-1.4l1.8,0c0,0-1.9,1.5-1.8,1.5
						c0.1,0,1.2,0,1.2,0l1.7-1.4l1.7,0.1l-1.7,1.5l1.1,0l1.7-1.4h1.9l-1.6,1.6l1-0.1l1.8-1.3l1.6,0.1c0,0-1.7,1.7-1.6,1.7
						c0.1,0,1.2,0,1.2,0l1.6-1.4h1.6l-1.5,1.5l1.2-0.1c0,0,1.6-1.3,1.7-1.3c0.1,0,1.8,0.1,1.8,0.1l-1.7,1.7l1.3-0.1l1.5-1.3l1.7,0.1
						l-1.4,1.6l1,0l1.5-1.4l1.6,0.1l-1.2,1.5l1.4,0.1l1.1-1.3l2.3,0.2L68.9,255l-1.2-0.2l-8.4,8.7c0,0-4.3-0.6-4.4-0.6
						c0.1,0,8.2-8.7,8.2-8.7s-2.8-0.7-2.8-0.6c0,0.1-8.7,8.8-8.7,8.8c-0.1,0-4-0.9-4-0.9s8.7-8.5,8.5-8.5c-0.2,0-3-0.6-3.3-0.4
						c-0.4,0.3-8.3,8.3-8.4,8.3c-0.1,0-3.9-1.1-3.9-1.2c0.1-0.1,8.6-8,8.6-8l-2.8-0.6c0,0-8.2,7.6-8.3,7.7c-0.1,0-4.4-0.5-4.4-0.5
						c0.1,0,8.6-7.9,8.6-7.9s-3.3-0.3-3.3-0.3c0.1,0-8.7,7.8-8.8,7.7c-0.1-0.1-4.4-0.1-4.4-0.1l9.5-8.5c0,0-3-0.4-2.9-0.3
						c0.1,0-10,8.3-10,8.3l-4.5-0.4l10.7-8.6l-3.1-0.4l-10,8.5l-3.8-1.2l9.9-7.9c0,0-2.7-0.6-2.8-0.6c-0.1,0-9.5,7.6-9.5,7.6
						s-4.6-0.8-4.6-0.8c0.1,0,10.5-7.4,10.6-7.4c0.1,0-2.9-0.4-2.9-0.4c0,0.1-10.4,7.3-10.4,7.3l-3.6-0.7l10.4-7.5l-3-0.3L-5,251.5
						l-3.8-0.7l10.7-7.1l-2.9-0.4c0,0-10.8,7.1-10.9,7.1c-0.1,0-4.7-0.1-4.7-0.1c0.1,0,12.1-7.8,12.1-7.8s-2.7-0.4-2.8-0.4
						c0.1,0-11.5,7.6-11.5,7.6l-4.2-0.7c0,0,12.1-7.6,12-7.6c-0.1,0-3-0.4-3-0.4l-12,7.5l-3.3-0.7c0,0,12.1-7.5,12.1-7.5
						c-0.1,0-3-0.2-3-0.2l-11.7,6.8l-3.8-0.4l12.4-7.3l-2.9-0.4l-12.7,7.4l-3.8-0.7l13.4-7.3c0,0-2.8-0.4-2.9-0.4
						c-0.1,0.1-13.5,7.6-13.5,7.6l-3.2-1c0,0,13.4-7.2,13.2-7.2s-2.8-0.1-2.8-0.1l-12,6.6l-4.6-0.6c0.1,0,13.6-6.9,13.5-6.9
						c-0.1,0-2.7-0.3-2.7-0.3l-12.2,6.5l-4.2-0.7l13.3-6.5l-2.6-0.2l-13.5,6.5l-3.5-0.6l13.5-6.6l-3.2-0.4l-12.3,6.3
						c0,0-5.1-0.2-5.1-0.2c0.1-0.1,14.6-6.8,14.6-6.8l-2.8-0.1l-12.5,6.2c0,0-5.4-0.2-5.4-0.3c0.1,0,14.8-6.7,14.8-6.7L-67.7,232z"
						/>
				</g>
				<g>
				</g>
			</g>
		</g>
		<path class="st3" d="M47.4,173.7c-3.7,0-16.7-3-20.2-1.7c-1.9,0.7-33.3,15.8-33.5,19.2c-0.5,6.5,14.3,16.8,17.5,16.7
			c4.8-0.2,34.9,6.1,39.5,6.1c27.3-0.2,31.1-15.5,38.3-24.7c2.6-3.2,4.6-3,3.9-10.4c-0.5-5.8-9-5.7-12.4-6.7
			c-5.6-1.6-11.2-1.6-16.8-1c-3.3,0.4-6.5,1.4-9.7,1.7c-2.5,0.3-5.1-0.1-7.4,1"/>
		<g>
			<g>
				<g>
					<g id="XMLID_149_">
						<g>
							<path class="st4" d="M62.4,170.1c-1.1-0.9-2.3-1.7-3.2-2.1c-1.3-0.7-6.2-2.8-7.6-0.9l0,0c-0.4-0.8-0.6-1.3,0.2-2.1
								c1.2-1.1,2.6-2,3.7-3.4c2.2-2.5,4-5.3,5.8-8.1c1.5-2.2,2.8-4.6,3.8-7c0.8-1.9,1.3-3.7,2.5-5.5c1.1-1.8,2.3-3.8,3.7-5.5
								l-0.1-0.1c0.7-1,0.4-2.6,0.6-3.7c0.4-3.3,0.9-6.5,1.1-9.8c0.2-2.5,0.2-5,0.3-7.4c0.1-1.4,0.1-2.7,0.1-4.1
								c0.1-1.5-0.3-3.6,0.3-5.1l0,0c0.3-0.4,0.6-0.7,0.9-1.1c0.2-0.2,0.4-0.5,0.7-0.8c1.8-2.2,3.6-4.7,6.1-5c1-0.1,1,0.9,1.8,1.1
								c0.8,2.4,3,4.1,3.2,5.9c0.4,4.2,0.7,8.1,0.8,12.4c0.1,3.9,0.2,8.3-0.7,12.3c-1,4.5-0.4,8.7-2.5,12.9
								c-0.6,1.3-1.3,2.6-1.9,3.9c-1.8,3.5-3.7,6.9-6.1,10.2c-1.7,2.4-3.4,4.8-5.1,7.2c-0.9,1.3-1.7,2.7-2.6,4
								c-0.6,0.8-1.6,1.8-2.1,2.8c0,0.8,0.2,1.8-0.2,2.5c-1.1,1.9-3.6,0.7-5.5,0.6c0.9-1.4,1.6-2.9,1.9-4L62.4,170.1z"/>
							<path class="st4" d="M35.8,198.1c8.5-0.1,16.8-0.7,25.1-1.9c8.7-6.9,15.7-17.6,19-27.2c0.1-1.1,0.3-2.2,0.7-3.4
								c0.4-1,0.7-2,1.1-2.9c-0.2-0.2-0.4-0.4-0.5-0.6c-0.1-0.1-0.1-0.2-0.2-0.3c1.3-4.3,1.6-9.2,0.7-14.9
								c-1.8,3.5-3.7,6.9-6.1,10.2c-1.7,2.4-3.4,4.8-5.1,7.2c-0.9,1.3-1.7,2.7-2.6,4c-0.6,0.8-1.6,1.8-2.1,2.8
								c0,0.8,0.2,1.8-0.2,2.5c-1.1,1.9-3.6,0.7-5.5,0.6c-1.3,2.1-3,4.3-4.1,5.6c-1.2,1.4-1.7,3-2.8,4.4c-0.4,0.5-0.9,1.1-1.4,1.3
								c-0.9,0.4-0.9,0.3-1.2-0.5c-0.3-1.1-0.2-2.2,0.2-3.3l-0.2-0.1c-0.5,1.4-1.2,3.3-2.5,4.3c-1.3,1.1-1.8,0.1-1.9-1.1
								c0-0.1,0-0.2,0-0.2c-0.1,0.7-0.3,1.4-0.8,1.8c-1.2,1-1.5-0.5-1.7-1.4c0-0.1,0-0.3-0.1-0.4l-0.1,0c-2.5-1.3-2.4-6.2-1.5-8.7
								c0.4-1.2,1.1-2,2.1-2.8c2.4-1.8,5.1-3.2,7.5-5l0-0.1c-0.1-0.4-0.3-0.7-0.4-1c-0.4-0.8-0.6-1.3,0.2-2.1c1.2-1.1,2.6-2,3.7-3.4
								c2.2-2.5,4-5.3,5.8-8.1c1.5-2.2,2.8-4.6,3.8-7c0.8-1.9,1.3-3.7,2.5-5.5c1.1-1.8,2.3-3.8,3.7-5.5l-0.1-0.1
								c0.7-1,0.4-2.6,0.6-3.7c0.4-3.3,0.9-6.5,1.1-9.8c0.2-2.5,0.2-5,0.3-7.4c0.1-1.4,0.1-2.7,0.1-4.1c0.1-1.5-0.3-3.6,0.3-5.1l0,0
								c-0.4,0.3-0.8,0.7-1.6,1.1c-1.1,0.7-2.1,1.3-3.1,2c-1.4,0.9-2.9,1.9-4.5,2.8c-1.8,1-3.6,2-5.4,3.1c-2.8,1.6-5.7,3.4-8.8,4.8
								c-2.2,1.1-4.2,1.7-6,1.9c-1.4,0.1-2.7,0-3.9-0.4c-2.2-0.8-3.8-2.4-5.4-3.9c-1.7-1.7-3.4-3.3-5.9-3.9c0.1,1,0.2,2,0.2,3.1
								c0.3,5.6,1.4,11.2,2.1,16.7c0.4,3.1,0.6,6.3,0.8,9.4v0c0.1,1.3,0.1,2.6,0.2,3.9c0.1,1.3,0.3,2.4,0.6,3.4
								c-0.5,1.1-1.3,2.9-1.7,3.7c-1,1.8-2.1,3.5-3.2,5.3c-0.7,1.1-2.2,3.4-3.1,5c-0.3,2.3,0.2,5.7-2,6l-0.3,0.2
								c0.3,0.6,0.5,1.1,0.7,1.6c0.2,0.7,0.2,1.4,0.3,2.1c0.1,1.5,0.5,3.1,0.2,4.7c-0.3,1.8-1.5,1.2-2.4,0.1c-0.6-0.7-1-1.6-1.2-2.5
								c-0.1-0.5-0.1-1.4-0.4-1.5l0,0c-1.3,1.8-3.7,4.3-4.4,6.4c-0.3,0.7-0.5,1.5-0.8,2.2c-0.4,0.9-1.2,2.9-2.1,3.4
								c-1.4,0.8-1.3-1.7-1.1-2.9l-0.3,0c-0.2,1.4-2.5,6.6-3.3,3.1c0-0.1-0.1-0.3-0.1-0.4l-0.1,0c0,0.6-0.2,1.6-0.8,1.4
								c-0.4-0.1-0.6-0.8-0.7-1.6h0c-0.4-0.1-0.7-0.6-0.9-1.1c-0.7,0.9-1.3,2-1.8,3.1c0.2,0.2,0.4,0.4,0.6,0.6
								c3.1,2.9,6.6,4.5,10.4,6.4c4.3,2.1,9.1,4.4,14.1,6.1C30.3,199.1,32.8,198.1,35.8,198.1z"/>
							<path class="st5" d="M44,184.7l-0.1,0c-2.5-1.3-2.4-6.2-1.5-8.7c0.4-1.2,1.1-2,2.1-2.8c2.4-1.8,5.1-3.2,7.5-5l0-0.1
								c-0.1-0.4-0.3-0.7-0.4-1l0,0c1.4-1.8,6.3,0.3,7.6,0.9c0.9,0.4,2.1,1.2,3.2,2.1l-0.1,0.2c-0.2,1.1-1,2.5-1.9,4
								c-1.3,2.1-3,4.3-4.1,5.6c-1.2,1.4-1.7,3-2.8,4.4c-0.4,0.5-0.9,1.1-1.4,1.3c-0.9,0.4-0.9,0.3-1.2-0.5
								c-0.3-1.1-0.2-2.2,0.2-3.3l-0.2-0.1c-0.5,1.4-1.2,3.3-2.5,4.3c-1.3,1.1-1.8,0.1-1.9-1.1c0-0.1,0-0.2,0-0.2
								c0.1-0.5,0.1-1.1,0.1-1.5c-0.1,0.5-0.1,1-0.1,1.5c-0.1,0.7-0.3,1.4-0.8,1.8c-1.2,1-1.5-0.5-1.7-1.4
								C44,184.9,44,184.8,44,184.7z"/>
							<path class="st4" d="M25,163.2c-0.3,2.3,0.2,5.7-2,6l-0.3,0.2c-0.3-0.7-0.7-1.5-0.7-2.1l0,0c-2.9-1.6-6.8-1.2-10.1,0.1
								c-0.5,0.4-1,1-1.5,1.6c-1,0.1-2.1-0.8-2.4-1.6c-0.3-1,0.7-1.6,1.3-2.5c1.8-2.9,2.8-6.4,4-9.5c1.2-3.2,2.6-6.4,4-9.5
								c0.7-1.5,1.4-2.8,2.1-4.2c0.6-1.2,1.7-1.5,1.4-3l-1.3-2.7c0.2-0.6,2.4-2.5,2.5-3.1c2.9-6.4,1.8-8.3,1.9-14.8
								c0-1.5,0.6-5.9,0.6-7.3c0.8-0.1,2,1.8,2.8,1.9c0.6,0,1.2,0.1,1.7,0.2c0.1,1,0.2,2,0.2,3.1c0.3,5.6,1.4,11.2,2.1,16.7
								c0.4,3.1,0.6,6.3,0.8,9.4v0c-0.4,1.8-1.3,4.4-1.5,5.8c-0.3,1.5-0.6,3-1.2,4.4c-1.3,3.3-3.1,6.5-4.3,9.8
								C25.1,162.3,25.1,162.7,25,163.2z"/>
							<path class="st5" d="M19.9,173.8c-1.3,1.8-3.7,4.3-4.4,6.4c-0.3,0.7-0.5,1.5-0.8,2.2c-0.4,0.9-1.2,2.9-2.1,3.4
								c-1.4,0.8-1.3-1.7-1.1-2.9l-0.3,0c-0.2,1.4-2.5,6.6-3.3,3.1c0-0.1-0.1-0.3-0.1-0.4l-0.1,0c0,0.6-0.2,1.6-0.8,1.4
								c-0.4-0.1-0.6-0.8-0.7-1.6h0c-0.4-0.1-0.7-0.6-0.9-1.1c-0.4-0.9-0.5-2.1-0.6-2.8c-0.2-2,0.2-4.1,1.2-5.9
								c0.6-1.1,1.6-2.6,2.4-3.7c0.5-0.7,1.4-1.9,2.3-3c0.5-0.6,1-1.2,1.5-1.6c3.3-1.3,7.2-1.7,10.1-0.1l0,0c0,0.6,0.4,1.4,0.7,2.1
								c0.3,0.6,0.5,1.1,0.7,1.6c0.2,0.7,0.2,1.4,0.3,2.1c0.1,1.5,0.5,3.1,0.2,4.7c-0.3,1.8-1.5,1.2-2.4,0.1c-0.6-0.7-1-1.6-1.2-2.5
								C20.2,174.9,20.3,174,19.9,173.8L19.9,173.8z"/>
						</g>
					</g>
					<path class="st6" d="M51.6,166.8c0,0.2-0.1,1,0.3,1.1c0.5,0.2,1-0.6,1.3-0.9C54.7,165.4,51.9,165.9,51.6,166.8"/>
					<path class="st7" d="M11.7,167c0.7,0,1.7,1.5,2.1,2.1c0.8,1.2,1.1,2.5,1.1,4c0,2-0.2,4.1-0.8,6.1c-0.4,1.3-3.3,5.6-1.7,6
						c0.8-0.5,1.3-2,1.7-2.8c0.8-1.5,1.5-3.1,2.4-4.5c0.5-0.8,0.9-1.7,1.5-2.5c0.4-0.5,1.2-1.3,1.8-1.1c0.6,0.2,0.9,1.7,1.2,2.2
						c0.9,1.6,2.8,3,2.8-0.2c0-1.6-0.4-3.1-0.9-4.5c-0.4-1.2-0.3-2.7-0.8-3.8c-0.6-1.3-3-1.9-4.3-1.9c-1.8,0-5,0.3-6.5,1.2
						c0.2,0.1,0.2-0.1,0.3-0.1"/>
					<path class="st7" d="M53.6,166.9c-0.3,0.6,0.7,1.6,0.8,2.2c0.3,1.2,0.5,2.7,0.4,3.9c-0.1,2.7-0.7,5.3-1.9,7.7
						c-0.3,0.7-2,3.9-0.8,4.1c0.7,0.1,1.6-1.3,2-1.8c1.4-2,2.8-4.1,4.3-6c1.2-1.6,2.4-3.1,3.4-4.9c0.3-0.5,0.7-1.2,0.7-1.7
						c-0.1-0.7-1.8-1.6-2.5-2c-1.1-0.6-2.4-0.9-3.5-1.3C55.9,166.8,53.3,165.7,53.6,166.9c0.2,0,0.3-0.1,0.5-0.1"/>
				</g>
				<path class="st6" d="M52.7,188.3c0,0.9,0.1,2-0.2,2.9c-1.1,3.2-3.2,5.2-5.8,6.5c4.8-0.3,9.5-0.8,14.2-1.5
					c8.7-6.9,15.7-17.6,19-27.2c0.1-1.1,0.3-2.2,0.7-3.4c0.4-1.2,0.9-2.4,1.4-3.5c-0.4-1.2-0.6-2.5-0.3-3.5c0.7-2.5,0.3-4.3,0-6.7
					c-0.5-3.7,1.3-5.6,2.3-9.6c2.4-10.1,4.1-19.1,2.6-28.9c-0.8-4.9-1.5-10.1-3.8-14.3c-2.6-4.5-7.4-3.3-10.3,0.6l-0.3,0.3
					c15.7-3.4,7.1,33.7,4.3,40.8c-2,5.1-4.7,9.8-7.8,14.3c-2.1,3-3.9,6.9-6.6,9.4c0.7,0.9,1.5,2,1.4,3.4c-0.9,0.1-1.2,0.6-2.2,0.2
					c1.2,0.7,0.9,1.8,0.6,3.1c-0.1,0.5-0.6,1.1-0.7,1.7c0,0.1,0,0.2,0,0.3c-1.7,1.9-3.3,3.9-4.8,6c-0.5,0.7-4.5,7.4-5.1,6.2
					c-0.4-0.9-1-2.3-1-1.5c-0.8,0.3-2.4,2.3-3,2.1c-0.9-0.3-1.8,0.8-1.1,1.3C47.8,188.9,50.8,187.9,52.7,188.3z"/>
				<path class="st6" d="M31.2,199c-2.9-0.5-5.6-1.1-7.6-1.7c-3.9-1.1-6.8-2-9.5-3c0.1,0.1,0.2,0.1,0.4,0.2
					c4.3,2.1,9.1,4.4,14.1,6.1C29.3,199.9,30.2,199.4,31.2,199z"/>
				<path class="st6" d="M4,188c1.2,1.1,2.4,2,3.7,2.8c-0.2-0.4-0.3-0.8-0.1-1.2c0.8-2.5,5.1-0.3,6.5-1.9c1.3-1.5,4-8.4,5.7-8.1
					c1.3,0.2,3.5,0.8,4.5-0.7c0.1-0.1,0.2-0.3,0.2-0.4c0.4-0.6,0.7-1.3,0.8-2c0.5-2.3-0.1-4.8-0.4-7.1c-0.2-1.1-1.8-0.5-1.8,0.4
					c-0.1,1.4,0.5,2.7,0.6,4c0.1,0.6,0.1,3.5,0.2,4c0.1,2.1-3.1-0.6-3.5-2.3c-0.2-0.7-1.1-0.7-1.6-0.2c-1,1-6.2,11.2-6.8,10.7
					c-0.4-0.3-0.9-2.1-2-0.1L9,187c-0.2,0-0.8-0.2-0.9-0.1c-0.8,0.1-1.5-0.1-2.1-0.7c-0.5-0.7-1.4-3.4-2.1-1.3
					c-0.3,0.8-0.5,1.6-0.6,2.4C3.5,187.6,3.7,187.8,4,188z"/>
				<path class="st6" d="M8.8,187c-0.7-0.6-2.1,0.3-1.5,1.2c0.5,0.7,1.1,0.8,2,0.5C10.5,188.3,10,186.6,8.8,187z"/>
				<path class="st6" d="M29.3,129.2c-1.9,2.5-1.2,10.9-1.8,14.7c-0.7,4.1-1.4,8.4-3.6,12.2c-1.3,2.2-4.1,3.7-5.2,5.8
					c-0.6,1.1,0.9,2-0.8,3.2c-0.6,0.4-2.8,0.3-3.6,0.4c3.9,0.2,6,2,9.1,3.6c1.9-3,1-5.4,1.9-8.3c0.4-1.6,1.6-3.2,2.5-4.8
					c1.8-3.5,3.2-7.6,3.6-11.3c0.8-8.1-2-15.3-1.9-23.2c-1.3,2.7-0.5,5.3,0.1,8"/>
				<path class="st6" d="M61.8,138.4c-2,5-6.8,9.5-11.9,11.3c-5.4,2-8.2,0.9-12.7-0.9c2.4,4.3,8.5,10,14,5.5
					c-1.6,1.3-3.3,1.7-4.9,2.8c3.6,3.6,11.3-3.3,13.8-6.1c3.8-4.3,4.2-9.3,3.8-14.4c-1.3,1.7-3,4.3-5,5.3"/>
				<g>
					<g>
						<g>
							<path class="st8" d="M9.8,168.6l0-0.3l0,0.2l0,0l0,0L9.8,168.6c-0.2,0-0.5,0-0.6-0.2l-0.1-0.3l0.3-0.2l0.2,0.3l0-0.3
								c0.2,0,0.4-0.1,0.5,0l0.1,0.3l0,0.4L9.8,168.6z"/>
						</g>
						<g>
							<path class="st8" d="M23.2,168.4c-0.4-0.4-0.9-0.7-1.3-0.9c-2.5-1.4-6.1-1.3-9.8,0.1c-0.7,0.3-1.4,0.6-2.1,0.9l-0.3-0.6
								c0.7-0.3,1.4-0.7,2.2-1c4-1.5,7.8-1.6,10.4-0.1c0.5,0.3,0.8,0.9,1.2,1.3L23.2,168.4z"/>
						</g>
						<g>
							<path class="st8" d="M21.3,139.7c0-0.1,0-0.2-0.1-0.3c0-0.2-0.1-0.4-0.1-0.6c0,0.1-0.1,0.1-0.1,0.2c-0.3,0.5-0.6,1-1,1.5
								c-1.3,1.6-2.1,3.4-3,5.2c-0.3,0.6-0.6,1.3-0.8,1.9c-1.1,2.5-2.2,5.1-3.2,7.6c-0.2,0.6-0.5,1.3-0.7,1.9
								c-0.9,2.6-1.9,5.2-3.3,7.5c-0.2,0.3-0.4,0.5-0.6,0.7c-0.5,0.6-1,1.2-0.8,2.1c0.3,0.9,1.6,1.9,2.7,1.8l0.1,0l0-0.7l-0.1,0
								c-0.8,0.1-1.8-0.8-2-1.3c-0.2-0.5,0.1-0.8,0.6-1.4c0.2-0.2,0.5-0.5,0.7-0.9c1.5-2.4,2.4-5.1,3.4-7.7c0.2-0.6,0.5-1.3,0.7-1.9
								c0.9-2.5,2.1-5.1,3.2-7.6c0.3-0.6,0.6-1.3,0.8-1.9c0.5-1.2,0.5-1.6,1.1-2.7l1-1.5c0.6-1.1-0.4,0.4,0.4-0.6l0.1-0.2
								C20.7,140.6,21,140.2,21.3,139.7C21.3,139.7,21.3,139.7,21.3,139.7z"/>
						</g>
						<g>
							<path class="st8" d="M22.8,169.5l-0.1-0.2c-0.1-0.1,0-0.3,0-0.6c0-0.1,0-0.1,0-0.2l0.7-0.2c0,0.1,0,0.2,0,0.3
								c0.8-0.5,1-1.9,1-3.9c0-0.6,0-1.1,0.1-1.6c0-0.5,0.1-0.9,0.3-1.2c0.6-1.8,1.5-3.5,2.2-5.2c0.7-1.5,1.4-3,2-4.6
								c0.6-1.5,0.9-3,1.2-4.4c0.1-0.8,0.5-1.9,0.8-3c0.3-1,0.6-2,0.8-2.8l0.7,0.1c-0.2,0.8-0.5,1.8-0.8,2.8
								c-0.3,1.1-0.6,2.2-0.8,2.9c-0.3,1.4-0.6,3-1.2,4.5c-0.6,1.6-1.3,3.1-2,4.6c-0.8,1.7-1.6,3.4-2.2,5.2c-0.1,0.3-0.2,0.6-0.2,1
								c-0.1,0.5-0.1,1-0.1,1.6c-0.1,2.1-0.2,4.5-2.2,4.8L22.8,169.5z"/>
						</g>
						<g>
							<path class="st8" d="M38.1,155.6c-2.9-1.6-4.6-3.6-5.4-6.2c-0.3-1.1-0.5-2.2-0.6-3.5c-0.1-1.3-0.1-2.5-0.2-3.8l0-0.1
								c-0.2-3.2-0.3-6.3-0.8-9.4c-0.2-1.5-0.5-3.1-0.7-4.6c-0.6-4-1.2-8.1-1.4-12.1c-0.1-1.2-0.1-2.2-0.2-3.1l0.2-0.3
								c0.1,0.9,0.7,2,0.8,3.3c0.2,4,0.8,8.1,1.4,12.1c0.2,1.6,0.5,3.1,0.7,4.7c0.4,3.1,0.6,6.2,0.8,9.4l0,0.1
								c0,1.3,0.1,2.5,0.2,3.8c0,1.2,0.2,2.3,0.5,3.3c0.8,2.5,2.1,4.8,4.8,6.4L38.1,155.6z"/>
						</g>
						<g>
							<path class="st8" d="M24.9,164.1l-0.1-1.5c0.1-0.2-0.3,0.7-0.1,0.4c0.9-1.5,2.3-3.9,3.1-5l0.7-1.1c0.9-1.4,1.8-2.7,2.5-4.1
								c0.2-0.4,0.5-1.2,0.9-1.9c0.3-0.6,0.5-1.2,0.8-1.7l0.3-0.7l0.2,0.9l0.1,0c-0.2,0.5-0.5,1.1-0.8,1.7c-0.3,0.8-0.7,1.5-0.9,2
								c-0.8,1.5-1.6,2.8-2.5,4.2l-0.7,1.1c-0.7,1.1-2.2,3.4-3,5C25.2,163.6,25,163.9,24.9,164.1z"/>
						</g>
						<g>
							<path class="st8" d="M57.9,196.7c0.2-0.3,0.4-0.7,0.6-1c0.6-1.1,1.2-2.2,2.6-3.3c1.9-1.4,2.1-2.6,2.3-3.9
								c0.2-1.2,0.5-2.6,2.2-4.5c7.8-7.3,13.5-13.8,15.8-22c1.3-4.6,1.6-9.5,0.7-15c0-0.1,0-0.2,0-0.3l-0.2,0l-0.5,0.2
								c0,0.1,0,0.2,0,0.3c0.8,5.4,0.6,10.2-0.7,14.7c-2.3,8.1-7.7,14.3-15.6,21.7c-1.9,2.1-2.2,3.7-2.5,4.9c-0.2,1.2-0.4,2.2-2,3.4
								c-1.6,1.2-2.3,2.5-2.8,3.6c-0.2,0.4-0.4,0.9-0.5,1.4C57.5,196.7,57.7,196.7,57.9,196.7z"/>
						</g>
						<g>
							<path class="st8" d="M71.4,135.7l-0.6-0.4c0.4-0.6,0.4-1.5,0.4-2.3c0-0.4,0-0.8,0.1-1.2l0.1-0.8c0.4-3,0.8-6,1-9
								c0.1-1.6,0.2-3.3,0.2-4.9c0-0.8,0.1-1.7,0.1-2.5c0-0.7,0.1-1.4,0.1-2.1c0-0.7,0-1.4,0.1-2.1c0-0.5,0-1,0-1.5
								c-0.1-1.2-0.1-2.6,0.3-3.7l0.3-0.7c-0.4,1,0.1,3.2,0.1,4.4c0,0.5,0,1,0,1.5c0,0.7,0,1.4-0.1,2.1c0,0.7,0,1.4-0.1,2.1
								c0,0.8-0.1,1.6-0.1,2.5c-0.1,1.6-0.1,3.3-0.2,5c-0.2,3-0.6,6.1-1,9l-0.1,0.8c0,0.3-0.1,0.7-0.1,1.1
								C72,133.8,72,134.8,71.4,135.7z"/>
						</g>
						<g>
							<path class="st8" d="M64.5,174.1C64.5,174.1,64.5,174.1,64.5,174.1l-0.1,0.1l-0.3-0.5c0.1-1-0.6-2.2-2-3.3
								c-1.4-1.2-2.8-1.9-3.2-2.1c-2.3-1.2-6.1-2.4-7.1-1.1l-0.6-0.4c1.7-2.2,7,0.3,8.1,0.8c1.1,0.5,2.3,1.3,3.3,2.2
								c1.6,1.3,2.3,2.6,2.3,3.8l0.1,0.1C64.9,174,64.7,174.1,64.5,174.1z"/>
						</g>
						<g>
							<path class="st8" d="M64.1,175c-0.8,0.1-1.7-0.1-2.4-0.2c-0.5-0.1-1-0.2-1.4-0.2c-0.3,0-0.2,0-0.4,0l0.5-1
								c0.2,0-0.4,0.2,0,0.2c0.5,0,1,0.1,1.5,0.2c1.8,0.3,3,0.4,3.6-0.6c0.3-0.5,0.2-1.2,0.2-1.9l0-0.8c0.1-1.7,1.1-4,1.5-5.6l0,0.6
								c-0.3,1.6-0.7,3.4-0.8,5l0,0.7c0.1,0.8,0.1,1.6-0.3,2.3C65.6,174.6,64.9,174.9,64.1,175z"/>
						</g>
						<g>
							<path class="st8" d="M51.6,168.3c-0.1-0.3-0.2-0.6-0.3-0.8l-0.1-0.2c-0.4-0.7-0.8-1.5,0.3-2.5c0.5-0.4,1-0.9,1.5-1.3
								c0.8-0.6,1.6-1.3,2.2-2.1c1.7-2,3.2-4.2,4.7-6.4c0.4-0.6,0.8-1.1,1.1-1.7c1.4-2,2.7-4.5,3.7-7c0.2-0.5,0.4-1.1,0.6-1.6
								c0.5-1.4,1-2.6,1.9-4c0.3-0.4,0.5-0.8,0.8-1.2c0.9-1.5,1.9-3,3-4.3c0.4-0.5,0.8-1,1.2-1.4l1-0.7c-0.4,0.4-1.3,2-1.7,2.5
								c-1.1,1.3-2,2.8-2.9,4.2c-0.3,0.4-0.5,0.8-0.8,1.2c-0.8,1.3-1.3,2.5-1.8,3.8c-0.2,0.5-0.4,1.1-0.6,1.6
								c-1.1,2.6-2.4,5-3.8,7.1c-0.4,0.5-0.8,1.1-1.1,1.7c-1.5,2.2-3,4.4-4.7,6.4c-0.7,0.8-1.5,1.5-2.3,2.2c-0.5,0.4-1,0.8-1.4,1.2
								c-0.6,0.5-0.5,0.8-0.1,1.6l0.1,0.2c0.1,0.3,0.2,0.5,0.3,0.9L51.6,168.3z"/>
						</g>
						<g>
							<path class="st9" d="M24.1,172.9l0-0.4c-0.1-0.6-0.1-1.2-0.3-1.8c-0.1-0.4-0.4-0.9-0.6-1.4l-0.1-0.2
								c-0.2-0.4-0.4-0.8-0.5-1.2c-0.3-0.2-0.6-0.4-0.9-0.6c0,0.7,0.4,1.4,0.7,2.2l0.1,0.2c0.2,0.5,0.5,1,0.6,1.4
								c0.2,0.5,0.2,1.1,0.3,1.7l0,0.4c0,0.3,0.1,0.7,0.1,1.1c0.1,1.2,0.3,2.4,0.1,3.5c-0.1,0.4-0.2,0.7-0.4,0.8
								c-0.3,0.1-0.8-0.2-1.3-0.9c-0.5-0.6-0.9-1.5-1.1-2.4c0-0.1-0.1-0.3-0.1-0.5c-0.1-0.5-0.1-1-0.5-1.2l-0.4,0.7
								c0.1,0.1,0.1,0.5,0.2,0.7c0,0.2,0.1,0.5,0.1,0.6c0.3,1,0.7,1.9,1.3,2.6c0.2,0.3,1,1.2,1.9,1.1c0.1,0,0.1,0,0.2,0
								c0.5-0.2,0.8-0.7,0.9-1.4c0.2-1.2,0-2.5-0.1-3.7C24.1,173.6,24.1,173.3,24.1,172.9z"/>
						</g>
						<g>
							<path class="st9" d="M12.1,186.3c-0.3,0-0.4,0-0.6-0.1c-0.6-0.4-0.7-1.5-0.5-3.3c0-0.2,0-0.3,0.1-0.4
								c0.2-1.3,1.1-5.2,2.8-6.7l0.3-0.2c-1.3,1.1-2.1,5-2.3,6.9c0,0.1,0,0.2,0,0.4c-0.2,1.7,0,2.5,0.2,2.6c0.1,0,0.2,0,0.4-0.1
								c0.8-0.4,1.6-2.4,1.9-3.2c0.3-0.7,0.6-1.5,0.8-2.2c0.5-1.4,1.8-3.1,3-4.5c0.6-0.7,1.1-1.3,1.5-1.9l0.2-0.2
								c0.2-0.3,0.4-0.2,0.6-0.2c0.3,0.2,0.1,0.5,0.1,0.6l-0.2-0.1l0.1,0.1c0,0,0,0.1-0.1,0.1l-0.1,0.1c-0.4,0.6-0.9,1.3-1.5,2
								c-1.1,1.4-2.4,3-2.9,4.3c-0.2,0.7-0.5,1.5-0.9,2.2c-0.6,1.5-1.4,3.1-2.3,3.6C12.5,186.2,12.3,186.2,12.1,186.3z"/>
						</g>
						<g>
							<path class="st9" d="M8.4,179.7c-0.9,2-1.3,4.1-1,6c0,0.1,0,0.1,0,0.2c0,0.1,0,0.1,0,0.2c0.1,0.4,0.3,1.5,1.2,1.5l0,0
								c1.4-0.2,2.7-3.8,2.8-4.6l-0.7-0.1c-0.2,1.2-1.5,3.9-2.1,3.9l0,0c-0.1,0-0.3-0.1-0.5-0.9c0-0.1,0-0.1,0-0.2
								c0-0.1,0-0.1,0-0.2c-0.3-1.8,0-3.7,0.9-5.6c0.2-0.5,1.5-3.3,2.4-4.8l0,0C10.7,175.3,8.4,179.6,8.4,179.7z"/>
						</g>
						<g>
							<path class="st9" d="M7,187.5c-0.1,0-0.2,0-0.3,0c-0.5-0.1-0.8-0.7-1-1.9c-0.1-0.6-0.2-1.2-0.2-1.9c-0.2-2,0.3-4.4,1.2-6.4
								c0,0,1-2.1,1.7-2.4l0.2-0.1c-0.2,0.1-0.8,1.9-1.2,2.7c-0.9,1.9-1.3,4.1-1.1,6c0.1,0.7,0.1,1.3,0.2,1.9
								c0.2,1.3,0.5,1.4,0.5,1.4c0.2-0.1,0.4-0.6,0.4-1c0-0.1,0-0.1,0-0.1l0.7-0.3c0,0.1,0,0.2,0,0.3c0,0.1,0,1.2-0.6,1.7
								C7.3,187.4,7.1,187.4,7,187.5z"/>
						</g>
						<g>
							<path class="st9" d="M10.6,168.1c-0.2,0.2-0.3,0.4-0.4,0.5c-0.6,0.7-1.2,1.5-1.6,2.1c-0.3,0.4-0.5,0.7-0.7,0.9
								c-0.9,1.2-1.9,2.8-2.4,3.7c-1,1.8-1.5,4-1.3,6.2c0.1,0.8,0.3,2,0.7,2.9c0.3,0.7,0.6,1.1,1.1,1.3l0.3-0.7
								c-0.3-0.1-0.5-0.4-0.7-0.9c-0.4-0.9-0.6-2.3-0.6-2.7c-0.2-2,0.2-4,1.2-5.7c0.6-1,1.5-2.6,2.3-3.6c0.2-0.3,0.4-0.6,0.7-1
								c0.5-0.6,1-1.4,1.6-2.1c0.4-0.5,0.9-1.1,1.4-1.6c0.1-0.1,0.2-0.1,0.2-0.2C11.8,167.5,11.2,167.8,10.6,168.1z"/>
						</g>
						<g>
							<path class="st9" d="M51.4,186.2c-0.1,0-0.2,0-0.3,0c-0.3-0.1-0.4-0.5-0.6-0.9c-0.3-1-0.2-2.2,0.2-3.5c0.4-1.2,1-2.4,1.6-3.6
								c0.4-0.7,1.3-1.4,1.6-2l0.1,0.2c-0.3,0.7-0.7,1.4-1.1,2.1c-0.6,1.1-1.2,2.3-1.6,3.4c-0.4,1.2-0.4,2.2-0.2,3.1
								c0.1,0.2,0.1,0.5,0.2,0.5c0,0,0.1,0,0.5-0.2c0.4-0.2,0.8-0.6,1.3-1.2c0.5-0.6,0.8-1.3,1.2-2c0.5-0.8,0.9-1.7,1.6-2.4
								c0.6-0.7,2.5-3.1,4-5.5c1-1.5,1.6-2.9,1.8-3.8l0.7,0.1c-0.3,1.3-1.2,3-1.9,4.1c-1.6,2.5-3.5,4.9-4.1,5.6
								c-0.6,0.7-1,1.5-1.5,2.3c-0.4,0.7-0.8,1.4-1.3,2.1c-0.3,0.5-0.9,1.2-1.6,1.5C51.9,186,51.6,186.2,51.4,186.2z"/>
						</g>
						<g>
							<path class="st9" d="M47.5,186.9c-0.2,0-0.3,0-0.5-0.1c-0.5-0.2-0.8-0.8-0.9-1.8c0-0.1,0-0.2,0-0.3c0-0.5,0-1,0.1-1.6
								c0.2-1.2,0.6-2.5,1-3.7l0.4-1.1c0.3-0.8,0.5-1.6,0.9-2.4c0.2-0.3,0.4-0.6,0.6-0.8c0.2-0.3,1.1-0.6,1.2-0.9l0,0.3
								c-0.2,0.4-0.4,0.7-0.6,1c-0.2,0.2-0.4,0.5-0.5,0.7c-0.4,0.7-0.6,1.5-0.9,2.2l-0.4,1.1c-0.4,1.2-0.8,2.3-1,3.5
								c-0.1,0.5-0.1,1-0.1,1.4l0,0.1l0,0.1l0,0.1c0,0.7,0.2,1.2,0.4,1.3c0.2,0.1,0.5-0.1,0.8-0.4c1.1-0.9,1.8-2.7,2.3-4.1l0.7,0.2
								c-0.5,1.6-1.3,3.5-2.6,4.5C48.2,186.7,47.8,186.9,47.5,186.9z"/>
						</g>
						<g>
							<path class="st9" d="M45.1,187.2c-0.1,0-0.2,0-0.3,0c-0.7-0.2-0.9-1.2-1.1-2l-0.1-0.4c-0.2-1.5-0.1-3.4,0.2-5.2
								c0.2-0.7,0.4-1.4,0.7-2.1l0.2-0.4c0.5-1,1.7-2.1,2.6-2.9l-0.2,0.5c-0.8,0.7-1.2,1.7-1.6,2.6l-0.2,0.4c-0.3,0.7-0.5,1.3-0.7,2
								c-0.4,1.7-0.4,3.5-0.2,4.9l0.1,0.4c0.1,0.4,0.3,1.4,0.6,1.5c0.1,0,0.3-0.1,0.5-0.2c0.3-0.3,0.6-0.8,0.7-1.5
								c0.1-0.4,0.1-0.9,0.1-1.4v-0.1L47,183v0.1c0,0.6,0,1.1-0.1,1.6c-0.1,0.9-0.5,1.6-0.9,2C45.7,187,45.4,187.2,45.1,187.2z"/>
						</g>
						<g>
							<path class="st9" d="M43.7,185c-2.7-1.5-2.5-6.7-1.6-9.2c0.5-1.4,1.3-2.2,2.3-2.9c1.2-0.9,2.6-1.8,3.9-2.6
								c1.2-0.8,2.5-1.6,3.6-2.4c0.7-0.5,1.4-1.1,2-1.6l0.5,0.5c-0.6,0.6-1.3,1.1-2,1.7c-1.2,0.9-2.4,1.7-3.7,2.5
								c-1.3,0.8-2.6,1.7-3.8,2.6c-0.9,0.7-1.6,1.4-2,2.6c-0.9,2.6-0.9,7.1,1.3,8.3L43.7,185z"/>
						</g>
					</g>
				</g>
			</g>
			<path class="st6" d="M27.7,164.4c2,3.9,12.4,6.6,17.5,6.2c-4.3-2.6-9.6-4.3-13.6-7.6c4.2,2.2,9.5,1.2,14,0.7
				c-3-1.1-7.8-0.7-11.1-0.9c-2.6-0.2-5.7-1.4-8.2-1.1c0.1,1.3,1.6,2.1,2.7,3"/>
			<g>
				<g>
					<g id="XMLID_148_">
						<g>
							<g>
								<path class="st4" d="M86.2,105.4c-1.2-3.4-2.3-5.2-2.5-5.5c-4.1-1.1-8.7,0.4-10.9,2.8c-2.4,2.6-15.3,14.7-22.3,16.9
									c-7.8,2.4-13.9-2.9-17.5-7.8c-0.9-1.2-1.9-2.9-2.8-4.6l-0.3,0.1c-1.1-0.5-2.2-0.8-3.2-0.8l-1,0.1c0,0-0.4,3.5-0.5,4.2
									c0.6,0.4,1.5,1.4,2.1,2c1.6,1.5,3.2,3.2,3.5,5.5c0,0,0,0.1,0,0.1c1.1,2.2,2.1,4.3,3.1,6.5c4.5,0.2,8.9,1,13.2,2.2
									c5-2.1,9.7-5,14.1-8.1c2.4-1.7,4.7-3.2,7.2-4.5c1.6-2.5,3.8-1.9,6.6-3.3c4-2,8.1-4.9,11.9-3.8
									C86.6,106.7,86.4,106,86.2,105.4z"/>
							</g>
						</g>
					</g>
					<g>
						<path class="st6" d="M44.5,125.6c3.3,0.8,11.2-3.3,15.7-6c0.3-0.2,0.6-0.4,0.9-0.6c0.9-0.6,1.7-1.2,2.6-1.8
							c0.3-0.4,0.4-0.7,0.2-0.3c0,0,0,0.1,0,0.2c1.5-1,3-1.9,4.5-2.7c1.6-2.4,3.7-4.5,6.5-6c4-2,7.2,2.5,11.6,1.5
							c0.5-3.8-3.1-11.6-4-12.7c0,0-3.2-0.2-6.7,2c-3.5,2.2-13.6,13.3-17.6,16c-4,2.8-14.2,5.8-17.8,0c-8-12.9-9.9-13.7-9.9-13.7
							l-5.1,1.5l1,5.5C26.3,108.7,37.6,123.5,44.5,125.6z"/>
					</g>
				</g>
			</g>
			<g>
				<g>
					<g>
						<g>
							<g>
								<g>
									<g id="XMLID_147_">
										<g>
											<path class="st10" d="M80.8,164.5c3.1-0.2,5.5,3.6,5,6.6c-0.2,1.2-0.4,3.2-2.6,5.1l-0.1,0c0.1-0.4,0.1-0.9,0.1-1.2
												c0.2-1.8,0-3.6-0.4-5.4c-0.2-1-0.4-2-0.9-2.9c-0.2-0.4-1-1.3-1.4-1.9L80.8,164.5z"/>
											<g>
												<path class="st4" d="M82.8,169.5c-0.2-1-0.4-2-0.9-2.9c-0.2-0.4-1-1.3-1.4-1.9c-0.1-0.1-0.1-0.2-0.2-0.3
													c0.4-1.4,0.8-2.7,1-4.1c-4.7,4.6-9.2,9.4-14.6,12.6c-0.2,2.7-1.3,5.2-3.5,6.9c-0.2,0.2-0.4,0.3-0.6,0.4
													c-1.4,3.4-4.3,6-8,7.4c-4.8,1.7-10.9,2.4-16.3,1.3c-0.8,0.2-1.6,0.3-2.4,0.3c-4.7,0.2-9.5-0.4-14.1-1.8
													c-1.9,0.9-3.9,1.8-5.9,2.1c-4.6,0.7-9.1,0.2-12.8-2.6c-0.3,1.4-0.4,2.9,0,4.3c0.7,2.4,2.6,6.2,4.8,7.5
													c1.4,0.8,3.9,0.8,5.5,1.2c1.1,0.2,2.1,0.2,3.2,0.5c2.4-0.8,5.7,0.2,8,0.6c3.6,0.7,7.2,1.2,10.5,2.9
													c2.9-0.2,5.9-0.4,8.5,0.3c3.4,0.9,7,0.6,10.4-0.1c5.3-1,8.8-2.1,12.5-5.9c1.1-1.2,2.2-2.4,3.2-3.7c3.3-4.2,6-8.9,9.5-13
													c1.1-1.2,3.1-2.7,3.7-4.2c0.1-0.2,0.2-0.7,0.2-1.1c0.1-0.4,0.1-0.9,0.1-1.2C83.4,173.1,83.2,171.3,82.8,169.5z"/>
											</g>
										</g>
									</g>
								</g>
								<path class="st6" d="M83,170c-0.6-2.7-2.6-6.4-1.9-8.9c0.1-0.3,0.1-0.5,0.2-0.8c-4.7,4.6-9.1,9.2-14.5,12.4
									c-0.2,2.7-1.3,5.2-3.5,6.9c-0.2,0.1-0.4,0.3-0.6,0.4c-1.4,3.4-4.3,6-8,7.4c-0.3,0.1-0.6,0.2-0.9,0.3c-1,1.5-2,3-3.4,4.8
									c-8.1,10.3-22.6,8.9-33,5.4c-2.2-0.7-4.5-1.3-6.8-1.6c-4.2-0.4-6.6-3.5-6.3-7.4c-0.2-0.6-0.3-1.1-0.4-1.7
									c-0.3-0.2-0.6-0.4-0.8-0.6c-0.1,2.6,0.1,5.3,1.5,7.6c0.9,1.5,2.2,2.7,3.2,4.1c0.4,0.1,0.7,0.1,1.1,0.2
									c2.2,0.3,4.6,0.9,7.1,1.6c3.8-0.8,8.4,0.1,11.9,1.4c1.7,0.6,3.5,1,5.2,1.6c1.7-0.4,3.3,0.5,3.5,0.6c2.4,0.8,0.8,0.1,3.2,0.4
									c3.3,2.1,9.1,2,12.5,1.1c2.1-0.6,4.5-1.1,6.6-1.8c3.6-1.3,5-3,7.6-5.5c3.9-3.8,5.9-7.5,8.9-12c2.3-3.4,8.3-6.9,7.6-10.7
									C82.4,172.8,83.5,172.5,83,170z"/>
								<g>
									<g>
										<g>
											<path class="st8" d="M83.2,169.3c-0.2-1-0.4-2-0.9-2.9c-0.1-0.2-0.3-0.5-0.6-0.8c-0.3-0.4-0.6-0.8-0.9-1.2
												c0-0.1-0.1-0.1-0.2-0.3l-0.4-0.1c-0.1,0.2-0.1,0.4-0.2,0.6c0,0.1,0.1,0.1,0.1,0.2c0.2,0.4,0.6,0.8,0.9,1.2
												c0.2,0.3,0.4,0.5,0.5,0.7c0.4,0.8,0.6,1.8,0.8,2.8c0.4,2.1,0.6,3.8,0.4,5.4c0,0.2,0,0.4-0.1,0.6l0.7,0.1
												c0-0.2,0.1-0.5,0.1-0.7C83.8,173.3,83.6,171.6,83.2,169.3z"/>
										</g>
										<g>
											<g>
												<path class="st11" d="M84.4,165.7c-1-1.1-2.3-1.7-3.6-1.6l0,0.3c0.1,0.1,0.1,0.2,0.2,0.2c0.1,0.1,0.1,0.2,0.2,0.3
													c1,0,1.9,0.5,2.7,1.3c1.2,1.3,1.8,3.2,1.6,4.8l0,0.2c-0.2,1.1-0.4,2.7-1.9,4.2c0,0.3,0,0.7,0,1l0,0
													c2.2-1.9,2.5-3.9,2.6-5.1l0-0.2C86.5,169.3,85.7,167.2,84.4,165.7z"/>
											</g>
										</g>
									</g>
								</g>
							</g>
						</g>
					</g>
					<path class="st8" d="M80.8,160.9c-0.2,1.2-0.4,2.3-0.7,3.4c-2.4,7.9-7.8,13.6-15.7,20.2c-1.9,1.9-1.1,1.3-1.4,2.6
						c-0.2,1.2-0.4,2.1-2,3.2c-1.6,1.1-2.3,2.3-2.8,3.3c-0.5,0.9-0.5,2.1-1.4,2.8l0.1,0.2c1-0.8,1.5-1.7,2-2.6
						c0.6-1,1.2-2.1,2.6-3.1c1.9-1.2,2.1-2.4,2.4-3.7c0.2-1.2-0.6-0.4,1.1-2.2c7.8-6.5,13.5-12.5,15.9-20.5c0.4-1.4,0.7-2.9,0.9-4.4
						C81.4,160.3,81.1,160.6,80.8,160.9z"/>
				</g>
				<path class="st8" d="M83.6,174.9c0-0.2-0.1-0.5-0.3-0.6l-0.2,0.4l-0.3,0.1c0,0,0,0,0,0.1c0,0.2,0,0.7-0.1,1.2
					c-0.1,0.5-0.1,0.9-0.2,1c-0.4,0.9-1.4,1.9-2.3,2.8c-0.5,0.5-0.9,0.9-1.3,1.3c-2,2.4-3.8,5-5.6,7.5c-1.3,1.8-2.6,3.7-3.9,5.5
					c-1,1.3-2.1,2.6-3.2,3.7c-0.5,0.5-2.2,2.4-2.7,2.8c0.4-0.1,1.9-1.4,2.1-1.2c0.4-0.3,0.7-0.7,1.1-1.1c1.1-1.1,2.2-2.4,3.2-3.7
					c1.4-1.8,2.7-3.7,4-5.5c1.7-2.5,3.5-5.1,5.5-7.5c0.3-0.4,0.8-0.8,1.2-1.2c1-1,2.1-1.9,2.5-3c0.1-0.3,0.2-0.8,0.2-1.2
					C83.6,175.9,83.6,175.3,83.6,174.9z"/>
			</g>
			<path class="st8" d="M64.6,199.9c-3.1,2.5-7.2,4.3-11.8,5.1c-7.1,1.3-14.2-0.7-21-2.6c-1.9-0.5-3.9-1.1-5.8-1.6
				c-3-0.7-5.8-0.9-8.5-1.1c-0.4,0-0.9,0-1.4,0c-2.8-0.1-6.6-0.2-8.7-1.9c0,0,0,0,0.1,0c-1.1-1.1-2.1-2.9-3.2-5.4
				c-0.6-1.4-0.7-3.2-0.6-5.1c0,0,0,0,0,0c0.2-1,0.6-2.3,1-3.1c-0.1-0.2-0.1-0.5-0.2-0.8l-0.2-0.1c-0.7,1.1-1.5,3.8-1.5,4.9h0
				c0,1.7,0.2,3.2,0.8,4.5c0.9,2.1,1.8,3.8,2.7,5l-0.1,0.1c0.1,0.1,0.2,0.2,0.3,0.2c0,0,0,0,0,0.1c0,0,0,0,0,0
				c2.2,2.2,6.4,2.4,9.5,2.5c0.5,0,0.9,0,1.4,0.1c2.6,0.1,5.5,0.3,8.4,1.1c1.9,0.5,3.9,1,5.8,1.6c5.4,1.5,10.9,3.1,16.5,3.1
				c1.6,0,3.2-0.1,4.8-0.4c4.7-0.8,8.9-2.7,12.1-5.2c1-0.8,1.8-2,1.9-3l0.2-0.5C66.7,197.9,65.3,199.3,64.6,199.9z"/>
		</g>
		<g>
			<g>
				<g>
					<g>
						<g>
							<g>
								<g>
									<g id="XMLID_78_">
										<g>
											<g>
												<path class="st12" d="M93.1,57.3c-1.2,5.5-1.9,14.6-1.9,16.3c0,1.9-0.8,3.8-4.6,8.3c-1.7,1.5-5.3,4.9-7.1,6.1l2.5-1.2
													c0,0-8.4,12-16.5,13.5c-1.3,0.2-2.8,0.1-4.2-0.1l1.5-10.2c-12.4-2.7-16.1-10.8-16.1-10.8l-2-5.1c-4.8-4-2.9-11.9-3-12.3
													c0-0.2-0.2-1.4-0.6-3.5c-0.3-1.4,0.2-5.2,0.5-7.1c1-6.7,0.7-7.6,3.8-13.9C51.9,24.3,59,20.9,67.8,19.9
													c10.3-1.2,16.2,3.3,20.6,7.6c4.4,4.3,6.8,16.2,6.8,16.2c0-1.9-0.8-10.1-4.1-16.4c-3.8-7.1-11.2-15.5-23-18.6
													C56.4,5.6,43,8.4,32.2,19.2C21.3,30.1,20.6,47.4,21.6,54.9c1.2,8.8,3.3,17.7,7.2,25.7C30,83,29,90.2,30.3,92.5
													c0.3,0.5-0.4,0.8-0.1,1.3c0.5,0.3-4.9,3.5-5.4,3.8c-1.9,1.1-1.8,7.7,0.3,11c0.5-1.8,1.3-3.5,2.4-5c0,0,0.1-0.1,0.1-0.1
													c0.8-1.1,1.7-1.1,2.7-0.7c0.3-0.1,0.6-0.1,1,0.1c1.2,0.6,2.5,1.9,2.7,3.4c0.5,0.6,0.9,1.2,1,1.3c1.9,2,4,9.5,10.3,11
													c1.4-0.1,4.9,0.1,8.5-1.5c5.2-2.3,10.8-7.4,12.5-8.6c1.7-1.9,3.6-3.2,5.6-4.8c0-0.1,0.1-0.1,0.1-0.2
													c2-3.2,4-6.4,6.9-8.9c0.1-0.1,0.2-0.1,0.2-0.1c1.7-2.1,3.6-4.2,5.4-6.2c0.5-1.2,1.5-2.4,2.2-3.4
													c0.5-0.8,1.1-1.5,1.5-2.3c0.1-0.1,0.1-0.3,0.2-0.4c0,0,0,0,0,0c0.4-0.7,0.9-1.5,1.2-2.3c0.4-1.1,0.9-2.1,1.7-3.1
													c0,0,0,0,0,0c0.3-2.2,0.6-4.1,0.7-5.2c0.5-3.6,1-13.4,1-13.4l0.6-1.4c-0.2,0.3-0.3,0.5-0.3,0.5L93.1,57.3z"/>
											</g>
											<g>
												<g>
													<path class="st5" d="M66,36.3c9.3-2.5,16.6,1,21.9,4.9c4.8,3.6,5.7,12.2,5.9,14.6c-0.1,0.5-0.2,0.9-0.3,1.5
														c-1,5.5-1.6,14.6-1.6,16.3c0,1.9-0.7,3.8-3.9,8.3c-1.4,1.5-2.9,2.8-4.4,4c-5.7,4.4-12.6,6.4-23.5,3.4
														c-6.8-2.5-11-6.6-13.6-10.5c-3.3-5-4-9.7-4-10c0-0.2-0.3-1.4-0.7-3.5h0C44.2,51.8,59.2,38,66,36.3z"/>
												</g>
											</g>
											<g>
												<path class="st12" d="M37.6,78.7l-0.8,0.7c0,0,12.7,14.7,25.1,17.3l-0.5,3.4c1.4,0.2,2.8,0.3,4.2,0.1
													C73.6,98.8,82,86.8,82,86.8l0.2-0.1c-6.8,4.4-15.6,4.7-28.5,1.6C45.7,85.8,40.7,82.5,37.6,78.7z"/>
											</g>
										</g>
									</g>
									<g>
										<g>
											<path class="st13" d="M41.2,60.7l0-0.5c0.1-1.5,1.2-9.8,5-15l-0.8,0.3c-3.9,5.4-4.7,13.1-4.8,14.6l0,0.5L41.2,60.7z"/>
										</g>
									</g>
								</g>
							</g>
						</g>
					</g>
				</g>
			</g>
			<g id="XMLID_74_">
				<g>
					<g>
						<g>
							<path class="st5" d="M56.1,65.6c0.5-2.7,3.9-5,7.2-4.1c4,1,4.9,5.5,4.9,5.5c0.4-4.4-3.4-6.3-6-6.8c-5.9-0.4-8.3,4.1-8.3,4.1
								l1.3,1.3c0,0,0,0,0.2,0.4c1,2.7,3.1,3.7,3.3,3.8C58,69.4,55.9,67.1,56.1,65.6z M85.4,62.1c3.2-1.1,5.5,1.5,5.1,3.5
								c0,0-0.9,2.8-2,3.6c0.2-0.1,2-1.1,2.5-3.4l1.1-0.5c0,0,0-2.9-2.5-4.1c-2.5-1.2-5.8,0.1-7.4,3.4c-0.8,2.2-0.4,3.4-0.3,3.7
								C81.8,67.8,81.4,63.8,85.4,62.1z M64.7,52.7c-3-0.6-5.1,1.8-5.1,1.8c2.5-0.8,7.8,0.5,7.8,0.5S67.4,53.2,64.7,52.7z
								 M62.4,70.3c1,0,1.7-0.7,1.7-1.6c0-0.9-0.8-1.7-1.7-1.7c-0.9,0-1.7,0.7-1.7,1.7C60.7,69.7,61.4,70.3,62.4,70.3z M83.3,53.9
								c0,0,4.3-1.2,7,0.5c0,0-1-2.6-5.1-2.5c-2.2,0.3-2.1,2.1-2.1,2.1L83.3,53.9z M85.7,69.5c0.9,0,1.7-0.7,1.7-1.7
								c0-0.9-0.7-1.7-1.7-1.7c-0.9,0-1.7,0.7-1.7,1.7C84.1,68.7,84.8,69.5,85.7,69.5z"/>
						</g>
					</g>
					<g>
						<path class="st14" d="M56.8,54.2c3.1-1.1,9.7-0.5,9.7-0.5s-0.2-1.7-3.6-2C59.2,51.6,56.8,54.2,56.8,54.2z"/>
					</g>
					<g>
						<path class="st14" d="M85.2,51.9c-2.2,0.3-2.1,2.1-2.1,2.1l0.2-0.1c0,0,4.3-1.2,7,0.5C90.3,54.4,89.4,51.8,85.2,51.9z"/>
					</g>
					<g>
						<g>
							<g id="XMLID_77_">
								<g>
									<path class="st15" d="M55.9,65.5c0,0.9,0,0.9,0,0.9s1.1,2.5,2.6,3.3c0.3,0.1,0.7,0.3,1.3,0.4c-0.4-0.5-0.7-1.2-0.7-2
										c0-1.8,1.4-3.3,3.2-3.3c1.8,0,3.2,1.5,3.2,3.3c0,0.7-0.2,1.4-0.6,1.9c1.5-0.5,2.8-1.5,3.4-3.4c0,0-1.1-5.4-6.4-5.4
										C57.6,61.4,56,64.6,55.9,65.5z"/>
									<path class="st16" d="M59.1,68c0,0.8,0.2,1.5,0.7,2c1.3,0.3,3.5,0.4,5.3-0.2c0.4-0.5,0.4-1.1,0.4-1.8
										c0-1.8-1.4-3.3-3.2-3.3C60.5,64.7,59.1,66.2,59.1,68z"/>
									<path class="st15" d="M85.2,61.8c-3.8,1.9-3.4,6.3-3.4,6.3s0,0,0.1,0.1c0.6,0.4,1.1,0.7,1.6,0.9c-0.4-0.5-0.6-1.1-0.6-1.8
										c0-1.7,1.4-2.8,3-2.8c1.6,0,3,1.1,3,2.7c0,0.8-0.3,1.6-0.9,2.2c0.3-0.2,0.7-0.4,0.9-0.6c1.3-1.1,1.9-3,1.9-3
										C90.8,62.1,87.6,60.8,85.2,61.8z"/>
									<path class="st16" d="M82.9,67.2c0,0.6,0.2,1.3,0.6,1.8c1.9,0.9,3.4,0.8,4.5,0.3c0.5-0.6,0.9-1.4,0.9-2.2
										c0-1.7-1.4-2.7-3-2.7C84.3,64.4,82.9,65.6,82.9,67.2z"/>
								</g>
							</g>
						</g>
					</g>
					<g>
						<path class="st14" d="M53.9,64.2l1.3,1.3c0,0,0,0,0.2,0.4c1,2.7,3.1,3.7,3.3,3.8c-0.8-0.5-2.9-2.7-2.7-4.3
							c0.5-2.7,3.9-5,7.2-4.1c4,1,4.9,5.5,4.9,5.5c0.4-4.4-3.4-6.3-6-6.8C56.3,59.8,53.9,64.2,53.9,64.2z"/>
					</g>
					<g>
						<ellipse class="st14" cx="62.4" cy="68.7" rx="1.7" ry="1.6"/>
					</g>
					<g>
						<path class="st14" d="M81.8,68.3c-0.1-0.5-0.5-4.4,3.6-6.2c3.2-1.1,5.5,1.5,5.1,3.5c0,0-1.1,2.9-2.2,3.6
							c0.2-0.1,2.2-1.2,2.7-3.5l1.1-0.5c0,0,0-2.9-2.5-4.1c-2.5-1.2-5.8,0.1-7.4,3.4C81.3,66.7,81.7,68,81.8,68.3z"/>
					</g>
					<g>
						<path class="st14" d="M85.7,66.2c-0.9,0-1.7,0.7-1.7,1.7c0,0.9,0.7,1.7,1.7,1.7c0.9,0,1.7-0.7,1.7-1.7
							C87.4,66.9,86.7,66.2,85.7,66.2z"/>
					</g>
				</g>
			</g>
			<g>
				<g>
					<path class="st9" d="M78.2,75c0.1,0,1.7,0.2,2.4-1c0.4-0.6,0.5-1.3,0.4-2.2c-0.1-0.7-0.4-1.1-0.9-1.4c-0.9-0.7-2.2-0.5-2.3-0.4
						l-0.1,0.3c0,0,1.4,0,2.2,0.6c0.3,0.2,0.5,0.6,0.6,1.1c0.1,0.7,0,1.2-0.3,1.6c-0.6,0.9-1.8,1.1-1.8,1.1L78.2,75z"/>
				</g>
				<g>
					<path class="st9" d="M67.2,60.8l0.2-0.3c-0.1-0.1-5.4-6.2-11.6-1.4l-0.1,0.4C61.5,55,67.1,60.8,67.2,60.8z"/>
				</g>
				<g>
					<path class="st9" d="M83.4,61.1c0.1,0,5.2-4.5,8-0.6l0.2-0.3c-3.1-4.4-8.4,0.3-8.5,0.3L83.4,61.1z"/>
				</g>
				<g>
					<path class="st9" d="M69.3,80.1c0.4,0,0.9,0,1.8-0.1c0.9,0,1.9-0.1,2.8-0.1c2.2,0,4.4-0.7,4.6-0.8l0-0.3
						c-0.2,0-2.3,0.3-4.6,0.4c-1,0-1.9,0.1-2.8,0.1c-0.9,0.1-2,0.1-2.2,0c-0.1-0.1-0.1-0.2-0.1-0.2l-0.5,0c0,0.2,0.1,0.6,0.4,0.8
						C68.7,80.1,68.9,80.1,69.3,80.1z"/>
				</g>
				<g>
					<path class="st9" d="M73,84.6c1,0,1.9-0.8,1.9-0.9l-0.2-0.2c0,0-1.3,0.5-2.3,0.3l-0.1,0.6C72.5,84.5,72.7,84.6,73,84.6z"/>
				</g>
				<g>
					<path class="st14" d="M59.6,70l0.2-0.2c-0.3-0.5-0.5-1.1-0.5-1.8c0-1.8,1.4-3.2,3.1-3.2c1.7,0,3.1,1.4,3.1,3.2
						c0,0.5-0.3,1.3-0.5,1.8l0.4-0.1c0.3-0.5,0.4-1.1,0.4-1.7c0-2-1.5-3.5-3.4-3.5c-1.9,0-3.4,1.6-3.4,3.5
						C59,68.8,59.2,69.4,59.6,70z"/>
				</g>
				<g>
					<path class="st14" d="M83,67.3c0,0.7,0.4,1.4,1,1.9l0,0c-0.1,0-0.3-0.1-0.5-0.1c0,0,0,0.1,0,0.1c-0.5-0.5-0.8-1.2-0.8-1.9
						c0-0.7,0.2-1.4,0.6-1.9c0.6-0.8,1.5-1.2,2.4-1.3c0.1,0,0.1,0,0.2,0c1.7,0,3,1.3,3.1,2.9c0,0.8-0.3,1.6-0.8,2.2l-0.3,0.1
						c0.5-0.5,0.9-1.6,0.9-2.2c0-1.4-1.3-2.6-2.8-2.6c-0.1,0-0.1,0-0.2,0c-0.9,0-1.7,0.5-2.2,1.2C83.2,66.1,83,66.7,83,67.3z"/>
				</g>
			</g>
			<ellipse class="st15" cx="85.4" cy="66.1" rx="0.8" ry="0.9"/>
			<ellipse class="st15" cx="61.1" cy="67.1" rx="0.7" ry="0.9"/>
			<path class="st17" d="M65.5,64c-0.3-0.2-0.6-0.2-0.9-0.2c-0.4,0-0.7-0.1-1.1-0.1c-2.1-0.2-4,0.1-5.6,1.5
				c-0.2,0.2-0.4,0.4-0.7,0.4c-0.4,0-0.4-0.8-0.3-1.1c0.8-1.8,2.9-2.6,4.7-2.4c0.6,0.1,1.3,0.2,1.8,0.4C64.1,62.9,64.9,63.4,65.5,64
				z"/>
			<path class="st17" d="M84.1,63.8c0.2-0.1,0.4-0.1,0.6-0.1c0.2,0,0.5-0.1,0.7-0.1c1.4-0.1,2.7,0,3.8,1c0.1,0.1,0.3,0.3,0.5,0.3
				c0.3,0,0.3-0.5,0.2-0.7c-0.5-1.2-2-1.7-3.2-1.6c-0.4,0-0.8,0.1-1.2,0.3C85.1,63,84.6,63.4,84.1,63.8z"/>
			<path class="st18" d="M55.1,74.6c-0.2,1.7,1.9,3.5,4.8,3.9c2.8,0.5,5.3-0.6,5.5-2.3c0.2-1.7-1.9-3.5-4.8-3.9
				C57.7,71.9,55.3,72.9,55.1,74.6z"/>
			<path class="st18" d="M82,74.7c0.3,1.5,2.5,2.1,5,1.4c2.4-0.7,4.2-2.5,3.9-4c-0.3-1.5-2.5-2.1-5-1.4C83.4,71.4,81.7,73.2,82,74.7
				z"/>
			<path class="st15" d="M94.1,53.2c0,0-4.6-20-23.9-17.5C52.7,37.9,44,58,42.8,61c-1.1,3-1.1,2.5-1.1,2.5S39.6,45.3,48.1,32
				c7.4-11.5,23.3-17.4,37.8-6.5C95.1,34.9,97.2,41.6,94.1,53.2z"/>
			<path class="st19" d="M77.8,20.7c1.2,1,1.9,2.6,2.6,4c1.2,2.3,2.6,4.5,3.3,7c0.6,1.8,1.6,4.9,0.7,6.8c6.8,3,8,9.1,10,15.5
				c2-5.2,1.8-11.7,0.1-17c-1.2-3.8-4.3-7.6-7.3-10c-1.5-1.3-3.1-3.4-4.9-4.2c-0.8-0.3-1.6-0.4-2.2-1c-0.7-0.6-1.3-0.6-2.4-0.9"/>
			<path class="st20" d="M84.9,87c0.9-1.4,2-2.6,3.1-3.9c1.3-1.6,1.8-3.4,2.6-5.2c0-0.2,0-0.4,0-0.7c-0.9,2.6-3,4.5-4.7,6.6
				c-1.8,2.4-4.5,3.8-7.1,5.2c-2.2,1.1-4.2,1.4-6.7,1.6c-2.1,0.2-3.9,0.4-5.9-0.1c-1.3,1.8-3,2.8-5.3,3.1c-2.2,0.3-4.9,0.7-7,0
				c2,0.9,5.9,1.8,7.1,3.8c1.6,2.7-4.9,3.5-6.4,3.6c-3.1,0.1-5.7-0.3-8.5-1.4c0.2,1.6,1.8,3.5,2.5,5c1.1,2.1,1.8,3.9,3.8,5.2
				c1.8,1.2,3.8,1.8,5.8,2.5c2.9-0.5,5.3-2.2,7.6-3.8c1.7-1.9,3.7-3.2,5.7-4.8c0-0.1,0.1-0.1,0.1-0.2c2-3.2,4.5-6,7.9-6.5
				c0.1,0,2.2,0,2.3,0c1.2-0.7,1.4-2.5,1.9-4C83.6,91,83.8,88.7,84.9,87z"/>
			<path class="st20" d="M62.6,7.8c7.1,3.4,13,5.8,16.1,13.1c7.2,3.3,14,10.2,14.8,14.5c-1.6-9.1-6.6-14-11.7-19.3
				c-5.5-5.8-12.3-5.7-19-8.8"/>
			<path class="st7" d="M93.4,56.4c0.5-4.5-6.6-10-10.3-11.6c-4.5-2-8.6-2.6-13.5-2.6c-5.3,0-10.4,1.5-14.7,4.5
				c-3.1,2.2-4.5,4-8.9,8.8c2.5-7.5,14.6-19.8,25.2-20.3c6-0.3,12.5,1.3,16.5,6.1c2.5,3,7.7,12.5,6,14.4"/>
			<g>
				<path class="st13" d="M41.7,65.7L41,65.4c5.9-15.3,13.6-24.9,23-28.6c6.1-2.5,13-2.2,19.3,0.8c10.7,5.1,11.2,18.1,11.2,18.2
					l-0.7,0c0-0.1-0.5-12.7-10.8-17.6c-6.1-2.9-12.7-3.2-18.7-0.8C55.1,41.1,47.5,50.6,41.7,65.7z"/>
			</g>
			<g>
				<g>
					<path class="st21" d="M40.9,64.9c-1.5-28.6,10.6-38.9,17.9-42.6c10-5,20.9-2.8,26.5,1.9c15.2,12.6,9.1,30.4,9,30.6l-0.7-0.3
						c0.1-0.2,6-17.5-8.8-29.8c-5.4-4.6-15.9-6.7-25.7-1.9C52,26.5,40.2,36.7,41.7,64.8L40.9,64.9z"/>
				</g>
			</g>
			<g>
				<path class="st9" d="M42,65.1c0.3,1.4,0.5,2.4,0.6,3c0.1,0.3,0.1,0.5,0.1,0.5c0.1,0.8,0.8,5.2,3.9,9.8
					c3.2,4.8,7.7,8.3,13.5,10.4c9.6,2.7,16.7,1.6,23.2-3.3c1.4-1.1,2.8-2.3,4.4-3.9c3.2-4.5,3.8-6.3,3.8-8c0-1.5,0.6-10.8,1.6-16.4
					c0.1-0.5,0.2-1,0.3-1.4c0-0.1,0-0.1,0-0.2l0.5,0.3l0,0.1c-0.1,0.4-0.2,0.9-0.3,1.4c-1,5.6-1.6,14.7-1.6,16.2
					c0,1.9-0.6,3.8-4,8.5c-1.6,1.7-3.1,2.9-4.5,4c-4.3,3.3-8.8,4.9-14.1,4.9c-2.9,0-6.1-0.5-9.6-1.5c-5.9-2.2-10.5-5.7-13.8-10.6
					c-3.2-4.8-4.3-9.3-4.4-10.2c0-0.1,0-0.3-0.1-0.6c-0.1-0.5-0.3-1-0.5-2.1c0.1-0.4,0.5-1,0.7-1.4C41.9,64.8,42,65,42,65.1z"/>
			</g>
			<g>
				<path class="st21" d="M68.2,8.3C55.3,5,42,8.9,31.9,19c-10.8,10.8-11.8,27.7-10.7,36c1.4,10.3,3.8,18.7,7.2,25.8
					c1,2.1-0.2,9.1,1,11.1l0.9,1.5c0,0,0.1,0.1,0.1,0.1c0.4,0.2,0.8,0.5,1.2,0.8l0,0c-0.3-0.4-0.5-0.8-0.7-1.3l-0.9-1.5
					c-1.1-2,0.1-9-1-11.1c-3.4-7-5.8-15.4-7.2-25.6c-1-7.6-0.1-24.8,10.5-35.4C42.4,9.5,55.3,5.7,68,9c13.5,3.5,20.4,14,22.8,18.4
					c3.4,6.3,3.4,15.2,3.9,15.9l0.1,0c0-3-0.4-10.6-3.4-16.2C89,22.6,82,11.9,68.2,8.3z"/>
			</g>
			<g>
				<path class="st21" d="M64,100.7c0.5,0,1,0,1.5-0.1c8.2-1.5,16.4-13,16.7-13.6l-0.1-0.2c-0.1,0.2-8.9,11.7-16.7,13.2
					c-1.2,0.1-2.6,0.1-4.1-0.1c-4.7-0.7-9.3-3-10.5-3.8l-0.5,0c1.2,0.9,6,3.7,10.9,4.5C62.3,100.6,63.2,100.7,64,100.7z"/>
			</g>
			<g>
				<path class="st21" d="M61.8,97l0.1-0.3c-12.1-2.6-24.7-17.4-24.8-17.5l0,0.9C37.6,80.8,49.4,94.3,61.8,97z"/>
			</g>
			<path class="st21" d="M47.2,119.2c-1.6,0-3.2-0.3-4.7-1.1c-3.1-1.7-5-5.2-6.7-8.3c-0.5-0.9-1-1.8-1.5-2.7
				c-0.2-0.4-0.4-0.8-0.6-1.1c-0.6-1-1.1-2.1-2-2.7c-0.4-0.2-1.3-0.4-2.1-0.5c-1.2-0.2-1.7-0.3-1.8-0.7l0.7-0.2
				c0-0.1-0.1-0.1-0.1-0.1c0.1,0.1,0.8,0.2,1.3,0.3c0.9,0.2,1.9,0.3,2.4,0.7c1,0.7,1.6,1.8,2.2,2.9c0.2,0.4,0.4,0.8,0.6,1.1
				c0.5,0.8,1,1.7,1.5,2.7c1.7,3.2,3.5,6.4,6.4,8c4.7,2.6,11,0.5,19.2-6.2c5.9-4.8,10.3-9,14-13.2c0.9-1.1,2.4-1.1,3.7-1.1
				c1.3,0,2.5,0,3.1-0.9c0.4-0.7,0.4-2.4,0.4-4c0-1.9,0-3.7,0.6-4.6c1-1.5,2.2-2.8,3.3-4.2c0.4-0.5,0.8-1,1.2-1.4l1.3-1.9
				c-0.4,0.5-1.6,3.3-2,3.8c-1.1,1.3-2.3,2.7-3.3,4.1C84,88.5,84,90.4,84,92c0,1.8,0,3.6-0.5,4.4c-0.8,1.2-2.3,1.3-3.7,1.3
				c0,0-0.1,0-0.1,0c-1.2,0-2.4,0-3.1,0.8c-3.7,4.3-8.2,8.5-14.1,13.3C60,113.9,53.5,119.2,47.2,119.2z"/>
			<path class="st21" d="M30.2,92.6c-0.2,2.1-1.6,2.8-3.4,3.6c-1.6,0.7-3.4,1.6-3.8,3.9c-0.4,2.3,0,5.7,0.9,7.8
				c0.2,0.5,0.6,0.9,0.9,1.3c0-0.3,0.1-0.6,0.2-0.9c-0.2-0.2-0.3-0.4-0.4-0.7c-0.8-1.9-1.2-5.2-0.8-7.3c0.3-1.9,1.8-2.6,3.4-3.4
				c1.7-0.8,3.3-1.1,3.5-3.7L30.2,92.6z"/>
		</g>
		<path class="st8" d="M87.3,121.2c-0.1-3-0.3-6-0.4-8.9c-0.1-1.9-0.1-3.8-0.3-5.7c0-0.4,0-0.9-0.1-1.3c-0.2-0.5-0.4-1-0.5-1.5
			l-0.2-0.4c-0.7-2.1-2.1-4.4-3.2-5.8c0-0.1-0.1-0.1-0.2-0.2c0,0,0,0,0,0c-0.2,0.1-0.5,0.2-0.7,0.3c0.1,0.1,0.2,0.2,0.3,0.3
			c0.1,0.1,0.1,0.1,0.1,0.2c0.8,1,1.5,2.1,2.1,3.3c0.5,0.9,1.1,2.2,1.7,4.1c0.2,0.5,0.5,11.6,0.7,15.8c0,2.9-0.1,6-0.7,8.7
			c-1.2,5.1-0.6,9.1-2.5,12.9c-0.6,1.3-1.3,2.6-1.9,3.9c-1.4,2.8-3.4,6.5-6,10.1c-1,1.4-2,2.9-3,4.3c-0.7,1-1.4,1.9-2,2.9
			c-0.5,0.7-1,1.5-1.5,2.2c-0.4,0.6-0.8,1.2-1.2,1.8c-0.2,0.3-0.5,0.6-0.8,1c-0.3,0.3-0.7,1-1,1.4c0,0.1,0,0.3-0.1,0.5l0.3,0.7
			c0-0.1,0.1-0.4,0.2-0.5c0.3-0.5,0.7-1.1,1.2-1.6c0.3-0.4,0.6-0.7,0.9-1.1c0.4-0.6,0.8-1.2,1.2-1.8c0.5-0.7,0.9-1.5,1.4-2.2
			c0.7-1,1.4-1.9,2-2.9c1-1.4,2-2.9,3-4.3c2.6-3.6,4.6-7.4,6.1-10.2c0.6-1.3,1.3-2.6,1.9-4c1.9-3.9,1.3-7.9,2.5-13
			c0.6-2.9,0.8-5.9,0.7-8.8C87.3,121.3,87.3,121.2,87.3,121.2z"/>
		<path class="st8" d="M28.2,102.3c-1.9,1.7-2.7,3.7-3.3,5.4c-0.2,0.6-0.4,1.9-0.5,2.7c-0.7,4.2-0.7,8.6-0.7,12.8c0,0.7,0,1.4,0,2.1
			c0,0.3,0,0.7,0,1c0.1,1.5-1.6,5.4-2.4,6.7c-0.2,0.4-0.6,0.7-0.9,1c-0.7,0.7-1.4,1.4-1.2,2.5c0.1,0.7,0.5,1.3,0.8,1.9
			c0.2,0.4,0.5,0.8,0.6,1.2l0.7-0.3c-0.1-0.4-0.4-0.8-0.6-1.3c-0.3-0.6-0.7-1.2-0.7-1.7c-0.1-0.7,0.3-1.2,1-1.9
			c0.3-0.4,0.7-0.7,1-1.2c0.9-1.5,2.5-5.6,2.5-7.1c0-0.3,0-0.7,0-1c0-0.7,0-1.4,0-2.1c0-3.3,0.1-8.3,0.6-12.4h0
			c0-0.6,0.3-2.2,0.5-2.8c0.6-1.7,1.3-3.6,3.1-5.1L28.2,102.3z"/>
	</g>
	<use xlink:href="#SVGID_1_"  style="overflow:visible;fill:none;stroke:#231F20;stroke-miterlimit:10;"/>
</g>
</svg>
