<?xml version="1.0" encoding="utf-8"?>
<!-- Generator: Adobe Illustrator 22.1.0, SVG Export Plug-In . SVG Version: 6.00 Build 0)  -->
<svg version="1.1" id="Layer_1" xmlns="http://www.w3.org/2000/svg" xmlns:xlink="http://www.w3.org/1999/xlink" x="0px" y="0px"
	 viewBox="0 0 1024 768" style="enable-background:new 0 0 1024 768;" xml:space="preserve">
<style type="text/css">
	.st0{fill:url(#SVGID_1_);}
	.st1{clip-path:url(#SVGID_3_);}
	.st2{fill:url(#SVGID_4_);}
	.st3{fill:#F68A1F;}
	.st4{filter:url(#Adobe_OpacityMaskFilter);}
	.st5{filter:url(#Adobe_OpacityMaskFilter_1_);}
	.st6{mask:url(#SVGID_5_);fill:url(#SVGID_6_);}
	.st7{fill:url(#SVGID_7_);}
	.st8{fill:url(#SVGID_8_);}
	.st9{fill:#CA4977;}
	.st10{fill:#632872;}
	.st11{fill-rule:evenodd;clip-rule:evenodd;fill:#F6DFB4;}
	.st12{fill:#D2D3D4;}
	.st13{fill:#FFFFFF;}
	.st14{fill:#205B6A;}
	.st15{fill:url(#SVGID_9_);}
</style>
<g>
	<g>
		<g>
			<g>
				<linearGradient id="SVGID_1_" gradientUnits="userSpaceOnUse" x1="246.6671" y1="134.3177" x2="246.6671" y2="717.3087">
					<stop  offset="0" style="stop-color:#3653A4"/>
					<stop  offset="0.103" style="stop-color:#4A559C"/>
					<stop  offset="0.3094" style="stop-color:#725B8A"/>
					<stop  offset="0.6003" style="stop-color:#A6676B"/>
					<stop  offset="0.9615" style="stop-color:#EB782B"/>
					<stop  offset="0.9949" style="stop-color:#F47A22"/>
				</linearGradient>
				<path class="st0" d="M396.9,263.1h-6.1c-1.8-28.2-25.9-59.6-71.7-93.4c-35-25.9-70.5-43.7-70.9-43.9c-1-0.5-2.2-0.5-3.1,0
					c-0.3,0.2-35.9,18-70.9,43.9c-45.7,33.8-69.8,65.2-71.7,93.4h-6.1c-1.9,0-3.5,1.6-3.5,3.5v360.2h307.5V266.6
					C400.4,264.6,398.8,263.1,396.9,263.1z"/>
			</g>
		</g>
	</g>
	<g>
		<defs>
			<path id="SVGID_2_" d="M396.9,263.1h-6.1c-1.8-28.2-25.9-59.6-71.7-93.4c-35-25.9-70.5-43.7-70.9-43.9c-1-0.5-2.2-0.5-3.1,0
				c-0.3,0.2-35.9,18-70.9,43.9c-45.7,33.8-69.8,65.2-71.7,93.4h-6.1c-1.9,0-3.5,1.6-3.5,3.5v360.2h307.5V266.6
				C400.4,264.6,398.8,263.1,396.9,263.1z"/>
		</defs>
		<clipPath id="SVGID_3_">
			<use xlink:href="#SVGID_2_"  style="overflow:visible;"/>
		</clipPath>
		<g class="st1">
			
				<radialGradient id="SVGID_4_" cx="174.0248" cy="662.4603" r="54.2731" fx="162.8844" fy="646.4167" gradientUnits="userSpaceOnUse">
				<stop  offset="0.1436" style="stop-color:#FBF066"/>
				<stop  offset="0.5314" style="stop-color:#FEDE00"/>
				<stop  offset="0.9166" style="stop-color:#F47D20"/>
			</radialGradient>
			<path class="st2" d="M175.1,616.3c-26.9,0-48.7,21.8-48.7,48.7c0,26.9,21.8,48.7,48.7,48.7c26.9,0,48.7-21.8,48.7-48.7
				C223.8,638.1,202,616.3,175.1,616.3z"/>
			<g>
				<path class="st3" d="M175.1,616.3c-26.9,0-48.7,21.8-48.7,48.7c0,26.9,21.8,48.7,48.7,48.7c26.9,0,48.7-21.8,48.7-48.7
					C223.8,638.1,202,616.3,175.1,616.3z M173.3,710.5c-25.1,0-45.5-20.4-45.5-45.5c0-25.1,20.4-45.5,45.5-45.5
					c25.1,0,45.5,20.4,45.5,45.5C218.8,690.2,198.5,710.5,173.3,710.5z"/>
				<path class="st3" d="M180.3,600.2c0,2.7-2,4.9-4.6,4.9l0,0c-2.5,0-4.6-2.2-4.6-4.9v-8.7c0-2.7,2-4.9,4.6-4.9l0,0
					c2.5,0,4.6,2.2,4.6,4.9V600.2z"/>
				<path class="st3" d="M180.3,733.4c0,2.7-2,4.9-4.6,4.9l0,0c-2.5,0-4.6-2.2-4.6-4.9v-8.7c0-2.7,2-4.9,4.6-4.9l0,0
					c2.5,0,4.6,2.2,4.6,4.9V733.4z"/>
				<path class="st3" d="M238,667c-2.7,0-4.9-2-4.9-4.6l0,0c0-2.5,2.2-4.6,4.9-4.6h8.7c2.7,0,4.9,2,4.9,4.6l0,0
					c0,2.5-2.2,4.6-4.9,4.6H238z"/>
				<path class="st3" d="M104.8,667c-2.7,0-4.9-2-4.9-4.6l0,0c0-2.5,2.2-4.6,4.9-4.6h8.7c2.7,0,4.9,2,4.9,4.6l0,0
					c0,2.5-2.2,4.6-4.9,4.6H104.8z"/>
				<path class="st3" d="M223,621.7c-1.9,1.9-4.9,2.1-6.7,0.3l0,0c-1.8-1.8-1.7-4.8,0.3-6.7l6.2-6.2c1.9-1.9,4.9-2.1,6.7-0.3l0,0
					c1.8,1.8,1.7,4.8-0.3,6.7L223,621.7z"/>
				<path class="st3" d="M128.8,715.9c-1.9,1.9-4.9,2.1-6.7,0.3l0,0c-1.8-1.8-1.7-4.8,0.3-6.7l6.2-6.2c1.9-1.9,4.9-2.1,6.7-0.3l0,0
					c1.8,1.8,1.7,4.8-0.3,6.7L128.8,715.9z"/>
				<path class="st3" d="M216.6,709.7c-1.9-1.9-2-4.9-0.3-6.7l0,0c1.8-1.8,4.8-1.7,6.7,0.3l6.2,6.2c1.9,1.9,2.1,4.9,0.3,6.7l0,0
					c-1.8,1.8-4.8,1.7-6.7-0.3L216.6,709.7z"/>
				<path class="st3" d="M122.4,615.5c-1.9-1.9-2-4.9-0.3-6.7l0,0c1.8-1.8,4.8-1.7,6.7,0.3l6.2,6.2c1.9,1.9,2.1,4.9,0.3,6.7l0,0
					c-1.8,1.8-4.8,1.7-6.7-0.3L122.4,615.5z"/>
			</g>
			<defs>
				<filter id="Adobe_OpacityMaskFilter" filterUnits="userSpaceOnUse" x="129.2" y="620.3" width="72.7" height="48.8">
					<feFlood  style="flood-color:white;flood-opacity:1" result="back"/>
					<feBlend  in="SourceGraphic" in2="back" mode="normal"/>
				</filter>
			</defs>
			<mask maskUnits="userSpaceOnUse" x="129.2" y="620.3" width="72.7" height="48.8" id="SVGID_5_">
				<g class="st4">
					<defs>
						<filter id="Adobe_OpacityMaskFilter_1_" filterUnits="userSpaceOnUse" x="129.2" y="620.3" width="72.7" height="48.8">
							<feFlood  style="flood-color:white;flood-opacity:1" result="back"/>
							<feBlend  in="SourceGraphic" in2="back" mode="normal"/>
						</filter>
					</defs>
					<mask maskUnits="userSpaceOnUse" x="129.2" y="620.3" width="72.7" height="48.8" id="SVGID_5_">
						<g class="st5">
						</g>
					</mask>
					
						<radialGradient id="SVGID_6_" cx="164.0647" cy="624.7263" r="50.6721" fx="181.2409" fy="598.6132" gradientUnits="userSpaceOnUse">
						<stop  offset="0.2627" style="stop-color:#FFFFFF"/>
						<stop  offset="0.7268" style="stop-color:#FFFFFF"/>
						<stop  offset="0.9716" style="stop-color:#000000"/>
					</radialGradient>
					<path class="st6" d="M143.9,631.1c9-9.2,32.2-15.4,48.6-6.2c16.4,9.2,11,26.7-15.4,25.7c-26.4-1-42.3,8.6-44.4,16.8
						C130.7,675.6,121.6,653.8,143.9,631.1z"/>
				</g>
			</mask>
			
				<radialGradient id="SVGID_7_" cx="164.0647" cy="624.7263" r="50.6721" fx="181.2409" fy="598.6132" gradientUnits="userSpaceOnUse">
				<stop  offset="0.2627" style="stop-color:#FFFFFF"/>
				<stop  offset="0.7268" style="stop-color:#FBF066"/>
				<stop  offset="0.9716" style="stop-color:#FEDE00"/>
			</radialGradient>
			<path class="st7" d="M143.9,631.1c9-9.2,32.2-15.4,48.6-6.2c16.4,9.2,11,26.7-15.4,25.7c-26.4-1-42.3,8.6-44.4,16.8
				C130.7,675.6,121.6,653.8,143.9,631.1z"/>
		</g>
	</g>
</g>
<linearGradient id="SVGID_8_" gradientUnits="userSpaceOnUse" x1="508.2126" y1="324.6935" x2="1024.2134" y2="324.6935">
	<stop  offset="0.1199" style="stop-color:#FFFFFF"/>
	<stop  offset="0.9969" style="stop-color:#FFF2D5"/>
</linearGradient>
<rect x="507.2" y="286.2" class="st8" width="517" height="77"/>
<g>
	<g>
		<path class="st9" d="M761.9,336.5c0,1.7-0.6,3.1-2.5,3.1c-2.6,0-4.6-0.7-5.8-2.4c-1.2,0.4-2.2,0.6-3.3,0.6c-4,0-6.4-1.9-6.4-4.6
			c0-3,3-6.3,8.6-8.2v-1.7l4.2-1.6l0.3,0.1v10.8c0,1.9,0.7,2.5,3.4,2.5C761.6,335.1,761.9,335.7,761.9,336.5z M749.4,319.3l-3.7-2.6
			l2.3-3.4l3.5,2.4l1.6-2.4l3.7,2.5l-2.3,3.5l-3.5-2.5L749.4,319.3z M752.5,333.3v-0.7v-3.4c-2.5,0.6-4.5,1.7-5,2.8
			c0.4,1,1.9,1.5,3.2,1.5C751.4,333.4,751.9,333.4,752.5,333.3z"/>
		<path class="st9" d="M773.1,336.5c0,1.7-0.6,3.1-2.4,3.1c-1.4,0-3.3-0.4-4.5-2.1c-1.3,1.5-3.1,2.1-6.7,2.1l1-4.5
			c1,0,2.2-0.1,2.9-0.5c0.1-0.6,0.3-1.4,0.3-2.7v-16.2l4.2-1.1l0.3,0.2v17.1c0,2.8,0.8,3.2,3.6,3.2
			C772.7,335.1,773.1,335.7,773.1,336.5z"/>
		<path class="st9" d="M785.1,336.5c0,1.7-0.6,3.1-2.4,3.1s-4.2-0.6-5.6-1.7c-1.4,1.1-3.2,1.7-5.8,1.7h-0.7l1-4.5h0.6
			c1.4,0,2.4-0.1,2.8-0.5c0.4-0.9,0.8-2.7,1.2-5l4.6-1.1l0.4,0.3c-0.5,2.2-1,4.1-1.7,5.7c1,0.4,2.4,0.7,4.1,0.7
			C784.8,335.1,785.1,335.7,785.1,336.5z M776.3,342.2l3.8,2.6l-2.4,3.6l-3.9-2.7L776.3,342.2z"/>
		<path class="st9" d="M801.3,336.5c0,1.7-0.5,3.1-2.4,3.1h-2.3c-1.9,0-3.8-0.4-5.5-1.1c-1.9,0.8-4.1,1.1-6.3,1.1h-2.1l1-4.5h3
			c-0.7-1-1.2-2.1-1.2-3.3c0-3.6,3-7.2,6.3-7.2c3.1,0,5.4,3.4,5.4,6.1c0,1.7-0.5,3.1-1.3,4.4c0.4,0,0.9,0,1.4,0h2.7
			C801,335.1,801.3,335.7,801.3,336.5z M789.4,321.6l-3.7-2.6l2.3-3.4l3.5,2.4l1.6-2.4l3.7,2.5l-2.3,3.5l-3.5-2.5L789.4,321.6z
			 M789.1,331.4c0,1.1,0.8,2,2.3,2.7c1.3-0.7,2.2-1.7,2.2-2.8c0-1.2-1.2-2.4-2.2-2.4C790.3,328.8,789.1,330.1,789.1,331.4z"/>
		<path class="st9" d="M799.8,335.1c1,0,2.2-0.1,2.9-0.5c0.1-0.6,0.3-1.4,0.3-2.7v-16.2l4.2-1.1l0.3,0.2v16.9c0,6.3-3.2,7.8-8.6,7.8
			L799.8,335.1z"/>
		<path class="st9" d="M811.9,339.6v-23.9l4.2-1.1l0.4,0.2l-0.1,24.1l-4.1,0.9L811.9,339.6z"/>
		<path class="st9" d="M828,338.7c0-1.3,0.3-2.8,0.6-4.1l3.7-1.3l0.4,0.2c-0.3,1.5-0.4,2.3-0.4,3.1c0,3.1,1.7,5.1,7.3,5.1
			c4.2,0,8.5-0.8,9.6-2.1c0-0.8-0.9-1.8-5.9-2.8l1.3-3.9c6.9,1.6,8.6,3.3,8.6,5.6c-0.2,4.8-6.4,7.7-14.4,7.7
			C831.5,346.3,828,343,828,338.7z"/>
		<path class="st9" d="M844.7,333c1.5-0.3,3.2-0.6,4.4-1.3c0.1-0.7,0.2-1.9,0.2-3.2v-13.8l4.1-1.1l0.4,0.2v15.2
			c0,3.8-1.3,6.3-6.6,7.6L844.7,333z"/>
		<path class="st9" d="M864.1,349.1c-1.8,0.2-4.2,0.4-7,0.5l-0.3-2.6c0.5,0,1.1,0,1.6,0c-0.4-0.6-0.8-1.5-0.8-2.2
			c0-1.8,1.2-3.1,3.2-3.1c0.8,0,1.7,0.2,2.7,0.5l-0.6,2.3c-0.6-0.2-1.2-0.3-1.5-0.3c-0.8,0-1.2,0.4-1.2,1.2c0,0.5,0.3,1,0.7,1.5
			c1-0.1,2.1-0.1,3-0.3L864.1,349.1z M858.5,339.8l-0.3-0.2v-23.9l4.2-1.1l0.4,0.2l-0.1,24.1L858.5,339.8z"/>
		<path class="st9" d="M891.9,336.5c0,1.7-0.6,3.1-2.5,3.1c-2.6,0-4.6-0.7-5.8-2.4c-1.2,0.4-2.2,0.6-3.3,0.6c-4,0-6.4-1.9-6.4-4.6
			c0-3,3-6.3,8.6-8.2v-1.7l4.2-1.6l0.3,0.1v10.8c0,1.9,0.7,2.5,3.4,2.5C891.6,335.1,891.9,335.7,891.9,336.5z M882.5,333.3v-0.7
			v-3.4c-2.5,0.6-4.5,1.7-5,2.8c0.4,1,1.9,1.5,3.2,1.5C881.4,333.4,881.9,333.4,882.5,333.3z"/>
		<path class="st9" d="M914.6,336.5c0,1.7-0.5,3.1-2.4,3.1c-5.8,0-7.9-1.4-9.3-4l-1.3,0.6c-5,2.5-8.2,3.3-12.2,3.3l1-4.5
			c3.6,0,5.7-0.4,9.9-1.9c1.2-0.4,2.1-0.7,2.8-1c-0.4-0.1-0.8-0.3-1.2-0.5c-2.9-1.3-4.5-1.8-6-1.8c-1.6,0-2.9,0.3-4.1,0.7l-0.2-0.1
			l1.6-4c0.8-0.4,2.1-0.8,3.3-0.8c1.2,0,2.7,0.4,5.5,1.7c3.8,1.7,6.1,2.3,8.6,2.3l-0.8,4c-1,0-1.9,0.1-3.1,0.5
			c1.2,0.7,3,0.9,6.5,0.9C914.3,335.1,914.6,335.7,914.6,336.5z M898.1,342.2l3.8,2.6l-2.4,3.6l-3.9-2.7L898.1,342.2z"/>
		<path class="st9" d="M919.7,325.8c1.2,2.6,2,5.7,2,7.4c0,1.9-0.6,3.6-1.9,4.8c-1.2,1.2-2.8,1.6-6.4,1.6h-1.2l1-4.5h1.1
			c1.3,0,2.9-0.1,3.5-0.3c0.2-1.4-0.8-3.8-2-6.2l3.6-2.9H919.7z M916,322.9l-3.7-2.6l2.3-3.4l3.5,2.4l1.6-2.4l3.7,2.5l-2.3,3.5
			l-3.5-2.5L916,322.9z"/>
		<path class="st9" d="M931.7,312.4c-1.8,0.2-4.2,0.4-7,0.5l-0.3-2.6c0.5,0,1.1,0,1.7,0c-0.5-0.6-0.8-1.5-0.8-2.3
			c0-1.8,1.2-3.1,3.2-3.1c0.8,0,1.7,0.2,2.7,0.6l-0.6,2.3c-0.6-0.2-1.2-0.3-1.5-0.3c-0.8,0-1.2,0.4-1.2,1.2c0,0.5,0.3,1,0.7,1.5
			c1.1-0.1,2.1-0.1,3-0.3L931.7,312.4z M930,314.6l0.4,0.2l-0.1,24.1l-4.1,0.9l-0.3-0.2v-23.9L930,314.6z"/>
	</g>
</g>
<g>
	<path class="st10" d="M830.3,214.4c0-0.8,0.7-1.5,1.5-1.5c0.8,0,1.5,0.7,1.5,1.5c0,0.8-0.7,1.5-1.5,1.5
		C831,215.9,830.3,215.2,830.3,214.4z M830.3,221.8c0-0.8,0.7-1.5,1.5-1.5c0.8,0,1.5,0.7,1.5,1.5c0,0.8-0.7,1.5-1.5,1.5
		C831,223.3,830.3,222.7,830.3,221.8z"/>
	<path class="st10" d="M848,219.8c0,2-1.7,3.5-4,3.5c-2.1,0-3.4-1.1-3.4-3c0-1.2,0.6-2.6,2.2-4.7l-0.5-0.4l0.9-1.7l0.2-0.1
		C846.9,216.5,848,217.8,848,219.8z M842.7,211.3l-1.9-1.4l1.2-1.8l1.9,1.3L842.7,211.3z M846.2,219.8c0-1-0.8-2.1-2.1-3.2
		c-1.3,1.4-1.8,2.4-1.8,3.2c0,1,0.7,1.6,1.9,1.6C845.5,221.4,846.2,220.8,846.2,219.8z M846.1,211.3l-1.9-1.4l1.2-1.8l1.9,1.3
		L846.1,211.3z"/>
	<path class="st10" d="M863.4,221.9c0,0.4-0.2,1.2-1.5,1.2c-2.1,0-3.7-0.6-4.1-2.9c-1.8,2.2-4.4,3-7.2,3l-0.8-1.7l0.1-0.1
		c2.3,0,4.3-0.5,5.9-1.6c-1.3-2.5-3.4-4.6-6.1-7.1l0.7-1.9l0.2-0.1c3,2.7,5.4,6.1,6.4,8.1c0.3-0.3,0.5-0.6,0.7-1v-10.7l1.7-0.4
		l0.1,0.1v12.1c0,1.9,0.8,2.3,2.8,2.3C863.2,221.2,863.4,221.5,863.4,221.9z"/>
	<path class="st10" d="M883.6,221.9c0,0.4-0.2,1.2-1.4,1.2c-1,0-2.3-0.2-3.3-1c-1.1,0.8-2.9,1-6.1,1H870c-2.4,0-3.8-0.1-5.3-0.7
		c-0.7,0.5-1.6,0.7-2.7,0.7l0.5-1.9c0.7,0,1.5-0.1,1.8-0.3c0.3-0.4,0.7-1.4,1.1-2.7l1.9-0.3l0.1,0.1c-0.4,1.2-0.8,2.1-1.3,2.9
		c0.5,0.2,1.2,0.3,2.1,0.3c3.9-3.8,6.5-6.1,8.7-6.1c2,0,3.6,1.9,3.6,3.8c0,0.7-0.1,1.3-0.4,1.8c0.5,0.3,1.3,0.6,2.6,0.6
		C883.4,221.2,883.6,221.5,883.6,221.9z M878.2,220.7c0.2-0.3,0.4-0.9,0.4-1.5c0-1-0.9-2.3-2-2.3c-1.5,0-3.6,1.9-6.1,4.3h2.1
		C876.1,221.2,877.4,221.1,878.2,220.7z"/>
	<path class="st10" d="M882.6,221.2c0.8,0,1.7,0,2.3-0.5c0.1-0.4,0.2-1,0.2-1.9v-11.7l1.7-0.4l0.2,0.1v11.9c0,3.5-1.8,4.4-4.8,4.4
		L882.6,221.2z"/>
	<path class="st10" d="M890,223.2v-16l1.8-0.5l0.1,0.1l0,16.1l-1.7,0.4L890,223.2z"/>
	<path class="st10" d="M909.2,220.7c0,1.8-0.4,2.4-1.3,2.4c-1.1,0-2.2-0.2-3.5-0.2c-0.8,0-1.7,0.2-2.1,0.5c-0.5,1.5,0.4,5.2,0.7,7.7
		l-1.6,0.8l-0.2-0.1c-0.4-2.9-0.9-5.3-0.9-6.6c0-1.9,1.2-4,4.5-4c0.7,0,1.7,0.1,2.6,0.2c0-2-1.2-4-2.6-4c-0.7,0-1.6,0.7-1.9,2.5
		l-1,0.2l-0.2-0.1c0.2-3,1.8-4.4,3.5-4.4C907.5,215.4,909.2,218.2,909.2,220.7z"/>
	<path class="st10" d="M912,219.1v-12l1.7-0.4l0.1,0.1v12.1c0,1.9,0.8,2.3,2.8,2.3c0.8,0,1,0.3,1,0.6c0,0.4-0.2,1.2-1.5,1.2
		C913.9,223.1,912,222.3,912,219.1z"/>
	<path class="st10" d="M925.3,217.9c0,2.3-0.4,3.6-1.5,4.4c-1.3,0.7-3.1,0.8-7.6,0.8l0.5-1.9c4.6,0,6.1-0.2,6.8-0.5
		c0.1-0.3,0.1-0.8,0.2-1.5c-0.7,0.2-1.6,0.3-2.5,0.3c-2.1,0-3.1-1.1-3.1-2.8c0-2.2,1.6-4.6,3.5-4.6
		C923.9,212.2,925.3,215,925.3,217.9z M920.2,209.5l-1.9-1.4l1.2-1.8l1.9,1.3L920.2,209.5z M921.5,217.7c0.8,0,1.5-0.1,2.2-0.2
		c-0.1-1.7-1.1-3.5-2.2-3.5c-0.9,0-1.9,1.2-1.9,2.5C919.6,217.3,920.3,217.7,921.5,217.7z M923.6,209.5l-1.9-1.4l1.2-1.8l1.9,1.3
		L923.6,209.5z"/>
	<path class="st10" d="M931.5,228.8c-1.2,0.1-2.7,0.3-4.6,0.3l-0.1-1.3c0.3,0,0.7,0,1.1,0c-0.3-0.4-0.4-0.9-0.4-1.4
		c0-1.2,0.7-1.9,2-1.9c0.5,0,1.1,0.1,1.7,0.3l-0.3,1.3c-0.5-0.2-0.8-0.3-1.1-0.3c-0.6,0-0.9,0.4-0.9,0.9c0,0.4,0.2,0.7,0.5,1
		c0.8,0,1.5-0.1,2.2-0.2L931.5,228.8z M928.4,223.2l-0.1-0.1v-16l1.8-0.5l0.1,0.1l0,16.1L928.4,223.2z"/>
</g>
<g>
	<path class="st10" d="M544.5,439c0,2-1.7,3.5-4,3.5c-2.1,0-3.4-1.1-3.4-3c0-1.2,0.6-2.6,2.2-4.7l-0.5-0.4l0.9-1.7l0.2-0.1
		C543.4,435.7,544.5,437,544.5,439z M539.2,430.5l-1.9-1.4l1.2-1.8l1.9,1.3L539.2,430.5z M542.7,439c0-1-0.8-2.1-2.1-3.2
		c-1.3,1.4-1.8,2.4-1.8,3.2c0,1,0.7,1.6,1.9,1.6C542,440.6,542.7,440,542.7,439z M542.5,430.5l-1.9-1.4l1.2-1.8l1.9,1.3L542.5,430.5
		z"/>
	<path class="st10" d="M559.9,441.1c0,0.4-0.2,1.2-1.5,1.2c-2.1,0-3.7-0.6-4.1-2.9c-1.8,2.2-4.4,3-7.2,3l-0.8-1.7l0.1-0.1
		c2.3,0,4.3-0.5,5.9-1.6c-1.3-2.5-3.4-4.6-6.1-7.1l0.7-1.9l0.2-0.1c3,2.7,5.4,6.1,6.4,8.1c0.3-0.3,0.5-0.6,0.7-1v-10.7l1.7-0.4
		l0.1,0.1v12.1c0,1.9,0.8,2.3,2.8,2.3C559.7,440.5,559.9,440.7,559.9,441.1z"/>
	<path class="st10" d="M580.1,441.1c0,0.4-0.2,1.2-1.4,1.2c-1,0-2.3-0.2-3.3-1c-1.1,0.8-2.9,1-6.1,1h-2.7c-2.4,0-3.8-0.1-5.3-0.7
		c-0.7,0.5-1.6,0.7-2.7,0.7l0.5-1.9c0.7,0,1.5-0.1,1.8-0.3c0.3-0.4,0.7-1.4,1.1-2.7l1.9-0.3l0.1,0.1c-0.4,1.2-0.8,2.1-1.3,2.9
		c0.5,0.2,1.2,0.3,2.1,0.3c3.9-3.8,6.5-6.1,8.7-6.1c2,0,3.6,1.9,3.6,3.8c0,0.7-0.1,1.3-0.4,1.8c0.5,0.3,1.3,0.6,2.6,0.6
		C579.9,440.5,580.1,440.7,580.1,441.1z M574.7,439.9c0.2-0.3,0.4-0.9,0.4-1.5c0-1-0.9-2.3-2-2.3c-1.5,0-3.6,1.9-6.1,4.3h2.1
		C572.6,440.5,573.9,440.4,574.7,439.9z"/>
	<path class="st10" d="M579.1,440.5c0.8,0,1.7,0,2.3-0.5c0.1-0.4,0.2-1,0.2-1.9v-11.7l1.7-0.4l0.2,0.1v11.9c0,3.5-1.8,4.4-4.8,4.4
		L579.1,440.5z"/>
	<path class="st10" d="M586.5,442.4v-16l1.8-0.5l0.1,0.1l0,16.1l-1.7,0.4L586.5,442.4z"/>
	<path class="st10" d="M607.6,441.1c0,0.4-0.2,1.2-1.5,1.2c-1.9,0-3.3-0.4-3.9-1.9c-0.6,0.1-1.2,0.2-1.8,0.2c-2.5,0-4-1.1-4-2.7
		c0-1.8,1.9-4,5.5-5.1v-1.2l1.7-0.8l0.2,0v7.4c0,1.8,0.9,2.1,2.8,2.1C607.5,440.5,607.6,440.7,607.6,441.1z M599.4,429.4l-1.9-1.4
		l1.2-1.8l1.9,1.3L599.4,429.4z M601.9,438.6v-0.2v-3.6c-2.2,0.7-3.7,1.8-4,2.8c0.3,0.9,1.6,1.2,2.6,1.2
		C601,438.8,601.5,438.7,601.9,438.6z M602.8,429.4l-1.9-1.4l1.2-1.8l1.9,1.3L602.8,429.4z"/>
	<path class="st10" d="M622.1,441.1c0,0.4-0.2,1.2-1.4,1.2c-3.2,0-4.7-0.8-5.5-2.3c-0.8,0.2-1.7,0.5-2.7,0.9
		c-3.1,1.1-4.5,1.4-6.4,1.4l0.5-1.9c1.6,0,2.9-0.2,5.4-1.1c1.5-0.5,2.7-0.8,3.8-1c-0.4-0.2-0.9-0.5-1.7-0.8c-1.9-1-2.9-1.4-4-1.4
		c-0.9,0-1.7,0.2-2.4,0.5l-0.1-0.1l0.7-1.8c0.6-0.3,1.4-0.5,2.1-0.5c1.1,0,2.2,0.5,4.2,1.6c2.4,1.2,3.6,1.7,4.7,1.8l-0.4,1.7
		c-0.6,0.1-1.2,0.1-1.8,0.3c0.7,0.7,1.9,0.9,4,0.9C622,440.5,622.1,440.7,622.1,441.1z"/>
	<path class="st10" d="M642.3,441.1c0,0.4-0.2,1.2-1.4,1.2c-1,0-2.3-0.2-3.3-1c-1.1,0.8-2.9,1-6.1,1h-2.7c-2.4,0-3.8-0.1-5.3-0.7
		c-0.7,0.5-1.6,0.7-2.7,0.7l0.5-1.9c0.7,0,1.5-0.1,1.8-0.3c0.3-0.4,0.7-1.4,1.1-2.7l1.9-0.3l0.1,0.1c-0.4,1.2-0.8,2.1-1.3,2.9
		c0.5,0.2,1.2,0.3,2.1,0.3c3.9-3.8,6.5-6.1,8.7-6.1c2,0,3.6,1.9,3.6,3.8c0,0.7-0.1,1.3-0.4,1.8c0.5,0.3,1.3,0.6,2.6,0.6
		C642.1,440.5,642.3,440.7,642.3,441.1z M636.9,439.9c0.2-0.3,0.4-0.9,0.4-1.5c0-1-0.9-2.3-2-2.3c-1.5,0-3.6,1.9-6.1,4.3h2.1
		C634.8,440.5,636.1,440.4,636.9,439.9z"/>
	<path class="st10" d="M641.3,440.5c0.8,0,1.7,0,2.3-0.5c0.1-0.4,0.2-1,0.2-1.9v-11.7l1.7-0.4l0.2,0.1v11.9c0,3.5-1.8,4.4-4.8,4.4
		L641.3,440.5z"/>
	<path class="st10" d="M652.6,420.8l5.7-1.1v1.2l-5.7,1.1V420.8z M652.6,423.2l5.7-1.1v1.2l-5.7,1.1V423.2z"/>
	<path class="st10" d="M654.5,438.4v-12l1.7-0.4l0.1,0.1v12.1c0,1.9,0.8,2.3,2.8,2.3c0.8,0,1,0.3,1,0.6c0,0.4-0.2,1.2-1.5,1.2
		C656.3,442.3,654.5,441.5,654.5,438.4z"/>
	<path class="st10" d="M672.4,438.1c0,1.4-0.6,2.4-1.4,3.1c-1.1,0.9-2.9,1.1-6.2,1.1h-6l0.5-1.9h1c0.4-0.4,0.8-0.8,1.2-1.1v-12.9
		l1.7-0.4l0.1,0.1v11.6c2.3-2.1,4.1-3.3,5.7-3.3C670.8,434.3,672.4,436.2,672.4,438.1z M670.7,438.4c0-1-0.9-2.3-2-2.3
		c-1.5,0-3.6,1.9-6.1,4.3h2.1c3.5,0,4.8-0.1,5.6-0.5C670.5,439.6,670.7,439,670.7,438.4z"/>
	<path class="st10" d="M682.6,441.1c0,0.4-0.2,1.2-1.4,1.2c-1,0-1.6-0.3-2-0.6c-0.7,2.2-3.3,4.2-7.2,4.9l-1-1.4l0.1-0.2
		c4.7-0.9,6.4-2.8,6.8-4.6c-0.4-1.1-1.1-2.6-1.8-4l1.4-1.5h0.2c0.6,1.7,1.2,3.1,1.4,3.7c0.6,1.6,1,1.9,2.5,1.9
		C682.5,440.5,682.6,440.7,682.6,441.1z"/>
	<path class="st10" d="M698.7,438.6c0,2.8-1.7,3.7-4.3,3.7c-1,0-1.9-0.2-2.7-0.6c-0.5,0.4-1.2,0.6-2.2,0.6c-1.7,0-3-0.5-3.7-1.1
		c-0.9,0.7-2.2,1.1-4.4,1.1l0.5-1.9c1.5,0,2.5-0.1,3-0.5c0.3-0.4,0.6-1.3,1-2.5l2-0.3l0.1,0.1c-0.4,1-0.7,1.9-1.1,2.6
		c0.7,0.3,1.9,0.6,2.8,0.6c0.4,0,0.9-0.1,1.2-0.3c0.3-0.4,0.7-1.4,1.1-2.8l1.9-0.3l0.1,0.1c-0.4,1.2-0.7,2.2-1.1,2.9
		c0.5,0.2,1.1,0.3,1.7,0.3c0.8,0,1.7-0.1,2.2-0.3c0.5-1.2-0.2-2.9-1-4.7l1.6-1.2l0.1,0C698.2,436,698.7,437.5,698.7,438.6z
		 M690.5,433.1l-1.9-1.4l1.2-1.8l1.9,1.3L690.5,433.1z M692,430.3l-2-1.4l1.2-1.8l1.9,1.3L692,430.3z M692,431.7l1.2-1.8l1.9,1.3
		l-1.2,1.8L692,431.7z"/>
	<path class="st10" d="M718.4,441.1c0,0.4-0.2,1.2-1.5,1.2c-1.1,0-1.9-0.3-2.5-1.3c-0.9,0.9-2.6,1.4-4.9,1.4c-0.5,0-1.9-0.1-2.8-0.3
		l0.3-1.8l0.1-0.1c0.8,0.2,2.1,0.2,2.6,0.2c1.5,0,3.1-0.3,3.9-0.9l-0.1-0.1c-0.4-0.8-2.2-4.3-3.2-6l1.4-1.5h0.2
		c0.7,1.5,2.4,5.4,2.8,6c0.9,1.9,1.4,2.3,2.7,2.3C718.2,440.5,718.4,440.7,718.4,441.1z"/>
	<path class="st10" d="M731.6,441.1c0,0.4-0.2,1.2-1.5,1.2c-2.4,0-4.5-0.7-6.1-1.9c-1.7,1.1-3.9,1.9-7,1.9l0.5-1.9
		c2,0,3.7-0.4,5.3-1.2c-0.9-1.1-1.9-2-3.3-2.7l-0.1-0.2l0.9-2c1.2-0.6,2.8-0.9,4.3-0.9c1.6,0,3.3,0.4,4.6,1.2l0.1,0.2l-0.5,1.8
		c-0.9,0.7-1.9,1.7-3.1,2.8c1.3,0.7,3.3,1.1,5.1,1.1C731.4,440.5,731.6,440.7,731.6,441.1z M724.1,438.3c1-0.7,1.9-1.6,2.9-2.6
		c-0.9-0.3-1.8-0.5-2.8-0.5c-1.1,0-2.2,0.2-3.1,0.5C722.1,436.2,723,437.2,724.1,438.3z"/>
	<path class="st10" d="M730.6,440.5h0.7c1.2,0,2.1-0.1,2.5-0.3c0.5-1.2-0.2-2.9-1-4.7l1.5-1.2h0.2c0.7,1.7,1.2,3.3,1.2,4.3
		c0,1-0.4,2.2-1.2,2.9c-0.6,0.6-1.6,0.8-3.8,0.8h-0.7L730.6,440.5z M730.6,430.2l1.2-1.8l1.9,1.3l-1.2,1.8L730.6,430.2z M734,430.2
		l1.2-1.8l1.9,1.3l-1.2,1.8L734,430.2z"/>
	<path class="st10" d="M744.1,442.1c0-1,0.2-2,0.4-2.7l1.5-0.5l0.2,0.1c-0.2,0.9-0.3,1.6-0.3,2.2c0,2.2,1.2,3.8,5.1,3.8
		c3.7,0,6.6-1,7-2.2c0-0.8-1.1-1.3-3.9-2l0.6-1.8c2.4,0.6,4.5,1.5,6.5,1.5c0.8,0,1,0.3,1,0.7c0,0.4-0.2,1.2-1.5,1.2h-0.9
		c-0.4,2.9-4,4.5-9.2,4.5C746.3,446.8,744.1,444.8,744.1,442.1z M747.2,450.4l1.2-1.8l1.9,1.3l-1.2,1.8L747.2,450.4z M750.7,450.4
		l1.2-1.8l1.9,1.3l-1.2,1.8L750.7,450.4z"/>
	<path class="st10" d="M770.3,441.1c0,0.4-0.2,1.2-1.4,1.2c-1.5,0-2.9-0.3-3.9-1.2c-0.8,0.8-1.8,1.2-3.3,1.2h-0.8l0.5-1.9h0.7
		c0.7,0,1.4-0.1,1.8-0.5c0.3-0.5,0.7-1.6,1.2-3.6l1.8-0.5l0.2,0.1c-0.3,1.5-0.7,2.7-1.1,3.7c0.6,0.3,1.5,0.7,3.4,0.7
		C770.1,440.5,770.3,440.7,770.3,441.1z M764.6,433.2l-1.9-1.4l1.2-1.8l1.9,1.3L764.6,433.2z M768,433.2l-1.9-1.4l1.2-1.8l1.9,1.3
		L768,433.2z"/>
	<path class="st10" d="M769.3,440.5c0.8,0,1.7,0,2.3-0.5c0.1-0.4,0.2-1,0.2-1.9v-11.7l1.7-0.4l0.2,0.1v11.9c0,3.5-1.8,4.4-4.8,4.4
		L769.3,440.5z"/>
	<path class="st10" d="M776.8,442.4v-16l1.8-0.5l0.1,0.1l0,16.1l-1.7,0.4L776.8,442.4z"/>
	<path class="st10" d="M797.8,441.1c0,0.4-0.2,1.2-1.5,1.2c-1.9,0-3.3-0.4-3.9-1.9c-0.6,0.1-1.2,0.2-1.8,0.2c-2.5,0-4-1.1-4-2.7
		c0-1.8,1.9-4,5.5-5.1v-1.2l1.7-0.8l0.2,0v7.4c0,1.8,0.9,2.1,2.8,2.1C797.7,440.5,797.8,440.7,797.8,441.1z M789.7,429.4l-1.9-1.4
		l1.2-1.8l1.9,1.3L789.7,429.4z M792.2,438.6v-0.2v-3.6c-2.2,0.7-3.7,1.8-4,2.8c0.3,0.9,1.6,1.2,2.6,1.2
		C791.3,438.8,791.7,438.7,792.2,438.6z M793,429.4l-1.9-1.4l1.2-1.8l1.9,1.3L793,429.4z"/>
	<path class="st10" d="M808.1,441.1c0,0.7-0.6,1.2-1.4,1.2H805c0.5,0.6,0.8,1.4,0.8,2.1c0,1.4-1.4,2.6-3.1,2.6
		c-2.8,0-4.7-1.8-4.8-4.7h-1.5l0.5-1.9h1.2c0.4-2,1.4-4.2,3-6.1l1.2-1l0.2,0c2.1,2.2,2.8,3.3,2.8,4.5c0,0.9-0.5,2-1.2,2.6h3.1
		C807.8,440.5,808.1,440.6,808.1,441.1z M801.1,442.2c-0.4,0-0.9,0.1-1.3,0.2c0.2,1.7,1.4,2.7,3.2,2.7c0.5,0,1-0.2,1.3-0.4
		C804.3,443.2,803,442.2,801.1,442.2z M799.9,440.5c2.1,0,3.5-1,3.5-2.5c0-0.7-0.3-1.4-1.2-2.4C800.8,437.3,800.1,438.9,799.9,440.5
		z"/>
	<path class="st10" d="M819.9,437.6l-0.5,1.7c-2,0.2-3.9,0.7-6.5,1.6c-3,1-4.6,1.4-6.3,1.4l0.5-1.9c1.5,0,2.8-0.2,5.4-1.1
		c1.6-0.5,2.8-0.8,3.8-1c-0.4-0.2-1-0.5-1.7-0.9c-1.9-1.1-2.9-1.4-4-1.4c-0.9,0-1.7,0.2-2.4,0.5l-0.1-0.1l0.7-1.7
		c0.6-0.3,1.4-0.5,2.1-0.5c1.1,0,2.2,0.5,4.3,1.6C817.4,437,818.8,437.5,819.9,437.6z M812.5,444.2l2,1.3l-1.2,1.8l-2-1.4
		L812.5,444.2z"/>
	<path class="st10" d="M832.5,441.1c0,0.4-0.2,1.2-1.5,1.2h-1.8c-0.8,2.3-3,4.1-7,4.2l-1-1.4l0.1-0.2c3-0.1,5.2-1.1,6.1-2.7h-0.7
		c-3,0-4.4-1.2-4.4-3.1c0-2.2,1.6-4.7,3.5-4.7c2.2,0,3.6,2.7,3.6,5.7v0.1h1.9C832.3,440.5,832.5,440.7,832.5,441.1z M828,440.5v-0.1
		c0-2.1-1.1-3.8-2.2-3.8c-0.9,0-1.9,1-1.9,2.6c0,0.9,0.8,1.4,3.1,1.4H828z"/>
	<path class="st10" d="M831.5,440.5c0.8,0,1.7,0,2.3-0.5c0.1-0.4,0.2-1,0.2-1.9v-11.7l1.7-0.4l0.2,0.1v11.9c0,3.5-1.8,4.4-4.8,4.4
		L831.5,440.5z"/>
	<path class="st10" d="M838.9,442.4v-16l1.8-0.5l0.1,0.1l0,16.1l-1.7,0.4L838.9,442.4z"/>
	<path class="st10" d="M849.2,442.1c0-1,0.2-2,0.4-2.7l1.5-0.5l0.2,0.1c-0.2,0.9-0.3,1.6-0.3,2.2c0,2.2,1.2,3.8,5.1,3.8
		c3.7,0,6.6-1,7-2.2c0-0.8-1.1-1.3-3.9-2l0.6-1.8c2.4,0.6,4.5,1.5,6.5,1.5c0.8,0,1,0.3,1,0.7c0,0.4-0.2,1.2-1.5,1.2h-0.9
		c-0.4,2.9-4,4.5-9.2,4.5C851.4,446.8,849.2,444.8,849.2,442.1z M852.3,450.4l1.2-1.8l1.9,1.3l-1.2,1.8L852.3,450.4z M855.7,450.4
		l1.2-1.8l1.9,1.3l-1.2,1.8L855.7,450.4z"/>
	<path class="st10" d="M877.5,440.1c0,1.5-1.1,2.3-3.4,2.3c-1.4,0-2.7-0.2-3.7-0.7c-0.9,0.4-2.1,0.6-3.6,0.6h-1.1l0.5-1.9h2.4
		c-0.6-0.7-1-1.6-1-2.6c0-1.3,0.7-2.7,1.8-3.3c-0.5-0.2-0.9-0.4-1.2-0.6l0.6-1.8l0.2,0C872.3,434.1,877.5,437,877.5,440.1z
		 M869.2,437.7c0,0.9,0.4,1.8,1.6,2.4c0.8-0.5,1.1-1.3,1.1-2.3c0-1.1-0.6-2.1-1.3-2.1C869.8,435.7,869.2,436.7,869.2,437.7z
		 M875.9,440.3c0-1-1.1-2.2-2.6-3.3c0,0.2,0,0.5,0,0.8c0,1-0.4,2-1.1,2.8c0.6,0.1,1.2,0.1,1.9,0.1
		C875.1,440.7,875.7,440.5,875.9,440.3z"/>
	<path class="st10" d="M896.3,441.1c0,0.4-0.2,1.2-1.5,1.2c-1.9,0-3.3-0.4-3.9-1.9c-0.6,0.1-1.2,0.2-1.8,0.2c-2.5,0-4-1.1-4-2.7
		c0-1.8,1.9-4,5.5-5.1v-1.2l1.7-0.8l0.2,0v7.4c0,1.8,0.9,2.1,2.8,2.1C896.1,440.5,896.3,440.7,896.3,441.1z M888.1,429.4l-1.9-1.4
		l1.2-1.8l1.9,1.3L888.1,429.4z M890.6,438.6v-0.2v-3.6c-2.2,0.7-3.7,1.8-4,2.8c0.3,0.9,1.6,1.2,2.6,1.2
		C889.7,438.8,890.2,438.7,890.6,438.6z M891.4,429.4l-1.9-1.4l1.2-1.8l1.9,1.3L891.4,429.4z"/>
	<path class="st10" d="M903.3,441.1c0,0.4-0.2,1.2-1.4,1.2c-1,0-2.4-0.2-3-1.4c-0.8,1.1-2.2,1.4-4,1.4l0.5-1.9c0.8,0,1.7,0,2.3-0.5
		c0.1-0.4,0.2-1,0.2-1.9v-11.7l1.7-0.4l0.2,0.1v11.8c0,2.4,1.1,2.6,2.7,2.6C903.1,440.5,903.3,440.7,903.3,441.1z"/>
	<path class="st10" d="M910.9,441.1c0,0.4-0.2,1.2-1.4,1.2c-1,0-2.4-0.3-3.5-1.2c-0.8,0.8-1.9,1.2-3.6,1.2h-0.5l0.5-1.9h0.5
		c0.9,0,1.6-0.1,2-0.5c0.4-0.5,0.7-1.6,1.2-3.6l1.8-0.5l0.2,0.1c-0.3,1.5-0.7,2.7-1.2,3.7c0.5,0.3,1.4,0.7,3,0.7
		C910.7,440.5,910.9,440.7,910.9,441.1z M905.7,444.2l2,1.3l-1.2,1.8l-2-1.4L905.7,444.2z"/>
	<path class="st10" d="M921.5,441.1c0,0.4-0.2,1.2-1.5,1.2h-1.5c-1.1,0-2.4-0.2-3.6-0.7c-1.2,0.5-2.8,0.7-4.3,0.7h-1.2l0.5-1.9h2.3
		c0.2,0,0.4,0,0.6,0c-0.8-0.7-1.4-1.6-1.4-2.6c0-2.1,1.8-4.3,3.8-4.3c1.7,0,3.2,1.9,3.2,3.7c0,1.4-0.5,2.4-1.3,3.2
		c0.5,0.1,1.1,0.1,1.7,0.1h1.7C921.3,440.5,921.5,440.7,921.5,441.1z M913.8,430.7l-1.9-1.4l1.2-1.8l1.9,1.3L913.8,430.7z
		 M915.1,439.8c1.1-0.6,1.8-1.4,1.8-2.4c0-1-1-2.1-1.9-2.1c-1,0-2,1.1-2,2.2C913,438.4,913.8,439.2,915.1,439.8z M917.2,430.7
		l-1.9-1.4l1.2-1.8l1.9,1.3L917.2,430.7z"/>
	<path class="st10" d="M920.5,440.5c0.8,0,1.7,0,2.3-0.5c0.1-0.4,0.2-1,0.2-1.9v-11.7l1.7-0.4l0.2,0.1v11.9c0,3.5-1.8,4.4-4.8,4.4
		L920.5,440.5z"/>
	<path class="st10" d="M927.9,442.4v-16l1.8-0.5l0.1,0.1l0,16.1l-1.7,0.4L927.9,442.4z"/>
	<path class="st10" d="M544,483.8c0-0.9,0.1-2,0.4-2.7l1.5-0.5l0.2,0.1c-0.2,0.7-0.2,1.5-0.2,2.2c0,2.8,1.3,4,4.2,4
		c2.1,0,3.6-0.6,4.6-1.8c0.6-1.5,0.4-2.9-1-6l1.7-1.2h0.1c0.6,1.4,1.3,3.6,1.3,4.7c0,3.8-2.7,6.2-7,6.2
		C546.2,488.8,544,486.9,544,483.8z M548.4,475.4l1.2-1.8l2,1.3l-1.2,1.8L548.4,475.4z"/>
	<path class="st10" d="M569.9,483.1c0,0.4-0.2,1.2-1.5,1.2h-1.8c-0.8,2.3-3,4.1-7,4.2l-1-1.4l0.1-0.2c3-0.1,5.2-1.1,6.1-2.7h-0.7
		c-3,0-4.4-1.2-4.4-3.1c0-2.2,1.6-4.7,3.5-4.7c2.2,0,3.6,2.7,3.6,5.7v0.1h1.9C569.7,482.5,569.9,482.7,569.9,483.1z M565.4,482.5
		v-0.1c0-2.1-1.1-3.8-2.2-3.8c-0.9,0-1.9,1-1.9,2.6c0,0.9,0.8,1.4,3.1,1.4H565.4z"/>
	<path class="st10" d="M580.1,483.1c0,0.7-0.6,1.2-1.4,1.2h-1.6c0.5,0.6,0.8,1.4,0.8,2.1c0,1.4-1.4,2.6-3.1,2.6
		c-2.8,0-4.7-1.8-4.8-4.7h-1.5l0.5-1.9h1.2c0.4-2,1.4-4.2,3-6.1l1.2-1l0.2,0c2.1,2.2,2.8,3.3,2.8,4.5c0,0.9-0.5,2-1.2,2.6h3.1
		C579.8,482.5,580.1,482.6,580.1,483.1z M573.1,484.2c-0.4,0-0.9,0.1-1.3,0.2c0.2,1.7,1.4,2.7,3.2,2.7c0.5,0,1-0.2,1.3-0.4
		C576.3,485.2,575.1,484.2,573.1,484.2z M571.9,482.5c2.1,0,3.5-1,3.5-2.5c0-0.7-0.3-1.4-1.2-2.4
		C572.9,479.3,572.2,480.9,571.9,482.5z"/>
	<path class="st10" d="M594.7,483.1c0,0.4-0.2,1.2-1.4,1.2c-3.2,0-4.7-0.8-5.5-2.3c-0.8,0.2-1.7,0.5-2.7,0.9
		c-3.1,1.1-4.5,1.4-6.4,1.4l0.5-1.9c1.6,0,2.9-0.2,5.4-1.1c1.5-0.5,2.7-0.8,3.8-1c-0.4-0.2-0.9-0.5-1.7-0.8c-1.9-1-2.9-1.4-4-1.4
		c-0.9,0-1.7,0.2-2.4,0.5l-0.1-0.1l0.7-1.8c0.6-0.3,1.4-0.5,2.1-0.5c1.1,0,2.2,0.5,4.2,1.6c2.4,1.2,3.6,1.7,4.7,1.8l-0.4,1.7
		c-0.6,0.1-1.2,0.1-1.8,0.3c0.7,0.7,1.9,0.9,4,0.9C594.5,482.5,594.7,482.7,594.7,483.1z M584.6,486.2l2,1.3l-1.2,1.8l-2-1.4
		L584.6,486.2z"/>
	<path class="st10" d="M602.8,483.1c0,0.4-0.2,1.2-1.4,1.2c-1.5,0-2.9-0.3-3.9-1.2c-0.8,0.8-1.8,1.2-3.3,1.2h-0.8l0.5-1.9h0.7
		c0.7,0,1.4-0.1,1.8-0.5c0.3-0.5,0.7-1.6,1.2-3.6l1.8-0.5l0.2,0.1c-0.3,1.5-0.7,2.7-1.1,3.7c0.6,0.3,1.5,0.7,3.4,0.7
		C602.6,482.5,602.8,482.7,602.8,483.1z M597.1,475.2l-1.9-1.4l1.2-1.8l1.9,1.3L597.1,475.2z M600.4,475.2l-1.9-1.4l1.2-1.8l1.9,1.3
		L600.4,475.2z"/>
	<path class="st10" d="M601.8,482.5h0.7c1.2,0,2.1-0.1,2.5-0.3c0.5-1.2-0.2-2.9-1-4.7l1.5-1.2h0.2c0.7,1.7,1.2,3.3,1.2,4.3
		c0,1-0.4,2.2-1.2,2.9c-0.6,0.6-1.6,0.8-3.8,0.8h-0.7L601.8,482.5z M601.6,488l1.2-1.8l1.9,1.3l-1.2,1.8L601.6,488z M605,488
		l1.2-1.8l1.9,1.3l-1.2,1.8L605,488z"/>
	<path class="st10" d="M614.9,482.7c0-1.5,0.8-3.1,2-4.5l1.2,0.6c-0.6,0.8-1.1,1.7-1.1,2.4c0,0.8,1.1,0.6,1.1,1.8
		c0,0.8-0.7,1.5-1.5,1.5C615.7,484.5,614.9,483.9,614.9,482.7z"/>
	<path class="st10" d="M630.9,483.1c0,0.4-0.2,1.2-1.5,1.2c-1.9,0-3.3-0.4-3.9-1.9c-0.6,0.1-1.2,0.2-1.8,0.2c-2.5,0-4-1.1-4-2.7
		c0-1.8,1.9-4,5.5-5.1v-1.2l1.7-0.8l0.2,0v7.4c0,1.8,0.9,2.1,2.8,2.1C630.8,482.5,630.9,482.7,630.9,483.1z M622.8,471.4l-1.9-1.4
		l1.2-1.8l1.9,1.3L622.8,471.4z M625.3,480.6v-0.2v-3.6c-2.2,0.7-3.7,1.8-4,2.8c0.3,0.9,1.6,1.2,2.6,1.2
		C624.4,480.8,624.8,480.7,625.3,480.6z M626.1,471.4l-1.9-1.4l1.2-1.8l1.9,1.3L626.1,471.4z"/>
	<path class="st10" d="M638.5,479.1c0,2.3-0.4,3.6-1.5,4.4c-1.3,0.7-3.1,0.8-7.6,0.8l0.5-1.9c4.6,0,6.1-0.2,6.8-0.5
		c0.1-0.3,0.1-0.8,0.2-1.5c-0.7,0.2-1.6,0.3-2.5,0.3c-2.1,0-3.1-1.1-3.1-2.8c0-2.2,1.6-4.6,3.5-4.6
		C637.1,473.4,638.5,476.2,638.5,479.1z M634.8,478.9c0.8,0,1.5-0.1,2.2-0.2c-0.1-1.7-1.1-3.5-2.2-3.5c-0.9,0-1.9,1.2-1.9,2.5
		C632.9,478.6,633.6,478.9,634.8,478.9z M635.2,470.8l-2-1.4l1.2-1.8l2,1.3L635.2,470.8z"/>
	<path class="st10" d="M649,483.1c0,0.4-0.2,1.2-1.4,1.2c-1,0-1.6-0.3-2-0.6c-0.7,2.2-3.3,4.2-7.2,4.9l-1-1.4l0.1-0.2
		c4.7-0.9,6.4-2.8,6.8-4.6c-0.4-1.1-1.1-2.6-1.8-4l1.4-1.5h0.2c0.6,1.7,1.2,3.1,1.4,3.7c0.6,1.6,1,1.9,2.5,1.9
		C648.8,482.5,649,482.7,649,483.1z"/>
	<path class="st10" d="M668.2,483.1c0,0.4-0.2,1.2-1.4,1.2c-1,0-2.3-0.2-3.3-1c-0.7,0.7-1.7,1-2.9,1c-1,0-1.9-0.2-2.7-0.6
		c-0.5,0.4-1.2,0.6-2.2,0.6c-1.7,0-3-0.5-3.7-1.1c-0.9,0.7-2.2,1.1-4.4,1.1l0.5-1.9c1.5,0,2.5-0.1,3-0.5c0.3-0.4,0.6-1.3,1-2.5
		l2-0.3l0.1,0.1c-0.4,1-0.7,1.9-1.1,2.6c0.7,0.3,1.9,0.6,2.8,0.6c0.4,0,0.9-0.1,1.2-0.3c0.3-0.4,0.7-1.4,1.1-2.8l1.9-0.3l0.1,0.1
		c-0.4,1.2-0.7,2.2-1.1,2.9c0.5,0.2,1.1,0.3,1.7,0.3c0.6,0,1.2-0.1,1.6-0.4c0.2-0.3,0.4-1,0.4-2.2c0-0.4,0-0.8-0.1-1.3l1.7-0.6
		l0.2,0.1c0,0.4,0,0.7,0,1.1c0,1.1-0.1,1.9-0.3,2.6c0.5,0.3,1.4,0.7,2.9,0.7C668.1,482.5,668.2,482.7,668.2,483.1z M656.9,475.1
		l-1.9-1.4l1.2-1.8l1.9,1.3L656.9,475.1z M658.3,472.3l-2-1.4l1.2-1.8l1.9,1.3L658.3,472.3z M658.3,473.7l1.2-1.8l1.9,1.3l-1.2,1.8
		L658.3,473.7z"/>
	<path class="st10" d="M681,483.1c0,0.7-0.6,1.2-1.5,1.2c-1,0-1.8-0.2-2.4-0.8c-0.4,0.7-0.9,1.1-1.9,1.1c-1.4,0-3.2-0.7-4.8-1.8
		c-1,1.3-1.7,1.5-3.6,1.5l0.5-1.9c1,0,1.3-0.3,2.1-1.5c0.9-1.5,2-4.4,4.3-4.4c1.8,0,2.6,1.8,3.5,3.7c0.9,1.8,1.3,2.1,2.8,2.1
		C680.7,482.5,681,482.7,681,483.1z M676,482.2c-0.1-0.1-0.1-0.3-0.2-0.4c-1-2.4-1.6-3.3-2.2-3.3c-0.9,0-1.7,1.5-2.4,2.9
		c1.2,0.8,2.7,1.4,3.5,1.4C675.4,482.8,675.8,482.6,676,482.2z"/>
	<path class="st10" d="M680,482.5c0.8,0,1.7,0,2.3-0.5c0.1-0.4,0.2-1,0.2-1.9v-11.7l1.7-0.4l0.2,0.1v11.9c0,3.5-1.8,4.4-4.8,4.4
		L680,482.5z"/>
	<path class="st10" d="M687.4,484.4v-16l1.8-0.5l0.1,0.1l0,16.1l-1.7,0.4L687.4,484.4z"/>
	<path class="st10" d="M708.5,483.1c0,0.4-0.2,1.2-1.5,1.2c-1.9,0-3.3-0.4-3.9-1.9c-0.6,0.1-1.2,0.2-1.8,0.2c-2.5,0-4-1.1-4-2.7
		c0-1.8,1.9-4,5.5-5.1v-1.2l1.7-0.8l0.2,0v7.4c0,1.8,0.9,2.1,2.8,2.1C708.4,482.5,708.5,482.7,708.5,483.1z M700.4,471.4l-1.9-1.4
		l1.2-1.8l1.9,1.3L700.4,471.4z M702.9,480.6v-0.2v-3.6c-2.2,0.7-3.7,1.8-4,2.8c0.3,0.9,1.6,1.2,2.6,1.2
		C702,480.8,702.4,480.7,702.9,480.6z M703.7,471.4l-1.9-1.4l1.2-1.8l1.9,1.3L703.7,471.4z"/>
	<path class="st10" d="M716.1,483.1c0,0.4-0.2,1.2-1.4,1.2c-1,0-2.4-0.3-3.5-1.2c-0.8,0.8-1.9,1.2-3.6,1.2h-0.5l0.5-1.9h0.5
		c0.9,0,1.6-0.1,2-0.5c0.4-0.5,0.7-1.6,1.2-3.6l1.8-0.5l0.2,0.1c-0.3,1.5-0.7,2.7-1.2,3.7c0.5,0.3,1.4,0.7,3,0.7
		C715.9,482.5,716.1,482.7,716.1,483.1z M711,486.2l2,1.3l-1.2,1.8l-2-1.4L711,486.2z"/>
	<path class="st10" d="M729.3,483.1c0,0.4-0.2,1.2-1.5,1.2c-2.4,0-4.5-0.7-6.1-1.9c-1.7,1.1-3.9,1.9-7,1.9l0.5-1.9
		c2,0,3.7-0.4,5.3-1.2c-0.9-1.1-1.9-2-3.3-2.7l-0.1-0.2l0.9-2c1.2-0.6,2.8-0.9,4.3-0.9c1.6,0,3.3,0.4,4.6,1.2l0.1,0.2l-0.5,1.8
		c-0.9,0.7-1.9,1.7-3.1,2.8c1.3,0.7,3.3,1.1,5.1,1.1C729.1,482.5,729.3,482.7,729.3,483.1z M721.8,480.3c1-0.7,1.9-1.6,2.9-2.6
		c-0.9-0.3-1.8-0.5-2.8-0.5c-1.1,0-2.2,0.2-3.1,0.5C719.8,478.2,720.7,479.2,721.8,480.3z"/>
	<path class="st10" d="M741.1,483.1c0,0.4-0.2,1.2-1.4,1.2c-1.2,0-2.3-0.5-3.4-1.8c-0.8,1.6-3,1.8-6.8,1.8h-1.6l0.5-1.9h2.5
		c3.3,0,4.1-0.5,4.4-1c-0.9-1.4-3.8-4.1-5.7-5.7l-0.1-0.1l0.5-2.4l7.9-4.5l0.2,0.1l-0.6,2.4l-6.1,3.4c2.5,2.4,3.9,3.7,5.3,5.3
		c1.5,1.7,2.3,2.5,3.6,2.5C740.9,482.5,741.1,482.7,741.1,483.1z"/>
	<path class="st10" d="M740.1,482.5c0.8,0,1.7,0,2.3-0.5c0.1-0.4,0.2-1,0.2-1.9v-11.7l1.7-0.4l0.2,0.1v11.9c0,3.5-1.8,4.4-4.8,4.4
		L740.1,482.5z"/>
	<path class="st10" d="M747.5,484.4v-16l1.8-0.5l0.1,0.1l0,16.1l-1.7,0.4L747.5,484.4z"/>
	<path class="st10" d="M757.8,484.1c0-1,0.2-2,0.4-2.7l1.5-0.5l0.2,0.1c-0.2,0.9-0.3,1.6-0.3,2.2c0,2.2,1.2,3.8,5.1,3.8
		c3.7,0,6.6-1,7-2.2c0-0.8-1.1-1.3-3.9-2l0.6-1.8c2.4,0.6,4.5,1.5,6.5,1.5c0.8,0,1,0.3,1,0.7c0,0.4-0.2,1.2-1.5,1.2h-0.9
		c-0.4,2.9-4,4.5-9.2,4.5C760,488.8,757.8,486.8,757.8,484.1z M760.9,492.4l1.2-1.8l1.9,1.3l-1.2,1.8L760.9,492.4z M764.3,492.4
		l1.2-1.8l1.9,1.3l-1.2,1.8L764.3,492.4z"/>
	<path class="st10" d="M786.2,482.1c0,1.5-1.1,2.3-3.4,2.3c-1.4,0-2.7-0.2-3.7-0.7c-0.9,0.4-2.1,0.6-3.6,0.6h-1.1l0.5-1.9h2.4
		c-0.6-0.7-1-1.6-1-2.6c0-1.3,0.7-2.7,1.8-3.3c-0.5-0.2-0.9-0.4-1.2-0.6l0.6-1.8l0.2,0C780.9,476.1,786.2,479,786.2,482.1z
		 M777.8,479.7c0,0.9,0.4,1.8,1.6,2.4c0.8-0.5,1.1-1.3,1.1-2.3c0-1.1-0.6-2.1-1.3-2.1C778.4,477.7,777.8,478.7,777.8,479.7z
		 M784.5,482.3c0-1-1.1-2.2-2.6-3.3c0,0.2,0,0.5,0,0.8c0,1-0.4,2-1.1,2.8c0.6,0.1,1.2,0.1,1.9,0.1
		C783.7,482.7,784.3,482.5,784.5,482.3z"/>
	<path class="st10" d="M810.1,483.1c0,0.4-0.2,1.2-1.5,1.2c-0.6,0-1.4-0.2-1.9-0.6c-0.5,3.4-3.3,5.1-6.9,5.1c-3.7,0-5.7-2.1-5.7-4.9
		c0-1,0.2-2.1,0.4-2.7l1.5-0.5l0.2,0.1c-0.2,0.8-0.2,1.6-0.2,2.2c0,2.4,0.9,4,4.2,4c2.7,0,3.9-1,4.6-1.8c0.8-1.8,0-3.6-1-6l1.7-1.2
		h0.1c0.3,0.8,0.7,2.3,1.2,3.2c0.5,1,1.2,1.4,2.2,1.4C809.8,482.5,810.1,482.7,810.1,483.1z M800.4,476.8l-2-1.4l1.2-1.8l2,1.3
		L800.4,476.8z"/>
	<path class="st10" d="M818.2,483.1c0,0.4-0.2,1.2-1.4,1.2c-1.5,0-2.9-0.3-3.9-1.2c-0.8,0.8-1.8,1.2-3.3,1.2h-0.8l0.5-1.9h0.7
		c0.7,0,1.4-0.1,1.8-0.5c0.3-0.5,0.7-1.6,1.2-3.6l1.8-0.5l0.2,0.1c-0.3,1.5-0.7,2.7-1.1,3.7c0.6,0.3,1.5,0.7,3.4,0.7
		C818,482.5,818.2,482.7,818.2,483.1z M810.7,486.2l1.9,1.3l-1.2,1.8l-1.9-1.4L810.7,486.2z M814.2,486.2l1.9,1.3l-1.2,1.8L813,488
		L814.2,486.2z"/>
	<path class="st10" d="M831,483.1c0,0.7-0.6,1.2-1.5,1.2c-1,0-1.8-0.2-2.4-0.8c-0.4,0.7-0.9,1.1-1.9,1.1c-1.4,0-3.2-0.7-4.8-1.8
		c-1,1.3-1.7,1.5-3.6,1.5l0.5-1.9c1,0,1.3-0.3,2.1-1.5c0.9-1.5,2-4.4,4.3-4.4c1.8,0,2.6,1.8,3.5,3.7c0.9,1.8,1.3,2.1,2.8,2.1
		C830.7,482.5,831,482.7,831,483.1z M826,482.2c-0.1-0.1-0.1-0.3-0.2-0.4c-1-2.4-1.6-3.3-2.2-3.3c-0.9,0-1.7,1.5-2.4,2.9
		c1.2,0.8,2.7,1.4,3.5,1.4C825.4,482.8,825.8,482.6,826,482.2z"/>
	<path class="st10" d="M838,483.1c0,0.4-0.2,1.2-1.4,1.2c-1,0-2.4-0.2-3-1.4c-0.8,1.1-2.2,1.4-4,1.4l0.5-1.9c0.8,0,1.7,0,2.3-0.5
		c0.1-0.4,0.2-1,0.2-1.9v-11.7l1.7-0.4l0.2,0.1v11.8c0,2.4,1.1,2.6,2.7,2.6C837.8,482.5,838,482.7,838,483.1z"/>
	<path class="st10" d="M857.2,483.1c0,0.4-0.2,1.2-1.4,1.2c-1,0-2.3-0.2-3.3-1c-0.7,0.7-1.7,1-2.9,1c-1,0-1.9-0.2-2.7-0.6
		c-0.5,0.4-1.2,0.6-2.2,0.6c-1.7,0-3-0.5-3.7-1.1c-0.9,0.7-2.2,1.1-4.4,1.1l0.5-1.9c1.5,0,2.5-0.1,3-0.5c0.3-0.4,0.6-1.3,1-2.5
		l2-0.3l0.1,0.1c-0.4,1-0.7,1.9-1.1,2.6c0.7,0.3,1.9,0.6,2.8,0.6c0.4,0,0.9-0.1,1.2-0.3c0.3-0.4,0.7-1.4,1.1-2.8l1.9-0.3l0.1,0.1
		c-0.4,1.2-0.7,2.2-1.1,2.9c0.5,0.2,1.1,0.3,1.7,0.3c0.6,0,1.2-0.1,1.6-0.4c0.2-0.3,0.4-1,0.4-2.2c0-0.4,0-0.8-0.1-1.3l1.7-0.6
		l0.2,0.1c0,0.4,0,0.7,0,1.1c0,1.1-0.1,1.9-0.3,2.6c0.5,0.3,1.4,0.7,2.9,0.7C857,482.5,857.2,482.7,857.2,483.1z"/>
	<path class="st10" d="M870,483.1c0,0.7-0.6,1.2-1.5,1.2c-1,0-1.8-0.2-2.4-0.8c-0.4,0.7-0.9,1.1-1.9,1.1c-1.4,0-3.2-0.7-4.8-1.8
		c-1,1.3-1.7,1.5-3.6,1.5l0.5-1.9c1,0,1.3-0.3,2.1-1.5c0.9-1.5,2-4.4,4.3-4.4c1.8,0,2.6,1.8,3.5,3.7c0.9,1.8,1.3,2.1,2.8,2.1
		C869.7,482.5,870,482.7,870,483.1z M865,482.2c-0.1-0.1-0.1-0.3-0.2-0.4c-1-2.4-1.6-3.3-2.2-3.3c-0.9,0-1.7,1.5-2.4,2.9
		c1.2,0.8,2.7,1.4,3.5,1.4C864.4,482.8,864.8,482.6,865,482.2z"/>
	<path class="st10" d="M869,482.5c0.8,0,1.7,0,2.3-0.5c0.1-0.4,0.2-1,0.2-1.9v-11.7l1.7-0.4l0.2,0.1v11.9c0,3.5-1.8,4.4-4.8,4.4
		L869,482.5z"/>
	<path class="st10" d="M876.4,484.4v-16l1.8-0.5l0.1,0.1l0,16.1l-1.7,0.4L876.4,484.4z"/>
	<path class="st10" d="M897.5,483.1c0,0.4-0.2,1.2-1.5,1.2c-1.9,0-3.3-0.4-3.9-1.9c-0.6,0.1-1.2,0.2-1.8,0.2c-2.5,0-4-1.1-4-2.7
		c0-1.8,1.9-4,5.5-5.1v-1.2l1.7-0.8l0.2,0v7.4c0,1.8,0.9,2.1,2.8,2.1C897.4,482.5,897.5,482.7,897.5,483.1z M889.3,471.4l-1.9-1.4
		l1.2-1.8l1.9,1.3L889.3,471.4z M891.9,480.6v-0.2v-3.6c-2.2,0.7-3.7,1.8-4,2.8c0.3,0.9,1.6,1.2,2.6,1.2
		C890.9,480.8,891.4,480.7,891.9,480.6z M892.7,471.4l-1.9-1.4l1.2-1.8l1.9,1.3L892.7,471.4z"/>
	<path class="st10" d="M904.5,483.1c0,0.4-0.2,1.2-1.4,1.2c-1,0-2.4-0.2-3-1.4c-0.8,1.1-2.2,1.4-4,1.4l0.5-1.9c0.8,0,1.7,0,2.3-0.5
		c0.1-0.4,0.2-1,0.2-1.9v-11.7l1.7-0.4l0.2,0.1v11.8c0,2.4,1.1,2.6,2.7,2.6C904.3,482.5,904.5,482.7,904.5,483.1z"/>
	<path class="st10" d="M912.1,483.1c0,0.4-0.2,1.2-1.4,1.2c-1,0-2.4-0.3-3.5-1.2c-0.8,0.8-1.9,1.2-3.6,1.2h-0.5l0.5-1.9h0.5
		c0.9,0,1.6-0.1,2-0.5c0.4-0.5,0.7-1.6,1.2-3.6l1.8-0.5l0.2,0.1c-0.3,1.5-0.7,2.7-1.2,3.7c0.5,0.3,1.4,0.7,3,0.7
		C911.9,482.5,912.1,482.7,912.1,483.1z M906.9,486.2l2,1.3l-1.2,1.8l-2-1.4L906.9,486.2z"/>
	<path class="st10" d="M919.7,479.1c0,2.3-0.4,3.6-1.5,4.4c-1.3,0.7-3.1,0.8-7.6,0.8l0.5-1.9c4.6,0,6.1-0.2,6.8-0.5
		c0.1-0.3,0.1-0.8,0.2-1.5c-0.7,0.2-1.6,0.3-2.5,0.3c-2.1,0-3.1-1.1-3.1-2.8c0-2.2,1.6-4.6,3.5-4.6
		C918.3,473.4,919.7,476.2,919.7,479.1z M914.6,470.8l-1.9-1.4l1.2-1.8l1.9,1.3L914.6,470.8z M915.9,478.9c0.8,0,1.5-0.1,2.2-0.2
		c-0.1-1.7-1.1-3.5-2.2-3.5c-0.9,0-1.9,1.2-1.9,2.5C914,478.6,914.7,478.9,915.9,478.9z M918,470.8l-1.9-1.4l1.2-1.8l1.9,1.3
		L918,470.8z"/>
	<path class="st10" d="M929.9,482.3c0,3.1-2.3,6.1-7.3,6.2l-1-1.4l0.1-0.2c3.4-0.1,5.7-1.3,6.5-3.3c-0.7,0.1-1.4,0.3-2.3,0.3
		c-2.1,0-3.1-1.1-3.1-2.8c0-2.2,1.6-4.6,3.5-4.6C928.5,476.6,929.9,479.4,929.9,482.3z M926.2,482.1c0.8,0,1.5-0.1,2.2-0.2
		c-0.1-1.7-1.1-3.5-2.2-3.5c-0.9,0-1.9,1.2-1.9,2.5C924.3,481.8,925,482.1,926.2,482.1z"/>
	<path class="st10" d="M750.1,525.1c0-0.8,0.7-1.5,1.5-1.5c0.8,0,1.5,0.7,1.5,1.5c0,0.8-0.7,1.5-1.5,1.5
		C750.8,526.6,750.1,525.9,750.1,525.1z"/>
	<path class="st10" d="M769.1,525.1c0,0.7-0.6,1.2-1.5,1.2c-1.1,0-1.9-0.3-2.5-0.9c-0.6,0.8-1.2,1.2-1.9,1.2c-1.7,0-3.5-1.2-5.4-3.5
		c-0.3,0.3-0.6,0.7-0.8,1c-0.3,1.1,0,5.4,0.8,10.2l-1.6,0.8l-0.2-0.1c-0.6-4.2-0.9-7-0.9-8.4c0-2,0.4-3.1,1.6-4.5
		c1.6-1.9,3.8-3.4,5.2-3.4c1.3,0,2.1,0.8,3.5,3.7c0.9,1.8,1.3,2.1,2.8,2.1C768.8,524.5,769.1,524.6,769.1,525.1z M764.1,524.1
		c-0.1-0.1-0.1-0.2-0.2-0.3c-1.1-2.4-1.8-3.3-2.4-3.3c-0.6,0-1.6,0.6-2.6,1.4c1.4,1.8,2.9,2.9,3.9,2.9
		C763.3,524.8,763.7,524.5,764.1,524.1z"/>
	<path class="st10" d="M779.3,525.1c0,0.7-0.6,1.2-1.4,1.2h-1.6c0.5,0.6,0.8,1.4,0.8,2.1c0,1.4-1.4,2.6-3.1,2.6
		c-2.8,0-4.7-1.8-4.8-4.7h-1.5l0.5-1.9h1.2c0.4-2,1.4-4.2,3-6.1l1.2-1l0.2,0c2.1,2.2,2.8,3.3,2.8,4.5c0,0.9-0.5,2-1.2,2.6h3.1
		C779,524.5,779.3,524.6,779.3,525.1z M772.3,526.2c-0.4,0-0.9,0.1-1.3,0.2c0.2,1.7,1.4,2.7,3.2,2.7c0.5,0,1-0.2,1.3-0.4
		C775.5,527.2,774.3,526.2,772.3,526.2z M771.1,524.5c2.1,0,3.5-1,3.5-2.5c0-0.7-0.3-1.4-1.2-2.4
		C772.1,521.3,771.4,522.9,771.1,524.5z"/>
	<path class="st10" d="M778.4,524.5h0.7c1.2,0,2.1-0.1,2.5-0.3c0.5-1.2-0.2-2.9-1-4.7l1.5-1.2h0.2c0.7,1.7,1.2,3.3,1.2,4.3
		c0,1-0.4,2.2-1.2,2.9c-0.6,0.6-1.6,0.8-3.8,0.8h-0.7L778.4,524.5z M778.4,514.2l1.2-1.8l1.9,1.3l-1.2,1.8L778.4,514.2z
		 M781.7,514.2l1.2-1.8l1.9,1.3l-1.2,1.8L781.7,514.2z"/>
	<path class="st10" d="M799.1,525.1c0,0.4-0.2,1.2-1.5,1.2c-2.1,0-3.7-0.6-4.1-2.9c-1.8,2.2-4.4,3-7.2,3l-0.8-1.7l0.1-0.1
		c2.3,0,4.3-0.5,5.9-1.6c-1.3-2.5-3.4-4.6-6.1-7.1l0.7-1.9l0.2-0.1c3,2.7,5.4,6.1,6.4,8.1c0.3-0.3,0.5-0.6,0.7-1v-10.7l1.7-0.4
		l0.1,0.1v12.1c0,1.9,0.8,2.3,2.8,2.3C798.9,524.5,799.1,524.7,799.1,525.1z"/>
	<path class="st10" d="M816.1,522.1c0,1.4-0.6,2.4-1.4,3.1c-1.1,0.9-2.9,1.1-6.2,1.1h-2.7c-2.4,0-3.8-0.1-5.3-0.7
		c-0.7,0.5-1.6,0.7-2.7,0.7l0.5-1.9c0.7,0,1.5-0.1,1.8-0.3c0.3-0.4,0.7-1.4,1.1-2.7l1.9-0.3l0.1,0.1c-0.4,1.2-0.8,2.1-1.3,2.9
		c0.5,0.2,1.2,0.3,2.1,0.3c3.9-3.8,6.5-6.1,8.7-6.1C814.5,518.3,816.1,520.2,816.1,522.1z M814.4,522.4c0-1-0.9-2.3-2-2.3
		c-1.5,0-3.6,1.9-6.1,4.3h2.1c3.5,0,4.8-0.1,5.6-0.5C814.2,523.6,814.4,523,814.4,522.4z"/>
	<path class="st10" d="M831.5,525.9c-2.7,0.3-4.5,0.4-7.6,0.6l-0.1-1.7c0.7,0,1.3,0,2-0.1c-0.5-0.6-0.7-1.5-0.7-2.3
		c0-1.8,1.4-3.2,3.3-3.2c0.8,0,1.8,0.2,2.5,0.6l-0.5,1.7c-0.6-0.2-1.3-0.4-1.9-0.4c-1,0-1.6,0.6-1.6,1.6c0,0.7,0.4,1.4,0.9,1.9
		c1.4-0.1,2.6-0.2,3.6-0.3L831.5,525.9z"/>
	<path class="st10" d="M834.2,526.4v-16l1.8-0.5l0.1,0.1l0,16.1l-1.7,0.4L834.2,526.4z"/>
	<path class="st10" d="M838.5,526.2l0.3-1.8l0.1-0.1c0.7,0.2,2.1,0.2,2.6,0.2c1.6,0,3.5-0.3,4-0.9c-0.3-1.9-1.9-4-3.7-5.8l1-1.8h0.2
		c2.4,2.6,4.1,5,4.1,6.9c0,2.4-2,3.5-5.7,3.5C840.8,526.4,839.4,526.4,838.5,526.2z"/>
	<path class="st10" d="M852.9,508.1c-1.2,0.1-2.7,0.3-4.6,0.3l-0.1-1.3c0.3,0,0.7,0,1.1,0c-0.3-0.4-0.4-0.9-0.4-1.4
		c0-1.2,0.7-1.9,2-1.9c0.5,0,1.1,0.1,1.7,0.3l-0.3,1.2c-0.5-0.1-0.8-0.2-1.1-0.2c-0.6,0-0.9,0.4-0.9,0.9c0,0.4,0.2,0.7,0.5,1
		c0.8,0,1.5-0.1,2.2-0.2L852.9,508.1z M851.5,509.9l0.1,0.1l0,16.1l-1.7,0.4l-0.1-0.1v-16L851.5,509.9z"/>
	<path class="st10" d="M871.5,525.1c0,0.4-0.2,1.2-1.5,1.2c-1.1,0-1.9-0.3-2.5-1.3c-0.9,0.9-2.6,1.4-4.9,1.4c-0.5,0-1.9-0.1-2.8-0.3
		l0.3-1.8l0.1-0.1c0.8,0.2,2.1,0.2,2.6,0.2c1.5,0,3.1-0.3,3.9-0.9l-0.1-0.1c-0.4-0.8-2.2-4.3-3.2-6l1.4-1.5h0.2
		c0.7,1.5,2.4,5.4,2.8,6c0.9,1.9,1.4,2.3,2.7,2.3C871.3,524.5,871.5,524.7,871.5,525.1z"/>
	<path class="st10" d="M879.1,525.1c0,0.4-0.2,1.2-1.4,1.2c-1,0-2.4-0.3-3.5-1.2c-0.8,0.8-1.9,1.2-3.6,1.2h-0.5l0.5-1.9h0.5
		c0.9,0,1.6-0.1,2-0.5c0.4-0.5,0.7-1.6,1.2-3.6l1.8-0.5l0.2,0.1c-0.3,1.5-0.7,2.7-1.2,3.7c0.5,0.3,1.4,0.7,3,0.7
		C878.9,524.5,879.1,524.7,879.1,525.1z M875.5,517.2l-2-1.4l1.2-1.8l2,1.3L875.5,517.2z"/>
	<path class="st10" d="M889,524l-0.6,1.7c-1.9,0.4-4.7,0.6-10.8,0.6l0.5-1.9c0.9,0,1.8,0,2.7,0c-0.6-0.9-1-2-1-3.1c0-2.5,2-4,4.6-4
		c1.2,0,2.4,0.4,3.2,0.8l-0.2,1.7l-0.1,0c-0.9-0.4-1.9-0.6-2.9-0.6c-1.6,0-2.6,0.8-2.6,2.1c0,0.9,0.5,2.1,1.4,3
		c2.1-0.1,3.9-0.2,5.6-0.4L889,524z"/>
	<path class="st10" d="M897.5,522.4v-12l1.7-0.4l0.1,0.1v12.1c0,1.9,0.8,2.3,2.8,2.3c0.8,0,1,0.3,1,0.6c0,0.4-0.2,1.2-1.5,1.2
		C899.3,526.3,897.5,525.5,897.5,522.4z"/>
	<path class="st10" d="M913.4,525.1c0,0.7-0.6,1.2-1.4,1.2h-1.6c0.5,0.6,0.8,1.4,0.8,2.1c0,1.4-1.4,2.6-3.1,2.6
		c-2.8,0-4.7-1.8-4.8-4.7h-1.5l0.5-1.9h1.2c0.4-2,1.4-4.2,3-6.1l1.2-1l0.2,0c2.1,2.2,2.8,3.3,2.8,4.5c0,0.9-0.5,2-1.2,2.6h3.1
		C913.1,524.5,913.4,524.6,913.4,525.1z M906.4,526.2c-0.4,0-0.9,0.1-1.3,0.2c0.2,1.7,1.4,2.7,3.2,2.7c0.5,0,1-0.2,1.3-0.4
		C909.6,527.2,908.3,526.2,906.4,526.2z M905.2,524.5c2.1,0,3.5-1,3.5-2.5c0-0.7-0.3-1.4-1.2-2.4
		C906.2,521.3,905.4,522.9,905.2,524.5z"/>
	<path class="st10" d="M921.5,525.1c0,0.4-0.2,1.2-1.4,1.2c-1.5,0-2.9-0.3-3.9-1.2c-0.8,0.8-1.8,1.2-3.3,1.2H912l0.5-1.9h0.7
		c0.7,0,1.4-0.1,1.8-0.5c0.3-0.5,0.7-1.6,1.2-3.6l1.8-0.5l0.2,0.1c-0.3,1.5-0.7,2.7-1.1,3.7c0.6,0.3,1.5,0.7,3.4,0.7
		C921.3,524.5,921.5,524.7,921.5,525.1z M914,528.2l1.9,1.3l-1.2,1.8l-1.9-1.4L914,528.2z M917.5,528.2l1.9,1.3l-1.2,1.8l-1.9-1.4
		L917.5,528.2z"/>
	<path class="st10" d="M920.5,524.5c0.8,0,1.7,0,2.3-0.5c0.1-0.4,0.2-1,0.2-1.9v-11.7l1.7-0.4l0.2,0.1v11.9c0,3.5-1.8,4.4-4.8,4.4
		L920.5,524.5z"/>
	<path class="st10" d="M931.2,532.1c-1.2,0.1-2.7,0.3-4.6,0.3l-0.1-1.3c0.3,0,0.7,0,1.1,0c-0.3-0.4-0.4-0.9-0.4-1.4
		c0-1.2,0.7-1.9,2-1.9c0.5,0,1.1,0.1,1.7,0.3l-0.3,1.3c-0.5-0.2-0.8-0.3-1.1-0.3c-0.6,0-0.9,0.4-0.9,0.9c0,0.4,0.2,0.7,0.5,1
		c0.8,0,1.5-0.1,2.2-0.2L931.2,532.1z M928.1,526.4l-0.1-0.1v-16l1.8-0.5l0.1,0.1l0,16.1L928.1,526.4z"/>
</g>
<path class="st11" d="M1024.2,43.7h-11.1V37c0-1.7-1.1-3-2.6-3.5c1.4-1.1,2.3-2.9,2.3-4.8c0-3.4-2.8-6.2-6.2-6.2
	c-1,0-1.9,0.2-2.8,0.7c0.4-1.1,0.5-2.2,0.5-3.4c0-6.2-5-11.2-11.2-11.2c-6.2,0-11.2,5-11.2,11.2c0,1.2,0.2,2.4,0.5,3.4
	c-0.8-0.4-1.8-0.7-2.8-0.7c-3.4,0-6.2,2.8-6.2,6.2c0,1.9,0.9,3.6,2.3,4.8c-1.5,0.4-2.6,1.8-2.6,3.5v6.6h-10h-10V37
	c0-1.7-1.1-3-2.6-3.5c1.4-1.1,2.3-2.9,2.3-4.8c0-3.4-2.8-6.2-6.2-6.2c-1,0-1.9,0.2-2.8,0.7c0.4-1.1,0.5-2.2,0.5-3.4
	c0-6.2-5-11.2-11.2-11.2c-6.2,0-11.2,5-11.2,11.2c0,1.2,0.2,2.4,0.5,3.4c-0.8-0.4-1.8-0.7-2.8-0.7c-3.4,0-6.2,2.8-6.2,6.2
	c0,1.9,0.9,3.6,2.3,4.8c-1.5,0.4-2.6,1.8-2.6,3.5v6.6h-10h-10V37c0-1.7-1.1-3-2.6-3.5c1.4-1.1,2.3-2.9,2.3-4.8
	c0-3.4-2.8-6.2-6.2-6.2c-1,0-1.9,0.2-2.8,0.7c0.4-1.1,0.5-2.2,0.5-3.4c0-6.2-5-11.2-11.2-11.2c-6.2,0-11.2,5-11.2,11.2
	c0,1.2,0.2,2.4,0.5,3.4c-0.8-0.4-1.8-0.7-2.8-0.7c-3.4,0-6.2,2.8-6.2,6.2c0,1.9,0.9,3.6,2.3,4.8c-1.5,0.4-2.6,1.8-2.6,3.5v6.6h-10
	h-10V37c0-1.7-1.1-3-2.6-3.5c1.4-1.1,2.3-2.9,2.3-4.8c0-3.4-2.8-6.2-6.2-6.2c-1,0-1.9,0.2-2.8,0.7c0.4-1.1,0.5-2.2,0.5-3.4
	c0-6.2-5-11.2-11.2-11.2c-6.2,0-11.2,5-11.2,11.2c0,1.2,0.2,2.4,0.5,3.4c-0.8-0.4-1.8-0.7-2.8-0.7c-3.4,0-6.2,2.8-6.2,6.2
	c0,1.9,0.9,3.6,2.3,4.8c-1.5,0.4-2.6,1.8-2.6,3.5v6.6h-10h-10V37c0-1.7-1.1-3-2.6-3.5c1.4-1.1,2.3-2.9,2.3-4.8
	c0-3.4-2.8-6.2-6.2-6.2c-1,0-1.9,0.2-2.8,0.7c0.4-1.1,0.5-2.2,0.5-3.4c0-6.2-5-11.2-11.2-11.2c-6.2,0-11.2,5-11.2,11.2
	c0,1.2,0.2,2.4,0.5,3.4c-0.8-0.4-1.8-0.7-2.8-0.7c-3.4,0-6.2,2.8-6.2,6.2c0,1.9,0.9,3.6,2.3,4.8c-1.5,0.4-2.6,1.8-2.6,3.5v6.6h-10
	h-10V37c0-1.7-1.1-3-2.6-3.5c1.4-1.1,2.3-2.9,2.3-4.8c0-3.4-2.8-6.2-6.2-6.2c-1,0-1.9,0.2-2.8,0.7c0.4-1.1,0.5-2.2,0.5-3.4
	c0-6.2-5-11.2-11.2-11.2c-6.2,0-11.2,5-11.2,11.2c0,1.2,0.2,2.4,0.5,3.4c-0.8-0.4-1.8-0.7-2.8-0.7c-3.4,0-6.2,2.8-6.2,6.2
	c0,1.9,0.9,3.6,2.3,4.8c-1.5,0.4-2.6,1.8-2.6,3.5v6.6h-10h-10V37c0-1.7-1.1-3-2.6-3.5c1.4-1.1,2.3-2.9,2.3-4.8
	c0-3.4-2.8-6.2-6.2-6.2c-1,0-1.9,0.2-2.8,0.7c0.4-1.1,0.5-2.2,0.5-3.4c0-6.2-5-11.2-11.2-11.2c-6.2,0-11.2,5-11.2,11.2
	c0,1.2,0.2,2.4,0.5,3.4c-0.8-0.4-1.8-0.7-2.8-0.7c-3.4,0-6.2,2.8-6.2,6.2c0,1.9,0.9,3.6,2.3,4.8c-1.5,0.4-2.6,1.8-2.6,3.5v6.6h-10
	h-10V37c0-1.7-1.1-3-2.6-3.5c1.4-1.1,2.3-2.9,2.3-4.8c0-3.4-2.8-6.2-6.2-6.2c-1,0-1.9,0.2-2.8,0.7c0.4-1.1,0.5-2.2,0.5-3.4
	c0-6.2-5-11.2-11.2-11.2c-6.2,0-11.2,5-11.2,11.2c0,1.2,0.2,2.4,0.5,3.4c-0.8-0.4-1.8-0.7-2.8-0.7c-3.4,0-6.2,2.8-6.2,6.2
	c0,1.9,0.9,3.6,2.3,4.8c-1.5,0.4-2.6,1.8-2.6,3.5v6.6h-10h-10V37c0-1.7-1.1-3-2.6-3.5c1.4-1.1,2.3-2.9,2.3-4.8
	c0-3.4-2.8-6.2-6.2-6.2c-1,0-1.9,0.2-2.8,0.7c0.4-1.1,0.5-2.2,0.5-3.4c0-6.2-5-11.2-11.2-11.2c-6.2,0-11.2,5-11.2,11.2
	c0,1.2,0.2,2.4,0.5,3.4c-0.8-0.4-1.8-0.7-2.8-0.7c-3.4,0-6.2,2.8-6.2,6.2c0,1.9,0.9,3.6,2.3,4.8c-1.5,0.4-2.6,1.8-2.6,3.5v6.6h-10
	h-10V37c0-1.7-1.1-3-2.6-3.5c1.4-1.1,2.3-2.9,2.3-4.8c0-3.4-2.8-6.2-6.2-6.2c-1,0-1.9,0.2-2.8,0.7c0.4-1.1,0.5-2.2,0.5-3.4
	c0-6.2-5-11.2-11.2-11.2c-6.2,0-11.2,5-11.2,11.2c0,1.2,0.2,2.4,0.5,3.4c-0.8-0.4-1.8-0.7-2.8-0.7c-3.4,0-6.2,2.8-6.2,6.2
	c0,1.9,0.9,3.6,2.3,4.8c-1.5,0.4-2.6,1.8-2.6,3.5v6.6h-10h-10V37c0-1.7-1.1-3-2.6-3.5c1.4-1.1,2.3-2.9,2.3-4.8
	c0-3.4-2.8-6.2-6.2-6.2c-1,0-1.9,0.2-2.8,0.7c0.4-1.1,0.5-2.2,0.5-3.4c0-6.2-5-11.2-11.2-11.2c-6.2,0-11.2,5-11.2,11.2
	c0,1.2,0.2,2.4,0.5,3.4c-0.8-0.4-1.8-0.7-2.8-0.7c-3.4,0-6.2,2.8-6.2,6.2c0,1.9,0.9,3.6,2.3,4.8c-1.5,0.4-2.6,1.8-2.6,3.5v6.6h-10
	h-10V37c0-1.7-1.1-3-2.6-3.5c1.4-1.1,2.3-2.9,2.3-4.8c0-3.4-2.8-6.2-6.2-6.2c-1,0-1.9,0.2-2.8,0.7c0.4-1.1,0.5-2.2,0.5-3.4
	c0-6.2-5-11.2-11.2-11.2c-6.2,0-11.2,5-11.2,11.2c0,1.2,0.2,2.4,0.5,3.4c-0.8-0.4-1.8-0.7-2.8-0.7c-3.4,0-6.2,2.8-6.2,6.2
	c0,1.9,0.9,3.6,2.3,4.8c-1.5,0.4-2.6,1.8-2.6,3.5v6.6h-10h-10V37c0-1.7-1.1-3-2.6-3.5c1.4-1.1,2.3-2.9,2.3-4.8
	c0-3.4-2.8-6.2-6.2-6.2c-1,0-1.9,0.2-2.8,0.7c0.4-1.1,0.5-2.2,0.5-3.4c0-6.2-5-11.2-11.2-11.2c-6.2,0-11.2,5-11.2,11.2
	c0,1.2,0.2,2.4,0.5,3.4c-0.8-0.4-1.8-0.7-2.8-0.7c-3.4,0-6.2,2.8-6.2,6.2c0,1.9,0.9,3.6,2.3,4.8c-1.5,0.4-2.6,1.8-2.6,3.5v6.6h-10
	h-10V37c0-1.7-1.1-3-2.6-3.5c1.4-1.1,2.3-2.9,2.3-4.8c0-3.4-2.8-6.2-6.2-6.2c-1,0-1.9,0.2-2.8,0.7c0.4-1.1,0.5-2.2,0.5-3.4
	c0-6.2-5-11.2-11.2-11.2c-6.2,0-11.2,5-11.2,11.2c0,1.2,0.2,2.4,0.5,3.4c-0.8-0.4-1.8-0.7-2.8-0.7c-3.4,0-6.2,2.8-6.2,6.2
	c0,1.9,0.9,3.6,2.3,4.8c-1.5,0.4-2.6,1.8-2.6,3.5v6.6h-10h-10V37c0-1.7-1.1-3-2.6-3.5c1.4-1.1,2.3-2.9,2.3-4.8
	c0-3.4-2.8-6.2-6.2-6.2c-1,0-1.9,0.2-2.8,0.7c0.4-1.1,0.5-2.2,0.5-3.4c0-6.2-5-11.2-11.2-11.2c-6.2,0-11.2,5-11.2,11.2
	c0,1.2,0.2,2.4,0.5,3.4c-0.8-0.4-1.8-0.7-2.8-0.7c-3.4,0-6.2,2.8-6.2,6.2c0,1.9,0.9,3.6,2.3,4.8c-1.5,0.4-2.6,1.8-2.6,3.5v6.6h-10
	h-10V37c0-1.7-1.1-3-2.6-3.5c1.4-1.1,2.3-2.9,2.3-4.8c0-3.4-2.8-6.2-6.2-6.2c-1,0-1.9,0.2-2.8,0.7c0.4-1.1,0.5-2.2,0.5-3.4
	c0-6.2-5-11.2-11.2-11.2c-6.2,0-11.2,5-11.2,11.2c0,1.2,0.2,2.4,0.5,3.4c-0.8-0.4-1.8-0.7-2.8-0.7c-3.4,0-6.2,2.8-6.2,6.2
	c0,1.9,0.9,3.6,2.3,4.8c-1.5,0.4-2.6,1.8-2.6,3.5v6.6h-10h-10V37c0-1.7-1.1-3-2.6-3.5c1.4-1.1,2.3-2.9,2.3-4.8
	c0-3.4-2.8-6.2-6.2-6.2c-1,0-1.9,0.2-2.8,0.7c0.4-1.1,0.5-2.2,0.5-3.4c0-6.2-5-11.2-11.2-11.2c-6.2,0-11.2,5-11.2,11.2
	c0,1.2,0.2,2.4,0.5,3.4c-0.8-0.4-1.8-0.7-2.8-0.7c-3.4,0-6.2,2.8-6.2,6.2c0,1.9,0.9,3.6,2.3,4.8c-1.5,0.4-2.6,1.8-2.6,3.5v6.6H0.2
	V-0.1h1024V43.7z"/>
<g id="Layer_x0020_1_20_">
	<path class="st12" d="M35.1,721.2l43.9-1.7c0.3,0,0.6,0,1,0c0.7,0.1,1.3,0.4,1.8,0.9c0.5,0.5,0.9,1,0.9,1.7c0,0.2,0,0.5,0,0.8
		l-4.6,20.6c-0.2,0.9-0.6,1.7-1.3,2.2c-0.6,0.5-1.4,0.9-2.4,0.9l-35.3-1.2c-1,0-1.7-0.3-2.4-0.9l0,0c-0.6-0.6-1.1-1.4-1.3-2.2
		l-4.1-17.7c0-0.1,0-0.1,0-0.2c-0.1-0.8,0.3-1.5,0.9-2.1c0.6-0.5,1.4-0.8,2.3-1C34.8,721.2,35,721.2,35.1,721.2z M77.1,722.2
		l-42,1.5c-0.1,0-0.2,0-0.3,0c-0.6,0.1-1.1,0.3-1.5,0.7c-0.3,0.3-0.6,0.7-0.5,1.1c0,0,0,0.1,0,0.1l3.8,16.5c0.1,0.6,0.4,1.2,0.9,1.6
		c0.4,0.3,0.8,0.5,1.4,0.5l34,1.2c0.6,0,1-0.2,1.4-0.5c0.4-0.4,0.7-0.9,0.9-1.6l4.3-19.3c0-0.1,0-0.3,0-0.4c0-0.3-0.2-0.7-0.5-0.9
		c-0.3-0.3-0.7-0.5-1.1-0.5C77.4,722.2,77.3,722.2,77.1,722.2z"/>
	<path class="st12" d="M42.1,725.8l12.9-1.4c0.1,0,0.3,0,0.4,0c0.3,0.1,0.6,0.2,0.8,0.4c0.2,0.2,0.4,0.5,0.4,0.8c0,0.1,0,0.2,0,0.3
		l-2.1,9.6c-0.1,0.4-0.3,0.8-0.6,1c-0.3,0.3-0.6,0.4-1.1,0.4H44c-0.4,0-0.8-0.2-1.1-0.4h0c-0.3-0.3-0.5-0.6-0.6-1l-1.9-8.2
		c0,0,0-0.1,0-0.1c-0.1-0.4,0.1-0.7,0.4-1c0.3-0.2,0.7-0.4,1-0.5C42,725.8,42.1,725.8,42.1,725.8z M54.1,725.8l-12,1.3
		c0,0-0.1,0-0.1,0c-0.3,0-0.5,0.2-0.7,0.3c-0.2,0.1-0.3,0.3-0.2,0.5c0,0,0,0,0,0l1.8,7.6c0.1,0.3,0.2,0.5,0.4,0.7
		c0.2,0.1,0.4,0.2,0.6,0.2h8.3c0.3,0,0.5-0.1,0.6-0.2c0.2-0.2,0.3-0.4,0.4-0.7l2-8.9c0-0.1,0-0.1,0-0.2c0-0.2-0.1-0.3-0.2-0.4
		c-0.1-0.1-0.3-0.2-0.5-0.2C54.3,725.8,54.2,725.8,54.1,725.8z"/>
	<g id="_1849662416_20_">
		<path class="st13" d="M60.6,738l0.4-0.7l-0.7-0.4l0.4-0.7l-1.5-0.8l-0.9,1.5l0,0c0.3,0.1,0.5,0.3,0.7,0.4l-0.4,0.7l0.7,0.4
			l-0.8,1.5l0.7,0.4c-0.2,0.5-0.6,1.1-0.9,1.5l0,0c0.2,0.1,0.4,0.2,0.5,0.3c0.3,0.1,0.2,0.1,0,0.5c-0.2,0.4-0.4,0.8-0.7,1.1l0.7,0.4
			c0,0.2-0.7,1.2-0.8,1.5l5.9,3.4l0.9-1.5l0.8,0.4l1.3-2.2l0.7,0.4l3-5.2c-0.1-0.1-0.7-0.4-0.7-0.5c0-0.2,0.4-0.6,0.4-0.7
			c-0.1-0.1-0.5-0.4-0.7-0.4l-1.3,2.2l-0.7-0.4l1.7-3l-1.5-0.9l-1.3,2.2l-0.7-0.4l1.7-2.9c-0.1-0.1-1.3-0.8-1.5-0.9l-1.7,3l-0.7-0.4
			c0-0.1,0.1-0.1,0.1-0.2c1.2-2.1,2.5-4.3,3.7-6.5l-1.5-0.8l-4.7,8.1C61.1,738.4,60.6,738.1,60.6,738L60.6,738z"/>
		<path class="st14" d="M58.4,741.8c-0.1,0.1-0.1,0.2-0.2,0.3l-0.7,1.1c0.1,0.1,0.2,0.1,0.4,0.2c0.1,0.1,0.2,0.1,0.3,0.2
			c-0.4,0.8-0.8,1.5-1.2,2.2c0.6,0.4,1.2,0.7,1.8,1.1l3.7,2.2c0.6,0.4,1.3,0.7,1.9,1.1c0.1-0.2,0.1-0.3,0.3-0.5
			c0.1-0.2,0.4-0.6,0.5-0.9c0.1-0.1,0.1-0.1,0.2-0.3c0.1-0.2,0.2-0.4,0.3-0.6c0.1,0.2,0.5,0.3,0.7,0.4c0.4-0.7,0.8-1.4,1.3-2.2
			c0.2,0.1,0.4,0.2,0.6,0.3c0.1,0.1,0.1,0.1,0.2,0c0.2-0.3,0.3-0.6,0.5-0.9c0.3-0.6,0.7-1.1,1-1.7l1.4-2.5c-0.2-0.1-0.6-0.3-0.7-0.4
			l-3,5.2l-0.7-0.4l-1.3,2.2l-0.8-0.4l-0.9,1.5l-5.9-3.4c0.1-0.3,0.8-1.3,0.8-1.5l-0.7-0.4c0.2-0.4,0.4-0.8,0.7-1.1
			c0.2-0.4,0.2-0.3,0-0.5C58.8,741.9,58.6,741.8,58.4,741.8z"/>
		<path class="st14" d="M60.7,736.1l-0.4,0.7l0.7,0.4l-0.4,0.7l0.7,0.4l4.7-8.1l-0.7-0.4c0,0,0,0,0,0l0,0c0,0,0,0,0,0l-3.8,6.6
			C61.2,736.4,61,736.3,60.7,736.1z"/>
		<path class="st14" d="M67.5,731.2l-3.9,6.6l0.7,0.4l1.7-3c0.2,0,1.4,0.8,1.5,0.9c0.2,0.2,1.6,0.9,1.9,1.1c0,0,0.1,0-0.1-0.1
			l-1.5-0.8c-0.4-0.2-0.3-0.1,0.1-0.9l-1.1-0.6c-0.1-0.1-0.2-0.1-0.3-0.2l1.7-2.9c-0.2-0.1-0.3-0.2-0.6-0.4
			C67.6,731.2,67.6,731.2,67.5,731.2z"/>
		<path class="st14" d="M69.4,738.2l0.4-0.7c-0.1-0.1-0.2-0.2-0.4-0.2c-0.3-0.2-1.7-0.9-1.9-1.1l-1.7,2.9l0.7,0.4l1.3-2.2
			L69.4,738.2z"/>
		<path class="st14" d="M58.4,736.8c-0.1,0.1-0.1,0.1-0.2,0.3c-0.1,0.1-0.1,0.3-0.2,0.4l0.7,0.4c-0.1,0.2-0.7,1.3-0.8,1.5l0.7,0.4
			l-0.6,1.1c-0.1,0.2-0.1,0.2-0.2,0.4l0.7,0.4c0.3-0.4,0.7-1,0.9-1.5l-0.7-0.4l0.8-1.5l-0.7-0.4l0.4-0.7
			C58.9,737,58.6,736.9,58.4,736.8z"/>
		<path class="st14" d="M58.4,736.7l0.9-1.5l1.5,0.8l0.2-0.4c0.1-0.1,0.1-0.2,0.2-0.4l-2-1.1c-0.3-0.2-0.2-0.2-0.5,0.2l-0.9,1.6
			c-0.1,0.2-0.2,0.2,0,0.3C57.8,736.5,58.2,736.7,58.4,736.7z"/>
		<path class="st14" d="M70.4,739.8c0.1,0,0,0,0.1-0.1c0,0,0.1-0.1,0.1-0.1c0-0.2,0.2-0.4,0.3-0.6l-1.5-0.8l-1.7,3l0.7,0.4l1.3-2.2
			C69.9,739.4,70.3,739.7,70.4,739.8z"/>
		<path class="st14" d="M67.5,731.1c0.1-0.2,0.3-0.5,0.4-0.7l-1.5-0.8l-0.4,0.7L67.5,731.1z"/>
		<path class="st14" d="M70.4,739.8c0,0.2-0.4,0.6-0.4,0.7c0,0.1,0.6,0.4,0.7,0.5c0.2,0.1,0.5,0.3,0.7,0.4l-1.4,2.5l1.5-2.5
			l-0.7-0.4c0.1-0.1,0.1-0.2,0.2-0.4c0.1-0.1,0.2-0.3,0.2-0.4c-0.8-0.5-0.8-0.3-0.6-0.6c0,0-0.1,0.1-0.1,0.1
			C70.4,739.8,70.5,739.8,70.4,739.8z"/>
	</g>
	<path class="st12" d="M95.1,738h-2.5l2.1-7.2l-4.3,7.2h-2.6l-0.5-7.3l-1.8,7.3H83l2.9-10.9h3.5l0.5,7.7l4.6-7.7h3.5L95.1,738z
		 M104.6,738h-5.6c-0.8,0-1.3-0.2-1.7-0.6c-0.4-0.4-0.4-1-0.2-1.8c0.3-0.9,0.7-1.6,1.3-2c0.6-0.4,1.5-0.6,2.6-0.6h2.5
		c0.1-0.4,0.1-0.7-0.1-0.8c-0.2-0.2-0.6-0.2-1.3-0.2h-3.6l0.5-2h4.3c1.1,0,1.9,0.3,2.3,0.8c0.4,0.5,0.5,1.3,0.2,2.3L104.6,738z
		 M102.6,736.1l0.3-1.2h-2.2c-0.4,0-0.7,0-0.9,0.1c-0.2,0.1-0.3,0.3-0.3,0.5c-0.1,0.2-0.1,0.3,0,0.4c0,0,0.1,0.1,0.2,0.1
		c0.1,0,0.3,0,0.5,0H102.6z M113.4,738H111l1.3-4.9c0.1-0.5,0.2-0.8,0-1c-0.1-0.1-0.4-0.2-0.9-0.2H110l-1.6,6.1H106l2.2-8.1h4
		c1.2,0,2,0.2,2.4,0.7c0.4,0.5,0.5,1.2,0.2,2.3L113.4,738z M122.1,738h-2.4l1.3-4.9c0.1-0.5,0.1-0.8,0-0.9c-0.1-0.1-0.2-0.1-0.3-0.2
		c-0.1,0-0.3-0.1-0.6-0.1l-1.4,0l-1.6,6.1h-2.4l2.9-10.9h2.4l-0.8,2.8h1.6c1.2,0,2,0.2,2.4,0.7c0.4,0.5,0.5,1.2,0.2,2.3L122.1,738z
		 M131.4,738h-5.6c-0.8,0-1.3-0.2-1.7-0.6c-0.4-0.4-0.4-1-0.2-1.8c0.3-0.9,0.7-1.6,1.3-2c0.6-0.4,1.5-0.6,2.6-0.6h2.5
		c0.1-0.4,0.1-0.7-0.1-0.8c-0.2-0.2-0.6-0.2-1.3-0.2h-3.6l0.5-2h4.3c1.1,0,1.9,0.3,2.3,0.8c0.4,0.5,0.5,1.3,0.2,2.3L131.4,738z
		 M129.4,736.1l0.3-1.2h-2.2c-0.4,0-0.7,0-0.9,0.1c-0.2,0.1-0.3,0.3-0.3,0.5c-0.1,0.2,0,0.3,0,0.4c0,0,0.1,0.1,0.2,0.1
		c0.1,0,0.3,0,0.5,0H129.4z M135.2,738h-2.5l2.9-10.9h2.5L135.2,738z M140.9,738h-2.1l0.6-2.2h2.1L140.9,738z M148.6,738h-2.9
		c-0.4,0-0.7,0-1-0.1c-0.3,0-0.5-0.1-0.8-0.2c-0.4-0.1-0.8-0.4-1-0.8c-0.1-0.2-0.2-0.4-0.3-0.6c-0.1-0.2-0.2-0.5-0.2-0.7
		c0-0.3,0-0.5,0-0.8c0-0.3,0.1-0.6,0.2-0.9c0.2-0.6,0.4-1.2,0.8-1.7c0.3-0.5,0.7-1,1.3-1.4c0.4-0.3,0.9-0.6,1.4-0.7
		c0.5-0.2,1.1-0.2,1.9-0.2h2.9l-0.5,2h-2.3c-0.5,0-0.9,0-1.2,0.1c-0.3,0.1-0.6,0.2-0.8,0.4c-0.4,0.3-0.7,0.8-0.9,1.6
		c-0.1,0.4-0.1,0.8-0.1,1.1c0.1,0.3,0.1,0.6,0.4,0.7l0.4,0.2c0.1,0,0.3,0,0.4,0c0.1,0,0.4,0,0.6,0h2.3L148.6,738z M158.7,733.9
		c-0.3,1.3-1,2.3-2,3.1c-1,0.8-2.1,1.1-3.4,1.1c-1.3,0-2.2-0.4-2.8-1.1c-0.6-0.8-0.7-1.8-0.3-3.1c0.3-1.3,1-2.3,2-3
		c1-0.8,2.1-1.1,3.4-1.1c1.3,0,2.2,0.4,2.8,1.1C158.9,731.6,159.1,732.6,158.7,733.9z M156.2,733.9c0.2-0.7,0.1-1.2-0.1-1.6
		c-0.2-0.4-0.6-0.6-1.1-0.6c-0.5,0-1,0.2-1.4,0.6c-0.4,0.4-0.7,0.9-0.9,1.6c-0.1,0.4-0.1,0.7-0.1,0.9c0,0.3,0.1,0.5,0.2,0.7
		c0.2,0.4,0.6,0.6,1.1,0.6c0.6,0,1-0.2,1.4-0.6C155.7,735.1,156,734.6,156.2,733.9z M169.9,738h-2.4l1.3-4.9c0.1-0.5,0.2-0.8,0.1-1
		c-0.1-0.2-0.4-0.2-0.9-0.2l-0.9,0l-1.6,6.1h-2.4l1.6-6.1h-2l-1.6,6.1h-2.4l2.2-8.1h8c1.2,0,2,0.2,2.4,0.7c0.4,0.5,0.5,1.2,0.2,2.3
		L169.9,738z"/>
	<path class="st12" d="M28.1,729.9l21.2-2.2c0.2,0,0.5,0,0.7,0c0.5,0.1,1,0.3,1.4,0.7c0.4,0.3,0.6,0.8,0.7,1.3c0,0.2,0,0.4,0,0.6
		l-3.7,9.6c-0.1,0.7-0.5,1.3-1,1.7c-0.5,0.4-1.1,0.7-1.8,0.7H31.1c-0.7,0-1.3-0.3-1.8-0.7h0c-0.5-0.4-0.8-1.1-1-1.7l-2.9-7.4
		c0-0.1,0-0.1,0-0.2c-0.1-0.6,0.2-1.2,0.7-1.6c0.5-0.4,1.1-0.6,1.7-0.8C27.9,729.9,28,729.9,28.1,729.9z M47.8,729.8l-19.8,2.1
		c-0.1,0-0.2,0-0.2,0c-0.4,0.1-0.9,0.3-1.2,0.5c-0.3,0.2-0.4,0.5-0.4,0.8c0,0,0,0.1,0,0.1l2.7,6.5c0.1,0.5,0.3,0.9,0.7,1.2
		c0.3,0.2,0.6,0.4,1,0.4h13.6c0.4,0,0.8-0.1,1-0.4c0.3-0.3,0.5-0.7,0.7-1.2l3.4-8.6c0-0.1,0-0.2,0-0.3c0-0.3-0.2-0.5-0.4-0.7
		c-0.2-0.2-0.5-0.4-0.8-0.4C48.1,729.8,48,729.8,47.8,729.8z"/>
	<path class="st12" d="M87.8,723.6l-0.5,1.7h-0.6l1.2-4.5h1.3c0.3,0,0.5,0,0.7,0.1c0.2,0.1,0.3,0.2,0.4,0.3c0.1,0.1,0.2,0.3,0.2,0.4
		c0,0.2,0,0.4-0.1,0.6c-0.1,0.2-0.1,0.4-0.3,0.6c-0.1,0.2-0.3,0.3-0.4,0.4c-0.2,0.1-0.4,0.2-0.6,0.3c-0.2,0.1-0.5,0.1-0.7,0.1H87.8z
		 M87.9,723.1h0.7c0.2,0,0.3,0,0.5-0.1c0.1,0,0.3-0.1,0.4-0.2c0.1-0.1,0.2-0.2,0.3-0.3c0.1-0.1,0.1-0.2,0.2-0.4
		c0.1-0.3,0.1-0.5-0.1-0.7c-0.1-0.2-0.4-0.2-0.7-0.2h-0.7L87.9,723.1z"/>
	<path id="_x31__20_" class="st12" d="M92.5,722.1c0.2,0,0.4,0,0.6,0.1c0.2,0.1,0.3,0.2,0.4,0.3c0.1,0.1,0.1,0.3,0.2,0.5
		c0,0.2,0,0.4-0.1,0.7c-0.1,0.3-0.2,0.5-0.3,0.7c-0.1,0.2-0.3,0.4-0.4,0.5c-0.2,0.1-0.4,0.3-0.6,0.3c-0.2,0.1-0.4,0.1-0.7,0.1
		c-0.2,0-0.4,0-0.6-0.1c-0.2-0.1-0.3-0.2-0.4-0.3c-0.1-0.1-0.1-0.3-0.2-0.5c0-0.2,0-0.4,0.1-0.7c0.1-0.3,0.2-0.5,0.3-0.7
		c0.1-0.2,0.3-0.4,0.4-0.5c0.2-0.1,0.4-0.3,0.6-0.3C92,722.1,92.2,722.1,92.5,722.1z M91.7,724.9c0.3,0,0.6-0.1,0.8-0.3
		c0.2-0.2,0.4-0.5,0.5-0.9c0.1-0.4,0.1-0.7,0-0.9c-0.1-0.2-0.3-0.3-0.6-0.3c-0.2,0-0.3,0-0.4,0.1c-0.1,0.1-0.3,0.1-0.4,0.2
		c-0.1,0.1-0.2,0.2-0.3,0.4c-0.1,0.1-0.1,0.3-0.2,0.5c0,0.2-0.1,0.4-0.1,0.5c0,0.1,0,0.3,0.1,0.4c0.1,0.1,0.1,0.2,0.2,0.2
		C91.4,724.9,91.5,724.9,91.7,724.9z"/>
	<path id="_x32__20_" class="st12" d="M94.2,722.1h0.4c0,0,0.1,0,0.1,0c0,0,0,0,0,0.1l0.1,2c0,0.1,0,0.1,0,0.2c0,0.1,0,0.1,0,0.2
		c0-0.1,0.1-0.1,0.1-0.2c0-0.1,0.1-0.1,0.1-0.2l1.2-2.1c0,0,0-0.1,0.1-0.1c0,0,0.1,0,0.1,0h0.2c0,0,0.1,0,0.1,0c0,0,0,0,0,0.1
		l0.1,2.1c0,0.1,0,0.1,0,0.2c0,0.1,0,0.1,0,0.2c0-0.1,0.1-0.1,0.1-0.2c0-0.1,0.1-0.1,0.1-0.2l1.2-2c0,0,0-0.1,0.1-0.1
		c0,0,0.1,0,0.1,0h0.4l-1.9,3.2h-0.4c-0.1,0-0.1,0-0.1-0.1l-0.1-2.2c0,0,0-0.1,0-0.1c0-0.1,0-0.1,0-0.1c0,0,0,0.1-0.1,0.1
		c0,0,0,0.1-0.1,0.1l-1.3,2.2c0,0.1-0.1,0.1-0.2,0.1h-0.4L94.2,722.1z"/>
	<path id="_x33__20_" class="st12" d="M100.7,722.1c0.2,0,0.4,0,0.5,0.1c0.1,0.1,0.3,0.2,0.3,0.3c0.1,0.1,0.1,0.3,0.2,0.4
		c0,0.2,0,0.4-0.1,0.6c0,0.1,0,0.1-0.1,0.2c0,0-0.1,0-0.1,0h-2.1c-0.1,0.2-0.1,0.4-0.1,0.5c0,0.1,0,0.3,0.1,0.4
		c0.1,0.1,0.1,0.2,0.3,0.2c0.1,0,0.2,0.1,0.4,0.1c0.1,0,0.3,0,0.4,0c0.1,0,0.2-0.1,0.3-0.1c0.1,0,0.2-0.1,0.2-0.1
		c0.1,0,0.1-0.1,0.1-0.1c0,0,0.1,0,0.1,0.1l0.1,0.2c-0.1,0.1-0.2,0.2-0.3,0.2c-0.1,0.1-0.2,0.1-0.3,0.2c-0.1,0-0.2,0.1-0.4,0.1
		c-0.1,0-0.2,0-0.4,0c-0.2,0-0.4,0-0.6-0.1c-0.2-0.1-0.3-0.2-0.4-0.3c-0.1-0.1-0.2-0.3-0.2-0.5c0-0.2,0-0.5,0.1-0.7
		c0.1-0.2,0.1-0.4,0.3-0.6c0.1-0.2,0.3-0.4,0.4-0.5c0.2-0.1,0.4-0.3,0.6-0.3C100.3,722.1,100.5,722.1,100.7,722.1z M100.6,722.5
		c-0.3,0-0.5,0.1-0.7,0.2c-0.2,0.2-0.4,0.4-0.5,0.6h1.7c0-0.1,0.1-0.3,0-0.4c0-0.1,0-0.2-0.1-0.3c0-0.1-0.1-0.1-0.2-0.2
		C100.9,722.5,100.7,722.5,100.6,722.5z"/>
	<path id="_x34__20_" class="st12" d="M101.9,725.3l0.9-3.2h0.3c0.1,0,0.1,0,0.1,0c0,0,0,0.1,0,0.1l-0.1,0.5
		c0.2-0.2,0.4-0.4,0.5-0.5c0.2-0.1,0.4-0.2,0.6-0.2c0.1,0,0.2,0,0.2,0c0.1,0,0.1,0,0.2,0.1l-0.2,0.4c0,0.1-0.1,0.1-0.1,0.1
		c0,0-0.1,0-0.1,0c-0.1,0-0.1,0-0.2,0c-0.2,0-0.4,0.1-0.5,0.2c-0.2,0.1-0.3,0.3-0.5,0.5l-0.5,2H101.9z"/>
	<path id="_x35__20_" class="st12" d="M106.5,722.1c0.2,0,0.4,0,0.5,0.1c0.1,0.1,0.3,0.2,0.3,0.3c0.1,0.1,0.1,0.3,0.2,0.4
		c0,0.2,0,0.4-0.1,0.6c0,0.1,0,0.1-0.1,0.2c0,0-0.1,0-0.1,0h-2.1c-0.1,0.2-0.1,0.4-0.1,0.5c0,0.1,0,0.3,0.1,0.4
		c0.1,0.1,0.1,0.2,0.3,0.2c0.1,0,0.2,0.1,0.4,0.1c0.1,0,0.3,0,0.4,0c0.1,0,0.2-0.1,0.3-0.1c0.1,0,0.2-0.1,0.2-0.1
		c0.1,0,0.1-0.1,0.1-0.1c0,0,0.1,0,0.1,0.1l0.1,0.2c-0.1,0.1-0.2,0.2-0.3,0.2c-0.1,0.1-0.2,0.1-0.3,0.2c-0.1,0-0.2,0.1-0.4,0.1
		c-0.1,0-0.2,0-0.4,0c-0.2,0-0.4,0-0.6-0.1c-0.2-0.1-0.3-0.2-0.4-0.3c-0.1-0.1-0.2-0.3-0.2-0.5c0-0.2,0-0.5,0.1-0.7
		c0.1-0.2,0.2-0.4,0.3-0.6c0.1-0.2,0.3-0.4,0.4-0.5c0.2-0.1,0.4-0.3,0.6-0.3C106.1,722.1,106.3,722.1,106.5,722.1z M106.4,722.5
		c-0.3,0-0.5,0.1-0.7,0.2c-0.2,0.2-0.4,0.4-0.5,0.6h1.7c0-0.1,0-0.3,0-0.4c0-0.1,0-0.2-0.1-0.3c0-0.1-0.1-0.1-0.2-0.2
		C106.7,722.5,106.6,722.5,106.4,722.5z"/>
	<path id="_x36__20_" class="st12" d="M109.9,725.3c-0.1,0-0.1,0-0.1-0.1l0.1-0.4c-0.2,0.2-0.4,0.3-0.6,0.4
		c-0.2,0.1-0.4,0.1-0.6,0.1c-0.2,0-0.3,0-0.5-0.1c-0.1-0.1-0.2-0.2-0.3-0.3c-0.1-0.1-0.1-0.3-0.1-0.5c0-0.2,0-0.4,0.1-0.7
		c0.1-0.2,0.2-0.5,0.3-0.7c0.1-0.2,0.3-0.4,0.4-0.5c0.2-0.2,0.3-0.3,0.5-0.4c0.2-0.1,0.4-0.1,0.6-0.1c0.2,0,0.4,0,0.5,0.1
		c0.1,0.1,0.2,0.2,0.3,0.3l0.5-1.8h0.6l-1.2,4.6H109.9z M109,724.9c0.2,0,0.4,0,0.5-0.1c0.2-0.1,0.3-0.2,0.5-0.4l0.4-1.5
		c-0.1-0.1-0.2-0.2-0.3-0.3c-0.1-0.1-0.2-0.1-0.4-0.1c-0.3,0-0.6,0.1-0.8,0.3c-0.2,0.2-0.4,0.5-0.5,0.9c-0.1,0.2-0.1,0.4-0.1,0.5
		c0,0.1,0,0.3,0.1,0.4c0,0.1,0.1,0.2,0.2,0.2C108.7,724.9,108.8,724.9,109,724.9z"/>
	<path id="_x37__20_" class="st12" d="M112.4,725.3l1.2-4.6h0.6l-0.5,1.9c0.2-0.2,0.4-0.3,0.6-0.4c0.2-0.1,0.4-0.1,0.6-0.1
		c0.2,0,0.3,0,0.5,0.1c0.1,0.1,0.2,0.2,0.3,0.3c0.1,0.1,0.1,0.3,0.1,0.5c0,0.2,0,0.4-0.1,0.7c-0.1,0.2-0.2,0.5-0.3,0.7
		c-0.1,0.2-0.3,0.4-0.4,0.5c-0.2,0.1-0.3,0.3-0.5,0.3c-0.2,0.1-0.4,0.1-0.6,0.1c-0.2,0-0.4,0-0.5-0.1c-0.1-0.1-0.2-0.2-0.3-0.3
		l-0.1,0.3c0,0.1-0.1,0.1-0.2,0.1H112.4z M114.6,722.5c-0.2,0-0.4,0-0.5,0.1c-0.2,0.1-0.3,0.2-0.5,0.4l-0.4,1.5
		c0.1,0.1,0.1,0.2,0.3,0.3c0.1,0.1,0.2,0.1,0.4,0.1c0.3,0,0.6-0.1,0.8-0.3c0.2-0.2,0.4-0.5,0.5-0.9c0.1-0.2,0.1-0.4,0.1-0.5
		c0-0.1,0-0.3-0.1-0.4c0-0.1-0.1-0.2-0.2-0.2C114.8,722.5,114.7,722.5,114.6,722.5z"/>
	<path id="_x38__20_" class="st12" d="M116.5,726.2c0,0-0.1,0.1-0.1,0.1c0,0-0.1,0-0.1,0h-0.4l0.9-1.2l-0.5-3h0.5c0,0,0.1,0,0.1,0
		c0,0,0,0,0,0.1l0.3,2c0,0,0,0.1,0,0.1c0,0,0,0.1,0,0.1c0,0,0.1-0.1,0.1-0.1c0,0,0.1-0.1,0.1-0.1l1.4-2c0,0,0.1-0.1,0.1-0.1
		c0,0,0.1,0,0.1,0h0.4L116.5,726.2z"/>
	<path id="_x39__20_" class="st12" d="M119.1,725c0-0.1,0-0.1,0.1-0.2c0-0.1,0.1-0.1,0.1-0.1c0,0,0.1-0.1,0.1-0.1c0.1,0,0.1,0,0.2,0
		c0.1,0,0.1,0,0.1,0c0,0,0.1,0,0.1,0.1c0,0,0,0.1,0.1,0.1c0,0,0,0.1,0,0.2c0,0.1,0,0.1-0.1,0.2c0,0-0.1,0.1-0.1,0.1
		c0,0-0.1,0.1-0.1,0.1c-0.1,0-0.1,0-0.2,0c-0.1,0-0.1,0-0.1,0c0,0-0.1,0-0.1-0.1c0,0,0-0.1,0-0.1C119.1,725.1,119.1,725,119.1,725z
		 M119.7,722.6c0-0.1,0-0.1,0.1-0.2c0,0,0.1-0.1,0.1-0.1c0,0,0.1-0.1,0.1-0.1c0.1,0,0.1,0,0.2,0c0.1,0,0.1,0,0.1,0
		c0,0,0.1,0,0.1,0.1c0,0,0,0.1,0.1,0.1c0,0,0,0.1,0,0.2c0,0.1,0,0.1-0.1,0.2c0,0-0.1,0.1-0.1,0.1c0,0-0.1,0.1-0.1,0.1
		c-0.1,0-0.1,0-0.2,0c-0.1,0-0.1,0-0.1,0c0,0-0.1,0-0.1-0.1c0,0,0-0.1,0-0.1C119.7,722.7,119.7,722.7,119.7,722.6z"/>
	<path class="st12" d="M126.2,740.4l-0.1,0.5h-2.3l-0.4,1.6h1.8l-0.1,0.5h-1.8l-0.4,1.6h2.3l-0.1,0.5H122l1.3-4.8H126.2z
		 M126.2,742.9h1.6l-0.1,0.5h-1.6L126.2,742.9z M128.9,744.6h2.1l-0.1,0.5h-2.7l1.3-4.8h0.6L128.9,744.6z M133.6,741.7
		c0.2,0,0.4,0,0.5,0.1c0.2,0.1,0.3,0.2,0.4,0.3c0.1,0.1,0.1,0.3,0.2,0.5c0,0.2,0,0.4-0.1,0.6c0,0.1-0.1,0.2-0.1,0.2c0,0-0.1,0-0.1,0
		h-2.2c-0.1,0.2-0.1,0.4-0.1,0.6c0,0.2,0,0.3,0.1,0.4c0.1,0.1,0.2,0.2,0.3,0.2c0.1,0.1,0.3,0.1,0.4,0.1c0.1,0,0.3,0,0.4-0.1
		c0.1,0,0.2-0.1,0.3-0.1c0.1,0,0.2-0.1,0.2-0.1c0.1,0,0.1-0.1,0.1-0.1c0,0,0.1,0,0.1,0.1l0.1,0.2c-0.1,0.1-0.2,0.2-0.3,0.2
		c-0.1,0.1-0.2,0.1-0.4,0.2c-0.1,0-0.3,0.1-0.4,0.1c-0.1,0-0.3,0-0.4,0c-0.2,0-0.4,0-0.6-0.1c-0.2-0.1-0.3-0.2-0.4-0.3
		c-0.1-0.2-0.2-0.3-0.2-0.6c0-0.2,0-0.5,0.1-0.8c0.1-0.2,0.2-0.5,0.3-0.7c0.1-0.2,0.3-0.4,0.5-0.5c0.2-0.1,0.4-0.3,0.6-0.4
		C133.1,741.8,133.3,741.7,133.6,741.7z M133.5,742.2c-0.3,0-0.5,0.1-0.7,0.2c-0.2,0.2-0.4,0.4-0.5,0.7h1.8c0-0.1,0.1-0.3,0-0.4
		c0-0.1,0-0.2-0.1-0.3c-0.1-0.1-0.1-0.1-0.2-0.2C133.7,742.2,133.6,742.2,133.5,742.2z M137.3,745.1H137c-0.1,0-0.1,0-0.1,0
		c0,0,0-0.1,0-0.1l0-0.3c-0.1,0.1-0.2,0.2-0.3,0.2c-0.1,0.1-0.2,0.1-0.3,0.2c-0.1,0-0.2,0.1-0.3,0.1c-0.1,0-0.2,0-0.4,0
		c-0.1,0-0.2,0-0.4-0.1c-0.1,0-0.2-0.1-0.3-0.2c-0.1-0.1-0.1-0.2-0.1-0.3c0-0.1,0-0.2,0-0.4c0-0.1,0.1-0.3,0.2-0.4
		c0.1-0.1,0.3-0.2,0.4-0.3c0.2-0.1,0.4-0.2,0.7-0.2c0.3-0.1,0.6-0.1,1-0.1l0.1-0.3c0.1-0.3,0.1-0.5,0-0.6c-0.1-0.1-0.2-0.2-0.4-0.2
		c-0.1,0-0.3,0-0.4,0.1c-0.1,0-0.2,0.1-0.3,0.1c-0.1,0-0.2,0.1-0.2,0.1c-0.1,0-0.1,0.1-0.2,0.1c0,0-0.1,0-0.1,0c0,0,0,0-0.1-0.1
		l-0.1-0.2c0.2-0.2,0.5-0.3,0.7-0.4c0.2-0.1,0.5-0.1,0.8-0.1c0.2,0,0.3,0,0.5,0.1c0.1,0.1,0.2,0.1,0.3,0.3c0.1,0.1,0.1,0.2,0.1,0.4
		c0,0.2,0,0.3-0.1,0.5L137.3,745.1z M135.9,744.8c0.1,0,0.2,0,0.3,0s0.2-0.1,0.3-0.1c0.1,0,0.2-0.1,0.3-0.1c0.1-0.1,0.2-0.1,0.3-0.2
		l0.2-0.7c-0.3,0-0.5,0-0.7,0.1c-0.2,0-0.4,0.1-0.5,0.1c-0.1,0.1-0.2,0.1-0.3,0.2c-0.1,0.1-0.1,0.2-0.1,0.3c0,0.1,0,0.2,0,0.2
		c0,0.1,0,0.1,0.1,0.2c0,0,0.1,0.1,0.1,0.1C135.7,744.8,135.8,744.8,135.9,744.8z M138.2,745.1l0.9-3.4h0.3c0.1,0,0.1,0,0.1,0
		c0,0,0,0.1,0,0.1l-0.1,0.6c0.2-0.2,0.4-0.4,0.6-0.6c0.2-0.1,0.4-0.2,0.6-0.2c0.1,0,0.2,0,0.2,0c0.1,0,0.1,0.1,0.2,0.1l-0.2,0.4
		c0,0.1-0.1,0.1-0.1,0.1c0,0-0.1,0-0.1,0c-0.1,0-0.1,0-0.3,0c-0.2,0-0.4,0.1-0.6,0.2c-0.2,0.1-0.3,0.3-0.5,0.5l-0.6,2.1H138.2z
		 M140.9,745.1l0.9-3.4h0.4c0.1,0,0.1,0,0.1,0.1l-0.1,0.4c0.2-0.2,0.4-0.3,0.6-0.4c0.2-0.1,0.4-0.2,0.7-0.2c0.2,0,0.3,0,0.5,0.1
		c0.1,0.1,0.2,0.1,0.3,0.3c0.1,0.1,0.1,0.2,0.1,0.4c0,0.2,0,0.3-0.1,0.5l-0.6,2.1h-0.6l0.6-2.1c0.1-0.3,0.1-0.5,0-0.6
		c-0.1-0.1-0.2-0.2-0.5-0.2c-0.2,0-0.3,0-0.5,0.1c-0.2,0.1-0.3,0.2-0.5,0.3l-0.7,2.5H140.9z M146.1,741.8l-0.9,3.4h-0.6l0.9-3.4
		H146.1z M146.5,740.7c0,0.1,0,0.1-0.1,0.2c0,0-0.1,0.1-0.1,0.1c0,0-0.1,0.1-0.2,0.1c-0.1,0-0.1,0-0.2,0c-0.1,0-0.1,0-0.2,0
		c0,0-0.1-0.1-0.1-0.1c0,0,0-0.1-0.1-0.1c0,0,0-0.1,0-0.2c0-0.1,0-0.1,0.1-0.2c0-0.1,0.1-0.1,0.1-0.1c0,0,0.1-0.1,0.2-0.1
		c0.1,0,0.1,0,0.2,0c0.1,0,0.1,0,0.2,0c0,0,0.1,0.1,0.1,0.1c0,0,0,0.1,0.1,0.1C146.6,740.6,146.5,740.7,146.5,740.7z M146.3,745.1
		l0.9-3.4h0.4c0.1,0,0.1,0,0.1,0.1l-0.1,0.4c0.2-0.2,0.4-0.3,0.6-0.4c0.2-0.1,0.4-0.2,0.7-0.2c0.2,0,0.3,0,0.5,0.1
		c0.1,0.1,0.2,0.1,0.3,0.3c0.1,0.1,0.1,0.2,0.1,0.4c0,0.2,0,0.3-0.1,0.5l-0.6,2.1h-0.6l0.6-2.1c0.1-0.3,0.1-0.5,0-0.6
		c-0.1-0.1-0.2-0.2-0.5-0.2c-0.2,0-0.3,0-0.5,0.1c-0.2,0.1-0.3,0.2-0.5,0.3l-0.7,2.5H146.3z M152,741.7c0.1,0,0.3,0,0.4,0
		c0.1,0,0.2,0.1,0.3,0.1h0.9l-0.1,0.2c0,0.1-0.1,0.1-0.2,0.1l-0.4,0.1c0,0.1,0,0.3,0,0.5c0,0.2-0.1,0.3-0.2,0.4
		c-0.1,0.1-0.2,0.2-0.4,0.3c-0.1,0.1-0.3,0.2-0.5,0.2c-0.2,0-0.3,0.1-0.5,0.1c-0.2,0-0.3,0-0.4-0.1c-0.1,0-0.1,0.1-0.2,0.1
		c-0.1,0.1-0.1,0.1-0.1,0.2c0,0.1,0,0.1,0,0.2c0.1,0,0.1,0.1,0.2,0.1c0.1,0,0.2,0,0.4,0c0.1,0,0.3,0,0.4,0c0.1,0,0.3,0,0.4,0
		c0.1,0,0.2,0.1,0.3,0.1c0.1,0.1,0.2,0.1,0.2,0.2c0,0.1,0,0.2,0,0.4c0,0.1-0.1,0.3-0.2,0.4c-0.1,0.1-0.2,0.3-0.4,0.4
		c-0.2,0.1-0.3,0.2-0.6,0.3c-0.2,0.1-0.4,0.1-0.7,0.1c-0.2,0-0.5,0-0.6-0.1c-0.2,0-0.3-0.1-0.4-0.2c-0.1-0.1-0.2-0.2-0.2-0.3
		c0-0.1,0-0.2,0-0.3c0-0.2,0.1-0.3,0.3-0.4c0.1-0.1,0.3-0.2,0.5-0.3c-0.1,0-0.1-0.1-0.2-0.2c0-0.1,0-0.2,0-0.3c0,0,0-0.1,0.1-0.2
		c0-0.1,0.1-0.1,0.1-0.2c0-0.1,0.1-0.1,0.2-0.1c0.1,0,0.1-0.1,0.2-0.1c-0.1-0.1-0.2-0.2-0.3-0.4c-0.1-0.2-0.1-0.3,0-0.5
		c0-0.2,0.1-0.3,0.2-0.4c0.1-0.1,0.2-0.3,0.4-0.3c0.1-0.1,0.3-0.2,0.5-0.2C151.6,741.7,151.8,741.7,152,741.7z M152.1,745.3
		c0-0.1,0-0.2,0-0.2c0-0.1-0.1-0.1-0.2-0.1c-0.1,0-0.2,0-0.3-0.1c-0.1,0-0.2,0-0.3,0c-0.1,0-0.2,0-0.4,0c-0.1,0-0.2,0-0.3,0
		c-0.1,0.1-0.3,0.1-0.4,0.2c-0.1,0.1-0.2,0.2-0.2,0.3c0,0.1,0,0.1,0,0.2c0,0.1,0.1,0.1,0.1,0.2c0.1,0,0.2,0.1,0.3,0.1
		c0.1,0,0.3,0,0.4,0c0.2,0,0.3,0,0.4,0c0.1,0,0.3-0.1,0.4-0.1c0.1-0.1,0.2-0.1,0.3-0.2C152,745.5,152.1,745.4,152.1,745.3z
		 M151.5,743.5c0.1,0,0.2,0,0.3,0c0.1,0,0.2-0.1,0.3-0.1c0.1-0.1,0.1-0.1,0.2-0.2c0.1-0.1,0.1-0.2,0.1-0.3c0.1-0.2,0-0.4-0.1-0.5
		c-0.1-0.1-0.3-0.2-0.5-0.2s-0.4,0.1-0.6,0.2c-0.2,0.1-0.3,0.3-0.3,0.5c0,0.1,0,0.2,0,0.3c0,0.1,0,0.2,0.1,0.2
		c0,0.1,0.1,0.1,0.2,0.1C151.3,743.5,151.4,743.5,151.5,743.5z M159.2,740.4l-0.1,0.5h-1.5l-1.1,4.2h-0.6l1.1-4.2h-1.5l0.1-0.5
		H159.2z M160.1,741.7c0.2,0,0.4,0,0.5,0.1c0.2,0.1,0.3,0.2,0.4,0.3c0.1,0.1,0.1,0.3,0.2,0.5c0,0.2,0,0.4-0.1,0.6
		c0,0.1,0,0.2-0.1,0.2c0,0-0.1,0-0.1,0h-2.2c-0.1,0.2-0.1,0.4-0.1,0.6c0,0.2,0,0.3,0.1,0.4c0.1,0.1,0.2,0.2,0.3,0.2
		c0.1,0.1,0.2,0.1,0.4,0.1c0.1,0,0.3,0,0.4-0.1c0.1,0,0.2-0.1,0.3-0.1c0.1,0,0.2-0.1,0.2-0.1c0.1,0,0.1-0.1,0.1-0.1
		c0,0,0.1,0,0.1,0.1l0.1,0.2c-0.1,0.1-0.2,0.2-0.3,0.2c-0.1,0.1-0.2,0.1-0.4,0.2c-0.1,0-0.3,0.1-0.4,0.1c-0.1,0-0.3,0-0.4,0
		c-0.2,0-0.4,0-0.6-0.1c-0.2-0.1-0.3-0.2-0.4-0.3c-0.1-0.2-0.2-0.3-0.2-0.6c0-0.2,0-0.5,0.1-0.8c0.1-0.2,0.2-0.5,0.3-0.7
		c0.1-0.2,0.3-0.4,0.5-0.5c0.2-0.1,0.4-0.3,0.6-0.4C159.6,741.8,159.8,741.7,160.1,741.7z M160,742.2c-0.3,0-0.5,0.1-0.7,0.2
		c-0.2,0.2-0.4,0.4-0.5,0.7h1.8c0-0.1,0-0.3,0-0.4c0-0.1,0-0.2-0.1-0.3c-0.1-0.1-0.1-0.1-0.2-0.2C160.2,742.2,160.1,742.2,160,742.2
		z M163.8,745.1h-0.3c-0.1,0-0.1,0-0.1,0c0,0,0-0.1,0-0.1l0-0.3c-0.1,0.1-0.2,0.2-0.3,0.2c-0.1,0.1-0.2,0.1-0.3,0.2
		c-0.1,0-0.2,0.1-0.3,0.1c-0.1,0-0.2,0-0.4,0c-0.1,0-0.2,0-0.4-0.1c-0.1,0-0.2-0.1-0.3-0.2c-0.1-0.1-0.1-0.2-0.1-0.3
		c0-0.1,0-0.2,0-0.4c0-0.1,0.1-0.3,0.2-0.4c0.1-0.1,0.3-0.2,0.4-0.3c0.2-0.1,0.4-0.2,0.7-0.2c0.3-0.1,0.6-0.1,1-0.1l0.1-0.3
		c0.1-0.3,0.1-0.5,0-0.6c-0.1-0.1-0.2-0.2-0.4-0.2c-0.1,0-0.3,0-0.4,0.1c-0.1,0-0.2,0.1-0.3,0.1c-0.1,0-0.2,0.1-0.2,0.1
		c-0.1,0-0.1,0.1-0.2,0.1c0,0-0.1,0-0.1,0c0,0,0,0-0.1-0.1l-0.1-0.2c0.2-0.2,0.5-0.3,0.7-0.4c0.2-0.1,0.5-0.1,0.7-0.1
		c0.2,0,0.3,0,0.5,0.1c0.1,0.1,0.2,0.1,0.3,0.3c0.1,0.1,0.1,0.2,0.1,0.4c0,0.2,0,0.3-0.1,0.5L163.8,745.1z M162.4,744.8
		c0.1,0,0.2,0,0.3,0c0.1,0,0.2-0.1,0.3-0.1c0.1,0,0.2-0.1,0.3-0.1c0.1-0.1,0.2-0.1,0.3-0.2l0.2-0.7c-0.3,0-0.5,0-0.7,0.1
		c-0.2,0-0.4,0.1-0.5,0.1c-0.1,0.1-0.2,0.1-0.3,0.2c-0.1,0.1-0.1,0.2-0.2,0.3c0,0.1,0,0.2,0,0.2c0,0.1,0,0.1,0.1,0.2
		c0,0,0.1,0.1,0.1,0.1C162.2,744.8,162.3,744.8,162.4,744.8z M164.7,745.1l0.9-3.4h0.3c0.1,0,0.1,0,0.1,0.1l0,0.3
		c0.2-0.2,0.3-0.3,0.5-0.4c0.2-0.1,0.4-0.1,0.6-0.1c0.2,0,0.4,0.1,0.5,0.2c0.1,0.1,0.2,0.3,0.2,0.5c0.1-0.1,0.2-0.2,0.3-0.3
		c0.1-0.1,0.2-0.2,0.3-0.2c0.1-0.1,0.2-0.1,0.3-0.1c0.1,0,0.2,0,0.3,0c0.2,0,0.3,0,0.5,0.1c0.1,0.1,0.2,0.1,0.3,0.2
		c0.1,0.1,0.1,0.2,0.1,0.4c0,0.2,0,0.3-0.1,0.5l-0.6,2.1h-0.6l0.6-2.1c0.1-0.3,0.1-0.5,0-0.6c-0.1-0.1-0.2-0.2-0.4-0.2
		c-0.1,0-0.2,0-0.3,0.1c-0.1,0-0.2,0.1-0.3,0.2c-0.1,0.1-0.2,0.2-0.2,0.3c-0.1,0.1-0.1,0.2-0.2,0.4l-0.6,2.1h-0.6l0.6-2.1
		c0.1-0.3,0.1-0.5,0-0.6c-0.1-0.1-0.2-0.2-0.4-0.2c-0.1,0-0.3,0-0.4,0.1c-0.1,0.1-0.3,0.2-0.4,0.3l-0.7,2.5H164.7z"/>
</g>
<g>
	<g>
		<linearGradient id="SVGID_9_" gradientUnits="userSpaceOnUse" x1="759.6182" y1="141.9875" x2="959.7958" y2="141.9875">
			<stop  offset="0" style="stop-color:#FFFFFF;stop-opacity:0"/>
			<stop  offset="4.017906e-02" style="stop-color:#FDEBEE;stop-opacity:4.051906e-02"/>
			<stop  offset="0.1257" style="stop-color:#FAC6CE;stop-opacity:0.1267"/>
			<stop  offset="0.2187" style="stop-color:#F7A7B2;stop-opacity:0.2205"/>
			<stop  offset="0.3192" style="stop-color:#F58D9C;stop-opacity:0.3219"/>
			<stop  offset="0.4302" style="stop-color:#F3798A;stop-opacity:0.4338"/>
			<stop  offset="0.5573" style="stop-color:#F26C7E;stop-opacity:0.562"/>
			<stop  offset="0.7143" style="stop-color:#F16377;stop-opacity:0.7204"/>
			<stop  offset="0.9916" style="stop-color:#F16175"/>
		</linearGradient>
		<rect x="759.6" y="129.6" class="st15" width="200.2" height="24.7"/>
		<g>
			<g>
				<path class="st13" d="M899.8,146.6c-4.3,0-5.9-2-5.9-5.1c0-2.9,1.8-5.5,5.8-5.5c2.6,0,4.6,0.8,4.6,0.8v7.6h2.2v2.3H899.8z
					 M896.2,133c0-0.8,0.6-1.5,1.5-1.5c0.8,0,1.5,0.7,1.5,1.5c0,0.8-0.6,1.5-1.5,1.5C896.8,134.5,896.2,133.9,896.2,133z
					 M901.6,138.6c0,0-0.8-0.4-2.1-0.4c-1.7,0-2.6,1.3-2.6,3c0,2,1,3.1,3.3,3.1h1.4V138.6z M899.9,133c0-0.8,0.6-1.5,1.5-1.5
					c0.8,0,1.5,0.7,1.5,1.5c0,0.8-0.6,1.5-1.5,1.5C900.5,134.5,899.9,133.9,899.9,133z"/>
				<path class="st13" d="M906.2,144.3h4.1v-8.1h2.9v10.3h-7V144.3z M908.1,151.3c-0.8,0-1.5-0.7-1.5-1.5c0-0.8,0.6-1.5,1.5-1.5
					c0.8,0,1.5,0.7,1.5,1.5C909.5,150.7,908.9,151.3,908.1,151.3z M911.7,151.3c-0.8,0-1.5-0.7-1.5-1.5c0-0.8,0.6-1.5,1.5-1.5
					c0.8,0,1.5,0.7,1.5,1.5C913.2,150.7,912.5,151.3,911.7,151.3z"/>
				<path class="st13" d="M913.3,151.9l0.2-2.3c0.5,0.2,1.1,0.3,1.8,0.3c1.5,0,2.4-0.7,2.4-3.1v-10.6h2.9v8.1h2.2v2.3h-2.2v0.1
					c0,2.8-0.9,5.5-5.4,5.5C914.5,152.1,913.9,152.1,913.3,151.9z"/>
				<path class="st13" d="M922.5,146.6v-2.3h1.9c0.6,0,1,0.1,1,0.1s-0.6-0.6-0.6-1.5c0-2.1,1.5-3.7,4.2-3.7c2.9,0,4,2,4,4.5v0.6h2.3
					V144c0-4.6-1.8-6.8-6.2-6.8c-1.5,0-3.3,0.4-4.7,0.8l-0.3-2c1.6-0.5,3.6-0.9,5.3-0.9c5.5,0,8.6,2.6,8.6,9.1v0.1h1.6v2.3H922.5z
					 M930.6,143.7c0-1.6-0.6-2.7-1.9-2.7c-1,0-1.6,0.7-1.6,1.6c0,1.1,0.9,1.8,2.1,1.8h1.4V143.7z"/>
				<path class="st13" d="M939.3,144.3h8.5c0.1-0.5,0.1-1.1,0.1-1.7c0-2.8-1.1-4.2-4.3-4.2c-0.9,0-1.7,0.1-2.5,0.2v-2.3
					c0.9-0.1,1.9-0.2,2.8-0.2c5,0,6.9,2.2,6.9,6.4c0,1.1-0.1,2.5-0.4,4.1h-11.1V144.3z M943,149.9c0-0.8,0.7-1.5,1.5-1.5
					s1.5,0.7,1.5,1.5c0,0.8-0.7,1.5-1.5,1.5S943,150.7,943,149.9z"/>
			</g>
		</g>
		<g>
			<path class="st10" d="M716.9,143.8c0.1,0.4,0.2,0.8,0.2,1.1c0,0.9-0.6,1.7-1.9,2.2l-4.9,1.9c-1.5,0.6-2.8,1.1-2.8,2
				c0,0.1,0,0.1,0,0.2l-0.2,0.1c-0.1-0.4-0.2-0.8-0.2-1.1c0-0.9,0.5-1.7,1.9-2.3l4.9-1.9c1.7-0.7,2.8-1.1,2.8-2.2L716.9,143.8z"/>
			<path class="st10" d="M736.7,113.7c0-4.3,2.1-5.9,5.3-6.1v0.5c-2,0.3-2,3.7-2,7.4v2.2c0,5.5-4.5,10-9.9,10h-19.2
				c-11.9,0-18.5-5.2-18.5-14.1c0-2,0.3-3.9,1.1-5.8l0.4,0.3c-0.6,1.2-0.7,2.6-0.7,4.1c0,7.4,5.1,12.3,17.6,12.3H730
				c3.8,0,6.7-2.9,6.7-7.3V113.7z M717,137.1l-2.8-2.8l2.8-2.9l2.8,2.9L717,137.1z"/>
			<path class="st10" d="M753.8,148.2c0.1,0.4,0.2,0.8,0.2,1.1c0,0.9-0.6,1.7-1.9,2.2l-4.9,1.9c-1.5,0.6-2.8,1.1-2.8,2
				c0,0.1,0,0.1,0,0.2l-0.2,0.1c-0.1-0.4-0.2-0.8-0.2-1.1c0-0.9,0.5-1.7,1.9-2.3l4.9-1.9c1.7-0.7,2.8-1.1,2.8-2.2L753.8,148.2z"/>
			<path class="st10" d="M755.8,124.4h8.9v3.3h-8.9c0,5.9-1.5,10.5-5.1,14.3c-3.2,3.6-7.1,5.4-11.7,5.4c-2,0-3.9-0.4-5.9-1.2
				l0.3-0.6c1.3,0.7,2.7,1,4.2,1c8.1,0,15-7.4,15-18.9v-21.2h3.3V124.4z"/>
			<path class="st10" d="M780.5,81c0.3-0.2,0.7-0.3,1.1-0.3v0.2c-0.7,0.1-0.7,1.2-0.7,2.4v2c0,1.7-1.4,3.1-3.1,3.1
				c-1.9,0-3.4-1.1-3.4-2.8v-1.2c0-1.8,1.6-3.4,3.4-3.4H780.5z M777.9,82.1c-1.4,0-2.5,1-2.5,2.3v1.2c0,0.9,1,1.7,2.3,1.7
				c1,0,2.1-0.9,2.1-2.1v-2.5c0-0.2,0-0.5,0.1-0.6H777.9z"/>
			<path class="st10" d="M794.2,127.6h-29.6v-3.3h4.6c-1.7-1.7-2.5-4.1-2.5-6.3c0-5.1,4.5-9.6,9.7-9.6h6.9c3.4,0,6.8,0,7-2.2h0.5
				c0,3.4-1.9,5.4-5.8,5.4h-8.2c-4.2,0-7.1,2.7-7.1,6.4s2.8,6.2,6.7,6.3h17.9V127.6z M781.8,101.1l-2.8-2.8l2.8-2.9l2.8,2.9
				L781.8,101.1z"/>
			<path class="st10" d="M809.4,96.7c0.1,0.4,0.2,0.8,0.2,1.1c0,0.9-0.6,1.7-1.9,2.2l-4.9,1.9c-1.5,0.6-2.8,1.1-2.8,2
				c0,0.1,0,0.1,0,0.2l-0.2,0.1c-0.1-0.4-0.2-0.8-0.2-1.1c0-0.9,0.5-1.7,1.9-2.3l4.9-1.9c1.7-0.7,2.8-1.1,2.8-2.2L809.4,96.7z"/>
			<path class="st10" d="M800.8,124.4v-8.7c0-5.4,4.7-10.1,10.1-10.1h7.5c0.9-0.6,1.9-0.8,3.1-1v0.4c-1.9,0.4-2,3.8-2,7.3l-0.2,6.1
				c0,2.4,1.1,4.5,3.1,5.5c0.6,0.3,1.5,0.5,3,0.5v3.3c-3.5,0-6.1-1.3-7.8-4c-1.6,2.5-4.5,4-7.6,4h-16v-3.3H800.8z M811.5,108.8
				c-4.3,0-7.4,3.1-7.4,6.9v8.6h5.9c3.4,0,6.3-2.5,6.3-5.9v-7.7c0-0.8,0.1-1.4,0.2-1.9H811.5z"/>
			<path class="st10" d="M835.5,81.9c0.3-0.2,0.7-0.3,1.1-0.3v0.2c-0.7,0.1-0.7,1.2-0.7,2.4v2c0,1.7-1.4,3.1-3.1,3.1
				c-1.9,0-3.4-1.1-3.4-2.8v-1.2c0-1.8,1.6-3.4,3.4-3.4H835.5z M832.9,83.1c-1.4,0-2.5,1-2.5,2.3v1.2c0,0.9,1,1.7,2.3,1.7
				c1,0,2.1-0.9,2.1-2.1v-2.5c0-0.2,0-0.5,0.1-0.6H832.9z"/>
			<path class="st10" d="M829.2,89.5c3.1,0.1,5.3,1.7,5.3,6v21.6c0,4-2.5,7.9-6,9.6c-1.2,0.6-2.2,0.9-3,0.9v-3.3
				c2.4-0.2,5.8-2.8,5.8-7.3v-20c0-3.5,0-7-2.1-7.2V89.5z"/>
			<path class="st10" d="M841.9,97.6c0-5.7-0.2-7.3-2-7.5v-0.4c3.5,0.1,5.2,2.2,5.2,6.2v31.8h-3.3V97.6z"/>
			<path class="st10" d="M869,82c-1.3,2.3-3.3,3.5-5.2,3.5c-1.4,0-2.8-0.7-3.7-1.8l0.1-0.1c0.7,0.9,1.8,1.4,3,1.4
				c1.7,0,3.6-1,4.9-3.4l0.3-0.6c-0.2,0-0.4,0.1-0.6,0.1c-1.8,0-3.1-1.7-3.1-3.1c0-0.4,0.1-0.8,0.3-1.1l0.6-1c0.6-1,1.7-1.6,2.8-1.6
				c0.5,0,1,0.1,1.5,0.4l-0.4,0.9c-0.4-0.2-0.8-0.3-1.2-0.3c-0.8,0-1.5,0.4-1.9,1.1l-0.5,1c-0.1,0.2-0.2,0.4-0.2,0.6
				c0,0.8,0.8,2,2.1,2c0.5,0,0.9-0.2,1.3-0.5l1.7-3.1l-1.4-0.8l0.4-0.9l2.2,1.2c0.3,0,0.7,0.1,1,0.3l-0.1,0.1c-0.1,0-0.2,0-0.2,0
				c-0.5,0-0.9,0.9-1.4,1.7l-0.9,1.6L869,82z"/>
			<path class="st10" d="M878.5,105.4c0.8-0.5,1.9-0.7,3.1-0.8v0.5c-2.1,0.3-2.1,3.7-2.1,7.2v6c0,5.2-4.3,9.3-9.4,9.3
				c-5.4,0-10.2-3.6-10.2-8.3v-3.6c0-5.5,4.8-10.3,10.3-10.3H878.5z M870.7,108.7c-4.3,0-7.4,3.2-7.4,7v3.6c0,2.6,2.9,5.1,6.8,5.1
				c3.3,0,6.2-2.8,6.2-6.1v-7.6c0-0.9,0-1.4,0.3-2H870.7z M866.4,101.2l-2.9-2.9l2.9-2.8l2.9,2.8L866.4,101.2z M872.2,101.2
				l-2.9-2.9l2.9-2.8l2.9,2.8L872.2,101.2z"/>
			<path class="st10" d="M917.3,127.6c-3.4,0-6.6-1.6-8.3-4.5c-1,2-4.5,4.5-8,4.5h-17.1v-3.3h10.9v-13.1c0-3.7-0.2-7.2-2.2-7.5v-0.5
				c3.4,0.2,5.5,1.8,5.5,6.2v14.9h2.9c3.8,0,6.8-3.3,6.8-7.7V96c0-3.8-0.1-7.1-2.1-7.4v-0.5c3.3,0.1,5.4,1.8,5.4,6.1v24.7
				c0.3,3.3,2.8,5.2,6.2,5.5V127.6z"/>
			<path class="st10" d="M950.7,93.7c0.1,0.4,0.2,0.8,0.2,1.1c0,0.9-0.6,1.7-1.9,2.2l-4.9,1.9c-1.5,0.6-2.8,1.1-2.8,2
				c0,0.1,0,0.1,0,0.2l-0.2,0.1c-0.1-0.4-0.2-0.8-0.2-1.1c0-0.9,0.5-1.7,1.9-2.3l4.9-1.9c1.7-0.7,2.8-1.1,2.8-2.2L950.7,93.7z"/>
			<path class="st10" d="M959.8,127.6h-42.6v-3.3h2.8c0.6-0.3,0.9-1.1,0.9-2.5c0-3.4-0.8-6.6-3.2-8.8l0.4-0.3
				c2.2,2.1,3.7,4.7,4.4,7.3c0.7-8.2,8.8-14.5,19.3-14.5h6.9c6.1,0.5,11.2,6.1,11.1,12.4V127.6z M956.5,124.4v-6.5
				c0-3.8-1.7-6.5-5.1-8.1c-1.4-0.6-3.3-0.9-6.2-0.9h-3.4c-11.1,0-18.8,6.2-18.8,14.5v1H956.5z"/>
		</g>
	</g>
</g>
</svg>
