<?xml version="1.0" encoding="utf-8"?>
<!-- Generator: Adobe Illustrator 22.1.0, SVG Export Plug-In . SVG Version: 6.00 Build 0)  -->
<svg version="1.1" id="Layer_1" xmlns="http://www.w3.org/2000/svg" xmlns:xlink="http://www.w3.org/1999/xlink" x="0px" y="0px"
	 viewBox="0 0 1024 768" style="enable-background:new 0 0 1024 768;" xml:space="preserve">
<style type="text/css">
	.st0{fill:url(#SVGID_1_);}
	.st1{clip-path:url(#SVGID_3_);}
	.st2{fill:url(#SVGID_4_);}
	.st3{fill:#F68A1F;}
	.st4{filter:url(#Adobe_OpacityMaskFilter);}
	.st5{filter:url(#Adobe_OpacityMaskFilter_1_);}
	.st6{mask:url(#SVGID_5_);fill:url(#SVGID_6_);}
	.st7{fill:url(#SVGID_7_);}
	.st8{fill:#632872;}
	.st9{fill:url(#SVGID_8_);}
	.st10{fill:#CA4977;}
	.st11{fill-rule:evenodd;clip-rule:evenodd;fill:#F6DFB4;}
	.st12{fill:#D2D3D4;}
	.st13{fill:#FFFFFF;}
	.st14{fill:#205B6A;}
	.st15{fill:url(#SVGID_9_);}
</style>
<g>
	<g>
		<g>
			<g>
				<linearGradient id="SVGID_1_" gradientUnits="userSpaceOnUse" x1="246.473" y1="134.4816" x2="246.473" y2="717.4726">
					<stop  offset="0" style="stop-color:#3653A4"/>
					<stop  offset="0.103" style="stop-color:#4A559C"/>
					<stop  offset="0.3094" style="stop-color:#725B8A"/>
					<stop  offset="0.6003" style="stop-color:#A6676B"/>
					<stop  offset="0.9615" style="stop-color:#EB782B"/>
					<stop  offset="0.9949" style="stop-color:#F47A22"/>
				</linearGradient>
				<path class="st0" d="M396.7,263.2h-6.1c-1.8-28.2-25.9-59.6-71.7-93.4c-35-25.9-70.5-43.7-70.9-43.9c-1-0.5-2.2-0.5-3.1,0
					c-0.3,0.2-35.9,18-70.9,43.9c-45.7,33.8-69.8,65.2-71.7,93.4h-6.1c-1.9,0-3.5,1.6-3.5,3.5V627h307.5V266.7
					C400.2,264.8,398.6,263.2,396.7,263.2z"/>
			</g>
		</g>
	</g>
	<g>
		<defs>
			<path id="SVGID_2_" d="M396.7,263.2h-6.1c-1.8-28.2-25.9-59.6-71.7-93.4c-35-25.9-70.5-43.7-70.9-43.9c-1-0.5-2.2-0.5-3.1,0
				c-0.3,0.2-35.9,18-70.9,43.9c-45.7,33.8-69.8,65.2-71.7,93.4h-6.1c-1.9,0-3.5,1.6-3.5,3.5V627h307.5V266.7
				C400.2,264.8,398.6,263.2,396.7,263.2z"/>
		</defs>
		<clipPath id="SVGID_3_">
			<use xlink:href="#SVGID_2_"  style="overflow:visible;"/>
		</clipPath>
		<g class="st1">
			
				<radialGradient id="SVGID_4_" cx="173.8307" cy="662.6241" r="54.2731" fx="162.6903" fy="646.5805" gradientUnits="userSpaceOnUse">
				<stop  offset="0.1436" style="stop-color:#FBF066"/>
				<stop  offset="0.5314" style="stop-color:#FEDE00"/>
				<stop  offset="0.9166" style="stop-color:#F47D20"/>
			</radialGradient>
			<path class="st2" d="M174.9,616.5c-26.9,0-48.7,21.8-48.7,48.7c0,26.9,21.8,48.7,48.7,48.7c26.9,0,48.7-21.8,48.7-48.7
				C223.6,638.3,201.8,616.5,174.9,616.5z"/>
			<g>
				<path class="st3" d="M174.9,616.5c-26.9,0-48.7,21.8-48.7,48.7c0,26.9,21.8,48.7,48.7,48.7c26.9,0,48.7-21.8,48.7-48.7
					C223.6,638.3,201.8,616.5,174.9,616.5z M173.1,710.7c-25.1,0-45.5-20.4-45.5-45.5c0-25.1,20.4-45.5,45.5-45.5
					c25.1,0,45.5,20.4,45.5,45.5C218.6,690.3,198.3,710.7,173.1,710.7z"/>
				<path class="st3" d="M180.2,600.4c0,2.7-2,4.9-4.6,4.9l0,0c-2.5,0-4.6-2.2-4.6-4.9v-8.7c0-2.7,2-4.9,4.6-4.9l0,0
					c2.5,0,4.6,2.2,4.6,4.9V600.4z"/>
				<path class="st3" d="M180.2,733.6c0,2.7-2,4.9-4.6,4.9l0,0c-2.5,0-4.6-2.2-4.6-4.9v-8.7c0-2.7,2-4.9,4.6-4.9l0,0
					c2.5,0,4.6,2.2,4.6,4.9V733.6z"/>
				<path class="st3" d="M237.8,667.2c-2.7,0-4.9-2-4.9-4.6l0,0c0-2.5,2.2-4.6,4.9-4.6h8.7c2.7,0,4.9,2,4.9,4.6l0,0
					c0,2.5-2.2,4.6-4.9,4.6H237.8z"/>
				<path class="st3" d="M104.6,667.2c-2.7,0-4.9-2-4.9-4.6l0,0c0-2.5,2.2-4.6,4.9-4.6h8.7c2.7,0,4.9,2,4.9,4.6l0,0
					c0,2.5-2.2,4.6-4.9,4.6H104.6z"/>
				<path class="st3" d="M222.8,621.8c-1.9,1.9-4.9,2.1-6.7,0.3l0,0c-1.8-1.8-1.7-4.8,0.3-6.7l6.2-6.2c1.9-1.9,4.9-2.1,6.7-0.3l0,0
					c1.8,1.8,1.7,4.8-0.3,6.7L222.8,621.8z"/>
				<path class="st3" d="M128.6,716c-1.9,1.9-4.9,2.1-6.7,0.3l0,0c-1.8-1.8-1.7-4.8,0.3-6.7l6.2-6.2c1.9-1.9,4.9-2.1,6.7-0.3l0,0
					c1.8,1.8,1.7,4.8-0.3,6.7L128.6,716z"/>
				<path class="st3" d="M216.4,709.9c-1.9-1.9-2-4.9-0.3-6.7l0,0c1.8-1.8,4.8-1.7,6.7,0.3l6.2,6.2c1.9,1.9,2.1,4.9,0.3,6.7l0,0
					c-1.8,1.8-4.8,1.7-6.7-0.3L216.4,709.9z"/>
				<path class="st3" d="M122.2,615.7c-1.9-1.9-2-4.9-0.3-6.7l0,0c1.8-1.8,4.8-1.7,6.7,0.3l6.2,6.2c1.9,1.9,2.1,4.9,0.3,6.7l0,0
					c-1.8,1.8-4.8,1.7-6.7-0.3L122.2,615.7z"/>
			</g>
			<defs>
				<filter id="Adobe_OpacityMaskFilter" filterUnits="userSpaceOnUse" x="129" y="620.5" width="72.7" height="48.8">
					<feFlood  style="flood-color:white;flood-opacity:1" result="back"/>
					<feBlend  in="SourceGraphic" in2="back" mode="normal"/>
				</filter>
			</defs>
			<mask maskUnits="userSpaceOnUse" x="129" y="620.5" width="72.7" height="48.8" id="SVGID_5_">
				<g class="st4">
					<defs>
						<filter id="Adobe_OpacityMaskFilter_1_" filterUnits="userSpaceOnUse" x="129" y="620.5" width="72.7" height="48.8">
							<feFlood  style="flood-color:white;flood-opacity:1" result="back"/>
							<feBlend  in="SourceGraphic" in2="back" mode="normal"/>
						</filter>
					</defs>
					<mask maskUnits="userSpaceOnUse" x="129" y="620.5" width="72.7" height="48.8" id="SVGID_5_">
						<g class="st5">
						</g>
					</mask>
					
						<radialGradient id="SVGID_6_" cx="163.8707" cy="624.8902" r="50.6721" fx="181.0468" fy="598.777" gradientUnits="userSpaceOnUse">
						<stop  offset="0.2627" style="stop-color:#FFFFFF"/>
						<stop  offset="0.7268" style="stop-color:#FFFFFF"/>
						<stop  offset="0.9716" style="stop-color:#000000"/>
					</radialGradient>
					<path class="st6" d="M143.7,631.2c9-9.2,32.2-15.4,48.6-6.2c16.4,9.2,11,26.7-15.4,25.7c-26.4-1-42.3,8.6-44.4,16.8
						C130.5,675.8,121.4,654,143.7,631.2z"/>
				</g>
			</mask>
			
				<radialGradient id="SVGID_7_" cx="163.8707" cy="624.8902" r="50.6721" fx="181.0468" fy="598.777" gradientUnits="userSpaceOnUse">
				<stop  offset="0.2627" style="stop-color:#FFFFFF"/>
				<stop  offset="0.7268" style="stop-color:#FBF066"/>
				<stop  offset="0.9716" style="stop-color:#FEDE00"/>
			</radialGradient>
			<path class="st7" d="M143.7,631.2c9-9.2,32.2-15.4,48.6-6.2c16.4,9.2,11,26.7-15.4,25.7c-26.4-1-42.3,8.6-44.4,16.8
				C130.5,675.8,121.4,654,143.7,631.2z"/>
		</g>
	</g>
</g>
<g>
	<path class="st8" d="M418.5,214.5c0-0.8,0.7-1.5,1.5-1.5c0.8,0,1.5,0.7,1.5,1.5c0,0.8-0.7,1.5-1.5,1.5
		C419.2,216,418.5,215.4,418.5,214.5z M418.5,222c0-0.8,0.7-1.5,1.5-1.5c0.8,0,1.5,0.7,1.5,1.5c0,0.8-0.7,1.5-1.5,1.5
		C419.2,223.5,418.5,222.8,418.5,222z"/>
	<path class="st8" d="M440.6,222c0,0.4-0.2,1.2-1.5,1.2c-1.1,0-1.9-0.3-2.5-1.3c-0.9,0.9-2.6,1.4-4.9,1.4c-0.5,0-1.9-0.1-2.8-0.3
		l0.3-1.8l0.1-0.1c0.8,0.2,2.1,0.2,2.6,0.2c1.5,0,3.1-0.3,3.9-0.9l-0.1-0.1c-0.4-0.8-2.2-4.3-3.2-6l1.4-1.5h0.2
		c0.7,1.5,2.4,5.4,2.8,6c0.9,1.9,1.4,2.3,2.7,2.3C440.4,221.4,440.6,221.6,440.6,222z"/>
	<path class="st8" d="M450.9,222c0,0.7-0.6,1.2-1.4,1.2h-1.6c0.5,0.6,0.8,1.4,0.8,2.1c0,1.4-1.4,2.6-3.1,2.6c-2.8,0-4.7-1.8-4.8-4.7
		h-1.5l0.5-1.9h1.2c0.4-2,1.4-4.2,3-6.1l1.2-1l0.2,0c2.1,2.2,2.8,3.3,2.8,4.5c0,0.9-0.5,2-1.2,2.6h3.1
		C450.6,221.4,450.9,221.6,450.9,222z M443.8,223.1c-0.4,0-0.9,0.1-1.3,0.2c0.2,1.7,1.4,2.7,3.2,2.7c0.5,0,1-0.2,1.3-0.4
		C447,224.1,445.8,223.1,443.8,223.1z M442.6,221.4c2.1,0,3.5-1,3.5-2.5c0-0.7-0.3-1.4-1.2-2.4C443.6,218.2,442.9,219.8,442.6,221.4
		z"/>
	<path class="st8" d="M470.1,222c0,0.4-0.2,1.2-1.4,1.2c-1,0-2.3-0.2-3.3-1c-0.7,0.7-1.7,1-2.9,1c-1,0-1.9-0.2-2.7-0.6
		c-0.5,0.4-1.2,0.6-2.2,0.6c-1.7,0-3-0.5-3.7-1.1c-0.9,0.7-2.2,1.1-4.4,1.1l0.5-1.9c1.5,0,2.5-0.1,3-0.5c0.3-0.4,0.6-1.3,1-2.5
		l2-0.3l0.1,0.1c-0.4,1-0.7,1.9-1.1,2.6c0.7,0.3,1.9,0.6,2.8,0.6c0.4,0,0.9-0.1,1.2-0.3c0.3-0.4,0.7-1.4,1.1-2.8l1.9-0.3l0.1,0.1
		c-0.4,1.2-0.7,2.2-1.1,2.9c0.5,0.2,1.1,0.3,1.7,0.3c0.6,0,1.2-0.1,1.6-0.4c0.2-0.3,0.4-1,0.4-2.2c0-0.4,0-0.8-0.1-1.3l1.7-0.6
		l0.2,0.1c0,0.4,0,0.7,0,1.1c0,1.1-0.1,1.9-0.3,2.6c0.5,0.3,1.4,0.7,2.9,0.7C469.9,221.4,470.1,221.6,470.1,222z M458.7,214
		l-1.9-1.4l1.2-1.8l1.9,1.3L458.7,214z M460.2,211.3l-2-1.4l1.2-1.8l1.9,1.3L460.2,211.3z M460.2,212.6l1.2-1.8l1.9,1.3l-1.2,1.8
		L460.2,212.6z"/>
	<path class="st8" d="M478.2,222c0,0.4-0.2,1.2-1.4,1.2c-1.5,0-2.9-0.3-3.9-1.2c-0.8,0.8-1.8,1.2-3.3,1.2h-0.8l0.5-1.9h0.7
		c0.7,0,1.4-0.1,1.8-0.5c0.3-0.5,0.7-1.6,1.2-3.6l1.8-0.5l0.2,0.1c-0.3,1.5-0.7,2.7-1.1,3.7c0.6,0.3,1.5,0.7,3.4,0.7
		C478,221.4,478.2,221.6,478.2,222z M472.5,214.1l-1.9-1.4l1.2-1.8l1.9,1.3L472.5,214.1z M475.9,214.1l-1.9-1.4l1.2-1.8l1.9,1.3
		L475.9,214.1z"/>
	<path class="st8" d="M477.2,221.4c0.8,0,1.7,0,2.3-0.5c0.1-0.4,0.2-1,0.2-1.9v-11.7l1.7-0.4l0.2,0.1v11.9c0,3.5-1.8,4.4-4.8,4.4
		L477.2,221.4z"/>
	<path class="st8" d="M484.6,223.3v-16l1.8-0.5l0.1,0.1l0,16.1l-1.7,0.4L484.6,223.3z"/>
	<path class="st8" d="M502.1,222.8c-2.7,0.3-4.5,0.4-7.6,0.6l-0.1-1.7c0.7,0,1.3,0,2-0.1c-0.5-0.6-0.7-1.5-0.7-2.3
		c0-1.8,1.4-3.2,3.3-3.2c0.8,0,1.8,0.2,2.5,0.6l-0.5,1.7c-0.6-0.2-1.3-0.4-1.9-0.4c-1,0-1.6,0.6-1.6,1.6c0,0.7,0.4,1.4,0.9,1.9
		c1.4-0.1,2.6-0.2,3.6-0.3L502.1,222.8z"/>
	<path class="st8" d="M504.9,219.3v-12l1.7-0.4l0.1,0.1v12.1c0,1.9,0.8,2.3,2.8,2.3c0.8,0,1,0.3,1,0.6c0,0.4-0.2,1.2-1.5,1.2
		C506.7,223.2,504.9,222.4,504.9,219.3z"/>
	<path class="st8" d="M520.4,220.9l-0.6,1.7c-1.9,0.4-4.7,0.6-10.8,0.6l0.5-1.9c0.9,0,1.8,0,2.7,0c-0.6-0.9-1-2-1-3.1
		c0-2.5,2-4,4.6-4c1.2,0,2.4,0.4,3.2,0.8l-0.2,1.7l-0.1,0c-0.9-0.4-1.9-0.6-2.9-0.6c-1.6,0-2.6,0.8-2.6,2.1c0,0.9,0.5,2.1,1.4,3
		c2.1-0.1,3.9-0.2,5.6-0.4L520.4,220.9z"/>
	<path class="st8" d="M522.4,223.1l0.3-1.8l0.1-0.1c0.7,0.2,2.1,0.2,2.6,0.2c1.6,0,3.5-0.3,4-0.9c-0.3-1.9-1.9-4-3.7-5.8l1-1.8h0.2
		c2.4,2.6,4.1,5,4.1,6.9c0,2.4-2,3.5-5.7,3.5C524.8,223.3,523.4,223.3,522.4,223.1z"/>
	<path class="st8" d="M542.6,205c-1.2,0.1-2.7,0.3-4.6,0.3l-0.1-1.3c0.3,0,0.7,0,1.1,0c-0.3-0.4-0.4-0.9-0.4-1.4
		c0-1.2,0.7-1.9,2-1.9c0.5,0,1.1,0.1,1.7,0.3l-0.3,1.2c-0.5-0.1-0.8-0.2-1.1-0.2c-0.6,0-0.9,0.4-0.9,0.9c0,0.4,0.2,0.7,0.5,1
		c0.8,0,1.5-0.1,2.2-0.2L542.6,205z M541.2,206.8l0.1,0.1l0,16.1l-1.7,0.4l-0.1-0.1v-16L541.2,206.8z"/>
	<path class="st8" d="M552.7,222c0,0.4-0.2,1.2-1.4,1.2c-1,0-1.6-0.3-2-0.6c-0.7,2.2-3.3,4.2-7.2,4.9l-1-1.4l0.1-0.2
		c4.7-0.9,6.4-2.8,6.8-4.6c-0.4-1.1-1.1-2.6-1.8-4l1.4-1.5h0.2c0.6,1.7,1.2,3.1,1.4,3.7c0.6,1.6,1,1.9,2.5,1.9
		C552.5,221.4,552.7,221.6,552.7,222z"/>
	<path class="st8" d="M560.2,218c0,2.3-0.4,3.6-1.5,4.4c-1.3,0.7-3.1,0.8-7.6,0.8l0.5-1.9c4.6,0,6.1-0.2,6.8-0.5
		c0.1-0.3,0.1-0.8,0.2-1.5c-0.7,0.2-1.6,0.3-2.5,0.3c-2.1,0-3.1-1.1-3.1-2.8c0-2.2,1.6-4.6,3.5-4.6
		C558.8,212.3,560.2,215.1,560.2,218z M555.2,209.7l-1.9-1.4l1.2-1.8l1.9,1.3L555.2,209.7z M556.5,217.8c0.8,0,1.5-0.1,2.2-0.2
		c-0.1-1.7-1.1-3.5-2.2-3.5c-0.9,0-1.9,1.2-1.9,2.5C554.6,217.5,555.3,217.8,556.5,217.8z M558.5,209.7l-1.9-1.4l1.2-1.8l1.9,1.3
		L558.5,209.7z"/>
	<path class="st8" d="M566.4,205c-1.2,0.1-2.7,0.3-4.6,0.3l-0.1-1.3c0.3,0,0.7,0,1.1,0c-0.3-0.4-0.4-0.9-0.4-1.4
		c0-1.2,0.7-1.9,2-1.9c0.5,0,1.1,0.1,1.7,0.3l-0.3,1.2c-0.5-0.1-0.8-0.2-1.1-0.2c-0.6,0-0.9,0.4-0.9,0.9c0,0.4,0.2,0.7,0.5,1
		c0.8,0,1.5-0.1,2.2-0.2L566.4,205z M565,206.8l0.1,0.1l0,16.1l-1.7,0.4l-0.1-0.1v-16L565,206.8z"/>
	<path class="st8" d="M575.5,221.2c0,3.1-2.3,6.1-7.3,6.2l-1-1.4l0.1-0.2c3.4-0.1,5.7-1.3,6.5-3.3c-0.7,0.1-1.4,0.3-2.3,0.3
		c-2.1,0-3.1-1.1-3.1-2.8c0-2.2,1.6-4.6,3.5-4.6C574.1,215.5,575.5,218.3,575.5,221.2z M571.8,221c0.8,0,1.5-0.1,2.2-0.2
		c-0.1-1.7-1.1-3.5-2.2-3.5c-0.9,0-1.9,1.2-1.9,2.5C569.9,220.7,570.6,221,571.8,221z"/>
	<path class="st8" d="M595.3,222c0,0.4-0.2,1.2-1.5,1.2c-1.1,0-1.9-0.3-2.5-1.3c-0.9,0.9-2.6,1.4-4.9,1.4c-0.5,0-1.9-0.1-2.8-0.3
		l0.3-1.8l0.1-0.1c0.8,0.2,2.1,0.2,2.6,0.2c1.5,0,3.1-0.3,3.9-0.9l-0.1-0.1c-0.4-0.8-2.2-4.3-3.2-6l1.4-1.5h0.2
		c0.7,1.5,2.4,5.4,2.8,6c0.9,1.9,1.4,2.3,2.7,2.3C595.1,221.4,595.3,221.6,595.3,222z"/>
	<path class="st8" d="M605.6,222c0,0.7-0.6,1.2-1.4,1.2h-1.6c0.5,0.6,0.8,1.4,0.8,2.1c0,1.4-1.4,2.6-3.1,2.6c-2.8,0-4.7-1.8-4.8-4.7
		h-1.5l0.5-1.9h1.2c0.4-2,1.4-4.2,3-6.1l1.2-1l0.2,0c2.1,2.2,2.8,3.3,2.8,4.5c0,0.9-0.5,2-1.2,2.6h3.1
		C605.2,221.4,605.6,221.6,605.6,222z M598.5,223.1c-0.4,0-0.9,0.1-1.3,0.2c0.2,1.7,1.4,2.7,3.2,2.7c0.5,0,1-0.2,1.3-0.4
		C601.7,224.1,600.5,223.1,598.5,223.1z M597.3,221.4c2.1,0,3.5-1,3.5-2.5c0-0.7-0.3-1.4-1.2-2.4
		C598.3,218.2,597.6,219.8,597.3,221.4z"/>
	<path class="st8" d="M624.8,222c0,0.4-0.2,1.2-1.4,1.2c-1,0-2.3-0.2-3.3-1c-0.7,0.7-1.7,1-2.9,1c-1,0-1.9-0.2-2.7-0.6
		c-0.5,0.4-1.2,0.6-2.2,0.6c-1.7,0-3-0.5-3.7-1.1c-0.9,0.7-2.2,1.1-4.4,1.1l0.5-1.9c1.5,0,2.5-0.1,3-0.5c0.3-0.4,0.6-1.3,1-2.5
		l2-0.3l0.1,0.1c-0.4,1-0.7,1.9-1.1,2.6c0.7,0.3,1.9,0.6,2.8,0.6c0.4,0,0.9-0.1,1.2-0.3c0.3-0.4,0.7-1.4,1.1-2.8l1.9-0.3l0.1,0.1
		c-0.4,1.2-0.7,2.2-1.1,2.9c0.5,0.2,1.1,0.3,1.7,0.3c0.6,0,1.2-0.1,1.6-0.4c0.2-0.3,0.4-1,0.4-2.2c0-0.4,0-0.8-0.1-1.3l1.7-0.6
		l0.2,0.1c0,0.4,0,0.7,0,1.1c0,1.1-0.1,1.9-0.3,2.6c0.5,0.3,1.4,0.7,2.9,0.7C624.6,221.4,624.8,221.6,624.8,222z M613.4,214
		l-1.9-1.4l1.2-1.8l1.9,1.3L613.4,214z M614.9,211.3l-2-1.4l1.2-1.8l1.9,1.3L614.9,211.3z M614.9,212.6l1.2-1.8l1.9,1.3l-1.2,1.8
		L614.9,212.6z"/>
	<path class="st8" d="M632.9,222c0,0.4-0.2,1.2-1.4,1.2c-1.5,0-2.9-0.3-3.9-1.2c-0.8,0.8-1.8,1.2-3.3,1.2h-0.8l0.5-1.9h0.7
		c0.7,0,1.4-0.1,1.8-0.5c0.3-0.5,0.7-1.6,1.2-3.6l1.8-0.5l0.2,0.1c-0.3,1.5-0.7,2.7-1.1,3.7c0.6,0.3,1.5,0.7,3.4,0.7
		C632.7,221.4,632.9,221.6,632.9,222z M627.2,214.1l-1.9-1.4l1.2-1.8l1.9,1.3L627.2,214.1z M630.5,214.1l-1.9-1.4l1.2-1.8l1.9,1.3
		L630.5,214.1z"/>
	<path class="st8" d="M631.9,221.4c0.8,0,1.7,0,2.3-0.5c0.1-0.4,0.2-1,0.2-1.9v-11.7l1.7-0.4l0.2,0.1v11.9c0,3.5-1.8,4.4-4.8,4.4
		L631.9,221.4z"/>
	<path class="st8" d="M639.3,223.3v-16l1.8-0.5l0.1,0.1l0,16.1l-1.7,0.4L639.3,223.3z"/>
	<path class="st8" d="M660.4,222c0,0.4-0.2,1.2-1.5,1.2c-1.9,0-3.3-0.4-3.9-1.9c-0.6,0.1-1.2,0.2-1.8,0.2c-2.5,0-4-1.1-4-2.7
		c0-1.8,1.9-4,5.5-5.1v-1.2l1.7-0.8l0.2,0v7.4c0,1.8,0.9,2.1,2.8,2.1C660.3,221.4,660.4,221.6,660.4,222z M652.2,210.3l-1.9-1.4
		l1.2-1.8l1.9,1.3L652.2,210.3z M654.8,219.5v-0.2v-3.6c-2.2,0.7-3.7,1.8-4,2.8c0.3,0.9,1.6,1.2,2.6,1.2
		C653.8,219.7,654.3,219.6,654.8,219.5z M655.6,210.3l-1.9-1.4l1.2-1.8l1.9,1.3L655.6,210.3z"/>
	<path class="st8" d="M679.6,222c0,0.4-0.2,1.2-1.4,1.2c-1,0-2.3-0.2-3.3-1c-0.7,0.7-1.7,1-2.9,1c-1,0-1.9-0.2-2.7-0.6
		c-0.5,0.4-1.2,0.6-2.2,0.6c-1.7,0-3-0.5-3.7-1.1c-0.9,0.7-2.2,1.1-4.4,1.1l0.5-1.9c1.5,0,2.5-0.1,3-0.5c0.3-0.4,0.6-1.3,1-2.5
		l2-0.3l0.1,0.1c-0.4,1-0.7,1.9-1.1,2.6c0.7,0.3,1.9,0.6,2.8,0.6c0.4,0,0.9-0.1,1.2-0.3c0.3-0.4,0.7-1.4,1.1-2.8l1.9-0.3l0.1,0.1
		c-0.4,1.2-0.7,2.2-1.1,2.9c0.5,0.2,1.1,0.3,1.7,0.3c0.6,0,1.2-0.1,1.6-0.4c0.2-0.3,0.4-1,0.4-2.2c0-0.4,0-0.8-0.1-1.3l1.7-0.6
		l0.2,0.1c0,0.4,0,0.7,0,1.1c0,1.1-0.1,1.9-0.3,2.6c0.5,0.3,1.4,0.7,2.9,0.7C679.4,221.4,679.6,221.6,679.6,222z"/>
	<path class="st8" d="M686.6,222c0,0.4-0.2,1.2-1.4,1.2c-1,0-2.4-0.2-3-1.4c-0.8,1.1-2.2,1.4-4,1.4l0.5-1.9c0.8,0,1.7,0,2.3-0.5
		c0.1-0.4,0.2-1,0.2-1.9v-11.7l1.7-0.4l0.2,0.1v11.8c0,2.4,1.1,2.6,2.7,2.6C686.5,221.4,686.6,221.6,686.6,222z"/>
	<path class="st8" d="M698.5,218.5l-0.5,1.7c-2,0.2-3.9,0.7-6.5,1.6c-3,1-4.6,1.4-6.3,1.4l0.5-1.9c1.5,0,2.8-0.2,5.4-1.1
		c1.6-0.5,2.8-0.8,3.8-1c-0.4-0.2-1-0.5-1.7-0.9c-1.9-1.1-2.9-1.4-4-1.4c-0.9,0-1.7,0.2-2.4,0.5l-0.1-0.1l0.7-1.7
		c0.6-0.3,1.4-0.5,2.1-0.5c1.1,0,2.2,0.5,4.3,1.6C696,217.9,697.3,218.5,698.5,218.5z M691,225.1l2,1.3l-1.2,1.8l-2-1.4L691,225.1z"
		/>
	<path class="st8" d="M733.1,222c0,0.4-0.2,1.2-1.4,1.2c-1,0-2.3-0.2-3.3-1c-0.7,0.7-1.7,1-2.8,1c-1,0-2-0.2-2.7-0.6
		c-0.5,0.4-1.2,0.6-2.2,0.6c-0.6,0-1.3-0.2-1.9-0.6c-0.5,3.4-3.3,5.1-6.9,5.1c-3.7,0-5.7-2.1-5.7-4.9c0-1,0.2-2.1,0.4-2.7l1.5-0.5
		l0.2,0.1c-0.2,0.8-0.2,1.6-0.2,2.2c0,2.4,0.9,4,4.2,4c2.7,0,3.9-1,4.6-1.8c0.2-0.5,0.3-1.1,0.3-1.6c0-1.3-0.6-2.7-1.3-4.4l1.7-1.2
		h0.1c0.3,0.8,0.7,2.3,1.2,3.2c0.5,0.9,1.2,1.3,2,1.3c0.4,0,0.9-0.1,1.2-0.3c0.3-0.4,0.7-1.4,1.1-2.8l1.9-0.3l0.1,0.1
		c-0.4,1.2-0.7,2.2-1.1,3c0.5,0.1,1.1,0.3,1.7,0.3c0.6,0,1.2-0.1,1.6-0.4c0.2-0.3,0.4-1.1,0.4-2.2c0-0.4,0-0.8-0.1-1.2l1.7-0.6
		l0.2,0.1c0,0.4,0,0.7,0,1.1c0,1.1-0.1,1.9-0.3,2.6c0.5,0.3,1.4,0.7,2.9,0.7C732.9,221.4,733.1,221.6,733.1,222z"/>
	<path class="st8" d="M740.1,222c0,0.4-0.2,1.2-1.4,1.2c-1,0-2.4-0.2-3-1.4c-0.8,1.1-2.2,1.4-4,1.4l0.5-1.9c0.8,0,1.7,0,2.3-0.5
		c0.1-0.4,0.2-1,0.2-1.9v-11.7l1.7-0.4l0.2,0.1v11.8c0,2.4,1.1,2.6,2.7,2.6C739.9,221.4,740.1,221.6,740.1,222z"/>
	<path class="st8" d="M751.9,218.5l-0.5,1.7c-2,0.2-3.9,0.7-6.5,1.6c-3,1-4.6,1.4-6.3,1.4l0.5-1.9c1.5,0,2.8-0.2,5.4-1.1
		c1.6-0.5,2.8-0.8,3.8-1c-0.4-0.2-1-0.5-1.7-0.9c-1.9-1.1-2.9-1.4-4-1.4c-0.9,0-1.7,0.2-2.4,0.5l-0.1-0.1l0.7-1.7
		c0.6-0.3,1.4-0.5,2.1-0.5c1.1,0,2.2,0.5,4.3,1.6C749.4,217.9,750.8,218.5,751.9,218.5z M744.5,225.1l2,1.3l-1.2,1.8l-2-1.4
		L744.5,225.1z"/>
	<path class="st8" d="M757.4,205c-1.2,0.1-2.7,0.3-4.6,0.3l-0.1-1.3c0.3,0,0.7,0,1.1,0c-0.3-0.4-0.4-0.9-0.4-1.4
		c0-1.2,0.7-1.9,2-1.9c0.5,0,1.1,0.1,1.7,0.3l-0.3,1.2c-0.5-0.1-0.8-0.2-1.1-0.2c-0.6,0-0.9,0.4-0.9,0.9c0,0.4,0.2,0.7,0.5,1
		c0.8,0,1.5-0.1,2.2-0.2L757.4,205z M756,206.8l0.1,0.1l0,16.1l-1.7,0.4l-0.1-0.1v-16L756,206.8z"/>
	<path class="st8" d="M766.5,221.2c0,3.1-2.3,6.1-7.3,6.2l-1-1.4l0.1-0.2c3.4-0.1,5.7-1.3,6.5-3.3c-0.7,0.1-1.4,0.3-2.3,0.3
		c-2.1,0-3.1-1.1-3.1-2.8c0-2.2,1.6-4.6,3.5-4.6C765.1,215.5,766.5,218.3,766.5,221.2z M762.8,221c0.8,0,1.5-0.1,2.2-0.2
		c-0.1-1.7-1.1-3.5-2.2-3.5c-0.9,0-1.9,1.2-1.9,2.5C760.9,220.7,761.6,221,762.8,221z"/>
	<path class="st8" d="M774.6,223.1l0.3-1.8l0.1-0.1c0.7,0.2,2.1,0.2,2.6,0.2c1.6,0,3.5-0.3,4-0.9c-0.3-1.9-1.9-4-3.7-5.8l1-1.8h0.2
		c2.4,2.6,4.1,5,4.1,6.9c0,2.4-2,3.5-5.7,3.5C776.9,223.3,775.5,223.3,774.6,223.1z"/>
	<path class="st8" d="M795.8,222c0,0.4-0.2,1.2-1.5,1.2h-1.8c-0.8,2.3-3,4.1-7,4.2l-1-1.4l0.1-0.2c3-0.1,5.2-1.1,6.1-2.7h-0.7
		c-3,0-4.4-1.2-4.4-3.1c0-2.2,1.6-4.7,3.5-4.7c2.2,0,3.6,2.7,3.6,5.7v0.1h1.9C795.6,221.4,795.8,221.6,795.8,222z M791.3,221.4v-0.1
		c0-2.1-1.1-3.8-2.2-3.8c-0.9,0-1.9,1-1.9,2.6c0,0.9,0.8,1.4,3.1,1.4H791.3z"/>
	<path class="st8" d="M810.3,222c0,0.4-0.2,1.2-1.4,1.2c-3.2,0-4.7-0.8-5.5-2.3c-0.8,0.2-1.7,0.5-2.7,0.9c-3.1,1.1-4.5,1.4-6.4,1.4
		l0.5-1.9c1.6,0,2.9-0.2,5.4-1.1c1.5-0.5,2.7-0.8,3.8-1c-0.4-0.2-0.9-0.5-1.7-0.8c-1.9-1-2.9-1.4-4-1.4c-0.9,0-1.7,0.2-2.4,0.5
		l-0.1-0.1l0.7-1.8c0.6-0.3,1.4-0.5,2.1-0.5c1.1,0,2.2,0.5,4.2,1.6c2.4,1.2,3.6,1.7,4.7,1.8l-0.4,1.7c-0.6,0.1-1.2,0.1-1.8,0.3
		c0.7,0.7,1.9,0.9,4,0.9C810.2,221.4,810.3,221.6,810.3,222z M800.2,225.1l2,1.3l-1.2,1.8l-2-1.4L800.2,225.1z"/>
	<path class="st8" d="M829.5,222c0,0.4-0.2,1.2-1.4,1.2c-1,0-2.3-0.2-3.3-1c-0.7,0.7-1.7,1-2.9,1c-1,0-1.9-0.2-2.7-0.6
		c-0.5,0.4-1.2,0.6-2.2,0.6c-1.7,0-3-0.5-3.7-1.1c-0.9,0.7-2.2,1.1-4.4,1.1l0.5-1.9c1.5,0,2.5-0.1,3-0.5c0.3-0.4,0.6-1.3,1-2.5
		l2-0.3l0.1,0.1c-0.4,1-0.7,1.9-1.1,2.6c0.7,0.3,1.9,0.6,2.8,0.6c0.4,0,0.9-0.1,1.2-0.3c0.3-0.4,0.7-1.4,1.1-2.8l1.9-0.3l0.1,0.1
		c-0.4,1.2-0.7,2.2-1.1,2.9c0.5,0.2,1.1,0.3,1.7,0.3c0.6,0,1.2-0.1,1.6-0.4c0.2-0.3,0.4-1,0.4-2.2c0-0.4,0-0.8-0.1-1.3l1.7-0.6
		l0.2,0.1c0,0.4,0,0.7,0,1.1c0,1.1-0.1,1.9-0.3,2.6c0.5,0.3,1.4,0.7,2.9,0.7C829.4,221.4,829.5,221.6,829.5,222z"/>
	<path class="st8" d="M828.6,221.4c0.8,0,1.7,0,2.3-0.5c0.1-0.4,0.2-1,0.2-1.9v-11.7l1.7-0.4l0.2,0.1v11.9c0,3.5-1.8,4.4-4.8,4.4
		L828.6,221.4z"/>
	<path class="st8" d="M836,223.3v-16l1.8-0.5l0.1,0.1l0,16.1l-1.7,0.4L836,223.3z"/>
	<path class="st8" d="M862.3,222c0,0.4-0.2,1.2-1.5,1.2c-0.6,0-1.4-0.2-1.9-0.6c-0.5,3.4-3.3,5.1-6.9,5.1c-3.7,0-5.7-2.1-5.7-4.9
		c0-1,0.2-2.1,0.4-2.7l1.5-0.5l0.2,0.1c-0.2,0.8-0.2,1.6-0.2,2.2c0,2.4,0.9,4,4.2,4c2.7,0,3.9-1,4.6-1.8c0.8-1.8,0-3.6-1-6l1.7-1.2
		h0.1c0.3,0.8,0.7,2.3,1.2,3.2c0.5,1,1.2,1.4,2.2,1.4C862,221.4,862.3,221.6,862.3,222z M852.6,215.7l-2-1.4l1.2-1.8l2,1.3
		L852.6,215.7z"/>
	<path class="st8" d="M871.8,220.9c0,1.6-0.8,2.6-2.4,2.6c-1.2,0-3.1-0.6-4.8-1.8c-0.9,1.2-2,1.5-3.6,1.5l0.5-1.9
		c1.1,0,1.6-0.5,2.2-1.5c0.8-1.5,2-4.3,4.3-4.3S871.8,218.2,871.8,220.9z M867.7,217.4c-0.9,0-1.4,1.1-2.4,2.9
		c1.4,0.9,2.8,1.4,3.5,1.4c0.4,0,0.8-0.1,1-0.3C870.1,220.2,869,217.4,867.7,217.4z"/>
	<path class="st8" d="M879.9,222.8c0-1,0.2-2.1,0.4-2.7l1.5-0.5l0.2,0.1c-0.2,0.8-0.2,1.6-0.2,2.2c0,2.4,0.9,4,4.2,4
		c2,0,3.4-0.5,4.4-1.7c0.3-0.6,0.6-1.8,0.6-3.7v-13.1l1.7-0.4l0.2,0.1l0,13.2c0,5.4-2.5,7.5-7.2,7.5
		C881.9,227.7,879.9,225.6,879.9,222.8z"/>
	<path class="st8" d="M906.9,222c0,0.4-0.2,1.2-1.5,1.2c-1.1,0-1.9-0.3-2.5-1.3c-0.9,0.9-2.6,1.4-4.9,1.4c-0.5,0-1.9-0.1-2.8-0.3
		l0.3-1.8l0.1-0.1c0.8,0.2,2.1,0.2,2.6,0.2c1.5,0,3.1-0.3,3.9-0.9l-0.1-0.1c-0.4-0.8-2.2-4.3-3.2-6l1.4-1.5h0.2
		c0.7,1.5,2.4,5.4,2.8,6c0.9,1.9,1.4,2.3,2.7,2.3C906.7,221.4,906.9,221.6,906.9,222z"/>
	<path class="st8" d="M915,222c0,0.4-0.2,1.2-1.4,1.2c-1.5,0-2.9-0.3-3.9-1.2c-0.8,0.8-1.8,1.2-3.3,1.2h-0.8l0.5-1.9h0.7
		c0.7,0,1.4-0.1,1.8-0.5c0.3-0.5,0.7-1.6,1.2-3.6l1.8-0.5l0.2,0.1c-0.3,1.5-0.7,2.7-1.1,3.7c0.6,0.3,1.5,0.7,3.4,0.7
		C914.9,221.4,915,221.6,915,222z M909.4,214.1l-1.9-1.4l1.2-1.8l1.9,1.3L909.4,214.1z M912.7,214.1l-1.9-1.4l1.2-1.8l1.9,1.3
		L912.7,214.1z"/>
	<path class="st8" d="M924.9,220.9l-0.6,1.7c-1.9,0.4-4.7,0.6-10.8,0.6l0.5-1.9c0.9,0,1.8,0,2.7,0c-0.6-0.9-1-2-1-3.1
		c0-2.5,2-4,4.6-4c1.2,0,2.4,0.4,3.2,0.8l-0.2,1.7l-0.1,0c-0.9-0.4-1.9-0.6-2.9-0.6c-1.6,0-2.6,0.8-2.6,2.1c0,0.9,0.5,2.1,1.4,3
		c2.1-0.1,3.9-0.2,5.6-0.4L924.9,220.9z"/>
	<path class="st8" d="M930.8,205c-1.2,0.1-2.7,0.3-4.6,0.3l-0.1-1.3c0.3,0,0.7,0,1.1,0c-0.3-0.4-0.4-0.9-0.4-1.4
		c0-1.2,0.7-1.9,2-1.9c0.5,0,1.1,0.1,1.7,0.3l-0.3,1.2c-0.5-0.1-0.8-0.2-1.1-0.2c-0.6,0-0.9,0.4-0.9,0.9c0,0.4,0.2,0.7,0.5,1
		c0.8,0,1.5-0.1,2.2-0.2L930.8,205z M929.4,206.8l0.1,0.1l0,16.1l-1.7,0.4l-0.1-0.1v-16L929.4,206.8z"/>
</g>
<linearGradient id="SVGID_8_" gradientUnits="userSpaceOnUse" x1="505.4595" y1="429.0948" x2="1023.9995" y2="429.0948">
	<stop  offset="0.1199" style="stop-color:#FFFFFF"/>
	<stop  offset="0.9969" style="stop-color:#FFF2D5"/>
</linearGradient>
<rect x="505.5" y="289.1" class="st9" width="518.5" height="280"/>
<g>
	<g>
		<path class="st10" d="M544.2,336.1c0-2.4,1.3-4.7,3.2-7l2,1.2c-0.9,1.2-1.7,2.5-1.7,3.4c0,1.3,1.6,1.1,1.6,3
			c0,1.2-0.9,2.5-2.5,2.5C545.1,339.2,544.2,338,544.2,336.1z"/>
		<path class="st10" d="M576.2,333c0,1.9-0.8,4-2.5,5c-1.5,0.9-5.1,1.4-9.2,1.4h-2c-7.1,0-10.9-2.1-10.9-6c0-1.4,0.2-2.6,0.6-3.9
			l2.8-1.1l0.3,0.2c-0.2,1-0.3,1.8-0.3,2.7c0,3.3,2.6,4.2,8.8,4.2h1.8c3,0,5.9-0.3,7.1-0.7c0.1-1.1-0.5-3-1.7-5.4l3.3-2.6h0.4
			C575.8,329.3,576.2,331.6,576.2,333z M562.6,326.4l-3.3-2.3l2-3l3.1,2.1l1.4-2.1l3.3,2.2l-2,3.1l-3.1-2.2L562.6,326.4z"/>
		<path class="st10" d="M579.8,332.5v-14.7l3.7-1l0.3,0.2v15.2c0,2.2,0.9,2.8,3.2,2.8c0.9,0,1.3,0.5,1.3,1.3c0,1.6-0.6,2.7-2.1,2.7
			C581.9,339,579.8,337.1,579.8,332.5z"/>
		<path class="st10" d="M599,336.3c0,1.5-0.5,2.7-2.1,2.7c-1.6,0-3.7-0.5-5-1.5c-1.2,1-2.8,1.5-5.1,1.5h-0.6l0.9-4h0.6
			c1.2,0,2.1-0.1,2.5-0.4c0.3-0.8,0.7-2.4,1.1-4.5l4.1-1l0.3,0.2c-0.4,1.9-0.9,3.6-1.5,5c0.9,0.4,2.1,0.6,3.6,0.6
			C598.7,335,599,335.6,599,336.3z M591.2,341.3l3.4,2.3l-2.1,3.2l-3.4-2.4L591.2,341.3z"/>
		<path class="st10" d="M610.6,336.3c0,1.5-0.5,2.7-2.1,2.7c-2.4,0-4.6-0.5-5.8-1.5c-1.2,1-2.6,1.5-4.7,1.5h-1.1l0.9-4h0.7
			c0.8,0,1.8-0.1,2.2-0.4c0.3-0.8,0.7-2.4,1.1-4.5l4.1-1l0.3,0.2c-0.4,1.9-0.9,3.6-1.5,5c0.9,0.4,2.4,0.6,4.5,0.6
			C610.3,335,610.6,335.6,610.6,336.3z M604.3,341.3l3.3,2.2l-2,3.1l-3.1-2.2l-1.5,2.2l-3.3-2.3l2-3l3.2,2.2L604.3,341.3z"/>
		<path class="st10" d="M631.1,336.3c0,1.5-0.5,2.7-2.1,2.7c-1.5,0-3.4-0.4-4.7-1.3c-1.7,1.2-4,1.3-8.1,1.3h-7.8l0.9-4h1.3
			c0.4-0.4,0.8-0.8,1.2-1.2v-16l3.7-1l0.3,0.2l-0.1,13.3c2.6-2.1,4.6-3.3,6.4-3.3c3.1,0,4.9,3.1,4.9,5.6c0,0.7-0.1,1.3-0.3,1.9
			c0.8,0.3,1.9,0.4,3.1,0.4C630.8,335,631.1,335.6,631.1,336.3z M623.5,334.6c0.2-0.3,0.3-0.7,0.3-1.2c0-1.1-0.9-2.5-2.2-2.5
			c-1.5,0-4,1.5-7,4.2h2.4C621.5,335,622.7,334.9,623.5,334.6z"/>
		<path class="st10" d="M629.9,335c0.9,0,1.9-0.1,2.6-0.4c0.1-0.5,0.2-1.2,0.2-2.4v-14.4l3.7-1l0.3,0.2v15c0,5.6-2.9,7-7.6,7
			L629.9,335z"/>
		<path class="st10" d="M640.5,339v-21.2l3.7-1l0.3,0.2l-0.1,21.4l-3.7,0.8L640.5,339z"/>
		<path class="st10" d="M658.9,335.8c0,4.4-3.4,8.8-10.6,8.9l-1.9-3l0.2-0.4c4.4-0.1,7.4-1.3,8.5-3.4c-0.8,0.1-1.6,0.2-2.6,0.2
			c-3,0-4.4-1.5-4.4-3.8c0-3,2.3-6.6,5.3-6.6C656.8,327.7,658.9,331.4,658.9,335.8z M653.4,334.6c0.8,0,1.5-0.1,2.2-0.2
			c-0.3-1.6-1.2-3-2.4-3c-1.1,0-2,1.2-2,2.2C651.3,334.3,651.9,334.6,653.4,334.6z"/>
		<path class="st10" d="M693.5,333c0,1.9-0.8,4-2.5,5c-1.5,0.9-5.1,1.4-9.2,1.4h-2c-7.1,0-10.9-2.1-10.9-6c0-1.4,0.2-2.6,0.6-3.9
			l2.8-1.1l0.3,0.2c-0.2,1-0.3,1.8-0.3,2.7c0,3.3,2.6,4.2,8.8,4.2h1.8c3,0,5.9-0.3,7.1-0.7c0.1-1.1-0.5-3-1.7-5.4l3.3-2.6h0.4
			C693.1,329.3,693.5,331.6,693.5,333z M679.9,326.4l-3.3-2.3l2-3l3.1,2.1l1.4-2.1l3.3,2.2l-2,3.1l-3.1-2.2L679.9,326.4z"/>
		<path class="st10" d="M697.2,339v-21.2l3.7-1l0.3,0.2l-0.1,21.4l-3.7,0.8L697.2,339z"/>
		<path class="st10" d="M719.1,336.3c0,1.5-0.5,2.7-2.2,2.7h-2c-1.3,3.2-4.5,5.7-10,5.7l-1.9-3l0.2-0.4c3.9-0.1,6.5-0.8,7.9-2.3
			c-4.4,0-6.3-1.8-6.3-4.7c0-3,2.3-6.7,5.3-6.7c3.1,0,5.2,3.3,5.4,7.4h2.2C718.7,335,719.1,335.6,719.1,336.3z M711.1,335h1.2
			c-0.2-2-1.2-3.6-2.4-3.6c-1.1,0-2,1.2-2,2.2C707.9,334.6,708.8,335,711.1,335z"/>
		<path class="st10" d="M729,336.3c0,1.5-0.5,2.7-2.1,2.7c-1.2,0-2.9-0.3-4-1.8c-1.1,1.4-2.8,1.8-5.9,1.8l0.9-4
			c0.9,0,1.9-0.1,2.6-0.4c0.1-0.5,0.2-1.2,0.2-2.4v-14.4l3.7-1l0.3,0.2v15.2c0,2.5,0.7,2.8,3.2,2.8C728.7,335,729,335.6,729,336.3z"
			/>
		<path class="st10" d="M756.8,336.3c0,1.5-0.5,2.7-2.1,2.7c-1.5,0-3.4-0.4-4.7-1.3c-1.8,1.2-4,1.3-8.1,1.3h-3.4
			c-3.4,0-5.2-0.1-7.3-1c-1.1,0.7-2.4,1-4.3,1l0.9-4c0.7,0,1.6-0.1,2.1-0.3c0.3-0.7,0.5-1.8,0.8-3.3l4.3-0.6l0.1,0.1
			c-0.5,1.5-0.9,2.7-1.4,3.7c0.7,0.2,1.6,0.3,2.6,0.3c5.4-5.2,8.7-7.9,11.6-7.9c3.1,0,4.9,3.1,4.9,5.6c0,0.7-0.1,1.3-0.3,1.9
			c0.8,0.3,1.9,0.4,3.2,0.4C756.4,335,756.8,335.6,756.8,336.3z M749.1,334.6c0.2-0.3,0.3-0.7,0.3-1.2c0-1.1-0.8-2.5-2.1-2.5
			c-1.5,0-4,1.5-7.1,4.2h3.1C747.1,335,748.3,334.9,749.1,334.6z"/>
		<path class="st10" d="M755.5,335c0.9,0,1.9-0.1,2.6-0.4c0.1-0.5,0.2-1.2,0.2-2.4v-14.4l3.7-1l0.3,0.2v15c0,5.6-2.9,7-7.6,7
			L755.5,335z"/>
		<path class="st10" d="M766.2,339v-21.2l3.7-1l0.3,0.2l-0.1,21.4l-3.7,0.8L766.2,339z"/>
		<path class="st10" d="M784.5,335.8c0,4.4-3.4,8.8-10.6,8.9l-1.9-3l0.2-0.4c4.4-0.1,7.4-1.3,8.5-3.4c-0.8,0.1-1.6,0.2-2.6,0.2
			c-3,0-4.4-1.5-4.4-3.8c0-3,2.3-6.6,5.3-6.6C782.5,327.7,784.5,331.4,784.5,335.8z M779,334.6c0.8,0,1.5-0.1,2.2-0.2
			c-0.3-1.6-1.2-3-2.4-3c-1.1,0-2,1.2-2,2.2C776.9,334.3,777.5,334.6,779,334.6z"/>
		<path class="st10" d="M810.2,336.3c0,1.5-0.6,2.7-2.2,2.7c-2.3,0-4.1-0.6-5.2-2.1c-1,0.4-2,0.5-3,0.5c-3.5,0-5.7-1.7-5.7-4.1
			c0-2.7,2.7-5.6,7.7-7.3v-1.5l3.7-1.4l0.3,0.1v9.6c0,1.7,0.6,2.2,3,2.2C809.9,335,810.2,335.6,810.2,336.3z M801.8,333.4v-0.6v-3
			c-2.2,0.5-4,1.5-4.4,2.5c0.3,0.9,1.7,1.3,2.8,1.3C800.8,333.5,801.3,333.5,801.8,333.4z"/>
		<path class="st10" d="M820.1,336.3c0,1.5-0.5,2.7-2.1,2.7c-1.2,0-2.9-0.3-4-1.8c-1.1,1.4-2.8,1.8-5.9,1.8l0.9-4
			c0.9,0,1.9-0.1,2.6-0.4c0.1-0.5,0.2-1.2,0.2-2.4v-14.4l3.7-1l0.3,0.2v15.2c0,2.5,0.7,2.8,3.2,2.8
			C819.8,335,820.1,335.6,820.1,336.3z"/>
		<path class="st10" d="M818.8,335c0.9,0,1.9-0.1,2.6-0.4c0.1-0.5,0.2-1.2,0.2-2.4v-14.4l3.7-1l0.3,0.2v15c0,5.6-2.9,7-7.6,7
			L818.8,335z"/>
		<path class="st10" d="M860.5,333c0,1.9-0.8,4-2.5,5c-1.5,0.9-5.1,1.4-9.2,1.4h-2c-7.1,0-10.9-2.1-10.9-6c0-1.4,0.2-2.6,0.6-3.9
			l2.8-1.1l0.3,0.2c-0.2,1-0.3,1.8-0.3,2.7c0,3.3,2.6,4.2,8.8,4.2h1.8c3,0,5.9-0.3,7.1-0.7c0.1-1.1-0.5-3-1.7-5.4l3.3-2.6h0.4
			C860.1,329.3,860.5,331.6,860.5,333z M846.9,326.4l-3.3-2.3l2-3l3.1,2.1l1.4-2.1l3.3,2.2l-2,3.1l-3.1-2.2L846.9,326.4z"/>
		<path class="st10" d="M864.2,332.5v-14.7l3.7-1l0.3,0.2v15.2c0,2.2,0.9,2.8,3.2,2.8c0.9,0,1.3,0.5,1.3,1.3c0,1.6-0.6,2.7-2.1,2.7
			C866.3,339,864.2,337.1,864.2,332.5z"/>
		<path class="st10" d="M884.2,336.3c0,1.5-0.5,2.7-2.1,2.7c-2.4,0-4.6-0.5-5.8-1.5c-1.2,1-2.6,1.5-4.7,1.5h-1.1l0.9-4h0.7
			c0.8,0,1.8-0.1,2.2-0.4c0.3-0.8,0.7-2.4,1.1-4.5l4.1-1l0.3,0.2c-0.4,1.9-0.9,3.6-1.5,5c0.9,0.4,2.4,0.6,4.5,0.6
			C883.9,335,884.2,335.6,884.2,336.3z M878,341.3l3.3,2.2l-2,3.1l-3.1-2.2l-1.5,2.2l-3.3-2.3l2-3l3.2,2.2L878,341.3z"/>
		<path class="st10" d="M904.4,336.3c0,1.5-0.5,2.7-2.1,2.7c-5.2,0-7-1.3-8.3-3.5l-1.2,0.6c-4.4,2.2-7.3,2.9-10.8,2.9l0.9-4
			c3.2,0,5.1-0.4,8.8-1.7c1-0.4,1.8-0.6,2.5-0.9c-0.3-0.1-0.7-0.3-1.1-0.5c-2.6-1.2-4-1.6-5.3-1.6c-1.4,0-2.6,0.3-3.7,0.6l-0.2-0.1
			l1.4-3.6c0.7-0.4,1.9-0.7,2.9-0.7c1.1,0,2.4,0.4,4.9,1.5c3.4,1.5,5.4,2,7.6,2.1l-0.7,3.6c-0.9,0-1.7,0.1-2.7,0.4
			c1,0.6,2.6,0.8,5.8,0.8C904.1,335,904.4,335.6,904.4,336.3z"/>
		<path class="st10" d="M915.9,336.3c0,1.5-0.5,2.7-2.1,2.7c-2.4,0-4.6-0.5-5.8-1.5c-1.2,1-2.6,1.5-4.7,1.5h-1.1l0.9-4h0.7
			c0.8,0,1.8-0.1,2.2-0.4c0.3-0.8,0.7-2.4,1.1-4.5l4.1-1l0.3,0.2c-0.4,1.9-0.9,3.6-1.5,5c0.9,0.4,2.4,0.6,4.5,0.6
			C915.6,335,915.9,335.6,915.9,336.3z M907.6,326.1l-3.3-2.3l2-3l3.1,2.1l1.4-2.1l3.3,2.2l-2,3.1l-3.1-2.2L907.6,326.1z"/>
		<path class="st10" d="M914.6,335c0.9,0,1.9-0.1,2.6-0.4c0.1-0.5,0.2-1.2,0.2-2.4v-14.4l3.7-1l0.3,0.2v15c0,5.6-2.9,7-7.6,7
			L914.6,335z"/>
		<path class="st10" d="M925.3,339v-21.2l3.7-1l0.3,0.2l-0.1,21.4l-3.7,0.8L925.3,339z"/>
		<path class="st10" d="M457.5,386.1c0-2.4,1.3-4.7,3.1-7l1.9,1.2c-0.9,1.2-1.6,2.5-1.6,3.4c0,1.3,1.5,1.1,1.5,3
			c0,1.2-0.9,2.5-2.4,2.5C458.4,389.2,457.5,388,457.5,386.1z"/>
		<path class="st10" d="M479.4,386.3c0,1.5-0.5,2.7-2.1,2.7c-2.2,0-3.9-0.6-4.9-2.1c-1,0.4-1.9,0.5-2.8,0.5c-3.3,0-5.4-1.7-5.4-4.1
			c0-2.7,2.5-5.6,7.3-7.3v-1.5l3.5-1.4l0.3,0.1v9.6c0,1.7,0.6,2.2,2.9,2.2C479.1,385,479.4,385.6,479.4,386.3z M471.5,383.4v-0.6v-3
			c-2.1,0.5-3.8,1.5-4.2,2.5c0.3,0.9,1.6,1.3,2.7,1.3C470.5,383.5,471,383.5,471.5,383.4z"/>
		<path class="st10" d="M483.7,376.7c1,2.3,1.7,5.1,1.7,6.6c0,1.7-0.5,3.2-1.6,4.3c-1,1-2.4,1.4-5.4,1.4h-1l0.8-4h0.9
			c1.1,0,2.5-0.1,2.9-0.3c0.2-1.2-0.7-3.4-1.7-5.5l3-2.6H483.7z M480.5,374.2l-3.1-2.3l1.9-3l2.9,2.1l1.4-2.1l3.1,2.2l-1.9,3.1
			l-3-2.2L480.5,374.2z"/>
		<path class="st10" d="M488.8,382.5v-14.7l3.5-1l0.3,0.2v15.2c0,2.2,0.8,2.8,3,2.8c0.9,0,1.2,0.5,1.2,1.3c0,1.6-0.6,2.7-2,2.7
			C490.8,389,488.8,387.1,488.8,382.5z"/>
		<path class="st10" d="M507.1,372.9l-6.4,3.4c4.9,3.5,5.8,5.4,5.8,7.2c0,3.2-2.3,5.5-8.5,5.5h-3l0.8-4h2c2.4,0,4.8-0.4,5.6-0.8
			c0-1.5-3.5-4-6.5-5.9l-0.2-0.2l0.9-4.5l10.5-5.7l0.3,0.2L507.1,372.9z"/>
		<path class="st10" d="M521.5,386.3c0,1.5-0.5,2.7-2,2.7c-1.1,0-1.8-0.2-2.5-0.5c-1.2,3.2-4.7,5.5-9.1,6.3l-2-2.9l0.2-0.3
			c4.8-0.9,7.6-3,8.5-5c-0.7-1.6-1.5-3.4-2.2-5.1l2.7-3.3h0.4l1.3,3.9c0.9,2.5,1.5,2.8,3.6,2.8C521.2,385,521.5,385.6,521.5,386.3z"
			/>
		<path class="st10" d="M520.3,385h0.3c1.1,0,2.5-0.1,2.9-0.3c0.2-1.2-0.7-3.4-1.7-5.5l3.1-2.6h0.3c1,2.3,1.7,5.1,1.7,6.6
			c0,1.7-0.5,3.1-1.6,4.3c-1,1-2.4,1.4-5.4,1.4h-0.4L520.3,385z M521.3,394.5l2-3.1l3.2,2.3l-2,3.2L521.3,394.5z"/>
		<path class="st10" d="M540.2,385.8c0,4.4-3.2,8.8-10.1,8.9l-1.8-3l0.2-0.4c4.2-0.1,7-1.3,8.1-3.4c-0.7,0.1-1.5,0.2-2.4,0.2
			c-2.8,0-4.2-1.5-4.2-3.8c0-3,2.2-6.6,5-6.6C538.2,377.7,540.2,381.4,540.2,385.8z M534.9,384.6c0.8,0,1.4-0.1,2.1-0.2
			c-0.2-1.6-1.1-3-2.3-3c-1.1,0-1.9,1.2-1.9,2.2C532.9,384.3,533.5,384.6,534.9,384.6z"/>
		<path class="st10" d="M578.2,366.8l0.3,0.2v15c0,5.3-2.5,6.8-6.7,7h-0.2c0,0-0.1,0-0.1,0h-0.2c-1.1-0.1-2.5-0.5-3.5-1.8
			c-1,1.3-2.5,1.8-5.2,1.8h-0.2c0,0-0.1,0-0.1,0h-0.2c-2.1-0.1-3.6-0.7-4.6-2.1c-1,0.4-1.9,0.5-2.8,0.5c-3.3,0-5.4-1.7-5.4-4.1
			c0-2.7,2.5-5.6,7.3-7.3v-1.5l3.5-1.4l0.3,0.1v9.6c0,1.6,0.5,2.2,2.7,2.2c0.8,0,1.7-0.1,2.3-0.4c0.1-0.5,0.2-1.2,0.2-2.4v-10.9
			l3.5-1l0.3,0.2v11.7c0,2.4,0.7,2.8,2.8,2.8c0.8,0,1.7-0.1,2.3-0.4c0.1-0.5,0.2-1.2,0.2-2.4v-14.4L578.2,366.8z M556.6,383.4v-0.6
			v-3c-2.1,0.5-3.8,1.5-4.2,2.5c0.3,0.9,1.6,1.3,2.7,1.3C555.7,383.5,556.2,383.5,556.6,383.4z M562.9,365.6c0-0.4,0.1-1.3,0.3-1.9
			l2.1-0.1c-0.1,0.5-0.1,1.1-0.1,1.4c0,0.8,0.2,1.1,0.7,1.1c0.6,0,0.8-0.4,0.8-2.3l1.9-0.2c0,0.6,0,1,0,1.3c0,0.8,0.3,1.1,0.8,1.1
			c0.6,0,0.7-0.4,0.7-1.2c0-0.6-0.2-1.2-0.3-1.8l2.1-0.5c0.2,0.8,0.5,1.6,0.5,2.5c0,1.9-0.9,3.3-2.9,3.3c-0.8,0-1.4-0.3-1.8-0.8
			c-0.5,0.5-1.2,0.8-2,0.8C563.6,368.5,562.9,367.1,562.9,365.6z M568.9,361.9h-2.7v-4.1h2.7V361.9z M585.9,367l-0.1,21.4l-3.5,0.8
			l-0.2-0.2v-21.2l3.5-1L585.9,367z"/>
		<path class="st10" d="M610.6,386.3c0,1.5-0.5,2.7-2.1,2.7c-2.2,0-3.9-0.6-4.9-2.1c-1,0.4-1.9,0.5-2.8,0.5c-3.3,0-5.4-1.7-5.4-4.1
			c0-2.7,2.5-5.6,7.3-7.3v-1.5l3.5-1.4l0.3,0.1v9.6c0,1.7,0.6,2.2,2.9,2.2C610.3,385,610.6,385.6,610.6,386.3z M600,370.9l-3.1-2.3
			l1.9-3l2.9,2.1l1.4-2.1l3.1,2.2l-1.9,3.1l-3-2.2L600,370.9z M602.6,383.4v-0.6v-3c-2.1,0.5-3.8,1.5-4.2,2.5
			c0.3,0.9,1.6,1.3,2.7,1.3C601.7,383.5,602.2,383.5,602.6,383.4z"/>
		<path class="st10" d="M626.8,386.3c0,1.6-0.6,2.7-2.1,2.7c-1.3,0-2.3-0.3-3.1-1.1c-0.6,1-1.4,1.5-2.6,1.5c-1.3,0-3.3-0.7-5.4-2.2
			c-1.2,1.6-2.8,1.8-5,1.8l0.8-4c1.3,0,1.7-0.2,2.4-1.5c1.7-3,3.2-5.8,5.7-5.8c2.2,0,3.4,2.1,4.7,4.8c1,2.1,1.5,2.6,3.3,2.6
			C626.4,385,626.8,385.6,626.8,386.3z M619.8,385.1l-0.1-0.2c-0.9-2.3-1.7-3.4-2.4-3.4c-0.7,0-1.4,1.2-2.2,2.8
			c1.2,0.8,2.4,1.4,3.3,1.4C619.1,385.7,619.5,385.4,619.8,385.1z"/>
		<path class="st10" d="M642.4,381.1l-1,3.8c-2.1,0.3-5,1-8.1,2.1c-4.2,1.5-6.4,2-8.6,2l0.8-4c2.4,0,4-0.2,7.9-1.2
			c1.3-0.4,2.3-0.6,3.2-0.9c-0.4-0.2-0.9-0.4-1.5-0.7c-2.4-1.3-3.7-1.8-5-1.8c-1.4,0-2.5,0.3-3.5,0.6l-0.2-0.2l1.3-3.5
			c0.7-0.4,1.8-0.7,2.8-0.7c1.4,0,2.6,0.5,5.7,2.1C639.6,380.5,641,381,642.4,381.1z"/>
		<path class="st10" d="M639.6,391.9l0.2-0.3c5-0.9,8.5-3.4,8.5-4.5c-0.1-1.1-1.1-3.6-2.2-5.5l2.7-3.2h0.3c1.4,2.6,2,5.7,2,7.7
			c0,1.2-0.2,2.5-0.9,3.7c-1.3,2.5-4.7,4.5-8.7,5.2L639.6,391.9z"/>
		<path class="st10" d="M664.6,385.8c0,4.4-3.2,8.8-10.1,8.9l-1.8-3l0.2-0.4c4.2-0.1,7-1.3,8.1-3.4c-0.7,0.1-1.5,0.2-2.4,0.2
			c-2.8,0-4.2-1.5-4.2-3.8c0-3,2.2-6.6,5-6.6C662.7,377.7,664.6,381.4,664.6,385.8z M659.4,384.6c0.8,0,1.4-0.1,2.1-0.2
			c-0.2-1.6-1.1-3-2.2-3c-1.1,0-1.9,1.2-1.9,2.2C657.4,384.3,658,384.6,659.4,384.6z"/>
		<path class="st10" d="M698.9,386.3c0,1.5-0.4,2.7-2.1,2.7h-1.3c-0.5,3.8-5.4,6-12.1,6c-6.3,0-9.2-2.9-9.2-6.8
			c0-1.2,0.2-2.5,0.5-3.6l3.1-1.1l0.3,0.2c-0.2,1.3-0.3,2-0.3,2.8c0,2.8,1.4,4.6,6.2,4.6c3.6,0,7.2-0.7,8.2-1.9
			c0-0.8-0.9-1.3-4.2-2.2l1.1-3.8c3.2,1,5.6,1.9,8.5,1.9C698.7,385,698.9,385.6,698.9,386.3z M685.1,397.3l3.1,2.2l-1.9,3.1
			l-2.9-2.2l-1.4,2.2l-3.1-2.3l1.9-3l3,2.2L685.1,397.3z"/>
		<path class="st10" d="M709.1,386.3c0,1.5-0.5,2.7-2,2.7s-3.5-0.5-4.7-1.5c-1.2,1-2.7,1.5-4.9,1.5h-0.6l0.8-4h0.5
			c1.2,0,2-0.1,2.4-0.4c0.3-0.8,0.7-2.4,1-4.5l3.9-1l0.3,0.2c-0.4,1.9-0.9,3.6-1.5,5c0.9,0.4,2,0.6,3.4,0.6
			C708.8,385,709.1,385.6,709.1,386.3z M701.6,391.3l3.2,2.3l-2,3.2l-3.3-2.4L701.6,391.3z"/>
		<path class="st10" d="M719.3,386.3c0,1.5-0.5,2.7-2,2.7s-3.5-0.5-4.7-1.5c-1.2,1-2.7,1.5-4.9,1.5h-0.6l0.8-4h0.5
			c1.2,0,2-0.1,2.4-0.4c0.3-0.8,0.7-2.4,1-4.5l3.9-1l0.3,0.2c-0.4,1.9-0.9,3.6-1.5,5c0.9,0.4,2,0.6,3.4,0.6
			C719,385,719.3,385.6,719.3,386.3z M714.2,376.5L711,374l2-3.1l3.2,2.4L714.2,376.5z"/>
		<path class="st10" d="M718.1,385c0.9,0,1.8-0.1,2.4-0.4c0.1-0.5,0.2-1.2,0.2-2.4v-14.4l3.5-1l0.3,0.2v15c0,5.6-2.7,7-7.3,7
			L718.1,385z"/>
		<path class="st10" d="M728.2,389v-21.2l3.5-1l0.3,0.2l-0.1,21.4l-3.5,0.8L728.2,389z"/>
		<path class="st10" d="M742.6,382.5v-14.7l3.5-1l0.3,0.2v15.2c0,2.2,0.8,2.8,3,2.8c0.9,0,1.2,0.5,1.2,1.3c0,1.6-0.6,2.7-2,2.7
			C744.6,389,742.6,387.1,742.6,382.5z"/>
		<path class="st10" d="M764.9,386.3c0,1.8-0.7,2.7-2,2.7h-1.8c0.5,0.7,0.7,1.5,0.7,2.3c0,2.5-2.1,4.1-4.6,4.1
			c-3.7,0-6.2-2.3-6.7-6.4h-1.9l0.8-4h1.2c0.6-2.8,1.9-5.8,3.7-8l2.5-1.5l0.2,0c2.9,2.2,4.2,4.1,4.2,6c0,1.2-0.6,2.8-1.5,3.5h3.9
			C764.5,385,764.9,385.5,764.9,386.3z M755.3,388.7c-0.4,0-0.9,0.1-1.3,0.2c0.4,1.9,1.8,3,3.6,3c0.6,0,1.1-0.2,1.3-0.4
			C758.9,390.2,757.5,388.7,755.3,388.7z M754.1,385.3c2.1-0.2,3.6-1.3,3.6-3.3c0-0.9-0.4-1.7-1.2-2.7
			C755.2,381.1,754.5,383.2,754.1,385.3z"/>
		<path class="st10" d="M770.2,396.7l-2.9-2.2l-1.4,2.2l-3.1-2.3l1.9-3l3,2.2l1.4-2.2l3.1,2.2L770.2,396.7z M763.8,389h-1l0.8-4h0.9
			c1.1,0,2.5-0.1,2.9-0.3c0.2-1.2-0.7-3.4-1.7-5.5l3-2.6h0.3c1,2.3,1.7,5.1,1.7,6.6c0,1.7-0.5,3.2-1.6,4.3
			C768.2,388.6,766.9,389,763.8,389z"/>
		<path class="st10" d="M780.5,364.9c-1.5,0.2-3.5,0.4-5.9,0.4l-0.2-2.3c0.4,0,0.9,0,1.4,0c-0.4-0.6-0.7-1.3-0.7-2
			c0-1.6,1-2.8,2.7-2.8c0.6,0,1.5,0.2,2.2,0.5l-0.5,2.1c-0.5-0.2-1-0.3-1.3-0.3c-0.7,0-1,0.4-1,1c0,0.5,0.2,0.9,0.6,1.3
			c0.9-0.1,1.8-0.1,2.6-0.2L780.5,364.9z M779,366.8l0.3,0.2l-0.1,21.4l-3.5,0.8l-0.2-0.2v-21.2L779,366.8z"/>
		<path class="st10" d="M815.7,386.3c0,1.5-0.5,2.7-2,2.7c-1.6,0-3-0.5-4-1.8c-1.4,1.5-3.9,2.1-8.3,2.1h-1.9c-6.7,0-10.4-2.1-10.4-6
			c0-1.4,0.2-2.6,0.5-3.9l2.7-1.1l0.3,0.2c-0.2,1-0.3,1.8-0.3,2.7c0,3.3,2.4,4.2,8.4,4.2h1.7c2.4,0,4.4-0.4,5-0.8
			c0.1-0.5,0.2-1.2,0.2-2.4v-14.4l3.5-1l0.3,0.2v14.3c0,2.8,0.5,3.6,3,3.6C815.4,385,815.7,385.6,815.7,386.3z M797.6,377.8
			c0.5,0,0.9,0,1.4,0c-0.4-0.6-0.7-1.3-0.7-2c0-1.6,1-2.8,2.7-2.8c0.6,0,1.5,0.2,2.2,0.5l-0.5,2c-0.5-0.2-1-0.3-1.3-0.3
			c-0.6,0-1.1,0.3-1.1,1c0,0.5,0.2,1,0.6,1.4c0.9-0.1,1.8-0.1,2.6-0.2l0.2,2.1c-1.5,0.2-3.6,0.4-6,0.4L797.6,377.8z"/>
		<path class="st10" d="M826.6,386.3c0,1.5-0.5,2.7-2,2.7c-2.3,0-4.3-0.5-5.5-1.5c-1.1,1-2.5,1.5-4.4,1.5h-1l0.8-4h0.7
			c0.8,0,1.7-0.1,2.1-0.4c0.3-0.8,0.7-2.4,1.1-4.5l3.9-1l0.3,0.2c-0.4,1.9-0.9,3.6-1.4,5c0.9,0.4,2.2,0.6,4.3,0.6
			C826.3,385,826.6,385.6,826.6,386.3z M820.7,391.3l3.1,2.2l-1.9,3.1l-2.9-2.2l-1.4,2.2l-3.1-2.3l1.9-3l3,2.2L820.7,391.3z"/>
		<path class="st10" d="M836.1,386.3c0,1.5-0.5,2.7-2,2.7c-1.2,0-2.8-0.3-3.8-1.8c-1.1,1.4-2.6,1.8-5.6,1.8l0.8-4
			c0.9,0,1.8-0.1,2.4-0.4c0.1-0.5,0.2-1.2,0.2-2.4v-14.4l3.5-1l0.3,0.2v15.2c0,2.5,0.7,2.8,3,2.8C835.8,385,836.1,385.6,836.1,386.3
			z"/>
		<path class="st10" d="M848.7,384.6l-1.1,3.6c-2.4,0.5-6.1,0.8-13.5,0.8l0.8-4h2.2c-0.5-1-0.8-2-0.8-3.1c0-4,2.8-6.2,6.4-6.2
			c1.4,0,3.1,0.4,4.4,1l-0.4,3.4l-0.1,0.1c-1-0.3-2.2-0.6-3.1-0.6c-1.8,0-2.8,0.9-2.8,2.7c0,0.8,0.4,1.8,1,2.7
			c2.5-0.1,4.7-0.3,6.9-0.5L848.7,384.6z"/>
		<path class="st10" d="M870.8,385.5c0,2.7-0.7,4-2.4,4c-1.1,0-2.5-0.2-3.9-0.2c-0.9,0-1.9,0.2-2.7,0.5c-0.5,2.3,0.6,6.8,0.9,9.2
			l-3.4,1.6l-0.3-0.2c-0.4-2.7-1.2-6.3-1.2-8.3c0-3,2.1-6.7,6.7-6.7c1,0,2.1,0.1,3,0.3c-0.2-2.2-1.7-4.2-3.3-4.2
			c-1,0-1.9,0.8-2.4,2.5l-1.6,0.2l-0.3-0.2c0.3-4,2.8-6.3,5.2-6.3C868.5,377.7,870.8,381.8,870.8,385.5z"/>
		<path class="st10" d="M891,386.3c0,1.6-0.6,2.7-2,2.7c-3,0-4.9-1.1-5.7-3.6c-2.5,2.8-5.7,3.7-8.8,3.7l-1.8-3.8l0.1-0.2
			c2.3-0.1,4.8-0.4,6.9-1.3c-1.5-2.6-3.3-4.7-6.7-8l1.2-4.2l0.2-0.1c3.8,3.8,6.7,8.1,7.8,10.5c0.2-0.3,0.5-0.6,0.7-1v-13.2l3.5-1
			l0.3,0.2v15.2c0,2.2,0.8,2.8,3,2.8C890.7,385,891,385.5,891,386.3z"/>
		<path class="st10" d="M916.7,386.3c0,1.5-0.5,2.7-2,2.7c-1.5,0-3.3-0.5-4.6-1.4c-1,0.9-2.4,1.4-3.9,1.4h0h0c-1.7,0-2.9-0.4-4-0.9
			c-0.8,0.6-1.7,0.9-2.9,0.9c-1.9,0-3.6-0.7-4.7-1.4c-1.2,1-2.9,1.4-5.7,1.4l0.8-4c2,0,2.8-0.1,3.3-0.4c0.2-0.6,0.5-2.2,0.7-3.6
			l4.1-0.7l0.1,0.1c-0.5,1.6-0.9,2.9-1.4,4c0.9,0.3,2,0.5,3,0.5c0.5,0,0.9-0.1,1.1-0.3c0.2-0.4,0.6-2.2,0.9-3.7l3.8-0.7l0.1,0.1
			c-0.5,1.6-0.9,3-1.3,4.2c0.8,0.2,1.5,0.3,2.3,0.3c0.6,0,1.2-0.1,1.7-0.4c0.1-0.4,0.2-0.9,0.2-1.7c0-0.9-0.1-2-0.2-3l3.8-1.5
			l0.2,0.1c0.1,0.8,0.1,1.4,0.1,2.1c0,1.4-0.2,2.7-0.5,3.7c0.9,0.4,2.1,0.6,3.5,0.6C916.4,385,916.7,385.6,916.7,386.3z"/>
		<path class="st10" d="M915.5,385c0.9,0,1.8-0.1,2.4-0.4c0.1-0.5,0.2-1.2,0.2-2.4v-14.4l3.5-1l0.3,0.2v15c0,5.6-2.7,7-7.3,7
			L915.5,385z"/>
		<path class="st10" d="M925.6,389v-21.2l3.5-1l0.3,0.2l-0.1,21.4l-3.5,0.8L925.6,389z"/>
		<path class="st10" d="M484.3,436.1c0-2.4,1.3-4.7,3.2-7l2,1.2c-0.9,1.2-1.7,2.5-1.7,3.4c0,1.3,1.6,1.1,1.6,3
			c0,1.2-0.9,2.5-2.5,2.5C485.2,439.2,484.3,438,484.3,436.1z"/>
		<path class="st10" d="M513.5,436.3c0,1.5-0.5,2.7-2.1,2.7c-0.8,0-1.5-0.2-2.1-0.6c-1.2,4.5-4.9,6.5-9.8,6.5c-5,0-7.8-2.7-7.8-6.7
			c0-1.5,0.4-3,0.6-3.9l2.9-1.1l0.4,0.1c-0.2,1.2-0.2,2.1-0.2,3c0,2.6,1.2,4.5,5,4.5c2.8,0,4.7-1.1,5.5-2.2c0.4-2-0.6-4.4-1.8-6.9
			l3.5-2.5h0.2c0.3,0.7,1.1,3.5,1.5,4.2c0.5,1,1.3,1.4,3,1.4C513.1,435,513.5,435.6,513.5,436.3z M500.4,428.9l-3.4-2.4l2.1-3.1
			l3.4,2.4L500.4,428.9z"/>
		<path class="st10" d="M525,436.3c0,1.5-0.5,2.7-2.1,2.7c-2.4,0-4.6-0.5-5.8-1.5c-1.2,1-2.6,1.5-4.7,1.5h-1.1l0.9-4h0.7
			c0.8,0,1.8-0.1,2.2-0.4c0.3-0.8,0.7-2.4,1.1-4.5l4.1-1l0.3,0.2c-0.4,1.9-0.9,3.6-1.5,5c0.9,0.4,2.4,0.6,4.5,0.6
			C524.7,435,525,435.6,525,436.3z M518.8,441.3l3.3,2.2l-2,3.1l-3.1-2.2l-1.5,2.2l-3.3-2.3l2-3l3.2,2.2L518.8,441.3z"/>
		<path class="st10" d="M545.2,436.3c0,1.5-0.5,2.7-2.1,2.7c-5.2,0-7-1.3-8.3-3.5l-1.2,0.6c-4.4,2.2-7.3,2.9-10.8,2.9l0.9-4
			c3.2,0,5.1-0.4,8.8-1.7c1-0.4,1.8-0.6,2.5-0.9c-0.3-0.1-0.7-0.3-1.1-0.5c-2.6-1.2-4-1.6-5.3-1.6c-1.4,0-2.6,0.3-3.7,0.6l-0.2-0.1
			l1.4-3.6c0.7-0.4,1.9-0.7,2.9-0.7c1.1,0,2.4,0.4,4.9,1.5c3.4,1.5,5.4,2,7.6,2.1l-0.7,3.6c-0.9,0-1.7,0.1-2.7,0.4
			c1,0.6,2.6,0.8,5.8,0.8C545,435,545.2,435.6,545.2,436.3z"/>
		<path class="st10" d="M544,435c0.9,0,1.9-0.1,2.6-0.4c0.1-0.5,0.2-1.2,0.2-2.4v-14.4l3.7-1l0.3,0.2v15c0,5.6-2.9,7-7.6,7L544,435z
			"/>
		<path class="st10" d="M554.7,432.5v-14.7l3.7-1l0.3,0.2v15.2c0,2.2,0.9,2.8,3.2,2.8c0.9,0,1.3,0.5,1.3,1.3c0,1.6-0.6,2.7-2.1,2.7
			C556.8,439,554.7,437.1,554.7,432.5z"/>
		<path class="st10" d="M590.9,436.3c0,1.5-0.5,2.7-2.1,2.7c-1.5,0-3.4-0.4-4.7-1.3c-1.8,1.2-4,1.3-8.1,1.3h-3.4
			c-3.4,0-5.2-0.1-7.3-1c-1.1,0.7-2.4,1-4.3,1l0.9-4c0.7,0,1.6-0.1,2.1-0.3c0.3-0.7,0.5-1.8,0.8-3.3l4.3-0.6l0.1,0.1
			c-0.5,1.5-0.9,2.7-1.4,3.7c0.7,0.2,1.6,0.3,2.6,0.3c5.4-5.2,8.7-7.9,11.6-7.9c3.1,0,4.9,3.1,4.9,5.6c0,0.7-0.1,1.3-0.3,1.9
			c0.8,0.3,1.9,0.4,3.2,0.4C590.6,435,590.9,435.6,590.9,436.3z M583.3,434.6c0.2-0.3,0.3-0.7,0.3-1.2c0-1.1-0.8-2.5-2.1-2.5
			c-1.5,0-4,1.5-7.1,4.2h3.1C581.2,435,582.4,434.9,583.3,434.6z"/>
		<path class="st10" d="M589.6,435c0.9,0,1.9-0.1,2.6-0.4c0.1-0.5,0.2-1.2,0.2-2.4v-14.4l3.7-1l0.3,0.2v15c0,5.6-2.9,7-7.6,7
			L589.6,435z"/>
		<path class="st10" d="M600.3,439v-21.2l3.7-1l0.3,0.2l-0.1,21.4l-3.7,0.8L600.3,439z"/>
		<path class="st10" d="M644.6,416.8l0.3,0.2v15c0,5.3-2.6,6.8-7,7h-0.2c0,0-0.1,0-0.1,0h-0.3c-1.2-0.1-2.7-0.5-3.6-1.8
			c-1.1,1.3-2.6,1.8-5.4,1.8H628c0,0-0.1,0-0.1,0h-0.2c-2.2-0.1-3.8-0.7-4.8-2.1c-1,0.4-2,0.5-3,0.5c-3.5,0-5.7-1.7-5.7-4.1
			c0-2.7,2.7-5.6,7.7-7.3v-1.5l3.7-1.4l0.3,0.1v9.6c0,1.6,0.6,2.2,2.8,2.2c0.9,0,1.8-0.1,2.4-0.4c0.1-0.5,0.2-1.2,0.2-2.4v-10.9
			l3.7-1l0.3,0.2v11.7c0,2.4,0.7,2.8,2.9,2.8c0.9,0,1.8-0.1,2.4-0.4c0.1-0.5,0.2-1.2,0.2-2.4v-14.4L644.6,416.8z M621.9,433.4v-0.6
			v-3c-2.2,0.5-4,1.5-4.4,2.5c0.3,0.9,1.7,1.3,2.8,1.3C620.9,433.5,621.4,433.5,621.9,433.4z M628.5,415.6c0-0.4,0.1-1.3,0.3-1.9
			l2.2-0.1c-0.1,0.5-0.1,1.1-0.1,1.4c0,0.8,0.3,1.1,0.8,1.1c0.6,0,0.9-0.4,0.9-2.3l2-0.2c0,0.6,0,1,0,1.3c0,0.8,0.4,1.1,0.9,1.1
			c0.6,0,0.8-0.4,0.8-1.2c0-0.6-0.2-1.2-0.3-1.8l2.2-0.5c0.3,0.8,0.5,1.6,0.5,2.5c0,1.9-1,3.3-3.1,3.3c-0.8,0-1.5-0.3-1.9-0.8
			c-0.5,0.5-1.2,0.8-2.1,0.8C629.2,418.5,628.5,417.1,628.5,415.6z M634.8,411.9H632v-4.1h2.8V411.9z M652.8,417l-0.1,21.4l-3.7,0.8
			l-0.3-0.2v-21.2l3.7-1L652.8,417z"/>
		<path class="st10" d="M662.8,438.9l0.6-3.9l0.2-0.1c0.7,0.2,2.6,0.3,3.7,0.3c1.4,0,3.8-0.2,4.6-0.6c-0.5-1.9-2.9-4.9-5.2-7
			l2.5-3.6h0.3c3,3.2,5.5,6.8,5.5,9.8c0,3.6-3.2,5.5-7.9,5.5C665.7,439.3,663.6,439.1,662.8,438.9z"/>
		<path class="st10" d="M678.3,432.5v-14.7l3.7-1l0.3,0.2v15.2c0,2.2,0.9,2.8,3.2,2.8c0.9,0,1.3,0.5,1.3,1.3c0,1.6-0.6,2.7-2.1,2.7
			C680.4,439,678.3,437.1,678.3,432.5z"/>
		<path class="st10" d="M697.5,436.3c0,1.5-0.5,2.7-2.1,2.7c-1.6,0-3.7-0.5-5-1.5c-1.2,1-2.8,1.5-5.1,1.5h-0.6l0.9-4h0.6
			c1.2,0,2.1-0.1,2.5-0.4c0.3-0.8,0.7-2.4,1.1-4.5l4.1-1l0.3,0.2c-0.4,1.9-0.9,3.6-1.5,5c0.9,0.4,2.1,0.6,3.6,0.6
			C697.2,435,697.5,435.6,697.5,436.3z M689.7,441.3l3.4,2.3l-2.1,3.2l-3.4-2.4L689.7,441.3z"/>
		<path class="st10" d="M710.8,434.6l-1.2,3.6c-2.5,0.5-6.4,0.8-14.2,0.8l0.9-4h2.3c-0.5-1-0.8-2-0.8-3.1c0-4,3-6.2,6.7-6.2
			c1.5,0,3.2,0.4,4.6,1l-0.4,3.4l-0.1,0.1c-1-0.3-2.3-0.6-3.3-0.6c-1.9,0-3,0.9-3,2.7c0,0.8,0.4,1.8,1.1,2.7c2.6-0.1,5-0.3,7.2-0.5
			L710.8,434.6z"/>
		<path class="st10" d="M720.5,438.2c0-1.2,0.3-2.5,0.5-3.6l3.3-1.1l0.4,0.2c-0.3,1.3-0.4,2-0.4,2.8c0,2.8,1.5,4.6,6.5,4.6
			c3.8,0,7.6-0.7,8.6-1.9c0-0.7-0.8-1.6-5.2-2.5l1.1-3.4c6.1,1.4,7.6,3,7.6,5c-0.2,4.3-5.7,6.8-12.8,6.8
			C723.6,445,720.5,442,720.5,438.2z"/>
		<path class="st10" d="M752.6,435.9c0,1.5-0.5,2.7-2.1,2.7c-2.6,0-4.4-1.2-5.3-3.5c-1.6,0.8-3.8,1.2-7.2,1.3l-2.6-3.3
			c3.4-0.1,7.1-0.6,8.5-1.2c0.2-0.6,0.3-1.6,0.3-2.4v-12l3.7-1l0.3,0.2v13c0,3.1,0.5,5,3.2,5C752.3,434.7,752.6,435.2,752.6,435.9z"
			/>
		<path class="st10" d="M765.8,434.2l-1.2,3.6c-2.5,0.5-6.4,0.8-14.2,0.8l0.9-4h2.3c-0.5-1-0.8-2-0.8-3.1c0-4,3-6.2,6.7-6.2
			c1.5,0,3.2,0.4,4.6,1l-0.4,3.4l-0.1,0.1c-1-0.3-2.3-0.6-3.3-0.6c-1.9,0-3,0.9-3,2.7c0,0.8,0.4,1.8,1.1,2.7c2.6-0.1,5-0.3,7.2-0.5
			L765.8,434.2z"/>
		<path class="st10" d="M779.5,435.8c0,4.4-3.4,8.8-10.6,8.9l-1.9-3l0.2-0.4c4.4-0.1,7.4-1.3,8.5-3.4c-0.8,0.1-1.6,0.2-2.6,0.2
			c-3,0-4.4-1.5-4.4-3.8c0-3,2.3-6.6,5.3-6.6C777.5,427.7,779.5,431.4,779.5,435.8z M774,434.6c0.8,0,1.5-0.1,2.2-0.2
			c-0.3-1.6-1.2-3-2.4-3c-1.1,0-2,1.2-2,2.2C771.9,434.3,772.5,434.6,774,434.6z"/>
		<path class="st10" d="M790.4,432.5v-14.7l3.7-1l0.3,0.2v15.2c0,2.2,0.9,2.8,3.2,2.8c0.9,0,1.3,0.5,1.3,1.3c0,1.6-0.6,2.7-2.1,2.7
			C792.5,439,790.4,437.1,790.4,432.5z"/>
		<path class="st10" d="M809.6,436.3c0,1.5-0.5,2.7-2.1,2.7c-1.6,0-3.7-0.5-5-1.5c-1.2,1-2.8,1.5-5.1,1.5h-0.6l0.9-4h0.6
			c1.2,0,2.1-0.1,2.5-0.4c0.3-0.8,0.7-2.4,1.1-4.5l4.1-1l0.3,0.2c-0.4,1.9-0.9,3.6-1.5,5c0.9,0.4,2.1,0.6,3.6,0.6
			C809.3,435,809.6,435.6,809.6,436.3z M804.2,426.5l-3.4-2.4l2.1-3.1l3.4,2.4L804.2,426.5z"/>
		<path class="st10" d="M821.1,436.3c0,1.5-0.5,2.7-2.1,2.7c-2.4,0-4.6-0.5-5.8-1.5c-1.2,1-2.6,1.5-4.7,1.5h-1.1l0.9-4h0.7
			c0.8,0,1.8-0.1,2.2-0.4c0.3-0.8,0.7-2.4,1.1-4.5l4.1-1l0.3,0.2c-0.4,1.9-0.9,3.6-1.5,5c0.9,0.4,2.4,0.6,4.5,0.6
			C820.8,435,821.1,435.6,821.1,436.3z M814.9,441.3l3.3,2.2l-2,3.1l-3.1-2.2l-1.5,2.2l-3.3-2.3l2-3l3.2,2.2L814.9,441.3z"/>
		<path class="st10" d="M831.1,436.3c0,1.5-0.5,2.7-2.1,2.7c-1.2,0-2.9-0.3-4-1.8c-1.1,1.4-2.8,1.8-5.9,1.8l0.9-4
			c0.9,0,1.9-0.1,2.6-0.4c0.1-0.5,0.2-1.2,0.2-2.4v-14.4l3.7-1l0.3,0.2v15.2c0,2.5,0.7,2.8,3.2,2.8
			C830.7,435,831.1,435.6,831.1,436.3z"/>
		<path class="st10" d="M844.3,434.6l-1.2,3.6c-2.5,0.5-6.4,0.8-14.2,0.8l0.9-4h2.3c-0.5-1-0.8-2-0.8-3.1c0-4,3-6.2,6.7-6.2
			c1.5,0,3.2,0.4,4.6,1l-0.4,3.4l-0.1,0.1c-1-0.3-2.3-0.6-3.3-0.6c-1.9,0-3,0.9-3,2.7c0,0.8,0.4,1.8,1.1,2.7c2.6-0.1,5-0.3,7.2-0.5
			L844.3,434.6z"/>
		<path class="st10" d="M867.6,435.5c0,2.7-0.7,4-2.5,4c-1.2,0-2.6-0.2-4.1-0.2c-1,0-2,0.2-2.8,0.5c-0.5,2.3,0.6,6.8,1,9.2l-3.6,1.6
			l-0.3-0.2c-0.4-2.7-1.2-6.3-1.2-8.3c0-3,2.2-6.7,7-6.7c1.1,0,2.2,0.1,3.1,0.3c-0.2-2.2-1.8-4.2-3.4-4.2c-1.1,0-2,0.8-2.5,2.5
			l-1.7,0.2l-0.3-0.2c0.3-4,3-6.3,5.4-6.3C865.2,427.7,867.6,431.8,867.6,435.5z"/>
		<path class="st10" d="M888.9,436.3c0,1.6-0.6,2.7-2.1,2.7c-3.2,0-5.2-1.1-6-3.6c-2.6,2.8-6,3.7-9.3,3.7l-1.9-3.8l0.1-0.2
			c2.5-0.1,5.1-0.4,7.2-1.3c-1.6-2.6-3.5-4.7-7-8l1.2-4.2l0.2-0.1c4,3.8,7,8.1,8.3,10.5c0.3-0.3,0.5-0.6,0.7-1v-13.2l3.7-1l0.3,0.2
			v15.2c0,2.2,0.9,2.8,3.2,2.8C888.5,435,888.9,435.5,888.9,436.3z"/>
		<path class="st10" d="M915.9,436.3c0,1.5-0.5,2.7-2.1,2.7c-1.5,0-3.5-0.5-4.8-1.4c-1.1,0.9-2.5,1.4-4.1,1.4h0h0
			c-1.8,0-3.1-0.4-4.2-0.9c-0.8,0.6-1.8,0.9-3,0.9c-2,0-3.8-0.7-4.9-1.4c-1.3,1-3.1,1.4-6,1.4l0.9-4c2.1,0,2.9-0.1,3.5-0.4
			c0.3-0.6,0.6-2.2,0.8-3.6l4.3-0.7l0.1,0.1c-0.5,1.6-1,2.9-1.4,4c0.9,0.3,2.1,0.5,3.2,0.5c0.5,0,0.9-0.1,1.2-0.3
			c0.3-0.4,0.6-2.2,1-3.7l4-0.7l0.1,0.1c-0.5,1.6-0.9,3-1.4,4.2c0.8,0.2,1.6,0.3,2.4,0.3c0.6,0,1.3-0.1,1.8-0.4
			c0.1-0.4,0.2-0.9,0.2-1.7c0-0.9-0.1-2-0.3-3l4-1.5l0.2,0.1c0.1,0.8,0.1,1.4,0.1,2.1c0,1.4-0.2,2.7-0.5,3.7
			c0.9,0.4,2.2,0.6,3.7,0.6C915.6,435,915.9,435.6,915.9,436.3z"/>
		<path class="st10" d="M914.6,435c0.9,0,1.9-0.1,2.6-0.4c0.1-0.5,0.2-1.2,0.2-2.4v-14.4l3.7-1l0.3,0.2v15c0,5.6-2.9,7-7.6,7
			L914.6,435z"/>
		<path class="st10" d="M925.3,439v-21.2l3.7-1l0.3,0.2l-0.1,21.4l-3.7,0.8L925.3,439z"/>
		<path class="st10" d="M720.7,466.8l0.3,0.2v15c0,5.3-2.6,6.8-7,7h-0.2c0,0-0.1,0-0.1,0h-0.3c-1.2-0.1-2.7-0.5-3.6-1.8
			c-1.1,1.3-2.6,1.8-5.4,1.8h-0.2c0,0-0.1,0-0.1,0h-0.2c-2.2-0.1-3.8-0.7-4.8-2.1c-1,0.4-2,0.5-3,0.5c-3.5,0-5.7-1.7-5.7-4.1
			c0-2.7,2.7-5.6,7.7-7.3v-1.5l3.7-1.4l0.3,0.1v9.6c0,1.6,0.6,2.2,2.8,2.2c0.9,0,1.8-0.1,2.4-0.4c0.1-0.5,0.2-1.2,0.2-2.4v-10.9
			l3.7-1l0.3,0.2v11.7c0,2.4,0.7,2.8,2.9,2.8c0.9,0,1.8-0.1,2.4-0.4c0.1-0.5,0.2-1.2,0.2-2.4v-14.4L720.7,466.8z M697.9,483.4v-0.6
			v-3c-2.2,0.5-4,1.5-4.4,2.5c0.3,0.9,1.7,1.3,2.8,1.3C697,483.5,697.5,483.5,697.9,483.4z M704.6,465.6c0-0.4,0.1-1.3,0.3-1.9
			l2.2-0.1c-0.1,0.5-0.1,1.1-0.1,1.4c0,0.8,0.3,1.1,0.8,1.1c0.6,0,0.9-0.4,0.9-2.3l2-0.2c0,0.6,0,1,0,1.3c0,0.8,0.4,1.1,0.9,1.1
			c0.6,0,0.8-0.4,0.8-1.2c0-0.6-0.2-1.2-0.3-1.8l2.2-0.5c0.3,0.8,0.5,1.6,0.5,2.5c0,1.9-1,3.3-3.1,3.3c-0.8,0-1.5-0.3-1.9-0.8
			c-0.5,0.5-1.2,0.8-2.1,0.8C705.3,468.5,704.6,467.1,704.6,465.6z M710.9,461.9h-2.8v-4.1h2.8V461.9z M728.8,467l-0.1,21.4
			l-3.7,0.8l-0.3-0.2v-21.2l3.7-1L728.8,467z"/>
		<path class="st10" d="M749.3,480c1.1,1.5,1.7,3,1.7,4.4c0,2.9-1.7,4.6-6.6,4.6H740l0.2-3.9c2.1-1.2,4.1-2.5,5.5-4.5
			c-2.1-1.9-4.9-3.9-6.8-5.1l1.2-3.9l0.2-0.1c2.7,2,5,4,6.8,5.9c0.2-0.9,0.4-1.9,0.4-3c0-1.8-0.4-4.4-0.8-5.8l3.6-1.8l0.3,0.1
			c0.3,1.6,0.7,4.5,0.7,6.3C751.2,476,750.4,478.2,749.3,480z M747.5,482.5c-1.1,1.1-2.2,2-3,2.6h0.7c1.9,0,2.8-0.2,3.3-0.6
			C748.5,483.9,748.1,483.2,747.5,482.5z"/>
		<path class="st10" d="M760.5,497.5c-1.6,0.2-3.7,0.4-6.2,0.4l-0.2-2.3c0.4,0,1,0,1.4,0c-0.4-0.6-0.7-1.3-0.7-2
			c0-1.6,1-2.8,2.8-2.8c0.7,0,1.5,0.2,2.4,0.5l-0.5,2.1c-0.6-0.2-1-0.3-1.4-0.3c-0.7,0-1.1,0.4-1.1,1c0,0.5,0.2,0.9,0.6,1.3
			c0.9-0.1,1.9-0.1,2.7-0.2L760.5,497.5z M755.5,489.2l-0.3-0.2v-21.2l3.7-1l0.3,0.2l-0.1,21.4L755.5,489.2z"/>
		<path class="st10" d="M785.2,486.3c0,1.5-0.6,2.7-2.2,2.7c-2.3,0-4.1-0.6-5.2-2.1c-1,0.4-2,0.5-3,0.5c-3.5,0-5.7-1.7-5.7-4.1
			c0-2.7,2.7-5.6,7.7-7.3v-1.5l3.7-1.4l0.3,0.1v9.6c0,1.7,0.6,2.2,3,2.2C784.9,485,785.2,485.6,785.2,486.3z M776.9,483.4v-0.6v-3
			c-2.2,0.5-4,1.5-4.4,2.5c0.3,0.9,1.7,1.3,2.8,1.3C775.9,483.5,776.4,483.5,776.9,483.4z"/>
		<path class="st10" d="M784,485c0.9,0,1.9-0.1,2.6-0.4c0.1-0.5,0.2-1.2,0.2-2.4v-14.4l3.7-1l0.3,0.2v15c0,5.6-2.9,7-7.6,7L784,485z
			"/>
		<path class="st10" d="M799.9,497.5c-1.6,0.2-3.7,0.4-6.2,0.4l-0.2-2.3c0.4,0,1,0,1.4,0c-0.4-0.6-0.7-1.3-0.7-2
			c0-1.6,1-2.8,2.8-2.8c0.7,0,1.5,0.2,2.4,0.5l-0.5,2.1c-0.6-0.2-1-0.3-1.4-0.3c-0.7,0-1.1,0.4-1.1,1c0,0.5,0.2,0.9,0.6,1.3
			c0.9-0.1,1.9-0.1,2.7-0.2L799.9,497.5z M794.9,489.2l-0.3-0.2v-21.2l3.7-1l0.3,0.2l-0.1,21.4L794.9,489.2z"/>
		<path class="st10" d="M819.2,480c1.1,1.5,1.7,3,1.7,4.4c0,2.9-1.7,4.6-6.6,4.6h-4.5l0.2-3.9c2.1-1.2,4.1-2.5,5.5-4.5
			c-2.1-1.9-4.9-3.9-6.8-5.1l1.2-3.9l0.2-0.1c2.7,2,5,4,6.8,5.9c0.2-0.9,0.4-1.9,0.4-3c0-1.8-0.4-4.4-0.8-5.8l3.6-1.8l0.3,0.1
			c0.3,1.6,0.7,4.5,0.7,6.3C821.1,476,820.3,478.2,819.2,480z M817.3,482.5c-1.1,1.1-2.2,2-3,2.6h0.7c1.9,0,2.8-0.2,3.3-0.6
			C818.3,483.9,818,483.2,817.3,482.5z"/>
		<path class="st10" d="M831.6,488.3c0-1.1,0.3-3,0.6-3.9l2.9-1.1l0.4,0.1c-0.2,0.8-0.2,2-0.2,3c0,3,1.6,4.5,5,4.5
			c2.4,0,4.5-0.8,5.5-2.2c0.3-1.6-0.3-3.5-1.8-6.9l3.5-2.5h0.2c1,2.2,1.7,5.1,1.7,6.9c0,5.2-3.9,8.7-9.9,8.7
			C834.5,495,831.6,492.4,831.6,488.3z M836.9,476.4l2.1-3.1l3.4,2.4l-2.1,3.2L836.9,476.4z"/>
		<path class="st10" d="M858.1,464.9c-1.6,0.2-3.7,0.4-6.2,0.4l-0.2-2.3c0.4,0,1,0,1.5,0c-0.4-0.6-0.7-1.3-0.7-2
			c0-1.6,1-2.8,2.8-2.8c0.7,0,1.5,0.2,2.4,0.5l-0.5,2.1c-0.6-0.2-1-0.3-1.4-0.3c-0.7,0-1.1,0.4-1.1,1c0,0.5,0.2,0.9,0.6,1.3
			c1-0.1,1.9-0.1,2.7-0.2L858.1,464.9z M856.6,466.8l0.3,0.2l-0.1,21.4l-3.7,0.8l-0.3-0.2v-21.2L856.6,466.8z"/>
		<path class="st10" d="M883.7,486.3c0,1.5-0.5,2.7-2.2,2.7c-2,0-3.4-0.4-4.3-1.5c-1.5,1.1-3.9,1.8-6.6,1.8c-0.8,0-2.6-0.1-3.7-0.4
			l0.6-3.9l0.2-0.1c1.1,0.2,2.5,0.3,3.3,0.3c1.5,0,3.4-0.2,4.6-0.7c-0.7-1.3-2.4-4.7-3.7-7.2l2.9-3.3h0.4c0.8,2,2.9,6.9,3.4,8
			c1.1,2.7,1.8,3,3.9,3C883.4,485,883.7,485.6,883.7,486.3z"/>
		<path class="st10" d="M898.7,486.3c0,1.8-0.7,2.7-2.1,2.7h-1.9c0.5,0.7,0.7,1.5,0.7,2.3c0,2.5-2.2,4.1-4.9,4.1
			c-3.9,0-6.5-2.3-7-6.4h-2l0.9-4h1.3c0.6-2.8,2-5.8,3.9-8l2.6-1.5l0.3,0c3,2.2,4.4,4.1,4.4,6c0,1.2-0.7,2.8-1.6,3.5h4.1
			C898.2,485,898.7,485.5,898.7,486.3z M888.6,488.7c-0.4,0-0.9,0.1-1.4,0.2c0.4,1.9,1.9,3,3.8,3c0.6,0,1.1-0.2,1.4-0.4
			C892.4,490.2,890.9,488.7,888.6,488.7z M887.3,485.3c2.2-0.2,3.7-1.3,3.7-3.3c0-0.9-0.4-1.7-1.3-2.7
			C888.5,481.1,887.7,483.2,887.3,485.3z"/>
		<path class="st10" d="M921.6,483.3c0,3.8-3,5.7-7,5.7c-1.8,0-3.1-0.4-4.2-0.9c-0.8,0.6-1.8,0.9-3,0.9c-2,0-3.8-0.7-4.9-1.4
			c-1.3,1-3.1,1.4-6,1.4l0.9-4c2.1,0,2.9-0.1,3.5-0.4c0.3-0.6,0.6-2.2,0.8-3.6l4.3-0.7l0.1,0.1c-0.5,1.6-1,2.9-1.4,4
			c0.9,0.3,2.1,0.5,3.2,0.5c0.5,0,0.9-0.1,1.2-0.3c0.3-0.4,0.6-2.2,1-3.7l4-0.7l0.1,0.1c-0.5,1.6-0.9,3-1.4,4.2
			c0.8,0.2,1.6,0.3,2.4,0.3c1.1,0,2.2-0.1,2.9-0.4c0.2-1.2-0.8-3.6-1.6-5.3l3.5-2.6l0.2,0C921,479,921.6,481.4,921.6,483.3z
			 M909.8,476.1l-3.3-2.3l2-3l3.1,2.1l1.5-2.1l3.3,2.2l-2,3.1l-3.1-2.2L909.8,476.1z M911.5,471.6l-3.3-2.3l2-3l3.3,2.2L911.5,471.6
			z"/>
		<path class="st10" d="M930.6,464.9c-1.6,0.2-3.7,0.4-6.2,0.4l-0.2-2.3c0.4,0,1,0,1.5,0c-0.4-0.6-0.7-1.3-0.7-2
			c0-1.6,1-2.8,2.8-2.8c0.7,0,1.5,0.2,2.4,0.5l-0.5,2.1c-0.6-0.2-1-0.3-1.4-0.3c-0.7,0-1.1,0.4-1.1,1c0,0.5,0.2,0.9,0.6,1.3
			c1-0.1,1.9-0.1,2.7-0.2L930.6,464.9z M929,466.8l0.3,0.2l-0.1,21.4l-3.7,0.8l-0.3-0.2v-21.2L929,466.8z"/>
		<path class="st10" d="M565.5,536.9c0-1.3,1.2-2.5,2.6-2.5c1.4,0,2.6,1.2,2.6,2.5c0,1.4-1.2,2.6-2.6,2.6
			C566.7,539.4,565.5,538.3,565.5,536.9z"/>
		<path class="st10" d="M588.2,536.3c0,1.5-0.6,2.7-2.2,2.7c-2.3,0-4.1-0.6-5.2-2.1c-1,0.4-2,0.5-3,0.5c-3.5,0-5.7-1.7-5.7-4.1
			c0-2.7,2.7-5.6,7.7-7.3v-1.5l3.7-1.4l0.3,0.1v9.6c0,1.7,0.6,2.2,3,2.2C587.9,535,588.2,535.6,588.2,536.3z M579.8,533.4v-0.6v-3
			c-2.2,0.5-4,1.5-4.4,2.5c0.3,0.9,1.7,1.3,2.8,1.3C578.8,533.5,579.4,533.5,579.8,533.4z"/>
		<path class="st10" d="M586.9,535c0.9,0,1.9-0.1,2.6-0.4c0.1-0.5,0.2-1.2,0.2-2.4v-14.4l3.7-1l0.3,0.2v15c0,5.6-2.9,7-7.6,7
			L586.9,535z"/>
		<path class="st10" d="M611.5,536.3c0,1.5-0.5,2.7-2.2,2.7h-2c-1.3,3.2-4.5,5.7-10,5.7l-1.9-3l0.2-0.4c3.9-0.1,6.5-0.8,7.9-2.3
			c-4.4,0-6.3-1.8-6.3-4.7c0-3,2.3-6.7,5.3-6.7c3.1,0,5.2,3.3,5.4,7.4h2.2C611.2,535,611.5,535.6,611.5,536.3z M603.6,535h1.2
			c-0.2-2-1.2-3.6-2.4-3.6c-1.1,0-2,1.2-2,2.2C600.3,534.6,601.2,535,603.6,535z"/>
		<path class="st10" d="M634.5,533.3c0,3.8-3,5.7-7,5.7c-1.8,0-3.1-0.4-4.2-0.9c-0.8,0.6-1.8,0.9-3,0.9c-2,0-3.8-0.7-4.9-1.4
			c-1.3,1-3.1,1.4-6,1.4l0.9-4c2.1,0,2.9-0.1,3.5-0.4c0.3-0.6,0.6-2.2,0.8-3.6l4.3-0.7l0.1,0.1c-0.5,1.6-1,2.9-1.4,4
			c0.9,0.3,2.1,0.5,3.2,0.5c0.5,0,0.9-0.1,1.2-0.3c0.3-0.4,0.6-2.2,1-3.7l4-0.7l0.1,0.1c-0.5,1.6-0.9,3-1.4,4.2
			c0.8,0.2,1.6,0.3,2.4,0.3c1.1,0,2.2-0.1,2.9-0.4c0.2-1.2-0.8-3.6-1.6-5.3l3.5-2.6l0.2,0C633.8,529,634.5,531.4,634.5,533.3z"/>
		<path class="st10" d="M632.8,541.9l0.2-0.3c5.2-0.9,8.9-3.4,8.9-4.5c-0.1-1.1-1.2-3.6-2.3-5.5l2.9-3.2h0.4
			c1.4,2.6,2.1,5.7,2.1,7.7c0,1.2-0.3,2.5-0.9,3.7c-1.3,2.5-5,4.5-9.2,5.2L632.8,541.9z"/>
		<path class="st10" d="M659.1,535.8c0,4.4-3.4,8.8-10.6,8.9l-1.9-3l0.2-0.4c4.4-0.1,7.4-1.3,8.5-3.4c-0.8,0.1-1.6,0.2-2.6,0.2
			c-3,0-4.4-1.5-4.4-3.8c0-3,2.3-6.6,5.3-6.6C657,527.7,659.1,531.4,659.1,535.8z M653.6,534.6c0.8,0,1.5-0.1,2.2-0.2
			c-0.3-1.6-1.2-3-2.4-3c-1.1,0-2,1.2-2,2.2C651.4,534.3,652.1,534.6,653.6,534.6z"/>
		<path class="st10" d="M680.1,533.8c0,3.3-2.2,5.4-5.7,5.4c-3.4,0-5.3-1.6-5.3-4.5c0-1.6,0.7-3.5,3.1-6.4c-0.3-0.2-0.6-0.5-0.9-0.7
			l2-3.3l0.3-0.2C678.4,528.2,680.1,531,680.1,533.8z M676.7,533.7c0-1-0.8-2.1-2.2-3.5c-1.4,1.4-2,2.5-2,3.5c0,1,0.8,1.6,2,1.6
			C675.9,535.2,676.7,534.7,676.7,533.7z"/>
		<path class="st10" d="M699.3,536.3c0,1.5-0.5,2.7-2.2,2.7c-2,0-3.4-0.4-4.3-1.5c-1.5,1.1-3.9,1.8-6.6,1.8c-0.8,0-2.6-0.1-3.7-0.4
			l0.6-3.9l0.2-0.1c1.1,0.2,2.5,0.3,3.3,0.3c1.5,0,3.4-0.2,4.6-0.7c-0.7-1.3-2.4-4.7-3.7-7.2l2.9-3.3h0.4c0.8,2,2.9,6.9,3.4,8
			c1.1,2.7,1.8,3,3.9,3C699,535,699.3,535.6,699.3,536.3z"/>
		<path class="st10" d="M710,536.3c0,1.5-0.5,2.7-2.1,2.7c-1.6,0-3.7-0.5-5-1.5c-1.2,1-2.8,1.5-5.1,1.5h-0.6l0.9-4h0.6
			c1.2,0,2.1-0.1,2.5-0.4c0.3-0.8,0.7-2.4,1.1-4.5l4.1-1l0.3,0.2c-0.4,1.9-0.9,3.6-1.5,5c0.9,0.4,2.1,0.6,3.6,0.6
			C709.7,535,710,535.6,710,536.3z M702.2,541.3l3.4,2.3l-2.1,3.2l-3.4-2.4L702.2,541.3z"/>
		<path class="st10" d="M723.3,534.6l-1.2,3.6c-2.5,0.5-6.4,0.8-14.2,0.8l0.9-4h2.3c-0.5-1-0.8-2-0.8-3.1c0-4,3-6.2,6.7-6.2
			c1.5,0,3.2,0.4,4.6,1l-0.4,3.4l-0.1,0.1c-1-0.3-2.3-0.6-3.3-0.6c-1.9,0-3,0.9-3,2.7c0,0.8,0.4,1.8,1.1,2.7c2.6-0.1,5-0.3,7.2-0.5
			L723.3,534.6z"/>
		<path class="st10" d="M733.8,539v-21.2l3.7-1l0.3,0.2l-0.1,21.4l-3.7,0.8L733.8,539z"/>
		<path class="st10" d="M757.4,536.3c0,1.5-0.5,2.7-2.2,2.7c-2,0-3.4-0.4-4.3-1.5c-1.5,1.1-3.9,1.8-6.6,1.8c-0.8,0-2.6-0.1-3.7-0.4
			l0.6-3.9l0.2-0.1c1.1,0.2,2.5,0.3,3.3,0.3c1.5,0,3.4-0.2,4.6-0.7c-0.7-1.3-2.4-4.7-3.7-7.2l2.9-3.3h0.4c0.8,2,2.9,6.9,3.4,8
			c1.1,2.7,1.8,3,3.9,3C757.1,535,757.4,535.6,757.4,536.3z"/>
		<path class="st10" d="M774.5,536.3c0,1.6-0.7,2.7-2.2,2.7c-1.4,0-2.4-0.3-3.3-1.1c-0.6,1-1.5,1.5-2.7,1.5c-1.4,0-3.5-0.7-5.7-2.2
			c-1.3,1.6-2.9,1.8-5.3,1.8l0.9-4c1.4,0,1.8-0.2,2.6-1.5c1.8-3,3.3-5.8,6-5.8c2.4,0,3.6,2.1,4.9,4.8c1.1,2.1,1.6,2.6,3.5,2.6
			C774.1,535,774.5,535.6,774.5,536.3z M767.2,535.1l-0.1-0.2c-1-2.3-1.8-3.4-2.5-3.4c-0.7,0-1.5,1.2-2.3,2.8
			c1.2,0.8,2.5,1.4,3.5,1.4C766.4,535.7,766.8,535.4,767.2,535.1z"/>
		<path class="st10" d="M794.7,536.3c0,1.5-0.5,2.7-2.1,2.7c-5.2,0-7-1.3-8.3-3.5l-1.2,0.6c-4.4,2.2-7.3,2.9-10.8,2.9l0.9-4
			c3.2,0,5.1-0.4,8.8-1.7c1-0.4,1.8-0.6,2.5-0.9c-0.3-0.1-0.7-0.3-1.1-0.5c-2.6-1.2-4-1.6-5.3-1.6c-1.4,0-2.6,0.3-3.7,0.6l-0.2-0.1
			l1.4-3.6c0.7-0.4,1.9-0.7,2.9-0.7c1.1,0,2.4,0.4,4.9,1.5c3.4,1.5,5.4,2,7.6,2.1l-0.7,3.6c-0.9,0-1.7,0.1-2.7,0.4
			c1,0.6,2.6,0.8,5.8,0.8C794.4,535,794.7,535.6,794.7,536.3z"/>
		<path class="st10" d="M807.6,534.8c0,2.7-1.3,4.6-3.7,4.6c-1.6,0-3.9-0.5-6.3-2.2c-1.3,1.5-2.9,1.8-5.1,1.8l0.9-4
			c1.2,0,1.7-0.4,2.7-2.3c1.1-2,2.9-5.1,5.7-5.1C804.8,527.7,807.6,531.1,807.6,534.8z M804.2,535.2c-0.1-1.3-1.2-3.7-2.4-3.7
			c-0.8,0-1.5,1.2-2.3,2.7c1.3,0.8,2.6,1.3,3.5,1.3C803.3,535.5,803.8,535.4,804.2,535.2z"/>
		<path class="st10" d="M817.5,538.3c0-1.1,0.3-3,0.6-3.9l2.9-1.1l0.4,0.1c-0.2,0.8-0.2,2-0.2,3c0,3,1.6,4.5,5,4.5
			c2.4,0,4.5-0.8,5.5-2.2c0.3-1.6-0.3-3.5-1.8-6.9l3.5-2.5h0.2c1,2.2,1.7,5.1,1.7,6.9c0,5.2-3.9,8.7-9.9,8.7
			C820.5,545,817.5,542.4,817.5,538.3z M822.8,526.4l2.1-3.1l3.4,2.4l-2.1,3.2L822.8,526.4z"/>
		<path class="st10" d="M844.1,514.9c-1.6,0.2-3.7,0.4-6.2,0.4l-0.2-2.3c0.4,0,1,0,1.5,0c-0.4-0.6-0.7-1.3-0.7-2
			c0-1.6,1-2.8,2.8-2.8c0.7,0,1.5,0.2,2.4,0.5l-0.5,2.1c-0.6-0.2-1-0.3-1.4-0.3c-0.7,0-1.1,0.4-1.1,1c0,0.5,0.2,0.9,0.6,1.3
			c1-0.1,1.9-0.1,2.7-0.2L844.1,514.9z M842.5,516.8l0.3,0.2l-0.1,21.4l-3.7,0.8l-0.3-0.2v-21.2L842.5,516.8z"/>
		<path class="st10" d="M869.7,536.3c0,1.5-0.5,2.7-2.2,2.7c-2,0-3.4-0.4-4.3-1.5c-1.5,1.1-3.9,1.8-6.6,1.8c-0.8,0-2.6-0.1-3.7-0.4
			l0.6-3.9l0.2-0.1c1.1,0.2,2.5,0.3,3.3,0.3c1.5,0,3.4-0.2,4.6-0.7c-0.7-1.3-2.4-4.7-3.7-7.2l2.9-3.3h0.4c0.8,2,2.9,6.9,3.4,8
			c1.1,2.7,1.8,3,3.9,3C869.3,535,869.7,535.6,869.7,536.3z"/>
		<path class="st10" d="M884.6,536.3c0,1.8-0.7,2.7-2.1,2.7h-1.9c0.5,0.7,0.7,1.5,0.7,2.3c0,2.5-2.2,4.1-4.9,4.1
			c-3.9,0-6.5-2.3-7-6.4h-2l0.9-4h1.3c0.6-2.8,2-5.8,3.9-8l2.6-1.5l0.3,0c3,2.2,4.4,4.1,4.4,6c0,1.2-0.7,2.8-1.6,3.5h4.1
			C884.2,535,884.6,535.5,884.6,536.3z M874.5,538.7c-0.4,0-0.9,0.1-1.4,0.2c0.4,1.9,1.9,3,3.8,3c0.6,0,1.1-0.2,1.4-0.4
			C878.4,540.2,876.8,538.7,874.5,538.7z M873.3,535.3c2.2-0.2,3.7-1.3,3.7-3.3c0-0.9-0.4-1.7-1.3-2.7
			C874.4,531.1,873.7,533.2,873.3,535.3z"/>
		<path class="st10" d="M907.6,533.3c0,3.8-3,5.7-7,5.7c-1.8,0-3.1-0.4-4.2-0.9c-0.8,0.6-1.8,0.9-3,0.9c-2,0-3.8-0.7-4.9-1.4
			c-1.3,1-3.1,1.4-6,1.4l0.9-4c2.1,0,2.9-0.1,3.5-0.4c0.3-0.6,0.6-2.2,0.8-3.6l4.3-0.7l0.1,0.1c-0.5,1.6-1,2.9-1.4,4
			c0.9,0.3,2.1,0.5,3.2,0.5c0.5,0,0.9-0.1,1.2-0.3c0.3-0.4,0.6-2.2,1-3.7l4-0.7l0.1,0.1c-0.5,1.6-0.9,3-1.4,4.2
			c0.8,0.2,1.6,0.3,2.4,0.3c1.1,0,2.2-0.1,2.9-0.4c0.2-1.2-0.8-3.6-1.6-5.3l3.5-2.6l0.2,0C906.9,529,907.6,531.4,907.6,533.3z
			 M895.8,526.1l-3.3-2.3l2-3l3.1,2.1l1.5-2.1l3.3,2.2l-2,3.1l-3.1-2.2L895.8,526.1z M897.5,521.6l-3.3-2.3l2-3l3.3,2.2L897.5,521.6
			z"/>
		<path class="st10" d="M916.5,514.9c-1.6,0.2-3.7,0.4-6.2,0.4l-0.2-2.3c0.4,0,1,0,1.5,0c-0.4-0.6-0.7-1.3-0.7-2
			c0-1.6,1-2.8,2.8-2.8c0.7,0,1.5,0.2,2.4,0.5l-0.5,2.1c-0.6-0.2-1-0.3-1.4-0.3c-0.7,0-1.1,0.4-1.1,1c0,0.5,0.2,0.9,0.6,1.3
			c1-0.1,1.9-0.1,2.7-0.2L916.5,514.9z M915,516.8l0.3,0.2l-0.1,21.4l-3.7,0.8l-0.3-0.2v-21.2L915,516.8z"/>
		<path class="st10" d="M929.6,535.8c0,4.4-3.4,8.8-10.6,8.9l-1.9-3l0.2-0.4c4.4-0.1,7.4-1.3,8.5-3.4c-0.8,0.1-1.6,0.2-2.6,0.2
			c-3,0-4.4-1.5-4.4-3.8c0-3,2.3-6.6,5.3-6.6C927.6,527.7,929.6,531.4,929.6,535.8z M924.1,534.6c0.8,0,1.5-0.1,2.2-0.2
			c-0.3-1.6-1.2-3-2.4-3c-1.1,0-2,1.2-2,2.2C922,534.3,922.6,534.6,924.1,534.6z"/>
	</g>
</g>
<path class="st11" d="M1024,43.8h-11.1v-6.6c0-1.7-1.1-3-2.6-3.5c1.4-1.1,2.3-2.9,2.3-4.8c0-3.4-2.8-6.2-6.2-6.2
	c-1,0-1.9,0.2-2.8,0.7c0.4-1.1,0.5-2.2,0.5-3.4c0-6.2-5-11.2-11.2-11.2c-6.2,0-11.2,5-11.2,11.2c0,1.2,0.2,2.4,0.5,3.4
	c-0.8-0.4-1.8-0.7-2.8-0.7c-3.4,0-6.2,2.8-6.2,6.2c0,1.9,0.9,3.6,2.3,4.8c-1.5,0.4-2.6,1.8-2.6,3.5v6.6h-10h-10v-6.6
	c0-1.7-1.1-3-2.6-3.5c1.4-1.1,2.3-2.9,2.3-4.8c0-3.4-2.8-6.2-6.2-6.2c-1,0-1.9,0.2-2.8,0.7c0.4-1.1,0.5-2.2,0.5-3.4
	c0-6.2-5-11.2-11.2-11.2c-6.2,0-11.2,5-11.2,11.2c0,1.2,0.2,2.4,0.5,3.4c-0.8-0.4-1.8-0.7-2.8-0.7c-3.4,0-6.2,2.8-6.2,6.2
	c0,1.9,0.9,3.6,2.3,4.8c-1.5,0.4-2.6,1.8-2.6,3.5v6.6h-10h-10v-6.6c0-1.7-1.1-3-2.6-3.5c1.4-1.1,2.3-2.9,2.3-4.8
	c0-3.4-2.8-6.2-6.2-6.2c-1,0-1.9,0.2-2.8,0.7c0.4-1.1,0.5-2.2,0.5-3.4c0-6.2-5-11.2-11.2-11.2c-6.2,0-11.2,5-11.2,11.2
	c0,1.2,0.2,2.4,0.5,3.4c-0.8-0.4-1.8-0.7-2.8-0.7c-3.4,0-6.2,2.8-6.2,6.2c0,1.9,0.9,3.6,2.3,4.8c-1.5,0.4-2.6,1.8-2.6,3.5v6.6h-10
	h-10v-6.6c0-1.7-1.1-3-2.6-3.5c1.4-1.1,2.3-2.9,2.3-4.8c0-3.4-2.8-6.2-6.2-6.2c-1,0-1.9,0.2-2.8,0.7c0.4-1.1,0.5-2.2,0.5-3.4
	c0-6.2-5-11.2-11.2-11.2c-6.2,0-11.2,5-11.2,11.2c0,1.2,0.2,2.4,0.5,3.4c-0.8-0.4-1.8-0.7-2.8-0.7c-3.4,0-6.2,2.8-6.2,6.2
	c0,1.9,0.9,3.6,2.3,4.8c-1.5,0.4-2.6,1.8-2.6,3.5v6.6h-10h-10v-6.6c0-1.7-1.1-3-2.6-3.5c1.4-1.1,2.3-2.9,2.3-4.8
	c0-3.4-2.8-6.2-6.2-6.2c-1,0-1.9,0.2-2.8,0.7c0.4-1.1,0.5-2.2,0.5-3.4c0-6.2-5-11.2-11.2-11.2c-6.2,0-11.2,5-11.2,11.2
	c0,1.2,0.2,2.4,0.5,3.4c-0.8-0.4-1.8-0.7-2.8-0.7c-3.4,0-6.2,2.8-6.2,6.2c0,1.9,0.9,3.6,2.3,4.8c-1.5,0.4-2.6,1.8-2.6,3.5v6.6h-10
	h-10v-6.6c0-1.7-1.1-3-2.6-3.5c1.4-1.1,2.3-2.9,2.3-4.8c0-3.4-2.8-6.2-6.2-6.2c-1,0-1.9,0.2-2.8,0.7c0.4-1.1,0.5-2.2,0.5-3.4
	c0-6.2-5-11.2-11.2-11.2c-6.2,0-11.2,5-11.2,11.2c0,1.2,0.2,2.4,0.5,3.4c-0.8-0.4-1.8-0.7-2.8-0.7c-3.4,0-6.2,2.8-6.2,6.2
	c0,1.9,0.9,3.6,2.3,4.8c-1.5,0.4-2.6,1.8-2.6,3.5v6.6h-10h-10v-6.6c0-1.7-1.1-3-2.6-3.5c1.4-1.1,2.3-2.9,2.3-4.8
	c0-3.4-2.8-6.2-6.2-6.2c-1,0-1.9,0.2-2.8,0.7c0.4-1.1,0.5-2.2,0.5-3.4c0-6.2-5-11.2-11.2-11.2c-6.2,0-11.2,5-11.2,11.2
	c0,1.2,0.2,2.4,0.5,3.4c-0.8-0.4-1.8-0.7-2.8-0.7c-3.4,0-6.2,2.8-6.2,6.2c0,1.9,0.9,3.6,2.3,4.8c-1.5,0.4-2.6,1.8-2.6,3.5v6.6h-10
	h-10v-6.6c0-1.7-1.1-3-2.6-3.5c1.4-1.1,2.3-2.9,2.3-4.8c0-3.4-2.8-6.2-6.2-6.2c-1,0-1.9,0.2-2.8,0.7c0.4-1.1,0.5-2.2,0.5-3.4
	c0-6.2-5-11.2-11.2-11.2c-6.2,0-11.2,5-11.2,11.2c0,1.2,0.2,2.4,0.5,3.4c-0.8-0.4-1.8-0.7-2.8-0.7c-3.4,0-6.2,2.8-6.2,6.2
	c0,1.9,0.9,3.6,2.3,4.8c-1.5,0.4-2.6,1.8-2.6,3.5v6.6h-10h-10v-6.6c0-1.7-1.1-3-2.6-3.5c1.4-1.1,2.3-2.9,2.3-4.8
	c0-3.4-2.8-6.2-6.2-6.2c-1,0-1.9,0.2-2.8,0.7c0.4-1.1,0.5-2.2,0.5-3.4c0-6.2-5-11.2-11.2-11.2c-6.2,0-11.2,5-11.2,11.2
	c0,1.2,0.2,2.4,0.5,3.4c-0.8-0.4-1.8-0.7-2.8-0.7c-3.4,0-6.2,2.8-6.2,6.2c0,1.9,0.9,3.6,2.3,4.8c-1.5,0.4-2.6,1.8-2.6,3.5v6.6h-10
	h-10v-6.6c0-1.7-1.1-3-2.6-3.5c1.4-1.1,2.3-2.9,2.3-4.8c0-3.4-2.8-6.2-6.2-6.2c-1,0-1.9,0.2-2.8,0.7c0.4-1.1,0.5-2.2,0.5-3.4
	c0-6.2-5-11.2-11.2-11.2c-6.2,0-11.2,5-11.2,11.2c0,1.2,0.2,2.4,0.5,3.4c-0.8-0.4-1.8-0.7-2.8-0.7c-3.4,0-6.2,2.8-6.2,6.2
	c0,1.9,0.9,3.6,2.3,4.8c-1.5,0.4-2.6,1.8-2.6,3.5v6.6h-10h-10v-6.6c0-1.7-1.1-3-2.6-3.5c1.4-1.1,2.3-2.9,2.3-4.8
	c0-3.4-2.8-6.2-6.2-6.2c-1,0-1.9,0.2-2.8,0.7c0.4-1.1,0.5-2.2,0.5-3.4c0-6.2-5-11.2-11.2-11.2c-6.2,0-11.2,5-11.2,11.2
	c0,1.2,0.2,2.4,0.5,3.4c-0.8-0.4-1.8-0.7-2.8-0.7c-3.4,0-6.2,2.8-6.2,6.2c0,1.9,0.9,3.6,2.3,4.8c-1.5,0.4-2.6,1.8-2.6,3.5v6.6h-10
	h-10v-6.6c0-1.7-1.1-3-2.6-3.5c1.4-1.1,2.3-2.9,2.3-4.8c0-3.4-2.8-6.2-6.2-6.2c-1,0-1.9,0.2-2.8,0.7c0.4-1.1,0.5-2.2,0.5-3.4
	c0-6.2-5-11.2-11.2-11.2c-6.2,0-11.2,5-11.2,11.2c0,1.2,0.2,2.4,0.5,3.4c-0.8-0.4-1.8-0.7-2.8-0.7c-3.4,0-6.2,2.8-6.2,6.2
	c0,1.9,0.9,3.6,2.3,4.8c-1.5,0.4-2.6,1.8-2.6,3.5v6.6h-10h-10v-6.6c0-1.7-1.1-3-2.6-3.5c1.4-1.1,2.3-2.9,2.3-4.8
	c0-3.4-2.8-6.2-6.2-6.2c-1,0-1.9,0.2-2.8,0.7c0.4-1.1,0.5-2.2,0.5-3.4c0-6.2-5-11.2-11.2-11.2c-6.2,0-11.2,5-11.2,11.2
	c0,1.2,0.2,2.4,0.5,3.4c-0.8-0.4-1.8-0.7-2.8-0.7c-3.4,0-6.2,2.8-6.2,6.2c0,1.9,0.9,3.6,2.3,4.8c-1.5,0.4-2.6,1.8-2.6,3.5v6.6h-10
	h-10v-6.6c0-1.7-1.1-3-2.6-3.5c1.4-1.1,2.3-2.9,2.3-4.8c0-3.4-2.8-6.2-6.2-6.2c-1,0-1.9,0.2-2.8,0.7c0.4-1.1,0.5-2.2,0.5-3.4
	c0-6.2-5-11.2-11.2-11.2c-6.2,0-11.2,5-11.2,11.2c0,1.2,0.2,2.4,0.5,3.4c-0.8-0.4-1.8-0.7-2.8-0.7c-3.4,0-6.2,2.8-6.2,6.2
	c0,1.9,0.9,3.6,2.3,4.8c-1.5,0.4-2.6,1.8-2.6,3.5v6.6h-10h-10v-6.6c0-1.7-1.1-3-2.6-3.5c1.4-1.1,2.3-2.9,2.3-4.8
	c0-3.4-2.8-6.2-6.2-6.2c-1,0-1.9,0.2-2.8,0.7c0.4-1.1,0.5-2.2,0.5-3.4c0-6.2-5-11.2-11.2-11.2c-6.2,0-11.2,5-11.2,11.2
	c0,1.2,0.2,2.4,0.5,3.4c-0.8-0.4-1.8-0.7-2.8-0.7c-3.4,0-6.2,2.8-6.2,6.2c0,1.9,0.9,3.6,2.3,4.8c-1.5,0.4-2.6,1.8-2.6,3.5v6.6h-10
	h-10v-6.6c0-1.7-1.1-3-2.6-3.5c1.4-1.1,2.3-2.9,2.3-4.8c0-3.4-2.8-6.2-6.2-6.2c-1,0-1.9,0.2-2.8,0.7c0.4-1.1,0.5-2.2,0.5-3.4
	c0-6.2-5-11.2-11.2-11.2c-6.2,0-11.2,5-11.2,11.2c0,1.2,0.2,2.4,0.5,3.4c-0.8-0.4-1.8-0.7-2.8-0.7c-3.4,0-6.2,2.8-6.2,6.2
	c0,1.9,0.9,3.6,2.3,4.8c-1.5,0.4-2.6,1.8-2.6,3.5v6.6h-10h-10v-6.6c0-1.7-1.1-3-2.6-3.5c1.4-1.1,2.3-2.9,2.3-4.8
	c0-3.4-2.8-6.2-6.2-6.2c-1,0-1.9,0.2-2.8,0.7c0.4-1.1,0.5-2.2,0.5-3.4c0-6.2-5-11.2-11.2-11.2c-6.2,0-11.2,5-11.2,11.2
	c0,1.2,0.2,2.4,0.5,3.4c-0.8-0.4-1.8-0.7-2.8-0.7c-3.4,0-6.2,2.8-6.2,6.2c0,1.9,0.9,3.6,2.3,4.8c-1.5,0.4-2.6,1.8-2.6,3.5v6.6H0V0
	h1024V43.8z"/>
<g id="Layer_x0020_1_34_">
	<path class="st12" d="M34.9,720l43.9-1.7c0.3,0,0.6,0,1,0c0.7,0.1,1.3,0.4,1.8,0.9c0.5,0.5,0.9,1,0.9,1.7c0,0.2,0,0.5,0,0.8
		l-4.6,20.6c-0.2,0.9-0.6,1.7-1.3,2.2c-0.6,0.5-1.4,0.9-2.4,0.9L39,744.2c-1,0-1.7-0.3-2.4-0.9l0,0c-0.6-0.6-1.1-1.4-1.3-2.2
		l-4.1-17.7c0-0.1,0-0.1,0-0.2c-0.1-0.8,0.3-1.5,0.9-2.1c0.6-0.5,1.4-0.8,2.3-1C34.6,720.1,34.7,720,34.9,720z M76.9,721.1l-42,1.5
		c-0.1,0-0.2,0-0.3,0c-0.6,0.1-1.1,0.3-1.5,0.7c-0.3,0.3-0.6,0.7-0.5,1.1c0,0,0,0.1,0,0.1l3.8,16.5c0.1,0.6,0.4,1.2,0.9,1.6
		c0.4,0.3,0.8,0.5,1.4,0.5l34,1.2c0.6,0,1-0.2,1.4-0.5c0.4-0.4,0.7-0.9,0.9-1.6L79,723c0-0.1,0-0.3,0-0.4c0-0.3-0.2-0.7-0.5-0.9
		c-0.3-0.3-0.7-0.5-1.1-0.5C77.2,721.1,77.1,721.1,76.9,721.1z"/>
	<path class="st12" d="M41.9,724.7l12.9-1.4c0.1,0,0.3,0,0.4,0c0.3,0.1,0.6,0.2,0.8,0.4c0.2,0.2,0.4,0.5,0.4,0.8c0,0.1,0,0.2,0,0.3
		l-2.1,9.6c-0.1,0.4-0.3,0.8-0.6,1c-0.3,0.3-0.6,0.4-1.1,0.4h-8.9c-0.4,0-0.8-0.2-1.1-0.4h0c-0.3-0.3-0.5-0.6-0.6-1l-1.9-8.2
		c0,0,0-0.1,0-0.1c-0.1-0.4,0.1-0.7,0.4-1c0.3-0.2,0.7-0.4,1-0.5C41.8,724.7,41.8,724.7,41.9,724.7z M53.9,724.6l-12,1.3
		c0,0-0.1,0-0.1,0c-0.3,0-0.5,0.2-0.7,0.3c-0.2,0.1-0.3,0.3-0.2,0.5c0,0,0,0,0,0l1.8,7.6c0.1,0.3,0.2,0.5,0.4,0.7
		c0.2,0.1,0.4,0.2,0.6,0.2h8.3c0.3,0,0.5-0.1,0.6-0.2c0.2-0.2,0.3-0.4,0.4-0.7l2-8.9c0-0.1,0-0.1,0-0.2c0-0.2-0.1-0.3-0.2-0.4
		c-0.1-0.1-0.3-0.2-0.5-0.2C54.1,724.6,54,724.6,53.9,724.6z"/>
	<g id="_1849662416_34_">
		<path class="st13" d="M60.4,736.9l0.4-0.7l-0.7-0.4l0.4-0.7l-1.5-0.8l-0.9,1.5l0,0c0.3,0.1,0.5,0.3,0.7,0.4l-0.4,0.7l0.7,0.4
			l-0.8,1.5l0.7,0.4c-0.2,0.5-0.6,1.1-0.9,1.5l0,0c0.2,0.1,0.4,0.2,0.5,0.3c0.3,0.1,0.2,0.1,0,0.5c-0.2,0.4-0.4,0.8-0.7,1.1l0.7,0.4
			c0,0.2-0.7,1.2-0.8,1.5l5.9,3.4l0.9-1.5l0.8,0.4l1.3-2.2l0.7,0.4l3-5.2c-0.1-0.1-0.7-0.4-0.7-0.5c0-0.2,0.4-0.6,0.4-0.7
			c-0.1-0.1-0.5-0.4-0.7-0.4l-1.3,2.2l-0.7-0.4l1.7-3l-1.5-0.9l-1.3,2.2l-0.7-0.4l1.7-2.9c-0.1-0.1-1.3-0.8-1.5-0.9l-1.7,3l-0.7-0.4
			c0-0.1,0.1-0.1,0.1-0.2c1.2-2.1,2.5-4.3,3.7-6.5l-1.5-0.8l-4.7,8.1C60.9,737.3,60.4,736.9,60.4,736.9L60.4,736.9z"/>
		<path class="st14" d="M58.2,740.6c-0.1,0.1-0.1,0.2-0.2,0.3l-0.7,1.1c0.1,0.1,0.2,0.1,0.4,0.2c0.1,0.1,0.2,0.1,0.3,0.2
			c-0.4,0.8-0.8,1.5-1.2,2.2c0.6,0.4,1.2,0.7,1.8,1.1l3.7,2.2c0.6,0.4,1.3,0.7,1.9,1.1c0.1-0.2,0.1-0.3,0.3-0.5
			c0.1-0.2,0.4-0.6,0.5-0.9c0.1-0.1,0.1-0.1,0.2-0.3c0.1-0.2,0.2-0.4,0.3-0.6c0.1,0.2,0.5,0.3,0.7,0.4c0.4-0.7,0.8-1.4,1.3-2.2
			c0.2,0.1,0.4,0.2,0.6,0.3c0.1,0.1,0.1,0.1,0.2,0c0.2-0.3,0.3-0.6,0.5-0.9c0.3-0.6,0.7-1.1,1-1.7l1.4-2.5c-0.2-0.1-0.6-0.3-0.7-0.4
			l-3,5.2l-0.7-0.4l-1.3,2.2l-0.8-0.4l-0.9,1.5l-5.9-3.4c0.1-0.3,0.8-1.3,0.8-1.5l-0.7-0.4c0.2-0.4,0.4-0.8,0.7-1.1
			c0.2-0.4,0.2-0.3,0-0.5C58.6,740.8,58.4,740.7,58.2,740.6z"/>
		<path class="st14" d="M60.5,735l-0.4,0.7l0.7,0.4l-0.4,0.7l0.7,0.4l4.7-8.1l-0.7-0.4c0,0,0,0,0,0l0,0c0,0,0,0,0,0l-3.8,6.6
			C61,735.2,60.7,735.1,60.5,735z"/>
		<path class="st14" d="M67.3,730.1l-3.9,6.6l0.7,0.4l1.7-3c0.2,0,1.4,0.8,1.5,0.9c0.2,0.2,1.6,0.9,1.9,1.1c0,0,0.1,0-0.1-0.1
			l-1.5-0.8c-0.4-0.2-0.3-0.1,0.1-0.9l-1.1-0.6c-0.1-0.1-0.2-0.1-0.3-0.2l1.7-2.9c-0.2-0.1-0.3-0.2-0.6-0.4
			C67.4,730.1,67.4,730.1,67.3,730.1z"/>
		<path class="st14" d="M69.2,737.1l0.4-0.7c-0.1-0.1-0.2-0.2-0.4-0.2c-0.3-0.2-1.7-0.9-1.9-1.1l-1.7,2.9l0.7,0.4l1.3-2.2
			L69.2,737.1z"/>
		<path class="st14" d="M58.1,735.7c-0.1,0.1-0.1,0.1-0.2,0.3c-0.1,0.1-0.1,0.3-0.2,0.4l0.7,0.4c-0.1,0.2-0.7,1.3-0.8,1.5l0.7,0.4
			l-0.6,1.1c-0.1,0.2-0.1,0.2-0.2,0.4l0.7,0.4c0.3-0.4,0.7-1,0.9-1.5l-0.7-0.4l0.8-1.5l-0.7-0.4l0.4-0.7
			C58.6,735.9,58.4,735.7,58.1,735.7z"/>
		<path class="st14" d="M58.1,735.6l0.9-1.5l1.5,0.8l0.2-0.4c0.1-0.1,0.1-0.2,0.2-0.4l-2-1.1c-0.3-0.2-0.2-0.2-0.5,0.2l-0.9,1.6
			c-0.1,0.2-0.2,0.2,0,0.3C57.6,735.4,58,735.6,58.1,735.6z"/>
		<path class="st14" d="M70.2,738.7c0.1,0,0,0,0.1-0.1c0,0,0.1-0.1,0.1-0.1c0-0.2,0.2-0.4,0.3-0.6l-1.5-0.8l-1.7,3l0.7,0.4l1.3-2.2
			C69.7,738.3,70.1,738.5,70.2,738.7z"/>
		<path class="st14" d="M67.3,730c0.1-0.2,0.3-0.5,0.4-0.7l-1.5-0.8l-0.4,0.7L67.3,730z"/>
		<path class="st14" d="M70.2,738.7c0,0.2-0.4,0.6-0.4,0.7c0,0.1,0.6,0.4,0.7,0.5c0.2,0.1,0.5,0.3,0.7,0.4l-1.4,2.5l1.5-2.5
			l-0.7-0.4c0.1-0.1,0.1-0.2,0.2-0.4c0.1-0.1,0.2-0.3,0.2-0.4c-0.8-0.5-0.8-0.3-0.6-0.6c0,0-0.1,0.1-0.1,0.1
			C70.2,738.7,70.3,738.7,70.2,738.7z"/>
	</g>
	<path class="st12" d="M94.9,736.9h-2.5l2.1-7.2l-4.3,7.2h-2.6l-0.5-7.3l-1.8,7.3h-2.6l2.9-10.9h3.5l0.5,7.7l4.6-7.7h3.5L94.9,736.9
		z M104.4,736.9h-5.6c-0.8,0-1.3-0.2-1.7-0.6c-0.4-0.4-0.4-1-0.2-1.8c0.3-0.9,0.7-1.6,1.3-2c0.6-0.4,1.5-0.6,2.6-0.6h2.5
		c0.1-0.4,0.1-0.7-0.1-0.8c-0.2-0.2-0.6-0.2-1.3-0.2h-3.6l0.5-2h4.3c1.1,0,1.9,0.3,2.3,0.8c0.4,0.5,0.5,1.3,0.2,2.3L104.4,736.9z
		 M102.4,734.9l0.3-1.2h-2.2c-0.4,0-0.7,0-0.9,0.1c-0.2,0.1-0.3,0.3-0.3,0.5c-0.1,0.2-0.1,0.3,0,0.4c0,0,0.1,0.1,0.2,0.1
		c0.1,0,0.3,0,0.5,0H102.4z M113.2,736.9h-2.4l1.3-4.9c0.1-0.5,0.2-0.8,0-1c-0.1-0.1-0.4-0.2-0.9-0.2h-1.4l-1.6,6.1h-2.4l2.2-8.1h4
		c1.2,0,2,0.2,2.4,0.7c0.4,0.5,0.5,1.2,0.2,2.3L113.2,736.9z M121.9,736.9h-2.4l1.3-4.9c0.1-0.5,0.1-0.8,0-0.9
		c-0.1-0.1-0.2-0.1-0.3-0.2c-0.1,0-0.3-0.1-0.6-0.1l-1.4,0l-1.6,6.1h-2.4l2.9-10.9h2.4l-0.8,2.8h1.6c1.2,0,2,0.2,2.4,0.7
		c0.4,0.5,0.5,1.2,0.2,2.3L121.9,736.9z M131.1,736.9h-5.6c-0.8,0-1.3-0.2-1.7-0.6c-0.4-0.4-0.4-1-0.2-1.8c0.3-0.9,0.7-1.6,1.3-2
		c0.6-0.4,1.5-0.6,2.6-0.6h2.5c0.1-0.4,0.1-0.7-0.1-0.8c-0.2-0.2-0.6-0.2-1.3-0.2h-3.6l0.5-2h4.3c1.1,0,1.9,0.3,2.3,0.8
		c0.4,0.5,0.5,1.3,0.2,2.3L131.1,736.9z M129.2,734.9l0.3-1.2h-2.2c-0.4,0-0.7,0-0.9,0.1c-0.2,0.1-0.3,0.3-0.3,0.5
		c-0.1,0.2,0,0.3,0,0.4c0,0,0.1,0.1,0.2,0.1c0.1,0,0.3,0,0.5,0H129.2z M135,736.9h-2.5l2.9-10.9h2.5L135,736.9z M140.6,736.9h-2.1
		l0.6-2.2h2.1L140.6,736.9z M148.4,736.9h-2.9c-0.4,0-0.7,0-1-0.1c-0.3,0-0.5-0.1-0.8-0.2c-0.4-0.1-0.8-0.4-1-0.8
		c-0.1-0.2-0.2-0.4-0.3-0.6c-0.1-0.2-0.2-0.5-0.2-0.7c0-0.3,0-0.5,0-0.8c0-0.3,0.1-0.6,0.2-0.9c0.2-0.6,0.4-1.2,0.8-1.7
		c0.3-0.5,0.7-1,1.3-1.4c0.4-0.3,0.9-0.6,1.4-0.7c0.5-0.2,1.1-0.2,1.9-0.2h2.9l-0.5,2h-2.3c-0.5,0-0.9,0-1.2,0.1
		c-0.3,0.1-0.6,0.2-0.8,0.4c-0.4,0.3-0.7,0.8-0.9,1.6c-0.1,0.4-0.1,0.8-0.1,1.1c0.1,0.3,0.1,0.6,0.4,0.7l0.4,0.2c0.1,0,0.3,0,0.4,0
		c0.1,0,0.4,0,0.6,0h2.3L148.4,736.9z M158.5,732.8c-0.3,1.3-1,2.3-2,3.1c-1,0.8-2.1,1.1-3.4,1.1c-1.3,0-2.2-0.4-2.8-1.1
		c-0.6-0.8-0.7-1.8-0.3-3.1c0.3-1.3,1-2.3,2-3c1-0.8,2.1-1.1,3.4-1.1c1.3,0,2.2,0.4,2.8,1.1C158.7,730.5,158.8,731.5,158.5,732.8z
		 M156,732.8c0.2-0.7,0.1-1.2-0.1-1.6c-0.2-0.4-0.6-0.6-1.1-0.6c-0.5,0-1,0.2-1.4,0.6c-0.4,0.4-0.7,0.9-0.9,1.6
		c-0.1,0.4-0.1,0.7-0.1,0.9c0,0.3,0.1,0.5,0.2,0.7c0.2,0.4,0.6,0.6,1.1,0.6c0.6,0,1-0.2,1.4-0.6C155.5,734,155.8,733.5,156,732.8z
		 M169.6,736.9h-2.4l1.3-4.9c0.1-0.5,0.2-0.8,0.1-1c-0.1-0.2-0.4-0.2-0.9-0.2l-0.9,0l-1.6,6.1h-2.4l1.6-6.1h-2l-1.6,6.1h-2.4
		l2.2-8.1h8c1.2,0,2,0.2,2.4,0.7c0.4,0.5,0.5,1.2,0.2,2.3L169.6,736.9z"/>
	<path class="st12" d="M27.9,728.8l21.2-2.2c0.2,0,0.5,0,0.7,0c0.5,0.1,1,0.3,1.4,0.7c0.4,0.3,0.6,0.8,0.7,1.3c0,0.2,0,0.4,0,0.6
		l-3.7,9.6c-0.1,0.7-0.5,1.3-1,1.7c-0.5,0.4-1.1,0.7-1.8,0.7H30.8c-0.7,0-1.3-0.3-1.8-0.7h0c-0.5-0.4-0.8-1.1-1-1.7l-2.9-7.4
		c0-0.1,0-0.1,0-0.2c-0.1-0.6,0.2-1.2,0.7-1.6c0.5-0.4,1.1-0.6,1.7-0.8C27.7,728.8,27.8,728.8,27.9,728.8z M47.6,728.7l-19.8,2.1
		c-0.1,0-0.2,0-0.2,0c-0.4,0.1-0.9,0.3-1.2,0.5c-0.3,0.2-0.4,0.5-0.4,0.8c0,0,0,0.1,0,0.1l2.7,6.5c0.1,0.5,0.3,0.9,0.7,1.2
		c0.3,0.2,0.6,0.4,1,0.4h13.6c0.4,0,0.8-0.1,1-0.4c0.3-0.3,0.5-0.7,0.7-1.2l3.4-8.6c0-0.1,0-0.2,0-0.3c0-0.3-0.2-0.5-0.4-0.7
		c-0.2-0.2-0.5-0.4-0.8-0.4C47.9,728.7,47.7,728.7,47.6,728.7z"/>
	<path class="st12" d="M87.6,722.5l-0.5,1.7h-0.6l1.2-4.5H89c0.3,0,0.5,0,0.7,0.1c0.2,0.1,0.3,0.2,0.4,0.3c0.1,0.1,0.2,0.3,0.2,0.4
		c0,0.2,0,0.4-0.1,0.6c-0.1,0.2-0.1,0.4-0.3,0.6c-0.1,0.2-0.3,0.3-0.4,0.4c-0.2,0.1-0.4,0.2-0.6,0.3c-0.2,0.1-0.5,0.1-0.7,0.1H87.6z
		 M87.7,722h0.7c0.2,0,0.3,0,0.5-0.1c0.1,0,0.3-0.1,0.4-0.2c0.1-0.1,0.2-0.2,0.3-0.3c0.1-0.1,0.1-0.2,0.2-0.4
		c0.1-0.3,0.1-0.5-0.1-0.7c-0.1-0.2-0.4-0.2-0.7-0.2h-0.7L87.7,722z"/>
	<path id="_x31__34_" class="st12" d="M92.2,721c0.2,0,0.4,0,0.6,0.1c0.2,0.1,0.3,0.2,0.4,0.3c0.1,0.1,0.1,0.3,0.2,0.5
		c0,0.2,0,0.4-0.1,0.7c-0.1,0.3-0.2,0.5-0.3,0.7c-0.1,0.2-0.3,0.4-0.4,0.5c-0.2,0.1-0.4,0.3-0.6,0.3c-0.2,0.1-0.4,0.1-0.7,0.1
		c-0.2,0-0.4,0-0.6-0.1c-0.2-0.1-0.3-0.2-0.4-0.3c-0.1-0.1-0.1-0.3-0.2-0.5c0-0.2,0-0.4,0.1-0.7c0.1-0.3,0.2-0.5,0.3-0.7
		c0.1-0.2,0.3-0.4,0.4-0.5c0.2-0.1,0.4-0.3,0.6-0.3C91.8,721,92,721,92.2,721z M91.5,723.8c0.3,0,0.6-0.1,0.8-0.3
		c0.2-0.2,0.4-0.5,0.5-0.9c0.1-0.4,0.1-0.7,0-0.9c-0.1-0.2-0.3-0.3-0.6-0.3c-0.2,0-0.3,0-0.4,0.1c-0.1,0.1-0.3,0.1-0.4,0.2
		c-0.1,0.1-0.2,0.2-0.3,0.4c-0.1,0.1-0.1,0.3-0.2,0.5c0,0.2-0.1,0.4-0.1,0.5c0,0.1,0,0.3,0.1,0.4c0.1,0.1,0.1,0.2,0.2,0.2
		C91.2,723.8,91.3,723.8,91.5,723.8z"/>
	<path id="_x32__34_" class="st12" d="M94,721h0.4c0,0,0.1,0,0.1,0c0,0,0,0,0,0.1l0.1,2c0,0.1,0,0.1,0,0.2c0,0.1,0,0.1,0,0.2
		c0-0.1,0.1-0.1,0.1-0.2c0-0.1,0.1-0.1,0.1-0.2l1.2-2.1c0,0,0-0.1,0.1-0.1c0,0,0.1,0,0.1,0h0.2c0,0,0.1,0,0.1,0c0,0,0,0,0,0.1
		l0.1,2.1c0,0.1,0,0.1,0,0.2c0,0.1,0,0.1,0,0.2c0-0.1,0.1-0.1,0.1-0.2c0-0.1,0.1-0.1,0.1-0.2l1.2-2c0,0,0-0.1,0.1-0.1
		c0,0,0.1,0,0.1,0h0.4l-1.9,3.2h-0.4c-0.1,0-0.1,0-0.1-0.1l-0.1-2.2c0,0,0-0.1,0-0.1c0-0.1,0-0.1,0-0.1c0,0,0,0.1-0.1,0.1
		c0,0,0,0.1-0.1,0.1l-1.3,2.2c0,0.1-0.1,0.1-0.2,0.1h-0.4L94,721z"/>
	<path id="_x33__34_" class="st12" d="M100.5,720.9c0.2,0,0.4,0,0.5,0.1c0.1,0.1,0.3,0.2,0.3,0.3c0.1,0.1,0.1,0.3,0.2,0.4
		c0,0.2,0,0.4-0.1,0.6c0,0.1,0,0.1-0.1,0.2c0,0-0.1,0-0.1,0h-2.1c-0.1,0.2-0.1,0.4-0.1,0.5c0,0.1,0,0.3,0.1,0.4
		c0.1,0.1,0.1,0.2,0.3,0.2c0.1,0,0.2,0.1,0.4,0.1c0.1,0,0.3,0,0.4,0c0.1,0,0.2-0.1,0.3-0.1c0.1,0,0.2-0.1,0.2-0.1
		c0.1,0,0.1-0.1,0.1-0.1c0,0,0.1,0,0.1,0.1l0.1,0.2c-0.1,0.1-0.2,0.2-0.3,0.2c-0.1,0.1-0.2,0.1-0.3,0.2c-0.1,0-0.2,0.1-0.4,0.1
		c-0.1,0-0.2,0-0.4,0c-0.2,0-0.4,0-0.6-0.1c-0.2-0.1-0.3-0.2-0.4-0.3c-0.1-0.1-0.2-0.3-0.2-0.5c0-0.2,0-0.5,0.1-0.7
		c0.1-0.2,0.1-0.4,0.3-0.6c0.1-0.2,0.3-0.4,0.4-0.5c0.2-0.1,0.4-0.3,0.6-0.3C100.1,721,100.3,720.9,100.5,720.9z M100.4,721.4
		c-0.3,0-0.5,0.1-0.7,0.2c-0.2,0.2-0.4,0.4-0.5,0.6h1.7c0-0.1,0.1-0.3,0-0.4c0-0.1,0-0.2-0.1-0.3c0-0.1-0.1-0.1-0.2-0.2
		C100.6,721.4,100.5,721.4,100.4,721.4z"/>
	<path id="_x34__34_" class="st12" d="M101.7,724.2l0.9-3.2h0.3c0.1,0,0.1,0,0.1,0c0,0,0,0.1,0,0.1l-0.1,0.5
		c0.2-0.2,0.4-0.4,0.5-0.5c0.2-0.1,0.4-0.2,0.6-0.2c0.1,0,0.2,0,0.2,0c0.1,0,0.1,0,0.2,0.1l-0.2,0.4c0,0.1-0.1,0.1-0.1,0.1
		c0,0-0.1,0-0.1,0c-0.1,0-0.1,0-0.2,0c-0.2,0-0.4,0.1-0.5,0.2c-0.2,0.1-0.3,0.3-0.5,0.5l-0.5,2H101.7z"/>
	<path id="_x35__34_" class="st12" d="M106.3,720.9c0.2,0,0.4,0,0.5,0.1c0.1,0.1,0.3,0.2,0.3,0.3c0.1,0.1,0.1,0.3,0.2,0.4
		c0,0.2,0,0.4-0.1,0.6c0,0.1,0,0.1-0.1,0.2c0,0-0.1,0-0.1,0H105c-0.1,0.2-0.1,0.4-0.1,0.5c0,0.1,0,0.3,0.1,0.4
		c0.1,0.1,0.1,0.2,0.3,0.2c0.1,0,0.2,0.1,0.4,0.1c0.1,0,0.3,0,0.4,0c0.1,0,0.2-0.1,0.3-0.1c0.1,0,0.2-0.1,0.2-0.1
		c0.1,0,0.1-0.1,0.1-0.1c0,0,0.1,0,0.1,0.1l0.1,0.2c-0.1,0.1-0.2,0.2-0.3,0.2c-0.1,0.1-0.2,0.1-0.3,0.2c-0.1,0-0.2,0.1-0.4,0.1
		c-0.1,0-0.2,0-0.4,0c-0.2,0-0.4,0-0.6-0.1c-0.2-0.1-0.3-0.2-0.4-0.3c-0.1-0.1-0.2-0.3-0.2-0.5c0-0.2,0-0.5,0.1-0.7
		c0.1-0.2,0.2-0.4,0.3-0.6c0.1-0.2,0.3-0.4,0.4-0.5c0.2-0.1,0.4-0.3,0.6-0.3C105.9,721,106.1,720.9,106.3,720.9z M106.2,721.4
		c-0.3,0-0.5,0.1-0.7,0.2c-0.2,0.2-0.4,0.4-0.5,0.6h1.7c0-0.1,0-0.3,0-0.4c0-0.1,0-0.2-0.1-0.3c0-0.1-0.1-0.1-0.2-0.2
		C106.5,721.4,106.4,721.4,106.2,721.4z"/>
	<path id="_x36__34_" class="st12" d="M109.7,724.2c-0.1,0-0.1,0-0.1-0.1l0.1-0.4c-0.2,0.2-0.4,0.3-0.6,0.4
		c-0.2,0.1-0.4,0.1-0.6,0.1c-0.2,0-0.3,0-0.5-0.1c-0.1-0.1-0.2-0.2-0.3-0.3c-0.1-0.1-0.1-0.3-0.1-0.5c0-0.2,0-0.4,0.1-0.7
		c0.1-0.2,0.2-0.5,0.3-0.7c0.1-0.2,0.3-0.4,0.4-0.5c0.2-0.2,0.3-0.3,0.5-0.4c0.2-0.1,0.4-0.1,0.6-0.1c0.2,0,0.4,0,0.5,0.1
		c0.1,0.1,0.2,0.2,0.3,0.3l0.5-1.8h0.6l-1.2,4.6H109.7z M108.8,723.8c0.2,0,0.4,0,0.5-0.1c0.2-0.1,0.3-0.2,0.5-0.4l0.4-1.5
		c-0.1-0.1-0.2-0.2-0.3-0.3c-0.1-0.1-0.2-0.1-0.4-0.1c-0.3,0-0.6,0.1-0.8,0.3c-0.2,0.2-0.4,0.5-0.5,0.9c-0.1,0.2-0.1,0.4-0.1,0.5
		c0,0.1,0,0.3,0.1,0.4c0,0.1,0.1,0.2,0.2,0.2C108.5,723.8,108.6,723.8,108.8,723.8z"/>
	<path id="_x37__34_" class="st12" d="M112.2,724.2l1.2-4.6h0.6l-0.5,1.9c0.2-0.2,0.4-0.3,0.6-0.4c0.2-0.1,0.4-0.1,0.6-0.1
		c0.2,0,0.3,0,0.5,0.1c0.1,0.1,0.2,0.2,0.3,0.3c0.1,0.1,0.1,0.3,0.1,0.5c0,0.2,0,0.4-0.1,0.7c-0.1,0.2-0.2,0.5-0.3,0.7
		c-0.1,0.2-0.3,0.4-0.4,0.5c-0.2,0.1-0.3,0.3-0.5,0.3c-0.2,0.1-0.4,0.1-0.6,0.1c-0.2,0-0.4,0-0.5-0.1c-0.1-0.1-0.2-0.2-0.3-0.3
		l-0.1,0.3c0,0.1-0.1,0.1-0.2,0.1H112.2z M114.4,721.4c-0.2,0-0.4,0-0.5,0.1c-0.2,0.1-0.3,0.2-0.5,0.4l-0.4,1.5
		c0.1,0.1,0.1,0.2,0.3,0.3c0.1,0.1,0.2,0.1,0.4,0.1c0.3,0,0.6-0.1,0.8-0.3c0.2-0.2,0.4-0.5,0.5-0.9c0.1-0.2,0.1-0.4,0.1-0.5
		c0-0.1,0-0.3-0.1-0.4c0-0.1-0.1-0.2-0.2-0.2C114.6,721.4,114.5,721.4,114.4,721.4z"/>
	<path id="_x38__34_" class="st12" d="M116.3,725.1c0,0-0.1,0.1-0.1,0.1c0,0-0.1,0-0.1,0h-0.4l0.9-1.2l-0.5-3h0.5c0,0,0.1,0,0.1,0
		c0,0,0,0,0,0.1l0.3,2c0,0,0,0.1,0,0.1c0,0,0,0.1,0,0.1c0,0,0.1-0.1,0.1-0.1c0,0,0.1-0.1,0.1-0.1l1.4-2c0,0,0.1-0.1,0.1-0.1
		c0,0,0.1,0,0.1,0h0.4L116.3,725.1z"/>
	<path id="_x39__34_" class="st12" d="M118.9,723.8c0-0.1,0-0.1,0.1-0.2c0-0.1,0.1-0.1,0.1-0.1c0,0,0.1-0.1,0.1-0.1
		c0.1,0,0.1,0,0.2,0c0.1,0,0.1,0,0.1,0c0,0,0.1,0,0.1,0.1c0,0,0,0.1,0.1,0.1c0,0,0,0.1,0,0.2c0,0.1,0,0.1-0.1,0.2
		c0,0-0.1,0.1-0.1,0.1c0,0-0.1,0.1-0.1,0.1c-0.1,0-0.1,0-0.2,0c-0.1,0-0.1,0-0.1,0c0,0-0.1,0-0.1-0.1c0,0,0-0.1,0-0.1
		C118.9,723.9,118.9,723.9,118.9,723.8z M119.5,721.5c0-0.1,0-0.1,0.1-0.2c0,0,0.1-0.1,0.1-0.1c0,0,0.1-0.1,0.1-0.1
		c0.1,0,0.1,0,0.2,0c0.1,0,0.1,0,0.1,0c0,0,0.1,0,0.1,0.1c0,0,0,0.1,0.1,0.1c0,0,0,0.1,0,0.2c0,0.1,0,0.1-0.1,0.2
		c0,0-0.1,0.1-0.1,0.1c0,0-0.1,0.1-0.1,0.1c-0.1,0-0.1,0-0.2,0c-0.1,0-0.1,0-0.1,0c0,0-0.1,0-0.1-0.1c0,0,0-0.1,0-0.1
		C119.5,721.6,119.5,721.5,119.5,721.5z"/>
	<path class="st12" d="M126,739.3l-0.1,0.5h-2.3l-0.4,1.6h1.8l-0.1,0.5H123l-0.4,1.6h2.3l-0.1,0.5h-2.9l1.3-4.8H126z M126,741.8h1.6
		l-0.1,0.5h-1.6L126,741.8z M128.7,743.5h2.1l-0.1,0.5h-2.7l1.3-4.8h0.6L128.7,743.5z M133.4,740.6c0.2,0,0.4,0,0.5,0.1
		c0.2,0.1,0.3,0.2,0.4,0.3c0.1,0.1,0.1,0.3,0.2,0.5c0,0.2,0,0.4-0.1,0.6c0,0.1-0.1,0.2-0.1,0.2c0,0-0.1,0-0.1,0h-2.2
		c-0.1,0.2-0.1,0.4-0.1,0.6c0,0.2,0,0.3,0.1,0.4c0.1,0.1,0.2,0.2,0.3,0.2c0.1,0.1,0.3,0.1,0.4,0.1c0.1,0,0.3,0,0.4-0.1
		c0.1,0,0.2-0.1,0.3-0.1c0.1,0,0.2-0.1,0.2-0.1c0.1,0,0.1-0.1,0.1-0.1c0,0,0.1,0,0.1,0.1l0.1,0.2c-0.1,0.1-0.2,0.2-0.3,0.2
		c-0.1,0.1-0.2,0.1-0.4,0.2c-0.1,0-0.3,0.1-0.4,0.1c-0.1,0-0.3,0-0.4,0c-0.2,0-0.4,0-0.6-0.1c-0.2-0.1-0.3-0.2-0.4-0.3
		c-0.1-0.2-0.2-0.3-0.2-0.6c0-0.2,0-0.5,0.1-0.8c0.1-0.2,0.2-0.5,0.3-0.7c0.1-0.2,0.3-0.4,0.5-0.5c0.2-0.1,0.4-0.3,0.6-0.4
		C132.9,740.6,133.1,740.6,133.4,740.6z M133.3,741c-0.3,0-0.5,0.1-0.7,0.2c-0.2,0.2-0.4,0.4-0.5,0.7h1.8c0-0.1,0.1-0.3,0-0.4
		c0-0.1,0-0.2-0.1-0.3c-0.1-0.1-0.1-0.1-0.2-0.2C133.5,741.1,133.4,741,133.3,741z M137.1,744h-0.3c-0.1,0-0.1,0-0.1,0
		c0,0,0-0.1,0-0.1l0-0.3c-0.1,0.1-0.2,0.2-0.3,0.2c-0.1,0.1-0.2,0.1-0.3,0.2c-0.1,0-0.2,0.1-0.3,0.1c-0.1,0-0.2,0-0.4,0
		c-0.1,0-0.2,0-0.4-0.1c-0.1,0-0.2-0.1-0.3-0.2c-0.1-0.1-0.1-0.2-0.1-0.3c0-0.1,0-0.2,0-0.4c0-0.1,0.1-0.3,0.2-0.4
		c0.1-0.1,0.3-0.2,0.4-0.3c0.2-0.1,0.4-0.2,0.7-0.2c0.3-0.1,0.6-0.1,1-0.1l0.1-0.3c0.1-0.3,0.1-0.5,0-0.6c-0.1-0.1-0.2-0.2-0.4-0.2
		c-0.1,0-0.3,0-0.4,0.1c-0.1,0-0.2,0.1-0.3,0.1c-0.1,0-0.2,0.1-0.2,0.1c-0.1,0-0.1,0.1-0.2,0.1c0,0-0.1,0-0.1,0c0,0,0,0-0.1-0.1
		l-0.1-0.2c0.2-0.2,0.5-0.3,0.7-0.4c0.2-0.1,0.5-0.1,0.8-0.1c0.2,0,0.3,0,0.5,0.1c0.1,0.1,0.2,0.1,0.3,0.3c0.1,0.1,0.1,0.2,0.1,0.4
		c0,0.2,0,0.3-0.1,0.5L137.1,744z M135.6,743.7c0.1,0,0.2,0,0.3,0s0.2-0.1,0.3-0.1c0.1,0,0.2-0.1,0.3-0.1c0.1-0.1,0.2-0.1,0.3-0.2
		l0.2-0.7c-0.3,0-0.5,0-0.7,0.1c-0.2,0-0.4,0.1-0.5,0.1c-0.1,0.1-0.2,0.1-0.3,0.2c-0.1,0.1-0.1,0.2-0.1,0.3c0,0.1,0,0.2,0,0.2
		c0,0.1,0,0.1,0.1,0.2c0,0,0.1,0.1,0.1,0.1C135.5,743.6,135.6,743.7,135.6,743.7z M138,744l0.9-3.4h0.3c0.1,0,0.1,0,0.1,0
		c0,0,0,0.1,0,0.1l-0.1,0.6c0.2-0.2,0.4-0.4,0.6-0.6c0.2-0.1,0.4-0.2,0.6-0.2c0.1,0,0.2,0,0.2,0c0.1,0,0.1,0.1,0.2,0.1l-0.2,0.4
		c0,0.1-0.1,0.1-0.1,0.1c0,0-0.1,0-0.1,0c-0.1,0-0.1,0-0.3,0c-0.2,0-0.4,0.1-0.6,0.2c-0.2,0.1-0.3,0.3-0.5,0.5l-0.6,2.1H138z
		 M140.7,744l0.9-3.4h0.4c0.1,0,0.1,0,0.1,0.1l-0.1,0.4c0.2-0.2,0.4-0.3,0.6-0.4c0.2-0.1,0.4-0.2,0.7-0.2c0.2,0,0.3,0,0.5,0.1
		c0.1,0.1,0.2,0.1,0.3,0.3c0.1,0.1,0.1,0.2,0.1,0.4c0,0.2,0,0.3-0.1,0.5l-0.6,2.1h-0.6l0.6-2.1c0.1-0.3,0.1-0.5,0-0.6
		c-0.1-0.1-0.2-0.2-0.5-0.2c-0.2,0-0.3,0-0.5,0.1c-0.2,0.1-0.3,0.2-0.5,0.3l-0.7,2.5H140.7z M145.9,740.7L145,744h-0.6l0.9-3.4
		H145.9z M146.3,739.6c0,0.1,0,0.1-0.1,0.2c0,0-0.1,0.1-0.1,0.1c0,0-0.1,0.1-0.2,0.1c-0.1,0-0.1,0-0.2,0c-0.1,0-0.1,0-0.2,0
		c0,0-0.1-0.1-0.1-0.1c0,0,0-0.1-0.1-0.1c0,0,0-0.1,0-0.2c0-0.1,0-0.1,0.1-0.2c0-0.1,0.1-0.1,0.1-0.1c0,0,0.1-0.1,0.2-0.1
		c0.1,0,0.1,0,0.2,0c0.1,0,0.1,0,0.2,0c0,0,0.1,0.1,0.1,0.1c0,0,0,0.1,0.1,0.1C146.3,739.5,146.3,739.5,146.3,739.6z M146,744
		l0.9-3.4h0.4c0.1,0,0.1,0,0.1,0.1l-0.1,0.4c0.2-0.2,0.4-0.3,0.6-0.4c0.2-0.1,0.4-0.2,0.7-0.2c0.2,0,0.3,0,0.5,0.1
		c0.1,0.1,0.2,0.1,0.3,0.3c0.1,0.1,0.1,0.2,0.1,0.4c0,0.2,0,0.3-0.1,0.5l-0.6,2.1h-0.6l0.6-2.1c0.1-0.3,0.1-0.5,0-0.6
		c-0.1-0.1-0.2-0.2-0.5-0.2c-0.2,0-0.3,0-0.5,0.1c-0.2,0.1-0.3,0.2-0.5,0.3l-0.7,2.5H146z M151.8,740.6c0.1,0,0.3,0,0.4,0
		c0.1,0,0.2,0.1,0.3,0.1h0.9l-0.1,0.2c0,0.1-0.1,0.1-0.2,0.1l-0.4,0.1c0,0.1,0,0.3,0,0.5c0,0.2-0.1,0.3-0.2,0.4
		c-0.1,0.1-0.2,0.2-0.4,0.3c-0.1,0.1-0.3,0.2-0.5,0.2c-0.2,0-0.3,0.1-0.5,0.1c-0.2,0-0.3,0-0.4-0.1c-0.1,0-0.1,0.1-0.2,0.1
		c-0.1,0.1-0.1,0.1-0.1,0.2c0,0.1,0,0.1,0,0.2c0.1,0,0.1,0.1,0.2,0.1c0.1,0,0.2,0,0.4,0c0.1,0,0.3,0,0.4,0c0.1,0,0.3,0,0.4,0
		c0.1,0,0.2,0.1,0.3,0.1c0.1,0.1,0.2,0.1,0.2,0.2c0,0.1,0,0.2,0,0.4c0,0.1-0.1,0.3-0.2,0.4c-0.1,0.1-0.2,0.3-0.4,0.4
		c-0.2,0.1-0.3,0.2-0.6,0.3c-0.2,0.1-0.4,0.1-0.7,0.1c-0.2,0-0.5,0-0.6-0.1c-0.2,0-0.3-0.1-0.4-0.2c-0.1-0.1-0.2-0.2-0.2-0.3
		c0-0.1,0-0.2,0-0.3c0-0.2,0.1-0.3,0.3-0.4c0.1-0.1,0.3-0.2,0.5-0.3c-0.1,0-0.1-0.1-0.2-0.2c0-0.1,0-0.2,0-0.3c0,0,0-0.1,0.1-0.2
		c0-0.1,0.1-0.1,0.1-0.2c0-0.1,0.1-0.1,0.2-0.1c0.1,0,0.1-0.1,0.2-0.1c-0.1-0.1-0.2-0.2-0.3-0.4c-0.1-0.2-0.1-0.3,0-0.5
		c0-0.2,0.1-0.3,0.2-0.4c0.1-0.1,0.2-0.3,0.4-0.3c0.1-0.1,0.3-0.2,0.5-0.2C151.4,740.6,151.6,740.6,151.8,740.6z M151.9,744.2
		c0-0.1,0-0.2,0-0.2c0-0.1-0.1-0.1-0.2-0.1c-0.1,0-0.2,0-0.3-0.1c-0.1,0-0.2,0-0.3,0c-0.1,0-0.2,0-0.4,0c-0.1,0-0.2,0-0.3,0
		c-0.1,0.1-0.3,0.1-0.4,0.2c-0.1,0.1-0.2,0.2-0.2,0.3c0,0.1,0,0.1,0,0.2c0,0.1,0.1,0.1,0.1,0.2c0.1,0,0.2,0.1,0.3,0.1
		c0.1,0,0.3,0,0.4,0c0.2,0,0.3,0,0.4,0c0.1,0,0.3-0.1,0.4-0.1c0.1-0.1,0.2-0.1,0.3-0.2C151.8,744.4,151.8,744.3,151.9,744.2z
		 M151.3,742.4c0.1,0,0.2,0,0.3,0c0.1,0,0.2-0.1,0.3-0.1c0.1-0.1,0.1-0.1,0.2-0.2c0.1-0.1,0.1-0.2,0.1-0.3c0.1-0.2,0-0.4-0.1-0.5
		c-0.1-0.1-0.3-0.2-0.5-0.2c-0.2,0-0.4,0.1-0.6,0.2c-0.2,0.1-0.3,0.3-0.3,0.5c0,0.1,0,0.2,0,0.3c0,0.1,0,0.2,0.1,0.2
		c0,0.1,0.1,0.1,0.2,0.1C151.1,742.4,151.2,742.4,151.3,742.4z M159,739.3l-0.1,0.5h-1.5l-1.1,4.2h-0.6l1.1-4.2h-1.5l0.1-0.5H159z
		 M159.9,740.6c0.2,0,0.4,0,0.5,0.1c0.2,0.1,0.3,0.2,0.4,0.3c0.1,0.1,0.1,0.3,0.2,0.5c0,0.2,0,0.4-0.1,0.6c0,0.1,0,0.2-0.1,0.2
		c0,0-0.1,0-0.1,0h-2.2c-0.1,0.2-0.1,0.4-0.1,0.6c0,0.2,0,0.3,0.1,0.4c0.1,0.1,0.2,0.2,0.3,0.2c0.1,0.1,0.2,0.1,0.4,0.1
		c0.1,0,0.3,0,0.4-0.1c0.1,0,0.2-0.1,0.3-0.1c0.1,0,0.2-0.1,0.2-0.1c0.1,0,0.1-0.1,0.1-0.1c0,0,0.1,0,0.1,0.1l0.1,0.2
		c-0.1,0.1-0.2,0.2-0.3,0.2c-0.1,0.1-0.2,0.1-0.4,0.2c-0.1,0-0.3,0.1-0.4,0.1c-0.1,0-0.3,0-0.4,0c-0.2,0-0.4,0-0.6-0.1
		c-0.2-0.1-0.3-0.2-0.4-0.3c-0.1-0.2-0.2-0.3-0.2-0.6c0-0.2,0-0.5,0.1-0.8c0.1-0.2,0.2-0.5,0.3-0.7c0.1-0.2,0.3-0.4,0.5-0.5
		c0.2-0.1,0.4-0.3,0.6-0.4C159.4,740.6,159.6,740.6,159.9,740.6z M159.8,741c-0.3,0-0.5,0.1-0.7,0.2c-0.2,0.2-0.4,0.4-0.5,0.7h1.8
		c0-0.1,0-0.3,0-0.4c0-0.1,0-0.2-0.1-0.3c-0.1-0.1-0.1-0.1-0.2-0.2C160,741.1,159.9,741,159.8,741z M163.6,744h-0.3
		c-0.1,0-0.1,0-0.1,0c0,0,0-0.1,0-0.1l0-0.3c-0.1,0.1-0.2,0.2-0.3,0.2c-0.1,0.1-0.2,0.1-0.3,0.2c-0.1,0-0.2,0.1-0.3,0.1
		c-0.1,0-0.2,0-0.4,0c-0.1,0-0.2,0-0.4-0.1c-0.1,0-0.2-0.1-0.3-0.2c-0.1-0.1-0.1-0.2-0.1-0.3c0-0.1,0-0.2,0-0.4
		c0-0.1,0.1-0.3,0.2-0.4c0.1-0.1,0.3-0.2,0.4-0.3c0.2-0.1,0.4-0.2,0.7-0.2c0.3-0.1,0.6-0.1,1-0.1l0.1-0.3c0.1-0.3,0.1-0.5,0-0.6
		c-0.1-0.1-0.2-0.2-0.4-0.2c-0.1,0-0.3,0-0.4,0.1c-0.1,0-0.2,0.1-0.3,0.1c-0.1,0-0.2,0.1-0.2,0.1c-0.1,0-0.1,0.1-0.2,0.1
		c0,0-0.1,0-0.1,0c0,0,0,0-0.1-0.1l-0.1-0.2c0.2-0.2,0.5-0.3,0.7-0.4c0.2-0.1,0.5-0.1,0.7-0.1c0.2,0,0.3,0,0.5,0.1
		c0.1,0.1,0.2,0.1,0.3,0.3c0.1,0.1,0.1,0.2,0.1,0.4c0,0.2,0,0.3-0.1,0.5L163.6,744z M162.1,743.7c0.1,0,0.2,0,0.3,0
		c0.1,0,0.2-0.1,0.3-0.1c0.1,0,0.2-0.1,0.3-0.1c0.1-0.1,0.2-0.1,0.3-0.2l0.2-0.7c-0.3,0-0.5,0-0.7,0.1c-0.2,0-0.4,0.1-0.5,0.1
		c-0.1,0.1-0.2,0.1-0.3,0.2c-0.1,0.1-0.1,0.2-0.2,0.3c0,0.1,0,0.2,0,0.2c0,0.1,0,0.1,0.1,0.2c0,0,0.1,0.1,0.1,0.1
		C162,743.6,162.1,743.7,162.1,743.7z M164.5,744l0.9-3.4h0.3c0.1,0,0.1,0,0.1,0.1l0,0.3c0.2-0.2,0.3-0.3,0.5-0.4
		c0.2-0.1,0.4-0.1,0.6-0.1c0.2,0,0.4,0.1,0.5,0.2c0.1,0.1,0.2,0.3,0.2,0.5c0.1-0.1,0.2-0.2,0.3-0.3c0.1-0.1,0.2-0.2,0.3-0.2
		c0.1-0.1,0.2-0.1,0.3-0.1c0.1,0,0.2,0,0.3,0c0.2,0,0.3,0,0.5,0.1c0.1,0.1,0.2,0.1,0.3,0.2c0.1,0.1,0.1,0.2,0.1,0.4
		c0,0.2,0,0.3-0.1,0.5L169,744h-0.6l0.6-2.1c0.1-0.3,0.1-0.5,0-0.6c-0.1-0.1-0.2-0.2-0.4-0.2c-0.1,0-0.2,0-0.3,0.1
		c-0.1,0-0.2,0.1-0.3,0.2c-0.1,0.1-0.2,0.2-0.2,0.3c-0.1,0.1-0.1,0.2-0.2,0.4L167,744h-0.6l0.6-2.1c0.1-0.3,0.1-0.5,0-0.6
		c-0.1-0.1-0.2-0.2-0.4-0.2c-0.1,0-0.3,0-0.4,0.1c-0.1,0.1-0.3,0.2-0.4,0.3l-0.7,2.5H164.5z"/>
</g>
<g>
	<g>
		<linearGradient id="SVGID_9_" gradientUnits="userSpaceOnUse" x1="759.4241" y1="142.1514" x2="959.6018" y2="142.1514">
			<stop  offset="0" style="stop-color:#FFFFFF;stop-opacity:0"/>
			<stop  offset="4.017906e-02" style="stop-color:#FDEBEE;stop-opacity:4.051906e-02"/>
			<stop  offset="0.1257" style="stop-color:#FAC6CE;stop-opacity:0.1267"/>
			<stop  offset="0.2187" style="stop-color:#F7A7B2;stop-opacity:0.2205"/>
			<stop  offset="0.3192" style="stop-color:#F58D9C;stop-opacity:0.3219"/>
			<stop  offset="0.4302" style="stop-color:#F3798A;stop-opacity:0.4338"/>
			<stop  offset="0.5573" style="stop-color:#F26C7E;stop-opacity:0.562"/>
			<stop  offset="0.7143" style="stop-color:#F16377;stop-opacity:0.7204"/>
			<stop  offset="0.9916" style="stop-color:#F16175"/>
		</linearGradient>
		<rect x="759.4" y="129.8" class="st15" width="200.2" height="24.7"/>
		<g>
			<g>
				<path class="st13" d="M899.6,146.7c-4.3,0-5.9-2-5.9-5.1c0-2.9,1.8-5.5,5.8-5.5c2.6,0,4.6,0.8,4.6,0.8v7.6h2.2v2.3H899.6z
					 M896,133.2c0-0.8,0.6-1.5,1.5-1.5c0.8,0,1.5,0.7,1.5,1.5c0,0.8-0.6,1.5-1.5,1.5C896.7,134.7,896,134,896,133.2z M901.4,138.8
					c0,0-0.8-0.4-2.1-0.4c-1.7,0-2.6,1.3-2.6,3c0,2,1,3.1,3.3,3.1h1.4V138.8z M899.7,133.2c0-0.8,0.6-1.5,1.5-1.5
					c0.8,0,1.5,0.7,1.5,1.5c0,0.8-0.6,1.5-1.5,1.5C900.3,134.7,899.7,134,899.7,133.2z"/>
				<path class="st13" d="M906,144.4h4.1v-8.1h2.9v10.3h-7V144.4z M907.9,151.5c-0.8,0-1.5-0.7-1.5-1.5c0-0.8,0.6-1.5,1.5-1.5
					c0.8,0,1.5,0.7,1.5,1.5C909.3,150.8,908.7,151.5,907.9,151.5z M911.5,151.5c-0.8,0-1.5-0.7-1.5-1.5c0-0.8,0.6-1.5,1.5-1.5
					c0.8,0,1.5,0.7,1.5,1.5C913,150.8,912.3,151.5,911.5,151.5z"/>
				<path class="st13" d="M913.2,152.1l0.2-2.3c0.5,0.2,1.1,0.3,1.8,0.3c1.5,0,2.4-0.7,2.4-3.1v-10.6h2.9v8.1h2.2v2.3h-2.2v0.1
					c0,2.8-0.9,5.5-5.4,5.5C914.3,152.3,913.7,152.2,913.2,152.1z"/>
				<path class="st13" d="M922.3,146.7v-2.3h1.9c0.6,0,1,0.1,1,0.1s-0.6-0.6-0.6-1.5c0-2.1,1.5-3.7,4.2-3.7c2.9,0,4,2,4,4.5v0.6h2.3
					v-0.3c0-4.6-1.8-6.8-6.2-6.8c-1.5,0-3.3,0.4-4.7,0.8l-0.3-2c1.6-0.5,3.6-0.9,5.3-0.9c5.5,0,8.6,2.6,8.6,9.1v0.1h1.6v2.3H922.3z
					 M930.4,143.8c0-1.6-0.6-2.7-1.9-2.7c-1,0-1.6,0.7-1.6,1.6c0,1.1,0.9,1.8,2.1,1.8h1.4V143.8z"/>
				<path class="st13" d="M939.1,144.4h8.5c0.1-0.5,0.1-1.1,0.1-1.7c0-2.8-1.1-4.2-4.3-4.2c-0.9,0-1.7,0.1-2.5,0.2v-2.3
					c0.9-0.1,1.9-0.2,2.8-0.2c5,0,6.9,2.2,6.9,6.4c0,1.1-0.1,2.5-0.4,4.1h-11.1V144.4z M942.8,150c0-0.8,0.7-1.5,1.5-1.5
					s1.5,0.7,1.5,1.5c0,0.8-0.7,1.5-1.5,1.5S942.8,150.9,942.8,150z"/>
			</g>
		</g>
		<g>
			<path class="st8" d="M716.7,144c0.1,0.4,0.2,0.8,0.2,1.1c0,0.9-0.6,1.7-1.9,2.2l-4.9,1.9c-1.5,0.6-2.8,1.1-2.8,2
				c0,0.1,0,0.1,0,0.2l-0.2,0.1c-0.1-0.4-0.2-0.8-0.2-1.1c0-0.9,0.5-1.7,1.9-2.3l4.9-1.9c1.7-0.7,2.8-1.1,2.8-2.2L716.7,144z"/>
			<path class="st8" d="M736.5,113.8c0-4.3,2.1-5.9,5.3-6.1v0.5c-2,0.3-2,3.7-2,7.4v2.2c0,5.5-4.5,10-9.9,10h-19.2
				c-11.9,0-18.5-5.2-18.5-14.1c0-2,0.3-3.9,1.1-5.8l0.4,0.3c-0.6,1.2-0.7,2.6-0.7,4.1c0,7.4,5.1,12.3,17.6,12.3h19.2
				c3.8,0,6.7-2.9,6.7-7.3V113.8z M716.8,137.3l-2.8-2.8l2.8-2.9l2.8,2.9L716.8,137.3z"/>
			<path class="st8" d="M753.6,148.4c0.1,0.4,0.2,0.8,0.2,1.1c0,0.9-0.6,1.7-1.9,2.2l-4.9,1.9c-1.5,0.6-2.8,1.1-2.8,2
				c0,0.1,0,0.1,0,0.2l-0.2,0.1c-0.1-0.4-0.2-0.8-0.2-1.1c0-0.9,0.5-1.7,1.9-2.3l4.9-1.9c1.7-0.7,2.8-1.1,2.8-2.2L753.6,148.4z"/>
			<path class="st8" d="M755.6,124.5h8.9v3.3h-8.9c0,5.9-1.5,10.5-5.1,14.3c-3.2,3.6-7.1,5.4-11.7,5.4c-2,0-3.9-0.4-5.9-1.2l0.3-0.6
				c1.3,0.7,2.7,1,4.2,1c8.1,0,15-7.4,15-18.9v-21.2h3.3V124.5z"/>
			<path class="st8" d="M780.3,81.1c0.3-0.2,0.7-0.3,1.1-0.3V81c-0.7,0.1-0.7,1.2-0.7,2.4v2c0,1.7-1.4,3.1-3.1,3.1
				c-1.9,0-3.4-1.1-3.4-2.8v-1.2c0-1.8,1.6-3.4,3.4-3.4H780.3z M777.7,82.2c-1.4,0-2.5,1-2.5,2.3v1.2c0,0.9,1,1.7,2.3,1.7
				c1,0,2.1-0.9,2.1-2.1v-2.5c0-0.2,0-0.5,0.1-0.6H777.7z"/>
			<path class="st8" d="M794,127.8h-29.6v-3.3h4.6c-1.7-1.7-2.5-4.1-2.5-6.3c0-5.1,4.5-9.6,9.7-9.6h6.9c3.4,0,6.8,0,7-2.2h0.5
				c0,3.4-1.9,5.4-5.8,5.4h-8.2c-4.2,0-7.1,2.7-7.1,6.4s2.8,6.2,6.7,6.3H794V127.8z M781.6,101.3l-2.8-2.8l2.8-2.9l2.8,2.9
				L781.6,101.3z"/>
			<path class="st8" d="M809.3,96.8c0.1,0.4,0.2,0.8,0.2,1.1c0,0.9-0.6,1.7-1.9,2.2l-4.9,1.9c-1.5,0.6-2.8,1.1-2.8,2
				c0,0.1,0,0.1,0,0.2l-0.2,0.1c-0.1-0.4-0.2-0.8-0.2-1.1c0-0.9,0.5-1.7,1.9-2.3l4.9-1.9c1.7-0.7,2.8-1.1,2.8-2.2L809.3,96.8z"/>
			<path class="st8" d="M800.7,124.5v-8.7c0-5.4,4.7-10.1,10.1-10.1h7.5c0.9-0.6,1.9-0.8,3.1-1v0.4c-1.9,0.4-2,3.8-2,7.3l-0.2,6.1
				c0,2.4,1.1,4.5,3.1,5.5c0.6,0.3,1.5,0.5,3,0.5v3.3c-3.5,0-6.1-1.3-7.8-4c-1.6,2.5-4.5,4-7.6,4h-16v-3.3H800.7z M811.3,109
				c-4.3,0-7.4,3.1-7.4,6.9v8.6h5.9c3.4,0,6.3-2.5,6.3-5.9v-7.7c0-0.8,0.1-1.4,0.2-1.9H811.3z"/>
			<path class="st8" d="M835.3,82.1c0.3-0.2,0.7-0.3,1.1-0.3V82c-0.7,0.1-0.7,1.2-0.7,2.4v2c0,1.7-1.4,3.1-3.1,3.1
				c-1.9,0-3.4-1.1-3.4-2.8v-1.2c0-1.8,1.6-3.4,3.4-3.4H835.3z M832.7,83.2c-1.4,0-2.5,1-2.5,2.3v1.2c0,0.9,1,1.7,2.3,1.7
				c1,0,2.1-0.9,2.1-2.1v-2.5c0-0.2,0-0.5,0.1-0.6H832.7z"/>
			<path class="st8" d="M829,89.7c3.1,0.1,5.3,1.7,5.3,6v21.6c0,4-2.5,7.9-6,9.6c-1.2,0.6-2.2,0.9-3,0.9v-3.3
				c2.4-0.2,5.8-2.8,5.8-7.3v-20c0-3.5,0-7-2.1-7.2V89.7z"/>
			<path class="st8" d="M841.7,97.8c0-5.7-0.2-7.3-2-7.5v-0.4c3.5,0.1,5.2,2.2,5.2,6.2v31.8h-3.3V97.8z"/>
			<path class="st8" d="M868.8,82.2c-1.3,2.3-3.3,3.5-5.2,3.5c-1.4,0-2.8-0.7-3.7-1.8l0.1-0.1c0.7,0.9,1.8,1.4,3,1.4
				c1.7,0,3.6-1,4.9-3.4l0.3-0.6c-0.2,0-0.4,0.1-0.6,0.1c-1.8,0-3.1-1.7-3.1-3.1c0-0.4,0.1-0.8,0.3-1.1l0.6-1c0.6-1,1.7-1.6,2.8-1.6
				c0.5,0,1,0.1,1.5,0.4l-0.4,0.9c-0.4-0.2-0.8-0.3-1.2-0.3c-0.8,0-1.5,0.4-1.9,1.1l-0.5,1c-0.1,0.2-0.2,0.4-0.2,0.6
				c0,0.8,0.8,2,2.1,2c0.5,0,0.9-0.2,1.3-0.5l1.7-3.1l-1.4-0.8l0.4-0.9L872,76c0.3,0,0.7,0.1,1,0.3l-0.1,0.1c-0.1,0-0.2,0-0.2,0
				c-0.5,0-0.9,0.9-1.4,1.7l-0.9,1.6L868.8,82.2z"/>
			<path class="st8" d="M878.3,105.6c0.8-0.5,1.9-0.7,3.1-0.8v0.5c-2.1,0.3-2.1,3.7-2.1,7.2v6c0,5.2-4.3,9.3-9.4,9.3
				c-5.4,0-10.2-3.6-10.2-8.3v-3.6c0-5.5,4.8-10.3,10.3-10.3H878.3z M870.6,108.8c-4.3,0-7.4,3.2-7.4,7v3.6c0,2.6,2.9,5.1,6.8,5.1
				c3.3,0,6.2-2.8,6.2-6.1v-7.6c0-0.9,0-1.4,0.3-2H870.6z M866.2,101.3l-2.9-2.9l2.9-2.8l2.9,2.8L866.2,101.3z M872,101.3l-2.9-2.9
				l2.9-2.8l2.9,2.8L872,101.3z"/>
			<path class="st8" d="M917.1,127.8c-3.4,0-6.6-1.6-8.3-4.5c-1,2-4.5,4.5-8,4.5h-17.1v-3.3h10.9v-13.1c0-3.7-0.2-7.2-2.2-7.5v-0.5
				c3.4,0.2,5.5,1.8,5.5,6.2v14.9h2.9c3.8,0,6.8-3.3,6.8-7.7V96.2c0-3.8-0.1-7.1-2.1-7.4v-0.5c3.3,0.1,5.4,1.8,5.4,6.1v24.7
				c0.3,3.3,2.8,5.2,6.2,5.5V127.8z"/>
			<path class="st8" d="M950.5,93.9c0.1,0.4,0.2,0.8,0.2,1.1c0,0.9-0.6,1.7-1.9,2.2l-4.9,1.9c-1.5,0.6-2.8,1.1-2.8,2
				c0,0.1,0,0.1,0,0.2l-0.2,0.1c-0.1-0.4-0.2-0.8-0.2-1.1c0-0.9,0.5-1.7,1.9-2.3l4.9-1.9c1.7-0.7,2.8-1.1,2.8-2.2L950.5,93.9z"/>
			<path class="st8" d="M959.6,127.8H917v-3.3h2.8c0.6-0.3,0.9-1.1,0.9-2.5c0-3.4-0.8-6.6-3.2-8.8l0.4-0.3c2.2,2.1,3.7,4.7,4.4,7.3
				c0.7-8.2,8.8-14.5,19.3-14.5h6.9c6.1,0.5,11.2,6.1,11.1,12.4V127.8z M956.3,124.5V118c0-3.8-1.7-6.5-5.1-8.1
				c-1.4-0.6-3.3-0.9-6.2-0.9h-3.4c-11.1,0-18.8,6.2-18.8,14.5v1H956.3z"/>
		</g>
	</g>
</g>
</svg>
