<?xml version="1.0" encoding="utf-8"?>
<!-- Generator: Adobe Illustrator 19.2.0, SVG Export Plug-In . SVG Version: 6.00 Build 0)  -->
<svg version="1.1" id="Layer_1" xmlns="http://www.w3.org/2000/svg" xmlns:xlink="http://www.w3.org/1999/xlink" x="0px" y="0px"
	 viewBox="0 0 1024 768" style="enable-background:new 0 0 1024 768;" xml:space="preserve">
<style type="text/css">
	.st0{fill:url(#SVGID_1_);}
	.st1{clip-path:url(#SVGID_3_);}
	.st2{fill:url(#SVGID_4_);}
	.st3{fill:#F68A1F;}
	.st4{filter:url(#Adobe_OpacityMaskFilter);}
	.st5{filter:url(#Adobe_OpacityMaskFilter_1_);}
	.st6{mask:url(#SVGID_5_);fill:url(#SVGID_6_);}
	.st7{fill:url(#SVGID_7_);}
	.st8{fill:#622872;}
	.st9{fill:url(#SVGID_8_);}
	.st10{fill:#CA4977;}
	.st11{fill-rule:evenodd;clip-rule:evenodd;fill:#F6DFB4;}
	.st12{fill:#D2D3D4;}
	.st13{fill:#FFFFFF;}
	.st14{fill:#205B6A;}
	.st15{fill:url(#SVGID_9_);}
</style>
<g>
	<g>
		<g>
			<g>
				<linearGradient id="SVGID_1_" gradientUnits="userSpaceOnUse" x1="246.4064" y1="135.4816" x2="246.4064" y2="718.4726">
					<stop  offset="0" style="stop-color:#3553A4"/>
					<stop  offset="0.103" style="stop-color:#49559C"/>
					<stop  offset="0.3094" style="stop-color:#715B8A"/>
					<stop  offset="0.6003" style="stop-color:#A5676B"/>
					<stop  offset="0.9615" style="stop-color:#EB782B"/>
					<stop  offset="0.9949" style="stop-color:#F47A22"/>
				</linearGradient>
				<path class="st0" d="M396.7,264.2h-6.1c-1.8-28.2-25.9-59.6-71.7-93.4c-35-25.9-70.5-43.7-70.9-43.9c-1-0.5-2.2-0.5-3.1,0
					c-0.3,0.2-35.9,18-70.9,43.9c-45.7,33.8-69.8,65.2-71.7,93.4h-6.1c-1.9,0-3.5,1.6-3.5,3.5V628h307.5V267.7
					C400.1,265.8,398.6,264.2,396.7,264.2z"/>
			</g>
		</g>
	</g>
	<g>
		<defs>
			<path id="SVGID_2_" d="M396.7,264.2h-6.1c-1.8-28.2-25.9-59.6-71.7-93.4c-35-25.9-70.5-43.7-70.9-43.9c-1-0.5-2.2-0.5-3.1,0
				c-0.3,0.2-35.9,18-70.9,43.9c-45.7,33.8-69.8,65.2-71.7,93.4h-6.1c-1.9,0-3.5,1.6-3.5,3.5V628h307.5V267.7
				C400.1,265.8,398.6,264.2,396.7,264.2z"/>
		</defs>
		<clipPath id="SVGID_3_">
			<use xlink:href="#SVGID_2_"  style="overflow:visible;"/>
		</clipPath>
		<g class="st1">
			
				<radialGradient id="SVGID_4_" cx="173.7641" cy="663.6241" r="54.2731" fx="162.6237" fy="647.5805" gradientUnits="userSpaceOnUse">
				<stop  offset="0.1436" style="stop-color:#FBF067"/>
				<stop  offset="0.5314" style="stop-color:#FFDE00"/>
				<stop  offset="0.9166" style="stop-color:#F47D20"/>
			</radialGradient>
			<circle class="st2" cx="174.8" cy="666.2" r="48.7"/>
			<g>
				<path class="st3" d="M174.8,617.5c-26.9,0-48.7,21.8-48.7,48.7c0,26.9,21.8,48.7,48.7,48.7c26.9,0,48.7-21.8,48.7-48.7
					C223.5,639.3,201.7,617.5,174.8,617.5z M173.1,711.7c-25.1,0-45.5-20.4-45.5-45.5c0-25.1,20.4-45.5,45.5-45.5
					c25.1,0,45.5,20.4,45.5,45.5C218.6,691.3,198.2,711.7,173.1,711.7z"/>
				<path class="st3" d="M180.1,601.4c0,2.7-2,4.9-4.6,4.9l0,0c-2.5,0-4.6-2.2-4.6-4.9v-8.7c0-2.7,2-4.9,4.6-4.9l0,0
					c2.5,0,4.6,2.2,4.6,4.9V601.4z"/>
				<path class="st3" d="M180.1,734.6c0,2.7-2,4.9-4.6,4.9l0,0c-2.5,0-4.6-2.2-4.6-4.9v-8.7c0-2.7,2-4.9,4.6-4.9l0,0
					c2.5,0,4.6,2.2,4.6,4.9V734.6z"/>
				<path class="st3" d="M237.8,668.2c-2.7,0-4.9-2-4.9-4.6l0,0c0-2.5,2.2-4.6,4.9-4.6h8.7c2.7,0,4.9,2,4.9,4.6l0,0
					c0,2.5-2.2,4.6-4.9,4.6H237.8z"/>
				<path class="st3" d="M104.5,668.2c-2.7,0-4.9-2-4.9-4.6l0,0c0-2.5,2.2-4.6,4.9-4.6h8.7c2.7,0,4.9,2,4.9,4.6l0,0
					c0,2.5-2.2,4.6-4.9,4.6H104.5z"/>
				<path class="st3" d="M222.8,622.8c-1.9,1.9-4.9,2.1-6.7,0.3l0,0c-1.8-1.8-1.7-4.8,0.3-6.7l6.2-6.2c1.9-1.9,4.9-2.1,6.7-0.3l0,0
					c1.8,1.8,1.7,4.8-0.3,6.7L222.8,622.8z"/>
				<path class="st3" d="M128.6,717c-1.9,1.9-4.9,2.1-6.7,0.3l0,0c-1.8-1.8-1.7-4.8,0.3-6.7l6.2-6.2c1.9-1.9,4.9-2.1,6.7-0.3l0,0
					c1.8,1.8,1.7,4.8-0.3,6.7L128.6,717z"/>
				<path class="st3" d="M216.3,710.9c-1.9-1.9-2-4.9-0.3-6.7l0,0c1.8-1.8,4.8-1.7,6.7,0.3l6.2,6.2c1.9,1.9,2.1,4.9,0.3,6.7l0,0
					c-1.8,1.8-4.8,1.7-6.7-0.3L216.3,710.9z"/>
				<path class="st3" d="M122.1,616.7c-1.9-1.9-2-4.9-0.3-6.7l0,0c1.8-1.8,4.8-1.7,6.7,0.3l6.2,6.2c1.9,1.9,2.1,4.9,0.3,6.7l0,0
					c-1.8,1.8-4.8,1.7-6.7-0.3L122.1,616.7z"/>
			</g>
			<defs>
				<filter id="Adobe_OpacityMaskFilter" filterUnits="userSpaceOnUse" x="128.9" y="621.5" width="72.7" height="48.8">
					<feFlood  style="flood-color:white;flood-opacity:1" result="back"/>
					<feBlend  in="SourceGraphic" in2="back" mode="normal"/>
				</filter>
			</defs>
			<mask maskUnits="userSpaceOnUse" x="128.9" y="621.5" width="72.7" height="48.8" id="SVGID_5_">
				<g class="st4">
					<defs>
						<filter id="Adobe_OpacityMaskFilter_1_" filterUnits="userSpaceOnUse" x="128.9" y="621.5" width="72.7" height="48.8">
							<feFlood  style="flood-color:white;flood-opacity:1" result="back"/>
							<feBlend  in="SourceGraphic" in2="back" mode="normal"/>
						</filter>
					</defs>
					<mask maskUnits="userSpaceOnUse" x="128.9" y="621.5" width="72.7" height="48.8" id="SVGID_5_">
						<g class="st5">
						</g>
					</mask>
					
						<radialGradient id="SVGID_6_" cx="163.8041" cy="625.8902" r="50.6721" fx="180.9802" fy="599.777" gradientUnits="userSpaceOnUse">
						<stop  offset="0.2627" style="stop-color:#FFFFFF"/>
						<stop  offset="0.7268" style="stop-color:#FFFFFF"/>
						<stop  offset="0.9716" style="stop-color:#000000"/>
					</radialGradient>
					<path class="st6" d="M143.6,632.2c9-9.2,32.2-15.4,48.6-6.2c16.4,9.2,11,26.7-15.4,25.7c-26.4-1-42.3,8.6-44.4,16.8
						C130.4,676.8,121.3,655,143.6,632.2z"/>
				</g>
			</mask>
			
				<radialGradient id="SVGID_7_" cx="163.8041" cy="625.8902" r="50.6721" fx="180.9802" fy="599.777" gradientUnits="userSpaceOnUse">
				<stop  offset="0.2627" style="stop-color:#FFFFFF"/>
				<stop  offset="0.7268" style="stop-color:#FBF067"/>
				<stop  offset="0.9716" style="stop-color:#FFDE00"/>
			</radialGradient>
			<path class="st7" d="M143.6,632.2c9-9.2,32.2-15.4,48.6-6.2c16.4,9.2,11,26.7-15.4,25.7c-26.4-1-42.3,8.6-44.4,16.8
				C130.4,676.8,121.3,655,143.6,632.2z"/>
		</g>
	</g>
</g>
<g>
	<path class="st8" d="M493.3,218.5c0-0.8,0.7-1.5,1.5-1.5c0.8,0,1.5,0.7,1.5,1.5c0,0.8-0.7,1.5-1.5,1.5
		C494,220,493.3,219.4,493.3,218.5z M493.3,226c0-0.8,0.7-1.5,1.5-1.5c0.8,0,1.5,0.7,1.5,1.5c0,0.8-0.7,1.5-1.5,1.5
		C494,227.5,493.3,226.8,493.3,226z"/>
	<path class="st8" d="M512.8,226c0,0.4-0.2,1.2-1.4,1.2c-1,0-1.6-0.3-2-0.6c-0.7,2.2-3.3,4.2-7.2,4.9l-1-1.4l0.1-0.2
		c4.7-0.9,6.4-2.8,6.8-4.6c-0.4-1.1-1.1-2.6-1.8-4l1.4-1.5h0.2c0.6,1.7,1.2,3.1,1.4,3.7c0.6,1.6,1,1.9,2.5,1.9
		C512.7,225.4,512.8,225.6,512.8,226z"/>
	<path class="st8" d="M520.4,226c0,0.4-0.2,1.2-1.4,1.2c-1,0-2.4-0.3-3.5-1.2c-0.8,0.8-1.9,1.2-3.6,1.2h-0.5l0.5-1.9h0.5
		c0.9,0,1.6-0.1,2-0.5c0.4-0.5,0.7-1.6,1.2-3.6l1.8-0.5l0.2,0.1c-0.3,1.5-0.7,2.7-1.2,3.7c0.5,0.3,1.4,0.7,3,0.7
		C520.3,225.4,520.4,225.6,520.4,226z M515.3,229.1l2,1.3l-1.2,1.8l-2-1.4L515.3,229.1z"/>
	<path class="st8" d="M528.5,214.1l-6.2,3.5c4.7,3.1,5.5,4.8,5.5,6.2c0,1.9-1.7,3.4-6.5,3.4H519l0.5-1.9h1.8c2.5,0,4.5-0.5,5-1
		c0-1.9-2.5-3.6-5.6-5.7l-0.1-0.1l0.5-2.4l7.9-4.5l0.2,0.1L528.5,214.1z"/>
	<path class="st8" d="M536.3,209c-1.2,0.1-2.7,0.3-4.6,0.3l-0.1-1.3c0.3,0,0.7,0,1.1,0c-0.3-0.4-0.4-0.9-0.4-1.4
		c0-1.2,0.7-1.9,2-1.9c0.5,0,1.1,0.1,1.7,0.3l-0.3,1.2c-0.5-0.1-0.8-0.2-1.1-0.2c-0.6,0-0.9,0.4-0.9,0.9c0,0.4,0.2,0.7,0.5,1
		c0.8,0,1.5-0.1,2.2-0.2L536.3,209z M534.9,210.8l0.1,0.1l0,16.1l-1.7,0.4l-0.1-0.1v-16L534.9,210.8z"/>
	<path class="st8" d="M545.4,225.2c0,3.1-2.3,6.1-7.3,6.2l-1-1.4l0.1-0.2c3.4-0.1,5.7-1.3,6.5-3.3c-0.7,0.1-1.4,0.3-2.3,0.3
		c-2.1,0-3.1-1.1-3.1-2.8c0-2.2,1.6-4.6,3.5-4.6C544,219.5,545.4,222.3,545.4,225.2z M541.7,225c0.8,0,1.5-0.1,2.2-0.2
		c-0.1-1.7-1.1-3.5-2.2-3.5c-0.9,0-1.9,1.2-1.9,2.5C539.8,224.7,540.5,225,541.7,225z"/>
	<path class="st8" d="M553.7,227c0-1,0.2-2,0.4-2.7l1.5-0.5l0.2,0.1c-0.2,0.9-0.3,1.6-0.3,2.2c0,2.2,1.2,3.8,5.1,3.8
		c3.7,0,6.6-1,7-2.2c0-0.8-1.1-1.3-3.9-2l0.6-1.8c2.4,0.6,4.5,1.5,6.5,1.5c0.8,0,1,0.3,1,0.7c0,0.4-0.2,1.2-1.5,1.2h-0.9
		c-0.4,2.9-4,4.5-9.2,4.5C555.9,231.7,553.7,229.7,553.7,227z"/>
	<path class="st8" d="M579.4,226c0,0.4-0.2,1.2-1.4,1.2c-1,0-2.4-0.3-3.5-1.2c-0.8,0.8-1.9,1.2-3.6,1.2h-0.5l0.5-1.9h0.5
		c0.9,0,1.6-0.1,2-0.5c0.4-0.5,0.7-1.6,1.2-3.6l1.8-0.5l0.2,0.1c-0.3,1.5-0.7,2.7-1.2,3.7c0.5,0.3,1.4,0.7,3,0.7
		C579.2,225.4,579.4,225.6,579.4,226z M575.7,218.1l-2-1.4l1.2-1.8l2,1.3L575.7,218.1z"/>
	<path class="st8" d="M592.1,226c0,0.7-0.6,1.2-1.5,1.2c-1,0-1.8-0.2-2.4-0.8c-0.4,0.7-0.9,1.1-1.9,1.1c-1.4,0-3.2-0.7-4.8-1.8
		c-1,1.3-1.7,1.5-3.6,1.5l0.5-1.9c1,0,1.3-0.3,2.1-1.5c0.9-1.5,2-4.4,4.3-4.4c1.8,0,2.6,1.8,3.5,3.7c0.9,1.8,1.3,2.1,2.8,2.1
		C591.8,225.4,592.1,225.6,592.1,226z M587.2,225.1c-0.1-0.1-0.1-0.3-0.2-0.4c-1-2.4-1.6-3.3-2.2-3.3c-0.9,0-1.7,1.5-2.4,2.9
		c1.2,0.8,2.7,1.4,3.5,1.4C586.5,225.7,586.9,225.5,587.2,225.1z"/>
	<path class="st8" d="M600.2,226c0,0.4-0.2,1.2-1.4,1.2c-1.5,0-2.9-0.3-3.9-1.2c-0.8,0.8-1.8,1.2-3.3,1.2h-0.8l0.5-1.9h0.7
		c0.7,0,1.4-0.1,1.8-0.5c0.3-0.5,0.7-1.6,1.2-3.6l1.8-0.5l0.2,0.1c-0.3,1.5-0.7,2.7-1.1,3.7c0.6,0.3,1.5,0.7,3.4,0.7
		C600.1,225.4,600.2,225.6,600.2,226z M592.8,229.1l1.9,1.3l-1.2,1.8l-1.9-1.4L592.8,229.1z M596.2,229.1l1.9,1.3l-1.2,1.8l-1.9-1.4
		L596.2,229.1z"/>
	<path class="st8" d="M599.3,225.4c0.8,0,1.7,0,2.3-0.5c0.1-0.4,0.2-1,0.2-1.9v-11.7l1.7-0.4l0.2,0.1v11.9c0,3.5-1.8,4.4-4.8,4.4
		L599.3,225.4z"/>
	<path class="st8" d="M606.7,227.3v-16l1.8-0.5l0.1,0.1l0,16.1l-1.7,0.4L606.7,227.3z"/>
	<path class="st8" d="M617,227c0-1,0.2-2,0.4-2.7l1.5-0.5l0.2,0.1c-0.2,0.9-0.3,1.6-0.3,2.2c0,2.2,1.2,3.8,5.1,3.8
		c3.7,0,6.5-0.9,6.9-2.1c0-0.5-0.4-1.1-3.9-2l0.6-1.7c4.4,1.2,5.2,2,5.2,3.2c-0.3,2.9-4,4.5-9.2,4.5C619.1,231.7,617,229.7,617,227z
		 M620.1,235.3l1.2-1.8l1.9,1.3l-1.2,1.8L620.1,235.3z M623.5,235.3l1.2-1.8l1.9,1.3l-1.2,1.8L623.5,235.3z"/>
	<path class="st8" d="M639.1,226c0,0.4-0.2,1.2-1.4,1.2c-1.9,0-3.2-1-3.7-2.8c-1,0.6-2.6,1-5.2,1.2l-1.2-1.6c3.4-0.3,5.2-0.7,5.9-1
		c0.1-0.4,0.2-1.1,0.2-1.9v-9.8l1.7-0.4l0.2,0.1v10c0,2.7,0.5,4.5,2.7,4.5C638.9,225.3,639.1,225.6,639.1,226z"/>
	<path class="st8" d="M650.9,222.5l-0.5,1.7c-2,0.2-3.9,0.7-6.5,1.6c-3,1-4.6,1.4-6.3,1.4l0.5-1.9c1.5,0,2.8-0.2,5.4-1.1
		c1.6-0.5,2.8-0.8,3.8-1c-0.4-0.2-1-0.5-1.7-0.9c-1.9-1.1-2.9-1.4-4-1.4c-0.9,0-1.7,0.2-2.4,0.5l-0.1-0.1l0.7-1.7
		c0.6-0.3,1.4-0.5,2.1-0.5c1.1,0,2.2,0.5,4.3,1.6C648.4,221.9,649.7,222.4,650.9,222.5z M643.5,229.1l2,1.3l-1.2,1.8l-2-1.4
		L643.5,229.1z"/>
	<path class="st8" d="M649.1,230.1l0.1-0.2c4.6-0.8,6.7-3,6.7-4.3c-0.1-1-0.8-2.7-1.7-4.4l1.4-1.5h0.2c1,1.9,1.7,4,1.7,5.4
		c0,0.8-0.2,1.7-0.6,2.4c-0.9,1.7-3.4,3.3-6.7,3.9L649.1,230.1z"/>
	<path class="st8" d="M665.8,227c0-1,0.2-2,0.4-2.7l1.5-0.5l0.2,0.1c-0.2,0.9-0.3,1.6-0.3,2.2c0,2.2,1.2,3.8,5.1,3.8
		c3.7,0,6.5-0.9,6.9-2.1c0-0.5-0.4-1.1-3.9-2l0.6-1.7c4.4,1.2,5.2,2,5.2,3.2c-0.3,2.9-4,4.5-9.2,4.5
		C667.9,231.7,665.8,229.7,665.8,227z"/>
	<path class="st8" d="M687.9,226c0,0.4-0.2,1.2-1.4,1.2c-1.9,0-3.2-1-3.7-2.8c-1,0.6-2.6,1-5.2,1.2l-1.2-1.6c3.4-0.3,5.2-0.7,5.9-1
		c0.1-0.4,0.2-1.1,0.2-1.9v-9.8l1.7-0.4l0.2,0.1v10c0,2.7,0.5,4.5,2.7,4.5C687.7,225.3,687.9,225.6,687.9,226z"/>
	<path class="st8" d="M697.8,224.9l-0.6,1.7c-1.9,0.4-4.7,0.6-10.8,0.6l0.5-1.9c0.9,0,1.8,0,2.7,0c-0.6-0.9-1-2-1-3.1
		c0-2.5,2-4,4.6-4c1.2,0,2.4,0.4,3.2,0.8l-0.2,1.7l-0.1,0c-0.9-0.4-1.9-0.6-2.9-0.6c-1.6,0-2.6,0.8-2.6,2.1c0,0.9,0.5,2.1,1.4,3
		c2.1-0.1,3.9-0.2,5.6-0.4L697.8,224.9z"/>
	<path class="st8" d="M732.8,226c0,0.4-0.2,1.2-1.4,1.2c-1,0-2.3-0.2-3.3-1c-0.7,0.7-1.7,1-2.8,1c-1,0-2-0.2-2.7-0.6
		c-0.5,0.4-1.2,0.6-2.2,0.6c-0.6,0-1.3-0.2-1.9-0.6c-0.5,3.4-3.3,5.1-6.9,5.1c-3.7,0-5.7-2.1-5.7-4.9c0-1,0.2-2.1,0.4-2.7l1.5-0.5
		l0.2,0.1c-0.2,0.8-0.2,1.6-0.2,2.2c0,2.4,0.9,4,4.2,4c2.7,0,3.9-1,4.6-1.8c0.2-0.5,0.3-1.1,0.3-1.6c0-1.3-0.6-2.7-1.3-4.4l1.7-1.2
		h0.1c0.3,0.8,0.7,2.3,1.2,3.2c0.5,0.9,1.2,1.3,2,1.3c0.4,0,0.9-0.1,1.2-0.3c0.3-0.4,0.7-1.4,1.1-2.8l1.9-0.3l0.1,0.1
		c-0.4,1.2-0.7,2.2-1.1,3c0.5,0.1,1.1,0.3,1.7,0.3c0.6,0,1.2-0.1,1.6-0.4c0.2-0.3,0.4-1.1,0.4-2.2c0-0.4,0-0.8-0.1-1.2l1.7-0.6
		l0.2,0.1c0,0.4,0,0.7,0,1.1c0,1.1-0.1,1.9-0.3,2.6c0.5,0.3,1.4,0.7,2.9,0.7C732.6,225.4,732.8,225.6,732.8,226z"/>
	<path class="st8" d="M739.8,226c0,0.4-0.2,1.2-1.4,1.2c-1,0-2.4-0.2-3-1.4c-0.8,1.1-2.2,1.4-4,1.4l0.5-1.9c0.8,0,1.7,0,2.3-0.5
		c0.1-0.4,0.2-1,0.2-1.9v-11.7l1.7-0.4l0.2,0.1v11.8c0,2.4,1.1,2.6,2.7,2.6C739.6,225.4,739.8,225.6,739.8,226z"/>
	<path class="st8" d="M751.6,222.5l-0.5,1.7c-2,0.2-3.9,0.7-6.5,1.6c-3,1-4.6,1.4-6.3,1.4l0.5-1.9c1.5,0,2.8-0.2,5.4-1.1
		c1.6-0.5,2.8-0.8,3.8-1c-0.4-0.2-1-0.5-1.7-0.9c-1.9-1.1-2.9-1.4-4-1.4c-0.9,0-1.7,0.2-2.4,0.5l-0.1-0.1l0.7-1.7
		c0.6-0.3,1.4-0.5,2.1-0.5c1.1,0,2.2,0.5,4.3,1.6C749.1,221.9,750.4,222.5,751.6,222.5z M744.2,229.1l2,1.3l-1.2,1.8l-2-1.4
		L744.2,229.1z"/>
	<path class="st8" d="M757.1,209c-1.2,0.1-2.7,0.3-4.6,0.3l-0.1-1.3c0.3,0,0.7,0,1.1,0c-0.3-0.4-0.4-0.9-0.4-1.4
		c0-1.2,0.7-1.9,2-1.9c0.5,0,1.1,0.1,1.7,0.3l-0.3,1.2c-0.5-0.1-0.8-0.2-1.1-0.2c-0.6,0-0.9,0.4-0.9,0.9c0,0.4,0.2,0.7,0.5,1
		c0.8,0,1.5-0.1,2.2-0.2L757.1,209z M755.7,210.8l0.1,0.1l0,16.1l-1.7,0.4l-0.1-0.1v-16L755.7,210.8z"/>
	<path class="st8" d="M766.2,225.2c0,3.1-2.3,6.1-7.3,6.2l-1-1.4l0.1-0.2c3.4-0.1,5.7-1.3,6.5-3.3c-0.7,0.1-1.4,0.3-2.3,0.3
		c-2.1,0-3.1-1.1-3.1-2.8c0-2.2,1.6-4.6,3.5-4.6C764.8,219.5,766.2,222.3,766.2,225.2z M762.5,225c0.8,0,1.5-0.1,2.2-0.2
		c-0.1-1.7-1.1-3.5-2.2-3.5c-0.9,0-1.9,1.2-1.9,2.5C760.6,224.7,761.3,225,762.5,225z"/>
	<path class="st8" d="M774.3,227.1l0.3-1.8l0.1-0.1c0.7,0.2,2.1,0.2,2.6,0.2c1.6,0,3.5-0.3,4-0.9c-0.3-1.9-1.9-4-3.7-5.8l1-1.8h0.2
		c2.4,2.6,4.1,5,4.1,6.9c0,2.4-2,3.5-5.7,3.5C776.6,227.3,775.2,227.3,774.3,227.1z"/>
	<path class="st8" d="M795.5,226c0,0.4-0.2,1.2-1.5,1.2h-1.8c-0.8,2.3-3,4.1-7,4.2l-1-1.4l0.1-0.2c3-0.1,5.2-1.1,6.1-2.7h-0.7
		c-3,0-4.4-1.2-4.4-3.1c0-2.2,1.6-4.7,3.5-4.7c2.2,0,3.6,2.7,3.6,5.7v0.1h1.9C795.3,225.4,795.5,225.6,795.5,226z M791,225.4v-0.1
		c0-2.1-1.1-3.8-2.2-3.8c-0.9,0-1.9,1-1.9,2.6c0,0.9,0.8,1.4,3.1,1.4H791z"/>
	<path class="st8" d="M810,226c0,0.4-0.2,1.2-1.4,1.2c-3.2,0-4.7-0.8-5.5-2.3c-0.8,0.2-1.7,0.5-2.7,0.9c-3.1,1.1-4.5,1.4-6.4,1.4
		l0.5-1.9c1.6,0,2.9-0.2,5.4-1.1c1.5-0.5,2.7-0.8,3.8-1c-0.4-0.2-0.9-0.5-1.7-0.8c-1.9-1-2.9-1.4-4-1.4c-0.9,0-1.7,0.2-2.4,0.5
		l-0.1-0.1l0.7-1.8c0.6-0.3,1.4-0.5,2.1-0.5c1.1,0,2.2,0.5,4.2,1.6c2.4,1.2,3.6,1.7,4.7,1.8l-0.4,1.7c-0.6,0.1-1.2,0.1-1.8,0.3
		c0.7,0.7,1.9,0.9,4,0.9C809.9,225.4,810,225.6,810,226z M799.9,229.1l2,1.3l-1.2,1.8l-2-1.4L799.9,229.1z"/>
	<path class="st8" d="M829.2,226c0,0.4-0.2,1.2-1.4,1.2c-1,0-2.3-0.2-3.3-1c-0.7,0.7-1.7,1-2.9,1c-1,0-1.9-0.2-2.7-0.6
		c-0.5,0.4-1.2,0.6-2.2,0.6c-1.7,0-3-0.5-3.7-1.1c-0.9,0.7-2.2,1.1-4.4,1.1l0.5-1.9c1.5,0,2.5-0.1,3-0.5c0.3-0.4,0.6-1.3,1-2.5
		l2-0.3l0.1,0.1c-0.4,1-0.7,1.9-1.1,2.6c0.7,0.3,1.9,0.6,2.8,0.6c0.4,0,0.9-0.1,1.2-0.3c0.3-0.4,0.7-1.4,1.1-2.8l1.9-0.3l0.1,0.1
		c-0.4,1.2-0.7,2.2-1.1,2.9c0.5,0.2,1.1,0.3,1.7,0.3c0.6,0,1.2-0.1,1.6-0.4c0.2-0.3,0.4-1,0.4-2.2c0-0.4,0-0.8-0.1-1.3l1.7-0.6
		l0.2,0.1c0,0.4,0,0.7,0,1.1c0,1.1-0.1,1.9-0.3,2.6c0.5,0.3,1.4,0.7,2.9,0.7C829.1,225.4,829.2,225.6,829.2,226z"/>
	<path class="st8" d="M828.3,225.4c0.8,0,1.7,0,2.3-0.5c0.1-0.4,0.2-1,0.2-1.9v-11.7l1.7-0.4l0.2,0.1v11.9c0,3.5-1.8,4.4-4.8,4.4
		L828.3,225.4z"/>
	<path class="st8" d="M835.7,227.3v-16l1.8-0.5l0.1,0.1l0,16.1l-1.7,0.4L835.7,227.3z"/>
	<path class="st8" d="M862,226c0,0.4-0.2,1.2-1.5,1.2c-0.6,0-1.4-0.2-1.9-0.6c-0.5,3.4-3.3,5.1-6.9,5.1c-3.7,0-5.7-2.1-5.7-4.9
		c0-1,0.2-2.1,0.4-2.7l1.5-0.5l0.2,0.1c-0.2,0.8-0.2,1.6-0.2,2.2c0,2.4,0.9,4,4.2,4c2.7,0,3.9-1,4.6-1.8c0.8-1.8,0-3.6-1-6l1.7-1.2
		h0.1c0.3,0.8,0.7,2.3,1.2,3.2c0.5,1,1.2,1.4,2.2,1.4C861.7,225.4,862,225.6,862,226z M852.3,219.7l-2-1.4l1.2-1.8l2,1.3
		L852.3,219.7z"/>
	<path class="st8" d="M871.4,224.9c0,1.6-0.8,2.6-2.4,2.6c-1.2,0-3.1-0.6-4.8-1.8c-0.9,1.2-2,1.5-3.6,1.5l0.5-1.9
		c1.1,0,1.6-0.5,2.2-1.5c0.8-1.5,2-4.3,4.3-4.3S871.4,222.2,871.4,224.9z M867.4,221.4c-0.9,0-1.4,1.1-2.4,2.9
		c1.4,0.9,2.8,1.4,3.5,1.4c0.4,0,0.8-0.1,1-0.3C869.8,224.2,868.7,221.4,867.4,221.4z"/>
	<path class="st8" d="M879.6,226.7c0-1,0.2-2.1,0.4-2.7l1.5-0.5l0.2,0.1c-0.2,0.8-0.2,1.6-0.2,2.2c0,2.4,0.9,4,4.2,4
		c2,0,3.4-0.5,4.4-1.7c0.3-0.6,0.6-1.8,0.6-3.7v-13.1l1.7-0.4l0.2,0.1l0,13.2c0,5.4-2.5,7.5-7.2,7.5
		C881.5,231.7,879.6,229.6,879.6,226.7z"/>
	<path class="st8" d="M906.6,226c0,0.4-0.2,1.2-1.5,1.2c-1.1,0-1.9-0.3-2.5-1.3c-0.9,0.9-2.6,1.4-4.9,1.4c-0.5,0-1.9-0.1-2.8-0.3
		l0.3-1.8l0.1-0.1c0.8,0.2,2.1,0.2,2.6,0.2c1.5,0,3.1-0.3,3.9-0.9l-0.1-0.1c-0.4-0.8-2.2-4.3-3.2-6l1.4-1.5h0.2
		c0.7,1.5,2.4,5.4,2.8,6c0.9,1.9,1.4,2.3,2.7,2.3C906.4,225.4,906.6,225.6,906.6,226z"/>
	<path class="st8" d="M914.7,226c0,0.4-0.2,1.2-1.4,1.2c-1.5,0-2.9-0.3-3.9-1.2c-0.8,0.8-1.8,1.2-3.3,1.2h-0.8l0.5-1.9h0.7
		c0.7,0,1.4-0.1,1.8-0.5c0.3-0.5,0.7-1.6,1.2-3.6l1.8-0.5l0.2,0.1c-0.3,1.5-0.7,2.7-1.1,3.7c0.6,0.3,1.5,0.7,3.4,0.7
		C914.5,225.4,914.7,225.6,914.7,226z M909,218.1l-1.9-1.4l1.2-1.8l1.9,1.3L909,218.1z M912.4,218.1l-1.9-1.4l1.2-1.8l1.9,1.3
		L912.4,218.1z"/>
	<path class="st8" d="M924.6,224.9l-0.6,1.7c-1.9,0.4-4.7,0.6-10.8,0.6l0.5-1.9c0.9,0,1.8,0,2.7,0c-0.6-0.9-1-2-1-3.1
		c0-2.5,2-4,4.6-4c1.2,0,2.4,0.4,3.2,0.8l-0.2,1.7l-0.1,0c-0.9-0.4-1.9-0.6-2.9-0.6c-1.6,0-2.6,0.8-2.6,2.1c0,0.9,0.5,2.1,1.4,3
		c2.1-0.1,3.9-0.2,5.6-0.4L924.6,224.9z"/>
	<path class="st8" d="M930.5,209c-1.2,0.1-2.7,0.3-4.6,0.3l-0.1-1.3c0.3,0,0.7,0,1.1,0c-0.3-0.4-0.4-0.9-0.4-1.4
		c0-1.2,0.7-1.9,2-1.9c0.5,0,1.1,0.1,1.7,0.3l-0.3,1.2c-0.5-0.1-0.8-0.2-1.1-0.2c-0.6,0-0.9,0.4-0.9,0.9c0,0.4,0.2,0.7,0.5,1
		c0.8,0,1.5-0.1,2.2-0.2L930.5,209z M929.1,210.8l0.1,0.1l0,16.1l-1.7,0.4l-0.1-0.1v-16L929.1,210.8z"/>
</g>
<g>
	<path class="st8" d="M669.9,421.7c0-0.8,0.7-1.5,1.5-1.5c0.8,0,1.5,0.7,1.5,1.5c0,0.8-0.7,1.5-1.5,1.5
		C670.6,423.2,669.9,422.6,669.9,421.7z"/>
	<path class="st8" d="M692.5,419.1c0,1.2-0.4,2.4-1.5,3c-1.3,0.8-3.6,1.1-6.5,1.1h-1.6c-5.2,0-8.1-1.1-8.1-4.4c0-1,0.2-2.1,0.4-2.7
		l1.4-0.5l0.2,0.1c-0.2,0.8-0.2,1.6-0.2,2.2c0,2.9,2.4,3.5,6.9,3.5h1.7c2.4,0,4.7-0.3,5.7-0.7c0.2-1.3-0.3-2.5-1.2-4.5l1.7-1.2h0.2
		C692.1,416.6,692.5,418.2,692.5,419.1z M682.6,413.9l-1.9-1.4l1.2-1.8l1.9,1.3L682.6,413.9z M686,413.9l-1.9-1.4l1.2-1.8l1.9,1.3
		L686,413.9z"/>
	<path class="st8" d="M695.5,423v-16l1.8-0.5l0.1,0.1l0,16.1l-1.7,0.4L695.5,423z"/>
	<path class="st8" d="M708.7,421.8c0,0.4-0.2,1.2-1.4,1.2c-1,0-1.6-0.3-2-0.6c-0.7,2.2-3.3,4.2-7.2,4.9l-1-1.4l0.1-0.2
		c4.7-0.9,6.4-2.8,6.8-4.6c-0.4-1.1-1.1-2.6-1.8-4l1.4-1.5h0.2c0.6,1.7,1.2,3.1,1.4,3.7c0.6,1.6,1,1.9,2.5,1.9
		C708.5,421.1,708.7,421.4,708.7,421.8z"/>
	<path class="st8" d="M718.1,420.7c0,1.6-0.8,2.6-2.4,2.6c-1.2,0-3.1-0.6-4.8-1.8c-0.9,1.2-2,1.5-3.6,1.5l0.5-1.9
		c1.1,0,1.6-0.5,2.2-1.5c0.8-1.5,2-4.3,4.3-4.3S718.1,417.9,718.1,420.7z M714.1,417.1c-0.9,0-1.4,1.1-2.4,2.9
		c1.4,0.9,2.8,1.4,3.5,1.4c0.4,0,0.8-0.1,1-0.3C716.5,420,715.4,417.1,714.1,417.1z"/>
	<path class="st8" d="M744,419.1c0,1.2-0.4,2.4-1.5,3c-1.3,0.8-3.6,1.1-6.5,1.1h-1.6c-5.2,0-8.1-1.1-8.1-4.4c0-1,0.2-2.1,0.4-2.7
		l1.4-0.5l0.2,0.1c-0.2,0.8-0.2,1.6-0.2,2.2c0,2.9,2.4,3.5,6.9,3.5h1.7c2.4,0,4.7-0.3,5.7-0.7c0.2-1.3-0.3-2.5-1.2-4.5l1.7-1.2h0.2
		C743.7,416.6,744,418.2,744,419.1z M734.2,413.9l-1.9-1.4l1.2-1.8l1.9,1.3L734.2,413.9z M735.6,411.2l-2-1.4l1.2-1.8l1.9,1.3
		L735.6,411.2z M735.6,412.5l1.2-1.8l1.9,1.3l-1.2,1.8L735.6,412.5z"/>
	<path class="st8" d="M759.6,421.8c0,0.4-0.2,1.2-1.5,1.2c-2.1,0-3.7-0.6-4.1-2.9c-1.8,2.2-4.4,3-7.2,3l-0.8-1.7l0.1-0.1
		c2.3,0,4.3-0.5,5.9-1.6c-1.3-2.5-3.4-4.6-6.1-7.1l0.7-1.9l0.2-0.1c3,2.7,5.4,6.1,6.4,8.1c0.3-0.3,0.5-0.6,0.7-1v-10.7l1.7-0.4
		l0.1,0.1v12.1c0,1.9,0.8,2.3,2.8,2.3C759.4,421.1,759.6,421.4,759.6,421.8z"/>
	<path class="st8" d="M758.6,421.1h0.7c1.2,0,2.1-0.1,2.5-0.3c0.5-1.2-0.2-2.9-1-4.7l1.5-1.2h0.2c0.7,1.7,1.2,3.3,1.2,4.3
		c0,1-0.4,2.2-1.2,2.9c-0.6,0.6-1.6,0.8-3.8,0.8h-0.7L758.6,421.1z M758.6,410.9l1.2-1.8l1.9,1.3l-1.2,1.8L758.6,410.9z M760,408.1
		l1.2-1.8l1.9,1.3l-1.2,1.9L760,408.1z M762,410.9l1.2-1.8l1.9,1.3l-1.2,1.8L762,410.9z"/>
	<path class="st8" d="M772.1,422.7c0-1,0.2-2,0.4-2.7l1.5-0.5l0.2,0.1c-0.2,0.9-0.3,1.6-0.3,2.2c0,2.2,1.2,3.8,5.1,3.8
		c3.7,0,6.5-0.9,6.9-2.1c0-0.5-0.4-1.1-3.9-2l0.6-1.7c4.4,1.2,5.2,2,5.2,3.2c-0.3,2.9-4,4.5-9.2,4.5
		C774.3,427.5,772.1,425.4,772.1,422.7z M775.2,431.1l1.2-1.8l1.9,1.3l-1.2,1.8L775.2,431.1z M778.6,431.1l1.2-1.8l1.9,1.3l-1.2,1.8
		L778.6,431.1z"/>
	<path class="st8" d="M782.6,419.8c1-0.2,2-0.5,3-1c0.1-0.4,0.2-1.1,0.2-1.9V407l1.7-0.4l0.2,0v10c0,2.2-1,3.9-4,4.7L782.6,419.8z"
		/>
	<path class="st8" d="M805,421.8c0,0.4-0.2,1.2-1.4,1.2c-1,0-1.6-0.3-2-0.6c-0.7,2.2-3.3,4.2-7.2,4.9l-1-1.4l0.1-0.2
		c4.7-0.9,6.4-2.8,6.8-4.6c-0.4-1.1-1.1-2.6-1.8-4l1.4-1.5h0.2c0.6,1.7,1.2,3.1,1.4,3.7c0.6,1.6,1,1.9,2.5,1.9
		C804.8,421.1,805,421.4,805,421.8z"/>
	<path class="st8" d="M815.6,421.8c0,0.4-0.2,1.2-1.5,1.2h-1.5c-1.1,0-2.4-0.2-3.6-0.7c-1.2,0.5-2.8,0.7-4.3,0.7h-1.2l0.5-1.9h2.3
		c0.2,0,0.4,0,0.6,0c-0.8-0.7-1.4-1.6-1.4-2.6c0-2.1,1.8-4.3,3.8-4.3c1.7,0,3.2,1.9,3.2,3.7c0,1.4-0.5,2.4-1.3,3.2
		c0.5,0.1,1.1,0.1,1.7,0.1h1.7C815.4,421.1,815.6,421.4,815.6,421.8z M809.2,420.4c1.1-0.6,1.8-1.4,1.8-2.4c0-1-1-2.1-1.9-2.1
		c-1,0-2,1.1-2,2.2C807.1,419,807.9,419.9,809.2,420.4z M809.7,411.4l-2-1.4l1.2-1.8l2,1.3L809.7,411.4z"/>
	<path class="st8" d="M825.5,420.7l-0.6,1.7c-1.9,0.4-4.7,0.6-10.8,0.6l0.5-1.9c0.9,0,1.8,0,2.7,0c-0.6-0.9-1-2-1-3.1
		c0-2.5,2-4,4.6-4c1.2,0,2.4,0.4,3.2,0.8l-0.2,1.7l-0.1,0c-0.9-0.4-1.9-0.6-2.9-0.6c-1.6,0-2.6,0.8-2.6,2.1c0,0.9,0.5,2.1,1.4,3
		c2.1-0.1,3.9-0.2,5.6-0.4L825.5,420.7z M821.2,411.3l-2-1.4l1.2-1.8l2,1.3L821.2,411.3z"/>
	<path class="st8" d="M828.2,423v-16l1.8-0.5l0.1,0.1l0,16.1l-1.7,0.4L828.2,423z"/>
	<path class="st8" d="M838.5,422.7c0-1,0.2-2,0.4-2.7l1.5-0.5l0.2,0.1c-0.2,0.9-0.3,1.6-0.3,2.2c0,2.2,1.2,3.8,5.1,3.8
		c3.7,0,6.5-0.9,6.9-2.1c0-0.5-0.4-1.1-3.9-2l0.6-1.7c4.4,1.2,5.2,2,5.2,3.2c-0.3,2.9-4,4.5-9.2,4.5
		C840.7,427.5,838.5,425.4,838.5,422.7z M841.6,431.1l1.2-1.8l1.9,1.3l-1.2,1.8L841.6,431.1z M845.1,431.1l1.2-1.8l1.9,1.3l-1.2,1.8
		L845.1,431.1z"/>
	<path class="st8" d="M849,419.8c1-0.4,1.8-0.8,2.3-1.3c0-1.1-0.6-2.4-1.2-3.7l1.5-1.2h0.2c0.7,1.7,1.2,3.3,1.2,4.3
		c0,0.9-0.6,1.8-2.1,2.7l-1.2,0.2L849,419.8z M851,429.8l1.2-1.8l2,1.3l-1.2,1.8L851,429.8z"/>
	<path class="st8" d="M855.2,425.5l0-0.2c3.5-1,5.2-2.8,5.2-4c-0.1-1-0.8-2.7-1.7-4.4l1.4-1.5h0.2c1,1.9,1.8,4,1.8,5.4
		c0,1-0.3,2-0.9,2.8c-0.8,1.2-2.5,2.5-5,3.2L855.2,425.5z"/>
	<path class="st8" d="M869.9,414.3c0-0.8,0.7-1.5,1.5-1.5c0.8,0,1.5,0.7,1.5,1.5c0,0.8-0.7,1.5-1.5,1.5
		C870.6,415.8,869.9,415.1,869.9,414.3z M869.9,421.7c0-0.8,0.7-1.5,1.5-1.5c0.8,0,1.5,0.7,1.5,1.5c0,0.8-0.7,1.5-1.5,1.5
		C870.6,423.2,869.9,422.6,869.9,421.7z"/>
	<path class="st8" d="M880.6,422.5c0-1,0.2-2.1,0.4-2.7l1.5-0.5l0.2,0.1c-0.2,0.8-0.2,1.6-0.2,2.2c0,2.4,0.9,4,4.2,4
		c2,0,3.4-0.5,4.4-1.7c0.3-0.6,0.6-1.8,0.6-3.7v-13.1l1.7-0.4l0.2,0.1l0,13.2c0,5.4-2.5,7.5-7.2,7.5
		C882.5,427.5,880.6,425.4,880.6,422.5z"/>
	<path class="st8" d="M906.8,421.8c0,0.4-0.2,1.2-1.5,1.2h-1.8c-0.8,2.3-3,4.1-7,4.2l-1-1.4l0.1-0.2c3-0.1,5.2-1.1,6.1-2.7H901
		c-3,0-4.4-1.2-4.4-3.1c0-2.2,1.6-4.7,3.5-4.7c2.2,0,3.6,2.7,3.6,5.7v0.1h1.9C906.6,421.1,906.8,421.4,906.8,421.8z M902.3,421.1
		V421c0-2.1-1.1-3.8-2.2-3.8c-0.9,0-1.9,1-1.9,2.6c0,0.9,0.8,1.4,3.1,1.4H902.3z"/>
	<path class="st8" d="M914.3,417.8c0,2.3-0.4,3.6-1.5,4.4c-1.3,0.7-3.1,0.8-7.6,0.8l0.5-1.9c4.6,0,6.1-0.2,6.8-0.5
		c0.1-0.3,0.1-0.8,0.2-1.5c-0.7,0.2-1.6,0.3-2.5,0.3c-2.1,0-3.1-1.1-3.1-2.8c0-2.2,1.6-4.6,3.5-4.6
		C912.9,412,914.3,414.9,914.3,417.8z M909.3,409.4l-1.9-1.4l1.2-1.8l1.9,1.3L909.3,409.4z M910.6,417.6c0.8,0,1.5-0.1,2.2-0.2
		c-0.1-1.7-1.1-3.5-2.2-3.5c-0.9,0-1.9,1.2-1.9,2.5C908.7,417.2,909.4,417.6,910.6,417.6z M912.6,409.4l-1.9-1.4l1.2-1.8l1.9,1.3
		L912.6,409.4z"/>
	<path class="st8" d="M920.5,404.7c-1.2,0.1-2.7,0.3-4.6,0.3l-0.1-1.3c0.3,0,0.7,0,1.1,0c-0.3-0.4-0.4-0.9-0.4-1.4
		c0-1.2,0.7-1.9,2-1.9c0.5,0,1.1,0.1,1.7,0.3l-0.3,1.2c-0.5-0.1-0.8-0.2-1.1-0.2c-0.6,0-0.9,0.4-0.9,0.9c0,0.4,0.2,0.7,0.5,1
		c0.8,0,1.5-0.1,2.2-0.2L920.5,404.7z M919.1,406.6l0.1,0.1l0,16.1l-1.7,0.4l-0.1-0.1v-16L919.1,406.6z"/>
	<path class="st8" d="M929.6,421c0,3.1-2.3,6.1-7.3,6.2l-1-1.4l0.1-0.2c3.4-0.1,5.7-1.3,6.5-3.3c-0.7,0.1-1.4,0.3-2.3,0.3
		c-2.1,0-3.1-1.1-3.1-2.8c0-2.2,1.6-4.6,3.5-4.6C928.2,415.2,929.6,418,929.6,421z M925.9,420.8c0.8,0,1.5-0.1,2.2-0.2
		c-0.1-1.7-1.1-3.5-2.2-3.5c-0.9,0-1.9,1.2-1.9,2.5C924,420.4,924.7,420.8,925.9,420.8z"/>
</g>
<linearGradient id="SVGID_8_" gradientUnits="userSpaceOnUse" x1="505.3104" y1="326.0948" x2="1023.8504" y2="326.0948">
	<stop  offset="0.1199" style="stop-color:#FFFFFF"/>
	<stop  offset="0.9969" style="stop-color:#FFF2D5"/>
</linearGradient>
<rect x="505.3" y="287.6" class="st9" width="518.5" height="77"/>
<g>
	<g>
		<path class="st10" d="M808.4,337.4c0-2.7,1.5-5.3,3.6-7.9l2.3,1.3c-1,1.4-1.9,2.8-1.9,3.9c0,1.5,1.8,1.3,1.8,3.4
			c0,1.3-1,2.8-2.8,2.8C809.5,340.9,808.4,339.6,808.4,337.4z"/>
		<path class="st10" d="M839.3,337.7c0,1.7-0.6,3.1-2.4,3.1c-1.3,0-2.2-0.2-2.9-0.5c-1.4,3.6-5.5,6.2-10.8,7.1l-2.4-3.3l0.3-0.4
			c5.7-1,9-3.3,10.1-5.6c-0.8-1.8-1.7-3.8-2.7-5.7l3.2-3.7h0.4l1.5,4.4c1,2.8,1.8,3.2,4.2,3.2C838.9,336.2,839.3,336.9,839.3,337.7z
			"/>
		<path class="st10" d="M851.3,337.7c0,1.7-0.6,3.1-2.4,3.1s-4.2-0.6-5.6-1.7c-1.4,1.1-3.2,1.7-5.8,1.7h-0.7l1-4.5h0.6
			c1.4,0,2.4-0.1,2.8-0.5c0.4-0.9,0.8-2.7,1.2-5l4.6-1.1l0.4,0.3c-0.5,2.2-1,4.1-1.7,5.7c1,0.4,2.4,0.7,4.1,0.7
			C851,336.2,851.3,336.9,851.3,337.7z M842.5,343.3l3.8,2.6l-2.4,3.6l-3.9-2.7L842.5,343.3z"/>
		<path class="st10" d="M863.4,322.6l-7.6,3.8c5.8,3.9,6.9,6.1,6.9,8.1c0,3.6-2.7,6.2-10.1,6.2h-3.6l1-4.5h2.3
			c2.8,0,5.7-0.4,6.7-0.9c0-1.7-4.2-4.5-7.7-6.7l-0.2-0.3l1-5l12.5-6.4l0.3,0.2L863.4,322.6z"/>
		<path class="st10" d="M876.8,313.5c-1.8,0.2-4.2,0.4-7,0.5l-0.3-2.6c0.5,0,1.1,0,1.7,0c-0.5-0.6-0.8-1.5-0.8-2.3
			c0-1.8,1.2-3.1,3.2-3.1c0.8,0,1.7,0.2,2.7,0.6l-0.6,2.3c-0.6-0.2-1.2-0.3-1.5-0.3c-0.8,0-1.2,0.4-1.2,1.2c0,0.5,0.3,1,0.7,1.5
			c1.1-0.1,2.1-0.1,3-0.3L876.8,313.5z M875.1,315.8l0.4,0.2l-0.1,24.1l-4.1,0.9l-0.3-0.2v-23.9L875.1,315.8z"/>
		<path class="st10" d="M920.8,315.8l0.3,0.2v16.9c0,6-3,7.7-7.9,7.8h-0.3c0,0-0.1,0-0.1,0h-0.3c-1.3-0.1-3-0.5-4.1-2.1
			c-1.2,1.5-2.9,2-6.1,2.1h-0.2c0,0-0.1,0-0.1,0h-0.2c-2.4-0.1-4.3-0.8-5.4-2.4c-1.2,0.4-2.2,0.6-3.3,0.6c-4,0-6.4-1.9-6.4-4.6
			c0-3,3-6.3,8.6-8.2v-1.7l4.2-1.6l0.3,0.1v10.8c0,1.8,0.6,2.4,3.2,2.5c1,0,2-0.1,2.7-0.5c0.1-0.6,0.3-1.4,0.3-2.7v-12.3l4.2-1.1
			l0.3,0.2V333c0,2.7,0.8,3.1,3.3,3.2c1,0,2-0.1,2.7-0.5c0.1-0.6,0.3-1.4,0.3-2.7v-16.2L920.8,315.8z M895.2,334.4v-0.7v-3.4
			c-2.5,0.6-4.5,1.7-5,2.8c0.4,1,1.9,1.5,3.2,1.5C894.1,334.6,894.6,334.5,895.2,334.4z M902.6,314.4c0-0.5,0.1-1.5,0.3-2.1l2.4-0.1
			c-0.1,0.6-0.1,1.2-0.1,1.5c0,0.9,0.3,1.3,0.9,1.3c0.7,0,1-0.5,1-2.6l2.3-0.2c0,0.7,0,1.2,0,1.5c0,0.9,0.4,1.2,1,1.2
			c0.7,0,0.9-0.5,0.9-1.3c0-0.7-0.2-1.4-0.4-2.1l2.5-0.6c0.3,0.9,0.5,1.8,0.5,2.8c0,2.1-1.1,3.7-3.5,3.7c-0.9,0-1.7-0.4-2.1-0.9
			c-0.5,0.6-1.4,0.9-2.4,0.9C903.4,317.6,902.6,316.1,902.6,314.4z M909.7,310.2h-3.2v-4.6h3.2V310.2z M929.9,316l-0.1,24.1
			l-4.1,0.9l-0.3-0.2v-23.9l4.2-1.1L929.9,316z"/>
	</g>
</g>
<path class="st11" d="M1023.9,44.8h-11.1v-6.6c0-1.7-1.1-3-2.6-3.5c1.4-1.1,2.3-2.9,2.3-4.8c0-3.4-2.8-6.2-6.2-6.2
	c-1,0-1.9,0.2-2.8,0.7c0.4-1.1,0.5-2.2,0.5-3.4c0-6.2-5-11.2-11.2-11.2c-6.2,0-11.2,5-11.2,11.2c0,1.2,0.2,2.4,0.5,3.4
	c-0.8-0.4-1.8-0.7-2.8-0.7c-3.4,0-6.2,2.8-6.2,6.2c0,1.9,0.9,3.6,2.3,4.8c-1.5,0.4-2.6,1.8-2.6,3.5v6.6h-10h-10v-6.6
	c0-1.7-1.1-3-2.6-3.5c1.4-1.1,2.3-2.9,2.3-4.8c0-3.4-2.8-6.2-6.2-6.2c-1,0-1.9,0.2-2.8,0.7c0.4-1.1,0.5-2.2,0.5-3.4
	c0-6.2-5-11.2-11.2-11.2c-6.2,0-11.2,5-11.2,11.2c0,1.2,0.2,2.4,0.5,3.4c-0.8-0.4-1.8-0.7-2.8-0.7c-3.4,0-6.2,2.8-6.2,6.2
	c0,1.9,0.9,3.6,2.3,4.8c-1.5,0.4-2.6,1.8-2.6,3.5v6.6h-10h-10v-6.6c0-1.7-1.1-3-2.6-3.5c1.4-1.1,2.3-2.9,2.3-4.8
	c0-3.4-2.8-6.2-6.2-6.2c-1,0-1.9,0.2-2.8,0.7c0.4-1.1,0.5-2.2,0.5-3.4c0-6.2-5-11.2-11.2-11.2c-6.2,0-11.2,5-11.2,11.2
	c0,1.2,0.2,2.4,0.5,3.4c-0.8-0.4-1.8-0.7-2.8-0.7c-3.4,0-6.2,2.8-6.2,6.2c0,1.9,0.9,3.6,2.3,4.8c-1.5,0.4-2.6,1.8-2.6,3.5v6.6h-10
	h-10v-6.6c0-1.7-1.1-3-2.6-3.5c1.4-1.1,2.3-2.9,2.3-4.8c0-3.4-2.8-6.2-6.2-6.2c-1,0-1.9,0.2-2.8,0.7c0.4-1.1,0.5-2.2,0.5-3.4
	c0-6.2-5-11.2-11.2-11.2c-6.2,0-11.2,5-11.2,11.2c0,1.2,0.2,2.4,0.5,3.4c-0.8-0.4-1.8-0.7-2.8-0.7c-3.4,0-6.2,2.8-6.2,6.2
	c0,1.9,0.9,3.6,2.3,4.8c-1.5,0.4-2.6,1.8-2.6,3.5v6.6h-10h-10v-6.6c0-1.7-1.1-3-2.6-3.5c1.4-1.1,2.3-2.9,2.3-4.8
	c0-3.4-2.8-6.2-6.2-6.2c-1,0-1.9,0.2-2.8,0.7c0.4-1.1,0.5-2.2,0.5-3.4c0-6.2-5-11.2-11.2-11.2c-6.2,0-11.2,5-11.2,11.2
	c0,1.2,0.2,2.4,0.5,3.4c-0.8-0.4-1.8-0.7-2.8-0.7c-3.4,0-6.2,2.8-6.2,6.2c0,1.9,0.9,3.6,2.3,4.8c-1.5,0.4-2.6,1.8-2.6,3.5v6.6h-10
	h-10v-6.6c0-1.7-1.1-3-2.6-3.5c1.4-1.1,2.3-2.9,2.3-4.8c0-3.4-2.8-6.2-6.2-6.2c-1,0-1.9,0.2-2.8,0.7c0.4-1.1,0.5-2.2,0.5-3.4
	c0-6.2-5-11.2-11.2-11.2c-6.2,0-11.2,5-11.2,11.2c0,1.2,0.2,2.4,0.5,3.4c-0.8-0.4-1.8-0.7-2.8-0.7c-3.4,0-6.2,2.8-6.2,6.2
	c0,1.9,0.9,3.6,2.3,4.8c-1.5,0.4-2.6,1.8-2.6,3.5v6.6h-10h-10v-6.6c0-1.7-1.1-3-2.6-3.5c1.4-1.1,2.3-2.9,2.3-4.8
	c0-3.4-2.8-6.2-6.2-6.2c-1,0-1.9,0.2-2.8,0.7c0.4-1.1,0.5-2.2,0.5-3.4c0-6.2-5-11.2-11.2-11.2c-6.2,0-11.2,5-11.2,11.2
	c0,1.2,0.2,2.4,0.5,3.4c-0.8-0.4-1.8-0.7-2.8-0.7c-3.4,0-6.2,2.8-6.2,6.2c0,1.9,0.9,3.6,2.3,4.8c-1.5,0.4-2.6,1.8-2.6,3.5v6.6h-10
	h-10v-6.6c0-1.7-1.1-3-2.6-3.5c1.4-1.1,2.3-2.9,2.3-4.8c0-3.4-2.8-6.2-6.2-6.2c-1,0-1.9,0.2-2.8,0.7c0.4-1.1,0.5-2.2,0.5-3.4
	c0-6.2-5-11.2-11.2-11.2c-6.2,0-11.2,5-11.2,11.2c0,1.2,0.2,2.4,0.5,3.4c-0.8-0.4-1.8-0.7-2.8-0.7c-3.4,0-6.2,2.8-6.2,6.2
	c0,1.9,0.9,3.6,2.3,4.8c-1.5,0.4-2.6,1.8-2.6,3.5v6.6h-10h-10v-6.6c0-1.7-1.1-3-2.6-3.5c1.4-1.1,2.3-2.9,2.3-4.8
	c0-3.4-2.8-6.2-6.2-6.2c-1,0-1.9,0.2-2.8,0.7c0.4-1.1,0.5-2.2,0.5-3.4c0-6.2-5-11.2-11.2-11.2c-6.2,0-11.2,5-11.2,11.2
	c0,1.2,0.2,2.4,0.5,3.4c-0.8-0.4-1.8-0.7-2.8-0.7c-3.4,0-6.2,2.8-6.2,6.2c0,1.9,0.9,3.6,2.3,4.8c-1.5,0.4-2.6,1.8-2.6,3.5v6.6h-10
	h-10v-6.6c0-1.7-1.1-3-2.6-3.5c1.4-1.1,2.3-2.9,2.3-4.8c0-3.4-2.8-6.2-6.2-6.2c-1,0-1.9,0.2-2.8,0.7c0.4-1.1,0.5-2.2,0.5-3.4
	c0-6.2-5-11.2-11.2-11.2c-6.2,0-11.2,5-11.2,11.2c0,1.2,0.2,2.4,0.5,3.4c-0.8-0.4-1.8-0.7-2.8-0.7c-3.4,0-6.2,2.8-6.2,6.2
	c0,1.9,0.9,3.6,2.3,4.8c-1.5,0.4-2.6,1.8-2.6,3.5v6.6h-10h-10v-6.6c0-1.7-1.1-3-2.6-3.5c1.4-1.1,2.3-2.9,2.3-4.8
	c0-3.4-2.8-6.2-6.2-6.2c-1,0-1.9,0.2-2.8,0.7c0.4-1.1,0.5-2.2,0.5-3.4c0-6.2-5-11.2-11.2-11.2c-6.2,0-11.2,5-11.2,11.2
	c0,1.2,0.2,2.4,0.5,3.4c-0.8-0.4-1.8-0.7-2.8-0.7c-3.4,0-6.2,2.8-6.2,6.2c0,1.9,0.9,3.6,2.3,4.8c-1.5,0.4-2.6,1.8-2.6,3.5v6.6h-10
	h-10v-6.6c0-1.7-1.1-3-2.6-3.5c1.4-1.1,2.3-2.9,2.3-4.8c0-3.4-2.8-6.2-6.2-6.2c-1,0-1.9,0.2-2.8,0.7c0.4-1.1,0.5-2.2,0.5-3.4
	c0-6.2-5-11.2-11.2-11.2c-6.2,0-11.2,5-11.2,11.2c0,1.2,0.2,2.4,0.5,3.4c-0.8-0.4-1.8-0.7-2.8-0.7c-3.4,0-6.2,2.8-6.2,6.2
	c0,1.9,0.9,3.6,2.3,4.8c-1.5,0.4-2.6,1.8-2.6,3.5v6.6h-10h-10v-6.6c0-1.7-1.1-3-2.6-3.5c1.4-1.1,2.3-2.9,2.3-4.8
	c0-3.4-2.8-6.2-6.2-6.2c-1,0-1.9,0.2-2.8,0.7c0.4-1.1,0.5-2.2,0.5-3.4c0-6.2-5-11.2-11.2-11.2c-6.2,0-11.2,5-11.2,11.2
	c0,1.2,0.2,2.4,0.5,3.4c-0.8-0.4-1.8-0.7-2.8-0.7c-3.4,0-6.2,2.8-6.2,6.2c0,1.9,0.9,3.6,2.3,4.8c-1.5,0.4-2.6,1.8-2.6,3.5v6.6h-10
	h-10v-6.6c0-1.7-1.1-3-2.6-3.5c1.4-1.1,2.3-2.9,2.3-4.8c0-3.4-2.8-6.2-6.2-6.2c-1,0-1.9,0.2-2.8,0.7c0.4-1.1,0.5-2.2,0.5-3.4
	c0-6.2-5-11.2-11.2-11.2c-6.2,0-11.2,5-11.2,11.2c0,1.2,0.2,2.4,0.5,3.4c-0.8-0.4-1.8-0.7-2.8-0.7c-3.4,0-6.2,2.8-6.2,6.2
	c0,1.9,0.9,3.6,2.3,4.8c-1.5,0.4-2.6,1.8-2.6,3.5v6.6h-10h-10v-6.6c0-1.7-1.1-3-2.6-3.5c1.4-1.1,2.3-2.9,2.3-4.8
	c0-3.4-2.8-6.2-6.2-6.2c-1,0-1.9,0.2-2.8,0.7c0.4-1.1,0.5-2.2,0.5-3.4c0-6.2-5-11.2-11.2-11.2c-6.2,0-11.2,5-11.2,11.2
	c0,1.2,0.2,2.4,0.5,3.4c-0.8-0.4-1.8-0.7-2.8-0.7c-3.4,0-6.2,2.8-6.2,6.2c0,1.9,0.9,3.6,2.3,4.8c-1.5,0.4-2.6,1.8-2.6,3.5v6.6h-10
	h-10v-6.6c0-1.7-1.1-3-2.6-3.5c1.4-1.1,2.3-2.9,2.3-4.8c0-3.4-2.8-6.2-6.2-6.2c-1,0-1.9,0.2-2.8,0.7c0.4-1.1,0.5-2.2,0.5-3.4
	c0-6.2-5-11.2-11.2-11.2c-6.2,0-11.2,5-11.2,11.2c0,1.2,0.2,2.4,0.5,3.4c-0.8-0.4-1.8-0.7-2.8-0.7c-3.4,0-6.2,2.8-6.2,6.2
	c0,1.9,0.9,3.6,2.3,4.8c-1.5,0.4-2.6,1.8-2.6,3.5v6.6h-10h-10v-6.6c0-1.7-1.1-3-2.6-3.5c1.4-1.1,2.3-2.9,2.3-4.8
	c0-3.4-2.8-6.2-6.2-6.2c-1,0-1.9,0.2-2.8,0.7c0.4-1.1,0.5-2.2,0.5-3.4c0-6.2-5-11.2-11.2-11.2c-6.2,0-11.2,5-11.2,11.2
	c0,1.2,0.2,2.4,0.5,3.4C20,24,19,23.7,18,23.7c-3.4,0-6.2,2.8-6.2,6.2c0,1.9,0.9,3.6,2.3,4.8c-1.5,0.4-2.6,1.8-2.6,3.5v6.6H-0.1V1
	h1024V44.8z"/>
<g id="Layer_x0020_1_6_">
	<path class="st12" d="M34.8,721.5l43.9-1.7c0.3,0,0.6,0,1,0c0.7,0.1,1.3,0.4,1.8,0.9c0.5,0.5,0.9,1,0.9,1.7c0,0.2,0,0.5,0,0.8
		l-4.6,20.6c-0.2,0.9-0.6,1.7-1.3,2.2c-0.6,0.5-1.4,0.9-2.4,0.9l-35.3-1.2c-1,0-1.7-0.3-2.4-0.9l0,0c-0.6-0.6-1.1-1.4-1.3-2.2
		l-4.1-17.7c0-0.1,0-0.1,0-0.2c-0.1-0.8,0.3-1.5,0.9-2.1c0.6-0.5,1.4-0.8,2.3-1C34.5,721.6,34.7,721.5,34.8,721.5z M76.8,722.6
		l-42,1.5c-0.1,0-0.2,0-0.3,0c-0.6,0.1-1.1,0.3-1.5,0.7c-0.3,0.3-0.6,0.7-0.5,1.1c0,0,0,0.1,0,0.1l3.8,16.5c0.1,0.6,0.4,1.2,0.9,1.6
		c0.4,0.3,0.8,0.5,1.4,0.5l34,1.2c0.6,0,1-0.2,1.4-0.5c0.4-0.4,0.7-0.9,0.9-1.6l4.3-19.3c0-0.1,0-0.3,0-0.4c0-0.3-0.2-0.7-0.5-0.9
		c-0.3-0.3-0.7-0.5-1.1-0.5C77.2,722.6,77,722.6,76.8,722.6z"/>
	<path class="st12" d="M41.8,726.2l12.9-1.4c0.1,0,0.3,0,0.4,0c0.3,0.1,0.6,0.2,0.8,0.4c0.2,0.2,0.4,0.5,0.4,0.8c0,0.1,0,0.2,0,0.3
		l-2.1,9.6c-0.1,0.4-0.3,0.8-0.6,1c-0.3,0.3-0.6,0.4-1.1,0.4h-8.9c-0.4,0-0.8-0.2-1.1-0.4h0c-0.3-0.3-0.5-0.6-0.6-1l-1.9-8.2
		c0,0,0-0.1,0-0.1c-0.1-0.4,0.1-0.7,0.4-1c0.3-0.2,0.7-0.4,1-0.5C41.7,726.2,41.8,726.2,41.8,726.2z M53.8,726.1l-12,1.3
		c0,0-0.1,0-0.1,0c-0.3,0-0.5,0.2-0.7,0.3c-0.2,0.1-0.3,0.3-0.2,0.5c0,0,0,0,0,0l1.8,7.6c0.1,0.3,0.2,0.5,0.4,0.7
		c0.2,0.1,0.4,0.2,0.6,0.2h8.3c0.3,0,0.5-0.1,0.6-0.2c0.2-0.2,0.3-0.4,0.4-0.7l2-8.9c0-0.1,0-0.1,0-0.2c0-0.2-0.1-0.3-0.2-0.4
		c-0.1-0.1-0.3-0.2-0.5-0.2C54,726.1,53.9,726.1,53.8,726.1z"/>
	<g id="_1849662416_6_">
		<path class="st13" d="M60.3,738.4l0.4-0.7l-0.7-0.4l0.4-0.7l-1.5-0.8l-0.9,1.5l0,0c0.3,0.1,0.5,0.3,0.7,0.4l-0.4,0.7l0.7,0.4
			l-0.8,1.5l0.7,0.4c-0.2,0.5-0.6,1.1-0.9,1.5l0,0c0.2,0.1,0.4,0.2,0.5,0.3c0.3,0.1,0.2,0.1,0,0.5c-0.2,0.4-0.4,0.8-0.7,1.1l0.7,0.4
			c0,0.2-0.7,1.2-0.8,1.5l5.9,3.4l0.9-1.5l0.8,0.4l1.3-2.2l0.7,0.4l3-5.2c-0.1-0.1-0.7-0.4-0.7-0.5c0-0.2,0.4-0.6,0.4-0.7
			c-0.1-0.1-0.5-0.4-0.7-0.4l-1.3,2.2l-0.7-0.4l1.7-3l-1.5-0.9l-1.3,2.2l-0.7-0.4l1.7-2.9c-0.1-0.1-1.3-0.8-1.5-0.9l-1.7,3l-0.7-0.4
			c0-0.1,0.1-0.1,0.1-0.2c1.2-2.1,2.5-4.3,3.7-6.5l-1.5-0.8l-4.7,8.1C60.8,738.8,60.3,738.4,60.3,738.4L60.3,738.4z"/>
		<path class="st14" d="M58.2,742.1c-0.1,0.1-0.1,0.2-0.2,0.3l-0.7,1.1c0.1,0.1,0.2,0.1,0.4,0.2c0.1,0.1,0.2,0.1,0.3,0.2
			c-0.4,0.8-0.8,1.5-1.2,2.2c0.6,0.4,1.2,0.7,1.8,1.1l3.7,2.2c0.6,0.4,1.3,0.7,1.9,1.1c0.1-0.2,0.1-0.3,0.3-0.5
			c0.1-0.2,0.4-0.6,0.5-0.9c0.1-0.1,0.1-0.1,0.2-0.3c0.1-0.2,0.2-0.4,0.3-0.6c0.1,0.2,0.5,0.3,0.7,0.4c0.4-0.7,0.8-1.4,1.3-2.2
			c0.2,0.1,0.4,0.2,0.6,0.3c0.1,0.1,0.1,0.1,0.2,0c0.2-0.3,0.3-0.6,0.5-0.9c0.3-0.6,0.7-1.1,1-1.7l1.4-2.5c-0.2-0.1-0.6-0.3-0.7-0.4
			l-3,5.2l-0.7-0.4l-1.3,2.2l-0.8-0.4l-0.9,1.5l-5.9-3.4c0.1-0.3,0.8-1.3,0.8-1.5l-0.7-0.4c0.2-0.4,0.4-0.8,0.7-1.1
			c0.2-0.4,0.2-0.3,0-0.5C58.5,742.3,58.3,742.2,58.2,742.1z"/>
		<path class="st14" d="M60.4,736.5l-0.4,0.7l0.7,0.4l-0.4,0.7l0.7,0.4l4.7-8.1l-0.7-0.4c0,0,0,0,0,0l0,0c0,0,0,0,0,0l-3.8,6.6
			C60.9,736.7,60.7,736.6,60.4,736.5z"/>
		<path class="st14" d="M67.2,731.6l-3.9,6.6l0.7,0.4l1.7-3c0.2,0,1.4,0.8,1.5,0.9c0.2,0.2,1.6,0.9,1.9,1.1c0,0,0.1,0-0.1-0.1
			l-1.5-0.8c-0.4-0.2-0.3-0.1,0.1-0.9l-1.1-0.6c-0.1-0.1-0.2-0.1-0.3-0.2L68,732c-0.2-0.1-0.3-0.2-0.6-0.4
			C67.3,731.6,67.3,731.6,67.2,731.6z"/>
		<path class="st14" d="M69.1,738.6l0.4-0.7c-0.1-0.1-0.2-0.2-0.4-0.2c-0.3-0.2-1.7-0.9-1.9-1.1l-1.7,2.9l0.7,0.4l1.3-2.2
			L69.1,738.6z"/>
		<path class="st14" d="M58.1,737.1c-0.1,0.1-0.1,0.1-0.2,0.3c-0.1,0.1-0.1,0.3-0.2,0.4l0.7,0.4c-0.1,0.2-0.7,1.3-0.8,1.5l0.7,0.4
			l-0.6,1.1c-0.1,0.2-0.1,0.2-0.2,0.4l0.7,0.4c0.3-0.4,0.7-1,0.9-1.5l-0.7-0.4l0.8-1.5l-0.7-0.4l0.4-0.7
			C58.6,737.4,58.3,737.2,58.1,737.1z"/>
		<path class="st14" d="M58.1,737.1l0.9-1.5l1.5,0.8l0.2-0.4c0.1-0.1,0.1-0.2,0.2-0.4l-2-1.1c-0.3-0.2-0.2-0.2-0.5,0.2l-0.9,1.6
			c-0.1,0.2-0.2,0.2,0,0.3C57.6,736.9,58,737.1,58.1,737.1z"/>
		<path class="st14" d="M70.1,740.2c0.1,0,0,0,0.1-0.1c0,0,0.1-0.1,0.1-0.1c0-0.2,0.2-0.4,0.3-0.6l-1.5-0.8l-1.7,3l0.7,0.4l1.3-2.2
			C69.6,739.8,70,740,70.1,740.2z"/>
		<path class="st14" d="M67.3,731.5c0.1-0.2,0.3-0.5,0.4-0.7l-1.5-0.8l-0.4,0.7L67.3,731.5z"/>
		<path class="st14" d="M70.1,740.2c0,0.2-0.4,0.6-0.4,0.7c0,0.1,0.6,0.4,0.7,0.5c0.2,0.1,0.5,0.3,0.7,0.4l-1.4,2.5l1.5-2.5
			l-0.7-0.4c0.1-0.1,0.1-0.2,0.2-0.4c0.1-0.1,0.2-0.3,0.2-0.4c-0.8-0.5-0.8-0.3-0.6-0.6c0,0-0.1,0.1-0.1,0.1
			C70.2,740.2,70.2,740.2,70.1,740.2z"/>
	</g>
	<path class="st12" d="M94.9,738.4h-2.5l2.1-7.2l-4.3,7.2h-2.6l-0.5-7.3l-1.8,7.3h-2.6l2.9-10.9h3.5l0.5,7.7l4.6-7.7h3.5L94.9,738.4
		z M104.3,738.4h-5.6c-0.8,0-1.3-0.2-1.7-0.6c-0.4-0.4-0.4-1-0.2-1.8c0.3-0.9,0.7-1.6,1.3-2c0.6-0.4,1.5-0.6,2.6-0.6h2.5
		c0.1-0.4,0.1-0.7-0.1-0.8c-0.2-0.2-0.6-0.2-1.3-0.2h-3.6l0.5-2h4.3c1.1,0,1.9,0.3,2.3,0.8c0.4,0.5,0.5,1.3,0.2,2.3L104.3,738.4z
		 M102.3,736.4l0.3-1.2h-2.2c-0.4,0-0.7,0-0.9,0.1c-0.2,0.1-0.3,0.3-0.3,0.5c-0.1,0.2-0.1,0.3,0,0.4c0,0,0.1,0.1,0.2,0.1
		c0.1,0,0.3,0,0.5,0H102.3z M113.1,738.4h-2.4l1.3-4.9c0.1-0.5,0.2-0.8,0-1c-0.1-0.1-0.4-0.2-0.9-0.2h-1.4l-1.6,6.1h-2.4l2.2-8.1h4
		c1.2,0,2,0.2,2.4,0.7c0.4,0.5,0.5,1.2,0.2,2.3L113.1,738.4z M121.9,738.4h-2.4l1.3-4.9c0.1-0.5,0.1-0.8,0-0.9
		c-0.1-0.1-0.2-0.1-0.3-0.2c-0.1,0-0.3-0.1-0.6-0.1l-1.4,0l-1.6,6.1h-2.4l2.9-10.9h2.4l-0.8,2.8h1.6c1.2,0,2,0.2,2.4,0.7
		c0.4,0.5,0.5,1.2,0.2,2.3L121.9,738.4z M131.1,738.4h-5.6c-0.8,0-1.3-0.2-1.7-0.6c-0.4-0.4-0.4-1-0.2-1.8c0.3-0.9,0.7-1.6,1.3-2
		c0.6-0.4,1.5-0.6,2.6-0.6h2.5c0.1-0.4,0.1-0.7-0.1-0.8c-0.2-0.2-0.6-0.2-1.3-0.2H125l0.5-2h4.3c1.1,0,1.9,0.3,2.3,0.8
		c0.4,0.5,0.5,1.3,0.2,2.3L131.1,738.4z M129.1,736.4l0.3-1.2h-2.2c-0.4,0-0.7,0-0.9,0.1c-0.2,0.1-0.3,0.3-0.3,0.5
		c-0.1,0.2,0,0.3,0,0.4c0,0,0.1,0.1,0.2,0.1c0.1,0,0.3,0,0.5,0H129.1z M134.9,738.4h-2.5l2.9-10.9h2.5L134.9,738.4z M140.6,738.4
		h-2.1l0.6-2.2h2.1L140.6,738.4z M148.4,738.4h-2.9c-0.4,0-0.7,0-1-0.1c-0.3,0-0.5-0.1-0.8-0.2c-0.4-0.1-0.8-0.4-1-0.8
		c-0.1-0.2-0.2-0.4-0.3-0.6c-0.1-0.2-0.2-0.5-0.2-0.7c0-0.3,0-0.5,0-0.8c0-0.3,0.1-0.6,0.2-0.9c0.2-0.6,0.4-1.2,0.8-1.7
		c0.3-0.5,0.7-1,1.3-1.4c0.4-0.3,0.9-0.6,1.4-0.7c0.5-0.2,1.1-0.2,1.9-0.2h2.9l-0.5,2h-2.3c-0.5,0-0.9,0-1.2,0.1
		c-0.3,0.1-0.6,0.2-0.8,0.4c-0.4,0.3-0.7,0.8-0.9,1.6c-0.1,0.4-0.1,0.8-0.1,1.1c0.1,0.3,0.1,0.6,0.4,0.7l0.4,0.2c0.1,0,0.3,0,0.4,0
		c0.1,0,0.4,0,0.6,0h2.3L148.4,738.4z M158.4,734.3c-0.3,1.3-1,2.3-2,3.1c-1,0.8-2.1,1.1-3.4,1.1c-1.3,0-2.2-0.4-2.8-1.1
		c-0.6-0.8-0.7-1.8-0.3-3.1c0.3-1.3,1-2.3,2-3c1-0.8,2.1-1.1,3.4-1.1c1.3,0,2.2,0.4,2.8,1.1C158.7,732,158.8,733,158.4,734.3z
		 M155.9,734.3c0.2-0.7,0.1-1.2-0.1-1.6c-0.2-0.4-0.6-0.6-1.1-0.6c-0.5,0-1,0.2-1.4,0.6c-0.4,0.4-0.7,0.9-0.9,1.6
		c-0.1,0.4-0.1,0.7-0.1,0.9c0,0.3,0.1,0.5,0.2,0.7c0.2,0.4,0.6,0.6,1.1,0.6c0.6,0,1-0.2,1.4-0.6C155.4,735.5,155.7,735,155.9,734.3z
		 M169.6,738.4h-2.4l1.3-4.9c0.1-0.5,0.2-0.8,0.1-1c-0.1-0.2-0.4-0.2-0.9-0.2l-0.9,0l-1.6,6.1h-2.4l1.6-6.1h-2l-1.6,6.1h-2.4
		l2.2-8.1h8c1.2,0,2,0.2,2.4,0.7c0.4,0.5,0.5,1.2,0.2,2.3L169.6,738.4z"/>
	<path class="st12" d="M27.8,730.3L49,728c0.2,0,0.5,0,0.7,0c0.5,0.1,1,0.3,1.4,0.7c0.4,0.3,0.6,0.8,0.7,1.3c0,0.2,0,0.4,0,0.6
		l-3.7,9.6c-0.1,0.7-0.5,1.3-1,1.7c-0.5,0.4-1.1,0.7-1.8,0.7H30.8c-0.7,0-1.3-0.3-1.8-0.7h0c-0.5-0.4-0.8-1.1-1-1.7l-2.9-7.4
		c0-0.1,0-0.1,0-0.2c-0.1-0.6,0.2-1.2,0.7-1.6c0.5-0.4,1.1-0.6,1.7-0.8C27.6,730.3,27.7,730.3,27.8,730.3z M47.5,730.2l-19.8,2.1
		c-0.1,0-0.2,0-0.2,0c-0.4,0.1-0.9,0.3-1.2,0.5c-0.3,0.2-0.4,0.5-0.4,0.8c0,0,0,0.1,0,0.1l2.7,6.5c0.1,0.5,0.3,0.9,0.7,1.2
		c0.3,0.2,0.6,0.4,1,0.4h13.6c0.4,0,0.8-0.1,1-0.4c0.3-0.3,0.5-0.7,0.7-1.2l3.4-8.6c0-0.1,0-0.2,0-0.3c0-0.3-0.2-0.5-0.4-0.7
		c-0.2-0.2-0.5-0.4-0.8-0.4C47.8,730.2,47.7,730.2,47.5,730.2z"/>
	<path class="st12" d="M87.5,724l-0.5,1.7h-0.6l1.2-4.5H89c0.3,0,0.5,0,0.7,0.1c0.2,0.1,0.3,0.2,0.4,0.3c0.1,0.1,0.2,0.3,0.2,0.4
		c0,0.2,0,0.4-0.1,0.6c-0.1,0.2-0.1,0.4-0.3,0.6c-0.1,0.2-0.3,0.3-0.4,0.4c-0.2,0.1-0.4,0.2-0.6,0.3c-0.2,0.1-0.5,0.1-0.7,0.1H87.5z
		 M87.6,723.5h0.7c0.2,0,0.3,0,0.5-0.1c0.1,0,0.3-0.1,0.4-0.2c0.1-0.1,0.2-0.2,0.3-0.3c0.1-0.1,0.1-0.2,0.2-0.4
		c0.1-0.3,0.1-0.5-0.1-0.7c-0.1-0.2-0.4-0.2-0.7-0.2h-0.7L87.6,723.5z"/>
	<path id="_x31__6_" class="st12" d="M92.2,722.4c0.2,0,0.4,0,0.6,0.1c0.2,0.1,0.3,0.2,0.4,0.3c0.1,0.1,0.1,0.3,0.2,0.5
		c0,0.2,0,0.4-0.1,0.7c-0.1,0.3-0.2,0.5-0.3,0.7c-0.1,0.2-0.3,0.4-0.4,0.5c-0.2,0.1-0.4,0.3-0.6,0.3c-0.2,0.1-0.4,0.1-0.7,0.1
		c-0.2,0-0.4,0-0.6-0.1c-0.2-0.1-0.3-0.2-0.4-0.3c-0.1-0.1-0.1-0.3-0.2-0.5c0-0.2,0-0.4,0.1-0.7c0.1-0.3,0.2-0.5,0.3-0.7
		c0.1-0.2,0.3-0.4,0.4-0.5c0.2-0.1,0.4-0.3,0.6-0.3C91.7,722.5,91.9,722.4,92.2,722.4z M91.4,725.3c0.3,0,0.6-0.1,0.8-0.3
		c0.2-0.2,0.4-0.5,0.5-0.9c0.1-0.4,0.1-0.7,0-0.9c-0.1-0.2-0.3-0.3-0.6-0.3c-0.2,0-0.3,0-0.4,0.1c-0.1,0.1-0.3,0.1-0.4,0.2
		c-0.1,0.1-0.2,0.2-0.3,0.4c-0.1,0.1-0.1,0.3-0.2,0.5c0,0.2-0.1,0.4-0.1,0.5c0,0.1,0,0.3,0.1,0.4c0.1,0.1,0.1,0.2,0.2,0.2
		C91.1,725.2,91.3,725.3,91.4,725.3z"/>
	<path id="_x32__6_" class="st12" d="M93.9,722.5h0.4c0,0,0.1,0,0.1,0c0,0,0,0,0,0.1l0.1,2c0,0.1,0,0.1,0,0.2c0,0.1,0,0.1,0,0.2
		c0-0.1,0.1-0.1,0.1-0.2c0-0.1,0.1-0.1,0.1-0.2l1.2-2.1c0,0,0-0.1,0.1-0.1c0,0,0.1,0,0.1,0h0.2c0,0,0.1,0,0.1,0c0,0,0,0,0,0.1
		l0.1,2.1c0,0.1,0,0.1,0,0.2c0,0.1,0,0.1,0,0.2c0-0.1,0.1-0.1,0.1-0.2c0-0.1,0.1-0.1,0.1-0.2l1.2-2c0,0,0-0.1,0.1-0.1
		c0,0,0.1,0,0.1,0h0.4l-1.9,3.2h-0.4c-0.1,0-0.1,0-0.1-0.1l-0.1-2.2c0,0,0-0.1,0-0.1c0-0.1,0-0.1,0-0.1c0,0,0,0.1-0.1,0.1
		c0,0,0,0.1-0.1,0.1l-1.3,2.2c0,0.1-0.1,0.1-0.2,0.1h-0.4L93.9,722.5z"/>
	<path id="_x33__6_" class="st12" d="M100.4,722.4c0.2,0,0.4,0,0.5,0.1c0.1,0.1,0.3,0.2,0.3,0.3c0.1,0.1,0.1,0.3,0.2,0.4
		c0,0.2,0,0.4-0.1,0.6c0,0.1,0,0.1-0.1,0.2c0,0-0.1,0-0.1,0h-2.1c-0.1,0.2-0.1,0.4-0.1,0.5c0,0.1,0,0.3,0.1,0.4
		c0.1,0.1,0.1,0.2,0.3,0.2c0.1,0,0.2,0.1,0.4,0.1c0.1,0,0.3,0,0.4,0c0.1,0,0.2-0.1,0.3-0.1c0.1,0,0.2-0.1,0.2-0.1
		c0.1,0,0.1-0.1,0.1-0.1c0,0,0.1,0,0.1,0.1l0.1,0.2c-0.1,0.1-0.2,0.2-0.3,0.2c-0.1,0.1-0.2,0.1-0.3,0.2c-0.1,0-0.2,0.1-0.4,0.1
		c-0.1,0-0.2,0-0.4,0c-0.2,0-0.4,0-0.6-0.1c-0.2-0.1-0.3-0.2-0.4-0.3c-0.1-0.1-0.2-0.3-0.2-0.5c0-0.2,0-0.5,0.1-0.7
		c0.1-0.2,0.1-0.4,0.3-0.6c0.1-0.2,0.3-0.4,0.4-0.5c0.2-0.1,0.4-0.3,0.6-0.3C100,722.5,100.2,722.4,100.4,722.4z M100.3,722.9
		c-0.3,0-0.5,0.1-0.7,0.2c-0.2,0.2-0.4,0.4-0.5,0.6h1.7c0-0.1,0.1-0.3,0-0.4c0-0.1,0-0.2-0.1-0.3c0-0.1-0.1-0.1-0.2-0.2
		C100.6,722.9,100.5,722.9,100.3,722.9z"/>
	<path id="_x34__6_" class="st12" d="M101.6,725.7l0.9-3.2h0.3c0.1,0,0.1,0,0.1,0c0,0,0,0.1,0,0.1l-0.1,0.5c0.2-0.2,0.4-0.4,0.5-0.5
		c0.2-0.1,0.4-0.2,0.6-0.2c0.1,0,0.2,0,0.2,0c0.1,0,0.1,0,0.2,0.1l-0.2,0.4c0,0.1-0.1,0.1-0.1,0.1c0,0-0.1,0-0.1,0
		c-0.1,0-0.1,0-0.2,0c-0.2,0-0.4,0.1-0.5,0.2c-0.2,0.1-0.3,0.3-0.5,0.5l-0.5,2H101.6z"/>
	<path id="_x35__6_" class="st12" d="M106.3,722.4c0.2,0,0.4,0,0.5,0.1c0.1,0.1,0.3,0.2,0.3,0.3c0.1,0.1,0.1,0.3,0.2,0.4
		c0,0.2,0,0.4-0.1,0.6c0,0.1,0,0.1-0.1,0.2c0,0-0.1,0-0.1,0h-2.1c-0.1,0.2-0.1,0.4-0.1,0.5c0,0.1,0,0.3,0.1,0.4
		c0.1,0.1,0.1,0.2,0.3,0.2c0.1,0,0.2,0.1,0.4,0.1c0.1,0,0.3,0,0.4,0c0.1,0,0.2-0.1,0.3-0.1c0.1,0,0.2-0.1,0.2-0.1
		c0.1,0,0.1-0.1,0.1-0.1c0,0,0.1,0,0.1,0.1l0.1,0.2c-0.1,0.1-0.2,0.2-0.3,0.2c-0.1,0.1-0.2,0.1-0.3,0.2c-0.1,0-0.2,0.1-0.4,0.1
		c-0.1,0-0.2,0-0.4,0c-0.2,0-0.4,0-0.6-0.1c-0.2-0.1-0.3-0.2-0.4-0.3c-0.1-0.1-0.2-0.3-0.2-0.5c0-0.2,0-0.5,0.1-0.7
		c0.1-0.2,0.2-0.4,0.3-0.6c0.1-0.2,0.3-0.4,0.4-0.5c0.2-0.1,0.4-0.3,0.6-0.3C105.8,722.5,106,722.4,106.3,722.4z M106.2,722.9
		c-0.3,0-0.5,0.1-0.7,0.2c-0.2,0.2-0.4,0.4-0.5,0.6h1.7c0-0.1,0-0.3,0-0.4c0-0.1,0-0.2-0.1-0.3c0-0.1-0.1-0.1-0.2-0.2
		C106.4,722.9,106.3,722.9,106.2,722.9z"/>
	<path id="_x36__6_" class="st12" d="M109.7,725.7c-0.1,0-0.1,0-0.1-0.1l0.1-0.4c-0.2,0.2-0.4,0.3-0.6,0.4c-0.2,0.1-0.4,0.1-0.6,0.1
		c-0.2,0-0.3,0-0.5-0.1c-0.1-0.1-0.2-0.2-0.3-0.3c-0.1-0.1-0.1-0.3-0.1-0.5c0-0.2,0-0.4,0.1-0.7c0.1-0.2,0.2-0.5,0.3-0.7
		c0.1-0.2,0.3-0.4,0.4-0.5c0.2-0.2,0.3-0.3,0.5-0.4c0.2-0.1,0.4-0.1,0.6-0.1c0.2,0,0.4,0,0.5,0.1c0.1,0.1,0.2,0.2,0.3,0.3l0.5-1.8
		h0.6l-1.2,4.6H109.7z M108.7,725.3c0.2,0,0.4,0,0.5-0.1c0.2-0.1,0.3-0.2,0.5-0.4l0.4-1.5c-0.1-0.1-0.2-0.2-0.3-0.3
		c-0.1-0.1-0.2-0.1-0.4-0.1c-0.3,0-0.6,0.1-0.8,0.3c-0.2,0.2-0.4,0.5-0.5,0.9c-0.1,0.2-0.1,0.4-0.1,0.5c0,0.1,0,0.3,0.1,0.4
		c0,0.1,0.1,0.2,0.2,0.2C108.4,725.2,108.6,725.3,108.7,725.3z"/>
	<path id="_x37__6_" class="st12" d="M112.2,725.7l1.2-4.6h0.6l-0.5,1.9c0.2-0.2,0.4-0.3,0.6-0.4c0.2-0.1,0.4-0.1,0.6-0.1
		c0.2,0,0.3,0,0.5,0.1c0.1,0.1,0.2,0.2,0.3,0.3c0.1,0.1,0.1,0.3,0.1,0.5c0,0.2,0,0.4-0.1,0.7c-0.1,0.2-0.2,0.5-0.3,0.7
		c-0.1,0.2-0.3,0.4-0.4,0.5c-0.2,0.1-0.3,0.3-0.5,0.3c-0.2,0.1-0.4,0.1-0.6,0.1c-0.2,0-0.4,0-0.5-0.1c-0.1-0.1-0.2-0.2-0.3-0.3
		l-0.1,0.3c0,0.1-0.1,0.1-0.2,0.1H112.2z M114.3,722.9c-0.2,0-0.4,0-0.5,0.1c-0.2,0.1-0.3,0.2-0.5,0.4l-0.4,1.5
		c0.1,0.1,0.1,0.2,0.3,0.3c0.1,0.1,0.2,0.1,0.4,0.1c0.3,0,0.6-0.1,0.8-0.3c0.2-0.2,0.4-0.5,0.5-0.9c0.1-0.2,0.1-0.4,0.1-0.5
		c0-0.1,0-0.3-0.1-0.4c0-0.1-0.1-0.2-0.2-0.2C114.6,722.9,114.5,722.9,114.3,722.9z"/>
	<path id="_x38__6_" class="st12" d="M116.2,726.6c0,0-0.1,0.1-0.1,0.1c0,0-0.1,0-0.1,0h-0.4l0.9-1.2l-0.5-3h0.5c0,0,0.1,0,0.1,0
		c0,0,0,0,0,0.1l0.3,2c0,0,0,0.1,0,0.1c0,0,0,0.1,0,0.1c0,0,0.1-0.1,0.1-0.1c0,0,0.1-0.1,0.1-0.1l1.4-2c0,0,0.1-0.1,0.1-0.1
		c0,0,0.1,0,0.1,0h0.4L116.2,726.6z"/>
	<path id="_x39__6_" class="st12" d="M118.8,725.3c0-0.1,0-0.1,0.1-0.2c0-0.1,0.1-0.1,0.1-0.1c0,0,0.1-0.1,0.1-0.1
		c0.1,0,0.1,0,0.2,0c0.1,0,0.1,0,0.1,0c0,0,0.1,0,0.1,0.1c0,0,0,0.1,0.1,0.1c0,0,0,0.1,0,0.2c0,0.1,0,0.1-0.1,0.2
		c0,0-0.1,0.1-0.1,0.1c0,0-0.1,0.1-0.1,0.1c-0.1,0-0.1,0-0.2,0c-0.1,0-0.1,0-0.1,0c0,0-0.1,0-0.1-0.1c0,0,0-0.1,0-0.1
		C118.8,725.4,118.8,725.4,118.8,725.3z M119.5,723c0-0.1,0-0.1,0.1-0.2c0,0,0.1-0.1,0.1-0.1c0,0,0.1-0.1,0.1-0.1c0.1,0,0.1,0,0.2,0
		c0.1,0,0.1,0,0.1,0c0,0,0.1,0,0.1,0.1c0,0,0,0.1,0.1,0.1c0,0,0,0.1,0,0.2c0,0.1,0,0.1-0.1,0.2c0,0-0.1,0.1-0.1,0.1
		c0,0-0.1,0.1-0.1,0.1c-0.1,0-0.1,0-0.2,0c-0.1,0-0.1,0-0.1,0c0,0-0.1,0-0.1-0.1c0,0,0-0.1,0-0.1C119.4,723.1,119.4,723,119.5,723z"
		/>
	<path class="st12" d="M125.9,740.7l-0.1,0.5h-2.3l-0.4,1.6h1.8l-0.1,0.5h-1.8l-0.4,1.6h2.3l-0.1,0.5h-2.9l1.3-4.8H125.9z
		 M125.9,743.3h1.6l-0.1,0.5h-1.6L125.9,743.3z M128.7,745h2.1l-0.1,0.5h-2.7l1.3-4.8h0.6L128.7,745z M133.3,742.1
		c0.2,0,0.4,0,0.5,0.1c0.2,0.1,0.3,0.2,0.4,0.3c0.1,0.1,0.1,0.3,0.2,0.5c0,0.2,0,0.4-0.1,0.6c0,0.1-0.1,0.2-0.1,0.2c0,0-0.1,0-0.1,0
		h-2.2c-0.1,0.2-0.1,0.4-0.1,0.6c0,0.2,0,0.3,0.1,0.4c0.1,0.1,0.2,0.2,0.3,0.2c0.1,0.1,0.3,0.1,0.4,0.1c0.1,0,0.3,0,0.4-0.1
		c0.1,0,0.2-0.1,0.3-0.1c0.1,0,0.2-0.1,0.2-0.1c0.1,0,0.1-0.1,0.1-0.1c0,0,0.1,0,0.1,0.1l0.1,0.2c-0.1,0.1-0.2,0.2-0.3,0.2
		c-0.1,0.1-0.2,0.1-0.4,0.2c-0.1,0-0.3,0.1-0.4,0.1c-0.1,0-0.3,0-0.4,0c-0.2,0-0.4,0-0.6-0.1c-0.2-0.1-0.3-0.2-0.4-0.3
		c-0.1-0.2-0.2-0.3-0.2-0.6c0-0.2,0-0.5,0.1-0.8c0.1-0.2,0.2-0.5,0.3-0.7c0.1-0.2,0.3-0.4,0.5-0.5c0.2-0.1,0.4-0.3,0.6-0.4
		C132.8,742.1,133.1,742.1,133.3,742.1z M133.2,742.5c-0.3,0-0.5,0.1-0.7,0.2c-0.2,0.2-0.4,0.4-0.5,0.7h1.8c0-0.1,0.1-0.3,0-0.4
		c0-0.1,0-0.2-0.1-0.3c-0.1-0.1-0.1-0.1-0.2-0.2C133.5,742.6,133.3,742.5,133.2,742.5z M137,745.5h-0.3c-0.1,0-0.1,0-0.1,0
		c0,0,0-0.1,0-0.1l0-0.3c-0.1,0.1-0.2,0.2-0.3,0.2c-0.1,0.1-0.2,0.1-0.3,0.2c-0.1,0-0.2,0.1-0.3,0.1c-0.1,0-0.2,0-0.4,0
		c-0.1,0-0.2,0-0.4-0.1c-0.1,0-0.2-0.1-0.3-0.2c-0.1-0.1-0.1-0.2-0.1-0.3c0-0.1,0-0.2,0-0.4c0-0.1,0.1-0.3,0.2-0.4
		c0.1-0.1,0.3-0.2,0.4-0.3c0.2-0.1,0.4-0.2,0.7-0.2c0.3-0.1,0.6-0.1,1-0.1l0.1-0.3c0.1-0.3,0.1-0.5,0-0.6c-0.1-0.1-0.2-0.2-0.4-0.2
		c-0.1,0-0.3,0-0.4,0.1c-0.1,0-0.2,0.1-0.3,0.1c-0.1,0-0.2,0.1-0.2,0.1c-0.1,0-0.1,0.1-0.2,0.1c0,0-0.1,0-0.1,0c0,0,0,0-0.1-0.1
		l-0.1-0.2c0.2-0.2,0.5-0.3,0.7-0.4c0.2-0.1,0.5-0.1,0.8-0.1c0.2,0,0.3,0,0.5,0.1c0.1,0.1,0.2,0.1,0.3,0.3c0.1,0.1,0.1,0.2,0.1,0.4
		c0,0.2,0,0.3-0.1,0.5L137,745.5z M135.6,745.1c0.1,0,0.2,0,0.3,0s0.2-0.1,0.3-0.1c0.1,0,0.2-0.1,0.3-0.1c0.1-0.1,0.2-0.1,0.3-0.2
		l0.2-0.7c-0.3,0-0.5,0-0.7,0.1c-0.2,0-0.4,0.1-0.5,0.1c-0.1,0.1-0.2,0.1-0.3,0.2c-0.1,0.1-0.1,0.2-0.1,0.3c0,0.1,0,0.2,0,0.2
		c0,0.1,0,0.1,0.1,0.2c0,0,0.1,0.1,0.1,0.1C135.4,745.1,135.5,745.1,135.6,745.1z M137.9,745.5l0.9-3.4h0.3c0.1,0,0.1,0,0.1,0
		c0,0,0,0.1,0,0.1l-0.1,0.6c0.2-0.2,0.4-0.4,0.6-0.6c0.2-0.1,0.4-0.2,0.6-0.2c0.1,0,0.2,0,0.2,0c0.1,0,0.1,0.1,0.2,0.1l-0.2,0.4
		c0,0.1-0.1,0.1-0.1,0.1c0,0-0.1,0-0.1,0c-0.1,0-0.1,0-0.3,0c-0.2,0-0.4,0.1-0.6,0.2c-0.2,0.1-0.3,0.3-0.5,0.5l-0.6,2.1H137.9z
		 M140.6,745.5l0.9-3.4h0.4c0.1,0,0.1,0,0.1,0.1l-0.1,0.4c0.2-0.2,0.4-0.3,0.6-0.4c0.2-0.1,0.4-0.2,0.7-0.2c0.2,0,0.3,0,0.5,0.1
		c0.1,0.1,0.2,0.1,0.3,0.3c0.1,0.1,0.1,0.2,0.1,0.4c0,0.2,0,0.3-0.1,0.5l-0.6,2.1h-0.6l0.6-2.1c0.1-0.3,0.1-0.5,0-0.6
		c-0.1-0.1-0.2-0.2-0.5-0.2c-0.2,0-0.3,0-0.5,0.1c-0.2,0.1-0.3,0.2-0.5,0.3l-0.7,2.5H140.6z M145.8,742.1l-0.9,3.4h-0.6l0.9-3.4
		H145.8z M146.3,741.1c0,0.1,0,0.1-0.1,0.2c0,0-0.1,0.1-0.1,0.1c0,0-0.1,0.1-0.2,0.1c-0.1,0-0.1,0-0.2,0c-0.1,0-0.1,0-0.2,0
		c0,0-0.1-0.1-0.1-0.1c0,0,0-0.1-0.1-0.1c0,0,0-0.1,0-0.2c0-0.1,0-0.1,0.1-0.2c0-0.1,0.1-0.1,0.1-0.1c0,0,0.1-0.1,0.2-0.1
		c0.1,0,0.1,0,0.2,0c0.1,0,0.1,0,0.2,0c0,0,0.1,0.1,0.1,0.1c0,0,0,0.1,0.1,0.1C146.3,741,146.3,741,146.3,741.1z M146,745.5l0.9-3.4
		h0.4c0.1,0,0.1,0,0.1,0.1l-0.1,0.4c0.2-0.2,0.4-0.3,0.6-0.4c0.2-0.1,0.4-0.2,0.7-0.2c0.2,0,0.3,0,0.5,0.1c0.1,0.1,0.2,0.1,0.3,0.3
		c0.1,0.1,0.1,0.2,0.1,0.4c0,0.2,0,0.3-0.1,0.5l-0.6,2.1h-0.6l0.6-2.1c0.1-0.3,0.1-0.5,0-0.6c-0.1-0.1-0.2-0.2-0.5-0.2
		c-0.2,0-0.3,0-0.5,0.1c-0.2,0.1-0.3,0.2-0.5,0.3l-0.7,2.5H146z M151.7,742.1c0.1,0,0.3,0,0.4,0c0.1,0,0.2,0.1,0.3,0.1h0.9l-0.1,0.2
		c0,0.1-0.1,0.1-0.2,0.1l-0.4,0.1c0,0.1,0,0.3,0,0.5c0,0.2-0.1,0.3-0.2,0.4c-0.1,0.1-0.2,0.2-0.4,0.3c-0.1,0.1-0.3,0.2-0.5,0.2
		c-0.2,0-0.3,0.1-0.5,0.1c-0.2,0-0.3,0-0.4-0.1c-0.1,0-0.1,0.1-0.2,0.1c-0.1,0.1-0.1,0.1-0.1,0.2c0,0.1,0,0.1,0,0.2
		c0.1,0,0.1,0.1,0.2,0.1c0.1,0,0.2,0,0.4,0c0.1,0,0.3,0,0.4,0c0.1,0,0.3,0,0.4,0c0.1,0,0.2,0.1,0.3,0.1c0.1,0.1,0.2,0.1,0.2,0.2
		c0,0.1,0,0.2,0,0.4c0,0.1-0.1,0.3-0.2,0.4c-0.1,0.1-0.2,0.3-0.4,0.4c-0.2,0.1-0.3,0.2-0.6,0.3c-0.2,0.1-0.4,0.1-0.7,0.1
		c-0.2,0-0.5,0-0.6-0.1c-0.2,0-0.3-0.1-0.4-0.2c-0.1-0.1-0.2-0.2-0.2-0.3c0-0.1,0-0.2,0-0.3c0-0.2,0.1-0.3,0.3-0.4
		c0.1-0.1,0.3-0.2,0.5-0.3c-0.1,0-0.1-0.1-0.2-0.2c0-0.1,0-0.2,0-0.3c0,0,0-0.1,0.1-0.2c0-0.1,0.1-0.1,0.1-0.2
		c0-0.1,0.1-0.1,0.2-0.1c0.1,0,0.1-0.1,0.2-0.1c-0.1-0.1-0.2-0.2-0.3-0.4c-0.1-0.2-0.1-0.3,0-0.5c0-0.2,0.1-0.3,0.2-0.4
		c0.1-0.1,0.2-0.3,0.4-0.3c0.1-0.1,0.3-0.2,0.5-0.2C151.4,742.1,151.5,742.1,151.7,742.1z M151.8,745.7c0-0.1,0-0.2,0-0.2
		c0-0.1-0.1-0.1-0.2-0.1c-0.1,0-0.2,0-0.3-0.1c-0.1,0-0.2,0-0.3,0c-0.1,0-0.2,0-0.4,0c-0.1,0-0.2,0-0.3,0c-0.1,0.1-0.3,0.1-0.4,0.2
		c-0.1,0.1-0.2,0.2-0.2,0.3c0,0.1,0,0.1,0,0.2c0,0.1,0.1,0.1,0.1,0.2c0.1,0,0.2,0.1,0.3,0.1c0.1,0,0.3,0,0.4,0c0.2,0,0.3,0,0.4,0
		c0.1,0,0.3-0.1,0.4-0.1c0.1-0.1,0.2-0.1,0.3-0.2C151.7,745.9,151.8,745.8,151.8,745.7z M151.2,743.9c0.1,0,0.2,0,0.3,0
		c0.1,0,0.2-0.1,0.3-0.1c0.1-0.1,0.1-0.1,0.2-0.2c0.1-0.1,0.1-0.2,0.1-0.3c0.1-0.2,0-0.4-0.1-0.5c-0.1-0.1-0.3-0.2-0.5-0.2
		s-0.4,0.1-0.6,0.2c-0.2,0.1-0.3,0.3-0.3,0.5c0,0.1,0,0.2,0,0.3c0,0.1,0,0.2,0.1,0.2c0,0.1,0.1,0.1,0.2,0.1
		C151,743.9,151.1,743.9,151.2,743.9z M159,740.7l-0.1,0.5h-1.5l-1.1,4.2h-0.6l1.1-4.2h-1.5l0.1-0.5H159z M159.8,742.1
		c0.2,0,0.4,0,0.5,0.1c0.2,0.1,0.3,0.2,0.4,0.3c0.1,0.1,0.1,0.3,0.2,0.5c0,0.2,0,0.4-0.1,0.6c0,0.1,0,0.2-0.1,0.2c0,0-0.1,0-0.1,0
		h-2.2c-0.1,0.2-0.1,0.4-0.1,0.6c0,0.2,0,0.3,0.1,0.4c0.1,0.1,0.2,0.2,0.3,0.2c0.1,0.1,0.2,0.1,0.4,0.1c0.1,0,0.3,0,0.4-0.1
		c0.1,0,0.2-0.1,0.3-0.1c0.1,0,0.2-0.1,0.2-0.1c0.1,0,0.1-0.1,0.1-0.1c0,0,0.1,0,0.1,0.1l0.1,0.2c-0.1,0.1-0.2,0.2-0.3,0.2
		c-0.1,0.1-0.2,0.1-0.4,0.2c-0.1,0-0.3,0.1-0.4,0.1c-0.1,0-0.3,0-0.4,0c-0.2,0-0.4,0-0.6-0.1c-0.2-0.1-0.3-0.2-0.4-0.3
		c-0.1-0.2-0.2-0.3-0.2-0.6c0-0.2,0-0.5,0.1-0.8c0.1-0.2,0.2-0.5,0.3-0.7c0.1-0.2,0.3-0.4,0.5-0.5c0.2-0.1,0.4-0.3,0.6-0.4
		C159.3,742.1,159.6,742.1,159.8,742.1z M159.7,742.5c-0.3,0-0.5,0.1-0.7,0.2c-0.2,0.2-0.4,0.4-0.5,0.7h1.8c0-0.1,0-0.3,0-0.4
		c0-0.1,0-0.2-0.1-0.3c-0.1-0.1-0.1-0.1-0.2-0.2C160,742.6,159.8,742.5,159.7,742.5z M163.5,745.5h-0.3c-0.1,0-0.1,0-0.1,0
		c0,0,0-0.1,0-0.1l0-0.3c-0.1,0.1-0.2,0.2-0.3,0.2c-0.1,0.1-0.2,0.1-0.3,0.2c-0.1,0-0.2,0.1-0.3,0.1c-0.1,0-0.2,0-0.4,0
		c-0.1,0-0.2,0-0.4-0.1c-0.1,0-0.2-0.1-0.3-0.2c-0.1-0.1-0.1-0.2-0.1-0.3c0-0.1,0-0.2,0-0.4c0-0.1,0.1-0.3,0.2-0.4
		c0.1-0.1,0.3-0.2,0.4-0.3c0.2-0.1,0.4-0.2,0.7-0.2c0.3-0.1,0.6-0.1,1-0.1l0.1-0.3c0.1-0.3,0.1-0.5,0-0.6c-0.1-0.1-0.2-0.2-0.4-0.2
		c-0.1,0-0.3,0-0.4,0.1c-0.1,0-0.2,0.1-0.3,0.1c-0.1,0-0.2,0.1-0.2,0.1c-0.1,0-0.1,0.1-0.2,0.1c0,0-0.1,0-0.1,0c0,0,0,0-0.1-0.1
		l-0.1-0.2c0.2-0.2,0.5-0.3,0.7-0.4c0.2-0.1,0.5-0.1,0.7-0.1c0.2,0,0.3,0,0.5,0.1c0.1,0.1,0.2,0.1,0.3,0.3c0.1,0.1,0.1,0.2,0.1,0.4
		c0,0.2,0,0.3-0.1,0.5L163.5,745.5z M162.1,745.1c0.1,0,0.2,0,0.3,0c0.1,0,0.2-0.1,0.3-0.1c0.1,0,0.2-0.1,0.3-0.1
		c0.1-0.1,0.2-0.1,0.3-0.2l0.2-0.7c-0.3,0-0.5,0-0.7,0.1c-0.2,0-0.4,0.1-0.5,0.1c-0.1,0.1-0.2,0.1-0.3,0.2c-0.1,0.1-0.1,0.2-0.2,0.3
		c0,0.1,0,0.2,0,0.2c0,0.1,0,0.1,0.1,0.2c0,0,0.1,0.1,0.1,0.1C161.9,745.1,162,745.1,162.1,745.1z M164.4,745.5l0.9-3.4h0.3
		c0.1,0,0.1,0,0.1,0.1l0,0.3c0.2-0.2,0.3-0.3,0.5-0.4c0.2-0.1,0.4-0.1,0.6-0.1c0.2,0,0.4,0.1,0.5,0.2c0.1,0.1,0.2,0.3,0.2,0.5
		c0.1-0.1,0.2-0.2,0.3-0.3c0.1-0.1,0.2-0.2,0.3-0.2c0.1-0.1,0.2-0.1,0.3-0.1c0.1,0,0.2,0,0.3,0c0.2,0,0.3,0,0.5,0.1
		c0.1,0.1,0.2,0.1,0.3,0.2c0.1,0.1,0.1,0.2,0.1,0.4c0,0.2,0,0.3-0.1,0.5l-0.6,2.1h-0.6l0.6-2.1c0.1-0.3,0.1-0.5,0-0.6
		c-0.1-0.1-0.2-0.2-0.4-0.2c-0.1,0-0.2,0-0.3,0.1c-0.1,0-0.2,0.1-0.3,0.2c-0.1,0.1-0.2,0.2-0.2,0.3c-0.1,0.1-0.1,0.2-0.2,0.4
		l-0.6,2.1h-0.6l0.6-2.1c0.1-0.3,0.1-0.5,0-0.6c-0.1-0.1-0.2-0.2-0.4-0.2c-0.1,0-0.3,0-0.4,0.1c-0.1,0.1-0.3,0.2-0.4,0.3l-0.7,2.5
		H164.4z"/>
</g>
<g>
	<g>
		<linearGradient id="SVGID_9_" gradientUnits="userSpaceOnUse" x1="759.3575" y1="143.1514" x2="959.5352" y2="143.1514">
			<stop  offset="0" style="stop-color:#FFFFFF;stop-opacity:0"/>
			<stop  offset="4.017906e-002" style="stop-color:#FDEBEE;stop-opacity:4.051906e-002"/>
			<stop  offset="0.1257" style="stop-color:#FAC6CE;stop-opacity:0.1267"/>
			<stop  offset="0.2187" style="stop-color:#F7A7B2;stop-opacity:0.2205"/>
			<stop  offset="0.3192" style="stop-color:#F58D9C;stop-opacity:0.3219"/>
			<stop  offset="0.4302" style="stop-color:#F3798A;stop-opacity:0.4338"/>
			<stop  offset="0.5573" style="stop-color:#F26C7E;stop-opacity:0.562"/>
			<stop  offset="0.7143" style="stop-color:#F16377;stop-opacity:0.7204"/>
			<stop  offset="0.9916" style="stop-color:#F16175"/>
		</linearGradient>
		<rect x="759.4" y="130.8" class="st15" width="200.2" height="24.7"/>
		<g>
			<g>
				<path class="st13" d="M899.6,147.7c-4.3,0-5.9-2-5.9-5.1c0-2.9,1.8-5.5,5.8-5.5c2.6,0,4.6,0.8,4.6,0.8v7.6h2.2v2.3H899.6z
					 M896,134.2c0-0.8,0.6-1.5,1.5-1.5c0.8,0,1.5,0.7,1.5,1.5c0,0.8-0.6,1.5-1.5,1.5C896.6,135.7,896,135,896,134.2z M901.3,139.8
					c0,0-0.8-0.4-2.1-0.4c-1.7,0-2.6,1.3-2.6,3c0,2,1,3.1,3.3,3.1h1.4V139.8z M899.6,134.2c0-0.8,0.6-1.5,1.5-1.5
					c0.8,0,1.5,0.7,1.5,1.5c0,0.8-0.6,1.5-1.5,1.5C900.2,135.7,899.6,135,899.6,134.2z"/>
				<path class="st13" d="M905.9,145.4h4.1v-8.1h2.9v10.3h-7V145.4z M907.8,152.5c-0.8,0-1.5-0.7-1.5-1.5c0-0.8,0.6-1.5,1.5-1.5
					c0.8,0,1.5,0.7,1.5,1.5C909.3,151.8,908.6,152.5,907.8,152.5z M911.5,152.5c-0.8,0-1.5-0.7-1.5-1.5c0-0.8,0.6-1.5,1.5-1.5
					c0.8,0,1.5,0.7,1.5,1.5C912.9,151.8,912.3,152.5,911.5,152.5z"/>
				<path class="st13" d="M913.1,153.1l0.2-2.3c0.5,0.2,1.1,0.3,1.8,0.3c1.5,0,2.4-0.7,2.4-3.1v-10.6h2.9v8.1h2.2v2.3h-2.2v0.1
					c0,2.8-0.9,5.5-5.4,5.5C914.3,153.3,913.6,153.2,913.1,153.1z"/>
				<path class="st13" d="M922.2,147.7v-2.3h1.9c0.6,0,1,0.1,1,0.1s-0.6-0.6-0.6-1.5c0-2.1,1.5-3.7,4.2-3.7c2.9,0,4,2,4,4.5v0.6h2.3
					v-0.3c0-4.6-1.8-6.8-6.2-6.8c-1.5,0-3.3,0.4-4.7,0.8l-0.3-2c1.6-0.5,3.6-0.9,5.3-0.9c5.5,0,8.6,2.6,8.6,9.1v0.1h1.6v2.3H922.2z
					 M930.3,144.8c0-1.6-0.6-2.7-1.9-2.7c-1,0-1.6,0.7-1.6,1.6c0,1.1,0.9,1.8,2.1,1.8h1.4V144.8z"/>
				<path class="st13" d="M939.1,145.4h8.5c0.1-0.5,0.1-1.1,0.1-1.7c0-2.8-1.1-4.2-4.3-4.2c-0.9,0-1.7,0.1-2.5,0.2v-2.3
					c0.9-0.1,1.9-0.2,2.8-0.2c5,0,6.9,2.2,6.9,6.4c0,1.1-0.1,2.5-0.4,4.1h-11.1V145.4z M942.8,151c0-0.8,0.7-1.5,1.5-1.5
					s1.5,0.7,1.5,1.5c0,0.8-0.7,1.5-1.5,1.5S942.8,151.9,942.8,151z"/>
			</g>
		</g>
		<g>
			<path class="st8" d="M716.7,145c0.1,0.4,0.2,0.8,0.2,1.1c0,0.9-0.6,1.7-1.9,2.2l-4.9,1.9c-1.5,0.6-2.8,1.1-2.8,2
				c0,0.1,0,0.1,0,0.2l-0.2,0.1c-0.1-0.4-0.2-0.8-0.2-1.1c0-0.9,0.5-1.7,1.9-2.3l4.9-1.9c1.7-0.7,2.8-1.1,2.8-2.2L716.7,145z"/>
			<path class="st8" d="M736.4,114.8c0-4.3,2.1-5.9,5.3-6.1v0.5c-2,0.3-2,3.7-2,7.4v2.2c0,5.5-4.5,10-9.9,10h-19.2
				c-11.9,0-18.5-5.2-18.5-14.1c0-2,0.3-3.9,1.1-5.8l0.4,0.3c-0.6,1.2-0.7,2.6-0.7,4.1c0,7.4,5.1,12.3,17.6,12.3h19.2
				c3.8,0,6.7-2.9,6.7-7.3V114.8z M716.8,138.3l-2.8-2.8l2.8-2.9l2.8,2.9L716.8,138.3z"/>
			<path class="st8" d="M753.5,149.4c0.1,0.4,0.2,0.8,0.2,1.1c0,0.9-0.6,1.7-1.9,2.2l-4.9,1.9c-1.5,0.6-2.8,1.1-2.8,2
				c0,0.1,0,0.1,0,0.2l-0.2,0.1c-0.1-0.4-0.2-0.8-0.2-1.1c0-0.9,0.5-1.7,1.9-2.3l4.9-1.9c1.7-0.7,2.8-1.1,2.8-2.2L753.5,149.4z"/>
			<path class="st8" d="M755.6,125.5h8.9v3.3h-8.9c0,5.9-1.5,10.5-5.1,14.3c-3.2,3.6-7.1,5.4-11.7,5.4c-2,0-3.9-0.4-5.9-1.2l0.3-0.6
				c1.3,0.7,2.7,1,4.2,1c8.1,0,15-7.4,15-18.9v-21.2h3.3V125.5z"/>
			<path class="st8" d="M780.2,82.1c0.3-0.2,0.7-0.3,1.1-0.3V82c-0.7,0.1-0.7,1.2-0.7,2.4v2c0,1.7-1.4,3.1-3.1,3.1
				c-1.9,0-3.4-1.1-3.4-2.8v-1.2c0-1.8,1.6-3.4,3.4-3.4H780.2z M777.6,83.2c-1.4,0-2.5,1-2.5,2.3v1.2c0,0.9,1,1.7,2.3,1.7
				c1,0,2.1-0.9,2.1-2.1v-2.5c0-0.2,0-0.5,0.1-0.6H777.6z"/>
			<path class="st8" d="M794,128.8h-29.6v-3.3h4.6c-1.7-1.7-2.5-4.1-2.5-6.3c0-5.1,4.5-9.6,9.7-9.6h6.9c3.4,0,6.8,0,7-2.2h0.5
				c0,3.4-1.9,5.4-5.8,5.4h-8.2c-4.2,0-7.1,2.7-7.1,6.4s2.8,6.2,6.7,6.3H794V128.8z M781.5,102.3l-2.8-2.8l2.8-2.9l2.8,2.9
				L781.5,102.3z"/>
			<path class="st8" d="M809.2,97.8c0.1,0.4,0.2,0.8,0.2,1.1c0,0.9-0.6,1.7-1.9,2.2l-4.9,1.9c-1.5,0.6-2.8,1.1-2.8,2
				c0,0.1,0,0.1,0,0.2l-0.2,0.1c-0.1-0.4-0.2-0.8-0.2-1.1c0-0.9,0.5-1.7,1.9-2.3l4.9-1.9c1.7-0.7,2.8-1.1,2.8-2.2L809.2,97.8z"/>
			<path class="st8" d="M800.6,125.5v-8.7c0-5.4,4.7-10.1,10.1-10.1h7.5c0.9-0.6,1.9-0.8,3.1-1v0.4c-1.9,0.4-2,3.8-2,7.3l-0.2,6.1
				c0,2.4,1.1,4.5,3.1,5.5c0.6,0.3,1.5,0.5,3,0.5v3.3c-3.5,0-6.1-1.3-7.8-4c-1.6,2.5-4.5,4-7.6,4h-16v-3.3H800.6z M811.2,110
				c-4.3,0-7.4,3.1-7.4,6.9v8.6h5.9c3.4,0,6.3-2.5,6.3-5.9v-7.7c0-0.8,0.1-1.4,0.2-1.9H811.2z"/>
			<path class="st8" d="M835.2,83.1c0.3-0.2,0.7-0.3,1.1-0.3V83c-0.7,0.1-0.7,1.2-0.7,2.4v2c0,1.7-1.4,3.1-3.1,3.1
				c-1.9,0-3.4-1.1-3.4-2.8v-1.2c0-1.8,1.6-3.4,3.4-3.4H835.2z M832.6,84.2c-1.4,0-2.5,1-2.5,2.3v1.2c0,0.9,1,1.7,2.3,1.7
				c1,0,2.1-0.9,2.1-2.1v-2.5c0-0.2,0-0.5,0.1-0.6H832.6z"/>
			<path class="st8" d="M828.9,90.7c3.1,0.1,5.3,1.7,5.3,6v21.6c0,4-2.5,7.9-6,9.6c-1.2,0.6-2.2,0.9-3,0.9v-3.3
				c2.4-0.2,5.8-2.8,5.8-7.3v-20c0-3.5,0-7-2.1-7.2V90.7z"/>
			<path class="st8" d="M841.7,98.8c0-5.7-0.2-7.3-2-7.5v-0.4c3.5,0.1,5.2,2.2,5.2,6.2v31.8h-3.3V98.8z"/>
			<path class="st8" d="M868.8,83.2c-1.3,2.3-3.3,3.5-5.2,3.5c-1.4,0-2.8-0.7-3.7-1.8l0.1-0.1c0.7,0.9,1.8,1.4,3,1.4
				c1.7,0,3.6-1,4.9-3.4l0.3-0.6c-0.2,0-0.4,0.1-0.6,0.1c-1.8,0-3.1-1.7-3.1-3.1c0-0.4,0.1-0.8,0.3-1.1l0.6-1c0.6-1,1.7-1.6,2.8-1.6
				c0.5,0,1,0.1,1.5,0.4l-0.4,0.9c-0.4-0.2-0.8-0.3-1.2-0.3c-0.8,0-1.5,0.4-1.9,1.1l-0.5,1c-0.1,0.2-0.2,0.4-0.2,0.6
				c0,0.8,0.8,2,2.1,2c0.5,0,0.9-0.2,1.3-0.5l1.7-3.1l-1.4-0.8l0.4-0.9l2.2,1.2c0.3,0,0.7,0.1,1,0.3l-0.1,0.1c-0.1,0-0.2,0-0.2,0
				c-0.5,0-0.9,0.9-1.4,1.7l-0.9,1.6L868.8,83.2z"/>
			<path class="st8" d="M878.2,106.6c0.8-0.5,1.9-0.7,3.1-0.8v0.5c-2.1,0.3-2.1,3.7-2.1,7.2v6c0,5.2-4.3,9.3-9.4,9.3
				c-5.4,0-10.2-3.6-10.2-8.3v-3.6c0-5.5,4.8-10.3,10.3-10.3H878.2z M870.5,109.8c-4.3,0-7.4,3.2-7.4,7v3.6c0,2.6,2.9,5.1,6.8,5.1
				c3.3,0,6.2-2.8,6.2-6.1v-7.6c0-0.9,0-1.4,0.3-2H870.5z M866.1,102.3l-2.9-2.9l2.9-2.8l2.9,2.8L866.1,102.3z M871.9,102.3
				l-2.9-2.9l2.9-2.8l2.9,2.8L871.9,102.3z"/>
			<path class="st8" d="M917.1,128.8c-3.4,0-6.6-1.6-8.3-4.5c-1,2-4.5,4.5-8,4.5h-17.1v-3.3h10.9v-13.1c0-3.7-0.2-7.2-2.2-7.5v-0.5
				c3.4,0.2,5.5,1.8,5.5,6.2v14.9h2.9c3.8,0,6.8-3.3,6.8-7.7V97.2c0-3.8-0.1-7.1-2.1-7.4v-0.5c3.3,0.1,5.4,1.8,5.4,6.1v24.7
				c0.3,3.3,2.8,5.2,6.2,5.5V128.8z"/>
			<path class="st8" d="M950.4,94.9c0.1,0.4,0.2,0.8,0.2,1.1c0,0.9-0.6,1.7-1.9,2.2l-4.9,1.9c-1.5,0.6-2.8,1.1-2.8,2
				c0,0.1,0,0.1,0,0.2l-0.2,0.1c-0.1-0.4-0.2-0.8-0.2-1.1c0-0.9,0.5-1.7,1.9-2.3l4.9-1.9c1.7-0.7,2.8-1.1,2.8-2.2L950.4,94.9z"/>
			<path class="st8" d="M959.5,128.8H917v-3.3h2.8c0.6-0.3,0.9-1.1,0.9-2.5c0-3.4-0.8-6.6-3.2-8.8l0.4-0.3c2.2,2.1,3.7,4.7,4.4,7.3
				c0.7-8.2,8.8-14.5,19.3-14.5h6.9c6.1,0.5,11.2,6.1,11.1,12.4V128.8z M956.3,125.5V119c0-3.8-1.7-6.5-5.1-8.1
				c-1.4-0.6-3.3-0.9-6.2-0.9h-3.4c-11.1,0-18.8,6.2-18.8,14.5v1H956.3z"/>
		</g>
	</g>
</g>
</svg>
