<?xml version="1.0" encoding="utf-8"?>
<!-- Generator: Adobe Illustrator 19.2.0, SVG Export Plug-In . SVG Version: 6.00 Build 0)  -->
<svg version="1.1" id="Layer_1" xmlns="http://www.w3.org/2000/svg" xmlns:xlink="http://www.w3.org/1999/xlink" x="0px" y="0px"
	 viewBox="0 0 1024 768" style="enable-background:new 0 0 1024 768;" xml:space="preserve">
<style type="text/css">
	.st0{fill:url(#SVGID_1_);}
	.st1{clip-path:url(#SVGID_3_);}
	.st2{fill:url(#SVGID_4_);}
	.st3{fill:#F68A1F;}
	.st4{filter:url(#Adobe_OpacityMaskFilter);}
	.st5{filter:url(#Adobe_OpacityMaskFilter_1_);}
	.st6{mask:url(#SVGID_5_);fill:url(#SVGID_6_);}
	.st7{fill:url(#SVGID_7_);}
	.st8{fill:#622872;}
	.st9{fill:url(#SVGID_8_);}
	.st10{fill:#CA4977;}
	.st11{fill-rule:evenodd;clip-rule:evenodd;fill:#F6DFB4;}
	.st12{fill:#D2D3D4;}
	.st13{fill:#FFFFFF;}
	.st14{fill:#205B6A;}
	.st15{fill:url(#SVGID_9_);}
</style>
<g>
	<g>
		<g>
			<g>
				<linearGradient id="SVGID_1_" gradientUnits="userSpaceOnUse" x1="246.473" y1="135.4614" x2="246.473" y2="718.4524">
					<stop  offset="0" style="stop-color:#3553A4"/>
					<stop  offset="0.103" style="stop-color:#49559C"/>
					<stop  offset="0.3094" style="stop-color:#715B8A"/>
					<stop  offset="0.6003" style="stop-color:#A5676B"/>
					<stop  offset="0.9615" style="stop-color:#EB782B"/>
					<stop  offset="0.9949" style="stop-color:#F47A22"/>
				</linearGradient>
				<path class="st0" d="M396.7,264.2h-6.1c-1.8-28.2-25.9-59.6-71.7-93.4c-35-25.9-70.5-43.7-70.9-43.9c-1-0.5-2.2-0.5-3.1,0
					c-0.3,0.2-35.9,18-70.9,43.9c-45.7,33.8-69.8,65.2-71.7,93.4h-6.1c-1.9,0-3.5,1.6-3.5,3.5v360.2h307.5V267.7
					C400.2,265.8,398.6,264.2,396.7,264.2z"/>
			</g>
		</g>
	</g>
	<g>
		<defs>
			<path id="SVGID_2_" d="M396.7,264.2h-6.1c-1.8-28.2-25.9-59.6-71.7-93.4c-35-25.9-70.5-43.7-70.9-43.9c-1-0.5-2.2-0.5-3.1,0
				c-0.3,0.2-35.9,18-70.9,43.9c-45.7,33.8-69.8,65.2-71.7,93.4h-6.1c-1.9,0-3.5,1.6-3.5,3.5v360.2h307.5V267.7
				C400.2,265.8,398.6,264.2,396.7,264.2z"/>
		</defs>
		<clipPath id="SVGID_3_">
			<use xlink:href="#SVGID_2_"  style="overflow:visible;"/>
		</clipPath>
		<g class="st1">
			
				<radialGradient id="SVGID_4_" cx="173.8307" cy="663.6039" r="54.2731" fx="162.6903" fy="647.5604" gradientUnits="userSpaceOnUse">
				<stop  offset="0.1436" style="stop-color:#FBF067"/>
				<stop  offset="0.5314" style="stop-color:#FFDE00"/>
				<stop  offset="0.9166" style="stop-color:#F47D20"/>
			</radialGradient>
			<circle class="st2" cx="174.9" cy="666.2" r="48.7"/>
			<g>
				<path class="st3" d="M174.9,617.5c-26.9,0-48.7,21.8-48.7,48.7c0,26.9,21.8,48.7,48.7,48.7c26.9,0,48.7-21.8,48.7-48.7
					C223.6,639.3,201.8,617.5,174.9,617.5z M173.1,711.7c-25.1,0-45.5-20.4-45.5-45.5c0-25.1,20.4-45.5,45.5-45.5
					c25.1,0,45.5,20.4,45.5,45.5C218.6,691.3,198.3,711.7,173.1,711.7z"/>
				<path class="st3" d="M180.2,601.3c0,2.7-2,4.9-4.6,4.9l0,0c-2.5,0-4.6-2.2-4.6-4.9v-8.7c0-2.7,2-4.9,4.6-4.9l0,0
					c2.5,0,4.6,2.2,4.6,4.9V601.3z"/>
				<path class="st3" d="M180.2,734.6c0,2.7-2,4.9-4.6,4.9l0,0c-2.5,0-4.6-2.2-4.6-4.9v-8.7c0-2.7,2-4.9,4.6-4.9l0,0
					c2.5,0,4.6,2.2,4.6,4.9V734.6z"/>
				<path class="st3" d="M237.8,668.2c-2.7,0-4.9-2-4.9-4.6l0,0c0-2.5,2.2-4.6,4.9-4.6h8.7c2.7,0,4.9,2,4.9,4.6l0,0
					c0,2.5-2.2,4.6-4.9,4.6H237.8z"/>
				<path class="st3" d="M104.6,668.2c-2.7,0-4.9-2-4.9-4.6l0,0c0-2.5,2.2-4.6,4.9-4.6h8.7c2.7,0,4.9,2,4.9,4.6l0,0
					c0,2.5-2.2,4.6-4.9,4.6H104.6z"/>
				<path class="st3" d="M222.8,622.8c-1.9,1.9-4.9,2.1-6.7,0.3l0,0c-1.8-1.8-1.7-4.8,0.3-6.7l6.2-6.2c1.9-1.9,4.9-2.1,6.7-0.3l0,0
					c1.8,1.8,1.7,4.8-0.3,6.7L222.8,622.8z"/>
				<path class="st3" d="M128.6,717c-1.9,1.9-4.9,2.1-6.7,0.3l0,0c-1.8-1.8-1.7-4.8,0.3-6.7l6.2-6.2c1.9-1.9,4.9-2.1,6.7-0.3l0,0
					c1.8,1.8,1.7,4.8-0.3,6.7L128.6,717z"/>
				<path class="st3" d="M216.4,710.9c-1.9-1.9-2-4.9-0.3-6.7l0,0c1.8-1.8,4.8-1.7,6.7,0.3l6.2,6.2c1.9,1.9,2.1,4.9,0.3,6.7l0,0
					c-1.8,1.8-4.8,1.7-6.7-0.3L216.4,710.9z"/>
				<path class="st3" d="M122.2,616.6c-1.9-1.9-2-4.9-0.3-6.7l0,0c1.8-1.8,4.8-1.7,6.7,0.3l6.2,6.2c1.9,1.9,2.1,4.9,0.3,6.7l0,0
					c-1.8,1.8-4.8,1.7-6.7-0.3L122.2,616.6z"/>
			</g>
			<defs>
				<filter id="Adobe_OpacityMaskFilter" filterUnits="userSpaceOnUse" x="129" y="621.5" width="72.7" height="48.8">
					<feFlood  style="flood-color:white;flood-opacity:1" result="back"/>
					<feBlend  in="SourceGraphic" in2="back" mode="normal"/>
				</filter>
			</defs>
			<mask maskUnits="userSpaceOnUse" x="129" y="621.5" width="72.7" height="48.8" id="SVGID_5_">
				<g class="st4">
					<defs>
						<filter id="Adobe_OpacityMaskFilter_1_" filterUnits="userSpaceOnUse" x="129" y="621.5" width="72.7" height="48.8">
							<feFlood  style="flood-color:white;flood-opacity:1" result="back"/>
							<feBlend  in="SourceGraphic" in2="back" mode="normal"/>
						</filter>
					</defs>
					<mask maskUnits="userSpaceOnUse" x="129" y="621.5" width="72.7" height="48.8" id="SVGID_5_">
						<g class="st5">
						</g>
					</mask>
					
						<radialGradient id="SVGID_6_" cx="163.8707" cy="625.87" r="50.6721" fx="181.0468" fy="599.7568" gradientUnits="userSpaceOnUse">
						<stop  offset="0.2627" style="stop-color:#FFFFFF"/>
						<stop  offset="0.7268" style="stop-color:#FFFFFF"/>
						<stop  offset="0.9716" style="stop-color:#000000"/>
					</radialGradient>
					<path class="st6" d="M143.7,632.2c9-9.2,32.2-15.4,48.6-6.2c16.4,9.2,11,26.7-15.4,25.7c-26.4-1-42.3,8.6-44.4,16.8
						C130.5,676.7,121.4,655,143.7,632.2z"/>
				</g>
			</mask>
			
				<radialGradient id="SVGID_7_" cx="163.8707" cy="625.87" r="50.6721" fx="181.0468" fy="599.7568" gradientUnits="userSpaceOnUse">
				<stop  offset="0.2627" style="stop-color:#FFFFFF"/>
				<stop  offset="0.7268" style="stop-color:#FBF067"/>
				<stop  offset="0.9716" style="stop-color:#FFDE00"/>
			</radialGradient>
			<path class="st7" d="M143.7,632.2c9-9.2,32.2-15.4,48.6-6.2c16.4,9.2,11,26.7-15.4,25.7c-26.4-1-42.3,8.6-44.4,16.8
				C130.5,676.7,121.4,655,143.7,632.2z"/>
		</g>
	</g>
</g>
<g>
	<path class="st8" d="M721.3,215.6c0-0.8,0.7-1.5,1.5-1.5c0.8,0,1.5,0.7,1.5,1.5c0,0.8-0.7,1.5-1.5,1.5
		C722,217.2,721.3,216.5,721.3,215.6z M721.3,223.1c0-0.8,0.7-1.5,1.5-1.5c0.8,0,1.5,0.7,1.5,1.5c0,0.8-0.7,1.5-1.5,1.5
		C722,224.6,721.3,223.9,721.3,223.1z"/>
	<path class="st8" d="M742.8,223.1c0,0.4-0.2,1.2-1.5,1.2c-1.9,0-3.3-0.4-3.9-1.9c-0.6,0.1-1.2,0.2-1.8,0.2c-2.5,0-4-1.1-4-2.7
		c0-1.8,1.9-4,5.5-5.1v-1.2l1.7-0.8l0.2,0v7.4c0,1.8,0.9,2.1,2.8,2.1C742.7,222.5,742.8,222.7,742.8,223.1z M734.6,211.4l-1.9-1.4
		l1.2-1.8l1.9,1.3L734.6,211.4z M737.1,220.7v-0.2v-3.6c-2.2,0.7-3.7,1.8-4,2.8c0.3,0.9,1.6,1.2,2.6,1.2
		C736.2,220.8,736.7,220.8,737.1,220.7z M738,211.4L736,210l1.2-1.8l1.9,1.3L738,211.4z"/>
	<path class="st8" d="M750.9,223.1c0,0.4-0.2,1.2-1.4,1.2c-1.5,0-2.9-0.3-3.9-1.2c-0.8,0.8-1.8,1.2-3.3,1.2h-0.8l0.5-1.9h0.7
		c0.7,0,1.4-0.1,1.8-0.5c0.3-0.5,0.7-1.6,1.2-3.6l1.8-0.5l0.2,0.1c-0.3,1.5-0.7,2.7-1.1,3.7c0.6,0.3,1.5,0.7,3.4,0.7
		C750.7,222.5,750.9,222.7,750.9,223.1z M743.4,226.2l1.9,1.3l-1.2,1.8l-1.9-1.4L743.4,226.2z M746.9,226.2l1.9,1.3l-1.2,1.8
		l-1.9-1.4L746.9,226.2z"/>
	<path class="st8" d="M763.6,223.1c0,0.7-0.6,1.2-1.5,1.2c-1,0-1.8-0.2-2.4-0.8c-0.4,0.7-0.9,1.1-1.9,1.1c-1.4,0-3.2-0.7-4.8-1.8
		c-1,1.3-1.7,1.5-3.6,1.5l0.5-1.9c1,0,1.3-0.3,2.1-1.5c0.9-1.5,2-4.4,4.3-4.4c1.8,0,2.6,1.8,3.5,3.7c0.9,1.8,1.3,2.1,2.8,2.1
		C763.3,222.5,763.6,222.7,763.6,223.1z M758.7,222.2c-0.1-0.1-0.1-0.3-0.2-0.4c-1-2.4-1.6-3.3-2.2-3.3c-0.9,0-1.7,1.5-2.4,2.9
		c1.2,0.8,2.7,1.4,3.5,1.4C758,222.8,758.4,222.6,758.7,222.2z"/>
	<path class="st8" d="M773.9,222.1c0,1.5-1.1,2.3-3.4,2.3c-1.4,0-2.7-0.2-3.7-0.7c-0.9,0.4-2.1,0.6-3.6,0.6h-1.1l0.5-1.9h2.4
		c-0.6-0.7-1-1.6-1-2.6c0-1.3,0.7-2.7,1.8-3.3c-0.5-0.2-0.9-0.4-1.2-0.6l0.6-1.8l0.2,0C768.6,216.1,773.9,219.1,773.9,222.1z
		 M765.5,219.7c0,0.9,0.4,1.8,1.6,2.4c0.8-0.5,1.1-1.3,1.1-2.3c0-1.1-0.6-2.1-1.3-2.1C766.1,217.7,765.5,218.7,765.5,219.7z
		 M772.3,222.4c0-1-1.1-2.2-2.6-3.3c0,0.2,0,0.5,0,0.8c0,1-0.4,2-1.1,2.8c0.6,0.1,1.2,0.1,1.9,0.1
		C771.4,222.7,772.1,222.6,772.3,222.4z"/>
	<path class="st8" d="M776.5,224.4v-16l1.8-0.5l0.1,0.1l0,16.1l-1.7,0.4L776.5,224.4z"/>
	<path class="st8" d="M789.7,223.1c0,0.4-0.2,1.2-1.4,1.2c-1,0-1.6-0.3-2-0.6c-0.7,2.2-3.3,4.2-7.2,4.9l-1-1.4l0.1-0.2
		c4.7-0.9,6.4-2.8,6.8-4.6c-0.4-1.1-1.1-2.6-1.8-4l1.4-1.5h0.2c0.6,1.7,1.2,3.1,1.4,3.7c0.6,1.6,1,1.9,2.5,1.9
		C789.6,222.5,789.7,222.7,789.7,223.1z"/>
	<path class="st8" d="M788.8,222.5h0.2c1.2,0,2.1-0.1,2.5-0.3c0.5-1.2-0.3-2.9-1.1-4.7l1.6-1.2h0.2c0.8,1.7,1.2,3.3,1.2,4.3
		c0,1-0.5,2.2-1.2,2.9c-0.6,0.6-1.6,0.8-3.8,0.8h-0.2L788.8,222.5z M789.9,228l1.2-1.8l2,1.3l-1.2,1.8L789.9,228z"/>
	<path class="st8" d="M802.9,218.2c0.8,1.1,1.2,2.2,1.2,3.2c0,2.1-1.2,3-4.4,3h-3.2l0.1-1.8c1.5-1.1,3.2-2.4,4.3-4.2
		c-1.6-1.7-3.8-3.3-5.5-4.5l0.7-1.9l0.1-0.1c2.2,1.8,4.1,3.4,5.4,4.9c0.4-0.9,0.6-1.9,0.6-3c0-1.9-0.5-4.2-0.7-4.9l1.7-0.9l0.2,0
		c0.2,1.1,0.7,3.6,0.7,5.2C804.1,215.2,803.6,216.8,802.9,218.2z M800.7,228.9l0.1,1.2c-1.2,0.1-2.7,0.3-4.6,0.3l-0.1-1.3
		c0.3,0,0.7,0,1.1,0c-0.3-0.4-0.4-0.9-0.4-1.4c0-1.2,0.7-1.9,2-1.9c0.5,0,1.1,0.1,1.7,0.3l-0.3,1.3c-0.5-0.2-0.8-0.3-1.1-0.3
		c-0.6,0-0.9,0.4-0.9,0.9c0,0.4,0.2,0.7,0.5,1C799.3,229,800,228.9,800.7,228.9z M801.9,219.6c-1,1.3-2.2,2.3-3,2.9h0.9
		c1.8,0,2.6-0.2,3-0.5C802.8,221.2,802.4,220.4,801.9,219.6z"/>
	<path class="st8" d="M807.3,224.4v-16l1.8-0.5l0.1,0.1l0,16.1l-1.7,0.4L807.3,224.4z"/>
	<path class="st8" d="M824.7,221c0,2-1.7,3.5-4,3.5c-2.1,0-3.4-1.1-3.4-3c0-1.2,0.6-2.6,2.2-4.7l-0.5-0.4l0.9-1.7l0.2-0.1
		C823.6,217.7,824.7,219.1,824.7,221z M819.4,212.6l-1.9-1.4l1.2-1.8l1.9,1.3L819.4,212.6z M822.9,221.1c0-1-0.8-2.1-2.1-3.2
		c-1.3,1.4-1.8,2.4-1.8,3.2c0,1,0.7,1.6,1.9,1.6C822.2,222.6,822.9,222,822.9,221.1z M822.7,212.6l-1.9-1.4l1.2-1.8l1.9,1.3
		L822.7,212.6z"/>
	<path class="st8" d="M840.1,223.1c0,0.4-0.2,1.2-1.5,1.2c-2.1,0-3.7-0.6-4.1-2.9c-1.8,2.2-4.4,3-7.2,3l-0.8-1.7l0.1-0.1
		c2.3,0,4.3-0.5,5.9-1.6c-1.3-2.5-3.4-4.6-6.1-7.1l0.7-1.9l0.2-0.1c3,2.7,5.4,6.1,6.4,8.1c0.3-0.3,0.5-0.6,0.7-1v-10.7l1.7-0.4
		l0.1,0.1v12.1c0,1.9,0.8,2.3,2.8,2.3C839.9,222.5,840.1,222.7,840.1,223.1z"/>
	<path class="st8" d="M860.3,223.1c0,0.4-0.2,1.2-1.4,1.2c-1,0-2.3-0.2-3.3-1c-1.1,0.8-2.9,1-6.1,1h-2.7c-2.4,0-3.8-0.1-5.3-0.7
		c-0.7,0.5-1.6,0.7-2.7,0.7l0.5-1.9c0.7,0,1.5-0.1,1.8-0.3c0.3-0.4,0.7-1.4,1.1-2.7l1.9-0.3l0.1,0.1c-0.4,1.2-0.8,2.1-1.3,2.9
		c0.5,0.2,1.2,0.3,2.1,0.3c3.9-3.8,6.5-6.1,8.7-6.1c2,0,3.6,1.9,3.6,3.8c0,0.7-0.1,1.3-0.4,1.8c0.5,0.3,1.3,0.6,2.6,0.6
		C860.1,222.5,860.3,222.7,860.3,223.1z M854.9,222c0.2-0.3,0.4-0.9,0.4-1.5c0-1-0.9-2.3-2-2.3c-1.5,0-3.6,1.9-6.1,4.3h2.1
		C852.8,222.5,854.1,222.4,854.9,222z"/>
	<path class="st8" d="M859.3,222.5c0.8,0,1.7,0,2.3-0.5c0.1-0.4,0.2-1,0.2-1.9v-11.7l1.7-0.4l0.2,0.1v11.9c0,3.5-1.8,4.4-4.8,4.4
		L859.3,222.5z"/>
	<path class="st8" d="M866.7,224.4v-16l1.8-0.5l0.1,0.1l0,16.1l-1.7,0.4L866.7,224.4z"/>
	<path class="st8" d="M880.6,206.1c-1.2,0.1-2.7,0.3-4.6,0.3l-0.1-1.3c0.3,0,0.7,0,1.1,0c-0.3-0.4-0.4-0.9-0.4-1.4
		c0-1.2,0.7-1.9,2-1.9c0.5,0,1.1,0.1,1.7,0.3l-0.3,1.2c-0.5-0.1-0.8-0.2-1.1-0.2c-0.6,0-0.9,0.4-0.9,0.9c0,0.4,0.2,0.7,0.5,1
		c0.8,0,1.5-0.1,2.2-0.2L880.6,206.1z M879.2,208l0.1,0.1l0,16.1l-1.7,0.4l-0.1-0.1v-16L879.2,208z"/>
	<path class="st8" d="M890.7,223.1c0,0.4-0.2,1.2-1.4,1.2c-1,0-1.6-0.3-2-0.6c-0.7,2.2-3.3,4.2-7.2,4.9l-1-1.4l0.1-0.2
		c4.7-0.9,6.4-2.8,6.8-4.6c-0.4-1.1-1.1-2.6-1.8-4l1.4-1.5h0.2c0.6,1.7,1.2,3.1,1.4,3.7c0.6,1.6,1,1.9,2.5,1.9
		C890.5,222.5,890.7,222.7,890.7,223.1z"/>
	<path class="st8" d="M898.2,219.2c0,2.3-0.4,3.6-1.5,4.4c-1.3,0.7-3.1,0.8-7.6,0.8l0.5-1.9c4.6,0,6.1-0.2,6.8-0.5
		c0.1-0.3,0.1-0.8,0.2-1.5c-0.7,0.2-1.6,0.3-2.5,0.3c-2.1,0-3.1-1.1-3.1-2.8c0-2.2,1.6-4.6,3.5-4.6
		C896.9,213.4,898.2,216.2,898.2,219.2z M893.2,210.8l-1.9-1.4l1.2-1.8l1.9,1.3L893.2,210.8z M894.5,219c0.8,0,1.5-0.1,2.2-0.2
		c-0.1-1.7-1.1-3.5-2.2-3.5c-0.9,0-1.9,1.2-1.9,2.5C892.6,218.6,893.3,219,894.5,219z M896.5,210.8l-1.9-1.4l1.2-1.8l1.9,1.3
		L896.5,210.8z"/>
	<path class="st8" d="M904.4,206.1c-1.2,0.1-2.7,0.3-4.6,0.3l-0.1-1.3c0.3,0,0.7,0,1.1,0c-0.3-0.4-0.4-0.9-0.4-1.4
		c0-1.2,0.7-1.9,2-1.9c0.5,0,1.1,0.1,1.7,0.3l-0.3,1.2c-0.5-0.1-0.8-0.2-1.1-0.2c-0.6,0-0.9,0.4-0.9,0.9c0,0.4,0.2,0.7,0.5,1
		c0.8,0,1.5-0.1,2.2-0.2L904.4,206.1z M903,208l0.1,0.1l0,16.1l-1.7,0.4l-0.1-0.1v-16L903,208z"/>
	<path class="st8" d="M925.6,223.1c0,0.7-0.6,1.2-1.5,1.2c-1.1,0-1.9-0.3-2.5-0.9c-0.6,0.8-1.2,1.2-1.9,1.2c-1.7,0-3.5-1.2-5.4-3.5
		c-0.3,0.3-0.6,0.7-0.8,1c-0.3,1.1,0,5.4,0.8,10.2l-1.6,0.8l-0.2-0.1c-0.6-4.2-0.9-7-0.9-8.4c0-2,0.4-3.1,1.6-4.5
		c1.6-1.9,3.8-3.4,5.2-3.4c1.3,0,2.1,0.8,3.5,3.7c0.9,1.8,1.3,2.1,2.8,2.1C925.3,222.5,925.6,222.7,925.6,223.1z M920.7,222.1
		c-0.1-0.1-0.1-0.2-0.2-0.3c-1.1-2.4-1.8-3.3-2.4-3.3c-0.6,0-1.6,0.6-2.6,1.4c1.4,1.8,2.9,2.9,3.9,2.9
		C919.8,222.8,920.3,222.6,920.7,222.1z"/>
	<path class="st8" d="M924.7,222.5h0.7c1.2,0,2.1-0.1,2.5-0.3c0.5-1.2-0.2-2.9-1-4.7l1.5-1.2h0.2c0.7,1.7,1.2,3.3,1.2,4.3
		c0,1-0.4,2.2-1.2,2.9c-0.6,0.6-1.6,0.8-3.8,0.8h-0.7L924.7,222.5z M924.7,212.2l1.2-1.8l1.9,1.3l-1.2,1.8L924.7,212.2z
		 M926.1,209.5l1.2-1.8l1.9,1.3l-1.2,1.9L926.1,209.5z M928.1,212.2l1.2-1.8l1.9,1.3l-1.2,1.8L928.1,212.2z"/>
</g>
<linearGradient id="SVGID_8_" gradientUnits="userSpaceOnUse" x1="505.4595" y1="430.0948" x2="1023.9995" y2="430.0948">
	<stop  offset="0.1199" style="stop-color:#FFFFFF"/>
	<stop  offset="0.9969" style="stop-color:#FFF2D5"/>
</linearGradient>
<rect x="505.5" y="290.1" class="st9" width="518.5" height="280"/>
<g>
	<g>
		<path class="st10" d="M481.9,337.1c0-2.4,1.3-4.7,3.2-7l2,1.2c-0.9,1.2-1.7,2.5-1.7,3.4c0,1.3,1.6,1.1,1.6,3
			c0,1.2-0.9,2.5-2.5,2.5C482.9,340.2,481.9,339,481.9,337.1z"/>
		<path class="st10" d="M505.8,337.3c0,1.5-0.5,2.7-2.2,2.7c-2,0-3.4-0.4-4.3-1.5c-1.5,1.1-3.9,1.8-6.6,1.8c-0.8,0-2.6-0.1-3.7-0.4
			l0.6-3.9l0.2-0.1c1.1,0.2,2.5,0.3,3.3,0.3c1.5,0,3.4-0.2,4.6-0.7c-0.7-1.3-2.4-4.7-3.7-7.2l2.9-3.3h0.4c0.8,2,2.9,6.9,3.4,8
			c1.1,2.7,1.8,3,3.9,3C505.5,336,505.8,336.6,505.8,337.3z"/>
		<path class="st10" d="M522.9,337.3c0,1.6-0.7,2.7-2.2,2.7c-1.4,0-2.4-0.3-3.3-1.1c-0.6,1-1.5,1.5-2.7,1.5c-1.4,0-3.5-0.7-5.7-2.2
			c-1.3,1.6-2.9,1.8-5.3,1.8l0.9-4c1.4,0,1.8-0.2,2.6-1.5c1.8-3,3.3-5.8,6-5.8c2.4,0,3.6,2.1,4.9,4.8c1.1,2.1,1.6,2.6,3.5,2.6
			C522.5,336,522.9,336.6,522.9,337.3z M515.5,336.1l-0.1-0.2c-1-2.3-1.8-3.4-2.5-3.4c-0.7,0-1.5,1.2-2.3,2.8
			c1.2,0.8,2.5,1.4,3.5,1.4C514.8,336.7,515.2,336.4,515.5,336.1z"/>
		<path class="st10" d="M543.1,337.3c0,1.5-0.5,2.7-2.1,2.7c-5.2,0-7-1.3-8.3-3.5l-1.2,0.6c-4.4,2.2-7.3,2.9-10.8,2.9l0.9-4
			c3.2,0,5.1-0.4,8.8-1.7c1-0.4,1.8-0.6,2.5-0.9c-0.3-0.1-0.7-0.3-1.1-0.5c-2.6-1.2-4-1.6-5.3-1.6c-1.4,0-2.6,0.3-3.7,0.6l-0.2-0.1
			l1.4-3.6c0.7-0.4,1.9-0.7,2.9-0.7c1.1,0,2.4,0.4,4.9,1.5c3.4,1.5,5.4,2,7.6,2.1l-0.7,3.6c-0.9,0-1.7,0.1-2.7,0.4
			c1,0.6,2.6,0.8,5.8,0.8C542.8,336,543.1,336.6,543.1,337.3z"/>
		<path class="st10" d="M556,335.8c0,2.7-1.3,4.6-3.7,4.6c-1.6,0-3.9-0.5-6.3-2.2c-1.3,1.5-2.9,1.8-5.1,1.8l0.9-4
			c1.2,0,1.7-0.4,2.7-2.3c1.1-2,2.9-5.1,5.7-5.1C553.2,328.7,556,332.1,556,335.8z M552.6,336.2c-0.1-1.3-1.2-3.7-2.4-3.7
			c-0.8,0-1.5,1.2-2.3,2.7c1.3,0.8,2.6,1.3,3.5,1.3C551.7,336.5,552.1,336.4,552.6,336.2z"/>
		<path class="st10" d="M565.9,339.3c0-1.1,0.3-3,0.6-3.9l2.9-1.1l0.4,0.1c-0.2,0.8-0.2,2-0.2,3c0,2.9,1.5,4.5,5,4.5
			c2.4,0,4.3-0.6,5.3-2c0.2-1.2,0.3-2.4,0.3-4.3v-16.9l3.7-1l0.3,0.2l0,17.4c0,7.2-4.3,10.5-10.5,10.5
			C568.8,346,565.9,343.3,565.9,339.3z"/>
		<path class="st10" d="M589,315.7c-0.7,0-1.5,0.2-2.4,0.8l-1.2-1.8c1.2-1.1,2.2-1.5,3.2-1.5c1.4,0,2.8,0.8,4.4,0.8
			c0.5,0,1-0.1,1.5-0.3l0.7,2.1c-0.8,0.4-1.6,0.6-2.3,0.6C591.4,316.5,590.4,315.7,589,315.7z M588.1,340v-21.2l3.7-1l0.3,0.2
			l-0.1,21.4l-3.7,0.8L588.1,340z"/>
		<path class="st10" d="M602.5,339.2c0-1.2,0.3-2.5,0.5-3.6l3.3-1.1l0.4,0.2c-0.3,1.3-0.4,2-0.4,2.8c0,2.8,1.5,4.6,6.5,4.6
			c3.8,0,7.6-0.7,8.6-1.9c0-0.7-0.8-1.6-5.2-2.5l1.1-3.4c6.1,1.4,7.6,3,7.6,5c-0.2,4.3-5.7,6.8-12.8,6.8
			C605.5,346,602.5,343,602.5,339.2z"/>
		<path class="st10" d="M634.5,336.9c0,1.5-0.5,2.7-2.1,2.7c-2.6,0-4.4-1.2-5.3-3.5c-1.6,0.8-3.8,1.2-7.2,1.3l-2.6-3.3
			c3.4-0.1,7.1-0.6,8.5-1.2c0.2-0.6,0.3-1.6,0.3-2.4v-12l3.7-1l0.3,0.2v13c0,3.1,0.5,5,3.2,5C634.2,335.7,634.5,336.2,634.5,336.9z"
			/>
		<path class="st10" d="M647.7,335.2l-1.2,3.6c-2.5,0.5-6.4,0.8-14.2,0.8l0.9-4h2.3c-0.5-1-0.8-2-0.8-3.1c0-4,3-6.2,6.7-6.2
			c1.5,0,3.2,0.4,4.6,1l-0.4,3.4l-0.1,0.1c-1-0.3-2.3-0.6-3.3-0.6c-1.9,0-3,0.9-3,2.7c0,0.8,0.4,1.8,1.1,2.7c2.6-0.1,5-0.3,7.2-0.5
			L647.7,335.2z"/>
		<path class="st10" d="M661.5,336.8c0,4.4-3.4,8.8-10.6,8.9l-1.9-3l0.2-0.4c4.4-0.1,7.4-1.3,8.5-3.4c-0.8,0.1-1.6,0.2-2.6,0.2
			c-3,0-4.4-1.5-4.4-3.8c0-3,2.3-6.6,5.3-6.6C659.4,328.7,661.5,332.4,661.5,336.8z M656,335.6c0.8,0,1.5-0.1,2.2-0.2
			c-0.3-1.6-1.2-3-2.4-3c-1.1,0-2,1.2-2,2.2C653.8,335.3,654.5,335.6,656,335.6z"/>
		<path class="st10" d="M688,337.3c0,1.5-0.5,2.7-2.2,2.7c-2,0-3.4-0.4-4.3-1.5c-1.5,1.1-3.9,1.8-6.6,1.8c-0.8,0-2.6-0.1-3.7-0.4
			l0.6-3.9l0.2-0.1c1.1,0.2,2.5,0.3,3.3,0.3c1.5,0,3.4-0.2,4.6-0.7c-0.7-1.3-2.4-4.7-3.7-7.2l2.9-3.3h0.4c0.8,2,2.9,6.9,3.4,8
			c1.1,2.7,1.8,3,3.9,3C687.7,336,688,336.6,688,337.3z"/>
		<path class="st10" d="M705,337.3c0,1.6-0.7,2.7-2.2,2.7c-1.4,0-2.4-0.3-3.3-1.1c-0.6,1-1.5,1.5-2.7,1.5c-1.4,0-3.5-0.7-5.7-2.2
			c-1.3,1.6-2.9,1.8-5.3,1.8l0.9-4c1.4,0,1.8-0.2,2.6-1.5c1.8-3,3.3-5.8,6-5.8c2.4,0,3.6,2.1,4.9,4.8c1.1,2.1,1.6,2.6,3.5,2.6
			C704.7,336,705,336.6,705,337.3z M697.7,336.1l-0.1-0.2c-1-2.3-1.8-3.4-2.5-3.4c-0.7,0-1.5,1.2-2.3,2.8c1.2,0.8,2.5,1.4,3.5,1.4
			C697,336.7,697.4,336.4,697.7,336.1z"/>
		<path class="st10" d="M725.2,337.3c0,1.5-0.5,2.7-2.1,2.7c-5.2,0-7-1.3-8.3-3.5l-1.2,0.6c-4.4,2.2-7.3,2.9-10.8,2.9l0.9-4
			c3.2,0,5.1-0.4,8.8-1.7c1-0.4,1.8-0.6,2.5-0.9c-0.3-0.1-0.7-0.3-1.1-0.5c-2.6-1.2-4-1.6-5.3-1.6c-1.4,0-2.6,0.3-3.7,0.6l-0.2-0.1
			l1.4-3.6c0.7-0.4,1.9-0.7,2.9-0.7c1.1,0,2.4,0.4,4.9,1.5c3.4,1.5,5.4,2,7.6,2.1l-0.7,3.6c-0.9,0-1.7,0.1-2.7,0.4
			c1,0.6,2.6,0.8,5.8,0.8C724.9,336,725.2,336.6,725.2,337.3z"/>
		<path class="st10" d="M738.2,335.8c0,2.7-1.3,4.6-3.7,4.6c-1.6,0-3.9-0.5-6.3-2.2c-1.3,1.5-2.9,1.8-5.1,1.8l0.9-4
			c1.2,0,1.7-0.4,2.7-2.3c1.1-2,2.9-5.1,5.7-5.1C735.3,328.7,738.2,332.1,738.2,335.8z M734.7,336.2c-0.1-1.3-1.2-3.7-2.4-3.7
			c-0.8,0-1.5,1.2-2.3,2.7c1.3,0.8,2.6,1.3,3.5,1.3C733.9,336.5,734.3,336.4,734.7,336.2z"/>
		<path class="st10" d="M748.1,339.2c0-1.2,0.3-2.5,0.5-3.6l3.3-1.1l0.4,0.2c-0.3,1.3-0.4,2-0.4,2.8c0,2.8,1.5,4.6,6.5,4.6
			c3.8,0,7.6-0.7,8.6-1.9c0-0.7-0.8-1.6-5.2-2.5l1.1-3.4c6.1,1.4,7.6,3,7.6,5c-0.2,4.3-5.7,6.8-12.8,6.8
			C751.2,346,748.1,343,748.1,339.2z"/>
		<path class="st10" d="M780.1,336.9c0,1.5-0.5,2.7-2.1,2.7c-2.6,0-4.4-1.2-5.3-3.5c-1.6,0.8-3.8,1.2-7.2,1.3l-2.6-3.3
			c3.4-0.1,7.1-0.6,8.5-1.2c0.2-0.6,0.3-1.6,0.3-2.4v-12l3.7-1l0.3,0.2v13c0,3.1,0.5,5,3.2,5C779.9,335.7,780.1,336.2,780.1,336.9z"
			/>
		<path class="st10" d="M793.4,335.2l-1.2,3.6c-2.5,0.5-6.4,0.8-14.2,0.8l0.9-4h2.3c-0.5-1-0.8-2-0.8-3.1c0-4,3-6.2,6.7-6.2
			c1.5,0,3.2,0.4,4.6,1l-0.4,3.4l-0.1,0.1c-1-0.3-2.3-0.6-3.3-0.6c-1.9,0-3,0.9-3,2.7c0,0.8,0.4,1.8,1.1,2.7c2.6-0.1,5-0.3,7.2-0.5
			L793.4,335.2z"/>
		<path class="st10" d="M825.8,337.3c0,1.5-0.5,2.7-2.1,2.7c-1.1,0-2-0.3-2.8-0.8c-1.3,4.5-5,6.7-10,6.7c-4.9,0-7.8-2.6-7.8-6.7
			c0-1.3,0.3-2.6,0.6-3.9l2.9-1.1l0.4,0.1c-0.2,0.8-0.2,2-0.2,3c0,2.9,1.5,4.5,5,4.5c2.4,0,4.3-0.6,5.3-2c0.2-1.2,0.3-2.4,0.3-4.3
			v-16.9l3.7-1l0.3,0.2v15.2c0,2.5,0.7,2.8,3.1,2.8C825.5,336,825.8,336.6,825.8,337.3z"/>
		<path class="st10" d="M849.4,333.7c0,2-1.1,3.7-2.2,4.6c-1.9,1.5-4.1,1.7-8.6,1.7h-3.4c-3.4,0-5.2-0.1-7.3-1c-1.1,0.7-2.4,1-4.3,1
			l0.9-4c0.7,0,1.6-0.1,2.1-0.3c0.3-0.7,0.5-1.8,0.8-3.3l4.3-0.6l0.1,0.1c-0.5,1.5-0.9,2.7-1.4,3.7c0.7,0.2,1.6,0.3,2.6,0.3
			c5.4-5.2,8.7-7.9,11.6-7.9C847.7,328,849.4,331.1,849.4,333.7z M846.2,334.3c0-1.1-0.8-2.5-2.1-2.5c-1.5,0-4,1.5-7.1,4.2h3.1
			c3.8,0,5-0.1,5.8-0.4C846.1,335.3,846.2,334.9,846.2,334.3z"/>
		<path class="st10" d="M878.2,337.3c0,1.8-0.8,2.7-2.2,2.7c-1.4,0-2.4-0.3-3.3-1.2c-0.7,1-1.5,1.6-2.7,1.6c-1.9,0-4.1-1.2-6.5-3.8
			l-0.5,0.8c-0.2,2.2,0.8,8.3,1.5,12.5l-3.4,1.6l-0.3-0.2c-0.8-4.1-1.5-9.2-1.5-11.2c0-3,0.7-5.1,2.2-6.9c2-2.4,4.9-4.6,7.1-4.6
			c2.3,0,3.3,1.9,4.8,4.8c1.1,2,1.4,2.6,3.5,2.6C877.7,336,878.2,336.5,878.2,337.3z M870.8,336c0-0.1,0-0.1-0.1-0.2
			c-1.1-2.4-1.9-3.4-2.6-3.4c-0.7,0-1.7,0.7-2.7,1.7c1.5,1.6,2.9,2.5,4,2.5C870.1,336.7,870.5,336.4,870.8,336z"/>
		<path class="st10" d="M893.1,337.3c0,1.8-0.7,2.7-2.1,2.7h-1.9c0.5,0.7,0.7,1.5,0.7,2.3c0,2.5-2.2,4.1-4.9,4.1
			c-3.9,0-6.5-2.3-7-6.4h-2l0.9-4h1.3c0.6-2.8,2-5.8,3.9-8l2.6-1.5l0.3,0c3,2.2,4.4,4.1,4.4,6c0,1.2-0.7,2.8-1.6,3.5h4.1
			C892.7,336,893.1,336.5,893.1,337.3z M883,339.7c-0.4,0-0.9,0.1-1.4,0.2c0.4,1.9,1.9,3,3.8,3c0.6,0,1.1-0.2,1.4-0.4
			C886.8,341.2,885.3,339.7,883,339.7z M881.7,336.3c2.2-0.2,3.7-1.3,3.7-3.3c0-0.9-0.4-1.7-1.3-2.7
			C882.9,332.1,882.1,334.2,881.7,336.3z"/>
		<path class="st10" d="M903.1,337.3c0,1.5-0.5,2.7-2.1,2.7c-1.2,0-2.9-0.3-4-1.8c-1.1,1.4-2.8,1.8-5.9,1.8l0.9-4
			c0.9,0,1.9-0.1,2.6-0.4c0.1-0.5,0.2-1.2,0.2-2.4v-14.4l3.7-1l0.3,0.2v15.2c0,2.5,0.7,2.8,3.2,2.8
			C902.7,336,903.1,336.6,903.1,337.3z"/>
		<path class="st10" d="M901.8,336c0.9,0,1.9-0.1,2.6-0.4c0.1-0.5,0.2-1.2,0.2-2.4v-14.4l3.7-1l0.3,0.2v15c0,5.6-2.9,7-7.6,7
			L901.8,336z"/>
		<path class="st10" d="M912.5,340v-21.2l3.7-1l0.3,0.2l-0.1,21.4l-3.7,0.8L912.5,340z"/>
		<path class="st10" d="M919.1,326.9c0.7-1.1,1.5-2.1,1.5-3c0-0.4-0.1-0.7-0.4-0.9c-0.6-0.5-1-1-1-1.9c0-1.1,0.8-2.2,2.3-2.2
			s2.4,1.1,2.4,2.5c0,2.5-1.3,4.6-3,6.6L919.1,326.9z M924.9,326.9c0.7-1.1,1.5-2.1,1.5-3c0-0.4-0.1-0.7-0.4-0.9c-0.6-0.5-1-1-1-1.9
			c0-1.1,0.8-2.2,2.3-2.2s2.4,1.1,2.4,2.5c0,2.5-1.3,4.6-3,6.6L924.9,326.9z"/>
		<path class="st10" d="M457.7,379.2c0-2.4,1.3-4.7,3.2-7l2,1.2c-0.9,1.2-1.7,2.5-1.7,3.4c0,1.3,1.6,1.1,1.6,3
			c0,1.2-0.9,2.5-2.5,2.5C458.7,382.3,457.7,381.1,457.7,379.2z M457.7,387.9c0-1.3,1.2-2.5,2.6-2.5c1.4,0,2.6,1.2,2.6,2.5
			c0,1.4-1.2,2.6-2.6,2.6C458.9,390.4,457.7,389.3,457.7,387.9z"/>
		<path class="st10" d="M484.1,387.3c0,1.8-0.8,2.7-2.2,2.7c-1.4,0-2.4-0.3-3.3-1.2c-0.7,1-1.5,1.6-2.7,1.6c-1.9,0-4.1-1.2-6.5-3.8
			l-0.5,0.8c-0.2,2.2,0.8,8.3,1.5,12.5l-3.4,1.6l-0.3-0.2c-0.8-4.1-1.5-9.2-1.5-11.2c0-3,0.7-5.1,2.2-6.9c2-2.4,4.9-4.6,7.1-4.6
			c2.3,0,3.3,1.9,4.8,4.8c1.1,2,1.4,2.6,3.5,2.6C483.6,386,484.1,386.5,484.1,387.3z M476.8,386c0-0.1,0-0.1-0.1-0.2
			c-1.1-2.4-1.9-3.4-2.6-3.4c-0.7,0-1.7,0.7-2.7,1.7c1.5,1.6,2.9,2.5,4,2.5C476,386.7,476.4,386.4,476.8,386z"/>
		<path class="st10" d="M495.6,387.3c0,1.5-0.5,2.7-2.1,2.7c-2.4,0-4.6-0.5-5.8-1.5c-1.2,1-2.6,1.5-4.7,1.5h-1.1l0.9-4h0.7
			c0.8,0,1.8-0.1,2.2-0.4c0.3-0.8,0.7-2.4,1.1-4.5l4.1-1l0.3,0.2c-0.4,1.9-0.9,3.6-1.5,5c0.9,0.4,2.4,0.6,4.5,0.6
			C495.3,386,495.6,386.6,495.6,387.3z M489.4,392.3l3.3,2.2l-2,3.1l-3.1-2.2l-1.5,2.2l-3.3-2.3l2-3l3.2,2.2L489.4,392.3z"/>
		<path class="st10" d="M509.8,386.2c0,2.7-1.9,4-5,4c-1.9,0-3.5-0.4-4.9-1c-1.2,0.5-2.7,0.9-4.5,0.9h-1.9l0.6-4h2.3
			c-0.5-0.8-0.7-1.8-0.7-2.7c0-1.5,0.7-3.2,1.9-4.2c-0.5-0.3-1-0.4-1.4-0.6l1.2-3.4l0.3-0.1C502.4,377.7,509.8,382.2,509.8,386.2z
			 M501.2,383.1c0-1.3-0.6-2.3-1.3-2.3c-0.7,0-1.3,0.9-1.3,2.2c0,1.1,0.4,2,1.5,2.7C500.7,385.1,501.2,384.3,501.2,383.1z
			 M506.8,386.4c-0.3-0.9-1.4-2-2.8-3.1c-0.1,1.1-0.4,2.3-1.1,3.3c0.5,0.1,1.2,0.1,1.8,0.1C505.7,386.7,506.6,386.5,506.8,386.4z"/>
		<path class="st10" d="M513,390v-21.2l3.7-1l0.3,0.2l-0.1,21.4l-3.7,0.8L513,390z"/>
		<path class="st10" d="M532.6,387.3c0,1.5-0.5,2.7-2.1,2.7c-1.1,0-1.9-0.2-2.6-0.5c-1.2,3.2-4.9,5.5-9.6,6.3l-2.1-2.9l0.2-0.3
			c5-0.9,8-3,9-5c-0.7-1.6-1.5-3.4-2.4-5.1l2.8-3.3h0.4l1.4,3.9c0.9,2.5,1.6,2.8,3.7,2.8C532.3,386,532.6,386.6,532.6,387.3z"/>
		<path class="st10" d="M531.3,386h0.3c1.2,0,2.6-0.1,3.1-0.3c0.2-1.2-0.8-3.4-1.8-5.5l3.2-2.6h0.3c1.1,2.3,1.8,5.1,1.8,6.6
			c0,1.7-0.6,3.1-1.7,4.3c-1.1,1-2.5,1.4-5.7,1.4h-0.4L531.3,386z M532.4,395.5l2.1-3.1l3.4,2.3l-2.1,3.2L532.4,395.5z"/>
		<path class="st10" d="M547.1,398.5c-1.6,0.2-3.7,0.4-6.2,0.4l-0.2-2.3c0.4,0,1,0,1.4,0c-0.4-0.6-0.7-1.3-0.7-2
			c0-1.6,1-2.8,2.8-2.8c0.7,0,1.5,0.2,2.4,0.5l-0.5,2.1c-0.6-0.2-1-0.3-1.4-0.3c-0.7,0-1.1,0.4-1.1,1c0,0.5,0.2,0.9,0.6,1.3
			c0.9-0.1,1.9-0.1,2.7-0.2L547.1,398.5z M542.2,390.2l-0.3-0.2v-21.2l3.7-1l0.3,0.2l-0.1,21.4L542.2,390.2z"/>
		<path class="st10" d="M556.3,389.3c0-1.1,0.3-3,0.6-3.9l2.9-1.1l0.4,0.1c-0.2,0.8-0.2,2-0.2,3c0,2.9,1.5,4.5,5,4.5
			c2.4,0,4.3-0.6,5.3-2c0.2-1.2,0.3-2.4,0.3-4.3v-16.9l3.7-1l0.3,0.2l0,17.4c0,7.2-4.3,10.5-10.5,10.5
			C559.2,396,556.3,393.3,556.3,389.3z"/>
		<path class="st10" d="M579.4,365.7c-0.7,0-1.5,0.2-2.4,0.8l-1.2-1.8c1.2-1.1,2.2-1.5,3.2-1.5c1.4,0,2.8,0.8,4.4,0.8
			c0.5,0,1-0.1,1.5-0.3l0.7,2.1c-0.8,0.4-1.6,0.6-2.3,0.6C581.8,366.5,580.8,365.7,579.4,365.7z M578.5,390v-21.2l3.7-1l0.3,0.2
			l-0.1,21.4l-3.7,0.8L578.5,390z"/>
		<path class="st10" d="M592.8,389.2c0-1.2,0.3-2.5,0.5-3.6l3.3-1.1l0.4,0.2c-0.3,1.3-0.4,2-0.4,2.8c0,2.8,1.5,4.6,6.5,4.6
			c3.8,0,7.6-0.7,8.6-1.9c0-0.7-0.8-1.6-5.2-2.5l1.1-3.4c6.1,1.4,7.6,3,7.6,5c-0.2,4.3-5.7,6.8-12.8,6.8
			C595.9,396,592.8,393,592.8,389.2z"/>
		<path class="st10" d="M624.8,386.9c0,1.5-0.5,2.7-2.1,2.7c-2.6,0-4.4-1.2-5.3-3.5c-1.6,0.8-3.8,1.2-7.2,1.3l-2.6-3.3
			c3.4-0.1,7.1-0.6,8.5-1.2c0.2-0.6,0.3-1.6,0.3-2.4v-12l3.7-1l0.3,0.2v13c0,3.1,0.5,5,3.2,5C624.6,385.7,624.8,386.2,624.8,386.9z"
			/>
		<path class="st10" d="M638.1,385.2l-1.2,3.6c-2.5,0.5-6.4,0.8-14.2,0.8l0.9-4h2.3c-0.5-1-0.8-2-0.8-3.1c0-4,3-6.2,6.7-6.2
			c1.5,0,3.2,0.4,4.6,1l-0.4,3.4l-0.1,0.1c-1-0.3-2.3-0.6-3.3-0.6c-1.9,0-3,0.9-3,2.7c0,0.8,0.4,1.8,1.1,2.7c2.6-0.1,5-0.3,7.2-0.5
			L638.1,385.2z"/>
		<path class="st10" d="M651.8,386.8c0,4.4-3.4,8.8-10.6,8.9l-1.9-3l0.2-0.4c4.4-0.1,7.4-1.3,8.5-3.4c-0.8,0.1-1.6,0.2-2.6,0.2
			c-3,0-4.4-1.5-4.4-3.8c0-3,2.3-6.6,5.3-6.6C649.8,378.7,651.8,382.4,651.8,386.8z M646.3,385.6c0.8,0,1.5-0.1,2.2-0.2
			c-0.3-1.6-1.2-3-2.4-3c-1.1,0-2,1.2-2,2.2C644.2,385.3,644.8,385.6,646.3,385.6z"/>
		<path class="st10" d="M680.8,387.3c0,1.8-0.8,2.7-2.2,2.7c-1.4,0-2.4-0.3-3.3-1.2c-0.7,1-1.5,1.6-2.7,1.6c-1.9,0-4.1-1.2-6.5-3.8
			l-0.5,0.8c-0.2,2.2,0.8,8.3,1.5,12.5l-3.4,1.6l-0.3-0.2c-0.8-4.1-1.5-9.2-1.5-11.2c0-3,0.7-5.1,2.2-6.9c2-2.4,4.9-4.6,7.1-4.6
			c2.3,0,3.3,1.9,4.8,4.8c1.1,2,1.4,2.6,3.5,2.6C680.3,386,680.8,386.5,680.8,387.3z M673.5,386c0-0.1,0-0.1-0.1-0.2
			c-1.1-2.4-1.9-3.4-2.6-3.4c-0.7,0-1.7,0.7-2.7,1.7c1.5,1.6,2.9,2.5,4,2.5C672.8,386.7,673.2,386.4,673.5,386z"/>
		<path class="st10" d="M692.3,387.3c0,1.5-0.5,2.7-2.1,2.7c-2.4,0-4.6-0.5-5.8-1.5c-1.2,1-2.6,1.5-4.7,1.5h-1.1l0.9-4h0.7
			c0.8,0,1.8-0.1,2.2-0.4c0.3-0.8,0.7-2.4,1.1-4.5l4.1-1l0.3,0.2c-0.4,1.9-0.9,3.6-1.5,5c0.9,0.4,2.4,0.6,4.5,0.6
			C692,386,692.3,386.6,692.3,387.3z M686.1,392.3l3.3,2.2l-2,3.1l-3.1-2.2l-1.5,2.2l-3.3-2.3l2-3l3.2,2.2L686.1,392.3z"/>
		<path class="st10" d="M706.5,386.2c0,2.7-1.9,4-5,4c-1.9,0-3.5-0.4-4.9-1c-1.2,0.5-2.7,0.9-4.5,0.9h-1.9l0.6-4h2.3
			c-0.5-0.8-0.7-1.8-0.7-2.7c0-1.5,0.7-3.2,1.9-4.2c-0.5-0.3-1-0.4-1.4-0.6l1.2-3.4l0.3-0.1C699.2,377.7,706.5,382.2,706.5,386.2z
			 M697.9,383.1c0-1.3-0.6-2.3-1.3-2.3c-0.7,0-1.3,0.9-1.3,2.2c0,1.1,0.4,2,1.5,2.7C697.4,385.1,697.9,384.3,697.9,383.1z
			 M703.6,386.4c-0.3-0.9-1.4-2-2.8-3.1c-0.1,1.1-0.4,2.3-1.1,3.3c0.5,0.1,1.2,0.1,1.8,0.1C702.4,386.7,703.3,386.5,703.6,386.4z"/>
		<path class="st10" d="M709.7,390v-21.2l3.7-1l0.3,0.2l-0.1,21.4l-3.7,0.8L709.7,390z"/>
		<path class="st10" d="M729.4,387.3c0,1.5-0.5,2.7-2.1,2.7c-1.1,0-1.9-0.2-2.6-0.5c-1.2,3.2-4.9,5.5-9.6,6.3l-2.1-2.9l0.2-0.3
			c5-0.9,8-3,9-5c-0.7-1.6-1.5-3.4-2.4-5.1l2.8-3.3h0.4l1.4,3.9c0.9,2.5,1.6,2.8,3.7,2.8C729,386,729.4,386.6,729.4,387.3z"/>
		<path class="st10" d="M728.1,386h0.3c1.2,0,2.6-0.1,3.1-0.3c0.2-1.2-0.8-3.4-1.8-5.5l3.2-2.6h0.3c1.1,2.3,1.8,5.1,1.8,6.6
			c0,1.7-0.6,3.1-1.7,4.3c-1.1,1-2.5,1.4-5.7,1.4h-0.4L728.1,386z M729.1,395.5l2.1-3.1l3.4,2.3l-2.1,3.2L729.1,395.5z"/>
		<path class="st10" d="M743.9,398.5c-1.6,0.2-3.7,0.4-6.2,0.4l-0.2-2.3c0.4,0,1,0,1.4,0c-0.4-0.6-0.7-1.3-0.7-2
			c0-1.6,1-2.8,2.8-2.8c0.7,0,1.5,0.2,2.4,0.5l-0.5,2.1c-0.6-0.2-1-0.3-1.4-0.3c-0.7,0-1.1,0.4-1.1,1c0,0.5,0.2,0.9,0.6,1.3
			c0.9-0.1,1.9-0.1,2.7-0.2L743.9,398.5z M738.9,390.2l-0.3-0.2v-21.2l3.7-1l0.3,0.2l-0.1,21.4L738.9,390.2z"/>
		<path class="st10" d="M753,389.2c0-1.2,0.3-2.5,0.5-3.6l3.3-1.1l0.4,0.2c-0.3,1.3-0.4,2-0.4,2.8c0,2.8,1.5,4.6,6.5,4.6
			c3.8,0,7.6-0.7,8.6-1.9c0-0.7-0.8-1.6-5.2-2.5l1.1-3.4c6.1,1.4,7.6,3,7.6,5c-0.2,4.3-5.7,6.8-12.8,6.8
			C756.1,396,753,393,753,389.2z"/>
		<path class="st10" d="M785,386.9c0,1.5-0.5,2.7-2.1,2.7c-2.6,0-4.4-1.2-5.3-3.5c-1.6,0.8-3.8,1.2-7.2,1.3l-2.6-3.3
			c3.4-0.1,7.1-0.6,8.5-1.2c0.2-0.6,0.3-1.6,0.3-2.4v-12l3.7-1l0.3,0.2v13c0,3.1,0.5,5,3.2,5C784.8,385.7,785,386.2,785,386.9z"/>
		<path class="st10" d="M798.3,385.2l-1.2,3.6c-2.5,0.5-6.4,0.8-14.2,0.8l0.9-4h2.3c-0.5-1-0.8-2-0.8-3.1c0-4,3-6.2,6.7-6.2
			c1.5,0,3.2,0.4,4.6,1l-0.4,3.4l-0.1,0.1c-1-0.3-2.3-0.6-3.3-0.6c-1.9,0-3,0.9-3,2.7c0,0.8,0.4,1.8,1.1,2.7c2.6-0.1,5-0.3,7.2-0.5
			L798.3,385.2z"/>
		<path class="st10" d="M837.2,387.3c0,1.5-0.5,2.7-2.1,2.7c-1.6,0-3.6-0.5-4.9-1.5c-0.3,0.3-0.5,0.4-0.8,0.6
			c-1.2,0.8-5.4,1.2-8.5,1.2h-2c-7.1,0-10.9-2.1-10.9-6c0-1.4,0.2-2.6,0.6-3.9l2.8-1.1l0.3,0.2c-0.2,1-0.3,1.8-0.3,2.7
			c0,3.3,2.6,4.2,8.8,4.2h1.8c2.3,0,5-0.2,6-0.5c0.4-1.2,0.9-2.9,1.2-4.8l4.1-1l0.3,0.2c-0.4,1.8-1,3.5-1.6,5
			c0.9,0.4,2.2,0.6,3.7,0.6C836.9,386,837.2,386.6,837.2,387.3z M819.6,377.4l-3.3-2.3l2-3l3.1,2.1l1.4-2.1l3.3,2.2l-2,3.1l-3.1-2.2
			L819.6,377.4z"/>
		<path class="st10" d="M848.7,387.3c0,1.5-0.5,2.7-2.1,2.7c-2.4,0-4.6-0.5-5.8-1.5c-1.2,1-2.6,1.5-4.7,1.5h-1.1l0.9-4h0.7
			c0.8,0,1.8-0.1,2.2-0.4c0.3-0.8,0.7-2.4,1.1-4.5l4.1-1l0.3,0.2c-0.4,1.9-0.9,3.6-1.5,5c0.9,0.4,2.4,0.6,4.5,0.6
			C848.5,386,848.7,386.6,848.7,387.3z M842.5,392.3l3.3,2.2l-2,3.1l-3.1-2.2l-1.5,2.2l-3.3-2.3l2-3l3.2,2.2L842.5,392.3z"/>
		<path class="st10" d="M858.7,387.3c0,1.5-0.5,2.7-2.1,2.7c-1.2,0-2.9-0.3-4-1.8c-1.1,1.4-2.8,1.8-5.9,1.8l0.9-4
			c0.9,0,1.9-0.1,2.6-0.4c0.1-0.5,0.2-1.2,0.2-2.4v-14.4l3.7-1l0.3,0.2v15.2c0,2.5,0.7,2.8,3.2,2.8
			C858.4,386,858.7,386.6,858.7,387.3z"/>
		<path class="st10" d="M882.3,383.7c0,2-1.1,3.7-2.2,4.6c-1.9,1.5-4.1,1.7-8.6,1.7h-3.4c-3.4,0-5.2-0.1-7.3-1c-1.1,0.7-2.4,1-4.3,1
			l0.9-4c0.7,0,1.6-0.1,2.1-0.3c0.3-0.7,0.5-1.8,0.8-3.3l4.3-0.6l0.1,0.1c-0.5,1.5-0.9,2.7-1.4,3.7c0.7,0.2,1.6,0.3,2.6,0.3
			c5.4-5.2,8.7-7.9,11.6-7.9C880.6,378,882.3,381.1,882.3,383.7z M879.1,384.3c0-1.1-0.8-2.5-2.1-2.5c-1.5,0-4,1.5-7.1,4.2h3.1
			c3.8,0,5-0.1,5.8-0.4C879,385.3,879.1,384.9,879.1,384.3z"/>
		<path class="st10" d="M892.9,383.5v-14.7l3.7-1l0.3,0.2v15.2c0,2.2,0.9,2.8,3.2,2.8c0.9,0,1.3,0.5,1.3,1.3c0,1.6-0.6,2.7-2.1,2.7
			C895,390,892.9,388.1,892.9,383.5z"/>
		<path class="st10" d="M918.4,387.3c0,1.6-0.7,2.7-2.2,2.7c-1.4,0-2.4-0.3-3.3-1.1c-0.6,1-1.5,1.5-2.7,1.5c-1.4,0-3.5-0.7-5.7-2.2
			c-1.3,1.6-2.9,1.8-5.3,1.8l0.9-4c1.4,0,1.8-0.2,2.6-1.5c1.8-3,3.3-5.8,6-5.8c2.4,0,3.6,2.1,4.9,4.8c1.1,2.1,1.6,2.6,3.5,2.6
			C918.1,386,918.4,386.6,918.4,387.3z M911.1,386.1l-0.1-0.2c-1-2.3-1.8-3.4-2.5-3.4c-0.7,0-1.5,1.2-2.3,2.8
			c1.2,0.8,2.5,1.4,3.5,1.4C910.4,386.7,910.8,386.4,911.1,386.1z"/>
		<path class="st10" d="M929.1,373.9l-6.8,3.4c5.2,3.5,6.1,5.4,6.1,7.2c0,3.2-2.4,5.5-9,5.5h-3.2l0.9-4h2.1c2.5,0,5.1-0.4,5.9-0.8
			c0-1.5-3.7-4-6.8-5.9l-0.2-0.2l0.9-4.5l11.1-5.7l0.3,0.2L929.1,373.9z"/>
		<path class="st10" d="M540.4,437.1c0-2.4,1.3-4.7,3.2-7l2,1.2c-0.9,1.2-1.7,2.5-1.7,3.4c0,1.3,1.6,1.1,1.6,3
			c0,1.2-0.9,2.5-2.5,2.5C541.4,440.2,540.4,439,540.4,437.1z"/>
		<path class="st10" d="M564.3,437.3c0,1.5-0.5,2.7-2.2,2.7c-2,0-3.4-0.4-4.3-1.5c-1.5,1.1-3.9,1.8-6.6,1.8c-0.8,0-2.6-0.1-3.7-0.4
			l0.6-3.9l0.2-0.1c1.1,0.2,2.5,0.3,3.3,0.3c1.5,0,3.4-0.2,4.6-0.7c-0.7-1.3-2.4-4.7-3.7-7.2l2.9-3.3h0.4c0.8,2,2.9,6.9,3.4,8
			c1.1,2.7,1.8,3,3.9,3C564,436,564.3,436.6,564.3,437.3z"/>
		<path class="st10" d="M581.4,437.3c0,1.6-0.7,2.7-2.2,2.7c-1.4,0-2.4-0.3-3.3-1.1c-0.6,1-1.5,1.5-2.7,1.5c-1.4,0-3.5-0.7-5.7-2.2
			c-1.3,1.6-2.9,1.8-5.3,1.8l0.9-4c1.4,0,1.8-0.2,2.6-1.5c1.8-3,3.3-5.8,6-5.8c2.4,0,3.6,2.1,4.9,4.8c1.1,2.1,1.6,2.6,3.5,2.6
			C581,436,581.4,436.6,581.4,437.3z M574.1,436.1l-0.1-0.2c-1-2.3-1.8-3.4-2.5-3.4c-0.7,0-1.5,1.2-2.3,2.8c1.2,0.8,2.5,1.4,3.5,1.4
			C573.3,436.7,573.7,436.4,574.1,436.1z"/>
		<path class="st10" d="M601.6,437.3c0,1.5-0.5,2.7-2.1,2.7c-5.2,0-7-1.3-8.3-3.5l-1.2,0.6c-4.4,2.2-7.3,2.9-10.8,2.9l0.9-4
			c3.2,0,5.1-0.4,8.8-1.7c1-0.4,1.8-0.6,2.5-0.9c-0.3-0.1-0.7-0.3-1.1-0.5c-2.6-1.2-4-1.6-5.3-1.6c-1.4,0-2.6,0.3-3.7,0.6l-0.2-0.1
			l1.4-3.6c0.7-0.4,1.9-0.7,2.9-0.7c1.1,0,2.4,0.4,4.9,1.5c3.4,1.5,5.4,2,7.6,2.1l-0.7,3.6c-0.9,0-1.7,0.1-2.7,0.4
			c1,0.6,2.6,0.8,5.8,0.8C601.3,436,601.6,436.6,601.6,437.3z"/>
		<path class="st10" d="M614.5,435.8c0,2.7-1.3,4.6-3.7,4.6c-1.6,0-3.9-0.5-6.3-2.2c-1.3,1.5-2.9,1.8-5.1,1.8l0.9-4
			c1.2,0,1.7-0.4,2.7-2.3c1.1-2,2.9-5.1,5.7-5.1C611.7,428.7,614.5,432.1,614.5,435.8z M611.1,436.2c-0.1-1.3-1.2-3.7-2.4-3.7
			c-0.8,0-1.5,1.2-2.3,2.7c1.3,0.8,2.6,1.3,3.5,1.3C610.2,436.5,610.7,436.4,611.1,436.2z"/>
		<path class="st10" d="M624.4,439.3c0-1.1,0.3-3,0.6-3.9l2.9-1.1l0.4,0.1c-0.2,0.8-0.2,2-0.2,3c0,2.9,1.5,4.5,5,4.5
			c2.4,0,4.3-0.6,5.3-2c0.2-1.2,0.3-2.4,0.3-4.3v-16.9l3.7-1l0.3,0.2l0,17.4c0,7.2-4.3,10.5-10.5,10.5
			C627.3,446,624.4,443.3,624.4,439.3z"/>
		<path class="st10" d="M647.5,415.7c-0.7,0-1.5,0.2-2.4,0.8l-1.2-1.8c1.2-1.1,2.2-1.5,3.2-1.5c1.4,0,2.8,0.8,4.4,0.8
			c0.5,0,1-0.1,1.5-0.3l0.7,2.1c-0.8,0.4-1.6,0.6-2.3,0.6C650,416.5,648.9,415.7,647.5,415.7z M646.6,440v-21.2l3.7-1l0.3,0.2
			l-0.1,21.4l-3.7,0.8L646.6,440z"/>
		<path class="st10" d="M661,439.2c0-1.2,0.3-2.5,0.5-3.6l3.3-1.1l0.4,0.2c-0.3,1.3-0.4,2-0.4,2.8c0,2.8,1.5,4.6,6.5,4.6
			c3.8,0,7.6-0.7,8.6-1.9c0-0.7-0.8-1.6-5.2-2.5l1.1-3.4c6.1,1.4,7.6,3,7.6,5c-0.2,4.3-5.7,6.8-12.8,6.8
			C664.1,446,661,443,661,439.2z"/>
		<path class="st10" d="M693,436.9c0,1.5-0.5,2.7-2.1,2.7c-2.6,0-4.4-1.2-5.3-3.5c-1.6,0.8-3.8,1.2-7.2,1.3l-2.6-3.3
			c3.4-0.1,7.1-0.6,8.5-1.2c0.2-0.6,0.3-1.6,0.3-2.4v-12l3.7-1l0.3,0.2v13c0,3.1,0.5,5,3.2,5C692.8,435.7,693,436.2,693,436.9z"/>
		<path class="st10" d="M706.3,435.2l-1.2,3.6c-2.5,0.5-6.4,0.8-14.2,0.8l0.9-4h2.3c-0.5-1-0.8-2-0.8-3.1c0-4,3-6.2,6.7-6.2
			c1.5,0,3.2,0.4,4.6,1l-0.4,3.4l-0.1,0.1c-1-0.3-2.3-0.6-3.3-0.6c-1.9,0-3,0.9-3,2.7c0,0.8,0.4,1.8,1.1,2.7c2.6-0.1,5-0.3,7.2-0.5
			L706.3,435.2z"/>
		<path class="st10" d="M720,436.8c0,4.4-3.4,8.8-10.6,8.9l-1.9-3l0.2-0.4c4.4-0.1,7.4-1.3,8.5-3.4c-0.8,0.1-1.6,0.2-2.6,0.2
			c-3,0-4.4-1.5-4.4-3.8c0-3,2.3-6.6,5.3-6.6C717.9,428.7,720,432.4,720,436.8z M714.5,435.6c0.8,0,1.5-0.1,2.2-0.2
			c-0.3-1.6-1.2-3-2.4-3c-1.1,0-2,1.2-2,2.2C712.4,435.3,713,435.6,714.5,435.6z"/>
		<path class="st10" d="M746.5,437.3c0,1.5-0.5,2.7-2.2,2.7c-2,0-3.4-0.4-4.3-1.5c-1.5,1.1-3.9,1.8-6.6,1.8c-0.8,0-2.6-0.1-3.7-0.4
			l0.6-3.9l0.2-0.1c1.1,0.2,2.5,0.3,3.3,0.3c1.5,0,3.4-0.2,4.6-0.7c-0.7-1.3-2.4-4.7-3.7-7.2l2.9-3.3h0.4c0.8,2,2.9,6.9,3.4,8
			c1.1,2.7,1.8,3,3.9,3C746.2,436,746.5,436.6,746.5,437.3z"/>
		<path class="st10" d="M763.6,437.3c0,1.6-0.7,2.7-2.2,2.7c-1.4,0-2.4-0.3-3.3-1.1c-0.6,1-1.5,1.5-2.7,1.5c-1.4,0-3.5-0.7-5.7-2.2
			c-1.3,1.6-2.9,1.8-5.3,1.8l0.9-4c1.4,0,1.8-0.2,2.6-1.5c1.8-3,3.3-5.8,6-5.8c2.4,0,3.6,2.1,4.9,4.8c1.1,2.1,1.6,2.6,3.5,2.6
			C763.2,436,763.6,436.6,763.6,437.3z M756.2,436.1l-0.1-0.2c-1-2.3-1.8-3.4-2.5-3.4c-0.7,0-1.5,1.2-2.3,2.8
			c1.2,0.8,2.5,1.4,3.5,1.4C755.5,436.7,755.9,436.4,756.2,436.1z"/>
		<path class="st10" d="M783.8,437.3c0,1.5-0.5,2.7-2.1,2.7c-5.2,0-7-1.3-8.3-3.5l-1.2,0.6c-4.4,2.2-7.3,2.9-10.8,2.9l0.9-4
			c3.2,0,5.1-0.4,8.8-1.7c1-0.4,1.8-0.6,2.5-0.9c-0.3-0.1-0.7-0.3-1.1-0.5c-2.6-1.2-4-1.6-5.3-1.6c-1.4,0-2.6,0.3-3.7,0.6l-0.2-0.1
			l1.4-3.6c0.7-0.4,1.9-0.7,2.9-0.7c1.1,0,2.4,0.4,4.9,1.5c3.4,1.5,5.4,2,7.6,2.1l-0.7,3.6c-0.9,0-1.7,0.1-2.7,0.4
			c1,0.6,2.6,0.8,5.8,0.8C783.5,436,783.8,436.6,783.8,437.3z"/>
		<path class="st10" d="M796.7,435.8c0,2.7-1.3,4.6-3.7,4.6c-1.6,0-3.9-0.5-6.3-2.2c-1.3,1.5-2.9,1.8-5.1,1.8l0.9-4
			c1.2,0,1.7-0.4,2.7-2.3c1.1-2,2.9-5.1,5.7-5.1C793.9,428.7,796.7,432.1,796.7,435.8z M793.3,436.2c-0.1-1.3-1.2-3.7-2.4-3.7
			c-0.8,0-1.5,1.2-2.3,2.7c1.3,0.8,2.6,1.3,3.5,1.3C792.4,436.5,792.8,436.4,793.3,436.2z"/>
		<path class="st10" d="M806.6,439.2c0-1.2,0.3-2.5,0.5-3.6l3.3-1.1l0.4,0.2c-0.3,1.3-0.4,2-0.4,2.8c0,2.8,1.5,4.6,6.5,4.6
			c3.8,0,7.6-0.7,8.6-1.9c0-0.7-0.8-1.6-5.2-2.5l1.1-3.4c6.1,1.4,7.6,3,7.6,5c-0.2,4.3-5.7,6.8-12.8,6.8
			C809.7,446,806.6,443,806.6,439.2z"/>
		<path class="st10" d="M838.6,436.9c0,1.5-0.5,2.7-2.1,2.7c-2.6,0-4.4-1.2-5.3-3.5c-1.6,0.8-3.8,1.2-7.2,1.3l-2.6-3.3
			c3.4-0.1,7.1-0.6,8.5-1.2c0.2-0.6,0.3-1.6,0.3-2.4v-12l3.7-1l0.3,0.2v13c0,3.1,0.5,5,3.2,5C838.4,435.7,838.6,436.2,838.6,436.9z"
			/>
		<path class="st10" d="M851.9,435.2l-1.2,3.6c-2.5,0.5-6.4,0.8-14.2,0.8l0.9-4h2.3c-0.5-1-0.8-2-0.8-3.1c0-4,3-6.2,6.7-6.2
			c1.5,0,3.2,0.4,4.6,1l-0.4,3.4l-0.1,0.1c-1-0.3-2.3-0.6-3.3-0.6c-1.9,0-3,0.9-3,2.7c0,0.8,0.4,1.8,1.1,2.7c2.6-0.1,5-0.3,7.2-0.5
			L851.9,435.2z"/>
		<path class="st10" d="M885.1,418v15c0,5.2-2.5,7.4-10.6,7.4h-2c-7.1,0-10.9-2.1-10.9-6c0-1.4,0.2-2.6,0.6-3.9l2.8-1.1l0.3,0.2
			c-0.2,1-0.3,1.8-0.3,2.7c0,3.3,2.6,4.2,8.8,4.2h1.8c2.2,0,4.5-0.4,5.2-0.7c0.1-0.5,0.2-1.4,0.2-2.5v-14.3l3.7-1L885.1,418z
			 M870.5,428.8c0.5,0,1,0,1.5,0c-0.4-0.6-0.7-1.3-0.7-2c0-1.6,1.1-2.8,2.8-2.8c0.7,0,1.5,0.2,2.4,0.5l-0.5,2
			c-0.5-0.2-1-0.3-1.4-0.3c-0.7,0-1.2,0.3-1.2,1c0,0.5,0.3,1,0.7,1.4c1-0.1,1.9-0.1,2.8-0.2l0.2,2.1c-1.6,0.2-3.7,0.4-6.3,0.4
			L870.5,428.8z"/>
		<path class="st10" d="M884.6,442.9l0.2-0.3c5.2-0.9,8.9-3.4,8.9-4.5c-0.1-1.1-1.2-3.6-2.3-5.5l2.9-3.2h0.4
			c1.4,2.6,2.1,5.7,2.1,7.7c0,1.2-0.3,2.5-0.9,3.7c-1.3,2.5-5,4.5-9.2,5.2L884.6,442.9z"/>
		<path class="st10" d="M900.5,433.5v-14.7l3.7-1l0.3,0.2v15.2c0,2.2,0.9,2.8,3.2,2.8c0.9,0,1.3,0.5,1.3,1.3c0,1.6-0.6,2.7-2.1,2.7
			C902.6,440,900.5,438.1,900.5,433.5z"/>
		<path class="st10" d="M907.7,436h0.3c1.2,0,2.6-0.1,3.1-0.3c0.2-1.2-0.8-3.4-1.8-5.5l3.2-2.6h0.3c1.1,2.3,1.8,5.1,1.8,6.6
			c0,1.7-0.6,3.1-1.7,4.3c-1.1,1-2.5,1.4-5.7,1.4h-0.4L907.7,436z M908.7,445.5l2.1-3.1l3.4,2.3l-2.1,3.2L908.7,445.5z"/>
		<path class="st10" d="M928.6,436.8c0,4.4-3.4,8.8-10.6,8.9l-1.9-3l0.2-0.4c4.4-0.1,7.4-1.3,8.5-3.4c-0.8,0.1-1.6,0.2-2.6,0.2
			c-3,0-4.4-1.5-4.4-3.8c0-3,2.3-6.6,5.3-6.6C926.6,428.7,928.6,432.4,928.6,436.8z M923.1,435.6c0.8,0,1.5-0.1,2.2-0.2
			c-0.3-1.6-1.2-3-2.4-3c-1.1,0-2,1.2-2,2.2C921,435.3,921.6,435.6,923.1,435.6z"/>
		<path class="st10" d="M489.5,487.3c0,1.8-0.8,2.7-2.2,2.7c-1.4,0-2.4-0.3-3.3-1.2c-0.7,1-1.5,1.6-2.7,1.6c-1.9,0-4.1-1.2-6.5-3.8
			l-0.5,0.8c-0.2,2.2,0.8,8.3,1.5,12.5l-3.4,1.6l-0.3-0.2c-0.8-4.1-1.5-9.2-1.5-11.2c0-3,0.7-5.1,2.2-6.9c2-2.4,4.9-4.6,7.1-4.6
			c2.3,0,3.3,1.9,4.8,4.8c1.1,2,1.4,2.6,3.5,2.6C489,486,489.5,486.5,489.5,487.3z M482.2,486c0-0.1,0-0.1-0.1-0.2
			c-1.1-2.4-1.9-3.4-2.6-3.4c-0.7,0-1.7,0.7-2.7,1.7c1.5,1.6,2.9,2.5,4,2.5C481.5,486.7,481.9,486.4,482.2,486z"/>
		<path class="st10" d="M501,487.3c0,1.5-0.5,2.7-2.1,2.7c-2.4,0-4.6-0.5-5.8-1.5c-1.2,1-2.6,1.5-4.7,1.5h-1.1l0.9-4h0.7
			c0.8,0,1.8-0.1,2.2-0.4c0.3-0.8,0.7-2.4,1.1-4.5l4.1-1l0.3,0.2c-0.4,1.9-0.9,3.6-1.5,5c0.9,0.4,2.4,0.6,4.5,0.6
			C500.7,486,501,486.6,501,487.3z M494.8,492.3l3.3,2.2l-2,3.1l-3.1-2.2l-1.5,2.2l-3.3-2.3l2-3l3.2,2.2L494.8,492.3z"/>
		<path class="st10" d="M515.3,486.2c0,2.7-1.9,4-5,4c-1.9,0-3.5-0.4-4.9-1c-1.2,0.5-2.7,0.9-4.5,0.9h-1.9l0.6-4h2.3
			c-0.5-0.8-0.7-1.8-0.7-2.7c0-1.5,0.7-3.2,1.9-4.2c-0.5-0.3-1-0.4-1.4-0.6l1.2-3.4l0.3-0.1C507.9,477.7,515.3,482.2,515.3,486.2z
			 M506.6,483.1c0-1.3-0.6-2.3-1.3-2.3c-0.7,0-1.3,0.9-1.3,2.2c0,1.1,0.4,2,1.5,2.7C506.1,485.1,506.6,484.3,506.6,483.1z
			 M512.3,486.4c-0.3-0.9-1.4-2-2.8-3.1c-0.1,1.1-0.4,2.3-1.1,3.3c0.5,0.1,1.2,0.1,1.8,0.1C511.1,486.7,512.1,486.5,512.3,486.4z"/>
		<path class="st10" d="M518.4,490v-21.2l3.7-1l0.3,0.2l-0.1,21.4l-3.7,0.8L518.4,490z"/>
		<path class="st10" d="M538.1,487.3c0,1.5-0.5,2.7-2.1,2.7c-1.1,0-1.9-0.2-2.6-0.5c-1.2,3.2-4.9,5.5-9.6,6.3l-2.1-2.9l0.2-0.3
			c5-0.9,8-3,9-5c-0.7-1.6-1.5-3.4-2.4-5.1l2.8-3.3h0.4l1.4,3.9c0.9,2.5,1.6,2.8,3.7,2.8C537.7,486,538.1,486.6,538.1,487.3z"/>
		<path class="st10" d="M536.8,486h0.3c1.2,0,2.6-0.1,3.1-0.3c0.2-1.2-0.8-3.4-1.8-5.5l3.2-2.6h0.3c1.1,2.3,1.8,5.1,1.8,6.6
			c0,1.7-0.6,3.1-1.7,4.3c-1.1,1-2.5,1.4-5.7,1.4h-0.4L536.8,486z M537.8,495.5l2.1-3.1l3.4,2.3l-2.1,3.2L537.8,495.5z"/>
		<path class="st10" d="M552.6,498.5c-1.6,0.2-3.7,0.4-6.2,0.4l-0.2-2.3c0.4,0,1,0,1.4,0c-0.4-0.6-0.7-1.3-0.7-2
			c0-1.6,1-2.8,2.8-2.8c0.7,0,1.5,0.2,2.4,0.5l-0.5,2.1c-0.6-0.2-1-0.3-1.4-0.3c-0.7,0-1.1,0.4-1.1,1c0,0.5,0.2,0.9,0.6,1.3
			c0.9-0.1,1.9-0.1,2.7-0.2L552.6,498.5z M547.6,490.2l-0.3-0.2v-21.2l3.7-1l0.3,0.2l-0.1,21.4L547.6,490.2z"/>
		<path class="st10" d="M561.7,489.3c0-1.1,0.3-3,0.6-3.9l2.9-1.1l0.4,0.1c-0.2,0.8-0.2,2-0.2,3c0,2.9,1.5,4.5,5,4.5
			c2.4,0,4.3-0.6,5.3-2c0.2-1.2,0.3-2.4,0.3-4.3v-16.9l3.7-1l0.3,0.2l0,17.4c0,7.2-4.3,10.5-10.5,10.5
			C564.6,496,561.7,493.3,561.7,489.3z"/>
		<path class="st10" d="M584.8,465.7c-0.7,0-1.5,0.2-2.4,0.8l-1.2-1.8c1.2-1.1,2.2-1.5,3.2-1.5c1.4,0,2.8,0.8,4.4,0.8
			c0.5,0,1-0.1,1.5-0.3l0.7,2.1c-0.8,0.4-1.6,0.6-2.3,0.6C587.3,466.5,586.2,465.7,584.8,465.7z M583.9,490v-21.2l3.7-1l0.3,0.2
			l-0.1,21.4l-3.7,0.8L583.9,490z"/>
		<path class="st10" d="M598.3,489.2c0-1.2,0.3-2.5,0.5-3.6l3.3-1.1l0.4,0.2c-0.3,1.3-0.4,2-0.4,2.8c0,2.8,1.5,4.6,6.5,4.6
			c3.8,0,7.6-0.7,8.6-1.9c0-0.7-0.8-1.6-5.2-2.5l1.1-3.4c6.1,1.4,7.6,3,7.6,5c-0.2,4.3-5.7,6.8-12.8,6.8
			C601.3,496,598.3,493,598.3,489.2z"/>
		<path class="st10" d="M630.3,486.9c0,1.5-0.5,2.7-2.1,2.7c-2.6,0-4.4-1.2-5.3-3.5c-1.6,0.8-3.8,1.2-7.2,1.3l-2.6-3.3
			c3.4-0.1,7.1-0.6,8.5-1.2c0.2-0.6,0.3-1.6,0.3-2.4v-12l3.7-1l0.3,0.2v13c0,3.1,0.5,5,3.2,5C630,485.7,630.3,486.2,630.3,486.9z"/>
		<path class="st10" d="M643.5,485.2l-1.2,3.6c-2.5,0.5-6.4,0.8-14.2,0.8l0.9-4h2.3c-0.5-1-0.8-2-0.8-3.1c0-4,3-6.2,6.7-6.2
			c1.5,0,3.2,0.4,4.6,1l-0.4,3.4l-0.1,0.1c-1-0.3-2.3-0.6-3.3-0.6c-1.9,0-3,0.9-3,2.7c0,0.8,0.4,1.8,1.1,2.7c2.6-0.1,5-0.3,7.2-0.5
			L643.5,485.2z"/>
		<path class="st10" d="M657.3,486.8c0,4.4-3.4,8.8-10.6,8.9l-1.9-3l0.2-0.4c4.4-0.1,7.4-1.3,8.5-3.4c-0.8,0.1-1.6,0.2-2.6,0.2
			c-3,0-4.4-1.5-4.4-3.8c0-3,2.3-6.6,5.3-6.6C655.2,478.7,657.3,482.4,657.3,486.8z M651.8,485.6c0.8,0,1.5-0.1,2.2-0.2
			c-0.3-1.6-1.2-3-2.4-3c-1.1,0-2,1.2-2,2.2C649.7,485.3,650.3,485.6,651.8,485.6z"/>
		<path class="st10" d="M686.3,487.3c0,1.8-0.8,2.7-2.2,2.7c-1.4,0-2.4-0.3-3.3-1.2c-0.7,1-1.5,1.6-2.7,1.6c-1.9,0-4.1-1.2-6.5-3.8
			l-0.5,0.8c-0.2,2.2,0.8,8.3,1.5,12.5l-3.4,1.6l-0.3-0.2c-0.8-4.1-1.5-9.2-1.5-11.2c0-3,0.7-5.1,2.2-6.9c2-2.4,4.9-4.6,7.1-4.6
			c2.3,0,3.3,1.9,4.8,4.8c1.1,2,1.4,2.6,3.5,2.6C685.8,486,686.3,486.5,686.3,487.3z M678.9,486c0-0.1,0-0.1-0.1-0.2
			c-1.1-2.4-1.9-3.4-2.6-3.4c-0.7,0-1.7,0.7-2.7,1.7c1.5,1.6,2.9,2.5,4,2.5C678.2,486.7,678.6,486.4,678.9,486z"/>
		<path class="st10" d="M697.7,487.3c0,1.5-0.5,2.7-2.1,2.7c-2.4,0-4.6-0.5-5.8-1.5c-1.2,1-2.6,1.5-4.7,1.5h-1.1l0.9-4h0.7
			c0.8,0,1.8-0.1,2.2-0.4c0.3-0.8,0.7-2.4,1.1-4.5l4.1-1l0.3,0.2c-0.4,1.9-0.9,3.6-1.5,5c0.9,0.4,2.4,0.6,4.5,0.6
			C697.5,486,697.7,486.6,697.7,487.3z M691.5,492.3l3.3,2.2l-2,3.1l-3.1-2.2l-1.5,2.2l-3.3-2.3l2-3l3.2,2.2L691.5,492.3z"/>
		<path class="st10" d="M712,486.2c0,2.7-1.9,4-5,4c-1.9,0-3.5-0.4-4.9-1c-1.2,0.5-2.7,0.9-4.5,0.9h-1.9l0.6-4h2.3
			c-0.5-0.8-0.7-1.8-0.7-2.7c0-1.5,0.7-3.2,1.9-4.2c-0.5-0.3-1-0.4-1.4-0.6l1.2-3.4l0.3-0.1C704.6,477.7,712,482.2,712,486.2z
			 M703.4,483.1c0-1.3-0.6-2.3-1.3-2.3c-0.7,0-1.3,0.9-1.3,2.2c0,1.1,0.4,2,1.5,2.7C702.9,485.1,703.4,484.3,703.4,483.1z
			 M709,486.4c-0.3-0.9-1.4-2-2.8-3.1c-0.1,1.1-0.4,2.3-1.1,3.3c0.5,0.1,1.2,0.1,1.8,0.1C707.8,486.7,708.8,486.5,709,486.4z"/>
		<path class="st10" d="M715.2,490v-21.2l3.7-1l0.3,0.2l-0.1,21.4l-3.7,0.8L715.2,490z"/>
		<path class="st10" d="M734.8,487.3c0,1.5-0.5,2.7-2.1,2.7c-1.1,0-1.9-0.2-2.6-0.5c-1.2,3.2-4.9,5.5-9.6,6.3l-2.1-2.9l0.2-0.3
			c5-0.9,8-3,9-5c-0.7-1.6-1.5-3.4-2.4-5.1l2.8-3.3h0.4l1.4,3.9c0.9,2.5,1.6,2.8,3.7,2.8C734.5,486,734.8,486.6,734.8,487.3z"/>
		<path class="st10" d="M733.5,486h0.3c1.2,0,2.6-0.1,3.1-0.3c0.2-1.2-0.8-3.4-1.8-5.5l3.2-2.6h0.3c1.1,2.3,1.8,5.1,1.8,6.6
			c0,1.7-0.6,3.1-1.7,4.3c-1.1,1-2.5,1.4-5.7,1.4h-0.4L733.5,486z M734.6,495.5l2.1-3.1l3.4,2.3l-2.1,3.2L734.6,495.5z"/>
		<path class="st10" d="M749.3,498.5c-1.6,0.2-3.7,0.4-6.2,0.4l-0.2-2.3c0.4,0,1,0,1.4,0c-0.4-0.6-0.7-1.3-0.7-2
			c0-1.6,1-2.8,2.8-2.8c0.7,0,1.5,0.2,2.4,0.5l-0.5,2.1c-0.6-0.2-1-0.3-1.4-0.3c-0.7,0-1.1,0.4-1.1,1c0,0.5,0.2,0.9,0.6,1.3
			c0.9-0.1,1.9-0.1,2.7-0.2L749.3,498.5z M744.3,490.2l-0.3-0.2v-21.2l3.7-1l0.3,0.2l-0.1,21.4L744.3,490.2z"/>
		<path class="st10" d="M758.4,489.2c0-1.2,0.3-2.5,0.5-3.6l3.3-1.1l0.4,0.2c-0.3,1.3-0.4,2-0.4,2.8c0,2.8,1.5,4.6,6.5,4.6
			c3.8,0,7.6-0.7,8.6-1.9c0-0.7-0.8-1.6-5.2-2.5l1.1-3.4c6.1,1.4,7.6,3,7.6,5c-0.2,4.3-5.7,6.8-12.8,6.8
			C761.5,496,758.4,493,758.4,489.2z"/>
		<path class="st10" d="M790.5,486.9c0,1.5-0.5,2.7-2.1,2.7c-2.6,0-4.4-1.2-5.3-3.5c-1.6,0.8-3.8,1.2-7.2,1.3l-2.6-3.3
			c3.4-0.1,7.1-0.6,8.5-1.2c0.2-0.6,0.3-1.6,0.3-2.4v-12l3.7-1l0.3,0.2v13c0,3.1,0.5,5,3.2,5C790.2,485.7,790.5,486.2,790.5,486.9z"
			/>
		<path class="st10" d="M803.7,485.2l-1.2,3.6c-2.5,0.5-6.4,0.8-14.2,0.8l0.9-4h2.3c-0.5-1-0.8-2-0.8-3.1c0-4,3-6.2,6.7-6.2
			c1.5,0,3.2,0.4,4.6,1l-0.4,3.4l-0.1,0.1c-1-0.3-2.3-0.6-3.3-0.6c-1.9,0-3,0.9-3,2.7c0,0.8,0.4,1.8,1.1,2.7c2.6-0.1,5-0.3,7.2-0.5
			L803.7,485.2z"/>
		<path class="st10" d="M842.7,487.3c0,1.5-0.5,2.7-2.1,2.7c-1.6,0-3.6-0.5-4.9-1.5c-0.3,0.3-0.5,0.4-0.8,0.6
			c-1.2,0.8-5.4,1.2-8.5,1.2h-2c-7.1,0-10.9-2.1-10.9-6c0-1.4,0.2-2.6,0.6-3.9l2.8-1.1l0.3,0.2c-0.2,1-0.3,1.8-0.3,2.7
			c0,3.3,2.6,4.2,8.8,4.2h1.8c2.3,0,5-0.2,6-0.5c0.4-1.2,0.9-2.9,1.2-4.8l4.1-1l0.3,0.2c-0.4,1.8-1,3.5-1.6,5
			c0.9,0.4,2.2,0.6,3.7,0.6C842.4,486,842.7,486.6,842.7,487.3z M825.1,477.4l-3.3-2.3l2-3l3.1,2.1l1.4-2.1l3.3,2.2l-2,3.1l-3.1-2.2
			L825.1,477.4z"/>
		<path class="st10" d="M853.4,473.9l-6.8,3.4c5.2,3.5,6.1,5.4,6.1,7.2c0,3.2-2.4,5.5-9,5.5h-3.2l0.9-4h2.1c2.5,0,5.1-0.4,5.9-0.8
			c0-1.5-3.7-4-6.8-5.9l-0.2-0.2l0.9-4.5l11.1-5.7l0.3,0.2L853.4,473.9z"/>
		<path class="st10" d="M852,492.9l0.2-0.3c5.2-0.9,8.9-3.4,8.9-4.5c-0.1-1.1-1.2-3.6-2.3-5.5l2.9-3.2h0.4c1.4,2.6,2.1,5.7,2.1,7.7
			c0,1.2-0.3,2.5-0.9,3.7c-1.3,2.5-5,4.5-9.2,5.2L852,492.9z"/>
		<path class="st10" d="M868,483.5v-14.7l3.7-1l0.3,0.2v15.2c0,2.2,0.9,2.8,3.2,2.8c0.9,0,1.3,0.5,1.3,1.3c0,1.6-0.6,2.7-2.1,2.7
			C870.1,490,868,488.1,868,483.5z"/>
		<path class="st10" d="M875.2,486h0.3c1.2,0,2.6-0.1,3.1-0.3c0.2-1.2-0.8-3.4-1.8-5.5l3.2-2.6h0.3c1.1,2.3,1.8,5.1,1.8,6.6
			c0,1.7-0.6,3.1-1.7,4.3c-1.1,1-2.5,1.4-5.7,1.4h-0.4L875.2,486z M876.2,495.5l2.1-3.1l3.4,2.3l-2.1,3.2L876.2,495.5z"/>
		<path class="st10" d="M892.9,483.5v-14.7l3.7-1l0.3,0.2v15.2c0,2.2,0.9,2.8,3.2,2.8c0.9,0,1.3,0.5,1.3,1.3c0,1.6-0.6,2.7-2.1,2.7
			C895,490,892.9,488.1,892.9,483.5z"/>
		<path class="st10" d="M918.4,487.3c0,1.6-0.7,2.7-2.2,2.7c-1.4,0-2.4-0.3-3.3-1.1c-0.6,1-1.5,1.5-2.7,1.5c-1.4,0-3.5-0.7-5.7-2.2
			c-1.3,1.6-2.9,1.8-5.3,1.8l0.9-4c1.4,0,1.8-0.2,2.6-1.5c1.8-3,3.3-5.8,6-5.8c2.4,0,3.6,2.1,4.9,4.8c1.1,2.1,1.6,2.6,3.5,2.6
			C918.1,486,918.4,486.6,918.4,487.3z M911.1,486.1l-0.1-0.2c-1-2.3-1.8-3.4-2.5-3.4c-0.7,0-1.5,1.2-2.3,2.8
			c1.2,0.8,2.5,1.4,3.5,1.4C910.4,486.7,910.8,486.4,911.1,486.1z"/>
		<path class="st10" d="M929.1,473.9l-6.8,3.4c5.2,3.5,6.1,5.4,6.1,7.2c0,3.2-2.4,5.5-9,5.5h-3.2l0.9-4h2.1c2.5,0,5.1-0.4,5.9-0.8
			c0-1.5-3.7-4-6.8-5.9l-0.2-0.2l0.9-4.5l11.1-5.7l0.3,0.2L929.1,473.9z"/>
		<path class="st10" d="M583.3,537.9c0-1.3,1.2-2.5,2.6-2.5c1.4,0,2.6,1.2,2.6,2.5c0,1.4-1.2,2.6-2.6,2.6
			C584.4,540.4,583.3,539.3,583.3,537.9z"/>
		<path class="st10" d="M589.8,525.5c0-2.5,1.3-4.6,3-6.6l1.7,1.1c-0.7,1.1-1.5,2.1-1.5,3c0,0.4,0.1,0.7,0.4,0.9
			c0.6,0.5,1.1,1,1.1,1.9c0,1.1-0.8,2.2-2.3,2.2S589.8,526.9,589.8,525.5z M595.7,525.5c0-2.5,1.3-4.6,3-6.6l1.7,1.1
			c-0.7,1.1-1.5,2.1-1.5,3c0,0.4,0.1,0.7,0.4,0.9c0.6,0.5,1,1,1,1.9c0,1.1-0.8,2.2-2.3,2.2S595.7,526.9,595.7,525.5z"/>
		<path class="st10" d="M618.6,537.3c0,1.5-0.5,2.7-2.2,2.7c-2,0-3.4-0.4-4.3-1.5c-1.5,1.1-3.9,1.8-6.6,1.8c-0.8,0-2.6-0.1-3.7-0.4
			l0.6-3.9l0.2-0.1c1.1,0.2,2.5,0.3,3.3,0.3c1.5,0,3.4-0.2,4.6-0.7c-0.7-1.3-2.4-4.7-3.7-7.2l2.9-3.3h0.4c0.8,2,2.9,6.9,3.4,8
			c1.1,2.7,1.8,3,3.9,3C618.3,536,618.6,536.6,618.6,537.3z"/>
		<path class="st10" d="M630.2,537.3c0,1.5-0.5,2.7-2.1,2.7c-2.4,0-4.6-0.5-5.8-1.5c-1.2,1-2.6,1.5-4.7,1.5h-1.1l0.9-4h0.7
			c0.8,0,1.8-0.1,2.2-0.4c0.3-0.8,0.7-2.4,1.1-4.5l4.1-1l0.3,0.2c-0.4,1.9-0.9,3.6-1.5,5c0.9,0.4,2.4,0.6,4.5,0.6
			C629.9,536,630.2,536.6,630.2,537.3z M624,542.3l3.3,2.2l-2,3.1l-3.1-2.2l-1.5,2.2l-3.3-2.3l2-3l3.2,2.2L624,542.3z"/>
		<path class="st10" d="M650.4,537.3c0,1.5-0.5,2.7-2.1,2.7c-5.2,0-7-1.3-8.3-3.5l-1.2,0.6c-4.4,2.2-7.3,2.9-10.8,2.9l0.9-4
			c3.2,0,5.1-0.4,8.8-1.7c1-0.4,1.8-0.6,2.5-0.9c-0.3-0.1-0.7-0.3-1.1-0.5c-2.6-1.2-4-1.6-5.3-1.6c-1.4,0-2.6,0.3-3.7,0.6l-0.2-0.1
			l1.4-3.6c0.7-0.4,1.9-0.7,2.9-0.7c1.1,0,2.4,0.4,4.9,1.5c3.4,1.5,5.4,2,7.6,2.1l-0.7,3.6c-0.9,0-1.7,0.1-2.7,0.4
			c1,0.6,2.6,0.8,5.8,0.8C650.1,536,650.4,536.6,650.4,537.3z M635.7,542.3l3.4,2.3l-2.1,3.2l-3.4-2.4L635.7,542.3z"/>
		<path class="st10" d="M663.3,535.8c0,2.7-1.3,4.6-3.7,4.6c-1.6,0-3.9-0.5-6.3-2.2c-1.3,1.5-2.9,1.8-5.1,1.8l0.9-4
			c1.2,0,1.7-0.4,2.7-2.3c1.1-2,2.9-5.1,5.7-5.1C660.5,528.7,663.3,532.1,663.3,535.8z M659.9,536.2c-0.1-1.3-1.2-3.7-2.4-3.7
			c-0.8,0-1.5,1.2-2.3,2.7c1.3,0.8,2.6,1.3,3.5,1.3C659,536.5,659.5,536.4,659.9,536.2z"/>
		<path class="st10" d="M689.7,537.3c0,1.5-0.5,2.7-2.2,2.7c-2,0-3.4-0.4-4.3-1.5c-1.5,1.1-3.9,1.8-6.6,1.8c-0.8,0-2.6-0.1-3.7-0.4
			l0.6-3.9l0.2-0.1c1.1,0.2,2.5,0.3,3.3,0.3c1.5,0,3.4-0.2,4.6-0.7c-0.7-1.3-2.4-4.7-3.7-7.2l2.9-3.3h0.4c0.8,2,2.9,6.9,3.4,8
			c1.1,2.7,1.8,3,3.9,3C689.4,536,689.7,536.6,689.7,537.3z"/>
		<path class="st10" d="M701.2,537.3c0,1.5-0.5,2.7-2.1,2.7c-2.4,0-4.6-0.5-5.8-1.5c-1.2,1-2.6,1.5-4.7,1.5h-1.1l0.9-4h0.7
			c0.8,0,1.8-0.1,2.2-0.4c0.3-0.8,0.7-2.4,1.1-4.5l4.1-1l0.3,0.2c-0.4,1.9-0.9,3.6-1.5,5c0.9,0.4,2.4,0.6,4.5,0.6
			C700.9,536,701.2,536.6,701.2,537.3z M695,542.3l3.3,2.2l-2,3.1l-3.1-2.2l-1.5,2.2l-3.3-2.3l2-3l3.2,2.2L695,542.3z"/>
		<path class="st10" d="M718.3,537.3c0,1.6-0.7,2.7-2.2,2.7c-1.4,0-2.4-0.3-3.3-1.1c-0.6,1-1.5,1.5-2.7,1.5c-1.4,0-3.5-0.7-5.7-2.2
			c-1.3,1.6-2.9,1.8-5.3,1.8l0.9-4c1.4,0,1.8-0.2,2.6-1.5c1.8-3,3.3-5.8,6-5.8c2.4,0,3.6,2.1,4.9,4.8c1.1,2.1,1.6,2.6,3.5,2.6
			C717.9,536,718.3,536.6,718.3,537.3z M710.9,536.1l-0.1-0.2c-1-2.3-1.8-3.4-2.5-3.4c-0.7,0-1.5,1.2-2.3,2.8
			c1.2,0.8,2.5,1.4,3.5,1.4C710.2,536.7,710.6,536.4,710.9,536.1z"/>
		<path class="st10" d="M734.7,532.1l-1,3.8c-2.2,0.3-5.2,1-8.5,2.1c-4.4,1.5-6.7,2-9.1,2l0.9-4c2.5,0,4.3-0.2,8.4-1.2
			c1.3-0.4,2.4-0.6,3.3-0.9c-0.4-0.2-1-0.4-1.5-0.7c-2.5-1.3-3.9-1.8-5.3-1.8c-1.4,0-2.6,0.3-3.7,0.6l-0.2-0.2l1.4-3.5
			c0.7-0.4,1.9-0.7,2.9-0.7c1.4,0,2.7,0.5,6,2.1C731.7,531.5,733.2,532,734.7,532.1z"/>
		<path class="st10" d="M771.9,537.3c0,1.5-0.5,2.7-2.1,2.7c-1.7,0-3.2-0.5-4.2-1.8c-1.5,1.5-4.1,2.1-8.7,2.1h-2
			c-7.1,0-10.9-2.1-10.9-6c0-1.4,0.2-2.6,0.6-3.9l2.8-1.1l0.3,0.2c-0.2,1-0.3,1.8-0.3,2.7c0,3.3,2.6,4.2,8.8,4.2h1.8
			c2.5,0,4.6-0.4,5.2-0.8c0.1-0.5,0.2-1.2,0.2-2.4v-14.4l3.7-1l0.3,0.2v14.3c0,2.8,0.5,3.6,3.1,3.6
			C771.6,536,771.9,536.6,771.9,537.3z M752.8,528.8c0.5,0,1,0,1.5,0c-0.4-0.6-0.7-1.3-0.7-2c0-1.6,1.1-2.8,2.8-2.8
			c0.7,0,1.5,0.2,2.4,0.5l-0.5,2c-0.5-0.2-1-0.3-1.4-0.3c-0.7,0-1.2,0.3-1.2,1c0,0.5,0.3,1,0.7,1.4c1-0.1,1.9-0.1,2.8-0.2l0.2,2.1
			c-1.6,0.2-3.7,0.4-6.3,0.4L752.8,528.8z"/>
		<path class="st10" d="M770.6,536h0.3c1.2,0,2.6-0.1,3.1-0.3c0.2-1.2-0.8-3.4-1.8-5.5l3.2-2.6h0.3c1.1,2.3,1.8,5.1,1.8,6.6
			c0,1.7-0.6,3.1-1.7,4.3c-1.1,1-2.5,1.4-5.7,1.4h-0.4L770.6,536z M771.2,522.8l2.1-3.1l3.4,2.4l-2.1,3.2L771.2,522.8z"/>
		<path class="st10" d="M786.4,548.5c-1.6,0.2-3.7,0.4-6.2,0.4l-0.2-2.3c0.4,0,1,0,1.4,0c-0.4-0.6-0.7-1.3-0.7-2
			c0-1.6,1-2.8,2.8-2.8c0.7,0,1.5,0.2,2.4,0.5l-0.5,2.1c-0.6-0.2-1-0.3-1.4-0.3c-0.7,0-1.1,0.4-1.1,1c0,0.5,0.2,0.9,0.6,1.3
			c0.9-0.1,1.9-0.1,2.7-0.2L786.4,548.5z M781.4,540.2l-0.3-0.2v-21.2l3.7-1l0.3,0.2l-0.1,21.4L781.4,540.2z"/>
		<path class="st10" d="M817.3,537.3c0,1.5-0.5,2.7-2.1,2.7c-0.8,0-1.5-0.2-2.1-0.6c-1.2,4.5-4.9,6.5-9.8,6.5c-5,0-7.8-2.7-7.8-6.7
			c0-1.5,0.4-3,0.6-3.9l2.9-1.1l0.4,0.1c-0.2,1.2-0.2,2.1-0.2,3c0,2.6,1.2,4.5,5,4.5c2.8,0,4.7-1.1,5.5-2.2c0.4-2-0.6-4.4-1.8-6.9
			l3.5-2.5h0.2c0.3,0.7,1.1,3.5,1.5,4.2c0.5,1,1.3,1.4,3,1.4C816.9,536,817.3,536.6,817.3,537.3z M804.2,529.9l-3.4-2.4l2.1-3.1
			l3.4,2.4L804.2,529.9z"/>
		<path class="st10" d="M828.8,537.3c0,1.5-0.5,2.7-2.1,2.7c-2.4,0-4.6-0.5-5.8-1.5c-1.2,1-2.6,1.5-4.7,1.5h-1.1l0.9-4h0.7
			c0.8,0,1.8-0.1,2.2-0.4c0.3-0.8,0.7-2.4,1.1-4.5l4.1-1l0.3,0.2c-0.4,1.9-0.9,3.6-1.5,5c0.9,0.4,2.4,0.6,4.5,0.6
			C828.5,536,828.8,536.6,828.8,537.3z M822.6,542.3l3.3,2.2l-2,3.1l-3.1-2.2l-1.5,2.2l-3.3-2.3l2-3l3.2,2.2L822.6,542.3z"/>
		<path class="st10" d="M845.9,537.3c0,1.6-0.7,2.7-2.2,2.7c-1.4,0-2.4-0.3-3.3-1.1c-0.6,1-1.5,1.5-2.7,1.5c-1.4,0-3.5-0.7-5.7-2.2
			c-1.3,1.6-2.9,1.8-5.3,1.8l0.9-4c1.4,0,1.8-0.2,2.6-1.5c1.8-3,3.3-5.8,6-5.8c2.4,0,3.6,2.1,4.9,4.8c1.1,2.1,1.6,2.6,3.5,2.6
			C845.5,536,845.9,536.6,845.9,537.3z M838.5,536.1l-0.1-0.2c-1-2.3-1.8-3.4-2.5-3.4c-0.7,0-1.5,1.2-2.3,2.8
			c1.2,0.8,2.5,1.4,3.5,1.4C837.8,536.7,838.2,536.4,838.5,536.1z"/>
		<path class="st10" d="M844.6,536c0.9,0,1.9-0.1,2.6-0.4c0.1-0.5,0.2-1.2,0.2-2.4v-14.4l3.7-1l0.3,0.2v15c0,5.6-2.9,7-7.6,7
			L844.6,536z"/>
		<path class="st10" d="M855.2,533.5v-14.7l3.7-1l0.3,0.2v15.2c0,2.2,0.9,2.8,3.2,2.8c0.9,0,1.3,0.5,1.3,1.3c0,1.6-0.6,2.7-2.1,2.7
			C857.4,540,855.2,538.1,855.2,533.5z"/>
		<path class="st10" d="M882,537.3c0,1.5-0.5,2.7-2.2,2.7c-3.6,0-6.5-0.9-8.7-2.3c-2.3,1.4-5.1,2.3-9.6,2.3l0.9-4
			c2.4,0,4.4-0.2,6.2-0.9c-1.3-1.3-2.8-2.5-4.3-3.2l-0.1-0.3l1.2-3.5c1.7-0.9,4.1-1.4,6.5-1.4c2.4,0,4.8,0.5,6.7,1.6l0.1,0.4
			l-0.9,3.4c-1.4,1.1-2.6,2.2-3.8,3.3c1.8,0.5,4,0.6,6.5,0.6C881.7,536,882,536.6,882,537.3z M871.4,533.7c1-0.7,2-1.6,3.1-2.8
			c-1.1-0.3-2.1-0.5-3.1-0.5c-1.1,0-2.1,0.2-3.1,0.4C869.4,531.5,870.4,532.6,871.4,533.7z"/>
		<path class="st10" d="M880.8,536c0.9,0,1.9-0.1,2.6-0.4c0.1-0.5,0.2-1.2,0.2-2.4v-14.4l3.7-1l0.3,0.2v15c0,5.6-2.9,7-7.6,7
			L880.8,536z"/>
		<path class="st10" d="M891.4,540v-21.2l3.7-1l0.3,0.2l-0.1,21.4l-3.7,0.8L891.4,540z"/>
		<path class="st10" d="M928.3,539.1c-0.2,4.3-5.7,6.8-12.8,6.8c-6.6,0-9.7-2.9-9.7-6.8c0-1.2,0.3-2.5,0.5-3.6l3.3-1.1l0.4,0.2
			c-0.3,1.3-0.4,2-0.4,2.8c0,2.8,1.5,4.6,6.5,4.6c3.8,0,7.6-0.7,8.6-1.9c0-0.7-0.8-1.6-5.2-2.5l1.1-3.4
			C926.7,535.6,928.3,537.1,928.3,539.1z M917.3,548.3l3.3,2.2l-2,3.1l-3.1-2.2l-1.5,2.2l-3.3-2.3l2-3l3.2,2.2L917.3,548.3z"/>
		<path class="st10" d="M928.4,529.9c0,4.7-1.7,6.2-6.2,7.8l-1.5-3.5c1.8-0.4,3.4-1,4.2-1.5c0.1-0.3,0.2-0.6,0.2-1
			c-0.9,0.2-1.8,0.3-2.9,0.3c-3,0-4.4-1.5-4.4-3.8c0-3,2.3-6.6,5.3-6.6C926.3,521.6,928.4,525.4,928.4,529.9z M923.1,519.2l-3.4-2.4
			l2.1-3.1l3.4,2.4L923.1,519.2z M922.8,528.6c0.8,0,1.5-0.1,2.3-0.2c-0.3-1.6-1.2-3-2.4-3c-1.1,0-2,1.2-2,2.2
			C920.7,528.2,921.3,528.6,922.8,528.6z"/>
	</g>
</g>
<path class="st11" d="M1024,44.8h-11.1v-6.6c0-1.7-1.1-3-2.6-3.5c1.4-1.1,2.3-2.9,2.3-4.8c0-3.4-2.8-6.2-6.2-6.2
	c-1,0-1.9,0.2-2.8,0.7c0.4-1.1,0.5-2.2,0.5-3.4c0-6.2-5-11.2-11.2-11.2c-6.2,0-11.2,5-11.2,11.2c0,1.2,0.2,2.4,0.5,3.4
	c-0.8-0.4-1.8-0.7-2.8-0.7c-3.4,0-6.2,2.8-6.2,6.2c0,1.9,0.9,3.6,2.3,4.8c-1.5,0.4-2.6,1.8-2.6,3.5v6.6h-10h-10v-6.6
	c0-1.7-1.1-3-2.6-3.5c1.4-1.1,2.3-2.9,2.3-4.8c0-3.4-2.8-6.2-6.2-6.2c-1,0-1.9,0.2-2.8,0.7c0.4-1.1,0.5-2.2,0.5-3.4
	c0-6.2-5-11.2-11.2-11.2c-6.2,0-11.2,5-11.2,11.2c0,1.2,0.2,2.4,0.5,3.4c-0.8-0.4-1.8-0.7-2.8-0.7c-3.4,0-6.2,2.8-6.2,6.2
	c0,1.9,0.9,3.6,2.3,4.8c-1.5,0.4-2.6,1.8-2.6,3.5v6.6h-10h-10v-6.6c0-1.7-1.1-3-2.6-3.5c1.4-1.1,2.3-2.9,2.3-4.8
	c0-3.4-2.8-6.2-6.2-6.2c-1,0-1.9,0.2-2.8,0.7c0.4-1.1,0.5-2.2,0.5-3.4c0-6.2-5-11.2-11.2-11.2c-6.2,0-11.2,5-11.2,11.2
	c0,1.2,0.2,2.4,0.5,3.4c-0.8-0.4-1.8-0.7-2.8-0.7c-3.4,0-6.2,2.8-6.2,6.2c0,1.9,0.9,3.6,2.3,4.8c-1.5,0.4-2.6,1.8-2.6,3.5v6.6h-10
	h-10v-6.6c0-1.7-1.1-3-2.6-3.5c1.4-1.1,2.3-2.9,2.3-4.8c0-3.4-2.8-6.2-6.2-6.2c-1,0-1.9,0.2-2.8,0.7c0.4-1.1,0.5-2.2,0.5-3.4
	c0-6.2-5-11.2-11.2-11.2c-6.2,0-11.2,5-11.2,11.2c0,1.2,0.2,2.4,0.5,3.4c-0.8-0.4-1.8-0.7-2.8-0.7c-3.4,0-6.2,2.8-6.2,6.2
	c0,1.9,0.9,3.6,2.3,4.8c-1.5,0.4-2.6,1.8-2.6,3.5v6.6h-10h-10v-6.6c0-1.7-1.1-3-2.6-3.5c1.4-1.1,2.3-2.9,2.3-4.8
	c0-3.4-2.8-6.2-6.2-6.2c-1,0-1.9,0.2-2.8,0.7c0.4-1.1,0.5-2.2,0.5-3.4c0-6.2-5-11.2-11.2-11.2c-6.2,0-11.2,5-11.2,11.2
	c0,1.2,0.2,2.4,0.5,3.4c-0.8-0.4-1.8-0.7-2.8-0.7c-3.4,0-6.2,2.8-6.2,6.2c0,1.9,0.9,3.6,2.3,4.8c-1.5,0.4-2.6,1.8-2.6,3.5v6.6h-10
	h-10v-6.6c0-1.7-1.1-3-2.6-3.5c1.4-1.1,2.3-2.9,2.3-4.8c0-3.4-2.8-6.2-6.2-6.2c-1,0-1.9,0.2-2.8,0.7c0.4-1.1,0.5-2.2,0.5-3.4
	c0-6.2-5-11.2-11.2-11.2c-6.2,0-11.2,5-11.2,11.2c0,1.2,0.2,2.4,0.5,3.4c-0.8-0.4-1.8-0.7-2.8-0.7c-3.4,0-6.2,2.8-6.2,6.2
	c0,1.9,0.9,3.6,2.3,4.8c-1.5,0.4-2.6,1.8-2.6,3.5v6.6h-10h-10v-6.6c0-1.7-1.1-3-2.6-3.5c1.4-1.1,2.3-2.9,2.3-4.8
	c0-3.4-2.8-6.2-6.2-6.2c-1,0-1.9,0.2-2.8,0.7c0.4-1.1,0.5-2.2,0.5-3.4c0-6.2-5-11.2-11.2-11.2c-6.2,0-11.2,5-11.2,11.2
	c0,1.2,0.2,2.4,0.5,3.4c-0.8-0.4-1.8-0.7-2.8-0.7c-3.4,0-6.2,2.8-6.2,6.2c0,1.9,0.9,3.6,2.3,4.8c-1.5,0.4-2.6,1.8-2.6,3.5v6.6h-10
	h-10v-6.6c0-1.7-1.1-3-2.6-3.5c1.4-1.1,2.3-2.9,2.3-4.8c0-3.4-2.8-6.2-6.2-6.2c-1,0-1.9,0.2-2.8,0.7c0.4-1.1,0.5-2.2,0.5-3.4
	c0-6.2-5-11.2-11.2-11.2c-6.2,0-11.2,5-11.2,11.2c0,1.2,0.2,2.4,0.5,3.4c-0.8-0.4-1.8-0.7-2.8-0.7c-3.4,0-6.2,2.8-6.2,6.2
	c0,1.9,0.9,3.6,2.3,4.8c-1.5,0.4-2.6,1.8-2.6,3.5v6.6h-10h-10v-6.6c0-1.7-1.1-3-2.6-3.5c1.4-1.1,2.3-2.9,2.3-4.8
	c0-3.4-2.8-6.2-6.2-6.2c-1,0-1.9,0.2-2.8,0.7c0.4-1.1,0.5-2.2,0.5-3.4c0-6.2-5-11.2-11.2-11.2c-6.2,0-11.2,5-11.2,11.2
	c0,1.2,0.2,2.4,0.5,3.4c-0.8-0.4-1.8-0.7-2.8-0.7c-3.4,0-6.2,2.8-6.2,6.2c0,1.9,0.9,3.6,2.3,4.8c-1.5,0.4-2.6,1.8-2.6,3.5v6.6h-10
	h-10v-6.6c0-1.7-1.1-3-2.6-3.5c1.4-1.1,2.3-2.9,2.3-4.8c0-3.4-2.8-6.2-6.2-6.2c-1,0-1.9,0.2-2.8,0.7c0.4-1.1,0.5-2.2,0.5-3.4
	c0-6.2-5-11.2-11.2-11.2c-6.2,0-11.2,5-11.2,11.2c0,1.2,0.2,2.4,0.5,3.4c-0.8-0.4-1.8-0.7-2.8-0.7c-3.4,0-6.2,2.8-6.2,6.2
	c0,1.9,0.9,3.6,2.3,4.8c-1.5,0.4-2.6,1.8-2.6,3.5v6.6h-10h-10v-6.6c0-1.7-1.1-3-2.6-3.5c1.4-1.1,2.3-2.9,2.3-4.8
	c0-3.4-2.8-6.2-6.2-6.2c-1,0-1.9,0.2-2.8,0.7c0.4-1.1,0.5-2.2,0.5-3.4c0-6.2-5-11.2-11.2-11.2c-6.2,0-11.2,5-11.2,11.2
	c0,1.2,0.2,2.4,0.5,3.4c-0.8-0.4-1.8-0.7-2.8-0.7c-3.4,0-6.2,2.8-6.2,6.2c0,1.9,0.9,3.6,2.3,4.8c-1.5,0.4-2.6,1.8-2.6,3.5v6.6h-10
	h-10v-6.6c0-1.7-1.1-3-2.6-3.5c1.4-1.1,2.3-2.9,2.3-4.8c0-3.4-2.8-6.2-6.2-6.2c-1,0-1.9,0.2-2.8,0.7c0.4-1.1,0.5-2.2,0.5-3.4
	c0-6.2-5-11.2-11.2-11.2c-6.2,0-11.2,5-11.2,11.2c0,1.2,0.2,2.4,0.5,3.4c-0.8-0.4-1.8-0.7-2.8-0.7c-3.4,0-6.2,2.8-6.2,6.2
	c0,1.9,0.9,3.6,2.3,4.8c-1.5,0.4-2.6,1.8-2.6,3.5v6.6h-10h-10v-6.6c0-1.7-1.1-3-2.6-3.5c1.4-1.1,2.3-2.9,2.3-4.8
	c0-3.4-2.8-6.2-6.2-6.2c-1,0-1.9,0.2-2.8,0.7c0.4-1.1,0.5-2.2,0.5-3.4c0-6.2-5-11.2-11.2-11.2c-6.2,0-11.2,5-11.2,11.2
	c0,1.2,0.2,2.4,0.5,3.4c-0.8-0.4-1.8-0.7-2.8-0.7c-3.4,0-6.2,2.8-6.2,6.2c0,1.9,0.9,3.6,2.3,4.8c-1.5,0.4-2.6,1.8-2.6,3.5v6.6h-10
	h-10v-6.6c0-1.7-1.1-3-2.6-3.5c1.4-1.1,2.3-2.9,2.3-4.8c0-3.4-2.8-6.2-6.2-6.2c-1,0-1.9,0.2-2.8,0.7c0.4-1.1,0.5-2.2,0.5-3.4
	c0-6.2-5-11.2-11.2-11.2c-6.2,0-11.2,5-11.2,11.2c0,1.2,0.2,2.4,0.5,3.4c-0.8-0.4-1.8-0.7-2.8-0.7c-3.4,0-6.2,2.8-6.2,6.2
	c0,1.9,0.9,3.6,2.3,4.8c-1.5,0.4-2.6,1.8-2.6,3.5v6.6h-10h-10v-6.6c0-1.7-1.1-3-2.6-3.5c1.4-1.1,2.3-2.9,2.3-4.8
	c0-3.4-2.8-6.2-6.2-6.2c-1,0-1.9,0.2-2.8,0.7c0.4-1.1,0.5-2.2,0.5-3.4c0-6.2-5-11.2-11.2-11.2c-6.2,0-11.2,5-11.2,11.2
	c0,1.2,0.2,2.4,0.5,3.4c-0.8-0.4-1.8-0.7-2.8-0.7c-3.4,0-6.2,2.8-6.2,6.2c0,1.9,0.9,3.6,2.3,4.8c-1.5,0.4-2.6,1.8-2.6,3.5v6.6h-10
	h-10v-6.6c0-1.7-1.1-3-2.6-3.5c1.4-1.1,2.3-2.9,2.3-4.8c0-3.4-2.8-6.2-6.2-6.2c-1,0-1.9,0.2-2.8,0.7c0.4-1.1,0.5-2.2,0.5-3.4
	c0-6.2-5-11.2-11.2-11.2c-6.2,0-11.2,5-11.2,11.2c0,1.2,0.2,2.4,0.5,3.4c-0.8-0.4-1.8-0.7-2.8-0.7c-3.4,0-6.2,2.8-6.2,6.2
	c0,1.9,0.9,3.6,2.3,4.8c-1.5,0.4-2.6,1.8-2.6,3.5v6.6h-10h-10v-6.6c0-1.7-1.1-3-2.6-3.5c1.4-1.1,2.3-2.9,2.3-4.8
	c0-3.4-2.8-6.2-6.2-6.2c-1,0-1.9,0.2-2.8,0.7c0.4-1.1,0.5-2.2,0.5-3.4c0-6.2-5-11.2-11.2-11.2c-6.2,0-11.2,5-11.2,11.2
	c0,1.2,0.2,2.4,0.5,3.4c-0.8-0.4-1.8-0.7-2.8-0.7c-3.4,0-6.2,2.8-6.2,6.2c0,1.9,0.9,3.6,2.3,4.8c-1.5,0.4-2.6,1.8-2.6,3.5v6.6H0V1
	h1024V44.8z"/>
<g id="Layer_x0020_1_36_">
	<path class="st12" d="M35.9,721l43.9-1.7c0.3,0,0.6,0,1,0c0.7,0.1,1.3,0.4,1.8,0.9c0.5,0.5,0.9,1,0.9,1.7c0,0.2,0,0.5,0,0.8
		l-4.6,20.6c-0.2,0.9-0.6,1.7-1.3,2.2c-0.6,0.5-1.4,0.9-2.4,0.9L40,745.2c-1,0-1.7-0.3-2.4-0.9l0,0c-0.6-0.6-1.1-1.4-1.3-2.2
		l-4.1-17.7c0-0.1,0-0.1,0-0.2c-0.1-0.8,0.3-1.5,0.9-2.1c0.6-0.5,1.4-0.8,2.3-1C35.6,721.1,35.7,721,35.9,721z M77.9,722.1l-42,1.5
		c-0.1,0-0.2,0-0.3,0c-0.6,0.1-1.1,0.3-1.5,0.7c-0.3,0.3-0.6,0.7-0.5,1.1c0,0,0,0.1,0,0.1l3.8,16.5c0.1,0.6,0.4,1.2,0.9,1.6
		c0.4,0.3,0.8,0.5,1.4,0.5l34,1.2c0.6,0,1-0.2,1.4-0.5c0.4-0.4,0.7-0.9,0.9-1.6L80,724c0-0.1,0-0.3,0-0.4c0-0.3-0.2-0.7-0.5-0.9
		c-0.3-0.3-0.7-0.5-1.1-0.5C78.2,722.1,78.1,722.1,77.9,722.1z"/>
	<path class="st12" d="M42.9,725.7l12.9-1.4c0.1,0,0.3,0,0.4,0c0.3,0.1,0.6,0.2,0.8,0.4c0.2,0.2,0.4,0.5,0.4,0.8c0,0.1,0,0.2,0,0.3
		l-2.1,9.6c-0.1,0.4-0.3,0.8-0.6,1c-0.3,0.3-0.6,0.4-1.1,0.4h-8.9c-0.4,0-0.8-0.2-1.1-0.4h0c-0.3-0.3-0.5-0.6-0.6-1l-1.9-8.2
		c0,0,0-0.1,0-0.1c-0.1-0.4,0.1-0.7,0.4-1c0.3-0.2,0.7-0.4,1-0.5C42.8,725.7,42.8,725.7,42.9,725.7z M54.9,725.6l-12,1.3
		c0,0-0.1,0-0.1,0c-0.3,0-0.5,0.2-0.7,0.3c-0.2,0.1-0.3,0.3-0.2,0.5c0,0,0,0,0,0l1.8,7.6c0.1,0.3,0.2,0.5,0.4,0.7
		c0.2,0.1,0.4,0.2,0.6,0.2h8.3c0.3,0,0.5-0.1,0.6-0.2c0.2-0.2,0.3-0.4,0.4-0.7l2-8.9c0-0.1,0-0.1,0-0.2c0-0.2-0.1-0.3-0.2-0.4
		c-0.1-0.1-0.3-0.2-0.5-0.2C55.1,725.6,55,725.6,54.9,725.6z"/>
	<g id="_1849662416_36_">
		<path class="st13" d="M61.4,737.9l0.4-0.7l-0.7-0.4l0.4-0.7l-1.5-0.8l-0.9,1.5l0,0c0.3,0.1,0.5,0.3,0.7,0.4l-0.4,0.7l0.7,0.4
			l-0.8,1.5l0.7,0.4c-0.2,0.5-0.6,1.1-0.9,1.5l0,0c0.2,0.1,0.4,0.2,0.5,0.3c0.3,0.1,0.2,0.1,0,0.5c-0.2,0.4-0.4,0.8-0.7,1.1l0.7,0.4
			c0,0.2-0.7,1.2-0.8,1.5l5.9,3.4l0.9-1.5l0.8,0.4l1.3-2.2l0.7,0.4l3-5.2c-0.1-0.1-0.7-0.4-0.7-0.5c0-0.2,0.4-0.6,0.4-0.7
			c-0.1-0.1-0.5-0.4-0.7-0.4l-1.3,2.2l-0.7-0.4l1.7-3l-1.5-0.9l-1.3,2.2l-0.7-0.4l1.7-2.9c-0.1-0.1-1.3-0.8-1.5-0.9l-1.7,3l-0.7-0.4
			c0-0.1,0.1-0.1,0.1-0.2c1.2-2.1,2.5-4.3,3.7-6.5l-1.5-0.8l-4.7,8.1C61.9,738.3,61.4,737.9,61.4,737.9L61.4,737.9z"/>
		<path class="st14" d="M59.2,741.6c-0.1,0.1-0.1,0.2-0.2,0.3l-0.7,1.1c0.1,0.1,0.2,0.1,0.4,0.2c0.1,0.1,0.2,0.1,0.3,0.2
			c-0.4,0.8-0.8,1.5-1.2,2.2c0.6,0.4,1.2,0.7,1.8,1.1l3.7,2.2c0.6,0.4,1.3,0.7,1.9,1.1c0.1-0.2,0.1-0.3,0.3-0.5
			c0.1-0.2,0.4-0.6,0.5-0.9c0.1-0.1,0.1-0.1,0.2-0.3c0.1-0.2,0.2-0.4,0.3-0.6c0.1,0.2,0.5,0.3,0.7,0.4c0.4-0.7,0.8-1.4,1.3-2.2
			c0.2,0.1,0.4,0.2,0.6,0.3c0.1,0.1,0.1,0.1,0.2,0c0.2-0.3,0.3-0.6,0.5-0.9c0.3-0.6,0.7-1.1,1-1.7l1.4-2.5c-0.2-0.1-0.6-0.3-0.7-0.4
			l-3,5.2l-0.7-0.4l-1.3,2.2l-0.8-0.4l-0.9,1.5l-5.9-3.4c0.1-0.3,0.8-1.3,0.8-1.5l-0.7-0.4c0.2-0.4,0.4-0.8,0.7-1.1
			c0.2-0.4,0.2-0.3,0-0.5C59.6,741.8,59.4,741.7,59.2,741.6z"/>
		<path class="st14" d="M61.5,736l-0.4,0.7l0.7,0.4l-0.4,0.7l0.7,0.4l4.7-8.1l-0.7-0.4c0,0,0,0,0,0l0,0c0,0,0,0,0,0l-3.8,6.6
			C62,736.2,61.7,736.1,61.5,736z"/>
		<path class="st14" d="M68.3,731.1l-3.9,6.6l0.7,0.4l1.7-3c0.2,0,1.4,0.8,1.5,0.9c0.2,0.2,1.6,0.9,1.9,1.1c0,0,0.1,0-0.1-0.1
			l-1.5-0.8c-0.4-0.2-0.3-0.1,0.1-0.9l-1.1-0.6c-0.1-0.1-0.2-0.1-0.3-0.2l1.7-2.9c-0.2-0.1-0.3-0.2-0.6-0.4
			C68.4,731.1,68.4,731.1,68.3,731.1z"/>
		<path class="st14" d="M70.2,738.1l0.4-0.7c-0.1-0.1-0.2-0.2-0.4-0.2c-0.3-0.2-1.7-0.9-1.9-1.1l-1.7,2.9l0.7,0.4l1.3-2.2
			L70.2,738.1z"/>
		<path class="st14" d="M59.1,736.7c-0.1,0.1-0.1,0.1-0.2,0.3c-0.1,0.1-0.1,0.3-0.2,0.4l0.7,0.4c-0.1,0.2-0.7,1.3-0.8,1.5l0.7,0.4
			l-0.6,1.1c-0.1,0.2-0.1,0.2-0.2,0.4l0.7,0.4c0.3-0.4,0.7-1,0.9-1.5l-0.7-0.4l0.8-1.5l-0.7-0.4l0.4-0.7
			C59.6,736.9,59.4,736.7,59.1,736.7z"/>
		<path class="st14" d="M59.1,736.6l0.9-1.5l1.5,0.8l0.2-0.4c0.1-0.1,0.1-0.2,0.2-0.4l-2-1.1c-0.3-0.2-0.2-0.2-0.5,0.2l-0.9,1.6
			c-0.1,0.2-0.2,0.2,0,0.3C58.6,736.4,59,736.6,59.1,736.6z"/>
		<path class="st14" d="M71.2,739.7c0.1,0,0,0,0.1-0.1c0,0,0.1-0.1,0.1-0.1c0-0.2,0.2-0.4,0.3-0.6l-1.5-0.8l-1.7,3l0.7,0.4l1.3-2.2
			C70.7,739.3,71.1,739.5,71.2,739.7z"/>
		<path class="st14" d="M68.3,731c0.1-0.2,0.3-0.5,0.4-0.7l-1.5-0.8l-0.4,0.7L68.3,731z"/>
		<path class="st14" d="M71.2,739.7c0,0.2-0.4,0.6-0.4,0.7c0,0.1,0.6,0.4,0.7,0.5c0.2,0.1,0.5,0.3,0.7,0.4l-1.4,2.5l1.5-2.5
			l-0.7-0.4c0.1-0.1,0.1-0.2,0.2-0.4c0.1-0.1,0.2-0.3,0.2-0.4c-0.8-0.5-0.8-0.3-0.6-0.6c0,0-0.1,0.1-0.1,0.1
			C71.2,739.7,71.3,739.7,71.2,739.7z"/>
	</g>
	<path class="st12" d="M95.9,737.9h-2.5l2.1-7.2l-4.3,7.2h-2.6l-0.5-7.3l-1.8,7.3h-2.6l2.9-10.9h3.5l0.5,7.7l4.6-7.7h3.5L95.9,737.9
		z M105.4,737.9h-5.6c-0.8,0-1.3-0.2-1.7-0.6c-0.4-0.4-0.4-1-0.2-1.8c0.3-0.9,0.7-1.6,1.3-2c0.6-0.4,1.5-0.6,2.6-0.6h2.5
		c0.1-0.4,0.1-0.7-0.1-0.8c-0.2-0.2-0.6-0.2-1.3-0.2h-3.6l0.5-2h4.3c1.1,0,1.9,0.3,2.3,0.8c0.4,0.5,0.5,1.3,0.2,2.3L105.4,737.9z
		 M103.4,735.9l0.3-1.2h-2.2c-0.4,0-0.7,0-0.9,0.1c-0.2,0.1-0.3,0.3-0.3,0.5c-0.1,0.2-0.1,0.3,0,0.4c0,0,0.1,0.1,0.2,0.1
		c0.1,0,0.3,0,0.5,0H103.4z M114.2,737.9h-2.4l1.3-4.9c0.1-0.5,0.2-0.8,0-1c-0.1-0.1-0.4-0.2-0.9-0.2h-1.4l-1.6,6.1h-2.4l2.2-8.1h4
		c1.2,0,2,0.2,2.4,0.7c0.4,0.5,0.5,1.2,0.2,2.3L114.2,737.9z M122.9,737.9h-2.4l1.3-4.9c0.1-0.5,0.1-0.8,0-0.9
		c-0.1-0.1-0.2-0.1-0.3-0.2c-0.1,0-0.3-0.1-0.6-0.1l-1.4,0l-1.6,6.1h-2.4l2.9-10.9h2.4l-0.8,2.8h1.6c1.2,0,2,0.2,2.4,0.7
		c0.4,0.5,0.5,1.2,0.2,2.3L122.9,737.9z M132.1,737.9h-5.6c-0.8,0-1.3-0.2-1.7-0.6c-0.4-0.4-0.4-1-0.2-1.8c0.3-0.9,0.7-1.6,1.3-2
		c0.6-0.4,1.5-0.6,2.6-0.6h2.5c0.1-0.4,0.1-0.7-0.1-0.8c-0.2-0.2-0.6-0.2-1.3-0.2h-3.6l0.5-2h4.3c1.1,0,1.9,0.3,2.3,0.8
		c0.4,0.5,0.5,1.3,0.2,2.3L132.1,737.9z M130.2,735.9l0.3-1.2h-2.2c-0.4,0-0.7,0-0.9,0.1c-0.2,0.1-0.3,0.3-0.3,0.5
		c-0.1,0.2,0,0.3,0,0.4c0,0,0.1,0.1,0.2,0.1c0.1,0,0.3,0,0.5,0H130.2z M136,737.9h-2.5l2.9-10.9h2.5L136,737.9z M141.6,737.9h-2.1
		l0.6-2.2h2.1L141.6,737.9z M149.4,737.9h-2.9c-0.4,0-0.7,0-1-0.1c-0.3,0-0.5-0.1-0.8-0.2c-0.4-0.1-0.8-0.4-1-0.8
		c-0.1-0.2-0.2-0.4-0.3-0.6c-0.1-0.2-0.2-0.5-0.2-0.7c0-0.3,0-0.5,0-0.8c0-0.3,0.1-0.6,0.2-0.9c0.2-0.6,0.4-1.2,0.8-1.7
		c0.3-0.5,0.7-1,1.3-1.4c0.4-0.3,0.9-0.6,1.4-0.7c0.5-0.2,1.1-0.2,1.9-0.2h2.9l-0.5,2h-2.3c-0.5,0-0.9,0-1.2,0.1
		c-0.3,0.1-0.6,0.2-0.8,0.4c-0.4,0.3-0.7,0.8-0.9,1.6c-0.1,0.4-0.1,0.8-0.1,1.1c0.1,0.3,0.1,0.6,0.4,0.7l0.4,0.2c0.1,0,0.3,0,0.4,0
		c0.1,0,0.4,0,0.6,0h2.3L149.4,737.9z M159.5,733.8c-0.3,1.3-1,2.3-2,3.1c-1,0.8-2.1,1.1-3.4,1.1c-1.3,0-2.2-0.4-2.8-1.1
		c-0.6-0.8-0.7-1.8-0.3-3.1c0.3-1.3,1-2.3,2-3c1-0.8,2.1-1.1,3.4-1.1c1.3,0,2.2,0.4,2.8,1.1C159.7,731.5,159.8,732.5,159.5,733.8z
		 M157,733.8c0.2-0.7,0.1-1.2-0.1-1.6c-0.2-0.4-0.6-0.6-1.1-0.6c-0.5,0-1,0.2-1.4,0.6c-0.4,0.4-0.7,0.9-0.9,1.6
		c-0.1,0.4-0.1,0.7-0.1,0.9c0,0.3,0.1,0.5,0.2,0.7c0.2,0.4,0.6,0.6,1.1,0.6c0.6,0,1-0.2,1.4-0.6C156.5,735,156.8,734.5,157,733.8z
		 M170.6,737.9h-2.4l1.3-4.9c0.1-0.5,0.2-0.8,0.1-1c-0.1-0.2-0.4-0.2-0.9-0.2l-0.9,0l-1.6,6.1h-2.4l1.6-6.1h-2l-1.6,6.1h-2.4
		l2.2-8.1h8c1.2,0,2,0.2,2.4,0.7c0.4,0.5,0.5,1.2,0.2,2.3L170.6,737.9z"/>
	<path class="st12" d="M28.9,729.8l21.2-2.2c0.2,0,0.5,0,0.7,0c0.5,0.1,1,0.3,1.4,0.7c0.4,0.3,0.6,0.8,0.7,1.3c0,0.2,0,0.4,0,0.6
		l-3.7,9.6c-0.1,0.7-0.5,1.3-1,1.7c-0.5,0.4-1.1,0.7-1.8,0.7H31.8c-0.7,0-1.3-0.3-1.8-0.7h0c-0.5-0.4-0.8-1.1-1-1.7l-2.9-7.4
		c0-0.1,0-0.1,0-0.2c-0.1-0.6,0.2-1.2,0.7-1.6c0.5-0.4,1.1-0.6,1.7-0.8C28.7,729.8,28.8,729.8,28.9,729.8z M48.6,729.7l-19.8,2.1
		c-0.1,0-0.2,0-0.2,0c-0.4,0.1-0.9,0.3-1.2,0.5c-0.3,0.2-0.4,0.5-0.4,0.8c0,0,0,0.1,0,0.1l2.7,6.5c0.1,0.5,0.3,0.9,0.7,1.2
		c0.3,0.2,0.6,0.4,1,0.4h13.6c0.4,0,0.8-0.1,1-0.4c0.3-0.3,0.5-0.7,0.7-1.2l3.4-8.6c0-0.1,0-0.2,0-0.3c0-0.3-0.2-0.5-0.4-0.7
		c-0.2-0.2-0.5-0.4-0.8-0.4C48.9,729.7,48.7,729.7,48.6,729.7z"/>
	<path class="st12" d="M88.6,723.5l-0.5,1.7h-0.6l1.2-4.5H90c0.3,0,0.5,0,0.7,0.1c0.2,0.1,0.3,0.2,0.4,0.3c0.1,0.1,0.2,0.3,0.2,0.4
		c0,0.2,0,0.4-0.1,0.6c-0.1,0.2-0.1,0.4-0.3,0.6c-0.1,0.2-0.3,0.3-0.4,0.4c-0.2,0.1-0.4,0.2-0.6,0.3c-0.2,0.1-0.5,0.1-0.7,0.1H88.6z
		 M88.7,723h0.7c0.2,0,0.3,0,0.5-0.1c0.1,0,0.3-0.1,0.4-0.2c0.1-0.1,0.2-0.2,0.3-0.3c0.1-0.1,0.1-0.2,0.2-0.4
		c0.1-0.3,0.1-0.5-0.1-0.7c-0.1-0.2-0.4-0.2-0.7-0.2h-0.7L88.7,723z"/>
	<path id="_x31__36_" class="st12" d="M93.2,722c0.2,0,0.4,0,0.6,0.1c0.2,0.1,0.3,0.2,0.4,0.3c0.1,0.1,0.1,0.3,0.2,0.5
		c0,0.2,0,0.4-0.1,0.7c-0.1,0.3-0.2,0.5-0.3,0.7c-0.1,0.2-0.3,0.4-0.4,0.5c-0.2,0.1-0.4,0.3-0.6,0.3c-0.2,0.1-0.4,0.1-0.7,0.1
		c-0.2,0-0.4,0-0.6-0.1c-0.2-0.1-0.3-0.2-0.4-0.3c-0.1-0.1-0.1-0.3-0.2-0.5c0-0.2,0-0.4,0.1-0.7c0.1-0.3,0.2-0.5,0.3-0.7
		c0.1-0.2,0.3-0.4,0.4-0.5c0.2-0.1,0.4-0.3,0.6-0.3C92.8,722,93,722,93.2,722z M92.5,724.8c0.3,0,0.6-0.1,0.8-0.3
		c0.2-0.2,0.4-0.5,0.5-0.9c0.1-0.4,0.1-0.7,0-0.9c-0.1-0.2-0.3-0.3-0.6-0.3c-0.2,0-0.3,0-0.4,0.1c-0.1,0.1-0.3,0.1-0.4,0.2
		c-0.1,0.1-0.2,0.2-0.3,0.4c-0.1,0.1-0.1,0.3-0.2,0.5c0,0.2-0.1,0.4-0.1,0.5c0,0.1,0,0.3,0.1,0.4c0.1,0.1,0.1,0.2,0.2,0.2
		C92.2,724.8,92.3,724.8,92.5,724.8z"/>
	<path id="_x32__36_" class="st12" d="M95,722h0.4c0,0,0.1,0,0.1,0c0,0,0,0,0,0.1l0.1,2c0,0.1,0,0.1,0,0.2c0,0.1,0,0.1,0,0.2
		c0-0.1,0.1-0.1,0.1-0.2c0-0.1,0.1-0.1,0.1-0.2l1.2-2.1c0,0,0-0.1,0.1-0.1c0,0,0.1,0,0.1,0h0.2c0,0,0.1,0,0.1,0c0,0,0,0,0,0.1
		l0.1,2.1c0,0.1,0,0.1,0,0.2c0,0.1,0,0.1,0,0.2c0-0.1,0.1-0.1,0.1-0.2c0-0.1,0.1-0.1,0.1-0.2l1.2-2c0,0,0-0.1,0.1-0.1
		c0,0,0.1,0,0.1,0h0.4l-1.9,3.2h-0.4c-0.1,0-0.1,0-0.1-0.1l-0.1-2.2c0,0,0-0.1,0-0.1c0-0.1,0-0.1,0-0.1c0,0,0,0.1-0.1,0.1
		c0,0,0,0.1-0.1,0.1l-1.3,2.2c0,0.1-0.1,0.1-0.2,0.1h-0.4L95,722z"/>
	<path id="_x33__36_" class="st12" d="M101.5,721.9c0.2,0,0.4,0,0.5,0.1c0.1,0.1,0.3,0.2,0.3,0.3c0.1,0.1,0.1,0.3,0.2,0.4
		c0,0.2,0,0.4-0.1,0.6c0,0.1,0,0.1-0.1,0.2c0,0-0.1,0-0.1,0h-2.1c-0.1,0.2-0.1,0.4-0.1,0.5c0,0.1,0,0.3,0.1,0.4
		c0.1,0.1,0.1,0.2,0.3,0.2c0.1,0,0.2,0.1,0.4,0.1c0.1,0,0.3,0,0.4,0c0.1,0,0.2-0.1,0.3-0.1c0.1,0,0.2-0.1,0.2-0.1
		c0.1,0,0.1-0.1,0.1-0.1c0,0,0.1,0,0.1,0.1l0.1,0.2c-0.1,0.1-0.2,0.2-0.3,0.2c-0.1,0.1-0.2,0.1-0.3,0.2c-0.1,0-0.2,0.1-0.4,0.1
		c-0.1,0-0.2,0-0.4,0c-0.2,0-0.4,0-0.6-0.1c-0.2-0.1-0.3-0.2-0.4-0.3c-0.1-0.1-0.2-0.3-0.2-0.5c0-0.2,0-0.5,0.1-0.7
		c0.1-0.2,0.1-0.4,0.3-0.6c0.1-0.2,0.3-0.4,0.4-0.5c0.2-0.1,0.4-0.3,0.6-0.3C101.1,722,101.3,721.9,101.5,721.9z M101.4,722.4
		c-0.3,0-0.5,0.1-0.7,0.2c-0.2,0.2-0.4,0.4-0.5,0.6h1.7c0-0.1,0.1-0.3,0-0.4c0-0.1,0-0.2-0.1-0.3c0-0.1-0.1-0.1-0.2-0.2
		C101.6,722.4,101.5,722.4,101.4,722.4z"/>
	<path id="_x34__36_" class="st12" d="M102.7,725.2l0.9-3.2h0.3c0.1,0,0.1,0,0.1,0c0,0,0,0.1,0,0.1l-0.1,0.5
		c0.2-0.2,0.4-0.4,0.5-0.5c0.2-0.1,0.4-0.2,0.6-0.2c0.1,0,0.2,0,0.2,0c0.1,0,0.1,0,0.2,0.1l-0.2,0.4c0,0.1-0.1,0.1-0.1,0.1
		c0,0-0.1,0-0.1,0c-0.1,0-0.1,0-0.2,0c-0.2,0-0.4,0.1-0.5,0.2c-0.2,0.1-0.3,0.3-0.5,0.5l-0.5,2H102.7z"/>
	<path id="_x35__36_" class="st12" d="M107.3,721.9c0.2,0,0.4,0,0.5,0.1c0.1,0.1,0.3,0.2,0.3,0.3c0.1,0.1,0.1,0.3,0.2,0.4
		c0,0.2,0,0.4-0.1,0.6c0,0.1,0,0.1-0.1,0.2c0,0-0.1,0-0.1,0H106c-0.1,0.2-0.1,0.4-0.1,0.5c0,0.1,0,0.3,0.1,0.4
		c0.1,0.1,0.1,0.2,0.3,0.2c0.1,0,0.2,0.1,0.4,0.1c0.1,0,0.3,0,0.4,0c0.1,0,0.2-0.1,0.3-0.1c0.1,0,0.2-0.1,0.2-0.1
		c0.1,0,0.1-0.1,0.1-0.1c0,0,0.1,0,0.1,0.1l0.1,0.2c-0.1,0.1-0.2,0.2-0.3,0.2c-0.1,0.1-0.2,0.1-0.3,0.2c-0.1,0-0.2,0.1-0.4,0.1
		c-0.1,0-0.2,0-0.4,0c-0.2,0-0.4,0-0.6-0.1c-0.2-0.1-0.3-0.2-0.4-0.3c-0.1-0.1-0.2-0.3-0.2-0.5c0-0.2,0-0.5,0.1-0.7
		c0.1-0.2,0.2-0.4,0.3-0.6c0.1-0.2,0.3-0.4,0.4-0.5c0.2-0.1,0.4-0.3,0.6-0.3C106.9,722,107.1,721.9,107.3,721.9z M107.2,722.4
		c-0.3,0-0.5,0.1-0.7,0.2c-0.2,0.2-0.4,0.4-0.5,0.6h1.7c0-0.1,0-0.3,0-0.4c0-0.1,0-0.2-0.1-0.3c0-0.1-0.1-0.1-0.2-0.2
		C107.5,722.4,107.4,722.4,107.2,722.4z"/>
	<path id="_x36__36_" class="st12" d="M110.7,725.2c-0.1,0-0.1,0-0.1-0.1l0.1-0.4c-0.2,0.2-0.4,0.3-0.6,0.4
		c-0.2,0.1-0.4,0.1-0.6,0.1c-0.2,0-0.3,0-0.5-0.1c-0.1-0.1-0.2-0.2-0.3-0.3c-0.1-0.1-0.1-0.3-0.1-0.5c0-0.2,0-0.4,0.1-0.7
		c0.1-0.2,0.2-0.5,0.3-0.7c0.1-0.2,0.3-0.4,0.4-0.5c0.2-0.2,0.3-0.3,0.5-0.4c0.2-0.1,0.4-0.1,0.6-0.1c0.2,0,0.4,0,0.5,0.1
		c0.1,0.1,0.2,0.2,0.3,0.3l0.5-1.8h0.6l-1.2,4.6H110.7z M109.8,724.8c0.2,0,0.4,0,0.5-0.1c0.2-0.1,0.3-0.2,0.5-0.4l0.4-1.5
		c-0.1-0.1-0.2-0.2-0.3-0.3c-0.1-0.1-0.2-0.1-0.4-0.1c-0.3,0-0.6,0.1-0.8,0.3c-0.2,0.2-0.4,0.5-0.5,0.9c-0.1,0.2-0.1,0.4-0.1,0.5
		c0,0.1,0,0.3,0.1,0.4c0,0.1,0.1,0.2,0.2,0.2C109.5,724.8,109.6,724.8,109.8,724.8z"/>
	<path id="_x37__36_" class="st12" d="M113.2,725.2l1.2-4.6h0.6l-0.5,1.9c0.2-0.2,0.4-0.3,0.6-0.4c0.2-0.1,0.4-0.1,0.6-0.1
		c0.2,0,0.3,0,0.5,0.1c0.1,0.1,0.2,0.2,0.3,0.3c0.1,0.1,0.1,0.3,0.1,0.5c0,0.2,0,0.4-0.1,0.7c-0.1,0.2-0.2,0.5-0.3,0.7
		c-0.1,0.2-0.3,0.4-0.4,0.5c-0.2,0.1-0.3,0.3-0.5,0.3c-0.2,0.1-0.4,0.1-0.6,0.1c-0.2,0-0.4,0-0.5-0.1c-0.1-0.1-0.2-0.2-0.3-0.3
		l-0.1,0.3c0,0.1-0.1,0.1-0.2,0.1H113.2z M115.4,722.4c-0.2,0-0.4,0-0.5,0.1c-0.2,0.1-0.3,0.2-0.5,0.4l-0.4,1.5
		c0.1,0.1,0.1,0.2,0.3,0.3c0.1,0.1,0.2,0.1,0.4,0.1c0.3,0,0.6-0.1,0.8-0.3c0.2-0.2,0.4-0.5,0.5-0.9c0.1-0.2,0.1-0.4,0.1-0.5
		c0-0.1,0-0.3-0.1-0.4c0-0.1-0.1-0.2-0.2-0.2C115.6,722.4,115.5,722.4,115.4,722.4z"/>
	<path id="_x38__36_" class="st12" d="M117.3,726.1c0,0-0.1,0.1-0.1,0.1c0,0-0.1,0-0.1,0h-0.4l0.9-1.2l-0.5-3h0.5c0,0,0.1,0,0.1,0
		c0,0,0,0,0,0.1l0.3,2c0,0,0,0.1,0,0.1c0,0,0,0.1,0,0.1c0,0,0.1-0.1,0.1-0.1c0,0,0.1-0.1,0.1-0.1l1.4-2c0,0,0.1-0.1,0.1-0.1
		c0,0,0.1,0,0.1,0h0.4L117.3,726.1z"/>
	<path id="_x39__36_" class="st12" d="M119.9,724.8c0-0.1,0-0.1,0.1-0.2c0-0.1,0.1-0.1,0.1-0.1c0,0,0.1-0.1,0.1-0.1
		c0.1,0,0.1,0,0.2,0c0.1,0,0.1,0,0.1,0c0,0,0.1,0,0.1,0.1c0,0,0,0.1,0.1,0.1c0,0,0,0.1,0,0.2c0,0.1,0,0.1-0.1,0.2
		c0,0-0.1,0.1-0.1,0.1c0,0-0.1,0.1-0.1,0.1c-0.1,0-0.1,0-0.2,0c-0.1,0-0.1,0-0.1,0c0,0-0.1,0-0.1-0.1c0,0,0-0.1,0-0.1
		C119.9,724.9,119.9,724.9,119.9,724.8z M120.5,722.5c0-0.1,0-0.1,0.1-0.2c0,0,0.1-0.1,0.1-0.1c0,0,0.1-0.1,0.1-0.1
		c0.1,0,0.1,0,0.2,0c0.1,0,0.1,0,0.1,0c0,0,0.1,0,0.1,0.1c0,0,0,0.1,0.1,0.1c0,0,0,0.1,0,0.2c0,0.1,0,0.1-0.1,0.2
		c0,0-0.1,0.1-0.1,0.1c0,0-0.1,0.1-0.1,0.1c-0.1,0-0.1,0-0.2,0c-0.1,0-0.1,0-0.1,0c0,0-0.1,0-0.1-0.1c0,0,0-0.1,0-0.1
		C120.5,722.6,120.5,722.5,120.5,722.5z"/>
	<path class="st12" d="M127,740.3l-0.1,0.5h-2.3l-0.4,1.6h1.8l-0.1,0.5H124l-0.4,1.6h2.3l-0.1,0.5h-2.9l1.3-4.8H127z M127,742.8h1.6
		l-0.1,0.5h-1.6L127,742.8z M129.7,744.5h2.1l-0.1,0.5h-2.7l1.3-4.8h0.6L129.7,744.5z M134.4,741.6c0.2,0,0.4,0,0.5,0.1
		c0.2,0.1,0.3,0.2,0.4,0.3c0.1,0.1,0.1,0.3,0.2,0.5c0,0.2,0,0.4-0.1,0.6c0,0.1-0.1,0.2-0.1,0.2c0,0-0.1,0-0.1,0h-2.2
		c-0.1,0.2-0.1,0.4-0.1,0.6c0,0.2,0,0.3,0.1,0.4c0.1,0.1,0.2,0.2,0.3,0.2c0.1,0.1,0.3,0.1,0.4,0.1c0.1,0,0.3,0,0.4-0.1
		c0.1,0,0.2-0.1,0.3-0.1c0.1,0,0.2-0.1,0.2-0.1c0.1,0,0.1-0.1,0.1-0.1c0,0,0.1,0,0.1,0.1l0.1,0.2c-0.1,0.1-0.2,0.2-0.3,0.2
		c-0.1,0.1-0.2,0.1-0.4,0.2c-0.1,0-0.3,0.1-0.4,0.1c-0.1,0-0.3,0-0.4,0c-0.2,0-0.4,0-0.6-0.1c-0.2-0.1-0.3-0.2-0.4-0.3
		c-0.1-0.2-0.2-0.3-0.2-0.6c0-0.2,0-0.5,0.1-0.8c0.1-0.2,0.2-0.5,0.3-0.7c0.1-0.2,0.3-0.4,0.5-0.5c0.2-0.1,0.4-0.3,0.6-0.4
		C133.9,741.6,134.1,741.6,134.4,741.6z M134.3,742c-0.3,0-0.5,0.1-0.7,0.2c-0.2,0.2-0.4,0.4-0.5,0.7h1.8c0-0.1,0.1-0.3,0-0.4
		c0-0.1,0-0.2-0.1-0.3c-0.1-0.1-0.1-0.1-0.2-0.2C134.5,742.1,134.4,742,134.3,742z M138.1,745h-0.3c-0.1,0-0.1,0-0.1,0
		c0,0,0-0.1,0-0.1l0-0.3c-0.1,0.1-0.2,0.2-0.3,0.2c-0.1,0.1-0.2,0.1-0.3,0.2c-0.1,0-0.2,0.1-0.3,0.1c-0.1,0-0.2,0-0.4,0
		c-0.1,0-0.2,0-0.4-0.1c-0.1,0-0.2-0.1-0.3-0.2c-0.1-0.1-0.1-0.2-0.1-0.3c0-0.1,0-0.2,0-0.4c0-0.1,0.1-0.3,0.2-0.4
		c0.1-0.1,0.3-0.2,0.4-0.3c0.2-0.1,0.4-0.2,0.7-0.2c0.3-0.1,0.6-0.1,1-0.1l0.1-0.3c0.1-0.3,0.1-0.5,0-0.6c-0.1-0.1-0.2-0.2-0.4-0.2
		c-0.1,0-0.3,0-0.4,0.1c-0.1,0-0.2,0.1-0.3,0.1c-0.1,0-0.2,0.1-0.2,0.1c-0.1,0-0.1,0.1-0.2,0.1c0,0-0.1,0-0.1,0c0,0,0,0-0.1-0.1
		l-0.1-0.2c0.2-0.2,0.5-0.3,0.7-0.4c0.2-0.1,0.5-0.1,0.8-0.1c0.2,0,0.3,0,0.5,0.1c0.1,0.1,0.2,0.1,0.3,0.3c0.1,0.1,0.1,0.2,0.1,0.4
		c0,0.2,0,0.3-0.1,0.5L138.1,745z M136.6,744.7c0.1,0,0.2,0,0.3,0s0.2-0.1,0.3-0.1c0.1,0,0.2-0.1,0.3-0.1c0.1-0.1,0.2-0.1,0.3-0.2
		l0.2-0.7c-0.3,0-0.5,0-0.7,0.1c-0.2,0-0.4,0.1-0.5,0.1c-0.1,0.1-0.2,0.1-0.3,0.2c-0.1,0.1-0.1,0.2-0.1,0.3c0,0.1,0,0.2,0,0.2
		c0,0.1,0,0.1,0.1,0.2c0,0,0.1,0.1,0.1,0.1C136.5,744.6,136.6,744.7,136.6,744.7z M139,745l0.9-3.4h0.3c0.1,0,0.1,0,0.1,0
		c0,0,0,0.1,0,0.1l-0.1,0.6c0.2-0.2,0.4-0.4,0.6-0.6c0.2-0.1,0.4-0.2,0.6-0.2c0.1,0,0.2,0,0.2,0c0.1,0,0.1,0.1,0.2,0.1l-0.2,0.4
		c0,0.1-0.1,0.1-0.1,0.1c0,0-0.1,0-0.1,0c-0.1,0-0.1,0-0.3,0c-0.2,0-0.4,0.1-0.6,0.2c-0.2,0.1-0.3,0.3-0.5,0.5l-0.6,2.1H139z
		 M141.7,745l0.9-3.4h0.4c0.1,0,0.1,0,0.1,0.1l-0.1,0.4c0.2-0.2,0.4-0.3,0.6-0.4c0.2-0.1,0.4-0.2,0.7-0.2c0.2,0,0.3,0,0.5,0.1
		c0.1,0.1,0.2,0.1,0.3,0.3c0.1,0.1,0.1,0.2,0.1,0.4c0,0.2,0,0.3-0.1,0.5l-0.6,2.1h-0.6l0.6-2.1c0.1-0.3,0.1-0.5,0-0.6
		c-0.1-0.1-0.2-0.2-0.5-0.2c-0.2,0-0.3,0-0.5,0.1c-0.2,0.1-0.3,0.2-0.5,0.3l-0.7,2.5H141.7z M146.9,741.7L146,745h-0.6l0.9-3.4
		H146.9z M147.3,740.6c0,0.1,0,0.1-0.1,0.2c0,0-0.1,0.1-0.1,0.1c0,0-0.1,0.1-0.2,0.1c-0.1,0-0.1,0-0.2,0c-0.1,0-0.1,0-0.2,0
		c0,0-0.1-0.1-0.1-0.1c0,0,0-0.1-0.1-0.1c0,0,0-0.1,0-0.2c0-0.1,0-0.1,0.1-0.2c0-0.1,0.1-0.1,0.1-0.1c0,0,0.1-0.1,0.2-0.1
		c0.1,0,0.1,0,0.2,0c0.1,0,0.1,0,0.2,0c0,0,0.1,0.1,0.1,0.1c0,0,0,0.1,0.1,0.1C147.3,740.5,147.3,740.5,147.3,740.6z M147,745
		l0.9-3.4h0.4c0.1,0,0.1,0,0.1,0.1l-0.1,0.4c0.2-0.2,0.4-0.3,0.6-0.4c0.2-0.1,0.4-0.2,0.7-0.2c0.2,0,0.3,0,0.5,0.1
		c0.1,0.1,0.2,0.1,0.3,0.3c0.1,0.1,0.1,0.2,0.1,0.4c0,0.2,0,0.3-0.1,0.5l-0.6,2.1h-0.6l0.6-2.1c0.1-0.3,0.1-0.5,0-0.6
		c-0.1-0.1-0.2-0.2-0.5-0.2c-0.2,0-0.3,0-0.5,0.1c-0.2,0.1-0.3,0.2-0.5,0.3l-0.7,2.5H147z M152.8,741.6c0.1,0,0.3,0,0.4,0
		c0.1,0,0.2,0.1,0.3,0.1h0.9l-0.1,0.2c0,0.1-0.1,0.1-0.2,0.1l-0.4,0.1c0,0.1,0,0.3,0,0.5c0,0.2-0.1,0.3-0.2,0.4
		c-0.1,0.1-0.2,0.2-0.4,0.3c-0.1,0.1-0.3,0.2-0.5,0.2c-0.2,0-0.3,0.1-0.5,0.1c-0.2,0-0.3,0-0.4-0.1c-0.1,0-0.1,0.1-0.2,0.1
		c-0.1,0.1-0.1,0.1-0.1,0.2c0,0.1,0,0.1,0,0.2c0.1,0,0.1,0.1,0.2,0.1c0.1,0,0.2,0,0.4,0c0.1,0,0.3,0,0.4,0c0.1,0,0.3,0,0.4,0
		c0.1,0,0.2,0.1,0.3,0.1c0.1,0.1,0.2,0.1,0.2,0.2c0,0.1,0,0.2,0,0.4c0,0.1-0.1,0.3-0.2,0.4c-0.1,0.1-0.2,0.3-0.4,0.4
		c-0.2,0.1-0.3,0.2-0.6,0.3c-0.2,0.1-0.4,0.1-0.7,0.1c-0.2,0-0.5,0-0.6-0.1c-0.2,0-0.3-0.1-0.4-0.2c-0.1-0.1-0.2-0.2-0.2-0.3
		c0-0.1,0-0.2,0-0.3c0-0.2,0.1-0.3,0.3-0.4c0.1-0.1,0.3-0.2,0.5-0.3c-0.1,0-0.1-0.1-0.2-0.2c0-0.1,0-0.2,0-0.3c0,0,0-0.1,0.1-0.2
		c0-0.1,0.1-0.1,0.1-0.2c0-0.1,0.1-0.1,0.2-0.1c0.1,0,0.1-0.1,0.2-0.1c-0.1-0.1-0.2-0.2-0.3-0.4c-0.1-0.2-0.1-0.3,0-0.5
		c0-0.2,0.1-0.3,0.2-0.4c0.1-0.1,0.2-0.3,0.4-0.3c0.1-0.1,0.3-0.2,0.5-0.2C152.4,741.6,152.6,741.6,152.8,741.6z M152.9,745.2
		c0-0.1,0-0.2,0-0.2c0-0.1-0.1-0.1-0.2-0.1c-0.1,0-0.2,0-0.3-0.1c-0.1,0-0.2,0-0.3,0c-0.1,0-0.2,0-0.4,0c-0.1,0-0.2,0-0.3,0
		c-0.1,0.1-0.3,0.1-0.4,0.2c-0.1,0.1-0.2,0.2-0.2,0.3c0,0.1,0,0.1,0,0.2c0,0.1,0.1,0.1,0.1,0.2c0.1,0,0.2,0.1,0.3,0.1
		c0.1,0,0.3,0,0.4,0c0.2,0,0.3,0,0.4,0c0.1,0,0.3-0.1,0.4-0.1c0.1-0.1,0.2-0.1,0.3-0.2C152.8,745.4,152.8,745.3,152.9,745.2z
		 M152.3,743.4c0.1,0,0.2,0,0.3,0c0.1,0,0.2-0.1,0.3-0.1c0.1-0.1,0.1-0.1,0.2-0.2c0.1-0.1,0.1-0.2,0.1-0.3c0.1-0.2,0-0.4-0.1-0.5
		c-0.1-0.1-0.3-0.2-0.5-0.2c-0.2,0-0.4,0.1-0.6,0.2c-0.2,0.1-0.3,0.3-0.3,0.5c0,0.1,0,0.2,0,0.3c0,0.1,0,0.2,0.1,0.2
		c0,0.1,0.1,0.1,0.2,0.1C152.1,743.4,152.2,743.4,152.3,743.4z M160,740.3l-0.1,0.5h-1.5l-1.1,4.2h-0.6l1.1-4.2h-1.5l0.1-0.5H160z
		 M160.9,741.6c0.2,0,0.4,0,0.5,0.1c0.2,0.1,0.3,0.2,0.4,0.3c0.1,0.1,0.1,0.3,0.2,0.5c0,0.2,0,0.4-0.1,0.6c0,0.1,0,0.2-0.1,0.2
		c0,0-0.1,0-0.1,0h-2.2c-0.1,0.2-0.1,0.4-0.1,0.6c0,0.2,0,0.3,0.1,0.4c0.1,0.1,0.2,0.2,0.3,0.2c0.1,0.1,0.2,0.1,0.4,0.1
		c0.1,0,0.3,0,0.4-0.1c0.1,0,0.2-0.1,0.3-0.1c0.1,0,0.2-0.1,0.2-0.1c0.1,0,0.1-0.1,0.1-0.1c0,0,0.1,0,0.1,0.1l0.1,0.2
		c-0.1,0.1-0.2,0.2-0.3,0.2c-0.1,0.1-0.2,0.1-0.4,0.2c-0.1,0-0.3,0.1-0.4,0.1c-0.1,0-0.3,0-0.4,0c-0.2,0-0.4,0-0.6-0.1
		c-0.2-0.1-0.3-0.2-0.4-0.3c-0.1-0.2-0.2-0.3-0.2-0.6c0-0.2,0-0.5,0.1-0.8c0.1-0.2,0.2-0.5,0.3-0.7c0.1-0.2,0.3-0.4,0.5-0.5
		c0.2-0.1,0.4-0.3,0.6-0.4C160.4,741.6,160.6,741.6,160.9,741.6z M160.8,742c-0.3,0-0.5,0.1-0.7,0.2c-0.2,0.2-0.4,0.4-0.5,0.7h1.8
		c0-0.1,0-0.3,0-0.4c0-0.1,0-0.2-0.1-0.3c-0.1-0.1-0.1-0.1-0.2-0.2C161,742.1,160.9,742,160.8,742z M164.6,745h-0.3
		c-0.1,0-0.1,0-0.1,0c0,0,0-0.1,0-0.1l0-0.3c-0.1,0.1-0.2,0.2-0.3,0.2c-0.1,0.1-0.2,0.1-0.3,0.2c-0.1,0-0.2,0.1-0.3,0.1
		c-0.1,0-0.2,0-0.4,0c-0.1,0-0.2,0-0.4-0.1c-0.1,0-0.2-0.1-0.3-0.2c-0.1-0.1-0.1-0.2-0.1-0.3c0-0.1,0-0.2,0-0.4
		c0-0.1,0.1-0.3,0.2-0.4c0.1-0.1,0.3-0.2,0.4-0.3c0.2-0.1,0.4-0.2,0.7-0.2c0.3-0.1,0.6-0.1,1-0.1l0.1-0.3c0.1-0.3,0.1-0.5,0-0.6
		c-0.1-0.1-0.2-0.2-0.4-0.2c-0.1,0-0.3,0-0.4,0.1c-0.1,0-0.2,0.1-0.3,0.1c-0.1,0-0.2,0.1-0.2,0.1c-0.1,0-0.1,0.1-0.2,0.1
		c0,0-0.1,0-0.1,0c0,0,0,0-0.1-0.1l-0.1-0.2c0.2-0.2,0.5-0.3,0.7-0.4c0.2-0.1,0.5-0.1,0.7-0.1c0.2,0,0.3,0,0.5,0.1
		c0.1,0.1,0.2,0.1,0.3,0.3c0.1,0.1,0.1,0.2,0.1,0.4c0,0.2,0,0.3-0.1,0.5L164.6,745z M163.1,744.7c0.1,0,0.2,0,0.3,0
		c0.1,0,0.2-0.1,0.3-0.1c0.1,0,0.2-0.1,0.3-0.1c0.1-0.1,0.2-0.1,0.3-0.2l0.2-0.7c-0.3,0-0.5,0-0.7,0.1c-0.2,0-0.4,0.1-0.5,0.1
		c-0.1,0.1-0.2,0.1-0.3,0.2c-0.1,0.1-0.1,0.2-0.2,0.3c0,0.1,0,0.2,0,0.2c0,0.1,0,0.1,0.1,0.2c0,0,0.1,0.1,0.1,0.1
		C163,744.6,163.1,744.7,163.1,744.7z M165.5,745l0.9-3.4h0.3c0.1,0,0.1,0,0.1,0.1l0,0.3c0.2-0.2,0.3-0.3,0.5-0.4
		c0.2-0.1,0.4-0.1,0.6-0.1c0.2,0,0.4,0.1,0.5,0.2c0.1,0.1,0.2,0.3,0.2,0.5c0.1-0.1,0.2-0.2,0.3-0.3c0.1-0.1,0.2-0.2,0.3-0.2
		c0.1-0.1,0.2-0.1,0.3-0.1c0.1,0,0.2,0,0.3,0c0.2,0,0.3,0,0.5,0.1c0.1,0.1,0.2,0.1,0.3,0.2c0.1,0.1,0.1,0.2,0.1,0.4
		c0,0.2,0,0.3-0.1,0.5L170,745h-0.6l0.6-2.1c0.1-0.3,0.1-0.5,0-0.6c-0.1-0.1-0.2-0.2-0.4-0.2c-0.1,0-0.2,0-0.3,0.1
		c-0.1,0-0.2,0.1-0.3,0.2c-0.1,0.1-0.2,0.2-0.2,0.3c-0.1,0.1-0.1,0.2-0.2,0.4L168,745h-0.6l0.6-2.1c0.1-0.3,0.1-0.5,0-0.6
		c-0.1-0.1-0.2-0.2-0.4-0.2c-0.1,0-0.3,0-0.4,0.1c-0.1,0.1-0.3,0.2-0.4,0.3l-0.7,2.5H165.5z"/>
</g>
<g>
	<g>
		<linearGradient id="SVGID_9_" gradientUnits="userSpaceOnUse" x1="759.4241" y1="143.1312" x2="959.6018" y2="143.1312">
			<stop  offset="0" style="stop-color:#FFFFFF;stop-opacity:0"/>
			<stop  offset="4.017906e-002" style="stop-color:#FDEBEE;stop-opacity:4.051906e-002"/>
			<stop  offset="0.1257" style="stop-color:#FAC6CE;stop-opacity:0.1267"/>
			<stop  offset="0.2187" style="stop-color:#F7A7B2;stop-opacity:0.2205"/>
			<stop  offset="0.3192" style="stop-color:#F58D9C;stop-opacity:0.3219"/>
			<stop  offset="0.4302" style="stop-color:#F3798A;stop-opacity:0.4338"/>
			<stop  offset="0.5573" style="stop-color:#F26C7E;stop-opacity:0.562"/>
			<stop  offset="0.7143" style="stop-color:#F16377;stop-opacity:0.7204"/>
			<stop  offset="0.9916" style="stop-color:#F16175"/>
		</linearGradient>
		<rect x="759.4" y="130.8" class="st15" width="200.2" height="24.7"/>
		<g>
			<g>
				<path class="st13" d="M899.6,147.7c-4.3,0-5.9-2-5.9-5.1c0-2.9,1.8-5.5,5.8-5.5c2.6,0,4.6,0.8,4.6,0.8v7.6h2.2v2.3H899.6z
					 M896,134.2c0-0.8,0.6-1.5,1.5-1.5c0.8,0,1.5,0.7,1.5,1.5c0,0.8-0.6,1.5-1.5,1.5C896.7,135.7,896,135,896,134.2z M901.4,139.8
					c0,0-0.8-0.4-2.1-0.4c-1.7,0-2.6,1.3-2.6,3c0,2,1,3.1,3.3,3.1h1.4V139.8z M899.7,134.2c0-0.8,0.6-1.5,1.5-1.5
					c0.8,0,1.5,0.7,1.5,1.5c0,0.8-0.6,1.5-1.5,1.5C900.3,135.7,899.7,135,899.7,134.2z"/>
				<path class="st13" d="M906,145.4h4.1v-8.1h2.9v10.3h-7V145.4z M907.9,152.5c-0.8,0-1.5-0.7-1.5-1.5c0-0.8,0.6-1.5,1.5-1.5
					c0.8,0,1.5,0.7,1.5,1.5C909.3,151.8,908.7,152.5,907.9,152.5z M911.5,152.5c-0.8,0-1.5-0.7-1.5-1.5c0-0.8,0.6-1.5,1.5-1.5
					c0.8,0,1.5,0.7,1.5,1.5C913,151.8,912.3,152.5,911.5,152.5z"/>
				<path class="st13" d="M913.2,153.1l0.2-2.3c0.5,0.2,1.1,0.3,1.8,0.3c1.5,0,2.4-0.7,2.4-3.1v-10.6h2.9v8.1h2.2v2.3h-2.2v0.1
					c0,2.8-0.9,5.5-5.4,5.5C914.3,153.3,913.7,153.2,913.2,153.1z"/>
				<path class="st13" d="M922.3,147.7v-2.3h1.9c0.6,0,1,0.1,1,0.1s-0.6-0.6-0.6-1.5c0-2.1,1.5-3.7,4.2-3.7c2.9,0,4,2,4,4.5v0.6h2.3
					v-0.3c0-4.6-1.8-6.8-6.2-6.8c-1.5,0-3.3,0.4-4.7,0.8l-0.3-2c1.6-0.5,3.6-0.9,5.3-0.9c5.5,0,8.6,2.6,8.6,9.1v0.1h1.6v2.3H922.3z
					 M930.4,144.8c0-1.6-0.6-2.7-1.9-2.7c-1,0-1.6,0.7-1.6,1.6c0,1.1,0.9,1.8,2.1,1.8h1.4V144.8z"/>
				<path class="st13" d="M939.1,145.4h8.5c0.1-0.5,0.1-1.1,0.1-1.7c0-2.8-1.1-4.2-4.3-4.2c-0.9,0-1.7,0.1-2.5,0.2v-2.3
					c0.9-0.1,1.9-0.2,2.8-0.2c5,0,6.9,2.2,6.9,6.4c0,1.1-0.1,2.5-0.4,4.1h-11.1V145.4z M942.8,151c0-0.8,0.7-1.5,1.5-1.5
					s1.5,0.7,1.5,1.5c0,0.8-0.7,1.5-1.5,1.5S942.8,151.9,942.8,151z"/>
			</g>
		</g>
		<g>
			<path class="st8" d="M716.7,145c0.1,0.4,0.2,0.8,0.2,1.1c0,0.9-0.6,1.7-1.9,2.2l-4.9,1.9c-1.5,0.6-2.8,1.1-2.8,2
				c0,0.1,0,0.1,0,0.2l-0.2,0.1c-0.1-0.4-0.2-0.8-0.2-1.1c0-0.9,0.5-1.7,1.9-2.3l4.9-1.9c1.7-0.7,2.8-1.1,2.8-2.2L716.7,145z"/>
			<path class="st8" d="M736.5,114.8c0-4.3,2.1-5.9,5.3-6.1v0.5c-2,0.3-2,3.7-2,7.4v2.2c0,5.5-4.5,10-9.9,10h-19.2
				c-11.9,0-18.5-5.2-18.5-14.1c0-2,0.3-3.9,1.1-5.8l0.4,0.3c-0.6,1.2-0.7,2.6-0.7,4.1c0,7.4,5.1,12.3,17.6,12.3h19.2
				c3.8,0,6.7-2.9,6.7-7.3V114.8z M716.8,138.3l-2.8-2.8l2.8-2.9l2.8,2.9L716.8,138.3z"/>
			<path class="st8" d="M753.6,149.4c0.1,0.4,0.2,0.8,0.2,1.1c0,0.9-0.6,1.7-1.9,2.2l-4.9,1.9c-1.5,0.6-2.8,1.1-2.8,2
				c0,0.1,0,0.1,0,0.2l-0.2,0.1c-0.1-0.4-0.2-0.8-0.2-1.1c0-0.9,0.5-1.7,1.9-2.3l4.9-1.9c1.7-0.7,2.8-1.1,2.8-2.2L753.6,149.4z"/>
			<path class="st8" d="M755.6,125.5h8.9v3.3h-8.9c0,5.9-1.5,10.5-5.1,14.3c-3.2,3.6-7.1,5.4-11.7,5.4c-2,0-3.9-0.4-5.9-1.2l0.3-0.6
				c1.3,0.7,2.7,1,4.2,1c8.1,0,15-7.4,15-18.9v-21.2h3.3V125.5z"/>
			<path class="st8" d="M780.3,82.1c0.3-0.2,0.7-0.3,1.1-0.3V82c-0.7,0.1-0.7,1.2-0.7,2.4v2c0,1.7-1.4,3.1-3.1,3.1
				c-1.9,0-3.4-1.1-3.4-2.8v-1.2c0-1.8,1.6-3.4,3.4-3.4H780.3z M777.7,83.2c-1.4,0-2.5,1-2.5,2.3v1.2c0,0.9,1,1.7,2.3,1.7
				c1,0,2.1-0.9,2.1-2.1v-2.5c0-0.2,0-0.5,0.1-0.6H777.7z"/>
			<path class="st8" d="M794,128.8h-29.6v-3.3h4.6c-1.7-1.7-2.5-4.1-2.5-6.3c0-5.1,4.5-9.6,9.7-9.6h6.9c3.4,0,6.8,0,7-2.2h0.5
				c0,3.4-1.9,5.4-5.8,5.4h-8.2c-4.2,0-7.1,2.7-7.1,6.4s2.8,6.2,6.7,6.3H794V128.8z M781.6,102.3l-2.8-2.8l2.8-2.9l2.8,2.9
				L781.6,102.3z"/>
			<path class="st8" d="M809.3,97.8c0.1,0.4,0.2,0.8,0.2,1.1c0,0.9-0.6,1.7-1.9,2.2l-4.9,1.9c-1.5,0.6-2.8,1.1-2.8,2
				c0,0.1,0,0.1,0,0.2l-0.2,0.1c-0.1-0.4-0.2-0.8-0.2-1.1c0-0.9,0.5-1.7,1.9-2.3l4.9-1.9c1.7-0.7,2.8-1.1,2.8-2.2L809.3,97.8z"/>
			<path class="st8" d="M800.7,125.5v-8.7c0-5.4,4.7-10.1,10.1-10.1h7.5c0.9-0.6,1.9-0.8,3.1-1v0.4c-1.9,0.4-2,3.8-2,7.3l-0.2,6.1
				c0,2.4,1.1,4.5,3.1,5.5c0.6,0.3,1.5,0.5,3,0.5v3.3c-3.5,0-6.1-1.3-7.8-4c-1.6,2.5-4.5,4-7.6,4h-16v-3.3H800.7z M811.3,109.9
				c-4.3,0-7.4,3.1-7.4,6.9v8.6h5.9c3.4,0,6.3-2.5,6.3-5.9v-7.7c0-0.8,0.1-1.4,0.2-1.9H811.3z"/>
			<path class="st8" d="M835.3,83.1c0.3-0.2,0.7-0.3,1.1-0.3V83c-0.7,0.1-0.7,1.2-0.7,2.4v2c0,1.7-1.4,3.1-3.1,3.1
				c-1.9,0-3.4-1.1-3.4-2.8v-1.2c0-1.8,1.6-3.4,3.4-3.4H835.3z M832.7,84.2c-1.4,0-2.5,1-2.5,2.3v1.2c0,0.9,1,1.7,2.3,1.7
				c1,0,2.1-0.9,2.1-2.1v-2.5c0-0.2,0-0.5,0.1-0.6H832.7z"/>
			<path class="st8" d="M829,90.6c3.1,0.1,5.3,1.7,5.3,6v21.6c0,4-2.5,7.9-6,9.6c-1.2,0.6-2.2,0.9-3,0.9v-3.3
				c2.4-0.2,5.8-2.8,5.8-7.3v-20c0-3.5,0-7-2.1-7.2V90.6z"/>
			<path class="st8" d="M841.7,98.7c0-5.7-0.2-7.3-2-7.5v-0.4c3.5,0.1,5.2,2.2,5.2,6.2v31.8h-3.3V98.7z"/>
			<path class="st8" d="M868.8,83.2c-1.3,2.3-3.3,3.5-5.2,3.5c-1.4,0-2.8-0.7-3.7-1.8l0.1-0.1c0.7,0.9,1.8,1.4,3,1.4
				c1.7,0,3.6-1,4.9-3.4l0.3-0.6c-0.2,0-0.4,0.1-0.6,0.1c-1.8,0-3.1-1.7-3.1-3.1c0-0.4,0.1-0.8,0.3-1.1l0.6-1c0.6-1,1.7-1.6,2.8-1.6
				c0.5,0,1,0.1,1.5,0.4l-0.4,0.9c-0.4-0.2-0.8-0.3-1.2-0.3c-0.8,0-1.5,0.4-1.9,1.1l-0.5,1c-0.1,0.2-0.2,0.4-0.2,0.6
				c0,0.8,0.8,2,2.1,2c0.5,0,0.9-0.2,1.3-0.5l1.7-3.1l-1.4-0.8l0.4-0.9L872,77c0.3,0,0.7,0.1,1,0.3l-0.1,0.1c-0.1,0-0.2,0-0.2,0
				c-0.5,0-0.9,0.9-1.4,1.7l-0.9,1.6L868.8,83.2z"/>
			<path class="st8" d="M878.3,106.6c0.8-0.5,1.9-0.7,3.1-0.8v0.5c-2.1,0.3-2.1,3.7-2.1,7.2v6c0,5.2-4.3,9.3-9.4,9.3
				c-5.4,0-10.2-3.6-10.2-8.3v-3.6c0-5.5,4.8-10.3,10.3-10.3H878.3z M870.6,109.8c-4.3,0-7.4,3.2-7.4,7v3.6c0,2.6,2.9,5.1,6.8,5.1
				c3.3,0,6.2-2.8,6.2-6.1v-7.6c0-0.9,0-1.4,0.3-2H870.6z M866.2,102.3l-2.9-2.9l2.9-2.8l2.9,2.8L866.2,102.3z M872,102.3l-2.9-2.9
				l2.9-2.8l2.9,2.8L872,102.3z"/>
			<path class="st8" d="M917.1,128.8c-3.4,0-6.6-1.6-8.3-4.5c-1,2-4.5,4.5-8,4.5h-17.1v-3.3h10.9v-13.1c0-3.7-0.2-7.2-2.2-7.5v-0.5
				c3.4,0.2,5.5,1.8,5.5,6.2v14.9h2.9c3.8,0,6.8-3.3,6.8-7.7V97.2c0-3.8-0.1-7.1-2.1-7.4v-0.5c3.3,0.1,5.4,1.8,5.4,6.1V120
				c0.3,3.3,2.8,5.2,6.2,5.5V128.8z"/>
			<path class="st8" d="M950.5,94.9c0.1,0.4,0.2,0.8,0.2,1.1c0,0.9-0.6,1.7-1.9,2.2l-4.9,1.9c-1.5,0.6-2.8,1.1-2.8,2
				c0,0.1,0,0.1,0,0.2l-0.2,0.1c-0.1-0.4-0.2-0.8-0.2-1.1c0-0.9,0.5-1.7,1.9-2.3l4.9-1.9c1.7-0.7,2.8-1.1,2.8-2.2L950.5,94.9z"/>
			<path class="st8" d="M959.6,128.8H917v-3.3h2.8c0.6-0.3,0.9-1.1,0.9-2.5c0-3.4-0.8-6.6-3.2-8.8l0.4-0.3c2.2,2.1,3.7,4.7,4.4,7.3
				c0.7-8.2,8.8-14.5,19.3-14.5h6.9c6.1,0.5,11.2,6.1,11.1,12.4V128.8z M956.3,125.5V119c0-3.8-1.7-6.5-5.1-8.1
				c-1.4-0.6-3.3-0.9-6.2-0.9h-3.4c-11.1,0-18.8,6.2-18.8,14.5v1H956.3z"/>
		</g>
	</g>
</g>
</svg>
