<?xml version="1.0" encoding="utf-8"?>
<!-- Generator: Adobe Illustrator 19.2.0, SVG Export Plug-In . SVG Version: 6.00 Build 0)  -->
<svg version="1.1" id="Layer_1" xmlns="http://www.w3.org/2000/svg" xmlns:xlink="http://www.w3.org/1999/xlink" x="0px" y="0px"
	 viewBox="0 0 1024 768" style="enable-background:new 0 0 1024 768;" xml:space="preserve">
<style type="text/css">
	.st0{fill:url(#SVGID_1_);}
	.st1{clip-path:url(#SVGID_3_);}
	.st2{fill:url(#SVGID_4_);}
	.st3{fill:#F68A1F;}
	.st4{filter:url(#Adobe_OpacityMaskFilter);}
	.st5{filter:url(#Adobe_OpacityMaskFilter_1_);}
	.st6{mask:url(#SVGID_5_);fill:url(#SVGID_6_);}
	.st7{fill:url(#SVGID_7_);}
	.st8{fill:#622872;}
	.st9{fill:url(#SVGID_8_);}
	.st10{fill:#CA4977;}
	.st11{fill:url(#SVGID_9_);}
	.st12{fill-rule:evenodd;clip-rule:evenodd;fill:#F6DFB4;}
	.st13{fill:#D2D3D4;}
	.st14{fill:#FFFFFF;}
	.st15{fill:#205B6A;}
	.st16{fill:url(#SVGID_10_);}
</style>
<g>
	<g>
		<g>
			<g>
				<linearGradient id="SVGID_1_" gradientUnits="userSpaceOnUse" x1="246.4476" y1="133.7057" x2="246.4476" y2="716.6967">
					<stop  offset="0" style="stop-color:#3553A4"/>
					<stop  offset="0.103" style="stop-color:#49559C"/>
					<stop  offset="0.3094" style="stop-color:#715B8A"/>
					<stop  offset="0.6003" style="stop-color:#A5676B"/>
					<stop  offset="0.9615" style="stop-color:#EB782B"/>
					<stop  offset="0.9949" style="stop-color:#F47A22"/>
				</linearGradient>
				<path class="st0" d="M396.7,262.4h-6.1c-1.8-28.2-25.9-59.6-71.7-93.4c-35-25.9-70.5-43.7-70.9-43.9c-1-0.5-2.2-0.5-3.1,0
					c-0.3,0.2-35.9,18-70.9,43.9c-45.7,33.8-69.8,65.2-71.7,93.4h-6.1c-1.9,0-3.5,1.6-3.5,3.5v360.2h307.5V266
					C400.2,264,398.6,262.4,396.7,262.4z"/>
			</g>
		</g>
	</g>
	<g>
		<defs>
			<path id="SVGID_2_" d="M396.7,262.4h-6.1c-1.8-28.2-25.9-59.6-71.7-93.4c-35-25.9-70.5-43.7-70.9-43.9c-1-0.5-2.2-0.5-3.1,0
				c-0.3,0.2-35.9,18-70.9,43.9c-45.7,33.8-69.8,65.2-71.7,93.4h-6.1c-1.9,0-3.5,1.6-3.5,3.5v360.2h307.5V266
				C400.2,264,398.6,262.4,396.7,262.4z"/>
		</defs>
		<clipPath id="SVGID_3_">
			<use xlink:href="#SVGID_2_"  style="overflow:visible;"/>
		</clipPath>
		<g class="st1">
			
				<radialGradient id="SVGID_4_" cx="173.8053" cy="661.8483" r="54.2731" fx="162.6649" fy="645.8047" gradientUnits="userSpaceOnUse">
				<stop  offset="0.1436" style="stop-color:#FBF067"/>
				<stop  offset="0.5314" style="stop-color:#FFDE00"/>
				<stop  offset="0.9166" style="stop-color:#F47D20"/>
			</radialGradient>
			<circle class="st2" cx="174.8" cy="664.4" r="48.7"/>
			<g>
				<path class="st3" d="M174.8,615.7c-26.9,0-48.7,21.8-48.7,48.7c0,26.9,21.8,48.7,48.7,48.7c26.9,0,48.7-21.8,48.7-48.7
					C223.5,637.5,201.7,615.7,174.8,615.7z M173.1,709.9c-25.1,0-45.5-20.4-45.5-45.5c0-25.1,20.4-45.5,45.5-45.5
					c25.1,0,45.5,20.4,45.5,45.5C218.6,689.5,198.2,709.9,173.1,709.9z"/>
				<path class="st3" d="M180.1,599.6c0,2.7-2,4.9-4.6,4.9l0,0c-2.5,0-4.6-2.2-4.6-4.9v-8.7c0-2.7,2-4.9,4.6-4.9l0,0
					c2.5,0,4.6,2.2,4.6,4.9V599.6z"/>
				<path class="st3" d="M180.1,732.8c0,2.7-2,4.9-4.6,4.9l0,0c-2.5,0-4.6-2.2-4.6-4.9v-8.7c0-2.7,2-4.9,4.6-4.9l0,0
					c2.5,0,4.6,2.2,4.6,4.9V732.8z"/>
				<path class="st3" d="M237.8,666.4c-2.7,0-4.9-2-4.9-4.6l0,0c0-2.5,2.2-4.6,4.9-4.6h8.7c2.7,0,4.9,2,4.9,4.6l0,0
					c0,2.5-2.2,4.6-4.9,4.6H237.8z"/>
				<path class="st3" d="M104.6,666.4c-2.7,0-4.9-2-4.9-4.6l0,0c0-2.5,2.2-4.6,4.9-4.6h8.7c2.7,0,4.9,2,4.9,4.6l0,0
					c0,2.5-2.2,4.6-4.9,4.6H104.6z"/>
				<path class="st3" d="M222.8,621.1c-1.9,1.9-4.9,2.1-6.7,0.3l0,0c-1.8-1.8-1.7-4.8,0.3-6.7l6.2-6.2c1.9-1.9,4.9-2.1,6.7-0.3l0,0
					c1.8,1.8,1.7,4.8-0.3,6.7L222.8,621.1z"/>
				<path class="st3" d="M128.6,715.3c-1.9,1.9-4.9,2.1-6.7,0.3l0,0c-1.8-1.8-1.7-4.8,0.3-6.7l6.2-6.2c1.9-1.9,4.9-2.1,6.7-0.3l0,0
					c1.8,1.8,1.7,4.8-0.3,6.7L128.6,715.3z"/>
				<path class="st3" d="M216.4,709.1c-1.9-1.9-2-4.9-0.3-6.7l0,0c1.8-1.8,4.8-1.7,6.7,0.3l6.2,6.2c1.9,1.9,2.1,4.9,0.3,6.7l0,0
					c-1.8,1.8-4.8,1.7-6.7-0.3L216.4,709.1z"/>
				<path class="st3" d="M122.1,614.9c-1.9-1.9-2-4.9-0.3-6.7l0,0c1.8-1.8,4.8-1.7,6.7,0.3l6.2,6.2c1.9,1.9,2.1,4.9,0.3,6.7l0,0
					c-1.8,1.8-4.8,1.7-6.7-0.3L122.1,614.9z"/>
			</g>
			<defs>
				<filter id="Adobe_OpacityMaskFilter" filterUnits="userSpaceOnUse" x="128.9" y="619.7" width="72.7" height="48.8">
					<feFlood  style="flood-color:white;flood-opacity:1" result="back"/>
					<feBlend  in="SourceGraphic" in2="back" mode="normal"/>
				</filter>
			</defs>
			<mask maskUnits="userSpaceOnUse" x="128.9" y="619.7" width="72.7" height="48.8" id="SVGID_5_">
				<g class="st4">
					<defs>
						<filter id="Adobe_OpacityMaskFilter_1_" filterUnits="userSpaceOnUse" x="128.9" y="619.7" width="72.7" height="48.8">
							<feFlood  style="flood-color:white;flood-opacity:1" result="back"/>
							<feBlend  in="SourceGraphic" in2="back" mode="normal"/>
						</filter>
					</defs>
					<mask maskUnits="userSpaceOnUse" x="128.9" y="619.7" width="72.7" height="48.8" id="SVGID_5_">
						<g class="st5">
						</g>
					</mask>
					
						<radialGradient id="SVGID_6_" cx="163.8452" cy="624.1143" r="50.6721" fx="181.0214" fy="598.0012" gradientUnits="userSpaceOnUse">
						<stop  offset="0.2627" style="stop-color:#FFFFFF"/>
						<stop  offset="0.7268" style="stop-color:#FFFFFF"/>
						<stop  offset="0.9716" style="stop-color:#000000"/>
					</radialGradient>
					<path class="st6" d="M143.6,630.5c9-9.2,32.2-15.4,48.6-6.2c16.4,9.2,11,26.7-15.4,25.7c-26.4-1-42.3,8.6-44.4,16.8
						C130.4,675,121.4,653.2,143.6,630.5z"/>
				</g>
			</mask>
			
				<radialGradient id="SVGID_7_" cx="163.8452" cy="624.1143" r="50.6721" fx="181.0214" fy="598.0012" gradientUnits="userSpaceOnUse">
				<stop  offset="0.2627" style="stop-color:#FFFFFF"/>
				<stop  offset="0.7268" style="stop-color:#FBF067"/>
				<stop  offset="0.9716" style="stop-color:#FFDE00"/>
			</radialGradient>
			<path class="st7" d="M143.6,630.5c9-9.2,32.2-15.4,48.6-6.2c16.4,9.2,11,26.7-15.4,25.7c-26.4-1-42.3,8.6-44.4,16.8
				C130.4,675,121.4,653.2,143.6,630.5z"/>
		</g>
	</g>
</g>
<g>
	<path class="st8" d="M740,213.8c0-0.8,0.7-1.5,1.5-1.5c0.8,0,1.5,0.7,1.5,1.5c0,0.8-0.7,1.5-1.5,1.5
		C740.7,215.3,740,214.6,740,213.8z M740,221.2c0-0.8,0.7-1.5,1.5-1.5c0.8,0,1.5,0.7,1.5,1.5c0,0.8-0.7,1.5-1.5,1.5
		C740.7,222.7,740,222,740,221.2z"/>
	<path class="st8" d="M756.1,201.2l5.7-1.1v1.2l-5.7,1.1V201.2z M756.1,203.6l5.7-1.1v1.2l-5.7,1.1V203.6z"/>
	<path class="st8" d="M763.7,221.2c0,0.4-0.2,1.2-1.5,1.2c-2.1,0-3.7-0.6-4.1-2.9c-1.8,2.2-4.4,3-7.2,3l-0.8-1.7l0.1-0.1
		c2.3,0,4.3-0.5,5.9-1.6c-1.3-2.5-3.4-4.6-6.1-7.1l0.7-1.9l0.2-0.1c3,2.7,5.4,6.1,6.4,8.1c0.3-0.3,0.5-0.6,0.7-1v-10.7l1.7-0.4
		l0.1,0.1v12.1c0,1.9,0.8,2.3,2.8,2.3C763.5,220.6,763.7,220.9,763.7,221.2z"/>
	<path class="st8" d="M766.7,214.4c0.7,1.7,1.2,3.3,1.2,4.3c0,1-0.4,2.2-1.2,2.9c-0.6,0.6-1.6,0.8-3.8,0.8h-0.7l0.5-1.9h0.7
		c1.2,0,2.1-0.1,2.5-0.3c0.5-1.2-0.2-2.9-1-4.7l1.5-1.2H766.7z M763.4,210.7c0.4,0,0.8,0,1.2,0c-0.3-0.4-0.5-1-0.5-1.5
		c0-1.3,0.8-2.1,2.2-2.1c0.6,0,1.2,0.1,1.8,0.4l-0.4,1.4c-0.5-0.2-0.9-0.3-1.2-0.3c-0.7,0-1,0.5-1,1c0,0.4,0.2,0.8,0.5,1.1
		c0.8,0,1.7-0.1,2.4-0.2l0.1,1.3c-1.3,0.2-3,0.3-5,0.4L763.4,210.7z"/>
	<path class="st8" d="M770.9,218.5v-12l1.7-0.4l0.1,0.1v12.1c0,1.9,0.8,2.3,2.8,2.3c0.8,0,1,0.3,1,0.6c0,0.4-0.2,1.2-1.5,1.2
		C772.8,222.5,770.9,221.6,770.9,218.5z"/>
	<path class="st8" d="M784.1,217.3c0,2.3-0.4,3.6-1.5,4.4c-1.3,0.7-3.1,0.8-7.6,0.8l0.5-1.9c4.6,0,6.1-0.2,6.8-0.5
		c0.1-0.3,0.1-0.8,0.2-1.5c-0.7,0.2-1.6,0.3-2.5,0.3c-2.1,0-3.1-1.1-3.1-2.8c0-2.2,1.6-4.6,3.5-4.6
		C782.8,211.5,784.1,214.3,784.1,217.3z M779.1,208.9l-1.9-1.4l1.2-1.8l1.9,1.3L779.1,208.9z M780.4,217.1c0.8,0,1.5-0.1,2.2-0.2
		c-0.1-1.7-1.1-3.5-2.2-3.5c-0.9,0-1.9,1.2-1.9,2.5C778.5,216.7,779.2,217.1,780.4,217.1z M782.4,208.9l-1.9-1.4l1.2-1.8l1.9,1.3
		L782.4,208.9z"/>
	<path class="st8" d="M792.4,222.2c0-1,0.2-2,0.4-2.7l1.5-0.5l0.2,0.1c-0.2,0.9-0.3,1.6-0.3,2.2c0,2.2,1.2,3.8,5.1,3.8
		c3.7,0,6.6-1,7-2.2c0-0.8-1.1-1.3-3.9-2l0.6-1.8c2.4,0.6,4.5,1.5,6.5,1.5c0.8,0,1,0.3,1,0.7c0,0.4-0.2,1.2-1.5,1.2h-0.9
		c-0.4,2.9-4,4.5-9.2,4.5C794.6,226.9,792.4,224.9,792.4,222.2z M795.5,230.6l1.2-1.8l1.9,1.3l-1.2,1.8L795.5,230.6z M799,230.6
		l1.2-1.8l1.9,1.3l-1.2,1.8L799,230.6z"/>
	<path class="st8" d="M818.1,221.2c0,0.4-0.2,1.2-1.4,1.2c-1,0-2.4-0.3-3.5-1.2c-0.8,0.8-1.9,1.2-3.6,1.2h-0.5l0.5-1.9h0.5
		c0.9,0,1.6-0.1,2-0.5c0.4-0.5,0.7-1.6,1.2-3.6l1.8-0.5l0.2,0.1c-0.3,1.5-0.7,2.7-1.2,3.7c0.5,0.3,1.4,0.7,3,0.7
		C817.9,220.6,818.1,220.9,818.1,221.2z M814.5,213.3l-2-1.4l1.2-1.8l2,1.3L814.5,213.3z"/>
	<path class="st8" d="M826.2,221.2c0,0.4-0.2,1.2-1.4,1.2c-1.5,0-2.9-0.3-3.9-1.2c-0.8,0.8-1.8,1.2-3.3,1.2h-0.8l0.5-1.9h0.7
		c0.7,0,1.4-0.1,1.8-0.5c0.3-0.5,0.7-1.6,1.2-3.6l1.8-0.5l0.2,0.1c-0.3,1.5-0.7,2.7-1.1,3.7c0.6,0.3,1.5,0.7,3.4,0.7
		C826,220.6,826.2,220.9,826.2,221.2z M818.7,224.3l1.9,1.3l-1.2,1.8l-1.9-1.4L818.7,224.3z M822.2,224.3l1.9,1.3l-1.2,1.8l-1.9-1.4
		L822.2,224.3z"/>
	<path class="st8" d="M838.9,221.2c0,0.7-0.6,1.2-1.5,1.2c-1,0-1.8-0.2-2.4-0.8c-0.4,0.7-0.9,1.1-1.9,1.1c-1.4,0-3.2-0.7-4.8-1.8
		c-1,1.3-1.7,1.5-3.6,1.5l0.5-1.9c1,0,1.3-0.3,2.1-1.5c0.9-1.5,2-4.4,4.3-4.4c1.8,0,2.6,1.8,3.5,3.7c0.9,1.8,1.3,2.1,2.8,2.1
		C838.7,220.6,838.9,220.8,838.9,221.2z M834,220.3c-0.1-0.1-0.1-0.3-0.2-0.4c-1-2.4-1.6-3.3-2.2-3.3c-0.9,0-1.7,1.5-2.4,2.9
		c1.2,0.8,2.7,1.4,3.5,1.4C833.3,220.9,833.7,220.7,834,220.3z"/>
	<path class="st8" d="M838,220.6h0.7c1.2,0,2.1-0.1,2.5-0.3c0.5-1.2-0.2-2.9-1-4.7l1.5-1.2h0.2c0.7,1.7,1.2,3.3,1.2,4.3
		c0,1-0.4,2.2-1.2,2.9c-0.6,0.6-1.6,0.8-3.8,0.8h-0.7L838,220.6z M837.7,226.1l1.2-1.8l1.9,1.3l-1.2,1.8L837.7,226.1z M841.1,226.1
		l1.2-1.8l1.9,1.3l-1.2,1.8L841.1,226.1z"/>
	<path class="st8" d="M867.5,221.2c0,0.4-0.2,1.2-1.5,1.2c-0.6,0-1.4-0.2-1.9-0.6c-0.5,3.4-3.3,5.1-6.9,5.1c-3.7,0-5.7-2.1-5.7-4.9
		c0-1,0.2-2.1,0.4-2.7l1.5-0.5l0.2,0.1c-0.2,0.8-0.2,1.6-0.2,2.2c0,2.4,0.9,4,4.2,4c2.7,0,3.9-1,4.6-1.8c0.8-1.8,0-3.6-1-6l1.7-1.2
		h0.1c0.3,0.8,0.7,2.3,1.2,3.2c0.5,1,1.2,1.4,2.2,1.4C867.2,220.6,867.5,220.9,867.5,221.2z M857.8,214.9l-2-1.4l1.2-1.8l2,1.3
		L857.8,214.9z"/>
	<path class="st8" d="M877.4,220.2l-0.6,1.7c-1.9,0.4-4.7,0.6-10.8,0.6l0.5-1.9c0.9,0,1.8,0,2.7,0c-0.6-0.9-1-2-1-3.1
		c0-2.5,2-4,4.6-4c1.2,0,2.4,0.4,3.2,0.8l-0.2,1.7l-0.1,0c-0.9-0.4-1.9-0.6-2.9-0.6c-1.6,0-2.6,0.8-2.6,2.1c0,0.9,0.5,2.1,1.4,3
		c2.1-0.1,3.9-0.2,5.6-0.4L877.4,220.2z"/>
	<path class="st8" d="M899.5,221.2c0,0.7-0.6,1.2-1.5,1.2c-1.1,0-1.9-0.3-2.5-0.9c-0.6,0.8-1.2,1.2-1.9,1.2c-1.7,0-3.5-1.2-5.4-3.5
		c-0.3,0.3-0.6,0.7-0.8,1c-0.3,1.1,0,5.4,0.8,10.2l-1.6,0.8l-0.2-0.1c-0.6-4.2-0.9-7-0.9-8.4c0-2,0.4-3.1,1.6-4.5
		c1.6-1.9,3.8-3.4,5.2-3.4c1.3,0,2.1,0.8,3.5,3.7c0.9,1.8,1.3,2.1,2.8,2.1C899.2,220.6,899.5,220.8,899.5,221.2z M894.6,220.2
		c-0.1-0.1-0.1-0.2-0.2-0.3c-1.1-2.4-1.8-3.3-2.4-3.3c-0.6,0-1.6,0.6-2.6,1.4c1.4,1.8,2.9,2.9,3.9,2.9
		C893.8,220.9,894.2,220.7,894.6,220.2z"/>
	<path class="st8" d="M906.5,221.2c0,0.4-0.2,1.2-1.4,1.2c-1,0-2.4-0.2-3-1.4c-0.8,1.1-2.2,1.4-4,1.4l0.5-1.9c0.8,0,1.7,0,2.3-0.5
		c0.1-0.4,0.2-1,0.2-1.9v-11.7l1.7-0.4l0.2,0.1V218c0,2.4,1.1,2.6,2.7,2.6C906.4,220.6,906.5,220.9,906.5,221.2z"/>
	<path class="st8" d="M922.6,218.7c0,2.8-1.7,3.7-4.3,3.7c-1,0-1.9-0.2-2.7-0.6c-0.5,0.4-1.2,0.6-2.2,0.6c-1.7,0-3-0.5-3.7-1.1
		c-0.9,0.7-2.2,1.1-4.4,1.1l0.5-1.9c1.5,0,2.5-0.1,3-0.5c0.3-0.4,0.6-1.3,1-2.5l2-0.3l0.1,0.1c-0.4,1-0.7,1.9-1.1,2.6
		c0.7,0.3,1.9,0.6,2.8,0.6c0.4,0,0.9-0.1,1.2-0.3c0.3-0.4,0.7-1.4,1.1-2.8l1.9-0.3l0.1,0.1c-0.4,1.2-0.7,2.2-1.1,2.9
		c0.5,0.2,1.1,0.3,1.7,0.3c0.8,0,1.7-0.1,2.2-0.3c0.5-1.2-0.2-2.9-1-4.7l1.6-1.2l0.1,0C922.1,216.1,922.6,217.7,922.6,218.7z"/>
	<path class="st8" d="M928.7,204.2c-1.2,0.1-2.7,0.3-4.6,0.3l-0.1-1.3c0.3,0,0.7,0,1.1,0c-0.3-0.4-0.4-0.9-0.4-1.4
		c0-1.2,0.7-1.9,2-1.9c0.5,0,1.1,0.1,1.7,0.3l-0.3,1.2c-0.5-0.1-0.8-0.2-1.1-0.2c-0.6,0-0.9,0.4-0.9,0.9c0,0.4,0.2,0.7,0.5,1
		c0.8,0,1.5-0.1,2.2-0.2L928.7,204.2z M927.3,206.1l0.1,0.1l0,16.1l-1.7,0.4l-0.1-0.1v-16L927.3,206.1z"/>
</g>
<linearGradient id="SVGID_8_" gradientUnits="userSpaceOnUse" x1="463.2047" y1="327.4109" x2="1022.4405" y2="327.4109">
	<stop  offset="0.1199" style="stop-color:#FFFFFF"/>
	<stop  offset="0.9969" style="stop-color:#FFF2D5"/>
</linearGradient>
<rect x="463.2" y="285.8" class="st9" width="559.2" height="83.2"/>
<g>
	<g>
		<path class="st10" d="M545.9,336c0-2.4,1.3-4.7,3.2-7l2,1.2c-0.9,1.2-1.7,2.5-1.7,3.4c0,1.3,1.6,1.1,1.6,3c0,1.2-0.9,2.5-2.5,2.5
			C546.8,339.1,545.9,337.9,545.9,336z"/>
		<path class="st10" d="M568.9,336.2c0,1.5-0.6,2.7-2.2,2.7c-2.3,0-4.1-0.6-5.2-2.1c-1,0.4-2,0.5-3,0.5c-3.5,0-5.7-1.7-5.7-4.1
			c0-2.7,2.7-5.6,7.7-7.3v-1.5l3.7-1.4l0.3,0.1v9.6c0,1.7,0.6,2.2,3,2.2C568.6,335,568.9,335.5,568.9,336.2z M560.6,333.4v-0.6v-3
			c-2.2,0.5-4,1.5-4.4,2.5c0.3,0.9,1.7,1.3,2.8,1.3C559.6,333.5,560.1,333.4,560.6,333.4z"/>
		<path class="st10" d="M573.4,326.7c1.1,2.3,1.8,5.1,1.8,6.6c0,1.7-0.5,3.2-1.7,4.3c-1.1,1-2.5,1.4-5.7,1.4h-1l0.9-4h1
			c1.2,0,2.6-0.1,3.1-0.3c0.2-1.2-0.7-3.4-1.8-5.5l3.2-2.6H573.4z M570.1,324.1l-3.3-2.3l2-3l3.1,2.1l1.4-2.1l3.3,2.2l-2,3.1
			l-3.1-2.2L570.1,324.1z"/>
		<path class="st10" d="M578.8,332.4v-14.7l3.7-1l0.3,0.2v15.2c0,2.2,0.9,2.8,3.2,2.8c0.9,0,1.3,0.5,1.3,1.3c0,1.6-0.6,2.7-2.1,2.7
			C581,339,578.8,337,578.8,332.4z"/>
		<path class="st10" d="M598,322.9l-6.8,3.4c5.2,3.5,6.1,5.4,6.1,7.2c0,3.2-2.4,5.5-9,5.5h-3.2l0.9-4h2.1c2.5,0,5.1-0.4,5.9-0.8
			c0-1.5-3.7-4-6.8-5.9l-0.2-0.2l0.9-4.5l11.1-5.7l0.3,0.2L598,322.9z"/>
		<path class="st10" d="M613.2,336.2c0,1.5-0.5,2.7-2.1,2.7c-1.1,0-1.9-0.2-2.6-0.5c-1.2,3.2-4.9,5.5-9.6,6.3l-2.1-2.9l0.2-0.3
			c5-0.9,8-3,9-5c-0.7-1.6-1.5-3.4-2.4-5.1l2.8-3.3h0.4l1.4,3.9c0.9,2.5,1.6,2.8,3.7,2.8C612.9,335,613.2,335.5,613.2,336.2z"/>
		<path class="st10" d="M611.9,335h0.3c1.2,0,2.6-0.1,3.1-0.3c0.2-1.2-0.8-3.4-1.8-5.5l3.2-2.6h0.3c1.1,2.3,1.8,5.1,1.8,6.6
			c0,1.7-0.6,3.1-1.7,4.3c-1.1,1-2.5,1.4-5.7,1.4h-0.4L611.9,335z M613,344.4l2.1-3.1l3.4,2.3l-2.1,3.2L613,344.4z"/>
		<path class="st10" d="M632.9,335.8c0,4.4-3.4,8.8-10.6,8.9l-1.9-3l0.2-0.4c4.4-0.1,7.4-1.3,8.5-3.4c-0.8,0.1-1.6,0.2-2.6,0.2
			c-3,0-4.4-1.5-4.4-3.8c0-3,2.3-6.6,5.3-6.6C630.8,327.6,632.9,331.3,632.9,335.8z M627.4,334.6c0.8,0,1.5-0.1,2.2-0.2
			c-0.3-1.6-1.2-3-2.4-3c-1.1,0-2,1.2-2,2.2C625.3,334.3,625.9,334.6,627.4,334.6z"/>
		<path class="st10" d="M673,316.8l0.3,0.2v15c0,5.3-2.6,6.8-7,7H666c0,0-0.1,0-0.1,0h-0.3c-1.2-0.1-2.7-0.5-3.6-1.8
			c-1.1,1.3-2.6,1.8-5.4,1.8h-0.2c0,0-0.1,0-0.1,0H656c-2.2-0.1-3.8-0.7-4.8-2.1c-1,0.4-2,0.5-3,0.5c-3.5,0-5.7-1.7-5.7-4.1
			c0-2.7,2.7-5.6,7.7-7.3v-1.5l3.7-1.4l0.3,0.1v9.6c0,1.6,0.6,2.2,2.8,2.2c0.9,0,1.8-0.1,2.4-0.4c0.1-0.5,0.2-1.2,0.2-2.4v-10.9
			l3.7-1l0.3,0.2v11.7c0,2.4,0.7,2.8,2.9,2.8c0.9,0,1.8-0.1,2.4-0.4c0.1-0.5,0.2-1.2,0.2-2.4v-14.4L673,316.8z M650.2,333.4v-0.6v-3
			c-2.2,0.5-4,1.5-4.4,2.5c0.3,0.9,1.7,1.3,2.8,1.3C649.2,333.5,649.7,333.4,650.2,333.4z M656.8,315.6c0-0.4,0.1-1.3,0.3-1.9
			l2.2-0.1c-0.1,0.5-0.1,1.1-0.1,1.4c0,0.8,0.3,1.1,0.8,1.1c0.6,0,0.9-0.4,0.9-2.3l2-0.2c0,0.6,0,1,0,1.3c0,0.8,0.4,1.1,0.9,1.1
			c0.6,0,0.8-0.4,0.8-1.2c0-0.6-0.2-1.2-0.3-1.8l2.2-0.5c0.3,0.8,0.5,1.6,0.5,2.5c0,1.9-1,3.3-3.1,3.3c-0.8,0-1.5-0.3-1.9-0.8
			c-0.5,0.5-1.2,0.8-2.1,0.8C657.5,318.4,656.8,317,656.8,315.6z M663.1,311.8h-2.8v-4.1h2.8V311.8z M681.1,317l-0.1,21.4l-3.7,0.8
			l-0.3-0.2v-21.2l3.7-1L681.1,317z"/>
		<path class="st10" d="M707,336.2c0,1.5-0.6,2.7-2.2,2.7c-2.3,0-4.1-0.6-5.2-2.1c-1,0.4-2,0.5-3,0.5c-3.5,0-5.7-1.7-5.7-4.1
			c0-2.7,2.7-5.6,7.7-7.3v-1.5l3.7-1.4l0.3,0.1v9.6c0,1.7,0.6,2.2,3,2.2C706.7,335,707,335.5,707,336.2z M695.9,320.9l-3.3-2.3l2-3
			l3.1,2.1l1.4-2.1l3.3,2.2l-2,3.1l-3.1-2.2L695.9,320.9z M698.7,333.4v-0.6v-3c-2.2,0.5-4,1.5-4.4,2.5c0.3,0.9,1.7,1.3,2.8,1.3
			C697.7,333.5,698.2,333.4,698.7,333.4z"/>
		<path class="st10" d="M724.1,336.2c0,1.6-0.7,2.7-2.2,2.7c-1.4,0-2.4-0.3-3.3-1.1c-0.6,1-1.5,1.5-2.7,1.5c-1.4,0-3.5-0.7-5.7-2.2
			c-1.3,1.6-2.9,1.8-5.3,1.8l0.9-4c1.4,0,1.8-0.2,2.6-1.5c1.8-3,3.3-5.8,6-5.8c2.4,0,3.6,2.1,4.9,4.8c1.1,2.1,1.6,2.6,3.5,2.6
			C723.7,335,724.1,335.5,724.1,336.2z M716.7,335l-0.1-0.2c-1-2.3-1.8-3.4-2.5-3.4c-0.7,0-1.5,1.2-2.3,2.8c1.2,0.8,2.5,1.4,3.5,1.4
			C716,335.6,716.4,335.4,716.7,335z"/>
		<path class="st10" d="M740.5,331l-1,3.8c-2.2,0.3-5.2,1-8.5,2.1c-4.4,1.5-6.7,2-9.1,2l0.9-4c2.5,0,4.3-0.2,8.4-1.2
			c1.3-0.4,2.4-0.6,3.3-0.9c-0.4-0.2-1-0.4-1.5-0.7c-2.5-1.3-3.9-1.8-5.3-1.8c-1.4,0-2.6,0.3-3.7,0.6l-0.2-0.2l1.4-3.5
			c0.7-0.4,1.9-0.7,2.9-0.7c1.4,0,2.7,0.5,6,2.1C737.5,330.4,739,331,740.5,331z"/>
		<path class="st10" d="M737.6,341.9l0.2-0.3c5.2-0.9,8.9-3.4,8.9-4.5c-0.1-1.1-1.2-3.6-2.3-5.5l2.9-3.2h0.4
			c1.4,2.6,2.1,5.7,2.1,7.7c0,1.2-0.3,2.5-0.9,3.7c-1.3,2.5-5,4.5-9.2,5.2L737.6,341.9z"/>
		<path class="st10" d="M763.9,335.8c0,4.4-3.4,8.8-10.6,8.9l-1.9-3l0.2-0.4c4.4-0.1,7.4-1.3,8.5-3.4c-0.8,0.1-1.6,0.2-2.6,0.2
			c-3,0-4.4-1.5-4.4-3.8c0-3,2.3-6.6,5.3-6.6C761.9,327.6,763.9,331.3,763.9,335.8z M758.4,334.6c0.8,0,1.5-0.1,2.2-0.2
			c-0.3-1.6-1.2-3-2.4-3c-1.1,0-2,1.2-2,2.2C756.3,334.3,756.9,334.6,758.4,334.6z"/>
		<path class="st10" d="M792.9,336.2c0,1.8-0.8,2.7-2.2,2.7c-1.4,0-2.4-0.3-3.3-1.2c-0.7,1-1.5,1.6-2.7,1.6c-1.9,0-4.1-1.2-6.5-3.8
			l-0.5,0.8c-0.2,2.2,0.8,8.3,1.5,12.5l-3.4,1.6l-0.3-0.2c-0.8-4.1-1.5-9.2-1.5-11.2c0-3,0.7-5.1,2.2-6.9c2-2.4,4.9-4.6,7.1-4.6
			c2.3,0,3.3,1.9,4.8,4.8c1.1,2,1.4,2.6,3.5,2.6C792.4,335,792.9,335.4,792.9,336.2z M785.6,335c0-0.1,0-0.1-0.1-0.2
			c-1.1-2.4-1.9-3.4-2.6-3.4c-0.7,0-1.7,0.7-2.7,1.7c1.5,1.6,2.9,2.5,4,2.5C784.8,335.6,785.2,335.3,785.6,335z"/>
		<path class="st10" d="M808.9,336.2c0,1.5-0.5,2.7-2.1,2.7c-2,0-3.8-1.2-5-2.6c-1.1,2-3.7,2.6-8.2,2.6h-2.9l0.9-4h3.3
			c2.9,0,4-0.4,4.5-0.9c-1-1.4-4.1-4-6.7-5.8l-0.2-0.2l0.9-4.5l11.1-5.7l0.3,0.2l-1.3,4.8l-6.8,3.4c2.6,2.1,4.1,3.6,5.6,5.1
			c1.7,1.8,3.4,3.6,5.3,3.6C808.6,335,808.9,335.5,808.9,336.2z"/>
		<path class="st10" d="M820.4,336.2c0,1.5-0.5,2.7-2.1,2.7c-2.4,0-4.6-0.5-5.8-1.5c-1.2,1-2.6,1.5-4.7,1.5h-1.1l0.9-4h0.7
			c0.8,0,1.8-0.1,2.2-0.4c0.3-0.8,0.7-2.4,1.1-4.5l4.1-1l0.3,0.2c-0.4,1.9-0.9,3.6-1.5,5c0.9,0.4,2.4,0.6,4.5,0.6
			C820.2,335,820.4,335.5,820.4,336.2z M814.2,341.3l3.3,2.2l-2,3.1l-3.1-2.2l-1.5,2.2l-3.3-2.3l2-3l3.2,2.2L814.2,341.3z"/>
		<path class="st10" d="M830.4,336.2c0,1.5-0.5,2.7-2.1,2.7c-1.2,0-2.9-0.3-4-1.8c-1.1,1.4-2.8,1.8-5.9,1.8l0.9-4
			c0.9,0,1.9-0.1,2.6-0.4c0.1-0.5,0.2-1.2,0.2-2.4v-14.4l3.7-1l0.3,0.2v15.2c0,2.5,0.7,2.8,3.2,2.8
			C830.1,335,830.4,335.5,830.4,336.2z"/>
		<path class="st10" d="M843.6,334.5l-1.2,3.6c-2.5,0.5-6.4,0.8-14.2,0.8l0.9-4h2.3c-0.5-1-0.8-2-0.8-3.1c0-4,3-6.2,6.7-6.2
			c1.5,0,3.2,0.4,4.6,1l-0.4,3.4l-0.1,0.1c-1-0.3-2.3-0.6-3.3-0.6c-1.9,0-3,0.9-3,2.7c0,0.8,0.4,1.8,1.1,2.7c2.6-0.1,5-0.3,7.2-0.5
			L843.6,334.5z"/>
		<path class="st10" d="M866.9,335.4c0,2.7-0.7,4-2.5,4c-1.2,0-2.6-0.2-4.1-0.2c-1,0-2,0.2-2.8,0.5c-0.5,2.3,0.6,6.8,1,9.2l-3.6,1.6
			l-0.3-0.2c-0.4-2.7-1.2-6.3-1.2-8.3c0-3,2.2-6.7,7-6.7c1.1,0,2.2,0.1,3.1,0.3c-0.2-2.2-1.8-4.2-3.4-4.2c-1.1,0-2,0.8-2.5,2.5
			l-1.7,0.2l-0.3-0.2c0.3-4,3-6.3,5.4-6.3C864.5,327.6,866.9,331.8,866.9,335.4z"/>
		<path class="st10" d="M888.2,336.2c0,1.6-0.6,2.7-2.1,2.7c-3.2,0-5.2-1.1-6-3.6c-2.6,2.8-6,3.7-9.3,3.7l-1.9-3.8l0.1-0.2
			c2.5-0.1,5.1-0.4,7.2-1.3c-1.6-2.6-3.5-4.7-7-8l1.2-4.2l0.2-0.1c4,3.8,7,8.1,8.3,10.5c0.3-0.3,0.5-0.6,0.7-1v-13.2l3.7-1l0.3,0.2
			v15.2c0,2.2,0.9,2.8,3.2,2.8C887.9,335,888.2,335.4,888.2,336.2z"/>
		<path class="st10" d="M915.3,336.2c0,1.5-0.5,2.7-2.1,2.7c-1.5,0-3.5-0.5-4.8-1.4c-1.1,0.9-2.5,1.4-4.1,1.4h0h0
			c-1.8,0-3.1-0.4-4.2-0.9c-0.8,0.6-1.8,0.9-3,0.9c-2,0-3.8-0.7-4.9-1.4c-1.3,1-3.1,1.4-6,1.4l0.9-4c2.1,0,2.9-0.1,3.5-0.4
			c0.3-0.6,0.6-2.2,0.8-3.6l4.3-0.7l0.1,0.1c-0.5,1.6-1,2.9-1.4,4c0.9,0.3,2.1,0.5,3.2,0.5c0.5,0,0.9-0.1,1.2-0.3
			c0.3-0.4,0.6-2.2,1-3.7l4-0.7l0.1,0.1c-0.5,1.6-0.9,3-1.4,4.2c0.8,0.2,1.6,0.3,2.4,0.3c0.6,0,1.3-0.1,1.8-0.4
			c0.1-0.4,0.2-0.9,0.2-1.7c0-0.9-0.1-2-0.3-3l4-1.5l0.2,0.1c0.1,0.8,0.1,1.4,0.1,2.1c0,1.4-0.2,2.7-0.5,3.7
			c0.9,0.4,2.2,0.6,3.7,0.6C914.9,335,915.3,335.5,915.3,336.2z"/>
		<path class="st10" d="M914,335c0.9,0,1.9-0.1,2.6-0.4c0.1-0.5,0.2-1.2,0.2-2.4v-14.4l3.7-1l0.3,0.2v15c0,5.6-2.9,7-7.6,7L914,335z
			"/>
		<path class="st10" d="M924.7,339v-21.2l3.7-1l0.3,0.2l-0.1,21.4l-3.7,0.8L924.7,339z"/>
	</g>
</g>
<g>
	<path class="st8" d="M710.6,412.5c0-0.8,0.7-1.5,1.5-1.5c0.8,0,1.5,0.7,1.5,1.5c0,0.8-0.7,1.5-1.5,1.5
		C711.3,414,710.6,413.4,710.6,412.5z M710.6,420c0-0.8,0.7-1.5,1.5-1.5c0.8,0,1.5,0.7,1.5,1.5c0,0.8-0.7,1.5-1.5,1.5
		C711.3,421.5,710.6,420.8,710.6,420z"/>
	<path class="st8" d="M726.6,399.9l5.7-1.1v1.2l-5.7,1.1V399.9z M726.6,402.4l5.7-1.1v1.2l-5.7,1.1V402.4z"/>
	<path class="st8" d="M734.2,420c0,0.4-0.2,1.2-1.5,1.2c-2.1,0-3.7-0.6-4.1-2.9c-1.8,2.2-4.4,3-7.2,3l-0.8-1.7l0.1-0.1
		c2.3,0,4.3-0.5,5.9-1.6c-1.3-2.5-3.4-4.6-6.1-7.1l0.7-1.9l0.2-0.1c3,2.7,5.4,6.1,6.4,8.1c0.3-0.3,0.5-0.6,0.7-1v-10.7l1.7-0.4
		l0.1,0.1v12.1c0,1.9,0.8,2.3,2.8,2.3C734,419.4,734.2,419.6,734.2,420z"/>
	<path class="st8" d="M737.2,413.2c0.7,1.7,1.2,3.3,1.2,4.3c0,1-0.4,2.2-1.2,2.9c-0.6,0.6-1.6,0.8-3.8,0.8h-0.7l0.5-1.9h0.7
		c1.2,0,2.1-0.1,2.5-0.3c0.5-1.2-0.2-2.9-1-4.7l1.5-1.2H737.2z M733.9,409.4c0.4,0,0.8,0,1.2,0c-0.3-0.4-0.5-1-0.5-1.5
		c0-1.3,0.8-2.1,2.2-2.1c0.6,0,1.2,0.1,1.8,0.4l-0.4,1.4c-0.5-0.2-0.9-0.3-1.2-0.3c-0.7,0-1,0.5-1,1c0,0.4,0.2,0.8,0.5,1.1
		c0.8,0,1.7-0.1,2.4-0.2l0.1,1.3c-1.3,0.2-3,0.3-5,0.4L733.9,409.4z"/>
	<path class="st8" d="M741.4,417.3v-12l1.7-0.4l0.1,0.1v12.1c0,1.9,0.8,2.3,2.8,2.3c0.8,0,1,0.3,1,0.6c0,0.4-0.2,1.2-1.5,1.2
		C743.3,421.2,741.4,420.4,741.4,417.3z"/>
	<path class="st8" d="M754.7,416c0,2.3-0.4,3.6-1.5,4.4c-1.3,0.7-3.1,0.8-7.6,0.8l0.5-1.9c4.6,0,6.1-0.2,6.8-0.5
		c0.1-0.3,0.1-0.8,0.2-1.5c-0.7,0.2-1.6,0.3-2.5,0.3c-2.1,0-3.1-1.1-3.1-2.8c0-2.2,1.6-4.6,3.5-4.6
		C753.3,410.3,754.7,413.1,754.7,416z M749.6,407.7l-1.9-1.4l1.2-1.8l1.9,1.3L749.6,407.7z M751,415.8c0.8,0,1.5-0.1,2.2-0.2
		c-0.1-1.7-1.1-3.5-2.2-3.5c-0.9,0-1.9,1.2-1.9,2.5C749,415.5,749.7,415.8,751,415.8z M753,407.7l-1.9-1.4l1.2-1.8l1.9,1.3
		L753,407.7z"/>
	<path class="st8" d="M763,421c0-1,0.2-2,0.4-2.7l1.5-0.5l0.2,0.1c-0.2,0.9-0.3,1.6-0.3,2.2c0,2.2,1.2,3.8,5.1,3.8
		c3.7,0,6.5-0.9,6.9-2.1c0-0.5-0.4-1.1-3.9-2l0.6-1.7c4.4,1.2,5.2,2,5.2,3.2c-0.3,2.9-4,4.5-9.2,4.5C765.1,425.7,763,423.7,763,421z
		 M766.1,429.3l1.2-1.8l1.9,1.3l-1.2,1.8L766.1,429.3z M769.5,429.3l1.2-1.8l1.9,1.3l-1.2,1.8L769.5,429.3z"/>
	<path class="st8" d="M773.5,418c1-0.2,2-0.5,3-1c0.1-0.4,0.2-1.1,0.2-1.9v-9.8l1.7-0.4l0.2,0v10c0,2.2-1,3.9-4,4.7L773.5,418z"/>
	<path class="st8" d="M781.6,417.3v-12l1.7-0.4l0.1,0.1v12.1c0,1.9,0.8,2.3,2.8,2.3c0.8,0,1,0.3,1,0.6c0,0.4-0.2,1.2-1.5,1.2
		C783.4,421.2,781.6,420.4,781.6,417.3z"/>
	<path class="st8" d="M800,420c0,0.7-0.6,1.2-1.5,1.2c-1,0-1.8-0.2-2.4-0.8c-0.4,0.7-0.9,1.1-1.9,1.1c-1.4,0-3.2-0.7-4.8-1.8
		c-1,1.3-1.7,1.5-3.6,1.5l0.5-1.9c1,0,1.3-0.3,2.1-1.5c0.9-1.5,2-4.4,4.3-4.4c1.8,0,2.6,1.8,3.5,3.7c0.9,1.8,1.3,2.1,2.8,2.1
		C799.7,419.4,800,419.6,800,420z M795.1,419.1c-0.1-0.1-0.1-0.3-0.2-0.4c-1-2.4-1.6-3.3-2.2-3.3c-0.9,0-1.7,1.5-2.4,2.9
		c1.2,0.8,2.7,1.4,3.5,1.4C794.4,419.7,794.8,419.5,795.1,419.1z"/>
	<path class="st8" d="M816,417.5c0,2.8-1.7,3.7-4.3,3.7c-1,0-1.9-0.2-2.7-0.6c-0.5,0.4-1.2,0.6-2.2,0.6c-1.7,0-3-0.5-3.7-1.1
		c-0.9,0.7-2.2,1.1-4.4,1.1l0.5-1.9c1.5,0,2.5-0.1,3-0.5c0.3-0.4,0.6-1.3,1-2.5l2-0.3l0.1,0.1c-0.4,1-0.7,1.9-1.1,2.6
		c0.7,0.3,1.9,0.6,2.8,0.6c0.4,0,0.9-0.1,1.2-0.3c0.3-0.4,0.7-1.4,1.1-2.8l1.9-0.3l0.1,0.1c-0.4,1.2-0.7,2.2-1.1,2.9
		c0.5,0.2,1.1,0.3,1.7,0.3c0.8,0,1.7-0.1,2.2-0.3c0.5-1.2-0.2-2.9-1-4.7l1.6-1.2l0.1,0C815.5,414.9,816,416.5,816,417.5z M807.9,412
		l-1.9-1.4l1.2-1.8l1.9,1.3L807.9,412z M809.3,409.3l-2-1.4l1.2-1.8l1.9,1.3L809.3,409.3z M809.3,410.6l1.2-1.8l1.9,1.3l-1.2,1.8
		L809.3,410.6z"/>
	<path class="st8" d="M840.3,420c0,0.4-0.2,1.2-1.5,1.2c-0.6,0-1.4-0.2-1.9-0.6c-0.5,3.4-3.3,5.1-6.9,5.1c-3.7,0-5.7-2.1-5.7-4.9
		c0-1,0.2-2.1,0.4-2.7l1.5-0.5l0.2,0.1c-0.2,0.8-0.2,1.6-0.2,2.2c0,2.4,0.9,4,4.2,4c2.7,0,3.9-1,4.6-1.8c0.8-1.8,0-3.6-1-6l1.7-1.2
		h0.1c0.3,0.8,0.7,2.3,1.2,3.2c0.5,1,1.2,1.4,2.2,1.4C840,419.4,840.3,419.6,840.3,420z M830.6,413.7l-2-1.4l1.2-1.8l2,1.3
		L830.6,413.7z"/>
	<path class="st8" d="M850.2,418.9l-0.6,1.7c-1.9,0.4-4.7,0.6-10.8,0.6l0.5-1.9c0.9,0,1.8,0,2.7,0c-0.6-0.9-1-2-1-3.1
		c0-2.5,2-4,4.6-4c1.2,0,2.4,0.4,3.2,0.8l-0.2,1.7l-0.1,0c-0.9-0.4-1.9-0.6-2.9-0.6c-1.6,0-2.6,0.8-2.6,2.1c0,0.9,0.5,2.1,1.4,3
		c2.1-0.1,3.9-0.2,5.6-0.4L850.2,418.9z"/>
	<path class="st8" d="M872.4,420c0,0.7-0.6,1.2-1.5,1.2c-1.1,0-1.9-0.3-2.5-0.9c-0.6,0.8-1.2,1.2-1.9,1.2c-1.7,0-3.5-1.2-5.4-3.5
		c-0.3,0.3-0.6,0.7-0.8,1c-0.3,1.1,0,5.4,0.8,10.2l-1.6,0.8l-0.2-0.1c-0.6-4.2-0.9-7-0.9-8.4c0-2,0.4-3.1,1.6-4.5
		c1.6-1.9,3.8-3.4,5.2-3.4c1.3,0,2.1,0.8,3.5,3.7c0.9,1.8,1.3,2.1,2.8,2.1C872.1,419.4,872.4,419.5,872.4,420z M867.4,419
		c-0.1-0.1-0.1-0.2-0.2-0.3c-1.1-2.4-1.8-3.3-2.4-3.3c-0.6,0-1.6,0.6-2.6,1.4c1.4,1.8,2.9,2.9,3.9,2.9
		C866.6,419.7,867,419.4,867.4,419z"/>
	<path class="st8" d="M879.4,420c0,0.4-0.2,1.2-1.4,1.2c-1,0-2.4-0.2-3-1.4c-0.8,1.1-2.2,1.4-4,1.4l0.5-1.9c0.8,0,1.7,0,2.3-0.5
		c0.1-0.4,0.2-1,0.2-1.9v-11.7l1.7-0.4l0.2,0.1v11.8c0,2.4,1.1,2.6,2.7,2.6C879.2,419.4,879.4,419.6,879.4,420z"/>
	<path class="st8" d="M895.4,417.5c0,2.8-1.7,3.7-4.3,3.7c-1,0-1.9-0.2-2.7-0.6c-0.5,0.4-1.2,0.6-2.2,0.6c-1.7,0-3-0.5-3.7-1.1
		c-0.9,0.7-2.2,1.1-4.4,1.1l0.5-1.9c1.5,0,2.5-0.1,3-0.5c0.3-0.4,0.6-1.3,1-2.5l2-0.3l0.1,0.1c-0.4,1-0.7,1.9-1.1,2.6
		c0.7,0.3,1.9,0.6,2.8,0.6c0.4,0,0.9-0.1,1.2-0.3c0.3-0.4,0.7-1.4,1.1-2.8l1.9-0.3l0.1,0.1c-0.4,1.2-0.7,2.2-1.1,2.9
		c0.5,0.2,1.1,0.3,1.7,0.3c0.8,0,1.7-0.1,2.2-0.3c0.5-1.2-0.2-2.9-1-4.7l1.6-1.2l0.1,0C894.9,414.9,895.4,416.5,895.4,417.5z"/>
	<path class="st8" d="M901.5,403c-1.2,0.1-2.7,0.3-4.6,0.3l-0.1-1.3c0.3,0,0.7,0,1.1,0c-0.3-0.4-0.4-0.9-0.4-1.4
		c0-1.2,0.7-1.9,2-1.9c0.5,0,1.1,0.1,1.7,0.3l-0.3,1.2c-0.5-0.1-0.8-0.2-1.1-0.2c-0.6,0-0.9,0.4-0.9,0.9c0,0.4,0.2,0.7,0.5,1
		c0.8,0,1.5-0.1,2.2-0.2L901.5,403z M900.1,404.8l0.1,0.1l0,16.1l-1.7,0.4l-0.1-0.1v-16L900.1,404.8z"/>
	<path class="st8" d="M922.8,420c0,0.7-0.6,1.2-1.5,1.2c-1.1,0-1.9-0.3-2.5-0.9c-0.6,0.8-1.2,1.2-1.9,1.2c-1.7,0-3.5-1.2-5.4-3.5
		c-0.3,0.3-0.6,0.7-0.8,1c-0.3,1.1,0,5.4,0.8,10.2l-1.6,0.8l-0.2-0.1c-0.6-4.2-0.9-7-0.9-8.4c0-2,0.4-3.1,1.6-4.5
		c1.6-1.9,3.8-3.4,5.2-3.4c1.3,0,2.1,0.8,3.5,3.7c0.9,1.8,1.3,2.1,2.8,2.1C922.5,419.4,922.8,419.5,922.8,420z M917.8,419
		c-0.1-0.1-0.1-0.2-0.2-0.3c-1.1-2.4-1.8-3.3-2.4-3.3c-0.6,0-1.6,0.6-2.6,1.4c1.4,1.8,2.9,2.9,3.9,2.9
		C917,419.7,917.4,419.4,917.8,419z"/>
	<path class="st8" d="M921.8,419.4h0.7c1.2,0,2.1-0.1,2.5-0.3c0.5-1.2-0.2-2.9-1-4.7l1.5-1.2h0.2c0.7,1.7,1.2,3.3,1.2,4.3
		c0,1-0.4,2.2-1.2,2.9c-0.6,0.6-1.6,0.8-3.8,0.8h-0.7L921.8,419.4z M921.8,409.1l1.2-1.8l1.9,1.3l-1.2,1.8L921.8,409.1z
		 M923.2,406.4l1.2-1.8l1.9,1.3l-1.2,1.9L923.2,406.4z M925.2,409.1l1.2-1.8l1.9,1.3l-1.2,1.8L925.2,409.1z"/>
</g>
<linearGradient id="SVGID_9_" gradientUnits="userSpaceOnUse" x1="463.2052" y1="512.4152" x2="1022.441" y2="512.4152">
	<stop  offset="0.1199" style="stop-color:#FFFFFF"/>
	<stop  offset="0.9969" style="stop-color:#FFF2D5"/>
</linearGradient>
<rect x="463.2" y="470.8" class="st11" width="559.2" height="83.2"/>
<g>
	<g>
		<path class="st10" d="M545.1,521.6c0-1.3,1.2-2.5,2.6-2.5c1.4,0,2.6,1.2,2.6,2.5c0,1.4-1.2,2.6-2.6,2.6
			C546.3,524.2,545.1,523,545.1,521.6z"/>
		<path class="st10" d="M567.8,521c0,1.5-0.6,2.7-2.2,2.7c-2.3,0-4.1-0.6-5.2-2.1c-1,0.4-2,0.5-3,0.5c-3.5,0-5.7-1.7-5.7-4.1
			c0-2.7,2.7-5.6,7.7-7.3v-1.5l3.7-1.4l0.3,0.1v9.6c0,1.7,0.6,2.2,3,2.2C567.5,519.7,567.8,520.3,567.8,521z M559.5,518.1v-0.6v-3
			c-2.2,0.5-4,1.5-4.4,2.5c0.3,0.9,1.7,1.3,2.8,1.3C558.5,518.3,559,518.2,559.5,518.1z"/>
		<path class="st10" d="M572.3,511.5c1.1,2.3,1.8,5.1,1.8,6.6c0,1.7-0.5,3.2-1.7,4.3c-1.1,1-2.5,1.4-5.7,1.4h-1l0.9-4h1
			c1.2,0,2.6-0.1,3.1-0.3c0.2-1.2-0.7-3.4-1.8-5.5l3.2-2.6H572.3z M569,508.9l-3.3-2.3l2-3l3.1,2.1l1.4-2.1l3.3,2.2l-2,3.1l-3.1-2.2
			L569,508.9z"/>
		<path class="st10" d="M577.7,517.2v-14.7l3.7-1l0.3,0.2v15.2c0,2.2,0.9,2.8,3.2,2.8c0.9,0,1.3,0.5,1.3,1.3c0,1.6-0.6,2.7-2.1,2.7
			C579.8,523.7,577.7,521.8,577.7,517.2z"/>
		<path class="st10" d="M596.9,507.7l-6.8,3.4c5.2,3.5,6.1,5.4,6.1,7.2c0,3.2-2.4,5.5-9,5.5h-3.2l0.9-4h2.1c2.5,0,5.1-0.4,5.9-0.8
			c0-1.5-3.7-4-6.8-5.9l-0.2-0.2l0.9-4.5l11.1-5.7l0.3,0.2L596.9,507.7z"/>
		<path class="st10" d="M612.1,521c0,1.5-0.5,2.7-2.1,2.7c-1.1,0-1.9-0.2-2.6-0.5c-1.2,3.2-4.9,5.5-9.6,6.3l-2.1-2.9l0.2-0.3
			c5-0.9,8-3,9-5c-0.7-1.6-1.5-3.4-2.4-5.1l2.8-3.3h0.4l1.4,3.9c0.9,2.5,1.6,2.8,3.7,2.8C611.8,519.7,612.1,520.3,612.1,521z"/>
		<path class="st10" d="M610.8,519.7h0.3c1.2,0,2.6-0.1,3.1-0.3c0.2-1.2-0.8-3.4-1.8-5.5l3.2-2.6h0.3c1.1,2.3,1.8,5.1,1.8,6.6
			c0,1.7-0.6,3.1-1.7,4.3c-1.1,1-2.5,1.4-5.7,1.4h-0.4L610.8,519.7z M611.9,529.2l2.1-3.1l3.4,2.3l-2.1,3.2L611.9,529.2z"/>
		<path class="st10" d="M631.8,520.5c0,4.4-3.4,8.8-10.6,8.9l-1.9-3l0.2-0.4c4.4-0.1,7.4-1.3,8.5-3.4c-0.8,0.1-1.6,0.2-2.6,0.2
			c-3,0-4.4-1.5-4.4-3.8c0-3,2.3-6.6,5.3-6.6C629.7,512.4,631.8,516.1,631.8,520.5z M626.3,519.4c0.8,0,1.5-0.1,2.2-0.2
			c-0.3-1.6-1.2-3-2.4-3c-1.1,0-2,1.2-2,2.2C624.2,519.1,624.8,519.4,626.3,519.4z"/>
		<path class="st10" d="M671.8,501.6l0.3,0.2v15c0,5.3-2.6,6.8-7,7h-0.2c0,0-0.1,0-0.1,0h-0.3c-1.2-0.1-2.7-0.5-3.6-1.8
			c-1.1,1.3-2.6,1.8-5.4,1.8h-0.2c0,0-0.1,0-0.1,0h-0.2c-2.2-0.1-3.8-0.7-4.8-2.1c-1,0.4-2,0.5-3,0.5c-3.5,0-5.7-1.7-5.7-4.1
			c0-2.7,2.7-5.6,7.7-7.3v-1.5l3.7-1.4l0.3,0.1v9.6c0,1.6,0.6,2.2,2.8,2.2c0.9,0,1.8-0.1,2.4-0.4c0.1-0.5,0.2-1.2,0.2-2.4V506l3.7-1
			l0.3,0.2v11.7c0,2.4,0.7,2.8,2.9,2.8c0.9,0,1.8-0.1,2.4-0.4c0.1-0.5,0.2-1.2,0.2-2.4v-14.4L671.8,501.6z M649.1,518.1v-0.6v-3
			c-2.2,0.5-4,1.5-4.4,2.5c0.3,0.9,1.7,1.3,2.8,1.3C648.1,518.3,648.6,518.2,649.1,518.1z M655.7,500.4c0-0.4,0.1-1.3,0.3-1.9
			l2.2-0.1c-0.1,0.5-0.1,1.1-0.1,1.4c0,0.8,0.3,1.1,0.8,1.1c0.6,0,0.9-0.4,0.9-2.3l2-0.2c0,0.6,0,1,0,1.3c0,0.8,0.4,1.1,0.9,1.1
			c0.6,0,0.8-0.4,0.8-1.2c0-0.6-0.2-1.2-0.3-1.8l2.2-0.5c0.3,0.8,0.5,1.6,0.5,2.5c0,1.9-1,3.3-3.1,3.3c-0.8,0-1.5-0.3-1.9-0.8
			c-0.5,0.5-1.2,0.8-2.1,0.8C656.4,503.2,655.7,501.8,655.7,500.4z M662,496.6h-2.8v-4.1h2.8V496.6z M680,501.8l-0.1,21.4l-3.7,0.8
			l-0.3-0.2v-21.2l3.7-1L680,501.8z"/>
		<path class="st10" d="M705.9,521c0,1.5-0.6,2.7-2.2,2.7c-2.3,0-4.1-0.6-5.2-2.1c-1,0.4-2,0.5-3,0.5c-3.5,0-5.7-1.7-5.7-4.1
			c0-2.7,2.7-5.6,7.7-7.3v-1.5l3.7-1.4l0.3,0.1v9.6c0,1.7,0.6,2.2,3,2.2C705.6,519.7,705.9,520.3,705.9,521z M694.8,505.7l-3.3-2.3
			l2-3l3.1,2.1l1.4-2.1l3.3,2.2l-2,3.1l-3.1-2.2L694.8,505.7z M697.5,518.1v-0.6v-3c-2.2,0.5-4,1.5-4.4,2.5c0.3,0.9,1.7,1.3,2.8,1.3
			C696.5,518.3,697,518.2,697.5,518.1z"/>
		<path class="st10" d="M722.9,521c0,1.6-0.7,2.7-2.2,2.7c-1.4,0-2.4-0.3-3.3-1.1c-0.6,1-1.5,1.5-2.7,1.5c-1.4,0-3.5-0.7-5.7-2.2
			c-1.3,1.6-2.9,1.8-5.3,1.8l0.9-4c1.4,0,1.8-0.2,2.6-1.5c1.8-3,3.3-5.8,6-5.8c2.4,0,3.6,2.1,4.9,4.8c1.1,2.1,1.6,2.6,3.5,2.6
			C722.6,519.7,722.9,520.3,722.9,521z M715.6,519.8l-0.1-0.2c-1-2.3-1.8-3.4-2.5-3.4c-0.7,0-1.5,1.2-2.3,2.8
			c1.2,0.8,2.5,1.4,3.5,1.4C714.9,520.4,715.3,520.2,715.6,519.8z"/>
		<path class="st10" d="M739.4,515.8l-1,3.8c-2.2,0.3-5.2,1-8.5,2.1c-4.4,1.5-6.7,2-9.1,2l0.9-4c2.5,0,4.3-0.2,8.4-1.2
			c1.3-0.4,2.4-0.6,3.3-0.9c-0.4-0.2-1-0.4-1.5-0.7c-2.5-1.3-3.9-1.8-5.3-1.8c-1.4,0-2.6,0.3-3.7,0.6l-0.2-0.2l1.4-3.5
			c0.7-0.4,1.9-0.7,2.9-0.7c1.4,0,2.7,0.5,6,2.1C736.4,515.2,737.9,515.7,739.4,515.8z"/>
		<path class="st10" d="M736.5,526.7l0.2-0.3c5.2-0.9,8.9-3.4,8.9-4.5c-0.1-1.1-1.2-3.6-2.3-5.5l2.9-3.2h0.4
			c1.4,2.6,2.1,5.7,2.1,7.7c0,1.2-0.3,2.5-0.9,3.7c-1.3,2.5-5,4.5-9.2,5.2L736.5,526.7z"/>
		<path class="st10" d="M762.8,520.5c0,4.4-3.4,8.8-10.6,8.9l-1.9-3l0.2-0.4c4.4-0.1,7.4-1.3,8.5-3.4c-0.8,0.1-1.6,0.2-2.6,0.2
			c-3,0-4.4-1.5-4.4-3.8c0-3,2.3-6.6,5.3-6.6C760.7,512.4,762.8,516.1,762.8,520.5z M757.3,519.4c0.8,0,1.5-0.1,2.2-0.2
			c-0.3-1.6-1.2-3-2.4-3c-1.1,0-2,1.2-2,2.2C755.2,519.1,755.8,519.4,757.3,519.4z"/>
		<path class="st10" d="M791.8,521c0,1.8-0.8,2.7-2.2,2.7c-1.4,0-2.4-0.3-3.3-1.2c-0.7,1-1.5,1.6-2.7,1.6c-1.9,0-4.1-1.2-6.5-3.8
			l-0.5,0.8c-0.2,2.2,0.8,8.3,1.5,12.5l-3.4,1.6l-0.3-0.2c-0.8-4.1-1.5-9.2-1.5-11.2c0-3,0.7-5.1,2.2-6.9c2-2.4,4.9-4.6,7.1-4.6
			c2.3,0,3.3,1.9,4.8,4.8c1.1,2,1.4,2.6,3.5,2.6C791.3,519.7,791.8,520.2,791.8,521z M784.4,519.8c0-0.1,0-0.1-0.1-0.2
			c-1.1-2.4-1.9-3.4-2.6-3.4c-0.7,0-1.7,0.7-2.7,1.7c1.5,1.6,2.9,2.5,4,2.5C783.7,520.4,784.1,520.1,784.4,519.8z"/>
		<path class="st10" d="M807.8,521c0,1.5-0.5,2.7-2.1,2.7c-2,0-3.8-1.2-5-2.6c-1.1,2-3.7,2.6-8.2,2.6h-2.9l0.9-4h3.3
			c2.9,0,4-0.4,4.5-0.9c-1-1.4-4.1-4-6.7-5.8l-0.2-0.2l0.9-4.5l11.1-5.7l0.3,0.2l-1.3,4.8l-6.8,3.4c2.6,2.1,4.1,3.6,5.6,5.1
			c1.7,1.8,3.4,3.6,5.3,3.6C807.5,519.7,807.8,520.3,807.8,521z"/>
		<path class="st10" d="M819.3,521c0,1.5-0.5,2.7-2.1,2.7c-2.4,0-4.6-0.5-5.8-1.5c-1.2,1-2.6,1.5-4.7,1.5h-1.1l0.9-4h0.7
			c0.8,0,1.8-0.1,2.2-0.4c0.3-0.8,0.7-2.4,1.1-4.5l4.1-1l0.3,0.2c-0.4,1.9-0.9,3.6-1.5,5c0.9,0.4,2.4,0.6,4.5,0.6
			C819,519.7,819.3,520.3,819.3,521z M813.1,526.1l3.3,2.2l-2,3.1l-3.1-2.2l-1.5,2.2l-3.3-2.3l2-3l3.2,2.2L813.1,526.1z"/>
		<path class="st10" d="M829.3,521c0,1.5-0.5,2.7-2.1,2.7c-1.2,0-2.9-0.3-4-1.8c-1.1,1.4-2.8,1.8-5.9,1.8l0.9-4
			c0.9,0,1.9-0.1,2.6-0.4c0.1-0.5,0.2-1.2,0.2-2.4v-14.4l3.7-1l0.3,0.2v15.2c0,2.5,0.7,2.8,3.2,2.8C829,519.7,829.3,520.3,829.3,521
			z"/>
		<path class="st10" d="M842.5,519.3l-1.2,3.6c-2.5,0.5-6.4,0.8-14.2,0.8l0.9-4h2.3c-0.5-1-0.8-2-0.8-3.1c0-4,3-6.2,6.7-6.2
			c1.5,0,3.2,0.4,4.6,1l-0.4,3.4l-0.1,0.1c-1-0.3-2.3-0.6-3.3-0.6c-1.9,0-3,0.9-3,2.7c0,0.8,0.4,1.8,1.1,2.7c2.6-0.1,5-0.3,7.2-0.5
			L842.5,519.3z"/>
		<path class="st10" d="M865.8,520.2c0,2.7-0.7,4-2.5,4c-1.2,0-2.6-0.2-4.1-0.2c-1,0-2,0.2-2.8,0.5c-0.5,2.3,0.6,6.8,1,9.2l-3.6,1.6
			l-0.3-0.2c-0.4-2.7-1.2-6.3-1.2-8.3c0-3,2.2-6.7,7-6.7c1.1,0,2.2,0.1,3.1,0.3c-0.2-2.2-1.8-4.2-3.4-4.2c-1.1,0-2,0.8-2.5,2.5
			l-1.7,0.2l-0.3-0.2c0.3-4,3-6.3,5.4-6.3C863.4,512.4,865.8,516.5,865.8,520.2z"/>
		<path class="st10" d="M887.1,521c0,1.6-0.6,2.7-2.1,2.7c-3.2,0-5.2-1.1-6-3.6c-2.6,2.8-6,3.7-9.3,3.7l-1.9-3.8l0.1-0.2
			c2.5-0.1,5.1-0.4,7.2-1.3c-1.6-2.6-3.5-4.7-7-8l1.2-4.2l0.2-0.1c4,3.8,7,8.1,8.3,10.5c0.3-0.3,0.5-0.6,0.7-1v-13.2l3.7-1l0.3,0.2
			v15.2c0,2.2,0.9,2.8,3.2,2.8C886.7,519.7,887.1,520.2,887.1,521z"/>
		<path class="st10" d="M914.1,521c0,1.5-0.5,2.7-2.1,2.7c-1.5,0-3.5-0.5-4.8-1.4c-1.1,0.9-2.5,1.4-4.1,1.4h0h0
			c-1.8,0-3.1-0.4-4.2-0.9c-0.8,0.6-1.8,0.9-3,0.9c-2,0-3.8-0.7-4.9-1.4c-1.3,1-3.1,1.4-6,1.4l0.9-4c2.1,0,2.9-0.1,3.5-0.4
			c0.3-0.6,0.6-2.2,0.8-3.6l4.3-0.7l0.1,0.1c-0.5,1.6-1,2.9-1.4,4c0.9,0.3,2.1,0.5,3.2,0.5c0.5,0,0.9-0.1,1.2-0.3
			c0.3-0.4,0.6-2.2,1-3.7l4-0.7l0.1,0.1c-0.5,1.6-0.9,3-1.4,4.2c0.8,0.2,1.6,0.3,2.4,0.3c0.6,0,1.3-0.1,1.8-0.4
			c0.1-0.4,0.2-0.9,0.2-1.7c0-0.9-0.1-2-0.3-3l4-1.5l0.2,0.1c0.1,0.8,0.1,1.4,0.1,2.1c0,1.4-0.2,2.7-0.5,3.7
			c0.9,0.4,2.2,0.6,3.7,0.6C913.8,519.7,914.1,520.3,914.1,521z"/>
		<path class="st10" d="M912.9,519.7c0.9,0,1.9-0.1,2.6-0.4c0.1-0.5,0.2-1.2,0.2-2.4v-14.4l3.7-1l0.3,0.2v15c0,5.6-2.9,7-7.6,7
			L912.9,519.7z"/>
		<path class="st10" d="M923.5,523.8v-21.2l3.7-1l0.3,0.2l-0.1,21.4l-3.7,0.8L923.5,523.8z"/>
	</g>
</g>
<path class="st12" d="M1024,43h-11.1v-6.6c0-1.7-1.1-3-2.6-3.5c1.4-1.1,2.3-2.9,2.3-4.8c0-3.4-2.8-6.2-6.2-6.2c-1,0-1.9,0.2-2.8,0.7
	c0.4-1.1,0.5-2.2,0.5-3.4c0-6.2-5-11.2-11.2-11.2c-6.2,0-11.2,5-11.2,11.2c0,1.2,0.2,2.4,0.5,3.4c-0.8-0.4-1.8-0.7-2.8-0.7
	c-3.4,0-6.2,2.8-6.2,6.2c0,1.9,0.9,3.6,2.3,4.8c-1.5,0.4-2.6,1.8-2.6,3.5V43h-10h-10v-6.6c0-1.7-1.1-3-2.6-3.5
	c1.4-1.1,2.3-2.9,2.3-4.8c0-3.4-2.8-6.2-6.2-6.2c-1,0-1.9,0.2-2.8,0.7c0.4-1.1,0.5-2.2,0.5-3.4c0-6.2-5-11.2-11.2-11.2
	c-6.2,0-11.2,5-11.2,11.2c0,1.2,0.2,2.4,0.5,3.4c-0.8-0.4-1.8-0.7-2.8-0.7c-3.4,0-6.2,2.8-6.2,6.2c0,1.9,0.9,3.6,2.3,4.8
	c-1.5,0.4-2.6,1.8-2.6,3.5V43h-10h-10v-6.6c0-1.7-1.1-3-2.6-3.5c1.4-1.1,2.3-2.9,2.3-4.8c0-3.4-2.8-6.2-6.2-6.2
	c-1,0-1.9,0.2-2.8,0.7c0.4-1.1,0.5-2.2,0.5-3.4c0-6.2-5-11.2-11.2-11.2c-6.2,0-11.2,5-11.2,11.2c0,1.2,0.2,2.4,0.5,3.4
	c-0.8-0.4-1.8-0.7-2.8-0.7c-3.4,0-6.2,2.8-6.2,6.2c0,1.9,0.9,3.6,2.3,4.8c-1.5,0.4-2.6,1.8-2.6,3.5V43h-10h-10v-6.6
	c0-1.7-1.1-3-2.6-3.5c1.4-1.1,2.3-2.9,2.3-4.8c0-3.4-2.8-6.2-6.2-6.2c-1,0-1.9,0.2-2.8,0.7c0.4-1.1,0.5-2.2,0.5-3.4
	c0-6.2-5-11.2-11.2-11.2c-6.2,0-11.2,5-11.2,11.2c0,1.2,0.2,2.4,0.5,3.4c-0.8-0.4-1.8-0.7-2.8-0.7c-3.4,0-6.2,2.8-6.2,6.2
	c0,1.9,0.9,3.6,2.3,4.8c-1.5,0.4-2.6,1.8-2.6,3.5V43h-10h-10v-6.6c0-1.7-1.1-3-2.6-3.5c1.4-1.1,2.3-2.9,2.3-4.8
	c0-3.4-2.8-6.2-6.2-6.2c-1,0-1.9,0.2-2.8,0.7c0.4-1.1,0.5-2.2,0.5-3.4c0-6.2-5-11.2-11.2-11.2c-6.2,0-11.2,5-11.2,11.2
	c0,1.2,0.2,2.4,0.5,3.4c-0.8-0.4-1.8-0.7-2.8-0.7c-3.4,0-6.2,2.8-6.2,6.2c0,1.9,0.9,3.6,2.3,4.8c-1.5,0.4-2.6,1.8-2.6,3.5V43h-10
	h-10v-6.6c0-1.7-1.1-3-2.6-3.5c1.4-1.1,2.3-2.9,2.3-4.8c0-3.4-2.8-6.2-6.2-6.2c-1,0-1.9,0.2-2.8,0.7c0.4-1.1,0.5-2.2,0.5-3.4
	c0-6.2-5-11.2-11.2-11.2c-6.2,0-11.2,5-11.2,11.2c0,1.2,0.2,2.4,0.5,3.4c-0.8-0.4-1.8-0.7-2.8-0.7c-3.4,0-6.2,2.8-6.2,6.2
	c0,1.9,0.9,3.6,2.3,4.8c-1.5,0.4-2.6,1.8-2.6,3.5V43h-10h-10v-6.6c0-1.7-1.1-3-2.6-3.5c1.4-1.1,2.3-2.9,2.3-4.8
	c0-3.4-2.8-6.2-6.2-6.2c-1,0-1.9,0.2-2.8,0.7c0.4-1.1,0.5-2.2,0.5-3.4c0-6.2-5-11.2-11.2-11.2c-6.2,0-11.2,5-11.2,11.2
	c0,1.2,0.2,2.4,0.5,3.4c-0.8-0.4-1.8-0.7-2.8-0.7c-3.4,0-6.2,2.8-6.2,6.2c0,1.9,0.9,3.6,2.3,4.8c-1.5,0.4-2.6,1.8-2.6,3.5V43h-10
	h-10v-6.6c0-1.7-1.1-3-2.6-3.5c1.4-1.1,2.3-2.9,2.3-4.8c0-3.4-2.8-6.2-6.2-6.2c-1,0-1.9,0.2-2.8,0.7c0.4-1.1,0.5-2.2,0.5-3.4
	c0-6.2-5-11.2-11.2-11.2c-6.2,0-11.2,5-11.2,11.2c0,1.2,0.2,2.4,0.5,3.4c-0.8-0.4-1.8-0.7-2.8-0.7c-3.4,0-6.2,2.8-6.2,6.2
	c0,1.9,0.9,3.6,2.3,4.8c-1.5,0.4-2.6,1.8-2.6,3.5V43h-10h-10v-6.6c0-1.7-1.1-3-2.6-3.5c1.4-1.1,2.3-2.9,2.3-4.8
	c0-3.4-2.8-6.2-6.2-6.2c-1,0-1.9,0.2-2.8,0.7c0.4-1.1,0.5-2.2,0.5-3.4c0-6.2-5-11.2-11.2-11.2c-6.2,0-11.2,5-11.2,11.2
	c0,1.2,0.2,2.4,0.5,3.4c-0.8-0.4-1.8-0.7-2.8-0.7c-3.4,0-6.2,2.8-6.2,6.2c0,1.9,0.9,3.6,2.3,4.8c-1.5,0.4-2.6,1.8-2.6,3.5V43h-10
	h-10v-6.6c0-1.7-1.1-3-2.6-3.5c1.4-1.1,2.3-2.9,2.3-4.8c0-3.4-2.8-6.2-6.2-6.2c-1,0-1.9,0.2-2.8,0.7c0.4-1.1,0.5-2.2,0.5-3.4
	c0-6.2-5-11.2-11.2-11.2c-6.2,0-11.2,5-11.2,11.2c0,1.2,0.2,2.4,0.5,3.4c-0.8-0.4-1.8-0.7-2.8-0.7c-3.4,0-6.2,2.8-6.2,6.2
	c0,1.9,0.9,3.6,2.3,4.8c-1.5,0.4-2.6,1.8-2.6,3.5V43h-10h-10v-6.6c0-1.7-1.1-3-2.6-3.5c1.4-1.1,2.3-2.9,2.3-4.8
	c0-3.4-2.8-6.2-6.2-6.2c-1,0-1.9,0.2-2.8,0.7c0.4-1.1,0.5-2.2,0.5-3.4c0-6.2-5-11.2-11.2-11.2c-6.2,0-11.2,5-11.2,11.2
	c0,1.2,0.2,2.4,0.5,3.4c-0.8-0.4-1.8-0.7-2.8-0.7c-3.4,0-6.2,2.8-6.2,6.2c0,1.9,0.9,3.6,2.3,4.8c-1.5,0.4-2.6,1.8-2.6,3.5V43h-10
	h-10v-6.6c0-1.7-1.1-3-2.6-3.5c1.4-1.1,2.3-2.9,2.3-4.8c0-3.4-2.8-6.2-6.2-6.2c-1,0-1.9,0.2-2.8,0.7c0.4-1.1,0.5-2.2,0.5-3.4
	c0-6.2-5-11.2-11.2-11.2c-6.2,0-11.2,5-11.2,11.2c0,1.2,0.2,2.4,0.5,3.4c-0.8-0.4-1.8-0.7-2.8-0.7c-3.4,0-6.2,2.8-6.2,6.2
	c0,1.9,0.9,3.6,2.3,4.8c-1.5,0.4-2.6,1.8-2.6,3.5V43h-10h-10v-6.6c0-1.7-1.1-3-2.6-3.5c1.4-1.1,2.3-2.9,2.3-4.8
	c0-3.4-2.8-6.2-6.2-6.2c-1,0-1.9,0.2-2.8,0.7c0.4-1.1,0.5-2.2,0.5-3.4c0-6.2-5-11.2-11.2-11.2c-6.2,0-11.2,5-11.2,11.2
	c0,1.2,0.2,2.4,0.5,3.4c-0.8-0.4-1.8-0.7-2.8-0.7c-3.4,0-6.2,2.8-6.2,6.2c0,1.9,0.9,3.6,2.3,4.8c-1.5,0.4-2.6,1.8-2.6,3.5V43h-10
	h-10v-6.6c0-1.7-1.1-3-2.6-3.5c1.4-1.1,2.3-2.9,2.3-4.8c0-3.4-2.8-6.2-6.2-6.2c-1,0-1.9,0.2-2.8,0.7c0.4-1.1,0.5-2.2,0.5-3.4
	c0-6.2-5-11.2-11.2-11.2c-6.2,0-11.2,5-11.2,11.2c0,1.2,0.2,2.4,0.5,3.4c-0.8-0.4-1.8-0.7-2.8-0.7c-3.4,0-6.2,2.8-6.2,6.2
	c0,1.9,0.9,3.6,2.3,4.8c-1.5,0.4-2.6,1.8-2.6,3.5V43h-10h-10v-6.6c0-1.7-1.1-3-2.6-3.5c1.4-1.1,2.3-2.9,2.3-4.8
	c0-3.4-2.8-6.2-6.2-6.2c-1,0-1.9,0.2-2.8,0.7c0.4-1.1,0.5-2.2,0.5-3.4c0-6.2-5-11.2-11.2-11.2c-6.2,0-11.2,5-11.2,11.2
	c0,1.2,0.2,2.4,0.5,3.4c-0.8-0.4-1.8-0.7-2.8-0.7c-3.4,0-6.2,2.8-6.2,6.2c0,1.9,0.9,3.6,2.3,4.8c-1.5,0.4-2.6,1.8-2.6,3.5V43h-10
	h-10v-6.6c0-1.7-1.1-3-2.6-3.5c1.4-1.1,2.3-2.9,2.3-4.8c0-3.4-2.8-6.2-6.2-6.2c-1,0-1.9,0.2-2.8,0.7c0.4-1.1,0.5-2.2,0.5-3.4
	c0-6.2-5-11.2-11.2-11.2c-6.2,0-11.2,5-11.2,11.2c0,1.2,0.2,2.4,0.5,3.4c-0.8-0.4-1.8-0.7-2.8-0.7c-3.4,0-6.2,2.8-6.2,6.2
	c0,1.9,0.9,3.6,2.3,4.8c-1.5,0.4-2.6,1.8-2.6,3.5V43h-10h-10v-6.6c0-1.7-1.1-3-2.6-3.5c1.4-1.1,2.3-2.9,2.3-4.8
	c0-3.4-2.8-6.2-6.2-6.2c-1,0-1.9,0.2-2.8,0.7c0.4-1.1,0.5-2.2,0.5-3.4c0-6.2-5-11.2-11.2-11.2c-6.2,0-11.2,5-11.2,11.2
	c0,1.2,0.2,2.4,0.5,3.4c-0.8-0.4-1.8-0.7-2.8-0.7c-3.4,0-6.2,2.8-6.2,6.2c0,1.9,0.9,3.6,2.3,4.8c-1.5,0.4-2.6,1.8-2.6,3.5V43H0V-0.8
	h1024V43z"/>
<g id="Layer_x0020_1_35_">
	<path class="st13" d="M34.3,719.3l43.9-1.7c0.3,0,0.6,0,1,0c0.7,0.1,1.3,0.4,1.8,0.9c0.5,0.5,0.9,1,0.9,1.7c0,0.2,0,0.5,0,0.8
		l-4.6,20.6c-0.2,0.9-0.6,1.7-1.3,2.2c-0.6,0.5-1.4,0.9-2.4,0.9l-35.3-1.2c-1,0-1.7-0.3-2.4-0.9l0,0c-0.6-0.6-1.1-1.4-1.3-2.2
		l-4.1-17.7c0-0.1,0-0.1,0-0.2c-0.1-0.8,0.3-1.5,0.9-2.1c0.6-0.5,1.4-0.8,2.3-1C34,719.3,34.2,719.3,34.3,719.3z M76.3,720.3
		l-42,1.5c-0.1,0-0.2,0-0.3,0c-0.6,0.1-1.1,0.3-1.5,0.7c-0.3,0.3-0.6,0.7-0.5,1.1c0,0,0,0.1,0,0.1l3.8,16.5c0.1,0.6,0.4,1.2,0.9,1.6
		c0.4,0.3,0.8,0.5,1.4,0.5l34,1.2c0.6,0,1-0.2,1.4-0.5c0.4-0.4,0.7-0.9,0.9-1.6l4.3-19.3c0-0.1,0-0.3,0-0.4c0-0.3-0.2-0.7-0.5-0.9
		c-0.3-0.3-0.7-0.5-1.1-0.5C76.7,720.3,76.5,720.3,76.3,720.3z"/>
	<path class="st13" d="M41.3,724l12.9-1.4c0.1,0,0.3,0,0.4,0c0.3,0.1,0.6,0.2,0.8,0.4c0.2,0.2,0.4,0.5,0.4,0.8c0,0.1,0,0.2,0,0.3
		l-2.1,9.6c-0.1,0.4-0.3,0.8-0.6,1c-0.3,0.3-0.6,0.4-1.1,0.4h-8.9c-0.4,0-0.8-0.2-1.1-0.4h0c-0.3-0.3-0.5-0.6-0.6-1l-1.9-8.2
		c0,0,0-0.1,0-0.1c-0.1-0.4,0.1-0.7,0.4-1c0.3-0.2,0.7-0.4,1-0.5C41.2,724,41.3,724,41.3,724z M53.3,723.9l-12,1.3c0,0-0.1,0-0.1,0
		c-0.3,0-0.5,0.2-0.7,0.3c-0.2,0.1-0.3,0.3-0.2,0.5c0,0,0,0,0,0l1.8,7.6c0.1,0.3,0.2,0.5,0.4,0.7c0.2,0.1,0.4,0.2,0.6,0.2h8.3
		c0.3,0,0.5-0.1,0.6-0.2c0.2-0.2,0.3-0.4,0.4-0.7l2-8.9c0-0.1,0-0.1,0-0.2c0-0.2-0.1-0.3-0.2-0.4c-0.1-0.1-0.3-0.2-0.5-0.2
		C53.5,723.9,53.4,723.9,53.3,723.9z"/>
	<g id="_1849662416_35_">
		<path class="st14" d="M59.8,736.1l0.4-0.7l-0.7-0.4l0.4-0.7l-1.5-0.8l-0.9,1.5l0,0c0.3,0.1,0.5,0.3,0.7,0.4l-0.4,0.7l0.7,0.4
			l-0.8,1.5l0.7,0.4c-0.2,0.5-0.6,1.1-0.9,1.5l0,0c0.2,0.1,0.4,0.2,0.5,0.3c0.3,0.1,0.2,0.1,0,0.5c-0.2,0.4-0.4,0.8-0.7,1.1l0.7,0.4
			c0,0.2-0.7,1.2-0.8,1.5l5.9,3.4l0.9-1.5l0.8,0.4l1.3-2.2l0.7,0.4l3-5.2c-0.1-0.1-0.7-0.4-0.7-0.5c0-0.2,0.4-0.6,0.4-0.7
			c-0.1-0.1-0.5-0.4-0.7-0.4l-1.3,2.2l-0.7-0.4l1.7-3l-1.5-0.9l-1.3,2.2l-0.7-0.4l1.7-2.9c-0.1-0.1-1.3-0.8-1.5-0.9l-1.7,3l-0.7-0.4
			c0-0.1,0.1-0.1,0.1-0.2c1.2-2.1,2.5-4.3,3.7-6.5l-1.5-0.8l-4.7,8.1C60.3,736.5,59.8,736.2,59.8,736.1L59.8,736.1z"/>
		<path class="st15" d="M57.7,739.9c-0.1,0.1-0.1,0.2-0.2,0.3l-0.7,1.1c0.1,0.1,0.2,0.1,0.4,0.2c0.1,0.1,0.2,0.1,0.3,0.2
			c-0.4,0.8-0.8,1.5-1.2,2.2c0.6,0.4,1.2,0.7,1.8,1.1l3.7,2.2c0.6,0.4,1.3,0.7,1.9,1.1c0.1-0.2,0.1-0.3,0.3-0.5
			c0.1-0.2,0.4-0.6,0.5-0.9c0.1-0.1,0.1-0.1,0.2-0.3c0.1-0.2,0.2-0.4,0.3-0.6c0.1,0.2,0.5,0.3,0.7,0.4c0.4-0.7,0.8-1.4,1.3-2.2
			c0.2,0.1,0.4,0.2,0.6,0.3c0.1,0.1,0.1,0.1,0.2,0c0.2-0.3,0.3-0.6,0.5-0.9c0.3-0.6,0.7-1.1,1-1.7l1.4-2.5c-0.2-0.1-0.6-0.3-0.7-0.4
			l-3,5.2l-0.7-0.4l-1.3,2.2l-0.8-0.4l-0.9,1.5l-5.9-3.4c0.1-0.3,0.8-1.3,0.8-1.5l-0.7-0.4c0.2-0.4,0.4-0.8,0.7-1.1
			c0.2-0.4,0.2-0.3,0-0.5C58,740.1,57.9,740,57.7,739.9z"/>
		<path class="st15" d="M59.9,734.2l-0.4,0.7l0.7,0.4l-0.4,0.7l0.7,0.4l4.7-8.1l-0.7-0.4c0,0,0,0,0,0l0,0c0,0,0,0,0,0l-3.8,6.6
			C60.4,734.5,60.2,734.4,59.9,734.2z"/>
		<path class="st15" d="M66.8,729.3l-3.9,6.6l0.7,0.4l1.7-3c0.2,0,1.4,0.8,1.5,0.9c0.2,0.2,1.6,0.9,1.9,1.1c0,0,0.1,0-0.1-0.1
			l-1.5-0.8c-0.4-0.2-0.3-0.1,0.1-0.9l-1.1-0.6c-0.1-0.1-0.2-0.1-0.3-0.2l1.7-2.9c-0.2-0.1-0.3-0.2-0.6-0.4
			C66.8,729.3,66.8,729.4,66.8,729.3z"/>
		<path class="st15" d="M68.6,736.3l0.4-0.7c-0.1-0.1-0.2-0.2-0.4-0.2c-0.3-0.2-1.7-0.9-1.9-1.1l-1.7,2.9l0.7,0.4l1.3-2.2
			L68.6,736.3z"/>
		<path class="st15" d="M57.6,734.9c-0.1,0.1-0.1,0.1-0.2,0.3c-0.1,0.1-0.1,0.3-0.2,0.4l0.7,0.4c-0.1,0.2-0.7,1.3-0.8,1.5l0.7,0.4
			l-0.6,1.1c-0.1,0.2-0.1,0.2-0.2,0.4l0.7,0.4c0.3-0.4,0.7-1,0.9-1.5l-0.7-0.4l0.8-1.5l-0.7-0.4l0.4-0.7
			C58.1,735.1,57.8,735,57.6,734.9z"/>
		<path class="st15" d="M57.6,734.9l0.9-1.5l1.5,0.8l0.2-0.4c0.1-0.1,0.1-0.2,0.2-0.4l-2-1.1c-0.3-0.2-0.2-0.2-0.5,0.2l-0.9,1.6
			c-0.1,0.2-0.2,0.2,0,0.3C57.1,734.6,57.5,734.9,57.6,734.9z"/>
		<path class="st15" d="M69.6,737.9c0.1,0,0,0,0.1-0.1c0,0,0.1-0.1,0.1-0.1c0-0.2,0.2-0.4,0.3-0.6l-1.5-0.8l-1.7,3l0.7,0.4l1.3-2.2
			C69.1,737.6,69.5,737.8,69.6,737.9z"/>
		<path class="st15" d="M66.8,729.3c0.1-0.2,0.3-0.5,0.4-0.7l-1.5-0.8l-0.4,0.7L66.8,729.3z"/>
		<path class="st15" d="M69.6,737.9c0,0.2-0.4,0.6-0.4,0.7c0,0.1,0.6,0.4,0.7,0.5c0.2,0.1,0.5,0.3,0.7,0.4l-1.4,2.5l1.5-2.5
			l-0.7-0.4c0.1-0.1,0.1-0.2,0.2-0.4c0.1-0.1,0.2-0.3,0.2-0.4c-0.8-0.5-0.8-0.3-0.6-0.6c0,0-0.1,0.1-0.1,0.1
			C69.7,737.9,69.8,737.9,69.6,737.9z"/>
	</g>
	<path class="st13" d="M94.4,736.1h-2.5l2.1-7.2l-4.3,7.2H87l-0.5-7.3l-1.8,7.3h-2.6l2.9-10.9h3.5l0.5,7.7l4.6-7.7h3.5L94.4,736.1z
		 M103.8,736.1h-5.6c-0.8,0-1.3-0.2-1.7-0.6c-0.4-0.4-0.4-1-0.2-1.8c0.3-0.9,0.7-1.6,1.3-2c0.6-0.4,1.5-0.6,2.6-0.6h2.5
		c0.1-0.4,0.1-0.7-0.1-0.8c-0.2-0.2-0.6-0.2-1.3-0.2h-3.6l0.5-2h4.3c1.1,0,1.9,0.3,2.3,0.8c0.4,0.5,0.5,1.3,0.2,2.3L103.8,736.1z
		 M101.9,734.2l0.3-1.2H100c-0.4,0-0.7,0-0.9,0.1c-0.2,0.1-0.3,0.3-0.3,0.5c-0.1,0.2-0.1,0.3,0,0.4c0,0,0.1,0.1,0.2,0.1
		c0.1,0,0.3,0,0.5,0H101.9z M112.6,736.1h-2.4l1.3-4.9c0.1-0.5,0.2-0.8,0-1c-0.1-0.1-0.4-0.2-0.9-0.2h-1.4l-1.6,6.1h-2.4l2.2-8.1h4
		c1.2,0,2,0.2,2.4,0.7c0.4,0.5,0.5,1.2,0.2,2.3L112.6,736.1z M121.4,736.1h-2.4l1.3-4.9c0.1-0.5,0.1-0.8,0-0.9
		c-0.1-0.1-0.2-0.1-0.3-0.2c-0.1,0-0.3-0.1-0.6-0.1l-1.4,0l-1.6,6.1h-2.4l2.9-10.9h2.4l-0.8,2.8h1.6c1.2,0,2,0.2,2.4,0.7
		c0.4,0.5,0.5,1.2,0.2,2.3L121.4,736.1z M130.6,736.1h-5.6c-0.8,0-1.3-0.2-1.7-0.6c-0.4-0.4-0.4-1-0.2-1.8c0.3-0.9,0.7-1.6,1.3-2
		c0.6-0.4,1.5-0.6,2.6-0.6h2.5c0.1-0.4,0.1-0.7-0.1-0.8c-0.2-0.2-0.6-0.2-1.3-0.2h-3.6l0.5-2h4.3c1.1,0,1.9,0.3,2.3,0.8
		c0.4,0.5,0.5,1.3,0.2,2.3L130.6,736.1z M128.6,734.2l0.3-1.2h-2.2c-0.4,0-0.7,0-0.9,0.1c-0.2,0.1-0.3,0.3-0.3,0.5
		c-0.1,0.2,0,0.3,0,0.4c0,0,0.1,0.1,0.2,0.1c0.1,0,0.3,0,0.5,0H128.6z M134.5,736.1H132l2.9-10.9h2.5L134.5,736.1z M140.1,736.1H138
		l0.6-2.2h2.1L140.1,736.1z M147.9,736.1h-2.9c-0.4,0-0.7,0-1-0.1c-0.3,0-0.5-0.1-0.8-0.2c-0.4-0.1-0.8-0.4-1-0.8
		c-0.1-0.2-0.2-0.4-0.3-0.6c-0.1-0.2-0.2-0.5-0.2-0.7c0-0.3,0-0.5,0-0.8c0-0.3,0.1-0.6,0.2-0.9c0.2-0.6,0.4-1.2,0.8-1.7
		c0.3-0.5,0.7-1,1.3-1.4c0.4-0.3,0.9-0.6,1.4-0.7c0.5-0.2,1.1-0.2,1.9-0.2h2.9l-0.5,2h-2.3c-0.5,0-0.9,0-1.2,0.1
		c-0.3,0.1-0.6,0.2-0.8,0.4c-0.4,0.3-0.7,0.8-0.9,1.6c-0.1,0.4-0.1,0.8-0.1,1.1c0.1,0.3,0.1,0.6,0.4,0.7l0.4,0.2c0.1,0,0.3,0,0.4,0
		c0.1,0,0.4,0,0.6,0h2.3L147.9,736.1z M157.9,732c-0.3,1.3-1,2.3-2,3.1c-1,0.8-2.1,1.1-3.4,1.1c-1.3,0-2.2-0.4-2.8-1.1
		c-0.6-0.8-0.7-1.8-0.3-3.1c0.3-1.3,1-2.3,2-3c1-0.8,2.1-1.1,3.4-1.1c1.3,0,2.2,0.4,2.8,1.1C158.2,729.7,158.3,730.8,157.9,732z
		 M155.4,732c0.2-0.7,0.1-1.2-0.1-1.6c-0.2-0.4-0.6-0.6-1.1-0.6c-0.5,0-1,0.2-1.4,0.6c-0.4,0.4-0.7,0.9-0.9,1.6
		c-0.1,0.4-0.1,0.7-0.1,0.9c0,0.3,0.1,0.5,0.2,0.7c0.2,0.4,0.6,0.6,1.1,0.6c0.6,0,1-0.2,1.4-0.6C154.9,733.3,155.3,732.7,155.4,732z
		 M169.1,736.1h-2.4l1.3-4.9c0.1-0.5,0.2-0.8,0.1-1c-0.1-0.2-0.4-0.2-0.9-0.2l-0.9,0l-1.6,6.1h-2.4l1.6-6.1h-2l-1.6,6.1h-2.4
		l2.2-8.1h8c1.2,0,2,0.2,2.4,0.7c0.4,0.5,0.5,1.2,0.2,2.3L169.1,736.1z"/>
	<path class="st13" d="M27.3,728l21.2-2.2c0.2,0,0.5,0,0.7,0c0.5,0.1,1,0.3,1.4,0.7c0.4,0.3,0.6,0.8,0.7,1.3c0,0.2,0,0.4,0,0.6
		l-3.7,9.6c-0.1,0.7-0.5,1.3-1,1.7c-0.5,0.4-1.1,0.7-1.8,0.7H30.3c-0.7,0-1.3-0.3-1.8-0.7h0c-0.5-0.4-0.8-1.1-1-1.7l-2.9-7.4
		c0-0.1,0-0.1,0-0.2c-0.1-0.6,0.2-1.2,0.7-1.6c0.5-0.4,1.1-0.6,1.7-0.8C27.1,728.1,27.2,728,27.3,728z M47,727.9L27.3,730
		c-0.1,0-0.2,0-0.2,0c-0.4,0.1-0.9,0.3-1.2,0.5c-0.3,0.2-0.4,0.5-0.4,0.8c0,0,0,0.1,0,0.1l2.7,6.5c0.1,0.5,0.3,0.9,0.7,1.2
		c0.3,0.2,0.6,0.4,1,0.4h13.6c0.4,0,0.8-0.1,1-0.4c0.3-0.3,0.5-0.7,0.7-1.2l3.4-8.6c0-0.1,0-0.2,0-0.3c0-0.3-0.2-0.5-0.4-0.7
		c-0.2-0.2-0.5-0.4-0.8-0.4C47.3,727.9,47.2,727.9,47,727.9z"/>
	<path class="st13" d="M87,721.7l-0.5,1.7h-0.6l1.2-4.5h1.3c0.3,0,0.5,0,0.7,0.1c0.2,0.1,0.3,0.2,0.4,0.3c0.1,0.1,0.2,0.3,0.2,0.4
		c0,0.2,0,0.4-0.1,0.6c-0.1,0.2-0.1,0.4-0.3,0.6c-0.1,0.2-0.3,0.3-0.4,0.4c-0.2,0.1-0.4,0.2-0.6,0.3c-0.2,0.1-0.5,0.1-0.7,0.1H87z
		 M87.1,721.3h0.7c0.2,0,0.3,0,0.5-0.1c0.1,0,0.3-0.1,0.4-0.2c0.1-0.1,0.2-0.2,0.3-0.3c0.1-0.1,0.1-0.2,0.2-0.4
		c0.1-0.3,0.1-0.5-0.1-0.7c-0.1-0.2-0.4-0.2-0.7-0.2h-0.7L87.1,721.3z"/>
	<path id="_x31__35_" class="st13" d="M91.7,720.2c0.2,0,0.4,0,0.6,0.1c0.2,0.1,0.3,0.2,0.4,0.3c0.1,0.1,0.1,0.3,0.2,0.5
		c0,0.2,0,0.4-0.1,0.7c-0.1,0.3-0.2,0.5-0.3,0.7c-0.1,0.2-0.3,0.4-0.4,0.5c-0.2,0.1-0.4,0.3-0.6,0.3c-0.2,0.1-0.4,0.1-0.7,0.1
		c-0.2,0-0.4,0-0.6-0.1c-0.2-0.1-0.3-0.2-0.4-0.3c-0.1-0.1-0.1-0.3-0.2-0.5c0-0.2,0-0.4,0.1-0.7c0.1-0.3,0.2-0.5,0.3-0.7
		c0.1-0.2,0.3-0.4,0.4-0.5c0.2-0.1,0.4-0.3,0.6-0.3C91.2,720.2,91.4,720.2,91.7,720.2z M90.9,723c0.3,0,0.6-0.1,0.8-0.3
		c0.2-0.2,0.4-0.5,0.5-0.9c0.1-0.4,0.1-0.7,0-0.9c-0.1-0.2-0.3-0.3-0.6-0.3c-0.2,0-0.3,0-0.4,0.1c-0.1,0.1-0.3,0.1-0.4,0.2
		c-0.1,0.1-0.2,0.2-0.3,0.4c-0.1,0.1-0.1,0.3-0.2,0.5c0,0.2-0.1,0.4-0.1,0.5c0,0.1,0,0.3,0.1,0.4c0.1,0.1,0.1,0.2,0.2,0.2
		C90.6,723,90.8,723,90.9,723z"/>
	<path id="_x32__35_" class="st13" d="M93.5,720.2h0.4c0,0,0.1,0,0.1,0c0,0,0,0,0,0.1l0.1,2c0,0.1,0,0.1,0,0.2c0,0.1,0,0.1,0,0.2
		c0-0.1,0.1-0.1,0.1-0.2c0-0.1,0.1-0.1,0.1-0.2l1.2-2.1c0,0,0-0.1,0.1-0.1c0,0,0.1,0,0.1,0H96c0,0,0.1,0,0.1,0c0,0,0,0,0,0.1
		l0.1,2.1c0,0.1,0,0.1,0,0.2c0,0.1,0,0.1,0,0.2c0-0.1,0.1-0.1,0.1-0.2c0-0.1,0.1-0.1,0.1-0.2l1.2-2c0,0,0-0.1,0.1-0.1
		c0,0,0.1,0,0.1,0h0.4l-1.9,3.2h-0.4c-0.1,0-0.1,0-0.1-0.1l-0.1-2.2c0,0,0-0.1,0-0.1c0-0.1,0-0.1,0-0.1c0,0,0,0.1-0.1,0.1
		c0,0,0,0.1-0.1,0.1l-1.3,2.2c0,0.1-0.1,0.1-0.2,0.1h-0.4L93.5,720.2z"/>
	<path id="_x33__35_" class="st13" d="M99.9,720.2c0.2,0,0.4,0,0.5,0.1c0.1,0.1,0.3,0.2,0.3,0.3c0.1,0.1,0.1,0.3,0.2,0.4
		c0,0.2,0,0.4-0.1,0.6c0,0.1,0,0.1-0.1,0.2c0,0-0.1,0-0.1,0h-2.1c-0.1,0.2-0.1,0.4-0.1,0.5c0,0.1,0,0.3,0.1,0.4
		c0.1,0.1,0.1,0.2,0.3,0.2c0.1,0,0.2,0.1,0.4,0.1c0.1,0,0.3,0,0.4,0c0.1,0,0.2-0.1,0.3-0.1c0.1,0,0.2-0.1,0.2-0.1
		c0.1,0,0.1-0.1,0.1-0.1c0,0,0.1,0,0.1,0.1l0.1,0.2c-0.1,0.1-0.2,0.2-0.3,0.2c-0.1,0.1-0.2,0.1-0.3,0.2c-0.1,0-0.2,0.1-0.4,0.1
		c-0.1,0-0.2,0-0.4,0c-0.2,0-0.4,0-0.6-0.1c-0.2-0.1-0.3-0.2-0.4-0.3c-0.1-0.1-0.2-0.3-0.2-0.5c0-0.2,0-0.5,0.1-0.7
		c0.1-0.2,0.1-0.4,0.3-0.6c0.1-0.2,0.3-0.4,0.4-0.5c0.2-0.1,0.4-0.3,0.6-0.3C99.5,720.2,99.7,720.2,99.9,720.2z M99.9,720.6
		c-0.3,0-0.5,0.1-0.7,0.2c-0.2,0.2-0.4,0.4-0.5,0.6h1.7c0-0.1,0.1-0.3,0-0.4c0-0.1,0-0.2-0.1-0.3c0-0.1-0.1-0.1-0.2-0.2
		C100.1,720.6,100,720.6,99.9,720.6z"/>
	<path id="_x34__35_" class="st13" d="M101.1,723.4l0.9-3.2h0.3c0.1,0,0.1,0,0.1,0c0,0,0,0.1,0,0.1l-0.1,0.5
		c0.2-0.2,0.4-0.4,0.5-0.5c0.2-0.1,0.4-0.2,0.6-0.2c0.1,0,0.2,0,0.2,0c0.1,0,0.1,0,0.2,0.1l-0.2,0.4c0,0.1-0.1,0.1-0.1,0.1
		c0,0-0.1,0-0.1,0c-0.1,0-0.1,0-0.2,0c-0.2,0-0.4,0.1-0.5,0.2c-0.2,0.1-0.3,0.3-0.5,0.5l-0.5,2H101.1z"/>
	<path id="_x35__35_" class="st13" d="M105.8,720.2c0.2,0,0.4,0,0.5,0.1c0.1,0.1,0.3,0.2,0.3,0.3c0.1,0.1,0.1,0.3,0.2,0.4
		c0,0.2,0,0.4-0.1,0.6c0,0.1,0,0.1-0.1,0.2c0,0-0.1,0-0.1,0h-2.1c-0.1,0.2-0.1,0.4-0.1,0.5c0,0.1,0,0.3,0.1,0.4
		c0.1,0.1,0.1,0.2,0.3,0.2c0.1,0,0.2,0.1,0.4,0.1c0.1,0,0.3,0,0.4,0c0.1,0,0.2-0.1,0.3-0.1c0.1,0,0.2-0.1,0.2-0.1
		c0.1,0,0.1-0.1,0.1-0.1c0,0,0.1,0,0.1,0.1l0.1,0.2c-0.1,0.1-0.2,0.2-0.3,0.2c-0.1,0.1-0.2,0.1-0.3,0.2c-0.1,0-0.2,0.1-0.4,0.1
		c-0.1,0-0.2,0-0.4,0c-0.2,0-0.4,0-0.6-0.1c-0.2-0.1-0.3-0.2-0.4-0.3c-0.1-0.1-0.2-0.3-0.2-0.5c0-0.2,0-0.5,0.1-0.7
		c0.1-0.2,0.2-0.4,0.3-0.6c0.1-0.2,0.3-0.4,0.4-0.5c0.2-0.1,0.4-0.3,0.6-0.3C105.3,720.2,105.5,720.2,105.8,720.2z M105.7,720.6
		c-0.3,0-0.5,0.1-0.7,0.2c-0.2,0.2-0.4,0.4-0.5,0.6h1.7c0-0.1,0-0.3,0-0.4c0-0.1,0-0.2-0.1-0.3c0-0.1-0.1-0.1-0.2-0.2
		C105.9,720.6,105.8,720.6,105.7,720.6z"/>
	<path id="_x36__35_" class="st13" d="M109.2,723.4c-0.1,0-0.1,0-0.1-0.1l0.1-0.4c-0.2,0.2-0.4,0.3-0.6,0.4
		c-0.2,0.1-0.4,0.1-0.6,0.1c-0.2,0-0.3,0-0.5-0.1c-0.1-0.1-0.2-0.2-0.3-0.3c-0.1-0.1-0.1-0.3-0.1-0.5c0-0.2,0-0.4,0.1-0.7
		c0.1-0.2,0.2-0.5,0.3-0.7c0.1-0.2,0.3-0.4,0.4-0.5c0.2-0.2,0.3-0.3,0.5-0.4c0.2-0.1,0.4-0.1,0.6-0.1c0.2,0,0.4,0,0.5,0.1
		c0.1,0.1,0.2,0.2,0.3,0.3l0.5-1.8h0.6l-1.2,4.6H109.2z M108.2,723c0.2,0,0.4,0,0.5-0.1c0.2-0.1,0.3-0.2,0.5-0.4l0.4-1.5
		c-0.1-0.1-0.2-0.2-0.3-0.3c-0.1-0.1-0.2-0.1-0.4-0.1c-0.3,0-0.6,0.1-0.8,0.3c-0.2,0.2-0.4,0.5-0.5,0.9c-0.1,0.2-0.1,0.4-0.1,0.5
		c0,0.1,0,0.3,0.1,0.4c0,0.1,0.1,0.2,0.2,0.2C108,723,108.1,723,108.2,723z"/>
	<path id="_x37__35_" class="st13" d="M111.7,723.4l1.2-4.6h0.6l-0.5,1.9c0.2-0.2,0.4-0.3,0.6-0.4c0.2-0.1,0.4-0.1,0.6-0.1
		c0.2,0,0.3,0,0.5,0.1c0.1,0.1,0.2,0.2,0.3,0.3c0.1,0.1,0.1,0.3,0.1,0.5c0,0.2,0,0.4-0.1,0.7c-0.1,0.2-0.2,0.5-0.3,0.7
		c-0.1,0.2-0.3,0.4-0.4,0.5c-0.2,0.1-0.3,0.3-0.5,0.3c-0.2,0.1-0.4,0.1-0.6,0.1c-0.2,0-0.4,0-0.5-0.1c-0.1-0.1-0.2-0.2-0.3-0.3
		l-0.1,0.3c0,0.1-0.1,0.1-0.2,0.1H111.7z M113.8,720.6c-0.2,0-0.4,0-0.5,0.1c-0.2,0.1-0.3,0.2-0.5,0.4l-0.4,1.5
		c0.1,0.1,0.1,0.2,0.3,0.3c0.1,0.1,0.2,0.1,0.4,0.1c0.3,0,0.6-0.1,0.8-0.3c0.2-0.2,0.4-0.5,0.5-0.9c0.1-0.2,0.1-0.4,0.1-0.5
		c0-0.1,0-0.3-0.1-0.4c0-0.1-0.1-0.2-0.2-0.2C114.1,720.7,114,720.6,113.8,720.6z"/>
	<path id="_x38__35_" class="st13" d="M115.8,724.4c0,0-0.1,0.1-0.1,0.1c0,0-0.1,0-0.1,0h-0.4l0.9-1.2l-0.5-3h0.5c0,0,0.1,0,0.1,0
		c0,0,0,0,0,0.1l0.3,2c0,0,0,0.1,0,0.1c0,0,0,0.1,0,0.1c0,0,0.1-0.1,0.1-0.1c0,0,0.1-0.1,0.1-0.1l1.4-2c0,0,0.1-0.1,0.1-0.1
		c0,0,0.1,0,0.1,0h0.4L115.8,724.4z"/>
	<path id="_x39__35_" class="st13" d="M118.3,723.1c0-0.1,0-0.1,0.1-0.2c0-0.1,0.1-0.1,0.1-0.1c0,0,0.1-0.1,0.1-0.1
		c0.1,0,0.1,0,0.2,0c0.1,0,0.1,0,0.1,0c0,0,0.1,0,0.1,0.1c0,0,0,0.1,0.1,0.1c0,0,0,0.1,0,0.2c0,0.1,0,0.1-0.1,0.2
		c0,0-0.1,0.1-0.1,0.1c0,0-0.1,0.1-0.1,0.1c-0.1,0-0.1,0-0.2,0c-0.1,0-0.1,0-0.1,0c0,0-0.1,0-0.1-0.1c0,0,0-0.1,0-0.1
		C118.3,723.2,118.3,723.1,118.3,723.1z M119,720.7c0-0.1,0-0.1,0.1-0.2c0,0,0.1-0.1,0.1-0.1c0,0,0.1-0.1,0.1-0.1c0.1,0,0.1,0,0.2,0
		c0.1,0,0.1,0,0.1,0c0,0,0.1,0,0.1,0.1c0,0,0,0.1,0.1,0.1c0,0,0,0.1,0,0.2c0,0.1,0,0.1-0.1,0.2c0,0-0.1,0.1-0.1,0.1
		c0,0-0.1,0.1-0.1,0.1c-0.1,0-0.1,0-0.2,0c-0.1,0-0.1,0-0.1,0c0,0-0.1,0-0.1-0.1c0,0,0-0.1,0-0.1C118.9,720.8,118.9,720.8,119,720.7
		z"/>
	<path class="st13" d="M125.4,738.5l-0.1,0.5H123l-0.4,1.6h1.8l-0.1,0.5h-1.8l-0.4,1.6h2.3l-0.1,0.5h-2.9l1.3-4.8H125.4z M125.4,741
		h1.6l-0.1,0.5h-1.6L125.4,741z M128.2,742.7h2.1l-0.1,0.5h-2.7l1.3-4.8h0.6L128.2,742.7z M132.8,739.8c0.2,0,0.4,0,0.5,0.1
		c0.2,0.1,0.3,0.2,0.4,0.3c0.1,0.1,0.1,0.3,0.2,0.5c0,0.2,0,0.4-0.1,0.6c0,0.1-0.1,0.2-0.1,0.2c0,0-0.1,0-0.1,0h-2.2
		c-0.1,0.2-0.1,0.4-0.1,0.6c0,0.2,0,0.3,0.1,0.4c0.1,0.1,0.2,0.2,0.3,0.2c0.1,0.1,0.3,0.1,0.4,0.1c0.1,0,0.3,0,0.4-0.1
		c0.1,0,0.2-0.1,0.3-0.1c0.1,0,0.2-0.1,0.2-0.1c0.1,0,0.1-0.1,0.1-0.1c0,0,0.1,0,0.1,0.1l0.1,0.2c-0.1,0.1-0.2,0.2-0.3,0.2
		c-0.1,0.1-0.2,0.1-0.4,0.2c-0.1,0-0.3,0.1-0.4,0.1c-0.1,0-0.3,0-0.4,0c-0.2,0-0.4,0-0.6-0.1c-0.2-0.1-0.3-0.2-0.4-0.3
		c-0.1-0.2-0.2-0.3-0.2-0.6c0-0.2,0-0.5,0.1-0.8c0.1-0.2,0.2-0.5,0.3-0.7c0.1-0.2,0.3-0.4,0.5-0.5c0.2-0.1,0.4-0.3,0.6-0.4
		C132.3,739.9,132.6,739.8,132.8,739.8z M132.7,740.3c-0.3,0-0.5,0.1-0.7,0.2c-0.2,0.2-0.4,0.4-0.5,0.7h1.8c0-0.1,0.1-0.3,0-0.4
		c0-0.1,0-0.2-0.1-0.3c-0.1-0.1-0.1-0.1-0.2-0.2C133,740.3,132.8,740.3,132.7,740.3z M136.5,743.3h-0.3c-0.1,0-0.1,0-0.1,0
		c0,0,0-0.1,0-0.1l0-0.3c-0.1,0.1-0.2,0.2-0.3,0.2c-0.1,0.1-0.2,0.1-0.3,0.2c-0.1,0-0.2,0.1-0.3,0.1c-0.1,0-0.2,0-0.4,0
		c-0.1,0-0.2,0-0.4-0.1c-0.1,0-0.2-0.1-0.3-0.2c-0.1-0.1-0.1-0.2-0.1-0.3c0-0.1,0-0.2,0-0.4c0-0.1,0.1-0.3,0.2-0.4
		c0.1-0.1,0.3-0.2,0.4-0.3c0.2-0.1,0.4-0.2,0.7-0.2c0.3-0.1,0.6-0.1,1-0.1l0.1-0.3c0.1-0.3,0.1-0.5,0-0.6c-0.1-0.1-0.2-0.2-0.4-0.2
		c-0.1,0-0.3,0-0.4,0.1c-0.1,0-0.2,0.1-0.3,0.1c-0.1,0-0.2,0.1-0.2,0.1c-0.1,0-0.1,0.1-0.2,0.1c0,0-0.1,0-0.1,0c0,0,0,0-0.1-0.1
		l-0.1-0.2c0.2-0.2,0.5-0.3,0.7-0.4c0.2-0.1,0.5-0.1,0.8-0.1c0.2,0,0.3,0,0.5,0.1c0.1,0.1,0.2,0.1,0.3,0.3c0.1,0.1,0.1,0.2,0.1,0.4
		c0,0.2,0,0.3-0.1,0.5L136.5,743.3z M135.1,742.9c0.1,0,0.2,0,0.3,0s0.2-0.1,0.3-0.1c0.1,0,0.2-0.1,0.3-0.1c0.1-0.1,0.2-0.1,0.3-0.2
		l0.2-0.7c-0.3,0-0.5,0-0.7,0.1c-0.2,0-0.4,0.1-0.5,0.1c-0.1,0.1-0.2,0.1-0.3,0.2c-0.1,0.1-0.1,0.2-0.1,0.3c0,0.1,0,0.2,0,0.2
		c0,0.1,0,0.1,0.1,0.2c0,0,0.1,0.1,0.1,0.1C134.9,742.9,135,742.9,135.1,742.9z M137.4,743.3l0.9-3.4h0.3c0.1,0,0.1,0,0.1,0
		c0,0,0,0.1,0,0.1l-0.1,0.6c0.2-0.2,0.4-0.4,0.6-0.6c0.2-0.1,0.4-0.2,0.6-0.2c0.1,0,0.2,0,0.2,0c0.1,0,0.1,0.1,0.2,0.1l-0.2,0.4
		c0,0.1-0.1,0.1-0.1,0.1c0,0-0.1,0-0.1,0c-0.1,0-0.1,0-0.3,0c-0.2,0-0.4,0.1-0.6,0.2c-0.2,0.1-0.3,0.3-0.5,0.5l-0.6,2.1H137.4z
		 M140.1,743.3l0.9-3.4h0.4c0.1,0,0.1,0,0.1,0.1l-0.1,0.4c0.2-0.2,0.4-0.3,0.6-0.4c0.2-0.1,0.4-0.2,0.7-0.2c0.2,0,0.3,0,0.5,0.1
		c0.1,0.1,0.2,0.1,0.3,0.3c0.1,0.1,0.1,0.2,0.1,0.4c0,0.2,0,0.3-0.1,0.5l-0.6,2.1h-0.6l0.6-2.1c0.1-0.3,0.1-0.5,0-0.6
		c-0.1-0.1-0.2-0.2-0.5-0.2c-0.2,0-0.3,0-0.5,0.1c-0.2,0.1-0.3,0.2-0.5,0.3l-0.7,2.5H140.1z M145.3,739.9l-0.9,3.4h-0.6l0.9-3.4
		H145.3z M145.8,738.8c0,0.1,0,0.1-0.1,0.2c0,0-0.1,0.1-0.1,0.1c0,0-0.1,0.1-0.2,0.1c-0.1,0-0.1,0-0.2,0c-0.1,0-0.1,0-0.2,0
		c0,0-0.1-0.1-0.1-0.1c0,0,0-0.1-0.1-0.1c0,0,0-0.1,0-0.2c0-0.1,0-0.1,0.1-0.2c0-0.1,0.1-0.1,0.1-0.1c0,0,0.1-0.1,0.2-0.1
		c0.1,0,0.1,0,0.2,0c0.1,0,0.1,0,0.2,0c0,0,0.1,0.1,0.1,0.1c0,0,0,0.1,0.1,0.1C145.8,738.7,145.8,738.8,145.8,738.8z M145.5,743.3
		l0.9-3.4h0.4c0.1,0,0.1,0,0.1,0.1l-0.1,0.4c0.2-0.2,0.4-0.3,0.6-0.4c0.2-0.1,0.4-0.2,0.7-0.2c0.2,0,0.3,0,0.5,0.1
		c0.1,0.1,0.2,0.1,0.3,0.3c0.1,0.1,0.1,0.2,0.1,0.4c0,0.2,0,0.3-0.1,0.5l-0.6,2.1h-0.6l0.6-2.1c0.1-0.3,0.1-0.5,0-0.6
		c-0.1-0.1-0.2-0.2-0.5-0.2c-0.2,0-0.3,0-0.5,0.1c-0.2,0.1-0.3,0.2-0.5,0.3l-0.7,2.5H145.5z M151.2,739.8c0.1,0,0.3,0,0.4,0
		c0.1,0,0.2,0.1,0.3,0.1h0.9l-0.1,0.2c0,0.1-0.1,0.1-0.2,0.1l-0.4,0.1c0,0.1,0,0.3,0,0.5c0,0.2-0.1,0.3-0.2,0.4
		c-0.1,0.1-0.2,0.2-0.4,0.3c-0.1,0.1-0.3,0.2-0.5,0.2c-0.2,0-0.3,0.1-0.5,0.1c-0.2,0-0.3,0-0.4-0.1c-0.1,0-0.1,0.1-0.2,0.1
		c-0.1,0.1-0.1,0.1-0.1,0.2c0,0.1,0,0.1,0,0.2s0.1,0.1,0.2,0.1c0.1,0,0.2,0,0.4,0c0.1,0,0.3,0,0.4,0c0.1,0,0.3,0,0.4,0
		c0.1,0,0.2,0.1,0.3,0.1c0.1,0.1,0.2,0.1,0.2,0.2c0,0.1,0,0.2,0,0.4c0,0.1-0.1,0.3-0.2,0.4c-0.1,0.1-0.2,0.3-0.4,0.4
		c-0.2,0.1-0.3,0.2-0.6,0.3c-0.2,0.1-0.4,0.1-0.7,0.1c-0.2,0-0.5,0-0.6-0.1c-0.2,0-0.3-0.1-0.4-0.2c-0.1-0.1-0.2-0.2-0.2-0.3
		c0-0.1,0-0.2,0-0.3c0-0.2,0.1-0.3,0.3-0.4c0.1-0.1,0.3-0.2,0.5-0.3c-0.1,0-0.1-0.1-0.2-0.2c0-0.1,0-0.2,0-0.3c0,0,0-0.1,0.1-0.2
		c0-0.1,0.1-0.1,0.1-0.2c0-0.1,0.1-0.1,0.2-0.1c0.1,0,0.1-0.1,0.2-0.1c-0.1-0.1-0.2-0.2-0.3-0.4c-0.1-0.2-0.1-0.3,0-0.5
		c0-0.2,0.1-0.3,0.2-0.4c0.1-0.1,0.2-0.3,0.4-0.3c0.1-0.1,0.3-0.2,0.5-0.2C150.9,739.9,151,739.8,151.2,739.8z M151.3,743.4
		c0-0.1,0-0.2,0-0.2c0-0.1-0.1-0.1-0.2-0.1c-0.1,0-0.2,0-0.3-0.1c-0.1,0-0.2,0-0.3,0c-0.1,0-0.2,0-0.4,0c-0.1,0-0.2,0-0.3,0
		c-0.1,0.1-0.3,0.1-0.4,0.2c-0.1,0.1-0.2,0.2-0.2,0.3c0,0.1,0,0.1,0,0.2c0,0.1,0.1,0.1,0.1,0.2c0.1,0,0.2,0.1,0.3,0.1
		c0.1,0,0.3,0,0.4,0c0.2,0,0.3,0,0.4,0c0.1,0,0.3-0.1,0.4-0.1c0.1-0.1,0.2-0.1,0.3-0.2C151.2,743.6,151.3,743.5,151.3,743.4z
		 M150.7,741.6c0.1,0,0.2,0,0.3,0c0.1,0,0.2-0.1,0.3-0.1c0.1-0.1,0.1-0.1,0.2-0.2c0.1-0.1,0.1-0.2,0.1-0.3c0.1-0.2,0-0.4-0.1-0.5
		c-0.1-0.1-0.3-0.2-0.5-0.2c-0.2,0-0.4,0.1-0.6,0.2c-0.2,0.1-0.3,0.3-0.3,0.5c0,0.1,0,0.2,0,0.3c0,0.1,0,0.2,0.1,0.2
		c0,0.1,0.1,0.1,0.2,0.1C150.5,741.6,150.6,741.6,150.7,741.6z M158.5,738.5l-0.1,0.5h-1.5l-1.1,4.2H155l1.1-4.2h-1.5l0.1-0.5H158.5
		z M159.3,739.8c0.2,0,0.4,0,0.5,0.1c0.2,0.1,0.3,0.2,0.4,0.3c0.1,0.1,0.1,0.3,0.2,0.5c0,0.2,0,0.4-0.1,0.6c0,0.1,0,0.2-0.1,0.2
		c0,0-0.1,0-0.1,0h-2.2c-0.1,0.2-0.1,0.4-0.1,0.6c0,0.2,0,0.3,0.1,0.4c0.1,0.1,0.2,0.2,0.3,0.2c0.1,0.1,0.2,0.1,0.4,0.1
		c0.1,0,0.3,0,0.4-0.1c0.1,0,0.2-0.1,0.3-0.1c0.1,0,0.2-0.1,0.2-0.1c0.1,0,0.1-0.1,0.1-0.1c0,0,0.1,0,0.1,0.1l0.1,0.2
		c-0.1,0.1-0.2,0.2-0.3,0.2c-0.1,0.1-0.2,0.1-0.4,0.2c-0.1,0-0.3,0.1-0.4,0.1c-0.1,0-0.3,0-0.4,0c-0.2,0-0.4,0-0.6-0.1
		c-0.2-0.1-0.3-0.2-0.4-0.3c-0.1-0.2-0.2-0.3-0.2-0.6c0-0.2,0-0.5,0.1-0.8c0.1-0.2,0.2-0.5,0.3-0.7c0.1-0.2,0.3-0.4,0.5-0.5
		c0.2-0.1,0.4-0.3,0.6-0.4C158.8,739.9,159.1,739.8,159.3,739.8z M159.2,740.3c-0.3,0-0.5,0.1-0.7,0.2c-0.2,0.2-0.4,0.4-0.5,0.7h1.8
		c0-0.1,0-0.3,0-0.4c0-0.1,0-0.2-0.1-0.3c-0.1-0.1-0.1-0.1-0.2-0.2C159.5,740.3,159.3,740.3,159.2,740.3z M163,743.3h-0.3
		c-0.1,0-0.1,0-0.1,0c0,0,0-0.1,0-0.1l0-0.3c-0.1,0.1-0.2,0.2-0.3,0.2c-0.1,0.1-0.2,0.1-0.3,0.2c-0.1,0-0.2,0.1-0.3,0.1
		c-0.1,0-0.2,0-0.4,0c-0.1,0-0.2,0-0.4-0.1c-0.1,0-0.2-0.1-0.3-0.2c-0.1-0.1-0.1-0.2-0.1-0.3c0-0.1,0-0.2,0-0.4
		c0-0.1,0.1-0.3,0.2-0.4c0.1-0.1,0.3-0.2,0.4-0.3c0.2-0.1,0.4-0.2,0.7-0.2c0.3-0.1,0.6-0.1,1-0.1l0.1-0.3c0.1-0.3,0.1-0.5,0-0.6
		c-0.1-0.1-0.2-0.2-0.4-0.2c-0.1,0-0.3,0-0.4,0.1c-0.1,0-0.2,0.1-0.3,0.1c-0.1,0-0.2,0.1-0.2,0.1c-0.1,0-0.1,0.1-0.2,0.1
		c0,0-0.1,0-0.1,0c0,0,0,0-0.1-0.1l-0.1-0.2c0.2-0.2,0.5-0.3,0.7-0.4c0.2-0.1,0.5-0.1,0.7-0.1c0.2,0,0.3,0,0.5,0.1
		c0.1,0.1,0.2,0.1,0.3,0.3c0.1,0.1,0.1,0.2,0.1,0.4c0,0.2,0,0.3-0.1,0.5L163,743.3z M161.6,742.9c0.1,0,0.2,0,0.3,0
		c0.1,0,0.2-0.1,0.3-0.1c0.1,0,0.2-0.1,0.3-0.1c0.1-0.1,0.2-0.1,0.3-0.2l0.2-0.7c-0.3,0-0.5,0-0.7,0.1c-0.2,0-0.4,0.1-0.5,0.1
		c-0.1,0.1-0.2,0.1-0.3,0.2c-0.1,0.1-0.1,0.2-0.2,0.3c0,0.1,0,0.2,0,0.2c0,0.1,0,0.1,0.1,0.2c0,0,0.1,0.1,0.1,0.1
		C161.4,742.9,161.5,742.9,161.6,742.9z M163.9,743.3l0.9-3.4h0.3c0.1,0,0.1,0,0.1,0.1l0,0.3c0.2-0.2,0.3-0.3,0.5-0.4
		c0.2-0.1,0.4-0.1,0.6-0.1c0.2,0,0.4,0.1,0.5,0.2c0.1,0.1,0.2,0.3,0.2,0.5c0.1-0.1,0.2-0.2,0.3-0.3c0.1-0.1,0.2-0.2,0.3-0.2
		c0.1-0.1,0.2-0.1,0.3-0.1c0.1,0,0.2,0,0.3,0c0.2,0,0.3,0,0.5,0.1c0.1,0.1,0.2,0.1,0.3,0.2c0.1,0.1,0.1,0.2,0.1,0.4
		c0,0.2,0,0.3-0.1,0.5l-0.6,2.1h-0.6l0.6-2.1c0.1-0.3,0.1-0.5,0-0.6c-0.1-0.1-0.2-0.2-0.4-0.2c-0.1,0-0.2,0-0.3,0.1
		c-0.1,0-0.2,0.1-0.3,0.2c-0.1,0.1-0.2,0.2-0.2,0.3c-0.1,0.1-0.1,0.2-0.2,0.4l-0.6,2.1h-0.6l0.6-2.1c0.1-0.3,0.1-0.5,0-0.6
		c-0.1-0.1-0.2-0.2-0.4-0.2c-0.1,0-0.3,0-0.4,0.1c-0.1,0.1-0.3,0.2-0.4,0.3l-0.7,2.5H163.9z"/>
</g>
<g>
	<g>
		<linearGradient id="SVGID_10_" gradientUnits="userSpaceOnUse" x1="759.3987" y1="141.3755" x2="959.5764" y2="141.3755">
			<stop  offset="0" style="stop-color:#FFFFFF;stop-opacity:0"/>
			<stop  offset="4.017906e-002" style="stop-color:#FDEBEE;stop-opacity:4.051906e-002"/>
			<stop  offset="0.1257" style="stop-color:#FAC6CE;stop-opacity:0.1267"/>
			<stop  offset="0.2187" style="stop-color:#F7A7B2;stop-opacity:0.2205"/>
			<stop  offset="0.3192" style="stop-color:#F58D9C;stop-opacity:0.3219"/>
			<stop  offset="0.4302" style="stop-color:#F3798A;stop-opacity:0.4338"/>
			<stop  offset="0.5573" style="stop-color:#F26C7E;stop-opacity:0.562"/>
			<stop  offset="0.7143" style="stop-color:#F16377;stop-opacity:0.7204"/>
			<stop  offset="0.9916" style="stop-color:#F16175"/>
		</linearGradient>
		<rect x="759.4" y="129" class="st16" width="200.2" height="24.7"/>
		<g>
			<g>
				<path class="st14" d="M899.6,145.9c-4.3,0-5.9-2-5.9-5.1c0-2.9,1.8-5.5,5.8-5.5c2.6,0,4.6,0.8,4.6,0.8v7.6h2.2v2.3H899.6z
					 M896,132.4c0-0.8,0.6-1.5,1.5-1.5c0.8,0,1.5,0.7,1.5,1.5c0,0.8-0.6,1.5-1.5,1.5C896.6,133.9,896,133.3,896,132.4z M901.3,138
					c0,0-0.8-0.4-2.1-0.4c-1.7,0-2.6,1.3-2.6,3c0,2,1,3.1,3.3,3.1h1.4V138z M899.6,132.4c0-0.8,0.6-1.5,1.5-1.5
					c0.8,0,1.5,0.7,1.5,1.5c0,0.8-0.6,1.5-1.5,1.5C900.3,133.9,899.6,133.3,899.6,132.4z"/>
				<path class="st14" d="M906,143.7h4.1v-8.1h2.9v10.3h-7V143.7z M907.8,150.7c-0.8,0-1.5-0.7-1.5-1.5c0-0.8,0.6-1.5,1.5-1.5
					c0.8,0,1.5,0.7,1.5,1.5C909.3,150.1,908.7,150.7,907.8,150.7z M911.5,150.7c-0.8,0-1.5-0.7-1.5-1.5c0-0.8,0.6-1.5,1.5-1.5
					c0.8,0,1.5,0.7,1.5,1.5C913,150.1,912.3,150.7,911.5,150.7z"/>
				<path class="st14" d="M913.1,151.3l0.2-2.3c0.5,0.2,1.1,0.3,1.8,0.3c1.5,0,2.4-0.7,2.4-3.1v-10.6h2.9v8.1h2.2v2.3h-2.2v0.1
					c0,2.8-0.9,5.5-5.4,5.5C914.3,151.5,913.7,151.4,913.1,151.3z"/>
				<path class="st14" d="M922.3,145.9v-2.3h1.9c0.6,0,1,0.1,1,0.1s-0.6-0.6-0.6-1.5c0-2.1,1.5-3.7,4.2-3.7c2.9,0,4,2,4,4.5v0.6h2.3
					v-0.3c0-4.6-1.8-6.8-6.2-6.8c-1.5,0-3.3,0.4-4.7,0.8l-0.3-2c1.6-0.5,3.6-0.9,5.3-0.9c5.5,0,8.6,2.6,8.6,9.1v0.1h1.6v2.3H922.3z
					 M930.4,143.1c0-1.6-0.6-2.7-1.9-2.7c-1,0-1.6,0.7-1.6,1.6c0,1.1,0.9,1.8,2.1,1.8h1.4V143.1z"/>
				<path class="st14" d="M939.1,143.7h8.5c0.1-0.5,0.1-1.1,0.1-1.7c0-2.8-1.1-4.2-4.3-4.2c-0.9,0-1.7,0.1-2.5,0.2v-2.3
					c0.9-0.1,1.9-0.2,2.8-0.2c5,0,6.9,2.2,6.9,6.4c0,1.1-0.1,2.5-0.4,4.1h-11.1V143.7z M942.8,149.2c0-0.8,0.7-1.5,1.5-1.5
					s1.5,0.7,1.5,1.5c0,0.8-0.7,1.5-1.5,1.5S942.8,150.1,942.8,149.2z"/>
			</g>
		</g>
		<g>
			<path class="st8" d="M716.7,143.2c0.1,0.4,0.2,0.8,0.2,1.1c0,0.9-0.6,1.7-1.9,2.2l-4.9,1.9c-1.5,0.6-2.8,1.1-2.8,2
				c0,0.1,0,0.1,0,0.2l-0.2,0.1c-0.1-0.4-0.2-0.8-0.2-1.1c0-0.9,0.5-1.7,1.9-2.3l4.9-1.9c1.7-0.7,2.8-1.1,2.8-2.2L716.7,143.2z"/>
			<path class="st8" d="M736.5,113.1c0-4.3,2.1-5.9,5.3-6.1v0.5c-2,0.3-2,3.7-2,7.4v2.2c0,5.5-4.5,10-9.9,10h-19.2
				c-11.9,0-18.5-5.2-18.5-14.1c0-2,0.3-3.9,1.1-5.8l0.4,0.3c-0.6,1.2-0.7,2.6-0.7,4.1c0,7.4,5.1,12.3,17.6,12.3h19.2
				c3.8,0,6.7-2.9,6.7-7.3V113.1z M716.8,136.5l-2.8-2.8l2.8-2.9l2.8,2.9L716.8,136.5z"/>
			<path class="st8" d="M753.6,147.6c0.1,0.4,0.2,0.8,0.2,1.1c0,0.9-0.6,1.7-1.9,2.2l-4.9,1.9c-1.5,0.6-2.8,1.1-2.8,2
				c0,0.1,0,0.1,0,0.2l-0.2,0.1c-0.1-0.4-0.2-0.8-0.2-1.1c0-0.9,0.5-1.7,1.9-2.3l4.9-1.9c1.7-0.7,2.8-1.1,2.8-2.2L753.6,147.6z"/>
			<path class="st8" d="M755.6,123.8h8.9v3.3h-8.9c0,5.9-1.5,10.5-5.1,14.3c-3.2,3.6-7.1,5.4-11.7,5.4c-2,0-3.9-0.4-5.9-1.2l0.3-0.6
				c1.3,0.7,2.7,1,4.2,1c8.1,0,15-7.4,15-18.9v-21.2h3.3V123.8z"/>
			<path class="st8" d="M780.3,80.4c0.3-0.2,0.7-0.3,1.1-0.3v0.2c-0.7,0.1-0.7,1.2-0.7,2.4v2c0,1.7-1.4,3.1-3.1,3.1
				c-1.9,0-3.4-1.1-3.4-2.8v-1.2c0-1.8,1.6-3.4,3.4-3.4H780.3z M777.7,81.5c-1.4,0-2.5,1-2.5,2.3V85c0,0.9,1,1.7,2.3,1.7
				c1,0,2.1-0.9,2.1-2.1v-2.5c0-0.2,0-0.5,0.1-0.6H777.7z"/>
			<path class="st8" d="M794,127h-29.6v-3.3h4.6c-1.7-1.7-2.5-4.1-2.5-6.3c0-5.1,4.5-9.6,9.7-9.6h6.9c3.4,0,6.8,0,7-2.2h0.5
				c0,3.4-1.9,5.4-5.8,5.4h-8.2c-4.2,0-7.1,2.7-7.1,6.4s2.8,6.2,6.7,6.3H794V127z M781.6,100.5l-2.8-2.8l2.8-2.9l2.8,2.9
				L781.6,100.5z"/>
			<path class="st8" d="M809.2,96.1c0.1,0.4,0.2,0.8,0.2,1.1c0,0.9-0.6,1.7-1.9,2.2l-4.9,1.9c-1.5,0.6-2.8,1.1-2.8,2
				c0,0.1,0,0.1,0,0.2l-0.2,0.1c-0.1-0.4-0.2-0.8-0.2-1.1c0-0.9,0.5-1.7,1.9-2.3l4.9-1.9c1.7-0.7,2.8-1.1,2.8-2.2L809.2,96.1z"/>
			<path class="st8" d="M800.6,123.8V115c0-5.4,4.7-10.1,10.1-10.1h7.5c0.9-0.6,1.9-0.8,3.1-1v0.4c-1.9,0.4-2,3.8-2,7.3l-0.2,6.1
				c0,2.4,1.1,4.5,3.1,5.5c0.6,0.3,1.5,0.5,3,0.5v3.3c-3.5,0-6.1-1.3-7.8-4c-1.6,2.5-4.5,4-7.6,4h-16v-3.3H800.6z M811.3,108.2
				c-4.3,0-7.4,3.1-7.4,6.9v8.6h5.9c3.4,0,6.3-2.5,6.3-5.9v-7.7c0-0.8,0.1-1.4,0.2-1.9H811.3z"/>
			<path class="st8" d="M835.3,81.3c0.3-0.2,0.7-0.3,1.1-0.3v0.2c-0.7,0.1-0.7,1.2-0.7,2.4v2c0,1.7-1.4,3.1-3.1,3.1
				c-1.9,0-3.4-1.1-3.4-2.8v-1.2c0-1.8,1.6-3.4,3.4-3.4H835.3z M832.7,82.4c-1.4,0-2.5,1-2.5,2.3v1.2c0,0.9,1,1.7,2.3,1.7
				c1,0,2.1-0.9,2.1-2.1v-2.5c0-0.2,0-0.5,0.1-0.6H832.7z"/>
			<path class="st8" d="M829,88.9c3.1,0.1,5.3,1.7,5.3,6v21.6c0,4-2.5,7.9-6,9.6c-1.2,0.6-2.2,0.9-3,0.9v-3.3
				c2.4-0.2,5.8-2.8,5.8-7.3v-20c0-3.5,0-7-2.1-7.2V88.9z"/>
			<path class="st8" d="M841.7,97c0-5.7-0.2-7.3-2-7.5v-0.4c3.5,0.1,5.2,2.2,5.2,6.2V127h-3.3V97z"/>
			<path class="st8" d="M868.8,81.4c-1.3,2.3-3.3,3.5-5.2,3.5c-1.4,0-2.8-0.7-3.7-1.8L860,83c0.7,0.9,1.8,1.4,3,1.4
				c1.7,0,3.6-1,4.9-3.4l0.3-0.6c-0.2,0-0.4,0.1-0.6,0.1c-1.8,0-3.1-1.7-3.1-3.1c0-0.4,0.1-0.8,0.3-1.1l0.6-1c0.6-1,1.7-1.6,2.8-1.6
				c0.5,0,1,0.1,1.5,0.4l-0.4,0.9c-0.4-0.2-0.8-0.3-1.2-0.3c-0.8,0-1.5,0.4-1.9,1.1l-0.5,1c-0.1,0.2-0.2,0.4-0.2,0.6
				c0,0.8,0.8,2,2.1,2c0.5,0,0.9-0.2,1.3-0.5l1.7-3.1l-1.4-0.8l0.4-0.9l2.2,1.2c0.3,0,0.7,0.1,1,0.3l-0.1,0.1c-0.1,0-0.2,0-0.2,0
				c-0.5,0-0.9,0.9-1.4,1.7l-0.9,1.6L868.8,81.4z"/>
			<path class="st8" d="M878.3,104.8c0.8-0.5,1.9-0.7,3.1-0.8v0.5c-2.1,0.3-2.1,3.7-2.1,7.2v6c0,5.2-4.3,9.3-9.4,9.3
				c-5.4,0-10.2-3.6-10.2-8.3v-3.6c0-5.5,4.8-10.3,10.3-10.3H878.3z M870.5,108.1c-4.3,0-7.4,3.2-7.4,7v3.6c0,2.6,2.9,5.1,6.8,5.1
				c3.3,0,6.2-2.8,6.2-6.1V110c0-0.9,0-1.4,0.3-2H870.5z M866.1,100.5l-2.9-2.9l2.9-2.8l2.9,2.8L866.1,100.5z M872,100.5l-2.9-2.9
				l2.9-2.8l2.9,2.8L872,100.5z"/>
			<path class="st8" d="M917.1,127c-3.4,0-6.6-1.6-8.3-4.5c-1,2-4.5,4.5-8,4.5h-17.1v-3.3h10.9v-13.1c0-3.7-0.2-7.2-2.2-7.5v-0.5
				c3.4,0.2,5.5,1.8,5.5,6.2v14.9h2.9c3.8,0,6.8-3.3,6.8-7.7V95.4c0-3.8-0.1-7.1-2.1-7.4v-0.5c3.3,0.1,5.4,1.8,5.4,6.1v24.7
				c0.3,3.3,2.8,5.2,6.2,5.5V127z"/>
			<path class="st8" d="M950.5,93.1c0.1,0.4,0.2,0.8,0.2,1.1c0,0.9-0.6,1.7-1.9,2.2l-4.9,1.9c-1.5,0.6-2.8,1.1-2.8,2
				c0,0.1,0,0.1,0,0.2l-0.2,0.1c-0.1-0.4-0.2-0.8-0.2-1.1c0-0.9,0.5-1.7,1.9-2.3l4.9-1.9c1.7-0.7,2.8-1.1,2.8-2.2L950.5,93.1z"/>
			<path class="st8" d="M959.6,127H917v-3.3h2.8c0.6-0.3,0.9-1.1,0.9-2.5c0-3.4-0.8-6.6-3.2-8.8l0.4-0.3c2.2,2.1,3.7,4.7,4.4,7.3
				c0.7-8.2,8.8-14.5,19.3-14.5h6.9c6.1,0.5,11.2,6.1,11.1,12.4V127z M956.3,123.8v-6.5c0-3.8-1.7-6.5-5.1-8.1
				c-1.4-0.6-3.3-0.9-6.2-0.9h-3.4c-11.1,0-18.8,6.2-18.8,14.5v1H956.3z"/>
		</g>
	</g>
</g>
</svg>
