<?xml version="1.0" encoding="utf-8"?>
<!-- Generator: Adobe Illustrator 19.2.0, SVG Export Plug-In . SVG Version: 6.00 Build 0)  -->
<svg version="1.1" id="Layer_1" xmlns="http://www.w3.org/2000/svg" xmlns:xlink="http://www.w3.org/1999/xlink" x="0px" y="0px"
	 viewBox="0 0 1024 768" style="enable-background:new 0 0 1024 768;" xml:space="preserve">
<style type="text/css">
	.st0{fill:url(#SVGID_1_);}
	.st1{clip-path:url(#SVGID_3_);}
	.st2{fill:url(#SVGID_4_);}
	.st3{fill:#F68A1F;}
	.st4{filter:url(#Adobe_OpacityMaskFilter);}
	.st5{filter:url(#Adobe_OpacityMaskFilter_1_);}
	.st6{mask:url(#SVGID_5_);fill:url(#SVGID_6_);}
	.st7{fill:url(#SVGID_7_);}
	.st8{fill:#622872;}
	.st9{fill:url(#SVGID_8_);}
	.st10{fill:#CA4977;}
	.st11{fill-rule:evenodd;clip-rule:evenodd;fill:#F6DFB4;}
	.st12{fill:#D2D3D4;}
	.st13{fill:#FFFFFF;}
	.st14{fill:#205B6A;}
	.st15{fill:url(#SVGID_9_);}
</style>
<g>
	<g>
		<g>
			<g>
				<linearGradient id="SVGID_1_" gradientUnits="userSpaceOnUse" x1="246.473" y1="133.4816" x2="246.473" y2="716.4726">
					<stop  offset="0" style="stop-color:#3553A4"/>
					<stop  offset="0.103" style="stop-color:#49559C"/>
					<stop  offset="0.3094" style="stop-color:#715B8A"/>
					<stop  offset="0.6003" style="stop-color:#A5676B"/>
					<stop  offset="0.9615" style="stop-color:#EB782B"/>
					<stop  offset="0.9949" style="stop-color:#F47A22"/>
				</linearGradient>
				<path class="st0" d="M396.7,262.2h-6.1c-1.8-28.2-25.9-59.6-71.7-93.4c-35-25.9-70.5-43.7-70.9-43.9c-1-0.5-2.2-0.5-3.1,0
					c-0.3,0.2-35.9,18-70.9,43.9c-45.7,33.8-69.8,65.2-71.7,93.4h-6.1c-1.9,0-3.5,1.6-3.5,3.5V626h307.5V265.7
					C400.2,263.8,398.6,262.2,396.7,262.2z"/>
			</g>
		</g>
	</g>
	<g>
		<defs>
			<path id="SVGID_2_" d="M396.7,262.2h-6.1c-1.8-28.2-25.9-59.6-71.7-93.4c-35-25.9-70.5-43.7-70.9-43.9c-1-0.5-2.2-0.5-3.1,0
				c-0.3,0.2-35.9,18-70.9,43.9c-45.7,33.8-69.8,65.2-71.7,93.4h-6.1c-1.9,0-3.5,1.6-3.5,3.5V626h307.5V265.7
				C400.2,263.8,398.6,262.2,396.7,262.2z"/>
		</defs>
		<clipPath id="SVGID_3_">
			<use xlink:href="#SVGID_2_"  style="overflow:visible;"/>
		</clipPath>
		<g class="st1">
			
				<radialGradient id="SVGID_4_" cx="173.8307" cy="661.6241" r="54.2731" fx="162.6903" fy="645.5805" gradientUnits="userSpaceOnUse">
				<stop  offset="0.1436" style="stop-color:#FBF067"/>
				<stop  offset="0.5314" style="stop-color:#FFDE00"/>
				<stop  offset="0.9166" style="stop-color:#F47D20"/>
			</radialGradient>
			<circle class="st2" cx="174.9" cy="664.2" r="48.7"/>
			<g>
				<path class="st3" d="M174.9,615.5c-26.9,0-48.7,21.8-48.7,48.7c0,26.9,21.8,48.7,48.7,48.7c26.9,0,48.7-21.8,48.7-48.7
					C223.6,637.3,201.8,615.5,174.9,615.5z M173.1,709.7c-25.1,0-45.5-20.4-45.5-45.5c0-25.1,20.4-45.5,45.5-45.5
					c25.1,0,45.5,20.4,45.5,45.5C218.6,689.3,198.3,709.7,173.1,709.7z"/>
				<path class="st3" d="M180.2,599.4c0,2.7-2,4.9-4.6,4.9l0,0c-2.5,0-4.6-2.2-4.6-4.9v-8.7c0-2.7,2-4.9,4.6-4.9l0,0
					c2.5,0,4.6,2.2,4.6,4.9V599.4z"/>
				<path class="st3" d="M180.2,732.6c0,2.7-2,4.9-4.6,4.9l0,0c-2.5,0-4.6-2.2-4.6-4.9v-8.7c0-2.7,2-4.9,4.6-4.9l0,0
					c2.5,0,4.6,2.2,4.6,4.9V732.6z"/>
				<path class="st3" d="M237.8,666.2c-2.7,0-4.9-2-4.9-4.6l0,0c0-2.5,2.2-4.6,4.9-4.6h8.7c2.7,0,4.9,2,4.9,4.6l0,0
					c0,2.5-2.2,4.6-4.9,4.6H237.8z"/>
				<path class="st3" d="M104.6,666.2c-2.7,0-4.9-2-4.9-4.6l0,0c0-2.5,2.2-4.6,4.9-4.6h8.7c2.7,0,4.9,2,4.9,4.6l0,0
					c0,2.5-2.2,4.6-4.9,4.6H104.6z"/>
				<path class="st3" d="M222.8,620.8c-1.9,1.9-4.9,2.1-6.7,0.3l0,0c-1.8-1.8-1.7-4.8,0.3-6.7l6.2-6.2c1.9-1.9,4.9-2.1,6.7-0.3l0,0
					c1.8,1.8,1.7,4.8-0.3,6.7L222.8,620.8z"/>
				<path class="st3" d="M128.6,715c-1.9,1.9-4.9,2.1-6.7,0.3l0,0c-1.8-1.8-1.7-4.8,0.3-6.7l6.2-6.2c1.9-1.9,4.9-2.1,6.7-0.3l0,0
					c1.8,1.8,1.7,4.8-0.3,6.7L128.6,715z"/>
				<path class="st3" d="M216.4,708.9c-1.9-1.9-2-4.9-0.3-6.7l0,0c1.8-1.8,4.8-1.7,6.7,0.3l6.2,6.2c1.9,1.9,2.1,4.9,0.3,6.7l0,0
					c-1.8,1.8-4.8,1.7-6.7-0.3L216.4,708.9z"/>
				<path class="st3" d="M122.2,614.7c-1.9-1.9-2-4.9-0.3-6.7l0,0c1.8-1.8,4.8-1.7,6.7,0.3l6.2,6.2c1.9,1.9,2.1,4.9,0.3,6.7l0,0
					c-1.8,1.8-4.8,1.7-6.7-0.3L122.2,614.7z"/>
			</g>
			<defs>
				<filter id="Adobe_OpacityMaskFilter" filterUnits="userSpaceOnUse" x="129" y="619.5" width="72.7" height="48.8">
					<feFlood  style="flood-color:white;flood-opacity:1" result="back"/>
					<feBlend  in="SourceGraphic" in2="back" mode="normal"/>
				</filter>
			</defs>
			<mask maskUnits="userSpaceOnUse" x="129" y="619.5" width="72.7" height="48.8" id="SVGID_5_">
				<g class="st4">
					<defs>
						<filter id="Adobe_OpacityMaskFilter_1_" filterUnits="userSpaceOnUse" x="129" y="619.5" width="72.7" height="48.8">
							<feFlood  style="flood-color:white;flood-opacity:1" result="back"/>
							<feBlend  in="SourceGraphic" in2="back" mode="normal"/>
						</filter>
					</defs>
					<mask maskUnits="userSpaceOnUse" x="129" y="619.5" width="72.7" height="48.8" id="SVGID_5_">
						<g class="st5">
						</g>
					</mask>
					
						<radialGradient id="SVGID_6_" cx="163.8707" cy="623.8902" r="50.6721" fx="181.0468" fy="597.777" gradientUnits="userSpaceOnUse">
						<stop  offset="0.2627" style="stop-color:#FFFFFF"/>
						<stop  offset="0.7268" style="stop-color:#FFFFFF"/>
						<stop  offset="0.9716" style="stop-color:#000000"/>
					</radialGradient>
					<path class="st6" d="M143.7,630.2c9-9.2,32.2-15.4,48.6-6.2c16.4,9.2,11,26.7-15.4,25.7c-26.4-1-42.3,8.6-44.4,16.8
						C130.5,674.8,121.4,653,143.7,630.2z"/>
				</g>
			</mask>
			
				<radialGradient id="SVGID_7_" cx="163.8707" cy="623.8902" r="50.6721" fx="181.0468" fy="597.777" gradientUnits="userSpaceOnUse">
				<stop  offset="0.2627" style="stop-color:#FFFFFF"/>
				<stop  offset="0.7268" style="stop-color:#FBF067"/>
				<stop  offset="0.9716" style="stop-color:#FFDE00"/>
			</radialGradient>
			<path class="st7" d="M143.7,630.2c9-9.2,32.2-15.4,48.6-6.2c16.4,9.2,11,26.7-15.4,25.7c-26.4-1-42.3,8.6-44.4,16.8
				C130.5,674.8,121.4,653,143.7,630.2z"/>
		</g>
	</g>
</g>
<g>
	<path class="st8" d="M456.1,213.5c0-0.8,0.7-1.5,1.5-1.5c0.8,0,1.5,0.7,1.5,1.5c0,0.8-0.7,1.5-1.5,1.5
		C456.8,215,456.1,214.4,456.1,213.5z M456.1,221c0-0.8,0.7-1.5,1.5-1.5c0.8,0,1.5,0.7,1.5,1.5c0,0.8-0.7,1.5-1.5,1.5
		C456.8,222.5,456.1,221.8,456.1,221z"/>
	<path class="st8" d="M470.3,204c-1.2,0.1-2.7,0.3-4.6,0.3l-0.1-1.3c0.3,0,0.7,0,1.1,0c-0.3-0.4-0.4-0.9-0.4-1.4
		c0-1.2,0.7-1.9,2-1.9c0.5,0,1.1,0.1,1.7,0.3l-0.3,1.2c-0.5-0.1-0.8-0.2-1.1-0.2c-0.6,0-0.9,0.4-0.9,0.9c0,0.4,0.2,0.7,0.5,1
		c0.8,0,1.5-0.1,2.2-0.2L470.3,204z M469,205.8l0.1,0.1l0,16.1l-1.7,0.4l-0.1-0.1v-16L469,205.8z"/>
	<path class="st8" d="M480.4,221c0,0.4-0.2,1.2-1.4,1.2c-1,0-1.6-0.3-2-0.6c-0.7,2.2-3.3,4.2-7.2,4.9l-1-1.4l0.1-0.2
		c4.7-0.9,6.4-2.8,6.8-4.6c-0.4-1.1-1.1-2.6-1.8-4l1.4-1.5h0.2c0.6,1.7,1.2,3.1,1.4,3.7c0.6,1.6,1,1.9,2.5,1.9
		C480.2,220.4,480.4,220.6,480.4,221z"/>
	<path class="st8" d="M488,217c0,2.3-0.4,3.6-1.5,4.4c-1.3,0.7-3.1,0.8-7.6,0.8l0.5-1.9c4.6,0,6.1-0.2,6.8-0.5
		c0.1-0.3,0.1-0.8,0.2-1.5c-0.7,0.2-1.6,0.3-2.5,0.3c-2.1,0-3.1-1.1-3.1-2.8c0-2.2,1.6-4.6,3.5-4.6C486.6,211.3,488,214.1,488,217z
		 M483,208.7l-1.9-1.4l1.2-1.8l1.9,1.3L483,208.7z M484.3,216.8c0.8,0,1.5-0.1,2.2-0.2c-0.1-1.7-1.1-3.5-2.2-3.5
		c-0.9,0-1.9,1.2-1.9,2.5C482.4,216.5,483,216.8,484.3,216.8z M486.3,208.7l-1.9-1.4l1.2-1.8l1.9,1.3L486.3,208.7z"/>
	<path class="st8" d="M494.1,204c-1.2,0.1-2.7,0.3-4.6,0.3l-0.1-1.3c0.3,0,0.7,0,1.1,0c-0.3-0.4-0.4-0.9-0.4-1.4
		c0-1.2,0.7-1.9,2-1.9c0.5,0,1.1,0.1,1.7,0.3l-0.3,1.2c-0.5-0.1-0.8-0.2-1.1-0.2c-0.6,0-0.9,0.4-0.9,0.9c0,0.4,0.2,0.7,0.5,1
		c0.8,0,1.5-0.1,2.2-0.2L494.1,204z M492.7,205.8l0.1,0.1l0,16.1l-1.7,0.4l-0.1-0.1v-16L492.7,205.8z"/>
	<path class="st8" d="M515.4,221c0,0.7-0.6,1.2-1.5,1.2c-1.1,0-1.9-0.3-2.5-0.9c-0.6,0.8-1.2,1.2-1.9,1.2c-1.7,0-3.5-1.2-5.4-3.5
		c-0.3,0.3-0.6,0.7-0.8,1c-0.3,1.1,0,5.4,0.8,10.2l-1.6,0.8l-0.2-0.1c-0.6-4.2-0.9-7-0.9-8.4c0-2,0.4-3.1,1.6-4.5
		c1.6-1.9,3.8-3.4,5.2-3.4c1.3,0,2.1,0.8,3.5,3.7c0.9,1.8,1.3,2.1,2.8,2.1C515.1,220.4,515.4,220.5,515.4,221z M510.4,220
		c-0.1-0.1-0.1-0.2-0.2-0.3c-1.1-2.4-1.8-3.3-2.4-3.3c-0.6,0-1.6,0.6-2.6,1.4c1.4,1.8,2.9,2.9,3.9,2.9
		C509.6,220.7,510,220.4,510.4,220z"/>
	<path class="st8" d="M514.4,220.4h0.7c1.2,0,2.1-0.1,2.5-0.3c0.5-1.2-0.2-2.9-1-4.7l1.5-1.2h0.2c0.7,1.7,1.2,3.3,1.2,4.3
		c0,1-0.4,2.2-1.2,2.9c-0.6,0.6-1.6,0.8-3.8,0.8h-0.7L514.4,220.4z M514.4,210.1l1.2-1.8l1.9,1.3l-1.2,1.8L514.4,210.1z
		 M515.8,207.4l1.2-1.8l1.9,1.3l-1.2,1.9L515.8,207.4z M517.8,210.1l1.2-1.8l1.9,1.3l-1.2,1.8L517.8,210.1z"/>
	<path class="st8" d="M527.9,221.3c0-1,0.2-2,0.4-2.7l1.5-0.5l0.2,0.1c-0.2,0.9-0.2,1.6-0.2,2.2c0,2.2,1.2,3.8,5.1,3.8
		c3.2,0,6.1-1.3,7-2.5c0.2-0.7-0.3-1.1-1.9-1.6c-1.9-0.6-3.1-1-3.1-2.9c0-2.2,2-5.1,4.9-5.1c1,0,1.9,0.3,2.5,0.6l-0.3,1.7l-0.1,0.1
		c-0.6-0.3-1.4-0.5-2.1-0.5c-1.9,0-3.4,1.8-3.4,2.9c0,0.6,1,0.9,2.7,1.5c2.4,0.8,2.8,1.4,2.8,2.2c0,3-4.4,5.5-9.3,5.5
		C530.1,226,527.9,224,527.9,221.3z M531,229.6l1.2-1.8l1.9,1.3L533,231L531,229.6z M534.5,229.6l1.2-1.8l1.9,1.3l-1.2,1.8
		L534.5,229.6z"/>
	<path class="st8" d="M543.4,225.1l0.1-0.2c4.6-0.8,6.7-3,6.7-4.3c-0.1-1-0.8-2.7-1.7-4.4l1.4-1.5h0.2c1,1.9,1.7,4,1.7,5.4
		c0,0.8-0.2,1.7-0.6,2.4c-0.9,1.7-3.4,3.3-6.7,3.9L543.4,225.1z"/>
	<path class="st8" d="M565.8,221c0,0.4-0.2,1.2-1.5,1.2c-1.1,0-1.9-0.3-2.5-1.3c-0.9,0.9-2.6,1.4-4.9,1.4c-0.5,0-1.9-0.1-2.8-0.3
		l0.3-1.8l0.1-0.1c0.8,0.2,2.1,0.2,2.6,0.2c1.5,0,3.1-0.3,3.9-0.9l-0.1-0.1c-0.4-0.8-2.2-4.3-3.2-6l1.4-1.5h0.2
		c0.7,1.5,2.4,5.4,2.8,6c0.9,1.9,1.4,2.3,2.7,2.3C565.6,220.4,565.8,220.6,565.8,221z"/>
	<path class="st8" d="M582.8,218c0,1.4-0.6,2.4-1.4,3.1c-1.1,0.9-2.9,1.1-6.2,1.1h-2.7c-2.4,0-3.8-0.1-5.3-0.7
		c-0.7,0.5-1.6,0.7-2.7,0.7l0.5-1.9c0.7,0,1.5-0.1,1.8-0.3c0.3-0.4,0.7-1.4,1.1-2.7l1.9-0.3l0.1,0.1c-0.4,1.2-0.8,2.1-1.3,2.9
		c0.5,0.2,1.2,0.3,2.1,0.3c3.9-3.8,6.5-6.1,8.7-6.1C581.2,214.2,582.8,216.1,582.8,218z M581.1,218.3c0-1-0.9-2.3-2-2.3
		c-1.5,0-3.6,1.9-6.1,4.3h2.1c3.5,0,4.8-0.1,5.6-0.5C580.9,219.5,581.1,218.9,581.1,218.3z"/>
	<path class="st8" d="M590.9,222c0-1,0.2-2,0.4-2.7l1.5-0.5l0.2,0.1c-0.2,0.9-0.3,1.6-0.3,2.2c0,2.2,1.2,3.8,5.1,3.8
		c3.7,0,6.5-0.9,6.9-2.1c0-0.5-0.4-1.1-3.9-2l0.6-1.7c4.4,1.2,5.2,2,5.2,3.2c-0.3,2.9-4,4.5-9.2,4.5
		C593.1,226.7,590.9,224.7,590.9,222z"/>
	<path class="st8" d="M613.1,221c0,0.4-0.2,1.2-1.4,1.2c-1.9,0-3.2-1-3.7-2.8c-1,0.6-2.6,1-5.2,1.2l-1.2-1.6c3.4-0.3,5.2-0.7,5.9-1
		c0.1-0.4,0.2-1.1,0.2-1.9v-9.8l1.7-0.4l0.2,0.1v10c0,2.7,0.5,4.5,2.7,4.5C612.9,220.3,613.1,220.6,613.1,221z"/>
	<path class="st8" d="M623,219.9l-0.6,1.7c-1.9,0.4-4.7,0.6-10.8,0.6l0.5-1.9c0.9,0,1.8,0,2.7,0c-0.6-0.9-1-2-1-3.1c0-2.5,2-4,4.6-4
		c1.2,0,2.4,0.4,3.2,0.8l-0.2,1.7l-0.1,0c-0.9-0.4-1.9-0.6-2.9-0.6c-1.6,0-2.6,0.8-2.6,2.1c0,0.9,0.5,2.1,1.4,3
		c2.1-0.1,3.9-0.2,5.6-0.4L623,219.9z"/>
	<path class="st8" d="M631,221.3c0-1,0.2-2,0.4-2.7l1.5-0.5l0.2,0.1c-0.2,0.9-0.2,1.6-0.2,2.2c0,2.2,1.2,3.8,5.1,3.8
		c3.2,0,6.1-1.3,7-2.5c0.2-0.7-0.3-1.1-1.9-1.6c-1.9-0.6-3.1-1-3.1-2.9c0-2.2,2-5.1,4.9-5.1c1,0,1.9,0.3,2.5,0.6l-0.3,1.7l-0.1,0.1
		c-0.6-0.3-1.4-0.5-2.1-0.5c-1.9,0-3.4,1.8-3.4,2.9c0,0.6,1,0.9,2.7,1.5c2.4,0.8,2.8,1.4,2.8,2.2c0,3-4.4,5.5-9.3,5.5
		C633.1,226,631,224,631,221.3z"/>
	<path class="st8" d="M658.1,221c0,0.4-0.2,1.2-1.4,1.2c-1,0-1.6-0.3-2-0.6c-0.7,2.2-3.3,4.2-7.2,4.9l-1-1.4l0.1-0.2
		c4.7-0.9,6.4-2.8,6.8-4.6c-0.4-1.1-1.1-2.6-1.8-4l1.4-1.5h0.2c0.6,1.7,1.2,3.1,1.4,3.7c0.6,1.6,1,1.9,2.5,1.9
		C658,220.4,658.1,220.6,658.1,221z"/>
	<path class="st8" d="M677.4,221c0,0.4-0.2,1.2-1.4,1.2c-1,0-2.3-0.2-3.3-1c-0.7,0.7-1.7,1-2.9,1c-1,0-1.9-0.2-2.7-0.6
		c-0.5,0.4-1.2,0.6-2.2,0.6c-1.7,0-3-0.5-3.7-1.1c-0.9,0.7-2.2,1.1-4.4,1.1l0.5-1.9c1.5,0,2.5-0.1,3-0.5c0.3-0.4,0.6-1.3,1-2.5
		l2-0.3l0.1,0.1c-0.4,1-0.7,1.9-1.1,2.6c0.7,0.3,1.9,0.6,2.8,0.6c0.4,0,0.9-0.1,1.2-0.3c0.3-0.4,0.7-1.4,1.1-2.8l1.9-0.3l0.1,0.1
		c-0.4,1.2-0.7,2.2-1.1,2.9c0.5,0.2,1.1,0.3,1.7,0.3c0.6,0,1.2-0.1,1.6-0.4c0.2-0.3,0.4-1,0.4-2.2c0-0.4,0-0.8-0.1-1.3l1.7-0.6
		l0.2,0.1c0,0.4,0,0.7,0,1.1c0,1.1-0.1,1.9-0.3,2.6c0.5,0.3,1.4,0.7,2.9,0.7C677.2,220.4,677.4,220.6,677.4,221z"/>
	<path class="st8" d="M685.5,221c0,0.4-0.2,1.2-1.4,1.2c-1.5,0-2.9-0.3-3.9-1.2c-0.8,0.8-1.8,1.2-3.3,1.2h-0.8l0.5-1.9h0.7
		c0.7,0,1.4-0.1,1.8-0.5c0.3-0.5,0.7-1.6,1.2-3.6l1.8-0.5l0.2,0.1c-0.3,1.5-0.7,2.7-1.1,3.7c0.6,0.3,1.5,0.7,3.4,0.7
		C685.3,220.4,685.5,220.6,685.5,221z M678,224.1l1.9,1.3l-1.2,1.8l-1.9-1.4L678,224.1z M681.5,224.1l1.9,1.3l-1.2,1.8l-1.9-1.4
		L681.5,224.1z"/>
	<path class="st8" d="M684.5,220.4c0.8,0,1.7,0,2.3-0.5c0.1-0.4,0.2-1,0.2-1.9v-11.7l1.7-0.4l0.2,0.1v11.9c0,3.5-1.8,4.4-4.8,4.4
		L684.5,220.4z"/>
	<path class="st8" d="M691.9,222.3v-16l1.8-0.5l0.1,0.1l0,16.1l-1.7,0.4L691.9,222.3z"/>
	<path class="st8" d="M702.2,221.3c0-1,0.2-2,0.4-2.7l1.5-0.5l0.2,0.1c-0.2,0.9-0.2,1.6-0.2,2.2c0,2.2,1.2,3.8,5.1,3.8
		c3.2,0,6.1-1.3,7-2.5c0.2-0.7-0.3-1.1-1.9-1.6c-1.9-0.6-3.1-1-3.1-2.9c0-2.2,2-5.1,4.9-5.1c1,0,1.9,0.3,2.5,0.6l-0.3,1.7l-0.1,0.1
		c-0.6-0.3-1.4-0.5-2.1-0.5c-1.9,0-3.4,1.8-3.4,2.9c0,0.6,1,0.9,2.7,1.5c2.4,0.8,2.8,1.4,2.8,2.2c0,3-4.4,5.5-9.3,5.5
		C704.3,226,702.2,224,702.2,221.3z M705.3,229.6l1.2-1.8l1.9,1.3l-1.2,1.8L705.3,229.6z M708.7,229.6l1.2-1.8l1.9,1.3l-1.2,1.8
		L708.7,229.6z"/>
	<path class="st8" d="M731.9,221c0,0.4-0.2,1.2-1.5,1.2c-1.1,0-1.9-0.3-2.5-1.3c-0.9,0.9-2.6,1.4-4.9,1.4c-0.5,0-1.9-0.1-2.8-0.3
		l0.3-1.8l0.1-0.1c0.8,0.2,2.1,0.2,2.6,0.2c1.5,0,3.1-0.3,3.9-0.9l-0.1-0.1c-0.4-0.8-2.2-4.3-3.2-6l1.4-1.5h0.2
		c0.7,1.5,2.4,5.4,2.8,6c0.9,1.9,1.4,2.3,2.7,2.3C731.7,220.4,731.9,220.6,731.9,221z"/>
	<path class="st8" d="M731,220.4h0.7c1.2,0,2.1-0.1,2.5-0.3c0.5-1.2-0.2-2.9-1-4.7l1.5-1.2h0.2c0.7,1.7,1.2,3.3,1.2,4.3
		c0,1-0.4,2.2-1.2,2.9c-0.6,0.6-1.6,0.8-3.8,0.8h-0.7L731,220.4z M730.7,225.9l1.2-1.8l1.9,1.3l-1.2,1.8L730.7,225.9z M734.1,225.9
		l1.2-1.8l1.9,1.3l-1.2,1.8L734.1,225.9z"/>
	<path class="st8" d="M759.1,220.2c0,4-2.4,6.5-8.1,6.5c-4.3,0-6.5-2-6.5-4.7c0-1,0.2-2,0.4-2.7l1.5-0.5l0.2,0.1
		c-0.2,0.9-0.3,1.6-0.3,2.2c0,2.2,1.2,3.8,5.1,3.8c3,0,5.1-1,5.8-2.2c0.1-0.3,0.2-0.7,0.3-1.1c-0.7,0.2-1.5,0.3-2.4,0.3
		c-2.1,0-3.1-1.1-3.1-2.8c0-2.2,1.6-4.6,3.5-4.6C757.7,214.5,759.1,217.3,759.1,220.2z M754,211.7l-1.9-1.4l1.2-1.8l1.9,1.3
		L754,211.7z M755.4,220c0.8,0,1.5-0.1,2.2-0.2c-0.1-1.7-1.1-3.5-2.2-3.5c-0.9,0-1.9,1.2-1.9,2.5C753.5,219.7,754.1,220,755.4,220z
		 M757.3,211.7l-1.9-1.4l1.2-1.8l1.9,1.3L757.3,211.7z"/>
	<path class="st8" d="M772.3,221c0,0.4-0.2,1.2-1.5,1.2H769c-0.8,2.3-3,4.1-7,4.2l-1-1.4l0.1-0.2c3-0.1,5.2-1.1,6.1-2.7h-0.7
		c-3,0-4.4-1.2-4.4-3.1c0-2.2,1.6-4.7,3.5-4.7c2.2,0,3.6,2.7,3.6,5.7v0.1h1.9C772.1,220.4,772.3,220.6,772.3,221z M767.8,220.4v-0.1
		c0-2.1-1.1-3.8-2.2-3.8c-0.9,0-1.9,1-1.9,2.6c0,0.9,0.8,1.4,3.1,1.4H767.8z"/>
	<path class="st8" d="M779.8,217c0,2.3-0.4,3.6-1.5,4.4c-1.3,0.7-3.1,0.8-7.6,0.8l0.5-1.9c4.6,0,6.1-0.2,6.8-0.5
		c0.1-0.3,0.1-0.8,0.2-1.5c-0.7,0.2-1.6,0.3-2.5,0.3c-2.1,0-3.1-1.1-3.1-2.8c0-2.2,1.6-4.6,3.5-4.6
		C778.5,211.3,779.8,214.1,779.8,217z M776.1,216.8c0.8,0,1.5-0.1,2.2-0.2c-0.1-1.7-1.1-3.5-2.2-3.5c-0.9,0-1.9,1.2-1.9,2.5
		C774.2,216.5,774.9,216.8,776.1,216.8z M776.6,208.7l-2-1.4l1.2-1.8l2,1.3L776.6,208.7z"/>
	<path class="st8" d="M788.1,222c0-1,0.2-2,0.4-2.7l1.5-0.5l0.2,0.1c-0.2,0.9-0.3,1.6-0.3,2.2c0,2.2,1.2,3.8,5.1,3.8
		c3.7,0,6.6-1,7-2.2c0-0.8-1.1-1.3-3.9-2l0.6-1.8c2.4,0.6,4.5,1.5,6.5,1.5c0.8,0,1,0.3,1,0.7c0,0.4-0.2,1.2-1.5,1.2h-0.9
		c-0.4,2.9-4,4.5-9.2,4.5C790.3,226.7,788.1,224.7,788.1,222z"/>
	<path class="st8" d="M813.8,221c0,0.4-0.2,1.2-1.4,1.2c-1,0-2.4-0.3-3.5-1.2c-0.8,0.8-1.9,1.2-3.6,1.2h-0.5l0.5-1.9h0.5
		c0.9,0,1.6-0.1,2-0.5c0.4-0.5,0.7-1.6,1.2-3.6l1.8-0.5l0.2,0.1c-0.3,1.5-0.7,2.7-1.2,3.7c0.5,0.3,1.4,0.7,3,0.7
		C813.6,220.4,813.8,220.6,813.8,221z M810.2,213.1l-2-1.4l1.2-1.8l2,1.3L810.2,213.1z"/>
	<path class="st8" d="M826.6,221c0,0.7-0.6,1.2-1.5,1.2c-1,0-1.8-0.2-2.4-0.8c-0.4,0.7-0.9,1.1-1.9,1.1c-1.4,0-3.2-0.7-4.8-1.8
		c-1,1.3-1.7,1.5-3.6,1.5l0.5-1.9c1,0,1.3-0.3,2.1-1.5c0.9-1.5,2-4.4,4.3-4.4c1.8,0,2.6,1.8,3.5,3.7c0.9,1.8,1.3,2.1,2.8,2.1
		C826.3,220.4,826.6,220.6,826.6,221z M821.6,220.1c-0.1-0.1-0.1-0.3-0.2-0.4c-1-2.4-1.6-3.3-2.2-3.3c-0.9,0-1.7,1.5-2.4,2.9
		c1.2,0.8,2.7,1.4,3.5,1.4C821,220.7,821.3,220.5,821.6,220.1z"/>
	<path class="st8" d="M834.6,221c0,0.4-0.2,1.2-1.4,1.2c-1.5,0-2.9-0.3-3.9-1.2c-0.8,0.8-1.8,1.2-3.3,1.2h-0.8l0.5-1.9h0.7
		c0.7,0,1.4-0.1,1.8-0.5c0.3-0.5,0.7-1.6,1.2-3.6l1.8-0.5l0.2,0.1c-0.3,1.5-0.7,2.7-1.1,3.7c0.6,0.3,1.5,0.7,3.4,0.7
		C834.5,220.4,834.6,220.6,834.6,221z M827.2,224.1l1.9,1.3l-1.2,1.8l-1.9-1.4L827.2,224.1z M830.7,224.1l1.9,1.3l-1.2,1.8l-1.9-1.4
		L830.7,224.1z"/>
	<path class="st8" d="M833.7,220.4c0.8,0,1.7,0,2.3-0.5c0.1-0.4,0.2-1,0.2-1.9v-11.7l1.7-0.4l0.2,0.1v11.9c0,3.5-1.8,4.4-4.8,4.4
		L833.7,220.4z"/>
	<path class="st8" d="M841.1,222.3v-16l1.8-0.5l0.1,0.1l0,16.1l-1.7,0.4L841.1,222.3z"/>
	<path class="st8" d="M851.4,221.3c0-1,0.2-2,0.4-2.7l1.5-0.5l0.2,0.1c-0.2,0.9-0.2,1.6-0.2,2.2c0,2.2,1.2,3.8,5.1,3.8
		c3.2,0,6.1-1.3,7-2.5c0.2-0.7-0.3-1.1-1.9-1.6c-1.9-0.6-3.1-1-3.1-2.9c0-2.2,2-5.1,4.9-5.1c1,0,1.9,0.3,2.5,0.6l-0.3,1.7l-0.1,0.1
		c-0.6-0.3-1.4-0.5-2.1-0.5c-1.9,0-3.4,1.8-3.4,2.9c0,0.6,1,0.9,2.7,1.5c2.4,0.8,2.8,1.4,2.8,2.2c0,3-4.4,5.5-9.3,5.5
		C853.5,226,851.4,224,851.4,221.3z M854.5,229.6l1.2-1.8l1.9,1.3l-1.2,1.8L854.5,229.6z M857.9,229.6l1.2-1.8l1.9,1.3l-1.2,1.8
		L857.9,229.6z"/>
	<path class="st8" d="M881.1,221c0,0.4-0.2,1.2-1.5,1.2c-1.1,0-1.9-0.3-2.5-1.3c-0.9,0.9-2.6,1.4-4.9,1.4c-0.5,0-1.9-0.1-2.8-0.3
		l0.3-1.8l0.1-0.1c0.8,0.2,2.1,0.2,2.6,0.2c1.5,0,3.1-0.3,3.9-0.9l-0.1-0.1c-0.4-0.8-2.2-4.3-3.2-6l1.4-1.5h0.2
		c0.7,1.5,2.4,5.4,2.8,6c0.9,1.9,1.4,2.3,2.7,2.3C880.9,220.4,881.1,220.6,881.1,221z"/>
	<path class="st8" d="M880.1,220.4h0.7c1.2,0,2.1-0.1,2.5-0.3c0.5-1.2-0.2-2.9-1-4.7l1.5-1.2h0.2c0.7,1.7,1.2,3.3,1.2,4.3
		c0,1-0.4,2.2-1.2,2.9c-0.6,0.6-1.6,0.8-3.8,0.8h-0.7L880.1,220.4z M879.9,225.9l1.2-1.8l1.9,1.3l-1.2,1.8L879.9,225.9z
		 M883.3,225.9l1.2-1.8l1.9,1.3l-1.2,1.8L883.3,225.9z"/>
	<path class="st8" d="M895.2,226.6c0,2.4,2.4,3.8,6.3,3.8c1.6,0,3.4-0.3,4.8-0.7l0.2,0.1l-0.6,1.6c-1.3,0.5-2.9,0.8-5,0.8
		c-4.6,0-7.6-1.9-7.6-5.3c0-3.6,2.8-5.9,5.6-7.9c-0.9-1-1.9-1.9-3.3-2.7l-0.1-0.2l0.8-2c1.2-0.6,2.7-0.9,4.3-0.9
		c1.7,0,3.2,0.4,4.5,1.2l0.1,0.2l-0.6,1.8c-1.1,1-2.2,1.9-3.2,2.6c1.4,0.8,3.4,1.2,5.4,1.2c0.8,0,1,0.3,1,0.7c0,0.4-0.2,1.2-1.4,1.2
		c-2.5,0-4.7-0.8-6.3-2C897.2,222.5,895.2,224.1,895.2,226.6z M900.3,218.1c1.2-0.8,2.2-1.6,3-2.5c-0.9-0.3-1.8-0.5-2.8-0.5
		c-1.2,0-2.2,0.2-3.1,0.5C898.3,216.2,899.2,217.1,900.3,218.1z"/>
	<path class="st8" d="M924.9,218c0,1.4-0.6,2.4-1.4,3.1c-1.1,0.9-2.9,1.1-6.2,1.1h-2.7c-2.4,0-3.8-0.1-5.3-0.7
		c-0.7,0.5-1.6,0.7-2.7,0.7l0.5-1.9c0.7,0,1.5-0.1,1.8-0.3c0.3-0.4,0.7-1.4,1.1-2.7l1.9-0.3l0.1,0.1c-0.4,1.2-0.8,2.1-1.3,2.9
		c0.5,0.2,1.2,0.3,2.1,0.3c3.9-3.8,6.5-6.1,8.7-6.1C923.3,214.2,924.9,216.1,924.9,218z M923.1,218.3c0-1-0.9-2.3-2-2.3
		c-1.5,0-3.6,1.9-6.1,4.3h2.1c3.5,0,4.8-0.1,5.6-0.5C922.9,219.5,923.1,218.9,923.1,218.3z M920.9,211.5l-2-1.4l1.2-1.8l2,1.3
		L920.9,211.5z"/>
	<path class="st8" d="M930.9,204c-1.2,0.1-2.7,0.3-4.6,0.3l-0.1-1.3c0.3,0,0.7,0,1.1,0c-0.3-0.4-0.4-0.9-0.4-1.4
		c0-1.2,0.7-1.9,2-1.9c0.5,0,1.1,0.1,1.7,0.3l-0.3,1.2c-0.5-0.1-0.8-0.2-1.1-0.2c-0.6,0-0.9,0.4-0.9,0.9c0,0.4,0.2,0.7,0.5,1
		c0.8,0,1.5-0.1,2.2-0.2L930.9,204z M929.5,205.8l0.1,0.1l0,16.1l-1.7,0.4l-0.1-0.1v-16L929.5,205.8z"/>
</g>
<linearGradient id="SVGID_8_" gradientUnits="userSpaceOnUse" x1="505.46" y1="408.7549" x2="1024" y2="408.7549">
	<stop  offset="0.1199" style="stop-color:#FFFFFF"/>
	<stop  offset="0.9969" style="stop-color:#FFF2D5"/>
</linearGradient>
<rect x="505.5" y="268.8" class="st9" width="518.5" height="280"/>
<g>
	<g>
		<path class="st10" d="M629.4,366v16.9c0,5.8-2.8,8.3-12,8.3h-2.2c-8,0-12.3-2.3-12.3-6.7c0-1.5,0.2-2.9,0.6-4.4l3.2-1.2l0.4,0.2
			c-0.2,1.1-0.3,2.1-0.3,3c0,3.7,2.9,4.7,9.9,4.7h2c2.4,0,5.1-0.4,5.9-0.8c0.1-0.6,0.3-1.5,0.3-2.8v-16.1l4.1-1.1L629.4,366z
			 M612.9,378.1c0.5,0,1.1,0,1.7,0c-0.5-0.7-0.8-1.5-0.8-2.3c0-1.8,1.2-3.1,3.2-3.1c0.8,0,1.7,0.2,2.7,0.6l-0.6,2.3
			c-0.6-0.2-1.2-0.3-1.6-0.3c-0.8,0-1.3,0.3-1.3,1.1c0,0.6,0.3,1.2,0.8,1.6c1.1-0.1,2.2-0.1,3.1-0.3l0.2,2.4
			c-1.8,0.2-4.2,0.4-7.1,0.5L612.9,378.1z"/>
		<path class="st10" d="M651.4,387.7c0,1.7-0.6,3.1-2.4,3.1c-2.3,0-3.8-0.4-4.8-1.7c-1.7,1.3-4.4,2-7.5,2c-0.9,0-2.9-0.1-4.2-0.4
			l0.6-4.4l0.3-0.1c1.2,0.2,2.8,0.3,3.7,0.3c1.7,0,3.8-0.2,5.2-0.8c-0.8-1.5-2.7-5.3-4.2-8.1l3.2-3.7h0.4c0.9,2.2,3.3,7.8,3.8,9
			c1.3,3,2,3.4,4.4,3.4C651.1,386.2,651.4,386.9,651.4,387.7z"/>
		<path class="st10" d="M670.6,387.7c0,1.8-0.8,3.1-2.5,3.1c-1.5,0-2.7-0.4-3.7-1.3c-0.7,1.1-1.7,1.7-3.1,1.7c-1.5,0-4-0.8-6.4-2.5
			c-1.4,1.8-3.3,2-6,2l1-4.5c1.6,0,2.1-0.3,2.9-1.7c2-3.4,3.7-6.6,6.7-6.6c2.7,0,4,2.4,5.5,5.4c1.2,2.3,1.8,2.9,4,2.9
			C670.2,386.2,670.6,386.8,670.6,387.7z M662.4,386.3l-0.1-0.2c-1.1-2.6-2.1-3.9-2.8-3.9c-0.8,0-1.7,1.3-2.6,3.1
			c1.4,0.9,2.8,1.6,3.9,1.6C661.6,386.9,662,386.7,662.4,386.3z"/>
		<path class="st10" d="M693.4,387.7c0,1.7-0.5,3.1-2.4,3.1c-5.8,0-7.9-1.4-9.3-4l-1.3,0.6c-5,2.5-8.2,3.3-12.2,3.3l1-4.5
			c3.6,0,5.7-0.4,9.9-1.9c1.2-0.4,2.1-0.7,2.8-1c-0.4-0.1-0.8-0.3-1.2-0.5c-2.9-1.3-4.5-1.8-6-1.8c-1.6,0-2.9,0.3-4.1,0.7l-0.2-0.1
			l1.6-4c0.8-0.4,2.1-0.8,3.3-0.8c1.2,0,2.7,0.4,5.5,1.7c3.8,1.7,6.1,2.3,8.6,2.3l-0.8,4c-1,0-1.9,0.1-3.1,0.5
			c1.2,0.7,3,0.9,6.5,0.9C693,386.2,693.4,386.9,693.4,387.7z"/>
		<path class="st10" d="M691.9,386.2h0.4c1.3,0,2.9-0.1,3.5-0.3c0.2-1.4-0.9-3.8-2.1-6.2l3.6-2.9h0.4c1.2,2.6,2,5.7,2,7.4
			c0,1.9-0.6,3.5-1.9,4.8c-1.2,1.2-2.8,1.6-6.4,1.6h-0.4L691.9,386.2z M693.1,396.9l2.4-3.5l3.8,2.6l-2.4,3.6L693.1,396.9z"/>
		<path class="st10" d="M715.5,387.1c0,4.9-3.8,9.9-11.9,10l-2.2-3.4l0.3-0.4c5-0.1,8.3-1.4,9.6-3.9c-0.9,0.1-1.8,0.2-2.9,0.2
			c-3.3,0-4.9-1.7-4.9-4.3c0-3.3,2.6-7.4,6-7.4C713.2,377.9,715.5,382.2,715.5,387.1z M709.3,385.8c0.9,0,1.7-0.1,2.5-0.2
			c-0.3-1.8-1.3-3.4-2.7-3.4c-1.3,0-2.2,1.4-2.2,2.5C706.9,385.5,707.6,385.8,709.3,385.8z"/>
		<path class="st10" d="M748.1,387.7c0,2-0.9,3.1-2.4,3.1c-1.5,0-2.7-0.4-3.7-1.3c-0.8,1.1-1.7,1.8-3.1,1.8c-2.1,0-4.6-1.3-7.3-4.3
			l-0.6,0.9c-0.2,2.4,0.9,9.3,1.7,14.1l-3.8,1.8l-0.3-0.2c-0.9-4.6-1.7-10.4-1.7-12.6c0-3.3,0.8-5.7,2.5-7.7c2.3-2.7,5.5-5.2,8-5.2
			c2.6,0,3.7,2.1,5.4,5.4c1.2,2.3,1.6,2.9,4,2.9C747.6,386.2,748.1,386.7,748.1,387.7z M739.9,386.3c0-0.1,0-0.1-0.1-0.2
			c-1.3-2.7-2.1-3.9-3-3.9c-0.8,0-1.9,0.8-3,1.9c1.7,1.8,3.3,2.8,4.5,2.8C739,386.9,739.5,386.7,739.9,386.3z"/>
		<path class="st10" d="M764.9,387.7c0,2-0.8,3.1-2.4,3.1h-2.1c0.5,0.8,0.8,1.7,0.8,2.6c0,2.8-2.4,4.6-5.5,4.6
			c-4.4,0-7.3-2.6-7.9-7.2h-2.2l1-4.5h1.5c0.7-3.1,2.3-6.5,4.4-9l2.9-1.7l0.3,0c3.4,2.5,5,4.6,5,6.8c0,1.3-0.8,3.1-1.8,4h4.6
			C764.4,386.2,764.9,386.7,764.9,387.7z M753.5,390.4c-0.5,0-1,0.1-1.5,0.2c0.5,2.2,2.2,3.4,4.2,3.4c0.7,0,1.3-0.2,1.6-0.4
			C757.9,392,756.1,390.4,753.5,390.4z M752.1,386.5c2.4-0.2,4.2-1.5,4.2-3.7c0-1-0.4-1.9-1.5-3
			C753.4,381.8,752.6,384.2,752.1,386.5z"/>
		<path class="st10" d="M776.1,387.7c0,1.7-0.6,3.1-2.4,3.1c-1.4,0-3.3-0.4-4.5-2.1c-1.3,1.5-3.1,2.1-6.7,2.1l1-4.5
			c1,0,2.2-0.1,2.9-0.5c0.1-0.6,0.3-1.4,0.3-2.7v-16.2l4.2-1.1l0.3,0.2v17.1c0,2.8,0.8,3.2,3.6,3.2
			C775.8,386.2,776.1,386.9,776.1,387.7z"/>
		<path class="st10" d="M774.7,386.2c1,0,2.2-0.1,2.9-0.5c0.1-0.6,0.3-1.4,0.3-2.7v-16.2l4.2-1.1l0.3,0.2v16.9
			c0,6.3-3.2,7.8-8.6,7.8L774.7,386.2z"/>
		<path class="st10" d="M786.7,390.8v-23.9l4.2-1.1l0.4,0.2l-0.1,24.1L787,391L786.7,390.8z"/>
		<path class="st10" d="M834.2,387.7c0,1.7-0.6,3.1-2.4,3.1c-1.9,0-3.6-0.6-4.7-2c-1.7,1.7-4.6,2.4-9.8,2.4h-2.2
			c-8,0-12.3-2.3-12.3-6.7c0-1.5,0.2-2.9,0.6-4.4l3.2-1.2l0.4,0.2c-0.2,1.1-0.3,2.1-0.3,3c0,3.7,2.9,4.7,9.9,4.7h2
			c2.8,0,5.2-0.5,5.9-0.9c0.1-0.6,0.3-1.4,0.3-2.7v-16.2l4.1-1.1l0.4,0.2v16.1c0,3.1,0.6,4.1,3.5,4.1
			C833.9,386.2,834.2,386.9,834.2,387.7z M812.8,378.1c0.5,0,1.1,0,1.7,0c-0.5-0.7-0.8-1.5-0.8-2.3c0-1.8,1.2-3.1,3.2-3.1
			c0.8,0,1.7,0.2,2.7,0.6l-0.6,2.3c-0.6-0.2-1.2-0.3-1.6-0.3c-0.8,0-1.3,0.3-1.3,1.1c0,0.6,0.3,1.2,0.8,1.6c1.1-0.1,2.2-0.1,3.1-0.3
			l0.2,2.4c-1.8,0.2-4.2,0.4-7.1,0.5L812.8,378.1z"/>
		<path class="st10" d="M832.8,386.2h0.4c1.3,0,2.9-0.1,3.5-0.3c0.2-1.4-0.9-3.8-2.1-6.2l3.6-2.9h0.4c1.2,2.6,2,5.7,2,7.4
			c0,1.9-0.6,3.5-1.9,4.8c-1.2,1.2-2.8,1.6-6.4,1.6h-0.4L832.8,386.2z M833.5,371.4l2.4-3.5l3.8,2.7l-2.4,3.6L833.5,371.4z"/>
		<path class="st10" d="M844.7,383.4v-16.5l4.1-1.1l0.4,0.2v17.1c0,2.4,1,3.2,3.6,3.2c1,0,1.4,0.5,1.4,1.4c0,1.8-0.7,3.1-2.4,3.1
			C847.1,390.7,844.7,388.6,844.7,383.4z"/>
		<path class="st10" d="M877,387.7c0,1.7-0.5,3.1-2.4,3.1c-5.8,0-7.9-1.4-9.3-4l-1.3,0.6c-5,2.5-8.2,3.3-12.2,3.3l1-4.5
			c3.6,0,5.7-0.4,9.9-1.9c1.2-0.4,2.1-0.7,2.8-1c-0.4-0.1-0.8-0.3-1.2-0.5c-2.9-1.3-4.5-1.8-6-1.8c-1.6,0-2.9,0.3-4.1,0.7l-0.2-0.1
			l1.6-4c0.8-0.4,2.1-0.8,3.3-0.8c1.2,0,2.7,0.4,5.5,1.7c3.8,1.7,6.1,2.3,8.6,2.3l-0.8,4c-1,0-1.9,0.1-3.1,0.5
			c1.2,0.7,3,0.9,6.5,0.9C876.7,386.2,877,386.9,877,387.7z"/>
		<path class="st10" d="M889,387.7c0,1.7-0.6,3.1-2.4,3.1s-4.2-0.6-5.6-1.7c-1.4,1.1-3.2,1.7-5.8,1.7h-0.7l1-4.5h0.6
			c1.4,0,2.4-0.1,2.8-0.5c0.4-0.9,0.8-2.7,1.2-5l4.6-1.1l0.4,0.3c-0.5,2.2-1,4.1-1.7,5.7c1,0.4,2.4,0.7,4.1,0.7
			C888.7,386.2,889,386.9,889,387.7z M880.2,393.4l3.8,2.6l-2.4,3.6l-3.9-2.7L880.2,393.4z"/>
		<path class="st10" d="M914.9,384.4c0,4.3-3.3,6.4-7.8,6.4c-2,0-3.5-0.4-4.8-1c-0.9,0.6-2,1-3.4,1c-2.3,0-4.3-0.8-5.5-1.5
			c-1.4,1.1-3.5,1.5-6.7,1.5l1-4.5c2.3,0,3.3-0.1,4-0.4c0.3-0.6,0.6-2.5,0.9-4l4.9-0.8l0.1,0.1c-0.6,1.8-1.1,3.3-1.6,4.5
			c1,0.3,2.4,0.6,3.6,0.6c0.6,0,1-0.1,1.3-0.3c0.3-0.4,0.7-2.4,1.1-4.1l4.5-0.8l0.1,0.1c-0.5,1.8-1,3.4-1.6,4.7
			c0.9,0.3,1.8,0.4,2.7,0.4c1.3,0,2.5-0.1,3.2-0.5c0.2-1.4-0.9-4-1.8-6l3.9-2.9l0.2,0C914.1,379.5,914.9,382.2,914.9,384.4z"/>
		<path class="st10" d="M917.6,376c0.8-1.2,1.7-2.4,1.7-3.4c0-0.4-0.1-0.8-0.5-1c-0.6-0.6-1.2-1.1-1.2-2.2c0-1.2,0.9-2.4,2.6-2.4
			c1.7,0,2.7,1.2,2.7,2.8c0,2.8-1.4,5.1-3.3,7.4L917.6,376z M924.1,376c0.8-1.2,1.7-2.4,1.7-3.4c0-0.4-0.1-0.8-0.5-1
			c-0.6-0.6-1.2-1.1-1.2-2.2c0-1.2,0.9-2.4,2.6-2.4c1.7,0,2.7,1.2,2.7,2.8c0,2.8-1.4,5.1-3.3,7.4L924.1,376z"/>
		<path class="st10" d="M613.8,424v16.9c0,5.8-2.8,8.3-12,8.3h-2.2c-8,0-12.3-2.3-12.3-6.7c0-1.5,0.2-2.9,0.6-4.4l3.2-1.2l0.4,0.2
			c-0.2,1.1-0.3,2.1-0.3,3c0,3.7,2.9,4.7,9.9,4.7h2c2.4,0,5.1-0.4,5.9-0.8c0.1-0.6,0.3-1.5,0.3-2.8v-16.1l4.1-1.1L613.8,424z
			 M597.3,436.1c0.5,0,1.1,0,1.7,0c-0.5-0.7-0.8-1.5-0.8-2.3c0-1.8,1.2-3.1,3.2-3.1c0.8,0,1.7,0.2,2.7,0.6l-0.6,2.3
			c-0.6-0.2-1.2-0.3-1.6-0.3c-0.8,0-1.3,0.3-1.3,1.1c0,0.6,0.3,1.2,0.8,1.6c1.1-0.1,2.2-0.1,3.1-0.3l0.2,2.4
			c-1.8,0.2-4.2,0.4-7.1,0.5L597.3,436.1z"/>
		<path class="st10" d="M635.9,445.7c0,1.7-0.6,3.1-2.4,3.1c-2.3,0-3.8-0.4-4.8-1.7c-1.7,1.3-4.4,2-7.5,2c-0.9,0-2.9-0.1-4.2-0.4
			l0.6-4.4l0.3-0.1c1.2,0.2,2.8,0.3,3.7,0.3c1.7,0,3.8-0.2,5.2-0.8c-0.8-1.5-2.7-5.3-4.2-8.1l3.2-3.7h0.4c0.9,2.2,3.3,7.8,3.8,9
			c1.3,3,2,3.4,4.4,3.4C635.5,444.2,635.9,444.9,635.9,445.7z"/>
		<path class="st10" d="M654.4,439.8l-1.2,4.3c-2.5,0.3-5.9,1.1-9.6,2.4c-5,1.7-7.5,2.2-10.2,2.2l1-4.5c2.8,0,4.8-0.2,9.4-1.4
			c1.5-0.4,2.7-0.7,3.7-1c-0.5-0.2-1.1-0.5-1.7-0.8c-2.8-1.5-4.4-2-5.9-2c-1.6,0-2.9,0.3-4.1,0.7l-0.2-0.2l1.6-4
			c0.8-0.4,2.1-0.8,3.3-0.8c1.6,0,3.1,0.6,6.7,2.4C651,439.1,652.7,439.7,654.4,439.8z M642.3,451.4l3.8,2.6l-2.4,3.6l-3.9-2.7
			L642.3,451.4z"/>
		<path class="st10" d="M664.8,447.8c0-1.3,0.3-2.8,0.6-4.1l3.7-1.3l0.4,0.2c-0.3,1.5-0.4,2.3-0.4,3.1c0,3.1,1.7,5.1,7.3,5.1
			c4.2,0,8.5-0.8,9.6-2.1c0-0.8-0.9-1.8-5.9-2.8l1.3-3.9c6.9,1.6,8.6,3.3,8.6,5.6c-0.2,4.8-6.4,7.7-14.4,7.7
			C668.3,455.4,664.8,452.1,664.8,447.8z"/>
		<path class="st10" d="M681.5,442.1c1.5-0.3,3.2-0.6,4.4-1.3c0.1-0.7,0.2-1.9,0.2-3.2v-13.8l4.1-1.1l0.4,0.2v15.2
			c0,3.8-1.3,6.3-6.6,7.6L681.5,442.1z"/>
		<path class="st10" d="M695,441.4v-16.5l4.1-1.1l0.4,0.2v17.1c0,2.4,1,3.2,3.6,3.2c1,0,1.4,0.5,1.4,1.4c0,1.8-0.7,3.1-2.4,3.1
			C697.4,448.7,695,446.6,695,441.4z"/>
		<path class="st10" d="M725.1,445.7c0,1.7-0.6,3.1-2.4,3.1c-4.1,0-7.3-1-9.8-2.6c-2.6,1.5-5.8,2.6-10.8,2.6l1-4.5c2.7,0,5-0.3,7-1
			c-1.5-1.5-3.1-2.8-4.8-3.6l-0.1-0.4l1.4-4c1.9-1,4.6-1.5,7.3-1.5c2.7,0,5.4,0.6,7.6,1.8l0.1,0.4l-1,3.8c-1.5,1.2-2.9,2.5-4.2,3.7
			c2,0.6,4.5,0.7,7.3,0.7C724.8,444.2,725.1,444.9,725.1,445.7z M713.2,441.6c1.2-0.8,2.3-1.8,3.5-3.1c-1.2-0.4-2.4-0.5-3.5-0.5
			c-1.2,0-2.4,0.2-3.5,0.5C710.9,439.2,712,440.3,713.2,441.6z"/>
		<path class="st10" d="M730.2,434.9c1.2,2.6,2,5.7,2,7.4c0,1.9-0.6,3.6-1.9,4.8c-1.2,1.2-2.8,1.6-6.4,1.6h-1.2l1-4.5h1.1
			c1.3,0,2.9-0.1,3.5-0.3c0.2-1.4-0.8-3.8-2-6.2l3.6-2.9H730.2z M726.5,432l-3.7-2.6l2.3-3.4l3.5,2.4l1.6-2.4l3.7,2.5l-2.3,3.5
			l-3.5-2.5L726.5,432z"/>
		<path class="st10" d="M747.9,445.1c0,4.9-3.8,9.9-11.9,10l-2.2-3.4l0.3-0.4c5-0.1,8.3-1.4,9.6-3.9c-0.9,0.1-1.8,0.2-2.9,0.2
			c-3.3,0-4.9-1.7-4.9-4.3c0-3.3,2.6-7.4,6-7.4C745.6,435.9,747.9,440.2,747.9,445.1z M741.7,443.8c0.9,0,1.7-0.1,2.5-0.2
			c-0.3-1.8-1.3-3.4-2.7-3.4c-1.3,0-2.2,1.4-2.2,2.5C739.4,443.5,740,443.8,741.7,443.8z"/>
		<path class="st10" d="M790.7,445.7c0,1.7-0.6,3.1-2.4,3.1c-1.9,0-3.6-0.6-4.7-2c-1.7,1.7-4.6,2.4-9.8,2.4h-2.2
			c-8,0-12.3-2.3-12.3-6.7c0-1.5,0.2-2.9,0.6-4.4l3.2-1.2l0.4,0.2c-0.2,1.1-0.3,2.1-0.3,3c0,3.7,2.9,4.7,9.9,4.7h2
			c2.8,0,5.2-0.5,5.9-0.9c0.1-0.6,0.3-1.4,0.3-2.7v-16.2l4.1-1.1l0.4,0.2v16.1c0,3.1,0.6,4.1,3.5,4.1
			C790.3,444.2,790.7,444.9,790.7,445.7z M769.2,436.1c0.5,0,1.1,0,1.7,0c-0.5-0.7-0.8-1.5-0.8-2.3c0-1.8,1.2-3.1,3.2-3.1
			c0.8,0,1.7,0.2,2.7,0.6l-0.6,2.3c-0.6-0.2-1.2-0.3-1.6-0.3c-0.8,0-1.3,0.3-1.3,1.1c0,0.6,0.3,1.2,0.8,1.6c1.1-0.1,2.2-0.1,3.1-0.3
			l0.2,2.4c-1.8,0.2-4.2,0.4-7.1,0.5L769.2,436.1z"/>
		<path class="st10" d="M809.8,445.7c0,1.8-0.8,3.1-2.5,3.1c-1.5,0-2.7-0.4-3.7-1.3c-0.7,1.1-1.7,1.7-3.1,1.7c-1.5,0-4-0.8-6.4-2.5
			c-1.4,1.8-3.3,2-6,2l1-4.5c1.6,0,2.1-0.3,2.9-1.7c2-3.4,3.7-6.6,6.7-6.6c2.7,0,4,2.4,5.5,5.4c1.2,2.3,1.8,2.9,4,2.9
			C809.4,444.2,809.8,444.8,809.8,445.7z M801.6,444.3l-0.1-0.2c-1.1-2.6-2.1-3.9-2.8-3.9c-0.8,0-1.7,1.3-2.6,3.1
			c1.4,0.9,2.8,1.6,3.9,1.6C800.8,444.9,801.2,444.7,801.6,444.3z"/>
		<path class="st10" d="M835.7,442.4c0,4.3-3.3,6.4-7.8,6.4c-2,0-3.5-0.4-4.8-1c-0.9,0.6-2,1-3.4,1c-2.3,0-4.3-0.8-5.5-1.5
			c-1.4,1.1-3.5,1.5-6.7,1.5l1-4.5c2.3,0,3.3-0.1,4-0.4c0.3-0.6,0.6-2.5,0.9-4l4.9-0.8l0.1,0.1c-0.6,1.8-1.1,3.3-1.6,4.5
			c1,0.3,2.4,0.6,3.6,0.6c0.6,0,1-0.1,1.3-0.3c0.3-0.4,0.7-2.4,1.1-4.1l4.5-0.8l0.1,0.1c-0.5,1.8-1,3.4-1.6,4.7
			c0.9,0.3,1.8,0.4,2.7,0.4c1.3,0,2.5-0.1,3.2-0.5c0.2-1.4-0.9-4-1.8-6l3.9-2.9l0.2,0C834.9,437.5,835.7,440.2,835.7,442.4z"/>
		<path class="st10" d="M839.8,448.8v-23.9l4.2-1.1l0.4,0.2l-0.1,24.1l-4.1,0.9L839.8,448.8z"/>
		<path class="st10" d="M882.4,424v16.9c0,5.8-2.8,8.3-12,8.3h-2.2c-8,0-12.3-2.3-12.3-6.7c0-1.5,0.2-2.9,0.6-4.4l3.2-1.2l0.4,0.2
			c-0.2,1.1-0.3,2.1-0.3,3c0,3.7,2.9,4.7,9.9,4.7h2c2.4,0,5.1-0.4,5.9-0.8c0.1-0.6,0.3-1.5,0.3-2.8v-16.1l4.1-1.1L882.4,424z
			 M865.9,436.1c0.5,0,1.1,0,1.7,0c-0.5-0.7-0.8-1.5-0.8-2.3c0-1.8,1.2-3.1,3.2-3.1c0.8,0,1.7,0.2,2.7,0.6l-0.6,2.3
			c-0.6-0.2-1.2-0.3-1.6-0.3c-0.8,0-1.3,0.3-1.3,1.1c0,0.6,0.3,1.2,0.8,1.6c1.1-0.1,2.2-0.1,3.1-0.3l0.2,2.4
			c-1.8,0.2-4.2,0.4-7.1,0.5L865.9,436.1z"/>
		<path class="st10" d="M881.7,452l0.3-0.4c5.9-1,10-3.8,10-5.1c-0.1-1.2-1.3-4-2.6-6.2l3.2-3.6h0.4c1.6,3,2.4,6.4,2.4,8.6
			c0,1.4-0.3,2.8-1,4.2c-1.5,2.8-5.6,5-10.3,5.8L881.7,452z"/>
		<path class="st10" d="M899.6,441.4v-16.5l4.1-1.1l0.4,0.2v17.1c0,2.4,1,3.2,3.6,3.2c1,0,1.4,0.5,1.4,1.4c0,1.8-0.7,3.1-2.4,3.1
			C902,448.7,899.6,446.6,899.6,441.4z"/>
		<path class="st10" d="M921.2,445.7c0,1.7-0.6,3.1-2.4,3.1s-4.2-0.6-5.6-1.7c-1.4,1.1-3.2,1.7-5.8,1.7h-0.7l1-4.5h0.6
			c1.4,0,2.4-0.1,2.8-0.5c0.4-0.9,0.8-2.7,1.2-5l4.6-1.1l0.4,0.3c-0.5,2.2-1,4.1-1.7,5.7c1,0.4,2.4,0.7,4.1,0.7
			C920.9,444.2,921.2,444.9,921.2,445.7z M912.4,451.4l3.8,2.6l-2.4,3.6l-3.9-2.7L912.4,451.4z"/>
		<path class="st10" d="M926.3,434.9c1.2,2.6,2,5.7,2,7.4c0,1.9-0.6,3.6-1.9,4.8c-1.2,1.2-2.8,1.6-6.4,1.6h-1.2l1-4.5h1.1
			c1.3,0,2.9-0.1,3.5-0.3c0.2-1.4-0.8-3.8-2-6.2l3.6-2.9H926.3z M922.6,432l-3.7-2.6l2.3-3.4l3.5,2.4l1.6-2.4l3.7,2.5l-2.3,3.5
			l-3.5-2.5L922.6,432z"/>
		<path class="st10" d="M757.4,490.3c0-2.8,1.5-5.1,3.4-7.5l1.9,1.2c-0.8,1.2-1.7,2.4-1.7,3.4c0,0.4,0.1,0.8,0.5,1
			c0.7,0.6,1.2,1.1,1.2,2.2c0,1.2-0.9,2.4-2.6,2.4C758.5,493.2,757.4,491.9,757.4,490.3z M764,490.3c0-2.8,1.4-5.1,3.3-7.5l1.9,1.2
			c-0.8,1.2-1.7,2.4-1.7,3.4c0,0.4,0.1,0.8,0.5,1c0.6,0.6,1.2,1.1,1.2,2.2c0,1.2-0.9,2.4-2.6,2.4C765,493.2,764,491.9,764,490.3z"/>
		<path class="st10" d="M797.7,482v16.9c0,5.8-2.8,8.3-12,8.3h-2.2c-8,0-12.3-2.3-12.3-6.7c0-1.5,0.2-2.9,0.6-4.4l3.2-1.2l0.4,0.2
			c-0.2,1.1-0.3,2.1-0.3,3c0,3.7,2.9,4.7,9.9,4.7h2c2.4,0,5.1-0.4,5.9-0.8c0.1-0.6,0.3-1.5,0.3-2.8v-16.1l4.1-1.1L797.7,482z
			 M781.3,494.1c0.5,0,1.1,0,1.7,0c-0.5-0.7-0.8-1.5-0.8-2.3c0-1.8,1.2-3.1,3.2-3.1c0.8,0,1.7,0.2,2.7,0.6l-0.6,2.3
			c-0.6-0.2-1.2-0.3-1.6-0.3c-0.8,0-1.3,0.3-1.3,1.1c0,0.6,0.3,1.2,0.8,1.6c1.1-0.1,2.2-0.1,3.1-0.3l0.2,2.4
			c-1.8,0.2-4.2,0.4-7.1,0.5L781.3,494.1z"/>
		<path class="st10" d="M815.7,503.7c0,1.7-0.6,3.1-2.4,3.1c-1.3,0-2.2-0.2-2.9-0.5c-1.4,3.6-5.5,6.2-10.8,7.1l-2.4-3.3l0.3-0.4
			c5.7-1,9-3.3,10.1-5.6c-0.8-1.8-1.7-3.8-2.7-5.7l3.2-3.7h0.4l1.5,4.4c1,2.8,1.8,3.2,4.2,3.2C815.3,502.2,815.7,502.9,815.7,503.7z
			"/>
		<path class="st10" d="M828.6,503.7c0,1.7-0.5,3.1-2.4,3.1c-2.7,0-5.1-0.6-6.6-1.7c-1.3,1.1-3,1.7-5.3,1.7h-1.2l1-4.5h0.8
			c0.9,0,2.1-0.1,2.5-0.5c0.4-0.9,0.8-2.7,1.3-5l4.6-1.1l0.4,0.3c-0.5,2.1-1,4-1.7,5.6c1,0.4,2.7,0.7,5.1,0.7
			C828.3,502.2,828.6,502.9,828.6,503.7z M821.7,509.4l3.7,2.5l-2.3,3.5l-3.5-2.5l-1.7,2.5l-3.7-2.6l2.3-3.4l3.6,2.4L821.7,509.4z"
			/>
		<path class="st10" d="M843.5,501.8l-1.3,4.1c-2.8,0.5-7.2,0.9-16,0.9l1-4.5h2.6c-0.6-1.1-0.9-2.3-0.9-3.5c0-4.5,3.3-6.9,7.5-6.9
			c1.7,0,3.6,0.4,5.2,1.1l-0.5,3.8l-0.1,0.1c-1.2-0.4-2.6-0.7-3.7-0.7c-2.1,0-3.3,1-3.3,3c0,0.9,0.4,2.1,1.2,3.1
			c2.9-0.1,5.6-0.3,8.1-0.6L843.5,501.8z M837.1,488.4l-3.9-2.7l2.4-3.5l3.8,2.7L837.1,488.4z"/>
		<path class="st10" d="M872,503.7c0,1.7-0.6,3.1-2.5,3.1c-2.6,0-4.6-0.7-5.8-2.4c-1.2,0.4-2.2,0.6-3.3,0.6c-4,0-6.4-1.9-6.4-4.6
			c0-3,3-6.3,8.6-8.2v-1.7l4.2-1.6l0.3,0.1v10.8c0,1.9,0.7,2.5,3.4,2.5C871.7,502.2,872,502.9,872,503.7z M862.7,500.4v-0.7v-3.4
			c-2.5,0.6-4.5,1.7-5,2.8c0.4,1,1.9,1.5,3.2,1.5C861.5,500.6,862.1,500.5,862.7,500.4z"/>
		<path class="st10" d="M870.6,502.2c1,0,2.2-0.1,2.9-0.5c0.1-0.6,0.3-1.4,0.3-2.7v-16.2l4.2-1.1l0.3,0.2v16.9
			c0,6.3-3.2,7.8-8.6,7.8L870.6,502.2z"/>
		<path class="st10" d="M888.5,516.3c-1.8,0.2-4.2,0.4-7,0.5l-0.3-2.6c0.5,0,1.1,0,1.6,0c-0.4-0.6-0.8-1.5-0.8-2.2
			c0-1.8,1.2-3.1,3.2-3.1c0.8,0,1.7,0.2,2.7,0.5l-0.6,2.3c-0.6-0.2-1.2-0.3-1.5-0.3c-0.8,0-1.2,0.4-1.2,1.2c0,0.5,0.3,1,0.7,1.5
			c1-0.1,2.1-0.1,3-0.3L888.5,516.3z M882.9,507l-0.3-0.2v-23.9l4.2-1.1l0.4,0.2l-0.1,24.1L882.9,507z"/>
		<path class="st10" d="M910.2,496.6c1.3,1.7,1.9,3.4,1.9,4.9c0,3.2-1.9,5.2-7.4,5.2h-5l0.3-4.4c2.4-1.3,4.6-2.8,6.2-5
			c-2.4-2.2-5.5-4.4-7.6-5.7l1.3-4.4l0.3-0.1c3,2.3,5.6,4.5,7.7,6.7c0.3-1,0.4-2.2,0.4-3.4c0-2.1-0.4-5-0.9-6.5l4-2l0.3,0.1
			c0.4,1.8,0.8,5,0.8,7.1C912.4,492,911.5,494.6,910.2,496.6z M908.2,499.3c-1.2,1.3-2.4,2.2-3.4,2.9h0.8c2.2,0,3.2-0.2,3.7-0.7
			C909.3,500.9,908.9,500.2,908.2,499.3z"/>
		<path class="st10" d="M928.3,503.1c0,4.9-3.8,9.9-11.9,10l-2.2-3.4l0.3-0.4c5-0.1,8.3-1.4,9.6-3.9c-0.9,0.1-1.8,0.2-2.9,0.2
			c-3.3,0-4.9-1.7-4.9-4.3c0-3.3,2.6-7.4,6-7.4C926,493.9,928.3,498.2,928.3,503.1z M922.1,501.8c0.9,0,1.7-0.1,2.5-0.2
			c-0.3-1.8-1.3-3.4-2.7-3.4c-1.3,0-2.2,1.4-2.2,2.5C919.7,501.5,920.4,501.8,922.1,501.8z"/>
	</g>
</g>
<g>
	<path class="st8" d="M800.5,316.1c0-0.8,0.7-1.5,1.5-1.5c0.8,0,1.5,0.7,1.5,1.5c0,0.8-0.7,1.5-1.5,1.5
		C801.2,317.6,800.5,316.9,800.5,316.1z M800.5,323.5c0-0.8,0.7-1.5,1.5-1.5c0.8,0,1.5,0.7,1.5,1.5c0,0.8-0.7,1.5-1.5,1.5
		C801.2,325,800.5,324.4,800.5,323.5z"/>
	<path class="st8" d="M810.7,338.7l5.7-1.1v1.2l-5.7,1.1V338.7z"/>
	<path class="st8" d="M818.9,332.3l-0.5,1.5c-1,0.6-3,1-4.9,1c-4.8,0-8.2-2.4-8.2-6.2c0-4.1,3.5-7.4,7.4-9.2c-0.2,0-0.5-0.1-0.8-0.2
		c-1.6-0.4-2.4-0.6-3.4-0.6c-1.1,0-2.2,0.2-3,0.5l-0.1-0.1l0.7-1.8c0.6-0.3,1.7-0.5,2.5-0.5c0.9,0,1.6,0.1,3.1,0.6
		c2.5,0.7,4.4,1,6.9,1l-0.5,1.9c-6.6,0.1-11,4-11,7.9c0,3.1,2.7,4.8,6.9,4.8c1.5,0,3.2-0.3,4.8-0.8L818.9,332.3z"/>
	<path class="st8" d="M821.1,320.8v-12l1.7-0.4l0.1,0.1v12.1c0,1.9,0.8,2.3,2.8,2.3c0.8,0,1,0.3,1,0.6c0,0.4-0.2,1.2-1.5,1.2
		C822.9,324.8,821.1,324,821.1,320.8z"/>
	<path class="st8" d="M834.8,323.6c0,0.4-0.2,1.2-1.4,1.2c-1.5,0-2.9-0.3-3.9-1.2c-0.8,0.8-1.8,1.2-3.3,1.2h-0.8l0.5-1.9h0.7
		c0.7,0,1.4-0.1,1.8-0.5c0.3-0.5,0.7-1.6,1.2-3.6l1.8-0.5l0.2,0.1c-0.3,1.5-0.7,2.7-1.1,3.7c0.6,0.3,1.5,0.7,3.4,0.7
		C834.7,322.9,834.8,323.2,834.8,323.6z M829.2,315.6l-1.9-1.4l1.2-1.8l1.9,1.3L829.2,315.6z M832.5,315.6l-1.9-1.4l1.2-1.8l1.9,1.3
		L832.5,315.6z"/>
	<path class="st8" d="M845.5,323.6c0,0.4-0.2,1.2-1.5,1.2h-1.5c-1.1,0-2.4-0.2-3.6-0.7c-1.2,0.5-2.8,0.7-4.3,0.7h-1.2l0.5-1.9h2.3
		c0.2,0,0.4,0,0.6,0c-0.8-0.7-1.4-1.6-1.4-2.6c0-2.1,1.8-4.3,3.8-4.3c1.7,0,3.2,1.9,3.2,3.7c0,1.4-0.5,2.4-1.3,3.2
		c0.5,0.1,1.1,0.1,1.7,0.1h1.7C845.3,322.9,845.5,323.2,845.5,323.6z M839.1,322.3c1.1-0.6,1.8-1.4,1.8-2.4c0-1-1-2.1-1.9-2.1
		c-1,0-2,1.1-2,2.2C837,320.8,837.7,321.7,839.1,322.3z M839.6,313.2l-2-1.4l1.2-1.8l2,1.3L839.6,313.2z"/>
	<path class="st8" d="M853.6,323.6c0,0.4-0.2,1.2-1.4,1.2c-1.5,0-2.9-0.3-3.9-1.2c-0.8,0.8-1.8,1.2-3.3,1.2H844l0.5-1.9h0.7
		c0.7,0,1.4-0.1,1.8-0.5c0.3-0.5,0.7-1.6,1.2-3.6l1.8-0.5l0.2,0.1c-0.3,1.5-0.7,2.7-1.1,3.7c0.6,0.3,1.5,0.7,3.4,0.7
		C853.4,322.9,853.6,323.2,853.6,323.6z M847.9,315.6l-1.9-1.4l1.2-1.8l1.9,1.3L847.9,315.6z M851.2,315.6l-1.9-1.4l1.2-1.8l1.9,1.3
		L851.2,315.6z"/>
	<path class="st8" d="M869.6,321.1c0,2.8-1.7,3.7-4.3,3.7c-1,0-1.9-0.2-2.7-0.6c-0.5,0.4-1.2,0.6-2.2,0.6c-1.7,0-3-0.5-3.7-1.1
		c-0.9,0.7-2.2,1.1-4.4,1.1l0.5-1.9c1.5,0,2.5-0.1,3-0.5c0.3-0.4,0.6-1.3,1-2.5l2-0.3l0.1,0.1c-0.4,1-0.7,1.9-1.1,2.6
		c0.7,0.3,1.9,0.6,2.8,0.6c0.4,0,0.9-0.1,1.2-0.3c0.3-0.4,0.7-1.4,1.1-2.8l1.9-0.3l0.1,0.1c-0.4,1.2-0.7,2.2-1.1,2.9
		c0.5,0.2,1.1,0.3,1.7,0.3c0.8,0,1.7-0.1,2.2-0.3c0.5-1.2-0.2-2.9-1-4.7l1.6-1.2l0.1,0C869.1,318.4,869.6,320,869.6,321.1z"/>
	<path class="st8" d="M878.9,318.6c0.8,1.1,1.2,2.2,1.2,3.2c0,2.1-1.2,3-4.4,3h-3.2l0.1-1.8c1.5-1.1,3.2-2.4,4.3-4.2
		c-1.6-1.7-3.8-3.3-5.5-4.5l0.7-1.9l0.1-0.1c2.2,1.8,4.1,3.4,5.4,4.9c0.4-0.9,0.6-1.9,0.6-3c0-1.9-0.5-4.2-0.7-4.9l1.7-0.9l0.2,0
		c0.2,1.1,0.7,3.6,0.7,5.2C880.2,315.6,879.7,317.2,878.9,318.6z M877.9,320.1c-1,1.3-2.2,2.3-3,2.9h0.9c1.8,0,2.6-0.2,3-0.5
		C878.8,321.7,878.5,320.9,877.9,320.1z"/>
	<path class="st8" d="M883.4,324.9v-16l1.8-0.5l0.1,0.1l0,16.1l-1.7,0.4L883.4,324.9z"/>
	<path class="st8" d="M900.9,324.4c-2.7,0.3-4.5,0.4-7.6,0.6l-0.1-1.7c0.7,0,1.3,0,2-0.1c-0.5-0.6-0.7-1.5-0.7-2.3
		c0-1.8,1.4-3.2,3.3-3.2c0.8,0,1.8,0.2,2.5,0.6l-0.5,1.7c-0.6-0.2-1.3-0.4-1.9-0.4c-1,0-1.6,0.6-1.6,1.6c0,0.7,0.4,1.4,0.9,1.9
		c1.4-0.1,2.6-0.2,3.6-0.3L900.9,324.4z"/>
	<path class="st8" d="M903.6,320.8v-12l1.7-0.4l0.1,0.1v12.1c0,1.9,0.8,2.3,2.8,2.3c0.8,0,1,0.3,1,0.6c0,0.4-0.2,1.2-1.5,1.2
		C905.4,324.8,903.6,324,903.6,320.8z"/>
	<path class="st8" d="M919.1,322.5l-0.6,1.7c-1.9,0.4-4.7,0.6-10.8,0.6l0.5-1.9c0.9,0,1.8,0,2.7,0c-0.6-0.9-1-2-1-3.1
		c0-2.5,2-4,4.6-4c1.2,0,2.4,0.4,3.2,0.8l-0.2,1.7l-0.1,0c-0.9-0.4-1.9-0.6-2.9-0.6c-1.6,0-2.6,0.8-2.6,2.1c0,0.9,0.5,2.1,1.4,3
		c2.1-0.1,3.9-0.2,5.6-0.4L919.1,322.5z"/>
	<path class="st8" d="M921.2,324.6l0.3-1.8l0.1-0.1c0.7,0.2,2.1,0.2,2.6,0.2c1.6,0,3.5-0.3,4-0.9c-0.3-1.9-1.9-4-3.7-5.8l1-1.8h0.2
		c2.4,2.6,4.1,5,4.1,6.9c0,2.4-2,3.5-5.7,3.5C923.5,324.9,922.1,324.9,921.2,324.6z"/>
</g>
<path class="st11" d="M1024,42.8h-11.1v-6.6c0-1.7-1.1-3-2.6-3.5c1.4-1.1,2.3-2.9,2.3-4.8c0-3.4-2.8-6.2-6.2-6.2
	c-1,0-1.9,0.2-2.8,0.7c0.4-1.1,0.5-2.2,0.5-3.4c0-6.2-5-11.2-11.2-11.2c-6.2,0-11.2,5-11.2,11.2c0,1.2,0.2,2.4,0.5,3.4
	c-0.8-0.4-1.8-0.7-2.8-0.7c-3.4,0-6.2,2.8-6.2,6.2c0,1.9,0.9,3.6,2.3,4.8c-1.5,0.4-2.6,1.8-2.6,3.5v6.6h-10h-10v-6.6
	c0-1.7-1.1-3-2.6-3.5c1.4-1.1,2.3-2.9,2.3-4.8c0-3.4-2.8-6.2-6.2-6.2c-1,0-1.9,0.2-2.8,0.7c0.4-1.1,0.5-2.2,0.5-3.4
	c0-6.2-5-11.2-11.2-11.2c-6.2,0-11.2,5-11.2,11.2c0,1.2,0.2,2.4,0.5,3.4c-0.8-0.4-1.8-0.7-2.8-0.7c-3.4,0-6.2,2.8-6.2,6.2
	c0,1.9,0.9,3.6,2.3,4.8c-1.5,0.4-2.6,1.8-2.6,3.5v6.6h-10h-10v-6.6c0-1.7-1.1-3-2.6-3.5c1.4-1.1,2.3-2.9,2.3-4.8
	c0-3.4-2.8-6.2-6.2-6.2c-1,0-1.9,0.2-2.8,0.7c0.4-1.1,0.5-2.2,0.5-3.4c0-6.2-5-11.2-11.2-11.2c-6.2,0-11.2,5-11.2,11.2
	c0,1.2,0.2,2.4,0.5,3.4c-0.8-0.4-1.8-0.7-2.8-0.7c-3.4,0-6.2,2.8-6.2,6.2c0,1.9,0.9,3.6,2.3,4.8c-1.5,0.4-2.6,1.8-2.6,3.5v6.6h-10
	h-10v-6.6c0-1.7-1.1-3-2.6-3.5c1.4-1.1,2.3-2.9,2.3-4.8c0-3.4-2.8-6.2-6.2-6.2c-1,0-1.9,0.2-2.8,0.7c0.4-1.1,0.5-2.2,0.5-3.4
	c0-6.2-5-11.2-11.2-11.2c-6.2,0-11.2,5-11.2,11.2c0,1.2,0.2,2.4,0.5,3.4c-0.8-0.4-1.8-0.7-2.8-0.7c-3.4,0-6.2,2.8-6.2,6.2
	c0,1.9,0.9,3.6,2.3,4.8c-1.5,0.4-2.6,1.8-2.6,3.5v6.6h-10h-10v-6.6c0-1.7-1.1-3-2.6-3.5c1.4-1.1,2.3-2.9,2.3-4.8
	c0-3.4-2.8-6.2-6.2-6.2c-1,0-1.9,0.2-2.8,0.7c0.4-1.1,0.5-2.2,0.5-3.4c0-6.2-5-11.2-11.2-11.2c-6.2,0-11.2,5-11.2,11.2
	c0,1.2,0.2,2.4,0.5,3.4c-0.8-0.4-1.8-0.7-2.8-0.7c-3.4,0-6.2,2.8-6.2,6.2c0,1.9,0.9,3.6,2.3,4.8c-1.5,0.4-2.6,1.8-2.6,3.5v6.6h-10
	h-10v-6.6c0-1.7-1.1-3-2.6-3.5c1.4-1.1,2.3-2.9,2.3-4.8c0-3.4-2.8-6.2-6.2-6.2c-1,0-1.9,0.2-2.8,0.7c0.4-1.1,0.5-2.2,0.5-3.4
	c0-6.2-5-11.2-11.2-11.2c-6.2,0-11.2,5-11.2,11.2c0,1.2,0.2,2.4,0.5,3.4c-0.8-0.4-1.8-0.7-2.8-0.7c-3.4,0-6.2,2.8-6.2,6.2
	c0,1.9,0.9,3.6,2.3,4.8c-1.5,0.4-2.6,1.8-2.6,3.5v6.6h-10h-10v-6.6c0-1.7-1.1-3-2.6-3.5c1.4-1.1,2.3-2.9,2.3-4.8
	c0-3.4-2.8-6.2-6.2-6.2c-1,0-1.9,0.2-2.8,0.7c0.4-1.1,0.5-2.2,0.5-3.4c0-6.2-5-11.2-11.2-11.2c-6.2,0-11.2,5-11.2,11.2
	c0,1.2,0.2,2.4,0.5,3.4c-0.8-0.4-1.8-0.7-2.8-0.7c-3.4,0-6.2,2.8-6.2,6.2c0,1.9,0.9,3.6,2.3,4.8c-1.5,0.4-2.6,1.8-2.6,3.5v6.6h-10
	h-10v-6.6c0-1.7-1.1-3-2.6-3.5c1.4-1.1,2.3-2.9,2.3-4.8c0-3.4-2.8-6.2-6.2-6.2c-1,0-1.9,0.2-2.8,0.7c0.4-1.1,0.5-2.2,0.5-3.4
	c0-6.2-5-11.2-11.2-11.2c-6.2,0-11.2,5-11.2,11.2c0,1.2,0.2,2.4,0.5,3.4c-0.8-0.4-1.8-0.7-2.8-0.7c-3.4,0-6.2,2.8-6.2,6.2
	c0,1.9,0.9,3.6,2.3,4.8c-1.5,0.4-2.6,1.8-2.6,3.5v6.6h-10h-10v-6.6c0-1.7-1.1-3-2.6-3.5c1.4-1.1,2.3-2.9,2.3-4.8
	c0-3.4-2.8-6.2-6.2-6.2c-1,0-1.9,0.2-2.8,0.7c0.4-1.1,0.5-2.2,0.5-3.4c0-6.2-5-11.2-11.2-11.2c-6.2,0-11.2,5-11.2,11.2
	c0,1.2,0.2,2.4,0.5,3.4c-0.8-0.4-1.8-0.7-2.8-0.7c-3.4,0-6.2,2.8-6.2,6.2c0,1.9,0.9,3.6,2.3,4.8c-1.5,0.4-2.6,1.8-2.6,3.5v6.6h-10
	h-10v-6.6c0-1.7-1.1-3-2.6-3.5c1.4-1.1,2.3-2.9,2.3-4.8c0-3.4-2.8-6.2-6.2-6.2c-1,0-1.9,0.2-2.8,0.7c0.4-1.1,0.5-2.2,0.5-3.4
	c0-6.2-5-11.2-11.2-11.2c-6.2,0-11.2,5-11.2,11.2c0,1.2,0.2,2.4,0.5,3.4c-0.8-0.4-1.8-0.7-2.8-0.7c-3.4,0-6.2,2.8-6.2,6.2
	c0,1.9,0.9,3.6,2.3,4.8c-1.5,0.4-2.6,1.8-2.6,3.5v6.6h-10h-10v-6.6c0-1.7-1.1-3-2.6-3.5c1.4-1.1,2.3-2.9,2.3-4.8
	c0-3.4-2.8-6.2-6.2-6.2c-1,0-1.9,0.2-2.8,0.7c0.4-1.1,0.5-2.2,0.5-3.4c0-6.2-5-11.2-11.2-11.2c-6.2,0-11.2,5-11.2,11.2
	c0,1.2,0.2,2.4,0.5,3.4c-0.8-0.4-1.8-0.7-2.8-0.7c-3.4,0-6.2,2.8-6.2,6.2c0,1.9,0.9,3.6,2.3,4.8c-1.5,0.4-2.6,1.8-2.6,3.5v6.6h-10
	h-10v-6.6c0-1.7-1.1-3-2.6-3.5c1.4-1.1,2.3-2.9,2.3-4.8c0-3.4-2.8-6.2-6.2-6.2c-1,0-1.9,0.2-2.8,0.7c0.4-1.1,0.5-2.2,0.5-3.4
	c0-6.2-5-11.2-11.2-11.2c-6.2,0-11.2,5-11.2,11.2c0,1.2,0.2,2.4,0.5,3.4c-0.8-0.4-1.8-0.7-2.8-0.7c-3.4,0-6.2,2.8-6.2,6.2
	c0,1.9,0.9,3.6,2.3,4.8c-1.5,0.4-2.6,1.8-2.6,3.5v6.6h-10h-10v-6.6c0-1.7-1.1-3-2.6-3.5c1.4-1.1,2.3-2.9,2.3-4.8
	c0-3.4-2.8-6.2-6.2-6.2c-1,0-1.9,0.2-2.8,0.7c0.4-1.1,0.5-2.2,0.5-3.4c0-6.2-5-11.2-11.2-11.2c-6.2,0-11.2,5-11.2,11.2
	c0,1.2,0.2,2.4,0.5,3.4c-0.8-0.4-1.8-0.7-2.8-0.7c-3.4,0-6.2,2.8-6.2,6.2c0,1.9,0.9,3.6,2.3,4.8c-1.5,0.4-2.6,1.8-2.6,3.5v6.6h-10
	h-10v-6.6c0-1.7-1.1-3-2.6-3.5c1.4-1.1,2.3-2.9,2.3-4.8c0-3.4-2.8-6.2-6.2-6.2c-1,0-1.9,0.2-2.8,0.7c0.4-1.1,0.5-2.2,0.5-3.4
	c0-6.2-5-11.2-11.2-11.2c-6.2,0-11.2,5-11.2,11.2c0,1.2,0.2,2.4,0.5,3.4c-0.8-0.4-1.8-0.7-2.8-0.7c-3.4,0-6.2,2.8-6.2,6.2
	c0,1.9,0.9,3.6,2.3,4.8c-1.5,0.4-2.6,1.8-2.6,3.5v6.6h-10h-10v-6.6c0-1.7-1.1-3-2.6-3.5c1.4-1.1,2.3-2.9,2.3-4.8
	c0-3.4-2.8-6.2-6.2-6.2c-1,0-1.9,0.2-2.8,0.7c0.4-1.1,0.5-2.2,0.5-3.4c0-6.2-5-11.2-11.2-11.2c-6.2,0-11.2,5-11.2,11.2
	c0,1.2,0.2,2.4,0.5,3.4c-0.8-0.4-1.8-0.7-2.8-0.7c-3.4,0-6.2,2.8-6.2,6.2c0,1.9,0.9,3.6,2.3,4.8c-1.5,0.4-2.6,1.8-2.6,3.5v6.6h-10
	h-10v-6.6c0-1.7-1.1-3-2.6-3.5c1.4-1.1,2.3-2.9,2.3-4.8c0-3.4-2.8-6.2-6.2-6.2c-1,0-1.9,0.2-2.8,0.7c0.4-1.1,0.5-2.2,0.5-3.4
	c0-6.2-5-11.2-11.2-11.2c-6.2,0-11.2,5-11.2,11.2c0,1.2,0.2,2.4,0.5,3.4c-0.8-0.4-1.8-0.7-2.8-0.7c-3.4,0-6.2,2.8-6.2,6.2
	c0,1.9,0.9,3.6,2.3,4.8c-1.5,0.4-2.6,1.8-2.6,3.5v6.6h-10h-10v-6.6c0-1.7-1.1-3-2.6-3.5c1.4-1.1,2.3-2.9,2.3-4.8
	c0-3.4-2.8-6.2-6.2-6.2c-1,0-1.9,0.2-2.8,0.7c0.4-1.1,0.5-2.2,0.5-3.4c0-6.2-5-11.2-11.2-11.2c-6.2,0-11.2,5-11.2,11.2
	c0,1.2,0.2,2.4,0.5,3.4c-0.8-0.4-1.8-0.7-2.8-0.7c-3.4,0-6.2,2.8-6.2,6.2c0,1.9,0.9,3.6,2.3,4.8c-1.5,0.4-2.6,1.8-2.6,3.5v6.6H0V-1
	h1024V42.8z"/>
<g id="Layer_x0020_1_10_">
	<path class="st12" d="M34.9,718.8l43.9-1.7c0.3,0,0.6,0,1,0c0.7,0.1,1.3,0.4,1.8,0.9c0.5,0.5,0.9,1,0.9,1.7c0,0.2,0,0.5,0,0.8
		l-4.6,20.6c-0.2,0.9-0.6,1.7-1.3,2.2c-0.6,0.5-1.4,0.9-2.4,0.9L39,743c-1,0-1.7-0.3-2.4-0.9l0,0c-0.6-0.6-1.1-1.4-1.3-2.2
		l-4.1-17.7c0-0.1,0-0.1,0-0.2c-0.1-0.8,0.3-1.5,0.9-2.1c0.6-0.5,1.4-0.8,2.3-1C34.6,718.9,34.7,718.8,34.9,718.8z M76.9,719.9
		l-42,1.5c-0.1,0-0.2,0-0.3,0c-0.6,0.1-1.1,0.3-1.5,0.7c-0.3,0.3-0.6,0.7-0.5,1.1c0,0,0,0.1,0,0.1l3.8,16.5c0.1,0.6,0.4,1.2,0.9,1.6
		c0.4,0.3,0.8,0.5,1.4,0.5l34,1.2c0.6,0,1-0.2,1.4-0.5c0.4-0.4,0.7-0.9,0.9-1.6l4.3-19.3c0-0.1,0-0.3,0-0.4c0-0.3-0.2-0.7-0.5-0.9
		c-0.3-0.3-0.7-0.5-1.1-0.5C77.2,719.9,77.1,719.9,76.9,719.9z"/>
	<path class="st12" d="M41.9,723.5l12.9-1.4c0.1,0,0.3,0,0.4,0c0.3,0.1,0.6,0.2,0.8,0.4c0.2,0.2,0.4,0.5,0.4,0.8c0,0.1,0,0.2,0,0.3
		l-2.1,9.6c-0.1,0.4-0.3,0.8-0.6,1c-0.3,0.3-0.6,0.4-1.1,0.4h-8.9c-0.4,0-0.8-0.2-1.1-0.4h0c-0.3-0.3-0.5-0.6-0.6-1l-1.9-8.2
		c0,0,0-0.1,0-0.1c-0.1-0.4,0.1-0.7,0.4-1c0.3-0.2,0.7-0.4,1-0.5C41.8,723.5,41.8,723.5,41.9,723.5z M53.9,723.4l-12,1.3
		c0,0-0.1,0-0.1,0c-0.3,0-0.5,0.2-0.7,0.3c-0.2,0.1-0.3,0.3-0.2,0.5c0,0,0,0,0,0l1.8,7.6c0.1,0.3,0.2,0.5,0.4,0.7
		c0.2,0.1,0.4,0.2,0.6,0.2h8.3c0.3,0,0.5-0.1,0.6-0.2c0.2-0.2,0.3-0.4,0.4-0.7l2-8.9c0-0.1,0-0.1,0-0.2c0-0.2-0.1-0.3-0.2-0.4
		c-0.1-0.1-0.3-0.2-0.5-0.2C54.1,723.4,54,723.4,53.9,723.4z"/>
	<g id="_1849662416_10_">
		<path class="st13" d="M60.4,735.7l0.4-0.7l-0.7-0.4l0.4-0.7L59,733l-0.9,1.5l0,0c0.3,0.1,0.5,0.3,0.7,0.4l-0.4,0.7l0.7,0.4
			l-0.8,1.5l0.7,0.4c-0.2,0.5-0.6,1.1-0.9,1.5l0,0c0.2,0.1,0.4,0.2,0.5,0.3c0.3,0.1,0.2,0.1,0,0.5c-0.2,0.4-0.4,0.8-0.7,1.1l0.7,0.4
			c0,0.2-0.7,1.2-0.8,1.5l5.9,3.4l0.9-1.5l0.8,0.4l1.3-2.2l0.7,0.4l3-5.2c-0.1-0.1-0.7-0.4-0.7-0.5c0-0.2,0.4-0.6,0.4-0.7
			c-0.1-0.1-0.5-0.4-0.7-0.4l-1.3,2.2l-0.7-0.4l1.7-3l-1.5-0.9l-1.3,2.2l-0.7-0.4l1.7-2.9c-0.1-0.1-1.3-0.8-1.5-0.9l-1.7,3l-0.7-0.4
			c0-0.1,0.1-0.1,0.1-0.2c1.2-2.1,2.5-4.3,3.7-6.5l-1.5-0.8l-4.7,8.1C60.9,736.1,60.4,735.7,60.4,735.7L60.4,735.7z"/>
		<path class="st14" d="M58.2,739.4c-0.1,0.1-0.1,0.2-0.2,0.3l-0.7,1.1c0.1,0.1,0.2,0.1,0.4,0.2c0.1,0.1,0.2,0.1,0.3,0.2
			c-0.4,0.8-0.8,1.5-1.2,2.2c0.6,0.4,1.2,0.7,1.8,1.1l3.7,2.2c0.6,0.4,1.3,0.7,1.9,1.1c0.1-0.2,0.1-0.3,0.3-0.5
			c0.1-0.2,0.4-0.6,0.5-0.9c0.1-0.1,0.1-0.1,0.2-0.3c0.1-0.2,0.2-0.4,0.3-0.6c0.1,0.2,0.5,0.3,0.7,0.4c0.4-0.7,0.8-1.4,1.3-2.2
			c0.2,0.1,0.4,0.2,0.6,0.3c0.1,0.1,0.1,0.1,0.2,0c0.2-0.3,0.3-0.6,0.5-0.9c0.3-0.6,0.7-1.1,1-1.7l1.4-2.5c-0.2-0.1-0.6-0.3-0.7-0.4
			l-3,5.2l-0.7-0.4l-1.3,2.2l-0.8-0.4l-0.9,1.5l-5.9-3.4c0.1-0.3,0.8-1.3,0.8-1.5l-0.7-0.4c0.2-0.4,0.4-0.8,0.7-1.1
			c0.2-0.4,0.2-0.3,0-0.5C58.6,739.6,58.4,739.5,58.2,739.4z"/>
		<path class="st14" d="M60.5,733.8l-0.4,0.7l0.7,0.4l-0.4,0.7l0.7,0.4l4.7-8.1l-0.7-0.4c0,0,0,0,0,0l0,0c0,0,0,0,0,0l-3.8,6.6
			C61,734,60.7,733.9,60.5,733.8z"/>
		<path class="st14" d="M67.3,728.9l-3.9,6.6l0.7,0.4l1.7-3c0.2,0,1.4,0.8,1.5,0.9c0.2,0.2,1.6,0.9,1.9,1.1c0,0,0.1,0-0.1-0.1
			l-1.5-0.8c-0.4-0.2-0.3-0.1,0.1-0.9l-1.1-0.6c-0.1-0.1-0.2-0.1-0.3-0.2l1.7-2.9c-0.2-0.1-0.3-0.2-0.6-0.4
			C67.4,728.9,67.4,728.9,67.3,728.9z"/>
		<path class="st14" d="M69.2,735.9l0.4-0.7c-0.1-0.1-0.2-0.2-0.4-0.2c-0.3-0.2-1.7-0.9-1.9-1.1l-1.7,2.9l0.7,0.4l1.3-2.2
			L69.2,735.9z"/>
		<path class="st14" d="M58.1,734.5c-0.1,0.1-0.1,0.1-0.2,0.3c-0.1,0.1-0.1,0.3-0.2,0.4l0.7,0.4c-0.1,0.2-0.7,1.3-0.8,1.5l0.7,0.4
			l-0.6,1.1c-0.1,0.2-0.1,0.2-0.2,0.4l0.7,0.4c0.3-0.4,0.7-1,0.9-1.5l-0.7-0.4l0.8-1.5l-0.7-0.4l0.4-0.7
			C58.6,734.7,58.4,734.5,58.1,734.5z"/>
		<path class="st14" d="M58.1,734.4L59,733l1.5,0.8l0.2-0.4c0.1-0.1,0.1-0.2,0.2-0.4l-2-1.1c-0.3-0.2-0.2-0.2-0.5,0.2l-0.9,1.6
			c-0.1,0.2-0.2,0.2,0,0.3C57.6,734.2,58,734.4,58.1,734.4z"/>
		<path class="st14" d="M70.2,737.5c0.1,0,0,0,0.1-0.1c0,0,0.1-0.1,0.1-0.1c0-0.2,0.2-0.4,0.3-0.6l-1.5-0.8l-1.7,3l0.7,0.4l1.3-2.2
			C69.7,737.1,70.1,737.3,70.2,737.5z"/>
		<path class="st14" d="M67.3,728.8c0.1-0.2,0.3-0.5,0.4-0.7l-1.5-0.8l-0.4,0.7L67.3,728.8z"/>
		<path class="st14" d="M70.2,737.5c0,0.2-0.4,0.6-0.4,0.7c0,0.1,0.6,0.4,0.7,0.5c0.2,0.1,0.5,0.3,0.7,0.4l-1.4,2.5l1.5-2.5
			l-0.7-0.4c0.1-0.1,0.1-0.2,0.2-0.4c0.1-0.1,0.2-0.3,0.2-0.4c-0.8-0.5-0.8-0.3-0.6-0.6c0,0-0.1,0.1-0.1,0.1
			C70.2,737.5,70.3,737.5,70.2,737.5z"/>
	</g>
	<path class="st12" d="M94.9,735.7h-2.5l2.1-7.2l-4.3,7.2h-2.6l-0.5-7.3l-1.8,7.3h-2.6l2.9-10.9h3.5l0.5,7.7l4.6-7.7h3.5L94.9,735.7
		z M104.4,735.7h-5.6c-0.8,0-1.3-0.2-1.7-0.6c-0.4-0.4-0.4-1-0.2-1.8c0.3-0.9,0.7-1.6,1.3-2c0.6-0.4,1.5-0.6,2.6-0.6h2.5
		c0.1-0.4,0.1-0.7-0.1-0.8c-0.2-0.2-0.6-0.2-1.3-0.2h-3.6l0.5-2h4.3c1.1,0,1.9,0.3,2.3,0.8c0.4,0.5,0.5,1.3,0.2,2.3L104.4,735.7z
		 M102.4,733.7l0.3-1.2h-2.2c-0.4,0-0.7,0-0.9,0.1c-0.2,0.1-0.3,0.3-0.3,0.5c-0.1,0.2-0.1,0.3,0,0.4c0,0,0.1,0.1,0.2,0.1
		c0.1,0,0.3,0,0.5,0H102.4z M113.2,735.7h-2.4l1.3-4.9c0.1-0.5,0.2-0.8,0-1c-0.1-0.1-0.4-0.2-0.9-0.2h-1.4l-1.6,6.1h-2.4l2.2-8.1h4
		c1.2,0,2,0.2,2.4,0.7c0.4,0.5,0.5,1.2,0.2,2.3L113.2,735.7z M121.9,735.7h-2.4l1.3-4.9c0.1-0.5,0.1-0.8,0-0.9
		c-0.1-0.1-0.2-0.1-0.3-0.2c-0.1,0-0.3-0.1-0.6-0.1l-1.4,0l-1.6,6.1h-2.4l2.9-10.9h2.4l-0.8,2.8h1.6c1.2,0,2,0.2,2.4,0.7
		c0.4,0.5,0.5,1.2,0.2,2.3L121.9,735.7z M131.1,735.7h-5.6c-0.8,0-1.3-0.2-1.7-0.6c-0.4-0.4-0.4-1-0.2-1.8c0.3-0.9,0.7-1.6,1.3-2
		c0.6-0.4,1.5-0.6,2.6-0.6h2.5c0.1-0.4,0.1-0.7-0.1-0.8c-0.2-0.2-0.6-0.2-1.3-0.2h-3.6l0.5-2h4.3c1.1,0,1.9,0.3,2.3,0.8
		c0.4,0.5,0.5,1.3,0.2,2.3L131.1,735.7z M129.2,733.7l0.3-1.2h-2.2c-0.4,0-0.7,0-0.9,0.1c-0.2,0.1-0.3,0.3-0.3,0.5
		c-0.1,0.2,0,0.3,0,0.4c0,0,0.1,0.1,0.2,0.1c0.1,0,0.3,0,0.5,0H129.2z M135,735.7h-2.5l2.9-10.9h2.5L135,735.7z M140.6,735.7h-2.1
		l0.6-2.2h2.1L140.6,735.7z M148.4,735.7h-2.9c-0.4,0-0.7,0-1-0.1c-0.3,0-0.5-0.1-0.8-0.2c-0.4-0.1-0.8-0.4-1-0.8
		c-0.1-0.2-0.2-0.4-0.3-0.6c-0.1-0.2-0.2-0.5-0.2-0.7c0-0.3,0-0.5,0-0.8c0-0.3,0.1-0.6,0.2-0.9c0.2-0.6,0.4-1.2,0.8-1.7
		c0.3-0.5,0.7-1,1.3-1.4c0.4-0.3,0.9-0.6,1.4-0.7c0.5-0.2,1.1-0.2,1.9-0.2h2.9l-0.5,2h-2.3c-0.5,0-0.9,0-1.2,0.1
		c-0.3,0.1-0.6,0.2-0.8,0.4c-0.4,0.3-0.7,0.8-0.9,1.6c-0.1,0.4-0.1,0.8-0.1,1.1c0.1,0.3,0.1,0.6,0.4,0.7l0.4,0.2c0.1,0,0.3,0,0.4,0
		c0.1,0,0.4,0,0.6,0h2.3L148.4,735.7z M158.5,731.6c-0.3,1.3-1,2.3-2,3.1c-1,0.8-2.1,1.1-3.4,1.1c-1.3,0-2.2-0.4-2.8-1.1
		c-0.6-0.8-0.7-1.8-0.3-3.1c0.3-1.3,1-2.3,2-3c1-0.8,2.1-1.1,3.4-1.1c1.3,0,2.2,0.4,2.8,1.1C158.7,729.3,158.8,730.3,158.5,731.6z
		 M156,731.6c0.2-0.7,0.1-1.2-0.1-1.6c-0.2-0.4-0.6-0.6-1.1-0.6c-0.5,0-1,0.2-1.4,0.6c-0.4,0.4-0.7,0.9-0.9,1.6
		c-0.1,0.4-0.1,0.7-0.1,0.9c0,0.3,0.1,0.5,0.2,0.7c0.2,0.4,0.6,0.6,1.1,0.6c0.6,0,1-0.2,1.4-0.6C155.5,732.8,155.8,732.3,156,731.6z
		 M169.6,735.7h-2.4l1.3-4.9c0.1-0.5,0.2-0.8,0.1-1c-0.1-0.2-0.4-0.2-0.9-0.2l-0.9,0l-1.6,6.1h-2.4l1.6-6.1h-2l-1.6,6.1h-2.4
		l2.2-8.1h8c1.2,0,2,0.2,2.4,0.7c0.4,0.5,0.5,1.2,0.2,2.3L169.6,735.7z"/>
	<path class="st12" d="M27.9,727.6l21.2-2.2c0.2,0,0.5,0,0.7,0c0.5,0.1,1,0.3,1.4,0.7c0.4,0.3,0.6,0.8,0.7,1.3c0,0.2,0,0.4,0,0.6
		l-3.7,9.6c-0.1,0.7-0.5,1.3-1,1.7c-0.5,0.4-1.1,0.7-1.8,0.7H30.8c-0.7,0-1.3-0.3-1.8-0.7h0c-0.5-0.4-0.8-1.1-1-1.7l-2.9-7.4
		c0-0.1,0-0.1,0-0.2c-0.1-0.6,0.2-1.2,0.7-1.6c0.5-0.4,1.1-0.6,1.7-0.8C27.7,727.6,27.8,727.6,27.9,727.6z M47.6,727.5l-19.8,2.1
		c-0.1,0-0.2,0-0.2,0c-0.4,0.1-0.9,0.3-1.2,0.5c-0.3,0.2-0.4,0.5-0.4,0.8c0,0,0,0.1,0,0.1l2.7,6.5c0.1,0.5,0.3,0.9,0.7,1.2
		c0.3,0.2,0.6,0.4,1,0.4h13.6c0.4,0,0.8-0.1,1-0.4c0.3-0.3,0.5-0.7,0.7-1.2l3.4-8.6c0-0.1,0-0.2,0-0.3c0-0.3-0.2-0.5-0.4-0.7
		c-0.2-0.2-0.5-0.4-0.8-0.4C47.9,727.5,47.7,727.5,47.6,727.5z"/>
	<path class="st12" d="M87.6,721.3l-0.5,1.7h-0.6l1.2-4.5H89c0.3,0,0.5,0,0.7,0.1c0.2,0.1,0.3,0.2,0.4,0.3c0.1,0.1,0.2,0.3,0.2,0.4
		c0,0.2,0,0.4-0.1,0.6c-0.1,0.2-0.1,0.4-0.3,0.6c-0.1,0.2-0.3,0.3-0.4,0.4c-0.2,0.1-0.4,0.2-0.6,0.3c-0.2,0.1-0.5,0.1-0.7,0.1H87.6z
		 M87.7,720.8h0.7c0.2,0,0.3,0,0.5-0.1c0.1,0,0.3-0.1,0.4-0.2c0.1-0.1,0.2-0.2,0.3-0.3c0.1-0.1,0.1-0.2,0.2-0.4
		c0.1-0.3,0.1-0.5-0.1-0.7c-0.1-0.2-0.4-0.2-0.7-0.2h-0.7L87.7,720.8z"/>
	<path id="_x31__10_" class="st12" d="M92.2,719.7c0.2,0,0.4,0,0.6,0.1c0.2,0.1,0.3,0.2,0.4,0.3c0.1,0.1,0.1,0.3,0.2,0.5
		c0,0.2,0,0.4-0.1,0.7c-0.1,0.3-0.2,0.5-0.3,0.7c-0.1,0.2-0.3,0.4-0.4,0.5c-0.2,0.1-0.4,0.3-0.6,0.3c-0.2,0.1-0.4,0.1-0.7,0.1
		c-0.2,0-0.4,0-0.6-0.1c-0.2-0.1-0.3-0.2-0.4-0.3c-0.1-0.1-0.1-0.3-0.2-0.5c0-0.2,0-0.4,0.1-0.7c0.1-0.3,0.2-0.5,0.3-0.7
		c0.1-0.2,0.3-0.4,0.4-0.5c0.2-0.1,0.4-0.3,0.6-0.3C91.8,719.8,92,719.7,92.2,719.7z M91.5,722.6c0.3,0,0.6-0.1,0.8-0.3
		c0.2-0.2,0.4-0.5,0.5-0.9c0.1-0.4,0.1-0.7,0-0.9c-0.1-0.2-0.3-0.3-0.6-0.3c-0.2,0-0.3,0-0.4,0.1c-0.1,0.1-0.3,0.1-0.4,0.2
		c-0.1,0.1-0.2,0.2-0.3,0.4c-0.1,0.1-0.1,0.3-0.2,0.5c0,0.2-0.1,0.4-0.1,0.5c0,0.1,0,0.3,0.1,0.4c0.1,0.1,0.1,0.2,0.2,0.2
		C91.2,722.6,91.3,722.6,91.5,722.6z"/>
	<path id="_x32__10_" class="st12" d="M94,719.8h0.4c0,0,0.1,0,0.1,0c0,0,0,0,0,0.1l0.1,2c0,0.1,0,0.1,0,0.2c0,0.1,0,0.1,0,0.2
		c0-0.1,0.1-0.1,0.1-0.2c0-0.1,0.1-0.1,0.1-0.2l1.2-2.1c0,0,0-0.1,0.1-0.1c0,0,0.1,0,0.1,0h0.2c0,0,0.1,0,0.1,0c0,0,0,0,0,0.1
		l0.1,2.1c0,0.1,0,0.1,0,0.2c0,0.1,0,0.1,0,0.2c0-0.1,0.1-0.1,0.1-0.2c0-0.1,0.1-0.1,0.1-0.2l1.2-2c0,0,0-0.1,0.1-0.1
		c0,0,0.1,0,0.1,0h0.4l-1.9,3.2h-0.4c-0.1,0-0.1,0-0.1-0.1l-0.1-2.2c0,0,0-0.1,0-0.1c0-0.1,0-0.1,0-0.1c0,0,0,0.1-0.1,0.1
		c0,0,0,0.1-0.1,0.1l-1.3,2.2c0,0.1-0.1,0.1-0.2,0.1h-0.4L94,719.8z"/>
	<path id="_x33__10_" class="st12" d="M100.5,719.7c0.2,0,0.4,0,0.5,0.1c0.1,0.1,0.3,0.2,0.3,0.3c0.1,0.1,0.1,0.3,0.2,0.4
		c0,0.2,0,0.4-0.1,0.6c0,0.1,0,0.1-0.1,0.2c0,0-0.1,0-0.1,0h-2.1c-0.1,0.2-0.1,0.4-0.1,0.5c0,0.1,0,0.3,0.1,0.4
		c0.1,0.1,0.1,0.2,0.3,0.2c0.1,0,0.2,0.1,0.4,0.1c0.1,0,0.3,0,0.4,0c0.1,0,0.2-0.1,0.3-0.1c0.1,0,0.2-0.1,0.2-0.1
		c0.1,0,0.1-0.1,0.1-0.1c0,0,0.1,0,0.1,0.1l0.1,0.2c-0.1,0.1-0.2,0.2-0.3,0.2c-0.1,0.1-0.2,0.1-0.3,0.2c-0.1,0-0.2,0.1-0.4,0.1
		c-0.1,0-0.2,0-0.4,0c-0.2,0-0.4,0-0.6-0.1c-0.2-0.1-0.3-0.2-0.4-0.3c-0.1-0.1-0.2-0.3-0.2-0.5c0-0.2,0-0.5,0.1-0.7
		c0.1-0.2,0.1-0.4,0.3-0.6c0.1-0.2,0.3-0.4,0.4-0.5c0.2-0.1,0.4-0.3,0.6-0.3C100.1,719.8,100.3,719.7,100.5,719.7z M100.4,720.2
		c-0.3,0-0.5,0.1-0.7,0.2c-0.2,0.2-0.4,0.4-0.5,0.6h1.7c0-0.1,0.1-0.3,0-0.4c0-0.1,0-0.2-0.1-0.3c0-0.1-0.1-0.1-0.2-0.2
		C100.6,720.2,100.5,720.2,100.4,720.2z"/>
	<path id="_x34__10_" class="st12" d="M101.7,723l0.9-3.2h0.3c0.1,0,0.1,0,0.1,0c0,0,0,0.1,0,0.1l-0.1,0.5c0.2-0.2,0.4-0.4,0.5-0.5
		c0.2-0.1,0.4-0.2,0.6-0.2c0.1,0,0.2,0,0.2,0c0.1,0,0.1,0,0.2,0.1l-0.2,0.4c0,0.1-0.1,0.1-0.1,0.1c0,0-0.1,0-0.1,0
		c-0.1,0-0.1,0-0.2,0c-0.2,0-0.4,0.1-0.5,0.2c-0.2,0.1-0.3,0.3-0.5,0.5l-0.5,2H101.7z"/>
	<path id="_x35__10_" class="st12" d="M106.3,719.7c0.2,0,0.4,0,0.5,0.1c0.1,0.1,0.3,0.2,0.3,0.3c0.1,0.1,0.1,0.3,0.2,0.4
		c0,0.2,0,0.4-0.1,0.6c0,0.1,0,0.1-0.1,0.2c0,0-0.1,0-0.1,0H105c-0.1,0.2-0.1,0.4-0.1,0.5c0,0.1,0,0.3,0.1,0.4
		c0.1,0.1,0.1,0.2,0.3,0.2c0.1,0,0.2,0.1,0.4,0.1c0.1,0,0.3,0,0.4,0c0.1,0,0.2-0.1,0.3-0.1c0.1,0,0.2-0.1,0.2-0.1
		c0.1,0,0.1-0.1,0.1-0.1c0,0,0.1,0,0.1,0.1l0.1,0.2c-0.1,0.1-0.2,0.2-0.3,0.2c-0.1,0.1-0.2,0.1-0.3,0.2c-0.1,0-0.2,0.1-0.4,0.1
		c-0.1,0-0.2,0-0.4,0c-0.2,0-0.4,0-0.6-0.1c-0.2-0.1-0.3-0.2-0.4-0.3c-0.1-0.1-0.2-0.3-0.2-0.5c0-0.2,0-0.5,0.1-0.7
		c0.1-0.2,0.2-0.4,0.3-0.6c0.1-0.2,0.3-0.4,0.4-0.5c0.2-0.1,0.4-0.3,0.6-0.3C105.9,719.8,106.1,719.7,106.3,719.7z M106.2,720.2
		c-0.3,0-0.5,0.1-0.7,0.2c-0.2,0.2-0.4,0.4-0.5,0.6h1.7c0-0.1,0-0.3,0-0.4c0-0.1,0-0.2-0.1-0.3c0-0.1-0.1-0.1-0.2-0.2
		C106.5,720.2,106.4,720.2,106.2,720.2z"/>
	<path id="_x36__10_" class="st12" d="M109.7,723c-0.1,0-0.1,0-0.1-0.1l0.1-0.4c-0.2,0.2-0.4,0.3-0.6,0.4c-0.2,0.1-0.4,0.1-0.6,0.1
		c-0.2,0-0.3,0-0.5-0.1c-0.1-0.1-0.2-0.2-0.3-0.3c-0.1-0.1-0.1-0.3-0.1-0.5c0-0.2,0-0.4,0.1-0.7c0.1-0.2,0.2-0.5,0.3-0.7
		c0.1-0.2,0.3-0.4,0.4-0.5c0.2-0.2,0.3-0.3,0.5-0.4c0.2-0.1,0.4-0.1,0.6-0.1c0.2,0,0.4,0,0.5,0.1c0.1,0.1,0.2,0.2,0.3,0.3l0.5-1.8
		h0.6l-1.2,4.6H109.7z M108.8,722.6c0.2,0,0.4,0,0.5-0.1c0.2-0.1,0.3-0.2,0.5-0.4l0.4-1.5c-0.1-0.1-0.2-0.2-0.3-0.3
		c-0.1-0.1-0.2-0.1-0.4-0.1c-0.3,0-0.6,0.1-0.8,0.3c-0.2,0.2-0.4,0.5-0.5,0.9c-0.1,0.2-0.1,0.4-0.1,0.5c0,0.1,0,0.3,0.1,0.4
		c0,0.1,0.1,0.2,0.2,0.2C108.5,722.5,108.6,722.6,108.8,722.6z"/>
	<path id="_x37__10_" class="st12" d="M112.2,723l1.2-4.6h0.6l-0.5,1.9c0.2-0.2,0.4-0.3,0.6-0.4c0.2-0.1,0.4-0.1,0.6-0.1
		c0.2,0,0.3,0,0.5,0.1c0.1,0.1,0.2,0.2,0.3,0.3c0.1,0.1,0.1,0.3,0.1,0.5c0,0.2,0,0.4-0.1,0.7c-0.1,0.2-0.2,0.5-0.3,0.7
		c-0.1,0.2-0.3,0.4-0.4,0.5c-0.2,0.1-0.3,0.3-0.5,0.3c-0.2,0.1-0.4,0.1-0.6,0.1c-0.2,0-0.4,0-0.5-0.1c-0.1-0.1-0.2-0.2-0.3-0.3
		l-0.1,0.3c0,0.1-0.1,0.1-0.2,0.1H112.2z M114.4,720.2c-0.2,0-0.4,0-0.5,0.1c-0.2,0.1-0.3,0.2-0.5,0.4l-0.4,1.5
		c0.1,0.1,0.1,0.2,0.3,0.3c0.1,0.1,0.2,0.1,0.4,0.1c0.3,0,0.6-0.1,0.8-0.3c0.2-0.2,0.4-0.5,0.5-0.9c0.1-0.2,0.1-0.4,0.1-0.5
		c0-0.1,0-0.3-0.1-0.4c0-0.1-0.1-0.2-0.2-0.2C114.6,720.2,114.5,720.2,114.4,720.2z"/>
	<path id="_x38__10_" class="st12" d="M116.3,723.9c0,0-0.1,0.1-0.1,0.1c0,0-0.1,0-0.1,0h-0.4l0.9-1.2l-0.5-3h0.5c0,0,0.1,0,0.1,0
		c0,0,0,0,0,0.1l0.3,2c0,0,0,0.1,0,0.1c0,0,0,0.1,0,0.1c0,0,0.1-0.1,0.1-0.1c0,0,0.1-0.1,0.1-0.1l1.4-2c0,0,0.1-0.1,0.1-0.1
		c0,0,0.1,0,0.1,0h0.4L116.3,723.9z"/>
	<path id="_x39__10_" class="st12" d="M118.9,722.6c0-0.1,0-0.1,0.1-0.2c0-0.1,0.1-0.1,0.1-0.1c0,0,0.1-0.1,0.1-0.1
		c0.1,0,0.1,0,0.2,0c0.1,0,0.1,0,0.1,0c0,0,0.1,0,0.1,0.1c0,0,0,0.1,0.1,0.1c0,0,0,0.1,0,0.2c0,0.1,0,0.1-0.1,0.2
		c0,0-0.1,0.1-0.1,0.1c0,0-0.1,0.1-0.1,0.1c-0.1,0-0.1,0-0.2,0c-0.1,0-0.1,0-0.1,0c0,0-0.1,0-0.1-0.1c0,0,0-0.1,0-0.1
		C118.9,722.7,118.9,722.7,118.9,722.6z M119.5,720.3c0-0.1,0-0.1,0.1-0.2c0,0,0.1-0.1,0.1-0.1c0,0,0.1-0.1,0.1-0.1
		c0.1,0,0.1,0,0.2,0c0.1,0,0.1,0,0.1,0c0,0,0.1,0,0.1,0.1c0,0,0,0.1,0.1,0.1c0,0,0,0.1,0,0.2c0,0.1,0,0.1-0.1,0.2
		c0,0-0.1,0.1-0.1,0.1c0,0-0.1,0.1-0.1,0.1c-0.1,0-0.1,0-0.2,0c-0.1,0-0.1,0-0.1,0c0,0-0.1,0-0.1-0.1c0,0,0-0.1,0-0.1
		C119.5,720.4,119.5,720.3,119.5,720.3z"/>
	<path class="st12" d="M126,738.1l-0.1,0.5h-2.3l-0.4,1.6h1.8l-0.1,0.5H123l-0.4,1.6h2.3l-0.1,0.5h-2.9l1.3-4.8H126z M126,740.6h1.6
		l-0.1,0.5h-1.6L126,740.6z M128.7,742.3h2.1l-0.1,0.5h-2.7l1.3-4.8h0.6L128.7,742.3z M133.4,739.4c0.2,0,0.4,0,0.5,0.1
		c0.2,0.1,0.3,0.2,0.4,0.3c0.1,0.1,0.1,0.3,0.2,0.5c0,0.2,0,0.4-0.1,0.6c0,0.1-0.1,0.2-0.1,0.2c0,0-0.1,0-0.1,0h-2.2
		c-0.1,0.2-0.1,0.4-0.1,0.6c0,0.2,0,0.3,0.1,0.4c0.1,0.1,0.2,0.2,0.3,0.2c0.1,0.1,0.3,0.1,0.4,0.1c0.1,0,0.3,0,0.4-0.1
		c0.1,0,0.2-0.1,0.3-0.1c0.1,0,0.2-0.1,0.2-0.1c0.1,0,0.1-0.1,0.1-0.1c0,0,0.1,0,0.1,0.1l0.1,0.2c-0.1,0.1-0.2,0.2-0.3,0.2
		c-0.1,0.1-0.2,0.1-0.4,0.2c-0.1,0-0.3,0.1-0.4,0.1c-0.1,0-0.3,0-0.4,0c-0.2,0-0.4,0-0.6-0.1c-0.2-0.1-0.3-0.2-0.4-0.3
		c-0.1-0.2-0.2-0.3-0.2-0.6c0-0.2,0-0.5,0.1-0.8c0.1-0.2,0.2-0.5,0.3-0.7c0.1-0.2,0.3-0.4,0.5-0.5c0.2-0.1,0.4-0.3,0.6-0.4
		C132.9,739.4,133.1,739.4,133.4,739.4z M133.3,739.8c-0.3,0-0.5,0.1-0.7,0.2c-0.2,0.2-0.4,0.4-0.5,0.7h1.8c0-0.1,0.1-0.3,0-0.4
		c0-0.1,0-0.2-0.1-0.3c-0.1-0.1-0.1-0.1-0.2-0.2C133.5,739.9,133.4,739.8,133.3,739.8z M137.1,742.8h-0.3c-0.1,0-0.1,0-0.1,0
		c0,0,0-0.1,0-0.1l0-0.3c-0.1,0.1-0.2,0.2-0.3,0.2c-0.1,0.1-0.2,0.1-0.3,0.2c-0.1,0-0.2,0.1-0.3,0.1c-0.1,0-0.2,0-0.4,0
		c-0.1,0-0.2,0-0.4-0.1c-0.1,0-0.2-0.1-0.3-0.2c-0.1-0.1-0.1-0.2-0.1-0.3c0-0.1,0-0.2,0-0.4c0-0.1,0.1-0.3,0.2-0.4
		c0.1-0.1,0.3-0.2,0.4-0.3c0.2-0.1,0.4-0.2,0.7-0.2c0.3-0.1,0.6-0.1,1-0.1l0.1-0.3c0.1-0.3,0.1-0.5,0-0.6c-0.1-0.1-0.2-0.2-0.4-0.2
		c-0.1,0-0.3,0-0.4,0.1c-0.1,0-0.2,0.1-0.3,0.1c-0.1,0-0.2,0.1-0.2,0.1c-0.1,0-0.1,0.1-0.2,0.1c0,0-0.1,0-0.1,0c0,0,0,0-0.1-0.1
		l-0.1-0.2c0.2-0.2,0.5-0.3,0.7-0.4c0.2-0.1,0.5-0.1,0.8-0.1c0.2,0,0.3,0,0.5,0.1c0.1,0.1,0.2,0.1,0.3,0.3c0.1,0.1,0.1,0.2,0.1,0.4
		c0,0.2,0,0.3-0.1,0.5L137.1,742.8z M135.6,742.5c0.1,0,0.2,0,0.3,0c0.1,0,0.2-0.1,0.3-0.1c0.1,0,0.2-0.1,0.3-0.1
		c0.1-0.1,0.2-0.1,0.3-0.2l0.2-0.7c-0.3,0-0.5,0-0.7,0.1c-0.2,0-0.4,0.1-0.5,0.1c-0.1,0.1-0.2,0.1-0.3,0.2c-0.1,0.1-0.1,0.2-0.1,0.3
		c0,0.1,0,0.2,0,0.2c0,0.1,0,0.1,0.1,0.2c0,0,0.1,0.1,0.1,0.1C135.5,742.4,135.6,742.5,135.6,742.5z M138,742.8l0.9-3.4h0.3
		c0.1,0,0.1,0,0.1,0c0,0,0,0.1,0,0.1l-0.1,0.6c0.2-0.2,0.4-0.4,0.6-0.6c0.2-0.1,0.4-0.2,0.6-0.2c0.1,0,0.2,0,0.2,0
		c0.1,0,0.1,0.1,0.2,0.1l-0.2,0.4c0,0.1-0.1,0.1-0.1,0.1c0,0-0.1,0-0.1,0c-0.1,0-0.1,0-0.3,0c-0.2,0-0.4,0.1-0.6,0.2
		c-0.2,0.1-0.3,0.3-0.5,0.5l-0.6,2.1H138z M140.7,742.8l0.9-3.4h0.4c0.1,0,0.1,0,0.1,0.1l-0.1,0.4c0.2-0.2,0.4-0.3,0.6-0.4
		c0.2-0.1,0.4-0.2,0.7-0.2c0.2,0,0.3,0,0.5,0.1c0.1,0.1,0.2,0.1,0.3,0.3c0.1,0.1,0.1,0.2,0.1,0.4c0,0.2,0,0.3-0.1,0.5l-0.6,2.1h-0.6
		l0.6-2.1c0.1-0.3,0.1-0.5,0-0.6c-0.1-0.1-0.2-0.2-0.5-0.2c-0.2,0-0.3,0-0.5,0.1c-0.2,0.1-0.3,0.2-0.5,0.3l-0.7,2.5H140.7z
		 M145.9,739.5l-0.9,3.4h-0.6l0.9-3.4H145.9z M146.3,738.4c0,0.1,0,0.1-0.1,0.2c0,0-0.1,0.1-0.1,0.1c0,0-0.1,0.1-0.2,0.1
		c-0.1,0-0.1,0-0.2,0c-0.1,0-0.1,0-0.2,0c0,0-0.1-0.1-0.1-0.1c0,0,0-0.1-0.1-0.1c0,0,0-0.1,0-0.2c0-0.1,0-0.1,0.1-0.2
		c0-0.1,0.1-0.1,0.1-0.1c0,0,0.1-0.1,0.2-0.1c0.1,0,0.1,0,0.2,0c0.1,0,0.1,0,0.2,0c0,0,0.1,0.1,0.1,0.1c0,0,0,0.1,0.1,0.1
		C146.3,738.3,146.3,738.3,146.3,738.4z M146,742.8l0.9-3.4h0.4c0.1,0,0.1,0,0.1,0.1l-0.1,0.4c0.2-0.2,0.4-0.3,0.6-0.4
		c0.2-0.1,0.4-0.2,0.7-0.2c0.2,0,0.3,0,0.5,0.1c0.1,0.1,0.2,0.1,0.3,0.3c0.1,0.1,0.1,0.2,0.1,0.4c0,0.2,0,0.3-0.1,0.5l-0.6,2.1h-0.6
		l0.6-2.1c0.1-0.3,0.1-0.5,0-0.6c-0.1-0.1-0.2-0.2-0.5-0.2c-0.2,0-0.3,0-0.5,0.1c-0.2,0.1-0.3,0.2-0.5,0.3l-0.7,2.5H146z
		 M151.8,739.4c0.1,0,0.3,0,0.4,0c0.1,0,0.2,0.1,0.3,0.1h0.9l-0.1,0.2c0,0.1-0.1,0.1-0.2,0.1l-0.4,0.1c0,0.1,0,0.3,0,0.5
		c0,0.2-0.1,0.3-0.2,0.4c-0.1,0.1-0.2,0.2-0.4,0.3c-0.1,0.1-0.3,0.2-0.5,0.2c-0.2,0-0.3,0.1-0.5,0.1c-0.2,0-0.3,0-0.4-0.1
		c-0.1,0-0.1,0.1-0.2,0.1c-0.1,0.1-0.1,0.1-0.1,0.2c0,0.1,0,0.1,0,0.2s0.1,0.1,0.2,0.1c0.1,0,0.2,0,0.4,0c0.1,0,0.3,0,0.4,0
		c0.1,0,0.3,0,0.4,0c0.1,0,0.2,0.1,0.3,0.1c0.1,0.1,0.2,0.1,0.2,0.2c0,0.1,0,0.2,0,0.4c0,0.1-0.1,0.3-0.2,0.4
		c-0.1,0.1-0.2,0.3-0.4,0.4c-0.2,0.1-0.3,0.2-0.6,0.3c-0.2,0.1-0.4,0.1-0.7,0.1c-0.2,0-0.5,0-0.6-0.1c-0.2,0-0.3-0.1-0.4-0.2
		c-0.1-0.1-0.2-0.2-0.2-0.3c0-0.1,0-0.2,0-0.3c0-0.2,0.1-0.3,0.3-0.4c0.1-0.1,0.3-0.2,0.5-0.3c-0.1,0-0.1-0.1-0.2-0.2
		c0-0.1,0-0.2,0-0.3c0,0,0-0.1,0.1-0.2c0-0.1,0.1-0.1,0.1-0.2c0-0.1,0.1-0.1,0.2-0.1c0.1,0,0.1-0.1,0.2-0.1
		c-0.1-0.1-0.2-0.2-0.3-0.4c-0.1-0.2-0.1-0.3,0-0.5c0-0.2,0.1-0.3,0.2-0.4c0.1-0.1,0.2-0.3,0.4-0.3c0.1-0.1,0.3-0.2,0.5-0.2
		C151.4,739.4,151.6,739.4,151.8,739.4z M151.9,743c0-0.1,0-0.2,0-0.2c0-0.1-0.1-0.1-0.2-0.1c-0.1,0-0.2,0-0.3-0.1
		c-0.1,0-0.2,0-0.3,0c-0.1,0-0.2,0-0.4,0c-0.1,0-0.2,0-0.3,0c-0.1,0.1-0.3,0.1-0.4,0.2c-0.1,0.1-0.2,0.2-0.2,0.3c0,0.1,0,0.1,0,0.2
		c0,0.1,0.1,0.1,0.1,0.2c0.1,0,0.2,0.1,0.3,0.1c0.1,0,0.3,0,0.4,0c0.2,0,0.3,0,0.4,0c0.1,0,0.3-0.1,0.4-0.1c0.1-0.1,0.2-0.1,0.3-0.2
		C151.8,743.2,151.8,743.1,151.9,743z M151.3,741.2c0.1,0,0.2,0,0.3,0c0.1,0,0.2-0.1,0.3-0.1c0.1-0.1,0.1-0.1,0.2-0.2
		c0.1-0.1,0.1-0.2,0.1-0.3c0.1-0.2,0-0.4-0.1-0.5c-0.1-0.1-0.3-0.2-0.5-0.2c-0.2,0-0.4,0.1-0.6,0.2c-0.2,0.1-0.3,0.3-0.3,0.5
		c0,0.1,0,0.2,0,0.3c0,0.1,0,0.2,0.1,0.2c0,0.1,0.1,0.1,0.2,0.1C151.1,741.2,151.2,741.2,151.3,741.2z M159,738.1l-0.1,0.5h-1.5
		l-1.1,4.2h-0.6l1.1-4.2h-1.5l0.1-0.5H159z M159.9,739.4c0.2,0,0.4,0,0.5,0.1c0.2,0.1,0.3,0.2,0.4,0.3c0.1,0.1,0.1,0.3,0.2,0.5
		c0,0.2,0,0.4-0.1,0.6c0,0.1,0,0.2-0.1,0.2c0,0-0.1,0-0.1,0h-2.2c-0.1,0.2-0.1,0.4-0.1,0.6c0,0.2,0,0.3,0.1,0.4
		c0.1,0.1,0.2,0.2,0.3,0.2c0.1,0.1,0.2,0.1,0.4,0.1c0.1,0,0.3,0,0.4-0.1c0.1,0,0.2-0.1,0.3-0.1c0.1,0,0.2-0.1,0.2-0.1
		c0.1,0,0.1-0.1,0.1-0.1c0,0,0.1,0,0.1,0.1l0.1,0.2c-0.1,0.1-0.2,0.2-0.3,0.2c-0.1,0.1-0.2,0.1-0.4,0.2c-0.1,0-0.3,0.1-0.4,0.1
		c-0.1,0-0.3,0-0.4,0c-0.2,0-0.4,0-0.6-0.1c-0.2-0.1-0.3-0.2-0.4-0.3c-0.1-0.2-0.2-0.3-0.2-0.6c0-0.2,0-0.5,0.1-0.8
		c0.1-0.2,0.2-0.5,0.3-0.7c0.1-0.2,0.3-0.4,0.5-0.5c0.2-0.1,0.4-0.3,0.6-0.4C159.4,739.4,159.6,739.4,159.9,739.4z M159.8,739.8
		c-0.3,0-0.5,0.1-0.7,0.2c-0.2,0.2-0.4,0.4-0.5,0.7h1.8c0-0.1,0-0.3,0-0.4c0-0.1,0-0.2-0.1-0.3c-0.1-0.1-0.1-0.1-0.2-0.2
		C160,739.9,159.9,739.8,159.8,739.8z M163.6,742.8h-0.3c-0.1,0-0.1,0-0.1,0c0,0,0-0.1,0-0.1l0-0.3c-0.1,0.1-0.2,0.2-0.3,0.2
		c-0.1,0.1-0.2,0.1-0.3,0.2c-0.1,0-0.2,0.1-0.3,0.1c-0.1,0-0.2,0-0.4,0c-0.1,0-0.2,0-0.4-0.1c-0.1,0-0.2-0.1-0.3-0.2
		c-0.1-0.1-0.1-0.2-0.1-0.3c0-0.1,0-0.2,0-0.4c0-0.1,0.1-0.3,0.2-0.4c0.1-0.1,0.3-0.2,0.4-0.3c0.2-0.1,0.4-0.2,0.7-0.2
		c0.3-0.1,0.6-0.1,1-0.1l0.1-0.3c0.1-0.3,0.1-0.5,0-0.6c-0.1-0.1-0.2-0.2-0.4-0.2c-0.1,0-0.3,0-0.4,0.1c-0.1,0-0.2,0.1-0.3,0.1
		c-0.1,0-0.2,0.1-0.2,0.1c-0.1,0-0.1,0.1-0.2,0.1c0,0-0.1,0-0.1,0c0,0,0,0-0.1-0.1l-0.1-0.2c0.2-0.2,0.5-0.3,0.7-0.4
		c0.2-0.1,0.5-0.1,0.7-0.1c0.2,0,0.3,0,0.5,0.1c0.1,0.1,0.2,0.1,0.3,0.3c0.1,0.1,0.1,0.2,0.1,0.4c0,0.2,0,0.3-0.1,0.5L163.6,742.8z
		 M162.1,742.5c0.1,0,0.2,0,0.3,0c0.1,0,0.2-0.1,0.3-0.1c0.1,0,0.2-0.1,0.3-0.1c0.1-0.1,0.2-0.1,0.3-0.2l0.2-0.7
		c-0.3,0-0.5,0-0.7,0.1c-0.2,0-0.4,0.1-0.5,0.1c-0.1,0.1-0.2,0.1-0.3,0.2c-0.1,0.1-0.1,0.2-0.2,0.3c0,0.1,0,0.2,0,0.2
		c0,0.1,0,0.1,0.1,0.2c0,0,0.1,0.1,0.1,0.1C162,742.4,162.1,742.5,162.1,742.5z M164.5,742.8l0.9-3.4h0.3c0.1,0,0.1,0,0.1,0.1l0,0.3
		c0.2-0.2,0.3-0.3,0.5-0.4c0.2-0.1,0.4-0.1,0.6-0.1c0.2,0,0.4,0.1,0.5,0.2c0.1,0.1,0.2,0.3,0.2,0.5c0.1-0.1,0.2-0.2,0.3-0.3
		c0.1-0.1,0.2-0.2,0.3-0.2c0.1-0.1,0.2-0.1,0.3-0.1c0.1,0,0.2,0,0.3,0c0.2,0,0.3,0,0.5,0.1c0.1,0.1,0.2,0.1,0.3,0.2
		c0.1,0.1,0.1,0.2,0.1,0.4c0,0.2,0,0.3-0.1,0.5l-0.6,2.1h-0.6l0.6-2.1c0.1-0.3,0.1-0.5,0-0.6c-0.1-0.1-0.2-0.2-0.4-0.2
		c-0.1,0-0.2,0-0.3,0.1c-0.1,0-0.2,0.1-0.3,0.2c-0.1,0.1-0.2,0.2-0.2,0.3c-0.1,0.1-0.1,0.2-0.2,0.4l-0.6,2.1h-0.6l0.6-2.1
		c0.1-0.3,0.1-0.5,0-0.6c-0.1-0.1-0.2-0.2-0.4-0.2c-0.1,0-0.3,0-0.4,0.1c-0.1,0.1-0.3,0.2-0.4,0.3l-0.7,2.5H164.5z"/>
</g>
<g>
	<g>
		<linearGradient id="SVGID_9_" gradientUnits="userSpaceOnUse" x1="759.4241" y1="141.1514" x2="959.6018" y2="141.1514">
			<stop  offset="0" style="stop-color:#FFFFFF;stop-opacity:0"/>
			<stop  offset="4.017906e-002" style="stop-color:#FDEBEE;stop-opacity:4.051906e-002"/>
			<stop  offset="0.1257" style="stop-color:#FAC6CE;stop-opacity:0.1267"/>
			<stop  offset="0.2187" style="stop-color:#F7A7B2;stop-opacity:0.2205"/>
			<stop  offset="0.3192" style="stop-color:#F58D9C;stop-opacity:0.3219"/>
			<stop  offset="0.4302" style="stop-color:#F3798A;stop-opacity:0.4338"/>
			<stop  offset="0.5573" style="stop-color:#F26C7E;stop-opacity:0.562"/>
			<stop  offset="0.7143" style="stop-color:#F16377;stop-opacity:0.7204"/>
			<stop  offset="0.9916" style="stop-color:#F16175"/>
		</linearGradient>
		<rect x="759.4" y="128.8" class="st15" width="200.2" height="24.7"/>
		<g>
			<g>
				<path class="st13" d="M899.6,145.7c-4.3,0-5.9-2-5.9-5.1c0-2.9,1.8-5.5,5.8-5.5c2.6,0,4.6,0.8,4.6,0.8v7.6h2.2v2.3H899.6z
					 M896,132.2c0-0.8,0.6-1.5,1.5-1.5c0.8,0,1.5,0.7,1.5,1.5c0,0.8-0.6,1.5-1.5,1.5C896.7,133.7,896,133,896,132.2z M901.4,137.8
					c0,0-0.8-0.4-2.1-0.4c-1.7,0-2.6,1.3-2.6,3c0,2,1,3.1,3.3,3.1h1.4V137.8z M899.7,132.2c0-0.8,0.6-1.5,1.5-1.5
					c0.8,0,1.5,0.7,1.5,1.5c0,0.8-0.6,1.5-1.5,1.5C900.3,133.7,899.7,133,899.7,132.2z"/>
				<path class="st13" d="M906,143.4h4.1v-8.1h2.9v10.3h-7V143.4z M907.9,150.5c-0.8,0-1.5-0.7-1.5-1.5c0-0.8,0.6-1.5,1.5-1.5
					c0.8,0,1.5,0.7,1.5,1.5C909.3,149.8,908.7,150.5,907.9,150.5z M911.5,150.5c-0.8,0-1.5-0.7-1.5-1.5c0-0.8,0.6-1.5,1.5-1.5
					c0.8,0,1.5,0.7,1.5,1.5C913,149.8,912.3,150.5,911.5,150.5z"/>
				<path class="st13" d="M913.2,151.1l0.2-2.3c0.5,0.2,1.1,0.3,1.8,0.3c1.5,0,2.4-0.7,2.4-3.1v-10.6h2.9v8.1h2.2v2.3h-2.2v0.1
					c0,2.8-0.9,5.5-5.4,5.5C914.3,151.3,913.7,151.2,913.2,151.1z"/>
				<path class="st13" d="M922.3,145.7v-2.3h1.9c0.6,0,1,0.1,1,0.1s-0.6-0.6-0.6-1.5c0-2.1,1.5-3.7,4.2-3.7c2.9,0,4,2,4,4.5v0.6h2.3
					v-0.3c0-4.6-1.8-6.8-6.2-6.8c-1.5,0-3.3,0.4-4.7,0.8l-0.3-2c1.6-0.5,3.6-0.9,5.3-0.9c5.5,0,8.6,2.6,8.6,9.1v0.1h1.6v2.3H922.3z
					 M930.4,142.8c0-1.6-0.6-2.7-1.9-2.7c-1,0-1.6,0.7-1.6,1.6c0,1.1,0.9,1.8,2.1,1.8h1.4V142.8z"/>
				<path class="st13" d="M939.1,143.4h8.5c0.1-0.5,0.1-1.1,0.1-1.7c0-2.8-1.1-4.2-4.3-4.2c-0.9,0-1.7,0.1-2.5,0.2v-2.3
					c0.9-0.1,1.9-0.2,2.8-0.2c5,0,6.9,2.2,6.9,6.4c0,1.1-0.1,2.5-0.4,4.1h-11.1V143.4z M942.8,149c0-0.8,0.7-1.5,1.5-1.5
					s1.5,0.7,1.5,1.5c0,0.8-0.7,1.5-1.5,1.5S942.8,149.9,942.8,149z"/>
			</g>
		</g>
		<g>
			<path class="st8" d="M716.7,143c0.1,0.4,0.2,0.8,0.2,1.1c0,0.9-0.6,1.7-1.9,2.2l-4.9,1.9c-1.5,0.6-2.8,1.1-2.8,2
				c0,0.1,0,0.1,0,0.2l-0.2,0.1c-0.1-0.4-0.2-0.8-0.2-1.1c0-0.9,0.5-1.7,1.9-2.3l4.9-1.9c1.7-0.7,2.8-1.1,2.8-2.2L716.7,143z"/>
			<path class="st8" d="M736.5,112.8c0-4.3,2.1-5.9,5.3-6.1v0.5c-2,0.3-2,3.7-2,7.4v2.2c0,5.5-4.5,10-9.9,10h-19.2
				c-11.9,0-18.5-5.2-18.5-14.1c0-2,0.3-3.9,1.1-5.8l0.4,0.3c-0.6,1.2-0.7,2.6-0.7,4.1c0,7.4,5.1,12.3,17.6,12.3h19.2
				c3.8,0,6.7-2.9,6.7-7.3V112.8z M716.8,136.3l-2.8-2.8l2.8-2.9l2.8,2.9L716.8,136.3z"/>
			<path class="st8" d="M753.6,147.4c0.1,0.4,0.2,0.8,0.2,1.1c0,0.9-0.6,1.7-1.9,2.2l-4.9,1.9c-1.5,0.6-2.8,1.1-2.8,2
				c0,0.1,0,0.1,0,0.2l-0.2,0.1c-0.1-0.4-0.2-0.8-0.2-1.1c0-0.9,0.5-1.7,1.9-2.3l4.9-1.9c1.7-0.7,2.8-1.1,2.8-2.2L753.6,147.4z"/>
			<path class="st8" d="M755.6,123.5h8.9v3.3h-8.9c0,5.9-1.5,10.5-5.1,14.3c-3.2,3.6-7.1,5.4-11.7,5.4c-2,0-3.9-0.4-5.9-1.2l0.3-0.6
				c1.3,0.7,2.7,1,4.2,1c8.1,0,15-7.4,15-18.9v-21.2h3.3V123.5z"/>
			<path class="st8" d="M780.3,80.1c0.3-0.2,0.7-0.3,1.1-0.3V80c-0.7,0.1-0.7,1.2-0.7,2.4v2c0,1.7-1.4,3.1-3.1,3.1
				c-1.9,0-3.4-1.1-3.4-2.8v-1.2c0-1.8,1.6-3.4,3.4-3.4H780.3z M777.7,81.2c-1.4,0-2.5,1-2.5,2.3v1.2c0,0.9,1,1.7,2.3,1.7
				c1,0,2.1-0.9,2.1-2.1v-2.5c0-0.2,0-0.5,0.1-0.6H777.7z"/>
			<path class="st8" d="M794,126.8h-29.6v-3.3h4.6c-1.7-1.7-2.5-4.1-2.5-6.3c0-5.1,4.5-9.6,9.7-9.6h6.9c3.4,0,6.8,0,7-2.2h0.5
				c0,3.4-1.9,5.4-5.8,5.4h-8.2c-4.2,0-7.1,2.7-7.1,6.4s2.8,6.2,6.7,6.3H794V126.8z M781.6,100.3l-2.8-2.8l2.8-2.9l2.8,2.9
				L781.6,100.3z"/>
			<path class="st8" d="M809.3,95.8c0.1,0.4,0.2,0.8,0.2,1.1c0,0.9-0.6,1.7-1.9,2.2l-4.9,1.9c-1.5,0.6-2.8,1.1-2.8,2
				c0,0.1,0,0.1,0,0.2l-0.2,0.1c-0.1-0.4-0.2-0.8-0.2-1.1c0-0.9,0.5-1.7,1.9-2.3l4.9-1.9c1.7-0.7,2.8-1.1,2.8-2.2L809.3,95.8z"/>
			<path class="st8" d="M800.7,123.5v-8.7c0-5.4,4.7-10.1,10.1-10.1h7.5c0.9-0.6,1.9-0.8,3.1-1v0.4c-1.9,0.4-2,3.8-2,7.3l-0.2,6.1
				c0,2.4,1.1,4.5,3.1,5.5c0.6,0.3,1.5,0.5,3,0.5v3.3c-3.5,0-6.1-1.3-7.8-4c-1.6,2.5-4.5,4-7.6,4h-16v-3.3H800.7z M811.3,108
				c-4.3,0-7.4,3.1-7.4,6.9v8.6h5.9c3.4,0,6.3-2.5,6.3-5.9v-7.7c0-0.8,0.1-1.4,0.2-1.9H811.3z"/>
			<path class="st8" d="M835.3,81.1c0.3-0.2,0.7-0.3,1.1-0.3V81c-0.7,0.1-0.7,1.2-0.7,2.4v2c0,1.7-1.4,3.1-3.1,3.1
				c-1.9,0-3.4-1.1-3.4-2.8v-1.2c0-1.8,1.6-3.4,3.4-3.4H835.3z M832.7,82.2c-1.4,0-2.5,1-2.5,2.3v1.2c0,0.9,1,1.7,2.3,1.7
				c1,0,2.1-0.9,2.1-2.1v-2.5c0-0.2,0-0.5,0.1-0.6H832.7z"/>
			<path class="st8" d="M829,88.7c3.1,0.1,5.3,1.7,5.3,6v21.6c0,4-2.5,7.9-6,9.6c-1.2,0.6-2.2,0.9-3,0.9v-3.3
				c2.4-0.2,5.8-2.8,5.8-7.3v-20c0-3.5,0-7-2.1-7.2V88.7z"/>
			<path class="st8" d="M841.7,96.8c0-5.7-0.2-7.3-2-7.5v-0.4c3.5,0.1,5.2,2.2,5.2,6.2v31.8h-3.3V96.8z"/>
			<path class="st8" d="M868.8,81.2c-1.3,2.3-3.3,3.5-5.2,3.5c-1.4,0-2.8-0.7-3.7-1.8l0.1-0.1c0.7,0.9,1.8,1.4,3,1.4
				c1.7,0,3.6-1,4.9-3.4l0.3-0.6c-0.2,0-0.4,0.1-0.6,0.1c-1.8,0-3.1-1.7-3.1-3.1c0-0.4,0.1-0.8,0.3-1.1l0.6-1c0.6-1,1.7-1.6,2.8-1.6
				c0.5,0,1,0.1,1.5,0.4l-0.4,0.9c-0.4-0.2-0.8-0.3-1.2-0.3c-0.8,0-1.5,0.4-1.9,1.1l-0.5,1c-0.1,0.2-0.2,0.4-0.2,0.6
				c0,0.8,0.8,2,2.1,2c0.5,0,0.9-0.2,1.3-0.5l1.7-3.1l-1.4-0.8l0.4-0.9L872,75c0.3,0,0.7,0.1,1,0.3l-0.1,0.1c-0.1,0-0.2,0-0.2,0
				c-0.5,0-0.9,0.9-1.4,1.7l-0.9,1.6L868.8,81.2z"/>
			<path class="st8" d="M878.3,104.6c0.8-0.5,1.9-0.7,3.1-0.8v0.5c-2.1,0.3-2.1,3.7-2.1,7.2v6c0,5.2-4.3,9.3-9.4,9.3
				c-5.4,0-10.2-3.6-10.2-8.3v-3.6c0-5.5,4.8-10.3,10.3-10.3H878.3z M870.6,107.8c-4.3,0-7.4,3.2-7.4,7v3.6c0,2.6,2.9,5.1,6.8,5.1
				c3.3,0,6.2-2.8,6.2-6.1v-7.6c0-0.9,0-1.4,0.3-2H870.6z M866.2,100.3l-2.9-2.9l2.9-2.8l2.9,2.8L866.2,100.3z M872,100.3l-2.9-2.9
				l2.9-2.8l2.9,2.8L872,100.3z"/>
			<path class="st8" d="M917.1,126.8c-3.4,0-6.6-1.6-8.3-4.5c-1,2-4.5,4.5-8,4.5h-17.1v-3.3h10.9v-13.1c0-3.7-0.2-7.2-2.2-7.5v-0.5
				c3.4,0.2,5.5,1.8,5.5,6.2v14.9h2.9c3.8,0,6.8-3.3,6.8-7.7V95.2c0-3.8-0.1-7.1-2.1-7.4v-0.5c3.3,0.1,5.4,1.8,5.4,6.1v24.7
				c0.3,3.3,2.8,5.2,6.2,5.5V126.8z"/>
			<path class="st8" d="M950.5,92.9c0.1,0.4,0.2,0.8,0.2,1.1c0,0.9-0.6,1.7-1.9,2.2l-4.9,1.9c-1.5,0.6-2.8,1.1-2.8,2
				c0,0.1,0,0.1,0,0.2l-0.2,0.1c-0.1-0.4-0.2-0.8-0.2-1.1c0-0.9,0.5-1.7,1.9-2.3l4.9-1.9c1.7-0.7,2.8-1.1,2.8-2.2L950.5,92.9z"/>
			<path class="st8" d="M959.6,126.8H917v-3.3h2.8c0.6-0.3,0.9-1.1,0.9-2.5c0-3.4-0.8-6.6-3.2-8.8l0.4-0.3c2.2,2.1,3.7,4.7,4.4,7.3
				c0.7-8.2,8.8-14.5,19.3-14.5h6.9c6.1,0.5,11.2,6.1,11.1,12.4V126.8z M956.3,123.5V117c0-3.8-1.7-6.5-5.1-8.1
				c-1.4-0.6-3.3-0.9-6.2-0.9h-3.4c-11.1,0-18.8,6.2-18.8,14.5v1H956.3z"/>
		</g>
	</g>
</g>
</svg>
