<?xml version="1.0" encoding="utf-8"?>
<!-- Generator: Adobe Illustrator 21.1.0, SVG Export Plug-In . SVG Version: 6.00 Build 0)  -->
<svg version="1.1" id="Layer_1" xmlns="http://www.w3.org/2000/svg" xmlns:xlink="http://www.w3.org/1999/xlink" x="0px" y="0px"
	 viewBox="0 0 384 486.8" style="enable-background:new 0 0 384 486.8;" xml:space="preserve">
<style type="text/css">
	.st0{fill:#CF5657;}
	.st1{fill:#FCD62F;}
	.st2{opacity:0.5;}
	.st3{fill:#AC3734;}
	.st4{fill:#A64A30;}
	.st5{fill:#FFDEAB;}
	.st6{fill:#63ADDF;}
	.st7{fill:#59B747;}
	.st8{fill:#F9EE62;}
	.st9{fill:#FFFFFF;}
	.st10{fill:#461B12;}
	.st11{fill:#231F20;}
	.st12{fill:#F2DA4A;}
	.st13{fill:#8E3D21;}
	.st14{fill:none;stroke:#8E3D21;stroke-miterlimit:10;}
	.st15{fill:#8E3C21;}
	.st16{fill:#449D46;}
	.st17{fill:#F7E44F;}
	.st18{fill:#F0C08B;}
	.st19{fill:#4D95C4;}
	.st20{fill:#EEEDED;}
	.st21{fill:#FBC599;}
	.st22{fill:#6B5127;}
	.st23{fill:#9E8B35;}
	.st24{fill:#425E35;}
	.st25{fill:#074E7A;}
	.st26{fill:#ADAAAA;}
</style>
<g>
	<g>
		<g>
			<g id="XMLID_80_">
				<g>
					<path class="st0" d="M0,437.4l234.8-87.1L384,360L269.2,486.8L0,437.4z"/>
					<polygon class="st1" points="372.4,361 368.1,365.4 351.2,360.7 					"/>
					<path class="st1" d="M367.6,365.9c0.3,0-5.3,5.1-5.3,5.1l-9.4-3C352.8,367.9,367.2,365.9,367.6,365.9z"/>
					<path class="st1" d="M361.7,371.3c0.3-0.1-5.2,5.5-5.2,5.5l-11-3.3C345.5,373.5,361.4,371.4,361.7,371.3z"/>
					<polygon class="st1" points="355.5,377.3 349.1,383.9 348.2,383.6 337.4,379.8 					"/>
					<polygon class="st1" points="347.8,384.6 340.1,392.3 339.5,392.1 328.7,387.6 					"/>
					<polygon class="st0" points="347.8,364.9 240.2,447.4 75.7,425.7 241.9,354.9 					"/>
					<polygon class="st1" points="346.9,358.6 332.9,360.8 326.2,358.4 					"/>
					<polygon class="st1" points="339.2,392.9 330,401.9 329.1,401.5 318.4,396.1 					"/>
					<polygon class="st1" points="328.2,403.2 317.6,413.7 316.8,413.3 305.5,406.9 					"/>
					<polygon class="st1" points="320.9,356.9 307.4,358.4 301.3,356 					"/>
					<polygon class="st1" points="315.6,415.5 301.2,429 300.9,428.8 289.5,420 					"/>
					<polygon class="st1" points="299.5,430.7 282,447.6 269.7,436.1 					"/>
					<path class="st1" d="M278.9,354.9l18,0.4c-2.5,0.3-12.2,1.5-12.2,1.5L278.9,354.9z"/>
					<polygon class="st1" points="279,450.6 256.6,472.6 208.9,464.7 245.2,457.4 					"/>
					<path class="st1" d="M256.6,352.7l16.9,1.1c-0.5,0-8.1,0.8-11,1h0l-1.6-0.1L256.6,352.7z"/>
					<path class="st1" d="M260.8,354.7l1.6,0.1c-0.7,0-1.1,0.1-1.1,0.1L260.8,354.7z"/>
					<path class="st1" d="M236.6,351.7l14.3,0.1c-0.2,0-4.1,0.6-8.6,1.1l-0.3,0l-0.2,0.1c0,0,0,0,0,0c-6,0.8-12.8,1.7-12.8,1.7
						L236.6,351.7z"/>
					<polygon class="st1" points="226.9,355.3 229.2,357.5 217,359 					"/>
					<polygon class="st1" points="214.2,359.7 215.7,362.4 202.5,363.9 					"/>
					<path class="st1" d="M202.5,464c0.1,0.3-40-7.2-40-7.2l34.4-6.4C196.9,450.3,202.4,463.6,202.5,464z"/>
					<polygon class="st1" points="200.1,364.4 201.7,367.2 186.9,369.4 					"/>
					<polygon class="st1" points="184.9,371.5 186.6,374.4 170.8,376.8 					"/>
					<polygon class="st1" points="149.5,384.8 167.5,378.2 168.3,382.2 					"/>
					<polygon class="st1" points="154.8,443.9 156.3,455.8 121.2,450 					"/>
					<path class="st1" d="M146.6,386.6l-0.2,4.2c0,0-19.2,2.9-19.5,2.9L146.6,386.6z"/>
					<polygon class="st1" points="122.2,396.7 121.1,401.6 98.8,404.9 					"/>
					<polygon class="st1" points="115.7,438.3 114.1,449.2 83.9,443.9 					"/>
					<polygon class="st1" points="93.5,408.3 90.4,414.4 65.7,418.3 					"/>
					<polygon class="st1" points="83.3,433.4 78.8,443.3 52.3,439 					"/>
					<path class="st1" d="M65,427.1L241.7,353c0,0,0,0,0,0c0.2,0,0.3,0,0.5-0.1l18.6,1.7l0.5,0.2c0,0,0.4,0,1.1-0.1h0l92.8,8.6
						l-18.8,15.2L317,394.4L303.9,405l-16.1,13l-19.8,16l-23.7,19.1l-128.1-18.6l-32.5-4.7L65,427.1z M241.9,354.9L75.7,425.7
						l164.5,21.7l107.6-82.5L241.9,354.9z"/>
					<polygon class="st1" points="59.5,422.1 48,438 25.1,433.7 					"/>
				</g>
			</g>
		</g>
		<g class="st2">
			<g>
				<path class="st3" d="M326.5,365.6c1.2,0.5,34.3,5.4,20.3,14.3c-14,8.8-48.8,5.4-57.4,4.9c-8.6-0.5-8-1.2-23.6-3.7
					c-15.6-2.5-43.9-7.2-18.4-16.5c23.9-8.7,56.9-1.6,60.8-2.2C312,361.8,323.1,364.1,326.5,365.6z"/>
			</g>
		</g>
	</g>
	<g>
		<g>
			<path class="st4" d="M335.1,75c-0.7,0.4-3.3,1.8-3.5,3.3c-15.8,1.4-10-21-10-21c-14.1,6.7-17.8-6.2-17.8-6.2
				C288.5,66,275.8,48,275.8,48s1.3,5.9-5.9,7.9c-5.5,0.6-8.6-3-10.4-6.9c-0.4,2.4-0.8,8.2-0.2,12.7c0.4,3.2-0.5,6.6-1.1,8.5l0,0
				c0,0.2-0.2,0.9-0.4,2.1c-0.2-0.8-1.2-4-4.8-4.6c-1.9-0.3-3.3,1.5-3.8,3.8C236.6,60,247.6,53,247.6,53
				c-13.4-14.7,1.5-23.1,6.5-26.3c5.1-3.1,11.4-12.5,14.5-16.3c3.1-3.8,14.6-13.2,34.7-8.8C323.6,6.1,325.5,17,325.5,17
				c0.9-4.2-1.4-10.9-1.4-10.9s1.7-1.6,4.9,0.2c7.5,6,4.4,14,4.4,14l0,0.1c12.8-3,13.9,8.9,13.9,8.9c-2.8-0.1-9.4-0.1-9.4-0.1
				c21.1,12.8,14,26.6,11.1,30.3c-2.8,3.7-1.6,6.7-0.3,7.8c1.3,1.1,4.5,3.3,2.9,8.6c-2.1,6.4-9,6.8-9.6,6.8l-0.3-0.1
				c0.1-0.2,0.1-0.5,0.1-0.8c0.3-2.8-0.2-5.9-3.1-7.1C337.7,74.3,336.3,74.3,335.1,75z"/>
		</g>
		<g id="XMLID_70_">
			<g>
				<g>
					<g>
						<path class="st5" d="M349.4,258.1c-1,2.9-4.4,6.2-5.5,7.1l-0.7-0.5c-1.5,2.3-3.4,2.7-3.8,2.5l-0.3-0.2c-1.1,1.6-2.3,3-2.9,3.2
							c-1.4,0.4-2.3-2.2-2.5-2.8c-2.4,1.5-3.7,0.8-3.6-1c0.1-2.1,2-5.8,2.1-7.6c0.1-1.2,0-6.6,0-9.7c-2.1,3.5-3.9,4.7-5.2,4.8
							c-1.8,0.1-2.9-1.4-2.9-1.6c0-0.3,1.2-2,2.2-4.4c0.2-0.4,0.4-0.9,0.6-1.4c0.1-0.2,0.2-0.5,0.3-0.8c1.5-3.2,5.2-8.8,5.4-9.7
							c0.2-0.7-0.8-15.2-1.8-25c-0.3-3.1-0.7-5.7-1-7.3c-1.4-6.7-3.6-21.1-3.6-21.1l0-0.3c7.3,0.5,13.8-1.5,18.4-3.6l0.1,0.2
							c3.1,20.1-0.4,56.3-0.4,56.3c1.3,3.2,6.6,17.6,6.6,17.6S350.5,254.8,349.4,258.1z"/>
					</g>
				</g>
				<g>
					<g>
						<path class="st6" d="M331.6,323c1.7,15.5-1,21.6-1,21.6l-0.3,0.1c1.8,4.8,3.6,9.8,3.8,10.8c0.3,2-3.3,5.6-3.3,5.6l-0.5,0.1
							c0-0.5-0.1-1-0.3-1.5c-3-3.5-8.5-5.6-8.5-5.6l0-0.3c-5,0.5-13.4,0.3-17.6,0.1c-0.4,0.4-2.3,2-4.3,3.9l-0.2-0.2
							c-4.8-2.5-6.6-7.1-5.6-8.9c0.4-0.7,1.2-2.6,2.1-4.8c0.1-1.4,0.4-6.4-0.3-12.4c-0.8-7.1-1-24.6-1-24.6l0.5-0.1
							c-1.3-5.1-2.2-12.8-2.9-20.4c-1.1-12.1-1.6-23.9-1.6-23.9c-4.4-0.3-11.5-8.9-11.5-8.9l5.1-3.7c-1.3-5.5-1.1-23.2-1-24.6
							c4.6,0.7,9.7,1.3,12.2,1.2c4.4-0.2,11.3-1,15.3-1.4c0.6,0,1.3-0.1,2.2-0.2l0,0.6c0,0,1.3,23.8,5.9,24.7c4.6,1,7.1-2.3,7.1-2.3
							l0.4,0.2c-1,2.3-2.2,4.1-2.2,4.4c0,0.2,1.1,1.7,2.9,1.6c0.2,9,1.1,51.3,1.1,51.3S330.3,310.2,331.6,323z"/>
					</g>
				</g>
				<g>
					<g>
						<path class="st5" d="M269.3,72.5c2.7-1.9,6.1-1.3,6.1-1.3c2,0.4,1.7-0.1,1.4-0.7c-1.2-1.2-3.1-2.8-5.3-1.4
							C269.4,70.6,269.3,72.5,269.3,72.5z M331.7,78.3c0.2-1.5,2.8-2.9,3.5-3.3c1.2-0.7,2.6-0.7,3.8-0.1c2.9,1.3,3.4,4.3,3.1,7.1
							c0,0.3-0.1,0.5-0.1,0.8c-0.5,2-1.7,3.5-3.3,4.9c-1.6,1.4-4.3,2.3-6.3,1.6c-0.8-0.3-1.4-0.7-1.8-1.5l-0.3,0
							c-0.3,2.1-1.1,4.2-2.1,6.1c-2.2,3.8-5.7,7.5-9,10.4c-1.9,1.6-4,3.1-6.2,4.3c-0.9,0.5-1.9,1-2.8,1.4c-2.1,0.9-4.2,1.6-6.4,2.1
							c-7,1.6-14.5,1.4-21.5-0.5c-2-0.5-4-1.2-5.9-2c-1.5-0.6-2.9-1.3-4.4-2c-8.7-4.7-13.8-14.1-14.7-23.7c-0.1-1.3-0.2-2.5-0.2-3.7
							c0-3.2,0.4-6,0.8-7.9c0.2-1.1,0.4-1.9,0.4-2.1l0,0c0.6-1.9,1.5-5.3,1.1-8.5c-0.6-4.5-0.2-10.4,0.2-12.7
							c1.7,3.9,4.8,7.5,10.4,6.9c7.2-1.9,5.9-7.9,5.9-7.9s12.7,18,28.1,3.1c0,0,3.7,12.9,17.8,6.2C321.7,57.3,315.9,79.7,331.7,78.3
							z M307.9,73.7c1.7-0.1-0.9-2.5-2.7-3.2c-1.8-0.7-4.2,0.1-5,2.8C300.3,73.3,305.3,72.5,307.9,73.7z M307.7,85.1
							c0-2-1.2-3.6-2.6-3.6c-1.4,0-2.6,1.6-2.6,3.6c0,2,1.2,3.6,2.6,3.6C306.6,88.8,307.7,87.2,307.7,85.1z M276.2,82.7
							c0-1.9-1.1-3.5-2.5-3.5c-1.4,0-2.5,1.5-2.5,3.5c0,1.9,1.1,3.5,2.5,3.5C275.1,86.2,276.2,84.6,276.2,82.7z"/>
					</g>
				</g>
				<g>
					<g>
						<path class="st5" d="M245.7,247.9c-0.1,0.3,1,5.7,1,5.7s3.5,2.2,3.8,3.9c0.1,0.4,0,0.7-0.3,1c-1.7,1.7-7.2-1.1-8.3-2.1
							c-1-0.9-4.2-11.4-4-12.6c0.2-1.2,5.8-14.9,6.1-16.2c0.3-1.4,2.2-6.1,2.6-13.9c0.4-7.3,4.5-32.7,5-35.5
							c2.3,0.8,4.8,1.3,7.3,0.9c-0.1,3.5-0.2,6.3-0.2,7.9c0.1,7.5-3.1,17.7-3.1,20.4c0,1.4,1.1,3.3,3.1,5c-0.3,0.6-3.6,13.8-5.5,17
							c-0.4,2,0.1,3.9,0.4,5.8l-0.8,0.1c0.1,3.3-2.9,5.2-2.9,5.2s-0.5,3.9-1.7,5.8c-0.6,0.9-1.7,1.4-2.7,1.5L245.7,247.9z"/>
					</g>
				</g>
				<g>
					<g>
						<path class="st7" d="M347.1,165.2c0,0-11.8,10.5-24.6,8.4c0.5,3.8,1,8.5,1,8.5c0.9,0.1,1.8,0.2,2.6,0.3l0,0.3
							c0,0,2.2,14.4,3.6,21.1c0.3,1.6,0.7,4.2,1,7.3c-0.1,0.2-0.4,0.8-0.8,1.3c-0.3,0.4-0.7,1.1-1.3,1.8c-0.3,0.4-0.8,0.8-1.2,0.9
							c-1.1,0.4-5.1,1-7.8,1.1c-2.7,0.1-6.3,0.9-9.2,0.9c-2.9,0-14.6,0.7-17.6,0.6c-3-0.1-19.5-0.6-26.5-1.8c-2.9-0.5-5.3-1.7-7.1-3
							c-0.2-0.2-0.5-0.4-0.7-0.6c-2-1.7-3.1-3.6-3.1-5c0-2.6,3.2-12.9,3.1-20.4c0-1.6,0.1-4.4,0.2-7.9c0.1-2.1,0.2-4.5,0.3-7.1h0
							c-6.9,0.6-12.2-3.6-13.3-4.5c0.1-0.2,0.1-0.4,0.2-0.6c3.8-12.2,8.7-33.9,10.4-36.6c2.1-3.3,15.5-14.3,15.8-14.5l0.4,0.2
							c-1.1,2.8-2,6.6-2,11.2c0,0,5.9-4.2,9.7-2.7l0,0c0.9,1.4,2.1,2.7,4,3.7c-0.3,1.3-2.3,11.8-1.6,20.7c0,0,5.3,1.3,7.8,0.4
							c0,0,0.7-15.9,1.7-19.5v-0.1c2.8-0.3,5.6-1.2,8-2.6l0.2,0.3c0.8-0.4,7-3.6,12.5,3.9c0,0,3.6-5.5,3.4-12.5l0.3,0
							c0,0,16.8,8.5,20.8,15c3.6,6.5,5.2,19.5,6.7,23.6c0.6,1.6,1.8,4.5,3.1,7.6c0,0,0,0.1,0.1,0.2L347.1,165.2z"/>
					</g>
				</g>
				<g>
					<g>
						<path class="st6" d="M266.1,222.5c-0.1,1.8-1.9,17.9-2.8,18.7c-1,0.8-2.5,0.8-2.5,0.8h-0.1c0.5-9.6,1-17.9,1.2-20.2
							C263,222,264.5,222.2,266.1,222.5z"/>
					</g>
				</g>
				<g>
					<g>
						<path class="st8" d="M251.7,178.1c-4.6-1.6-8.1-4.5-8.1-4.5c0.7-1.3,1.5-3.5,2.4-6.2c1.1,1,6.4,5.2,13.3,4.5h0
							c-0.1,2.5-0.2,4.9-0.3,7.1C256.5,179.4,254,178.9,251.7,178.1z"/>
					</g>
				</g>
				<g>
					<g>
						<path class="st6" d="M260.8,242c0,0,1.5,0,2.5-0.8c0.9-0.8,2.6-16.8,2.8-18.7c1,0.2,2,0.3,3,0.5c-0.2,1.9-3,23.4-4.1,24.6
							c-1.1,1.3-3.9,1.1-3.9,1.1l-0.5,0C260.5,246.4,260.6,244.2,260.8,242L260.8,242z"/>
					</g>
				</g>
				<g>
					<g>
						<path class="st7" d="M261.9,221.8c-1.5-0.2-2.5-0.4-2.5-0.4s-0.2-7.9-0.2-8.2l0.2-0.3c1.8,1.4,4.2,2.6,7.1,3
							c6.9,1.2,23.5,1.8,26.5,1.8c3,0.1,14.7-0.6,17.6-0.6c2.9,0,6.5-0.9,9.2-0.9c2.7-0.1,6.6-0.7,7.8-1.1c0.4-0.1,0.9-0.5,1.2-0.9
							l0.7,8.4c0,0,0,0-1.3,0.2c-0.2,0-0.6,0.1-1.2,0.2c-2.1,0.3-6.3,0.9-10.1,1.3c-1.5,0.2-2.8,0.3-4,0.5c-0.9,0.1-1.6,0.2-2.2,0.2
							c-4,0.4-10.9,1.2-15.3,1.4c-2.5,0.1-7.6-0.5-12.2-1.2c-3.3-0.5-6.3-1-7.9-1.3c-1.4-0.2-3.7-0.6-6.2-1c-1-0.2-2-0.3-3-0.5
							C264.5,222.2,263,222,261.9,221.8z"/>
					</g>
				</g>
				<g>
					<g>
						<path class="st5" d="M252,244.3c1,1,3.9,4.2,3.5,5.3c-0.3,0.8-1,0.8-1.6,0.6c0.4,0.4,0.7,0.8,0.9,1.1c0.8,1,1.3,3.5-0.9,2.9
							l-0.1,0.1c0.6,0.7,0.9,1.4,0.8,1.9c-0.3,1.8-2.7,1.5-3.9,1.2h0c-0.3-1.7-3.8-3.9-3.8-3.9s-1.1-5.4-1-5.7l0-0.1
							c1-0.1,2.2-0.6,2.7-1.5c1.1-1.9,1.7-5.8,1.7-5.8s3-1.9,2.9-5.2l0.8-0.1c0.2,0.8,0.3,1.7,0.3,2.5
							C254,239.7,252.6,243.1,252,244.3z"/>
					</g>
				</g>
				<g>
					<g>
						<path class="st9" d="M289.7,363.2c-0.3,2.3-1.9,3.4-4.4,4.1c-3.5,0.9-31.7,0.8-34-0.1c-2.3-0.9-4.3-3.6-4.4-5.4
							c-0.1-1.8,5.6-5.6,9.6-8.2c1.5-1,3.7-2,5.8-2.8c3.6-1.4,7.1-2.5,7.1-2.5l0.1-0.2c4.5,2.4,16.9,8.3,17.7,8.8
							c0.6,0.4,1.5,1.8,2.2,3v0C289.7,361.2,289.8,362.3,289.7,363.2z"/>
					</g>
				</g>
				<g>
					<g>
						<path class="st5" d="M284.4,128.1c-1.8-1-3.1-2.4-4-3.7c-0.2-0.2-0.3-0.5-0.4-0.7c1.8-3.8,2.1-7.8,2.1-12l0-0.1
							c7,1.8,14.5,2.1,21.5,0.5l0,0.2c-0.5,2.7-1.1,5.9-0.6,8.6c0.2,0.9,0.3,2.3,0.8,3.1l0,0c-1,1.2-2.3,2.2-3.7,3.1
							c-2.4,1.4-5.2,2.3-8,2.6c-2.8,0.3-5.5-0.1-7.8-1.4C284.4,128.1,284.4,128.1,284.4,128.1z"/>
					</g>
				</g>
				<g>
					<g>
						<path class="st6" d="M269.4,348.3c0,0-3.5,1-7.1,2.5l0-0.1c-4.5-1.5-7.4-6.9-7.4-6.9s1.5-1.3,2.5-3c0.4-0.6,1.6-3.9,3.1-8
							c0.3-3.1-0.2-47.2-0.5-62.3c-0.1-5.6,0.1-13.7,0.5-21.7l0.5,0c0,0,2.8,0.2,3.9-1.1c1.1-1.3,3.9-22.7,4.1-24.6
							c2.5,0.4,4.9,0.8,6.2,1c1.6,0.3,4.6,0.8,7.9,1.3c-0.1,1.3-0.2,19,1,24.6l-5.1,3.7c0,0,7.1,8.6,11.5,8.9c0,0,0.4,11.8,1.6,23.9
							l-0.6,0c-0.7,3.6-2.3,16-2.3,16l-0.1,0c1.1,2,2.1,3.6,2.2,3.9c0.3,0.8,0.2,1.1-0.5,3.5c-0.7,2.3-0.3,38.2-0.4,40.3
							c1.8,2.9,3.6,5.7,4.2,6.4c1.2,1.3-4,5.7-5.1,6.6c0.1-0.9,0-2-0.3-3.3v0c-0.7-1.2-1.7-2.6-2.2-3c-0.8-0.5-13.2-6.5-17.7-8.8
							L269.4,348.3z"/>
					</g>
				</g>
				<g>
					<g>
						<path class="st9" d="M330.3,361.2c0.7,4.8-0.4,9-1,9.3c-0.7,0.3-11.2,2.6-23.6,2c-12.4-0.7-12.2-6.1-10.9-9.1
							c0.6-1.4,2.8-3.7,4.8-5.7c2-1.9,3.9-3.6,4.3-3.9c4.2,0.2,12.6,0.4,17.6-0.1l0,0.3c0,0,5.4,2.1,8.5,5.6
							C330.1,360.2,330.2,360.7,330.3,361.2z"/>
					</g>
				</g>
				<g>
					<g>
						<path class="st8" d="M270.7,127.1c0-4.6,0.9-8.3,2-11.2c1.3-3.5,3-5.7,3.5-6.3c1.9,0.8,3.9,1.5,5.9,2l0,0.1
							c0,4.2-0.4,8.2-2.1,12c0.1,0.2,0.3,0.5,0.4,0.7l0,0C276.6,122.9,270.7,127.1,270.7,127.1z"/>
					</g>
				</g>
				<g>
					<g>
						<path class="st8" d="M347.4,165.1c1.9,4.6,3.9,9.3,3.9,9.5c0,0.2-2.6,2.2-6.7,4.1c-4.6,2.1-11.1,4.1-18.4,3.6
							c-0.8,0-1.7-0.1-2.6-0.3c0,0-0.5-4.7-1-8.5c12.8,2.1,24.6-8.4,24.6-8.4L347.4,165.1z"/>
					</g>
				</g>
				<g>
					<g>
						<path class="st6" d="M327.2,241.2c0,2.1,0.1,3.8,0.1,4.5c-0.1,0.3-0.2,0.5-0.3,0.8c-0.2,0.5-0.4,1-0.6,1.4l-0.4-0.2
							c0,0-2.5,3.3-7.1,2.3c-4.6-1-5.9-24.7-5.9-24.7l0-0.6c1.2-0.1,2.6-0.3,4-0.5v0c0,0,1,17.8,4.3,18.8
							C323.4,243.4,326.6,241.6,327.2,241.2z"/>
					</g>
				</g>
				<g>
					<g>
						<path class="st6" d="M327,223c-0.1,0.6,0.1,11.6,0.2,18.2c-0.6,0.3-3.8,2.2-6,1.9c-3.3-1-4.3-18.8-4.3-18.8v0
							C320.7,223.8,324.9,223.3,327,223z"/>
					</g>
				</g>
				<g>
					<g>
						<path class="st8" d="M303.9,123.9L303.9,123.9c-0.5-0.8-0.7-2.2-0.9-3.1c-0.5-2.7,0-5.9,0.6-8.6l0-0.2
							c2.2-0.5,4.3-1.2,6.4-2.1c0.9-0.4,1.9-0.9,2.8-1.4c2.5,3.5,3.4,7.1,3.5,10.3c0.2,7-3.4,12.5-3.4,12.5
							c-5.5-7.6-11.7-4.4-12.5-3.9l-0.2-0.3C301.6,126.1,302.9,125.1,303.9,123.9z"/>
					</g>
				</g>
				<g>
					<g>
						<path class="st10" d="M305.2,70.5c1.7,0.7,4.4,3.1,2.7,3.2c-2.6-1.2-7.7-0.4-7.7-0.4C301.1,70.6,303.5,69.8,305.2,70.5z"/>
					</g>
				</g>
				<g>
					<g>
						<path class="st11" d="M305.2,81.5c1.4,0,2.6,1.6,2.6,3.6c0,2-1.2,3.6-2.6,3.6c-1.4,0-2.6-1.6-2.6-3.6
							C302.6,83.1,303.7,81.5,305.2,81.5z"/>
					</g>
				</g>
				<g>
					<g>
						<path class="st8" d="M292.2,129.6L292.2,129.6c-1,3.6-1.7,19.5-1.7,19.5c-2.5,0.9-7.8-0.4-7.8-0.4c-0.7-8.9,1.4-19.4,1.6-20.7
							c0,0,0.1,0.1,0.1,0.1C286.7,129.4,289.5,129.9,292.2,129.6z"/>
					</g>
				</g>
				<g>
					<g>
						<path class="st10" d="M276.8,70.5c0.4,0.7,0.7,1.2-1.4,0.7c0,0-3.4-0.6-6.1,1.3c0,0,0.1-1.9,2.2-3.4
							C273.6,67.6,275.6,69.3,276.8,70.5z"/>
					</g>
				</g>
				<g>
					<g>
						<path class="st11" d="M273.8,79.3c1.4,0,2.5,1.5,2.5,3.5c0,1.9-1.1,3.5-2.5,3.5c-1.4,0-2.5-1.6-2.5-3.5
							C271.3,80.8,272.4,79.3,273.8,79.3z"/>
					</g>
				</g>
				<g>
					<g>
						<path class="st5" d="M249.2,71.5c0.5-2.4,1.9-4.2,3.8-3.8c3.5,0.6,4.5,3.7,4.8,4.6c-0.3,1.8-0.8,4.7-0.8,7.9h-0.3
							c-0.3,0.3-2.3,1.3-5-0.5C249.2,77.9,248.6,74.3,249.2,71.5z"/>
					</g>
				</g>
				<g>
					<path class="st12" d="M303,120.2c0.2-0.5,1.3-7.2,3.8-6.6c2.5,0.6,5.6,5.9,4.8,15.5l-0.1,1.2l1.4,0.8c0,0,3.9-4.7,3.4-12.3
						c-0.8-6.2-4.4-10.5-4.4-10.5s-5.8,3-8.7,3.6L303,120.2z"/>
				</g>
				<g>
					<path class="st12" d="M279.7,111.5c0,0-2.8,4.2-1,8.9c1.2,3.3,1.4,3.3,1.6,3c0.2-0.3,1.1-1.7,1.3-2.1c0.2-0.4,0.6-9.1,0.6-9.1"
						/>
				</g>
			</g>
		</g>
		<path class="st13" d="M317.1,18.5c0,7.9-4.1,16.7-11.3,20.6c-5.3,2.9-14.5,3.6-19.9,0.9c2.1,2.4,4.7,4.9,8,5.5
			c3.5,0.7,7.5-0.6,10.9-1.5c7.3-1.9,13.5-7.6,15.5-15c0.7-2.8,1.5-14.3-3.6-9.6"/>
		<path class="st13" d="M328,6.8c0,0,13.8,20.7-1.5,38.7c-11.5,9.6-21.1,7.1-23.8,2.7c0,0-7.3,9-15.1,8.1c0,0,9.8,3.8,16-5.5
			c0,0,7.1,14,18.8,5.6c0,0-7.3,20.8,8.8,22.2c0.8-0.1,2.3-4.9,7.8-3.7c3,0.8,3.5,3.8,3.2,7.5c0,0,5.8-0.5,8.7-4.9
			c2.4-3.7,1.1-7.2-2.3-10.9c-2.4-2.6-0.6-5.2,0.6-6.5c1.2-1.3,7.3-12.8-0.5-21.7c-6.3-7-11.3-8.8-11.3-8.8l10-0.2
			c0,0-0.8-11.4-12.4-9.5l-1.1,0.7C333.9,20.5,336.1,9.3,328,6.8z"/>
		<path class="st14" d="M316.7,19c-0.2,0.2,2.5,10.7-9.8,19.1c-11.1,5-15,5.4-20.1,2.3c0,0,3.6,5.7,14.2,4.7
			c10.6-1.1,20.5-13.5,19.4-23.2C319.6,16.6,317.8,18.1,316.7,19z"/>
		<path class="st15" d="M295.9,32.6c-0.3,0,5.4,1.5,8.4-0.9c3.1-2.4,2.8-4.8,1.7-4.4C304.9,27.6,301,33.3,295.9,32.6z"/>
		<path class="st15" d="M290.9,24.4c-0.2-0.1,4.5,4.2,7.7,1.5c1.8-2.3-0.8-2.3-1.9-1.7C295.7,24.8,292.6,25.4,290.9,24.4z"/>
		<path class="st15" d="M273.1,20.2c0,0-6,9.8-0.3,18.6c-0.1-0.2-4.9-0.3-5-9.4c-0.1-9.1,4-10.6,5.6-10.7
			C274.5,18.7,273.1,20.2,273.1,20.2z"/>
		<path class="st15" d="M265.4,23.1c0,0-9,15.9,3.4,24.9c0,0-4.5,0.3-7.9-5.1c-3.4-5.4-0.6-17.2,1.9-20.1
			C265.4,20,265.4,23.1,265.4,23.1z"/>
		<path class="st15" d="M253.8,37.1c0,0-3.5,6.8,1.1,14c1.3,1.9-2.4,7.6-2,9.6c0.4,2.1-3.4,0.4-4.3-0.9c-0.9-1.3-0.8-5.7-0.8-5.7
			s-9.1,9.2,1.5,17.1c0.4-0.2,2.1-5.2,5.2-3.1c2.4,1.6,3.8,4.1,3.8,4.1s1.1-4.4,1.2-6.2c0.2-1.8-0.8-14.4,0.5-16.1
			C260,49.8,254.8,40.7,253.8,37.1z"/>
		<path class="st16" d="M271.5,119.4c0.2-0.5-2.9,9.6-0.9,14c0.6-0.3,9.4-4.1,12.8-3c0,0,1.3-1.8,1-2.3c-0.4-0.5-4-3.7-4-3.7
			s-5.2-0.5-8.5,1.9C270.8,127.1,269.9,122.9,271.5,119.4z"/>
		<path class="st16" d="M295.8,129.4c0,0,11.1-1.4,15.8,2.8c4.7,4.8,7.1,6.5,9.3,3.9c2.2-2.6,2.7-13,2.7-13l-7-3.9
			c0,0-0.1,8.6-4.1,11.7c0,0-5.7-6.2-10-4.6C298,128.1,295.8,129.4,295.8,129.4z"/>
		<path class="st16" d="M260.6,141.9c-0.1-0.3-6.6,26.4-6.7,29.1l4.9,1C258.8,171.9,261.6,144.5,260.6,141.9z"/>
		<path class="st17" d="M254.2,172.2l-1.1,6.5c0,0,5.9-0.1,6-0.1c0.1,0,0.2-6.1,0.2-6.1S255.9,171.8,254.2,172.2z"/>
		<path class="st18" d="M253.9,253.7c0,0,1.2,0,1.2-0.9c0-0.9-1.9-3.3-1.7-3c0.1,0.2,2.2,1.3,2.3,0.4c0.1-0.9-3.3-5.7-3.3-5.7
			s2.1-5.4,2-7.2c-0.1-1.8-1.3-5.8-1.3-5.8s5.6-17.7,5.7-18.7c0,0-3.8-1.9-2.9-5.5c2-7.9,3.2-28.2,3.2-28.8c0,0-5.2,1.3-7,0.1
			l-0.5,2.3l5.6,2.6c0,0-2.6,18.9-3.9,23.5c-1.3,4.6-3.4,16.8-4,19.8c-0.6,3,0.2,7.7,0,8.7c-0.7,4.1-4.8,11.3-4.8,11.3
			s-1.3,9.1,6,11c0,0,3.2-0.8,3.6-0.7c0.4,0.1,0.7-0.4,0.7-0.4s0-2.5-1.3-3"/>
		<path class="st18" d="M326.4,181.9l0.2,2.9c0,0,13.9-0.3,14.1-0.3s1,20,1.1,26.9c0.1,7-0.9,21.4-0.8,23.2
			c0.1,1.8,6.6,14.2,6.5,15.1c-0.1,1-8.7,4.1-9.6,4.7c-1,0.6-6.1,11.9-5.6,13.1c0.5,1.2,2.5,0.1,2.5,0.1s1.7,2.7,2.7,1.6
			c1-1.2,2.3-2.5,2.3-2.5s2.6,0,3.2-0.9c0.6-0.9,1.6-1.6,1.6-1.6s0.7,0.4,1.2-0.1c0.4-0.6,5.4-8.8,5.3-10.9
			c-0.1-2.2-2.1-7.4-3.7-10.6c-1.6-3.3-3-8.2-3-8.2s1.3-21.9,1.5-28.9c0.2-5.4-0.3-21.5-2.1-26.7
			C343.6,178.7,335.4,183.2,326.4,181.9z"/>
		<path class="st16" d="M320.8,167.6c0.1,0.3-0.4,13-0.2,20.3c0.2,7.3-1.5,18.6-3.9,21.9c-2.5,3.3-7.9,5.9-7.9,5.9s-3.5,0.9-3.3,1
			c0.2,0.1,0.8,1,0.8,1s7.1,2.5,6.8,6.4c-0.3,3.9,0.1,0.8,0.1,0.8l16.2-2.6l-0.3-7.8l1.7-3c0,0-1.4-10.8-1.6-11.6
			c-0.2-0.9-1.2-7.4-1.2-7.8c0-0.4-1.6-9.7-1.8-9.9c-0.2-0.2-2.7,0.3-2.5,0c0.1-0.2-2.1-15.9-2.1-15.9L320.8,167.6z"/>
		<g id="XMLID_69_">
			<g>
				<path class="st19" d="M295.9,226.5c8.4,0,31.6-3.4,31.6-3.4l-0.1,11.4l0,11.3c0,0.1-0.1,0.5-1.4,2.9c-2.7,4.5,1.7,5.6,1.7,5.6
					s-0.3,7.1-0.5,10.1c-0.1,3,0.4,21.5,0.7,26.1c0.3,4.5-0.3,15.7-0.3,15.7s3.6,7.3,4.4,13c0.8,5.7,0.5,19.3,0.5,20.4
					s-1.6,4.8-1.7,5.2c-0.1,0.4,4.3,10.5,4.3,10.5s-1.5,2.8-1.8,3.2s-2.7,2-2.7,2l-2.9-2.8l-2.7-2.3c0,0-3.2,2.1,0.2-0.3
					c3.4-2.4-1.1-17.7-1.3-19.4c-0.1-1.7-2.1-5.9-1.8-7.1c0.2-1.2,2.2-6,1.8-9.1c-0.5-3-4.7-18.9-4.7-18.9s-1.7-7.4-1.7-7.9
					c0-0.4,2.7-2.2,2.7-3.1c0-0.9-0.3-10-0.8-16.8c-0.5-6.8-2.1-41.9-2.1-41.7c0,0.2-8.6,8.8-12.3,12.5c4.7-5.3,10.7-16.3,10.1-16.1
					c-0.7,0.2-25.1,1.3-29.7,1.1c-4.7-0.1-19.3-3.7-19.3-3.7s10,20.8,11.4,23.5c-1.6-2.6-13.9-21.8-14.8-23.5l0.8-2.7l1.5,0.4
					C264.6,222.6,287.4,226.5,295.9,226.5z"/>
			</g>
			<g>
			</g>
		</g>
		<path class="st19" d="M287,260.2c0,0-0.5,19.2-0.8,21.4c-0.3,2.2-1.3,7.3-1,9.4c0.3,2.1,0.5,3.7,0.4,4.7c-0.1,1,0.6,13,0.9,14.8
			c0.3,1.9-0.8,1.9-1.4,7.3c-0.6,5.4-0.5,14.7-0.8,16.9c-0.3,2.2-0.2,5.3,0.2,5.8c0.4,0.5,2.3,4.8,2.2,5.2c-0.1,0.4-3.3,4.8-3.7,4.5
			c-0.4-0.2-7.3-2.3-7.6-2.4c-0.4-0.1-3.7,0.5-4.1,0.7c-0.4,0.1,14.8,6.3,17.1,8.8c2.2,2.5,3,4.9,3.2,4.6c0.2-0.3,3.7-4.6,3.7-4.6
			l-5.6-10.6l1-4.3l-0.1-9.6c0,0,0.4-22.1,0.9-23.7c0.5-1.6,0.1-2.2-0.1-2.6c-0.1-0.4-2.1-3.5-1.9-3.9c0.2-0.4,1.6-13.1,2.1-13.9
			c0.4-0.8,0.1-15.7,0-16.3c-0.1-0.6-0.4-10.2-0.4-10.2L287,260.2z"/>
		<path class="st20" d="M279.6,353.5c0,0.3,1.4,8.3-3.1,10.4c-4.5,2.1-23,1.2-23.8,1.2c-0.8,0-2.7,0.5-3,0.7
			c-0.3,0.2,2.4,1.3,2.7,1.3c0.3,0,34.5,0.7,36.3-1.3c1.8-1.9,1.5-6.8-0.5-8.4C286.2,355.9,279.6,353.5,279.6,353.5z"/>
		<path class="st20" d="M315.7,354.5c0.3,0.2,7.9,5.9,6.2,9.6c-1.6,3.6-18.5,7.1-18.6,7c-0.1-0.1,24.9,0.5,26.3-1.1
			c1.3-1.6,1.4-5.4,1.6-5.6c0.1-0.2-1.6-4.3-1.6-4.3s-4.9-4.7-6.7-5.4C321.1,353.9,315.7,354.5,315.7,354.5z"/>
		<path class="st18" d="M259.5,59.8c0.1,0.7,1.4-1.5,1.8-2.1c0.4-0.5,1.3-2,1.9-2.2c0.2,0,0.6,0.2,0.8,0.3c0.5,0.2,1,0.3,1.5,0.5
			c3.2,1.2,7.2,1.8,10.7,1c0.8-0.2,1.5-0.4,2.1-0.8c0.2-0.1,0.9-1.1,1-1.1c0.2,0,0.6,0.6,0.7,0.7c0.5,0.5,1.1,0.9,1.8,1.3
			c3.1,1.8,6.2,2.3,9.8,2.3c2.2,0,4.3-0.6,6.4-1.1c1.3-0.4,3.7-1,4.5-2.3c2.1,2.5,4.8,4.4,8,5.2c1.6,0.5,3.4,0.6,5.1,0.5
			c1.2-0.1,2.1-0.5,3.2-0.9c0,0.4-0.2,0.9-0.3,1.4c-0.1,0.9,0,1.7,0.1,2.6c0.2,1.9,0.4,4.1,1,6c0.6,2,2,3.4,3.5,4.9
			c0.7,0.8,1.5,1.5,2.4,2.2c0.4,0.3,0.8,0.7,1.2,1c0.4,0.3,0.9,0.3,1.1,0.8c0.2,0.5-0.1,1.5-0.2,2.1c-0.1,0.7-0.1,1.4-0.2,2.1
			c-0.3,2.8-0.8,5.5-1.7,8.2c-0.7,2.2-1.6,4.5-3,6.4c-0.7,0.9-1.4,1.9-2.2,2.7c-0.8,0.8-2.9,3.3-3.6,4.2c0.8-0.5,2.3-1.3,3-1.8
			c1.1-0.8,3-2.7,4-3.6c1.6-1.3,2.4-3.1,3.4-4.9c0.8-1.4,1.6-2.8,2.4-4.2c0.7-1.3,0.6-2.7,1-4c0.2,0.6,0.5,1.3,0.9,1.8
			c0.5,0.7,1.4,0.6,2.3,0.6c0.9,0,2.2,0,3-0.4c0.5-0.3,1-0.8,1.4-1.2c0.8-0.8,1.8-1.4,2.5-2.3c0.8-0.9,1.1-2.5,1.2-3.7
			c0.1-1.2,0.2-2.7,0-4c-0.4-2.4-2.4-3.5-4.8-3.3c-1.3,0.1-2.8,0.6-3.9,1.3c-1.2,0.7-1.3,1.1-1.8,2.3c-0.3,0.8-0.4,0.5-1.2,0.4
			c-0.7-0.1-1.4,0-2.1-0.3c-1.4-0.6-2.8-1.2-3.9-2.3c-0.9-1-1.9-1.8-2.4-3.1c-0.7-2.1-1.2-4.6-1.4-6.8c-0.2-1.8,0.1-4,0.5-5.8
			c0.2-0.8,0.5-1.5,0.6-2.2c0.1-0.3,0.3-1.1,0.1-1.1c0,0-6.2,2.6-9,2.3c-4-0.4-8.3-5.3-9.4-7.8c0,0-6.4,6.5-13.9,5.7
			c-7.4-0.8-14.2-9.5-14.2-9.5s0,7.8-4.4,8.3c-9,1-11.5-7.5-11.6-7.6C259.5,48.3,258.9,56.8,259.5,59.8z"/>
		<path class="st18" d="M282.4,111.7c0,0-0.7,7.6-2,10.4c-1.3,2.8-0.3,2.5-0.3,2.5s6.7,5.5,10.5,5.6c3.8,0.1,10.7-2.3,12.9-6.6
			l-0.4-5.5l0.4-6.1C303.6,112,289.2,114.5,282.4,111.7z"/>
		<ellipse class="st21" cx="311.6" cy="94.2" rx="6.9" ry="5.3"/>
		<ellipse transform="matrix(0.112 -0.9937 0.9937 0.112 149.7683 352.0016)" class="st21" cx="271.8" cy="92.2" rx="5" ry="6.5"/>
		<path class="st21" d="M287.9,87.5c-3.5-1.1-6.2,3-2.4,4.9c0.6,0.3,1.5,0.4,2.1,0.2c0.4-0.1,1.3-0.6,1.5-1.3
			c0.3-1.2,1.1-3.3-1.1-3.8"/>
		<g>
			<g>
				<path class="st10" d="M249.4,72.3c-0.2-0.2-0.4-0.3-0.5-0.5c-4.4-4-6.5-8-6.1-11.8c0.3-3.9,3-6.3,4.2-7.2
					c-4-4.5-5.7-8.8-5.1-12.9c1-6.9,8.2-11.3,11.7-13.4l0.4-0.3c3.8-2.3,8.3-8.3,11.7-12.7c1.1-1.4,2-2.6,2.7-3.5
					c1.2-1.4,12.4-13.9,35.2-8.9c15,3.3,20.1,10.1,21.7,13.6c0-3.8-1.5-8.4-1.6-8.5L323.6,6l0.2-0.2c0.1-0.1,2-1.8,5.5,0.1
					c7.7,6.2,4.7,14.5,4.6,14.6l-0.9-0.3c0.1-0.3,2.8-7.7-4.2-13.5c-2.2-1.2-3.5-0.7-4-0.4c0.5,1.4,2.1,7,1.3,10.8l-0.5,2.4
					l-0.4-2.4c0-0.1-2.2-10.7-21.7-15C281-2.8,270.2,9.3,269,10.7c-0.7,0.9-1.7,2.1-2.7,3.5c-3.4,4.4-8,10.5-11.9,12.9l-0.4,0.3
					c-3.3,2.1-10.3,6.3-11.2,12.7c-0.6,3.9,1.2,8.1,5.2,12.5l0.4,0.4l-0.5,0.3c0,0-3.8,2.5-4.2,6.8c-0.3,3.5,1.7,7.2,5.9,11
					c0.2,0.2-0.1-0.1,0.1,0L249.4,72.3z"/>
			</g>
			<g>
				<path class="st10" d="M258.2,71.7l-1,0c0-0.2,0-0.3,0.2-0.9l0.2-0.8c1-3.3,1.4-6,1.1-8.3c-0.6-4.5-0.2-10.4,0.2-12.9l0-0.1
					l0.9,0.1l0,0.2l0,0c-0.4,2.4-0.8,8.1-0.2,12.6c0.3,2.4-0.1,5.3-1.1,8.7l-0.2,0.8C258.3,71.4,258.2,71.6,258.2,71.7z"/>
			</g>
			<g>
				<path class="st10" d="M330.4,78.9c-3.2,0-5.7-1-7.4-3.1c-4.2-5-2.7-14.6-2-17.6c-4.3,1.9-8,2.1-11.2,0.7
					c-3.8-1.7-5.5-5.3-6.1-6.8c-4.4,4-9,5.9-13.7,5.4c-6.7-0.6-11.6-5.6-13.6-7.9c-0.1,2-1.1,5.4-6.3,6.8c-4.9,0.5-8.6-2-10.9-7.2
					c-1.1-2.4-1.8-5.4-2.2-8.7c0-0.1,0-0.2,0-0.2L257,40c-0.5,0.2,0.2,0.2,0.2,0.4c0.4,3.2,1.7,5.9,2.8,8.3c2.2,4.9,5.5,7.1,9.9,6.6
					c6.6-1.8,5.5-7,5.5-7.3l-0.5-2.3l1.4,1.9c0.1,0.1,5.7,8,13.9,8.7c4.6,0.4,9.1-1.5,13.5-5.7l0.6-0.6l0.2,0.8c0,0,1.5,5,5.8,6.9
					c3.1,1.4,6.9,1,11.2-1.1l0.9-0.5l-0.3,1c0,0.1-3.1,12.2,1.6,17.7c1.8,2.1,4.4,3,7.9,2.7l0.1,0v1
					C331.3,78.8,330.8,78.9,330.4,78.9z"/>
			</g>
			<g>
				<path class="st10" d="M342.2,83.3v-1c0.1,0,7.1-0.3,9.1-6.5c1.4-4.6-1.2-6.7-2.5-7.8l-0.3-0.2c-1.6-1.3-2.8-4.7,0.2-8.5
					c0.7-1,4.4-6.1,3.1-12.8c-1.1-6.1-5.9-11.8-14.1-16.8l-1.5-0.9h1.7c0.1,0,5.8,0,8.8,0.1c-0.2-1.3-1.1-4.8-3.9-6.8
					c-2.3-1.7-5.4-2-9.3-1.1c-0.2,0-0.4,0.1-0.6,0.1l-0.2,0l-0.2-0.3l0.1-0.7c0.2-0.1,0.4-0.1,0.6-0.2c4.1-1,7.5-0.5,10.1,1.3
					c3.9,2.8,4.4,7.9,4.4,8.1l0,0.5l-0.5,0c-1.9-0.1-5.5-0.1-7.7-0.1c7.6,4.9,12,10.5,13.1,16.5c1.3,7.2-2.5,12.6-3.3,13.6
					c-2.9,3.7-1.2,6.4-0.3,7.2l0.3,0.2c1.4,1.2,4.4,3.6,2.8,8.8C349.9,83.1,342.3,83.3,342.2,83.3z"/>
			</g>
			<g>
				<path class="st22" d="M254.9,81.1c-0.9,0-2.1-0.3-3.4-1.1c-2.8-1.9-3.4-5.7-2.8-8.6c0.7-2.9,2.4-4.6,4.4-4.2
					c3.8,0.6,4.9,4,5.1,5c0,0.1,0,0.2,0,0.2l-0.9,0.3c0,0,0-0.1-0.1-0.3c-0.2-0.8-1.2-3.6-4.4-4.2c-1.6-0.3-2.8,1.5-3.3,3.5
					c-0.6,2.5-0.1,6,2.3,7.6c2.4,1.6,4.1,0.8,4.4,0.6l0.7,0.7C256.8,80.7,256,81.1,254.9,81.1z"/>
			</g>
			<g>
				<path class="st22" d="M256.8,74.8c-0.1-0.2-1.6-3.7-5-3l0-0.4c4.3-1.7,5.9,2.9,5.9,3L256.8,74.8z"/>
			</g>
			<g>
				<path class="st22" d="M253.8,77c-0.5-1.5-0.3-2.6,0.1-3.2c0.5-1,1.3-1.5,1.6-1.5l0.3,0.9c0,0-2.6,1.2-1.7,3.7L253.8,77z"/>
			</g>
			<g>
				<path class="st22" d="M294,113.6c-4,0-8-0.5-12-1.6c-2-0.5-4-1.2-6-2c-1.5-0.6-2.9-1.3-4.4-2c-8.4-4.5-13.9-13.5-14.9-24.1
					c-0.1-1.2-0.2-2.4-0.2-3.7c0-3.2,0.4-6.1,0.8-7.9c0.2-1.2,0.4-1.9,0.4-2.1l0-0.1l0.1-0.1l0.3,0.3h0.6c0,0-0.1,0.2,0,0.2
					c0,0.2-0.2,0.9-0.4,2c-0.3,1.8-0.7,4.6-0.8,7.8c0,1.3,0.1,2.5,0.2,3.6c1,10.3,6.3,19,14.4,23.3c1.4,0.8,2.9,1.4,4.3,2
					c1.9,0.8,3.9,1.4,5.9,1.9c7.2,1.9,14.5,2.1,21.2,0.5c2.2-0.5,4.3-1.2,6.3-2.1c1-0.4,2.1-1,2.9-1.4c8-4,12.3-8.4,15.5-15.7
					c0.9-1.9,1.5-4.1,2-6.1c2,1.9-1.6,7.6-2.6,9.4c-1.9,3.3-4.2,6.2-7.2,8.6c-3,2.4-5.5,3.8-7.3,4.8c-0.9,0.5-1.9,0.8-2.9,1.3
					c-2.1,0.9-4.3,1.6-6.5,2.1C300.6,113.2,297.3,113.6,294,113.6z"/>
			</g>
			<g>
				<path class="st22" d="M333.9,90c-0.6,0-1.2-0.1-1.8-0.3c-1-0.3-1.6-0.9-2.1-1.7l0.6-1c0.3,0.6,1.1,1.6,1.8,1.8
					c2,0.7,4.5-0.3,5.9-1.5c1.8-1.6,2.7-3,3.1-4.7c0.1-0.2,0.1-0.5,0.1-0.7c0.2-1.9,0.2-5.3-2.8-6.7c-1.1-0.5-2.3-0.5-3.4,0.1
					c-2.7,1.5-3.2,2.5-3.2,2.9l0,0.2h-1v-0.3c0.1-1.2,1.3-2.4,3.7-3.7c1.4-0.8,2.9-0.8,4.3-0.2c2.6,1.2,3.8,3.9,3.3,7.6
					c0,0.3-0.1,0.5-0.2,0.8c-0.5,2.3-2,3.8-3.4,5.1C337.7,89.1,335.7,90,333.9,90z"/>
			</g>
			<g>
				<path class="st22" d="M332.2,80.2c-0.4-0.6,0.8-1.6,0.8-1.6c0.4-0.4,1-0.6,1.4-0.8l0.2-0.1c1.9-0.8,3.9-0.8,5.4,0.7l-0.1,0.4
					c-1.5-0.8-3.4-0.8-5-0.2l-0.2,0.1c-0.4,0.2-0.9,0.3-1.1,0.6c-0.2,0.1-0.5,0.6-0.6,0.7l-0.5,0.3L332.2,80.2z"/>
			</g>
			<g>
				<path class="st22" d="M334.5,86l-0.3-0.1c0.8-0.2,1.3-1.7,1.6-2.5c0.2-0.8-0.1-1.9-0.5-2.5c-0.4-0.6-0.8-1.1-1.2-1.2
					c-0.1,0-0.2,0-0.3,0l-0.5-0.8c0.3-0.2,0.7-0.3,1-0.2c0.8,0.2,1.5,1.1,1.8,1.6c0.5,0.8,0.9,2.2,0.6,3.3
					C336.4,84.8,335.5,85.7,334.5,86z"/>
			</g>
			<g>
				<path class="st11" d="M273.8,86.7c-1.6,0-2.9-1.8-2.9-3.9c0-2.2,1.3-3.9,2.9-3.9c1.7,0,2.9,1.7,2.9,3.9
					C276.7,84.9,275.4,86.7,273.8,86.7z M273.8,79.7c-1.1,0-2,1.3-2,3c0,1.6,0.9,3,2,3c1.1,0,2-1.4,2-3
					C275.7,81.1,274.8,79.7,273.8,79.7z"/>
			</g>
			<g>
				<path class="st11" d="M305.2,89.3c-1.7,0-3.1-1.9-3.1-4.1c0-2.3,1.4-4.1,3.1-4.1c1.7,0,3.1,1.9,3.1,4.1
					C308.2,87.4,306.9,89.3,305.2,89.3z M305.2,82c-1.1,0-2.1,1.4-2.1,3.2c0,1.7,1,3.2,2.1,3.2c1.1,0,2.1-1.4,2.1-3.2
					C307.3,83.4,306.3,82,305.2,82z"/>
			</g>
			<g>
				<path class="st22" d="M286.5,93.1c-0.8,0-1.5-0.2-2.1-0.6c-1.1-0.8-2-2.5-1.5-3.9c0.5-1.3,1.7-1.9,3.4-1.9c1,0.1,2.3,0.5,3,1.3
					l-0.1,0.1c-0.4-0.5-2.2-0.3-3-0.4c-1.3,0-2.1,0.4-2.4,1.2c-0.4,1,0.3,2.2,1.1,2.8c0.6,0.4,1.8,0.9,2.6,0.7l0.1,0.5
					C287.2,93.1,286.8,93.1,286.5,93.1z"/>
			</g>
			<g>
				<path class="st22" d="M290.8,97.8c-1.6,0-3.2-0.1-4.7-0.2c-0.7,0-1.1-0.2-1.8-0.3c-0.5-0.1-1.8-1.1-2.3-1.1l0.6,0
					c0.5,0,1.1,0.1,1.6,0.2c0.6,0.1,1.2,0.2,1.9,0.2c1.9,0.1,3.7,0.2,5.6,0.2c1.9,0,3.5-0.2,4.8-0.5c0.2,0,0.4-0.1,0.7-0.2
					c0.2-0.1,0.4-0.2,0.6-0.2l0.2,0.9c-0.1,0-0.3,0.1-0.4,0.2c-0.3,0.1-0.5,0.2-0.8,0.3c-1.4,0.3-3.1,0.5-5,0.5
					C291.4,97.8,291.1,97.8,290.8,97.8z"/>
			</g>
			<g>
				<path class="st22" d="M299.1,97.2l-1-0.1c-0.1-0.1-0.7-0.7-0.9-0.8l0.2-0.4l-0.2-0.5c0.3-0.1,0.6,0.1,0.7,0.2
					C298,95.7,299.1,96.5,299.1,97.2z"/>
			</g>
			<g>
				<path class="st22" d="M291.7,103.4c-0.9,0-1.9-0.2-2.6-0.8l-0.3-0.7c0.5,0.5,2.7,0.7,4.1,0.4l0.2,1
					C292.6,103.3,292.2,103.4,291.7,103.4z"/>
			</g>
			<g>
				<path class="st22" d="M280.4,124.2h-0.7l-0.3-0.4l0.1-0.3l0.1,0l0-0.1c1.8-4,2.1-8,2.1-11.8h1c0,3.7-0.3,8-2.1,12.1L280.4,124.2
					z"/>
			</g>
			<g>
				<path class="st22" d="M303.5,124.1c-0.5-0.7-0.6-1.8-0.8-2.7l-0.1-0.5c-0.5-2.7,0-5.8,0.6-8.8l1,0.2c-0.6,2.9-1,5.9-0.6,8.4
					l0.1,0.5c0.1,0.8,0.3,1.8,0.6,2.4L303.5,124.1z"/>
			</g>
			<g>
				<path class="st23" d="M290.6,130.2c-2.4,0-4.6-0.5-6.4-1.6c0,0-0.1-0.1-0.2-0.1c-1.7-1-3-2.3-4-3.8c-0.1-0.1-0.2-0.3-0.3-0.4
					c-0.1-0.1-0.1-0.2-0.2-0.3c-1.8-3.3-1.7-6.5-1.7-6.6l0.2-0.1c0,0,0.7,3.2,2.3,6.2c0,0.1,0.1,0.2,0.2,0.3
					c0.1,0.1,0.1,0.2,0.2,0.4c0.9,1.5,2.2,2.7,3.8,3.6l0.1,0.1c2.1,1.2,4.6,1.6,7.4,1.4c2.7-0.3,5.4-1.2,7.8-2.5
					c1.4-0.8,2.6-1.8,3.6-3c0.5-0.6,1-1.1,1.5-1.6l0.6-0.3c-0.1,0.7-0.3,1.6-1.4,2.6c-1.2,1.1-2.3,2.3-3.8,3.2
					c-2.5,1.5-5.4,2.4-8.2,2.7C291.7,130.1,291.2,130.2,290.6,130.2z"/>
			</g>
			<g>
				<path class="st23" d="M271.2,126.1c0.1-3.6,0.8-7,1.9-10.1c1.2-3.2,2.6-5.2,3.3-6c-0.3-0.1-0.6-0.2-0.9-0.3c0,0,0,0-0.1-0.1
					c-0.7,0.9-2.1,2.9-3.2,6c-1.3,3.5-2,7.3-2,11.4l0,1l0.8-0.6c0.1,0,5.7-4,9.2-2.6l0.4-0.9C277.3,122.6,273,125,271.2,126.1z"/>
			</g>
			<g>
				<path class="st23" d="M313.4,108.5C313.4,108.5,313.4,108.5,313.4,108.5c-0.1,0.1-0.1,0.1-0.2,0.2c0,0-0.1,0-0.1,0.1
					c-0.2,0.1-0.4,0.2-0.5,0.3c2,3,3.1,6.3,3.2,9.8c0.2,5.4-2.1,10-2.9,11.6c-5.6-7.1-12-3.9-12.7-3.5L300,127l0,0.5
					c1.1-0.6,7.4-3.1,12.6,4l0.4,0.6l0.4-0.6c0.1-0.2,3.7-5.7,3.5-12.7C316.7,115.1,315.5,111.7,313.4,108.5z"/>
			</g>
			<g>
				<path class="st23" d="M288.2,149.9c-2.6,0-5.4-0.7-5.6-0.7l-0.3-0.1l0-0.4c-0.7-9.3,1.5-20.4,1.6-20.8l1,0c0,0,0,0.1,0,0.3
					c-0.1,0.4-2.2,11.1-1.6,20.2c1.1,0.2,4.8,0.9,6.9,0.4c0.1-2.4,0.7-15.9,1.7-19.2l0.9,0.3c-1,3.5-1.7,19.2-1.7,19.4l0,0.3
					l-0.3,0.1C290,149.8,289.1,149.9,288.2,149.9z"/>
			</g>
			<g>
				<path class="st23" d="M257.3,179.7c-1.8,0-3.7-0.4-5.7-1.1c-4.6-1.6-8.1-4.5-8.2-4.6l-0.3-0.3l0.2-0.4c0.6-1.2,1.4-3.2,2.3-6.1
					c0-0.1,0.1-0.2,0.1-0.3c0-0.1,0.1-0.2,0.1-0.3l0.9,0.3c0,0.1-0.1,0.2-0.1,0.3c0,0.1-0.1,0.2-0.1,0.3c-0.8,2.7-1.6,4.6-2.2,5.9
					c0.9,0.7,4,2.9,7.6,4.2c2.6,0.9,5,1.2,7.1,0.9c0,0,0.1,0,0.2,0v1h0c0,0,0,0-0.1,0C258.4,179.6,257.9,179.7,257.3,179.7z"/>
			</g>
			<g>
				<path class="st24" d="M246.6,167l-0.9-0.3c1.7-5.5,3.7-13.2,5.5-19.9c2.2-8.6,4-15.3,4.9-16.9c2.1-3.4,16.3-15,16.4-15.1
					l-0.3,1.4l0.1-0.5l-0.2,0.6c-0.6,0.5-13.2,11-15.2,14.2c-0.9,1.4-2.8,8.8-4.8,16.6C250.3,153.8,248.4,161.4,246.6,167z"/>
			</g>
			<g>
				<path class="st23" d="M257.9,172.5c-6.2,0-10.9-3.6-12.2-4.7l-0.2-0.2l0.7-0.7l0.2,0.2c1.4,1.2,6.5,5,12.9,4.4l0.1,1
					C258.8,172.5,258.3,172.5,257.9,172.5z"/>
			</g>
			<g>
				<path class="st24" d="M293.5,218.2c-0.2,0-0.4,0-0.5,0c-0.2,0-18.9-0.5-26.5-1.8c-3.4-0.6-5.9-2-7.3-3.1
					c-0.3-0.2-0.5-0.4-0.7-0.6c-2-1.7-3.2-3.7-3.2-5.4c0-1,0.4-3,1-5.6c0.9-4.3,2.2-10.1,2.1-14.8c0-1.6,0.1-4.5,0.2-7.9
					c0.1-1.8,0.2-3.9,0.3-6l0.1-1.1c0.3-5.5,1.4-27.4,1.7-28l0.2,0.2l0.2,0l0,0.5c-0.2,0.8-0.6,15.1-1.1,27.3l-0.1,1.1
					c-0.1,2.1-0.2,4.2-0.3,6c-0.1,3.4-0.2,6.3-0.2,7.9c0,4.8-1.2,10.7-2.1,15c-0.5,2.4-0.9,4.5-0.9,5.4c0,1.3,1.1,3.1,2.9,4.6
					c0.2,0.2,0.4,0.4,0.6,0.6c1.4,1,3.7,2.4,6.9,2.9c6.6,1.1,22.5,1.7,26.4,1.8c1.7,0,6.1-0.2,10-0.3c3.2-0.1,6.3-0.3,7.6-0.3
					c1.5,0,3.3-0.2,4.9-0.5c1.5-0.2,2.9-0.4,4.2-0.5c2.7-0.1,6.6-0.7,7.6-1.1c0.3-0.1,0.6-0.4,1-0.8c0.4-0.5,0.8-1,1-1.4l0.2-0.3
					c0.4-0.5,0.6-1,0.7-1.2l0.3,0.1h0.7l-0.1,0.3c-0.1,0.2-0.4,0.8-0.8,1.3l-0.2,0.3c-0.3,0.4-0.6,1-1.1,1.5
					c-0.3,0.4-0.8,0.9-1.4,1.1c-1.2,0.4-5.2,1-7.9,1.1c-1.2,0-2.6,0.2-4.1,0.4c-1.7,0.2-3.5,0.5-5.1,0.5c-1.3,0-4.3,0.1-7.5,0.3
					C299.3,218.1,295.5,218.2,293.5,218.2z"/>
			</g>
			<g>
				<path class="st24" d="M294.6,227c-2.3,0-6.1-0.4-11.5-1.2c-3.3-0.5-6.3-1-7.9-1.3c-1.4-0.2-3.7-0.6-6.2-1
					c-0.5-0.1-0.9-0.2-1.4-0.2c-0.5-0.1-1.1-0.2-1.6-0.3c-0.9-0.1-1.7-0.3-2.5-0.4c-0.6-0.1-1.2-0.2-1.7-0.3
					c-1.5-0.2-2.5-0.4-2.5-0.4l-0.4-0.1l0-0.4c0-0.3-0.2-7.9-0.2-8.2h1c0,0.2,0.1,4.9,0.2,7.8c0.4,0.1,1.2,0.2,2.1,0.3
					c0.5,0.1,1.1,0.2,1.7,0.3c0.8,0.1,1.6,0.3,2.5,0.4c0.5,0.1,1,0.2,1.6,0.3c0.5,0.1,0.9,0.1,1.4,0.2c2.5,0.4,4.9,0.8,6.2,1
					c1.6,0.3,4.6,0.8,7.9,1.3c6,0.9,10.1,1.3,12.1,1.2c3.5-0.2,8.6-0.7,12.7-1.2l2.6-0.3c0.4,0,0.9-0.1,1.4-0.1l0.8-0.1
					c0.8-0.1,1.8-0.2,2.8-0.3l1.2-0.1c3.9-0.5,8.1-1,10.1-1.3l0.6-0.1c0.3,0,0.5-0.1,0.6-0.1l0.8-0.2l-0.7-8l0.5-0.1h0.5l0.7,8.9
					l-1.7,0.3c-0.1,0-0.3,0.1-0.6,0.1l-0.6,0.1c-1.9,0.3-6.2,0.8-10.1,1.3l-1.2,0.1c-1,0.1-2,0.2-2.8,0.3l-0.8,0.1
					c-0.5,0.1-1,0.1-1.4,0.2l-2.6,0.3c-4.1,0.4-9.2,1-12.7,1.2C295.2,226.9,294.9,227,294.6,227z"/>
			</g>
			<g>
				<path class="st25" d="M262.3,222.3c-0.1,0-0.1,0-0.2,0l0,0c-0.3,0-0.5-0.1-0.8-0.1c-0.1,2.2-0.7,10.3-1.2,19.9l-0.1,1.9
					c-0.1,1.6-0.2,3.2-0.2,4.8c-0.4,8.9-0.6,16.6-0.5,21.7c0.3,15.7,0.8,59.2,0.5,62.2l0,0.2l1-0.1c0.3-3.2-0.2-48.4-0.5-62.3
					c-0.1-5.1,0.1-12.7,0.5-21.6c0-1.6,0.1-3.3,0.2-4.8l0.1-1.9C261.7,232.6,262.2,224.6,262.3,222.3
					C262.3,222.3,262.3,222.3,262.3,222.3z"/>
			</g>
			<g>
				<path class="st25" d="M262.1,351.1c-4.6-1.5-7.6-6.9-7.7-7.2l-0.2-0.3l0.3-0.3c0,0,1.4-1.3,2.4-2.9c0.2-0.3,0.8-1.7,3.1-8
					c2.8-7.7,6.5-18,6.6-18.5l0.1-0.1c-0.1,0.5-2.9,11.2-5.8,18.9c-2.7,7.3-3.1,7.9-3.2,8.1c-0.8,1.2-1.8,2.3-2.3,2.8
					c0.7,1.2,3.4,5.2,7,6.4L262.1,351.1z"/>
			</g>
			<g>
				<path class="st25" d="M289.9,361.7c0,0-0.4-0.7-0.9-1.6l0.8-0.5c0.5,0.9,0.9,1.6,0.9,1.6L289.9,361.7z"/>
			</g>
			<g>
				<path class="st25" d="M289,360.1c-1.3-2.1-1.9-2.7-2.1-2.9c-0.4-0.2-3.6-1.8-7-3.5c-3.9-1.9-8.3-4.1-10.7-5.3l-0.4-0.2
					c-1.2-0.6-1.3-0.7-1.5-0.9l0.4-0.2l0.4-0.3c0.1,0.1,0.6,0.4,1.1,0.6l0.4,0.2c2.3,1.2,6.8,3.4,10.7,5.3c4.1,2,6.7,3.3,7.1,3.5
					c0.3,0.2,1,0.8,2.4,3.2L289,360.1z"/>
			</g>
			<g>
				<path class="st25" d="M289.8,363.7l-0.6-0.8c0,0,0.1,0,0.2-0.1c2.4-2,5-4.6,5.1-5.7c0-0.1,0-0.2,0-0.2c-0.6-0.7-2.2-3.2-4.2-6.5
					l-0.1-0.2c-1.7-2.8-3.6-7.3-4-7.7l0.2,0.2c0.4,0.2,1.4,1.8,4.7,7l0.1,0.2c1.6,2.5,3.5,5.7,4.1,6.4c0.2,0.2,0.3,0.5,0.3,0.9
					c-0.2,1.9-4.2,5.4-5.4,6.4C289.9,363.6,289.8,363.7,289.8,363.7z"/>
			</g>
			<g>
				<path class="st25" d="M290.1,350.2L290.1,350.2c0-0.7,0-4.6,0-9.6c0-15.4,0-29.4,0.4-30.9l0.2-0.7c0.5-1.7,0.5-1.9,0.3-2.4
					c-0.1-0.2-0.7-1.2-1.3-2.3l-0.9-1.6c-2.1-3.6-3.6-7.8-4.1-9.4l0.4,0.4c0.5,1.7,3.2,6.3,4.5,8.5l0.9,1.6c0.8,1.5,1.3,2.2,1.3,2.4
					c0.4,0.9,0.2,1.3-0.3,3.1l-0.2,0.7c-0.4,1.5-0.4,19.7-0.4,30.6c0,5.2,0,8.9,0,9.6L290.1,350.2z"/>
			</g>
			<g>
				<path class="st25" d="M289.8,302.5l-1-0.1c0-0.1,2-14.2,2.6-17.8l0.7,1.9C291.5,290,289.8,302.3,289.8,302.5z"/>
			</g>
			<g>
				<path class="st25" d="M260.8,242.5v-1c0,0,1.3,0,2.2-0.7c0.7-1,2.3-15.3,2.5-17.9v0l1.1,0.1l0,0c0,0.2-1.7,17.5-2.9,18.5
					C262.5,242.5,260.9,242.5,260.8,242.5z"/>
			</g>
			<g>
				<path class="st25" d="M261.3,249.2c-0.2,0-0.3,0-0.3,0l0.1-1c0.7,0,2.7-0.1,3.5-1c1-1.3,3.6-21,3.9-24.1l0.9,0.2l0.1,0.2
					c0,0.3-2.8,22.9-4.1,24.4C264.2,249.1,262.1,249.2,261.3,249.2z"/>
			</g>
			<g>
				<path class="st25" d="M296.3,310.8c-0.2-0.7-1.4-3.1-1.6-3.9c-1.4-5.6-2.4-14.2-2.9-20.4c-1-10.7-1.5-21.3-1.5-23.5
					c-4.6-0.8-11.2-8.7-11.5-9l0.8-0.6c0.1,0.1,7,8.4,11.2,8.7l0.4,0l0,0.4c0,0.1,0.4,11.9,1.6,23.8c0.6,6.2,1.5,14.7,2.9,20.3
					c0.2,0.8,0.4,1.6,0.6,2.3L296.3,310.8z"/>
			</g>
			<g>
				<path class="st25" d="M296.4,344.3l-1-0.2c0,0,0-0.1,0-0.4c0.1-1,0.4-6.1-0.3-12.3c-0.8-7-0.9-27.3-0.9-27.5l0.9,2.8
					c0,0.2,0.2,17.6,1,24.6c0.8,6.3,0.4,11.5,0.3,12.4C296.4,344.2,296.4,344.3,296.4,344.3z"/>
			</g>
			<g>
				<path class="st25" d="M299.2,358c-2.9-1.5-5.1-3.9-5.9-6.5c-0.4-1.2-0.4-2.3,0-3c0.3-0.6,1.1-2.3,2.1-4.8c1.8-4.3,2.9-7.5,3-7.9
					l0.3-0.9c0,0.8-2.1,8.4-2.4,9.2c-0.7,1.8-1.7,4.1-2.1,4.9c-0.3,0.5-0.3,1.3,0,2.3c0.6,1.8,2.3,4.3,5.4,5.9L299.2,358z"/>
			</g>
			<g>
				<path class="st25" d="M313,354.5c-3.4,0-6.8-0.1-9.1-0.2c-2.5-0.1-2.7-0.3-2.8-0.3l0.3-0.4l0.2-0.4c0.1,0,0.9,0.1,2.4,0.2
					c4.4,0.3,12.7,0.4,17.5-0.1c0.9-0.1,2,0.1,2.6,0l0.1,0.6c-0.7,0.2-1.6,0.3-2.6,0.3C319.2,354.4,316.1,354.5,313,354.5z"/>
			</g>
			<g>
				<path class="st25" d="M330.2,360.8c-0.2-0.3-0.4-0.5-0.6-0.8c-2.9-3.3-9-5.5-9-5.5l1.1-0.9c0.2,0.1,5.6,2.2,8.6,5.8
					c0.2,0.3,0.4,0.6,0.6,0.8L330.2,360.8z"/>
			</g>
			<g>
				<path class="st26" d="M310.2,373.1c-1.5,0-3,0-4.5-0.1c-5.9-0.3-9.7-1.7-11.2-4.2c-1.3-2.1-0.6-4.4-0.1-5.5
					c0.6-1.3,2.2-3.2,4.9-5.9c1.8-1.7,3-2.6,3.6-3.1l0.2,0.1l1.2-0.2l-0.3,0.3c-0.6,0.6-2.4,2.1-4.1,3.7c-2.6,2.6-4.2,4.5-4.7,5.6
					c-0.4,1-1,2.9,0.1,4.6c1.3,2.2,4.9,3.5,10.4,3.8c12,0.6,22.5-1.6,23.4-1.9c0.4-0.4,1.4-4.4,0.7-8.8c0-0.5-0.1-0.9-0.3-1.5l0-0.1
					l1,1.1l-0.1-1.3c0.2,0.7,0.3,1.2,0.3,1.7c0.7,4.6-0.3,9.3-1.2,9.8C328.9,371.3,320.6,373.1,310.2,373.1z"/>
			</g>
			<g>
				<path class="st25" d="M331.1,361.5l-0.7-0.7c1.3-1.3,3.4-3.9,3.2-5.2c-0.2-1.1-2.8-8.1-3.7-10.7l-0.4-1.1
					c-1.6-4.4-2.5-9.1-2.6-10l0.5,0.8c0.1,0.8,1.6,4.9,3.1,8.8l0.4,1.1c2.5,6.8,3.6,10,3.8,10.9
					C334.9,357.6,331.5,361.1,331.1,361.5z"/>
			</g>
			<g>
				<path class="st25" d="M331,345.6l-0.8-1.2c0-0.1,2.6-6.2,1-21.4c-1.3-12.6-3.4-17.6-3.4-17.7l0-0.2c0,0-0.9-42.3-1.1-51.3v-0.3
					h1v0.3c0.2,8.7,1,49,1.1,51.2c0.3,0.8,2.2,5.9,3.5,17.9C333.7,338.4,331.1,345.4,331,345.6z"/>
			</g>
			<g>
				<path class="st25" d="M326.8,246.1c0,0,0-0.1,0-0.3c0-0.8,0-2.4-0.1-4.6c0-0.2-0.5-16.7-0.4-17.6l1.1-0.3
					c-0.1,0.6,0,9.6,0.2,17.8c0,2.1,0.1,3.8,0.1,4.5c0,0.2,0,0.4,0,0.4L326.8,246.1z"/>
			</g>
			<g>
				<path class="st25" d="M321.7,243.7c-0.2,0-0.4,0-0.5,0c-3.5-1.1-4.4-15.8-4.6-18.9l0.9-0.1c0.4,6.8,1.7,17.4,3.9,18
					c2,0.3,5.3-1.7,5.6-1.9l0.7,0.7c0,0,0,0-0.2,0.1C326.9,242,324,243.7,321.7,243.7z"/>
			</g>
			<g>
				<path class="st25" d="M320.6,250.8c-0.6,0-1.2-0.1-1.8-0.2c-4.8-1-6.1-22.9-6.3-25.4l0.9-0.1c0.5,9,2.4,23.8,5.5,24.5
					c4.3,0.9,7.5-3,7.5-3l-0.1,1.5C326.3,248.2,324.3,250.8,320.6,250.8z"/>
			</g>
			<g>
				<path class="st25" d="M295.9,258.7l-0.2-0.1c0.4-0.6,9.1-9.2,16.6-10.8l0.1,0.9C305.4,250.1,296.5,257.9,295.9,258.7z"/>
			</g>
			<g>
				<path class="st25" d="M283.7,225.7c-0.3,0-0.6-0.1-1-0.2c-0.1,2.5-0.2,19,1.1,24.4l0.4-0.1C283,244.7,283.5,228.4,283.7,225.7z"
					/>
			</g>
			<g>
				<path class="st25" d="M293.3,248.7c-0.7-5.2,1.5-21.6,1.6-22.3l1,0.2c0,0.2-2.9,17-2.2,22.1L293.3,248.7z"/>
			</g>
			<g>
				<path class="st24" d="M322,173.6c-0.2-1.6-0.4-2.9-0.6-3.8c-0.6-3.1-1.5-8.5-1.6-8.6l0.2-1.4c0,0.1,1.7,6.8,2.3,9.8
					c0.2,0.9,0.4,2.2,0.6,3.8L322,173.6z"/>
			</g>
			<g>
				<path class="st23" d="M328.4,182.9c-0.8,0-1.5,0-2.3-0.1c-0.8,0-1.6-0.1-2.6-0.3l-0.4-0.1l0-0.4c0,0-0.5-4.7-1-8.5l1-0.1
					c0.4,3.1,0.9,6.9,1,8.1c0.8,0.1,1.5,0.2,2.2,0.2c7.4,0.5,14-1.7,18.2-3.6c3.5-1.6,5.8-3.3,6.4-3.8c-0.3-0.7-1.6-3.9-2.9-6.9
					l-1-2.3l0.4-0.4l-0.4,0.2l0.9-0.4l1,2.5c2.7,6.5,3,7.2,3,7.4c0,0.8-4.2,3.2-7,4.5C340.9,180.9,335.1,182.9,328.4,182.9z"/>
			</g>
			<g>
				<path class="st24" d="M346.8,165.1c-1.6-3.7-2.6-6.2-3.1-7.6c-0.6-1.5-1.1-4.1-1.8-7.2c-1.2-5.5-2.6-12.2-4.9-16.4
					c-3.9-6.3-20.2-14.4-20.4-14.5l0-1.3c0.7,0.4,17.1,8.7,21.2,15.3c2.4,4.3,3.8,11.1,5,16.7c0.6,3,1.2,5.6,1.7,7
					c0.5,1.4,1.6,3.9,3.1,7.6L346.8,165.1z"/>
			</g>
			<g>
				<path class="st23" d="M325.9,174.3c-1.1,0-2.3-0.1-3.5-0.3l0.2-1c12.5,2,24.1-8.2,24.2-8.3l0.6,0.7
					C347.3,165.7,337.4,174.3,325.9,174.3z"/>
			</g>
			<g>
				<path class="st22" d="M326.8,254.4c-1.2,0-2-0.6-2.4-1c-0.1-0.1-0.7-0.7-0.7-1.1c0-0.2,0.1-0.5,0.6-1.4c0.4-0.8,1-1.9,1.6-3.2
					c0.2-0.4,0.4-0.9,0.6-1.4l0.3-0.8c0.8-1.7,2.2-4.2,3.4-6.1c0.9-1.5,1.9-3.1,1.9-3.5c0.1-0.9-0.7-14.8-1.9-24.8
					c-0.4-3.2-0.7-5.7-1-7.2c-1.4-6.6-3.6-21-3.6-21.1l1,0.1c0,0.1,2.2,14.2,3.6,20.8c0.3,1.6,0.7,4.1,1.1,7.3
					c1,9.4,2,24.3,1.8,25.2c-0.1,0.4-0.8,1.6-2.1,3.8c-1.1,1.9-2.6,4.3-3.3,6l-0.3,0.7c-0.2,0.6-0.4,1.1-0.6,1.5
					c-0.6,1.3-1.2,2.5-1.7,3.3c-0.2,0.3-0.4,0.7-0.5,0.9c0.2,0.3,1.1,1.2,2.3,1.1c1.1-0.1,2.7-0.9,4.8-4.5l0.3-0.5l0.3,0.8l0.3,0.1
					c-1.9,3.2-3.7,4.9-5.6,5C327,254.4,326.9,254.4,326.8,254.4z"/>
			</g>
			<g>
				<path class="st22" d="M331.6,268.7c-0.4,0-0.7-0.1-1-0.2c-0.6-0.4-1-1.1-0.9-2.1c0.1-1.2,0.6-2.7,1.1-4.2
					c0.4-1.3,0.9-2.6,0.9-3.3c0.1-1.2,0.1-6.3,0-9.4l0-0.3c0-1.3,0-2.3,0-2.4l0.2-0.5c0,0.1,0.7,1.5,0.8,2.8l0,0.3
					c0,3.3,0.1,8.3,0,9.5c0,0.9-0.5,2.2-1,3.6c-0.5,1.5-1,3-1.1,4c0,0.3,0,1,0.4,1.2c0.5,0.3,1.4,0,2.5-0.6c0.3-0.2,0.7-0.5,1.1-0.8
					c2.9-2.3,3.5-4.6,3.5-4.6l1.8-8.3l0.3-0.3l-1.1,8.8c0,0.1-0.6,2.6-3.8,5.1c-0.4,0.3-0.8,0.6-1.2,0.8
					C333,268.5,332.2,268.7,331.6,268.7z"/>
			</g>
			<g>
				<path class="st22" d="M336,270.7c-1,0-1.9-1.1-2.6-3.2l0-0.2h0.7h-0.2l0.4-0.2l0,0.1l0,0c0.6,1.7,1.3,2.7,1.9,2.5
					c0.2,0,0.8-0.4,2.7-3c1.4-2,2.7-4.2,2.7-4.2l0,0c0,0,2.2-6.9,2.2-10.2l0.5-0.2c0,3.4-1.7,10.6-1.8,10.8
					c-0.1,0.1-1.4,2.4-2.8,4.4c-2,2.7-2.7,3.2-3.2,3.4C336.3,270.7,336.1,270.7,336,270.7z"/>
			</g>
			<g>
				<path class="st22" d="M339.7,267.7c-0.2,0-0.4,0-0.5-0.1l0.4-0.9l-0.2,0.4l0.2-0.4c0.2,0,1.7-0.2,3.2-2.3c0,0,0.1-0.1,0.1-0.2
					c1.5-2.5,3.9-7.8,4.1-8.5l0.7-5.2l0.5,0l-0.3,5.6c-0.1,0.2-2.6,6-4.2,8.5c0,0-0.1,0.1-0.1,0.2l-0.1,0.1
					C342.3,267,340.7,267.7,339.7,267.7z"/>
			</g>
			<g>
				<path class="st22" d="M342.9,265.8l0.5-0.9l0,0c0,0,0.1-0.1,0.3-0.2c1.2-0.9,4.4-4.1,5.3-6.8c0.9-2.8,1.3-4.6,1.4-5.1
					c-0.5-1.4-5.3-14.4-6.6-17.4l0-0.1l0-0.1c0-0.4,3.1-36.1,0.1-55.9l1-0.3c3,19.3,0.1,53.8-0.1,56.2c1.4,3.4,6.5,17.3,6.6,17.5
					l0,0.1l0,0.1c0,0.1-0.3,2-1.5,5.4c-1,3-4.6,6.4-5.7,7.3C344,265.7,342.9,265.8,342.9,265.8z"/>
			</g>
			<g>
				<path class="st22" d="M252.2,245.1l-0.9-0.4l0.3-0.5c0.5-1,2-4.4,2-6.5c0-0.7-0.1-1.4-0.3-2.4c-0.1-0.3-0.1-0.6-0.2-0.9
					c-0.3-1.6-0.7-3.3-0.3-5.1l0-0.1c1.3-2.4,3.6-10.5,4.7-14.4c0.5-1.8,0.6-2.3,0.6-2.5l0.4,0.3l0.5,0.3l0.2-0.4
					c-0.1,0.2-0.4,1.2-0.7,2.5c-1.2,4.2-3.3,12-4.7,14.5c-0.3,1.6,0,3.2,0.3,4.7c0.1,0.3,0.1,0.6,0.2,0.9c0.2,1,0.3,1.8,0.3,2.6
					c0,2.2-1.4,5.6-2.1,6.9L252.2,245.1z"/>
			</g>
			<g>
				<path class="st22" d="M254.4,250.8c-0.2,0-0.5,0-0.7-0.1c-0.4-0.1-0.3-0.2-0.3-0.2l0-1c0,0,0.3,0.2,0.6,0.2
					c0.9,0.3,1-0.2,1.1-0.3c0.2-0.5-1.3-2.8-3.3-4.8c-0.2-0.2-0.3-0.3-0.3-0.3l0.7-0.7c0,0,0.1,0.1,0.3,0.3c1,1,4.1,4.3,3.5,5.8
					C255.7,250.4,255.1,250.8,254.4,250.8z"/>
			</g>
			<g>
				<path class="st22" d="M254.4,254.8c-0.2,0-0.5,0-0.7-0.1l0.2-0.9c0.3,0.1,0.8,0.1,0.9-0.1c0.3-0.4,0-1.4-0.5-2
					c-0.2-0.2-0.4-0.5-0.6-0.8l-0.3-0.3c-1.2-1.3-2.4-4-2.4-4l0.3,0.2c0,0,1.7,1.8,2.8,3.1l0.3,0.3c0.3,0.3,0.5,0.6,0.7,0.8
					c0.6,0.7,1.1,2.2,0.5,3.2C255.5,254.4,255.2,254.8,254.4,254.8z"/>
			</g>
			<g>
				<path class="st22" d="M252.3,258.1c-0.7,0-1.4-0.1-1.8-0.2l0.2-0.9c0.9,0.2,2.2,0.4,2.9-0.1c0.2-0.2,0.4-0.4,0.5-0.7
					c0.1-0.4-0.2-0.9-0.7-1.6c-1.1-1.4-3.1-2.8-3.1-2.8l-0.2-0.1l0-0.2c-0.1-1.2-0.5-2.9-0.6-3.2l0.2-0.5c0.2,0.4,1.2,2.2,1.4,3.4
					c0.5,0.4,2.1,1.6,3.1,2.9c0.7,0.9,1,1.7,0.9,2.3c-0.1,0.6-0.4,1.1-0.9,1.4C253.6,258,253,258.1,252.3,258.1z"/>
			</g>
			<g>
				<path class="st22" d="M247.2,253.3c-0.5-2.4-1-5-1-5.3l-0.5-0.1l-0.5-0.1c0,0.1-0.1,0.4,1,5.9l0,0.2l0.2,0.1
					c1.3,0.8,3.4,2.5,3.6,3.5c0,0.2,0,0.4-0.2,0.6c-1.4,1.4-6.6-1.2-7.6-2.1c-0.8-0.7-4.1-11-3.9-12.2c0.1-0.6,1.9-5.1,3.3-8.7
					c1.4-3.7,2.7-6.9,2.8-7.5c0.1-0.2,0.2-0.6,0.3-1.1c0.6-2.1,2-6.5,2.3-12.9c0.4-6.9,4-29.5,4.9-35c0,0-0.1,0-0.1,0
					c-0.3-0.1-0.6-0.2-0.8-0.3c0,0,0,0,0,0c-0.9,5.3-4.6,28.3-4.9,35.3c-0.3,6.3-1.6,10.6-2.3,12.7c-0.1,0.5-0.3,0.9-0.3,1.1
					c-0.1,0.6-1.5,4-2.8,7.4c-1.9,4.9-3.2,8.2-3.3,8.9c-0.2,1.4,3,12,4.2,13.1c0.7,0.6,4.4,2.7,7,2.7c0.8,0,1.5-0.2,1.9-0.7
					c0.4-0.4,0.5-0.9,0.4-1.4C250.8,255.7,248,253.8,247.2,253.3z"/>
			</g>
			<g>
				<path class="st22" d="M245.3,248.2c-0.9,0-1.9-0.2-2.3-0.9c-0.2-0.4-0.6-1.1,3.1-14.2c0.1-0.4,0.2-0.7,0.2-0.8l0.4-0.1
					c0,0.1,0.1,0.5-0.1,0.9c-3.2,11.1-3,13.3-2.9,13.6c0.2,0.3,0.9,0.5,1.9,0.4c0.8-0.1,1.9-0.5,2.4-1.3c1.1-1.8,1.6-5.6,1.6-5.6
					l0-0.2l0.2-0.1c0,0,3.5-1.9,3.4-4.9l0.2,0.1c0.1,3.1-2.2,5-2.9,5.5c-0.1,0.9-0.7,4.1-1.7,5.8c-0.6,1-1.7,1.6-3.1,1.7
					C245.6,248.2,245.5,248.2,245.3,248.2z"/>
			</g>
			<g>
				<path class="st25" d="M290.2,363.2l-1-0.1c0.1-0.9,0-1.9-0.3-3.1l0-0.1h1C290.2,361.1,290.3,362.2,290.2,363.2z"/>
			</g>
			<g>
				<path class="st26" d="M269.2,368.4c-8.2,0-16.7-0.3-18.1-0.8c-2.5-0.9-4.6-3.9-4.7-5.8c-0.1-1.8,3.5-4.5,9.8-8.7
					c1.3-0.9,3.3-1.9,5.9-2.9c3.6-1.4,6.3-2.3,6.3-2.3l1,0.8c0,0-3.5,1.1-7,2.4c-2.5,1-4.4,1.9-5.7,2.8c-2.8,1.9-9.5,6.2-9.4,7.8
					c0.1,1.6,1.9,4.2,4.1,5c2,0.7,30,1.1,33.7,0.1c2.6-0.7,3.8-1.8,4-3.7l1,0.1c-0.4,3-2.7,4-4.8,4.5
					C283.8,368.2,276.6,368.4,269.2,368.4z"/>
			</g>
		</g>
		<ellipse class="st9" cx="306.3" cy="83.7" rx="1.1" ry="1.5"/>
		<ellipse class="st9" cx="274.5" cy="81.1" rx="1" ry="1.4"/>
	</g>
</g>
</svg>
