<?xml version="1.0" encoding="utf-8"?>
<!-- Generator: Adobe Illustrator 21.1.0, SVG Export Plug-In . SVG Version: 6.00 Build 0)  -->
<svg version="1.1" id="Layer_1" xmlns="http://www.w3.org/2000/svg" xmlns:xlink="http://www.w3.org/1999/xlink" x="0px" y="0px"
	 viewBox="0 0 383.4 354.1" style="enable-background:new 0 0 383.4 354.1;" xml:space="preserve">
<style type="text/css">
	.st0{fill:#CF5657;}
	.st1{fill:#FCD62F;}
	.st2{opacity:0.5;}
	.st3{fill:#AC3734;}
	.st4{fill:#F9EE62;}
	.st5{fill:#59B747;}
	.st6{fill:#FFDEAB;}
	.st7{fill:#EEEDED;}
	.st8{fill:#63ADDF;}
	.st9{fill:#449D46;}
	.st10{fill:#F0C08B;}
	.st11{fill:#4D95C4;}
	.st12{fill:#F2DA4A;}
	.st13{fill:#9E8B35;}
	.st14{fill:#425E35;}
	.st15{fill:#6B5127;}
	.st16{fill:#074E7A;}
	.st17{fill:#ADAAAA;}
	.st18{fill:#A64A30;}
	.st19{fill:#461B12;}
	.st20{fill:#231F20;}
	.st21{fill:#8E3D21;}
	.st22{fill:#FBC599;}
	.st23{fill:#FFFFFF;}
</style>
<g>
	<g>
		<g>
			<g>
				<g id="XMLID_199_">
					<g>
						<path class="st0" d="M0,304.8l234.5-87l149,9.7L268.8,354.1L0,304.8z"/>
						<polygon class="st1" points="371.8,228.6 367.6,232.9 350.7,228.2 						"/>
						<path class="st1" d="M367,233.4c0.3,0-5.3,5-5.3,5l-9.4-3C352.3,235.5,366.7,233.4,367,233.4z"/>
						<path class="st1" d="M361.1,238.8c0.3-0.1-5.2,5.5-5.2,5.5l-11-3.3C345,241,360.8,238.9,361.1,238.8z"/>
						<polygon class="st1" points="355,244.8 348.5,251.4 347.6,251.1 336.9,247.3 						"/>
						<polygon class="st1" points="347.3,252.1 339.6,259.8 339,259.6 328.2,255.1 						"/>
						<polygon class="st0" points="347.2,232.4 239.8,314.7 75.6,293.1 241.6,222.4 						"/>
						<polygon class="st1" points="346.3,226.2 332.4,228.4 325.7,225.9 						"/>
						<polygon class="st1" points="338.6,260.4 329.5,269.4 328.6,268.9 318,263.6 						"/>
						<polygon class="st1" points="327.7,270.6 317.2,281.2 316.3,280.7 305,274.4 						"/>
						<polygon class="st1" points="320.4,224.4 306.9,226 300.9,223.5 						"/>
						<polygon class="st1" points="315.1,282.9 300.7,296.4 300.5,296.2 289,287.5 						"/>
						<polygon class="st1" points="299,298.2 281.6,315 269.3,303.6 						"/>
						<path class="st1" d="M278.5,222.4l18,0.4c-2.5,0.3-12.2,1.5-12.2,1.5L278.5,222.4z"/>
						<polygon class="st1" points="278.6,318 256.2,340 208.5,332 244.8,324.8 						"/>
						<path class="st1" d="M256.2,220.3l16.8,1.1c-0.5,0-8.1,0.8-11,1h0l-1.6-0.1L256.2,220.3z"/>
						<path class="st1" d="M260.4,222.2l1.6,0.1c-0.7,0-1.1,0.1-1.1,0.1L260.4,222.2z"/>
						<path class="st1" d="M228.5,222.3l7.7-3l14.2,0.1c-0.2,0-4.1,0.6-8.6,1.1l-0.3,0l-0.2,0.1c0,0,0,0,0,0
							C235.3,221.4,228.5,222.3,228.5,222.3z"/>
						<polygon class="st1" points="226.5,222.8 228.8,225 216.6,226.5 						"/>
						<polygon class="st1" points="213.8,227.2 215.3,229.9 202.2,231.4 						"/>
						<path class="st1" d="M202.2,331.4c0.1,0.3-40-7.2-40-7.2l34.3-6.4C196.6,317.7,202.1,331,202.2,331.4z"/>
						<polygon class="st1" points="199.8,231.9 201.4,234.7 186.7,236.9 						"/>
						<polygon class="st1" points="184.7,239 186.3,241.9 170.5,244.3 						"/>
						<polygon class="st1" points="149.3,252.3 167.2,245.7 168,249.7 						"/>
						<polygon class="st1" points="154.6,311.3 156.1,323.2 121,317.3 						"/>
						<path class="st1" d="M146.4,254.1l-0.2,4.2c0,0-19.2,2.9-19.5,2.9L146.4,254.1z"/>
						<polygon class="st1" points="122,264.2 120.9,269.1 98.7,272.4 						"/>
						<polygon class="st1" points="115.5,305.7 113.9,316.6 83.7,311.3 						"/>
						<polygon class="st1" points="93.3,275.8 90.3,281.9 65.6,285.7 						"/>
						<polygon class="st1" points="83.1,300.8 78.7,310.7 52.3,306.4 						"/>
						<path class="st1" d="M64.9,294.6l176.4-74c0,0,0,0,0,0c0.2,0,0.3,0,0.5-0.1l18.5,1.7l0.5,0.2c0,0,0.4,0,1.1-0.1h0l92.7,8.5
							L336,246.1l-19.4,15.7l-13.1,10.6l-16,13l-19.8,16L244,320.6L116.1,302l-32.4-4.7L64.9,294.6z M241.6,222.4l-166,70.7
							l164.3,21.6l107.4-82.4L241.6,222.4z"/>
						<polygon class="st1" points="59.4,289.6 48,305.4 25,301.2 						"/>
					</g>
				</g>
			</g>
			<g class="st2">
				<g>
					<path class="st3" d="M326.6,231.6c1.1,0.5,27.1,2.2,14.2,9.7c-6.4,3.7-18.9,17.6-34.7,24.6c-16.2,7.1-24.1,15.3-40.6,16
						c-57.3,2.4-79.6-18.8-75.8-23.3c9-10.6,40.9-19.6,64.3-27.5c21.9-7.4,52.1-1.6,55.7-2.1C313.3,228.4,323.5,230.3,326.6,231.6z"
						/>
				</g>
			</g>
		</g>
		<g>
			<g>
				<g id="XMLID_198_">
					<g>
						<g>
							<path class="st4" d="M319.8,176.6c-4.5,1.3-10.9,1.7-19.1-1.7c-0.4-0.1-0.7-0.3-1.1-0.5c0,0,0.7-6,1.1-10.4h0.2
								c0,0,10.1,4.7,24.2-1.8c0.9,5.8,1.7,10.6,1.6,10.8C326.7,173.2,324.2,175.4,319.8,176.6z"/>
						</g>
						<g>
							<path class="st5" d="M248.5,195.2c-0.2-0.1-0.3-0.1-0.3-0.1c0-0.1,0-0.1-0.1-0.2c-1.6-3.8,2.6-9.2,3-12
								c0.4-2.6-0.5-9.5-0.9-14.9c0-0.4-0.1-0.7-0.1-1.1c-0.1-1.6-0.3-4.6-0.5-8.3l-0.6,0c-11.2,1.9-15.1-3.1-15.4-3.1l-0.2-0.1
								c4-11,8.5-30.5,9.3-31.8c1-1.7,10.1-10.2,10.1-10.2l0.2,0c-0.2,1.6-0.3,3.5-0.2,5.6c0,0,7-5.9,10.3-2.2h0
								c0.8,1.3,1.9,2.6,3.4,3.4l-0.1,0.2c0,0-2,10.5-2.1,19.6c0,0,4.8,1.9,8.2,1.1c0,0,0.9-16.4,2.1-19.3l0-0.4
								c2.5-0.3,5-1.1,7.2-2.3l0.2,0.3c8.5-4.2,14.6,4,14.6,4c3-5.9,3-11.3,1.9-15.3h0c0,0,15,9.8,18.3,14.1c3.3,4.3,5,15.8,5.6,22
								c0.3,3.3,1.6,11.3,2.6,18.1c-14.1,6.5-24.2,1.8-24.2,1.8h-0.2c-0.4,4.4-1.1,10.4-1.1,10.4c0.4,0.2,0.8,0.3,1.1,0.5l0,0.1
								c0,0-1.3,6.8-1.5,8c-0.2,1-4.2,10.1-6.5,15.5l-0.3-0.1C270.1,203.3,251.2,196.3,248.5,195.2z"/>
						</g>
						<g>
							<path class="st6" d="M271.6,247.1c-0.7,2.4-3.3,3.3-4.6,2.4c-0.6-0.4-0.8-0.9-0.8-1.4c-1.1,2-2.1,1.5-3,0.3
								c-0.6-0.7-0.5-2.4-0.3-3.8h0c0,0-1.2,0.9-2.2-0.2c-1-1.2-0.8-6.3-0.3-7.8c0.1-0.4,0.3-0.7,0.4-1.1c0.5-1,1.1-1.9,2-3
								c1.2-1.4,4.3-2.7,7-4.2c2.7-1.5,12.8-6.7,12.8-6.7s0.9-1.5,1.7-3.2c0.6-1.2,3.3-7.7,5.4-12.6c0.8-1.8,1.4-3.4,1.9-4.6
								c0.3-0.7,0.7-1.7,1.2-2.7c2.3-5.4,6.3-14.6,6.5-15.5c0.2-1.2,1.5-8,1.5-8l0-0.1c8.2,3.3,14.7,3,19.1,1.7
								c-0.3,1.1-0.9,6-1.7,9.3c-0.3,1.4-0.8,2.8-1.2,4.1c-1.2,3.6-2.5,7.3-4.1,10.8c0,0.1-0.1,0.2-0.1,0.3
								c-1.3,2.9-2.8,5.6-4.5,8.2c-0.9,1.5-2,3-3.1,4.4c-2.7,3.5-5.7,6.8-9.1,9.8c-1.2,1.1-3,2.7-4.2,3.8c-0.7,0.6-3.1,2.1-3.3,3
								c0,0,0,0-0.3,1.4c-1,4.3-5,7.6-8.2,10.3c-0.7,0.6-2.1,1.4-2.5,2.4c0,0-0.7,2.1-2.2,3.9c-1.5,1.8-2.7,2-3.5,0.3
								C271.6,248.3,271.5,247.7,271.6,247.1z"/>
						</g>
						<g>
							<path class="st7" d="M319.1,227.4c0.4,2.8-0.2,7-2,9.3l-0.3,0c-0.4-2.5-1-6.1-2.1-9.4c-0.3-0.9-0.6-1.7-0.9-2.5
								c-0.5-1.1-1-2.1-1.6-2.9l-0.4-0.2c0.1-0.3,0.2-0.6,0.4-0.8l0.2,0.1C315.9,221.1,318.6,224,319.1,227.4z"/>
						</g>
						<g>
							<path class="st8" d="M316.8,236.8c0.2,1.7,0.3,2.8,0.3,2.8s0,0-1.2,1.1c-1.2,1.1-5.9,4.3-8.2,7.7c-2.3,3.4-9.1,12.6-11.1,15
								c-2.1,2.4-7.6,5.8-9.8,8.4c-1.5,1.7-7.5,4-13.8,5.2l-0.6-2.7c0.4,0,1.3-0.3,2.5-0.8c1.8-0.6,3.2-0.7,4.4-1.8
								c1.2-1.2,4-2.4,4.7-3.6c0.7-1.2,2.8-2.6,4.7-4c1.9-1.4,2.8-3.6,3.3-5.5c0.4-1.9,4.8-7.4,6.6-9.6c1.8-2.3,6.8-6.1,6.9-6.6
								c0.1-0.5,3.6-7.8,4.9-8.8c1.3-1,4.4-6.2,4.4-6.2C315.8,230.7,316.4,234.3,316.8,236.8z"/>
						</g>
						<g>
							<path class="st8" d="M311.8,221.8l0.4,0.2c0.6,0.8,1.1,1.8,1.6,2.9l-0.4,0.2c-0.8,1.8-2.6,3.9-3.4,4.6
								c-0.7,0.8-1.6,2.2-2.4,3.3c-0.8,1.2-1.3,2.4-1.9,3.6c-0.6,1.2-1.3,1.7-2.1,3.1c-0.8,1.4-0.9,1.4-1.8,2.8
								c-0.9,1.4-1.9,1.9-2.4,2.7c-0.5,0.7-2.3,2.5-3.8,4.5c-1.6,2.1-3.2,3.4-4.3,5.5c-1.1,2.2-1.8,6.7-2.4,7.5
								c-0.5,0.8-2.4,1.5-3.8,2.3c-1.4,0.8-1.9,2.5-2.9,3.6c-1,1.1-2.8,1.8-4.7,2.6c-1.8,0.8-2.7,0-2.7-0.6c0-0.6-1.2-2.6-1.2-2.6
								s0,0,0.9-0.8c0.9-0.8,1.6-1.2,1.5-2.2c-0.1-1-0.6-3.3-0.6-4.1c0-0.8,1.3-2.3,2.4-4.1c1.1-1.7,2.8-3.3,3.6-4.8
								c0.8-1.5,4-5.8,6.6-8c2.5-2.2,5.4-6.2,6.1-7.8c0.7-1.6,6.9-8,10.8-14.2c4-6.3,3.6-12.2,3.6-12.2l-0.4-0.2
								c1.7-2.6,3.2-5.3,4.5-8.2l0.1,0c0.3,0.1,2.7,7.8,1.3,14.4c-0.4,1.7-1,3.5-1.8,5.3C312,221.2,311.9,221.5,311.8,221.8z"/>
						</g>
						<g>
							<path class="st8" d="M313.8,224.9c0.4,0.8,0.7,1.6,0.9,2.5c0,0-3.1,5.2-4.4,6.2c-1.4,1-4.9,8.3-4.9,8.8
								c-0.1,0.5-5.1,4.3-6.9,6.6c-1.8,2.2-6.1,7.7-6.6,9.6c-0.4,1.9-1.4,4.1-3.3,5.5c-1.9,1.4-4,2.8-4.7,4
								c-0.7,1.2-3.5,2.4-4.7,3.6c-1.2,1.2-2.6,1.3-4.4,1.8c-1.3,0.4-2.1,0.8-2.5,0.8c-0.1,0-0.2,0-0.3-0.1
								c-0.1-0.4,0.4,0.2-0.4-1.7c-0.8-1.9-1.6-2-0.6-3.9c1-1.9,2-3.9,1.3-5.4c-0.7-1.6-0.3-4.2,1.7-6.9c2-2.7,8.9-9.8,10.2-11.8
								c1.4-2,5.2-5.6,6.5-7c1.3-1.4,11.6-15.4,12.2-17.3c0.6-1.9,1.9-5.3,2.1-6.1l-0.1-0.1c1.1-1.4,2.2-2.9,3.1-4.4l0.4,0.2
								c0,0,0.4,6-3.6,12.2c-4,6.3-10.1,12.6-10.8,14.2c-0.7,1.7-3.6,5.7-6.1,7.8c-2.6,2.2-5.8,6.5-6.6,8c-0.7,1.5-2.5,3.1-3.6,4.8
								c-1.1,1.7-2.4,3.2-2.4,4.1c0,0.8,0.5,3.1,0.6,4.1c0.1,1-0.6,1.5-1.5,2.2c-0.9,0.8-0.9,0.8-0.9,0.8s1.2,2,1.2,2.6
								c0,0.6,0.9,1.4,2.7,0.6c1.9-0.8,3.7-1.4,4.7-2.6c1-1.1,1.5-2.7,2.9-3.6c1.4-0.8,3.3-1.5,3.8-2.3c0.5-0.8,1.3-5.3,2.4-7.5
								c1.1-2.2,2.8-3.4,4.3-5.5c1.6-2.1,3.3-3.8,3.8-4.5c0.5-0.8,1.5-1.3,2.4-2.7c0.9-1.4,1-1.4,1.8-2.8c0.7-1.4,1.5-1.9,2.1-3.1
								c0.6-1.2,1.1-2.4,1.9-3.6c0.8-1.2,1.6-2.6,2.4-3.3c0.8-0.8,2.5-2.8,3.4-4.6L313.8,224.9z"/>
						</g>
						<g>
							<path class="st8" d="M304.9,213.9l0.1,0.1c-0.2,0.8-1.5,4.2-2.1,6.1c-0.6,1.9-10.9,15.9-12.2,17.3c-1.3,1.4-5.1,5-6.5,7
								c-1.3,2-8.2,9.1-10.2,11.8c-2,2.7-2.4,5.3-1.7,6.9c0.7,1.6-0.3,3.6-1.3,5.4c-1,1.9-0.2,1.9,0.6,3.9c0.8,1.9,0.2,1.4,0.4,1.7
								c0,0.1,0.1,0.1,0.3,0.1l0.6,2.7c-3.4,0.6-6.8,0.9-9.7,0.7c-8.3-0.8-12.9-6.7-14.3-10.9c-0.8-2.5-0.6-6.5,0.1-10.1
								c0.4-2.5,1.1-4.8,1.7-6.5c1.1-2.8,4.6-10,6.8-14.7l3.1,0.2c-0.2,0.3-0.3,0.7-0.4,1.1c-0.5,1.5-0.7,6.6,0.3,7.8
								c1,1.2,2.2,0.2,2.2,0.2h0c-0.2,1.4-0.3,3.1,0.3,3.8c0.9,1.2,1.9,1.7,3-0.3c0,0.5,0.2,0.9,0.8,1.4c1.3,0.9,4,0,4.6-2.4
								c0,0.6,0,1.1,0.2,1.6c0.7,1.7,2,1.5,3.5-0.3c1.5-1.8,2.2-3.9,2.2-3.9c0.3-0.9,1.7-1.7,2.5-2.4c3.2-2.7,7.2-6,8.2-10.3
								c0.3-1.4,0.3-1.4,0.3-1.4c0.2-0.8,2.6-2.4,3.3-3c1.2-1.1,3-2.7,4.2-3.8C299.2,220.6,302.2,217.4,304.9,213.9z"/>
						</g>
						<g>
							<path class="st5" d="M292.4,198.4l0.3,0.1c-0.5,1.1-0.9,2-1.2,2.7c-0.5,1.1-1.1,2.7-1.9,4.6l-0.6-0.3c-8,2.1-18,1.8-26,1
								c-8.2-0.8-14.3-2.2-14.3-2.2l-0.3-9.3C251.2,196.3,270.1,203.3,292.4,198.4z"/>
						</g>
						<g>
							<path class="st8" d="M289,205.6l0.6,0.3c-2.1,5-4.8,11.4-5.4,12.6c-0.7,1.7-1.7,3.2-1.7,3.2s-10.1,5.3-12.8,6.7
								c-2.7,1.5-5.9,2.9-7,4.2c-0.9,1-1.5,1.9-2,3l-3.1-0.2c1.2-2.4,2-4.2,2-4.2l-1.1-2.1c0,0-3.7-4.9-4.6-9.8l0.9-0.1
								c2-4.2,8.2-12.4,8.2-12.4l0-0.3C271,207.4,281,207.7,289,205.6z"/>
						</g>
						<g>
							<path class="st4" d="M274.5,121.6l0,0.4c-1.1,2.9-2.1,19.3-2.1,19.3c-3.4,0.7-8.2-1.1-8.2-1.1c0.1-9.1,2.1-19.6,2.1-19.6
								l0.1-0.2c0.4,0.3,0.9,0.5,1.4,0.7C269.9,121.7,272.2,121.9,274.5,121.6z"/>
						</g>
						<g>
							<path class="st8" d="M253.9,219.4c0.9,4.9,4.6,9.8,4.6,9.8l1.1,2.1c0,0-0.8,1.7-2,4.2c-2.3,4.6-5.7,11.9-6.8,14.7
								c-0.7,1.7-1.3,4.1-1.7,6.5l-0.3,0c-4.5,6.7-17.3,11.1-21.2,11.1c-4,0-11.9-5.7-13.5-8.1c-1.7-2.4-1.6-3.5-1.7-6.9
								c-0.1-3.3,1.1-10,1.4-10.3c0.1,0.8,0.5,2.5,2.4,2.7l0.6-0.1c0.1,0.3,0.3,0.6,0.5,0.7c1.5,0.9,3.4-1.2,3.7-2.6
								c0.1,0.3,0.3,0.5,0.5,0.6c1.4,0.6,3.7-1.9,4.8-4.8c1.2-2.8,3.8-5.8,3.8-5.8l1.8-1.7c0.1,0.7,0.3,1.8,1,3.2
								c1.4,2.7,5,3,4.7,0.3c-0.3-2.7-0.3-7.1-0.5-8.7c-0.2-1.7-2.6-5.1-2.6-5.1c0.3-0.5,0.8-1.4,1.4-2.4l0.1,0
								c-0.4,0.7-0.6,1.1-0.6,1.2v0c-0.3,1.2,9.5-10.2,10.3-11.5c0.4-0.7,0.7-0.4,1.1-1.2c0-0.1,0.5-0.8,0.5-0.8
								c0.4-0.3,1.4-1,1.4-1.4c0.7-1,0.2-2.3,0.2-3.5c0-1.2,0-5.2-0.1-6.2c0.2-0.5-0.5-0.3-0.3-0.6c0,0.1,0,0.1,0.1,0.2
								c0,0,0.1,0,0.3,0.1l0.3,9.3c0,0,6.1,1.4,14.3,2.2l0,0.3c0,0-6.2,8.2-8.2,12.4L253.9,219.4z"/>
						</g>
						<g>
							<path class="st6" d="M213.7,240.5l-0.3,0c-3.6-5.7,0.6-11.2,1.6-12.3c0.9-1,8.2-7.2,8.5-7.5c0.3-0.3,2.8-6.1,4.3-14.5
								c1.5-8.4,6.7-26.6,7.4-28.8c0.6-2.2,1.3-8.9,1.6-9.4l0.2-0.4c2.9,1.2,6.9,1.7,12.2,0.5l1-0.1c0.4,5.3,1.3,12.2,0.9,14.9
								c-0.4,2.7-4.6,8.1-3,12c-0.1,0.3-0.3,0.7-0.6,1.2c-0.1-0.4-0.1-0.5-0.2,0c0,0.1-0.1,0.4-0.2,0.8c-2.6,5.1-8.4,16.5-11.4,22
								c-0.6,1-1,1.8-1.4,2.4c0,0,2.4,3.4,2.6,5.1c0.2,1.7,0.2,6,0.5,8.7c0.3,2.7-3.3,2.4-4.7-0.3c-0.7-1.4-0.9-2.5-1-3.2l-1.8,1.7
								c0,0-2.6,3-3.8,5.8c-1.1,2.9-3.5,5.4-4.8,4.8c-0.2-0.1-0.4-0.3-0.5-0.6c-0.3,1.4-2.2,3.4-3.7,2.6c-0.2-0.1-0.4-0.4-0.5-0.7
								l-0.6,0.1c-1.8-0.3-2.3-1.9-2.4-2.7c0-0.1,0-0.1,0-0.2C213.6,242,213.6,241.3,213.7,240.5z"/>
						</g>
						<g>
							<path class="st4" d="M250.1,168.1l-1,0.1c-5.3,1.2-9.3,0.6-12.2-0.5c-4.8-1.9-6.6-5.4-6.6-5.4c0.9-1.2,2-3.6,3.1-6.7l0.2,0.1
								c0.3,0,4.2,5,15.4,3.1l0.6,0c0.2,3.6,0.4,6.7,0.5,8.3C250,167.3,250.1,167.7,250.1,168.1z"/>
						</g>
						<g>
							<path class="st6" d="M247.3,196c0-0.5,0.1-0.4,0.2,0c-0.1,0.2-0.3,0.5-0.4,0.8C247.2,196.4,247.3,196.2,247.3,196z"/>
						</g>
					</g>
				</g>
			</g>
			<g>
				<path class="st9" d="M252.4,114.4c-0.9,0.4-0.9,2.2-1.1,3c-0.3,1.4-0.6,3-0.4,4.5c0.1,0.8,0.4,2.7,1.4,3c1.1,0.3,3-1.5,4-1.9
					c1.9-0.8,4-1.3,6.1-1.2c1.5,0.1,3.9,1.8,3.9-0.7c0-1.4-2.1-2.9-3.2-3.8c-1.6-1.2-3.6-1.6-5.5-1.1c-1.1,0.3-2,0.8-2.9,1.5
					c-0.6,0.4-1.3,1.2-2,1.4c-0.6-2,0.7-3.9,0.4-5.8c-0.5,0.1-0.9,0.6-1,1"/>
			</g>
			<g>
				<path class="st9" d="M276.4,122.6c1.1,0.6,2.9,0.1,4.1,0.1c2.1-0.1,4.3-0.2,6.4,0.1c3.4,0.5,6,2.4,8.8,4.4c1.3,1,3.1,3.3,5,2.9
					c1.2-0.2,1.9-1.8,2.6-2.7c0.7-0.9,1.5-1.8,1.9-2.9c0.4-1.1,0.2-2.4,0.2-3.5c0-0.7-0.1-3.2,0.7-3.3c1-0.2,2.5,2.5,2.9,3.1
					c2.1,2.8,3.4,6.2,4.5,9.5c1.2,3.8,1.6,7.9,2.1,11.8c0.6,5,1,10.2,0.5,15.2c-0.2,1.8-0.3,3.6-0.4,5.4c-0.1,0.9,0,2-0.6,2.7
					c3.2-0.6,6.4-2.1,9.5-3c-0.3-1.1-0.1-2.3-0.2-3.4c-0.1-1.2-0.5-2.4-0.5-3.7c-0.1-2.5,0.2-5.2-0.6-7.5c-0.7-1.9-0.9-4.3-1.1-6.3
					c-0.2-1.7,0-3.5-0.3-5.2c-0.1-0.9-0.5-1.7-0.6-2.6c-0.3-2-1.2-3.8-1.9-5.7c-0.7-1.9-1.3-3.6-2.4-5.3c-1-1.6-2.4-3.3-4-4.3
					c-1.4-0.8-2.8-1.6-4.1-2.6c-1.6-1.1-3.1-2.4-4.7-3.4c-1.7-1.1-4.1-3.1-5.6-4.5c0.6,4.4,2.3,8.5-2.4,15.9
					c-2.4-3.4-5.3-5.3-9.6-5.3c-1.8,0-3.6,0.2-5.1,1.2c-1.6,1-3,1.2-4.6,1.7c-0.2,0.1-1.3,0.5-1.6,0.5c0.2,0.6,1.6,1.1,2,0.6"/>
			</g>
			<g>
				<path class="st9" d="M252.3,169.6c-0.9-2.6-1.5-5.2-1.9-7.9c-0.2-1.4,0.3-5.1-1.2-5.8c-0.3,1.9,0.2,4.1,0.2,6
					c0,2.3,0.6,4.7,0.6,7c0,1.6,0.3,3.4,0.6,5c0.2,1.2-0.3,2.2,0,3.4c0.3,1.3,0.2,2.5,0.2,3.8c0,2.6-0.2,4.4-1.2,6.7
					c-0.9,2.1-2.7,4.6-1.7,6.9c0.2,0.5,0.4,0.6,0.5,1.1c0.1,0.6,0.1,1.2,0.2,1.8c0.6,2,0.7,3.8,0.8,6c1.3,0,2.1,0.7,3.3,1
					c1.8,0.4,3.8,0.6,5.5,1.4c-0.6-0.7-0.4-2-0.1-2.8c0.9-2.1,4.1-2.8,6.2-3c3.1-0.4,6.4,0,9.5-0.1c1.1,0,2.8,0.2,3.9-0.3
					c-0.7-0.4-2.1-0.2-2.9-0.2c-1.8,0-3.5,0-5.3-0.1c-2.7-0.2-5.4-0.7-8.1-1.2c-2.6-0.5-14-1-10.2-6.2c2.4-3.3,7.6-2.1,11-1.5
					c2.5,0.4,5.2,0.5,7.7,0.5c2.2,0,4.5-0.1,6.7-0.5c-3-0.2-5.7-0.5-8.5-1.9c-3.9-1.9-6.9-5.1-9.3-8.6
					C256.3,177,253.7,173.6,252.3,169.6z"/>
			</g>
			<g>
				<path class="st10" d="M237,167.6c-0.6,1.1-1.4,3.1-1.2,4.4c2.9,0.2,4.8,1.7,7,3.5c2.1,1.8,2.8,4.1,2.9,6.8
					c0.1,3.1-0.1,6.1-0.7,9.1c-0.8,3.8-2.6,7.4-3.7,11.1c-0.6,1.9-1.8,3.4-2.6,5.2c-0.8,1.7-1.6,3.2-2.6,4.8
					c-1.3,2.3-2.5,4.9-3.6,7.2c-0.5,1.1-0.6,1.2,0,2.2c0.7,1.3,1.2,2.8,1.4,4.3c0.2,1.9-0.3,3.8-0.5,5.7c-0.2,1.7,0.4,3.5,2,4.4
					c2.1,1.1,2.2-1.5,2.1-3c-0.2-1.9-0.8-3.7-0.7-5.8c0.1-1.1,0.2-1.9-0.4-2.9c-0.6-1-1.3-1.9-1.6-3.1c-0.6-2.9,2.3-6.4,3.8-8.7
					c1.9-3,3.6-6.3,5.5-9.4c0.7-1.1,1.3-2.1,1.7-3.3c0.3-0.9,1.1-1.2,1.3-2.1c0.5-1.7,0.2-3.8,0.6-5.6c0.5-2.1,1.3-4,2.1-6
					c0.7-1.8,1.5-3.7,1.3-5.6c-0.2-2.2-0.4-4.2-0.5-6.4c-0.1-1.8-0.2-4.3-0.6-6c-2.1-0.2-5.5,0.5-7.7,0.6c-1.9,0.1-3.9,0.2-5.6-0.7
					c-0.3,0.7-1.7,3.7-0.6,4.1"/>
			</g>
			<g>
				<path class="st10" d="M301.1,175c-0.1,1.9-1.3,3.6-1.8,5.3c2.4-0.6,5.5,0.7,7.4,2.2c2,1.6,2.7,4,3,6.5c0.3,3.3-0.7,6.7-1.8,9.8
					c-1.1,3.1-2.8,6.7-4.7,9.3c-1.2,1.6-2.3,3.1-3.8,4.4c-1.9,1.6-3.8,3-5.4,4.8c-2.4,2.7-4.9,5.3-7.1,8c-0.6,0.7-1.5,1.6-1.6,2.5
					c-0.1,0.8,0.3,1.7,0.2,2.6c-0.2,1.4-1.1,2.4-2,3.5c-1.1,1.4-2.1,2.8-3.5,4c-1.6,1.5-2.9,3.3-4.6,4.7c-1.1,0.9-2.3,1.5-3.8,1.6
					c-1.3,0.1-1,0.2-1.9,1c-0.8,0.7-1.9,0.4-2.8,0.7c-0.4,0.1-0.6,0.4-1.1,0.5c-0.7,0.1-1.2-0.3-1.8-0.3c-0.5,0-0.5-0.2-0.6,0.5
					c-0.1,0.4,0.1,1.9,0.3,2.2c0.6,0.6,2-0.1,2.8-0.2c0.6-0.1,0.8,0.8,1.3,0.9c0.5,0.1,0.6-0.1,1.2-0.1c1.5,0.1,2.2-1.4,2.7-2.5
					c-0.4,2.7,1.9,2.8,3.1,1.7c0.9-0.8,1.8-2.7,2.4-3.8c0.6-1.1,1.5-2,2.3-3c1.6-1.9,3.8-2.9,5.5-4.7c2-2.2,2.7-4.9,4-7.4
					c0.6-1.1,1.7-1.8,2.7-2.6c1.8-1.5,3.5-3.1,5.2-4.8c3-3,6.2-6,9-9.2c2.1-2.3,3.4-4.8,4.7-7.6c1.3-2.8,3.1-5.2,4.1-8.1
					c1.4-4.1,2.3-7.9,3-12.1c0.5-2.9,1.2-5.8,2-8.6c-0.8-0.1-1.6,0.3-2.4,0.4c-0.9,0.1-1.8,0.1-2.7,0.3c-2,0.3-4.1,0.2-6.1,0
					c-1.5-0.2-2.9-0.5-4.4-0.8c-1.5-0.3-3-0.2-4.3-1.1c-0.1,0.8-0.3,4.6,0.2,4.9"/>
			</g>
			<g>
				<path class="st11" d="M249.4,204.9c-1.8,1.9-3.6,4-5.1,6.2c2.5-1.3,6-0.8,8.9-1c4.5-0.2,9,0.8,13.4,2c3.8,1.1,7.6,2.5,11.4,3.8
					c2.1,0.7,4.1,1.9,6.1,2.6c0.4-1.6,1.5-3.2,2.1-4.8c0.7-1.6,1.3-3.1,2-4.7c0.6-1.5,1.1-3.4,2.1-4.6c-1,0.4-1.8,1.2-2.8,1.6
					c-1.5,0.6-3,0.9-4.6,1.2c-3.9,0.6-7.8,0.2-11.7,0.3c-2.9,0-6.2-0.1-9.1-0.4c-2.9-0.3-5.9-0.3-8.7-1c-1.1-0.3-2.1-0.8-3.1-1.1
					c-1.2-0.4-1.4-0.2-2,0.8c-1,1.8-2.1,3.8-3.7,5.1c0.2,0,0.3,0,0.5,0"/>
			</g>
			<g>
				<path class="st11" d="M301.4,218.2c-2,1-3.1,4.3-4.7,5.9c-1,1-2.3,1.8-3.3,2.8c-0.9,0.9-1.8,1.8-2.6,2.8
					c-0.5,0.6-1.4,1.1-1.7,1.8c-0.6,1.2-0.7,2-1.8,3.1c-1.1,1.2-1.7,2.4-2.4,3.8c-1.4,2.8-4.6,3.9-6.1,6.6c-1,1.8-2.4,3.8-4.1,5
					c-1.5,1-2.9,1-4.7,1.3c-1.1,0.2-1.8-0.2-2.8-0.6c-1-0.4-1.4,0.1-2.5,0c-1.1-0.2-1.6-0.8-2.2-1.5c-0.7-0.9-1.2-1.6-1.4-2.9
					c-0.1-0.7-0.3-1.4,0.4-1.8c-0.1,0.6,0.3,1.1,0.9,0.9c0.1,1.2-0.4,2.5,0.7,3.4c0.8,0.7,1.8,0.3,2.6,0.4c0.9,0.2,1.7,0.8,2.7,0.8
					c1.2,0,1.8-0.9,2.6-1.5c2.4,1.5,3.6,0.7,5.3-1.4c1.6-2,3-4.2,4.8-6c1.7-1.7,3.4-3.3,4.6-5.5c0.8-1.4,1.4-2.9,2.3-4.3
					c0.7-1.1,1.8-1.6,2.8-2.4c1.5-1.1,2.9-2.4,4.2-3.6c1-0.9,1.9-2,2.9-2.8"/>
			</g>
			<g>
				<path class="st11" d="M257.2,228.6c-0.9,0.4-1.7,1.7-2.4,2.4c-1.3,1.3-2.6,2.6-3.9,3.9c-1.8,1.7-3.4,3.4-5,5.3
					c-3.1,3.6-6,7.6-8.2,11.9c-1.8,3.5-5.7,12.3,1.4,12c3.3-0.1,6.2-4.2,8.3-6.4c2.2-2.3,2.6-5.9,4-8.9c0.9-1.9,1.7-3.7,2.4-5.7
					c0.6-1.9,1.1-3.9,2-5.7c0.9-1.8,3-3.8,3.1-5.8c0.1-1.2-0.6-2.2-1.4-2.9c-0.4,0.4-0.7,0.9-1,1.3"/>
			</g>
			<g>
				<path class="st11" d="M213.3,243.1c-0.1-0.1,0,0.6-0.1,0.6c-0.1,2.3,0.5,3.7,3.2,3.6c2.1-0.1,3.8,0.6,5.8-0.7
					c1.7-1.1,3.2-2.9,4.6-4.3c0.8-0.9,1.4-1.9,2.6-2.3c2.4-0.8,5.1,0.4,7.3-1.5c1-0.8,2.1-2.6,2.3-3.8c0.3-1.3-0.5-2.1-0.6-3.4
					c-0.1-1.1,0.3-2.1,0.1-3.2c-0.2-0.8-0.6-1.6-1-2.3c-0.5,1.3-0.1,3.4,0,4.8c0.1,1.5,0.2,3.2-0.1,4.6c-0.3,1.5-1.9,2.5-3.3,1.2
					c-0.8-0.7-1.3-2.4-1.6-3.3c-0.2-0.8,0.2-1.7-0.5-2.2c-1.7,1.3-3,2.9-4.2,4.8c-0.8,1.3-0.9,2.6-1.6,4c-0.5,1-5.2,5.9-5.5,3.5
					c-0.2,1.1-1,2.1-1.9,2.7c-1.2,0.8-1.9,0.4-2.5-0.8c-1.2,0.1-2.5-1.3-2.9-2.4C213.3,242.8,213.3,242.9,213.3,243.1"/>
			</g>
			<g>
				<path class="st11" d="M304.3,214c-0.2,0.5,0,1.4,0,2c0,1.5-0.3,3-0.7,4.5c-0.6,1.9-1.3,3.9-2.1,5.8c-1.8,4-4.3,7.7-7.1,11.1
					c-2.9,3.5-5.7,7.3-8.3,11c-2.3,3.3-5.1,6.2-7.5,9.3c-1.7,2.1-3.7,4-5.3,6.2c-1.5,2.1-3.4,4.1-4.1,6.6c-0.6,1.8-1,4,0.3,5.6
					c1.2,1.5,3.6,0.8,5.3,0.6c3.2-0.3,6.4-0.8,8.9-2.8c2.6-2.1,4.9-4.6,7.4-6.8c2.6-2.3,5.3-4.4,7.6-7c2.1-2.3,4.3-4.9,6.1-7.5
					c1.5-2.1,3-4,4.7-6c1.7-2,3.7-3.1,5.7-4.7c0.6-0.5,1.7-1.3,2-2c0.4-1-0.1-2.9-0.4-3.9c-0.7-2.5-0.4-4.9-1.4-7.3
					c-0.5-1.3-1-2.8-1.7-4.1c-0.4-0.7-1.1-1.4-1.4-2.1c-0.5-1.2,0.1-1.3,0.7-2.2c0.5-0.7,0.8-1.7,1-2.5c0.3-1.7,0.7-3.2,0.9-5
					c0.2-1.9-0.2-3.5-0.5-5.3c-0.4-2-0.6-4.3-1.4-6.1c-0.9,1.9-2.2,3.4-3.2,5.2c-0.8,1.4-1.7,2.6-2.5,4c-1.1,1.8-2.5,3.3-3.7,4.9
					c-0.3,0.4-1.3,1.4-1.3,1.9c0,0.6,0.7,1.4,0.7,2.1"/>
			</g>
			<g>
				<path class="st12" d="M315.8,164.7c-0.4,0.6-0.3,2.7-0.5,3.8c-0.3,1.7-0.7,3.6-1.3,5.3c-0.4,1.2-1.1,2.3-1.7,3.4
					c2.5,0.9,6.5-0.1,9-0.8c1.6-0.5,3.1-1.1,4.2-2.3c2.1-2.4,0.8-8.4-0.2-11.2c-3.4,1-5.8,3.1-9.5,3.1c0.1,0,0.3,0,0.4,0"/>
			</g>
			<g>
				<g>
					<path class="st13" d="M270.7,141.9c-3.1,0-6.5-1.3-6.6-1.3l-0.3-0.1l0-0.3c0.1-9,2.1-19.5,2.1-19.6l1,0.2
						c0,0.1-1.9,10.3-2.1,19.1c1.1,0.4,4.6,1.5,7.3,1.1c0.2-2.5,1-16.4,2.1-19.1l0.9,0.4c-1.1,2.8-2,19-2.1,19.2l0,0.4l-0.4,0.1
						C272,141.9,271.4,141.9,270.7,141.9z"/>
				</g>
			</g>
			<g>
				<g>
					<path class="st14" d="M252.7,113.5l-0.3-0.3c-0.4,0.4-9.1,8.6-10.2,10.3c-0.4,0.6-1.1,3.2-2.5,8.6c-1.8,6.7-4.2,15.8-6.5,22.4
						c0.3,0.2,0.5,0.5,0.8,0.7c2.4-6.6,4.8-16,6.7-22.8c1.1-4.1,2.1-7.9,2.4-8.4c0.8-1.2,6.8-7,9.6-9.7
						C252.6,114,252.6,113.7,252.7,113.5z"/>
				</g>
				<g>
					<path class="st13" d="M237,167.1c-3.8-1.5-5.7-4.1-6.2-4.9c0.9-1.2,1.9-3.4,3-6.5c0.1-0.2,0.1-0.4,0.2-0.6
						c-0.3-0.2-0.5-0.5-0.8-0.7c-0.1,0.3-0.2,0.6-0.3,0.9c-1.2,3.2-2.2,5.4-3,6.5l-0.2,0.2l0.1,0.3c0.1,0.1,2,3.7,6.9,5.6
						c2.1,0.8,4.3,1.2,6.8,1.2c1.8,0,4.1-0.2,6.1-0.6l0.1-1.2C245.1,168.5,240.4,168.5,237,167.1z"/>
				</g>
			</g>
			<g>
				<g>
					<path class="st14" d="M248.5,138.6c-0.3-0.7-0.7-1.9-1.2-3c-0.8-2-1.2-2.9-1.2-3.1l0.1-0.4c0.1,0.2,1.5,1.9,2,3.1
						c0.5,1.1,0.9,2.3,1.2,3L248.5,138.6z"/>
				</g>
			</g>
			<g>
				<g>
					<path class="st14" d="M276.1,200.6c-15.2,0-26.3-4.3-27.9-5c-0.2-0.1-0.3-0.1-0.3-0.1l-0.2-0.1l-0.1-0.4
						c-1.2-2.7,0.4-6.1,1.7-8.9c0.6-1.3,1.2-2.5,1.3-3.3c0.3-1.9-0.1-6.2-0.5-10.4c-0.1-1.5-0.3-3-0.4-4.4c0-0.3-0.1-0.7-0.1-1.1
						c-0.1-1.6-0.3-4.8-0.5-8.3c-0.4-8.8-0.9-20.7-0.9-20.7l1,0c0,0,0.5,11.9,0.9,20.7c0.2,3.4,0.4,6.7,0.5,8.2c0,0.3,0,0.7,0.1,1
						c0.1,1.4,0.3,2.9,0.4,4.4c0.4,4.4,0.8,8.6,0.5,10.6c-0.1,1-0.7,2.2-1.4,3.6c-1.2,2.6-2.7,5.7-1.7,8.1l0,0c0,0,0.1,0,0.1,0
						c2.1,0.9,20.9,8.2,43.6,3.2l0.2,0.9C286.7,200.1,281.2,200.6,276.1,200.6z"/>
				</g>
			</g>
			<g>
				<g>
					<path class="st14" d="M274.2,207.7c-3.5,0-7.2-0.2-11.2-0.6c-8.1-0.8-14.3-2.2-14.3-2.2l-0.4-0.1l-0.3-10.4l1,0l0.3,9.7
						c1.4,0.3,6.9,1.4,13.8,2.1c10.5,1,19.9,0.5,26.5-1.2l-0.5,1.1C285,207.1,280,207.7,274.2,207.7z"/>
				</g>
			</g>
			<g>
				<g>
					<path class="st14" d="M322.9,144.1c-0.5-5.2-2.1-17.6-5.7-22.2c-3.4-4.3-17.8-13.8-18.4-14.2l0.2,1c0.1,0.1,14.2,9.6,17.4,13.7
						c3.4,4.4,5,16.6,5.5,21.7c0.3,2.7,1.1,8.6,2.6,18.1l0,0.1c0.3-0.1,0.6-0.3,0.9-0.4C324.1,152.6,323.2,146.8,322.9,144.1z"/>
				</g>
				<g>
					<path class="st14" d="M301.2,164.1c0.2-2.4,0.3-3.8,0.3-4.3c0-0.7-0.1-3-0.1-5.7c-0.1-4.9-0.3-11.5-0.2-13
						c0.1-2.2,1.4-5.5,1.4-5.6l-0.9-0.4c-0.1,0.1-1.4,3.5-1.5,5.9c-0.1,1.5,0.1,7.9,0.2,13.1c0.1,2.7,0.1,5,0.1,5.7
						c0,0.6-0.2,2.5-0.3,3.9c0.3,0.2,0.6,0.4,0.9,0.6C301.1,164.3,301.1,164.2,301.2,164.1z"/>
				</g>
				<g>
					<path class="st13" d="M326.1,165.7l-0.5-3.5c0,0,0-0.1,0-0.1c-0.3,0.1-0.6,0.3-0.9,0.4l0.5,3.4c0.5,3.5,1,6.5,1.1,7
						c-0.4,0.4-2.6,2.2-6.6,3.3c-4,1.1-10.5,1.7-18.8-1.7c-0.2-0.1-0.5-0.2-0.7-0.3c0.1-1.3,0.7-6.1,1.1-9.8
						c-0.3-0.2-0.6-0.4-0.9-0.6c0,0.1,0,0.2,0,0.3c-0.4,4.4-1.1,10.4-1.1,10.4l0,0.4l0.5,0.2c0.3,0.1,0.6,0.3,0.9,0.4
						c4.8,2,9,2.6,12.6,2.6c2.8,0,5.1-0.4,6.9-0.9c4.5-1.3,7.1-3.5,7.3-4C327.2,172.9,327.2,172.4,326.1,165.7z"/>
				</g>
			</g>
			<g>
				<g>
					<path class="st13" d="M244.1,159.7c-4.3,0-7.9-1.1-10.6-3.4c-0.1-0.1-0.2-0.1-0.2-0.2l0.2-0.3v-0.6c0.2,0,0.4,0.1,0.6,0.4
						c3.4,2.9,8.7,3.9,15,2.8l-0.2,0.9C247.3,159.5,245.7,159.7,244.1,159.7z"/>
				</g>
			</g>
			<g>
				<g>
					<path class="st13" d="M310.2,166.2c-5.7,0-9.2-1.6-9.5-1.7l0.4-0.9c0.1,0,10.1,4.5,23.8-1.8c0.2-0.1,0.4-0.2,0.6-0.3l-0.1,1
						c-0.2,0.1,0.1,0-0.1,0.1C319.4,165.4,314.2,166.2,310.2,166.2z"/>
				</g>
			</g>
			<g>
				<g>
					<path class="st15" d="M212.9,240.7c-3.9-6.3,1-12.2,1.6-12.8c0.7-0.8,4.3-3.9,6.7-5.9c0.9-0.8,1.7-1.5,1.8-1.6
						c0.3-0.4,2.7-6.1,4.2-14.2c0.6-3.6,2.4-11.4,7.2-28.3l0.2-0.6c0.3-1.2,0.7-3.7,1-5.7c0.4-2.6,0.5-3.5,0.7-3.8l0.8,0.5l-0.4-0.2
						l0.4,0.2c-0.1,0.3-0.4,2-0.6,3.5c-0.3,2.2-0.6,4.6-1,5.8l-0.2,0.6c-4.8,16.8-6.5,24.6-7.2,28.2c-1.5,8.3-4,14.2-4.4,14.7
						c-0.1,0.1-0.7,0.6-1.9,1.6c-2.2,1.9-6,5.1-6.6,5.9c-0.5,0.6-5.1,6-1.5,11.7L212.9,240.7z"/>
				</g>
			</g>
			<g>
				<g>
					<path class="st15" d="M216.6,245.7c-1.5-0.2-3.1-1.4-3.4-3.2c0-0.2,0-0.2,0-0.3c0-0.3,0-1.3,0-1.8c0.1-2.1,0.4-4.9,1-6
						c0.8-1.6,5-6.9,5.2-7.1l0.1,0.8c0,0.1-3.6,5.2-4.4,6.7c-0.5,0.9-0.8,3.6-0.9,5.6c0,1,0,1.5,0,1.7c0,0.1,0,0.2,0,0.2
						c0.2,1.3,0.9,2.1,2,2.3L216.6,245.7z"/>
				</g>
			</g>
			<g>
				<g>
					<path class="st15" d="M217.9,246.5c-0.4,0-0.7-0.1-1-0.3c-0.3-0.2-0.6-0.5-0.7-1c-0.8-2.2,0.1-7.4,0.6-8.4
						c0.5-1.1,4.7-6.6,4.8-6.8l0,0.6c0,0.1-3.5,5.6-4,6.6c-0.4,0.8-1.3,5.8-0.6,7.6c0.1,0.2,0.2,0.4,0.3,0.5c0.3,0.2,0.7,0.2,1.1,0
						c0.9-0.4,1.7-1.5,1.9-2.3l1-0.2c0,0.2,0,0.3-0.1,0.5c-0.2,0.9-1.2,2.3-2.4,2.8C218.5,246.5,218.2,246.5,217.9,246.5z"/>
				</g>
			</g>
			<g>
				<g>
					<rect x="231.6" y="230.8" transform="matrix(0.7095 -0.7047 0.7047 0.7095 -95.6003 230.6478)" width="0.6" height="1"/>
				</g>
			</g>
			<g>
				<g>
					<path class="st15" d="M221.8,244.4c-0.2,0-0.5,0-0.7-0.1c-0.4-0.2-0.6-0.5-0.7-0.8c-0.5-1.2-0.1-3.2,0.3-5
						c0-0.2,0.1-0.4,0.1-0.6c0.2-1.2,3-6,3.2-6.5l0.2,0.6c-0.6,1.4-2.3,5.2-2.5,6.1c0,0.2-0.1,0.4-0.1,0.6c-0.3,1.1-0.8,3.4-0.4,4.4
						c0.1,0.2,0.2,0.3,0.2,0.3c0.2,0.1,0.4,0.1,0.7,0c1.2-0.5,2.7-2.4,3.5-4.5c1.2-2.9,3.8-5.8,3.9-5.9l1.8-1.8l0.7,0.7l-1.8,1.7
						c0,0-2.6,2.9-3.7,5.6c-0.9,2.4-2.6,4.4-4,5C222.3,244.4,222,244.4,221.8,244.4z"/>
				</g>
			</g>
			<g>
				<g>
					<path class="st15" d="M235.9,237.4c-1.2,0-2.8-0.8-3.6-2.5c-0.7-1.4-0.9-2.6-1-3.4c-0.1-0.5-0.1-0.7-0.1-0.7h1c0,0,0,0.2,0,0.5
						c0.1,0.7,0.3,1.8,1,3.1c0.7,1.4,2.2,2.1,3.1,1.9c0.6-0.2,0.7-0.8,0.6-1.3c-0.2-1.5-0.3-3.6-0.3-5.4c-0.1-1.4-0.1-2.6-0.2-3.3
						c-0.2-1.3-1.9-3.9-2.5-4.9l-0.2-0.3l0.2-0.3c0.3-0.5,0.8-1.3,1.3-2.3c2.1-3.9,6.1-11.5,11.4-22c0.1-0.3,0.3-0.5,0.4-0.8
						l0.6-1.1c0.2-0.4,0.3-0.6,0.3-0.6l0.8,0.5c0,0-0.1,0.2-0.3,0.6l-0.6,1.2c-0.1,0.2-0.3,0.5-0.4,0.7c-5.4,10.5-9.3,18.2-11.5,22
						c-0.5,0.9-0.9,1.6-1.2,2.1c0.6,0.9,2.3,3.6,2.5,5c0.1,0.8,0.1,2,0.2,3.4c0.1,1.8,0.1,3.8,0.3,5.3c0.1,1.2-0.4,2-1.3,2.3
						C236.3,237.4,236.1,237.4,235.9,237.4z"/>
				</g>
			</g>
			<g>
				<g>
					<path class="st15" d="M261.8,245.6c-0.5,0-1-0.2-1.5-0.7c-1.2-1.4-1-6.8-0.4-8.3c0.1-0.4,0.3-0.8,0.5-1.1c0.5-1.1,1.2-2,2-3
						c1-1.1,3-2.2,5.2-3.3c0.6-0.3,1.3-0.7,1.9-1c2.5-1.4,11.6-6.1,12.7-6.7c0.2-0.4,1-1.6,1.6-3c0.4-1,2.3-5.2,4-9.4l1.4-3.3
						c0.4-1,0.8-1.9,1.1-2.7l0.8-2c0.3-0.7,0.7-1.6,1.1-2.6c0.6-1.4,1.3-3,2-4.7c1.9-4.5,4.3-10.1,4.4-10.7c0.2-1.2,1.5-8,1.5-8
						l1,0.2c0,0-1.3,6.8-1.5,8c-0.1,0.7-1.9,4.8-4.5,10.9c-0.7,1.7-1.4,3.3-2,4.7c-0.5,1-0.8,1.9-1.1,2.6l-0.8,2
						c-0.3,0.8-0.7,1.7-1.1,2.7l-1.4,3.3c-1.8,4.1-3.6,8.4-4,9.4c-0.7,1.7-1.7,3.2-1.7,3.2l-0.1,0.1l-0.1,0.1c0,0-10.1,5.3-12.8,6.7
						c-0.6,0.3-1.3,0.7-2,1c-2.1,1.1-4.1,2.1-5,3.1c-0.8,1-1.5,1.9-1.9,2.8c-0.2,0.3-0.3,0.6-0.4,1c-0.5,1.5-0.6,6.4,0.2,7.3
						c0.7,0.8,1.5,0.2,1.5,0.2l0.6,0.8C262.9,245.3,262.4,245.6,261.8,245.6z"/>
				</g>
			</g>
			<g>
				<g>
					<path d="M266.6,248.4l-0.8-0.5c0.1-0.2,0.2-0.4,0.3-0.6l0.9,0.4C266.8,248,266.7,248.2,266.6,248.4z"/>
				</g>
			</g>
			<g>
				<g>
					<path class="st15" d="M264.6,250c-0.6,0-1.2-0.4-1.8-1.2c-0.7-0.9-0.6-2.8-0.4-4.1c0.1-1,0.3-2,0.5-2.5
						c0.3-1.1,1.2-3.7,1.7-4.7c0.5-1,2.9-3.5,2.9-3.6l0.2,0.5c0,0-1.8,2.6-2.3,3.6c-0.5,0.9-1.3,3.4-1.6,4.5
						c-0.2,0.5-0.4,1.5-0.5,2.4c-0.3,1.7-0.2,2.9,0.2,3.4c0.4,0.6,0.9,0.9,1.1,0.8c0.3,0,0.7-0.4,1.1-1.1l0.9,0.5
						c-0.5,1-1.1,1.6-1.8,1.6C264.7,250,264.7,250,264.6,250z"/>
				</g>
			</g>
			<g>
				<g>
					<path class="st15" d="M268.1,250.4c-0.6,0-1.1-0.1-1.5-0.4c-0.7-0.5-1-1.1-1-1.8c0-0.4,0.1-0.9,0.2-1.3
						c0.1-0.3,0.1-0.6,0.2-0.9c0.2-1.5,0.6-2.8,1.4-4.6c0.7-1.8,2.7-5.4,3-5.7l0.8,0c-0.2,0.3-2.1,4.2-2.9,6c-0.7,1.8-1.1,3-1.3,4.4
						c-0.1,0.4-0.1,0.7-0.2,1c-0.1,0.4-0.2,0.7-0.2,1c0,0.4,0.1,0.7,0.6,1c0.4,0.3,1.1,0.3,1.8,0.1c1-0.4,1.8-1.2,2.1-2.2
						c0.1-0.1,0.1-0.2,0.1-0.3l1,0.2c0,0.1-0.1,0.3-0.1,0.4c-0.3,1.3-1.3,2.3-2.6,2.8C269,250.3,268.5,250.4,268.1,250.4z"/>
				</g>
			</g>
			<g>
				<g>
					<path class="st15" d="M273.1,250.4c-0.1,0-0.1,0-0.2,0c-0.7-0.1-1.2-0.6-1.6-1.4c-0.2-0.5-0.3-1.1-0.2-1.8
						c0.1-1.7,0.9-3.8,1.3-5l0.1-0.2c0.7-1.8,3.8-4.5,3.9-4.6l0.6-0.1c-0.8,0.7-3.1,3.8-3.5,5.1l-0.1,0.2c-0.4,1.2-1.2,3.2-1.3,4.7
						c0,0.6,0,1,0.2,1.4c0.2,0.4,0.4,0.8,0.8,0.9c0.5,0.1,1.1-0.4,1.9-1.3c1.4-1.7,2.1-3.7,2.1-3.8c0.3-0.8,1.2-1.5,2-2.1
						c0.2-0.2,0.5-0.3,0.6-0.5l0.3-0.3c3.2-2.7,6.8-5.8,7.7-9.8l0.3-1.4c0.2-0.7,1.2-1.6,2.6-2.6c0.3-0.3,0.6-0.5,0.8-0.6l4.2-3.8
						c3.5-3.1,6.4-6.3,9-9.8c1.1-1.4,2.2-2.9,3.1-4.4c1.7-2.6,3.2-5.3,4.5-8.2l0.2-0.3c1.6-3.6,2.9-7.3,4.1-10.7
						c0.5-1.3,0.9-2.7,1.2-4.1c0.5-2.1,1-4.8,1.3-6.8c0.2-1.2,0.4-2.1,0.5-2.6c0-0.1,0.1-0.3,0.2-0.4l0.7,0.7l-0.3-0.4l0.5,0.2
						c0,0.1,0,0.1,0,0.2c-0.1,0.4-0.2,1.3-0.4,2.5c-0.3,2-0.8,4.7-1.3,6.8c-0.3,1.4-0.8,2.8-1.2,4.2c-1.2,3.5-2.4,7.2-4.1,10.8
						l-0.2,0.3c-1.3,2.9-2.8,5.6-4.6,8.3c-0.9,1.5-2,3-3.2,4.5c-2.6,3.5-5.6,6.7-9.2,9.9l-4.2,3.8c-0.2,0.2-0.5,0.4-0.9,0.7
						c-0.6,0.5-2.2,1.6-2.2,2l-0.3,1.4c-1,4.3-4.9,7.7-8,10.3l-0.3,0.3c-0.2,0.2-0.4,0.3-0.7,0.5c-0.6,0.5-1.4,1.1-1.6,1.6
						c0,0.1-0.8,2.2-2.3,4C274.7,249.8,273.9,250.4,273.1,250.4z"/>
				</g>
			</g>
			<g>
				<g>
					<path class="st16" d="M235.1,221.9l-0.7-0.6c0.7-0.8,3.3-3.8,6-7.1c8.4-9.9,8.5-9.9,8.7-10l0.3,0.9l-0.2-0.5l0.3,0.4
						c-0.4,0.3-4.9,5.6-8.4,9.8C238.4,218.1,235.8,221.1,235.1,221.9z"/>
				</g>
			</g>
			<g>
				<g>
					<path class="st16" d="M227.5,268.2c-4.1,0-12.1-5.7-13.9-8.3c-1.6-2.3-1.7-3.6-1.7-6.4l0-0.7c-0.1-3.2,1.1-10.1,1.5-10.6
						l0.8,0.6l-0.4-0.3l0.4,0.2c-0.2,0.5-1.4,6.8-1.3,10l0,0.7c0.1,2.8,0.1,3.8,1.6,5.9c1.6,2.4,9.5,7.9,13.1,7.9
						c4,0,16.6-4.6,20.8-10.9l0.8,0.5C244.6,263.7,231.6,268.2,227.5,268.2z"/>
				</g>
			</g>
			<g>
				<g>
					<path class="st16" d="M265.6,278.3c-0.8,0-1.6,0-2.4-0.1c-7.9-0.8-13.1-6.2-14.7-11.3c-1-3.2-0.4-7.9,0.1-10.4
						c0.4-2.4,1.1-4.8,1.8-6.6c1.1-2.9,4.8-10.5,6.8-14.7c1.2-2.4,2-4.2,2-4.2l0.9,0.4c0,0-0.8,1.7-2,4.1
						c-2.1,4.2-5.7,11.8-6.8,14.6c-0.7,1.8-1.3,4.1-1.7,6.4c-0.8,4.1-0.8,7.7-0.1,9.9c1.1,3.5,5.3,9.7,13.9,10.6
						c2.6,0.3,5.9,0,9.5-0.6c6.8-1.3,12.3-3.6,13.6-5c1.2-1.4,3.2-3,5.2-4.6c1.8-1.4,3.6-2.8,4.5-3.9c2-2.4,8.8-11.4,11.1-14.9
						c1.8-2.6,4.9-5,6.9-6.6c0.6-0.5,1.1-0.9,1.4-1.2l1.1-1c0-0.4-0.1-1.3-0.3-2.6c-0.6-3.7-1.2-6.8-2.1-9.3
						c-0.3-0.8-0.6-1.6-0.9-2.5c-0.5-1.1-1-2.1-1.6-2.9l0.6-0.8c0.6,0.8,1.3,2.1,1.8,3.3c0.4,0.8,0.7,1.7,1,2.5
						c0.9,2.6,1.6,5.7,2.1,9.5c0.2,1.7,0.3,2.9,0.3,2.9l0,0.2l-1.4,1.3c-0.3,0.3-0.8,0.7-1.5,1.2c-2,1.5-5,3.9-6.7,6.4
						c-2.3,3.5-9.1,12.7-11.2,15c-1,1.2-2.8,2.6-4.7,4c-2,1.5-4,3.1-5.1,4.4c-1.6,1.8-7.8,4.2-14.1,5.3
						C270.3,278.1,267.8,278.3,265.6,278.3z"/>
				</g>
			</g>
			<g>
				<g>
					<path class="st16" d="M277.6,268.8l-0.5-0.8l0.2-0.1c0.5-0.3,1.9-1.1,3.2-2.2c0.6-0.5,1.1-1.1,1.6-1.6c0.8-0.8,1.4-1.5,2.2-1.9
						c0.7-0.4,1.6-0.2,2.3-0.1c0.4,0.1,1,0.2,1.1,0.1c0.2-0.2,0.4-1.2,0.2-5.7c0-0.3,0-0.5,0-0.6c0-0.9,0.5-2,1.8-3.8
						c1.4-2,16.2-20.5,16.9-21.3l0,0c0,0,2.7-4.3,4.8-9.1l0.4-0.8c0.8-2,1.4-3.7,1.7-5.2c1.4-6.2-0.8-13.4-1.1-13.9l0.3-0.2l0.2-0.6
						c0.9,0.3,3,8.6,1.6,14.9c-0.3,1.6-0.9,3.3-1.8,5.4l-0.4,0.8c-2.1,4.8-4.9,9.2-4.9,9.3c-0.2,0.2-15.5,19.3-16.9,21.3
						c-1.1,1.6-1.6,2.6-1.6,3.2c0,0.1,0,0.3,0,0.6c0.1,4.1,0,5.9-0.5,6.4c-0.5,0.6-1.3,0.4-2,0.2c-0.6-0.1-1.2-0.3-1.7,0
						c-0.6,0.3-1.2,1-1.9,1.7c-0.5,0.5-1.1,1.1-1.7,1.7c-1.4,1.2-3.8,1.3-4.3,1.6L277.6,268.8z"/>
				</g>
			</g>
			<g>
				<g>
					<path class="st16" d="M254.5,219.6l-0.1-0.5c2-4.2,8-12.1,8.3-12.5l0.8,0.6C263.3,207.3,256.4,215.5,254.5,219.6z"/>
				</g>
			</g>
			<g>
				<g>
					<path class="st16" d="M261.3,228.3l-0.7,0.1c1.7-6.5,11.7-20.3,12.2-20.9l1.1,0C273.8,207.6,262.9,222,261.3,228.3z"/>
				</g>
			</g>
			<g>
				<g>
					<path class="st16" d="M260.4,230.8l-2.1-1.2c-0.3-0.1-6.3-3.6-8.3-6.9l0.8-0.5c1.2,1.9,4.1,4.1,6,5.4c-1.2-1.9-2.8-4.9-3.4-8
						c-0.2-1.1-0.3-2.2-0.2-3.1l1,0.1c-0.1,0.9,0,1.9,0.2,2.9c0.9,4.8,4.5,9.5,4.5,9.6L260.4,230.8z"/>
				</g>
			</g>
			<g>
				<g>
					<path class="st16" d="M243.1,252.8l-0.7-0.7c4.5-4.4,13.9-18.3,14.3-18.9l0,0.5C255.7,235.2,247.6,248.3,243.1,252.8z"/>
				</g>
			</g>
			<g>
				<g>
					<path class="st17" d="M319.5,227.3c-0.6-3.8-3.1-6.6-6.7-6.7l-0.4,0.9c3.1,0.1,5.7,2.6,6.2,5.9c0.4,2.4-0.1,6-1.5,8.3
						c0,0.2,0.1,0.4,0.1,0.6c0,0,0,0,0,0.1c0,0,0,0.1,0,0.1c0,0,0,0.1,0,0.1c0,0.1,0,0.2,0,0.2l0.2,0.1
						C319.3,234.5,320,230.1,319.5,227.3z"/>
				</g>
			</g>
			<g>
				<g>
					<path class="st16" d="M276.1,272c-0.6,0-1-0.2-1.2-0.3c-0.4-0.3-0.6-0.7-0.6-1.1c0-0.3-0.6-1.4-1.1-2.3l-0.2-0.4l1.5-1.2
						c0.8-0.7,1.1-0.9,1.1-1.6c0-0.5-0.2-1.2-0.3-1.9c-0.2-0.9-0.3-1.7-0.3-2.2c0-0.7,0.7-1.7,1.5-2.9c0.3-0.4,0.6-0.9,1-1.4
						c0.5-0.8,1.1-1.5,1.7-2.2c0.8-0.9,1.5-1.8,1.9-2.6c0.7-1.5,4-5.9,6.7-8.2c2.5-2.1,5.3-6.1,6-7.7c0.3-0.8,1.6-2.3,3.3-4.4
						c2.2-2.7,5.3-6.4,7.5-9.9c3.8-6,3.6-11.4,3.6-11.5l0.7-1c0,0.2,0.2,6.5-3.8,12.8c-2.3,3.6-5.1,7.3-7.4,10.1
						c-1.6,1.9-2.9,3.6-3.1,4.2c-0.7,1.7-3.6,5.7-6.3,7.9c-2.6,2.2-5.8,6.5-6.4,7.9c-0.4,0.9-1.3,2-2.1,2.9
						c-0.6,0.7-0.9,1.5-1.4,2.2c-0.3,0.5-0.9,0.9-1.2,1.4c-0.7,0.9-1.1,2-1.1,2.4c0,0.4-0.1,1.4,0,2.2c0.1,0.8,0.3,1.9,0.3,2.4
						c0.1,1.2-0.3,1.2-1.1,1.9l-1.1,0.6c0.4,0.7,1.3,2,1.3,2.5c0,0.1,0.1,0.2,0.2,0.3c0.1,0.1,0.7,0.4,1.9-0.1l0.5-0.2
						c1.6-0.7,3.2-1.3,4.1-2.2c0.4-0.4,0.7-0.9,1-1.4c0.5-0.8,1.1-1.7,2-2.3c0.4-0.3,0.9-0.5,1.4-0.7c1-0.5,1.9-1,2.2-1.4
						c0.2-0.3,0.5-1.4,0.8-2.5c0.4-1.6,0.9-3.7,1.6-4.9c0.7-1.4,1.7-2.4,2.6-3.5c0.6-0.6,1.2-1.3,1.7-2.1c1-1.3,2-2.5,2.8-3.3
						c0.5-0.5,0.8-0.9,1-1.2c0.2-0.3,0.5-0.6,0.9-0.9c0.5-0.4,1-0.9,1.5-1.7c0.3-0.5,0.6-0.9,0.8-1.1c0.3-0.5,0.5-0.8,1-1.7
						c0.4-0.8,0.8-1.3,1.2-1.7c0.3-0.4,0.6-0.8,0.9-1.3c0.2-0.3,0.3-0.7,0.5-1c0.4-0.8,0.8-1.7,1.4-2.6c0.7-1.2,1.7-2.6,2.4-3.4
						c0.7-0.7,2.5-2.8,3.4-5.4l0.9,0.4c-1,2.9-3,5-3.6,5.7c-0.7,0.7-1.6,2.2-2.3,3.3c-0.5,0.8-0.9,1.7-1.3,2.5
						c-0.2,0.4-0.3,0.7-0.5,1.1c-0.3,0.6-0.7,1.1-1,1.5c-0.3,0.4-0.7,0.9-1.1,1.6c-0.5,0.9-0.7,1.3-1.1,1.8
						c-0.2,0.3-0.4,0.6-0.7,1.1c-0.6,0.9-1.2,1.5-1.6,1.9c-0.3,0.3-0.6,0.5-0.7,0.8c-0.2,0.3-0.6,0.7-1.1,1.3
						c-0.8,0.8-1.8,2-2.7,3.3c-0.6,0.8-1.2,1.5-1.8,2.1c-0.9,1-1.8,2-2.5,3.3c-0.6,1.2-1.1,3.1-1.5,4.7c-0.4,1.5-0.6,2.4-0.9,2.8
						c-0.4,0.7-1.5,1.2-2.6,1.8c-0.5,0.2-0.9,0.5-1.4,0.7c-0.8,0.4-1.2,1.2-1.7,2c-0.3,0.5-0.7,1-1.1,1.5c-1,1.1-2.7,1.8-4.4,2.5
						l-0.5,0.2C277.1,271.9,276.5,272,276.1,272z"/>
				</g>
			</g>
			<g>
				<g>
					<path class="st16" d="M272.3,274.8c-0.3,0-0.6-0.2-0.7-0.4c-0.1-0.2-0.1-0.4,0-0.6c0-0.1-0.1-0.4-0.4-1.1
						c-0.2-0.5-0.4-0.9-0.6-1.2c-0.6-1-0.8-1.6,0-3.1c0.9-1.7,1.9-3.6,1.3-5c-0.6-1.5-0.5-4.3,1.8-7.4c1-1.3,3.1-3.7,5.2-5.9
						c2.1-2.4,4.4-4.8,5-5.8c1-1.4,3-3.5,4.7-5.2c0.8-0.8,1.4-1.4,1.8-1.9c1.3-1.5,11.5-15.4,12.1-17.1c0.3-1,0.8-2.4,1.2-3.6
						c0.4-1.1,0.7-1,0.8-1.4l0.9-1c-0.1,0.4-0.4,1.6-0.8,2.7c-0.4,1.2-1,2.3-1.3,3.3c-0.6,2.1-11.1,16.2-12.1,17.3
						c-0.4,0.5-1.3,1.2-2.1,1.9c-1.7,1.7-3.6,4.1-4.5,5.4c-0.7,1.1-2.9,3.4-5.1,5.9c-2,2.3-4.1,4.3-5.1,5.6
						c-2.1,2.7-2.6,5.5-2.1,6.8c0.8,1.8,0.1,3.8-1,5.8c-0.6,1.1-0.5,1.3,0,2.2c0.2,0.3,0.4,0.7,0.6,1.3c0.3,0.8,0.5,1.2,0.5,1.5
						c0.4-0.1,0.9-0.3,1.6-0.5l0.6-0.2c0.5-0.2,0.9-0.3,1.3-0.4c1.2-0.3,2.1-0.6,2.9-1.3c0.6-0.6,1.4-1.1,2.3-1.7
						c1-0.6,2-1.3,2.3-1.8c0.6-1.1,2.3-1.8,3.9-3c0.3-0.3,0.6-0.7,1-0.9c1.9-1.5,2.7-3.9,3-5.5c0.4-1.9,4-6.5,6.7-9.8
						c1-1.3,3-3,4.6-4.5c0.9-0.8,2-1.8,2.2-2c0-0.5,3.6-7.9,5.1-9c1-0.7,3.4-4.6,4.3-6l0.5,0.3c-0.3,0.5-3.1,5.3-4.4,6.3
						c-1.2,0.9-4.6,8-4.8,8.6c-0.1,0.4-0.4,0.6-2.4,2.3c-1.6,1.4-3.6,3.3-4.6,4.5c-4,5-6.2,8.3-6.5,9.5c-0.4,1.7-1,4.1-3.2,5.8
						c-0.3,0.3-0.7,0.5-1.1,0.8c-1.5,1.1-3,2.2-3.5,3.1c-0.4,0.8-1.5,1.5-2.7,2.2c-0.8,0.5-1.7,0.8-2.2,1.3c-1,1-2,1.5-3.2,1.8
						c-0.4,0.1-0.8,0.2-1.3,0.4l-0.6,0.2C273.4,274.6,272.7,274.8,272.3,274.8z"/>
				</g>
			</g>
		</g>
	</g>
	<g id="XMLID_197_">
		<g>
			<g>
				<path class="st4" d="M252.1,122.3c-0.1-7,3.1-13.9,3.2-13.9v0c2.6-1.2,2.9-1.8,2.9-1.8s4.4,6.5,5.8,11.4
					C256.9,116.4,252.1,122.3,252.1,122.3z"/>
			</g>
			<g>
				<path class="st4" d="M282.6,96.6c1.8,0.2,3.6,0.2,5.4-0.1c0.6,0.2,7.4,4.5,9.6,10.3c2.2,5.9,3.8,15.8,1.3,20.1
					c0,0-6.5-8.1-12.4-7.7l0-0.1c0.1-0.1,0.2-0.1,0.3-0.2c1.5-1.4,3-3,4.1-4.4c-1-2.3-8-17.5-8.2-17.6L282.6,96.6z"/>
			</g>
			<g>
				<path class="st6" d="M224,67.7c0,0,4.2-0.9,6,0.1c-0.1-0.3-1.1-3-3.2-3.2C224.6,64.3,223.9,66.5,224,67.7z M227,76
					c-1,0.1-1.7,1.5-1.5,3c0.2,1.6,1.1,2.8,2.1,2.7c1-0.1,1.7-1.5,1.5-3C228.9,77.1,228,75.9,227,76z M220.9,81.5
					c2.1-1.9,0.3-8.5-1.1-15.1c-1.5-6.6,1.3-16.2,1.3-16.2l0-0.2c3.6,0.7,6.2-0.8,6.2-0.8s0.4,10.3,6.7,13.1
					c4.9,2.2,9.5-1.7,9.5-1.7s2.3,8.1,8,8.5c4.6,0.3,6.2-1.9,6.6-3.2c0.3-1.3,3.7-4.4,8.3-3.3c4.7,1.2,6,5.5,6,10
					c0,1.4-0.5,3.1-1.4,4.7c0.1,1.1,0.3,7.4-1.7,8.9c-2.1,1.6-2.1,1.4-2.1,1.6c0,0.2,4.4,5.3,9.4,7.2c1.6,0.6,3.7,1.2,6.1,1.4l0,0.2
					c0.1,0.1,7.1,15.3,8.2,17.6c-1.1,1.4-2.5,3-4.1,4.4c-0.1,0.1-0.2,0.2-0.3,0.2c-3.6,3.1-8.9,4.9-14.1,4.4
					c-4.4-0.3-7.3-3.2-8.1-4.1c-0.1-0.4-0.2-0.9-0.3-1.4c-1.4-4.9-5.8-11.4-5.8-11.4s-0.3,0.6-2.9,1.8c-0.8,0.4-1.9,0.8-3.3,1.3
					c-7.1,2.3-19.3,1.4-23.1-1c-3.9-2.4-2.7-7.6-2.7-7.6s-3.3-1-3.8-1.6c-0.5-0.6,0.1-4.3,0.1-4.3l0-0.1c-1.2-0.2-2-0.6-1.9-1
					c0.1-0.8,0.3-4.8,0.3-4.8c-3.3-1.2-4.1-3.4-3.6-5.1C217.8,82.4,220.9,81.5,220.9,81.5z"/>
			</g>
			<g>
				<path class="st18" d="M288,96.5c-1.8,0.4-3.6,0.3-5.4,0.1c-2.3-0.2-4.5-0.8-6.1-1.4c-5-1.9-9.4-7-9.4-7.2c0-0.2,0,0,2.1-1.6
					c2-1.5,1.8-7.9,1.7-8.9c0.9-1.6,1.4-3.4,1.4-4.7c0-4.5-1.4-8.8-6-10c-4.6-1.2-8,1.9-8.3,3.3c-0.4,1.3-2,3.5-6.6,3.2
					c-5.7-0.5-8-8.5-8-8.5s-4.6,3.8-9.5,1.7c-6.2-2.8-6.7-13.1-6.7-13.1s-2.6,1.4-6.2,0.8c-0.4,0-0.8-0.1-1.2-0.3
					c-6.3-2.2-7.4-11.7-5.6-16.7c1.9-5,8.2-10.2,12.3-12.8c4.1-2.6,4.8-5.1,6.5-7.2c1.7-2,7.3-7.1,14-8.9c6.7-1.9,10.9-6.4,31.6-1.4
					c20.7,5,21.7,15,21.7,15c1.4-5.6-3.1-11.9-3.1-11.9c13.3,0.9,9.9,13.5,9.9,13.5l0,0.8c14.6,0,11.6,14.2,11.6,14.2
					c-1.6-2.2-6.5-3.5-6.5-3.5l-0.1,0.1c2.3,2.3,4.7,5.8,6.7,11.6c3.3,10,1.5,17.4-1.2,23.4c-2.7,6-11.8,9.5-11.8,9.5
					s1.1,6.4-0.1,10.6c-1.2,4.2-10.6,5.7-10.6,5.7l-0.2-0.1C293.4,94.6,290.8,96,288,96.5z"/>
			</g>
			<g>
				<path class="st19" d="M230,67.8c-1.8-1-6-0.1-6-0.1c-0.1-1.2,0.6-3.4,2.8-3.1C228.9,64.8,229.9,67.5,230,67.8z"/>
			</g>
			<g>
				<ellipse class="st20" cx="227.1" cy="78.2" rx="2" ry="4.1"/>
			</g>
		</g>
		<g>
			<path class="st21" d="M291.7,8.7c-0.9,2.5-2.2,9.7-0.8,11.7c1.1,1.5,4.5,2.6,5.8,4.6c3.4,4.8,3.3,12.8,1.8,18.3
				c-1.7,6-4.4,10.1-9.7,13.5c-3.9,2.5-8.5,2.1-12.5,3.6c1.6,4.2,4.1,7.3,2.8,12.2c-1.2,4.9-4.1,7.2-8.9,7.5c1.8,2.2,0,7.5-2.7,8.2
				c1.7,3.5,8.8,6.9,12.3,7.9c5.7,1.7,12.7,0.7,15.5-5.2c2,1.5,9.6-1.6,10.8-4.4c1.1-2.5,0.4-4.9-0.1-7.4c-0.6-3.3,0.2-3.3,2.8-4.5
				c4.6-2.1,8.2-7.7,10.2-12.1c1.9-4.1,1.6-10.9,0.6-15.2c-0.8-3.4-2-6.6-3.3-9.8c-1.3-3.2-3.1-5.5-5.9-7.7c3.1,2,6.1,1.4,8.4,4.5
				c3.3-10.8-7.7-13.2-12-14.4c2.1-1.3,0.8-6.5-0.6-9.4c-1.7-3.5-5.4-3-8.7-4.5c1.7,3.8,4.2,6.9,2.3,10.8c-1-1.9-5.5-9-8.4-7.1"/>
		</g>
		<g>
			<path class="st21" d="M279.9,24.3c-2.3-1-0.9,5-0.7,5.8c0.4,2,0.5,4.1,0.1,6.1c-0.4,2.3-0.3,4.8-1.2,7c-0.6,1.6-1.6,2.8-2.4,4.3
				c2.5-1.4,4.8-3.8,6.1-6.4c1.5-2.8,1.6-5.4,1.6-8.6c0-2.1-0.6-3.6-1.4-5.4c-0.4-0.8-2-3.2-3-2.7"/>
		</g>
		<g>
			<path class="st21" d="M292.1,26.3c-0.6-0.5-1.7,0.1-2.1,0.6c-0.7,0.9-0.6,2.7-0.6,3.8c-0.1,1.3,0.1,2.6-0.1,3.9
				c-0.1,0.8-0.4,1.7-0.3,2.5c2.7,0.4,4-4.4,4.2-6.3c0.3-1.8,0.1-3.6-1.4-4.9"/>
		</g>
		<g>
			<path class="st21" d="M262.1,9c1.3,0.1,3,1.5,2.1,2.7c-1.3,1.6-4.4,0.3-6,0.1c-2.3-0.3-4.9-0.3-7.2,0c-1.9,0.3-3.8,1-5.7,1.3
				c2.8-2.7,6.1-4.4,10-4.7c2.3-0.1,5.7-0.2,7.8,0.7"/>
		</g>
		<g>
			<path class="st21" d="M246.1,32.4c-0.3-1,0-4.9-2-4.6c-1.1,0.2-1.8,1.9-1.9,2.8c-0.2,1.5,0.4,2.9,1,4.3c1,2.3,2.4,3.8,5.1,3.9
				c2.4,0.1,5.5-0.6,6.9-2.7c-2.2,0.6-4.3,0.3-6.3-0.7c-1.8-0.9-2.3-1.9-2.9-3.6"/>
		</g>
		<g>
			<path class="st21" d="M235.3,32.7c-1.1,0.3-1.5,1.6-1.7,2.6c-0.5,2-0.8,3.8-0.8,5.8c0,2.8,1,5.5,3.1,7.3
				c3.9,3.2,10.5,4.9,14.7,1.3c1.4-1.2,3.3-3.1,4-4.8c0.4,2.4-1.5,5.8-3.3,7.3c-1.7,1.4-3.9,2.5-6.1,2.8c-4.3,0.6-9.6-0.9-12.6-4
				c-2.1-2.1-3.2-5.3-3.6-8.2c-0.1-0.9-0.2-1.8-0.1-2.6c0.1-2.4,0.7-4.3,2-6.3c0.8-1.2,2.2-4,4-3.5c1.3,0.3,0.9,0.8,0.8,1.6
				L235.3,32.7z"/>
		</g>
		<g>
			<path class="st12" d="M289.5,111.2c3.1-1.7,7.8,1.4,9.3,4c1-1.8-0.2-5.4-0.7-7.3c-0.5-2-1.8-3.9-3.2-5.4
				c-1.7-1.9-3.5-3.4-5.4-5.1c-1.8-1.5-4.1-0.7-6.5-0.5c1.1,2.8,2.1,5.9,3.6,8.6c0.6,1.2,3,5.4,2.7,6"/>
		</g>
		<g>
			<path class="st12" d="M255.6,108.6c-0.6,1.9,0.1,5.9,1.6,7.7c1.6,1.9,3.9,2.1,6.3,1.9c0.3-2.5-1.5-6.7-2.7-8.8
				C259.3,106.9,257.7,106.6,255.6,108.6"/>
		</g>
	</g>
	<path class="st10" d="M221.8,50.1c-3.4,2.7,0.6,5.2,2.7,6.9c1.7,1.4,3,3.1,4.4,4.9c1.6,2.1,3.5,3.9,6.1,4.9c2.6,1,4.5,0.1,6.9-0.7
		c1.4,4.4,8.2,3.4,11.2,5.1c2.5,1.4,4.4,6.5,5.6,9.1c2.1,4.5,2.8,9.5,2.3,14.4c-0.2,2.3-0.4,4.1-1.2,6.2c-0.3,0.8-0.5,1.8-1,2.5
		c-0.3,0.4-1.9,1.8-1.9,2.1c0,0.1,0,0.1-0.1,0.2c2.8,0.8,5.1,7.3,6.1,9.8c0.9,2.3,0.5,3.4,2.4,4.7c1.3,0.9,3,1.8,4.4,2.4
		c3.8,1.5,7.9,0.5,11.5-0.6c2.7-0.8,8.9-3.9,9.1-7.2c0-0.4,0.1-0.6,0.2-0.9c-1.7-3.5-3.4-7.1-4.9-10c-1.3-2.5-2.5-4.4-2.7-7.2
		c-3.2-0.2-6.3-0.7-9-2.8c-1.8-1.4-5.3-3.9-6.4-6c3.5-1.8,3.1-6.1,3.4-9.1c0.3-3.4,1.8-7.1,0.4-10.7c-1.2-3.1-4.3-6.2-8-5.3
		c-1.9,0.5-3.6,1.2-4.7,2.7c-1.3,1.8-1.7,3.2-4.1,3.5c-5.6,0.5-9.9-3.8-10.9-8.9c-2.5,1.1-2.5,2.7-5.8,2.8c-2.5,0.1-4.2-0.2-6.1-2
		c-1.5-1.5-2.6-3-3.2-5c-0.5-1.6-0.3-5.9-1.1-6.8C225.1,51,224.3,50.1,221.8,50.1"/>
	<path class="st22" d="M232.4,83.3c3.3-0.6,6.3,1,6.8,3.6c0.5,2.6-1.9,5.1-5.2,5.7c-3.3,0.6-6.4-1-6.8-3.6
		C226.8,86.4,229.1,83.8,232.4,83.3z"/>
	<path class="st22" d="M220.3,82.2c2-0.4,1.8,2.4,1.3,3.5c-0.9,2.1-3.4,2.2-3.9-0.3C217.5,84,218.6,82.5,220.3,82.2z"/>
	<ellipse class="st23" cx="227.7" cy="78.2" rx="0.9" ry="1.2"/>
	<g>
		<g>
			<path class="st19" d="M306.2,9.6c-1.8-2.5-4.8-3.9-8.9-4.2l-1-0.1l0.6,0.8c0,0.1,3.2,4.6,3.2,9.3c-1.5-3.3-6.3-9.5-21.3-13.1
				c-17-4.1-23-1.8-28.3,0.2c-1.2,0.5-2.3,0.9-3.6,1.2c-7.1,2-12.8,7.4-14.2,9.1c-0.5,0.6-0.9,1.2-1.3,1.9c-1,1.6-2.2,3.4-5,5.2
				c-4.6,2.9-10.6,8.1-12.5,13.1c-1.3,3.6-1.1,8.7,0.6,12.3c1.2,2.5,3,4.2,5.2,5c0.3,0.1,0.8,0.2,1.2,0.3c2.7,0.5,4.8-0.1,5.8-0.5
				c0.2,2.4,1.3,10.3,6.9,12.8c4.1,1.8,8-0.4,9.4-1.3c0.7,2,3.2,7.8,8.2,8.2c3.6,0.2,5.4-1,6.3-2c-0.2-0.3-0.4-0.6-0.5-0.9
				c-0.6,0.9-2.1,2.2-5.7,2c-5.3-0.5-7.5-8.1-7.6-8.2l-0.2-0.7l-0.6,0.5c0,0-4.5,3.6-9,1.6c-5.9-2.7-6.4-12.6-6.4-12.7l0-0.8
				l-0.7,0.4c0,0-2.5,1.3-5.9,0.7c-0.3,0-0.7-0.1-1.1-0.2c-2-0.7-3.6-2.2-4.7-4.5c-1.8-3.8-1.7-8.7-0.6-11.5
				c1.9-5,8.5-10.3,12.1-12.6c3-2,4.2-3.8,5.3-5.5c0.4-0.6,0.8-1.2,1.2-1.8c1.4-1.7,6.9-6.9,13.8-8.8c1.3-0.4,2.4-0.8,3.7-1.3
				c5.2-1.9,11-4.2,27.7-0.1c20,4.8,21.3,14.5,21.3,14.6l0.3,2.8l0.7-2.7c1.1-4.6-1.4-9.5-2.6-11.4c3.3,0.4,5.7,1.6,7.2,3.7
				c2.7,3.8,1.2,9.7,1.2,9.8l1.1-0.1C307.8,19.6,309.2,13.7,306.2,9.6z"/>
			<path class="st15" d="M258.5,66.1c0.2-0.9,3.2-4,7.7-2.9c3.8,1,5.7,4.2,5.7,9.5c0,1.4-0.5,3-1.3,4.5c-1,1.7-4.6,7.1-11.6,3.4
				l-0.5,0.9c1.8,1,3.5,1.4,5,1.4c3.6,0,6.3-2.3,7.9-5.1c0.9-1.6,1.4-3.4,1.4-5c0-5.8-2.2-9.4-6.4-10.4c-4.9-1.3-8.5,2-8.9,3.6
				c0,0.2-0.2,0.5-0.4,0.9c0.2,0.3,0.4,0.6,0.5,0.9C258.2,67,258.4,66.4,258.5,66.1z"/>
		</g>
		<g>
			<path class="st15" d="M260.5,72.5l-0.8-0.5c0,0,0.6-1,1.9-1.9c1.3-1,3.5-1.9,6.7-1.2l-0.2,0.9c-2.8-0.7-4.8,0.2-5.9,1
				C261,71.6,260.5,72.5,260.5,72.5z"/>
		</g>
		<g>
			<path class="st15" d="M262.7,76.6l-0.6-0.7c1-0.8,1.5-1.6,1.4-2.4c0-1.2-1.2-2-1.8-2.4c-0.2-0.1-0.3-0.2-0.4-0.3l0.4-0.2l0.4-0.3
				c0,0,0.1,0.1,0.2,0.1c0.6,0.4,2.1,1.5,2.2,3.2C264.5,74.5,263.9,75.5,262.7,76.6z"/>
		</g>
		<g>
			<path class="st15" d="M262.8,86.1l-1-0.2c0.2-1.3-0.3-2.3-0.7-2.9c-0.2-0.3-0.3-0.5-0.3-0.7h1h-0.5l0.5-0.1
				c0,0.1,0.1,0.2,0.2,0.3C262.4,83.2,263.1,84.4,262.8,86.1z"/>
		</g>
		<g>
			<path class="st19" d="M285,97.3c-0.8,0-1.6,0-2.5-0.1c-2.7-0.3-5-1-6.2-1.5c-4.9-1.8-9.7-7-9.7-7.7c0-0.4,0.2-0.5,0.5-0.7
				c0.3-0.2,0.8-0.5,1.8-1.3c1.6-1.2,1.7-6.9,1.5-8.5c0-0.1,0-0.1,0-0.2h1h-0.5l0.5-0.1l0,0.2c0,0,0.6,7.5-1.9,9.3
				c-1,0.7-1.5,1.1-1.8,1.3c0.9,1.1,4.6,5.1,9,6.7c1.1,0.4,3.3,1.1,6,1.4c2,0.2,3.7,0.2,5.2-0.1c3-0.6,5.3-2.1,6.7-4.5
				c0.4-0.6,0.7-1.3,1-2l0.8-0.3c0.1-0.3-0.1,1.4-0.9,2.9c-1.6,2.7-4,4.3-7.4,4.9C287.1,97.2,286.1,97.3,285,97.3z"/>
		</g>
		<g>
			<path class="st19" d="M295.3,92.4l-0.2-1c0.1,0,9.2-1.5,10.2-5.3c1.1-4,0.1-10.3,0.1-10.4l-0.1-0.4l0.4-0.1c0.1,0,9-3.5,11.5-9.3
				c2.4-5.2,4.6-12.6,1.2-23c-1.6-4.8-3.8-8.7-6.6-11.4c-1.3-1.3-2.5-3.2-4.1-4.1h0.3c1.6,0.9,3.1,2,4.5,3.4
				c2.8,2.8,5.1,6.8,6.8,11.8c3.6,10.7,1.2,18.3-1.2,23.7c-2.5,5.5-9.9,8.9-11.7,9.6c0.2,1.5,0.9,6.7-0.1,10.4
				C305.1,90.7,295.7,92.3,295.3,92.4z"/>
		</g>
		<g>
			<path class="st19" d="M319.1,35.6l-0.6-0.9c-1.5-2-6.1-3.3-6.2-3.3l0.2-0.9c0.2,0,4,1,6,2.9c0.2-1.9,0.4-6.1-2.1-9.2
				c-1.9-2.3-5-3.5-9.1-3.5c-0.6,0-1.1,0-1.7,0.1l-0.3,0l-0.1-1l0.3,0c0.6,0,1.2-0.1,1.8-0.1c4.5,0,7.8,1.3,9.9,3.9
				c3.5,4.4,2.2,10.7,2.2,11L319.1,35.6z"/>
		</g>
		<g>
			<path class="st15" d="M224.3,95.7c-0.7,0-1.3,0-1.8-0.1c-1.7-0.3-2-0.8-2.1-1c-0.1-0.2-0.2-0.4-0.1-0.7c0.1-0.5,0.2-3.1,0.3-4.4
				c-3.3-1.4-4.1-3.8-3.6-5.6c0.5-1.8,3.1-2.7,3.8-3c1.5-1.6,0.3-7.1-0.9-12.5l-0.5-2.1c-1.5-6.6,1.2-15.7,1.3-16.1l0.9,0.1
				c0,0.1-2.7,9.4-1.3,15.8l0.5,2.1c1.4,6.2,2.6,11.6,0.5,13.5L221,82c-0.8,0.2-2.9,1.1-3.2,2.3c-0.5,1.9,0.8,3.6,3.3,4.5l0.3,0.1
				l0,0.4c0,0.4-0.2,4.1-0.3,4.9l0,0c0,0,0.4,0.3,1.5,0.5c0.8,0.1,1.8,0.1,2.8,0.1l1.4,0.1l-0.3,0.6l-1,0.3
				C225.1,95.7,224.7,95.7,224.3,95.7z"/>
		</g>
		<g>
			<path class="st15" d="M263.8,119.5c-0.1-0.5-0.2-1-0.3-1.4c-1.1-4-4.3-9.2-5.4-10.8c-0.4,0.3-1.2,0.8-2.6,1.5
				c-0.9,0.4-2,0.9-3.3,1.4c-7.3,2.4-19.6,1.4-23.5-1c-3.4-2.1-3.2-6.3-3-7.6c-1-0.4-3.1-1.1-3.6-1.6c-0.6-0.7-0.3-3.3,0-4.7l1,0.2
				c-0.3,1.8-0.4,3.6-0.2,3.9c0.3,0.3,2.1,1,3.6,1.5l0.4,0.1l-0.1,0.4c0,0.2-1.1,4.8,2.5,7c3.7,2.3,15.8,3.2,22.7,0.9
				c1.3-0.5,2.3-0.9,3.2-1.3c2.3-1,2.7-1.6,2.7-1.6l0.4-0.8l0.5,0.7c0.2,0.3,4.5,6.6,5.8,11.5c0.1,0.4,0.2,0.9,0.3,1.5L263.8,119.5z
				"/>
		</g>
		<g>
			<path class="st13" d="M252.6,121.1c0.3-6.3,2.8-12,3.1-12.4l0,0c-0.4,0.2-0.8,0.4-1.2,0.5c-1,2.3-2.8,7.7-2.8,13.1l0,1.4l0.8-1.1
				c0-0.1,4.7-4.8,11.5-3.3l0.3-0.3l0.2-0.4C258.6,116.4,254.4,119.5,252.6,121.1z"/>
		</g>
		<g>
			<path class="st13" d="M274,124.1c-0.5,0-1.1,0-1.6-0.1c-4.9-0.4-7.9-3.6-8.4-4.3c-0.2-0.2-0.3-0.3-0.3-0.3l0.8-0.6
				c0,0,0.1,0.1,0.3,0.3c0.5,0.6,3.2,3.6,7.8,4c4.9,0.4,10.2-1.2,13.7-4.3c0.1-0.1,0.2-0.1,0.3-0.2c1.4-1.3,2.8-2.8,4-4.4
				c1.5-1.8,2.4-3.2,2.4-3.2l0.2,0c0,0.1-0.4,2-1.9,3.8c-1.2,1.6-2.7,3.2-4.1,4.4c-0.1,0.1-0.2,0.2-0.3,0.3
				C283.3,122.4,278.7,124.1,274,124.1z"/>
		</g>
		<g>
			<path class="st15" d="M290.2,114.5c0.2-0.3,0.5-0.5,0.7-0.8c-5.4-11.7-7.1-15.4-7.7-16.6c-0.3,0-0.6,0-1-0.1l-0.1,0.1
				C282.3,97.2,283.3,99.3,290.2,114.5L290.2,114.5z"/>
		</g>
		<g>
			<path class="st13" d="M298.1,106.6c-1.8-4.8-6.7-8.6-8.8-10c-0.4,0.1-0.9,0.2-1.4,0.2l0,0.1c0.7,0.3,7.2,4.5,9.3,10
				c2.3,6.1,3.5,14.9,1.6,19c-1.6-1.9-7.1-7.7-12.3-7.4l0.1,1c5.5-0.4,11.9,7.5,12,7.6l0.4,0.5l0.4-0.6
				C302,122.6,300.2,112.4,298.1,106.6z"/>
		</g>
	</g>
</g>
</svg>
