<?xml version="1.0" encoding="utf-8"?>
<!-- Generator: Adobe Illustrator 21.1.0, SVG Export Plug-In . SVG Version: 6.00 Build 0)  -->
<svg version="1.1" id="Layer_1" xmlns="http://www.w3.org/2000/svg" xmlns:xlink="http://www.w3.org/1999/xlink" x="0px" y="0px"
	 viewBox="0 0 384 365.8" style="enable-background:new 0 0 384 365.8;" xml:space="preserve">
<style type="text/css">
	.st0{fill:#CF5657;}
	.st1{fill:#FCD62F;}
	.st2{opacity:0.5;}
	.st3{fill:#AC3734;}
	.st4{fill:#461B12;}
	.st5{fill:#8E3D21;}
	.st6{fill:#A64A30;}
	.st7{fill:#F9EE62;}
	.st8{fill:#6B5127;}
	.st9{fill:#F0C08B;}
	.st10{fill:#59B747;}
	.st11{fill:#FFDEAB;}
	.st12{fill:#EEEDED;}
	.st13{fill:#63ADDF;}
	.st14{fill:#FBC599;}
	.st15{fill:#231F20;}
	.st16{fill:#FFFFFF;}
	.st17{fill:#8E3C21;}
	.st18{fill:none;stroke:#8E3D21;stroke-miterlimit:10;}
	.st19{fill:#F2DA4A;}
	.st20{fill:#449D46;}
	.st21{fill:#4D95C4;}
	.st22{fill:#9E8B35;}
	.st23{fill:#425E35;}
	.st24{fill:#074E7A;}
	.st25{fill:#ADAAAA;}
</style>
<g>
	<g>
		<g>
			<g id="XMLID_174_">
				<g>
					<path class="st0" d="M297,234.3l-18-0.4l5.9,1.9C284.8,235.9,294.5,234.6,297,234.3z M346.9,237.7l-20.7-0.2l6.7,2.4
						L346.9,237.7z M217,238l12.2-1.5l-2.3-2.2L217,238z M273.5,232.9l-16.9-1.1l4.2,2l-18.6-1.7c4.5-0.6,8.4-1.1,8.6-1.1l-14.3-0.1
						l-7.7,3c0,0,6.8-0.9,12.8-1.7L65,306.2l179.4,26l111-89.8l-92.8-8.6C265.4,233.6,273,232.9,273.5,232.9z M384,239.1
						L269.2,365.8L0,316.4l234.8-87.1L384,239.1z M368.1,244.5l4.3-4.4l-21.2-0.3L368.1,244.5z M362.3,250c0,0,5.6-5.1,5.3-5.1
						c-0.3,0-14.7,2.1-14.7,2.1L362.3,250z M356.5,255.9c0,0,5.5-5.6,5.2-5.5c-0.3,0.1-16.2,2.2-16.2,2.2L356.5,255.9z M349.1,263
						l6.4-6.7l-18.1,2.5L349.1,263z M340.1,271.4l7.7-7.7l-19.1,3L340.1,271.4z M330,280.9l9.2-9l-20.7,3.2L330,280.9z M317.6,292.8
						l10.6-10.6l-22.8,3.8L317.6,292.8z M307.4,237.5l13.5-1.6l-19.5-0.9L307.4,237.5z M301.2,308.1l14.4-13.6l-26.1,4.6
						L301.2,308.1z M282,326.7l17.5-16.9l-29.8,5.4L282,326.7z M256.6,351.7l22.4-22l-70.1,14L256.6,351.7z M215.7,241.4l-1.5-2.7
						l-11.6,4.2L215.7,241.4z M162.5,335.8c0,0,40.1,7.6,40,7.2c-0.1-0.3-5.6-13.7-5.6-13.7L162.5,335.8z M201.7,246.2l-1.5-2.7
						l-13.2,4.9L201.7,246.2z M186.6,253.5l-1.6-2.9l-14.1,5.3L186.6,253.5z M168.3,261.3l-0.8-4l-18,6.6L168.3,261.3z M156.3,334.9
						l-1.5-12l-33.6,6.1L156.3,334.9z M146.4,269.9l0.2-4.2l-19.7,7.1C127.2,272.8,146.4,269.9,146.4,269.9z M121.1,280.7l1.1-4.9
						L98.8,284L121.1,280.7z M114.1,328.3l1.6-10.9l-31.8,5.5L114.1,328.3z M90.4,293.5l3-6.1l-27.7,9.9L90.4,293.5z M78.8,322.3
						l4.5-9.9l-30.9,5.6L78.8,322.3z M48,317.1l11.5-15.9l-34.5,11.6L48,317.1z"/>
					<polygon class="st1" points="372.4,240.1 368.1,244.5 351.2,239.8 					"/>
					<path class="st1" d="M367.6,244.9c0.3,0-5.3,5.1-5.3,5.1l-9.4-3C352.8,247,367.2,244.9,367.6,244.9z"/>
					<path class="st1" d="M361.7,250.3c0.3-0.1-5.2,5.5-5.2,5.5l-11-3.3C345.5,252.5,361.4,250.5,361.7,250.3z"/>
					<polygon class="st1" points="355.5,256.3 349.1,263 337.4,258.8 					"/>
					<path class="st1" d="M355.3,242.5l-111,89.8L65,306.2l176.7-74.1c0,0,0,0,0,0c0.2,0,0.3,0,0.5-0.1l18.6,1.7l0.5,0.2
						c0,0,0.4,0,1.1-0.1h0L355.3,242.5z M240.2,326.4l107.6-82.5l-105.8-10L75.7,304.7L240.2,326.4z"/>
					<polygon class="st1" points="347.8,263.7 340.1,271.4 328.7,266.7 					"/>
					<polygon class="st0" points="347.8,243.9 240.2,326.4 75.7,304.7 241.9,233.9 					"/>
					<polygon class="st1" points="346.9,237.7 332.9,239.9 326.2,237.4 					"/>
					<polygon class="st1" points="339.2,272 330,280.9 318.4,275.2 					"/>
					<polygon class="st1" points="328.2,282.2 317.6,292.8 305.5,286 					"/>
					<polygon class="st1" points="320.9,235.9 307.4,237.5 301.3,235.1 					"/>
					<polygon class="st1" points="315.6,294.5 301.2,308.1 289.5,299.1 					"/>
					<polygon class="st1" points="299.5,309.8 282,326.7 269.7,315.2 					"/>
					<path class="st1" d="M278.9,233.9l18,0.4c-2.5,0.3-12.2,1.5-12.2,1.5L278.9,233.9z"/>
					<polygon class="st1" points="279,329.7 256.6,351.7 208.9,343.7 					"/>
					<path class="st1" d="M256.6,231.8l16.9,1.1c-0.5,0-8.1,0.8-11,1h0l-1.6-0.1L256.6,231.8z"/>
					<path class="st1" d="M260.8,233.8l1.6,0.1c-0.7,0-1.1,0.1-1.1,0.1L260.8,233.8z"/>
					<path class="st1" d="M236.6,230.8l14.3,0.1c-0.2,0.1-4.1,0.6-8.6,1.1l-0.3,0l-0.2,0.1c0,0,0,0,0,0c-6,0.8-12.8,1.7-12.8,1.7
						L236.6,230.8z"/>
					<polygon class="st1" points="229.2,236.6 217,238 226.9,234.3 					"/>
					<polygon class="st1" points="214.2,238.8 215.7,241.4 202.5,243 					"/>
					<path class="st1" d="M202.5,343c0.1,0.3-40-7.2-40-7.2l34.4-6.4C196.9,329.4,202.4,342.7,202.5,343z"/>
					<polygon class="st1" points="200.1,243.5 201.7,246.2 186.9,248.4 					"/>
					<polygon class="st1" points="184.9,250.5 186.6,253.5 170.8,255.8 					"/>
					<polygon class="st1" points="167.5,257.3 168.3,261.3 149.5,263.9 					"/>
					<polygon class="st1" points="154.8,322.9 156.3,334.9 121.2,329 					"/>
					<path class="st1" d="M146.6,265.7l-0.2,4.2c0,0-19.2,2.9-19.5,2.9L146.6,265.7z"/>
					<polygon class="st1" points="122.2,275.8 121.1,280.7 98.8,284 					"/>
					<polygon class="st1" points="115.7,317.4 114.1,328.3 83.9,322.9 					"/>
					<polygon class="st1" points="93.5,287.4 90.4,293.5 65.7,297.3 					"/>
					<polygon class="st1" points="83.3,312.5 78.8,322.3 52.3,318.1 					"/>
					<polygon class="st1" points="59.5,301.2 48,317.1 25.1,312.8 					"/>
				</g>
			</g>
		</g>
		<g class="st2">
			<g>
				<path class="st3" d="M327.9,243.2c1.1,0.5,27.1,2.2,14.2,9.7c-6.4,3.7-18.9,17.7-34.7,24.6c-16.2,7.1-24.1,15.3-40.7,16
					c-57.4,2.4-79.7-18.8-75.9-23.3c9-10.6,41-19.6,64.4-27.6c22-7.4,52.2-1.6,55.8-2.1C314.7,240.1,324.8,242,327.9,243.2z"/>
			</g>
		</g>
	</g>
	<g>
		<g>
			<g id="XMLID_173_">
				<g>
					<path class="st4" d="M344.9,46.8c1.3,7.2-2.6,12.7-3.3,13.7c-2.9,3.7-1.2,6.5-0.3,7.2l0.3,0.2c1.4,1.2,4.4,3.7,2.8,8.9
						c-2.3,6.8-9.6,7.2-10.1,7.2c0-0.1,0.1-0.3,0.1-0.4c0,0,0,0,0,0c1.2-0.1,7.5-0.9,9.5-6.9c1.1-3.6,0-5.8-1.3-7.1
						c-0.5-0.8-1.2-1.6-1.9-2.4c-0.8-0.8-1.1-1.6-1.2-2.4c0-0.1,0-0.1,0-0.2c0-0.4,0-0.9,0.1-1.3c0,0,0,0,0-0.1
						c0.3-1.1,1.1-2,1.6-2.6c0.5-0.5,1.7-2.6,2.5-5.4c0-0.1,0.1-0.2,0.1-0.4c0.4-1.3,0.7-2.8,0.7-4.4c0-0.2,0-0.5,0-0.7
						c0.1-3.5-0.9-7.4-4-10.9c-0.1-0.1-0.2-0.3-0.4-0.4c-0.1-0.1-0.2-0.2-0.3-0.3c-2.2-2.7-5.3-5.5-9.8-8.2l9.1-0.1c0,0,0-0.1,0-0.4
						c-0.3-2.1-2.1-10.9-12.4-9.2l-0.7,0.4c-0.1,0-0.2,0-0.4,0.1c0-0.1,0.1-0.3,0.1-0.5c3.8-0.8,7-0.3,9.4,1.5
						c4,2.8,4.4,7.9,4.4,8.1l0,0.5h-0.5c-1.9-0.1-5.6-0.1-7.8-0.1C339.3,35.1,343.8,40.7,344.9,46.8z"/>
					<path class="st4" d="M340.7,38.7c3.1,3.5,4,7.4,4,10.9c0-3.4-1.1-7.3-4.3-11.3C340.5,38.5,340.6,38.6,340.7,38.7z"/>
					<path class="st4" d="M344.7,49.7c0,0.2,0,0.5,0,0.7c-0.1,1.6-0.4,3.1-0.7,4.4c0,0.1-0.1,0.3-0.1,0.4c-0.8,2.3-1.8,4-2.6,5
						c-0.8,1.1-1.3,2.1-1.5,3c0,0,0,0.1,0,0.1c-0.1,0.4-0.2,0.8-0.1,1.3c0,0.1,0,0.1,0,0.2c0,1.5,0.7,2.7,1.4,3.3
						c0.4,0.3,1.1,0.8,1.7,1.5c1.9,2.9,2.3,5.7,0.4,8.6c-0.6,0.9-1.4,1.7-2.2,2.3c1.1-1,2-2.2,2.6-3.9c1.4-4.6-1.2-6.7-2.5-7.9
						l-0.3-0.2c-1.5-1.3-2.8-4.7,0.2-8.6c0.8-1,4.4-6.1,3.2-12.9c-1.2-6.2-5.9-11.9-14.1-16.9c1.4,0.6,5.4,2.7,10.3,8
						c0.1,0.1,0.2,0.2,0.3,0.3C343.5,42.4,344.6,46.3,344.7,49.7z"/>
					<path class="st5" d="M343.9,47c1.3,6.8-2.4,12-3.2,12.9c-3,3.9-1.7,7.2-0.2,8.6l0.3,0.2c1.4,1.1,3.9,3.2,2.5,7.9
						c-0.6,1.7-1.5,3-2.6,3.9c0,0,0,0.1-0.1,0.1c-2.4,1.8-5.2,2.4-6.2,2.5c0,0,0,0,0,0c0-0.1,0-0.2,0-0.3c0.5-3.8-0.7-6.5-3.4-7.7
						c-1.4-0.7-2.9-0.6-4.3,0.2c-2.1,1.1-3.2,2.2-3.6,3.3c-3.4,0.2-5.9-0.7-7.7-2.7c-4.7-5.5-1.6-17.8-1.6-17.9l0.2-1l0-0.1
						l-0.9,0.5c-3.8,1.8-7.1,2.3-9.9,1.6c-2.4-0.9-4.4-2.7-5.7-4.2c0,0,0,0,0-0.1c-1.1-1.7-1.5-3.2-1.5-3.2l-0.2-0.8l-0.6,0.6
						c-4.4,4.2-9,6.2-13.6,5.7c-0.3,0-0.6-0.1-0.9-0.1c7.3-0.3,13.6-8.2,13.6-8.2c2.7,4.5,12.4,7,24-2.7c7.2-8.5,8-17.5,6.8-24.8
						c0.1,0,0.2,0,0.3-0.1c3.9-0.9,7-0.5,9.3,1.2c2.9,2.1,3.7,5.5,4,6.9c-3.1-0.1-8.8-0.1-8.9-0.1h-1.7l1.3,0.8h-0.1
						c0,0,0.2,0.1,0.5,0.2h0C338,35.1,342.8,40.8,343.9,47z"/>
					<path class="st4" d="M344.6,50.4c0,1.6-0.3,3.1-0.7,4.4C344.3,53.5,344.5,52,344.6,50.4z"/>
					<path class="st4" d="M342.6,69.6c1.3,1.4,2.4,3.6,1.3,7.1c-2,6-8.3,6.8-9.5,6.9c0-0.2,0.1-0.3,0.1-0.5c0,0,0,0,0,0
						c1-0.1,3.8-0.5,6.2-2.5c0,0,0.1,0,0.1-0.1c0.8-0.6,1.6-1.3,2.2-2.3C344.8,75.3,344.5,72.5,342.6,69.6z"/>
					<path class="st4" d="M341.2,60.2c0.8-1,1.9-2.7,2.6-5c-0.8,2.8-2,4.9-2.5,5.4c-0.6,0.6-1.3,1.5-1.6,2.6
						C339.9,62.3,340.3,61.3,341.2,60.2z"/>
					<path class="st4" d="M340.6,67.2c0.7,0.8,1.4,1.6,1.9,2.4c-0.6-0.7-1.3-1.2-1.7-1.5c-0.7-0.6-1.4-1.8-1.4-3.3
						C339.5,65.6,339.9,66.4,340.6,67.2z"/>
					<path class="st4" d="M339.4,64.6c0-0.5,0-0.9,0.1-1.3C339.5,63.7,339.4,64.2,339.4,64.6z"/>
					<path class="st4" d="M339.4,29.7l-9.1,0.1c-0.1-0.1-0.2-0.1-0.4-0.2C330.4,29.6,336.6,29.6,339.4,29.7z"/>
					<path class="st4" d="M329.9,29.6c0.1,0.1,0.2,0.2,0.4,0.2l-0.9,0l-1.3-0.8h1.7c0.1,0,5.8,0,8.9,0.1c-0.2-1.3-1.1-4.8-4-6.9
						c-2.3-1.7-5.5-2.1-9.3-1.2c-0.1,0-0.2,0-0.3,0.1c0-0.3-0.1-0.5-0.1-0.8l0.3,0.1l0,0.1c0,0,0.1,0,0.1,0l0.3,0.1l0.4-0.2
						c10.8-2.1,12.8,6.7,13.1,8.8c0,0.3,0,0.4,0,0.4C336.6,29.6,330.4,29.6,329.9,29.6z"/>
					<path class="st6" d="M340.7,80.6c-2.3,2-5.2,2.4-6.2,2.5C335.5,83,338.3,82.4,340.7,80.6z"/>
					<path class="st7" d="M330.2,186.6c-4.5,1.3-11.1,1.7-19.3-1.7c-0.4-0.1-0.7-0.3-1.1-0.5c0,0,0.7-6.1,1.1-10.5h0.2
						c0,0,10.2,4.7,24.4-1.8c0.9,5.8,1.7,10.7,1.6,10.9C337.1,183.1,334.7,185.3,330.2,186.6z"/>
					<path class="st8" d="M331.1,75.1c2.6,1.2,3.8,3.9,3.4,7.7c0,0.1,0,0.2,0,0.3c-0.2,0-0.3,0-0.3,0c0.1-1.2,0.1-2.3-0.1-3.3
						c0-0.4,0-0.8-0.1-1.1c-0.3-2-1.8-3-3.5-3.3c0,0,0,0,0,0c-1.1-0.4-2.3-0.3-3.4,0.3c-0.2,0.1-0.4,0.2-0.8,0.4c0,0,0,0,0,0
						c-0.3,0.1-0.7,0.3-1,0.5c-1,0.6-1.3,1-1.6,1.9h0h-0.1c-0.1,0-0.2,0-0.3,0c0.4-1.1,1.5-2.2,3.6-3.3
						C328.2,74.5,329.8,74.5,331.1,75.1z"/>
					<path class="st8" d="M334.2,83.1c0,0,0.1,0,0.3,0c0,0.2-0.1,0.3-0.1,0.5c-0.1,0-0.1,0-0.2,0V83.1z"/>
					<path class="st8" d="M334.4,83.6C334.3,83.6,334.3,83.6,334.4,83.6c0,0.2-0.1,0.3-0.1,0.5c0,0,0,0,0,0v-0.5
						C334.2,83.6,334.3,83.6,334.4,83.6z"/>
					<path class="st8" d="M334.1,79.8c0.1,1,0.1,2.1,0.1,3.3v0.5l-0.3-0.1c0-0.1,0-0.2,0-0.3c0,0,0-0.1,0-0.1c0-0.1,0-0.1,0-0.1
						c0,0,0-0.1,0-0.1c0-0.1,0-0.1,0-0.1c0-0.3,0.1-0.7,0.1-1c0-0.1,0-0.3,0-0.4C334.1,80.8,334.2,80.3,334.1,79.8z"/>
					<path class="st8" d="M334.2,84.1C334.2,84.1,334.2,84.1,334.2,84.1c-0.6,2.1-1.9,3.5-3.3,4.8c-1.2,1.1-3.2,2-5.1,2
						c-0.6,0-1.2-0.1-1.8-0.3c-0.6-0.2-1-0.4-1.4-0.8c0,0,0,0,0,0c0-0.2,0.1-0.4,0.1-0.6c0.2,0.3,0.5,0.5,0.8,0.7v0c0,0,0,0,0,0
						c0.5,0.7,1.4,0.6,2.2,0.5c0.9,0,2.2,0,3-0.4c0.5-0.2,0.9-0.7,1.3-1.1c0-0.1,0.1-0.1,0.2-0.1c0.1-0.1,0.2-0.1,0.3-0.2
						c0.2-0.2,0.4-0.4,0.6-0.5l0,0c0.6-0.5,1.2-1,1.6-1.5c0.6-0.7,0.9-1.8,1.1-2.8l0.3,0.1V84.1z"/>
					<path class="st8" d="M334.1,79.8c0,0.5,0,1,0,1.5c0-2.3-0.8-4.6-3.1-5.7C333,76.1,333.8,77.7,334.1,79.8z"/>
					<path class="st8" d="M334,78.7c0.1,0.4,0.1,0.7,0.1,1.1c-0.3-2.1-1.1-3.7-3.1-4.2c0,0,0,0,0,0c-0.1-0.1-0.3-0.1-0.4-0.2
						C332.2,75.6,333.7,76.7,334,78.7z"/>
					<path class="st8" d="M334.1,81.3c0,0.1,0,0.3,0,0.4c0,0.3-0.1,0.7-0.1,1c0,0,0,0.1,0,0.1c0,0,0,0.1,0,0.1c0,0.1,0,0.1,0,0.1
						c0,0,0,0.1,0,0.1c0,0.1,0,0.2-0.1,0.3c-0.4,1.8-1.4,3.1-2.7,4.4l0,0c-0.3,0.2-0.6,0.5-0.9,0.8c0,0.1-0.1,0.1-0.2,0.1
						c-1.6,1.2-4,1.8-5.9,1.2c-0.2-0.1-0.4-0.1-0.6-0.2c0,0,0,0,0,0v0c-0.4-0.5-0.7-1.2-0.9-1.8c0.3,0.6,1,1.4,1.6,1.6
						c2,0.7,4.6-0.3,5.9-1.5c1.9-1.6,2.8-3,3.2-4.7c0.1-0.2,0.1-0.4,0.1-0.7c0.2-1.9,0.2-5.4-2.8-6.7c-1.1-0.5-2.3-0.5-3.4,0.1
						c-2.7,1.5-3.2,2.5-3.2,3v0.2h-0.4v-0.6v0c0.6-0.7,1.4-2,2.9-2.7c0,0,0,0,0.1,0c0.7-0.3,1.5-0.5,2.3-0.6c0.1,0,0.1,0,0.2,0
						c0.5,0,1.2,0,1.8,0.2c0,0,0,0,0,0C333.3,76.7,334.1,78.9,334.1,81.3z"/>
					<path class="st8" d="M334,82.7c0-0.3,0-0.6,0.1-1C334.1,82,334.1,82.3,334,82.7z"/>
					<path class="st8" d="M334,82.8c0,0,0,0.1,0,0.1C334,82.9,334,82.8,334,82.8z"/>
					<path class="st8" d="M333.9,83.2c0,0,0-0.1,0-0.1C334,83.1,334,83.2,333.9,83.2z"/>
					<path class="st8" d="M333.9,83.2c0,0.1,0,0.2,0,0.3h0C333.9,83.4,333.9,83.3,333.9,83.2z"/>
					<path class="st8" d="M333.9,83.5L333.9,83.5c-0.1,1-0.4,2.1-1.1,2.8c-0.5,0.6-1.1,1.1-1.6,1.5
						C332.5,86.7,333.5,85.3,333.9,83.5z"/>
					<path class="st9" d="M330.7,76c3,1.3,3,4.8,2.8,6.7c0,0.2,0,0.4-0.1,0.7c-0.4,1.7-1.3,3.1-3.2,4.7c-1.4,1.2-3.9,2.2-5.9,1.5
						c-0.6-0.2-1.3-1-1.6-1.6c0,0,0,0,0,0c0,0,0-0.1,0-0.1c-0.1-0.3-0.3-0.7-0.5-0.9c-0.5,2.1-1.2,4.2-2,6.2c-1,2.2-2.1,4.1-3.3,5.9
						c0,0,0,0,0,0c-1.8,2.2-4,4.3-6,6c-0.1,0.1-0.3,0.3-0.5,0.4c-0.5,0.4-1,0.7-1.6,1.1c0.8-1,2.7-3.3,3.5-4.1
						c0.8-0.8,1.6-1.8,2.3-2.7c1.4-1.9,2.3-4.2,3-6.5c0.9-2.7,1.3-5.5,1.7-8.3c0.1-0.7,0.1-1.4,0.2-2.1c0-0.5,0.3-1.6,0.2-2.1
						c-0.2-0.5-0.7-0.5-1.1-0.8c-0.4-0.3-0.8-0.7-1.3-1.1c-0.7-0.5-1.3-1.1-1.9-1.7l0.1-0.1c1.7,1.6,4,2.4,6.8,2.4
						c0.5,0,0.9,0,1.4-0.1v-0.2h0.4v-0.2c0-0.5,0.5-1.5,3.2-3C328.4,75.5,329.6,75.5,330.7,76z M331.9,79.6l0.1-0.3
						c-1.5-1.5-3.6-1.5-5.5-0.7l-0.2,0.1c-0.5,0.2-1.1,0.4-1.4,0.8c0,0-1.1,1.1-0.8,1.6l0.4,0.2l0.5-0.3c0-0.1,0.4-0.6,0.5-0.7
						l0.2,0.4c0.1-0.1,0.2-0.1,0.3,0c0.3,0.1,0.8,0.5,1.2,1.2c0.4,0.6,0.7,1.7,0.5,2.6c-0.3,0.9-0.8,2.3-1.6,2.6l0.3,0.1
						c1.1-0.3,1.9-1.2,2.3-2.4c0.3-1.1,0-2.5-0.6-3.3c-0.3-0.5-0.9-1.3-1.6-1.5c0.1,0,0.1,0,0.2-0.1l0.2-0.1
						C328.5,78.8,330.4,78.8,331.9,79.6z"/>
					<path class="st4" d="M340.1,38c-4.9-5.3-8.9-7.3-10.3-8h0c0,0-0.1,0-0.1-0.1l-0.2-0.1l0.9,0C334.7,32.6,337.9,35.3,340.1,38z"
						/>
					<path class="st10" d="M258.1,205.3c-0.2-0.1-0.3-0.1-0.3-0.1c0-0.1,0-0.1-0.1-0.2c-1.7-3.9,2.6-9.3,3-12.1
						c0.4-2.7-0.5-9.6-1-15c0-0.4-0.1-0.7-0.1-1.1c-0.1-1.6-0.3-4.7-0.5-8.3l-0.6,0c-11.4,1.9-15.2-3.2-15.6-3.2l-0.2-0.1
						c4.1-11.2,8.6-30.9,9.4-32.2c1.1-1.7,10.2-10.3,10.2-10.3l0.2,0c-0.2,1.7-0.3,3.5-0.2,5.6c0,0,7-6,10.4-2.2h0
						c0.8,1.3,1.9,2.6,3.5,3.4l-0.1,0.2c0,0-2,10.6-2.1,19.8c0,0,4.9,1.9,8.3,1.2c0,0,1-16.6,2.1-19.6l0-0.4
						c2.5-0.3,5.1-1.1,7.3-2.3l0.2,0.3c8.6-4.2,14.7,4,14.7,4c3.1-6,3-11.4,2-15.5h0c0,0,15.1,9.9,18.5,14.2c3.4,4.3,5,16,5.7,22.2
						c0.3,3.4,1.6,11.5,2.7,18.3c-14.2,6.6-24.4,1.8-24.4,1.8h-0.2c-0.4,4.4-1.1,10.5-1.1,10.5c0.4,0.2,0.8,0.3,1.1,0.5l0,0.1
						c0,0-1.3,6.9-1.5,8.1c-0.2,1-4.2,10.2-6.6,15.7l-0.3-0.1C279.9,213.5,260.8,206.5,258.1,205.3z"/>
					<path class="st8" d="M332,79.2l-0.1,0.3c-1.5-0.8-3.4-0.8-5-0.2l-0.2,0.1c0,0-0.1,0.1-0.2,0.1c-0.1,0-0.1,0-0.2-0.1
						c-0.4-0.1-0.7,0-1,0.2l0.3,0.5c-0.1,0.1-0.5,0.6-0.5,0.7l-0.5,0.3l-0.4-0.2c-0.3-0.6,0.8-1.6,0.8-1.6c0.4-0.4,1-0.6,1.4-0.8
						l0.2-0.1C328.4,77.7,330.5,77.7,332,79.2z"/>
					<path class="st8" d="M331.1,88c-0.2,0.2-0.4,0.4-0.6,0.5c-0.1,0.1-0.2,0.2-0.3,0.2C330.5,88.5,330.8,88.2,331.1,88z"/>
					<path class="st8" d="M330.5,75.4c0.1,0,0.3,0.1,0.4,0.2c-0.6-0.1-1.3-0.2-1.8-0.2c0,0,0,0,0.1,0
						C329.6,75.3,330.1,75.3,330.5,75.4C330.5,75.4,330.5,75.4,330.5,75.4z"/>
					<path class="st8" d="M330.5,75.4c-0.4-0.1-0.8-0.1-1.3,0c0,0,0,0-0.1,0c-0.1,0-0.1,0-0.2,0c-0.9,0-1.7,0.2-2.3,0.6
						c0,0,0,0-0.1,0c-0.1,0-0.2,0.1-0.2,0.1c0.3-0.2,0.6-0.4,0.8-0.4C328.1,75.1,329.3,75,330.5,75.4z"/>
					<path class="st4" d="M326.9,20.1c10.4-1.7,12.2,7.1,12.4,9.2c-0.3-2-2.3-10.9-13.1-8.8L326.9,20.1z"/>
					<path class="st6" d="M329.7,30C329.7,30,329.7,30,329.7,30c-0.2-0.1-0.4-0.1-0.4-0.1h0.1L329.7,30z"/>
					<path class="st11" d="M281.4,257.8c-0.7,2.4-3.4,3.4-4.7,2.5c-0.6-0.4-0.8-0.9-0.8-1.4c-1.1,2-2.1,1.5-3,0.3
						c-0.6-0.7-0.5-2.4-0.3-3.8h0c0,0-1.2,1-2.2-0.2c-1.1-1.2-0.9-6.4-0.3-7.9c0.1-0.4,0.3-0.7,0.4-1.1c0.5-1,1.1-1.9,2-3
						c1.2-1.4,4.3-2.8,7.1-4.3c2.7-1.5,12.9-6.8,12.9-6.8s1-1.5,1.7-3.2c0.6-1.3,3.3-7.8,5.4-12.8c0.8-1.8,1.4-3.5,1.9-4.6
						c0.3-0.7,0.7-1.7,1.2-2.8c2.3-5.5,6.4-14.7,6.6-15.7c0.2-1.2,1.5-8.1,1.5-8.1l0-0.1c8.3,3.4,14.8,3,19.3,1.7
						c-0.3,1.1-1,6.1-1.8,9.4c-0.3,1.4-0.8,2.8-1.3,4.2c-1.2,3.7-2.5,7.4-4.1,10.9c0,0.1-0.1,0.2-0.1,0.3c-1.3,2.9-2.9,5.7-4.6,8.3
						c-1,1.5-2,3-3.2,4.5c-2.7,3.6-5.8,6.8-9.2,9.9c-1.2,1.1-3,2.7-4.2,3.8c-0.7,0.6-3.1,2.2-3.3,3c0,0,0,0-0.3,1.4
						c-1,4.3-5,7.7-8.2,10.4c-0.7,0.6-2.1,1.4-2.5,2.4c0,0-0.7,2.1-2.2,3.9c-1.5,1.8-2.8,2-3.5,0.3
						C281.4,259,281.4,258.4,281.4,257.8z"/>
					<path class="st12" d="M329.4,237.9c0.4,2.8-0.2,7.1-2,9.4l-0.3,0c-0.4-2.5-1-6.2-2.1-9.5c-0.3-0.9-0.6-1.7-1-2.5
						c-0.5-1.1-1-2.1-1.6-3l-0.4-0.2c0.1-0.3,0.2-0.6,0.4-0.8l0.2,0.1C326.2,231.5,328.9,234.5,329.4,237.9z"/>
					<path class="st8" d="M330.1,88.9c-0.4,0.4-0.8,0.8-1.3,1.1c-0.8,0.4-2.1,0.4-3,0.4c-0.8,0-1.7,0.1-2.2-0.5
						c0.2,0.1,0.3,0.2,0.6,0.2C326,90.7,328.4,90.1,330.1,88.9z"/>
					<path class="st8" d="M328.1,81.1c0.5,0.9,0.9,2.2,0.6,3.3c-0.3,1.2-1.2,2.1-2.3,2.4l-0.3-0.1c0.8-0.2,1.3-1.7,1.6-2.6
						c0.2-0.8-0.1-1.9-0.5-2.6c-0.4-0.6-0.9-1.1-1.2-1.2c-0.1,0-0.2,0-0.3,0l-0.2-0.4c0,0,0,0,0,0c0.2-0.2,0.6-0.4,1-0.5
						C327.2,79.8,327.8,80.6,328.1,81.1z"/>
					<path class="st13" d="M327.1,247.4c0.2,1.7,0.3,2.9,0.3,2.9s0,0-1.3,1.2c-1.3,1.2-6,4.3-8.3,7.8c-2.3,3.5-9.2,12.7-11.2,15.2
						c-2.1,2.4-7.7,5.9-9.9,8.5c-1.5,1.7-7.6,4-14,5.2l-0.6-2.8c0.4,0,1.3-0.3,2.6-0.8c1.8-0.6,3.2-0.7,4.4-1.9
						c1.2-1.2,4.1-2.4,4.8-3.6c0.7-1.2,2.9-2.7,4.8-4.1c1.9-1.4,2.9-3.6,3.3-5.6c0.4-2,4.8-7.5,6.7-9.7c1.8-2.3,6.9-6.1,6.9-6.7
						c0.1-0.5,3.6-7.9,5-8.9c1.3-1,4.4-6.3,4.4-6.3C326.1,241.2,326.8,244.9,327.1,247.4z"/>
					<path class="st8" d="M326.6,76c0.6-0.3,1.4-0.6,2.3-0.6C328.2,75.5,327.4,75.7,326.6,76z"/>
					<path class="st8" d="M326.3,76.2c0.1,0,0.2-0.1,0.2-0.1c-1.4,0.7-2.3,2-2.9,2.7v-0.1C324,77.7,325.4,76.7,326.3,76.2
						C326.3,76.2,326.3,76.2,326.3,76.2z"/>
					<path class="st8" d="M326.3,79.5c0.1,0,0.1,0.1,0.2,0.1c-0.3,0.2-0.7,0.3-1,0.5c0,0,0,0,0,0l-0.3-0.5
						C325.6,79.4,325.9,79.4,326.3,79.5z"/>
					<path class="st4" d="M326.2,20.5l-0.4,0.2c0,0,0-0.1,0-0.2C326,20.5,326.1,20.5,326.2,20.5z"/>
					<path class="st8" d="M325.3,76.7c0.3-0.2,0.7-0.3,1-0.5c-0.9,0.6-2.2,1.5-2.6,2.5v-0.1h0C324,77.7,324.2,77.3,325.3,76.7z"/>
					<path class="st4" d="M321.2,6c6.5,5.2,5.4,11.9,4.9,14c0,0,0,0-0.1,0c0.2-1.8,0.6-6.6-1.8-10c0-0.1,0-0.1-0.1-0.1
						c-0.8-1.2-1.8-2.4-3.2-3.5c-3.3-1.8-4.9-0.2-4.9-0.2s2.3,6.8,1.4,11c0,0-1.9-11.1-22.3-15.5c-20.4-4.5-31.9,5-35.1,8.8
						c-3.2,3.8-9.6,13.3-14.7,16.5c-5.1,3.2-20.1,11.7-6.6,26.5c0,0-10.8,6.9,1.3,18.3c0,0,0,0,0,0c0,0.1,0,0.1-0.1,0.2
						c0,0.1,0,0.2,0,0.3c-4.3-4-6.4-8-6-11.7c0.3-3.9,3.1-6.4,4.2-7.2c-4-4.5-5.7-8.9-5.1-13c1-6.9,8.3-11.4,11.8-13.5l0.4-0.3
						c3.8-2.4,8.4-8.4,11.8-12.8c1.1-1.4,2-2.6,2.8-3.5c1.2-1.4,12.5-14.1,35.6-9c15.2,3.3,20.3,10.3,21.9,13.8
						c0-3.9-1.5-8.5-1.6-8.6l-0.1-0.3l0.2-0.2C315.7,5.8,317.6,4.1,321.2,6z"/>
					<path class="st4" d="M325.9,20C326,20,326,20,325.9,20c0,0.2,0,0.4,0,0.5C325.9,20.4,325.9,20.3,325.9,20L325.9,20z"/>
					<path class="st4" d="M324.2,10c2.4,3.4,2,8.2,1.8,10v0c-0.1,0-0.3,0.1-0.4,0.1C325.9,18.7,326.8,14.3,324.2,10z"/>
					<path class="st4" d="M325.5,20.1c0.1,0,0.3-0.1,0.4-0.1c0,0.2,0,0.4,0,0.5c-0.1,0-0.2,0-0.3,0.1l-0.2-0.1
						C325.4,20.5,325.4,20.4,325.5,20.1z"/>
					<path class="st4" d="M325.9,20.5c0,0.1,0,0.2,0,0.2l-0.3-0.1C325.6,20.6,325.8,20.5,325.9,20.5z"/>
					<path class="st4" d="M324.2,10c2.7,4.3,1.7,8.7,1.4,10.1c-0.1,0-0.1,0-0.2,0c-0.1,0-0.2,0.1-0.3,0.1v0
						c0.3-1.1,2.1-7.4-3.4-12.6C322.6,8.2,323.5,9,324.2,10C324.1,9.9,324.1,9.9,324.2,10z"/>
					<path class="st4" d="M325.4,20.5l0.2,0.1C325.5,20.6,325.4,20.6,325.4,20.5L325.4,20.5z"/>
					<path class="st4" d="M325.3,20.2c0.1,0,0.1,0,0.2,0c-0.1,0.3-0.1,0.4-0.1,0.4l-0.3-0.1c0-0.1,0-0.1,0-0.2
						C325.1,20.2,325.2,20.2,325.3,20.2z"/>
					<path class="st6" d="M282.5,24.6c0.2,0.2,4.7,4.1,7.8,1.4c1.8-2.3-0.8-2.3-1.9-1.7C287.2,25,284.1,25.6,282.5,24.6z M319.9,6.9
						c0.3,0.4,3.7,5.8,5.1,13.3l0,0v0c-0.1,0-0.2,0-0.3,0.1l-0.1,0.7l0.2,0.3l0.2-0.1c0.1,0,0.2,0,0.2-0.1
						c1.2,7.2,0.4,16.3-6.8,24.8c-11.6,9.7-21.3,7.2-24,2.7c0,0-6.4,7.9-13.6,8.2c-7.7-1.2-13.1-8.6-13.1-8.7l-1.4-2l0.5,2.4
						c0,0,0.1,0.4,0.1,1v0c0,0.5-0.1,1.1-0.3,1.7c0,0.1,0,0.1,0,0.2c-0.5,1.6-1.9,3.5-5.3,4.4c-4.4,0.5-7.7-1.7-9.9-6.6v0h0
						c0,0,0-0.1,0-0.1c-1-2.4-2.4-5.1-2.8-8.3c0-0.2-0.3-0.2-0.3-0.3v0l0.1-0.1c-0.1,0-0.1,0-0.1,0.1c0,0,0,0,0,0c0,0,0,0.1,0,0.2
						c0.2,2.2,0.6,4.3,1.2,6.1c-1.6-3-3.7-7.3-4.3-9.5c0,0-3.6,6.9,1.1,14.1c1.3,1.9-2.4,7.6-2,9.7c0.4,2.1-3.4,0.4-4.3-0.9
						c-0.9-1.3-0.8-5.8-0.8-5.8s-4.7,4.7-3.5,10.3c-0.6-1.4-0.8-2.8-0.7-4.1c0.4-4.3,4.2-6.8,4.2-6.8l0.5-0.3l-0.4-0.4
						c-4-4.4-5.8-8.7-5.3-12.6c0.9-6.5,7.9-10.8,11.3-12.9l0.4-0.3c4-2.5,8.6-8.6,12-13.1c1.1-1.4,2-2.6,2.7-3.5
						c1.2-1.4,12.1-13.6,34.6-8.7c19.8,4.3,21.9,15,21.9,15.1l0.4,2.4l0.5-2.4c0.8-3.8-0.8-9.4-1.3-10.9c0.5-0.3,1.9-0.8,4,0.4
						c0.3,0.3,0.7,0.6,1,0.8C321.1,7.3,320.5,7.1,319.9,6.9z M312.1,29.3c0.6-2.3,1.2-10-1.1-10.7c0,0,0,0,0,0
						c-0.7-0.6-1.5-0.2-2.1,0.3c0-0.1,0-0.1,0-0.2l-0.1,0.3c-0.1,0.1-0.1,0.1-0.2,0.2c0,0,0,0.1,0,0.3l-0.1,0.2c0,0,0-0.1,0.1-0.1
						c0,0.4,0.1,1.2,0.1,2.3c0,0,0,0.1,0,0.2c-0.6,4.4-2.4,8.8-5.2,12.3c-1.3,1.4-2.8,2.8-4.8,4.2c-3.1,1.4-5.6,2.4-7.8,3.1
						c-4.2,0.8-8.9,0.6-12.4-0.8c0,0,0,0-0.1-0.1c0,0,0,0,0,0c-0.4-0.1-0.7-0.3-1-0.5c2.1,2.5,4.8,4.9,8,5.6c2.2,0.5,4.7,0.1,7-0.4
						c0.1,0,0.2,0,0.2,0c2-0.2,3.9-0.8,5.8-1.7C305,41.5,310.3,36.2,312.1,29.3z M296,31.9c3.1-2.5,2.9-4.9,1.7-4.5
						c-1.2,0.4-5.1,6.1-10.2,5.4C287.2,32.8,292.9,34.4,296,31.9z M264.5,20.4c0,0,1.4-1.5,0.3-1.5c-1.6,0.1-5.7,1.6-5.6,10.8
						c0.1,9.2,4.9,9.3,5,9.5C258.4,30.3,264.5,20.4,264.5,20.4z M252.2,43.3c3.4,5.4,8,5.1,8,5.1c-12.5-9-3.5-25.1-3.5-25.1
						s0-3.1-2.6-0.2C251.6,25.9,248.8,37.9,252.2,43.3z"/>
					<path class="st4" d="M325.2,21.2c-0.1,0-0.2,0.1-0.2,0.1l-0.2,0.1l-0.2-0.3l0.1-0.7c0.1,0,0.2-0.1,0.3-0.1c0,0.1,0,0.1,0,0.1
						l0.1,0.1C325.1,20.7,325.1,20.9,325.2,21.2z"/>
					<path class="st5" d="M321.6,7.6c5.5,5.2,3.8,11.5,3.4,12.6c-1.4-7.5-4.8-12.9-5.1-13.3C320.5,7.1,321.1,7.3,321.6,7.6z"/>
					<path class="st4" d="M325,20.2c0,0.1,0,0.1,0,0.2l-0.1-0.1C324.9,20.4,324.9,20.3,325,20.2L325,20.2
						C325,20.2,325,20.2,325,20.2z"/>
					<path class="st4" d="M325,20.2L325,20.2C325,20.2,325,20.2,325,20.2L325,20.2z"/>
					<path class="st13" d="M322.1,232.2l0.4,0.2c0.6,0.9,1.2,1.9,1.6,3l-0.4,0.2c-0.8,1.8-2.7,3.9-3.4,4.7c-0.7,0.8-1.6,2.2-2.4,3.4
						c-0.8,1.2-1.3,2.4-1.9,3.6c-0.6,1.2-1.4,1.7-2.1,3.1c-0.8,1.4-0.9,1.4-1.8,2.9c-0.9,1.4-1.9,2-2.4,2.7
						c-0.5,0.7-2.3,2.5-3.9,4.6c-1.6,2.1-3.2,3.4-4.4,5.6c-1.1,2.2-1.9,6.7-2.4,7.5c-0.5,0.8-2.4,1.5-3.9,2.4
						c-1.4,0.8-1.9,2.5-2.9,3.6c-1.1,1.2-2.9,1.8-4.8,2.6c-1.9,0.8-2.8,0-2.8-0.6c0-0.6-1.2-2.6-1.2-2.6s0,0,0.9-0.8
						c0.9-0.8,1.6-1.2,1.5-2.3c-0.1-1.1-0.6-3.3-0.6-4.1c0-0.8,1.3-2.4,2.4-4.1c1.1-1.7,2.9-3.4,3.6-4.9c0.8-1.5,4.1-5.9,6.7-8.1
						c2.6-2.2,5.5-6.3,6.2-7.9c0.7-1.6,6.9-8.1,10.9-14.4c4-6.3,3.6-12.4,3.6-12.4l-0.4-0.2c1.7-2.6,3.2-5.4,4.6-8.3l0.1,0
						c0.3,0.1,2.7,7.9,1.3,14.5c-0.4,1.7-1,3.6-1.8,5.4C322.3,231.6,322.2,231.9,322.1,232.2z"/>
					<path class="st13" d="M324.1,235.3c0.4,0.8,0.7,1.6,1,2.5c0,0-3.1,5.3-4.4,6.3c-1.4,1-4.9,8.4-5,8.9c-0.1,0.5-5.2,4.4-6.9,6.7
						c-1.8,2.3-6.2,7.8-6.7,9.7c-0.4,2-1.4,4.1-3.3,5.6c-1.9,1.4-4.1,2.9-4.8,4.1c-0.7,1.2-3.6,2.4-4.8,3.6
						c-1.2,1.2-2.6,1.3-4.4,1.9c-1.3,0.4-2.2,0.8-2.6,0.8c-0.1,0-0.2-0.1-0.3-0.1c-0.1-0.4,0.4,0.2-0.4-1.7c-0.8-2-1.6-2-0.6-3.9
						c1.1-1.9,2-3.9,1.4-5.5c-0.7-1.6-0.3-4.2,1.7-6.9c2-2.7,9-9.9,10.3-11.9c1.4-2,5.3-5.7,6.6-7.1c1.3-1.4,11.7-15.6,12.3-17.5
						c0.6-2,1.9-5.4,2.1-6.2l-0.1-0.1c1.2-1.4,2.2-2.9,3.2-4.5l0.4,0.2c0,0,0.4,6-3.6,12.4c-4,6.3-10.3,12.8-10.9,14.4
						c-0.7,1.7-3.6,5.7-6.2,7.9c-2.6,2.2-5.9,6.6-6.7,8.1c-0.7,1.5-2.5,3.2-3.6,4.9c-1.1,1.7-2.4,3.3-2.4,4.1c0,0.8,0.5,3.1,0.6,4.1
						c0.1,1.1-0.6,1.5-1.5,2.3c-0.9,0.8-0.9,0.8-0.9,0.8s1.2,2,1.2,2.6c0,0.6,0.9,1.4,2.8,0.6c1.9-0.8,3.7-1.4,4.8-2.6
						c1.1-1.1,1.5-2.8,2.9-3.6c1.4-0.8,3.3-1.5,3.9-2.4c0.5-0.8,1.3-5.3,2.4-7.5c1.2-2.2,2.8-3.5,4.4-5.6c1.6-2.1,3.3-3.9,3.9-4.6
						c0.5-0.8,1.5-1.3,2.4-2.7c0.9-1.4,1.1-1.4,1.8-2.9c0.8-1.4,1.5-1.9,2.1-3.1c0.6-1.2,1.1-2.4,1.9-3.6c0.8-1.2,1.7-2.6,2.4-3.4
						c0.8-0.8,2.6-2.9,3.4-4.7L324.1,235.3z"/>
					<path class="st8" d="M323.7,78.8L323.7,78.8C323.7,78.8,323.7,78.8,323.7,78.8C323.6,78.8,323.7,78.8,323.7,78.8L323.7,78.8z"
						/>
					<path class="st4" d="M323.7,79.3v0.2c-0.5,0-1,0.1-1.4,0.1c-2.8,0-5.1-0.8-6.8-2.4c-0.2-0.2-0.5-0.5-0.7-0.7
						c-4.3-5.1-2.7-14.7-2-17.8c-4.3,1.9-8.1,2.1-11.3,0.7c-3.8-1.7-5.6-5.3-6.2-6.9c-4.4,4.1-9.1,5.9-13.8,5.5
						c-6.7-0.6-11.7-5.6-13.7-8c-0.1,1.6-0.7,4-3.4,5.6c0.6-0.4,1.1-1.1,1.4-1.8c2-2.3,1.5-5,1.4-5.3c0,0,3.5,4.9,9,7.5
						c0.1,0.1,0.2,0.1,0.4,0.2c1.5,0.8,3.1,1.3,4.8,1.5c1,0.1,2.1,0.1,3-0.1c0,0,0.1,0,0.1,0c2.7-0.1,6-1,8.9-4c0,0,0.1-0.1,0.1-0.1
						c0-0.1,0.1-0.1,0.1-0.1c0.5-0.4,0.9-0.7,1.1-0.9c0.2-0.1,0.3-0.3,0.5-0.4c0.1-0.1,0.1-0.1,0.1-0.1c0.3,0.7,0.8,1.5,1.4,2.3
						c0,0,0,0.1,0,0.1c1.2,2,3.3,4.4,6.8,5.2c0.4,0.1,0.7,0.2,1.1,0.2c0.2,0,0.5,0,0.7,0c2.2,0.1,4.9-0.4,8.1-1.9
						c0,0-0.4,1.6-0.7,3.9c0,0,0,0.1,0,0.2c-0.2,1.4-0.4,2.9-0.3,4.3c0,5.3,1.3,11.3,7.3,12.6c0,0,0,0,0,0c0.1,0,0.3,0.1,0.4,0.2
						c0.6,0.3,1.4,0.2,2.1,0.3c0.6,0.1,0.8,0.2,1,0H323.7z"/>
					<path class="st8" d="M323.7,78.8v0.6h-0.4c0,0,0-0.1,0.1-0.1c0,0,0,0,0,0c0-0.1,0.1-0.1,0.1-0.1h0c0,0,0.1,0,0.1,0
						c0,0,0-0.1,0-0.1C323.6,78.9,323.6,78.9,323.7,78.8C323.7,78.8,323.7,78.8,323.7,78.8z"/>
					<path class="st8" d="M323.7,78.6v0.1c0,0.1,0,0.1,0,0.2c0,0,0,0,0,0.1c0,0-0.1,0.1-0.1,0.1h0c0,0,0,0,0,0c0,0,0,0,0-0.1
						C323.5,78.8,323.6,78.7,323.7,78.6L323.7,78.6L323.7,78.6z"/>
					<path class="st8" d="M323.6,78.9C323.6,78.9,323.6,78.9,323.6,78.9C323.6,78.9,323.6,78.9,323.6,78.9z"/>
					<path class="st8" d="M323.6,78.6c0,0.1-0.1,0.2-0.1,0.4c0,0.1,0,0.1,0,0.1c0,0,0,0,0,0c-0.1,0-0.2,0-0.3,0v0
						c0-0.1,0-0.3,0.1-0.5C323.3,78.6,323.4,78.6,323.6,78.6L323.6,78.6z"/>
					<path class="st8" d="M323.6,78.9c0,0,0,0.1,0,0.1c0,0-0.1,0-0.1,0C323.5,79,323.6,79,323.6,78.9z"/>
					<path class="st8" d="M323.4,79.1C323.4,79.1,323.4,79.1,323.4,79.1c0,0.1,0,0.1-0.1,0.1C323.4,79.2,323.4,79.1,323.4,79.1
						C323.4,79.1,323.4,79.1,323.4,79.1z"/>
					<path class="st8" d="M323.4,79.1c0,0,0,0.1-0.1,0.1c0,0,0,0,0,0c-0.1,0.1-0.1,0.1-0.2,0.1v-0.3
						C323.2,79.1,323.3,79.1,323.4,79.1z"/>
					<path class="st8" d="M323.3,79.2c0,0,0,0.1-0.1,0.1h-0.1C323.2,79.3,323.2,79.3,323.3,79.2z"/>
					<path class="st4" d="M323.1,79.3h0.1c-0.2,0.2-0.4,0.1-1,0c-0.7-0.1-1.4,0-2.1-0.3c-0.1-0.1-0.3-0.1-0.4-0.2
						c0.5,0.1,1,0.2,1.5,0.2h0C321.8,79.2,322.4,79.3,323.1,79.3z"/>
					<path class="st4" d="M323.2,78.6c0,0.1-0.1,0.3-0.1,0.5v0c-0.7,0-1.3,0-1.8,0h0c-1.6-0.3-3-0.9-4.1-1.6c0,0-0.1,0-0.1-0.1
						c-0.3-0.2-0.5-0.4-0.8-0.7c-0.5-0.5-0.9-0.9-1.4-1.4c-0.1-0.1-0.2-0.2-0.3-0.4c-0.3-0.5-0.6-1-0.8-1.5c-0.6-1.7-1-3.8-1.2-5.7
						c-0.2-5.1,1.4-10.1,1.6-10.7l-0.2,1c0,0.1-3.1,12.3,1.6,17.9C317.3,77.9,319.8,78.8,323.2,78.6z"/>
					<path class="st4" d="M323.1,79.1v0.3c-0.7,0-1.3-0.1-1.8-0.3C321.8,79.1,322.4,79.1,323.1,79.1z"/>
					<path class="st8" d="M323.5,89.8c-0.3-0.1-0.6-0.4-0.8-0.7c0-0.4,0-0.8-0.1-1.1c0,0,0,0,0,0C322.8,88.6,323.2,89.3,323.5,89.8z
						"/>
					<path class="st8" d="M322.6,88c0.1,0.3,0.1,0.7,0.1,1.1c-0.1-0.1-0.2-0.3-0.3-0.4C322.5,88.5,322.6,88.3,322.6,88z"/>
					<path class="st8" d="M322.7,89.1c0,0.2,0,0.4-0.1,0.6c-0.1-0.1-0.2-0.2-0.3-0.3c0-0.2,0.1-0.5,0.1-0.7
						C322.5,88.9,322.6,89,322.7,89.1z"/>
					<path class="st8" d="M322.6,88C322.6,88,322.6,88,322.6,88c-0.1,0.3-0.1,0.5-0.2,0.8c0-0.1,0-0.1-0.1-0.1l-0.3,0
						c0,0.1,0,0.3-0.1,0.4c0,0-0.1-0.1-0.1-0.1l0.6-1.1C322.5,87.8,322.6,87.9,322.6,88z"/>
					<path class="st8" d="M322.6,89.8C322.6,89.8,322.6,89.8,322.6,89.8c-0.5,2.5-2.4,5.5-3.2,6.8c-1.9,3.3-4.3,6.3-7.3,8.7
						c-2.9,2.3-5.3,3.7-7.1,4.7c-0.2-0.2-0.3-0.4-0.4-0.5c1.6-0.9,3.2-1.9,4.7-3.1c0,0,0,0,0.1-0.1c0.8-0.4,1.8-1,2.3-1.4
						c1.1-0.8,3-2.8,4-3.7c1.6-1.3,2.4-3.1,3.4-5c0.8-1.4,1.6-2.8,2.4-4.2c0.5-0.9,0.6-1.7,0.7-2.6
						C322.4,89.6,322.5,89.7,322.6,89.8z"/>
					<path class="st8" d="M322.6,88c0-0.1-0.1-0.1-0.1-0.2l-0.6,1.1c0,0,0,0.1,0.1,0.1c-0.3,2-1.1,4-2.1,5.7c-0.9,1.5-1.9,3-3.1,4.4
						c1.3-1.7,2.3-3.7,3.3-5.9c0.9-1.9,1.5-4.1,2-6.2C322.4,87.3,322.5,87.6,322.6,88z"/>
					<path class="st8" d="M322.4,88.6c0,0,0,0.1,0.1,0.1c0,0.2-0.1,0.5-0.1,0.7c-0.1-0.1-0.2-0.3-0.3-0.5c0-0.1,0-0.3,0.1-0.4
						L322.4,88.6z"/>
					<path class="st8" d="M322,89c0.1,0.2,0.2,0.3,0.3,0.5c-0.1,0.9-0.2,1.7-0.7,2.6c-0.8,1.4-1.6,2.8-2.4,4.2
						c-1.1,1.8-1.8,3.6-3.4,5c-1,0.9-2.9,2.8-4,3.7c-0.5,0.4-1.5,0.9-2.3,1.4c0.3-0.2,0.6-0.5,0.9-0.7c2.6-1.9,4.7-3.9,6.4-6.4
						c0,0,0,0,0,0c1.2-1.4,2.3-2.9,3.1-4.4C320.9,92.9,321.7,91,322,89z"/>
					<path class="st4" d="M320.9,6.4c1.4,1.1,2.4,2.3,3.2,3.5c-0.6-0.9-1.4-1.7-2.5-2.3c-0.3-0.3-0.6-0.6-1-0.8
						c-2.2-1.2-3.5-0.7-4-0.4c0.5,1.5,2.1,7.1,1.3,10.9l-0.5,2.4l-0.4-2.4c0-0.1-2.2-10.8-21.9-15.1c-22.5-4.9-33.4,7.3-34.6,8.7
						c-0.8,0.9-1.7,2.1-2.7,3.5c-3.4,4.5-8.1,10.6-12,13.1l-0.4,0.3c-3.4,2.1-10.4,6.4-11.3,12.9c-0.5,3.9,1.2,8.2,5.3,12.6l0.4,0.4
						l-0.5,0.3c0,0-3.9,2.5-4.2,6.8c-0.1,1.3,0.1,2.7,0.7,4.1c0.5,2.2,1.8,4.4,4.6,6.6c0,0.1-0.1,0.2-0.1,0.3
						c-12.1-11.4-1.3-18.3-1.3-18.3c-13.5-14.8,1.5-23.3,6.6-26.5c5.1-3.2,11.5-12.7,14.7-16.5c3.2-3.8,14.7-13.3,35.1-8.8
						c20.4,4.5,22.3,15.5,22.3,15.5c0.9-4.2-1.4-11-1.4-11S317.6,4.6,320.9,6.4z"/>
					<path class="st4" d="M321.2,79.1c-0.5,0-1.1-0.1-1.5-0.2c0,0,0,0,0,0c-0.9-0.4-1.8-0.8-2.6-1.4
						C318.2,78.2,319.6,78.8,321.2,79.1z"/>
					<path class="st11" d="M319.7,80.8c0.2,0.5-0.1,1.5-0.2,2.1c-0.1,0.7-0.1,1.4-0.2,2.1c-0.3,2.8-0.8,5.6-1.7,8.3
						c-0.7,2.2-1.6,4.6-3,6.5c-0.7,0.9-1.4,1.9-2.3,2.7c-0.8,0.8-2.7,3.1-3.5,4.1c-1.3,0.8-2.7,1.6-4.3,2.4c-0.9,0.4-1.9,1-3,1.4
						c-2,0.9-4.2,1.6-6.4,2.1c-6.8,1.6-14.2,1.4-21.4-0.5c-2-0.5-4-1.2-5.9-2c-1.4-0.6-2.9-1.3-4.3-2c-8.1-4.4-13.6-13.2-14.6-23.5
						c-0.1-1.2-0.2-2.4-0.2-3.7c0-3.2,0.4-6,0.8-7.9h0c0,0,0,0,0-0.1c0-0.3,0.1-0.5,0.1-0.7c0.1-0.7,0.2-1.1,0.3-1.3
						c0,0,0-0.1,0-0.1c0,0,0,0,0,0c0-0.2,0.1-0.4,0.1-0.7c0.9-3.1,1.2-5.7,0.9-8c0-0.5-0.1-1.1-0.1-1.6c0.4-0.1,1.3-1.8,1.7-2.3
						c0.4-0.5,1.3-2.1,1.9-2.2c0.2-0.1,0.6,0.2,0.8,0.3c0.5,0.2,1,0.3,1.5,0.5c3.3,1.2,7.3,1.8,10.7,1.1c0.8-0.2,1.5-0.4,2.1-0.8
						c0.2-0.1,0.9-1.1,1-1.1c0.2,0,0.6,0.6,0.7,0.7c0.6,0.5,1.2,0.9,1.8,1.3c3.2,1.8,6.3,2.3,9.9,2.3c2.2,0,4.3-0.5,6.4-1.2
						c1.4-0.4,3.8-1,4.6-2.3c2.1,2.6,4.8,4.4,8.1,5.3c1.7,0.5,3.5,0.6,5.2,0.5c1.2-0.1,2.1-0.5,3.2-0.9c0,0.4-0.2,0.9-0.3,1.4
						c-0.1,0.9,0,1.7,0.1,2.7c0.2,1.9,0.4,4.2,1,6c0.6,2,2.1,3.4,3.5,5c0.1,0.2,0.3,0.3,0.5,0.5c0.6,0.6,1.2,1.2,1.9,1.7
						c0.4,0.3,0.8,0.7,1.3,1.1C319,80.4,319.5,80.4,319.7,80.8z M310.2,95.1c0-3-3.1-5.4-6.9-5.4s-6.9,2.4-6.9,5.4
						c0,3,3.1,5.4,6.9,5.4S310.2,98,310.2,95.1z M299.6,74.4c1.7-0.1-1-2.6-2.7-3.3c-1.8-0.7-4.2,0.1-5,2.8
						C291.9,74,297,73.2,299.6,74.4z M299.9,85.9c0-2.3-1.4-4.2-3.1-4.2c-1.7,0-3.1,1.9-3.1,4.2c0,2.3,1.4,4.2,3.1,4.2
						C298.5,90.1,299.9,88.2,299.9,85.9z M290.7,98.1c0-0.7-1.1-1.5-1.2-1.6c-0.2-0.1-0.4-0.3-0.7-0.2l0.2,0.6l0,0.1
						c0,0-0.1,0-0.1,0c-0.2,0.1-0.5,0.2-0.7,0.2c-1.3,0.3-3,0.5-4.9,0.5c-1.9,0.1-3.8-0.1-5.6-0.2c-0.6,0-1.2-0.1-1.9-0.2
						c-0.5-0.1-1.1-0.2-1.6-0.2l-0.6,0c0.5,0,1.8,1,2.3,1.1c0.6,0.1,1.1,0.3,1.8,0.3c1.6,0.1,3.2,0.2,4.8,0.2c0.3,0,0.6,0,0.9,0
						c2,0,3.7-0.2,5.1-0.5c0.2-0.1,0.5-0.2,0.8-0.3c0.1,0,0.3-0.1,0.4-0.1c0.1,0.1,0.2,0.2,0.2,0.2L290.7,98.1z M284.6,104.2l-0.1-1
						c-1.4,0.2-3.6,0.1-4.1-0.4l0.3,0.7c0.7,0.6,1.7,0.8,2.6,0.8C283.7,104.3,284.2,104.3,284.6,104.2z M280.7,89l0.1-0.1
						c-0.7-0.8-2-1.3-3-1.3c-1.7-0.1-2.9,0.6-3.4,1.9c-0.5,1.4,0.3,3.2,1.5,4c0.6,0.4,1.3,0.6,2.1,0.6c0.4,0,0.7-0.1,1.1-0.1l0-0.4
						c0,0,0.1,0,0.1,0c0.4-0.1,1.3-0.6,1.5-1.3C280.9,91.3,281.4,89.8,280.7,89z M269.7,93.8c0.3-2.8-2.4-5.4-5.9-5.8
						c-3.6-0.4-6.8,1.5-7.1,4.3c-0.3,2.8,2.4,5.4,6,5.8C266.2,98.5,269.4,96.6,269.7,93.8z M266.8,71.9c2.1,0.4,1.7-0.1,1.4-0.7
						c-1.2-1.2-3.2-2.9-5.3-1.4c-2.2,1.5-2.2,3.5-2.2,3.5C263.3,71.2,266.8,71.9,266.8,71.9z M268.1,83.5c0-2.2-1.3-4-3-4
						c-1.7,0-3,1.7-3,4c0,2.2,1.3,4,3,4C266.8,87.5,268.1,85.7,268.1,83.5z"/>
					<path class="st4" d="M317.1,77.4c0.8,0.6,1.7,1,2.6,1.4c-6-1.3-7.3-7.4-7.3-12.6c0,0.1,0,0.3,0,0.4c0,0.3,0.1,0.7,0.1,1
						c0.1,2,0.4,4,1.2,5.7c0,0.1,0,0.1,0,0.2c0.2,0.5,0.5,1,0.8,1.4c0.1,0.1,0.2,0.2,0.3,0.4C315.5,76.1,316.2,76.8,317.1,77.4
						C317.1,77.4,317.1,77.4,317.1,77.4z"/>
					<path class="st4" d="M316.3,76.7c0.2,0.2,0.5,0.5,0.8,0.7c-0.9-0.6-1.6-1.3-2.1-2.1C315.3,75.8,315.8,76.2,316.3,76.7z"/>
					<path class="st9" d="M314.8,76.5c0.2,0.3,0.4,0.5,0.7,0.7l-0.1,0.1c-0.2-0.1-0.3-0.3-0.5-0.5c-1.4-1.6-2.8-2.9-3.5-5
						c-0.6-1.8-0.8-4.1-1-6c-0.1-0.9-0.2-1.7-0.1-2.7c0.1-0.5,0.3-1,0.3-1.4c-1.1,0.4-2,0.9-3.2,0.9c-1.7,0.1-3.5-0.1-5.2-0.5
						c-3.2-0.9-6-2.7-8.1-5.3c-0.8,1.3-3.2,1.9-4.6,2.3c-2.1,0.6-4.2,1.2-6.4,1.2c-3.6,0-6.7-0.4-9.9-2.3c-0.6-0.4-1.3-0.8-1.8-1.3
						c-0.1-0.1-0.5-0.7-0.7-0.7c-0.1,0-0.8,0.9-1,1.1c-0.6,0.5-1.4,0.7-2.1,0.8c-3.5,0.7-7.5,0.1-10.7-1.1c-0.5-0.2-1-0.3-1.5-0.5
						c-0.2-0.1-0.6-0.4-0.8-0.3c-0.6,0.1-1.5,1.7-1.9,2.2c-0.4,0.5-1.3,2.2-1.7,2.3c-0.2-3.3-0.1-7.1,0.2-9.5
						c2.4,4.3,5.8,6.3,10.3,5.8c0.6-0.1,1.1-0.3,1.6-0.5c0.5-0.1,1-0.4,1.4-0.7c2.7-1.7,3.3-4.1,3.4-5.6c2,2.4,7,7.4,13.7,8
						c4.7,0.5,9.4-1.4,13.8-5.5c0.6,1.6,2.4,5.2,6.2,6.9c3.2,1.4,6.9,1.2,11.3-0.7C312.1,61.8,310.5,71.4,314.8,76.5z"/>
					<path class="st13" d="M315.1,224.2l0.1,0.1c-0.2,0.8-1.5,4.2-2.1,6.2c-0.6,2-11,16.1-12.3,17.5c-1.3,1.4-5.2,5.1-6.6,7.1
						c-1.3,2-8.3,9.2-10.3,11.9c-2,2.7-2.4,5.3-1.7,6.9c0.7,1.6-0.3,3.6-1.4,5.5c-1.1,1.9-0.2,2,0.6,3.9c0.8,2,0.2,1.4,0.4,1.7
						c0,0.1,0.1,0.1,0.3,0.1l0.6,2.8c-3.4,0.6-6.9,1-9.8,0.7c-8.4-0.8-13.1-6.7-14.4-11c-0.8-2.6-0.6-6.6,0.1-10.3
						c0.4-2.5,1.1-4.9,1.8-6.6c1.1-2.8,4.6-10.2,6.9-14.8l3.2,0.2c-0.2,0.3-0.3,0.7-0.4,1.1c-0.5,1.5-0.7,6.7,0.3,7.9
						c1.1,1.2,2.2,0.2,2.2,0.2h0c-0.2,1.4-0.3,3.1,0.3,3.8c0.9,1.2,1.9,1.7,3-0.3c0,0.5,0.2,1,0.8,1.4c1.3,0.9,4,0,4.7-2.5
						c0,0.6,0,1.2,0.2,1.6c0.7,1.7,2,1.5,3.5-0.3c1.5-1.8,2.2-3.9,2.2-3.9c0.3-0.9,1.8-1.8,2.5-2.4c3.2-2.8,7.2-6.1,8.2-10.4
						c0.3-1.4,0.3-1.4,0.3-1.4c0.2-0.8,2.6-2.4,3.3-3c1.2-1.1,3-2.7,4.2-3.8C309.4,231,312.4,227.8,315.1,224.2z"/>
					<path class="st9" d="M316.8,99.1c-1.7,2.5-3.8,4.5-6.4,6.4c0.1-0.1,0.3-0.3,0.5-0.4C312.8,103.4,314.9,101.3,316.8,99.1z"/>
					<path class="st4" d="M314.2,56.9L314.2,56.9c-0.2,0.6-1.8,5.6-1.6,10.7c0-0.3-0.1-0.7-0.1-1c0-0.1,0-0.3,0-0.4
						c0-1.6,0.1-3,0.3-4.3c0-0.1,0-0.1,0-0.2c0.1-0.3,0.1-0.6,0.2-0.9c0.2-0.8,0.5-1.5,0.7-2.3c0.1-0.3,0.2-1.1,0.1-1.1
						c0,0-0.3,0.1-0.8,0.3C313.4,57.5,313.8,57.2,314.2,56.9z"/>
					<path class="st4" d="M313.3,57.4l0.9-0.5c-0.4,0.3-0.8,0.6-1.2,0.8c-1.3,0.5-4.1,1.5-6.3,1.9h0c-1.2,0-2.3-0.3-3.3-0.7
						C306.1,59.7,309.5,59.2,313.3,57.4z"/>
					<path class="st4" d="M313.8,73.4c0.2,0.5,0.5,1.1,0.8,1.5c-0.3-0.4-0.6-0.9-0.8-1.4C313.8,73.5,313.8,73.5,313.8,73.4z"/>
					<path class="st4" d="M313.7,57.4c0.1,0,0,0.8-0.1,1.1c-0.2,0.8-0.5,1.5-0.7,2.3c-0.1,0.3-0.1,0.6-0.2,0.9
						c0.3-2.3,0.7-3.9,0.7-3.9c-3.2,1.5-5.9,2.1-8.1,1.9c0.4,0,0.8-0.1,1.2-0.1h0c1.9,0,4-0.5,6.3-1.9
						C313.4,57.6,313.7,57.4,313.7,57.4z"/>
					<path class="st4" d="M312.7,61.9c-0.2,1.3-0.3,2.7-0.3,4.3C312.3,64.8,312.5,63.3,312.7,61.9z"/>
					<path class="st4" d="M312.6,67.7c0.2,1.9,0.6,4,1.2,5.7C313,71.6,312.6,69.7,312.6,67.7z"/>
					<path class="st5" d="M298.5,43.8c8.2-3.9,14.7-13.7,13.8-21.7c-0.3-2-0.8-3.1-1.3-3.5c2.3,0.8,1.7,8.5,1.1,10.7
						C310.3,36.2,305,41.5,298.5,43.8z"/>
					<path class="st5" d="M312.3,22.1c0.9,8-5.6,17.8-13.8,21.7c-0.7,0.2-1.3,0.5-2,0.6c-1.3,0.3-2.6,0.7-4,1.1
						c-10.2,0.9-13.8-4.4-14-4.7c0,0,0,0,0.1,0c3.7,2.3,6.7,2.6,12.4,0.8c2.5-0.4,4.8-1.2,6.7-2.2c2.3-1.3,4.3-3,6-5.1
						c4.3-4.7,5.1-9.4,5.2-12.3c0-0.1,0-0.1,0-0.2c0.1-0.8,0.2-1.7,0.2-2.5c0.9-0.8,1.6-1,2.2-0.8c0,0,0,0,0,0
						C311.5,19.1,312,20.1,312.3,22.1z"/>
					<path class="st6" d="M310.9,18.6c-0.5-0.2-1.3,0-2.2,0.8c0-0.1,0-0.3,0-0.4C309.5,18.4,310.2,18,310.9,18.6z"/>
					<path class="st8" d="M310.4,105.5c-0.3,0.2-0.6,0.5-0.9,0.7c0,0-0.1,0.1-0.1,0.1c-0.3,0.1-0.5,0.3-0.7,0.4c0,0,0.1-0.1,0.1-0.1
						C309.3,106.2,309.8,105.9,310.4,105.5z"/>
					<path class="st8" d="M304.6,109.4c0,0-0.1,0.1-0.1,0.1c-0.9,0.5-1.9,1-2.8,1.4c-2.1,0.9-4.2,1.6-6.4,2.1c0,0,0,0-0.1,0
						c-7,1.6-14.6,1.4-21.7-0.5c-1.8-0.4-3.5-1-5.2-1.7c-0.3-0.1-0.5-0.2-0.8-0.3c-1.5-0.6-3-1.3-4.4-2
						c-8.8-4.7-13.9-14.2-14.8-23.9c-0.1-1.2-0.2-2.3-0.2-3.4c0,0,0,0,0,0l0,0c0-0.1,0-0.2,0-0.3c0-2.1,0.2-4,0.4-5.6l0.3-0.1
						c0,0-0.1-0.2-0.2-0.5c0,0,0,0,0,0c0.1-0.5,0.1-1,0.2-1.4l0.5-0.2c-0.3,1.8-0.8,4.7-0.8,7.9c0,1.3,0,2.5,0.2,3.7
						c1,10.4,6.4,19.2,14.6,23.5c1.4,0.8,2.9,1.4,4.3,2c1.9,0.8,3.9,1.5,5.9,2c7.2,1.9,14.6,2.1,21.4,0.5c2.2-0.5,4.3-1.2,6.4-2.1
						c1.1-0.4,2.1-1,3-1.4c1.6-0.8,3-1.6,4.3-2.4c0,0-0.1,0.1-0.1,0.1c0.2-0.1,0.4-0.2,0.7-0.4C307.9,107.5,306.3,108.5,304.6,109.4
						z"/>
					<path class="st7" d="M296,125.2c-1-2.8-0.8-9.7-0.7-11.7c0,0,0,0,0.1,0c2.2-0.5,4.4-1.3,6.5-2.2c1.1-0.5,2.1-0.8,3-1.3
						c0.1-0.1,0.1-0.1,0.2-0.1c1,1.2,2.6,3.8,3.5,7.4c1,4.1,1.1,9.5-2,15.5c0,0-6.1-8.2-14.7-4l-0.2-0.3v0
						C293.4,127.7,294.8,126.6,296,125.2z"/>
					<path class="st5" d="M308.8,18.7c0,0.1,0,0.1,0,0.2c0,0-0.1,0.1-0.1,0.1L308.8,18.7z"/>
					<path class="st5" d="M308.8,18.9c0,0.1,0,0.3,0,0.4c-0.1,0.1-0.2,0.1-0.3,0.2c0,0,0-0.1,0-0.1l0.2-0.5
						C308.7,19,308.8,19,308.8,18.9z"/>
					<path class="st6" d="M308.5,19.6c0.1-0.1,0.2-0.1,0.3-0.2c0,0.8-0.1,1.6-0.2,2.5C308.6,20.8,308.5,20,308.5,19.6z"/>
					<path class="st6" d="M308.5,19.2c0.1-0.1,0.1-0.1,0.2-0.2l-0.2,0.5C308.5,19.3,308.5,19.2,308.5,19.2z"/>
					<path class="st14" d="M303.3,89.7c3.8,0,6.9,2.4,6.9,5.4c0,3-3.1,5.4-6.9,5.4s-6.9-2.4-6.9-5.4
						C296.3,92.1,299.5,89.7,303.3,89.7z"/>
					<path class="st5" d="M308.5,19.5C308.5,19.5,308.5,19.6,308.5,19.5c0,0.1,0,0.1-0.1,0.2L308.5,19.5z"/>
					<path class="st4" d="M313,57.7c-2.3,1.4-4.4,1.9-6.3,1.9C308.9,59.2,311.6,58.2,313,57.7z"/>
					<path class="st4" d="M306.6,59.6c-0.4,0.1-0.9,0.1-1.2,0.1c-0.7,0-1.3-0.1-1.8-0.2c-2.6-0.7-5.2-3.1-6.8-5.2c0,0,0-0.1,0-0.1
						c-0.4-0.8-0.7-1.5-0.9-1.9c0.4,0.6,1,1.5,1.8,2.4c0,0,0,0,0,0.1c1,1.4,2.3,2.8,4.3,3.8c0.5,0.2,0.9,0.4,1.4,0.5
						C304.3,59.4,305.4,59.6,306.6,59.6z"/>
					<path class="st4" d="M305.4,59.8c-0.3,0-0.5,0-0.7,0c-0.4,0-0.7-0.1-1.1-0.2C304.1,59.7,304.7,59.8,305.4,59.8z"/>
					<path class="st8" d="M305.1,109.9c-0.1,0.1-0.2,0.1-0.2,0.1c-0.9,0.5-1.9,0.8-3,1.3c-2.1,0.9-4.3,1.6-6.5,2.2c0,0,0,0-0.1,0
						c0-0.2,0-0.4,0-0.5c2.2-0.5,4.3-1.2,6.4-2.1c1-0.4,1.9-0.9,2.8-1.4c0,0,0.1-0.1,0.1-0.1C304.8,109.5,304.9,109.7,305.1,109.9z"
						/>
					<path class="st5" d="M303.4,34.3c2.8-3.5,4.6-7.9,5.2-12.3C308.5,24.9,307.7,29.7,303.4,34.3z"/>
					<path class="st6" d="M303.3,59c-0.5-0.1-1-0.3-1.4-0.5c-2-0.9-3.4-2.4-4.3-3.8C298.9,56.3,300.9,58.1,303.3,59z"/>
					<path class="st10" d="M302.4,208.6l0.3,0.1c-0.5,1.1-0.9,2.1-1.2,2.8c-0.5,1.1-1.1,2.8-1.9,4.6l-0.6-0.3
						c-8.1,2.1-18.2,1.8-26.3,1c-8.2-0.8-14.4-2.2-14.4-2.2l-0.3-9.4C260.8,206.5,279.9,213.5,302.4,208.6z"/>
					<path class="st6" d="M298.6,38.5c2-1.3,3.6-2.7,4.8-4.2c-1.6,2.1-3.6,3.9-6,5.1c-1.9,1-4.2,1.8-6.7,2.2
						C293,40.9,295.5,39.9,298.6,38.5z"/>
					<path class="st4" d="M296.9,71.2c1.8,0.7,4.4,3.2,2.7,3.3c-2.6-1.2-7.8-0.4-7.8-0.4C292.7,71.3,295.1,70.5,296.9,71.2z"/>
					<path class="st13" d="M299.1,215.8l0.6,0.3c-2.1,5-4.9,11.5-5.4,12.8c-0.7,1.7-1.7,3.2-1.7,3.2s-10.2,5.4-12.9,6.8
						c-2.8,1.5-5.9,2.9-7.1,4.3c-0.9,1.1-1.5,2-2,3l-3.2-0.2c1.2-2.5,2.1-4.2,2.1-4.2l-1.2-2.1c0,0-3.8-4.9-4.7-9.9l0.9-0.1
						c2-4.2,8.3-12.5,8.3-12.5l0-0.3C280.9,217.7,290.9,217.9,299.1,215.8z"/>
					<path class="st4" d="M296.7,54.3c1.7,2.1,4.2,4.5,6.8,5.2C300,58.8,297.9,56.3,296.7,54.3z"/>
					<path class="st15" d="M298.8,83.7c0.4,0.6,0.6,1.4,0.6,2.3c0,2-1.2,3.7-2.6,3.7c-1.4,0-2.6-1.6-2.6-3.7c0-2,1.2-3.7,2.6-3.7
						c0.7,0,1.4,0.4,1.9,1.2c-0.2-0.3-0.5-0.4-0.8-0.4c-0.1,0-0.2,0-0.2,0c-0.3-0.2-0.5-0.3-0.9-0.3c-1.2,0-2.1,1.4-2.1,3.2
						c0,1.7,1,3.2,2.1,3.2c1.2,0,2.1-1.5,2.1-3.2c0-0.2,0-0.5-0.1-0.7v0c0.1-0.2,0.2-0.5,0.2-0.7C299,84.2,298.9,83.9,298.8,83.7z"
						/>
					<path class="st16" d="M298.8,83.7c0.1,0.2,0.2,0.5,0.2,0.8c0,0.3,0,0.5-0.2,0.7c-0.1-1-0.6-1.8-1.2-2.2c0.1,0,0.2,0,0.2,0
						c0.3,0,0.6,0.2,0.8,0.4C298.8,83.5,298.8,83.6,298.8,83.7z"/>
					<path class="st15" d="M298.9,85.2c0,0.2,0.1,0.5,0.1,0.7c0,1.7-1,3.2-2.1,3.2c-1.2,0-2.1-1.5-2.1-3.2c0-1.7,1-3.2,2.1-3.2
						c0.3,0,0.6,0.1,0.9,0.3c-0.5,0.1-0.9,0.7-0.9,1.4c0,0.8,0.5,1.5,1.1,1.5C298.3,85.9,298.7,85.7,298.9,85.2z"/>
					<path class="st16" d="M298.9,85.2L298.9,85.2c-0.2,0.4-0.5,0.7-0.9,0.7c-0.6,0-1.1-0.7-1.1-1.5c0-0.7,0.4-1.3,0.9-1.4
						C298.3,83.4,298.7,84.3,298.9,85.2z"/>
					<path class="st17" d="M297.7,27.5c1.2-0.4,1.4,2-1.7,4.5c-3.1,2.5-8.8,0.9-8.5,0.9C292.6,33.6,296.5,27.8,297.7,27.5z"/>
					<path class="st6" d="M296.4,44.5c0.7-0.2,1.4-0.4,2-0.6c-1.9,0.9-3.8,1.5-5.8,1.7c-0.1,0-0.2,0-0.2,0
						C293.8,45.2,295.2,44.8,296.4,44.5z"/>
					<path class="st4" d="M296,51.5c0,0,0.5,1.5,1.5,3.2c-0.8-0.9-1.3-1.7-1.8-2.4c0,0,0,0,0,0c-0.1-0.4-0.2-0.6-0.2-0.6
						c0,0-0.1,0.1-0.1,0.1c-0.2-0.3-0.2-0.4-0.2-0.4l0.6-0.6L296,51.5z"/>
					<path class="st15" d="M296.8,81.8c1.7,0,3.1,1.9,3.1,4.2c0,2.3-1.4,4.2-3.1,4.2c-1.7,0-3.1-1.9-3.1-4.2
						C293.7,83.6,295.1,81.8,296.8,81.8z M299.4,85.9c0-0.9-0.2-1.7-0.6-2.3c0-0.1-0.1-0.2-0.1-0.2c-0.5-0.7-1.2-1.2-1.9-1.2
						c-1.4,0-2.6,1.6-2.6,3.7c0,2,1.2,3.7,2.6,3.7C298.2,89.6,299.4,88,299.4,85.9z"/>
					<path class="st4" d="M295.8,52.3c0.2,0.5,0.5,1.2,0.9,1.9c-0.7-0.9-1.2-1.7-1.4-2.3c0.1-0.1,0.1-0.1,0.2-0.2
						C295.5,51.8,295.6,52,295.8,52.3C295.8,52.2,295.8,52.3,295.8,52.3z"/>
					<path class="st4" d="M295.5,51.6c0,0,0.1,0.2,0.2,0.6C295.6,52,295.5,51.8,295.5,51.6C295.4,51.7,295.5,51.6,295.5,51.6z"/>
					<path class="st4" d="M295.2,51.9C295.2,51.9,295.2,51.9,295.2,51.9c-0.2,0.2-0.3,0.3-0.6,0.5c-0.3,0.2-0.7,0.6-1.1,0.9
						c0.6-0.6,1.1-1.3,1.6-2.1c0,0,0.1,0.2,0.2,0.4C295.3,51.8,295.3,51.8,295.2,51.9z"/>
					<path class="st8" d="M295.3,113c0,0.1,0,0.3,0,0.5c-3.1,0.7-6.4,1.1-9.7,1.1c-3.8,0-7.7-0.5-11.5-1.4c-0.2,0-0.4-0.1-0.7-0.2
						c-1.9-0.5-3.7-1.1-5.5-1.8c0.3-0.2,0.4-0.3,0.4-0.3c1.7,0.7,3.4,1.3,5.2,1.7C280.6,114.4,288.2,114.7,295.3,113
						C295.2,113,295.3,113,295.3,113z"/>
					<path class="st9" d="M295.3,113.5c-0.1,2-0.2,8.9,0.7,11.7c-1.2,1.3-2.7,2.5-4.3,3.3v0c-2.2,1.3-4.8,2.1-7.3,2.3
						c-2.3,0.3-4.7,0.1-6.7-0.6c-0.5-0.2-1-0.4-1.4-0.7c-1.5-0.8-2.7-2.1-3.5-3.4c-0.4-0.6-0.7-1.3-1-2l0.3-0.1
						c1.9-2.1,1.9-10.6,1.9-10.6l0.1-0.3c3.8,0.9,7.7,1.4,11.5,1.4C288.9,114.6,292.1,114.2,295.3,113.5z"/>
					<path class="st4" d="M295.1,52c-0.1,0.2-0.3,0.3-0.5,0.4C294.9,52.2,295,52.1,295.1,52z"/>
					<path class="st4" d="M295.2,51.2c-0.5,0.8-1.1,1.5-1.6,2.1c0,0-0.1,0-0.1,0.1c-1.2,0.9-2.9,2-4.9,2.9c-0.4,0.1-0.7,0.3-1.1,0.4
						c-0.2,0.1-0.5,0.2-0.8,0.2c-1.4,0.4-2.8,0.5-4.2,0.5c-2-0.2-3.4-0.7-3.4-0.7c0.6,0.1,1.1,0.1,1.6,0c0.3,0.1,0.6,0.1,0.9,0.1
						C286.2,57.4,290.8,55.5,295.2,51.2z"/>
					<path class="st4" d="M293.4,53.4C293.4,53.5,293.4,53.5,293.4,53.4c-1.7,1.4-3.3,2.3-4.9,2.9C290.5,55.5,292.2,54.3,293.4,53.4
						z"/>
					<path class="st5" d="M278.4,40.8c0.2,0.3,3.9,5.6,14,4.7c-2.4,0.5-4.8,0.9-7,0.4c-3.3-0.7-5.9-3.2-8-5.6
						C277.7,40.6,278,40.7,278.4,40.8z"/>
					<path class="st8" d="M289.5,96.5c0.1,0.1,1.2,0.9,1.2,1.6l-1-0.1c0,0-0.1-0.1-0.2-0.2c0,0,0,0,0.1,0l-0.2-1
						c-0.1,0.1-0.2,0.1-0.4,0.1l0-0.1l-0.2-0.6C289,96.2,289.3,96.4,289.5,96.5z"/>
					<path class="st17" d="M288.3,24.4c1.1-0.6,3.7-0.6,1.9,1.7c-3.1,2.7-7.6-1.2-7.8-1.4C284.1,25.6,287.2,25,288.3,24.4z"/>
					<path class="st8" d="M289.3,96.8l0.2,1c0,0,0,0-0.1,0c-0.2-0.2-0.6-0.5-0.7-0.6l0.1-0.3C289.1,96.9,289.2,96.9,289.3,96.8z"/>
					<path class="st8" d="M289.5,97.8c-0.1,0-0.2,0.1-0.4,0.1c-0.3,0.1-0.6,0.2-0.8,0.3c-1.4,0.3-3.1,0.5-5.1,0.5
						c-0.3,0-0.6,0-0.9,0c-1.6,0-3.2-0.1-4.8-0.2c-0.7,0-1.2-0.2-1.8-0.3c-0.5-0.1-1.8-1.1-2.3-1.1l0.6,0c0.5,0,1.1,0.1,1.6,0.2
						c0.7,0.1,1.3,0.2,1.9,0.2c1.9,0.1,3.8,0.2,5.6,0.2c1.9,0,3.6-0.2,4.9-0.5c0.2,0,0.4-0.1,0.7-0.2c0,0,0.1,0,0.1,0l-0.1,0.3
						C288.9,97.3,289.3,97.6,289.5,97.8z"/>
					<path class="st4" d="M288.5,56.4c1.5-0.6,3.1-1.5,4.8-2.8c-2.9,3-6.2,3.9-8.9,4c0.8-0.1,1.5-0.3,2.2-0.5
						c0.3-0.1,0.6-0.2,0.8-0.2C287.8,56.7,288.2,56.5,288.5,56.4z"/>
					<path class="st4" d="M287.4,56.8c0.4-0.1,0.8-0.3,1.1-0.4C288.2,56.5,287.8,56.7,287.4,56.8z"/>
					<path class="st5" d="M278.5,40.9c3.5,1.3,8.1,1.5,12.4,0.8C285.2,43.5,282.1,43.1,278.5,40.9z"/>
					<path class="st4" d="M286.6,57c-0.7,0.2-1.4,0.4-2.2,0.5c0,0,0,0-0.1,0c-0.7,0-1.3,0-1.9,0C283.7,57.6,285.1,57.4,286.6,57z"/>
					<path class="st8" d="M284.4,103.2l0.1,1c-0.4,0.1-0.9,0.1-1.4,0.1c-1,0-1.9-0.2-2.6-0.8l-0.3-0.7
						C280.8,103.3,283,103.5,284.4,103.2z"/>
					<path class="st7" d="M284.4,130.9l0,0.4c-1.2,2.9-2.1,19.6-2.1,19.6c-3.5,0.7-8.3-1.2-8.3-1.2c0.1-9.2,2.1-19.8,2.1-19.8
						l0.1-0.2c0.4,0.3,0.9,0.5,1.4,0.7C279.8,131,282.1,131.2,284.4,130.9z"/>
					<path class="st4" d="M282.4,57.5c0.6,0,1.2,0.1,1.9,0c-1,0.1-2,0.2-3,0.1c-1.6-0.2-3.2-0.7-4.8-1.5
						C278.3,56.9,280.2,57.5,282.4,57.5z"/>
					<path class="st8" d="M280.8,88.9l-0.1,0.1c0,0-0.1-0.1-0.1-0.1c-0.2-0.2-0.5-0.4-1-0.5l-0.2,0c-1.5-0.5-2.9,0-3.7,0.9
						c0,0-0.1,0.1-0.1,0.1c-0.1,0.1-0.2,0.3-0.3,0.5c0,0,0,0,0,0c-0.5,1.1-0.1,2.5,1.7,3.3c0.5,0.3,1.4,0.4,2,0.2l0,0.4
						c-0.3,0.1-0.7,0.1-1.1,0.1c-0.8,0-1.5-0.2-2.1-0.6c-1.1-0.8-2-2.5-1.5-4c0.5-1.3,1.7-2,3.4-1.9
						C278.8,87.6,280.1,88.1,280.8,88.9z"/>
					<path class="st14" d="M280.7,89c0.7,0.9,0.2,2.3,0,3.2c-0.2,0.7-1.1,1.1-1.5,1.3c0,0-0.1,0-0.1,0v-0.1c-0.8,0.2-2-0.3-2.6-0.7
						c-0.8-0.5-1.4-1.8-1.1-2.7c0,0,0,0,0,0c0.1-0.2,0.2-0.3,0.3-0.5c0-0.1,0.1-0.1,0.1-0.1c0.4-0.5,1.1-0.6,2-0.6
						c0.7,0.1,2.3-0.1,2.8,0.3C280.6,88.9,280.7,88.9,280.7,89z"/>
					<path class="st4" d="M266.9,48.1c0,0.1,0,0.7-0.1,1.5c0-0.6-0.1-1-0.1-1l-0.5-2.4l1.4,2c0.1,0.1,5.4,7.5,13.1,8.7
						c-0.5,0-1.1,0-1.6,0c0,0,1.4,0.5,3.4,0.7c-2.2-0.1-4.1-0.6-5.9-1.4c-0.1-0.1-0.2-0.1-0.4-0.2C270.9,53.2,266.9,48.1,266.9,48.1
						z"/>
					<path class="st8" d="M279.6,88.4c0.5,0.1,0.8,0.3,1,0.5c-0.6-0.4-2.1-0.2-2.8-0.3c-0.9,0-1.5,0.1-2,0.6
						c0.8-0.9,2.1-1.3,3.7-0.9L279.6,88.4z"/>
					<path class="st8" d="M279,93.3v0.1c-0.6,0.2-1.5,0-2-0.2c-1.8-0.9-2.2-2.3-1.7-3.3c-0.3,1,0.3,2.2,1.1,2.7
						C277,93,278.2,93.6,279,93.3z"/>
					<path class="st6" d="M278.4,40.8C278.4,40.8,278.4,40.8,278.4,40.8C278.4,40.9,278.4,40.8,278.4,40.8
						C278.4,40.8,278.4,40.8,278.4,40.8z"/>
					<path class="st11" d="M275.7,89.2c0,0-0.1,0.1-0.1,0.1C275.6,89.3,275.7,89.2,275.7,89.2z"/>
					<path class="st7" d="M271.8,124.2c0.3,0.7,0.6,1.3,1,2h0c-3.4-3.8-10.4,2.2-10.4,2.2c-0.1-2.1,0-4,0.2-5.6
						c0.9-7.1,4.1-10.5,5.3-11.6c1.8,0.7,3.7,1.3,5.5,1.8c0.2,0.1,0.4,0.1,0.7,0.2l-0.1,0.3c0,0,0,8.5-1.9,10.6L271.8,124.2z"/>
					<path class="st13" d="M263.6,229.8c0.9,5,4.7,9.9,4.7,9.9l1.2,2.1c0,0-0.9,1.7-2.1,4.2c-2.3,4.7-5.8,12-6.9,14.8
						c-0.7,1.7-1.3,4.1-1.8,6.6l-0.3-0.1c-4.5,6.7-17.5,11.2-21.5,11.2c-4,0-12-5.8-13.7-8.2c-1.7-2.4-1.6-3.6-1.7-6.9
						c-0.1-3.4,1.2-10.1,1.4-10.4c0.1,0.8,0.5,2.5,2.4,2.8l0.6-0.1c0.1,0.3,0.3,0.6,0.5,0.7c1.5,0.9,3.4-1.2,3.8-2.6
						c0.1,0.3,0.3,0.5,0.5,0.6c1.4,0.6,3.7-1.9,4.9-4.8c1.2-2.9,3.8-5.9,3.8-5.9l1.8-1.8c0.1,0.7,0.3,1.9,1,3.2
						c1.4,2.7,5.1,3.1,4.7,0.3c-0.3-2.7-0.3-7.1-0.5-8.8c-0.2-1.7-2.6-5.2-2.6-5.2c0.3-0.5,0.8-1.4,1.4-2.4l0.1,0
						c-0.4,0.7-0.6,1.2-0.6,1.3v0c-0.3,1.2,9.6-10.3,10.4-11.7c0.4-0.7,0.7-0.4,1.1-1.2c0-0.1,0.5-0.8,0.5-0.8
						c0.4-0.3,1.4-1,1.4-1.4c0.7-1,0.2-2.3,0.2-3.6c0-1.3,0-5.2-0.2-6.3c0.2-0.5-0.5-0.3-0.3-0.6c0,0.1,0,0.1,0.1,0.2
						c0,0,0.1,0.1,0.3,0.1l0.3,9.4c0,0,6.2,1.4,14.4,2.2l0,0.3c0,0-6.3,8.3-8.3,12.5L263.6,229.8z"/>
					<path class="st4" d="M267.1,48.5c0.1,0.3,0.5,3-1.4,5.3c0.3-0.7,0.6-1.5,0.8-2.3c0-0.1,0-0.1,0-0.2c0.2-0.6,0.3-1.3,0.3-1.7v0
						c0.1-0.8,0.1-1.3,0.1-1.5c0,0,4,5.1,9.2,7.9C270.6,53.3,267.1,48.5,267.1,48.5z"/>
					<path class="st14" d="M263.8,88c3.6,0.4,6.3,3,5.9,5.8c-0.3,2.8-3.5,4.7-7.1,4.3c-3.6-0.4-6.3-3-6-5.8
						C257,89.5,260.2,87.6,263.8,88z"/>
					<path class="st4" d="M268.2,71.2c0.4,0.7,0.7,1.2-1.4,0.7c0,0-3.5-0.6-6.2,1.3c0,0,0.1-2,2.2-3.5C265,68.3,267,69.9,268.2,71.2
						z"/>
					<path class="st8" d="M267.6,110.6c0.2,0.1,0.5,0.2,0.8,0.3c0,0-0.2,0.1-0.4,0.3c-0.2-0.1-0.3-0.1-0.5-0.2
						c-1.5-0.6-3-1.3-4.4-2.1c-8.4-4.5-14.1-13.6-15.1-24.3c-0.1-1-0.1-2-0.1-3.1c0.2-0.1,0.4-0.2,0.5-0.3c0,1.1,0.1,2.2,0.2,3.4
						c0.9,9.7,6,19.2,14.8,23.9C264.6,109.3,266.1,110,267.6,110.6z"/>
					<path class="st15" d="M266.9,82.2c0.1,0.4,0.2,0.8,0.2,1.3c0,1.6-0.9,3-2,3c-1.1,0-2-1.4-2-3c0-1.7,0.9-3,2-3
						c0.1,0,0.3,0,0.4,0.1c-0.4,0.2-0.7,0.7-0.7,1.3c0,0.8,0.5,1.4,1.1,1.4C266.4,83.2,266.8,82.8,266.9,82.2z"/>
					<path class="st16" d="M266.9,81.9c0,0.1,0,0.2,0,0.3c-0.3-0.8-0.8-1.4-1.4-1.6c0.1-0.1,0.2-0.1,0.4-0.1
						C266.4,80.5,266.9,81.1,266.9,81.9z"/>
					<path class="st9" d="M266.5,51.3c0.1-0.6,0.2-1.2,0.3-1.7C266.8,50,266.7,50.7,266.5,51.3z"/>
					<path class="st16" d="M266.9,82.2c-0.1,0.6-0.5,1.1-1,1.1c-0.6,0-1.1-0.6-1.1-1.4c0-0.6,0.3-1.1,0.7-1.3
						C266.1,80.7,266.6,81.3,266.9,82.2z"/>
					<path class="st4" d="M266.5,51.5c-0.2,0.8-0.4,1.6-0.8,2.3c-0.9,1.1-2.3,2-4.5,2.6c-0.3,0-0.6,0.1-1,0
						c-5.6-0.3-8.1-4.6-9.1-6.6c0-0.1,0-0.2,0-0.4h0l0-0.1c2.2,4.8,5.5,7,9.9,6.6C264.5,55,265.9,53.1,266.5,51.5z"/>
					<path class="st15" d="M265.1,79.5c1.7,0,3,1.7,3,4c0,2.2-1.3,4-3,4c-1.6,0-3-1.8-3-4C262.1,81.3,263.4,79.5,265.1,79.5z
						 M267.6,83.5c0-1.9-1.1-3.5-2.5-3.5c-1.4,0-2.5,1.5-2.5,3.5c0,1.9,1.1,3.5,2.5,3.5C266.5,87,267.6,85.4,267.6,83.5z"/>
					<path class="st15" d="M265.1,80c1.4,0,2.5,1.5,2.5,3.5c0,1.9-1.1,3.5-2.5,3.5c-1.4,0-2.5-1.6-2.5-3.5
						C262.6,81.6,263.7,80,265.1,80z M267.1,83.5c0-0.5-0.1-0.9-0.2-1.3c0-0.1,0-0.2,0-0.3c0-0.8-0.5-1.4-1.1-1.4
						c-0.1,0-0.2,0-0.4,0.1c-0.1,0-0.2-0.1-0.4-0.1c-1.1,0-2,1.3-2,3c0,1.6,0.9,3,2,3C266.2,86.5,267.1,85.1,267.1,83.5z"/>
					<path class="st17" d="M264.8,18.9c1.1,0-0.3,1.5-0.3,1.5s-6.1,9.9-0.3,18.8c-0.1-0.1-4.9-0.3-5-9.5
						C259.1,20.5,263.1,19,264.8,18.9z"/>
					<path class="st4" d="M265.7,53.8c-0.3,0.7-0.8,1.4-1.4,1.8c-0.4,0.3-0.9,0.5-1.4,0.7c-0.1,0-0.3,0.1-0.4,0.1
						c-0.8,0.1-1.5,0.1-2.2,0c0.3,0,0.6,0,1,0C263.4,55.8,264.8,54.8,265.7,53.8z"/>
					<path class="st11" d="M264.3,55.6c-0.4,0.3-0.9,0.6-1.4,0.7C263.4,56.1,263.9,55.9,264.3,55.6z"/>
					<path class="st4" d="M262.5,56.4c0.1,0,0.3-0.1,0.4-0.1c-0.5,0.2-1,0.4-1.6,0.5c-4.5,0.5-8-1.5-10.3-5.8c0-0.2,0-0.4,0.1-0.6
						c0-0.1,0-0.1,0-0.1c1.7,3.4,4.5,6.3,9.1,6.2C260.9,56.5,261.7,56.5,262.5,56.4z"/>
					<path class="st11" d="M222.9,251.1l-0.3,0c-3.6-5.8,0.6-11.3,1.6-12.4c1-1.1,8.3-7.2,8.6-7.6c0.3-0.3,2.9-6.2,4.3-14.6
						c1.5-8.4,6.8-26.9,7.4-29.2c0.6-2.2,1.3-9,1.6-9.5l0.2-0.4c2.9,1.2,7,1.7,12.3,0.5l1.1-0.1c0.4,5.4,1.3,12.3,1,15
						c-0.4,2.8-4.7,8.2-3,12.1c-0.1,0.3-0.3,0.7-0.6,1.2c-0.1-0.4-0.1-0.5-0.2,0c0,0.1-0.1,0.4-0.2,0.8c-2.6,5.2-8.5,16.7-11.6,22.3
						c-0.6,1-1,1.9-1.4,2.4c0,0,2.4,3.5,2.6,5.2c0.2,1.7,0.2,6.1,0.5,8.8c0.3,2.7-3.4,2.4-4.7-0.3c-0.7-1.4-0.9-2.6-1-3.2l-1.8,1.8
						c0,0-2.7,3-3.8,5.9c-1.2,2.9-3.5,5.4-4.9,4.8c-0.2-0.1-0.4-0.3-0.5-0.6c-0.3,1.4-2.3,3.5-3.8,2.6c-0.2-0.1-0.4-0.4-0.5-0.7
						l-0.6,0.1c-1.9-0.3-2.3-1.9-2.4-2.8c0-0.1,0-0.1,0-0.2C222.9,252.6,222.9,252,222.9,251.1z"/>
					<path class="st4" d="M260.3,56.4c-4.6,0.1-7.4-2.8-9.1-6.2c0,0,0,0,0-0.1c0-0.1,0-0.2,0-0.4C252.1,51.8,254.7,56.1,260.3,56.4z
						"/>
					<path class="st17" d="M260.2,48.4c0,0-4.6,0.3-8-5.1c-3.4-5.4-0.6-17.4,1.9-20.2c2.6-2.8,2.6,0.2,2.6,0.2
						S247.6,39.4,260.2,48.4z"/>
					<path class="st7" d="M259.7,177.9l-1.1,0.1c-5.4,1.2-9.4,0.6-12.3-0.5c-4.8-1.9-6.7-5.4-6.7-5.4c1-1.2,2-3.7,3.1-6.7l0.2,0.1
						c0.3,0,4.2,5.1,15.6,3.2l0.6,0c0.2,3.7,0.4,6.8,0.5,8.3C259.6,177.2,259.7,177.5,259.7,177.9z"/>
					<path class="st11" d="M256.9,206.2c0-0.5,0.1-0.4,0.2,0c-0.1,0.2-0.3,0.5-0.4,0.8C256.8,206.6,256.9,206.3,256.9,206.2z"/>
					<polygon class="st4" points="251.3,49.3 251.3,49.3 251.2,49.3 					"/>
					<path class="st4" d="M251.3,49.3l0,0.1h0c0,0.1,0,0.2,0,0.4c-0.1-0.2-0.2-0.4-0.2-0.6L251.3,49.3L251.3,49.3z"/>
					<path class="st4" d="M251.2,49.2C251.2,49.2,251.2,49.3,251.2,49.2l-0.2,0.1c-0.1-0.3-0.2-0.5-0.2-0.5s0,0.1,0,0.4l-0.1,0
						c-0.3-0.6-0.8-1.4-1.3-2.3c-0.6-1.8-1-3.9-1.2-6.1c0-0.1,0-0.2,0-0.2c0,0,0.3,0.1,0.3,0.3C248.8,44.1,250.2,46.8,251.2,49.2z"
						/>
					<path class="st4" d="M251.2,50.2c0,0,0,0.1,0,0.1C251.1,50.3,251.1,50.2,251.2,50.2L251.2,50.2
						C251.2,50.2,251.2,50.2,251.2,50.2z"/>
					<path class="st4" d="M251.2,49.8c0,0.1,0,0.2,0,0.4h0c0,0,0-0.1-0.1-0.2c-0.1-0.2-0.2-0.4-0.3-0.6c0,0,0,0.1,0,0.1h0
						c0,0,0-0.1,0-0.1c0-0.1,0-0.1,0-0.2l0.2,0C251,49.4,251.1,49.6,251.2,49.8z"/>
					<path class="st4" d="M251,50c0,0.1,0.1,0.1,0.1,0.2c0,0.1,0,0.1,0,0.2c-0.1,0.1-0.1,0.3-0.2,0.4c-0.1-0.2-0.2-0.3-0.3-0.5
						c0-0.1,0-0.2,0-0.3c0,0,0-0.1,0-0.1c0-0.2,0-0.3,0-0.5C250.9,49.7,250.9,49.9,251,50z"/>
					<path class="st4" d="M251,62.1c0.3,2.2,0,4.9-0.9,8c0.3-1.3,0.5-2.7,0.6-3.5c0.1-0.9-0.1-4.5-0.2-8.1c0,0.8,0.1,1.4,0.2,1.9
						c0,0.1,0.1,0.1,0.1,0.1C250.9,61.1,250.9,61.6,251,62.1z"/>
					<path class="st4" d="M251.1,50.4c0,0.2-0.1,0.4-0.1,0.6c0,0-0.1-0.1-0.1-0.2C251,50.6,251,50.5,251.1,50.4z"/>
					<path class="st4" d="M250.8,49.4c0.1,0.2,0.2,0.4,0.3,0.6C250.9,49.9,250.9,49.7,250.8,49.4L250.8,49.4
						C250.8,49.4,250.8,49.4,250.8,49.4z"/>
					<path class="st4" d="M250.9,50.8c0,0.1,0,0.1,0.1,0.2c-0.3,2.5-0.4,6.2-0.2,9.5c0,0-0.1,0-0.1-0.1c-0.1-0.5-0.2-1.2-0.2-1.9
						c0-0.1,0-0.2,0-0.3c0-0.3,0-0.7,0-1c0-0.1,0-0.2,0-0.3C250.5,54.3,250.6,52,250.9,50.8z"/>
					<path class="st4" d="M250.9,49.2l-0.2,0c0-0.3,0-0.4,0-0.4S250.8,48.9,250.9,49.2z"/>
					<path class="st4" d="M250.7,49.5L250.7,49.5c0,0.1,0,0.3,0,0.5C250.7,49.8,250.7,49.6,250.7,49.5L250.7,49.5z"/>
					<path class="st4" d="M250.7,50.3c0.1,0.2,0.2,0.3,0.3,0.5c-0.3,1.2-0.4,3.5-0.4,6.1C250.4,54.6,250.5,51.9,250.7,50.3z"/>
					<path class="st4" d="M250.5,58.5c0.1,3.6,0.3,7.2,0.2,8.1c-0.1,0.8-0.3,2.3-0.6,3.5c0,0.2-0.1,0.5-0.2,0.7h-0.5
						c0.6-1.9,1.5-5.4,1.1-8.6c-0.5-4.1-0.3-9.3,0.1-12c0,0,0,0,0,0c-0.1,1.6-0.2,4.3-0.2,6.6c0,0.1,0,0.2,0,0.3c0,0.3,0,0.7,0,1
						C250.5,58.3,250.5,58.4,250.5,58.5z"/>
					<path class="st4" d="M250.7,49.4C250.7,49.4,250.7,49.5,250.7,49.4c0,0.2,0,0.4,0,0.5c0,0,0,0,0,0.1c0,0.1,0,0.1,0,0.2
						c-0.1-0.2-0.2-0.4-0.3-0.7c0,0,0-0.1,0-0.1c0-0.1,0-0.1,0-0.2l0-0.1l0.3,0C250.6,49.3,250.7,49.3,250.7,49.4z"/>
					<path class="st4" d="M250.7,49.2c0,0.1,0,0.1,0,0.2c0-0.1-0.1-0.1-0.1-0.2L250.7,49.2z"/>
					<path class="st4" d="M250.6,50.2c0-0.1,0-0.1,0-0.2C250.7,50.1,250.7,50.2,250.6,50.2C250.6,50.3,250.6,50.3,250.6,50.2z"/>
					<path class="st4" d="M250.3,49.6c0.1,0.2,0.2,0.4,0.3,0.7c-0.4,2.7-0.6,7.9-0.1,12c0.4,3.2-0.5,6.7-1.1,8.6l-0.3-0.3l-0.1,0.1
						l0,0.1c0,0.1,0,0.2-0.1,0.4c0,0,0-0.1-0.1-0.1l0.1-0.4c1-3.3,1.4-6.1,1.1-8.4c-0.5-4.5-0.2-10.2,0.2-12.8
						C250.3,49.5,250.3,49.5,250.3,49.6z"/>
					<path class="st4" d="M250.6,49.2l-0.3,0l0,0.1c0,0.1,0,0.1,0,0.2c-0.3-0.8-0.7-1.6-0.9-2.6C249.8,47.8,250.3,48.6,250.6,49.2z"
						/>
					<path class="st4" d="M250.5,57.2c0,0.3,0,0.7,0,1C250.5,57.9,250.5,57.5,250.5,57.2z"/>
					<path class="st17" d="M250,62.3c0.3,2.3-0.1,5.1-1.1,8.4l-0.1,0.4c-0.7-1.3-2.1-2.8-4.5-3.2c-1.8-0.3-3.4,1-4.2,3.4
						c-2.3-2.2-3.8-4.3-4.7-6.4c-1.2-5.6,3.5-10.3,3.5-10.3s-0.1,4.5,0.8,5.8c0.9,1.3,4.7,3,4.3,0.9c-0.4-2.1,3.3-7.8,2-9.7
						c-4.6-7.3-1.1-14.1-1.1-14.1c0.6,2.2,2.7,6.5,4.3,9.5c0.3,0.9,0.6,1.7,0.9,2.6C249.8,52.1,249.5,57.8,250,62.3z"/>
					<path class="st17" d="M249.9,70.8c0.1-0.2,0.1-0.5,0.2-0.7C250,70.4,250,70.6,249.9,70.8L249.9,70.8z"/>
					<path class="st8" d="M249.9,70.8C249.9,70.8,249.9,70.8,249.9,70.8c0,0-0.1,0.1,0,0.2c0,0.1-0.1,0.6-0.3,1.3
						c-0.1,0.4-0.1,0.6-0.1,0.6c0-0.1-0.1-0.3-0.1-0.4h0c0-0.1,0.1-0.3,0.2-0.6l0.2-0.8C249.9,70.9,249.9,70.9,249.9,70.8
						L249.9,70.8z"/>
					<path class="st17" d="M249.9,70.8c0,0,0,0.1,0,0.1C249.9,71,249.9,70.9,249.9,70.8z"/>
					<path class="st8" d="M249.9,70.8c0,0,0,0.1,0,0.2l-0.2,0.8c-0.1,0.3-0.2,0.5-0.2,0.6h0c0-0.1-0.1-0.3-0.2-0.5c0,0,0,0,0,0
						c0.1-0.5,0.2-0.9,0.2-1l0,0v0H249.9z"/>
					<path class="st8" d="M249.6,72.2c0,0.2-0.1,0.4-0.1,0.7c0,0,0-0.1,0-0.1C249.5,72.8,249.6,72.6,249.6,72.2z"/>
					<path class="st8" d="M249.5,72.9C249.5,73,249.5,73,249.5,72.9L249.5,72.9C249.5,73,249.5,73,249.5,72.9z"/>
					<path class="st8" d="M249.5,72.8c0,0.1,0,0.1,0,0.1c0,0,0,0,0,0.1l-0.5,0.2c0-0.1,0-0.2,0-0.2v0c0-0.2,0.1-0.4,0.1-0.5h0.1
						C249.4,72.6,249.5,72.8,249.5,72.8z"/>
					<path class="st8" d="M249.4,72.4c0,0.2,0.1,0.3,0.1,0.4c0,0-0.1-0.2-0.3-0.4H249.4z"/>
					<path class="st8" d="M249.4,70.9c0,0.1-0.1,0.5-0.2,1c-0.1-0.2-0.2-0.4-0.3-0.7c0,0,0,0,0,0c0-0.2,0.1-0.4,0.1-0.4l0-0.1
						l0.1-0.1L249.4,70.9L249.4,70.9L249.4,70.9z"/>
					<path class="st8" d="M249.4,72.4h-0.1c0,0,0-0.1-0.1-0.1c0-0.1,0-0.2,0.1-0.3C249.3,72.1,249.3,72.3,249.4,72.4z"/>
					<path class="st8" d="M249.1,72.2c0,0,0.1,0.1,0.1,0.1h-0.1C249.1,72.3,249.1,72.3,249.1,72.2z"/>
					<path class="st8" d="M249.2,71.9C249.2,71.9,249.2,71.9,249.2,71.9c0,0.1,0,0.2-0.1,0.3c-0.1-0.1-0.2-0.3-0.4-0.6
						c0-0.2,0.1-0.3,0.1-0.5C249,71.4,249.1,71.7,249.2,71.9z"/>
					<path class="st8" d="M249.1,72.2c0,0,0,0.1,0,0.1l-0.3,0c0-0.1-0.1-0.2-0.1-0.3c0,0,0,0,0,0c0-0.1,0-0.2,0-0.3
						C248.9,71.9,249,72.1,249.1,72.2z"/>
					<path class="st8" d="M249.1,72.4c0,0.2,0,0.3-0.1,0.5c0-0.1-0.1-0.3-0.2-0.6L249.1,72.4z"/>
					<path class="st8" d="M249,72.9L249,72.9c0,0.1,0,0.2,0,0.3l-0.4,0.1c0,0,0-0.1,0-0.3c0,0,0,0,0-0.1c0,0,0-0.1,0-0.1
						c0-0.2,0-0.3,0.1-0.5h0.2C248.9,72.6,249,72.8,249,72.9z"/>
					<path class="st8" d="M248.6,73.3l0.4-0.1c-0.1,0.4-0.1,0.9-0.2,1.4c-0.1-0.2-0.2-0.4-0.4-0.7c0.1-0.3,0.1-0.6,0.2-0.9
						c0,0,0,0,0,0.1C248.6,73.2,248.6,73.3,248.6,73.3z"/>
					<path class="st8" d="M249,75.1l-0.3,0.1c0-0.2,0-0.5,0.1-0.7C248.9,74.9,249,75.1,249,75.1z"/>
					<path class="st8" d="M248.9,71.2C248.9,71.2,248.9,71.2,248.9,71.2c0,0.1-0.1,0.3-0.1,0.5c0,0,0-0.1-0.1-0.1c0,0,0-0.1,0-0.1
						l0.1-0.4C248.8,71.1,248.8,71.2,248.9,71.2z"/>
					<path class="st8" d="M248.8,72.4h-0.2c0-0.1,0-0.2,0-0.3C248.7,72.2,248.8,72.3,248.8,72.4z"/>
					<path class="st8" d="M248.8,71.1l-0.1,0.4c0,0,0,0,0,0.1c-0.2-0.3-0.4-0.6-0.7-0.9c0,0-0.1-0.1-0.1-0.1
						c-0.4-0.5-0.9-1.1-1.6-1.5c0,0,0,0,0,0c-0.2-0.1-0.3-0.3-0.5-0.4c-0.8-0.5-1.4-0.6-2-0.4c-0.1,0-0.2,0-0.2,0
						c-1.4,0.2-2.4,1.5-2.9,3.3c-0.1-0.1-0.3-0.3-0.4-0.4c0.8-2.4,2.4-3.8,4.2-3.4C246.7,68.2,248.1,69.8,248.8,71.1z"/>
					<path class="st8" d="M248.7,71.7c0,0.1,0,0.2,0,0.3c0-0.1-0.1-0.2-0.1-0.3c0-0.1,0-0.1,0.1-0.2
						C248.7,71.6,248.7,71.6,248.7,71.7z"/>
					<path class="st8" d="M248.7,74.6C248.7,74.6,248.7,74.6,248.7,74.6c0,0.2-0.1,0.5-0.1,0.7l-0.5,0.2c0.1-0.6,0.2-1.1,0.2-1.6
						C248.5,74.1,248.6,74.4,248.7,74.6z"/>
					<path class="st8" d="M248.7,72C248.7,72,248.7,72,248.7,72c0,0.1,0,0.2,0,0.3h-0.2c0-0.1,0-0.3,0.1-0.6
						C248.6,71.8,248.7,71.9,248.7,72z"/>
					<path class="st8" d="M248,70.7c0.3,0.3,0.5,0.6,0.7,0.9c0,0.1,0,0.2-0.1,0.2C248.4,71.4,248.2,71,248,70.7z"/>
					<path class="st8" d="M248.6,75.2c-0.2,1.6-0.4,3.5-0.4,5.6H248h0l-0.2-0.2c0-1.9,0.2-3.7,0.4-5.2L248.6,75.2z"/>
					<path class="st8" d="M248.4,72.4h0.2c0,0.1-0.1,0.3-0.1,0.5c0,0,0,0.1,0,0.1c-0.2-0.9-1.3-3.6-4.4-4.2
						c-1.7-0.3-2.8,1.5-3.3,3.5c-0.6,2.6-0.1,6,2.4,7.7c2.4,1.6,4.1,0.8,4.4,0.6l0.1,0.1c0,0.1,0,0.1,0,0.2c0,0.1,0,0.1,0,0.1
						c-0.6,0.4-2.4,0.9-4.8-0.6c-2.4-1.6-3.1-4.9-2.7-7.6c0.1,0.1,0.2,0.2,0.3,0.2l0.2-1.1v0v0c0-0.1,0,0,0,0c0-0.1-0.1-0.1-0.1-0.1
						c0.4-0.5,1.3-2.8,2.9-3.4c0.1,0,0.2-0.1,0.2,0c0.2,0,0.3,0,0.5,0c0.8,0.1,1.4,0.4,2,0.7c0,0,0,0,0,0c0.6,0.5,1.1,1,1.6,1.5
						c0,0.1,0,0.1,0.1,0.1c0.3,0.4,0.5,0.7,0.6,1.1C248.4,72.1,248.4,72.2,248.4,72.4z"/>
					<path class="st11" d="M248.5,72.9c0,0.3-0.1,0.6-0.2,0.9c-0.8-1.3-2.5-2.9-5.3-1.7l0,0.4c1.4-0.3,2.5,0.1,3.2,0.7
						c-0.4,0.2-0.8,0.7-1.1,1.3c-0.3,0.7-0.6,1.7-0.1,3.2l0.2-0.1c-0.9-2.5,1.7-3.7,1.7-3.7c0.7,0.8,1.1,1.6,1.1,1.7l0,0
						c-0.2,1.5-0.3,3.3-0.4,5.2l-0.1-0.1c-0.2,0.2-2,1-4.4-0.6c-2.4-1.6-2.9-5.1-2.4-7.7c0.4-2,1.6-3.8,3.3-3.5
						C247.3,69.3,248.3,72.1,248.5,72.9z"/>
					<path class="st8" d="M248.2,81.2L248.2,81.2C248.3,81.2,248.3,81.2,248.2,81.2C248.2,81.2,248.2,81.2,248.2,81.2z"/>
					<path class="st8" d="M248.2,81.2C248.2,81.2,248.2,81.2,248.2,81.2c-0.1,0.2-0.3,0.3-0.5,0.4c0-0.2,0-0.3,0-0.5
						c0.1,0,0.2-0.1,0.2-0.1h0L248.2,81.2z"/>
					<path class="st8" d="M248.2,80.9c0,0.1,0,0.2,0,0.3l-0.3-0.3H248.2z"/>
					<path class="st4" d="M248.2,40.4l-0.1,0.1C248.1,40.5,248.2,40.5,248.2,40.4z"/>
					<path class="st8" d="M248.3,73.9c-0.1,0.5-0.1,1-0.2,1.6l0,0c0-0.1-0.4-0.9-1.1-1.7l-0.3-0.9c-0.1,0-0.2,0.1-0.4,0.3
						c0,0,0,0,0,0c-0.8-0.6-1.9-1-3.2-0.7l0-0.4C245.9,71,247.5,72.6,248.3,73.9z"/>
					<path class="st4" d="M248.1,40.6L248.1,40.6C248,40.6,248,40.5,248.1,40.6z"/>
					<path class="st8" d="M247.7,80.6l0.2,0.2c0,0-0.1,0.1-0.2,0.1c0,0,0-0.1,0-0.1C247.7,80.8,247.7,80.7,247.7,80.6z"/>
					<path class="st8" d="M247.7,81c0,0.2,0,0.4,0,0.5c-0.4,0.2-1,0.3-1.7,0.3c-1,0-2.1-0.3-3.4-1.1c-2.7-1.8-3.4-5.5-2.8-8.4
						c0,0,0.1,0.1,0.1,0.1c0.1,0.1,0.2,0.2,0.3,0.3c-0.4,2.7,0.2,6,2.7,7.6C245.3,81.9,247.1,81.4,247.7,81z"/>
					<path class="st8" d="M246.7,72.9l0.3,0.9c-0.2-0.2-0.5-0.5-0.7-0.7C246.4,73,246.6,72.9,246.7,72.9z"/>
					<path class="st8" d="M247.9,70.5c-0.5-0.5-1-1-1.6-1.5C247,69.5,247.5,70,247.9,70.5z"/>
					<path class="st8" d="M246.2,73.2c0.3,0.2,0.5,0.4,0.7,0.7c0,0-2.7,1.2-1.7,3.7l-0.2,0.1c-0.5-1.5-0.3-2.6,0.1-3.2
						C245.4,73.8,245.8,73.4,246.2,73.2C246.2,73.2,246.2,73.1,246.2,73.2z"/>
					<path class="st8" d="M245.7,68.6c0.2,0.1,0.3,0.2,0.5,0.4c-0.6-0.3-1.2-0.6-2-0.7c-0.2,0-0.3,0-0.5,0
						C244.3,68.1,244.9,68.1,245.7,68.6z"/>
					<path class="st8" d="M240.7,71.8L240.7,71.8L240.7,71.8C240.7,71.8,240.7,71.8,240.7,71.8C240.7,71.8,240.7,71.8,240.7,71.8z"
						/>
					<path class="st8" d="M240.7,71.9L240.7,71.9C240.7,71.9,240.7,71.9,240.7,71.9L240.7,71.9z"/>
					<path class="st8" d="M240.7,71.9l-0.2,1.1c-0.1-0.1-0.2-0.2-0.3-0.2c0-0.2,0-0.4,0.1-0.6c0-0.1,0-0.2,0.1-0.4c0,0,0,0,0,0
						c0,0,0,0,0.1-0.1C240.6,71.7,240.6,71.8,240.7,71.9C240.7,71.8,240.7,71.8,240.7,71.9C240.7,71.9,240.7,71.9,240.7,71.9z"/>
					<path class="st8" d="M243.4,68.3c-1.5,0.6-2.5,2.9-2.9,3.4c0,0,0,0-0.1,0C241,69.8,242.1,68.5,243.4,68.3z"/>
					<path class="st8" d="M240.5,71.6C240.5,71.6,240.5,71.7,240.5,71.6c0,0.1,0,0.1,0,0.1C240.5,71.7,240.5,71.7,240.5,71.6z"/>
					<path class="st8" d="M240.1,71.2c0.1,0.1,0.2,0.2,0.4,0.4c0,0,0,0.1,0,0.1c0,0,0,0,0,0c-0.1-0.1-0.3-0.2-0.4-0.3
						C240.1,71.4,240.1,71.3,240.1,71.2z"/>
					<path class="st8" d="M240.4,71.8c0,0.1-0.1,0.2-0.1,0.4c-0.1-0.1-0.3-0.2-0.4-0.4c0,0,0,0,0,0c0-0.1,0-0.2,0.1-0.3
						C240.2,71.6,240.3,71.7,240.4,71.8z"/>
					<path class="st8" d="M240.3,72.2c0,0.2-0.1,0.4-0.1,0.6c-0.1-0.1-0.2-0.2-0.3-0.3c0,0-0.1-0.1-0.1-0.1c0-0.1,0-0.2,0-0.3
						c0-0.1,0-0.2,0.1-0.2C240.1,71.9,240.2,72.1,240.3,72.2z"/>
					<path class="st4" d="M240.1,71.2c0,0.1,0,0.1,0,0.2c-2.8-2.2-4.1-4.5-4.6-6.6C236.3,67,237.8,69.1,240.1,71.2z"/>
				</g>
				<g>
					<path class="st18" d="M308.7,19c-0.1,0.1-0.1,0.1-0.2,0.2c0,0,0,0.1,0,0.3c0,0,0,0.1,0,0.1c0,0.4,0.1,1.2,0.1,2.3
						c0,0,0,0.1,0,0.2c0,2.9-0.9,7.6-5.2,12.3c-1.3,1.4-2.8,2.8-4.8,4.2c-3.1,1.4-5.6,2.4-7.8,3.1c-5.6,1.9-8.7,1.5-12.4-0.8
						c0,0,0,0-0.1-0.1c0,0,0,0,0,0c0.2,0.3,3.9,5.6,14,4.7c0.1,0,0.2,0,0.2,0c2-0.2,3.9-0.8,5.8-1.7c8.2-3.9,14.7-13.7,13.8-21.7
						c-0.3-2-0.8-3.1-1.3-3.5c0,0,0,0,0,0c-0.7-0.6-1.5-0.2-2.1,0.3C308.8,19,308.7,19,308.7,19z"/>
				</g>
				<path class="st19" d="M296.5,121.7c0.2-0.5,1.3-7.2,3.8-6.7c2.5,0.6,5.6,5.9,4.9,15.6l-0.1,1.2l1.4,0.9c0,0,3.9-4.8,3.4-12.4
					c-0.9-6.3-4.5-10.6-4.5-10.6s-5.8,2.9-8.8,3.4L296.5,121.7z"/>
				<path class="st19" d="M271.5,112.4c0,0-2.9,4.2-1,9c1.2,3.3,1.4,3.3,1.6,3c0.2-0.3,1.1-1.7,1.3-2.1c0.2-0.4,0.6-9.1,0.6-9.1"/>
			</g>
		</g>
		<path class="st20" d="M262,123.7c-1,0.4-0.9,2.2-1.1,3.1c-0.3,1.4-0.6,3-0.4,4.5c0.1,0.8,0.4,2.8,1.4,3.1c1.1,0.3,3.1-1.5,4.1-1.9
			c1.9-0.8,4.1-1.4,6.1-1.2c1.5,0.1,4,1.8,3.9-0.7c0-1.5-2.2-2.9-3.3-3.8c-1.6-1.3-3.6-1.6-5.6-1.1c-1.1,0.3-2.1,0.8-3,1.5
			c-0.6,0.4-1.3,1.2-2,1.4c-0.6-2,0.7-4,0.4-5.9c-0.5,0.1-0.9,0.6-1,1"/>
		<path class="st20" d="M286.3,131.9c1.1,0.6,2.9,0.1,4.1,0.1c2.1-0.1,4.4-0.2,6.4,0.1c3.5,0.5,6.1,2.5,8.9,4.4c1.4,1,3.2,3.3,5.1,3
			c1.2-0.2,1.9-1.8,2.6-2.7c0.7-0.9,1.5-1.8,1.9-2.9c0.4-1.1,0.2-2.4,0.2-3.5c0-0.7-0.1-3.2,0.7-3.4c1-0.2,2.5,2.6,3,3.2
			c2.1,2.9,3.5,6.2,4.5,9.6c1.2,3.8,1.6,8,2.1,11.9c0.6,5.1,1,10.3,0.5,15.4c-0.2,1.8-0.3,3.6-0.4,5.4c-0.1,0.9,0,2-0.6,2.8
			c3.2-0.6,6.5-2.1,9.6-3c-0.3-1.1-0.1-2.3-0.2-3.5c-0.1-1.2-0.5-2.5-0.5-3.7c-0.1-2.5,0.2-5.2-0.7-7.6c-0.7-2-1-4.3-1.1-6.4
			c-0.2-1.8,0-3.5-0.3-5.3c-0.1-0.9-0.5-1.7-0.6-2.6c-0.3-2.1-1.2-3.9-1.9-5.8c-0.7-1.9-1.3-3.7-2.4-5.4c-1.1-1.6-2.4-3.3-4.1-4.3
			c-1.4-0.8-2.8-1.6-4.1-2.6c-1.6-1.1-3.1-2.4-4.8-3.5c-1.7-1.1-4.2-3.1-5.6-4.6c0.6,4.4,2.4,8.6-2.4,16.1c-2.4-3.4-5.4-5.4-9.7-5.4
			c-1.8,0-3.6,0.2-5.2,1.2c-1.6,1-3,1.2-4.6,1.7c-0.3,0.1-1.3,0.5-1.6,0.5c0.2,0.6,1.6,1.1,2,0.6"/>
		<path class="st20" d="M261.9,179.5c-0.9-2.6-1.5-5.2-1.9-7.9c-0.2-1.4,0.3-5.1-1.2-5.8c-0.3,1.9,0.2,4.1,0.2,6.1
			c0,2.3,0.6,4.8,0.6,7.1c0,1.6,0.3,3.5,0.6,5c0.2,1.2-0.3,2.3,0,3.5c0.3,1.3,0.2,2.5,0.2,3.9c0,2.6-0.2,4.4-1.2,6.8
			c-0.9,2.1-2.7,4.6-1.7,7c0.2,0.5,0.4,0.6,0.5,1.2c0.1,0.6,0.1,1.2,0.2,1.8c0.6,2.1,0.7,3.9,0.8,6c1.3,0,2.1,0.8,3.4,1
			c1.8,0.4,3.9,0.6,5.6,1.4c-0.6-0.7-0.4-2-0.1-2.8c0.9-2.1,4.2-2.8,6.2-3.1c3.1-0.4,6.5,0,9.6-0.1c1.1,0,2.9,0.2,3.9-0.3
			c-0.7-0.4-2.1-0.2-3-0.2c-1.8,0-3.6,0-5.4-0.1c-2.7-0.2-5.5-0.7-8.2-1.2c-2.6-0.5-14.1-1-10.3-6.3c2.4-3.4,7.7-2.1,11.1-1.5
			c2.5,0.5,5.3,0.5,7.8,0.5c2.2,0,4.6-0.1,6.7-0.5c-3.1-0.2-5.8-0.5-8.6-1.9c-3.9-1.9-7-5.1-9.4-8.7
			C266,186.9,263.3,183.5,261.9,179.5z"/>
		<path class="st9" d="M246.5,177.5c-0.6,1.1-1.4,3.1-1.3,4.4c2.9,0.2,4.9,1.7,7.1,3.5c2.1,1.8,2.8,4.1,2.9,6.9
			c0.1,3.1-0.1,6.2-0.7,9.2c-0.8,3.9-2.6,7.4-3.8,11.2c-0.6,1.9-1.8,3.5-2.6,5.3c-0.8,1.7-1.7,3.3-2.6,4.9c-1.4,2.3-2.5,4.9-3.6,7.3
			c-0.5,1.1-0.6,1.2,0,2.2c0.7,1.3,1.2,2.8,1.4,4.3c0.2,2-0.3,3.8-0.5,5.7c-0.2,1.7,0.4,3.5,2,4.4c2.1,1.2,2.3-1.6,2.1-3
			c-0.2-2-0.8-3.8-0.7-5.8c0.1-1.2,0.2-1.9-0.4-3c-0.6-1-1.4-1.9-1.6-3.2c-0.6-2.9,2.3-6.5,3.8-8.8c1.9-3.1,3.7-6.4,5.6-9.5
			c0.7-1.1,1.3-2.1,1.7-3.3c0.3-0.9,1.1-1.2,1.4-2.1c0.5-1.7,0.2-3.8,0.6-5.6c0.5-2.1,1.4-4.1,2.1-6.1c0.7-1.9,1.5-3.7,1.3-5.7
			c-0.2-2.2-0.4-4.2-0.5-6.5c-0.1-1.8-0.2-4.3-0.6-6.1c-2.1-0.2-5.6,0.5-7.7,0.6c-2,0.1-3.9,0.2-5.6-0.7c-0.3,0.7-1.7,3.8-0.7,4.1"
			/>
		<path class="st9" d="M311.3,184.9c-0.1,1.9-1.4,3.6-1.8,5.4c2.5-0.6,5.6,0.7,7.5,2.3c2,1.7,2.8,4.1,3,6.6c0.3,3.3-0.7,6.8-1.8,9.9
			c-1.1,3.1-2.8,6.7-4.7,9.4c-1.2,1.6-2.3,3.1-3.8,4.4c-1.9,1.6-3.8,3-5.5,4.8c-2.5,2.7-4.9,5.3-7.2,8.1c-0.6,0.7-1.5,1.6-1.7,2.5
			c-0.1,0.8,0.3,1.7,0.2,2.6c-0.2,1.4-1.1,2.4-2,3.5c-1.1,1.4-2.2,2.8-3.5,4c-1.7,1.5-3,3.4-4.7,4.8c-1.1,0.9-2.3,1.5-3.8,1.6
			c-1.3,0.1-1,0.2-1.9,1.1c-0.8,0.8-1.9,0.5-2.8,0.7c-0.4,0.1-0.6,0.4-1.1,0.5c-0.7,0.1-1.2-0.3-1.8-0.3c-0.5,0-0.5-0.2-0.6,0.5
			c-0.1,0.4,0.1,1.9,0.3,2.2c0.6,0.6,2-0.1,2.8-0.2c0.6-0.1,0.9,0.8,1.3,0.9c0.5,0.1,0.6-0.1,1.2-0.1c1.5,0.1,2.2-1.4,2.7-2.6
			c-0.4,2.7,1.9,2.8,3.1,1.7c0.9-0.8,1.9-2.8,2.4-3.9c0.6-1.1,1.5-2,2.3-3c1.6-1.9,3.9-3,5.5-4.8c2-2.2,2.7-4.9,4-7.5
			c0.6-1.2,1.7-1.9,2.7-2.7c1.8-1.5,3.6-3.2,5.3-4.8c3.1-3,6.3-6.1,9.1-9.3c2.1-2.3,3.4-4.9,4.7-7.7c1.3-2.8,3.2-5.2,4.2-8.2
			c1.4-4.1,2.3-8,3-12.2c0.5-2.9,1.2-5.8,2-8.7c-0.8-0.1-1.6,0.3-2.4,0.4c-0.9,0.1-1.8,0.1-2.7,0.3c-2.1,0.3-4.1,0.2-6.2,0
			c-1.6-0.2-2.9-0.5-4.4-0.8c-1.5-0.3-3-0.2-4.3-1.1c-0.1,0.8-0.3,4.6,0.2,4.9"/>
		<path class="st21" d="M259,215.2c-1.8,1.9-3.7,4.1-5.1,6.2c2.5-1.3,6.1-0.8,8.9-1c4.6-0.2,9.1,0.8,13.5,2
			c3.9,1.1,7.7,2.5,11.6,3.8c2.1,0.7,4.1,1.9,6.1,2.6c0.4-1.6,1.5-3.3,2.1-4.8c0.7-1.6,1.3-3.2,2-4.8c0.6-1.5,1.1-3.4,2.1-4.7
			c-1,0.4-1.8,1.2-2.8,1.6c-1.5,0.6-3.1,0.9-4.6,1.2c-4,0.6-7.8,0.2-11.8,0.3c-2.9,0-6.3-0.1-9.2-0.4c-2.9-0.3-5.9-0.3-8.8-1
			c-1.1-0.3-2.1-0.8-3.1-1.1c-1.2-0.4-1.4-0.2-2,0.8c-1,1.8-2.1,3.8-3.7,5.2c0.2,0,0.3,0,0.5,0"/>
		<path class="st21" d="M311.6,228.6c-2,1.1-3.1,4.4-4.8,6c-1,1-2.3,1.8-3.3,2.9c-0.9,1-1.8,1.9-2.6,2.9c-0.5,0.7-1.4,1.1-1.7,1.8
			c-0.6,1.2-0.8,2-1.8,3.1c-1.1,1.2-1.7,2.4-2.5,3.8c-1.4,2.8-4.7,4-6.2,6.6c-1,1.8-2.4,3.9-4.2,5.1c-1.5,1-3,1.1-4.7,1.3
			c-1.1,0.2-1.8-0.2-2.9-0.6c-1-0.4-1.4,0.1-2.5,0c-1.2-0.2-1.7-0.8-2.2-1.6c-0.7-0.9-1.2-1.6-1.5-2.9c-0.1-0.7-0.3-1.4,0.4-1.8
			c-0.1,0.7,0.3,1.1,0.9,0.9c0.1,1.2-0.4,2.5,0.7,3.5c0.8,0.7,1.8,0.3,2.6,0.4c1,0.2,1.7,0.9,2.8,0.8c1.2,0,1.8-0.9,2.6-1.5
			c2.4,1.5,3.7,0.7,5.4-1.4c1.6-2.1,3-4.2,4.9-6.1c1.7-1.7,3.4-3.4,4.7-5.5c0.8-1.4,1.4-3,2.3-4.3c0.7-1.1,1.8-1.7,2.9-2.4
			c1.5-1.1,2.9-2.4,4.3-3.7c1-0.9,2-2,3-2.9"/>
		<path class="st21" d="M266.9,239.1c-0.9,0.4-1.7,1.7-2.4,2.4c-1.3,1.3-2.6,2.6-3.9,3.9c-1.8,1.7-3.4,3.5-5.1,5.4
			c-3.1,3.7-6.1,7.7-8.3,12c-1.8,3.6-5.8,12.4,1.4,12.1c3.3-0.1,6.3-4.2,8.4-6.5c2.2-2.4,2.7-6,4.1-9c0.9-2,1.7-3.7,2.4-5.8
			c0.7-1.9,1.1-3.9,2-5.8c0.9-1.8,3-3.8,3.2-5.9c0.1-1.2-0.6-2.3-1.5-2.9c-0.4,0.4-0.7,0.9-1.1,1.3"/>
		<path class="st21" d="M222.5,253.7c-0.1-0.1,0,0.6-0.1,0.6c-0.1,2.4,0.6,3.7,3.2,3.6c2.2-0.1,3.9,0.6,5.9-0.7
			c1.7-1.1,3.2-2.9,4.6-4.4c0.8-0.9,1.4-1.9,2.6-2.3c2.4-0.8,5.2,0.4,7.4-1.5c1-0.8,2.1-2.6,2.3-3.8c0.3-1.3-0.5-2.1-0.6-3.4
			c-0.1-1.1,0.3-2.1,0.1-3.3c-0.2-0.8-0.7-1.6-1-2.3c-0.5,1.4-0.1,3.4,0,4.9c0.1,1.5,0.2,3.2-0.1,4.7c-0.3,1.5-1.9,2.5-3.3,1.2
			c-0.8-0.7-1.3-2.4-1.6-3.4c-0.2-0.8,0.2-1.7-0.6-2.2c-1.7,1.3-3,2.9-4.2,4.9c-0.8,1.4-1,2.6-1.6,4.1c-0.5,1-5.2,6-5.5,3.5
			c-0.2,1.1-1,2.2-1.9,2.7c-1.2,0.8-1.9,0.4-2.6-0.8c-1.2,0.1-2.5-1.3-2.9-2.4C222.5,253.4,222.5,253.6,222.5,253.7"/>
		<path class="st21" d="M314.5,224.4c-0.2,0.5,0,1.4,0,2c0,1.5-0.3,3.1-0.7,4.5c-0.6,2-1.3,4-2.1,5.8c-1.8,4-4.3,7.8-7.2,11.2
			c-3,3.5-5.7,7.4-8.4,11.1c-2.3,3.3-5.1,6.3-7.6,9.5c-1.7,2.2-3.7,4.1-5.3,6.3c-1.5,2.1-3.4,4.1-4.2,6.7c-0.6,1.8-1.1,4,0.3,5.7
			c1.2,1.5,3.6,0.8,5.3,0.6c3.2-0.3,6.4-0.8,9-2.9c2.6-2.1,4.9-4.7,7.4-6.9c2.6-2.3,5.4-4.4,7.7-7.1c2.1-2.4,4.3-5,6.1-7.5
			c1.5-2.1,3-4.1,4.8-6c1.7-2,3.7-3.1,5.7-4.8c0.6-0.5,1.7-1.3,2-2c0.4-1.1-0.1-2.9-0.4-3.9c-0.7-2.5-0.4-5-1.4-7.4
			c-0.5-1.4-1-2.9-1.7-4.1c-0.4-0.7-1.1-1.4-1.5-2.1c-0.5-1.2,0.1-1.3,0.7-2.2c0.5-0.7,0.8-1.7,1-2.5c0.3-1.8,0.7-3.2,0.9-5
			c0.2-1.9-0.2-3.6-0.5-5.4c-0.4-2-0.6-4.3-1.5-6.2c-0.9,1.9-2.2,3.5-3.2,5.3c-0.8,1.4-1.7,2.6-2.6,4c-1.1,1.8-2.5,3.4-3.7,5
			c-0.3,0.4-1.3,1.4-1.3,1.9c0,0.6,0.7,1.4,0.7,2.1"/>
		<path class="st19" d="M326.1,174.5c-0.4,0.6-0.3,2.8-0.5,3.8c-0.3,1.8-0.7,3.7-1.3,5.4c-0.4,1.2-1.1,2.4-1.7,3.4
			c2.6,0.9,6.5-0.1,9.1-0.9c1.6-0.5,3.2-1.1,4.2-2.4c2.1-2.5,0.8-8.5-0.2-11.3c-3.4,1-5.9,3.2-9.6,3.1c0.1,0,0.3,0,0.4,0"/>
		<g>
			<path class="st22" d="M261.9,129.5l0-1c-0.1-2,0-4,0.3-5.7c0.9-7.1,4.1-10.7,5.5-11.9l0.9,0.6c-1.2,1.1-4.5,4.6-5.4,11.4
				c-0.2,1.4-0.3,3-0.3,4.6c2-1.5,7.3-4.9,10.3-1.5l-0.7,0.7c-3-3.4-9.7,2.2-9.7,2.3L261.9,129.5z"/>
		</g>
		<g>
			<path class="st22" d="M282.3,131.5c-1.7,0-3.3-0.3-4.8-0.7c-0.6-0.2-1.1-0.4-1.5-0.7c-1.5-0.8-2.7-2-3.6-3.6
				c-0.4-0.6-0.7-1.2-1-2.1c-1.1-2.9-1.3-5.6-1.3-5.7l0.3-0.4c0,0,0.8,3,1.9,5.7c0.3,0.8,0.6,1.4,1,1.9c0.9,1.5,2,2.6,3.3,3.3
				c0.4,0.3,0.9,0.5,1.4,0.6c2,0.7,4.2,0.9,6.5,0.6c2.4-0.3,4.8-1,6.9-2.1v0l0.3-0.2c1.6-0.8,3-1.9,4.1-3.2c0.8-0.9,1.5-1.8,1.9-2.8
				l0.3,0.1c-0.5,1.1-0.7,2.4-1.6,3.4c-1.1,1.3-2.6,2.4-4.2,3.3L292,129c-2.3,1.3-4.9,2.1-7.5,2.4
				C283.8,131.5,283,131.5,282.3,131.5z"/>
		</g>
		<g>
			<path class="st8" d="M296.3,124.4c-0.7-3.1-0.5-9.2-0.4-11.1l-1.1,0.2c-0.1,2.5-0.2,8.5,0.7,11.5
				C295.7,124.8,296,124.6,296.3,124.4z"/>
		</g>
		<g>
			<path class="st8" d="M272.5,124.4l-0.7-0.7c1.4-1.6,1.6-8.3,1.6-10.6l1.3,0.1C274.7,114.1,274.5,122.2,272.5,124.4z"/>
		</g>
		<g>
			<path class="st22" d="M306.7,133.8l-0.5-0.6c-0.2-0.3-6-7.8-14.1-3.9l-0.4-0.9c7.5-3.7,13.2,1.7,14.9,3.6
				c2.8-5.9,2.4-11.1,1.6-14.5c-0.8-3.2-2.3-5.9-3.4-7.2l0.8-0.6c0.6,0.7,2.6,3.4,3.6,7.6c0.9,3.6,1.3,9.3-2,15.8L306.7,133.8z"/>
		</g>
		<g>
			<path class="st22" d="M280.5,151.5c-3.2,0-6.5-1.3-6.7-1.4l-0.3-0.1l0-0.3c0.1-9.1,2.1-19.8,2.1-19.9l1,0.2
				c0,0.1-1.9,10.4-2.1,19.3c1.1,0.4,4.6,1.5,7.4,1.1c0.2-2.6,1-16.6,2.1-19.3l0.9,0.4c-1.1,2.8-2.1,19.2-2.1,19.4l0,0.4l-0.4,0.1
				C281.8,151.4,281.2,151.5,280.5,151.5z"/>
		</g>
		<g>
			<path class="st23" d="M262.3,122.7l-0.3-0.3c-0.4,0.4-9.2,8.7-10.3,10.4c-0.4,0.6-1.1,3.2-2.5,8.7c-1.8,6.8-4.2,16-6.6,22.6
				c0.3,0.2,0.5,0.5,0.8,0.7c2.4-6.7,4.9-16.1,6.7-23.1c1.1-4.1,2.1-8,2.4-8.5c0.8-1.3,6.9-7.1,9.7-9.8
				C262.3,123.3,262.3,123,262.3,122.7z"/>
			<path class="st22" d="M246.5,177c-3.8-1.5-5.8-4.1-6.3-5c0.9-1.3,1.9-3.5,3-6.6c0.1-0.2,0.1-0.4,0.2-0.6
				c-0.3-0.2-0.5-0.5-0.8-0.7c-0.1,0.3-0.2,0.6-0.3,0.9c-1.2,3.3-2.2,5.5-3.1,6.6l-0.2,0.3l0.1,0.3c0.1,0.2,2,3.7,7,5.7
				c2.1,0.8,4.4,1.2,6.8,1.2c1.8,0,4.1-0.2,6.2-0.6l0.1-1.2C254.6,178.3,249.9,178.3,246.5,177z"/>
		</g>
		<g>
			<path class="st23" d="M258.1,148.2c-0.3-0.7-0.7-1.9-1.2-3c-0.8-2-1.2-2.9-1.2-3.2l0.1-0.4c0.1,0.2,1.5,1.9,2,3.2
				c0.5,1.1,0.9,2.3,1.2,3L258.1,148.2z"/>
		</g>
		<g>
			<path class="st23" d="M286,210.8c-15.3,0-26.6-4.4-28.2-5c-0.2-0.1-0.3-0.1-0.3-0.1l-0.2-0.1l-0.1-0.4c-1.2-2.7,0.4-6.2,1.7-8.9
				c0.6-1.3,1.2-2.5,1.3-3.4c0.3-1.9-0.1-6.3-0.5-10.5c-0.1-1.5-0.3-3-0.4-4.4c0-0.3-0.1-0.7-0.1-1.1c-0.1-1.6-0.3-4.9-0.5-8.4
				c-0.4-8.9-0.9-20.9-0.9-20.9l1,0c0,0,0.5,12,0.9,20.9c0.2,3.5,0.4,6.7,0.5,8.3c0,0.4,0,0.7,0.1,1.1c0.1,1.4,0.3,2.9,0.4,4.5
				c0.4,4.5,0.8,8.7,0.5,10.7c-0.1,1-0.7,2.2-1.4,3.6c-1.2,2.6-2.7,5.8-1.7,8.2l0,0c0,0,0.1,0,0.1,0c2.1,0.9,21.2,8.3,44.1,3.2
				l0.2,1C296.7,210.3,291.2,210.8,286,210.8z"/>
		</g>
		<g>
			<path class="st23" d="M284.1,217.9c-3.5,0-7.3-0.2-11.3-0.6c-8.2-0.8-14.4-2.2-14.5-2.2l-0.4-0.1l-0.3-10.5l1,0l0.3,9.8
				c1.5,0.3,7,1.4,14,2.1c10.7,1,20.2,0.5,26.8-1.2l-0.5,1.2C295,217.4,289.9,217.9,284.1,217.9z"/>
		</g>
		<g>
			<path class="st23" d="M333.3,153.7c-0.5-5.2-2.2-17.8-5.8-22.5c-3.4-4.3-18-13.9-18.6-14.3l0.3,1c0.2,0.1,14.3,9.7,17.6,13.9
				c3.4,4.4,5,16.8,5.6,22c0.3,2.7,1.2,8.7,2.7,18.3l0,0.1c0.3-0.1,0.6-0.3,0.9-0.4C334.5,162.3,333.6,156.4,333.3,153.7z"/>
			<path class="st23" d="M311.3,173.9c0.2-2.5,0.3-3.8,0.3-4.4c0-0.7-0.1-3-0.1-5.8c-0.1-4.9-0.3-11.7-0.2-13.1
				c0.1-2.2,1.4-5.6,1.4-5.6l-0.9-0.4c-0.1,0.1-1.4,3.6-1.5,5.9c-0.1,1.5,0.1,8,0.2,13.2c0.1,2.8,0.1,5,0.1,5.8c0,0.6-0.2,2.5-0.3,4
				c0.3,0.2,0.6,0.4,0.9,0.6C311.3,174.1,311.3,174,311.3,173.9z"/>
			<path class="st22" d="M336.6,175.5L336,172c0-0.1,0-0.1,0-0.1c-0.3,0.1-0.6,0.3-0.9,0.4l0.5,3.5c0.5,3.5,1,6.5,1.1,7.1
				c-0.4,0.4-2.7,2.2-6.6,3.4c-4,1.1-10.6,1.8-19.1-1.7c-0.2-0.1-0.5-0.2-0.8-0.3c0.2-1.3,0.7-6.2,1.1-9.9c-0.3-0.2-0.6-0.4-0.9-0.6
				c0,0.1,0,0.2,0,0.3c-0.4,4.4-1.1,10.5-1.1,10.5l0,0.4l0.5,0.2c0.3,0.1,0.6,0.3,0.9,0.4c4.9,2,9.1,2.7,12.7,2.7
				c2.8,0,5.1-0.4,7-0.9c4.5-1.3,7.2-3.5,7.3-4C337.7,182.8,337.6,182.3,336.6,175.5z"/>
		</g>
		<g>
			<path class="st22" d="M253.7,169.4c-4.4,0-8-1.2-10.7-3.5c-0.1-0.1-0.2-0.1-0.2-0.2l0.2-0.3v-0.6c0.2,0,0.4,0.1,0.6,0.4
				c3.5,2.9,8.8,3.9,15.2,2.8l-0.2,1C256.9,169.3,255.2,169.4,253.7,169.4z"/>
		</g>
		<g>
			<path class="st22" d="M320.4,176c-5.8,0-9.3-1.6-9.6-1.7l0.4-0.9c0.1,0,10.2,4.5,24-1.8c0.2-0.1,0.4-0.2,0.6-0.3l-0.1,1
				c-0.2,0.1,0.1,0-0.1,0.1C329.8,175.2,324.5,176,320.4,176z"/>
		</g>
		<g>
			<path class="st8" d="M222.1,251.3c-4-6.3,1.1-12.3,1.6-13c0.7-0.8,4.4-3.9,6.8-6c0.9-0.8,1.7-1.5,1.8-1.6
				c0.3-0.4,2.8-6.2,4.2-14.4c0.6-3.6,2.4-11.5,7.3-28.6l0.2-0.6c0.3-1.2,0.7-3.7,1-5.8c0.4-2.6,0.5-3.5,0.7-3.8l0.8,0.5l-0.4-0.2
				l0.4,0.2c-0.1,0.3-0.4,2-0.6,3.5c-0.3,2.2-0.6,4.7-1,5.9l-0.2,0.6c-4.8,17-6.6,24.9-7.2,28.5c-1.5,8.4-4,14.4-4.5,14.9
				c-0.1,0.1-0.7,0.6-1.9,1.6c-2.3,1.9-6.1,5.2-6.7,5.9c-0.5,0.6-5.1,6.1-1.5,11.8L222.1,251.3z"/>
		</g>
		<g>
			<path class="st8" d="M225.8,256.4c-1.5-0.2-3.1-1.5-3.4-3.3c0-0.2,0-0.2,0-0.3c0-0.3,0-1.3,0-1.8c0.1-2.1,0.4-4.9,1-6.1
				c0.8-1.6,5.1-6.9,5.2-7.1l0.1,0.8c0,0.1-3.6,5.2-4.4,6.8c-0.5,1-0.8,3.6-0.9,5.7c0,1,0,1.6,0,1.7c0,0.1,0,0.2,0,0.2
				c0.2,1.3,0.9,2.1,2,2.3L225.8,256.4z"/>
		</g>
		<g>
			<path class="st8" d="M227.2,257.2c-0.4,0-0.7-0.1-1-0.3c-0.3-0.2-0.6-0.5-0.7-1c-0.8-2.2,0.1-7.5,0.6-8.5
				c0.5-1.1,4.7-6.6,4.9-6.9l0,0.6c0,0.1-3.5,5.6-4,6.7c-0.4,0.8-1.3,5.9-0.6,7.7c0.1,0.2,0.2,0.4,0.3,0.5c0.3,0.2,0.7,0.2,1.1,0
				c0.9-0.4,1.7-1.5,1.9-2.3l1-0.2c0,0.2,0,0.3-0.1,0.5c-0.2,0.9-1.2,2.3-2.4,2.9C227.8,257.2,227.5,257.2,227.2,257.2z"/>
		</g>
		<g>
			<path class="st8" d="M231.1,255.1c-0.2,0-0.5,0-0.7-0.1c-0.4-0.2-0.6-0.5-0.7-0.8c-0.5-1.2-0.1-3.2,0.3-5
				c0.1-0.2,0.1-0.4,0.1-0.6c0.2-1.2,3-6.1,3.3-6.6l0.2,0.6c-0.6,1.4-2.3,5.3-2.5,6.2c0,0.2-0.1,0.4-0.1,0.6
				c-0.3,1.1-0.8,3.5-0.4,4.4c0.1,0.2,0.2,0.3,0.2,0.3c0.2,0.1,0.4,0.1,0.7,0c1.2-0.5,2.7-2.4,3.5-4.5c1.2-2.9,3.8-5.9,3.9-6
				l1.8-1.8l0.7,0.7l-1.8,1.8c0,0-2.6,2.9-3.7,5.7c-1,2.4-2.6,4.5-4.1,5C231.6,255,231.3,255.1,231.1,255.1z"/>
		</g>
		<g>
			<path class="st8" d="M245.3,248c-1.2,0-2.8-0.8-3.6-2.5c-0.7-1.4-1.3-2.6-1.1-3.4c0.1-0.4,0.1-0.4,0.1-0.4l0.8-0.3
				c0,0,0,0.2,0,0.6c0.1,0.7,0.4,1.8,1,3.1c0.7,1.5,2.2,2.2,3.2,1.9c0.6-0.2,0.7-0.8,0.7-1.3c-0.2-1.6-0.3-3.6-0.3-5.5
				c-0.1-1.4-0.1-2.7-0.2-3.4c-0.2-1.3-1.9-4-2.5-4.9l-0.2-0.3l0.2-0.3c0.3-0.5,0.8-1.3,1.4-2.4c2.1-3.9,6.1-11.6,11.6-22.2
				c0.1-0.3,0.3-0.5,0.4-0.8l0.6-1.2c0.2-0.4,0.3-0.7,0.3-0.7l0.9,0.5c0,0-0.1,0.2-0.3,0.6l-0.6,1.2c-0.1,0.2-0.3,0.5-0.4,0.7
				c-5.4,10.6-9.4,18.4-11.6,22.3c-0.5,0.9-0.9,1.6-1.2,2.2c0.6,0.9,2.3,3.6,2.5,5.1c0.1,0.8,0.1,2,0.2,3.5c0.1,1.8,0.1,3.9,0.3,5.4
				c0.1,1.2-0.4,2.1-1.3,2.4C245.8,248,245.6,248,245.3,248z"/>
		</g>
		<g>
			<path class="st8" d="M271.6,256.3c-0.5,0-1-0.2-1.6-0.8c-1.3-1.4-1-6.9-0.4-8.4c0.1-0.4,0.3-0.8,0.5-1.1c0.5-1.1,1.2-2,2-3.1
				c1-1.1,3.1-2.2,5.3-3.4c0.7-0.3,1.3-0.7,2-1c2.6-1.4,11.7-6.2,12.8-6.8c0.2-0.4,1-1.6,1.6-3c0.4-1,2.3-5.3,4-9.5l1.4-3.3
				c0.4-1,0.8-1.9,1.1-2.7l0.8-2c0.3-0.7,0.7-1.6,1.1-2.7c0.6-1.4,1.3-3.1,2-4.7c1.9-4.5,4.4-10.2,4.5-10.8c0.2-1.2,1.5-8.1,1.5-8.1
				l1,0.2c0,0-1.3,6.9-1.5,8.1c-0.1,0.7-1.9,4.8-4.6,11.1c-0.7,1.7-1.4,3.3-2,4.7c-0.5,1-0.8,2-1.1,2.6l-0.8,2
				c-0.3,0.8-0.7,1.7-1.1,2.7l-1.4,3.3c-1.8,4.2-3.6,8.5-4.1,9.5c-0.7,1.7-1.7,3.2-1.7,3.3l-0.1,0.1l-0.1,0.1c0,0-10.2,5.4-12.9,6.8
				c-0.6,0.3-1.3,0.7-2,1c-2.1,1.1-4.2,2.1-5,3.1c-0.8,1-1.5,1.9-1.9,2.9c-0.2,0.3-0.3,0.7-0.4,1c-0.6,1.5-0.6,6.5,0.2,7.4
				c0.7,0.8,1.5,0.2,1.6,0.2l0.6,0.8C272.6,256,272.1,256.3,271.6,256.3z"/>
		</g>
		<g>
			<path d="M276.4,259.1l-0.9-0.5c0.1-0.2,0.2-0.4,0.3-0.6l0.9,0.4C276.6,258.7,276.5,258.9,276.4,259.1z"/>
		</g>
		<g>
			<path class="st8" d="M274.4,260.8c-0.6,0-1.2-0.4-1.9-1.2c-0.7-0.9-0.6-2.8-0.4-4.2c0.1-1,0.3-2,0.5-2.5c0.3-1.1,1.2-3.7,1.7-4.8
				c0.5-1,2.9-3.5,3-3.6l0.2,0.5c0,0-1.8,2.7-2.3,3.6c-0.5,0.9-1.3,3.5-1.6,4.6c-0.2,0.5-0.4,1.5-0.5,2.4c-0.3,1.7-0.2,3,0.2,3.5
				c0.4,0.6,0.9,0.9,1.1,0.9c0.3,0,0.7-0.4,1.1-1.1l0.9,0.5c-0.6,1-1.2,1.6-1.9,1.6C274.5,260.8,274.4,260.8,274.4,260.8z"/>
		</g>
		<g>
			<path class="st8" d="M278,261.1c-0.6,0-1.1-0.1-1.5-0.4c-0.7-0.5-1-1.1-1-1.8c0-0.4,0.1-0.9,0.2-1.3c0.1-0.3,0.1-0.6,0.2-0.9
				c0.2-1.5,0.6-2.8,1.4-4.7c0.8-1.9,2.8-5.4,3-5.8l0.8,0c-0.2,0.3-2.2,4.3-2.9,6.1c-0.7,1.8-1.2,3-1.3,4.5c-0.1,0.4-0.1,0.7-0.2,1
				c-0.1,0.4-0.2,0.8-0.2,1.1c0,0.4,0.1,0.7,0.6,1c0.4,0.3,1.1,0.3,1.8,0.1c1-0.4,1.8-1.2,2.1-2.3c0.1-0.1,0.1-0.2,0.1-0.3l1,0.2
				c0,0.1-0.1,0.3-0.1,0.4c-0.3,1.3-1.4,2.4-2.7,2.8C278.8,261.1,278.4,261.1,278,261.1z"/>
		</g>
		<g>
			<path class="st8" d="M283,261.1c-0.1,0-0.1,0-0.2,0c-0.7-0.1-1.2-0.6-1.6-1.4c-0.2-0.5-0.3-1.1-0.2-1.8c0.1-1.7,0.9-3.8,1.3-5.1
				l0.1-0.2c0.7-1.8,3.8-4.6,3.9-4.7l0.6-0.1c-0.9,0.8-3.1,3.8-3.6,5.1l-0.1,0.2c-0.5,1.2-1.2,3.2-1.3,4.8c0,0.6,0,1,0.2,1.4
				c0.2,0.4,0.4,0.8,0.8,0.9c0.5,0.1,1.1-0.4,1.9-1.3c1.4-1.7,2.1-3.8,2.1-3.8c0.3-0.8,1.2-1.5,2-2.1c0.2-0.2,0.5-0.3,0.6-0.5
				l0.3-0.3c3.2-2.7,6.8-5.9,7.8-9.9l0.3-1.4c0.2-0.7,1.3-1.6,2.6-2.6c0.3-0.3,0.6-0.5,0.8-0.6l4.2-3.8c3.5-3.2,6.5-6.4,9.1-9.9
				c1.1-1.4,2.2-2.9,3.1-4.5c1.7-2.7,3.2-5.4,4.6-8.3l0.2-0.3c1.6-3.6,2.9-7.3,4.1-10.9c0.5-1.3,0.9-2.7,1.2-4.1
				c0.5-2.1,1-4.9,1.3-6.9c0.2-1.2,0.4-2.2,0.5-2.6c0-0.1,0.1-0.3,0.2-0.4l0.7,0.7l-0.3-0.4l0.5,0.2c0,0.1,0,0.1,0,0.2
				c-0.1,0.4-0.2,1.3-0.4,2.5c-0.3,2-0.8,4.8-1.3,6.9c-0.3,1.4-0.8,2.9-1.3,4.2c-1.2,3.5-2.5,7.3-4.1,11l-0.2,0.3
				c-1.3,2.9-2.9,5.7-4.6,8.4c-1,1.5-2,3.1-3.2,4.5c-2.7,3.5-5.7,6.8-9.3,10l-4.2,3.8c-0.2,0.2-0.5,0.4-0.9,0.7
				c-0.7,0.5-2.2,1.6-2.3,2.1l-0.3,1.4c-1,4.4-4.9,7.7-8.1,10.4l-0.3,0.3c-0.2,0.2-0.4,0.3-0.7,0.5c-0.6,0.5-1.4,1.1-1.7,1.6
				c0,0.1-0.8,2.2-2.3,4.1C284.6,260.5,283.7,261.1,283,261.1z"/>
		</g>
		<g>
			<path class="st24" d="M244.5,232.4l-0.7-0.7c0.7-0.8,3.3-3.9,6.1-7.1c8.5-10,8.6-10.1,8.8-10.1l0.4,0.9l-0.2-0.5l0.3,0.4
				c-0.4,0.4-4.9,5.7-8.5,9.9C247.9,228.5,245.3,231.5,244.5,232.4z"/>
		</g>
		<g>
			<path class="st24" d="M236.9,279.1c-4.1,0-12.3-5.8-14.1-8.4c-1.7-2.4-1.7-3.7-1.8-6.5l0-0.7c-0.1-3.2,1.1-10.2,1.5-10.7l0.8,0.6
				l-0.4-0.3l0.4,0.2c-0.2,0.5-1.4,6.9-1.3,10.2l0,0.7c0.1,2.8,0.1,3.8,1.6,6c1.6,2.4,9.6,8,13.3,8c4.1,0,16.8-4.7,21.1-11l0.8,0.6
				C254.1,274.6,241,279.1,236.9,279.1z"/>
		</g>
		<g>
			<path class="st24" d="M275.3,289.3c-0.8,0-1.7,0-2.4-0.1c-8-0.8-13.2-6.3-14.8-11.4c-1-3.2-0.4-8,0.1-10.5
				c0.4-2.4,1.1-4.8,1.8-6.7c1.2-3,4.8-10.6,6.9-14.9c1.2-2.5,2.1-4.2,2.1-4.2l0.9,0.4c0,0-0.9,1.7-2.1,4.2
				c-2.1,4.3-5.7,11.9-6.9,14.8c-0.7,1.8-1.3,4.2-1.7,6.5c-0.8,4.2-0.8,7.8-0.1,10c1.1,3.6,5.4,9.8,14,10.7c2.6,0.3,5.9,0,9.7-0.7
				c6.9-1.3,12.5-3.6,13.7-5.1c1.2-1.4,3.3-3,5.3-4.6c1.9-1.4,3.6-2.8,4.6-3.9c2-2.4,8.9-11.6,11.2-15.1c1.8-2.7,4.9-5.1,7-6.7
				c0.6-0.5,1.1-0.9,1.4-1.2l1.1-1c0-0.4-0.1-1.4-0.3-2.6c-0.6-3.8-1.3-6.9-2.1-9.4c-0.3-0.9-0.6-1.7-0.9-2.5
				c-0.5-1.1-1-2.1-1.6-2.9l0.7-0.8c0.6,0.9,1.3,2.1,1.8,3.3c0.4,0.8,0.7,1.7,1,2.6c0.9,2.6,1.6,5.7,2.2,9.6
				c0.2,1.8,0.3,2.9,0.3,2.9l0,0.2l-1.4,1.3c-0.3,0.3-0.8,0.7-1.5,1.2c-2,1.6-5,3.9-6.7,6.5c-2.4,3.6-9.2,12.8-11.3,15.2
				c-1,1.2-2.8,2.6-4.7,4.1c-2,1.5-4,3.1-5.2,4.5c-1.6,1.8-7.8,4.2-14.3,5.4C280.1,289.1,277.6,289.3,275.3,289.3z"/>
		</g>
		<g>
			<path class="st24" d="M287.5,279.7l-0.5-0.8l0.2-0.1c0.5-0.3,1.9-1.1,3.2-2.3c0.6-0.5,1.1-1.1,1.7-1.6c0.8-0.8,1.5-1.5,2.2-1.9
				c0.8-0.4,1.6-0.2,2.4-0.1c0.4,0.1,1,0.2,1.1,0.1c0.2-0.2,0.4-1.3,0.2-5.8c0-0.3,0-0.5,0-0.6c0-0.9,0.5-2,1.8-3.8
				c1.4-2,16.4-20.7,17.1-21.5l0,0c0,0,2.7-4.4,4.8-9.2l0.4-0.8c0.9-2,1.4-3.8,1.8-5.3c1.4-6.3-0.8-13.5-1.2-14.1l0.3-0.2l0.2-0.6
				c0.9,0.3,3,8.7,1.6,15.1c-0.3,1.6-0.9,3.4-1.8,5.5l-0.4,0.8c-2.1,4.9-4.9,9.3-4.9,9.4c-0.2,0.2-15.7,19.5-17,21.5
				c-1.1,1.6-1.6,2.6-1.6,3.3c0,0.1,0,0.3,0,0.6c0.1,4.1,0,5.9-0.5,6.5c-0.5,0.6-1.3,0.4-2,0.2c-0.6-0.1-1.2-0.3-1.7,0
				c-0.6,0.3-1.2,1-2,1.7c-0.5,0.5-1.1,1.1-1.7,1.7c-1.4,1.2-3.9,1.3-4.4,1.7L287.5,279.7z"/>
		</g>
		<g>
			<path class="st24" d="M264.1,230l-0.1-0.5c2-4.2,8.1-12.3,8.4-12.6l0.8,0.6C273.1,217.6,266.1,225.9,264.1,230z"/>
		</g>
		<g>
			<path class="st24" d="M271,238.8l-0.7,0.1c1.7-6.6,11.9-20.6,12.3-21.1l1.1,0C283.6,217.9,272.7,232.4,271,238.8z"/>
		</g>
		<g>
			<path class="st24" d="M270.1,241.4l-2.1-1.2c-0.3-0.1-6.3-3.7-8.4-7l0.8-0.5c1.2,2,4.1,4.1,6.1,5.4c-1.2-1.9-2.9-5-3.4-8.1
				c-0.2-1.1-0.3-2.2-0.2-3.2l1,0.1c-0.1,0.9,0,1.9,0.2,2.9c0.9,4.8,4.6,9.6,4.6,9.7L270.1,241.4z"/>
		</g>
		<g>
			<path class="st24" d="M252.6,263.5l-0.7-0.7c4.6-4.5,14.1-18.5,14.4-19.1l0,0.5C265.4,245.8,257.2,259,252.6,263.5z"/>
		</g>
		<g>
			<path class="st25" d="M329.9,237.8c-0.6-3.9-3.2-6.7-6.8-6.8l-0.4,0.9c3.1,0.1,5.8,2.6,6.3,6c0.4,2.4-0.1,6-1.5,8.4
				c0.1,0.2,0.1,0.4,0.1,0.6c0,0,0,0,0,0.1c0,0,0,0.1,0,0.1c0,0,0,0.1,0,0.1c0,0.1,0,0.2,0,0.2l0.2,0.1
				C329.7,245.1,330.4,240.7,329.9,237.8z"/>
		</g>
		<g>
			<path class="st24" d="M286,283c-0.6,0-1-0.2-1.2-0.3c-0.4-0.3-0.6-0.7-0.6-1.1c0-0.3-0.6-1.5-1.2-2.4l-0.2-0.4l1.5-1.3
				c0.8-0.7,1.1-1,1.1-1.6c0-0.5-0.2-1.2-0.3-2c-0.2-0.9-0.3-1.7-0.3-2.2c0-0.8,0.7-1.7,1.5-3c0.3-0.4,0.6-0.9,1-1.4
				c0.5-0.8,1.1-1.5,1.7-2.2c0.8-0.9,1.5-1.8,1.9-2.6c0.8-1.5,4.1-5.9,6.8-8.3c2.5-2.1,5.4-6.2,6-7.7c0.3-0.8,1.6-2.3,3.4-4.4
				c2.3-2.7,5.3-6.4,7.6-10.1c3.9-6.1,3.7-11.5,3.7-11.6l0.7-1c0,0.3,0.2,6.5-3.9,12.9c-2.3,3.7-5.2,7.4-7.5,10.2
				c-1.6,1.9-2.9,3.6-3.2,4.3c-0.7,1.7-3.7,5.7-6.3,8c-2.6,2.2-5.8,6.6-6.5,8c-0.4,0.9-1.3,2-2.1,3c-0.6,0.7-0.9,1.5-1.4,2.2
				c-0.3,0.5-0.9,0.9-1.2,1.4c-0.7,1-1.2,2-1.2,2.4c0,0.4-0.1,1.4,0,2.2c0.1,0.8,0.3,1.9,0.3,2.4c0.1,1.2-0.3,1.2-1.1,1.9l-1.1,0.7
				c0.4,0.8,1.4,2,1.4,2.6c0,0.1,0.1,0.2,0.2,0.3c0.1,0.1,0.7,0.4,1.9-0.1l0.5-0.2c1.7-0.7,3.2-1.3,4.1-2.3c0.4-0.4,0.7-0.9,1-1.4
				c0.5-0.9,1.1-1.7,2.1-2.3c0.5-0.3,0.9-0.5,1.4-0.7c1-0.5,2-1,2.3-1.5c0.2-0.3,0.5-1.4,0.8-2.5c0.4-1.6,1-3.7,1.6-5
				c0.7-1.4,1.7-2.5,2.7-3.6c0.6-0.6,1.2-1.3,1.8-2.1c1-1.3,2-2.5,2.8-3.4c0.5-0.5,0.8-0.9,1-1.2c0.2-0.3,0.5-0.6,0.9-1
				c0.5-0.4,1-0.9,1.5-1.7c0.3-0.5,0.6-0.9,0.8-1.2c0.3-0.5,0.6-0.8,1-1.7c0.4-0.8,0.8-1.3,1.2-1.7c0.3-0.4,0.6-0.8,0.9-1.4
				c0.2-0.4,0.4-0.7,0.5-1.1c0.4-0.8,0.8-1.7,1.4-2.6c0.8-1.2,1.7-2.7,2.5-3.5c0.7-0.7,2.5-2.8,3.4-5.4l0.9,0.4
				c-1,2.9-3,5.1-3.6,5.7c-0.7,0.7-1.6,2.2-2.3,3.3c-0.5,0.8-0.9,1.7-1.3,2.5c-0.2,0.4-0.3,0.7-0.5,1.1c-0.3,0.6-0.7,1.1-1,1.5
				c-0.4,0.4-0.7,0.9-1.1,1.6c-0.5,0.9-0.7,1.3-1.1,1.8c-0.2,0.3-0.4,0.6-0.8,1.1c-0.6,0.9-1.2,1.5-1.7,1.9
				c-0.3,0.3-0.6,0.5-0.8,0.8c-0.2,0.3-0.6,0.7-1.1,1.3c-0.8,0.9-1.8,2-2.8,3.3c-0.6,0.8-1.2,1.5-1.8,2.2c-0.9,1.1-1.8,2.1-2.5,3.4
				c-0.6,1.2-1.1,3.2-1.5,4.8c-0.4,1.5-0.6,2.4-0.9,2.8c-0.4,0.7-1.5,1.2-2.7,1.8c-0.5,0.2-0.9,0.5-1.4,0.7c-0.8,0.5-1.2,1.2-1.7,2
				c-0.3,0.5-0.7,1.1-1.1,1.5c-1,1.1-2.7,1.8-4.5,2.5l-0.5,0.2C287,282.9,286.4,283,286,283z"/>
		</g>
		<g>
			<path class="st24" d="M282.1,285.8c-0.3,0-0.6-0.2-0.7-0.4c-0.1-0.2-0.1-0.4,0-0.6c0-0.1-0.1-0.4-0.4-1.2
				c-0.2-0.5-0.4-0.9-0.6-1.2c-0.6-1-0.8-1.6,0-3.1c1-1.7,1.9-3.7,1.3-5.1c-0.6-1.6-0.5-4.3,1.8-7.4c1-1.3,3.1-3.7,5.2-6
				c2.2-2.4,4.4-4.9,5.1-5.9c1-1.4,3.1-3.6,4.8-5.3c0.8-0.8,1.4-1.4,1.8-1.9c1.3-1.5,11.6-15.5,12.2-17.3c0.3-1,0.8-2.5,1.2-3.7
				c0.4-1.1,0.7-1,0.8-1.4l1-1c-0.1,0.4-0.4,1.6-0.8,2.8c-0.4,1.2-1,2.4-1.3,3.4c-0.6,2.2-11.2,16.4-12.2,17.5
				c-0.4,0.5-1.3,1.2-2.1,2c-1.7,1.7-3.6,4.1-4.5,5.5c-0.7,1.1-2.9,3.5-5.2,6c-2.1,2.3-4.2,4.3-5.1,5.6c-2.1,2.8-2.6,5.6-2.1,6.8
				c0.8,1.8,0.1,3.9-1,5.9c-0.6,1.1-0.5,1.4,0,2.2c0.2,0.3,0.4,0.7,0.7,1.3c0.3,0.8,0.5,1.2,0.5,1.5c0.4-0.1,0.9-0.3,1.6-0.5
				l0.6-0.2c0.5-0.2,0.9-0.3,1.4-0.4c1.2-0.3,2.1-0.6,2.9-1.4c0.6-0.6,1.5-1.1,2.3-1.7c1-0.6,2.1-1.3,2.4-1.9c0.6-1.1,2.3-1.9,4-3.1
				c0.4-0.3,0.7-0.7,1-0.9c1.9-1.5,2.7-3.9,3.1-5.5c0.4-1.9,4.1-6.6,6.7-9.9c1-1.3,3.1-3.1,4.7-4.5c1-0.8,2-1.8,2.2-2
				c0-0.5,3.6-8,5.1-9.1c1-0.8,3.5-4.7,4.3-6.1l0.5,0.3c-0.3,0.5-3.1,5.4-4.5,6.4c-1.2,0.9-4.7,8.1-4.8,8.7
				c-0.1,0.4-0.4,0.6-2.4,2.3c-1.6,1.4-3.6,3.3-4.6,4.6c-4.1,5.1-6.3,8.4-6.6,9.6c-0.4,1.8-1,4.2-3.2,5.8c-0.4,0.3-0.7,0.5-1.1,0.8
				c-1.5,1.1-3.1,2.3-3.6,3.1c-0.4,0.8-1.5,1.5-2.7,2.2c-0.8,0.5-1.7,0.8-2.2,1.3c-1,1-2,1.5-3.3,1.9c-0.4,0.1-0.8,0.2-1.3,0.4
				l-0.6,0.2C283.2,285.6,282.6,285.8,282.1,285.8z"/>
		</g>
	</g>
</g>
</svg>
