<?xml version="1.0" encoding="utf-8"?>
<!-- Generator: Adobe Illustrator 19.2.0, SVG Export Plug-In . SVG Version: 6.00 Build 0)  -->
<svg version="1.1" id="Layer_1" xmlns="http://www.w3.org/2000/svg" xmlns:xlink="http://www.w3.org/1999/xlink" x="0px" y="0px"
	 viewBox="0 0 1024 768" style="enable-background:new 0 0 1024 768;" xml:space="preserve">
<style type="text/css">
	.st0{fill:url(#SVGID_1_);}
	.st1{clip-path:url(#SVGID_3_);}
	.st2{fill:url(#SVGID_4_);}
	.st3{fill:#F68A1F;}
	.st4{filter:url(#Adobe_OpacityMaskFilter);}
	.st5{filter:url(#Adobe_OpacityMaskFilter_1_);}
	.st6{mask:url(#SVGID_5_);fill:url(#SVGID_6_);}
	.st7{fill:url(#SVGID_7_);}
	.st8{fill:#622872;}
	.st9{fill:url(#SVGID_8_);}
	.st10{fill:#CA4977;}
	.st11{fill-rule:evenodd;clip-rule:evenodd;fill:#F6DFB4;}
	.st12{fill:#D2D3D4;}
	.st13{fill:#FFFFFF;}
	.st14{fill:#205B6A;}
	.st15{fill:url(#SVGID_9_);}
</style>
<g>
	<g>
		<g>
			<g>
				<linearGradient id="SVGID_1_" gradientUnits="userSpaceOnUse" x1="245.9489" y1="138.1426" x2="245.9489" y2="721.1336">
					<stop  offset="0" style="stop-color:#3553A4"/>
					<stop  offset="2.188736e-002" style="stop-color:#3B57A6"/>
					<stop  offset="0.2059" style="stop-color:#6576B8"/>
					<stop  offset="0.3861" style="stop-color:#8694CA"/>
					<stop  offset="0.5587" style="stop-color:#A2B1DA"/>
					<stop  offset="0.7217" style="stop-color:#B9C7E6"/>
					<stop  offset="0.8713" style="stop-color:#C7D6EE"/>
					<stop  offset="0.9949" style="stop-color:#CCDBF0"/>
				</linearGradient>
				<path class="st0" d="M396.2,266.9h-6.1c-1.8-28.2-25.9-59.6-71.7-93.4c-35-25.9-70.5-43.7-70.9-43.9c-1-0.5-2.2-0.5-3.1,0
					c-0.3,0.2-35.9,18-70.9,43.9c-45.7,33.8-69.8,65.2-71.7,93.4h-6.1c-1.9,0-3.5,1.6-3.5,3.5v360.2h307.5V270.4
					C399.7,268.5,398.1,266.9,396.2,266.9z"/>
			</g>
		</g>
	</g>
	<g>
		<defs>
			<path id="SVGID_2_" d="M396.2,266.9h-6.1c-1.8-28.2-25.9-59.6-71.7-93.4c-35-25.9-70.5-43.7-70.9-43.9c-1-0.5-2.2-0.5-3.1,0
				c-0.3,0.2-35.9,18-70.9,43.9c-45.7,33.8-69.8,65.2-71.7,93.4h-6.1c-1.9,0-3.5,1.6-3.5,3.5v360.2h307.5V270.4
				C399.7,268.5,398.1,266.9,396.2,266.9z"/>
		</defs>
		<clipPath id="SVGID_3_">
			<use xlink:href="#SVGID_2_"  style="overflow:visible;"/>
		</clipPath>
		<g class="st1">
			
				<radialGradient id="SVGID_4_" cx="135.3254" cy="369.3249" r="54.2731" fx="124.185" fy="353.2813" gradientUnits="userSpaceOnUse">
				<stop  offset="0.1436" style="stop-color:#FBF067"/>
				<stop  offset="0.5314" style="stop-color:#FFDE00"/>
				<stop  offset="0.9166" style="stop-color:#F47D20"/>
			</radialGradient>
			<circle class="st2" cx="136.4" cy="371.9" r="48.7"/>
			<g>
				<path class="st3" d="M136.4,323.2c-26.9,0-48.7,21.8-48.7,48.7c0,26.9,21.8,48.7,48.7,48.7c26.9,0,48.7-21.8,48.7-48.7
					C185.1,345,163.3,323.2,136.4,323.2z M134.6,417.4c-25.1,0-45.5-20.4-45.5-45.5c0-25.1,20.4-45.5,45.5-45.5
					c25.1,0,45.5,20.4,45.5,45.5C180.1,397,159.8,417.4,134.6,417.4z"/>
				<path class="st3" d="M141.7,307.1c0,2.7-2,4.9-4.6,4.9l0,0c-2.5,0-4.6-2.2-4.6-4.9v-8.7c0-2.7,2-4.9,4.6-4.9l0,0
					c2.5,0,4.6,2.2,4.6,4.9V307.1z"/>
				<path class="st3" d="M141.7,440.3c0,2.7-2,4.9-4.6,4.9l0,0c-2.5,0-4.6-2.2-4.6-4.9v-8.7c0-2.7,2-4.9,4.6-4.9l0,0
					c2.5,0,4.6,2.2,4.6,4.9V440.3z"/>
				<path class="st3" d="M199.3,373.9c-2.7,0-4.9-2-4.9-4.6l0,0c0-2.5,2.2-4.6,4.9-4.6h8.7c2.7,0,4.9,2,4.9,4.6l0,0
					c0,2.5-2.2,4.6-4.9,4.6H199.3z"/>
				<path class="st3" d="M66.1,373.9c-2.7,0-4.9-2-4.9-4.6l0,0c0-2.5,2.2-4.6,4.9-4.6h8.7c2.7,0,4.9,2,4.9,4.6l0,0
					c0,2.5-2.2,4.6-4.9,4.6H66.1z"/>
				<path class="st3" d="M184.3,328.5c-1.9,1.9-4.9,2.1-6.7,0.3l0,0c-1.8-1.8-1.7-4.8,0.3-6.7l6.2-6.2c1.9-1.9,4.9-2.1,6.7-0.3l0,0
					c1.8,1.8,1.7,4.8-0.3,6.7L184.3,328.5z"/>
				<path class="st3" d="M90.1,422.7c-1.9,1.9-4.9,2.1-6.7,0.3l0,0c-1.8-1.8-1.7-4.8,0.3-6.7l6.2-6.2c1.9-1.9,4.9-2.1,6.7-0.3l0,0
					c1.8,1.8,1.7,4.8-0.3,6.7L90.1,422.7z"/>
				<path class="st3" d="M177.9,416.6c-1.9-1.9-2-4.9-0.3-6.7l0,0c1.8-1.8,4.8-1.7,6.7,0.3l6.2,6.2c1.9,1.9,2.1,4.9,0.3,6.7l0,0
					c-1.8,1.8-4.8,1.7-6.7-0.3L177.9,416.6z"/>
				<path class="st3" d="M83.7,322.4c-1.9-1.9-2-4.9-0.3-6.7l0,0c1.8-1.8,4.8-1.7,6.7,0.3l6.2,6.2c1.9,1.9,2.1,4.9,0.3,6.7l0,0
					c-1.8,1.8-4.8,1.7-6.7-0.3L83.7,322.4z"/>
			</g>
			<defs>
				<filter id="Adobe_OpacityMaskFilter" filterUnits="userSpaceOnUse" x="90.5" y="327.2" width="72.7" height="48.8">
					<feFlood  style="flood-color:white;flood-opacity:1" result="back"/>
					<feBlend  in="SourceGraphic" in2="back" mode="normal"/>
				</filter>
			</defs>
			<mask maskUnits="userSpaceOnUse" x="90.5" y="327.2" width="72.7" height="48.8" id="SVGID_5_">
				<g class="st4">
					<defs>
						<filter id="Adobe_OpacityMaskFilter_1_" filterUnits="userSpaceOnUse" x="90.5" y="327.2" width="72.7" height="48.8">
							<feFlood  style="flood-color:white;flood-opacity:1" result="back"/>
							<feBlend  in="SourceGraphic" in2="back" mode="normal"/>
						</filter>
					</defs>
					<mask maskUnits="userSpaceOnUse" x="90.5" y="327.2" width="72.7" height="48.8" id="SVGID_5_">
						<g class="st5">
						</g>
					</mask>
					
						<radialGradient id="SVGID_6_" cx="125.3654" cy="331.5909" r="50.6721" fx="142.5415" fy="305.4778" gradientUnits="userSpaceOnUse">
						<stop  offset="0.2627" style="stop-color:#FFFFFF"/>
						<stop  offset="0.7268" style="stop-color:#FFFFFF"/>
						<stop  offset="0.9716" style="stop-color:#000000"/>
					</radialGradient>
					<path class="st6" d="M105.2,337.9c9-9.2,32.2-15.4,48.6-6.2c16.4,9.2,11,26.7-15.4,25.7c-26.4-1-42.3,8.6-44.4,16.8
						C92,382.5,82.9,360.7,105.2,337.9z"/>
				</g>
			</mask>
			
				<radialGradient id="SVGID_7_" cx="125.3654" cy="331.5909" r="50.6721" fx="142.5415" fy="305.4778" gradientUnits="userSpaceOnUse">
				<stop  offset="0.2627" style="stop-color:#FFFFFF"/>
				<stop  offset="0.7268" style="stop-color:#FBF067"/>
				<stop  offset="0.9716" style="stop-color:#FFDE00"/>
			</radialGradient>
			<path class="st7" d="M105.2,337.9c9-9.2,32.2-15.4,48.6-6.2c16.4,9.2,11,26.7-15.4,25.7c-26.4-1-42.3,8.6-44.4,16.8
				C92,382.5,82.9,360.7,105.2,337.9z"/>
		</g>
	</g>
</g>
<g>
	<path class="st8" d="M419.2,213.5c0-0.8,0.7-1.5,1.5-1.5c0.8,0,1.5,0.7,1.5,1.5c0,0.8-0.7,1.5-1.5,1.5
		C419.9,215,419.2,214.4,419.2,213.5z M419.2,221c0-0.8,0.7-1.5,1.5-1.5c0.8,0,1.5,0.7,1.5,1.5c0,0.8-0.7,1.5-1.5,1.5
		C419.9,222.5,419.2,221.8,419.2,221z"/>
	<path class="st8" d="M441.4,221c0,0.4-0.2,1.2-1.5,1.2c-1.1,0-1.9-0.3-2.5-1.3c-0.9,0.9-2.6,1.4-4.9,1.4c-0.5,0-1.9-0.1-2.8-0.3
		l0.3-1.8l0.1-0.1c0.8,0.2,2.1,0.2,2.6,0.2c1.5,0,3.1-0.3,3.9-0.9l-0.1-0.1c-0.4-0.8-2.2-4.3-3.2-6l1.4-1.5h0.2
		c0.7,1.5,2.4,5.4,2.8,6c0.9,1.9,1.4,2.3,2.7,2.3C441.2,220.4,441.4,220.6,441.4,221z"/>
	<path class="st8" d="M451.6,221c0,0.7-0.6,1.2-1.4,1.2h-1.6c0.5,0.6,0.8,1.4,0.8,2.1c0,1.4-1.4,2.6-3.1,2.6c-2.8,0-4.7-1.8-4.8-4.7
		h-1.5l0.5-1.9h1.2c0.4-2,1.4-4.2,3-6.1l1.2-1l0.2,0c2.1,2.2,2.8,3.3,2.8,4.5c0,0.9-0.5,2-1.2,2.6h3.1
		C451.3,220.4,451.6,220.6,451.6,221z M444.6,222.1c-0.4,0-0.9,0.1-1.3,0.2c0.2,1.7,1.4,2.7,3.2,2.7c0.5,0,1-0.2,1.3-0.4
		C447.8,223.1,446.6,222.1,444.6,222.1z M443.4,220.4c2.1,0,3.5-1,3.5-2.5c0-0.7-0.3-1.4-1.2-2.4
		C444.4,217.2,443.6,218.8,443.4,220.4z"/>
	<path class="st8" d="M470.9,221c0,0.4-0.2,1.2-1.4,1.2c-1,0-2.3-0.2-3.3-1c-0.7,0.7-1.7,1-2.9,1c-1,0-1.9-0.2-2.7-0.6
		c-0.5,0.4-1.2,0.6-2.2,0.6c-1.7,0-3-0.5-3.7-1.1c-0.9,0.7-2.2,1.1-4.4,1.1l0.5-1.9c1.5,0,2.5-0.1,3-0.5c0.3-0.4,0.6-1.3,1-2.5
		l2-0.3l0.1,0.1c-0.4,1-0.7,1.9-1.1,2.6c0.7,0.3,1.9,0.6,2.8,0.6c0.4,0,0.9-0.1,1.2-0.3c0.3-0.4,0.7-1.4,1.1-2.8l1.9-0.3l0.1,0.1
		c-0.4,1.2-0.7,2.2-1.1,2.9c0.5,0.2,1.1,0.3,1.7,0.3c0.6,0,1.2-0.1,1.6-0.4c0.2-0.3,0.4-1,0.4-2.2c0-0.4,0-0.8-0.1-1.3l1.7-0.6
		l0.2,0.1c0,0.4,0,0.7,0,1.1c0,1.1-0.1,1.9-0.3,2.6c0.5,0.3,1.4,0.7,2.9,0.7C470.7,220.4,470.9,220.6,470.9,221z M459.5,213
		l-1.9-1.4l1.2-1.8l1.9,1.3L459.5,213z M461,210.3l-2-1.4l1.2-1.8l1.9,1.3L461,210.3z M461,211.6l1.2-1.8l1.9,1.3l-1.2,1.8
		L461,211.6z"/>
	<path class="st8" d="M479,221c0,0.4-0.2,1.2-1.4,1.2c-1.5,0-2.9-0.3-3.9-1.2c-0.8,0.8-1.8,1.2-3.3,1.2h-0.8l0.5-1.9h0.7
		c0.7,0,1.4-0.1,1.8-0.5c0.3-0.5,0.7-1.6,1.2-3.6l1.8-0.5l0.2,0.1c-0.3,1.5-0.7,2.7-1.1,3.7c0.6,0.3,1.5,0.7,3.4,0.7
		C478.8,220.4,479,220.6,479,221z M473.3,213.1l-1.9-1.4l1.2-1.8l1.9,1.3L473.3,213.1z M476.6,213.1l-1.9-1.4l1.2-1.8l1.9,1.3
		L476.6,213.1z"/>
	<path class="st8" d="M478,220.4c0.8,0,1.7,0,2.3-0.5c0.1-0.4,0.2-1,0.2-1.9v-11.7l1.7-0.4l0.2,0.1v11.9c0,3.5-1.8,4.4-4.8,4.4
		L478,220.4z"/>
	<path class="st8" d="M485.4,222.3v-16l1.8-0.5l0.1,0.1l0,16.1l-1.7,0.4L485.4,222.3z"/>
	<path class="st8" d="M502.9,221.8c-2.7,0.3-4.5,0.4-7.6,0.6l-0.1-1.7c0.7,0,1.3,0,2-0.1c-0.5-0.6-0.7-1.5-0.7-2.3
		c0-1.8,1.4-3.2,3.3-3.2c0.8,0,1.8,0.2,2.5,0.6l-0.5,1.7c-0.6-0.2-1.3-0.4-1.9-0.4c-1,0-1.6,0.6-1.6,1.6c0,0.7,0.4,1.4,0.9,1.9
		c1.4-0.1,2.6-0.2,3.6-0.3L502.9,221.8z"/>
	<path class="st8" d="M505.6,218.3v-12l1.7-0.4l0.1,0.1v12.1c0,1.9,0.8,2.3,2.8,2.3c0.8,0,1,0.3,1,0.6c0,0.4-0.2,1.2-1.5,1.2
		C507.5,222.2,505.6,221.4,505.6,218.3z"/>
	<path class="st8" d="M521.2,219.9l-0.6,1.7c-1.9,0.4-4.7,0.6-10.8,0.6l0.5-1.9c0.9,0,1.8,0,2.7,0c-0.6-0.9-1-2-1-3.1
		c0-2.5,2-4,4.6-4c1.2,0,2.4,0.4,3.2,0.8l-0.2,1.7l-0.1,0c-0.9-0.4-1.9-0.6-2.9-0.6c-1.6,0-2.6,0.8-2.6,2.1c0,0.9,0.5,2.1,1.4,3
		c2.1-0.1,3.9-0.2,5.6-0.4L521.2,219.9z"/>
	<path class="st8" d="M523.2,222.1l0.3-1.8l0.1-0.1c0.7,0.2,2.1,0.2,2.6,0.2c1.6,0,3.5-0.3,4-0.9c-0.3-1.9-1.9-4-3.7-5.8l1-1.8h0.2
		c2.4,2.6,4.1,5,4.1,6.9c0,2.4-2,3.5-5.7,3.5C525.5,222.3,524.1,222.3,523.2,222.1z"/>
	<path class="st8" d="M543.3,204c-1.2,0.1-2.7,0.3-4.6,0.3l-0.1-1.3c0.3,0,0.7,0,1.1,0c-0.3-0.4-0.4-0.9-0.4-1.4
		c0-1.2,0.7-1.9,2-1.9c0.5,0,1.1,0.1,1.7,0.3l-0.3,1.2c-0.5-0.1-0.8-0.2-1.1-0.2c-0.6,0-0.9,0.4-0.9,0.9c0,0.4,0.2,0.7,0.5,1
		c0.8,0,1.5-0.1,2.2-0.2L543.3,204z M542,205.8l0.1,0.1l0,16.1l-1.7,0.4l-0.1-0.1v-16L542,205.8z"/>
	<path class="st8" d="M553.4,221c0,0.4-0.2,1.2-1.4,1.2c-1,0-1.6-0.3-2-0.6c-0.7,2.2-3.3,4.2-7.2,4.9l-1-1.4l0.1-0.2
		c4.7-0.9,6.4-2.8,6.8-4.6c-0.4-1.1-1.1-2.6-1.8-4l1.4-1.5h0.2c0.6,1.7,1.2,3.1,1.4,3.7c0.6,1.6,1,1.9,2.5,1.9
		C553.3,220.4,553.4,220.6,553.4,221z"/>
	<path class="st8" d="M561,217c0,2.3-0.4,3.6-1.5,4.4c-1.3,0.7-3.1,0.8-7.6,0.8l0.5-1.9c4.6,0,6.1-0.2,6.8-0.5
		c0.1-0.3,0.1-0.8,0.2-1.5c-0.7,0.2-1.6,0.3-2.5,0.3c-2.1,0-3.1-1.1-3.1-2.8c0-2.2,1.6-4.6,3.5-4.6C559.6,211.3,561,214.1,561,217z
		 M556,208.7l-1.9-1.4l1.2-1.8l1.9,1.3L556,208.7z M557.3,216.8c0.8,0,1.5-0.1,2.2-0.2c-0.1-1.7-1.1-3.5-2.2-3.5
		c-0.9,0-1.9,1.2-1.9,2.5C555.4,216.5,556.1,216.8,557.3,216.8z M559.3,208.7l-1.9-1.4l1.2-1.8l1.9,1.3L559.3,208.7z"/>
	<path class="st8" d="M567.1,204c-1.2,0.1-2.7,0.3-4.6,0.3l-0.1-1.3c0.3,0,0.7,0,1.1,0c-0.3-0.4-0.4-0.9-0.4-1.4
		c0-1.2,0.7-1.9,2-1.9c0.5,0,1.1,0.1,1.7,0.3l-0.3,1.2c-0.5-0.1-0.8-0.2-1.1-0.2c-0.6,0-0.9,0.4-0.9,0.9c0,0.4,0.2,0.7,0.5,1
		c0.8,0,1.5-0.1,2.2-0.2L567.1,204z M565.8,205.8l0.1,0.1l0,16.1l-1.7,0.4l-0.1-0.1v-16L565.8,205.8z"/>
	<path class="st8" d="M576.3,220.2c0,3.1-2.3,6.1-7.3,6.2l-1-1.4l0.1-0.2c3.4-0.1,5.7-1.3,6.5-3.3c-0.7,0.1-1.4,0.3-2.3,0.3
		c-2.1,0-3.1-1.1-3.1-2.8c0-2.2,1.6-4.6,3.5-4.6C574.9,214.5,576.3,217.3,576.3,220.2z M572.5,220c0.8,0,1.5-0.1,2.2-0.2
		c-0.1-1.7-1.1-3.5-2.2-3.5c-0.9,0-1.9,1.2-1.9,2.5C570.6,219.7,571.3,220,572.5,220z"/>
	<path class="st8" d="M596,221c0,0.4-0.2,1.2-1.5,1.2c-1.1,0-1.9-0.3-2.5-1.3c-0.9,0.9-2.6,1.4-4.9,1.4c-0.5,0-1.9-0.1-2.8-0.3
		l0.3-1.8l0.1-0.1c0.8,0.2,2.1,0.2,2.6,0.2c1.5,0,3.1-0.3,3.9-0.9l-0.1-0.1c-0.4-0.8-2.2-4.3-3.2-6l1.4-1.5h0.2
		c0.7,1.5,2.4,5.4,2.8,6c0.9,1.9,1.4,2.3,2.7,2.3C595.8,220.4,596,220.6,596,221z"/>
	<path class="st8" d="M606.3,221c0,0.7-0.6,1.2-1.4,1.2h-1.6c0.5,0.6,0.8,1.4,0.8,2.1c0,1.4-1.4,2.6-3.1,2.6c-2.8,0-4.7-1.8-4.8-4.7
		h-1.5l0.5-1.9h1.2c0.4-2,1.4-4.2,3-6.1l1.2-1l0.2,0c2.1,2.2,2.8,3.3,2.8,4.5c0,0.9-0.5,2-1.2,2.6h3.1
		C606,220.4,606.3,220.6,606.3,221z M599.3,222.1c-0.4,0-0.9,0.1-1.3,0.2c0.2,1.7,1.4,2.7,3.2,2.7c0.5,0,1-0.2,1.3-0.4
		C602.5,223.1,601.2,222.1,599.3,222.1z M598.1,220.4c2.1,0,3.5-1,3.5-2.5c0-0.7-0.3-1.4-1.2-2.4
		C599.1,217.2,598.3,218.8,598.1,220.4z"/>
	<path class="st8" d="M625.5,221c0,0.4-0.2,1.2-1.4,1.2c-1,0-2.3-0.2-3.3-1c-0.7,0.7-1.7,1-2.9,1c-1,0-1.9-0.2-2.7-0.6
		c-0.5,0.4-1.2,0.6-2.2,0.6c-1.7,0-3-0.5-3.7-1.1c-0.9,0.7-2.2,1.1-4.4,1.1l0.5-1.9c1.5,0,2.5-0.1,3-0.5c0.3-0.4,0.6-1.3,1-2.5
		l2-0.3l0.1,0.1c-0.4,1-0.7,1.9-1.1,2.6c0.7,0.3,1.9,0.6,2.8,0.6c0.4,0,0.9-0.1,1.2-0.3c0.3-0.4,0.7-1.4,1.1-2.8l1.9-0.3l0.1,0.1
		c-0.4,1.2-0.7,2.2-1.1,2.9c0.5,0.2,1.1,0.3,1.7,0.3c0.6,0,1.2-0.1,1.6-0.4c0.2-0.3,0.4-1,0.4-2.2c0-0.4,0-0.8-0.1-1.3l1.7-0.6
		l0.2,0.1c0,0.4,0,0.7,0,1.1c0,1.1-0.1,1.9-0.3,2.6c0.5,0.3,1.4,0.7,2.9,0.7C625.4,220.4,625.5,220.6,625.5,221z M614.2,213
		l-1.9-1.4l1.2-1.8l1.9,1.3L614.2,213z M615.6,210.3l-2-1.4l1.2-1.8l1.9,1.3L615.6,210.3z M615.6,211.6l1.2-1.8l1.9,1.3l-1.2,1.8
		L615.6,211.6z"/>
	<path class="st8" d="M633.6,221c0,0.4-0.2,1.2-1.4,1.2c-1.5,0-2.9-0.3-3.9-1.2c-0.8,0.8-1.8,1.2-3.3,1.2h-0.8l0.5-1.9h0.7
		c0.7,0,1.4-0.1,1.8-0.5c0.3-0.5,0.7-1.6,1.2-3.6l1.8-0.5l0.2,0.1c-0.3,1.5-0.7,2.7-1.1,3.7c0.6,0.3,1.5,0.7,3.4,0.7
		C633.5,220.4,633.6,220.6,633.6,221z M628,213.1l-1.9-1.4l1.2-1.8l1.9,1.3L628,213.1z M631.3,213.1l-1.9-1.4l1.2-1.8l1.9,1.3
		L631.3,213.1z"/>
	<path class="st8" d="M632.7,220.4c0.8,0,1.7,0,2.3-0.5c0.1-0.4,0.2-1,0.2-1.9v-11.7l1.7-0.4l0.2,0.1v11.9c0,3.5-1.8,4.4-4.8,4.4
		L632.7,220.4z"/>
	<path class="st8" d="M640.1,222.3v-16l1.8-0.5l0.1,0.1l0,16.1l-1.7,0.4L640.1,222.3z"/>
	<path class="st8" d="M661.2,221c0,0.4-0.2,1.2-1.5,1.2c-1.9,0-3.3-0.4-3.9-1.9c-0.6,0.1-1.2,0.2-1.8,0.2c-2.5,0-4-1.1-4-2.7
		c0-1.8,1.9-4,5.5-5.1v-1.2l1.7-0.8l0.2,0v7.4c0,1.8,0.9,2.1,2.8,2.1C661,220.4,661.2,220.6,661.2,221z M653,209.3l-1.9-1.4l1.2-1.8
		l1.9,1.3L653,209.3z M655.5,218.5v-0.2v-3.6c-2.2,0.7-3.7,1.8-4,2.8c0.3,0.9,1.6,1.2,2.6,1.2C654.6,218.7,655.1,218.6,655.5,218.5z
		 M656.3,209.3l-1.9-1.4l1.2-1.8l1.9,1.3L656.3,209.3z"/>
	<path class="st8" d="M680.4,221c0,0.4-0.2,1.2-1.4,1.2c-1,0-2.3-0.2-3.3-1c-0.7,0.7-1.7,1-2.9,1c-1,0-1.9-0.2-2.7-0.6
		c-0.5,0.4-1.2,0.6-2.2,0.6c-1.7,0-3-0.5-3.7-1.1c-0.9,0.7-2.2,1.1-4.4,1.1l0.5-1.9c1.5,0,2.5-0.1,3-0.5c0.3-0.4,0.6-1.3,1-2.5
		l2-0.3l0.1,0.1c-0.4,1-0.7,1.9-1.1,2.6c0.7,0.3,1.9,0.6,2.8,0.6c0.4,0,0.9-0.1,1.2-0.3c0.3-0.4,0.7-1.4,1.1-2.8l1.9-0.3l0.1,0.1
		c-0.4,1.2-0.7,2.2-1.1,2.9c0.5,0.2,1.1,0.3,1.7,0.3c0.6,0,1.2-0.1,1.6-0.4c0.2-0.3,0.4-1,0.4-2.2c0-0.4,0-0.8-0.1-1.3l1.7-0.6
		l0.2,0.1c0,0.4,0,0.7,0,1.1c0,1.1-0.1,1.9-0.3,2.6c0.5,0.3,1.4,0.7,2.9,0.7C680.2,220.4,680.4,220.6,680.4,221z"/>
	<path class="st8" d="M687.4,221c0,0.4-0.2,1.2-1.4,1.2c-1,0-2.4-0.2-3-1.4c-0.8,1.1-2.2,1.4-4,1.4l0.5-1.9c0.8,0,1.7,0,2.3-0.5
		c0.1-0.4,0.2-1,0.2-1.9v-11.7l1.7-0.4l0.2,0.1v11.8c0,2.4,1.1,2.6,2.7,2.6C687.2,220.4,687.4,220.6,687.4,221z"/>
	<path class="st8" d="M699.2,217.5l-0.5,1.7c-2,0.2-3.9,0.7-6.5,1.6c-3,1-4.6,1.4-6.3,1.4l0.5-1.9c1.5,0,2.8-0.2,5.4-1.1
		c1.6-0.5,2.8-0.8,3.8-1c-0.4-0.2-1-0.5-1.7-0.9c-1.9-1.1-2.9-1.4-4-1.4c-0.9,0-1.7,0.2-2.4,0.5l-0.1-0.1l0.7-1.7
		c0.6-0.3,1.4-0.5,2.1-0.5c1.1,0,2.2,0.5,4.3,1.6C696.7,216.9,698.1,217.5,699.2,217.5z M691.8,224.1l2,1.3l-1.2,1.8l-2-1.4
		L691.8,224.1z"/>
	<path class="st8" d="M733.8,221c0,0.4-0.2,1.2-1.4,1.2c-1,0-2.3-0.2-3.3-1c-0.7,0.7-1.7,1-2.8,1c-1,0-2-0.2-2.7-0.6
		c-0.5,0.4-1.2,0.6-2.2,0.6c-0.6,0-1.3-0.2-1.9-0.6c-0.5,3.4-3.3,5.1-6.9,5.1c-3.7,0-5.7-2.1-5.7-4.9c0-1,0.2-2.1,0.4-2.7l1.5-0.5
		l0.2,0.1c-0.2,0.8-0.2,1.6-0.2,2.2c0,2.4,0.9,4,4.2,4c2.7,0,3.9-1,4.6-1.8c0.2-0.5,0.3-1.1,0.3-1.6c0-1.3-0.6-2.7-1.3-4.4l1.7-1.2
		h0.1c0.3,0.8,0.7,2.3,1.2,3.2c0.5,0.9,1.2,1.3,2,1.3c0.4,0,0.9-0.1,1.2-0.3c0.3-0.4,0.7-1.4,1.1-2.8l1.9-0.3l0.1,0.1
		c-0.4,1.2-0.7,2.2-1.1,3c0.5,0.1,1.1,0.3,1.7,0.3c0.6,0,1.2-0.1,1.6-0.4c0.2-0.3,0.4-1.1,0.4-2.2c0-0.4,0-0.8-0.1-1.2l1.7-0.6
		l0.2,0.1c0,0.4,0,0.7,0,1.1c0,1.1-0.1,1.9-0.3,2.6c0.5,0.3,1.4,0.7,2.9,0.7C733.7,220.4,733.8,220.6,733.8,221z"/>
	<path class="st8" d="M740.8,221c0,0.4-0.2,1.2-1.4,1.2c-1,0-2.4-0.2-3-1.4c-0.8,1.1-2.2,1.4-4,1.4l0.5-1.9c0.8,0,1.7,0,2.3-0.5
		c0.1-0.4,0.2-1,0.2-1.9v-11.7l1.7-0.4l0.2,0.1v11.8c0,2.4,1.1,2.6,2.7,2.6C740.7,220.4,740.8,220.6,740.8,221z"/>
	<path class="st8" d="M752.7,217.5l-0.5,1.7c-2,0.2-3.9,0.7-6.5,1.6c-3,1-4.6,1.4-6.3,1.4l0.5-1.9c1.5,0,2.8-0.2,5.4-1.1
		c1.6-0.5,2.8-0.8,3.8-1c-0.4-0.2-1-0.5-1.7-0.9c-1.9-1.1-2.9-1.4-4-1.4c-0.9,0-1.7,0.2-2.4,0.5l-0.1-0.1l0.7-1.7
		c0.6-0.3,1.4-0.5,2.1-0.5c1.1,0,2.2,0.5,4.3,1.6C750.2,216.9,751.5,217.5,752.7,217.5z M745.2,224.1l2,1.3l-1.2,1.8l-2-1.4
		L745.2,224.1z"/>
	<path class="st8" d="M758.2,204c-1.2,0.1-2.7,0.3-4.6,0.3l-0.1-1.3c0.3,0,0.7,0,1.1,0c-0.3-0.4-0.4-0.9-0.4-1.4
		c0-1.2,0.7-1.9,2-1.9c0.5,0,1.1,0.1,1.7,0.3l-0.3,1.2c-0.5-0.1-0.8-0.2-1.1-0.2c-0.6,0-0.9,0.4-0.9,0.9c0,0.4,0.2,0.7,0.5,1
		c0.8,0,1.5-0.1,2.2-0.2L758.2,204z M756.8,205.8l0.1,0.1l0,16.1l-1.7,0.4l-0.1-0.1v-16L756.8,205.8z"/>
	<path class="st8" d="M767.3,220.2c0,3.1-2.3,6.1-7.3,6.2l-1-1.4l0.1-0.2c3.4-0.1,5.7-1.3,6.5-3.3c-0.7,0.1-1.4,0.3-2.3,0.3
		c-2.1,0-3.1-1.1-3.1-2.8c0-2.2,1.6-4.6,3.5-4.6C765.9,214.5,767.3,217.3,767.3,220.2z M763.6,220c0.8,0,1.5-0.1,2.2-0.2
		c-0.1-1.7-1.1-3.5-2.2-3.5c-0.9,0-1.9,1.2-1.9,2.5C761.7,219.7,762.4,220,763.6,220z"/>
	<path class="st8" d="M775.3,222.1l0.3-1.8l0.1-0.1c0.7,0.2,2.1,0.2,2.6,0.2c1.6,0,3.5-0.3,4-0.9c-0.3-1.9-1.9-4-3.7-5.8l1-1.8h0.2
		c2.4,2.6,4.1,5,4.1,6.9c0,2.4-2,3.5-5.7,3.5C777.7,222.3,776.3,222.3,775.3,222.1z"/>
	<path class="st8" d="M796.5,221c0,0.4-0.2,1.2-1.5,1.2h-1.8c-0.8,2.3-3,4.1-7,4.2l-1-1.4l0.1-0.2c3-0.1,5.2-1.1,6.1-2.7h-0.7
		c-3,0-4.4-1.2-4.4-3.1c0-2.2,1.6-4.7,3.5-4.7c2.2,0,3.6,2.7,3.6,5.7v0.1h1.9C796.3,220.4,796.5,220.6,796.5,221z M792.1,220.4v-0.1
		c0-2.1-1.1-3.8-2.2-3.8c-0.9,0-1.9,1-1.9,2.6c0,0.9,0.8,1.4,3.1,1.4H792.1z"/>
	<path class="st8" d="M811.1,221c0,0.4-0.2,1.2-1.4,1.2c-3.2,0-4.7-0.8-5.5-2.3c-0.8,0.2-1.7,0.5-2.7,0.9c-3.1,1.1-4.5,1.4-6.4,1.4
		l0.5-1.9c1.6,0,2.9-0.2,5.4-1.1c1.5-0.5,2.7-0.8,3.8-1c-0.4-0.2-0.9-0.5-1.7-0.8c-1.9-1-2.9-1.4-4-1.4c-0.9,0-1.7,0.2-2.4,0.5
		l-0.1-0.1l0.7-1.8c0.6-0.3,1.4-0.5,2.1-0.5c1.1,0,2.2,0.5,4.2,1.6c2.4,1.2,3.6,1.7,4.7,1.8l-0.4,1.7c-0.6,0.1-1.2,0.1-1.8,0.3
		c0.7,0.7,1.9,0.9,4,0.9C810.9,220.4,811.1,220.6,811.1,221z M801,224.1l2,1.3l-1.2,1.8l-2-1.4L801,224.1z"/>
	<path class="st8" d="M830.3,221c0,0.4-0.2,1.2-1.4,1.2c-1,0-2.3-0.2-3.3-1c-0.7,0.7-1.7,1-2.9,1c-1,0-1.9-0.2-2.7-0.6
		c-0.5,0.4-1.2,0.6-2.2,0.6c-1.7,0-3-0.5-3.7-1.1c-0.9,0.7-2.2,1.1-4.4,1.1l0.5-1.9c1.5,0,2.5-0.1,3-0.5c0.3-0.4,0.6-1.3,1-2.5
		l2-0.3l0.1,0.1c-0.4,1-0.7,1.9-1.1,2.6c0.7,0.3,1.9,0.6,2.8,0.6c0.4,0,0.9-0.1,1.2-0.3c0.3-0.4,0.7-1.4,1.1-2.8l1.9-0.3l0.1,0.1
		c-0.4,1.2-0.7,2.2-1.1,2.9c0.5,0.2,1.1,0.3,1.7,0.3c0.6,0,1.2-0.1,1.6-0.4c0.2-0.3,0.4-1,0.4-2.2c0-0.4,0-0.8-0.1-1.3l1.7-0.6
		l0.2,0.1c0,0.4,0,0.7,0,1.1c0,1.1-0.1,1.9-0.3,2.6c0.5,0.3,1.4,0.7,2.9,0.7C830.1,220.4,830.3,220.6,830.3,221z"/>
	<path class="st8" d="M829.3,220.4c0.8,0,1.7,0,2.3-0.5c0.1-0.4,0.2-1,0.2-1.9v-11.7l1.7-0.4l0.2,0.1v11.9c0,3.5-1.8,4.4-4.8,4.4
		L829.3,220.4z"/>
	<path class="st8" d="M836.8,222.3v-16l1.8-0.5l0.1,0.1l0,16.1l-1.7,0.4L836.8,222.3z"/>
	<path class="st8" d="M863.1,221c0,0.4-0.2,1.2-1.5,1.2c-0.6,0-1.4-0.2-1.9-0.6c-0.5,3.4-3.3,5.1-6.9,5.1c-3.7,0-5.7-2.1-5.7-4.9
		c0-1,0.2-2.1,0.4-2.7l1.5-0.5l0.2,0.1c-0.2,0.8-0.2,1.6-0.2,2.2c0,2.4,0.9,4,4.2,4c2.7,0,3.9-1,4.6-1.8c0.8-1.8,0-3.6-1-6l1.7-1.2
		h0.1c0.3,0.8,0.7,2.3,1.2,3.2c0.5,1,1.2,1.4,2.2,1.4C862.8,220.4,863.1,220.6,863.1,221z M853.4,214.7l-2-1.4l1.2-1.8l2,1.3
		L853.4,214.7z"/>
	<path class="st8" d="M872.5,219.9c0,1.6-0.8,2.6-2.4,2.6c-1.2,0-3.1-0.6-4.8-1.8c-0.9,1.2-2,1.5-3.6,1.5l0.5-1.9
		c1.1,0,1.6-0.5,2.2-1.5c0.8-1.5,2-4.3,4.3-4.3S872.5,217.2,872.5,219.9z M868.5,216.4c-0.9,0-1.4,1.1-2.4,2.9
		c1.4,0.9,2.8,1.4,3.5,1.4c0.4,0,0.8-0.1,1-0.3C870.9,219.2,869.7,216.4,868.5,216.4z"/>
	<path class="st8" d="M880.7,221.8c0-1,0.2-2.1,0.4-2.7l1.5-0.5l0.2,0.1c-0.2,0.8-0.2,1.6-0.2,2.2c0,2.4,0.9,4,4.2,4
		c2,0,3.4-0.5,4.4-1.7c0.3-0.6,0.6-1.8,0.6-3.7v-13.1l1.7-0.4l0.2,0.1l0,13.2c0,5.4-2.5,7.5-7.2,7.5
		C882.6,226.7,880.7,224.6,880.7,221.8z"/>
	<path class="st8" d="M907.7,221c0,0.4-0.2,1.2-1.5,1.2c-1.1,0-1.9-0.3-2.5-1.3c-0.9,0.9-2.6,1.4-4.9,1.4c-0.5,0-1.9-0.1-2.8-0.3
		l0.3-1.8l0.1-0.1c0.8,0.2,2.1,0.2,2.6,0.2c1.5,0,3.1-0.3,3.9-0.9l-0.1-0.1c-0.4-0.8-2.2-4.3-3.2-6l1.4-1.5h0.2
		c0.7,1.5,2.4,5.4,2.8,6c0.9,1.9,1.4,2.3,2.7,2.3C907.5,220.4,907.7,220.6,907.7,221z"/>
	<path class="st8" d="M915.8,221c0,0.4-0.2,1.2-1.4,1.2c-1.5,0-2.9-0.3-3.9-1.2c-0.8,0.8-1.8,1.2-3.3,1.2h-0.8l0.5-1.9h0.7
		c0.7,0,1.4-0.1,1.8-0.5c0.3-0.5,0.7-1.6,1.2-3.6l1.8-0.5l0.2,0.1c-0.3,1.5-0.7,2.7-1.1,3.7c0.6,0.3,1.5,0.7,3.4,0.7
		C915.6,220.4,915.8,220.6,915.8,221z M910.1,213.1l-1.9-1.4l1.2-1.8l1.9,1.3L910.1,213.1z M913.5,213.1l-1.9-1.4l1.2-1.8l1.9,1.3
		L913.5,213.1z"/>
	<path class="st8" d="M925.7,219.9l-0.6,1.7c-1.9,0.4-4.7,0.6-10.8,0.6l0.5-1.9c0.9,0,1.8,0,2.7,0c-0.6-0.9-1-2-1-3.1
		c0-2.5,2-4,4.6-4c1.2,0,2.4,0.4,3.2,0.8l-0.2,1.7l-0.1,0c-0.9-0.4-1.9-0.6-2.9-0.6c-1.6,0-2.6,0.8-2.6,2.1c0,0.9,0.5,2.1,1.4,3
		c2.1-0.1,3.9-0.2,5.6-0.4L925.7,219.9z"/>
	<path class="st8" d="M931.6,204c-1.2,0.1-2.7,0.3-4.6,0.3l-0.1-1.3c0.3,0,0.7,0,1.1,0c-0.3-0.4-0.4-0.9-0.4-1.4
		c0-1.2,0.7-1.9,2-1.9c0.5,0,1.1,0.1,1.7,0.3l-0.3,1.2c-0.5-0.1-0.8-0.2-1.1-0.2c-0.6,0-0.9,0.4-0.9,0.9c0,0.4,0.2,0.7,0.5,1
		c0.8,0,1.5-0.1,2.2-0.2L931.6,204z M930.2,205.8l0.1,0.1l0,16.1l-1.7,0.4l-0.1-0.1v-16L930.2,205.8z"/>
</g>
<linearGradient id="SVGID_8_" gradientUnits="userSpaceOnUse" x1="506.2232" y1="428.0948" x2="1024.7632" y2="428.0948">
	<stop  offset="0.1199" style="stop-color:#FFFFFF"/>
	<stop  offset="0.9969" style="stop-color:#FFF2D5"/>
</linearGradient>
<rect x="506.2" y="288.1" class="st9" width="518.5" height="280"/>
<g>
	<g>
		<path class="st10" d="M544.9,335.1c0-2.4,1.3-4.7,3.2-7l2,1.2c-0.9,1.2-1.7,2.5-1.7,3.4c0,1.3,1.6,1.1,1.6,3
			c0,1.2-0.9,2.5-2.5,2.5C545.9,338.2,544.9,337,544.9,335.1z"/>
		<path class="st10" d="M577,332c0,1.9-0.8,4-2.5,5c-1.5,0.9-5.1,1.4-9.2,1.4h-2c-7.1,0-10.9-2.1-10.9-6c0-1.4,0.2-2.6,0.6-3.9
			l2.8-1.1l0.3,0.2c-0.2,1-0.3,1.8-0.3,2.7c0,3.3,2.6,4.2,8.8,4.2h1.8c3,0,5.9-0.3,7.1-0.7c0.1-1.1-0.5-3-1.7-5.4l3.3-2.6h0.4
			C576.5,328.3,577,330.6,577,332z M563.4,325.4l-3.3-2.3l2-3l3.1,2.1l1.4-2.1l3.3,2.2l-2,3.1l-3.1-2.2L563.4,325.4z"/>
		<path class="st10" d="M580.6,331.5v-14.7l3.7-1l0.3,0.2v15.2c0,2.2,0.9,2.8,3.2,2.8c0.9,0,1.3,0.5,1.3,1.3c0,1.6-0.6,2.7-2.1,2.7
			C582.7,338,580.6,336.1,580.6,331.5z"/>
		<path class="st10" d="M599.8,335.3c0,1.5-0.5,2.7-2.1,2.7c-1.6,0-3.7-0.5-5-1.5c-1.2,1-2.8,1.5-5.1,1.5h-0.6l0.9-4h0.6
			c1.2,0,2.1-0.1,2.5-0.4c0.3-0.8,0.7-2.4,1.1-4.5l4.1-1l0.3,0.2c-0.4,1.9-0.9,3.6-1.5,5c0.9,0.4,2.1,0.6,3.6,0.6
			C599.5,334,599.8,334.6,599.8,335.3z M592,340.3l3.4,2.3l-2.1,3.2l-3.4-2.4L592,340.3z"/>
		<path class="st10" d="M611.3,335.3c0,1.5-0.5,2.7-2.1,2.7c-2.4,0-4.6-0.5-5.8-1.5c-1.2,1-2.6,1.5-4.7,1.5h-1.1l0.9-4h0.7
			c0.8,0,1.8-0.1,2.2-0.4c0.3-0.8,0.7-2.4,1.1-4.5l4.1-1l0.3,0.2c-0.4,1.9-0.9,3.6-1.5,5c0.9,0.4,2.4,0.6,4.5,0.6
			C611,334,611.3,334.6,611.3,335.3z M605.1,340.3l3.3,2.2l-2,3.1l-3.1-2.2l-1.5,2.2l-3.3-2.3l2-3l3.2,2.2L605.1,340.3z"/>
		<path class="st10" d="M631.9,335.3c0,1.5-0.5,2.7-2.1,2.7c-1.5,0-3.4-0.4-4.7-1.3c-1.7,1.2-4,1.3-8.1,1.3h-7.8l0.9-4h1.3
			c0.4-0.4,0.8-0.8,1.2-1.2v-16l3.7-1l0.3,0.2l-0.1,13.3c2.6-2.1,4.6-3.3,6.4-3.3c3.1,0,4.9,3.1,4.9,5.6c0,0.7-0.1,1.3-0.3,1.9
			c0.8,0.3,1.9,0.4,3.1,0.4C631.6,334,631.9,334.6,631.9,335.3z M624.3,333.6c0.2-0.3,0.3-0.7,0.3-1.2c0-1.1-0.9-2.5-2.2-2.5
			c-1.5,0-4,1.5-7,4.2h2.4C622.3,334,623.5,333.9,624.3,333.6z"/>
		<path class="st10" d="M630.6,334c0.9,0,1.9-0.1,2.6-0.4c0.1-0.5,0.2-1.2,0.2-2.4v-14.4l3.7-1l0.3,0.2v15c0,5.6-2.9,7-7.6,7
			L630.6,334z"/>
		<path class="st10" d="M641.3,338v-21.2l3.7-1l0.3,0.2l-0.1,21.4l-3.7,0.8L641.3,338z"/>
		<path class="st10" d="M659.6,334.8c0,4.4-3.4,8.8-10.6,8.9l-1.9-3l0.2-0.4c4.4-0.1,7.4-1.3,8.5-3.4c-0.8,0.1-1.6,0.2-2.6,0.2
			c-3,0-4.4-1.5-4.4-3.8c0-3,2.3-6.6,5.3-6.6C657.6,326.7,659.6,330.4,659.6,334.8z M654.1,333.6c0.8,0,1.5-0.1,2.2-0.2
			c-0.3-1.6-1.2-3-2.4-3c-1.1,0-2,1.2-2,2.2C652,333.3,652.6,333.6,654.1,333.6z"/>
		<path class="st10" d="M694.3,332c0,1.9-0.8,4-2.5,5c-1.5,0.9-5.1,1.4-9.2,1.4h-2c-7.1,0-10.9-2.1-10.9-6c0-1.4,0.2-2.6,0.6-3.9
			l2.8-1.1l0.3,0.2c-0.2,1-0.3,1.8-0.3,2.7c0,3.3,2.6,4.2,8.8,4.2h1.8c3,0,5.9-0.3,7.1-0.7c0.1-1.1-0.5-3-1.7-5.4l3.3-2.6h0.4
			C693.9,328.3,694.3,330.6,694.3,332z M680.7,325.4l-3.3-2.3l2-3l3.1,2.1l1.4-2.1l3.3,2.2l-2,3.1l-3.1-2.2L680.7,325.4z"/>
		<path class="st10" d="M697.9,338v-21.2l3.7-1l0.3,0.2l-0.1,21.4l-3.7,0.8L697.9,338z"/>
		<path class="st10" d="M719.8,335.3c0,1.5-0.5,2.7-2.2,2.7h-2c-1.3,3.2-4.5,5.7-10,5.7l-1.9-3l0.2-0.4c3.9-0.1,6.5-0.8,7.9-2.3
			c-4.4,0-6.3-1.8-6.3-4.7c0-3,2.3-6.7,5.3-6.7c3.1,0,5.2,3.3,5.4,7.4h2.2C719.5,334,719.8,334.6,719.8,335.3z M711.9,334h1.2
			c-0.2-2-1.2-3.6-2.4-3.6c-1.1,0-2,1.2-2,2.2C708.6,333.6,709.5,334,711.9,334z"/>
		<path class="st10" d="M729.8,335.3c0,1.5-0.5,2.7-2.1,2.7c-1.2,0-2.9-0.3-4-1.8c-1.1,1.4-2.8,1.8-5.9,1.8l0.9-4
			c0.9,0,1.9-0.1,2.6-0.4c0.1-0.5,0.2-1.2,0.2-2.4v-14.4l3.7-1l0.3,0.2v15.2c0,2.5,0.7,2.8,3.2,2.8
			C729.5,334,729.8,334.6,729.8,335.3z"/>
		<path class="st10" d="M757.5,335.3c0,1.5-0.5,2.7-2.1,2.7c-1.5,0-3.4-0.4-4.7-1.3c-1.8,1.2-4,1.3-8.1,1.3h-3.4
			c-3.4,0-5.2-0.1-7.3-1c-1.1,0.7-2.4,1-4.3,1l0.9-4c0.7,0,1.6-0.1,2.1-0.3c0.3-0.7,0.5-1.8,0.8-3.3l4.3-0.6l0.1,0.1
			c-0.5,1.5-0.9,2.7-1.4,3.7c0.7,0.2,1.6,0.3,2.6,0.3c5.4-5.2,8.7-7.9,11.6-7.9c3.1,0,4.9,3.1,4.9,5.6c0,0.7-0.1,1.3-0.3,1.9
			c0.8,0.3,1.9,0.4,3.2,0.4C757.2,334,757.5,334.6,757.5,335.3z M749.9,333.6c0.2-0.3,0.3-0.7,0.3-1.2c0-1.1-0.8-2.5-2.1-2.5
			c-1.5,0-4,1.5-7.1,4.2h3.1C747.9,334,749,333.9,749.9,333.6z"/>
		<path class="st10" d="M756.2,334c0.9,0,1.9-0.1,2.6-0.4c0.1-0.5,0.2-1.2,0.2-2.4v-14.4l3.7-1l0.3,0.2v15c0,5.6-2.9,7-7.6,7
			L756.2,334z"/>
		<path class="st10" d="M766.9,338v-21.2l3.7-1l0.3,0.2l-0.1,21.4l-3.7,0.8L766.9,338z"/>
		<path class="st10" d="M785.3,334.8c0,4.4-3.4,8.8-10.6,8.9l-1.9-3l0.2-0.4c4.4-0.1,7.4-1.3,8.5-3.4c-0.8,0.1-1.6,0.2-2.6,0.2
			c-3,0-4.4-1.5-4.4-3.8c0-3,2.3-6.6,5.3-6.6C783.2,326.7,785.3,330.4,785.3,334.8z M779.8,333.6c0.8,0,1.5-0.1,2.2-0.2
			c-0.3-1.6-1.2-3-2.4-3c-1.1,0-2,1.2-2,2.2C777.7,333.3,778.3,333.6,779.8,333.6z"/>
		<path class="st10" d="M810.9,335.3c0,1.5-0.6,2.7-2.2,2.7c-2.3,0-4.1-0.6-5.2-2.1c-1,0.4-2,0.5-3,0.5c-3.5,0-5.7-1.7-5.7-4.1
			c0-2.7,2.7-5.6,7.7-7.3v-1.5l3.7-1.4l0.3,0.1v9.6c0,1.7,0.6,2.2,3,2.2C810.6,334,810.9,334.6,810.9,335.3z M802.6,332.4v-0.6v-3
			c-2.2,0.5-4,1.5-4.4,2.5c0.3,0.9,1.7,1.3,2.8,1.3C801.6,332.5,802.1,332.5,802.6,332.4z"/>
		<path class="st10" d="M820.9,335.3c0,1.5-0.5,2.7-2.1,2.7c-1.2,0-2.9-0.3-4-1.8c-1.1,1.4-2.8,1.8-5.9,1.8l0.9-4
			c0.9,0,1.9-0.1,2.6-0.4c0.1-0.5,0.2-1.2,0.2-2.4v-14.4l3.7-1l0.3,0.2v15.2c0,2.5,0.7,2.8,3.2,2.8
			C820.6,334,820.9,334.6,820.9,335.3z"/>
		<path class="st10" d="M819.6,334c0.9,0,1.9-0.1,2.6-0.4c0.1-0.5,0.2-1.2,0.2-2.4v-14.4l3.7-1l0.3,0.2v15c0,5.6-2.9,7-7.6,7
			L819.6,334z"/>
		<path class="st10" d="M861.3,332c0,1.9-0.8,4-2.5,5c-1.5,0.9-5.1,1.4-9.2,1.4h-2c-7.1,0-10.9-2.1-10.9-6c0-1.4,0.2-2.6,0.6-3.9
			l2.8-1.1l0.3,0.2c-0.2,1-0.3,1.8-0.3,2.7c0,3.3,2.6,4.2,8.8,4.2h1.8c3,0,5.9-0.3,7.1-0.7c0.1-1.1-0.5-3-1.7-5.4l3.3-2.6h0.4
			C860.9,328.3,861.3,330.6,861.3,332z M847.7,325.4l-3.3-2.3l2-3l3.1,2.1l1.4-2.1l3.3,2.2l-2,3.1l-3.1-2.2L847.7,325.4z"/>
		<path class="st10" d="M864.9,331.5v-14.7l3.7-1l0.3,0.2v15.2c0,2.2,0.9,2.8,3.2,2.8c0.9,0,1.3,0.5,1.3,1.3c0,1.6-0.6,2.7-2.1,2.7
			C867.1,338,864.9,336.1,864.9,331.5z"/>
		<path class="st10" d="M884.9,335.3c0,1.5-0.5,2.7-2.1,2.7c-2.4,0-4.6-0.5-5.8-1.5c-1.2,1-2.6,1.5-4.7,1.5h-1.1l0.9-4h0.7
			c0.8,0,1.8-0.1,2.2-0.4c0.3-0.8,0.7-2.4,1.1-4.5l4.1-1l0.3,0.2c-0.4,1.9-0.9,3.6-1.5,5c0.9,0.4,2.4,0.6,4.5,0.6
			C884.7,334,884.9,334.6,884.9,335.3z M878.7,340.3l3.3,2.2l-2,3.1l-3.1-2.2l-1.5,2.2l-3.3-2.3l2-3l3.2,2.2L878.7,340.3z"/>
		<path class="st10" d="M905.2,335.3c0,1.5-0.5,2.7-2.1,2.7c-5.2,0-7-1.3-8.3-3.5l-1.2,0.6c-4.4,2.2-7.3,2.9-10.8,2.9l0.9-4
			c3.2,0,5.1-0.4,8.8-1.7c1-0.4,1.8-0.6,2.5-0.9c-0.3-0.1-0.7-0.3-1.1-0.5c-2.6-1.2-4-1.6-5.3-1.6c-1.4,0-2.6,0.3-3.7,0.6l-0.2-0.1
			l1.4-3.6c0.7-0.4,1.9-0.7,2.9-0.7c1.1,0,2.4,0.4,4.9,1.5c3.4,1.5,5.4,2,7.6,2.1l-0.7,3.6c-0.9,0-1.7,0.1-2.7,0.4
			c1,0.6,2.6,0.8,5.8,0.8C904.9,334,905.2,334.6,905.2,335.3z"/>
		<path class="st10" d="M916.7,335.3c0,1.5-0.5,2.7-2.1,2.7c-2.4,0-4.6-0.5-5.8-1.5c-1.2,1-2.6,1.5-4.7,1.5H903l0.9-4h0.7
			c0.8,0,1.8-0.1,2.2-0.4c0.3-0.8,0.7-2.4,1.1-4.5l4.1-1l0.3,0.2c-0.4,1.9-0.9,3.6-1.5,5c0.9,0.4,2.4,0.6,4.5,0.6
			C916.4,334,916.7,334.6,916.7,335.3z M908.3,325.1l-3.3-2.3l2-3l3.1,2.1l1.4-2.1l3.3,2.2l-2,3.1l-3.1-2.2L908.3,325.1z"/>
		<path class="st10" d="M915.4,334c0.9,0,1.9-0.1,2.6-0.4c0.1-0.5,0.2-1.2,0.2-2.4v-14.4l3.7-1l0.3,0.2v15c0,5.6-2.9,7-7.6,7
			L915.4,334z"/>
		<path class="st10" d="M926.1,338v-21.2l3.7-1l0.3,0.2l-0.1,21.4l-3.7,0.8L926.1,338z"/>
		<path class="st10" d="M458.3,385.1c0-2.4,1.3-4.7,3.1-7l1.9,1.2c-0.9,1.2-1.6,2.5-1.6,3.4c0,1.3,1.5,1.1,1.5,3
			c0,1.2-0.9,2.5-2.4,2.5C459.2,388.2,458.3,387,458.3,385.1z"/>
		<path class="st10" d="M480.2,385.3c0,1.5-0.5,2.7-2.1,2.7c-2.2,0-3.9-0.6-4.9-2.1c-1,0.4-1.9,0.5-2.8,0.5c-3.3,0-5.4-1.7-5.4-4.1
			c0-2.7,2.5-5.6,7.3-7.3v-1.5l3.5-1.4l0.3,0.1v9.6c0,1.7,0.6,2.2,2.9,2.2C479.9,384,480.2,384.6,480.2,385.3z M472.2,382.4v-0.6v-3
			c-2.1,0.5-3.8,1.5-4.2,2.5c0.3,0.9,1.6,1.3,2.7,1.3C471.3,382.5,471.8,382.5,472.2,382.4z"/>
		<path class="st10" d="M484.4,375.7c1,2.3,1.7,5.1,1.7,6.6c0,1.7-0.5,3.2-1.6,4.3c-1,1-2.4,1.4-5.4,1.4h-1l0.8-4h0.9
			c1.1,0,2.5-0.1,2.9-0.3c0.2-1.2-0.7-3.4-1.7-5.5l3-2.6H484.4z M481.3,373.2l-3.1-2.3l1.9-3l2.9,2.1l1.4-2.1l3.1,2.2l-1.9,3.1
			l-3-2.2L481.3,373.2z"/>
		<path class="st10" d="M489.6,381.5v-14.7l3.5-1l0.3,0.2v15.2c0,2.2,0.8,2.8,3,2.8c0.9,0,1.2,0.5,1.2,1.3c0,1.6-0.6,2.7-2,2.7
			C491.6,388,489.6,386.1,489.6,381.5z"/>
		<path class="st10" d="M507.8,371.9l-6.4,3.4c4.9,3.5,5.8,5.4,5.8,7.2c0,3.2-2.3,5.5-8.5,5.5h-3l0.8-4h2c2.4,0,4.8-0.4,5.6-0.8
			c0-1.5-3.5-4-6.5-5.9l-0.2-0.2l0.9-4.5l10.5-5.7l0.3,0.2L507.8,371.9z"/>
		<path class="st10" d="M522.2,385.3c0,1.5-0.5,2.7-2,2.7c-1.1,0-1.8-0.2-2.5-0.5c-1.2,3.2-4.7,5.5-9.1,6.3l-2-2.9l0.2-0.3
			c4.8-0.9,7.6-3,8.5-5c-0.7-1.6-1.5-3.4-2.2-5.1l2.7-3.3h0.4l1.3,3.9c0.9,2.5,1.5,2.8,3.6,2.8C521.9,384,522.2,384.6,522.2,385.3z"
			/>
		<path class="st10" d="M521,384h0.3c1.1,0,2.5-0.1,2.9-0.3c0.2-1.2-0.7-3.4-1.7-5.5l3.1-2.6h0.3c1,2.3,1.7,5.1,1.7,6.6
			c0,1.7-0.5,3.1-1.6,4.3c-1,1-2.4,1.4-5.4,1.4h-0.4L521,384z M522,393.5l2-3.1l3.2,2.3l-2,3.2L522,393.5z"/>
		<path class="st10" d="M540.9,384.8c0,4.4-3.2,8.8-10.1,8.9l-1.8-3l0.2-0.4c4.2-0.1,7-1.3,8.1-3.4c-0.7,0.1-1.5,0.2-2.4,0.2
			c-2.8,0-4.2-1.5-4.2-3.8c0-3,2.2-6.6,5-6.6C539,376.7,540.9,380.4,540.9,384.8z M535.7,383.6c0.8,0,1.4-0.1,2.1-0.2
			c-0.2-1.6-1.1-3-2.3-3c-1.1,0-1.9,1.2-1.9,2.2C533.7,383.3,534.3,383.6,535.7,383.6z"/>
		<path class="st10" d="M579,365.8l0.3,0.2v15c0,5.3-2.5,6.8-6.7,7h-0.2c0,0-0.1,0-0.1,0H572c-1.1-0.1-2.5-0.5-3.5-1.8
			c-1,1.3-2.5,1.8-5.2,1.8h-0.2c0,0-0.1,0-0.1,0h-0.2c-2.1-0.1-3.6-0.7-4.6-2.1c-1,0.4-1.9,0.5-2.8,0.5c-3.3,0-5.4-1.7-5.4-4.1
			c0-2.7,2.5-5.6,7.3-7.3v-1.5l3.5-1.4l0.3,0.1v9.6c0,1.6,0.5,2.2,2.7,2.2c0.8,0,1.7-0.1,2.3-0.4c0.1-0.5,0.2-1.2,0.2-2.4v-10.9
			l3.5-1l0.3,0.2v11.7c0,2.4,0.7,2.8,2.8,2.8c0.8,0,1.7-0.1,2.3-0.4c0.1-0.5,0.2-1.2,0.2-2.4v-14.4L579,365.8z M557.4,382.4v-0.6v-3
			c-2.1,0.5-3.8,1.5-4.2,2.5c0.3,0.9,1.6,1.3,2.7,1.3C556.4,382.5,556.9,382.5,557.4,382.4z M563.7,364.6c0-0.4,0.1-1.3,0.3-1.9
			l2.1-0.1c-0.1,0.5-0.1,1.1-0.1,1.4c0,0.8,0.2,1.1,0.7,1.1c0.6,0,0.8-0.4,0.8-2.3l1.9-0.2c0,0.6,0,1,0,1.3c0,0.8,0.3,1.1,0.8,1.1
			c0.6,0,0.7-0.4,0.7-1.2c0-0.6-0.2-1.2-0.3-1.8l2.1-0.5c0.2,0.8,0.5,1.6,0.5,2.5c0,1.9-0.9,3.3-2.9,3.3c-0.8,0-1.4-0.3-1.8-0.8
			c-0.5,0.5-1.2,0.8-2,0.8C564.3,367.5,563.7,366.1,563.7,364.6z M569.7,360.9H567v-4.1h2.7V360.9z M586.7,366l-0.1,21.4l-3.5,0.8
			l-0.2-0.2v-21.2l3.5-1L586.7,366z"/>
		<path class="st10" d="M611.3,385.3c0,1.5-0.5,2.7-2.1,2.7c-2.2,0-3.9-0.6-4.9-2.1c-1,0.4-1.9,0.5-2.8,0.5c-3.3,0-5.4-1.7-5.4-4.1
			c0-2.7,2.5-5.6,7.3-7.3v-1.5l3.5-1.4l0.3,0.1v9.6c0,1.7,0.6,2.2,2.9,2.2C611.1,384,611.3,384.6,611.3,385.3z M600.8,369.9
			l-3.1-2.3l1.9-3l2.9,2.1l1.4-2.1l3.1,2.2l-1.9,3.1l-3-2.2L600.8,369.9z M603.4,382.4v-0.6v-3c-2.1,0.5-3.8,1.5-4.2,2.5
			c0.3,0.9,1.6,1.3,2.7,1.3C602.5,382.5,602.9,382.5,603.4,382.4z"/>
		<path class="st10" d="M627.5,385.3c0,1.6-0.6,2.7-2.1,2.7c-1.3,0-2.3-0.3-3.1-1.1c-0.6,1-1.4,1.5-2.6,1.5c-1.3,0-3.3-0.7-5.4-2.2
			c-1.2,1.6-2.8,1.8-5,1.8l0.8-4c1.3,0,1.7-0.2,2.4-1.5c1.7-3,3.2-5.8,5.7-5.8c2.2,0,3.4,2.1,4.7,4.8c1,2.1,1.5,2.6,3.3,2.6
			C627.2,384,627.5,384.6,627.5,385.3z M620.6,384.1l-0.1-0.2c-0.9-2.3-1.7-3.4-2.4-3.4c-0.7,0-1.4,1.2-2.2,2.8
			c1.2,0.8,2.4,1.4,3.3,1.4C619.9,384.7,620.3,384.4,620.6,384.1z"/>
		<path class="st10" d="M643.2,380.1l-1,3.8c-2.1,0.3-5,1-8.1,2.1c-4.2,1.5-6.4,2-8.6,2l0.8-4c2.4,0,4-0.2,7.9-1.2
			c1.3-0.4,2.3-0.6,3.2-0.9c-0.4-0.2-0.9-0.4-1.5-0.7c-2.4-1.3-3.7-1.8-5-1.8c-1.4,0-2.5,0.3-3.5,0.6l-0.2-0.2l1.3-3.5
			c0.7-0.4,1.8-0.7,2.8-0.7c1.4,0,2.6,0.5,5.7,2.1C640.3,379.5,641.8,380,643.2,380.1z"/>
		<path class="st10" d="M640.4,390.9l0.2-0.3c5-0.9,8.5-3.4,8.5-4.5c-0.1-1.1-1.1-3.6-2.2-5.5l2.7-3.2h0.3c1.4,2.6,2,5.7,2,7.7
			c0,1.2-0.2,2.5-0.9,3.7c-1.3,2.5-4.7,4.5-8.7,5.2L640.4,390.9z"/>
		<path class="st10" d="M665.4,384.8c0,4.4-3.2,8.8-10.1,8.9l-1.8-3l0.2-0.4c4.2-0.1,7-1.3,8.1-3.4c-0.7,0.1-1.5,0.2-2.4,0.2
			c-2.8,0-4.2-1.5-4.2-3.8c0-3,2.2-6.6,5-6.6C663.4,376.7,665.4,380.4,665.4,384.8z M660.2,383.6c0.8,0,1.4-0.1,2.1-0.2
			c-0.2-1.6-1.1-3-2.2-3c-1.1,0-1.9,1.2-1.9,2.2C658.2,383.3,658.7,383.6,660.2,383.6z"/>
		<path class="st10" d="M699.7,385.3c0,1.5-0.4,2.7-2.1,2.7h-1.3c-0.5,3.8-5.4,6-12.1,6c-6.3,0-9.2-2.9-9.2-6.8
			c0-1.2,0.2-2.5,0.5-3.6l3.1-1.1l0.3,0.2c-0.2,1.3-0.3,2-0.3,2.8c0,2.8,1.4,4.6,6.2,4.6c3.6,0,7.2-0.7,8.2-1.9
			c0-0.8-0.9-1.3-4.2-2.2l1.1-3.8c3.2,1,5.6,1.9,8.5,1.9C699.4,384,699.7,384.6,699.7,385.3z M685.8,396.3l3.1,2.2l-1.9,3.1
			l-2.9-2.2l-1.4,2.2l-3.1-2.3l1.9-3l3,2.2L685.8,396.3z"/>
		<path class="st10" d="M709.9,385.3c0,1.5-0.5,2.7-2,2.7s-3.5-0.5-4.7-1.5c-1.2,1-2.7,1.5-4.9,1.5h-0.6l0.8-4h0.5
			c1.2,0,2-0.1,2.4-0.4c0.3-0.8,0.7-2.4,1-4.5l3.9-1l0.3,0.2c-0.4,1.9-0.9,3.6-1.5,5c0.9,0.4,2,0.6,3.4,0.6
			C709.6,384,709.9,384.6,709.9,385.3z M702.4,390.3l3.2,2.3l-2,3.2l-3.3-2.4L702.4,390.3z"/>
		<path class="st10" d="M720,385.3c0,1.5-0.5,2.7-2,2.7s-3.5-0.5-4.7-1.5c-1.2,1-2.7,1.5-4.9,1.5h-0.6l0.8-4h0.5
			c1.2,0,2-0.1,2.4-0.4c0.3-0.8,0.7-2.4,1-4.5l3.9-1l0.3,0.2c-0.4,1.9-0.9,3.6-1.5,5c0.9,0.4,2,0.6,3.4,0.6
			C719.7,384,720,384.6,720,385.3z M715,375.5l-3.3-2.4l2-3.1l3.2,2.4L715,375.5z"/>
		<path class="st10" d="M718.8,384c0.9,0,1.8-0.1,2.4-0.4c0.1-0.5,0.2-1.2,0.2-2.4v-14.4l3.5-1l0.3,0.2v15c0,5.6-2.7,7-7.3,7
			L718.8,384z"/>
		<path class="st10" d="M729,388v-21.2l3.5-1l0.3,0.2l-0.1,21.4l-3.5,0.8L729,388z"/>
		<path class="st10" d="M743.4,381.5v-14.7l3.5-1l0.3,0.2v15.2c0,2.2,0.8,2.8,3,2.8c0.9,0,1.2,0.5,1.2,1.3c0,1.6-0.6,2.7-2,2.7
			C745.4,388,743.4,386.1,743.4,381.5z"/>
		<path class="st10" d="M765.6,385.3c0,1.8-0.7,2.7-2,2.7h-1.8c0.5,0.7,0.7,1.5,0.7,2.3c0,2.5-2.1,4.1-4.6,4.1
			c-3.7,0-6.2-2.3-6.7-6.4h-1.9l0.8-4h1.2c0.6-2.8,1.9-5.8,3.7-8l2.5-1.5l0.2,0c2.9,2.2,4.2,4.1,4.2,6c0,1.2-0.6,2.8-1.5,3.5h3.9
			C765.2,384,765.6,384.5,765.6,385.3z M756,387.7c-0.4,0-0.9,0.1-1.3,0.2c0.4,1.9,1.8,3,3.6,3c0.6,0,1.1-0.2,1.3-0.4
			C759.7,389.2,758.2,387.7,756,387.7z M754.9,384.3c2.1-0.2,3.6-1.3,3.6-3.3c0-0.9-0.4-1.7-1.2-2.7
			C755.9,380.1,755.2,382.2,754.9,384.3z"/>
		<path class="st10" d="M771,395.7l-2.9-2.2l-1.4,2.2l-3.1-2.3l1.9-3l3,2.2l1.4-2.2l3.1,2.2L771,395.7z M764.6,388h-1l0.8-4h0.9
			c1.1,0,2.5-0.1,2.9-0.3c0.2-1.2-0.7-3.4-1.7-5.5l3-2.6h0.3c1,2.3,1.7,5.1,1.7,6.6c0,1.7-0.5,3.2-1.6,4.3
			C769,387.6,767.6,388,764.6,388z"/>
		<path class="st10" d="M781.3,363.9c-1.5,0.2-3.5,0.4-5.9,0.4l-0.2-2.3c0.4,0,0.9,0,1.4,0c-0.4-0.6-0.7-1.3-0.7-2
			c0-1.6,1-2.8,2.7-2.8c0.6,0,1.5,0.2,2.2,0.5l-0.5,2.1c-0.5-0.2-1-0.3-1.3-0.3c-0.7,0-1,0.4-1,1c0,0.5,0.2,0.9,0.6,1.3
			c0.9-0.1,1.8-0.1,2.6-0.2L781.3,363.9z M779.8,365.8l0.3,0.2l-0.1,21.4l-3.5,0.8l-0.2-0.2v-21.2L779.8,365.8z"/>
		<path class="st10" d="M816.4,385.3c0,1.5-0.5,2.7-2,2.7c-1.6,0-3-0.5-4-1.8c-1.4,1.5-3.9,2.1-8.3,2.1h-1.9c-6.7,0-10.4-2.1-10.4-6
			c0-1.4,0.2-2.6,0.5-3.9l2.7-1.1l0.3,0.2c-0.2,1-0.3,1.8-0.3,2.7c0,3.3,2.4,4.2,8.4,4.2h1.7c2.4,0,4.4-0.4,5-0.8
			c0.1-0.5,0.2-1.2,0.2-2.4v-14.4l3.5-1l0.3,0.2v14.3c0,2.8,0.5,3.6,3,3.6C816.2,384,816.4,384.6,816.4,385.3z M798.3,376.8
			c0.5,0,0.9,0,1.4,0c-0.4-0.6-0.7-1.3-0.7-2c0-1.6,1-2.8,2.7-2.8c0.6,0,1.5,0.2,2.2,0.5l-0.5,2c-0.5-0.2-1-0.3-1.3-0.3
			c-0.6,0-1.1,0.3-1.1,1c0,0.5,0.2,1,0.6,1.4c0.9-0.1,1.8-0.1,2.6-0.2l0.2,2.1c-1.5,0.2-3.6,0.4-6,0.4L798.3,376.8z"/>
		<path class="st10" d="M827.4,385.3c0,1.5-0.5,2.7-2,2.7c-2.3,0-4.3-0.5-5.5-1.5c-1.1,1-2.5,1.5-4.4,1.5h-1l0.8-4h0.7
			c0.8,0,1.7-0.1,2.1-0.4c0.3-0.8,0.7-2.4,1.1-4.5l3.9-1l0.3,0.2c-0.4,1.9-0.9,3.6-1.4,5c0.9,0.4,2.2,0.6,4.3,0.6
			C827.1,384,827.4,384.6,827.4,385.3z M821.5,390.3l3.1,2.2l-1.9,3.1l-2.9-2.2l-1.4,2.2l-3.1-2.3l1.9-3l3,2.2L821.5,390.3z"/>
		<path class="st10" d="M836.8,385.3c0,1.5-0.5,2.7-2,2.7c-1.2,0-2.8-0.3-3.8-1.8c-1.1,1.4-2.6,1.8-5.6,1.8l0.8-4
			c0.9,0,1.8-0.1,2.4-0.4c0.1-0.5,0.2-1.2,0.2-2.4v-14.4l3.5-1l0.3,0.2v15.2c0,2.5,0.7,2.8,3,2.8C836.5,384,836.8,384.6,836.8,385.3
			z"/>
		<path class="st10" d="M849.4,383.6l-1.1,3.6c-2.4,0.5-6.1,0.8-13.5,0.8l0.8-4h2.2c-0.5-1-0.8-2-0.8-3.1c0-4,2.8-6.2,6.4-6.2
			c1.4,0,3.1,0.4,4.4,1l-0.4,3.4l-0.1,0.1c-1-0.3-2.2-0.6-3.1-0.6c-1.8,0-2.8,0.9-2.8,2.7c0,0.8,0.4,1.8,1,2.7
			c2.5-0.1,4.7-0.3,6.9-0.5L849.4,383.6z"/>
		<path class="st10" d="M871.5,384.5c0,2.7-0.7,4-2.4,4c-1.1,0-2.5-0.2-3.9-0.2c-0.9,0-1.9,0.2-2.7,0.5c-0.5,2.3,0.6,6.8,0.9,9.2
			l-3.4,1.6l-0.3-0.2c-0.4-2.7-1.2-6.3-1.2-8.3c0-3,2.1-6.7,6.7-6.7c1,0,2.1,0.1,3,0.3c-0.2-2.2-1.7-4.2-3.3-4.2
			c-1,0-1.9,0.8-2.4,2.5l-1.6,0.2l-0.3-0.2c0.3-4,2.8-6.3,5.2-6.3C869.3,376.7,871.5,380.8,871.5,384.5z"/>
		<path class="st10" d="M891.8,385.3c0,1.6-0.6,2.7-2,2.7c-3,0-4.9-1.1-5.7-3.6c-2.5,2.8-5.7,3.7-8.8,3.7l-1.8-3.8l0.1-0.2
			c2.3-0.1,4.8-0.4,6.9-1.3c-1.5-2.6-3.3-4.7-6.7-8l1.2-4.2l0.2-0.1c3.8,3.8,6.7,8.1,7.8,10.5c0.2-0.3,0.5-0.6,0.7-1v-13.2l3.5-1
			l0.3,0.2v15.2c0,2.2,0.8,2.8,3,2.8C891.4,384,891.8,384.5,891.8,385.3z"/>
		<path class="st10" d="M917.5,385.3c0,1.5-0.5,2.7-2,2.7c-1.5,0-3.3-0.5-4.6-1.4c-1,0.9-2.4,1.4-3.9,1.4h0h0c-1.7,0-2.9-0.4-4-0.9
			c-0.8,0.6-1.7,0.9-2.9,0.9c-1.9,0-3.6-0.7-4.7-1.4c-1.2,1-2.9,1.4-5.7,1.4l0.8-4c2,0,2.8-0.1,3.3-0.4c0.2-0.6,0.5-2.2,0.7-3.6
			l4.1-0.7l0.1,0.1c-0.5,1.6-0.9,2.9-1.4,4c0.9,0.3,2,0.5,3,0.5c0.5,0,0.9-0.1,1.1-0.3c0.2-0.4,0.6-2.2,0.9-3.7l3.8-0.7l0.1,0.1
			c-0.5,1.6-0.9,3-1.3,4.2c0.8,0.2,1.5,0.3,2.3,0.3c0.6,0,1.2-0.1,1.7-0.4c0.1-0.4,0.2-0.9,0.2-1.7c0-0.9-0.1-2-0.2-3l3.8-1.5
			l0.2,0.1c0.1,0.8,0.1,1.4,0.1,2.1c0,1.4-0.2,2.7-0.5,3.7c0.9,0.4,2.1,0.6,3.5,0.6C917.1,384,917.5,384.6,917.5,385.3z"/>
		<path class="st10" d="M916.2,384c0.9,0,1.8-0.1,2.4-0.4c0.1-0.5,0.2-1.2,0.2-2.4v-14.4l3.5-1l0.3,0.2v15c0,5.6-2.7,7-7.3,7
			L916.2,384z"/>
		<path class="st10" d="M926.4,388v-21.2l3.5-1l0.3,0.2l-0.1,21.4l-3.5,0.8L926.4,388z"/>
		<path class="st10" d="M485,435.1c0-2.4,1.3-4.7,3.2-7l2,1.2c-0.9,1.2-1.7,2.5-1.7,3.4c0,1.3,1.6,1.1,1.6,3c0,1.2-0.9,2.5-2.5,2.5
			C486,438.2,485,437,485,435.1z"/>
		<path class="st10" d="M514.3,435.3c0,1.5-0.5,2.7-2.1,2.7c-0.8,0-1.5-0.2-2.1-0.6c-1.2,4.5-4.9,6.5-9.8,6.5c-5,0-7.8-2.7-7.8-6.7
			c0-1.5,0.4-3,0.6-3.9l2.9-1.1l0.4,0.1c-0.2,1.2-0.2,2.1-0.2,3c0,2.6,1.2,4.5,5,4.5c2.8,0,4.7-1.1,5.5-2.2c0.4-2-0.6-4.4-1.8-6.9
			l3.5-2.5h0.2c0.3,0.7,1.1,3.5,1.5,4.2c0.5,1,1.3,1.4,3,1.4C513.9,434,514.3,434.6,514.3,435.3z M501.2,427.9l-3.4-2.4l2.1-3.1
			l3.4,2.4L501.2,427.9z"/>
		<path class="st10" d="M525.8,435.3c0,1.5-0.5,2.7-2.1,2.7c-2.4,0-4.6-0.5-5.8-1.5c-1.2,1-2.6,1.5-4.7,1.5h-1.1l0.9-4h0.7
			c0.8,0,1.8-0.1,2.2-0.4c0.3-0.8,0.7-2.4,1.1-4.5l4.1-1l0.3,0.2c-0.4,1.9-0.9,3.6-1.5,5c0.9,0.4,2.4,0.6,4.5,0.6
			C525.5,434,525.8,434.6,525.8,435.3z M519.6,440.3l3.3,2.2l-2,3.1l-3.1-2.2l-1.5,2.2l-3.3-2.3l2-3l3.2,2.2L519.6,440.3z"/>
		<path class="st10" d="M546,435.3c0,1.5-0.5,2.7-2.1,2.7c-5.2,0-7-1.3-8.3-3.5l-1.2,0.6c-4.4,2.2-7.3,2.9-10.8,2.9l0.9-4
			c3.2,0,5.1-0.4,8.8-1.7c1-0.4,1.8-0.6,2.5-0.9c-0.3-0.1-0.7-0.3-1.1-0.5c-2.6-1.2-4-1.6-5.3-1.6c-1.4,0-2.6,0.3-3.7,0.6l-0.2-0.1
			l1.4-3.6c0.7-0.4,1.9-0.7,2.9-0.7c1.1,0,2.4,0.4,4.9,1.5c3.4,1.5,5.4,2,7.6,2.1l-0.7,3.6c-0.9,0-1.7,0.1-2.7,0.4
			c1,0.6,2.6,0.8,5.8,0.8C545.7,434,546,434.6,546,435.3z"/>
		<path class="st10" d="M544.7,434c0.9,0,1.9-0.1,2.6-0.4c0.1-0.5,0.2-1.2,0.2-2.4v-14.4l3.7-1l0.3,0.2v15c0,5.6-2.9,7-7.6,7
			L544.7,434z"/>
		<path class="st10" d="M555.4,431.5v-14.7l3.7-1l0.3,0.2v15.2c0,2.2,0.9,2.8,3.2,2.8c0.9,0,1.3,0.5,1.3,1.3c0,1.6-0.6,2.7-2.1,2.7
			C557.5,438,555.4,436.1,555.4,431.5z"/>
		<path class="st10" d="M591.6,435.3c0,1.5-0.5,2.7-2.1,2.7c-1.5,0-3.4-0.4-4.7-1.3c-1.8,1.2-4,1.3-8.1,1.3h-3.4
			c-3.4,0-5.2-0.1-7.3-1c-1.1,0.7-2.4,1-4.3,1l0.9-4c0.7,0,1.6-0.1,2.1-0.3c0.3-0.7,0.5-1.8,0.8-3.3l4.3-0.6l0.1,0.1
			c-0.5,1.5-0.9,2.7-1.4,3.7c0.7,0.2,1.6,0.3,2.6,0.3c5.4-5.2,8.7-7.9,11.6-7.9c3.1,0,4.9,3.1,4.9,5.6c0,0.7-0.1,1.3-0.3,1.9
			c0.8,0.3,1.9,0.4,3.2,0.4C591.3,434,591.6,434.6,591.6,435.3z M584,433.6c0.2-0.3,0.3-0.7,0.3-1.2c0-1.1-0.8-2.5-2.1-2.5
			c-1.5,0-4,1.5-7.1,4.2h3.1C582,434,583.2,433.9,584,433.6z"/>
		<path class="st10" d="M590.4,434c0.9,0,1.9-0.1,2.6-0.4c0.1-0.5,0.2-1.2,0.2-2.4v-14.4l3.7-1l0.3,0.2v15c0,5.6-2.9,7-7.6,7
			L590.4,434z"/>
		<path class="st10" d="M601,438v-21.2l3.7-1l0.3,0.2l-0.1,21.4l-3.7,0.8L601,438z"/>
		<path class="st10" d="M645.4,415.8l0.3,0.2v15c0,5.3-2.6,6.8-7,7h-0.2c0,0-0.1,0-0.1,0H638c-1.2-0.1-2.7-0.5-3.6-1.8
			c-1.1,1.3-2.6,1.8-5.4,1.8h-0.2c0,0-0.1,0-0.1,0h-0.2c-2.2-0.1-3.8-0.7-4.8-2.1c-1,0.4-2,0.5-3,0.5c-3.5,0-5.7-1.7-5.7-4.1
			c0-2.7,2.7-5.6,7.7-7.3v-1.5l3.7-1.4l0.3,0.1v9.6c0,1.6,0.6,2.2,2.8,2.2c0.9,0,1.8-0.1,2.4-0.4c0.1-0.5,0.2-1.2,0.2-2.4v-10.9
			l3.7-1l0.3,0.2v11.7c0,2.4,0.7,2.8,2.9,2.8c0.9,0,1.8-0.1,2.4-0.4c0.1-0.5,0.2-1.2,0.2-2.4v-14.4L645.4,415.8z M622.6,432.4v-0.6
			v-3c-2.2,0.5-4,1.5-4.4,2.5c0.3,0.9,1.7,1.3,2.8,1.3C621.7,432.5,622.2,432.5,622.6,432.4z M629.3,414.6c0-0.4,0.1-1.3,0.3-1.9
			l2.2-0.1c-0.1,0.5-0.1,1.1-0.1,1.4c0,0.8,0.3,1.1,0.8,1.1c0.6,0,0.9-0.4,0.9-2.3l2-0.2c0,0.6,0,1,0,1.3c0,0.8,0.4,1.1,0.9,1.1
			c0.6,0,0.8-0.4,0.8-1.2c0-0.6-0.2-1.2-0.3-1.8l2.2-0.5c0.3,0.8,0.5,1.6,0.5,2.5c0,1.9-1,3.3-3.1,3.3c-0.8,0-1.5-0.3-1.9-0.8
			c-0.5,0.5-1.2,0.8-2.1,0.8C630,417.5,629.3,416.1,629.3,414.6z M635.6,410.9h-2.8v-4.1h2.8V410.9z M653.5,416l-0.1,21.4l-3.7,0.8
			l-0.3-0.2v-21.2l3.7-1L653.5,416z"/>
		<path class="st10" d="M663.5,437.9l0.6-3.9l0.2-0.1c0.7,0.2,2.6,0.3,3.7,0.3c1.4,0,3.8-0.2,4.6-0.6c-0.5-1.9-2.9-4.9-5.2-7
			l2.5-3.6h0.3c3,3.2,5.5,6.8,5.5,9.8c0,3.6-3.2,5.5-7.9,5.5C666.4,438.3,664.4,438.1,663.5,437.9z"/>
		<path class="st10" d="M679.1,431.5v-14.7l3.7-1l0.3,0.2v15.2c0,2.2,0.9,2.8,3.2,2.8c0.9,0,1.3,0.5,1.3,1.3c0,1.6-0.6,2.7-2.1,2.7
			C681.2,438,679.1,436.1,679.1,431.5z"/>
		<path class="st10" d="M698.3,435.3c0,1.5-0.5,2.7-2.1,2.7c-1.6,0-3.7-0.5-5-1.5c-1.2,1-2.8,1.5-5.1,1.5h-0.6l0.9-4h0.6
			c1.2,0,2.1-0.1,2.5-0.4c0.3-0.8,0.7-2.4,1.1-4.5l4.1-1l0.3,0.2c-0.4,1.9-0.9,3.6-1.5,5c0.9,0.4,2.1,0.6,3.6,0.6
			C698,434,698.3,434.6,698.3,435.3z M690.5,440.3l3.4,2.3l-2.1,3.2l-3.4-2.4L690.5,440.3z"/>
		<path class="st10" d="M711.5,433.6l-1.2,3.6c-2.5,0.5-6.4,0.8-14.2,0.8l0.9-4h2.3c-0.5-1-0.8-2-0.8-3.1c0-4,3-6.2,6.7-6.2
			c1.5,0,3.2,0.4,4.6,1l-0.4,3.4l-0.1,0.1c-1-0.3-2.3-0.6-3.3-0.6c-1.9,0-3,0.9-3,2.7c0,0.8,0.4,1.8,1.1,2.7c2.6-0.1,5-0.3,7.2-0.5
			L711.5,433.6z"/>
		<path class="st10" d="M721.3,437.2c0-1.2,0.3-2.5,0.5-3.6l3.3-1.1l0.4,0.2c-0.3,1.3-0.4,2-0.4,2.8c0,2.8,1.5,4.6,6.5,4.6
			c3.8,0,7.6-0.7,8.6-1.9c0-0.7-0.8-1.6-5.2-2.5l1.1-3.4c6.1,1.4,7.6,3,7.6,5c-0.2,4.3-5.7,6.8-12.8,6.8
			C724.4,444,721.3,441,721.3,437.2z"/>
		<path class="st10" d="M753.3,434.9c0,1.5-0.5,2.7-2.1,2.7c-2.6,0-4.4-1.2-5.3-3.5c-1.6,0.8-3.8,1.2-7.2,1.3l-2.6-3.3
			c3.4-0.1,7.1-0.6,8.5-1.2c0.2-0.6,0.3-1.6,0.3-2.4v-12l3.7-1l0.3,0.2v13c0,3.1,0.5,5,3.2,5C753.1,433.7,753.3,434.2,753.3,434.9z"
			/>
		<path class="st10" d="M766.6,433.2l-1.2,3.6c-2.5,0.5-6.4,0.8-14.2,0.8l0.9-4h2.3c-0.5-1-0.8-2-0.8-3.1c0-4,3-6.2,6.7-6.2
			c1.5,0,3.2,0.4,4.6,1l-0.4,3.4l-0.1,0.1c-1-0.3-2.3-0.6-3.3-0.6c-1.9,0-3,0.9-3,2.7c0,0.8,0.4,1.8,1.1,2.7c2.6-0.1,5-0.3,7.2-0.5
			L766.6,433.2z"/>
		<path class="st10" d="M780.3,434.8c0,4.4-3.4,8.8-10.6,8.9l-1.9-3l0.2-0.4c4.4-0.1,7.4-1.3,8.5-3.4c-0.8,0.1-1.6,0.2-2.6,0.2
			c-3,0-4.4-1.5-4.4-3.8c0-3,2.3-6.6,5.3-6.6C778.3,426.7,780.3,430.4,780.3,434.8z M774.8,433.6c0.8,0,1.5-0.1,2.2-0.2
			c-0.3-1.6-1.2-3-2.4-3c-1.1,0-2,1.2-2,2.2C772.7,433.3,773.3,433.6,774.8,433.6z"/>
		<path class="st10" d="M791.2,431.5v-14.7l3.7-1l0.3,0.2v15.2c0,2.2,0.9,2.8,3.2,2.8c0.9,0,1.3,0.5,1.3,1.3c0,1.6-0.6,2.7-2.1,2.7
			C793.3,438,791.2,436.1,791.2,431.5z"/>
		<path class="st10" d="M810.4,435.3c0,1.5-0.5,2.7-2.1,2.7c-1.6,0-3.7-0.5-5-1.5c-1.2,1-2.8,1.5-5.1,1.5h-0.6l0.9-4h0.6
			c1.2,0,2.1-0.1,2.5-0.4c0.3-0.8,0.7-2.4,1.1-4.5l4.1-1l0.3,0.2c-0.4,1.9-0.9,3.6-1.5,5c0.9,0.4,2.1,0.6,3.6,0.6
			C810,434,810.4,434.6,810.4,435.3z M805,425.5l-3.4-2.4l2.1-3.1l3.4,2.4L805,425.5z"/>
		<path class="st10" d="M821.9,435.3c0,1.5-0.5,2.7-2.1,2.7c-2.4,0-4.6-0.5-5.8-1.5c-1.2,1-2.6,1.5-4.7,1.5h-1.1l0.9-4h0.7
			c0.8,0,1.8-0.1,2.2-0.4c0.3-0.8,0.7-2.4,1.1-4.5l4.1-1l0.3,0.2c-0.4,1.9-0.9,3.6-1.5,5c0.9,0.4,2.4,0.6,4.5,0.6
			C821.6,434,821.9,434.6,821.9,435.3z M815.7,440.3l3.3,2.2l-2,3.1l-3.1-2.2l-1.5,2.2l-3.3-2.3l2-3l3.2,2.2L815.7,440.3z"/>
		<path class="st10" d="M831.8,435.3c0,1.5-0.5,2.7-2.1,2.7c-1.2,0-2.9-0.3-4-1.8c-1.1,1.4-2.8,1.8-5.9,1.8l0.9-4
			c0.9,0,1.9-0.1,2.6-0.4c0.1-0.5,0.2-1.2,0.2-2.4v-14.4l3.7-1l0.3,0.2v15.2c0,2.5,0.7,2.8,3.2,2.8
			C831.5,434,831.8,434.6,831.8,435.3z"/>
		<path class="st10" d="M845.1,433.6l-1.2,3.6c-2.5,0.5-6.4,0.8-14.2,0.8l0.9-4h2.3c-0.5-1-0.8-2-0.8-3.1c0-4,3-6.2,6.7-6.2
			c1.5,0,3.2,0.4,4.6,1l-0.4,3.4l-0.1,0.1c-1-0.3-2.3-0.6-3.3-0.6c-1.9,0-3,0.9-3,2.7c0,0.8,0.4,1.8,1.1,2.7c2.6-0.1,5-0.3,7.2-0.5
			L845.1,433.6z"/>
		<path class="st10" d="M868.3,434.5c0,2.7-0.7,4-2.5,4c-1.2,0-2.6-0.2-4.1-0.2c-1,0-2,0.2-2.8,0.5c-0.5,2.3,0.6,6.8,1,9.2l-3.6,1.6
			l-0.3-0.2c-0.4-2.7-1.2-6.3-1.2-8.3c0-3,2.2-6.7,7-6.7c1.1,0,2.2,0.1,3.1,0.3c-0.2-2.2-1.8-4.2-3.4-4.2c-1.1,0-2,0.8-2.5,2.5
			l-1.7,0.2l-0.3-0.2c0.3-4,3-6.3,5.4-6.3C866,426.7,868.3,430.8,868.3,434.5z"/>
		<path class="st10" d="M889.6,435.3c0,1.6-0.6,2.7-2.1,2.7c-3.2,0-5.2-1.1-6-3.6c-2.6,2.8-6,3.7-9.3,3.7l-1.9-3.8l0.1-0.2
			c2.5-0.1,5.1-0.4,7.2-1.3c-1.6-2.6-3.5-4.7-7-8l1.2-4.2l0.2-0.1c4,3.8,7,8.1,8.3,10.5c0.3-0.3,0.5-0.6,0.7-1v-13.2l3.7-1l0.3,0.2
			v15.2c0,2.2,0.9,2.8,3.2,2.8C889.3,434,889.6,434.5,889.6,435.3z"/>
		<path class="st10" d="M916.7,435.3c0,1.5-0.5,2.7-2.1,2.7c-1.5,0-3.5-0.5-4.8-1.4c-1.1,0.9-2.5,1.4-4.1,1.4h0h0
			c-1.8,0-3.1-0.4-4.2-0.9c-0.8,0.6-1.8,0.9-3,0.9c-2,0-3.8-0.7-4.9-1.4c-1.3,1-3.1,1.4-6,1.4l0.9-4c2.1,0,2.9-0.1,3.5-0.4
			c0.3-0.6,0.6-2.2,0.8-3.6l4.3-0.7l0.1,0.1c-0.5,1.6-1,2.9-1.4,4c0.9,0.3,2.1,0.5,3.2,0.5c0.5,0,0.9-0.1,1.2-0.3
			c0.3-0.4,0.6-2.2,1-3.7l4-0.7l0.1,0.1c-0.5,1.6-0.9,3-1.4,4.2c0.8,0.2,1.6,0.3,2.4,0.3c0.6,0,1.3-0.1,1.8-0.4
			c0.1-0.4,0.2-0.9,0.2-1.7c0-0.9-0.1-2-0.3-3l4-1.5l0.2,0.1c0.1,0.8,0.1,1.4,0.1,2.1c0,1.4-0.2,2.7-0.5,3.7
			c0.9,0.4,2.2,0.6,3.7,0.6C916.4,434,916.7,434.6,916.7,435.3z"/>
		<path class="st10" d="M915.4,434c0.9,0,1.9-0.1,2.6-0.4c0.1-0.5,0.2-1.2,0.2-2.4v-14.4l3.7-1l0.3,0.2v15c0,5.6-2.9,7-7.6,7
			L915.4,434z"/>
		<path class="st10" d="M926.1,438v-21.2l3.7-1l0.3,0.2l-0.1,21.4l-3.7,0.8L926.1,438z"/>
		<path class="st10" d="M721.5,465.8l0.3,0.2v15c0,5.3-2.6,6.8-7,7h-0.2c0,0-0.1,0-0.1,0h-0.3c-1.2-0.1-2.7-0.5-3.6-1.8
			c-1.1,1.3-2.6,1.8-5.4,1.8h-0.2c0,0-0.1,0-0.1,0h-0.2c-2.2-0.1-3.8-0.7-4.8-2.1c-1,0.4-2,0.5-3,0.5c-3.5,0-5.7-1.7-5.7-4.1
			c0-2.7,2.7-5.6,7.7-7.3v-1.5l3.7-1.4l0.3,0.1v9.6c0,1.6,0.6,2.2,2.8,2.2c0.9,0,1.8-0.1,2.4-0.4c0.1-0.5,0.2-1.2,0.2-2.4v-10.9
			l3.7-1l0.3,0.2v11.7c0,2.4,0.7,2.8,2.9,2.8c0.9,0,1.8-0.1,2.4-0.4c0.1-0.5,0.2-1.2,0.2-2.4v-14.4L721.5,465.8z M698.7,482.4v-0.6
			v-3c-2.2,0.5-4,1.5-4.4,2.5c0.3,0.9,1.7,1.3,2.8,1.3C697.7,482.5,698.2,482.5,698.7,482.4z M705.3,464.6c0-0.4,0.1-1.3,0.3-1.9
			l2.2-0.1c-0.1,0.5-0.1,1.1-0.1,1.4c0,0.8,0.3,1.1,0.8,1.1c0.6,0,0.9-0.4,0.9-2.3l2-0.2c0,0.6,0,1,0,1.3c0,0.8,0.4,1.1,0.9,1.1
			c0.6,0,0.8-0.4,0.8-1.2c0-0.6-0.2-1.2-0.3-1.8l2.2-0.5c0.3,0.8,0.5,1.6,0.5,2.5c0,1.9-1,3.3-3.1,3.3c-0.8,0-1.5-0.3-1.9-0.8
			c-0.5,0.5-1.2,0.8-2.1,0.8C706,467.5,705.3,466.1,705.3,464.6z M711.6,460.9h-2.8v-4.1h2.8V460.9z M729.6,466l-0.1,21.4l-3.7,0.8
			l-0.3-0.2v-21.2l3.7-1L729.6,466z"/>
		<path class="st10" d="M750.1,479c1.1,1.5,1.7,3,1.7,4.4c0,2.9-1.7,4.6-6.6,4.6h-4.5l0.2-3.9c2.1-1.2,4.1-2.5,5.5-4.5
			c-2.1-1.9-4.9-3.9-6.8-5.1l1.2-3.9l0.2-0.1c2.7,2,5,4,6.8,5.9c0.2-0.9,0.4-1.9,0.4-3c0-1.8-0.4-4.4-0.8-5.8l3.6-1.8l0.3,0.1
			c0.3,1.6,0.7,4.5,0.7,6.3C752,475,751.2,477.2,750.1,479z M748.2,481.5c-1.1,1.1-2.2,2-3,2.6h0.7c1.9,0,2.8-0.2,3.3-0.6
			C749.2,482.9,748.9,482.2,748.2,481.5z"/>
		<path class="st10" d="M761.3,496.5c-1.6,0.2-3.7,0.4-6.2,0.4l-0.2-2.3c0.4,0,1,0,1.4,0c-0.4-0.6-0.7-1.3-0.7-2
			c0-1.6,1-2.8,2.8-2.8c0.7,0,1.5,0.2,2.4,0.5l-0.5,2.1c-0.6-0.2-1-0.3-1.4-0.3c-0.7,0-1.1,0.4-1.1,1c0,0.5,0.2,0.9,0.6,1.3
			c0.9-0.1,1.9-0.1,2.7-0.2L761.3,496.5z M756.3,488.2l-0.3-0.2v-21.2l3.7-1l0.3,0.2l-0.1,21.4L756.3,488.2z"/>
		<path class="st10" d="M786,485.3c0,1.5-0.6,2.7-2.2,2.7c-2.3,0-4.1-0.6-5.2-2.1c-1,0.4-2,0.5-3,0.5c-3.5,0-5.7-1.7-5.7-4.1
			c0-2.7,2.7-5.6,7.7-7.3v-1.5l3.7-1.4l0.3,0.1v9.6c0,1.7,0.6,2.2,3,2.2C785.7,484,786,484.6,786,485.3z M777.6,482.4v-0.6v-3
			c-2.2,0.5-4,1.5-4.4,2.5c0.3,0.9,1.7,1.3,2.8,1.3C776.7,482.5,777.2,482.5,777.6,482.4z"/>
		<path class="st10" d="M784.7,484c0.9,0,1.9-0.1,2.6-0.4c0.1-0.5,0.2-1.2,0.2-2.4v-14.4l3.7-1l0.3,0.2v15c0,5.6-2.9,7-7.6,7
			L784.7,484z"/>
		<path class="st10" d="M800.6,496.5c-1.6,0.2-3.7,0.4-6.2,0.4l-0.2-2.3c0.4,0,1,0,1.4,0c-0.4-0.6-0.7-1.3-0.7-2
			c0-1.6,1-2.8,2.8-2.8c0.7,0,1.5,0.2,2.4,0.5l-0.5,2.1c-0.6-0.2-1-0.3-1.4-0.3c-0.7,0-1.1,0.4-1.1,1c0,0.5,0.2,0.9,0.6,1.3
			c0.9-0.1,1.9-0.1,2.7-0.2L800.6,496.5z M795.7,488.2l-0.3-0.2v-21.2l3.7-1l0.3,0.2l-0.1,21.4L795.7,488.2z"/>
		<path class="st10" d="M820,479c1.1,1.5,1.7,3,1.7,4.4c0,2.9-1.7,4.6-6.6,4.6h-4.5l0.2-3.9c2.1-1.2,4.1-2.5,5.5-4.5
			c-2.1-1.9-4.9-3.9-6.8-5.1l1.2-3.9l0.2-0.1c2.7,2,5,4,6.8,5.9c0.2-0.9,0.4-1.9,0.4-3c0-1.8-0.4-4.4-0.8-5.8l3.6-1.8l0.3,0.1
			c0.3,1.6,0.7,4.5,0.7,6.3C821.8,475,821,477.2,820,479z M818.1,481.5c-1.1,1.1-2.2,2-3,2.6h0.7c1.9,0,2.8-0.2,3.3-0.6
			C819.1,482.9,818.7,482.2,818.1,481.5z"/>
		<path class="st10" d="M832.3,487.3c0-1.1,0.3-3,0.6-3.9l2.9-1.1l0.4,0.1c-0.2,0.8-0.2,2-0.2,3c0,3,1.6,4.5,5,4.5
			c2.4,0,4.5-0.8,5.5-2.2c0.3-1.6-0.3-3.5-1.8-6.9l3.5-2.5h0.2c1,2.2,1.7,5.1,1.7,6.9c0,5.2-3.9,8.7-9.9,8.7
			C835.3,494,832.3,491.4,832.3,487.3z M837.6,475.4l2.1-3.1l3.4,2.4l-2.1,3.2L837.6,475.4z"/>
		<path class="st10" d="M858.9,463.9c-1.6,0.2-3.7,0.4-6.2,0.4l-0.2-2.3c0.4,0,1,0,1.5,0c-0.4-0.6-0.7-1.3-0.7-2
			c0-1.6,1-2.8,2.8-2.8c0.7,0,1.5,0.2,2.4,0.5l-0.5,2.1c-0.6-0.2-1-0.3-1.4-0.3c-0.7,0-1.1,0.4-1.1,1c0,0.5,0.2,0.9,0.6,1.3
			c1-0.1,1.9-0.1,2.7-0.2L858.9,463.9z M857.4,465.8l0.3,0.2l-0.1,21.4l-3.7,0.8l-0.3-0.2v-21.2L857.4,465.8z"/>
		<path class="st10" d="M884.5,485.3c0,1.5-0.5,2.7-2.2,2.7c-2,0-3.4-0.4-4.3-1.5c-1.5,1.1-3.9,1.8-6.6,1.8c-0.8,0-2.6-0.1-3.7-0.4
			l0.6-3.9l0.2-0.1c1.1,0.2,2.5,0.3,3.3,0.3c1.5,0,3.4-0.2,4.6-0.7c-0.7-1.3-2.4-4.7-3.7-7.2l2.9-3.3h0.4c0.8,2,2.9,6.9,3.4,8
			c1.1,2.7,1.8,3,3.9,3C884.1,484,884.5,484.6,884.5,485.3z"/>
		<path class="st10" d="M899.4,485.3c0,1.8-0.7,2.7-2.1,2.7h-1.9c0.5,0.7,0.7,1.5,0.7,2.3c0,2.5-2.2,4.1-4.9,4.1
			c-3.9,0-6.5-2.3-7-6.4h-2l0.9-4h1.3c0.6-2.8,2-5.8,3.9-8l2.6-1.5l0.3,0c3,2.2,4.4,4.1,4.4,6c0,1.2-0.7,2.8-1.6,3.5h4.1
			C899,484,899.4,484.5,899.4,485.3z M889.3,487.7c-0.4,0-0.9,0.1-1.4,0.2c0.4,1.9,1.9,3,3.8,3c0.6,0,1.1-0.2,1.4-0.4
			C893.2,489.2,891.6,487.7,889.3,487.7z M888.1,484.3c2.2-0.2,3.7-1.3,3.7-3.3c0-0.9-0.4-1.7-1.3-2.7
			C889.2,480.1,888.5,482.2,888.1,484.3z"/>
		<path class="st10" d="M922.4,482.3c0,3.8-3,5.7-7,5.7c-1.8,0-3.1-0.4-4.2-0.9c-0.8,0.6-1.8,0.9-3,0.9c-2,0-3.8-0.7-4.9-1.4
			c-1.3,1-3.1,1.4-6,1.4l0.9-4c2.1,0,2.9-0.1,3.5-0.4c0.3-0.6,0.6-2.2,0.8-3.6l4.3-0.7l0.1,0.1c-0.5,1.6-1,2.9-1.4,4
			c0.9,0.3,2.1,0.5,3.2,0.5c0.5,0,0.9-0.1,1.2-0.3c0.3-0.4,0.6-2.2,1-3.7l4-0.7l0.1,0.1c-0.5,1.6-0.9,3-1.4,4.2
			c0.8,0.2,1.6,0.3,2.4,0.3c1.1,0,2.2-0.1,2.9-0.4c0.2-1.2-0.8-3.6-1.6-5.3l3.5-2.6l0.2,0C921.7,478,922.4,480.4,922.4,482.3z
			 M910.6,475.1l-3.3-2.3l2-3l3.1,2.1l1.5-2.1l3.3,2.2l-2,3.1l-3.1-2.2L910.6,475.1z M912.3,470.6l-3.3-2.3l2-3l3.3,2.2L912.3,470.6
			z"/>
		<path class="st10" d="M931.3,463.9c-1.6,0.2-3.7,0.4-6.2,0.4l-0.2-2.3c0.4,0,1,0,1.5,0c-0.4-0.6-0.7-1.3-0.7-2
			c0-1.6,1-2.8,2.8-2.8c0.7,0,1.5,0.2,2.4,0.5l-0.5,2.1c-0.6-0.2-1-0.3-1.4-0.3c-0.7,0-1.1,0.4-1.1,1c0,0.5,0.2,0.9,0.6,1.3
			c1-0.1,1.9-0.1,2.7-0.2L931.3,463.9z M929.8,465.8l0.3,0.2l-0.1,21.4l-3.7,0.8l-0.3-0.2v-21.2L929.8,465.8z"/>
		<path class="st10" d="M566.3,535.9c0-1.3,1.2-2.5,2.6-2.5c1.4,0,2.6,1.2,2.6,2.5c0,1.4-1.2,2.6-2.6,2.6
			C567.5,538.4,566.3,537.3,566.3,535.9z"/>
		<path class="st10" d="M588.9,535.3c0,1.5-0.6,2.7-2.2,2.7c-2.3,0-4.1-0.6-5.2-2.1c-1,0.4-2,0.5-3,0.5c-3.5,0-5.7-1.7-5.7-4.1
			c0-2.7,2.7-5.6,7.7-7.3v-1.5l3.7-1.4l0.3,0.1v9.6c0,1.7,0.6,2.2,3,2.2C588.7,534,588.9,534.6,588.9,535.3z M580.6,532.4v-0.6v-3
			c-2.2,0.5-4,1.5-4.4,2.5c0.3,0.9,1.7,1.3,2.8,1.3C579.6,532.5,580.1,532.5,580.6,532.4z"/>
		<path class="st10" d="M587.7,534c0.9,0,1.9-0.1,2.6-0.4c0.1-0.5,0.2-1.2,0.2-2.4v-14.4l3.7-1l0.3,0.2v15c0,5.6-2.9,7-7.6,7
			L587.7,534z"/>
		<path class="st10" d="M612.3,535.3c0,1.5-0.5,2.7-2.2,2.7h-2c-1.3,3.2-4.5,5.7-10,5.7l-1.9-3l0.2-0.4c3.9-0.1,6.5-0.8,7.9-2.3
			c-4.4,0-6.3-1.8-6.3-4.7c0-3,2.3-6.7,5.3-6.7c3.1,0,5.2,3.3,5.4,7.4h2.2C612,534,612.3,534.6,612.3,535.3z M604.3,534h1.2
			c-0.2-2-1.2-3.6-2.4-3.6c-1.1,0-2,1.2-2,2.2C601.1,533.6,602,534,604.3,534z"/>
		<path class="st10" d="M635.3,532.3c0,3.8-3,5.7-7,5.7c-1.8,0-3.1-0.4-4.2-0.9c-0.8,0.6-1.8,0.9-3,0.9c-2,0-3.8-0.7-4.9-1.4
			c-1.3,1-3.1,1.4-6,1.4l0.9-4c2.1,0,2.9-0.1,3.5-0.4c0.3-0.6,0.6-2.2,0.8-3.6l4.3-0.7l0.1,0.1c-0.5,1.6-1,2.9-1.4,4
			c0.9,0.3,2.1,0.5,3.2,0.5c0.5,0,0.9-0.1,1.2-0.3c0.3-0.4,0.6-2.2,1-3.7l4-0.7l0.1,0.1c-0.5,1.6-0.9,3-1.4,4.2
			c0.8,0.2,1.6,0.3,2.4,0.3c1.1,0,2.2-0.1,2.9-0.4c0.2-1.2-0.8-3.6-1.6-5.3l3.5-2.6l0.2,0C634.6,528,635.3,530.4,635.3,532.3z"/>
		<path class="st10" d="M633.5,540.9l0.2-0.3c5.2-0.9,8.9-3.4,8.9-4.5c-0.1-1.1-1.2-3.6-2.3-5.5l2.9-3.2h0.4
			c1.4,2.6,2.1,5.7,2.1,7.7c0,1.2-0.3,2.5-0.9,3.7c-1.3,2.5-5,4.5-9.2,5.2L633.5,540.9z"/>
		<path class="st10" d="M659.8,534.8c0,4.4-3.4,8.8-10.6,8.9l-1.9-3l0.2-0.4c4.4-0.1,7.4-1.3,8.5-3.4c-0.8,0.1-1.6,0.2-2.6,0.2
			c-3,0-4.4-1.5-4.4-3.8c0-3,2.3-6.6,5.3-6.6C657.8,526.7,659.8,530.4,659.8,534.8z M654.3,533.6c0.8,0,1.5-0.1,2.2-0.2
			c-0.3-1.6-1.2-3-2.4-3c-1.1,0-2,1.2-2,2.2C652.2,533.3,652.8,533.6,654.3,533.6z"/>
		<path class="st10" d="M680.9,532.8c0,3.3-2.2,5.4-5.7,5.4c-3.4,0-5.3-1.6-5.3-4.5c0-1.6,0.7-3.5,3.1-6.4c-0.3-0.2-0.6-0.5-0.9-0.7
			l2-3.3l0.3-0.2C679.2,527.2,680.9,530,680.9,532.8z M677.4,532.7c0-1-0.8-2.1-2.2-3.5c-1.4,1.4-2,2.5-2,3.5c0,1,0.8,1.6,2,1.6
			C676.7,534.2,677.4,533.7,677.4,532.7z"/>
		<path class="st10" d="M700.1,535.3c0,1.5-0.5,2.7-2.2,2.7c-2,0-3.4-0.4-4.3-1.5c-1.5,1.1-3.9,1.8-6.6,1.8c-0.8,0-2.6-0.1-3.7-0.4
			l0.6-3.9l0.2-0.1c1.1,0.2,2.5,0.3,3.3,0.3c1.5,0,3.4-0.2,4.6-0.7c-0.7-1.3-2.4-4.7-3.7-7.2l2.9-3.3h0.4c0.8,2,2.9,6.9,3.4,8
			c1.1,2.7,1.8,3,3.9,3C699.8,534,700.1,534.6,700.1,535.3z"/>
		<path class="st10" d="M710.8,535.3c0,1.5-0.5,2.7-2.1,2.7c-1.6,0-3.7-0.5-5-1.5c-1.2,1-2.8,1.5-5.1,1.5h-0.6l0.9-4h0.6
			c1.2,0,2.1-0.1,2.5-0.4c0.3-0.8,0.7-2.4,1.1-4.5l4.1-1l0.3,0.2c-0.4,1.9-0.9,3.6-1.5,5c0.9,0.4,2.1,0.6,3.6,0.6
			C710.5,534,710.8,534.6,710.8,535.3z M703,540.3l3.4,2.3l-2.1,3.2l-3.4-2.4L703,540.3z"/>
		<path class="st10" d="M724,533.6l-1.2,3.6c-2.5,0.5-6.4,0.8-14.2,0.8l0.9-4h2.3c-0.5-1-0.8-2-0.8-3.1c0-4,3-6.2,6.7-6.2
			c1.5,0,3.2,0.4,4.6,1l-0.4,3.4l-0.1,0.1c-1-0.3-2.3-0.6-3.3-0.6c-1.9,0-3,0.9-3,2.7c0,0.8,0.4,1.8,1.1,2.7c2.6-0.1,5-0.3,7.2-0.5
			L724,533.6z"/>
		<path class="st10" d="M734.6,538v-21.2l3.7-1l0.3,0.2l-0.1,21.4l-3.7,0.8L734.6,538z"/>
		<path class="st10" d="M758.2,535.3c0,1.5-0.5,2.7-2.2,2.7c-2,0-3.4-0.4-4.3-1.5c-1.5,1.1-3.9,1.8-6.6,1.8c-0.8,0-2.6-0.1-3.7-0.4
			l0.6-3.9l0.2-0.1c1.1,0.2,2.5,0.3,3.3,0.3c1.5,0,3.4-0.2,4.6-0.7c-0.7-1.3-2.4-4.7-3.7-7.2l2.9-3.3h0.4c0.8,2,2.9,6.9,3.4,8
			c1.1,2.7,1.8,3,3.9,3C757.9,534,758.2,534.6,758.2,535.3z"/>
		<path class="st10" d="M775.2,535.3c0,1.6-0.7,2.7-2.2,2.7c-1.4,0-2.4-0.3-3.3-1.1c-0.6,1-1.5,1.5-2.7,1.5c-1.4,0-3.5-0.7-5.7-2.2
			c-1.3,1.6-2.9,1.8-5.3,1.8l0.9-4c1.4,0,1.8-0.2,2.6-1.5c1.8-3,3.3-5.8,6-5.8c2.4,0,3.6,2.1,4.9,4.8c1.1,2.1,1.6,2.6,3.5,2.6
			C774.9,534,775.2,534.6,775.2,535.3z M767.9,534.1l-0.1-0.2c-1-2.3-1.8-3.4-2.5-3.4c-0.7,0-1.5,1.2-2.3,2.8
			c1.2,0.8,2.5,1.4,3.5,1.4C767.2,534.7,767.6,534.4,767.9,534.1z"/>
		<path class="st10" d="M795.4,535.3c0,1.5-0.5,2.7-2.1,2.7c-5.2,0-7-1.3-8.3-3.5l-1.2,0.6c-4.4,2.2-7.3,2.9-10.8,2.9l0.9-4
			c3.2,0,5.1-0.4,8.8-1.7c1-0.4,1.8-0.6,2.5-0.9c-0.3-0.1-0.7-0.3-1.1-0.5c-2.6-1.2-4-1.6-5.3-1.6c-1.4,0-2.6,0.3-3.7,0.6l-0.2-0.1
			l1.4-3.6c0.7-0.4,1.9-0.7,2.9-0.7c1.1,0,2.4,0.4,4.9,1.5c3.4,1.5,5.4,2,7.6,2.1l-0.7,3.6c-0.9,0-1.7,0.1-2.7,0.4
			c1,0.6,2.6,0.8,5.8,0.8C795.2,534,795.4,534.6,795.4,535.3z"/>
		<path class="st10" d="M808.4,533.8c0,2.7-1.3,4.6-3.7,4.6c-1.6,0-3.9-0.5-6.3-2.2c-1.3,1.5-2.9,1.8-5.1,1.8l0.9-4
			c1.2,0,1.7-0.4,2.7-2.3c1.1-2,2.9-5.1,5.7-5.1C805.6,526.7,808.4,530.1,808.4,533.8z M804.9,534.2c-0.1-1.3-1.2-3.7-2.4-3.7
			c-0.8,0-1.5,1.2-2.3,2.7c1.3,0.8,2.6,1.3,3.5,1.3C804.1,534.5,804.5,534.4,804.9,534.2z"/>
		<path class="st10" d="M818.3,537.3c0-1.1,0.3-3,0.6-3.9l2.9-1.1l0.4,0.1c-0.2,0.8-0.2,2-0.2,3c0,3,1.6,4.5,5,4.5
			c2.4,0,4.5-0.8,5.5-2.2c0.3-1.6-0.3-3.5-1.8-6.9l3.5-2.5h0.2c1,2.2,1.7,5.1,1.7,6.9c0,5.2-3.9,8.7-9.9,8.7
			C821.3,544,818.3,541.4,818.3,537.3z M823.6,525.4l2.1-3.1l3.4,2.4l-2.1,3.2L823.6,525.4z"/>
		<path class="st10" d="M844.8,513.9c-1.6,0.2-3.7,0.4-6.2,0.4l-0.2-2.3c0.4,0,1,0,1.5,0c-0.4-0.6-0.7-1.3-0.7-2
			c0-1.6,1-2.8,2.8-2.8c0.7,0,1.5,0.2,2.4,0.5l-0.5,2.1c-0.6-0.2-1-0.3-1.4-0.3c-0.7,0-1.1,0.4-1.1,1c0,0.5,0.2,0.9,0.6,1.3
			c1-0.1,1.9-0.1,2.7-0.2L844.8,513.9z M843.3,515.8l0.3,0.2l-0.1,21.4l-3.7,0.8l-0.3-0.2v-21.2L843.3,515.8z"/>
		<path class="st10" d="M870.4,535.3c0,1.5-0.5,2.7-2.2,2.7c-2,0-3.4-0.4-4.3-1.5c-1.5,1.1-3.9,1.8-6.6,1.8c-0.8,0-2.6-0.1-3.7-0.4
			l0.6-3.9l0.2-0.1c1.1,0.2,2.5,0.3,3.3,0.3c1.5,0,3.4-0.2,4.6-0.7c-0.7-1.3-2.4-4.7-3.7-7.2l2.9-3.3h0.4c0.8,2,2.9,6.9,3.4,8
			c1.1,2.7,1.8,3,3.9,3C870.1,534,870.4,534.6,870.4,535.3z"/>
		<path class="st10" d="M885.4,535.3c0,1.8-0.7,2.7-2.1,2.7h-1.9c0.5,0.7,0.7,1.5,0.7,2.3c0,2.5-2.2,4.1-4.9,4.1
			c-3.9,0-6.5-2.3-7-6.4h-2l0.9-4h1.3c0.6-2.8,2-5.8,3.9-8l2.6-1.5l0.3,0c3,2.2,4.4,4.1,4.4,6c0,1.2-0.7,2.8-1.6,3.5h4.1
			C884.9,534,885.4,534.5,885.4,535.3z M875.3,537.7c-0.4,0-0.9,0.1-1.4,0.2c0.4,1.9,1.9,3,3.8,3c0.6,0,1.1-0.2,1.4-0.4
			C879.1,539.2,877.6,537.7,875.3,537.7z M874,534.3c2.2-0.2,3.7-1.3,3.7-3.3c0-0.9-0.4-1.7-1.3-2.7
			C875.2,530.1,874.4,532.2,874,534.3z"/>
		<path class="st10" d="M908.4,532.3c0,3.8-3,5.7-7,5.7c-1.8,0-3.1-0.4-4.2-0.9c-0.8,0.6-1.8,0.9-3,0.9c-2,0-3.8-0.7-4.9-1.4
			c-1.3,1-3.1,1.4-6,1.4l0.9-4c2.1,0,2.9-0.1,3.5-0.4c0.3-0.6,0.6-2.2,0.8-3.6l4.3-0.7l0.1,0.1c-0.5,1.6-1,2.9-1.4,4
			c0.9,0.3,2.1,0.5,3.2,0.5c0.5,0,0.9-0.1,1.2-0.3c0.3-0.4,0.6-2.2,1-3.7l4-0.7l0.1,0.1c-0.5,1.6-0.9,3-1.4,4.2
			c0.8,0.2,1.6,0.3,2.4,0.3c1.1,0,2.2-0.1,2.9-0.4c0.2-1.2-0.8-3.6-1.6-5.3l3.5-2.6l0.2,0C907.7,528,908.4,530.4,908.4,532.3z
			 M896.6,525.1l-3.3-2.3l2-3l3.1,2.1l1.5-2.1l3.3,2.2l-2,3.1l-3.1-2.2L896.6,525.1z M898.3,520.6l-3.3-2.3l2-3l3.3,2.2L898.3,520.6
			z"/>
		<path class="st10" d="M917.3,513.9c-1.6,0.2-3.7,0.4-6.2,0.4l-0.2-2.3c0.4,0,1,0,1.5,0c-0.4-0.6-0.7-1.3-0.7-2
			c0-1.6,1-2.8,2.8-2.8c0.7,0,1.5,0.2,2.4,0.5l-0.5,2.1c-0.6-0.2-1-0.3-1.4-0.3c-0.7,0-1.1,0.4-1.1,1c0,0.5,0.2,0.9,0.6,1.3
			c1-0.1,1.9-0.1,2.7-0.2L917.3,513.9z M915.8,515.8l0.3,0.2l-0.1,21.4l-3.7,0.8L912,538v-21.2L915.8,515.8z"/>
		<path class="st10" d="M930.4,534.8c0,4.4-3.4,8.8-10.6,8.9l-1.9-3l0.2-0.4c4.4-0.1,7.4-1.3,8.5-3.4c-0.8,0.1-1.6,0.2-2.6,0.2
			c-3,0-4.4-1.5-4.4-3.8c0-3,2.3-6.6,5.3-6.6C928.3,526.7,930.4,530.4,930.4,534.8z M924.9,533.6c0.8,0,1.5-0.1,2.2-0.2
			c-0.3-1.6-1.2-3-2.4-3c-1.1,0-2,1.2-2,2.2C922.8,533.3,923.4,533.6,924.9,533.6z"/>
	</g>
</g>
<path class="st11" d="M1024.8,42.8h-11.1v-6.6c0-1.7-1.1-3-2.6-3.5c1.4-1.1,2.3-2.9,2.3-4.8c0-3.4-2.8-6.2-6.2-6.2
	c-1,0-1.9,0.2-2.8,0.7c0.4-1.1,0.5-2.2,0.5-3.4c0-6.2-5-11.2-11.2-11.2c-6.2,0-11.2,5-11.2,11.2c0,1.2,0.2,2.4,0.5,3.4
	c-0.8-0.4-1.8-0.7-2.8-0.7c-3.4,0-6.2,2.8-6.2,6.2c0,1.9,0.9,3.6,2.3,4.8c-1.5,0.4-2.6,1.8-2.6,3.5v6.6h-10h-10v-6.6
	c0-1.7-1.1-3-2.6-3.5c1.4-1.1,2.3-2.9,2.3-4.8c0-3.4-2.8-6.2-6.2-6.2c-1,0-1.9,0.2-2.8,0.7c0.4-1.1,0.5-2.2,0.5-3.4
	c0-6.2-5-11.2-11.2-11.2c-6.2,0-11.2,5-11.2,11.2c0,1.2,0.2,2.4,0.5,3.4c-0.8-0.4-1.8-0.7-2.8-0.7c-3.4,0-6.2,2.8-6.2,6.2
	c0,1.9,0.9,3.6,2.3,4.8c-1.5,0.4-2.6,1.8-2.6,3.5v6.6h-10h-10v-6.6c0-1.7-1.1-3-2.6-3.5c1.4-1.1,2.3-2.9,2.3-4.8
	c0-3.4-2.8-6.2-6.2-6.2c-1,0-1.9,0.2-2.8,0.7c0.4-1.1,0.5-2.2,0.5-3.4c0-6.2-5-11.2-11.2-11.2c-6.2,0-11.2,5-11.2,11.2
	c0,1.2,0.2,2.4,0.5,3.4c-0.8-0.4-1.8-0.7-2.8-0.7c-3.4,0-6.2,2.8-6.2,6.2c0,1.9,0.9,3.6,2.3,4.8c-1.5,0.4-2.6,1.8-2.6,3.5v6.6h-10
	h-10v-6.6c0-1.7-1.1-3-2.6-3.5c1.4-1.1,2.3-2.9,2.3-4.8c0-3.4-2.8-6.2-6.2-6.2c-1,0-1.9,0.2-2.8,0.7c0.4-1.1,0.5-2.2,0.5-3.4
	c0-6.2-5-11.2-11.2-11.2c-6.2,0-11.2,5-11.2,11.2c0,1.2,0.2,2.4,0.5,3.4c-0.8-0.4-1.8-0.7-2.8-0.7c-3.4,0-6.2,2.8-6.2,6.2
	c0,1.9,0.9,3.6,2.3,4.8c-1.5,0.4-2.6,1.8-2.6,3.5v6.6h-10h-10v-6.6c0-1.7-1.1-3-2.6-3.5c1.4-1.1,2.3-2.9,2.3-4.8
	c0-3.4-2.8-6.2-6.2-6.2c-1,0-1.9,0.2-2.8,0.7c0.4-1.1,0.5-2.2,0.5-3.4c0-6.2-5-11.2-11.2-11.2c-6.2,0-11.2,5-11.2,11.2
	c0,1.2,0.2,2.4,0.5,3.4c-0.8-0.4-1.8-0.7-2.8-0.7c-3.4,0-6.2,2.8-6.2,6.2c0,1.9,0.9,3.6,2.3,4.8c-1.5,0.4-2.6,1.8-2.6,3.5v6.6h-10
	h-10v-6.6c0-1.7-1.1-3-2.6-3.5c1.4-1.1,2.3-2.9,2.3-4.8c0-3.4-2.8-6.2-6.2-6.2c-1,0-1.9,0.2-2.8,0.7c0.4-1.1,0.5-2.2,0.5-3.4
	c0-6.2-5-11.2-11.2-11.2c-6.2,0-11.2,5-11.2,11.2c0,1.2,0.2,2.4,0.5,3.4c-0.8-0.4-1.8-0.7-2.8-0.7c-3.4,0-6.2,2.8-6.2,6.2
	c0,1.9,0.9,3.6,2.3,4.8c-1.5,0.4-2.6,1.8-2.6,3.5v6.6h-10h-10v-6.6c0-1.7-1.1-3-2.6-3.5c1.4-1.1,2.3-2.9,2.3-4.8
	c0-3.4-2.8-6.2-6.2-6.2c-1,0-1.9,0.2-2.8,0.7c0.4-1.1,0.5-2.2,0.5-3.4c0-6.2-5-11.2-11.2-11.2c-6.2,0-11.2,5-11.2,11.2
	c0,1.2,0.2,2.4,0.5,3.4c-0.8-0.4-1.8-0.7-2.8-0.7c-3.4,0-6.2,2.8-6.2,6.2c0,1.9,0.9,3.6,2.3,4.8c-1.5,0.4-2.6,1.8-2.6,3.5v6.6h-10
	h-10v-6.6c0-1.7-1.1-3-2.6-3.5c1.4-1.1,2.3-2.9,2.3-4.8c0-3.4-2.8-6.2-6.2-6.2c-1,0-1.9,0.2-2.8,0.7c0.4-1.1,0.5-2.2,0.5-3.4
	c0-6.2-5-11.2-11.2-11.2c-6.2,0-11.2,5-11.2,11.2c0,1.2,0.2,2.4,0.5,3.4c-0.8-0.4-1.8-0.7-2.8-0.7c-3.4,0-6.2,2.8-6.2,6.2
	c0,1.9,0.9,3.6,2.3,4.8c-1.5,0.4-2.6,1.8-2.6,3.5v6.6h-10h-10v-6.6c0-1.7-1.1-3-2.6-3.5c1.4-1.1,2.3-2.9,2.3-4.8
	c0-3.4-2.8-6.2-6.2-6.2c-1,0-1.9,0.2-2.8,0.7c0.4-1.1,0.5-2.2,0.5-3.4c0-6.2-5-11.2-11.2-11.2c-6.2,0-11.2,5-11.2,11.2
	c0,1.2,0.2,2.4,0.5,3.4c-0.8-0.4-1.8-0.7-2.8-0.7c-3.4,0-6.2,2.8-6.2,6.2c0,1.9,0.9,3.6,2.3,4.8c-1.5,0.4-2.6,1.8-2.6,3.5v6.6h-10
	h-10v-6.6c0-1.7-1.1-3-2.6-3.5c1.4-1.1,2.3-2.9,2.3-4.8c0-3.4-2.8-6.2-6.2-6.2c-1,0-1.9,0.2-2.8,0.7c0.4-1.1,0.5-2.2,0.5-3.4
	c0-6.2-5-11.2-11.2-11.2c-6.2,0-11.2,5-11.2,11.2c0,1.2,0.2,2.4,0.5,3.4c-0.8-0.4-1.8-0.7-2.8-0.7c-3.4,0-6.2,2.8-6.2,6.2
	c0,1.9,0.9,3.6,2.3,4.8c-1.5,0.4-2.6,1.8-2.6,3.5v6.6h-10h-10v-6.6c0-1.7-1.1-3-2.6-3.5c1.4-1.1,2.3-2.9,2.3-4.8
	c0-3.4-2.8-6.2-6.2-6.2c-1,0-1.9,0.2-2.8,0.7c0.4-1.1,0.5-2.2,0.5-3.4c0-6.2-5-11.2-11.2-11.2c-6.2,0-11.2,5-11.2,11.2
	c0,1.2,0.2,2.4,0.5,3.4c-0.8-0.4-1.8-0.7-2.8-0.7c-3.4,0-6.2,2.8-6.2,6.2c0,1.9,0.9,3.6,2.3,4.8c-1.5,0.4-2.6,1.8-2.6,3.5v6.6h-10
	h-10v-6.6c0-1.7-1.1-3-2.6-3.5c1.4-1.1,2.3-2.9,2.3-4.8c0-3.4-2.8-6.2-6.2-6.2c-1,0-1.9,0.2-2.8,0.7c0.4-1.1,0.5-2.2,0.5-3.4
	c0-6.2-5-11.2-11.2-11.2c-6.2,0-11.2,5-11.2,11.2c0,1.2,0.2,2.4,0.5,3.4c-0.8-0.4-1.8-0.7-2.8-0.7c-3.4,0-6.2,2.8-6.2,6.2
	c0,1.9,0.9,3.6,2.3,4.8c-1.5,0.4-2.6,1.8-2.6,3.5v6.6h-10h-10v-6.6c0-1.7-1.1-3-2.6-3.5c1.4-1.1,2.3-2.9,2.3-4.8
	c0-3.4-2.8-6.2-6.2-6.2c-1,0-1.9,0.2-2.8,0.7c0.4-1.1,0.5-2.2,0.5-3.4c0-6.2-5-11.2-11.2-11.2c-6.2,0-11.2,5-11.2,11.2
	c0,1.2,0.2,2.4,0.5,3.4c-0.8-0.4-1.8-0.7-2.8-0.7c-3.4,0-6.2,2.8-6.2,6.2c0,1.9,0.9,3.6,2.3,4.8c-1.5,0.4-2.6,1.8-2.6,3.5v6.6h-10
	h-10v-6.6c0-1.7-1.1-3-2.6-3.5c1.4-1.1,2.3-2.9,2.3-4.8c0-3.4-2.8-6.2-6.2-6.2c-1,0-1.9,0.2-2.8,0.7c0.4-1.1,0.5-2.2,0.5-3.4
	c0-6.2-5-11.2-11.2-11.2c-6.2,0-11.2,5-11.2,11.2c0,1.2,0.2,2.4,0.5,3.4c-0.8-0.4-1.8-0.7-2.8-0.7c-3.4,0-6.2,2.8-6.2,6.2
	c0,1.9,0.9,3.6,2.3,4.8c-1.5,0.4-2.6,1.8-2.6,3.5v6.6h-10h-10v-6.6c0-1.7-1.1-3-2.6-3.5c1.4-1.1,2.3-2.9,2.3-4.8
	c0-3.4-2.8-6.2-6.2-6.2c-1,0-1.9,0.2-2.8,0.7c0.4-1.1,0.5-2.2,0.5-3.4c0-6.2-5-11.2-11.2-11.2c-6.2,0-11.2,5-11.2,11.2
	c0,1.2,0.2,2.4,0.5,3.4c-0.8-0.4-1.8-0.7-2.8-0.7c-3.4,0-6.2,2.8-6.2,6.2c0,1.9,0.9,3.6,2.3,4.8c-1.5,0.4-2.6,1.8-2.6,3.5v6.6h-10
	h-10v-6.6c0-1.7-1.1-3-2.6-3.5c1.4-1.1,2.3-2.9,2.3-4.8c0-3.4-2.8-6.2-6.2-6.2c-1,0-1.9,0.2-2.8,0.7c0.4-1.1,0.5-2.2,0.5-3.4
	c0-6.2-5-11.2-11.2-11.2c-6.2,0-11.2,5-11.2,11.2c0,1.2,0.2,2.4,0.5,3.4c-0.8-0.4-1.8-0.7-2.8-0.7c-3.4,0-6.2,2.8-6.2,6.2
	c0,1.9,0.9,3.6,2.3,4.8c-1.5,0.4-2.6,1.8-2.6,3.5v6.6h-10h-10v-6.6c0-1.7-1.1-3-2.6-3.5c1.4-1.1,2.3-2.9,2.3-4.8
	c0-3.4-2.8-6.2-6.2-6.2c-1,0-1.9,0.2-2.8,0.7c0.4-1.1,0.5-2.2,0.5-3.4c0-6.2-5-11.2-11.2-11.2c-6.2,0-11.2,5-11.2,11.2
	c0,1.2,0.2,2.4,0.5,3.4c-0.8-0.4-1.8-0.7-2.8-0.7c-3.4,0-6.2,2.8-6.2,6.2c0,1.9,0.9,3.6,2.3,4.8c-1.5,0.4-2.6,1.8-2.6,3.5v6.6H0.8
	V-1h1024V42.8z"/>
<g id="Layer_x0020_1_34_">
	<path class="st12" d="M35.6,719l43.9-1.7c0.3,0,0.6,0,1,0c0.7,0.1,1.3,0.4,1.8,0.9c0.5,0.5,0.9,1,0.9,1.7c0,0.2,0,0.5,0,0.8
		l-4.6,20.6c-0.2,0.9-0.6,1.7-1.3,2.2c-0.6,0.5-1.4,0.9-2.4,0.9l-35.3-1.2c-1,0-1.7-0.3-2.4-0.9l0,0c-0.6-0.6-1.1-1.4-1.3-2.2
		l-4.1-17.7c0-0.1,0-0.1,0-0.2c-0.1-0.8,0.3-1.5,0.9-2.1c0.6-0.5,1.4-0.8,2.3-1C35.4,719.1,35.5,719,35.6,719z M77.6,720.1l-42,1.5
		c-0.1,0-0.2,0-0.3,0c-0.6,0.1-1.1,0.3-1.5,0.7c-0.3,0.3-0.6,0.7-0.5,1.1c0,0,0,0.1,0,0.1l3.8,16.5c0.1,0.6,0.4,1.2,0.9,1.6
		c0.4,0.3,0.8,0.5,1.4,0.5l34,1.2c0.6,0,1-0.2,1.4-0.5c0.4-0.4,0.7-0.9,0.9-1.6l4.3-19.3c0-0.1,0-0.3,0-0.4c0-0.3-0.2-0.7-0.5-0.9
		c-0.3-0.3-0.7-0.5-1.1-0.5C78,720.1,77.8,720.1,77.6,720.1z"/>
	<path class="st12" d="M42.7,723.7l12.9-1.4c0.1,0,0.3,0,0.4,0c0.3,0.1,0.6,0.2,0.8,0.4c0.2,0.2,0.4,0.5,0.4,0.8c0,0.1,0,0.2,0,0.3
		l-2.1,9.6c-0.1,0.4-0.3,0.8-0.6,1c-0.3,0.3-0.6,0.4-1.1,0.4h-8.9c-0.4,0-0.8-0.2-1.1-0.4h0c-0.3-0.3-0.5-0.6-0.6-1l-1.9-8.2
		c0,0,0-0.1,0-0.1c-0.1-0.4,0.1-0.7,0.4-1c0.3-0.2,0.7-0.4,1-0.5C42.5,723.7,42.6,723.7,42.7,723.7z M54.7,723.6l-12,1.3
		c0,0-0.1,0-0.1,0c-0.3,0-0.5,0.2-0.7,0.3c-0.2,0.1-0.3,0.3-0.2,0.5c0,0,0,0,0,0l1.8,7.6c0.1,0.3,0.2,0.5,0.4,0.7
		c0.2,0.1,0.4,0.2,0.6,0.2h8.3c0.3,0,0.5-0.1,0.6-0.2c0.2-0.2,0.3-0.4,0.4-0.7l2-8.9c0-0.1,0-0.1,0-0.2c0-0.2-0.1-0.3-0.2-0.4
		c-0.1-0.1-0.3-0.2-0.5-0.2C54.8,723.6,54.7,723.6,54.7,723.6z"/>
	<g id="_1849662416_34_">
		<path class="st13" d="M61.1,735.9l0.4-0.7l-0.7-0.4l0.4-0.7l-1.5-0.8l-0.9,1.5l0,0c0.3,0.1,0.5,0.3,0.7,0.4l-0.4,0.7l0.7,0.4
			l-0.8,1.5l0.7,0.4c-0.2,0.5-0.6,1.1-0.9,1.5l0,0c0.2,0.1,0.4,0.2,0.5,0.3c0.3,0.1,0.2,0.1,0,0.5c-0.2,0.4-0.4,0.8-0.7,1.1l0.7,0.4
			c0,0.2-0.7,1.2-0.8,1.5l5.9,3.4l0.9-1.5l0.8,0.4l1.3-2.2l0.7,0.4l3-5.2c-0.1-0.1-0.7-0.4-0.7-0.5c0-0.2,0.4-0.6,0.4-0.7
			c-0.1-0.1-0.5-0.4-0.7-0.4l-1.3,2.2l-0.7-0.4l1.7-3l-1.5-0.9l-1.3,2.2l-0.7-0.4l1.7-2.9c-0.1-0.1-1.3-0.8-1.5-0.9l-1.7,3l-0.7-0.4
			c0-0.1,0.1-0.1,0.1-0.2c1.2-2.1,2.5-4.3,3.7-6.5l-1.5-0.8l-4.7,8.1C61.6,736.3,61.2,735.9,61.1,735.9L61.1,735.9z"/>
		<path class="st14" d="M59,739.6c-0.1,0.1-0.1,0.2-0.2,0.3l-0.7,1.1c0.1,0.1,0.2,0.1,0.4,0.2c0.1,0.1,0.2,0.1,0.3,0.2
			c-0.4,0.8-0.8,1.5-1.2,2.2c0.6,0.4,1.2,0.7,1.8,1.1l3.7,2.2c0.6,0.4,1.3,0.7,1.9,1.1c0.1-0.2,0.1-0.3,0.3-0.5
			c0.1-0.2,0.4-0.6,0.5-0.9c0.1-0.1,0.1-0.1,0.2-0.3c0.1-0.2,0.2-0.4,0.3-0.6c0.1,0.2,0.5,0.3,0.7,0.4c0.4-0.7,0.8-1.4,1.3-2.2
			c0.2,0.1,0.4,0.2,0.6,0.3c0.1,0.1,0.1,0.1,0.2,0c0.2-0.3,0.3-0.6,0.5-0.9c0.3-0.6,0.7-1.1,1-1.7l1.4-2.5c-0.2-0.1-0.6-0.3-0.7-0.4
			l-3,5.2l-0.7-0.4l-1.3,2.2l-0.8-0.4l-0.9,1.5l-5.9-3.4c0.1-0.3,0.8-1.3,0.8-1.5l-0.7-0.4c0.2-0.4,0.4-0.8,0.7-1.1
			c0.2-0.4,0.2-0.3,0-0.5C59.3,739.8,59.2,739.7,59,739.6z"/>
		<path class="st14" d="M61.2,734l-0.4,0.7l0.7,0.4l-0.4,0.7l0.7,0.4l4.7-8.1l-0.7-0.4c0,0,0,0,0,0l0,0c0,0,0,0,0,0l-3.8,6.6
			C61.7,734.2,61.5,734.1,61.2,734z"/>
		<path class="st14" d="M68.1,729.1l-3.9,6.6l0.7,0.4l1.7-3c0.2,0,1.4,0.8,1.5,0.9c0.2,0.2,1.6,0.9,1.9,1.1c0,0,0.1,0-0.1-0.1
			l-1.5-0.8c-0.4-0.2-0.3-0.1,0.1-0.9l-1.1-0.6c-0.1-0.1-0.2-0.1-0.3-0.2l1.7-2.9c-0.2-0.1-0.3-0.2-0.6-0.4
			C68.2,729.1,68.2,729.1,68.1,729.1z"/>
		<path class="st14" d="M69.9,736.1l0.4-0.7c-0.1-0.1-0.2-0.2-0.4-0.2c-0.3-0.2-1.7-0.9-1.9-1.1l-1.7,2.9l0.7,0.4l1.3-2.2
			L69.9,736.1z"/>
		<path class="st14" d="M58.9,734.7c-0.1,0.1-0.1,0.1-0.2,0.3c-0.1,0.1-0.1,0.3-0.2,0.4l0.7,0.4c-0.1,0.2-0.7,1.3-0.8,1.5l0.7,0.4
			l-0.6,1.1c-0.1,0.2-0.1,0.2-0.2,0.4l0.7,0.4c0.3-0.4,0.7-1,0.9-1.5l-0.7-0.4l0.8-1.5l-0.7-0.4l0.4-0.7
			C59.4,734.9,59.2,734.7,58.9,734.7z"/>
		<path class="st14" d="M58.9,734.6l0.9-1.5l1.5,0.8l0.2-0.4c0.1-0.1,0.1-0.2,0.2-0.4l-2-1.1c-0.3-0.2-0.2-0.2-0.5,0.2l-0.9,1.6
			c-0.1,0.2-0.2,0.2,0,0.3C58.4,734.4,58.8,734.6,58.9,734.6z"/>
		<path class="st14" d="M71,737.7c0.1,0,0,0,0.1-0.1c0,0,0.1-0.1,0.1-0.1c0-0.2,0.2-0.4,0.3-0.6l-1.5-0.8l-1.7,3l0.7,0.4l1.3-2.2
			C70.4,737.3,70.8,737.5,71,737.7z"/>
		<path class="st14" d="M68.1,729c0.1-0.2,0.3-0.5,0.4-0.7l-1.5-0.8l-0.4,0.7L68.1,729z"/>
		<path class="st14" d="M71,737.7c0,0.2-0.4,0.6-0.4,0.7c0,0.1,0.6,0.4,0.7,0.5c0.2,0.1,0.5,0.3,0.7,0.4l-1.4,2.5l1.5-2.5l-0.7-0.4
			c0.1-0.1,0.1-0.2,0.2-0.4c0.1-0.1,0.2-0.3,0.2-0.4c-0.8-0.5-0.8-0.3-0.6-0.6c0,0-0.1,0.1-0.1,0.1C71,737.7,71.1,737.7,71,737.7z"
			/>
	</g>
	<path class="st12" d="M95.7,735.9h-2.5l2.1-7.2l-4.3,7.2h-2.6l-0.5-7.3l-1.8,7.3h-2.6l2.9-10.9H90l0.5,7.7l4.6-7.7h3.5L95.7,735.9z
		 M105.1,735.9h-5.6c-0.8,0-1.3-0.2-1.7-0.6c-0.4-0.4-0.4-1-0.2-1.8c0.3-0.9,0.7-1.6,1.3-2c0.6-0.4,1.5-0.6,2.6-0.6h2.5
		c0.1-0.4,0.1-0.7-0.1-0.8c-0.2-0.2-0.6-0.2-1.3-0.2h-3.6l0.5-2h4.3c1.1,0,1.9,0.3,2.3,0.8c0.4,0.5,0.5,1.3,0.2,2.3L105.1,735.9z
		 M103.2,733.9l0.3-1.2h-2.2c-0.4,0-0.7,0-0.9,0.1c-0.2,0.1-0.3,0.3-0.3,0.5c-0.1,0.2-0.1,0.3,0,0.4c0,0,0.1,0.1,0.2,0.1
		c0.1,0,0.3,0,0.5,0H103.2z M113.9,735.9h-2.4l1.3-4.9c0.1-0.5,0.2-0.8,0-1c-0.1-0.1-0.4-0.2-0.9-0.2h-1.4l-1.6,6.1h-2.4l2.2-8.1h4
		c1.2,0,2,0.2,2.4,0.7c0.4,0.5,0.5,1.2,0.2,2.3L113.9,735.9z M122.7,735.9h-2.4l1.3-4.9c0.1-0.5,0.1-0.8,0-0.9
		c-0.1-0.1-0.2-0.1-0.3-0.2c-0.1,0-0.3-0.1-0.6-0.1l-1.4,0l-1.6,6.1h-2.4l2.9-10.9h2.4l-0.8,2.8h1.6c1.2,0,2,0.2,2.4,0.7
		c0.4,0.5,0.5,1.2,0.2,2.3L122.7,735.9z M131.9,735.9h-5.6c-0.8,0-1.3-0.2-1.7-0.6c-0.4-0.4-0.4-1-0.2-1.8c0.3-0.9,0.7-1.6,1.3-2
		c0.6-0.4,1.5-0.6,2.6-0.6h2.5c0.1-0.4,0.1-0.7-0.1-0.8c-0.2-0.2-0.6-0.2-1.3-0.2h-3.6l0.5-2h4.3c1.1,0,1.9,0.3,2.3,0.8
		c0.4,0.5,0.5,1.3,0.2,2.3L131.9,735.9z M130,733.9l0.3-1.2h-2.2c-0.4,0-0.7,0-0.9,0.1c-0.2,0.1-0.3,0.3-0.3,0.5
		c-0.1,0.2,0,0.3,0,0.4c0,0,0.1,0.1,0.2,0.1c0.1,0,0.3,0,0.5,0H130z M135.8,735.9h-2.5l2.9-10.9h2.5L135.8,735.9z M141.4,735.9h-2.1
		l0.6-2.2h2.1L141.4,735.9z M149.2,735.9h-2.9c-0.4,0-0.7,0-1-0.1c-0.3,0-0.5-0.1-0.8-0.2c-0.4-0.1-0.8-0.4-1-0.8
		c-0.1-0.2-0.2-0.4-0.3-0.6c-0.1-0.2-0.2-0.5-0.2-0.7c0-0.3,0-0.5,0-0.8c0-0.3,0.1-0.6,0.2-0.9c0.2-0.6,0.4-1.2,0.8-1.7
		c0.3-0.5,0.7-1,1.3-1.4c0.4-0.3,0.9-0.6,1.4-0.7c0.5-0.2,1.1-0.2,1.9-0.2h2.9l-0.5,2h-2.3c-0.5,0-0.9,0-1.2,0.1
		c-0.3,0.1-0.6,0.2-0.8,0.4c-0.4,0.3-0.7,0.8-0.9,1.6c-0.1,0.4-0.1,0.8-0.1,1.1c0.1,0.3,0.1,0.6,0.4,0.7l0.4,0.2c0.1,0,0.3,0,0.4,0
		c0.1,0,0.4,0,0.6,0h2.3L149.2,735.9z M159.3,731.8c-0.3,1.3-1,2.3-2,3.1c-1,0.8-2.1,1.1-3.4,1.1c-1.3,0-2.2-0.4-2.8-1.1
		c-0.6-0.8-0.7-1.8-0.3-3.1c0.3-1.3,1-2.3,2-3c1-0.8,2.1-1.1,3.4-1.1c1.3,0,2.2,0.4,2.8,1.1C159.5,729.5,159.6,730.5,159.3,731.8z
		 M156.8,731.8c0.2-0.7,0.1-1.2-0.1-1.6c-0.2-0.4-0.6-0.6-1.1-0.6c-0.5,0-1,0.2-1.4,0.6c-0.4,0.4-0.7,0.9-0.9,1.6
		c-0.1,0.4-0.1,0.7-0.1,0.9c0,0.3,0.1,0.5,0.2,0.7c0.2,0.4,0.6,0.6,1.1,0.6c0.6,0,1-0.2,1.4-0.6C156.3,733,156.6,732.5,156.8,731.8z
		 M170.4,735.9H168l1.3-4.9c0.1-0.5,0.2-0.8,0.1-1c-0.1-0.2-0.4-0.2-0.9-0.2l-0.9,0l-1.6,6.1h-2.4l1.6-6.1h-2l-1.6,6.1H159l2.2-8.1
		h8c1.2,0,2,0.2,2.4,0.7c0.4,0.5,0.5,1.2,0.2,2.3L170.4,735.9z"/>
	<path class="st12" d="M28.6,727.8l21.2-2.2c0.2,0,0.5,0,0.7,0c0.5,0.1,1,0.3,1.4,0.7c0.4,0.3,0.6,0.8,0.7,1.3c0,0.2,0,0.4,0,0.6
		l-3.7,9.6c-0.1,0.7-0.5,1.3-1,1.7c-0.5,0.4-1.1,0.7-1.8,0.7H31.6c-0.7,0-1.3-0.3-1.8-0.7h0c-0.5-0.4-0.8-1.1-1-1.7l-2.9-7.4
		c0-0.1,0-0.1,0-0.2c-0.1-0.6,0.2-1.2,0.7-1.6c0.5-0.4,1.1-0.6,1.7-0.8C28.4,727.8,28.5,727.8,28.6,727.8z M48.4,727.7l-19.8,2.1
		c-0.1,0-0.2,0-0.2,0c-0.4,0.1-0.9,0.3-1.2,0.5c-0.3,0.2-0.4,0.5-0.4,0.8c0,0,0,0.1,0,0.1l2.7,6.5c0.1,0.5,0.3,0.9,0.7,1.2
		c0.3,0.2,0.6,0.4,1,0.4h13.6c0.4,0,0.8-0.1,1-0.4c0.3-0.3,0.5-0.7,0.7-1.2l3.4-8.6c0-0.1,0-0.2,0-0.3c0-0.3-0.2-0.5-0.4-0.7
		c-0.2-0.2-0.5-0.4-0.8-0.4C48.6,727.7,48.5,727.7,48.4,727.7z"/>
	<path class="st12" d="M88.3,721.5l-0.5,1.7h-0.6l1.2-4.5h1.3c0.3,0,0.5,0,0.7,0.1c0.2,0.1,0.3,0.2,0.4,0.3c0.1,0.1,0.2,0.3,0.2,0.4
		c0,0.2,0,0.4-0.1,0.6c-0.1,0.2-0.1,0.4-0.3,0.6c-0.1,0.2-0.3,0.3-0.4,0.4c-0.2,0.1-0.4,0.2-0.6,0.3c-0.2,0.1-0.5,0.1-0.7,0.1H88.3z
		 M88.4,721h0.7c0.2,0,0.3,0,0.5-0.1c0.1,0,0.3-0.1,0.4-0.2c0.1-0.1,0.2-0.2,0.3-0.3c0.1-0.1,0.1-0.2,0.2-0.4
		c0.1-0.3,0.1-0.5-0.1-0.7c-0.1-0.2-0.4-0.2-0.7-0.2h-0.7L88.4,721z"/>
	<path id="_x31__34_" class="st12" d="M93,720c0.2,0,0.4,0,0.6,0.1c0.2,0.1,0.3,0.2,0.4,0.3c0.1,0.1,0.1,0.3,0.2,0.5
		c0,0.2,0,0.4-0.1,0.7c-0.1,0.3-0.2,0.5-0.3,0.7c-0.1,0.2-0.3,0.4-0.4,0.5c-0.2,0.1-0.4,0.3-0.6,0.3c-0.2,0.1-0.4,0.1-0.7,0.1
		c-0.2,0-0.4,0-0.6-0.1c-0.2-0.1-0.3-0.2-0.4-0.3c-0.1-0.1-0.1-0.3-0.2-0.5c0-0.2,0-0.4,0.1-0.7c0.1-0.3,0.2-0.5,0.3-0.7
		c0.1-0.2,0.3-0.4,0.4-0.5c0.2-0.1,0.4-0.3,0.6-0.3C92.6,720,92.8,720,93,720z M92.2,722.8c0.3,0,0.6-0.1,0.8-0.3
		c0.2-0.2,0.4-0.5,0.5-0.9c0.1-0.4,0.1-0.7,0-0.9c-0.1-0.2-0.3-0.3-0.6-0.3c-0.2,0-0.3,0-0.4,0.1c-0.1,0.1-0.3,0.1-0.4,0.2
		c-0.1,0.1-0.2,0.2-0.3,0.4c-0.1,0.1-0.1,0.3-0.2,0.5c0,0.2-0.1,0.4-0.1,0.5c0,0.1,0,0.3,0.1,0.4c0.1,0.1,0.1,0.2,0.2,0.2
		C92,722.8,92.1,722.8,92.2,722.8z"/>
	<path id="_x32__34_" class="st12" d="M94.8,720h0.4c0,0,0.1,0,0.1,0c0,0,0,0,0,0.1l0.1,2c0,0.1,0,0.1,0,0.2c0,0.1,0,0.1,0,0.2
		c0-0.1,0.1-0.1,0.1-0.2c0-0.1,0.1-0.1,0.1-0.2l1.2-2.1c0,0,0-0.1,0.1-0.1c0,0,0.1,0,0.1,0h0.2c0,0,0.1,0,0.1,0c0,0,0,0,0,0.1
		l0.1,2.1c0,0.1,0,0.1,0,0.2c0,0.1,0,0.1,0,0.2c0-0.1,0.1-0.1,0.1-0.2c0-0.1,0.1-0.1,0.1-0.2l1.2-2c0,0,0-0.1,0.1-0.1
		c0,0,0.1,0,0.1,0h0.4l-1.9,3.2h-0.4c-0.1,0-0.1,0-0.1-0.1l-0.1-2.2c0,0,0-0.1,0-0.1c0-0.1,0-0.1,0-0.1c0,0,0,0.1-0.1,0.1
		c0,0,0,0.1-0.1,0.1l-1.3,2.2c0,0.1-0.1,0.1-0.2,0.1H95L94.8,720z"/>
	<path id="_x33__34_" class="st12" d="M101.3,719.9c0.2,0,0.4,0,0.5,0.1c0.1,0.1,0.3,0.2,0.3,0.3c0.1,0.1,0.1,0.3,0.2,0.4
		c0,0.2,0,0.4-0.1,0.6c0,0.1,0,0.1-0.1,0.2c0,0-0.1,0-0.1,0h-2.1c-0.1,0.2-0.1,0.4-0.1,0.5c0,0.1,0,0.3,0.1,0.4
		c0.1,0.1,0.1,0.2,0.3,0.2c0.1,0,0.2,0.1,0.4,0.1c0.1,0,0.3,0,0.4,0c0.1,0,0.2-0.1,0.3-0.1c0.1,0,0.2-0.1,0.2-0.1
		c0.1,0,0.1-0.1,0.1-0.1c0,0,0.1,0,0.1,0.1l0.1,0.2c-0.1,0.1-0.2,0.2-0.3,0.2c-0.1,0.1-0.2,0.1-0.3,0.2c-0.1,0-0.2,0.1-0.4,0.1
		c-0.1,0-0.2,0-0.4,0c-0.2,0-0.4,0-0.6-0.1c-0.2-0.1-0.3-0.2-0.4-0.3c-0.1-0.1-0.2-0.3-0.2-0.5c0-0.2,0-0.5,0.1-0.7
		c0.1-0.2,0.1-0.4,0.3-0.6c0.1-0.2,0.3-0.4,0.4-0.5c0.2-0.1,0.4-0.3,0.6-0.3C100.8,720,101,719.9,101.3,719.9z M101.2,720.4
		c-0.3,0-0.5,0.1-0.7,0.2c-0.2,0.2-0.4,0.4-0.5,0.6h1.7c0-0.1,0.1-0.3,0-0.4c0-0.1,0-0.2-0.1-0.3c0-0.1-0.1-0.1-0.2-0.2
		C101.4,720.4,101.3,720.4,101.2,720.4z"/>
	<path id="_x34__34_" class="st12" d="M102.4,723.2l0.9-3.2h0.3c0.1,0,0.1,0,0.1,0c0,0,0,0.1,0,0.1l-0.1,0.5
		c0.2-0.2,0.4-0.4,0.5-0.5c0.2-0.1,0.4-0.2,0.6-0.2c0.1,0,0.2,0,0.2,0c0.1,0,0.1,0,0.2,0.1l-0.2,0.4c0,0.1-0.1,0.1-0.1,0.1
		c0,0-0.1,0-0.1,0c-0.1,0-0.1,0-0.2,0c-0.2,0-0.4,0.1-0.5,0.2c-0.2,0.1-0.3,0.3-0.5,0.5l-0.5,2H102.4z"/>
	<path id="_x35__34_" class="st12" d="M107.1,719.9c0.2,0,0.4,0,0.5,0.1c0.1,0.1,0.3,0.2,0.3,0.3c0.1,0.1,0.1,0.3,0.2,0.4
		c0,0.2,0,0.4-0.1,0.6c0,0.1,0,0.1-0.1,0.2c0,0-0.1,0-0.1,0h-2.1c-0.1,0.2-0.1,0.4-0.1,0.5c0,0.1,0,0.3,0.1,0.4
		c0.1,0.1,0.1,0.2,0.3,0.2c0.1,0,0.2,0.1,0.4,0.1c0.1,0,0.3,0,0.4,0c0.1,0,0.2-0.1,0.3-0.1c0.1,0,0.2-0.1,0.2-0.1
		c0.1,0,0.1-0.1,0.1-0.1c0,0,0.1,0,0.1,0.1l0.1,0.2c-0.1,0.1-0.2,0.2-0.3,0.2c-0.1,0.1-0.2,0.1-0.3,0.2c-0.1,0-0.2,0.1-0.4,0.1
		c-0.1,0-0.2,0-0.4,0c-0.2,0-0.4,0-0.6-0.1c-0.2-0.1-0.3-0.2-0.4-0.3c-0.1-0.1-0.2-0.3-0.2-0.5c0-0.2,0-0.5,0.1-0.7
		c0.1-0.2,0.2-0.4,0.3-0.6c0.1-0.2,0.3-0.4,0.4-0.5c0.2-0.1,0.4-0.3,0.6-0.3C106.6,720,106.9,719.9,107.1,719.9z M107,720.4
		c-0.3,0-0.5,0.1-0.7,0.2c-0.2,0.2-0.4,0.4-0.5,0.6h1.7c0-0.1,0-0.3,0-0.4c0-0.1,0-0.2-0.1-0.3c0-0.1-0.1-0.1-0.2-0.2
		C107.2,720.4,107.1,720.4,107,720.4z"/>
	<path id="_x36__34_" class="st12" d="M110.5,723.2c-0.1,0-0.1,0-0.1-0.1l0.1-0.4c-0.2,0.2-0.4,0.3-0.6,0.4
		c-0.2,0.1-0.4,0.1-0.6,0.1c-0.2,0-0.3,0-0.5-0.1c-0.1-0.1-0.2-0.2-0.3-0.3c-0.1-0.1-0.1-0.3-0.1-0.5c0-0.2,0-0.4,0.1-0.7
		c0.1-0.2,0.2-0.5,0.3-0.7c0.1-0.2,0.3-0.4,0.4-0.5c0.2-0.2,0.3-0.3,0.5-0.4c0.2-0.1,0.4-0.1,0.6-0.1c0.2,0,0.4,0,0.5,0.1
		c0.1,0.1,0.2,0.2,0.3,0.3l0.5-1.8h0.6l-1.2,4.6H110.5z M109.5,722.8c0.2,0,0.4,0,0.5-0.1c0.2-0.1,0.3-0.2,0.5-0.4l0.4-1.5
		c-0.1-0.1-0.2-0.2-0.3-0.3c-0.1-0.1-0.2-0.1-0.4-0.1c-0.3,0-0.6,0.1-0.8,0.3c-0.2,0.2-0.4,0.5-0.5,0.9c-0.1,0.2-0.1,0.4-0.1,0.5
		c0,0.1,0,0.3,0.1,0.4c0,0.1,0.1,0.2,0.2,0.2C109.3,722.8,109.4,722.8,109.5,722.8z"/>
	<path id="_x37__34_" class="st12" d="M113,723.2l1.2-4.6h0.6l-0.5,1.9c0.2-0.2,0.4-0.3,0.6-0.4c0.2-0.1,0.4-0.1,0.6-0.1
		c0.2,0,0.3,0,0.5,0.1c0.1,0.1,0.2,0.2,0.3,0.3c0.1,0.1,0.1,0.3,0.1,0.5c0,0.2,0,0.4-0.1,0.7c-0.1,0.2-0.2,0.5-0.3,0.7
		c-0.1,0.2-0.3,0.4-0.4,0.5c-0.2,0.1-0.3,0.3-0.5,0.3c-0.2,0.1-0.4,0.1-0.6,0.1c-0.2,0-0.4,0-0.5-0.1c-0.1-0.1-0.2-0.2-0.3-0.3
		l-0.1,0.3c0,0.1-0.1,0.1-0.2,0.1H113z M115.2,720.4c-0.2,0-0.4,0-0.5,0.1c-0.2,0.1-0.3,0.2-0.5,0.4l-0.4,1.5
		c0.1,0.1,0.1,0.2,0.3,0.3c0.1,0.1,0.2,0.1,0.4,0.1c0.3,0,0.6-0.1,0.8-0.3c0.2-0.2,0.4-0.5,0.5-0.9c0.1-0.2,0.1-0.4,0.1-0.5
		c0-0.1,0-0.3-0.1-0.4c0-0.1-0.1-0.2-0.2-0.2C115.4,720.4,115.3,720.4,115.2,720.4z"/>
	<path id="_x38__34_" class="st12" d="M117.1,724.1c0,0-0.1,0.1-0.1,0.1c0,0-0.1,0-0.1,0h-0.4l0.9-1.2l-0.5-3h0.5c0,0,0.1,0,0.1,0
		c0,0,0,0,0,0.1l0.3,2c0,0,0,0.1,0,0.1c0,0,0,0.1,0,0.1c0,0,0.1-0.1,0.1-0.1c0,0,0.1-0.1,0.1-0.1l1.4-2c0,0,0.1-0.1,0.1-0.1
		c0,0,0.1,0,0.1,0h0.4L117.1,724.1z"/>
	<path id="_x39__34_" class="st12" d="M119.6,722.8c0-0.1,0-0.1,0.1-0.2c0-0.1,0.1-0.1,0.1-0.1c0,0,0.1-0.1,0.1-0.1
		c0.1,0,0.1,0,0.2,0c0.1,0,0.1,0,0.1,0c0,0,0.1,0,0.1,0.1c0,0,0,0.1,0.1,0.1c0,0,0,0.1,0,0.2c0,0.1,0,0.1-0.1,0.2
		c0,0-0.1,0.1-0.1,0.1c0,0-0.1,0.1-0.1,0.1c-0.1,0-0.1,0-0.2,0c-0.1,0-0.1,0-0.1,0c0,0-0.1,0-0.1-0.1c0,0,0-0.1,0-0.1
		C119.6,722.9,119.6,722.9,119.6,722.8z M120.3,720.5c0-0.1,0-0.1,0.1-0.2c0,0,0.1-0.1,0.1-0.1c0,0,0.1-0.1,0.1-0.1
		c0.1,0,0.1,0,0.2,0c0.1,0,0.1,0,0.1,0c0,0,0.1,0,0.1,0.1c0,0,0,0.1,0.1,0.1c0,0,0,0.1,0,0.2c0,0.1,0,0.1-0.1,0.2
		c0,0-0.1,0.1-0.1,0.1c0,0-0.1,0.1-0.1,0.1c-0.1,0-0.1,0-0.2,0c-0.1,0-0.1,0-0.1,0c0,0-0.1,0-0.1-0.1c0,0,0-0.1,0-0.1
		C120.3,720.6,120.3,720.5,120.3,720.5z"/>
	<path class="st12" d="M126.7,738.3l-0.1,0.5h-2.3l-0.4,1.6h1.8l-0.1,0.5h-1.8l-0.4,1.6h2.3l-0.1,0.5h-2.9l1.3-4.8H126.7z
		 M126.7,740.8h1.6l-0.1,0.5h-1.6L126.7,740.8z M129.5,742.5h2.1l-0.1,0.5h-2.7l1.3-4.8h0.6L129.5,742.5z M134.1,739.6
		c0.2,0,0.4,0,0.5,0.1c0.2,0.1,0.3,0.2,0.4,0.3c0.1,0.1,0.1,0.3,0.2,0.5c0,0.2,0,0.4-0.1,0.6c0,0.1-0.1,0.2-0.1,0.2c0,0-0.1,0-0.1,0
		h-2.2c-0.1,0.2-0.1,0.4-0.1,0.6c0,0.2,0,0.3,0.1,0.4c0.1,0.1,0.2,0.2,0.3,0.2c0.1,0.1,0.3,0.1,0.4,0.1c0.1,0,0.3,0,0.4-0.1
		c0.1,0,0.2-0.1,0.3-0.1c0.1,0,0.2-0.1,0.2-0.1c0.1,0,0.1-0.1,0.1-0.1c0,0,0.1,0,0.1,0.1l0.1,0.2c-0.1,0.1-0.2,0.2-0.3,0.2
		c-0.1,0.1-0.2,0.1-0.4,0.2c-0.1,0-0.3,0.1-0.4,0.1c-0.1,0-0.3,0-0.4,0c-0.2,0-0.4,0-0.6-0.1c-0.2-0.1-0.3-0.2-0.4-0.3
		c-0.1-0.2-0.2-0.3-0.2-0.6c0-0.2,0-0.5,0.1-0.8c0.1-0.2,0.2-0.5,0.3-0.7c0.1-0.2,0.3-0.4,0.5-0.5c0.2-0.1,0.4-0.3,0.6-0.4
		C133.7,739.6,133.9,739.6,134.1,739.6z M134,740c-0.3,0-0.5,0.1-0.7,0.2c-0.2,0.2-0.4,0.4-0.5,0.7h1.8c0-0.1,0.1-0.3,0-0.4
		c0-0.1,0-0.2-0.1-0.3c-0.1-0.1-0.1-0.1-0.2-0.2C134.3,740.1,134.2,740,134,740z M137.8,743h-0.3c-0.1,0-0.1,0-0.1,0
		c0,0,0-0.1,0-0.1l0-0.3c-0.1,0.1-0.2,0.2-0.3,0.2c-0.1,0.1-0.2,0.1-0.3,0.2c-0.1,0-0.2,0.1-0.3,0.1c-0.1,0-0.2,0-0.4,0
		c-0.1,0-0.2,0-0.4-0.1c-0.1,0-0.2-0.1-0.3-0.2c-0.1-0.1-0.1-0.2-0.1-0.3c0-0.1,0-0.2,0-0.4c0-0.1,0.1-0.3,0.2-0.4
		c0.1-0.1,0.3-0.2,0.4-0.3c0.2-0.1,0.4-0.2,0.7-0.2c0.3-0.1,0.6-0.1,1-0.1l0.1-0.3c0.1-0.3,0.1-0.5,0-0.6c-0.1-0.1-0.2-0.2-0.4-0.2
		c-0.1,0-0.3,0-0.4,0.1c-0.1,0-0.2,0.1-0.3,0.1c-0.1,0-0.2,0.1-0.2,0.1c-0.1,0-0.1,0.1-0.2,0.1c0,0-0.1,0-0.1,0c0,0,0,0-0.1-0.1
		l-0.1-0.2c0.2-0.2,0.5-0.3,0.7-0.4c0.2-0.1,0.5-0.1,0.8-0.1c0.2,0,0.3,0,0.5,0.1c0.1,0.1,0.2,0.1,0.3,0.3c0.1,0.1,0.1,0.2,0.1,0.4
		c0,0.2,0,0.3-0.1,0.5L137.8,743z M136.4,742.7c0.1,0,0.2,0,0.3,0s0.2-0.1,0.3-0.1c0.1,0,0.2-0.1,0.3-0.1c0.1-0.1,0.2-0.1,0.3-0.2
		l0.2-0.7c-0.3,0-0.5,0-0.7,0.1c-0.2,0-0.4,0.1-0.5,0.1c-0.1,0.1-0.2,0.1-0.3,0.2c-0.1,0.1-0.1,0.2-0.1,0.3c0,0.1,0,0.2,0,0.2
		c0,0.1,0,0.1,0.1,0.2c0,0,0.1,0.1,0.1,0.1C136.3,742.6,136.3,742.7,136.4,742.7z M138.7,743l0.9-3.4h0.3c0.1,0,0.1,0,0.1,0
		c0,0,0,0.1,0,0.1l-0.1,0.6c0.2-0.2,0.4-0.4,0.6-0.6c0.2-0.1,0.4-0.2,0.6-0.2c0.1,0,0.2,0,0.2,0c0.1,0,0.1,0.1,0.2,0.1l-0.2,0.4
		c0,0.1-0.1,0.1-0.1,0.1c0,0-0.1,0-0.1,0c-0.1,0-0.1,0-0.3,0c-0.2,0-0.4,0.1-0.6,0.2c-0.2,0.1-0.3,0.3-0.5,0.5l-0.6,2.1H138.7z
		 M141.4,743l0.9-3.4h0.4c0.1,0,0.1,0,0.1,0.1l-0.1,0.4c0.2-0.2,0.4-0.3,0.6-0.4c0.2-0.1,0.4-0.2,0.7-0.2c0.2,0,0.3,0,0.5,0.1
		c0.1,0.1,0.2,0.1,0.3,0.3c0.1,0.1,0.1,0.2,0.1,0.4c0,0.2,0,0.3-0.1,0.5l-0.6,2.1h-0.6l0.6-2.1c0.1-0.3,0.1-0.5,0-0.6
		c-0.1-0.1-0.2-0.2-0.5-0.2c-0.2,0-0.3,0-0.5,0.1c-0.2,0.1-0.3,0.2-0.5,0.3L142,743H141.4z M146.7,739.7l-0.9,3.4h-0.6l0.9-3.4
		H146.7z M147.1,738.6c0,0.1,0,0.1-0.1,0.2c0,0-0.1,0.1-0.1,0.1c0,0-0.1,0.1-0.2,0.1c-0.1,0-0.1,0-0.2,0c-0.1,0-0.1,0-0.2,0
		c0,0-0.1-0.1-0.1-0.1c0,0,0-0.1-0.1-0.1c0,0,0-0.1,0-0.2c0-0.1,0-0.1,0.1-0.2c0-0.1,0.1-0.1,0.1-0.1c0,0,0.1-0.1,0.2-0.1
		c0.1,0,0.1,0,0.2,0c0.1,0,0.1,0,0.2,0c0,0,0.1,0.1,0.1,0.1c0,0,0,0.1,0.1,0.1C147.1,738.5,147.1,738.5,147.1,738.6z M146.8,743
		l0.9-3.4h0.4c0.1,0,0.1,0,0.1,0.1l-0.1,0.4c0.2-0.2,0.4-0.3,0.6-0.4c0.2-0.1,0.4-0.2,0.7-0.2c0.2,0,0.3,0,0.5,0.1
		c0.1,0.1,0.2,0.1,0.3,0.3c0.1,0.1,0.1,0.2,0.1,0.4c0,0.2,0,0.3-0.1,0.5l-0.6,2.1H149l0.6-2.1c0.1-0.3,0.1-0.5,0-0.6
		c-0.1-0.1-0.2-0.2-0.5-0.2c-0.2,0-0.3,0-0.5,0.1c-0.2,0.1-0.3,0.2-0.5,0.3l-0.7,2.5H146.8z M152.5,739.6c0.1,0,0.3,0,0.4,0
		c0.1,0,0.2,0.1,0.3,0.1h0.9l-0.1,0.2c0,0.1-0.1,0.1-0.2,0.1l-0.4,0.1c0,0.1,0,0.3,0,0.5c0,0.2-0.1,0.3-0.2,0.4
		c-0.1,0.1-0.2,0.2-0.4,0.3c-0.1,0.1-0.3,0.2-0.5,0.2c-0.2,0-0.3,0.1-0.5,0.1c-0.2,0-0.3,0-0.4-0.1c-0.1,0-0.1,0.1-0.2,0.1
		c-0.1,0.1-0.1,0.1-0.1,0.2c0,0.1,0,0.1,0,0.2c0.1,0,0.1,0.1,0.2,0.1c0.1,0,0.2,0,0.4,0c0.1,0,0.3,0,0.4,0c0.1,0,0.3,0,0.4,0
		c0.1,0,0.2,0.1,0.3,0.1c0.1,0.1,0.2,0.1,0.2,0.2c0,0.1,0,0.2,0,0.4c0,0.1-0.1,0.3-0.2,0.4c-0.1,0.1-0.2,0.3-0.4,0.4
		c-0.2,0.1-0.3,0.2-0.6,0.3c-0.2,0.1-0.4,0.1-0.7,0.1c-0.2,0-0.5,0-0.6-0.1c-0.2,0-0.3-0.1-0.4-0.2c-0.1-0.1-0.2-0.2-0.2-0.3
		c0-0.1,0-0.2,0-0.3c0-0.2,0.1-0.3,0.3-0.4c0.1-0.1,0.3-0.2,0.5-0.3c-0.1,0-0.1-0.1-0.2-0.2c0-0.1,0-0.2,0-0.3c0,0,0-0.1,0.1-0.2
		c0-0.1,0.1-0.1,0.1-0.2c0-0.1,0.1-0.1,0.2-0.1c0.1,0,0.1-0.1,0.2-0.1c-0.1-0.1-0.2-0.2-0.3-0.4c-0.1-0.2-0.1-0.3,0-0.5
		c0-0.2,0.1-0.3,0.2-0.4c0.1-0.1,0.2-0.3,0.4-0.3c0.1-0.1,0.3-0.2,0.5-0.2C152.2,739.6,152.4,739.6,152.5,739.6z M152.6,743.2
		c0-0.1,0-0.2,0-0.2c0-0.1-0.1-0.1-0.2-0.1c-0.1,0-0.2,0-0.3-0.1c-0.1,0-0.2,0-0.3,0c-0.1,0-0.2,0-0.4,0c-0.1,0-0.2,0-0.3,0
		c-0.1,0.1-0.3,0.1-0.4,0.2c-0.1,0.1-0.2,0.2-0.2,0.3c0,0.1,0,0.1,0,0.2c0,0.1,0.1,0.1,0.1,0.2c0.1,0,0.2,0.1,0.3,0.1
		c0.1,0,0.3,0,0.4,0c0.2,0,0.3,0,0.4,0c0.1,0,0.3-0.1,0.4-0.1c0.1-0.1,0.2-0.1,0.3-0.2C152.6,743.4,152.6,743.3,152.6,743.2z
		 M152.1,741.4c0.1,0,0.2,0,0.3,0c0.1,0,0.2-0.1,0.3-0.1c0.1-0.1,0.1-0.1,0.2-0.2c0.1-0.1,0.1-0.2,0.1-0.3c0.1-0.2,0-0.4-0.1-0.5
		c-0.1-0.1-0.3-0.2-0.5-0.2c-0.2,0-0.4,0.1-0.6,0.2c-0.2,0.1-0.3,0.3-0.3,0.5c0,0.1,0,0.2,0,0.3c0,0.1,0,0.2,0.1,0.2
		c0,0.1,0.1,0.1,0.2,0.1C151.9,741.4,152,741.4,152.1,741.4z M159.8,738.3l-0.1,0.5h-1.5L157,743h-0.6l1.1-4.2h-1.5l0.1-0.5H159.8z
		 M160.6,739.6c0.2,0,0.4,0,0.5,0.1c0.2,0.1,0.3,0.2,0.4,0.3c0.1,0.1,0.1,0.3,0.2,0.5c0,0.2,0,0.4-0.1,0.6c0,0.1,0,0.2-0.1,0.2
		c0,0-0.1,0-0.1,0h-2.2c-0.1,0.2-0.1,0.4-0.1,0.6c0,0.2,0,0.3,0.1,0.4c0.1,0.1,0.2,0.2,0.3,0.2c0.1,0.1,0.2,0.1,0.4,0.1
		c0.1,0,0.3,0,0.4-0.1c0.1,0,0.2-0.1,0.3-0.1c0.1,0,0.2-0.1,0.2-0.1c0.1,0,0.1-0.1,0.1-0.1c0,0,0.1,0,0.1,0.1l0.1,0.2
		c-0.1,0.1-0.2,0.2-0.3,0.2c-0.1,0.1-0.2,0.1-0.4,0.2c-0.1,0-0.3,0.1-0.4,0.1c-0.1,0-0.3,0-0.4,0c-0.2,0-0.4,0-0.6-0.1
		c-0.2-0.1-0.3-0.2-0.4-0.3c-0.1-0.2-0.2-0.3-0.2-0.6c0-0.2,0-0.5,0.1-0.8c0.1-0.2,0.2-0.5,0.3-0.7c0.1-0.2,0.3-0.4,0.5-0.5
		c0.2-0.1,0.4-0.3,0.6-0.4C160.2,739.6,160.4,739.6,160.6,739.6z M160.5,740c-0.3,0-0.5,0.1-0.7,0.2c-0.2,0.2-0.4,0.4-0.5,0.7h1.8
		c0-0.1,0-0.3,0-0.4c0-0.1,0-0.2-0.1-0.3c-0.1-0.1-0.1-0.1-0.2-0.2C160.8,740.1,160.7,740,160.5,740z M164.3,743h-0.3
		c-0.1,0-0.1,0-0.1,0c0,0,0-0.1,0-0.1l0-0.3c-0.1,0.1-0.2,0.2-0.3,0.2c-0.1,0.1-0.2,0.1-0.3,0.2c-0.1,0-0.2,0.1-0.3,0.1
		c-0.1,0-0.2,0-0.4,0c-0.1,0-0.2,0-0.4-0.1c-0.1,0-0.2-0.1-0.3-0.2c-0.1-0.1-0.1-0.2-0.1-0.3c0-0.1,0-0.2,0-0.4
		c0-0.1,0.1-0.3,0.2-0.4c0.1-0.1,0.3-0.2,0.4-0.3c0.2-0.1,0.4-0.2,0.7-0.2c0.3-0.1,0.6-0.1,1-0.1l0.1-0.3c0.1-0.3,0.1-0.5,0-0.6
		c-0.1-0.1-0.2-0.2-0.4-0.2c-0.1,0-0.3,0-0.4,0.1c-0.1,0-0.2,0.1-0.3,0.1c-0.1,0-0.2,0.1-0.2,0.1c-0.1,0-0.1,0.1-0.2,0.1
		c0,0-0.1,0-0.1,0c0,0,0,0-0.1-0.1l-0.1-0.2c0.2-0.2,0.5-0.3,0.7-0.4c0.2-0.1,0.5-0.1,0.7-0.1c0.2,0,0.3,0,0.5,0.1
		c0.1,0.1,0.2,0.1,0.3,0.3c0.1,0.1,0.1,0.2,0.1,0.4c0,0.2,0,0.3-0.1,0.5L164.3,743z M162.9,742.7c0.1,0,0.2,0,0.3,0
		c0.1,0,0.2-0.1,0.3-0.1c0.1,0,0.2-0.1,0.3-0.1c0.1-0.1,0.2-0.1,0.3-0.2l0.2-0.7c-0.3,0-0.5,0-0.7,0.1c-0.2,0-0.4,0.1-0.5,0.1
		c-0.1,0.1-0.2,0.1-0.3,0.2c-0.1,0.1-0.1,0.2-0.2,0.3c0,0.1,0,0.2,0,0.2c0,0.1,0,0.1,0.1,0.2c0,0,0.1,0.1,0.1,0.1
		C162.8,742.6,162.8,742.7,162.9,742.7z M165.2,743l0.9-3.4h0.3c0.1,0,0.1,0,0.1,0.1l0,0.3c0.2-0.2,0.3-0.3,0.5-0.4
		c0.2-0.1,0.4-0.1,0.6-0.1c0.2,0,0.4,0.1,0.5,0.2c0.1,0.1,0.2,0.3,0.2,0.5c0.1-0.1,0.2-0.2,0.3-0.3c0.1-0.1,0.2-0.2,0.3-0.2
		c0.1-0.1,0.2-0.1,0.3-0.1c0.1,0,0.2,0,0.3,0c0.2,0,0.3,0,0.5,0.1c0.1,0.1,0.2,0.1,0.3,0.2c0.1,0.1,0.1,0.2,0.1,0.4
		c0,0.2,0,0.3-0.1,0.5l-0.6,2.1h-0.6l0.6-2.1c0.1-0.3,0.1-0.5,0-0.6c-0.1-0.1-0.2-0.2-0.4-0.2c-0.1,0-0.2,0-0.3,0.1
		c-0.1,0-0.2,0.1-0.3,0.2c-0.1,0.1-0.2,0.2-0.2,0.3c-0.1,0.1-0.1,0.2-0.2,0.4l-0.6,2.1h-0.6l0.6-2.1c0.1-0.3,0.1-0.5,0-0.6
		c-0.1-0.1-0.2-0.2-0.4-0.2c-0.1,0-0.3,0-0.4,0.1c-0.1,0.1-0.3,0.2-0.4,0.3l-0.7,2.5H165.2z"/>
</g>
<g>
	<g>
		<linearGradient id="SVGID_9_" gradientUnits="userSpaceOnUse" x1="760.169" y1="141.1099" x2="960.3467" y2="141.1099">
			<stop  offset="0" style="stop-color:#FFFFFF;stop-opacity:0"/>
			<stop  offset="4.017906e-002" style="stop-color:#FDEBEE;stop-opacity:4.051906e-002"/>
			<stop  offset="0.1257" style="stop-color:#FAC6CE;stop-opacity:0.1267"/>
			<stop  offset="0.2187" style="stop-color:#F7A7B2;stop-opacity:0.2205"/>
			<stop  offset="0.3192" style="stop-color:#F58D9C;stop-opacity:0.3219"/>
			<stop  offset="0.4302" style="stop-color:#F3798A;stop-opacity:0.4338"/>
			<stop  offset="0.5573" style="stop-color:#F26C7E;stop-opacity:0.562"/>
			<stop  offset="0.7143" style="stop-color:#F16377;stop-opacity:0.7204"/>
			<stop  offset="0.9916" style="stop-color:#F16175"/>
		</linearGradient>
		<rect x="760.2" y="128.8" class="st15" width="200.2" height="24.7"/>
		<g>
			<g>
				<path class="st13" d="M910.5,145.7c-4.3,0-5.9-2-5.9-5.1c0-2.9,1.8-5.5,5.8-5.5c2.6,0,4.6,0.8,4.6,0.8v7.6h2.2v2.3H910.5z
					 M906.9,132.2c0-0.8,0.6-1.5,1.5-1.5c0.8,0,1.5,0.7,1.5,1.5c0,0.8-0.6,1.5-1.5,1.5C907.5,133.7,906.9,133,906.9,132.2z
					 M912.3,137.7c0,0-0.8-0.4-2.1-0.4c-1.7,0-2.6,1.3-2.6,3c0,2,1,3.1,3.3,3.1h1.4V137.7z M910.6,132.2c0-0.8,0.6-1.5,1.5-1.5
					s1.5,0.7,1.5,1.5c0,0.8-0.6,1.5-1.5,1.5S910.6,133,910.6,132.2z"/>
				<path class="st13" d="M916.9,143.4h4.1v-8.1h2.9v10.3h-7V143.4z M918.8,150.5c-0.8,0-1.5-0.7-1.5-1.5c0-0.8,0.6-1.5,1.5-1.5
					c0.8,0,1.5,0.7,1.5,1.5C920.2,149.8,919.6,150.5,918.8,150.5z M922.4,150.5c-0.8,0-1.5-0.7-1.5-1.5c0-0.8,0.6-1.5,1.5-1.5
					c0.8,0,1.5,0.7,1.5,1.5C923.9,149.8,923.2,150.5,922.4,150.5z"/>
				<path class="st13" d="M924,151l0.2-2.3c0.5,0.2,1.1,0.3,1.8,0.3c1.5,0,2.4-0.7,2.4-3.1v-10.6h2.9v8.1h2.2v2.3h-2.2v0.1
					c0,2.8-0.9,5.5-5.4,5.5C925.2,151.3,924.6,151.2,924,151z"/>
				<path class="st13" d="M933.2,143.4h0.7c1.4,0,2-0.6,2-2.8v-4h2.9v4.4c0,1.7,0.4,2.6,1.7,2.6c1.3,0,1.6-0.9,1.6-2.5v-5.3h2.8v5.2
					c0,1.8,0.5,2.4,2.4,2.4h0.8c0.1-0.9,0.2-2,0.2-2.6c0-2.2-0.3-4.2-0.6-5.9l2.8-0.4c0.4,1.8,0.7,3.9,0.7,6.1
					c0,1.6-0.1,3.6-0.3,5.1h-4.1c-1.9,0-3.1-0.4-3.6-1.6c-0.5,1.2-1.8,1.8-3.2,1.8c-1.6,0-2.8-0.7-3.1-1.8c-0.4,1.1-1.3,1.6-2.9,1.6
					h-0.7V143.4z"/>
			</g>
		</g>
		<g>
			<path class="st8" d="M735.6,147.3c0.1,0.4,0.2,0.8,0.2,1.1c0,0.9-0.6,1.7-1.9,2.2l-4.9,1.9c-1.5,0.6-2.8,1.1-2.8,2
				c0,0.1,0,0.1,0,0.2l-0.2,0.1c-0.1-0.4-0.2-0.8-0.2-1.1c0-0.9,0.5-1.7,1.9-2.3l4.9-1.9c1.7-0.7,2.8-1.1,2.8-2.2L735.6,147.3z"/>
			<path class="st8" d="M737.6,123.5h8.9v3.3h-8.9c0,5.9-1.5,10.5-5.1,14.3c-3.2,3.6-7.1,5.4-11.7,5.4c-2,0-3.9-0.4-5.9-1.2l0.3-0.6
				c1.3,0.7,2.7,1,4.2,1c8.1,0,15-7.4,15-18.9v-21.2h3.3V123.5z"/>
			<path class="st8" d="M777.5,93.3c0.3-0.2,0.7-0.3,1.1-0.3v0.2c-0.7,0.1-0.7,1.2-0.7,2.4v2c0,1.7-1.4,3.1-3.1,3.1
				c-1.9,0-3.4-1.1-3.4-2.8v-1.2c0-1.8,1.6-3.4,3.4-3.4H777.5z M774.9,94.4c-1.4,0-2.5,1-2.5,2.3v1.2c0,0.9,1,1.7,2.3,1.7
				c1,0,2.1-0.9,2.1-2.1v-2.6c0-0.2,0-0.5,0.1-0.6H774.9z"/>
			<path class="st8" d="M796.6,126.8h-50.2v-3.3h2.8c0.6-0.3,0.9-1.1,0.9-2.5c0-3.4-0.8-6.6-3.2-8.8l0.4-0.3
				c2.2,2.1,3.7,4.7,4.4,7.3c0.7-8.2,8.8-14.5,19.3-14.5h6.9c6.1,0.5,11.1,6.1,11.1,12.4v6.5h7.6V126.8z M785.7,123.5V117
				c0-3.8-1.7-6.5-5.1-8.1c-1.4-0.6-3.3-0.9-6.2-0.9H771c-11.1,0-18.8,6.2-18.8,14.5v1H785.7z"/>
			<path class="st8" d="M817.7,89.9c0.1,0.4,0.2,0.8,0.2,1.1c0,0.9-0.6,1.7-1.9,2.2l-4.9,1.9c-1.5,0.6-2.8,1.1-2.8,2
				c0,0.1,0,0.1,0,0.2l-0.2,0.1c-0.1-0.4-0.2-0.8-0.2-1.1c0-0.9,0.5-1.7,1.9-2.3l4.9-1.9c1.7-0.7,2.8-1.1,2.8-2.2L817.7,89.9z"/>
			<path class="st8" d="M826.1,126.8h-29.6v-3.3h4.6c-1.7-1.7-2.5-4.1-2.5-6.3c0-5.1,4.5-9.6,9.7-9.6h6.9c3.4,0,6.8,0,7-2.2h0.5
				c0,3.4-1.9,5.4-5.8,5.4h-8.2c-4.2,0-7.1,2.7-7.1,6.4c0,3.6,2.8,6.2,6.7,6.3h17.9V126.8z"/>
			<path class="st8" d="M836,81.1c0.3-0.2,0.7-0.3,1.1-0.3v0.2c-0.7,0.1-0.7,1.2-0.7,2.4v2c0,1.7-1.4,3.1-3.1,3.1
				c-1.9,0-3.4-1.1-3.4-2.8v-1.2c0-1.8,1.6-3.4,3.4-3.4H836z M833.5,82.2c-1.4,0-2.5,1-2.5,2.3v1.2c0,0.9,1,1.7,2.3,1.7
				c1,0,2.1-0.9,2.1-2.1v-2.6c0-0.2,0-0.5,0.1-0.6H833.5z"/>
			<path class="st8" d="M829.7,88.6c3.1,0.1,5.3,1.7,5.3,6v21.6c0,4-2.5,7.9-6,9.6c-1.2,0.6-2.2,0.9-3,0.9v-3.3
				c2.4-0.2,5.8-2.8,5.8-7.3v-20c0-3.5,0-7-2.1-7.2V88.6z"/>
			<path class="st8" d="M842.5,96.7c0-5.7-0.2-7.3-2-7.5v-0.4c3.5,0.1,5.2,2.2,5.2,6.2v31.8h-3.3V96.7z"/>
			<path class="st8" d="M869.6,81.2c-1.3,2.3-3.3,3.5-5.2,3.5c-1.4,0-2.8-0.7-3.7-1.8l0.1-0.1c0.7,0.9,1.8,1.4,3,1.4
				c1.7,0,3.6-1,4.9-3.4l0.3-0.6c-0.2,0-0.4,0.1-0.6,0.1c-1.8,0-3.1-1.7-3.1-3.1c0-0.4,0.1-0.8,0.3-1.1l0.6-1c0.6-1,1.7-1.6,2.8-1.6
				c0.5,0,1,0.1,1.5,0.4l-0.4,0.9c-0.4-0.2-0.8-0.3-1.2-0.3c-0.8,0-1.5,0.4-1.9,1.1l-0.5,1c-0.1,0.2-0.2,0.4-0.2,0.6
				c0,0.8,0.8,2,2.1,2c0.5,0,0.9-0.2,1.3-0.5l1.7-3.1l-1.4-0.8l0.4-0.9l2.2,1.2c0.3,0,0.7,0.1,1,0.3l-0.1,0.1c-0.1,0-0.2,0-0.2,0
				c-0.5,0-0.9,0.9-1.4,1.7l-0.9,1.6L869.6,81.2z"/>
			<path class="st8" d="M879,104.5c0.8-0.5,1.9-0.7,3.1-0.8v0.5c-2.1,0.3-2.1,3.7-2.1,7.2v6c0,5.2-4.3,9.3-9.4,9.3
				c-5.4,0-10.2-3.6-10.2-8.3v-3.6c0-5.5,4.8-10.3,10.3-10.3H879z M871.3,107.8c-4.3,0-7.4,3.2-7.4,7v3.6c0,2.6,2.9,5.1,6.8,5.1
				c3.3,0,6.2-2.8,6.2-6.1v-7.6c0-0.9,0-1.4,0.3-2H871.3z M866.9,100.3l-2.9-2.9l2.9-2.8l2.9,2.8L866.9,100.3z M872.7,100.3
				l-2.9-2.9l2.9-2.8l2.9,2.8L872.7,100.3z"/>
			<path class="st8" d="M917.9,126.8c-3.4,0-6.6-1.6-8.3-4.5c-1,2-4.5,4.5-8,4.5h-17.1v-3.3h10.9v-13.1c0-3.7-0.2-7.2-2.2-7.5v-0.5
				c3.4,0.2,5.5,1.8,5.5,6.2v14.9h2.9c3.8,0,6.8-3.3,6.8-7.7V95.1c0-3.8-0.1-7.1-2.1-7.4v-0.5c3.3,0.1,5.4,1.8,5.4,6.1V118
				c0.3,3.3,2.8,5.2,6.2,5.5V126.8z"/>
			<path class="st8" d="M951.2,92.9c0.1,0.4,0.2,0.8,0.2,1.1c0,0.9-0.6,1.7-1.9,2.2l-4.9,1.9c-1.5,0.6-2.8,1.1-2.8,2
				c0,0.1,0,0.1,0,0.2l-0.2,0.1c-0.1-0.4-0.2-0.8-0.2-1.1c0-0.9,0.5-1.7,1.9-2.3l4.9-1.9c1.7-0.7,2.8-1.1,2.8-2.2L951.2,92.9z"/>
			<path class="st8" d="M960.3,126.8h-42.6v-3.3h2.8c0.6-0.3,0.9-1.1,0.9-2.5c0-3.4-0.8-6.6-3.2-8.8l0.4-0.3
				c2.2,2.1,3.7,4.7,4.4,7.3c0.7-8.2,8.8-14.5,19.3-14.5h6.9c6.1,0.5,11.2,6.1,11.1,12.4V126.8z M957.1,123.5V117
				c0-3.8-1.7-6.5-5.1-8.1c-1.4-0.6-3.3-0.9-6.2-0.9h-3.4c-11.1,0-18.8,6.2-18.8,14.5v1H957.1z"/>
		</g>
	</g>
</g>
</svg>
