<?xml version="1.0" encoding="utf-8"?>
<!-- Generator: Adobe Illustrator 19.2.0, SVG Export Plug-In . SVG Version: 6.00 Build 0)  -->
<svg version="1.1" id="Layer_1" xmlns="http://www.w3.org/2000/svg" xmlns:xlink="http://www.w3.org/1999/xlink" x="0px" y="0px"
	 viewBox="0 0 1024 768" style="enable-background:new 0 0 1024 768;" xml:space="preserve">
<style type="text/css">
	.st0{fill:url(#SVGID_1_);}
	.st1{clip-path:url(#SVGID_3_);}
	.st2{fill:url(#SVGID_4_);}
	.st3{fill:#F68A1F;}
	.st4{filter:url(#Adobe_OpacityMaskFilter);}
	.st5{filter:url(#Adobe_OpacityMaskFilter_1_);}
	.st6{mask:url(#SVGID_5_);fill:url(#SVGID_6_);}
	.st7{fill:url(#SVGID_7_);}
	.st8{fill:#622872;}
	.st9{fill:url(#SVGID_8_);}
	.st10{fill:#CA4977;}
	.st11{fill-rule:evenodd;clip-rule:evenodd;fill:#F6DFB4;}
	.st12{fill:#D2D3D4;}
	.st13{fill:#FFFFFF;}
	.st14{fill:#205B6A;}
	.st15{fill:url(#SVGID_9_);}
</style>
<g>
	<g>
		<g>
			<g>
				<linearGradient id="SVGID_1_" gradientUnits="userSpaceOnUse" x1="245.9869" y1="138.1416" x2="245.9869" y2="721.1326">
					<stop  offset="0" style="stop-color:#3553A4"/>
					<stop  offset="2.188736e-002" style="stop-color:#3B57A6"/>
					<stop  offset="0.2059" style="stop-color:#6576B8"/>
					<stop  offset="0.3861" style="stop-color:#8694CA"/>
					<stop  offset="0.5587" style="stop-color:#A2B1DA"/>
					<stop  offset="0.7217" style="stop-color:#B9C7E6"/>
					<stop  offset="0.8713" style="stop-color:#C7D6EE"/>
					<stop  offset="0.9949" style="stop-color:#CCDBF0"/>
				</linearGradient>
				<path class="st0" d="M396.2,266.9h-6.1c-1.8-28.2-25.9-59.6-71.7-93.4c-35-25.9-70.5-43.7-70.9-43.9c-1-0.5-2.2-0.5-3.1,0
					c-0.3,0.2-35.9,18-70.9,43.9c-45.7,33.8-69.8,65.2-71.7,93.4h-6.1c-1.9,0-3.5,1.6-3.5,3.5v360.2h307.5V270.4
					C399.7,268.5,398.2,266.9,396.2,266.9z"/>
			</g>
		</g>
	</g>
	<g>
		<defs>
			<path id="SVGID_2_" d="M396.2,266.9h-6.1c-1.8-28.2-25.9-59.6-71.7-93.4c-35-25.9-70.5-43.7-70.9-43.9c-1-0.5-2.2-0.5-3.1,0
				c-0.3,0.2-35.9,18-70.9,43.9c-45.7,33.8-69.8,65.2-71.7,93.4h-6.1c-1.9,0-3.5,1.6-3.5,3.5v360.2h307.5V270.4
				C399.7,268.5,398.2,266.9,396.2,266.9z"/>
		</defs>
		<clipPath id="SVGID_3_">
			<use xlink:href="#SVGID_2_"  style="overflow:visible;"/>
		</clipPath>
		<g class="st1">
			
				<radialGradient id="SVGID_4_" cx="135.3634" cy="369.3239" r="54.2731" fx="124.223" fy="353.2803" gradientUnits="userSpaceOnUse">
				<stop  offset="0.1436" style="stop-color:#FBF067"/>
				<stop  offset="0.5314" style="stop-color:#FFDE00"/>
				<stop  offset="0.9166" style="stop-color:#F47D20"/>
			</radialGradient>
			<circle class="st2" cx="136.4" cy="371.9" r="48.7"/>
			<g>
				<path class="st3" d="M136.4,323.2c-26.9,0-48.7,21.8-48.7,48.7c0,26.9,21.8,48.7,48.7,48.7c26.9,0,48.7-21.8,48.7-48.7
					C185.1,345,163.3,323.2,136.4,323.2z M134.7,417.4c-25.1,0-45.5-20.4-45.5-45.5c0-25.1,20.4-45.5,45.5-45.5
					c25.1,0,45.5,20.4,45.5,45.5C180.2,397,159.8,417.4,134.7,417.4z"/>
				<path class="st3" d="M141.7,307.1c0,2.7-2,4.9-4.6,4.9l0,0c-2.5,0-4.6-2.2-4.6-4.9v-8.7c0-2.7,2-4.9,4.6-4.9l0,0
					c2.5,0,4.6,2.2,4.6,4.9V307.1z"/>
				<path class="st3" d="M141.7,440.3c0,2.7-2,4.9-4.6,4.9l0,0c-2.5,0-4.6-2.2-4.6-4.9v-8.7c0-2.7,2-4.9,4.6-4.9l0,0
					c2.5,0,4.6,2.2,4.6,4.9V440.3z"/>
				<path class="st3" d="M199.4,373.9c-2.7,0-4.9-2-4.9-4.6l0,0c0-2.5,2.2-4.6,4.9-4.6h8.7c2.7,0,4.9,2,4.9,4.6l0,0
					c0,2.5-2.2,4.6-4.9,4.6H199.4z"/>
				<path class="st3" d="M66.1,373.9c-2.7,0-4.9-2-4.9-4.6l0,0c0-2.5,2.2-4.6,4.9-4.6h8.7c2.7,0,4.9,2,4.9,4.6l0,0
					c0,2.5-2.2,4.6-4.9,4.6H66.1z"/>
				<path class="st3" d="M184.4,328.5c-1.9,1.9-4.9,2.1-6.7,0.3l0,0c-1.8-1.8-1.7-4.8,0.3-6.7l6.2-6.2c1.9-1.9,4.9-2.1,6.7-0.3l0,0
					c1.8,1.8,1.7,4.8-0.3,6.7L184.4,328.5z"/>
				<path class="st3" d="M90.2,422.7c-1.9,1.9-4.9,2.1-6.7,0.3l0,0c-1.8-1.8-1.7-4.8,0.3-6.7l6.2-6.2c1.9-1.9,4.9-2.1,6.7-0.3l0,0
					c1.8,1.8,1.7,4.8-0.3,6.7L90.2,422.7z"/>
				<path class="st3" d="M177.9,416.6c-1.9-1.9-2-4.9-0.3-6.7l0,0c1.8-1.8,4.8-1.7,6.7,0.3l6.2,6.2c1.9,1.9,2.1,4.9,0.3,6.7l0,0
					c-1.8,1.8-4.8,1.7-6.7-0.3L177.9,416.6z"/>
				<path class="st3" d="M83.7,322.4c-1.9-1.9-2-4.9-0.3-6.7l0,0c1.8-1.8,4.8-1.7,6.7,0.3l6.2,6.2c1.9,1.9,2.1,4.9,0.3,6.7l0,0
					c-1.8,1.8-4.8,1.7-6.7-0.3L83.7,322.4z"/>
			</g>
			<defs>
				<filter id="Adobe_OpacityMaskFilter" filterUnits="userSpaceOnUse" x="90.5" y="327.2" width="72.7" height="48.8">
					<feFlood  style="flood-color:white;flood-opacity:1" result="back"/>
					<feBlend  in="SourceGraphic" in2="back" mode="normal"/>
				</filter>
			</defs>
			<mask maskUnits="userSpaceOnUse" x="90.5" y="327.2" width="72.7" height="48.8" id="SVGID_5_">
				<g class="st4">
					<defs>
						<filter id="Adobe_OpacityMaskFilter_1_" filterUnits="userSpaceOnUse" x="90.5" y="327.2" width="72.7" height="48.8">
							<feFlood  style="flood-color:white;flood-opacity:1" result="back"/>
							<feBlend  in="SourceGraphic" in2="back" mode="normal"/>
						</filter>
					</defs>
					<mask maskUnits="userSpaceOnUse" x="90.5" y="327.2" width="72.7" height="48.8" id="SVGID_5_">
						<g class="st5">
						</g>
					</mask>
					
						<radialGradient id="SVGID_6_" cx="125.4034" cy="331.5899" r="50.6721" fx="142.5795" fy="305.4768" gradientUnits="userSpaceOnUse">
						<stop  offset="0.2627" style="stop-color:#FFFFFF"/>
						<stop  offset="0.7268" style="stop-color:#FFFFFF"/>
						<stop  offset="0.9716" style="stop-color:#000000"/>
					</radialGradient>
					<path class="st6" d="M105.2,337.9c9-9.2,32.2-15.4,48.6-6.2c16.4,9.2,11,26.7-15.4,25.7c-26.4-1-42.3,8.6-44.4,16.8
						C92,382.5,82.9,360.7,105.2,337.9z"/>
				</g>
			</mask>
			
				<radialGradient id="SVGID_7_" cx="125.4034" cy="331.5899" r="50.6721" fx="142.5795" fy="305.4768" gradientUnits="userSpaceOnUse">
				<stop  offset="0.2627" style="stop-color:#FFFFFF"/>
				<stop  offset="0.7268" style="stop-color:#FBF067"/>
				<stop  offset="0.9716" style="stop-color:#FFDE00"/>
			</radialGradient>
			<path class="st7" d="M105.2,337.9c9-9.2,32.2-15.4,48.6-6.2c16.4,9.2,11,26.7-15.4,25.7c-26.4-1-42.3,8.6-44.4,16.8
				C92,382.5,82.9,360.7,105.2,337.9z"/>
		</g>
	</g>
</g>
<g>
	<path class="st8" d="M722.9,213.5c0-0.8,0.7-1.5,1.5-1.5c0.8,0,1.5,0.7,1.5,1.5c0,0.8-0.7,1.5-1.5,1.5
		C723.6,215,722.9,214.4,722.9,213.5z M722.9,221c0-0.8,0.7-1.5,1.5-1.5c0.8,0,1.5,0.7,1.5,1.5c0,0.8-0.7,1.5-1.5,1.5
		C723.6,222.5,722.9,221.8,722.9,221z"/>
	<path class="st8" d="M739,200.9l5.7-1.1v1.2l-5.7,1.1V200.9z M739,203.4l5.7-1.1v1.2l-5.7,1.1V203.4z"/>
	<path class="st8" d="M746.5,221c0,0.4-0.2,1.2-1.5,1.2c-2.1,0-3.7-0.6-4.1-2.9c-1.8,2.2-4.4,3-7.2,3l-0.8-1.7l0.1-0.1
		c2.3,0,4.3-0.5,5.9-1.6c-1.3-2.5-3.4-4.6-6.1-7.1l0.7-1.9l0.2-0.1c3,2.7,5.4,6.1,6.4,8.1c0.3-0.3,0.5-0.6,0.7-1v-10.7l1.7-0.4
		l0.1,0.1V218c0,1.9,0.8,2.3,2.8,2.3C746.3,220.4,746.5,220.6,746.5,221z"/>
	<path class="st8" d="M749.5,214.2c0.7,1.7,1.2,3.3,1.2,4.3c0,1-0.4,2.2-1.2,2.9c-0.6,0.6-1.6,0.8-3.8,0.8h-0.7l0.5-1.9h0.7
		c1.2,0,2.1-0.1,2.5-0.3c0.5-1.2-0.2-2.9-1-4.7l1.5-1.2H749.5z M746.2,210.4c0.4,0,0.8,0,1.2,0c-0.3-0.4-0.5-1-0.5-1.5
		c0-1.3,0.8-2.1,2.2-2.1c0.6,0,1.2,0.1,1.8,0.4l-0.4,1.4c-0.5-0.2-0.9-0.3-1.2-0.3c-0.7,0-1,0.5-1,1c0,0.4,0.2,0.8,0.5,1.1
		c0.8,0,1.7-0.1,2.4-0.2l0.1,1.3c-1.3,0.2-3,0.3-5,0.4L746.2,210.4z"/>
	<path class="st8" d="M753.8,218.3v-12l1.7-0.4l0.1,0.1V218c0,1.9,0.8,2.3,2.8,2.3c0.8,0,1,0.3,1,0.6c0,0.4-0.2,1.2-1.5,1.2
		C755.6,222.2,753.8,221.4,753.8,218.3z"/>
	<path class="st8" d="M767,217c0,2.3-0.4,3.6-1.5,4.4c-1.3,0.7-3.1,0.8-7.6,0.8l0.5-1.9c4.6,0,6.1-0.2,6.8-0.5
		c0.1-0.3,0.1-0.8,0.2-1.5c-0.7,0.2-1.6,0.3-2.5,0.3c-2.1,0-3.1-1.1-3.1-2.8c0-2.2,1.6-4.6,3.5-4.6C765.6,211.3,767,214.1,767,217z
		 M762,208.7l-1.9-1.4l1.2-1.8l1.9,1.3L762,208.7z M763.3,216.8c0.8,0,1.5-0.1,2.2-0.2c-0.1-1.7-1.1-3.5-2.2-3.5
		c-0.9,0-1.9,1.2-1.9,2.5C761.4,216.5,762.1,216.8,763.3,216.8z M765.3,208.7l-1.9-1.4l1.2-1.8l1.9,1.3L765.3,208.7z"/>
	<path class="st8" d="M775,222.1l0.3-1.8l0.1-0.1c0.7,0.2,2.1,0.2,2.6,0.2c1.6,0,3.5-0.3,4-0.9c-0.3-1.9-1.9-4-3.7-5.8l1-1.8h0.2
		c2.4,2.6,4.1,5,4.1,6.9c0,2.4-2,3.5-5.7,3.5C777.4,222.3,776,222.3,775,222.1z"/>
	<path class="st8" d="M796.2,221c0,0.4-0.2,1.2-1.5,1.2H793c-0.8,2.3-3,4.1-7,4.2l-1-1.4l0.1-0.2c3-0.1,5.2-1.1,6.1-2.7h-0.7
		c-3,0-4.4-1.2-4.4-3.1c0-2.2,1.6-4.7,3.5-4.7c2.2,0,3.6,2.7,3.6,5.7v0.1h1.9C796,220.4,796.2,220.6,796.2,221z M791.8,220.4v-0.1
		c0-2.1-1.1-3.8-2.2-3.8c-0.9,0-1.9,1-1.9,2.6c0,0.9,0.8,1.4,3.1,1.4H791.8z"/>
	<path class="st8" d="M810.8,221c0,0.4-0.2,1.2-1.4,1.2c-3.2,0-4.7-0.8-5.5-2.3c-0.8,0.2-1.7,0.5-2.7,0.9c-3.1,1.1-4.5,1.4-6.4,1.4
		l0.5-1.9c1.6,0,2.9-0.2,5.4-1.1c1.5-0.5,2.7-0.8,3.8-1c-0.4-0.2-0.9-0.5-1.7-0.8c-1.9-1-2.9-1.4-4-1.4c-0.9,0-1.7,0.2-2.4,0.5
		l-0.1-0.1l0.7-1.8c0.6-0.3,1.4-0.5,2.1-0.5c1.1,0,2.2,0.5,4.2,1.6c2.4,1.2,3.6,1.7,4.7,1.8l-0.4,1.7c-0.6,0.1-1.2,0.1-1.8,0.3
		c0.7,0.7,1.9,0.9,4,0.9C810.6,220.4,810.8,220.6,810.8,221z M800.7,224.1l2,1.3l-1.2,1.8l-2-1.4L800.7,224.1z"/>
	<path class="st8" d="M823.5,209.6c0,1.1-0.6,2.1-1.8,2.1c-0.6,0-1.2-0.2-1.4-0.6c-0.4,0.4-0.9,0.6-1.5,0.6c-1.5,0-1.8-1-1.8-1.9
		c0-0.3,0-0.7,0.2-1.2l1.1,0c-0.1,0.4-0.1,0.7-0.1,1c0,0.6,0.2,0.9,0.7,0.9c0.6,0,0.8-0.4,0.9-1.8l1.1-0.1c0,0.4,0,0.6,0,0.9
		c0,0.6,0.4,0.9,0.8,0.9c0.5,0,0.7-0.4,0.7-0.9c0-0.5-0.1-1-0.3-1.4l1.2-0.3C823.3,208.4,823.5,209.1,823.5,209.6z"/>
	<path class="st8" d="M830,221c0,0.4-0.2,1.2-1.4,1.2c-1,0-2.3-0.2-3.3-1c-0.7,0.7-1.7,1-2.9,1c-1,0-1.9-0.2-2.7-0.6
		c-0.5,0.4-1.2,0.6-2.2,0.6c-1.7,0-3-0.5-3.7-1.1c-0.9,0.7-2.2,1.1-4.4,1.1l0.5-1.9c1.5,0,2.5-0.1,3-0.5c0.3-0.4,0.6-1.3,1-2.5
		l2-0.3l0.1,0.1c-0.4,1-0.7,1.9-1.1,2.6c0.7,0.3,1.9,0.6,2.8,0.6c0.4,0,0.9-0.1,1.2-0.3c0.3-0.4,0.7-1.4,1.1-2.8l1.9-0.3l0.1,0.1
		c-0.4,1.2-0.7,2.2-1.1,2.9c0.5,0.2,1.1,0.3,1.7,0.3c0.6,0,1.2-0.1,1.6-0.4c0.2-0.3,0.4-1,0.4-2.2c0-0.4,0-0.8-0.1-1.3l1.7-0.6
		l0.2,0.1c0,0.4,0,0.7,0,1.1c0,1.1-0.1,1.9-0.3,2.6c0.5,0.3,1.4,0.7,2.9,0.7C829.8,220.4,830,220.6,830,221z"/>
	<path class="st8" d="M829,220.4c0.8,0,1.7,0,2.3-0.5c0.1-0.4,0.2-1,0.2-1.9v-11.7l1.7-0.4l0.2,0.1v11.9c0,3.5-1.8,4.4-4.8,4.4
		L829,220.4z"/>
	<path class="st8" d="M836.5,222.3v-16l1.8-0.5l0.1,0.1l0,16.1l-1.7,0.4L836.5,222.3z"/>
	<path class="st8" d="M862.8,221c0,0.4-0.2,1.2-1.5,1.2c-0.6,0-1.4-0.2-1.9-0.6c-0.5,3.4-3.3,5.1-6.9,5.1c-3.7,0-5.7-2.1-5.7-4.9
		c0-1,0.2-2.1,0.4-2.7l1.5-0.5l0.2,0.1c-0.2,0.8-0.2,1.6-0.2,2.2c0,2.4,0.9,4,4.2,4c2.7,0,3.9-1,4.6-1.8c0.8-1.8,0-3.6-1-6l1.7-1.2
		h0.1c0.3,0.8,0.7,2.3,1.2,3.2c0.5,1,1.2,1.4,2.2,1.4C862.5,220.4,862.8,220.6,862.8,221z M853.1,214.7l-2-1.4l1.2-1.8l2,1.3
		L853.1,214.7z"/>
	<path class="st8" d="M872.2,219.9c0,1.6-0.8,2.6-2.4,2.6c-1.2,0-3.1-0.6-4.8-1.8c-0.9,1.2-2,1.5-3.6,1.5l0.5-1.9
		c1.1,0,1.6-0.5,2.2-1.5c0.8-1.5,2-4.3,4.3-4.3S872.2,217.2,872.2,219.9z M868.2,216.4c-0.9,0-1.4,1.1-2.4,2.9
		c1.4,0.9,2.8,1.4,3.5,1.4c0.4,0,0.8-0.1,1-0.3C870.6,219.2,869.4,216.4,868.2,216.4z"/>
	<path class="st8" d="M880.4,221.7c0-1,0.2-2.1,0.4-2.7l1.5-0.5l0.2,0.1c-0.2,0.8-0.2,1.6-0.2,2.2c0,2.4,0.9,4,4.2,4
		c2,0,3.4-0.5,4.4-1.7c0.3-0.6,0.6-1.8,0.6-3.7v-13.1l1.7-0.4l0.2,0.1l0,13.2c0,5.4-2.5,7.5-7.2,7.5
		C882.3,226.7,880.4,224.6,880.4,221.7z"/>
	<path class="st8" d="M907.4,221c0,0.4-0.2,1.2-1.5,1.2c-1.1,0-1.9-0.3-2.5-1.3c-0.9,0.9-2.6,1.4-4.9,1.4c-0.5,0-1.9-0.1-2.8-0.3
		l0.3-1.8l0.1-0.1c0.8,0.2,2.1,0.2,2.6,0.2c1.5,0,3.1-0.3,3.9-0.9l-0.1-0.1c-0.4-0.8-2.2-4.3-3.2-6l1.4-1.5h0.2
		c0.7,1.5,2.4,5.4,2.8,6c0.9,1.9,1.4,2.3,2.7,2.3C907.2,220.4,907.4,220.6,907.4,221z"/>
	<path class="st8" d="M915.5,221c0,0.4-0.2,1.2-1.4,1.2c-1.5,0-2.9-0.3-3.9-1.2c-0.8,0.8-1.8,1.2-3.3,1.2H906l0.5-1.9h0.7
		c0.7,0,1.4-0.1,1.8-0.5c0.3-0.5,0.7-1.6,1.2-3.6l1.8-0.5l0.2,0.1c-0.3,1.5-0.7,2.7-1.1,3.7c0.6,0.3,1.5,0.7,3.4,0.7
		C915.3,220.4,915.5,220.6,915.5,221z M909.8,213.1l-1.9-1.4l1.2-1.8l1.9,1.3L909.8,213.1z M913.2,213.1l-1.9-1.4l1.2-1.8l1.9,1.3
		L913.2,213.1z"/>
	<path class="st8" d="M925.4,219.9l-0.6,1.7c-1.9,0.4-4.7,0.6-10.8,0.6l0.5-1.9c0.9,0,1.8,0,2.7,0c-0.6-0.9-1-2-1-3.1
		c0-2.5,2-4,4.6-4c1.2,0,2.4,0.4,3.2,0.8l-0.2,1.7l-0.1,0c-0.9-0.4-1.9-0.6-2.9-0.6c-1.6,0-2.6,0.8-2.6,2.1c0,0.9,0.5,2.1,1.4,3
		c2.1-0.1,3.9-0.2,5.6-0.4L925.4,219.9z"/>
	<path class="st8" d="M931.3,204c-1.2,0.1-2.7,0.3-4.6,0.3l-0.1-1.3c0.3,0,0.7,0,1.1,0c-0.3-0.4-0.4-0.9-0.4-1.4
		c0-1.2,0.7-1.9,2-1.9c0.5,0,1.1,0.1,1.7,0.3l-0.3,1.2c-0.5-0.1-0.8-0.2-1.1-0.2c-0.6,0-0.9,0.4-0.9,0.9c0,0.4,0.2,0.7,0.5,1
		c0.8,0,1.5-0.1,2.2-0.2L931.3,204z M929.9,205.8l0.1,0.1l0,16.1l-1.7,0.4l-0.1-0.1v-16L929.9,205.8z"/>
</g>
<linearGradient id="SVGID_8_" gradientUnits="userSpaceOnUse" x1="506.2617" y1="324.0938" x2="1024.8016" y2="324.0938">
	<stop  offset="0.1199" style="stop-color:#FFFFFF"/>
	<stop  offset="0.9969" style="stop-color:#FFF2D5"/>
</linearGradient>
<rect x="506.3" y="285.6" class="st9" width="518.5" height="77"/>
<g>
	<g>
		<path class="st10" d="M809.3,335.4c0-2.7,1.5-5.3,3.6-7.9l2.3,1.3c-1,1.4-1.9,2.8-1.9,3.9c0,1.5,1.8,1.3,1.8,3.4
			c0,1.3-1,2.8-2.8,2.8C810.3,338.9,809.3,337.6,809.3,335.4z"/>
		<path class="st10" d="M840.2,335.6c0,1.7-0.6,3.1-2.4,3.1c-1.3,0-2.2-0.2-2.9-0.5c-1.4,3.6-5.5,6.2-10.8,7.1l-2.4-3.3l0.3-0.4
			c5.7-1,9-3.3,10.1-5.6c-0.8-1.8-1.7-3.8-2.7-5.7l3.2-3.7h0.4l1.5,4.4c1,2.8,1.8,3.2,4.2,3.2C839.8,334.2,840.2,334.9,840.2,335.6z
			"/>
		<path class="st10" d="M852.2,335.6c0,1.7-0.6,3.1-2.4,3.1s-4.2-0.6-5.6-1.7c-1.4,1.1-3.2,1.7-5.8,1.7h-0.7l1-4.5h0.6
			c1.4,0,2.4-0.1,2.8-0.5c0.4-0.9,0.8-2.7,1.2-5l4.6-1.1l0.4,0.3c-0.5,2.2-1,4.1-1.7,5.7c1,0.4,2.4,0.7,4.1,0.7
			C851.9,334.2,852.2,334.9,852.2,335.6z M843.4,341.3l3.8,2.6l-2.4,3.6l-3.9-2.7L843.4,341.3z"/>
		<path class="st10" d="M864.3,320.6l-7.6,3.8c5.8,3.9,6.9,6.1,6.9,8.1c0,3.6-2.7,6.2-10.1,6.2h-3.6l1-4.5h2.3
			c2.8,0,5.7-0.4,6.7-0.9c0-1.7-4.2-4.5-7.7-6.7l-0.2-0.3l1-5l12.5-6.4l0.3,0.2L864.3,320.6z"/>
		<path class="st10" d="M877.7,311.5c-1.8,0.2-4.2,0.4-7,0.5l-0.3-2.6c0.5,0,1.1,0,1.7,0c-0.5-0.6-0.8-1.5-0.8-2.3
			c0-1.8,1.2-3.1,3.2-3.1c0.8,0,1.7,0.2,2.7,0.6l-0.6,2.3c-0.6-0.2-1.2-0.3-1.5-0.3c-0.8,0-1.2,0.4-1.2,1.2c0,0.5,0.3,1,0.7,1.5
			c1.1-0.1,2.1-0.1,3-0.3L877.7,311.5z M875.9,313.8l0.4,0.2l-0.1,24.1L872,339l-0.3-0.2v-23.9L875.9,313.8z"/>
		<path class="st10" d="M921.6,313.8l0.3,0.2v16.9c0,6-3,7.7-7.9,7.8h-0.3c0,0-0.1,0-0.1,0h-0.3c-1.3-0.1-3-0.5-4.1-2.1
			c-1.2,1.5-2.9,2-6.1,2.1H903c0,0-0.1,0-0.1,0h-0.2c-2.4-0.1-4.3-0.8-5.4-2.4c-1.2,0.4-2.2,0.6-3.3,0.6c-4,0-6.4-1.9-6.4-4.6
			c0-3,3-6.3,8.6-8.2v-1.7l4.2-1.6l0.3,0.1v10.8c0,1.8,0.6,2.4,3.2,2.5c1,0,2-0.1,2.7-0.5c0.1-0.6,0.3-1.4,0.3-2.7v-12.3l4.2-1.1
			l0.3,0.2V331c0,2.7,0.8,3.1,3.3,3.2c1,0,2-0.1,2.7-0.5c0.1-0.6,0.3-1.4,0.3-2.7v-16.2L921.6,313.8z M896.1,332.4v-0.7v-3.4
			c-2.5,0.6-4.5,1.7-5,2.8c0.4,1,1.9,1.5,3.2,1.5C894.9,332.6,895.5,332.5,896.1,332.4z M903.5,312.4c0-0.5,0.1-1.5,0.3-2.1l2.4-0.1
			c-0.1,0.6-0.1,1.2-0.1,1.5c0,0.9,0.3,1.3,0.9,1.3c0.7,0,1-0.5,1-2.6l2.3-0.2c0,0.7,0,1.2,0,1.5c0,0.9,0.4,1.2,1,1.2
			c0.7,0,0.9-0.5,0.9-1.3c0-0.7-0.2-1.4-0.4-2.1l2.5-0.6c0.3,0.9,0.5,1.8,0.5,2.8c0,2.1-1.1,3.7-3.5,3.7c-0.9,0-1.7-0.4-2.1-0.9
			c-0.5,0.6-1.4,0.9-2.4,0.9C904.3,315.6,903.5,314.1,903.5,312.4z M910.6,308.2h-3.2v-4.6h3.2V308.2z M930.8,314l-0.1,24.1
			l-4.1,0.9l-0.3-0.2v-23.9l4.2-1.1L930.8,314z"/>
	</g>
</g>
<path class="st11" d="M1024.8,42.8h-11.1v-6.6c0-1.7-1.1-3-2.6-3.5c1.4-1.1,2.3-2.9,2.3-4.8c0-3.4-2.8-6.2-6.2-6.2
	c-1,0-1.9,0.2-2.8,0.7c0.4-1.1,0.5-2.2,0.5-3.4c0-6.2-5-11.2-11.2-11.2c-6.2,0-11.2,5-11.2,11.2c0,1.2,0.2,2.4,0.5,3.4
	c-0.8-0.4-1.8-0.7-2.8-0.7c-3.4,0-6.2,2.8-6.2,6.2c0,1.9,0.9,3.6,2.3,4.8c-1.5,0.4-2.6,1.8-2.6,3.5v6.6h-10h-10v-6.6
	c0-1.7-1.1-3-2.6-3.5c1.4-1.1,2.3-2.9,2.3-4.8c0-3.4-2.8-6.2-6.2-6.2c-1,0-1.9,0.2-2.8,0.7c0.4-1.1,0.5-2.2,0.5-3.4
	c0-6.2-5-11.2-11.2-11.2c-6.2,0-11.2,5-11.2,11.2c0,1.2,0.2,2.4,0.5,3.4c-0.8-0.4-1.8-0.7-2.8-0.7c-3.4,0-6.2,2.8-6.2,6.2
	c0,1.9,0.9,3.6,2.3,4.8c-1.5,0.4-2.6,1.8-2.6,3.5v6.6h-10h-10v-6.6c0-1.7-1.1-3-2.6-3.5c1.4-1.1,2.3-2.9,2.3-4.8
	c0-3.4-2.8-6.2-6.2-6.2c-1,0-1.9,0.2-2.8,0.7c0.4-1.1,0.5-2.2,0.5-3.4c0-6.2-5-11.2-11.2-11.2c-6.2,0-11.2,5-11.2,11.2
	c0,1.2,0.2,2.4,0.5,3.4c-0.8-0.4-1.8-0.7-2.8-0.7c-3.4,0-6.2,2.8-6.2,6.2c0,1.9,0.9,3.6,2.3,4.8c-1.5,0.4-2.6,1.8-2.6,3.5v6.6h-10
	h-10v-6.6c0-1.7-1.1-3-2.6-3.5c1.4-1.1,2.3-2.9,2.3-4.8c0-3.4-2.8-6.2-6.2-6.2c-1,0-1.9,0.2-2.8,0.7c0.4-1.1,0.5-2.2,0.5-3.4
	c0-6.2-5-11.2-11.2-11.2c-6.2,0-11.2,5-11.2,11.2c0,1.2,0.2,2.4,0.5,3.4c-0.8-0.4-1.8-0.7-2.8-0.7c-3.4,0-6.2,2.8-6.2,6.2
	c0,1.9,0.9,3.6,2.3,4.8c-1.5,0.4-2.6,1.8-2.6,3.5v6.6h-10h-10v-6.6c0-1.7-1.1-3-2.6-3.5c1.4-1.1,2.3-2.9,2.3-4.8
	c0-3.4-2.8-6.2-6.2-6.2c-1,0-1.9,0.2-2.8,0.7c0.4-1.1,0.5-2.2,0.5-3.4c0-6.2-5-11.2-11.2-11.2c-6.2,0-11.2,5-11.2,11.2
	c0,1.2,0.2,2.4,0.5,3.4c-0.8-0.4-1.8-0.7-2.8-0.7c-3.4,0-6.2,2.8-6.2,6.2c0,1.9,0.9,3.6,2.3,4.8c-1.5,0.4-2.6,1.8-2.6,3.5v6.6h-10
	h-10v-6.6c0-1.7-1.1-3-2.6-3.5c1.4-1.1,2.3-2.9,2.3-4.8c0-3.4-2.8-6.2-6.2-6.2c-1,0-1.9,0.2-2.8,0.7c0.4-1.1,0.5-2.2,0.5-3.4
	c0-6.2-5-11.2-11.2-11.2c-6.2,0-11.2,5-11.2,11.2c0,1.2,0.2,2.4,0.5,3.4c-0.8-0.4-1.8-0.7-2.8-0.7c-3.4,0-6.2,2.8-6.2,6.2
	c0,1.9,0.9,3.6,2.3,4.8c-1.5,0.4-2.6,1.8-2.6,3.5v6.6h-10h-10v-6.6c0-1.7-1.1-3-2.6-3.5c1.4-1.1,2.3-2.9,2.3-4.8
	c0-3.4-2.8-6.2-6.2-6.2c-1,0-1.9,0.2-2.8,0.7c0.4-1.1,0.5-2.2,0.5-3.4c0-6.2-5-11.2-11.2-11.2c-6.2,0-11.2,5-11.2,11.2
	c0,1.2,0.2,2.4,0.5,3.4c-0.8-0.4-1.8-0.7-2.8-0.7c-3.4,0-6.2,2.8-6.2,6.2c0,1.9,0.9,3.6,2.3,4.8c-1.5,0.4-2.6,1.8-2.6,3.5v6.6h-10
	h-10v-6.6c0-1.7-1.1-3-2.6-3.5c1.4-1.1,2.3-2.9,2.3-4.8c0-3.4-2.8-6.2-6.2-6.2c-1,0-1.9,0.2-2.8,0.7c0.4-1.1,0.5-2.2,0.5-3.4
	c0-6.2-5-11.2-11.2-11.2c-6.2,0-11.2,5-11.2,11.2c0,1.2,0.2,2.4,0.5,3.4c-0.8-0.4-1.8-0.7-2.8-0.7c-3.4,0-6.2,2.8-6.2,6.2
	c0,1.9,0.9,3.6,2.3,4.8c-1.5,0.4-2.6,1.8-2.6,3.5v6.6h-10h-10v-6.6c0-1.7-1.1-3-2.6-3.5c1.4-1.1,2.3-2.9,2.3-4.8
	c0-3.4-2.8-6.2-6.2-6.2c-1,0-1.9,0.2-2.8,0.7c0.4-1.1,0.5-2.2,0.5-3.4c0-6.2-5-11.2-11.2-11.2c-6.2,0-11.2,5-11.2,11.2
	c0,1.2,0.2,2.4,0.5,3.4c-0.8-0.4-1.8-0.7-2.8-0.7c-3.4,0-6.2,2.8-6.2,6.2c0,1.9,0.9,3.6,2.3,4.8c-1.5,0.4-2.6,1.8-2.6,3.5v6.6h-10
	h-10v-6.6c0-1.7-1.1-3-2.6-3.5c1.4-1.1,2.3-2.9,2.3-4.8c0-3.4-2.8-6.2-6.2-6.2c-1,0-1.9,0.2-2.8,0.7c0.4-1.1,0.5-2.2,0.5-3.4
	c0-6.2-5-11.2-11.2-11.2c-6.2,0-11.2,5-11.2,11.2c0,1.2,0.2,2.4,0.5,3.4c-0.8-0.4-1.8-0.7-2.8-0.7c-3.4,0-6.2,2.8-6.2,6.2
	c0,1.9,0.9,3.6,2.3,4.8c-1.5,0.4-2.6,1.8-2.6,3.5v6.6h-10h-10v-6.6c0-1.7-1.1-3-2.6-3.5c1.4-1.1,2.3-2.9,2.3-4.8
	c0-3.4-2.8-6.2-6.2-6.2c-1,0-1.9,0.2-2.8,0.7c0.4-1.1,0.5-2.2,0.5-3.4c0-6.2-5-11.2-11.2-11.2c-6.2,0-11.2,5-11.2,11.2
	c0,1.2,0.2,2.4,0.5,3.4c-0.8-0.4-1.8-0.7-2.8-0.7c-3.4,0-6.2,2.8-6.2,6.2c0,1.9,0.9,3.6,2.3,4.8c-1.5,0.4-2.6,1.8-2.6,3.5v6.6h-10
	h-10v-6.6c0-1.7-1.1-3-2.6-3.5c1.4-1.1,2.3-2.9,2.3-4.8c0-3.4-2.8-6.2-6.2-6.2c-1,0-1.9,0.2-2.8,0.7c0.4-1.1,0.5-2.2,0.5-3.4
	c0-6.2-5-11.2-11.2-11.2c-6.2,0-11.2,5-11.2,11.2c0,1.2,0.2,2.4,0.5,3.4c-0.8-0.4-1.8-0.7-2.8-0.7c-3.4,0-6.2,2.8-6.2,6.2
	c0,1.9,0.9,3.6,2.3,4.8c-1.5,0.4-2.6,1.8-2.6,3.5v6.6h-10h-10v-6.6c0-1.7-1.1-3-2.6-3.5c1.4-1.1,2.3-2.9,2.3-4.8
	c0-3.4-2.8-6.2-6.2-6.2c-1,0-1.9,0.2-2.8,0.7c0.4-1.1,0.5-2.2,0.5-3.4c0-6.2-5-11.2-11.2-11.2c-6.2,0-11.2,5-11.2,11.2
	c0,1.2,0.2,2.4,0.5,3.4c-0.8-0.4-1.8-0.7-2.8-0.7c-3.4,0-6.2,2.8-6.2,6.2c0,1.9,0.9,3.6,2.3,4.8c-1.5,0.4-2.6,1.8-2.6,3.5v6.6h-10
	h-10v-6.6c0-1.7-1.1-3-2.6-3.5c1.4-1.1,2.3-2.9,2.3-4.8c0-3.4-2.8-6.2-6.2-6.2c-1,0-1.9,0.2-2.8,0.7c0.4-1.1,0.5-2.2,0.5-3.4
	c0-6.2-5-11.2-11.2-11.2c-6.2,0-11.2,5-11.2,11.2c0,1.2,0.2,2.4,0.5,3.4c-0.8-0.4-1.8-0.7-2.8-0.7c-3.4,0-6.2,2.8-6.2,6.2
	c0,1.9,0.9,3.6,2.3,4.8c-1.5,0.4-2.6,1.8-2.6,3.5v6.6h-10h-10v-6.6c0-1.7-1.1-3-2.6-3.5c1.4-1.1,2.3-2.9,2.3-4.8
	c0-3.4-2.8-6.2-6.2-6.2c-1,0-1.9,0.2-2.8,0.7c0.4-1.1,0.5-2.2,0.5-3.4c0-6.2-5-11.2-11.2-11.2c-6.2,0-11.2,5-11.2,11.2
	c0,1.2,0.2,2.4,0.5,3.4c-0.8-0.4-1.8-0.7-2.8-0.7c-3.4,0-6.2,2.8-6.2,6.2c0,1.9,0.9,3.6,2.3,4.8c-1.5,0.4-2.6,1.8-2.6,3.5v6.6h-10
	h-10v-6.6c0-1.7-1.1-3-2.6-3.5c1.4-1.1,2.3-2.9,2.3-4.8c0-3.4-2.8-6.2-6.2-6.2c-1,0-1.9,0.2-2.8,0.7c0.4-1.1,0.5-2.2,0.5-3.4
	c0-6.2-5-11.2-11.2-11.2c-6.2,0-11.2,5-11.2,11.2c0,1.2,0.2,2.4,0.5,3.4C80.9,22,80,21.7,79,21.7c-3.4,0-6.2,2.8-6.2,6.2
	c0,1.9,0.9,3.6,2.3,4.8c-1.5,0.4-2.6,1.8-2.6,3.5v6.6h-10h-10v-6.6c0-1.7-1.1-3-2.6-3.5c1.4-1.1,2.3-2.9,2.3-4.8
	c0-3.4-2.8-6.2-6.2-6.2c-1,0-1.9,0.2-2.8,0.7c0.4-1.1,0.5-2.2,0.5-3.4c0-6.2-5-11.2-11.2-11.2c-6.2,0-11.2,5-11.2,11.2
	c0,1.2,0.2,2.4,0.5,3.4c-0.8-0.4-1.8-0.7-2.8-0.7c-3.4,0-6.2,2.8-6.2,6.2c0,1.9,0.9,3.6,2.3,4.8c-1.5,0.4-2.6,1.8-2.6,3.5v6.6H0.8
	V-1h1024V42.8z"/>
<g id="Layer_x0020_1_1_">
	<path class="st12" d="M35.7,719l43.9-1.7c0.3,0,0.6,0,1,0c0.7,0.1,1.3,0.4,1.8,0.9c0.5,0.5,0.9,1,0.9,1.7c0,0.2,0,0.5,0,0.8
		l-4.6,20.6c-0.2,0.9-0.6,1.7-1.3,2.2c-0.6,0.5-1.4,0.9-2.4,0.9l-35.3-1.2c-1,0-1.7-0.3-2.4-0.9l0,0c-0.6-0.6-1.1-1.4-1.3-2.2
		l-4.1-17.7c0-0.1,0-0.1,0-0.2c-0.1-0.8,0.3-1.5,0.9-2.1c0.6-0.5,1.4-0.8,2.3-1C35.4,719.1,35.5,719,35.7,719z M77.7,720.1l-42,1.5
		c-0.1,0-0.2,0-0.3,0c-0.6,0.1-1.1,0.3-1.5,0.7c-0.3,0.3-0.6,0.7-0.5,1.1c0,0,0,0.1,0,0.1l3.8,16.5c0.1,0.6,0.4,1.2,0.9,1.6
		c0.4,0.3,0.8,0.5,1.4,0.5l34,1.2c0.6,0,1-0.2,1.4-0.5c0.4-0.4,0.7-0.9,0.9-1.6l4.3-19.3c0-0.1,0-0.3,0-0.4c0-0.3-0.2-0.7-0.5-0.9
		c-0.3-0.3-0.7-0.5-1.1-0.5C78,720.1,77.9,720.1,77.7,720.1z"/>
	<path class="st12" d="M42.7,723.7l12.9-1.4c0.1,0,0.3,0,0.4,0c0.3,0.1,0.6,0.2,0.8,0.4c0.2,0.2,0.4,0.5,0.4,0.8c0,0.1,0,0.2,0,0.3
		l-2.1,9.6c-0.1,0.4-0.3,0.8-0.6,1c-0.3,0.3-0.6,0.4-1.1,0.4h-8.9c-0.4,0-0.8-0.2-1.1-0.4h0c-0.3-0.3-0.5-0.6-0.6-1l-1.9-8.2
		c0,0,0-0.1,0-0.1c-0.1-0.4,0.1-0.7,0.4-1c0.3-0.2,0.7-0.4,1-0.5C42.6,723.7,42.6,723.7,42.7,723.7z M54.7,723.6l-12,1.3
		c0,0-0.1,0-0.1,0c-0.3,0-0.5,0.2-0.7,0.3c-0.2,0.1-0.3,0.3-0.2,0.5c0,0,0,0,0,0l1.8,7.6c0.1,0.3,0.2,0.5,0.4,0.7
		c0.2,0.1,0.4,0.2,0.6,0.2h8.3c0.3,0,0.5-0.1,0.6-0.2c0.2-0.2,0.3-0.4,0.4-0.7l2-8.9c0-0.1,0-0.1,0-0.2c0-0.2-0.1-0.3-0.2-0.4
		c-0.1-0.1-0.3-0.2-0.5-0.2C54.9,723.6,54.8,723.6,54.7,723.6z"/>
	<g id="_1849662416_1_">
		<path class="st13" d="M61.2,735.9l0.4-0.7l-0.7-0.4l0.4-0.7l-1.5-0.8l-0.9,1.5l0,0c0.3,0.1,0.5,0.3,0.7,0.4l-0.4,0.7l0.7,0.4
			l-0.8,1.5l0.7,0.4c-0.2,0.5-0.6,1.1-0.9,1.5l0,0c0.2,0.1,0.4,0.2,0.5,0.3c0.3,0.1,0.2,0.1,0,0.5c-0.2,0.4-0.4,0.8-0.7,1.1l0.7,0.4
			c0,0.2-0.7,1.2-0.8,1.5l5.9,3.4l0.9-1.5l0.8,0.4l1.3-2.2l0.7,0.4l3-5.2c-0.1-0.1-0.7-0.4-0.7-0.5c0-0.2,0.4-0.6,0.4-0.7
			c-0.1-0.1-0.5-0.4-0.7-0.4l-1.3,2.2l-0.7-0.4l1.7-3l-1.5-0.9l-1.3,2.2l-0.7-0.4l1.7-2.9c-0.1-0.1-1.3-0.8-1.5-0.9l-1.7,3l-0.7-0.4
			c0-0.1,0.1-0.1,0.1-0.2c1.2-2.1,2.5-4.3,3.7-6.5l-1.5-0.8l-4.7,8.1C61.7,736.3,61.2,735.9,61.2,735.9L61.2,735.9z"/>
		<path class="st14" d="M59,739.6c-0.1,0.1-0.1,0.2-0.2,0.3l-0.7,1.1c0.1,0.1,0.2,0.1,0.4,0.2c0.1,0.1,0.2,0.1,0.3,0.2
			c-0.4,0.8-0.8,1.5-1.2,2.2c0.6,0.4,1.2,0.7,1.8,1.1l3.7,2.2c0.6,0.4,1.3,0.7,1.9,1.1c0.1-0.2,0.1-0.3,0.3-0.5
			c0.1-0.2,0.4-0.6,0.5-0.9c0.1-0.1,0.1-0.1,0.2-0.3c0.1-0.2,0.2-0.4,0.3-0.6c0.1,0.2,0.5,0.3,0.7,0.4c0.4-0.7,0.8-1.4,1.3-2.2
			c0.2,0.1,0.4,0.2,0.6,0.3c0.1,0.1,0.1,0.1,0.2,0c0.2-0.3,0.3-0.6,0.5-0.9c0.3-0.6,0.7-1.1,1-1.7l1.4-2.5c-0.2-0.1-0.6-0.3-0.7-0.4
			l-3,5.2l-0.7-0.4l-1.3,2.2l-0.8-0.4l-0.9,1.5l-5.9-3.4c0.1-0.3,0.8-1.3,0.8-1.5l-0.7-0.4c0.2-0.4,0.4-0.8,0.7-1.1
			c0.2-0.4,0.2-0.3,0-0.5C59.4,739.8,59.2,739.7,59,739.6z"/>
		<path class="st14" d="M61.3,734l-0.4,0.7l0.7,0.4l-0.4,0.7l0.7,0.4l4.7-8.1l-0.7-0.4c0,0,0,0,0,0l0,0c0,0,0,0,0,0l-3.8,6.6
			C61.8,734.2,61.5,734.1,61.3,734z"/>
		<path class="st14" d="M68.1,729.1l-3.9,6.6l0.7,0.4l1.7-3c0.2,0,1.4,0.8,1.5,0.9c0.2,0.2,1.6,0.9,1.9,1.1c0,0,0.1,0-0.1-0.1
			l-1.5-0.8c-0.4-0.2-0.3-0.1,0.1-0.9l-1.1-0.6c-0.1-0.1-0.2-0.1-0.3-0.2l1.7-2.9c-0.2-0.1-0.3-0.2-0.6-0.4
			C68.2,729.1,68.2,729.1,68.1,729.1z"/>
		<path class="st14" d="M70,736.1l0.4-0.7c-0.1-0.1-0.2-0.2-0.4-0.2c-0.3-0.2-1.7-0.9-1.9-1.1l-1.7,2.9l0.7,0.4l1.3-2.2L70,736.1z"
			/>
		<path class="st14" d="M58.9,734.7c-0.1,0.1-0.1,0.1-0.2,0.3c-0.1,0.1-0.1,0.3-0.2,0.4l0.7,0.4c-0.1,0.2-0.7,1.3-0.8,1.5l0.7,0.4
			l-0.6,1.1c-0.1,0.2-0.1,0.2-0.2,0.4l0.7,0.4c0.3-0.4,0.7-1,0.9-1.5l-0.7-0.4l0.8-1.5l-0.7-0.4l0.4-0.7
			C59.4,734.9,59.2,734.7,58.9,734.7z"/>
		<path class="st14" d="M58.9,734.6l0.9-1.5l1.5,0.8l0.2-0.4c0.1-0.1,0.1-0.2,0.2-0.4l-2-1.1c-0.3-0.2-0.2-0.2-0.5,0.2l-0.9,1.6
			c-0.1,0.2-0.2,0.2,0,0.3C58.4,734.4,58.8,734.6,58.9,734.6z"/>
		<path class="st14" d="M71,737.7c0.1,0,0,0,0.1-0.1c0,0,0.1-0.1,0.1-0.1c0-0.2,0.2-0.4,0.3-0.6l-1.5-0.8l-1.7,3l0.7,0.4l1.3-2.2
			C70.5,737.3,70.9,737.5,71,737.7z"/>
		<path class="st14" d="M68.1,729c0.1-0.2,0.3-0.5,0.4-0.7l-1.5-0.8l-0.4,0.7L68.1,729z"/>
		<path class="st14" d="M71,737.7c0,0.2-0.4,0.6-0.4,0.7c0,0.1,0.6,0.4,0.7,0.5c0.2,0.1,0.5,0.3,0.7,0.4l-1.4,2.5l1.5-2.5l-0.7-0.4
			c0.1-0.1,0.1-0.2,0.2-0.4c0.1-0.1,0.2-0.3,0.2-0.4c-0.8-0.5-0.8-0.3-0.6-0.6c0,0-0.1,0.1-0.1,0.1C71,737.7,71.1,737.7,71,737.7z"
			/>
	</g>
	<path class="st12" d="M95.7,735.9h-2.5l2.1-7.2l-4.3,7.2h-2.6l-0.5-7.3l-1.8,7.3h-2.6l2.9-10.9H90l0.5,7.7l4.6-7.7h3.5L95.7,735.9z
		 M105.2,735.9h-5.6c-0.8,0-1.3-0.2-1.7-0.6c-0.4-0.4-0.4-1-0.2-1.8c0.3-0.9,0.7-1.6,1.3-2c0.6-0.4,1.5-0.6,2.6-0.6h2.5
		c0.1-0.4,0.1-0.7-0.1-0.8c-0.2-0.2-0.6-0.2-1.3-0.2h-3.6l0.5-2h4.3c1.1,0,1.9,0.3,2.3,0.8c0.4,0.5,0.5,1.3,0.2,2.3L105.2,735.9z
		 M103.2,733.9l0.3-1.2h-2.2c-0.4,0-0.7,0-0.9,0.1c-0.2,0.1-0.3,0.3-0.3,0.5c-0.1,0.2-0.1,0.3,0,0.4c0,0,0.1,0.1,0.2,0.1
		c0.1,0,0.3,0,0.5,0H103.2z M114,735.9h-2.4l1.3-4.9c0.1-0.5,0.2-0.8,0-1c-0.1-0.1-0.4-0.2-0.9-0.2h-1.4l-1.6,6.1h-2.4l2.2-8.1h4
		c1.2,0,2,0.2,2.4,0.7c0.4,0.5,0.5,1.2,0.2,2.3L114,735.9z M122.7,735.9h-2.4l1.3-4.9c0.1-0.5,0.1-0.8,0-0.9
		c-0.1-0.1-0.2-0.1-0.3-0.2c-0.1,0-0.3-0.1-0.6-0.1l-1.4,0l-1.6,6.1h-2.4l2.9-10.9h2.4l-0.8,2.8h1.6c1.2,0,2,0.2,2.4,0.7
		c0.4,0.5,0.5,1.2,0.2,2.3L122.7,735.9z M131.9,735.9h-5.6c-0.8,0-1.3-0.2-1.7-0.6c-0.4-0.4-0.4-1-0.2-1.8c0.3-0.9,0.7-1.6,1.3-2
		c0.6-0.4,1.5-0.6,2.6-0.6h2.5c0.1-0.4,0.1-0.7-0.1-0.8c-0.2-0.2-0.6-0.2-1.3-0.2h-3.6l0.5-2h4.3c1.1,0,1.9,0.3,2.3,0.8
		c0.4,0.5,0.5,1.3,0.2,2.3L131.9,735.9z M130,733.9l0.3-1.2h-2.2c-0.4,0-0.7,0-0.9,0.1c-0.2,0.1-0.3,0.3-0.3,0.5
		c-0.1,0.2,0,0.3,0,0.4c0,0,0.1,0.1,0.2,0.1c0.1,0,0.3,0,0.5,0H130z M135.8,735.9h-2.5l2.9-10.9h2.5L135.8,735.9z M141.4,735.9h-2.1
		l0.6-2.2h2.1L141.4,735.9z M149.2,735.9h-2.9c-0.4,0-0.7,0-1-0.1c-0.3,0-0.5-0.1-0.8-0.2c-0.4-0.1-0.8-0.4-1-0.8
		c-0.1-0.2-0.2-0.4-0.3-0.6c-0.1-0.2-0.2-0.5-0.2-0.7c0-0.3,0-0.5,0-0.8c0-0.3,0.1-0.6,0.2-0.9c0.2-0.6,0.4-1.2,0.8-1.7
		c0.3-0.5,0.7-1,1.3-1.4c0.4-0.3,0.9-0.6,1.4-0.7c0.5-0.2,1.1-0.2,1.9-0.2h2.9l-0.5,2h-2.3c-0.5,0-0.9,0-1.2,0.1
		c-0.3,0.1-0.6,0.2-0.8,0.4c-0.4,0.3-0.7,0.8-0.9,1.6c-0.1,0.4-0.1,0.8-0.1,1.1c0.1,0.3,0.1,0.6,0.4,0.7l0.4,0.2c0.1,0,0.3,0,0.4,0
		c0.1,0,0.4,0,0.6,0h2.3L149.2,735.9z M159.3,731.8c-0.3,1.3-1,2.3-2,3.1c-1,0.8-2.1,1.1-3.4,1.1c-1.3,0-2.2-0.4-2.8-1.1
		c-0.6-0.8-0.7-1.8-0.3-3.1c0.3-1.3,1-2.3,2-3c1-0.8,2.1-1.1,3.4-1.1c1.3,0,2.2,0.4,2.8,1.1C159.5,729.5,159.6,730.5,159.3,731.8z
		 M156.8,731.8c0.2-0.7,0.1-1.2-0.1-1.6c-0.2-0.4-0.6-0.6-1.1-0.6c-0.5,0-1,0.2-1.4,0.6c-0.4,0.4-0.7,0.9-0.9,1.6
		c-0.1,0.4-0.1,0.7-0.1,0.9c0,0.3,0.1,0.5,0.2,0.7c0.2,0.4,0.6,0.6,1.1,0.6c0.6,0,1-0.2,1.4-0.6C156.3,733,156.6,732.5,156.8,731.8z
		 M170.4,735.9H168l1.3-4.9c0.1-0.5,0.2-0.8,0.1-1c-0.1-0.2-0.4-0.2-0.9-0.2l-0.9,0l-1.6,6.1h-2.4l1.6-6.1h-2l-1.6,6.1h-2.4l2.2-8.1
		h8c1.2,0,2,0.2,2.4,0.7c0.4,0.5,0.5,1.2,0.2,2.3L170.4,735.9z"/>
	<path class="st12" d="M28.7,727.8l21.2-2.2c0.2,0,0.5,0,0.7,0c0.5,0.1,1,0.3,1.4,0.7c0.4,0.3,0.6,0.8,0.7,1.3c0,0.2,0,0.4,0,0.6
		l-3.7,9.6c-0.1,0.7-0.5,1.3-1,1.7c-0.5,0.4-1.1,0.7-1.8,0.7H31.6c-0.7,0-1.3-0.3-1.8-0.7h0c-0.5-0.4-0.8-1.1-1-1.7l-2.9-7.4
		c0-0.1,0-0.1,0-0.2c-0.1-0.6,0.2-1.2,0.7-1.6c0.5-0.4,1.1-0.6,1.7-0.8C28.5,727.8,28.6,727.8,28.7,727.8z M48.4,727.7l-19.8,2.1
		c-0.1,0-0.2,0-0.2,0c-0.4,0.1-0.9,0.3-1.2,0.5c-0.3,0.2-0.4,0.5-0.4,0.8c0,0,0,0.1,0,0.1l2.7,6.5c0.1,0.5,0.3,0.9,0.7,1.2
		c0.3,0.2,0.6,0.4,1,0.4h13.6c0.4,0,0.8-0.1,1-0.4c0.3-0.3,0.5-0.7,0.7-1.2l3.4-8.6c0-0.1,0-0.2,0-0.3c0-0.3-0.2-0.5-0.4-0.7
		c-0.2-0.2-0.5-0.4-0.8-0.4C48.7,727.7,48.5,727.7,48.4,727.7z"/>
	<path class="st12" d="M88.4,721.5l-0.5,1.7h-0.6l1.2-4.5h1.3c0.3,0,0.5,0,0.7,0.1c0.2,0.1,0.3,0.2,0.4,0.3c0.1,0.1,0.2,0.3,0.2,0.4
		c0,0.2,0,0.4-0.1,0.6c-0.1,0.2-0.1,0.4-0.3,0.6c-0.1,0.2-0.3,0.3-0.4,0.4c-0.2,0.1-0.4,0.2-0.6,0.3c-0.2,0.1-0.5,0.1-0.7,0.1H88.4z
		 M88.5,721h0.7c0.2,0,0.3,0,0.5-0.1c0.1,0,0.3-0.1,0.4-0.2c0.1-0.1,0.2-0.2,0.3-0.3c0.1-0.1,0.1-0.2,0.2-0.4
		c0.1-0.3,0.1-0.5-0.1-0.7c-0.1-0.2-0.4-0.2-0.7-0.2H89L88.5,721z"/>
	<path id="_x31__1_" class="st12" d="M93,720c0.2,0,0.4,0,0.6,0.1c0.2,0.1,0.3,0.2,0.4,0.3c0.1,0.1,0.1,0.3,0.2,0.5
		c0,0.2,0,0.4-0.1,0.7c-0.1,0.3-0.2,0.5-0.3,0.7c-0.1,0.2-0.3,0.4-0.4,0.5c-0.2,0.1-0.4,0.3-0.6,0.3c-0.2,0.1-0.4,0.1-0.7,0.1
		c-0.2,0-0.4,0-0.6-0.1c-0.2-0.1-0.3-0.2-0.4-0.3c-0.1-0.1-0.1-0.3-0.2-0.5c0-0.2,0-0.4,0.1-0.7c0.1-0.3,0.2-0.5,0.3-0.7
		c0.1-0.2,0.3-0.4,0.4-0.5c0.2-0.1,0.4-0.3,0.6-0.3C92.6,720,92.8,720,93,720z M92.3,722.8c0.3,0,0.6-0.1,0.8-0.3
		c0.2-0.2,0.4-0.5,0.5-0.9c0.1-0.4,0.1-0.7,0-0.9c-0.1-0.2-0.3-0.3-0.6-0.3c-0.2,0-0.3,0-0.4,0.1c-0.1,0.1-0.3,0.1-0.4,0.2
		c-0.1,0.1-0.2,0.2-0.3,0.4c-0.1,0.1-0.1,0.3-0.2,0.5c0,0.2-0.1,0.4-0.1,0.5c0,0.1,0,0.3,0.1,0.4c0.1,0.1,0.1,0.2,0.2,0.2
		C92,722.8,92.1,722.8,92.3,722.8z"/>
	<path id="_x32__1_" class="st12" d="M94.8,720h0.4c0,0,0.1,0,0.1,0c0,0,0,0,0,0.1l0.1,2c0,0.1,0,0.1,0,0.2c0,0.1,0,0.1,0,0.2
		c0-0.1,0.1-0.1,0.1-0.2c0-0.1,0.1-0.1,0.1-0.2l1.2-2.1c0,0,0-0.1,0.1-0.1c0,0,0.1,0,0.1,0h0.2c0,0,0.1,0,0.1,0c0,0,0,0,0,0.1
		l0.1,2.1c0,0.1,0,0.1,0,0.2c0,0.1,0,0.1,0,0.2c0-0.1,0.1-0.1,0.1-0.2c0-0.1,0.1-0.1,0.1-0.2l1.2-2c0,0,0-0.1,0.1-0.1
		c0,0,0.1,0,0.1,0h0.4l-1.9,3.2h-0.4c-0.1,0-0.1,0-0.1-0.1l-0.1-2.2c0,0,0-0.1,0-0.1c0-0.1,0-0.1,0-0.1c0,0,0,0.1-0.1,0.1
		c0,0,0,0.1-0.1,0.1l-1.3,2.2c0,0.1-0.1,0.1-0.2,0.1H95L94.8,720z"/>
	<path id="_x33__1_" class="st12" d="M101.3,719.9c0.2,0,0.4,0,0.5,0.1c0.1,0.1,0.3,0.2,0.3,0.3c0.1,0.1,0.1,0.3,0.2,0.4
		c0,0.2,0,0.4-0.1,0.6c0,0.1,0,0.1-0.1,0.2c0,0-0.1,0-0.1,0h-2.1c-0.1,0.2-0.1,0.4-0.1,0.5c0,0.1,0,0.3,0.1,0.4
		c0.1,0.1,0.1,0.2,0.3,0.2c0.1,0,0.2,0.1,0.4,0.1c0.1,0,0.3,0,0.4,0c0.1,0,0.2-0.1,0.3-0.1c0.1,0,0.2-0.1,0.2-0.1
		c0.1,0,0.1-0.1,0.1-0.1c0,0,0.1,0,0.1,0.1l0.1,0.2c-0.1,0.1-0.2,0.2-0.3,0.2c-0.1,0.1-0.2,0.1-0.3,0.2c-0.1,0-0.2,0.1-0.4,0.1
		c-0.1,0-0.2,0-0.4,0c-0.2,0-0.4,0-0.6-0.1c-0.2-0.1-0.3-0.2-0.4-0.3c-0.1-0.1-0.2-0.3-0.2-0.5c0-0.2,0-0.5,0.1-0.7
		c0.1-0.2,0.1-0.4,0.3-0.6c0.1-0.2,0.3-0.4,0.4-0.5c0.2-0.1,0.4-0.3,0.6-0.3C100.9,720,101.1,719.9,101.3,719.9z M101.2,720.4
		c-0.3,0-0.5,0.1-0.7,0.2c-0.2,0.2-0.4,0.4-0.5,0.6h1.7c0-0.1,0.1-0.3,0-0.4c0-0.1,0-0.2-0.1-0.3c0-0.1-0.1-0.1-0.2-0.2
		C101.4,720.4,101.3,720.4,101.2,720.4z"/>
	<path id="_x34__1_" class="st12" d="M102.5,723.2l0.9-3.2h0.3c0.1,0,0.1,0,0.1,0c0,0,0,0.1,0,0.1l-0.1,0.5c0.2-0.2,0.4-0.4,0.5-0.5
		c0.2-0.1,0.4-0.2,0.6-0.2c0.1,0,0.2,0,0.2,0c0.1,0,0.1,0,0.2,0.1l-0.2,0.4c0,0.1-0.1,0.1-0.1,0.1c0,0-0.1,0-0.1,0
		c-0.1,0-0.1,0-0.2,0c-0.2,0-0.4,0.1-0.5,0.2c-0.2,0.1-0.3,0.3-0.5,0.5l-0.5,2H102.5z"/>
	<path id="_x35__1_" class="st12" d="M107.1,719.9c0.2,0,0.4,0,0.5,0.1c0.1,0.1,0.3,0.2,0.3,0.3c0.1,0.1,0.1,0.3,0.2,0.4
		c0,0.2,0,0.4-0.1,0.6c0,0.1,0,0.1-0.1,0.2c0,0-0.1,0-0.1,0h-2.1c-0.1,0.2-0.1,0.4-0.1,0.5c0,0.1,0,0.3,0.1,0.4
		c0.1,0.1,0.1,0.2,0.3,0.2c0.1,0,0.2,0.1,0.4,0.1c0.1,0,0.3,0,0.4,0c0.1,0,0.2-0.1,0.3-0.1c0.1,0,0.2-0.1,0.2-0.1
		c0.1,0,0.1-0.1,0.1-0.1c0,0,0.1,0,0.1,0.1l0.1,0.2c-0.1,0.1-0.2,0.2-0.3,0.2c-0.1,0.1-0.2,0.1-0.3,0.2c-0.1,0-0.2,0.1-0.4,0.1
		c-0.1,0-0.2,0-0.4,0c-0.2,0-0.4,0-0.6-0.1c-0.2-0.1-0.3-0.2-0.4-0.3c-0.1-0.1-0.2-0.3-0.2-0.5c0-0.2,0-0.5,0.1-0.7
		c0.1-0.2,0.2-0.4,0.3-0.6c0.1-0.2,0.3-0.4,0.4-0.5c0.2-0.1,0.4-0.3,0.6-0.3C106.7,720,106.9,719.9,107.1,719.9z M107,720.4
		c-0.3,0-0.5,0.1-0.7,0.2c-0.2,0.2-0.4,0.4-0.5,0.6h1.7c0-0.1,0-0.3,0-0.4c0-0.1,0-0.2-0.1-0.3c0-0.1-0.1-0.1-0.2-0.2
		C107.3,720.4,107.2,720.4,107,720.4z"/>
	<path id="_x36__1_" class="st12" d="M110.5,723.2c-0.1,0-0.1,0-0.1-0.1l0.1-0.4c-0.2,0.2-0.4,0.3-0.6,0.4c-0.2,0.1-0.4,0.1-0.6,0.1
		c-0.2,0-0.3,0-0.5-0.1c-0.1-0.1-0.2-0.2-0.3-0.3c-0.1-0.1-0.1-0.3-0.1-0.5c0-0.2,0-0.4,0.1-0.7c0.1-0.2,0.2-0.5,0.3-0.7
		c0.1-0.2,0.3-0.4,0.4-0.5c0.2-0.2,0.3-0.3,0.5-0.4c0.2-0.1,0.4-0.1,0.6-0.1c0.2,0,0.4,0,0.5,0.1c0.1,0.1,0.2,0.2,0.3,0.3l0.5-1.8
		h0.6l-1.2,4.6H110.5z M109.6,722.8c0.2,0,0.4,0,0.5-0.1c0.2-0.1,0.3-0.2,0.5-0.4l0.4-1.5c-0.1-0.1-0.2-0.2-0.3-0.3
		c-0.1-0.1-0.2-0.1-0.4-0.1c-0.3,0-0.6,0.1-0.8,0.3c-0.2,0.2-0.4,0.5-0.5,0.9c-0.1,0.2-0.1,0.4-0.1,0.5c0,0.1,0,0.3,0.1,0.4
		c0,0.1,0.1,0.2,0.2,0.2C109.3,722.8,109.4,722.8,109.6,722.8z"/>
	<path id="_x37__1_" class="st12" d="M113,723.2l1.2-4.6h0.6l-0.5,1.9c0.2-0.2,0.4-0.3,0.6-0.4c0.2-0.1,0.4-0.1,0.6-0.1
		c0.2,0,0.3,0,0.5,0.1c0.1,0.1,0.2,0.2,0.3,0.3c0.1,0.1,0.1,0.3,0.1,0.5c0,0.2,0,0.4-0.1,0.7c-0.1,0.2-0.2,0.5-0.3,0.7
		c-0.1,0.2-0.3,0.4-0.4,0.5c-0.2,0.1-0.3,0.3-0.5,0.3c-0.2,0.1-0.4,0.1-0.6,0.1c-0.2,0-0.4,0-0.5-0.1c-0.1-0.1-0.2-0.2-0.3-0.3
		l-0.1,0.3c0,0.1-0.1,0.1-0.2,0.1H113z M115.2,720.4c-0.2,0-0.4,0-0.5,0.1c-0.2,0.1-0.3,0.2-0.5,0.4l-0.4,1.5
		c0.1,0.1,0.1,0.2,0.3,0.3c0.1,0.1,0.2,0.1,0.4,0.1c0.3,0,0.6-0.1,0.8-0.3c0.2-0.2,0.4-0.5,0.5-0.9c0.1-0.2,0.1-0.4,0.1-0.5
		c0-0.1,0-0.3-0.1-0.4c0-0.1-0.1-0.2-0.2-0.2C115.4,720.4,115.3,720.4,115.2,720.4z"/>
	<path id="_x38__1_" class="st12" d="M117.1,724.1c0,0-0.1,0.1-0.1,0.1c0,0-0.1,0-0.1,0h-0.4l0.9-1.2l-0.5-3h0.5c0,0,0.1,0,0.1,0
		c0,0,0,0,0,0.1l0.3,2c0,0,0,0.1,0,0.1c0,0,0,0.1,0,0.1c0,0,0.1-0.1,0.1-0.1c0,0,0.1-0.1,0.1-0.1l1.4-2c0,0,0.1-0.1,0.1-0.1
		c0,0,0.1,0,0.1,0h0.4L117.1,724.1z"/>
	<path id="_x39__1_" class="st12" d="M119.7,722.8c0-0.1,0-0.1,0.1-0.2c0-0.1,0.1-0.1,0.1-0.1c0,0,0.1-0.1,0.1-0.1
		c0.1,0,0.1,0,0.2,0c0.1,0,0.1,0,0.1,0c0,0,0.1,0,0.1,0.1c0,0,0,0.1,0.1,0.1c0,0,0,0.1,0,0.2c0,0.1,0,0.1-0.1,0.2
		c0,0-0.1,0.1-0.1,0.1c0,0-0.1,0.1-0.1,0.1c-0.1,0-0.1,0-0.2,0c-0.1,0-0.1,0-0.1,0c0,0-0.1,0-0.1-0.1c0,0,0-0.1,0-0.1
		C119.7,722.9,119.7,722.9,119.7,722.8z M120.3,720.5c0-0.1,0-0.1,0.1-0.2c0,0,0.1-0.1,0.1-0.1c0,0,0.1-0.1,0.1-0.1
		c0.1,0,0.1,0,0.2,0c0.1,0,0.1,0,0.1,0c0,0,0.1,0,0.1,0.1c0,0,0,0.1,0.1,0.1c0,0,0,0.1,0,0.2c0,0.1,0,0.1-0.1,0.2
		c0,0-0.1,0.1-0.1,0.1c0,0-0.1,0.1-0.1,0.1c-0.1,0-0.1,0-0.2,0c-0.1,0-0.1,0-0.1,0c0,0-0.1,0-0.1-0.1c0,0,0-0.1,0-0.1
		C120.3,720.6,120.3,720.5,120.3,720.5z"/>
	<path class="st12" d="M126.8,738.3l-0.1,0.5h-2.3l-0.4,1.6h1.8l-0.1,0.5h-1.8l-0.4,1.6h2.3l-0.1,0.5h-2.9l1.3-4.8H126.8z
		 M126.8,740.8h1.6l-0.1,0.5h-1.6L126.8,740.8z M129.5,742.5h2.1l-0.1,0.5h-2.7l1.3-4.8h0.6L129.5,742.5z M134.2,739.6
		c0.2,0,0.4,0,0.5,0.1c0.2,0.1,0.3,0.2,0.4,0.3c0.1,0.1,0.1,0.3,0.2,0.5c0,0.2,0,0.4-0.1,0.6c0,0.1-0.1,0.2-0.1,0.2c0,0-0.1,0-0.1,0
		h-2.2c-0.1,0.2-0.1,0.4-0.1,0.6c0,0.2,0,0.3,0.1,0.4c0.1,0.1,0.2,0.2,0.3,0.2c0.1,0.1,0.3,0.1,0.4,0.1c0.1,0,0.3,0,0.4-0.1
		c0.1,0,0.2-0.1,0.3-0.1c0.1,0,0.2-0.1,0.2-0.1c0.1,0,0.1-0.1,0.1-0.1c0,0,0.1,0,0.1,0.1l0.1,0.2c-0.1,0.1-0.2,0.2-0.3,0.2
		c-0.1,0.1-0.2,0.1-0.4,0.2c-0.1,0-0.3,0.1-0.4,0.1c-0.1,0-0.3,0-0.4,0c-0.2,0-0.4,0-0.6-0.1c-0.2-0.1-0.3-0.2-0.4-0.3
		c-0.1-0.2-0.2-0.3-0.2-0.6c0-0.2,0-0.5,0.1-0.8c0.1-0.2,0.2-0.5,0.3-0.7c0.1-0.2,0.3-0.4,0.5-0.5c0.2-0.1,0.4-0.3,0.6-0.4
		C133.7,739.6,133.9,739.6,134.2,739.6z M134.1,740c-0.3,0-0.5,0.1-0.7,0.2c-0.2,0.2-0.4,0.4-0.5,0.7h1.8c0-0.1,0.1-0.3,0-0.4
		c0-0.1,0-0.2-0.1-0.3c-0.1-0.1-0.1-0.1-0.2-0.2C134.3,740.1,134.2,740,134.1,740z M137.9,743h-0.3c-0.1,0-0.1,0-0.1,0
		c0,0,0-0.1,0-0.1l0-0.3c-0.1,0.1-0.2,0.2-0.3,0.2c-0.1,0.1-0.2,0.1-0.3,0.2c-0.1,0-0.2,0.1-0.3,0.1c-0.1,0-0.2,0-0.4,0
		c-0.1,0-0.2,0-0.4-0.1c-0.1,0-0.2-0.1-0.3-0.2c-0.1-0.1-0.1-0.2-0.1-0.3c0-0.1,0-0.2,0-0.4c0-0.1,0.1-0.3,0.2-0.4
		c0.1-0.1,0.3-0.2,0.4-0.3c0.2-0.1,0.4-0.2,0.7-0.2c0.3-0.1,0.6-0.1,1-0.1l0.1-0.3c0.1-0.3,0.1-0.5,0-0.6c-0.1-0.1-0.2-0.2-0.4-0.2
		c-0.1,0-0.3,0-0.4,0.1c-0.1,0-0.2,0.1-0.3,0.1c-0.1,0-0.2,0.1-0.2,0.1c-0.1,0-0.1,0.1-0.2,0.1c0,0-0.1,0-0.1,0c0,0,0,0-0.1-0.1
		l-0.1-0.2c0.2-0.2,0.5-0.3,0.7-0.4c0.2-0.1,0.5-0.1,0.8-0.1c0.2,0,0.3,0,0.5,0.1c0.1,0.1,0.2,0.1,0.3,0.3c0.1,0.1,0.1,0.2,0.1,0.4
		c0,0.2,0,0.3-0.1,0.5L137.9,743z M136.4,742.7c0.1,0,0.2,0,0.3,0c0.1,0,0.2-0.1,0.3-0.1c0.1,0,0.2-0.1,0.3-0.1
		c0.1-0.1,0.2-0.1,0.3-0.2l0.2-0.7c-0.3,0-0.5,0-0.7,0.1c-0.2,0-0.4,0.1-0.5,0.1c-0.1,0.1-0.2,0.1-0.3,0.2c-0.1,0.1-0.1,0.2-0.1,0.3
		c0,0.1,0,0.2,0,0.2c0,0.1,0,0.1,0.1,0.2c0,0,0.1,0.1,0.1,0.1C136.3,742.6,136.4,742.7,136.4,742.7z M138.8,743l0.9-3.4h0.3
		c0.1,0,0.1,0,0.1,0c0,0,0,0.1,0,0.1l-0.1,0.6c0.2-0.2,0.4-0.4,0.6-0.6c0.2-0.1,0.4-0.2,0.6-0.2c0.1,0,0.2,0,0.2,0
		c0.1,0,0.1,0.1,0.2,0.1l-0.2,0.4c0,0.1-0.1,0.1-0.1,0.1c0,0-0.1,0-0.1,0c-0.1,0-0.1,0-0.3,0c-0.2,0-0.4,0.1-0.6,0.2
		c-0.2,0.1-0.3,0.3-0.5,0.5l-0.6,2.1H138.8z M141.5,743l0.9-3.4h0.4c0.1,0,0.1,0,0.1,0.1l-0.1,0.4c0.2-0.2,0.4-0.3,0.6-0.4
		c0.2-0.1,0.4-0.2,0.7-0.2c0.2,0,0.3,0,0.5,0.1c0.1,0.1,0.2,0.1,0.3,0.3c0.1,0.1,0.1,0.2,0.1,0.4c0,0.2,0,0.3-0.1,0.5l-0.6,2.1h-0.6
		l0.6-2.1c0.1-0.3,0.1-0.5,0-0.6c-0.1-0.1-0.2-0.2-0.5-0.2c-0.2,0-0.3,0-0.5,0.1c-0.2,0.1-0.3,0.2-0.5,0.3L142,743H141.5z
		 M146.7,739.7l-0.9,3.4h-0.6l0.9-3.4H146.7z M147.1,738.6c0,0.1,0,0.1-0.1,0.2c0,0-0.1,0.1-0.1,0.1c0,0-0.1,0.1-0.2,0.1
		c-0.1,0-0.1,0-0.2,0c-0.1,0-0.1,0-0.2,0c0,0-0.1-0.1-0.1-0.1c0,0,0-0.1-0.1-0.1c0,0,0-0.1,0-0.2c0-0.1,0-0.1,0.1-0.2
		c0-0.1,0.1-0.1,0.1-0.1c0,0,0.1-0.1,0.2-0.1c0.1,0,0.1,0,0.2,0c0.1,0,0.1,0,0.2,0c0,0,0.1,0.1,0.1,0.1c0,0,0,0.1,0.1,0.1
		C147.1,738.5,147.1,738.5,147.1,738.6z M146.8,743l0.9-3.4h0.4c0.1,0,0.1,0,0.1,0.1l-0.1,0.4c0.2-0.2,0.4-0.3,0.6-0.4
		c0.2-0.1,0.4-0.2,0.7-0.2c0.2,0,0.3,0,0.5,0.1c0.1,0.1,0.2,0.1,0.3,0.3c0.1,0.1,0.1,0.2,0.1,0.4c0,0.2,0,0.3-0.1,0.5l-0.6,2.1h-0.6
		l0.6-2.1c0.1-0.3,0.1-0.5,0-0.6c-0.1-0.1-0.2-0.2-0.5-0.2c-0.2,0-0.3,0-0.5,0.1c-0.2,0.1-0.3,0.2-0.5,0.3l-0.7,2.5H146.8z
		 M152.6,739.6c0.1,0,0.3,0,0.4,0c0.1,0,0.2,0.1,0.3,0.1h0.9l-0.1,0.2c0,0.1-0.1,0.1-0.2,0.1l-0.4,0.1c0,0.1,0,0.3,0,0.5
		c0,0.2-0.1,0.3-0.2,0.4c-0.1,0.1-0.2,0.2-0.4,0.3c-0.1,0.1-0.3,0.2-0.5,0.2c-0.2,0-0.3,0.1-0.5,0.1c-0.2,0-0.3,0-0.4-0.1
		c-0.1,0-0.1,0.1-0.2,0.1c-0.1,0.1-0.1,0.1-0.1,0.2c0,0.1,0,0.1,0,0.2c0.1,0,0.1,0.1,0.2,0.1c0.1,0,0.2,0,0.4,0c0.1,0,0.3,0,0.4,0
		c0.1,0,0.3,0,0.4,0c0.1,0,0.2,0.1,0.3,0.1c0.1,0.1,0.2,0.1,0.2,0.2c0,0.1,0,0.2,0,0.4c0,0.1-0.1,0.3-0.2,0.4
		c-0.1,0.1-0.2,0.3-0.4,0.4c-0.2,0.1-0.3,0.2-0.6,0.3c-0.2,0.1-0.4,0.1-0.7,0.1c-0.2,0-0.5,0-0.6-0.1c-0.2,0-0.3-0.1-0.4-0.2
		c-0.1-0.1-0.2-0.2-0.2-0.3c0-0.1,0-0.2,0-0.3c0-0.2,0.1-0.3,0.3-0.4c0.1-0.1,0.3-0.2,0.5-0.3c-0.1,0-0.1-0.1-0.2-0.2
		c0-0.1,0-0.2,0-0.3c0,0,0-0.1,0.1-0.2c0-0.1,0.1-0.1,0.1-0.2c0-0.1,0.1-0.1,0.2-0.1c0.1,0,0.1-0.1,0.2-0.1
		c-0.1-0.1-0.2-0.2-0.3-0.4c-0.1-0.2-0.1-0.3,0-0.5c0-0.2,0.1-0.3,0.2-0.4c0.1-0.1,0.2-0.3,0.4-0.3c0.1-0.1,0.3-0.2,0.5-0.2
		C152.2,739.6,152.4,739.6,152.6,739.6z M152.7,743.2c0-0.1,0-0.2,0-0.2c0-0.1-0.1-0.1-0.2-0.1c-0.1,0-0.2,0-0.3-0.1
		c-0.1,0-0.2,0-0.3,0c-0.1,0-0.2,0-0.4,0c-0.1,0-0.2,0-0.3,0c-0.1,0.1-0.3,0.1-0.4,0.2c-0.1,0.1-0.2,0.2-0.2,0.3c0,0.1,0,0.1,0,0.2
		c0,0.1,0.1,0.1,0.1,0.2c0.1,0,0.2,0.1,0.3,0.1c0.1,0,0.3,0,0.4,0c0.2,0,0.3,0,0.4,0c0.1,0,0.3-0.1,0.4-0.1c0.1-0.1,0.2-0.1,0.3-0.2
		C152.6,743.4,152.6,743.3,152.7,743.2z M152.1,741.4c0.1,0,0.2,0,0.3,0c0.1,0,0.2-0.1,0.3-0.1c0.1-0.1,0.1-0.1,0.2-0.2
		c0.1-0.1,0.1-0.2,0.1-0.3c0.1-0.2,0-0.4-0.1-0.5c-0.1-0.1-0.3-0.2-0.5-0.2s-0.4,0.1-0.6,0.2c-0.2,0.1-0.3,0.3-0.3,0.5
		c0,0.1,0,0.2,0,0.3c0,0.1,0,0.2,0.1,0.2c0,0.1,0.1,0.1,0.2,0.1C151.9,741.4,152,741.4,152.1,741.4z M159.8,738.3l-0.1,0.5h-1.5
		L157,743h-0.6l1.1-4.2H156l0.1-0.5H159.8z M160.7,739.6c0.2,0,0.4,0,0.5,0.1c0.2,0.1,0.3,0.2,0.4,0.3c0.1,0.1,0.1,0.3,0.2,0.5
		c0,0.2,0,0.4-0.1,0.6c0,0.1,0,0.2-0.1,0.2c0,0-0.1,0-0.1,0h-2.2c-0.1,0.2-0.1,0.4-0.1,0.6c0,0.2,0,0.3,0.1,0.4
		c0.1,0.1,0.2,0.2,0.3,0.2c0.1,0.1,0.2,0.1,0.4,0.1c0.1,0,0.3,0,0.4-0.1c0.1,0,0.2-0.1,0.3-0.1c0.1,0,0.2-0.1,0.2-0.1
		c0.1,0,0.1-0.1,0.1-0.1c0,0,0.1,0,0.1,0.1l0.1,0.2c-0.1,0.1-0.2,0.2-0.3,0.2c-0.1,0.1-0.2,0.1-0.4,0.2c-0.1,0-0.3,0.1-0.4,0.1
		c-0.1,0-0.3,0-0.4,0c-0.2,0-0.4,0-0.6-0.1c-0.2-0.1-0.3-0.2-0.4-0.3c-0.1-0.2-0.2-0.3-0.2-0.6c0-0.2,0-0.5,0.1-0.8
		c0.1-0.2,0.2-0.5,0.3-0.7c0.1-0.2,0.3-0.4,0.5-0.5c0.2-0.1,0.4-0.3,0.6-0.4C160.2,739.6,160.4,739.6,160.7,739.6z M160.6,740
		c-0.3,0-0.5,0.1-0.7,0.2c-0.2,0.2-0.4,0.4-0.5,0.7h1.8c0-0.1,0-0.3,0-0.4c0-0.1,0-0.2-0.1-0.3c-0.1-0.1-0.1-0.1-0.2-0.2
		C160.8,740.1,160.7,740,160.6,740z M164.4,743h-0.3c-0.1,0-0.1,0-0.1,0c0,0,0-0.1,0-0.1l0-0.3c-0.1,0.1-0.2,0.2-0.3,0.2
		s-0.2,0.1-0.3,0.2c-0.1,0-0.2,0.1-0.3,0.1c-0.1,0-0.2,0-0.4,0c-0.1,0-0.2,0-0.4-0.1c-0.1,0-0.2-0.1-0.3-0.2
		c-0.1-0.1-0.1-0.2-0.1-0.3c0-0.1,0-0.2,0-0.4c0-0.1,0.1-0.3,0.2-0.4c0.1-0.1,0.3-0.2,0.4-0.3c0.2-0.1,0.4-0.2,0.7-0.2
		c0.3-0.1,0.6-0.1,1-0.1l0.1-0.3c0.1-0.3,0.1-0.5,0-0.6c-0.1-0.1-0.2-0.2-0.4-0.2c-0.1,0-0.3,0-0.4,0.1c-0.1,0-0.2,0.1-0.3,0.1
		c-0.1,0-0.2,0.1-0.2,0.1c-0.1,0-0.1,0.1-0.2,0.1c0,0-0.1,0-0.1,0c0,0,0,0-0.1-0.1l-0.1-0.2c0.2-0.2,0.5-0.3,0.7-0.4
		c0.2-0.1,0.5-0.1,0.7-0.1c0.2,0,0.3,0,0.5,0.1c0.1,0.1,0.2,0.1,0.3,0.3c0.1,0.1,0.1,0.2,0.1,0.4c0,0.2,0,0.3-0.1,0.5L164.4,743z
		 M162.9,742.7c0.1,0,0.2,0,0.3,0c0.1,0,0.2-0.1,0.3-0.1c0.1,0,0.2-0.1,0.3-0.1c0.1-0.1,0.2-0.1,0.3-0.2l0.2-0.7
		c-0.3,0-0.5,0-0.7,0.1c-0.2,0-0.4,0.1-0.5,0.1c-0.1,0.1-0.2,0.1-0.3,0.2c-0.1,0.1-0.1,0.2-0.2,0.3c0,0.1,0,0.2,0,0.2
		c0,0.1,0,0.1,0.1,0.2c0,0,0.1,0.1,0.1,0.1C162.8,742.6,162.9,742.7,162.9,742.7z M165.3,743l0.9-3.4h0.3c0.1,0,0.1,0,0.1,0.1l0,0.3
		c0.2-0.2,0.3-0.3,0.5-0.4c0.2-0.1,0.4-0.1,0.6-0.1c0.2,0,0.4,0.1,0.5,0.2c0.1,0.1,0.2,0.3,0.2,0.5c0.1-0.1,0.2-0.2,0.3-0.3
		c0.1-0.1,0.2-0.2,0.3-0.2c0.1-0.1,0.2-0.1,0.3-0.1c0.1,0,0.2,0,0.3,0c0.2,0,0.3,0,0.5,0.1c0.1,0.1,0.2,0.1,0.3,0.2
		c0.1,0.1,0.1,0.2,0.1,0.4c0,0.2,0,0.3-0.1,0.5l-0.6,2.1h-0.6l0.6-2.1c0.1-0.3,0.1-0.5,0-0.6c-0.1-0.1-0.2-0.2-0.4-0.2
		c-0.1,0-0.2,0-0.3,0.1c-0.1,0-0.2,0.1-0.3,0.2c-0.1,0.1-0.2,0.2-0.2,0.3c-0.1,0.1-0.1,0.2-0.2,0.4l-0.6,2.1h-0.6l0.6-2.1
		c0.1-0.3,0.1-0.5,0-0.6c-0.1-0.1-0.2-0.2-0.4-0.2c-0.1,0-0.3,0-0.4,0.1c-0.1,0.1-0.3,0.2-0.4,0.3l-0.7,2.5H165.3z"/>
</g>
<g>
	<g>
		<linearGradient id="SVGID_9_" gradientUnits="userSpaceOnUse" x1="760.207" y1="141.1089" x2="960.3847" y2="141.1089">
			<stop  offset="0" style="stop-color:#FFFFFF;stop-opacity:0"/>
			<stop  offset="4.017906e-002" style="stop-color:#FDEBEE;stop-opacity:4.051906e-002"/>
			<stop  offset="0.1257" style="stop-color:#FAC6CE;stop-opacity:0.1267"/>
			<stop  offset="0.2187" style="stop-color:#F7A7B2;stop-opacity:0.2205"/>
			<stop  offset="0.3192" style="stop-color:#F58D9C;stop-opacity:0.3219"/>
			<stop  offset="0.4302" style="stop-color:#F3798A;stop-opacity:0.4338"/>
			<stop  offset="0.5573" style="stop-color:#F26C7E;stop-opacity:0.562"/>
			<stop  offset="0.7143" style="stop-color:#F16377;stop-opacity:0.7204"/>
			<stop  offset="0.9916" style="stop-color:#F16175"/>
		</linearGradient>
		<rect x="760.2" y="128.8" class="st15" width="200.2" height="24.7"/>
		<g>
			<g>
				<path class="st13" d="M910.6,145.7c-4.3,0-5.9-2-5.9-5.1c0-2.9,1.8-5.5,5.8-5.5c2.6,0,4.6,0.8,4.6,0.8v7.6h2.2v2.3H910.6z
					 M906.9,132.2c0-0.8,0.6-1.5,1.5-1.5c0.8,0,1.5,0.7,1.5,1.5c0,0.8-0.6,1.5-1.5,1.5C907.6,133.7,906.9,133,906.9,132.2z
					 M912.3,137.7c0,0-0.8-0.4-2.1-0.4c-1.7,0-2.6,1.3-2.6,3c0,2,1,3.1,3.3,3.1h1.4V137.7z M910.6,132.2c0-0.8,0.6-1.5,1.5-1.5
					s1.5,0.7,1.5,1.5c0,0.8-0.6,1.5-1.5,1.5S910.6,133,910.6,132.2z"/>
				<path class="st13" d="M916.9,143.4h4.1v-8.1h2.9v10.3h-7V143.4z M918.8,150.5c-0.8,0-1.5-0.7-1.5-1.5c0-0.8,0.6-1.5,1.5-1.5
					c0.8,0,1.5,0.7,1.5,1.5C920.3,149.8,919.6,150.5,918.8,150.5z M922.5,150.5c-0.8,0-1.5-0.7-1.5-1.5c0-0.8,0.6-1.5,1.5-1.5
					c0.8,0,1.5,0.7,1.5,1.5C923.9,149.8,923.3,150.5,922.5,150.5z"/>
				<path class="st13" d="M924.1,151l0.2-2.3c0.5,0.2,1.1,0.3,1.8,0.3c1.5,0,2.4-0.7,2.4-3.1v-10.6h2.9v8.1h2.2v2.3h-2.2v0.1
					c0,2.8-0.9,5.5-5.4,5.5C925.2,151.3,924.6,151.2,924.1,151z"/>
				<path class="st13" d="M933.2,143.4h0.7c1.4,0,2-0.6,2-2.8v-4h2.9v4.4c0,1.7,0.4,2.6,1.7,2.6c1.3,0,1.6-0.9,1.6-2.5v-5.3h2.8v5.2
					c0,1.8,0.5,2.4,2.4,2.4h0.8c0.1-0.9,0.2-2,0.2-2.6c0-2.2-0.3-4.2-0.6-5.9l2.8-0.4c0.4,1.8,0.7,3.9,0.7,6.1
					c0,1.6-0.1,3.6-0.3,5.1h-4.1c-1.9,0-3.1-0.4-3.6-1.6c-0.5,1.2-1.8,1.8-3.2,1.8c-1.6,0-2.8-0.7-3.1-1.8c-0.4,1.1-1.3,1.6-2.9,1.6
					h-0.7V143.4z"/>
			</g>
		</g>
		<g>
			<path class="st8" d="M735.6,147.3c0.1,0.4,0.2,0.8,0.2,1.1c0,0.9-0.6,1.7-1.9,2.2l-4.9,1.9c-1.5,0.6-2.8,1.1-2.8,2
				c0,0.1,0,0.1,0,0.2l-0.2,0.1c-0.1-0.4-0.2-0.8-0.2-1.1c0-0.9,0.5-1.7,1.9-2.3l4.9-1.9c1.7-0.7,2.8-1.1,2.8-2.2L735.6,147.3z"/>
			<path class="st8" d="M737.7,123.5h8.9v3.3h-8.9c0,5.9-1.5,10.5-5.1,14.3c-3.2,3.6-7.1,5.4-11.7,5.4c-2,0-3.9-0.4-5.9-1.2l0.3-0.6
				c1.3,0.7,2.7,1,4.2,1c8.1,0,15-7.4,15-18.9v-21.2h3.3V123.5z"/>
			<path class="st8" d="M777.5,93.3c0.3-0.2,0.7-0.3,1.1-0.3v0.2c-0.7,0.1-0.7,1.2-0.7,2.4v2c0,1.7-1.4,3.1-3.1,3.1
				c-1.9,0-3.4-1.1-3.4-2.8v-1.2c0-1.8,1.6-3.4,3.4-3.4H777.5z M774.9,94.4c-1.4,0-2.5,1-2.5,2.3v1.2c0,0.9,1,1.7,2.3,1.7
				c1,0,2.1-0.9,2.1-2.1v-2.5c0-0.2,0-0.5,0.1-0.6H774.9z"/>
			<path class="st8" d="M796.6,126.8h-50.2v-3.3h2.8c0.6-0.3,0.9-1.1,0.9-2.5c0-3.4-0.8-6.6-3.2-8.8l0.4-0.3
				c2.2,2.1,3.7,4.7,4.4,7.3c0.7-8.2,8.8-14.5,19.3-14.5h6.9c6.1,0.5,11.1,6.1,11.1,12.4v6.5h7.6V126.8z M785.7,123.5V117
				c0-3.8-1.7-6.5-5.1-8.1c-1.4-0.6-3.3-0.9-6.2-0.9H771c-11.1,0-18.8,6.2-18.8,14.5v1H785.7z"/>
			<path class="st8" d="M817.7,89.9c0.1,0.4,0.2,0.8,0.2,1.1c0,0.9-0.6,1.7-1.9,2.2l-4.9,1.9c-1.5,0.6-2.8,1.1-2.8,2
				c0,0.1,0,0.1,0,0.2l-0.2,0.1c-0.1-0.4-0.2-0.8-0.2-1.1c0-0.9,0.5-1.7,1.9-2.3l4.9-1.9c1.7-0.7,2.8-1.1,2.8-2.2L817.7,89.9z"/>
			<path class="st8" d="M826.1,126.8h-29.6v-3.3h4.6c-1.7-1.7-2.5-4.1-2.5-6.3c0-5.1,4.5-9.6,9.7-9.6h6.9c3.4,0,6.8,0,7-2.2h0.5
				c0,3.4-1.9,5.4-5.8,5.4h-8.2c-4.2,0-7.1,2.7-7.1,6.4s2.8,6.2,6.7,6.3h17.9V126.8z"/>
			<path class="st8" d="M836.1,81.1c0.3-0.2,0.7-0.3,1.1-0.3v0.2c-0.7,0.1-0.7,1.2-0.7,2.4v2c0,1.7-1.4,3.1-3.1,3.1
				c-1.9,0-3.4-1.1-3.4-2.8v-1.2c0-1.8,1.6-3.4,3.4-3.4H836.1z M833.5,82.2c-1.4,0-2.5,1-2.5,2.3v1.2c0,0.9,1,1.7,2.3,1.7
				c1,0,2.1-0.9,2.1-2.1v-2.5c0-0.2,0-0.5,0.1-0.6H833.5z"/>
			<path class="st8" d="M829.8,88.6c3.1,0.1,5.3,1.7,5.3,6v21.6c0,4-2.5,7.9-6,9.6c-1.2,0.6-2.2,0.9-3,0.9v-3.3
				c2.4-0.2,5.8-2.8,5.8-7.3v-20c0-3.5,0-7-2.1-7.2V88.6z"/>
			<path class="st8" d="M842.5,96.7c0-5.7-0.2-7.3-2-7.5v-0.4c3.5,0.1,5.2,2.2,5.2,6.2v31.8h-3.3V96.7z"/>
			<path class="st8" d="M869.6,81.2c-1.3,2.3-3.3,3.5-5.2,3.5c-1.4,0-2.8-0.7-3.7-1.8l0.1-0.1c0.7,0.9,1.8,1.4,3,1.4
				c1.7,0,3.6-1,4.9-3.4l0.3-0.6c-0.2,0-0.4,0.1-0.6,0.1c-1.8,0-3.1-1.7-3.1-3.1c0-0.4,0.1-0.8,0.3-1.1l0.6-1c0.6-1,1.7-1.6,2.8-1.6
				c0.5,0,1,0.1,1.5,0.4l-0.4,0.9c-0.4-0.2-0.8-0.3-1.2-0.3c-0.8,0-1.5,0.4-1.9,1.1l-0.5,1c-0.1,0.2-0.2,0.4-0.2,0.6
				c0,0.8,0.8,2,2.1,2c0.5,0,0.9-0.2,1.3-0.5l1.7-3.1l-1.4-0.8l0.4-0.9l2.2,1.2c0.3,0,0.7,0.1,1,0.3l-0.1,0.1c-0.1,0-0.2,0-0.2,0
				c-0.5,0-0.9,0.9-1.4,1.7l-0.9,1.6L869.6,81.2z"/>
			<path class="st8" d="M879.1,104.5c0.8-0.5,1.9-0.7,3.1-0.8v0.5c-2.1,0.3-2.1,3.7-2.1,7.2v6c0,5.2-4.3,9.3-9.4,9.3
				c-5.4,0-10.2-3.6-10.2-8.3v-3.6c0-5.5,4.8-10.3,10.3-10.3H879.1z M871.3,107.8c-4.3,0-7.4,3.2-7.4,7v3.6c0,2.6,2.9,5.1,6.8,5.1
				c3.3,0,6.2-2.8,6.2-6.1v-7.6c0-0.9,0-1.4,0.3-2H871.3z M867,100.3l-2.9-2.9l2.9-2.8l2.9,2.8L867,100.3z M872.8,100.3l-2.9-2.9
				l2.9-2.8l2.9,2.8L872.8,100.3z"/>
			<path class="st8" d="M917.9,126.8c-3.4,0-6.6-1.6-8.3-4.5c-1,2-4.5,4.5-8,4.5h-17.1v-3.3h10.9v-13.1c0-3.7-0.2-7.2-2.2-7.5v-0.5
				c3.4,0.2,5.5,1.8,5.5,6.2v14.9h2.9c3.8,0,6.8-3.3,6.8-7.7V95.1c0-3.8-0.1-7.1-2.1-7.4v-0.5c3.3,0.1,5.4,1.8,5.4,6.1V118
				c0.3,3.3,2.8,5.2,6.2,5.5V126.8z"/>
			<path class="st8" d="M951.3,92.9c0.1,0.4,0.2,0.8,0.2,1.1c0,0.9-0.6,1.7-1.9,2.2l-4.9,1.9c-1.5,0.6-2.8,1.1-2.8,2
				c0,0.1,0,0.1,0,0.2l-0.2,0.1c-0.1-0.4-0.2-0.8-0.2-1.1c0-0.9,0.5-1.7,1.9-2.3l4.9-1.9c1.7-0.7,2.8-1.1,2.8-2.2L951.3,92.9z"/>
			<path class="st8" d="M960.4,126.8h-42.6v-3.3h2.8c0.6-0.3,0.9-1.1,0.9-2.5c0-3.4-0.8-6.6-3.2-8.8l0.4-0.3
				c2.2,2.1,3.7,4.7,4.4,7.3c0.7-8.2,8.8-14.5,19.3-14.5h6.9c6.1,0.5,11.2,6.1,11.1,12.4V126.8z M957.1,123.5V117
				c0-3.8-1.7-6.5-5.1-8.1c-1.4-0.6-3.3-0.9-6.2-0.9h-3.4c-11.1,0-18.8,6.2-18.8,14.5v1H957.1z"/>
		</g>
	</g>
</g>
</svg>
