<?xml version="1.0" encoding="utf-8"?>
<!-- Generator: Adobe Illustrator 19.2.0, SVG Export Plug-In . SVG Version: 6.00 Build 0)  -->
<svg version="1.1" id="Layer_1" xmlns="http://www.w3.org/2000/svg" xmlns:xlink="http://www.w3.org/1999/xlink" x="0px" y="0px"
	 viewBox="0 0 1024 768" style="enable-background:new 0 0 1024 768;" xml:space="preserve">
<style type="text/css">
	.st0{fill:url(#SVGID_1_);}
	.st1{clip-path:url(#SVGID_3_);}
	.st2{fill:url(#SVGID_4_);}
	.st3{fill:#F68A1F;}
	.st4{filter:url(#Adobe_OpacityMaskFilter);}
	.st5{filter:url(#Adobe_OpacityMaskFilter_1_);}
	.st6{mask:url(#SVGID_5_);fill:url(#SVGID_6_);}
	.st7{fill:url(#SVGID_7_);}
	.st8{fill:#622872;}
	.st9{fill:url(#SVGID_8_);}
	.st10{fill:#CA4977;}
	.st11{fill-rule:evenodd;clip-rule:evenodd;fill:#F6DFB4;}
	.st12{fill:#D2D3D4;}
	.st13{fill:#FFFFFF;}
	.st14{fill:#205B6A;}
	.st15{fill:url(#SVGID_9_);}
</style>
<g>
	<g>
		<g>
			<g>
				<linearGradient id="SVGID_1_" gradientUnits="userSpaceOnUse" x1="244.4326" y1="138.1426" x2="244.4326" y2="721.1336">
					<stop  offset="0" style="stop-color:#3553A4"/>
					<stop  offset="2.188736e-002" style="stop-color:#3B57A6"/>
					<stop  offset="0.2059" style="stop-color:#6576B8"/>
					<stop  offset="0.3861" style="stop-color:#8694CA"/>
					<stop  offset="0.5587" style="stop-color:#A2B1DA"/>
					<stop  offset="0.7217" style="stop-color:#B9C7E6"/>
					<stop  offset="0.8713" style="stop-color:#C7D6EE"/>
					<stop  offset="0.9949" style="stop-color:#CCDBF0"/>
				</linearGradient>
				<path class="st0" d="M394.7,266.9h-6.1c-1.8-28.2-25.9-59.6-71.7-93.4c-35-25.9-70.5-43.7-70.9-43.9c-1-0.5-2.2-0.5-3.1,0
					c-0.3,0.2-35.9,18-70.9,43.9c-45.7,33.8-69.8,65.2-71.7,93.4h-6.1c-1.9,0-3.5,1.6-3.5,3.5v360.2h307.5V270.4
					C398.2,268.5,396.6,266.9,394.7,266.9z"/>
			</g>
		</g>
	</g>
	<g>
		<defs>
			<path id="SVGID_2_" d="M394.7,266.9h-6.1c-1.8-28.2-25.9-59.6-71.7-93.4c-35-25.9-70.5-43.7-70.9-43.9c-1-0.5-2.2-0.5-3.1,0
				c-0.3,0.2-35.9,18-70.9,43.9c-45.7,33.8-69.8,65.2-71.7,93.4h-6.1c-1.9,0-3.5,1.6-3.5,3.5v360.2h307.5V270.4
				C398.2,268.5,396.6,266.9,394.7,266.9z"/>
		</defs>
		<clipPath id="SVGID_3_">
			<use xlink:href="#SVGID_2_"  style="overflow:visible;"/>
		</clipPath>
		<g class="st1">
			
				<radialGradient id="SVGID_4_" cx="133.809" cy="369.3249" r="54.2731" fx="122.6686" fy="353.2813" gradientUnits="userSpaceOnUse">
				<stop  offset="0.1436" style="stop-color:#FBF067"/>
				<stop  offset="0.5314" style="stop-color:#FFDE00"/>
				<stop  offset="0.9166" style="stop-color:#F47D20"/>
			</radialGradient>
			<circle class="st2" cx="134.8" cy="371.9" r="48.7"/>
			<g>
				<path class="st3" d="M134.8,323.2c-26.9,0-48.7,21.8-48.7,48.7c0,26.9,21.8,48.7,48.7,48.7c26.9,0,48.7-21.8,48.7-48.7
					C183.5,345,161.7,323.2,134.8,323.2z M133.1,417.4c-25.1,0-45.5-20.4-45.5-45.5c0-25.1,20.4-45.5,45.5-45.5
					c25.1,0,45.5,20.4,45.5,45.5C178.6,397,158.2,417.4,133.1,417.4z"/>
				<path class="st3" d="M140.1,307.1c0,2.7-2,4.9-4.6,4.9l0,0c-2.5,0-4.6-2.2-4.6-4.9v-8.7c0-2.7,2-4.9,4.6-4.9l0,0
					c2.5,0,4.6,2.2,4.6,4.9V307.1z"/>
				<path class="st3" d="M140.1,440.3c0,2.7-2,4.9-4.6,4.9l0,0c-2.5,0-4.6-2.2-4.6-4.9v-8.7c0-2.7,2-4.9,4.6-4.9l0,0
					c2.5,0,4.6,2.2,4.6,4.9V440.3z"/>
				<path class="st3" d="M197.8,373.9c-2.7,0-4.9-2-4.9-4.6l0,0c0-2.5,2.2-4.6,4.9-4.6h8.7c2.7,0,4.9,2,4.9,4.6l0,0
					c0,2.5-2.2,4.6-4.9,4.6H197.8z"/>
				<path class="st3" d="M64.6,373.9c-2.7,0-4.9-2-4.9-4.6l0,0c0-2.5,2.2-4.6,4.9-4.6h8.7c2.7,0,4.9,2,4.9,4.6l0,0
					c0,2.5-2.2,4.6-4.9,4.6H64.6z"/>
				<path class="st3" d="M182.8,328.5c-1.9,1.9-4.9,2.1-6.7,0.3l0,0c-1.8-1.8-1.7-4.8,0.3-6.7l6.2-6.2c1.9-1.9,4.9-2.1,6.7-0.3l0,0
					c1.8,1.8,1.7,4.8-0.3,6.7L182.8,328.5z"/>
				<path class="st3" d="M88.6,422.7c-1.9,1.9-4.9,2.1-6.7,0.3l0,0c-1.8-1.8-1.7-4.8,0.3-6.7l6.2-6.2c1.9-1.9,4.9-2.1,6.7-0.3l0,0
					c1.8,1.8,1.7,4.8-0.3,6.7L88.6,422.7z"/>
				<path class="st3" d="M176.4,416.6c-1.9-1.9-2-4.9-0.3-6.7l0,0c1.8-1.8,4.8-1.7,6.7,0.3l6.2,6.2c1.9,1.9,2.1,4.9,0.3,6.7l0,0
					c-1.8,1.8-4.8,1.7-6.7-0.3L176.4,416.6z"/>
				<path class="st3" d="M82.2,322.4c-1.9-1.9-2-4.9-0.3-6.7l0,0c1.8-1.8,4.8-1.7,6.7,0.3l6.2,6.2c1.9,1.9,2.1,4.9,0.3,6.7l0,0
					c-1.8,1.8-4.8,1.7-6.7-0.3L82.2,322.4z"/>
			</g>
			<defs>
				<filter id="Adobe_OpacityMaskFilter" filterUnits="userSpaceOnUse" x="88.9" y="327.2" width="72.7" height="48.8">
					<feFlood  style="flood-color:white;flood-opacity:1" result="back"/>
					<feBlend  in="SourceGraphic" in2="back" mode="normal"/>
				</filter>
			</defs>
			<mask maskUnits="userSpaceOnUse" x="88.9" y="327.2" width="72.7" height="48.8" id="SVGID_5_">
				<g class="st4">
					<defs>
						<filter id="Adobe_OpacityMaskFilter_1_" filterUnits="userSpaceOnUse" x="88.9" y="327.2" width="72.7" height="48.8">
							<feFlood  style="flood-color:white;flood-opacity:1" result="back"/>
							<feBlend  in="SourceGraphic" in2="back" mode="normal"/>
						</filter>
					</defs>
					<mask maskUnits="userSpaceOnUse" x="88.9" y="327.2" width="72.7" height="48.8" id="SVGID_5_">
						<g class="st5">
						</g>
					</mask>
					
						<radialGradient id="SVGID_6_" cx="123.849" cy="331.5909" r="50.6721" fx="141.0251" fy="305.4778" gradientUnits="userSpaceOnUse">
						<stop  offset="0.2627" style="stop-color:#FFFFFF"/>
						<stop  offset="0.7268" style="stop-color:#FFFFFF"/>
						<stop  offset="0.9716" style="stop-color:#000000"/>
					</radialGradient>
					<path class="st6" d="M103.6,337.9c9-9.2,32.2-15.4,48.6-6.2c16.4,9.2,11,26.7-15.4,25.7c-26.4-1-42.3,8.6-44.4,16.8
						C90.4,382.5,81.4,360.7,103.6,337.9z"/>
				</g>
			</mask>
			
				<radialGradient id="SVGID_7_" cx="123.849" cy="331.5909" r="50.6721" fx="141.0251" fy="305.4778" gradientUnits="userSpaceOnUse">
				<stop  offset="0.2627" style="stop-color:#FFFFFF"/>
				<stop  offset="0.7268" style="stop-color:#FBF067"/>
				<stop  offset="0.9716" style="stop-color:#FFDE00"/>
			</radialGradient>
			<path class="st7" d="M103.6,337.9c9-9.2,32.2-15.4,48.6-6.2c16.4,9.2,11,26.7-15.4,25.7c-26.4-1-42.3,8.6-44.4,16.8
				C90.4,382.5,81.4,360.7,103.6,337.9z"/>
		</g>
	</g>
</g>
<g>
	<path class="st8" d="M734.3,213.5c0-0.8,0.7-1.5,1.5-1.5c0.8,0,1.5,0.7,1.5,1.5c0,0.8-0.7,1.5-1.5,1.5
		C735,215,734.3,214.4,734.3,213.5z M734.3,221c0-0.8,0.7-1.5,1.5-1.5c0.8,0,1.5,0.7,1.5,1.5c0,0.8-0.7,1.5-1.5,1.5
		C735,222.5,734.3,221.8,734.3,221z"/>
	<path class="st8" d="M750.4,200.9l5.7-1.1v1.2l-5.7,1.1V200.9z M750.4,203.4l5.7-1.1v1.2l-5.7,1.1V203.4z"/>
	<path class="st8" d="M758,221c0,0.4-0.2,1.2-1.5,1.2c-2.1,0-3.7-0.6-4.1-2.9c-1.8,2.2-4.4,3-7.2,3l-0.8-1.7l0.1-0.1
		c2.3,0,4.3-0.5,5.9-1.6c-1.3-2.5-3.4-4.6-6.1-7.1l0.7-1.9l0.2-0.1c3,2.7,5.4,6.1,6.4,8.1c0.3-0.3,0.5-0.6,0.7-1v-10.7l1.7-0.4
		l0.1,0.1v12.1c0,1.9,0.8,2.3,2.8,2.3C757.8,220.4,758,220.6,758,221z"/>
	<path class="st8" d="M761,214.2c0.7,1.7,1.2,3.3,1.2,4.3c0,1-0.4,2.2-1.2,2.9c-0.6,0.6-1.6,0.8-3.8,0.8h-0.7l0.5-1.9h0.7
		c1.2,0,2.1-0.1,2.5-0.3c0.5-1.2-0.2-2.9-1-4.7l1.5-1.2H761z M757.7,210.4c0.4,0,0.8,0,1.2,0c-0.3-0.4-0.5-1-0.5-1.5
		c0-1.3,0.8-2.1,2.2-2.1c0.6,0,1.2,0.1,1.8,0.4l-0.4,1.4c-0.5-0.2-0.9-0.3-1.2-0.3c-0.7,0-1,0.5-1,1c0,0.4,0.2,0.8,0.5,1.1
		c0.8,0,1.7-0.1,2.4-0.2l0.1,1.3c-1.3,0.2-3,0.3-5,0.4L757.7,210.4z"/>
	<path class="st8" d="M765.2,218.3v-12l1.7-0.4l0.1,0.1v12.1c0,1.9,0.8,2.3,2.8,2.3c0.8,0,1,0.3,1,0.6c0,0.4-0.2,1.2-1.5,1.2
		C767.1,222.2,765.2,221.4,765.2,218.3z"/>
	<path class="st8" d="M778.5,217c0,2.3-0.4,3.6-1.5,4.4c-1.3,0.7-3.1,0.8-7.6,0.8l0.5-1.9c4.6,0,6.1-0.2,6.8-0.5
		c0.1-0.3,0.1-0.8,0.2-1.5c-0.7,0.2-1.6,0.3-2.5,0.3c-2.1,0-3.1-1.1-3.1-2.8c0-2.2,1.6-4.6,3.5-4.6
		C777.1,211.3,778.5,214.1,778.5,217z M773.4,208.7l-1.9-1.4l1.2-1.8l1.9,1.3L773.4,208.7z M774.7,216.8c0.8,0,1.5-0.1,2.2-0.2
		c-0.1-1.7-1.1-3.5-2.2-3.5c-0.9,0-1.9,1.2-1.9,2.5C772.8,216.5,773.5,216.8,774.7,216.8z M776.7,208.7l-1.9-1.4l1.2-1.8l1.9,1.3
		L776.7,208.7z"/>
	<path class="st8" d="M791.2,236.1l5.7-1.1v1.2l-5.7,1.1V236.1z"/>
	<path class="st8" d="M799.7,231.2c-1.6,0.6-3.5,1.1-5.6,1.1c-4.5,0-7.6-2.1-7.6-5.5c0-2,1.1-3.6,3.3-5c-1.5-1.2-2.3-2.9-2.3-4.4
		c0-2.5,2-4,4.6-4c1.2,0,2.4,0.4,3.2,0.8l-0.2,1.7l-0.1,0c-0.9-0.4-1.9-0.6-2.9-0.6c-1.6,0-2.6,0.7-2.6,2.1c0,1.1,0.6,2.5,1.9,3.4
		c1.3-0.6,2.8-1.2,4.6-1.7l0.1,0L796,221c-4.8,1.4-7.7,2.8-7.7,5.4c0,2.5,2.4,4,6.4,4c1.5,0,3.1-0.2,4.5-0.7l0.2,0.1L799.7,231.2z"
		/>
	<path class="st8" d="M810,221c0,0.4-0.2,1.2-1.5,1.2h-1.8c-0.8,2.3-3,4.1-7,4.2l-1-1.4l0.1-0.2c3-0.1,5.2-1.1,6.1-2.7h-0.7
		c-3,0-4.4-1.2-4.4-3.1c0-2.2,1.6-4.7,3.5-4.7c2.2,0,3.6,2.7,3.6,5.7v0.1h1.9C809.8,220.4,810,220.6,810,221z M805.5,220.4v-0.1
		c0-2.1-1.1-3.8-2.2-3.8c-0.9,0-1.9,1-1.9,2.6c0,0.9,0.8,1.4,3.1,1.4H805.5z"/>
	<path class="st8" d="M818,209.1l-6.2,3.5c4.7,3.1,5.5,4.8,5.5,6.2c0,1.9-1.7,3.4-6.5,3.4h-2.3l0.5-1.9h1.8c2.5,0,4.5-0.5,5-1
		c0-1.9-2.5-3.6-5.6-5.7l-0.1-0.1l0.5-2.4l7.9-4.5l0.2,0.1L818,209.1z"/>
	<path class="st8" d="M828.5,221c0,0.4-0.2,1.2-1.4,1.2c-1,0-1.6-0.3-2-0.6c-0.7,2.2-3.3,4.2-7.2,4.9l-1-1.4l0.1-0.2
		c4.7-0.9,6.4-2.8,6.8-4.6c-0.4-1.1-1.1-2.6-1.8-4l1.4-1.5h0.2c0.6,1.7,1.2,3.1,1.4,3.7c0.6,1.6,1,1.9,2.5,1.9
		C828.4,220.4,828.5,220.6,828.5,221z"/>
	<path class="st8" d="M827.6,220.4c0.8,0,1.7,0,2.3-0.5c0.1-0.4,0.2-1,0.2-1.9v-11.7l1.7-0.4l0.2,0.1v11.9c0,3.5-1.8,4.4-4.8,4.4
		L827.6,220.4z"/>
	<path class="st8" d="M835,222.3v-16l1.8-0.5l0.1,0.1l0,16.1l-1.7,0.4L835,222.3z"/>
	<path class="st8" d="M861.3,221c0,0.4-0.2,1.2-1.5,1.2c-0.6,0-1.4-0.2-1.9-0.6c-0.5,3.4-3.3,5.1-6.9,5.1c-3.7,0-5.7-2.1-5.7-4.9
		c0-1,0.2-2.1,0.4-2.7l1.5-0.5l0.2,0.1c-0.2,0.8-0.2,1.6-0.2,2.2c0,2.4,0.9,4,4.2,4c2.7,0,3.9-1,4.6-1.8c0.8-1.8,0-3.6-1-6l1.7-1.2
		h0.1c0.3,0.8,0.7,2.3,1.2,3.2c0.5,1,1.2,1.4,2.2,1.4C861,220.4,861.3,220.6,861.3,221z M851.6,214.7l-2-1.4l1.2-1.8l2,1.3
		L851.6,214.7z"/>
	<path class="st8" d="M870.8,219.9c0,1.6-0.8,2.6-2.4,2.6c-1.2,0-3.1-0.6-4.8-1.8c-0.9,1.2-2,1.5-3.6,1.5l0.5-1.9
		c1.1,0,1.6-0.5,2.2-1.5c0.8-1.5,2-4.3,4.3-4.3S870.8,217.2,870.8,219.9z M866.7,216.4c-0.9,0-1.4,1.1-2.4,2.9
		c1.4,0.9,2.8,1.4,3.5,1.4c0.4,0,0.8-0.1,1-0.3C869.1,219.2,868,216.4,866.7,216.4z"/>
	<path class="st8" d="M878.9,221.7c0-1,0.2-2.1,0.4-2.7l1.5-0.5l0.2,0.1c-0.2,0.8-0.2,1.6-0.2,2.2c0,2.4,0.9,4,4.2,4
		c2,0,3.4-0.5,4.4-1.7c0.3-0.6,0.6-1.8,0.6-3.7v-13.1l1.7-0.4l0.2,0.1l0,13.2c0,5.4-2.5,7.5-7.2,7.5
		C880.9,226.7,878.9,224.6,878.9,221.7z"/>
	<path class="st8" d="M905.9,221c0,0.4-0.2,1.2-1.5,1.2c-1.1,0-1.9-0.3-2.5-1.3c-0.9,0.9-2.6,1.4-4.9,1.4c-0.5,0-1.9-0.1-2.8-0.3
		l0.3-1.8l0.1-0.1c0.8,0.2,2.1,0.2,2.6,0.2c1.5,0,3.1-0.3,3.9-0.9l-0.1-0.1c-0.4-0.8-2.2-4.3-3.2-6l1.4-1.5h0.2
		c0.7,1.5,2.4,5.4,2.8,6c0.9,1.9,1.4,2.3,2.7,2.3C905.7,220.4,905.9,220.6,905.9,221z"/>
	<path class="st8" d="M914,221c0,0.4-0.2,1.2-1.4,1.2c-1.5,0-2.9-0.3-3.9-1.2c-0.8,0.8-1.8,1.2-3.3,1.2h-0.8l0.5-1.9h0.7
		c0.7,0,1.4-0.1,1.8-0.5c0.3-0.5,0.7-1.6,1.2-3.6l1.8-0.5l0.2,0.1c-0.3,1.5-0.7,2.7-1.1,3.7c0.6,0.3,1.5,0.7,3.4,0.7
		C913.9,220.4,914,220.6,914,221z M908.4,213.1l-1.9-1.4l1.2-1.8l1.9,1.3L908.4,213.1z M911.7,213.1l-1.9-1.4l1.2-1.8l1.9,1.3
		L911.7,213.1z"/>
	<path class="st8" d="M923.9,219.9l-0.6,1.7c-1.9,0.4-4.7,0.6-10.8,0.6l0.5-1.9c0.9,0,1.8,0,2.7,0c-0.6-0.9-1-2-1-3.1
		c0-2.5,2-4,4.6-4c1.2,0,2.4,0.4,3.2,0.8l-0.2,1.7l-0.1,0c-0.9-0.4-1.9-0.6-2.9-0.6c-1.6,0-2.6,0.8-2.6,2.1c0,0.9,0.5,2.1,1.4,3
		c2.1-0.1,3.9-0.2,5.6-0.4L923.9,219.9z"/>
	<path class="st8" d="M929.8,204c-1.2,0.1-2.7,0.3-4.6,0.3l-0.1-1.3c0.3,0,0.7,0,1.1,0c-0.3-0.4-0.4-0.9-0.4-1.4
		c0-1.2,0.7-1.9,2-1.9c0.5,0,1.1,0.1,1.7,0.3l-0.3,1.2c-0.5-0.1-0.8-0.2-1.1-0.2c-0.6,0-0.9,0.4-0.9,0.9c0,0.4,0.2,0.7,0.5,1
		c0.8,0,1.5-0.1,2.2-0.2L929.8,204z M928.4,205.8l0.1,0.1l0,16.1l-1.7,0.4l-0.1-0.1v-16L928.4,205.8z"/>
</g>
<linearGradient id="SVGID_8_" gradientUnits="userSpaceOnUse" x1="504.7073" y1="358.0948" x2="1023.2473" y2="358.0948">
	<stop  offset="0.1199" style="stop-color:#FFFFFF"/>
	<stop  offset="0.9969" style="stop-color:#FFF2D5"/>
</linearGradient>
<rect x="504.7" y="285.6" class="st9" width="518.5" height="145"/>
<g>
	<g>
		<path class="st10" d="M648.4,340.6c0-1.5,1.3-2.8,2.9-2.8c1.5,0,2.9,1.3,2.9,2.8c0,1.6-1.4,2.9-2.9,2.9
			C649.8,343.5,648.4,342.2,648.4,340.6z"/>
		<path class="st10" d="M655.8,340.6c0-1.5,1.3-2.8,2.9-2.8c1.5,0,2.9,1.3,2.9,2.8c0,1.6-1.4,2.9-2.9,2.9
			C657.2,343.5,655.8,342.2,655.8,340.6z"/>
		<path class="st10" d="M676.1,337.2c0,3.7-2.5,6.1-6.4,6.1c-3.8,0-6-1.8-6-5.1c0-1.8,0.8-3.9,3.5-7.2c-0.3-0.3-0.7-0.5-1-0.8
			l2.2-3.7l0.4-0.3C674.2,330.9,676.1,334.1,676.1,337.2z M672.3,337c0-1.1-0.9-2.4-2.4-3.9c-1.6,1.5-2.2,2.8-2.2,3.9
			c0,1.1,0.9,1.8,2.3,1.8C671.4,338.8,672.3,338.1,672.3,337z"/>
		<path class="st10" d="M697.7,340c0,1.7-0.6,3.1-2.4,3.1c-2.3,0-3.8-0.4-4.8-1.7c-1.7,1.3-4.4,2-7.5,2c-0.9,0-2.9-0.1-4.2-0.4
			l0.6-4.4l0.3-0.1c1.2,0.2,2.8,0.3,3.7,0.3c1.7,0,3.8-0.2,5.2-0.8c-0.8-1.5-2.7-5.3-4.2-8.1l3.2-3.7h0.4c0.9,2.2,3.3,7.8,3.8,9
			c1.3,3,2,3.4,4.4,3.4C697.4,338.5,697.7,339.2,697.7,340z"/>
		<path class="st10" d="M716.9,340c0,1.8-0.8,3.1-2.5,3.1c-1.5,0-2.7-0.4-3.7-1.3c-0.7,1.1-1.7,1.7-3.1,1.7c-1.5,0-4-0.8-6.4-2.5
			c-1.4,1.8-3.3,2-6,2l1-4.5c1.6,0,2.1-0.3,2.9-1.7c2-3.4,3.7-6.6,6.7-6.6c2.7,0,4,2.4,5.5,5.4c1.2,2.3,1.8,2.9,4,2.9
			C716.5,338.5,716.9,339.1,716.9,340z M708.7,338.6l-0.1-0.2c-1.1-2.6-2.1-3.9-2.8-3.9c-0.8,0-1.7,1.3-2.6,3.1
			c1.4,0.9,2.8,1.6,3.9,1.6C707.9,339.3,708.3,339,708.7,338.6z"/>
		<path class="st10" d="M735.5,334.1l-1.2,4.3c-2.5,0.3-5.9,1.1-9.6,2.4c-5,1.7-7.5,2.2-10.2,2.2l1-4.5c2.8,0,4.8-0.2,9.4-1.4
			c1.5-0.4,2.7-0.7,3.7-1c-0.5-0.2-1.1-0.5-1.7-0.8c-2.8-1.5-4.4-2-5.9-2c-1.6,0-2.9,0.3-4.1,0.7l-0.2-0.2l1.6-4
			c0.8-0.4,2.1-0.8,3.3-0.8c1.6,0,3.1,0.6,6.7,2.4C732.1,333.5,733.8,334,735.5,334.1z"/>
		<path class="st10" d="M770.4,340c0,1.7-0.5,3.1-2.4,3.1c-0.9,0-1.7-0.3-2.3-0.6c-1.3,5-5.5,7.3-11,7.3c-5.6,0-8.7-3-8.7-7.5
			c0-1.7,0.4-3.4,0.7-4.4l3.2-1.2l0.4,0.1c-0.2,1.3-0.3,2.4-0.3,3.4c0,3,1.3,5.1,5.6,5.1c3.2,0,5.3-1.2,6.2-2.5
			c0.4-2.2-0.7-4.9-2.1-7.8l3.9-2.8h0.2c0.3,0.8,1.3,3.9,1.7,4.8c0.5,1.2,1.5,1.6,3.3,1.6C770,338.5,770.4,339.2,770.4,340z
			 M755.7,331.6l-3.9-2.7l2.4-3.5l3.8,2.7L755.7,331.6z"/>
		<path class="st10" d="M789.5,340c0,1.8-0.8,3.1-2.5,3.1c-1.5,0-2.7-0.4-3.7-1.3c-0.7,1.1-1.7,1.7-3.1,1.7c-1.5,0-4-0.8-6.4-2.5
			c-1.4,1.8-3.3,2-6,2l1-4.5c1.6,0,2.1-0.3,2.9-1.7c2-3.4,3.7-6.6,6.7-6.6c2.7,0,4,2.4,5.5,5.4c1.2,2.3,1.8,2.9,4,2.9
			C789.1,338.5,789.5,339.1,789.5,340z M781.3,338.6l-0.1-0.2c-1.1-2.6-2.1-3.9-2.8-3.9c-0.8,0-1.7,1.3-2.6,3.1
			c1.4,0.9,2.8,1.6,3.9,1.6C780.5,339.3,780.9,339,781.3,338.6z"/>
		<path class="st10" d="M788.1,338.5c1,0,2.2-0.1,2.9-0.5c0.1-0.6,0.3-1.4,0.3-2.7v-16.2l4.2-1.1l0.3,0.2v16.9
			c0,6.3-3.2,7.8-8.6,7.8L788.1,338.5z"/>
		<path class="st10" d="M841.1,318.1l0.3,0.2v16.9c0,6-3,7.7-7.9,7.8h-0.3c0,0-0.1,0-0.1,0h-0.3c-1.3-0.1-3-0.5-4.1-2.1
			c-1.2,1.5-2.9,2-6.1,2.1h-0.2c0,0-0.1,0-0.1,0H822c-2.4-0.1-4.3-0.8-5.4-2.4c-1.2,0.4-2.2,0.6-3.3,0.6c-4,0-6.4-1.9-6.4-4.6
			c0-3,3-6.3,8.6-8.2v-1.7l4.2-1.6l0.3,0.1v10.8c0,1.8,0.6,2.4,3.2,2.5c1,0,2-0.1,2.7-0.5c0.1-0.6,0.3-1.4,0.3-2.7v-12.3l4.2-1.1
			l0.3,0.2v13.1c0,2.7,0.8,3.1,3.3,3.2c1,0,2-0.1,2.7-0.5c0.1-0.6,0.3-1.4,0.3-2.7v-16.2L841.1,318.1z M815.5,336.7v-0.7v-3.4
			c-2.5,0.6-4.5,1.7-5,2.8c0.4,1,1.9,1.5,3.2,1.5C814.3,336.9,814.9,336.8,815.5,336.7z M822.9,316.7c0-0.5,0.1-1.5,0.3-2.1l2.4-0.1
			c-0.1,0.6-0.1,1.2-0.1,1.5c0,0.9,0.3,1.3,0.9,1.3c0.7,0,1-0.5,1-2.6l2.3-0.2c0,0.7,0,1.2,0,1.5c0,0.9,0.4,1.2,1,1.2
			c0.7,0,0.9-0.5,0.9-1.3c0-0.7-0.2-1.4-0.4-2.1l2.5-0.6c0.3,0.9,0.5,1.8,0.5,2.8c0,2.1-1.1,3.7-3.5,3.7c-0.9,0-1.7-0.4-2.1-0.9
			c-0.5,0.6-1.4,0.9-2.4,0.9C823.7,319.9,822.9,318.4,822.9,316.7z M830,312.5h-3.2v-4.6h3.2V312.5z M850.2,318.3l-0.1,24.1
			l-4.1,0.9l-0.3-0.2v-23.9l4.2-1.1L850.2,318.3z"/>
		<path class="st10" d="M865.9,349c0,3.1,3.1,4.6,8.2,4.6c2.2,0,5.4-0.4,7.2-0.9l0.3,0.2l-1.3,3.9c-1.9,0.7-4.5,1.2-7.5,1.2
			c-6.9,0-11.3-2.9-11.3-8.4c0-4.7,3.8-8.4,7.6-11.6c-1.5-1.7-3.1-3.2-5-4.1l-0.2-0.4l1.4-4c2-1,4.6-1.5,7.2-1.5
			c2.7,0,5.4,0.6,7.6,1.8l0.1,0.4l-1,3.8c-1.5,1.3-3,2.5-4.4,3.6c2.1,0.6,4.6,0.8,7.5,0.8c1.1,0,1.4,0.6,1.4,1.4
			c0,1.7-0.6,3.1-2.4,3.1c-4.9,0-7.5-0.9-9.7-2.5C868,343.8,865.9,346.3,865.9,349z M871.9,335.9c1.3-1.1,2.6-2.1,3.5-3.1
			c-1.2-0.4-2.3-0.5-3.4-0.5c-1.3,0-2.4,0.2-3.5,0.5C869.6,333.5,870.7,334.6,871.9,335.9z"/>
		<path class="st10" d="M903,340c0,1.8-0.8,3.1-2.5,3.1c-1.5,0-2.7-0.4-3.7-1.3c-0.7,1.1-1.7,1.7-3.1,1.7c-1.5,0-4-0.8-6.4-2.5
			c-1.4,1.8-3.3,2-6,2l1-4.5c1.6,0,2.1-0.3,2.9-1.7c2-3.4,3.7-6.6,6.7-6.6c2.7,0,4,2.4,5.5,5.4c1.2,2.3,1.8,2.9,4,2.9
			C902.6,338.5,903,339.1,903,340z M894.8,338.6l-0.1-0.2c-1.1-2.6-2.1-3.9-2.8-3.9c-0.8,0-1.7,1.3-2.6,3.1c1.4,0.9,2.8,1.6,3.9,1.6
			C893.9,339.3,894.4,339,894.8,338.6z"/>
		<path class="st10" d="M928.8,336.7c0,4.3-3.3,6.4-7.8,6.4c-2,0-3.5-0.4-4.8-1c-0.9,0.6-2,1-3.4,1c-2.3,0-4.3-0.8-5.5-1.5
			c-1.4,1.1-3.5,1.5-6.7,1.5l1-4.5c2.3,0,3.3-0.1,4-0.4c0.3-0.6,0.6-2.5,0.9-4l4.9-0.8l0.1,0.1c-0.6,1.8-1.1,3.3-1.6,4.5
			c1,0.3,2.4,0.6,3.6,0.6c0.6,0,1-0.1,1.3-0.3c0.3-0.4,0.7-2.4,1.1-4.1l4.5-0.8l0.1,0.1c-0.5,1.8-1,3.4-1.6,4.7
			c0.9,0.3,1.8,0.4,2.7,0.4c1.3,0,2.5-0.1,3.2-0.5c0.2-1.4-0.9-4-1.8-6l3.9-2.9l0.2,0C928.1,331.8,928.8,334.5,928.8,336.7z"/>
		<path class="st10" d="M750.8,398c0,1.7-0.6,3.1-2.4,3.1c-2.3,0-3.8-0.4-4.8-1.7c-1.7,1.3-4.4,2-7.5,2c-0.9,0-2.9-0.1-4.2-0.4
			l0.6-4.4l0.3-0.1c1.2,0.2,2.8,0.3,3.7,0.3c1.7,0,3.8-0.2,5.2-0.8c-0.8-1.5-2.7-5.3-4.2-8.1l3.2-3.7h0.4c0.9,2.2,3.3,7.8,3.8,9
			c1.3,3,2,3.4,4.4,3.4C750.5,396.5,750.8,397.2,750.8,398z"/>
		<path class="st10" d="M770,398c0,1.8-0.8,3.1-2.5,3.1c-1.5,0-2.7-0.4-3.7-1.3c-0.7,1.1-1.7,1.7-3.1,1.7c-1.5,0-4-0.8-6.4-2.5
			c-1.4,1.8-3.3,2-6,2l1-4.5c1.6,0,2.1-0.3,2.9-1.7c2-3.4,3.7-6.6,6.7-6.6c2.7,0,4,2.4,5.5,5.4c1.2,2.3,1.8,2.9,4,2.9
			C769.6,396.5,770,397.1,770,398z M761.8,396.6l-0.1-0.2c-1.1-2.6-2.1-3.9-2.8-3.9c-0.8,0-1.7,1.3-2.6,3.1c1.4,0.9,2.8,1.6,3.9,1.6
			C761,397.3,761.4,397,761.8,396.6z"/>
		<path class="st10" d="M792.7,398c0,1.7-0.5,3.1-2.4,3.1c-5.8,0-7.9-1.4-9.3-4l-1.3,0.6c-5,2.5-8.2,3.3-12.2,3.3l1-4.5
			c3.6,0,5.7-0.4,9.9-1.9c1.2-0.4,2.1-0.7,2.8-1c-0.4-0.1-0.8-0.3-1.2-0.5c-2.9-1.3-4.5-1.8-6-1.8c-1.6,0-2.9,0.3-4.1,0.7l-0.2-0.1
			l1.6-4c0.8-0.4,2.1-0.8,3.3-0.8c1.2,0,2.7,0.4,5.5,1.7c3.8,1.7,6.1,2.3,8.6,2.3l-0.8,4c-1,0-1.9,0.1-3.1,0.5
			c1.2,0.7,3,0.9,6.5,0.9C792.4,396.5,792.7,397.2,792.7,398z"/>
		<path class="st10" d="M791.3,396.5c1,0,2.2-0.1,2.9-0.5c0.1-0.6,0.3-1.4,0.3-2.7v-16.2l4.2-1.1l0.3,0.2v16.9
			c0,6.3-3.2,7.8-8.6,7.8L791.3,396.5z"/>
		<path class="st10" d="M803.3,401.1v-23.9l4.2-1.1l0.4,0.2l-0.1,24.1l-4.1,0.9L803.3,401.1z"/>
		<path class="st10" d="M850.9,398c0,1.7-0.6,3.1-2.4,3.1c-1.9,0-3.6-0.6-4.7-2c-1.7,1.7-4.6,2.4-9.8,2.4h-2.2
			c-8,0-12.3-2.3-12.3-6.7c0-1.5,0.2-2.9,0.6-4.4l3.2-1.2l0.4,0.2c-0.2,1.1-0.3,2.1-0.3,3c0,3.7,2.9,4.7,9.9,4.7h2
			c2.8,0,5.2-0.5,5.9-0.9c0.1-0.6,0.3-1.4,0.3-2.7v-16.2l4.1-1.1l0.4,0.2v16.1c0,3.1,0.6,4.1,3.5,4.1
			C850.6,396.5,850.9,397.2,850.9,398z M829.4,388.4c0.5,0,1.1,0,1.7,0c-0.5-0.7-0.8-1.5-0.8-2.3c0-1.8,1.2-3.1,3.2-3.1
			c0.8,0,1.7,0.2,2.7,0.6l-0.6,2.3c-0.6-0.2-1.2-0.3-1.6-0.3c-0.8,0-1.3,0.3-1.3,1.1c0,0.6,0.3,1.2,0.8,1.6c1.1-0.1,2.2-0.1,3.1-0.3
			l0.2,2.4c-1.8,0.2-4.2,0.4-7.1,0.5L829.4,388.4z"/>
		<path class="st10" d="M849.4,396.5c1,0,2.2-0.1,2.9-0.5c0.1-0.6,0.3-1.4,0.3-2.7v-16.2l4.2-1.1l0.3,0.2v16.9
			c0,6.3-3.2,7.8-8.6,7.8L849.4,396.5z"/>
		<path class="st10" d="M873.2,397.4c0,4.9-3.8,9.9-11.9,10l-2.2-3.4l0.3-0.4c5-0.1,8.3-1.4,9.6-3.9c-0.9,0.1-1.8,0.2-2.9,0.2
			c-3.3,0-4.9-1.7-4.9-4.3c0-3.3,2.6-7.4,6-7.4C870.9,388.3,873.2,392.5,873.2,397.4z M867,396.1c0.9,0,1.7-0.1,2.5-0.2
			c-0.3-1.8-1.3-3.4-2.7-3.4c-1.3,0-2.2,1.4-2.2,2.5C864.6,395.8,865.3,396.1,867,396.1z"/>
		<path class="st10" d="M885.4,393.7v-16.5l4.1-1.1l0.4,0.2v17.1c0,2.4,1,3.2,3.6,3.2c1,0,1.4,0.5,1.4,1.4c0,1.8-0.7,3.1-2.4,3.1
			C887.7,401,885.4,398.9,885.4,393.7z"/>
		<path class="st10" d="M907,398c0,1.7-0.6,3.1-2.4,3.1s-4.2-0.6-5.6-1.7c-1.4,1.1-3.2,1.7-5.8,1.7h-0.7l1-4.5h0.6
			c1.4,0,2.4-0.1,2.8-0.5c0.4-0.9,0.8-2.7,1.2-5l4.6-1.1l0.4,0.3c-0.5,2.2-1,4.1-1.7,5.7c1,0.4,2.4,0.7,4.1,0.7
			C906.6,396.5,907,397.2,907,398z M901,386.9l-3.9-2.7l2.4-3.5l3.8,2.7L901,386.9z"/>
		<path class="st10" d="M905.5,396.5h0.4c1.3,0,2.9-0.1,3.5-0.3c0.2-1.4-0.9-3.8-2.1-6.2l3.6-2.9h0.4c1.2,2.6,2,5.7,2,7.4
			c0,1.9-0.6,3.5-1.9,4.8c-1.2,1.2-2.8,1.6-6.4,1.6h-0.4L905.5,396.5z M906.7,407.2l2.4-3.5l3.8,2.6l-2.4,3.6L906.7,407.2z"/>
		<path class="st10" d="M917.4,403.9l0.3-0.4c4.5-1.4,7.7-3.5,7.7-4.6c-0.1-1.2-1.3-4-2.6-6.2l3.2-3.6h0.4c1.6,3,2.4,6.4,2.4,8.6
			c0,1.8-0.6,3.5-1.3,4.6c-1.3,1.9-3.9,3.9-7.9,4.9L917.4,403.9z"/>
	</g>
</g>
<path class="st11" d="M1023.2,42.8h-11.1v-6.6c0-1.7-1.1-3-2.6-3.5c1.4-1.1,2.3-2.9,2.3-4.8c0-3.4-2.8-6.2-6.2-6.2
	c-1,0-1.9,0.2-2.8,0.7c0.4-1.1,0.5-2.2,0.5-3.4c0-6.2-5-11.2-11.2-11.2c-6.2,0-11.2,5-11.2,11.2c0,1.2,0.2,2.4,0.5,3.4
	c-0.8-0.4-1.8-0.7-2.8-0.7c-3.4,0-6.2,2.8-6.2,6.2c0,1.9,0.9,3.6,2.3,4.8c-1.5,0.4-2.6,1.8-2.6,3.5v6.6h-10h-10v-6.6
	c0-1.7-1.1-3-2.6-3.5c1.4-1.1,2.3-2.9,2.3-4.8c0-3.4-2.8-6.2-6.2-6.2c-1,0-1.9,0.2-2.8,0.7c0.4-1.1,0.5-2.2,0.5-3.4
	c0-6.2-5-11.2-11.2-11.2c-6.2,0-11.2,5-11.2,11.2c0,1.2,0.2,2.4,0.5,3.4c-0.8-0.4-1.8-0.7-2.8-0.7c-3.4,0-6.2,2.8-6.2,6.2
	c0,1.9,0.9,3.6,2.3,4.8c-1.5,0.4-2.6,1.8-2.6,3.5v6.6h-10h-10v-6.6c0-1.7-1.1-3-2.6-3.5c1.4-1.1,2.3-2.9,2.3-4.8
	c0-3.4-2.8-6.2-6.2-6.2c-1,0-1.9,0.2-2.8,0.7c0.4-1.1,0.5-2.2,0.5-3.4c0-6.2-5-11.2-11.2-11.2c-6.2,0-11.2,5-11.2,11.2
	c0,1.2,0.2,2.4,0.5,3.4c-0.8-0.4-1.8-0.7-2.8-0.7c-3.4,0-6.2,2.8-6.2,6.2c0,1.9,0.9,3.6,2.3,4.8c-1.5,0.4-2.6,1.8-2.6,3.5v6.6h-10
	h-10v-6.6c0-1.7-1.1-3-2.6-3.5c1.4-1.1,2.3-2.9,2.3-4.8c0-3.4-2.8-6.2-6.2-6.2c-1,0-1.9,0.2-2.8,0.7c0.4-1.1,0.5-2.2,0.5-3.4
	c0-6.2-5-11.2-11.2-11.2c-6.2,0-11.2,5-11.2,11.2c0,1.2,0.2,2.4,0.5,3.4c-0.8-0.4-1.8-0.7-2.8-0.7c-3.4,0-6.2,2.8-6.2,6.2
	c0,1.9,0.9,3.6,2.3,4.8c-1.5,0.4-2.6,1.8-2.6,3.5v6.6h-10h-10v-6.6c0-1.7-1.1-3-2.6-3.5c1.4-1.1,2.3-2.9,2.3-4.8
	c0-3.4-2.8-6.2-6.2-6.2c-1,0-1.9,0.2-2.8,0.7c0.4-1.1,0.5-2.2,0.5-3.4c0-6.2-5-11.2-11.2-11.2c-6.2,0-11.2,5-11.2,11.2
	c0,1.2,0.2,2.4,0.5,3.4c-0.8-0.4-1.8-0.7-2.8-0.7c-3.4,0-6.2,2.8-6.2,6.2c0,1.9,0.9,3.6,2.3,4.8c-1.5,0.4-2.6,1.8-2.6,3.5v6.6h-10
	h-10v-6.6c0-1.7-1.1-3-2.6-3.5c1.4-1.1,2.3-2.9,2.3-4.8c0-3.4-2.8-6.2-6.2-6.2c-1,0-1.9,0.2-2.8,0.7c0.4-1.1,0.5-2.2,0.5-3.4
	c0-6.2-5-11.2-11.2-11.2c-6.2,0-11.2,5-11.2,11.2c0,1.2,0.2,2.4,0.5,3.4c-0.8-0.4-1.8-0.7-2.8-0.7c-3.4,0-6.2,2.8-6.2,6.2
	c0,1.9,0.9,3.6,2.3,4.8c-1.5,0.4-2.6,1.8-2.6,3.5v6.6h-10h-10v-6.6c0-1.7-1.1-3-2.6-3.5c1.4-1.1,2.3-2.9,2.3-4.8
	c0-3.4-2.8-6.2-6.2-6.2c-1,0-1.9,0.2-2.8,0.7c0.4-1.1,0.5-2.2,0.5-3.4c0-6.2-5-11.2-11.2-11.2c-6.2,0-11.2,5-11.2,11.2
	c0,1.2,0.2,2.4,0.5,3.4c-0.8-0.4-1.8-0.7-2.8-0.7c-3.4,0-6.2,2.8-6.2,6.2c0,1.9,0.9,3.6,2.3,4.8c-1.5,0.4-2.6,1.8-2.6,3.5v6.6h-10
	h-10v-6.6c0-1.7-1.1-3-2.6-3.5c1.4-1.1,2.3-2.9,2.3-4.8c0-3.4-2.8-6.2-6.2-6.2c-1,0-1.9,0.2-2.8,0.7c0.4-1.1,0.5-2.2,0.5-3.4
	c0-6.2-5-11.2-11.2-11.2c-6.2,0-11.2,5-11.2,11.2c0,1.2,0.2,2.4,0.5,3.4c-0.8-0.4-1.8-0.7-2.8-0.7c-3.4,0-6.2,2.8-6.2,6.2
	c0,1.9,0.9,3.6,2.3,4.8c-1.5,0.4-2.6,1.8-2.6,3.5v6.6h-10h-10v-6.6c0-1.7-1.1-3-2.6-3.5c1.4-1.1,2.3-2.9,2.3-4.8
	c0-3.4-2.8-6.2-6.2-6.2c-1,0-1.9,0.2-2.8,0.7c0.4-1.1,0.5-2.2,0.5-3.4c0-6.2-5-11.2-11.2-11.2c-6.2,0-11.2,5-11.2,11.2
	c0,1.2,0.2,2.4,0.5,3.4c-0.8-0.4-1.8-0.7-2.8-0.7c-3.4,0-6.2,2.8-6.2,6.2c0,1.9,0.9,3.6,2.3,4.8c-1.5,0.4-2.6,1.8-2.6,3.5v6.6h-10
	h-10v-6.6c0-1.7-1.1-3-2.6-3.5c1.4-1.1,2.3-2.9,2.3-4.8c0-3.4-2.8-6.2-6.2-6.2c-1,0-1.9,0.2-2.8,0.7c0.4-1.1,0.5-2.2,0.5-3.4
	c0-6.2-5-11.2-11.2-11.2c-6.2,0-11.2,5-11.2,11.2c0,1.2,0.2,2.4,0.5,3.4c-0.8-0.4-1.8-0.7-2.8-0.7c-3.4,0-6.2,2.8-6.2,6.2
	c0,1.9,0.9,3.6,2.3,4.8c-1.5,0.4-2.6,1.8-2.6,3.5v6.6h-10h-10v-6.6c0-1.7-1.1-3-2.6-3.5c1.4-1.1,2.3-2.9,2.3-4.8
	c0-3.4-2.8-6.2-6.2-6.2c-1,0-1.9,0.2-2.8,0.7c0.4-1.1,0.5-2.2,0.5-3.4c0-6.2-5-11.2-11.2-11.2c-6.2,0-11.2,5-11.2,11.2
	c0,1.2,0.2,2.4,0.5,3.4c-0.8-0.4-1.8-0.7-2.8-0.7c-3.4,0-6.2,2.8-6.2,6.2c0,1.9,0.9,3.6,2.3,4.8c-1.5,0.4-2.6,1.8-2.6,3.5v6.6h-10
	h-10v-6.6c0-1.7-1.1-3-2.6-3.5c1.4-1.1,2.3-2.9,2.3-4.8c0-3.4-2.8-6.2-6.2-6.2c-1,0-1.9,0.2-2.8,0.7c0.4-1.1,0.5-2.2,0.5-3.4
	c0-6.2-5-11.2-11.2-11.2c-6.2,0-11.2,5-11.2,11.2c0,1.2,0.2,2.4,0.5,3.4c-0.8-0.4-1.8-0.7-2.8-0.7c-3.4,0-6.2,2.8-6.2,6.2
	c0,1.9,0.9,3.6,2.3,4.8c-1.5,0.4-2.6,1.8-2.6,3.5v6.6h-10h-10v-6.6c0-1.7-1.1-3-2.6-3.5c1.4-1.1,2.3-2.9,2.3-4.8
	c0-3.4-2.8-6.2-6.2-6.2c-1,0-1.9,0.2-2.8,0.7c0.4-1.1,0.5-2.2,0.5-3.4c0-6.2-5-11.2-11.2-11.2c-6.2,0-11.2,5-11.2,11.2
	c0,1.2,0.2,2.4,0.5,3.4c-0.8-0.4-1.8-0.7-2.8-0.7c-3.4,0-6.2,2.8-6.2,6.2c0,1.9,0.9,3.6,2.3,4.8c-1.5,0.4-2.6,1.8-2.6,3.5v6.6h-10
	h-10v-6.6c0-1.7-1.1-3-2.6-3.5c1.4-1.1,2.3-2.9,2.3-4.8c0-3.4-2.8-6.2-6.2-6.2c-1,0-1.9,0.2-2.8,0.7c0.4-1.1,0.5-2.2,0.5-3.4
	c0-6.2-5-11.2-11.2-11.2c-6.2,0-11.2,5-11.2,11.2c0,1.2,0.2,2.4,0.5,3.4c-0.8-0.4-1.8-0.7-2.8-0.7c-3.4,0-6.2,2.8-6.2,6.2
	c0,1.9,0.9,3.6,2.3,4.8c-1.5,0.4-2.6,1.8-2.6,3.5v6.6h-10h-10v-6.6c0-1.7-1.1-3-2.6-3.5c1.4-1.1,2.3-2.9,2.3-4.8
	c0-3.4-2.8-6.2-6.2-6.2c-1,0-1.9,0.2-2.8,0.7c0.4-1.1,0.5-2.2,0.5-3.4c0-6.2-5-11.2-11.2-11.2c-6.2,0-11.2,5-11.2,11.2
	c0,1.2,0.2,2.4,0.5,3.4c-0.8-0.4-1.8-0.7-2.8-0.7c-3.4,0-6.2,2.8-6.2,6.2c0,1.9,0.9,3.6,2.3,4.8c-1.5,0.4-2.6,1.8-2.6,3.5v6.6h-10
	h-10v-6.6c0-1.7-1.1-3-2.6-3.5c1.4-1.1,2.3-2.9,2.3-4.8c0-3.4-2.8-6.2-6.2-6.2c-1,0-1.9,0.2-2.8,0.7c0.4-1.1,0.5-2.2,0.5-3.4
	c0-6.2-5-11.2-11.2-11.2c-6.2,0-11.2,5-11.2,11.2c0,1.2,0.2,2.4,0.5,3.4c-0.8-0.4-1.8-0.7-2.8-0.7c-3.4,0-6.2,2.8-6.2,6.2
	c0,1.9,0.9,3.6,2.3,4.8c-1.5,0.4-2.6,1.8-2.6,3.5v6.6h-10h-10v-6.6c0-1.7-1.1-3-2.6-3.5c1.4-1.1,2.3-2.9,2.3-4.8
	c0-3.4-2.8-6.2-6.2-6.2c-1,0-1.9,0.2-2.8,0.7c0.4-1.1,0.5-2.2,0.5-3.4c0-6.2-5-11.2-11.2-11.2c-6.2,0-11.2,5-11.2,11.2
	c0,1.2,0.2,2.4,0.5,3.4c-0.8-0.4-1.8-0.7-2.8-0.7c-3.4,0-6.2,2.8-6.2,6.2c0,1.9,0.9,3.6,2.3,4.8c-1.5,0.4-2.6,1.8-2.6,3.5v6.6H-0.8
	V-1h1024V42.8z"/>
<g id="Layer_x0020_1_13_">
	<path class="st12" d="M34.1,718.4l43.9-1.7c0.3,0,0.6,0,1,0c0.7,0.1,1.3,0.4,1.8,0.9c0.5,0.5,0.9,1,0.9,1.7c0,0.2,0,0.5,0,0.8
		l-4.6,20.6c-0.2,0.9-0.6,1.7-1.3,2.2c-0.6,0.5-1.4,0.9-2.4,0.9l-35.3-1.2c-1,0-1.7-0.3-2.4-0.9l0,0c-0.6-0.6-1.1-1.4-1.3-2.2
		l-4.1-17.7c0-0.1,0-0.1,0-0.2c-0.1-0.8,0.3-1.5,0.9-2.1c0.6-0.5,1.4-0.8,2.3-1C33.9,718.4,34,718.4,34.1,718.4z M76.1,719.5
		l-42,1.5c-0.1,0-0.2,0-0.3,0c-0.6,0.1-1.1,0.3-1.5,0.7c-0.3,0.3-0.6,0.7-0.5,1.1c0,0,0,0.1,0,0.1l3.8,16.5c0.1,0.6,0.4,1.2,0.9,1.6
		c0.4,0.3,0.8,0.5,1.4,0.5l34,1.2c0.6,0,1-0.2,1.4-0.5c0.4-0.4,0.7-0.9,0.9-1.6l4.3-19.3c0-0.1,0-0.3,0-0.4c0-0.3-0.2-0.7-0.5-0.9
		c-0.3-0.3-0.7-0.5-1.1-0.5C76.5,719.5,76.3,719.5,76.1,719.5z"/>
	<path class="st12" d="M41.1,723.1l12.9-1.4c0.1,0,0.3,0,0.4,0c0.3,0.1,0.6,0.2,0.8,0.4c0.2,0.2,0.4,0.5,0.4,0.8c0,0.1,0,0.2,0,0.3
		l-2.1,9.6c-0.1,0.4-0.3,0.8-0.6,1c-0.3,0.3-0.6,0.4-1.1,0.4h-8.9c-0.4,0-0.8-0.2-1.1-0.4h0c-0.3-0.3-0.5-0.6-0.6-1l-1.9-8.2
		c0,0,0-0.1,0-0.1c-0.1-0.4,0.1-0.7,0.4-1c0.3-0.2,0.7-0.4,1-0.5C41,723.1,41.1,723.1,41.1,723.1z M53.1,723l-12,1.3
		c0,0-0.1,0-0.1,0c-0.3,0-0.5,0.2-0.7,0.3c-0.2,0.1-0.3,0.3-0.2,0.5c0,0,0,0,0,0l1.8,7.6c0.1,0.3,0.2,0.5,0.4,0.7
		c0.2,0.1,0.4,0.2,0.6,0.2h8.3c0.3,0,0.5-0.1,0.6-0.2c0.2-0.2,0.3-0.4,0.4-0.7l2-8.9c0-0.1,0-0.1,0-0.2c0-0.2-0.1-0.3-0.2-0.4
		c-0.1-0.1-0.3-0.2-0.5-0.2C53.3,723,53.2,723,53.1,723z"/>
	<g id="_1849662416_13_">
		<path class="st13" d="M59.6,735.3l0.4-0.7l-0.7-0.4l0.4-0.7l-1.5-0.8l-0.9,1.5l0,0c0.3,0.1,0.5,0.3,0.7,0.4l-0.4,0.7l0.7,0.4
			l-0.8,1.5l0.7,0.4c-0.2,0.5-0.6,1.1-0.9,1.5l0,0c0.2,0.1,0.4,0.2,0.5,0.3c0.3,0.1,0.2,0.1,0,0.5c-0.2,0.4-0.4,0.8-0.7,1.1l0.7,0.4
			c0,0.2-0.7,1.2-0.8,1.5l5.9,3.4l0.9-1.5l0.8,0.4l1.3-2.2l0.7,0.4l3-5.2c-0.1-0.1-0.7-0.4-0.7-0.5c0-0.2,0.4-0.6,0.4-0.7
			c-0.1-0.1-0.5-0.4-0.7-0.4l-1.3,2.2l-0.7-0.4l1.7-3l-1.5-0.9l-1.3,2.2l-0.7-0.4l1.7-2.9c-0.1-0.1-1.3-0.8-1.5-0.9l-1.7,3l-0.7-0.4
			c0-0.1,0.1-0.1,0.1-0.2c1.2-2.1,2.5-4.3,3.7-6.5l-1.5-0.8l-4.7,8.1C60.1,735.7,59.7,735.3,59.6,735.3L59.6,735.3z"/>
		<path class="st14" d="M57.5,739c-0.1,0.1-0.1,0.2-0.2,0.3l-0.7,1.1c0.1,0.1,0.2,0.1,0.4,0.2c0.1,0.1,0.2,0.1,0.3,0.2
			c-0.4,0.8-0.8,1.5-1.2,2.2c0.6,0.4,1.2,0.7,1.8,1.1l3.7,2.2c0.6,0.4,1.3,0.7,1.9,1.1c0.1-0.2,0.1-0.3,0.3-0.5
			c0.1-0.2,0.4-0.6,0.5-0.9c0.1-0.1,0.1-0.1,0.2-0.3c0.1-0.2,0.2-0.4,0.3-0.6c0.1,0.2,0.5,0.3,0.7,0.4c0.4-0.7,0.8-1.4,1.3-2.2
			c0.2,0.1,0.4,0.2,0.6,0.3c0.1,0.1,0.1,0.1,0.2,0c0.2-0.3,0.3-0.6,0.5-0.9c0.3-0.6,0.7-1.1,1-1.7l1.4-2.5c-0.2-0.1-0.6-0.3-0.7-0.4
			l-3,5.2l-0.7-0.4l-1.3,2.2l-0.8-0.4l-0.9,1.5l-5.9-3.4c0.1-0.3,0.8-1.3,0.8-1.5l-0.7-0.4c0.2-0.4,0.4-0.8,0.7-1.1
			c0.2-0.4,0.2-0.3,0-0.5C57.8,739.2,57.7,739.1,57.5,739z"/>
		<path class="st14" d="M59.7,733.4l-0.4,0.7l0.7,0.4l-0.4,0.7l0.7,0.4l4.7-8.1l-0.7-0.4c0,0,0,0,0,0l0,0c0,0,0,0,0,0l-3.8,6.6
			C60.2,733.6,60,733.5,59.7,733.4z"/>
		<path class="st14" d="M66.6,728.5l-3.9,6.6l0.7,0.4l1.7-3c0.2,0,1.4,0.8,1.5,0.9c0.2,0.2,1.6,0.9,1.9,1.1c0,0,0.1,0-0.1-0.1
			l-1.5-0.8c-0.4-0.2-0.3-0.1,0.1-0.9L66,732c-0.1-0.1-0.2-0.1-0.3-0.2l1.7-2.9c-0.2-0.1-0.3-0.2-0.6-0.4
			C66.6,728.5,66.6,728.5,66.6,728.5z"/>
		<path class="st14" d="M68.4,735.5l0.4-0.7c-0.1-0.1-0.2-0.2-0.4-0.2c-0.3-0.2-1.7-0.9-1.9-1.1l-1.7,2.9l0.7,0.4l1.3-2.2
			L68.4,735.5z"/>
		<path class="st14" d="M57.4,734c-0.1,0.1-0.1,0.1-0.2,0.3c-0.1,0.1-0.1,0.3-0.2,0.4l0.7,0.4c-0.1,0.2-0.7,1.3-0.8,1.5l0.7,0.4
			l-0.6,1.1c-0.1,0.2-0.1,0.2-0.2,0.4l0.7,0.4c0.3-0.4,0.7-1,0.9-1.5l-0.7-0.4l0.8-1.5l-0.7-0.4l0.4-0.7
			C57.9,734.3,57.6,734.1,57.4,734z"/>
		<path class="st14" d="M57.4,734l0.9-1.5l1.5,0.8L60,733c0.1-0.1,0.1-0.2,0.2-0.4l-2-1.1c-0.3-0.2-0.2-0.2-0.5,0.2l-0.9,1.6
			c-0.1,0.2-0.2,0.2,0,0.3C56.9,733.7,57.3,734,57.4,734z"/>
		<path class="st14" d="M69.4,737c0.1,0,0,0,0.1-0.1c0,0,0.1-0.1,0.1-0.1c0-0.2,0.2-0.4,0.3-0.6l-1.5-0.8l-1.7,3l0.7,0.4l1.3-2.2
			C68.9,736.7,69.3,736.9,69.4,737z"/>
		<path class="st14" d="M66.6,728.4c0.1-0.2,0.3-0.5,0.4-0.7l-1.5-0.8l-0.4,0.7L66.6,728.4z"/>
		<path class="st14" d="M69.4,737c0,0.2-0.4,0.6-0.4,0.7c0,0.1,0.6,0.4,0.7,0.5c0.2,0.1,0.5,0.3,0.7,0.4l-1.4,2.5l1.5-2.5l-0.7-0.4
			c0.1-0.1,0.1-0.2,0.2-0.4c0.1-0.1,0.2-0.3,0.2-0.4c-0.8-0.5-0.8-0.3-0.6-0.6c0,0-0.1,0.1-0.1,0.1C69.5,737.1,69.6,737,69.4,737z"
			/>
	</g>
	<path class="st12" d="M94.2,735.3h-2.5l2.1-7.2l-4.3,7.2h-2.6l-0.5-7.3l-1.8,7.3H82l2.9-10.9h3.5L89,732l4.6-7.7h3.5L94.2,735.3z
		 M103.6,735.3H98c-0.8,0-1.3-0.2-1.7-0.6c-0.4-0.4-0.4-1-0.2-1.8c0.3-0.9,0.7-1.6,1.3-2c0.6-0.4,1.5-0.6,2.6-0.6h2.5
		c0.1-0.4,0.1-0.7-0.1-0.8c-0.2-0.2-0.6-0.2-1.3-0.2h-3.6l0.5-2h4.3c1.1,0,1.9,0.3,2.3,0.8c0.4,0.5,0.5,1.3,0.2,2.3L103.6,735.3z
		 M101.7,733.3l0.3-1.2h-2.2c-0.4,0-0.7,0-0.9,0.1c-0.2,0.1-0.3,0.3-0.3,0.5c-0.1,0.2-0.1,0.3,0,0.4c0,0,0.1,0.1,0.2,0.1
		c0.1,0,0.3,0,0.5,0H101.7z M112.4,735.3H110l1.3-4.9c0.1-0.5,0.2-0.8,0-1c-0.1-0.1-0.4-0.2-0.9-0.2H109l-1.6,6.1H105l2.2-8.1h4
		c1.2,0,2,0.2,2.4,0.7c0.4,0.5,0.5,1.2,0.2,2.3L112.4,735.3z M121.2,735.3h-2.4l1.3-4.9c0.1-0.5,0.1-0.8,0-0.9
		c-0.1-0.1-0.2-0.1-0.3-0.2c-0.1,0-0.3-0.1-0.6-0.1l-1.4,0l-1.6,6.1h-2.4l2.9-10.9h2.4l-0.8,2.8h1.6c1.2,0,2,0.2,2.4,0.7
		c0.4,0.5,0.5,1.2,0.2,2.3L121.2,735.3z M130.4,735.3h-5.6c-0.8,0-1.3-0.2-1.7-0.6c-0.4-0.4-0.4-1-0.2-1.8c0.3-0.9,0.7-1.6,1.3-2
		c0.6-0.4,1.5-0.6,2.6-0.6h2.5c0.1-0.4,0.1-0.7-0.1-0.8c-0.2-0.2-0.6-0.2-1.3-0.2h-3.6l0.5-2h4.3c1.1,0,1.9,0.3,2.3,0.8
		c0.4,0.5,0.5,1.3,0.2,2.3L130.4,735.3z M128.4,733.3l0.3-1.2h-2.2c-0.4,0-0.7,0-0.9,0.1c-0.2,0.1-0.3,0.3-0.3,0.5
		c-0.1,0.2,0,0.3,0,0.4c0,0,0.1,0.1,0.2,0.1c0.1,0,0.3,0,0.5,0H128.4z M134.3,735.3h-2.5l2.9-10.9h2.5L134.3,735.3z M139.9,735.3
		h-2.1l0.6-2.2h2.1L139.9,735.3z M147.7,735.3h-2.9c-0.4,0-0.7,0-1-0.1c-0.3,0-0.5-0.1-0.8-0.2c-0.4-0.1-0.8-0.4-1-0.8
		c-0.1-0.2-0.2-0.4-0.3-0.6c-0.1-0.2-0.2-0.5-0.2-0.7c0-0.3,0-0.5,0-0.8c0-0.3,0.1-0.6,0.2-0.9c0.2-0.6,0.4-1.2,0.8-1.7
		c0.3-0.5,0.7-1,1.3-1.4c0.4-0.3,0.9-0.6,1.4-0.7c0.5-0.2,1.1-0.2,1.9-0.2h2.9l-0.5,2H147c-0.5,0-0.9,0-1.2,0.1
		c-0.3,0.1-0.6,0.2-0.8,0.4c-0.4,0.3-0.7,0.8-0.9,1.6c-0.1,0.4-0.1,0.8-0.1,1.1c0.1,0.3,0.1,0.6,0.4,0.7l0.4,0.2c0.1,0,0.3,0,0.4,0
		c0.1,0,0.4,0,0.6,0h2.3L147.7,735.3z M157.7,731.2c-0.3,1.3-1,2.3-2,3.1c-1,0.8-2.1,1.1-3.4,1.1c-1.3,0-2.2-0.4-2.8-1.1
		c-0.6-0.8-0.7-1.8-0.3-3.1c0.3-1.3,1-2.3,2-3c1-0.8,2.1-1.1,3.4-1.1c1.3,0,2.2,0.4,2.8,1.1C158,728.9,158.1,729.9,157.7,731.2z
		 M155.2,731.2c0.2-0.7,0.1-1.2-0.1-1.6c-0.2-0.4-0.6-0.6-1.1-0.6c-0.5,0-1,0.2-1.4,0.6c-0.4,0.4-0.7,0.9-0.9,1.6
		c-0.1,0.4-0.1,0.7-0.1,0.9c0,0.3,0.1,0.5,0.2,0.7c0.2,0.4,0.6,0.6,1.1,0.6c0.6,0,1-0.2,1.4-0.6
		C154.7,732.4,155.1,731.9,155.2,731.2z M168.9,735.3h-2.4l1.3-4.9c0.1-0.5,0.2-0.8,0.1-1c-0.1-0.2-0.4-0.2-0.9-0.2l-0.9,0l-1.6,6.1
		h-2.4l1.6-6.1h-2l-1.6,6.1h-2.4l2.2-8.1h8c1.2,0,2,0.2,2.4,0.7c0.4,0.5,0.5,1.2,0.2,2.3L168.9,735.3z"/>
	<path class="st12" d="M27.1,727.2l21.2-2.2c0.2,0,0.5,0,0.7,0c0.5,0.1,1,0.3,1.4,0.7c0.4,0.3,0.6,0.8,0.7,1.3c0,0.2,0,0.4,0,0.6
		l-3.7,9.6c-0.1,0.7-0.5,1.3-1,1.7c-0.5,0.4-1.1,0.7-1.8,0.7H30.1c-0.7,0-1.3-0.3-1.8-0.7h0c-0.5-0.4-0.8-1.1-1-1.7l-2.9-7.4
		c0-0.1,0-0.1,0-0.2c-0.1-0.6,0.2-1.2,0.7-1.6c0.5-0.4,1.1-0.6,1.7-0.8C26.9,727.2,27,727.2,27.1,727.2z M46.9,727.1l-19.8,2.1
		c-0.1,0-0.2,0-0.2,0c-0.4,0.1-0.9,0.3-1.2,0.5c-0.3,0.2-0.4,0.5-0.4,0.8c0,0,0,0.1,0,0.1l2.7,6.5c0.1,0.5,0.3,0.9,0.7,1.2
		c0.3,0.2,0.6,0.4,1,0.4h13.6c0.4,0,0.8-0.1,1-0.4c0.3-0.3,0.5-0.7,0.7-1.2l3.4-8.6c0-0.1,0-0.2,0-0.3c0-0.3-0.2-0.5-0.4-0.7
		c-0.2-0.2-0.5-0.4-0.8-0.4C47.1,727.1,47,727,46.9,727.1z"/>
	<path class="st12" d="M86.8,720.9l-0.5,1.7h-0.6l1.2-4.5h1.3c0.3,0,0.5,0,0.7,0.1c0.2,0.1,0.3,0.2,0.4,0.3c0.1,0.1,0.2,0.3,0.2,0.4
		c0,0.2,0,0.4-0.1,0.6c-0.1,0.2-0.1,0.4-0.3,0.6c-0.1,0.2-0.3,0.3-0.4,0.4c-0.2,0.1-0.4,0.2-0.6,0.3c-0.2,0.1-0.5,0.1-0.7,0.1H86.8z
		 M86.9,720.4h0.7c0.2,0,0.3,0,0.5-0.1c0.1,0,0.3-0.1,0.4-0.2c0.1-0.1,0.2-0.2,0.3-0.3c0.1-0.1,0.1-0.2,0.2-0.4
		c0.1-0.3,0.1-0.5-0.1-0.7c-0.1-0.2-0.4-0.2-0.7-0.2h-0.7L86.9,720.4z"/>
	<path id="_x31__13_" class="st12" d="M91.5,719.3c0.2,0,0.4,0,0.6,0.1c0.2,0.1,0.3,0.2,0.4,0.3c0.1,0.1,0.1,0.3,0.2,0.5
		c0,0.2,0,0.4-0.1,0.7c-0.1,0.3-0.2,0.5-0.3,0.7c-0.1,0.2-0.3,0.4-0.4,0.5c-0.2,0.1-0.4,0.3-0.6,0.3c-0.2,0.1-0.4,0.1-0.7,0.1
		c-0.2,0-0.4,0-0.6-0.1c-0.2-0.1-0.3-0.2-0.4-0.3c-0.1-0.1-0.1-0.3-0.2-0.5c0-0.2,0-0.4,0.1-0.7c0.1-0.3,0.2-0.5,0.3-0.7
		c0.1-0.2,0.3-0.4,0.4-0.5c0.2-0.1,0.4-0.3,0.6-0.3C91,719.4,91.3,719.3,91.5,719.3z M90.7,722.2c0.3,0,0.6-0.1,0.8-0.3
		c0.2-0.2,0.4-0.5,0.5-0.9c0.1-0.4,0.1-0.7,0-0.9c-0.1-0.2-0.3-0.3-0.6-0.3c-0.2,0-0.3,0-0.4,0.1c-0.1,0.1-0.3,0.1-0.4,0.2
		c-0.1,0.1-0.2,0.2-0.3,0.4c-0.1,0.1-0.1,0.3-0.2,0.5c0,0.2-0.1,0.4-0.1,0.5c0,0.1,0,0.3,0.1,0.4c0.1,0.1,0.1,0.2,0.2,0.2
		C90.4,722.1,90.6,722.2,90.7,722.2z"/>
	<path id="_x32__13_" class="st12" d="M93.3,719.4h0.4c0,0,0.1,0,0.1,0c0,0,0,0,0,0.1l0.1,2c0,0.1,0,0.1,0,0.2c0,0.1,0,0.1,0,0.2
		c0-0.1,0.1-0.1,0.1-0.2c0-0.1,0.1-0.1,0.1-0.2l1.2-2.1c0,0,0-0.1,0.1-0.1c0,0,0.1,0,0.1,0h0.2c0,0,0.1,0,0.1,0c0,0,0,0,0,0.1
		l0.1,2.1c0,0.1,0,0.1,0,0.2c0,0.1,0,0.1,0,0.2c0-0.1,0.1-0.1,0.1-0.2c0-0.1,0.1-0.1,0.1-0.2l1.2-2c0,0,0-0.1,0.1-0.1
		c0,0,0.1,0,0.1,0H98l-1.9,3.2h-0.4c-0.1,0-0.1,0-0.1-0.1l-0.1-2.2c0,0,0-0.1,0-0.1c0-0.1,0-0.1,0-0.1c0,0,0,0.1-0.1,0.1
		c0,0,0,0.1-0.1,0.1l-1.3,2.2c0,0.1-0.1,0.1-0.2,0.1h-0.4L93.3,719.4z"/>
	<path id="_x33__13_" class="st12" d="M99.8,719.3c0.2,0,0.4,0,0.5,0.1c0.1,0.1,0.3,0.2,0.3,0.3c0.1,0.1,0.1,0.3,0.2,0.4
		c0,0.2,0,0.4-0.1,0.6c0,0.1,0,0.1-0.1,0.2c0,0-0.1,0-0.1,0h-2.1c-0.1,0.2-0.1,0.4-0.1,0.5c0,0.1,0,0.3,0.1,0.4
		c0.1,0.1,0.1,0.2,0.3,0.2c0.1,0,0.2,0.1,0.4,0.1c0.1,0,0.3,0,0.4,0c0.1,0,0.2-0.1,0.3-0.1c0.1,0,0.2-0.1,0.2-0.1
		c0.1,0,0.1-0.1,0.1-0.1c0,0,0.1,0,0.1,0.1l0.1,0.2c-0.1,0.1-0.2,0.2-0.3,0.2c-0.1,0.1-0.2,0.1-0.3,0.2c-0.1,0-0.2,0.1-0.4,0.1
		c-0.1,0-0.2,0-0.4,0c-0.2,0-0.4,0-0.6-0.1c-0.2-0.1-0.3-0.2-0.4-0.3c-0.1-0.1-0.2-0.3-0.2-0.5c0-0.2,0-0.5,0.1-0.7
		c0.1-0.2,0.1-0.4,0.3-0.6c0.1-0.2,0.3-0.4,0.4-0.5c0.2-0.1,0.4-0.3,0.6-0.3C99.3,719.4,99.5,719.3,99.8,719.3z M99.7,719.7
		c-0.3,0-0.5,0.1-0.7,0.2c-0.2,0.2-0.4,0.4-0.5,0.6h1.7c0-0.1,0.1-0.3,0-0.4c0-0.1,0-0.2-0.1-0.3c0-0.1-0.1-0.1-0.2-0.2
		C99.9,719.8,99.8,719.7,99.7,719.7z"/>
	<path id="_x34__13_" class="st12" d="M100.9,722.6l0.9-3.2h0.3c0.1,0,0.1,0,0.1,0c0,0,0,0.1,0,0.1l-0.1,0.5
		c0.2-0.2,0.4-0.4,0.5-0.5c0.2-0.1,0.4-0.2,0.6-0.2c0.1,0,0.2,0,0.2,0c0.1,0,0.1,0,0.2,0.1l-0.2,0.4c0,0.1-0.1,0.1-0.1,0.1
		c0,0-0.1,0-0.1,0c-0.1,0-0.1,0-0.2,0c-0.2,0-0.4,0.1-0.5,0.2c-0.2,0.1-0.3,0.3-0.5,0.5l-0.5,2H100.9z"/>
	<path id="_x35__13_" class="st12" d="M105.6,719.3c0.2,0,0.4,0,0.5,0.1c0.1,0.1,0.3,0.2,0.3,0.3c0.1,0.1,0.1,0.3,0.2,0.4
		c0,0.2,0,0.4-0.1,0.6c0,0.1,0,0.1-0.1,0.2c0,0-0.1,0-0.1,0h-2.1c-0.1,0.2-0.1,0.4-0.1,0.5c0,0.1,0,0.3,0.1,0.4
		c0.1,0.1,0.1,0.2,0.3,0.2c0.1,0,0.2,0.1,0.4,0.1c0.1,0,0.3,0,0.4,0c0.1,0,0.2-0.1,0.3-0.1c0.1,0,0.2-0.1,0.2-0.1
		c0.1,0,0.1-0.1,0.1-0.1c0,0,0.1,0,0.1,0.1l0.1,0.2c-0.1,0.1-0.2,0.2-0.3,0.2c-0.1,0.1-0.2,0.1-0.3,0.2c-0.1,0-0.2,0.1-0.4,0.1
		c-0.1,0-0.2,0-0.4,0c-0.2,0-0.4,0-0.6-0.1c-0.2-0.1-0.3-0.2-0.4-0.3c-0.1-0.1-0.2-0.3-0.2-0.5c0-0.2,0-0.5,0.1-0.7
		c0.1-0.2,0.2-0.4,0.3-0.6c0.1-0.2,0.3-0.4,0.4-0.5c0.2-0.1,0.4-0.3,0.6-0.3C105.1,719.4,105.3,719.3,105.6,719.3z M105.5,719.7
		c-0.3,0-0.5,0.1-0.7,0.2c-0.2,0.2-0.4,0.4-0.5,0.6h1.7c0-0.1,0-0.3,0-0.4c0-0.1,0-0.2-0.1-0.3c0-0.1-0.1-0.1-0.2-0.2
		C105.7,719.8,105.6,719.7,105.5,719.7z"/>
	<path id="_x36__13_" class="st12" d="M109,722.6c-0.1,0-0.1,0-0.1-0.1l0.1-0.4c-0.2,0.2-0.4,0.3-0.6,0.4c-0.2,0.1-0.4,0.1-0.6,0.1
		c-0.2,0-0.3,0-0.5-0.1c-0.1-0.1-0.2-0.2-0.3-0.3c-0.1-0.1-0.1-0.3-0.1-0.5c0-0.2,0-0.4,0.1-0.7c0.1-0.2,0.2-0.5,0.3-0.7
		c0.1-0.2,0.3-0.4,0.4-0.5c0.2-0.2,0.3-0.3,0.5-0.4c0.2-0.1,0.4-0.1,0.6-0.1c0.2,0,0.4,0,0.5,0.1c0.1,0.1,0.2,0.2,0.3,0.3l0.5-1.8
		h0.6l-1.2,4.6H109z M108,722.2c0.2,0,0.4,0,0.5-0.1c0.2-0.1,0.3-0.2,0.5-0.4l0.4-1.5c-0.1-0.1-0.2-0.2-0.3-0.3
		c-0.1-0.1-0.2-0.1-0.4-0.1c-0.3,0-0.6,0.1-0.8,0.3c-0.2,0.2-0.4,0.5-0.5,0.9c-0.1,0.2-0.1,0.4-0.1,0.5c0,0.1,0,0.3,0.1,0.4
		c0,0.1,0.1,0.2,0.2,0.2C107.8,722.1,107.9,722.2,108,722.2z"/>
	<path id="_x37__13_" class="st12" d="M111.5,722.6l1.2-4.6h0.6l-0.5,1.9c0.2-0.2,0.4-0.3,0.6-0.4c0.2-0.1,0.4-0.1,0.6-0.1
		c0.2,0,0.3,0,0.5,0.1c0.1,0.1,0.2,0.2,0.3,0.3c0.1,0.1,0.1,0.3,0.1,0.5c0,0.2,0,0.4-0.1,0.7c-0.1,0.2-0.2,0.5-0.3,0.7
		c-0.1,0.2-0.3,0.4-0.4,0.5c-0.2,0.1-0.3,0.3-0.5,0.3c-0.2,0.1-0.4,0.1-0.6,0.1c-0.2,0-0.4,0-0.5-0.1c-0.1-0.1-0.2-0.2-0.3-0.3
		l-0.1,0.3c0,0.1-0.1,0.1-0.2,0.1H111.5z M113.6,719.8c-0.2,0-0.4,0-0.5,0.1c-0.2,0.1-0.3,0.2-0.5,0.4l-0.4,1.5
		c0.1,0.1,0.1,0.2,0.3,0.3c0.1,0.1,0.2,0.1,0.4,0.1c0.3,0,0.6-0.1,0.8-0.3c0.2-0.2,0.4-0.5,0.5-0.9c0.1-0.2,0.1-0.4,0.1-0.5
		c0-0.1,0-0.3-0.1-0.4c0-0.1-0.1-0.2-0.2-0.2C113.9,719.8,113.8,719.8,113.6,719.8z"/>
	<path id="_x38__13_" class="st12" d="M115.6,723.5c0,0-0.1,0.1-0.1,0.1c0,0-0.1,0-0.1,0h-0.4l0.9-1.2l-0.5-3h0.5c0,0,0.1,0,0.1,0
		c0,0,0,0,0,0.1l0.3,2c0,0,0,0.1,0,0.1c0,0,0,0.1,0,0.1c0,0,0.1-0.1,0.1-0.1c0,0,0.1-0.1,0.1-0.1l1.4-2c0,0,0.1-0.1,0.1-0.1
		c0,0,0.1,0,0.1,0h0.4L115.6,723.5z"/>
	<path id="_x39__13_" class="st12" d="M118.1,722.2c0-0.1,0-0.1,0.1-0.2c0-0.1,0.1-0.1,0.1-0.1c0,0,0.1-0.1,0.1-0.1
		c0.1,0,0.1,0,0.2,0c0.1,0,0.1,0,0.1,0c0,0,0.1,0,0.1,0.1c0,0,0,0.1,0.1,0.1c0,0,0,0.1,0,0.2c0,0.1,0,0.1-0.1,0.2
		c0,0-0.1,0.1-0.1,0.1c0,0-0.1,0.1-0.1,0.1c-0.1,0-0.1,0-0.2,0c-0.1,0-0.1,0-0.1,0c0,0-0.1,0-0.1-0.1c0,0,0-0.1,0-0.1
		C118.1,722.3,118.1,722.3,118.1,722.2z M118.8,719.9c0-0.1,0-0.1,0.1-0.2c0,0,0.1-0.1,0.1-0.1c0,0,0.1-0.1,0.1-0.1
		c0.1,0,0.1,0,0.2,0c0.1,0,0.1,0,0.1,0c0,0,0.1,0,0.1,0.1c0,0,0,0.1,0.1,0.1c0,0,0,0.1,0,0.2c0,0.1,0,0.1-0.1,0.2
		c0,0-0.1,0.1-0.1,0.1c0,0-0.1,0.1-0.1,0.1c-0.1,0-0.1,0-0.2,0c-0.1,0-0.1,0-0.1,0c0,0-0.1,0-0.1-0.1c0,0,0-0.1,0-0.1
		C118.7,720,118.7,719.9,118.8,719.9z"/>
	<path class="st12" d="M125.2,737.6l-0.1,0.5h-2.3l-0.4,1.6h1.8l-0.1,0.5h-1.8l-0.4,1.6h2.3l-0.1,0.5H121l1.3-4.8H125.2z
		 M125.2,740.2h1.6l-0.1,0.5h-1.6L125.2,740.2z M128,741.9h2.1l-0.1,0.5h-2.7l1.3-4.8h0.6L128,741.9z M132.6,739
		c0.2,0,0.4,0,0.5,0.1c0.2,0.1,0.3,0.2,0.4,0.3c0.1,0.1,0.1,0.3,0.2,0.5c0,0.2,0,0.4-0.1,0.6c0,0.1-0.1,0.2-0.1,0.2c0,0-0.1,0-0.1,0
		h-2.2c-0.1,0.2-0.1,0.4-0.1,0.6c0,0.2,0,0.3,0.1,0.4c0.1,0.1,0.2,0.2,0.3,0.2c0.1,0.1,0.3,0.1,0.4,0.1c0.1,0,0.3,0,0.4-0.1
		c0.1,0,0.2-0.1,0.3-0.1c0.1,0,0.2-0.1,0.2-0.1c0.1,0,0.1-0.1,0.1-0.1c0,0,0.1,0,0.1,0.1l0.1,0.2c-0.1,0.1-0.2,0.2-0.3,0.2
		c-0.1,0.1-0.2,0.1-0.4,0.2c-0.1,0-0.3,0.1-0.4,0.1c-0.1,0-0.3,0-0.4,0c-0.2,0-0.4,0-0.6-0.1c-0.2-0.1-0.3-0.2-0.4-0.3
		c-0.1-0.2-0.2-0.3-0.2-0.6c0-0.2,0-0.5,0.1-0.8c0.1-0.2,0.2-0.5,0.3-0.7c0.1-0.2,0.3-0.4,0.5-0.5c0.2-0.1,0.4-0.3,0.6-0.4
		C132.2,739,132.4,739,132.6,739z M132.5,739.4c-0.3,0-0.5,0.1-0.7,0.2c-0.2,0.2-0.4,0.4-0.5,0.7h1.8c0-0.1,0.1-0.3,0-0.4
		c0-0.1,0-0.2-0.1-0.3c-0.1-0.1-0.1-0.1-0.2-0.2C132.8,739.4,132.7,739.4,132.5,739.4z M136.3,742.4h-0.3c-0.1,0-0.1,0-0.1,0
		c0,0,0-0.1,0-0.1l0-0.3c-0.1,0.1-0.2,0.2-0.3,0.2c-0.1,0.1-0.2,0.1-0.3,0.2c-0.1,0-0.2,0.1-0.3,0.1c-0.1,0-0.2,0-0.4,0
		c-0.1,0-0.2,0-0.4-0.1c-0.1,0-0.2-0.1-0.3-0.2c-0.1-0.1-0.1-0.2-0.1-0.3c0-0.1,0-0.2,0-0.4c0-0.1,0.1-0.3,0.2-0.4
		c0.1-0.1,0.3-0.2,0.4-0.3c0.2-0.1,0.4-0.2,0.7-0.2c0.3-0.1,0.6-0.1,1-0.1l0.1-0.3c0.1-0.3,0.1-0.5,0-0.6c-0.1-0.1-0.2-0.2-0.4-0.2
		c-0.1,0-0.3,0-0.4,0.1c-0.1,0-0.2,0.1-0.3,0.1c-0.1,0-0.2,0.1-0.2,0.1c-0.1,0-0.1,0.1-0.2,0.1c0,0-0.1,0-0.1,0c0,0,0,0-0.1-0.1
		l-0.1-0.2c0.2-0.2,0.5-0.3,0.7-0.4c0.2-0.1,0.5-0.1,0.8-0.1c0.2,0,0.3,0,0.5,0.1c0.1,0.1,0.2,0.1,0.3,0.3c0.1,0.1,0.1,0.2,0.1,0.4
		c0,0.2,0,0.3-0.1,0.5L136.3,742.4z M134.9,742c0.1,0,0.2,0,0.3,0c0.1,0,0.2-0.1,0.3-0.1c0.1,0,0.2-0.1,0.3-0.1
		c0.1-0.1,0.2-0.1,0.3-0.2l0.2-0.7c-0.3,0-0.5,0-0.7,0.1c-0.2,0-0.4,0.1-0.5,0.1c-0.1,0.1-0.2,0.1-0.3,0.2c-0.1,0.1-0.1,0.2-0.1,0.3
		c0,0.1,0,0.2,0,0.2c0,0.1,0,0.1,0.1,0.2c0,0,0.1,0.1,0.1,0.1C134.7,742,134.8,742,134.9,742z M137.2,742.4l0.9-3.4h0.3
		c0.1,0,0.1,0,0.1,0c0,0,0,0.1,0,0.1l-0.1,0.6c0.2-0.2,0.4-0.4,0.6-0.6c0.2-0.1,0.4-0.2,0.6-0.2c0.1,0,0.2,0,0.2,0
		c0.1,0,0.1,0.1,0.2,0.1l-0.2,0.4c0,0.1-0.1,0.1-0.1,0.1c0,0-0.1,0-0.1,0c-0.1,0-0.1,0-0.3,0c-0.2,0-0.4,0.1-0.6,0.2
		c-0.2,0.1-0.3,0.3-0.5,0.5l-0.6,2.1H137.2z M139.9,742.4l0.9-3.4h0.4c0.1,0,0.1,0,0.1,0.1l-0.1,0.4c0.2-0.2,0.4-0.3,0.6-0.4
		c0.2-0.1,0.4-0.2,0.7-0.2c0.2,0,0.3,0,0.5,0.1c0.1,0.1,0.2,0.1,0.3,0.3c0.1,0.1,0.1,0.2,0.1,0.4c0,0.2,0,0.3-0.1,0.5l-0.6,2.1h-0.6
		l0.6-2.1c0.1-0.3,0.1-0.5,0-0.6c-0.1-0.1-0.2-0.2-0.5-0.2c-0.2,0-0.3,0-0.5,0.1c-0.2,0.1-0.3,0.2-0.5,0.3l-0.7,2.5H139.9z
		 M145.1,739l-0.9,3.4h-0.6l0.9-3.4H145.1z M145.6,738c0,0.1,0,0.1-0.1,0.2c0,0-0.1,0.1-0.1,0.1c0,0-0.1,0.1-0.2,0.1
		c-0.1,0-0.1,0-0.2,0c-0.1,0-0.1,0-0.2,0c0,0-0.1-0.1-0.1-0.1c0,0,0-0.1-0.1-0.1c0,0,0-0.1,0-0.2c0-0.1,0-0.1,0.1-0.2
		c0-0.1,0.1-0.1,0.1-0.1c0,0,0.1-0.1,0.2-0.1c0.1,0,0.1,0,0.2,0c0.1,0,0.1,0,0.2,0c0,0,0.1,0.1,0.1,0.1c0,0,0,0.1,0.1,0.1
		C145.6,737.9,145.6,737.9,145.6,738z M145.3,742.4l0.9-3.4h0.4c0.1,0,0.1,0,0.1,0.1l-0.1,0.4c0.2-0.2,0.4-0.3,0.6-0.4
		c0.2-0.1,0.4-0.2,0.7-0.2c0.2,0,0.3,0,0.5,0.1c0.1,0.1,0.2,0.1,0.3,0.3c0.1,0.1,0.1,0.2,0.1,0.4c0,0.2,0,0.3-0.1,0.5l-0.6,2.1h-0.6
		l0.6-2.1c0.1-0.3,0.1-0.5,0-0.6c-0.1-0.1-0.2-0.2-0.5-0.2c-0.2,0-0.3,0-0.5,0.1c-0.2,0.1-0.3,0.2-0.5,0.3l-0.7,2.5H145.3z M151,739
		c0.1,0,0.3,0,0.4,0c0.1,0,0.2,0.1,0.3,0.1h0.9l-0.1,0.2c0,0.1-0.1,0.1-0.2,0.1l-0.4,0.1c0,0.1,0,0.3,0,0.5c0,0.2-0.1,0.3-0.2,0.4
		c-0.1,0.1-0.2,0.2-0.4,0.3c-0.1,0.1-0.3,0.2-0.5,0.2c-0.2,0-0.3,0.1-0.5,0.1c-0.2,0-0.3,0-0.4-0.1c-0.1,0-0.1,0.1-0.2,0.1
		c-0.1,0.1-0.1,0.1-0.1,0.2c0,0.1,0,0.1,0,0.2c0.1,0,0.1,0.1,0.2,0.1c0.1,0,0.2,0,0.4,0c0.1,0,0.3,0,0.4,0c0.1,0,0.3,0,0.4,0
		c0.1,0,0.2,0.1,0.3,0.1c0.1,0.1,0.2,0.1,0.2,0.2c0,0.1,0,0.2,0,0.4c0,0.1-0.1,0.3-0.2,0.4c-0.1,0.1-0.2,0.3-0.4,0.4
		c-0.2,0.1-0.3,0.2-0.6,0.3c-0.2,0.1-0.4,0.1-0.7,0.1c-0.2,0-0.5,0-0.6-0.1c-0.2,0-0.3-0.1-0.4-0.2c-0.1-0.1-0.2-0.2-0.2-0.3
		c0-0.1,0-0.2,0-0.3c0-0.2,0.1-0.3,0.3-0.4c0.1-0.1,0.3-0.2,0.5-0.3c-0.1,0-0.1-0.1-0.2-0.2c0-0.1,0-0.2,0-0.3c0,0,0-0.1,0.1-0.2
		c0-0.1,0.1-0.1,0.1-0.2c0-0.1,0.1-0.1,0.2-0.1c0.1,0,0.1-0.1,0.2-0.1c-0.1-0.1-0.2-0.2-0.3-0.4c-0.1-0.2-0.1-0.3,0-0.5
		c0-0.2,0.1-0.3,0.2-0.4c0.1-0.1,0.2-0.3,0.4-0.3c0.1-0.1,0.3-0.2,0.5-0.2C150.7,739,150.8,739,151,739z M151.1,742.6
		c0-0.1,0-0.2,0-0.2c0-0.1-0.1-0.1-0.2-0.1c-0.1,0-0.2,0-0.3-0.1c-0.1,0-0.2,0-0.3,0c-0.1,0-0.2,0-0.4,0c-0.1,0-0.2,0-0.3,0
		c-0.1,0.1-0.3,0.1-0.4,0.2c-0.1,0.1-0.2,0.2-0.2,0.3c0,0.1,0,0.1,0,0.2c0,0.1,0.1,0.1,0.1,0.2c0.1,0,0.2,0.1,0.3,0.1
		c0.1,0,0.3,0,0.4,0c0.2,0,0.3,0,0.4,0c0.1,0,0.3-0.1,0.4-0.1c0.1-0.1,0.2-0.1,0.3-0.2C151,742.7,151.1,742.7,151.1,742.6z
		 M150.6,740.8c0.1,0,0.2,0,0.3,0c0.1,0,0.2-0.1,0.3-0.1c0.1-0.1,0.1-0.1,0.2-0.2c0.1-0.1,0.1-0.2,0.1-0.3c0.1-0.2,0-0.4-0.1-0.5
		c-0.1-0.1-0.3-0.2-0.5-0.2s-0.4,0.1-0.6,0.2c-0.2,0.1-0.3,0.3-0.3,0.5c0,0.1,0,0.2,0,0.3c0,0.1,0,0.2,0.1,0.2
		c0,0.1,0.1,0.1,0.2,0.1C150.3,740.7,150.4,740.8,150.6,740.8z M158.3,737.6l-0.1,0.5h-1.5l-1.1,4.2h-0.6l1.1-4.2h-1.5l0.1-0.5
		H158.3z M159.1,739c0.2,0,0.4,0,0.5,0.1c0.2,0.1,0.3,0.2,0.4,0.3c0.1,0.1,0.1,0.3,0.2,0.5c0,0.2,0,0.4-0.1,0.6c0,0.1,0,0.2-0.1,0.2
		c0,0-0.1,0-0.1,0h-2.2c-0.1,0.2-0.1,0.4-0.1,0.6c0,0.2,0,0.3,0.1,0.4c0.1,0.1,0.2,0.2,0.3,0.2c0.1,0.1,0.2,0.1,0.4,0.1
		c0.1,0,0.3,0,0.4-0.1c0.1,0,0.2-0.1,0.3-0.1c0.1,0,0.2-0.1,0.2-0.1c0.1,0,0.1-0.1,0.1-0.1c0,0,0.1,0,0.1,0.1l0.1,0.2
		c-0.1,0.1-0.2,0.2-0.3,0.2c-0.1,0.1-0.2,0.1-0.4,0.2c-0.1,0-0.3,0.1-0.4,0.1c-0.1,0-0.3,0-0.4,0c-0.2,0-0.4,0-0.6-0.1
		c-0.2-0.1-0.3-0.2-0.4-0.3c-0.1-0.2-0.2-0.3-0.2-0.6c0-0.2,0-0.5,0.1-0.8c0.1-0.2,0.2-0.5,0.3-0.7c0.1-0.2,0.3-0.4,0.5-0.5
		c0.2-0.1,0.4-0.3,0.6-0.4C158.7,739,158.9,739,159.1,739z M159,739.4c-0.3,0-0.5,0.1-0.7,0.2c-0.2,0.2-0.4,0.4-0.5,0.7h1.8
		c0-0.1,0-0.3,0-0.4c0-0.1,0-0.2-0.1-0.3c-0.1-0.1-0.1-0.1-0.2-0.2C159.3,739.4,159.2,739.4,159,739.4z M162.8,742.4h-0.3
		c-0.1,0-0.1,0-0.1,0c0,0,0-0.1,0-0.1l0-0.3c-0.1,0.1-0.2,0.2-0.3,0.2c-0.1,0.1-0.2,0.1-0.3,0.2c-0.1,0-0.2,0.1-0.3,0.1
		c-0.1,0-0.2,0-0.4,0c-0.1,0-0.2,0-0.4-0.1c-0.1,0-0.2-0.1-0.3-0.2c-0.1-0.1-0.1-0.2-0.1-0.3c0-0.1,0-0.2,0-0.4
		c0-0.1,0.1-0.3,0.2-0.4c0.1-0.1,0.3-0.2,0.4-0.3c0.2-0.1,0.4-0.2,0.7-0.2c0.3-0.1,0.6-0.1,1-0.1l0.1-0.3c0.1-0.3,0.1-0.5,0-0.6
		c-0.1-0.1-0.2-0.2-0.4-0.2c-0.1,0-0.3,0-0.4,0.1c-0.1,0-0.2,0.1-0.3,0.1c-0.1,0-0.2,0.1-0.2,0.1c-0.1,0-0.1,0.1-0.2,0.1
		c0,0-0.1,0-0.1,0c0,0,0,0-0.1-0.1l-0.1-0.2c0.2-0.2,0.5-0.3,0.7-0.4c0.2-0.1,0.5-0.1,0.7-0.1c0.2,0,0.3,0,0.5,0.1
		c0.1,0.1,0.2,0.1,0.3,0.3c0.1,0.1,0.1,0.2,0.1,0.4c0,0.2,0,0.3-0.1,0.5L162.8,742.4z M161.4,742c0.1,0,0.2,0,0.3,0
		c0.1,0,0.2-0.1,0.3-0.1c0.1,0,0.2-0.1,0.3-0.1c0.1-0.1,0.2-0.1,0.3-0.2l0.2-0.7c-0.3,0-0.5,0-0.7,0.1c-0.2,0-0.4,0.1-0.5,0.1
		c-0.1,0.1-0.2,0.1-0.3,0.2c-0.1,0.1-0.1,0.2-0.2,0.3c0,0.1,0,0.2,0,0.2c0,0.1,0,0.1,0.1,0.2c0,0,0.1,0.1,0.1,0.1
		C161.2,742,161.3,742,161.4,742z M163.7,742.4l0.9-3.4h0.3c0.1,0,0.1,0,0.1,0.1l0,0.3c0.2-0.2,0.3-0.3,0.5-0.4
		c0.2-0.1,0.4-0.1,0.6-0.1c0.2,0,0.4,0.1,0.5,0.2c0.1,0.1,0.2,0.3,0.2,0.5c0.1-0.1,0.2-0.2,0.3-0.3c0.1-0.1,0.2-0.2,0.3-0.2
		c0.1-0.1,0.2-0.1,0.3-0.1c0.1,0,0.2,0,0.3,0c0.2,0,0.3,0,0.5,0.1c0.1,0.1,0.2,0.1,0.3,0.2c0.1,0.1,0.1,0.2,0.1,0.4
		c0,0.2,0,0.3-0.1,0.5l-0.6,2.1h-0.6l0.6-2.1c0.1-0.3,0.1-0.5,0-0.6c-0.1-0.1-0.2-0.2-0.4-0.2c-0.1,0-0.2,0-0.3,0.1
		c-0.1,0-0.2,0.1-0.3,0.2c-0.1,0.1-0.2,0.2-0.2,0.3c-0.1,0.1-0.1,0.2-0.2,0.4l-0.6,2.1h-0.6l0.6-2.1c0.1-0.3,0.1-0.5,0-0.6
		c-0.1-0.1-0.2-0.2-0.4-0.2c-0.1,0-0.3,0-0.4,0.1c-0.1,0.1-0.3,0.2-0.4,0.3l-0.7,2.5H163.7z"/>
</g>
<g>
	<g>
		<linearGradient id="SVGID_9_" gradientUnits="userSpaceOnUse" x1="758.6526" y1="141.1099" x2="958.8303" y2="141.1099">
			<stop  offset="0" style="stop-color:#FFFFFF;stop-opacity:0"/>
			<stop  offset="4.017906e-002" style="stop-color:#FDEBEE;stop-opacity:4.051906e-002"/>
			<stop  offset="0.1257" style="stop-color:#FAC6CE;stop-opacity:0.1267"/>
			<stop  offset="0.2187" style="stop-color:#F7A7B2;stop-opacity:0.2205"/>
			<stop  offset="0.3192" style="stop-color:#F58D9C;stop-opacity:0.3219"/>
			<stop  offset="0.4302" style="stop-color:#F3798A;stop-opacity:0.4338"/>
			<stop  offset="0.5573" style="stop-color:#F26C7E;stop-opacity:0.562"/>
			<stop  offset="0.7143" style="stop-color:#F16377;stop-opacity:0.7204"/>
			<stop  offset="0.9916" style="stop-color:#F16175"/>
		</linearGradient>
		<rect x="758.7" y="128.8" class="st15" width="200.2" height="24.7"/>
		<g>
			<g>
				<path class="st13" d="M909,145.7c-4.3,0-5.9-2-5.9-5.1c0-2.9,1.8-5.5,5.8-5.5c2.6,0,4.6,0.8,4.6,0.8v7.6h2.2v2.3H909z
					 M905.4,132.2c0-0.8,0.6-1.5,1.5-1.5c0.8,0,1.5,0.7,1.5,1.5c0,0.8-0.6,1.5-1.5,1.5C906,133.7,905.4,133,905.4,132.2z
					 M910.7,137.7c0,0-0.8-0.4-2.1-0.4c-1.7,0-2.6,1.3-2.6,3c0,2,1,3.1,3.3,3.1h1.4V137.7z M909,132.2c0-0.8,0.6-1.5,1.5-1.5
					s1.5,0.7,1.5,1.5c0,0.8-0.6,1.5-1.5,1.5S909,133,909,132.2z"/>
				<path class="st13" d="M915.4,143.4h4.1v-8.1h2.9v10.3h-7V143.4z M917.2,150.5c-0.8,0-1.5-0.7-1.5-1.5c0-0.8,0.6-1.5,1.5-1.5
					c0.8,0,1.5,0.7,1.5,1.5C918.7,149.8,918.1,150.5,917.2,150.5z M920.9,150.5c-0.8,0-1.5-0.7-1.5-1.5c0-0.8,0.6-1.5,1.5-1.5
					c0.8,0,1.5,0.7,1.5,1.5C922.3,149.8,921.7,150.5,920.9,150.5z"/>
				<path class="st13" d="M922.5,151l0.2-2.3c0.5,0.2,1.1,0.3,1.8,0.3c1.5,0,2.4-0.7,2.4-3.1v-10.6h2.9v8.1h2.2v2.3h-2.2v0.1
					c0,2.8-0.9,5.5-5.4,5.5C923.7,151.3,923.1,151.2,922.5,151z"/>
				<path class="st13" d="M931.7,143.4h0.7c1.4,0,2-0.6,2-2.8v-4h2.9v4.4c0,1.7,0.4,2.6,1.7,2.6c1.3,0,1.6-0.9,1.6-2.5v-5.3h2.8v5.2
					c0,1.8,0.5,2.4,2.4,2.4h0.8c0.1-0.9,0.2-2,0.2-2.6c0-2.2-0.3-4.2-0.6-5.9l2.8-0.4c0.4,1.8,0.7,3.9,0.7,6.1
					c0,1.6-0.1,3.6-0.3,5.1h-4.1c-1.9,0-3.1-0.4-3.6-1.6c-0.5,1.2-1.8,1.8-3.2,1.8c-1.6,0-2.8-0.7-3.1-1.8c-0.4,1.1-1.3,1.6-2.9,1.6
					h-0.7V143.4z"/>
			</g>
		</g>
		<g>
			<path class="st8" d="M734.1,147.3c0.1,0.4,0.2,0.8,0.2,1.1c0,0.9-0.6,1.7-1.9,2.2l-4.9,1.9c-1.5,0.6-2.8,1.1-2.8,2
				c0,0.1,0,0.1,0,0.2l-0.2,0.1c-0.1-0.4-0.2-0.8-0.2-1.1c0-0.9,0.5-1.7,1.9-2.3l4.9-1.9c1.7-0.7,2.8-1.1,2.8-2.2L734.1,147.3z"/>
			<path class="st8" d="M736.1,123.5h8.9v3.3h-8.9c0,5.9-1.5,10.5-5.1,14.3c-3.2,3.6-7.1,5.4-11.7,5.4c-2,0-3.9-0.4-5.9-1.2l0.3-0.6
				c1.3,0.7,2.7,1,4.2,1c8.1,0,15-7.4,15-18.9v-21.2h3.3V123.5z"/>
			<path class="st8" d="M776,93.3c0.3-0.2,0.7-0.3,1.1-0.3v0.2c-0.7,0.1-0.7,1.2-0.7,2.4v2c0,1.7-1.4,3.1-3.1,3.1
				c-1.9,0-3.4-1.1-3.4-2.8v-1.2c0-1.8,1.6-3.4,3.4-3.4H776z M773.4,94.4c-1.4,0-2.5,1-2.5,2.3v1.2c0,0.9,1,1.7,2.3,1.7
				c1,0,2.1-0.9,2.1-2.1v-2.5c0-0.2,0-0.5,0.1-0.6H773.4z"/>
			<path class="st8" d="M795.1,126.8h-50.2v-3.3h2.8c0.6-0.3,0.9-1.1,0.9-2.5c0-3.4-0.8-6.6-3.2-8.8l0.4-0.3
				c2.2,2.1,3.7,4.7,4.4,7.3c0.7-8.2,8.8-14.5,19.3-14.5h6.9c6.1,0.5,11.1,6.1,11.1,12.4v6.5h7.6V126.8z M784.2,123.5V117
				c0-3.8-1.7-6.5-5.1-8.1c-1.4-0.6-3.3-0.9-6.2-0.9h-3.4c-11.1,0-18.8,6.2-18.8,14.5v1H784.2z"/>
			<path class="st8" d="M816.2,89.9c0.1,0.4,0.2,0.8,0.2,1.1c0,0.9-0.6,1.7-1.9,2.2l-4.9,1.9c-1.5,0.6-2.8,1.1-2.8,2
				c0,0.1,0,0.1,0,0.2l-0.2,0.1c-0.1-0.4-0.2-0.8-0.2-1.1c0-0.9,0.5-1.7,1.9-2.3l4.9-1.9c1.7-0.7,2.8-1.1,2.8-2.2L816.2,89.9z"/>
			<path class="st8" d="M824.6,126.8h-29.6v-3.3h4.6c-1.7-1.7-2.5-4.1-2.5-6.3c0-5.1,4.5-9.6,9.7-9.6h6.9c3.4,0,6.8,0,7-2.2h0.5
				c0,3.4-1.9,5.4-5.8,5.4h-8.2c-4.2,0-7.1,2.7-7.1,6.4s2.8,6.2,6.7,6.3h17.9V126.8z"/>
			<path class="st8" d="M834.5,81.1c0.3-0.2,0.7-0.3,1.1-0.3v0.2c-0.7,0.1-0.7,1.2-0.7,2.4v2c0,1.7-1.4,3.1-3.1,3.1
				c-1.9,0-3.4-1.1-3.4-2.8v-1.2c0-1.8,1.6-3.4,3.4-3.4H834.5z M831.9,82.2c-1.4,0-2.5,1-2.5,2.3v1.2c0,0.9,1,1.7,2.3,1.7
				c1,0,2.1-0.9,2.1-2.1v-2.5c0-0.2,0-0.5,0.1-0.6H831.9z"/>
			<path class="st8" d="M828.2,88.6c3.1,0.1,5.3,1.7,5.3,6v21.6c0,4-2.5,7.9-6,9.6c-1.2,0.6-2.2,0.9-3,0.9v-3.3
				c2.4-0.2,5.8-2.8,5.8-7.3v-20c0-3.5,0-7-2.1-7.2V88.6z"/>
			<path class="st8" d="M841,96.7c0-5.7-0.2-7.3-2-7.5v-0.4c3.5,0.1,5.2,2.2,5.2,6.2v31.8H841V96.7z"/>
			<path class="st8" d="M868,81.2c-1.3,2.3-3.3,3.5-5.2,3.5c-1.4,0-2.8-0.7-3.7-1.8l0.1-0.1c0.7,0.9,1.8,1.4,3,1.4
				c1.7,0,3.6-1,4.9-3.4l0.3-0.6c-0.2,0-0.4,0.1-0.6,0.1c-1.8,0-3.1-1.7-3.1-3.1c0-0.4,0.1-0.8,0.3-1.1l0.6-1c0.6-1,1.7-1.6,2.8-1.6
				c0.5,0,1,0.1,1.5,0.4l-0.4,0.9c-0.4-0.2-0.8-0.3-1.2-0.3c-0.8,0-1.5,0.4-1.9,1.1l-0.5,1c-0.1,0.2-0.2,0.4-0.2,0.6
				c0,0.8,0.8,2,2.1,2c0.5,0,0.9-0.2,1.3-0.5l1.7-3.1l-1.4-0.8l0.4-0.9l2.2,1.2c0.3,0,0.7,0.1,1,0.3l-0.1,0.1c-0.1,0-0.2,0-0.2,0
				c-0.5,0-0.9,0.9-1.4,1.7l-0.9,1.6L868,81.2z"/>
			<path class="st8" d="M877.5,104.5c0.8-0.5,1.9-0.7,3.1-0.8v0.5c-2.1,0.3-2.1,3.7-2.1,7.2v6c0,5.2-4.3,9.3-9.4,9.3
				c-5.4,0-10.2-3.6-10.2-8.3v-3.6c0-5.5,4.8-10.3,10.3-10.3H877.5z M869.8,107.8c-4.3,0-7.4,3.2-7.4,7v3.6c0,2.6,2.9,5.1,6.8,5.1
				c3.3,0,6.2-2.8,6.2-6.1v-7.6c0-0.9,0-1.4,0.3-2H869.8z M865.4,100.3l-2.9-2.9l2.9-2.8l2.9,2.8L865.4,100.3z M871.2,100.3
				l-2.9-2.9l2.9-2.8l2.9,2.8L871.2,100.3z"/>
			<path class="st8" d="M916.4,126.8c-3.4,0-6.6-1.6-8.3-4.5c-1,2-4.5,4.5-8,4.5H883v-3.3h10.9v-13.1c0-3.7-0.2-7.2-2.2-7.5v-0.5
				c3.4,0.2,5.5,1.8,5.5,6.2v14.9h2.9c3.8,0,6.8-3.3,6.8-7.7V95.1c0-3.8-0.1-7.1-2.1-7.4v-0.5c3.3,0.1,5.4,1.8,5.4,6.1V118
				c0.3,3.3,2.8,5.2,6.2,5.5V126.8z"/>
			<path class="st8" d="M949.7,92.9c0.1,0.4,0.2,0.8,0.2,1.1c0,0.9-0.6,1.7-1.9,2.2l-4.9,1.9c-1.5,0.6-2.8,1.1-2.8,2
				c0,0.1,0,0.1,0,0.2l-0.2,0.1c-0.1-0.4-0.2-0.8-0.2-1.1c0-0.9,0.5-1.7,1.9-2.3l4.9-1.9c1.7-0.7,2.8-1.1,2.8-2.2L949.7,92.9z"/>
			<path class="st8" d="M958.8,126.8h-42.6v-3.3h2.8c0.6-0.3,0.9-1.1,0.9-2.5c0-3.4-0.8-6.6-3.2-8.8l0.4-0.3
				c2.2,2.1,3.7,4.7,4.4,7.3c0.7-8.2,8.8-14.5,19.3-14.5h6.9c6.1,0.5,11.2,6.1,11.1,12.4V126.8z M955.6,123.5V117
				c0-3.8-1.7-6.5-5.1-8.1c-1.4-0.6-3.3-0.9-6.2-0.9h-3.4c-11.1,0-18.8,6.2-18.8,14.5v1H955.6z"/>
		</g>
	</g>
</g>
</svg>
