<?xml version="1.0" encoding="utf-8"?>
<!-- Generator: Adobe Illustrator 19.2.0, SVG Export Plug-In . SVG Version: 6.00 Build 0)  -->
<svg version="1.1" id="Layer_1" xmlns="http://www.w3.org/2000/svg" xmlns:xlink="http://www.w3.org/1999/xlink" x="0px" y="0px"
	 viewBox="0 0 1024 768" style="enable-background:new 0 0 1024 768;" xml:space="preserve">
<style type="text/css">
	.st0{fill:url(#SVGID_1_);}
	.st1{fill:none;}
	.st2{clip-path:url(#SVGID_3_);}
	.st3{fill:url(#SVGID_4_);}
	.st4{fill:#F68A1F;}
	.st5{filter:url(#Adobe_OpacityMaskFilter);}
	.st6{filter:url(#Adobe_OpacityMaskFilter_1_);}
	.st7{mask:url(#SVGID_5_);fill:url(#SVGID_6_);}
	.st8{fill:url(#SVGID_7_);}
	.st9{fill:#622872;}
	.st10{fill:url(#SVGID_8_);}
	.st11{fill:#CA4977;}
	.st12{fill-rule:evenodd;clip-rule:evenodd;fill:#F6DFB4;}
	.st13{fill:#D2D3D4;}
	.st14{fill:#FFFFFF;}
	.st15{fill:#205B6A;}
	.st16{fill:url(#SVGID_9_);}
</style>
<g>
	<g>
		<g>
			<g>
				<linearGradient id="SVGID_1_" gradientUnits="userSpaceOnUse" x1="244.6752" y1="138.1426" x2="244.6752" y2="721.1336">
					<stop  offset="0" style="stop-color:#3553A4"/>
					<stop  offset="2.188736e-002" style="stop-color:#3B57A6"/>
					<stop  offset="0.2059" style="stop-color:#6576B8"/>
					<stop  offset="0.3861" style="stop-color:#8694CA"/>
					<stop  offset="0.5587" style="stop-color:#A2B1DA"/>
					<stop  offset="0.7217" style="stop-color:#B9C7E6"/>
					<stop  offset="0.8713" style="stop-color:#C7D6EE"/>
					<stop  offset="0.9949" style="stop-color:#CCDBF0"/>
				</linearGradient>
				<path class="st0" d="M394.9,266.9h-6.1c-1.8-28.2-25.9-59.6-71.7-93.4c-35-25.9-70.5-43.7-70.9-43.9c-1-0.5-2.2-0.5-3.1,0
					c-0.3,0.2-35.9,18-70.9,43.9c-45.7,33.8-69.8,65.2-71.7,93.4h-6.1c-1.9,0-3.5,1.6-3.5,3.5v360.2h307.5V270.4
					C398.4,268.5,396.8,266.9,394.9,266.9z"/>
			</g>
		</g>
	</g>
	<g>
		<g>
			<g>
				<path class="st1" d="M394.9,266.9h-6.1c-1.8-28.2-25.9-59.6-71.7-93.4c-35-25.9-70.5-43.7-70.9-43.9c-1-0.5-2.2-0.5-3.1,0
					c-0.3,0.2-35.9,18-70.9,43.9c-45.7,33.8-69.8,65.2-71.7,93.4h-6.1c-1.9,0-3.5,1.6-3.5,3.5v360.2h307.5V270.4
					C398.4,268.5,396.8,266.9,394.9,266.9z"/>
			</g>
		</g>
	</g>
	<g>
		<defs>
			<path id="SVGID_2_" d="M394.9,266.9h-6.1c-1.8-28.2-25.9-59.6-71.7-93.4c-35-25.9-70.5-43.7-70.9-43.9c-1-0.5-2.2-0.5-3.1,0
				c-0.3,0.2-35.9,18-70.9,43.9c-45.7,33.8-69.8,65.2-71.7,93.4h-6.1c-1.9,0-3.5,1.6-3.5,3.5v360.2h307.5V270.4
				C398.4,268.5,396.8,266.9,394.9,266.9z"/>
		</defs>
		<clipPath id="SVGID_3_">
			<use xlink:href="#SVGID_2_"  style="overflow:visible;"/>
		</clipPath>
		<g class="st2">
			
				<radialGradient id="SVGID_4_" cx="134.0516" cy="369.3249" r="54.2731" fx="122.9112" fy="353.2813" gradientUnits="userSpaceOnUse">
				<stop  offset="0.1436" style="stop-color:#FBF067"/>
				<stop  offset="0.5314" style="stop-color:#FFDE00"/>
				<stop  offset="0.9166" style="stop-color:#F47D20"/>
			</radialGradient>
			<circle class="st3" cx="135.1" cy="371.9" r="48.7"/>
			<g>
				<path class="st4" d="M135.1,323.2c-26.9,0-48.7,21.8-48.7,48.7c0,26.9,21.8,48.7,48.7,48.7c26.9,0,48.7-21.8,48.7-48.7
					C183.8,345,162,323.2,135.1,323.2z M133.4,417.4c-25.1,0-45.5-20.4-45.5-45.5c0-25.1,20.4-45.5,45.5-45.5
					c25.1,0,45.5,20.4,45.5,45.5C178.8,397,158.5,417.4,133.4,417.4z"/>
				<path class="st4" d="M140.4,307.1c0,2.7-2,4.9-4.6,4.9l0,0c-2.5,0-4.6-2.2-4.6-4.9v-8.7c0-2.7,2-4.9,4.6-4.9l0,0
					c2.5,0,4.6,2.2,4.6,4.9V307.1z"/>
				<path class="st4" d="M140.4,440.3c0,2.7-2,4.9-4.6,4.9l0,0c-2.5,0-4.6-2.2-4.6-4.9v-8.7c0-2.7,2-4.9,4.6-4.9l0,0
					c2.5,0,4.6,2.2,4.6,4.9V440.3z"/>
				<path class="st4" d="M198.1,373.9c-2.7,0-4.9-2-4.9-4.6l0,0c0-2.5,2.2-4.6,4.9-4.6h8.7c2.7,0,4.9,2,4.9,4.6l0,0
					c0,2.5-2.2,4.6-4.9,4.6H198.1z"/>
				<path class="st4" d="M64.8,373.9c-2.7,0-4.9-2-4.9-4.6l0,0c0-2.5,2.2-4.6,4.9-4.6h8.7c2.7,0,4.9,2,4.9,4.6l0,0
					c0,2.5-2.2,4.6-4.9,4.6H64.8z"/>
				<path class="st4" d="M183.1,328.5c-1.9,1.9-4.9,2.1-6.7,0.3l0,0c-1.8-1.8-1.7-4.8,0.3-6.7l6.2-6.2c1.9-1.9,4.9-2.1,6.7-0.3l0,0
					c1.8,1.8,1.7,4.8-0.3,6.7L183.1,328.5z"/>
				<path class="st4" d="M88.9,422.7c-1.9,1.9-4.9,2.1-6.7,0.3l0,0c-1.8-1.8-1.7-4.8,0.3-6.7l6.2-6.2c1.9-1.9,4.9-2.1,6.7-0.3l0,0
					c1.8,1.8,1.7,4.8-0.3,6.7L88.9,422.7z"/>
				<path class="st4" d="M176.6,416.6c-1.9-1.9-2-4.9-0.3-6.7l0,0c1.8-1.8,4.8-1.7,6.7,0.3l6.2,6.2c1.9,1.9,2.1,4.9,0.3,6.7l0,0
					c-1.8,1.8-4.8,1.7-6.7-0.3L176.6,416.6z"/>
				<path class="st4" d="M82.4,322.4c-1.9-1.9-2-4.9-0.3-6.7l0,0c1.8-1.8,4.8-1.7,6.7,0.3l6.2,6.2c1.9,1.9,2.1,4.9,0.3,6.7l0,0
					c-1.8,1.8-4.8,1.7-6.7-0.3L82.4,322.4z"/>
			</g>
			<defs>
				<filter id="Adobe_OpacityMaskFilter" filterUnits="userSpaceOnUse" x="89.2" y="327.2" width="72.7" height="48.8">
					<feFlood  style="flood-color:white;flood-opacity:1" result="back"/>
					<feBlend  in="SourceGraphic" in2="back" mode="normal"/>
				</filter>
			</defs>
			<mask maskUnits="userSpaceOnUse" x="89.2" y="327.2" width="72.7" height="48.8" id="SVGID_5_">
				<g class="st5">
					<defs>
						<filter id="Adobe_OpacityMaskFilter_1_" filterUnits="userSpaceOnUse" x="89.2" y="327.2" width="72.7" height="48.8">
							<feFlood  style="flood-color:white;flood-opacity:1" result="back"/>
							<feBlend  in="SourceGraphic" in2="back" mode="normal"/>
						</filter>
					</defs>
					<mask maskUnits="userSpaceOnUse" x="89.2" y="327.2" width="72.7" height="48.8" id="SVGID_5_">
						<g class="st6">
						</g>
					</mask>
					
						<radialGradient id="SVGID_6_" cx="124.0916" cy="331.5909" r="50.6721" fx="141.2677" fy="305.4778" gradientUnits="userSpaceOnUse">
						<stop  offset="0.2627" style="stop-color:#FFFFFF"/>
						<stop  offset="0.7268" style="stop-color:#FFFFFF"/>
						<stop  offset="0.9716" style="stop-color:#000000"/>
					</radialGradient>
					<path class="st7" d="M103.9,337.9c9-9.2,32.2-15.4,48.6-6.2c16.4,9.2,11,26.7-15.4,25.7c-26.4-1-42.3,8.6-44.4,16.8
						C90.7,382.5,81.6,360.7,103.9,337.9z"/>
				</g>
			</mask>
			
				<radialGradient id="SVGID_7_" cx="124.0916" cy="331.5909" r="50.6721" fx="141.2677" fy="305.4778" gradientUnits="userSpaceOnUse">
				<stop  offset="0.2627" style="stop-color:#FFFFFF"/>
				<stop  offset="0.7268" style="stop-color:#FBF067"/>
				<stop  offset="0.9716" style="stop-color:#FFDE00"/>
			</radialGradient>
			<path class="st8" d="M103.9,337.9c9-9.2,32.2-15.4,48.6-6.2c16.4,9.2,11,26.7-15.4,25.7c-26.4-1-42.3,8.6-44.4,16.8
				C90.7,382.5,81.6,360.7,103.9,337.9z"/>
		</g>
	</g>
</g>
<g>
	<path class="st9" d="M418,213.5c0-0.8,0.7-1.5,1.5-1.5c0.8,0,1.5,0.7,1.5,1.5c0,0.8-0.7,1.5-1.5,1.5C418.7,215,418,214.4,418,213.5
		z M418,221c0-0.8,0.7-1.5,1.5-1.5c0.8,0,1.5,0.7,1.5,1.5c0,0.8-0.7,1.5-1.5,1.5C418.7,222.5,418,221.8,418,221z"/>
	<path class="st9" d="M440.1,221c0,0.4-0.2,1.2-1.5,1.2c-1.1,0-1.9-0.3-2.5-1.3c-0.9,0.9-2.6,1.4-4.9,1.4c-0.5,0-1.9-0.1-2.8-0.3
		l0.3-1.8l0.1-0.1c0.8,0.2,2.1,0.2,2.6,0.2c1.5,0,3.1-0.3,3.9-0.9l-0.1-0.1c-0.4-0.8-2.2-4.3-3.2-6l1.4-1.5h0.2
		c0.7,1.5,2.4,5.4,2.8,6c0.9,1.9,1.4,2.3,2.7,2.3C439.9,220.4,440.1,220.6,440.1,221z"/>
	<path class="st9" d="M450.4,221c0,0.7-0.6,1.2-1.4,1.2h-1.6c0.5,0.6,0.8,1.4,0.8,2.1c0,1.4-1.4,2.6-3.1,2.6c-2.8,0-4.7-1.8-4.8-4.7
		h-1.5l0.5-1.9h1.2c0.4-2,1.4-4.2,3-6.1l1.2-1l0.2,0c2.1,2.2,2.8,3.3,2.8,4.5c0,0.9-0.5,2-1.2,2.6h3.1
		C450.1,220.4,450.4,220.5,450.4,221z M443.3,222.1c-0.4,0-0.9,0.1-1.3,0.2c0.2,1.7,1.4,2.7,3.2,2.7c0.5,0,1-0.2,1.3-0.4
		C446.5,223.1,445.3,222.1,443.3,222.1z M442.1,220.4c2.1,0,3.5-1,3.5-2.5c0-0.7-0.3-1.4-1.2-2.4
		C443.1,217.2,442.4,218.8,442.1,220.4z"/>
	<path class="st9" d="M469.6,221c0,0.4-0.2,1.2-1.4,1.2c-1,0-2.3-0.2-3.3-1c-0.7,0.7-1.7,1-2.9,1c-1,0-1.9-0.2-2.7-0.6
		c-0.5,0.4-1.2,0.6-2.2,0.6c-1.7,0-3-0.5-3.7-1.1c-0.9,0.7-2.2,1.1-4.4,1.1l0.5-1.9c1.5,0,2.5-0.1,3-0.5c0.3-0.4,0.6-1.3,1-2.5
		l2-0.3l0.1,0.1c-0.4,1-0.7,1.9-1.1,2.6c0.7,0.3,1.9,0.6,2.8,0.6c0.4,0,0.9-0.1,1.2-0.3c0.3-0.4,0.7-1.4,1.1-2.8l1.9-0.3l0.1,0.1
		c-0.4,1.2-0.7,2.2-1.1,2.9c0.5,0.2,1.1,0.3,1.7,0.3c0.6,0,1.2-0.1,1.6-0.4c0.2-0.3,0.4-1,0.4-2.2c0-0.4,0-0.8-0.1-1.3l1.7-0.6
		l0.2,0.1c0,0.4,0,0.7,0,1.1c0,1.1-0.1,1.9-0.3,2.6c0.5,0.3,1.4,0.7,2.9,0.7C469.4,220.4,469.6,220.6,469.6,221z M458.2,213
		l-1.9-1.4l1.2-1.8l1.9,1.3L458.2,213z M459.7,210.3l-2-1.4l1.2-1.8l1.9,1.3L459.7,210.3z M459.7,211.6l1.2-1.8l1.9,1.3l-1.2,1.8
		L459.7,211.6z"/>
	<path class="st9" d="M477.7,221c0,0.4-0.2,1.2-1.4,1.2c-1.5,0-2.9-0.3-3.9-1.2c-0.8,0.8-1.8,1.2-3.3,1.2h-0.8l0.5-1.9h0.7
		c0.7,0,1.4-0.1,1.8-0.5c0.3-0.5,0.7-1.6,1.2-3.6l1.8-0.5l0.2,0.1c-0.3,1.5-0.7,2.7-1.1,3.7c0.6,0.3,1.5,0.7,3.4,0.7
		C477.5,220.4,477.7,220.6,477.7,221z M472,213.1l-1.9-1.4l1.2-1.8l1.9,1.3L472,213.1z M475.3,213.1l-1.9-1.4l1.2-1.8l1.9,1.3
		L475.3,213.1z"/>
	<path class="st9" d="M476.7,220.4c0.8,0,1.7,0,2.3-0.5c0.1-0.4,0.2-1,0.2-1.9v-11.7l1.7-0.4l0.2,0.1v11.9c0,3.5-1.8,4.4-4.8,4.4
		L476.7,220.4z"/>
	<path class="st9" d="M484.1,222.3v-16l1.8-0.5l0.1,0.1l0,16.1l-1.7,0.4L484.1,222.3z"/>
	<path class="st9" d="M501.6,221.8c-2.7,0.3-4.5,0.4-7.6,0.6l-0.1-1.7c0.7,0,1.3,0,2-0.1c-0.5-0.6-0.7-1.5-0.7-2.3
		c0-1.8,1.4-3.2,3.3-3.2c0.8,0,1.8,0.2,2.5,0.6l-0.5,1.7c-0.6-0.2-1.3-0.4-1.9-0.4c-1,0-1.6,0.6-1.6,1.6c0,0.7,0.4,1.4,0.9,1.9
		c1.4-0.1,2.6-0.2,3.6-0.3L501.6,221.8z"/>
	<path class="st9" d="M504.4,218.3v-12l1.7-0.4l0.1,0.1v12.1c0,1.9,0.8,2.3,2.8,2.3c0.8,0,1,0.3,1,0.6c0,0.4-0.2,1.2-1.5,1.2
		C506.2,222.2,504.4,221.4,504.4,218.3z"/>
	<path class="st9" d="M519.9,220l-0.6,1.7c-1.9,0.4-4.7,0.6-10.8,0.6l0.5-1.9c0.9,0,1.8,0,2.7,0c-0.6-0.9-1-2-1-3.1c0-2.5,2-4,4.6-4
		c1.2,0,2.4,0.4,3.2,0.8l-0.2,1.7l-0.1,0c-0.9-0.4-1.9-0.6-2.9-0.6c-1.6,0-2.6,0.8-2.6,2.1c0,0.9,0.5,2.1,1.4,3
		c2.1-0.1,3.9-0.2,5.6-0.4L519.9,220z"/>
	<path class="st9" d="M521.9,222.1l0.3-1.8l0.1-0.1c0.7,0.2,2.1,0.2,2.6,0.2c1.6,0,3.5-0.3,4-0.9c-0.3-1.9-1.9-4-3.7-5.8l1-1.8h0.2
		c2.4,2.6,4.1,5,4.1,6.9c0,2.4-2,3.5-5.7,3.5C524.3,222.4,522.8,222.3,521.9,222.1z"/>
	<path class="st9" d="M542.1,204c-1.2,0.1-2.7,0.3-4.6,0.3l-0.1-1.3c0.3,0,0.7,0,1.1,0c-0.3-0.4-0.4-0.9-0.4-1.4
		c0-1.2,0.7-1.9,2-1.9c0.5,0,1.1,0.1,1.7,0.3l-0.3,1.2c-0.5-0.1-0.8-0.2-1.1-0.2c-0.6,0-0.9,0.4-0.9,0.9c0,0.4,0.2,0.7,0.5,1
		c0.8,0,1.5-0.1,2.2-0.2L542.1,204z M540.7,205.8l0.1,0.1l0,16.1l-1.7,0.4l-0.1-0.1v-16L540.7,205.8z"/>
	<path class="st9" d="M552.1,221c0,0.4-0.2,1.2-1.4,1.2c-1,0-1.6-0.3-2-0.6c-0.7,2.2-3.3,4.2-7.2,4.9l-1-1.4l0.1-0.2
		c4.7-0.9,6.4-2.8,6.8-4.6c-0.4-1.1-1.1-2.6-1.8-4l1.4-1.5h0.2c0.6,1.7,1.2,3.1,1.4,3.7c0.6,1.6,1,1.9,2.5,1.9
		C552,220.4,552.1,220.6,552.1,221z"/>
	<path class="st9" d="M559.7,217c0,2.3-0.4,3.6-1.5,4.4c-1.3,0.7-3.1,0.8-7.6,0.8l0.5-1.9c4.6,0,6.1-0.2,6.8-0.5
		c0.1-0.3,0.1-0.8,0.2-1.5c-0.7,0.2-1.6,0.3-2.5,0.3c-2.1,0-3.1-1.1-3.1-2.8c0-2.2,1.6-4.6,3.5-4.6
		C558.3,211.3,559.7,214.1,559.7,217z M554.7,208.7l-1.9-1.4l1.2-1.8l1.9,1.3L554.7,208.7z M556,216.8c0.8,0,1.5-0.1,2.2-0.2
		c-0.1-1.7-1.1-3.5-2.2-3.5c-0.9,0-1.9,1.2-1.9,2.5C554.1,216.5,554.8,216.8,556,216.8z M558,208.7l-1.9-1.4l1.2-1.8l1.9,1.3
		L558,208.7z"/>
	<path class="st9" d="M565.9,204c-1.2,0.1-2.7,0.3-4.6,0.3l-0.1-1.3c0.3,0,0.7,0,1.1,0c-0.3-0.4-0.4-0.9-0.4-1.4
		c0-1.2,0.7-1.9,2-1.9c0.5,0,1.1,0.1,1.7,0.3l-0.3,1.2c-0.5-0.1-0.8-0.2-1.1-0.2c-0.6,0-0.9,0.4-0.9,0.9c0,0.4,0.2,0.7,0.5,1
		c0.8,0,1.5-0.1,2.2-0.2L565.9,204z M564.5,205.8l0.1,0.1l0,16.1l-1.7,0.4l-0.1-0.1v-16L564.5,205.8z"/>
	<path class="st9" d="M575,220.2c0,3.1-2.3,6.1-7.3,6.2l-1-1.4l0.1-0.2c3.4-0.1,5.7-1.3,6.5-3.3c-0.7,0.1-1.4,0.3-2.3,0.3
		c-2.1,0-3.1-1.1-3.1-2.8c0-2.2,1.6-4.6,3.5-4.6C573.6,214.5,575,217.3,575,220.2z M571.3,220c0.8,0,1.5-0.1,2.2-0.2
		c-0.1-1.7-1.1-3.5-2.2-3.5c-0.9,0-1.9,1.2-1.9,2.5C569.4,219.7,570.1,220,571.3,220z"/>
	<path class="st9" d="M594.8,221c0,0.4-0.2,1.2-1.5,1.2c-1.1,0-1.9-0.3-2.5-1.3c-0.9,0.9-2.6,1.4-4.9,1.4c-0.5,0-1.9-0.1-2.8-0.3
		l0.3-1.8l0.1-0.1c0.8,0.2,2.1,0.2,2.6,0.2c1.5,0,3.1-0.3,3.9-0.9l-0.1-0.1c-0.4-0.8-2.2-4.3-3.2-6l1.4-1.5h0.2
		c0.7,1.5,2.4,5.4,2.8,6c0.9,1.9,1.4,2.3,2.7,2.3C594.6,220.4,594.8,220.6,594.8,221z"/>
	<path class="st9" d="M605,221c0,0.7-0.6,1.2-1.4,1.2H602c0.5,0.6,0.8,1.4,0.8,2.1c0,1.4-1.4,2.6-3.1,2.6c-2.8,0-4.7-1.8-4.8-4.7
		h-1.5l0.5-1.9h1.2c0.4-2,1.4-4.2,3-6.1l1.2-1l0.2,0c2.1,2.2,2.8,3.3,2.8,4.5c0,0.9-0.5,2-1.2,2.6h3.1
		C604.7,220.4,605,220.5,605,221z M598,222.1c-0.4,0-0.9,0.1-1.3,0.2c0.2,1.7,1.4,2.7,3.2,2.7c0.5,0,1-0.2,1.3-0.4
		C601.2,223.1,600,222.1,598,222.1z M596.8,220.4c2.1,0,3.5-1,3.5-2.5c0-0.7-0.3-1.4-1.2-2.4C597.8,217.2,597.1,218.8,596.8,220.4z"
		/>
	<path class="st9" d="M624.3,221c0,0.4-0.2,1.2-1.4,1.2c-1,0-2.3-0.2-3.3-1c-0.7,0.7-1.7,1-2.9,1c-1,0-1.9-0.2-2.7-0.6
		c-0.5,0.4-1.2,0.6-2.2,0.6c-1.7,0-3-0.5-3.7-1.1c-0.9,0.7-2.2,1.1-4.4,1.1l0.5-1.9c1.5,0,2.5-0.1,3-0.5c0.3-0.4,0.6-1.3,1-2.5
		l2-0.3l0.1,0.1c-0.4,1-0.7,1.9-1.1,2.6c0.7,0.3,1.9,0.6,2.8,0.6c0.4,0,0.9-0.1,1.2-0.3c0.3-0.4,0.7-1.4,1.1-2.8l1.9-0.3l0.1,0.1
		c-0.4,1.2-0.7,2.2-1.1,2.9c0.5,0.2,1.1,0.3,1.7,0.3c0.6,0,1.2-0.1,1.6-0.4c0.2-0.3,0.4-1,0.4-2.2c0-0.4,0-0.8-0.1-1.3l1.7-0.6
		l0.2,0.1c0,0.4,0,0.7,0,1.1c0,1.1-0.1,1.9-0.3,2.6c0.5,0.3,1.4,0.7,2.9,0.7C624.1,220.4,624.3,220.6,624.3,221z M612.9,213
		l-1.9-1.4l1.2-1.8l1.9,1.3L612.9,213z M614.4,210.3l-2-1.4l1.2-1.8l1.9,1.3L614.4,210.3z M614.4,211.6l1.2-1.8l1.9,1.3l-1.2,1.8
		L614.4,211.6z"/>
	<path class="st9" d="M632.4,221c0,0.4-0.2,1.2-1.4,1.2c-1.5,0-2.9-0.3-3.9-1.2c-0.8,0.8-1.8,1.2-3.3,1.2h-0.8l0.5-1.9h0.7
		c0.7,0,1.4-0.1,1.8-0.5c0.3-0.5,0.7-1.6,1.2-3.6l1.8-0.5l0.2,0.1c-0.3,1.5-0.7,2.7-1.1,3.7c0.6,0.3,1.5,0.7,3.4,0.7
		C632.2,220.4,632.4,220.6,632.4,221z M626.7,213.1l-1.9-1.4l1.2-1.8l1.9,1.3L626.7,213.1z M630,213.1l-1.9-1.4l1.2-1.8l1.9,1.3
		L630,213.1z"/>
	<path class="st9" d="M631.4,220.4c0.8,0,1.7,0,2.3-0.5c0.1-0.4,0.2-1,0.2-1.9v-11.7l1.7-0.4l0.2,0.1v11.9c0,3.5-1.8,4.4-4.8,4.4
		L631.4,220.4z"/>
	<path class="st9" d="M638.8,222.3v-16l1.8-0.5l0.1,0.1l0,16.1l-1.7,0.4L638.8,222.3z"/>
	<path class="st9" d="M659.9,221c0,0.4-0.2,1.2-1.5,1.2c-1.9,0-3.3-0.4-3.9-1.9c-0.6,0.1-1.2,0.2-1.8,0.2c-2.5,0-4-1.1-4-2.7
		c0-1.8,1.9-4,5.5-5.1v-1.2l1.7-0.8l0.2,0v7.4c0,1.8,0.9,2.1,2.8,2.1C659.8,220.4,659.9,220.6,659.9,221z M651.7,209.3l-1.9-1.4
		l1.2-1.8l1.9,1.3L651.7,209.3z M654.2,218.5v-0.2v-3.6c-2.2,0.7-3.7,1.8-4,2.8c0.3,0.9,1.6,1.2,2.6,1.2
		C653.3,218.7,653.8,218.6,654.2,218.5z M655.1,209.3l-1.9-1.4l1.2-1.8l1.9,1.3L655.1,209.3z"/>
	<path class="st9" d="M679.1,221c0,0.4-0.2,1.2-1.4,1.2c-1,0-2.3-0.2-3.3-1c-0.7,0.7-1.7,1-2.9,1c-1,0-1.9-0.2-2.7-0.6
		c-0.5,0.4-1.2,0.6-2.2,0.6c-1.7,0-3-0.5-3.7-1.1c-0.9,0.7-2.2,1.1-4.4,1.1l0.5-1.9c1.5,0,2.5-0.1,3-0.5c0.3-0.4,0.6-1.3,1-2.5
		l2-0.3l0.1,0.1c-0.4,1-0.7,1.9-1.1,2.6c0.7,0.3,1.9,0.6,2.8,0.6c0.4,0,0.9-0.1,1.2-0.3c0.3-0.4,0.7-1.4,1.1-2.8l1.9-0.3l0.1,0.1
		c-0.4,1.2-0.7,2.2-1.1,2.9c0.5,0.2,1.1,0.3,1.7,0.3c0.6,0,1.2-0.1,1.6-0.4c0.2-0.3,0.4-1,0.4-2.2c0-0.4,0-0.8-0.1-1.3l1.7-0.6
		l0.2,0.1c0,0.4,0,0.7,0,1.1c0,1.1-0.1,1.9-0.3,2.6c0.5,0.3,1.4,0.7,2.9,0.7C678.9,220.4,679.1,220.6,679.1,221z"/>
	<path class="st9" d="M686.1,221c0,0.4-0.2,1.2-1.4,1.2c-1,0-2.4-0.2-3-1.4c-0.8,1.1-2.2,1.4-4,1.4l0.5-1.9c0.8,0,1.7,0,2.3-0.5
		c0.1-0.4,0.2-1,0.2-1.9v-11.7l1.7-0.4l0.2,0.1v11.8c0,2.4,1.1,2.6,2.7,2.6C685.9,220.4,686.1,220.6,686.1,221z"/>
	<path class="st9" d="M697.9,217.5l-0.5,1.7c-2,0.2-3.9,0.7-6.5,1.6c-3,1-4.6,1.4-6.3,1.4l0.5-1.9c1.5,0,2.8-0.2,5.4-1.1
		c1.6-0.5,2.8-0.8,3.8-1c-0.4-0.2-1-0.5-1.7-0.9c-1.9-1.1-2.9-1.4-4-1.4c-0.9,0-1.7,0.2-2.4,0.5l-0.1-0.1l0.7-1.7
		c0.6-0.3,1.4-0.5,2.1-0.5c1.1,0,2.2,0.5,4.3,1.6C695.4,216.9,696.8,217.5,697.9,217.5z M690.5,224.1l2,1.3l-1.2,1.8l-2-1.4
		L690.5,224.1z"/>
	<path class="st9" d="M732.6,221c0,0.4-0.2,1.2-1.4,1.2c-1,0-2.3-0.2-3.3-1c-0.7,0.7-1.7,1-2.8,1c-1,0-2-0.2-2.7-0.6
		c-0.5,0.4-1.2,0.6-2.2,0.6c-0.6,0-1.3-0.2-1.9-0.6c-0.5,3.4-3.3,5.1-6.9,5.1c-3.7,0-5.7-2.1-5.7-4.9c0-1,0.2-2.1,0.4-2.7l1.5-0.5
		l0.2,0.1c-0.2,0.8-0.2,1.6-0.2,2.2c0,2.4,0.9,4,4.2,4c2.7,0,3.9-1,4.6-1.8c0.2-0.5,0.3-1.1,0.3-1.6c0-1.3-0.6-2.7-1.3-4.4l1.7-1.2
		h0.1c0.3,0.8,0.7,2.3,1.2,3.2c0.5,0.9,1.2,1.3,2,1.3c0.4,0,0.9-0.1,1.2-0.3c0.3-0.4,0.7-1.4,1.1-2.8l1.9-0.3l0.1,0.1
		c-0.4,1.2-0.7,2.2-1.1,3c0.5,0.1,1.1,0.3,1.7,0.3c0.6,0,1.2-0.1,1.6-0.4c0.2-0.3,0.4-1.1,0.4-2.2c0-0.4,0-0.8-0.1-1.2l1.7-0.6
		l0.2,0.1c0,0.4,0,0.7,0,1.1c0,1.1-0.1,1.9-0.3,2.6c0.5,0.3,1.4,0.7,2.9,0.7C732.4,220.4,732.6,220.6,732.6,221z"/>
	<path class="st9" d="M739.6,221c0,0.4-0.2,1.2-1.4,1.2c-1,0-2.4-0.2-3-1.4c-0.8,1.1-2.2,1.4-4,1.4l0.5-1.9c0.8,0,1.7,0,2.3-0.5
		c0.1-0.4,0.2-1,0.2-1.9v-11.7l1.7-0.4l0.2,0.1v11.8c0,2.4,1.1,2.6,2.7,2.6C739.4,220.4,739.6,220.6,739.6,221z"/>
	<path class="st9" d="M751.4,217.5l-0.5,1.7c-2,0.2-3.9,0.7-6.5,1.6c-3,1-4.6,1.4-6.3,1.4l0.5-1.9c1.5,0,2.8-0.2,5.4-1.1
		c1.6-0.5,2.8-0.8,3.8-1c-0.4-0.2-1-0.5-1.7-0.9c-1.9-1.1-2.9-1.4-4-1.4c-0.9,0-1.7,0.2-2.4,0.5l-0.1-0.1l0.7-1.7
		c0.6-0.3,1.4-0.5,2.1-0.5c1.1,0,2.2,0.5,4.3,1.6C748.9,216.9,750.2,217.5,751.4,217.5z M744,224.1l2,1.3l-1.2,1.8l-2-1.4L744,224.1
		z"/>
	<path class="st9" d="M756.9,204c-1.2,0.1-2.7,0.3-4.6,0.3l-0.1-1.3c0.3,0,0.7,0,1.1,0c-0.3-0.4-0.4-0.9-0.4-1.4
		c0-1.2,0.7-1.9,2-1.9c0.5,0,1.1,0.1,1.7,0.3l-0.3,1.2c-0.5-0.1-0.8-0.2-1.1-0.2c-0.6,0-0.9,0.4-0.9,0.9c0,0.4,0.2,0.7,0.5,1
		c0.8,0,1.5-0.1,2.2-0.2L756.9,204z M755.5,205.8l0.1,0.1l0,16.1l-1.7,0.4l-0.1-0.1v-16L755.5,205.8z"/>
	<path class="st9" d="M766,220.2c0,3.1-2.3,6.1-7.3,6.2l-1-1.4l0.1-0.2c3.4-0.1,5.7-1.3,6.5-3.3c-0.7,0.1-1.4,0.3-2.3,0.3
		c-2.1,0-3.1-1.1-3.1-2.8c0-2.2,1.6-4.6,3.5-4.6C764.6,214.5,766,217.3,766,220.2z M762.3,220c0.8,0,1.5-0.1,2.2-0.2
		c-0.1-1.7-1.1-3.5-2.2-3.5c-0.9,0-1.9,1.2-1.9,2.5C760.4,219.7,761.1,220,762.3,220z"/>
	<path class="st9" d="M774.1,222.1l0.3-1.8l0.1-0.1c0.7,0.2,2.1,0.2,2.6,0.2c1.6,0,3.5-0.3,4-0.9c-0.3-1.9-1.9-4-3.7-5.8l1-1.8h0.2
		c2.4,2.6,4.1,5,4.1,6.9c0,2.4-2,3.5-5.7,3.5C776.4,222.4,775,222.3,774.1,222.1z"/>
	<path class="st9" d="M795.3,221c0,0.4-0.2,1.2-1.5,1.2H792c-0.8,2.3-3,4.1-7,4.2l-1-1.4l0.1-0.2c3-0.1,5.2-1.1,6.1-2.7h-0.7
		c-3,0-4.4-1.2-4.4-3.1c0-2.2,1.6-4.7,3.5-4.7c2.2,0,3.6,2.7,3.6,5.7v0.1h1.9C795.1,220.4,795.3,220.6,795.3,221z M790.8,220.4v-0.1
		c0-2.1-1.1-3.8-2.2-3.8c-0.9,0-1.9,1-1.9,2.6c0,0.9,0.8,1.4,3.1,1.4H790.8z"/>
	<path class="st9" d="M809.8,221c0,0.4-0.2,1.2-1.4,1.2c-3.2,0-4.7-0.8-5.5-2.3c-0.8,0.2-1.7,0.5-2.7,0.9c-3.1,1.1-4.5,1.4-6.4,1.4
		l0.5-1.9c1.6,0,2.9-0.2,5.4-1.1c1.5-0.5,2.7-0.8,3.8-1c-0.4-0.2-0.9-0.5-1.7-0.8c-1.9-1-2.9-1.4-4-1.4c-0.9,0-1.7,0.2-2.4,0.5
		l-0.1-0.1l0.7-1.8c0.6-0.3,1.4-0.5,2.1-0.5c1.1,0,2.2,0.5,4.2,1.6c2.4,1.2,3.6,1.7,4.7,1.8l-0.4,1.7c-0.6,0.1-1.2,0.1-1.8,0.3
		c0.7,0.7,1.9,0.9,4,0.9C809.7,220.4,809.8,220.6,809.8,221z M799.7,224.1l2,1.3l-1.2,1.8l-2-1.4L799.7,224.1z"/>
	<path class="st9" d="M829,221c0,0.4-0.2,1.2-1.4,1.2c-1,0-2.3-0.2-3.3-1c-0.7,0.7-1.7,1-2.9,1c-1,0-1.9-0.2-2.7-0.6
		c-0.5,0.4-1.2,0.6-2.2,0.6c-1.7,0-3-0.5-3.7-1.1c-0.9,0.7-2.2,1.1-4.4,1.1l0.5-1.9c1.5,0,2.5-0.1,3-0.5c0.3-0.4,0.6-1.3,1-2.5
		l2-0.3l0.1,0.1c-0.4,1-0.7,1.9-1.1,2.6c0.7,0.3,1.9,0.6,2.8,0.6c0.4,0,0.9-0.1,1.2-0.3c0.3-0.4,0.7-1.4,1.1-2.8l1.9-0.3l0.1,0.1
		c-0.4,1.2-0.7,2.2-1.1,2.9c0.5,0.2,1.1,0.3,1.7,0.3c0.6,0,1.2-0.1,1.6-0.4c0.2-0.3,0.4-1,0.4-2.2c0-0.4,0-0.8-0.1-1.3l1.7-0.6
		l0.2,0.1c0,0.4,0,0.7,0,1.1c0,1.1-0.1,1.9-0.3,2.6c0.5,0.3,1.4,0.7,2.9,0.7C828.9,220.4,829,220.6,829,221z"/>
	<path class="st9" d="M828.1,220.4c0.8,0,1.7,0,2.3-0.5c0.1-0.4,0.2-1,0.2-1.9v-11.7l1.7-0.4l0.2,0.1v11.9c0,3.5-1.8,4.4-4.8,4.4
		L828.1,220.4z"/>
	<path class="st9" d="M835.5,222.3v-16l1.8-0.5l0.1,0.1l0,16.1l-1.7,0.4L835.5,222.3z"/>
	<path class="st9" d="M861.8,221c0,0.4-0.2,1.2-1.5,1.2c-0.6,0-1.4-0.2-1.9-0.6c-0.5,3.4-3.3,5.1-6.9,5.1c-3.7,0-5.7-2.1-5.7-4.9
		c0-1,0.2-2.1,0.4-2.7l1.5-0.5l0.2,0.1c-0.2,0.8-0.2,1.6-0.2,2.2c0,2.4,0.9,4,4.2,4c2.7,0,3.9-1,4.6-1.8c0.8-1.8,0-3.6-1-6l1.7-1.2
		h0.1c0.3,0.8,0.7,2.3,1.2,3.2c0.5,1,1.2,1.4,2.2,1.4C861.5,220.4,861.8,220.6,861.8,221z M852.1,214.7l-2-1.4l1.2-1.8l2,1.3
		L852.1,214.7z"/>
	<path class="st9" d="M871.2,220c0,1.6-0.8,2.6-2.4,2.6c-1.2,0-3.1-0.6-4.8-1.8c-0.9,1.2-2,1.5-3.6,1.5l0.5-1.9
		c1.1,0,1.6-0.5,2.2-1.5c0.8-1.5,2-4.3,4.3-4.3S871.2,217.2,871.2,220z M867.2,216.4c-0.9,0-1.4,1.1-2.4,2.9
		c1.4,0.9,2.8,1.4,3.5,1.4c0.4,0,0.8-0.1,1-0.3C869.6,219.2,868.5,216.4,867.2,216.4z"/>
	<path class="st9" d="M879.4,221.7c0-1,0.2-2.1,0.4-2.7l1.5-0.5l0.2,0.1c-0.2,0.8-0.2,1.6-0.2,2.2c0,2.4,0.9,4,4.2,4
		c2,0,3.4-0.5,4.4-1.7c0.3-0.6,0.6-1.8,0.6-3.7v-13.1l1.7-0.4l0.2,0.1l0,13.2c0,5.4-2.5,7.5-7.2,7.5
		C881.3,226.7,879.4,224.6,879.4,221.7z"/>
	<path class="st9" d="M906.4,221c0,0.4-0.2,1.2-1.5,1.2c-1.1,0-1.9-0.3-2.5-1.3c-0.9,0.9-2.6,1.4-4.9,1.4c-0.5,0-1.9-0.1-2.8-0.3
		l0.3-1.8l0.1-0.1c0.8,0.2,2.1,0.2,2.6,0.2c1.5,0,3.1-0.3,3.9-0.9l-0.1-0.1c-0.4-0.8-2.2-4.3-3.2-6l1.4-1.5h0.2
		c0.7,1.5,2.4,5.4,2.8,6c0.9,1.9,1.4,2.3,2.7,2.3C906.2,220.4,906.4,220.6,906.4,221z"/>
	<path class="st9" d="M914.5,221c0,0.4-0.2,1.2-1.4,1.2c-1.5,0-2.9-0.3-3.9-1.2c-0.8,0.8-1.8,1.2-3.3,1.2H905l0.5-1.9h0.7
		c0.7,0,1.4-0.1,1.8-0.5c0.3-0.5,0.7-1.6,1.2-3.6l1.8-0.5l0.2,0.1c-0.3,1.5-0.7,2.7-1.1,3.7c0.6,0.3,1.5,0.7,3.4,0.7
		C914.3,220.4,914.5,220.6,914.5,221z M908.9,213.1l-1.9-1.4l1.2-1.8l1.9,1.3L908.9,213.1z M912.2,213.1l-1.9-1.4l1.2-1.8l1.9,1.3
		L912.2,213.1z"/>
	<path class="st9" d="M924.4,220l-0.6,1.7c-1.9,0.4-4.7,0.6-10.8,0.6l0.5-1.9c0.9,0,1.8,0,2.7,0c-0.6-0.9-1-2-1-3.1c0-2.5,2-4,4.6-4
		c1.2,0,2.4,0.4,3.2,0.8l-0.2,1.7l-0.1,0c-0.9-0.4-1.9-0.6-2.9-0.6c-1.6,0-2.6,0.8-2.6,2.1c0,0.9,0.5,2.1,1.4,3
		c2.1-0.1,3.9-0.2,5.6-0.4L924.4,220z"/>
	<path class="st9" d="M930.3,204c-1.2,0.1-2.7,0.3-4.6,0.3l-0.1-1.3c0.3,0,0.7,0,1.1,0c-0.3-0.4-0.4-0.9-0.4-1.4
		c0-1.2,0.7-1.9,2-1.9c0.5,0,1.1,0.1,1.7,0.3l-0.3,1.2c-0.5-0.1-0.8-0.2-1.1-0.2c-0.6,0-0.9,0.4-0.9,0.9c0,0.4,0.2,0.7,0.5,1
		c0.8,0,1.5-0.1,2.2-0.2L930.3,204z M928.9,205.8l0.1,0.1l0,16.1l-1.7,0.4l-0.1-0.1v-16L928.9,205.8z"/>
</g>
<linearGradient id="SVGID_8_" gradientUnits="userSpaceOnUse" x1="504.9494" y1="428.0948" x2="1023.4894" y2="428.0948">
	<stop  offset="0.1199" style="stop-color:#FFFFFF"/>
	<stop  offset="0.9969" style="stop-color:#FFF2D5"/>
</linearGradient>
<rect x="504.9" y="288.1" class="st10" width="518.5" height="280"/>
<g>
	<g>
		<path class="st11" d="M543.6,335.1c0-2.4,1.3-4.7,3.2-7l2,1.2c-0.9,1.2-1.7,2.5-1.7,3.4c0,1.3,1.6,1.1,1.6,3
			c0,1.2-0.9,2.5-2.5,2.5C544.6,338.2,543.6,337,543.6,335.1z"/>
		<path class="st11" d="M575.7,332c0,1.9-0.8,4-2.5,5c-1.5,0.9-5.1,1.4-9.2,1.4h-2c-7.1,0-10.9-2.1-10.9-6c0-1.4,0.2-2.6,0.6-3.9
			l2.8-1.1l0.3,0.2c-0.2,1-0.3,1.8-0.3,2.7c0,3.3,2.6,4.2,8.8,4.2h1.8c3,0,5.9-0.3,7.1-0.7c0.1-1.1-0.5-3-1.7-5.4l3.3-2.6h0.4
			C575.3,328.3,575.7,330.6,575.7,332z M562.1,325.4l-3.3-2.3l2-3l3.1,2.1l1.4-2.1l3.3,2.2l-2,3.1l-3.1-2.2L562.1,325.4z"/>
		<path class="st11" d="M579.3,331.5v-14.7l3.7-1l0.3,0.2v15.2c0,2.2,0.9,2.8,3.2,2.8c0.9,0,1.3,0.5,1.3,1.3c0,1.6-0.6,2.7-2.1,2.7
			C581.4,338,579.3,336.1,579.3,331.5z"/>
		<path class="st11" d="M598.5,335.3c0,1.5-0.5,2.7-2.1,2.7c-1.6,0-3.7-0.5-5-1.5c-1.2,1-2.8,1.5-5.1,1.5h-0.6l0.9-4h0.6
			c1.2,0,2.1-0.1,2.5-0.4c0.3-0.8,0.7-2.4,1.1-4.5l4.1-1l0.3,0.2c-0.4,1.9-0.9,3.6-1.5,5c0.9,0.4,2.1,0.6,3.6,0.6
			C598.2,334,598.5,334.6,598.5,335.3z M590.7,340.3l3.4,2.3l-2.1,3.2l-3.4-2.4L590.7,340.3z"/>
		<path class="st11" d="M610,335.3c0,1.5-0.5,2.7-2.1,2.7c-2.4,0-4.6-0.5-5.8-1.5c-1.2,1-2.6,1.5-4.7,1.5h-1.1l0.9-4h0.7
			c0.8,0,1.8-0.1,2.2-0.4c0.3-0.8,0.7-2.4,1.1-4.5l4.1-1l0.3,0.2c-0.4,1.9-0.9,3.6-1.5,5c0.9,0.4,2.4,0.6,4.5,0.6
			C609.8,334,610,334.6,610,335.3z M603.8,340.3l3.3,2.2l-2,3.1l-3.1-2.2l-1.5,2.2l-3.3-2.3l2-3l3.2,2.2L603.8,340.3z"/>
		<path class="st11" d="M630.6,335.3c0,1.5-0.5,2.7-2.1,2.7c-1.5,0-3.4-0.4-4.7-1.3c-1.7,1.2-4,1.3-8.1,1.3h-7.8l0.9-4h1.3
			c0.4-0.4,0.8-0.8,1.2-1.2v-16l3.7-1l0.3,0.2l-0.1,13.3c2.6-2.1,4.6-3.3,6.4-3.3c3.1,0,4.9,3.1,4.9,5.6c0,0.7-0.1,1.3-0.3,1.9
			c0.8,0.3,1.9,0.4,3.1,0.4C630.3,334,630.6,334.6,630.6,335.3z M623,333.6c0.2-0.3,0.3-0.7,0.3-1.2c0-1.1-0.9-2.5-2.2-2.5
			c-1.5,0-4,1.5-7,4.2h2.4C621,334,622.2,333.9,623,333.6z"/>
		<path class="st11" d="M629.3,334c0.9,0,1.9-0.1,2.6-0.4c0.1-0.5,0.2-1.2,0.2-2.4v-14.4l3.7-1l0.3,0.2v15c0,5.6-2.9,7-7.6,7
			L629.3,334z"/>
		<path class="st11" d="M640,338v-21.2l3.7-1l0.3,0.2l-0.1,21.4l-3.7,0.8L640,338z"/>
		<path class="st11" d="M658.4,334.8c0,4.4-3.4,8.8-10.6,8.9l-1.9-3l0.2-0.4c4.4-0.1,7.4-1.3,8.5-3.4c-0.8,0.1-1.6,0.2-2.6,0.2
			c-3,0-4.4-1.5-4.4-3.8c0-3,2.3-6.6,5.3-6.6C656.3,326.7,658.4,330.4,658.4,334.8z M652.9,333.6c0.8,0,1.5-0.1,2.2-0.2
			c-0.3-1.6-1.2-3-2.4-3c-1.1,0-2,1.2-2,2.2C650.7,333.3,651.4,333.6,652.9,333.6z"/>
		<path class="st11" d="M693,332c0,1.9-0.8,4-2.5,5c-1.5,0.9-5.1,1.4-9.2,1.4h-2c-7.1,0-10.9-2.1-10.9-6c0-1.4,0.2-2.6,0.6-3.9
			l2.8-1.1l0.3,0.2c-0.2,1-0.3,1.8-0.3,2.7c0,3.3,2.6,4.2,8.8,4.2h1.8c3,0,5.9-0.3,7.1-0.7c0.1-1.1-0.5-3-1.7-5.4l3.3-2.6h0.4
			C692.6,328.3,693,330.6,693,332z M679.4,325.4l-3.3-2.3l2-3l3.1,2.1l1.4-2.1l3.3,2.2l-2,3.1l-3.1-2.2L679.4,325.4z"/>
		<path class="st11" d="M696.7,338v-21.2l3.7-1l0.3,0.2l-0.1,21.4l-3.7,0.8L696.7,338z"/>
		<path class="st11" d="M718.6,335.3c0,1.5-0.5,2.7-2.2,2.7h-2c-1.3,3.2-4.5,5.7-10,5.7l-1.9-3l0.2-0.4c3.9-0.1,6.5-0.8,7.9-2.3
			c-4.4,0-6.3-1.8-6.3-4.7c0-3,2.3-6.7,5.3-6.7c3.1,0,5.2,3.3,5.4,7.4h2.2C718.2,334,718.6,334.6,718.6,335.3z M710.6,334h1.2
			c-0.2-2-1.2-3.6-2.4-3.6c-1.1,0-2,1.2-2,2.2C707.4,333.6,708.3,334,710.6,334z"/>
		<path class="st11" d="M728.5,335.3c0,1.5-0.5,2.7-2.1,2.7c-1.2,0-2.9-0.3-4-1.8c-1.1,1.4-2.8,1.8-5.9,1.8l0.9-4
			c0.9,0,1.9-0.1,2.6-0.4c0.1-0.5,0.2-1.2,0.2-2.4v-14.4l3.7-1l0.3,0.2v15.2c0,2.5,0.7,2.8,3.2,2.8
			C728.2,334,728.5,334.6,728.5,335.3z"/>
		<path class="st11" d="M756.2,335.3c0,1.5-0.5,2.7-2.1,2.7c-1.5,0-3.4-0.4-4.7-1.3c-1.8,1.2-4,1.3-8.1,1.3h-3.4
			c-3.4,0-5.2-0.1-7.3-1c-1.1,0.7-2.4,1-4.3,1l0.9-4c0.7,0,1.6-0.1,2.1-0.3c0.3-0.7,0.5-1.8,0.8-3.3l4.3-0.6l0.1,0.1
			c-0.5,1.5-0.9,2.7-1.4,3.7c0.7,0.2,1.6,0.3,2.6,0.3c5.4-5.2,8.7-7.9,11.6-7.9c3.1,0,4.9,3.1,4.9,5.6c0,0.7-0.1,1.3-0.3,1.9
			c0.8,0.3,1.9,0.4,3.2,0.4C755.9,334,756.2,334.6,756.2,335.3z M748.6,333.6c0.2-0.3,0.3-0.7,0.3-1.2c0-1.1-0.8-2.5-2.1-2.5
			c-1.5,0-4,1.5-7.1,4.2h3.1C746.6,334,747.8,333.9,748.6,333.6z"/>
		<path class="st11" d="M755,334c0.9,0,1.9-0.1,2.6-0.4c0.1-0.5,0.2-1.2,0.2-2.4v-14.4l3.7-1l0.3,0.2v15c0,5.6-2.9,7-7.6,7L755,334z
			"/>
		<path class="st11" d="M765.7,338v-21.2l3.7-1l0.3,0.2l-0.1,21.4l-3.7,0.8L765.7,338z"/>
		<path class="st11" d="M784,334.8c0,4.4-3.4,8.8-10.6,8.9l-1.9-3l0.2-0.4c4.4-0.1,7.4-1.3,8.5-3.4c-0.8,0.1-1.6,0.2-2.6,0.2
			c-3,0-4.4-1.5-4.4-3.8c0-3,2.3-6.6,5.3-6.6C781.9,326.7,784,330.4,784,334.8z M778.5,333.6c0.8,0,1.5-0.1,2.2-0.2
			c-0.3-1.6-1.2-3-2.4-3c-1.1,0-2,1.2-2,2.2C776.4,333.3,777,333.6,778.5,333.6z"/>
		<path class="st11" d="M809.7,335.3c0,1.5-0.6,2.7-2.2,2.7c-2.3,0-4.1-0.6-5.2-2.1c-1,0.4-2,0.5-3,0.5c-3.5,0-5.7-1.7-5.7-4.1
			c0-2.7,2.7-5.6,7.7-7.3v-1.5l3.7-1.4l0.3,0.1v9.6c0,1.7,0.6,2.2,3,2.2C809.4,334,809.7,334.6,809.7,335.3z M801.3,332.4v-0.6v-3
			c-2.2,0.5-4,1.5-4.4,2.5c0.3,0.9,1.7,1.3,2.8,1.3C800.3,332.5,800.8,332.5,801.3,332.4z"/>
		<path class="st11" d="M819.6,335.3c0,1.5-0.5,2.7-2.1,2.7c-1.2,0-2.9-0.3-4-1.8c-1.1,1.4-2.8,1.8-5.9,1.8l0.9-4
			c0.9,0,1.9-0.1,2.6-0.4c0.1-0.5,0.2-1.2,0.2-2.4v-14.4l3.7-1l0.3,0.2v15.2c0,2.5,0.7,2.8,3.2,2.8
			C819.3,334,819.6,334.6,819.6,335.3z"/>
		<path class="st11" d="M818.3,334c0.9,0,1.9-0.1,2.6-0.4c0.1-0.5,0.2-1.2,0.2-2.4v-14.4l3.7-1l0.3,0.2v15c0,5.6-2.9,7-7.6,7
			L818.3,334z"/>
		<path class="st11" d="M860,332c0,1.9-0.8,4-2.5,5c-1.5,0.9-5.1,1.4-9.2,1.4h-2c-7.1,0-10.9-2.1-10.9-6c0-1.4,0.2-2.6,0.6-3.9
			l2.8-1.1l0.3,0.2c-0.2,1-0.3,1.8-0.3,2.7c0,3.3,2.6,4.2,8.8,4.2h1.8c3,0,5.9-0.3,7.1-0.7c0.1-1.1-0.5-3-1.7-5.4l3.3-2.6h0.4
			C859.6,328.3,860,330.6,860,332z M846.4,325.4l-3.3-2.3l2-3l3.1,2.1l1.4-2.1l3.3,2.2l-2,3.1l-3.1-2.2L846.4,325.4z"/>
		<path class="st11" d="M863.7,331.5v-14.7l3.7-1l0.3,0.2v15.2c0,2.2,0.9,2.8,3.2,2.8c0.9,0,1.3,0.5,1.3,1.3c0,1.6-0.6,2.7-2.1,2.7
			C865.8,338,863.7,336.1,863.7,331.5z"/>
		<path class="st11" d="M883.7,335.3c0,1.5-0.5,2.7-2.1,2.7c-2.4,0-4.6-0.5-5.8-1.5c-1.2,1-2.6,1.5-4.7,1.5H870l0.9-4h0.7
			c0.8,0,1.8-0.1,2.2-0.4c0.3-0.8,0.7-2.4,1.1-4.5l4.1-1l0.3,0.2c-0.4,1.9-0.9,3.6-1.5,5c0.9,0.4,2.4,0.6,4.5,0.6
			C883.4,334,883.7,334.6,883.7,335.3z M877.5,340.3l3.3,2.2l-2,3.1l-3.1-2.2l-1.5,2.2l-3.3-2.3l2-3l3.2,2.2L877.5,340.3z"/>
		<path class="st11" d="M903.9,335.3c0,1.5-0.5,2.7-2.1,2.7c-5.2,0-7-1.3-8.3-3.5l-1.2,0.6c-4.4,2.2-7.3,2.9-10.8,2.9l0.9-4
			c3.2,0,5.1-0.4,8.8-1.7c1-0.4,1.8-0.6,2.5-0.9c-0.3-0.1-0.7-0.3-1.1-0.5c-2.6-1.2-4-1.6-5.3-1.6c-1.4,0-2.6,0.3-3.7,0.6l-0.2-0.1
			l1.4-3.6c0.7-0.4,1.9-0.7,2.9-0.7c1.1,0,2.4,0.4,4.9,1.5c3.4,1.5,5.4,2,7.6,2.1l-0.7,3.6c-0.9,0-1.7,0.1-2.7,0.4
			c1,0.6,2.6,0.8,5.8,0.8C903.6,334,903.9,334.6,903.9,335.3z"/>
		<path class="st11" d="M915.4,335.3c0,1.5-0.5,2.7-2.1,2.7c-2.4,0-4.6-0.5-5.8-1.5c-1.2,1-2.6,1.5-4.7,1.5h-1.1l0.9-4h0.7
			c0.8,0,1.8-0.1,2.2-0.4c0.3-0.8,0.7-2.4,1.1-4.5l4.1-1l0.3,0.2c-0.4,1.9-0.9,3.6-1.5,5c0.9,0.4,2.4,0.6,4.5,0.6
			C915.1,334,915.4,334.6,915.4,335.3z M907.1,325.1l-3.3-2.3l2-3l3.1,2.1l1.4-2.1l3.3,2.2l-2,3.1l-3.1-2.2L907.1,325.1z"/>
		<path class="st11" d="M914.1,334c0.9,0,1.9-0.1,2.6-0.4c0.1-0.5,0.2-1.2,0.2-2.4v-14.4l3.7-1l0.3,0.2v15c0,5.6-2.9,7-7.6,7
			L914.1,334z"/>
		<path class="st11" d="M924.8,338v-21.2l3.7-1l0.3,0.2l-0.1,21.4l-3.7,0.8L924.8,338z"/>
		<path class="st11" d="M457,385.1c0-2.4,1.3-4.7,3.1-7l1.9,1.2c-0.9,1.2-1.6,2.5-1.6,3.4c0,1.3,1.5,1.1,1.5,3
			c0,1.2-0.9,2.5-2.4,2.5C457.9,388.2,457,387,457,385.1z"/>
		<path class="st11" d="M478.9,385.3c0,1.5-0.5,2.7-2.1,2.7c-2.2,0-3.9-0.6-4.9-2.1c-1,0.4-1.9,0.5-2.8,0.5c-3.3,0-5.4-1.7-5.4-4.1
			c0-2.7,2.5-5.6,7.3-7.3v-1.5l3.5-1.4l0.3,0.1v9.6c0,1.7,0.6,2.2,2.9,2.2C478.6,384,478.9,384.6,478.9,385.3z M471,382.4v-0.6v-3
			c-2.1,0.5-3.8,1.5-4.2,2.5c0.3,0.9,1.6,1.3,2.7,1.3C470,382.5,470.5,382.5,471,382.4z"/>
		<path class="st11" d="M483.1,375.7c1,2.3,1.7,5.1,1.7,6.6c0,1.7-0.5,3.2-1.6,4.3c-1,1-2.4,1.4-5.4,1.4h-1l0.8-4h0.9
			c1.1,0,2.5-0.1,2.9-0.3c0.2-1.2-0.7-3.4-1.7-5.5l3-2.6H483.1z M480,373.2l-3.1-2.3l1.9-3l2.9,2.1l1.4-2.1l3.1,2.2l-1.9,3.1l-3-2.2
			L480,373.2z"/>
		<path class="st11" d="M488.3,381.5v-14.7l3.5-1l0.3,0.2v15.2c0,2.2,0.8,2.8,3,2.8c0.9,0,1.2,0.5,1.2,1.3c0,1.6-0.6,2.7-2,2.7
			C490.3,388,488.3,386.1,488.3,381.5z"/>
		<path class="st11" d="M506.6,371.9l-6.4,3.4c4.9,3.5,5.8,5.4,5.8,7.2c0,3.2-2.3,5.5-8.5,5.5h-3l0.8-4h2c2.4,0,4.8-0.4,5.6-0.8
			c0-1.5-3.5-4-6.5-5.9l-0.2-0.2l0.9-4.5l10.5-5.7l0.3,0.2L506.6,371.9z"/>
		<path class="st11" d="M521,385.3c0,1.5-0.5,2.7-2,2.7c-1.1,0-1.8-0.2-2.5-0.5c-1.2,3.2-4.7,5.5-9.1,6.3l-2-2.9l0.2-0.3
			c4.8-0.9,7.6-3,8.5-5c-0.7-1.6-1.5-3.4-2.2-5.1l2.7-3.3h0.4l1.3,3.9c0.9,2.5,1.5,2.8,3.6,2.8C520.7,384,521,384.6,521,385.3z"/>
		<path class="st11" d="M519.7,384h0.3c1.1,0,2.5-0.1,2.9-0.3c0.2-1.2-0.7-3.4-1.7-5.5l3.1-2.6h0.3c1,2.3,1.7,5.1,1.7,6.6
			c0,1.7-0.5,3.1-1.6,4.3c-1,1-2.4,1.4-5.4,1.4h-0.4L519.7,384z M520.7,393.5l2-3.1l3.2,2.3l-2,3.2L520.7,393.5z"/>
		<path class="st11" d="M539.7,384.8c0,4.4-3.2,8.8-10.1,8.9l-1.8-3l0.2-0.4c4.2-0.1,7-1.3,8.1-3.4c-0.7,0.1-1.5,0.2-2.4,0.2
			c-2.8,0-4.2-1.5-4.2-3.8c0-3,2.2-6.6,5-6.6C537.7,376.7,539.7,380.4,539.7,384.8z M534.4,383.6c0.8,0,1.4-0.1,2.1-0.2
			c-0.2-1.6-1.1-3-2.3-3c-1.1,0-1.9,1.2-1.9,2.2C532.4,383.3,533,383.6,534.4,383.6z"/>
		<path class="st11" d="M577.7,365.8l0.3,0.2v15c0,5.3-2.5,6.8-6.7,7h-0.2c0,0-0.1,0-0.1,0h-0.2c-1.1-0.1-2.5-0.5-3.5-1.8
			c-1,1.3-2.5,1.8-5.2,1.8h-0.2c0,0-0.1,0-0.1,0h-0.2c-2.1-0.1-3.6-0.7-4.6-2.1c-1,0.4-1.9,0.5-2.8,0.5c-3.3,0-5.4-1.7-5.4-4.1
			c0-2.7,2.5-5.6,7.3-7.3v-1.5l3.5-1.4l0.3,0.1v9.6c0,1.6,0.5,2.2,2.7,2.2c0.8,0,1.7-0.1,2.3-0.4c0.1-0.5,0.2-1.2,0.2-2.4v-10.9
			l3.5-1l0.3,0.2v11.7c0,2.4,0.7,2.8,2.8,2.8c0.8,0,1.7-0.1,2.3-0.4c0.1-0.5,0.2-1.2,0.2-2.4v-14.4L577.7,365.8z M556.1,382.4v-0.6
			v-3c-2.1,0.5-3.8,1.5-4.2,2.5c0.3,0.9,1.6,1.3,2.7,1.3C555.2,382.5,555.6,382.5,556.1,382.4z M562.4,364.6c0-0.4,0.1-1.3,0.3-1.9
			l2.1-0.1c-0.1,0.5-0.1,1.1-0.1,1.4c0,0.8,0.2,1.1,0.7,1.1c0.6,0,0.8-0.4,0.8-2.3l1.9-0.2c0,0.6,0,1,0,1.3c0,0.8,0.3,1.1,0.8,1.1
			c0.6,0,0.7-0.4,0.7-1.2c0-0.6-0.2-1.2-0.3-1.8l2.1-0.5c0.2,0.8,0.5,1.6,0.5,2.5c0,1.9-0.9,3.3-2.9,3.3c-0.8,0-1.4-0.3-1.8-0.8
			c-0.5,0.5-1.2,0.8-2,0.8C563.1,367.5,562.4,366.1,562.4,364.6z M568.4,360.9h-2.7v-4.1h2.7V360.9z M585.4,366l-0.1,21.4l-3.5,0.8
			l-0.2-0.2v-21.2l3.5-1L585.4,366z"/>
		<path class="st11" d="M610.1,385.3c0,1.5-0.5,2.7-2.1,2.7c-2.2,0-3.9-0.6-4.9-2.1c-1,0.4-1.9,0.5-2.8,0.5c-3.3,0-5.4-1.7-5.4-4.1
			c0-2.7,2.5-5.6,7.3-7.3v-1.5l3.5-1.4l0.3,0.1v9.6c0,1.7,0.6,2.2,2.9,2.2C609.8,384,610.1,384.6,610.1,385.3z M599.5,369.9
			l-3.1-2.3l1.9-3l2.9,2.1l1.4-2.1l3.1,2.2l-1.9,3.1l-3-2.2L599.5,369.9z M602.1,382.4v-0.6v-3c-2.1,0.5-3.8,1.5-4.2,2.5
			c0.3,0.9,1.6,1.3,2.7,1.3C601.2,382.5,601.7,382.5,602.1,382.4z"/>
		<path class="st11" d="M626.3,385.3c0,1.6-0.6,2.7-2.1,2.7c-1.3,0-2.3-0.3-3.1-1.1c-0.6,1-1.4,1.5-2.6,1.5c-1.3,0-3.3-0.7-5.4-2.2
			c-1.2,1.6-2.8,1.8-5,1.8l0.8-4c1.3,0,1.7-0.2,2.4-1.5c1.7-3,3.2-5.8,5.7-5.8c2.2,0,3.4,2.1,4.7,4.8c1,2.1,1.5,2.6,3.3,2.6
			C625.9,384,626.3,384.6,626.3,385.3z M619.3,384.1l-0.1-0.2c-0.9-2.3-1.7-3.4-2.4-3.4c-0.7,0-1.4,1.2-2.2,2.8
			c1.2,0.8,2.4,1.4,3.3,1.4C618.6,384.7,619,384.4,619.3,384.1z"/>
		<path class="st11" d="M641.9,380.1l-1,3.8c-2.1,0.3-5,1-8.1,2.1c-4.2,1.5-6.4,2-8.6,2l0.8-4c2.4,0,4-0.2,7.9-1.2
			c1.3-0.4,2.3-0.6,3.2-0.9c-0.4-0.2-0.9-0.4-1.5-0.7c-2.4-1.3-3.7-1.8-5-1.8c-1.4,0-2.5,0.3-3.5,0.6l-0.2-0.2l1.3-3.5
			c0.7-0.4,1.8-0.7,2.8-0.7c1.4,0,2.6,0.5,5.7,2.1C639.1,379.5,640.5,380,641.9,380.1z"/>
		<path class="st11" d="M639.1,390.9l0.2-0.3c5-0.9,8.5-3.4,8.5-4.5c-0.1-1.1-1.1-3.6-2.2-5.5l2.7-3.2h0.3c1.4,2.6,2,5.7,2,7.7
			c0,1.2-0.2,2.5-0.9,3.7c-1.3,2.5-4.7,4.5-8.7,5.2L639.1,390.9z"/>
		<path class="st11" d="M664.1,384.8c0,4.4-3.2,8.8-10.1,8.9l-1.8-3l0.2-0.4c4.2-0.1,7-1.3,8.1-3.4c-0.7,0.1-1.5,0.2-2.4,0.2
			c-2.8,0-4.2-1.5-4.2-3.8c0-3,2.2-6.6,5-6.6C662.2,376.7,664.1,380.4,664.1,384.8z M658.9,383.6c0.8,0,1.4-0.1,2.1-0.2
			c-0.2-1.6-1.1-3-2.2-3c-1.1,0-1.9,1.2-1.9,2.2C656.9,383.3,657.5,383.6,658.9,383.6z"/>
		<path class="st11" d="M698.4,385.3c0,1.5-0.4,2.7-2.1,2.7H695c-0.5,3.8-5.4,6-12.1,6c-6.3,0-9.2-2.9-9.2-6.8
			c0-1.2,0.2-2.5,0.5-3.6l3.1-1.1l0.3,0.2c-0.2,1.3-0.3,2-0.3,2.8c0,2.8,1.4,4.6,6.2,4.6c3.6,0,7.2-0.7,8.2-1.9
			c0-0.8-0.9-1.3-4.2-2.2l1.1-3.8c3.2,1,5.6,1.9,8.5,1.9C698.2,384,698.4,384.6,698.4,385.3z M684.6,396.3l3.1,2.2l-1.9,3.1
			l-2.9-2.2l-1.4,2.2l-3.1-2.3l1.9-3l3,2.2L684.6,396.3z"/>
		<path class="st11" d="M708.6,385.3c0,1.5-0.5,2.7-2,2.7s-3.5-0.5-4.7-1.5c-1.2,1-2.7,1.5-4.9,1.5h-0.6l0.8-4h0.5
			c1.2,0,2-0.1,2.4-0.4c0.3-0.8,0.7-2.4,1-4.5l3.9-1l0.3,0.2c-0.4,1.9-0.9,3.6-1.5,5c0.9,0.4,2,0.6,3.4,0.6
			C708.3,384,708.6,384.6,708.6,385.3z M701.1,390.3l3.2,2.3l-2,3.2l-3.3-2.4L701.1,390.3z"/>
		<path class="st11" d="M718.8,385.3c0,1.5-0.5,2.7-2,2.7s-3.5-0.5-4.7-1.5c-1.2,1-2.7,1.5-4.9,1.5h-0.6l0.8-4h0.5
			c1.2,0,2-0.1,2.4-0.4c0.3-0.8,0.7-2.4,1-4.5l3.9-1l0.3,0.2c-0.4,1.9-0.9,3.6-1.5,5c0.9,0.4,2,0.6,3.4,0.6
			C718.5,384,718.8,384.6,718.8,385.3z M713.7,375.5l-3.3-2.4l2-3.1l3.2,2.4L713.7,375.5z"/>
		<path class="st11" d="M717.6,384c0.9,0,1.8-0.1,2.4-0.4c0.1-0.5,0.2-1.2,0.2-2.4v-14.4l3.5-1l0.3,0.2v15c0,5.6-2.7,7-7.3,7
			L717.6,384z"/>
		<path class="st11" d="M727.7,388v-21.2l3.5-1l0.3,0.2l-0.1,21.4l-3.5,0.8L727.7,388z"/>
		<path class="st11" d="M742.1,381.5v-14.7l3.5-1l0.3,0.2v15.2c0,2.2,0.8,2.8,3,2.8c0.9,0,1.2,0.5,1.2,1.3c0,1.6-0.6,2.7-2,2.7
			C744.1,388,742.1,386.1,742.1,381.5z"/>
		<path class="st11" d="M764.4,385.3c0,1.8-0.7,2.7-2,2.7h-1.8c0.5,0.7,0.7,1.5,0.7,2.3c0,2.5-2.1,4.1-4.6,4.1
			c-3.7,0-6.2-2.3-6.7-6.4h-1.9l0.8-4h1.2c0.6-2.8,1.9-5.8,3.7-8l2.5-1.5l0.2,0c2.9,2.2,4.2,4.1,4.2,6c0,1.2-0.6,2.8-1.5,3.5h3.9
			C763.9,384,764.4,384.5,764.4,385.3z M754.8,387.7c-0.4,0-0.9,0.1-1.3,0.2c0.4,1.9,1.8,3,3.6,3c0.6,0,1.1-0.2,1.3-0.4
			C758.4,389.2,757,387.7,754.8,387.7z M753.6,384.3c2.1-0.2,3.6-1.3,3.6-3.3c0-0.9-0.4-1.7-1.2-2.7
			C754.7,380.1,753.9,382.2,753.6,384.3z"/>
		<path class="st11" d="M769.7,395.7l-2.9-2.2l-1.4,2.2l-3.1-2.3l1.9-3l3,2.2l1.4-2.2l3.1,2.2L769.7,395.7z M763.3,388h-1l0.8-4h0.9
			c1.1,0,2.5-0.1,2.9-0.3c0.2-1.2-0.7-3.4-1.7-5.5l3-2.6h0.3c1,2.3,1.7,5.1,1.7,6.6c0,1.7-0.5,3.2-1.6,4.3
			C767.7,387.6,766.3,388,763.3,388z"/>
		<path class="st11" d="M780,363.9c-1.5,0.2-3.5,0.4-5.9,0.4l-0.2-2.3c0.4,0,0.9,0,1.4,0c-0.4-0.6-0.7-1.3-0.7-2
			c0-1.6,1-2.8,2.7-2.8c0.6,0,1.5,0.2,2.2,0.5l-0.5,2.1c-0.5-0.2-1-0.3-1.3-0.3c-0.7,0-1,0.4-1,1c0,0.5,0.2,0.9,0.6,1.3
			c0.9-0.1,1.8-0.1,2.6-0.2L780,363.9z M778.5,365.8l0.3,0.2l-0.1,21.4l-3.5,0.8L775,388v-21.2L778.5,365.8z"/>
		<path class="st11" d="M815.2,385.3c0,1.5-0.5,2.7-2,2.7c-1.6,0-3-0.5-4-1.8c-1.4,1.5-3.9,2.1-8.3,2.1H799c-6.7,0-10.4-2.1-10.4-6
			c0-1.4,0.2-2.6,0.5-3.9l2.7-1.1l0.3,0.2c-0.2,1-0.3,1.8-0.3,2.7c0,3.3,2.4,4.2,8.4,4.2h1.7c2.4,0,4.4-0.4,5-0.8
			c0.1-0.5,0.2-1.2,0.2-2.4v-14.4l3.5-1l0.3,0.2v14.3c0,2.8,0.5,3.6,3,3.6C814.9,384,815.2,384.6,815.2,385.3z M797,376.8
			c0.5,0,0.9,0,1.4,0c-0.4-0.6-0.7-1.3-0.7-2c0-1.6,1-2.8,2.7-2.8c0.6,0,1.5,0.2,2.2,0.5l-0.5,2c-0.5-0.2-1-0.3-1.3-0.3
			c-0.6,0-1.1,0.3-1.1,1c0,0.5,0.2,1,0.6,1.4c0.9-0.1,1.8-0.1,2.6-0.2l0.2,2.1c-1.5,0.2-3.6,0.4-6,0.4L797,376.8z"/>
		<path class="st11" d="M826.1,385.3c0,1.5-0.5,2.7-2,2.7c-2.3,0-4.3-0.5-5.5-1.5c-1.1,1-2.5,1.5-4.4,1.5h-1l0.8-4h0.7
			c0.8,0,1.7-0.1,2.1-0.4c0.3-0.8,0.7-2.4,1.1-4.5l3.9-1l0.3,0.2c-0.4,1.9-0.9,3.6-1.4,5c0.9,0.4,2.2,0.6,4.3,0.6
			C825.8,384,826.1,384.6,826.1,385.3z M820.2,390.3l3.1,2.2l-1.9,3.1l-2.9-2.2l-1.4,2.2l-3.1-2.3l1.9-3l3,2.2L820.2,390.3z"/>
		<path class="st11" d="M835.6,385.3c0,1.5-0.5,2.7-2,2.7c-1.2,0-2.8-0.3-3.8-1.8c-1.1,1.4-2.6,1.8-5.6,1.8l0.8-4
			c0.9,0,1.8-0.1,2.4-0.4c0.1-0.5,0.2-1.2,0.2-2.4v-14.4l3.5-1l0.3,0.2v15.2c0,2.5,0.7,2.8,3,2.8C835.3,384,835.6,384.6,835.6,385.3
			z"/>
		<path class="st11" d="M848.1,383.6l-1.1,3.6c-2.4,0.5-6.1,0.8-13.5,0.8l0.8-4h2.2c-0.5-1-0.8-2-0.8-3.1c0-4,2.8-6.2,6.4-6.2
			c1.4,0,3.1,0.4,4.4,1l-0.4,3.4l-0.1,0.1c-1-0.3-2.2-0.6-3.1-0.6c-1.8,0-2.8,0.9-2.8,2.7c0,0.8,0.4,1.8,1,2.7
			c2.5-0.1,4.7-0.3,6.9-0.5L848.1,383.6z"/>
		<path class="st11" d="M870.2,384.5c0,2.7-0.7,4-2.4,4c-1.1,0-2.5-0.2-3.9-0.2c-0.9,0-1.9,0.2-2.7,0.5c-0.5,2.3,0.6,6.8,0.9,9.2
			l-3.4,1.6l-0.3-0.2c-0.4-2.7-1.2-6.3-1.2-8.3c0-3,2.1-6.7,6.7-6.7c1,0,2.1,0.1,3,0.3c-0.2-2.2-1.7-4.2-3.3-4.2
			c-1,0-1.9,0.8-2.4,2.5l-1.6,0.2l-0.3-0.2c0.3-4,2.8-6.3,5.2-6.3C868,376.7,870.2,380.8,870.2,384.5z"/>
		<path class="st11" d="M890.5,385.3c0,1.6-0.6,2.7-2,2.7c-3,0-4.9-1.1-5.7-3.6c-2.5,2.8-5.7,3.7-8.8,3.7l-1.8-3.8l0.1-0.2
			c2.3-0.1,4.8-0.4,6.9-1.3c-1.5-2.6-3.3-4.7-6.7-8l1.2-4.2l0.2-0.1c3.8,3.8,6.7,8.1,7.8,10.5c0.2-0.3,0.5-0.6,0.7-1v-13.2l3.5-1
			l0.3,0.2v15.2c0,2.2,0.8,2.8,3,2.8C890.2,384,890.5,384.5,890.5,385.3z"/>
		<path class="st11" d="M916.2,385.3c0,1.5-0.5,2.7-2,2.7c-1.5,0-3.3-0.5-4.6-1.4c-1,0.9-2.4,1.4-3.9,1.4h0h0c-1.7,0-2.9-0.4-4-0.9
			c-0.8,0.6-1.7,0.9-2.9,0.9c-1.9,0-3.6-0.7-4.7-1.4c-1.2,1-2.9,1.4-5.7,1.4l0.8-4c2,0,2.8-0.1,3.3-0.4c0.2-0.6,0.5-2.2,0.7-3.6
			l4.1-0.7l0.1,0.1c-0.5,1.6-0.9,2.9-1.4,4c0.9,0.3,2,0.5,3,0.5c0.5,0,0.9-0.1,1.1-0.3c0.2-0.4,0.6-2.2,0.9-3.7l3.8-0.7l0.1,0.1
			c-0.5,1.6-0.9,3-1.3,4.2c0.8,0.2,1.5,0.3,2.3,0.3c0.6,0,1.2-0.1,1.7-0.4c0.1-0.4,0.2-0.9,0.2-1.7c0-0.9-0.1-2-0.2-3l3.8-1.5
			l0.2,0.1c0.1,0.8,0.1,1.4,0.1,2.1c0,1.4-0.2,2.7-0.5,3.7c0.9,0.4,2.1,0.6,3.5,0.6C915.9,384,916.2,384.6,916.2,385.3z"/>
		<path class="st11" d="M915,384c0.9,0,1.8-0.1,2.4-0.4c0.1-0.5,0.2-1.2,0.2-2.4v-14.4l3.5-1l0.3,0.2v15c0,5.6-2.7,7-7.3,7L915,384z
			"/>
		<path class="st11" d="M925.1,388v-21.2l3.5-1l0.3,0.2l-0.1,21.4l-3.5,0.8L925.1,388z"/>
		<path class="st11" d="M483.8,435.1c0-2.4,1.3-4.7,3.2-7l2,1.2c-0.9,1.2-1.7,2.5-1.7,3.4c0,1.3,1.6,1.1,1.6,3
			c0,1.2-0.9,2.5-2.5,2.5C484.7,438.2,483.8,437,483.8,435.1z"/>
		<path class="st11" d="M513,435.3c0,1.5-0.5,2.7-2.1,2.7c-0.8,0-1.5-0.2-2.1-0.6c-1.2,4.5-4.9,6.5-9.8,6.5c-5,0-7.8-2.7-7.8-6.7
			c0-1.5,0.4-3,0.6-3.9l2.9-1.1l0.4,0.1c-0.2,1.2-0.2,2.1-0.2,3c0,2.6,1.2,4.5,5,4.5c2.8,0,4.7-1.1,5.5-2.2c0.4-2-0.6-4.4-1.8-6.9
			l3.5-2.5h0.2c0.3,0.7,1.1,3.5,1.5,4.2c0.5,1,1.3,1.4,3,1.4C512.6,434,513,434.6,513,435.3z M499.9,427.9l-3.4-2.4l2.1-3.1l3.4,2.4
			L499.9,427.9z"/>
		<path class="st11" d="M524.5,435.3c0,1.5-0.5,2.7-2.1,2.7c-2.4,0-4.6-0.5-5.8-1.5c-1.2,1-2.6,1.5-4.7,1.5h-1.1l0.9-4h0.7
			c0.8,0,1.8-0.1,2.2-0.4c0.3-0.8,0.7-2.4,1.1-4.5l4.1-1l0.3,0.2c-0.4,1.9-0.9,3.6-1.5,5c0.9,0.4,2.4,0.6,4.5,0.6
			C524.2,434,524.5,434.6,524.5,435.3z M518.3,440.3l3.3,2.2l-2,3.1l-3.1-2.2l-1.5,2.2l-3.3-2.3l2-3l3.2,2.2L518.3,440.3z"/>
		<path class="st11" d="M544.7,435.3c0,1.5-0.5,2.7-2.1,2.7c-5.2,0-7-1.3-8.3-3.5l-1.2,0.6c-4.4,2.2-7.3,2.9-10.8,2.9l0.9-4
			c3.2,0,5.1-0.4,8.8-1.7c1-0.4,1.8-0.6,2.5-0.9c-0.3-0.1-0.7-0.3-1.1-0.5c-2.6-1.2-4-1.6-5.3-1.6c-1.4,0-2.6,0.3-3.7,0.6l-0.2-0.1
			l1.4-3.6c0.7-0.4,1.9-0.7,2.9-0.7c1.1,0,2.4,0.4,4.9,1.5c3.4,1.5,5.4,2,7.6,2.1l-0.7,3.6c-0.9,0-1.7,0.1-2.7,0.4
			c1,0.6,2.6,0.8,5.8,0.8C544.4,434,544.7,434.6,544.7,435.3z"/>
		<path class="st11" d="M543.5,434c0.9,0,1.9-0.1,2.6-0.4c0.1-0.5,0.2-1.2,0.2-2.4v-14.4l3.7-1l0.3,0.2v15c0,5.6-2.9,7-7.6,7
			L543.5,434z"/>
		<path class="st11" d="M554.1,431.5v-14.7l3.7-1l0.3,0.2v15.2c0,2.2,0.9,2.8,3.2,2.8c0.9,0,1.3,0.5,1.3,1.3c0,1.6-0.6,2.7-2.1,2.7
			C556.3,438,554.1,436.1,554.1,431.5z"/>
		<path class="st11" d="M590.4,435.3c0,1.5-0.5,2.7-2.1,2.7c-1.5,0-3.4-0.4-4.7-1.3c-1.8,1.2-4,1.3-8.1,1.3H572
			c-3.4,0-5.2-0.1-7.3-1c-1.1,0.7-2.4,1-4.3,1l0.9-4c0.7,0,1.6-0.1,2.1-0.3c0.3-0.7,0.5-1.8,0.8-3.3l4.3-0.6l0.1,0.1
			c-0.5,1.5-0.9,2.7-1.4,3.7c0.7,0.2,1.6,0.3,2.6,0.3c5.4-5.2,8.7-7.9,11.6-7.9c3.1,0,4.9,3.1,4.9,5.6c0,0.7-0.1,1.3-0.3,1.9
			c0.8,0.3,1.9,0.4,3.2,0.4C590,434,590.4,434.6,590.4,435.3z M582.7,433.6c0.2-0.3,0.3-0.7,0.3-1.2c0-1.1-0.8-2.5-2.1-2.5
			c-1.5,0-4,1.5-7.1,4.2h3.1C580.7,434,581.9,433.9,582.7,433.6z"/>
		<path class="st11" d="M589.1,434c0.9,0,1.9-0.1,2.6-0.4c0.1-0.5,0.2-1.2,0.2-2.4v-14.4l3.7-1l0.3,0.2v15c0,5.6-2.9,7-7.6,7
			L589.1,434z"/>
		<path class="st11" d="M599.8,438v-21.2l3.7-1l0.3,0.2l-0.1,21.4l-3.7,0.8L599.8,438z"/>
		<path class="st11" d="M644.1,415.8l0.3,0.2v15c0,5.3-2.6,6.8-7,7h-0.2c0,0-0.1,0-0.1,0h-0.3c-1.2-0.1-2.7-0.5-3.6-1.8
			c-1.1,1.3-2.6,1.8-5.4,1.8h-0.2c0,0-0.1,0-0.1,0h-0.2c-2.2-0.1-3.8-0.7-4.8-2.1c-1,0.4-2,0.5-3,0.5c-3.5,0-5.7-1.7-5.7-4.1
			c0-2.7,2.7-5.6,7.7-7.3v-1.5l3.7-1.4l0.3,0.1v9.6c0,1.6,0.6,2.2,2.8,2.2c0.9,0,1.8-0.1,2.4-0.4c0.1-0.5,0.2-1.2,0.2-2.4v-10.9
			l3.7-1l0.3,0.2v11.7c0,2.4,0.7,2.8,2.9,2.8c0.9,0,1.8-0.1,2.4-0.4c0.1-0.5,0.2-1.2,0.2-2.4v-14.4L644.1,415.8z M621.4,432.4v-0.6
			v-3c-2.2,0.5-4,1.5-4.4,2.5c0.3,0.9,1.7,1.3,2.8,1.3C620.4,432.5,620.9,432.5,621.4,432.4z M628,414.6c0-0.4,0.1-1.3,0.3-1.9
			l2.2-0.1c-0.1,0.5-0.1,1.1-0.1,1.4c0,0.8,0.3,1.1,0.8,1.1c0.6,0,0.9-0.4,0.9-2.3l2-0.2c0,0.6,0,1,0,1.3c0,0.8,0.4,1.1,0.9,1.1
			c0.6,0,0.8-0.4,0.8-1.2c0-0.6-0.2-1.2-0.3-1.8l2.2-0.5c0.3,0.8,0.5,1.6,0.5,2.5c0,1.9-1,3.3-3.1,3.3c-0.8,0-1.5-0.3-1.9-0.8
			c-0.5,0.5-1.2,0.8-2.1,0.8C628.7,417.5,628,416.1,628,414.6z M634.3,410.9h-2.8v-4.1h2.8V410.9z M652.2,416l-0.1,21.4l-3.7,0.8
			l-0.3-0.2v-21.2l3.7-1L652.2,416z"/>
		<path class="st11" d="M662.3,437.9l0.6-3.9l0.2-0.1c0.7,0.2,2.6,0.3,3.7,0.3c1.4,0,3.8-0.2,4.6-0.6c-0.5-1.9-2.9-4.9-5.2-7
			l2.5-3.6h0.3c3,3.2,5.5,6.8,5.5,9.8c0,3.6-3.2,5.5-7.9,5.5C665.1,438.3,663.1,438.1,662.3,437.9z"/>
		<path class="st11" d="M677.8,431.5v-14.7l3.7-1l0.3,0.2v15.2c0,2.2,0.9,2.8,3.2,2.8c0.9,0,1.3,0.5,1.3,1.3c0,1.6-0.6,2.7-2.1,2.7
			C679.9,438,677.8,436.1,677.8,431.5z"/>
		<path class="st11" d="M697,435.3c0,1.5-0.5,2.7-2.1,2.7c-1.6,0-3.7-0.5-5-1.5c-1.2,1-2.8,1.5-5.1,1.5h-0.6l0.9-4h0.6
			c1.2,0,2.1-0.1,2.5-0.4c0.3-0.8,0.7-2.4,1.1-4.5l4.1-1l0.3,0.2c-0.4,1.9-0.9,3.6-1.5,5c0.9,0.4,2.1,0.6,3.6,0.6
			C696.7,434,697,434.6,697,435.3z M689.2,440.3l3.4,2.3l-2.1,3.2l-3.4-2.4L689.2,440.3z"/>
		<path class="st11" d="M710.3,433.6l-1.2,3.6c-2.5,0.5-6.4,0.8-14.2,0.8l0.9-4h2.3c-0.5-1-0.8-2-0.8-3.1c0-4,3-6.2,6.7-6.2
			c1.5,0,3.2,0.4,4.6,1l-0.4,3.4l-0.1,0.1c-1-0.3-2.3-0.6-3.3-0.6c-1.9,0-3,0.9-3,2.7c0,0.8,0.4,1.8,1.1,2.7c2.6-0.1,5-0.3,7.2-0.5
			L710.3,433.6z"/>
		<path class="st11" d="M720,437.2c0-1.2,0.3-2.5,0.5-3.6l3.3-1.1l0.4,0.2c-0.3,1.3-0.4,2-0.4,2.8c0,2.8,1.5,4.6,6.5,4.6
			c3.8,0,7.6-0.7,8.6-1.9c0-0.7-0.8-1.6-5.2-2.5l1.1-3.4c6.1,1.4,7.6,3,7.6,5c-0.2,4.3-5.7,6.8-12.8,6.8
			C723.1,444,720,441,720,437.2z"/>
		<path class="st11" d="M752.1,434.9c0,1.5-0.5,2.7-2.1,2.7c-2.6,0-4.4-1.2-5.3-3.5c-1.6,0.8-3.8,1.2-7.2,1.3l-2.6-3.3
			c3.4-0.1,7.1-0.6,8.5-1.2c0.2-0.6,0.3-1.6,0.3-2.4v-12l3.7-1l0.3,0.2v13c0,3.1,0.5,5,3.2,5C751.8,433.7,752.1,434.2,752.1,434.9z"
			/>
		<path class="st11" d="M765.3,433.2l-1.2,3.6c-2.5,0.5-6.4,0.8-14.2,0.8l0.9-4h2.3c-0.5-1-0.8-2-0.8-3.1c0-4,3-6.2,6.7-6.2
			c1.5,0,3.2,0.4,4.6,1l-0.4,3.4l-0.1,0.1c-1-0.3-2.3-0.6-3.3-0.6c-1.9,0-3,0.9-3,2.7c0,0.8,0.4,1.8,1.1,2.7c2.6-0.1,5-0.3,7.2-0.5
			L765.3,433.2z"/>
		<path class="st11" d="M779,434.8c0,4.4-3.4,8.8-10.6,8.9l-1.9-3l0.2-0.4c4.4-0.1,7.4-1.3,8.5-3.4c-0.8,0.1-1.6,0.2-2.6,0.2
			c-3,0-4.4-1.5-4.4-3.8c0-3,2.3-6.6,5.3-6.6C777,426.7,779,430.4,779,434.8z M773.5,433.6c0.8,0,1.5-0.1,2.2-0.2
			c-0.3-1.6-1.2-3-2.4-3c-1.1,0-2,1.2-2,2.2C771.4,433.3,772,433.6,773.5,433.6z"/>
		<path class="st11" d="M789.9,431.5v-14.7l3.7-1l0.3,0.2v15.2c0,2.2,0.9,2.8,3.2,2.8c0.9,0,1.3,0.5,1.3,1.3c0,1.6-0.6,2.7-2.1,2.7
			C792,438,789.9,436.1,789.9,431.5z"/>
		<path class="st11" d="M809.1,435.3c0,1.5-0.5,2.7-2.1,2.7c-1.6,0-3.7-0.5-5-1.5c-1.2,1-2.8,1.5-5.1,1.5h-0.6l0.9-4h0.6
			c1.2,0,2.1-0.1,2.5-0.4c0.3-0.8,0.7-2.4,1.1-4.5l4.1-1l0.3,0.2c-0.4,1.9-0.9,3.6-1.5,5c0.9,0.4,2.1,0.6,3.6,0.6
			C808.8,434,809.1,434.6,809.1,435.3z M803.7,425.5l-3.4-2.4l2.1-3.1l3.4,2.4L803.7,425.5z"/>
		<path class="st11" d="M820.6,435.3c0,1.5-0.5,2.7-2.1,2.7c-2.4,0-4.6-0.5-5.8-1.5c-1.2,1-2.6,1.5-4.7,1.5h-1.1l0.9-4h0.7
			c0.8,0,1.8-0.1,2.2-0.4c0.3-0.8,0.7-2.4,1.1-4.5l4.1-1l0.3,0.2c-0.4,1.9-0.9,3.6-1.5,5c0.9,0.4,2.4,0.6,4.5,0.6
			C820.3,434,820.6,434.6,820.6,435.3z M814.4,440.3l3.3,2.2l-2,3.1l-3.1-2.2l-1.5,2.2l-3.3-2.3l2-3l3.2,2.2L814.4,440.3z"/>
		<path class="st11" d="M830.5,435.3c0,1.5-0.5,2.7-2.1,2.7c-1.2,0-2.9-0.3-4-1.8c-1.1,1.4-2.8,1.8-5.9,1.8l0.9-4
			c0.9,0,1.9-0.1,2.6-0.4c0.1-0.5,0.2-1.2,0.2-2.4v-14.4l3.7-1l0.3,0.2v15.2c0,2.5,0.7,2.8,3.2,2.8
			C830.2,434,830.5,434.6,830.5,435.3z"/>
		<path class="st11" d="M843.8,433.6l-1.2,3.6c-2.5,0.5-6.4,0.8-14.2,0.8l0.9-4h2.3c-0.5-1-0.8-2-0.8-3.1c0-4,3-6.2,6.7-6.2
			c1.5,0,3.2,0.4,4.6,1l-0.4,3.4l-0.1,0.1c-1-0.3-2.3-0.6-3.3-0.6c-1.9,0-3,0.9-3,2.7c0,0.8,0.4,1.8,1.1,2.7c2.6-0.1,5-0.3,7.2-0.5
			L843.8,433.6z"/>
		<path class="st11" d="M867.1,434.5c0,2.7-0.7,4-2.5,4c-1.2,0-2.6-0.2-4.1-0.2c-1,0-2,0.2-2.8,0.5c-0.5,2.3,0.6,6.8,1,9.2l-3.6,1.6
			l-0.3-0.2c-0.4-2.7-1.2-6.3-1.2-8.3c0-3,2.2-6.7,7-6.7c1.1,0,2.2,0.1,3.1,0.3c-0.2-2.2-1.8-4.2-3.4-4.2c-1.1,0-2,0.8-2.5,2.5
			l-1.7,0.2l-0.3-0.2c0.3-4,3-6.3,5.4-6.3C864.7,426.7,867.1,430.8,867.1,434.5z"/>
		<path class="st11" d="M888.4,435.3c0,1.6-0.6,2.7-2.1,2.7c-3.2,0-5.2-1.1-6-3.6c-2.6,2.8-6,3.7-9.3,3.7l-1.9-3.8l0.1-0.2
			c2.5-0.1,5.1-0.4,7.2-1.3c-1.6-2.6-3.5-4.7-7-8l1.2-4.2l0.2-0.1c4,3.8,7,8.1,8.3,10.5c0.3-0.3,0.5-0.6,0.7-1v-13.2l3.7-1l0.3,0.2
			v15.2c0,2.2,0.9,2.8,3.2,2.8C888,434,888.4,434.5,888.4,435.3z"/>
		<path class="st11" d="M915.4,435.3c0,1.5-0.5,2.7-2.1,2.7c-1.5,0-3.5-0.5-4.8-1.4c-1.1,0.9-2.5,1.4-4.1,1.4h0h0
			c-1.8,0-3.1-0.4-4.2-0.9c-0.8,0.6-1.8,0.9-3,0.9c-2,0-3.8-0.7-4.9-1.4c-1.3,1-3.1,1.4-6,1.4l0.9-4c2.1,0,2.9-0.1,3.5-0.4
			c0.3-0.6,0.6-2.2,0.8-3.6l4.3-0.7l0.1,0.1c-0.5,1.6-1,2.9-1.4,4c0.9,0.3,2.1,0.5,3.2,0.5c0.5,0,0.9-0.1,1.2-0.3
			c0.3-0.4,0.6-2.2,1-3.7l4-0.7l0.1,0.1c-0.5,1.6-0.9,3-1.4,4.2c0.8,0.2,1.6,0.3,2.4,0.3c0.6,0,1.3-0.1,1.8-0.4
			c0.1-0.4,0.2-0.9,0.2-1.7c0-0.9-0.1-2-0.3-3l4-1.5l0.2,0.1c0.1,0.8,0.1,1.4,0.1,2.1c0,1.4-0.2,2.7-0.5,3.7
			c0.9,0.4,2.2,0.6,3.7,0.6C915.1,434,915.4,434.6,915.4,435.3z"/>
		<path class="st11" d="M914.1,434c0.9,0,1.9-0.1,2.6-0.4c0.1-0.5,0.2-1.2,0.2-2.4v-14.4l3.7-1l0.3,0.2v15c0,5.6-2.9,7-7.6,7
			L914.1,434z"/>
		<path class="st11" d="M924.8,438v-21.2l3.7-1l0.3,0.2l-0.1,21.4l-3.7,0.8L924.8,438z"/>
		<path class="st11" d="M720.2,465.8l0.3,0.2v15c0,5.3-2.6,6.8-7,7h-0.2c0,0-0.1,0-0.1,0h-0.3c-1.2-0.1-2.7-0.5-3.6-1.8
			c-1.1,1.3-2.6,1.8-5.4,1.8h-0.2c0,0-0.1,0-0.1,0h-0.2c-2.2-0.1-3.8-0.7-4.8-2.1c-1,0.4-2,0.5-3,0.5c-3.5,0-5.7-1.7-5.7-4.1
			c0-2.7,2.7-5.6,7.7-7.3v-1.5l3.7-1.4l0.3,0.1v9.6c0,1.6,0.6,2.2,2.8,2.2c0.9,0,1.8-0.1,2.4-0.4c0.1-0.5,0.2-1.2,0.2-2.4v-10.9
			l3.7-1l0.3,0.2v11.7c0,2.4,0.7,2.8,2.9,2.8c0.9,0,1.8-0.1,2.4-0.4c0.1-0.5,0.2-1.2,0.2-2.4v-14.4L720.2,465.8z M697.4,482.4v-0.6
			v-3c-2.2,0.5-4,1.5-4.4,2.5c0.3,0.9,1.7,1.3,2.8,1.3C696.4,482.5,697,482.5,697.4,482.4z M704.1,464.6c0-0.4,0.1-1.3,0.3-1.9
			l2.2-0.1c-0.1,0.5-0.1,1.1-0.1,1.4c0,0.8,0.3,1.1,0.8,1.1c0.6,0,0.9-0.4,0.9-2.3l2-0.2c0,0.6,0,1,0,1.3c0,0.8,0.4,1.1,0.9,1.1
			c0.6,0,0.8-0.4,0.8-1.2c0-0.6-0.2-1.2-0.3-1.8l2.2-0.5c0.3,0.8,0.5,1.6,0.5,2.5c0,1.9-1,3.3-3.1,3.3c-0.8,0-1.5-0.3-1.9-0.8
			c-0.5,0.5-1.2,0.8-2.1,0.8C704.8,467.5,704.1,466.1,704.1,464.6z M710.4,460.9h-2.8v-4.1h2.8V460.9z M728.3,466l-0.1,21.4
			l-3.7,0.8l-0.3-0.2v-21.2l3.7-1L728.3,466z"/>
		<path class="st11" d="M748.8,479c1.1,1.5,1.7,3,1.7,4.4c0,2.9-1.7,4.6-6.6,4.6h-4.5l0.2-3.9c2.1-1.2,4.1-2.5,5.5-4.5
			c-2.1-1.9-4.9-3.9-6.8-5.1l1.2-3.9l0.2-0.1c2.7,2,5,4,6.8,5.9c0.2-0.9,0.4-1.9,0.4-3c0-1.8-0.4-4.4-0.8-5.8l3.6-1.8l0.3,0.1
			c0.3,1.6,0.7,4.5,0.7,6.3C750.7,475,749.9,477.2,748.8,479z M747,481.5c-1.1,1.1-2.2,2-3,2.6h0.7c1.9,0,2.8-0.2,3.3-0.6
			C748,482.9,747.6,482.2,747,481.5z"/>
		<path class="st11" d="M760,496.5c-1.6,0.2-3.7,0.4-6.2,0.4l-0.2-2.3c0.4,0,1,0,1.4,0c-0.4-0.6-0.7-1.3-0.7-2c0-1.6,1-2.8,2.8-2.8
			c0.7,0,1.5,0.2,2.4,0.5l-0.5,2.1c-0.6-0.2-1-0.3-1.4-0.3c-0.7,0-1.1,0.4-1.1,1c0,0.5,0.2,0.9,0.6,1.3c0.9-0.1,1.9-0.1,2.7-0.2
			L760,496.5z M755,488.2l-0.3-0.2v-21.2l3.7-1l0.3,0.2l-0.1,21.4L755,488.2z"/>
		<path class="st11" d="M784.7,485.3c0,1.5-0.6,2.7-2.2,2.7c-2.3,0-4.1-0.6-5.2-2.1c-1,0.4-2,0.5-3,0.5c-3.5,0-5.7-1.7-5.7-4.1
			c0-2.7,2.7-5.6,7.7-7.3v-1.5l3.7-1.4l0.3,0.1v9.6c0,1.7,0.6,2.2,3,2.2C784.4,484,784.7,484.6,784.7,485.3z M776.4,482.4v-0.6v-3
			c-2.2,0.5-4,1.5-4.4,2.5c0.3,0.9,1.7,1.3,2.8,1.3C775.4,482.5,775.9,482.5,776.4,482.4z"/>
		<path class="st11" d="M783.4,484c0.9,0,1.9-0.1,2.6-0.4c0.1-0.5,0.2-1.2,0.2-2.4v-14.4l3.7-1l0.3,0.2v15c0,5.6-2.9,7-7.6,7
			L783.4,484z"/>
		<path class="st11" d="M799.4,496.5c-1.6,0.2-3.7,0.4-6.2,0.4l-0.2-2.3c0.4,0,1,0,1.4,0c-0.4-0.6-0.7-1.3-0.7-2
			c0-1.6,1-2.8,2.8-2.8c0.7,0,1.5,0.2,2.4,0.5l-0.5,2.1c-0.6-0.2-1-0.3-1.4-0.3c-0.7,0-1.1,0.4-1.1,1c0,0.5,0.2,0.9,0.6,1.3
			c0.9-0.1,1.9-0.1,2.7-0.2L799.4,496.5z M794.4,488.2l-0.3-0.2v-21.2l3.7-1l0.3,0.2l-0.1,21.4L794.4,488.2z"/>
		<path class="st11" d="M818.7,479c1.1,1.5,1.7,3,1.7,4.4c0,2.9-1.7,4.6-6.6,4.6h-4.5l0.2-3.9c2.1-1.2,4.1-2.5,5.5-4.5
			c-2.1-1.9-4.9-3.9-6.8-5.1l1.2-3.9l0.2-0.1c2.7,2,5,4,6.8,5.9c0.2-0.9,0.4-1.9,0.4-3c0-1.8-0.4-4.4-0.8-5.8l3.6-1.8l0.3,0.1
			c0.3,1.6,0.7,4.5,0.7,6.3C820.6,475,819.8,477.2,818.7,479z M816.8,481.5c-1.1,1.1-2.2,2-3,2.6h0.7c1.9,0,2.8-0.2,3.3-0.6
			C817.8,482.9,817.5,482.2,816.8,481.5z"/>
		<path class="st11" d="M831.1,487.3c0-1.1,0.3-3,0.6-3.9l2.9-1.1l0.4,0.1c-0.2,0.8-0.2,2-0.2,3c0,3,1.6,4.5,5,4.5
			c2.4,0,4.5-0.8,5.5-2.2c0.3-1.6-0.3-3.5-1.8-6.9l3.5-2.5h0.2c1,2.2,1.7,5.1,1.7,6.9c0,5.2-3.9,8.7-9.9,8.7
			C834,494,831.1,491.4,831.1,487.3z M836.3,475.4l2.1-3.1l3.4,2.4l-2.1,3.2L836.3,475.4z"/>
		<path class="st11" d="M857.6,463.9c-1.6,0.2-3.7,0.4-6.2,0.4l-0.2-2.3c0.4,0,1,0,1.5,0c-0.4-0.6-0.7-1.3-0.7-2
			c0-1.6,1-2.8,2.8-2.8c0.7,0,1.5,0.2,2.4,0.5l-0.5,2.1c-0.6-0.2-1-0.3-1.4-0.3c-0.7,0-1.1,0.4-1.1,1c0,0.5,0.2,0.9,0.6,1.3
			c1-0.1,1.9-0.1,2.7-0.2L857.6,463.9z M856.1,465.8l0.3,0.2l-0.1,21.4l-3.7,0.8l-0.3-0.2v-21.2L856.1,465.8z"/>
		<path class="st11" d="M883.2,485.3c0,1.5-0.5,2.7-2.2,2.7c-2,0-3.4-0.4-4.3-1.5c-1.5,1.1-3.9,1.8-6.6,1.8c-0.8,0-2.6-0.1-3.7-0.4
			l0.6-3.9l0.2-0.1c1.1,0.2,2.5,0.3,3.3,0.3c1.5,0,3.4-0.2,4.6-0.7c-0.7-1.3-2.4-4.7-3.7-7.2l2.9-3.3h0.4c0.8,2,2.9,6.9,3.4,8
			c1.1,2.7,1.8,3,3.9,3C882.9,484,883.2,484.6,883.2,485.3z"/>
		<path class="st11" d="M898.2,485.3c0,1.8-0.7,2.7-2.1,2.7h-1.9c0.5,0.7,0.7,1.5,0.7,2.3c0,2.5-2.2,4.1-4.9,4.1
			c-3.9,0-6.5-2.3-7-6.4h-2l0.9-4h1.3c0.6-2.8,2-5.8,3.9-8l2.6-1.5l0.3,0c3,2.2,4.4,4.1,4.4,6c0,1.2-0.7,2.8-1.6,3.5h4.1
			C897.7,484,898.2,484.5,898.2,485.3z M888.1,487.7c-0.4,0-0.9,0.1-1.4,0.2c0.4,1.9,1.9,3,3.8,3c0.6,0,1.1-0.2,1.4-0.4
			C891.9,489.2,890.4,487.7,888.1,487.7z M886.8,484.3c2.2-0.2,3.7-1.3,3.7-3.3c0-0.9-0.4-1.7-1.3-2.7
			C888,480.1,887.2,482.2,886.8,484.3z"/>
		<path class="st11" d="M921.1,482.3c0,3.8-3,5.7-7,5.7c-1.8,0-3.1-0.4-4.2-0.9c-0.8,0.6-1.8,0.9-3,0.9c-2,0-3.8-0.7-4.9-1.4
			c-1.3,1-3.1,1.4-6,1.4l0.9-4c2.1,0,2.9-0.1,3.5-0.4c0.3-0.6,0.6-2.2,0.8-3.6l4.3-0.7l0.1,0.1c-0.5,1.6-1,2.9-1.4,4
			c0.9,0.3,2.1,0.5,3.2,0.5c0.5,0,0.9-0.1,1.2-0.3c0.3-0.4,0.6-2.2,1-3.7l4-0.7l0.1,0.1c-0.5,1.6-0.9,3-1.4,4.2
			c0.8,0.2,1.6,0.3,2.4,0.3c1.1,0,2.2-0.1,2.9-0.4c0.2-1.2-0.8-3.6-1.6-5.3l3.5-2.6l0.2,0C920.5,478,921.1,480.4,921.1,482.3z
			 M909.3,475.1l-3.3-2.3l2-3l3.1,2.1l1.5-2.1l3.3,2.2l-2,3.1l-3.1-2.2L909.3,475.1z M911,470.6l-3.3-2.3l2-3l3.3,2.2L911,470.6z"/>
		<path class="st11" d="M930.1,463.9c-1.6,0.2-3.7,0.4-6.2,0.4l-0.2-2.3c0.4,0,1,0,1.5,0c-0.4-0.6-0.7-1.3-0.7-2
			c0-1.6,1-2.8,2.8-2.8c0.7,0,1.5,0.2,2.4,0.5l-0.5,2.1c-0.6-0.2-1-0.3-1.4-0.3c-0.7,0-1.1,0.4-1.1,1c0,0.5,0.2,0.9,0.6,1.3
			c1-0.1,1.9-0.1,2.7-0.2L930.1,463.9z M928.5,465.8l0.3,0.2l-0.1,21.4l-3.7,0.8l-0.3-0.2v-21.2L928.5,465.8z"/>
		<path class="st11" d="M565,535.9c0-1.3,1.2-2.5,2.6-2.5c1.4,0,2.6,1.2,2.6,2.5c0,1.4-1.2,2.6-2.6,2.6
			C566.2,538.4,565,537.3,565,535.9z"/>
		<path class="st11" d="M587.7,535.3c0,1.5-0.6,2.7-2.2,2.7c-2.3,0-4.1-0.6-5.2-2.1c-1,0.4-2,0.5-3,0.5c-3.5,0-5.7-1.7-5.7-4.1
			c0-2.7,2.7-5.6,7.7-7.3v-1.5l3.7-1.4l0.3,0.1v9.6c0,1.7,0.6,2.2,3,2.2C587.4,534,587.7,534.6,587.7,535.3z M579.3,532.4v-0.6v-3
			c-2.2,0.5-4,1.5-4.4,2.5c0.3,0.9,1.7,1.3,2.8,1.3C578.3,532.5,578.8,532.5,579.3,532.4z"/>
		<path class="st11" d="M586.4,534c0.9,0,1.9-0.1,2.6-0.4c0.1-0.5,0.2-1.2,0.2-2.4v-14.4l3.7-1l0.3,0.2v15c0,5.6-2.9,7-7.6,7
			L586.4,534z"/>
		<path class="st11" d="M611,535.3c0,1.5-0.5,2.7-2.2,2.7h-2c-1.3,3.2-4.5,5.7-10,5.7l-1.9-3l0.2-0.4c3.9-0.1,6.5-0.8,7.9-2.3
			c-4.4,0-6.3-1.8-6.3-4.7c0-3,2.3-6.7,5.3-6.7c3.1,0,5.2,3.3,5.4,7.4h2.2C610.7,534,611,534.6,611,535.3z M603.1,534h1.2
			c-0.2-2-1.2-3.6-2.4-3.6c-1.1,0-2,1.2-2,2.2C599.8,533.6,600.7,534,603.1,534z"/>
		<path class="st11" d="M634,532.3c0,3.8-3,5.7-7,5.7c-1.8,0-3.1-0.4-4.2-0.9c-0.8,0.6-1.8,0.9-3,0.9c-2,0-3.8-0.7-4.9-1.4
			c-1.3,1-3.1,1.4-6,1.4l0.9-4c2.1,0,2.9-0.1,3.5-0.4c0.3-0.6,0.6-2.2,0.8-3.6l4.3-0.7l0.1,0.1c-0.5,1.6-1,2.9-1.4,4
			c0.9,0.3,2.1,0.5,3.2,0.5c0.5,0,0.9-0.1,1.2-0.3c0.3-0.4,0.6-2.2,1-3.7l4-0.7l0.1,0.1c-0.5,1.6-0.9,3-1.4,4.2
			c0.8,0.2,1.6,0.3,2.4,0.3c1.1,0,2.2-0.1,2.9-0.4c0.2-1.2-0.8-3.6-1.6-5.3l3.5-2.6l0.2,0C633.3,528,634,530.4,634,532.3z"/>
		<path class="st11" d="M632.3,540.9l0.2-0.3c5.2-0.9,8.9-3.4,8.9-4.5c-0.1-1.1-1.2-3.6-2.3-5.5l2.9-3.2h0.4
			c1.4,2.6,2.1,5.7,2.1,7.7c0,1.2-0.3,2.5-0.9,3.7c-1.3,2.5-5,4.5-9.2,5.2L632.3,540.9z"/>
		<path class="st11" d="M658.6,534.8c0,4.4-3.4,8.8-10.6,8.9l-1.9-3l0.2-0.4c4.4-0.1,7.4-1.3,8.5-3.4c-0.8,0.1-1.6,0.2-2.6,0.2
			c-3,0-4.4-1.5-4.4-3.8c0-3,2.3-6.6,5.3-6.6C656.5,526.7,658.6,530.4,658.6,534.8z M653.1,533.6c0.8,0,1.5-0.1,2.2-0.2
			c-0.3-1.6-1.2-3-2.4-3c-1.1,0-2,1.2-2,2.2C650.9,533.3,651.5,533.6,653.1,533.6z"/>
		<path class="st11" d="M679.6,532.8c0,3.3-2.2,5.4-5.7,5.4c-3.4,0-5.3-1.6-5.3-4.5c0-1.6,0.7-3.5,3.1-6.4c-0.3-0.2-0.6-0.5-0.9-0.7
			l2-3.3l0.3-0.2C677.9,527.2,679.6,530,679.6,532.8z M676.2,532.7c0-1-0.8-2.1-2.2-3.5c-1.4,1.4-2,2.5-2,3.5c0,1,0.8,1.6,2,1.6
			C675.4,534.2,676.2,533.7,676.2,532.7z"/>
		<path class="st11" d="M698.8,535.3c0,1.5-0.5,2.7-2.2,2.7c-2,0-3.4-0.4-4.3-1.5c-1.5,1.1-3.9,1.8-6.6,1.8c-0.8,0-2.6-0.1-3.7-0.4
			l0.6-3.9l0.2-0.1c1.1,0.2,2.5,0.3,3.3,0.3c1.5,0,3.4-0.2,4.6-0.7c-0.7-1.3-2.4-4.7-3.7-7.2l2.9-3.3h0.4c0.8,2,2.9,6.9,3.4,8
			c1.1,2.7,1.8,3,3.9,3C698.5,534,698.8,534.6,698.8,535.3z"/>
		<path class="st11" d="M709.5,535.3c0,1.5-0.5,2.7-2.1,2.7c-1.6,0-3.7-0.5-5-1.5c-1.2,1-2.8,1.5-5.1,1.5h-0.6l0.9-4h0.6
			c1.2,0,2.1-0.1,2.5-0.4c0.3-0.8,0.7-2.4,1.1-4.5l4.1-1l0.3,0.2c-0.4,1.9-0.9,3.6-1.5,5c0.9,0.4,2.1,0.6,3.6,0.6
			C709.2,534,709.5,534.6,709.5,535.3z M701.7,540.3l3.4,2.3l-2.1,3.2l-3.4-2.4L701.7,540.3z"/>
		<path class="st11" d="M722.8,533.6l-1.2,3.6c-2.5,0.5-6.4,0.8-14.2,0.8l0.9-4h2.3c-0.5-1-0.8-2-0.8-3.1c0-4,3-6.2,6.7-6.2
			c1.5,0,3.2,0.4,4.6,1l-0.4,3.4l-0.1,0.1c-1-0.3-2.3-0.6-3.3-0.6c-1.9,0-3,0.9-3,2.7c0,0.8,0.4,1.8,1.1,2.7c2.6-0.1,5-0.3,7.2-0.5
			L722.8,533.6z"/>
		<path class="st11" d="M733.3,538v-21.2l3.7-1l0.3,0.2l-0.1,21.4l-3.7,0.8L733.3,538z"/>
		<path class="st11" d="M756.9,535.3c0,1.5-0.5,2.7-2.2,2.7c-2,0-3.4-0.4-4.3-1.5c-1.5,1.1-3.9,1.8-6.6,1.8c-0.8,0-2.6-0.1-3.7-0.4
			l0.6-3.9l0.2-0.1c1.1,0.2,2.5,0.3,3.3,0.3c1.5,0,3.4-0.2,4.6-0.7c-0.7-1.3-2.4-4.7-3.7-7.2l2.9-3.3h0.4c0.8,2,2.9,6.9,3.4,8
			c1.1,2.7,1.8,3,3.9,3C756.6,534,756.9,534.6,756.9,535.3z"/>
		<path class="st11" d="M774,535.3c0,1.6-0.7,2.7-2.2,2.7c-1.4,0-2.4-0.3-3.3-1.1c-0.6,1-1.5,1.5-2.7,1.5c-1.4,0-3.5-0.7-5.7-2.2
			c-1.3,1.6-2.9,1.8-5.3,1.8l0.9-4c1.4,0,1.8-0.2,2.6-1.5c1.8-3,3.3-5.8,6-5.8c2.4,0,3.6,2.1,4.9,4.8c1.1,2.1,1.6,2.6,3.5,2.6
			C773.6,534,774,534.6,774,535.3z M766.6,534.1l-0.1-0.2c-1-2.3-1.8-3.4-2.5-3.4c-0.7,0-1.5,1.2-2.3,2.8c1.2,0.8,2.5,1.4,3.5,1.4
			C765.9,534.7,766.3,534.4,766.6,534.1z"/>
		<path class="st11" d="M794.2,535.3c0,1.5-0.5,2.7-2.1,2.7c-5.2,0-7-1.3-8.3-3.5l-1.2,0.6c-4.4,2.2-7.3,2.9-10.8,2.9l0.9-4
			c3.2,0,5.1-0.4,8.8-1.7c1-0.4,1.8-0.6,2.5-0.9c-0.3-0.1-0.7-0.3-1.1-0.5c-2.6-1.2-4-1.6-5.3-1.6c-1.4,0-2.6,0.3-3.7,0.6l-0.2-0.1
			l1.4-3.6c0.7-0.4,1.9-0.7,2.9-0.7c1.1,0,2.4,0.4,4.9,1.5c3.4,1.5,5.4,2,7.6,2.1l-0.7,3.6c-0.9,0-1.7,0.1-2.7,0.4
			c1,0.6,2.6,0.8,5.8,0.8C793.9,534,794.2,534.6,794.2,535.3z"/>
		<path class="st11" d="M807.1,533.8c0,2.7-1.3,4.6-3.7,4.6c-1.6,0-3.9-0.5-6.3-2.2c-1.3,1.5-2.9,1.8-5.1,1.8l0.9-4
			c1.2,0,1.7-0.4,2.7-2.3c1.1-2,2.9-5.1,5.7-5.1C804.3,526.7,807.1,530.1,807.1,533.8z M803.7,534.2c-0.1-1.3-1.2-3.7-2.4-3.7
			c-0.8,0-1.5,1.2-2.3,2.7c1.3,0.8,2.6,1.3,3.5,1.3C802.8,534.5,803.3,534.4,803.7,534.2z"/>
		<path class="st11" d="M817,537.3c0-1.1,0.3-3,0.6-3.9l2.9-1.1l0.4,0.1c-0.2,0.8-0.2,2-0.2,3c0,3,1.6,4.5,5,4.5
			c2.4,0,4.5-0.8,5.5-2.2c0.3-1.6-0.3-3.5-1.8-6.9l3.5-2.5h0.2c1,2.2,1.7,5.1,1.7,6.9c0,5.2-3.9,8.7-9.9,8.7
			C820,544,817,541.4,817,537.3z M822.3,525.4l2.1-3.1l3.4,2.4l-2.1,3.2L822.3,525.4z"/>
		<path class="st11" d="M843.6,513.9c-1.6,0.2-3.7,0.4-6.2,0.4l-0.2-2.3c0.4,0,1,0,1.5,0c-0.4-0.6-0.7-1.3-0.7-2
			c0-1.6,1-2.8,2.8-2.8c0.7,0,1.5,0.2,2.4,0.5l-0.5,2.1c-0.6-0.2-1-0.3-1.4-0.3c-0.7,0-1.1,0.4-1.1,1c0,0.5,0.2,0.9,0.6,1.3
			c1-0.1,1.9-0.1,2.7-0.2L843.6,513.9z M842,515.8l0.3,0.2l-0.1,21.4l-3.7,0.8l-0.3-0.2v-21.2L842,515.8z"/>
		<path class="st11" d="M869.1,535.3c0,1.5-0.5,2.7-2.2,2.7c-2,0-3.4-0.4-4.3-1.5c-1.5,1.1-3.9,1.8-6.6,1.8c-0.8,0-2.6-0.1-3.7-0.4
			l0.6-3.9l0.2-0.1c1.1,0.2,2.5,0.3,3.3,0.3c1.5,0,3.4-0.2,4.6-0.7c-0.7-1.3-2.4-4.7-3.7-7.2l2.9-3.3h0.4c0.8,2,2.9,6.9,3.4,8
			c1.1,2.7,1.8,3,3.9,3C868.8,534,869.1,534.6,869.1,535.3z"/>
		<path class="st11" d="M884.1,535.3c0,1.8-0.7,2.7-2.1,2.7h-1.9c0.5,0.7,0.7,1.5,0.7,2.3c0,2.5-2.2,4.1-4.9,4.1
			c-3.9,0-6.5-2.3-7-6.4h-2l0.9-4h1.3c0.6-2.8,2-5.8,3.9-8l2.6-1.5l0.3,0c3,2.2,4.4,4.1,4.4,6c0,1.2-0.7,2.8-1.6,3.5h4.1
			C883.7,534,884.1,534.5,884.1,535.3z M874,537.7c-0.4,0-0.9,0.1-1.4,0.2c0.4,1.9,1.9,3,3.8,3c0.6,0,1.1-0.2,1.4-0.4
			C877.8,539.2,876.3,537.7,874,537.7z M872.8,534.3c2.2-0.2,3.7-1.3,3.7-3.3c0-0.9-0.4-1.7-1.3-2.7
			C873.9,530.1,873.1,532.2,872.8,534.3z"/>
		<path class="st11" d="M907.1,532.3c0,3.8-3,5.7-7,5.7c-1.8,0-3.1-0.4-4.2-0.9c-0.8,0.6-1.8,0.9-3,0.9c-2,0-3.8-0.7-4.9-1.4
			c-1.3,1-3.1,1.4-6,1.4l0.9-4c2.1,0,2.9-0.1,3.5-0.4c0.3-0.6,0.6-2.2,0.8-3.6l4.3-0.7l0.1,0.1c-0.5,1.6-1,2.9-1.4,4
			c0.9,0.3,2.1,0.5,3.2,0.5c0.5,0,0.9-0.1,1.2-0.3c0.3-0.4,0.6-2.2,1-3.7l4-0.7l0.1,0.1c-0.5,1.6-0.9,3-1.4,4.2
			c0.8,0.2,1.6,0.3,2.4,0.3c1.1,0,2.2-0.1,2.9-0.4c0.2-1.2-0.8-3.6-1.6-5.3l3.5-2.6l0.2,0C906.4,528,907.1,530.4,907.1,532.3z
			 M895.3,525.1l-3.3-2.3l2-3l3.1,2.1l1.5-2.1l3.3,2.2l-2,3.1l-3.1-2.2L895.3,525.1z M897,520.6l-3.3-2.3l2-3l3.3,2.2L897,520.6z"/>
		<path class="st11" d="M916,513.9c-1.6,0.2-3.7,0.4-6.2,0.4l-0.2-2.3c0.4,0,1,0,1.5,0c-0.4-0.6-0.7-1.3-0.7-2c0-1.6,1-2.8,2.8-2.8
			c0.7,0,1.5,0.2,2.4,0.5l-0.5,2.1c-0.6-0.2-1-0.3-1.4-0.3c-0.7,0-1.1,0.4-1.1,1c0,0.5,0.2,0.9,0.6,1.3c1-0.1,1.9-0.1,2.7-0.2
			L916,513.9z M914.5,515.8l0.3,0.2l-0.1,21.4l-3.7,0.8l-0.3-0.2v-21.2L914.5,515.8z"/>
		<path class="st11" d="M929.1,534.8c0,4.4-3.4,8.8-10.6,8.9l-1.9-3l0.2-0.4c4.4-0.1,7.4-1.3,8.5-3.4c-0.8,0.1-1.6,0.2-2.6,0.2
			c-3,0-4.4-1.5-4.4-3.8c0-3,2.3-6.6,5.3-6.6C927.1,526.7,929.1,530.4,929.1,534.8z M923.6,533.6c0.8,0,1.5-0.1,2.2-0.2
			c-0.3-1.6-1.2-3-2.4-3c-1.1,0-2,1.2-2,2.2C921.5,533.3,922.1,533.6,923.6,533.6z"/>
	</g>
</g>
<path class="st12" d="M1023.5,42.8h-11.1v-6.6c0-1.7-1.1-3-2.6-3.5c1.4-1.1,2.3-2.9,2.3-4.8c0-3.4-2.8-6.2-6.2-6.2
	c-1,0-1.9,0.2-2.8,0.7c0.4-1.1,0.5-2.2,0.5-3.4c0-6.2-5-11.2-11.2-11.2c-6.2,0-11.2,5-11.2,11.2c0,1.2,0.2,2.4,0.5,3.4
	c-0.8-0.4-1.8-0.7-2.8-0.7c-3.4,0-6.2,2.8-6.2,6.2c0,1.9,0.9,3.6,2.3,4.8c-1.5,0.4-2.6,1.8-2.6,3.5v6.6h-10h-10v-6.6
	c0-1.7-1.1-3-2.6-3.5c1.4-1.1,2.3-2.9,2.3-4.8c0-3.4-2.8-6.2-6.2-6.2c-1,0-1.9,0.2-2.8,0.7c0.4-1.1,0.5-2.2,0.5-3.4
	c0-6.2-5-11.2-11.2-11.2c-6.2,0-11.2,5-11.2,11.2c0,1.2,0.2,2.4,0.5,3.4c-0.8-0.4-1.8-0.7-2.8-0.7c-3.4,0-6.2,2.8-6.2,6.2
	c0,1.9,0.9,3.6,2.3,4.8c-1.5,0.4-2.6,1.8-2.6,3.5v6.6h-10h-10v-6.6c0-1.7-1.1-3-2.6-3.5c1.4-1.1,2.3-2.9,2.3-4.8
	c0-3.4-2.8-6.2-6.2-6.2c-1,0-1.9,0.2-2.8,0.7c0.4-1.1,0.5-2.2,0.5-3.4c0-6.2-5-11.2-11.2-11.2c-6.2,0-11.2,5-11.2,11.2
	c0,1.2,0.2,2.4,0.5,3.4c-0.8-0.4-1.8-0.7-2.8-0.7c-3.4,0-6.2,2.8-6.2,6.2c0,1.9,0.9,3.6,2.3,4.8c-1.5,0.4-2.6,1.8-2.6,3.5v6.6h-10
	h-10v-6.6c0-1.7-1.1-3-2.6-3.5c1.4-1.1,2.3-2.9,2.3-4.8c0-3.4-2.8-6.2-6.2-6.2c-1,0-1.9,0.2-2.8,0.7c0.4-1.1,0.5-2.2,0.5-3.4
	c0-6.2-5-11.2-11.2-11.2c-6.2,0-11.2,5-11.2,11.2c0,1.2,0.2,2.4,0.5,3.4c-0.8-0.4-1.8-0.7-2.8-0.7c-3.4,0-6.2,2.8-6.2,6.2
	c0,1.9,0.9,3.6,2.3,4.8c-1.5,0.4-2.6,1.8-2.6,3.5v6.6h-10h-10v-6.6c0-1.7-1.1-3-2.6-3.5c1.4-1.1,2.3-2.9,2.3-4.8
	c0-3.4-2.8-6.2-6.2-6.2c-1,0-1.9,0.2-2.8,0.7c0.4-1.1,0.5-2.2,0.5-3.4c0-6.2-5-11.2-11.2-11.2c-6.2,0-11.2,5-11.2,11.2
	c0,1.2,0.2,2.4,0.5,3.4c-0.8-0.4-1.8-0.7-2.8-0.7c-3.4,0-6.2,2.8-6.2,6.2c0,1.9,0.9,3.6,2.3,4.8c-1.5,0.4-2.6,1.8-2.6,3.5v6.6h-10
	h-10v-6.6c0-1.7-1.1-3-2.6-3.5c1.4-1.1,2.3-2.9,2.3-4.8c0-3.4-2.8-6.2-6.2-6.2c-1,0-1.9,0.2-2.8,0.7c0.4-1.1,0.5-2.2,0.5-3.4
	c0-6.2-5-11.2-11.2-11.2c-6.2,0-11.2,5-11.2,11.2c0,1.2,0.2,2.4,0.5,3.4c-0.8-0.4-1.8-0.7-2.8-0.7c-3.4,0-6.2,2.8-6.2,6.2
	c0,1.9,0.9,3.6,2.3,4.8c-1.5,0.4-2.6,1.8-2.6,3.5v6.6h-10h-10v-6.6c0-1.7-1.1-3-2.6-3.5c1.4-1.1,2.3-2.9,2.3-4.8
	c0-3.4-2.8-6.2-6.2-6.2c-1,0-1.9,0.2-2.8,0.7c0.4-1.1,0.5-2.2,0.5-3.4c0-6.2-5-11.2-11.2-11.2c-6.2,0-11.2,5-11.2,11.2
	c0,1.2,0.2,2.4,0.5,3.4c-0.8-0.4-1.8-0.7-2.8-0.7c-3.4,0-6.2,2.8-6.2,6.2c0,1.9,0.9,3.6,2.3,4.8c-1.5,0.4-2.6,1.8-2.6,3.5v6.6h-10
	h-10v-6.6c0-1.7-1.1-3-2.6-3.5c1.4-1.1,2.3-2.9,2.3-4.8c0-3.4-2.8-6.2-6.2-6.2c-1,0-1.9,0.2-2.8,0.7c0.4-1.1,0.5-2.2,0.5-3.4
	c0-6.2-5-11.2-11.2-11.2c-6.2,0-11.2,5-11.2,11.2c0,1.2,0.2,2.4,0.5,3.4c-0.8-0.4-1.8-0.7-2.8-0.7c-3.4,0-6.2,2.8-6.2,6.2
	c0,1.9,0.9,3.6,2.3,4.8c-1.5,0.4-2.6,1.8-2.6,3.5v6.6h-10h-10v-6.6c0-1.7-1.1-3-2.6-3.5c1.4-1.1,2.3-2.9,2.3-4.8
	c0-3.4-2.8-6.2-6.2-6.2c-1,0-1.9,0.2-2.8,0.7c0.4-1.1,0.5-2.2,0.5-3.4c0-6.2-5-11.2-11.2-11.2c-6.2,0-11.2,5-11.2,11.2
	c0,1.2,0.2,2.4,0.5,3.4c-0.8-0.4-1.8-0.7-2.8-0.7c-3.4,0-6.2,2.8-6.2,6.2c0,1.9,0.9,3.6,2.3,4.8c-1.5,0.4-2.6,1.8-2.6,3.5v6.6h-10
	h-10v-6.6c0-1.7-1.1-3-2.6-3.5c1.4-1.1,2.3-2.9,2.3-4.8c0-3.4-2.8-6.2-6.2-6.2c-1,0-1.9,0.2-2.8,0.7c0.4-1.1,0.5-2.2,0.5-3.4
	c0-6.2-5-11.2-11.2-11.2c-6.2,0-11.2,5-11.2,11.2c0,1.2,0.2,2.4,0.5,3.4c-0.8-0.4-1.8-0.7-2.8-0.7c-3.4,0-6.2,2.8-6.2,6.2
	c0,1.9,0.9,3.6,2.3,4.8c-1.5,0.4-2.6,1.8-2.6,3.5v6.6h-10h-10v-6.6c0-1.7-1.1-3-2.6-3.5c1.4-1.1,2.3-2.9,2.3-4.8
	c0-3.4-2.8-6.2-6.2-6.2c-1,0-1.9,0.2-2.8,0.7c0.4-1.1,0.5-2.2,0.5-3.4c0-6.2-5-11.2-11.2-11.2c-6.2,0-11.2,5-11.2,11.2
	c0,1.2,0.2,2.4,0.5,3.4c-0.8-0.4-1.8-0.7-2.8-0.7c-3.4,0-6.2,2.8-6.2,6.2c0,1.9,0.9,3.6,2.3,4.8c-1.5,0.4-2.6,1.8-2.6,3.5v6.6h-10
	h-10v-6.6c0-1.7-1.1-3-2.6-3.5c1.4-1.1,2.3-2.9,2.3-4.8c0-3.4-2.8-6.2-6.2-6.2c-1,0-1.9,0.2-2.8,0.7c0.4-1.1,0.5-2.2,0.5-3.4
	c0-6.2-5-11.2-11.2-11.2c-6.2,0-11.2,5-11.2,11.2c0,1.2,0.2,2.4,0.5,3.4c-0.8-0.4-1.8-0.7-2.8-0.7c-3.4,0-6.2,2.8-6.2,6.2
	c0,1.9,0.9,3.6,2.3,4.8c-1.5,0.4-2.6,1.8-2.6,3.5v6.6h-10h-10v-6.6c0-1.7-1.1-3-2.6-3.5c1.4-1.1,2.3-2.9,2.3-4.8
	c0-3.4-2.8-6.2-6.2-6.2c-1,0-1.9,0.2-2.8,0.7c0.4-1.1,0.5-2.2,0.5-3.4c0-6.2-5-11.2-11.2-11.2c-6.2,0-11.2,5-11.2,11.2
	c0,1.2,0.2,2.4,0.5,3.4c-0.8-0.4-1.8-0.7-2.8-0.7c-3.4,0-6.2,2.8-6.2,6.2c0,1.9,0.9,3.6,2.3,4.8c-1.5,0.4-2.6,1.8-2.6,3.5v6.6h-10
	h-10v-6.6c0-1.7-1.1-3-2.6-3.5c1.4-1.1,2.3-2.9,2.3-4.8c0-3.4-2.8-6.2-6.2-6.2c-1,0-1.9,0.2-2.8,0.7c0.4-1.1,0.5-2.2,0.5-3.4
	c0-6.2-5-11.2-11.2-11.2c-6.2,0-11.2,5-11.2,11.2c0,1.2,0.2,2.4,0.5,3.4c-0.8-0.4-1.8-0.7-2.8-0.7c-3.4,0-6.2,2.8-6.2,6.2
	c0,1.9,0.9,3.6,2.3,4.8c-1.5,0.4-2.6,1.8-2.6,3.5v6.6h-10h-10v-6.6c0-1.7-1.1-3-2.6-3.5c1.4-1.1,2.3-2.9,2.3-4.8
	c0-3.4-2.8-6.2-6.2-6.2c-1,0-1.9,0.2-2.8,0.7c0.4-1.1,0.5-2.2,0.5-3.4c0-6.2-5-11.2-11.2-11.2c-6.2,0-11.2,5-11.2,11.2
	c0,1.2,0.2,2.4,0.5,3.4c-0.8-0.4-1.8-0.7-2.8-0.7c-3.4,0-6.2,2.8-6.2,6.2c0,1.9,0.9,3.6,2.3,4.8c-1.5,0.4-2.6,1.8-2.6,3.5v6.6h-10
	h-10v-6.6c0-1.7-1.1-3-2.6-3.5c1.4-1.1,2.3-2.9,2.3-4.8c0-3.4-2.8-6.2-6.2-6.2c-1,0-1.9,0.2-2.8,0.7c0.4-1.1,0.5-2.2,0.5-3.4
	c0-6.2-5-11.2-11.2-11.2c-6.2,0-11.2,5-11.2,11.2c0,1.2,0.2,2.4,0.5,3.4c-0.8-0.4-1.8-0.7-2.8-0.7c-3.4,0-6.2,2.8-6.2,6.2
	c0,1.9,0.9,3.6,2.3,4.8c-1.5,0.4-2.6,1.8-2.6,3.5v6.6h-10h-10v-6.6c0-1.7-1.1-3-2.6-3.5c1.4-1.1,2.3-2.9,2.3-4.8
	c0-3.4-2.8-6.2-6.2-6.2c-1,0-1.9,0.2-2.8,0.7c0.4-1.1,0.5-2.2,0.5-3.4c0-6.2-5-11.2-11.2-11.2c-6.2,0-11.2,5-11.2,11.2
	c0,1.2,0.2,2.4,0.5,3.4c-0.8-0.4-1.8-0.7-2.8-0.7c-3.4,0-6.2,2.8-6.2,6.2c0,1.9,0.9,3.6,2.3,4.8c-1.5,0.4-2.6,1.8-2.6,3.5v6.6H-0.5
	V-1h1024V42.8z"/>
<g id="Layer_x0020_1_17_">
	<path class="st13" d="M34.4,719l43.9-1.7c0.3,0,0.6,0,1,0c0.7,0.1,1.3,0.4,1.8,0.9c0.5,0.5,0.9,1,0.9,1.7c0,0.2,0,0.5,0,0.8
		l-4.6,20.6c-0.2,0.9-0.6,1.7-1.3,2.2c-0.6,0.5-1.4,0.9-2.4,0.9l-35.3-1.2c-1,0-1.7-0.3-2.4-0.9l0,0c-0.6-0.6-1.1-1.4-1.3-2.2
		l-4.1-17.7c0-0.1,0-0.1,0-0.2c-0.1-0.8,0.3-1.5,0.9-2.1c0.6-0.5,1.4-0.8,2.3-1C34.1,719.1,34.2,719,34.4,719z M76.4,720.1l-42,1.5
		c-0.1,0-0.2,0-0.3,0c-0.6,0.1-1.1,0.3-1.5,0.7c-0.3,0.3-0.6,0.7-0.5,1.1c0,0,0,0.1,0,0.1l3.8,16.5c0.1,0.6,0.4,1.2,0.9,1.6
		c0.4,0.3,0.8,0.5,1.4,0.5l34,1.2c0.6,0,1-0.2,1.4-0.5c0.4-0.4,0.7-0.9,0.9-1.6l4.3-19.3c0-0.1,0-0.3,0-0.4c0-0.3-0.2-0.7-0.5-0.9
		c-0.3-0.3-0.7-0.5-1.1-0.5C76.7,720.1,76.5,720.1,76.4,720.1z"/>
	<path class="st13" d="M41.4,723.7l12.9-1.4c0.1,0,0.3,0,0.4,0c0.3,0.1,0.6,0.2,0.8,0.4c0.2,0.2,0.4,0.5,0.4,0.8c0,0.1,0,0.2,0,0.3
		l-2.1,9.6c-0.1,0.4-0.3,0.8-0.6,1c-0.3,0.3-0.6,0.4-1.1,0.4h-8.9c-0.4,0-0.8-0.2-1.1-0.4h0c-0.3-0.3-0.5-0.6-0.6-1l-1.9-8.2
		c0,0,0-0.1,0-0.1c-0.1-0.4,0.1-0.7,0.4-1c0.3-0.2,0.7-0.4,1-0.5C41.3,723.7,41.3,723.7,41.4,723.7z M53.4,723.6l-12,1.3
		c0,0-0.1,0-0.1,0c-0.3,0-0.5,0.2-0.7,0.3c-0.2,0.1-0.3,0.3-0.2,0.5c0,0,0,0,0,0l1.8,7.6c0.1,0.3,0.2,0.5,0.4,0.7
		c0.2,0.1,0.4,0.2,0.6,0.2h8.3c0.3,0,0.5-0.1,0.6-0.2c0.2-0.2,0.3-0.4,0.4-0.7l2-8.9c0-0.1,0-0.1,0-0.2c0-0.2-0.1-0.3-0.2-0.4
		c-0.1-0.1-0.3-0.2-0.5-0.2C53.5,723.6,53.5,723.6,53.4,723.6z"/>
	<g id="_1849662416_17_">
		<path class="st14" d="M59.9,735.9l0.4-0.7l-0.7-0.4L60,734l-1.5-0.8l-0.9,1.5l0,0c0.3,0.1,0.5,0.3,0.7,0.4l-0.4,0.7l0.7,0.4
			l-0.8,1.5l0.7,0.4c-0.2,0.5-0.6,1.1-0.9,1.5l0,0c0.2,0.1,0.4,0.2,0.5,0.3c0.3,0.1,0.2,0.1,0,0.5c-0.2,0.4-0.4,0.8-0.7,1.1l0.7,0.4
			c0,0.2-0.7,1.2-0.8,1.5l5.9,3.4l0.9-1.5l0.8,0.4l1.3-2.2L67,744l3-5.2c-0.1-0.1-0.7-0.4-0.7-0.5c0-0.2,0.4-0.6,0.4-0.7
			c-0.1-0.1-0.5-0.4-0.7-0.4l-1.3,2.2L67,739l1.7-3l-1.5-0.9l-1.3,2.2l-0.7-0.4l1.7-2.9c-0.1-0.1-1.3-0.8-1.5-0.9l-1.7,3l-0.7-0.4
			c0-0.1,0.1-0.1,0.1-0.2c1.2-2.1,2.5-4.3,3.7-6.5l-1.5-0.8l-4.7,8.1C60.4,736.3,59.9,735.9,59.9,735.9L59.9,735.9z"/>
		<path class="st15" d="M57.7,739.6c-0.1,0.1-0.1,0.2-0.2,0.3l-0.7,1.1c0.1,0.1,0.2,0.1,0.4,0.2c0.1,0.1,0.2,0.1,0.3,0.2
			c-0.4,0.8-0.8,1.5-1.2,2.2c0.6,0.4,1.2,0.7,1.8,1.1l3.7,2.2c0.6,0.4,1.3,0.7,1.9,1.1c0.1-0.2,0.1-0.3,0.3-0.5
			c0.1-0.2,0.4-0.6,0.5-0.9c0.1-0.1,0.1-0.1,0.2-0.3c0.1-0.2,0.2-0.4,0.3-0.6c0.1,0.2,0.5,0.3,0.7,0.4c0.4-0.7,0.8-1.4,1.3-2.2
			c0.2,0.1,0.4,0.2,0.6,0.3c0.1,0.1,0.1,0.1,0.2,0c0.2-0.3,0.3-0.6,0.5-0.9c0.3-0.6,0.7-1.1,1-1.7l1.4-2.5c-0.2-0.1-0.6-0.3-0.7-0.4
			l-3,5.2l-0.7-0.4l-1.3,2.2l-0.8-0.4l-0.9,1.5l-5.9-3.4c0.1-0.3,0.8-1.3,0.8-1.5l-0.7-0.4c0.2-0.4,0.4-0.8,0.7-1.1
			c0.2-0.4,0.2-0.3,0-0.5C58.1,739.8,57.9,739.7,57.7,739.6z"/>
		<path class="st15" d="M60,734l-0.4,0.7l0.7,0.4l-0.4,0.7l0.7,0.4l4.7-8.1l-0.7-0.4c0,0,0,0,0,0l0,0c0,0,0,0,0,0l-3.8,6.6
			C60.4,734.2,60.2,734.1,60,734z"/>
		<path class="st15" d="M66.8,729.1l-3.9,6.6l0.7,0.4l1.7-3c0.2,0,1.4,0.8,1.5,0.9c0.2,0.2,1.6,0.9,1.9,1.1c0,0,0.1,0-0.1-0.1
			l-1.5-0.8c-0.4-0.2-0.3-0.1,0.1-0.9l-1.1-0.6c-0.1-0.1-0.2-0.1-0.3-0.2l1.7-2.9c-0.2-0.1-0.3-0.2-0.6-0.4
			C66.9,729.1,66.9,729.1,66.8,729.1z"/>
		<path class="st15" d="M68.7,736.1l0.4-0.7c-0.1-0.1-0.2-0.2-0.4-0.2c-0.3-0.2-1.7-0.9-1.9-1.1l-1.7,2.9l0.7,0.4l1.3-2.2
			L68.7,736.1z"/>
		<path class="st15" d="M57.6,734.7c-0.1,0.1-0.1,0.1-0.2,0.3c-0.1,0.1-0.1,0.3-0.2,0.4l0.7,0.4c-0.1,0.2-0.7,1.3-0.8,1.5l0.7,0.4
			l-0.6,1.1c-0.1,0.2-0.1,0.2-0.2,0.4l0.7,0.4c0.3-0.4,0.7-1,0.9-1.5l-0.7-0.4l0.8-1.5l-0.7-0.4l0.4-0.7
			C58.1,734.9,57.9,734.7,57.6,734.7z"/>
		<path class="st15" d="M57.6,734.6l0.9-1.5L60,734l0.2-0.4c0.1-0.1,0.1-0.2,0.2-0.4l-2-1.1c-0.3-0.2-0.2-0.2-0.5,0.2L57,734
			c-0.1,0.2-0.2,0.2,0,0.3C57.1,734.4,57.5,734.6,57.6,734.6z"/>
		<path class="st15" d="M69.7,737.7c0.1,0,0,0,0.1-0.1c0,0,0.1-0.1,0.1-0.1c0-0.2,0.2-0.4,0.3-0.6l-1.5-0.8l-1.7,3l0.7,0.4l1.3-2.2
			C69.2,737.3,69.6,737.5,69.7,737.7z"/>
		<path class="st15" d="M66.8,729c0.1-0.2,0.3-0.5,0.4-0.7l-1.5-0.8l-0.4,0.7L66.8,729z"/>
		<path class="st15" d="M69.7,737.7c0,0.2-0.4,0.6-0.4,0.7c0,0.1,0.6,0.4,0.7,0.5c0.2,0.1,0.5,0.3,0.7,0.4l-1.4,2.5l1.5-2.5
			l-0.7-0.4c0.1-0.1,0.1-0.2,0.2-0.4c0.1-0.1,0.2-0.3,0.2-0.4c-0.8-0.5-0.8-0.3-0.6-0.6c0,0-0.1,0.1-0.1,0.1
			C69.7,737.7,69.8,737.7,69.7,737.7z"/>
	</g>
	<path class="st13" d="M94.4,735.9h-2.5l2.1-7.2l-4.3,7.2h-2.6l-0.5-7.3l-1.8,7.3h-2.6l2.9-10.9h3.5l0.5,7.7l4.6-7.7h3.5L94.4,735.9
		z M103.9,735.9h-5.6c-0.8,0-1.3-0.2-1.7-0.6c-0.4-0.4-0.4-1-0.2-1.8c0.3-0.9,0.7-1.6,1.3-2c0.6-0.4,1.5-0.6,2.6-0.6h2.5
		c0.1-0.4,0.1-0.7-0.1-0.8c-0.2-0.2-0.6-0.2-1.3-0.2h-3.6l0.5-2h4.3c1.1,0,1.9,0.3,2.3,0.8c0.4,0.5,0.5,1.3,0.2,2.3L103.9,735.9z
		 M101.9,733.9l0.3-1.2H100c-0.4,0-0.7,0-0.9,0.1c-0.2,0.1-0.3,0.3-0.3,0.5c-0.1,0.2-0.1,0.3,0,0.4c0,0,0.1,0.1,0.2,0.1
		c0.1,0,0.3,0,0.5,0H101.9z M112.7,735.9h-2.4l1.3-4.9c0.1-0.5,0.2-0.8,0-1c-0.1-0.1-0.4-0.2-0.9-0.2h-1.4l-1.6,6.1h-2.4l2.2-8.1h4
		c1.2,0,2,0.2,2.4,0.7c0.4,0.5,0.5,1.2,0.2,2.3L112.7,735.9z M121.4,735.9H119l1.3-4.9c0.1-0.5,0.1-0.8,0-0.9
		c-0.1-0.1-0.2-0.1-0.3-0.2c-0.1,0-0.3-0.1-0.6-0.1l-1.4,0l-1.6,6.1H114l2.9-10.9h2.4l-0.8,2.8h1.6c1.2,0,2,0.2,2.4,0.7
		c0.4,0.5,0.5,1.2,0.2,2.3L121.4,735.9z M130.6,735.9H125c-0.8,0-1.3-0.2-1.7-0.6c-0.4-0.4-0.4-1-0.2-1.8c0.3-0.9,0.7-1.6,1.3-2
		c0.6-0.4,1.5-0.6,2.6-0.6h2.5c0.1-0.4,0.1-0.7-0.1-0.8c-0.2-0.2-0.6-0.2-1.3-0.2h-3.6l0.5-2h4.3c1.1,0,1.9,0.3,2.3,0.8
		c0.4,0.5,0.5,1.3,0.2,2.3L130.6,735.9z M128.7,733.9l0.3-1.2h-2.2c-0.4,0-0.7,0-0.9,0.1c-0.2,0.1-0.3,0.3-0.3,0.5
		c-0.1,0.2,0,0.3,0,0.4c0,0,0.1,0.1,0.2,0.1c0.1,0,0.3,0,0.5,0H128.7z M134.5,735.9H132l2.9-10.9h2.5L134.5,735.9z M140.1,735.9H138
		l0.6-2.2h2.1L140.1,735.9z M147.9,735.9H145c-0.4,0-0.7,0-1-0.1c-0.3,0-0.5-0.1-0.8-0.2c-0.4-0.1-0.8-0.4-1-0.8
		c-0.1-0.2-0.2-0.4-0.3-0.6c-0.1-0.2-0.2-0.5-0.2-0.7c0-0.3,0-0.5,0-0.8c0-0.3,0.1-0.6,0.2-0.9c0.2-0.6,0.4-1.2,0.8-1.7
		c0.3-0.5,0.7-1,1.3-1.4c0.4-0.3,0.9-0.6,1.4-0.7c0.5-0.2,1.1-0.2,1.9-0.2h2.9l-0.5,2h-2.3c-0.5,0-0.9,0-1.2,0.1
		c-0.3,0.1-0.6,0.2-0.8,0.4c-0.4,0.3-0.7,0.8-0.9,1.6c-0.1,0.4-0.1,0.8-0.1,1.1c0.1,0.3,0.1,0.6,0.4,0.7l0.4,0.2c0.1,0,0.3,0,0.4,0
		c0.1,0,0.4,0,0.6,0h2.3L147.9,735.9z M158,731.8c-0.3,1.3-1,2.3-2,3.1c-1,0.8-2.1,1.1-3.4,1.1c-1.3,0-2.2-0.4-2.8-1.1
		c-0.6-0.8-0.7-1.8-0.3-3.1c0.3-1.3,1-2.3,2-3c1-0.8,2.1-1.1,3.4-1.1c1.3,0,2.2,0.4,2.8,1.1C158.2,729.5,158.3,730.5,158,731.8z
		 M155.5,731.8c0.2-0.7,0.1-1.2-0.1-1.6c-0.2-0.4-0.6-0.6-1.1-0.6c-0.5,0-1,0.2-1.4,0.6c-0.4,0.4-0.7,0.9-0.9,1.6
		c-0.1,0.4-0.1,0.7-0.1,0.9c0,0.3,0.1,0.5,0.2,0.7c0.2,0.4,0.6,0.6,1.1,0.6c0.6,0,1-0.2,1.4-0.6C155,733,155.3,732.5,155.5,731.8z
		 M169.1,735.9h-2.4l1.3-4.9c0.1-0.5,0.2-0.8,0.1-1c-0.1-0.2-0.4-0.2-0.9-0.2l-0.9,0l-1.6,6.1h-2.4l1.6-6.1h-2l-1.6,6.1h-2.4
		l2.2-8.1h8c1.2,0,2,0.2,2.4,0.7c0.4,0.5,0.5,1.2,0.2,2.3L169.1,735.9z"/>
	<path class="st13" d="M27.4,727.8l21.2-2.2c0.2,0,0.5,0,0.7,0c0.5,0.1,1,0.3,1.4,0.7c0.4,0.3,0.6,0.8,0.7,1.3c0,0.2,0,0.4,0,0.6
		l-3.7,9.6c-0.1,0.7-0.5,1.3-1,1.7c-0.5,0.4-1.1,0.7-1.8,0.7H30.3c-0.7,0-1.3-0.3-1.8-0.7h0c-0.5-0.4-0.8-1.1-1-1.7l-2.9-7.4
		c0-0.1,0-0.1,0-0.2c-0.1-0.6,0.2-1.2,0.7-1.6c0.5-0.4,1.1-0.6,1.7-0.8C27.2,727.8,27.3,727.8,27.4,727.8z M47.1,727.7l-19.8,2.1
		c-0.1,0-0.2,0-0.2,0c-0.4,0.1-0.9,0.3-1.2,0.5c-0.3,0.2-0.4,0.5-0.4,0.8c0,0,0,0.1,0,0.1l2.7,6.5c0.1,0.5,0.3,0.9,0.7,1.2
		c0.3,0.2,0.6,0.4,1,0.4h13.6c0.4,0,0.8-0.1,1-0.4c0.3-0.3,0.5-0.7,0.7-1.2l3.4-8.6c0-0.1,0-0.2,0-0.3c0-0.3-0.2-0.5-0.4-0.7
		c-0.2-0.2-0.5-0.4-0.8-0.4C47.4,727.7,47.2,727.7,47.1,727.7z"/>
	<path class="st13" d="M87,721.5l-0.5,1.7H86l1.2-4.5h1.3c0.3,0,0.5,0,0.7,0.1c0.2,0.1,0.3,0.2,0.4,0.3c0.1,0.1,0.2,0.3,0.2,0.4
		c0,0.2,0,0.4-0.1,0.6c-0.1,0.2-0.1,0.4-0.3,0.6c-0.1,0.2-0.3,0.3-0.4,0.4c-0.2,0.1-0.4,0.2-0.6,0.3c-0.2,0.1-0.5,0.1-0.7,0.1H87z
		 M87.2,721h0.7c0.2,0,0.3,0,0.5-0.1c0.1,0,0.3-0.1,0.4-0.2c0.1-0.1,0.2-0.2,0.3-0.3c0.1-0.1,0.1-0.2,0.2-0.4
		c0.1-0.3,0.1-0.5-0.1-0.7c-0.1-0.2-0.4-0.2-0.7-0.2h-0.7L87.2,721z"/>
	<path id="_x31__17_" class="st13" d="M91.7,720c0.2,0,0.4,0,0.6,0.1c0.2,0.1,0.3,0.2,0.4,0.3c0.1,0.1,0.1,0.3,0.2,0.5
		c0,0.2,0,0.4-0.1,0.7c-0.1,0.3-0.2,0.5-0.3,0.7c-0.1,0.2-0.3,0.4-0.4,0.5c-0.2,0.1-0.4,0.3-0.6,0.3c-0.2,0.1-0.4,0.1-0.7,0.1
		c-0.2,0-0.4,0-0.6-0.1c-0.2-0.1-0.3-0.2-0.4-0.3c-0.1-0.1-0.1-0.3-0.2-0.5c0-0.2,0-0.4,0.1-0.7c0.1-0.3,0.2-0.5,0.3-0.7
		c0.1-0.2,0.3-0.4,0.4-0.5c0.2-0.1,0.4-0.3,0.6-0.3C91.3,720,91.5,720,91.7,720z M91,722.8c0.3,0,0.6-0.1,0.8-0.3
		c0.2-0.2,0.4-0.5,0.5-0.9c0.1-0.4,0.1-0.7,0-0.9c-0.1-0.2-0.3-0.3-0.6-0.3c-0.2,0-0.3,0-0.4,0.1c-0.1,0.1-0.3,0.1-0.4,0.2
		c-0.1,0.1-0.2,0.2-0.3,0.4c-0.1,0.1-0.1,0.3-0.2,0.5c0,0.2-0.1,0.4-0.1,0.5c0,0.1,0,0.3,0.1,0.4c0.1,0.1,0.1,0.2,0.2,0.2
		C90.7,722.8,90.8,722.8,91,722.8z"/>
	<path id="_x32__17_" class="st13" d="M93.5,720h0.4c0,0,0.1,0,0.1,0c0,0,0,0,0,0.1l0.1,2c0,0.1,0,0.1,0,0.2c0,0.1,0,0.1,0,0.2
		c0-0.1,0.1-0.1,0.1-0.2c0-0.1,0.1-0.1,0.1-0.2l1.2-2.1c0,0,0-0.1,0.1-0.1c0,0,0.1,0,0.1,0H96c0,0,0.1,0,0.1,0c0,0,0,0,0,0.1
		l0.1,2.1c0,0.1,0,0.1,0,0.2c0,0.1,0,0.1,0,0.2c0-0.1,0.1-0.1,0.1-0.2c0-0.1,0.1-0.1,0.1-0.2l1.2-2c0,0,0-0.1,0.1-0.1
		c0,0,0.1,0,0.1,0h0.4l-1.9,3.2h-0.4c-0.1,0-0.1,0-0.1-0.1l-0.1-2.2c0,0,0-0.1,0-0.1c0-0.1,0-0.1,0-0.1c0,0,0,0.1-0.1,0.1
		c0,0,0,0.1-0.1,0.1l-1.3,2.2c0,0.1-0.1,0.1-0.2,0.1h-0.4L93.5,720z"/>
	<path id="_x33__17_" class="st13" d="M100,719.9c0.2,0,0.4,0,0.5,0.1c0.1,0.1,0.3,0.2,0.3,0.3c0.1,0.1,0.1,0.3,0.2,0.4
		c0,0.2,0,0.4-0.1,0.6c0,0.1,0,0.1-0.1,0.2c0,0-0.1,0-0.1,0h-2.1c-0.1,0.2-0.1,0.4-0.1,0.5c0,0.1,0,0.3,0.1,0.4
		c0.1,0.1,0.1,0.2,0.3,0.2c0.1,0,0.2,0.1,0.4,0.1c0.1,0,0.3,0,0.4,0c0.1,0,0.2-0.1,0.3-0.1c0.1,0,0.2-0.1,0.2-0.1
		c0.1,0,0.1-0.1,0.1-0.1c0,0,0.1,0,0.1,0.1l0.1,0.2c-0.1,0.1-0.2,0.2-0.3,0.2c-0.1,0.1-0.2,0.1-0.3,0.2c-0.1,0-0.2,0.1-0.4,0.1
		c-0.1,0-0.2,0-0.4,0c-0.2,0-0.4,0-0.6-0.1c-0.2-0.1-0.3-0.2-0.4-0.3c-0.1-0.1-0.2-0.3-0.2-0.5c0-0.2,0-0.5,0.1-0.7
		c0.1-0.2,0.1-0.4,0.3-0.6c0.1-0.2,0.3-0.4,0.4-0.5c0.2-0.1,0.4-0.3,0.6-0.3C99.5,720,99.8,719.9,100,719.9z M99.9,720.4
		c-0.3,0-0.5,0.1-0.7,0.2c-0.2,0.2-0.4,0.4-0.5,0.6h1.7c0-0.1,0.1-0.3,0-0.4c0-0.1,0-0.2-0.1-0.3c0-0.1-0.1-0.1-0.2-0.2
		C100.1,720.4,100,720.4,99.9,720.4z"/>
	<path id="_x34__17_" class="st13" d="M101.2,723.2l0.9-3.2h0.3c0.1,0,0.1,0,0.1,0c0,0,0,0.1,0,0.1l-0.1,0.5
		c0.2-0.2,0.4-0.4,0.5-0.5c0.2-0.1,0.4-0.2,0.6-0.2c0.1,0,0.2,0,0.2,0c0.1,0,0.1,0,0.2,0.1l-0.2,0.4c0,0.1-0.1,0.1-0.1,0.1
		c0,0-0.1,0-0.1,0c-0.1,0-0.1,0-0.2,0c-0.2,0-0.4,0.1-0.5,0.2c-0.2,0.1-0.3,0.3-0.5,0.5l-0.5,2H101.2z"/>
	<path id="_x35__17_" class="st13" d="M105.8,719.9c0.2,0,0.4,0,0.5,0.1c0.1,0.1,0.3,0.2,0.3,0.3c0.1,0.1,0.1,0.3,0.2,0.4
		c0,0.2,0,0.4-0.1,0.6c0,0.1,0,0.1-0.1,0.2c0,0-0.1,0-0.1,0h-2.1c-0.1,0.2-0.1,0.4-0.1,0.5c0,0.1,0,0.3,0.1,0.4
		c0.1,0.1,0.1,0.2,0.3,0.2c0.1,0,0.2,0.1,0.4,0.1c0.1,0,0.3,0,0.4,0c0.1,0,0.2-0.1,0.3-0.1c0.1,0,0.2-0.1,0.2-0.1
		c0.1,0,0.1-0.1,0.1-0.1c0,0,0.1,0,0.1,0.1l0.1,0.2c-0.1,0.1-0.2,0.2-0.3,0.2c-0.1,0.1-0.2,0.1-0.3,0.2c-0.1,0-0.2,0.1-0.4,0.1
		c-0.1,0-0.2,0-0.4,0c-0.2,0-0.4,0-0.6-0.1c-0.2-0.1-0.3-0.2-0.4-0.3c-0.1-0.1-0.2-0.3-0.2-0.5c0-0.2,0-0.5,0.1-0.7
		c0.1-0.2,0.2-0.4,0.3-0.6c0.1-0.2,0.3-0.4,0.4-0.5c0.2-0.1,0.4-0.3,0.6-0.3C105.4,720,105.6,719.9,105.8,719.9z M105.7,720.4
		c-0.3,0-0.5,0.1-0.7,0.2c-0.2,0.2-0.4,0.4-0.5,0.6h1.7c0-0.1,0-0.3,0-0.4c0-0.1,0-0.2-0.1-0.3c0-0.1-0.1-0.1-0.2-0.2
		C106,720.4,105.8,720.4,105.7,720.4z"/>
	<path id="_x36__17_" class="st13" d="M109.2,723.2c-0.1,0-0.1,0-0.1-0.1l0.1-0.4c-0.2,0.2-0.4,0.3-0.6,0.4
		c-0.2,0.1-0.4,0.1-0.6,0.1c-0.2,0-0.3,0-0.5-0.1c-0.1-0.1-0.2-0.2-0.3-0.3c-0.1-0.1-0.1-0.3-0.1-0.5c0-0.2,0-0.4,0.1-0.7
		c0.1-0.2,0.2-0.5,0.3-0.7c0.1-0.2,0.3-0.4,0.4-0.5c0.2-0.2,0.3-0.3,0.5-0.4c0.2-0.1,0.4-0.1,0.6-0.1c0.2,0,0.4,0,0.5,0.1
		c0.1,0.1,0.2,0.2,0.3,0.3l0.5-1.8h0.6l-1.2,4.6H109.2z M108.2,722.8c0.2,0,0.4,0,0.5-0.1c0.2-0.1,0.3-0.2,0.5-0.4l0.4-1.5
		c-0.1-0.1-0.2-0.2-0.3-0.3c-0.1-0.1-0.2-0.1-0.4-0.1c-0.3,0-0.6,0.1-0.8,0.3c-0.2,0.2-0.4,0.5-0.5,0.9c-0.1,0.2-0.1,0.4-0.1,0.5
		c0,0.1,0,0.3,0.1,0.4c0,0.1,0.1,0.2,0.2,0.2C108,722.8,108.1,722.8,108.2,722.8z"/>
	<path id="_x37__17_" class="st13" d="M111.7,723.2l1.2-4.6h0.6l-0.5,1.9c0.2-0.2,0.4-0.3,0.6-0.4c0.2-0.1,0.4-0.1,0.6-0.1
		c0.2,0,0.3,0,0.5,0.1c0.1,0.1,0.2,0.2,0.3,0.3c0.1,0.1,0.1,0.3,0.1,0.5c0,0.2,0,0.4-0.1,0.7c-0.1,0.2-0.2,0.5-0.3,0.7
		c-0.1,0.2-0.3,0.4-0.4,0.5c-0.2,0.1-0.3,0.3-0.5,0.3c-0.2,0.1-0.4,0.1-0.6,0.1c-0.2,0-0.4,0-0.5-0.1c-0.1-0.1-0.2-0.2-0.3-0.3
		l-0.1,0.3c0,0.1-0.1,0.1-0.2,0.1H111.7z M113.9,720.4c-0.2,0-0.4,0-0.5,0.1c-0.2,0.1-0.3,0.2-0.5,0.4l-0.4,1.5
		c0.1,0.1,0.1,0.2,0.3,0.3c0.1,0.1,0.2,0.1,0.4,0.1c0.3,0,0.6-0.1,0.8-0.3c0.2-0.2,0.4-0.5,0.5-0.9c0.1-0.2,0.1-0.4,0.1-0.5
		c0-0.1,0-0.3-0.1-0.4c0-0.1-0.1-0.2-0.2-0.2C114.1,720.4,114,720.4,113.9,720.4z"/>
	<path id="_x38__17_" class="st13" d="M115.8,724.1c0,0-0.1,0.1-0.1,0.1c0,0-0.1,0-0.1,0h-0.4l0.9-1.2l-0.5-3h0.5c0,0,0.1,0,0.1,0
		c0,0,0,0,0,0.1l0.3,2c0,0,0,0.1,0,0.1c0,0,0,0.1,0,0.1c0,0,0.1-0.1,0.1-0.1c0,0,0.1-0.1,0.1-0.1l1.4-2c0,0,0.1-0.1,0.1-0.1
		c0,0,0.1,0,0.1,0h0.4L115.8,724.1z"/>
	<path id="_x39__17_" class="st13" d="M118.4,722.8c0-0.1,0-0.1,0.1-0.2c0-0.1,0.1-0.1,0.1-0.1c0,0,0.1-0.1,0.1-0.1
		c0.1,0,0.1,0,0.2,0c0.1,0,0.1,0,0.1,0c0,0,0.1,0,0.1,0.1c0,0,0,0.1,0.1,0.1c0,0,0,0.1,0,0.2c0,0.1,0,0.1-0.1,0.2
		c0,0-0.1,0.1-0.1,0.1c0,0-0.1,0.1-0.1,0.1c-0.1,0-0.1,0-0.2,0c-0.1,0-0.1,0-0.1,0c0,0-0.1,0-0.1-0.1c0,0,0-0.1,0-0.1
		C118.4,722.9,118.4,722.9,118.4,722.8z M119,720.5c0-0.1,0-0.1,0.1-0.2c0,0,0.1-0.1,0.1-0.1c0,0,0.1-0.1,0.1-0.1c0.1,0,0.1,0,0.2,0
		c0.1,0,0.1,0,0.1,0c0,0,0.1,0,0.1,0.1c0,0,0,0.1,0.1,0.1c0,0,0,0.1,0,0.2c0,0.1,0,0.1-0.1,0.2c0,0-0.1,0.1-0.1,0.1
		c0,0-0.1,0.1-0.1,0.1c-0.1,0-0.1,0-0.2,0c-0.1,0-0.1,0-0.1,0c0,0-0.1,0-0.1-0.1c0,0,0-0.1,0-0.1C119,720.6,119,720.5,119,720.5z"/>
	<path class="st13" d="M125.5,738.3l-0.1,0.5H123l-0.4,1.6h1.8l-0.1,0.5h-1.8l-0.4,1.6h2.3l-0.1,0.5h-2.9l1.3-4.8H125.5z
		 M125.5,740.8h1.6l-0.1,0.5h-1.6L125.5,740.8z M128.2,742.5h2.1l-0.1,0.5h-2.7l1.3-4.8h0.6L128.2,742.5z M132.9,739.6
		c0.2,0,0.4,0,0.5,0.1c0.2,0.1,0.3,0.2,0.4,0.3c0.1,0.1,0.1,0.3,0.2,0.5c0,0.2,0,0.4-0.1,0.6c0,0.1-0.1,0.2-0.1,0.2c0,0-0.1,0-0.1,0
		h-2.2c-0.1,0.2-0.1,0.4-0.1,0.6c0,0.2,0,0.3,0.1,0.4c0.1,0.1,0.2,0.2,0.3,0.2c0.1,0.1,0.3,0.1,0.4,0.1c0.1,0,0.3,0,0.4-0.1
		c0.1,0,0.2-0.1,0.3-0.1c0.1,0,0.2-0.1,0.2-0.1c0.1,0,0.1-0.1,0.1-0.1c0,0,0.1,0,0.1,0.1l0.1,0.2c-0.1,0.1-0.2,0.2-0.3,0.2
		c-0.1,0.1-0.2,0.1-0.4,0.2c-0.1,0-0.3,0.1-0.4,0.1c-0.1,0-0.3,0-0.4,0c-0.2,0-0.4,0-0.6-0.1c-0.2-0.1-0.3-0.2-0.4-0.3
		c-0.1-0.2-0.2-0.3-0.2-0.6c0-0.2,0-0.5,0.1-0.8c0.1-0.2,0.2-0.5,0.3-0.7c0.1-0.2,0.3-0.4,0.5-0.5c0.2-0.1,0.4-0.3,0.6-0.4
		C132.4,739.6,132.6,739.6,132.9,739.6z M132.8,740c-0.3,0-0.5,0.1-0.7,0.2c-0.2,0.2-0.4,0.4-0.5,0.7h1.8c0-0.1,0.1-0.3,0-0.4
		c0-0.1,0-0.2-0.1-0.3c-0.1-0.1-0.1-0.1-0.2-0.2C133,740.1,132.9,740,132.8,740z M136.6,743h-0.3c-0.1,0-0.1,0-0.1,0
		c0,0,0-0.1,0-0.1l0-0.3c-0.1,0.1-0.2,0.2-0.3,0.2c-0.1,0.1-0.2,0.1-0.3,0.2c-0.1,0-0.2,0.1-0.3,0.1c-0.1,0-0.2,0-0.4,0
		c-0.1,0-0.2,0-0.4-0.1c-0.1,0-0.2-0.1-0.3-0.2c-0.1-0.1-0.1-0.2-0.1-0.3c0-0.1,0-0.2,0-0.4c0-0.1,0.1-0.3,0.2-0.4
		c0.1-0.1,0.3-0.2,0.4-0.3c0.2-0.1,0.4-0.2,0.7-0.2c0.3-0.1,0.6-0.1,1-0.1l0.1-0.3c0.1-0.3,0.1-0.5,0-0.6c-0.1-0.1-0.2-0.2-0.4-0.2
		c-0.1,0-0.3,0-0.4,0.1c-0.1,0-0.2,0.1-0.3,0.1c-0.1,0-0.2,0.1-0.2,0.1c-0.1,0-0.1,0.1-0.2,0.1c0,0-0.1,0-0.1,0c0,0,0,0-0.1-0.1
		l-0.1-0.2c0.2-0.2,0.5-0.3,0.7-0.4c0.2-0.1,0.5-0.1,0.8-0.1c0.2,0,0.3,0,0.5,0.1c0.1,0.1,0.2,0.1,0.3,0.3c0.1,0.1,0.1,0.2,0.1,0.4
		c0,0.2,0,0.3-0.1,0.5L136.6,743z M135.1,742.7c0.1,0,0.2,0,0.3,0c0.1,0,0.2-0.1,0.3-0.1c0.1,0,0.2-0.1,0.3-0.1
		c0.1-0.1,0.2-0.1,0.3-0.2l0.2-0.7c-0.3,0-0.5,0-0.7,0.1c-0.2,0-0.4,0.1-0.5,0.1c-0.1,0.1-0.2,0.1-0.3,0.2c-0.1,0.1-0.1,0.2-0.1,0.3
		c0,0.1,0,0.2,0,0.2c0,0.1,0,0.1,0.1,0.2c0,0,0.1,0.1,0.1,0.1C135,742.6,135.1,742.7,135.1,742.7z M137.5,743l0.9-3.4h0.3
		c0.1,0,0.1,0,0.1,0c0,0,0,0.1,0,0.1l-0.1,0.6c0.2-0.2,0.4-0.4,0.6-0.6c0.2-0.1,0.4-0.2,0.6-0.2c0.1,0,0.2,0,0.2,0
		c0.1,0,0.1,0.1,0.2,0.1l-0.2,0.4c0,0.1-0.1,0.1-0.1,0.1c0,0-0.1,0-0.1,0c-0.1,0-0.1,0-0.3,0c-0.2,0-0.4,0.1-0.6,0.2
		c-0.2,0.1-0.3,0.3-0.5,0.5l-0.6,2.1H137.5z M140.1,743l0.9-3.4h0.4c0.1,0,0.1,0,0.1,0.1l-0.1,0.4c0.2-0.2,0.4-0.3,0.6-0.4
		c0.2-0.1,0.4-0.2,0.7-0.2c0.2,0,0.3,0,0.5,0.1c0.1,0.1,0.2,0.1,0.3,0.3c0.1,0.1,0.1,0.2,0.1,0.4c0,0.2,0,0.3-0.1,0.5l-0.6,2.1h-0.6
		l0.6-2.1c0.1-0.3,0.1-0.5,0-0.6c-0.1-0.1-0.2-0.2-0.5-0.2c-0.2,0-0.3,0-0.5,0.1c-0.2,0.1-0.3,0.2-0.5,0.3l-0.7,2.5H140.1z
		 M145.4,739.7l-0.9,3.4h-0.6l0.9-3.4H145.4z M145.8,738.6c0,0.1,0,0.1-0.1,0.2c0,0-0.1,0.1-0.1,0.1c0,0-0.1,0.1-0.2,0.1
		c-0.1,0-0.1,0-0.2,0c-0.1,0-0.1,0-0.2,0c0,0-0.1-0.1-0.1-0.1c0,0,0-0.1-0.1-0.1c0,0,0-0.1,0-0.2c0-0.1,0-0.1,0.1-0.2
		c0-0.1,0.1-0.1,0.1-0.1c0,0,0.1-0.1,0.2-0.1c0.1,0,0.1,0,0.2,0c0.1,0,0.1,0,0.2,0c0,0,0.1,0.1,0.1,0.1c0,0,0,0.1,0.1,0.1
		C145.8,738.5,145.8,738.5,145.8,738.6z M145.5,743l0.9-3.4h0.4c0.1,0,0.1,0,0.1,0.1l-0.1,0.4c0.2-0.2,0.4-0.3,0.6-0.4
		c0.2-0.1,0.4-0.2,0.7-0.2c0.2,0,0.3,0,0.5,0.1c0.1,0.1,0.2,0.1,0.3,0.3c0.1,0.1,0.1,0.2,0.1,0.4c0,0.2,0,0.3-0.1,0.5l-0.6,2.1h-0.6
		l0.6-2.1c0.1-0.3,0.1-0.5,0-0.6c-0.1-0.1-0.2-0.2-0.5-0.2c-0.2,0-0.3,0-0.5,0.1c-0.2,0.1-0.3,0.2-0.5,0.3l-0.7,2.5H145.5z
		 M151.3,739.6c0.1,0,0.3,0,0.4,0c0.1,0,0.2,0.1,0.3,0.1h0.9l-0.1,0.2c0,0.1-0.1,0.1-0.2,0.1l-0.4,0.1c0,0.1,0,0.3,0,0.5
		c0,0.2-0.1,0.3-0.2,0.4c-0.1,0.1-0.2,0.2-0.4,0.3c-0.1,0.1-0.3,0.2-0.5,0.2c-0.2,0-0.3,0.1-0.5,0.1c-0.2,0-0.3,0-0.4-0.1
		c-0.1,0-0.1,0.1-0.2,0.1c-0.1,0.1-0.1,0.1-0.1,0.2c0,0.1,0,0.1,0,0.2c0.1,0,0.1,0.1,0.2,0.1c0.1,0,0.2,0,0.4,0c0.1,0,0.3,0,0.4,0
		c0.1,0,0.3,0,0.4,0c0.1,0,0.2,0.1,0.3,0.1c0.1,0.1,0.2,0.1,0.2,0.2c0,0.1,0,0.2,0,0.4c0,0.1-0.1,0.3-0.2,0.4
		c-0.1,0.1-0.2,0.3-0.4,0.4c-0.2,0.1-0.3,0.2-0.6,0.3c-0.2,0.1-0.4,0.1-0.7,0.1c-0.2,0-0.5,0-0.6-0.1c-0.2,0-0.3-0.1-0.4-0.2
		c-0.1-0.1-0.2-0.2-0.2-0.3c0-0.1,0-0.2,0-0.3c0-0.2,0.1-0.3,0.3-0.4c0.1-0.1,0.3-0.2,0.5-0.3c-0.1,0-0.1-0.1-0.2-0.2
		c0-0.1,0-0.2,0-0.3c0,0,0-0.1,0.1-0.2c0-0.1,0.1-0.1,0.1-0.2c0-0.1,0.1-0.1,0.2-0.1c0.1,0,0.1-0.1,0.2-0.1
		c-0.1-0.1-0.2-0.2-0.3-0.4c-0.1-0.2-0.1-0.3,0-0.5c0-0.2,0.1-0.3,0.2-0.4c0.1-0.1,0.2-0.3,0.4-0.3c0.1-0.1,0.3-0.2,0.5-0.2
		C150.9,739.6,151.1,739.6,151.3,739.6z M151.4,743.2c0-0.1,0-0.2,0-0.2c0-0.1-0.1-0.1-0.2-0.1c-0.1,0-0.2,0-0.3-0.1
		c-0.1,0-0.2,0-0.3,0c-0.1,0-0.2,0-0.4,0c-0.1,0-0.2,0-0.3,0c-0.1,0.1-0.3,0.1-0.4,0.2c-0.1,0.1-0.2,0.2-0.2,0.3c0,0.1,0,0.1,0,0.2
		c0,0.1,0.1,0.1,0.1,0.2c0.1,0,0.2,0.1,0.3,0.1c0.1,0,0.3,0,0.4,0c0.2,0,0.3,0,0.4,0c0.1,0,0.3-0.1,0.4-0.1c0.1-0.1,0.2-0.1,0.3-0.2
		C151.3,743.4,151.3,743.3,151.4,743.2z M150.8,741.4c0.1,0,0.2,0,0.3,0c0.1,0,0.2-0.1,0.3-0.1c0.1-0.1,0.1-0.1,0.2-0.2
		c0.1-0.1,0.1-0.2,0.1-0.3c0.1-0.2,0-0.4-0.1-0.5c-0.1-0.1-0.3-0.2-0.5-0.2s-0.4,0.1-0.6,0.2c-0.2,0.1-0.3,0.3-0.3,0.5
		c0,0.1,0,0.2,0,0.3c0,0.1,0,0.2,0.1,0.2c0,0.1,0.1,0.1,0.2,0.1C150.6,741.4,150.7,741.4,150.8,741.4z M158.5,738.3l-0.1,0.5h-1.5
		l-1.1,4.2h-0.6l1.1-4.2h-1.5l0.1-0.5H158.5z M159.4,739.6c0.2,0,0.4,0,0.5,0.1c0.2,0.1,0.3,0.2,0.4,0.3c0.1,0.1,0.1,0.3,0.2,0.5
		c0,0.2,0,0.4-0.1,0.6c0,0.1,0,0.2-0.1,0.2c0,0-0.1,0-0.1,0h-2.2c-0.1,0.2-0.1,0.4-0.1,0.6c0,0.2,0,0.3,0.1,0.4
		c0.1,0.1,0.2,0.2,0.3,0.2c0.1,0.1,0.2,0.1,0.4,0.1c0.1,0,0.3,0,0.4-0.1c0.1,0,0.2-0.1,0.3-0.1c0.1,0,0.2-0.1,0.2-0.1
		c0.1,0,0.1-0.1,0.1-0.1c0,0,0.1,0,0.1,0.1l0.1,0.2c-0.1,0.1-0.2,0.2-0.3,0.2c-0.1,0.1-0.2,0.1-0.4,0.2c-0.1,0-0.3,0.1-0.4,0.1
		c-0.1,0-0.3,0-0.4,0c-0.2,0-0.4,0-0.6-0.1c-0.2-0.1-0.3-0.2-0.4-0.3c-0.1-0.2-0.2-0.3-0.2-0.6c0-0.2,0-0.5,0.1-0.8
		c0.1-0.2,0.2-0.5,0.3-0.7c0.1-0.2,0.3-0.4,0.5-0.5c0.2-0.1,0.4-0.3,0.6-0.4C158.9,739.6,159.1,739.6,159.4,739.6z M159.3,740
		c-0.3,0-0.5,0.1-0.7,0.2c-0.2,0.2-0.4,0.4-0.5,0.7h1.8c0-0.1,0-0.3,0-0.4c0-0.1,0-0.2-0.1-0.3c-0.1-0.1-0.1-0.1-0.2-0.2
		C159.5,740.1,159.4,740,159.3,740z M163.1,743h-0.3c-0.1,0-0.1,0-0.1,0c0,0,0-0.1,0-0.1l0-0.3c-0.1,0.1-0.2,0.2-0.3,0.2
		c-0.1,0.1-0.2,0.1-0.3,0.2c-0.1,0-0.2,0.1-0.3,0.1c-0.1,0-0.2,0-0.4,0c-0.1,0-0.2,0-0.4-0.1c-0.1,0-0.2-0.1-0.3-0.2
		c-0.1-0.1-0.1-0.2-0.1-0.3c0-0.1,0-0.2,0-0.4c0-0.1,0.1-0.3,0.2-0.4c0.1-0.1,0.3-0.2,0.4-0.3c0.2-0.1,0.4-0.2,0.7-0.2
		c0.3-0.1,0.6-0.1,1-0.1l0.1-0.3c0.1-0.3,0.1-0.5,0-0.6c-0.1-0.1-0.2-0.2-0.4-0.2c-0.1,0-0.3,0-0.4,0.1c-0.1,0-0.2,0.1-0.3,0.1
		c-0.1,0-0.2,0.1-0.2,0.1c-0.1,0-0.1,0.1-0.2,0.1c0,0-0.1,0-0.1,0c0,0,0,0-0.1-0.1l-0.1-0.2c0.2-0.2,0.5-0.3,0.7-0.4
		c0.2-0.1,0.5-0.1,0.7-0.1c0.2,0,0.3,0,0.5,0.1c0.1,0.1,0.2,0.1,0.3,0.3c0.1,0.1,0.1,0.2,0.1,0.4c0,0.2,0,0.3-0.1,0.5L163.1,743z
		 M161.6,742.7c0.1,0,0.2,0,0.3,0c0.1,0,0.2-0.1,0.3-0.1c0.1,0,0.2-0.1,0.3-0.1c0.1-0.1,0.2-0.1,0.3-0.2l0.2-0.7
		c-0.3,0-0.5,0-0.7,0.1c-0.2,0-0.4,0.1-0.5,0.1c-0.1,0.1-0.2,0.1-0.3,0.2c-0.1,0.1-0.1,0.2-0.2,0.3c0,0.1,0,0.2,0,0.2
		c0,0.1,0,0.1,0.1,0.2c0,0,0.1,0.1,0.1,0.1C161.5,742.6,161.6,742.7,161.6,742.7z M164,743l0.9-3.4h0.3c0.1,0,0.1,0,0.1,0.1l0,0.3
		c0.2-0.2,0.3-0.3,0.5-0.4c0.2-0.1,0.4-0.1,0.6-0.1c0.2,0,0.4,0.1,0.5,0.2c0.1,0.1,0.2,0.3,0.2,0.5c0.1-0.1,0.2-0.2,0.3-0.3
		c0.1-0.1,0.2-0.2,0.3-0.2c0.1-0.1,0.2-0.1,0.3-0.1c0.1,0,0.2,0,0.3,0c0.2,0,0.3,0,0.5,0.1c0.1,0.1,0.2,0.1,0.3,0.2
		c0.1,0.1,0.1,0.2,0.1,0.4c0,0.2,0,0.3-0.1,0.5l-0.6,2.1h-0.6l0.6-2.1c0.1-0.3,0.1-0.5,0-0.6c-0.1-0.1-0.2-0.2-0.4-0.2
		c-0.1,0-0.2,0-0.3,0.1c-0.1,0-0.2,0.1-0.3,0.2c-0.1,0.1-0.2,0.2-0.2,0.3c-0.1,0.1-0.1,0.2-0.2,0.4l-0.6,2.1h-0.6l0.6-2.1
		c0.1-0.3,0.1-0.5,0-0.6c-0.1-0.1-0.2-0.2-0.4-0.2c-0.1,0-0.3,0-0.4,0.1c-0.1,0.1-0.3,0.2-0.4,0.3l-0.7,2.5H164z"/>
</g>
<g>
	<g>
		<linearGradient id="SVGID_9_" gradientUnits="userSpaceOnUse" x1="758.8952" y1="141.1099" x2="959.0729" y2="141.1099">
			<stop  offset="0" style="stop-color:#FFFFFF;stop-opacity:0"/>
			<stop  offset="4.017906e-002" style="stop-color:#FDEBEE;stop-opacity:4.051906e-002"/>
			<stop  offset="0.1257" style="stop-color:#FAC6CE;stop-opacity:0.1267"/>
			<stop  offset="0.2187" style="stop-color:#F7A7B2;stop-opacity:0.2205"/>
			<stop  offset="0.3192" style="stop-color:#F58D9C;stop-opacity:0.3219"/>
			<stop  offset="0.4302" style="stop-color:#F3798A;stop-opacity:0.4338"/>
			<stop  offset="0.5573" style="stop-color:#F26C7E;stop-opacity:0.562"/>
			<stop  offset="0.7143" style="stop-color:#F16377;stop-opacity:0.7204"/>
			<stop  offset="0.9916" style="stop-color:#F16175"/>
		</linearGradient>
		<rect x="758.9" y="128.8" class="st16" width="200.2" height="24.7"/>
		<g>
			<g>
				<path class="st14" d="M909.3,145.7c-4.3,0-5.9-2-5.9-5.1c0-2.9,1.8-5.5,5.8-5.5c2.6,0,4.6,0.8,4.6,0.8v7.6h2.2v2.3H909.3z
					 M905.6,132.2c0-0.8,0.6-1.5,1.5-1.5c0.8,0,1.5,0.7,1.5,1.5c0,0.8-0.6,1.5-1.5,1.5C906.3,133.7,905.6,133,905.6,132.2z
					 M911,137.7c0,0-0.8-0.4-2.1-0.4c-1.7,0-2.6,1.3-2.6,3c0,2,1,3.1,3.3,3.1h1.4V137.7z M909.3,132.2c0-0.8,0.6-1.5,1.5-1.5
					s1.5,0.7,1.5,1.5c0,0.8-0.6,1.5-1.5,1.5S909.3,133,909.3,132.2z"/>
				<path class="st14" d="M915.6,143.4h4.1v-8.1h2.9v10.3h-7V143.4z M917.5,150.5c-0.8,0-1.5-0.7-1.5-1.5c0-0.8,0.6-1.5,1.5-1.5
					c0.8,0,1.5,0.7,1.5,1.5C919,149.8,918.3,150.5,917.5,150.5z M921.1,150.5c-0.8,0-1.5-0.7-1.5-1.5c0-0.8,0.6-1.5,1.5-1.5
					c0.8,0,1.5,0.7,1.5,1.5C922.6,149.8,922,150.5,921.1,150.5z"/>
				<path class="st14" d="M922.8,151l0.2-2.3c0.5,0.2,1.1,0.3,1.8,0.3c1.5,0,2.4-0.7,2.4-3.1v-10.6h2.9v8.1h2.2v2.3H930v0.1
					c0,2.8-0.9,5.5-5.4,5.5C923.9,151.3,923.3,151.2,922.8,151z"/>
				<path class="st14" d="M931.9,143.4h0.7c1.4,0,2-0.6,2-2.8v-4h2.9v4.4c0,1.7,0.4,2.6,1.7,2.6c1.3,0,1.6-0.9,1.6-2.5v-5.3h2.8v5.2
					c0,1.8,0.5,2.4,2.4,2.4h0.8c0.1-0.9,0.2-2,0.2-2.6c0-2.2-0.3-4.2-0.6-5.9l2.8-0.4c0.4,1.8,0.7,3.9,0.7,6.1
					c0,1.6-0.1,3.6-0.3,5.1h-4.1c-1.9,0-3.1-0.4-3.6-1.6c-0.5,1.2-1.8,1.8-3.2,1.8c-1.6,0-2.8-0.7-3.1-1.8c-0.4,1.1-1.3,1.6-2.9,1.6
					h-0.7V143.4z"/>
			</g>
		</g>
		<g>
			<path class="st9" d="M734.3,147.3c0.1,0.4,0.2,0.8,0.2,1.1c0,0.9-0.6,1.7-1.9,2.2l-4.9,1.9c-1.5,0.6-2.8,1.1-2.8,2
				c0,0.1,0,0.1,0,0.2l-0.2,0.1c-0.1-0.4-0.2-0.8-0.2-1.1c0-0.9,0.5-1.7,1.9-2.3l4.9-1.9c1.7-0.7,2.8-1.1,2.8-2.2L734.3,147.3z"/>
			<path class="st9" d="M736.3,123.5h8.9v3.3h-8.9c0,5.9-1.5,10.5-5.1,14.3c-3.2,3.6-7.1,5.4-11.7,5.4c-2,0-3.9-0.4-5.9-1.2l0.3-0.6
				c1.3,0.7,2.7,1,4.2,1c8.1,0,15-7.4,15-18.9v-21.2h3.3V123.5z"/>
			<path class="st9" d="M776.2,93.3c0.3-0.2,0.7-0.3,1.1-0.3v0.2c-0.7,0.1-0.7,1.2-0.7,2.4v2c0,1.7-1.4,3.1-3.1,3.1
				c-1.9,0-3.4-1.1-3.4-2.8v-1.2c0-1.8,1.6-3.4,3.4-3.4H776.2z M773.6,94.4c-1.4,0-2.5,1-2.5,2.3v1.2c0,0.9,1,1.7,2.3,1.7
				c1,0,2.1-0.9,2.1-2.1v-2.5c0-0.2,0-0.5,0.1-0.6H773.6z"/>
			<path class="st9" d="M795.3,126.8h-50.2v-3.3h2.8c0.6-0.3,0.9-1.1,0.9-2.5c0-3.4-0.8-6.6-3.2-8.8l0.4-0.3
				c2.2,2.1,3.7,4.7,4.4,7.3c0.7-8.2,8.8-14.5,19.3-14.5h6.9c6.1,0.5,11.1,6.1,11.1,12.4v6.5h7.6V126.8z M784.4,123.5V117
				c0-3.8-1.7-6.5-5.1-8.1c-1.4-0.6-3.3-0.9-6.2-0.9h-3.4c-11.1,0-18.8,6.2-18.8,14.5v1H784.4z"/>
			<path class="st9" d="M816.4,89.9c0.1,0.4,0.2,0.8,0.2,1.1c0,0.9-0.6,1.7-1.9,2.2l-4.9,1.9c-1.5,0.6-2.8,1.1-2.8,2
				c0,0.1,0,0.1,0,0.2l-0.2,0.1c-0.1-0.4-0.2-0.8-0.2-1.1c0-0.9,0.5-1.7,1.9-2.3l4.9-1.9c1.7-0.7,2.8-1.1,2.8-2.2L816.4,89.9z"/>
			<path class="st9" d="M824.8,126.8h-29.6v-3.3h4.6c-1.7-1.7-2.5-4.1-2.5-6.3c0-5.1,4.5-9.6,9.7-9.6h6.9c3.4,0,6.8,0,7-2.2h0.5
				c0,3.4-1.9,5.4-5.8,5.4h-8.2c-4.2,0-7.1,2.7-7.1,6.4s2.8,6.2,6.7,6.3h17.9V126.8z"/>
			<path class="st9" d="M834.8,81.1c0.3-0.2,0.7-0.3,1.1-0.3v0.2c-0.7,0.1-0.7,1.2-0.7,2.4v2c0,1.7-1.4,3.1-3.1,3.1
				c-1.9,0-3.4-1.1-3.4-2.8v-1.2c0-1.8,1.6-3.4,3.4-3.4H834.8z M832.2,82.2c-1.4,0-2.5,1-2.5,2.3v1.2c0,0.9,1,1.7,2.3,1.7
				c1,0,2.1-0.9,2.1-2.1v-2.5c0-0.2,0-0.5,0.1-0.6H832.2z"/>
			<path class="st9" d="M828.5,88.6c3.1,0.1,5.3,1.7,5.3,6v21.6c0,4-2.5,7.9-6,9.6c-1.2,0.6-2.2,0.9-3,0.9v-3.3
				c2.4-0.2,5.8-2.8,5.8-7.3v-20c0-3.5,0-7-2.1-7.2V88.6z"/>
			<path class="st9" d="M841.2,96.7c0-5.7-0.2-7.3-2-7.5v-0.4c3.5,0.1,5.2,2.2,5.2,6.2v31.8h-3.3V96.7z"/>
			<path class="st9" d="M868.3,81.2c-1.3,2.3-3.3,3.5-5.2,3.5c-1.4,0-2.8-0.7-3.7-1.8l0.1-0.1c0.7,0.9,1.8,1.4,3,1.4
				c1.7,0,3.6-1,4.9-3.4l0.3-0.6c-0.2,0-0.4,0.1-0.6,0.1c-1.8,0-3.1-1.7-3.1-3.1c0-0.4,0.1-0.8,0.3-1.1l0.6-1c0.6-1,1.7-1.6,2.8-1.6
				c0.5,0,1,0.1,1.5,0.4l-0.4,0.9c-0.4-0.2-0.8-0.3-1.2-0.3c-0.8,0-1.5,0.4-1.9,1.1l-0.5,1c-0.1,0.2-0.2,0.4-0.2,0.6
				c0,0.8,0.8,2,2.1,2c0.5,0,0.9-0.2,1.3-0.5l1.7-3.1l-1.4-0.8l0.4-0.9l2.2,1.2c0.3,0,0.7,0.1,1,0.3l-0.1,0.1c-0.1,0-0.2,0-0.2,0
				c-0.5,0-0.9,0.9-1.4,1.7l-0.9,1.6L868.3,81.2z"/>
			<path class="st9" d="M877.8,104.5c0.8-0.5,1.9-0.7,3.1-0.8v0.5c-2.1,0.3-2.1,3.7-2.1,7.2v6c0,5.2-4.3,9.3-9.4,9.3
				c-5.4,0-10.2-3.6-10.2-8.3v-3.6c0-5.5,4.8-10.3,10.3-10.3H877.8z M870,107.8c-4.3,0-7.4,3.2-7.4,7v3.6c0,2.6,2.9,5.1,6.8,5.1
				c3.3,0,6.2-2.8,6.2-6.1v-7.6c0-0.9,0-1.4,0.3-2H870z M865.6,100.3l-2.9-2.9l2.9-2.8l2.9,2.8L865.6,100.3z M871.5,100.3l-2.9-2.9
				l2.9-2.8l2.9,2.8L871.5,100.3z"/>
			<path class="st9" d="M916.6,126.8c-3.4,0-6.6-1.6-8.3-4.5c-1,2-4.5,4.5-8,4.5h-17.1v-3.3h10.9v-13.1c0-3.7-0.2-7.2-2.2-7.5v-0.5
				c3.4,0.2,5.5,1.8,5.5,6.2v14.9h2.9c3.8,0,6.8-3.3,6.8-7.7V95.1c0-3.8-0.1-7.1-2.1-7.4v-0.5c3.3,0.1,5.4,1.8,5.4,6.1V118
				c0.3,3.3,2.8,5.2,6.2,5.5V126.8z"/>
			<path class="st9" d="M950,92.9c0.1,0.4,0.2,0.8,0.2,1.1c0,0.9-0.6,1.7-1.9,2.2l-4.9,1.9c-1.5,0.6-2.8,1.1-2.8,2
				c0,0.1,0,0.1,0,0.2l-0.2,0.1c-0.1-0.4-0.2-0.8-0.2-1.1c0-0.9,0.5-1.7,1.9-2.3l4.9-1.9c1.7-0.7,2.8-1.1,2.8-2.2L950,92.9z"/>
			<path class="st9" d="M959,126.8h-42.6v-3.3h2.8c0.6-0.3,0.9-1.1,0.9-2.5c0-3.4-0.8-6.6-3.2-8.8l0.4-0.3c2.2,2.1,3.7,4.7,4.4,7.3
				c0.7-8.2,8.8-14.5,19.3-14.5h6.9c6.1,0.5,11.2,6.1,11.1,12.4V126.8z M955.8,123.5V117c0-3.8-1.7-6.5-5.1-8.1
				c-1.4-0.6-3.3-0.9-6.2-0.9h-3.4c-11.1,0-18.8,6.2-18.8,14.5v1H955.8z"/>
		</g>
	</g>
</g>
</svg>
