<?xml version="1.0" encoding="utf-8"?>
<!-- Generator: Adobe Illustrator 19.2.0, SVG Export Plug-In . SVG Version: 6.00 Build 0)  -->
<svg version="1.1" id="Layer_1" xmlns="http://www.w3.org/2000/svg" xmlns:xlink="http://www.w3.org/1999/xlink" x="0px" y="0px"
	 viewBox="0 0 1024 768" style="enable-background:new 0 0 1024 768;" xml:space="preserve">
<style type="text/css">
	.st0{fill:url(#SVGID_1_);}
	.st1{clip-path:url(#SVGID_3_);}
	.st2{fill:url(#SVGID_4_);}
	.st3{fill:#F68A1F;}
	.st4{filter:url(#Adobe_OpacityMaskFilter);}
	.st5{filter:url(#Adobe_OpacityMaskFilter_1_);}
	.st6{mask:url(#SVGID_5_);fill:url(#SVGID_6_);}
	.st7{fill:url(#SVGID_7_);}
	.st8{fill:#622872;}
	.st9{fill:url(#SVGID_8_);}
	.st10{fill:#CA4977;}
	.st11{fill-rule:evenodd;clip-rule:evenodd;fill:#F6DFB4;}
	.st12{fill:#D2D3D4;}
	.st13{fill:#FFFFFF;}
	.st14{fill:#205B6A;}
	.st15{fill:url(#SVGID_9_);}
</style>
<g>
	<g>
		<g>
			<g>
				<linearGradient id="SVGID_1_" gradientUnits="userSpaceOnUse" x1="246.1853" y1="138.1426" x2="246.1853" y2="721.1336">
					<stop  offset="0" style="stop-color:#3553A4"/>
					<stop  offset="2.188736e-002" style="stop-color:#3B57A6"/>
					<stop  offset="0.2059" style="stop-color:#6576B8"/>
					<stop  offset="0.3861" style="stop-color:#8694CA"/>
					<stop  offset="0.5587" style="stop-color:#A2B1DA"/>
					<stop  offset="0.7217" style="stop-color:#B9C7E6"/>
					<stop  offset="0.8713" style="stop-color:#C7D6EE"/>
					<stop  offset="0.9949" style="stop-color:#CCDBF0"/>
				</linearGradient>
				<path class="st0" d="M396.4,266.9h-6.1c-1.8-28.2-25.9-59.6-71.7-93.4c-35-25.9-70.5-43.7-70.9-43.9c-1-0.5-2.2-0.5-3.1,0
					c-0.3,0.2-35.9,18-70.9,43.9c-45.7,33.8-69.8,65.2-71.7,93.4H96c-1.9,0-3.5,1.6-3.5,3.5v360.2h307.5V270.4
					C399.9,268.5,398.4,266.9,396.4,266.9z"/>
			</g>
		</g>
	</g>
	<g>
		<defs>
			<path id="SVGID_2_" d="M396.4,266.9h-6.1c-1.8-28.2-25.9-59.6-71.7-93.4c-35-25.9-70.5-43.7-70.9-43.9c-1-0.5-2.2-0.5-3.1,0
				c-0.3,0.2-35.9,18-70.9,43.9c-45.7,33.8-69.8,65.2-71.7,93.4H96c-1.9,0-3.5,1.6-3.5,3.5v360.2h307.5V270.4
				C399.9,268.5,398.4,266.9,396.4,266.9z"/>
		</defs>
		<clipPath id="SVGID_3_">
			<use xlink:href="#SVGID_2_"  style="overflow:visible;"/>
		</clipPath>
		<g class="st1">
			
				<radialGradient id="SVGID_4_" cx="135.5617" cy="369.3047" r="54.2731" fx="124.4213" fy="353.2611" gradientUnits="userSpaceOnUse">
				<stop  offset="0.1436" style="stop-color:#FBF067"/>
				<stop  offset="0.5314" style="stop-color:#FFDE00"/>
				<stop  offset="0.9166" style="stop-color:#F47D20"/>
			</radialGradient>
			<circle class="st2" cx="136.6" cy="371.9" r="48.7"/>
			<g>
				<path class="st3" d="M136.6,323.2c-26.9,0-48.7,21.8-48.7,48.7c0,26.9,21.8,48.7,48.7,48.7c26.9,0,48.7-21.8,48.7-48.7
					C185.3,345,163.5,323.2,136.6,323.2z M134.9,417.4c-25.1,0-45.5-20.4-45.5-45.5c0-25.1,20.4-45.5,45.5-45.5
					c25.1,0,45.5,20.4,45.5,45.5C180.4,397,160,417.4,134.9,417.4z"/>
				<path class="st3" d="M141.9,307c0,2.7-2,4.9-4.6,4.9l0,0c-2.5,0-4.6-2.2-4.6-4.9v-8.7c0-2.7,2-4.9,4.6-4.9l0,0
					c2.5,0,4.6,2.2,4.6,4.9V307z"/>
				<path class="st3" d="M141.9,440.3c0,2.7-2,4.9-4.6,4.9l0,0c-2.5,0-4.6-2.2-4.6-4.9v-8.7c0-2.7,2-4.9,4.6-4.9l0,0
					c2.5,0,4.6,2.2,4.6,4.9V440.3z"/>
				<path class="st3" d="M199.6,373.9c-2.7,0-4.9-2-4.9-4.6l0,0c0-2.5,2.2-4.6,4.9-4.6h8.7c2.7,0,4.9,2,4.9,4.6l0,0
					c0,2.5-2.2,4.6-4.9,4.6H199.6z"/>
				<path class="st3" d="M66.3,373.9c-2.7,0-4.9-2-4.9-4.6l0,0c0-2.5,2.2-4.6,4.9-4.6h8.7c2.7,0,4.9,2,4.9,4.6l0,0
					c0,2.5-2.2,4.6-4.9,4.6H66.3z"/>
				<path class="st3" d="M184.6,328.5c-1.9,1.9-4.9,2.1-6.7,0.3l0,0c-1.8-1.8-1.7-4.8,0.3-6.7l6.2-6.2c1.9-1.9,4.9-2.1,6.7-0.3l0,0
					c1.8,1.8,1.7,4.8-0.3,6.7L184.6,328.5z"/>
				<path class="st3" d="M90.4,422.7c-1.9,1.9-4.9,2.1-6.7,0.3l0,0c-1.8-1.8-1.7-4.8,0.3-6.7l6.2-6.2c1.9-1.9,4.9-2.1,6.7-0.3l0,0
					c1.8,1.8,1.7,4.8-0.3,6.7L90.4,422.7z"/>
				<path class="st3" d="M178.1,416.6c-1.9-1.9-2-4.9-0.3-6.7l0,0c1.8-1.8,4.8-1.7,6.7,0.3l6.2,6.2c1.9,1.9,2.1,4.9,0.3,6.7l0,0
					c-1.8,1.8-4.8,1.7-6.7-0.3L178.1,416.6z"/>
				<path class="st3" d="M83.9,322.3c-1.9-1.9-2-4.9-0.3-6.7l0,0c1.8-1.8,4.8-1.7,6.7,0.3l6.2,6.2c1.9,1.9,2.1,4.9,0.3,6.7l0,0
					c-1.8,1.8-4.8,1.7-6.7-0.3L83.9,322.3z"/>
			</g>
			<defs>
				<filter id="Adobe_OpacityMaskFilter" filterUnits="userSpaceOnUse" x="90.7" y="327.2" width="72.7" height="48.8">
					<feFlood  style="flood-color:white;flood-opacity:1" result="back"/>
					<feBlend  in="SourceGraphic" in2="back" mode="normal"/>
				</filter>
			</defs>
			<mask maskUnits="userSpaceOnUse" x="90.7" y="327.2" width="72.7" height="48.8" id="SVGID_5_">
				<g class="st4">
					<defs>
						<filter id="Adobe_OpacityMaskFilter_1_" filterUnits="userSpaceOnUse" x="90.7" y="327.2" width="72.7" height="48.8">
							<feFlood  style="flood-color:white;flood-opacity:1" result="back"/>
							<feBlend  in="SourceGraphic" in2="back" mode="normal"/>
						</filter>
					</defs>
					<mask maskUnits="userSpaceOnUse" x="90.7" y="327.2" width="72.7" height="48.8" id="SVGID_5_">
						<g class="st5">
						</g>
					</mask>
					
						<radialGradient id="SVGID_6_" cx="125.6017" cy="331.5708" r="50.6721" fx="142.7778" fy="305.4576" gradientUnits="userSpaceOnUse">
						<stop  offset="0.2627" style="stop-color:#FFFFFF"/>
						<stop  offset="0.7268" style="stop-color:#FFFFFF"/>
						<stop  offset="0.9716" style="stop-color:#000000"/>
					</radialGradient>
					<path class="st6" d="M105.4,337.9c9-9.2,32.2-15.4,48.6-6.2c16.4,9.2,11,26.7-15.4,25.7c-26.4-1-42.3,8.6-44.4,16.8
						C92.2,382.4,83.1,360.7,105.4,337.9z"/>
				</g>
			</mask>
			
				<radialGradient id="SVGID_7_" cx="125.6017" cy="331.5708" r="50.6721" fx="142.7778" fy="305.4576" gradientUnits="userSpaceOnUse">
				<stop  offset="0.2627" style="stop-color:#FFFFFF"/>
				<stop  offset="0.7268" style="stop-color:#FBF067"/>
				<stop  offset="0.9716" style="stop-color:#FFDE00"/>
			</radialGradient>
			<path class="st7" d="M105.4,337.9c9-9.2,32.2-15.4,48.6-6.2c16.4,9.2,11,26.7-15.4,25.7c-26.4-1-42.3,8.6-44.4,16.8
				C92.2,382.4,83.1,360.7,105.4,337.9z"/>
		</g>
	</g>
</g>
<g>
	<path class="st8" d="M722.3,213.6c0-0.8,0.7-1.5,1.5-1.5c0.8,0,1.5,0.7,1.5,1.5c0,0.8-0.7,1.5-1.5,1.5
		C723,215.1,722.3,214.5,722.3,213.6z M722.3,221.1c0-0.8,0.7-1.5,1.5-1.5c0.8,0,1.5,0.7,1.5,1.5c0,0.8-0.7,1.5-1.5,1.5
		C723,222.6,722.3,221.9,722.3,221.1z"/>
	<path class="st8" d="M743.8,221.1c0,0.4-0.2,1.2-1.5,1.2c-1.9,0-3.3-0.4-3.9-1.9c-0.6,0.1-1.2,0.2-1.8,0.2c-2.5,0-4-1.1-4-2.7
		c0-1.8,1.9-4,5.5-5.1v-1.2l1.7-0.8l0.2,0v7.4c0,1.8,0.9,2.1,2.8,2.1C743.7,220.5,743.8,220.7,743.8,221.1z M735.6,209.4l-1.9-1.4
		l1.2-1.8l1.9,1.3L735.6,209.4z M738.1,218.7v-0.2v-3.6c-2.2,0.7-3.7,1.8-4,2.8c0.3,0.9,1.6,1.2,2.6,1.2
		C737.2,218.8,737.7,218.7,738.1,218.7z M739,209.4L737,208l1.2-1.8l1.9,1.3L739,209.4z"/>
	<path class="st8" d="M751.9,221.1c0,0.4-0.2,1.2-1.4,1.2c-1.5,0-2.9-0.3-3.9-1.2c-0.8,0.8-1.8,1.2-3.3,1.2h-0.8l0.5-1.9h0.7
		c0.7,0,1.4-0.1,1.8-0.5c0.3-0.5,0.7-1.6,1.2-3.6l1.8-0.5l0.2,0.1c-0.3,1.5-0.7,2.7-1.1,3.7c0.6,0.3,1.5,0.7,3.4,0.7
		C751.7,220.5,751.9,220.7,751.9,221.1z M744.4,224.2l1.9,1.3l-1.2,1.8l-1.9-1.4L744.4,224.2z M747.9,224.2l1.9,1.3l-1.2,1.8
		l-1.9-1.4L747.9,224.2z"/>
	<path class="st8" d="M764.6,221.1c0,0.7-0.6,1.2-1.5,1.2c-1,0-1.8-0.2-2.4-0.8c-0.4,0.7-0.9,1.1-1.9,1.1c-1.4,0-3.2-0.7-4.8-1.8
		c-1,1.3-1.7,1.5-3.6,1.5l0.5-1.9c1,0,1.3-0.3,2.1-1.5c0.9-1.5,2-4.4,4.3-4.4c1.8,0,2.6,1.8,3.5,3.7c0.9,1.8,1.3,2.1,2.8,2.1
		C764.3,220.5,764.6,220.7,764.6,221.1z M759.7,220.2c-0.1-0.1-0.1-0.3-0.2-0.4c-1-2.4-1.6-3.3-2.2-3.3c-0.9,0-1.7,1.5-2.4,2.9
		c1.2,0.8,2.7,1.4,3.5,1.4C759,220.8,759.4,220.6,759.7,220.2z"/>
	<path class="st8" d="M774.9,220.1c0,1.5-1.1,2.3-3.4,2.3c-1.4,0-2.7-0.2-3.7-0.7c-0.9,0.4-2.1,0.6-3.6,0.6h-1.1l0.5-1.9h2.4
		c-0.6-0.7-1-1.6-1-2.6c0-1.3,0.7-2.7,1.8-3.3c-0.5-0.2-0.9-0.4-1.2-0.6l0.6-1.8l0.2,0C769.6,214.1,774.9,217.1,774.9,220.1z
		 M766.5,217.7c0,0.9,0.4,1.8,1.6,2.4c0.8-0.5,1.1-1.3,1.1-2.3c0-1.1-0.6-2.1-1.3-2.1C767.1,215.7,766.5,216.7,766.5,217.7z
		 M773.3,220.4c0-1-1.1-2.2-2.6-3.3c0,0.2,0,0.5,0,0.8c0,1-0.4,2-1.1,2.8c0.6,0.1,1.2,0.1,1.9,0.1
		C772.4,220.7,773.1,220.6,773.3,220.4z"/>
	<path class="st8" d="M777.5,222.4v-16l1.8-0.5l0.1,0.1l0,16.1l-1.7,0.4L777.5,222.4z"/>
	<path class="st8" d="M790.7,221.1c0,0.4-0.2,1.2-1.4,1.2c-1,0-1.6-0.3-2-0.6c-0.7,2.2-3.3,4.2-7.2,4.9l-1-1.4l0.1-0.2
		c4.7-0.9,6.4-2.8,6.8-4.6c-0.4-1.1-1.1-2.6-1.8-4l1.4-1.5h0.2c0.6,1.7,1.2,3.1,1.4,3.7c0.6,1.6,1,1.9,2.5,1.9
		C790.6,220.5,790.7,220.7,790.7,221.1z"/>
	<path class="st8" d="M789.8,220.5h0.2c1.2,0,2.1-0.1,2.5-0.3c0.5-1.2-0.3-2.9-1.1-4.7l1.6-1.2h0.2c0.8,1.7,1.2,3.3,1.2,4.3
		c0,1-0.5,2.2-1.2,2.9c-0.6,0.6-1.6,0.8-3.8,0.8h-0.2L789.8,220.5z M790.9,226l1.2-1.8l2,1.3l-1.2,1.8L790.9,226z"/>
	<path class="st8" d="M803.9,216.2c0.8,1.1,1.2,2.2,1.2,3.2c0,2.1-1.2,3-4.4,3h-3.2l0.1-1.8c1.5-1.1,3.2-2.4,4.3-4.2
		c-1.6-1.7-3.8-3.3-5.5-4.5l0.7-1.9l0.1-0.1c2.2,1.8,4.1,3.4,5.4,4.9c0.4-0.9,0.6-1.9,0.6-3c0-1.9-0.5-4.2-0.7-4.9l1.7-0.9l0.2,0
		c0.2,1.1,0.7,3.6,0.7,5.2C805.1,213.2,804.6,214.8,803.9,216.2z M801.7,226.9l0.1,1.2c-1.2,0.1-2.7,0.3-4.6,0.3l-0.1-1.3
		c0.3,0,0.7,0,1.1,0c-0.3-0.4-0.4-0.9-0.4-1.4c0-1.2,0.7-1.9,2-1.9c0.5,0,1.1,0.1,1.7,0.3l-0.3,1.3c-0.5-0.2-0.8-0.3-1.1-0.3
		c-0.6,0-0.9,0.4-0.9,0.9c0,0.4,0.2,0.7,0.5,1C800.3,227,801,226.9,801.7,226.9z M802.9,217.6c-1,1.3-2.2,2.3-3,2.9h0.9
		c1.8,0,2.6-0.2,3-0.5C803.8,219.2,803.4,218.4,802.9,217.6z"/>
	<path class="st8" d="M808.3,222.4v-16l1.8-0.5l0.1,0.1l0,16.1l-1.7,0.4L808.3,222.4z"/>
	<path class="st8" d="M825.7,219c0,2-1.7,3.5-4,3.5c-2.1,0-3.4-1.1-3.4-3c0-1.2,0.6-2.6,2.2-4.7l-0.5-0.4l0.9-1.7l0.2-0.1
		C824.6,215.7,825.7,217.1,825.7,219z M820.4,210.6l-1.9-1.4l1.2-1.8l1.9,1.3L820.4,210.6z M823.9,219.1c0-1-0.8-2.1-2.1-3.2
		c-1.3,1.4-1.8,2.4-1.8,3.2c0,1,0.7,1.6,1.9,1.6C823.2,220.6,823.9,220,823.9,219.1z M823.7,210.6l-1.9-1.4l1.2-1.8l1.9,1.3
		L823.7,210.6z"/>
	<path class="st8" d="M841.1,221.1c0,0.4-0.2,1.2-1.5,1.2c-2.1,0-3.7-0.6-4.1-2.9c-1.8,2.2-4.4,3-7.2,3l-0.8-1.7l0.1-0.1
		c2.3,0,4.3-0.5,5.9-1.6c-1.3-2.5-3.4-4.6-6.1-7.1l0.7-1.9l0.2-0.1c3,2.7,5.4,6.1,6.4,8.1c0.3-0.3,0.5-0.6,0.7-1v-10.7l1.7-0.4
		l0.1,0.1v12.1c0,1.9,0.8,2.3,2.8,2.3C840.9,220.5,841.1,220.7,841.1,221.1z"/>
	<path class="st8" d="M861.3,221.1c0,0.4-0.2,1.2-1.4,1.2c-1,0-2.3-0.2-3.3-1c-1.1,0.8-2.9,1-6.1,1h-2.7c-2.4,0-3.8-0.1-5.3-0.7
		c-0.7,0.5-1.6,0.7-2.7,0.7l0.5-1.9c0.7,0,1.5-0.1,1.8-0.3c0.3-0.4,0.7-1.4,1.1-2.7l1.9-0.3l0.1,0.1c-0.4,1.2-0.8,2.1-1.3,2.9
		c0.5,0.2,1.2,0.3,2.1,0.3c3.9-3.8,6.5-6.1,8.7-6.1c2,0,3.6,1.9,3.6,3.8c0,0.7-0.1,1.3-0.4,1.8c0.5,0.3,1.3,0.6,2.6,0.6
		C861.1,220.5,861.3,220.7,861.3,221.1z M855.9,220c0.2-0.3,0.4-0.9,0.4-1.5c0-1-0.9-2.3-2-2.3c-1.5,0-3.6,1.9-6.1,4.3h2.1
		C853.8,220.5,855.1,220.4,855.9,220z"/>
	<path class="st8" d="M860.3,220.5c0.8,0,1.7,0,2.3-0.5c0.1-0.4,0.2-1,0.2-1.9v-11.7l1.7-0.4l0.2,0.1v11.9c0,3.5-1.8,4.4-4.8,4.4
		L860.3,220.5z"/>
	<path class="st8" d="M867.7,222.4v-16l1.8-0.5l0.1,0.1l0,16.1l-1.7,0.4L867.7,222.4z"/>
	<path class="st8" d="M881.6,204.1c-1.2,0.1-2.7,0.3-4.6,0.3l-0.1-1.3c0.3,0,0.7,0,1.1,0c-0.3-0.4-0.4-0.9-0.4-1.4
		c0-1.2,0.7-1.9,2-1.9c0.5,0,1.1,0.1,1.7,0.3l-0.3,1.2c-0.5-0.1-0.8-0.2-1.1-0.2c-0.6,0-0.9,0.4-0.9,0.9c0,0.4,0.2,0.7,0.5,1
		c0.8,0,1.5-0.1,2.2-0.2L881.6,204.1z M880.2,206l0.1,0.1l0,16.1l-1.7,0.4l-0.1-0.1v-16L880.2,206z"/>
	<path class="st8" d="M891.7,221.1c0,0.4-0.2,1.2-1.4,1.2c-1,0-1.6-0.3-2-0.6c-0.7,2.2-3.3,4.2-7.2,4.9l-1-1.4l0.1-0.2
		c4.7-0.9,6.4-2.8,6.8-4.6c-0.4-1.1-1.1-2.6-1.8-4l1.4-1.5h0.2c0.6,1.7,1.2,3.1,1.4,3.7c0.6,1.6,1,1.9,2.5,1.9
		C891.5,220.5,891.7,220.7,891.7,221.1z"/>
	<path class="st8" d="M899.2,217.2c0,2.3-0.4,3.6-1.5,4.4c-1.3,0.7-3.1,0.8-7.6,0.8l0.5-1.9c4.6,0,6.1-0.2,6.8-0.5
		c0.1-0.3,0.1-0.8,0.2-1.5c-0.7,0.2-1.6,0.3-2.5,0.3c-2.1,0-3.1-1.1-3.1-2.8c0-2.2,1.6-4.6,3.5-4.6
		C897.9,211.4,899.2,214.2,899.2,217.2z M894.2,208.8l-1.9-1.4l1.2-1.8l1.9,1.3L894.2,208.8z M895.5,217c0.8,0,1.5-0.1,2.2-0.2
		c-0.1-1.7-1.1-3.5-2.2-3.5c-0.9,0-1.9,1.2-1.9,2.5C893.6,216.6,894.3,217,895.5,217z M897.5,208.8l-1.9-1.4l1.2-1.8l1.9,1.3
		L897.5,208.8z"/>
	<path class="st8" d="M905.4,204.1c-1.2,0.1-2.7,0.3-4.6,0.3l-0.1-1.3c0.3,0,0.7,0,1.1,0c-0.3-0.4-0.4-0.9-0.4-1.4
		c0-1.2,0.7-1.9,2-1.9c0.5,0,1.1,0.1,1.7,0.3l-0.3,1.2c-0.5-0.1-0.8-0.2-1.1-0.2c-0.6,0-0.9,0.4-0.9,0.9c0,0.4,0.2,0.7,0.5,1
		c0.8,0,1.5-0.1,2.2-0.2L905.4,204.1z M904,206l0.1,0.1l0,16.1l-1.7,0.4l-0.1-0.1v-16L904,206z"/>
	<path class="st8" d="M926.6,221.1c0,0.7-0.6,1.2-1.5,1.2c-1.1,0-1.9-0.3-2.5-0.9c-0.6,0.8-1.2,1.2-1.9,1.2c-1.7,0-3.5-1.2-5.4-3.5
		c-0.3,0.3-0.6,0.7-0.8,1c-0.3,1.1,0,5.4,0.8,10.2l-1.6,0.8l-0.2-0.1c-0.6-4.2-0.9-7-0.9-8.4c0-2,0.4-3.1,1.6-4.5
		c1.6-1.9,3.8-3.4,5.2-3.4c1.3,0,2.1,0.8,3.5,3.7c0.9,1.8,1.3,2.1,2.8,2.1C926.3,220.5,926.6,220.7,926.6,221.1z M921.7,220.1
		c-0.1-0.1-0.1-0.2-0.2-0.3c-1.1-2.4-1.8-3.3-2.4-3.3c-0.6,0-1.6,0.6-2.6,1.4c1.4,1.8,2.9,2.9,3.9,2.9
		C920.8,220.8,921.3,220.6,921.7,220.1z"/>
	<path class="st8" d="M925.7,220.5h0.7c1.2,0,2.1-0.1,2.5-0.3c0.5-1.2-0.2-2.9-1-4.7l1.5-1.2h0.2c0.7,1.7,1.2,3.3,1.2,4.3
		c0,1-0.4,2.2-1.2,2.9c-0.6,0.6-1.6,0.8-3.8,0.8h-0.7L925.7,220.5z M925.7,210.2l1.2-1.8l1.9,1.3l-1.2,1.8L925.7,210.2z
		 M927.1,207.5l1.2-1.8l1.9,1.3l-1.2,1.9L927.1,207.5z M929.1,210.2l1.2-1.8l1.9,1.3l-1.2,1.8L929.1,210.2z"/>
</g>
<linearGradient id="SVGID_8_" gradientUnits="userSpaceOnUse" x1="506.4595" y1="428.0948" x2="1024.9995" y2="428.0948">
	<stop  offset="0.1199" style="stop-color:#FFFFFF"/>
	<stop  offset="0.9969" style="stop-color:#FFF2D5"/>
</linearGradient>
<rect x="506.5" y="288.1" class="st9" width="518.5" height="280"/>
<g>
	<g>
		<path class="st10" d="M482.9,335.1c0-2.4,1.3-4.7,3.2-7l2,1.2c-0.9,1.2-1.7,2.5-1.7,3.4c0,1.3,1.6,1.1,1.6,3
			c0,1.2-0.9,2.5-2.5,2.5C483.9,338.2,482.9,337,482.9,335.1z"/>
		<path class="st10" d="M506.8,335.3c0,1.5-0.5,2.7-2.2,2.7c-2,0-3.4-0.4-4.3-1.5c-1.5,1.1-3.9,1.8-6.6,1.8c-0.8,0-2.6-0.1-3.7-0.4
			l0.6-3.9l0.2-0.1c1.1,0.2,2.5,0.3,3.3,0.3c1.5,0,3.4-0.2,4.6-0.7c-0.7-1.3-2.4-4.7-3.7-7.2l2.9-3.3h0.4c0.8,2,2.9,6.9,3.4,8
			c1.1,2.7,1.8,3,3.9,3C506.5,334,506.8,334.6,506.8,335.3z"/>
		<path class="st10" d="M523.9,335.3c0,1.6-0.7,2.7-2.2,2.7c-1.4,0-2.4-0.3-3.3-1.1c-0.6,1-1.5,1.5-2.7,1.5c-1.4,0-3.5-0.7-5.7-2.2
			c-1.3,1.6-2.9,1.8-5.3,1.8l0.9-4c1.4,0,1.8-0.2,2.6-1.5c1.8-3,3.3-5.8,6-5.8c2.4,0,3.6,2.1,4.9,4.8c1.1,2.1,1.6,2.6,3.5,2.6
			C523.5,334,523.9,334.6,523.9,335.3z M516.5,334.1l-0.1-0.2c-1-2.3-1.8-3.4-2.5-3.4c-0.7,0-1.5,1.2-2.3,2.8
			c1.2,0.8,2.5,1.4,3.5,1.4C515.8,334.7,516.2,334.4,516.5,334.1z"/>
		<path class="st10" d="M544.1,335.3c0,1.5-0.5,2.7-2.1,2.7c-5.2,0-7-1.3-8.3-3.5l-1.2,0.6c-4.4,2.2-7.3,2.9-10.8,2.9l0.9-4
			c3.2,0,5.1-0.4,8.8-1.7c1-0.4,1.8-0.6,2.5-0.9c-0.3-0.1-0.7-0.3-1.1-0.5c-2.6-1.2-4-1.6-5.3-1.6c-1.4,0-2.6,0.3-3.7,0.6l-0.2-0.1
			l1.4-3.6c0.7-0.4,1.9-0.7,2.9-0.7c1.1,0,2.4,0.4,4.9,1.5c3.4,1.5,5.4,2,7.6,2.1l-0.7,3.6c-0.9,0-1.7,0.1-2.7,0.4
			c1,0.6,2.6,0.8,5.8,0.8C543.8,334,544.1,334.6,544.1,335.3z"/>
		<path class="st10" d="M557,333.8c0,2.7-1.3,4.6-3.7,4.6c-1.6,0-3.9-0.5-6.3-2.2c-1.3,1.5-2.9,1.8-5.1,1.8l0.9-4
			c1.2,0,1.7-0.4,2.7-2.3c1.1-2,2.9-5.1,5.7-5.1C554.2,326.7,557,330.1,557,333.8z M553.6,334.2c-0.1-1.3-1.2-3.7-2.4-3.7
			c-0.8,0-1.5,1.2-2.3,2.7c1.3,0.8,2.6,1.3,3.5,1.3C552.7,334.5,553.1,334.4,553.6,334.2z"/>
		<path class="st10" d="M566.9,337.3c0-1.1,0.3-3,0.6-3.9l2.9-1.1l0.4,0.1c-0.2,0.8-0.2,2-0.2,3c0,2.9,1.5,4.5,5,4.5
			c2.4,0,4.3-0.6,5.3-2c0.2-1.2,0.3-2.4,0.3-4.3v-16.9l3.7-1l0.3,0.2l0,17.4c0,7.2-4.3,10.5-10.5,10.5
			C569.8,344,566.9,341.3,566.9,337.3z"/>
		<path class="st10" d="M590,313.7c-0.7,0-1.5,0.2-2.4,0.8l-1.2-1.8c1.2-1.1,2.2-1.5,3.2-1.5c1.4,0,2.8,0.8,4.4,0.8
			c0.5,0,1-0.1,1.5-0.3l0.7,2.1c-0.8,0.4-1.6,0.6-2.3,0.6C592.4,314.5,591.4,313.7,590,313.7z M589.1,338v-21.2l3.7-1l0.3,0.2
			l-0.1,21.4l-3.7,0.8L589.1,338z"/>
		<path class="st10" d="M603.5,337.2c0-1.2,0.3-2.5,0.5-3.6l3.3-1.1l0.4,0.2c-0.3,1.3-0.4,2-0.4,2.8c0,2.8,1.5,4.6,6.5,4.6
			c3.8,0,7.6-0.7,8.6-1.9c0-0.7-0.8-1.6-5.2-2.5l1.1-3.4c6.1,1.4,7.6,3,7.6,5c-0.2,4.3-5.7,6.8-12.8,6.8
			C606.5,344,603.5,341,603.5,337.2z"/>
		<path class="st10" d="M635.5,334.9c0,1.5-0.5,2.7-2.1,2.7c-2.6,0-4.4-1.2-5.3-3.5c-1.6,0.8-3.8,1.2-7.2,1.3l-2.6-3.3
			c3.4-0.1,7.1-0.6,8.5-1.2c0.2-0.6,0.3-1.6,0.3-2.4v-12l3.7-1l0.3,0.2v13c0,3.1,0.5,5,3.2,5C635.2,333.7,635.5,334.2,635.5,334.9z"
			/>
		<path class="st10" d="M648.7,333.2l-1.2,3.6c-2.5,0.5-6.4,0.8-14.2,0.8l0.9-4h2.3c-0.5-1-0.8-2-0.8-3.1c0-4,3-6.2,6.7-6.2
			c1.5,0,3.2,0.4,4.6,1l-0.4,3.4l-0.1,0.1c-1-0.3-2.3-0.6-3.3-0.6c-1.9,0-3,0.9-3,2.7c0,0.8,0.4,1.8,1.1,2.7c2.6-0.1,5-0.3,7.2-0.5
			L648.7,333.2z"/>
		<path class="st10" d="M662.5,334.8c0,4.4-3.4,8.8-10.6,8.9l-1.9-3l0.2-0.4c4.4-0.1,7.4-1.3,8.5-3.4c-0.8,0.1-1.6,0.2-2.6,0.2
			c-3,0-4.4-1.5-4.4-3.8c0-3,2.3-6.6,5.3-6.6C660.4,326.7,662.5,330.4,662.5,334.8z M657,333.6c0.8,0,1.5-0.1,2.2-0.2
			c-0.3-1.6-1.2-3-2.4-3c-1.1,0-2,1.2-2,2.2C654.8,333.3,655.5,333.6,657,333.6z"/>
		<path class="st10" d="M689,335.3c0,1.5-0.5,2.7-2.2,2.7c-2,0-3.4-0.4-4.3-1.5c-1.5,1.1-3.9,1.8-6.6,1.8c-0.8,0-2.6-0.1-3.7-0.4
			l0.6-3.9l0.2-0.1c1.1,0.2,2.5,0.3,3.3,0.3c1.5,0,3.4-0.2,4.6-0.7c-0.7-1.3-2.4-4.7-3.7-7.2l2.9-3.3h0.4c0.8,2,2.9,6.9,3.4,8
			c1.1,2.7,1.8,3,3.9,3C688.7,334,689,334.6,689,335.3z"/>
		<path class="st10" d="M706,335.3c0,1.6-0.7,2.7-2.2,2.7c-1.4,0-2.4-0.3-3.3-1.1c-0.6,1-1.5,1.5-2.7,1.5c-1.4,0-3.5-0.7-5.7-2.2
			c-1.3,1.6-2.9,1.8-5.3,1.8l0.9-4c1.4,0,1.8-0.2,2.6-1.5c1.8-3,3.3-5.8,6-5.8c2.4,0,3.6,2.1,4.9,4.8c1.1,2.1,1.6,2.6,3.5,2.6
			C705.7,334,706,334.6,706,335.3z M698.7,334.1l-0.1-0.2c-1-2.3-1.8-3.4-2.5-3.4c-0.7,0-1.5,1.2-2.3,2.8c1.2,0.8,2.5,1.4,3.5,1.4
			C698,334.7,698.4,334.4,698.7,334.1z"/>
		<path class="st10" d="M726.2,335.3c0,1.5-0.5,2.7-2.1,2.7c-5.2,0-7-1.3-8.3-3.5l-1.2,0.6c-4.4,2.2-7.3,2.9-10.8,2.9l0.9-4
			c3.2,0,5.1-0.4,8.8-1.7c1-0.4,1.8-0.6,2.5-0.9c-0.3-0.1-0.7-0.3-1.1-0.5c-2.6-1.2-4-1.6-5.3-1.6c-1.4,0-2.6,0.3-3.7,0.6l-0.2-0.1
			l1.4-3.6c0.7-0.4,1.9-0.7,2.9-0.7c1.1,0,2.4,0.4,4.9,1.5c3.4,1.5,5.4,2,7.6,2.1l-0.7,3.6c-0.9,0-1.7,0.1-2.7,0.4
			c1,0.6,2.6,0.8,5.8,0.8C725.9,334,726.2,334.6,726.2,335.3z"/>
		<path class="st10" d="M739.2,333.8c0,2.7-1.3,4.6-3.7,4.6c-1.6,0-3.9-0.5-6.3-2.2c-1.3,1.5-2.9,1.8-5.1,1.8l0.9-4
			c1.2,0,1.7-0.4,2.7-2.3c1.1-2,2.9-5.1,5.7-5.1C736.3,326.7,739.2,330.1,739.2,333.8z M735.7,334.2c-0.1-1.3-1.2-3.7-2.4-3.7
			c-0.8,0-1.5,1.2-2.3,2.7c1.3,0.8,2.6,1.3,3.5,1.3C734.9,334.5,735.3,334.4,735.7,334.2z"/>
		<path class="st10" d="M749.1,337.2c0-1.2,0.3-2.5,0.5-3.6l3.3-1.1l0.4,0.2c-0.3,1.3-0.4,2-0.4,2.8c0,2.8,1.5,4.6,6.5,4.6
			c3.8,0,7.6-0.7,8.6-1.9c0-0.7-0.8-1.6-5.2-2.5l1.1-3.4c6.1,1.4,7.6,3,7.6,5c-0.2,4.3-5.7,6.8-12.8,6.8
			C752.2,344,749.1,341,749.1,337.2z"/>
		<path class="st10" d="M781.1,334.9c0,1.5-0.5,2.7-2.1,2.7c-2.6,0-4.4-1.2-5.3-3.5c-1.6,0.8-3.8,1.2-7.2,1.3l-2.6-3.3
			c3.4-0.1,7.1-0.6,8.5-1.2c0.2-0.6,0.3-1.6,0.3-2.4v-12l3.7-1l0.3,0.2v13c0,3.1,0.5,5,3.2,5C780.9,333.7,781.1,334.2,781.1,334.9z"
			/>
		<path class="st10" d="M794.4,333.2l-1.2,3.6c-2.5,0.5-6.4,0.8-14.2,0.8l0.9-4h2.3c-0.5-1-0.8-2-0.8-3.1c0-4,3-6.2,6.7-6.2
			c1.5,0,3.2,0.4,4.6,1l-0.4,3.4l-0.1,0.1c-1-0.3-2.3-0.6-3.3-0.6c-1.9,0-3,0.9-3,2.7c0,0.8,0.4,1.8,1.1,2.7c2.6-0.1,5-0.3,7.2-0.5
			L794.4,333.2z"/>
		<path class="st10" d="M826.8,335.3c0,1.5-0.5,2.7-2.1,2.7c-1.1,0-2-0.3-2.8-0.8c-1.3,4.5-5,6.7-10,6.7c-4.9,0-7.8-2.6-7.8-6.7
			c0-1.3,0.3-2.6,0.6-3.9l2.9-1.1l0.4,0.1c-0.2,0.8-0.2,2-0.2,3c0,2.9,1.5,4.5,5,4.5c2.4,0,4.3-0.6,5.3-2c0.2-1.2,0.3-2.4,0.3-4.3
			v-16.9l3.7-1l0.3,0.2v15.2c0,2.5,0.7,2.8,3.1,2.8C826.5,334,826.8,334.6,826.8,335.3z"/>
		<path class="st10" d="M850.4,331.7c0,2-1.1,3.7-2.2,4.6c-1.9,1.5-4.1,1.7-8.6,1.7h-3.4c-3.4,0-5.2-0.1-7.3-1c-1.1,0.7-2.4,1-4.3,1
			l0.9-4c0.7,0,1.6-0.1,2.1-0.3c0.3-0.7,0.5-1.8,0.8-3.3l4.3-0.6l0.1,0.1c-0.5,1.5-0.9,2.7-1.4,3.7c0.7,0.2,1.6,0.3,2.6,0.3
			c5.4-5.2,8.7-7.9,11.6-7.9C848.7,326,850.4,329.1,850.4,331.7z M847.2,332.3c0-1.1-0.8-2.5-2.1-2.5c-1.5,0-4,1.5-7.1,4.2h3.1
			c3.8,0,5-0.1,5.8-0.4C847.1,333.3,847.2,332.9,847.2,332.3z"/>
		<path class="st10" d="M879.2,335.3c0,1.8-0.8,2.7-2.2,2.7c-1.4,0-2.4-0.3-3.3-1.2c-0.7,1-1.5,1.6-2.7,1.6c-1.9,0-4.1-1.2-6.5-3.8
			l-0.5,0.8c-0.2,2.2,0.8,8.3,1.5,12.5l-3.4,1.6l-0.3-0.2c-0.8-4.1-1.5-9.2-1.5-11.2c0-3,0.7-5.1,2.2-6.9c2-2.4,4.9-4.6,7.1-4.6
			c2.3,0,3.3,1.9,4.8,4.8c1.1,2,1.4,2.6,3.5,2.6C878.7,334,879.2,334.5,879.2,335.3z M871.8,334c0-0.1,0-0.1-0.1-0.2
			c-1.1-2.4-1.9-3.4-2.6-3.4c-0.7,0-1.7,0.7-2.7,1.7c1.5,1.6,2.9,2.5,4,2.5C871.1,334.7,871.5,334.4,871.8,334z"/>
		<path class="st10" d="M894.1,335.3c0,1.8-0.7,2.7-2.1,2.7h-1.9c0.5,0.7,0.7,1.5,0.7,2.3c0,2.5-2.2,4.1-4.9,4.1
			c-3.9,0-6.5-2.3-7-6.4h-2l0.9-4h1.3c0.6-2.8,2-5.8,3.9-8l2.6-1.5l0.3,0c3,2.2,4.4,4.1,4.4,6c0,1.2-0.7,2.8-1.6,3.5h4.1
			C893.7,334,894.1,334.5,894.1,335.3z M884,337.7c-0.4,0-0.9,0.1-1.4,0.2c0.4,1.9,1.9,3,3.8,3c0.6,0,1.1-0.2,1.4-0.4
			C887.8,339.2,886.3,337.7,884,337.7z M882.7,334.3c2.2-0.2,3.7-1.3,3.7-3.3c0-0.9-0.4-1.7-1.3-2.7
			C883.9,330.1,883.1,332.2,882.7,334.3z"/>
		<path class="st10" d="M904.1,335.3c0,1.5-0.5,2.7-2.1,2.7c-1.2,0-2.9-0.3-4-1.8c-1.1,1.4-2.8,1.8-5.9,1.8l0.9-4
			c0.9,0,1.9-0.1,2.6-0.4c0.1-0.5,0.2-1.2,0.2-2.4v-14.4l3.7-1l0.3,0.2v15.2c0,2.5,0.7,2.8,3.2,2.8
			C903.7,334,904.1,334.6,904.1,335.3z"/>
		<path class="st10" d="M902.8,334c0.9,0,1.9-0.1,2.6-0.4c0.1-0.5,0.2-1.2,0.2-2.4v-14.4l3.7-1l0.3,0.2v15c0,5.6-2.9,7-7.6,7
			L902.8,334z"/>
		<path class="st10" d="M913.5,338v-21.2l3.7-1l0.3,0.2l-0.1,21.4l-3.7,0.8L913.5,338z"/>
		<path class="st10" d="M920.1,324.9c0.7-1.1,1.5-2.1,1.5-3c0-0.4-0.1-0.7-0.4-0.9c-0.6-0.5-1-1-1-1.9c0-1.1,0.8-2.2,2.3-2.2
			s2.4,1.1,2.4,2.5c0,2.5-1.3,4.6-3,6.6L920.1,324.9z M925.9,324.9c0.7-1.1,1.5-2.1,1.5-3c0-0.4-0.1-0.7-0.4-0.9c-0.6-0.5-1-1-1-1.9
			c0-1.1,0.8-2.2,2.3-2.2s2.4,1.1,2.4,2.5c0,2.5-1.3,4.6-3,6.6L925.9,324.9z"/>
		<path class="st10" d="M458.7,377.2c0-2.4,1.3-4.7,3.2-7l2,1.2c-0.9,1.2-1.7,2.5-1.7,3.4c0,1.3,1.6,1.1,1.6,3
			c0,1.2-0.9,2.5-2.5,2.5C459.7,380.3,458.7,379.1,458.7,377.2z M458.7,385.9c0-1.3,1.2-2.5,2.6-2.5c1.4,0,2.6,1.2,2.6,2.5
			c0,1.4-1.2,2.6-2.6,2.6C459.9,388.4,458.7,387.3,458.7,385.9z"/>
		<path class="st10" d="M485.1,385.3c0,1.8-0.8,2.7-2.2,2.7c-1.4,0-2.4-0.3-3.3-1.2c-0.7,1-1.5,1.6-2.7,1.6c-1.9,0-4.1-1.2-6.5-3.8
			l-0.5,0.8c-0.2,2.2,0.8,8.3,1.5,12.5l-3.4,1.6l-0.3-0.2c-0.8-4.1-1.5-9.2-1.5-11.2c0-3,0.7-5.1,2.2-6.9c2-2.4,4.9-4.6,7.1-4.6
			c2.3,0,3.3,1.9,4.8,4.8c1.1,2,1.4,2.6,3.5,2.6C484.6,384,485.1,384.5,485.1,385.3z M477.8,384c0-0.1,0-0.1-0.1-0.2
			c-1.1-2.4-1.9-3.4-2.6-3.4c-0.7,0-1.7,0.7-2.7,1.7c1.5,1.6,2.9,2.5,4,2.5C477,384.7,477.4,384.4,477.8,384z"/>
		<path class="st10" d="M496.6,385.3c0,1.5-0.5,2.7-2.1,2.7c-2.4,0-4.6-0.5-5.8-1.5c-1.2,1-2.6,1.5-4.7,1.5h-1.1l0.9-4h0.7
			c0.8,0,1.8-0.1,2.2-0.4c0.3-0.8,0.7-2.4,1.1-4.5l4.1-1l0.3,0.2c-0.4,1.9-0.9,3.6-1.5,5c0.9,0.4,2.4,0.6,4.5,0.6
			C496.3,384,496.6,384.6,496.6,385.3z M490.4,390.3l3.3,2.2l-2,3.1l-3.1-2.2l-1.5,2.2l-3.3-2.3l2-3l3.2,2.2L490.4,390.3z"/>
		<path class="st10" d="M510.8,384.2c0,2.7-1.9,4-5,4c-1.9,0-3.5-0.4-4.9-1c-1.2,0.5-2.7,0.9-4.5,0.9h-1.9l0.6-4h2.3
			c-0.5-0.8-0.7-1.8-0.7-2.7c0-1.5,0.7-3.2,1.9-4.2c-0.5-0.3-1-0.4-1.4-0.6l1.2-3.4l0.3-0.1C503.4,375.7,510.8,380.2,510.8,384.2z
			 M502.2,381.1c0-1.3-0.6-2.3-1.3-2.3c-0.7,0-1.3,0.9-1.3,2.2c0,1.1,0.4,2,1.5,2.7C501.7,383.1,502.2,382.3,502.2,381.1z
			 M507.8,384.4c-0.3-0.9-1.4-2-2.8-3.1c-0.1,1.1-0.4,2.3-1.1,3.3c0.5,0.1,1.2,0.1,1.8,0.1C506.7,384.7,507.6,384.5,507.8,384.4z"/>
		<path class="st10" d="M514,388v-21.2l3.7-1l0.3,0.2l-0.1,21.4l-3.7,0.8L514,388z"/>
		<path class="st10" d="M533.6,385.3c0,1.5-0.5,2.7-2.1,2.7c-1.1,0-1.9-0.2-2.6-0.5c-1.2,3.2-4.9,5.5-9.6,6.3l-2.1-2.9l0.2-0.3
			c5-0.9,8-3,9-5c-0.7-1.6-1.5-3.4-2.4-5.1l2.8-3.3h0.4l1.4,3.9c0.9,2.5,1.6,2.8,3.7,2.8C533.3,384,533.6,384.6,533.6,385.3z"/>
		<path class="st10" d="M532.3,384h0.3c1.2,0,2.6-0.1,3.1-0.3c0.2-1.2-0.8-3.4-1.8-5.5l3.2-2.6h0.3c1.1,2.3,1.8,5.1,1.8,6.6
			c0,1.7-0.6,3.1-1.7,4.3c-1.1,1-2.5,1.4-5.7,1.4h-0.4L532.3,384z M533.4,393.5l2.1-3.1l3.4,2.3l-2.1,3.2L533.4,393.5z"/>
		<path class="st10" d="M548.1,396.5c-1.6,0.2-3.7,0.4-6.2,0.4l-0.2-2.3c0.4,0,1,0,1.4,0c-0.4-0.6-0.7-1.3-0.7-2
			c0-1.6,1-2.8,2.8-2.8c0.7,0,1.5,0.2,2.4,0.5l-0.5,2.1c-0.6-0.2-1-0.3-1.4-0.3c-0.7,0-1.1,0.4-1.1,1c0,0.5,0.2,0.9,0.6,1.3
			c0.9-0.1,1.9-0.1,2.7-0.2L548.1,396.5z M543.2,388.2l-0.3-0.2v-21.2l3.7-1l0.3,0.2l-0.1,21.4L543.2,388.2z"/>
		<path class="st10" d="M557.3,387.3c0-1.1,0.3-3,0.6-3.9l2.9-1.1l0.4,0.1c-0.2,0.8-0.2,2-0.2,3c0,2.9,1.5,4.5,5,4.5
			c2.4,0,4.3-0.6,5.3-2c0.2-1.2,0.3-2.4,0.3-4.3v-16.9l3.7-1l0.3,0.2l0,17.4c0,7.2-4.3,10.5-10.5,10.5
			C560.2,394,557.3,391.3,557.3,387.3z"/>
		<path class="st10" d="M580.4,363.7c-0.7,0-1.5,0.2-2.4,0.8l-1.2-1.8c1.2-1.1,2.2-1.5,3.2-1.5c1.4,0,2.8,0.8,4.4,0.8
			c0.5,0,1-0.1,1.5-0.3l0.7,2.1c-0.8,0.4-1.6,0.6-2.3,0.6C582.8,364.5,581.8,363.7,580.4,363.7z M579.5,388v-21.2l3.7-1l0.3,0.2
			l-0.1,21.4l-3.7,0.8L579.5,388z"/>
		<path class="st10" d="M593.8,387.2c0-1.2,0.3-2.5,0.5-3.6l3.3-1.1l0.4,0.2c-0.3,1.3-0.4,2-0.4,2.8c0,2.8,1.5,4.6,6.5,4.6
			c3.8,0,7.6-0.7,8.6-1.9c0-0.7-0.8-1.6-5.2-2.5l1.1-3.4c6.1,1.4,7.6,3,7.6,5c-0.2,4.3-5.7,6.8-12.8,6.8
			C596.9,394,593.8,391,593.8,387.2z"/>
		<path class="st10" d="M625.8,384.9c0,1.5-0.5,2.7-2.1,2.7c-2.6,0-4.4-1.2-5.3-3.5c-1.6,0.8-3.8,1.2-7.2,1.3l-2.6-3.3
			c3.4-0.1,7.1-0.6,8.5-1.2c0.2-0.6,0.3-1.6,0.3-2.4v-12l3.7-1l0.3,0.2v13c0,3.1,0.5,5,3.2,5C625.6,383.7,625.8,384.2,625.8,384.9z"
			/>
		<path class="st10" d="M639.1,383.2l-1.2,3.6c-2.5,0.5-6.4,0.8-14.2,0.8l0.9-4h2.3c-0.5-1-0.8-2-0.8-3.1c0-4,3-6.2,6.7-6.2
			c1.5,0,3.2,0.4,4.6,1l-0.4,3.4l-0.1,0.1c-1-0.3-2.3-0.6-3.3-0.6c-1.9,0-3,0.9-3,2.7c0,0.8,0.4,1.8,1.1,2.7c2.6-0.1,5-0.3,7.2-0.5
			L639.1,383.2z"/>
		<path class="st10" d="M652.8,384.8c0,4.4-3.4,8.8-10.6,8.9l-1.9-3l0.2-0.4c4.4-0.1,7.4-1.3,8.5-3.4c-0.8,0.1-1.6,0.2-2.6,0.2
			c-3,0-4.4-1.5-4.4-3.8c0-3,2.3-6.6,5.3-6.6C650.8,376.7,652.8,380.4,652.8,384.8z M647.3,383.6c0.8,0,1.5-0.1,2.2-0.2
			c-0.3-1.6-1.2-3-2.4-3c-1.1,0-2,1.2-2,2.2C645.2,383.3,645.8,383.6,647.3,383.6z"/>
		<path class="st10" d="M681.8,385.3c0,1.8-0.8,2.7-2.2,2.7c-1.4,0-2.4-0.3-3.3-1.2c-0.7,1-1.5,1.6-2.7,1.6c-1.9,0-4.1-1.2-6.5-3.8
			l-0.5,0.8c-0.2,2.2,0.8,8.3,1.5,12.5l-3.4,1.6l-0.3-0.2c-0.8-4.1-1.5-9.2-1.5-11.2c0-3,0.7-5.1,2.2-6.9c2-2.4,4.9-4.6,7.1-4.6
			c2.3,0,3.3,1.9,4.8,4.8c1.1,2,1.4,2.6,3.5,2.6C681.3,384,681.8,384.5,681.8,385.3z M674.5,384c0-0.1,0-0.1-0.1-0.2
			c-1.1-2.4-1.9-3.4-2.6-3.4c-0.7,0-1.7,0.7-2.7,1.7c1.5,1.6,2.9,2.5,4,2.5C673.8,384.7,674.2,384.4,674.5,384z"/>
		<path class="st10" d="M693.3,385.3c0,1.5-0.5,2.7-2.1,2.7c-2.4,0-4.6-0.5-5.8-1.5c-1.2,1-2.6,1.5-4.7,1.5h-1.1l0.9-4h0.7
			c0.8,0,1.8-0.1,2.2-0.4c0.3-0.8,0.7-2.4,1.1-4.5l4.1-1l0.3,0.2c-0.4,1.9-0.9,3.6-1.5,5c0.9,0.4,2.4,0.6,4.5,0.6
			C693,384,693.3,384.6,693.3,385.3z M687.1,390.3l3.3,2.2l-2,3.1l-3.1-2.2l-1.5,2.2l-3.3-2.3l2-3l3.2,2.2L687.1,390.3z"/>
		<path class="st10" d="M707.5,384.2c0,2.7-1.9,4-5,4c-1.9,0-3.5-0.4-4.9-1c-1.2,0.5-2.7,0.9-4.5,0.9h-1.9l0.6-4h2.3
			c-0.5-0.8-0.7-1.8-0.7-2.7c0-1.5,0.7-3.2,1.9-4.2c-0.5-0.3-1-0.4-1.4-0.6l1.2-3.4l0.3-0.1C700.2,375.7,707.5,380.2,707.5,384.2z
			 M698.9,381.1c0-1.3-0.6-2.3-1.3-2.3c-0.7,0-1.3,0.9-1.3,2.2c0,1.1,0.4,2,1.5,2.7C698.4,383.1,698.9,382.3,698.9,381.1z
			 M704.6,384.4c-0.3-0.9-1.4-2-2.8-3.1c-0.1,1.1-0.4,2.3-1.1,3.3c0.5,0.1,1.2,0.1,1.8,0.1C703.4,384.7,704.3,384.5,704.6,384.4z"/>
		<path class="st10" d="M710.7,388v-21.2l3.7-1l0.3,0.2l-0.1,21.4l-3.7,0.8L710.7,388z"/>
		<path class="st10" d="M730.4,385.3c0,1.5-0.5,2.7-2.1,2.7c-1.1,0-1.9-0.2-2.6-0.5c-1.2,3.2-4.9,5.5-9.6,6.3l-2.1-2.9l0.2-0.3
			c5-0.9,8-3,9-5c-0.7-1.6-1.5-3.4-2.4-5.1l2.8-3.3h0.4l1.4,3.9c0.9,2.5,1.6,2.8,3.7,2.8C730,384,730.4,384.6,730.4,385.3z"/>
		<path class="st10" d="M729.1,384h0.3c1.2,0,2.6-0.1,3.1-0.3c0.2-1.2-0.8-3.4-1.8-5.5l3.2-2.6h0.3c1.1,2.3,1.8,5.1,1.8,6.6
			c0,1.7-0.6,3.1-1.7,4.3c-1.1,1-2.5,1.4-5.7,1.4h-0.4L729.1,384z M730.1,393.5l2.1-3.1l3.4,2.3l-2.1,3.2L730.1,393.5z"/>
		<path class="st10" d="M744.9,396.5c-1.6,0.2-3.7,0.4-6.2,0.4l-0.2-2.3c0.4,0,1,0,1.4,0c-0.4-0.6-0.7-1.3-0.7-2
			c0-1.6,1-2.8,2.8-2.8c0.7,0,1.5,0.2,2.4,0.5l-0.5,2.1c-0.6-0.2-1-0.3-1.4-0.3c-0.7,0-1.1,0.4-1.1,1c0,0.5,0.2,0.9,0.6,1.3
			c0.9-0.1,1.9-0.1,2.7-0.2L744.9,396.5z M739.9,388.2l-0.3-0.2v-21.2l3.7-1l0.3,0.2l-0.1,21.4L739.9,388.2z"/>
		<path class="st10" d="M754,387.2c0-1.2,0.3-2.5,0.5-3.6l3.3-1.1l0.4,0.2c-0.3,1.3-0.4,2-0.4,2.8c0,2.8,1.5,4.6,6.5,4.6
			c3.8,0,7.6-0.7,8.6-1.9c0-0.7-0.8-1.6-5.2-2.5l1.1-3.4c6.1,1.4,7.6,3,7.6,5c-0.2,4.3-5.7,6.8-12.8,6.8
			C757.1,394,754,391,754,387.2z"/>
		<path class="st10" d="M786,384.9c0,1.5-0.5,2.7-2.1,2.7c-2.6,0-4.4-1.2-5.3-3.5c-1.6,0.8-3.8,1.2-7.2,1.3l-2.6-3.3
			c3.4-0.1,7.1-0.6,8.5-1.2c0.2-0.6,0.3-1.6,0.3-2.4v-12l3.7-1l0.3,0.2v13c0,3.1,0.5,5,3.2,5C785.8,383.7,786,384.2,786,384.9z"/>
		<path class="st10" d="M799.3,383.2l-1.2,3.6c-2.5,0.5-6.4,0.8-14.2,0.8l0.9-4h2.3c-0.5-1-0.8-2-0.8-3.1c0-4,3-6.2,6.7-6.2
			c1.5,0,3.2,0.4,4.6,1l-0.4,3.4l-0.1,0.1c-1-0.3-2.3-0.6-3.3-0.6c-1.9,0-3,0.9-3,2.7c0,0.8,0.4,1.8,1.1,2.7c2.6-0.1,5-0.3,7.2-0.5
			L799.3,383.2z"/>
		<path class="st10" d="M838.2,385.3c0,1.5-0.5,2.7-2.1,2.7c-1.6,0-3.6-0.5-4.9-1.5c-0.3,0.3-0.5,0.4-0.8,0.6
			c-1.2,0.8-5.4,1.2-8.5,1.2h-2c-7.1,0-10.9-2.1-10.9-6c0-1.4,0.2-2.6,0.6-3.9l2.8-1.1l0.3,0.2c-0.2,1-0.3,1.8-0.3,2.7
			c0,3.3,2.6,4.2,8.8,4.2h1.8c2.3,0,5-0.2,6-0.5c0.4-1.2,0.9-2.9,1.2-4.8l4.1-1l0.3,0.2c-0.4,1.8-1,3.5-1.6,5
			c0.9,0.4,2.2,0.6,3.7,0.6C837.9,384,838.2,384.6,838.2,385.3z M820.6,375.4l-3.3-2.3l2-3l3.1,2.1l1.4-2.1l3.3,2.2l-2,3.1l-3.1-2.2
			L820.6,375.4z"/>
		<path class="st10" d="M849.7,385.3c0,1.5-0.5,2.7-2.1,2.7c-2.4,0-4.6-0.5-5.8-1.5c-1.2,1-2.6,1.5-4.7,1.5h-1.1l0.9-4h0.7
			c0.8,0,1.8-0.1,2.2-0.4c0.3-0.8,0.7-2.4,1.1-4.5l4.1-1l0.3,0.2c-0.4,1.9-0.9,3.6-1.5,5c0.9,0.4,2.4,0.6,4.5,0.6
			C849.5,384,849.7,384.6,849.7,385.3z M843.5,390.3l3.3,2.2l-2,3.1l-3.1-2.2l-1.5,2.2l-3.3-2.3l2-3l3.2,2.2L843.5,390.3z"/>
		<path class="st10" d="M859.7,385.3c0,1.5-0.5,2.7-2.1,2.7c-1.2,0-2.9-0.3-4-1.8c-1.1,1.4-2.8,1.8-5.9,1.8l0.9-4
			c0.9,0,1.9-0.1,2.6-0.4c0.1-0.5,0.2-1.2,0.2-2.4v-14.4l3.7-1l0.3,0.2v15.2c0,2.5,0.7,2.8,3.2,2.8
			C859.4,384,859.7,384.6,859.7,385.3z"/>
		<path class="st10" d="M883.3,381.7c0,2-1.1,3.7-2.2,4.6c-1.9,1.5-4.1,1.7-8.6,1.7h-3.4c-3.4,0-5.2-0.1-7.3-1c-1.1,0.7-2.4,1-4.3,1
			l0.9-4c0.7,0,1.6-0.1,2.1-0.3c0.3-0.7,0.5-1.8,0.8-3.3l4.3-0.6l0.1,0.1c-0.5,1.5-0.9,2.7-1.4,3.7c0.7,0.2,1.6,0.3,2.6,0.3
			c5.4-5.2,8.7-7.9,11.6-7.9C881.6,376,883.3,379.1,883.3,381.7z M880.1,382.3c0-1.1-0.8-2.5-2.1-2.5c-1.5,0-4,1.5-7.1,4.2h3.1
			c3.8,0,5-0.1,5.8-0.4C880,383.3,880.1,382.9,880.1,382.3z"/>
		<path class="st10" d="M893.9,381.5v-14.7l3.7-1l0.3,0.2v15.2c0,2.2,0.9,2.8,3.2,2.8c0.9,0,1.3,0.5,1.3,1.3c0,1.6-0.6,2.7-2.1,2.7
			C896,388,893.9,386.1,893.9,381.5z"/>
		<path class="st10" d="M919.4,385.3c0,1.6-0.7,2.7-2.2,2.7c-1.4,0-2.4-0.3-3.3-1.1c-0.6,1-1.5,1.5-2.7,1.5c-1.4,0-3.5-0.7-5.7-2.2
			c-1.3,1.6-2.9,1.8-5.3,1.8l0.9-4c1.4,0,1.8-0.2,2.6-1.5c1.8-3,3.3-5.8,6-5.8c2.4,0,3.6,2.1,4.9,4.8c1.1,2.1,1.6,2.6,3.5,2.6
			C919.1,384,919.4,384.6,919.4,385.3z M912.1,384.1l-0.1-0.2c-1-2.3-1.8-3.4-2.5-3.4c-0.7,0-1.5,1.2-2.3,2.8
			c1.2,0.8,2.5,1.4,3.5,1.4C911.4,384.7,911.8,384.4,912.1,384.1z"/>
		<path class="st10" d="M930.1,371.9l-6.8,3.4c5.2,3.5,6.1,5.4,6.1,7.2c0,3.2-2.4,5.5-9,5.5h-3.2l0.9-4h2.1c2.5,0,5.1-0.4,5.9-0.8
			c0-1.5-3.7-4-6.8-5.9l-0.2-0.2l0.9-4.5l11.1-5.7l0.3,0.2L930.1,371.9z"/>
		<path class="st10" d="M541.4,435.1c0-2.4,1.3-4.7,3.2-7l2,1.2c-0.9,1.2-1.7,2.5-1.7,3.4c0,1.3,1.6,1.1,1.6,3
			c0,1.2-0.9,2.5-2.5,2.5C542.4,438.2,541.4,437,541.4,435.1z"/>
		<path class="st10" d="M565.3,435.3c0,1.5-0.5,2.7-2.2,2.7c-2,0-3.4-0.4-4.3-1.5c-1.5,1.1-3.9,1.8-6.6,1.8c-0.8,0-2.6-0.1-3.7-0.4
			l0.6-3.9l0.2-0.1c1.1,0.2,2.5,0.3,3.3,0.3c1.5,0,3.4-0.2,4.6-0.7c-0.7-1.3-2.4-4.7-3.7-7.2l2.9-3.3h0.4c0.8,2,2.9,6.9,3.4,8
			c1.1,2.7,1.8,3,3.9,3C565,434,565.3,434.6,565.3,435.3z"/>
		<path class="st10" d="M582.4,435.3c0,1.6-0.7,2.7-2.2,2.7c-1.4,0-2.4-0.3-3.3-1.1c-0.6,1-1.5,1.5-2.7,1.5c-1.4,0-3.5-0.7-5.7-2.2
			c-1.3,1.6-2.9,1.8-5.3,1.8l0.9-4c1.4,0,1.8-0.2,2.6-1.5c1.8-3,3.3-5.8,6-5.8c2.4,0,3.6,2.1,4.9,4.8c1.1,2.1,1.6,2.6,3.5,2.6
			C582,434,582.4,434.6,582.4,435.3z M575.1,434.1l-0.1-0.2c-1-2.3-1.8-3.4-2.5-3.4c-0.7,0-1.5,1.2-2.3,2.8c1.2,0.8,2.5,1.4,3.5,1.4
			C574.3,434.7,574.7,434.4,575.1,434.1z"/>
		<path class="st10" d="M602.6,435.3c0,1.5-0.5,2.7-2.1,2.7c-5.2,0-7-1.3-8.3-3.5l-1.2,0.6c-4.4,2.2-7.3,2.9-10.8,2.9l0.9-4
			c3.2,0,5.1-0.4,8.8-1.7c1-0.4,1.8-0.6,2.5-0.9c-0.3-0.1-0.7-0.3-1.1-0.5c-2.6-1.2-4-1.6-5.3-1.6c-1.4,0-2.6,0.3-3.7,0.6l-0.2-0.1
			l1.4-3.6c0.7-0.4,1.9-0.7,2.9-0.7c1.1,0,2.4,0.4,4.9,1.5c3.4,1.5,5.4,2,7.6,2.1l-0.7,3.6c-0.9,0-1.7,0.1-2.7,0.4
			c1,0.6,2.6,0.8,5.8,0.8C602.3,434,602.6,434.6,602.6,435.3z"/>
		<path class="st10" d="M615.5,433.8c0,2.7-1.3,4.6-3.7,4.6c-1.6,0-3.9-0.5-6.3-2.2c-1.3,1.5-2.9,1.8-5.1,1.8l0.9-4
			c1.2,0,1.7-0.4,2.7-2.3c1.1-2,2.9-5.1,5.7-5.1C612.7,426.7,615.5,430.1,615.5,433.8z M612.1,434.2c-0.1-1.3-1.2-3.7-2.4-3.7
			c-0.8,0-1.5,1.2-2.3,2.7c1.3,0.8,2.6,1.3,3.5,1.3C611.2,434.5,611.7,434.4,612.1,434.2z"/>
		<path class="st10" d="M625.4,437.3c0-1.1,0.3-3,0.6-3.9l2.9-1.1l0.4,0.1c-0.2,0.8-0.2,2-0.2,3c0,2.9,1.5,4.5,5,4.5
			c2.4,0,4.3-0.6,5.3-2c0.2-1.2,0.3-2.4,0.3-4.3v-16.9l3.7-1l0.3,0.2l0,17.4c0,7.2-4.3,10.5-10.5,10.5
			C628.3,444,625.4,441.3,625.4,437.3z"/>
		<path class="st10" d="M648.5,413.7c-0.7,0-1.5,0.2-2.4,0.8l-1.2-1.8c1.2-1.1,2.2-1.5,3.2-1.5c1.4,0,2.8,0.8,4.4,0.8
			c0.5,0,1-0.1,1.5-0.3l0.7,2.1c-0.8,0.4-1.6,0.6-2.3,0.6C651,414.5,649.9,413.7,648.5,413.7z M647.6,438v-21.2l3.7-1l0.3,0.2
			l-0.1,21.4l-3.7,0.8L647.6,438z"/>
		<path class="st10" d="M662,437.2c0-1.2,0.3-2.5,0.5-3.6l3.3-1.1l0.4,0.2c-0.3,1.3-0.4,2-0.4,2.8c0,2.8,1.5,4.6,6.5,4.6
			c3.8,0,7.6-0.7,8.6-1.9c0-0.7-0.8-1.6-5.2-2.5l1.1-3.4c6.1,1.4,7.6,3,7.6,5c-0.2,4.3-5.7,6.8-12.8,6.8
			C665.1,444,662,441,662,437.2z"/>
		<path class="st10" d="M694,434.9c0,1.5-0.5,2.7-2.1,2.7c-2.6,0-4.4-1.2-5.3-3.5c-1.6,0.8-3.8,1.2-7.2,1.3l-2.6-3.3
			c3.4-0.1,7.1-0.6,8.5-1.2c0.2-0.6,0.3-1.6,0.3-2.4v-12l3.7-1l0.3,0.2v13c0,3.1,0.5,5,3.2,5C693.8,433.7,694,434.2,694,434.9z"/>
		<path class="st10" d="M707.3,433.2l-1.2,3.6c-2.5,0.5-6.4,0.8-14.2,0.8l0.9-4h2.3c-0.5-1-0.8-2-0.8-3.1c0-4,3-6.2,6.7-6.2
			c1.5,0,3.2,0.4,4.6,1l-0.4,3.4l-0.1,0.1c-1-0.3-2.3-0.6-3.3-0.6c-1.9,0-3,0.9-3,2.7c0,0.8,0.4,1.8,1.1,2.7c2.6-0.1,5-0.3,7.2-0.5
			L707.3,433.2z"/>
		<path class="st10" d="M721,434.8c0,4.4-3.4,8.8-10.6,8.9l-1.9-3l0.2-0.4c4.4-0.1,7.4-1.3,8.5-3.4c-0.8,0.1-1.6,0.2-2.6,0.2
			c-3,0-4.4-1.5-4.4-3.8c0-3,2.3-6.6,5.3-6.6C718.9,426.7,721,430.4,721,434.8z M715.5,433.6c0.8,0,1.5-0.1,2.2-0.2
			c-0.3-1.6-1.2-3-2.4-3c-1.1,0-2,1.2-2,2.2C713.4,433.3,714,433.6,715.5,433.6z"/>
		<path class="st10" d="M747.5,435.3c0,1.5-0.5,2.7-2.2,2.7c-2,0-3.4-0.4-4.3-1.5c-1.5,1.1-3.9,1.8-6.6,1.8c-0.8,0-2.6-0.1-3.7-0.4
			l0.6-3.9l0.2-0.1c1.1,0.2,2.5,0.3,3.3,0.3c1.5,0,3.4-0.2,4.6-0.7c-0.7-1.3-2.4-4.7-3.7-7.2l2.9-3.3h0.4c0.8,2,2.9,6.9,3.4,8
			c1.1,2.7,1.8,3,3.9,3C747.2,434,747.5,434.6,747.5,435.3z"/>
		<path class="st10" d="M764.6,435.3c0,1.6-0.7,2.7-2.2,2.7c-1.4,0-2.4-0.3-3.3-1.1c-0.6,1-1.5,1.5-2.7,1.5c-1.4,0-3.5-0.7-5.7-2.2
			c-1.3,1.6-2.9,1.8-5.3,1.8l0.9-4c1.4,0,1.8-0.2,2.6-1.5c1.8-3,3.3-5.8,6-5.8c2.4,0,3.6,2.1,4.9,4.8c1.1,2.1,1.6,2.6,3.5,2.6
			C764.2,434,764.6,434.6,764.6,435.3z M757.2,434.1l-0.1-0.2c-1-2.3-1.8-3.4-2.5-3.4c-0.7,0-1.5,1.2-2.3,2.8
			c1.2,0.8,2.5,1.4,3.5,1.4C756.5,434.7,756.9,434.4,757.2,434.1z"/>
		<path class="st10" d="M784.8,435.3c0,1.5-0.5,2.7-2.1,2.7c-5.2,0-7-1.3-8.3-3.5l-1.2,0.6c-4.4,2.2-7.3,2.9-10.8,2.9l0.9-4
			c3.2,0,5.1-0.4,8.8-1.7c1-0.4,1.8-0.6,2.5-0.9c-0.3-0.1-0.7-0.3-1.1-0.5c-2.6-1.2-4-1.6-5.3-1.6c-1.4,0-2.6,0.3-3.7,0.6l-0.2-0.1
			l1.4-3.6c0.7-0.4,1.9-0.7,2.9-0.7c1.1,0,2.4,0.4,4.9,1.5c3.4,1.5,5.4,2,7.6,2.1l-0.7,3.6c-0.9,0-1.7,0.1-2.7,0.4
			c1,0.6,2.6,0.8,5.8,0.8C784.5,434,784.8,434.6,784.8,435.3z"/>
		<path class="st10" d="M797.7,433.8c0,2.7-1.3,4.6-3.7,4.6c-1.6,0-3.9-0.5-6.3-2.2c-1.3,1.5-2.9,1.8-5.1,1.8l0.9-4
			c1.2,0,1.7-0.4,2.7-2.3c1.1-2,2.9-5.1,5.7-5.1C794.9,426.7,797.7,430.1,797.7,433.8z M794.3,434.2c-0.1-1.3-1.2-3.7-2.4-3.7
			c-0.8,0-1.5,1.2-2.3,2.7c1.3,0.8,2.6,1.3,3.5,1.3C793.4,434.5,793.8,434.4,794.3,434.2z"/>
		<path class="st10" d="M807.6,437.2c0-1.2,0.3-2.5,0.5-3.6l3.3-1.1l0.4,0.2c-0.3,1.3-0.4,2-0.4,2.8c0,2.8,1.5,4.6,6.5,4.6
			c3.8,0,7.6-0.7,8.6-1.9c0-0.7-0.8-1.6-5.2-2.5l1.1-3.4c6.1,1.4,7.6,3,7.6,5c-0.2,4.3-5.7,6.8-12.8,6.8
			C810.7,444,807.6,441,807.6,437.2z"/>
		<path class="st10" d="M839.6,434.9c0,1.5-0.5,2.7-2.1,2.7c-2.6,0-4.4-1.2-5.3-3.5c-1.6,0.8-3.8,1.2-7.2,1.3l-2.6-3.3
			c3.4-0.1,7.1-0.6,8.5-1.2c0.2-0.6,0.3-1.6,0.3-2.4v-12l3.7-1l0.3,0.2v13c0,3.1,0.5,5,3.2,5C839.4,433.7,839.6,434.2,839.6,434.9z"
			/>
		<path class="st10" d="M852.9,433.2l-1.2,3.6c-2.5,0.5-6.4,0.8-14.2,0.8l0.9-4h2.3c-0.5-1-0.8-2-0.8-3.1c0-4,3-6.2,6.7-6.2
			c1.5,0,3.2,0.4,4.6,1l-0.4,3.4l-0.1,0.1c-1-0.3-2.3-0.6-3.3-0.6c-1.9,0-3,0.9-3,2.7c0,0.8,0.4,1.8,1.1,2.7c2.6-0.1,5-0.3,7.2-0.5
			L852.9,433.2z"/>
		<path class="st10" d="M886.1,416v15c0,5.2-2.5,7.4-10.6,7.4h-2c-7.1,0-10.9-2.1-10.9-6c0-1.4,0.2-2.6,0.6-3.9l2.8-1.1l0.3,0.2
			c-0.2,1-0.3,1.8-0.3,2.7c0,3.3,2.6,4.2,8.8,4.2h1.8c2.2,0,4.5-0.4,5.2-0.7c0.1-0.5,0.2-1.4,0.2-2.5v-14.3l3.7-1L886.1,416z
			 M871.5,426.8c0.5,0,1,0,1.5,0c-0.4-0.6-0.7-1.3-0.7-2c0-1.6,1.1-2.8,2.8-2.8c0.7,0,1.5,0.2,2.4,0.5l-0.5,2
			c-0.5-0.2-1-0.3-1.4-0.3c-0.7,0-1.2,0.3-1.2,1c0,0.5,0.3,1,0.7,1.4c1-0.1,1.9-0.1,2.8-0.2l0.2,2.1c-1.6,0.2-3.7,0.4-6.3,0.4
			L871.5,426.8z"/>
		<path class="st10" d="M885.6,440.9l0.2-0.3c5.2-0.9,8.9-3.4,8.9-4.5c-0.1-1.1-1.2-3.6-2.3-5.5l2.9-3.2h0.4
			c1.4,2.6,2.1,5.7,2.1,7.7c0,1.2-0.3,2.5-0.9,3.7c-1.3,2.5-5,4.5-9.2,5.2L885.6,440.9z"/>
		<path class="st10" d="M901.5,431.5v-14.7l3.7-1l0.3,0.2v15.2c0,2.2,0.9,2.8,3.2,2.8c0.9,0,1.3,0.5,1.3,1.3c0,1.6-0.6,2.7-2.1,2.7
			C903.6,438,901.5,436.1,901.5,431.5z"/>
		<path class="st10" d="M908.7,434h0.3c1.2,0,2.6-0.1,3.1-0.3c0.2-1.2-0.8-3.4-1.8-5.5l3.2-2.6h0.3c1.1,2.3,1.8,5.1,1.8,6.6
			c0,1.7-0.6,3.1-1.7,4.3c-1.1,1-2.5,1.4-5.7,1.4h-0.4L908.7,434z M909.7,443.5l2.1-3.1l3.4,2.3l-2.1,3.2L909.7,443.5z"/>
		<path class="st10" d="M929.6,434.8c0,4.4-3.4,8.8-10.6,8.9l-1.9-3l0.2-0.4c4.4-0.1,7.4-1.3,8.5-3.4c-0.8,0.1-1.6,0.2-2.6,0.2
			c-3,0-4.4-1.5-4.4-3.8c0-3,2.3-6.6,5.3-6.6C927.6,426.7,929.6,430.4,929.6,434.8z M924.1,433.6c0.8,0,1.5-0.1,2.2-0.2
			c-0.3-1.6-1.2-3-2.4-3c-1.1,0-2,1.2-2,2.2C922,433.3,922.6,433.6,924.1,433.6z"/>
		<path class="st10" d="M490.5,485.3c0,1.8-0.8,2.7-2.2,2.7c-1.4,0-2.4-0.3-3.3-1.2c-0.7,1-1.5,1.6-2.7,1.6c-1.9,0-4.1-1.2-6.5-3.8
			l-0.5,0.8c-0.2,2.2,0.8,8.3,1.5,12.5l-3.4,1.6l-0.3-0.2c-0.8-4.1-1.5-9.2-1.5-11.2c0-3,0.7-5.1,2.2-6.9c2-2.4,4.9-4.6,7.1-4.6
			c2.3,0,3.3,1.9,4.8,4.8c1.1,2,1.4,2.6,3.5,2.6C490,484,490.5,484.5,490.5,485.3z M483.2,484c0-0.1,0-0.1-0.1-0.2
			c-1.1-2.4-1.9-3.4-2.6-3.4c-0.7,0-1.7,0.7-2.7,1.7c1.5,1.6,2.9,2.5,4,2.5C482.5,484.7,482.9,484.4,483.2,484z"/>
		<path class="st10" d="M502,485.3c0,1.5-0.5,2.7-2.1,2.7c-2.4,0-4.6-0.5-5.8-1.5c-1.2,1-2.6,1.5-4.7,1.5h-1.1l0.9-4h0.7
			c0.8,0,1.8-0.1,2.2-0.4c0.3-0.8,0.7-2.4,1.1-4.5l4.1-1l0.3,0.2c-0.4,1.9-0.9,3.6-1.5,5c0.9,0.4,2.4,0.6,4.5,0.6
			C501.7,484,502,484.6,502,485.3z M495.8,490.3l3.3,2.2l-2,3.1l-3.1-2.2l-1.5,2.2l-3.3-2.3l2-3l3.2,2.2L495.8,490.3z"/>
		<path class="st10" d="M516.3,484.2c0,2.7-1.9,4-5,4c-1.9,0-3.5-0.4-4.9-1c-1.2,0.5-2.7,0.9-4.5,0.9h-1.9l0.6-4h2.3
			c-0.5-0.8-0.7-1.8-0.7-2.7c0-1.5,0.7-3.2,1.9-4.2c-0.5-0.3-1-0.4-1.4-0.6l1.2-3.4l0.3-0.1C508.9,475.7,516.3,480.2,516.3,484.2z
			 M507.6,481.1c0-1.3-0.6-2.3-1.3-2.3c-0.7,0-1.3,0.9-1.3,2.2c0,1.1,0.4,2,1.5,2.7C507.1,483.1,507.6,482.3,507.6,481.1z
			 M513.3,484.4c-0.3-0.9-1.4-2-2.8-3.1c-0.1,1.1-0.4,2.3-1.1,3.3c0.5,0.1,1.2,0.1,1.8,0.1C512.1,484.7,513.1,484.5,513.3,484.4z"/>
		<path class="st10" d="M519.4,488v-21.2l3.7-1l0.3,0.2l-0.1,21.4l-3.7,0.8L519.4,488z"/>
		<path class="st10" d="M539.1,485.3c0,1.5-0.5,2.7-2.1,2.7c-1.1,0-1.9-0.2-2.6-0.5c-1.2,3.2-4.9,5.5-9.6,6.3l-2.1-2.9l0.2-0.3
			c5-0.9,8-3,9-5c-0.7-1.6-1.5-3.4-2.4-5.1l2.8-3.3h0.4l1.4,3.9c0.9,2.5,1.6,2.8,3.7,2.8C538.8,484,539.1,484.6,539.1,485.3z"/>
		<path class="st10" d="M537.8,484h0.3c1.2,0,2.6-0.1,3.1-0.3c0.2-1.2-0.8-3.4-1.8-5.5l3.2-2.6h0.3c1.1,2.3,1.8,5.1,1.8,6.6
			c0,1.7-0.6,3.1-1.7,4.3c-1.1,1-2.5,1.4-5.7,1.4h-0.4L537.8,484z M538.8,493.5l2.1-3.1l3.4,2.3l-2.1,3.2L538.8,493.5z"/>
		<path class="st10" d="M553.6,496.5c-1.6,0.2-3.7,0.4-6.2,0.4l-0.2-2.3c0.4,0,1,0,1.4,0c-0.4-0.6-0.7-1.3-0.7-2
			c0-1.6,1-2.8,2.8-2.8c0.7,0,1.5,0.2,2.4,0.5l-0.5,2.1c-0.6-0.2-1-0.3-1.4-0.3c-0.7,0-1.1,0.4-1.1,1c0,0.5,0.2,0.9,0.6,1.3
			c0.9-0.1,1.9-0.1,2.7-0.2L553.6,496.5z M548.6,488.2l-0.3-0.2v-21.2l3.7-1l0.3,0.2l-0.1,21.4L548.6,488.2z"/>
		<path class="st10" d="M562.7,487.3c0-1.1,0.3-3,0.6-3.9l2.9-1.1l0.4,0.1c-0.2,0.8-0.2,2-0.2,3c0,2.9,1.5,4.5,5,4.5
			c2.4,0,4.3-0.6,5.3-2c0.2-1.2,0.3-2.4,0.3-4.3v-16.9l3.7-1l0.3,0.2l0,17.4c0,7.2-4.3,10.5-10.5,10.5
			C565.6,494,562.7,491.3,562.7,487.3z"/>
		<path class="st10" d="M585.8,463.7c-0.7,0-1.5,0.2-2.4,0.8l-1.2-1.8c1.2-1.1,2.2-1.5,3.2-1.5c1.4,0,2.8,0.8,4.4,0.8
			c0.5,0,1-0.1,1.5-0.3l0.7,2.1c-0.8,0.4-1.6,0.6-2.3,0.6C588.3,464.5,587.2,463.7,585.8,463.7z M584.9,488v-21.2l3.7-1l0.3,0.2
			l-0.1,21.4l-3.7,0.8L584.9,488z"/>
		<path class="st10" d="M599.3,487.2c0-1.2,0.3-2.5,0.5-3.6l3.3-1.1l0.4,0.2c-0.3,1.3-0.4,2-0.4,2.8c0,2.8,1.5,4.6,6.5,4.6
			c3.8,0,7.6-0.7,8.6-1.9c0-0.7-0.8-1.6-5.2-2.5l1.1-3.4c6.1,1.4,7.6,3,7.6,5c-0.2,4.3-5.7,6.8-12.8,6.8
			C602.3,494,599.3,491,599.3,487.2z"/>
		<path class="st10" d="M631.3,484.9c0,1.5-0.5,2.7-2.1,2.7c-2.6,0-4.4-1.2-5.3-3.5c-1.6,0.8-3.8,1.2-7.2,1.3l-2.6-3.3
			c3.4-0.1,7.1-0.6,8.5-1.2c0.2-0.6,0.3-1.6,0.3-2.4v-12l3.7-1l0.3,0.2v13c0,3.1,0.5,5,3.2,5C631,483.7,631.3,484.2,631.3,484.9z"/>
		<path class="st10" d="M644.5,483.2l-1.2,3.6c-2.5,0.5-6.4,0.8-14.2,0.8l0.9-4h2.3c-0.5-1-0.8-2-0.8-3.1c0-4,3-6.2,6.7-6.2
			c1.5,0,3.2,0.4,4.6,1l-0.4,3.4l-0.1,0.1c-1-0.3-2.3-0.6-3.3-0.6c-1.9,0-3,0.9-3,2.7c0,0.8,0.4,1.8,1.1,2.7c2.6-0.1,5-0.3,7.2-0.5
			L644.5,483.2z"/>
		<path class="st10" d="M658.3,484.8c0,4.4-3.4,8.8-10.6,8.9l-1.9-3l0.2-0.4c4.4-0.1,7.4-1.3,8.5-3.4c-0.8,0.1-1.6,0.2-2.6,0.2
			c-3,0-4.4-1.5-4.4-3.8c0-3,2.3-6.6,5.3-6.6C656.2,476.7,658.3,480.4,658.3,484.8z M652.8,483.6c0.8,0,1.5-0.1,2.2-0.2
			c-0.3-1.6-1.2-3-2.4-3c-1.1,0-2,1.2-2,2.2C650.7,483.3,651.3,483.6,652.8,483.6z"/>
		<path class="st10" d="M687.3,485.3c0,1.8-0.8,2.7-2.2,2.7c-1.4,0-2.4-0.3-3.3-1.2c-0.7,1-1.5,1.6-2.7,1.6c-1.9,0-4.1-1.2-6.5-3.8
			l-0.5,0.8c-0.2,2.2,0.8,8.3,1.5,12.5l-3.4,1.6l-0.3-0.2c-0.8-4.1-1.5-9.2-1.5-11.2c0-3,0.7-5.1,2.2-6.9c2-2.4,4.9-4.6,7.1-4.6
			c2.3,0,3.3,1.9,4.8,4.8c1.1,2,1.4,2.6,3.5,2.6C686.8,484,687.3,484.5,687.3,485.3z M679.9,484c0-0.1,0-0.1-0.1-0.2
			c-1.1-2.4-1.9-3.4-2.6-3.4c-0.7,0-1.7,0.7-2.7,1.7c1.5,1.6,2.9,2.5,4,2.5C679.2,484.7,679.6,484.4,679.9,484z"/>
		<path class="st10" d="M698.7,485.3c0,1.5-0.5,2.7-2.1,2.7c-2.4,0-4.6-0.5-5.8-1.5c-1.2,1-2.6,1.5-4.7,1.5h-1.1l0.9-4h0.7
			c0.8,0,1.8-0.1,2.2-0.4c0.3-0.8,0.7-2.4,1.1-4.5l4.1-1l0.3,0.2c-0.4,1.9-0.9,3.6-1.5,5c0.9,0.4,2.4,0.6,4.5,0.6
			C698.5,484,698.7,484.6,698.7,485.3z M692.5,490.3l3.3,2.2l-2,3.1l-3.1-2.2l-1.5,2.2l-3.3-2.3l2-3l3.2,2.2L692.5,490.3z"/>
		<path class="st10" d="M713,484.2c0,2.7-1.9,4-5,4c-1.9,0-3.5-0.4-4.9-1c-1.2,0.5-2.7,0.9-4.5,0.9h-1.9l0.6-4h2.3
			c-0.5-0.8-0.7-1.8-0.7-2.7c0-1.5,0.7-3.2,1.9-4.2c-0.5-0.3-1-0.4-1.4-0.6l1.2-3.4l0.3-0.1C705.6,475.7,713,480.2,713,484.2z
			 M704.4,481.1c0-1.3-0.6-2.3-1.3-2.3c-0.7,0-1.3,0.9-1.3,2.2c0,1.1,0.4,2,1.5,2.7C703.9,483.1,704.4,482.3,704.4,481.1z
			 M710,484.4c-0.3-0.9-1.4-2-2.8-3.1c-0.1,1.1-0.4,2.3-1.1,3.3c0.5,0.1,1.2,0.1,1.8,0.1C708.8,484.7,709.8,484.5,710,484.4z"/>
		<path class="st10" d="M716.2,488v-21.2l3.7-1l0.3,0.2l-0.1,21.4l-3.7,0.8L716.2,488z"/>
		<path class="st10" d="M735.8,485.3c0,1.5-0.5,2.7-2.1,2.7c-1.1,0-1.9-0.2-2.6-0.5c-1.2,3.2-4.9,5.5-9.6,6.3l-2.1-2.9l0.2-0.3
			c5-0.9,8-3,9-5c-0.7-1.6-1.5-3.4-2.4-5.1l2.8-3.3h0.4l1.4,3.9c0.9,2.5,1.6,2.8,3.7,2.8C735.5,484,735.8,484.6,735.8,485.3z"/>
		<path class="st10" d="M734.5,484h0.3c1.2,0,2.6-0.1,3.1-0.3c0.2-1.2-0.8-3.4-1.8-5.5l3.2-2.6h0.3c1.1,2.3,1.8,5.1,1.8,6.6
			c0,1.7-0.6,3.1-1.7,4.3c-1.1,1-2.5,1.4-5.7,1.4h-0.4L734.5,484z M735.6,493.5l2.1-3.1l3.4,2.3l-2.1,3.2L735.6,493.5z"/>
		<path class="st10" d="M750.3,496.5c-1.6,0.2-3.7,0.4-6.2,0.4l-0.2-2.3c0.4,0,1,0,1.4,0c-0.4-0.6-0.7-1.3-0.7-2
			c0-1.6,1-2.8,2.8-2.8c0.7,0,1.5,0.2,2.4,0.5l-0.5,2.1c-0.6-0.2-1-0.3-1.4-0.3c-0.7,0-1.1,0.4-1.1,1c0,0.5,0.2,0.9,0.6,1.3
			c0.9-0.1,1.9-0.1,2.7-0.2L750.3,496.5z M745.3,488.2l-0.3-0.2v-21.2l3.7-1l0.3,0.2l-0.1,21.4L745.3,488.2z"/>
		<path class="st10" d="M759.4,487.2c0-1.2,0.3-2.5,0.5-3.6l3.3-1.1l0.4,0.2c-0.3,1.3-0.4,2-0.4,2.8c0,2.8,1.5,4.6,6.5,4.6
			c3.8,0,7.6-0.7,8.6-1.9c0-0.7-0.8-1.6-5.2-2.5l1.1-3.4c6.1,1.4,7.6,3,7.6,5c-0.2,4.3-5.7,6.8-12.8,6.8
			C762.5,494,759.4,491,759.4,487.2z"/>
		<path class="st10" d="M791.5,484.9c0,1.5-0.5,2.7-2.1,2.7c-2.6,0-4.4-1.2-5.3-3.5c-1.6,0.8-3.8,1.2-7.2,1.3l-2.6-3.3
			c3.4-0.1,7.1-0.6,8.5-1.2c0.2-0.6,0.3-1.6,0.3-2.4v-12l3.7-1l0.3,0.2v13c0,3.1,0.5,5,3.2,5C791.2,483.7,791.5,484.2,791.5,484.9z"
			/>
		<path class="st10" d="M804.7,483.2l-1.2,3.6c-2.5,0.5-6.4,0.8-14.2,0.8l0.9-4h2.3c-0.5-1-0.8-2-0.8-3.1c0-4,3-6.2,6.7-6.2
			c1.5,0,3.2,0.4,4.6,1l-0.4,3.4l-0.1,0.1c-1-0.3-2.3-0.6-3.3-0.6c-1.9,0-3,0.9-3,2.7c0,0.8,0.4,1.8,1.1,2.7c2.6-0.1,5-0.3,7.2-0.5
			L804.7,483.2z"/>
		<path class="st10" d="M843.7,485.3c0,1.5-0.5,2.7-2.1,2.7c-1.6,0-3.6-0.5-4.9-1.5c-0.3,0.3-0.5,0.4-0.8,0.6
			c-1.2,0.8-5.4,1.2-8.5,1.2h-2c-7.1,0-10.9-2.1-10.9-6c0-1.4,0.2-2.6,0.6-3.9l2.8-1.1l0.3,0.2c-0.2,1-0.3,1.8-0.3,2.7
			c0,3.3,2.6,4.2,8.8,4.2h1.8c2.3,0,5-0.2,6-0.5c0.4-1.2,0.9-2.9,1.2-4.8l4.1-1l0.3,0.2c-0.4,1.8-1,3.5-1.6,5
			c0.9,0.4,2.2,0.6,3.7,0.6C843.4,484,843.7,484.6,843.7,485.3z M826.1,475.4l-3.3-2.3l2-3l3.1,2.1l1.4-2.1l3.3,2.2l-2,3.1l-3.1-2.2
			L826.1,475.4z"/>
		<path class="st10" d="M854.4,471.9l-6.8,3.4c5.2,3.5,6.1,5.4,6.1,7.2c0,3.2-2.4,5.5-9,5.5h-3.2l0.9-4h2.1c2.5,0,5.1-0.4,5.9-0.8
			c0-1.5-3.7-4-6.8-5.9l-0.2-0.2l0.9-4.5l11.1-5.7l0.3,0.2L854.4,471.9z"/>
		<path class="st10" d="M853,490.9l0.2-0.3c5.2-0.9,8.9-3.4,8.9-4.5c-0.1-1.1-1.2-3.6-2.3-5.5l2.9-3.2h0.4c1.4,2.6,2.1,5.7,2.1,7.7
			c0,1.2-0.3,2.5-0.9,3.7c-1.3,2.5-5,4.5-9.2,5.2L853,490.9z"/>
		<path class="st10" d="M869,481.5v-14.7l3.7-1l0.3,0.2v15.2c0,2.2,0.9,2.8,3.2,2.8c0.9,0,1.3,0.5,1.3,1.3c0,1.6-0.6,2.7-2.1,2.7
			C871.1,488,869,486.1,869,481.5z"/>
		<path class="st10" d="M876.2,484h0.3c1.2,0,2.6-0.1,3.1-0.3c0.2-1.2-0.8-3.4-1.8-5.5l3.2-2.6h0.3c1.1,2.3,1.8,5.1,1.8,6.6
			c0,1.7-0.6,3.1-1.7,4.3c-1.1,1-2.5,1.4-5.7,1.4h-0.4L876.2,484z M877.2,493.5l2.1-3.1l3.4,2.3l-2.1,3.2L877.2,493.5z"/>
		<path class="st10" d="M893.9,481.5v-14.7l3.7-1l0.3,0.2v15.2c0,2.2,0.9,2.8,3.2,2.8c0.9,0,1.3,0.5,1.3,1.3c0,1.6-0.6,2.7-2.1,2.7
			C896,488,893.9,486.1,893.9,481.5z"/>
		<path class="st10" d="M919.4,485.3c0,1.6-0.7,2.7-2.2,2.7c-1.4,0-2.4-0.3-3.3-1.1c-0.6,1-1.5,1.5-2.7,1.5c-1.4,0-3.5-0.7-5.7-2.2
			c-1.3,1.6-2.9,1.8-5.3,1.8l0.9-4c1.4,0,1.8-0.2,2.6-1.5c1.8-3,3.3-5.8,6-5.8c2.4,0,3.6,2.1,4.9,4.8c1.1,2.1,1.6,2.6,3.5,2.6
			C919.1,484,919.4,484.6,919.4,485.3z M912.1,484.1l-0.1-0.2c-1-2.3-1.8-3.4-2.5-3.4c-0.7,0-1.5,1.2-2.3,2.8
			c1.2,0.8,2.5,1.4,3.5,1.4C911.4,484.7,911.8,484.4,912.1,484.1z"/>
		<path class="st10" d="M930.1,471.9l-6.8,3.4c5.2,3.5,6.1,5.4,6.1,7.2c0,3.2-2.4,5.5-9,5.5h-3.2l0.9-4h2.1c2.5,0,5.1-0.4,5.9-0.8
			c0-1.5-3.7-4-6.8-5.9l-0.2-0.2l0.9-4.5l11.1-5.7l0.3,0.2L930.1,471.9z"/>
		<path class="st10" d="M584.3,535.9c0-1.3,1.2-2.5,2.6-2.5c1.4,0,2.6,1.2,2.6,2.5c0,1.4-1.2,2.6-2.6,2.6
			C585.4,538.4,584.3,537.3,584.3,535.9z"/>
		<path class="st10" d="M590.8,523.5c0-2.5,1.3-4.6,3-6.6l1.7,1.1c-0.7,1.1-1.5,2.1-1.5,3c0,0.4,0.1,0.7,0.4,0.9
			c0.6,0.5,1.1,1,1.1,1.9c0,1.1-0.8,2.2-2.3,2.2S590.8,524.9,590.8,523.5z M596.7,523.5c0-2.5,1.3-4.6,3-6.6l1.7,1.1
			c-0.7,1.1-1.5,2.1-1.5,3c0,0.4,0.1,0.7,0.4,0.9c0.6,0.5,1,1,1,1.9c0,1.1-0.8,2.2-2.3,2.2S596.7,524.9,596.7,523.5z"/>
		<path class="st10" d="M619.6,535.3c0,1.5-0.5,2.7-2.2,2.7c-2,0-3.4-0.4-4.3-1.5c-1.5,1.1-3.9,1.8-6.6,1.8c-0.8,0-2.6-0.1-3.7-0.4
			l0.6-3.9l0.2-0.1c1.1,0.2,2.5,0.3,3.3,0.3c1.5,0,3.4-0.2,4.6-0.7c-0.7-1.3-2.4-4.7-3.7-7.2l2.9-3.3h0.4c0.8,2,2.9,6.9,3.4,8
			c1.1,2.7,1.8,3,3.9,3C619.3,534,619.6,534.6,619.6,535.3z"/>
		<path class="st10" d="M631.2,535.3c0,1.5-0.5,2.7-2.1,2.7c-2.4,0-4.6-0.5-5.8-1.5c-1.2,1-2.6,1.5-4.7,1.5h-1.1l0.9-4h0.7
			c0.8,0,1.8-0.1,2.2-0.4c0.3-0.8,0.7-2.4,1.1-4.5l4.1-1l0.3,0.2c-0.4,1.9-0.9,3.6-1.5,5c0.9,0.4,2.4,0.6,4.5,0.6
			C630.9,534,631.2,534.6,631.2,535.3z M625,540.3l3.3,2.2l-2,3.1l-3.1-2.2l-1.5,2.2l-3.3-2.3l2-3l3.2,2.2L625,540.3z"/>
		<path class="st10" d="M651.4,535.3c0,1.5-0.5,2.7-2.1,2.7c-5.2,0-7-1.3-8.3-3.5l-1.2,0.6c-4.4,2.2-7.3,2.9-10.8,2.9l0.9-4
			c3.2,0,5.1-0.4,8.8-1.7c1-0.4,1.8-0.6,2.5-0.9c-0.3-0.1-0.7-0.3-1.1-0.5c-2.6-1.2-4-1.6-5.3-1.6c-1.4,0-2.6,0.3-3.7,0.6l-0.2-0.1
			l1.4-3.6c0.7-0.4,1.9-0.7,2.9-0.7c1.1,0,2.4,0.4,4.9,1.5c3.4,1.5,5.4,2,7.6,2.1l-0.7,3.6c-0.9,0-1.7,0.1-2.7,0.4
			c1,0.6,2.6,0.8,5.8,0.8C651.1,534,651.4,534.6,651.4,535.3z M636.7,540.3l3.4,2.3l-2.1,3.2l-3.4-2.4L636.7,540.3z"/>
		<path class="st10" d="M664.3,533.8c0,2.7-1.3,4.6-3.7,4.6c-1.6,0-3.9-0.5-6.3-2.2c-1.3,1.5-2.9,1.8-5.1,1.8l0.9-4
			c1.2,0,1.7-0.4,2.7-2.3c1.1-2,2.9-5.1,5.7-5.1C661.5,526.7,664.3,530.1,664.3,533.8z M660.9,534.2c-0.1-1.3-1.2-3.7-2.4-3.7
			c-0.8,0-1.5,1.2-2.3,2.7c1.3,0.8,2.6,1.3,3.5,1.3C660,534.5,660.5,534.4,660.9,534.2z"/>
		<path class="st10" d="M690.7,535.3c0,1.5-0.5,2.7-2.2,2.7c-2,0-3.4-0.4-4.3-1.5c-1.5,1.1-3.9,1.8-6.6,1.8c-0.8,0-2.6-0.1-3.7-0.4
			l0.6-3.9l0.2-0.1c1.1,0.2,2.5,0.3,3.3,0.3c1.5,0,3.4-0.2,4.6-0.7c-0.7-1.3-2.4-4.7-3.7-7.2l2.9-3.3h0.4c0.8,2,2.9,6.9,3.4,8
			c1.1,2.7,1.8,3,3.9,3C690.4,534,690.7,534.6,690.7,535.3z"/>
		<path class="st10" d="M702.2,535.3c0,1.5-0.5,2.7-2.1,2.7c-2.4,0-4.6-0.5-5.8-1.5c-1.2,1-2.6,1.5-4.7,1.5h-1.1l0.9-4h0.7
			c0.8,0,1.8-0.1,2.2-0.4c0.3-0.8,0.7-2.4,1.1-4.5l4.1-1l0.3,0.2c-0.4,1.9-0.9,3.6-1.5,5c0.9,0.4,2.4,0.6,4.5,0.6
			C701.9,534,702.2,534.6,702.2,535.3z M696,540.3l3.3,2.2l-2,3.1l-3.1-2.2l-1.5,2.2l-3.3-2.3l2-3l3.2,2.2L696,540.3z"/>
		<path class="st10" d="M719.3,535.3c0,1.6-0.7,2.7-2.2,2.7c-1.4,0-2.4-0.3-3.3-1.1c-0.6,1-1.5,1.5-2.7,1.5c-1.4,0-3.5-0.7-5.7-2.2
			c-1.3,1.6-2.9,1.8-5.3,1.8l0.9-4c1.4,0,1.8-0.2,2.6-1.5c1.8-3,3.3-5.8,6-5.8c2.4,0,3.6,2.1,4.9,4.8c1.1,2.1,1.6,2.6,3.5,2.6
			C718.9,534,719.3,534.6,719.3,535.3z M711.9,534.1l-0.1-0.2c-1-2.3-1.8-3.4-2.5-3.4c-0.7,0-1.5,1.2-2.3,2.8
			c1.2,0.8,2.5,1.4,3.5,1.4C711.2,534.7,711.6,534.4,711.9,534.1z"/>
		<path class="st10" d="M735.7,530.1l-1,3.8c-2.2,0.3-5.2,1-8.5,2.1c-4.4,1.5-6.7,2-9.1,2l0.9-4c2.5,0,4.3-0.2,8.4-1.2
			c1.3-0.4,2.4-0.6,3.3-0.9c-0.4-0.2-1-0.4-1.5-0.7c-2.5-1.3-3.9-1.8-5.3-1.8c-1.4,0-2.6,0.3-3.7,0.6l-0.2-0.2l1.4-3.5
			c0.7-0.4,1.9-0.7,2.9-0.7c1.4,0,2.7,0.5,6,2.1C732.7,529.5,734.2,530,735.7,530.1z"/>
		<path class="st10" d="M772.9,535.3c0,1.5-0.5,2.7-2.1,2.7c-1.7,0-3.2-0.5-4.2-1.8c-1.5,1.5-4.1,2.1-8.7,2.1h-2
			c-7.1,0-10.9-2.1-10.9-6c0-1.4,0.2-2.6,0.6-3.9l2.8-1.1l0.3,0.2c-0.2,1-0.3,1.8-0.3,2.7c0,3.3,2.6,4.2,8.8,4.2h1.8
			c2.5,0,4.6-0.4,5.2-0.8c0.1-0.5,0.2-1.2,0.2-2.4v-14.4l3.7-1l0.3,0.2v14.3c0,2.8,0.5,3.6,3.1,3.6
			C772.6,534,772.9,534.6,772.9,535.3z M753.8,526.8c0.5,0,1,0,1.5,0c-0.4-0.6-0.7-1.3-0.7-2c0-1.6,1.1-2.8,2.8-2.8
			c0.7,0,1.5,0.2,2.4,0.5l-0.5,2c-0.5-0.2-1-0.3-1.4-0.3c-0.7,0-1.2,0.3-1.2,1c0,0.5,0.3,1,0.7,1.4c1-0.1,1.9-0.1,2.8-0.2l0.2,2.1
			c-1.6,0.2-3.7,0.4-6.3,0.4L753.8,526.8z"/>
		<path class="st10" d="M771.6,534h0.3c1.2,0,2.6-0.1,3.1-0.3c0.2-1.2-0.8-3.4-1.8-5.5l3.2-2.6h0.3c1.1,2.3,1.8,5.1,1.8,6.6
			c0,1.7-0.6,3.1-1.7,4.3c-1.1,1-2.5,1.4-5.7,1.4h-0.4L771.6,534z M772.2,520.8l2.1-3.1l3.4,2.4l-2.1,3.2L772.2,520.8z"/>
		<path class="st10" d="M787.4,546.5c-1.6,0.2-3.7,0.4-6.2,0.4l-0.2-2.3c0.4,0,1,0,1.4,0c-0.4-0.6-0.7-1.3-0.7-2
			c0-1.6,1-2.8,2.8-2.8c0.7,0,1.5,0.2,2.4,0.5l-0.5,2.1c-0.6-0.2-1-0.3-1.4-0.3c-0.7,0-1.1,0.4-1.1,1c0,0.5,0.2,0.9,0.6,1.3
			c0.9-0.1,1.9-0.1,2.7-0.2L787.4,546.5z M782.4,538.2l-0.3-0.2v-21.2l3.7-1l0.3,0.2l-0.1,21.4L782.4,538.2z"/>
		<path class="st10" d="M818.3,535.3c0,1.5-0.5,2.7-2.1,2.7c-0.8,0-1.5-0.2-2.1-0.6c-1.2,4.5-4.9,6.5-9.8,6.5c-5,0-7.8-2.7-7.8-6.7
			c0-1.5,0.4-3,0.6-3.9l2.9-1.1l0.4,0.1c-0.2,1.2-0.2,2.1-0.2,3c0,2.6,1.2,4.5,5,4.5c2.8,0,4.7-1.1,5.5-2.2c0.4-2-0.6-4.4-1.8-6.9
			l3.5-2.5h0.2c0.3,0.7,1.1,3.5,1.5,4.2c0.5,1,1.3,1.4,3,1.4C817.9,534,818.3,534.6,818.3,535.3z M805.2,527.9l-3.4-2.4l2.1-3.1
			l3.4,2.4L805.2,527.9z"/>
		<path class="st10" d="M829.8,535.3c0,1.5-0.5,2.7-2.1,2.7c-2.4,0-4.6-0.5-5.8-1.5c-1.2,1-2.6,1.5-4.7,1.5h-1.1l0.9-4h0.7
			c0.8,0,1.8-0.1,2.2-0.4c0.3-0.8,0.7-2.4,1.1-4.5l4.1-1l0.3,0.2c-0.4,1.9-0.9,3.6-1.5,5c0.9,0.4,2.4,0.6,4.5,0.6
			C829.5,534,829.8,534.6,829.8,535.3z M823.6,540.3l3.3,2.2l-2,3.1l-3.1-2.2l-1.5,2.2l-3.3-2.3l2-3l3.2,2.2L823.6,540.3z"/>
		<path class="st10" d="M846.9,535.3c0,1.6-0.7,2.7-2.2,2.7c-1.4,0-2.4-0.3-3.3-1.1c-0.6,1-1.5,1.5-2.7,1.5c-1.4,0-3.5-0.7-5.7-2.2
			c-1.3,1.6-2.9,1.8-5.3,1.8l0.9-4c1.4,0,1.8-0.2,2.6-1.5c1.8-3,3.3-5.8,6-5.8c2.4,0,3.6,2.1,4.9,4.8c1.1,2.1,1.6,2.6,3.5,2.6
			C846.5,534,846.9,534.6,846.9,535.3z M839.5,534.1l-0.1-0.2c-1-2.3-1.8-3.4-2.5-3.4c-0.7,0-1.5,1.2-2.3,2.8
			c1.2,0.8,2.5,1.4,3.5,1.4C838.8,534.7,839.2,534.4,839.5,534.1z"/>
		<path class="st10" d="M845.6,534c0.9,0,1.9-0.1,2.6-0.4c0.1-0.5,0.2-1.2,0.2-2.4v-14.4l3.7-1l0.3,0.2v15c0,5.6-2.9,7-7.6,7
			L845.6,534z"/>
		<path class="st10" d="M856.2,531.5v-14.7l3.7-1l0.3,0.2v15.2c0,2.2,0.9,2.8,3.2,2.8c0.9,0,1.3,0.5,1.3,1.3c0,1.6-0.6,2.7-2.1,2.7
			C858.4,538,856.2,536.1,856.2,531.5z"/>
		<path class="st10" d="M883,535.3c0,1.5-0.5,2.7-2.2,2.7c-3.6,0-6.5-0.9-8.7-2.3c-2.3,1.4-5.1,2.3-9.6,2.3l0.9-4
			c2.4,0,4.4-0.2,6.2-0.9c-1.3-1.3-2.8-2.5-4.3-3.2l-0.1-0.3l1.2-3.5c1.7-0.9,4.1-1.4,6.5-1.4c2.4,0,4.8,0.5,6.7,1.6l0.1,0.4
			l-0.9,3.4c-1.4,1.1-2.6,2.2-3.8,3.3c1.8,0.5,4,0.6,6.5,0.6C882.7,534,883,534.6,883,535.3z M872.4,531.7c1-0.7,2-1.6,3.1-2.8
			c-1.1-0.3-2.1-0.5-3.1-0.5c-1.1,0-2.1,0.2-3.1,0.4C870.4,529.5,871.4,530.6,872.4,531.7z"/>
		<path class="st10" d="M881.8,534c0.9,0,1.9-0.1,2.6-0.4c0.1-0.5,0.2-1.2,0.2-2.4v-14.4l3.7-1l0.3,0.2v15c0,5.6-2.9,7-7.6,7
			L881.8,534z"/>
		<path class="st10" d="M892.4,538v-21.2l3.7-1l0.3,0.2l-0.1,21.4l-3.7,0.8L892.4,538z"/>
		<path class="st10" d="M929.3,537.1c-0.2,4.3-5.7,6.8-12.8,6.8c-6.6,0-9.7-2.9-9.7-6.8c0-1.2,0.3-2.5,0.5-3.6l3.3-1.1l0.4,0.2
			c-0.3,1.3-0.4,2-0.4,2.8c0,2.8,1.5,4.6,6.5,4.6c3.8,0,7.6-0.7,8.6-1.9c0-0.7-0.8-1.6-5.2-2.5l1.1-3.4
			C927.7,533.6,929.3,535.1,929.3,537.1z M918.3,546.3l3.3,2.2l-2,3.1l-3.1-2.2l-1.5,2.2l-3.3-2.3l2-3l3.2,2.2L918.3,546.3z"/>
		<path class="st10" d="M929.4,527.9c0,4.7-1.7,6.2-6.2,7.8l-1.5-3.5c1.8-0.4,3.4-1,4.2-1.5c0.1-0.3,0.2-0.6,0.2-1
			c-0.9,0.2-1.8,0.3-2.9,0.3c-3,0-4.4-1.5-4.4-3.8c0-3,2.3-6.6,5.3-6.6C927.3,519.6,929.4,523.4,929.4,527.9z M924.1,517.2l-3.4-2.4
			l2.1-3.1l3.4,2.4L924.1,517.2z M923.8,526.6c0.8,0,1.5-0.1,2.3-0.2c-0.3-1.6-1.2-3-2.4-3c-1.1,0-2,1.2-2,2.2
			C921.7,526.2,922.3,526.6,923.8,526.6z"/>
	</g>
</g>
<path class="st11" d="M1025,42.8h-11.1v-6.6c0-1.7-1.1-3-2.6-3.5c1.4-1.1,2.3-2.9,2.3-4.8c0-3.4-2.8-6.2-6.2-6.2
	c-1,0-1.9,0.2-2.8,0.7c0.4-1.1,0.5-2.2,0.5-3.4c0-6.2-5-11.2-11.2-11.2c-6.2,0-11.2,5-11.2,11.2c0,1.2,0.2,2.4,0.5,3.4
	c-0.8-0.4-1.8-0.7-2.8-0.7c-3.4,0-6.2,2.8-6.2,6.2c0,1.9,0.9,3.6,2.3,4.8c-1.5,0.4-2.6,1.8-2.6,3.5v6.6h-10h-10v-6.6
	c0-1.7-1.1-3-2.6-3.5c1.4-1.1,2.3-2.9,2.3-4.8c0-3.4-2.8-6.2-6.2-6.2c-1,0-1.9,0.2-2.8,0.7c0.4-1.1,0.5-2.2,0.5-3.4
	c0-6.2-5-11.2-11.2-11.2c-6.2,0-11.2,5-11.2,11.2c0,1.2,0.2,2.4,0.5,3.4c-0.8-0.4-1.8-0.7-2.8-0.7c-3.4,0-6.2,2.8-6.2,6.2
	c0,1.9,0.9,3.6,2.3,4.8c-1.5,0.4-2.6,1.8-2.6,3.5v6.6h-10h-10v-6.6c0-1.7-1.1-3-2.6-3.5c1.4-1.1,2.3-2.9,2.3-4.8
	c0-3.4-2.8-6.2-6.2-6.2c-1,0-1.9,0.2-2.8,0.7c0.4-1.1,0.5-2.2,0.5-3.4c0-6.2-5-11.2-11.2-11.2c-6.2,0-11.2,5-11.2,11.2
	c0,1.2,0.2,2.4,0.5,3.4c-0.8-0.4-1.8-0.7-2.8-0.7c-3.4,0-6.2,2.8-6.2,6.2c0,1.9,0.9,3.6,2.3,4.8c-1.5,0.4-2.6,1.8-2.6,3.5v6.6h-10
	h-10v-6.6c0-1.7-1.1-3-2.6-3.5c1.4-1.1,2.3-2.9,2.3-4.8c0-3.4-2.8-6.2-6.2-6.2c-1,0-1.9,0.2-2.8,0.7c0.4-1.1,0.5-2.2,0.5-3.4
	c0-6.2-5-11.2-11.2-11.2c-6.2,0-11.2,5-11.2,11.2c0,1.2,0.2,2.4,0.5,3.4c-0.8-0.4-1.8-0.7-2.8-0.7c-3.4,0-6.2,2.8-6.2,6.2
	c0,1.9,0.9,3.6,2.3,4.8c-1.5,0.4-2.6,1.8-2.6,3.5v6.6h-10h-10v-6.6c0-1.7-1.1-3-2.6-3.5c1.4-1.1,2.3-2.9,2.3-4.8
	c0-3.4-2.8-6.2-6.2-6.2c-1,0-1.9,0.2-2.8,0.7c0.4-1.1,0.5-2.2,0.5-3.4c0-6.2-5-11.2-11.2-11.2c-6.2,0-11.2,5-11.2,11.2
	c0,1.2,0.2,2.4,0.5,3.4c-0.8-0.4-1.8-0.7-2.8-0.7c-3.4,0-6.2,2.8-6.2,6.2c0,1.9,0.9,3.6,2.3,4.8c-1.5,0.4-2.6,1.8-2.6,3.5v6.6h-10
	h-10v-6.6c0-1.7-1.1-3-2.6-3.5c1.4-1.1,2.3-2.9,2.3-4.8c0-3.4-2.8-6.2-6.2-6.2c-1,0-1.9,0.2-2.8,0.7c0.4-1.1,0.5-2.2,0.5-3.4
	c0-6.2-5-11.2-11.2-11.2c-6.2,0-11.2,5-11.2,11.2c0,1.2,0.2,2.4,0.5,3.4c-0.8-0.4-1.8-0.7-2.8-0.7c-3.4,0-6.2,2.8-6.2,6.2
	c0,1.9,0.9,3.6,2.3,4.8c-1.5,0.4-2.6,1.8-2.6,3.5v6.6h-10h-10v-6.6c0-1.7-1.1-3-2.6-3.5c1.4-1.1,2.3-2.9,2.3-4.8
	c0-3.4-2.8-6.2-6.2-6.2c-1,0-1.9,0.2-2.8,0.7c0.4-1.1,0.5-2.2,0.5-3.4c0-6.2-5-11.2-11.2-11.2c-6.2,0-11.2,5-11.2,11.2
	c0,1.2,0.2,2.4,0.5,3.4c-0.8-0.4-1.8-0.7-2.8-0.7c-3.4,0-6.2,2.8-6.2,6.2c0,1.9,0.9,3.6,2.3,4.8c-1.5,0.4-2.6,1.8-2.6,3.5v6.6h-10
	h-10v-6.6c0-1.7-1.1-3-2.6-3.5c1.4-1.1,2.3-2.9,2.3-4.8c0-3.4-2.8-6.2-6.2-6.2c-1,0-1.9,0.2-2.8,0.7c0.4-1.1,0.5-2.2,0.5-3.4
	c0-6.2-5-11.2-11.2-11.2c-6.2,0-11.2,5-11.2,11.2c0,1.2,0.2,2.4,0.5,3.4c-0.8-0.4-1.8-0.7-2.8-0.7c-3.4,0-6.2,2.8-6.2,6.2
	c0,1.9,0.9,3.6,2.3,4.8c-1.5,0.4-2.6,1.8-2.6,3.5v6.6h-10h-10v-6.6c0-1.7-1.1-3-2.6-3.5c1.4-1.1,2.3-2.9,2.3-4.8
	c0-3.4-2.8-6.2-6.2-6.2c-1,0-1.9,0.2-2.8,0.7c0.4-1.1,0.5-2.2,0.5-3.4c0-6.2-5-11.2-11.2-11.2c-6.2,0-11.2,5-11.2,11.2
	c0,1.2,0.2,2.4,0.5,3.4c-0.8-0.4-1.8-0.7-2.8-0.7c-3.4,0-6.2,2.8-6.2,6.2c0,1.9,0.9,3.6,2.3,4.8c-1.5,0.4-2.6,1.8-2.6,3.5v6.6h-10
	h-10v-6.6c0-1.7-1.1-3-2.6-3.5c1.4-1.1,2.3-2.9,2.3-4.8c0-3.4-2.8-6.2-6.2-6.2c-1,0-1.9,0.2-2.8,0.7c0.4-1.1,0.5-2.2,0.5-3.4
	c0-6.2-5-11.2-11.2-11.2c-6.2,0-11.2,5-11.2,11.2c0,1.2,0.2,2.4,0.5,3.4c-0.8-0.4-1.8-0.7-2.8-0.7c-3.4,0-6.2,2.8-6.2,6.2
	c0,1.9,0.9,3.6,2.3,4.8c-1.5,0.4-2.6,1.8-2.6,3.5v6.6h-10h-10v-6.6c0-1.7-1.1-3-2.6-3.5c1.4-1.1,2.3-2.9,2.3-4.8
	c0-3.4-2.8-6.2-6.2-6.2c-1,0-1.9,0.2-2.8,0.7c0.4-1.1,0.5-2.2,0.5-3.4c0-6.2-5-11.2-11.2-11.2c-6.2,0-11.2,5-11.2,11.2
	c0,1.2,0.2,2.4,0.5,3.4c-0.8-0.4-1.8-0.7-2.8-0.7c-3.4,0-6.2,2.8-6.2,6.2c0,1.9,0.9,3.6,2.3,4.8c-1.5,0.4-2.6,1.8-2.6,3.5v6.6h-10
	h-10v-6.6c0-1.7-1.1-3-2.6-3.5c1.4-1.1,2.3-2.9,2.3-4.8c0-3.4-2.8-6.2-6.2-6.2c-1,0-1.9,0.2-2.8,0.7c0.4-1.1,0.5-2.2,0.5-3.4
	c0-6.2-5-11.2-11.2-11.2c-6.2,0-11.2,5-11.2,11.2c0,1.2,0.2,2.4,0.5,3.4c-0.8-0.4-1.8-0.7-2.8-0.7c-3.4,0-6.2,2.8-6.2,6.2
	c0,1.9,0.9,3.6,2.3,4.8c-1.5,0.4-2.6,1.8-2.6,3.5v6.6h-10h-10v-6.6c0-1.7-1.1-3-2.6-3.5c1.4-1.1,2.3-2.9,2.3-4.8
	c0-3.4-2.8-6.2-6.2-6.2c-1,0-1.9,0.2-2.8,0.7c0.4-1.1,0.5-2.2,0.5-3.4c0-6.2-5-11.2-11.2-11.2c-6.2,0-11.2,5-11.2,11.2
	c0,1.2,0.2,2.4,0.5,3.4c-0.8-0.4-1.8-0.7-2.8-0.7c-3.4,0-6.2,2.8-6.2,6.2c0,1.9,0.9,3.6,2.3,4.8c-1.5,0.4-2.6,1.8-2.6,3.5v6.6h-10
	h-10v-6.6c0-1.7-1.1-3-2.6-3.5c1.4-1.1,2.3-2.9,2.3-4.8c0-3.4-2.8-6.2-6.2-6.2c-1,0-1.9,0.2-2.8,0.7c0.4-1.1,0.5-2.2,0.5-3.4
	c0-6.2-5-11.2-11.2-11.2c-6.2,0-11.2,5-11.2,11.2c0,1.2,0.2,2.4,0.5,3.4c-0.8-0.4-1.8-0.7-2.8-0.7c-3.4,0-6.2,2.8-6.2,6.2
	c0,1.9,0.9,3.6,2.3,4.8c-1.5,0.4-2.6,1.8-2.6,3.5v6.6h-10h-10v-6.6c0-1.7-1.1-3-2.6-3.5c1.4-1.1,2.3-2.9,2.3-4.8
	c0-3.4-2.8-6.2-6.2-6.2c-1,0-1.9,0.2-2.8,0.7c0.4-1.1,0.5-2.2,0.5-3.4c0-6.2-5-11.2-11.2-11.2c-6.2,0-11.2,5-11.2,11.2
	c0,1.2,0.2,2.4,0.5,3.4c-0.8-0.4-1.8-0.7-2.8-0.7c-3.4,0-6.2,2.8-6.2,6.2c0,1.9,0.9,3.6,2.3,4.8c-1.5,0.4-2.6,1.8-2.6,3.5v6.6h-10
	h-10v-6.6c0-1.7-1.1-3-2.6-3.5c1.4-1.1,2.3-2.9,2.3-4.8c0-3.4-2.8-6.2-6.2-6.2c-1,0-1.9,0.2-2.8,0.7c0.4-1.1,0.5-2.2,0.5-3.4
	c0-6.2-5-11.2-11.2-11.2c-6.2,0-11.2,5-11.2,11.2c0,1.2,0.2,2.4,0.5,3.4c-0.8-0.4-1.8-0.7-2.8-0.7c-3.4,0-6.2,2.8-6.2,6.2
	c0,1.9,0.9,3.6,2.3,4.8c-1.5,0.4-2.6,1.8-2.6,3.5v6.6h-10h-10v-6.6c0-1.7-1.1-3-2.6-3.5c1.4-1.1,2.3-2.9,2.3-4.8
	c0-3.4-2.8-6.2-6.2-6.2c-1,0-1.9,0.2-2.8,0.7c0.4-1.1,0.5-2.2,0.5-3.4c0-6.2-5-11.2-11.2-11.2c-6.2,0-11.2,5-11.2,11.2
	c0,1.2,0.2,2.4,0.5,3.4c-0.8-0.4-1.8-0.7-2.8-0.7c-3.4,0-6.2,2.8-6.2,6.2c0,1.9,0.9,3.6,2.3,4.8c-1.5,0.4-2.6,1.8-2.6,3.5v6.6H1V-1
	h1024V42.8z"/>
<g id="Layer_x0020_1_36_">
	<path class="st12" d="M36.9,719l43.9-1.7c0.3,0,0.6,0,1,0c0.7,0.1,1.3,0.4,1.8,0.9c0.5,0.5,0.9,1,0.9,1.7c0,0.2,0,0.5,0,0.8
		l-4.6,20.6c-0.2,0.9-0.6,1.7-1.3,2.2c-0.6,0.5-1.4,0.9-2.4,0.9L41,743.2c-1,0-1.7-0.3-2.4-0.9l0,0c-0.6-0.6-1.1-1.4-1.3-2.2
		l-4.1-17.7c0-0.1,0-0.1,0-0.2c-0.1-0.8,0.3-1.5,0.9-2.1c0.6-0.5,1.4-0.8,2.3-1C36.6,719.1,36.7,719,36.9,719z M78.9,720.1l-42,1.5
		c-0.1,0-0.2,0-0.3,0c-0.6,0.1-1.1,0.3-1.5,0.7c-0.3,0.3-0.6,0.7-0.5,1.1c0,0,0,0.1,0,0.1l3.8,16.5c0.1,0.6,0.4,1.2,0.9,1.6
		c0.4,0.3,0.8,0.5,1.4,0.5l34,1.2c0.6,0,1-0.2,1.4-0.5c0.4-0.4,0.7-0.9,0.9-1.6L81,722c0-0.1,0-0.3,0-0.4c0-0.3-0.2-0.7-0.5-0.9
		c-0.3-0.3-0.7-0.5-1.1-0.5C79.2,720.1,79.1,720.1,78.9,720.1z"/>
	<path class="st12" d="M43.9,723.7l12.9-1.4c0.1,0,0.3,0,0.4,0c0.3,0.1,0.6,0.2,0.8,0.4c0.2,0.2,0.4,0.5,0.4,0.8c0,0.1,0,0.2,0,0.3
		l-2.1,9.6c-0.1,0.4-0.3,0.8-0.6,1c-0.3,0.3-0.6,0.4-1.1,0.4h-8.9c-0.4,0-0.8-0.2-1.1-0.4h0c-0.3-0.3-0.5-0.6-0.6-1l-1.9-8.2
		c0,0,0-0.1,0-0.1c-0.1-0.4,0.1-0.7,0.4-1c0.3-0.2,0.7-0.4,1-0.5C43.8,723.7,43.8,723.7,43.9,723.7z M55.9,723.6l-12,1.3
		c0,0-0.1,0-0.1,0c-0.3,0-0.5,0.2-0.7,0.3c-0.2,0.1-0.3,0.3-0.2,0.5c0,0,0,0,0,0l1.8,7.6c0.1,0.3,0.2,0.5,0.4,0.7
		c0.2,0.1,0.4,0.2,0.6,0.2h8.3c0.3,0,0.5-0.1,0.6-0.2c0.2-0.2,0.3-0.4,0.4-0.7l2-8.9c0-0.1,0-0.1,0-0.2c0-0.2-0.1-0.3-0.2-0.4
		c-0.1-0.1-0.3-0.2-0.5-0.2C56.1,723.6,56,723.6,55.9,723.6z"/>
	<g id="_1849662416_36_">
		<path class="st13" d="M62.4,735.9l0.4-0.7l-0.7-0.4l0.4-0.7l-1.5-0.8l-0.9,1.5l0,0c0.3,0.1,0.5,0.3,0.7,0.4l-0.4,0.7l0.7,0.4
			l-0.8,1.5l0.7,0.4c-0.2,0.5-0.6,1.1-0.9,1.5l0,0c0.2,0.1,0.4,0.2,0.5,0.3c0.3,0.1,0.2,0.1,0,0.5c-0.2,0.4-0.4,0.8-0.7,1.1l0.7,0.4
			c0,0.2-0.7,1.2-0.8,1.5l5.9,3.4l0.9-1.5l0.8,0.4l1.3-2.2l0.7,0.4l3-5.2c-0.1-0.1-0.7-0.4-0.7-0.5c0-0.2,0.4-0.6,0.4-0.7
			c-0.1-0.1-0.5-0.4-0.7-0.4l-1.3,2.2l-0.7-0.4l1.7-3l-1.5-0.9l-1.3,2.2l-0.7-0.4l1.7-2.9c-0.1-0.1-1.3-0.8-1.5-0.9l-1.7,3l-0.7-0.4
			c0-0.1,0.1-0.1,0.1-0.2c1.2-2.1,2.5-4.3,3.7-6.5l-1.5-0.8l-4.7,8.1C62.9,736.3,62.4,735.9,62.4,735.9L62.4,735.9z"/>
		<path class="st14" d="M60.2,739.6c-0.1,0.1-0.1,0.2-0.2,0.3l-0.7,1.1c0.1,0.1,0.2,0.1,0.4,0.2c0.1,0.1,0.2,0.1,0.3,0.2
			c-0.4,0.8-0.8,1.5-1.2,2.2c0.6,0.4,1.2,0.7,1.8,1.1l3.7,2.2c0.6,0.4,1.3,0.7,1.9,1.1c0.1-0.2,0.1-0.3,0.3-0.5
			c0.1-0.2,0.4-0.6,0.5-0.9c0.1-0.1,0.1-0.1,0.2-0.3c0.1-0.2,0.2-0.4,0.3-0.6c0.1,0.2,0.5,0.3,0.7,0.4c0.4-0.7,0.8-1.4,1.3-2.2
			c0.2,0.1,0.4,0.2,0.6,0.3c0.1,0.1,0.1,0.1,0.2,0c0.2-0.3,0.3-0.6,0.5-0.9c0.3-0.6,0.7-1.1,1-1.7l1.4-2.5c-0.2-0.1-0.6-0.3-0.7-0.4
			l-3,5.2l-0.7-0.4l-1.3,2.2l-0.8-0.4l-0.9,1.5l-5.9-3.4c0.1-0.3,0.8-1.3,0.8-1.5l-0.7-0.4c0.2-0.4,0.4-0.8,0.7-1.1
			c0.2-0.4,0.2-0.3,0-0.5C60.6,739.8,60.4,739.7,60.2,739.6z"/>
		<path class="st14" d="M62.5,734l-0.4,0.7l0.7,0.4l-0.4,0.7l0.7,0.4l4.7-8.1l-0.7-0.4c0,0,0,0,0,0l0,0c0,0,0,0,0,0l-3.8,6.6
			C63,734.2,62.7,734.1,62.5,734z"/>
		<path class="st14" d="M69.3,729.1l-3.9,6.6l0.7,0.4l1.7-3c0.2,0,1.4,0.8,1.5,0.9c0.2,0.2,1.6,0.9,1.9,1.1c0,0,0.1,0-0.1-0.1
			l-1.5-0.8c-0.4-0.2-0.3-0.1,0.1-0.9l-1.1-0.6c-0.1-0.1-0.2-0.1-0.3-0.2l1.7-2.9c-0.2-0.1-0.3-0.2-0.6-0.4
			C69.4,729.1,69.4,729.1,69.3,729.1z"/>
		<path class="st14" d="M71.2,736.1l0.4-0.7c-0.1-0.1-0.2-0.2-0.4-0.2c-0.3-0.2-1.7-0.9-1.9-1.1l-1.7,2.9l0.7,0.4l1.3-2.2
			L71.2,736.1z"/>
		<path class="st14" d="M60.1,734.7c-0.1,0.1-0.1,0.1-0.2,0.3c-0.1,0.1-0.1,0.3-0.2,0.4l0.7,0.4c-0.1,0.2-0.7,1.3-0.8,1.5l0.7,0.4
			l-0.6,1.1c-0.1,0.2-0.1,0.2-0.2,0.4l0.7,0.4c0.3-0.4,0.7-1,0.9-1.5l-0.7-0.4l0.8-1.5l-0.7-0.4l0.4-0.7
			C60.6,734.9,60.4,734.7,60.1,734.7z"/>
		<path class="st14" d="M60.1,734.6l0.9-1.5l1.5,0.8l0.2-0.4c0.1-0.1,0.1-0.2,0.2-0.4l-2-1.1c-0.3-0.2-0.2-0.2-0.5,0.2l-0.9,1.6
			c-0.1,0.2-0.2,0.2,0,0.3C59.6,734.4,60,734.6,60.1,734.6z"/>
		<path class="st14" d="M72.2,737.7c0.1,0,0,0,0.1-0.1c0,0,0.1-0.1,0.1-0.1c0-0.2,0.2-0.4,0.3-0.6l-1.5-0.8l-1.7,3l0.7,0.4l1.3-2.2
			C71.7,737.3,72.1,737.5,72.2,737.7z"/>
		<path class="st14" d="M69.3,729c0.1-0.2,0.3-0.5,0.4-0.7l-1.5-0.8l-0.4,0.7L69.3,729z"/>
		<path class="st14" d="M72.2,737.7c0,0.2-0.4,0.6-0.4,0.7c0,0.1,0.6,0.4,0.7,0.5c0.2,0.1,0.5,0.3,0.7,0.4l-1.4,2.5l1.5-2.5
			l-0.7-0.4c0.1-0.1,0.1-0.2,0.2-0.4c0.1-0.1,0.2-0.3,0.2-0.4c-0.8-0.5-0.8-0.3-0.6-0.6c0,0-0.1,0.1-0.1,0.1
			C72.2,737.7,72.3,737.7,72.2,737.7z"/>
	</g>
	<path class="st12" d="M96.9,735.9h-2.5l2.1-7.2l-4.3,7.2h-2.6l-0.5-7.3l-1.8,7.3h-2.6l2.9-10.9h3.5l0.5,7.7l4.6-7.7h3.5L96.9,735.9
		z M106.4,735.9h-5.6c-0.8,0-1.3-0.2-1.7-0.6c-0.4-0.4-0.4-1-0.2-1.8c0.3-0.9,0.7-1.6,1.3-2c0.6-0.4,1.5-0.6,2.6-0.6h2.5
		c0.1-0.4,0.1-0.7-0.1-0.8c-0.2-0.2-0.6-0.2-1.3-0.2h-3.6l0.5-2h4.3c1.1,0,1.9,0.3,2.3,0.8c0.4,0.5,0.5,1.3,0.2,2.3L106.4,735.9z
		 M104.4,733.9l0.3-1.2h-2.2c-0.4,0-0.7,0-0.9,0.1c-0.2,0.1-0.3,0.3-0.3,0.5c-0.1,0.2-0.1,0.3,0,0.4c0,0,0.1,0.1,0.2,0.1
		c0.1,0,0.3,0,0.5,0H104.4z M115.2,735.9h-2.4l1.3-4.9c0.1-0.5,0.2-0.8,0-1c-0.1-0.1-0.4-0.2-0.9-0.2h-1.4l-1.6,6.1h-2.4l2.2-8.1h4
		c1.2,0,2,0.2,2.4,0.7c0.4,0.5,0.5,1.2,0.2,2.3L115.2,735.9z M123.9,735.9h-2.4l1.3-4.9c0.1-0.5,0.1-0.8,0-0.9
		c-0.1-0.1-0.2-0.1-0.3-0.2c-0.1,0-0.3-0.1-0.6-0.1l-1.4,0l-1.6,6.1h-2.4l2.9-10.9h2.4l-0.8,2.8h1.6c1.2,0,2,0.2,2.4,0.7
		c0.4,0.5,0.5,1.2,0.2,2.3L123.9,735.9z M133.1,735.9h-5.6c-0.8,0-1.3-0.2-1.7-0.6c-0.4-0.4-0.4-1-0.2-1.8c0.3-0.9,0.7-1.6,1.3-2
		c0.6-0.4,1.5-0.6,2.6-0.6h2.5c0.1-0.4,0.1-0.7-0.1-0.8c-0.2-0.2-0.6-0.2-1.3-0.2h-3.6l0.5-2h4.3c1.1,0,1.9,0.3,2.3,0.8
		c0.4,0.5,0.5,1.3,0.2,2.3L133.1,735.9z M131.2,733.9l0.3-1.2h-2.2c-0.4,0-0.7,0-0.9,0.1c-0.2,0.1-0.3,0.3-0.3,0.5
		c-0.1,0.2,0,0.3,0,0.4c0,0,0.1,0.1,0.2,0.1c0.1,0,0.3,0,0.5,0H131.2z M137,735.9h-2.5l2.9-10.9h2.5L137,735.9z M142.6,735.9h-2.1
		l0.6-2.2h2.1L142.6,735.9z M150.4,735.9h-2.9c-0.4,0-0.7,0-1-0.1c-0.3,0-0.5-0.1-0.8-0.2c-0.4-0.1-0.8-0.4-1-0.8
		c-0.1-0.2-0.2-0.4-0.3-0.6c-0.1-0.2-0.2-0.5-0.2-0.7c0-0.3,0-0.5,0-0.8c0-0.3,0.1-0.6,0.2-0.9c0.2-0.6,0.4-1.2,0.8-1.7
		c0.3-0.5,0.7-1,1.3-1.4c0.4-0.3,0.9-0.6,1.4-0.7c0.5-0.2,1.1-0.2,1.9-0.2h2.9l-0.5,2h-2.3c-0.5,0-0.9,0-1.2,0.1
		c-0.3,0.1-0.6,0.2-0.8,0.4c-0.4,0.3-0.7,0.8-0.9,1.6c-0.1,0.4-0.1,0.8-0.1,1.1c0.1,0.3,0.1,0.6,0.4,0.7l0.4,0.2c0.1,0,0.3,0,0.4,0
		c0.1,0,0.4,0,0.6,0h2.3L150.4,735.9z M160.5,731.8c-0.3,1.3-1,2.3-2,3.1c-1,0.8-2.1,1.1-3.4,1.1c-1.3,0-2.2-0.4-2.8-1.1
		c-0.6-0.8-0.7-1.8-0.3-3.1c0.3-1.3,1-2.3,2-3c1-0.8,2.1-1.1,3.4-1.1c1.3,0,2.2,0.4,2.8,1.1C160.7,729.5,160.8,730.5,160.5,731.8z
		 M158,731.8c0.2-0.7,0.1-1.2-0.1-1.6c-0.2-0.4-0.6-0.6-1.1-0.6c-0.5,0-1,0.2-1.4,0.6c-0.4,0.4-0.7,0.9-0.9,1.6
		c-0.1,0.4-0.1,0.7-0.1,0.9c0,0.3,0.1,0.5,0.2,0.7c0.2,0.4,0.6,0.6,1.1,0.6c0.6,0,1-0.2,1.4-0.6C157.5,733,157.8,732.5,158,731.8z
		 M171.6,735.9h-2.4l1.3-4.9c0.1-0.5,0.2-0.8,0.1-1c-0.1-0.2-0.4-0.2-0.9-0.2l-0.9,0l-1.6,6.1h-2.4l1.6-6.1h-2l-1.6,6.1h-2.4
		l2.2-8.1h8c1.2,0,2,0.2,2.4,0.7c0.4,0.5,0.5,1.2,0.2,2.3L171.6,735.9z"/>
	<path class="st12" d="M29.9,727.8l21.2-2.2c0.2,0,0.5,0,0.7,0c0.5,0.1,1,0.3,1.4,0.7c0.4,0.3,0.6,0.8,0.7,1.3c0,0.2,0,0.4,0,0.6
		l-3.7,9.6c-0.1,0.7-0.5,1.3-1,1.7c-0.5,0.4-1.1,0.7-1.8,0.7H32.8c-0.7,0-1.3-0.3-1.8-0.7h0c-0.5-0.4-0.8-1.1-1-1.7l-2.9-7.4
		c0-0.1,0-0.1,0-0.2c-0.1-0.6,0.2-1.2,0.7-1.6c0.5-0.4,1.1-0.6,1.7-0.8C29.7,727.8,29.8,727.8,29.9,727.8z M49.6,727.7l-19.8,2.1
		c-0.1,0-0.2,0-0.2,0c-0.4,0.1-0.9,0.3-1.2,0.5c-0.3,0.2-0.4,0.5-0.4,0.8c0,0,0,0.1,0,0.1l2.7,6.5c0.1,0.5,0.3,0.9,0.7,1.2
		c0.3,0.2,0.6,0.4,1,0.4h13.6c0.4,0,0.8-0.1,1-0.4c0.3-0.3,0.5-0.7,0.7-1.2l3.4-8.6c0-0.1,0-0.2,0-0.3c0-0.3-0.2-0.5-0.4-0.7
		c-0.2-0.2-0.5-0.4-0.8-0.4C49.9,727.7,49.7,727.7,49.6,727.7z"/>
	<path class="st12" d="M89.6,721.5l-0.5,1.7h-0.6l1.2-4.5H91c0.3,0,0.5,0,0.7,0.1c0.2,0.1,0.3,0.2,0.4,0.3c0.1,0.1,0.2,0.3,0.2,0.4
		c0,0.2,0,0.4-0.1,0.6c-0.1,0.2-0.1,0.4-0.3,0.6c-0.1,0.2-0.3,0.3-0.4,0.4c-0.2,0.1-0.4,0.2-0.6,0.3c-0.2,0.1-0.5,0.1-0.7,0.1H89.6z
		 M89.7,721h0.7c0.2,0,0.3,0,0.5-0.1c0.1,0,0.3-0.1,0.4-0.2c0.1-0.1,0.2-0.2,0.3-0.3c0.1-0.1,0.1-0.2,0.2-0.4
		c0.1-0.3,0.1-0.5-0.1-0.7c-0.1-0.2-0.4-0.2-0.7-0.2h-0.7L89.7,721z"/>
	<path id="_x31__36_" class="st12" d="M94.2,720c0.2,0,0.4,0,0.6,0.1c0.2,0.1,0.3,0.2,0.4,0.3c0.1,0.1,0.1,0.3,0.2,0.5
		c0,0.2,0,0.4-0.1,0.7c-0.1,0.3-0.2,0.5-0.3,0.7c-0.1,0.2-0.3,0.4-0.4,0.5c-0.2,0.1-0.4,0.3-0.6,0.3c-0.2,0.1-0.4,0.1-0.7,0.1
		c-0.2,0-0.4,0-0.6-0.1c-0.2-0.1-0.3-0.2-0.4-0.3c-0.1-0.1-0.1-0.3-0.2-0.5c0-0.2,0-0.4,0.1-0.7c0.1-0.3,0.2-0.5,0.3-0.7
		c0.1-0.2,0.3-0.4,0.4-0.5c0.2-0.1,0.4-0.3,0.6-0.3C93.8,720,94,720,94.2,720z M93.5,722.8c0.3,0,0.6-0.1,0.8-0.3
		c0.2-0.2,0.4-0.5,0.5-0.9c0.1-0.4,0.1-0.7,0-0.9c-0.1-0.2-0.3-0.3-0.6-0.3c-0.2,0-0.3,0-0.4,0.1c-0.1,0.1-0.3,0.1-0.4,0.2
		c-0.1,0.1-0.2,0.2-0.3,0.4c-0.1,0.1-0.1,0.3-0.2,0.5c0,0.2-0.1,0.4-0.1,0.5c0,0.1,0,0.3,0.1,0.4c0.1,0.1,0.1,0.2,0.2,0.2
		C93.2,722.8,93.3,722.8,93.5,722.8z"/>
	<path id="_x32__36_" class="st12" d="M96,720h0.4c0,0,0.1,0,0.1,0c0,0,0,0,0,0.1l0.1,2c0,0.1,0,0.1,0,0.2c0,0.1,0,0.1,0,0.2
		c0-0.1,0.1-0.1,0.1-0.2c0-0.1,0.1-0.1,0.1-0.2l1.2-2.1c0,0,0-0.1,0.1-0.1c0,0,0.1,0,0.1,0h0.2c0,0,0.1,0,0.1,0c0,0,0,0,0,0.1
		l0.1,2.1c0,0.1,0,0.1,0,0.2c0,0.1,0,0.1,0,0.2c0-0.1,0.1-0.1,0.1-0.2c0-0.1,0.1-0.1,0.1-0.2l1.2-2c0,0,0-0.1,0.1-0.1
		c0,0,0.1,0,0.1,0h0.4l-1.9,3.2h-0.4c-0.1,0-0.1,0-0.1-0.1l-0.1-2.2c0,0,0-0.1,0-0.1c0-0.1,0-0.1,0-0.1c0,0,0,0.1-0.1,0.1
		c0,0,0,0.1-0.1,0.1l-1.3,2.2c0,0.1-0.1,0.1-0.2,0.1h-0.4L96,720z"/>
	<path id="_x33__36_" class="st12" d="M102.5,719.9c0.2,0,0.4,0,0.5,0.1c0.1,0.1,0.3,0.2,0.3,0.3c0.1,0.1,0.1,0.3,0.2,0.4
		c0,0.2,0,0.4-0.1,0.6c0,0.1,0,0.1-0.1,0.2c0,0-0.1,0-0.1,0h-2.1c-0.1,0.2-0.1,0.4-0.1,0.5c0,0.1,0,0.3,0.1,0.4
		c0.1,0.1,0.1,0.2,0.3,0.2c0.1,0,0.2,0.1,0.4,0.1c0.1,0,0.3,0,0.4,0c0.1,0,0.2-0.1,0.3-0.1c0.1,0,0.2-0.1,0.2-0.1
		c0.1,0,0.1-0.1,0.1-0.1c0,0,0.1,0,0.1,0.1l0.1,0.2c-0.1,0.1-0.2,0.2-0.3,0.2c-0.1,0.1-0.2,0.1-0.3,0.2c-0.1,0-0.2,0.1-0.4,0.1
		c-0.1,0-0.2,0-0.4,0c-0.2,0-0.4,0-0.6-0.1c-0.2-0.1-0.3-0.2-0.4-0.3c-0.1-0.1-0.2-0.3-0.2-0.5c0-0.2,0-0.5,0.1-0.7
		c0.1-0.2,0.1-0.4,0.3-0.6c0.1-0.2,0.3-0.4,0.4-0.5c0.2-0.1,0.4-0.3,0.6-0.3C102.1,720,102.3,719.9,102.5,719.9z M102.4,720.4
		c-0.3,0-0.5,0.1-0.7,0.2c-0.2,0.2-0.4,0.4-0.5,0.6h1.7c0-0.1,0.1-0.3,0-0.4c0-0.1,0-0.2-0.1-0.3c0-0.1-0.1-0.1-0.2-0.2
		C102.6,720.4,102.5,720.4,102.4,720.4z"/>
	<path id="_x34__36_" class="st12" d="M103.7,723.2l0.9-3.2h0.3c0.1,0,0.1,0,0.1,0c0,0,0,0.1,0,0.1l-0.1,0.5
		c0.2-0.2,0.4-0.4,0.5-0.5c0.2-0.1,0.4-0.2,0.6-0.2c0.1,0,0.2,0,0.2,0c0.1,0,0.1,0,0.2,0.1l-0.2,0.4c0,0.1-0.1,0.1-0.1,0.1
		c0,0-0.1,0-0.1,0c-0.1,0-0.1,0-0.2,0c-0.2,0-0.4,0.1-0.5,0.2c-0.2,0.1-0.3,0.3-0.5,0.5l-0.5,2H103.7z"/>
	<path id="_x35__36_" class="st12" d="M108.3,719.9c0.2,0,0.4,0,0.5,0.1c0.1,0.1,0.3,0.2,0.3,0.3c0.1,0.1,0.1,0.3,0.2,0.4
		c0,0.2,0,0.4-0.1,0.6c0,0.1,0,0.1-0.1,0.2c0,0-0.1,0-0.1,0H107c-0.1,0.2-0.1,0.4-0.1,0.5c0,0.1,0,0.3,0.1,0.4
		c0.1,0.1,0.1,0.2,0.3,0.2c0.1,0,0.2,0.1,0.4,0.1c0.1,0,0.3,0,0.4,0c0.1,0,0.2-0.1,0.3-0.1c0.1,0,0.2-0.1,0.2-0.1
		c0.1,0,0.1-0.1,0.1-0.1c0,0,0.1,0,0.1,0.1l0.1,0.2c-0.1,0.1-0.2,0.2-0.3,0.2c-0.1,0.1-0.2,0.1-0.3,0.2c-0.1,0-0.2,0.1-0.4,0.1
		c-0.1,0-0.2,0-0.4,0c-0.2,0-0.4,0-0.6-0.1c-0.2-0.1-0.3-0.2-0.4-0.3c-0.1-0.1-0.2-0.3-0.2-0.5c0-0.2,0-0.5,0.1-0.7
		c0.1-0.2,0.2-0.4,0.3-0.6c0.1-0.2,0.3-0.4,0.4-0.5c0.2-0.1,0.4-0.3,0.6-0.3C107.9,720,108.1,719.9,108.3,719.9z M108.2,720.4
		c-0.3,0-0.5,0.1-0.7,0.2c-0.2,0.2-0.4,0.4-0.5,0.6h1.7c0-0.1,0-0.3,0-0.4c0-0.1,0-0.2-0.1-0.3c0-0.1-0.1-0.1-0.2-0.2
		C108.5,720.4,108.4,720.4,108.2,720.4z"/>
	<path id="_x36__36_" class="st12" d="M111.7,723.2c-0.1,0-0.1,0-0.1-0.1l0.1-0.4c-0.2,0.2-0.4,0.3-0.6,0.4
		c-0.2,0.1-0.4,0.1-0.6,0.1c-0.2,0-0.3,0-0.5-0.1c-0.1-0.1-0.2-0.2-0.3-0.3c-0.1-0.1-0.1-0.3-0.1-0.5c0-0.2,0-0.4,0.1-0.7
		c0.1-0.2,0.2-0.5,0.3-0.7c0.1-0.2,0.3-0.4,0.4-0.5c0.2-0.2,0.3-0.3,0.5-0.4c0.2-0.1,0.4-0.1,0.6-0.1c0.2,0,0.4,0,0.5,0.1
		c0.1,0.1,0.2,0.2,0.3,0.3l0.5-1.8h0.6l-1.2,4.6H111.7z M110.8,722.8c0.2,0,0.4,0,0.5-0.1c0.2-0.1,0.3-0.2,0.5-0.4l0.4-1.5
		c-0.1-0.1-0.2-0.2-0.3-0.3c-0.1-0.1-0.2-0.1-0.4-0.1c-0.3,0-0.6,0.1-0.8,0.3c-0.2,0.2-0.4,0.5-0.5,0.9c-0.1,0.2-0.1,0.4-0.1,0.5
		c0,0.1,0,0.3,0.1,0.4c0,0.1,0.1,0.2,0.2,0.2C110.5,722.8,110.6,722.8,110.8,722.8z"/>
	<path id="_x37__36_" class="st12" d="M114.2,723.2l1.2-4.6h0.6l-0.5,1.9c0.2-0.2,0.4-0.3,0.6-0.4c0.2-0.1,0.4-0.1,0.6-0.1
		c0.2,0,0.3,0,0.5,0.1c0.1,0.1,0.2,0.2,0.3,0.3c0.1,0.1,0.1,0.3,0.1,0.5c0,0.2,0,0.4-0.1,0.7c-0.1,0.2-0.2,0.5-0.3,0.7
		c-0.1,0.2-0.3,0.4-0.4,0.5c-0.2,0.1-0.3,0.3-0.5,0.3c-0.2,0.1-0.4,0.1-0.6,0.1c-0.2,0-0.4,0-0.5-0.1c-0.1-0.1-0.2-0.2-0.3-0.3
		l-0.1,0.3c0,0.1-0.1,0.1-0.2,0.1H114.2z M116.4,720.4c-0.2,0-0.4,0-0.5,0.1c-0.2,0.1-0.3,0.2-0.5,0.4l-0.4,1.5
		c0.1,0.1,0.1,0.2,0.3,0.3c0.1,0.1,0.2,0.1,0.4,0.1c0.3,0,0.6-0.1,0.8-0.3c0.2-0.2,0.4-0.5,0.5-0.9c0.1-0.2,0.1-0.4,0.1-0.5
		c0-0.1,0-0.3-0.1-0.4c0-0.1-0.1-0.2-0.2-0.2C116.6,720.4,116.5,720.4,116.4,720.4z"/>
	<path id="_x38__36_" class="st12" d="M118.3,724.1c0,0-0.1,0.1-0.1,0.1c0,0-0.1,0-0.1,0h-0.4l0.9-1.2l-0.5-3h0.5c0,0,0.1,0,0.1,0
		c0,0,0,0,0,0.1l0.3,2c0,0,0,0.1,0,0.1c0,0,0,0.1,0,0.1c0,0,0.1-0.1,0.1-0.1c0,0,0.1-0.1,0.1-0.1l1.4-2c0,0,0.1-0.1,0.1-0.1
		c0,0,0.1,0,0.1,0h0.4L118.3,724.1z"/>
	<path id="_x39__36_" class="st12" d="M120.9,722.8c0-0.1,0-0.1,0.1-0.2c0-0.1,0.1-0.1,0.1-0.1c0,0,0.1-0.1,0.1-0.1
		c0.1,0,0.1,0,0.2,0c0.1,0,0.1,0,0.1,0c0,0,0.1,0,0.1,0.1c0,0,0,0.1,0.1,0.1c0,0,0,0.1,0,0.2c0,0.1,0,0.1-0.1,0.2
		c0,0-0.1,0.1-0.1,0.1c0,0-0.1,0.1-0.1,0.1c-0.1,0-0.1,0-0.2,0c-0.1,0-0.1,0-0.1,0c0,0-0.1,0-0.1-0.1c0,0,0-0.1,0-0.1
		C120.9,722.9,120.9,722.9,120.9,722.8z M121.5,720.5c0-0.1,0-0.1,0.1-0.2c0,0,0.1-0.1,0.1-0.1c0,0,0.1-0.1,0.1-0.1
		c0.1,0,0.1,0,0.2,0c0.1,0,0.1,0,0.1,0c0,0,0.1,0,0.1,0.1c0,0,0,0.1,0.1,0.1c0,0,0,0.1,0,0.2c0,0.1,0,0.1-0.1,0.2
		c0,0-0.1,0.1-0.1,0.1c0,0-0.1,0.1-0.1,0.1c-0.1,0-0.1,0-0.2,0c-0.1,0-0.1,0-0.1,0c0,0-0.1,0-0.1-0.1c0,0,0-0.1,0-0.1
		C121.5,720.6,121.5,720.5,121.5,720.5z"/>
	<path class="st12" d="M128,738.3l-0.1,0.5h-2.3l-0.4,1.6h1.8l-0.1,0.5H125l-0.4,1.6h2.3l-0.1,0.5h-2.9l1.3-4.8H128z M128,740.8h1.6
		l-0.1,0.5h-1.6L128,740.8z M130.7,742.5h2.1l-0.1,0.5h-2.7l1.3-4.8h0.6L130.7,742.5z M135.4,739.6c0.2,0,0.4,0,0.5,0.1
		c0.2,0.1,0.3,0.2,0.4,0.3c0.1,0.1,0.1,0.3,0.2,0.5c0,0.2,0,0.4-0.1,0.6c0,0.1-0.1,0.2-0.1,0.2c0,0-0.1,0-0.1,0h-2.2
		c-0.1,0.2-0.1,0.4-0.1,0.6c0,0.2,0,0.3,0.1,0.4c0.1,0.1,0.2,0.2,0.3,0.2c0.1,0.1,0.3,0.1,0.4,0.1c0.1,0,0.3,0,0.4-0.1
		c0.1,0,0.2-0.1,0.3-0.1c0.1,0,0.2-0.1,0.2-0.1c0.1,0,0.1-0.1,0.1-0.1c0,0,0.1,0,0.1,0.1l0.1,0.2c-0.1,0.1-0.2,0.2-0.3,0.2
		c-0.1,0.1-0.2,0.1-0.4,0.2c-0.1,0-0.3,0.1-0.4,0.1c-0.1,0-0.3,0-0.4,0c-0.2,0-0.4,0-0.6-0.1c-0.2-0.1-0.3-0.2-0.4-0.3
		c-0.1-0.2-0.2-0.3-0.2-0.6c0-0.2,0-0.5,0.1-0.8c0.1-0.2,0.2-0.5,0.3-0.7c0.1-0.2,0.3-0.4,0.5-0.5c0.2-0.1,0.4-0.3,0.6-0.4
		C134.9,739.6,135.1,739.6,135.4,739.6z M135.3,740c-0.3,0-0.5,0.1-0.7,0.2c-0.2,0.2-0.4,0.4-0.5,0.7h1.8c0-0.1,0.1-0.3,0-0.4
		c0-0.1,0-0.2-0.1-0.3c-0.1-0.1-0.1-0.1-0.2-0.2C135.5,740.1,135.4,740,135.3,740z M139.1,743h-0.3c-0.1,0-0.1,0-0.1,0
		c0,0,0-0.1,0-0.1l0-0.3c-0.1,0.1-0.2,0.2-0.3,0.2c-0.1,0.1-0.2,0.1-0.3,0.2c-0.1,0-0.2,0.1-0.3,0.1c-0.1,0-0.2,0-0.4,0
		c-0.1,0-0.2,0-0.4-0.1c-0.1,0-0.2-0.1-0.3-0.2c-0.1-0.1-0.1-0.2-0.1-0.3c0-0.1,0-0.2,0-0.4c0-0.1,0.1-0.3,0.2-0.4
		c0.1-0.1,0.3-0.2,0.4-0.3c0.2-0.1,0.4-0.2,0.7-0.2c0.3-0.1,0.6-0.1,1-0.1l0.1-0.3c0.1-0.3,0.1-0.5,0-0.6c-0.1-0.1-0.2-0.2-0.4-0.2
		c-0.1,0-0.3,0-0.4,0.1c-0.1,0-0.2,0.1-0.3,0.1c-0.1,0-0.2,0.1-0.2,0.1c-0.1,0-0.1,0.1-0.2,0.1c0,0-0.1,0-0.1,0c0,0,0,0-0.1-0.1
		l-0.1-0.2c0.2-0.2,0.5-0.3,0.7-0.4c0.2-0.1,0.5-0.1,0.8-0.1c0.2,0,0.3,0,0.5,0.1c0.1,0.1,0.2,0.1,0.3,0.3c0.1,0.1,0.1,0.2,0.1,0.4
		c0,0.2,0,0.3-0.1,0.5L139.1,743z M137.6,742.7c0.1,0,0.2,0,0.3,0s0.2-0.1,0.3-0.1c0.1,0,0.2-0.1,0.3-0.1c0.1-0.1,0.2-0.1,0.3-0.2
		l0.2-0.7c-0.3,0-0.5,0-0.7,0.1c-0.2,0-0.4,0.1-0.5,0.1c-0.1,0.1-0.2,0.1-0.3,0.2c-0.1,0.1-0.1,0.2-0.1,0.3c0,0.1,0,0.2,0,0.2
		c0,0.1,0,0.1,0.1,0.2c0,0,0.1,0.1,0.1,0.1C137.5,742.6,137.6,742.7,137.6,742.7z M140,743l0.9-3.4h0.3c0.1,0,0.1,0,0.1,0
		c0,0,0,0.1,0,0.1l-0.1,0.6c0.2-0.2,0.4-0.4,0.6-0.6c0.2-0.1,0.4-0.2,0.6-0.2c0.1,0,0.2,0,0.2,0c0.1,0,0.1,0.1,0.2,0.1l-0.2,0.4
		c0,0.1-0.1,0.1-0.1,0.1c0,0-0.1,0-0.1,0c-0.1,0-0.1,0-0.3,0c-0.2,0-0.4,0.1-0.6,0.2c-0.2,0.1-0.3,0.3-0.5,0.5l-0.6,2.1H140z
		 M142.7,743l0.9-3.4h0.4c0.1,0,0.1,0,0.1,0.1l-0.1,0.4c0.2-0.2,0.4-0.3,0.6-0.4c0.2-0.1,0.4-0.2,0.7-0.2c0.2,0,0.3,0,0.5,0.1
		c0.1,0.1,0.2,0.1,0.3,0.3c0.1,0.1,0.1,0.2,0.1,0.4c0,0.2,0,0.3-0.1,0.5l-0.6,2.1h-0.6l0.6-2.1c0.1-0.3,0.1-0.5,0-0.6
		c-0.1-0.1-0.2-0.2-0.5-0.2c-0.2,0-0.3,0-0.5,0.1c-0.2,0.1-0.3,0.2-0.5,0.3l-0.7,2.5H142.7z M147.9,739.7L147,743h-0.6l0.9-3.4
		H147.9z M148.3,738.6c0,0.1,0,0.1-0.1,0.2c0,0-0.1,0.1-0.1,0.1c0,0-0.1,0.1-0.2,0.1c-0.1,0-0.1,0-0.2,0c-0.1,0-0.1,0-0.2,0
		c0,0-0.1-0.1-0.1-0.1c0,0,0-0.1-0.1-0.1c0,0,0-0.1,0-0.2c0-0.1,0-0.1,0.1-0.2c0-0.1,0.1-0.1,0.1-0.1c0,0,0.1-0.1,0.2-0.1
		c0.1,0,0.1,0,0.2,0c0.1,0,0.1,0,0.2,0c0,0,0.1,0.1,0.1,0.1c0,0,0,0.1,0.1,0.1C148.3,738.5,148.3,738.5,148.3,738.6z M148,743
		l0.9-3.4h0.4c0.1,0,0.1,0,0.1,0.1l-0.1,0.4c0.2-0.2,0.4-0.3,0.6-0.4c0.2-0.1,0.4-0.2,0.7-0.2c0.2,0,0.3,0,0.5,0.1
		c0.1,0.1,0.2,0.1,0.3,0.3c0.1,0.1,0.1,0.2,0.1,0.4c0,0.2,0,0.3-0.1,0.5l-0.6,2.1h-0.6l0.6-2.1c0.1-0.3,0.1-0.5,0-0.6
		c-0.1-0.1-0.2-0.2-0.5-0.2c-0.2,0-0.3,0-0.5,0.1c-0.2,0.1-0.3,0.2-0.5,0.3l-0.7,2.5H148z M153.8,739.6c0.1,0,0.3,0,0.4,0
		c0.1,0,0.2,0.1,0.3,0.1h0.9l-0.1,0.2c0,0.1-0.1,0.1-0.2,0.1l-0.4,0.1c0,0.1,0,0.3,0,0.5c0,0.2-0.1,0.3-0.2,0.4
		c-0.1,0.1-0.2,0.2-0.4,0.3c-0.1,0.1-0.3,0.2-0.5,0.2c-0.2,0-0.3,0.1-0.5,0.1c-0.2,0-0.3,0-0.4-0.1c-0.1,0-0.1,0.1-0.2,0.1
		c-0.1,0.1-0.1,0.1-0.1,0.2c0,0.1,0,0.1,0,0.2c0.1,0,0.1,0.1,0.2,0.1c0.1,0,0.2,0,0.4,0c0.1,0,0.3,0,0.4,0c0.1,0,0.3,0,0.4,0
		c0.1,0,0.2,0.1,0.3,0.1c0.1,0.1,0.2,0.1,0.2,0.2c0,0.1,0,0.2,0,0.4c0,0.1-0.1,0.3-0.2,0.4c-0.1,0.1-0.2,0.3-0.4,0.4
		c-0.2,0.1-0.3,0.2-0.6,0.3c-0.2,0.1-0.4,0.1-0.7,0.1c-0.2,0-0.5,0-0.6-0.1c-0.2,0-0.3-0.1-0.4-0.2c-0.1-0.1-0.2-0.2-0.2-0.3
		c0-0.1,0-0.2,0-0.3c0-0.2,0.1-0.3,0.3-0.4c0.1-0.1,0.3-0.2,0.5-0.3c-0.1,0-0.1-0.1-0.2-0.2c0-0.1,0-0.2,0-0.3c0,0,0-0.1,0.1-0.2
		c0-0.1,0.1-0.1,0.1-0.2c0-0.1,0.1-0.1,0.2-0.1c0.1,0,0.1-0.1,0.2-0.1c-0.1-0.1-0.2-0.2-0.3-0.4c-0.1-0.2-0.1-0.3,0-0.5
		c0-0.2,0.1-0.3,0.2-0.4c0.1-0.1,0.2-0.3,0.4-0.3c0.1-0.1,0.3-0.2,0.5-0.2C153.4,739.6,153.6,739.6,153.8,739.6z M153.9,743.2
		c0-0.1,0-0.2,0-0.2c0-0.1-0.1-0.1-0.2-0.1c-0.1,0-0.2,0-0.3-0.1c-0.1,0-0.2,0-0.3,0c-0.1,0-0.2,0-0.4,0c-0.1,0-0.2,0-0.3,0
		c-0.1,0.1-0.3,0.1-0.4,0.2c-0.1,0.1-0.2,0.2-0.2,0.3c0,0.1,0,0.1,0,0.2c0,0.1,0.1,0.1,0.1,0.2c0.1,0,0.2,0.1,0.3,0.1
		c0.1,0,0.3,0,0.4,0c0.2,0,0.3,0,0.4,0c0.1,0,0.3-0.1,0.4-0.1c0.1-0.1,0.2-0.1,0.3-0.2C153.8,743.4,153.8,743.3,153.9,743.2z
		 M153.3,741.4c0.1,0,0.2,0,0.3,0c0.1,0,0.2-0.1,0.3-0.1c0.1-0.1,0.1-0.1,0.2-0.2c0.1-0.1,0.1-0.2,0.1-0.3c0.1-0.2,0-0.4-0.1-0.5
		c-0.1-0.1-0.3-0.2-0.5-0.2c-0.2,0-0.4,0.1-0.6,0.2c-0.2,0.1-0.3,0.3-0.3,0.5c0,0.1,0,0.2,0,0.3c0,0.1,0,0.2,0.1,0.2
		c0,0.1,0.1,0.1,0.2,0.1C153.1,741.4,153.2,741.4,153.3,741.4z M161,738.3l-0.1,0.5h-1.5l-1.1,4.2h-0.6l1.1-4.2h-1.5l0.1-0.5H161z
		 M161.9,739.6c0.2,0,0.4,0,0.5,0.1c0.2,0.1,0.3,0.2,0.4,0.3c0.1,0.1,0.1,0.3,0.2,0.5c0,0.2,0,0.4-0.1,0.6c0,0.1,0,0.2-0.1,0.2
		c0,0-0.1,0-0.1,0h-2.2c-0.1,0.2-0.1,0.4-0.1,0.6c0,0.2,0,0.3,0.1,0.4c0.1,0.1,0.2,0.2,0.3,0.2c0.1,0.1,0.2,0.1,0.4,0.1
		c0.1,0,0.3,0,0.4-0.1c0.1,0,0.2-0.1,0.3-0.1c0.1,0,0.2-0.1,0.2-0.1c0.1,0,0.1-0.1,0.1-0.1c0,0,0.1,0,0.1,0.1l0.1,0.2
		c-0.1,0.1-0.2,0.2-0.3,0.2c-0.1,0.1-0.2,0.1-0.4,0.2c-0.1,0-0.3,0.1-0.4,0.1c-0.1,0-0.3,0-0.4,0c-0.2,0-0.4,0-0.6-0.1
		c-0.2-0.1-0.3-0.2-0.4-0.3c-0.1-0.2-0.2-0.3-0.2-0.6c0-0.2,0-0.5,0.1-0.8c0.1-0.2,0.2-0.5,0.3-0.7c0.1-0.2,0.3-0.4,0.5-0.5
		c0.2-0.1,0.4-0.3,0.6-0.4C161.4,739.6,161.6,739.6,161.9,739.6z M161.8,740c-0.3,0-0.5,0.1-0.7,0.2c-0.2,0.2-0.4,0.4-0.5,0.7h1.8
		c0-0.1,0-0.3,0-0.4c0-0.1,0-0.2-0.1-0.3c-0.1-0.1-0.1-0.1-0.2-0.2C162,740.1,161.9,740,161.8,740z M165.6,743h-0.3
		c-0.1,0-0.1,0-0.1,0c0,0,0-0.1,0-0.1l0-0.3c-0.1,0.1-0.2,0.2-0.3,0.2c-0.1,0.1-0.2,0.1-0.3,0.2c-0.1,0-0.2,0.1-0.3,0.1
		c-0.1,0-0.2,0-0.4,0c-0.1,0-0.2,0-0.4-0.1c-0.1,0-0.2-0.1-0.3-0.2c-0.1-0.1-0.1-0.2-0.1-0.3c0-0.1,0-0.2,0-0.4
		c0-0.1,0.1-0.3,0.2-0.4c0.1-0.1,0.3-0.2,0.4-0.3c0.2-0.1,0.4-0.2,0.7-0.2c0.3-0.1,0.6-0.1,1-0.1l0.1-0.3c0.1-0.3,0.1-0.5,0-0.6
		c-0.1-0.1-0.2-0.2-0.4-0.2c-0.1,0-0.3,0-0.4,0.1c-0.1,0-0.2,0.1-0.3,0.1c-0.1,0-0.2,0.1-0.2,0.1c-0.1,0-0.1,0.1-0.2,0.1
		c0,0-0.1,0-0.1,0c0,0,0,0-0.1-0.1l-0.1-0.2c0.2-0.2,0.5-0.3,0.7-0.4c0.2-0.1,0.5-0.1,0.7-0.1c0.2,0,0.3,0,0.5,0.1
		c0.1,0.1,0.2,0.1,0.3,0.3c0.1,0.1,0.1,0.2,0.1,0.4c0,0.2,0,0.3-0.1,0.5L165.6,743z M164.1,742.7c0.1,0,0.2,0,0.3,0
		c0.1,0,0.2-0.1,0.3-0.1c0.1,0,0.2-0.1,0.3-0.1c0.1-0.1,0.2-0.1,0.3-0.2l0.2-0.7c-0.3,0-0.5,0-0.7,0.1c-0.2,0-0.4,0.1-0.5,0.1
		c-0.1,0.1-0.2,0.1-0.3,0.2c-0.1,0.1-0.1,0.2-0.2,0.3c0,0.1,0,0.2,0,0.2c0,0.1,0,0.1,0.1,0.2c0,0,0.1,0.1,0.1,0.1
		C164,742.6,164.1,742.7,164.1,742.7z M166.5,743l0.9-3.4h0.3c0.1,0,0.1,0,0.1,0.1l0,0.3c0.2-0.2,0.3-0.3,0.5-0.4
		c0.2-0.1,0.4-0.1,0.6-0.1c0.2,0,0.4,0.1,0.5,0.2c0.1,0.1,0.2,0.3,0.2,0.5c0.1-0.1,0.2-0.2,0.3-0.3c0.1-0.1,0.2-0.2,0.3-0.2
		c0.1-0.1,0.2-0.1,0.3-0.1c0.1,0,0.2,0,0.3,0c0.2,0,0.3,0,0.5,0.1c0.1,0.1,0.2,0.1,0.3,0.2c0.1,0.1,0.1,0.2,0.1,0.4
		c0,0.2,0,0.3-0.1,0.5L171,743h-0.6l0.6-2.1c0.1-0.3,0.1-0.5,0-0.6c-0.1-0.1-0.2-0.2-0.4-0.2c-0.1,0-0.2,0-0.3,0.1
		c-0.1,0-0.2,0.1-0.3,0.2c-0.1,0.1-0.2,0.2-0.2,0.3c-0.1,0.1-0.1,0.2-0.2,0.4L169,743h-0.6l0.6-2.1c0.1-0.3,0.1-0.5,0-0.6
		c-0.1-0.1-0.2-0.2-0.4-0.2c-0.1,0-0.3,0-0.4,0.1c-0.1,0.1-0.3,0.2-0.4,0.3l-0.7,2.5H166.5z"/>
</g>
<g>
	<g>
		<linearGradient id="SVGID_9_" gradientUnits="userSpaceOnUse" x1="760.4053" y1="141.1099" x2="960.583" y2="141.1099">
			<stop  offset="0" style="stop-color:#FFFFFF;stop-opacity:0"/>
			<stop  offset="4.017906e-002" style="stop-color:#FDEBEE;stop-opacity:4.051906e-002"/>
			<stop  offset="0.1257" style="stop-color:#FAC6CE;stop-opacity:0.1267"/>
			<stop  offset="0.2187" style="stop-color:#F7A7B2;stop-opacity:0.2205"/>
			<stop  offset="0.3192" style="stop-color:#F58D9C;stop-opacity:0.3219"/>
			<stop  offset="0.4302" style="stop-color:#F3798A;stop-opacity:0.4338"/>
			<stop  offset="0.5573" style="stop-color:#F26C7E;stop-opacity:0.562"/>
			<stop  offset="0.7143" style="stop-color:#F16377;stop-opacity:0.7204"/>
			<stop  offset="0.9916" style="stop-color:#F16175"/>
		</linearGradient>
		<rect x="760.4" y="128.8" class="st15" width="200.2" height="24.7"/>
		<g>
			<g>
				<path class="st13" d="M910.8,145.7c-4.3,0-5.9-2-5.9-5.1c0-2.9,1.8-5.5,5.8-5.5c2.6,0,4.6,0.8,4.6,0.8v7.6h2.2v2.3H910.8z
					 M907.1,132.2c0-0.8,0.6-1.5,1.5-1.5c0.8,0,1.5,0.7,1.5,1.5c0,0.8-0.6,1.5-1.5,1.5C907.8,133.7,907.1,133,907.1,132.2z
					 M912.5,137.7c0,0-0.8-0.4-2.1-0.4c-1.7,0-2.6,1.3-2.6,3c0,2,1,3.1,3.3,3.1h1.4V137.7z M910.8,132.2c0-0.8,0.6-1.5,1.5-1.5
					s1.5,0.7,1.5,1.5c0,0.8-0.6,1.5-1.5,1.5S910.8,133,910.8,132.2z"/>
				<path class="st13" d="M917.1,143.4h4.1v-8.1h2.9v10.3h-7V143.4z M919,150.5c-0.8,0-1.5-0.7-1.5-1.5c0-0.8,0.6-1.5,1.5-1.5
					c0.8,0,1.5,0.7,1.5,1.5C920.5,149.8,919.8,150.5,919,150.5z M922.6,150.5c-0.8,0-1.5-0.7-1.5-1.5c0-0.8,0.6-1.5,1.5-1.5
					c0.8,0,1.5,0.7,1.5,1.5C924.1,149.8,923.5,150.5,922.6,150.5z"/>
				<path class="st13" d="M924.3,151l0.2-2.3c0.5,0.2,1.1,0.3,1.8,0.3c1.5,0,2.4-0.7,2.4-3.1v-10.6h2.9v8.1h2.2v2.3h-2.2v0.1
					c0,2.8-0.9,5.5-5.4,5.5C925.4,151.3,924.8,151.2,924.3,151z"/>
				<path class="st13" d="M933.4,143.4h0.7c1.4,0,2-0.6,2-2.8v-4h2.9v4.4c0,1.7,0.4,2.6,1.7,2.6c1.3,0,1.6-0.9,1.6-2.5v-5.3h2.8v5.2
					c0,1.8,0.5,2.4,2.4,2.4h0.8c0.1-0.9,0.2-2,0.2-2.6c0-2.2-0.3-4.2-0.6-5.9l2.8-0.4c0.4,1.8,0.7,3.9,0.7,6.1
					c0,1.6-0.1,3.6-0.3,5.1h-4.1c-1.9,0-3.1-0.4-3.6-1.6c-0.5,1.2-1.8,1.8-3.2,1.8c-1.6,0-2.8-0.7-3.1-1.8c-0.4,1.1-1.3,1.6-2.9,1.6
					h-0.7V143.4z"/>
			</g>
		</g>
		<g>
			<path class="st8" d="M735.8,147.3c0.1,0.4,0.2,0.8,0.2,1.1c0,0.9-0.6,1.7-1.9,2.2l-4.9,1.9c-1.5,0.6-2.8,1.1-2.8,2
				c0,0.1,0,0.1,0,0.2l-0.2,0.1c-0.1-0.4-0.2-0.8-0.2-1.1c0-0.9,0.5-1.7,1.9-2.3l4.9-1.9c1.7-0.7,2.8-1.1,2.8-2.2L735.8,147.3z"/>
			<path class="st8" d="M737.9,123.5h8.9v3.3h-8.9c0,5.9-1.5,10.5-5.1,14.3c-3.2,3.6-7.1,5.4-11.7,5.4c-2,0-3.9-0.4-5.9-1.2l0.3-0.6
				c1.3,0.7,2.7,1,4.2,1c8.1,0,15-7.4,15-18.9v-21.2h3.3V123.5z"/>
			<path class="st8" d="M777.7,93.3c0.3-0.2,0.7-0.3,1.1-0.3v0.2c-0.7,0.1-0.7,1.2-0.7,2.4v2c0,1.7-1.4,3.1-3.1,3.1
				c-1.9,0-3.4-1.1-3.4-2.8v-1.2c0-1.8,1.6-3.4,3.4-3.4H777.7z M775.1,94.4c-1.4,0-2.5,1-2.5,2.3v1.2c0,0.9,1,1.7,2.3,1.7
				c1,0,2.1-0.9,2.1-2.1v-2.5c0-0.2,0-0.5,0.1-0.6H775.1z"/>
			<path class="st8" d="M796.8,126.8h-50.2v-3.3h2.8c0.6-0.3,0.9-1.1,0.9-2.5c0-3.4-0.8-6.6-3.2-8.8l0.4-0.3
				c2.2,2.1,3.7,4.7,4.4,7.3c0.7-8.2,8.8-14.5,19.3-14.5h6.9c6.1,0.5,11.1,6.1,11.1,12.4v6.5h7.6V126.8z M785.9,123.5V117
				c0-3.8-1.7-6.5-5.1-8.1c-1.4-0.6-3.3-0.9-6.2-0.9h-3.4c-11.1,0-18.8,6.2-18.8,14.5v1H785.9z"/>
			<path class="st8" d="M817.9,89.9c0.1,0.4,0.2,0.8,0.2,1.1c0,0.9-0.6,1.7-1.9,2.2l-4.9,1.9c-1.5,0.6-2.8,1.1-2.8,2
				c0,0.1,0,0.1,0,0.2l-0.2,0.1c-0.1-0.4-0.2-0.8-0.2-1.1c0-0.9,0.5-1.7,1.9-2.3l4.9-1.9c1.7-0.7,2.8-1.1,2.8-2.2L817.9,89.9z"/>
			<path class="st8" d="M826.3,126.8h-29.6v-3.3h4.6c-1.7-1.7-2.5-4.1-2.5-6.3c0-5.1,4.5-9.6,9.7-9.6h6.9c3.4,0,6.8,0,7-2.2h0.5
				c0,3.4-1.9,5.4-5.8,5.4h-8.2c-4.2,0-7.1,2.7-7.1,6.4s2.8,6.2,6.7,6.3h17.9V126.8z"/>
			<path class="st8" d="M836.3,81.1c0.3-0.2,0.7-0.3,1.1-0.3v0.2c-0.7,0.1-0.7,1.2-0.7,2.4v2c0,1.7-1.4,3.1-3.1,3.1
				c-1.9,0-3.4-1.1-3.4-2.8v-1.2c0-1.8,1.6-3.4,3.4-3.4H836.3z M833.7,82.2c-1.4,0-2.5,1-2.5,2.3v1.2c0,0.9,1,1.7,2.3,1.7
				c1,0,2.1-0.9,2.1-2.1v-2.5c0-0.2,0-0.5,0.1-0.6H833.7z"/>
			<path class="st8" d="M830,88.6c3.1,0.1,5.3,1.7,5.3,6v21.6c0,4-2.5,7.9-6,9.6c-1.2,0.6-2.2,0.9-3,0.9v-3.3
				c2.4-0.2,5.8-2.8,5.8-7.3v-20c0-3.5,0-7-2.1-7.2V88.6z"/>
			<path class="st8" d="M842.7,96.7c0-5.7-0.2-7.3-2-7.5v-0.4c3.5,0.1,5.2,2.2,5.2,6.2v31.8h-3.3V96.7z"/>
			<path class="st8" d="M869.8,81.2c-1.3,2.3-3.3,3.5-5.2,3.5c-1.4,0-2.8-0.7-3.7-1.8l0.1-0.1c0.7,0.9,1.8,1.4,3,1.4
				c1.7,0,3.6-1,4.9-3.4l0.3-0.6c-0.2,0-0.4,0.1-0.6,0.1c-1.8,0-3.1-1.7-3.1-3.1c0-0.4,0.1-0.8,0.3-1.1l0.6-1c0.6-1,1.7-1.6,2.8-1.6
				c0.5,0,1,0.1,1.5,0.4l-0.4,0.9c-0.4-0.2-0.8-0.3-1.2-0.3c-0.8,0-1.5,0.4-1.9,1.1l-0.5,1c-0.1,0.2-0.2,0.4-0.2,0.6
				c0,0.8,0.8,2,2.1,2c0.5,0,0.9-0.2,1.3-0.5l1.7-3.1l-1.4-0.8l0.4-0.9L873,75c0.3,0,0.7,0.1,1,0.3l-0.1,0.1c-0.1,0-0.2,0-0.2,0
				c-0.5,0-0.9,0.9-1.4,1.7l-0.9,1.6L869.8,81.2z"/>
			<path class="st8" d="M879.3,104.5c0.8-0.5,1.9-0.7,3.1-0.8v0.5c-2.1,0.3-2.1,3.7-2.1,7.2v6c0,5.2-4.3,9.3-9.4,9.3
				c-5.4,0-10.2-3.6-10.2-8.3v-3.6c0-5.5,4.8-10.3,10.3-10.3H879.3z M871.5,107.8c-4.3,0-7.4,3.2-7.4,7v3.6c0,2.6,2.9,5.1,6.8,5.1
				c3.3,0,6.2-2.8,6.2-6.1v-7.6c0-0.9,0-1.4,0.3-2H871.5z M867.2,100.3l-2.9-2.9l2.9-2.8l2.9,2.8L867.2,100.3z M873,100.3l-2.9-2.9
				l2.9-2.8l2.9,2.8L873,100.3z"/>
			<path class="st8" d="M918.1,126.8c-3.4,0-6.6-1.6-8.3-4.5c-1,2-4.5,4.5-8,4.5h-17.1v-3.3h10.9v-13.1c0-3.7-0.2-7.2-2.2-7.5v-0.5
				c3.4,0.2,5.5,1.8,5.5,6.2v14.9h2.9c3.8,0,6.8-3.3,6.8-7.7V95.1c0-3.8-0.1-7.1-2.1-7.4v-0.5c3.3,0.1,5.4,1.8,5.4,6.1V118
				c0.3,3.3,2.8,5.2,6.2,5.5V126.8z"/>
			<path class="st8" d="M951.5,92.9c0.1,0.4,0.2,0.8,0.2,1.1c0,0.9-0.6,1.7-1.9,2.2l-4.9,1.9c-1.5,0.6-2.8,1.1-2.8,2
				c0,0.1,0,0.1,0,0.2l-0.2,0.1c-0.1-0.4-0.2-0.8-0.2-1.1c0-0.9,0.5-1.7,1.9-2.3l4.9-1.9c1.7-0.7,2.8-1.1,2.8-2.2L951.5,92.9z"/>
			<path class="st8" d="M960.6,126.8H918v-3.3h2.8c0.6-0.3,0.9-1.1,0.9-2.5c0-3.4-0.8-6.6-3.2-8.8l0.4-0.3c2.2,2.1,3.7,4.7,4.4,7.3
				c0.7-8.2,8.8-14.5,19.3-14.5h6.9c6.1,0.5,11.2,6.1,11.1,12.4V126.8z M957.3,123.5V117c0-3.8-1.7-6.5-5.1-8.1
				c-1.4-0.6-3.3-0.9-6.2-0.9h-3.4c-11.1,0-18.8,6.2-18.8,14.5v1H957.3z"/>
		</g>
	</g>
</g>
</svg>
