<?xml version="1.0" encoding="utf-8"?>
<!-- Generator: Adobe Illustrator 19.2.0, SVG Export Plug-In . SVG Version: 6.00 Build 0)  -->
<svg version="1.1" id="Layer_1" xmlns="http://www.w3.org/2000/svg" xmlns:xlink="http://www.w3.org/1999/xlink" x="0px" y="0px"
	 viewBox="0 0 1024 768" style="enable-background:new 0 0 1024 768;" xml:space="preserve">
<style type="text/css">
	.st0{fill:url(#SVGID_1_);}
	.st1{clip-path:url(#SVGID_3_);}
	.st2{fill:url(#SVGID_4_);}
	.st3{fill:#F68A1F;}
	.st4{filter:url(#Adobe_OpacityMaskFilter);}
	.st5{filter:url(#Adobe_OpacityMaskFilter_1_);}
	.st6{mask:url(#SVGID_5_);fill:url(#SVGID_6_);}
	.st7{fill:url(#SVGID_7_);}
	.st8{fill:#622872;}
	.st9{fill:url(#SVGID_8_);}
	.st10{fill:#CA4977;}
	.st11{fill-rule:evenodd;clip-rule:evenodd;fill:#F6DFB4;}
	.st12{fill:#D2D3D4;}
	.st13{fill:#FFFFFF;}
	.st14{fill:#205B6A;}
	.st15{fill:url(#SVGID_9_);}
</style>
<g>
	<g>
		<g>
			<g>
				<linearGradient id="SVGID_1_" gradientUnits="userSpaceOnUse" x1="244.9489" y1="138.1426" x2="244.9489" y2="721.1336">
					<stop  offset="0" style="stop-color:#3553A4"/>
					<stop  offset="2.188736e-002" style="stop-color:#3B57A6"/>
					<stop  offset="0.2059" style="stop-color:#6576B8"/>
					<stop  offset="0.3861" style="stop-color:#8694CA"/>
					<stop  offset="0.5587" style="stop-color:#A2B1DA"/>
					<stop  offset="0.7217" style="stop-color:#B9C7E6"/>
					<stop  offset="0.8713" style="stop-color:#C7D6EE"/>
					<stop  offset="0.9949" style="stop-color:#CCDBF0"/>
				</linearGradient>
				<path class="st0" d="M395.2,266.9h-6.1c-1.8-28.2-25.9-59.6-71.7-93.4c-35-25.9-70.5-43.7-70.9-43.9c-1-0.5-2.2-0.5-3.1,0
					c-0.3,0.2-35.9,18-70.9,43.9c-45.7,33.8-69.8,65.2-71.7,93.4h-6.1c-1.9,0-3.5,1.6-3.5,3.5v360.2h307.5V270.4
					C398.7,268.5,397.1,266.9,395.2,266.9z"/>
			</g>
		</g>
	</g>
	<g>
		<defs>
			<path id="SVGID_2_" d="M395.2,266.9h-6.1c-1.8-28.2-25.9-59.6-71.7-93.4c-35-25.9-70.5-43.7-70.9-43.9c-1-0.5-2.2-0.5-3.1,0
				c-0.3,0.2-35.9,18-70.9,43.9c-45.7,33.8-69.8,65.2-71.7,93.4h-6.1c-1.9,0-3.5,1.6-3.5,3.5v360.2h307.5V270.4
				C398.7,268.5,397.1,266.9,395.2,266.9z"/>
		</defs>
		<clipPath id="SVGID_3_">
			<use xlink:href="#SVGID_2_"  style="overflow:visible;"/>
		</clipPath>
		<g class="st1">
			
				<radialGradient id="SVGID_4_" cx="134.3254" cy="369.3249" r="54.2731" fx="123.185" fy="353.2813" gradientUnits="userSpaceOnUse">
				<stop  offset="0.1436" style="stop-color:#FBF067"/>
				<stop  offset="0.5314" style="stop-color:#FFDE00"/>
				<stop  offset="0.9166" style="stop-color:#F47D20"/>
			</radialGradient>
			<circle class="st2" cx="135.4" cy="371.9" r="48.7"/>
			<g>
				<path class="st3" d="M135.4,323.2c-26.9,0-48.7,21.8-48.7,48.7c0,26.9,21.8,48.7,48.7,48.7c26.9,0,48.7-21.8,48.7-48.7
					C184.1,345,162.3,323.2,135.4,323.2z M133.6,417.4c-25.1,0-45.5-20.4-45.5-45.5c0-25.1,20.4-45.5,45.5-45.5
					c25.1,0,45.5,20.4,45.5,45.5C179.1,397,158.8,417.4,133.6,417.4z"/>
				<path class="st3" d="M140.7,307.1c0,2.7-2,4.9-4.6,4.9l0,0c-2.5,0-4.6-2.2-4.6-4.9v-8.7c0-2.7,2-4.9,4.6-4.9l0,0
					c2.5,0,4.6,2.2,4.6,4.9V307.1z"/>
				<path class="st3" d="M140.7,440.3c0,2.7-2,4.9-4.6,4.9l0,0c-2.5,0-4.6-2.2-4.6-4.9v-8.7c0-2.7,2-4.9,4.6-4.9l0,0
					c2.5,0,4.6,2.2,4.6,4.9V440.3z"/>
				<path class="st3" d="M198.3,373.9c-2.7,0-4.9-2-4.9-4.6l0,0c0-2.5,2.2-4.6,4.9-4.6h8.7c2.7,0,4.9,2,4.9,4.6l0,0
					c0,2.5-2.2,4.6-4.9,4.6H198.3z"/>
				<path class="st3" d="M65.1,373.9c-2.7,0-4.9-2-4.9-4.6l0,0c0-2.5,2.2-4.6,4.9-4.6h8.7c2.7,0,4.9,2,4.9,4.6l0,0
					c0,2.5-2.2,4.6-4.9,4.6H65.1z"/>
				<path class="st3" d="M183.3,328.5c-1.9,1.9-4.9,2.1-6.7,0.3l0,0c-1.8-1.8-1.7-4.8,0.3-6.7l6.2-6.2c1.9-1.9,4.9-2.1,6.7-0.3l0,0
					c1.8,1.8,1.7,4.8-0.3,6.7L183.3,328.5z"/>
				<path class="st3" d="M89.1,422.7c-1.9,1.9-4.9,2.1-6.7,0.3l0,0c-1.8-1.8-1.7-4.8,0.3-6.7l6.2-6.2c1.9-1.9,4.9-2.1,6.7-0.3l0,0
					c1.8,1.8,1.7,4.8-0.3,6.7L89.1,422.7z"/>
				<path class="st3" d="M176.9,416.6c-1.9-1.9-2-4.9-0.3-6.7l0,0c1.8-1.8,4.8-1.7,6.7,0.3l6.2,6.2c1.9,1.9,2.1,4.9,0.3,6.7l0,0
					c-1.8,1.8-4.8,1.7-6.7-0.3L176.9,416.6z"/>
				<path class="st3" d="M82.7,322.4c-1.9-1.9-2-4.9-0.3-6.7l0,0c1.8-1.8,4.8-1.7,6.7,0.3l6.2,6.2c1.9,1.9,2.1,4.9,0.3,6.7l0,0
					c-1.8,1.8-4.8,1.7-6.7-0.3L82.7,322.4z"/>
			</g>
			<defs>
				<filter id="Adobe_OpacityMaskFilter" filterUnits="userSpaceOnUse" x="89.5" y="327.2" width="72.7" height="48.8">
					<feFlood  style="flood-color:white;flood-opacity:1" result="back"/>
					<feBlend  in="SourceGraphic" in2="back" mode="normal"/>
				</filter>
			</defs>
			<mask maskUnits="userSpaceOnUse" x="89.5" y="327.2" width="72.7" height="48.8" id="SVGID_5_">
				<g class="st4">
					<defs>
						<filter id="Adobe_OpacityMaskFilter_1_" filterUnits="userSpaceOnUse" x="89.5" y="327.2" width="72.7" height="48.8">
							<feFlood  style="flood-color:white;flood-opacity:1" result="back"/>
							<feBlend  in="SourceGraphic" in2="back" mode="normal"/>
						</filter>
					</defs>
					<mask maskUnits="userSpaceOnUse" x="89.5" y="327.2" width="72.7" height="48.8" id="SVGID_5_">
						<g class="st5">
						</g>
					</mask>
					
						<radialGradient id="SVGID_6_" cx="124.3654" cy="331.5909" r="50.6721" fx="141.5415" fy="305.4778" gradientUnits="userSpaceOnUse">
						<stop  offset="0.2627" style="stop-color:#FFFFFF"/>
						<stop  offset="0.7268" style="stop-color:#FFFFFF"/>
						<stop  offset="0.9716" style="stop-color:#000000"/>
					</radialGradient>
					<path class="st6" d="M104.2,337.9c9-9.2,32.2-15.4,48.6-6.2c16.4,9.2,11,26.7-15.4,25.7c-26.4-1-42.3,8.6-44.4,16.8
						C91,382.5,81.9,360.7,104.2,337.9z"/>
				</g>
			</mask>
			
				<radialGradient id="SVGID_7_" cx="124.3654" cy="331.5909" r="50.6721" fx="141.5415" fy="305.4778" gradientUnits="userSpaceOnUse">
				<stop  offset="0.2627" style="stop-color:#FFFFFF"/>
				<stop  offset="0.7268" style="stop-color:#FBF067"/>
				<stop  offset="0.9716" style="stop-color:#FFDE00"/>
			</radialGradient>
			<path class="st7" d="M104.2,337.9c9-9.2,32.2-15.4,48.6-6.2c16.4,9.2,11,26.7-15.4,25.7c-26.4-1-42.3,8.6-44.4,16.8
				C91,382.5,81.9,360.7,104.2,337.9z"/>
		</g>
	</g>
</g>
<g>
	<path class="st8" d="M734.5,213.5c0-0.8,0.7-1.5,1.5-1.5c0.8,0,1.5,0.7,1.5,1.5c0,0.8-0.7,1.5-1.5,1.5
		C735.2,215,734.5,214.4,734.5,213.5z M734.5,221c0-0.8,0.7-1.5,1.5-1.5c0.8,0,1.5,0.7,1.5,1.5c0,0.8-0.7,1.5-1.5,1.5
		C735.2,222.5,734.5,221.8,734.5,221z"/>
	<path class="st8" d="M750.6,200.9l5.7-1.1v1.2l-5.7,1.1V200.9z M750.6,203.4l5.7-1.1v1.2l-5.7,1.1V203.4z"/>
	<path class="st8" d="M758.2,221c0,0.4-0.2,1.2-1.5,1.2c-2.1,0-3.7-0.6-4.1-2.9c-1.8,2.2-4.4,3-7.2,3l-0.8-1.7l0.1-0.1
		c2.3,0,4.3-0.5,5.9-1.6c-1.3-2.5-3.4-4.6-6.1-7.1l0.7-1.9l0.2-0.1c3,2.7,5.4,6.1,6.4,8.1c0.3-0.3,0.5-0.6,0.7-1v-10.7l1.7-0.4
		l0.1,0.1v12.1c0,1.9,0.8,2.3,2.8,2.3C758,220.4,758.2,220.6,758.2,221z"/>
	<path class="st8" d="M761.2,214.2c0.7,1.7,1.2,3.3,1.2,4.3c0,1-0.4,2.2-1.2,2.9c-0.6,0.6-1.6,0.8-3.8,0.8h-0.7l0.5-1.9h0.7
		c1.2,0,2.1-0.1,2.5-0.3c0.5-1.2-0.2-2.9-1-4.7l1.5-1.2H761.2z M757.9,210.4c0.4,0,0.8,0,1.2,0c-0.3-0.4-0.5-1-0.5-1.5
		c0-1.3,0.8-2.1,2.2-2.1c0.6,0,1.2,0.1,1.8,0.4l-0.4,1.4c-0.5-0.2-0.9-0.3-1.2-0.3c-0.7,0-1,0.5-1,1c0,0.4,0.2,0.8,0.5,1.1
		c0.8,0,1.7-0.1,2.4-0.2l0.1,1.3c-1.3,0.2-3,0.3-5,0.4L757.9,210.4z"/>
	<path class="st8" d="M765.4,218.3v-12l1.7-0.4l0.1,0.1v12.1c0,1.9,0.8,2.3,2.8,2.3c0.8,0,1,0.3,1,0.6c0,0.4-0.2,1.2-1.5,1.2
		C767.3,222.2,765.4,221.4,765.4,218.3z"/>
	<path class="st8" d="M778.7,217c0,2.3-0.4,3.6-1.5,4.4c-1.3,0.7-3.1,0.8-7.6,0.8l0.5-1.9c4.6,0,6.1-0.2,6.8-0.5
		c0.1-0.3,0.1-0.8,0.2-1.5c-0.7,0.2-1.6,0.3-2.5,0.3c-2.1,0-3.1-1.1-3.1-2.8c0-2.2,1.6-4.6,3.5-4.6
		C777.3,211.3,778.7,214.1,778.7,217z M773.6,208.7l-1.9-1.4l1.2-1.8l1.9,1.3L773.6,208.7z M774.9,216.8c0.8,0,1.5-0.1,2.2-0.2
		c-0.1-1.7-1.1-3.5-2.2-3.5c-0.9,0-1.9,1.2-1.9,2.5C773,216.5,773.7,216.8,774.9,216.8z M777,208.7l-1.9-1.4l1.2-1.8l1.9,1.3
		L777,208.7z"/>
	<path class="st8" d="M791.4,236.1l5.7-1.1v1.2l-5.7,1.1V236.1z"/>
	<path class="st8" d="M799.9,231.2c-1.6,0.6-3.5,1.1-5.6,1.1c-4.5,0-7.6-2.1-7.6-5.5c0-2,1.1-3.6,3.3-5c-1.5-1.2-2.3-2.9-2.3-4.4
		c0-2.5,2-4,4.6-4c1.2,0,2.4,0.4,3.2,0.8l-0.2,1.7l-0.1,0c-0.9-0.4-1.9-0.6-2.9-0.6c-1.6,0-2.6,0.7-2.6,2.1c0,1.1,0.6,2.5,1.9,3.4
		c1.3-0.6,2.8-1.2,4.6-1.7l0.1,0l-0.1,1.9c-4.8,1.4-7.7,2.8-7.7,5.4c0,2.5,2.4,4,6.4,4c1.5,0,3.1-0.2,4.5-0.7l0.2,0.1L799.9,231.2z"
		/>
	<path class="st8" d="M810.2,221c0,0.4-0.2,1.2-1.5,1.2H807c-0.8,2.3-3,4.1-7,4.2l-1-1.4l0.1-0.2c3-0.1,5.2-1.1,6.1-2.7h-0.7
		c-3,0-4.4-1.2-4.4-3.1c0-2.2,1.6-4.7,3.5-4.7c2.2,0,3.6,2.7,3.6,5.7v0.1h1.9C810,220.4,810.2,220.6,810.2,221z M805.8,220.4v-0.1
		c0-2.1-1.1-3.8-2.2-3.8c-0.9,0-1.9,1-1.9,2.6c0,0.9,0.8,1.4,3.1,1.4H805.8z"/>
	<path class="st8" d="M818.2,209.1l-6.2,3.5c4.7,3.1,5.5,4.8,5.5,6.2c0,1.9-1.7,3.4-6.5,3.4h-2.3l0.5-1.9h1.8c2.5,0,4.5-0.5,5-1
		c0-1.9-2.5-3.6-5.6-5.7l-0.1-0.1l0.5-2.4l7.9-4.5l0.2,0.1L818.2,209.1z"/>
	<path class="st8" d="M828.7,221c0,0.4-0.2,1.2-1.4,1.2c-1,0-1.6-0.3-2-0.6c-0.7,2.2-3.3,4.2-7.2,4.9l-1-1.4l0.1-0.2
		c4.7-0.9,6.4-2.8,6.8-4.6c-0.4-1.1-1.1-2.6-1.8-4l1.4-1.5h0.2c0.6,1.7,1.2,3.1,1.4,3.7c0.6,1.6,1,1.9,2.5,1.9
		C828.6,220.4,828.7,220.6,828.7,221z"/>
	<path class="st8" d="M827.8,220.4c0.8,0,1.7,0,2.3-0.5c0.1-0.4,0.2-1,0.2-1.9v-11.7l1.7-0.4l0.2,0.1v11.9c0,3.5-1.8,4.4-4.8,4.4
		L827.8,220.4z"/>
	<path class="st8" d="M835.2,222.3v-16l1.8-0.5l0.1,0.1l0,16.1l-1.7,0.4L835.2,222.3z"/>
	<path class="st8" d="M861.5,221c0,0.4-0.2,1.2-1.5,1.2c-0.6,0-1.4-0.2-1.9-0.6c-0.5,3.4-3.3,5.1-6.9,5.1c-3.7,0-5.7-2.1-5.7-4.9
		c0-1,0.2-2.1,0.4-2.7l1.5-0.5l0.2,0.1c-0.2,0.8-0.2,1.6-0.2,2.2c0,2.4,0.9,4,4.2,4c2.7,0,3.9-1,4.6-1.8c0.8-1.8,0-3.6-1-6l1.7-1.2
		h0.1c0.3,0.8,0.7,2.3,1.2,3.2c0.5,1,1.2,1.4,2.2,1.4C861.2,220.4,861.5,220.6,861.5,221z M851.8,214.7l-2-1.4l1.2-1.8l2,1.3
		L851.8,214.7z"/>
	<path class="st8" d="M871,219.9c0,1.6-0.8,2.6-2.4,2.6c-1.2,0-3.1-0.6-4.8-1.8c-0.9,1.2-2,1.5-3.6,1.5l0.5-1.9
		c1.1,0,1.6-0.5,2.2-1.5c0.8-1.5,2-4.3,4.3-4.3S871,217.2,871,219.9z M866.9,216.4c-0.9,0-1.4,1.1-2.4,2.9c1.4,0.9,2.8,1.4,3.5,1.4
		c0.4,0,0.8-0.1,1-0.3C869.3,219.2,868.2,216.4,866.9,216.4z"/>
	<path class="st8" d="M879.1,221.7c0-1,0.2-2.1,0.4-2.7l1.5-0.5l0.2,0.1c-0.2,0.8-0.2,1.6-0.2,2.2c0,2.4,0.9,4,4.2,4
		c2,0,3.4-0.5,4.4-1.7c0.3-0.6,0.6-1.8,0.6-3.7v-13.1l1.7-0.4l0.2,0.1l0,13.2c0,5.4-2.5,7.5-7.2,7.5
		C881.1,226.7,879.1,224.6,879.1,221.7z"/>
	<path class="st8" d="M906.1,221c0,0.4-0.2,1.2-1.5,1.2c-1.1,0-1.9-0.3-2.5-1.3c-0.9,0.9-2.6,1.4-4.9,1.4c-0.5,0-1.9-0.1-2.8-0.3
		l0.3-1.8l0.1-0.1c0.8,0.2,2.1,0.2,2.6,0.2c1.5,0,3.1-0.3,3.9-0.9l-0.1-0.1c-0.4-0.8-2.2-4.3-3.2-6l1.4-1.5h0.2
		c0.7,1.5,2.4,5.4,2.8,6c0.9,1.9,1.4,2.3,2.7,2.3C905.9,220.4,906.1,220.6,906.1,221z"/>
	<path class="st8" d="M914.2,221c0,0.4-0.2,1.2-1.4,1.2c-1.5,0-2.9-0.3-3.9-1.2c-0.8,0.8-1.8,1.2-3.3,1.2h-0.8l0.5-1.9h0.7
		c0.7,0,1.4-0.1,1.8-0.5c0.3-0.5,0.7-1.6,1.2-3.6l1.8-0.5l0.2,0.1c-0.3,1.5-0.7,2.7-1.1,3.7c0.6,0.3,1.5,0.7,3.4,0.7
		C914.1,220.4,914.2,220.6,914.2,221z M908.6,213.1l-1.9-1.4l1.2-1.8l1.9,1.3L908.6,213.1z M911.9,213.1l-1.9-1.4l1.2-1.8l1.9,1.3
		L911.9,213.1z"/>
	<path class="st8" d="M924.1,219.9l-0.6,1.7c-1.9,0.4-4.7,0.6-10.8,0.6l0.5-1.9c0.9,0,1.8,0,2.7,0c-0.6-0.9-1-2-1-3.1
		c0-2.5,2-4,4.6-4c1.2,0,2.4,0.4,3.2,0.8l-0.2,1.7l-0.1,0c-0.9-0.4-1.9-0.6-2.9-0.6c-1.6,0-2.6,0.8-2.6,2.1c0,0.9,0.5,2.1,1.4,3
		c2.1-0.1,3.9-0.2,5.6-0.4L924.1,219.9z"/>
	<path class="st8" d="M930,204c-1.2,0.1-2.7,0.3-4.6,0.3l-0.1-1.3c0.3,0,0.7,0,1.1,0c-0.3-0.4-0.4-0.9-0.4-1.4c0-1.2,0.7-1.9,2-1.9
		c0.5,0,1.1,0.1,1.7,0.3l-0.3,1.2c-0.5-0.1-0.8-0.2-1.1-0.2c-0.6,0-0.9,0.4-0.9,0.9c0,0.4,0.2,0.7,0.5,1c0.8,0,1.5-0.1,2.2-0.2
		L930,204z M928.6,205.8l0.1,0.1l0,16.1l-1.7,0.4l-0.1-0.1v-16L928.6,205.8z"/>
</g>
<linearGradient id="SVGID_8_" gradientUnits="userSpaceOnUse" x1="505.2237" y1="354.5948" x2="1023.7637" y2="354.5948">
	<stop  offset="0.1199" style="stop-color:#FFFFFF"/>
	<stop  offset="0.9969" style="stop-color:#FFF2D5"/>
</linearGradient>
<rect x="505.2" y="285.6" class="st9" width="518.5" height="138"/>
<g>
	<g>
		<path class="st10" d="M648.7,332.3c0-1.5,1.3-2.8,2.9-2.8c1.5,0,2.9,1.3,2.9,2.8c0,1.6-1.4,2.9-2.9,2.9
			C650.1,335.2,648.7,333.9,648.7,332.3z"/>
		<path class="st10" d="M656.2,332.3c0-1.5,1.3-2.8,2.9-2.8c1.5,0,2.9,1.3,2.9,2.8c0,1.6-1.4,2.9-2.9,2.9
			C657.5,335.2,656.2,333.9,656.2,332.3z"/>
		<path class="st10" d="M676.5,328.9c0,3.7-2.5,6.1-6.4,6.1c-3.8,0-6-1.8-6-5.1c0-1.8,0.8-3.9,3.5-7.2c-0.3-0.3-0.7-0.5-1-0.8
			l2.2-3.7l0.4-0.3C674.5,322.6,676.5,325.8,676.5,328.9z M672.6,328.7c0-1.1-0.9-2.4-2.4-3.9c-1.6,1.5-2.2,2.8-2.2,3.9
			c0,1.1,0.9,1.8,2.3,1.8C671.7,330.5,672.6,329.8,672.6,328.7z"/>
		<path class="st10" d="M698.1,331.7c0,1.7-0.6,3.1-2.4,3.1c-2.3,0-3.8-0.4-4.8-1.7c-1.7,1.3-4.4,2-7.5,2c-0.9,0-2.9-0.1-4.2-0.4
			l0.6-4.4l0.3-0.1c1.2,0.2,2.8,0.3,3.7,0.3c1.7,0,3.8-0.2,5.2-0.8c-0.8-1.5-2.7-5.3-4.2-8.1l3.2-3.7h0.4c0.9,2.2,3.3,7.8,3.8,9
			c1.3,3,2,3.4,4.4,3.4C697.7,330.2,698.1,330.9,698.1,331.7z"/>
		<path class="st10" d="M717.2,331.7c0,1.8-0.8,3.1-2.5,3.1c-1.5,0-2.7-0.4-3.7-1.3c-0.7,1.1-1.7,1.7-3.1,1.7c-1.5,0-4-0.8-6.4-2.5
			c-1.4,1.8-3.3,2-6,2l1-4.5c1.6,0,2.1-0.3,2.9-1.7c2-3.4,3.7-6.6,6.7-6.6c2.7,0,4,2.4,5.5,5.4c1.2,2.3,1.8,2.9,4,2.9
			C716.8,330.2,717.2,330.8,717.2,331.7z M709,330.3l-0.1-0.2c-1.1-2.6-2.1-3.9-2.8-3.9c-0.8,0-1.7,1.3-2.6,3.1
			c1.4,0.9,2.8,1.6,3.9,1.6C708.2,331,708.6,330.7,709,330.3z"/>
		<path class="st10" d="M735.8,325.8l-1.2,4.3c-2.5,0.3-5.9,1.1-9.6,2.4c-5,1.7-7.5,2.2-10.2,2.2l1-4.5c2.8,0,4.8-0.2,9.4-1.4
			c1.5-0.4,2.7-0.7,3.7-1c-0.5-0.2-1.1-0.5-1.7-0.8c-2.8-1.5-4.4-2-5.9-2c-1.6,0-2.9,0.3-4.1,0.7l-0.2-0.2l1.6-4
			c0.8-0.4,2.1-0.8,3.3-0.8c1.6,0,3.1,0.6,6.7,2.4C732.4,325.2,734.1,325.7,735.8,325.8z"/>
		<path class="st10" d="M770.7,331.7c0,1.7-0.5,3.1-2.4,3.1c-0.9,0-1.7-0.3-2.3-0.6c-1.3,5-5.5,7.3-11,7.3c-5.6,0-8.7-3-8.7-7.5
			c0-1.7,0.4-3.4,0.7-4.4l3.2-1.2l0.4,0.1c-0.2,1.3-0.3,2.4-0.3,3.4c0,3,1.3,5.1,5.6,5.1c3.2,0,5.3-1.2,6.2-2.5
			c0.4-2.2-0.7-4.9-2.1-7.8l3.9-2.8h0.2c0.3,0.8,1.3,3.9,1.7,4.8c0.5,1.2,1.5,1.6,3.3,1.6C770.3,330.2,770.7,330.9,770.7,331.7z
			 M756,323.3l-3.9-2.7l2.4-3.5l3.8,2.7L756,323.3z"/>
		<path class="st10" d="M789.9,331.7c0,1.8-0.8,3.1-2.5,3.1c-1.5,0-2.7-0.4-3.7-1.3c-0.7,1.1-1.7,1.7-3.1,1.7c-1.5,0-4-0.8-6.4-2.5
			c-1.4,1.8-3.3,2-6,2l1-4.5c1.6,0,2.1-0.3,2.9-1.7c2-3.4,3.7-6.6,6.7-6.6c2.7,0,4,2.4,5.5,5.4c1.2,2.3,1.8,2.9,4,2.9
			C789.4,330.2,789.9,330.8,789.9,331.7z M781.6,330.3l-0.1-0.2c-1.1-2.6-2.1-3.9-2.8-3.9c-0.8,0-1.7,1.3-2.6,3.1
			c1.4,0.9,2.8,1.6,3.9,1.6C780.8,331,781.2,330.7,781.6,330.3z"/>
		<path class="st10" d="M788.4,330.2c1,0,2.2-0.1,2.9-0.5c0.1-0.6,0.3-1.4,0.3-2.7v-16.2l4.2-1.1l0.3,0.2v16.9
			c0,6.3-3.2,7.8-8.6,7.8L788.4,330.2z"/>
		<path class="st10" d="M841.4,309.8l0.3,0.2v16.9c0,6-3,7.7-7.9,7.8h-0.3c0,0-0.1,0-0.1,0h-0.3c-1.3-0.1-3-0.5-4.1-2.1
			c-1.2,1.5-2.9,2-6.1,2.1h-0.2c0,0-0.1,0-0.1,0h-0.2c-2.4-0.1-4.3-0.8-5.4-2.4c-1.2,0.4-2.2,0.6-3.3,0.6c-4,0-6.4-1.9-6.4-4.6
			c0-3,3-6.3,8.6-8.2v-1.7l4.2-1.6l0.3,0.1v10.8c0,1.8,0.6,2.4,3.2,2.5c1,0,2-0.1,2.7-0.5c0.1-0.6,0.3-1.4,0.3-2.7v-12.3l4.2-1.1
			l0.3,0.2v13.1c0,2.7,0.8,3.1,3.3,3.2c1,0,2-0.1,2.7-0.5c0.1-0.6,0.3-1.4,0.3-2.7v-16.2L841.4,309.8z M815.8,328.4v-0.7v-3.4
			c-2.5,0.6-4.5,1.7-5,2.8c0.4,1,1.9,1.5,3.2,1.5C814.7,328.6,815.2,328.5,815.8,328.4z M823.2,308.4c0-0.5,0.1-1.5,0.3-2.1l2.4-0.1
			c-0.1,0.6-0.1,1.2-0.1,1.5c0,0.9,0.3,1.3,0.9,1.3c0.7,0,1-0.5,1-2.6l2.3-0.2c0,0.7,0,1.2,0,1.5c0,0.9,0.4,1.2,1,1.2
			c0.7,0,0.9-0.5,0.9-1.3c0-0.7-0.2-1.4-0.4-2.1l2.5-0.6c0.3,0.9,0.5,1.8,0.5,2.8c0,2.1-1.1,3.7-3.5,3.7c-0.9,0-1.7-0.4-2.1-0.9
			c-0.5,0.6-1.4,0.9-2.4,0.9C824,311.6,823.2,310.1,823.2,308.4z M830.3,304.2h-3.2v-4.6h3.2V304.2z M850.5,310l-0.1,24.1l-4.1,0.9
			l-0.3-0.2v-23.9l4.2-1.1L850.5,310z"/>
		<path class="st10" d="M866.2,340.7c0,3.1,3.1,4.6,8.2,4.6c2.2,0,5.4-0.4,7.2-0.9l0.3,0.2l-1.3,3.9c-1.9,0.7-4.5,1.2-7.5,1.2
			c-6.9,0-11.3-2.9-11.3-8.4c0-4.7,3.8-8.4,7.6-11.6c-1.5-1.7-3.1-3.2-5-4.1l-0.2-0.4l1.4-4c2-1,4.6-1.5,7.2-1.5
			c2.7,0,5.4,0.6,7.6,1.8l0.1,0.4l-1,3.8c-1.5,1.3-3,2.5-4.4,3.6c2.1,0.6,4.6,0.8,7.5,0.8c1.1,0,1.4,0.6,1.4,1.4
			c0,1.7-0.6,3.1-2.4,3.1c-4.9,0-7.5-0.9-9.7-2.5C868.3,335.5,866.2,338,866.2,340.7z M872.2,327.6c1.3-1.1,2.6-2.1,3.5-3.1
			c-1.2-0.4-2.3-0.5-3.4-0.5c-1.3,0-2.4,0.2-3.5,0.5C869.9,325.2,871,326.3,872.2,327.6z"/>
		<path class="st10" d="M903.3,331.7c0,1.8-0.8,3.1-2.5,3.1c-1.5,0-2.7-0.4-3.7-1.3c-0.7,1.1-1.7,1.7-3.1,1.7c-1.5,0-4-0.8-6.4-2.5
			c-1.4,1.8-3.3,2-6,2l1-4.5c1.6,0,2.1-0.3,2.9-1.7c2-3.4,3.7-6.6,6.7-6.6c2.7,0,4,2.4,5.5,5.4c1.2,2.3,1.8,2.9,4,2.9
			C902.9,330.2,903.3,330.8,903.3,331.7z M895.1,330.3l-0.1-0.2c-1.1-2.6-2.1-3.9-2.8-3.9c-0.8,0-1.7,1.3-2.6,3.1
			c1.4,0.9,2.8,1.6,3.9,1.6C894.2,331,894.7,330.7,895.1,330.3z"/>
		<path class="st10" d="M929.1,328.4c0,4.3-3.3,6.4-7.8,6.4c-2,0-3.5-0.4-4.8-1c-0.9,0.6-2,1-3.4,1c-2.3,0-4.3-0.8-5.5-1.5
			c-1.4,1.1-3.5,1.5-6.7,1.5l1-4.5c2.3,0,3.3-0.1,4-0.4c0.3-0.6,0.6-2.5,0.9-4l4.9-0.8l0.1,0.1c-0.6,1.8-1.1,3.3-1.6,4.5
			c1,0.3,2.4,0.6,3.6,0.6c0.6,0,1-0.1,1.3-0.3c0.3-0.4,0.7-2.4,1.1-4.1l4.5-0.8l0.1,0.1c-0.5,1.8-1,3.4-1.6,4.7
			c0.9,0.3,1.8,0.4,2.7,0.4c1.3,0,2.5-0.1,3.2-0.5c0.2-1.4-0.9-4-1.8-6l3.9-2.9l0.2,0C928.4,323.5,929.1,326.2,929.1,328.4z"/>
		<path class="st10" d="M751.2,389.7c0,1.7-0.6,3.1-2.4,3.1c-2.3,0-3.8-0.4-4.8-1.7c-1.7,1.3-4.4,2-7.5,2c-0.9,0-2.9-0.1-4.2-0.4
			l0.6-4.4l0.3-0.1c1.2,0.2,2.8,0.3,3.7,0.3c1.7,0,3.8-0.2,5.2-0.8c-0.8-1.5-2.7-5.3-4.2-8.1l3.2-3.7h0.4c0.9,2.2,3.3,7.8,3.8,9
			c1.3,3,2,3.4,4.4,3.4C750.8,388.2,751.2,388.9,751.2,389.7z"/>
		<path class="st10" d="M770.3,389.7c0,1.8-0.8,3.1-2.5,3.1c-1.5,0-2.7-0.4-3.7-1.3c-0.7,1.1-1.7,1.7-3.1,1.7c-1.5,0-4-0.8-6.4-2.5
			c-1.4,1.8-3.3,2-6,2l1-4.5c1.6,0,2.1-0.3,2.9-1.7c2-3.4,3.7-6.6,6.7-6.6c2.7,0,4,2.4,5.5,5.4c1.2,2.3,1.8,2.9,4,2.9
			C769.9,388.2,770.3,388.8,770.3,389.7z M762.1,388.3l-0.1-0.2c-1.1-2.6-2.1-3.9-2.8-3.9c-0.8,0-1.7,1.3-2.6,3.1
			c1.4,0.9,2.8,1.6,3.9,1.6C761.3,389,761.7,388.7,762.1,388.3z"/>
		<path class="st10" d="M793.1,389.7c0,1.7-0.5,3.1-2.4,3.1c-5.8,0-7.9-1.4-9.3-4l-1.3,0.6c-5,2.5-8.2,3.3-12.2,3.3l1-4.5
			c3.6,0,5.7-0.4,9.9-1.9c1.2-0.4,2.1-0.7,2.8-1c-0.4-0.1-0.8-0.3-1.2-0.5c-2.9-1.3-4.5-1.8-6-1.8c-1.6,0-2.9,0.3-4.1,0.7l-0.2-0.1
			l1.6-4c0.8-0.4,2.1-0.8,3.3-0.8c1.2,0,2.7,0.4,5.5,1.7c3.8,1.7,6.1,2.3,8.6,2.3l-0.8,4c-1,0-1.9,0.1-3.1,0.5
			c1.2,0.7,3,0.9,6.5,0.9C792.7,388.2,793.1,388.9,793.1,389.7z"/>
		<path class="st10" d="M791.6,388.2c1,0,2.2-0.1,2.9-0.5c0.1-0.6,0.3-1.4,0.3-2.7v-16.2l4.2-1.1l0.3,0.2v16.9
			c0,6.3-3.2,7.8-8.6,7.8L791.6,388.2z"/>
		<path class="st10" d="M803.6,392.8v-23.9l4.2-1.1l0.4,0.2l-0.1,24.1l-4.1,0.9L803.6,392.8z"/>
		<path class="st10" d="M851.2,389.7c0,1.7-0.6,3.1-2.4,3.1c-1.9,0-3.6-0.6-4.7-2c-1.7,1.7-4.6,2.4-9.8,2.4h-2.2
			c-8,0-12.3-2.3-12.3-6.7c0-1.5,0.2-2.9,0.6-4.4l3.2-1.2l0.4,0.2c-0.2,1.1-0.3,2.1-0.3,3c0,3.7,2.9,4.7,9.9,4.7h2
			c2.8,0,5.2-0.5,5.9-0.9c0.1-0.6,0.3-1.4,0.3-2.7v-16.2l4.1-1.1l0.4,0.2v16.1c0,3.1,0.6,4.1,3.5,4.1
			C850.9,388.2,851.2,388.9,851.2,389.7z M829.7,380.1c0.5,0,1.1,0,1.7,0c-0.5-0.7-0.8-1.5-0.8-2.3c0-1.8,1.2-3.1,3.2-3.1
			c0.8,0,1.7,0.2,2.7,0.6l-0.6,2.3c-0.6-0.2-1.2-0.3-1.6-0.3c-0.8,0-1.3,0.3-1.3,1.1c0,0.6,0.3,1.2,0.8,1.6c1.1-0.1,2.2-0.1,3.1-0.3
			l0.2,2.4c-1.8,0.2-4.2,0.4-7.1,0.5L829.7,380.1z"/>
		<path class="st10" d="M849.8,388.2c1,0,2.2-0.1,2.9-0.5c0.1-0.6,0.3-1.4,0.3-2.7v-16.2l4.2-1.1l0.3,0.2v16.9
			c0,6.3-3.2,7.8-8.6,7.8L849.8,388.2z"/>
		<path class="st10" d="M873.5,389.1c0,4.9-3.8,9.9-11.9,10l-2.2-3.4l0.3-0.4c5-0.1,8.3-1.4,9.6-3.9c-0.9,0.1-1.8,0.2-2.9,0.2
			c-3.3,0-4.9-1.7-4.9-4.3c0-3.3,2.6-7.4,6-7.4C871.2,380,873.5,384.2,873.5,389.1z M867.3,387.8c0.9,0,1.7-0.1,2.5-0.2
			c-0.3-1.8-1.3-3.4-2.7-3.4c-1.3,0-2.2,1.4-2.2,2.5C864.9,387.5,865.6,387.8,867.3,387.8z"/>
		<path class="st10" d="M885.7,385.4v-16.5l4.1-1.1l0.4,0.2v17.1c0,2.4,1,3.2,3.6,3.2c1,0,1.4,0.5,1.4,1.4c0,1.8-0.7,3.1-2.4,3.1
			C888.1,392.7,885.7,390.6,885.7,385.4z"/>
		<path class="st10" d="M907.3,389.7c0,1.7-0.6,3.1-2.4,3.1s-4.2-0.6-5.6-1.7c-1.4,1.1-3.2,1.7-5.8,1.7h-0.7l1-4.5h0.6
			c1.4,0,2.4-0.1,2.8-0.5c0.4-0.9,0.8-2.7,1.2-5l4.6-1.1l0.4,0.3c-0.5,2.2-1,4.1-1.7,5.7c1,0.4,2.4,0.7,4.1,0.7
			C906.9,388.2,907.3,388.9,907.3,389.7z M901.3,378.6l-3.9-2.7l2.4-3.5l3.8,2.7L901.3,378.6z"/>
		<path class="st10" d="M905.8,388.2h0.4c1.3,0,2.9-0.1,3.5-0.3c0.2-1.4-0.9-3.8-2.1-6.2l3.6-2.9h0.4c1.2,2.6,2,5.7,2,7.4
			c0,1.9-0.6,3.5-1.9,4.8c-1.2,1.2-2.8,1.6-6.4,1.6h-0.4L905.8,388.2z M907,398.9l2.4-3.5l3.8,2.6l-2.4,3.6L907,398.9z"/>
		<path class="st10" d="M917.8,395.6l0.3-0.4c4.5-1.4,7.7-3.5,7.7-4.6c-0.1-1.2-1.3-4-2.6-6.2l3.2-3.6h0.4c1.6,3,2.4,6.4,2.4,8.6
			c0,1.8-0.6,3.5-1.3,4.6c-1.3,1.9-3.9,3.9-7.9,4.9L917.8,395.6z"/>
	</g>
</g>
<path class="st11" d="M1023.8,42.8h-11.1v-6.6c0-1.7-1.1-3-2.6-3.5c1.4-1.1,2.3-2.9,2.3-4.8c0-3.4-2.8-6.2-6.2-6.2
	c-1,0-1.9,0.2-2.8,0.7c0.4-1.1,0.5-2.2,0.5-3.4c0-6.2-5-11.2-11.2-11.2c-6.2,0-11.2,5-11.2,11.2c0,1.2,0.2,2.4,0.5,3.4
	c-0.8-0.4-1.8-0.7-2.8-0.7c-3.4,0-6.2,2.8-6.2,6.2c0,1.9,0.9,3.6,2.3,4.8c-1.5,0.4-2.6,1.8-2.6,3.5v6.6h-10h-10v-6.6
	c0-1.7-1.1-3-2.6-3.5c1.4-1.1,2.3-2.9,2.3-4.8c0-3.4-2.8-6.2-6.2-6.2c-1,0-1.9,0.2-2.8,0.7c0.4-1.1,0.5-2.2,0.5-3.4
	c0-6.2-5-11.2-11.2-11.2c-6.2,0-11.2,5-11.2,11.2c0,1.2,0.2,2.4,0.5,3.4c-0.8-0.4-1.8-0.7-2.8-0.7c-3.4,0-6.2,2.8-6.2,6.2
	c0,1.9,0.9,3.6,2.3,4.8c-1.5,0.4-2.6,1.8-2.6,3.5v6.6h-10h-10v-6.6c0-1.7-1.1-3-2.6-3.5c1.4-1.1,2.3-2.9,2.3-4.8
	c0-3.4-2.8-6.2-6.2-6.2c-1,0-1.9,0.2-2.8,0.7c0.4-1.1,0.5-2.2,0.5-3.4c0-6.2-5-11.2-11.2-11.2c-6.2,0-11.2,5-11.2,11.2
	c0,1.2,0.2,2.4,0.5,3.4c-0.8-0.4-1.8-0.7-2.8-0.7c-3.4,0-6.2,2.8-6.2,6.2c0,1.9,0.9,3.6,2.3,4.8c-1.5,0.4-2.6,1.8-2.6,3.5v6.6h-10
	h-10v-6.6c0-1.7-1.1-3-2.6-3.5c1.4-1.1,2.3-2.9,2.3-4.8c0-3.4-2.8-6.2-6.2-6.2c-1,0-1.9,0.2-2.8,0.7c0.4-1.1,0.5-2.2,0.5-3.4
	c0-6.2-5-11.2-11.2-11.2c-6.2,0-11.2,5-11.2,11.2c0,1.2,0.2,2.4,0.5,3.4c-0.8-0.4-1.8-0.7-2.8-0.7c-3.4,0-6.2,2.8-6.2,6.2
	c0,1.9,0.9,3.6,2.3,4.8c-1.5,0.4-2.6,1.8-2.6,3.5v6.6h-10h-10v-6.6c0-1.7-1.1-3-2.6-3.5c1.4-1.1,2.3-2.9,2.3-4.8
	c0-3.4-2.8-6.2-6.2-6.2c-1,0-1.9,0.2-2.8,0.7c0.4-1.1,0.5-2.2,0.5-3.4c0-6.2-5-11.2-11.2-11.2c-6.2,0-11.2,5-11.2,11.2
	c0,1.2,0.2,2.4,0.5,3.4c-0.8-0.4-1.8-0.7-2.8-0.7c-3.4,0-6.2,2.8-6.2,6.2c0,1.9,0.9,3.6,2.3,4.8c-1.5,0.4-2.6,1.8-2.6,3.5v6.6h-10
	h-10v-6.6c0-1.7-1.1-3-2.6-3.5c1.4-1.1,2.3-2.9,2.3-4.8c0-3.4-2.8-6.2-6.2-6.2c-1,0-1.9,0.2-2.8,0.7c0.4-1.1,0.5-2.2,0.5-3.4
	c0-6.2-5-11.2-11.2-11.2c-6.2,0-11.2,5-11.2,11.2c0,1.2,0.2,2.4,0.5,3.4c-0.8-0.4-1.8-0.7-2.8-0.7c-3.4,0-6.2,2.8-6.2,6.2
	c0,1.9,0.9,3.6,2.3,4.8c-1.5,0.4-2.6,1.8-2.6,3.5v6.6h-10h-10v-6.6c0-1.7-1.1-3-2.6-3.5c1.4-1.1,2.3-2.9,2.3-4.8
	c0-3.4-2.8-6.2-6.2-6.2c-1,0-1.9,0.2-2.8,0.7c0.4-1.1,0.5-2.2,0.5-3.4c0-6.2-5-11.2-11.2-11.2c-6.2,0-11.2,5-11.2,11.2
	c0,1.2,0.2,2.4,0.5,3.4c-0.8-0.4-1.8-0.7-2.8-0.7c-3.4,0-6.2,2.8-6.2,6.2c0,1.9,0.9,3.6,2.3,4.8c-1.5,0.4-2.6,1.8-2.6,3.5v6.6h-10
	h-10v-6.6c0-1.7-1.1-3-2.6-3.5c1.4-1.1,2.3-2.9,2.3-4.8c0-3.4-2.8-6.2-6.2-6.2c-1,0-1.9,0.2-2.8,0.7c0.4-1.1,0.5-2.2,0.5-3.4
	c0-6.2-5-11.2-11.2-11.2c-6.2,0-11.2,5-11.2,11.2c0,1.2,0.2,2.4,0.5,3.4c-0.8-0.4-1.8-0.7-2.8-0.7c-3.4,0-6.2,2.8-6.2,6.2
	c0,1.9,0.9,3.6,2.3,4.8c-1.5,0.4-2.6,1.8-2.6,3.5v6.6h-10h-10v-6.6c0-1.7-1.1-3-2.6-3.5c1.4-1.1,2.3-2.9,2.3-4.8
	c0-3.4-2.8-6.2-6.2-6.2c-1,0-1.9,0.2-2.8,0.7c0.4-1.1,0.5-2.2,0.5-3.4c0-6.2-5-11.2-11.2-11.2c-6.2,0-11.2,5-11.2,11.2
	c0,1.2,0.2,2.4,0.5,3.4c-0.8-0.4-1.8-0.7-2.8-0.7c-3.4,0-6.2,2.8-6.2,6.2c0,1.9,0.9,3.6,2.3,4.8c-1.5,0.4-2.6,1.8-2.6,3.5v6.6h-10
	h-10v-6.6c0-1.7-1.1-3-2.6-3.5c1.4-1.1,2.3-2.9,2.3-4.8c0-3.4-2.8-6.2-6.2-6.2c-1,0-1.9,0.2-2.8,0.7c0.4-1.1,0.5-2.2,0.5-3.4
	c0-6.2-5-11.2-11.2-11.2c-6.2,0-11.2,5-11.2,11.2c0,1.2,0.2,2.4,0.5,3.4c-0.8-0.4-1.8-0.7-2.8-0.7c-3.4,0-6.2,2.8-6.2,6.2
	c0,1.9,0.9,3.6,2.3,4.8c-1.5,0.4-2.6,1.8-2.6,3.5v6.6h-10h-10v-6.6c0-1.7-1.1-3-2.6-3.5c1.4-1.1,2.3-2.9,2.3-4.8
	c0-3.4-2.8-6.2-6.2-6.2c-1,0-1.9,0.2-2.8,0.7c0.4-1.1,0.5-2.2,0.5-3.4c0-6.2-5-11.2-11.2-11.2c-6.2,0-11.2,5-11.2,11.2
	c0,1.2,0.2,2.4,0.5,3.4c-0.8-0.4-1.8-0.7-2.8-0.7c-3.4,0-6.2,2.8-6.2,6.2c0,1.9,0.9,3.6,2.3,4.8c-1.5,0.4-2.6,1.8-2.6,3.5v6.6h-10
	h-10v-6.6c0-1.7-1.1-3-2.6-3.5c1.4-1.1,2.3-2.9,2.3-4.8c0-3.4-2.8-6.2-6.2-6.2c-1,0-1.9,0.2-2.8,0.7c0.4-1.1,0.5-2.2,0.5-3.4
	c0-6.2-5-11.2-11.2-11.2c-6.2,0-11.2,5-11.2,11.2c0,1.2,0.2,2.4,0.5,3.4c-0.8-0.4-1.8-0.7-2.8-0.7c-3.4,0-6.2,2.8-6.2,6.2
	c0,1.9,0.9,3.6,2.3,4.8c-1.5,0.4-2.6,1.8-2.6,3.5v6.6h-10h-10v-6.6c0-1.7-1.1-3-2.6-3.5c1.4-1.1,2.3-2.9,2.3-4.8
	c0-3.4-2.8-6.2-6.2-6.2c-1,0-1.9,0.2-2.8,0.7c0.4-1.1,0.5-2.2,0.5-3.4c0-6.2-5-11.2-11.2-11.2c-6.2,0-11.2,5-11.2,11.2
	c0,1.2,0.2,2.4,0.5,3.4c-0.8-0.4-1.8-0.7-2.8-0.7c-3.4,0-6.2,2.8-6.2,6.2c0,1.9,0.9,3.6,2.3,4.8c-1.5,0.4-2.6,1.8-2.6,3.5v6.6h-10
	h-10v-6.6c0-1.7-1.1-3-2.6-3.5c1.4-1.1,2.3-2.9,2.3-4.8c0-3.4-2.8-6.2-6.2-6.2c-1,0-1.9,0.2-2.8,0.7c0.4-1.1,0.5-2.2,0.5-3.4
	c0-6.2-5-11.2-11.2-11.2c-6.2,0-11.2,5-11.2,11.2c0,1.2,0.2,2.4,0.5,3.4c-0.8-0.4-1.8-0.7-2.8-0.7c-3.4,0-6.2,2.8-6.2,6.2
	c0,1.9,0.9,3.6,2.3,4.8c-1.5,0.4-2.6,1.8-2.6,3.5v6.6h-10h-10v-6.6c0-1.7-1.1-3-2.6-3.5c1.4-1.1,2.3-2.9,2.3-4.8
	c0-3.4-2.8-6.2-6.2-6.2c-1,0-1.9,0.2-2.8,0.7c0.4-1.1,0.5-2.2,0.5-3.4c0-6.2-5-11.2-11.2-11.2c-6.2,0-11.2,5-11.2,11.2
	c0,1.2,0.2,2.4,0.5,3.4c-0.8-0.4-1.8-0.7-2.8-0.7c-3.4,0-6.2,2.8-6.2,6.2c0,1.9,0.9,3.6,2.3,4.8c-1.5,0.4-2.6,1.8-2.6,3.5v6.6h-10
	h-10v-6.6c0-1.7-1.1-3-2.6-3.5c1.4-1.1,2.3-2.9,2.3-4.8c0-3.4-2.8-6.2-6.2-6.2c-1,0-1.9,0.2-2.8,0.7c0.4-1.1,0.5-2.2,0.5-3.4
	c0-6.2-5-11.2-11.2-11.2c-6.2,0-11.2,5-11.2,11.2c0,1.2,0.2,2.4,0.5,3.4c-0.8-0.4-1.8-0.7-2.8-0.7c-3.4,0-6.2,2.8-6.2,6.2
	c0,1.9,0.9,3.6,2.3,4.8c-1.5,0.4-2.6,1.8-2.6,3.5v6.6h-10h-10v-6.6c0-1.7-1.1-3-2.6-3.5c1.4-1.1,2.3-2.9,2.3-4.8
	c0-3.4-2.8-6.2-6.2-6.2c-1,0-1.9,0.2-2.8,0.7c0.4-1.1,0.5-2.2,0.5-3.4c0-6.2-5-11.2-11.2-11.2c-6.2,0-11.2,5-11.2,11.2
	c0,1.2,0.2,2.4,0.5,3.4c-0.8-0.4-1.8-0.7-2.8-0.7c-3.4,0-6.2,2.8-6.2,6.2c0,1.9,0.9,3.6,2.3,4.8c-1.5,0.4-2.6,1.8-2.6,3.5v6.6H-0.2
	V-1h1024V42.8z"/>
<g id="Layer_x0020_1_23_">
	<path class="st12" d="M34.6,718.2l43.9-1.7c0.3,0,0.6,0,1,0c0.7,0.1,1.3,0.4,1.8,0.9c0.5,0.5,0.9,1,0.9,1.7c0,0.2,0,0.5,0,0.8
		l-4.6,20.6c-0.2,0.9-0.6,1.7-1.3,2.2c-0.6,0.5-1.4,0.9-2.4,0.9l-35.3-1.2c-1,0-1.7-0.3-2.4-0.9l0,0c-0.6-0.6-1.1-1.4-1.3-2.2
		l-4.1-17.7c0-0.1,0-0.1,0-0.2c-0.1-0.8,0.3-1.5,0.9-2.1c0.6-0.5,1.4-0.8,2.3-1C34.4,718.2,34.5,718.2,34.6,718.2z M76.6,719.3
		l-42,1.5c-0.1,0-0.2,0-0.3,0c-0.6,0.1-1.1,0.3-1.5,0.7c-0.3,0.3-0.6,0.7-0.5,1.1c0,0,0,0.1,0,0.1l3.8,16.5c0.1,0.6,0.4,1.2,0.9,1.6
		c0.4,0.3,0.8,0.5,1.4,0.5l34,1.2c0.6,0,1-0.2,1.4-0.5c0.4-0.4,0.7-0.9,0.9-1.6l4.3-19.3c0-0.1,0-0.3,0-0.4c0-0.3-0.2-0.7-0.5-0.9
		c-0.3-0.3-0.7-0.5-1.1-0.5C77,719.3,76.8,719.3,76.6,719.3z"/>
	<path class="st12" d="M41.7,722.9l12.9-1.4c0.1,0,0.3,0,0.4,0c0.3,0.1,0.6,0.2,0.8,0.4c0.2,0.2,0.4,0.5,0.4,0.8c0,0.1,0,0.2,0,0.3
		l-2.1,9.6c-0.1,0.4-0.3,0.8-0.6,1c-0.3,0.3-0.6,0.4-1.1,0.4h-8.9c-0.4,0-0.8-0.2-1.1-0.4h0c-0.3-0.3-0.5-0.6-0.6-1l-1.9-8.2
		c0,0,0-0.1,0-0.1c-0.1-0.4,0.1-0.7,0.4-1c0.3-0.2,0.7-0.4,1-0.5C41.5,722.9,41.6,722.9,41.7,722.9z M53.7,722.8l-12,1.3
		c0,0-0.1,0-0.1,0c-0.3,0-0.5,0.2-0.7,0.3c-0.2,0.1-0.3,0.3-0.2,0.5c0,0,0,0,0,0l1.8,7.6c0.1,0.3,0.2,0.5,0.4,0.7
		c0.2,0.1,0.4,0.2,0.6,0.2h8.3c0.3,0,0.5-0.1,0.6-0.2c0.2-0.2,0.3-0.4,0.4-0.7l2-8.9c0-0.1,0-0.1,0-0.2c0-0.2-0.1-0.3-0.2-0.4
		c-0.1-0.1-0.3-0.2-0.5-0.2C53.8,722.8,53.7,722.8,53.7,722.8z"/>
	<g id="_1849662416_23_">
		<path class="st13" d="M60.1,735.1l0.4-0.7l-0.7-0.4l0.4-0.7l-1.5-0.8l-0.9,1.5l0,0c0.3,0.1,0.5,0.3,0.7,0.4l-0.4,0.7l0.7,0.4
			l-0.8,1.5l0.7,0.4c-0.2,0.5-0.6,1.1-0.9,1.5l0,0c0.2,0.1,0.4,0.2,0.5,0.3c0.3,0.1,0.2,0.1,0,0.5c-0.2,0.4-0.4,0.8-0.7,1.1l0.7,0.4
			c0,0.2-0.7,1.2-0.8,1.5l5.9,3.4l0.9-1.5l0.8,0.4l1.3-2.2l0.7,0.4l3-5.2c-0.1-0.1-0.7-0.4-0.7-0.5c0-0.2,0.4-0.6,0.4-0.7
			c-0.1-0.1-0.5-0.4-0.7-0.4l-1.3,2.2l-0.7-0.4l1.7-3l-1.5-0.9l-1.3,2.2l-0.7-0.4l1.7-2.9c-0.1-0.1-1.3-0.8-1.5-0.9l-1.7,3l-0.7-0.4
			c0-0.1,0.1-0.1,0.1-0.2c1.2-2.1,2.5-4.3,3.7-6.5l-1.5-0.8l-4.7,8.1C60.6,735.4,60.2,735.1,60.1,735.1L60.1,735.1z"/>
		<path class="st14" d="M58,738.8c-0.1,0.1-0.1,0.2-0.2,0.3l-0.7,1.1c0.1,0.1,0.2,0.1,0.4,0.2c0.1,0.1,0.2,0.1,0.3,0.2
			c-0.4,0.8-0.8,1.5-1.2,2.2c0.6,0.4,1.2,0.7,1.8,1.1l3.7,2.2c0.6,0.4,1.3,0.7,1.9,1.1c0.1-0.2,0.1-0.3,0.3-0.5
			c0.1-0.2,0.4-0.6,0.5-0.9c0.1-0.1,0.1-0.1,0.2-0.3c0.1-0.2,0.2-0.4,0.3-0.6c0.1,0.2,0.5,0.3,0.7,0.4c0.4-0.7,0.8-1.4,1.3-2.2
			c0.2,0.1,0.4,0.2,0.6,0.3c0.1,0.1,0.1,0.1,0.2,0c0.2-0.3,0.3-0.6,0.5-0.9c0.3-0.6,0.7-1.1,1-1.7l1.4-2.5c-0.2-0.1-0.6-0.3-0.7-0.4
			l-3,5.2l-0.7-0.4l-1.3,2.2l-0.8-0.4l-0.9,1.5l-5.9-3.4c0.1-0.3,0.8-1.3,0.8-1.5l-0.7-0.4c0.2-0.4,0.4-0.8,0.7-1.1
			c0.2-0.4,0.2-0.3,0-0.5C58.3,739,58.2,738.9,58,738.8z"/>
		<path class="st14" d="M60.2,733.2l-0.4,0.7l0.7,0.4l-0.4,0.7l0.7,0.4l4.7-8.1l-0.7-0.4c0,0,0,0,0,0l0,0c0,0,0,0,0,0l-3.8,6.6
			C60.7,733.4,60.5,733.3,60.2,733.2z"/>
		<path class="st14" d="M67.1,728.2l-3.9,6.6l0.7,0.4l1.7-3c0.2,0,1.4,0.8,1.5,0.9c0.2,0.2,1.6,0.9,1.9,1.1c0,0,0.1,0-0.1-0.1
			l-1.5-0.8c-0.4-0.2-0.3-0.1,0.1-0.9l-1.1-0.6c-0.1-0.1-0.2-0.1-0.3-0.2l1.7-2.9c-0.2-0.1-0.3-0.2-0.6-0.4
			C67.2,728.3,67.2,728.3,67.1,728.2z"/>
		<path class="st14" d="M68.9,735.2l0.4-0.7c-0.1-0.1-0.2-0.2-0.4-0.2c-0.3-0.2-1.7-0.9-1.9-1.1l-1.7,2.9l0.7,0.4l1.3-2.2
			L68.9,735.2z"/>
		<path class="st14" d="M57.9,733.8c-0.1,0.1-0.1,0.1-0.2,0.3c-0.1,0.1-0.1,0.3-0.2,0.4l0.7,0.4c-0.1,0.2-0.7,1.3-0.8,1.5l0.7,0.4
			l-0.6,1.1c-0.1,0.2-0.1,0.2-0.2,0.4l0.7,0.4c0.3-0.4,0.7-1,0.9-1.5l-0.7-0.4l0.8-1.5l-0.7-0.4l0.4-0.7
			C58.4,734.1,58.2,733.9,57.9,733.8z"/>
		<path class="st14" d="M57.9,733.8l0.9-1.5l1.5,0.8l0.2-0.4c0.1-0.1,0.1-0.2,0.2-0.4l-2-1.1c-0.3-0.2-0.2-0.2-0.5,0.2l-0.9,1.6
			c-0.1,0.2-0.2,0.2,0,0.3C57.4,733.5,57.8,733.8,57.9,733.8z"/>
		<path class="st14" d="M70,736.8c0.1,0,0,0,0.1-0.1c0,0,0.1-0.1,0.1-0.1c0-0.2,0.2-0.4,0.3-0.6l-1.5-0.8l-1.7,3l0.7,0.4l1.3-2.2
			C69.4,736.5,69.8,736.7,70,736.8z"/>
		<path class="st14" d="M67.1,728.2c0.1-0.2,0.3-0.5,0.4-0.7l-1.5-0.8l-0.4,0.7L67.1,728.2z"/>
		<path class="st14" d="M70,736.8c0,0.2-0.4,0.6-0.4,0.7c0,0.1,0.6,0.4,0.7,0.5c0.2,0.1,0.5,0.3,0.7,0.4l-1.4,2.5l1.5-2.5l-0.7-0.4
			c0.1-0.1,0.1-0.2,0.2-0.4c0.1-0.1,0.2-0.3,0.2-0.4c-0.8-0.5-0.8-0.3-0.6-0.6c0,0-0.1,0.1-0.1,0.1C70,736.9,70.1,736.8,70,736.8z"
			/>
	</g>
	<path class="st12" d="M94.7,735h-2.5l2.1-7.2L90,735h-2.6l-0.5-7.3l-1.8,7.3h-2.6l2.9-10.9H89l0.5,7.7l4.6-7.7h3.5L94.7,735z
		 M104.1,735h-5.6c-0.8,0-1.3-0.2-1.7-0.6c-0.4-0.4-0.4-1-0.2-1.8c0.3-0.9,0.7-1.6,1.3-2c0.6-0.4,1.5-0.6,2.6-0.6h2.5
		c0.1-0.4,0.1-0.7-0.1-0.8c-0.2-0.2-0.6-0.2-1.3-0.2h-3.6l0.5-2h4.3c1.1,0,1.9,0.3,2.3,0.8c0.4,0.5,0.5,1.3,0.2,2.3L104.1,735z
		 M102.2,733.1l0.3-1.2h-2.2c-0.4,0-0.7,0-0.9,0.1c-0.2,0.1-0.3,0.3-0.3,0.5c-0.1,0.2-0.1,0.3,0,0.4c0,0,0.1,0.1,0.2,0.1
		c0.1,0,0.3,0,0.5,0H102.2z M112.9,735h-2.4l1.3-4.9c0.1-0.5,0.2-0.8,0-1c-0.1-0.1-0.4-0.2-0.9-0.2h-1.4l-1.6,6.1h-2.4l2.2-8.1h4
		c1.2,0,2,0.2,2.4,0.7c0.4,0.5,0.5,1.2,0.2,2.3L112.9,735z M121.7,735h-2.4l1.3-4.9c0.1-0.5,0.1-0.8,0-0.9c-0.1-0.1-0.2-0.1-0.3-0.2
		c-0.1,0-0.3-0.1-0.6-0.1l-1.4,0l-1.6,6.1h-2.4l2.9-10.9h2.4l-0.8,2.8h1.6c1.2,0,2,0.2,2.4,0.7c0.4,0.5,0.5,1.2,0.2,2.3L121.7,735z
		 M130.9,735h-5.6c-0.8,0-1.3-0.2-1.7-0.6c-0.4-0.4-0.4-1-0.2-1.8c0.3-0.9,0.7-1.6,1.3-2c0.6-0.4,1.5-0.6,2.6-0.6h2.5
		c0.1-0.4,0.1-0.7-0.1-0.8c-0.2-0.2-0.6-0.2-1.3-0.2h-3.6l0.5-2h4.3c1.1,0,1.9,0.3,2.3,0.8c0.4,0.5,0.5,1.3,0.2,2.3L130.9,735z
		 M129,733.1l0.3-1.2h-2.2c-0.4,0-0.7,0-0.9,0.1c-0.2,0.1-0.3,0.3-0.3,0.5c-0.1,0.2,0,0.3,0,0.4c0,0,0.1,0.1,0.2,0.1
		c0.1,0,0.3,0,0.5,0H129z M134.8,735h-2.5l2.9-10.9h2.5L134.8,735z M140.4,735h-2.1l0.6-2.2h2.1L140.4,735z M148.2,735h-2.9
		c-0.4,0-0.7,0-1-0.1c-0.3,0-0.5-0.1-0.8-0.2c-0.4-0.1-0.8-0.4-1-0.8c-0.1-0.2-0.2-0.4-0.3-0.6c-0.1-0.2-0.2-0.5-0.2-0.7
		c0-0.3,0-0.5,0-0.8c0-0.3,0.1-0.6,0.2-0.9c0.2-0.6,0.4-1.2,0.8-1.7c0.3-0.5,0.7-1,1.3-1.4c0.4-0.3,0.9-0.6,1.4-0.7
		c0.5-0.2,1.1-0.2,1.9-0.2h2.9l-0.5,2h-2.3c-0.5,0-0.9,0-1.2,0.1c-0.3,0.1-0.6,0.2-0.8,0.4c-0.4,0.3-0.7,0.8-0.9,1.6
		c-0.1,0.4-0.1,0.8-0.1,1.1c0.1,0.3,0.1,0.6,0.4,0.7l0.4,0.2c0.1,0,0.3,0,0.4,0c0.1,0,0.4,0,0.6,0h2.3L148.2,735z M158.3,731
		c-0.3,1.3-1,2.3-2,3.1c-1,0.8-2.1,1.1-3.4,1.1c-1.3,0-2.2-0.4-2.8-1.1c-0.6-0.8-0.7-1.8-0.3-3.1c0.3-1.3,1-2.3,2-3
		c1-0.8,2.1-1.1,3.4-1.1c1.3,0,2.2,0.4,2.8,1.1C158.5,728.7,158.6,729.7,158.3,731z M155.8,731c0.2-0.7,0.1-1.2-0.1-1.6
		c-0.2-0.4-0.6-0.6-1.1-0.6c-0.5,0-1,0.2-1.4,0.6c-0.4,0.4-0.7,0.9-0.9,1.6c-0.1,0.4-0.1,0.7-0.1,0.9c0,0.3,0.1,0.5,0.2,0.7
		c0.2,0.4,0.6,0.6,1.1,0.6c0.6,0,1-0.2,1.4-0.6C155.3,732.2,155.6,731.7,155.8,731z M169.4,735H167l1.3-4.9c0.1-0.5,0.2-0.8,0.1-1
		c-0.1-0.2-0.4-0.2-0.9-0.2l-0.9,0l-1.6,6.1h-2.4l1.6-6.1h-2l-1.6,6.1H158l2.2-8.1h8c1.2,0,2,0.2,2.4,0.7c0.4,0.5,0.5,1.2,0.2,2.3
		L169.4,735z"/>
	<path class="st12" d="M27.6,727l21.2-2.2c0.2,0,0.5,0,0.7,0c0.5,0.1,1,0.3,1.4,0.7c0.4,0.3,0.6,0.8,0.7,1.3c0,0.2,0,0.4,0,0.6
		l-3.7,9.6c-0.1,0.7-0.5,1.3-1,1.7c-0.5,0.4-1.1,0.7-1.8,0.7H30.6c-0.7,0-1.3-0.3-1.8-0.7h0c-0.5-0.4-0.8-1.1-1-1.7l-2.9-7.4
		c0-0.1,0-0.1,0-0.2c-0.1-0.6,0.2-1.2,0.7-1.6c0.5-0.4,1.1-0.6,1.7-0.8C27.4,727,27.5,727,27.6,727z M47.4,726.8l-19.8,2.1
		c-0.1,0-0.2,0-0.2,0c-0.4,0.1-0.9,0.3-1.2,0.5c-0.3,0.2-0.4,0.5-0.4,0.8c0,0,0,0.1,0,0.1l2.7,6.5c0.1,0.5,0.3,0.9,0.7,1.2
		c0.3,0.2,0.6,0.4,1,0.4h13.6c0.4,0,0.8-0.1,1-0.4c0.3-0.3,0.5-0.7,0.7-1.2l3.4-8.6c0-0.1,0-0.2,0-0.3c0-0.3-0.2-0.5-0.4-0.7
		c-0.2-0.2-0.5-0.4-0.8-0.4C47.6,726.8,47.5,726.8,47.4,726.8z"/>
	<path class="st12" d="M87.3,720.7l-0.5,1.7h-0.6l1.2-4.5h1.3c0.3,0,0.5,0,0.7,0.1c0.2,0.1,0.3,0.2,0.4,0.3c0.1,0.1,0.2,0.3,0.2,0.4
		c0,0.2,0,0.4-0.1,0.6c-0.1,0.2-0.1,0.4-0.3,0.6c-0.1,0.2-0.3,0.3-0.4,0.4c-0.2,0.1-0.4,0.2-0.6,0.3c-0.2,0.1-0.5,0.1-0.7,0.1H87.3z
		 M87.4,720.2h0.7c0.2,0,0.3,0,0.5-0.1c0.1,0,0.3-0.1,0.4-0.2c0.1-0.1,0.2-0.2,0.3-0.3c0.1-0.1,0.1-0.2,0.2-0.4
		c0.1-0.3,0.1-0.5-0.1-0.7c-0.1-0.2-0.4-0.2-0.7-0.2h-0.7L87.4,720.2z"/>
	<path id="_x31__23_" class="st12" d="M92,719.1c0.2,0,0.4,0,0.6,0.1c0.2,0.1,0.3,0.2,0.4,0.3c0.1,0.1,0.1,0.3,0.2,0.5
		c0,0.2,0,0.4-0.1,0.7c-0.1,0.3-0.2,0.5-0.3,0.7c-0.1,0.2-0.3,0.4-0.4,0.5c-0.2,0.1-0.4,0.3-0.6,0.3c-0.2,0.1-0.4,0.1-0.7,0.1
		c-0.2,0-0.4,0-0.6-0.1c-0.2-0.1-0.3-0.2-0.4-0.3c-0.1-0.1-0.1-0.3-0.2-0.5c0-0.2,0-0.4,0.1-0.7c0.1-0.3,0.2-0.5,0.3-0.7
		c0.1-0.2,0.3-0.4,0.4-0.5c0.2-0.1,0.4-0.3,0.6-0.3C91.6,719.2,91.8,719.1,92,719.1z M91.2,722c0.3,0,0.6-0.1,0.8-0.3
		c0.2-0.2,0.4-0.5,0.5-0.9c0.1-0.4,0.1-0.7,0-0.9c-0.1-0.2-0.3-0.3-0.6-0.3c-0.2,0-0.3,0-0.4,0.1c-0.1,0.1-0.3,0.1-0.4,0.2
		c-0.1,0.1-0.2,0.2-0.3,0.4c-0.1,0.1-0.1,0.3-0.2,0.5c0,0.2-0.1,0.4-0.1,0.5c0,0.1,0,0.3,0.1,0.4c0.1,0.1,0.1,0.2,0.2,0.2
		C91,721.9,91.1,722,91.2,722z"/>
	<path id="_x32__23_" class="st12" d="M93.8,719.2h0.4c0,0,0.1,0,0.1,0c0,0,0,0,0,0.1l0.1,2c0,0.1,0,0.1,0,0.2c0,0.1,0,0.1,0,0.2
		c0-0.1,0.1-0.1,0.1-0.2c0-0.1,0.1-0.1,0.1-0.2l1.2-2.1c0,0,0-0.1,0.1-0.1c0,0,0.1,0,0.1,0h0.2c0,0,0.1,0,0.1,0c0,0,0,0,0,0.1
		l0.1,2.1c0,0.1,0,0.1,0,0.2c0,0.1,0,0.1,0,0.2c0-0.1,0.1-0.1,0.1-0.2c0-0.1,0.1-0.1,0.1-0.2l1.2-2c0,0,0-0.1,0.1-0.1
		c0,0,0.1,0,0.1,0h0.4l-1.9,3.2h-0.4c-0.1,0-0.1,0-0.1-0.1l-0.1-2.2c0,0,0-0.1,0-0.1c0-0.1,0-0.1,0-0.1c0,0,0,0.1-0.1,0.1
		c0,0,0,0.1-0.1,0.1l-1.3,2.2c0,0.1-0.1,0.1-0.2,0.1H94L93.8,719.2z"/>
	<path id="_x33__23_" class="st12" d="M100.3,719.1c0.2,0,0.4,0,0.5,0.1c0.1,0.1,0.3,0.2,0.3,0.3c0.1,0.1,0.1,0.3,0.2,0.4
		c0,0.2,0,0.4-0.1,0.6c0,0.1,0,0.1-0.1,0.2c0,0-0.1,0-0.1,0h-2.1c-0.1,0.2-0.1,0.4-0.1,0.5c0,0.1,0,0.3,0.1,0.4
		c0.1,0.1,0.1,0.2,0.3,0.2c0.1,0,0.2,0.1,0.4,0.1c0.1,0,0.3,0,0.4,0c0.1,0,0.2-0.1,0.3-0.1c0.1,0,0.2-0.1,0.2-0.1
		c0.1,0,0.1-0.1,0.1-0.1c0,0,0.1,0,0.1,0.1l0.1,0.2c-0.1,0.1-0.2,0.2-0.3,0.2c-0.1,0.1-0.2,0.1-0.3,0.2c-0.1,0-0.2,0.1-0.4,0.1
		c-0.1,0-0.2,0-0.4,0c-0.2,0-0.4,0-0.6-0.1c-0.2-0.1-0.3-0.2-0.4-0.3c-0.1-0.1-0.2-0.3-0.2-0.5c0-0.2,0-0.5,0.1-0.7
		c0.1-0.2,0.1-0.4,0.3-0.6c0.1-0.2,0.3-0.4,0.4-0.5c0.2-0.1,0.4-0.3,0.6-0.3C99.8,719.2,100,719.1,100.3,719.1z M100.2,719.5
		c-0.3,0-0.5,0.1-0.7,0.2c-0.2,0.2-0.4,0.4-0.5,0.6h1.7c0-0.1,0.1-0.3,0-0.4c0-0.1,0-0.2-0.1-0.3c0-0.1-0.1-0.1-0.2-0.2
		C100.4,719.6,100.3,719.5,100.2,719.5z"/>
	<path id="_x34__23_" class="st12" d="M101.4,722.3l0.9-3.2h0.3c0.1,0,0.1,0,0.1,0c0,0,0,0.1,0,0.1l-0.1,0.5
		c0.2-0.2,0.4-0.4,0.5-0.5c0.2-0.1,0.4-0.2,0.6-0.2c0.1,0,0.2,0,0.2,0c0.1,0,0.1,0,0.2,0.1l-0.2,0.4c0,0.1-0.1,0.1-0.1,0.1
		c0,0-0.1,0-0.1,0c-0.1,0-0.1,0-0.2,0c-0.2,0-0.4,0.1-0.5,0.2c-0.2,0.1-0.3,0.3-0.5,0.5l-0.5,2H101.4z"/>
	<path id="_x35__23_" class="st12" d="M106.1,719.1c0.2,0,0.4,0,0.5,0.1c0.1,0.1,0.3,0.2,0.3,0.3c0.1,0.1,0.1,0.3,0.2,0.4
		c0,0.2,0,0.4-0.1,0.6c0,0.1,0,0.1-0.1,0.2c0,0-0.1,0-0.1,0h-2.1c-0.1,0.2-0.1,0.4-0.1,0.5c0,0.1,0,0.3,0.1,0.4
		c0.1,0.1,0.1,0.2,0.3,0.2c0.1,0,0.2,0.1,0.4,0.1c0.1,0,0.3,0,0.4,0c0.1,0,0.2-0.1,0.3-0.1c0.1,0,0.2-0.1,0.2-0.1
		c0.1,0,0.1-0.1,0.1-0.1c0,0,0.1,0,0.1,0.1l0.1,0.2c-0.1,0.1-0.2,0.2-0.3,0.2c-0.1,0.1-0.2,0.1-0.3,0.2c-0.1,0-0.2,0.1-0.4,0.1
		c-0.1,0-0.2,0-0.4,0c-0.2,0-0.4,0-0.6-0.1c-0.2-0.1-0.3-0.2-0.4-0.3c-0.1-0.1-0.2-0.3-0.2-0.5c0-0.2,0-0.5,0.1-0.7
		c0.1-0.2,0.2-0.4,0.3-0.6c0.1-0.2,0.3-0.4,0.4-0.5c0.2-0.1,0.4-0.3,0.6-0.3C105.6,719.2,105.9,719.1,106.1,719.1z M106,719.5
		c-0.3,0-0.5,0.1-0.7,0.2c-0.2,0.2-0.4,0.4-0.5,0.6h1.7c0-0.1,0-0.3,0-0.4c0-0.1,0-0.2-0.1-0.3c0-0.1-0.1-0.1-0.2-0.2
		C106.2,719.6,106.1,719.5,106,719.5z"/>
	<path id="_x36__23_" class="st12" d="M109.5,722.3c-0.1,0-0.1,0-0.1-0.1l0.1-0.4c-0.2,0.2-0.4,0.3-0.6,0.4
		c-0.2,0.1-0.4,0.1-0.6,0.1c-0.2,0-0.3,0-0.5-0.1c-0.1-0.1-0.2-0.2-0.3-0.3c-0.1-0.1-0.1-0.3-0.1-0.5c0-0.2,0-0.4,0.1-0.7
		c0.1-0.2,0.2-0.5,0.3-0.7c0.1-0.2,0.3-0.4,0.4-0.5c0.2-0.2,0.3-0.3,0.5-0.4c0.2-0.1,0.4-0.1,0.6-0.1c0.2,0,0.4,0,0.5,0.1
		c0.1,0.1,0.2,0.2,0.3,0.3l0.5-1.8h0.6l-1.2,4.6H109.5z M108.5,721.9c0.2,0,0.4,0,0.5-0.1c0.2-0.1,0.3-0.2,0.5-0.4l0.4-1.5
		c-0.1-0.1-0.2-0.2-0.3-0.3c-0.1-0.1-0.2-0.1-0.4-0.1c-0.3,0-0.6,0.1-0.8,0.3c-0.2,0.2-0.4,0.5-0.5,0.9c-0.1,0.2-0.1,0.4-0.1,0.5
		c0,0.1,0,0.3,0.1,0.4c0,0.1,0.1,0.2,0.2,0.2C108.3,721.9,108.4,721.9,108.5,721.9z"/>
	<path id="_x37__23_" class="st12" d="M112,722.3l1.2-4.6h0.6l-0.5,1.9c0.2-0.2,0.4-0.3,0.6-0.4c0.2-0.1,0.4-0.1,0.6-0.1
		c0.2,0,0.3,0,0.5,0.1c0.1,0.1,0.2,0.2,0.3,0.3c0.1,0.1,0.1,0.3,0.1,0.5c0,0.2,0,0.4-0.1,0.7c-0.1,0.2-0.2,0.5-0.3,0.7
		c-0.1,0.2-0.3,0.4-0.4,0.5c-0.2,0.1-0.3,0.3-0.5,0.3c-0.2,0.1-0.4,0.1-0.6,0.1c-0.2,0-0.4,0-0.5-0.1c-0.1-0.1-0.2-0.2-0.3-0.3
		l-0.1,0.3c0,0.1-0.1,0.1-0.2,0.1H112z M114.2,719.6c-0.2,0-0.4,0-0.5,0.1c-0.2,0.1-0.3,0.2-0.5,0.4l-0.4,1.5
		c0.1,0.1,0.1,0.2,0.3,0.3c0.1,0.1,0.2,0.1,0.4,0.1c0.3,0,0.6-0.1,0.8-0.3c0.2-0.2,0.4-0.5,0.5-0.9c0.1-0.2,0.1-0.4,0.1-0.5
		c0-0.1,0-0.3-0.1-0.4c0-0.1-0.1-0.2-0.2-0.2C114.4,719.6,114.3,719.6,114.2,719.6z"/>
	<path id="_x38__23_" class="st12" d="M116.1,723.3c0,0-0.1,0.1-0.1,0.1c0,0-0.1,0-0.1,0h-0.4l0.9-1.2l-0.5-3h0.5c0,0,0.1,0,0.1,0
		c0,0,0,0,0,0.1l0.3,2c0,0,0,0.1,0,0.1c0,0,0,0.1,0,0.1c0,0,0.1-0.1,0.1-0.1c0,0,0.1-0.1,0.1-0.1l1.4-2c0,0,0.1-0.1,0.1-0.1
		c0,0,0.1,0,0.1,0h0.4L116.1,723.3z"/>
	<path id="_x39__23_" class="st12" d="M118.6,722c0-0.1,0-0.1,0.1-0.2c0-0.1,0.1-0.1,0.1-0.1c0,0,0.1-0.1,0.1-0.1c0.1,0,0.1,0,0.2,0
		c0.1,0,0.1,0,0.1,0c0,0,0.1,0,0.1,0.1c0,0,0,0.1,0.1,0.1c0,0,0,0.1,0,0.2c0,0.1,0,0.1-0.1,0.2c0,0-0.1,0.1-0.1,0.1
		c0,0-0.1,0.1-0.1,0.1c-0.1,0-0.1,0-0.2,0c-0.1,0-0.1,0-0.1,0c0,0-0.1,0-0.1-0.1c0,0,0-0.1,0-0.1C118.6,722.1,118.6,722.1,118.6,722
		z M119.3,719.7c0-0.1,0-0.1,0.1-0.2c0,0,0.1-0.1,0.1-0.1c0,0,0.1-0.1,0.1-0.1c0.1,0,0.1,0,0.2,0c0.1,0,0.1,0,0.1,0
		c0,0,0.1,0,0.1,0.1c0,0,0,0.1,0.1,0.1c0,0,0,0.1,0,0.2c0,0.1,0,0.1-0.1,0.2c0,0-0.1,0.1-0.1,0.1c0,0-0.1,0.1-0.1,0.1
		c-0.1,0-0.1,0-0.2,0c-0.1,0-0.1,0-0.1,0c0,0-0.1,0-0.1-0.1c0,0,0-0.1,0-0.1C119.3,719.8,119.3,719.7,119.3,719.7z"/>
	<path class="st12" d="M125.7,737.4l-0.1,0.5h-2.3l-0.4,1.6h1.8l-0.1,0.5h-1.8l-0.4,1.6h2.3l-0.1,0.5h-2.9l1.3-4.8H125.7z
		 M125.7,739.9h1.6l-0.1,0.5h-1.6L125.7,739.9z M128.5,741.6h2.1l-0.1,0.5h-2.7l1.3-4.8h0.6L128.5,741.6z M133.1,738.8
		c0.2,0,0.4,0,0.5,0.1c0.2,0.1,0.3,0.2,0.4,0.3c0.1,0.1,0.1,0.3,0.2,0.5c0,0.2,0,0.4-0.1,0.6c0,0.1-0.1,0.2-0.1,0.2c0,0-0.1,0-0.1,0
		h-2.2c-0.1,0.2-0.1,0.4-0.1,0.6c0,0.2,0,0.3,0.1,0.4c0.1,0.1,0.2,0.2,0.3,0.2c0.1,0.1,0.3,0.1,0.4,0.1c0.1,0,0.3,0,0.4-0.1
		c0.1,0,0.2-0.1,0.3-0.1c0.1,0,0.2-0.1,0.2-0.1c0.1,0,0.1-0.1,0.1-0.1c0,0,0.1,0,0.1,0.1l0.1,0.2c-0.1,0.1-0.2,0.2-0.3,0.2
		c-0.1,0.1-0.2,0.1-0.4,0.2c-0.1,0-0.3,0.1-0.4,0.1c-0.1,0-0.3,0-0.4,0c-0.2,0-0.4,0-0.6-0.1c-0.2-0.1-0.3-0.2-0.4-0.3
		c-0.1-0.2-0.2-0.3-0.2-0.6c0-0.2,0-0.5,0.1-0.8c0.1-0.2,0.2-0.5,0.3-0.7c0.1-0.2,0.3-0.4,0.5-0.5c0.2-0.1,0.4-0.3,0.6-0.4
		C132.7,738.8,132.9,738.8,133.1,738.8z M133,739.2c-0.3,0-0.5,0.1-0.7,0.2c-0.2,0.2-0.4,0.4-0.5,0.7h1.8c0-0.1,0.1-0.3,0-0.4
		c0-0.1,0-0.2-0.1-0.3c-0.1-0.1-0.1-0.1-0.2-0.2C133.3,739.2,133.2,739.2,133,739.2z M136.8,742.2h-0.3c-0.1,0-0.1,0-0.1,0
		c0,0,0-0.1,0-0.1l0-0.3c-0.1,0.1-0.2,0.2-0.3,0.2c-0.1,0.1-0.2,0.1-0.3,0.2c-0.1,0-0.2,0.1-0.3,0.1c-0.1,0-0.2,0-0.4,0
		c-0.1,0-0.2,0-0.4-0.1c-0.1,0-0.2-0.1-0.3-0.2c-0.1-0.1-0.1-0.2-0.1-0.3c0-0.1,0-0.2,0-0.4c0-0.1,0.1-0.3,0.2-0.4
		c0.1-0.1,0.3-0.2,0.4-0.3c0.2-0.1,0.4-0.2,0.7-0.2c0.3-0.1,0.6-0.1,1-0.1l0.1-0.3c0.1-0.3,0.1-0.5,0-0.6c-0.1-0.1-0.2-0.2-0.4-0.2
		c-0.1,0-0.3,0-0.4,0.1c-0.1,0-0.2,0.1-0.3,0.1c-0.1,0-0.2,0.1-0.2,0.1c-0.1,0-0.1,0.1-0.2,0.1c0,0-0.1,0-0.1,0c0,0,0,0-0.1-0.1
		l-0.1-0.2c0.2-0.2,0.5-0.3,0.7-0.4c0.2-0.1,0.5-0.1,0.8-0.1c0.2,0,0.3,0,0.5,0.1c0.1,0.1,0.2,0.1,0.3,0.3c0.1,0.1,0.1,0.2,0.1,0.4
		c0,0.2,0,0.3-0.1,0.5L136.8,742.2z M135.4,741.8c0.1,0,0.2,0,0.3,0s0.2-0.1,0.3-0.1c0.1,0,0.2-0.1,0.3-0.1c0.1-0.1,0.2-0.1,0.3-0.2
		l0.2-0.7c-0.3,0-0.5,0-0.7,0.1c-0.2,0-0.4,0.1-0.5,0.1c-0.1,0.1-0.2,0.1-0.3,0.2c-0.1,0.1-0.1,0.2-0.1,0.3c0,0.1,0,0.2,0,0.2
		c0,0.1,0,0.1,0.1,0.2c0,0,0.1,0.1,0.1,0.1C135.3,741.8,135.3,741.8,135.4,741.8z M137.7,742.2l0.9-3.4h0.3c0.1,0,0.1,0,0.1,0
		c0,0,0,0.1,0,0.1l-0.1,0.6c0.2-0.2,0.4-0.4,0.6-0.6c0.2-0.1,0.4-0.2,0.6-0.2c0.1,0,0.2,0,0.2,0c0.1,0,0.1,0.1,0.2,0.1l-0.2,0.4
		c0,0.1-0.1,0.1-0.1,0.1c0,0-0.1,0-0.1,0c-0.1,0-0.1,0-0.3,0c-0.2,0-0.4,0.1-0.6,0.2c-0.2,0.1-0.3,0.3-0.5,0.5l-0.6,2.1H137.7z
		 M140.4,742.2l0.9-3.4h0.4c0.1,0,0.1,0,0.1,0.1l-0.1,0.4c0.2-0.2,0.4-0.3,0.6-0.4c0.2-0.1,0.4-0.2,0.7-0.2c0.2,0,0.3,0,0.5,0.1
		c0.1,0.1,0.2,0.1,0.3,0.3c0.1,0.1,0.1,0.2,0.1,0.4c0,0.2,0,0.3-0.1,0.5l-0.6,2.1h-0.6l0.6-2.1c0.1-0.3,0.1-0.5,0-0.6
		c-0.1-0.1-0.2-0.2-0.5-0.2c-0.2,0-0.3,0-0.5,0.1c-0.2,0.1-0.3,0.2-0.5,0.3l-0.7,2.5H140.4z M145.7,738.8l-0.9,3.4h-0.6l0.9-3.4
		H145.7z M146.1,737.8c0,0.1,0,0.1-0.1,0.2c0,0-0.1,0.1-0.1,0.1c0,0-0.1,0.1-0.2,0.1c-0.1,0-0.1,0-0.2,0c-0.1,0-0.1,0-0.2,0
		c0,0-0.1-0.1-0.1-0.1c0,0,0-0.1-0.1-0.1c0,0,0-0.1,0-0.2c0-0.1,0-0.1,0.1-0.2c0-0.1,0.1-0.1,0.1-0.1c0,0,0.1-0.1,0.2-0.1
		c0.1,0,0.1,0,0.2,0c0.1,0,0.1,0,0.2,0c0,0,0.1,0.1,0.1,0.1c0,0,0,0.1,0.1,0.1C146.1,737.7,146.1,737.7,146.1,737.8z M145.8,742.2
		l0.9-3.4h0.4c0.1,0,0.1,0,0.1,0.1l-0.1,0.4c0.2-0.2,0.4-0.3,0.6-0.4c0.2-0.1,0.4-0.2,0.7-0.2c0.2,0,0.3,0,0.5,0.1
		c0.1,0.1,0.2,0.1,0.3,0.3c0.1,0.1,0.1,0.2,0.1,0.4c0,0.2,0,0.3-0.1,0.5l-0.6,2.1H148l0.6-2.1c0.1-0.3,0.1-0.5,0-0.6
		c-0.1-0.1-0.2-0.2-0.5-0.2c-0.2,0-0.3,0-0.5,0.1c-0.2,0.1-0.3,0.2-0.5,0.3l-0.7,2.5H145.8z M151.5,738.8c0.1,0,0.3,0,0.4,0
		c0.1,0,0.2,0.1,0.3,0.1h0.9l-0.1,0.2c0,0.1-0.1,0.1-0.2,0.1l-0.4,0.1c0,0.1,0,0.3,0,0.5c0,0.2-0.1,0.3-0.2,0.4
		c-0.1,0.1-0.2,0.2-0.4,0.3c-0.1,0.1-0.3,0.2-0.5,0.2c-0.2,0-0.3,0.1-0.5,0.1c-0.2,0-0.3,0-0.4-0.1c-0.1,0-0.1,0.1-0.2,0.1
		c-0.1,0.1-0.1,0.1-0.1,0.2c0,0.1,0,0.1,0,0.2s0.1,0.1,0.2,0.1c0.1,0,0.2,0,0.4,0c0.1,0,0.3,0,0.4,0c0.1,0,0.3,0,0.4,0
		c0.1,0,0.2,0.1,0.3,0.1c0.1,0.1,0.2,0.1,0.2,0.2c0,0.1,0,0.2,0,0.4c0,0.1-0.1,0.3-0.2,0.4c-0.1,0.1-0.2,0.3-0.4,0.4
		c-0.2,0.1-0.3,0.2-0.6,0.3c-0.2,0.1-0.4,0.1-0.7,0.1c-0.2,0-0.5,0-0.6-0.1c-0.2,0-0.3-0.1-0.4-0.2c-0.1-0.1-0.2-0.2-0.2-0.3
		c0-0.1,0-0.2,0-0.3c0-0.2,0.1-0.3,0.3-0.4c0.1-0.1,0.3-0.2,0.5-0.3c-0.1,0-0.1-0.1-0.2-0.2c0-0.1,0-0.2,0-0.3c0,0,0-0.1,0.1-0.2
		c0-0.1,0.1-0.1,0.1-0.2c0-0.1,0.1-0.1,0.2-0.1c0.1,0,0.1-0.1,0.2-0.1c-0.1-0.1-0.2-0.2-0.3-0.4c-0.1-0.2-0.1-0.3,0-0.5
		c0-0.2,0.1-0.3,0.2-0.4c0.1-0.1,0.2-0.3,0.4-0.3c0.1-0.1,0.3-0.2,0.5-0.2C151.2,738.8,151.4,738.8,151.5,738.8z M151.6,742.4
		c0-0.1,0-0.2,0-0.2c0-0.1-0.1-0.1-0.2-0.1c-0.1,0-0.2,0-0.3-0.1c-0.1,0-0.2,0-0.3,0c-0.1,0-0.2,0-0.4,0c-0.1,0-0.2,0-0.3,0
		c-0.1,0.1-0.3,0.1-0.4,0.2c-0.1,0.1-0.2,0.2-0.2,0.3c0,0.1,0,0.1,0,0.2c0,0.1,0.1,0.1,0.1,0.2c0.1,0,0.2,0.1,0.3,0.1
		c0.1,0,0.3,0,0.4,0c0.2,0,0.3,0,0.4,0c0.1,0,0.3-0.1,0.4-0.1c0.1-0.1,0.2-0.1,0.3-0.2C151.6,742.5,151.6,742.5,151.6,742.4z
		 M151.1,740.5c0.1,0,0.2,0,0.3,0c0.1,0,0.2-0.1,0.3-0.1c0.1-0.1,0.1-0.1,0.2-0.2c0.1-0.1,0.1-0.2,0.1-0.3c0.1-0.2,0-0.4-0.1-0.5
		c-0.1-0.1-0.3-0.2-0.5-0.2c-0.2,0-0.4,0.1-0.6,0.2c-0.2,0.1-0.3,0.3-0.3,0.5c0,0.1,0,0.2,0,0.3c0,0.1,0,0.2,0.1,0.2
		c0,0.1,0.1,0.1,0.2,0.1C150.9,740.5,151,740.5,151.1,740.5z M158.8,737.4l-0.1,0.5h-1.5l-1.1,4.2h-0.6l1.1-4.2h-1.5l0.1-0.5H158.8z
		 M159.6,738.8c0.2,0,0.4,0,0.5,0.1c0.2,0.1,0.3,0.2,0.4,0.3c0.1,0.1,0.1,0.3,0.2,0.5c0,0.2,0,0.4-0.1,0.6c0,0.1,0,0.2-0.1,0.2
		c0,0-0.1,0-0.1,0h-2.2c-0.1,0.2-0.1,0.4-0.1,0.6c0,0.2,0,0.3,0.1,0.4c0.1,0.1,0.2,0.2,0.3,0.2c0.1,0.1,0.2,0.1,0.4,0.1
		c0.1,0,0.3,0,0.4-0.1c0.1,0,0.2-0.1,0.3-0.1c0.1,0,0.2-0.1,0.2-0.1c0.1,0,0.1-0.1,0.1-0.1c0,0,0.1,0,0.1,0.1l0.1,0.2
		c-0.1,0.1-0.2,0.2-0.3,0.2c-0.1,0.1-0.2,0.1-0.4,0.2c-0.1,0-0.3,0.1-0.4,0.1c-0.1,0-0.3,0-0.4,0c-0.2,0-0.4,0-0.6-0.1
		c-0.2-0.1-0.3-0.2-0.4-0.3c-0.1-0.2-0.2-0.3-0.2-0.6c0-0.2,0-0.5,0.1-0.8c0.1-0.2,0.2-0.5,0.3-0.7c0.1-0.2,0.3-0.4,0.5-0.5
		c0.2-0.1,0.4-0.3,0.6-0.4C159.2,738.8,159.4,738.8,159.6,738.8z M159.5,739.2c-0.3,0-0.5,0.1-0.7,0.2c-0.2,0.2-0.4,0.4-0.5,0.7h1.8
		c0-0.1,0-0.3,0-0.4c0-0.1,0-0.2-0.1-0.3c-0.1-0.1-0.1-0.1-0.2-0.2C159.8,739.2,159.7,739.2,159.5,739.2z M163.3,742.2h-0.3
		c-0.1,0-0.1,0-0.1,0c0,0,0-0.1,0-0.1l0-0.3c-0.1,0.1-0.2,0.2-0.3,0.2c-0.1,0.1-0.2,0.1-0.3,0.2c-0.1,0-0.2,0.1-0.3,0.1
		c-0.1,0-0.2,0-0.4,0c-0.1,0-0.2,0-0.4-0.1c-0.1,0-0.2-0.1-0.3-0.2c-0.1-0.1-0.1-0.2-0.1-0.3c0-0.1,0-0.2,0-0.4
		c0-0.1,0.1-0.3,0.2-0.4c0.1-0.1,0.3-0.2,0.4-0.3c0.2-0.1,0.4-0.2,0.7-0.2c0.3-0.1,0.6-0.1,1-0.1l0.1-0.3c0.1-0.3,0.1-0.5,0-0.6
		c-0.1-0.1-0.2-0.2-0.4-0.2c-0.1,0-0.3,0-0.4,0.1c-0.1,0-0.2,0.1-0.3,0.1c-0.1,0-0.2,0.1-0.2,0.1c-0.1,0-0.1,0.1-0.2,0.1
		c0,0-0.1,0-0.1,0c0,0,0,0-0.1-0.1l-0.1-0.2c0.2-0.2,0.5-0.3,0.7-0.4c0.2-0.1,0.5-0.1,0.7-0.1c0.2,0,0.3,0,0.5,0.1
		c0.1,0.1,0.2,0.1,0.3,0.3c0.1,0.1,0.1,0.2,0.1,0.4c0,0.2,0,0.3-0.1,0.5L163.3,742.2z M161.9,741.8c0.1,0,0.2,0,0.3,0
		c0.1,0,0.2-0.1,0.3-0.1c0.1,0,0.2-0.1,0.3-0.1c0.1-0.1,0.2-0.1,0.3-0.2l0.2-0.7c-0.3,0-0.5,0-0.7,0.1c-0.2,0-0.4,0.1-0.5,0.1
		c-0.1,0.1-0.2,0.1-0.3,0.2c-0.1,0.1-0.1,0.2-0.2,0.3c0,0.1,0,0.2,0,0.2c0,0.1,0,0.1,0.1,0.2c0,0,0.1,0.1,0.1,0.1
		C161.8,741.8,161.8,741.8,161.9,741.8z M164.2,742.2l0.9-3.4h0.3c0.1,0,0.1,0,0.1,0.1l0,0.3c0.2-0.2,0.3-0.3,0.5-0.4
		c0.2-0.1,0.4-0.1,0.6-0.1c0.2,0,0.4,0.1,0.5,0.2c0.1,0.1,0.2,0.3,0.2,0.5c0.1-0.1,0.2-0.2,0.3-0.3c0.1-0.1,0.2-0.2,0.3-0.2
		c0.1-0.1,0.2-0.1,0.3-0.1c0.1,0,0.2,0,0.3,0c0.2,0,0.3,0,0.5,0.1c0.1,0.1,0.2,0.1,0.3,0.2c0.1,0.1,0.1,0.2,0.1,0.4
		c0,0.2,0,0.3-0.1,0.5l-0.6,2.1h-0.6l0.6-2.1c0.1-0.3,0.1-0.5,0-0.6c-0.1-0.1-0.2-0.2-0.4-0.2c-0.1,0-0.2,0-0.3,0.1
		c-0.1,0-0.2,0.1-0.3,0.2c-0.1,0.1-0.2,0.2-0.2,0.3c-0.1,0.1-0.1,0.2-0.2,0.4l-0.6,2.1h-0.6l0.6-2.1c0.1-0.3,0.1-0.5,0-0.6
		c-0.1-0.1-0.2-0.2-0.4-0.2c-0.1,0-0.3,0-0.4,0.1c-0.1,0.1-0.3,0.2-0.4,0.3l-0.7,2.5H164.2z"/>
</g>
<g>
	<g>
		<linearGradient id="SVGID_9_" gradientUnits="userSpaceOnUse" x1="759.169" y1="141.1099" x2="959.3467" y2="141.1099">
			<stop  offset="0" style="stop-color:#FFFFFF;stop-opacity:0"/>
			<stop  offset="4.017906e-002" style="stop-color:#FDEBEE;stop-opacity:4.051906e-002"/>
			<stop  offset="0.1257" style="stop-color:#FAC6CE;stop-opacity:0.1267"/>
			<stop  offset="0.2187" style="stop-color:#F7A7B2;stop-opacity:0.2205"/>
			<stop  offset="0.3192" style="stop-color:#F58D9C;stop-opacity:0.3219"/>
			<stop  offset="0.4302" style="stop-color:#F3798A;stop-opacity:0.4338"/>
			<stop  offset="0.5573" style="stop-color:#F26C7E;stop-opacity:0.562"/>
			<stop  offset="0.7143" style="stop-color:#F16377;stop-opacity:0.7204"/>
			<stop  offset="0.9916" style="stop-color:#F16175"/>
		</linearGradient>
		<rect x="759.2" y="128.8" class="st15" width="200.2" height="24.7"/>
		<g>
			<g>
				<path class="st13" d="M909.5,145.7c-4.3,0-5.9-2-5.9-5.1c0-2.9,1.8-5.5,5.8-5.5c2.6,0,4.6,0.8,4.6,0.8v7.6h2.2v2.3H909.5z
					 M905.9,132.2c0-0.8,0.6-1.5,1.5-1.5c0.8,0,1.5,0.7,1.5,1.5c0,0.8-0.6,1.5-1.5,1.5C906.5,133.7,905.9,133,905.9,132.2z
					 M911.3,137.7c0,0-0.8-0.4-2.1-0.4c-1.7,0-2.6,1.3-2.6,3c0,2,1,3.1,3.3,3.1h1.4V137.7z M909.6,132.2c0-0.8,0.6-1.5,1.5-1.5
					s1.5,0.7,1.5,1.5c0,0.8-0.6,1.5-1.5,1.5S909.6,133,909.6,132.2z"/>
				<path class="st13" d="M915.9,143.4h4.1v-8.1h2.9v10.3h-7V143.4z M917.8,150.5c-0.8,0-1.5-0.7-1.5-1.5c0-0.8,0.6-1.5,1.5-1.5
					c0.8,0,1.5,0.7,1.5,1.5C919.2,149.8,918.6,150.5,917.8,150.5z M921.4,150.5c-0.8,0-1.5-0.7-1.5-1.5c0-0.8,0.6-1.5,1.5-1.5
					c0.8,0,1.5,0.7,1.5,1.5C922.9,149.8,922.2,150.5,921.4,150.5z"/>
				<path class="st13" d="M923,151l0.2-2.3c0.5,0.2,1.1,0.3,1.8,0.3c1.5,0,2.4-0.7,2.4-3.1v-10.6h2.9v8.1h2.2v2.3h-2.2v0.1
					c0,2.8-0.9,5.5-5.4,5.5C924.2,151.3,923.6,151.2,923,151z"/>
				<path class="st13" d="M932.2,143.4h0.7c1.4,0,2-0.6,2-2.8v-4h2.9v4.4c0,1.7,0.4,2.6,1.7,2.6c1.3,0,1.6-0.9,1.6-2.5v-5.3h2.8v5.2
					c0,1.8,0.5,2.4,2.4,2.4h0.8c0.1-0.9,0.2-2,0.2-2.6c0-2.2-0.3-4.2-0.6-5.9l2.8-0.4c0.4,1.8,0.7,3.9,0.7,6.1
					c0,1.6-0.1,3.6-0.3,5.1h-4.1c-1.9,0-3.1-0.4-3.6-1.6c-0.5,1.2-1.8,1.8-3.2,1.8c-1.6,0-2.8-0.7-3.1-1.8c-0.4,1.1-1.3,1.6-2.9,1.6
					h-0.7V143.4z"/>
			</g>
		</g>
		<g>
			<path class="st8" d="M734.6,147.3c0.1,0.4,0.2,0.8,0.2,1.1c0,0.9-0.6,1.7-1.9,2.2l-4.9,1.9c-1.5,0.6-2.8,1.1-2.8,2
				c0,0.1,0,0.1,0,0.2l-0.2,0.1c-0.1-0.4-0.2-0.8-0.2-1.1c0-0.9,0.5-1.7,1.9-2.3l4.9-1.9c1.7-0.7,2.8-1.1,2.8-2.2L734.6,147.3z"/>
			<path class="st8" d="M736.6,123.5h8.9v3.3h-8.9c0,5.9-1.5,10.5-5.1,14.3c-3.2,3.6-7.1,5.4-11.7,5.4c-2,0-3.9-0.4-5.9-1.2l0.3-0.6
				c1.3,0.7,2.7,1,4.2,1c8.1,0,15-7.4,15-18.9v-21.2h3.3V123.5z"/>
			<path class="st8" d="M776.5,93.3c0.3-0.2,0.7-0.3,1.1-0.3v0.2c-0.7,0.1-0.7,1.2-0.7,2.4v2c0,1.7-1.4,3.1-3.1,3.1
				c-1.9,0-3.4-1.1-3.4-2.8v-1.2c0-1.8,1.6-3.4,3.4-3.4H776.5z M773.9,94.4c-1.4,0-2.5,1-2.5,2.3v1.2c0,0.9,1,1.7,2.3,1.7
				c1,0,2.1-0.9,2.1-2.1v-2.5c0-0.2,0-0.5,0.1-0.6H773.9z"/>
			<path class="st8" d="M795.6,126.8h-50.2v-3.3h2.8c0.6-0.3,0.9-1.1,0.9-2.5c0-3.4-0.8-6.6-3.2-8.8l0.4-0.3
				c2.2,2.1,3.7,4.7,4.4,7.3c0.7-8.2,8.8-14.5,19.3-14.5h6.9c6.1,0.5,11.1,6.1,11.1,12.4v6.5h7.6V126.8z M784.7,123.5V117
				c0-3.8-1.7-6.5-5.1-8.1c-1.4-0.6-3.3-0.9-6.2-0.9H770c-11.1,0-18.8,6.2-18.8,14.5v1H784.7z"/>
			<path class="st8" d="M816.7,89.9c0.1,0.4,0.2,0.8,0.2,1.1c0,0.9-0.6,1.7-1.9,2.2l-4.9,1.9c-1.5,0.6-2.8,1.1-2.8,2
				c0,0.1,0,0.1,0,0.2l-0.2,0.1c-0.1-0.4-0.2-0.8-0.2-1.1c0-0.9,0.5-1.7,1.9-2.3l4.9-1.9c1.7-0.7,2.8-1.1,2.8-2.2L816.7,89.9z"/>
			<path class="st8" d="M825.1,126.8h-29.6v-3.3h4.6c-1.7-1.7-2.5-4.1-2.5-6.3c0-5.1,4.5-9.6,9.7-9.6h6.9c3.4,0,6.8,0,7-2.2h0.5
				c0,3.4-1.9,5.4-5.8,5.4h-8.2c-4.2,0-7.1,2.7-7.1,6.4s2.8,6.2,6.7,6.3h17.9V126.8z"/>
			<path class="st8" d="M835,81.1c0.3-0.2,0.7-0.3,1.1-0.3v0.2c-0.7,0.1-0.7,1.2-0.7,2.4v2c0,1.7-1.4,3.1-3.1,3.1
				c-1.9,0-3.4-1.1-3.4-2.8v-1.2c0-1.8,1.6-3.4,3.4-3.4H835z M832.5,82.2c-1.4,0-2.5,1-2.5,2.3v1.2c0,0.9,1,1.7,2.3,1.7
				c1,0,2.1-0.9,2.1-2.1v-2.5c0-0.2,0-0.5,0.1-0.6H832.5z"/>
			<path class="st8" d="M828.7,88.6c3.1,0.1,5.3,1.7,5.3,6v21.6c0,4-2.5,7.9-6,9.6c-1.2,0.6-2.2,0.9-3,0.9v-3.3
				c2.4-0.2,5.8-2.8,5.8-7.3v-20c0-3.5,0-7-2.1-7.2V88.6z"/>
			<path class="st8" d="M841.5,96.7c0-5.7-0.2-7.3-2-7.5v-0.4c3.5,0.1,5.2,2.2,5.2,6.2v31.8h-3.3V96.7z"/>
			<path class="st8" d="M868.6,81.2c-1.3,2.3-3.3,3.5-5.2,3.5c-1.4,0-2.8-0.7-3.7-1.8l0.1-0.1c0.7,0.9,1.8,1.4,3,1.4
				c1.7,0,3.6-1,4.9-3.4l0.3-0.6c-0.2,0-0.4,0.1-0.6,0.1c-1.8,0-3.1-1.7-3.1-3.1c0-0.4,0.1-0.8,0.3-1.1l0.6-1c0.6-1,1.7-1.6,2.8-1.6
				c0.5,0,1,0.1,1.5,0.4l-0.4,0.9c-0.4-0.2-0.8-0.3-1.2-0.3c-0.8,0-1.5,0.4-1.9,1.1l-0.5,1c-0.1,0.2-0.2,0.4-0.2,0.6
				c0,0.8,0.8,2,2.1,2c0.5,0,0.9-0.2,1.3-0.5l1.7-3.1l-1.4-0.8l0.4-0.9l2.2,1.2c0.3,0,0.7,0.1,1,0.3l-0.1,0.1c-0.1,0-0.2,0-0.2,0
				c-0.5,0-0.9,0.9-1.4,1.7l-0.9,1.6L868.6,81.2z"/>
			<path class="st8" d="M878,104.5c0.8-0.5,1.9-0.7,3.1-0.8v0.5c-2.1,0.3-2.1,3.7-2.1,7.2v6c0,5.2-4.3,9.3-9.4,9.3
				c-5.4,0-10.2-3.6-10.2-8.3v-3.6c0-5.5,4.8-10.3,10.3-10.3H878z M870.3,107.8c-4.3,0-7.4,3.2-7.4,7v3.6c0,2.6,2.9,5.1,6.8,5.1
				c3.3,0,6.2-2.8,6.2-6.1v-7.6c0-0.9,0-1.4,0.3-2H870.3z M865.9,100.3l-2.9-2.9l2.9-2.8l2.9,2.8L865.9,100.3z M871.7,100.3
				l-2.9-2.9l2.9-2.8l2.9,2.8L871.7,100.3z"/>
			<path class="st8" d="M916.9,126.8c-3.4,0-6.6-1.6-8.3-4.5c-1,2-4.5,4.5-8,4.5h-17.1v-3.3h10.9v-13.1c0-3.7-0.2-7.2-2.2-7.5v-0.5
				c3.4,0.2,5.5,1.8,5.5,6.2v14.9h2.9c3.8,0,6.8-3.3,6.8-7.7V95.1c0-3.8-0.1-7.1-2.1-7.4v-0.5c3.3,0.1,5.4,1.8,5.4,6.1V118
				c0.3,3.3,2.8,5.2,6.2,5.5V126.8z"/>
			<path class="st8" d="M950.2,92.9c0.1,0.4,0.2,0.8,0.2,1.1c0,0.9-0.6,1.7-1.9,2.2l-4.9,1.9c-1.5,0.6-2.8,1.1-2.8,2
				c0,0.1,0,0.1,0,0.2l-0.2,0.1c-0.1-0.4-0.2-0.8-0.2-1.1c0-0.9,0.5-1.7,1.9-2.3l4.9-1.9c1.7-0.7,2.8-1.1,2.8-2.2L950.2,92.9z"/>
			<path class="st8" d="M959.3,126.8h-42.6v-3.3h2.8c0.6-0.3,0.9-1.1,0.9-2.5c0-3.4-0.8-6.6-3.2-8.8l0.4-0.3
				c2.2,2.1,3.7,4.7,4.4,7.3c0.7-8.2,8.8-14.5,19.3-14.5h6.9c6.1,0.5,11.2,6.1,11.1,12.4V126.8z M956.1,123.5V117
				c0-3.8-1.7-6.5-5.1-8.1c-1.4-0.6-3.3-0.9-6.2-0.9h-3.4c-11.1,0-18.8,6.2-18.8,14.5v1H956.1z"/>
		</g>
	</g>
</g>
</svg>
