<?xml version="1.0" encoding="utf-8"?>
<!-- Generator: Adobe Illustrator 21.0.2, SVG Export Plug-In . SVG Version: 6.00 Build 0)  -->
<svg version="1.1" id="Layer_1" xmlns="http://www.w3.org/2000/svg" xmlns:xlink="http://www.w3.org/1999/xlink" x="0px" y="0px"
	 viewBox="0 0 133.5 34.7" style="enable-background:new 0 0 133.5 34.7;" xml:space="preserve">
<style type="text/css">
	.st0{fill:#FBB040;}
	.st1{fill:#231F20;}
</style>
<g>
	<path class="st0" d="M133.5,17.3c0,9.6-7.8,17.3-17.3,17.3H17.3C7.8,34.7,0,26.9,0,17.3l0,0C0,7.8,7.8,0,17.3,0h98.9
		C125.8,0,133.5,7.8,133.5,17.3L133.5,17.3z"/>
</g>
<g>
	<path class="st1" d="M10.8,23.6c-3,0-4.1-1.6-4.1-4.2c0-2.4,1.3-4.5,4.1-4.5c1.8,0,3.2,0.6,3.2,0.6v6.2h1.5v1.9H10.8z M8.2,12.5
		c0-0.7,0.4-1.2,1-1.2c0.6,0,1,0.5,1,1.2c0,0.7-0.4,1.2-1,1.2C8.7,13.7,8.2,13.2,8.2,12.5z M12,17.1c0,0-0.6-0.3-1.5-0.3
		c-1.2,0-1.8,1-1.8,2.4c0,1.6,0.7,2.5,2.3,2.5h1V17.1z M10.8,12.5c0-0.7,0.4-1.2,1-1.2c0.6,0,1,0.5,1,1.2c0,0.7-0.4,1.2-1,1.2
		C11.3,13.7,10.8,13.2,10.8,12.5z"/>
	<path class="st1" d="M26,23.6H15.3v-1.9h1.9v-6.6h2v0.5c0,0.8,0,1.8-0.2,2.7h0c0.8-2.1,2.3-3.3,4-3.3c2.1,0,3.1,1.7,3.1,4.4
		C26.2,20.7,26.1,22.2,26,23.6z M22.6,16.8c-1.7,0-3,2.4-3.4,4.9H24c0-0.7,0.1-1.5,0.1-2.2C24.1,17.8,23.7,16.8,22.6,16.8z
		 M21.7,12.4c0-0.7,0.5-1.2,1.1-1.2s1.1,0.6,1.1,1.2c0,0.7-0.5,1.2-1.1,1.2S21.7,13.1,21.7,12.4z"/>
	<path class="st1" d="M27.9,27.9l0.1-1.9c0,0,1.2,0.3,2.4,0.3c1.6,0,2.7-0.7,2.7-2.4v-0.3h-1.2c-3,0-4.1-1.6-4.1-4.2
		c0-2.4,1.3-4.5,4.1-4.5c1.8,0,3.2,0.6,3.2,0.6v8.1c0,2.5-1.4,4.5-4.8,4.5C29.1,28.1,27.9,27.9,27.9,27.9z M33.1,17.1
		c0,0-0.6-0.3-1.5-0.3c-1.2,0-1.8,1-1.8,2.4c0,1.6,0.7,2.5,2.3,2.5h1V17.1z"/>
	<path class="st1" d="M34.9,28l0.2-1.9c0.4,0.1,0.8,0.2,1.3,0.2c1,0,1.7-0.6,1.7-2.5v-8.7h2v6.6h1.5v1.9H40v0.1
		c0,2.3-0.7,4.5-3.8,4.5C35.7,28.2,35.2,28.1,34.9,28z"/>
	<path class="st1" d="M41.3,21.7h0.6c0.5,0,0.9,0.1,0.9,0.1c-0.5-0.6-0.7-1.4-0.7-2.4c0-2.6,1.6-4.5,3.9-4.5c2.2,0,3.6,1.3,3.6,4.2
		c0,1-0.3,2.1-0.9,2.7c0,0,0.7-0.1,1.2-0.1h0.8v1.9h-9.5V21.7z M47.6,19.2c0-1.6-0.5-2.4-1.7-2.4c-0.9,0-1.7,0.7-1.7,2.4
		s0.6,2.5,1.7,2.5C46.9,21.7,47.6,20.9,47.6,19.2z M44.9,12.3c0-0.7,0.5-1.2,1.1-1.2s1.1,0.6,1.1,1.2c0,0.7-0.5,1.2-1.1,1.2
		S44.9,13,44.9,12.3z"/>
	<path class="st1" d="M52.8,22.2c-0.4,0.9-1.1,1.4-2,1.4h-0.2v-1.9h0.3c0.7,0,1.2-0.5,1.2-2.2c0-2.6,1.3-4.7,3.9-4.7
		c2.5,0,3.6,1.7,3.6,4.3v2.5h1.3v1.9H56C54.2,23.6,53.3,23.1,52.8,22.2z M57.6,19.4c0-1.9-0.6-2.7-1.7-2.7c-1.1,0-1.8,1-1.8,2.6
		c0,1.6,0.6,2.4,2.2,2.4h1.3V19.4z"/>
	<path class="st1" d="M60.6,21.7h1.9V10.9h2v12.7h-4V21.7z"/>
	<path class="st1" d="M67.2,10.9h2v12.7h-2V10.9z"/>
	<path class="st1" d="M80.8,23.6c-4.2,0-5.7-2-5.7-5.3c0-1,0.2-2.1,0.4-2.8l2.2-0.4c-0.3,0.8-0.5,2-0.5,3c0,2.5,0.9,3.7,3.8,3.7h2.1
		v-6.6h2v8.5H80.8z M78.3,12.5c0-0.7,0.4-1.2,1-1.2c0.6,0,1,0.5,1,1.2c0,0.7-0.4,1.2-1,1.2C78.7,13.7,78.3,13.2,78.3,12.5z
		 M80.8,12.5c0-0.7,0.4-1.2,1-1.2s1,0.5,1,1.2c0,0.7-0.4,1.2-1,1.2S80.8,13.2,80.8,12.5z"/>
	<path class="st1" d="M87.6,10.9h2v12.7h-2V10.9z"/>
	<path class="st1" d="M91.7,27.9l0.1-1.9c0,0,1.2,0.3,2.4,0.3c1.6,0,2.7-0.7,2.7-2.4v-0.3h-1.2c-3,0-4.1-1.6-4.1-4.2
		c0-2.4,1.3-4.5,4.1-4.5c1.8,0,3.2,0.6,3.2,0.6v6.2h1.5v1.9h-1.5v0c0,2.5-1.4,4.5-4.8,4.5C92.9,28.1,91.7,27.9,91.7,27.9z
		 M96.9,17.1c0,0-0.6-0.3-1.5-0.3c-1.2,0-1.8,1-1.8,2.4c0,1.6,0.7,2.5,2.3,2.5h1V17.1z"/>
	<path class="st1" d="M100.2,21.7h1.9V10.9h2v10.8h1.6v1.9h-5.5V21.7z"/>
	<path class="st1" d="M116.3,21.7h1.4v1.9h-12.3v-1.9h1.9v-6.6h2v0.5c0,0.8,0,1.8-0.2,2.7h0c0.8-2.1,2.3-3.3,4-3.3
		c2.1,0,3.1,1.7,3.1,4.4C116.4,20,116.4,20.9,116.3,21.7z M112.8,16.8c-1.7,0-3,2.4-3.4,4.9h4.8c0-0.7,0.1-1.5,0.1-2.2
		C114.3,17.8,113.9,16.8,112.8,16.8z"/>
	<path class="st1" d="M117.5,21.7h1.9V10.9h2v12.7h-4V21.7z"/>
	<path class="st1" d="M124.1,10.9h2v12.7h-2V10.9z"/>
</g>
</svg>
