<?xml version="1.0" encoding="utf-8"?>
<!-- Generator: Adobe Illustrator 21.1.0, SVG Export Plug-In . SVG Version: 6.00 Build 0)  -->
<svg version="1.1" id="Layer_1" xmlns="http://www.w3.org/2000/svg" xmlns:xlink="http://www.w3.org/1999/xlink" x="0px" y="0px"
	 viewBox="0 0 134.5 35.7" style="enable-background:new 0 0 134.5 35.7;" xml:space="preserve">
<style type="text/css">
	.st0{fill:#FBB03B;}
</style>
<g>
	<path class="st0" d="M134,17.8c0,9.6-7.8,17.3-17.3,17.3H17.8c-9.6,0-17.3-7.8-17.3-17.3l0,0c0-9.6,7.8-17.3,17.3-17.3h98.9
		C126.3,0.5,134,8.3,134,17.8L134,17.8z"/>
</g>
<g>
	<path d="M25.9,25.6c-0.7,0-1.2,0.6-1.2,1.2c0,0.7,0.5,1.2,1.2,1.2s1.2-0.6,1.2-1.2C27.1,26.1,26.6,25.6,25.9,25.6z"/>
	<path d="M22.9,25.6c-0.7,0-1.2,0.6-1.2,1.2c0,0.7,0.5,1.2,1.2,1.2c0.7,0,1.2-0.6,1.2-1.2C24.1,26.1,23.6,25.6,22.9,25.6z"/>
	<path d="M40.2,11.8c-0.7,0-1.2,0.6-1.2,1.2c0,0.7,0.5,1.2,1.2,1.2s1.2-0.6,1.2-1.2C41.4,12.3,40.9,11.8,40.2,11.8z"/>
	<path d="M37.2,14.2c0.7,0,1.2-0.6,1.2-1.2c0-0.7-0.5-1.2-1.2-1.2c-0.7,0-1.2,0.6-1.2,1.2C36,13.7,36.6,14.2,37.2,14.2z"/>
	<path d="M37.9,22.2h-2.2h-0.3h-1.2v-2.8c0-2.5-1-4-4.2-4c-1.9,0-3.6,0.3-3.6,0.3v6.5h-1.2c-3.4,0-4.5-1.2-4.5-3.7
		c0-1,0.2-2.1,0.6-3l-2.5,0.4c-0.3,0.7-0.5,1.9-0.5,2.8c0,3.3,1.7,5.3,6.6,5.3h3.8v-6.7c0,0,0.6-0.1,1.2-0.1c1.5,0,2,0.6,2,2.4v4.5
		h3.5h0.3h4.6v-8.5h-2.4V22.2z"/>
	<polygon points="47.1,20.9 44.5,11.3 42.1,11.6 44.7,20.9 	"/>
	<path d="M61.3,15.4c-1.9,0-3.7,1.2-4.6,3.3h0c0.1-0.9,0.2-1.9,0.2-2.7v-0.5h-2.4v6.6h-1.9h-0.3h-1.5V11.4h-2.4v10.8h-5.6v1.9h9.4
		h0.3h12.1c0.2-1.4,0.3-2.9,0.3-4.3C65,17,63.8,15.4,61.3,15.4z M62.5,22.2h-5.6c0.5-2.5,2.1-4.9,4-4.9c1.3,0,1.7,1,1.7,2.7
		C62.6,20.7,62.5,21.5,62.5,22.2z"/>
	<path d="M79.3,14.2c0.7,0,1.2-0.6,1.2-1.2c0-0.7-0.5-1.2-1.2-1.2s-1.2,0.6-1.2,1.2C78.1,13.7,78.6,14.2,79.3,14.2z"/>
	<path d="M76.3,14.2c0.7,0,1.2-0.6,1.2-1.2c0-0.7-0.5-1.2-1.2-1.2c-0.7,0-1.2,0.6-1.2,1.2C75.1,13.7,75.6,14.2,76.3,14.2z"/>
	<path d="M80.8,22.2h-2.4c-3.4,0-4.5-1.2-4.5-3.7c0-1,0.2-2.1,0.6-3l-2.5,0.4c-0.3,0.7-0.5,1.9-0.5,2.8c0,3.3,1.7,5.3,6.6,5.3h5.1
		v-8.5h-2.4V22.2z"/>
	<path d="M102.2,17.1c2.9,0.7,4.3,2.3,4.4,5.1h-5.1h-0.3h-0.9c-0.8,0-1.4-0.2-2-0.5c1.2-1,1.8-2.3,1.8-3.5c0-1.6-1.1-3-3.8-3
		c-1.8,0-3.8,1-5.2,2L90.9,19c1.6,0.4,2.6,1.5,3.8,2.6c-1.1,0.4-2.5,0.6-4.2,0.6h-0.4h-0.3h-1.5V11.4H86v12.7h3.9h0.3h0.2
		c2.4,0,4.4-0.4,5.9-1.1c1,0.6,2.1,1.1,3.7,1.1h1.2h0.3h7.4v-1.2c0-3.9-1.6-5.9-4-7l4.4-2.6v-2.4l-7.1,4.5V17.1z M96.7,20.6
		c-1.1-0.9-2.1-2-3.3-2.5c0.6-0.4,1.8-1.1,2.7-1.1c1.2,0,1.7,0.7,1.7,1.5C97.8,19.3,97.4,20,96.7,20.6z"/>
	<path d="M113.5,15.6v8.7c0,1.9-0.7,2.5-1.9,2.5c-0.6,0-1-0.1-1.5-0.2l-0.2,1.9c0.5,0.1,1,0.2,1.5,0.2c3.7,0,4.4-2.2,4.4-4.5v-8.5
		H113.5z"/>
</g>
</svg>
