<?xml version="1.0" encoding="utf-8"?>
<!-- Generator: Adobe Illustrator 21.1.0, SVG Export Plug-In . SVG Version: 6.00 Build 0)  -->
<svg version="1.1" id="Layer_1" xmlns="http://www.w3.org/2000/svg" xmlns:xlink="http://www.w3.org/1999/xlink" x="0px" y="0px"
	 viewBox="0 0 133.5 34.7" style="enable-background:new 0 0 133.5 34.7;" xml:space="preserve">
<style type="text/css">
	.st0{fill:#FFFFFF;}
	.st1{fill:#FBB03B;}
	.st2{fill:#622272;}
</style>
<g>
	<g>
		<path class="st0" d="M17.3,34.2C8,34.2,0.5,26.6,0.5,17.3S8,0.5,17.3,0.5h98.9c9.3,0,16.8,7.5,16.8,16.8s-7.5,16.8-16.8,16.8H17.3
			z"/>
		<path class="st1" d="M116.2,1c9,0,16.3,7.3,16.3,16.3c0,9-7.3,16.3-16.3,16.3H17.3C8.3,33.7,1,26.3,1,17.3C1,8.3,8.3,1,17.3,1
			H116.2 M116.2,0H17.3C7.8,0,0,7.8,0,17.3c0,9.6,7.8,17.3,17.3,17.3h98.9c9.6,0,17.3-7.8,17.3-17.3C133.5,7.8,125.8,0,116.2,0
			L116.2,0z"/>
	</g>
</g>
<g>
	<path class="st2" d="M27.4,21.7h-2.4c-3.4,0-4.5-1.2-4.5-3.7c0-1,0.2-2.1,0.6-3l-2.5,0.4c-0.3,0.7-0.5,1.9-0.5,2.8
		c0,3.3,1.7,5.3,6.6,5.3h5.1v-8.5h-2.4V21.7z"/>
	<path class="st2" d="M24.3,25c-0.7,0-1.2,0.6-1.2,1.2c0,0.7,0.6,1.2,1.2,1.2c0.7,0,1.2-0.6,1.2-1.2C25.5,25.6,25,25,24.3,25z"/>
	<rect x="32.6" y="10.9" class="st2" width="2.4" height="12.7"/>
	<path class="st2" d="M51.5,25c-0.7,0-1.2,0.6-1.2,1.2c0,0.7,0.6,1.2,1.2,1.2c0.7,0,1.2-0.6,1.2-1.2C52.7,25.6,52.2,25,51.5,25z"/>
	<path class="st2" d="M51,15c-0.8,0-1.6,0.1-2.3,0.2V17c0.7-0.1,1.3-0.1,2.1-0.1c2.6,0,3.5,1.2,3.5,3.5c0,0.5,0,0.9-0.1,1.4h-6.7
		h-0.3h-1.5v-6.2c0,0-1.6-0.6-3.8-0.6c-3.3,0-4.8,2.2-4.8,4.5c0,2.6,1.3,4.2,4.8,4.2h1.4v0.3c0,1.7-1.2,2.4-3.1,2.4
		c-1.4,0-2.8-0.3-2.8-0.3l-0.1,1.9c0,0,1.4,0.2,2.7,0.2c4,0,5.6-2,5.6-4.5v0h1.5h0.3h8.8c0.2-1.3,0.3-2.4,0.3-3.3
		C56.7,16.8,55.1,15,51,15z M43.4,21.7h-1.2c-1.9,0-2.7-0.9-2.7-2.5c0-1.4,0.8-2.4,2.1-2.4c1,0,1.7,0.3,1.7,0.3V21.7z"/>
	<path class="st2" d="M58.3,19.4c0,2.6,1.3,4.2,4.8,4.2h1.4v0.3c0,1.7-1.2,2.4-3.1,2.4c-1.4,0-2.8-0.3-2.8-0.3l-0.1,1.9
		c0,0,1.4,0.2,2.7,0.2c4,0,5.6-2,5.6-4.5v-8.1c0,0-1.6-0.6-3.8-0.6C59.8,14.9,58.3,17,58.3,19.4z M64.6,21.7h-1.2
		c-1.9,0-2.7-0.9-2.7-2.5c0-1.4,0.8-2.4,2.1-2.4c1,0,1.7,0.3,1.7,0.3V21.7z"/>
	<path class="st2" d="M80.5,22.4c0,2.6-0.9,3.5-2.3,3.5c-1.3,0-2.5-0.7-2.5-3.5c0-1.1,0.2-2.3,0.5-3.5l-2.4,0.5
		c-0.3,1-0.4,2.2-0.4,3.2c0,3.6,1.8,5.1,4.6,5.1c3,0,4.8-1.7,4.8-5.5V10.9h-2.4V22.4z"/>
	<rect x="85.8" y="10.9" class="st2" width="2.4" height="12.7"/>
	<path class="st2" d="M97.2,12.3h-1c-0.9,0-1.2-0.3-1.2-0.7c0-0.4,0.3-0.6,0.9-0.6c0.4,0,0.8,0.1,0.9,0.1L97,9.7
		c-0.1,0-0.6-0.1-1.1-0.1c-1.9,0-2.6,1-2.6,2c0,0.3,0.1,0.6,0.3,0.7c-0.3-0.1-0.6-0.1-1-0.1v1.4h4.6V12.3z"/>
	<path class="st2" d="M114.5,14.4l-2.3,0.3c0.3,1.4,0.5,3,0.5,4.8c0,0.6-0.1,1.4-0.1,2.2H112c-1.6,0-2-0.5-2-2v-4.2h-2.3v4.3
		c0,1.3-0.3,2.1-1.3,2.1c-1.1,0-1.4-0.7-1.4-2.1v-3.6h-2.4v3.3c0,1.8-0.5,2.2-1.6,2.2h-0.3h-0.3H99v-6.2c0,0-1.6-0.6-3.8-0.6
		c-3.3,0-4.8,2.2-4.8,4.5c0,2.6,1.3,4.2,4.8,4.2h1.4v0.3c0,1.7-1.2,2.4-3.1,2.4c-1.4,0-2.8-0.3-2.8-0.3l-0.1,1.9
		c0,0,1.4,0.2,2.7,0.2c4,0,5.6-2,5.6-4.5v0h1.5h0.3h0.3c1.3,0,2.1-0.5,2.4-1.3c0.3,0.9,1.2,1.5,2.6,1.5c1.1,0,2.2-0.5,2.6-1.5
		c0.4,1,1.4,1.3,2.9,1.3h3.3c0.2-1.3,0.3-2.9,0.3-4.2C115.1,17.6,114.9,15.8,114.5,14.4z M96.7,21.7h-1.2c-1.9,0-2.7-0.9-2.7-2.5
		c0-1.4,0.8-2.4,2.1-2.4c1,0,1.7,0.3,1.7,0.3V21.7z"/>
</g>
</svg>
