<?xml version="1.0" encoding="utf-8"?>
<!-- Generator: Adobe Illustrator 21.1.0, SVG Export Plug-In . SVG Version: 6.00 Build 0)  -->
<svg version="1.1" id="Layer_1" xmlns="http://www.w3.org/2000/svg" xmlns:xlink="http://www.w3.org/1999/xlink" x="0px" y="0px"
	 viewBox="0 0 133.5 34.7" style="enable-background:new 0 0 133.5 34.7;" xml:space="preserve">
<style type="text/css">
	.st0{fill:#FFFFFF;}
	.st1{fill:#FBB03B;}
	.st2{fill:#622272;}
</style>
<g>
	<g>
		<path class="st0" d="M17.3,34.2C8,34.2,0.5,26.6,0.5,17.3S8,0.5,17.3,0.5h98.9c9.3,0,16.8,7.5,16.8,16.8s-7.5,16.8-16.8,16.8H17.3
			z"/>
		<path class="st1" d="M116.2,1c9,0,16.3,7.3,16.3,16.3c0,9-7.3,16.3-16.3,16.3H17.3C8.3,33.7,1,26.3,1,17.3C1,8.3,8.3,1,17.3,1
			H116.2 M116.2,0H17.3C7.8,0,0,7.8,0,17.3c0,9.6,7.8,17.3,17.3,17.3h98.9c9.6,0,17.3-7.8,17.3-17.3C133.5,7.8,125.8,0,116.2,0
			L116.2,0z"/>
	</g>
</g>
<g>
	<path class="st2" d="M26.3,25.1c-0.7,0-1.2,0.6-1.2,1.2c0,0.7,0.5,1.2,1.2,1.2c0.7,0,1.2-0.6,1.2-1.2C27.5,25.6,27,25.1,26.3,25.1z
		"/>
	<path class="st2" d="M29.3,25.1c-0.7,0-1.2,0.6-1.2,1.2c0,0.7,0.5,1.2,1.2,1.2s1.2-0.6,1.2-1.2C30.5,25.6,30,25.1,29.3,25.1z"/>
	<path class="st2" d="M43.6,11.3c-0.7,0-1.2,0.6-1.2,1.2c0,0.7,0.5,1.2,1.2,1.2s1.2-0.6,1.2-1.2C44.8,11.8,44.3,11.3,43.6,11.3z"/>
	<path class="st2" d="M41.3,21.7H39h-0.3h-1.2v-2.8c0-2.5-1-4-4.2-4c-1.9,0-3.6,0.3-3.6,0.3v6.5h-1.2c-3.4,0-4.5-1.2-4.5-3.7
		c0-1,0.2-2.1,0.6-3l-2.5,0.4c-0.3,0.7-0.5,1.9-0.5,2.8c0,3.3,1.7,5.3,6.6,5.3H32v-6.7c0,0,0.6-0.1,1.2-0.1c1.5,0,2,0.6,2,2.4v4.5
		h3.5H39h4.6v-8.5h-2.4V21.7z"/>
	<path class="st2" d="M40.6,13.7c0.7,0,1.2-0.6,1.2-1.2c0-0.7-0.5-1.2-1.2-1.2c-0.7,0-1.2,0.6-1.2,1.2C39.4,13.2,40,13.7,40.6,13.7z
		"/>
	<polygon class="st2" points="50.5,20.4 47.9,10.8 45.5,11.1 48.1,20.4 	"/>
	<path class="st2" d="M64.7,14.9c-1.9,0-3.7,1.2-4.6,3.3h0c0.1-0.9,0.2-1.9,0.2-2.7v-0.5h-2.4v6.6H56h-0.3h-1.5V10.9h-2.4v10.8h-5.6
		v1.9h9.4H56h12.1c0.2-1.4,0.3-2.9,0.3-4.3C68.4,16.5,67.2,14.9,64.7,14.9z M65.9,21.7h-5.6c0.5-2.5,2.1-4.9,4-4.9
		c1.3,0,1.7,1,1.7,2.7C66,20.2,65.9,21,65.9,21.7z"/>
	<path class="st2" d="M79.5,17.4c0.7,0,1.2-0.6,1.2-1.2c0-0.7-0.6-1.2-1.2-1.2s-1.2,0.6-1.2,1.2C78.3,16.8,78.9,17.4,79.5,17.4z"/>
	<path class="st2" d="M82.2,22.4c0,2.6-1,3.4-2.5,3.4c-1.3,0-2.6-0.7-2.6-3.5c0-1.1,0.2-2.3,0.5-3.5l-2.4,0.5
		c-0.3,1-0.4,2.2-0.4,3.2c0,3.6,1.9,5.1,4.8,5.1c3.4,0,5.1-1.8,5.1-5.4v-7.2h-2.4V22.4z"/>
	<path class="st2" d="M92.3,16.6c2.9,0.7,4.3,2.3,4.4,5.1h-5.1h-0.3h-1.5V10.9h-2.4v12.7h3.9h0.3h7.4v-1.2c0-3.9-1.6-5.9-4-7
		l4.4-2.6v-2.4l-7.1,4.5V16.6z"/>
	<path class="st2" d="M103.6,23.8c0,1.9-0.7,2.5-1.9,2.5c-0.6,0-1-0.1-1.5-0.2l-0.2,1.9c0.5,0.1,1,0.2,1.5,0.2
		c3.7,0,4.4-2.2,4.4-4.5v-8.5h-2.4V23.8z"/>
	<path class="st2" d="M111.2,8.8c-0.9,0-1.3-0.3-1.3-0.7c0-0.4,0.3-0.6,0.9-0.6c0.4,0,0.8,0.1,0.9,0.1l0.2-1.2
		c-0.1,0-0.6-0.1-1.1-0.1c-1.9,0-2.5,0.9-2.5,1.9c0,0.3,0.1,0.6,0.3,0.7c-0.2-0.1-0.6-0.1-1.1-0.1v1.2h4.6V8.8H111.2z"/>
	<rect x="108.9" y="11.2" class="st2" width="2.4" height="12.4"/>
</g>
</svg>
