<?xml version="1.0" encoding="utf-8"?>
<!-- Generator: Adobe Illustrator 21.1.0, SVG Export Plug-In . SVG Version: 6.00 Build 0)  -->
<svg version="1.1" id="Layer_1" xmlns="http://www.w3.org/2000/svg" xmlns:xlink="http://www.w3.org/1999/xlink" x="0px" y="0px"
	 viewBox="0 0 133.5 34.7" style="enable-background:new 0 0 133.5 34.7;" xml:space="preserve">
<style type="text/css">
	.st0{fill:#FBB040;}
	.st1{fill:#231F20;}
</style>
<g>
	<path class="st0" d="M133.5,17.3c0,9.6-7.8,17.3-17.3,17.3H17.3C7.8,34.7,0,26.9,0,17.3l0,0C0,7.8,7.8,0,17.3,0h98.9
		C125.8,0,133.5,7.8,133.5,17.3L133.5,17.3z"/>
</g>
<g>
	<path class="st1" d="M22.6,25.1c-0.7,0-1.2,0.6-1.2,1.2c0,0.7,0.5,1.2,1.2,1.2c0.7,0,1.2-0.6,1.2-1.2
		C23.8,25.6,23.2,25.1,22.6,25.1z"/>
	<path class="st1" d="M25.6,25.1c-0.7,0-1.2,0.6-1.2,1.2c0,0.7,0.5,1.2,1.2,1.2s1.2-0.6,1.2-1.2C26.7,25.6,26.2,25.1,25.6,25.1z"/>
	<path class="st1" d="M36.9,13.7c0.7,0,1.2-0.6,1.2-1.2c0-0.7-0.5-1.2-1.2-1.2c-0.7,0-1.2,0.6-1.2,1.2
		C35.7,13.2,36.2,13.7,36.9,13.7z"/>
	<path class="st1" d="M39.9,11.3c-0.7,0-1.2,0.6-1.2,1.2c0,0.7,0.5,1.2,1.2,1.2s1.2-0.6,1.2-1.2C41,11.8,40.5,11.3,39.9,11.3z"/>
	<path class="st1" d="M37.5,21.7h-2.2H35h-1.2v-2.8c0-2.5-1-4-4.2-4c-1.9,0-3.6,0.3-3.6,0.3v6.5h-1.2c-3.4,0-4.5-1.2-4.5-3.7
		c0-1,0.2-2.1,0.6-3l-2.5,0.4c-0.3,0.7-0.5,1.9-0.5,2.8c0,3.3,1.7,5.3,6.6,5.3h3.8v-6.7c0,0,0.6-0.1,1.2-0.1c1.5,0,2,0.6,2,2.4v4.5
		H35h0.3h4.6v-8.5h-2.4V21.7z"/>
	<polygon class="st1" points="46.8,20.4 44.1,10.8 41.8,11.1 44.4,20.4 	"/>
	<path class="st1" d="M61,14.9c-1.9,0-3.7,1.2-4.6,3.3h0c0.1-0.9,0.2-1.9,0.2-2.7v-0.5h-2.4v6.6h-1.9H52h-1.5V10.9h-2.4v10.8h-5.6
		v1.9H52h0.3h12.1c0.2-1.4,0.3-2.9,0.3-4.3C64.6,16.5,63.5,14.9,61,14.9z M62.1,21.7h-5.6c0.5-2.5,2.1-4.9,4-4.9
		c1.3,0,1.7,1,1.7,2.7C62.2,20.2,62.2,21,62.1,21.7z"/>
	<path class="st1" d="M78.9,13.7c0.7,0,1.2-0.6,1.2-1.2c0-0.7-0.5-1.2-1.2-1.2s-1.2,0.6-1.2,1.2C77.7,13.2,78.3,13.7,78.9,13.7z"/>
	<path class="st1" d="M75.9,13.7c0.7,0,1.2-0.6,1.2-1.2c0-0.7-0.5-1.2-1.2-1.2c-0.7,0-1.2,0.6-1.2,1.2
		C74.7,13.2,75.3,13.7,75.9,13.7z"/>
	<path class="st1" d="M80.4,21.7h-2.4c-3.4,0-4.5-1.2-4.5-3.7c0-1,0.2-2.1,0.6-3l-2.5,0.4c-0.3,0.7-0.5,1.9-0.5,2.8
		c0,3.3,1.7,5.3,6.6,5.3h5.1v-8.5h-2.4V21.7z"/>
	<path class="st1" d="M95.2,14.9c-3.1,0-4.7,2.1-4.7,4.4c0,1.3,0.3,2.1,1,2.6c0,0-0.4-0.1-1-0.1h-0.8h-0.3H88V10.9h-2.4v12.7h3.9
		h0.3h9.5V19C99.3,16.5,98.1,14.9,95.2,14.9z M97,21.7h-1.4c-1.9,0-2.7-0.8-2.7-2.5c0-1.4,0.8-2.4,2.1-2.4c1.2,0,1.9,0.8,1.9,2.6
		V21.7z"/>
	<path class="st1" d="M96.5,13.7c0.7,0,1.2-0.6,1.2-1.2c0-0.7-0.5-1.2-1.2-1.2s-1.2,0.6-1.2,1.2C95.3,13.2,95.8,13.7,96.5,13.7z"/>
	<path class="st1" d="M93.5,13.7c0.7,0,1.2-0.6,1.2-1.2c0-0.7-0.5-1.2-1.2-1.2c-0.7,0-1.2,0.6-1.2,1.2
		C92.3,13.2,92.9,13.7,93.5,13.7z"/>
	<path class="st1" d="M101.2,19.4c0,2.6,1.3,4.2,4.8,4.2h1.4v0.3c0,1.7-1.2,2.4-3.1,2.4c-1.4,0-2.8-0.3-2.8-0.3l-0.1,1.9
		c0,0,1.4,0.2,2.7,0.2c4,0,5.6-2,5.6-4.5v-8.1c0,0-1.6-0.6-3.8-0.6C102.7,14.9,101.2,17,101.2,19.4z M107.5,21.7h-1.2
		c-1.9,0-2.7-0.9-2.7-2.5c0-1.4,0.8-2.4,2.1-2.4c1,0,1.7,0.3,1.7,0.3V21.7z"/>
	<rect x="112.6" y="11.2" class="st1" width="2.4" height="12.4"/>
	<path class="st1" d="M115,8.8c-0.9,0-1.3-0.3-1.3-0.7c0-0.4,0.3-0.6,0.9-0.6c0.4,0,0.8,0.1,0.9,0.1l0.2-1.2c-0.1,0-0.6-0.1-1.1-0.1
		c-1.9,0-2.5,0.9-2.5,1.9c0,0.3,0.1,0.6,0.3,0.7c-0.2-0.1-0.6-0.1-1.1-0.1v1.2h4.6V8.8H115z"/>
</g>
</svg>
