<?xml version="1.0" encoding="utf-8"?>
<!-- Generator: Adobe Illustrator 21.1.0, SVG Export Plug-In . SVG Version: 6.00 Build 0)  -->
<svg version="1.1" id="Layer_1" xmlns="http://www.w3.org/2000/svg" xmlns:xlink="http://www.w3.org/1999/xlink" x="0px" y="0px"
	 viewBox="0 0 133.5 34.7" style="enable-background:new 0 0 133.5 34.7;" xml:space="preserve">
<style type="text/css">
	.st0{fill:#FBB03B;}
</style>
<g>
	<g>
		<path class="st0" d="M133.5,17.3c0,9.6-7.8,17.3-17.3,17.3H17.3C7.8,34.7,0,26.9,0,17.3l0,0C0,7.8,7.8,0,17.3,0h98.9
			C125.8,0,133.5,7.8,133.5,17.3L133.5,17.3z"/>
	</g>
</g>
<g>
	<path d="M11.7,13.7c0.7,0,1.2-0.6,1.2-1.2c0-0.7-0.5-1.2-1.2-1.2c-0.7,0-1.2,0.6-1.2,1.2C10.5,13.2,11,13.7,11.7,13.7z"/>
	<path d="M14.7,13.7c0.7,0,1.2-0.6,1.2-1.2c0-0.7-0.5-1.2-1.2-1.2s-1.2,0.6-1.2,1.2C13.5,13.2,14,13.7,14.7,13.7z"/>
	<path d="M30.7,25.1c-0.7,0-1.2,0.6-1.2,1.2c0,0.7,0.5,1.2,1.2,1.2c0.7,0,1.2-0.6,1.2-1.2C31.9,25.6,31.3,25.1,30.7,25.1z"/>
	<path d="M33.6,25.1c-0.7,0-1.2,0.6-1.2,1.2c0,0.7,0.5,1.2,1.2,1.2s1.2-0.6,1.2-1.2C34.8,25.6,34.3,25.1,33.6,25.1z"/>
	<path d="M63.1,21.7h-2h-0.3h-1.4c0.1-0.8,0.1-1.7,0.1-2.5c0-2.7-1.2-4.4-3.7-4.4c-1.9,0-3.7,1.2-4.6,3.3h0c0.1-0.9,0.2-1.9,0.2-2.7
		v-0.5H49v6.6h-1.9h-0.3h-1.1c0.1-0.5,0.1-1,0.1-1.5c0-3.5-1.6-5.2-5.7-5.2c-0.8,0-1.6,0.1-2.3,0.2V17c0.7-0.1,1.3-0.1,2.1-0.1
		c2.6,0,3.5,1.2,3.5,3.5c0,0.5,0,0.9-0.1,1.4h-6.7h-0.3h-1.5v-6.6h-2.4v6.6h-3.1h-0.3H28c0.1-0.5,0.1-1,0.1-1.5
		c0-3.5-1.6-5.2-5.7-5.2c-0.8,0-1.6,0.1-2.3,0.2V17c0.7-0.1,1.3-0.1,2.1-0.1c2.6,0,3.5,1.2,3.5,3.5c0,0.5,0,0.9-0.1,1.4h-6.7h-0.3
		h-1.5v-6.2c0,0-1.6-0.6-3.8-0.6c-3.3,0-4.8,2.2-4.8,4.5c0,2.6,1.3,4.2,4.8,4.2h5.2h0.3h10.2h0.3h7h0.3h10.2h0.3h13.7h0.3h4.3V10.9
		h-2.4V21.7z M14.9,21.7h-1.2c-1.9,0-2.7-0.9-2.7-2.5c0-1.4,0.8-2.4,2.1-2.4c1,0,1.7,0.3,1.7,0.3V21.7z M57,21.7h-5.6
		c0.5-2.5,2.1-4.9,4-4.9c1.3,0,1.7,1,1.7,2.7C57.1,20.2,57.1,21,57,21.7z"/>
	<rect x="68.5" y="10.9" width="2.4" height="12.7"/>
	<path d="M82.4,25.1c-0.7,0-1.2,0.6-1.2,1.2c0,0.7,0.5,1.2,1.2,1.2c0.7,0,1.2-0.6,1.2-1.2C83.6,25.6,83.1,25.1,82.4,25.1z"/>
	<path d="M85.4,25.1c-0.7,0-1.2,0.6-1.2,1.2c0,0.7,0.5,1.2,1.2,1.2s1.2-0.6,1.2-1.2C86.5,25.6,86,25.1,85.4,25.1z"/>
	<path d="M96.7,13.7c0.7,0,1.2-0.6,1.2-1.2c0-0.7-0.5-1.2-1.2-1.2c-0.7,0-1.2,0.6-1.2,1.2C95.5,13.2,96,13.7,96.7,13.7z"/>
	<path d="M97.3,21.7h-2.2h-0.3h-1.2v-2.8c0-2.5-1-4-4.2-4c-1.9,0-3.6,0.3-3.6,0.3v6.5h-1.2c-3.4,0-4.5-1.2-4.5-3.7
		c0-1,0.2-2.1,0.6-3l-2.5,0.4c-0.3,0.7-0.5,1.9-0.5,2.8c0,3.3,1.7,5.3,6.6,5.3h3.8v-6.7c0,0,0.6-0.1,1.2-0.1c1.5,0,2,0.6,2,2.4v4.5
		h3.5h0.3h4.6v-8.5h-2.4V21.7z"/>
	<path d="M99.7,11.3c-0.7,0-1.2,0.6-1.2,1.2c0,0.7,0.5,1.2,1.2,1.2s1.2-0.6,1.2-1.2C100.9,11.8,100.3,11.3,99.7,11.3z"/>
	<polygon points="106.6,20.4 103.9,10.8 101.6,11.1 104.2,20.4 	"/>
	<path d="M120.8,14.9c-1.9,0-3.7,1.2-4.6,3.3h0c0.1-0.9,0.2-1.9,0.2-2.7v-0.5H114v6.6h-1.9h-0.3h-1.5V10.9h-2.4v10.8h-5.6v1.9h9.4
		h0.3h12.1c0.2-1.4,0.3-2.9,0.3-4.3C124.5,16.5,123.3,14.9,120.8,14.9z M121.9,21.7h-5.6c0.5-2.5,2.1-4.9,4-4.9c1.3,0,1.7,1,1.7,2.7
		C122,20.2,122,21,121.9,21.7z"/>
</g>
</svg>
