<svg version="1.2" xmlns="http://www.w3.org/2000/svg" viewBox="0 0 1024 768" width="1024" height="768">
	<title>albagreb3-svg</title>
	<style>
		.s0 { fill: #632872 } 
		.s1 { fill: #f6dfb4 } 
		.s2 { fill: #fce37f } 
		.s3 { fill: #ca4977 } 
		.s4 { fill: #f16175 } 
		.s5 { fill: #ffffff } 
	</style>
	<g>
		<path class="s0" d="m669.5 157.1c0.2 0.5 0.3 0.9 0.3 1.3 0 1.1-0.7 2-2.3 2.6l-5.9 2.3c-1.8 0.7-3.3 1.3-3.3 2.3 0 0.1 0 0.2 0 0.2l-0.2 0.1c-0.2-0.5-0.3-0.9-0.3-1.3 0-1.1 0.6-2.1 2.2-2.7l5.9-2.3c2-0.8 3.3-1.4 3.3-2.6z"/>
		<path class="s0" d="m693.2 121.1c0-5.2 2.5-7.1 6.3-7.3v0.6c-2.4 0.3-2.4 4.5-2.4 8.8v2.6c0 6.6-5.4 12-11.9 12h-22.9c-14.2 0-22.1-6.2-22.1-16.8 0-2.4 0.4-4.7 1.4-6.9l0.4 0.3c-0.7 1.4-0.8 3.2-0.8 4.8 0 8.8 6.1 14.7 21.1 14.7h22.9c4.6 0 8-3.5 8-8.7zm-23.6 28l-3.4-3.3 3.4-3.4 3.4 3.4z"/>
		<path class="s0" d="m713.6 162.4c0.2 0.5 0.3 0.9 0.3 1.3 0 1.1-0.7 2-2.3 2.6l-5.9 2.3c-1.8 0.7-3.3 1.3-3.3 2.3 0 0.1 0 0.2 0 0.2l-0.2 0.1c-0.2-0.5-0.3-0.9-0.3-1.3 0-1.1 0.6-2.1 2.2-2.7l5.9-2.3c2-0.8 3.3-1.4 3.3-2.6z"/>
		<path class="s0" d="m716 133.9h10.6v3.9h-10.6c0 7-1.8 12.6-6.1 17.1-3.8 4.3-8.4 6.4-14 6.4-2.3 0-4.6-0.5-7.1-1.4l0.4-0.7c1.6 0.8 3.2 1.2 5 1.2 9.7 0 18-8.9 18-22.6v-25.4h3.9v21.5z"/>
		<path fill-rule="evenodd" class="s0" d="m745.5 82c0.4-0.2 0.8-0.3 1.3-0.4v0.2c-0.8 0.1-0.9 1.5-0.9 2.9v2.4c0 2.1-1.7 3.8-3.8 3.8-2.2 0-4.1-1.4-4.1-3.4v-1.4c0-2.2 1.9-4.1 4.1-4.1zm-3.1 1.3c-1.7 0-3 1.2-3 2.8v1.4c0 1.1 1.2 2.1 2.7 2.1 1.3 0 2.5-1.1 2.5-2.5v-3c0-0.3 0-0.5 0.1-0.7h-2.3z"/>
		<path class="s0" d="m761.9 137.8h-35.4v-3.9h5.5c-2-2-3-4.9-3-7.6 0-6.1 5.4-11.5 11.6-11.5h8.2c4.1 0 8.2 0 8.4-2.6h0.6c0 4.1-2.3 6.4-6.9 6.4h-9.8c-5 0-8.5 3.3-8.5 7.6 0 4.3 3.4 7.5 8 7.6h21.4v4zm-14.8-31.7l-3.4-3.3 3.4-3.4 3.4 3.4z"/>
		<path class="s0" d="m780.1 100.8c0.2 0.5 0.3 0.9 0.3 1.3 0 1.1-0.7 2-2.3 2.6l-5.9 2.3c-1.8 0.7-3.3 1.3-3.3 2.3 0 0.1 0 0.2 0 0.2l-0.2 0.1c-0.2-0.5-0.3-0.9-0.3-1.3 0-1.1 0.6-2.1 2.2-2.7l5.9-2.3c2-0.8 3.3-1.4 3.3-2.6z"/>
		<path fill-rule="evenodd" class="s0" d="m769.8 133.9v-10.4c0-6.4 5.6-12.1 12.1-12.1h9c1.1-0.7 2.3-1 3.8-1.2v0.5c-2.3 0.4-2.3 4.5-2.3 8.7l-0.2 7.3c0 2.8 1.4 5.4 3.7 6.6 0.7 0.4 1.8 0.5 3.6 0.6v3.9c-4.2 0-7.3-1.6-9.3-4.7-1.9 3-5.4 4.7-9.1 4.7h-19.2v-3.9zm12.8-18.6c-5.1 0-8.8 3.7-8.8 8.3v10.3h7c4.1 0 7.5-3 7.5-7v-9.3c0-0.9 0.1-1.7 0.3-2.3z"/>
		<path fill-rule="evenodd" class="s0" d="m811.2 83.2c0.4-0.2 0.8-0.3 1.3-0.4v0.2c-0.8 0.1-0.9 1.5-0.9 2.9v2.4c0 2.1-1.7 3.8-3.8 3.8-2.2 0-4.1-1.4-4.1-3.4v-1.4c0-2.2 1.9-4.1 4.1-4.1zm-3 1.3c-1.7 0-3 1.2-3 2.8v1.4c0 1.1 1.2 2.1 2.7 2.1 1.3 0 2.5-1.1 2.5-2.5v-3c0-0.3 0-0.5 0.1-0.7h-2.3z"/>
		<path class="s0" d="m803.7 92.2c3.8 0.1 6.4 2 6.4 7.1v25.9c0 4.8-2.9 9.5-7.2 11.5-1.4 0.7-2.6 1.1-3.6 1.1v-3.9c2.8-0.2 6.9-3.3 6.9-8.7v-23.9c0-4.2 0-8.4-2.5-8.6z"/>
		<path class="s0" d="m818.9 101.9c0-6.8-0.3-8.7-2.3-9v-0.4c4.2 0.1 6.3 2.6 6.3 7.4v38h-3.9v-36z"/>
		<path class="s0" d="m851.3 83.3c-1.5 2.8-4 4.1-6.3 4.1-1.7 0-3.4-0.8-4.4-2.2l0.2-0.1c0.9 1.1 2.1 1.7 3.6 1.7 2 0 4.3-1.3 5.9-4.1l0.4-0.7c-0.2 0-0.4 0.1-0.7 0.1-2.1 0-3.7-2.1-3.7-3.7 0-0.5 0.1-0.9 0.4-1.4l0.7-1.2c0.7-1.2 2-1.9 3.4-1.9 0.6 0 1.2 0.2 1.8 0.5l-0.4 1.1c-0.5-0.2-0.9-0.4-1.4-0.4-0.9 0-1.8 0.5-2.3 1.3l-0.6 1.2c-0.1 0.2-0.2 0.5-0.2 0.7 0 0.9 1 2.4 2.5 2.4 0.5 0 1.1-0.2 1.6-0.6l2.1-3.8-1.7-0.9 0.4-1.1 2.7 1.5q0.6 0 1.2 0.3l-0.1 0.2q-0.2 0-0.3 0c-0.6 0-1.1 1-1.7 2l-1.1 2z"/>
		<path fill-rule="evenodd" class="s0" d="m862.6 111.2c0.9-0.6 2.3-0.9 3.7-1v0.5c-2.5 0.3-2.5 4.5-2.5 8.6v7.2c0 6.2-5.2 11.2-11.3 11.2-6.5 0-12.1-4.3-12.1-10v-4.3c0-6.6 5.7-12.3 12.3-12.3h9.9zm-9.2 3.9c-5.2 0-8.9 3.8-8.9 8.3v4.3c0 3.1 3.4 6.1 8.1 6.1 3.9 0 7.4-3.3 7.4-7.3v-9.1c0-1.1 0-1.7 0.3-2.3zm-5.2-8.9l-3.5-3.5 3.5-3.4 3.4 3.4zm6.9 0l-3.5-3.5 3.5-3.4 3.4 3.4z"/>
		<path class="s0" d="m909.1 137.8c-4.1 0-7.9-2-9.9-5.4-1.3 2.4-5.4 5.4-9.6 5.4h-20.5v-3.9h13v-15.7c0-4.4-0.3-8.6-2.7-8.9v-0.5c4 0.2 6.6 2.2 6.6 7.4v17.8h3.5c4.6 0 8.1-4 8.1-9.2v-24.8c0-4.5-0.1-8.5-2.5-8.8v-0.6c3.9 0.1 6.4 2.1 6.4 7.3v29.5c0.3 3.9 3.4 6.2 7.4 6.5v3.9z"/>
		<path class="s0" d="m948.9 97.3c0.2 0.5 0.3 0.9 0.3 1.3 0 1.1-0.7 2-2.3 2.6l-5.9 2.3c-1.8 0.7-3.3 1.3-3.3 2.3 0 0.1 0 0.2 0 0.2l-0.2 0.1c-0.2-0.5-0.3-0.9-0.3-1.3 0-1.1 0.6-2.1 2.2-2.7l5.9-2.3c2-0.8 3.3-1.4 3.3-2.6z"/>
		<path fill-rule="evenodd" class="s0" d="m959.8 137.8h-50.9v-3.9h3.3c0.7-0.4 1-1.4 1-3 0-4.1-1-7.9-3.8-10.5l0.5-0.4c2.7 2.5 4.4 5.6 5.2 8.7 0.8-9.8 10.5-17.4 23.1-17.4h8.3c7.3 0.6 13.4 7.3 13.3 14.8zm-3.9-3.9v-7.8c0-4.5-2-7.7-6.1-9.7-1.7-0.7-4-1.1-7.4-1.1h-4.1c-13.3 0-22.5 7.4-22.5 17.3v1.3z"/>
	</g>
	<path fill-rule="evenodd" class="s1" d="m1024 44.8h-11.1v-6.6c0-1.7-1.1-3-2.6-3.5 1.4-1.1 2.3-2.9 2.3-4.8 0-3.4-2.8-6.2-6.2-6.2-1 0-1.9 0.2-2.8 0.7 0.4-1.1 0.5-2.2 0.5-3.4 0-6.2-5-11.2-11.2-11.2-6.2 0-11.2 5-11.2 11.2 0 1.2 0.2 2.4 0.5 3.4-0.8-0.4-1.8-0.7-2.8-0.7-3.4 0-6.2 2.8-6.2 6.2 0 1.9 0.9 3.6 2.3 4.8-1.5 0.4-2.6 1.8-2.6 3.5v6.6h-10-10v-6.6c0-1.7-1.1-3-2.6-3.5 1.4-1.1 2.3-2.9 2.3-4.8 0-3.4-2.8-6.2-6.2-6.2-1 0-1.9 0.2-2.8 0.7 0.4-1.1 0.5-2.2 0.5-3.4 0-6.2-5-11.2-11.2-11.2-6.2 0-11.2 5-11.2 11.2 0 1.2 0.2 2.4 0.5 3.4-0.8-0.4-1.8-0.7-2.8-0.7-3.4 0-6.2 2.8-6.2 6.2 0 1.9 0.9 3.6 2.3 4.8-1.5 0.4-2.6 1.8-2.6 3.5v6.6h-10-10v-6.6c0-1.7-1.1-3-2.6-3.5 1.4-1.1 2.3-2.9 2.3-4.8 0-3.4-2.8-6.2-6.2-6.2-1 0-1.9 0.2-2.8 0.7 0.4-1.1 0.5-2.2 0.5-3.4 0-6.2-5-11.2-11.2-11.2-6.2 0-11.2 5-11.2 11.2 0 1.2 0.2 2.4 0.5 3.4-0.8-0.4-1.8-0.7-2.8-0.7-3.4 0-6.2 2.8-6.2 6.2 0 1.9 0.9 3.6 2.3 4.8-1.5 0.4-2.6 1.8-2.6 3.5v6.6h-10-10v-6.6c0-1.7-1.1-3-2.6-3.5 1.4-1.1 2.3-2.9 2.3-4.8 0-3.4-2.8-6.2-6.2-6.2-1 0-1.9 0.2-2.8 0.7 0.4-1.1 0.5-2.2 0.5-3.4 0-6.2-5-11.2-11.2-11.2-6.2 0-11.2 5-11.2 11.2 0 1.2 0.2 2.4 0.5 3.4-0.8-0.4-1.8-0.7-2.8-0.7-3.4 0-6.2 2.8-6.2 6.2 0 1.9 0.9 3.6 2.3 4.8-1.5 0.4-2.6 1.8-2.6 3.5v6.6h-10-10v-6.6c0-1.7-1.1-3-2.6-3.5 1.4-1.1 2.3-2.9 2.3-4.8 0-3.4-2.8-6.2-6.2-6.2-1 0-1.9 0.2-2.8 0.7 0.4-1.1 0.5-2.2 0.5-3.4 0-6.2-5-11.2-11.2-11.2-6.2 0-11.2 5-11.2 11.2 0 1.2 0.2 2.4 0.5 3.4-0.8-0.4-1.8-0.7-2.8-0.7-3.4 0-6.2 2.8-6.2 6.2 0 1.9 0.9 3.6 2.3 4.8-1.5 0.4-2.6 1.8-2.6 3.5v6.6h-10-10v-6.6c0-1.7-1.1-3-2.6-3.5 1.4-1.1 2.3-2.9 2.3-4.8 0-3.4-2.8-6.2-6.2-6.2-1 0-1.9 0.2-2.8 0.7 0.4-1.1 0.5-2.2 0.5-3.4 0-6.2-5-11.2-11.2-11.2-6.2 0-11.2 5-11.2 11.2 0 1.2 0.2 2.4 0.5 3.4-0.8-0.4-1.8-0.7-2.8-0.7-3.4 0-6.2 2.8-6.2 6.2 0 1.9 0.9 3.6 2.3 4.8-1.5 0.4-2.6 1.8-2.6 3.5v6.6h-10-10v-6.6c0-1.7-1.1-3-2.6-3.5 1.4-1.1 2.3-2.9 2.3-4.8 0-3.4-2.8-6.2-6.2-6.2-1 0-1.9 0.2-2.8 0.7 0.4-1.1 0.5-2.2 0.5-3.4 0-6.2-5-11.2-11.2-11.2-6.2 0-11.2 5-11.2 11.2 0 1.2 0.2 2.4 0.5 3.4-0.8-0.4-1.8-0.7-2.8-0.7-3.4 0-6.2 2.8-6.2 6.2 0 1.9 0.9 3.6 2.3 4.8-1.5 0.4-2.6 1.8-2.6 3.5v6.6h-10-10v-6.6c0-1.7-1.1-3-2.6-3.5 1.4-1.1 2.3-2.9 2.3-4.8 0-3.4-2.8-6.2-6.2-6.2-1 0-1.9 0.2-2.8 0.7 0.4-1.1 0.5-2.2 0.5-3.4 0-6.2-5-11.2-11.2-11.2-6.2 0-11.2 5-11.2 11.2 0 1.2 0.2 2.4 0.5 3.4-0.8-0.4-1.8-0.7-2.8-0.7-3.4 0-6.2 2.8-6.2 6.2 0 1.9 0.9 3.6 2.3 4.8-1.5 0.4-2.6 1.8-2.6 3.5v6.6h-10-10v-6.6c0-1.7-1.1-3-2.6-3.5 1.4-1.1 2.3-2.9 2.3-4.8 0-3.4-2.8-6.2-6.2-6.2-1 0-1.9 0.2-2.8 0.7 0.4-1.1 0.5-2.2 0.5-3.4 0-6.2-5-11.2-11.2-11.2-6.2 0-11.2 5-11.2 11.2 0 1.2 0.2 2.4 0.5 3.4-0.8-0.4-1.8-0.7-2.8-0.7-3.4 0-6.2 2.8-6.2 6.2 0 1.9 0.9 3.6 2.3 4.8-1.5 0.4-2.6 1.8-2.6 3.5v6.6h-10-10v-6.6c0-1.7-1.1-3-2.6-3.5 1.4-1.1 2.3-2.9 2.3-4.8 0-3.4-2.8-6.2-6.2-6.2-1 0-1.9 0.2-2.8 0.7 0.4-1.1 0.5-2.2 0.5-3.4 0-6.2-5-11.2-11.2-11.2-6.2 0-11.2 5-11.2 11.2 0 1.2 0.2 2.4 0.5 3.4-0.8-0.4-1.8-0.7-2.8-0.7-3.4 0-6.2 2.8-6.2 6.2 0 1.9 0.9 3.6 2.3 4.8-1.5 0.4-2.6 1.8-2.6 3.5v6.6h-10-10v-6.6c0-1.7-1.1-3-2.6-3.5 1.4-1.1 2.3-2.9 2.3-4.8 0-3.4-2.8-6.2-6.2-6.2-1 0-1.9 0.2-2.8 0.7 0.4-1.1 0.5-2.2 0.5-3.4 0-6.2-5-11.2-11.2-11.2-6.2 0-11.2 5-11.2 11.2 0 1.2 0.2 2.4 0.5 3.4-0.8-0.4-1.8-0.7-2.8-0.7-3.4 0-6.2 2.8-6.2 6.2 0 1.9 0.9 3.6 2.3 4.8-1.5 0.4-2.6 1.8-2.6 3.5v6.6h-10-10v-6.6c0-1.7-1.1-3-2.6-3.5 1.4-1.1 2.3-2.9 2.3-4.8 0-3.4-2.8-6.2-6.2-6.2-1 0-1.9 0.2-2.8 0.7 0.4-1.1 0.5-2.2 0.5-3.4 0-6.2-5-11.2-11.2-11.2-6.2 0-11.2 5-11.2 11.2 0 1.2 0.2 2.4 0.5 3.4-0.8-0.4-1.8-0.7-2.8-0.7-3.4 0-6.2 2.8-6.2 6.2 0 1.9 0.9 3.6 2.3 4.8-1.5 0.4-2.6 1.8-2.6 3.5v6.6h-10-10v-6.6c0-1.7-1.1-3-2.6-3.5 1.4-1.1 2.3-2.9 2.3-4.8 0-3.4-2.8-6.2-6.2-6.2-1 0-1.9 0.2-2.8 0.7 0.4-1.1 0.5-2.2 0.5-3.4 0-6.2-5-11.2-11.2-11.2-6.2 0-11.2 5-11.2 11.2 0 1.2 0.2 2.4 0.5 3.4-0.8-0.4-1.8-0.7-2.8-0.7-3.4 0-6.2 2.8-6.2 6.2 0 1.9 0.9 3.6 2.3 4.8-1.5 0.4-2.6 1.8-2.6 3.5v6.6h-10-10v-6.6c0-1.7-1.1-3-2.6-3.5 1.4-1.1 2.3-2.9 2.3-4.8 0-3.4-2.8-6.2-6.2-6.2-1 0-1.9 0.2-2.8 0.7 0.4-1.1 0.5-2.2 0.5-3.4 0-6.2-5-11.2-11.2-11.2-6.2 0-11.2 5-11.2 11.2 0 1.2 0.2 2.4 0.5 3.4-0.8-0.4-1.8-0.7-2.8-0.7-3.4 0-6.2 2.8-6.2 6.2 0 1.9 0.9 3.6 2.3 4.8-1.5 0.4-2.6 1.8-2.6 3.5v6.6h-10-10v-6.6c0-1.7-1.1-3-2.6-3.5 1.4-1.1 2.3-2.9 2.3-4.8 0-3.4-2.8-6.2-6.2-6.2-1 0-1.9 0.2-2.8 0.7 0.4-1.1 0.5-2.2 0.5-3.4 0-6.2-5-11.2-11.2-11.2-6.2 0-11.2 5-11.2 11.2 0 1.2 0.2 2.4 0.5 3.4-0.8-0.4-1.8-0.7-2.8-0.7-3.4 0-6.2 2.8-6.2 6.2 0 1.9 0.9 3.6 2.3 4.8-1.5 0.4-2.6 1.8-2.6 3.5v6.6h-10-10v-6.6c0-1.7-1.1-3-2.6-3.5 1.4-1.1 2.3-2.9 2.3-4.8 0-3.4-2.8-6.2-6.2-6.2-1 0-1.9 0.2-2.8 0.7 0.4-1.1 0.5-2.2 0.5-3.4 0-6.2-5-11.2-11.2-11.2-6.2 0-11.2 5-11.2 11.2 0 1.2 0.2 2.4 0.5 3.4-0.8-0.4-1.8-0.7-2.8-0.7-3.4 0-6.2 2.8-6.2 6.2 0 1.9 0.9 3.6 2.3 4.8-1.5 0.4-2.6 1.8-2.6 3.5v6.6h-10-10v-6.6c0-1.7-1.1-3-2.6-3.5 1.4-1.1 2.3-2.9 2.3-4.8 0-3.4-2.8-6.2-6.2-6.2-1 0-1.9 0.2-2.8 0.7 0.4-1.1 0.5-2.2 0.5-3.4 0-6.2-5-11.2-11.2-11.2-6.2 0-11.2 5-11.2 11.2 0 1.2 0.2 2.4 0.5 3.4-0.8-0.4-1.8-0.7-2.8-0.7-3.4 0-6.2 2.8-6.2 6.2 0 1.9 0.9 3.6 2.3 4.8-1.5 0.4-2.6 1.8-2.6 3.5v6.6h-12.9v-43.8h1024z"/>
	<path class="s2" d="m652.9 510.3c4.8-8.8 9.9-13.2 22.1-13.2h231.9c12.1 0 22.1-9.9 22.1-22.1v-3.7c0-12.1-9.9-22.1-22.1-22.1h-231.9c-12.1 0-22.1 9.9-22.1 22.1z"/>
	<g>
		<g>
			<path class="s3" d="m834.9 351.5c-1.1 0-2-0.9-2-2 0-1.1 0.9-1.9 2-1.9 1.1 0 1.9 0.9 1.9 1.9 0 1.1-0.8 2-1.9 2zm0 6.8c-1.1 0-2-0.9-2-2 0-1.1 0.9-1.9 2-1.9 1.1 0 1.9 0.9 1.9 1.9 0 1.1-0.8 2-1.9 2z"/>
			<path class="s3" d="m840.2 341.1h3.2v14.4h2.4v2.5h-5.6z"/>
			<path fill-rule="evenodd" class="s3" d="m845.4 358.1v-2.5h2c0.6 0 1.1 0.1 1.1 0.1 0 0-0.6-0.6-0.6-1.6 0-2.3 1.7-4.1 4.5-4.1 3.1 0 4.4 2.1 4.4 4.9v0.6h2.5v-0.3c0-5-2-7.4-6.8-7.4-1.6 0-3.6 0.4-5.1 0.9l-0.3-2.2c1.7-0.6 3.9-0.9 5.8-0.9 6 0 9.4 2.9 9.4 9.9v0.1h1.8v2.5zm8.9-3.2c0-1.7-0.6-2.9-2-2.9-1.1 0-1.7 0.8-1.7 1.7 0 1.2 1 1.9 2.3 1.9h1.5v-0.7z"/>
			<path class="s3" d="m863.8 355.6h3.4v-8.8h3.2v11.3h-6.5v-2.5zm0.9-12.3c0-0.9 0.7-1.6 1.6-1.6 0.9 0 1.6 0.7 1.6 1.6 0 0.9-0.7 1.6-1.6 1.6-0.9 0.1-1.6-0.7-1.6-1.6zm4 0c0-0.9 0.7-1.6 1.6-1.6 0.9 0 1.6 0.7 1.6 1.6 0 0.9-0.7 1.6-1.6 1.6-0.9 0-1.6-0.7-1.6-1.6z"/>
			<path class="s3" d="m874.2 341.1h3.2v14.4h2.4v2.5h-5.6z"/>
			<path fill-rule="evenodd" class="s3" d="m880.2 355.6c2.3 0 4.1-0.3 5.6-0.7-1.5-1.4-3-2.9-5-3.5l0.3-2.3c1.9-1.4 4.6-2.7 6.9-2.7 3.6 0 5.1 1.8 5.1 3.9 0 1.6-0.8 3.3-2.4 4.6q1.2 0.6 2.7 0.6h1.6v2.5h-1.9c-2.1 0-3.6-0.6-4.9-1.5-2 0.9-4.7 1.5-7.9 1.5h-0.6v-2.4zm8.2-2.1c1-0.8 1.5-1.8 1.5-2.7 0-1.1-0.7-2-2.3-2-1.3 0-2.8 0.9-3.6 1.4 1.6 0.6 2.9 2.1 4.4 3.3z"/>
			<path class="s3" d="m894.5 355.6h7.1c-0.1-3.7-2.1-5.9-5.9-6.8v-2.3l9.5-6v3.1l-5.9 3.5c3.2 1.4 5.3 4.1 5.3 9.3v1.6h-10.2v-2.4z"/>
			<path class="s3" d="m906 363.9l0.3-2.5c0.6 0.2 1.2 0.3 1.9 0.3 1.6 0 2.6-0.8 2.6-3.4v-11.5h3.2v11.4c0 3.1-1 6-5.9 6q-1.2 0-2.1-0.3z"/>
			<path class="s3" d="m922.7 355.6h7.1c-0.1-3.6-1.9-5.8-5.7-6.7l0.8-2.6c5.2 1.4 8 4.3 8 10.3v1.6h-10.2z"/>
			<path class="s3" d="m935.2 355.6h7.1c-0.1-3.6-1.9-5.8-5.7-6.7l0.8-2.6c4.9 1.3 7.7 4 8 9.4h1.6v2.5h-11.8z"/>
			<path class="s3" d="m946.6 355.6h3.7c-1.1-0.6-1.9-2-1.9-3.6 0-3 2-5.5 6.3-5.5 1.6 0 3 0.5 3 0.5l-0.6 2.5c0 0-1.1-0.5-2.5-0.5-1.8 0-3 1.2-3 3 0 2 1.7 3.6 5.4 3.6h1.9v2.5h-12.3z"/>
		</g>
	</g>
	<g>
		<g>
			<path class="s4" d="m653.7 259.4c-1 0-1.8-0.8-1.8-1.8 0-1 0.8-1.8 1.8-1.8 1 0 1.8 0.8 1.8 1.8 0 0.9-0.8 1.8-1.8 1.8z"/>
			<path class="s4" d="m657.6 257.9c0-1.3 0.2-2.7 0.5-3.9l3-0.5c-0.4 1.4-0.6 2.9-0.6 4.2 0 3.4 1.6 4.2 3.1 4.2 1.9 0 3.1-1 3.1-4.2v-7.7h2.9v4.3c0 1.6 0.4 2.6 1.7 2.6 1.3 0 1.6-0.9 1.6-2.5v-5.2h2.8v5.2c0 1.8 0.5 2.4 2.4 2.4h0.8c0.1-0.9 0.2-2 0.2-2.6 0-2.2-0.3-4.2-0.6-5.9l2.8-0.4c0.4 1.8 0.7 3.9 0.7 6.1 0 0.9 0 1.9-0.1 2.8h2.2v2.3h-6.5c-1.9 0-3.1-0.4-3.6-1.6-0.4 1.1-1.4 1.8-2.6 1.8-1 0-1.6-0.4-2-0.9 0 0.2 0.1 0.3 0.1 0.5 0 1.6-0.7 5.3-6 5.3-3.6 0-5.9-1.9-5.9-6.3z"/>
			<path fill-rule="evenodd" class="s4" d="m686.9 257.4c-0.5 1.1-1.6 1.7-2.9 1.7h-0.3v-2.3h0.4c1.1 0 1.6-0.6 1.6-2.6 0-3.1 1.9-5.7 5.6-5.7 3.5 0 5.1 2 5.1 5.2v3.1h1.9v2.3h-6.9c-2.6 0-3.9-0.6-4.5-1.7zm6.7-3.4c0-2.3-0.8-3.3-2.4-3.3-1.6 0-2.6 1.3-2.6 3.1 0 1.9 0.8 2.9 3.1 2.9h1.9z"/>
			<path class="s4" d="m697.9 256.8h0.7c1.4 0 2-0.6 2-2.8v-4h2.9v4.4c0 1.7 0.4 2.6 1.7 2.6 1.3 0 1.6-0.9 1.6-2.5v-5.3h2.8v5.2c0 1.8 0.5 2.4 2.4 2.4h0.8c0.1-0.9 0.2-2 0.2-2.6 0-2.2-0.3-4.2-0.6-5.9l2.8-0.4c0.4 1.8 0.7 3.9 0.7 6.1 0 0.9 0 1.9-0.1 2.8h2.2v2.3h-6.5c-1.9 0-3.1-0.4-3.6-1.6-0.5 1.2-1.8 1.8-3.2 1.8-1.6 0-2.8-0.7-3.1-1.8-0.4 1.1-1.3 1.6-2.9 1.6h-0.7v-2.3zm6.9-11.2c0-0.8 0.6-1.5 1.5-1.5 0.8 0 1.5 0.7 1.5 1.5 0 0.8-0.6 1.5-1.5 1.5-0.8 0-1.5-0.7-1.5-1.5zm1.9-3c0-0.8 0.6-1.4 1.3-1.4 0.8 0 1.4 0.6 1.4 1.4 0 0.8-0.6 1.4-1.4 1.4-0.7 0-1.3-0.6-1.3-1.4zm1.8 3c0-0.8 0.6-1.5 1.5-1.5 0.8 0 1.5 0.7 1.5 1.5 0 0.8-0.6 1.5-1.5 1.5-0.9 0-1.5-0.7-1.5-1.5z"/>
			<path class="s4" d="m717.6 256.8h2.7v-13.2h2.9v15.5h-5.6z"/>
			<path class="s4" d="m726.9 243.6h2.9v15.5h-2.9z"/>
			<path class="s4" d="m746.2 259.1c-6 0-8.1-2.5-8.1-6.5 0-1.2 0.2-2.6 0.6-3.5l3.1-0.5c-0.5 1-0.7 2.5-0.7 3.6 0 3.1 1.3 4.6 5.5 4.6h3v-8.1h2.9v10.3h-6.3zm-2 3.3c0-0.8 0.7-1.5 1.5-1.5 0.8 0 1.5 0.7 1.5 1.5 0 0.8-0.7 1.5-1.5 1.5-0.8 0-1.5-0.6-1.5-1.5z"/>
			<path fill-rule="evenodd" class="s4" d="m755.1 264.4l0.2-2.4c0 0 1.7 0.4 3.4 0.4 2.3 0 3.8-0.9 3.8-2.9v-0.3h-1.7c-4.3 0-5.9-2-5.9-5.1 0-2.9 1.8-5.5 5.8-5.5 2.6 0 4.6 0.8 4.6 0.8v9.9c0 3-2 5.5-6.9 5.5-1.6-0.1-3.3-0.4-3.3-0.4zm7.4-13.2c0 0-0.8-0.4-2.1-0.4-1.7 0-2.6 1.3-2.6 3 0 2 1 3.1 3.3 3.1h1.4z"/>
			<path class="s4" d="m765 264.5l0.2-2.3q0.8 0.3 1.8 0.3c1.5 0 2.4-0.7 2.4-3.1v-10.6h2.9v8.1h2.2v2.3h-2.2v0.1c0 2.8-0.9 5.5-5.4 5.5-0.7-0.1-1.3-0.2-1.9-0.3z"/>
			<path class="s4" d="m774.1 256.8h3.4c-1-0.6-1.7-1.8-1.7-3.3 0-2.7 1.9-5.1 5.8-5.1 1.5 0 2.7 0.4 2.7 0.4l-0.5 2.3c0 0-1-0.5-2.3-0.5-1.6 0-2.8 1.1-2.8 2.8 0 1.9 1.5 3.3 5 3.3h1.7v2.3h-11.3zm5.3-11.4c0-0.8 0.7-1.5 1.5-1.5 0.8 0 1.5 0.7 1.5 1.5 0 0.8-0.7 1.5-1.5 1.5-0.8 0-1.5-0.6-1.5-1.5z"/>
			<path class="s4" d="m792.5 256.8c0.8 0 1.5 0 2 0.1-0.5-0.2-0.8-0.8-0.8-1.5 0-1.8 1.3-3.7 4.8-3.7 0.9 0 1.7 0.1 2 0.2l-0.4 2.3c-0.2 0-1-0.2-1.8-0.2-1.1 0-1.7 0.6-1.7 1.3 0 0.9 0.7 1.5 2.5 1.5h2v2.3h-8.6z"/>
			<path class="s4" d="m804.3 243.6h2.9v13.2h2.2v2.3h-5.1z"/>
			<path fill-rule="evenodd" class="s4" d="m809.1 259.1v-2.3h1.9c0.6 0 1 0.1 1 0.1 0 0-0.6-0.6-0.6-1.5 0-2.1 1.5-3.7 4.2-3.7 2.9 0 4 2 4 4.5v0.6h2.3v-0.3c0-4.6-1.8-6.8-6.2-6.8-1.5 0-3.3 0.4-4.7 0.8l-0.3-2c1.6-0.5 3.6-0.9 5.3-0.9 5.5 0 8.6 2.6 8.6 9.1v0.1h1.6v2.3zm8.1-2.9c0-1.6-0.6-2.7-1.9-2.7-1 0-1.6 0.7-1.6 1.6 0 1.1 0.9 1.8 2.1 1.8h1.4z"/>
			<path class="s4" d="m825.9 256.8h3.1v-8.1h2.9v8.1h2v2.3h-7.9v-2.3zm0.8-11.2c0-0.8 0.6-1.5 1.5-1.5 0.8 0 1.5 0.7 1.5 1.5 0 0.8-0.6 1.5-1.5 1.5-0.8 0-1.5-0.7-1.5-1.5zm3.7 0c0-0.8 0.6-1.5 1.5-1.5 0.8 0 1.5 0.7 1.5 1.5 0 0.8-0.6 1.5-1.5 1.5-0.9 0-1.5-0.7-1.5-1.5z"/>
			<path class="s4" d="m833.5 256.8h3.1v-8.1h2.9v10.3h-6zm3-11.4c0-0.8 0.7-1.5 1.5-1.5 0.8 0 1.5 0.7 1.5 1.5 0 0.8-0.7 1.5-1.5 1.5-0.8 0-1.5-0.6-1.5-1.5z"/>
			<path class="s4" d="m843 243.6h2.9v15.5h-2.9z"/>
			<path class="s0" d="m856.6 252.9c-0.7 0-1.4-0.6-1.4-1.4 0-0.7 0.6-1.4 1.4-1.4 0.8 0 1.4 0.6 1.4 1.4 0 0.8-0.6 1.4-1.4 1.4zm0 6.4c-0.7 0-1.4-0.6-1.4-1.4 0-0.8 0.6-1.4 1.4-1.4 0.8 0 1.4 0.6 1.4 1.4 0 0.8-0.6 1.4-1.4 1.4z"/>
			<path fill-rule="evenodd" class="s0" d="m871.6 259.1c-4.2 0-5.8-2-5.8-5.1 0-2.9 1.8-5.5 5.5-5.5 2.4 0 4.4 0.8 4.4 0.8v8.2h2.4v1.6zm2.2-8.5c0 0-1.1-0.5-2.7-0.5-2 0-3.3 1.5-3.3 3.6 0 2.5 1.2 3.7 4 3.7h1.9v-6.8zm-5.4-5c0-0.6 0.5-1.2 1.2-1.2 0.6 0 1.2 0.5 1.2 1.2 0 0.7-0.5 1.2-1.2 1.2-0.7-0.1-1.2-0.6-1.2-1.2zm3.2 0c0-0.6 0.5-1.2 1.2-1.2 0.6 0 1.1 0.5 1.1 1.2 0 0.7-0.5 1.2-1.1 1.2-0.7-0.1-1.2-0.6-1.2-1.2z"/>
			<path class="s0" d="m877.9 257.5h2.9v1.6h-2.9z"/>
			<path class="s0" d="m880.4 257.5h2.9v1.6h-2.9z"/>
			<path class="s0" d="m882.9 257.5h4.4v-8.7h2v10.3h-6.4zm1.9 6.1c-0.7 0-1.2-0.5-1.2-1.2 0-0.6 0.5-1.2 1.2-1.2 0.6 0 1.2 0.5 1.2 1.2 0 0.7-0.6 1.2-1.2 1.2zm3.3 0c-0.7 0-1.2-0.5-1.2-1.2 0-0.6 0.5-1.2 1.2-1.2 0.6 0 1.1 0.5 1.1 1.2 0 0.7-0.5 1.2-1.1 1.2z"/>
			<path class="s0" d="m893.4 243.6h2v15.5h-2z"/>
			<path class="s0" d="m898.6 257.5h7.1c-0.1-4-1.7-6.3-5.5-7.5l0.5-1.7c4.6 1.4 6.9 4 7 9.2h1.7v1.6h-10.8z"/>
			<path class="s0" d="m909.1 257.5h3.2v-8.7h2v8.7h2.4v1.6h-7.7v-1.6zm1.5 4.9c0-0.7 0.5-1.2 1.2-1.2 0.7 0 1.2 0.5 1.2 1.2 0 0.7-0.6 1.2-1.2 1.2-0.6 0-1.2-0.5-1.2-1.2z"/>
			<path class="s0" d="m916.4 257.5h3.1v-13.9h2v15.5h-5.1z"/>
			<path class="s0" d="m925.7 243.6h2v15.5h-2z"/>
			<path class="s4" d="m662.5 301.4c-1 0-1.8-0.8-1.8-1.8 0-1 0.8-1.8 1.8-1.8 1 0 1.8 0.8 1.8 1.8 0 0.9-0.8 1.8-1.8 1.8z"/>
			<path class="s4" d="m665.2 306.5l0.2-2.3q0.8 0.3 1.8 0.3c1.5 0 2.4-0.7 2.4-3.1v-10.6h2.9v8.1h2.2v2.3h-2.2v0.1c0 2.8-0.9 5.5-5.4 5.5-0.8-0.1-1.4-0.2-1.9-0.3z"/>
			<path fill-rule="evenodd" class="s4" d="m677.5 299.4c-0.5 1.1-1.6 1.7-2.9 1.7h-0.3v-2.3h0.4c1.1 0 1.6-0.6 1.6-2.6 0-3.1 1.9-5.7 5.6-5.7 3.5 0 5.1 2 5.1 5.2v3.1h1.9v2.3h-6.9c-2.5 0-3.8-0.6-4.5-1.7zm6.8-3.4c0-2.3-0.8-3.3-2.4-3.3-1.6 0-2.6 1.3-2.6 3.1 0 1.9 0.8 2.9 3.1 2.9h1.9z"/>
			<path class="s4" d="m688.6 298.8h8.5c0.1-0.5 0.1-1.1 0.1-1.7 0-2.8-1.1-4.2-4.3-4.2-0.9 0-1.7 0.1-2.5 0.2v-2.3c0.9-0.1 1.9-0.2 2.8-0.2 5 0 6.9 2.2 6.9 6.4 0 1.1-0.1 2.5-0.4 4.1h-11.1z"/>
			<path class="s4" d="m700.9 283.1c0.5 0 1 0 1.3 0.1-0.2-0.1-0.4-0.5-0.4-0.9 0-1.2 0.8-2.3 3.1-2.3 0.6 0 1.1 0.1 1.3 0.1l-0.3 1.5c-0.1 0-0.6-0.1-1.1-0.1-0.7 0-1.1 0.3-1.1 0.7 0 0.5 0.4 0.8 1.5 0.8h1.3v1.5h-5.7v-1.4zm7.2 14.1h-2.9l-3.1-11 2.9-0.4zm-5.2 3.9v-2.3h6.8v-12.8h2.9v15.1z"/>
			<path class="s4" d="m716.3 285.6h2.9v15.5h-2.9z"/>
			<path fill-rule="evenodd" class="s4" d="m744.3 298.8h2.2v2.3h-2.2v5.3c0 0-4.3 0.2-7.1 0.2-7 0-9.7-2.2-9.7-6.7 0-1.2 0.2-2.6 0.5-3.9l3-0.5c-0.4 1.4-0.6 2.9-0.6 4.2 0 3.4 1.7 4.8 7.2 4.8 1.9 0 3.9-0.1 3.9-0.1v-3.1h-1.7c-4.3 0-5.9-2-5.9-5.1 0-2.9 1.8-5.5 5.8-5.5 2.6 0 4.6 0.8 4.6 0.8zm-8.2-11.2c0-0.8 0.6-1.5 1.5-1.5 0.8 0 1.5 0.7 1.5 1.5 0 0.8-0.6 1.5-1.5 1.5-0.8 0-1.5-0.7-1.5-1.5zm5.3 5.6c0 0-0.8-0.4-2.1-0.4-1.7 0-2.6 1.3-2.6 3 0 2 1 3.1 3.3 3.1h1.4zm-1.6-5.6c0-0.8 0.6-1.5 1.5-1.5 0.8 0 1.5 0.7 1.5 1.5 0 0.8-0.6 1.5-1.5 1.5-0.9 0-1.5-0.7-1.5-1.5z"/>
			<path fill-rule="evenodd" class="s4" d="m746.1 298.8h0.9c0.7 0 1.3 0.1 1.3 0.1-0.7-0.7-1-1.7-1-3 0-3.2 2.3-5.5 5.6-5.5 3.1 0 5.1 1.6 5.1 5.1 0 1.3-0.4 2.6-1.3 3.3 0 0 0.9-0.1 1.7-0.1h1.2v2.3h-13.5zm9.1-3c0-1.9-0.7-3-2.4-3-1.3 0-2.5 0.9-2.5 2.9 0 2 0.8 3.1 2.4 3.1 1.4 0 2.5-1 2.5-3zm-4-8.5c0-0.8 0.7-1.5 1.5-1.5 0.8 0 1.5 0.7 1.5 1.5 0 0.8-0.7 1.5-1.5 1.5-0.8 0-1.5-0.6-1.5-1.5z"/>
			<path class="s4" d="m759.3 298.8h0.7c1.4 0 2-0.6 2-2.8v-4h2.9v4.4c0 1.7 0.4 2.6 1.7 2.6 1.3 0 1.6-0.9 1.6-2.5v-5.3h2.8v5.2c0 1.8 0.5 2.4 2.4 2.4h0.8c0.1-0.9 0.2-2 0.2-2.6 0-2.2-0.3-4.2-0.6-5.9l2.8-0.4c0.4 1.8 0.7 3.9 0.7 6.1 0 0.9 0 1.9-0.1 2.8h2.2v2.3h-6.5c-1.9 0-3.1-0.4-3.6-1.6-0.5 1.2-1.8 1.8-3.2 1.8-1.6 0-2.8-0.7-3.1-1.8-0.4 1.1-1.3 1.6-2.9 1.6h-0.7v-2.3zm6.9-11.2c0-0.8 0.6-1.5 1.5-1.5 0.8 0 1.5 0.7 1.5 1.5 0 0.8-0.6 1.5-1.5 1.5-0.9 0-1.5-0.7-1.5-1.5zm1.9-3c0-0.8 0.6-1.4 1.3-1.4 0.8 0 1.4 0.6 1.4 1.4 0 0.8-0.6 1.4-1.4 1.4-0.7 0-1.3-0.6-1.3-1.4zm1.7 3c0-0.8 0.6-1.5 1.5-1.5 0.8 0 1.5 0.7 1.5 1.5 0 0.8-0.6 1.5-1.5 1.5-0.8 0-1.5-0.7-1.5-1.5z"/>
			<path class="s4" d="m778.9 298.8h2.7v-13.2h2.9v15.5h-5.6z"/>
			<path class="s4" d="m788.3 285.6h2.9v15.5h-2.9z"/>
			<path class="s4" d="m807.6 301.1c-6 0-8.1-2.5-8.1-6.5 0-1.2 0.2-2.6 0.6-3.5l3.1-0.5c-0.5 1-0.7 2.5-0.7 3.6 0 3.1 1.3 4.6 5.5 4.6h3v-8.1h2.9v10.3h-6.3zm-2 3.3c0-0.8 0.7-1.5 1.5-1.5 0.8 0 1.5 0.7 1.5 1.5 0 0.8-0.7 1.5-1.5 1.5-0.8 0-1.5-0.6-1.5-1.5z"/>
			<path fill-rule="evenodd" class="s4" d="m816.5 306.4l0.2-2.4c0 0 1.7 0.4 3.4 0.4 2.3 0 3.8-0.9 3.8-2.9v-0.3h-1.7c-4.3 0-5.9-2-5.9-5.1 0-2.9 1.8-5.5 5.8-5.5 2.6 0 4.6 0.8 4.6 0.8v9.9c0 3-2 5.5-6.9 5.5-1.6-0.1-3.3-0.4-3.3-0.4zm7.4-13.2c0 0-0.8-0.4-2.1-0.4-1.7 0-2.6 1.3-2.6 3 0 2 1 3.1 3.3 3.1h1.4z"/>
			<path class="s4" d="m826.4 306.5l0.2-2.3q0.8 0.3 1.8 0.3c1.5 0 2.4-0.7 2.4-3.1v-10.6h2.9v8.1h2.2v2.3h-2.2v0.1c0 2.8-0.9 5.5-5.4 5.5-0.7-0.1-1.4-0.2-1.9-0.3z"/>
			<path class="s4" d="m835.5 298.8h3.4c-1-0.6-1.7-1.8-1.7-3.3 0-2.7 1.9-5.1 5.8-5.1 1.5 0 2.7 0.4 2.7 0.4l-0.5 2.3c0 0-1-0.5-2.3-0.5-1.6 0-2.8 1.1-2.8 2.8 0 1.9 1.5 3.3 5 3.3h1.7v2.3h-11.3zm5.3-11.4c0-0.8 0.7-1.5 1.5-1.5 0.8 0 1.5 0.7 1.5 1.5 0 0.8-0.7 1.5-1.5 1.5-0.8 0-1.5-0.6-1.5-1.5z"/>
			<path class="s0" d="m856.4 294.9c-0.7 0-1.4-0.6-1.4-1.4 0-0.7 0.6-1.4 1.4-1.4 0.8 0 1.4 0.6 1.4 1.4 0 0.8-0.6 1.4-1.4 1.4zm0 6.4c-0.7 0-1.4-0.6-1.4-1.4 0-0.8 0.6-1.4 1.4-1.4 0.8 0 1.4 0.6 1.4 1.4 0 0.8-0.6 1.4-1.4 1.4z"/>
			<path fill-rule="evenodd" class="s0" d="m871.4 301.1c-4.2 0-5.8-2-5.8-5.1 0-2.9 1.8-5.5 5.5-5.5 2.4 0 4.4 0.8 4.4 0.8v8.2h2.4v1.6zm2.2-8.5c0 0-1.1-0.5-2.7-0.5-2 0-3.3 1.5-3.3 3.6 0 2.5 1.2 3.7 4 3.7h1.9v-6.8zm-5.4-5c0-0.6 0.5-1.2 1.2-1.2 0.6 0 1.2 0.5 1.2 1.2 0 0.7-0.5 1.2-1.2 1.2-0.7-0.1-1.2-0.6-1.2-1.2zm3.2 0c0-0.6 0.5-1.2 1.2-1.2 0.6 0 1.1 0.5 1.1 1.2 0 0.7-0.5 1.2-1.1 1.2-0.6-0.1-1.2-0.6-1.2-1.2z"/>
			<path class="s0" d="m877.7 299.5h4.4v-8.7h2v10.3h-6.4zm1.9 6.1c-0.7 0-1.2-0.5-1.2-1.2 0-0.6 0.5-1.2 1.2-1.2 0.6 0 1.2 0.5 1.2 1.2 0 0.7-0.6 1.2-1.2 1.2zm3.2 0c-0.7 0-1.2-0.5-1.2-1.2 0-0.6 0.5-1.2 1.2-1.2 0.6 0 1.1 0.5 1.1 1.2 0 0.7-0.4 1.2-1.1 1.2z"/>
			<path class="s0" d="m888.1 285.6h2v13.9h2.4v1.6h-4.4z"/>
			<path fill-rule="evenodd" class="s0" d="m892.3 301.1v-1.6h2.6c0.4 0 0.8 0.1 0.8 0.1 0 0-0.9-0.7-0.9-2 0-2.1 1.5-3.7 4-3.7 2.6 0 3.9 1.8 3.9 4.6v1h2.9v-0.4c0-5.5-2.1-7.7-6.6-7.7-1.4 0-3.3 0.3-4.7 0.8l-0.2-1.5c1.5-0.5 3.4-0.8 5.2-0.8 5.3 0 8.3 2.6 8.3 9.2v0.4h1.9v1.6zm8.6-2.5c0-1.9-0.6-3.3-2.2-3.3-1.4 0-2 0.9-2 2 0 1.4 1.1 2.2 2.5 2.2h1.8v-0.9z"/>
			<path class="s0" d="m909.1 299.5h3.2v-8.7h2v8.7h2.4v1.6h-7.7v-1.6zm3-12.3c0-0.7 0.5-1.2 1.2-1.2 0.7 0 1.2 0.5 1.2 1.2 0 0.7-0.5 1.2-1.2 1.2-0.7 0-1.2-0.5-1.2-1.2z"/>
			<path class="s0" d="m916.4 299.5h3.1v-13.9h2v15.5h-5.1z"/>
			<path class="s0" d="m925.7 285.6h2v15.5h-2z"/>
		</g>
	</g>
	<g>
		<g>
			<path class="s3" d="m891 211.1c-1 0-1.9-0.9-1.9-1.9 0-1 0.9-1.9 1.9-1.9 1 0 1.9 0.9 1.9 1.9 0 1.1-0.9 1.9-1.9 1.9zm0 6.5c-1 0-1.9-0.9-1.9-1.9 0-1 0.9-1.9 1.9-1.9 1 0 1.9 0.9 1.9 1.9 0 1.1-0.9 1.9-1.9 1.9z"/>
			<path class="s3" d="m901.7 201.2h3v13.8h2.3v2.4h-5.3z"/>
			<path fill-rule="evenodd" class="s3" d="m906.7 215h2c0.6 0 1 0.1 1 0.1 0 0-0.6-0.6-0.6-1.5 0-2.2 1.6-3.9 4.3-3.9 3 0 4.2 2 4.2 4.7v0.6h2.4v-0.3c0-4.8-1.9-7.1-6.5-7.1-1.6 0-3.4 0.4-4.9 0.9l-0.3-2.1c1.6-0.5 3.7-0.9 5.6-0.9 5.7 0 9 2.8 9 9.5v0.1h1.7v2.4h-17.9zm8.5-0.6c0-1.6-0.6-2.8-2-2.8-1.1 0-1.7 0.7-1.7 1.7 0 1.2 1 1.8 2.2 1.8h1.4v-0.7z"/>
			<path class="s3" d="m924.3 215h3.2v-8.4h3v8.4h2v2.4h-8.3v-2.4zm0.9-11.8c0-0.9 0.7-1.6 1.5-1.6 0.9 0 1.5 0.7 1.5 1.6 0 0.9-0.7 1.6-1.5 1.6-0.8 0-1.5-0.7-1.5-1.6zm3.8 0c0-0.9 0.7-1.6 1.5-1.6 0.9 0 1.5 0.7 1.5 1.6 0 0.9-0.7 1.6-1.5 1.6-0.8 0-1.5-0.7-1.5-1.6z"/>
			<path fill-rule="evenodd" class="s3" d="m932.3 217.4v-2.4h1.3c0.8 0 1.3 0.2 1.3 0.2-0.9-0.6-1.3-1.7-1.3-3.3 0-2.9 2-5.6 6-5.6 3.6 0 5.2 2.1 5.2 5.3v5.8zm3.5-14.2c0-0.9 0.7-1.6 1.5-1.6 0.9 0 1.5 0.7 1.5 1.6 0 0.9-0.7 1.6-1.5 1.6-0.8 0-1.5-0.7-1.5-1.6zm6 8.7c0-2.3-0.9-3.3-2.5-3.3-1.7 0-2.7 1.3-2.7 3.1 0 2.2 1.1 3.2 3.4 3.2h1.7v-3zm-2.1-8.7c0-0.9 0.7-1.6 1.5-1.6 0.9 0 1.5 0.7 1.5 1.6 0 0.9-0.7 1.6-1.5 1.6-0.9 0-1.5-0.7-1.5-1.6z"/>
			<path fill-rule="evenodd" class="s3" d="m947.4 222.9l0.2-2.5c0 0 1.8 0.4 3.6 0.4 2.4 0 4-0.9 4-3.1v-0.3h-1.8c-4.5 0-6.2-2.1-6.2-5.3 0-3 1.9-5.8 6.1-5.8 2.7 0 4.8 0.8 4.8 0.8v10.3c0 3.2-2 5.7-7.2 5.7-1.7 0.1-3.5-0.2-3.5-0.2zm7.8-13.8c0 0-0.9-0.4-2.2-0.4-1.7 0-2.7 1.3-2.7 3.1 0 2.1 1 3.2 3.4 3.2h1.5z"/>
		</g>
	</g>
	<g>
		<g>
			<path class="s0" d="m788.1 473.5c-0.7 0-1.4-0.6-1.4-1.4 0-0.7 0.6-1.4 1.4-1.4 0.8 0 1.4 0.6 1.4 1.4 0 0.8-0.6 1.4-1.4 1.4zm0 6.5c-0.7 0-1.4-0.6-1.4-1.4 0-0.8 0.6-1.4 1.4-1.4 0.8 0 1.4 0.6 1.4 1.4 0 0.8-0.6 1.4-1.4 1.4z"/>
			<path fill-rule="evenodd" class="s0" d="m803.1 479.8c-4.2 0-5.8-2-5.8-5.1 0-2.9 1.8-5.5 5.5-5.5 2.4 0 4.4 0.8 4.4 0.8v8.2h2.4v1.6zm2.2-8.5c0 0-1.1-0.5-2.7-0.5-2 0-3.3 1.5-3.3 3.6 0 2.5 1.2 3.7 4 3.7h1.9v-6.8zm-5.4-5.1c0-0.6 0.5-1.2 1.2-1.2 0.6 0 1.2 0.5 1.2 1.2 0 0.7-0.5 1.2-1.2 1.2-0.7 0-1.2-0.5-1.2-1.2zm3.2 0c0-0.6 0.5-1.2 1.2-1.2 0.6 0 1.1 0.5 1.1 1.2 0 0.7-0.5 1.2-1.1 1.2-0.7 0-1.2-0.5-1.2-1.2z"/>
			<path class="s0" d="m809.4 478.2h4.4v-8.7h2v10.3h-6.4zm1.8 6c-0.7 0-1.2-0.5-1.2-1.2 0-0.6 0.5-1.2 1.2-1.2 0.6 0 1.2 0.5 1.2 1.2 0 0.7-0.5 1.2-1.2 1.2zm3.3 0c-0.7 0-1.2-0.5-1.2-1.2 0-0.6 0.5-1.2 1.2-1.2 0.6 0 1.1 0.5 1.1 1.2 0 0.7-0.5 1.2-1.1 1.2z"/>
			<path class="s0" d="m818.9 478.2h7.1c-0.1-4-1.7-6.3-5.5-7.5l0.5-1.7c4.6 1.4 6.9 4 7 9.2h1.7v1.6h-10.8z"/>
			<path fill-rule="evenodd" class="s0" d="m829.3 478.2h0.7c2.4 0 4.5-0.4 6-1.1-1.6-1.5-3-3.1-5.3-3.8l0.2-1.4c1.7-1.3 4.2-2.6 6.4-2.6 3 0 4.2 1.6 4.2 3.4 0 1.5-0.9 3.2-2.6 4.6 0.9 0.6 1.9 1.1 3.2 1.1h1.3v1.6h-1.6c-1.9 0-3.3-0.7-4.5-1.6-1.9 1-4.4 1.6-7.5 1.6h-0.5zm8.3-2.1c1.3-0.9 1.9-2.1 1.9-3.3 0-1.2-0.7-2.2-2.4-2.2-1.5 0-3.3 1.1-4.2 1.8 1.9 0.8 3.2 2.4 4.7 3.7z"/>
			<path class="s0" d="m843.1 478.2h3.2v-8.7h2v8.7h2.4v1.6h-7.7v-1.6zm1.6 4.9c0-0.7 0.5-1.2 1.2-1.2 0.7 0 1.2 0.5 1.2 1.2 0 0.7-0.6 1.2-1.2 1.2-0.6 0-1.2-0.5-1.2-1.2z"/>
			<path class="s0" d="m850.4 478.2h3.1v-13.9h2v15.5h-5.1z"/>
			<path class="s0" d="m859.7 464.3h2v15.5h-2z"/>
			<path fill-rule="evenodd" class="s0" d="m876 479.8c-4.2 0-5.8-2-5.8-5.1 0-2.9 1.8-5.5 5.5-5.5 2.4 0 4.4 0.8 4.4 0.8v8.2h2.4v1.6zm2.2-8.5c0 0-1.1-0.5-2.7-0.5-2 0-3.3 1.5-3.3 3.6 0 2.5 1.2 3.7 4 3.7h1.9v-6.8zm-5.4-5.1c0-0.6 0.5-1.2 1.2-1.2 0.6 0 1.2 0.5 1.2 1.2 0 0.7-0.5 1.2-1.2 1.2-0.7 0-1.2-0.5-1.2-1.2zm3.2 0c0-0.6 0.5-1.2 1.2-1.2 0.6 0 1.1 0.5 1.1 1.2 0 0.7-0.5 1.2-1.1 1.2-0.7 0-1.2-0.5-1.2-1.2z"/>
			<path class="s0" d="m884.8 463.3c-0.6 0-1.2-0.4-1.3-1.4l-0.2-1.1 1.1-0.2 0.2 1.1c0.1 0.4 0.3 0.6 0.5 0.6 0.4 0 0.7-0.4 0.6-0.8l-0.2-1.1 1.1-0.2 0.2 1.1c0.1 0.4 0.3 0.7 0.6 0.7 0.5 0 0.7-0.4 0.6-1l-0.2-1.2 1.1-0.2 0.2 1.1c0.2 1.2-0.4 2.2-1.8 2.2-0.4 0-0.8-0.2-1-0.5-0.3 0.6-0.9 0.9-1.5 0.9z"/>
			<path class="s0" d="m882.3 478.2h3.2v-8.7h2v8.7h2.4v1.6h-7.7v-1.6zm3-12.3c0-0.7 0.5-1.2 1.2-1.2 0.7 0 1.2 0.5 1.2 1.2 0 0.7-0.5 1.2-1.2 1.2-0.7 0-1.2-0.5-1.2-1.2z"/>
			<path class="s0" d="m899.6 478c-0.4 1.3-1.7 1.9-3.1 1.9-1.8 0-2.8-0.8-3.1-1.9-0.4 1.1-1.3 1.8-3 1.8h-0.7v-1.6h0.8c1.6 0 2.3-0.7 2.3-3.1v-4.3h2v4.5c0 1.9 0.4 3.1 2.1 3.1 1.6 0 2-1.2 2-3.1v-5.4h2v5.3c0 2.3 0.6 3 2.9 3h1c0.1-0.9 0.2-2.2 0.2-3.1 0-2.4-0.3-4.5-0.7-6.1l2-0.4c0.4 1.7 0.8 3.9 0.8 6.2 0 1-0.1 2.2-0.2 3.2h2.4v1.6h-5.9c-2.2 0.2-3.4-0.3-3.8-1.6z"/>
			<path class="s0" d="m908.9 478.2h3.1v-13.9h2v15.5h-5.1z"/>
			<path class="s0" d="m918.1 464.3h2v15.5h-2z"/>
		</g>
	</g>
	<g>
		<g>
			<path class="s4" d="m688.3 478.2c0 4.4-2 6.6-6.2 6.6-3.5 0-5.8-1.8-5.8-6.2 0-1.3 0.2-2.7 0.5-3.9l3-0.5c-0.4 1.4-0.6 2.9-0.6 4.2 0 3.4 1.6 4.2 3.1 4.2 1.9 0 3.1-1 3.1-4.2v-9h2.9zm-7.7-7.5c0-0.8 0.7-1.5 1.5-1.5 0.8 0 1.5 0.7 1.5 1.5 0 0.8-0.7 1.5-1.5 1.5-0.8 0-1.5-0.7-1.5-1.5z"/>
			<path class="s4" d="m691.8 464.3h2.9v13.2h2.2v2.3h-5.1z"/>
			<path class="s4" d="m696.6 477.5h3.1v-8.1h2.9v8.1h2v2.3h-7.9v-2.3zm0.8-11.2c0-0.8 0.6-1.5 1.5-1.5 0.8 0 1.5 0.7 1.5 1.5 0 0.8-0.6 1.5-1.5 1.5-0.8 0-1.5-0.7-1.5-1.5zm3.7 0c0-0.8 0.6-1.5 1.5-1.5 0.8 0 1.5 0.7 1.5 1.5 0 0.8-0.6 1.5-1.5 1.5-0.9 0-1.5-0.7-1.5-1.5z"/>
			<path fill-rule="evenodd" class="s4" d="m704.2 477.5h0.8c2.1 0 3.8-0.2 5.1-0.7-1.4-1.3-2.7-2.7-4.6-3.2l0.2-2.1c1.7-1.3 4.2-2.4 6.4-2.4 3.3 0 4.6 1.7 4.6 3.6 0 1.5-0.8 3-2.2 4.2q1.1 0.6 2.4 0.6h1.5v2.3h-1.8c-1.9 0-3.3-0.6-4.5-1.4-1.9 0.8-4.3 1.4-7.3 1.4h-0.6zm8.3-1.9c0.9-0.7 1.4-1.6 1.4-2.5 0-1-0.7-1.8-2.1-1.8-1.2 0-2.6 0.8-3.3 1.3 1.4 0.6 2.6 1.9 4 3z"/>
			<path class="s4" d="m718 477.5h6.5c-0.1-3.4-1.9-5.4-5.4-6.2v-2.1l8.7-5.5v2.9l-5.4 3.2c2.9 1.3 4.9 3.7 4.9 8.5v1.5h-9.3z"/>
			<path class="s4" d="m728.6 485.2l0.2-2.3q0.8 0.3 1.8 0.3c1.5 0 2.4-0.7 2.4-3.1v-10.6h2.9v10.4c0 2.8-0.9 5.5-5.4 5.5-0.7 0-1.3-0.1-1.9-0.2z"/>
		</g>
	</g>
	<path class="s2" d="m652.9 445.7c4.8-8.8 9.9-13.2 22.1-13.2h231.9c12.1 0 22.1-9.9 22.1-22.1v-3.7c0-12.1-9.9-22.1-22.1-22.1h-231.9c-12.1 0-22.1 9.9-22.1 22.1z"/>
	<g>
		<g>
			<path class="s0" d="m788.1 408.9c-0.7 0-1.4-0.6-1.4-1.4 0-0.7 0.6-1.4 1.4-1.4 0.8 0 1.4 0.6 1.4 1.4 0 0.8-0.6 1.4-1.4 1.4zm0 6.4c-0.7 0-1.4-0.6-1.4-1.4 0-0.8 0.6-1.4 1.4-1.4 0.8 0 1.4 0.6 1.4 1.4 0 0.8-0.6 1.4-1.4 1.4z"/>
			<path fill-rule="evenodd" class="s0" d="m797.6 414.1c0-1.4 0.2-2.9 0.5-4.2l2.1-0.4c-0.4 1.5-0.6 2.9-0.6 4.4 0 3.8 1.9 4.7 3.7 4.7 2.1 0 3.6-1.1 3.6-4.5v-9.4h2v0.9c0 1.2-0.1 2.7-0.2 3.9 1.1-3.2 3.5-5 6-5 2.9 0 4.3 2.1 4.3 5.4 0 1.7-0.1 3.5-0.3 5.1h-9.9c-0.3 3.5-2.5 5.1-5.7 5.1-3.1 0.1-5.5-1.5-5.5-6zm19.1-0.6c0.1-1.1 0.1-2.3 0.1-3.3 0-2.4-0.7-4-2.6-4-2.9 0-5.1 3.8-5.5 7.3zm-3.5-12.2c0-0.7 0.5-1.2 1.2-1.2 0.7 0 1.2 0.5 1.2 1.2 0 0.7-0.5 1.2-1.2 1.2-0.7 0-1.2-0.6-1.2-1.2z"/>
			<path class="s0" d="m817.8 420.5l0.2-1.7c0.7 0.2 1.4 0.4 2.2 0.4 1.8 0 2.9-0.9 2.9-3.8v-10.6h2v8.7h2.4v1.6h-2.4v0.1c0 3.1-1.1 5.5-5.1 5.5-0.7 0.1-1.5 0-2.2-0.2z"/>
			<path class="s0" d="m827.3 413.5h2.9v1.6h-2.9z"/>
			<path fill-rule="evenodd" class="s0" d="m829.8 413.5h1.3c0.7 0 1.6 0.1 1.6 0.1-0.9-0.7-1.5-1.9-1.5-3.7 0-3 2-5.4 5.3-5.4 2.8 0 4.9 1.4 4.9 5.1 0 1.6-0.6 3.1-1.7 3.9 0 0 1.1-0.1 1.9-0.1h1.5v1.6h-13.3zm9.6-3.7c0-2.3-1-3.6-3-3.6-1.6 0-3.1 1.1-3.1 3.6 0 2.4 1.1 3.8 3.1 3.8 1.6-0.1 3-1.2 3-3.8zm-4.2-8.6c0-0.7 0.5-1.2 1.2-1.2 0.7 0 1.2 0.5 1.2 1.2 0 0.7-0.5 1.2-1.2 1.2-0.7 0-1.2-0.5-1.2-1.2z"/>
			<path class="s0" d="m842.8 413.5h3.1v-13.9h2v15.5h-5.1z"/>
			<path class="s0" d="m852.1 399.6h2v15.5h-2z"/>
		</g>
	</g>
	<g>
		<g>
			<path class="s4" d="m689.7 415.1c-6 0-8.1-2.5-8.1-6.5 0-1.2 0.2-2.6 0.6-3.5l3.1-0.5c-0.5 1-0.7 2.5-0.7 3.6 0 3.1 1.3 4.6 5.5 4.6h3v-8.1h2.9v10.3h-6.3zm-3.6-13.5c0-0.8 0.6-1.5 1.5-1.5 0.8 0 1.5 0.7 1.5 1.5 0 0.8-0.6 1.5-1.5 1.5-0.9 0-1.5-0.6-1.5-1.5zm3.7 0c0-0.8 0.6-1.5 1.5-1.5 0.8 0 1.5 0.7 1.5 1.5 0 0.8-0.6 1.5-1.5 1.5-0.9 0-1.5-0.6-1.5-1.5z"/>
			<path class="s4" d="m699.4 399.6h2.9v13.2h2.2v2.3h-5.1z"/>
			<path fill-rule="evenodd" class="s4" d="m704.2 412.9h0.8c2.1 0 3.8-0.2 5.1-0.7-1.4-1.3-2.7-2.7-4.6-3.2l0.2-2.1c1.7-1.3 4.2-2.4 6.4-2.4 3.3 0 4.6 1.7 4.6 3.6 0 1.5-0.8 3-2.2 4.2q1.1 0.6 2.4 0.6h1.5v2.3h-1.8c-1.9 0-3.3-0.6-4.5-1.4-1.9 0.8-4.3 1.4-7.3 1.4h-0.6zm8.3-2c0.9-0.7 1.4-1.6 1.4-2.5 0-1-0.7-1.8-2.1-1.8-1.2 0-2.6 0.8-3.3 1.3 1.4 0.6 2.6 1.9 4 3z"/>
			<path class="s4" d="m718 412.9h6.5c-0.1-3.4-1.9-5.4-5.4-6.2v-2.1l8.7-5.5v2.9l-5.4 3.2c2.9 1.3 4.9 3.7 4.9 8.5v1.5h-9.3z"/>
			<path class="s4" d="m728.6 420.5l0.2-2.3q0.8 0.3 1.8 0.3c1.5 0 2.4-0.7 2.4-3.1v-10.6h2.9v10.4c0 2.8-0.9 5.5-5.4 5.5-0.7 0-1.3-0.1-1.9-0.2z"/>
		</g>
	</g>
	<g>
		<path class="s5" d="m783.5 407.9c0 10.3-8.3 18.6-18.6 18.6-10.3 0-18.6-8.3-18.6-18.6 0-10.3 8.3-18.6 18.6-18.6 10.3 0 18.6 8.3 18.6 18.6z"/>
		<g>
			<g>
				<path class="s0" d="m762.5 418.2c-1.3 0-2.7-0.2-3.6-0.4l0.5-3.6c0.9 0.3 2 0.5 3.3 0.5 2.7 0 4.3-1.4 4.3-3.3 0-1.7-1.4-3.1-4.6-3.1-0.9 0-1.6 0.1-2.3 0.2v-3.3c4.6 0.1 6.2-1.4 6.2-3.3 0-1.5-1-2.6-3.1-2.6-1.3 0-2.4 0.4-3.6 0.9l-0.3-3.4c1.4-0.5 3.2-0.9 5-0.9 4.2 0 6.3 2.2 6.3 5.2 0 2.4-1.4 4.2-3.5 4.9v0.1c2.6 0.6 4.3 2.6 4.3 5.1-0.1 4.2-3.7 7-8.9 7z"/>
			</g>
		</g>
	</g>
	<g>
		<path class="s5" d="m783.5 473.7c0 10.3-8.3 18.6-18.6 18.6-10.3 0-18.6-8.3-18.6-18.6 0-10.3 8.3-18.6 18.6-18.6 10.3-0.1 18.6 8.3 18.6 18.6z"/>
		<g>
			<g>
				<path class="s0" d="m758.7 483.7v-3.5l3.3-3.7c3.8-4.2 4.7-6.3 4.7-8.1 0-1.7-1-3-3.1-3-1.4 0-2.9 0.5-4 1.2l-0.6-3.7c1.4-0.7 3.3-1.3 5.8-1.3 4.4 0 6.6 2.7 6.6 6.1 0 2.8-1.4 5.8-5.1 9.9l-1.9 2.3c2.3-0.1 4.8-0.1 7.7-0.1v4h-13.4z"/>
			</g>
		</g>
	</g>
	<g>
		<g>
			<path fill-rule="evenodd" class="s0" d="m811.9 555c-4.7 0-6.4-2.2-6.4-5.6 0-3.1 1.9-6 6.4-6 2.8 0 5 0.8 5 0.8v8.3h2.4v2.5zm-4-14.8c0-0.9 0.7-1.6 1.6-1.6 0.9 0 1.6 0.7 1.6 1.6 0 0.9-0.7 1.6-1.6 1.6-0.9 0.1-1.6-0.6-1.6-1.6zm5.8 6.1c0 0-0.9-0.4-2.3-0.4-1.8 0-2.9 1.4-2.9 3.2 0 2.2 1.1 3.4 3.6 3.4h1.5v-6.2zm-1.8-6.1c0-0.9 0.7-1.6 1.6-1.6 0.9 0 1.6 0.7 1.6 1.6 0 0.9-0.7 1.6-1.6 1.6-0.9 0.1-1.6-0.6-1.6-1.6z"/>
			<path class="s0" d="m818.8 552.5h4.5v-8.8h3.2v11.3h-7.7zm2 7.7c-0.9 0-1.6-0.7-1.6-1.6 0-0.9 0.7-1.6 1.6-1.6 0.9 0 1.6 0.7 1.6 1.6 0.1 0.9-0.6 1.6-1.6 1.6zm4 0c-0.9 0-1.6-0.7-1.6-1.6 0-0.9 0.7-1.6 1.6-1.6 0.9 0 1.6 0.7 1.6 1.6 0 0.9-0.7 1.6-1.6 1.6z"/>
			<path class="s0" d="m826.6 560.8l0.3-2.5c0.6 0.2 1.2 0.3 1.9 0.3 1.6 0 2.6-0.8 2.6-3.4v-11.5h3.2v8.8h2.4v2.5h-2.4v0.1c0 3.1-1 6-5.9 6q-1.2 0-2.1-0.3z"/>
			<path fill-rule="evenodd" class="s0" d="m836.6 555v-2.5h2c0.6 0 1.1 0.1 1.1 0.1 0 0-0.6-0.6-0.6-1.6 0-2.3 1.7-4.1 4.5-4.1 3.1 0 4.4 2.1 4.4 4.9v0.6h2.5v-0.3c0-5-2-7.4-6.8-7.4-1.6 0-3.6 0.4-5.1 0.9l-0.3-2.2c1.7-0.6 3.9-0.9 5.8-0.9 6 0 9.4 2.9 9.4 9.9v0.1h1.8v2.5zm8.8-3.2c0-1.7-0.6-2.9-2-2.9-1.1 0-1.7 0.8-1.7 1.7 0 1.2 1 1.9 2.3 1.9h1.5v-0.7z"/>
			<path class="s0" d="m855 552.5h9.3c0.1-0.6 0.1-1.2 0.1-1.8 0-3-1.2-4.6-4.7-4.6-1 0-1.9 0.1-2.8 0.2v-2.5c0.9-0.1 2-0.2 3.1-0.2 5.4 0 7.5 2.4 7.5 7 0 1.2-0.1 2.7-0.4 4.4h-12.1zm4 6.1c0-0.9 0.7-1.7 1.7-1.7 1 0 1.7 0.7 1.7 1.7 0 0.9-0.7 1.7-1.7 1.7-1 0-1.7-0.8-1.7-1.7z"/>
			<path class="s3" d="m883.4 548.5c-1.1 0-2-0.9-2-2 0-1.1 0.9-1.9 2-1.9 1.1 0 1.9 0.9 1.9 1.9 0.1 1.1-0.8 2-1.9 2zm0 6.7c-1.1 0-2-0.9-2-2 0-1.1 0.9-1.9 2-1.9 1.1 0 1.9 0.9 1.9 1.9 0.1 1.2-0.8 2-1.9 2z"/>
			<path class="s3" d="m894.6 538.1h3.2v14.4h2.4v2.5h-5.6z"/>
			<path fill-rule="evenodd" class="s3" d="m899.8 555v-2.5h2c0.6 0 1.1 0.1 1.1 0.1 0 0-0.6-0.6-0.6-1.6 0-2.3 1.7-4.1 4.5-4.1 3.1 0 4.4 2.1 4.4 4.9v0.6h2.5v-0.3c0-5-2-7.4-6.8-7.4-1.6 0-3.6 0.4-5.1 0.9l-0.3-2.2c1.7-0.6 3.9-0.9 5.8-0.9 6 0 9.4 2.9 9.4 9.9v0.1h1.8v2.5zm8.9-3.2c0-1.7-0.6-2.9-2-2.9-1.1 0-1.7 0.8-1.7 1.7 0 1.2 1 1.9 2.3 1.9h1.5v-0.7z"/>
			<path class="s3" d="m918.2 552.5h3.4v-8.8h3.2v8.8h2.1v2.5h-8.7zm0.9-12.3c0-0.9 0.7-1.6 1.6-1.6 0.9 0 1.6 0.7 1.6 1.6 0 0.9-0.7 1.6-1.6 1.6-0.9 0.1-1.6-0.6-1.6-1.6zm4 0c0-0.9 0.7-1.6 1.6-1.6 0.9 0 1.6 0.7 1.6 1.6 0 0.9-0.7 1.6-1.6 1.6-0.9 0-1.6-0.6-1.6-1.6z"/>
			<path fill-rule="evenodd" class="s3" d="m926.5 552.5h1c0.7 0 1.5 0.1 1.5 0.1-0.7-0.7-1.1-1.9-1.1-3.2 0-3.5 2.5-6 6.1-6 3.4 0 5.6 1.8 5.6 5.6 0 1.4-0.5 2.9-1.4 3.6 0 0 1-0.1 1.8-0.1h1.3v2.5h-14.8zm9.9-3.4c0-2.1-0.8-3.3-2.6-3.3-1.4 0-2.7 1-2.7 3.2 0 2.3 0.9 3.4 2.7 3.4 1.4 0.1 2.6-1 2.6-3.3zm-4.3-9.2c0-0.9 0.7-1.7 1.7-1.7 1 0 1.7 0.7 1.7 1.7 0 0.9-0.7 1.7-1.7 1.7-1 0-1.7-0.7-1.7-1.7z"/>
			<path fill-rule="evenodd" class="s3" d="m957.5 555h-16.6v-2.5h2.9v-8.8h3.2v0.6c0 1.1-0.1 2.4-0.3 3.6 1.2-2.8 3.6-4.5 6.2-4.5 3.3 0 4.9 2.2 4.9 5.8 0 1.9-0.1 3.9-0.3 5.8zm-5.2-9.1c-2.6 0-4.7 3.2-5.3 6.6h7.5c0.1-1 0.1-2.1 0.1-2.9 0-2.3-0.6-3.7-2.3-3.7z"/>
		</g>
	</g>
</svg>