<?xml version="1.0" encoding="utf-8"?>
<!-- Generator: Adobe Illustrator 21.1.0, SVG Export Plug-In . SVG Version: 6.00 Build 0)  -->
<svg version="1.1" id="Layer_1" xmlns="http://www.w3.org/2000/svg" xmlns:xlink="http://www.w3.org/1999/xlink" x="0px" y="0px"
	 viewBox="0 0 53.7 53.7" style="enable-background:new 0 0 53.7 53.7;" xml:space="preserve">
<style type="text/css">
	.st0{fill:#622272;}
	.st1{fill:none;}
	.st2{fill:#FFFFFF;}
</style>
<g>
	<g>
		<g>
			<path class="st0" d="M53.7,26.1c0.2,7.1-2.4,14-7.3,19.2c-4.9,5.2-11.6,8.2-18.8,8.4c-7.1,0.2-14-2.4-19.2-7.3
				C3.3,41.5,0.2,34.8,0,27.7c-0.2-7.1,2.4-14,7.3-19.2C12.2,3.3,19,0.2,26.1,0c7.4-0.2,14.2,2.6,19.2,7.3
				C50.3,12,53.5,18.7,53.7,26.1L53.7,26.1z"/>
			<path class="st1" d="M27,0.3C12.3,0.3,0.4,12.3,0.4,27c0,14.7,11.9,26.6,26.6,26.6c14.7,0,26.6-11.9,26.6-26.6
				C53.7,12.3,41.7,0.3,27,0.3z"/>
		</g>
	</g>
	<path class="st2" d="M42.6,30.2c0-1.3-1.1-2.4-2.4-2.4c0,0,0,0-0.1,0c0.3-0.4,0.5-0.8,0.5-1.4c0-1.2-1-2.2-2.2-2.2
		c-0.3,0-0.7,0.1-1,0.2c0-0.1,0-0.2,0-0.3c0-1.1-0.9-2-2-2c-0.4,0-0.8,0.1-1.2,0.4c0-1.1-0.9-1.9-2-1.9c-0.5,0-1,0.2-1.3,0.5
		c-0.1-0.9-0.8-1.6-1.7-1.6c-0.3,0-0.6,0.1-0.9,0.3c0.1-0.3,0.1-0.5,0.1-0.8c0-0.6-0.2-1.8-0.5-2.8c-0.2-0.6-0.4-1.1-0.6-1.5
		c-0.4-1.2-0.5-2-0.2-2.3c0.5-0.5,2-0.1,3.4,0.3c3.8,1,8.3,1.8,8.4,1.8c0.1,0,0.2,0,0.3-0.1c1-1.3,0.5-4.4,0.5-4.6
		c0-0.2-0.2-0.3-0.3-0.2c0,0-2,0.3-5.1,0.3c-1,0-1.8,0-2.6,0c-3.5,0-5.1,0.1-6.1,1.1c-0.9,1-0.3,3.2-0.1,3.7
		c-0.2,0.3-0.4,0.8-0.6,1.4c-0.3,1-0.5,2.2-0.5,2.8c0,0.3,0,0.5,0.1,0.8c-0.3-0.2-0.6-0.2-0.9-0.2c-0.9,0-1.6,0.7-1.7,1.6
		c-0.3-0.3-0.8-0.5-1.3-0.5c-1.1,0-1.9,0.9-2,1.9c-0.3-0.2-0.7-0.4-1.2-0.4c-1.1,0-2,0.9-2,2c0,0.1,0,0.2,0,0.3
		c-0.3-0.1-0.6-0.2-1-0.2c-1.2,0-2.2,1-2.2,2.2c0,0.5,0.2,1,0.5,1.4c0,0,0,0-0.1,0c-1.3,0-2.4,1.1-2.4,2.4c0,1.2,0.8,2.1,1.9,2.3
		c-0.5,0.4-0.8,1.1-0.8,1.8c0,1.3,1.1,2.3,2.3,2.3c0.2,0,0.3,0,0.5,0c-0.2,0.3-0.3,0.7-0.3,1.1c0,1.4,1.1,2.5,2.5,2.5
		c0.7,0,1.3-0.3,1.8-0.7c0.1,1.4,1.4,2.6,2.8,2.6c0.9,0,1.8-0.5,2.3-1.2c0.3,1.4,1.6,2.5,3.1,2.5c1.5,0,2.8-1.1,3.1-2.5
		c0.5,0.7,1.4,1.2,2.3,1.2c1.5,0,2.7-1.1,2.8-2.6c0.5,0.5,1.1,0.7,1.8,0.7c1.4,0,2.5-1.1,2.5-2.5c0-0.4-0.1-0.8-0.3-1.1
		c0.1,0,0.3,0,0.5,0c1.3,0,2.3-1.1,2.3-2.3c0-0.7-0.3-1.4-0.8-1.8C41.7,32.3,42.6,31.3,42.6,30.2z M29,38.5
		c-0.6-0.8-1.5-1.4-2.6-1.4c-1.1,0-2,0.6-2.6,1.4c-0.3-1.2-1.4-2.1-2.8-2.1c-0.8,0-1.6,0.4-2.1,0.9c-0.2-1.2-1.2-2.2-2.5-2.2
		c-0.2,0-0.4,0-0.6,0.1c0.1-0.3,0.2-0.6,0.2-0.9c0-1.1-0.8-2.1-1.9-2.3c0.5-0.4,0.8-1.1,0.8-1.8c0-0.6-0.2-1.1-0.6-1.5
		c1.2,0,2.2-1,2.2-2.2c0-0.1,0-0.3,0-0.4c0.3,0.1,0.5,0.2,0.8,0.2c1.1,0,2-0.9,2-2c0.3,0.2,0.7,0.3,1.1,0.3c1,0,1.9-0.8,2-1.9
		c0.3,0.2,0.7,0.4,1.1,0.4c1,0,1.8-0.8,1.8-1.8c0,0,0,0,0-0.1c0.3,0.2,0.6,0.4,1,0.4c0.4,0,0.8-0.2,1.2-0.5c0,0.1,0,0.1,0,0.2
		c0,1,0.8,1.8,1.8,1.8c0.4,0,0.8-0.2,1.1-0.4c0.1,1,0.9,1.9,2,1.9c0.4,0,0.8-0.1,1.1-0.3c0,1.1,0.9,2,2,2c0.3,0,0.6-0.1,0.8-0.2
		c0,0.1,0,0.3,0,0.4c0,1.2,1,2.2,2.2,2.2c-0.4,0.4-0.6,1-0.6,1.5c0,0.7,0.3,1.4,0.8,1.8c-1.1,0.2-1.9,1.2-1.9,2.3
		c0,0.3,0.1,0.6,0.2,0.9c-0.2,0-0.4-0.1-0.6-0.1c-1.3,0-2.3,0.9-2.5,2.2c-0.5-0.6-1.3-0.9-2.1-0.9C30.4,36.4,29.3,37.3,29,38.5z
		 M40,26.4c0,0.9-0.7,1.6-1.6,1.6c-0.7,0-1.3-0.4-1.5-1.1h2c0.2,0,0.3-0.1,0.3-0.3s-0.1-0.3-0.3-0.3h-2.1c0-0.9,0.7-1.6,1.6-1.6
		C39.3,24.8,40,25.6,40,26.4z M35.4,22.7c0.7,0,1.2,0.4,1.4,1h-0.9c-0.2,0-0.3,0.1-0.3,0.3s0.1,0.3,0.3,0.3h1
		c-0.1,0.7-0.7,1.3-1.5,1.3c-0.8,0-1.5-0.7-1.5-1.5C34,23.3,34.6,22.7,35.4,22.7z M32.3,21.2c0.8,0,1.4,0.6,1.4,1.4
		c0,0.8-0.6,1.4-1.4,1.4c-0.8,0-1.4-0.6-1.4-1.4C30.9,21.8,31.5,21.2,32.3,21.2z M29.2,20.1c0.6,0,1.2,0.5,1.2,1.2
		c0,0.6-0.5,1.2-1.2,1.2c-0.6,0-1.2-0.5-1.2-1.2C28,20.6,28.6,20.1,29.2,20.1z M27.9,19c0,1-0.8,2-1.6,2c-0.8,0-1.4-1.1-1.4-2
		c0-0.2,0-0.5,0.1-0.9h1.9c0.2,0,0.3-0.1,0.3-0.3s-0.1-0.3-0.3-0.3h-1.8c0-0.2,0.1-0.4,0.1-0.6h1c0.2,0,0.3-0.1,0.3-0.3
		c0-0.2-0.1-0.3-0.3-0.3h-0.8c0.4-1.3,0.8-1.7,1-1.7c0.2,0,0.6,0.4,1,1.7C27.7,17.4,27.9,18.5,27.9,19z M26,11.5
		c0.8-0.9,2.3-0.9,5.6-1c0.8,0,1.6,0,2.6,0c2.4-0.1,4.2-0.2,4.9-0.3c0,0.2,0.1,0.5,0.1,0.7h-4.7c-0.2,0-0.3,0.1-0.3,0.3
		s0.1,0.3,0.3,0.3h4.7c0,0.2,0,0.4,0,0.6h-2.3c-0.2,0-0.3,0.1-0.3,0.3s0.1,0.3,0.3,0.3h2.2c0,0.1,0,0.3-0.1,0.4h-0.7
		c-0.2,0-0.3,0.1-0.3,0.3s0.1,0.3,0.3,0.3h0.5c0,0.1-0.1,0.2-0.1,0.3c-0.9-0.2-4.8-0.9-8.1-1.8c-1.8-0.5-3.3-0.9-4-0.1
		c-0.4,0.4-0.4,1.1-0.2,2.1c0,0-0.1,0-0.1,0c-0.2,0-0.3,0.1-0.5,0.2C25.6,13.5,25.4,12.1,26,11.5z M23.5,20.1c0.6,0,1.2,0.5,1.2,1.2
		c0,0.6-0.5,1.2-1.2,1.2c-0.6,0-1.2-0.5-1.2-1.2C22.4,20.6,22.9,20.1,23.5,20.1z M20.5,21.2c0.8,0,1.4,0.6,1.4,1.4c0,0,0,0.1,0,0.1
		h-0.9c-0.2,0-0.3,0.1-0.3,0.3s0.1,0.3,0.3,0.3h0.7c-0.2,0.4-0.7,0.7-1.2,0.7c-0.8,0-1.4-0.6-1.4-1.4S19.7,21.2,20.5,21.2z
		 M17.4,22.7c0.8,0,1.5,0.7,1.5,1.5s-0.7,1.5-1.5,1.5c-0.8,0-1.5-0.7-1.5-1.5c0-0.1,0-0.2,0-0.2h1c0.2,0,0.3-0.1,0.3-0.3
		c0-0.2-0.1-0.3-0.3-0.3h-0.8C16.4,22.9,16.8,22.7,17.4,22.7z M14.4,24.8c0.9,0,1.6,0.7,1.6,1.6c0,0.9-0.7,1.6-1.6,1.6
		c-0.9,0-1.6-0.7-1.6-1.6C12.8,25.6,13.5,24.8,14.4,24.8z M10.8,30.2L10.8,30.2l1.5,0c0.2,0,0.3-0.1,0.3-0.3s-0.1-0.3-0.3-0.3h-1.4
		c0.2-0.7,0.9-1.2,1.7-1.2c1,0,1.8,0.8,1.8,1.8c0,1-0.8,1.8-1.8,1.8C11.6,32,10.8,31.2,10.8,30.2z M11.9,34.3c0-1,0.8-1.8,1.8-1.8
		c1,0,1.8,0.8,1.8,1.8c0,1-0.8,1.8-1.8,1.8C12.7,36.1,11.9,35.3,11.9,34.3z M16.4,39.7c-1.1,0-2-0.9-2-2c0-1.1,0.9-2,2-2
		c1.1,0,2,0.9,2,2C18.3,38.8,17.5,39.7,16.4,39.7z M21,41.5c-1.3,0-2.3-1-2.3-2.3s1-2.3,2.3-2.3c0.4,0,0.9,0.1,1.2,0.4h-1.9
		c-0.2,0-0.3,0.1-0.3,0.3c0,0.2,0.1,0.3,0.3,0.3h2.5c0.1,0.1,0.1,0.2,0.2,0.3h-1.6c-0.2,0-0.3,0.1-0.3,0.3s0.1,0.3,0.3,0.3h1.8
		c0,0.1,0,0.3,0,0.4C23.3,40.5,22.3,41.5,21,41.5z M26.4,42.9c-1.4,0-2.6-1.1-2.6-2.6s1.1-2.6,2.6-2.6c1.4,0,2.6,1.1,2.6,2.6
		c0,0,0,0,0,0.1H28c-0.2,0-0.3,0.1-0.3,0.3s0.1,0.3,0.3,0.3h0.9c0,0.2-0.1,0.3-0.2,0.5h-1.8c-0.2,0-0.3,0.1-0.3,0.3s0.1,0.3,0.3,0.3
		h1.4C27.8,42.5,27.1,42.9,26.4,42.9z M31.7,41.5c-1.3,0-2.3-1-2.3-2.3c0-0.3,0-0.5,0.1-0.8H32c0.2,0,0.3-0.1,0.3-0.3
		s-0.1-0.3-0.3-0.3h-2.1c0.4-0.6,1.1-0.9,1.8-0.9c1.3,0,2.3,1,2.3,2.3c0,0.3,0,0.5-0.1,0.8h-2.3c-0.2,0-0.3,0.1-0.3,0.3
		c0,0.2,0.1,0.3,0.3,0.3h2C33.1,41.2,32.5,41.5,31.7,41.5z M36.4,39.7c-1.1,0-2-0.9-2-2c0-1.1,0.9-2,2-2c1.1,0,2,0.9,2,2
		c0,0.1,0,0.1,0,0.2h-2.1c-0.2,0-0.3,0.1-0.3,0.3s0.1,0.3,0.3,0.3h2C37.9,39.2,37.2,39.7,36.4,39.7z M40.9,34.3c0,1-0.8,1.8-1.8,1.8
		c-1,0-1.8-0.8-1.8-1.8c0-1,0.8-1.8,1.8-1.8C40.1,32.5,40.9,33.3,40.9,34.3z M40.2,32c-1,0-1.8-0.8-1.8-1.8c0-1,0.8-1.8,1.8-1.8
		c1,0,1.8,0.8,1.8,1.8C42,31.2,41.2,32,40.2,32z"/>
</g>
</svg>
