<?xml version="1.0" encoding="utf-8"?>
<!-- Generator: Adobe Illustrator 21.1.0, SVG Export Plug-In . SVG Version: 6.00 Build 0)  -->
<svg version="1.1" id="Layer_1" xmlns="http://www.w3.org/2000/svg" xmlns:xlink="http://www.w3.org/1999/xlink" x="0px" y="0px"
	 viewBox="0 0 527.9 431.9" style="enable-background:new 0 0 527.9 431.9;" xml:space="preserve">
<style type="text/css">
	.st0{fill:#C94876;}
	.st1{fill:#622272;}
	.st2{fill:#FFEC99;}
</style>
<g id="Minus">
</g>
<g id="Mute">
</g>
<g>
	<g>
		<g>
			<g>
				<path class="st0" d="M94.6,100.9c-4.3,3.7-3.3,7.4-1.1,7.4c1.6,0,2.2-1.8,1.4-2.8c-0.7-0.9-0.6-1.9,0.9-3.5L94.6,100.9z"/>
				<path class="st0" d="M118.6,105.7h-2.5h-0.3h-1.9v-7.9c0,0-2.1-0.8-4.8-0.8c-4.2,0-6.1,2.8-6.1,5.8c0,3.3,1.7,5.3,6.2,5.3h6.6
					h0.3h5.5V91.8h-3V105.7z M110.9,105.7h-1.5c-2.4,0-3.4-1.1-3.4-3.2c0-1.8,1-3.1,2.7-3.1c1.3,0,2.2,0.4,2.2,0.4V105.7z"/>
				<path class="st0" d="M142,96.9h-1.3c-1.2,0-1.6-0.4-1.6-0.9c0-0.5,0.4-0.8,1.1-0.8c0.5,0,1,0.1,1.1,0.1l0.3-1.7
					c-0.2,0-0.7-0.1-1.4-0.1c-2.4,0-3.3,1.3-3.3,2.6c0,0.3,0.2,0.8,0.4,0.9c-0.3-0.1-0.8-0.1-1.3-0.1v1.7h5.9V96.9z"/>
				<path class="st0" d="M150.9,109.9c-0.9,0-1.5,0.7-1.5,1.6c0,0.9,0.7,1.6,1.5,1.6c0.9,0,1.5-0.7,1.5-1.6
					C152.4,110.6,151.7,109.9,150.9,109.9z"/>
				<path class="st0" d="M153.2,105.7h-4h-0.4h-2V91.8h-3v13.8h-4.8c-4.3,0-5.7-1.5-5.7-4.8c0-1.2,0.3-2.7,0.8-3.8l-3.2,0.5
					c-0.3,0.9-0.6,2.4-0.6,3.6c0,4.2,2.2,6.8,8.4,6.8h10.1h0.4h7V97.2h-3V105.7z"/>
				<path class="st0" d="M154.7,109.9c-0.9,0-1.5,0.7-1.5,1.6c0,0.9,0.7,1.6,1.5,1.6s1.5-0.7,1.5-1.6
					C156.2,110.6,155.5,109.9,154.7,109.9z"/>
				<path class="st0" d="M176.5,92.2c0.8,0,1.4-0.6,1.4-1.4s-0.6-1.4-1.4-1.4c-0.8,0-1.4,0.6-1.4,1.4S175.7,92.2,176.5,92.2z"/>
				<path class="st0" d="M174.6,95.5c0.9,0,1.5-0.7,1.5-1.6c0-0.9-0.7-1.6-1.5-1.6s-1.5,0.7-1.5,1.6
					C173.1,94.8,173.8,95.5,174.6,95.5z"/>
				<path class="st0" d="M176.9,93.9c0,0.9,0.7,1.6,1.5,1.6c0.9,0,1.5-0.7,1.5-1.6c0-0.9-0.7-1.6-1.5-1.6
					C177.6,92.4,176.9,93.1,176.9,93.9z"/>
				<path class="st0" d="M180.9,96.7c0.4,1.7,0.7,3.9,0.7,6.2c0,0.7-0.1,1.8-0.2,2.8h-0.8c-2,0-2.5-0.6-2.5-2.6v-5.4h-2.9v5.5
					c0,1.7-0.4,2.6-1.7,2.6c-1.4,0-1.7-0.9-1.7-2.7v-4.6h-3v4.2c0,2.3-0.6,2.9-2.1,2.9h-0.4h-0.3H164v-8.4h-3v11.1
					c0,2.5-0.9,3.2-2.5,3.2c-0.7,0-1.3-0.1-1.9-0.3l-0.3,2.4c0.6,0.1,1.2,0.2,1.9,0.2c4.7,0,5.7-2.8,5.7-5.7v-0.1h1.9h0.3h0.4
					c1.7,0,2.6-0.6,3.1-1.7c0.4,1.2,1.6,1.9,3.3,1.9c1.4,0,2.8-0.6,3.3-1.9c0.5,1.2,1.7,1.7,3.7,1.7h4.3c0.2-1.6,0.3-3.7,0.3-5.4
					c0-2.3-0.3-4.5-0.7-6.4L180.9,96.7z"/>
				<polygon class="st0" points="198.9,103.9 195.6,91.7 192.5,92.1 195.8,103.9 				"/>
				<polygon class="st0" points="200.6,105.7 193.5,105.7 193.5,108.1 203.6,108.1 203.6,91.8 200.6,91.8 				"/>
				<path class="st0" d="M218.1,97c-4,0-6,2.7-6,5.8c0,3.2,1.7,5.3,6.2,5.3h5v-5.8C223.3,99,221.6,97,218.1,97z M220.3,105.7h-1.7
					c-2.4,0-3.4-1.1-3.4-3.2c0-1.8,1-3.1,2.7-3.1c1.5,0,2.5,1,2.5,3.3V105.7z"/>
				<path class="st0" d="M241.6,97.1c-1,0-2,0.1-2.9,0.2v2.4c0.9-0.1,1.7-0.2,2.6-0.2c3.3,0,4.5,1.5,4.5,4.4c0,0.6,0,1.2-0.1,1.7
					h-8.6h-0.3h-1.2c-0.3-5.1-2.9-7.7-7.6-9l-0.7,2.5c3.6,0.9,5.3,3,5.4,6.4h-6.8v2.4h10.9h0.3h11.3c0.3-1.7,0.4-3.1,0.4-4.3
					C248.8,99.4,246.8,97.1,241.6,97.1z"/>
				<path class="st0" d="M251,102.7c0,3.3,1.7,5.3,6.2,5.3h1.8v0.3c0,2.2-1.6,3.1-4,3.1c-1.8,0-3.6-0.4-3.6-0.4l-0.2,2.5
					c0,0,1.8,0.3,3.5,0.3c5.2,0,7.2-2.6,7.2-5.7V97.8c0,0-2.1-0.8-4.8-0.8C252.9,97,251,99.7,251,102.7z M258.9,105.7h-1.5
					c-2.4,0-3.4-1.1-3.4-3.2c0-1.8,1-3.1,2.7-3.1c1.3,0,2.2,0.4,2.2,0.4V105.7z"/>
				<path class="st0" d="M293.6,105.7h-2.5h-0.4h-2V91.8h-3v13.8h-2.5h-0.3H281v-7.9c0,0-2.1-0.8-4.8-0.8c-4.2,0-6.1,2.8-6.1,5.8
					c0,3.3,1.7,5.3,6.2,5.3h6.6h0.3h7.5h0.4h5.5V91.8h-3V105.7z M278,105.7h-1.5c-2.4,0-3.4-1.1-3.4-3.2c0-1.8,1-3.1,2.7-3.1
					c1.3,0,2.2,0.4,2.2,0.4V105.7z"/>
				<rect x="300.5" y="91.8" class="st0" width="3" height="16.2"/>
				<polygon class="st0" points="319.9,105.7 312.8,105.7 312.8,108.1 322.9,108.1 322.9,91.8 319.9,91.8 				"/>
				<polygon class="st0" points="318.2,103.9 314.9,91.7 311.8,92.1 315.1,103.9 				"/>
				<rect x="326.8" y="91.8" class="st0" width="3" height="16.2"/>
				<path class="st0" d="M328,111.8c0-0.4,0.4-0.7,1-0.7c0.5,0,0.9,0.1,1.1,0.1l0.3-1.7c-0.2,0-0.8-0.1-1.4-0.1
					c-2.2,0-3.2,1.1-3.2,2.4c0,0.3,0.1,0.6,0.3,0.8c-0.3-0.1-0.7-0.1-1.1-0.1v1.7h5.8v-1.7h-1.4C328.4,112.5,328,112.3,328,111.8z"
					/>
				<path class="st0" d="M354,105.7h-2.5h-0.3h-1.9v-7.9c0,0-2.1-0.8-4.8-0.8c-4.2,0-6.1,2.8-6.1,5.8c0,3.3,1.7,5.3,6.2,5.3h6.6h0.3
					h5.5V91.8h-3V105.7z M346.3,105.7h-1.5c-2.4,0-3.4-1.1-3.4-3.2c0-1.8,1-3.1,2.7-3.1c1.3,0,2.2,0.4,2.2,0.4V105.7z"/>
				<rect x="360.9" y="91.8" class="st0" width="3" height="16.2"/>
				<path class="st0" d="M362.1,111.8c0-0.4,0.4-0.7,1-0.7c0.5,0,0.9,0.1,1.1,0.1l0.3-1.7c-0.2,0-0.8-0.1-1.4-0.1
					c-2.2,0-3.2,1.1-3.2,2.4c0,0.3,0.1,0.6,0.3,0.8c-0.3-0.1-0.7-0.1-1.1-0.1v1.7h5.8v-1.7h-1.4
					C362.4,112.5,362.1,112.3,362.1,111.8z"/>
				<polygon class="st0" points="378.6,103.9 375.2,91.7 372.2,92.1 375.5,103.9 				"/>
				<polygon class="st0" points="380.3,105.7 373.2,105.7 373.2,108.1 383.3,108.1 383.3,91.8 380.3,91.8 				"/>
				<path class="st0" d="M388.4,90.9c-1.6,0-2.2,1.8-1.4,2.8c0.7,0.9,0.6,1.9-0.9,3.5l1.2,1.1C391.6,94.5,390.5,90.9,388.4,90.9z"/>
				<path class="st0" d="M393.4,90.9c-1.6,0-2.2,1.8-1.4,2.8c0.7,0.9,0.6,1.9-0.9,3.5l1.2,1.1C396.6,94.5,395.6,90.9,393.4,90.9z"/>
			</g>
			<g>
				<path class="st1" d="M405.2,99.1c0.5,0,0.8-0.4,0.8-0.9c0-0.5-0.4-0.8-0.8-0.8c-0.5,0-0.8,0.4-0.8,0.8
					C404.4,98.7,404.7,99.1,405.2,99.1z"/>
				<path class="st1" d="M407.6,99.1c0.5,0,0.8-0.4,0.8-0.9c0-0.5-0.4-0.8-0.8-0.8c-0.5,0-0.9,0.4-0.9,0.8
					C406.7,98.7,407.1,99.1,407.6,99.1z"/>
				<path class="st1" d="M413.6,106.9h-2.1h-0.2h-1.5v-6c0,0-1.5-0.6-3.2-0.6c-2.7,0-4,1.9-4,4c0,2.3,1.1,3.7,4.2,3.7h4.6h0.2h3.6
					v-7.5h-1.5V106.9z M408.3,106.9h-1.4c-2.1,0-2.9-0.9-2.9-2.7c0-1.6,0.9-2.6,2.4-2.6c1.2,0,1.9,0.4,1.9,0.4V106.9z"/>
				<path class="st1" d="M413.8,97.4c0-0.4,0.3-0.7,0.9-0.7c0.3,0,0.6,0,0.8,0.1l0.1-0.9c-0.2,0-0.5-0.1-0.9-0.1c-1.5,0-2,0.8-2,1.6
					c0,0.3,0.1,0.6,0.4,0.8c-0.3,0-0.7-0.1-1.1-0.1V99h3.9v-0.9H415C414.1,98.1,413.8,97.8,413.8,97.4z"/>
				<path class="st1" d="M433.7,106.9h-2h-0.2h-1.4v-2.7c0-2.4-1.1-3.8-3.5-3.8c-2.5,0-3.9,1.8-3.9,4.2c0,1.9-0.6,2.4-1.4,2.4h-0.1
					H421h-1.5V96.8H418v11.3h3h0.2h0v0c1,0,1.8-0.5,2.1-1.4c0.5,0.9,1.5,1.4,3.3,1.4h4.8h0.2h3.5V96.8h-1.5V106.9z M428.7,106.9
					h-1.8c-1.9,0-2.7-0.8-2.7-2.5c0-1.8,0.9-2.9,2.3-2.9c1.4,0,2.2,0.8,2.2,2.9V106.9z"/>
				<rect x="438.2" y="96.8" class="st1" width="1.5" height="11.3"/>
				<path class="st1" d="M453.1,100.4c-2.3,0-3.6,1.4-3.9,3.2h-0.4c-2.3,0-3.1,1.5-2.7,3.6l0.8,5.1h1.4l-0.8-5.2
					c-0.3-1.6,0.1-2.3,1.2-2.3h0.4c0.1,2.1,1.3,3.4,4.2,3.4h3.2v-4.1C456.6,101.7,455.4,100.4,453.1,100.4z M455.1,106.9h-1.6
					c-2,0-2.9-0.9-2.9-2.7c0-1.6,0.9-2.7,2.4-2.7c1.3,0,2.1,0.8,2.1,2.7V106.9z"/>
				<path class="st1" d="M474.6,99.1c0.5,0,0.8-0.4,0.8-0.9c0-0.5-0.4-0.8-0.8-0.8c-0.5,0-0.8,0.4-0.8,0.8
					C473.7,98.7,474.1,99.1,474.6,99.1z"/>
				<path class="st1" d="M475.3,106.9h-2.1h-0.2h-1.4v-2.7c0-2.4-1.1-3.8-3.5-3.8c-2.5,0-3.9,1.8-3.9,4.2c0,1.9-0.6,2.4-1.4,2.4
					h-0.1h-0.2h-1.5V96.8h-1.5v11.3h3h0.2h0v0c1,0,1.8-0.5,2.1-1.4c0.5,0.9,1.5,1.4,3.3,1.4h4.8h0.2h3.6v-7.5h-1.5V106.9z
					 M470.1,106.9h-1.8c-1.9,0-2.7-0.8-2.7-2.5c0-1.8,0.9-2.9,2.3-2.9c1.4,0,2.2,0.8,2.2,2.9V106.9z"/>
				<path class="st1" d="M476.9,97.3c-0.5,0-0.9,0.4-0.9,0.8c0,0.5,0.4,0.9,0.9,0.9c0.5,0,0.8-0.4,0.8-0.9
					C477.8,97.7,477.4,97.3,476.9,97.3z"/>
				<path class="st1" d="M486.8,100.4c-2.7,0-4,1.9-4,4c0,2.3,1.1,3.7,4.2,3.7h1.6v0.4c0,1.8-1.3,2.5-3.1,2.5
					c-1.2,0-2.6-0.3-2.6-0.3l-0.1,1.2c0,0,1.3,0.2,2.5,0.2c3.4,0,4.7-1.9,4.7-3.7v-7.4C490,100.9,488.6,100.4,486.8,100.4z
					 M488.6,106.9h-1.4c-2.1,0-2.9-0.9-2.9-2.7c0-1.6,0.9-2.6,2.4-2.6c1.2,0,1.9,0.4,1.9,0.4V106.9z"/>
			</g>
			<g>
				<path class="st0" d="M61.2,140.6c-1,0-1.9,0.9-1.9,1.9c0,1,0.9,1.9,1.9,1.9c1,0,1.9-0.9,1.9-1.9C63,141.4,62.2,140.6,61.2,140.6
					z"/>
				<path class="st0" d="M73.2,126.7c-4.3,3.7-3.3,7.4-1.1,7.4c1.6,0,2.2-1.8,1.4-2.8c-0.7-0.9-0.6-1.9,0.9-3.5L73.2,126.7z"/>
				<path class="st0" d="M68.2,126.7c-4.3,3.7-3.3,7.4-1.1,7.4c1.6,0,2.2-1.8,1.4-2.8c-0.7-0.9-0.6-1.9,0.9-3.5L68.2,126.7z"/>
				<path class="st0" d="M88.9,141.7h-4h-0.3h-1.9v-8.4h-3v11.1c0,2.5-0.9,3.2-2.5,3.2c-0.7,0-1.3-0.1-1.9-0.3l-0.3,2.4
					c0.6,0.1,1.2,0.2,1.9,0.2c4.7,0,5.7-2.8,5.7-5.7v-0.1h1.9H85h7v-10.8h-3V141.7z"/>
				<path class="st0" d="M90.4,145.9c-0.9,0-1.5,0.7-1.5,1.6c0,0.9,0.7,1.6,1.5,1.6s1.5-0.7,1.5-1.6
					C91.9,146.6,91.2,145.9,90.4,145.9z"/>
				<path class="st0" d="M86.6,145.9c-0.9,0-1.5,0.7-1.5,1.6c0,0.9,0.7,1.6,1.5,1.6c0.9,0,1.5-0.7,1.5-1.6
					C88.1,146.6,87.4,145.9,86.6,145.9z"/>
				<path class="st0" d="M112.9,133c-4,0-6,2.7-6,5.6c0,1.6,0.4,2.7,1.3,3.3c0,0-0.5-0.2-1.3-0.2h-1h-0.3h-1.2
					c-0.3-5.1-2.9-7.7-7.6-9l-0.7,2.5c3.6,0.9,5.3,3,5.4,6.4h-6.8v2.4h10.9h0.3h12.1v-5.8C118.1,135,116.5,133,112.9,133z
					 M115.2,141.7h-1.7c-2.4,0-3.4-1.1-3.4-3.2c0-1.8,1-3.1,2.7-3.1c1.5,0,2.5,1,2.5,3.3V141.7z"/>
				<path class="st0" d="M110.7,131.5c0.9,0,1.5-0.7,1.5-1.6c0-0.9-0.7-1.6-1.5-1.6c-0.9,0-1.5,0.7-1.5,1.6
					C109.2,130.8,109.9,131.5,110.7,131.5z"/>
				<path class="st0" d="M114.6,131.5c0.9,0,1.5-0.7,1.5-1.6c0-0.9-0.7-1.6-1.5-1.6c-0.9,0-1.5,0.7-1.5,1.6
					C113,130.8,113.7,131.5,114.6,131.5z"/>
				<path class="st0" d="M132.3,129.6H131c-1.2,0-1.6-0.4-1.6-0.9c0-0.5,0.4-0.8,1.1-0.8c0.5,0,1,0.1,1.1,0.1l0.3-1.7
					c-0.2,0-0.7-0.1-1.4-0.1c-2.4,0-3.3,1.3-3.3,2.6c0,0.3,0.2,0.8,0.4,0.9c-0.3-0.1-0.8-0.1-1.3-0.1v1.7h5.9V129.6z"/>
				<path class="st0" d="M158.9,128.2c0.8,0,1.4-0.6,1.4-1.4s-0.6-1.4-1.4-1.4c-0.8,0-1.4,0.6-1.4,1.4S158.2,128.2,158.9,128.2z"/>
				<path class="st0" d="M159.3,129.9c0,0.9,0.7,1.6,1.5,1.6c0.9,0,1.5-0.7,1.5-1.6c0-0.9-0.7-1.6-1.5-1.6
					C160,128.4,159.3,129.1,159.3,129.9z"/>
				<path class="st0" d="M157.1,131.5c0.9,0,1.5-0.7,1.5-1.6c0-0.9-0.7-1.6-1.5-1.6s-1.5,0.7-1.5,1.6
					C155.5,130.8,156.2,131.5,157.1,131.5z"/>
				<path class="st0" d="M163.4,132.7c0.4,1.7,0.7,3.9,0.7,6.2c0,0.7-0.1,1.8-0.2,2.8h-0.8c-2,0-2.5-0.6-2.5-2.6v-5.4h-2.9v5.5
					c0,1.7-0.4,2.6-1.7,2.6c-1.4,0-1.7-0.9-1.7-2.7v-4.6h-3v4.2c0,2.3-0.6,2.9-2.1,2.9h-0.4h-0.3h-1.6V138c0-3.2-1.3-5.1-5.3-5.1
					c-2.5,0-4.6,0.4-4.6,0.4v8.3h-1.6c-4.3,0-5.7-1.5-5.7-4.8c0-1.2,0.3-2.7,0.8-3.8l-3.2,0.5c-0.3,0.9-0.6,2.4-0.6,3.6
					c0,4.2,2.2,6.8,8.4,6.8h4.8v-8.6c0,0,0.8-0.1,1.5-0.1c1.9,0,2.6,0.8,2.6,3v5.7h4.5h0.3h0.4c1.7,0,2.6-0.6,3.1-1.7
					c0.4,1.2,1.6,1.9,3.3,1.9c1.4,0,2.8-0.6,3.3-1.9c0.5,1.2,1.7,1.7,3.7,1.7h4.3c0.2-1.6,0.3-3.7,0.3-5.4c0-2.3-0.3-4.5-0.7-6.4
					L163.4,132.7z"/>
				<path class="st0" d="M190.5,135.2c3.7,0.9,5.5,2.9,5.6,6.5h-6.5h-0.4h-1.8v-13.8h-3v14.7c0,3.4-1.2,4.4-2.9,4.4
					c-1.6,0-3.2-0.9-3.2-4.4c0-1.4,0.2-2.9,0.6-4.4l-3.1,0.6c-0.4,1.3-0.6,2.8-0.6,4.1c0,4.6,2.3,6.5,5.9,6.5c3.4,0,5.5-1.7,6-5.3
					h1.9h0.4h9.4v-1.5c0-5-2-7.5-5.1-8.9l5.6-3.4v-3l-9.1,5.7V135.2z"/>
				<path class="st0" d="M241.8,138.2c0-1.8,1.2-2.9,2.9-2.9c1.3,0,2.4,0.5,2.4,0.5l0.5-2.4c0,0-1.3-0.4-2.9-0.4c-4.1,0-6,2.4-6,5.3
					c0,1.5,0.8,2.8,1.8,3.4h-3.2H237h-2v-13.8h-3v13.8h-2.5h-0.3h-1.6V138c0-3.2-1.3-5.1-5.3-5.1c-2.5,0-4.6,0.4-4.6,0.4v8.3h-1.6
					c-4.3,0-5.7-1.5-5.7-4.8c0-1.2,0.3-2.7,0.8-3.8l-3.2,0.5c-0.3,0.9-0.6,2.4-0.6,3.6c0,4.2,2.2,6.8,8.4,6.8h4.8v-8.6
					c0,0,0.8-0.1,1.5-0.1c1.9,0,2.6,0.8,2.6,3v5.7h4.5h0.3h7.5h0.4h11.4v-2.4H247C243.4,141.7,241.8,140.2,241.8,138.2z"/>
				<path class="st0" d="M276.2,132.1c-1.8,0-3.9,0.4-5.6,0.9l0.3,2.1c1.5-0.5,3.4-0.9,4.9-0.9c4.6,0,6.5,2.3,6.5,7.1v0.3h-2.4v-0.6
					c0-2.7-1.2-4.7-4.2-4.7c-2.8,0-4.3,1.7-4.3,3.9c0,0.9,0.6,1.5,0.6,1.5s-0.4-0.1-1-0.1h-1.6h-0.4H267v-7.9c0,0-2.1-0.8-4.8-0.8
					c-4.2,0-6.1,2.8-6.1,5.8c0,3.3,1.7,5.3,6.2,5.3h1.8v0.3c0,2.2-1.6,3.1-4,3.1c-1.8,0-3.6-0.4-3.6-0.4l-0.2,2.5
					c0,0,1.8,0.3,3.5,0.3c5.2,0,7.2-2.6,7.2-5.7v0h1.9h0.4h15.9v-2.5C285.2,134.9,281.9,132.1,276.2,132.1z M264.1,141.7h-1.5
					c-2.4,0-3.4-1.1-3.4-3.2c0-1.8,1-3.1,2.7-3.1c1.3,0,2.2,0.4,2.2,0.4V141.7z M277.4,141.8H276c-1.2,0-2.2-0.6-2.2-1.8
					c0-0.9,0.6-1.7,1.7-1.7c1.3,0,2,1.2,2,2.8V141.8z"/>
				<path class="st0" d="M287.4,138.7c0,3.3,1.7,5.3,6.2,5.3h1.8v0.3c0,2.2-1.6,3.1-4,3.1c-1.8,0-3.6-0.4-3.6-0.4l-0.2,2.5
					c0,0,1.8,0.3,3.5,0.3c5.2,0,7.2-2.6,7.2-5.7v-10.3c0,0-2.1-0.8-4.8-0.8C289.3,133,287.4,135.7,287.4,138.7z M295.4,141.7h-1.5
					c-2.4,0-3.4-1.1-3.4-3.2c0-1.8,1-3.1,2.7-3.1c1.3,0,2.2,0.4,2.2,0.4V141.7z"/>
				<path class="st0" d="M348.8,141.7h-2.5H346h-1.5c0.1-0.7,0.1-1.3,0.1-1.9c0-4.4-2-6.7-7.2-6.7c-1,0-2,0.1-2.9,0.2v2.4
					c0.9-0.1,1.7-0.2,2.6-0.2c3.3,0,4.5,1.5,4.5,4.4c0,0.6,0,1.2-0.1,1.7h-8.5h-0.4H331v-3.2c0-3.4-1.6-5.5-5.3-5.5
					c-3.9,0-5.9,2.7-5.9,6c0,2.1-0.6,2.8-1.7,2.8H318h-0.3h-1.2c-0.3-5.1-2.9-7.7-7.6-9l-0.7,2.5c3.6,0.9,5.3,3,5.4,6.4h-6.8v2.4
					h10.9h0.3h0c1.4,0,2.5-0.6,3-1.8c0.7,1.1,2,1.8,4.7,1.8h6.8h0.4h13h0.3h5.5v-16.2h-3V141.7z M328,141.7h-2c-2.4,0-3.2-1-3.2-3
					c0-2,1-3.3,2.7-3.3c1.7,0,2.6,1,2.6,3.4V141.7z"/>
				<rect x="355.8" y="127.8" class="st0" width="3" height="16.2"/>
				<path class="st0" d="M382.9,141.7h-2.5H380h-1.9v-7.9c0,0-2.1-0.8-4.8-0.8c-4.2,0-6.1,2.8-6.1,5.8c0,3.3,1.7,5.3,6.2,5.3h6.6
					h0.3h5.5v-16.2h-3V141.7z M375.2,141.7h-1.5c-2.4,0-3.4-1.1-3.4-3.2c0-1.8,1-3.1,2.7-3.1c1.3,0,2.2,0.4,2.2,0.4V141.7z"/>
				<path class="st0" d="M388.8,138.7c0,3.3,1.7,5.3,6.2,5.3h1.8v0.3c0,2.2-1.6,3.1-4,3.1c-1.8,0-3.6-0.4-3.6-0.4l-0.2,2.5
					c0,0,1.8,0.3,3.5,0.3c5.2,0,7.2-2.6,7.2-5.7v-10.3c0,0-2.1-0.8-4.8-0.8C390.6,133,388.8,135.7,388.8,138.7z M396.7,141.7h-1.5
					c-2.4,0-3.4-1.1-3.4-3.2c0-1.8,1-3.1,2.7-3.1c1.3,0,2.2,0.4,2.2,0.4V141.7z"/>
				<path class="st0" d="M419.8,132.9h-1.3c-1.2,0-1.6-0.4-1.6-0.9c0-0.5,0.4-0.8,1.1-0.8c0.5,0,1,0.1,1.1,0.1l0.3-1.7
					c-0.2,0-0.7-0.1-1.4-0.1c-2.4,0-3.3,1.3-3.3,2.6c0,0.3,0.2,0.8,0.4,0.9c-0.3-0.1-0.8-0.1-1.3-0.1v1.7h5.9V132.9z"/>
				<path class="st0" d="M452.3,141.7h-2.5h-0.4h-1.6v-3.2c0-3.4-1.6-5.5-5.3-5.5c-3.9,0-5.9,2.7-5.9,6c0,2.1-0.6,2.8-1.7,2.8h-0.1
					h-0.4h-2v-13.8h-3v13.8h-2.5h-0.4h-2v-13.8h-3v13.8h-4.8c-4.3,0-5.7-1.5-5.7-4.8c0-1.2,0.3-2.7,0.8-3.8l-3.2,0.5
					c-0.3,0.9-0.6,2.4-0.6,3.6c0,4.2,2.2,6.8,8.4,6.8h10.1h0.4h7.5h0.3h0v0c1.4,0,2.4-0.6,3-1.8c0.7,1.1,2,1.8,4.7,1.8h6.8h0.4h5.5
					v-16.2h-3V141.7z M444.9,141.7h-2c-2.4,0-3.2-1-3.2-3c0-2,1-3.3,2.7-3.3c1.7,0,2.6,1,2.6,3.4V141.7z"/>
				<rect x="459.3" y="127.8" class="st0" width="3" height="16.2"/>
				<path class="st0" d="M486.4,127.8v13.8h-2.5h-0.3h-1.9v-7.9c0,0-2.1-0.8-4.8-0.8c-4.2,0-6.1,2.8-6.1,5.8c0,3.3,1.7,5.3,6.2,5.3
					h6.6h0.3h5.5v-16.2H486.4z M478.7,141.7h-1.5c-2.4,0-3.4-1.1-3.4-3.2c0-1.8,1-3.1,2.7-3.1c1.3,0,2.2,0.4,2.2,0.4V141.7z"/>
			</g>
		</g>
	</g>
	<g>
		<g>
			<g>
				<path class="st1" d="M242.4,179.5c-0.5,0-1,0.4-1,1c0,0.6,0.4,1,1,1c0.5,0,1-0.4,1-1C243.4,180,243,179.5,242.4,179.5z"/>
				<circle class="st1" cx="242.4" cy="185.2" r="1"/>
				<path class="st1" d="M252,187.6c-0.5,0-0.9,0.4-0.9,0.8c0,0.5,0.4,0.9,0.9,0.9c0.5,0,0.8-0.4,0.8-0.9S252.5,187.6,252,187.6z"/>
				<path class="st1" d="M249.7,187.6c-0.5,0-0.8,0.4-0.8,0.8c0,0.5,0.4,0.9,0.8,0.9c0.5,0,0.8-0.4,0.8-0.9S250.1,187.6,249.7,187.6
					z"/>
				<path class="st1" d="M265.5,177.9c-1.3,0-2.7,0.3-3.8,0.6l0.2,1.1c1-0.3,2.4-0.6,3.4-0.6c3.3,0,4.8,1.6,4.8,5.6v0.3H268v-0.7
					c0-2-0.9-3.4-2.8-3.4c-1.8,0-2.9,1.1-2.9,2.7c0,1,0.7,1.5,0.7,1.5s-0.3,0-0.6,0h-1.6h-0.2h-1.4v-3c0-2.2-0.9-3.5-3.6-3.5
					c-1.5,0-2.9,0.3-2.9,0.3v6.2h-1.4c-3.3,0-4.3-1.2-4.3-3.7c0-0.9,0.2-2,0.6-2.8l-1.6,0.3c-0.3,0.6-0.5,1.7-0.5,2.7
					c0,3,1.6,4.7,5.6,4.7h3v-6.4c0,0,0.7-0.1,1.3-0.1c1.6,0,2.3,0.7,2.3,2.5v4h2.8h0.2h10.8v-1.5
					C271.6,179.8,269.4,177.9,265.5,177.9z M266.7,184.9h-1.3c-1,0-1.8-0.6-1.8-1.6c0-0.8,0.5-1.5,1.5-1.5c1.2,0,1.6,1,1.6,2.4
					V184.9z"/>
				<path class="st1" d="M273.4,182.3c0,2.3,1.1,3.7,4.2,3.7h1.6v0.4c0,1.8-1.3,2.5-3.1,2.5c-1.2,0-2.6-0.3-2.6-0.3l-0.1,1.2
					c0,0,1.3,0.2,2.5,0.2c3.4,0,4.7-1.9,4.7-3.7v-7.4c0,0-1.5-0.6-3.2-0.6C274.7,178.4,273.4,180.2,273.4,182.3z M279.3,184.9h-1.4
					c-2.1,0-2.9-0.9-2.9-2.7c0-1.6,0.9-2.6,2.4-2.6c1.2,0,1.9,0.4,1.9,0.4V184.9z"/>
				<path class="st1" d="M290.7,178.4c-2.7,0-4,1.8-4,4c0,2.3,1.1,3.7,4.2,3.7h3.2V182C294.1,179.7,293,178.4,290.7,178.4z
					 M292.7,184.9h-1.6c-2,0-2.9-0.9-2.9-2.7c0-1.6,0.9-2.7,2.4-2.7c1.3,0,2.1,0.8,2.1,2.7V184.9z"/>
				<path class="st1" d="M289.4,177.1c0.5,0,0.8-0.4,0.8-0.9c0-0.5-0.4-0.8-0.8-0.8c-0.5,0-0.8,0.4-0.8,0.8
					C288.6,176.7,288.9,177.1,289.4,177.1z"/>
				<path class="st1" d="M291.8,177.1c0.5,0,0.8-0.4,0.8-0.9c0-0.5-0.4-0.8-0.8-0.8c-0.5,0-0.9,0.4-0.9,0.8
					C290.9,176.7,291.3,177.1,291.8,177.1z"/>
				<polygon class="st1" points="300.2,183.5 297.7,174.7 296.2,174.9 298.7,183.5 				"/>
				<path class="st1" d="M312.7,178.4c-1.8,0-3.6,1.3-4.4,3.7h0c0.1-0.9,0.2-2,0.2-2.9v-0.6H307v6.4h-2h-0.2h-1.5v-10.1h-1.5v10.1
					h-4.9v1.2h8h0.2h10.6c0.1-1.2,0.2-2.5,0.2-3.7C315.8,179.9,314.8,178.4,312.7,178.4z M314.2,184.9h-5.7c0.3-2.6,1.8-5.3,4-5.3
					c1.4,0,1.9,1.2,1.9,2.9C314.3,183.2,314.3,184.1,314.2,184.9z"/>
				<path class="st1" d="M332.2,179.4c2.8,0.8,4.1,2.3,4.2,5.5h-4.9h-0.2h-1.5v-10.1h-1.5v10.5c0,2.5-1.1,3.3-2.3,3.3
					c-1.3,0-2.6-0.7-2.6-3.4c0-1,0.1-2.1,0.4-3.2l-1.5,0.3c-0.3,0.9-0.4,2-0.4,3c0,3.3,1.7,4.5,3.9,4.5c2.1,0,3.6-1.1,3.9-3.7h1.5
					h0.2h6.4v-0.8c0-3.8-1.4-5.5-3.9-6.6l4.4-2.7v-1.5l-6.1,3.8V179.4z"/>
				<path class="st1" d="M363.4,187.6c-0.5,0-0.9,0.4-0.9,0.9c0,0.5,0.4,0.9,0.9,0.9s0.9-0.4,0.9-0.9
					C364.3,188,363.9,187.6,363.4,187.6z"/>
				<path class="st1" d="M363.8,184.9h-2.1h-0.2h-0.7c-0.9,0-1.6-0.3-2.3-0.8c1.3-1,1.9-2.2,1.9-3.3c0-1.3-0.9-2.5-3.1-2.5
					c-1.6,0-3.4,1-4.6,1.9l-0.1,1c1.6,0.5,2.7,1.7,3.8,2.8c-1.1,0.5-2.6,0.8-4.4,0.8h-0.3h-0.2h-1c-0.1-3.8-1.8-5.6-5.1-6.7
					l-0.4,1.2c2.8,0.9,4,2.5,4,5.4h-5.1v1.2h7.6h0.2h0.2c2.2,0,4-0.5,5.4-1.2c0.9,0.7,1.9,1.2,3.2,1.2h0.9h0.2h3.6v-7.5h-1.5V184.9z
					 M357.4,183.4c-1.1-1-2.1-2.1-3.5-2.7c0.7-0.5,2-1.3,3.1-1.3c1.2,0,1.8,0.7,1.8,1.6C358.8,181.8,358.4,182.7,357.4,183.4z"/>
				<polygon class="st1" points="374.6,171.9 371,172.4 371,173.3 374.6,172.8 				"/>
				<polygon class="st1" points="374.6,170.4 371,170.9 371,171.8 374.6,171.2 				"/>
				<path class="st1" d="M376.7,177.1c0.5,0,0.8-0.4,0.8-0.9c0-0.5-0.4-0.8-0.8-0.8s-0.8,0.4-0.8,0.8
					C375.8,176.7,376.2,177.1,376.7,177.1z"/>
				<path class="st1" d="M377.9,175.2c0.4,0,0.8-0.4,0.8-0.8c0-0.5-0.4-0.8-0.8-0.8c-0.5,0-0.8,0.4-0.8,0.8S377.4,175.2,377.9,175.2
					z"/>
				<polygon class="st1" points="377.4,184.9 375.3,184.9 375.1,184.9 373.5,184.9 373.5,174.8 372.1,174.8 372.1,186.1 
					375.1,186.1 375.3,186.1 378.9,186.1 378.9,178.5 377.4,178.5 				"/>
				<path class="st1" d="M379.1,175.4c-0.5,0-0.8,0.4-0.8,0.8c0,0.5,0.4,0.9,0.8,0.9c0.5,0,0.8-0.4,0.8-0.9
					C379.9,175.7,379.5,175.4,379.1,175.4z"/>
				<polygon class="st1" points="385,183.5 382.4,174.7 381,174.9 383.5,183.5 				"/>
				<polygon class="st1" points="391.9,184.9 389.8,184.9 389.6,184.9 388.1,184.9 388.1,174.8 386.6,174.8 386.6,184.9 
					381.6,184.9 381.6,186.1 389.6,186.1 389.8,186.1 393.4,186.1 393.4,178.5 391.9,178.5 				"/>
				<path class="st1" d="M392.4,175.2c0.4,0,0.8-0.4,0.8-0.8c0-0.5-0.4-0.8-0.8-0.8c-0.5,0-0.8,0.4-0.8,0.8S392,175.2,392.4,175.2z"
					/>
				<path class="st1" d="M391.2,177.1c0.5,0,0.8-0.4,0.8-0.9c0-0.5-0.4-0.8-0.8-0.8s-0.8,0.4-0.8,0.8
					C390.4,176.7,390.8,177.1,391.2,177.1z"/>
				<path class="st1" d="M393.6,175.4c-0.5,0-0.8,0.4-0.8,0.8c0,0.5,0.4,0.9,0.8,0.9c0.5,0,0.8-0.4,0.8-0.9
					C394.4,175.7,394.1,175.4,393.6,175.4z"/>
				<path class="st1" d="M408.2,184.9h-2.7c-3.3,0-4.3-1.2-4.3-3.7c0-0.9,0.2-2,0.6-2.8l-1.6,0.3c-0.3,0.6-0.5,1.7-0.5,2.7
					c0,3,1.6,4.7,5.6,4.7h4.4v-7.5h-1.5V184.9z"/>
				<path class="st1" d="M406.3,177.1c0.5,0,0.8-0.4,0.8-0.9c0-0.5-0.4-0.8-0.8-0.8c-0.5,0-0.9,0.4-0.9,0.8
					C405.5,176.7,405.9,177.1,406.3,177.1z"/>
				<path class="st1" d="M404,177.1c0.5,0,0.8-0.4,0.8-0.9c0-0.5-0.4-0.8-0.8-0.8c-0.5,0-0.8,0.4-0.8,0.8
					C403.1,176.7,403.5,177.1,404,177.1z"/>
				<rect x="412.6" y="174.8" class="st1" width="1.5" height="11.3"/>
				<path class="st1" d="M417.9,178.2l-0.4,1.2c2.8,0.9,4,2.5,4,5.4h-5.1v1.2h6.6v-0.8C423,181.2,421.4,179.3,417.9,178.2z"/>
				<path class="st1" d="M418.8,176.8c0.5,0,0.9-0.4,0.9-0.9c0-0.5-0.4-0.9-0.9-0.9s-0.9,0.4-0.9,0.9
					C417.9,176.4,418.3,176.8,418.8,176.8z"/>
				<path class="st1" d="M456.3,184.9h-2H454h-1.4v-2.7c0-2.4-1.1-3.8-3.5-3.8c-2.5,0-3.9,1.8-3.9,4.2c0,1.9-0.6,2.4-1.4,2.4h-0.1
					h-0.2h-0.7c-0.9,0-1.6-0.3-2.3-0.8c1.3-1,1.9-2.2,1.9-3.3c0-1.3-0.9-2.5-3.1-2.5c-1.6,0-3.4,1-4.6,1.9l-0.1,1
					c1.6,0.5,2.7,1.7,3.8,2.8c-1.1,0.5-2.6,0.8-4.4,0.8h-0.3h-0.2H432v-6c0,0-1.5-0.6-3.2-0.6c-2.7,0-4,1.9-4,4
					c0,2.3,1.1,3.7,4.2,3.7h1.6v0.4c0,1.8-1.3,2.5-3.1,2.5c-1.2,0-2.6-0.3-2.6-0.3l-0.1,1.2c0,0,1.3,0.2,2.5,0.2
					c3.4,0,4.7-1.9,4.7-3.7v-0.3h1.5h0.2h0.2c2.2,0,4-0.5,5.4-1.2c0.9,0.7,1.9,1.2,3.2,1.2h0.9h0.2h0v0c1,0,1.8-0.5,2.1-1.4
					c0.5,0.9,1.5,1.4,3.3,1.4h4.8h0.2h3.5v-11.3h-1.5V184.9z M430.6,184.9h-1.4c-2.1,0-2.9-0.9-2.9-2.7c0-1.6,0.9-2.6,2.4-2.6
					c1.2,0,1.9,0.4,1.9,0.4V184.9z M439.6,183.4c-1.1-1-2.1-2.1-3.5-2.7c0.7-0.5,2-1.3,3.1-1.3c1.2,0,1.8,0.7,1.8,1.6
					C441,181.8,440.5,182.7,439.6,183.4z M451.3,184.9h-1.8c-1.9,0-2.7-0.8-2.7-2.5c0-1.8,0.9-2.9,2.3-2.9c1.4,0,2.2,0.8,2.2,2.9
					V184.9z"/>
				<rect x="460.8" y="174.8" class="st1" width="1.5" height="11.3"/>
				<path class="st1" d="M471.7,172.9h-0.9c-0.9,0-1.2-0.3-1.2-0.7c0-0.4,0.3-0.7,0.9-0.7c0.3,0,0.6,0,0.8,0.1l0.1-0.9
					c-0.2,0-0.5-0.1-0.9-0.1c-1.5,0-2,0.8-2,1.6c0,0.3,0.1,0.6,0.4,0.8c-0.3,0-0.7-0.1-1.1-0.1v0.8h3.9V172.9z"/>
				<rect x="469.2" y="174.9" class="st1" width="1.5" height="11.1"/>
				<path class="st1" d="M483.1,177.1c0.5,0,0.8-0.4,0.8-0.9c0-0.5-0.4-0.8-0.8-0.8c-0.5,0-0.9,0.4-0.9,0.8
					C482.3,176.7,482.7,177.1,483.1,177.1z"/>
				<path class="st1" d="M480.8,177.1c0.5,0,0.8-0.4,0.8-0.9c0-0.5-0.4-0.8-0.8-0.8c-0.5,0-0.8,0.4-0.8,0.8
					C479.9,176.7,480.3,177.1,480.8,177.1z"/>
				<path class="st1" d="M482.1,178.4c-2.7,0-4,1.8-4,3.9c0,1.4,0.4,2.2,1.2,2.7c0,0-0.4-0.1-0.9-0.1h-1h-0.2h-1.5v-6.4h-1.5v7.7
					c0,2.1-0.8,2.7-2.1,2.7c-0.6,0-1.1-0.1-1.6-0.3l-0.2,1.2c0.5,0.1,1.1,0.2,1.7,0.2c2.9,0,3.7-1.8,3.7-4v-0.1h1.5h0.2h8.2V182
					C485.5,179.7,484.4,178.4,482.1,178.4z M484.1,184.9h-1.6c-2,0-2.9-0.9-2.9-2.7c0-1.6,0.9-2.7,2.4-2.7c1.3,0,2.1,0.8,2.1,2.7
					V184.9z"/>
				<path class="st1" d="M490.1,172.9c-0.9,0-1.2-0.3-1.2-0.7c0-0.4,0.3-0.7,0.9-0.7c0.3,0,0.6,0,0.8,0.1l0.1-0.9
					c-0.2,0-0.5-0.1-0.9-0.1c-1.5,0-2,0.8-2,1.6c0,0.3,0.1,0.6,0.4,0.8c-0.3,0-0.7-0.1-1.1-0.1v0.8h3.9v-0.8H490.1z"/>
				<rect x="488.4" y="174.9" class="st1" width="1.5" height="11.1"/>
			</g>
			<g>
				<path class="st0" d="M52.2,218.6c-1,0-1.9,0.9-1.9,1.9c0,1,0.9,1.9,1.9,1.9c1,0,1.9-0.9,1.9-1.9
					C54.1,219.4,53.3,218.6,52.2,218.6z"/>
				<polygon class="st0" points="56.6,211.8 58.8,211.8 59.2,205.9 56.2,205.9 				"/>
				<polygon class="st0" points="60.9,211.8 63.1,211.8 63.5,205.9 60.6,205.9 				"/>
				<path class="st0" d="M87.3,210.8c0.4,1.7,0.7,3.9,0.7,6.2c0,0.7-0.1,1.8-0.2,2.8H87c-2,0-2.5-0.6-2.5-2.6v-5.4h-2.9v5.5
					c0,1.7-0.4,2.6-1.7,2.6c-1.4,0-1.7-1-1.7-2.7v-4.5h-3v8c0,3.3-1.2,4.3-3.2,4.3c-1.6,0-3.3-0.9-3.3-4.4c0-1.4,0.2-2.9,0.6-4.4
					l-3.1,0.6c-0.4,1.3-0.6,2.8-0.6,4.1c0,4.6,2.4,6.5,6.1,6.5c5.5,0,6.3-3.9,6.3-5.5c0-0.2,0-0.4-0.1-0.6c0.4,0.6,1.1,0.9,2.1,0.9
					c1.3,0,2.4-0.7,2.7-1.9c0.5,1.2,1.7,1.7,3.7,1.7h4.3c0.2-1.6,0.3-3.7,0.3-5.4c0-2.3-0.3-4.5-0.7-6.4L87.3,210.8z"/>
				<path class="st0" d="M104.3,209.3c0.9,0,1.6-0.7,1.6-1.6c0-0.9-0.7-1.6-1.6-1.6c-0.9,0-1.6,0.7-1.6,1.6
					C102.7,208.6,103.4,209.3,104.3,209.3z"/>
				<polygon class="st0" points="110.6,219.7 108.1,219.7 107.7,219.7 105.8,219.7 105.8,211.3 102.8,211.3 102.8,219.7 99.9,219.7 
					99.6,219.7 97.6,219.7 97.6,205.9 94.6,205.9 94.6,222.1 99.6,222.1 99.9,222.1 107.7,222.1 108.1,222.1 113.6,222.1 
					113.6,205.9 110.6,205.9 				"/>
				<rect x="117.5" y="205.9" class="st0" width="3" height="16.2"/>
				<path class="st0" d="M136.7,209.5c0.9,0,1.5-0.7,1.5-1.6c0-0.9-0.7-1.6-1.5-1.6s-1.5,0.7-1.5,1.6
					C135.2,208.8,135.9,209.5,136.7,209.5z"/>
				<path class="st0" d="M140.2,216.2c0-3.2-1.6-5.3-5.2-5.3c-4,0-6,2.7-6,5.8c0,3.2,1.7,5.3,6.2,5.3h5V216.2z M137.2,219.7h-1.7
					c-2.4,0-3.4-1.1-3.4-3.2c0-1.8,1-3.1,2.7-3.1c1.5,0,2.5,1,2.5,3.3V219.7z"/>
				<path class="st0" d="M132.9,209.5c0.9,0,1.5-0.7,1.5-1.6c0-0.9-0.7-1.6-1.5-1.6c-0.9,0-1.5,0.7-1.5,1.6
					C131.4,208.8,132,209.5,132.9,209.5z"/>
				<path class="st0" d="M143.6,222.3c0,2.5-0.9,3.2-2.5,3.2c-0.7,0-1.3-0.1-1.9-0.3l-0.3,2.4c0.6,0.1,1.2,0.2,1.9,0.2
					c4.7,0,5.7-2.8,5.7-5.7v-10.9h-3V222.3z"/>
				<path class="st0" d="M177,210.8c0.4,1.7,0.7,3.9,0.7,6.2c0,0.7-0.1,1.8-0.2,2.8h-0.8c-2,0-2.5-0.6-2.5-2.6v-5.4h-2.9v5.5
					c0,1.7-0.4,2.6-1.7,2.6c-1.4,0-1.7-0.9-1.7-2.7v-4.6h-3v4.2c0,2.3-0.6,2.9-2.1,2.9h-0.4H162h-1.9v-7.9c0,0-2.1-0.8-4.8-0.8
					c-4.2,0-6.1,2.8-6.1,5.8c0,3.3,1.7,5.3,6.2,5.3h1.8v0.3c0,2.2-1.6,3.1-4,3.1c-1.8,0-3.6-0.4-3.6-0.4l-0.2,2.5
					c0,0,1.8,0.3,3.5,0.3c5.2,0,7.2-2.6,7.2-5.7v0h1.9h0.4h0.3c1.7,0,2.6-0.6,3.1-1.7c0.4,1.2,1.6,1.9,3.3,1.9
					c1.4,0,2.8-0.6,3.3-1.9c0.5,1.2,1.7,1.7,3.7,1.7h4.3c0.2-1.6,0.3-3.7,0.3-5.4c0-2.3-0.3-4.5-0.7-6.4L177,210.8z M157.2,219.7
					h-1.5c-2.4,0-3.4-1.1-3.4-3.2c0-1.8,1-3.1,2.7-3.1c1.3,0,2.2,0.4,2.2,0.4V219.7z"/>
				<path class="st0" d="M183.2,216.7c0,3.3,1.7,5.3,6.2,5.3h1.8v0.3c0,2.2-1.6,3.1-4,3.1c-1.8,0-3.6-0.4-3.6-0.4l-0.2,2.5
					c0,0,1.8,0.3,3.5,0.3c5.2,0,7.2-2.6,7.2-5.7v-10.3c0,0-2.1-0.8-4.8-0.8C185.1,211,183.2,213.7,183.2,216.7z M191.1,219.7h-1.5
					c-2.4,0-3.4-1.1-3.4-3.2c0-1.8,1-3.1,2.7-3.1c1.3,0,2.2,0.4,2.2,0.4V219.7z"/>
				<path class="st0" d="M205.5,214.9c-4.3,3.7-3.3,7.4-1.1,7.4c1.6,0,2.2-1.8,1.4-2.8c-0.7-0.9-0.6-1.9,0.9-3.5L205.5,214.9z"/>
				<path class="st0" d="M222.8,209.5c0.9,0,1.5-0.7,1.5-1.6c0-0.9-0.7-1.6-1.5-1.6s-1.5,0.7-1.5,1.6
					C221.3,208.8,221.9,209.5,222.8,209.5z"/>
				<path class="st0" d="M219,209.5c0.9,0,1.5-0.7,1.5-1.6c0-0.9-0.7-1.6-1.5-1.6c-0.9,0-1.5,0.7-1.5,1.6
					C217.4,208.8,218.1,209.5,219,209.5z"/>
				<path class="st0" d="M242.7,209.2c0.9,0,1.6-0.7,1.6-1.6s-0.7-1.6-1.6-1.6s-1.6,0.7-1.6,1.6
					C241.1,208.5,241.8,209.2,242.7,209.2z"/>
				<path class="st0" d="M252.4,219.7h-2.5h-0.3h-0.9c-0.8,0-1.7,0.1-1.7,0.1c0.9-0.7,1.3-2.1,1.3-3.5c0-3.7-2.1-5.4-5.4-5.4
					c-3.5,0-5.8,2.4-5.8,5.7c0,1.3,0.4,2.4,1.1,3.1c0,0-0.7-0.1-1.4-0.1h-0.6h-0.4h-2v-13.8h-3v13.8h-2.5h-0.3H226v-7.9
					c0,0-2.1-0.8-4.8-0.8c-4.2,0-6.1,2.8-6.1,5.8c0,3.3,1.7,5.3,6.1,5.3h1.8v3.2c0,0-2,0.1-4,0.1c-5.7,0-7.5-1.4-7.5-5
					c0-1.3,0.2-2.9,0.6-4.3l-3.1,0.6c-0.4,1.3-0.6,2.8-0.6,4.1c0,4.8,2.9,7,10.1,7c3,0,7.4-0.3,7.4-0.3v-5.5h1.9h0.3h7.5h0.4h13.4
					h0.3h5.5v-16.2h-3V219.7z M223,219.7h-1.5c-2.4,0-3.4-1.1-3.4-3.2c0-1.8,1-3.1,2.8-3.1c1.3,0,2.2,0.4,2.2,0.4V219.7z
					 M242.6,219.7c-1.7,0-2.6-1.1-2.6-3.2s1.3-3.1,2.6-3.1c1.7,0,2.5,1.1,2.5,3.1C245.2,218.6,244.1,219.7,242.6,219.7z"/>
				<rect x="259.3" y="205.9" class="st0" width="3" height="16.2"/>
				<path class="st0" d="M278.5,209.5c0.9,0,1.5-0.7,1.5-1.6c0-0.9-0.7-1.6-1.5-1.6s-1.5,0.7-1.5,1.6
					C277,208.8,277.6,209.5,278.5,209.5z"/>
				<path class="st0" d="M274.7,209.5c0.9,0,1.5-0.7,1.5-1.6c0-0.9-0.7-1.6-1.5-1.6c-0.9,0-1.5,0.7-1.5,1.6
					C273.2,208.8,273.8,209.5,274.7,209.5z"/>
				<path class="st0" d="M282,216.2c0-3.2-1.6-5.3-5.2-5.3c-4,0-6,2.7-6,5.8c0,3.2,1.7,5.3,6.2,5.3h5V216.2z M279,219.7h-1.7
					c-2.4,0-3.4-1.1-3.4-3.2c0-1.8,1-3.1,2.7-3.1c1.5,0,2.5,1,2.5,3.3V219.7z"/>
				<path class="st0" d="M285.4,222.3c0,2.5-0.9,3.2-2.5,3.2c-0.7,0-1.3-0.1-1.9-0.3l-0.3,2.4c0.6,0.1,1.2,0.2,1.9,0.2
					c4.7,0,5.7-2.8,5.7-5.7v-10.9h-3V222.3z"/>
				<path class="st0" d="M318.8,210.8c0.4,1.7,0.7,3.9,0.7,6.2c0,0.7-0.1,1.8-0.2,2.8h-0.8c-2,0-2.5-0.6-2.5-2.6v-5.4h-2.9v5.5
					c0,1.7-0.4,2.6-1.7,2.6c-1.4,0-1.7-0.9-1.7-2.7v-4.6h-3v4.2c0,2.3-0.6,2.9-2.1,2.9h-0.4h-0.4h-1.9v-7.9c0,0-2.1-0.8-4.8-0.8
					c-4.2,0-6.1,2.8-6.1,5.8c0,3.3,1.7,5.3,6.2,5.3h1.8v0.3c0,2.2-1.6,3.1-4,3.1c-1.8,0-3.6-0.4-3.6-0.4l-0.2,2.5
					c0,0,1.8,0.3,3.5,0.3c5.2,0,7.2-2.6,7.2-5.7v0h1.9h0.4h0.3c1.7,0,2.6-0.6,3.1-1.7c0.4,1.2,1.6,1.9,3.3,1.9
					c1.4,0,2.8-0.6,3.3-1.9c0.5,1.2,1.7,1.7,3.7,1.7h4.3c0.2-1.6,0.3-3.7,0.3-5.4c0-2.3-0.3-4.5-0.7-6.4L318.8,210.8z M298.9,219.7
					h-1.5c-2.4,0-3.4-1.1-3.4-3.2c0-1.8,1-3.1,2.7-3.1c1.3,0,2.2,0.4,2.2,0.4V219.7z"/>
				<path class="st0" d="M325,216.7c0,3.3,1.7,5.3,6.2,5.3h1.8v0.3c0,2.2-1.6,3.1-4,3.1c-1.8,0-3.6-0.4-3.6-0.4l-0.2,2.5
					c0,0,1.8,0.3,3.5,0.3c5.2,0,7.2-2.6,7.2-5.7v-10.3c0,0-2.1-0.8-4.8-0.8C326.8,211,325,213.7,325,216.7z M332.9,219.7h-1.5
					c-2.4,0-3.4-1.1-3.4-3.2c0-1.8,1-3.1,2.7-3.1c1.3,0,2.2,0.4,2.2,0.4V219.7z"/>
				<path class="st0" d="M347.3,214.9c-4.3,3.7-3.3,7.4-1.1,7.4c1.6,0,2.2-1.8,1.4-2.8c-0.7-0.9-0.6-1.9,0.9-3.5L347.3,214.9z"/>
				<path class="st0" d="M368.4,211c-2.5,0-4.8,1.6-5.9,4.3h0c0.2-1.1,0.3-2.4,0.3-3.4v-0.6h-3v9.4c0,3.3-1.2,4.3-3.2,4.3
					c-1.6,0-3.3-0.9-3.3-4.4c0-1.4,0.2-2.9,0.6-4.4l-3.1,0.6c-0.4,1.3-0.6,2.8-0.6,4.1c0,4.6,2.4,6.5,6.1,6.5c3.5,0,6-1.6,6.3-5.3
					h10.2c0.2-1.8,0.3-3.7,0.3-5.5C373.1,213.1,371.6,211,368.4,211z M369.9,219.7h-7.2c0.6-3.2,2.6-6.3,5.1-6.3
					c1.6,0,2.2,1.3,2.2,3.4C370,217.7,370,218.8,369.9,219.7z"/>
				<polygon class="st0" points="381.7,217.9 378.3,205.7 375.3,206.1 378.6,217.9 				"/>
				<path class="st0" d="M393.8,209.3c0.9,0,1.6-0.7,1.6-1.6c0-0.9-0.7-1.6-1.6-1.6c-0.9,0-1.6,0.7-1.6,1.6
					C392.2,208.6,392.9,209.3,393.8,209.3z"/>
				<path class="st0" d="M393.1,211.1c-1,0-2,0.1-2.9,0.2v2.4c0.9-0.1,1.7-0.2,2.6-0.2c3.3,0,4.5,1.5,4.5,4.4c0,0.6,0,1.2-0.1,1.7
					h-8.5h-0.4h-1.9v-13.8h-3v13.8h-7.1v2.4h12.1h0.4H400c0.3-1.7,0.4-3.1,0.4-4.3C400.3,213.4,398.3,211.1,393.1,211.1z"/>
				<polygon class="st0" points="408.7,217.9 405.3,205.7 402.3,206.1 405.6,217.9 				"/>
				<path class="st0" d="M406.5,225.8c0-0.4,0.4-0.7,1-0.7c0.5,0,0.9,0.1,1.1,0.1l0.3-1.7c-0.2,0-0.8-0.1-1.4-0.1
					c-2.2,0-3.2,1.1-3.2,2.4c0,0.3,0.1,0.6,0.3,0.8c-0.3-0.1-0.7-0.1-1.1-0.1v1.7h5.8v-1.7h-1.4
					C406.9,226.5,406.5,226.3,406.5,225.8z"/>
				<polygon class="st0" points="410.4,219.7 403.3,219.7 403.3,222.1 413.4,222.1 413.4,205.9 410.4,205.9 				"/>
				<rect x="417.3" y="205.9" class="st0" width="3" height="16.2"/>
				<path class="st0" d="M440,216.2c0-3.2-1.6-5.3-5.2-5.3c-4,0-6,2.7-6,5.8c0,3.2,1.7,5.3,6.2,5.3h5V216.2z M437,219.7h-1.7
					c-2.4,0-3.4-1.1-3.4-3.2c0-1.8,1-3.1,2.7-3.1c1.5,0,2.5,1,2.5,3.3V219.7z"/>
				<path class="st0" d="M436.5,209.5c0.9,0,1.5-0.7,1.5-1.6c0-0.9-0.7-1.6-1.5-1.6s-1.5,0.7-1.5,1.6
					C435,208.8,435.6,209.5,436.5,209.5z"/>
				<path class="st0" d="M432.7,209.5c0.9,0,1.5-0.7,1.5-1.6c0-0.9-0.7-1.6-1.5-1.6c-0.9,0-1.5,0.7-1.5,1.6
					C431.1,208.8,431.8,209.5,432.7,209.5z"/>
				<path class="st0" d="M443.4,222.3c0,2.5-0.9,3.2-2.5,3.2c-0.7,0-1.3-0.1-1.9-0.3l-0.3,2.4c0.6,0.1,1.2,0.2,1.9,0.2
					c4.7,0,5.7-2.8,5.7-5.7v-10.9h-3V222.3z"/>
				<path class="st0" d="M476.8,210.8c0.4,1.7,0.7,3.9,0.7,6.2c0,0.7-0.1,1.8-0.2,2.8h-0.8c-2,0-2.5-0.6-2.5-2.6v-5.4h-2.9v5.5
					c0,1.7-0.4,2.6-1.7,2.6c-1.4,0-1.7-0.9-1.7-2.7v-4.6h-3v4.2c0,2.3-0.6,2.9-2.1,2.9h-0.4h-0.4h-1.9v-7.9c0,0-2.1-0.8-4.8-0.8
					c-4.2,0-6.1,2.8-6.1,5.8c0,3.3,1.7,5.3,6.2,5.3h1.8v0.3c0,2.2-1.6,3.1-4,3.1c-1.8,0-3.6-0.4-3.6-0.4l-0.2,2.5
					c0,0,1.8,0.3,3.5,0.3c5.2,0,7.2-2.6,7.2-5.7v0h1.9h0.4h0.3c1.7,0,2.6-0.6,3.1-1.7c0.4,1.2,1.6,1.9,3.3,1.9
					c1.4,0,2.8-0.6,3.3-1.9c0.5,1.2,1.7,1.7,3.7,1.7h4.3c0.2-1.6,0.3-3.7,0.3-5.4c0-2.3-0.3-4.5-0.7-6.4L476.8,210.8z M456.9,219.7
					h-1.5c-2.4,0-3.4-1.1-3.4-3.2c0-1.8,1-3.1,2.7-3.1c1.3,0,2.2,0.4,2.2,0.4V219.7z"/>
				<polygon class="st0" points="483.5,211.8 485.7,211.8 486,205.9 483.1,205.9 				"/>
				<polygon class="st0" points="487.4,205.9 487.8,211.8 490,211.8 490.4,205.9 				"/>
			</g>
		</g>
	</g>
	<g>
		<g>
			<g>
				<path class="st1" d="M250,20.2c-0.5,0-1,0.4-1,1c0,0.5,0.4,1,1,1c0.6,0,1-0.4,1-1C250.9,20.7,250.5,20.2,250,20.2z"/>
				<path class="st1" d="M256.3,10.1l-1-0.5c-1.8,2.9-2.4,5.6-2.4,8c0,2.4,0.4,4.9,2.3,7.9l1.1-0.5c-1.3-2.3-2-4.7-2-7.4
					C254.3,14.8,255,12.3,256.3,10.1z"/>
				<path class="st1" d="M264.2,13.1c0.5,0,0.8-0.4,0.8-0.9c0-0.5-0.4-0.8-0.8-0.8c-0.5,0-0.9,0.4-0.9,0.8
					C263.4,12.7,263.8,13.1,264.2,13.1z"/>
				<path class="st1" d="M266.1,20.9h-2.7c-3.3,0-4.3-1.2-4.3-3.7c0-0.9,0.2-2,0.6-2.8l-1.6,0.3c-0.3,0.6-0.5,1.7-0.5,2.7
					c0,3,1.6,4.7,5.6,4.7h4.4v-7.5h-1.5V20.9z"/>
				<path class="st1" d="M261.9,13.1c0.5,0,0.8-0.4,0.8-0.9c0-0.5-0.4-0.8-0.8-0.8c-0.5,0-0.8,0.4-0.8,0.8
					C261,12.7,261.4,13.1,261.9,13.1z"/>
				<rect x="270.5" y="10.8" class="st1" width="1.5" height="11.3"/>
				<path class="st1" d="M284,14.4c-2.5,0-3.9,1.8-3.9,4.2c0,1.9-0.6,2.4-1.4,2.4h-0.1h-0.2h-1.5v-6.4h-1.5v7.7
					c0,2.1-0.8,2.7-2.1,2.7c-0.6,0-1.1-0.1-1.6-0.3l-0.2,1.2c0.5,0.1,1.1,0.2,1.7,0.2c2.9,0,3.7-1.8,3.7-4v-0.1h1.5h0.2h0
					c1,0,1.8-0.5,2.1-1.4c0.5,0.9,1.5,1.4,3.3,1.4h3.4v-3.9C287.5,15.7,286.4,14.4,284,14.4z M286.1,20.9h-1.8
					c-1.9,0-2.7-0.8-2.7-2.5c0-1.8,0.9-2.9,2.3-2.9c1.4,0,2.2,0.8,2.2,2.9V20.9z"/>
				<path class="st1" d="M297.4,16.2L297.4,16.2c1.1-0.4,1.8-1.4,1.8-2.6c0-1.4-0.9-2.5-3-2.5c-0.8,0-1.6,0.2-2.3,0.5l0.1,1.2
					c0.6-0.3,1.2-0.5,1.9-0.5c1.1,0,1.8,0.6,1.8,1.6c0,1.3-1,2.1-3.4,2v1.2c0.3,0,0.6-0.1,1-0.1c1.9,0,2.8,0.8,2.8,1.9
					c0,1.2-1,2-2.6,2c-0.6,0-1.2-0.1-1.7-0.2l-0.2,1.3c0.4,0.1,1.1,0.2,1.7,0.2c2.4,0,4.2-1.4,4.2-3.4
					C299.7,17.5,298.7,16.5,297.4,16.2z"/>
				<path class="st1" d="M302.1,9.6l-1.1,0.5c1.3,2.3,2,4.7,2,7.5c0,2.6-0.7,5.1-2,7.4l1,0.5c1.8-2.9,2.4-5.6,2.4-8
					C304.4,15.1,304,12.6,302.1,9.6z"/>
			</g>
			<g>
				<path class="st0" d="M336.7,19.7h-2.5h-0.3h-1.6v-3.6c0-3.2-1.3-5.1-5.3-5.1c-2.5,0-4.6,0.4-4.6,0.4v8.3h-1.6
					c-4.3,0-5.7-1.5-5.7-4.8c0-1.2,0.3-2.7,0.8-3.8l-3.2,0.5c-0.3,0.9-0.6,2.4-0.6,3.6c0,4.2,2.2,6.8,8.4,6.8h4.8v-8.6
					c0,0,0.8-0.1,1.5-0.1c1.9,0,2.6,0.8,2.6,3v5.7h4.5h0.3h5.5V5.9h-3V19.7z"/>
				<path class="st0" d="M366.3,19.7h-2.9h-0.3h-1.2c-1,0-1.8-0.2-2.6-0.6c1.5-1.3,2.3-2.9,2.3-4.4c0-2-1.4-3.8-4.9-3.8
					c-2.3,0-4.8,1.2-6.6,2.6l-0.3,2.2c2,0.6,3.4,2,4.8,3.4c-1.4,0.5-3.2,0.7-5.4,0.7H349h-0.3h-2V5.9h-3v16.2h5h0.3h0.3
					c3.1,0,5.6-0.6,7.6-1.4c1.2,0.8,2.7,1.4,4.7,1.4h1.5h0.3h5.9V11.3h-3V19.7z M357.3,17.7c-1.4-1.2-2.7-2.5-4.3-3.2
					c0.8-0.6,2.3-1.4,3.5-1.4c1.5,0,2.2,0.9,2.2,1.9C358.7,16,358.2,16.9,357.3,17.7z"/>
				<path class="st0" d="M369.3,6.4c-0.9,0-1.5,0.7-1.5,1.6c0,0.9,0.7,1.6,1.5,1.6c0.9,0,1.5-0.7,1.5-1.6
					C370.8,7.1,370.2,6.4,369.3,6.4z"/>
				<path class="st0" d="M365.5,9.5c0.9,0,1.5-0.7,1.5-1.6c0-0.9-0.7-1.6-1.5-1.6c-0.9,0-1.5,0.7-1.5,1.6
					C364,8.8,364.6,9.5,365.5,9.5z"/>
				<path class="st0" d="M401,19.7h-2.5h-0.4h-2V5.9h-3v13.8h-2.5h-0.3h-1.9v-7.9c0,0-2.1-0.8-4.8-0.8c-4.2,0-6.1,2.8-6.1,5.8
					c0,3.3,1.7,5.3,6.2,5.3h6.6h0.3h7.5h0.4h5.5V5.9h-3V19.7z M385.5,19.7H384c-2.4,0-3.4-1.1-3.4-3.2c0-1.8,1-3.1,2.7-3.1
					c1.3,0,2.2,0.4,2.2,0.4V19.7z"/>
				<rect x="408" y="5.9" class="st0" width="3" height="16.2"/>
				<path class="st0" d="M434.9,9.2c0.9,0,1.6-0.7,1.6-1.6c0-0.9-0.7-1.6-1.6-1.6s-1.6,0.7-1.6,1.6C433.3,8.6,434,9.2,434.9,9.2z"/>
				<path class="st0" d="M449.6,9.2c0.9,0,1.6-0.7,1.6-1.6c0-0.9-0.7-1.6-1.6-1.6S448,6.7,448,7.6C448,8.5,448.7,9.2,449.6,9.2z"/>
				<path class="st0" d="M458.6,9.5c0.9,0,1.5-0.7,1.5-1.6c0-0.9-0.7-1.6-1.5-1.6c-0.9,0-1.5,0.7-1.5,1.6
					C457.1,8.8,457.7,9.5,458.6,9.5z"/>
				<path class="st0" d="M462.4,9.5c0.9,0,1.5-0.7,1.5-1.6c0-0.9-0.7-1.6-1.5-1.6c-0.9,0-1.5,0.7-1.5,1.6
					C460.9,8.8,461.6,9.5,462.4,9.5z"/>
				<path class="st0" d="M479.2,10.8c0.4,1.7,0.7,3.9,0.7,6.2c0,0.7-0.1,1.8-0.2,2.8h-0.8c-2,0-2.5-0.6-2.5-2.6v-5.4h-2.9v5.5
					c0,1.7-0.4,2.6-1.7,2.6c-1.4,0-1.7-0.9-1.7-2.7v-4.6h-3v4.2c0,2.3-0.6,2.9-2.1,2.9h-0.4h-0.3h-1.7v-8.4h-3v8.4h-2.9h-0.3H455
					c-1,0-1.8-0.2-2.6-0.6c1.5-1.3,2.3-2.9,2.3-4.4c0-2-1.4-3.8-4.9-3.8c-2.3,0-4.8,1.2-6.6,2.6l-0.3,2.2c2,0.6,3.4,2,4.8,3.4
					c-1.4,0.5-3.2,0.7-5.4,0.7h-0.5h-0.3h-0.9c-0.8,0-1.7,0.1-1.7,0.1c0.9-0.7,1.3-2.1,1.3-3.5c0-3.7-2.1-5.4-5.4-5.4
					c-3.5,0-5.8,2.4-5.8,5.7c0,1.3,0.4,2.4,1.1,3.1c0,0-0.7-0.1-1.4-0.1h-0.6h-0.3H426v-8.4h-3v11.1c0,2.5-0.9,3.2-2.5,3.2
					c-0.7,0-1.3-0.1-1.9-0.3l-0.3,2.4c0.6,0.1,1.2,0.2,1.9,0.2c4.7,0,5.7-2.8,5.7-5.7v-0.1h1.9h0.3h13.5h0.3h0.3
					c3.1,0,5.6-0.6,7.6-1.4c1.2,0.8,2.7,1.4,4.7,1.4h1.5h0.3h7.6h0.3h0.4c1.7,0,2.6-0.6,3.1-1.7c0.4,1.2,1.6,1.9,3.3,1.9
					c1.4,0,2.8-0.6,3.3-1.9c0.5,1.2,1.7,1.7,3.7,1.7h4.3c0.2-1.6,0.3-3.7,0.3-5.4c0-2.3-0.3-4.5-0.7-6.4L479.2,10.8z M434.8,19.7
					c-1.7,0-2.6-1.1-2.6-3.2c0-2.2,1.3-3.1,2.6-3.1c1.7,0,2.5,1.1,2.5,3.1C437.4,18.6,436.3,19.7,434.8,19.7z M450.4,17.7
					c-1.4-1.2-2.7-2.5-4.3-3.2c0.8-0.6,2.3-1.4,3.5-1.4c1.5,0,2.2,0.9,2.2,1.9C451.8,16,451.3,16.9,450.4,17.7z"/>
				<rect x="486.4" y="6.3" class="st0" width="3" height="15.8"/>
				<path class="st0" d="M489.4,3.2c-1.2,0-1.6-0.4-1.6-0.9c0-0.5,0.4-0.8,1.1-0.8c0.5,0,1,0.1,1.1,0.1l0.3-1.6
					c-0.2,0-0.7-0.1-1.4-0.1c-2.4,0-3.2,1.2-3.2,2.4c0,0.3,0.2,0.8,0.4,0.9c-0.3-0.1-0.8-0.1-1.4-0.1v1.6h5.9V3.2H489.4z"/>
			</g>
		</g>
	</g>
	<g>
		<g>
			<g>
				<path class="st1" d="M1,68.2c-0.5,0-1,0.4-1,1c0,0.5,0.4,1,1,1c0.6,0,1-0.4,1-1C2,68.7,1.6,68.2,1,68.2z"/>
				<path class="st1" d="M7.3,58.1l-1-0.5c-1.8,2.9-2.4,5.6-2.4,8c0,2.4,0.4,4.9,2.3,7.9l1.1-0.5c-1.3-2.3-2-4.7-2-7.4
					C5.3,62.8,6,60.3,7.3,58.1z"/>
				<path class="st1" d="M15.8,66c0-2.3-1.1-3.6-3.4-3.6c-2.7,0-4,1.8-4,4c0,2.3,1.1,3.7,4.2,3.7h3.2V66z M14.4,68.9h-1.6
					c-2,0-2.9-0.9-2.9-2.7c0-1.6,0.9-2.7,2.4-2.7c1.3,0,2.1,0.8,2.1,2.7V68.9z"/>
				<path class="st1" d="M13.5,61.1c0.5,0,0.8-0.4,0.8-0.9c0-0.5-0.4-0.8-0.8-0.8c-0.5,0-0.9,0.4-0.9,0.8
					C12.6,60.7,13,61.1,13.5,61.1z"/>
				<path class="st1" d="M11.1,61.1c0.5,0,0.8-0.4,0.8-0.9c0-0.5-0.4-0.8-0.8-0.8c-0.5,0-0.8,0.4-0.8,0.8
					C10.3,60.7,10.6,61.1,11.1,61.1z"/>
				<path class="st1" d="M27.7,62.4c-2.5,0-3.9,1.8-3.9,4.2c0,1.9-0.6,2.4-1.4,2.4h-0.1h-0.2h-1.5v-6.4h-1.5v7.7
					c0,2.1-0.8,2.7-2.1,2.7c-0.6,0-1.1-0.1-1.6-0.3L15.2,74c0.5,0.1,1.1,0.2,1.7,0.2c2.9,0,3.7-1.8,3.7-4v-0.1h1.5h0.2h0
					c1,0,1.8-0.5,2.1-1.4c0.5,0.9,1.5,1.4,3.3,1.4h3.4v-3.9C31.2,63.7,30.1,62.4,27.7,62.4z M29.8,68.9H28c-1.9,0-2.7-0.8-2.7-2.5
					c0-1.8,0.9-2.9,2.3-2.9c1.4,0,2.2,0.8,2.2,2.9V68.9z"/>
				<path class="st1" d="M41.1,64.2L41.1,64.2c1.1-0.4,1.8-1.4,1.8-2.6c0-1.4-0.9-2.5-3-2.5c-0.8,0-1.6,0.2-2.3,0.5l0.1,1.2
					c0.6-0.3,1.2-0.5,1.9-0.5c1.1,0,1.8,0.6,1.8,1.6c0,1.3-1,2.1-3.4,2v1.2c0.3,0,0.6-0.1,1-0.1c1.9,0,2.8,0.8,2.8,1.9
					c0,1.2-1,2-2.6,2c-0.6,0-1.2-0.1-1.7-0.2L37.4,70c0.4,0.1,1.1,0.2,1.7,0.2c2.4,0,4.2-1.4,4.2-3.4C43.3,65.5,42.4,64.5,41.1,64.2
					z"/>
				<path class="st1" d="M48.9,64.2L48.9,64.2c1.1-0.4,1.8-1.4,1.8-2.6c0-1.4-0.9-2.5-3-2.5c-0.8,0-1.6,0.2-2.3,0.5l0.1,1.2
					c0.6-0.3,1.2-0.5,1.9-0.5c1.1,0,1.8,0.6,1.8,1.6c0,1.3-1,2.1-3.4,2v1.2c0.3,0,0.6-0.1,1-0.1c1.9,0,2.8,0.8,2.8,1.9
					c0,1.2-1,2-2.6,2c-0.6,0-1.2-0.1-1.7-0.2L45.2,70c0.4,0.1,1.1,0.2,1.7,0.2c2.4,0,4.2-1.4,4.2-3.4C51.2,65.5,50.2,64.5,48.9,64.2
					z"/>
				<path class="st1" d="M53.6,57.6l-1.1,0.5c1.3,2.3,2,4.7,2,7.5c0,2.6-0.7,5.1-2,7.4l1,0.5c1.8-2.9,2.4-5.6,2.4-8
					C55.9,63.1,55.5,60.6,53.6,57.6z"/>
			</g>
			<g>
				<path class="st0" d="M74.7,71.9c-0.9,0-1.6,0.7-1.6,1.6c0,0.9,0.7,1.6,1.6,1.6s1.6-0.7,1.6-1.6C76.3,72.6,75.6,71.9,74.7,71.9z"
					/>
				<path class="st0" d="M81,61.2c3.7,0.9,5.5,2.9,5.6,6.5h-6.5h-0.3h-1.9v-8.4h-3v8.4H72h-0.3h-1.9v-8.4h-3v11.1
					c0,2.5-0.9,3.2-2.5,3.2c-0.7,0-1.3-0.1-1.9-0.3l-0.3,2.4c0.6,0.1,1.2,0.2,1.9,0.2c4.7,0,5.7-2.8,5.7-5.7v-0.1h1.9H72h7.8h0.3
					h9.5v-1.5c0-5-2-7.5-5.1-8.9l5.6-3.4v-3L81,59V61.2z"/>
				<rect x="93.1" y="54.3" class="st0" width="3" height="15.8"/>
				<path class="st0" d="M94.5,50.4c0-0.5,0.4-0.8,1.1-0.8c0.5,0,1,0.1,1.1,0.1l0.3-1.6c-0.2,0-0.7-0.1-1.4-0.1
					c-2.4,0-3.2,1.2-3.2,2.4c0,0.3,0.2,0.8,0.4,0.9c-0.3-0.1-0.8-0.1-1.4-0.1v1.6h5.9v-1.6h-1.3C94.9,51.2,94.5,50.9,94.5,50.4z"/>
				<path class="st0" d="M128.1,67.7h-2.5h-0.4h-2V53.9h-3v13.8h-2.5h-0.3h-1.9v-7.9c0,0-2.1-0.8-4.8-0.8c-4.2,0-6.1,2.8-6.1,5.8
					c0,3.3,1.7,5.3,6.2,5.3h6.6h0.3h7.5h0.4h5.5V53.9h-3V67.7z M112.5,67.7H111c-2.4,0-3.4-1.1-3.4-3.2c0-1.8,1-3.1,2.7-3.1
					c1.3,0,2.2,0.4,2.2,0.4V67.7z"/>
				<rect x="135" y="53.9" class="st0" width="3" height="16.2"/>
				<path class="st0" d="M147,59c-4.2,0-6.1,2.8-6.1,5.8c0,3.3,1.7,5.3,6.2,5.3h1.8v0.3c0,2.2-1.6,3.1-4,3.1c-1.8,0-3.6-0.4-3.6-0.4
					l-0.2,2.5c0,0,1.8,0.3,3.5,0.3c5.2,0,7.2-2.6,7.2-5.8V59.8C151.8,59.8,149.7,59,147,59z M148.8,67.7h-1.5
					c-2.4,0-3.4-1.1-3.4-3.2c0-1.8,1-3.1,2.7-3.1c1.3,0,2.2,0.4,2.2,0.4V67.7z"/>
			</g>
			<g>
				<path class="st1" d="M161.9,58.1l-1-0.5c-1.8,2.9-2.4,5.6-2.4,8c0,2.4,0.4,4.9,2.3,7.9l1.1-0.5c-1.3-2.3-2-4.7-2-7.4
					C159.9,62.8,160.6,60.3,161.9,58.1z"/>
				<path class="st1" d="M165.7,61.1c0.5,0,0.8-0.4,0.8-0.9c0-0.5-0.4-0.8-0.8-0.8c-0.5,0-0.8,0.4-0.8,0.8
					C164.8,60.7,165.2,61.1,165.7,61.1z"/>
				<path class="st1" d="M170.4,66c0-2.3-1.1-3.6-3.4-3.6c-2.7,0-4,1.8-4,4c0,2.3,1.1,3.7,4.2,3.7h3.2V66z M168.9,68.9h-1.6
					c-2,0-2.9-0.9-2.9-2.7c0-1.6,0.9-2.7,2.4-2.7c1.3,0,2.1,0.8,2.1,2.7V68.9z"/>
				<path class="st1" d="M168,61.1c0.5,0,0.8-0.4,0.8-0.9c0-0.5-0.4-0.8-0.8-0.8c-0.5,0-0.9,0.4-0.9,0.8
					C167.2,60.7,167.6,61.1,168,61.1z"/>
				<path class="st1" d="M182.2,62.4c-2.5,0-3.9,1.8-3.9,4.2c0,1.9-0.6,2.4-1.4,2.4h-0.1h-0.2h-1.5v-6.4h-1.5v7.7
					c0,2.1-0.8,2.7-2.1,2.7c-0.6,0-1.1-0.1-1.6-0.3l-0.2,1.2c0.5,0.1,1.1,0.2,1.7,0.2c2.9,0,3.7-1.8,3.7-4v-0.1h1.5h0.2h0
					c1,0,1.8-0.5,2.1-1.4c0.5,0.9,1.5,1.4,3.3,1.4h3.4v-3.9C185.8,63.7,184.6,62.4,182.2,62.4z M184.3,68.9h-1.8
					c-1.9,0-2.7-0.8-2.7-2.5c0-1.8,0.9-2.9,2.3-2.9c1.4,0,2.2,0.8,2.2,2.9V68.9z"/>
				<path class="st1" d="M195.6,64.2L195.6,64.2c1.1-0.4,1.8-1.4,1.8-2.6c0-1.4-0.9-2.5-3-2.5c-0.8,0-1.6,0.2-2.3,0.5l0.1,1.2
					c0.6-0.3,1.2-0.5,1.9-0.5c1.1,0,1.8,0.6,1.8,1.6c0,1.3-1,2.1-3.4,2v1.2c0.3,0,0.6-0.1,1-0.1c1.9,0,2.8,0.8,2.8,1.9
					c0,1.2-1,2-2.6,2c-0.6,0-1.2-0.1-1.7-0.2L192,70c0.4,0.1,1.1,0.2,1.7,0.2c2.4,0,4.2-1.4,4.2-3.4C197.9,65.5,197,64.5,195.6,64.2
					z"/>
				<path class="st1" d="M203.5,64.2L203.5,64.2c1.1-0.4,1.8-1.4,1.8-2.6c0-1.4-0.9-2.5-3-2.5c-0.8,0-1.6,0.2-2.3,0.5l0.1,1.2
					c0.6-0.3,1.2-0.5,1.9-0.5c1.1,0,1.8,0.6,1.8,1.6c0,1.3-1,2.1-3.4,2v1.2c0.3,0,0.6-0.1,1-0.1c1.9,0,2.8,0.8,2.8,1.9
					c0,1.2-1,2-2.6,2c-0.6,0-1.2-0.1-1.7-0.2l-0.2,1.3c0.4,0.1,1.1,0.2,1.7,0.2c2.4,0,4.2-1.4,4.2-3.4
					C205.7,65.5,204.8,64.5,203.5,64.2z"/>
				<path class="st1" d="M208.2,57.6l-1.1,0.5c1.3,2.3,2,4.7,2,7.5c0,2.6-0.7,5.1-2,7.4l1,0.5c1.8-2.9,2.4-5.6,2.4-8
					C210.5,63.1,210,60.6,208.2,57.6z"/>
			</g>
			<g>
				<path class="st0" d="M241.3,67.7h-2.5h-0.4h-2V53.9h-3v13.8h-2.5h-0.3h-1.9v-7.9c0,0-2.1-0.8-4.8-0.8c-4.2,0-6.1,2.8-6.1,5.8
					c0,3.3,1.7,5.3,6.2,5.3h6.6h0.3h7.5h0.4h5.5V53.9h-3V67.7z M225.7,67.7h-1.5c-2.4,0-3.4-1.1-3.4-3.2c0-1.8,1-3.1,2.7-3.1
					c1.3,0,2.2,0.4,2.2,0.4V67.7z"/>
				<path class="st0" d="M295,67.7h-2.5h-0.3h-1.5c0.1-0.7,0.1-1.3,0.1-1.9c0-4.4-2-6.7-7.2-6.7c-1,0-2,0.1-2.9,0.2v2.4
					c0.9-0.1,1.7-0.2,2.6-0.2c3.3,0,4.5,1.5,4.5,4.4c0,0.6,0,1.2-0.1,1.7h-8.5h-0.4h-1.6v-3.2c0-3.4-1.6-5.5-5.3-5.5
					c-3.9,0-5.9,2.7-5.9,6c0,2.1-0.6,2.8-1.7,2.8h-0.1h-0.3h-1.2c-0.3-5.1-2.9-7.7-7.6-9l-0.7,2.5c3.6,0.9,5.3,3,5.4,6.4h-6.8v2.4
					h10.9h0.3h0c1.4,0,2.5-0.6,3-1.8c0.7,1.1,2,1.8,4.7,1.8h6.8h0.4h13h0.3h5.5V53.9h-3V67.7z M274.2,67.7h-2c-2.4,0-3.2-1-3.2-3
					c0-2,1-3.3,2.7-3.3c1.7,0,2.6,1,2.6,3.4V67.7z"/>
				<rect x="302" y="53.9" class="st0" width="3" height="16.2"/>
				<path class="st0" d="M313.9,59c-4.2,0-6.1,2.8-6.1,5.8c0,3.3,1.7,5.3,6.2,5.3h1.8v0.3c0,2.2-1.6,3.1-4,3.1
					c-1.8,0-3.6-0.4-3.6-0.4l-0.2,2.5c0,0,1.8,0.3,3.5,0.3c5.2,0,7.2-2.6,7.2-5.8V59.8C318.8,59.8,316.7,59,313.9,59z M315.8,67.7
					h-1.5c-2.4,0-3.4-1.1-3.4-3.2c0-1.8,1-3.1,2.7-3.1c1.3,0,2.2,0.4,2.2,0.4V67.7z"/>
			</g>
			<g>
				<path class="st1" d="M330.3,58.1l-1-0.5c-1.8,2.9-2.4,5.6-2.4,8c0,2.4,0.4,4.9,2.3,7.9l1.1-0.5c-1.3-2.3-2-4.7-2-7.4
					C328.4,62.8,329,60.3,330.3,58.1z"/>
				<path class="st1" d="M338.8,66c0-2.3-1.1-3.6-3.4-3.6c-2.7,0-4,1.8-4,4c0,2.3,1.1,3.7,4.2,3.7h3.2V66z M337.4,68.9h-1.6
					c-2,0-2.9-0.9-2.9-2.7c0-1.6,0.9-2.7,2.4-2.7c1.3,0,2.1,0.8,2.1,2.7V68.9z"/>
				<path class="st1" d="M334.1,61.1c0.5,0,0.8-0.4,0.8-0.9c0-0.5-0.4-0.8-0.8-0.8c-0.5,0-0.8,0.4-0.8,0.8
					C333.3,60.7,333.6,61.1,334.1,61.1z"/>
				<path class="st1" d="M336.5,61.1c0.5,0,0.8-0.4,0.8-0.9c0-0.5-0.4-0.8-0.8-0.8c-0.5,0-0.9,0.4-0.9,0.8
					C335.6,60.7,336,61.1,336.5,61.1z"/>
				<path class="st1" d="M350.7,62.4c-2.5,0-3.9,1.8-3.9,4.2c0,1.9-0.6,2.4-1.4,2.4h-0.1h-0.2h-1.5v-6.4h-1.5v7.7
					c0,2.1-0.8,2.7-2.1,2.7c-0.6,0-1.1-0.1-1.6-0.3l-0.2,1.2c0.5,0.1,1.1,0.2,1.7,0.2c2.9,0,3.7-1.8,3.7-4v-0.1h1.5h0.2h0
					c1,0,1.8-0.5,2.1-1.4c0.5,0.9,1.5,1.4,3.3,1.4h3.4v-3.9C354.2,63.7,353.1,62.4,350.7,62.4z M352.8,68.9H351
					c-1.9,0-2.7-0.8-2.7-2.5c0-1.8,0.9-2.9,2.3-2.9c1.4,0,2.2,0.8,2.2,2.9V68.9z"/>
				<path class="st1" d="M364.1,64.2L364.1,64.2c1.1-0.4,1.8-1.4,1.8-2.6c0-1.4-0.9-2.5-3-2.5c-0.8,0-1.6,0.2-2.3,0.5l0.1,1.2
					c0.6-0.3,1.2-0.5,1.9-0.5c1.1,0,1.8,0.6,1.8,1.6c0,1.3-1,2.1-3.4,2v1.2c0.3,0,0.6-0.1,1-0.1c1.9,0,2.8,0.8,2.8,1.9
					c0,1.2-1,2-2.6,2c-0.6,0-1.2-0.1-1.7-0.2l-0.2,1.3c0.4,0.1,1.1,0.2,1.7,0.2c2.4,0,4.2-1.4,4.2-3.4
					C366.3,65.5,365.4,64.5,364.1,64.2z"/>
				<path class="st1" d="M371.9,64.2L371.9,64.2c1.1-0.4,1.8-1.4,1.8-2.6c0-1.4-0.9-2.5-3-2.5c-0.8,0-1.6,0.2-2.3,0.5l0.1,1.2
					c0.6-0.3,1.2-0.5,1.9-0.5c1.1,0,1.8,0.6,1.8,1.6c0,1.3-1,2.1-3.4,2v1.2c0.3,0,0.6-0.1,1-0.1c1.9,0,2.8,0.8,2.8,1.9
					c0,1.2-1,2-2.6,2c-0.6,0-1.2-0.1-1.7-0.2l-0.2,1.3c0.4,0.1,1.1,0.2,1.7,0.2c2.4,0,4.2-1.4,4.2-3.4
					C374.2,65.5,373.2,64.5,371.9,64.2z"/>
				<path class="st1" d="M376.6,57.6l-1.1,0.5c1.3,2.3,2,4.7,2,7.5c0,2.6-0.7,5.1-2,7.4l1,0.5c1.8-2.9,2.4-5.6,2.4-8
					C378.9,63.1,378.5,60.6,376.6,57.6z"/>
			</g>
			<g>
				<path class="st0" d="M409.7,67.7h-2.5h-0.4h-2V53.9h-3v13.8h-2.5H399h-1.9v-7.9c0,0-2.1-0.8-4.8-0.8c-4.2,0-6.1,2.8-6.1,5.8
					c0,3.3,1.7,5.3,6.2,5.3h6.6h0.3h7.5h0.4h5.5V53.9h-3V67.7z M394.2,67.7h-1.5c-2.4,0-3.4-1.1-3.4-3.2c0-1.8,1-3.1,2.7-3.1
					c1.3,0,2.2,0.4,2.2,0.4V67.7z"/>
				<rect x="416.7" y="53.9" class="st0" width="3" height="16.2"/>
				<path class="st0" d="M437.9,68.6c0,3.3-1.2,4.4-3.2,4.4c-1.6,0-3.3-0.9-3.3-4.4c0-1.4,0.2-2.9,0.6-4.4l-3.1,0.6
					c-0.4,1.3-0.6,2.8-0.6,4.1c0,4.6,2.4,6.5,6.1,6.5c4.4,0,6.5-2.3,6.5-6.9v-9.2h-3V68.6z"/>
				<path class="st0" d="M434.4,62.1c0.9,0,1.6-0.7,1.6-1.6c0-0.9-0.7-1.6-1.6-1.6s-1.6,0.7-1.6,1.6
					C432.8,61.5,433.5,62.1,434.4,62.1z"/>
				<path class="st0" d="M466,71.9c-0.9,0-1.6,0.7-1.6,1.6c0,0.9,0.7,1.6,1.6,1.6s1.6-0.7,1.6-1.6C467.6,72.6,466.8,71.9,466,71.9z"
					/>
				<path class="st0" d="M489.1,58.3l-3,0.4c0.4,1.7,0.7,3.9,0.7,6.2c0,0.7-0.1,1.8-0.2,2.8h-0.8c-2,0-2.5-0.6-2.5-2.6v-5.4h-2.9
					v5.5c0,1.7-0.4,2.6-1.7,2.6c-1.4,0-1.7-0.9-1.7-2.7v-4.6h-3v4.2c0,2.3-0.6,2.9-2.1,2.9h-0.4h-0.3h-1.9v-8.4h-3v8.4h-2.9h-0.3
					h-1.5c0.1-0.7,0.1-1.3,0.1-1.9c0-4.4-2-6.7-7.2-6.7c-1,0-2,0.1-2.9,0.2v2.4c0.9-0.1,1.7-0.2,2.6-0.2c3.3,0,4.5,1.5,4.5,4.4
					c0,0.6,0,1.2-0.1,1.7h-8.6h-0.3h-2V53.9h-3v16.2h5h0.3h13h0.3h7.8h0.3h0.4c1.7,0,2.6-0.6,3.1-1.7c0.4,1.2,1.6,1.9,3.3,1.9
					c1.4,0,2.8-0.6,3.3-1.9c0.5,1.2,1.7,1.7,3.7,1.7h4.3c0.2-1.6,0.3-3.7,0.3-5.4C489.8,62.4,489.5,60.2,489.1,58.3z"/>
			</g>
		</g>
	</g>
	<g>
		<circle class="st2" cx="515.9" cy="14.6" r="12"/>
		<g>
			<g>
				<path class="st1" d="M515.5,21V9.8l-2.4,1l-0.4-2.5l3.4-1.2h2.1v14H515.5z"/>
			</g>
		</g>
	</g>
	<g>
		<circle class="st2" cx="515.9" cy="64.3" r="12"/>
		<g>
			<g>
				<path class="st1" d="M511.9,70.7v-2.2l2.1-2.4c2.4-2.7,3-4.1,3-5.2c0-1.1-0.7-2-2-2c-0.9,0-1.9,0.4-2.6,0.8l-0.4-2.4
					c0.9-0.5,2.1-0.8,3.7-0.8c2.8,0,4.2,1.7,4.2,3.9c0,1.8-0.9,3.7-3.3,6.4l-1.2,1.5v0c1.5-0.1,3.1-0.1,5-0.1v2.6H511.9z"/>
			</g>
		</g>
	</g>
	<g>
		<circle class="st2" cx="515.9" cy="179.6" r="12"/>
		<g>
			<g>
				<path class="st1" d="M514.3,186.3c-0.9,0-1.8-0.1-2.3-0.3l0.3-2.3c0.6,0.2,1.3,0.3,2.1,0.3c1.7,0,2.8-0.9,2.8-2.1
					c0-1.1-0.9-2-3-2c-0.6,0-1.1,0-1.5,0.1v-2.1c3,0.1,4-0.9,4-2.1c0-1-0.6-1.7-2-1.7c-0.8,0-1.6,0.2-2.3,0.6l-0.2-2.2
					c0.9-0.4,2.1-0.6,3.2-0.6c2.7,0,4.1,1.4,4.1,3.4c0,1.5-0.9,2.7-2.2,3.2l0,0c1.7,0.4,2.7,1.7,2.7,3.3
					C520,184.4,517.7,186.3,514.3,186.3z"/>
			</g>
		</g>
	</g>
	<g>
		<g>
			<g>
				<path class="st1" d="M163.7,264.5c-0.7,0-1.4,0.6-1.4,1.4s0.6,1.4,1.4,1.4c0.8,0,1.4-0.6,1.4-1.4S164.5,264.5,163.7,264.5z"/>
				<path class="st1" d="M174.6,255.1l-1-0.5c-1.8,2.9-2.4,5.6-2.4,8c0,2.4,0.4,4.9,2.3,7.9l1.1-0.5c-1.3-2.3-2-4.7-2-7.4
					C172.7,259.8,173.3,257.3,174.6,255.1z"/>
				<path class="st1" d="M179.7,259.4c-2.7,0-4,1.8-4,4c0,2.3,1.1,3.7,4.2,3.7h3.2V263C183.1,260.7,182,259.4,179.7,259.4z
					 M181.7,265.9h-1.6c-2,0-2.9-0.9-2.9-2.7c0-1.6,0.9-2.7,2.4-2.7c1.3,0,2.1,0.8,2.1,2.7V265.9z"/>
				<path class="st1" d="M180.8,258.1c0.5,0,0.8-0.4,0.8-0.9c0-0.5-0.4-0.8-0.8-0.8c-0.5,0-0.9,0.4-0.9,0.8
					C179.9,257.7,180.3,258.1,180.8,258.1z"/>
				<path class="st1" d="M178.4,258.1c0.5,0,0.8-0.4,0.8-0.9c0-0.5-0.4-0.8-0.8-0.8c-0.5,0-0.8,0.4-0.8,0.8
					C177.6,257.7,177.9,258.1,178.4,258.1z"/>
				<polygon class="st1" points="189.2,264.5 186.6,255.7 185.2,255.9 187.7,264.5 				"/>
				<path class="st1" d="M201.7,259.4c-1.8,0-3.6,1.3-4.4,3.7h0c0.1-0.9,0.2-2,0.2-2.9v-0.6H196v6.4h-2h-0.2h-1.5v-10.1h-1.5v10.1
					h-4.9v1.2h8h0.2h10.6c0.1-1.2,0.2-2.5,0.2-3.7C204.8,260.9,203.8,259.4,201.7,259.4z M203.2,265.9h-5.7c0.3-2.6,1.8-5.3,4-5.3
					c1.4,0,1.9,1.2,1.9,2.9C203.3,264.2,203.3,265.1,203.2,265.9z"/>
				<path class="st1" d="M221.2,260.4c2.8,0.8,4.1,2.3,4.2,5.5h-4.9h-0.2h-1.5v-10.1h-1.5v10.5c0,2.5-1.1,3.3-2.3,3.3
					c-1.3,0-2.6-0.7-2.6-3.4c0-1,0.1-2.1,0.4-3.2l-1.5,0.3c-0.3,0.9-0.4,2-0.4,3c0,3.3,1.7,4.5,3.9,4.5c2.1,0,3.6-1.1,3.9-3.7h1.5
					h0.2h6.3v-0.8c0-3.8-1.4-5.5-3.9-6.6l4.4-2.7v-1.5l-6.1,3.8V260.4z"/>
				<path class="st1" d="M252.8,265.9h-2.1h-0.2h-0.7c-0.9,0-1.6-0.3-2.3-0.8c1.3-1,1.9-2.2,1.9-3.3c0-1.3-0.9-2.5-3.1-2.5
					c-1.6,0-3.4,1-4.6,1.9l-0.1,1c1.6,0.5,2.7,1.7,3.8,2.8c-1.1,0.5-2.6,0.8-4.4,0.8h-0.3h-0.2h-1c-0.1-3.8-1.8-5.6-5.1-6.7
					l-0.4,1.2c2.8,0.9,4,2.5,4,5.4h-5.1v1.2h7.6h0.2h0.2c2.2,0,4-0.5,5.4-1.2c0.9,0.7,1.9,1.2,3.2,1.2h0.9h0.2h3.6v-7.5h-1.5V265.9z
					 M246.4,264.4c-1.1-1-2.1-2.1-3.5-2.7c0.7-0.5,2-1.3,3.1-1.3c1.2,0,1.8,0.7,1.8,1.6C247.8,262.8,247.4,263.7,246.4,264.4z"/>
				<path class="st1" d="M252.4,268.6c-0.5,0-0.9,0.4-0.9,0.9c0,0.5,0.4,0.9,0.9,0.9s0.9-0.4,0.9-0.9
					C253.3,269,252.9,268.6,252.4,268.6z"/>
				<path class="st1" d="M265.3,258.1c0.5,0,0.8-0.4,0.8-0.9c0-0.5-0.4-0.8-0.8-0.8c-0.5,0-0.9,0.4-0.9,0.8
					C264.5,257.7,264.9,258.1,265.3,258.1z"/>
				<path class="st1" d="M263,258.1c0.5,0,0.8-0.4,0.8-0.9c0-0.5-0.4-0.8-0.8-0.8c-0.5,0-0.8,0.4-0.8,0.8
					C262.1,257.7,262.5,258.1,263,258.1z"/>
				<path class="st1" d="M264.3,259.4c-2.7,0-4,1.8-4,4c0,2.3,1.1,3.7,4.2,3.7h3.2V263C267.7,260.7,266.5,259.4,264.3,259.4z
					 M266.2,265.9h-1.6c-2,0-2.9-0.9-2.9-2.7c0-1.6,0.9-2.7,2.4-2.7c1.3,0,2.1,0.8,2.1,2.7V265.9z"/>
				<path class="st1" d="M280.8,259.5c-0.7,0-1.4,0-1.9,0.1v1.2c0.6-0.1,1.1-0.1,1.8-0.1c2.6,0,3.5,1.2,3.5,3.6c0,0.5,0,1.1-0.1,1.6
					h-6.4h-0.2h-1c-0.1-3.8-1.8-5.6-5.1-6.7l-0.4,1.2c2.8,0.9,4,2.5,4,5.4h-5.1v1.2h7.6h0.2h7.7c0.2-1.2,0.3-2.2,0.3-2.9
					C285.7,261.1,284.3,259.5,280.8,259.5z"/>
				<rect x="288.2" y="255.8" class="st1" width="1.5" height="11.3"/>
				<path class="st1" d="M292,263.3c0,2.3,1.1,3.7,4.2,3.7h1.6v0.4c0,1.8-1.3,2.5-3.1,2.5c-1.2,0-2.6-0.3-2.6-0.3l-0.1,1.2
					c0,0,1.3,0.2,2.5,0.2c3.4,0,4.7-1.9,4.7-3.7v-7.4c0,0-1.5-0.6-3.2-0.6C293.3,259.4,292,261.2,292,263.3z M297.8,265.9h-1.4
					c-2.1,0-2.9-0.9-2.9-2.7c0-1.6,0.9-2.6,2.4-2.6c1.2,0,1.9,0.4,1.9,0.4V265.9z"/>
				<path class="st1" d="M310.3,258.1c0.5,0,0.8-0.4,0.8-0.9c0-0.5-0.4-0.8-0.8-0.8c-0.5,0-0.9,0.4-0.9,0.8
					C309.4,257.7,309.8,258.1,310.3,258.1z"/>
				<path class="st1" d="M307.9,258.1c0.5,0,0.8-0.4,0.8-0.9c0-0.5-0.4-0.8-0.8-0.8c-0.5,0-0.8,0.4-0.8,0.8
					C307.1,257.7,307.5,258.1,307.9,258.1z"/>
				<path class="st1" d="M312.6,263c0-2.3-1.1-3.6-3.4-3.6c-2.7,0-4,1.8-4,4c0,2.3,1.1,3.7,4.2,3.7h3.2V263z M311.2,265.9h-1.6
					c-2,0-2.9-0.9-2.9-2.7c0-1.6,0.9-2.7,2.4-2.7c1.3,0,2.1,0.8,2.1,2.7V265.9z"/>
				<path class="st1" d="M324.5,259.4c-2.5,0-3.9,1.8-3.9,4.2c0,1.9-0.6,2.4-1.4,2.4h-0.1h-0.2h-1.5v-6.4h-1.5v7.7
					c0,2.1-0.8,2.7-2.1,2.7c-0.6,0-1.1-0.1-1.6-0.3L312,271c0.5,0.1,1.1,0.2,1.7,0.2c2.9,0,3.7-1.8,3.7-4v-0.1h1.5h0.2h0
					c1,0,1.8-0.5,2.1-1.4c0.5,0.9,1.5,1.4,3.3,1.4h3.4v-3.9C328,260.7,326.9,259.4,324.5,259.4z M326.6,265.9h-1.8
					c-1.9,0-2.7-0.8-2.7-2.5c0-1.8,0.9-2.9,2.3-2.9c1.4,0,2.2,0.8,2.2,2.9V265.9z"/>
				<path class="st1" d="M330.9,254.6l-1.1,0.5c1.3,2.3,2,4.7,2,7.5c0,2.6-0.7,5.1-2,7.4l1,0.5c1.8-2.9,2.4-5.6,2.4-8
					C333.2,260.1,332.8,257.5,330.9,254.6z"/>
			</g>
			<g>
				<path class="st0" d="M346.7,269c-0.9,0-1.5,0.7-1.5,1.6c0,0.9,0.7,1.6,1.5,1.6c0.9,0,1.5-0.7,1.5-1.6
					C348.3,269.6,347.6,269,346.7,269z"/>
				<path class="st0" d="M350.5,269c-0.9,0-1.5,0.7-1.5,1.6c0,0.9,0.7,1.6,1.5,1.6s1.5-0.7,1.5-1.6C352,269.6,351.4,269,350.5,269z"
					/>
				<path class="st0" d="M381.3,261.7c0-2.3-0.3-4.5-0.7-6.4l-3,0.4c0.4,1.7,0.7,3.9,0.7,6.2c0,0.7-0.1,1.8-0.2,2.8h-0.8
					c-2,0-2.5-0.6-2.5-2.6v-5.4h-2.9v5.5c0,1.7-0.4,2.6-1.7,2.6c-1.4,0-1.7-0.9-1.7-2.7v-4.6h-3v4.2c0,2.3-0.6,2.9-2.1,2.9h-0.4
					h-0.3H361V261c0-3.2-1.3-5.1-5.3-5.1c-2.5,0-4.6,0.4-4.6,0.4v8.3h-1.6c-4.3,0-5.7-1.5-5.7-4.8c0-1.2,0.3-2.7,0.8-3.8l-3.2,0.5
					c-0.3,0.9-0.6,2.4-0.6,3.6c0,4.2,2.2,6.8,8.4,6.8h4.8v-8.6c0,0,0.8-0.1,1.5-0.1c1.9,0,2.6,0.8,2.6,3v5.7h4.5h0.3h0.4
					c1.7,0,2.6-0.6,3.1-1.7c0.4,1.2,1.6,1.9,3.3,1.9c1.4,0,2.8-0.6,3.3-1.9c0.5,1.2,1.7,1.7,3.7,1.7h4.3
					C381.2,265.4,381.3,263.4,381.3,261.7z"/>
				<path class="st0" d="M403.8,264.7h-2.5H401h-1.5c-0.2-4.4-2.2-6.7-5.1-8l5.6-3.4v-3l-9.1,5.7v2.2c3.7,0.9,5.5,2.9,5.6,6.5H390
					h-0.3h-1.9v-8.4h-3v11.1c0,2.5-0.9,3.2-2.5,3.2c-0.7,0-1.3-0.1-1.9-0.3l-0.3,2.4c0.6,0.1,1.2,0.2,1.9,0.2c4.7,0,5.7-2.8,5.7-5.7
					v-0.1h1.9h0.3h11h0.3h5.5v-16.2h-3V264.7z"/>
				<rect x="410.8" y="250.9" class="st0" width="3" height="16.2"/>
				<path class="st0" d="M426.1,254.5c0.9,0,1.5-0.7,1.5-1.6c0-0.9-0.7-1.6-1.5-1.6c-0.9,0-1.5,0.7-1.5,1.6
					C424.6,253.8,425.3,254.5,426.1,254.5z"/>
				<path class="st0" d="M429.9,254.5c0.9,0,1.5-0.7,1.5-1.6c0-0.9-0.7-1.6-1.5-1.6s-1.5,0.7-1.5,1.6
					C428.4,253.8,429.1,254.5,429.9,254.5z"/>
				<path class="st0" d="M437,269c-0.9,0-1.5,0.7-1.5,1.6c0,0.9,0.7,1.6,1.5,1.6c0.9,0,1.5-0.7,1.5-1.6
					C438.6,269.6,437.9,269,437,269z"/>
				<path class="st0" d="M439.4,264.7h-4h-0.3h-1.9v-7.9c0,0-2.1-0.8-4.8-0.8c-4.2,0-6.1,2.8-6.1,5.8c0,3.3,1.7,5.3,6.2,5.3h6.6h0.3
					h7v-10.8h-3V264.7z M430.2,264.7h-1.5c-2.4,0-3.4-1.1-3.4-3.2c0-1.8,1-3.1,2.7-3.1c1.3,0,2.2,0.4,2.2,0.4V264.7z"/>
				<path class="st0" d="M440.8,269c-0.9,0-1.5,0.7-1.5,1.6c0,0.9,0.7,1.6,1.5,1.6c0.9,0,1.5-0.7,1.5-1.6
					C442.3,269.6,441.7,269,440.8,269z"/>
				<path class="st0" d="M446.1,246.2l-2.4,1.8l1.1,1.4l1.3-0.9c0.3,0.3,1,0.7,2,0.7c1.3,0,2.2-0.6,2.5-0.9v-2.2
					c-0.4,0.3-1.3,0.9-2.4,0.9C447.3,247.1,446.4,246.5,446.1,246.2z"/>
				<rect x="446.1" y="250.9" class="st0" width="3" height="16.2"/>
				<path class="st0" d="M463,248.2h-1.3c-1.2,0-1.6-0.4-1.6-0.9c0-0.5,0.4-0.8,1.1-0.8c0.5,0,1,0.1,1.1,0.1l0.3-1.6
					c-0.2,0-0.7-0.1-1.4-0.1c-2.4,0-3.2,1.2-3.2,2.4c0,0.3,0.2,0.8,0.4,0.9c-0.3-0.1-0.8-0.1-1.4-0.1v1.6h5.9V248.2z"/>
				<rect x="458.6" y="251.2" class="st0" width="3" height="15.8"/>
				<path class="st0" d="M475.5,254.5c0.9,0,1.5-0.7,1.5-1.6c0-0.9-0.7-1.6-1.5-1.6c-0.9,0-1.5,0.7-1.5,1.6
					C473.9,253.8,474.6,254.5,475.5,254.5z"/>
				<path class="st0" d="M479.3,254.5c0.9,0,1.5-0.7,1.5-1.6c0-0.9-0.7-1.6-1.5-1.6c-0.9,0-1.5,0.7-1.5,1.6
					C477.8,253.8,478.4,254.5,479.3,254.5z"/>
				<path class="st0" d="M477.7,256c-4,0-6,2.7-6,5.6c0,1.6,0.4,2.7,1.3,3.3c0,0-0.5-0.2-1.3-0.2h-1h-0.3h-1.9v-8.4h-3v11.1
					c0,2.5-0.9,3.2-2.5,3.2c-0.7,0-1.3-0.1-1.9-0.3l-0.3,2.4c0.6,0.1,1.2,0.2,1.9,0.2c4.7,0,5.7-2.8,5.7-5.7v-0.1h1.9h0.3h12.1v-5.8
					C482.9,258,481.3,256,477.7,256z M479.9,264.7h-1.7c-2.4,0-3.4-1.1-3.4-3.2c0-1.8,1-3.1,2.7-3.1c1.5,0,2.5,1,2.5,3.3V264.7z"/>
				<rect x="486.4" y="251.2" class="st0" width="3" height="15.8"/>
				<path class="st0" d="M489.4,248.2c-1.2,0-1.6-0.4-1.6-0.9c0-0.5,0.4-0.8,1.1-0.8c0.5,0,1,0.1,1.1,0.1l0.3-1.6
					c-0.2,0-0.7-0.1-1.4-0.1c-2.4,0-3.2,1.2-3.2,2.4c0,0.3,0.2,0.8,0.4,0.9c-0.3-0.1-0.8-0.1-1.4-0.1v1.6h5.9v-1.6H489.4z"/>
			</g>
		</g>
	</g>
	<g>
		<circle class="st2" cx="515.9" cy="260.6" r="12"/>
		<g>
			<g>
				<path class="st1" d="M519.3,264v3.1h-2.6V264h-5.9l-0.2-2.1l5.1-8.8h3.6v8.5h2.1v2.4H519.3z M516.7,255.5L516.7,255.5l-3.6,6.2
					c0.9,0,2.9,0,3.6,0V255.5z"/>
			</g>
		</g>
	</g>
	<g>
		<g>
			<g>
				<path class="st0" d="M73.4,305.1c-3.3,0-5.3,1.8-5.8,4.3h-0.5c-3.7,0-4.9,2.3-4.3,5.5l1.2,7.3h2.9l-1.2-7.5
					c-0.3-2.2,0-2.9,1.4-2.9h0.5c0.3,2.8,2,4.5,6.1,4.5h5v-5.8C78.6,307.1,77,305.1,73.4,305.1z M75.7,313.8h-1.7
					c-2.4,0-3.4-1.1-3.4-3.2c0-1.8,1-3.1,2.7-3.1c1.5,0,2.5,1,2.5,3.3V313.8z"/>
				<polygon class="st0" points="87.3,312 84,299.8 80.9,300.2 84.2,312 				"/>
				<path class="st0" d="M117.3,313.8h-2.5h-0.3h-1.9c0.1-1,0.1-2,0.1-3c0-2.3-0.3-4.5-0.7-6.4l-3,0.4c0.4,1.7,0.7,3.9,0.7,6.2
					c0,0.7-0.1,1.8-0.2,2.8h-0.8c-2,0-2.5-0.6-2.5-2.6v-5.4h-2.9v5.5c0,1.7-0.4,2.6-1.7,2.6c-1.4,0-1.7-0.9-1.7-2.7v-4.6h-3v4.2
					c0,2.3-0.6,2.9-2.1,2.9h-0.4H94H92v-13.8h-3v13.8h-7.1v2.4H94h0.4h0.3c1.7,0,2.6-0.6,3.1-1.7c0.4,1.2,1.6,1.9,3.3,1.9
					c1.4,0,2.8-0.6,3.3-1.9c0.5,1.2,1.7,1.7,3.7,1.7h6.4h0.3h5.5v-16.2h-3V313.8z"/>
				<rect x="124.3" y="299.9" class="st0" width="3" height="16.2"/>
				<path class="st0" d="M147.7,305h-1.3c-1.2,0-1.6-0.4-1.6-0.9c0-0.5,0.4-0.8,1.1-0.8c0.5,0,1,0.1,1.1,0.1l0.3-1.7
					c-0.2,0-0.7-0.1-1.4-0.1c-2.4,0-3.3,1.3-3.3,2.6c0,0.3,0.2,0.8,0.4,0.9c-0.3-0.1-0.8-0.1-1.3-0.1v1.7h5.9V305z"/>
				<path class="st0" d="M159.3,303.4c0.9,0,1.6-0.7,1.6-1.6s-0.7-1.6-1.6-1.6c-0.9,0-1.6,0.7-1.6,1.6
					C157.7,302.7,158.5,303.4,159.3,303.4z"/>
				<path class="st0" d="M170.8,305.1c-3.9,0-5.9,2.7-5.9,6c0,2.1-0.6,2.8-1.7,2.8h-0.1h-0.3h-1.9v-8.4h-3v8.4H155h-0.4h-2v-13.8h-3
					v13.8h-4.8c-4.3,0-5.7-1.5-5.7-4.8c0-1.2,0.3-2.7,0.8-3.8l-3.2,0.5c-0.3,0.9-0.6,2.4-0.6,3.6c0,4.2,2.2,6.8,8.4,6.8h10.1h0.4
					h7.8h0.3h0c1.4,0,2.5-0.6,3-1.8c0.7,1.1,2,1.8,4.7,1.8h5.2v-5.6C176.1,307.2,174.5,305.1,170.8,305.1z M173.2,313.8h-2
					c-2.4,0-3.2-1-3.2-3c0-2,1-3.3,2.7-3.3c1.7,0,2.6,1,2.6,3.4V313.8z"/>
				<path class="st0" d="M178.6,310.8c0,3.3,1.7,5.3,6.2,5.3h1.8v0.3c0,2.2-1.6,3.1-4,3.1c-1.8,0-3.6-0.4-3.6-0.4l-0.2,2.5
					c0,0,1.8,0.3,3.5,0.3c5.2,0,7.2-2.6,7.2-5.8v-10.3c0,0-2.1-0.8-4.8-0.8C180.4,305.1,178.6,307.8,178.6,310.8z M186.5,313.8h-1.5
					c-2.4,0-3.4-1.1-3.4-3.2c0-1.8,1-3.1,2.7-3.1c1.3,0,2.2,0.4,2.2,0.4V313.8z"/>
				<path class="st0" d="M208.5,305.1c-3.3,0-5.3,1.8-5.8,4.3h-0.5c-3.7,0-4.9,2.3-4.3,5.5l1.2,7.3h2.9l-1.2-7.5
					c-0.3-2.2,0-2.9,1.4-2.9h0.5c0.3,2.8,2,4.5,6.1,4.5h5v-5.8C213.7,307.1,212.1,305.1,208.5,305.1z M210.8,313.8H209
					c-2.4,0-3.4-1.1-3.4-3.2c0-1.8,1-3.1,2.7-3.1c1.5,0,2.5,1,2.5,3.3V313.8z"/>
				<polygon class="st0" points="222.4,312 219.1,299.8 216,300.2 219.3,312 				"/>
				<path class="st0" d="M252.4,313.8h-2.5h-0.3h-1.9c0.1-1,0.1-2,0.1-3c0-2.3-0.3-4.5-0.7-6.4l-3,0.4c0.4,1.7,0.7,3.9,0.7,6.2
					c0,0.7-0.1,1.8-0.2,2.8h-0.8c-2,0-2.5-0.6-2.5-2.6v-5.4h-2.9v5.5c0,1.7-0.4,2.6-1.7,2.6c-1.4,0-1.7-0.9-1.7-2.7v-4.6h-3v4.2
					c0,2.3-0.6,2.9-2.1,2.9h-0.4h-0.4h-1.9v-13.8h-3v13.8H217v2.4h12.1h0.4h0.3c1.7,0,2.6-0.6,3.1-1.7c0.4,1.2,1.6,1.9,3.3,1.9
					c1.4,0,2.8-0.6,3.3-1.9c0.5,1.2,1.7,1.7,3.7,1.7h6.4h0.3h5.5v-16.2h-3V313.8z"/>
				<rect x="259.4" y="299.9" class="st0" width="3" height="16.2"/>
				<path class="st0" d="M281.1,303.6c0.9,0,1.5-0.7,1.5-1.6c0-0.9-0.7-1.6-1.5-1.6s-1.5,0.7-1.5,1.6
					C279.6,302.9,280.3,303.6,281.1,303.6z"/>
				<path class="st0" d="M277.3,303.6c0.9,0,1.5-0.7,1.5-1.6c0-0.9-0.7-1.6-1.5-1.6c-0.9,0-1.5,0.7-1.5,1.6
					C275.8,302.9,276.5,303.6,277.3,303.6z"/>
				<path class="st0" d="M292.7,300.2c-0.9,0-1.6,0.7-1.6,1.6c0,0.9,0.7,1.6,1.6,1.6c0.9,0,1.6-0.7,1.6-1.6S293.6,300.2,292.7,300.2
					z"/>
				<path class="st0" d="M291.2,313.8h-2.9H288h-1.9v-8.4h-3v8.4h-3.1c-4.3,0-5.7-1.5-5.7-4.8c0-1.2,0.3-2.7,0.8-3.8l-3.2,0.5
					c-0.3,0.9-0.6,2.4-0.6,3.6c0,4.2,2.2,6.8,8.4,6.8h8.4h0.4h5.9v-10.8h-3V313.8z"/>
				<path class="st0" d="M299.3,296.5c0-0.5,0.4-0.8,1.1-0.8c0.5,0,1,0.1,1.1,0.1l0.3-1.6c-0.2,0-0.7-0.1-1.4-0.1
					c-2.4,0-3.2,1.2-3.2,2.4c0,0.3,0.2,0.8,0.4,0.9c-0.3-0.1-0.8-0.1-1.4-0.1v1.6h5.9v-1.6h-1.3C299.7,297.3,299.3,297,299.3,296.5z
					"/>
				<rect x="297.9" y="300.3" class="st0" width="3" height="15.8"/>
				<path class="st0" d="M355.3,313.8h-2.5h-0.4h-2v-13.8h-3v13.8H345h-0.4h-1.4v-0.1c0-6.7-3.3-9.5-9-9.5c-1.8,0-3.9,0.4-5.6,0.9
					l0.3,2.1c1.5-0.5,3.4-0.8,4.9-0.8c4.6,0,6.5,2.3,6.5,7.1v0.3H338v-0.6c0-2.7-1.2-4.7-4.2-4.7c-2.8,0-4.3,1.7-4.3,3.9
					c0,0.9,0.6,1.5,0.6,1.5s-0.4-0.1-1-0.1h-1.6H327h-1.6v-3.4c0-3.2-1.6-5.3-5.2-5.3c-3.3,0-5.3,1.8-5.8,4.3h-0.5
					c-3.7,0-4.9,2.3-4.3,5.5l1.2,7.3h2.9l-1.2-7.5c-0.3-2.2,0-2.9,1.4-2.9h0.5c0.3,2.8,2,4.5,6.1,4.5h6.6h0.3h17.3h0.4h7.5h0.4h5.5
					v-16.2h-3V313.8z M322.5,313.8h-1.7c-2.4,0-3.4-1.1-3.4-3.2c0-1.8,1-3.1,2.7-3.1c1.5,0,2.5,1,2.5,3.3V313.8z M335.5,313.9h-1.4
					c-1.2,0-2.2-0.6-2.2-1.8c0-0.9,0.6-1.7,1.7-1.7c1.3,0,2,1.2,2,2.8V313.9z"/>
				<rect x="362.3" y="299.9" class="st0" width="3" height="16.2"/>
				<polygon class="st0" points="372.6,300 373,305.9 375.2,305.9 375.6,300 				"/>
				<polygon class="st0" points="368.6,305.9 370.9,305.9 371.2,300 368.3,300 				"/>
			</g>
			<g>
				<path class="st1" d="M384.5,309.6c-0.5,0-1,0.4-1,1c0,0.6,0.4,1,1,1c0.5,0,1-0.4,1-1C385.5,310.1,385,309.6,384.5,309.6z"/>
				<circle class="st1" cx="384.5" cy="315.3" r="1"/>
				<path class="st1" d="M404.8,315h-2h-0.2h-1.4v-3c0-2.2-0.9-3.5-3.6-3.5c-1.5,0-2.9,0.3-2.9,0.3v6.2h-1.4c-3.3,0-4.3-1.2-4.3-3.7
					c0-0.9,0.2-2,0.6-2.8l-1.6,0.3c-0.3,0.6-0.5,1.7-0.5,2.7c0,3,1.6,4.7,5.6,4.7h3v-6.4c0,0,0.7-0.1,1.3-0.1c1.6,0,2.3,0.7,2.3,2.5
					v4h2.8h0.2h3.5v-11.3h-1.5V315z"/>
				<path class="st1" d="M426.3,305.4c-0.5,0-0.9,0.4-0.9,0.8c0,0.5,0.4,0.9,0.9,0.9c0.5,0,0.8-0.4,0.8-0.9
					C427.1,305.8,426.8,305.4,426.3,305.4z"/>
				<path class="st1" d="M424.6,315h-2.1h-0.2h-0.7c-0.9,0-1.6-0.3-2.3-0.8c1.3-1,1.9-2.2,1.9-3.3c0-1.3-0.9-2.5-3.1-2.5
					c-1.6,0-3.4,1-4.6,1.9l-0.1,1c1.6,0.5,2.7,1.7,3.8,2.8c-1.1,0.5-2.6,0.8-4.4,0.8h-0.3h-0.2h-1.5v-10.1h-1.5v11.3h3h0.2h0.2
					c2.2,0,4-0.5,5.4-1.2c0.9,0.7,1.9,1.2,3.2,1.2h0.9h0.2h3.6v-7.5h-1.5V315z M418.3,313.5c-1.1-1-2.1-2.1-3.5-2.7
					c0.7-0.5,2-1.3,3.1-1.3c1.2,0,1.8,0.7,1.8,1.6C419.7,311.9,419.2,312.8,418.3,313.5z"/>
				<path class="st1" d="M423.9,307.2c0.5,0,0.8-0.4,0.8-0.9c0-0.5-0.4-0.8-0.8-0.8c-0.5,0-0.8,0.4-0.8,0.8
					C423.1,306.8,423.4,307.2,423.9,307.2z"/>
				<path class="st1" d="M448.4,315h-2h-0.2h-1.5v-10.1h-1.5V315h-2h-0.2h-1.5v-6c0,0-1.5-0.6-3.2-0.6c-2.7,0-4,1.9-4,4
					c0,2.3,1.1,3.7,4.2,3.7h4.6h0.2h5h0.2h3.5v-11.3h-1.5V315z M437.9,315h-1.4c-2.1,0-2.9-0.9-2.9-2.7c0-1.6,0.9-2.6,2.4-2.6
					c1.2,0,1.9,0.4,1.9,0.4V315z"/>
				<rect x="452.9" y="304.9" class="st1" width="1.5" height="11.3"/>
				<path class="st1" d="M472.1,312.1c0-1.6,1-2.5,2.4-2.5c1,0,1.9,0.4,1.9,0.4l0.3-1.2c0,0-1-0.4-2.1-0.4c-2.7,0-4,1.7-4,3.7
					c0,1.3,0.8,2.4,1.7,2.8h-2.8h-0.2h-1.5v-6c0,0-1.5-0.6-3.2-0.6c-2.7,0-4,1.9-4,4c0,2.3,1.1,3.7,4.2,3.7h1.6v0.4
					c0,1.8-1.3,2.5-3.1,2.5c-1.2,0-2.6-0.3-2.6-0.3l-0.1,1.2c0,0,1.3,0.2,2.5,0.2c3.4,0,4.7-1.9,4.7-3.7v-0.3h1.5h0.2h8.2V315h-1.3
					C473.4,315,472.1,313.7,472.1,312.1z M466.3,315h-1.4c-2.1,0-2.9-0.9-2.9-2.7c0-1.6,0.9-2.6,2.4-2.6c1.2,0,1.9,0.4,1.9,0.4V315z
					"/>
				<path class="st1" d="M480.8,308.3l-0.4,1.2c2.8,0.9,4,2.5,4,5.4h-5.1v1.2h6.6v-0.8C485.9,311.3,484.2,309.4,480.8,308.3z"/>
				<rect x="488.4" y="305" class="st1" width="1.5" height="11.1"/>
				<path class="st1" d="M490.1,303c-0.9,0-1.2-0.3-1.2-0.7c0-0.4,0.3-0.7,0.9-0.7c0.3,0,0.6,0,0.8,0.1l0.1-0.9
					c-0.2,0-0.5-0.1-0.9-0.1c-1.5,0-2,0.8-2,1.6c0,0.3,0.1,0.6,0.4,0.8c-0.3,0-0.7-0.1-1.1-0.1v0.8h3.9V303H490.1z"/>
			</g>
			<g>
				<path class="st0" d="M18.7,348.7c-1,0-1.9,0.9-1.9,1.9c0,1,0.9,1.9,1.9,1.9s1.9-0.8,1.9-1.9C20.6,349.5,19.7,348.7,18.7,348.7z"
					/>
				<polygon class="st0" points="27.4,341.9 29.6,341.9 29.9,336 27,336 				"/>
				<polygon class="st0" points="23,341.9 25.2,341.9 25.6,336 22.7,336 				"/>
				<path class="st0" d="M42.7,341.1c-3.3,0-5.3,1.8-5.8,4.3h-0.5c-3.7,0-4.9,2.3-4.3,5.5l1.2,7.3h2.9l-1.2-7.5
					c-0.3-2.2,0-2.9,1.4-2.9h0.5c0.3,2.8,2,4.5,6.1,4.5h5v-5.8C47.9,343.1,46.3,341.1,42.7,341.1z M44.9,349.8h-1.7
					c-2.4,0-3.4-1.1-3.4-3.2c0-1.8,1-3.1,2.7-3.1c1.5,0,2.5,1,2.5,3.3V349.8z"/>
				<rect x="51.5" y="335.9" class="st0" width="3" height="16.2"/>
				<path class="st0" d="M64.4,343.3c3.7,0.9,5.5,2.9,5.6,6.5h-6.5h-0.3h-1.9v-8.4h-3v11.1c0,2.5-0.9,3.2-2.5,3.2
					c-0.7,0-1.3-0.1-1.9-0.3l-0.3,2.4c0.6,0.1,1.2,0.2,1.9,0.2c4.7,0,5.7-2.8,5.7-5.7v-0.1h1.9h0.3H73v-1.5c0-5-2-7.5-5.1-8.9
					l5.6-3.4v-3l-9.1,5.7V343.3z"/>
				<path class="st0" d="M79.4,355.9c0-0.4,0.4-0.7,1-0.7c0.5,0,0.9,0.1,1.1,0.1l0.3-1.7c-0.2,0-0.8-0.1-1.4-0.1
					c-2.2,0-3.2,1.1-3.2,2.4c0,0.3,0.1,0.6,0.3,0.8c-0.3-0.1-0.7-0.1-1.1-0.1v1.7h5.8v-1.7h-1.4C79.8,356.6,79.4,356.4,79.4,355.9z"
					/>
				<polygon class="st0" points="83.3,349.8 76.2,349.8 76.2,352.2 86.3,352.2 86.3,335.9 83.3,335.9 				"/>
				<polygon class="st0" points="81.6,348 78.2,335.8 75.2,336.2 78.5,348 				"/>
				<rect x="90.2" y="335.9" class="st0" width="3" height="16.2"/>
				<path class="st0" d="M96,346.8c0,3.3,1.7,5.3,6.2,5.3h1.8v0.3c0,2.2-1.6,3.1-4,3.1c-1.8,0-3.6-0.4-3.6-0.4l-0.2,2.5
					c0,0,1.8,0.3,3.5,0.3c5.2,0,7.2-2.6,7.2-5.8v-10.3c0,0-2.1-0.8-4.8-0.8C97.9,341.1,96,343.8,96,346.8z M104,349.8h-1.5
					c-2.4,0-3.4-1.1-3.4-3.2c0-1.8,1-3.1,2.7-3.1c1.3,0,2.2,0.4,2.2,0.4V349.8z"/>
				<path class="st0" d="M124.4,350.6c0,3.4-1.2,4.4-2.9,4.4c-1.6,0-3.2-0.9-3.2-4.4c0-1.4,0.2-2.9,0.6-4.4l-3.1,0.6
					c-0.4,1.3-0.6,2.8-0.6,4.1c0,4.6,2.3,6.5,5.9,6.5c3.9,0,6.2-2.2,6.2-7v-14.5h-3V350.6z"/>
				<polygon class="st0" points="136.3,348 133,335.8 130,336.2 133.3,348 				"/>
				<path class="st0" d="M148.4,354c-0.9,0-1.6,0.7-1.6,1.6c0,0.9,0.7,1.6,1.6,1.6c0.9,0,1.6-0.7,1.6-1.6
					C150,354.7,149.3,354,148.4,354z"/>
				<path class="st0" d="M159.2,349.8h-2.5h-0.3h-1.5c0.1-0.7,0.1-1.3,0.1-1.9c0-4.4-2-6.7-7.2-6.7c-1,0-2,0.1-2.9,0.2v2.4
					c0.9-0.1,1.7-0.2,2.6-0.2c3.3,0,4.5,1.5,4.5,4.4c0,0.6,0,1.2-0.1,1.7h-8.5H143h-1.9v-13.8h-3v13.8h-7.1v2.4H143h0.4h13h0.3h5.5
					v-16.2h-3V349.8z"/>
				<rect x="166.2" y="335.9" class="st0" width="3" height="16.2"/>
				<rect x="178.7" y="335.9" class="st0" width="3" height="16.2"/>
				<path class="st0" d="M188.3,339.4c0.9,0,1.6-0.7,1.6-1.6s-0.7-1.6-1.6-1.6c-0.9,0-1.6,0.7-1.6,1.6
					C186.7,338.7,187.4,339.4,188.3,339.4z"/>
				<path class="st0" d="M186.9,340.8l-0.7,2.5c3.6,0.9,5.3,3,5.4,6.4h-6.8v2.4h9.8v-1.5C194.6,344.9,191.9,342.1,186.9,340.8z"/>
				<path class="st0" d="M214,354c-0.9,0-1.5,0.7-1.5,1.6c0,0.9,0.7,1.6,1.5,1.6s1.5-0.7,1.5-1.6C215.6,354.7,214.9,354,214,354z"/>
				<polygon class="st0" points="212.6,349.8 208.6,349.8 208.3,349.8 206.3,349.8 206.3,335.9 203.3,335.9 203.3,352.2 
					208.3,352.2 208.6,352.2 215.6,352.2 215.6,341.3 212.6,341.3 				"/>
				<path class="st0" d="M210.2,354c-0.9,0-1.5,0.7-1.5,1.6c0,0.9,0.7,1.6,1.5,1.6c0.9,0,1.5-0.7,1.5-1.6
					C211.8,354.7,211.1,354,210.2,354z"/>
				<path class="st0" d="M230.3,339.6c0.9,0,1.5-0.7,1.5-1.6c0-0.9-0.7-1.6-1.5-1.6c-0.9,0-1.5,0.7-1.5,1.6
					C228.8,338.9,229.4,339.6,230.3,339.6z"/>
				<path class="st0" d="M234.1,339.6c0.9,0,1.5-0.7,1.5-1.6c0-0.9-0.7-1.6-1.5-1.6s-1.5,0.7-1.5,1.6
					C232.6,338.9,233.2,339.6,234.1,339.6z"/>
				<path class="st0" d="M242.9,354c-0.9,0-1.5,0.7-1.5,1.6c0,0.9,0.7,1.6,1.5,1.6c0.9,0,1.5-0.7,1.5-1.6
					C244.4,354.7,243.8,354,242.9,354z"/>
				<path class="st0" d="M246.7,354c-0.9,0-1.5,0.7-1.5,1.6c0,0.9,0.7,1.6,1.5,1.6c0.9,0,1.5-0.7,1.5-1.6
					C248.2,354.7,247.5,354,246.7,354z"/>
				<path class="st0" d="M253,349.8h-2.5h-0.4h-1.9v-8.4h-3v8.4h-4h-0.4H239v-8.4h-3v8.4h-3.1c-4.3,0-5.7-1.5-5.7-4.8
					c0-1.2,0.3-2.7,0.8-3.8l-3.2,0.5c-0.3,0.9-0.6,2.4-0.6,3.6c0,4.2,2.2,6.8,8.4,6.8h8.4h0.4h8.9h0.4h5.5v-16.2h-3V349.8z"/>
				<path class="st0" d="M281.8,339.6c0.9,0,1.5-0.7,1.5-1.6c0-0.9-0.7-1.6-1.5-1.6c-0.9,0-1.5,0.7-1.5,1.6
					C280.3,338.9,281,339.6,281.8,339.6z"/>
				<path class="st0" d="M282.7,349.8h-2.9h-0.3h-1.2c-1,0-1.8-0.2-2.6-0.6c1.5-1.3,2.3-2.9,2.3-4.4c0-2-1.4-3.8-4.9-3.8
					c-2.3,0-4.8,1.2-6.6,2.6l-0.3,2.2c2,0.6,3.4,2,4.8,3.4c-1.4,0.5-3.2,0.7-5.4,0.7h-0.5H265h-2v-13.8h-3v16.2h5h0.3h0.3
					c3.1,0,5.6-0.6,7.6-1.4c1.2,0.8,2.7,1.4,4.7,1.4h1.5h0.3h5.9v-10.8h-3V349.8z M273.6,347.8c-1.4-1.2-2.7-2.5-4.3-3.2
					c0.8-0.6,2.3-1.4,3.5-1.4c1.5,0,2.2,0.9,2.2,1.9C275.1,346.1,274.6,347,273.6,347.8z"/>
				<path class="st0" d="M285.7,336.5c-0.9,0-1.5,0.7-1.5,1.6c0,0.9,0.7,1.6,1.5,1.6c0.9,0,1.5-0.7,1.5-1.6
					C287.2,337.2,286.5,336.5,285.7,336.5z"/>
				<path class="st0" d="M288.3,346.8c0,3.3,1.7,5.3,6.2,5.3h1.8v0.3c0,2.2-1.6,3.1-4,3.1c-1.8,0-3.6-0.4-3.6-0.4l-0.2,2.5
					c0,0,1.8,0.3,3.5,0.3c5.2,0,7.2-2.6,7.2-5.8v-10.3c0,0-2.1-0.8-4.8-0.8C290.1,341.1,288.3,343.8,288.3,346.8z M296.2,349.8h-1.5
					c-2.4,0-3.4-1.1-3.4-3.2c0-1.8,1-3.1,2.7-3.1c1.3,0,2.2,0.4,2.2,0.4V349.8z"/>
				<path class="st0" d="M313.8,339.6c0.9,0,1.5-0.7,1.5-1.6c0-0.9-0.7-1.6-1.5-1.6c-0.9,0-1.5,0.7-1.5,1.6
					C312.3,338.9,313,339.6,313.8,339.6z"/>
				<path class="st0" d="M317.6,339.6c0.9,0,1.5-0.7,1.5-1.6c0-0.9-0.7-1.6-1.5-1.6s-1.5,0.7-1.5,1.6
					C316.1,338.9,316.8,339.6,317.6,339.6z"/>
				<path class="st0" d="M325.7,343.3c3.7,0.9,5.5,2.9,5.6,6.5h-6.5h-0.4h-1.9v-8.4h-3v8.4h-3.1c-4.3,0-5.7-1.5-5.7-4.8
					c0-1.2,0.3-2.7,0.8-3.8l-3.2,0.5c-0.3,0.9-0.6,2.4-0.6,3.6c0,4.2,2.2,6.8,8.4,6.8h8.4h0.4h9.4v-1.5c0-5-2-7.5-5.1-8.9l5.6-3.4
					v-3l-9.1,5.7V343.3z"/>
				<path class="st0" d="M340.1,352.4c0,2.5-0.9,3.2-2.5,3.2c-0.7,0-1.3-0.1-1.9-0.3l-0.3,2.4c0.6,0.1,1.2,0.2,1.9,0.2
					c4.7,0,5.7-2.8,5.7-5.7v-10.9h-3V352.4z"/>
				<path class="st0" d="M354.9,354c-0.9,0-1.6,0.7-1.6,1.6c0,0.9,0.7,1.6,1.6,1.6s1.6-0.7,1.6-1.6C356.4,354.7,355.7,354,354.9,354
					z"/>
				<path class="st0" d="M362.4,339.6c0.9,0,1.5-0.7,1.5-1.6c0-0.9-0.7-1.6-1.5-1.6c-0.9,0-1.5,0.7-1.5,1.6
					C360.9,338.9,361.5,339.6,362.4,339.6z"/>
				<polygon class="st0" points="363.2,349.8 360.3,349.8 360,349.8 358.1,349.8 358.1,341.3 355,341.3 355,349.8 352.2,349.8 
					351.8,349.8 349.9,349.8 349.9,335.9 346.8,335.9 346.8,352.2 351.8,352.2 352.2,352.2 360,352.2 360.3,352.2 366.2,352.2 
					366.2,341.3 363.2,341.3 				"/>
				<path class="st0" d="M366.2,336.5c-0.9,0-1.5,0.7-1.5,1.6c0,0.9,0.7,1.6,1.5,1.6c0.9,0,1.5-0.7,1.5-1.6
					C367.7,337.2,367.1,336.5,366.2,336.5z"/>
			</g>
		</g>
	</g>
	<g>
		<g>
			<g>
				<path class="st0" d="M78.2,379h-1.3c-1.2,0-1.6-0.4-1.6-0.9c0-0.5,0.4-0.8,1.1-0.8c0.5,0,1,0.1,1.1,0.1l0.3-1.7
					c-0.2,0-0.7-0.1-1.4-0.1c-2.4,0-3.3,1.3-3.3,2.6c0,0.3,0.2,0.8,0.4,0.9c-0.3-0.1-0.8-0.1-1.3-0.1v1.7h5.9V379z"/>
				<path class="st0" d="M80.1,387.8h-4.8c-4.3,0-5.7-1.5-5.7-4.8c0-1.2,0.3-2.7,0.8-3.8l-3.2,0.5c-0.3,0.9-0.6,2.4-0.6,3.6
					c0,4.2,2.2,6.8,8.4,6.8h8.2v-16.2h-3V387.8z"/>
				<path class="st0" d="M120.7,378.8c0.4,1.7,0.7,3.9,0.7,6.2c0,0.7-0.1,1.8-0.2,2.8h-0.8c-2,0-2.5-0.6-2.5-2.6v-5.4H115v5.5
					c0,1.7-0.4,2.6-1.7,2.6c-1.4,0-1.7-0.9-1.7-2.7v-4.6h-3v4.2c0,2.3-0.6,2.9-2.1,2.9h-0.4h-0.3h-1.5c-0.2-4.4-2.2-6.7-5.1-8
					l5.6-3.4v-3l-9.1,5.7v2.2c3.7,0.9,5.5,2.9,5.6,6.5h-6.5h-0.3h-1.9v-8.4h-3v11.1c0,2.5-0.9,3.2-2.5,3.2c-0.7,0-1.3-0.1-1.9-0.3
					l-0.3,2.4c0.6,0.1,1.2,0.2,1.9,0.2c4.7,0,5.7-2.8,5.7-5.7v-0.1h1.9h0.3h11h0.3h0.4c1.7,0,2.6-0.6,3.1-1.7
					c0.4,1.2,1.6,1.9,3.3,1.9c1.4,0,2.8-0.6,3.3-1.9c0.5,1.2,1.7,1.7,3.7,1.7h4.3c0.2-1.6,0.3-3.7,0.3-5.4c0-2.3-0.3-4.5-0.7-6.4
					L120.7,378.8z"/>
				<path class="st0" d="M116.7,376c0,0.9,0.7,1.6,1.5,1.6c0.9,0,1.5-0.7,1.5-1.6c0-0.9-0.7-1.6-1.5-1.6
					C117.4,374.5,116.7,375.2,116.7,376z"/>
				<path class="st0" d="M114.4,377.6c0.9,0,1.5-0.7,1.5-1.6c0-0.9-0.7-1.6-1.5-1.6c-0.9,0-1.5,0.7-1.5,1.6
					C112.9,376.9,113.6,377.6,114.4,377.6z"/>
				<path class="st0" d="M116.3,374.3c0.8,0,1.4-0.6,1.4-1.4s-0.6-1.4-1.4-1.4c-0.8,0-1.4,0.6-1.4,1.4S115.5,374.3,116.3,374.3z"/>
				<path class="st0" d="M126.9,384.8c0,3.3,1.7,5.3,6.2,5.3h1.8v0.3c0,2.2-1.6,3.1-4,3.1c-1.8,0-3.6-0.4-3.6-0.4l-0.2,2.5
					c0,0,1.8,0.3,3.5,0.3c5.2,0,7.2-2.6,7.2-5.8v-10.3c0,0-2.1-0.8-4.8-0.8C128.8,379,126.9,381.8,126.9,384.8z M134.9,387.8h-1.5
					c-2.4,0-3.4-1.1-3.4-3.2c0-1.8,1-3.1,2.7-3.1c1.3,0,2.2,0.4,2.2,0.4V387.8z"/>
				<path class="st0" d="M159.8,387.8H155c-4.3,0-5.7-1.5-5.7-4.8c0-1.2,0.3-2.7,0.8-3.8l-3.2,0.5c-0.3,0.9-0.6,2.4-0.6,3.6
					c0,4.2,2.2,6.8,8.4,6.8h8.2v-16.2h-3V387.8z"/>
				<path class="st0" d="M158,379h-1.3c-1.2,0-1.6-0.4-1.6-0.9c0-0.5,0.4-0.8,1.1-0.8c0.5,0,1,0.1,1.1,0.1l0.3-1.7
					c-0.2,0-0.7-0.1-1.4-0.1c-2.4,0-3.3,1.3-3.3,2.6c0,0.3,0.2,0.8,0.4,0.9c-0.3-0.1-0.8-0.1-1.3-0.1v1.7h5.9V379z"/>
				<path class="st0" d="M175.4,381.3c3.7,0.9,5.5,2.9,5.6,6.5h-6.5h-0.3h-1.9v-8.4h-3v11.1c0,2.5-0.9,3.2-2.5,3.2
					c-0.7,0-1.3-0.1-1.9-0.3l-0.3,2.4c0.6,0.1,1.2,0.2,1.9,0.2c4.7,0,5.7-2.8,5.7-5.7v-0.1h1.9h0.3h9.5v-1.5c0-5-2-7.5-5.1-8.9
					l5.6-3.4v-3l-9.1,5.7V381.3z"/>
				<path class="st0" d="M190,377.4c0.9,0,1.6-0.7,1.6-1.6s-0.7-1.6-1.6-1.6c-0.9,0-1.6,0.7-1.6,1.6
					C188.4,376.7,189.1,377.4,190,377.4z"/>
				<path class="st0" d="M188.7,378.8l-0.7,2.5c3.6,0.9,5.3,3,5.4,6.4h-6.8v2.4h9.8v-1.5C196.3,382.9,193.6,380.1,188.7,378.8z"/>
				<path class="st0" d="M238.7,384.3c0-1.8,1.2-2.9,2.9-2.9c1.3,0,2.4,0.5,2.4,0.5l0.5-2.4c0,0-1.3-0.4-2.9-0.4c-4.1,0-6,2.4-6,5.3
					c0,1.5,0.8,2.8,1.8,3.4h-3.2h-0.4h-2v-13.8h-3v13.8h-2.5h-0.3h-1.6v-3.6c0-3.2-1.3-5.1-5.3-5.1c-2.5,0-4.6,0.4-4.6,0.4v8.3H213
					c-4.3,0-5.7-1.5-5.7-4.8c0-1.2,0.3-2.7,0.8-3.8l-3.2,0.5c-0.3,0.9-0.6,2.4-0.6,3.6c0,4.2,2.2,6.8,8.4,6.8h4.8v-8.6
					c0,0,0.8-0.1,1.5-0.1c1.9,0,2.6,0.8,2.6,3v5.7h4.5h0.3h7.5h0.4h11.4v-2.4h-1.8C240.3,387.8,238.7,386.3,238.7,384.3z"/>
				<path class="st0" d="M263.1,392c-0.9,0-1.5,0.7-1.5,1.6c0,0.9,0.7,1.6,1.5,1.6s1.5-0.7,1.5-1.6C264.6,392.7,263.9,392,263.1,392
					z"/>
				<path class="st0" d="M259.2,392c-0.9,0-1.5,0.7-1.5,1.6c0,0.9,0.7,1.6,1.5,1.6c0.9,0,1.5-0.7,1.5-1.6
					C260.8,392.7,260.1,392,259.2,392z"/>
				<path class="st0" d="M279.9,377.4c0.9,0,1.6-0.7,1.6-1.6s-0.7-1.6-1.6-1.6c-0.9,0-1.6,0.7-1.6,1.6
					C278.3,376.7,279,377.4,279.9,377.4z"/>
				<path class="st0" d="M288.1,384.3c0-1.8,1.2-2.9,2.9-2.9c1.3,0,2.4,0.5,2.4,0.5l0.5-2.4c0,0-1.3-0.4-2.9-0.4c-4.1,0-6,2.4-6,5.3
					c0,1.5,0.8,2.8,1.8,3.4h-3.2h-0.3h-1.9v-8.4h-3v8.4h-2.9h-0.3h-1.6v-3.6c0-3.2-1.3-5.1-5.3-5.1c-2.5,0-4.6,0.4-4.6,0.4v8.3H262
					c-4.3,0-5.7-1.5-5.7-4.8c0-1.2,0.3-2.7,0.8-3.8l-3.2,0.5c-0.3,0.9-0.6,2.4-0.6,3.6c0,4.2,2.2,6.8,8.4,6.8h4.8v-8.6
					c0,0,0.8-0.1,1.5-0.1c1.9,0,2.6,0.8,2.6,3v5.7h4.5h0.3h7.8h0.3h11.5v-2.4h-1.8C289.7,387.8,288.1,386.3,288.1,384.3z"/>
				<rect x="297.9" y="374.3" class="st0" width="3" height="15.8"/>
				<path class="st0" d="M299.3,370.4c0-0.5,0.4-0.8,1.1-0.8c0.5,0,1,0.1,1.1,0.1l0.3-1.6c-0.2,0-0.7-0.1-1.4-0.1
					c-2.4,0-3.2,1.2-3.2,2.4c0,0.3,0.2,0.8,0.4,0.9c-0.3-0.1-0.8-0.1-1.4-0.1v1.6h5.9v-1.6h-1.3
					C299.7,371.3,299.3,370.9,299.3,370.4z"/>
				<path class="st0" d="M355.3,387.8h-2.5h-0.4h-2v-13.8h-3v13.8H345h-0.4h-1.4v-0.1c0-6.7-3.3-9.5-9-9.5c-1.8,0-3.9,0.4-5.6,0.9
					l0.3,2.1c1.5-0.5,3.4-0.8,4.9-0.8c4.6,0,6.5,2.3,6.5,7.1v0.3H338v-0.6c0-2.7-1.2-4.7-4.2-4.7c-2.8,0-4.3,1.7-4.3,3.9
					c0,0.9,0.6,1.5,0.6,1.5s-0.4-0.1-1-0.1h-1.6H327h-1.6v-3.4c0-3.2-1.6-5.3-5.2-5.3c-3.3,0-5.3,1.8-5.8,4.3h-0.5
					c-3.7,0-4.9,2.3-4.3,5.5l1.2,7.3h2.9l-1.2-7.5c-0.3-2.2,0-2.9,1.4-2.9h0.5c0.3,2.8,2,4.5,6.1,4.5h6.6h0.3h17.3h0.4h7.5h0.4h5.5
					v-16.2h-3V387.8z M322.5,387.8h-1.7c-2.4,0-3.4-1.1-3.4-3.2c0-1.8,1-3.1,2.7-3.1c1.5,0,2.5,1,2.5,3.3V387.8z M335.5,387.8h-1.4
					c-1.2,0-2.2-0.6-2.2-1.8c0-0.9,0.6-1.7,1.7-1.7c1.3,0,2,1.2,2,2.8V387.8z"/>
				<rect x="362.3" y="373.9" class="st0" width="3" height="16.2"/>
				<polygon class="st0" points="368.6,379.8 370.9,379.8 371.2,374 368.3,374 				"/>
				<polygon class="st0" points="372.6,374 373,379.8 375.2,379.8 375.6,374 				"/>
			</g>
			<g>
				<circle class="st1" cx="384.5" cy="389.3" r="1"/>
				<path class="st1" d="M384.5,383.6c-0.5,0-1,0.4-1,1c0,0.6,0.4,1,1,1c0.5,0,1-0.4,1-1C385.5,384.1,385,383.6,384.5,383.6z"/>
				<path class="st1" d="M404.8,389h-2h-0.2h-1.4v-3c0-2.2-0.9-3.5-3.6-3.5c-1.5,0-2.9,0.3-2.9,0.3v6.2h-1.4c-3.3,0-4.3-1.2-4.3-3.7
					c0-0.9,0.2-2,0.6-2.8l-1.6,0.3c-0.3,0.6-0.5,1.7-0.5,2.7c0,3,1.6,4.7,5.6,4.7h3v-6.4c0,0,0.7-0.1,1.3-0.1c1.6,0,2.3,0.7,2.3,2.5
					v4h2.8h0.2h3.5v-11.3h-1.5V389z"/>
				<path class="st1" d="M424.6,389h-2.1h-0.2h-0.7c-0.9,0-1.6-0.3-2.3-0.8c1.3-1,1.9-2.2,1.9-3.3c0-1.3-0.9-2.5-3.1-2.5
					c-1.6,0-3.4,1-4.6,1.9l-0.1,1c1.6,0.5,2.7,1.7,3.8,2.8c-1.1,0.5-2.6,0.8-4.4,0.8h-0.3h-0.2h-1.5v-10.1h-1.5v11.3h3h0.2h0.2
					c2.2,0,4-0.5,5.4-1.2c0.9,0.7,1.9,1.2,3.2,1.2h0.9h0.2h3.6v-7.5h-1.5V389z M418.3,387.5c-1.1-1-2.1-2.1-3.5-2.7
					c0.7-0.5,2-1.3,3.1-1.3c1.2,0,1.8,0.7,1.8,1.6C419.7,385.9,419.2,386.8,418.3,387.5z"/>
				<path class="st1" d="M426.3,379.4c-0.5,0-0.9,0.4-0.9,0.8c0,0.5,0.4,0.9,0.9,0.9c0.5,0,0.8-0.4,0.8-0.9
					C427.1,379.8,426.8,379.4,426.3,379.4z"/>
				<path class="st1" d="M423.9,381.2c0.5,0,0.8-0.4,0.8-0.9c0-0.5-0.4-0.8-0.8-0.8c-0.5,0-0.8,0.4-0.8,0.8
					C423.1,380.8,423.4,381.2,423.9,381.2z"/>
				<path class="st1" d="M448.4,389h-2h-0.2h-1.5v-10.1h-1.5V389h-2h-0.2h-1.5v-6c0,0-1.5-0.6-3.2-0.6c-2.7,0-4,1.9-4,4
					c0,2.3,1.1,3.7,4.2,3.7h4.6h0.2h5h0.2h3.5v-11.3h-1.5V389z M437.9,389h-1.4c-2.1,0-2.9-0.9-2.9-2.7c0-1.6,0.9-2.6,2.4-2.6
					c1.2,0,1.9,0.4,1.9,0.4V389z"/>
				<rect x="452.9" y="378.9" class="st1" width="1.5" height="11.3"/>
				<path class="st1" d="M472.1,386.1c0-1.6,1-2.5,2.4-2.5c1,0,1.9,0.4,1.9,0.4l0.3-1.2c0,0-1-0.4-2.1-0.4c-2.7,0-4,1.7-4,3.7
					c0,1.3,0.8,2.4,1.7,2.8h-2.8h-0.2h-1.5v-6c0,0-1.5-0.6-3.2-0.6c-2.7,0-4,1.9-4,4c0,2.3,1.1,3.7,4.2,3.7h1.6v0.4
					c0,1.8-1.3,2.5-3.1,2.5c-1.2,0-2.6-0.3-2.6-0.3l-0.1,1.2c0,0,1.3,0.2,2.5,0.2c3.4,0,4.7-1.9,4.7-3.7v-0.3h1.5h0.2h8.2V389h-1.3
					C473.4,389,472.1,387.7,472.1,386.1z M466.3,389h-1.4c-2.1,0-2.9-0.9-2.9-2.7c0-1.6,0.9-2.6,2.4-2.6c1.2,0,1.9,0.4,1.9,0.4V389z
					"/>
				<path class="st1" d="M480.8,382.3l-0.4,1.2c2.8,0.9,4,2.5,4,5.4h-5.1v1.2h6.6v-0.8C485.9,385.3,484.2,383.4,480.8,382.3z"/>
				<rect x="488.4" y="379" class="st1" width="1.5" height="11.1"/>
				<path class="st1" d="M490.1,377c-0.9,0-1.2-0.3-1.2-0.7c0-0.4,0.3-0.7,0.9-0.7c0.3,0,0.6,0,0.8,0.1l0.1-0.9
					c-0.2,0-0.5-0.1-0.9-0.1c-1.5,0-2,0.8-2,1.6c0,0.3,0.1,0.6,0.4,0.8c-0.3,0-0.7-0.1-1.1-0.1v0.8h3.9V377H490.1z"/>
			</g>
			<g>
				<path class="st0" d="M219.8,422.7c-1,0-1.9,0.9-1.9,1.9c0,1,0.9,1.9,1.9,1.9c1,0,1.9-0.8,1.9-1.9
					C221.7,423.5,220.8,422.7,219.8,422.7z"/>
				<polygon class="st0" points="228.5,415.8 230.7,415.8 231.1,410 228.1,410 				"/>
				<polygon class="st0" points="224.2,415.8 226.4,415.8 226.7,410 223.8,410 				"/>
				<path class="st0" d="M244.9,415h-1.3c-1.2,0-1.6-0.4-1.6-0.9c0-0.5,0.4-0.8,1.1-0.8c0.5,0,1,0.1,1.1,0.1l0.3-1.7
					c-0.2,0-0.7-0.1-1.4-0.1c-2.4,0-3.3,1.3-3.3,2.6c0,0.3,0.2,0.8,0.4,0.9c-0.3-0.1-0.8-0.1-1.3-0.1v1.7h5.9V415z"/>
				<path class="st0" d="M254.2,413.6c0.9,0,1.5-0.7,1.5-1.6c0-0.9-0.7-1.6-1.5-1.6c-0.9,0-1.5,0.7-1.5,1.6
					C252.7,412.9,253.3,413.6,254.2,413.6z"/>
				<path class="st0" d="M255,423.8h-2.9h-0.4h-2v-13.8h-3v13.8H242c-4.3,0-5.7-1.5-5.7-4.8c0-1.2,0.3-2.7,0.8-3.8l-3.2,0.5
					c-0.3,0.9-0.6,2.4-0.6,3.6c0,4.2,2.2,6.8,8.4,6.8h10.1h0.4h5.9v-10.8h-3V423.8z"/>
				<path class="st0" d="M258,410.5c-0.9,0-1.5,0.7-1.5,1.6c0,0.9,0.7,1.6,1.5,1.6c0.9,0,1.5-0.7,1.5-1.6
					C259.5,411.2,258.9,410.5,258,410.5z"/>
				<path class="st0" d="M263,414.8l-0.7,2.5c3.6,0.9,5.3,3,5.4,6.4h-6.8v2.4h9.8v-1.5C270.6,418.9,267.9,416.1,263,414.8z"/>
				<path class="st0" d="M281.7,428c-0.9,0-1.6,0.7-1.6,1.6c0,0.9,0.7,1.6,1.6,1.6s1.6-0.7,1.6-1.6C283.3,428.7,282.6,428,281.7,428
					z"/>
				<path class="st0" d="M291.6,420.3c0-1.8,1.2-2.9,2.9-2.9c1.3,0,2.4,0.5,2.4,0.5l0.5-2.4c0,0-1.3-0.4-2.9-0.4c-4.1,0-6,2.4-6,5.3
					c0,1.5,0.8,2.8,1.8,3.4h-3.2h-0.3h-1.9v-8.4h-3v8.4H279h-0.3h-2v-13.8h-3v16.2h5h0.3h7.8h0.3h11.5v-2.4h-1.8
					C293.2,423.8,291.6,422.3,291.6,420.3z"/>
				<path class="st0" d="M312.2,418.2c0.9,0,1.6-0.7,1.6-1.6c0-0.9-0.7-1.6-1.6-1.6s-1.6,0.7-1.6,1.6
					C310.7,417.5,311.4,418.2,312.2,418.2z"/>
				<path class="st0" d="M346,415.2c-1,0-2,0.1-2.9,0.2v2.4c0.9-0.1,1.7-0.2,2.6-0.2c3.3,0,4.5,1.5,4.5,4.4c0,0.6,0,1.2-0.1,1.7
					h-8.6h-0.3h-1.9c0.1-1,0.1-2,0.1-3c0-2.3-0.3-4.5-0.7-6.4l-3,0.4c0.4,1.7,0.7,3.9,0.7,6.2c0,0.7-0.1,1.8-0.2,2.8h-0.8
					c-2,0-2.5-0.6-2.5-2.6v-5.4H330v5.5c0,1.7-0.4,2.6-1.7,2.6c-1.4,0-1.7-0.9-1.7-2.7v-4.6h-3v4.2c0,2.3-0.6,2.9-2.1,2.9H321h-0.3
					h-1.9v-8.4h-3v9.4c0,3.3-1.2,4.4-3.2,4.4c-1.6,0-3.3-0.9-3.3-4.4c0-1.4,0.2-2.9,0.6-4.4l-3.1,0.6c-0.4,1.3-0.6,2.8-0.6,4.1
					c0,4.6,2.4,6.5,6.1,6.5c3.8,0,5.9-1.8,6.4-5.3h2h0.3h0.4c1.7,0,2.6-0.6,3.1-1.7c0.4,1.2,1.6,1.9,3.3,1.9c1.4,0,2.8-0.6,3.3-1.9
					c0.5,1.2,1.7,1.7,3.7,1.7h6.4h0.3h11.3c0.3-1.7,0.4-3.1,0.4-4.3C353.2,417.5,351.2,415.2,346,415.2z"/>
				<path class="st0" d="M361.4,415c-4.2,0-6.1,2.8-6.1,5.8c0,3.3,1.7,5.3,6.2,5.3h1.8v0.3c0,2.2-1.6,3.1-4,3.1
					c-1.8,0-3.6-0.4-3.6-0.4l-0.2,2.5c0,0,1.8,0.3,3.5,0.3c5.2,0,7.2-2.6,7.2-5.8v-10.3C366.2,415.8,364.2,415,361.4,415z
					 M363.3,423.8h-1.5c-2.4,0-3.4-1.1-3.4-3.2c0-1.8,1-3.1,2.7-3.1c1.3,0,2.2,0.4,2.2,0.4V423.8z"/>
			</g>
		</g>
	</g>
	<g>
		<circle class="st2" cx="515.9" cy="309.7" r="12"/>
		<g>
			<g>
				<path class="st1" d="M514.2,316.3c-0.7,0-1.5-0.1-2.1-0.2l0.3-2.4c0.5,0.2,1.2,0.3,2,0.3c1.9,0,3-1,3-2.3c0-1.4-1.1-2.1-3.4-2.1
					c-0.5,0-0.9,0-1.3,0.1v-7.5h6.9v2.5l-4.4,0v2.8c3.3,0,5.1,1.5,5.1,4C520.1,314.4,517.7,316.3,514.2,316.3z"/>
			</g>
		</g>
	</g>
	<g>
		<circle class="st2" cx="515.9" cy="385" r="12"/>
		<g>
			<g>
				<path class="st1" d="M516,391.7c-3.5,0-4.9-2.8-4.9-6.1c0-5.6,3.2-8.3,7.2-8.3c0.7,0,1.2,0,1.6,0.1v2.4
					c-0.6-0.1-1.1-0.2-1.7-0.2c-2.1,0-3.6,1-4.2,3.4c-0.1,0.3-0.1,0.5-0.2,0.7l0,0c0.6-0.6,1.7-1.1,3-1.1c2.7,0,4.3,1.7,4.3,4.2
					C521.3,389.7,519.1,391.7,516,391.7z M516.3,384.7c-1.4,0-2.3,1-2.3,2.2c0,1.6,0.8,2.6,2.2,2.6c1.4,0,2.2-1,2.2-2.4
					C518.5,385.6,517.7,384.7,516.3,384.7z"/>
			</g>
		</g>
	</g>
</g>
<g id="Star_-_Orange">
</g>
</svg>
