<svg version="1.2" xmlns="http://www.w3.org/2000/svg" viewBox="0 0 1024 768" width="1400" height="1050">
	<title>bg-svg</title>
	<defs>
		<linearGradient id="g1" x2="1" gradientUnits="userSpaceOnUse" gradientTransform="matrix(-208.245,894.017,-1093.719,-254.762,389.385,134.277)">
			<stop offset="0" stop-color="#71d1dc"/>
			<stop offset=".403" stop-color="#ff8177"/>
			<stop offset=".758" stop-color="#fdb183"/>
		</linearGradient>
		<linearGradient id="g2" x2="1" gradientUnits="userSpaceOnUse" gradientTransform="matrix(0,-11.833,4.551,0,365.347,109.542)">
			<stop offset="0" stop-color="#455e66"/>
			<stop offset="1" stop-color="#043361"/>
		</linearGradient>
		<linearGradient id="g3" x2="1" gradientUnits="userSpaceOnUse" gradientTransform="matrix(0,-11.961,4.6,0,369.921,264.784)">
			<stop offset="0" stop-color="#455e66"/>
			<stop offset="1" stop-color="#043361"/>
		</linearGradient>
		<linearGradient id="g4" x2="1" gradientUnits="userSpaceOnUse" gradientTransform="matrix(0,-11.961,4.6,0,360.614,264.784)">
			<stop offset="0" stop-color="#455e66"/>
			<stop offset="1" stop-color="#043361"/>
		</linearGradient>
		<linearGradient id="g5" x2="1" gradientUnits="userSpaceOnUse" gradientTransform="matrix(52.306,0,0,11.201,328.859,240.023)">
			<stop offset="0" stop-color="#5e5e8c"/>
			<stop offset="1" stop-color="#293454"/>
		</linearGradient>
		<linearGradient id="g6" x2="1" gradientUnits="userSpaceOnUse" gradientTransform="matrix(13.881,0,0,2.796,348.069,69.945)">
			<stop offset="0" stop-color="#5e5e8c"/>
			<stop offset="1" stop-color="#293454"/>
		</linearGradient>
		<linearGradient id="g7" x2="1" gradientUnits="userSpaceOnUse" gradientTransform="matrix(0,-11.833,4.551,0,344.675,109.542)">
			<stop offset="0" stop-color="#455e66"/>
			<stop offset="1" stop-color="#043361"/>
		</linearGradient>
		<linearGradient id="g8" x2="1" gradientUnits="userSpaceOnUse" gradientTransform="matrix(0,-11.961,4.6,0,340.1,264.784)">
			<stop offset="0" stop-color="#455e66"/>
			<stop offset="1" stop-color="#043361"/>
		</linearGradient>
		<linearGradient id="g9" x2="1" gradientUnits="userSpaceOnUse" gradientTransform="matrix(0,-11.961,4.6,0,349.409,264.784)">
			<stop offset="0" stop-color="#455e66"/>
			<stop offset="1" stop-color="#043361"/>
		</linearGradient>
		<linearGradient id="g10" x2="1" gradientUnits="userSpaceOnUse" gradientTransform="matrix(0,-11.833,4.72,0,355.013,109.543)">
			<stop offset="0" stop-color="#455e66"/>
			<stop offset="1" stop-color="#043361"/>
		</linearGradient>
		<linearGradient id="g11" x2="1" gradientUnits="userSpaceOnUse" gradientTransform="matrix(38.124,-8.97,3.957,16.817,332.426,92.567)">
			<stop offset="0" stop-color="#5e5e8c"/>
			<stop offset="1" stop-color="#293454"/>
		</linearGradient>
		<linearGradient id="g12" x2="1" gradientUnits="userSpaceOnUse" gradientTransform="matrix(0,-11.833,4.481,0,85.801,109.542)">
			<stop offset="0" stop-color="#455e66"/>
			<stop offset="1" stop-color="#043361"/>
		</linearGradient>
		<linearGradient id="g13" x2="1" gradientUnits="userSpaceOnUse" gradientTransform="matrix(0,-11.961,4.6,0,90.371,264.784)">
			<stop offset="0" stop-color="#455e66"/>
			<stop offset="1" stop-color="#043361"/>
		</linearGradient>
		<linearGradient id="g14" x2="1" gradientUnits="userSpaceOnUse" gradientTransform="matrix(0,-11.961,4.6,0,81.065,264.784)">
			<stop offset="0" stop-color="#455e66"/>
			<stop offset="1" stop-color="#043361"/>
		</linearGradient>
		<linearGradient id="g15" x2="1" gradientUnits="userSpaceOnUse" gradientTransform="matrix(52.307,0,0,11.201,49.31,240.023)">
			<stop offset="0" stop-color="#5e5e8c"/>
			<stop offset="1" stop-color="#293454"/>
		</linearGradient>
		<linearGradient id="g16" x2="1" gradientUnits="userSpaceOnUse" gradientTransform="matrix(13.88,0,0,2.796,68.521,69.945)">
			<stop offset="0" stop-color="#5e5e8c"/>
			<stop offset="1" stop-color="#293454"/>
		</linearGradient>
		<linearGradient id="g17" x2="1" gradientUnits="userSpaceOnUse" gradientTransform="matrix(0,-11.833,4.551,0,65.123,109.542)">
			<stop offset="0" stop-color="#455e66"/>
			<stop offset="1" stop-color="#043361"/>
		</linearGradient>
		<linearGradient id="g18" x2="1" gradientUnits="userSpaceOnUse" gradientTransform="matrix(0,-11.961,4.6,0,60.552,264.784)">
			<stop offset="0" stop-color="#455e66"/>
			<stop offset="1" stop-color="#043361"/>
		</linearGradient>
		<linearGradient id="g19" x2="1" gradientUnits="userSpaceOnUse" gradientTransform="matrix(0,-11.961,4.6,0,69.862,264.784)">
			<stop offset="0" stop-color="#455e66"/>
			<stop offset="1" stop-color="#043361"/>
		</linearGradient>
		<linearGradient id="g20" x2="1" gradientUnits="userSpaceOnUse" gradientTransform="matrix(0,-11.833,4.719,0,75.46,109.543)">
			<stop offset="0" stop-color="#455e66"/>
			<stop offset="1" stop-color="#043361"/>
		</linearGradient>
		<linearGradient id="g21" x2="1" gradientUnits="userSpaceOnUse" gradientTransform="matrix(38.121,-8.97,3.957,16.816,52.877,92.566)">
			<stop offset="0" stop-color="#5e5e8c"/>
			<stop offset="1" stop-color="#293454"/>
		</linearGradient>
		<linearGradient id="g22" x2="1" gradientUnits="userSpaceOnUse" gradientTransform="matrix(-429.46,-170.063,69.144,-174.61,586.064,511.432)">
			<stop offset="0" stop-color="#fce37d"/>
			<stop offset=".467" stop-color="#fcbf39"/>
			<stop offset="1" stop-color="#f9a928"/>
		</linearGradient>
		<linearGradient id="g23" x2="1" gradientUnits="userSpaceOnUse" gradientTransform="matrix(0,-34.979,13.844,0,19.87,417.349)">
			<stop offset="0" stop-color="#1f474f"/>
			<stop offset="1" stop-color="#042947"/>
		</linearGradient>
		<linearGradient id="g24" x2="1" gradientUnits="userSpaceOnUse" gradientTransform="matrix(0,-34.979,13.844,0,56.156,417.349)">
			<stop offset="0" stop-color="#1f474f"/>
			<stop offset="1" stop-color="#042947"/>
		</linearGradient>
		<linearGradient id="g25" x2="1" gradientUnits="userSpaceOnUse" gradientTransform="matrix(0,-34.979,13.844,0,92.445,417.349)">
			<stop offset="0" stop-color="#1f474f"/>
			<stop offset="1" stop-color="#042947"/>
		</linearGradient>
		<linearGradient id="g26" x2="1" gradientUnits="userSpaceOnUse" gradientTransform="matrix(0,-34.979,13.844,0,316.619,417.349)">
			<stop offset="0" stop-color="#1f474f"/>
			<stop offset="1" stop-color="#042947"/>
		</linearGradient>
		<linearGradient id="g27" x2="1" gradientUnits="userSpaceOnUse" gradientTransform="matrix(0,-34.979,13.844,0,349.28,417.349)">
			<stop offset="0" stop-color="#1f474f"/>
			<stop offset="1" stop-color="#042947"/>
		</linearGradient>
		<linearGradient id="g28" x2="1" gradientUnits="userSpaceOnUse" gradientTransform="matrix(0,-34.979,13.844,0,381.937,417.349)">
			<stop offset="0" stop-color="#1f474f"/>
			<stop offset="1" stop-color="#042947"/>
		</linearGradient>
		<linearGradient id="g29" x2="1" gradientUnits="userSpaceOnUse" gradientTransform="matrix(0,-34.979,13.844,0,414.598,417.349)">
			<stop offset="0" stop-color="#1f474f"/>
			<stop offset="1" stop-color="#042947"/>
		</linearGradient>
		<linearGradient id="g30" x2="1" gradientUnits="userSpaceOnUse" gradientTransform="matrix(0,-34.979,13.844,0,447.255,417.349)">
			<stop offset="0" stop-color="#1f474f"/>
			<stop offset="1" stop-color="#042947"/>
		</linearGradient>
		<linearGradient id="g31" x2="1" gradientUnits="userSpaceOnUse" gradientTransform="matrix(0,-34.979,13.844,0,479.915,417.349)">
			<stop offset="0" stop-color="#1f474f"/>
			<stop offset="1" stop-color="#042947"/>
		</linearGradient>
		<linearGradient id="g32" x2="1" gradientUnits="userSpaceOnUse" gradientTransform="matrix(0,-34.979,13.844,0,512.572,417.349)">
			<stop offset="0" stop-color="#1f474f"/>
			<stop offset="1" stop-color="#042947"/>
		</linearGradient>
		<linearGradient id="g33" x2="1" gradientUnits="userSpaceOnUse" gradientTransform="matrix(0,-34.979,13.844,0,545.232,417.349)">
			<stop offset="0" stop-color="#1f474f"/>
			<stop offset="1" stop-color="#042947"/>
		</linearGradient>
		<linearGradient id="g34" x2="1" gradientUnits="userSpaceOnUse" gradientTransform="matrix(0,-34.979,13.844,0,577.893,417.349)">
			<stop offset="0" stop-color="#1f474f"/>
			<stop offset="1" stop-color="#042947"/>
		</linearGradient>
		<linearGradient id="g35" x2="1" gradientUnits="userSpaceOnUse" gradientTransform="matrix(0,-34.979,13.926,0,610.552,417.349)">
			<stop offset="0" stop-color="#1f474f"/>
			<stop offset="1" stop-color="#042947"/>
		</linearGradient>
		<linearGradient id="g36" x2="1" gradientUnits="userSpaceOnUse" gradientTransform="matrix(0,-34.982,19.01,0,643.209,417.349)">
			<stop offset="0" stop-color="#1f474f"/>
			<stop offset="1" stop-color="#042947"/>
		</linearGradient>
		<linearGradient id="g37" x2="1" gradientUnits="userSpaceOnUse" gradientTransform="matrix(0,-47.161,716.287,0,330.33,415.345)">
			<stop offset="0" stop-color="#455e66"/>
			<stop offset="1" stop-color="#043361"/>
		</linearGradient>
		<linearGradient id="g38" x2="1" gradientUnits="userSpaceOnUse" gradientTransform="matrix(719.466,0,0,88.294,.118,465.65)">
			<stop offset="0" stop-color="#fce37d"/>
			<stop offset=".467" stop-color="#fcbf39"/>
			<stop offset="1" stop-color="#f9a928"/>
		</linearGradient>
		<linearGradient id="g39" x2="1" gradientUnits="userSpaceOnUse" gradientTransform="matrix(0,-62.185,24.72,0,29.001,509.788)">
			<stop offset="0" stop-color="#1f474f"/>
			<stop offset="1" stop-color="#042947"/>
		</linearGradient>
		<linearGradient id="g40" x2="1" gradientUnits="userSpaceOnUse" gradientTransform="matrix(0,-62.185,24.72,0,88.135,509.788)">
			<stop offset="0" stop-color="#1f474f"/>
			<stop offset="1" stop-color="#042947"/>
		</linearGradient>
		<linearGradient id="g41" x2="1" gradientUnits="userSpaceOnUse" gradientTransform="matrix(0,-62.185,24.72,0,329.248,509.788)">
			<stop offset="0" stop-color="#1f474f"/>
			<stop offset="1" stop-color="#042947"/>
		</linearGradient>
		<linearGradient id="g42" x2="1" gradientUnits="userSpaceOnUse" gradientTransform="matrix(0,-62.185,24.72,0,388.919,509.788)">
			<stop offset="0" stop-color="#1f474f"/>
			<stop offset="1" stop-color="#042947"/>
		</linearGradient>
		<linearGradient id="g43" x2="1" gradientUnits="userSpaceOnUse" gradientTransform="matrix(0,-62.185,24.634,0,448.592,509.788)">
			<stop offset="0" stop-color="#1f474f"/>
			<stop offset="1" stop-color="#042947"/>
		</linearGradient>
		<linearGradient id="g44" x2="1" gradientUnits="userSpaceOnUse" gradientTransform="matrix(0,-62.185,24.72,0,508.269,509.788)">
			<stop offset="0" stop-color="#1f474f"/>
			<stop offset="1" stop-color="#042947"/>
		</linearGradient>
		<linearGradient id="g45" x2="1" gradientUnits="userSpaceOnUse" gradientTransform="matrix(0,-62.185,24.72,0,567.936,509.788)">
			<stop offset="0" stop-color="#1f474f"/>
			<stop offset="1" stop-color="#042947"/>
		</linearGradient>
		<linearGradient id="g46" x2="1" gradientUnits="userSpaceOnUse" gradientTransform="matrix(0,-62.185,24.72,0,627.614,509.788)">
			<stop offset="0" stop-color="#1f474f"/>
			<stop offset="1" stop-color="#042947"/>
		</linearGradient>
		<linearGradient id="g47" x2="1" gradientUnits="userSpaceOnUse" gradientTransform="matrix(0,-62.185,24.72,0,687.284,509.788)">
			<stop offset="0" stop-color="#1f474f"/>
			<stop offset="1" stop-color="#042947"/>
		</linearGradient>
		<linearGradient id="g48" x2="1" gradientUnits="userSpaceOnUse" gradientTransform="matrix(0,-61.028,583.268,0,355.724,509.788)">
			<stop offset="0" stop-color="#455e66"/>
			<stop offset="1" stop-color="#043361"/>
		</linearGradient>
		<linearGradient id="g49" x2="1" gradientUnits="userSpaceOnUse" gradientTransform="matrix(52.305,0,0,148.815,89.863,437.922)">
			<stop offset="0" stop-color="#5e5e8c"/>
			<stop offset="1" stop-color="#293454"/>
		</linearGradient>
		<linearGradient id="g50" x2="1" gradientUnits="userSpaceOnUse" gradientTransform="matrix(0,-248.731,182.847,0,229.939,527.572)">
			<stop offset="0" stop-color="#5e5e8c"/>
			<stop offset="1" stop-color="#293454"/>
		</linearGradient>
		<linearGradient id="g51" x2="1" gradientUnits="userSpaceOnUse" gradientTransform="matrix(0,235.4,-71.188,0,138.818,316.597)">
			<stop offset="0" stop-color="#5e5e8c"/>
			<stop offset="1" stop-color="#293454"/>
		</linearGradient>
		<linearGradient id="g52" x2="1" gradientUnits="userSpaceOnUse" gradientTransform="matrix(136.2,0,0,19.8,162.282,365.74)">
			<stop offset="0" stop-color="#fce37d"/>
			<stop offset=".467" stop-color="#fcbf39"/>
			<stop offset="1" stop-color="#f9a928"/>
		</linearGradient>
		<linearGradient id="g53" x2="1" gradientUnits="userSpaceOnUse" gradientTransform="matrix(50.294,0,0,37.795,112.383,374.719)">
			<stop offset="0" stop-color="#fce37d"/>
			<stop offset=".467" stop-color="#fcbf39"/>
			<stop offset="1" stop-color="#f9a928"/>
		</linearGradient>
		<linearGradient id="g54" x2="1" gradientUnits="userSpaceOnUse" gradientTransform="matrix(49.741,0,0,33.86,113.549,393.15)">
			<stop offset="0" stop-color="#fce37d"/>
			<stop offset=".467" stop-color="#fcbf39"/>
			<stop offset="1" stop-color="#f9a928"/>
		</linearGradient>
		<linearGradient id="g55" x2="1" gradientUnits="userSpaceOnUse" gradientTransform="matrix(135.584,0,0,17.498,162.898,384.878)">
			<stop offset="0" stop-color="#fce37d"/>
			<stop offset=".467" stop-color="#fcbf39"/>
			<stop offset="1" stop-color="#f9a928"/>
		</linearGradient>
		<linearGradient id="g56" x2="1" gradientUnits="userSpaceOnUse" gradientTransform="matrix(0,-248.731,182.847,0,229.939,527.572)">
			<stop offset="0" stop-color="#5e5e8c"/>
			<stop offset="1" stop-color="#293454"/>
		</linearGradient>
		<linearGradient id="g57" x2="1" gradientUnits="userSpaceOnUse" gradientTransform="matrix(0,235.4,-71.314,0,138.818,316.597)">
			<stop offset="0" stop-color="#5e5e8c"/>
			<stop offset="1" stop-color="#293454"/>
		</linearGradient>
		<linearGradient id="g58" x2="1" gradientUnits="userSpaceOnUse" gradientTransform="matrix(-303.323,43.023,-12.052,-84.971,496.882,596.571)">
			<stop offset="0" stop-color="#c94776"/>
			<stop offset=".326" stop-color="#f76074"/>
			<stop offset=".663" stop-color="#ff8177"/>
			<stop offset="1" stop-color="#fdb183"/>
		</linearGradient>
	</defs>
	<style>
		.s0 { fill: url(#g1) } 
		.s1 { fill: #ffffff } 
		.s2 { opacity: .3;fill: #ffffff } 
		.s3 { fill: #fcbf39 } 
		.s4 { fill: #fdfadb } 
		.s5 { fill: url(#g2) } 
		.s6 { fill: url(#g3) } 
		.s7 { fill: url(#g4) } 
		.s8 { fill: url(#g5) } 
		.s9 { fill: #ebe8db } 
		.s10 { fill: #c9ccc9 } 
		.s11 { fill: url(#g6) } 
		.s12 { fill: url(#g7) } 
		.s13 { fill: url(#g8) } 
		.s14 { fill: url(#g9) } 
		.s15 { fill: url(#g10) } 
		.s16 { fill: url(#g11) } 
		.s17 { fill: url(#g12) } 
		.s18 { fill: url(#g13) } 
		.s19 { fill: url(#g14) } 
		.s20 { fill: url(#g15) } 
		.s21 { fill: url(#g16) } 
		.s22 { fill: url(#g17) } 
		.s23 { fill: url(#g18) } 
		.s24 { fill: url(#g19) } 
		.s25 { fill: url(#g20) } 
		.s26 { fill: url(#g21) } 
		.s27 { fill: url(#g22) } 
		.s28 { fill: url(#g23) } 
		.s29 { fill: url(#g24) } 
		.s30 { fill: url(#g25) } 
		.s31 { fill: url(#g26) } 
		.s32 { fill: url(#g27) } 
		.s33 { fill: url(#g28) } 
		.s34 { fill: url(#g29) } 
		.s35 { fill: url(#g30) } 
		.s36 { fill: url(#g31) } 
		.s37 { fill: url(#g32) } 
		.s38 { fill: url(#g33) } 
		.s39 { fill: url(#g34) } 
		.s40 { fill: url(#g35) } 
		.s41 { fill: url(#g36) } 
		.s42 { fill: url(#g37) } 
		.s43 { fill: url(#g38) } 
		.s44 { fill: url(#g39) } 
		.s45 { fill: url(#g40) } 
		.s46 { fill: url(#g41) } 
		.s47 { fill: url(#g42) } 
		.s48 { fill: url(#g43) } 
		.s49 { fill: url(#g44) } 
		.s50 { fill: url(#g45) } 
		.s51 { fill: url(#g46) } 
		.s52 { fill: url(#g47) } 
		.s53 { fill: url(#g48) } 
		.s54 { opacity: .3;fill: url(#g49) } 
		.s55 { fill: url(#g50) } 
		.s56 { fill: url(#g51) } 
		.s57 { fill: url(#g52) } 
		.s58 { fill: url(#g53) } 
		.s59 { fill: url(#g54) } 
		.s60 { fill: url(#g55) } 
		.s61 { opacity: .8;fill: #ffffff } 
		.s62 { opacity: .3;fill: url(#g56) } 
		.s63 { opacity: .3;fill: url(#g57) } 
		.s64 { opacity: .7;fill: url(#g58) } 
	</style>
	<g>
		<g>
			<g>
				<g>
					<path class="s0" d="m0 619.2c0 0 143.7 83.8 346.9 83.8 206.7 0 313.7-83.8 313.7-83.8 85.4-64.3 74.8-179.5-10-219.8-92-43.8-180-75.7-198.9-211.6-12.9-93.1-69.9-64.1-153.9-64.1-108.9 0-94.5-102.4-103.5-123.7h-194.3z"/>
					<g style="opacity: .3">
						<path class="s1" d="m141.9 157.6c0 0-0.7-7.3-8.8-4.7 0 0-1.1-5.1-5.5-3.3 0 0 1.9-5.6-3.7-8.5-5.6-2.9-9.2 2.8-9.2 2.8 0 0-2.9-4.4-7.8-1 0 0 0.1-3.9-3-5.4-3-1.4-5.9 0.3-7.5 2.7 0 0-3-9-12.4-9.9-8.2-0.8-13 3.9-15 6.4 1.4 3.4 3.1 6.6 5 9.6 3 4.6 7.1 9.6 10.8 15h90.7c0-0.1-16-11.9-33.6-3.7z"/>
						<path class="s1" d="m141.9 157.6c0 0-0.7-7.3-8.8-4.7 0 0-1.1-5.1-5.5-3.3 0 0 1.9-5.6-3.7-8.5-5.6-2.9-9.2 2.8-9.2 2.8 0 0-2.9-4.4-7.8-1 0 0 0.1-3.9-3-5.4-3-1.4-5.9 0.3-7.5 2.7 0 0-3-9-12.4-9.9-8.2-0.8-13 3.9-15 6.4 1.4 3.4 3.1 6.6 5 9.6 3 4.6 7.1 9.6 10.8 15h90.7c0-0.1-16-11.9-33.6-3.7z"/>
						<path class="s1" d="m141.9 157.6c0 0-0.7-7.3-8.8-4.7 0 0-1.1-5.1-5.5-3.3 0 0 1.9-5.6-3.7-8.5-5.6-2.9-9.2 2.8-9.2 2.8 0 0-2.9-4.4-7.8-1 0 0 0.1-3.9-3-5.4-3-1.4-5.9 0.3-7.5 2.7 0 0-3-9-12.4-9.9-8.2-0.8-13 3.9-15 6.4 1.4 3.4 3.1 6.6 5 9.6 3 4.6 7.1 9.6 10.8 15h90.7c0-0.1-16-11.9-33.6-3.7z"/>
						<path class="s1" d="m141.9 157.6c0 0-0.7-7.3-8.8-4.7 0 0-1.1-5.1-5.5-3.3 0 0 1.9-5.6-3.7-8.5-5.6-2.9-9.2 2.8-9.2 2.8 0 0-2.9-4.4-7.8-1 0 0 0.1-3.9-3-5.4-3-1.4-5.9 0.3-7.5 2.7 0 0-3-9-12.4-9.9-8.2-0.8-13 3.9-15 6.4 1.4 3.4 3.1 6.6 5 9.6 3 4.6 7.1 9.6 10.8 15h90.7c0-0.1-16-11.9-33.6-3.7z"/>
						<path class="s1" d="m141.9 157.6c0 0-0.7-7.3-8.8-4.7 0 0-1.1-5.1-5.5-3.3 0 0 1.9-5.6-3.7-8.5-5.6-2.9-9.2 2.8-9.2 2.8 0 0-2.9-4.4-7.8-1 0 0 0.1-3.9-3-5.4-3-1.4-5.9 0.3-7.5 2.7 0 0-3-9-12.4-9.9-8.2-0.8-13 3.9-15 6.4 1.4 3.4 3.1 6.6 5 9.6 3 4.6 7.1 9.6 10.8 15h90.7c0-0.1-16-11.9-33.6-3.7z"/>
						<path class="s1" d="m141.9 157.6c0 0-0.7-7.3-8.8-4.7 0 0-1.1-5.1-5.5-3.3 0 0 1.9-5.6-3.7-8.5-5.6-2.9-9.2 2.8-9.2 2.8 0 0-2.9-4.4-7.8-1 0 0 0.1-3.9-3-5.4-3-1.4-5.9 0.3-7.5 2.7 0 0-3-9-12.4-9.9-8.2-0.8-13 3.9-15 6.4 1.4 3.4 3.1 6.6 5 9.6 3 4.6 7.1 9.6 10.8 15h90.7c0-0.1-16-11.9-33.6-3.7z"/>
						<path class="s1" d="m141.9 157.6c0 0-0.7-7.3-8.8-4.7 0 0-1.1-5.1-5.5-3.3 0 0 1.9-5.6-3.7-8.5-5.6-2.9-9.2 2.8-9.2 2.8 0 0-2.9-4.4-7.8-1 0 0 0.1-3.9-3-5.4-3-1.4-5.9 0.3-7.5 2.7 0 0-3-9-12.4-9.9-8.2-0.8-13 3.9-15 6.4 1.4 3.4 3.1 6.6 5 9.6 3 4.6 7.1 9.6 10.8 15h90.7c0-0.1-16-11.9-33.6-3.7z"/>
						<path class="s1" d="m141.9 157.6c0 0-0.7-7.3-8.8-4.7 0 0-1.1-5.1-5.5-3.3 0 0 1.9-5.6-3.7-8.5-5.6-2.9-9.2 2.8-9.2 2.8 0 0-2.9-4.4-7.8-1 0 0 0.1-3.9-3-5.4-3-1.4-5.9 0.3-7.5 2.7 0 0-3-9-12.4-9.9-8.2-0.8-13 3.9-15 6.4 1.4 3.4 3.1 6.6 5 9.6 3 4.6 7.1 9.6 10.8 15h90.7c0-0.1-16-11.9-33.6-3.7z"/>
						<path class="s1" d="m141.9 157.6c0 0-0.7-7.3-8.8-4.7 0 0-1.1-5.1-5.5-3.3 0 0 1.9-5.6-3.7-8.5-5.6-2.9-9.2 2.8-9.2 2.8 0 0-2.9-4.4-7.8-1 0 0 0.1-3.9-3-5.4-3-1.4-5.9 0.3-7.5 2.7 0 0-3-9-12.4-9.9-8.2-0.8-13 3.9-15 6.4 1.4 3.4 3.1 6.6 5 9.6 3 4.6 7.1 9.6 10.8 15h90.7c0-0.1-16-11.9-33.6-3.7z"/>
						<path class="s1" d="m141.9 157.6c0 0-0.7-7.3-8.8-4.7 0 0-1.1-5.1-5.5-3.3 0 0 1.9-5.6-3.7-8.5-5.6-2.9-9.2 2.8-9.2 2.8 0 0-2.9-4.4-7.8-1 0 0 0.1-3.9-3-5.4-3-1.4-5.9 0.3-7.5 2.7 0 0-3-9-12.4-9.9-8.2-0.8-13 3.9-15 6.4 1.4 3.4 3.1 6.6 5 9.6 3 4.6 7.1 9.6 10.8 15h90.7c0-0.1-16-11.9-33.6-3.7z"/>
						<path class="s1" d="m141.9 157.6c0 0-0.7-7.3-8.8-4.7 0 0-1.1-5.1-5.5-3.3 0 0 1.9-5.6-3.7-8.5-5.6-2.9-9.2 2.8-9.2 2.8 0 0-2.9-4.4-7.8-1 0 0 0.1-3.9-3-5.4-3-1.4-5.9 0.3-7.5 2.7 0 0-3-9-12.4-9.9-8.2-0.8-13 3.9-15 6.4 1.4 3.4 3.1 6.6 5 9.6 3 4.6 7.1 9.6 10.8 15h90.7c0-0.1-16-11.9-33.6-3.7z"/>
						<path class="s1" d="m141.9 157.6c0 0-0.7-7.3-8.8-4.7 0 0-1.1-5.1-5.5-3.3 0 0 1.9-5.6-3.7-8.5-5.6-2.9-9.2 2.8-9.2 2.8 0 0-2.9-4.4-7.8-1 0 0 0.1-3.9-3-5.4-3-1.4-5.9 0.3-7.5 2.7 0 0-3-9-12.4-9.9-8.2-0.8-13 3.9-15 6.4 1.4 3.4 3.1 6.6 5 9.6 3 4.6 7.1 9.6 10.8 15h90.7c0-0.1-16-11.9-33.6-3.7z"/>
						<path class="s1" d="m141.9 157.6c0 0-0.7-7.3-8.8-4.7 0 0-1.1-5.1-5.5-3.3 0 0 1.9-5.6-3.7-8.5-5.6-2.9-9.2 2.8-9.2 2.8 0 0-2.9-4.4-7.8-1 0 0 0.1-3.9-3-5.4-3-1.4-5.9 0.3-7.5 2.7 0 0-3-9-12.4-9.9-8.2-0.8-13 3.9-15 6.4 1.4 3.4 3.1 6.6 5 9.6 3 4.6 7.1 9.6 10.8 15h90.7c0-0.1-16-11.9-33.6-3.7z"/>
						<path class="s1" d="m141.9 157.6c0 0-0.7-7.3-8.8-4.7 0 0-1.1-5.1-5.5-3.3 0 0 1.9-5.6-3.7-8.5-5.6-2.9-9.2 2.8-9.2 2.8 0 0-2.9-4.4-7.8-1 0 0 0.1-3.9-3-5.4-3-1.4-5.9 0.3-7.5 2.7 0 0-3-9-12.4-9.9-8.2-0.8-13 3.9-15 6.4 1.4 3.4 3.1 6.6 5 9.6 3 4.6 7.1 9.6 10.8 15h90.7c0-0.1-16-11.9-33.6-3.7z"/>
					</g>
					<path class="s2" d="m454.7 207.6c-1.2-6.4-2.2-12.9-3-19.8 0-0.3-0.1-0.5-0.1-0.8-2-1.5-4.8-2.7-8.7-2.4-7 0.7-9.3 7.4-9.3 7.4-1.2-1.8-3.4-3-5.6-2-2.3 1.1-2.2 4-2.2 4-3.7-2.5-5.8 0.8-5.8 0.8 0 0-2.7-4.3-6.9-2.1-4.2 2.2-2.8 6.4-2.8 6.4-3.3-1.3-4.1 2.5-4.1 2.5-6.1-2-6.6 3.5-6.6 3.5-13.2-6.2-25.1 2.7-25.1 2.7h78.5z"/>
					<path class="s2" d="m299.4 299.6c0 0-0.2-2.7-3.2-1.7 0 0-0.4-1.9-2-1.2 0 0 0.7-2-1.4-3.1-2-1-3.3 1-3.3 1 0 0-1.1-1.6-2.8-0.4 0 0 0-1.4-1.1-2-1.1-0.5-2.1 0.1-2.7 1 0 0-1.1-3.3-4.5-3.6-0.4 0-0.8 0-1.1 0-0.3 0-0.7 0-1.1 0-3.4 0.3-4.5 3.6-4.5 3.6-0.6-0.9-1.6-1.5-2.7-1-1.1 0.5-1.1 2-1.1 2-1.8-1.2-2.8 0.4-2.8 0.4 0 0-1.3-2.1-3.3-1-2 1.1-1.4 3.1-1.4 3.1-1.6-0.7-2 1.2-2 1.2-2.9-1-3.2 1.7-3.2 1.7-6.4-3-12.2 1.3-12.2 1.3h30.5 7.6 30.5c0 0-5.8-4.3-12.2-1.3z"/>
					<g>
						<g>
							<g>
								<path class="s3" d="m356.5 49.5v-26.7c0-0.9-0.7-1.5-1.5-1.5-0.8 0-1.5 0.7-1.5 1.5v26.7c0 0.9 0.7 1.5 1.5 1.5 0.8 0.1 1.5-0.6 1.5-1.5z"/>
							</g>
							<g>
								<path class="s4" d="m338.4 92h33.3v19.7h-33.3z"/>
								<path class="s5" d="m362.1 111.7h6.5c0 0 0-9.8 0-12.5 0-2.8-2.2-4.4-3.2-4.4-0.9 0-3.2 1.5-3.2 4.8 0 4-0.1 12.1-0.1 12.1z"/>
								<path class="s4" d="m333.6 245.6v20.6l21.4 0.9 21.4-0.9v-20.6z"/>
								<path class="s6" d="m366.7 265.9h6.5c0 0 0-9.8 0-12.5 0-2.8-2.2-4.4-3.2-4.4-0.9 0-3.2 1.5-3.2 4.8 0 4-0.1 12.1-0.1 12.1z"/>
								<path class="s7" d="m357.4 265.9h6.5c0 0 0-9.8 0-12.5 0-2.8-2.2-4.4-3.2-4.4-0.9 0-3.2 1.5-3.2 4.8 0 4-0.1 12.1-0.1 12.1z"/>
								<path class="s8" d="m366.8 234.4h-23.6l-14.3 9.2v2h52.3v-2z"/>
								<path class="s9" d="m343.2 123.7h23.7v110.7h-23.7z"/>
								<path class="s10" d="m335.2 111.7v2.7l8 9.3h23.6l8-9.3v-2.7z"/>
								<path class="s11" d="m348.1 68.5h13.9v2.8h-13.9z"/>
								<path class="s3" d="m355 47.5c-2.8 1.7-9.5 6-9.5 8.7v8c0 3.3 2.5 4.3 2.5 4.3h14c0 0 2.5-1.1 2.5-4.3v-8c0-2.6-6.7-7-9.5-8.7z"/>
								<path class="s12" d="m347.9 111.7h-6.5c0 0 0-9.8 0-12.5 0-2.8 2.2-4.4 3.2-4.4 0.9 0 3.2 1.5 3.2 4.8 0 4 0.1 12.1 0.1 12.1z"/>
								<path class="s13" d="m343.3 265.9h-6.5c0 0 0-9.8 0-12.5 0-2.8 2.2-4.4 3.2-4.4 0.9 0 3.2 1.5 3.2 4.8 0 4 0.1 12.1 0.1 12.1z"/>
								<path class="s14" d="m352.6 265.9h-6.5c0 0 0-9.8 0-12.5 0-2.8 2.2-4.4 3.2-4.4 0.9 0 3.2 1.5 3.2 4.8 0 4 0.1 12.1 0.1 12.1z"/>
								<path class="s15" d="m355 94.8c0 0-3.4 1.6-3.4 4.3 0 2.8 0 12.5 0 12.5h6.7c0 0 0-9.8 0-12.5 0.1-2.7-3.3-4.3-3.3-4.3z"/>
								<path class="s16" d="m366.4 79.9h-22.8l-11 9.5v2.6h44.9v-2.6z"/>
								<path class="s10" d="m365.4 71.3h-20.8c-2.3 0-3.2 1.4-3.2 4.2 0 2.8 2.1 4.3 2.1 4.3h22.9c0 0 2.2-1.5 2.2-4.3 0-2.7-0.9-4.2-3.2-4.2z"/>
								<path class="s9" d="m371 277.3h-31.9l-2 95.9h35.8z"/>
								<path class="s10" d="m331.2 266.2v2.6l7.9 8.5h31.9l7.8-8.5v-2.6z"/>
							</g>
						</g>
						<g>
							<g>
								<g>
									<path class="s1" d="m358.3 129.1v78.1c0 0.9 0.7 1.7 1.6 1.7 0.9 0 1.6-0.7 1.6-1.7v-78.1c0-0.9-0.7-1.7-1.6-1.7-0.9 0-1.6 0.8-1.6 1.7z"/>
								</g>
							</g>
							<g>
								<g>
									<path class="s1" d="m358.3 214.9v14.2c0 0.9 0.7 1.7 1.6 1.7 0.9 0 1.6-0.7 1.6-1.7v-14.2c0-0.9-0.7-1.7-1.6-1.7-0.9 0-1.6 0.8-1.6 1.7z"/>
								</g>
							</g>
							<g>
								<g>
									<path class="s1" d="m360.8 280.9l1.1 58.7c0 0.7 0.7 1.2 1.6 1.2 0.9 0 1.6-0.6 1.6-1.3l-1.1-58.7c0-0.7-0.7-1.2-1.6-1.2-0.9 0.1-1.6 0.6-1.6 1.3z"/>
								</g>
							</g>
							<g>
								<g>
									<path class="s1" d="m362 346.9l0.3 14.2c0 0.9 0.7 1.6 1.6 1.6 0.9 0 1.6-0.8 1.6-1.7l-0.3-14.2c0-0.9-0.7-1.7-1.6-1.6-0.9 0.1-1.6 0.8-1.6 1.7z"/>
								</g>
							</g>
						</g>
					</g>
					<g>
						<g>
							<g>
								<path class="s3" d="m77 49.5v-26.7c0-0.9-0.7-1.5-1.5-1.5-0.8 0-1.5 0.7-1.5 1.5v26.7c0 0.9 0.7 1.5 1.5 1.5 0.8 0.1 1.5-0.6 1.5-1.5z"/>
							</g>
							<g>
								<path class="s4" d="m58.8 92h33.3v19.7h-33.3z"/>
								<path class="s17" d="m82.6 111.7h6.4c0 0 0-9.8 0-12.5 0-2.8-2.2-4.4-3.2-4.4-0.9 0-3.2 1.5-3.2 4.8 0.1 4 0 12.1 0 12.1z"/>
								<path class="s4" d="m54 245.6v20.6l21.5 0.9 21.4-0.9v-20.6z"/>
								<path class="s18" d="m87.1 265.9h6.5c0 0 0-9.8 0-12.5 0-2.8-2.2-4.4-3.2-4.4-0.9 0-3.2 1.5-3.2 4.8 0.1 4-0.1 12.1-0.1 12.1z"/>
								<path class="s19" d="m77.8 265.9h6.5c0 0 0-9.8 0-12.5 0-2.8-2.2-4.4-3.2-4.4-0.9 0-3.2 1.5-3.2 4.8 0.1 4-0.1 12.1-0.1 12.1z"/>
								<path class="s20" d="m87.3 234.4h-23.7l-14.3 9.2v2h52.3v-2z"/>
								<path class="s9" d="m63.6 123.7h23.7v110.7h-23.7z"/>
								<path class="s10" d="m55.6 111.7v2.7l8 9.3h23.7l8-9.3v-2.7z"/>
								<path class="s21" d="m68.5 68.5h13.9v2.8h-13.9z"/>
								<path class="s3" d="m75.5 47.5c-2.8 1.7-9.5 6-9.5 8.7v8c0 3.3 2.5 4.3 2.5 4.3h13.9c0 0 2.5-1.1 2.5-4.3v-8c0-2.6-6.7-7-9.4-8.7z"/>
								<path class="s22" d="m68.4 111.7h-6.5c0 0 0-9.8 0-12.5 0-2.8 2.2-4.4 3.2-4.4 0.9 0 3.2 1.5 3.2 4.8-0.1 4 0.1 12.1 0.1 12.1z"/>
								<path class="s23" d="m63.8 265.9h-6.5c0 0 0-9.8 0-12.5 0-2.8 2.2-4.4 3.2-4.4 0.9 0 3.2 1.5 3.2 4.8 0 4 0.1 12.1 0.1 12.1z"/>
								<path class="s24" d="m73.1 265.9h-6.5c0 0 0-9.8 0-12.5 0-2.8 2.2-4.4 3.2-4.4 0.9 0 3.2 1.5 3.2 4.8 0 4 0.1 12.1 0.1 12.1z"/>
								<path class="s25" d="m75.5 94.8c0 0-3.4 1.6-3.4 4.3 0 2.8 0 12.5 0 12.5h6.7c0 0 0-9.8 0-12.5 0-2.7-3.3-4.3-3.3-4.3z"/>
								<path class="s26" d="m86.9 79.9h-22.9l-11 9.5v2.6h44.9v-2.6z"/>
								<path class="s10" d="m85.9 71.3h-20.8c-2.3 0-3.2 1.4-3.2 4.2 0 2.8 2.1 4.3 2.1 4.3h22.9c0 0 2.1-1.5 2.1-4.3 0-2.7-0.8-4.2-3.1-4.2z"/>
								<path class="s9" d="m91.4 277.3h-31.9l-2 95.9h35.9z"/>
								<path class="s10" d="m51.7 266.2v2.6l7.8 8.5h31.9l7.8-8.5v-2.6z"/>
							</g>
						</g>
						<g>
							<g>
								<g>
									<path class="s1" d="m78.7 129.1v78.1c0 0.9 0.7 1.7 1.6 1.7 0.9 0 1.6-0.7 1.6-1.7v-78.1c0-0.9-0.7-1.7-1.6-1.7-0.8 0-1.6 0.8-1.6 1.7z"/>
								</g>
							</g>
							<g>
								<g>
									<path class="s1" d="m78.7 214.9v14.2c0 0.9 0.7 1.7 1.6 1.7 0.9 0 1.6-0.7 1.6-1.7v-14.2c0-0.9-0.7-1.7-1.6-1.7-0.8 0-1.6 0.8-1.6 1.7z"/>
								</g>
							</g>
							<g>
								<g>
									<path class="s1" d="m81.3 280.9l1.1 58.7c0 0.7 0.7 1.2 1.6 1.2 0.9 0 1.6-0.6 1.6-1.3l-1.1-58.7c0-0.7-0.7-1.2-1.6-1.2-0.9 0.1-1.6 0.6-1.6 1.3z"/>
								</g>
							</g>
							<g>
								<g>
									<path class="s1" d="m82.5 346.9l0.3 14.2c0 0.9 0.7 1.6 1.6 1.6 0.9 0 1.6-0.8 1.6-1.7l-0.3-14.2c0-0.9-0.7-1.7-1.6-1.6-0.9 0.1-1.6 0.8-1.6 1.7z"/>
								</g>
							</g>
						</g>
					</g>
					<path class="s27" d="m0.1 423.4h684.8c-9.6-9.5-21-17.7-34.3-24-25.4-12.1-50.7-23.2-74.3-35.9h-576.2z"/>
					<g>
						<path class="s28" d="m19.9 380.4c0 0-8.5 4-8.5 11 0 7 0 31.7 0 31.7h16.9c0 0 0-24.7 0-31.7 0-7-8.4-11-8.4-11z"/>
						<g>
							<path class="s29" d="m56.2 380.4c0 0-8.5 4-8.5 11 0 7 0 31.7 0 31.7h16.9c0 0 0-24.7 0-31.7 0-7-8.4-11-8.4-11z"/>
							<path class="s30" d="m92.4 380.4c0 0-8.5 4-8.5 11 0 7 0 31.7 0 31.7h16.9c0 0 0-24.7 0-31.7 0.1-7-8.4-11-8.4-11z"/>
							<path class="s31" d="m316.6 380.4c0 0-8.5 4-8.5 11 0 7 0 31.7 0 31.7h16.9c0 0 0-24.7 0-31.7 0.1-7-8.4-11-8.4-11z"/>
							<path class="s32" d="m349.3 380.4c0 0-8.5 4-8.5 11 0 7 0 31.7 0 31.7h16.9c0 0 0-24.7 0-31.7 0.1-7-8.4-11-8.4-11z"/>
							<path class="s33" d="m381.9 380.4c0 0-8.5 4-8.5 11 0 7 0 31.7 0 31.7h16.9c0 0 0-24.7 0-31.7 0.1-7-8.4-11-8.4-11z"/>
							<path class="s34" d="m414.6 380.4c0 0-8.5 4-8.5 11 0 7 0 31.7 0 31.7h16.9c0 0 0-24.7 0-31.7 0.1-7-8.4-11-8.4-11z"/>
							<path class="s35" d="m447.3 380.4c0 0-8.5 4-8.5 11 0 7 0 31.7 0 31.7h16.9c0 0 0-24.7 0-31.7 0-7-8.4-11-8.4-11z"/>
							<path class="s36" d="m479.9 380.4c0 0-8.5 4-8.5 11 0 7 0 31.7 0 31.7h16.9c0 0 0-24.7 0-31.7 0.1-7-8.4-11-8.4-11z"/>
							<path class="s37" d="m512.6 380.4c0 0-8.5 4-8.5 11 0 7 0 31.7 0 31.7h16.9c0 0 0-24.7 0-31.7 0-7-8.4-11-8.4-11z"/>
							<path class="s38" d="m545.2 380.4c0 0-8.5 4-8.5 11 0 7 0 31.7 0 31.7h16.9c0 0 0-24.7 0-31.7 0.1-7-8.4-11-8.4-11z"/>
							<path class="s39" d="m577.9 380.4c0 0-8.5 4-8.5 11 0 7 0 31.7 0 31.7h16.9c0 0 0-24.7 0-31.7 0.1-7-8.4-11-8.4-11z"/>
							<path class="s40" d="m610.5 380.4c0 0-8.5 4-8.5 11 0 7 0 31.7 0 31.7h17c0 0 0-24.7 0-31.7 0-7-8.5-11-8.5-11z"/>
							<path class="s41" d="m650.6 399.4c-5.3-2.5-10.6-5-15.8-7.5 0 7.6 0 31.1 0 31.1h16.9c0 0 0-13.3 0-23.1-0.4-0.1-0.7-0.3-1.1-0.5z"/>
						</g>
					</g>
					<path class="s42" d="m380.7 381.1c-2.3 1.4-7.3 5-7.3 10.3 0 7 0 31.7 0 31.7h14.6c0 0 0-24.7 0-31.7 0-5.3-4.9-8.9-7.3-10.3zm-32.6 0c-2.3 1.4-7.3 5-7.3 10.3 0 7 0 31.7 0 31.7h14.5c0 0 0-24.7 0-31.7 0-5.3-4.9-8.9-7.2-10.3zm65.3 0c-2.3 1.4-7.3 5-7.3 10.3 0 7 0 31.7 0 31.7h14.5c0 0 0-24.7 0-31.7 0.1-5.3-4.9-8.9-7.2-10.3zm-98 0c-2.3 1.4-7.3 5-7.3 10.3 0 7 0 31.7 0 31.7h14.5c0 0 0-24.7 0-31.7 0.1-5.3-4.9-8.9-7.2-10.3zm-260.5 0c-2.3 1.4-7.3 5-7.3 10.3 0 7 0 31.7 0 31.7h14.5c0 0 0-24.7 0-31.7 0.1-5.3-4.8-8.9-7.2-10.3zm36.3 0c-2.3 1.4-7.3 5-7.3 10.3 0 7 0 31.7 0 31.7h14.5c0 0 0-24.7 0-31.7 0.1-5.3-4.8-8.9-7.2-10.3zm-72.5 0c-2.3 1.4-7.3 5-7.3 10.3 0 7 0 31.7 0 31.7h14.5c0 0 0-24.7 0-31.7 0-5.3-4.9-8.9-7.2-10.3zm558 0c-2.3 1.4-7.3 5-7.3 10.3 0 7 0 31.7 0 31.7h14.5c0 0 0-24.7 0-31.7 0-5.3-4.9-8.9-7.2-10.3zm32.6 0c-2.3 1.4-7.3 5-7.3 10.3 0 7 0 31.7 0 31.7h14.5c0 0 0-24.7 0-31.7 0.1-5.3-4.8-8.9-7.2-10.3zm38.9 18.3c-4.5-2.1-9-4.2-13.4-6.3 0 8.5 0 30 0 30h14.5c0 0 0-13.3 0-23.1-0.4-0.2-0.8-0.4-1.1-0.6zm-104.2-18.3c-2.3 1.4-7.3 5-7.3 10.3 0 7 0 31.7 0 31.7h14.5c0 0 0-24.7 0-31.7 0.1-5.3-4.8-8.9-7.2-10.3zm-98 0c-2.3 1.4-7.3 5-7.3 10.3 0 7 0 31.7 0 31.7h14.5c0 0 0-24.7 0-31.7 0.1-5.3-4.8-8.9-7.2-10.3zm32.7 0c-2.3 1.4-7.3 5-7.3 10.3 0 7 0 31.7 0 31.7h14.6c0 0 0-24.7 0-31.7 0-5.3-5-8.9-7.3-10.3zm32.7 0c-2.3 1.4-7.3 5-7.3 10.3 0 7 0 31.7 0 31.7h14.5c0 0 0-24.7 0-31.7 0-5.3-4.9-8.9-7.2-10.3z"/>
					<path class="s43" d="m0.1 509.8h719.5c0.5-33.1-12.2-65-36.7-88.3h-682.8z"/>
					<path class="s1" d="m0 422.3h683.7c-0.6-0.6-1.2-1.1-1.8-1.7h-681.9z"/>
					<g>
						<path class="s44" d="m29 437c0 0-14.4 6.8-14.4 18.7 0 11.9 0 54 0 54h28.9c0 0 0-42.1 0-54-0.1-11.9-14.5-18.7-14.5-18.7z"/>
						<path class="s45" d="m88.1 437c0 0-14.4 6.8-14.4 18.7 0 11.9 0 54 0 54h28.9c0 0 0-42.1 0-54 0-11.9-14.5-18.7-14.5-18.7z"/>
						<path class="s46" d="m329.2 437c0 0-14.4 6.8-14.4 18.7 0 11.9 0 54 0 54h28.9c0 0 0-42.1 0-54 0-11.9-14.5-18.7-14.5-18.7z"/>
						<path class="s47" d="m388.9 437c0 0-14.4 6.8-14.4 18.7 0 11.9 0 54 0 54h28.9c0 0 0-42.1 0-54 0-11.9-14.5-18.7-14.5-18.7z"/>
						<path class="s48" d="m448.6 437c0 0-14.4 6.8-14.4 18.7 0 11.9 0 54 0 54h28.8c0 0 0-42.1 0-54 0-11.9-14.4-18.7-14.4-18.7z"/>
						<path class="s49" d="m508.3 437c0 0-14.4 6.8-14.4 18.7 0 11.9 0 54 0 54h28.9c0 0 0-42.1 0-54-0.1-11.9-14.5-18.7-14.5-18.7z"/>
						<path class="s50" d="m567.9 437c0 0-14.4 6.8-14.4 18.7 0 11.9 0 54 0 54h28.9c0 0 0-42.1 0-54 0-11.9-14.5-18.7-14.5-18.7z"/>
						<path class="s51" d="m627.6 437c0 0-14.4 6.8-14.4 18.7 0 11.9 0 54 0 54h28.9c0 0 0-42.1 0-54 0-11.9-14.5-18.7-14.5-18.7z"/>
						<path class="s52" d="m687.3 437c0 0-14.4 6.8-14.4 18.7 0 11.9 0 54 0 54h28.9c0 0 0-42.1 0-54-0.1-11.9-14.5-18.7-14.5-18.7z"/>
					</g>
					<path class="s53" d="m326.8 438.4c-4.1 2.5-12 8.5-12 17.4 0 11.9 0 54 0 54h24.1c0 0 0-42.1 0-54 0-8.9-8-14.9-12.1-17.4zm-241.1 0c-4.1 2.5-12 8.5-12 17.4 0 11.9 0 54 0 54h24.1c0 0 0-42.1 0-54-0.1-8.9-8-14.9-12.1-17.4zm300.8 0c-4.1 2.5-12 8.5-12 17.4 0 11.9 0 54 0 54h24.1c0 0 0-42.1 0-54-0.1-8.9-8-14.9-12.1-17.4zm-359.9 0c-4.1 2.5-12 8.5-12 17.4 0 11.9 0 54 0 54h24.1c0 0 0-42.1 0-54-0.1-8.9-8-14.9-12.1-17.4zm538.9 0c-4.1 2.5-12 8.5-12 17.4 0 11.9 0 54 0 54h24.1c0 0 0-42.1 0-54-0.1-8.9-8-14.9-12.1-17.4zm59.7 0c-4.1 2.5-12 8.5-12 17.4 0 11.9 0 54 0 54h24.1c0 0 0-42.1 0-54-0.1-8.9-8-14.9-12.1-17.4zm-179 0c-4.1 2.5-12 8.5-12 17.4 0 11.9 0 54 0 54h24.1c0 0 0-42.1 0-54-0.1-8.9-8-14.9-12.1-17.4zm238.7 0c-4.1 2.5-12 8.5-12 17.4 0 11.9 0 54 0 54h24.1c0 0 0-42.1 0-54-0.1-8.9-8-14.9-12.1-17.4zm-179.1 0c-4.1 2.5-12 8.5-12 17.4 0 11.9 0 54 0 54h24.1c0 0 0-42.1 0-54 0-8.9-7.9-14.9-12.1-17.4z"/>
					<path class="s54" d="m111.1 363.5h-21.2l23.5 148.8h28.8z"/>
					<g>
						<path class="s55" d="m161.4 326.6l137.1 9.1v177.4h-131.5z"/>
						<path class="s56" d="m161.4 326.6l-50.8 29.1 10.5 157.4h45.9z"/>
						<path class="s57" d="m162.7 368.8l135.8 6.8v-10.7l-136.2-9.1z"/>
						<path class="s58" d="m113.1 393.6l49.6-24.8-0.4-13-49.9 26.7z"/>
						<path class="s1" d="m298.5 471.4l-132.8-2 0.8 26.6h132z"/>
						<path class="s10" d="m165.7 469.4l-46.9 9.9 1.4 20.2 46.3-3.5z"/>
						<path class="s59" d="m162.9 376.2l-10.9 5.3v12.5l11.3-4.8zm-34.4 27.8l10.7-4.6v-11.8l-10.7 5.2zm-14.3 6.1l6.4-2.8v-10.7l-7.1 3.4z"/>
						<path class="s60" d="m288 382.4v10.9l10.5 0.4v-10.7zm-83.9 8l28.2 1v-11.8l-28.2-1.4zm43.6 1.5l25 0.8v-11.1l-25-1.3zm-84.4-2.8l25.5 0.9v-12.5l-25.9-1.3z"/>
						<g style="opacity: .4">
							<path class="s61" d="m167.9 513.1l-5.7-186.6-1.6 0.1 5.6 186.5z"/>
						</g>
					</g>
					<path class="s62" d="m161.4 326.6l5.6 186.5h1.3c4.6-16.6 44-149.8 130.2-133.2v-44.2z"/>
					<path class="s63" d="m161.4 326.6l-50.8 29.1 2.7 40.2c42.3-7.4 51.2 102.9 52.2 117.2h1.6z"/>
				</g>
				<path class="s64" d="m498.5 623c-198.4-33.3-336.5-89.7-401.3-58.2-64.8 31.6-27.7 58.2 11 79.9 12.9 7.2 22.5 17.6 27.5 28.5 57 16.2 129.3 29.8 211.1 29.8 206.7 0 313.7-83.8 313.7-83.8 27.6-20.8 45.1-46.8 53.4-74-16.3 35.6-67.3 102.7-215.4 77.8z"/>
			</g>
		</g>
	</g>
</svg>