<?xml version="1.0" encoding="utf-8"?>
<!-- Generator: Adobe Illustrator 21.1.0, SVG Export Plug-In . SVG Version: 6.00 Build 0)  -->
<svg version="1.1" id="Layer_1" xmlns="http://www.w3.org/2000/svg" xmlns:xlink="http://www.w3.org/1999/xlink" x="0px" y="0px"
	 viewBox="0 0 383.9 486.7" style="enable-background:new 0 0 383.9 486.7;" xml:space="preserve">
<style type="text/css">
	.st0{fill:#FCD62F;}
	.st1{fill:#CF5657;}
	.st2{opacity:0.5;fill:#AC3734;}
	.st3{fill:#A64A30;}
	.st4{fill:#FFDEAB;}
	.st5{fill:#63ADDF;}
	.st6{fill:#59B747;}
	.st7{fill:#F9EE62;}
	.st8{fill:#FFFFFF;}
	.st9{fill:#461B12;}
	.st10{fill:#231F20;}
	.st11{fill:#F2DA4A;}
	.st12{fill:#8E3D21;}
	.st13{fill:none;stroke:#8E3D21;stroke-miterlimit:10;}
	.st14{fill:#8E3C21;}
	.st15{fill:#449D46;}
	.st16{fill:#F7E44F;}
	.st17{fill:#F0C08B;}
	.st18{fill:#4D95C4;}
	.st19{fill:#EEEDED;}
	.st20{fill:#FBC599;}
	.st21{fill:#6B5127;}
	.st22{fill:#9E8B35;}
	.st23{fill:#425E35;}
	.st24{fill:#074E7A;}
	.st25{fill:#ADAAAA;}
</style>
<g>
	<g>
		<g>
			<g>
				<g id="XMLID_13_">
					<g>
						<polygon class="st0" points="372.3,361 368,365.3 351.2,360.6 						"/>
						<path class="st0" d="M367.5,365.8c0.3,0-5.3,5.1-5.3,5.1l-9.4-3C352.8,367.9,367.1,365.8,367.5,365.8z"/>
						<path class="st0" d="M361.6,371.2c0.3-0.1-5.2,5.5-5.2,5.5l-11-3.3C345.4,373.4,361.3,371.3,361.6,371.2z"/>
						<polygon class="st0" points="355.4,377.2 349,383.9 348.1,383.5 337.3,379.7 						"/>
						<polygon class="st0" points="347.7,384.5 340,392.2 339.4,392 328.6,387.5 						"/>
						<polygon class="st1" points="347.7,364.8 240.1,447.2 75.7,425.6 241.9,354.8 						"/>
						<polygon class="st0" points="346.8,358.5 332.8,360.7 326.1,358.3 						"/>
						<polygon class="st0" points="339.1,392.8 329.9,401.8 329,401.4 318.4,396 						"/>
						<polygon class="st0" points="328.2,403.1 317.6,413.6 316.7,413.2 305.4,406.8 						"/>
						<polygon class="st0" points="320.8,356.8 307.3,358.4 301.3,355.9 						"/>
						<polygon class="st0" points="315.5,415.4 301.1,428.9 300.9,428.7 289.4,419.9 						"/>
						<polygon class="st0" points="299.4,430.6 281.9,447.5 269.6,436 						"/>
						<path class="st0" d="M278.9,354.8l18,0.4c-2.5,0.3-12.2,1.5-12.2,1.5L278.9,354.8z"/>
						<polygon class="st0" points="278.9,450.5 256.5,472.5 208.8,464.5 245.1,457.3 						"/>
						<path class="st0" d="M256.6,352.6l16.9,1.1c-0.5,0-8.1,0.8-11,1h0l-1.6-0.1L256.6,352.6z"/>
						<path class="st0" d="M260.7,354.6l1.6,0.1c-0.7,0-1.1,0.1-1.1,0.1L260.7,354.6z"/>
						<path class="st0" d="M236.5,351.6l14.3,0.1c-0.2,0-4.1,0.6-8.6,1.1l-0.3,0l-0.2,0.1c0,0,0,0,0,0c-6,0.8-12.8,1.7-12.8,1.7
							L236.5,351.6z"/>
						<polygon class="st0" points="226.8,355.2 229.1,357.4 216.9,358.9 						"/>
						<polygon class="st0" points="215.6,362.3 202.5,363.8 214.1,359.6 						"/>
						<path class="st0" d="M202.5,463.9c0.1,0.3-40-7.2-40-7.2l34.4-6.4C196.9,450.2,202.4,463.5,202.5,463.9z"/>
						<polygon class="st0" points="200.1,364.3 201.6,367.1 186.9,369.3 						"/>
						<polygon class="st0" points="184.9,371.4 186.5,374.3 170.8,376.7 						"/>
						<polygon class="st0" points="149.5,384.7 167.4,378.1 168.2,382.1 						"/>
						<polygon class="st0" points="154.8,443.7 156.3,455.7 121.2,449.8 						"/>
						<path class="st0" d="M146.6,386.5l-0.2,4.2c0,0-19.2,2.9-19.5,2.9L146.6,386.5z"/>
						<polygon class="st0" points="122.1,396.6 121,401.5 98.8,404.8 						"/>
						<polygon class="st0" points="115.7,438.2 114.1,449.1 83.8,443.7 						"/>
						<path class="st1" d="M307.3,358.4l13.5-1.6l-19.5-0.9L307.3,358.4z M332.8,360.7l14-2.2l-20.7-0.2L332.8,360.7z M351.2,360.6
							l16.9,4.7l4.3-4.4L351.2,360.6z M352.8,367.9l9.4,3c0,0,5.6-5.1,5.3-5.1C367.1,365.8,352.8,367.9,352.8,367.9z M356.4,376.7
							c0,0,5.5-5.6,5.2-5.5c-0.3,0.1-16.2,2.2-16.2,2.2L356.4,376.7z M216.9,358.9l12.2-1.5l-2.3-2.2L216.9,358.9z M284.7,356.7
							c0,0,9.7-1.3,12.2-1.5l-18-0.4L284.7,356.7z M121,401.5l1.1-4.9l-23.4,8.2L121,401.5z M146.4,390.7l0.2-4.2l-19.7,7.1
							C127.1,393.6,146.4,390.7,146.4,390.7z M156.3,455.7l-1.5-12l-33.6,6.1L156.3,455.7z M168.2,382.1l-0.8-4l-18,6.6L168.2,382.1
							z M170.8,376.7l15.8-2.4l-1.6-2.9L170.8,376.7z M202.5,463.9c-0.1-0.3-5.6-13.7-5.6-13.7l-34.4,6.4
							C162.5,456.6,202.6,464.2,202.5,463.9z M186.9,369.3l14.7-2.2l-1.5-2.7L186.9,369.3z M202.5,363.8l13.1-1.5l-1.5-2.7
							L202.5,363.8z M48,437.9L59.5,422l-34.4,11.6L48,437.9z M0,437.3l234.8-87.1l149.1,9.7L269.1,486.7L0,437.3z M65.7,418.1
							l24.7-3.8l3-6.1L65.7,418.1z M241.6,353L65,427l18.8,2.7l-0.5,3.5l-30.9,5.6l26.4,4.3l5.1,0.6l30.2,5.4l1.6-10.9l0.5-3.7
							l128.1,18.6l0.9,4.2l-36.3,7.3l47.7,7.9l22.4-22l3-3l17.5-16.9l1.5-1.9l0.3,0.2l14.4-13.6l1.2-2.2l0.9,0.5l10.6-10.6l0.9-1.7
							l0.9,0.4l9.2-9l0.3-0.8l0.6,0.2l7.7-7.7l0.4-1l0.9,0.3l6.4-6.7l-18.1,2.5l-0.9-1.2l18.8-15.2l-92.8-8.6c2.9-0.3,10.6-1,11-1
							l-16.9-1.1l4.2,2l-18.5-1.7c4.5-0.6,8.4-1.1,8.6-1.1l-14.3-0.1l-7.7,3C228.8,354.6,235.6,353.8,241.6,353z"/>
						<polygon class="st0" points="93.4,408.2 90.4,414.3 65.7,418.1 						"/>
						<polygon class="st0" points="83.2,433.3 78.8,443.2 52.3,438.9 						"/>
						<path class="st0" d="M65,427L241.6,353c0,0,0,0,0,0c0.2,0,0.4,0,0.5-0.1l18.5,1.7l0.5,0.2c0,0,0.4,0,1.1-0.1h0l92.8,8.6
							l-18.8,15.2L317,394.3l-13.1,10.6l-16.1,13l-19.8,16l-23.7,19.1l-128.1-18.6l-32.4-4.7L65,427z M241.9,354.8L75.7,425.6
							l164.5,21.7l107.5-82.5L241.9,354.8z"/>
						<polygon class="st0" points="59.5,422 48,437.9 25.1,433.6 						"/>
					</g>
					<g>
					</g>
				</g>
			</g>
		</g>
	</g>
	<path class="st2" d="M326.4,365.5c1.2,0.5,34.3,5.4,20.3,14.3c-14,8.8-48.8,5.4-57.4,4.9c-8.6-0.5-8-1.2-23.6-3.7
		c-15.6-2.5-43.9-7.2-18.4-16.5c23.9-8.7,56.9-1.6,60.8-2.2C311.9,361.7,323,364,326.4,365.5z"/>
	<g>
		<g>
			<path class="st3" d="M335.1,75c-0.7,0.4-3.3,1.8-3.5,3.3c-15.8,1.4-10-21-10-21c-14.1,6.7-17.8-6.2-17.8-6.2
				c-15.4,14.8-28.1-3.1-28.1-3.1s1.3,5.9-5.9,7.9c-5.5,0.6-8.6-3-10.4-6.9c-0.4,2.4-0.8,8.2-0.2,12.7c0.4,3.2-0.5,6.6-1.1,8.5l0,0
				c0,0.2-0.2,0.9-0.4,2.1c-0.2-0.8-1.2-4-4.8-4.6c-1.9-0.3-3.3,1.5-3.8,3.8C236.6,60,247.5,53,247.5,53
				c-13.4-14.7,1.5-23.1,6.5-26.3c5.1-3.1,11.4-12.5,14.5-16.3c3.1-3.8,14.6-13.2,34.7-8.8C323.5,6.1,325.4,17,325.4,17
				c0.9-4.2-1.4-10.9-1.4-10.9s1.7-1.6,4.9,0.2c7.5,6,4.4,14,4.4,14l0,0.1c12.8-3,13.9,8.9,13.9,8.9c-2.8-0.1-9.4-0.1-9.4-0.1
				c21.1,12.8,14,26.6,11.1,30.3c-2.8,3.7-1.6,6.7-0.3,7.8c1.3,1.1,4.5,3.3,2.9,8.6c-2.1,6.4-9,6.8-9.6,6.8l-0.3-0.1
				c0.1-0.2,0.1-0.5,0.1-0.8c0.3-2.8-0.2-5.9-3.1-7.1C337.6,74.3,336.3,74.3,335.1,75z"/>
		</g>
		<g id="XMLID_12_">
			<g>
				<g>
					<path class="st4" d="M349.3,258c-1,2.9-4.4,6.2-5.5,7l-0.7-0.5c-1.5,2.3-3.4,2.7-3.8,2.5l-0.3-0.2c-1.1,1.6-2.3,3-2.9,3.2
						c-1.4,0.4-2.3-2.2-2.5-2.8c-2.4,1.5-3.7,0.8-3.6-1c0.1-2.1,2-5.8,2.1-7.6c0.1-1.2,0-6.6,0-9.7c-2.1,3.5-3.9,4.7-5.2,4.8
						c-1.8,0.1-2.9-1.4-2.9-1.6c0-0.3,1.2-2,2.2-4.4c0.2-0.4,0.4-0.9,0.6-1.4c0.1-0.2,0.2-0.5,0.3-0.8c1.5-3.2,5.2-8.8,5.4-9.7
						c0.2-0.7-0.8-15.2-1.8-25c-0.3-3.1-0.7-5.7-1-7.3c-1.4-6.7-3.6-21.1-3.6-21.1l0-0.3c7.3,0.5,13.8-1.5,18.4-3.6l0.1,0.2
						c3.1,20.1-0.4,56.3-0.4,56.3c1.3,3.2,6.6,17.6,6.6,17.6S350.5,254.7,349.3,258z"/>
				</g>
				<g>
					<path class="st5" d="M331.5,322.9c1.7,15.5-1,21.6-1,21.6l-0.3,0.1c1.8,4.8,3.6,9.8,3.8,10.8c0.3,2-3.3,5.6-3.3,5.6l-0.5,0.1
						c0-0.5-0.1-1-0.3-1.5c-3-3.5-8.5-5.6-8.5-5.6l0-0.3c-5,0.5-13.4,0.3-17.6,0.1c-0.4,0.4-2.3,2-4.3,3.9l-0.2-0.2
						c-4.8-2.5-6.6-7.1-5.6-8.9c0.4-0.7,1.2-2.6,2.1-4.8c0.1-1.4,0.4-6.4-0.3-12.3c-0.8-7.1-1-24.6-1-24.6l0.5-0.1
						c-1.3-5.1-2.2-12.8-2.9-20.4c-1.1-12.1-1.6-23.9-1.6-23.9c-4.4-0.3-11.5-8.9-11.5-8.9l5.1-3.7c-1.3-5.5-1.1-23.2-1-24.6
						c4.6,0.7,9.7,1.3,12.2,1.2c4.4-0.2,11.3-1,15.3-1.4c0.6,0,1.3-0.1,2.2-0.2l0,0.6c0,0,1.3,23.7,5.9,24.7c4.6,1,7.1-2.3,7.1-2.3
						l0.4,0.2c-1,2.3-2.2,4.1-2.2,4.4c0,0.2,1.1,1.7,2.9,1.6c0.2,9,1.1,51.3,1.1,51.3S330.2,310.1,331.5,322.9z"/>
				</g>
				<g>
					<path class="st4" d="M269.2,72.5c2.7-1.9,6.1-1.3,6.1-1.3c2,0.4,1.7-0.1,1.4-0.7c-1.2-1.2-3.1-2.8-5.3-1.4
						C269.3,70.6,269.2,72.5,269.2,72.5z M331.6,78.3c0.2-1.5,2.8-2.9,3.5-3.3c1.2-0.7,2.6-0.7,3.8-0.1c2.9,1.3,3.4,4.3,3.1,7.1
						c0,0.3-0.1,0.5-0.1,0.8c-0.5,2-1.7,3.5-3.3,4.9c-1.6,1.4-4.3,2.3-6.3,1.6c-0.8-0.3-1.4-0.7-1.8-1.5l-0.3,0
						c-0.3,2.1-1.1,4.2-2.1,6.1c-2.2,3.8-5.7,7.5-9,10.4c-1.9,1.6-4,3.1-6.2,4.3c-0.9,0.5-1.9,1-2.8,1.4c-2.1,0.9-4.2,1.6-6.4,2.1
						c-7,1.6-14.5,1.4-21.5-0.5c-2-0.5-4-1.2-5.9-2c-1.5-0.6-2.9-1.3-4.4-2c-8.7-4.7-13.8-14-14.7-23.7c-0.1-1.3-0.2-2.5-0.2-3.7
						c0-3.2,0.4-6,0.8-7.9c0.2-1.1,0.4-1.9,0.4-2.1l0,0c0.6-1.9,1.5-5.3,1.1-8.5c-0.6-4.5-0.2-10.4,0.2-12.7
						c1.7,3.9,4.8,7.5,10.4,6.9c7.2-1.9,5.9-7.9,5.9-7.9s12.7,18,28.1,3.1c0,0,3.7,12.9,17.8,6.2C321.6,57.3,315.8,79.7,331.6,78.3z
						 M307.9,73.7c1.7-0.1-0.9-2.5-2.7-3.2c-1.7-0.7-4.2,0.1-5,2.8C300.2,73.3,305.3,72.5,307.9,73.7z M307.7,85.1
						c0-2-1.2-3.6-2.6-3.6c-1.4,0-2.6,1.6-2.6,3.6c0,2,1.2,3.6,2.6,3.6C306.5,88.8,307.7,87.1,307.7,85.1z M276.1,82.7
						c0-1.9-1.1-3.5-2.5-3.5c-1.4,0-2.5,1.5-2.5,3.5c0,1.9,1.1,3.5,2.5,3.5C275.1,86.1,276.1,84.6,276.1,82.7z"/>
				</g>
				<g>
					<path class="st4" d="M245.7,247.8c-0.1,0.3,1,5.7,1,5.7s3.5,2.2,3.8,3.9c0.1,0.4,0,0.7-0.3,1c-1.7,1.7-7.2-1.1-8.3-2.1
						c-1-0.9-4.2-11.4-4-12.6c0.2-1.2,5.8-14.9,6.1-16.2c0.3-1.4,2.2-6.1,2.6-13.9c0.4-7.3,4.5-32.7,5-35.5c2.3,0.8,4.8,1.3,7.3,0.9
						c-0.1,3.5-0.2,6.3-0.2,7.9c0.1,7.5-3.1,17.7-3.1,20.4c0,1.4,1.1,3.3,3.1,5c-0.3,0.6-3.6,13.8-5.5,17c-0.4,2,0.1,3.9,0.4,5.8
						l-0.8,0.1c0.1,3.3-2.9,5.2-2.9,5.2s-0.5,3.9-1.7,5.8c-0.6,0.9-1.7,1.4-2.7,1.5L245.7,247.8z"/>
				</g>
				<g>
					<path class="st6" d="M347,165.2c0,0-11.8,10.4-24.6,8.4c0.5,3.8,1,8.5,1,8.5c0.9,0.1,1.7,0.2,2.6,0.3l0,0.3
						c0,0,2.2,14.4,3.6,21.1c0.3,1.6,0.7,4.2,1,7.3c-0.1,0.2-0.4,0.8-0.8,1.3c-0.3,0.4-0.7,1.1-1.3,1.8c-0.3,0.4-0.8,0.8-1.2,0.9
						c-1.1,0.4-5.1,1-7.8,1.1c-2.7,0.1-6.3,0.9-9.2,0.9c-2.9,0-14.6,0.7-17.6,0.6c-3-0.1-19.5-0.6-26.4-1.8c-2.9-0.5-5.3-1.7-7.1-3
						c-0.2-0.2-0.5-0.4-0.7-0.6c-2-1.7-3.1-3.6-3.1-5c0-2.6,3.2-12.9,3.1-20.4c0-1.6,0.1-4.4,0.2-7.9c0.1-2.1,0.2-4.5,0.3-7.1h0
						c-6.9,0.6-12.2-3.6-13.3-4.5c0.1-0.2,0.1-0.4,0.2-0.6c3.8-12.2,8.7-33.9,10.4-36.6c2.1-3.3,15.5-14.3,15.8-14.5l0.4,0.2
						c-1.1,2.8-2,6.6-2,11.2c0,0,5.9-4.2,9.6-2.7l0,0c0.9,1.4,2.1,2.7,4,3.7c-0.3,1.3-2.3,11.8-1.6,20.7c0,0,5.3,1.3,7.8,0.4
						c0,0,0.7-15.9,1.7-19.5v-0.1c2.8-0.3,5.6-1.2,8-2.6l0.2,0.3c0.8-0.4,7-3.6,12.5,3.9c0,0,3.6-5.5,3.4-12.5l0.3,0
						c0,0,16.7,8.5,20.8,15c3.6,6.5,5.2,19.5,6.7,23.6c0.6,1.6,1.8,4.5,3.1,7.6c0,0,0,0.1,0.1,0.2L347,165.2z"/>
				</g>
				<g>
					<path class="st5" d="M266,222.4c-0.1,1.8-1.9,17.9-2.8,18.7c-1,0.8-2.5,0.8-2.5,0.8h-0.1c0.5-9.6,1-17.9,1.2-20.2
						C263,221.9,264.5,222.2,266,222.4z"/>
				</g>
				<g>
					<path class="st7" d="M251.6,178.1c-4.6-1.6-8.1-4.5-8.1-4.5c0.7-1.3,1.5-3.5,2.4-6.2c1.1,1,6.4,5.2,13.3,4.5h0
						c-0.1,2.5-0.2,4.9-0.3,7.1C256.4,179.4,253.9,178.9,251.6,178.1z"/>
				</g>
				<g>
					<path class="st5" d="M260.7,241.9c0,0,1.5,0,2.5-0.8c0.9-0.8,2.6-16.8,2.8-18.7c1,0.2,2,0.3,3,0.5c-0.2,1.9-3,23.4-4.1,24.6
						c-1.1,1.3-3.9,1.1-3.9,1.1l-0.5,0C260.4,246.4,260.6,244.1,260.7,241.9L260.7,241.9z"/>
				</g>
				<g>
					<path class="st6" d="M261.8,221.8c-1.5-0.2-2.5-0.4-2.5-0.4s-0.2-7.9-0.2-8.2l0.2-0.3c1.8,1.4,4.2,2.6,7.1,3
						c6.9,1.2,23.5,1.8,26.4,1.8c3,0.1,14.7-0.6,17.6-0.6c2.9,0,6.5-0.9,9.2-0.9c2.7-0.1,6.6-0.7,7.8-1.1c0.4-0.1,0.9-0.5,1.2-0.9
						l0.7,8.4c0,0,0,0-1.3,0.2c-0.2,0-0.6,0.1-1.2,0.2c-2.1,0.3-6.3,0.8-10.1,1.3c-1.5,0.2-2.8,0.3-4,0.5c-0.9,0.1-1.6,0.2-2.2,0.2
						c-4,0.4-10.9,1.2-15.3,1.4c-2.5,0.1-7.6-0.5-12.2-1.2c-3.3-0.5-6.3-1-7.9-1.3c-1.4-0.2-3.7-0.6-6.2-1c-1-0.2-2-0.3-3-0.5
						C264.5,222.2,263,221.9,261.8,221.8z"/>
				</g>
				<g>
					<path class="st4" d="M252,244.3c1,1,3.9,4.2,3.5,5.3c-0.3,0.8-1,0.8-1.6,0.6c0.4,0.4,0.7,0.8,0.9,1.1c0.8,1,1.3,3.5-0.9,2.9
						l-0.1,0.1c0.6,0.7,0.9,1.4,0.8,1.9c-0.3,1.8-2.7,1.5-3.9,1.2h0c-0.3-1.7-3.8-3.9-3.8-3.9s-1.1-5.4-1-5.7l0-0.1
						c1-0.1,2.2-0.6,2.7-1.5c1.1-1.9,1.7-5.8,1.7-5.8s3-1.9,2.9-5.2l0.8-0.1c0.2,0.8,0.3,1.7,0.3,2.5C254,239.7,252.5,243,252,244.3
						z"/>
				</g>
				<g>
					<path class="st8" d="M289.6,363.1c-0.3,2.3-1.9,3.4-4.4,4.1c-3.5,0.9-31.6,0.8-34-0.1c-2.3-0.9-4.3-3.6-4.4-5.4
						c-0.1-1.8,5.6-5.6,9.6-8.2c1.5-1,3.7-2,5.8-2.8c3.6-1.4,7-2.5,7-2.5l0.1-0.2c4.5,2.4,16.9,8.3,17.7,8.8c0.6,0.4,1.5,1.8,2.2,3
						v0C289.7,361.1,289.7,362.2,289.6,363.1z"/>
				</g>
				<g>
					<path class="st4" d="M284.3,128c-1.8-1-3.1-2.4-4-3.7c-0.2-0.2-0.3-0.5-0.4-0.7c1.8-3.8,2.1-7.8,2.1-12l0-0.1
						c7,1.8,14.5,2.1,21.5,0.5l0,0.2c-0.5,2.7-1.1,5.9-0.6,8.6c0.2,0.9,0.3,2.3,0.8,3.1l0,0c-1,1.2-2.3,2.2-3.7,3.1
						c-2.4,1.4-5.2,2.3-8,2.6c-2.8,0.3-5.5-0.1-7.8-1.4C284.4,128.1,284.3,128.1,284.3,128z"/>
				</g>
				<g>
					<path class="st5" d="M269.3,348.2c0,0-3.5,1-7,2.5l0-0.1c-4.5-1.5-7.4-6.9-7.4-6.9s1.5-1.3,2.5-3c0.4-0.6,1.6-3.9,3.1-8
						c0.3-3.1-0.2-47.2-0.5-62.2c-0.1-5.6,0.1-13.7,0.5-21.7l0.5,0c0,0,2.8,0.2,3.9-1.1c1.1-1.3,3.9-22.7,4.1-24.6
						c2.5,0.4,4.9,0.8,6.2,1c1.6,0.3,4.6,0.8,7.9,1.3c-0.1,1.3-0.2,19,1,24.6l-5.1,3.7c0,0,7.1,8.6,11.5,8.9c0,0,0.4,11.8,1.6,23.9
						l-0.6,0c-0.7,3.6-2.3,16-2.3,16l-0.1,0c1.1,2,2.1,3.6,2.2,3.9c0.3,0.8,0.2,1.1-0.5,3.5c-0.7,2.3-0.3,38.2-0.4,40.3
						c1.8,2.9,3.6,5.7,4.2,6.4c1.2,1.3-4,5.7-5.1,6.6c0.1-0.9,0-2-0.3-3.3v0c-0.7-1.2-1.7-2.6-2.2-3c-0.8-0.5-13.2-6.5-17.7-8.8
						L269.3,348.2z"/>
				</g>
				<g>
					<path class="st8" d="M330.2,361.1c0.7,4.8-0.4,9-1,9.3c-0.7,0.3-11.2,2.6-23.6,2c-12.4-0.7-12.2-6.1-10.9-9.1
						c0.6-1.4,2.8-3.7,4.8-5.7c2-1.9,3.9-3.6,4.3-3.9c4.2,0.2,12.6,0.4,17.6-0.1l0,0.3c0,0,5.4,2.1,8.5,5.6
						C330,360.1,330.1,360.6,330.2,361.1z"/>
				</g>
				<g>
					<path class="st7" d="M270.6,127c0-4.6,0.9-8.3,2-11.2c1.3-3.5,3-5.7,3.5-6.3c1.9,0.8,3.9,1.5,5.9,2l0,0.1c0,4.2-0.4,8.2-2.1,12
						c0.1,0.2,0.3,0.5,0.4,0.7l0,0C276.5,122.8,270.6,127,270.6,127z"/>
				</g>
				<g>
					<path class="st7" d="M347.3,165.1c1.9,4.6,3.9,9.3,3.9,9.5c0,0.2-2.6,2.2-6.7,4.1c-4.6,2.1-11.1,4.1-18.4,3.6
						c-0.8,0-1.7-0.1-2.6-0.3c0,0-0.5-4.7-1-8.5c12.8,2.1,24.6-8.4,24.6-8.4L347.3,165.1z"/>
				</g>
				<g>
					<path class="st5" d="M327.1,241.2c0,2.1,0.1,3.8,0.1,4.5c-0.1,0.3-0.2,0.5-0.3,0.8c-0.2,0.5-0.4,1-0.6,1.4l-0.4-0.2
						c0,0-2.5,3.3-7.1,2.3c-4.6-1-5.9-24.7-5.9-24.7l0-0.6c1.2-0.1,2.6-0.3,4-0.5v0c0,0,1,17.8,4.3,18.8
						C323.3,243.4,326.6,241.5,327.1,241.2z"/>
				</g>
				<g>
					<path class="st5" d="M326.9,222.9c-0.1,0.6,0.1,11.6,0.2,18.2c-0.6,0.3-3.8,2.2-6,1.9c-3.3-1-4.3-18.8-4.3-18.8v0
						C320.6,223.8,324.8,223.2,326.9,222.9z"/>
				</g>
				<g>
					<path class="st7" d="M303.9,123.9L303.9,123.9c-0.5-0.8-0.7-2.2-0.9-3.1c-0.5-2.7,0-5.9,0.6-8.6l0-0.2c2.2-0.5,4.3-1.2,6.4-2.1
						c0.9-0.4,1.9-0.9,2.8-1.4c2.5,3.5,3.4,7.1,3.5,10.3c0.2,7-3.4,12.5-3.4,12.5c-5.5-7.6-11.7-4.4-12.5-3.9l-0.2-0.3
						C301.6,126.1,302.8,125.1,303.9,123.9z"/>
				</g>
				<g>
					<path class="st9" d="M305.2,70.5c1.7,0.7,4.4,3.1,2.7,3.2c-2.6-1.2-7.7-0.4-7.7-0.4C301,70.6,303.4,69.8,305.2,70.5z"/>
				</g>
				<g>
					<path class="st10" d="M305.1,81.5c1.4,0,2.6,1.6,2.6,3.6c0,2-1.2,3.6-2.6,3.6c-1.4,0-2.6-1.6-2.6-3.6
						C302.5,83.1,303.7,81.5,305.1,81.5z"/>
				</g>
				<g>
					<path class="st7" d="M292.2,129.6L292.2,129.6c-1,3.6-1.7,19.5-1.7,19.5c-2.5,0.9-7.8-0.4-7.8-0.4c-0.7-8.9,1.4-19.4,1.6-20.7
						c0,0,0.1,0.1,0.1,0.1C286.6,129.4,289.4,129.8,292.2,129.6z"/>
				</g>
				<g>
					<path class="st9" d="M276.7,70.5c0.4,0.7,0.7,1.2-1.4,0.7c0,0-3.4-0.6-6.1,1.3c0,0,0.1-1.9,2.2-3.4
						C273.6,67.6,275.5,69.3,276.7,70.5z"/>
				</g>
				<g>
					<path class="st10" d="M273.7,79.2c1.4,0,2.5,1.5,2.5,3.5c0,1.9-1.1,3.5-2.5,3.5c-1.4,0-2.5-1.6-2.5-3.5
						C271.2,80.8,272.3,79.2,273.7,79.2z"/>
				</g>
				<g>
					<path class="st4" d="M249.2,71.5c0.5-2.4,1.9-4.2,3.8-3.8c3.5,0.6,4.5,3.7,4.8,4.6c-0.3,1.8-0.8,4.7-0.8,7.9h-0.3
						c-0.3,0.3-2.3,1.3-5-0.5C249.1,77.9,248.5,74.3,249.2,71.5z"/>
				</g>
				<path class="st11" d="M303,120.1c0.2-0.5,1.3-7.2,3.8-6.6c2.5,0.6,5.6,5.9,4.8,15.5l-0.1,1.2l1.4,0.8c0,0,3.9-4.7,3.4-12.3
					c-0.8-6.2-4.4-10.5-4.4-10.5s-5.8,3-8.7,3.6L303,120.1z"/>
				<path class="st11" d="M279.6,111.5c0,0-2.8,4.2-1,8.9c1.2,3.3,1.4,3.3,1.6,3c0.2-0.3,1.1-1.7,1.3-2.1c0.2-0.4,0.6-9.1,0.6-9.1"
					/>
			</g>
		</g>
		<path class="st12" d="M317,18.5c0,7.9-4,16.7-11.3,20.5c-5.3,2.9-14.5,3.6-19.9,0.9c2.1,2.4,4.7,4.9,8,5.5
			c3.5,0.7,7.5-0.6,10.9-1.5c7.3-1.9,13.5-7.6,15.5-15c0.7-2.8,1.5-14.3-3.6-9.6"/>
		<path class="st12" d="M327.9,6.8c0,0,13.8,20.7-1.5,38.7c-11.5,9.6-21.1,7.1-23.8,2.7c0,0-7.3,9-15.1,8c0,0,9.8,3.8,16-5.5
			c0,0,7.1,14,18.8,5.6c0,0-7.3,20.8,8.8,22.2c0.8-0.1,2.3-4.9,7.8-3.7c3,0.8,3.5,3.8,3.2,7.5c0,0,5.8-0.5,8.7-4.9
			c2.4-3.7,1.1-7.2-2.3-10.9c-2.4-2.6-0.6-5.2,0.6-6.5c1.2-1.3,7.3-12.8-0.5-21.7c-6.3-7-11.3-8.8-11.3-8.8l10-0.2
			c0,0-0.8-11.4-12.4-9.5l-1.1,0.7C333.8,20.5,336,9.3,327.9,6.8z"/>
		<path class="st13" d="M316.7,19c-0.2,0.2,2.5,10.7-9.8,19.1c-11.1,5-15,5.4-20,2.3c0,0,3.6,5.7,14.2,4.7
			c10.6-1.1,20.5-13.5,19.4-23.2C319.6,16.6,317.7,18.1,316.7,19z"/>
		<path class="st14" d="M295.9,32.6c-0.3,0,5.4,1.5,8.4-0.9c3.1-2.4,2.8-4.8,1.7-4.4C304.8,27.6,300.9,33.2,295.9,32.6z"/>
		<path class="st14" d="M290.9,24.4c-0.2-0.1,4.5,4.2,7.7,1.5c1.8-2.3-0.8-2.3-1.9-1.7C295.6,24.8,292.5,25.4,290.9,24.4z"/>
		<path class="st14" d="M273.1,20.2c0,0-6,9.8-0.3,18.6c-0.1-0.2-4.9-0.3-5-9.4c-0.1-9.1,4-10.6,5.6-10.7
			C274.4,18.7,273.1,20.2,273.1,20.2z"/>
		<path class="st14" d="M265.3,23.1c0,0-9,15.9,3.4,24.9c0,0-4.5,0.3-7.9-5c-3.4-5.4-0.6-17.2,1.9-20
			C265.3,20,265.3,23.1,265.3,23.1z"/>
		<path class="st14" d="M253.8,37.1c0,0-3.5,6.8,1.1,14c1.3,1.9-2.4,7.6-2,9.6c0.4,2.1-3.4,0.4-4.3-0.9c-0.9-1.3-0.8-5.7-0.8-5.7
			s-9.1,9.2,1.5,17.1c0.4-0.2,2.1-5.2,5.2-3.1c2.4,1.6,3.8,4.1,3.8,4.1s1.1-4.4,1.2-6.2c0.2-1.8-0.8-14.4,0.5-16.1
			C259.9,49.8,254.8,40.7,253.8,37.1z"/>
		<path class="st15" d="M271.5,119.4c0.2-0.5-2.9,9.6-0.9,14c0.6-0.3,9.4-4.1,12.8-3c0,0,1.3-1.8,1-2.3c-0.4-0.5-4-3.7-4-3.7
			s-5.2-0.5-8.5,1.9C270.7,127,269.8,122.9,271.5,119.4z"/>
		<path class="st15" d="M295.7,129.4c0,0,11.1-1.4,15.8,2.8c4.7,4.7,7,6.5,9.3,3.9c2.2-2.6,2.7-13,2.7-13l-7-3.9
			c0,0-0.1,8.6-4.1,11.7c0,0-5.6-6.2-10-4.6C297.9,128.1,295.7,129.4,295.7,129.4z"/>
		<path class="st15" d="M260.6,141.9c-0.1-0.3-6.6,26.4-6.7,29.1l4.9,1C258.8,171.9,261.6,144.5,260.6,141.9z"/>
		<path class="st16" d="M254.1,172.1l-1.1,6.5c0,0,5.9-0.1,6-0.1c0.1,0,0.2-6.1,0.2-6.1S255.8,171.8,254.1,172.1z"/>
		<path class="st17" d="M253.9,253.7c0,0,1.2,0,1.2-0.9c0-0.9-1.9-3.3-1.7-3c0.1,0.2,2.2,1.3,2.3,0.4c0.1-0.9-3.3-5.7-3.3-5.7
			s2.1-5.4,2-7.2c-0.1-1.8-1.3-5.8-1.3-5.8s5.6-17.7,5.7-18.7c0,0-3.8-1.9-2.9-5.5c2-7.9,3.2-28.2,3.2-28.8c0,0-5.2,1.3-7,0.1
			l-0.5,2.3l5.6,2.6c0,0-2.6,18.9-3.9,23.5c-1.3,4.6-3.4,16.8-4,19.8c-0.6,3,0.2,7.7,0,8.7c-0.7,4.1-4.8,11.3-4.8,11.3
			s-1.3,9.1,6,11c0,0,3.2-0.8,3.6-0.7c0.4,0.1,0.7-0.4,0.7-0.4s0-2.5-1.3-3"/>
		<path class="st17" d="M326.3,181.8l0.2,2.9c0,0,13.9-0.3,14.1-0.3c0.2,0,1,20,1.1,26.9c0.1,7-0.9,21.4-0.8,23.2
			c0.1,1.8,6.6,14.2,6.5,15.1c-0.1,1-8.7,4.1-9.6,4.7c-1,0.6-6.1,11.9-5.6,13.1c0.5,1.2,2.5,0.1,2.5,0.1s1.7,2.7,2.7,1.6
			c1-1.2,2.3-2.5,2.3-2.5s2.6,0,3.2-0.9c0.6-0.9,1.6-1.6,1.6-1.6s0.7,0.4,1.2-0.1c0.4-0.6,5.4-8.8,5.3-10.9
			c-0.1-2.2-2.1-7.3-3.7-10.6c-1.6-3.3-3-8.2-3-8.2s1.3-21.9,1.5-28.9c0.2-5.4-0.3-21.5-2.1-26.7
			C343.5,178.7,335.3,183.2,326.3,181.8z"/>
		<path class="st15" d="M320.7,167.6c0.1,0.3-0.4,13-0.2,20.3c0.2,7.3-1.5,18.6-3.9,21.9c-2.4,3.3-7.9,5.9-7.9,5.9s-3.5,0.9-3.3,1
			c0.2,0.1,0.8,1,0.8,1s7.1,2.5,6.8,6.4c-0.3,3.9,0.1,0.8,0.1,0.8l16.2-2.6l-0.3-7.8l1.7-3c0,0-1.4-10.8-1.6-11.6
			c-0.2-0.9-1.2-7.3-1.2-7.8s-1.6-9.7-1.8-9.9c-0.2-0.2-2.7,0.3-2.5,0c0.1-0.2-2.1-15.9-2.1-15.9L320.7,167.6z"/>
		<g id="XMLID_11_">
			<g>
				<path class="st18" d="M285.1,228.5c-4.7-0.1-19.3-3.7-19.3-3.7s10.1,20.8,11.4,23.5c-1.6-2.6-13.9-21.8-14.8-23.5l0.8-2.6
					l1.5,0.4c0,0,22.8,3.9,31.2,3.9c8.4,0,31.6-3.4,31.6-3.4l-0.2,11.4l0,11.3c0,0-0.1,0.4-1.5,2.9c-2.7,4.5,1.7,5.6,1.7,5.6
					s-0.3,7.1-0.4,10.1c-0.1,3,0.4,21.5,0.7,26.1c0.3,4.5-0.3,15.7-0.3,15.7s3.6,7.3,4.4,13c0.8,5.7,0.5,19.3,0.5,20.4
					s-1.6,4.8-1.7,5.2c-0.1,0.4,4.3,10.5,4.3,10.5s-1.6,2.8-1.8,3.2c-0.2,0.4-2.7,2-2.7,2l-3-2.8l-2.7-2.3c0,0-3.2,2.1,0.2-0.3
					c3.4-2.4-1.1-17.7-1.3-19.4c-0.1-1.7-2.1-5.9-1.9-7c0.2-1.2,2.2-6,1.8-9.1c-0.4-3-4.7-18.9-4.7-18.9s-1.7-7.4-1.7-7.9
					c0-0.4,2.7-2.2,2.7-3.1c0-0.9-0.3-10-0.8-16.8c-0.5-6.8-2.1-41.9-2.1-41.7c0,0.2-8.6,8.8-12.3,12.5c4.7-5.3,10.7-16.3,10.1-16.1
					C314.2,227.6,289.8,228.6,285.1,228.5z"/>
			</g>
			<g>
			</g>
		</g>
		<path class="st18" d="M286.9,260.1c0,0-0.5,19.2-0.8,21.4c-0.3,2.2-1.3,7.3-1,9.4c0.3,2.1,0.5,3.7,0.4,4.7c-0.1,1,0.6,13,0.9,14.8
			c0.3,1.9-0.8,1.9-1.4,7.3c-0.6,5.4-0.5,14.7-0.8,16.9c-0.3,2.2-0.2,5.3,0.2,5.8c0.4,0.5,2.3,4.8,2.2,5.2c-0.1,0.4-3.3,4.7-3.7,4.5
			c-0.4-0.2-7.3-2.3-7.6-2.4c-0.4-0.1-3.7,0.5-4.1,0.7c-0.4,0.1,14.8,6.3,17.1,8.8c2.2,2.5,3,4.9,3.2,4.6c0.2-0.3,3.7-4.6,3.7-4.6
			l-5.6-10.6l1-4.3l-0.1-9.6c0,0,0.4-22.1,0.9-23.7c0.5-1.6,0.1-2.2-0.1-2.6c-0.1-0.4-2.1-3.5-1.9-3.9c0.2-0.4,1.6-13.1,2.1-13.9
			c0.4-0.8,0.1-15.7,0-16.3c-0.1-0.6-0.4-10.2-0.4-10.2L286.9,260.1z"/>
		<path class="st19" d="M279.5,353.4c0,0.3,1.4,8.3-3.1,10.4c-4.5,2.1-23,1.2-23.8,1.2c-0.8,0-2.7,0.5-3,0.7
			c-0.3,0.2,2.4,1.3,2.7,1.3c0.3,0,34.5,0.7,36.3-1.3c1.8-1.9,1.5-6.8-0.5-8.4C286.1,355.8,279.5,353.4,279.5,353.4z"/>
		<path class="st19" d="M315.7,354.4c0.3,0.2,7.9,5.9,6.2,9.6c-1.6,3.6-18.5,7-18.6,7c-0.1-0.1,24.9,0.5,26.3-1.1
			c1.3-1.6,1.4-5.4,1.6-5.6c0.1-0.2-1.6-4.3-1.6-4.3s-4.9-4.7-6.7-5.4C321.1,353.9,315.7,354.4,315.7,354.4z"/>
		<path class="st17" d="M259.4,59.8c0.1,0.7,1.4-1.5,1.8-2.1c0.4-0.5,1.3-2,1.9-2.2c0.2,0,0.6,0.2,0.8,0.3c0.5,0.2,1,0.3,1.5,0.5
			c3.2,1.2,7.2,1.8,10.7,1c0.8-0.2,1.5-0.4,2.1-0.8c0.2-0.1,0.9-1.1,1-1.1c0.2,0,0.6,0.6,0.7,0.7c0.5,0.5,1.1,0.9,1.8,1.3
			c3.1,1.8,6.2,2.3,9.8,2.3c2.2,0,4.3-0.6,6.4-1.1c1.3-0.4,3.7-1,4.5-2.3c2.1,2.5,4.8,4.4,8,5.2c1.6,0.5,3.4,0.6,5.1,0.5
			c1.2-0.1,2.1-0.5,3.2-0.9c0,0.4-0.2,0.9-0.3,1.4c-0.1,0.9,0,1.7,0.1,2.6c0.2,1.9,0.4,4.1,1,6c0.6,2,2,3.4,3.5,4.9
			c0.7,0.8,1.5,1.5,2.4,2.2c0.4,0.3,0.8,0.7,1.2,1c0.4,0.3,0.9,0.3,1.1,0.8c0.2,0.5-0.1,1.5-0.2,2.1c-0.1,0.7-0.1,1.4-0.2,2.1
			c-0.3,2.8-0.8,5.5-1.7,8.2c-0.7,2.2-1.6,4.5-3,6.4c-0.7,0.9-1.4,1.9-2.2,2.7c-0.8,0.8-2.9,3.3-3.6,4.2c0.8-0.5,2.3-1.3,3-1.8
			c1.1-0.8,3-2.7,4-3.6c1.6-1.3,2.4-3.1,3.4-4.9c0.8-1.4,1.6-2.8,2.4-4.2c0.7-1.3,0.6-2.7,1-4c0.2,0.6,0.5,1.3,0.9,1.8
			c0.5,0.7,1.4,0.6,2.3,0.6c0.9,0,2.2,0,3-0.4c0.5-0.3,1-0.8,1.4-1.2c0.8-0.8,1.8-1.4,2.5-2.3c0.8-0.9,1.1-2.5,1.2-3.7
			c0.1-1.2,0.2-2.7,0-3.9c-0.4-2.4-2.4-3.5-4.8-3.3c-1.3,0.1-2.8,0.6-3.9,1.3c-1.2,0.7-1.3,1.1-1.8,2.3c-0.3,0.8-0.4,0.5-1.2,0.4
			c-0.7-0.1-1.4,0-2.1-0.3c-1.4-0.6-2.8-1.2-3.9-2.3c-0.9-1-1.9-1.8-2.4-3.1c-0.7-2.1-1.2-4.6-1.4-6.8c-0.2-1.8,0.1-4,0.5-5.8
			c0.2-0.8,0.5-1.5,0.6-2.2c0.1-0.3,0.3-1.1,0.1-1.1c0,0-6.2,2.6-9,2.3c-4-0.4-8.3-5.3-9.4-7.8c0,0-6.4,6.5-13.9,5.7
			c-7.4-0.8-14.2-9.5-14.2-9.5s0,7.8-4.4,8.3c-9,1-11.5-7.5-11.6-7.5C259.4,48.3,258.8,56.8,259.4,59.8z"/>
		<path class="st17" d="M282.4,111.6c0,0-0.7,7.6-2,10.4c-1.3,2.8-0.3,2.5-0.3,2.5s6.7,5.5,10.5,5.6c3.8,0.1,10.7-2.3,12.9-6.5
			l-0.4-5.5l0.4-6.1C303.5,112,289.1,114.4,282.4,111.6z"/>
		<ellipse class="st20" cx="311.5" cy="94.1" rx="6.9" ry="5.3"/>
		<ellipse transform="matrix(0.112 -0.9937 0.9937 0.112 149.7351 351.9192)" class="st20" cx="271.8" cy="92.2" rx="5" ry="6.5"/>
		<path class="st20" d="M287.8,87.5c-3.5-1.1-6.2,3-2.4,4.9c0.6,0.3,1.5,0.4,2.1,0.2c0.4-0.1,1.3-0.6,1.5-1.3
			c0.3-1.2,1.1-3.3-1.1-3.8"/>
		<g>
			<g>
				<path class="st9" d="M249.3,72.3c-0.2-0.2-0.4-0.3-0.5-0.5c-4.4-4-6.5-8-6.1-11.7c0.3-3.9,3-6.3,4.2-7.2
					c-4-4.5-5.7-8.8-5.1-12.9c1-6.9,8.2-11.3,11.7-13.4l0.4-0.3c3.8-2.3,8.3-8.3,11.7-12.7c1.1-1.4,2-2.6,2.7-3.5
					c1.2-1.4,12.4-13.9,35.2-8.9c15,3.3,20.1,10.1,21.7,13.6c0-3.8-1.5-8.4-1.6-8.5L323.5,6l0.2-0.2c0.1-0.1,2-1.8,5.5,0.1
					c7.7,6.2,4.7,14.5,4.6,14.6l-0.9-0.3c0.1-0.3,2.8-7.7-4.2-13.4c-2.2-1.2-3.5-0.7-4-0.4c0.5,1.4,2.1,7,1.3,10.8l-0.5,2.4
					l-0.4-2.4c0-0.1-2.2-10.7-21.7-15C281-2.8,270.1,9.3,269,10.7c-0.7,0.9-1.7,2.1-2.7,3.5c-3.4,4.4-8,10.5-11.9,12.9l-0.4,0.3
					c-3.3,2.1-10.3,6.3-11.2,12.7c-0.6,3.9,1.2,8.1,5.2,12.5l0.4,0.4l-0.5,0.3c0,0-3.8,2.5-4.2,6.8c-0.3,3.5,1.7,7.2,5.9,11
					c0.2,0.2-0.1-0.1,0.1,0L249.3,72.3z"/>
			</g>
			<g>
				<path class="st9" d="M258.1,71.7l-1,0c0-0.2,0-0.3,0.2-0.9l0.2-0.8c1-3.3,1.4-6,1.1-8.3c-0.6-4.5-0.2-10.4,0.2-12.9l0-0.1
					l0.9,0.1l0,0.2l0,0c-0.4,2.4-0.8,8.1-0.2,12.6c0.3,2.4-0.1,5.3-1.1,8.7l-0.2,0.8C258.2,71.4,258.2,71.6,258.1,71.7z"/>
			</g>
			<g>
				<path class="st9" d="M330.3,78.8c-3.2,0-5.7-1-7.4-3.1c-4.2-5-2.7-14.6-2-17.6c-4.3,1.9-8,2.1-11.2,0.7
					c-3.8-1.7-5.5-5.3-6.1-6.8c-4.4,4-9,5.9-13.7,5.4c-6.7-0.6-11.6-5.6-13.6-7.9c-0.1,2-1.1,5.4-6.3,6.8c-4.9,0.5-8.6-2-10.9-7.2
					c-1.1-2.4-1.8-5.4-2.2-8.7c0-0.1,0-0.2,0-0.2L257,40c-0.5,0.2,0.2,0.2,0.2,0.4c0.4,3.2,1.7,5.9,2.8,8.3c2.2,4.9,5.5,7.1,9.9,6.6
					c6.6-1.8,5.5-7,5.5-7.3l-0.5-2.3l1.4,1.9c0.1,0.1,5.7,8,13.9,8.7c4.6,0.4,9.1-1.5,13.5-5.7l0.6-0.6l0.2,0.8c0,0,1.5,5,5.8,6.9
					c3.1,1.4,6.9,1,11.2-1.1l0.9-0.5l-0.3,1c0,0.1-3.1,12.2,1.6,17.7c1.8,2.1,4.4,3,7.9,2.7l0.1,0v1
					C331.2,78.8,330.8,78.8,330.3,78.8z"/>
			</g>
			<g>
				<path class="st9" d="M342.1,83.3v-1c0.1,0,7-0.3,9.1-6.5c1.4-4.6-1.2-6.7-2.5-7.8l-0.3-0.2c-1.5-1.3-2.8-4.7,0.2-8.5
					c0.7-1,4.4-6.1,3.1-12.8c-1.1-6.1-5.9-11.8-14.1-16.8l-1.5-0.9h1.7c0.1,0,5.8,0,8.8,0.1c-0.2-1.3-1.1-4.8-3.9-6.8
					c-2.3-1.7-5.4-2-9.3-1.1c-0.2,0-0.4,0.1-0.6,0.1l-0.2,0l-0.2-0.3l0.1-0.7c0.2-0.1,0.4-0.1,0.6-0.2c4.1-1,7.5-0.5,10.1,1.3
					c3.9,2.8,4.4,7.9,4.4,8.1l0,0.5l-0.5,0c-1.9-0.1-5.5-0.1-7.7-0.1c7.6,4.9,12,10.5,13.1,16.5c1.3,7.2-2.5,12.6-3.3,13.6
					c-2.9,3.7-1.2,6.4-0.3,7.2l0.3,0.2c1.4,1.2,4.4,3.6,2.8,8.8C349.8,83.1,342.2,83.3,342.1,83.3z"/>
			</g>
			<g>
				<path class="st21" d="M254.8,81.1c-0.9,0-2.1-0.3-3.4-1.1c-2.8-1.9-3.4-5.7-2.8-8.6c0.7-2.9,2.4-4.6,4.4-4.2
					c3.8,0.6,4.9,4,5.1,4.9c0,0.1,0,0.2,0,0.2l-0.9,0.3c0,0,0-0.1-0.1-0.3c-0.2-0.8-1.2-3.6-4.4-4.2c-1.6-0.3-2.8,1.5-3.3,3.5
					c-0.6,2.5-0.1,6,2.3,7.6c2.4,1.6,4.1,0.8,4.4,0.6l0.7,0.7C256.7,80.7,255.9,81.1,254.8,81.1z"/>
			</g>
			<g>
				<path class="st21" d="M256.8,74.8c-0.1-0.2-1.5-3.7-5-3l0-0.4c4.3-1.7,5.9,2.9,5.9,3L256.8,74.8z"/>
			</g>
			<g>
				<path class="st21" d="M253.8,76.9c-0.5-1.5-0.3-2.6,0.1-3.2c0.5-1,1.3-1.5,1.6-1.5l0.3,0.9c0,0-2.6,1.2-1.7,3.7L253.8,76.9z"/>
			</g>
			<g>
				<path class="st21" d="M294,113.5c-4,0-8-0.5-12-1.6c-2-0.5-4-1.2-6-2c-1.5-0.6-2.9-1.3-4.4-2c-8.4-4.5-13.9-13.5-14.9-24.1
					c-0.1-1.2-0.2-2.4-0.2-3.7c0-3.2,0.4-6.1,0.8-7.9c0.2-1.2,0.4-1.9,0.4-2.1l0-0.1l0.1-0.1l0.3,0.3h0.6c0,0-0.1,0.2,0,0.2
					c0,0.2-0.2,0.9-0.4,2c-0.3,1.8-0.7,4.6-0.8,7.8c0,1.3,0.1,2.5,0.2,3.6c1,10.3,6.3,19,14.4,23.3c1.4,0.8,2.9,1.4,4.3,2
					c1.9,0.8,3.9,1.4,5.8,1.9c7.2,1.9,14.5,2.1,21.2,0.5c2.2-0.5,4.3-1.2,6.3-2.1c1-0.4,2.1-1,2.9-1.4c8-4,12.2-8.4,15.5-15.6
					c0.9-1.9,1.5-4.1,2-6.1c2,1.9-1.6,7.6-2.6,9.4c-1.9,3.3-4.2,6.2-7.2,8.6c-3,2.4-5.5,3.8-7.3,4.8c-0.8,0.5-1.9,0.8-2.9,1.3
					c-2.1,0.9-4.3,1.6-6.5,2.1C300.5,113.2,297.3,113.5,294,113.5z"/>
			</g>
			<g>
				<path class="st21" d="M333.8,90c-0.6,0-1.2-0.1-1.8-0.3c-1-0.3-1.6-0.9-2.1-1.7l0.6-1c0.3,0.6,1.1,1.6,1.8,1.8
					c2,0.7,4.5-0.3,5.9-1.5c1.8-1.6,2.7-3,3.1-4.7c0.1-0.2,0.1-0.5,0.1-0.7c0.2-1.9,0.2-5.3-2.8-6.7c-1.1-0.5-2.3-0.5-3.4,0.1
					c-2.7,1.5-3.2,2.5-3.2,2.9l0,0.2h-1v-0.3c0.1-1.2,1.3-2.4,3.7-3.7c1.4-0.8,2.9-0.8,4.3-0.2c2.6,1.2,3.8,3.9,3.3,7.6
					c0,0.3-0.1,0.5-0.2,0.8c-0.5,2.3-2,3.8-3.4,5.1C337.6,89.1,335.7,90,333.8,90z"/>
			</g>
			<g>
				<path class="st21" d="M332.1,80.2c-0.4-0.6,0.8-1.6,0.8-1.6c0.4-0.4,1-0.6,1.4-0.8l0.2-0.1c1.9-0.8,3.9-0.8,5.4,0.7l-0.1,0.4
					c-1.5-0.8-3.4-0.8-5-0.2l-0.2,0.1c-0.4,0.2-0.9,0.3-1.1,0.6c-0.2,0.1-0.5,0.6-0.6,0.7l-0.5,0.3L332.1,80.2z"/>
			</g>
			<g>
				<path class="st21" d="M334.4,86l-0.3-0.1c0.8-0.2,1.3-1.7,1.6-2.5c0.2-0.8-0.1-1.9-0.5-2.5c-0.4-0.6-0.8-1.1-1.2-1.2
					c-0.1,0-0.2,0-0.3,0l-0.5-0.8c0.3-0.2,0.7-0.3,1-0.2c0.8,0.2,1.5,1.1,1.8,1.6c0.5,0.8,0.9,2.2,0.6,3.3
					C336.3,84.8,335.5,85.7,334.4,86z"/>
			</g>
			<g>
				<path class="st10" d="M273.7,86.6c-1.6,0-2.9-1.8-2.9-3.9c0-2.2,1.3-3.9,2.9-3.9c1.6,0,2.9,1.7,2.9,3.9
					C276.6,84.9,275.3,86.6,273.7,86.6z M273.7,79.7c-1.1,0-2,1.3-2,3c0,1.6,0.9,3,2,3c1.1,0,2-1.4,2-3
					C275.7,81.1,274.8,79.7,273.7,79.7z"/>
			</g>
			<g>
				<path class="st10" d="M305.1,89.3c-1.7,0-3.1-1.9-3.1-4.1c0-2.3,1.4-4.1,3.1-4.1c1.7,0,3.1,1.9,3.1,4.1
					C308.2,87.4,306.8,89.3,305.1,89.3z M305.1,82c-1.1,0-2.1,1.4-2.1,3.2c0,1.7,1,3.2,2.1,3.2c1.1,0,2.1-1.4,2.1-3.2
					C307.2,83.4,306.2,82,305.1,82z"/>
			</g>
			<g>
				<path class="st21" d="M286.4,93.1c-0.8,0-1.5-0.2-2.1-0.6c-1.1-0.8-2-2.5-1.5-3.9c0.5-1.3,1.7-1.9,3.4-1.9c1,0.1,2.3,0.5,3,1.3
					l-0.1,0.1c-0.4-0.5-2.2-0.3-3-0.4c-1.3,0-2.1,0.4-2.4,1.2c-0.4,1,0.3,2.2,1.1,2.8c0.6,0.4,1.8,0.9,2.6,0.7l0.1,0.5
					C287.1,93.1,286.8,93.1,286.4,93.1z"/>
			</g>
			<g>
				<path class="st21" d="M290.7,97.8c-1.6,0-3.2-0.1-4.7-0.2c-0.7,0-1.1-0.2-1.8-0.3c-0.5-0.1-1.8-1.1-2.3-1.1l0.6,0
					c0.5,0,1.1,0.1,1.6,0.2c0.6,0.1,1.2,0.2,1.9,0.2c1.9,0.1,3.7,0.2,5.6,0.2c1.9,0,3.5-0.2,4.8-0.5c0.2,0,0.4-0.1,0.7-0.2
					c0.2-0.1,0.4-0.2,0.6-0.2l0.2,0.9c-0.1,0-0.3,0.1-0.4,0.2c-0.3,0.1-0.5,0.2-0.8,0.3c-1.4,0.3-3.1,0.5-5,0.5
					C291.3,97.8,291,97.8,290.7,97.8z"/>
			</g>
			<g>
				<path class="st21" d="M299,97.2l-1-0.1c-0.1-0.1-0.7-0.7-0.9-0.8l0.2-0.4l-0.2-0.5c0.3-0.1,0.6,0.1,0.7,0.2
					C297.9,95.7,299,96.5,299,97.2z"/>
			</g>
			<g>
				<path class="st21" d="M291.6,103.3c-0.9,0-1.9-0.2-2.6-0.8l-0.3-0.7c0.5,0.5,2.7,0.7,4.1,0.4l0.2,1
					C292.6,103.3,292.1,103.3,291.6,103.3z"/>
			</g>
			<g>
				<path class="st21" d="M280.4,124.2h-0.7l-0.3-0.4l0.1-0.3l0.1,0l0-0.1c1.8-4,2.1-8,2.1-11.8h1c0,3.7-0.3,8-2.1,12.1L280.4,124.2
					z"/>
			</g>
			<g>
				<path class="st21" d="M303.4,124.1c-0.5-0.7-0.6-1.8-0.8-2.7l-0.1-0.5c-0.5-2.7,0-5.8,0.6-8.8l1,0.2c-0.6,2.9-1,5.9-0.6,8.4
					l0.1,0.5c0.1,0.8,0.3,1.8,0.6,2.4L303.4,124.1z"/>
			</g>
			<g>
				<path class="st22" d="M290.6,130.1c-2.4,0-4.6-0.5-6.4-1.6c0,0-0.1-0.1-0.2-0.1c-1.7-1-3-2.3-4-3.8c-0.1-0.1-0.2-0.3-0.3-0.4
					c-0.1-0.1-0.1-0.2-0.2-0.3c-1.8-3.3-1.7-6.5-1.7-6.6l0.2-0.1c0,0,0.7,3.2,2.3,6.2c0,0.1,0.1,0.2,0.2,0.3
					c0.1,0.1,0.1,0.2,0.2,0.4c0.9,1.5,2.2,2.7,3.8,3.6l0.1,0.1c2.1,1.2,4.6,1.6,7.4,1.4c2.7-0.3,5.4-1.2,7.8-2.5
					c1.4-0.8,2.6-1.8,3.6-3c0.5-0.6,1-1.1,1.5-1.6l0.6-0.3c-0.1,0.7-0.3,1.6-1.4,2.6c-1.2,1.1-2.3,2.3-3.8,3.1
					c-2.5,1.5-5.4,2.4-8.2,2.7C291.7,130.1,291.1,130.1,290.6,130.1z"/>
			</g>
			<g>
				<path class="st22" d="M271.1,126.1c0.1-3.6,0.8-7,1.9-10.1c1.2-3.2,2.6-5.2,3.3-6c-0.3-0.1-0.6-0.2-0.9-0.3c0,0,0,0-0.1-0.1
					c-0.7,0.9-2.1,2.9-3.2,6c-1.3,3.5-2,7.3-2,11.4l0,1l0.8-0.6c0.1,0,5.7-4,9.2-2.6l0.4-0.9C277.3,122.6,272.9,125,271.1,126.1z"/>
			</g>
			<g>
				<path class="st22" d="M313.3,108.5C313.3,108.5,313.3,108.5,313.3,108.5c-0.1,0.1-0.1,0.1-0.2,0.2c0,0-0.1,0-0.1,0.1
					c-0.2,0.1-0.4,0.2-0.5,0.3c2,3,3.1,6.3,3.2,9.8c0.2,5.4-2.1,10-2.9,11.6c-5.6-7.1-12-3.9-12.7-3.5l-0.2,0.2l0,0.5
					c1.1-0.6,7.4-3.1,12.5,4l0.4,0.6l0.4-0.6c0.1-0.2,3.7-5.7,3.5-12.7C316.6,115.1,315.5,111.7,313.3,108.5z"/>
			</g>
			<g>
				<path class="st22" d="M288.1,149.9c-2.5,0-5.4-0.7-5.6-0.7l-0.3-0.1l0-0.4c-0.7-9.3,1.5-20.4,1.6-20.8l1,0c0,0,0,0.1,0,0.3
					c-0.1,0.4-2.2,11.1-1.6,20.2c1.1,0.2,4.8,0.9,6.9,0.4c0.1-2.4,0.7-15.9,1.7-19.2l0.9,0.3c-1,3.5-1.7,19.2-1.7,19.4l0,0.3
					l-0.3,0.1C289.9,149.8,289,149.9,288.1,149.9z"/>
			</g>
			<g>
				<path class="st22" d="M257.2,179.6c-1.8,0-3.7-0.4-5.7-1.1c-4.6-1.6-8.1-4.5-8.2-4.6l-0.3-0.3l0.2-0.4c0.6-1.2,1.4-3.2,2.3-6.1
					c0-0.1,0.1-0.2,0.1-0.3c0-0.1,0.1-0.2,0.1-0.3l0.9,0.3c0,0.1-0.1,0.2-0.1,0.3c0,0.1-0.1,0.2-0.1,0.3c-0.8,2.7-1.6,4.6-2.2,5.9
					c0.9,0.7,4,2.9,7.6,4.2c2.6,0.9,5,1.2,7.1,0.9c0,0,0.1,0,0.2,0v1h0c0,0,0,0-0.1,0C258.4,179.6,257.8,179.6,257.2,179.6z"/>
			</g>
			<g>
				<path class="st23" d="M246.5,166.9l-0.9-0.3c1.7-5.5,3.7-13.2,5.5-19.9c2.2-8.6,4-15.3,4.9-16.8c2.1-3.4,16.3-15,16.4-15.1
					l-0.3,1.4l0.1-0.5l-0.2,0.6c-0.6,0.5-13.2,11-15.2,14.1c-0.9,1.4-2.8,8.8-4.8,16.6C250.3,153.8,248.3,161.4,246.5,166.9z"/>
			</g>
			<g>
				<path class="st22" d="M257.8,172.5c-6.2,0-10.9-3.6-12.2-4.7l-0.2-0.2l0.7-0.7l0.2,0.2c1.4,1.2,6.5,5,12.9,4.4l0.1,1
					C258.8,172.5,258.3,172.5,257.8,172.5z"/>
			</g>
			<g>
				<path class="st23" d="M293.4,218.2c-0.2,0-0.4,0-0.5,0c-0.2,0-18.9-0.5-26.5-1.8c-3.4-0.6-5.9-2-7.3-3.1
					c-0.3-0.2-0.5-0.4-0.7-0.6c-2-1.7-3.2-3.7-3.2-5.4c0-1,0.4-3,1-5.6c0.9-4.3,2.2-10.1,2.1-14.8c0-1.6,0.1-4.5,0.2-7.9
					c0.1-1.8,0.2-3.9,0.3-6l0.1-1.1c0.3-5.5,1.4-27.4,1.7-28l0.2,0.2l0.2,0l0,0.5c-0.2,0.8-0.6,15.1-1.1,27.3l-0.1,1.1
					c-0.1,2.1-0.2,4.2-0.3,6c-0.1,3.4-0.2,6.3-0.2,7.8c0,4.8-1.2,10.7-2.1,15c-0.5,2.4-0.9,4.5-0.9,5.4c0,1.3,1.1,3.1,2.9,4.6
					c0.2,0.2,0.4,0.4,0.6,0.6c1.4,1,3.7,2.4,6.9,2.9c6.6,1.1,22.5,1.7,26.4,1.8c1.7,0,6.1-0.2,10-0.3c3.2-0.1,6.3-0.3,7.6-0.3
					c1.5,0,3.3-0.2,4.9-0.5c1.5-0.2,2.9-0.4,4.2-0.5c2.7-0.1,6.6-0.7,7.6-1.1c0.3-0.1,0.6-0.4,1-0.8c0.4-0.5,0.8-1,1-1.4l0.2-0.3
					c0.4-0.5,0.6-1,0.7-1.2l0.3,0.1h0.7l-0.1,0.3c-0.1,0.2-0.4,0.8-0.8,1.3l-0.2,0.3c-0.3,0.4-0.6,1-1.1,1.5
					c-0.3,0.4-0.8,0.9-1.4,1.1c-1.2,0.4-5.2,1-7.9,1.1c-1.2,0-2.6,0.2-4.1,0.4c-1.7,0.2-3.5,0.5-5.1,0.5c-1.3,0-4.3,0.1-7.5,0.3
					C299.3,218,295.4,218.2,293.4,218.2z"/>
			</g>
			<g>
				<path class="st23" d="M294.5,226.9c-2.3,0-6.1-0.4-11.5-1.2c-3.3-0.5-6.3-1-7.9-1.3c-1.4-0.2-3.7-0.6-6.2-1
					c-0.5-0.1-0.9-0.2-1.4-0.2c-0.5-0.1-1.1-0.2-1.6-0.3c-0.9-0.1-1.7-0.3-2.5-0.4c-0.6-0.1-1.2-0.2-1.7-0.3
					c-1.5-0.2-2.5-0.4-2.5-0.4l-0.4-0.1l0-0.4c0-0.3-0.2-7.9-0.2-8.2h1c0,0.2,0.1,4.9,0.2,7.8c0.4,0.1,1.2,0.2,2.1,0.3
					c0.5,0.1,1.1,0.2,1.7,0.3c0.8,0.1,1.6,0.3,2.5,0.4c0.5,0.1,1,0.2,1.6,0.3c0.5,0.1,0.9,0.1,1.4,0.2c2.5,0.4,4.9,0.8,6.2,1
					c1.6,0.3,4.6,0.8,7.9,1.3c6,0.9,10.1,1.3,12.1,1.2c3.5-0.2,8.6-0.7,12.7-1.2l2.6-0.3c0.4,0,0.9-0.1,1.4-0.1l0.8-0.1
					c0.8-0.1,1.8-0.2,2.8-0.3l1.2-0.1c3.9-0.5,8.1-1,10.1-1.3l0.6-0.1c0.3,0,0.5-0.1,0.6-0.1l0.8-0.2l-0.7-8l0.5-0.1h0.5l0.7,8.9
					l-1.7,0.3c-0.1,0-0.3,0.1-0.6,0.1l-0.6,0.1c-1.9,0.3-6.2,0.8-10.1,1.3l-1.2,0.1c-1,0.1-2,0.2-2.8,0.3l-0.8,0.1
					c-0.5,0.1-1,0.1-1.4,0.2l-2.6,0.3c-4.1,0.4-9.2,1-12.7,1.2C295.1,226.9,294.8,226.9,294.5,226.9z"/>
			</g>
			<g>
				<path class="st24" d="M262.3,222.2c-0.1,0-0.1,0-0.2,0l0,0c-0.3,0-0.5-0.1-0.8-0.1c-0.1,2.2-0.7,10.3-1.2,19.9l-0.1,1.9
					c-0.1,1.6-0.2,3.2-0.2,4.8c-0.4,8.9-0.6,16.6-0.5,21.7c0.3,15.7,0.8,59.2,0.5,62.2l0,0.2l1-0.1c0.3-3.2-0.2-48.4-0.5-62.3
					c-0.1-5.1,0.1-12.7,0.5-21.6c0-1.6,0.1-3.3,0.2-4.8l0.1-1.9C261.6,232.6,262.1,224.6,262.3,222.2
					C262.3,222.2,262.3,222.2,262.3,222.2z"/>
			</g>
			<g>
				<path class="st24" d="M262.1,351c-4.6-1.5-7.6-6.9-7.7-7.2l-0.2-0.3l0.3-0.3c0,0,1.4-1.3,2.4-2.9c0.2-0.3,0.8-1.7,3.1-8
					c2.8-7.7,6.5-18,6.6-18.5l0.1-0.1c-0.1,0.5-2.9,11.2-5.8,18.9c-2.7,7.3-3.1,7.9-3.2,8.1c-0.8,1.2-1.8,2.3-2.3,2.8
					c0.7,1.2,3.4,5.2,7,6.4L262.1,351z"/>
			</g>
			<g>
				<path class="st24" d="M289.8,361.6c0,0-0.4-0.7-0.9-1.6l0.8-0.5c0.5,0.9,0.9,1.6,0.9,1.6L289.8,361.6z"/>
			</g>
			<g>
				<path class="st24" d="M289,360c-1.3-2.1-1.9-2.7-2.1-2.9c-0.4-0.2-3.6-1.8-7-3.5c-3.9-1.9-8.3-4.1-10.7-5.3l-0.4-0.2
					c-1.2-0.6-1.3-0.7-1.5-0.9l0.4-0.2l0.4-0.3c0.1,0.1,0.6,0.4,1.1,0.6l0.4,0.2c2.3,1.2,6.8,3.4,10.7,5.3c4.1,2,6.7,3.3,7.1,3.5
					c0.3,0.2,1,0.8,2.4,3.2L289,360z"/>
			</g>
			<g>
				<path class="st24" d="M289.7,363.6l-0.6-0.8c0,0,0.1,0,0.2-0.1c2.4-2,5-4.6,5.1-5.7c0-0.1,0-0.2,0-0.2c-0.6-0.7-2.2-3.2-4.2-6.5
					l-0.1-0.2c-1.7-2.8-3.6-7.3-4-7.7l0.2,0.2c0.4,0.2,1.4,1.8,4.6,7l0.1,0.2c1.6,2.5,3.5,5.7,4.1,6.4c0.2,0.2,0.3,0.5,0.3,0.9
					c-0.2,1.9-4.2,5.4-5.4,6.4C289.8,363.6,289.7,363.6,289.7,363.6z"/>
			</g>
			<g>
				<path class="st24" d="M290,350.1L290,350.1c0-0.7,0-4.6,0-9.6c0-15.4,0-29.4,0.4-30.9l0.2-0.7c0.5-1.7,0.5-1.9,0.3-2.4
					c-0.1-0.2-0.7-1.2-1.3-2.3l-0.9-1.6c-2.1-3.6-3.6-7.8-4.1-9.4l0.4,0.4c0.5,1.7,3.2,6.3,4.5,8.5l0.9,1.6c0.8,1.5,1.3,2.2,1.3,2.4
					c0.4,0.9,0.2,1.3-0.3,3.1l-0.2,0.7c-0.4,1.5-0.4,19.7-0.4,30.6c0,5.2,0,8.9,0,9.6L290,350.1z"/>
			</g>
			<g>
				<path class="st24" d="M289.8,302.4l-1-0.1c0-0.1,2-14.2,2.6-17.8l0.7,1.9C291.4,290,289.8,302.3,289.8,302.4z"/>
			</g>
			<g>
				<path class="st24" d="M260.7,242.4v-1c0,0,1.3,0,2.2-0.7c0.7-1,2.3-15.3,2.5-17.9v0l1.1,0.1l0,0c0,0.2-1.7,17.5-2.9,18.5
					C262.4,242.4,260.8,242.4,260.7,242.4z"/>
			</g>
			<g>
				<path class="st24" d="M261.2,249.2c-0.2,0-0.3,0-0.3,0l0.1-1c0.7,0,2.7-0.1,3.5-1c1-1.3,3.6-20.9,3.9-24.1l0.9,0.2l0.1,0.2
					c0,0.3-2.8,22.9-4.1,24.4C264.2,249.1,262.1,249.2,261.2,249.2z"/>
			</g>
			<g>
				<path class="st24" d="M296.2,310.7c-0.2-0.7-1.4-3.1-1.6-3.9c-1.4-5.6-2.4-14.2-2.9-20.4c-1-10.7-1.5-21.3-1.5-23.5
					c-4.6-0.8-11.2-8.7-11.5-9l0.8-0.6c0.1,0.1,7,8.4,11.2,8.7l0.4,0l0,0.4c0,0.1,0.4,11.9,1.6,23.8c0.6,6.2,1.5,14.7,2.9,20.3
					c0.2,0.8,0.4,1.6,0.6,2.3L296.2,310.7z"/>
			</g>
			<g>
				<path class="st24" d="M296.3,344.2l-1-0.2c0,0,0-0.1,0-0.4c0.1-1,0.4-6.1-0.3-12.3c-0.8-7-0.9-27.3-0.9-27.5l0.9,2.8
					c0,0.2,0.2,17.6,1,24.5c0.8,6.3,0.4,11.5,0.3,12.4C296.3,344.1,296.3,344.2,296.3,344.2z"/>
			</g>
			<g>
				<path class="st24" d="M299.1,357.9c-2.9-1.5-5.1-3.9-5.9-6.5c-0.4-1.2-0.4-2.3,0-3c0.3-0.6,1.1-2.3,2.1-4.8
					c1.8-4.3,2.9-7.5,3-7.9l0.3-0.9c0,0.8-2.1,8.4-2.4,9.1c-0.7,1.8-1.7,4-2.1,4.9c-0.3,0.5-0.3,1.3,0,2.3c0.6,1.8,2.3,4.3,5.4,5.9
					L299.1,357.9z"/>
			</g>
			<g>
				<path class="st24" d="M312.9,354.4c-3.4,0-6.8-0.1-9.1-0.2c-2.5-0.1-2.7-0.3-2.8-0.3l0.3-0.4l0.2-0.4c0.1,0,0.9,0.1,2.4,0.2
					c4.4,0.3,12.7,0.4,17.5-0.1c0.9-0.1,2,0.1,2.6,0l0.1,0.6c-0.7,0.2-1.6,0.3-2.6,0.3C319.1,354.3,316,354.4,312.9,354.4z"/>
			</g>
			<g>
				<path class="st24" d="M330.1,360.7c-0.2-0.3-0.4-0.5-0.6-0.8c-2.9-3.3-9-5.5-9-5.5l1.1-0.9c0.2,0.1,5.6,2.2,8.6,5.7
					c0.2,0.3,0.4,0.6,0.6,0.8L330.1,360.7z"/>
			</g>
			<g>
				<path class="st25" d="M310.1,373.1c-1.5,0-3,0-4.5-0.1c-5.9-0.3-9.7-1.7-11.2-4.2c-1.3-2.1-0.6-4.4-0.1-5.5
					c0.6-1.3,2.2-3.2,4.9-5.9c1.8-1.7,3-2.6,3.6-3.1l0.2,0.1l1.2-0.2l-0.3,0.3c-0.6,0.6-2.3,2.1-4.1,3.7c-2.6,2.6-4.2,4.5-4.7,5.6
					c-0.4,1-1,2.9,0.1,4.6c1.3,2.2,4.9,3.5,10.4,3.8c12,0.6,22.5-1.5,23.4-1.9c0.4-0.4,1.4-4.4,0.7-8.8c0-0.5-0.1-0.9-0.3-1.5l0-0.1
					l1,1.1l-0.1-1.3c0.2,0.7,0.3,1.2,0.3,1.7c0.7,4.6-0.3,9.3-1.2,9.8C328.8,371.2,320.6,373.1,310.1,373.1z"/>
			</g>
			<g>
				<path class="st24" d="M331,361.4l-0.7-0.7c1.3-1.3,3.4-3.9,3.2-5.2c-0.2-1.1-2.8-8.1-3.7-10.7l-0.4-1.1c-1.6-4.4-2.5-9.1-2.6-10
					l0.5,0.8c0.1,0.8,1.6,4.9,3.1,8.8l0.4,1.1c2.5,6.8,3.6,10,3.8,10.9C334.8,357.5,331.4,361,331,361.4z"/>
			</g>
			<g>
				<path class="st24" d="M330.9,345.5l-0.8-1.2c0-0.1,2.6-6.2,1-21.4c-1.3-12.6-3.4-17.6-3.4-17.7l0-0.2c0,0-0.9-42.3-1.1-51.3
					v-0.3h1v0.3c0.2,8.7,1,49,1.1,51.2c0.3,0.8,2.2,5.9,3.5,17.9C333.6,338.3,331,345.3,330.9,345.5z"/>
			</g>
			<g>
				<path class="st24" d="M326.7,246.1c0,0,0-0.1,0-0.3c0-0.8,0-2.4-0.1-4.6c0-0.2-0.5-16.7-0.4-17.6l1.1-0.3
					c-0.1,0.6,0,9.6,0.2,17.8c0,2.1,0.1,3.8,0.1,4.5c0,0.2,0,0.4,0,0.4L326.7,246.1z"/>
			</g>
			<g>
				<path class="st24" d="M321.6,243.6c-0.2,0-0.4,0-0.5,0c-3.5-1.1-4.4-15.8-4.6-18.8l0.9-0.1c0.4,6.8,1.7,17.4,3.9,18
					c2,0.3,5.3-1.7,5.6-1.9l0.7,0.7c0,0,0,0-0.2,0.1C326.8,241.9,323.9,243.6,321.6,243.6z"/>
			</g>
			<g>
				<path class="st24" d="M320.5,250.7c-0.6,0-1.2-0.1-1.8-0.2c-4.8-1-6.1-22.9-6.2-25.3l0.9-0.1c0.5,9,2.4,23.8,5.5,24.5
					c4.3,0.9,7.5-3,7.5-3l-0.1,1.5C326.2,248.1,324.2,250.7,320.5,250.7z"/>
			</g>
			<g>
				<path class="st24" d="M295.8,258.6l-0.2-0.1c0.4-0.6,9.1-9.2,16.6-10.8l0.1,0.9C305.3,250.1,296.5,257.8,295.8,258.6z"/>
			</g>
			<g>
				<path class="st24" d="M283.6,225.7c-0.3,0-0.6-0.1-1-0.2c-0.1,2.5-0.2,19,1.1,24.4l0.4-0.1C282.9,244.7,283.4,228.4,283.6,225.7
					z"/>
			</g>
			<g>
				<path class="st24" d="M293.3,248.6c-0.7-5.2,1.5-21.6,1.6-22.3l1,0.2c0,0.2-2.9,17-2.2,22.1L293.3,248.6z"/>
			</g>
			<g>
				<path class="st23" d="M321.9,173.6c-0.2-1.6-0.4-2.9-0.6-3.8c-0.6-3.1-1.5-8.5-1.6-8.6l0.2-1.4c0,0.1,1.7,6.8,2.3,9.8
					c0.2,0.9,0.4,2.2,0.6,3.8L321.9,173.6z"/>
			</g>
			<g>
				<path class="st22" d="M328.3,182.9c-0.8,0-1.5,0-2.3-0.1c-0.8,0-1.6-0.1-2.6-0.3l-0.4-0.1l0-0.4c0,0-0.5-4.7-1-8.5l1-0.1
					c0.4,3.1,0.9,6.9,1,8.1c0.8,0.1,1.5,0.2,2.2,0.2c7.4,0.5,14-1.7,18.1-3.6c3.5-1.6,5.8-3.3,6.4-3.8c-0.3-0.7-1.6-3.9-2.9-6.9
					l-1-2.3l0.4-0.4l-0.4,0.2l0.9-0.4l1,2.5c2.7,6.5,3,7.2,3,7.4c0,0.8-4.2,3.2-7,4.5C340.8,180.9,335,182.9,328.3,182.9z"/>
			</g>
			<g>
				<path class="st23" d="M346.7,165.1c-1.6-3.7-2.6-6.2-3.1-7.6c-0.6-1.5-1.1-4.1-1.8-7.2c-1.2-5.5-2.6-12.2-4.9-16.4
					c-3.9-6.3-20.2-14.4-20.4-14.5l0-1.3c0.7,0.4,17.1,8.7,21.2,15.3c2.4,4.3,3.8,11.1,5,16.7c0.6,3,1.2,5.6,1.7,7
					c0.5,1.4,1.6,3.9,3.1,7.6L346.7,165.1z"/>
			</g>
			<g>
				<path class="st22" d="M325.8,174.3c-1.1,0-2.3-0.1-3.5-0.3l0.2-1c12.5,2,24.1-8.2,24.2-8.3l0.6,0.7
					C347.3,165.6,337.3,174.3,325.8,174.3z"/>
			</g>
			<g>
				<path class="st21" d="M326.7,254.3c-1.2,0-2-0.6-2.4-1c-0.1-0.1-0.7-0.7-0.7-1.1c0-0.2,0.1-0.5,0.6-1.4c0.4-0.8,1-1.9,1.6-3.2
					c0.2-0.4,0.4-0.9,0.6-1.4l0.3-0.8c0.8-1.7,2.2-4.2,3.4-6.1c0.9-1.5,1.9-3.1,1.9-3.5c0.1-0.9-0.7-14.8-1.9-24.8
					c-0.4-3.2-0.7-5.7-1-7.2c-1.4-6.6-3.6-21-3.6-21.1l1,0.1c0,0.1,2.2,14.2,3.6,20.8c0.3,1.6,0.7,4.1,1.1,7.3
					c1,9.4,2,24.3,1.8,25.2c-0.1,0.4-0.8,1.6-2.1,3.8c-1.1,1.9-2.6,4.3-3.3,6l-0.3,0.7c-0.2,0.6-0.4,1.1-0.6,1.5
					c-0.6,1.3-1.2,2.5-1.7,3.3c-0.2,0.3-0.4,0.7-0.5,0.9c0.2,0.3,1.1,1.2,2.3,1.1c1.1-0.1,2.7-0.9,4.8-4.5l0.3-0.5l0.3,0.8l0.3,0.1
					c-1.9,3.2-3.7,4.9-5.6,5C326.9,254.3,326.8,254.3,326.7,254.3z"/>
			</g>
			<g>
				<path class="st21" d="M331.5,268.6c-0.4,0-0.7-0.1-1-0.2c-0.6-0.4-1-1.1-0.9-2.1c0.1-1.2,0.6-2.7,1.1-4.2
					c0.4-1.3,0.9-2.6,0.9-3.3c0.1-1.2,0-6.3,0-9.4l0-0.3c0-1.3,0-2.3,0-2.4l0.2-0.5c0,0.1,0.7,1.5,0.8,2.8l0,0.3
					c0,3.3,0.1,8.3,0,9.5c0,0.9-0.5,2.2-1,3.6c-0.5,1.5-1,3-1.1,4c0,0.3,0,1,0.4,1.2c0.5,0.3,1.4,0,2.5-0.6c0.3-0.2,0.7-0.5,1.1-0.8
					c2.9-2.3,3.4-4.6,3.5-4.6l1.7-8.3l0.3-0.3l-1.1,8.8c0,0.1-0.6,2.6-3.8,5.1c-0.4,0.3-0.8,0.6-1.2,0.8
					C332.9,268.4,332.1,268.6,331.5,268.6z"/>
			</g>
			<g>
				<path class="st21" d="M335.9,270.7c-1,0-1.9-1.1-2.6-3.2l-0.1-0.2h0.7h-0.2l0.4-0.2l0,0.1l0,0c0.6,1.7,1.3,2.7,1.9,2.5
					c0.2,0,0.8-0.4,2.7-3c1.4-2,2.7-4.2,2.7-4.2l0,0c0,0,2.2-6.9,2.2-10.2l0.5-0.2c0,3.4-1.7,10.6-1.8,10.8
					c-0.1,0.1-1.4,2.3-2.8,4.4c-2,2.7-2.7,3.2-3.2,3.4C336.2,270.7,336,270.7,335.9,270.7z"/>
			</g>
			<g>
				<path class="st21" d="M339.7,267.7c-0.2,0-0.4,0-0.5-0.1l0.4-0.9l-0.2,0.4l0.2-0.4c0.2,0,1.7-0.2,3.2-2.3c0,0,0.1-0.1,0.1-0.2
					c1.5-2.5,3.9-7.8,4.1-8.5l0.7-5.2l0.5,0l-0.3,5.6c-0.1,0.2-2.6,6-4.2,8.5c0,0-0.1,0.1-0.1,0.2l-0.1,0.1
					C342.2,266.9,340.6,267.7,339.7,267.7z"/>
			</g>
			<g>
				<path class="st21" d="M342.8,265.8l0.5-0.9l0,0c0,0,0.1-0.1,0.3-0.2c1.2-0.9,4.4-4.1,5.3-6.8c0.9-2.8,1.3-4.6,1.4-5.1
					c-0.5-1.4-5.3-14.4-6.6-17.4l0-0.1l0-0.1c0-0.4,3.1-36.1,0.1-55.9l1-0.3c3,19.3,0.1,53.8-0.1,56.2c1.4,3.4,6.5,17.3,6.6,17.5
					l0,0.1l0,0.1c0,0.1-0.3,2-1.5,5.4c-1,3-4.6,6.4-5.7,7.3C343.9,265.6,342.9,265.8,342.8,265.8z"/>
			</g>
			<g>
				<path class="st21" d="M252.1,245l-0.9-0.4l0.3-0.5c0.5-1,2-4.4,2-6.5c0-0.7-0.1-1.4-0.3-2.4c-0.1-0.3-0.1-0.6-0.2-0.9
					c-0.3-1.6-0.7-3.3-0.3-5.1l0-0.1c1.3-2.4,3.6-10.5,4.7-14.4c0.5-1.8,0.6-2.3,0.6-2.5l0.4,0.3l0.5,0.3l0.2-0.4
					c-0.1,0.2-0.4,1.2-0.7,2.5c-1.2,4.2-3.3,12-4.7,14.5c-0.3,1.6,0,3.2,0.3,4.7c0.1,0.3,0.1,0.6,0.2,0.9c0.2,1,0.3,1.8,0.3,2.6
					c0,2.2-1.4,5.6-2.1,6.9L252.1,245z"/>
			</g>
			<g>
				<path class="st21" d="M254.4,250.7c-0.2,0-0.5,0-0.7-0.1c-0.4-0.1-0.3-0.2-0.3-0.2l0-1c0,0,0.3,0.2,0.6,0.2
					c0.9,0.3,1-0.2,1.1-0.3c0.2-0.5-1.3-2.8-3.3-4.8c-0.2-0.2-0.3-0.3-0.3-0.3l0.7-0.7c0,0,0.1,0.1,0.3,0.3c1,1,4.1,4.3,3.5,5.8
					C255.6,250.4,255.1,250.7,254.4,250.7z"/>
			</g>
			<g>
				<path class="st21" d="M254.4,254.7c-0.2,0-0.5,0-0.7-0.1l0.2-0.9c0.3,0.1,0.8,0.1,0.9-0.1c0.3-0.4,0-1.4-0.5-2
					c-0.2-0.2-0.4-0.5-0.6-0.8l-0.3-0.3c-1.2-1.3-2.4-4-2.4-4l0.3,0.2c0,0,1.7,1.8,2.8,3.1l0.3,0.3c0.3,0.3,0.5,0.6,0.7,0.8
					c0.6,0.7,1.1,2.2,0.5,3.2C255.5,254.4,255.1,254.7,254.4,254.7z"/>
			</g>
			<g>
				<path class="st21" d="M252.3,258.1c-0.7,0-1.4-0.1-1.8-0.2l0.2-0.9c0.9,0.2,2.2,0.4,2.9-0.1c0.2-0.2,0.4-0.4,0.5-0.7
					c0.1-0.4-0.2-0.9-0.7-1.5c-1.1-1.4-3.1-2.8-3.1-2.8l-0.2-0.1l0-0.2c-0.1-1.2-0.5-2.9-0.6-3.2l0.2-0.5c0.2,0.4,1.2,2.2,1.4,3.4
					c0.5,0.4,2.1,1.6,3.1,2.9c0.7,0.9,1,1.7,0.9,2.3c-0.1,0.6-0.4,1.1-0.9,1.4C253.6,258,252.9,258.1,252.3,258.1z"/>
			</g>
			<g>
				<path class="st21" d="M247.2,253.2c-0.5-2.4-1-5-1-5.3l-0.5-0.1l-0.5-0.1c0,0.1-0.1,0.4,1,5.9l0,0.2l0.2,0.1
					c1.3,0.8,3.4,2.5,3.6,3.5c0,0.2,0,0.4-0.2,0.6c-1.4,1.4-6.6-1.2-7.6-2.1c-0.8-0.7-4.1-11-3.9-12.2c0.1-0.6,1.9-5.1,3.3-8.7
					c1.4-3.7,2.7-6.9,2.8-7.5c0.1-0.2,0.2-0.6,0.3-1.1c0.6-2.1,2-6.5,2.3-12.9c0.4-6.9,4-29.5,4.9-35c0,0-0.1,0-0.1,0
					c-0.3-0.1-0.6-0.2-0.8-0.3c0,0,0,0,0,0c-0.9,5.3-4.6,28.3-4.9,35.2c-0.3,6.3-1.6,10.6-2.3,12.7c-0.1,0.5-0.3,0.9-0.3,1.1
					c-0.1,0.6-1.5,4-2.8,7.4c-1.9,4.9-3.2,8.2-3.3,8.9c-0.2,1.4,3,12,4.2,13.1c0.7,0.6,4.4,2.7,7,2.7c0.8,0,1.5-0.2,1.9-0.7
					c0.4-0.4,0.5-0.9,0.4-1.4C250.7,255.6,248,253.7,247.2,253.2z"/>
			</g>
			<g>
				<path class="st21" d="M245.2,248.2c-0.9,0-1.9-0.2-2.3-0.9c-0.2-0.4-0.6-1.1,3.1-14.2c0.1-0.4,0.2-0.7,0.2-0.8l0.4-0.1
					c0,0.1,0.1,0.5-0.1,0.9c-3.2,11.1-3,13.3-2.9,13.6c0.2,0.3,0.9,0.5,1.9,0.4c0.8-0.1,1.9-0.5,2.4-1.3c1.1-1.8,1.6-5.6,1.6-5.6
					l0-0.2l0.2-0.1c0,0,3.5-1.9,3.4-4.9l0.2,0.1c0.1,3.1-2.2,5-2.9,5.5c-0.1,0.9-0.7,4.1-1.7,5.8c-0.6,1-1.7,1.6-3.1,1.7
					C245.6,248.2,245.4,248.2,245.2,248.2z"/>
			</g>
			<g>
				<path class="st24" d="M290.1,363.1l-1-0.1c0.1-0.9,0-1.9-0.3-3.1l0-0.1h1C290.1,361,290.2,362.1,290.1,363.1z"/>
			</g>
			<g>
				<path class="st25" d="M269.2,368.3c-8.2,0-16.7-0.3-18.1-0.8c-2.5-0.9-4.6-3.9-4.7-5.8c-0.1-1.8,3.5-4.5,9.8-8.6
					c1.3-0.9,3.3-1.9,5.9-2.9c3.6-1.4,6.3-2.3,6.3-2.3l1,0.8c0,0-3.5,1.1-7,2.4c-2.5,1-4.4,1.9-5.7,2.8c-2.8,1.9-9.5,6.2-9.4,7.8
					c0.1,1.6,1.9,4.2,4.1,5c2,0.7,29.9,1.1,33.7,0.1c2.6-0.7,3.8-1.8,4-3.7l1,0.1c-0.4,3-2.7,4-4.8,4.5
					C283.7,368.1,276.5,368.3,269.2,368.3z"/>
			</g>
		</g>
		<ellipse class="st8" cx="306.2" cy="83.7" rx="1.1" ry="1.5"/>
		<ellipse class="st8" cx="274.4" cy="81.1" rx="1" ry="1.4"/>
	</g>
</g>
</svg>
