<?xml version="1.0" encoding="utf-8"?>
<!-- Generator: Adobe Illustrator 21.1.0, SVG Export Plug-In . SVG Version: 6.00 Build 0)  -->
<svg version="1.1" id="Layer_1" xmlns="http://www.w3.org/2000/svg" xmlns:xlink="http://www.w3.org/1999/xlink" x="0px" y="0px"
	 viewBox="0 0 366.3 590.2" style="enable-background:new 0 0 366.3 590.2;" xml:space="preserve">
<style type="text/css">
	.st0{fill-rule:evenodd;clip-rule:evenodd;fill:none;stroke:#F16074;stroke-width:1.0946;stroke-miterlimit:10;}
	.st1{fill:#622272;}
	.st2{fill-rule:evenodd;clip-rule:evenodd;fill:#FCE37E;}
	.st3{fill:none;stroke:#622272;stroke-width:1.1357;stroke-miterlimit:10;}
	.st4{fill:none;stroke:#622272;stroke-width:0.8518;stroke-linecap:round;stroke-linejoin:round;stroke-miterlimit:10;}
</style>
<g>
	<g>
		<path class="st0" d="M347,589.6H19.3c-10.3,0-18.7-8.4-18.7-18.7V19.3C0.5,8.9,8.9,0.5,19.3,0.5H347c10.3,0,18.7,8.4,18.7,18.7
			v551.6C365.7,581.2,357.3,589.6,347,589.6z"/>
	</g>
	<g>
		<polygon class="st1" points="123.8,52.8 129.2,52 129.2,50.3 123.8,51.1 		"/>
		<path class="st1" d="M130.7,32.8c0.9,0,1.6-0.7,1.6-1.6c0-0.9-0.7-1.6-1.6-1.6c-0.9,0-1.6,0.7-1.6,1.6
			C129.1,32.1,129.8,32.8,130.7,32.8z"/>
		<path class="st1" d="M128.9,34.3c-4.2,0-6.3,2.8-6.3,6c0,3.4,1.8,5.5,6.4,5.5h5.3v-6.1C134.3,36.5,132.6,34.3,128.9,34.3z
			 M131.2,43.4h-1.8c-2.5,0-3.6-1.1-3.6-3.4c0-1.9,1.1-3.2,2.9-3.2c1.6,0,2.6,1,2.6,3.4V43.4z"/>
		<path class="st1" d="M126.7,32.8c0.9,0,1.6-0.7,1.6-1.6c0-0.9-0.7-1.6-1.6-1.6c-0.9,0-1.6,0.7-1.6,1.6
			C125.1,32.1,125.8,32.8,126.7,32.8z"/>
		<polygon class="st1" points="143.4,41.6 139.9,28.8 136.7,29.3 140.1,41.6 		"/>
		<path class="st1" d="M162.8,29c0.1,0.5,0,0.9-0.4,0.9c-0.2,0-0.4-0.2-0.5-0.6l-0.2-0.9l-1.2,0.2l0.1,0.9c0.1,0.4-0.1,0.7-0.4,0.7
			c-0.3,0-0.4-0.1-0.5-0.5l-0.1-0.9l-1.2,0.2l0.2,0.9c0.2,1.1,0.5,1.6,1.3,1.6c0.6,0,1.2-0.3,1.4-0.9c0.2,0.3,0.6,0.5,1,0.5
			c1.3,0,1.9-0.9,1.7-2.4l-0.1-0.9l-1.2,0.2L162.8,29z"/>
		<polygon class="st1" points="163.4,26.8 163.2,25.7 158.1,26.4 158.4,27.6 		"/>
		<path class="st1" d="M171.9,43.4h-2.6h-0.4h-1.8c0.1-1.1,0.1-2.2,0.1-3.3c0-3.6-1.6-5.8-4.9-5.8c-2.6,0-5,1.6-6.2,4.5h0
			c0.2-1.2,0.3-2.5,0.3-3.6v-0.6h-3.2v8.8h-2.5h-0.4h-2V29h-3.2v14.4h-7.4v2.5h12.6h0.4h18.3h0.4h5.8V29h-3.2V43.4z M163.8,43.4
			h-7.5c0.6-3.4,2.7-6.6,5.3-6.6c1.7,0,2.3,1.4,2.3,3.6C164,41.4,163.9,42.5,163.8,43.4z"/>
		<rect x="179.2" y="29" class="st1" width="3.2" height="16.9"/>
		<path class="st1" d="M191.8,26.7l3.7-0.8c1.3-0.3,2.1-1,2.1-2.2c0-1-0.7-1.9-2-1.9c-1.3,0-2.4,1-2.4,2.3c0,0.4,0.1,0.9,0.1,0.9
			l-1.8,0.4L191.8,26.7z M195.5,23.2c0.4,0,0.7,0.3,0.7,0.6c0,0.4-0.3,0.8-0.8,0.8l-0.6,0.1c0,0-0.1-0.4-0.1-0.7
			C194.6,23.6,195,23.2,195.5,23.2z"/>
		<path class="st1" d="M202.3,34.3c-2.6,0-5,1.6-6.2,4.5h0c0.2-1.2,0.3-2.5,0.3-3.6V29h-3.2v14.4h-2.9v2.5h16.6
			c0.2-1.8,0.3-3.9,0.3-5.8C207.1,36.5,205.6,34.3,202.3,34.3z M203.8,43.4h-7.5c0.6-3.4,2.7-6.6,5.3-6.6c1.7,0,2.3,1.4,2.3,3.6
			C203.9,41.4,203.8,42.5,203.8,43.4z"/>
		<path class="st1" d="M221,35.2c0,0-2.2-0.8-5-0.8c-4.4,0-6.4,2.9-6.4,6c0,3.4,1.8,5.6,6.4,5.6h1.9v0.4c0,2.3-1.7,3.2-4.2,3.2
			c-1.9,0-3.7-0.4-3.7-0.4l-0.2,2.6c0,0,1.8,0.3,3.6,0.3c5.4,0,7.5-2.7,7.5-6V35.2z M217.9,43.4h-1.5c-2.5,0-3.6-1.2-3.6-3.4
			c0-1.9,1.1-3.2,2.9-3.2c1.4,0,2.3,0.4,2.3,0.4V43.4z"/>
		<path class="st1" d="M238.6,24.8l3.7-0.8c1.3-0.3,2.1-1,2.1-2.2c0-1-0.7-1.9-2-1.9c-1.3,0-2.4,1-2.4,2.3c0,0.4,0.1,0.9,0.1,0.9
			l-1.8,0.4L238.6,24.8z M242.3,21.2c0.4,0,0.7,0.3,0.7,0.6c0,0.4-0.3,0.8-0.8,0.8l-0.6,0.1c0,0-0.1-0.4-0.1-0.7
			C241.4,21.7,241.8,21.2,242.3,21.2z"/>
		<path class="st1" d="M243.1,27.9c0-0.8-0.6-1.5-1.5-1.5c-0.8,0-1.5,0.7-1.5,1.5s0.6,1.5,1.5,1.5C242.5,29.4,243.1,28.7,243.1,27.9
			z"/>
		<path class="st1" d="M242,31.2c0,0.9,0.7,1.6,1.6,1.6c0.9,0,1.6-0.7,1.6-1.6c0-0.9-0.7-1.6-1.6-1.6C242.7,29.6,242,30.3,242,31.2z
			"/>
		<path class="st1" d="M249.3,33.7l-3.1,0.4c0.4,1.8,0.7,4,0.7,6.4c0,0.7-0.1,1.9-0.2,2.9h-0.8c-2.1,0-2.6-0.7-2.6-2.7v-5.6h-3v5.7
			c0,1.7-0.4,2.8-1.8,2.8c-1.4,0-1.8-1-1.8-2.8v-4.8h-3.2v4.3c0,2.4-0.6,3-2.2,3h-0.4h-0.4h-2v-8.8h-3.2v11.5c0,2.6-1,3.4-2.6,3.4
			c-0.8,0-1.4-0.1-1.9-0.3l-0.3,2.5c0.6,0.1,1.3,0.2,2,0.2c4.9,0,5.9-2.9,5.9-6v-0.1h2h0.4h0.4c1.8,0,2.8-0.6,3.2-1.8
			c0.4,1.2,1.7,2,3.4,2c1.5,0,2.9-0.6,3.5-2c0.5,1.3,1.8,1.8,3.9,1.8h4.5c0.2-1.7,0.4-3.8,0.4-5.6C250.1,38,249.8,35.6,249.3,33.7z"
			/>
		<path class="st1" d="M239.7,32.8c0.9,0,1.6-0.7,1.6-1.6c0-0.9-0.7-1.6-1.6-1.6c-0.9,0-1.6,0.7-1.6,1.6
			C238.1,32.1,238.8,32.8,239.7,32.8z"/>
	</g>
	<g>
		<path class="st1" d="M250.6,168.8c-2.4,0-3.7,1.4-4.1,3.3h-0.5c-2.4,0-3.2,1.5-2.8,3.7l0.8,5.3h1.5l-0.9-5.4
			c-0.3-1.7,0.1-2.4,1.3-2.4h0.5c0.1,2.1,1.3,3.5,4.3,3.5h3.3v-4.2C254.1,170.2,252.9,168.8,250.6,168.8z M252.6,175.5H251
			c-2.1,0-3-0.9-3-2.8c0-1.7,0.9-2.7,2.5-2.7c1.4,0,2.2,0.8,2.2,2.8V175.5z"/>
		<polygon class="st1" points="260.4,174.1 257.8,165 256.2,165.2 258.9,174.1 		"/>
		<path class="st1" d="M276,168.7c0.3,1.2,0.5,2.8,0.5,4.6c0,0.6,0,1.6-0.1,2.3h-0.8c-1.8,0-2.2-0.5-2.2-2.2v-4H272v4
			c0,1.4-0.3,2.3-1.5,2.3c-1.2,0-1.6-0.9-1.6-2.3V170h-1.5v3.3c0,1.8-0.5,2.3-1.7,2.3h-0.3h-0.2h-1.6v-10.4H262v10.4h-5.1v1.2h8.2
			h0.2h0.3c1.3,0,1.9-0.5,2.2-1.3c0.2,0.9,1,1.5,2.3,1.5c1.1,0,2-0.5,2.3-1.5c0.3,0.9,1.2,1.3,2.8,1.3h2.5c0.2-1.1,0.3-2.5,0.3-3.6
			c0-1.8-0.2-3.5-0.6-4.7L276,168.7z"/>
		<polygon class="st1" points="286,175.5 280.9,175.5 280.9,176.7 287.5,176.7 287.5,165.1 286,165.1 		"/>
		<polygon class="st1" points="284.3,174.1 281.7,165 280.1,165.2 282.8,174.1 		"/>
		<path class="st1" d="M282.9,179.4c0-0.3,0.3-0.5,0.8-0.5c0.3,0,0.6,0,0.8,0.1l0.1-0.9c-0.2,0-0.5-0.1-0.9-0.1
			c-1.3,0-1.9,0.7-1.9,1.5c0,0.3,0.1,0.5,0.3,0.6c-0.3,0-0.6,0-1,0v0.9h3.9V180h-1C283.2,180,282.9,179.8,282.9,179.4z"/>
		<rect x="290.6" y="165.1" class="st1" width="1.5" height="11.6"/>
	</g>
	<g>
		<path class="st1" d="M87,167.5c0.5,0,0.9-0.4,0.9-0.9s-0.4-0.9-0.9-0.9c-0.5,0-0.9,0.4-0.9,0.9C86.1,167.1,86.5,167.5,87,167.5z"
			/>
		<path class="st1" d="M84.6,167.5c0.5,0,0.9-0.4,0.9-0.9s-0.4-0.9-0.9-0.9c-0.5,0-0.9,0.4-0.9,0.9
			C83.7,167.1,84.1,167.5,84.6,167.5z"/>
		<path class="st1" d="M103.2,175.5h-2.1h-0.2h-0.8c-0.9,0-1.7-0.3-2.4-0.8c1.3-1,2-2.3,2-3.4c0-1.3-0.9-2.6-3.2-2.6
			c-1.7,0-3.5,1-4.8,2l-0.1,1.1c1.7,0.5,2.8,1.8,4,2.9c-1.2,0.5-2.7,0.9-4.5,0.9h-0.3h-0.2h-0.9c-0.6,0-1.4,0-1.4,0
			c0.8-0.6,1.3-1.8,1.3-3c0-2.8-1.6-3.8-3.7-3.8c-2.5,0-4,1.8-4,4c0,1.3,0.4,2.2,1.1,2.8c0,0-0.6,0-1.2,0h-0.7h-0.2h-1.5v-10.4h-1.5
			v10.8c0,2.6-1.1,3.5-2.4,3.5c-1.3,0-2.7-0.7-2.7-3.5c0-1.1,0.1-2.2,0.5-3.3l-1.6,0.3c-0.3,1-0.4,2.1-0.4,3.1
			c0,3.4,1.8,4.6,4.1,4.6c2.1,0,3.7-1.1,4-3.8h1.6h0.2h9.5h0.2H91c2.3,0,4.2-0.5,5.6-1.2c0.9,0.7,1.9,1.2,3.4,1.2h1h0.2h3.6v-11.6
			h-1.5V175.5z M85.7,175.5c-1.5,0-2.3-1-2.3-2.8c0-1.9,1.1-2.7,2.3-2.7c1.5,0,2.3,1,2.3,2.7C88,174.7,87,175.5,85.7,175.5z
			 M96.8,174c-1.1-1-2.1-2.2-3.6-2.7c0.7-0.5,2-1.3,3.2-1.3c1.3,0,1.8,0.7,1.8,1.6C98.3,172.4,97.8,173.3,96.8,174z"/>
		<rect x="107.9" y="165.1" class="st1" width="1.5" height="11.6"/>
	</g>
	<g>
		<path class="st1" d="M253.4,309.9c-2.1,0-3-0.9-3-2c0-1,0.5-2.1,3.3-2.1h2.1v-1.2h-1.2c-2.6,0-3.7-1.3-3.7-2.9
			c0-1.7,1-2.7,2.6-2.7c1,0,1.7,0.2,1.7,0.2l0.2-1.2c0,0-0.8-0.2-1.8-0.2c-2.7,0-4.2,1.6-4.2,3.9c0,1.7,1,2.8,2.2,3.2
			c-1.8,0.3-2.8,1.4-2.8,3c0,1.7,1.3,3.1,4.4,3.1c1.5,0,2.8-0.3,2.8-0.3l-0.1-1.2C256,309.6,254.7,309.9,253.4,309.9z"/>
		<path class="st1" d="M253,296.2c0.5,0,0.9-0.4,0.9-0.9c0-0.5-0.4-0.9-0.9-0.9s-0.9,0.4-0.9,0.9C252.1,295.8,252.5,296.2,253,296.2
			z"/>
		<path class="st1" d="M274,307.4c-0.5,0-0.9,0.4-0.9,0.9c0,0.5,0.4,0.9,0.9,0.9c0.5,0,0.9-0.4,0.9-0.9
			C274.9,307.8,274.5,307.4,274,307.4z"/>
		<path class="st1" d="M279.7,304.6h-2.1h-0.2h-1.6v-6.6h-1.5v6.6h-2.2h-0.2h-1.6v-10.4h-1.5v10.4h-2.1h-0.2h-1.6v-6.2
			c0,0-1.5-0.6-3.3-0.6c-2.8,0-4.2,1.9-4.2,4.1c0,2.3,1.2,3.8,4.3,3.8h1.7v0.4c0,1.9-1.4,2.6-3.2,2.6c-1.3,0-2.6-0.3-2.6-0.3
			l-0.1,1.3c0,0,1.3,0.2,2.6,0.2c3.5,0,4.8-1.9,4.8-3.9v-0.3h1.6h0.2h5.2h0.2h5.3h0.2h3.6v-11.6h-1.5V304.6z M263.4,304.6H262
			c-2.1,0-3-0.9-3-2.8c0-1.6,0.9-2.7,2.5-2.7c1.2,0,2,0.4,2,0.4V304.6z"/>
		<rect x="284.4" y="294.2" class="st1" width="1.5" height="11.6"/>
	</g>
	<g>
		<path class="st1" d="M230.8,555.6c0.5,0,0.9-0.4,0.9-0.9c0-0.5-0.4-0.9-0.9-0.9c-0.5,0-0.9,0.4-0.9,0.9
			C229.9,555.3,230.3,555.6,230.8,555.6z"/>
		<path class="st1" d="M233.3,555.6c0.5,0,0.9-0.4,0.9-0.9c0-0.5-0.4-0.9-0.9-0.9c-0.5,0-0.9,0.4-0.9,0.9
			C232.4,555.3,232.8,555.6,233.3,555.6z"/>
		<path class="st1" d="M242.1,555.6c0.5,0,0.9-0.4,0.9-0.9c0-0.5-0.4-0.9-0.9-0.9c-0.5,0-0.9,0.4-0.9,0.9
			C241.2,555.3,241.6,555.6,242.1,555.6z"/>
		<path class="st1" d="M243.5,557c-2.7,0-4.1,1.9-4.1,4c0,1.4,0.4,2.3,1.2,2.8c0,0-0.4-0.1-1-0.1h-1.1h-0.2h-1.6v-6.6h-1.5v6.6h-2.8
			c-3.5,0-4.4-1.3-4.4-3.8c0-0.9,0.2-2.1,0.6-2.8l-1.6,0.3c-0.3,0.6-0.5,1.8-0.5,2.7c0,3.1,1.6,4.8,5.8,4.8h6.1h0.2h8.5v-4.2
			C247,558.3,245.8,557,243.5,557z M245.5,563.7h-1.6c-2.1,0-3-0.9-3-2.8c0-1.7,0.9-2.7,2.5-2.7c1.4,0,2.2,0.8,2.2,2.8V563.7z"/>
		<path class="st1" d="M244.5,555.6c0.5,0,0.9-0.4,0.9-0.9c0-0.5-0.4-0.9-0.9-0.9c-0.5,0-0.9,0.4-0.9,0.9
			C243.6,555.3,244,555.6,244.5,555.6z"/>
		<path class="st1" d="M260.5,563.7h-2.1h-0.2h-1.6v-6.2c0,0-1.5-0.6-3.3-0.6c-2.8,0-4.2,1.9-4.2,4.1c0,2.3,1.2,3.8,4.3,3.8h1.7v0.4
			c0,1.9-1.4,2.6-3.2,2.6c-1.3,0-2.6-0.3-2.6-0.3l-0.1,1.3c0,0,1.3,0.2,2.6,0.2c3.5,0,4.8-1.9,4.8-3.9v-0.3h1.6h0.2h3.6v-11.6h-1.5
			V563.7z M255.2,563.7h-1.5c-2.1,0-3-0.9-3-2.8c0-1.6,0.9-2.7,2.5-2.7c1.2,0,2,0.4,2,0.4V563.7z"/>
		<rect x="265.2" y="553.3" class="st1" width="1.5" height="11.6"/>
		<path class="st1" d="M279.9,564.1c0,2.6-1.1,3.4-2.4,3.4c-1.3,0-2.7-0.7-2.7-3.5c0-1.1,0.1-2.2,0.5-3.3l-1.6,0.3
			c-0.3,1-0.4,2.1-0.4,3.1c0,3.4,1.8,4.6,4.1,4.6c2.4,0,4.1-1.4,4.1-4.8v-10.7h-1.5V564.1z"/>
		<path class="st1" d="M296.6,555.4c0.5,0,0.9-0.4,0.9-0.9c0-0.5-0.4-0.9-0.9-0.9c-0.5,0-0.9,0.4-0.9,0.9
			C295.7,555,296.1,555.4,296.6,555.4z"/>
		<path class="st1" d="M296.2,557.1c-0.7,0-1.4,0-2,0.1v1.2c0.6-0.1,1.2-0.1,1.8-0.1c2.7,0,3.6,1.2,3.6,3.7c0,0.5,0,1.1-0.1,1.7H293
			h-0.2h-1.6v-6.2c0,0-1.5-0.6-3.3-0.6c-2.8,0-4.2,1.9-4.2,4.1c0,2.3,1.2,3.8,4.3,3.8h1.7v0.4c0,1.9-1.4,2.6-3.2,2.6
			c-1.3,0-2.6-0.3-2.6-0.3l-0.1,1.3c0,0,1.3,0.2,2.6,0.2c3.5,0,4.8-1.9,4.8-3.9v-0.3h1.6h0.2h7.9c0.2-1.2,0.3-2.2,0.3-3
			C301.2,558.8,299.8,557.1,296.2,557.1z M289.7,563.7h-1.5c-2.1,0-3-0.9-3-2.8c0-1.6,0.9-2.7,2.5-2.7c1.2,0,2,0.4,2,0.4V563.7z"/>
		<path class="st1" d="M304.7,556.8l-0.4,1.3c2.9,0.9,4.1,2.6,4.2,5.6h-5.3v1.2h6.8v-0.8C309.9,559.9,308.2,557.9,304.7,556.8z"/>
	</g>
	<g>
		<path class="st1" d="M61.4,560.7c0-2.3-1.2-3.7-3.5-3.7c-2.7,0-4.1,1.9-4.1,4.1c0,2.3,1.2,3.8,4.3,3.8h3.3V560.7z M59.9,563.7
			h-1.6c-2.1,0-3-0.9-3-2.8c0-1.7,0.9-2.7,2.5-2.7c1.4,0,2.2,0.8,2.2,2.8V563.7z"/>
		<path class="st1" d="M56.6,555.6c0.5,0,0.9-0.4,0.9-0.9c0-0.5-0.4-0.9-0.9-0.9c-0.5,0-0.9,0.4-0.9,0.9
			C55.7,555.3,56.1,555.6,56.6,555.6z"/>
		<path class="st1" d="M59,555.6c0.5,0,0.9-0.4,0.9-0.9c0-0.5-0.4-0.9-0.9-0.9c-0.5,0-0.9,0.4-0.9,0.9
			C58.1,555.3,58.5,555.6,59,555.6z"/>
		<path class="st1" d="M64.8,565.1c0,2.2-0.8,2.8-2.2,2.8c-0.6,0-1.2-0.1-1.7-0.3l-0.2,1.3c0.5,0.1,1.1,0.2,1.7,0.2
			c3,0,3.8-1.8,3.8-4.2v-7.8h-1.5V565.1z"/>
		<path class="st1" d="M90.2,563.7h-2.1h-0.2h-0.8c-0.9,0-1.7-0.3-2.4-0.8c1.3-1,2-2.3,2-3.4c0-1.3-0.9-2.6-3.2-2.6
			c-1.7,0-3.5,1-4.8,2l-0.1,1.1c1.7,0.5,2.8,1.8,4,2.9c-1.2,0.5-2.7,0.9-4.5,0.9h-0.3h-0.2h-1.6v-6.2c0,0-1.5-0.6-3.3-0.6
			c-2.8,0-4.2,1.9-4.2,4.1c0,2.3,1.2,3.8,4.3,3.8h1.7v0.4c0,1.9-1.4,2.6-3.2,2.6c-1.3,0-2.6-0.3-2.6-0.3l-0.1,1.3
			c0,0,1.3,0.2,2.6,0.2c3.5,0,4.8-1.9,4.8-3.9v-0.3h1.6h0.2h0.2c2.3,0,4.2-0.5,5.6-1.2c0.9,0.7,1.9,1.2,3.4,1.2h1h0.2h3.6v-11.6
			h-1.5V563.7z M74.5,563.7H73c-2.1,0-3-0.9-3-2.8c0-1.6,0.9-2.7,2.5-2.7c1.2,0,2,0.4,2,0.4V563.7z M83.8,562.1
			c-1.1-1-2.1-2.2-3.6-2.7c0.7-0.5,2-1.3,3.2-1.3c1.3,0,1.8,0.7,1.8,1.6C85.2,560.5,84.7,561.4,83.8,562.1z"/>
		<rect x="94.8" y="553.3" class="st1" width="1.5" height="11.6"/>
		<path class="st1" d="M113,555.6c0.5,0,0.9-0.4,0.9-0.9c0-0.5-0.4-0.9-0.9-0.9c-0.5,0-0.9,0.4-0.9,0.9
			C112.1,555.3,112.5,555.6,113,555.6z"/>
		<path class="st1" d="M110.5,555.6c0.5,0,0.9-0.4,0.9-0.9c0-0.5-0.4-0.9-0.9-0.9c-0.5,0-0.9,0.4-0.9,0.9
			C109.7,555.3,110,555.6,110.5,555.6z"/>
		<path class="st1" d="M126.6,556.6l-1.5,0.3c0.3,1.2,0.5,2.8,0.5,4.6c0,0.6,0,1.6-0.1,2.3h-0.8c-1.8,0-2.2-0.5-2.2-2.2v-4h-1.5v4
			c0,1.4-0.3,2.3-1.5,2.3c-1.2,0-1.6-0.9-1.6-2.3v-3.4h-1.5v3.3c0,1.8-0.5,2.3-1.7,2.3h-0.3h-0.2h-1.5v-6.6h-1.5v6.6h-2.2h-0.2h-1.6
			v-6.6h-1.5v8c0,2.2-0.8,2.8-2.2,2.8c-0.6,0-1.2-0.1-1.7-0.3l-0.2,1.3c0.5,0.1,1.1,0.2,1.7,0.2c3,0,3.8-1.8,3.8-4.2v-0.1h1.6h0.2
			h5.2h0.2h0.3c1.3,0,1.9-0.5,2.2-1.3c0.2,0.9,1,1.5,2.3,1.5c1.1,0,2-0.5,2.3-1.5c0.3,0.9,1.2,1.3,2.8,1.3h2.5
			c0.2-1.1,0.3-2.5,0.3-3.6C127.2,559.5,126.9,557.8,126.6,556.6z"/>
	</g>
	<g>
		<path class="st1" d="M221.9,426.6c0.5,0,0.9-0.4,0.9-0.9c0-0.5-0.4-0.9-0.9-0.9c-0.5,0-0.9,0.4-0.9,0.9
			C221,426.2,221.4,426.6,221.9,426.6z"/>
		<path class="st1" d="M224.3,426.6c0.5,0,0.9-0.4,0.9-0.9c0-0.5-0.4-0.9-0.9-0.9c-0.5,0-0.9,0.4-0.9,0.9
			C223.4,426.2,223.8,426.6,224.3,426.6z"/>
		<path class="st1" d="M235.6,437.4c-0.5,0-0.9,0.4-0.9,0.9c0,0.5,0.4,0.9,0.9,0.9s0.9-0.4,0.9-0.9
			C236.5,437.8,236.1,437.4,235.6,437.4z"/>
		<path class="st1" d="M245.2,426.6c0.5,0,0.9-0.4,0.9-0.9c0-0.5-0.4-0.9-0.9-0.9c-0.5,0-0.9,0.4-0.9,0.9
			C244.3,426.2,244.7,426.6,245.2,426.6z"/>
		<path class="st1" d="M242.8,426.6c0.5,0,0.9-0.4,0.9-0.9c0-0.5-0.4-0.9-0.9-0.9c-0.5,0-0.9,0.4-0.9,0.9
			C241.9,426.2,242.3,426.6,242.8,426.6z"/>
		<path class="st1" d="M251.1,434.6H249h-0.2h-0.9c-0.6,0-1.4,0-1.4,0c0.8-0.6,1.3-1.8,1.3-3c0-2.8-1.6-3.8-3.7-3.8
			c-2.5,0-4,1.8-4,4c0,1.3,0.4,2.2,1.1,2.8c0,0-0.6,0-1.2,0h-0.7H239h-1.6v-6.6h-1.5v6.6h-2.2h-0.2h-1.6v-10.4h-1.5v10.4h-2.1h-0.2
			h-1.6v-6.2c0,0-1.5-0.6-3.3-0.6c-2.8,0-4.2,1.9-4.2,4.1c0,2.3,1.2,3.8,4.3,3.8h4.7h0.2h5.2h0.2h5.3h0.2h9.5h0.2h3.6v-11.6h-1.5
			V434.6z M225,434.6h-1.5c-2.1,0-3-0.9-3-2.8c0-1.6,0.9-2.7,2.5-2.7c1.2,0,2,0.4,2,0.4V434.6z M243.9,434.6c-1.5,0-2.3-1-2.3-2.8
			c0-1.9,1.1-2.7,2.3-2.7c1.5,0,2.3,1,2.3,2.7C246.2,433.8,245.2,434.6,243.9,434.6z"/>
		<rect x="255.8" y="424.2" class="st1" width="1.5" height="11.6"/>
		<path class="st1" d="M270.5,435c0,2.6-1.1,3.4-2.4,3.4c-1.3,0-2.7-0.7-2.7-3.5c0-1.1,0.1-2.2,0.5-3.3l-1.6,0.3
			c-0.3,1-0.4,2.1-0.4,3.1c0,3.4,1.8,4.6,4.1,4.6c2.4,0,4.1-1.4,4.1-4.8v-10.7h-1.5V435z"/>
		<path class="st1" d="M280.2,437.4c-0.5,0-0.9,0.4-0.9,0.9c0,0.5,0.4,0.9,0.9,0.9s0.9-0.4,0.9-0.9
			C281.1,437.8,280.7,437.4,280.2,437.4z"/>
		<path class="st1" d="M287.4,426.6c0.5,0,0.9-0.4,0.9-0.9c0-0.5-0.4-0.9-0.9-0.9c-0.5,0-0.9,0.4-0.9,0.9
			C286.5,426.2,286.9,426.6,287.4,426.6z"/>
		<path class="st1" d="M289.8,426.6c0.5,0,0.9-0.4,0.9-0.9c0-0.5-0.4-0.9-0.9-0.9c-0.5,0-0.9,0.4-0.9,0.9
			C288.9,426.2,289.3,426.6,289.8,426.6z"/>
		<path class="st1" d="M295.1,426.6c0.5,0,0.9-0.4,0.9-0.9c0-0.5-0.4-0.9-0.9-0.9c-0.5,0-0.9,0.4-0.9,0.9
			C294.2,426.2,294.6,426.6,295.1,426.6z"/>
		<path class="st1" d="M297.6,426.6c0.5,0,0.9-0.4,0.9-0.9c0-0.5-0.4-0.9-0.9-0.9c-0.5,0-0.9,0.4-0.9,0.9
			C296.7,426.2,297.1,426.6,297.6,426.6z"/>
		<path class="st1" d="M309.7,427.8c0.3,1.2,0.5,2.8,0.5,4.6c0,0.6,0,1.6-0.1,2.3h-0.8c-1.8,0-2.2-0.5-2.2-2.2v-4h-1.5v4
			c0,1.4-0.3,2.3-1.5,2.3c-1.2,0-1.6-0.9-1.6-2.3v-3.4h-1.5v3.3c0,1.8-0.5,2.3-1.7,2.3h-0.3h-0.2h-1.5v-6.6h-1.5v6.6h-2.2h-0.2h-0.9
			c-0.6,0-1.4,0-1.4,0c0.8-0.6,1.3-1.8,1.3-3c0-2.8-1.6-3.8-3.7-3.8c-2.5,0-4,1.8-4,4c0,1.3,0.4,2.2,1.1,2.8c0,0-0.6,0-1.2,0h-0.7
			h-0.2h-1.6v-6.6h-1.5v6.6h-2.2h-0.2h-1.6v-10.4h-1.5v11.6h3.1h0.2h5.3h0.2h9.5h0.2h5.1h0.2h0.3c1.3,0,1.9-0.5,2.2-1.3
			c0.2,0.9,1,1.5,2.3,1.5c1.1,0,2-0.5,2.3-1.5c0.3,0.9,1.2,1.3,2.8,1.3h2.5c0.2-1.1,0.3-2.5,0.3-3.6c0-1.8-0.2-3.5-0.6-4.7
			L309.7,427.8z M288.6,434.6c-1.5,0-2.3-1-2.3-2.8c0-1.9,1.1-2.7,2.3-2.7c1.5,0,2.3,1,2.3,2.7C290.8,433.8,289.8,434.6,288.6,434.6
			z"/>
		<rect x="314.7" y="424.2" class="st1" width="1.5" height="11.6"/>
	</g>
	<g>
		<path class="st1" d="M78.2,426.6c0.5,0,0.9-0.4,0.9-0.9c0-0.5-0.4-0.9-0.9-0.9c-0.5,0-0.9,0.4-0.9,0.9
			C77.4,426.2,77.8,426.6,78.2,426.6z"/>
		<path class="st1" d="M80.7,426.6c0.5,0,0.9-0.4,0.9-0.9c0-0.5-0.4-0.9-0.9-0.9c-0.5,0-0.9,0.4-0.9,0.9
			C79.8,426.2,80.2,426.6,80.7,426.6z"/>
		<path class="st1" d="M85.9,437.4c-0.5,0-0.9,0.4-0.9,0.9c0,0.5,0.4,0.9,0.9,0.9c0.5,0,0.9-0.4,0.9-0.9
			C86.8,437.8,86.4,437.4,85.9,437.4z"/>
		<path class="st1" d="M88.4,437.4c-0.5,0-0.9,0.4-0.9,0.9c0,0.5,0.4,0.9,0.9,0.9c0.5,0,0.9-0.4,0.9-0.9
			C89.2,437.8,88.8,437.4,88.4,437.4z"/>
		<path class="st1" d="M94.1,426.3c0.5,0,0.9-0.4,0.9-0.9c0-0.5-0.4-0.9-0.9-0.9s-0.9,0.4-0.9,0.9C93.2,425.9,93.6,426.3,94.1,426.3
			z"/>
		<path class="st1" d="M98.8,434.6h-2.1h-0.2h-1.6v-6.6h-1.5v6.6h-2.2h-0.2h-1.6v-6.6h-1.5v6.6h-3.1h-0.2h-1.6v-6.2
			c0,0-1.5-0.6-3.3-0.6c-2.8,0-4.2,1.9-4.2,4.1c0,2.3,1.2,3.8,4.3,3.8h4.7h0.2h6.2h0.2h5.3h0.2h3.6v-11.6h-1.5V434.6z M81.4,434.6
			H80c-2.1,0-3-0.9-3-2.8c0-1.6,0.9-2.7,2.5-2.7c1.2,0,2,0.4,2,0.4V434.6z"/>
		<rect x="103.4" y="424.2" class="st1" width="1.5" height="11.6"/>
	</g>
	<g>
		<path class="st1" d="M71.6,301.6c0-2.3-1.2-3.7-3.5-3.7c-2.7,0-4.1,1.9-4.1,4.1c0,2.3,1.2,3.8,4.3,3.8h3.3V301.6z M70.1,304.6
			h-1.6c-2.1,0-3-0.9-3-2.8c0-1.7,0.9-2.7,2.5-2.7c1.4,0,2.2,0.8,2.2,2.8V304.6z"/>
		<path class="st1" d="M69.2,296.5c0.5,0,0.9-0.4,0.9-0.9s-0.4-0.9-0.9-0.9c-0.5,0-0.9,0.4-0.9,0.9
			C68.3,296.2,68.7,296.5,69.2,296.5z"/>
		<path class="st1" d="M66.7,296.5c0.5,0,0.9-0.4,0.9-0.9s-0.4-0.9-0.9-0.9c-0.5,0-0.9,0.4-0.9,0.9
			C65.9,296.2,66.2,296.5,66.7,296.5z"/>
		<path class="st1" d="M74.9,306c0,2.2-0.8,2.8-2.2,2.8c-0.6,0-1.2-0.1-1.7-0.3l-0.2,1.3c0.5,0.1,1.1,0.2,1.7,0.2
			c3,0,3.8-1.8,3.8-4.2v-7.8h-1.5V306z"/>
		<path class="st1" d="M110.3,304.6h-2.1H108h-1.5c0.1-0.9,0.1-1.8,0.1-2.7c0-2.5-1-4.1-3.2-4.1c-1.9,0-3.7,1.4-4.5,3.8h0
			c0.1-0.9,0.2-2.1,0.2-3v-4.5h-1.5v10.4h-2h-0.2H94v-0.3c0-5-2.2-6.9-6.2-6.9c-1.3,0-2.8,0.3-3.9,0.6l0.2,1.1
			c1-0.3,2.4-0.6,3.5-0.6c3.4,0,5,1.7,5,5.8v0.3h-2.2v-0.7c0-2.1-0.9-3.5-2.9-3.5c-1.8,0-3,1.1-3,2.7c0,1,0.6,1.5,0.7,1.5
			c0,0-0.3-0.1-0.6-0.1h-1.7h-0.2H81v-10.4h-1.5v11.6h3.1h0.2h12.4h0.2H108h0.2h3.6v-11.6h-1.5V304.6z M89,304.6h-1.4
			c-1,0-1.8-0.6-1.8-1.7c0-0.8,0.5-1.5,1.5-1.5c1.2,0,1.7,1.1,1.7,2.5V304.6z M104.9,304.6H99c0.3-2.7,1.9-5.5,4.1-5.5
			c1.4,0,1.9,1.2,1.9,3C105,302.9,104.9,303.8,104.9,304.6z"/>
		<rect x="114.9" y="294.2" class="st1" width="1.5" height="11.6"/>
	</g>
	<g>
		<circle class="st2" cx="268.2" cy="370.4" r="40.3"/>
		<g>
			<path class="st1" d="M268,343.3c-14.7,0-26.7,12-26.7,26.7c0,14.7,12,26.7,26.7,26.7c14.7,0,26.7-12,26.7-26.7
				C294.8,355.3,282.8,343.3,268,343.3z M293.6,373.9l-1.9-0.3l-0.2,1.3l1.9,0.3c-0.2,1-0.5,2.1-0.8,3.1l-1.8-0.7l-0.5,1.3l1.8,0.7
				c-0.4,1-0.8,1.9-1.3,2.9l-1.6-1l-0.7,1.2l1.6,0.9c-0.6,0.9-1.2,1.8-1.8,2.6l-1.5-1.2l-0.9,1l1.4,1.2c-0.7,0.8-1.4,1.5-2.2,2.2
				l-1.2-1.4l-1,0.9l1.2,1.5c-0.8,0.7-1.7,1.3-2.6,1.8l-0.9-1.6l-1.2,0.7l1,1.6c-0.9,0.5-1.9,1-2.9,1.3l-0.7-1.8l-1.3,0.5l0.7,1.8
				c-1,0.3-2,0.6-3.1,0.8l-0.3-1.9l-1.3,0.2l0.3,1.9c-1,0.2-2.1,0.2-3.2,0.3v-5.1h-1.3v5.1c-1.1,0-2.1-0.1-3.2-0.3l0.3-1.9l-1.3-0.2
				l-0.3,1.9c-1-0.2-2.1-0.5-3.1-0.8l0.7-1.8l-1.3-0.5l-0.7,1.8c-1-0.4-1.9-0.8-2.9-1.3l1-1.6l-1.2-0.7l-0.9,1.6
				c-0.9-0.6-1.8-1.2-2.6-1.8l1.2-1.5l-1-0.9l-1.2,1.4c-0.8-0.7-1.5-1.4-2.2-2.2l1.4-1.2l-0.9-1l-1.4,1.2c-0.7-0.8-1.3-1.7-1.8-2.6
				l1.6-0.9l-0.7-1.2l-1.6,1c-0.5-0.9-1-1.9-1.3-2.9l1.8-0.7l-0.5-1.3l-1.8,0.7c-0.3-1-0.6-2-0.8-3.1l1.9-0.3l-0.2-1.3l-1.9,0.3
				c-0.2-1-0.2-2.1-0.3-3.2h5.1v-1.3h-5.1c0-1.1,0.1-2.1,0.3-3.2l1.9,0.3l0.2-1.3l-1.9-0.3c0.2-1,0.5-2.1,0.8-3.1l1.8,0.7l0.5-1.3
				l-1.8-0.7c0.4-1,0.8-1.9,1.3-2.9l1.6,1l0.7-1.2l-1.6-0.9c0.6-0.9,1.2-1.8,1.8-2.6l1.4,1.2l0.9-1l-1.4-1.2
				c0.7-0.8,1.4-1.5,2.2-2.2l1.2,1.4l1-0.9l-1.2-1.5c0.8-0.7,1.7-1.3,2.6-1.8l0.9,1.6l1.2-0.7l-1-1.6c0.9-0.5,1.9-1,2.9-1.3l0.7,1.8
				l1.3-0.5l-0.7-1.8c1-0.3,2-0.6,3.1-0.8l0.3,1.9l1.3-0.2l-0.3-1.9c1-0.2,2.1-0.2,3.2-0.3v1.9h1.3v-1.9c1.1,0,2.1,0.1,3.2,0.3
				l-0.3,1.9l1.3,0.2l0.3-1.9c1,0.2,2.1,0.5,3.1,0.8l-0.7,1.8l1.3,0.5l0.7-1.8c1,0.4,1.9,0.8,2.9,1.3l-0.9,1.6l1.2,0.7l0.9-1.6
				c0.9,0.6,1.8,1.2,2.6,1.8l-1.2,1.5l1,0.9l1.2-1.4c0.8,0.7,1.5,1.4,2.2,2.2l-1.4,1.2l0.9,1l1.5-1.2c0.7,0.8,1.3,1.7,1.8,2.6
				l-1.6,0.9l0.7,1.2l1.6-1c0.5,0.9,1,1.9,1.3,2.9l-1.8,0.7l0.5,1.3l1.8-0.7c0.3,1,0.6,2,0.8,3.1l-1.9,0.3l0.2,1.3l1.9-0.3
				c0.2,1,0.2,2.1,0.3,3.2h-5.1v1.3h5.1C293.8,371.8,293.7,372.9,293.6,373.9z"/>
			<path class="st1" d="M272,374.3c0.9-0.3,1.5-1.4,1.9-2.7l-4.1,1.4C270.3,374,271.1,374.6,272,374.3z"/>
			<path class="st1" d="M276.9,372.5c0.8-0.3,1.5-1.3,1.9-2.7l-4,1.4C275.3,372.3,276.1,372.8,276.9,372.5z"/>
			<path class="st1" d="M264.1,374.3c0.9,0.3,1.7-0.3,2.2-1.4l-4.1-1.4C262.5,372.9,263.2,374,264.1,374.3z"/>
			<path class="st1" d="M259.1,372.5c0.9,0.3,1.7-0.2,2.2-1.3l-4-1.4C257.6,371.2,258.3,372.3,259.1,372.5z"/>
			<path class="st1" d="M277,374.8c-1.3,0.5-2.5-1-2.8-3.4l0,0c0.1,2.4-0.8,4.6-2.1,5.1c-1.3,0.5-2.6-1.1-2.8-3.4l-1.2,0.4l-1.2-0.4
				c-0.2,2.4-1.5,3.9-2.8,3.4c-1.3-0.5-2.2-2.7-2.1-5.1l0,0c-0.2,2.3-1.5,3.8-2.8,3.4c-1.3-0.5-2.2-2.7-2.1-5l-0.4-0.1v8.6l11.4,3.9
				l11.4-3.9v-8.6l-0.4,0.1C279.2,372.1,278.3,374.3,277,374.8z"/>
			<path class="st1" d="M256.6,362.2L256.6,362.2l0,4.6l11.4,3.9l11.4-3.9v-4.6l0,0l-11.4-4.2L256.6,362.2z M268,365l-8.3-2.8l8.3-3
				l8.3,3L268,365z"/>
			<polygon class="st1" points="274.2,358.7 268,347.5 261.9,358.7 268,355 			"/>
		</g>
	</g>
	<g>
		<circle class="st2" cx="268.2" cy="112.6" r="40.3"/>
		<g>
			<path class="st3" d="M277.8,132.1h-17.7c0-8.5-4.5-7.7-4.5-19.6c0-1.6,1.4-2.5,2.5-2.5v2.9c0,0.4,0.3,0.4,0.3,0.4
				c0.1,0,0.3,0,0.3-0.4c0-0.3,0-19.8,0-19.8c0-1.3,1.1-2.4,2.4-2.4c1.2,0,2.4,0.9,2.4,2.1c0,0,0,10.7,0,12.9c0,0,0,0,0,0v0.5
				c0,0.2,0.2,0.4,0.4,0.4c0.2,0,0.4-0.2,0.4-0.4V106c0-1.3,1.1-2.4,2.4-2.4c1.3,0,2.4,1.1,2.4,2.4l0,1.8c0,0.2,0.2,0.4,0.4,0.4
				c0.2,0,0.4-0.2,0.4-0.4l0-0.1c0-1.2,1.2-2.1,2.4-2.1c1.3,0,2.4,1.1,2.4,2.4l0,1.8c0,0.2,0.2,0.4,0.4,0.4c0.2,0,0.4-0.2,0.4-0.4
				l0-0.1c0-1.1,1.2-2,2.4-2c1.3,0,2.4,1.1,2.4,2.4l0,4.5C280.4,122.7,277.8,125.9,277.8,132.1z"/>
		</g>
	</g>
	<g>
		<circle class="st2" cx="90.8" cy="112.6" r="40.3"/>
		<g>
			<g id="Page-1_1_">
				<g id="_x30_06---Confusion_1_" transform="translate(-1.000000, 0.000000)">
					<path id="Shape_3_" class="st1" d="M73.3,116.1c0.2,0.1,0.4,0.3,0.7,0.4c0.3,0.1,0.7,0.4,0.8,0.5c0,0.2,0,0.4-0.1,0.6
						c-0.1,0.2-0.2,0.4-0.3,0.5c-0.2,0.4-0.6,1.1,0,1.6c0.1,0.1,0.4,0.3,0.6,0.5c-0.2,0.3-0.2,0.6-0.2,0.9c0,0.3,0.2,0.5,0.4,0.6
						c0.1,0.1,0.3,0.2,0.4,0.3c0.4,0.2,0.5,0.3,0.6,0.5c0,0.3,0,0.5-0.1,0.8c0,0.2-0.1,0.3-0.1,0.5c-0.1,0.6,0,1.2,0.2,1.7
						c0.3,1,1.2,1.7,2.3,1.7c0.2,0,0.4,0,0.5-0.1c1.8-0.4,3.6-1,5.4-1.6c1.4,0.8,2.4,3.4,2.6,4.4c0.1,0.3,0.3,0.5,0.6,0.5l16.1,0
						c0.2,0,0.4-0.1,0.5-0.3c0.1-0.2,0.2-0.4,0.1-0.6c-0.2-0.4-0.4-0.8-0.6-1.2c-0.2-0.2-0.3-0.5-0.4-0.7c-0.3-0.6-0.5-1.2-0.7-1.8
						c-0.4-1.2-0.6-2.5-0.8-3.8c0-0.1,0-0.4,0-0.6c0,0,0.1,0,0.1,0c1.3,0,2.3-0.9,2.5-2.2c0.2-1.3-0.6-2.5-1.8-2.8
						c-1.2-0.4-2.5,0.2-3.1,1.3c-0.5,1.1-0.2,2.5,0.9,3.2c0,0.4,0,0.9,0.1,1.2c0.1,1.4,0.4,2.7,0.8,4c0.2,0.7,0.5,1.4,0.8,2
						c0.1,0.3,0.3,0.6,0.5,0.8l0,0.1l-14.5,0c-0.4-1.5-1.2-2.9-2.3-4.1l0.6-0.2c0.4-0.1,0.8-0.3,0.9-0.3c2.7-0.9,4.1-2.1,4.1-3.7
						c0-0.4-0.3-0.6-0.7-0.6c-0.4,0-0.6,0.3-0.6,0.7c0,0.7-0.5,1.6-3.2,2.5c-0.2,0.1-0.5,0.2-0.9,0.3c-0.5,0.2-1.1,0.4-1.7,0.6h0
						c-1.8,0.7-3.6,1.2-5.5,1.7c-0.6,0.1-1.2-0.3-1.3-0.9c-0.1-0.4-0.2-0.8-0.2-1.1c0-0.1,0-0.3,0.1-0.4c0.1-0.4,0.1-0.9,0.1-1.4
						c-0.2-0.6-0.6-1.1-1.2-1.3l-0.1-0.1c0.1-0.1,0.2-0.3,0.2-0.4c0.1-0.1,0.2-0.3,0.1-0.5c0-0.2-0.1-0.3-0.3-0.4
						c-0.2-0.1-0.5-0.4-0.8-0.6c0-0.1,0.1-0.1,0.1-0.2c0.1-0.2,0.2-0.4,0.3-0.6c0.2-0.4,0.3-0.9,0.2-1.4c-0.2-0.8-0.9-1.2-1.4-1.4
						c-0.2-0.1-0.4-0.2-0.5-0.3c-0.1-0.1-0.3-0.2-0.4-0.3c0-0.1,0.1-0.3,0.6-0.9c1.1-1.5,2.1-3.1,2.9-4.8c0.2-0.3,0.2-0.6,0.2-0.9
						c-0.1-0.6-0.4-1.2-0.9-1.6c-0.3-0.2-0.5-0.5-0.5-0.7c0-0.2,0-0.3,0.1-0.4c0.1-0.3,0.2-0.5,0.3-0.8c0.3-0.5,0.5-1.1,0.6-1.7
						l0.1-0.3c0.1-0.6,0.3-1.3,0.5-1.9c0.5-1.4,1.3-2.7,2.3-3.7c1.2-1.3,3.1-2.2,5.7-2.7c2-0.4,4-0.7,6-0.9c1.6,0,3.2,0.2,4.7,0.6
						c-1.4,1.1-2.5,2.6-3,4.3c-0.3,0.8-0.1,1.6,0.4,2.3c0.6,0.8,1.5,1.2,2.5,1c0.9-0.2,1.7-0.8,2-1.7c0.6-1.9,2.5-3,4.4-2.6
						c1.9,0.4,3.2,2.2,3,4.2c-0.2,2-1.9,3.4-3.9,3.4c-0.7,0-1.3,0.3-1.8,0.7c-0.5,0.4-0.7,1.1-0.7,1.7v5.3c0,1.4,1.1,2.6,2.6,2.6
						c1.4,0,2.6-1.1,2.6-2.6v-2.9c3.3-1,5.7-3.7,6.3-7c0.6-3.3-0.8-6.7-3.5-8.8c-2.7-2-6.4-2.3-9.4-0.7c-2-0.7-4.1-1-6.1-1
						c-2.1,0.1-4.1,0.4-6.2,0.9c-2.9,0.6-5,1.6-6.4,3.1c-1.1,1.2-2,2.6-2.6,4.2c-0.2,0.7-0.4,1.4-0.6,2l-0.1,0.3
						c-0.1,0.5-0.3,1-0.5,1.5c-0.1,0.3-0.3,0.6-0.4,0.9c-0.1,0.3-0.2,0.7-0.2,1.1c0.1,0.6,0.5,1.1,0.9,1.4c0.3,0.3,0.5,0.5,0.5,0.7
						c0,0.1-0.1,0.2-0.1,0.3c-0.8,1.6-1.7,3.1-2.8,4.5c-0.5,0.6-0.9,1.2-0.8,1.9C72.6,115.4,72.9,115.8,73.3,116.1z M101.8,117.8
						c0.7,0,1.3,0.6,1.3,1.3c0,0.7-0.6,1.3-1.3,1.3c-0.7,0-1.3-0.6-1.3-1.3C100.5,118.3,101.1,117.8,101.8,117.8z M102.7,93.5
						c3.7,0.4,6.6,3.4,6.8,7.2c0.2,3.7-2.3,7.1-5.9,7.9c-0.3,0.1-0.5,0.3-0.5,0.6v3.4c0,0.7-0.6,1.3-1.3,1.3c-0.7,0-1.3-0.6-1.3-1.3
						v-5.3c0-0.3,0.1-0.6,0.3-0.8c0.2-0.2,0.6-0.4,0.9-0.4h0c2.6,0,4.7-1.9,5.1-4.4c0.2-1.5-0.2-3-1.2-4.1c-1-1.1-2.4-1.8-3.9-1.8
						c-2.2,0-4.2,1.5-4.9,3.6c-0.1,0.5-0.5,0.8-1,0.9c-0.5,0.1-0.9-0.1-1.2-0.5c-0.2-0.3-0.3-0.8-0.2-1.2
						C95.6,95.3,99.1,93.1,102.7,93.5z"/>
					<path id="Shape_2_" class="st1" d="M79.5,103.6l0.1-0.3c0.1-0.5,0.3-1.1,0.4-1.6c0.4-1.1,1-2,1.8-2.9c0.8-0.8,1.8-1.3,2.9-1.6
						c0.2-0.1,0.4-0.2,0.4-0.5c0.1-0.2,0-0.5-0.2-0.6c-0.2-0.2-0.4-0.2-0.6-0.1c-1.3,0.3-2.5,1-3.5,2c-0.9,1-1.6,2.1-2,3.3
						c-0.2,0.6-0.3,1.1-0.5,1.7l-0.1,0.3c-0.1,0.3,0.1,0.7,0.5,0.8c0,0,0.1,0,0.1,0C79.2,104.1,79.5,103.9,79.5,103.6z"/>
					<circle id="Oval_1_" class="st1" cx="78.2" cy="105.6" r="0.6"/>
				</g>
			</g>
		</g>
	</g>
	<g>
		<circle class="st2" cx="268.2" cy="499.2" r="40.3"/>
		<g>
			<path class="st1" d="M281,492.5h-2.5c-0.1-3.7-2.3-7-5.4-8.6c-0.2-1.9-2.5-3.7-3.8-4.5c0.5-0.3,0.9-0.9,0.9-1.6
				c0-0.9-0.6-1.7-1.5-1.9v-2.2c0-0.2-0.2-0.4-0.4-0.4c-0.2,0-0.4,0.2-0.4,0.4v2.2c-0.9,0.2-1.5,1-1.5,1.9c0,0.7,0.4,1.3,0.9,1.6
				c-1.3,0.8-3.6,2.6-3.8,4.5c-3.1,1.7-5.3,4.9-5.4,8.6h-2.5c-1.1,0-2,0.9-2,2v0.6c0,1.1,0.9,2,2,2h2.4v18.6h-2.4c-1.1,0-2,0.9-2,2
				v0.6c0,1.1,0.9,2,2,2h2.4v1.8c0,0.2,0.2,0.4,0.4,0.4h19.8c0.2,0,0.4-0.2,0.4-0.4v-1.8h2.4c1.1,0,2-0.9,2-2v-0.6c0-1.1-0.9-2-2-2
				h-2.4v-18.6h2.4c1.1,0,2-0.9,2-2v-0.6C283,493.4,282.1,492.5,281,492.5z M268.3,476.7c0.6,0,1.1,0.5,1.1,1.1
				c0,0.6-0.5,1.1-1.1,1.1s-1.1-0.5-1.1-1.1C267.2,477.2,267.7,476.7,268.3,476.7z M268.3,479.8c1.1,0.7,3.2,2.2,3.8,3.7
				c-1.2-0.5-2.5-0.7-3.8-0.7c-1.3,0-2.6,0.3-3.8,0.7C265.1,482,267.2,480.4,268.3,479.8z M268.3,483.5c2.5,0,4.7,1,6.4,2.5H273
				c-0.2,0-0.4,0.2-0.4,0.4c0,0.2,0.2,0.4,0.4,0.4h2.5c0.7,0.8,1.2,1.7,1.6,2.7h-5.5c-0.2,0-0.4,0.2-0.4,0.4c0,0.2,0.2,0.4,0.4,0.4
				h5.7c0.2,0.7,0.3,1.4,0.3,2.1H259C259.2,487.5,263.3,483.5,268.3,483.5z M277.8,521.7h-19v-1.3h19V521.7z M282.2,517.8v0.2H280
				c-0.2,0-0.4,0.2-0.4,0.4c0,0.2,0.2,0.4,0.4,0.4h2.1c-0.2,0.4-0.6,0.7-1.1,0.7h-25.4c-0.6,0-1.2-0.5-1.2-1.2v-0.6
				c0-0.6,0.5-1.2,1.2-1.2H281C281.6,516.6,282.2,517.1,282.2,517.8z M264.2,515.7h-1.8v-6.4c0-0.2-0.2-0.4-0.4-0.4
				c-0.2,0-0.4,0.2-0.4,0.4v6.4h-0.5V505c0-0.9,0.7-1.6,1.6-1.6c0.9,0,1.6,0.7,1.6,1.6V515.7z M269.9,515.7h-1.4V511
				c0-0.2-0.2-0.4-0.4-0.4c-0.2,0-0.4,0.2-0.4,0.4v4.8h-0.9v-14.9c0-0.9,0.7-1.6,1.6-1.6c0.9,0,1.6,0.7,1.6,1.6V515.7z M275.6,515.7
				h-0.4v-6.7c0-0.2-0.2-0.4-0.4-0.4c-0.2,0-0.4,0.2-0.4,0.4v6.7h-2V505c0-0.9,0.7-1.6,1.6-1.6c0.9,0,1.6,0.7,1.6,1.6V515.7z
				 M277.8,515.7h-1.4V505c0-1.3-1.1-2.4-2.4-2.4c-1.3,0-2.4,1.1-2.4,2.4v10.7h-0.8v-14.9c0-1.3-1.1-2.4-2.4-2.4
				c-1.3,0-2.4,1.1-2.4,2.4v14.9h-0.8V505c0-1.3-1.1-2.4-2.4-2.4c-1.3,0-2.4,1.1-2.4,2.4v10.7h-1.4v-16.6h3.9c0.2,0,0.4-0.2,0.4-0.4
				c0-0.2-0.2-0.4-0.4-0.4h-3.9v-1.1h19V515.7z M282.2,495.1c0,0.6-0.5,1.2-1.2,1.2h-25.4c-0.6,0-1-0.4-1.1-0.9h5.3
				c0.2,0,0.4-0.2,0.4-0.4c0-0.2-0.2-0.4-0.4-0.4h-5.3c0-0.6,0.5-1.2,1.2-1.2H281c0.6,0,1.2,0.5,1.2,1.2V495.1z"/>
			<path class="st1" d="M253.1,497c-0.2-0.1-0.5-0.1-0.6,0.1c-1.3,1.8-2,4.8-2,8.1c0,3.3,0.8,6.3,2,8.1c0.1,0.1,0.2,0.2,0.3,0.2
				c0.1,0,0.2,0,0.2-0.1c0.2-0.1,0.2-0.4,0.1-0.6c-1.2-1.7-1.9-4.5-1.9-7.6c0-3.1,0.7-6,1.9-7.6C253.3,497.4,253.2,497.2,253.1,497z
				"/>
			<path class="st1" d="M248.7,505.2c0-4,0.9-7.6,2.4-9.7c0.1-0.2,0.1-0.5-0.1-0.6c-0.2-0.1-0.5-0.1-0.6,0.1
				c-1.6,2.3-2.6,6.1-2.6,10.2c0,4.1,1,8,2.6,10.2c0.1,0.1,0.2,0.2,0.3,0.2c0.1,0,0.2,0,0.2-0.1c0.2-0.1,0.2-0.4,0.1-0.6
				C249.6,512.8,248.7,509.2,248.7,505.2z"/>
			<path class="st1" d="M246.1,505.2c0-5.2,1.2-10,3.2-12.8c0.1-0.2,0.1-0.5-0.1-0.6c-0.2-0.1-0.5-0.1-0.6,0.1
				c-2.1,2.9-3.3,7.9-3.3,13.3c0,5.4,1.2,10.4,3.3,13.3c0.1,0.1,0.2,0.2,0.3,0.2c0.1,0,0.2,0,0.2-0.1c0.2-0.1,0.2-0.4,0.1-0.6
				C247.3,515.3,246.1,510.5,246.1,505.2z"/>
			<path class="st1" d="M283.9,497.1c-0.1-0.2-0.4-0.2-0.6-0.1c-0.2,0.1-0.2,0.4-0.1,0.6c1.2,1.7,1.9,4.5,1.9,7.6
				c0,3.1-0.7,6-1.9,7.6c-0.1,0.2-0.1,0.5,0.1,0.6c0.1,0.1,0.2,0.1,0.2,0.1c0.1,0,0.3-0.1,0.3-0.2c1.3-1.8,2-4.8,2-8.1
				C285.9,501.9,285.2,498.9,283.9,497.1z"/>
			<path class="st1" d="M285.9,495c-0.1-0.2-0.4-0.2-0.6-0.1c-0.2,0.1-0.2,0.4-0.1,0.6c1.5,2.1,2.4,5.8,2.4,9.7c0,4-0.9,7.6-2.4,9.7
				c-0.1,0.2-0.1,0.5,0.1,0.6c0.1,0.1,0.2,0.1,0.2,0.1c0.1,0,0.3-0.1,0.3-0.2c1.6-2.3,2.6-6.1,2.6-10.2
				C288.5,501.1,287.5,497.3,285.9,495z"/>
			<path class="st1" d="M287.8,491.9c-0.1-0.2-0.4-0.2-0.6-0.1c-0.2,0.1-0.2,0.4-0.1,0.6c2,2.8,3.2,7.6,3.2,12.8
				c0,5.2-1.2,10-3.2,12.8c-0.1,0.2-0.1,0.5,0.1,0.6c0.1,0.1,0.2,0.1,0.2,0.1c0.1,0,0.3-0.1,0.3-0.2c2.1-2.9,3.3-7.9,3.3-13.3
				C291.2,499.8,289.9,494.8,287.8,491.9z"/>
		</g>
	</g>
	<g>
		<circle class="st2" cx="268.2" cy="241.5" r="40.3"/>
		<g>
			<g>
				<path class="st1" d="M278.6,239.8c-3.1,0-5.6,2.5-5.6,5.5c0,0.3-0.2,4.4,1.9,6.7c0.9,1,2.1,1.5,3.6,1.5c1.3,0,2.4-0.5,3.3-1.4
					c2.3-2.3,2.2-6.7,2.2-6.9C284.2,242.3,281.7,239.8,278.6,239.8z M278.6,240.3c2,0,3.7,1.1,4.5,2.7h-0.6c-0.1,0-0.2,0.1-0.2,0.2
					c0,0.1,0.1,0.2,0.2,0.2h0.8c0.1,0.2,0.1,0.4,0.2,0.6h-9.8c0.1-0.5,0.4-1,0.6-1.4h1.5c0.1,0,0.2-0.1,0.2-0.2
					c0-0.1-0.1-0.2-0.2-0.2h-1.1C275.6,241,277,240.3,278.6,240.3z M281.6,251.9c-0.8,0.8-1.8,1.2-3,1.2c-1.3,0-2.4-0.4-3.3-1.3
					c-2.1-2.2-1.8-6.4-1.8-6.4c0,0,0,0,0,0c0-0.3,0-0.6,0.1-0.8h10c0,0.3,0.1,0.6,0.1,0.8C283.7,245.5,283.7,249.8,281.6,251.9z"/>
				<path class="st1" d="M288.4,255c-2.3-1-2.8-5.9-2.8-6c0-0.1-0.1-0.2-0.3-0.2c-0.1,0-0.2,0.1-0.2,0.3c0,0.2,0.5,5.3,3.1,6.4
					c0,0,0.1,0,0.1,0c0.1,0,0.2-0.1,0.2-0.1C288.6,255.2,288.6,255,288.4,255z"/>
				<path class="st1" d="M290,256.2c0.5-0.5,0.7-0.8,0.7-0.9c0-0.1,0-0.1,0-0.2c0-0.1-0.1-0.1-0.1-0.1c-2.6-1.1-4.1-4.2-4.3-9.1
					c-0.1-2.1-0.9-4-2.3-5.5c-1.4-1.5-3.4-2.3-5.4-2.3c-2,0-4,0.8-5.4,2.3c-1.4,1.4-2.2,3.4-2.3,5.5c-0.2,4.9-1.6,8-4.3,9.1
					c-0.1,0-0.1,0.1-0.1,0.1c0,0.1,0,0.1,0,0.2c0,0,0.2,0.4,0.7,0.9c-0.5,0.4-1.7,1.6-1.7,3.7v5.1c0,0.1,0.1,0.2,0.2,0.2
					c0.1,0,0.2-0.1,0.2-0.2v-1.9h3.4c0.1,0,0.2-0.1,0.2-0.2c0-0.1-0.1-0.2-0.2-0.2h-3.4v-0.8h1.4c0.1,0,0.2-0.1,0.2-0.2
					c0-0.1-0.1-0.2-0.2-0.2h-1.4v-1.5c0-0.5,0.1-0.9,0.2-1.3h0.8c0.1,0,0.2-0.1,0.2-0.2c0-0.1-0.1-0.2-0.2-0.2h-0.6
					c0.4-0.9,1-1.4,1.2-1.6c0.4,0.3,0.8,0.7,1.5,1.1c1.7,1,4.7,2.3,9.7,2.3s8-1.2,9.7-2.3c0.6-0.4,1.1-0.8,1.5-1.1
					c0.4,0.3,1.4,1.2,1.6,2.9h-1.7c-0.1,0-0.2,0.1-0.2,0.2c0,0.1,0.1,0.2,0.2,0.2h1.8v0.7h-3.9c-0.1,0-0.2,0.1-0.2,0.2
					c0,0.1,0.1,0.2,0.2,0.2h3.9v0.7h-1.1c-0.1,0-0.2,0.1-0.2,0.2c0,0.1,0.1,0.2,0.2,0.2h1.1v2.7c0,0.1,0.1,0.2,0.2,0.2
					c0.1,0,0.2-0.1,0.2-0.2v-5.1C291.8,257.7,290.6,256.6,290,256.2z M288,257.2c-1.6,1-4.5,2.2-9.4,2.2c-4.8,0-7.8-1.2-9.4-2.2
					c-1.3-0.8-1.9-1.6-2.2-1.9c0.4-0.2,0.7-0.4,1-0.6c1.4,1.4,4.6,3.5,11.3,3.5c0.1,0,0.2-0.1,0.2-0.2c0-0.1-0.1-0.2-0.2-0.2
					c-6.5,0-9.6-2-10.9-3.4c0.2-0.2,0.4-0.4,0.6-0.6c0.5,0.5,1,0.9,1.6,1.3c0,0,0.1,0,0.1,0c0.1,0,0.2,0,0.2-0.1
					c0.1-0.1,0-0.3-0.1-0.3c-0.6-0.4-1.1-0.8-1.6-1.2c0.5-0.7,0.9-1.5,1.2-2.4c0.5-1.4,0.8-3.1,0.9-5.1c0.2-4.1,3.4-7.3,7.3-7.3
					c3.9,0,7.1,3.2,7.3,7.3c0.1,2,0.4,3.7,0.9,5.1c0.7,2.1,1.9,3.6,3.5,4.3C289.9,255.7,289.2,256.5,288,257.2z"/>
			</g>
			<path class="st1" d="M250.7,258.3c-0.1,0-0.2,0-0.3-0.1c-0.2-0.2-0.2-0.5,0-0.6L287,221c0.2-0.2,0.5-0.2,0.6,0
				c0.2,0.2,0.2,0.5,0,0.6l-36.5,36.5C251,258.3,250.9,258.3,250.7,258.3z"/>
			<g>
				<path class="st1" d="M249.1,218c0,0,0.1,0,0.1,0c0.1,0,0.2-0.1,0.2-0.2c0.8-1.8,2.6-2.9,4.6-2.9c0.1,0,0.3-0.1,0.3-0.3
					c0-0.1-0.1-0.3-0.3-0.3c-2.2,0-4.1,1.3-5.1,3.2C248.9,217.8,248.9,218,249.1,218z"/>
				<path class="st1" d="M266.4,231.6c-1.3-1-3.7-1.4-8.6-1.5c0,0,0,0,0,0c-0.1,0-0.2,0-0.2,0.1c0,0,0,0,0,0.1v-2
					c0.1-0.1,0.2-0.2,0.4-0.3c2.7-2.7,2.6-7.9,2.6-8.1c0-3.6-2.9-6.5-6.5-6.5c-3.6,0-6.5,2.9-6.5,6.5c0,0.3-0.3,5.2,2.3,7.9
					c0.2,0.2,0.4,0.4,0.7,0.6v1.9c0,0,0-0.1,0-0.1c0-0.1-0.1-0.1-0.2-0.1c-4.9,0.1-7.3,0.5-8.6,1.5c-1,0.7-2,1.8-2,4.3v5.6
					c0,0.1,0.1,0.3,0.3,0.3s0.3-0.1,0.3-0.3v-2.1h3.7c0.1,0,0.3-0.1,0.3-0.3c0-0.1-0.1-0.3-0.3-0.3H240V238h1.5
					c0.1,0,0.3-0.1,0.3-0.3c0-0.1-0.1-0.3-0.3-0.3H240v-1.6c0-0.5,0-1,0.1-1.4h0.9c0.1,0,0.3-0.1,0.3-0.3c0-0.1-0.1-0.3-0.3-0.3
					h-0.7c0.3-1,0.9-1.5,1.5-2c1.2-0.9,3.5-1.3,8.2-1.4c0.3,0.5,1.7,2.3,3.7,2.4v3.4c0,0.1,0.1,0.3,0.3,0.3c0.1,0,0.3-0.1,0.3-0.3
					v-3.4c2-0.1,3.4-1.9,3.7-2.4c4.6,0.1,7,0.5,8.2,1.4c0.9,0.7,1.7,1.5,1.8,3.5H266c-0.1,0-0.3,0.1-0.3,0.3s0.1,0.3,0.3,0.3h1.9
					v0.8h-4.2c-0.1,0-0.3,0.1-0.3,0.3c0,0.1,0.1,0.3,0.3,0.3h4.2v0.8h-1.2c-0.1,0-0.3,0.1-0.3,0.3c0,0.1,0.1,0.3,0.3,0.3h1.2v1.8
					c0,0.1,0.1,0.3,0.3,0.3c0.1,0,0.3-0.1,0.3-0.3v-4.5C268.4,233.3,267.4,232.3,266.4,231.6z M254,213.9c3.1,0,5.7,2.4,6,5.4
					c-1-1.2-3-2.4-6-2.4c-3,0-5,1.1-6,2.4C248.3,216.3,250.9,213.9,254,213.9z M250.1,227.5c-1.6-1.7-2-4.5-2.1-6.2h1.4
					c0.1,0,0.3-0.1,0.3-0.3c0-0.1-0.1-0.3-0.3-0.3H248c0-0.2,0-0.3,0-0.5c0.6-1.3,2.6-2.9,6-2.9c3.4,0,5.4,1.5,6,2.9
					c0,0.6-0.1,1.6-0.3,2.7h-1.5c-0.1,0-0.3,0.1-0.3,0.3c0,0.1,0.1,0.3,0.3,0.3h1.3c-0.3,1.4-0.9,2.9-2,4c-0.9,1-2.1,1.4-3.5,1.4
					C252.4,229,251.1,228.5,250.1,227.5z M254,232.6c-1.4,0-2.4-0.9-3-1.6v-2.2c0.9,0.5,1.9,0.8,3.1,0.8c1.1,0,2.2-0.3,3-0.9v2.3
					C256.4,231.6,255.3,232.6,254,232.6z"/>
			</g>
		</g>
	</g>
	<g>
		<circle class="st2" cx="90.8" cy="241.5" r="40.3"/>
		<g>
			<path class="st4" d="M68.2,240.6c0-2,0.2-3.9,0.7-5.8l3.2,1c0.2,0.1,0.4,0,0.6,0l2.8-1.4c2.7,6.3,5.4,13.2,5.4,14.3
				c-0.2,1.2-2,7.9-3,11.3c-0.9-0.7-1.8-1.4-2.6-2.3C70.7,253.1,68.2,247,68.2,240.6z M100.2,252c0,0.5,0.5,0.8,0.9,0.7
				c0.1,0,2.9-0.3,5.9-3.9c0.5-0.6,1-0.9,1.3-0.9c0,0,0.1,0,0.1,0c0.1,0.5-0.5,2.3-1,3.2c-0.3,0.5-2.2,2.6-3.4,3.6
				c-0.6,0.5-3,0.5-4.6,0.4c-0.7,0-1.3,0-1.9,0v-2.2c0-0.5-0.4-0.8-0.8-0.8s-0.8,0.4-0.8,0.8v2.3c-0.2,0-0.4,0.1-0.6,0.2
				c-0.3,0.1-1.2,0.5-5.1,4.7c-1.5,1.7-2.9,3.3-3.4,3.8c-1.6-0.4-3.2-0.9-4.7-1.6c2.5-2.2,9.8-8.4,11.4-10.1c1.2-1.2,3-1,4.4-0.8
				c0.5,0.1,0.9,0.1,1.3,0.1c0.3,0,0.6,0,1-0.1C100.2,251.8,100.2,251.9,100.2,252z M94.3,246.8c-0.3,0.2-0.4,0.6-0.3,0.9
				c0.1,0.4,0.2,0.8,0.3,1.1c-1,0.3-2,0.8-2.6,1.4c0,0,0,0-0.1,0c0,0-0.1,0-0.1,0c-0.1-0.3-0.3-0.5-0.4-0.8
				c-0.2-0.3-0.3-0.7-0.4-0.8c-0.5-1.3-1.3-2.2-2.5-2.6c-2.2-0.9-5-0.1-6.3,0.3c-0.4-1.3-1.1-3.2-2.3-6.3c-0.8-2-1.7-4-2.2-5.4
				c1.8-1.8,3.2-3.9,4.6-5.9c1.9-2.9,3.8-5.6,6.2-6.8c2.5-1.2,5.2-1.6,7.8-0.9c2.1,0.5,4.2,1.6,5.5,2.9c4,3.9,4.5,7.9,4.7,9.4
				c0.1,0.8-0.1,1.7-0.7,2.4l-3.5,4.6l-0.5,0c-0.4,0-0.8,0.3-0.9,0.7l-0.8,5.7c0,0,0,0.1-0.1,0.1c0,0-0.1,0-0.1,0l-1.6-0.6
				c-0.4-0.1-0.8,0-1,0.4c-0.1,0.1-0.3,0.5-0.6,0.8c-0.3-0.2-0.8-0.4-1.3-0.7C94.9,246.5,94.6,246.6,94.3,246.8z"/>
			<path class="st1" d="M96.8,259.4c-0.5,0-0.8,0.4-0.8,0.8v0.9c0,0.5,0.4,0.8,0.8,0.8s0.8-0.4,0.8-0.8v-0.9
				C97.6,259.8,97.3,259.4,96.8,259.4z"/>
		</g>
	</g>
	<g>
		<circle class="st2" cx="90.8" cy="370.4" r="40.3"/>
		<path class="st1" d="M73.8,388.6h23.5c1.3,1.2,3,2.2,5.1,3c0,0,0,0,0,0c0.3,0.1,0.6,0.1,0.8,0c0,0,0,0,0,0c7-2.9,9.4-8.1,8.7-12
			l0,0c-0.6-2.8-2.6-4.6-5.1-4.6c-1.3,0-2.6,0.5-4,1.4c-1.4-0.9-2.7-1.4-4-1.4c-1.8,0-3.3,0.9-4.3,2.4l-2.4-0.8v-2.8
			c2.2-1.3,3.7-3.5,4.2-6l0.4-1.2c1.4-0.5,2.2-1.9,1.9-3.4c-0.2-0.8-0.7-1.4-1.5-1.6v-4c0-5.2-4.3-9.5-9.5-9.5
			c-5.2,0-9.4,4.2-9.5,9.5v4c-0.7,0.3-1.3,0.9-1.5,1.6c-0.4,1.4,0.5,2.9,1.9,3.4l0.4,1.2c0.5,2.5,2,4.7,4.2,6v2.8l-6.1,2
			c-1.7,0.6-3,1.9-3.5,3.6c0,0.1,0,0.1-0.1,0.2c-0.1,0.4-0.1,0.8-0.1,1.1v4.5C73.2,388.3,73.4,388.6,73.8,388.6L73.8,388.6z
			 M98.7,376.2c1.2,0,2.4,0.5,3.7,1.4c0.2,0.2,0.5,0.2,0.7,0c1.2-0.9,2.5-1.4,3.6-1.4c2,0,3.5,1.4,3.9,3.6c0.9,4.8-3.3,8.8-7.9,10.7
			l0,0c0,0,0,0,0,0c-6.4-2.5-8.6-7.2-7.9-10.7C95.2,377.6,96.7,376.2,98.7,376.2L98.7,376.2z M88.3,357.8c0.8,0.8,3.2,3,7.5,3.4v0.3
			c-1.7,0-6.6-0.4-10.5-3.2l0.1,0C86.3,358.2,87.3,358,88.3,357.8z M79.2,357.6c0-4.6,3.7-8.3,8.3-8.3c4.6,0,8.2,3.7,8.3,8.3v2.4
			c-3.2-0.4-5.2-1.8-6.2-2.6c1.6-0.5,3-1.2,4.1-2.1c0.3-0.2,0.3-0.6,0.1-0.9c-0.2-0.3-0.6-0.3-0.8-0.1c-2.3,1.8-5.5,2.5-7.8,2.8
			c-1.5,0.2-3,0.3-4.6,0.2c-0.3,0-0.6,0.2-0.6,0.6c0,0,0,0,0,0l-0.1,3.2c0,0.2-0.1,0.4-0.3,0.5c-0.1,0-0.2,0.1-0.3,0.1L79.2,357.6z
			 M80,367.6C80,367.6,79.9,367.6,80,367.6l-0.5-1.6c0-0.3-0.2-0.4-0.5-0.5c-0.9-0.2-1.5-1-1.3-1.9c0,0,0-0.1,0-0.1
			c0.1-0.4,0.4-0.7,0.7-0.8c0.9,0.4,2,0,2.4-0.8c0.1-0.2,0.2-0.5,0.2-0.7l0.1-2.6c0.5,0,1.3,0,2.4-0.1c2.7,2.3,6,3.3,8.3,3.8
			c2.6,0.5,4.5,0.4,4.6,0.4c0,0,0,0,0,0c0.4,0.1,0.7,0.4,0.8,0.8c0,0.1,0,0.3,0,0.4c0,0.8-0.6,1.5-1.3,1.6c-0.3,0-0.4,0.2-0.5,0.5
			l-0.4,1.5c0,0,0,0,0,0.1c-0.8,4.2-4.8,6.9-9,6.1C83,373.2,80.5,370.8,80,367.6L80,367.6z M87.5,375.1c1.1,0,2.3-0.2,3.3-0.7v2.3
			c-2.1,1-4.6,1-6.7,0v-2.3C85.2,374.9,86.4,375.1,87.5,375.1z M74.4,383.5c0-0.3,0-0.6,0.1-0.9c0-0.1,0-0.1,0-0.2
			c0.4-1.3,1.4-2.3,2.7-2.7l6.3-2c2.5,1.3,5.5,1.3,8,0l2.4,0.8c-0.1,0.4-0.2,0.7-0.3,1.1c-0.5,2.4,0.2,5.3,2.4,7.8H74.4V383.5z"/>
	</g>
	<g>
		<circle class="st2" cx="90.7" cy="499.2" r="40.3"/>
	</g>
	<g>
		<path class="st1" d="M91.6,475.1c-5.6,0-10.1,4.5-10.1,10.1c0,0.5-0.4,8.1,3.5,12.3c1.7,1.8,3.9,2.7,6.6,2.7
			c2.4,0,4.5-0.8,6.1-2.5c4.1-4.2,4.1-12.2,4-12.5C101.7,479.6,97.2,475.1,91.6,475.1z M91.6,475.9c3.6,0,6.7,2,8.2,5h-1.1
			c-0.2,0-0.4,0.2-0.4,0.4c0,0.2,0.2,0.4,0.4,0.4h1.5c0.1,0.3,0.2,0.7,0.3,1H82.7c0.3-0.9,0.7-1.8,1.2-2.6h2.7
			c0.2,0,0.4-0.2,0.4-0.4c0-0.2-0.2-0.4-0.4-0.4h-2.1C86.2,477.3,88.7,475.9,91.6,475.9z M97.1,497.1c-1.4,1.5-3.3,2.2-5.5,2.2
			c-2.4,0-4.5-0.8-6-2.4c-3.7-4-3.3-11.6-3.3-11.7c0,0,0,0,0,0c0-0.5,0-1,0.1-1.5h18.3c0.1,0.5,0.1,1,0.1,1.5
			C100.9,485.3,101,493.2,97.1,497.1z"/>
		<path class="st1" d="M109.5,502.7c-4.3-1.8-5.1-10.8-5.1-10.9c0-0.2-0.2-0.4-0.5-0.4c-0.2,0-0.4,0.2-0.4,0.5
			c0,0.4,0.9,9.6,5.6,11.6c0.1,0,0.1,0,0.2,0c0.2,0,0.3-0.1,0.4-0.3C109.9,503,109.8,502.8,109.5,502.7z"/>
		<path class="st1" d="M112.5,504.9c0.9-0.9,1.2-1.5,1.2-1.6c0.1-0.1,0.1-0.2,0-0.3c0-0.1-0.1-0.2-0.2-0.3c-4.8-2-7.4-7.6-7.8-16.6
			c-0.2-3.8-1.7-7.3-4.2-9.9c-2.6-2.7-6.1-4.1-9.8-4.1c-3.7,0-7.2,1.5-9.8,4.1c-2.6,2.6-4.1,6.2-4.2,9.9c-0.4,9-3,14.6-7.8,16.6
			c-0.1,0-0.2,0.1-0.2,0.3c0,0.1,0,0.2,0,0.3c0,0,0.4,0.7,1.2,1.6c-0.9,0.7-3.2,2.8-3.2,6.7v9.4c0,0.2,0.2,0.4,0.4,0.4
			c0.2,0,0.4-0.2,0.4-0.4v-3.5h6.3c0.2,0,0.4-0.2,0.4-0.4c0-0.2-0.2-0.4-0.4-0.4h-6.3v-1.5H71c0.2,0,0.4-0.2,0.4-0.4
			s-0.2-0.4-0.4-0.4h-2.5v-2.7c0-0.9,0.1-1.7,0.3-2.3h1.4c0.2,0,0.4-0.2,0.4-0.4c0-0.2-0.2-0.4-0.4-0.4h-1.1
			c0.7-1.6,1.8-2.6,2.3-2.9c0.7,0.6,1.5,1.3,2.7,2c3,1.9,8.5,4.1,17.6,4.1s14.6-2.2,17.6-4.1c1.1-0.7,2-1.4,2.7-2
			c0.7,0.5,2.6,2.1,2.9,5.4h-3.2c-0.2,0-0.4,0.2-0.4,0.4s0.2,0.4,0.4,0.4h3.2v1.3h-7c-0.2,0-0.4,0.2-0.4,0.4s0.2,0.4,0.4,0.4h7v1.3
			h-2c-0.2,0-0.4,0.2-0.4,0.4c0,0.2,0.2,0.4,0.4,0.4h2v4.9c0,0.2,0.2,0.4,0.4,0.4c0.2,0,0.4-0.2,0.4-0.4v-9.4
			C115.6,507.7,113.4,505.6,112.5,504.9z M108.7,506.8c-2.9,1.8-8.3,3.9-17.1,3.9c-8.8,0-14.2-2.1-17.1-3.9c-2.3-1.4-3.5-2.9-4-3.5
			c0.6-0.3,1.3-0.7,1.8-1.1c2.5,2.5,8.4,6.4,20.6,6.4c0.2,0,0.4-0.2,0.4-0.4c0-0.2-0.2-0.4-0.4-0.4c-11.8,0-17.5-3.7-19.9-6.1
			c0.4-0.3,0.7-0.7,1.1-1.1c0.8,0.8,1.8,1.6,3,2.3c0.1,0,0.1,0.1,0.2,0.1c0.1,0,0.3-0.1,0.4-0.2c0.1-0.2,0.1-0.5-0.1-0.6
			c-1.1-0.7-2.1-1.4-2.9-2.3c0.9-1.2,1.6-2.7,2.2-4.4c0.9-2.6,1.4-5.6,1.6-9.3c0.3-7.4,6.1-13.2,13.2-13.2c7.1,0,12.9,5.8,13.2,13.2
			c0.2,3.7,0.7,6.7,1.6,9.3c1.3,3.8,3.4,6.5,6.3,7.9C112.2,504,111,505.4,108.7,506.8z"/>
	</g>
</g>
</svg>
