<?xml version="1.0" encoding="utf-8"?>
<!-- Generator: Adobe Illustrator 21.1.0, SVG Export Plug-In . SVG Version: 6.00 Build 0)  -->
<svg version="1.1" id="Layer_1" xmlns="http://www.w3.org/2000/svg" xmlns:xlink="http://www.w3.org/1999/xlink" x="0px" y="0px"
	 viewBox="0 0 53.7 53.7" style="enable-background:new 0 0 53.7 53.7;" xml:space="preserve">
<style type="text/css">
	.st0{fill:#F16074;}
	.st1{fill:none;}
	.st2{fill:#FFFFFF;}
</style>
<g>
	<path class="st0" d="M53.7,26.1c0.2,7.1-2.4,14-7.3,19.2c-4.9,5.2-11.6,8.2-18.8,8.4c-7.1,0.2-14-2.4-19.2-7.3
		C3.3,41.5,0.2,34.8,0,27.7c-0.2-7.1,2.4-14,7.3-19.2C12.2,3.3,19,0.2,26.1,0c7.4-0.2,14.2,2.6,19.2,7.3
		C50.3,12,53.5,18.7,53.7,26.1L53.7,26.1z"/>
	<path class="st1" d="M27,0.3C12.3,0.3,0.4,12.3,0.4,27c0,14.7,11.9,26.6,26.6,26.6c14.7,0,26.6-11.9,26.6-26.6
		C53.7,12.3,41.7,0.3,27,0.3z"/>
	<g>
		<path class="st2" d="M21.8,24.3C21.8,24.3,21.8,24.3,21.8,24.3c0.2,0,0.4-0.1,0.4-0.4c0.6-5.2,3.1-6.2,3.1-6.2
			c0.2-0.1,0.3-0.3,0.2-0.5c-0.1-0.2-0.3-0.3-0.5-0.2c-0.1,0-3,1.1-3.6,6.8C21.4,24.1,21.6,24.3,21.8,24.3z"/>
		<path class="st2" d="M34.2,25.9l0.3,0.8c0.1,0.2,0.1,0.5,0,0.7c-0.1,0.2-0.3,0.4-0.5,0.5l-5.3,1.9c-0.1,0-0.2,0.1-0.3,0.1l0,0
			c-0.4,0-0.8-0.3-0.9-0.6c0,0,0,0,0,0l-3.2-8.2c-0.1-0.2-0.1-0.5,0-0.7c0.1-0.1,0.2-0.2,0.3-0.3l1.4,4.1c0.1,0.2,0.2,0.3,0.4,0.3
			c0,0,0.1,0,0.1,0c0.2-0.1,0.3-0.3,0.3-0.5l-1.4-4.2l0.4-0.1c0.1,0,0.2-0.1,0.3-0.1c0.4,0,0.8,0.3,0.9,0.6c0,0,0,0,0,0l2.4,6
			c0.1,0.2,0.3,0.3,0.5,0.2l3.2-1.2c0.1,0,0.2-0.1,0.3-0.1C33.7,25.3,34,25.6,34.2,25.9z"/>
		<path class="st2" d="M32.8,24.1c0.1,0.1,0.2,0.3,0.3,0.4c-0.1,0-0.3,0-0.4,0.1l-0.2,0.1c0-0.2-0.1-0.5-0.1-0.8
			C32.6,23.9,32.7,24,32.8,24.1z"/>
		<path class="st2" d="M28.6,5.6l5.7,2.9c0.1,0.1,0.2,0.2,0.1,0.3l-1,2l-6.3-2.9l0.3-0.6l2,1c0.1,0,0.1,0,0.2,0
			c0.1,0,0.3-0.1,0.4-0.2c0.1-0.2,0-0.4-0.2-0.5l-2-1l0.5-1C28.3,5.5,28.5,5.5,28.6,5.6z"/>
		<path class="st2" d="M25.9,9.1c0.2-0.2,0.5-0.4,0.7-0.5l6.6,3c0.2,1.4-0.3,2.9-1.3,4c-1.8,1.7-4.6,1.6-6.2-0.2
			C24,13.5,24.1,10.7,25.9,9.1z"/>
		<path class="st2" d="M20.7,25.2c0.2-4,1.5-6.2,2.4-7.4c0.9-1.1,2-1.6,2.2-1.7c1,0.9,2.3,1.4,3.5,1.4c0,0,0,0,0.1,0
			c2.1,1.5,2.6,6.2,2.7,7.5l-1.8,0.7L27.6,20c-0.3-0.7-0.9-1.2-1.6-1.2c-0.2,0-0.4,0-0.6,0.1l-0.8,0.3c-0.4,0.2-0.8,0.5-1,0.9
			c-0.2,0.4-0.2,0.9-0.1,1.3c0,0,0,0,0,0l3.2,8.2c0.2,0.7,0.9,1.2,1.6,1.2l0,0c0.2,0,0.4,0,0.6-0.1l2.9-1.1L33,43h-5.3
			c-0.2,0-0.4,0.2-0.4,0.4c0,0.2,0.2,0.4,0.4,0.4H33l0.1,1.1H24l0.1-5.9c0-0.2-0.2-0.4-0.4-0.4c0,0,0,0,0,0c-0.2,0-0.4,0.2-0.4,0.4
			l-0.1,5.9h-1.5l0.4-10.8c0-0.2-0.2-0.4-0.4-0.4c0,0,0,0,0,0c-0.2,0-0.4,0.2-0.4,0.4L21,44.9h-1.5C19.6,42.2,20.4,30.9,20.7,25.2z"
			/>
	</g>
</g>
</svg>
