<?xml version="1.0" encoding="utf-8"?>
<!-- Generator: Adobe Illustrator 21.1.0, SVG Export Plug-In . SVG Version: 6.00 Build 0)  -->
<svg version="1.1" id="Layer_1" xmlns="http://www.w3.org/2000/svg" xmlns:xlink="http://www.w3.org/1999/xlink" x="0px" y="0px"
	 viewBox="0 0 117.3 117.3" style="enable-background:new 0 0 117.3 117.3;" xml:space="preserve">
<style type="text/css">
	.st0{fill:#F16074;}
	.st1{fill:#FFFFFF;}
	.st2{fill:#FFE11F;}
</style>
<g>
	<path class="st0" d="M117.3,56.9c0.5,15.6-5.3,30.7-16,42c-10.7,11.3-25.4,17.9-41,18.4c-15.6,0.5-30.6-5.3-42-16
		C7.1,90.7,0.5,75.9,0,60.4c-0.5-15.6,5.3-30.7,16-42C26.6,7.1,41.4,0.5,56.9,0c16.2-0.5,31,5.7,42,16
		C109.8,26.3,116.8,40.7,117.3,56.9L117.3,56.9z"/>
	<g>
		<path class="st1" d="M47.2,95.5c0.5,0,0.9-0.4,0.9-1c0-0.5-0.4-1-0.9-1c-0.5,0-0.9,0.4-0.9,1C46.3,95.1,46.7,95.5,47.2,95.5z"/>
		<path class="st1" d="M48.4,101.8h-1.9c-2.6,0-3.5-0.9-3.5-2.9c0-0.7,0.2-1.7,0.5-2.3l-2,0.3c-0.2,0.6-0.4,1.5-0.4,2.2
			c0,2.6,1.3,4.2,5.2,4.2h4v-6.6h-1.9V101.8z"/>
		<path class="st1" d="M44.9,95.5c0.5,0,0.9-0.4,0.9-1c0-0.5-0.4-1-0.9-1c-0.5,0-0.9,0.4-0.9,1C43.9,95.1,44.4,95.5,44.9,95.5z"/>
		<path class="st1" d="M65.2,97.8c2.2,0.5,3.4,1.8,3.5,4h-4h-0.2h-0.7c-0.6,0-1.1-0.1-1.6-0.4c0.9-0.8,1.4-1.8,1.4-2.7
			c0-1.2-0.9-2.3-3-2.3c-1.4,0-3,0.8-4.1,1.6l-0.2,1.3c1.2,0.3,2.1,1.2,3,2.1c-0.9,0.3-1.9,0.4-3.3,0.4h-0.3h-0.2h-1.2v-8.5h-1.9v10
			h3.1h0.2h0.2c1.9,0,3.5-0.3,4.7-0.9c0.8,0.5,1.7,0.9,2.9,0.9h0.9h0.2h5.8v-0.9c0-3.1-1.2-4.6-3.1-5.4l3.4-2.1v-1.8l-5.6,3.5V97.8z
			 M60.9,100.5c-0.9-0.7-1.6-1.6-2.6-1.9c0.5-0.3,1.4-0.8,2.1-0.8c0.9,0,1.3,0.5,1.3,1.2C61.7,99.5,61.5,100.1,60.9,100.5z"/>
		<path class="st1" d="M74,96.6v6.8c0,1.5-0.6,2-1.5,2c-0.5,0-0.8-0.1-1.1-0.2l-0.2,1.5c0.4,0.1,0.7,0.1,1.2,0.1
			c2.9,0,3.5-1.7,3.5-3.5v-6.7H74z"/>
	</g>
	<g>
		<path class="st1" d="M30.8,40.4c-1,0-1.8,0.8-1.8,1.8c0,1,0.8,1.8,1.8,1.8c1,0,1.8-0.8,1.8-1.8C32.5,41.1,31.7,40.4,30.8,40.4z"/>
		<path class="st1" d="M38.5,38.3V26.4h-3.4v9.3h-3.5c-4.8,0-6.3-1.7-6.3-5.3c0-1.3,0.3-3,0.9-4.2l-3.6,0.6c-0.4,1-0.7,2.6-0.7,4
			c0,4.6,2.4,7.5,9.3,7.5H38.5z"/>
		<path class="st1" d="M56.4,24.1c1,0,1.8-0.8,1.8-1.8c0-1-0.8-1.8-1.8-1.8c-1,0-1.8,0.8-1.8,1.8C54.7,23.3,55.5,24.1,56.4,24.1z"/>
		<path class="st1" d="M83.4,35.7h-2.7h-0.4h-1.8v-3.6c0-3.7-1.8-6-5.9-6c-4.3,0-6.5,2.9-6.5,6.6c0,2.3-0.7,3-1.9,3h-0.1h-0.4h-1.3
			c-1.1,0-2-0.3-2.8-0.7c1.7-1.4,2.6-3.2,2.6-4.9c0-2.2-1.6-4.2-5.4-4.2c-2.5,0-5.3,1.4-7.3,2.8l-0.3,2.4c2.2,0.6,3.7,2.2,5.3,3.7
			c-1.5,0.5-3.5,0.8-5.9,0.8h-0.5h-0.4h-2.1v-9.3h-3.4v12.2c0,2.7-1,3.6-2.7,3.6c-0.8,0-1.5-0.1-2.1-0.3l-0.3,2.7
			c0.6,0.2,1.3,0.3,2.1,0.3c5.2,0,6.3-3.1,6.3-6.4v-0.1h2.1h0.4h0.3c3.4,0,6.2-0.6,8.4-1.6c1.4,0.9,3,1.6,5.2,1.6h1.7h0.4h0
			c1.5,0,2.7-0.6,3.4-2c0.8,1.2,2.2,2,5.2,2h7.5h0.4h6.1V20.4h-3.4V35.7z M57.3,33.5c-1.5-1.3-2.9-2.8-4.7-3.5
			c0.9-0.6,2.5-1.5,3.9-1.5c1.6,0,2.4,0.9,2.4,2.1C58.9,31.6,58.4,32.6,57.3,33.5z M75.2,35.7H73c-2.6,0-3.6-1.1-3.6-3.4
			c0-2.2,1.1-3.6,2.9-3.6c1.9,0,2.8,1.1,2.8,3.8V35.7z"/>
		<rect x="91.1" y="20.4" class="st1" width="3.4" height="17.9"/>
	</g>
	<g>
		<path class="st2" d="M55.1,80.2c-1.8,0-3.7-0.2-4.9-0.6l0.6-4.9c1.2,0.4,2.8,0.6,4.5,0.6c3.7,0,5.8-1.9,5.8-4.4
			c0-2.4-1.9-4.2-6.3-4.2c-1.3,0-2.2,0.1-3.1,0.2v-4.5c6.3,0.2,8.4-1.9,8.4-4.5c0-2.1-1.4-3.5-4.2-3.5c-1.7,0-3.3,0.5-4.9,1.2
			l-0.4-4.7c1.8-0.7,4.3-1.3,6.8-1.3c5.6,0,8.6,3,8.6,7.1c0,3.2-1.9,5.6-4.7,6.7l0,0.1c3.6,0.9,5.8,3.5,5.8,6.9
			C67.1,76.3,62.1,80.2,55.1,80.2z"/>
	</g>
</g>
</svg>
