<?xml version="1.0" encoding="utf-8"?>
<!-- Generator: Adobe Illustrator 21.1.0, SVG Export Plug-In . SVG Version: 6.00 Build 0)  -->
<svg version="1.1" id="Layer_1" xmlns="http://www.w3.org/2000/svg" xmlns:xlink="http://www.w3.org/1999/xlink" x="0px" y="0px"
	 viewBox="0 0 117.3 117.3" style="enable-background:new 0 0 117.3 117.3;" xml:space="preserve">
<style type="text/css">
	.st0{fill:#622272;}
	.st1{fill:#FFFFFF;}
	.st2{fill:#FFE11F;}
</style>
<g>
	<path class="st0" d="M117.3,56.9c0.5,15.6-5.3,30.7-16,42c-10.7,11.3-25.4,17.9-41,18.4c-15.6,0.5-30.6-5.3-42-16
		C7.1,90.7,0.5,75.9,0,60.4c-0.5-15.6,5.3-30.6,16-42C26.6,7.1,41.4,0.5,56.9,0c16.2-0.5,31,5.7,42,16
		C109.8,26.3,116.8,40.7,117.3,56.9L117.3,56.9z"/>
	<g>
		<path class="st1" d="M44.9,95.1c0.5,0,0.9-0.4,0.9-1c0-0.5-0.4-1-0.9-1c-0.5,0-0.9,0.4-0.9,1C43.9,94.6,44.4,95.1,44.9,95.1z"/>
		<path class="st1" d="M48.4,101.3h-1.9c-2.6,0-3.5-0.9-3.5-2.9c0-0.7,0.2-1.7,0.5-2.3l-2,0.3c-0.2,0.6-0.4,1.5-0.4,2.2
			c0,2.6,1.3,4.2,5.2,4.2h4v-6.6h-1.9V101.3z"/>
		<path class="st1" d="M47.2,95.1c0.5,0,0.9-0.4,0.9-1c0-0.5-0.4-1-0.9-1c-0.5,0-0.9,0.4-0.9,1C46.3,94.6,46.7,95.1,47.2,95.1z"/>
		<path class="st1" d="M65.2,97.3c2.2,0.5,3.4,1.8,3.5,4h-4h-0.2h-0.7c-0.6,0-1.1-0.1-1.6-0.4c0.9-0.8,1.4-1.8,1.4-2.7
			c0-1.2-0.9-2.3-3-2.3c-1.4,0-3,0.8-4.1,1.6l-0.2,1.3c1.2,0.3,2.1,1.2,3,2.1c-0.9,0.3-1.9,0.4-3.3,0.4h-0.3h-0.2h-1.2v-8.5h-1.9v10
			h3.1h0.2h0.2c1.9,0,3.5-0.3,4.7-0.9c0.8,0.5,1.7,0.9,2.9,0.9h0.9h0.2h5.8v-0.9c0-3.1-1.2-4.6-3.1-5.4l3.4-2.1v-1.8l-5.6,3.5V97.3z
			 M60.9,100.1c-0.9-0.7-1.6-1.6-2.6-1.9c0.5-0.3,1.4-0.8,2.1-0.8c0.9,0,1.3,0.5,1.3,1.2C61.7,99,61.5,99.6,60.9,100.1z"/>
		<path class="st1" d="M74,96.1v6.8c0,1.5-0.6,2-1.5,2c-0.5,0-0.8-0.1-1.1-0.2l-0.2,1.5c0.4,0.1,0.7,0.1,1.2,0.1
			c2.9,0,3.5-1.7,3.5-3.5v-6.7H74z"/>
	</g>
	<g>
		<path class="st1" d="M27,35.4c0-0.9,0.7-1.5,2-1.5c0.9,0,1.8,0.2,2,0.2l0.4-2.6c-0.3-0.1-1.3-0.2-2.3-0.2c-4,0-5.5,2.1-5.5,4.2
			c0,0.8,0.3,1.4,0.9,1.7c-0.6-0.1-1.4-0.2-2.3-0.2v2.6h10v-2.6h-2.3C27.7,37.1,27,36.4,27,35.4z"/>
		<path class="st1" d="M50.9,25.9c0.9,0,1.7-0.8,1.7-1.7c0-1-0.7-1.7-1.7-1.7s-1.7,0.8-1.7,1.7C49.2,25.1,49.9,25.9,50.9,25.9z"/>
		<path class="st1" d="M53,22.2c0.9,0,1.6-0.7,1.6-1.6c0-0.9-0.7-1.6-1.6-1.6c-0.9,0-1.5,0.7-1.5,1.6C51.4,21.5,52.1,22.2,53,22.2z"
			/>
		<path class="st1" d="M53.4,24.1c0,1,0.7,1.7,1.7,1.7c0.9,0,1.7-0.8,1.7-1.7c0-1-0.7-1.7-1.7-1.7C54.1,22.4,53.4,23.2,53.4,24.1z"
			/>
		<path class="st1" d="M83.1,37.1h-2.8h-0.4h-1.3c-1.1,0-2-0.3-2.8-0.7c1.7-1.4,2.6-3.2,2.6-4.9c0-2.2-1.6-4.2-5.4-4.2
			c-2.5,0-5.3,1.4-7.3,2.8l-0.3,2.4c2.2,0.6,3.7,2.2,5.3,3.7c-1.5,0.5-3.5,0.8-5.9,0.8h-0.5h-0.4h-2.1c0.1-1.1,0.1-2.3,0.1-3.3
			c0-2.5-0.3-5-0.8-7l-3.3,0.5c0.4,1.9,0.7,4.3,0.7,6.8c0,0.8-0.1,2-0.2,3h-0.9c-2.2,0-2.8-0.7-2.8-2.8v-6h-3.2v6.1
			c0,1.8-0.4,2.9-1.9,2.9c-1.5,0-1.9-1-1.9-2.9v-5h-3.4v4.6c0,2.5-0.6,3.2-2.3,3.2h-0.4h-0.4h-2.2V21.8h-3.4v17.9h5.5h0.4H42
			c1.9,0,2.9-0.7,3.4-1.9c0.4,1.3,1.8,2.1,3.6,2.1c1.6,0,3.1-0.7,3.7-2.1c0.6,1.4,1.9,1.9,4.1,1.9h7.1h0.4h0.3
			c3.4,0,6.2-0.6,8.4-1.6c1.4,0.9,3,1.6,5.2,1.6h1.7h0.4h6.1V21.8h-3.4V37.1z M73.5,34.9c-1.5-1.3-2.9-2.8-4.7-3.5
			c0.9-0.6,2.5-1.5,3.9-1.5c1.6,0,2.4,0.9,2.4,2.1C75.1,33,74.5,34,73.5,34.9z"/>
		<rect x="90.7" y="21.8" class="st1" width="3.4" height="17.9"/>
	</g>
	<g>
		<path class="st2" d="M65.6,74.7v6.5h-5.5v-6.5H47.7l-0.4-4.5l10.8-18.6h7.5v17.9H70v5.1H65.6z M60.2,56.8L60.2,56.8l-7.6,13
			c1.9-0.1,6.2-0.1,7.6-0.1V56.8z"/>
	</g>
</g>
</svg>
