<?xml version="1.0" encoding="utf-8"?>
<!-- Generator: Adobe Illustrator 21.1.0, SVG Export Plug-In . SVG Version: 6.00 Build 0)  -->
<svg version="1.1" id="Layer_1" xmlns="http://www.w3.org/2000/svg" xmlns:xlink="http://www.w3.org/1999/xlink" x="0px" y="0px"
	 viewBox="0 0 304 127.7" style="enable-background:new 0 0 304 127.7;" xml:space="preserve">
<style type="text/css">
	.st0{fill:#622272;}
</style>
<g>
	<path class="st0" d="M9.3,27c4.5,0,9.5-2.7,12.5-8.3l3.7-5.9l2.2-3.9c1.2-2,2.2-4.1,3.4-4.1c0.2,0,0.4,0,0.5,0.1l0.2-0.3
		c-0.9-0.5-1.6-0.6-2.4-0.6l-5.3-3C22.9,0.3,21.6,0,20.5,0c-2.7,0-5.4,1.4-6.7,3.8l-1.3,2.3C12,7,11.7,8,11.7,8.9
		c0,3.2,3.1,7.3,7.3,7.3c0.5,0,0.9-0.1,1.3-0.2l-0.7,1.4C16.5,23.2,12,25.7,8,25.7c-2.9,0-5.4-1.2-7.1-3.4l-0.3,0.2
		C2.6,25.3,5.9,27,9.3,27z M19.3,13.8c-3.1,0-5.1-3-5.1-4.8c0-0.5,0.2-1,0.4-1.5l1.2-2.3c0.9-1.6,2.7-2.6,4.5-2.6
		c0.9,0,1.9,0.2,2.8,0.7l3.4,1.9l-4.1,7.5C21.6,13.4,20.4,13.8,19.3,13.8z"/>
	<polygon class="st0" points="22.4,57.4 29.4,64.4 36.2,57.4 29.4,50.7 	"/>
	<path class="st0" d="M24.6,74.5C11.5,74.5,0,86,0,99.1v8.6c0,11.4,11.3,19.9,24.3,19.9c12.3,0,22.6-9.9,22.6-22.3V90.9
		c0-8.4,0-16.6,4.9-17.3v-1.1c-2.7,0.3-5.5,0.8-7.3,2H24.6z M39.1,87v18.1c0,8-7,14.7-14.8,14.7c-9.3,0-16.2-6-16.2-12.3V99
		c0-9.1,7.4-16.6,17.7-16.6h13.8C39.1,83.7,39.1,84.9,39.1,87z"/>
	<polygon class="st0" points="8.5,57.4 15.5,64.4 22.3,57.4 15.5,50.7 	"/>
	<path class="st0" d="M197,65.5c3.7,0,7.4-2.3,8.1-6.2c1.4,0.9,3,1.5,4.8,1.5c4.3,0,7.7-3.8,7.7-7.9c0-0.9-0.2-1.7-0.5-2.6l-1.8-4.7
		c-0.7-1.8-1.4-3.5-1.4-4.8c0-0.7,0.2-1.2,0.8-1.6l-0.1-0.3c-1.8,0.8-2.9,2-2.9,3.9c0,0.7,0.2,1.6,0.5,2.4l2.3,5.9
		c0.2,0.5,0.3,1.2,0.3,1.8c0,2.5-2.1,5.1-5,5.1c-2.3,0-4.4-1.6-5.4-4.1l-3.6-9.1l-2.5,0.9l3.9,10.2c0.2,0.5,0.3,1.1,0.3,1.6
		c0,2.4-2,5.2-5,5.2c-2.2,0-4.3-1.5-5.3-4.1l-3.6-9.1l-2.6,1l4.1,10.6C191.5,64.1,194.1,65.5,197,65.5z"/>
	<path class="st0" d="M188,43.8c-0.1-0.2-0.1-0.3-0.1-0.5c0-2.1,3.1-3.3,6.6-4.7l11.7-4.6c3.2-1.2,4.5-3,4.5-5.2
		c0-0.9-0.2-1.7-0.5-2.7l-0.5,0.2c0,0.2,0,0.3,0,0.5c0,2-3.1,3.4-6.6,4.7L191.4,36c-3.2,1.2-4.5,3.2-4.5,5.4c0,0.8,0.2,1.6,0.5,2.6
		L188,43.8z"/>
	<path class="st0" d="M265.7,36.5v1c4.9,0.4,4.9,8.8,4.9,17.1v47.9c0,10.7-8.2,17-13.8,17.3h-18v-15.5c0-15-12-28.4-26.6-29.6h-16.6
		c-25.2,0-44.5,15.1-46.2,34.8c-1.6-6.3-5.2-12.4-10.5-17.5l-0.9,0.8c5.7,5.3,7.7,13,7.7,21.1c0,3.2-0.7,5.2-2,5.9h-6.4
		c-8.1-0.6-14.2-5.2-14.8-13v-59c0-10.2-5-14.3-12.8-14.5v1.2c4.8,0.6,5,8.7,5,17.7v49.3c0,10.5-7.1,18.4-16.2,18.4h-7V84.3
		c0-10.4-5.1-14.4-13.1-14.8v1.1c4.8,0.6,5.3,9.1,5.3,17.9v31.3H57.4v7.8h40.9c8.3,0,16.6-6.1,19.1-10.9c4,6.9,11.5,10.8,19.5,10.9
		v0h120v0c1.9-0.1,4.2-0.7,7-2.1c8.6-4.1,14.5-13.4,14.5-23V50.8C278.4,40.5,273.2,36.7,265.7,36.5z M231,119.8h-80.1v-2.5
		c0-19.8,18.3-34.7,44.9-34.7h8.1c6.9,0,11.5,0.9,14.8,2.2c8.1,4,12.2,10.5,12.2,19.5V119.8z"/>
	<path class="st0" d="M291.5,37v0.9c4.1,0.6,4.7,4.4,4.7,18v71.8h7.8V51.7C304,42.1,299.8,37.2,291.5,37z"/>
</g>
</svg>
