<?xml version="1.0" encoding="utf-8"?>
<!-- Generator: Adobe Illustrator 21.1.0, SVG Export Plug-In . SVG Version: 6.00 Build 0)  -->
<svg version="1.1" id="Layer_1" xmlns="http://www.w3.org/2000/svg" xmlns:xlink="http://www.w3.org/1999/xlink" x="0px" y="0px"
	 viewBox="0 0 408.2 72.9" style="enable-background:new 0 0 408.2 72.9;" xml:space="preserve">
<style type="text/css">
	.st0{fill:#622272;}
</style>
<g>
	<polygon class="st0" points="134.5,15.6 131.1,12.2 127.7,15.6 131.1,18.9 	"/>
	<path class="st0" d="M157.1,5.2v0.5c2.5,0.2,2.5,4.4,2.5,8.6v23.9c0,5.4-4.1,8.5-6.9,8.7H145V36c0-6.7-5.2-12-11.7-12v-0.1h-3.2
		c-4,0-7.8,0-8.1-2.3h-0.6c0.2,3.8,2,6.1,6.7,6.1h5.2c4.6,0,7.8,3.9,7.8,8.9v10.4h-24.5c-1.8,0-2.9-0.2-3.6-0.6
		c-2.3-1.2-3.7-3.8-3.7-6.6l0.2-7.3c0-4.2,0.1-8.3,2.3-8.7v-0.5c-1.4,0.2-2.7,0.4-3.8,1.2h-9c-6.4,0-12.1,5.6-12.1,12.1v10.4h-7.9
		c-4.2,0-7.5-3.2-7.5-7.2v-7.4c0-4.3,0-8.3,2.5-8.6v-0.5c-3.8,0-6.4,2-6.4,7.2v9.3c0,3.8-3.2,7.2-7.1,7.2h-0.7
		c-3.9,0-7.5-3.8-7.5-7.2V23.9h-3.9v15.8c0,3.8-3.5,7.2-7.6,7.2c-3.8,0-7.2-3.7-7.5-7.2V23.9h-3.9v26.9c-1.1,7.8-4.7,11.1-9.3,11.1
		H14c-4.2,0-7.4-3.2-7.4-7.3V40.5c0-5.4-3-7.1-6.6-7.2v0.4c2.4,0.5,2.5,4.2,2.5,8.9v12c0,5.8,4.9,11,10.6,11.3h7
		c1.1,0,2.1-0.1,2.9-0.4c1.7-0.5,6-2.7,8-7.1c2.5-5.9,2.3-8.2,2.3-10.8v-0.7c0.2,2.7,4.2,3.9,7.5,3.9h0.3c3.9,0,7.5-1.8,9.5-5.3
		c2,3.1,5.5,5.3,9.5,5.3c3.8,0,7.2-1.8,9.2-4.9c2.2,3.1,5.7,4.9,9.6,4.9v0h19.2c3.6,0,7.1-1.8,9.1-4.7c2.1,3.1,5.1,4.7,9.2,4.7v0
		h24.6c0.4,4.4,2.8,6.3,6.4,6.3v-0.4c-2-0.2-2.3-3-2.5-5.9h7.7v0c1,0,2.1-0.4,3.5-1c4.3-2.1,7.2-6.7,7.2-11.5V12.3
		C163.5,7.2,160.9,5.3,157.1,5.2z M105.5,30.5v9.3c0,4.1-3.4,7-7.5,7h-7V36.5c0-4.6,3.7-8.3,8.8-8.3h6
		C105.6,28.9,105.5,29.6,105.5,30.5z"/>
	<path class="st0" d="M170,5.4v0.4c2.1,0.3,2.3,2.2,2.3,9v35.9h3.9v-38C176.3,8,174.2,5.5,170,5.4z"/>
	<polygon class="st0" points="223.2,22.6 226.6,25.9 230,22.5 226.6,19.1 223.2,22.5 219.8,19.1 216.4,22.5 219.8,25.9 	"/>
	<path class="st0" d="M246.8,34.1v4.1c0,5.2-3.4,8.7-8,8.7h-22.9c-15,0-21.1-5.9-21.1-14.7c0-1.7,0.1-3.4,0.8-4.8l-0.4-0.3
		c-1,2.2-1.4,4.5-1.4,6.9c0,10.6,7.9,16.8,22.1,16.8h22.9c6.5,0,11.9-5.4,11.9-12v-2.6c0-4.4,0-8.5,2.4-8.8v-0.6
		C249.3,27,246.8,28.9,246.8,34.1z"/>
	<path class="st0" d="M265.9,50.7v-38c0-4.8-2.1-7.3-6.2-7.4v0.4c2.1,0.3,2.3,2.2,2.3,9v35.9H265.9z"/>
	<path class="st0" d="M350.2,8.8c0-0.1,0-0.2,0-0.2c0-1.1,1.6-1.6,3.3-2.3l5.9-2.3c1.6-0.6,2.3-1.5,2.3-2.6c0-0.4-0.1-0.9-0.3-1.3
		l-0.2,0.1c0,0.1,0,0.2,0,0.2c0,1-1.6,1.7-3.3,2.3l-5.9,2.3c-1.6,0.6-2.2,1.6-2.2,2.7c0,0.4,0.1,0.8,0.3,1.3L350.2,8.8z"/>
	<path class="st0" d="M354.6,19.6c1.8,0,3.7-1.2,4.1-3.1c0.7,0.5,1.5,0.7,2.4,0.7c2.1,0,3.9-1.9,3.9-3.9c0-0.4-0.1-0.9-0.2-1.3
		l-0.9-2.3c-0.4-0.9-0.7-1.8-0.7-2.4c0-0.4,0.1-0.6,0.4-0.8l0-0.2c-0.9,0.4-1.4,1-1.4,2c0,0.4,0.1,0.8,0.3,1.2l1.1,3
		c0.1,0.3,0.2,0.6,0.2,0.9c0,1.2-1.1,2.5-2.5,2.5c-1.1,0-2.2-0.8-2.7-2l-1.8-4.6l-1.2,0.5l2,5.1c0.1,0.3,0.2,0.5,0.2,0.8
		c0,1.2-1,2.6-2.5,2.6c-1.1,0-2.1-0.7-2.7-2l-1.8-4.6l-1.3,0.5l2,5.3C351.9,19,353.2,19.6,354.6,19.6z"/>
	<path class="st0" d="M389,5.2v0.5c2.5,0.2,2.5,4.4,2.5,8.6v23.9c0,5.4-4.1,8.5-6.9,8.7h-9v-7.7c0-7.5-6-14.2-13.3-14.8H354
		c-12.6,0-22.3,7.5-23.1,17.4c-0.8-3.2-2.6-6.2-5.2-8.8l-0.5,0.4c2.9,2.7,3.8,6.5,3.8,10.5c0,1.6-0.4,2.6-1,3h-3.2h-0.1h-6.2
		c-4.4,0-7.9-3.6-7.9-7.7V11.5c0-5.2-2.4-7.3-6.5-7.4v0.6c2,0.3,2.5,2.9,2.6,6.8v27.6c0,3.4-3.7,7.7-8.1,7.7h-4.4h-0.1h-3.5V29.8
		c0-2.9,0.7-4.4,2.2-4.5v-0.5c-1.4,0.1-2.6,0.4-3.4,1h-9.4c-5.7,0-11.3,5.1-11.3,11.5v4.1c0,5.5,5.2,9.5,11.1,9.5h7
		c0,12.7-7.1,21.2-16.3,21.2c-1.6,0-3.2-0.3-4.7-0.9l-0.3,0.5c2.4,1,4.5,1.3,6.6,1.3c10.4,0,18.4-9.5,18.4-22.2h3.5h0.1h4.4
		c3.9,0,7.7-2.3,9.8-5.4c2.2,3.4,5.7,5.4,10.1,5.4h6.2h0.1h59.9v0c1,0,2.1-0.4,3.5-1c4.3-2.1,7.2-6.7,7.2-11.5V12.3
		C395.4,7.2,392.8,5.3,389,5.2z M286.9,30.4c0,0.4-0.1,0.8-0.1,1.2v15.2H280c-3.8,0-7.5-2.6-7.5-5.6v-4c0-4.2,3.7-7.8,8.1-7.8h6.3
		V30.4z M371.7,46.8h-40v-1.2c0-9.9,9.1-17.3,22.5-17.3h4.1c3.4,0,5.7,0.4,7.4,1.1c4.1,2,6.1,5.2,6.1,9.7V46.8z"/>
	<path class="st0" d="M401.9,5.4v0.4c2.1,0.3,2.3,2.2,2.3,9v35.9h3.9v-38C408.2,8,406.1,5.5,401.9,5.4z"/>
</g>
</svg>
