<?xml version="1.0" encoding="utf-8"?>
<!-- Generator: Adobe Illustrator 21.1.0, SVG Export Plug-In . SVG Version: 6.00 Build 0)  -->
<svg version="1.1" id="Layer_1" xmlns="http://www.w3.org/2000/svg" xmlns:xlink="http://www.w3.org/1999/xlink" x="0px" y="0px"
	 viewBox="0 0 170.6 83.6" style="enable-background:new 0 0 170.6 83.6;" xml:space="preserve">
<style type="text/css">
	.st0{fill:#622272;}
	.st1{display:none;}
	.st2{display:inline;}
	.st3{fill:#C94876;}
	.st4{display:inline;fill:#FFEC99;}
</style>
<g>
	<path class="st0" d="M26.7,17.6c-0.6-0.3-1.2-0.5-1.8-0.5c-1.4,0-2.7,0.7-3.4,1.9l-0.7,1.2c-0.2,0.4-0.4,0.9-0.4,1.4
		c0,1.6,1.6,3.7,3.7,3.7c0.2,0,0.4,0,0.7-0.1l-0.4,0.7c-1.6,2.9-3.9,4.1-5.9,4.1c-1.4,0-2.7-0.6-3.6-1.7l-0.2,0.1
		c1,1.4,2.7,2.2,4.4,2.2c2.3,0,4.7-1.4,6.2-4.1l1.8-3l1.1-2c0.6-1,1.1-2,1.7-2c0.1,0,0.2,0,0.3,0l0.1-0.2c-0.4-0.2-0.8-0.3-1.2-0.3
		L26.7,17.6z M25.9,23.4c-0.4,0.4-1,0.6-1.6,0.6c-1.6,0-2.5-1.5-2.5-2.4c0-0.3,0.1-0.5,0.2-0.7l0.6-1.2c0.4-0.8,1.4-1.3,2.3-1.3
		c0.5,0,0.9,0.1,1.4,0.4l1.7,0.9L25.9,23.4z"/>
	<path class="st0" d="M23.7,58.7c0,14.1-8.1,23.9-18.2,23.9c-1.8,0-3.5-0.4-5.1-1.2L0,82.1c2.7,1,4.9,1.5,7.2,1.5
		c5.8,0,10.4-2.1,14.3-6.7c4.2-4.9,6.2-10.7,6.2-18.1v-23h-4V58.7z"/>
	<path class="st0" d="M78.9,41.8H59.6v-2.5c0-4.5,3.2-7.8,8.4-7.8h6.5c9.5,0,14.2-4.6,14.2-11.1h-0.4c0,3.2-5.2,7.1-14.1,7.1h-6.6
		c-6.3,0-11.9,5.2-11.9,11.8v6.4h23.1c5,0,8.2,3.3,8.2,7.8v3.6H49.8h-0.1h-1.6c-4.5,0-8-3.6-8-8.4v-1.3V25.9c0-0.9,0-1.6,0-2.3
		c0-3.3,0.4-6.5,2.5-6.7v-0.6c-3.9,0.1-6.4,2.1-6.4,7v25.4c0,6.1,5.4,12.3,12,12.3h1.6h0.1H91v-7.5C91,47.1,85.4,41.8,78.9,41.8z"/>
	<path class="st0" d="M106,13c2,0,3.8-1.7,3.8-3.8V6.8c0-1.4,0-2.8,0.9-2.9V3.7c-0.5,0-0.9,0.2-1.3,0.4H106c-2.2,0-4.1,1.9-4.1,4.1
		v1.4C101.9,11.6,103.8,13,106,13z M103.2,8.2c0-1.6,1.2-2.8,3-2.8h2.3c-0.2,0.2-0.1,0.5-0.1,0.7v3c0,1.4-1.2,2.5-2.5,2.5
		c-1.5,0-2.7-0.9-2.7-2.1V8.2z"/>
	<polygon class="st0" points="107.7,25.9 104.3,22.5 100.9,25.9 104.3,29.2 	"/>
	<path class="st0" d="M107,36.5c0-3.5,1.2-5.1,3.2-5.7v-0.3c-2.8,0-6,2.5-6,7.2c1.4,7.3,14.8,4,14.8,13.2c0,3.1-3.2,6.1-7.3,6.1
		h-5.7c-4.1,0-7.8,0-8.1-2.6h-0.5c0.2,4.5,1.8,6.6,7.7,6.6h6.6c5.9,0,11.1-4.3,11.1-10.2C122.9,38.3,107.9,41.3,107,36.5z"/>
	<path class="st0" d="M128.2,8.8c0-0.1,0-0.2,0-0.2c0-1.1,1.6-1.6,3.3-2.3l5.9-2.3c1.6-0.6,2.3-1.5,2.3-2.6c0-0.4-0.1-0.9-0.3-1.3
		l-0.2,0.1c0,1.2-1.3,1.8-3.3,2.6L130,4.9c-1.6,0.6-2.2,1.6-2.2,2.7c0,0.4,0.1,0.8,0.3,1.3L128.2,8.8z"/>
	<path class="st0" d="M141.1,18.5v-2.5h-7.6c-1.1,0-2.1,1.1-2.1,2.2v0.9c0,1.7,0.8,3.2,2.1,4.3c-0.5,0.1-1,0.2-1.4,0.2
		c-1.6,0-3-0.5-3.1-1.4h-0.3c0.3,2.2,1.4,3.7,4.2,3.7h8.7v-2.4h-3.3c-2.7,0-4.6-1.9-4.6-4.3v-0.6H141.1z"/>
	<path class="st0" d="M151.4,14.3v0.5c2.3,0.4,2.4,4.3,2.5,8.9V48c0,5.2-3.8,9.1-8,9.1h-3.6V39.6c0-5.2-2.7-7.1-6.6-7.3v0.4
		c2.4,0.5,2.7,4.6,2.7,8.9v15.6h-13v3.9h20.4c6.4,0,11.9-6.3,11.9-13V21.5C157.9,16.4,155.2,14.5,151.4,14.3z"/>
	<path class="st0" d="M164.4,15.7v0.4c2.1,0.3,2.3,2.2,2.3,9V61h3.9V23C170.6,18.2,168.6,15.8,164.4,15.7z"/>
</g>
<g class="st1">
	<g class="st2">
		<g>
			<path class="st3" d="M-291.9,200.1c-4.3,3.7-3.3,7.4-1.1,7.4c1.6,0,2.2-1.8,1.4-2.8c-0.7-0.9-0.6-1.9,0.9-3.5L-291.9,200.1z"/>
			<path class="st3" d="M-267.9,204.9h-2.5h-0.3h-1.9V197c0,0-2.1-0.8-4.8-0.8c-4.2,0-6.1,2.8-6.1,5.8c0,3.3,1.7,5.3,6.2,5.3h6.6
				h0.3h5.5v-16.2h-3V204.9z M-275.6,204.9h-1.5c-2.4,0-3.4-1.1-3.4-3.2c0-1.8,1-3.1,2.7-3.1c1.3,0,2.2,0.4,2.2,0.4V204.9z"/>
			<path class="st3" d="M-244.5,196.1h-1.3c-1.2,0-1.6-0.4-1.6-0.9c0-0.5,0.4-0.8,1.1-0.8c0.5,0,1,0.1,1.1,0.1l0.3-1.7
				c-0.2,0-0.7-0.1-1.4-0.1c-2.4,0-3.3,1.3-3.3,2.6c0,0.3,0.2,0.8,0.4,0.9c-0.3-0.1-0.8-0.1-1.3-0.1v1.7h5.9V196.1z"/>
			<path class="st3" d="M-235.7,209.2c-0.9,0-1.5,0.7-1.5,1.6c0,0.9,0.7,1.6,1.5,1.6c0.9,0,1.5-0.7,1.5-1.6
				C-234.1,209.9-234.8,209.2-235.7,209.2z"/>
			<path class="st3" d="M-233.3,204.9h-4h-0.4h-2v-13.8h-3v13.8h-4.8c-4.3,0-5.7-1.5-5.7-4.8c0-1.2,0.3-2.7,0.8-3.8l-3.2,0.5
				c-0.3,0.9-0.6,2.4-0.6,3.6c0,4.2,2.2,6.8,8.4,6.8h10.1h0.4h7v-10.8h-3V204.9z"/>
			<path class="st3" d="M-231.8,209.2c-0.9,0-1.5,0.7-1.5,1.6c0,0.9,0.7,1.6,1.5,1.6s1.5-0.7,1.5-1.6
				C-230.3,209.9-231,209.2-231.8,209.2z"/>
			<path class="st3" d="M-210,191.5c0.8,0,1.4-0.6,1.4-1.4s-0.6-1.4-1.4-1.4c-0.8,0-1.4,0.6-1.4,1.4S-210.8,191.5-210,191.5z"/>
			<path class="st3" d="M-211.9,194.7c0.9,0,1.5-0.7,1.5-1.6c0-0.9-0.7-1.6-1.5-1.6s-1.5,0.7-1.5,1.6
				C-213.4,194-212.7,194.7-211.9,194.7z"/>
			<path class="st3" d="M-209.6,193.2c0,0.9,0.7,1.6,1.5,1.6c0.9,0,1.5-0.7,1.5-1.6c0-0.9-0.7-1.6-1.5-1.6
				C-208.9,191.6-209.6,192.3-209.6,193.2z"/>
			<path class="st3" d="M-205.6,196c0.4,1.7,0.7,3.9,0.7,6.2c0,0.7-0.1,1.8-0.2,2.8h-0.8c-2,0-2.5-0.6-2.5-2.6v-5.4h-2.9v5.5
				c0,1.7-0.4,2.6-1.7,2.6c-1.4,0-1.7-0.9-1.7-2.7v-4.6h-3v4.2c0,2.3-0.6,2.9-2.1,2.9h-0.4h-0.3h-1.9v-8.4h-3v11.1
				c0,2.5-0.9,3.2-2.5,3.2c-0.7,0-1.3-0.1-1.9-0.3l-0.3,2.4c0.6,0.1,1.2,0.2,1.9,0.2c4.7,0,5.7-2.8,5.7-5.7v-0.1h1.9h0.3h0.4
				c1.7,0,2.6-0.6,3.1-1.7c0.4,1.2,1.6,1.9,3.3,1.9c1.4,0,2.8-0.6,3.3-1.9c0.5,1.2,1.7,1.7,3.7,1.7h4.3c0.2-1.6,0.3-3.7,0.3-5.4
				c0-2.3-0.3-4.5-0.7-6.4L-205.6,196z"/>
			<polygon class="st3" points="-187.6,203.2 -190.9,190.9 -194,191.3 -190.7,203.2 			"/>
			<polygon class="st3" points="-185.9,204.9 -193,204.9 -193,207.3 -182.9,207.3 -182.9,191.1 -185.9,191.1 			"/>
			<path class="st3" d="M-168.5,196.2c-4,0-6,2.7-6,5.8c0,3.2,1.7,5.3,6.2,5.3h5v-5.8C-163.3,198.2-164.9,196.2-168.5,196.2z
				 M-166.2,204.9h-1.7c-2.4,0-3.4-1.1-3.4-3.2c0-1.8,1-3.1,2.7-3.1c1.5,0,2.5,1,2.5,3.3V204.9z"/>
			<path class="st3" d="M-144.9,196.3c-1,0-2,0.1-2.9,0.2v2.4c0.9-0.1,1.7-0.2,2.6-0.2c3.3,0,4.5,1.5,4.5,4.4c0,0.6,0,1.2-0.1,1.7
				h-8.6h-0.3h-1.2c-0.3-5.1-2.9-7.7-7.6-9l-0.7,2.5c3.6,0.9,5.3,3,5.4,6.4h-6.8v2.4h10.9h0.3h11.3c0.3-1.7,0.4-3.1,0.4-4.3
				C-137.7,198.6-139.7,196.3-144.9,196.3z"/>
			<path class="st3" d="M-135.5,201.9c0,3.3,1.7,5.3,6.2,5.3h1.8v0.3c0,2.2-1.6,3.1-4,3.1c-1.8,0-3.6-0.4-3.6-0.4l-0.2,2.5
				c0,0,1.8,0.3,3.5,0.3c5.2,0,7.2-2.6,7.2-5.7V197c0,0-2.1-0.8-4.8-0.8C-133.7,196.2-135.5,198.9-135.5,201.9z M-127.6,204.9h-1.5
				c-2.4,0-3.4-1.1-3.4-3.2c0-1.8,1-3.1,2.7-3.1c1.3,0,2.2,0.4,2.2,0.4V204.9z"/>
			<path class="st3" d="M-92.9,204.9h-2.5h-0.4h-2v-13.8h-3v13.8h-2.5h-0.3h-1.9V197c0,0-2.1-0.8-4.8-0.8c-4.2,0-6.1,2.8-6.1,5.8
				c0,3.3,1.7,5.3,6.2,5.3h6.6h0.3h7.5h0.4h5.5v-16.2h-3V204.9z M-108.5,204.9h-1.5c-2.4,0-3.4-1.1-3.4-3.2c0-1.8,1-3.1,2.7-3.1
				c1.3,0,2.2,0.4,2.2,0.4V204.9z"/>
			<rect x="-86" y="191.1" class="st3" width="3" height="16.2"/>
			<polygon class="st3" points="-66.6,204.9 -73.7,204.9 -73.7,207.3 -63.6,207.3 -63.6,191.1 -66.6,191.1 			"/>
			<polygon class="st3" points="-68.3,203.2 -71.6,190.9 -74.7,191.3 -71.4,203.2 			"/>
			<rect x="-59.7" y="191.1" class="st3" width="3" height="16.2"/>
			<path class="st3" d="M-58.5,211c0-0.4,0.4-0.7,1-0.7c0.5,0,0.9,0.1,1.1,0.1l0.3-1.7c-0.2,0-0.8-0.1-1.4-0.1
				c-2.2,0-3.2,1.1-3.2,2.4c0,0.3,0.1,0.6,0.3,0.8c-0.3-0.1-0.7-0.1-1.1-0.1v1.7h5.8v-1.7h-1.4C-58.1,211.8-58.5,211.5-58.5,211z"/>
			<path class="st3" d="M-32.5,204.9h-2.5h-0.3h-1.9V197c0,0-2.1-0.8-4.8-0.8c-4.2,0-6.1,2.8-6.1,5.8c0,3.3,1.7,5.3,6.2,5.3h6.6h0.3
				h5.5v-16.2h-3V204.9z M-40.3,204.9h-1.5c-2.4,0-3.4-1.1-3.4-3.2c0-1.8,1-3.1,2.7-3.1c1.3,0,2.2,0.4,2.2,0.4V204.9z"/>
			<rect x="-25.6" y="191.1" class="st3" width="3" height="16.2"/>
			<path class="st3" d="M-24.5,211c0-0.4,0.4-0.7,1-0.7c0.5,0,0.9,0.1,1.1,0.1l0.3-1.7c-0.2,0-0.8-0.1-1.4-0.1
				c-2.2,0-3.2,1.1-3.2,2.4c0,0.3,0.1,0.6,0.3,0.8c-0.3-0.1-0.7-0.1-1.1-0.1v1.7h5.8v-1.7H-23C-24.1,211.8-24.5,211.5-24.5,211z"/>
			<polygon class="st3" points="-7.9,203.2 -11.3,190.9 -14.3,191.3 -11,203.2 			"/>
			<polygon class="st3" points="-6.2,204.9 -13.3,204.9 -13.3,207.3 -3.2,207.3 -3.2,191.1 -6.2,191.1 			"/>
			<path class="st3" d="M1.9,190.1c-1.6,0-2.2,1.8-1.4,2.8c0.7,0.9,0.6,1.9-0.9,3.5l1.2,1.1C5.1,193.8,4,190.1,1.9,190.1z"/>
			<path class="st3" d="M6.9,190.1c-1.6,0-2.2,1.8-1.4,2.8c0.7,0.9,0.6,1.9-0.9,3.5l1.2,1.1C10.1,193.8,9.1,190.1,6.9,190.1z"/>
		</g>
		<g>
			<path class="st0" d="M18.7,198.3c0.5,0,0.8-0.4,0.8-0.9c0-0.5-0.4-0.8-0.8-0.8c-0.5,0-0.8,0.4-0.8,0.8
				C17.8,197.9,18.2,198.3,18.7,198.3z"/>
			<path class="st0" d="M21.1,198.3c0.5,0,0.8-0.4,0.8-0.9c0-0.5-0.4-0.8-0.8-0.8c-0.5,0-0.9,0.4-0.9,0.8
				C20.2,197.9,20.6,198.3,21.1,198.3z"/>
			<path class="st0" d="M27.1,206.1H25h-0.2h-1.5v-6c0,0-1.5-0.6-3.2-0.6c-2.7,0-4,1.9-4,4c0,2.3,1.1,3.7,4.2,3.7h4.6H25h3.6v-7.5
				h-1.5V206.1z M21.8,206.1h-1.4c-2.1,0-2.9-0.9-2.9-2.7c0-1.6,0.9-2.6,2.4-2.6c1.2,0,1.9,0.4,1.9,0.4V206.1z"/>
			<path class="st0" d="M27.3,196.6c0-0.4,0.3-0.7,0.9-0.7c0.3,0,0.6,0,0.8,0.1l0.1-0.9c-0.2,0-0.5-0.1-0.9-0.1c-1.5,0-2,0.8-2,1.6
				c0,0.3,0.1,0.6,0.4,0.8c-0.3,0-0.7-0.1-1.1-0.1v0.9h3.9v-0.9h-0.9C27.6,197.3,27.3,197,27.3,196.6z"/>
			<path class="st0" d="M47.2,206.1h-2H45h-1.4v-2.7c0-2.4-1.1-3.8-3.5-3.8c-2.5,0-3.9,1.8-3.9,4.2c0,1.9-0.6,2.4-1.4,2.4h-0.1h-0.2
				H33V196h-1.5v11.3h3h0.2h0v0c1,0,1.8-0.5,2.1-1.4c0.5,0.9,1.5,1.4,3.3,1.4H45h0.2h3.5V196h-1.5V206.1z M42.2,206.1h-1.8
				c-1.9,0-2.7-0.8-2.7-2.5c0-1.8,0.9-2.9,2.3-2.9c1.4,0,2.2,0.8,2.2,2.9V206.1z"/>
			<rect x="51.7" y="196" class="st0" width="1.5" height="11.3"/>
			<path class="st0" d="M66.6,199.6c-2.3,0-3.6,1.4-3.9,3.2h-0.4c-2.3,0-3.1,1.5-2.7,3.6l0.8,5.1h1.4l-0.8-5.2
				c-0.3-1.6,0.1-2.3,1.2-2.3h0.4c0.1,2.1,1.3,3.4,4.2,3.4h3.2v-4.1C70.1,200.9,68.9,199.6,66.6,199.6z M68.6,206.1H67
				c-2,0-2.9-0.9-2.9-2.7c0-1.6,0.9-2.7,2.4-2.7c1.3,0,2.1,0.8,2.1,2.7V206.1z"/>
			<path class="st0" d="M88.1,198.3c0.5,0,0.8-0.4,0.8-0.9c0-0.5-0.4-0.8-0.8-0.8c-0.5,0-0.8,0.4-0.8,0.8
				C87.2,197.9,87.6,198.3,88.1,198.3z"/>
			<path class="st0" d="M88.8,206.1h-2.1h-0.2h-1.4v-2.7c0-2.4-1.1-3.8-3.5-3.8c-2.5,0-3.9,1.8-3.9,4.2c0,1.9-0.6,2.4-1.4,2.4h-0.1
				h-0.2h-1.5V196h-1.5v11.3h3h0.2h0v0c1,0,1.8-0.5,2.1-1.4c0.5,0.9,1.5,1.4,3.3,1.4h4.8h0.2h3.6v-7.5h-1.5V206.1z M83.6,206.1h-1.8
				c-1.9,0-2.7-0.8-2.7-2.5c0-1.8,0.9-2.9,2.3-2.9c1.4,0,2.2,0.8,2.2,2.9V206.1z"/>
			<path class="st0" d="M90.4,196.6c-0.5,0-0.9,0.4-0.9,0.8c0,0.5,0.4,0.9,0.9,0.9c0.5,0,0.8-0.4,0.8-0.9
				C91.3,196.9,90.9,196.6,90.4,196.6z"/>
			<path class="st0" d="M100.3,199.6c-2.7,0-4,1.9-4,4c0,2.3,1.1,3.7,4.2,3.7h1.6v0.4c0,1.8-1.3,2.5-3.1,2.5c-1.2,0-2.6-0.3-2.6-0.3
				l-0.1,1.2c0,0,1.3,0.2,2.5,0.2c3.4,0,4.7-1.9,4.7-3.7v-7.4C103.5,200.1,102.1,199.6,100.3,199.6z M102.1,206.1h-1.4
				c-2.1,0-2.9-0.9-2.9-2.7c0-1.6,0.9-2.6,2.4-2.6c1.2,0,1.9,0.4,1.9,0.4V206.1z"/>
		</g>
		<g>
			<path class="st3" d="M-325.4,239.8c-1,0-1.9,0.9-1.9,1.9c0,1,0.9,1.9,1.9,1.9c1,0,1.9-0.9,1.9-1.9
				C-323.5,240.6-324.3,239.8-325.4,239.8z"/>
			<path class="st3" d="M-313.3,225.9c-4.3,3.7-3.3,7.4-1.1,7.4c1.6,0,2.2-1.8,1.4-2.8c-0.7-0.9-0.6-1.9,0.9-3.5L-313.3,225.9z"/>
			<path class="st3" d="M-318.3,225.9c-4.3,3.7-3.3,7.4-1.1,7.4c1.6,0,2.2-1.8,1.4-2.8c-0.7-0.9-0.6-1.9,0.9-3.5L-318.3,225.9z"/>
			<path class="st3" d="M-297.6,240.9h-4h-0.3h-1.9v-8.4h-3v11.1c0,2.5-0.9,3.2-2.5,3.2c-0.7,0-1.3-0.1-1.9-0.3l-0.3,2.4
				c0.6,0.1,1.2,0.2,1.9,0.2c4.7,0,5.7-2.8,5.7-5.7v-0.1h1.9h0.3h7v-10.8h-3V240.9z"/>
			<path class="st3" d="M-296.1,245.2c-0.9,0-1.5,0.7-1.5,1.6c0,0.9,0.7,1.6,1.5,1.6s1.5-0.7,1.5-1.6
				C-294.6,245.9-295.3,245.2-296.1,245.2z"/>
			<path class="st3" d="M-299.9,245.2c-0.9,0-1.5,0.7-1.5,1.6c0,0.9,0.7,1.6,1.5,1.6c0.9,0,1.5-0.7,1.5-1.6
				C-298.4,245.9-299.1,245.2-299.9,245.2z"/>
			<path class="st3" d="M-273.6,232.2c-4,0-6,2.7-6,5.6c0,1.6,0.4,2.7,1.3,3.3c0,0-0.5-0.2-1.3-0.2h-1h-0.3h-1.2
				c-0.3-5.1-2.9-7.7-7.6-9l-0.7,2.5c3.6,0.9,5.3,3,5.4,6.4h-6.8v2.4h10.9h0.3h12.1v-5.8C-268.4,234.2-270,232.2-273.6,232.2z
				 M-271.3,240.9h-1.7c-2.4,0-3.4-1.1-3.4-3.2c0-1.8,1-3.1,2.7-3.1c1.5,0,2.5,1,2.5,3.3V240.9z"/>
			<path class="st3" d="M-275.8,230.7c0.9,0,1.5-0.7,1.5-1.6c0-0.9-0.7-1.6-1.5-1.6c-0.9,0-1.5,0.7-1.5,1.6
				C-277.3,230-276.6,230.7-275.8,230.7z"/>
			<path class="st3" d="M-271.9,230.7c0.9,0,1.5-0.7,1.5-1.6c0-0.9-0.7-1.6-1.5-1.6c-0.9,0-1.5,0.7-1.5,1.6
				C-273.5,230-272.8,230.7-271.9,230.7z"/>
			<path class="st3" d="M-254.2,228.8h-1.3c-1.2,0-1.6-0.4-1.6-0.9c0-0.5,0.4-0.8,1.1-0.8c0.5,0,1,0.1,1.1,0.1l0.3-1.7
				c-0.2,0-0.7-0.1-1.4-0.1c-2.4,0-3.3,1.3-3.3,2.6c0,0.3,0.2,0.8,0.4,0.9c-0.3-0.1-0.8-0.1-1.3-0.1v1.7h5.9V228.8z"/>
			<path class="st3" d="M-227.6,227.5c0.8,0,1.4-0.6,1.4-1.4s-0.6-1.4-1.4-1.4c-0.8,0-1.4,0.6-1.4,1.4S-228.3,227.5-227.6,227.5z"/>
			<path class="st3" d="M-227.2,229.2c0,0.9,0.7,1.6,1.5,1.6c0.9,0,1.5-0.7,1.5-1.6c0-0.9-0.7-1.6-1.5-1.6
				C-226.5,227.6-227.2,228.3-227.2,229.2z"/>
			<path class="st3" d="M-229.4,230.7c0.9,0,1.5-0.7,1.5-1.6c0-0.9-0.7-1.6-1.5-1.6s-1.5,0.7-1.5,1.6
				C-231,230-230.3,230.7-229.4,230.7z"/>
			<path class="st3" d="M-223.1,232c0.4,1.7,0.7,3.9,0.7,6.2c0,0.7-0.1,1.8-0.2,2.8h-0.8c-2,0-2.5-0.6-2.5-2.6v-5.4h-2.9v5.5
				c0,1.7-0.4,2.6-1.7,2.6c-1.4,0-1.7-0.9-1.7-2.7v-4.6h-3v4.2c0,2.3-0.6,2.9-2.1,2.9h-0.4h-0.3h-1.6v-3.6c0-3.2-1.3-5.1-5.3-5.1
				c-2.5,0-4.6,0.4-4.6,0.4v8.3h-1.6c-4.3,0-5.7-1.5-5.7-4.8c0-1.2,0.3-2.7,0.8-3.8l-3.2,0.5c-0.3,0.9-0.6,2.4-0.6,3.6
				c0,4.2,2.2,6.8,8.4,6.8h4.8v-8.6c0,0,0.8-0.1,1.5-0.1c1.9,0,2.6,0.8,2.6,3v5.7h4.5h0.3h0.4c1.7,0,2.6-0.6,3.1-1.7
				c0.4,1.2,1.6,1.9,3.3,1.9c1.4,0,2.8-0.6,3.3-1.9c0.5,1.2,1.7,1.7,3.7,1.7h4.3c0.2-1.6,0.3-3.7,0.3-5.4c0-2.3-0.3-4.5-0.7-6.4
				L-223.1,232z"/>
			<path class="st3" d="M-196,234.4c3.7,0.9,5.5,2.9,5.6,6.5h-6.5h-0.4h-1.8v-13.8h-3v14.7c0,3.4-1.2,4.4-2.9,4.4
				c-1.6,0-3.2-0.9-3.2-4.4c0-1.4,0.2-2.9,0.6-4.4l-3.1,0.6c-0.4,1.3-0.6,2.8-0.6,4.1c0,4.6,2.3,6.5,5.9,6.5c3.4,0,5.5-1.7,6-5.3
				h1.9h0.4h9.4v-1.5c0-5-2-7.5-5.1-8.9l5.6-3.4v-3l-9.1,5.7V234.4z"/>
			<path class="st3" d="M-144.7,237.5c0-1.8,1.2-2.9,2.9-2.9c1.3,0,2.4,0.5,2.4,0.5l0.5-2.4c0,0-1.3-0.4-2.9-0.4c-4.1,0-6,2.4-6,5.3
				c0,1.5,0.8,2.8,1.8,3.4h-3.2h-0.4h-2v-13.8h-3v13.8h-2.5h-0.3h-1.6v-3.6c0-3.2-1.3-5.1-5.3-5.1c-2.5,0-4.6,0.4-4.6,0.4v8.3h-1.6
				c-4.3,0-5.7-1.5-5.7-4.8c0-1.2,0.3-2.7,0.8-3.8l-3.2,0.5c-0.3,0.9-0.6,2.4-0.6,3.6c0,4.2,2.2,6.8,8.4,6.8h4.8v-8.6
				c0,0,0.8-0.1,1.5-0.1c1.9,0,2.6,0.8,2.6,3v5.7h4.5h0.3h7.5h0.4h11.4v-2.4h-1.8C-143.1,240.9-144.7,239.4-144.7,237.5z"/>
			<path class="st3" d="M-110.4,231.3c-1.8,0-3.9,0.4-5.6,0.9l0.3,2.1c1.5-0.5,3.4-0.9,4.9-0.9c4.6,0,6.5,2.3,6.5,7.1v0.3h-2.4v-0.6
				c0-2.7-1.2-4.7-4.2-4.7c-2.8,0-4.3,1.7-4.3,3.9c0,0.9,0.6,1.5,0.6,1.5s-0.4-0.1-1-0.1h-1.6h-0.4h-1.9V233c0,0-2.1-0.8-4.8-0.8
				c-4.2,0-6.1,2.8-6.1,5.8c0,3.3,1.7,5.3,6.2,5.3h1.8v0.3c0,2.2-1.6,3.1-4,3.1c-1.8,0-3.6-0.4-3.6-0.4l-0.2,2.5
				c0,0,1.8,0.3,3.5,0.3c5.2,0,7.2-2.6,7.2-5.7v0h1.9h0.4h15.9v-2.5C-101.3,234.1-104.6,231.3-110.4,231.3z M-122.4,240.9h-1.5
				c-2.4,0-3.4-1.1-3.4-3.2c0-1.8,1-3.1,2.7-3.1c1.3,0,2.2,0.4,2.2,0.4V240.9z M-109.1,241h-1.4c-1.2,0-2.2-0.6-2.2-1.8
				c0-0.9,0.6-1.7,1.7-1.7c1.3,0,2,1.2,2,2.8V241z"/>
			<path class="st3" d="M-99.1,237.9c0,3.3,1.7,5.3,6.2,5.3h1.8v0.3c0,2.2-1.6,3.1-4,3.1c-1.8,0-3.6-0.4-3.6-0.4l-0.2,2.5
				c0,0,1.8,0.3,3.5,0.3c5.2,0,7.2-2.6,7.2-5.7V233c0,0-2.1-0.8-4.8-0.8C-97.2,232.2-99.1,234.9-99.1,237.9z M-91.1,240.9h-1.5
				c-2.4,0-3.4-1.1-3.4-3.2c0-1.8,1-3.1,2.7-3.1c1.3,0,2.2,0.4,2.2,0.4V240.9z"/>
			<path class="st3" d="M-37.7,240.9h-2.5h-0.3H-42c0.1-0.7,0.1-1.3,0.1-1.9c0-4.4-2-6.7-7.2-6.7c-1,0-2,0.1-2.9,0.2v2.4
				c0.9-0.1,1.7-0.2,2.6-0.2c3.3,0,4.5,1.5,4.5,4.4c0,0.6,0,1.2-0.1,1.7h-8.5h-0.4h-1.6v-3.2c0-3.4-1.6-5.5-5.3-5.5
				c-3.9,0-5.9,2.7-5.9,6c0,2.1-0.6,2.8-1.7,2.8h-0.1h-0.3H-70c-0.3-5.1-2.9-7.7-7.6-9l-0.7,2.5c3.6,0.9,5.3,3,5.4,6.4h-6.8v2.4
				h10.9h0.3h0c1.4,0,2.5-0.6,3-1.8c0.7,1.1,2,1.8,4.7,1.8h6.8h0.4h13h0.3h5.5v-16.2h-3V240.9z M-58.5,240.9h-2c-2.4,0-3.2-1-3.2-3
				c0-2,1-3.3,2.7-3.3c1.7,0,2.6,1,2.6,3.4V240.9z"/>
			<rect x="-30.8" y="227.1" class="st3" width="3" height="16.2"/>
			<path class="st3" d="M-3.6,240.9h-2.5h-0.3h-1.9V233c0,0-2.1-0.8-4.8-0.8c-4.2,0-6.1,2.8-6.1,5.8c0,3.3,1.7,5.3,6.2,5.3h6.6h0.3
				h5.5v-16.2h-3V240.9z M-11.3,240.9h-1.5c-2.4,0-3.4-1.1-3.4-3.2c0-1.8,1-3.1,2.7-3.1c1.3,0,2.2,0.4,2.2,0.4V240.9z"/>
			<path class="st3" d="M2.3,237.9c0,3.3,1.7,5.3,6.2,5.3h1.8v0.3c0,2.2-1.6,3.1-4,3.1c-1.8,0-3.6-0.4-3.6-0.4l-0.2,2.5
				c0,0,1.8,0.3,3.5,0.3c5.2,0,7.2-2.6,7.2-5.7V233c0,0-2.1-0.8-4.8-0.8C4.1,232.2,2.3,234.9,2.3,237.9z M10.2,240.9H8.7
				c-2.4,0-3.4-1.1-3.4-3.2c0-1.8,1-3.1,2.7-3.1c1.3,0,2.2,0.4,2.2,0.4V240.9z"/>
			<path class="st3" d="M33.3,232.1H32c-1.2,0-1.6-0.4-1.6-0.9c0-0.5,0.4-0.8,1.1-0.8c0.5,0,1,0.1,1.1,0.1l0.3-1.7
				c-0.2,0-0.7-0.1-1.4-0.1c-2.4,0-3.3,1.3-3.3,2.6c0,0.3,0.2,0.8,0.4,0.9c-0.3-0.1-0.8-0.1-1.3-0.1v1.7h5.9V232.1z"/>
			<path class="st3" d="M65.8,240.9h-2.5H63h-1.6v-3.2c0-3.4-1.6-5.5-5.3-5.5c-3.9,0-5.9,2.7-5.9,6c0,2.1-0.6,2.8-1.7,2.8h-0.1H48
				h-2v-13.8h-3v13.8h-2.5h-0.4h-2v-13.8h-3v13.8h-4.8c-4.3,0-5.7-1.5-5.7-4.8c0-1.2,0.3-2.7,0.8-3.8l-3.2,0.5
				c-0.3,0.9-0.6,2.4-0.6,3.6c0,4.2,2.2,6.8,8.4,6.8h10.1h0.4H48h0.3h0v0c1.4,0,2.4-0.6,3-1.8c0.7,1.1,2,1.8,4.7,1.8H63h0.4h5.5
				v-16.2h-3V240.9z M58.4,240.9h-2c-2.4,0-3.2-1-3.2-3c0-2,1-3.3,2.7-3.3c1.7,0,2.6,1,2.6,3.4V240.9z"/>
			<rect x="72.8" y="227.1" class="st3" width="3" height="16.2"/>
			<path class="st3" d="M99.9,227.1v13.8h-2.5h-0.3h-1.9V233c0,0-2.1-0.8-4.8-0.8c-4.2,0-6.1,2.8-6.1,5.8c0,3.3,1.7,5.3,6.2,5.3h6.6
				h0.3h5.5v-16.2H99.9z M92.2,240.9h-1.5c-2.4,0-3.4-1.1-3.4-3.2c0-1.8,1-3.1,2.7-3.1c1.3,0,2.2,0.4,2.2,0.4V240.9z"/>
		</g>
	</g>
</g>
<g class="st1">
	<g class="st2">
		<g>
			<path class="st0" d="M-144.1,278.8c-0.5,0-1,0.4-1,1c0,0.6,0.4,1,1,1c0.5,0,1-0.4,1-1C-143.1,279.2-143.5,278.8-144.1,278.8z"/>
			<circle class="st0" cx="-144.1" cy="284.4" r="1"/>
			<path class="st0" d="M-134.5,286.8c-0.5,0-0.9,0.4-0.9,0.8c0,0.5,0.4,0.9,0.9,0.9c0.5,0,0.8-0.4,0.8-0.9S-134,286.8-134.5,286.8z
				"/>
			<path class="st0" d="M-136.9,286.8c-0.5,0-0.8,0.4-0.8,0.8c0,0.5,0.4,0.9,0.8,0.9c0.5,0,0.8-0.4,0.8-0.9
				S-136.4,286.8-136.9,286.8z"/>
			<path class="st0" d="M-121,277.1c-1.3,0-2.7,0.3-3.8,0.6l0.2,1.1c1-0.3,2.4-0.6,3.4-0.6c3.3,0,4.8,1.6,4.8,5.6v0.3h-2.1v-0.7
				c0-2-0.9-3.4-2.8-3.4c-1.8,0-2.9,1.1-2.9,2.7c0,1,0.7,1.5,0.7,1.5s-0.3,0-0.6,0h-1.6h-0.2h-1.4v-3c0-2.2-0.9-3.5-3.6-3.5
				c-1.5,0-2.9,0.3-2.9,0.3v6.2h-1.4c-3.3,0-4.3-1.2-4.3-3.7c0-0.9,0.2-2,0.6-2.8l-1.6,0.3c-0.3,0.6-0.5,1.7-0.5,2.7
				c0,3,1.6,4.7,5.6,4.7h3v-6.4c0,0,0.7-0.1,1.3-0.1c1.6,0,2.3,0.7,2.3,2.5v4h2.8h0.2h10.8v-1.5C-114.9,279-117.1,277.1-121,277.1z
				 M-119.8,284.1h-1.3c-1,0-1.8-0.6-1.8-1.6c0-0.8,0.5-1.5,1.5-1.5c1.2,0,1.6,1,1.6,2.4V284.1z"/>
			<path class="st0" d="M-113.1,281.6c0,2.3,1.1,3.7,4.2,3.7h1.6v0.4c0,1.8-1.3,2.5-3.1,2.5c-1.2,0-2.6-0.3-2.6-0.3l-0.1,1.2
				c0,0,1.3,0.2,2.5,0.2c3.4,0,4.7-1.9,4.7-3.7v-7.4c0,0-1.5-0.6-3.2-0.6C-111.8,277.6-113.1,279.4-113.1,281.6z M-107.3,284.1h-1.4
				c-2.1,0-2.9-0.9-2.9-2.7c0-1.6,0.9-2.6,2.4-2.6c1.2,0,1.9,0.4,1.9,0.4V284.1z"/>
			<path class="st0" d="M-95.8,277.6c-2.7,0-4,1.8-4,4c0,2.3,1.1,3.7,4.2,3.7h3.2v-4.1C-92.4,278.9-93.5,277.6-95.8,277.6z
				 M-93.8,284.1h-1.6c-2,0-2.9-0.9-2.9-2.7c0-1.6,0.9-2.7,2.4-2.7c1.3,0,2.1,0.8,2.1,2.7V284.1z"/>
			<path class="st0" d="M-97.1,276.3c0.5,0,0.8-0.4,0.8-0.9c0-0.5-0.4-0.8-0.8-0.8c-0.5,0-0.8,0.4-0.8,0.8
				C-97.9,275.9-97.6,276.3-97.1,276.3z"/>
			<path class="st0" d="M-94.7,276.3c0.5,0,0.8-0.4,0.8-0.9c0-0.5-0.4-0.8-0.8-0.8c-0.5,0-0.9,0.4-0.9,0.8
				C-95.6,275.9-95.2,276.3-94.7,276.3z"/>
			<polygon class="st0" points="-86.3,282.7 -88.9,273.9 -90.3,274.1 -87.8,282.7 			"/>
			<path class="st0" d="M-73.8,277.6c-1.8,0-3.6,1.3-4.4,3.7h0c0.1-0.9,0.2-2,0.2-2.9v-0.6h-1.5v6.4h-2h-0.2h-1.5V274h-1.5v10.1
				h-4.9v1.2h8h0.2h10.6c0.1-1.2,0.2-2.5,0.2-3.7C-70.7,279.1-71.7,277.6-73.8,277.6z M-72.3,284.1H-78c0.3-2.6,1.8-5.3,4-5.3
				c1.4,0,1.9,1.2,1.9,2.9C-72.2,282.5-72.2,283.3-72.3,284.1z"/>
			<path class="st0" d="M-54.3,278.6c2.8,0.8,4.1,2.3,4.2,5.5H-55h-0.2h-1.5V274h-1.5v10.5c0,2.5-1.1,3.3-2.3,3.3
				c-1.3,0-2.6-0.7-2.6-3.4c0-1,0.1-2.1,0.4-3.2l-1.5,0.3c-0.3,0.9-0.4,2-0.4,3c0,3.3,1.7,4.5,3.9,4.5c2.1,0,3.6-1.1,3.9-3.7h1.5
				h0.2h6.4v-0.8c0-3.8-1.4-5.5-3.9-6.6l4.4-2.7v-1.5l-6.1,3.8V278.6z"/>
			<path class="st0" d="M-23.1,286.8c-0.5,0-0.9,0.4-0.9,0.9c0,0.5,0.4,0.9,0.9,0.9s0.9-0.4,0.9-0.9
				C-22.2,287.2-22.6,286.8-23.1,286.8z"/>
			<path class="st0" d="M-22.7,284.1h-2.1h-0.2h-0.7c-0.9,0-1.6-0.3-2.3-0.8c1.3-1,1.9-2.2,1.9-3.3c0-1.3-0.9-2.5-3.1-2.5
				c-1.6,0-3.4,1-4.6,1.9l-0.1,1c1.6,0.5,2.7,1.7,3.8,2.8c-1.1,0.5-2.6,0.8-4.4,0.8h-0.3h-0.2h-1c-0.1-3.8-1.8-5.6-5.1-6.7l-0.4,1.2
				c2.8,0.9,4,2.5,4,5.4h-5.1v1.2h7.6h0.2h0.2c2.2,0,4-0.5,5.4-1.2c0.9,0.7,1.9,1.2,3.2,1.2h0.9h0.2h3.6v-7.5h-1.5V284.1z
				 M-29.1,282.6c-1.1-1-2.1-2.1-3.5-2.7c0.7-0.5,2-1.3,3.1-1.3c1.2,0,1.8,0.7,1.8,1.6C-27.7,281.1-28.2,281.9-29.1,282.6z"/>
			<polygon class="st0" points="-11.9,271.2 -15.5,271.7 -15.5,272.5 -11.9,272 			"/>
			<polygon class="st0" points="-11.9,269.7 -15.5,270.2 -15.5,271 -11.9,270.5 			"/>
			<path class="st0" d="M-9.8,276.3c0.5,0,0.8-0.4,0.8-0.9c0-0.5-0.4-0.8-0.8-0.8s-0.8,0.4-0.8,0.8
				C-10.7,275.9-10.3,276.3-9.8,276.3z"/>
			<path class="st0" d="M-8.6,274.4c0.4,0,0.8-0.4,0.8-0.8c0-0.5-0.4-0.8-0.8-0.8c-0.5,0-0.8,0.4-0.8,0.8S-9.1,274.4-8.6,274.4z"/>
			<polygon class="st0" points="-9.1,284.1 -11.2,284.1 -11.5,284.1 -13,284.1 -13,274 -14.4,274 -14.4,285.3 -11.5,285.3 
				-11.2,285.3 -7.6,285.3 -7.6,277.8 -9.1,277.8 			"/>
			<path class="st0" d="M-7.4,274.6c-0.5,0-0.8,0.4-0.8,0.8c0,0.5,0.4,0.9,0.8,0.9c0.5,0,0.8-0.4,0.8-0.9
				C-6.6,274.9-7,274.6-7.4,274.6z"/>
			<polygon class="st0" points="-1.5,282.7 -4.1,273.9 -5.5,274.1 -3,282.7 			"/>
			<polygon class="st0" points="5.4,284.1 3.3,284.1 3.1,284.1 1.6,284.1 1.6,274 0.1,274 0.1,284.1 -4.9,284.1 -4.9,285.3 
				3.1,285.3 3.3,285.3 6.9,285.3 6.9,277.8 5.4,277.8 			"/>
			<path class="st0" d="M5.9,274.4c0.4,0,0.8-0.4,0.8-0.8c0-0.5-0.4-0.8-0.8-0.8c-0.5,0-0.8,0.4-0.8,0.8S5.4,274.4,5.9,274.4z"/>
			<path class="st0" d="M4.7,276.3c0.5,0,0.8-0.4,0.8-0.9c0-0.5-0.4-0.8-0.8-0.8s-0.8,0.4-0.8,0.8C3.9,275.9,4.2,276.3,4.7,276.3z"
				/>
			<path class="st0" d="M7.1,274.6c-0.5,0-0.8,0.4-0.8,0.8c0,0.5,0.4,0.9,0.8,0.9c0.5,0,0.8-0.4,0.8-0.9
				C7.9,274.9,7.6,274.6,7.1,274.6z"/>
			<path class="st0" d="M21.7,284.1H19c-3.3,0-4.3-1.2-4.3-3.7c0-0.9,0.2-2,0.6-2.8l-1.6,0.3c-0.3,0.6-0.5,1.7-0.5,2.7
				c0,3,1.6,4.7,5.6,4.7h4.4v-7.5h-1.5V284.1z"/>
			<path class="st0" d="M19.8,276.3c0.5,0,0.8-0.4,0.8-0.9c0-0.5-0.4-0.8-0.8-0.8c-0.5,0-0.9,0.4-0.9,0.8
				C19,275.9,19.4,276.3,19.8,276.3z"/>
			<path class="st0" d="M17.5,276.3c0.5,0,0.8-0.4,0.8-0.9c0-0.5-0.4-0.8-0.8-0.8c-0.5,0-0.8,0.4-0.8,0.8
				C16.6,275.9,17,276.3,17.5,276.3z"/>
			<rect x="26.1" y="274" class="st0" width="1.5" height="11.3"/>
			<path class="st0" d="M31.4,277.4l-0.4,1.2c2.8,0.9,4,2.5,4,5.4h-5.1v1.2h6.6v-0.8C36.5,280.5,34.9,278.5,31.4,277.4z"/>
			<path class="st0" d="M32.2,276.1c0.5,0,0.9-0.4,0.9-0.9c0-0.5-0.4-0.9-0.9-0.9s-0.9,0.4-0.9,0.9
				C31.4,275.7,31.8,276.1,32.2,276.1z"/>
			<path class="st0" d="M69.8,284.1h-2h-0.2h-1.4v-2.7c0-2.4-1.1-3.8-3.5-3.8c-2.5,0-3.9,1.8-3.9,4.2c0,1.9-0.6,2.4-1.4,2.4h-0.1H57
				h-0.7c-0.9,0-1.6-0.3-2.3-0.8c1.3-1,1.9-2.2,1.9-3.3c0-1.3-0.9-2.5-3.1-2.5c-1.6,0-3.4,1-4.6,1.9l-0.1,1c1.6,0.5,2.7,1.7,3.8,2.8
				c-1.1,0.5-2.6,0.8-4.4,0.8h-0.3H47h-1.5v-6c0,0-1.5-0.6-3.2-0.6c-2.7,0-4,1.9-4,4c0,2.3,1.1,3.7,4.2,3.7h1.6v0.4
				c0,1.8-1.3,2.5-3.1,2.5c-1.2,0-2.6-0.3-2.6-0.3l-0.1,1.2c0,0,1.3,0.2,2.5,0.2c3.4,0,4.7-1.9,4.7-3.7v-0.3H47h0.2h0.2
				c2.2,0,4-0.5,5.4-1.2c0.9,0.7,1.9,1.2,3.2,1.2H57h0.2h0v0c1,0,1.8-0.5,2.1-1.4c0.5,0.9,1.5,1.4,3.3,1.4h4.8h0.2h3.5V274h-1.5
				V284.1z M44.1,284.1h-1.4c-2.1,0-2.9-0.9-2.9-2.7c0-1.6,0.9-2.6,2.4-2.6c1.2,0,1.9,0.4,1.9,0.4V284.1z M53.1,282.6
				c-1.1-1-2.1-2.1-3.5-2.7c0.7-0.5,2-1.3,3.1-1.3c1.2,0,1.8,0.7,1.8,1.6C54.5,281.1,54,281.9,53.1,282.6z M64.7,284.1h-1.8
				c-1.9,0-2.7-0.8-2.7-2.5c0-1.8,0.9-2.9,2.3-2.9c1.4,0,2.2,0.8,2.2,2.9V284.1z"/>
			<rect x="74.3" y="274" class="st0" width="1.5" height="11.3"/>
			<path class="st0" d="M85.2,272.2h-0.9c-0.9,0-1.2-0.3-1.2-0.7c0-0.4,0.3-0.7,0.9-0.7c0.3,0,0.6,0,0.8,0.1l0.1-0.9
				c-0.2,0-0.5-0.1-0.9-0.1c-1.5,0-2,0.8-2,1.6c0,0.3,0.1,0.6,0.4,0.8c-0.3,0-0.7-0.1-1.1-0.1v0.8h3.9V272.2z"/>
			<rect x="82.7" y="274.1" class="st0" width="1.5" height="11.1"/>
			<path class="st0" d="M96.6,276.3c0.5,0,0.8-0.4,0.8-0.9c0-0.5-0.4-0.8-0.8-0.8c-0.5,0-0.9,0.4-0.9,0.8
				C95.8,275.9,96.2,276.3,96.6,276.3z"/>
			<path class="st0" d="M94.3,276.3c0.5,0,0.8-0.4,0.8-0.9c0-0.5-0.4-0.8-0.8-0.8c-0.5,0-0.8,0.4-0.8,0.8
				C93.4,275.9,93.8,276.3,94.3,276.3z"/>
			<path class="st0" d="M95.6,277.6c-2.7,0-4,1.8-4,3.9c0,1.4,0.4,2.2,1.2,2.7c0,0-0.4-0.1-0.9-0.1h-1h-0.2h-1.5v-6.4h-1.5v7.7
				c0,2.1-0.8,2.7-2.1,2.7c-0.6,0-1.1-0.1-1.6-0.3l-0.2,1.2c0.5,0.1,1.1,0.2,1.7,0.2c2.9,0,3.7-1.8,3.7-4v-0.1h1.5h0.2H99v-4.1
				C99,278.9,97.9,277.6,95.6,277.6z M97.6,284.1H96c-2,0-2.9-0.9-2.9-2.7c0-1.6,0.9-2.7,2.4-2.7c1.3,0,2.1,0.8,2.1,2.7V284.1z"/>
			<path class="st0" d="M103.6,272.2c-0.9,0-1.2-0.3-1.2-0.7c0-0.4,0.3-0.7,0.9-0.7c0.3,0,0.6,0,0.8,0.1l0.1-0.9
				c-0.2,0-0.5-0.1-0.9-0.1c-1.5,0-2,0.8-2,1.6c0,0.3,0.1,0.6,0.4,0.8c-0.3,0-0.7-0.1-1.1-0.1v0.8h3.9v-0.8H103.6z"/>
			<rect x="101.9" y="274.1" class="st0" width="1.5" height="11.1"/>
		</g>
		<g>
			<path class="st3" d="M-334.3,317.8c-1,0-1.9,0.9-1.9,1.9c0,1,0.9,1.9,1.9,1.9c1,0,1.9-0.9,1.9-1.9
				C-332.4,318.6-333.2,317.8-334.3,317.8z"/>
			<polygon class="st3" points="-329.9,311 -327.7,311 -327.4,305.1 -330.3,305.1 			"/>
			<polygon class="st3" points="-325.6,311 -323.4,311 -323,305.1 -326,305.1 			"/>
			<path class="st3" d="M-299.2,310c0.4,1.7,0.7,3.9,0.7,6.2c0,0.7-0.1,1.8-0.2,2.8h-0.8c-2,0-2.5-0.6-2.5-2.6v-5.4h-2.9v5.5
				c0,1.7-0.4,2.6-1.7,2.6c-1.4,0-1.7-1-1.7-2.7v-4.5h-3v8c0,3.3-1.2,4.3-3.2,4.3c-1.6,0-3.3-0.9-3.3-4.4c0-1.4,0.2-2.9,0.6-4.4
				l-3.1,0.6c-0.4,1.3-0.6,2.8-0.6,4.1c0,4.6,2.4,6.5,6.1,6.5c5.5,0,6.3-3.9,6.3-5.5c0-0.2,0-0.4-0.1-0.6c0.4,0.6,1.1,0.9,2.1,0.9
				c1.3,0,2.4-0.7,2.7-1.9c0.5,1.2,1.7,1.7,3.7,1.7h4.3c0.2-1.6,0.3-3.7,0.3-5.4c0-2.3-0.3-4.5-0.7-6.4L-299.2,310z"/>
			<path class="st3" d="M-282.2,308.5c0.9,0,1.6-0.7,1.6-1.6c0-0.9-0.7-1.6-1.6-1.6c-0.9,0-1.6,0.7-1.6,1.6
				C-283.8,307.9-283.1,308.5-282.2,308.5z"/>
			<polygon class="st3" points="-275.9,318.9 -278.4,318.9 -278.8,318.9 -280.7,318.9 -280.7,310.5 -283.7,310.5 -283.7,318.9 
				-286.6,318.9 -286.9,318.9 -288.9,318.9 -288.9,305.1 -291.9,305.1 -291.9,321.3 -286.9,321.3 -286.6,321.3 -278.8,321.3 
				-278.4,321.3 -272.9,321.3 -272.9,305.1 -275.9,305.1 			"/>
			<rect x="-269" y="305.1" class="st3" width="3" height="16.2"/>
			<path class="st3" d="M-249.8,308.7c0.9,0,1.5-0.7,1.5-1.6c0-0.9-0.7-1.6-1.5-1.6s-1.5,0.7-1.5,1.6
				C-251.3,308-250.7,308.7-249.8,308.7z"/>
			<path class="st3" d="M-246.3,315.5c0-3.2-1.6-5.3-5.2-5.3c-4,0-6,2.7-6,5.8c0,3.2,1.7,5.3,6.2,5.3h5V315.5z M-249.3,318.9h-1.7
				c-2.4,0-3.4-1.1-3.4-3.2c0-1.8,1-3.1,2.7-3.1c1.5,0,2.5,1,2.5,3.3V318.9z"/>
			<path class="st3" d="M-253.6,308.7c0.9,0,1.5-0.7,1.5-1.6c0-0.9-0.7-1.6-1.5-1.6c-0.9,0-1.5,0.7-1.5,1.6
				C-255.1,308-254.5,308.7-253.6,308.7z"/>
			<path class="st3" d="M-242.9,321.5c0,2.5-0.9,3.2-2.5,3.2c-0.7,0-1.3-0.1-1.9-0.3l-0.3,2.4c0.6,0.1,1.2,0.2,1.9,0.2
				c4.7,0,5.7-2.8,5.7-5.7v-10.9h-3V321.5z"/>
			<path class="st3" d="M-209.5,310c0.4,1.7,0.7,3.9,0.7,6.2c0,0.7-0.1,1.8-0.2,2.8h-0.8c-2,0-2.5-0.6-2.5-2.6v-5.4h-2.9v5.5
				c0,1.7-0.4,2.6-1.7,2.6c-1.4,0-1.7-0.9-1.7-2.7v-4.6h-3v4.2c0,2.3-0.6,2.9-2.1,2.9h-0.4h-0.4h-1.9V311c0,0-2.1-0.8-4.8-0.8
				c-4.2,0-6.1,2.8-6.1,5.8c0,3.3,1.7,5.3,6.2,5.3h1.8v0.3c0,2.2-1.6,3.1-4,3.1c-1.8,0-3.6-0.4-3.6-0.4l-0.2,2.5
				c0,0,1.8,0.3,3.5,0.3c5.2,0,7.2-2.6,7.2-5.7v0h1.9h0.4h0.3c1.7,0,2.6-0.6,3.1-1.7c0.4,1.2,1.6,1.9,3.3,1.9c1.4,0,2.8-0.6,3.3-1.9
				c0.5,1.2,1.7,1.7,3.7,1.7h4.3c0.2-1.6,0.3-3.7,0.3-5.4c0-2.3-0.3-4.5-0.7-6.4L-209.5,310z M-229.4,318.9h-1.5
				c-2.4,0-3.4-1.1-3.4-3.2c0-1.8,1-3.1,2.7-3.1c1.3,0,2.2,0.4,2.2,0.4V318.9z"/>
			<path class="st3" d="M-203.3,316c0,3.3,1.7,5.3,6.2,5.3h1.8v0.3c0,2.2-1.6,3.1-4,3.1c-1.8,0-3.6-0.4-3.6-0.4l-0.2,2.5
				c0,0,1.8,0.3,3.5,0.3c5.2,0,7.2-2.6,7.2-5.7V311c0,0-2.1-0.8-4.8-0.8C-201.5,310.2-203.3,312.9-203.3,316z M-195.4,318.9h-1.5
				c-2.4,0-3.4-1.1-3.4-3.2c0-1.8,1-3.1,2.7-3.1c1.3,0,2.2,0.4,2.2,0.4V318.9z"/>
			<path class="st3" d="M-181,314.1c-4.3,3.7-3.3,7.4-1.1,7.4c1.6,0,2.2-1.8,1.4-2.8c-0.7-0.9-0.6-1.9,0.9-3.5L-181,314.1z"/>
			<path class="st3" d="M-163.7,308.7c0.9,0,1.5-0.7,1.5-1.6c0-0.9-0.7-1.6-1.5-1.6s-1.5,0.7-1.5,1.6
				C-165.3,308-164.6,308.7-163.7,308.7z"/>
			<path class="st3" d="M-167.6,308.7c0.9,0,1.5-0.7,1.5-1.6c0-0.9-0.7-1.6-1.5-1.6c-0.9,0-1.5,0.7-1.5,1.6
				C-169.1,308-168.4,308.7-167.6,308.7z"/>
			<path class="st3" d="M-143.8,308.5c0.9,0,1.6-0.7,1.6-1.6s-0.7-1.6-1.6-1.6s-1.6,0.7-1.6,1.6
				C-145.4,307.8-144.7,308.5-143.8,308.5z"/>
			<path class="st3" d="M-134.1,318.9h-2.5h-0.3h-0.9c-0.8,0-1.7,0.1-1.7,0.1c0.9-0.7,1.3-2.1,1.3-3.5c0-3.7-2.1-5.4-5.4-5.4
				c-3.5,0-5.8,2.4-5.8,5.7c0,1.3,0.4,2.4,1.1,3.1c0,0-0.7-0.1-1.4-0.1h-0.6h-0.4h-2v-13.8h-3v13.8h-2.5h-0.3h-1.9V311
				c0,0-2.1-0.8-4.8-0.8c-4.2,0-6.1,2.8-6.1,5.8c0,3.3,1.7,5.3,6.1,5.3h1.8v3.2c0,0-2,0.1-4,0.1c-5.7,0-7.5-1.4-7.5-5
				c0-1.3,0.2-2.9,0.6-4.3l-3.1,0.6c-0.4,1.3-0.6,2.8-0.6,4.1c0,4.8,2.9,7,10.1,7c3,0,7.4-0.3,7.4-0.3v-5.5h1.9h0.3h7.5h0.4h13.4
				h0.3h5.5v-16.2h-3V318.9z M-163.5,318.9h-1.5c-2.4,0-3.4-1.1-3.4-3.2c0-1.8,1-3.1,2.8-3.1c1.3,0,2.2,0.4,2.2,0.4V318.9z
				 M-143.9,318.9c-1.7,0-2.6-1.1-2.6-3.2s1.3-3.1,2.6-3.1c1.7,0,2.5,1.1,2.5,3.1C-141.3,317.8-142.4,318.9-143.9,318.9z"/>
			<rect x="-127.2" y="305.1" class="st3" width="3" height="16.2"/>
			<path class="st3" d="M-108,308.7c0.9,0,1.5-0.7,1.5-1.6c0-0.9-0.7-1.6-1.5-1.6s-1.5,0.7-1.5,1.6
				C-109.5,308-108.9,308.7-108,308.7z"/>
			<path class="st3" d="M-111.8,308.7c0.9,0,1.5-0.7,1.5-1.6c0-0.9-0.7-1.6-1.5-1.6c-0.9,0-1.5,0.7-1.5,1.6
				C-113.3,308-112.7,308.7-111.8,308.7z"/>
			<path class="st3" d="M-104.5,315.5c0-3.2-1.6-5.3-5.2-5.3c-4,0-6,2.7-6,5.8c0,3.2,1.7,5.3,6.2,5.3h5V315.5z M-107.5,318.9h-1.7
				c-2.4,0-3.4-1.1-3.4-3.2c0-1.8,1-3.1,2.7-3.1c1.5,0,2.5,1,2.5,3.3V318.9z"/>
			<path class="st3" d="M-101.1,321.5c0,2.5-0.9,3.2-2.5,3.2c-0.7,0-1.3-0.1-1.9-0.3l-0.3,2.4c0.6,0.1,1.2,0.2,1.9,0.2
				c4.7,0,5.7-2.8,5.7-5.7v-10.9h-3V321.5z"/>
			<path class="st3" d="M-67.7,310c0.4,1.7,0.7,3.9,0.7,6.2c0,0.7-0.1,1.8-0.2,2.8H-68c-2,0-2.5-0.6-2.5-2.6v-5.4h-2.9v5.5
				c0,1.7-0.4,2.6-1.7,2.6c-1.4,0-1.7-0.9-1.7-2.7v-4.6h-3v4.2c0,2.3-0.6,2.9-2.1,2.9h-0.4h-0.4h-1.9V311c0,0-2.1-0.8-4.8-0.8
				c-4.2,0-6.1,2.8-6.1,5.8c0,3.3,1.7,5.3,6.2,5.3h1.8v0.3c0,2.2-1.6,3.1-4,3.1c-1.8,0-3.6-0.4-3.6-0.4l-0.2,2.5
				c0,0,1.8,0.3,3.5,0.3c5.2,0,7.2-2.6,7.2-5.7v0h1.9h0.4h0.3c1.7,0,2.6-0.6,3.1-1.7c0.4,1.2,1.6,1.9,3.3,1.9c1.4,0,2.8-0.6,3.3-1.9
				c0.5,1.2,1.7,1.7,3.7,1.7h4.3c0.2-1.6,0.3-3.7,0.3-5.4c0-2.3-0.3-4.5-0.7-6.4L-67.7,310z M-87.6,318.9H-89
				c-2.4,0-3.4-1.1-3.4-3.2c0-1.8,1-3.1,2.7-3.1c1.3,0,2.2,0.4,2.2,0.4V318.9z"/>
			<path class="st3" d="M-61.5,316c0,3.3,1.7,5.3,6.2,5.3h1.8v0.3c0,2.2-1.6,3.1-4,3.1c-1.8,0-3.6-0.4-3.6-0.4l-0.2,2.5
				c0,0,1.8,0.3,3.5,0.3c5.2,0,7.2-2.6,7.2-5.7V311c0,0-2.1-0.8-4.8-0.8C-59.7,310.2-61.5,312.9-61.5,316z M-53.6,318.9H-55
				c-2.4,0-3.4-1.1-3.4-3.2c0-1.8,1-3.1,2.7-3.1c1.3,0,2.2,0.4,2.2,0.4V318.9z"/>
			<path class="st3" d="M-39.2,314.1c-4.3,3.7-3.3,7.4-1.1,7.4c1.6,0,2.2-1.8,1.4-2.8c-0.7-0.9-0.6-1.9,0.9-3.5L-39.2,314.1z"/>
			<path class="st3" d="M-18.1,310.2c-2.5,0-4.8,1.6-5.9,4.3h0c0.2-1.1,0.3-2.4,0.3-3.4v-0.6h-3v9.4c0,3.3-1.2,4.3-3.2,4.3
				c-1.6,0-3.3-0.9-3.3-4.4c0-1.4,0.2-2.9,0.6-4.4l-3.1,0.6c-0.4,1.3-0.6,2.8-0.6,4.1c0,4.6,2.4,6.5,6.1,6.5c3.5,0,6-1.6,6.3-5.3
				h10.2c0.2-1.8,0.3-3.7,0.3-5.5C-13.4,312.3-14.9,310.2-18.1,310.2z M-16.6,318.9h-7.2c0.6-3.2,2.6-6.3,5.1-6.3
				c1.6,0,2.2,1.3,2.2,3.4C-16.5,316.9-16.5,318-16.6,318.9z"/>
			<polygon class="st3" points="-4.8,317.2 -8.2,304.9 -11.2,305.3 -7.9,317.2 			"/>
			<path class="st3" d="M7.3,308.5c0.9,0,1.6-0.7,1.6-1.6c0-0.9-0.7-1.6-1.6-1.6c-0.9,0-1.6,0.7-1.6,1.6
				C5.7,307.9,6.4,308.5,7.3,308.5z"/>
			<path class="st3" d="M6.6,310.3c-1,0-2,0.1-2.9,0.2v2.4c0.9-0.1,1.7-0.2,2.6-0.2c3.3,0,4.5,1.5,4.5,4.4c0,0.6,0,1.2-0.1,1.7H2.2
				H1.8h-1.9v-13.8h-3v13.8h-7.1v2.4H1.8h0.4h11.3c0.3-1.7,0.4-3.1,0.4-4.3C13.8,312.6,11.8,310.3,6.6,310.3z"/>
			<polygon class="st3" points="22.2,317.2 18.8,304.9 15.8,305.3 19.1,317.2 			"/>
			<path class="st3" d="M20,325.1c0-0.4,0.4-0.7,1-0.7c0.5,0,0.9,0.1,1.1,0.1l0.3-1.7c-0.2,0-0.8-0.1-1.4-0.1
				c-2.2,0-3.2,1.1-3.2,2.4c0,0.3,0.1,0.6,0.3,0.8c-0.3-0.1-0.7-0.1-1.1-0.1v1.7h5.8v-1.7h-1.4C20.4,325.8,20,325.5,20,325.1z"/>
			<polygon class="st3" points="23.9,318.9 16.8,318.9 16.8,321.3 26.9,321.3 26.9,305.1 23.9,305.1 			"/>
			<rect x="30.8" y="305.1" class="st3" width="3" height="16.2"/>
			<path class="st3" d="M53.5,315.5c0-3.2-1.6-5.3-5.2-5.3c-4,0-6,2.7-6,5.8c0,3.2,1.7,5.3,6.2,5.3h5V315.5z M50.5,318.9h-1.7
				c-2.4,0-3.4-1.1-3.4-3.2c0-1.8,1-3.1,2.7-3.1c1.5,0,2.5,1,2.5,3.3V318.9z"/>
			<path class="st3" d="M50,308.7c0.9,0,1.5-0.7,1.5-1.6c0-0.9-0.7-1.6-1.5-1.6s-1.5,0.7-1.5,1.6C48.5,308,49.1,308.7,50,308.7z"/>
			<path class="st3" d="M46.2,308.7c0.9,0,1.5-0.7,1.5-1.6c0-0.9-0.7-1.6-1.5-1.6c-0.9,0-1.5,0.7-1.5,1.6
				C44.6,308,45.3,308.7,46.2,308.7z"/>
			<path class="st3" d="M56.9,321.5c0,2.5-0.9,3.2-2.5,3.2c-0.7,0-1.3-0.1-1.9-0.3l-0.3,2.4c0.6,0.1,1.2,0.2,1.9,0.2
				c4.7,0,5.7-2.8,5.7-5.7v-10.9h-3V321.5z"/>
			<path class="st3" d="M90.3,310c0.4,1.7,0.7,3.9,0.7,6.2c0,0.7-0.1,1.8-0.2,2.8H90c-2,0-2.5-0.6-2.5-2.6v-5.4h-2.9v5.5
				c0,1.7-0.4,2.6-1.7,2.6c-1.4,0-1.7-0.9-1.7-2.7v-4.6h-3v4.2c0,2.3-0.6,2.9-2.1,2.9h-0.4h-0.4h-1.9V311c0,0-2.1-0.8-4.8-0.8
				c-4.2,0-6.1,2.8-6.1,5.8c0,3.3,1.7,5.3,6.2,5.3h1.8v0.3c0,2.2-1.6,3.1-4,3.1c-1.8,0-3.6-0.4-3.6-0.4l-0.2,2.5
				c0,0,1.8,0.3,3.5,0.3c5.2,0,7.2-2.6,7.2-5.7v0h1.9h0.4H76c1.7,0,2.6-0.6,3.1-1.7c0.4,1.2,1.6,1.9,3.3,1.9c1.4,0,2.8-0.6,3.3-1.9
				c0.5,1.2,1.7,1.7,3.7,1.7h4.3c0.2-1.6,0.3-3.7,0.3-5.4c0-2.3-0.3-4.5-0.7-6.4L90.3,310z M70.4,318.9H69c-2.4,0-3.4-1.1-3.4-3.2
				c0-1.8,1-3.1,2.7-3.1c1.3,0,2.2,0.4,2.2,0.4V318.9z"/>
			<polygon class="st3" points="97,311 99.2,311 99.5,305.1 96.6,305.1 			"/>
			<polygon class="st3" points="100.9,305.1 101.3,311 103.5,311 103.9,305.1 			"/>
		</g>
	</g>
</g>
<g class="st1">
	<g class="st2">
		<g>
			<path class="st0" d="M-136.6,119.5c-0.5,0-1,0.4-1,1c0,0.5,0.4,1,1,1c0.6,0,1-0.4,1-1C-135.6,119.9-136,119.5-136.6,119.5z"/>
			<path class="st0" d="M-130.2,109.3l-1-0.5c-1.8,2.9-2.4,5.6-2.4,8c0,2.4,0.4,4.9,2.3,7.9l1.1-0.5c-1.3-2.3-2-4.7-2-7.4
				C-132.2,114.1-131.5,111.5-130.2,109.3z"/>
			<path class="st0" d="M-122.3,112.3c0.5,0,0.8-0.4,0.8-0.9c0-0.5-0.4-0.8-0.8-0.8c-0.5,0-0.9,0.4-0.9,0.8
				C-123.1,111.9-122.7,112.3-122.3,112.3z"/>
			<path class="st0" d="M-120.4,120.1h-2.7c-3.3,0-4.3-1.2-4.3-3.7c0-0.9,0.2-2,0.6-2.8l-1.6,0.3c-0.3,0.6-0.5,1.7-0.5,2.7
				c0,3,1.6,4.7,5.6,4.7h4.4v-7.5h-1.5V120.1z"/>
			<path class="st0" d="M-124.6,112.3c0.5,0,0.8-0.4,0.8-0.9c0-0.5-0.4-0.8-0.8-0.8c-0.5,0-0.8,0.4-0.8,0.8
				C-125.5,111.9-125.1,112.3-124.6,112.3z"/>
			<rect x="-116" y="110" class="st0" width="1.5" height="11.3"/>
			<path class="st0" d="M-102.5,113.6c-2.5,0-3.9,1.8-3.9,4.2c0,1.9-0.6,2.4-1.4,2.4h-0.1h-0.2h-1.5v-6.4h-1.5v7.7
				c0,2.1-0.8,2.7-2.1,2.7c-0.6,0-1.1-0.1-1.6-0.3l-0.2,1.2c0.5,0.1,1.1,0.2,1.7,0.2c2.9,0,3.7-1.8,3.7-4v-0.1h1.5h0.2h0
				c1,0,1.8-0.5,2.1-1.4c0.5,0.9,1.5,1.4,3.3,1.4h3.4v-3.9C-99,114.9-100.1,113.6-102.5,113.6z M-100.4,120.1h-1.8
				c-1.9,0-2.7-0.8-2.7-2.5c0-1.8,0.9-2.9,2.3-2.9c1.4,0,2.2,0.8,2.2,2.9V120.1z"/>
			<path class="st0" d="M-89.1,115.5L-89.1,115.5c1.1-0.4,1.8-1.4,1.8-2.6c0-1.4-0.9-2.5-3-2.5c-0.8,0-1.6,0.2-2.3,0.5l0.1,1.2
				c0.6-0.3,1.2-0.5,1.9-0.5c1.1,0,1.8,0.6,1.8,1.6c0,1.3-1,2.1-3.4,2v1.2c0.3,0,0.6-0.1,1-0.1c1.9,0,2.8,0.8,2.8,1.9
				c0,1.2-1,2-2.6,2c-0.6,0-1.2-0.1-1.7-0.2l-0.2,1.3c0.4,0.1,1.1,0.2,1.7,0.2c2.4,0,4.2-1.4,4.2-3.4
				C-86.8,116.7-87.8,115.8-89.1,115.5z"/>
			<path class="st0" d="M-84.4,108.8l-1.1,0.5c1.3,2.3,2,4.7,2,7.5c0,2.6-0.7,5.1-2,7.4l1,0.5c1.8-2.9,2.4-5.6,2.4-8
				C-82.1,114.3-82.5,111.8-84.4,108.8z"/>
		</g>
		<g>
			<path class="st3" d="M-49.8,118.9h-2.5h-0.3h-1.6v-3.6c0-3.2-1.3-5.1-5.3-5.1c-2.5,0-4.6,0.4-4.6,0.4v8.3h-1.6
				c-4.3,0-5.7-1.5-5.7-4.8c0-1.2,0.3-2.7,0.8-3.8l-3.2,0.5c-0.3,0.9-0.6,2.4-0.6,3.6c0,4.2,2.2,6.8,8.4,6.8h4.8v-8.6
				c0,0,0.8-0.1,1.5-0.1c1.9,0,2.6,0.8,2.6,3v5.7h4.5h0.3h5.5v-16.2h-3V118.9z"/>
			<path class="st3" d="M-20.2,118.9h-2.9h-0.3h-1.2c-1,0-1.8-0.2-2.6-0.6c1.5-1.3,2.3-2.9,2.3-4.4c0-2-1.4-3.8-4.9-3.8
				c-2.3,0-4.8,1.2-6.6,2.6l-0.3,2.2c2,0.6,3.4,2,4.8,3.4c-1.4,0.5-3.2,0.7-5.4,0.7h-0.5h-0.3h-2v-13.8h-3v16.2h5h0.3h0.3
				c3.1,0,5.6-0.6,7.6-1.4c1.2,0.8,2.7,1.4,4.7,1.4h1.5h0.3h5.9v-10.8h-3V118.9z M-29.2,116.9c-1.4-1.2-2.7-2.5-4.3-3.2
				c0.8-0.6,2.3-1.4,3.5-1.4c1.5,0,2.2,0.9,2.2,1.9C-27.8,115.2-28.3,116.1-29.2,116.9z"/>
			<path class="st3" d="M-17.2,105.6c-0.9,0-1.5,0.7-1.5,1.6c0,0.9,0.7,1.6,1.5,1.6c0.9,0,1.5-0.7,1.5-1.6
				C-15.7,106.3-16.4,105.6-17.2,105.6z"/>
			<path class="st3" d="M-21,108.7c0.9,0,1.5-0.7,1.5-1.6c0-0.9-0.7-1.6-1.5-1.6c-0.9,0-1.5,0.7-1.5,1.6
				C-22.5,108.1-21.9,108.7-21,108.7z"/>
			<path class="st3" d="M14.5,118.9H12h-0.4h-2v-13.8h-3v13.8H4.2H3.8H1.9V111c0,0-2.1-0.8-4.8-0.8c-4.2,0-6.1,2.8-6.1,5.8
				c0,3.3,1.7,5.3,6.2,5.3h6.6h0.3h7.5H12h5.5v-16.2h-3V118.9z M-1,118.9h-1.5c-2.4,0-3.4-1.1-3.4-3.2c0-1.8,1-3.1,2.7-3.1
				c1.3,0,2.2,0.4,2.2,0.4V118.9z"/>
			<rect x="21.5" y="105.1" class="st3" width="3" height="16.2"/>
			<path class="st3" d="M48.4,108.5c0.9,0,1.6-0.7,1.6-1.6c0-0.9-0.7-1.6-1.6-1.6s-1.6,0.7-1.6,1.6
				C46.8,107.8,47.5,108.5,48.4,108.5z"/>
			<path class="st3" d="M63.1,108.4c0.9,0,1.6-0.7,1.6-1.6c0-0.9-0.7-1.6-1.6-1.6s-1.6,0.7-1.6,1.6
				C61.5,107.7,62.2,108.4,63.1,108.4z"/>
			<path class="st3" d="M72.1,108.7c0.9,0,1.5-0.7,1.5-1.6c0-0.9-0.7-1.6-1.5-1.6c-0.9,0-1.5,0.7-1.5,1.6
				C70.6,108.1,71.2,108.7,72.1,108.7z"/>
			<path class="st3" d="M75.9,108.7c0.9,0,1.5-0.7,1.5-1.6c0-0.9-0.7-1.6-1.5-1.6c-0.9,0-1.5,0.7-1.5,1.6
				C74.4,108.1,75,108.7,75.9,108.7z"/>
			<path class="st3" d="M92.7,110c0.4,1.7,0.7,3.9,0.7,6.2c0,0.7-0.1,1.8-0.2,2.8h-0.8c-2,0-2.5-0.6-2.5-2.6v-5.4h-2.9v5.5
				c0,1.7-0.4,2.6-1.7,2.6c-1.4,0-1.7-0.9-1.7-2.7v-4.6h-3v4.2c0,2.3-0.6,2.9-2.1,2.9H78h-0.3h-1.7v-8.4h-3v8.4H70h-0.3h-1.2
				c-1,0-1.8-0.2-2.6-0.6c1.5-1.3,2.3-2.9,2.3-4.4c0-2-1.4-3.8-4.9-3.8c-2.3,0-4.8,1.2-6.6,2.6l-0.3,2.2c2,0.6,3.4,2,4.8,3.4
				c-1.4,0.5-3.2,0.7-5.4,0.7h-0.5h-0.3h-0.9c-0.8,0-1.7,0.1-1.7,0.1c0.9-0.7,1.3-2.1,1.3-3.5c0-3.7-2.1-5.4-5.4-5.4
				c-3.5,0-5.8,2.4-5.8,5.7c0,1.3,0.4,2.4,1.1,3.1c0,0-0.7-0.1-1.4-0.1h-0.6h-0.3h-1.9v-8.4h-3v11.1c0,2.5-0.9,3.2-2.5,3.2
				c-0.7,0-1.3-0.1-1.9-0.3l-0.3,2.4c0.6,0.1,1.2,0.2,1.9,0.2c4.7,0,5.7-2.8,5.7-5.7v-0.1h1.9h0.3h13.5h0.3h0.3
				c3.1,0,5.6-0.6,7.6-1.4c1.2,0.8,2.7,1.4,4.7,1.4h1.5H70h7.6H78h0.4c1.7,0,2.6-0.6,3.1-1.7c0.4,1.2,1.6,1.9,3.3,1.9
				c1.4,0,2.8-0.6,3.3-1.9c0.5,1.2,1.7,1.7,3.7,1.7H96c0.2-1.6,0.3-3.7,0.3-5.4c0-2.3-0.3-4.5-0.7-6.4L92.7,110z M48.3,118.9
				c-1.7,0-2.6-1.1-2.6-3.2c0-2.2,1.3-3.1,2.6-3.1c1.7,0,2.5,1.1,2.5,3.1C50.9,117.8,49.8,118.9,48.3,118.9z M63.9,116.9
				c-1.4-1.2-2.7-2.5-4.3-3.2c0.8-0.6,2.3-1.4,3.5-1.4c1.5,0,2.2,0.9,2.2,1.9C65.3,115.2,64.8,116.1,63.9,116.9z"/>
			<rect x="99.9" y="105.5" class="st3" width="3" height="15.8"/>
			<path class="st3" d="M102.9,102.5c-1.2,0-1.6-0.4-1.6-0.9c0-0.5,0.4-0.8,1.1-0.8c0.5,0,1,0.1,1.1,0.1l0.3-1.6
				c-0.2,0-0.7-0.1-1.4-0.1c-2.4,0-3.2,1.2-3.2,2.4c0,0.3,0.2,0.8,0.4,0.9c-0.3-0.1-0.8-0.1-1.4-0.1v1.6h5.9v-1.6H102.9z"/>
		</g>
	</g>
</g>
<g class="st1">
	<g class="st2">
		<g>
			<path class="st0" d="M-385.5,167.5c-0.5,0-1,0.4-1,1c0,0.5,0.4,1,1,1c0.6,0,1-0.4,1-1C-384.5,167.9-385,167.5-385.5,167.5z"/>
			<path class="st0" d="M-379.2,157.3l-1-0.5c-1.8,2.9-2.4,5.6-2.4,8c0,2.4,0.4,4.9,2.3,7.9l1.1-0.5c-1.3-2.3-2-4.7-2-7.4
				C-381.2,162.1-380.5,159.5-379.2,157.3z"/>
			<path class="st0" d="M-370.7,165.2c0-2.3-1.1-3.6-3.4-3.6c-2.7,0-4,1.8-4,4c0,2.3,1.1,3.7,4.2,3.7h3.2V165.2z M-372.1,168.1h-1.6
				c-2,0-2.9-0.9-2.9-2.7c0-1.6,0.9-2.7,2.4-2.7c1.3,0,2.1,0.8,2.1,2.7V168.1z"/>
			<path class="st0" d="M-373,160.3c0.5,0,0.8-0.4,0.8-0.9c0-0.5-0.4-0.8-0.8-0.8c-0.5,0-0.9,0.4-0.9,0.8
				C-373.9,159.9-373.5,160.3-373,160.3z"/>
			<path class="st0" d="M-375.4,160.3c0.5,0,0.8-0.4,0.8-0.9c0-0.5-0.4-0.8-0.8-0.8c-0.5,0-0.8,0.4-0.8,0.8
				C-376.2,159.9-375.9,160.3-375.4,160.3z"/>
			<path class="st0" d="M-358.8,161.6c-2.5,0-3.9,1.8-3.9,4.2c0,1.9-0.6,2.4-1.4,2.4h-0.1h-0.2h-1.5v-6.4h-1.5v7.7
				c0,2.1-0.8,2.7-2.1,2.7c-0.6,0-1.1-0.1-1.6-0.3l-0.2,1.2c0.5,0.1,1.1,0.2,1.7,0.2c2.9,0,3.7-1.8,3.7-4v-0.1h1.5h0.2h0
				c1,0,1.8-0.5,2.1-1.4c0.5,0.9,1.5,1.4,3.3,1.4h3.4v-3.9C-355.3,162.9-356.4,161.6-358.8,161.6z M-356.7,168.1h-1.8
				c-1.9,0-2.7-0.8-2.7-2.5c0-1.8,0.9-2.9,2.3-2.9c1.4,0,2.2,0.8,2.2,2.9V168.1z"/>
			<path class="st0" d="M-345.4,163.5L-345.4,163.5c1.1-0.4,1.8-1.4,1.8-2.6c0-1.4-0.9-2.5-3-2.5c-0.8,0-1.6,0.2-2.3,0.5l0.1,1.2
				c0.6-0.3,1.2-0.5,1.9-0.5c1.1,0,1.8,0.6,1.8,1.6c0,1.3-1,2.1-3.4,2v1.2c0.3,0,0.6-0.1,1-0.1c1.9,0,2.8,0.8,2.8,1.9
				c0,1.2-1,2-2.6,2c-0.6,0-1.2-0.1-1.7-0.2l-0.2,1.3c0.4,0.1,1.1,0.2,1.7,0.2c2.4,0,4.2-1.4,4.2-3.4
				C-343.2,164.7-344.1,163.8-345.4,163.5z"/>
			<path class="st0" d="M-337.6,163.5L-337.6,163.5c1.1-0.4,1.8-1.4,1.8-2.6c0-1.4-0.9-2.5-3-2.5c-0.8,0-1.6,0.2-2.3,0.5l0.1,1.2
				c0.6-0.3,1.2-0.5,1.9-0.5c1.1,0,1.8,0.6,1.8,1.6c0,1.3-1,2.1-3.4,2v1.2c0.3,0,0.6-0.1,1-0.1c1.9,0,2.8,0.8,2.8,1.9
				c0,1.2-1,2-2.6,2c-0.6,0-1.2-0.1-1.7-0.2l-0.2,1.3c0.4,0.1,1.1,0.2,1.7,0.2c2.4,0,4.2-1.4,4.2-3.4
				C-335.4,164.7-336.3,163.8-337.6,163.5z"/>
			<path class="st0" d="M-332.9,156.8l-1.1,0.5c1.3,2.3,2,4.7,2,7.5c0,2.6-0.7,5.1-2,7.4l1,0.5c1.8-2.9,2.4-5.6,2.4-8
				C-330.6,162.3-331,159.8-332.9,156.8z"/>
		</g>
		<g>
			<path class="st3" d="M-311.8,171.2c-0.9,0-1.6,0.7-1.6,1.6c0,0.9,0.7,1.6,1.6,1.6s1.6-0.7,1.6-1.6
				C-310.2,171.8-310.9,171.2-311.8,171.2z"/>
			<path class="st3" d="M-305.5,160.4c3.7,0.9,5.5,2.9,5.6,6.5h-6.5h-0.3h-1.9v-8.4h-3v8.4h-2.9h-0.3h-1.9v-8.4h-3v11.1
				c0,2.5-0.9,3.2-2.5,3.2c-0.7,0-1.3-0.1-1.9-0.3l-0.3,2.4c0.6,0.1,1.2,0.2,1.9,0.2c4.7,0,5.7-2.8,5.7-5.7v-0.1h1.9h0.3h7.8h0.3
				h9.5v-1.5c0-5-2-7.5-5.1-8.9l5.6-3.4v-3l-9.1,5.7V160.4z"/>
			<rect x="-293.4" y="153.5" class="st3" width="3" height="15.8"/>
			<path class="st3" d="M-292,149.6c0-0.5,0.4-0.8,1.1-0.8c0.5,0,1,0.1,1.1,0.1l0.3-1.6c-0.2,0-0.7-0.1-1.4-0.1
				c-2.4,0-3.2,1.2-3.2,2.4c0,0.3,0.2,0.8,0.4,0.9c-0.3-0.1-0.8-0.1-1.4-0.1v1.6h5.9v-1.6h-1.3C-291.6,150.5-292,150.1-292,149.6z"
				/>
			<path class="st3" d="M-258.4,166.9h-2.5h-0.4h-2v-13.8h-3v13.8h-2.5h-0.3h-1.9V159c0,0-2.1-0.8-4.8-0.8c-4.2,0-6.1,2.8-6.1,5.8
				c0,3.3,1.7,5.3,6.2,5.3h6.6h0.3h7.5h0.4h5.5v-16.2h-3V166.9z M-274,166.9h-1.5c-2.4,0-3.4-1.1-3.4-3.2c0-1.8,1-3.1,2.7-3.1
				c1.3,0,2.2,0.4,2.2,0.4V166.9z"/>
			<rect x="-251.5" y="153.1" class="st3" width="3" height="16.2"/>
			<path class="st3" d="M-239.5,158.2c-4.2,0-6.1,2.8-6.1,5.8c0,3.3,1.7,5.3,6.2,5.3h1.8v0.3c0,2.2-1.6,3.1-4,3.1
				c-1.8,0-3.6-0.4-3.6-0.4l-0.2,2.5c0,0,1.8,0.3,3.5,0.3c5.2,0,7.2-2.6,7.2-5.8V159C-234.7,159-236.8,158.2-239.5,158.2z
				 M-237.7,166.9h-1.5c-2.4,0-3.4-1.1-3.4-3.2c0-1.8,1-3.1,2.7-3.1c1.3,0,2.2,0.4,2.2,0.4V166.9z"/>
		</g>
		<g>
			<path class="st0" d="M-224.6,157.3l-1-0.5c-1.8,2.9-2.4,5.6-2.4,8c0,2.4,0.4,4.9,2.3,7.9l1.1-0.5c-1.3-2.3-2-4.7-2-7.4
				C-226.6,162.1-225.9,159.5-224.6,157.3z"/>
			<path class="st0" d="M-220.8,160.3c0.5,0,0.8-0.4,0.8-0.9c0-0.5-0.4-0.8-0.8-0.8c-0.5,0-0.8,0.4-0.8,0.8
				C-221.7,159.9-221.3,160.3-220.8,160.3z"/>
			<path class="st0" d="M-216.1,165.2c0-2.3-1.1-3.6-3.4-3.6c-2.7,0-4,1.8-4,4c0,2.3,1.1,3.7,4.2,3.7h3.2V165.2z M-217.6,168.1h-1.6
				c-2,0-2.9-0.9-2.9-2.7c0-1.6,0.9-2.7,2.4-2.7c1.3,0,2.1,0.8,2.1,2.7V168.1z"/>
			<path class="st0" d="M-218.5,160.3c0.5,0,0.8-0.4,0.8-0.9c0-0.5-0.4-0.8-0.8-0.8c-0.5,0-0.9,0.4-0.9,0.8
				C-219.3,159.9-219,160.3-218.5,160.3z"/>
			<path class="st0" d="M-204.3,161.6c-2.5,0-3.9,1.8-3.9,4.2c0,1.9-0.6,2.4-1.4,2.4h-0.1h-0.2h-1.5v-6.4h-1.5v7.7
				c0,2.1-0.8,2.7-2.1,2.7c-0.6,0-1.1-0.1-1.6-0.3l-0.2,1.2c0.5,0.1,1.1,0.2,1.7,0.2c2.9,0,3.7-1.8,3.7-4v-0.1h1.5h0.2h0
				c1,0,1.8-0.5,2.1-1.4c0.5,0.9,1.5,1.4,3.3,1.4h3.4v-3.9C-200.7,162.9-201.9,161.6-204.3,161.6z M-202.2,168.1h-1.8
				c-1.9,0-2.7-0.8-2.7-2.5c0-1.8,0.9-2.9,2.3-2.9c1.4,0,2.2,0.8,2.2,2.9V168.1z"/>
			<path class="st0" d="M-190.9,163.5L-190.9,163.5c1.1-0.4,1.8-1.4,1.8-2.6c0-1.4-0.9-2.5-3-2.5c-0.8,0-1.6,0.2-2.3,0.5l0.1,1.2
				c0.6-0.3,1.2-0.5,1.9-0.5c1.1,0,1.8,0.6,1.8,1.6c0,1.3-1,2.1-3.4,2v1.2c0.3,0,0.6-0.1,1-0.1c1.9,0,2.8,0.8,2.8,1.9
				c0,1.2-1,2-2.6,2c-0.6,0-1.2-0.1-1.7-0.2l-0.2,1.3c0.4,0.1,1.1,0.2,1.7,0.2c2.4,0,4.2-1.4,4.2-3.4
				C-188.6,164.7-189.5,163.8-190.9,163.5z"/>
			<path class="st0" d="M-183,163.5L-183,163.5c1.1-0.4,1.8-1.4,1.8-2.6c0-1.4-0.9-2.5-3-2.5c-0.8,0-1.6,0.2-2.3,0.5l0.1,1.2
				c0.6-0.3,1.2-0.5,1.9-0.5c1.1,0,1.8,0.6,1.8,1.6c0,1.3-1,2.1-3.4,2v1.2c0.3,0,0.6-0.1,1-0.1c1.9,0,2.8,0.8,2.8,1.9
				c0,1.2-1,2-2.6,2c-0.6,0-1.2-0.1-1.7-0.2l-0.2,1.3c0.4,0.1,1.1,0.2,1.7,0.2c2.4,0,4.2-1.4,4.2-3.4
				C-180.8,164.7-181.7,163.8-183,163.5z"/>
			<path class="st0" d="M-178.3,156.8l-1.1,0.5c1.3,2.3,2,4.7,2,7.5c0,2.6-0.7,5.1-2,7.4l1,0.5c1.8-2.9,2.4-5.6,2.4-8
				C-176,162.3-176.5,159.8-178.3,156.8z"/>
		</g>
		<g>
			<path class="st3" d="M-145.2,166.9h-2.5h-0.4h-2v-13.8h-3v13.8h-2.5h-0.3h-1.9V159c0,0-2.1-0.8-4.8-0.8c-4.2,0-6.1,2.8-6.1,5.8
				c0,3.3,1.7,5.3,6.2,5.3h6.6h0.3h7.5h0.4h5.5v-16.2h-3V166.9z M-160.8,166.9h-1.5c-2.4,0-3.4-1.1-3.4-3.2c0-1.8,1-3.1,2.7-3.1
				c1.3,0,2.2,0.4,2.2,0.4V166.9z"/>
			<path class="st3" d="M-91.5,166.9H-94h-0.3h-1.5c0.1-0.7,0.1-1.3,0.1-1.9c0-4.4-2-6.7-7.2-6.7c-1,0-2,0.1-2.9,0.2v2.4
				c0.9-0.1,1.7-0.2,2.6-0.2c3.3,0,4.5,1.5,4.5,4.4c0,0.6,0,1.2-0.1,1.7h-8.5h-0.4h-1.6v-3.2c0-3.4-1.6-5.5-5.3-5.5
				c-3.9,0-5.9,2.7-5.9,6c0,2.1-0.6,2.8-1.7,2.8h-0.1h-0.3h-1.2c-0.3-5.1-2.9-7.7-7.6-9l-0.7,2.5c3.6,0.9,5.3,3,5.4,6.4h-6.8v2.4
				h10.9h0.3h0c1.4,0,2.5-0.6,3-1.8c0.7,1.1,2,1.8,4.7,1.8h6.8h0.4h13h0.3h5.5v-16.2h-3V166.9z M-112.3,166.9h-2c-2.4,0-3.2-1-3.2-3
				c0-2,1-3.3,2.7-3.3c1.7,0,2.6,1,2.6,3.4V166.9z"/>
			<rect x="-84.5" y="153.1" class="st3" width="3" height="16.2"/>
			<path class="st3" d="M-72.6,158.2c-4.2,0-6.1,2.8-6.1,5.8c0,3.3,1.7,5.3,6.2,5.3h1.8v0.3c0,2.2-1.6,3.1-4,3.1
				c-1.8,0-3.6-0.4-3.6-0.4l-0.2,2.5c0,0,1.8,0.3,3.5,0.3c5.2,0,7.2-2.6,7.2-5.8V159C-67.8,159-69.8,158.2-72.6,158.2z M-70.7,166.9
				h-1.5c-2.4,0-3.4-1.1-3.4-3.2c0-1.8,1-3.1,2.7-3.1c1.3,0,2.2,0.4,2.2,0.4V166.9z"/>
		</g>
		<g>
			<path class="st0" d="M-56.2,157.3l-1-0.5c-1.8,2.9-2.4,5.6-2.4,8c0,2.4,0.4,4.9,2.3,7.9l1.1-0.5c-1.3-2.3-2-4.7-2-7.4
				C-58.2,162.1-57.5,159.5-56.2,157.3z"/>
			<path class="st0" d="M-47.7,165.2c0-2.3-1.1-3.6-3.4-3.6c-2.7,0-4,1.8-4,4c0,2.3,1.1,3.7,4.2,3.7h3.2V165.2z M-49.1,168.1h-1.6
				c-2,0-2.9-0.9-2.9-2.7c0-1.6,0.9-2.7,2.4-2.7c1.3,0,2.1,0.8,2.1,2.7V168.1z"/>
			<path class="st0" d="M-52.4,160.3c0.5,0,0.8-0.4,0.8-0.9c0-0.5-0.4-0.8-0.8-0.8c-0.5,0-0.8,0.4-0.8,0.8
				C-53.2,159.9-52.9,160.3-52.4,160.3z"/>
			<path class="st0" d="M-50,160.3c0.5,0,0.8-0.4,0.8-0.9c0-0.5-0.4-0.8-0.8-0.8c-0.5,0-0.9,0.4-0.9,0.8
				C-50.9,159.9-50.5,160.3-50,160.3z"/>
			<path class="st0" d="M-35.8,161.6c-2.5,0-3.9,1.8-3.9,4.2c0,1.9-0.6,2.4-1.4,2.4h-0.1h-0.2H-43v-6.4h-1.5v7.7
				c0,2.1-0.8,2.7-2.1,2.7c-0.6,0-1.1-0.1-1.6-0.3l-0.2,1.2c0.5,0.1,1.1,0.2,1.7,0.2c2.9,0,3.7-1.8,3.7-4v-0.1h1.5h0.2h0
				c1,0,1.8-0.5,2.1-1.4c0.5,0.9,1.5,1.4,3.3,1.4h3.4v-3.9C-32.3,162.9-33.4,161.6-35.8,161.6z M-33.7,168.1h-1.8
				c-1.9,0-2.7-0.8-2.7-2.5c0-1.8,0.9-2.9,2.3-2.9c1.4,0,2.2,0.8,2.2,2.9V168.1z"/>
			<path class="st0" d="M-22.4,163.5L-22.4,163.5c1.1-0.4,1.8-1.4,1.8-2.6c0-1.4-0.9-2.5-3-2.5c-0.8,0-1.6,0.2-2.3,0.5l0.1,1.2
				c0.6-0.3,1.2-0.5,1.9-0.5c1.1,0,1.8,0.6,1.8,1.6c0,1.3-1,2.1-3.4,2v1.2c0.3,0,0.6-0.1,1-0.1c1.9,0,2.8,0.8,2.8,1.9
				c0,1.2-1,2-2.6,2c-0.6,0-1.2-0.1-1.7-0.2l-0.2,1.3c0.4,0.1,1.1,0.2,1.7,0.2c2.4,0,4.2-1.4,4.2-3.4
				C-20.2,164.7-21.1,163.8-22.4,163.5z"/>
			<path class="st0" d="M-14.6,163.5L-14.6,163.5c1.1-0.4,1.8-1.4,1.8-2.6c0-1.4-0.9-2.5-3-2.5c-0.8,0-1.6,0.2-2.3,0.5l0.1,1.2
				c0.6-0.3,1.2-0.5,1.9-0.5c1.1,0,1.8,0.6,1.8,1.6c0,1.3-1,2.1-3.4,2v1.2c0.3,0,0.6-0.1,1-0.1c1.9,0,2.8,0.8,2.8,1.9
				c0,1.2-1,2-2.6,2c-0.6,0-1.2-0.1-1.7-0.2l-0.2,1.3c0.4,0.1,1.1,0.2,1.7,0.2c2.4,0,4.2-1.4,4.2-3.4
				C-12.3,164.7-13.3,163.8-14.6,163.5z"/>
			<path class="st0" d="M-9.9,156.8l-1.1,0.5c1.3,2.3,2,4.7,2,7.5c0,2.6-0.7,5.1-2,7.4l1,0.5c1.8-2.9,2.4-5.6,2.4-8
				C-7.6,162.3-8,159.8-9.9,156.8z"/>
		</g>
		<g>
			<path class="st3" d="M23.2,166.9h-2.5h-0.4h-2v-13.8h-3v13.8h-2.5h-0.3h-1.9V159c0,0-2.1-0.8-4.8-0.8c-4.2,0-6.1,2.8-6.1,5.8
				c0,3.3,1.7,5.3,6.2,5.3h6.6h0.3h7.5h0.4h5.5v-16.2h-3V166.9z M7.7,166.9H6.2c-2.4,0-3.4-1.1-3.4-3.2c0-1.8,1-3.1,2.7-3.1
				c1.3,0,2.2,0.4,2.2,0.4V166.9z"/>
			<rect x="30.2" y="153.1" class="st3" width="3" height="16.2"/>
			<path class="st3" d="M51.4,167.8c0,3.3-1.2,4.4-3.2,4.4c-1.6,0-3.3-0.9-3.3-4.4c0-1.4,0.2-2.9,0.6-4.4l-3.1,0.6
				c-0.4,1.3-0.6,2.8-0.6,4.1c0,4.6,2.4,6.5,6.1,6.5c4.4,0,6.5-2.3,6.5-6.9v-9.2h-3V167.8z"/>
			<path class="st3" d="M47.9,161.4c0.9,0,1.6-0.7,1.6-1.6c0-0.9-0.7-1.6-1.6-1.6s-1.6,0.7-1.6,1.6C46.3,160.7,47,161.4,47.9,161.4z
				"/>
			<path class="st3" d="M79.5,171.2c-0.9,0-1.6,0.7-1.6,1.6c0,0.9,0.7,1.6,1.6,1.6s1.6-0.7,1.6-1.6C81,171.8,80.3,171.2,79.5,171.2z
				"/>
			<path class="st3" d="M102.6,157.6l-3,0.4c0.4,1.7,0.7,3.9,0.7,6.2c0,0.7-0.1,1.8-0.2,2.8h-0.8c-2,0-2.5-0.6-2.5-2.6v-5.4h-2.9
				v5.5c0,1.7-0.4,2.6-1.7,2.6c-1.4,0-1.7-0.9-1.7-2.7v-4.6h-3v4.2c0,2.3-0.6,2.9-2.1,2.9h-0.4h-0.3h-1.9v-8.4h-3v8.4h-2.9h-0.3H75
				c0.1-0.7,0.1-1.3,0.1-1.9c0-4.4-2-6.7-7.2-6.7c-1,0-2,0.1-2.9,0.2v2.4c0.9-0.1,1.7-0.2,2.6-0.2c3.3,0,4.5,1.5,4.5,4.4
				c0,0.6,0,1.2-0.1,1.7h-8.6H63h-2v-13.8h-3v16.2h5h0.3h13h0.3h7.8h0.3h0.4c1.7,0,2.6-0.6,3.1-1.7c0.4,1.2,1.6,1.9,3.3,1.9
				c1.4,0,2.8-0.6,3.3-1.9c0.5,1.2,1.7,1.7,3.7,1.7h4.3c0.2-1.6,0.3-3.7,0.3-5.4C103.3,161.7,103,159.4,102.6,157.6z"/>
		</g>
	</g>
</g>
<g id="Minus">
</g>
<g id="Mute">
</g>
<g class="st1">
	<circle class="st4" cx="129.4" cy="113.8" r="12"/>
	<g class="st2">
		<g>
			<path class="st0" d="M129,120.2V109l-2.4,1l-0.4-2.5l3.4-1.2h2.1v14H129z"/>
		</g>
	</g>
</g>
<g class="st1">
	<circle class="st4" cx="129.4" cy="163.5" r="12"/>
	<g class="st2">
		<g>
			<path class="st0" d="M125.4,169.9v-2.2l2.1-2.4c2.4-2.7,3-4.1,3-5.2c0-1.1-0.7-2-2-2c-0.9,0-1.9,0.4-2.6,0.8l-0.4-2.4
				c0.9-0.5,2.1-0.8,3.7-0.8c2.8,0,4.2,1.7,4.2,3.9c0,1.8-0.9,3.7-3.3,6.4l-1.2,1.5v0c1.5-0.1,3.1-0.1,5-0.1v2.6H125.4z"/>
		</g>
	</g>
</g>
<g class="st1">
	<circle class="st4" cx="129.4" cy="278.8" r="12"/>
	<g class="st2">
		<g>
			<path class="st0" d="M127.8,285.5c-0.9,0-1.8-0.1-2.3-0.3l0.3-2.3c0.6,0.2,1.3,0.3,2.1,0.3c1.7,0,2.8-0.9,2.8-2.1
				c0-1.1-0.9-2-3-2c-0.6,0-1.1,0-1.5,0.1v-2.1c3,0.1,4-0.9,4-2.1c0-1-0.6-1.7-2-1.7c-0.8,0-1.6,0.2-2.3,0.6l-0.2-2.2
				c0.9-0.4,2.1-0.6,3.2-0.6c2.7,0,4.1,1.4,4.1,3.4c0,1.5-0.9,2.7-2.2,3.2l0,0c1.7,0.4,2.7,1.7,2.7,3.3
				C133.5,283.6,131.2,285.5,127.8,285.5z"/>
		</g>
	</g>
</g>
<g class="st1">
	<g class="st2">
		<g>
			<path class="st0" d="M-222.8,363.8c-0.7,0-1.4,0.6-1.4,1.4s0.6,1.4,1.4,1.4c0.8,0,1.4-0.6,1.4-1.4S-222,363.8-222.8,363.8z"/>
			<path class="st0" d="M-211.9,354.3l-1-0.5c-1.8,2.9-2.4,5.6-2.4,8c0,2.4,0.4,4.9,2.3,7.9l1.1-0.5c-1.3-2.3-2-4.7-2-7.4
				C-213.8,359.1-213.2,356.5-211.9,354.3z"/>
			<path class="st0" d="M-206.8,358.6c-2.7,0-4,1.8-4,4c0,2.3,1.1,3.7,4.2,3.7h3.2v-4.1C-203.4,359.9-204.5,358.6-206.8,358.6z
				 M-204.8,365.1h-1.6c-2,0-2.9-0.9-2.9-2.7c0-1.6,0.9-2.7,2.4-2.7c1.3,0,2.1,0.8,2.1,2.7V365.1z"/>
			<path class="st0" d="M-205.7,357.3c0.5,0,0.8-0.4,0.8-0.9c0-0.5-0.4-0.8-0.8-0.8c-0.5,0-0.9,0.4-0.9,0.8
				C-206.6,356.9-206.2,357.3-205.7,357.3z"/>
			<path class="st0" d="M-208.1,357.3c0.5,0,0.8-0.4,0.8-0.9c0-0.5-0.4-0.8-0.8-0.8c-0.5,0-0.8,0.4-0.8,0.8
				C-208.9,356.9-208.6,357.3-208.1,357.3z"/>
			<polygon class="st0" points="-197.3,363.7 -199.9,354.9 -201.3,355.1 -198.8,363.7 			"/>
			<path class="st0" d="M-184.8,358.6c-1.8,0-3.6,1.3-4.4,3.7h0c0.1-0.9,0.2-2,0.2-2.9v-0.6h-1.5v6.4h-2h-0.2h-1.5V355h-1.5v10.1
				h-4.9v1.2h8h0.2h10.6c0.1-1.2,0.2-2.5,0.2-3.7C-181.7,360.1-182.7,358.6-184.8,358.6z M-183.3,365.1h-5.7c0.3-2.6,1.8-5.3,4-5.3
				c1.4,0,1.9,1.2,1.9,2.9C-183.2,363.5-183.2,364.3-183.3,365.1z"/>
			<path class="st0" d="M-165.3,359.6c2.8,0.8,4.1,2.3,4.2,5.5h-4.9h-0.2h-1.5V355h-1.5v10.5c0,2.5-1.1,3.3-2.3,3.3
				c-1.3,0-2.6-0.7-2.6-3.4c0-1,0.1-2.1,0.4-3.2l-1.5,0.3c-0.3,0.9-0.4,2-0.4,3c0,3.3,1.7,4.5,3.9,4.5c2.1,0,3.6-1.1,3.9-3.7h1.5
				h0.2h6.3v-0.8c0-3.8-1.4-5.5-3.9-6.6l4.4-2.7v-1.5l-6.1,3.8V359.6z"/>
			<path class="st0" d="M-133.8,365.1h-2.1h-0.2h-0.7c-0.9,0-1.6-0.3-2.3-0.8c1.3-1,1.9-2.2,1.9-3.3c0-1.3-0.9-2.5-3.1-2.5
				c-1.6,0-3.4,1-4.6,1.9l-0.1,1c1.6,0.5,2.7,1.7,3.8,2.8c-1.1,0.5-2.6,0.8-4.4,0.8h-0.3h-0.2h-1c-0.1-3.8-1.8-5.6-5.1-6.7l-0.4,1.2
				c2.8,0.9,4,2.5,4,5.4h-5.1v1.2h7.6h0.2h0.2c2.2,0,4-0.5,5.4-1.2c0.9,0.7,1.9,1.2,3.2,1.2h0.9h0.2h3.6v-7.5h-1.5V365.1z
				 M-140.1,363.6c-1.1-1-2.1-2.1-3.5-2.7c0.7-0.5,2-1.3,3.1-1.3c1.2,0,1.8,0.7,1.8,1.6C-138.7,362.1-139.2,362.9-140.1,363.6z"/>
			<path class="st0" d="M-134.1,367.8c-0.5,0-0.9,0.4-0.9,0.9c0,0.5,0.4,0.9,0.9,0.9s0.9-0.4,0.9-0.9
				C-133.2,368.2-133.6,367.8-134.1,367.8z"/>
			<path class="st0" d="M-121.2,357.3c0.5,0,0.8-0.4,0.8-0.9c0-0.5-0.4-0.8-0.8-0.8c-0.5,0-0.9,0.4-0.9,0.8
				C-122,356.9-121.6,357.3-121.2,357.3z"/>
			<path class="st0" d="M-123.5,357.3c0.5,0,0.8-0.4,0.8-0.9c0-0.5-0.4-0.8-0.8-0.8c-0.5,0-0.8,0.4-0.8,0.8
				C-124.4,356.9-124,357.3-123.5,357.3z"/>
			<path class="st0" d="M-122.2,358.6c-2.7,0-4,1.8-4,4c0,2.3,1.1,3.7,4.2,3.7h3.2v-4.1C-118.8,359.9-120,358.6-122.2,358.6z
				 M-120.3,365.1h-1.6c-2,0-2.9-0.9-2.9-2.7c0-1.6,0.9-2.7,2.4-2.7c1.3,0,2.1,0.8,2.1,2.7V365.1z"/>
			<path class="st0" d="M-105.7,358.7c-0.7,0-1.4,0-1.9,0.1v1.2c0.6-0.1,1.1-0.1,1.8-0.1c2.6,0,3.5,1.2,3.5,3.6c0,0.5,0,1.1-0.1,1.6
				h-6.4h-0.2h-1c-0.1-3.8-1.8-5.6-5.1-6.7l-0.4,1.2c2.8,0.9,4,2.5,4,5.4h-5.1v1.2h7.6h0.2h7.7c0.2-1.2,0.3-2.2,0.3-2.9
				C-100.9,360.3-102.2,358.7-105.7,358.7z"/>
			<rect x="-98.3" y="355" class="st0" width="1.5" height="11.3"/>
			<path class="st0" d="M-94.6,362.6c0,2.3,1.1,3.7,4.2,3.7h1.6v0.4c0,1.8-1.3,2.5-3.1,2.5c-1.2,0-2.6-0.3-2.6-0.3l-0.1,1.2
				c0,0,1.3,0.2,2.5,0.2c3.4,0,4.7-1.9,4.7-3.7v-7.4c0,0-1.5-0.6-3.2-0.6C-93.3,358.6-94.6,360.4-94.6,362.6z M-88.7,365.1h-1.4
				c-2.1,0-2.9-0.9-2.9-2.7c0-1.6,0.9-2.6,2.4-2.6c1.2,0,1.9,0.4,1.9,0.4V365.1z"/>
			<path class="st0" d="M-76.2,357.3c0.5,0,0.8-0.4,0.8-0.9c0-0.5-0.4-0.8-0.8-0.8c-0.5,0-0.9,0.4-0.9,0.8
				C-77.1,356.9-76.7,357.3-76.2,357.3z"/>
			<path class="st0" d="M-78.6,357.3c0.5,0,0.8-0.4,0.8-0.9c0-0.5-0.4-0.8-0.8-0.8c-0.5,0-0.8,0.4-0.8,0.8
				C-79.4,356.9-79,357.3-78.6,357.3z"/>
			<path class="st0" d="M-73.9,362.2c0-2.3-1.1-3.6-3.4-3.6c-2.7,0-4,1.8-4,4c0,2.3,1.1,3.7,4.2,3.7h3.2V362.2z M-75.3,365.1h-1.6
				c-2,0-2.9-0.9-2.9-2.7c0-1.6,0.9-2.7,2.4-2.7c1.3,0,2.1,0.8,2.1,2.7V365.1z"/>
			<path class="st0" d="M-62,358.6c-2.5,0-3.9,1.8-3.9,4.2c0,1.9-0.6,2.4-1.4,2.4h-0.1h-0.2h-1.5v-6.4h-1.5v7.7
				c0,2.1-0.8,2.7-2.1,2.7c-0.6,0-1.1-0.1-1.6-0.3l-0.2,1.2c0.5,0.1,1.1,0.2,1.7,0.2c2.9,0,3.7-1.8,3.7-4v-0.1h1.5h0.2h0
				c1,0,1.8-0.5,2.1-1.4c0.5,0.9,1.5,1.4,3.3,1.4h3.4v-3.9C-58.5,359.9-59.6,358.6-62,358.6z M-59.9,365.1h-1.8
				c-1.9,0-2.7-0.8-2.7-2.5c0-1.8,0.9-2.9,2.3-2.9c1.4,0,2.2,0.8,2.2,2.9V365.1z"/>
			<path class="st0" d="M-55.6,353.8l-1.1,0.5c1.3,2.3,2,4.7,2,7.5c0,2.6-0.7,5.1-2,7.4l1,0.5c1.8-2.9,2.4-5.6,2.4-8
				C-53.3,359.3-53.8,356.8-55.6,353.8z"/>
		</g>
		<g>
			<path class="st3" d="M-39.8,368.2c-0.9,0-1.5,0.7-1.5,1.6c0,0.9,0.7,1.6,1.5,1.6c0.9,0,1.5-0.7,1.5-1.6
				C-38.3,368.9-38.9,368.2-39.8,368.2z"/>
			<path class="st3" d="M-36,368.2c-0.9,0-1.5,0.7-1.5,1.6c0,0.9,0.7,1.6,1.5,1.6s1.5-0.7,1.5-1.6C-34.5,368.9-35.1,368.2-36,368.2z
				"/>
			<path class="st3" d="M-5.2,360.9c0-2.3-0.3-4.5-0.7-6.4l-3,0.4c0.4,1.7,0.7,3.9,0.7,6.2c0,0.7-0.1,1.8-0.2,2.8h-0.8
				c-2,0-2.5-0.6-2.5-2.6v-5.4h-2.9v5.5c0,1.7-0.4,2.6-1.7,2.6c-1.4,0-1.7-0.9-1.7-2.7v-4.6h-3v4.2c0,2.3-0.6,2.9-2.1,2.9h-0.4h-0.3
				h-1.6v-3.6c0-3.2-1.3-5.1-5.3-5.1c-2.5,0-4.6,0.4-4.6,0.4v8.3H-37c-4.3,0-5.7-1.5-5.7-4.8c0-1.2,0.3-2.7,0.8-3.8l-3.2,0.5
				c-0.3,0.9-0.6,2.4-0.6,3.6c0,4.2,2.2,6.8,8.4,6.8h4.8v-8.6c0,0,0.8-0.1,1.5-0.1c1.9,0,2.6,0.8,2.6,3v5.7h4.5h0.3h0.4
				c1.7,0,2.6-0.6,3.1-1.7c0.4,1.2,1.6,1.9,3.3,1.9c1.4,0,2.8-0.6,3.3-1.9c0.5,1.2,1.7,1.7,3.7,1.7h4.3
				C-5.3,364.7-5.2,362.6-5.2,360.9z"/>
			<path class="st3" d="M17.3,363.9h-2.5h-0.3h-1.5c-0.2-4.4-2.2-6.7-5.1-8l5.6-3.4v-3l-9.1,5.7v2.2c3.7,0.9,5.5,2.9,5.6,6.5H3.5
				H3.2H1.2v-8.4h-3v11.1c0,2.5-0.9,3.2-2.5,3.2c-0.7,0-1.3-0.1-1.9-0.3l-0.3,2.4c0.6,0.1,1.2,0.2,1.9,0.2c4.7,0,5.7-2.8,5.7-5.7
				v-0.1h1.9h0.3h11h0.3h5.5v-16.2h-3V363.9z"/>
			<rect x="24.3" y="350.1" class="st3" width="3" height="16.2"/>
			<path class="st3" d="M39.6,353.7c0.9,0,1.5-0.7,1.5-1.6c0-0.9-0.7-1.6-1.5-1.6c-0.9,0-1.5,0.7-1.5,1.6
				C38.1,353,38.8,353.7,39.6,353.7z"/>
			<path class="st3" d="M43.4,353.7c0.9,0,1.5-0.7,1.5-1.6c0-0.9-0.7-1.6-1.5-1.6s-1.5,0.7-1.5,1.6C41.9,353,42.6,353.7,43.4,353.7z
				"/>
			<path class="st3" d="M50.5,368.2c-0.9,0-1.5,0.7-1.5,1.6c0,0.9,0.7,1.6,1.5,1.6c0.9,0,1.5-0.7,1.5-1.6
				C52,368.9,51.4,368.2,50.5,368.2z"/>
			<path class="st3" d="M52.9,363.9h-4h-0.3h-1.9V356c0,0-2.1-0.8-4.8-0.8c-4.2,0-6.1,2.8-6.1,5.8c0,3.3,1.7,5.3,6.2,5.3h6.6h0.3h7
				v-10.8h-3V363.9z M43.7,363.9h-1.5c-2.4,0-3.4-1.1-3.4-3.2c0-1.8,1-3.1,2.7-3.1c1.3,0,2.2,0.4,2.2,0.4V363.9z"/>
			<path class="st3" d="M54.3,368.2c-0.9,0-1.5,0.7-1.5,1.6c0,0.9,0.7,1.6,1.5,1.6c0.9,0,1.5-0.7,1.5-1.6
				C55.8,368.9,55.2,368.2,54.3,368.2z"/>
			<path class="st3" d="M59.6,345.4l-2.4,1.8l1.1,1.4l1.3-0.9c0.3,0.3,1,0.7,2,0.7c1.3,0,2.2-0.6,2.5-0.9v-2.2
				c-0.4,0.3-1.3,0.9-2.4,0.9C60.8,346.3,59.9,345.7,59.6,345.4z"/>
			<rect x="59.6" y="350.1" class="st3" width="3" height="16.2"/>
			<path class="st3" d="M76.4,347.5h-1.3c-1.2,0-1.6-0.4-1.6-0.9c0-0.5,0.4-0.8,1.1-0.8c0.5,0,1,0.1,1.1,0.1l0.3-1.6
				c-0.2,0-0.7-0.1-1.4-0.1c-2.4,0-3.2,1.2-3.2,2.4c0,0.3,0.2,0.8,0.4,0.9c-0.3-0.1-0.8-0.1-1.4-0.1v1.6h5.9V347.5z"/>
			<rect x="72.1" y="350.5" class="st3" width="3" height="15.8"/>
			<path class="st3" d="M89,353.7c0.9,0,1.5-0.7,1.5-1.6c0-0.9-0.7-1.6-1.5-1.6c-0.9,0-1.5,0.7-1.5,1.6
				C87.4,353,88.1,353.7,89,353.7z"/>
			<path class="st3" d="M92.8,353.7c0.9,0,1.5-0.7,1.5-1.6c0-0.9-0.7-1.6-1.5-1.6c-0.9,0-1.5,0.7-1.5,1.6
				C91.3,353,91.9,353.7,92.8,353.7z"/>
			<path class="st3" d="M91.2,355.2c-4,0-6,2.7-6,5.6c0,1.6,0.4,2.7,1.3,3.3c0,0-0.5-0.2-1.3-0.2h-1h-0.3h-1.9v-8.4h-3v11.1
				c0,2.5-0.9,3.2-2.5,3.2c-0.7,0-1.3-0.1-1.9-0.3l-0.3,2.4c0.6,0.1,1.2,0.2,1.9,0.2c4.7,0,5.7-2.8,5.7-5.7v-0.1h1.9h0.3h12.1v-5.8
				C96.4,357.2,94.8,355.2,91.2,355.2z M93.4,363.9h-1.7c-2.4,0-3.4-1.1-3.4-3.2c0-1.8,1-3.1,2.7-3.1c1.5,0,2.5,1,2.5,3.3V363.9z"/>
			<rect x="99.9" y="350.5" class="st3" width="3" height="15.8"/>
			<path class="st3" d="M102.9,347.5c-1.2,0-1.6-0.4-1.6-0.9c0-0.5,0.4-0.8,1.1-0.8c0.5,0,1,0.1,1.1,0.1l0.3-1.6
				c-0.2,0-0.7-0.1-1.4-0.1c-2.4,0-3.2,1.2-3.2,2.4c0,0.3,0.2,0.8,0.4,0.9c-0.3-0.1-0.8-0.1-1.4-0.1v1.6h5.9v-1.6H102.9z"/>
		</g>
	</g>
</g>
<g class="st1">
	<circle class="st4" cx="129.4" cy="359.8" r="12"/>
	<g class="st2">
		<g>
			<path class="st0" d="M132.8,363.2v3.1h-2.6v-3.1h-5.9l-0.2-2.1l5.1-8.8h3.6v8.5h2.1v2.4H132.8z M130.2,354.7L130.2,354.7
				l-3.6,6.2c0.9,0,2.9,0,3.6,0V354.7z"/>
		</g>
	</g>
</g>
<g class="st1">
	<g class="st2">
		<g>
			<path class="st3" d="M-313.1,404.3c-3.3,0-5.3,1.8-5.8,4.3h-0.5c-3.7,0-4.9,2.3-4.3,5.5l1.2,7.3h2.9l-1.2-7.5
				c-0.3-2.2,0-2.9,1.4-2.9h0.5c0.3,2.8,2,4.5,6.1,4.5h5v-5.8C-307.9,406.3-309.5,404.3-313.1,404.3z M-310.8,413h-1.7
				c-2.4,0-3.4-1.1-3.4-3.2c0-1.8,1-3.1,2.7-3.1c1.5,0,2.5,1,2.5,3.3V413z"/>
			<polygon class="st3" points="-299.2,411.3 -302.5,399 -305.6,399.4 -302.3,411.3 			"/>
			<path class="st3" d="M-269.2,413h-2.5h-0.3h-1.9c0.1-1,0.1-2,0.1-3c0-2.3-0.3-4.5-0.7-6.4l-3,0.4c0.4,1.7,0.7,3.9,0.7,6.2
				c0,0.7-0.1,1.8-0.2,2.8h-0.8c-2,0-2.5-0.6-2.5-2.6V405h-2.9v5.5c0,1.7-0.4,2.6-1.7,2.6c-1.4,0-1.7-0.9-1.7-2.7V406h-3v4.2
				c0,2.3-0.6,2.9-2.1,2.9h-0.4h-0.4h-1.9v-13.8h-3V413h-7.1v2.4h12.1h0.4h0.3c1.7,0,2.6-0.6,3.1-1.7c0.4,1.2,1.6,1.9,3.3,1.9
				c1.4,0,2.8-0.6,3.3-1.9c0.5,1.2,1.7,1.7,3.7,1.7h6.4h0.3h5.5v-16.2h-3V413z"/>
			<rect x="-262.2" y="399.2" class="st3" width="3" height="16.2"/>
			<path class="st3" d="M-238.8,404.2h-1.3c-1.2,0-1.6-0.4-1.6-0.9c0-0.5,0.4-0.8,1.1-0.8c0.5,0,1,0.1,1.1,0.1l0.3-1.7
				c-0.2,0-0.7-0.1-1.4-0.1c-2.4,0-3.3,1.3-3.3,2.6c0,0.3,0.2,0.8,0.4,0.9c-0.3-0.1-0.8-0.1-1.3-0.1v1.7h5.9V404.2z"/>
			<path class="st3" d="M-227.2,402.6c0.9,0,1.6-0.7,1.6-1.6s-0.7-1.6-1.6-1.6c-0.9,0-1.6,0.7-1.6,1.6
				C-228.8,401.9-228,402.6-227.2,402.6z"/>
			<path class="st3" d="M-215.7,404.3c-3.9,0-5.9,2.7-5.9,6c0,2.1-0.6,2.8-1.7,2.8h-0.1h-0.3h-1.9v-8.4h-3v8.4h-2.9h-0.4h-2v-13.8
				h-3V413h-4.8c-4.3,0-5.7-1.5-5.7-4.8c0-1.2,0.3-2.7,0.8-3.8l-3.2,0.5c-0.3,0.9-0.6,2.4-0.6,3.6c0,4.2,2.2,6.8,8.4,6.8h10.1h0.4
				h7.8h0.3h0c1.4,0,2.5-0.6,3-1.8c0.7,1.1,2,1.8,4.7,1.8h5.2v-5.6C-210.4,406.4-212,404.3-215.7,404.3z M-213.4,413h-2
				c-2.4,0-3.2-1-3.2-3c0-2,1-3.3,2.7-3.3c1.7,0,2.6,1,2.6,3.4V413z"/>
			<path class="st3" d="M-207.9,410c0,3.3,1.7,5.3,6.2,5.3h1.8v0.3c0,2.2-1.6,3.1-4,3.1c-1.8,0-3.6-0.4-3.6-0.4l-0.2,2.5
				c0,0,1.8,0.3,3.5,0.3c5.2,0,7.2-2.6,7.2-5.8v-10.3c0,0-2.1-0.8-4.8-0.8C-206.1,404.3-207.9,407-207.9,410z M-200,413h-1.5
				c-2.4,0-3.4-1.1-3.4-3.2c0-1.8,1-3.1,2.7-3.1c1.3,0,2.2,0.4,2.2,0.4V413z"/>
			<path class="st3" d="M-178,404.3c-3.3,0-5.3,1.8-5.8,4.3h-0.5c-3.7,0-4.9,2.3-4.3,5.5l1.2,7.3h2.9l-1.2-7.5
				c-0.3-2.2,0-2.9,1.4-2.9h0.5c0.3,2.8,2,4.5,6.1,4.5h5v-5.8C-172.8,406.3-174.4,404.3-178,404.3z M-175.7,413h-1.7
				c-2.4,0-3.4-1.1-3.4-3.2c0-1.8,1-3.1,2.7-3.1c1.5,0,2.5,1,2.5,3.3V413z"/>
			<polygon class="st3" points="-164.1,411.3 -167.4,399 -170.5,399.4 -167.2,411.3 			"/>
			<path class="st3" d="M-134.1,413h-2.5h-0.3h-1.9c0.1-1,0.1-2,0.1-3c0-2.3-0.3-4.5-0.7-6.4l-3,0.4c0.4,1.7,0.7,3.9,0.7,6.2
				c0,0.7-0.1,1.8-0.2,2.8h-0.8c-2,0-2.5-0.6-2.5-2.6V405h-2.9v5.5c0,1.7-0.4,2.6-1.7,2.6c-1.4,0-1.7-0.9-1.7-2.7V406h-3v4.2
				c0,2.3-0.6,2.9-2.1,2.9h-0.4h-0.4h-1.9v-13.8h-3V413h-7.1v2.4h12.1h0.4h0.3c1.7,0,2.6-0.6,3.1-1.7c0.4,1.2,1.6,1.9,3.3,1.9
				c1.4,0,2.8-0.6,3.3-1.9c0.5,1.2,1.7,1.7,3.7,1.7h6.4h0.3h5.5v-16.2h-3V413z"/>
			<rect x="-127.1" y="399.2" class="st3" width="3" height="16.2"/>
			<path class="st3" d="M-105.4,402.8c0.9,0,1.5-0.7,1.5-1.6c0-0.9-0.7-1.6-1.5-1.6s-1.5,0.7-1.5,1.6
				C-106.9,402.1-106.2,402.8-105.4,402.8z"/>
			<path class="st3" d="M-109.2,402.8c0.9,0,1.5-0.7,1.5-1.6c0-0.9-0.7-1.6-1.5-1.6c-0.9,0-1.5,0.7-1.5,1.6
				C-110.7,402.1-110,402.8-109.2,402.8z"/>
			<path class="st3" d="M-93.8,399.5c-0.9,0-1.6,0.7-1.6,1.6c0,0.9,0.7,1.6,1.6,1.6c0.9,0,1.6-0.7,1.6-1.6S-92.9,399.5-93.8,399.5z"
				/>
			<path class="st3" d="M-95.3,413h-2.9h-0.4h-1.9v-8.4h-3v8.4h-3.1c-4.3,0-5.7-1.5-5.7-4.8c0-1.2,0.3-2.7,0.8-3.8l-3.2,0.5
				c-0.3,0.9-0.6,2.4-0.6,3.6c0,4.2,2.2,6.8,8.4,6.8h8.4h0.4h5.9v-10.8h-3V413z"/>
			<path class="st3" d="M-87.2,395.7c0-0.5,0.4-0.8,1.1-0.8c0.5,0,1,0.1,1.1,0.1l0.3-1.6c-0.2,0-0.7-0.1-1.4-0.1
				c-2.4,0-3.2,1.2-3.2,2.4c0,0.3,0.2,0.8,0.4,0.9c-0.3-0.1-0.8-0.1-1.4-0.1v1.6h5.9v-1.6h-1.3C-86.8,396.5-87.2,396.2-87.2,395.7z"
				/>
			<rect x="-88.6" y="399.6" class="st3" width="3" height="15.8"/>
			<path class="st3" d="M-31.2,413h-2.5H-34h-2v-13.8h-3V413h-2.5h-0.4h-1.4v-0.1c0-6.7-3.3-9.5-9-9.5c-1.8,0-3.9,0.4-5.6,0.9
				l0.3,2.1c1.5-0.5,3.4-0.8,4.9-0.8c4.6,0,6.5,2.3,6.5,7.1v0.3h-2.4v-0.6c0-2.7-1.2-4.7-4.2-4.7c-2.8,0-4.3,1.7-4.3,3.9
				c0,0.9,0.6,1.5,0.6,1.5s-0.4-0.1-1-0.1h-1.6h-0.3h-1.6v-3.4c0-3.2-1.6-5.3-5.2-5.3c-3.3,0-5.3,1.8-5.8,4.3h-0.5
				c-3.7,0-4.9,2.3-4.3,5.5l1.2,7.3h2.9l-1.2-7.5c-0.3-2.2,0-2.9,1.4-2.9h0.5c0.3,2.8,2,4.5,6.1,4.5h6.6h0.3h17.3h0.4h7.5h0.4h5.5
				v-16.2h-3V413z M-64,413h-1.7c-2.4,0-3.4-1.1-3.4-3.2c0-1.8,1-3.1,2.7-3.1c1.5,0,2.5,1,2.5,3.3V413z M-51,413.1h-1.4
				c-1.2,0-2.2-0.6-2.2-1.8c0-0.9,0.6-1.7,1.7-1.7c1.3,0,2,1.2,2,2.8V413.1z"/>
			<rect x="-24.2" y="399.2" class="st3" width="3" height="16.2"/>
			<polygon class="st3" points="-13.9,399.2 -13.5,405.1 -11.3,405.1 -10.9,399.2 			"/>
			<polygon class="st3" points="-17.9,405.1 -15.6,405.1 -15.3,399.2 -18.2,399.2 			"/>
		</g>
		<g>
			<path class="st0" d="M-2,408.8c-0.5,0-1,0.4-1,1c0,0.6,0.4,1,1,1c0.5,0,1-0.4,1-1C-1,409.3-1.5,408.8-2,408.8z"/>
			<circle class="st0" cx="-2" cy="414.5" r="1"/>
			<path class="st0" d="M18.3,414.2h-2H16h-1.4v-3c0-2.2-0.9-3.5-3.6-3.5c-1.5,0-2.9,0.3-2.9,0.3v6.2H6.8c-3.3,0-4.3-1.2-4.3-3.7
				c0-0.9,0.2-2,0.6-2.8l-1.6,0.3c-0.3,0.6-0.5,1.7-0.5,2.7c0,3,1.6,4.7,5.6,4.7h3V409c0,0,0.7-0.1,1.3-0.1c1.6,0,2.3,0.7,2.3,2.5v4
				H16h0.2h3.5v-11.3h-1.5V414.2z"/>
			<path class="st0" d="M39.8,404.7c-0.5,0-0.9,0.4-0.9,0.8c0,0.5,0.4,0.9,0.9,0.9c0.5,0,0.8-0.4,0.8-0.9
				C40.6,405,40.2,404.7,39.8,404.7z"/>
			<path class="st0" d="M38.1,414.2H36h-0.2h-0.7c-0.9,0-1.6-0.3-2.3-0.8c1.3-1,1.9-2.2,1.9-3.3c0-1.3-0.9-2.5-3.1-2.5
				c-1.6,0-3.4,1-4.6,1.9l-0.1,1c1.6,0.5,2.7,1.7,3.8,2.8c-1.1,0.5-2.6,0.8-4.4,0.8H26h-0.2h-1.5v-10.1h-1.5v11.3h3H26h0.2
				c2.2,0,4-0.5,5.4-1.2c0.9,0.7,1.9,1.2,3.2,1.2h0.9H36h3.6v-7.5h-1.5V414.2z M31.8,412.7c-1.1-1-2.1-2.1-3.5-2.7
				c0.7-0.5,2-1.3,3.1-1.3c1.2,0,1.8,0.7,1.8,1.6C33.2,411.2,32.7,412,31.8,412.7z"/>
			<path class="st0" d="M37.4,406.4c0.5,0,0.8-0.4,0.8-0.9c0-0.5-0.4-0.8-0.8-0.8c-0.5,0-0.8,0.4-0.8,0.8
				C36.6,406,36.9,406.4,37.4,406.4z"/>
			<path class="st0" d="M61.9,414.2h-2h-0.2h-1.5v-10.1h-1.5v10.1h-2h-0.2h-1.5v-6c0,0-1.5-0.6-3.2-0.6c-2.7,0-4,1.9-4,4
				c0,2.3,1.1,3.7,4.2,3.7h4.6h0.2h5h0.2h3.5v-11.3h-1.5V414.2z M51.4,414.2H50c-2.1,0-2.9-0.9-2.9-2.7c0-1.6,0.9-2.6,2.4-2.6
				c1.2,0,1.9,0.4,1.9,0.4V414.2z"/>
			<rect x="66.4" y="404.1" class="st0" width="1.5" height="11.3"/>
			<path class="st0" d="M85.6,411.3c0-1.6,1-2.5,2.4-2.5c1,0,1.9,0.4,1.9,0.4l0.3-1.2c0,0-1-0.4-2.1-0.4c-2.7,0-4,1.7-4,3.7
				c0,1.3,0.8,2.4,1.7,2.8H83h-0.2h-1.5v-6c0,0-1.5-0.6-3.2-0.6c-2.7,0-4,1.9-4,4c0,2.3,1.1,3.7,4.2,3.7h1.6v0.4
				c0,1.8-1.3,2.5-3.1,2.5c-1.2,0-2.6-0.3-2.6-0.3l-0.1,1.2c0,0,1.3,0.2,2.5,0.2c3.4,0,4.7-1.9,4.7-3.7v-0.3h1.5H83h8.2v-1.2h-1.3
				C86.9,414.2,85.6,412.9,85.6,411.3z M79.8,414.2h-1.4c-2.1,0-2.9-0.9-2.9-2.7c0-1.6,0.9-2.6,2.4-2.6c1.2,0,1.9,0.4,1.9,0.4V414.2
				z"/>
			<path class="st0" d="M94.3,407.5l-0.4,1.2c2.8,0.9,4,2.5,4,5.4h-5.1v1.2h6.6v-0.8C99.4,410.6,97.7,408.6,94.3,407.5z"/>
			<rect x="101.9" y="404.2" class="st0" width="1.5" height="11.1"/>
			<path class="st0" d="M103.6,402.3c-0.9,0-1.2-0.3-1.2-0.7c0-0.4,0.3-0.7,0.9-0.7c0.3,0,0.6,0,0.8,0.1l0.1-0.9
				c-0.2,0-0.5-0.1-0.9-0.1c-1.5,0-2,0.8-2,1.6c0,0.3,0.1,0.6,0.4,0.8c-0.3,0-0.7-0.1-1.1-0.1v0.8h3.9v-0.8H103.6z"/>
		</g>
		<g>
			<path class="st3" d="M-367.8,447.9c-1,0-1.9,0.9-1.9,1.9c0,1,0.9,1.9,1.9,1.9s1.9-0.8,1.9-1.9
				C-365.9,448.7-366.8,447.9-367.8,447.9z"/>
			<polygon class="st3" points="-359.1,441.1 -357,441.1 -356.6,435.2 -359.5,435.2 			"/>
			<polygon class="st3" points="-363.5,441.1 -361.3,441.1 -360.9,435.2 -363.9,435.2 			"/>
			<path class="st3" d="M-343.8,440.3c-3.3,0-5.3,1.8-5.8,4.3h-0.5c-3.7,0-4.9,2.3-4.3,5.5l1.2,7.3h2.9l-1.2-7.5
				c-0.3-2.2,0-2.9,1.4-2.9h0.5c0.3,2.8,2,4.5,6.1,4.5h5v-5.8C-338.6,442.3-340.2,440.3-343.8,440.3z M-341.6,449h-1.7
				c-2.4,0-3.4-1.1-3.4-3.2c0-1.8,1-3.1,2.7-3.1c1.5,0,2.5,1,2.5,3.3V449z"/>
			<rect x="-335.1" y="435.2" class="st3" width="3" height="16.2"/>
			<path class="st3" d="M-322.1,442.5c3.7,0.9,5.5,2.9,5.6,6.5h-6.5h-0.3h-1.9v-8.4h-3v11.1c0,2.5-0.9,3.2-2.5,3.2
				c-0.7,0-1.3-0.1-1.9-0.3l-0.3,2.4c0.6,0.1,1.2,0.2,1.9,0.2c4.7,0,5.7-2.8,5.7-5.7v-0.1h1.9h0.3h9.5v-1.5c0-5-2-7.5-5.1-8.9
				l5.6-3.4v-3l-9.1,5.7V442.5z"/>
			<path class="st3" d="M-307.1,455.2c0-0.4,0.4-0.7,1-0.7c0.5,0,0.9,0.1,1.1,0.1l0.3-1.7c-0.2,0-0.8-0.1-1.4-0.1
				c-2.2,0-3.2,1.1-3.2,2.4c0,0.3,0.1,0.6,0.3,0.8c-0.3-0.1-0.7-0.1-1.1-0.1v1.7h5.8v-1.7h-1.4
				C-306.7,455.9-307.1,455.6-307.1,455.2z"/>
			<polygon class="st3" points="-303.2,449 -310.4,449 -310.4,451.4 -300.2,451.4 -300.2,435.2 -303.2,435.2 			"/>
			<polygon class="st3" points="-304.9,447.3 -308.3,435 -311.3,435.4 -308,447.3 			"/>
			<rect x="-296.3" y="435.2" class="st3" width="3" height="16.2"/>
			<path class="st3" d="M-290.5,446c0,3.3,1.7,5.3,6.2,5.3h1.8v0.3c0,2.2-1.6,3.1-4,3.1c-1.8,0-3.6-0.4-3.6-0.4l-0.2,2.5
				c0,0,1.8,0.3,3.5,0.3c5.2,0,7.2-2.6,7.2-5.8v-10.3c0,0-2.1-0.8-4.8-0.8C-288.6,440.3-290.5,443-290.5,446z M-282.5,449h-1.5
				c-2.4,0-3.4-1.1-3.4-3.2c0-1.8,1-3.1,2.7-3.1c1.3,0,2.2,0.4,2.2,0.4V449z"/>
			<path class="st3" d="M-262.1,449.9c0,3.4-1.2,4.4-2.9,4.4c-1.6,0-3.2-0.9-3.2-4.4c0-1.4,0.2-2.9,0.6-4.4l-3.1,0.6
				c-0.4,1.3-0.6,2.8-0.6,4.1c0,4.6,2.3,6.5,5.9,6.5c3.9,0,6.2-2.2,6.2-7v-14.5h-3V449.9z"/>
			<polygon class="st3" points="-250.2,447.3 -253.5,435 -256.5,435.4 -253.2,447.3 			"/>
			<path class="st3" d="M-238.1,453.2c-0.9,0-1.6,0.7-1.6,1.6c0,0.9,0.7,1.6,1.6,1.6c0.9,0,1.6-0.7,1.6-1.6
				C-236.5,453.9-237.2,453.2-238.1,453.2z"/>
			<path class="st3" d="M-227.3,449h-2.5h-0.3h-1.5c0.1-0.7,0.1-1.3,0.1-1.9c0-4.4-2-6.7-7.2-6.7c-1,0-2,0.1-2.9,0.2v2.4
				c0.9-0.1,1.7-0.2,2.6-0.2c3.3,0,4.5,1.5,4.5,4.4c0,0.6,0,1.2-0.1,1.7h-8.5h-0.4h-1.9v-13.8h-3V449h-7.1v2.4h12.1h0.4h13h0.3h5.5
				v-16.2h-3V449z"/>
			<rect x="-220.3" y="435.2" class="st3" width="3" height="16.2"/>
			<rect x="-207.8" y="435.2" class="st3" width="3" height="16.2"/>
			<path class="st3" d="M-198.2,438.6c0.9,0,1.6-0.7,1.6-1.6s-0.7-1.6-1.6-1.6c-0.9,0-1.6,0.7-1.6,1.6
				C-199.8,437.9-199.1,438.6-198.2,438.6z"/>
			<path class="st3" d="M-199.6,440l-0.7,2.5c3.6,0.9,5.3,3,5.4,6.4h-6.8v2.4h9.8v-1.5C-191.9,444.2-194.6,441.3-199.6,440z"/>
			<path class="st3" d="M-172.5,453.3c-0.9,0-1.5,0.7-1.5,1.6c0,0.9,0.7,1.6,1.5,1.6s1.5-0.7,1.5-1.6
				C-171,454-171.6,453.3-172.5,453.3z"/>
			<polygon class="st3" points="-173.9,449 -177.9,449 -178.2,449 -180.2,449 -180.2,435.2 -183.2,435.2 -183.2,451.4 -178.2,451.4 
				-177.9,451.4 -170.9,451.4 -170.9,440.6 -173.9,440.6 			"/>
			<path class="st3" d="M-176.3,453.3c-0.9,0-1.5,0.7-1.5,1.6c0,0.9,0.7,1.6,1.5,1.6c0.9,0,1.5-0.7,1.5-1.6
				C-174.7,454-175.4,453.3-176.3,453.3z"/>
			<path class="st3" d="M-156.2,438.8c0.9,0,1.5-0.7,1.5-1.6c0-0.9-0.7-1.6-1.5-1.6c-0.9,0-1.5,0.7-1.5,1.6
				C-157.8,438.1-157.1,438.8-156.2,438.8z"/>
			<path class="st3" d="M-152.4,438.8c0.9,0,1.5-0.7,1.5-1.6c0-0.9-0.7-1.6-1.5-1.6s-1.5,0.7-1.5,1.6
				C-153.9,438.1-153.3,438.8-152.4,438.8z"/>
			<path class="st3" d="M-143.6,453.3c-0.9,0-1.5,0.7-1.5,1.6c0,0.9,0.7,1.6,1.5,1.6c0.9,0,1.5-0.7,1.5-1.6
				C-142.1,454-142.8,453.3-143.6,453.3z"/>
			<path class="st3" d="M-139.8,453.3c-0.9,0-1.5,0.7-1.5,1.6c0,0.9,0.7,1.6,1.5,1.6c0.9,0,1.5-0.7,1.5-1.6
				C-138.3,454-139,453.3-139.8,453.3z"/>
			<path class="st3" d="M-133.5,449h-2.5h-0.4h-1.9v-8.4h-3v8.4h-4h-0.4h-1.9v-8.4h-3v8.4h-3.1c-4.3,0-5.7-1.5-5.7-4.8
				c0-1.2,0.3-2.7,0.8-3.8l-3.2,0.5c-0.3,0.9-0.6,2.4-0.6,3.6c0,4.2,2.2,6.8,8.4,6.8h8.4h0.4h8.9h0.4h5.5v-16.2h-3V449z"/>
			<path class="st3" d="M-104.7,438.8c0.9,0,1.5-0.7,1.5-1.6c0-0.9-0.7-1.6-1.5-1.6c-0.9,0-1.5,0.7-1.5,1.6
				C-106.2,438.1-105.5,438.8-104.7,438.8z"/>
			<path class="st3" d="M-103.8,449h-2.9h-0.3h-1.2c-1,0-1.8-0.2-2.6-0.6c1.5-1.3,2.3-2.9,2.3-4.4c0-2-1.4-3.8-4.9-3.8
				c-2.3,0-4.8,1.2-6.6,2.6l-0.3,2.2c2,0.6,3.4,2,4.8,3.4c-1.4,0.5-3.2,0.7-5.4,0.7h-0.5h-0.3h-2v-13.8h-3v16.2h5h0.3h0.3
				c3.1,0,5.6-0.6,7.6-1.4c1.2,0.8,2.7,1.4,4.7,1.4h1.5h0.3h5.9v-10.8h-3V449z M-112.9,447c-1.4-1.2-2.7-2.5-4.3-3.2
				c0.8-0.6,2.3-1.4,3.5-1.4c1.5,0,2.2,0.9,2.2,1.9C-111.5,445.3-111.9,446.2-112.9,447z"/>
			<path class="st3" d="M-100.9,435.7c-0.9,0-1.5,0.7-1.5,1.6c0,0.9,0.7,1.6,1.5,1.6c0.9,0,1.5-0.7,1.5-1.6
				C-99.3,436.4-100,435.7-100.9,435.7z"/>
			<path class="st3" d="M-98.2,446c0,3.3,1.7,5.3,6.2,5.3h1.8v0.3c0,2.2-1.6,3.1-4,3.1c-1.8,0-3.6-0.4-3.6-0.4l-0.2,2.5
				c0,0,1.8,0.3,3.5,0.3c5.2,0,7.2-2.6,7.2-5.8v-10.3c0,0-2.1-0.8-4.8-0.8C-96.4,440.3-98.2,443-98.2,446z M-90.3,449h-1.5
				c-2.4,0-3.4-1.1-3.4-3.2c0-1.8,1-3.1,2.7-3.1c1.3,0,2.2,0.4,2.2,0.4V449z"/>
			<path class="st3" d="M-72.7,438.8c0.9,0,1.5-0.7,1.5-1.6c0-0.9-0.7-1.6-1.5-1.6c-0.9,0-1.5,0.7-1.5,1.6
				C-74.2,438.1-73.5,438.8-72.7,438.8z"/>
			<path class="st3" d="M-68.9,438.8c0.9,0,1.5-0.7,1.5-1.6c0-0.9-0.7-1.6-1.5-1.6s-1.5,0.7-1.5,1.6
				C-70.4,438.1-69.7,438.8-68.9,438.8z"/>
			<path class="st3" d="M-60.8,442.5c3.7,0.9,5.5,2.9,5.6,6.5h-6.5H-62h-1.9v-8.4h-3v8.4h-3.1c-4.3,0-5.7-1.5-5.7-4.8
				c0-1.2,0.3-2.7,0.8-3.8l-3.2,0.5c-0.3,0.9-0.6,2.4-0.6,3.6c0,4.2,2.2,6.8,8.4,6.8h8.4h0.4h9.4v-1.5c0-5-2-7.5-5.1-8.9l5.6-3.4v-3
				l-9.1,5.7V442.5z"/>
			<path class="st3" d="M-46.4,451.6c0,2.5-0.9,3.2-2.5,3.2c-0.7,0-1.3-0.1-1.9-0.3l-0.3,2.4c0.6,0.1,1.2,0.2,1.9,0.2
				c4.7,0,5.7-2.8,5.7-5.7v-10.9h-3V451.6z"/>
			<path class="st3" d="M-31.6,453.2c-0.9,0-1.6,0.7-1.6,1.6c0,0.9,0.7,1.6,1.6,1.6s1.6-0.7,1.6-1.6
				C-30.1,453.9-30.8,453.2-31.6,453.2z"/>
			<path class="st3" d="M-24.1,438.8c0.9,0,1.5-0.7,1.5-1.6c0-0.9-0.7-1.6-1.5-1.6c-0.9,0-1.5,0.7-1.5,1.6
				C-25.6,438.1-25,438.8-24.1,438.8z"/>
			<polygon class="st3" points="-23.3,449 -26.2,449 -26.5,449 -28.4,449 -28.4,440.6 -31.5,440.6 -31.5,449 -34.3,449 -34.7,449 
				-36.6,449 -36.6,435.2 -39.7,435.2 -39.7,451.4 -34.7,451.4 -34.3,451.4 -26.5,451.4 -26.2,451.4 -20.3,451.4 -20.3,440.6 
				-23.3,440.6 			"/>
			<path class="st3" d="M-20.3,435.7c-0.9,0-1.5,0.7-1.5,1.6c0,0.9,0.7,1.6,1.5,1.6c0.9,0,1.5-0.7,1.5-1.6
				C-18.8,436.4-19.5,435.7-20.3,435.7z"/>
		</g>
	</g>
</g>
<g class="st1">
	<g class="st2">
		<g>
			<path class="st3" d="M-308.3,478.2h-1.3c-1.2,0-1.6-0.4-1.6-0.9c0-0.5,0.4-0.8,1.1-0.8c0.5,0,1,0.1,1.1,0.1l0.3-1.7
				c-0.2,0-0.7-0.1-1.4-0.1c-2.4,0-3.3,1.3-3.3,2.6c0,0.3,0.2,0.8,0.4,0.9c-0.3-0.1-0.8-0.1-1.3-0.1v1.7h5.9V478.2z"/>
			<path class="st3" d="M-306.4,487h-4.8c-4.3,0-5.7-1.5-5.7-4.8c0-1.2,0.3-2.7,0.8-3.8l-3.2,0.5c-0.3,0.9-0.6,2.4-0.6,3.6
				c0,4.2,2.2,6.8,8.4,6.8h8.2v-16.2h-3V487z"/>
			<path class="st3" d="M-265.8,478.1c0.4,1.7,0.7,3.9,0.7,6.2c0,0.7-0.1,1.8-0.2,2.8h-0.8c-2,0-2.5-0.6-2.5-2.6V479h-2.9v5.5
				c0,1.7-0.4,2.6-1.7,2.6c-1.4,0-1.7-0.9-1.7-2.7v-4.6h-3v4.2c0,2.3-0.6,2.9-2.1,2.9h-0.4h-0.3h-1.5c-0.2-4.4-2.2-6.7-5.1-8
				l5.6-3.4v-3l-9.1,5.7v2.2c3.7,0.9,5.5,2.9,5.6,6.5h-6.5h-0.3h-1.9v-8.4h-3v11.1c0,2.5-0.9,3.2-2.5,3.2c-0.7,0-1.3-0.1-1.9-0.3
				l-0.3,2.4c0.6,0.1,1.2,0.2,1.9,0.2c4.7,0,5.7-2.8,5.7-5.7v-0.1h1.9h0.3h11h0.3h0.4c1.7,0,2.6-0.6,3.1-1.7
				c0.4,1.2,1.6,1.9,3.3,1.9c1.4,0,2.8-0.6,3.3-1.9c0.5,1.2,1.7,1.7,3.7,1.7h4.3c0.2-1.6,0.3-3.7,0.3-5.4c0-2.3-0.3-4.5-0.7-6.4
				L-265.8,478.1z"/>
			<path class="st3" d="M-269.8,475.3c0,0.9,0.7,1.6,1.5,1.6c0.9,0,1.5-0.7,1.5-1.6c0-0.9-0.7-1.6-1.5-1.6
				C-269.1,473.7-269.8,474.4-269.8,475.3z"/>
			<path class="st3" d="M-272.1,476.8c0.9,0,1.5-0.7,1.5-1.6c0-0.9-0.7-1.6-1.5-1.6c-0.9,0-1.5,0.7-1.5,1.6
				C-273.6,476.1-272.9,476.8-272.1,476.8z"/>
			<path class="st3" d="M-270.2,473.6c0.8,0,1.4-0.6,1.4-1.4s-0.6-1.4-1.4-1.4c-0.8,0-1.4,0.6-1.4,1.4S-271,473.6-270.2,473.6z"/>
			<path class="st3" d="M-259.6,484c0,3.3,1.7,5.3,6.2,5.3h1.8v0.3c0,2.2-1.6,3.1-4,3.1c-1.8,0-3.6-0.4-3.6-0.4l-0.2,2.5
				c0,0,1.8,0.3,3.5,0.3c5.2,0,7.2-2.6,7.2-5.8v-10.3c0,0-2.1-0.8-4.8-0.8C-257.7,478.3-259.6,481-259.6,484z M-251.7,487h-1.5
				c-2.4,0-3.4-1.1-3.4-3.2c0-1.8,1-3.1,2.7-3.1c1.3,0,2.2,0.4,2.2,0.4V487z"/>
			<path class="st3" d="M-226.7,487h-4.8c-4.3,0-5.7-1.5-5.7-4.8c0-1.2,0.3-2.7,0.8-3.8l-3.2,0.5c-0.3,0.9-0.6,2.4-0.6,3.6
				c0,4.2,2.2,6.8,8.4,6.8h8.2v-16.2h-3V487z"/>
			<path class="st3" d="M-228.5,478.2h-1.3c-1.2,0-1.6-0.4-1.6-0.9c0-0.5,0.4-0.8,1.1-0.8c0.5,0,1,0.1,1.1,0.1l0.3-1.7
				c-0.2,0-0.7-0.1-1.4-0.1c-2.4,0-3.3,1.3-3.3,2.6c0,0.3,0.2,0.8,0.4,0.9c-0.3-0.1-0.8-0.1-1.3-0.1v1.7h5.9V478.2z"/>
			<path class="st3" d="M-211.1,480.5c3.7,0.9,5.5,2.9,5.6,6.5h-6.5h-0.3h-1.9v-8.4h-3v11.1c0,2.5-0.9,3.2-2.5,3.2
				c-0.7,0-1.3-0.1-1.9-0.3l-0.3,2.4c0.6,0.1,1.2,0.2,1.9,0.2c4.7,0,5.7-2.8,5.7-5.7v-0.1h1.9h0.3h9.5v-1.5c0-5-2-7.5-5.1-8.9
				l5.6-3.4v-3l-9.1,5.7V480.5z"/>
			<path class="st3" d="M-196.5,476.6c0.9,0,1.6-0.7,1.6-1.6s-0.7-1.6-1.6-1.6c-0.9,0-1.6,0.7-1.6,1.6
				C-198.1,475.9-197.4,476.6-196.5,476.6z"/>
			<path class="st3" d="M-197.9,478l-0.7,2.5c3.6,0.9,5.3,3,5.4,6.4h-6.8v2.4h9.8v-1.5C-190.2,482.2-192.9,479.3-197.9,478z"/>
			<path class="st3" d="M-147.8,483.6c0-1.8,1.2-2.9,2.9-2.9c1.3,0,2.4,0.5,2.4,0.5l0.5-2.4c0,0-1.3-0.4-2.9-0.4c-4.1,0-6,2.4-6,5.3
				c0,1.5,0.8,2.8,1.8,3.4h-3.2h-0.4h-2v-13.8h-3V487h-2.5h-0.3h-1.6v-3.6c0-3.2-1.3-5.1-5.3-5.1c-2.5,0-4.6,0.4-4.6,0.4v8.3h-1.6
				c-4.3,0-5.7-1.5-5.7-4.8c0-1.2,0.3-2.7,0.8-3.8l-3.2,0.5c-0.3,0.9-0.6,2.4-0.6,3.6c0,4.2,2.2,6.8,8.4,6.8h4.8v-8.6
				c0,0,0.8-0.1,1.5-0.1c1.9,0,2.6,0.8,2.6,3v5.7h4.5h0.3h7.5h0.4h11.4V487h-1.8C-146.2,487-147.8,485.5-147.8,483.6z"/>
			<path class="st3" d="M-123.5,491.3c-0.9,0-1.5,0.7-1.5,1.6c0,0.9,0.7,1.6,1.5,1.6s1.5-0.7,1.5-1.6
				C-121.9,491.9-122.6,491.3-123.5,491.3z"/>
			<path class="st3" d="M-127.3,491.3c-0.9,0-1.5,0.7-1.5,1.6c0,0.9,0.7,1.6,1.5,1.6c0.9,0,1.5-0.7,1.5-1.6
				C-125.7,491.9-126.4,491.3-127.3,491.3z"/>
			<path class="st3" d="M-106.6,476.6c0.9,0,1.6-0.7,1.6-1.6s-0.7-1.6-1.6-1.6c-0.9,0-1.6,0.7-1.6,1.6
				C-108.2,475.9-107.5,476.6-106.6,476.6z"/>
			<path class="st3" d="M-98.4,483.6c0-1.8,1.2-2.9,2.9-2.9c1.3,0,2.4,0.5,2.4,0.5l0.5-2.4c0,0-1.3-0.4-2.9-0.4c-4.1,0-6,2.4-6,5.3
				c0,1.5,0.8,2.8,1.8,3.4h-3.2h-0.3h-1.9v-8.4h-3v8.4h-2.9h-0.3h-1.6v-3.6c0-3.2-1.3-5.1-5.3-5.1c-2.5,0-4.6,0.4-4.6,0.4v8.3h-1.6
				c-4.3,0-5.7-1.5-5.7-4.8c0-1.2,0.3-2.7,0.8-3.8l-3.2,0.5c-0.3,0.9-0.6,2.4-0.6,3.6c0,4.2,2.2,6.8,8.4,6.8h4.8v-8.6
				c0,0,0.8-0.1,1.5-0.1c1.9,0,2.6,0.8,2.6,3v5.7h4.5h0.3h7.8h0.3h11.5V487h-1.8C-96.8,487-98.4,485.5-98.4,483.6z"/>
			<rect x="-88.6" y="473.6" class="st3" width="3" height="15.8"/>
			<path class="st3" d="M-87.2,469.7c0-0.5,0.4-0.8,1.1-0.8c0.5,0,1,0.1,1.1,0.1l0.3-1.6c-0.2,0-0.7-0.1-1.4-0.1
				c-2.4,0-3.2,1.2-3.2,2.4c0,0.3,0.2,0.8,0.4,0.9c-0.3-0.1-0.8-0.1-1.4-0.1v1.6h5.9v-1.6h-1.3C-86.8,470.5-87.2,470.2-87.2,469.7z"
				/>
			<path class="st3" d="M-31.2,487h-2.5H-34h-2v-13.8h-3V487h-2.5h-0.4h-1.4v-0.1c0-6.7-3.3-9.5-9-9.5c-1.8,0-3.9,0.4-5.6,0.9
				l0.3,2.1c1.5-0.5,3.4-0.8,4.9-0.8c4.6,0,6.5,2.3,6.5,7.1v0.3h-2.4v-0.6c0-2.7-1.2-4.7-4.2-4.7c-2.8,0-4.3,1.7-4.3,3.9
				c0,0.9,0.6,1.5,0.6,1.5s-0.4-0.1-1-0.1h-1.6h-0.3h-1.6v-3.4c0-3.2-1.6-5.3-5.2-5.3c-3.3,0-5.3,1.8-5.8,4.3h-0.5
				c-3.7,0-4.9,2.3-4.3,5.5l1.2,7.3h2.9l-1.2-7.5c-0.3-2.2,0-2.9,1.4-2.9h0.5c0.3,2.8,2,4.5,6.1,4.5h6.6h0.3h17.3h0.4h7.5h0.4h5.5
				v-16.2h-3V487z M-64,487h-1.7c-2.4,0-3.4-1.1-3.4-3.2c0-1.8,1-3.1,2.7-3.1c1.5,0,2.5,1,2.5,3.3V487z M-51,487.1h-1.4
				c-1.2,0-2.2-0.6-2.2-1.8c0-0.9,0.6-1.7,1.7-1.7c1.3,0,2,1.2,2,2.8V487.1z"/>
			<rect x="-24.2" y="473.2" class="st3" width="3" height="16.2"/>
			<polygon class="st3" points="-17.9,479.1 -15.6,479.1 -15.3,473.2 -18.2,473.2 			"/>
			<polygon class="st3" points="-13.9,473.2 -13.5,479.1 -11.3,479.1 -10.9,473.2 			"/>
		</g>
		<g>
			<circle class="st0" cx="-2" cy="488.5" r="1"/>
			<path class="st0" d="M-2,482.8c-0.5,0-1,0.4-1,1c0,0.6,0.4,1,1,1c0.5,0,1-0.4,1-1C-1,483.3-1.5,482.8-2,482.8z"/>
			<path class="st0" d="M18.3,488.2h-2H16h-1.4v-3c0-2.2-0.9-3.5-3.6-3.5c-1.5,0-2.9,0.3-2.9,0.3v6.2H6.8c-3.3,0-4.3-1.2-4.3-3.7
				c0-0.9,0.2-2,0.6-2.8l-1.6,0.3c-0.3,0.6-0.5,1.7-0.5,2.7c0,3,1.6,4.7,5.6,4.7h3V483c0,0,0.7-0.1,1.3-0.1c1.6,0,2.3,0.7,2.3,2.5v4
				H16h0.2h3.5v-11.3h-1.5V488.2z"/>
			<path class="st0" d="M38.1,488.2H36h-0.2H35c-0.9,0-1.6-0.3-2.3-0.8c1.3-1,1.9-2.2,1.9-3.3c0-1.3-0.9-2.5-3.1-2.5
				c-1.6,0-3.4,1-4.6,1.9l-0.1,1c1.6,0.5,2.7,1.7,3.8,2.8c-1.1,0.5-2.6,0.8-4.4,0.8H26h-0.2h-1.5v-10.1h-1.5v11.3h3H26h0.2
				c2.2,0,4-0.5,5.4-1.2c0.9,0.7,1.9,1.2,3.2,1.2h0.9H36h3.6v-7.5h-1.5V488.2z M31.8,486.7c-1.1-1-2.1-2.1-3.5-2.7
				c0.7-0.5,2-1.3,3.1-1.3c1.2,0,1.8,0.7,1.8,1.6C33.2,485.1,32.7,486,31.8,486.7z"/>
			<path class="st0" d="M39.8,478.7c-0.5,0-0.9,0.4-0.9,0.8c0,0.5,0.4,0.9,0.9,0.9c0.5,0,0.8-0.4,0.8-0.9
				C40.6,479,40.2,478.7,39.8,478.7z"/>
			<path class="st0" d="M37.4,480.4c0.5,0,0.8-0.4,0.8-0.9c0-0.5-0.4-0.8-0.8-0.8c-0.5,0-0.8,0.4-0.8,0.8
				C36.6,480,36.9,480.4,37.4,480.4z"/>
			<path class="st0" d="M61.9,488.2h-2h-0.2h-1.5v-10.1h-1.5v10.1h-2h-0.2h-1.5v-6c0,0-1.5-0.6-3.2-0.6c-2.7,0-4,1.9-4,4
				c0,2.3,1.1,3.7,4.2,3.7h4.6h0.2h5h0.2h3.5v-11.3h-1.5V488.2z M51.4,488.2H50c-2.1,0-2.9-0.9-2.9-2.7c0-1.6,0.9-2.6,2.4-2.6
				c1.2,0,1.9,0.4,1.9,0.4V488.2z"/>
			<rect x="66.4" y="478.1" class="st0" width="1.5" height="11.3"/>
			<path class="st0" d="M85.6,485.3c0-1.6,1-2.5,2.4-2.5c1,0,1.9,0.4,1.9,0.4l0.3-1.2c0,0-1-0.4-2.1-0.4c-2.7,0-4,1.7-4,3.7
				c0,1.3,0.8,2.4,1.7,2.8H83h-0.2h-1.5v-6c0,0-1.5-0.6-3.2-0.6c-2.7,0-4,1.9-4,4c0,2.3,1.1,3.7,4.2,3.7h1.6v0.4
				c0,1.8-1.3,2.5-3.1,2.5c-1.2,0-2.6-0.3-2.6-0.3l-0.1,1.2c0,0,1.3,0.2,2.5,0.2c3.4,0,4.7-1.9,4.7-3.7v-0.3h1.5H83h8.2v-1.2h-1.3
				C86.9,488.2,85.6,486.9,85.6,485.3z M79.8,488.2h-1.4c-2.1,0-2.9-0.9-2.9-2.7c0-1.6,0.9-2.6,2.4-2.6c1.2,0,1.9,0.4,1.9,0.4V488.2
				z"/>
			<path class="st0" d="M94.3,481.5l-0.4,1.2c2.8,0.9,4,2.5,4,5.4h-5.1v1.2h6.6v-0.8C99.4,484.6,97.7,482.6,94.3,481.5z"/>
			<rect x="101.9" y="478.2" class="st0" width="1.5" height="11.1"/>
			<path class="st0" d="M103.6,476.2c-0.9,0-1.2-0.3-1.2-0.7c0-0.4,0.3-0.7,0.9-0.7c0.3,0,0.6,0,0.8,0.1l0.1-0.9
				c-0.2,0-0.5-0.1-0.9-0.1c-1.5,0-2,0.8-2,1.6c0,0.3,0.1,0.6,0.4,0.8c-0.3,0-0.7-0.1-1.1-0.1v0.8h3.9v-0.8H103.6z"/>
		</g>
		<g>
			<path class="st3" d="M-166.7,521.9c-1,0-1.9,0.9-1.9,1.9c0,1,0.9,1.9,1.9,1.9c1,0,1.9-0.8,1.9-1.9
				C-164.8,522.7-165.7,521.9-166.7,521.9z"/>
			<polygon class="st3" points="-158,515.1 -155.8,515.1 -155.4,509.2 -158.4,509.2 			"/>
			<polygon class="st3" points="-162.4,515.1 -160.1,515.1 -159.8,509.2 -162.7,509.2 			"/>
			<path class="st3" d="M-141.6,514.2h-1.3c-1.2,0-1.6-0.4-1.6-0.9c0-0.5,0.4-0.8,1.1-0.8c0.5,0,1,0.1,1.1,0.1l0.3-1.7
				c-0.2,0-0.7-0.1-1.4-0.1c-2.4,0-3.3,1.3-3.3,2.6c0,0.3,0.2,0.8,0.4,0.9c-0.3-0.1-0.8-0.1-1.3-0.1v1.7h5.9V514.2z"/>
			<path class="st3" d="M-132.3,512.8c0.9,0,1.5-0.7,1.5-1.6c0-0.9-0.7-1.6-1.5-1.6c-0.9,0-1.5,0.7-1.5,1.6
				C-133.8,512.1-133.2,512.8-132.3,512.8z"/>
			<path class="st3" d="M-131.5,523h-2.9h-0.4h-2v-13.8h-3V523h-4.8c-4.3,0-5.7-1.5-5.7-4.8c0-1.2,0.3-2.7,0.8-3.8l-3.2,0.5
				c-0.3,0.9-0.6,2.4-0.6,3.6c0,4.2,2.2,6.8,8.4,6.8h10.1h0.4h5.9v-10.8h-3V523z"/>
			<path class="st3" d="M-128.5,509.7c-0.9,0-1.5,0.7-1.5,1.6c0,0.9,0.7,1.6,1.5,1.6c0.9,0,1.5-0.7,1.5-1.6
				C-127,510.4-127.6,509.7-128.5,509.7z"/>
			<path class="st3" d="M-123.6,514l-0.7,2.5c3.6,0.9,5.3,3,5.4,6.4h-6.8v2.4h9.8v-1.5C-115.9,518.2-118.6,515.3-123.6,514z"/>
			<path class="st3" d="M-104.8,527.2c-0.9,0-1.6,0.7-1.6,1.6c0,0.9,0.7,1.6,1.6,1.6s1.6-0.7,1.6-1.6
				C-103.2,527.9-103.9,527.2-104.8,527.2z"/>
			<path class="st3" d="M-94.9,519.6c0-1.8,1.2-2.9,2.9-2.9c1.3,0,2.4,0.5,2.4,0.5l0.5-2.4c0,0-1.3-0.4-2.9-0.4c-4.1,0-6,2.4-6,5.3
				c0,1.5,0.8,2.8,1.8,3.4h-3.2h-0.3h-1.9v-8.4h-3v8.4h-2.9h-0.3h-2v-13.8h-3v16.2h5h0.3h7.8h0.3h11.5V523h-1.8
				C-93.3,523-94.9,521.5-94.9,519.6z"/>
			<path class="st3" d="M-74.3,517.4c0.9,0,1.6-0.7,1.6-1.6c0-0.9-0.7-1.6-1.6-1.6s-1.6,0.7-1.6,1.6
				C-75.9,516.7-75.1,517.4-74.3,517.4z"/>
			<path class="st3" d="M-40.5,514.4c-1,0-2,0.1-2.9,0.2v2.4c0.9-0.1,1.7-0.2,2.6-0.2c3.3,0,4.5,1.5,4.5,4.4c0,0.6,0,1.2-0.1,1.7
				H-45h-0.3h-1.9c0.1-1,0.1-2,0.1-3c0-2.3-0.3-4.5-0.7-6.4l-3,0.4c0.4,1.7,0.7,3.9,0.7,6.2c0,0.7-0.1,1.8-0.2,2.8h-0.8
				c-2,0-2.5-0.6-2.5-2.6V515h-2.9v5.5c0,1.7-0.4,2.6-1.7,2.6c-1.4,0-1.7-0.9-1.7-2.7v-4.6h-3v4.2c0,2.3-0.6,2.9-2.1,2.9h-0.4h-0.3
				h-1.9v-8.4h-3v9.4c0,3.3-1.2,4.4-3.2,4.4c-1.6,0-3.3-0.9-3.3-4.4c0-1.4,0.2-2.9,0.6-4.4l-3.1,0.6c-0.4,1.3-0.6,2.8-0.6,4.1
				c0,4.6,2.4,6.5,6.1,6.5c3.8,0,5.9-1.8,6.4-5.3h2h0.3h0.4c1.7,0,2.6-0.6,3.1-1.7c0.4,1.2,1.6,1.9,3.3,1.9c1.4,0,2.8-0.6,3.3-1.9
				c0.5,1.2,1.7,1.7,3.7,1.7h6.4h0.3h11.3c0.3-1.7,0.4-3.1,0.4-4.3C-33.3,516.7-35.3,514.4-40.5,514.4z"/>
			<path class="st3" d="M-25.1,514.3c-4.2,0-6.1,2.8-6.1,5.8c0,3.3,1.7,5.3,6.2,5.3h1.8v0.3c0,2.2-1.6,3.1-4,3.1
				c-1.8,0-3.6-0.4-3.6-0.4l-0.2,2.5c0,0,1.8,0.3,3.5,0.3c5.2,0,7.2-2.6,7.2-5.8v-10.3C-20.3,515.1-22.4,514.3-25.1,514.3z
				 M-23.2,523h-1.5c-2.4,0-3.4-1.1-3.4-3.2c0-1.8,1-3.1,2.7-3.1c1.3,0,2.2,0.4,2.2,0.4V523z"/>
		</g>
	</g>
</g>
<g class="st1">
	<circle class="st4" cx="129.4" cy="408.9" r="12"/>
	<g class="st2">
		<g>
			<path class="st0" d="M127.7,415.5c-0.7,0-1.5-0.1-2.1-0.2l0.3-2.4c0.5,0.2,1.2,0.3,2,0.3c1.9,0,3-1,3-2.3c0-1.4-1.1-2.1-3.4-2.1
				c-0.5,0-0.9,0-1.3,0.1v-7.5h6.9v2.5l-4.4,0v2.8c3.3,0,5.1,1.5,5.1,4C133.6,413.6,131.2,415.5,127.7,415.5z"/>
		</g>
	</g>
</g>
<g class="st1">
	<circle class="st4" cx="129.4" cy="484.2" r="12"/>
	<g class="st2">
		<g>
			<path class="st0" d="M129.5,490.9c-3.5,0-4.9-2.8-4.9-6.1c0-5.6,3.2-8.3,7.2-8.3c0.7,0,1.2,0,1.6,0.1v2.4
				c-0.6-0.1-1.1-0.2-1.7-0.2c-2.1,0-3.6,1-4.2,3.4c-0.1,0.3-0.1,0.5-0.2,0.7l0,0c0.6-0.6,1.7-1.1,3-1.1c2.7,0,4.3,1.7,4.3,4.2
				C134.8,488.9,132.6,490.9,129.5,490.9z M129.8,483.9c-1.4,0-2.3,1-2.3,2.2c0,1.6,0.8,2.6,2.2,2.6c1.4,0,2.2-1,2.2-2.4
				C132,484.8,131.2,483.9,129.8,483.9z"/>
		</g>
	</g>
</g>
<g id="Star_-_Orange">
</g>
</svg>
