<?xml version="1.0" encoding="utf-8"?>
<!-- Generator: Adobe Illustrator 21.1.0, SVG Export Plug-In . SVG Version: 6.00 Build 0)  -->
<svg version="1.1" id="Layer_1" xmlns="http://www.w3.org/2000/svg" xmlns:xlink="http://www.w3.org/1999/xlink" x="0px" y="0px"
	 viewBox="0 0 382.2 334.7" style="enable-background:new 0 0 382.2 334.7;" xml:space="preserve">
<style type="text/css">
	.st0{fill:#019147;}
	.st1{fill:#FFDE4C;}
	.st2{opacity:0.4;fill:#028142;}
	.st3{fill:#66BFEB;}
	.st4{fill:#A3CD3A;}
	.st5{fill:#FFFFFF;}
	.st6{fill:#FFE6BD;}
	.st7{fill:#231F20;}
	.st8{fill:#693B17;}
	.st9{fill:#F7CC98;}
	.st10{fill:#D2DDE1;}
	.st11{fill:#8CB33E;}
	.st12{fill:#868B8D;}
	.st13{fill:#8E4C2B;}
	.st14{fill:#4E6430;}
	.st15{fill:#DAE1F2;}
	.st16{fill:#FCCFB7;}
	.st17{fill:#4CA7D3;}
	.st18{fill:#285779;}
	.st19{fill:none;stroke:#4E6430;stroke-width:0.4;stroke-miterlimit:10;}
</style>
<g>
	<g>
		<g>
			<g id="XMLID_137_">
				<g>
					<path class="st0" d="M258.3,206l107.3,10.1c0,0-17.2,16.5-29.1,26c-13.5,9.8-58.8,9.8-58.8,9.8
						c-24.8,33.7-105.4,29.7-105.4,29.7c-16.2-6.7-18.1-13.2-11-20.5c8.9-8.6,42.6-18.1,42.6-18.1c-21.1-9.2-6.4-14.4-3.7-15.9
						C202.8,225.6,258.3,206,258.3,206z"/>
					<path class="st1" d="M365.6,216.1L258.3,206c0,0-55.5,19.6-58.2,21.2c-2.7,1.5-17.5,6.7,3.7,15.9c0,0-33.7,9.5-42.6,18.1
						c-7,7.4-5.2,13.8,11,20.5c0,0,80.6,4,105.4-29.7c0,0,45.4,0,58.8-9.8C348.4,232.7,365.6,216.1,365.6,216.1z M258.3,204.6
						l113,10.4l-91.6,92L60.9,272.1L258.3,204.6z"/>
					<path class="st0" d="M371.3,215l-113-10.4L60.9,272.1l218.7,34.8L371.3,215z M269.7,203.1l4.1-2l1.6,0.1l-3.1,2.2h1.4l3.5-2.1
						h1.7l-3.5,2.3c0,0,1.1,0,1.3,0c0.1,0,3.8-2,3.8-2l1.9,0.2l-3.7,2.1l1.3,0.1l3.6-1.9l2.3,0.1c0,0-3.9,2.2-3.8,2.2
						c0.1,0,1.3,0.1,1.3,0.1l3.8-2.2l2.5,0.2l-3.8,2.2h1.5l3.4-2c0,0,1.8,0.1,1.9,0.1c0,0-3,2.1-3,2.1l1.5,0l3-1.9c0,0,2.2,0,2.3,0
						s-3.3,2-3.3,2l1.2,0.1l3.6-1.9l2,0.2c0,0-3.5,2-3.3,2c0.1,0,1.5,0,1.5,0l3.2-1.7l2,0.2l-2.9,1.9l1.1,0.1l3.3-1.8h2.3l-3.7,2
						l1.8,0l3.3-1.6l2,0l-2.9,1.9l1.6,0.1l3-1.7l2.1,0.1l-3,1.9l1.4,0l3-1.7l2.2,0.1c0,0-3.2,2-2.9,2c0.2,0,1.4,0,1.4,0l3-1.9l2,0.2
						l-2.9,1.8h1.8l2.3-1.5l2.5,0.1l-3.1,1.8l1.5,0l3.1-1.8l2.1,0.1c0,0-3.1,2.2-3,2.2c0.1,0,1.2,0,1.2,0l2.9-1.8l2.5-0.1
						c0,0-2.8,2.1-2.7,2.1c0.1,0,1.4,0.1,1.4,0.1l2.8-1.8l2.6,0.1l-2.8,1.8l1.5,0l2.7-1.8l2.5,0.3c0,0-3.1,1.9-2.9,1.9
						c0.1,0,1.5,0.1,1.5,0.1l2.5-1.8h2.4l-2.8,2.1l1.3,0.2l2.8-2l2.3,0.1l-2.5,2l1.6,0.1l2.3-1.8l2.3,0c0,0-2.5,2-2.4,2
						c0.1,0,1.6,0,1.6,0l2.2-1.9l2.3,0.2l-2.2,2l1.5,0l2.2-1.8h2.5l-2.1,2.1l1.3-0.1l2.3-1.8l2.1,0.1c0,0-2.2,2.2-2.1,2.2
						c0.1,0,1.6,0,1.6,0l2.1-1.8h2.2l-2,2l1.6-0.1c0,0,2.1-1.7,2.3-1.7s2.4,0.2,2.4,0.2l-2.3,2.3l1.7-0.1l1.9-1.8l2.2,0.1l-1.8,2.2
						l1.4,0l1.9-1.8l2.1,0.1l-1.6,1.9l1.8,0.2l1.4-1.7l3.1,0.2l-99.8,112.3l-1.6-0.3l-11.1,11.4c0,0-5.6-0.8-5.8-0.8
						c0.1,0,10.8-11.5,10.8-11.5s-3.8-1-3.7-0.8c0,0.1-11.5,11.6-11.5,11.6c-0.2,0-5.3-1.2-5.3-1.2s11.4-11.2,11.2-11.2
						c-0.3,0-3.9-0.8-4.4-0.5c-0.5,0.3-11,11-11.1,11s-5.2-1.4-5.2-1.6c0.1-0.1,11.4-10.6,11.4-10.6l-3.7-0.7c0,0-10.8,10.1-11,10.1
						c-0.1,0-5.9-0.6-5.8-0.7c0.1,0,11.3-10.3,11.3-10.3s-4.4-0.4-4.4-0.4c0.1,0-11.5,10.2-11.6,10.2c-0.1-0.1-5.8-0.1-5.8-0.1
						l12.5-11.3c0,0-4-0.5-3.9-0.4c0.1,0-13.2,11-13.2,11l-5.9-0.5l14.1-11.4l-4-0.6l-13.2,11.2l-5-1.6l13-10.4c0,0-3.5-0.8-3.6-0.8
						c-0.1,0-12.5,10.1-12.5,10.1s-6-1-6-1.1c0.2,0,13.8-9.7,13.9-9.7c0.1,0-3.8-0.6-3.8-0.5c0,0.1-13.7,9.6-13.7,9.6l-4.8-0.9
						l13.8-9.9l-3.9-0.4l-13.8,9.6l-5-1l14.1-9.4l-3.8-0.5c0,0-14.2,9.4-14.3,9.4c-0.1,0-6.2-0.1-6.2-0.1c0.1,0,16-10.2,16-10.2
						s-3.5-0.5-3.7-0.5c0.1,0-15.1,10-15.1,10l-5.5-0.9c0,0,16-10,15.9-10c-0.1,0-3.9-0.5-3.9-0.5l-15.8,9.9l-4.4-0.9
						c0,0,16-9.8,15.9-9.8s-3.9-0.2-3.9-0.2l-15.5,9l-5-0.5l16.3-9.7l-3.8-0.5l-16.7,9.7l-5-1l17.7-9.7c0,0-3.8-0.5-3.8-0.5
						c-0.1,0.1-17.8,10-17.8,10l-4.2-1.3c0,0,17.6-9.5,17.4-9.5s-3.7-0.2-3.7-0.2l-15.8,8.7L119,308c0.2,0,17.9-9.1,17.8-9.1
						c-0.1,0-3.6-0.4-3.6-0.4l-16.1,8.5l-5.5-0.9l17.5-8.6l-3.4-0.3l-17.8,8.6l-4.6-0.8l17.8-8.7l-4.2-0.6l-16.2,8.3
						c0,0-6.7-0.2-6.7-0.3c0.1-0.1,19.2-9,19.2-9l-3.7-0.2l-16.4,8.1c0,0-7.1-0.3-7.1-0.3c0.1,0,19.5-8.8,19.5-8.8l-3.3-0.3
						L82.9,302l-5-0.8l20.3-9l-3.5-0.4L75.3,301l-4.7-1.1l20.2-8.9c0,0-2.8-0.2-3-0.2c-0.2,0-20.1,8.3-20.1,8.3l-3.1-1
						c0,0,19.5-8.2,19.3-8.2c-0.1,0-3.9-0.4-3.9-0.3c-0.1,0.1-17.9,7.5-17.9,7.5l-5.2-0.6l19.1-7.8l-2.3-0.6l-20,8.2l-5.8-0.8
						l21.3-8l-2.7-0.5c0,0-20.8,8.4-21,8.4c-0.2,0-5.1-0.6-5.1-0.6l21.9-8.6l-3.5-0.3l-20.7,8.1l-4.8-0.6l21.7-8.2l-3-0.5l-21.1,7.7
						c0,0-4.5-0.6-4.8-0.6c0.8-0.2,22.1-7.7,22.1-7.7s-3.1-0.6-3.1-0.5c0,0.1-20.2,7.5-20.2,7.5l-5.9-0.7l22-7.6l-2.4-0.1l-22.2,8
						c0,0-4.6-1.2-4.4-1.2c0.1,0,22.7-7.7,22.7-7.7l-3.7-0.2l-20.6,7.2l-3.9-1l21.1-7.1l-2.4-0.5c0,0-21,7.2-21.1,7.1
						C4,287.4,0,286.7,0,286.7L265,200l0.9,0.2l-3.9,2.1l1,0.1l4.3-1.8l1.8,0.1l-4,2l1.2,0.2l4-2l2,0.1c0,0-4.1,2-4,2.1
						C268.5,203.1,269.7,203.1,269.7,203.1z"/>
				</g>
				<g>
				</g>
			</g>
		</g>
		<path class="st2" d="M253.9,216.5c-4.9,0-22-4-26.6-2.2c-2.6,1-43.8,20.8-44.2,25.3c-0.7,8.5,18.9,22.1,23,21.9
			c6.3-0.3,46,8,52.1,8c36-0.2,40.9-20.4,50.4-32.5c3.4-4.3,6-3.9,5.2-13.7c-0.7-7.7-11.9-7.5-16.3-8.8c-7.3-2.1-14.8-2.1-22.2-1.3
			c-4.4,0.5-8.6,1.8-12.8,2.3c-3.3,0.4-6.7-0.2-9.8,1.3"/>
		<g>
			<g>
				<g>
					<g>
						<g id="XMLID_134_">
							<g>
								<g>
									<path class="st3" d="M309.4,134.9c-1.5-4.5-3-6.8-3.3-7.3c-5.4-1.5-14.6-10.9-17.5-7.7c-3.2,3.4-20.1,19.4-29.4,22.3
										c-10.3,3.1-18.3-3.9-23.1-10.3c-1.2-1.6-2.5-3.8-3.6-6.1l-0.4,0.2c-1.4-0.7-2.9-1-4.2-1.1v0.2c0,0-0.5,2.3-1.3,5.9
										c0.8,0.6,1.6,1.3,2.3,2.1c2.2,2,4,4.4,4.4,7.4c0,0.1,0,0.1,0,0.2c1.4,2.8,2.7,5.7,4.1,8.5c6,0.3,11.7,1.3,17.4,2.8
										c6.6-2.8,12.8-6.5,18.6-10.6c3.1-2.2,6.2-4.2,9.4-5.9c2.2-3.2,8,8.9,11.8,7c5.3-2.7,8.7-7.3,13.7-5.9
										C308,135.7,309.7,135.7,309.4,134.9z"/>
								</g>
								<g>
									<path class="st4" d="M299.2,69.8c0.9-7.3,1.1-16.9-2.1-25.7c-8.4-18.9-25.7-27.3-39.6-28.5c-14.9-1.7-27.5,6.4-33.3,12.1
										c-5.8,5.7-8.3,21.2-8.3,21.2c0-2.5,0-14.2,4.5-22.5c5-9.3,14.8-20.5,30.3-24.5c15.5-4,33.1-0.4,47.4,13.9
										c14.3,14.3,15.3,37.1,13.9,47c-1.6,11.6-4.3,23.3-9.5,33.9c-1.5,3.1-0.2,12.7-1.9,15.7c-0.5,0.9-1,1.7-1.5,2.6l0.1,0.2
										c1.3-0.5,3.2-0.9,5.6-0.5c3.1,0.8-0.2,7.5-0.4,8.2c-0.1,0.7,4.2,2.3,6.2,4c1.9,1.7,2.6,3.8-0.5,7.6l-0.6,0.2
										c-1.5-4.5-3-6.8-3.3-7.3c-5.4-1.5-14.6-10.9-17.5-7.7c-3.2,3.4-20.1,19.4-29.4,22.3c-10.3,3.1-18.3-3.9-23.1-10.3
										c-1.2-1.6-2.5-3.8-3.6-6.1c-3.5-6.9-6.6-11.1-8.4-15.8c-2.4-6.3-4.9-20.7-5.4-25.4c-0.6-4.7-3.7-23-3.7-23l0.5,0
										c0.8,2.7,1.8,4.4,2,4.5l0.3,0c1.6,7.2,2.5,19.3,2.5,21.5c0,2.4,1.1,5,6.1,10.9c2.2,1.9,4.5,3.7,6.9,5.2l-0.8,1.3
										c0,0,11,15.8,21.7,17.7c1.8,0.2,3.6,0.1,5.5-0.2l-0.7-4.5c16.4-3.5,33.1-22.8,33.1-22.8l-1.1-0.9
										c5.2-6.6,6.2-12.7,6.2-13.2c0-0.2,0.5-1.9,1.1-4.6C298.5,74.7,298.9,72.4,299.2,69.8z"/>
								</g>
								<g>
									<path class="st5" d="M299.2,69.8c-0.3,2.6-0.7,4.9-1.1,6.7h0c-3.9-17.7-26.9-34.2-37.5-36.5c-14.4-3.3-26,1-34.2,6.1
										c-7.5,4.7-8.9,14.8-9.2,18c0.2,0.6,0.3,1.2,0.5,1.9l-0.3,0c-0.1-0.2-1.2-1.8-2-4.5c-0.9-3.1-1.4-7.6,0.4-12.5v0
										c0,0,2.5-15.5,8.3-21.2c5.8-5.7,18.4-13.8,33.3-12.1c13.9,1.2,31.2,9.6,39.6,28.5C300.3,52.9,300.1,62.6,299.2,69.8z"/>
								</g>
								<g>
									<g>
										<path class="st6" d="M277.3,83.7c0.4-0.2,3.9-1.6,5.5-5.3c0.3-0.6,0.3-0.6,0.3-0.6l2.2-1.8c0,0-4-6.2-13.8-5.6
											c-4.2,0.6-10.6,3.3-9.9,9.4c0.1,0,1.6-6.2,8.2-7.5c5.5-1.2,11.1,2,12,5.7C282.1,80,278.6,83.1,277.3,83.7z M239,81.5
											c0.2-0.3,0.8-2.1-0.5-5.1c-2.8-4.6-8.3-6.3-12.4-4.7c-4.1,1.6-4.2,5.7-4.2,5.7l1.9,0.6c0.8,3.1,3.8,4.6,4.1,4.7
											c-1.8-1.1-3.4-4.9-3.4-4.9c-0.7-2.9,3.1-6.3,8.5-4.9C239.8,75.4,239.1,80.8,239,81.5z M298.1,76.5L298.1,76.5
											c-0.5,2.7-1.1,4.4-1.1,4.6c-0.1,0.4-1,6.5-6.2,13.2c-4,5.1-10.6,10.5-21.2,13.8c-16.9,4-27.5,1.3-36.5-4.4
											c-2.4-1.6-4.7-3.3-6.9-5.2c-5-5.9-6.1-8.5-6.1-10.9c0-2.2-1-14.3-2.5-21.5c-0.1-0.7-0.3-1.3-0.5-1.9
											c0.3-3.2,1.7-13.3,9.2-18c8.1-5.1,19.7-9.3,34.2-6.1C271.2,42.3,294.2,58.8,298.1,76.5z M262.8,63.2c0,0,8.8-1.8,13-0.7
											c0,0-3.5-3.3-8.4-2.5C262.8,60.8,262.8,63.2,262.8,63.2z M274,82.2c0-1.3-1.3-2.3-2.9-2.3c-1.6,0-2.9,1-2.9,2.3
											c0,1.3,1.3,2.2,2.9,2.2C272.8,84.4,274,83.5,274,82.2z M236.8,61.8c0,0,0.2-2.4-3.4-2.9c-6.9-0.1-8.5,3.5-8.5,3.5
											c4.5-2.4,11.6-0.7,11.6-0.7L236.8,61.8z M235.3,80.9c0-1.3-1.2-2.3-2.8-2.3c-1.5,0-2.8,1-2.8,2.3c0,1.3,1.2,2.3,2.8,2.3
											C234,83.2,235.3,82.2,235.3,80.9z"/>
									</g>
								</g>
								<g>
									<path class="st4" d="M290.8,94.2l1.1,0.9c0,0-16.7,19.3-33.1,22.8l0.7,4.5c-1.9,0.3-3.7,0.4-5.5,0.2
										c-10.7-1.9-21.7-17.7-21.7-17.7l0.8-1.3c8.9,5.8,19.6,8.5,36.5,4.4C280.2,104.8,286.8,99.3,290.8,94.2z"/>
								</g>
								<g>
									<path class="st7" d="M275.8,62.5c-4.2-1.1-13,0.7-13,0.7s0-2.4,4.6-3.2C272.3,59.2,275.8,62.5,275.8,62.5z"/>
								</g>
								<g>
									<path class="st7" d="M233.3,59c3.6,0.4,3.4,2.9,3.4,2.9l-0.3-0.1c0,0-7.1-1.6-11.6,0.7C224.9,62.5,226.5,58.9,233.3,59z"/>
								</g>
								<g>
									<path class="st4" d="M232.4,125.8l-0.4,0.2c-1.4-0.7-2.9-1-4.2-1.1c-4.1-0.2-7.4,1.7-7.4,1.7c1.2-4.7,3.1-9.5,3.4-14.4
										c0.2-2.3,0.2,0.2,0.2-2.1C225.9,114.7,229,118.8,232.4,125.8z"/>
								</g>
								<g>
									<g>
										<g id="XMLID_135_">
											<g>
												<path class="st5" d="M281.9,77.7C282,79,282,79,282,79s-1.9,3.5-4.3,4.5c-0.5,0.2-1.2,0.4-2.1,0.6
													c0.7-0.7,1.1-1.7,1.1-2.8c0-2.5-2.4-4.5-5.3-4.5c-2.9,0-5.3,2-5.3,4.5c0,1,0.4,1.9,1,2.6c-2.4-0.7-4.6-2.1-5.6-4.7
													c0,0,1.8-7.5,10.7-7.4C279.2,72.1,281.9,76.4,281.9,77.7z"/>
												<path class="st8" d="M276.8,81.1c0,1.1-0.4,2-1.1,2.8c-2.2,0.4-5.9,0.6-8.8-0.2c-0.6-0.7-0.7-1.5-0.7-2.5
													c0-2.5,2.4-4.5,5.3-4.5C274.4,76.6,276.8,78.7,276.8,81.1z"/>
												<path class="st5" d="M233.4,72.6c6.3,2.6,5.7,8.7,5.7,8.7s0,0-0.2,0.1c-0.9,0.5-1.8,0.9-2.6,1.2c0.6-0.7,1-1.6,1-2.5
													c0-2.3-2.3-3.9-4.9-3.9c-2.6,0-4.9,1.5-4.9,3.7c0,1.1,0.5,2.2,1.4,3.1c-0.6-0.2-1.1-0.5-1.6-0.9
													c-2.2-1.6-3.1-4.2-3.1-4.2C224.1,73,229.4,71.3,233.4,72.6z"/>
												<path class="st8" d="M237.2,80.1c0,0.9-0.3,1.8-1,2.5c-3.2,1.2-5.6,1.1-7.4,0.5c-0.9-0.9-1.4-2-1.4-3.1
													c0-2.3,2.3-3.7,4.9-3.7C234.8,76.2,237.2,77.8,237.2,80.1z"/>
											</g>
										</g>
									</g>
								</g>
								<g>
									<path class="st7" d="M285.3,76l-2.2,1.8c0,0,0,0-0.3,0.6c-1.6,3.7-5.1,5.1-5.5,5.3c1.3-0.6,4.7-3.7,4.4-5.9
										c-0.9-3.7-6.5-6.8-12-5.7c-6.6,1.4-8.1,7.5-8.2,7.5c-0.7-6,5.7-8.7,9.9-9.4C281.3,69.8,285.3,76,285.3,76z"/>
								</g>
								<g>
									<ellipse class="st7" cx="271.2" cy="82.1" rx="2.9" ry="2.2"/>
								</g>
								<g>
									<path class="st7" d="M239,81.5c0.1-0.7,0.8-6.1-5.9-8.5c-5.4-1.5-9.2,2-8.5,4.9c0,0,1.9,4,3.7,5c-0.4-0.2-3.6-1.6-4.4-4.8
										l-1.9-0.6c0,0,0-4,4.2-5.7c4.1-1.6,9.6,0.1,12.4,4.7C239.8,79.4,239.2,81.2,239,81.5z"/>
								</g>
								<g>
									<path class="st7" d="M232.5,78.6c1.5,0,2.8,1,2.8,2.3c0,1.3-1.2,2.3-2.8,2.3c-1.5,0-2.8-1-2.8-2.3
										C229.7,79.7,231,78.6,232.5,78.6z"/>
								</g>
							</g>
						</g>
						<g>
							<g>
								<path class="st9" d="M217.6,63.5c0,0,3.4-7.8,14.5-11c11.1-3.2,33-5.5,55.8,10.1c0,0,8.5,31.1-12.7,42.9
									c0,0,19.1-9.5,21.7-24.4c0.9-6.1,0.9-6.1,0.9-6.1s-7.7-19.7-23.1-28.2c-15.4-8.5-30.2-10.4-43.7-3.1
									C217.5,51,217.7,58.6,217.6,63.5z"/>
							</g>
						</g>
						<g>
							<path class="st10" d="M286.4,56.1c-0.3-0.3,1.8-5.6,1-7.3c-0.8-1.7-13-14.8-13-14.8s10.9,6.2,14,8.9c0,0,0.9-5.6,0.6-7.5
								c-0.3-1.9-16.9-21-40.2-19.1c0,0,7.9-3.4,24.7,3.3c13.7,8.3,14.7,10.4,17.2,13.4c2.5,3.1,8.7,14.9,9.1,21.9
								c0.4,7.1-0.8,18.3-1.1,19.3c-0.3,1-0.3,1.5-0.3,1.5S292.3,62.8,286.4,56.1z"/>
						</g>
						<g>
							<path class="st10" d="M216.2,49.2c-0.1,0.6,6.1-11,15.1-17.6c0,0-9.7,4.7-14.3,11.2C216.9,42.9,216.5,46.5,216.2,49.2z"/>
						</g>
						<g>
							<path class="st11" d="M220.1,92.5c0.2,0.5,4.7,11.7,6.3,12.8c0,0,6.5,12.3,13.9,20.7c7.4,8.4,14.3,12.4,20.2,5.5
								c0,0-7.8,5.1-16.6-5.8c-8.8-10.9-13.4-18.8-13.4-18.8s7.5,3.6,8.7,4.5c1.2,0.9,17.1,15.5,32.5,3.1c0.2,0.2,11.2-7.9,12.8-6.1
								c1.5,1.9-10.2,12.4-27.6,19.1c0,0,16.4-1.4,29.1-13.7c1.2-0.9,0.7,1.1,0.2,2c-0.4,0.9-18.2,20-28.2,26.1c0,0,0.4,1.1,6.8-2.4
								c6.4-3.5,25.9-7.2,30-10c4.1-2.8,9.6,2.8,11.1,3.5c1.5,0.7,2.5,3.9,2.5,3.9l1.2-3c0,0,3.6-2,2.6-4.6c-1-2.6-6.2-5.2-6.9-5.2
								c-0.8,0-1.1,0.1-1.1,0.1s2.1-4.1,2-5.9c-0.1-1.9-0.4-4.5-6.1-3.1c0,0,6.8-26.9,9.7-40.8c2.9-13.9,4.1-30.2-2.1-44.1
								c-6.2-13.9-19.4-23.1-27.6-26.7c0,0,9.9,12.4,11.1,28.3l-0.4,1.2c0,0,13.4,14.6,7.7,43.4c-3,16.5-14.5,28.1-26.8,31
								c-12.2,2.9-34.5,7.8-51-17c0.2,0.3-0.6-1.3-0.6-1.3S219.8,91.6,220.1,92.5z"/>
						</g>
						<g>
							<path class="st11" d="M226.7,130.3c0,0-6.6-2.9-5.6-3.7c1-0.9,5.7-1.5,5.7-1.5s-2.1-12.9-2.2-13.2c-0.1-0.3,0.1,0.1,0.1,0.1
								l8.3,14.7l-5.1-1.3l-1.3,5.5L226.7,130.3z"/>
						</g>
						<g>
							<g>
								<g>
									<path class="st12" d="M297.6,76.6c-3.8-17.3-26.4-33.8-37.2-36.1c-11.8-2.7-23.2-0.6-33.8,6c-7.1,4.5-8.6,13.8-9,17.7
										c0,0.6,0,0.9,0,0.9h-0.9c0,0,0-0.4,0-1c0.3-4,1.9-13.7,9.4-18.4c10.8-6.8,22.5-8.8,34.5-6.1c11,2.4,34,19.2,37.9,36.8
										L297.6,76.6z"/>
								</g>
							</g>
							<g>
								<g>
									<g>
										<path class="st12" d="M216.3,49.1l-0.9-0.3c3.2-8.7,12.1-16.1,12.2-16.1l-0.1,0.5C227.5,33.3,219.3,40.6,216.3,49.1z"/>
									</g>
								</g>
							</g>
							<g>
								<g>
									<path class="st12" d="M217.1,66.3c0,0-1.2-1.7-2-4.6c-0.9-3-1.5-7.6,0.4-12.8l0.9,0.3c-1.8,4.9-1.2,9.4-0.4,12.3
										c0.8,2.7,1.9,4.4,1.9,4.4L217.1,66.3z"/>
								</g>
							</g>
							<g>
								<path class="st13" d="M297.7,76.4c-0.4,1.8-0.7,3.2-0.9,4c-0.1,0.4-0.2,0.6-0.2,0.7c-0.2,1.1-1.3,6.8-6.1,12.9
									c-4.9,6.3-12,10.9-20.9,13.7c-14.8,3.5-26,2.2-36.1-4.4c-2.1-1.4-4.3-3-6.8-5.2c-5-6-6-8.3-6-10.6c0-2-1-14.2-2.5-21.6
									c-0.1-0.7-0.3-1.3-0.5-1.9c0-0.1,0-0.2-0.1-0.3l-0.8,0.4l0,0.1c0.2,0.6,0.3,1.2,0.5,1.9c1.6,7.3,2.5,19.4,2.5,21.4
									c0,2.5,1,5,6.2,11.2c2.6,2.2,4.8,3.9,6.9,5.3c6.7,4.3,13.7,6.4,22,6.4c4.6,0,9.5-0.6,14.9-1.9c9.1-2.8,16.3-7.6,21.4-14
									c5-6.3,6.1-12.2,6.3-13.4c0-0.1,0.1-0.3,0.1-0.6c0.2-0.7,0.5-1.8,0.8-3.4c-0.2-0.5-0.4-1-0.6-1.5
									C297.7,75.9,297.7,76.2,297.7,76.4z"/>
								<path class="st14" d="M299.7,69.9c1.2-9.8,0.5-18.8-2.1-25.9c-8.6-19.4-26.3-27.6-40-28.7c-18.1-2-31.2,9.9-33.7,12.3
									c-5.9,5.7-8.4,20.8-8.5,21.4l0.9,0.1c0-0.2,2.6-15.4,8.2-20.9c6.6-6.5,19.2-13.6,33-12c13.4,1.2,30.8,9.2,39.2,28.2
									c3.2,8.8,2.9,18.7,2.1,25.5c-0.3,2.4-0.7,4.5-1,5.9c0.2,0.5,0.4,1,0.6,1.5c0-0.2,0.1-0.4,0.1-0.6
									C298.9,75.1,299.3,72.8,299.7,69.9z"/>
							</g>
							<g>
								<path class="st14" d="M299.4,115.3l-0.8-0.5c0.3-0.6,0.7-1.1,1-1.7l1.1-2c1.5-2.6-0.1-11.9,1.3-14.6
									c4.5-9.2,7.6-20.2,9.5-33.7c1.3-10,0.2-32.6-13.8-46.6C284.6,3.1,267.5-1.9,250.7,2.4c-17.9,4.6-26.9,18.5-30,24.2
									c-4.4,8.3-4.5,20-4.4,22.3v0.5h-0.9V49c0-2.3,0-14.2,4.5-22.8c3.1-5.9,12.4-20,30.6-24.7c17.1-4.4,34.5,0.7,47.8,14.1
									C312.5,29.8,313.8,52,312.3,63c-1.8,13.6-5,24.7-9.6,34c-1.4,2.8,0.2,12-1.3,14.6l-1.1,2C300,114.2,299.7,114.8,299.4,115.3
									z"/>
							</g>
							<g>
								<path class="st14" d="M307.6,138.7l-0.3-1.2c5.3-6.8,4.7-8.5,3-10.1c-0.9-0.8-2.3-1.5-3.6-2.2c-2-1.1-2.8-1.5-2.7-2.2
									c0-0.2,0.1-0.4,0.4-1c0.6-1.5,1.8-4.7,1.1-6.1c-0.2-0.3-0.4-0.5-0.8-0.6c-1.8-0.4-3.6-0.2-5.3,0.4c-1.4,0.5-2.1,1.3-2.1,1.3
									l-0.6-0.7c0,0,0.9-0.8,2.4-1.5c1.8-0.7,3.8-0.9,5.8-0.5c0.7,0.2,1.1,0.5,1.4,1.1c0.9,1.8-0.4,5.1-1.1,6.8
									c-0.1,0.3-0.2,0.6-0.3,0.7c0.3,0.3,1.4,0.9,2.2,1.3c1.3,0.7,2.8,1.5,3.8,2.3C313.3,128.9,312.8,132,307.6,138.7z"/>
							</g>
							<g>
								<path class="st14" d="M226.2,130.2c-2-0.4-5.8-3.1-6-3.2l-0.3-0.2l0.1-0.3c0.4-1.4,0.8-2.9,1.2-4.3c1-3.3,2-6.7,2.2-10.1
									c0.2-2.3,0.3,0.2,0.2-2.1l0.9,0c0,2.4,0-0.1-0.2,2.2c-0.3,3.5-1.3,6.9-2.3,10.2c-0.4,1.3-0.8,2.6-1.1,3.9
									c0.9,0.6,3.8,2.6,5.4,2.9L226.2,130.2z"/>
							</g>
							<g>
								<path class="st14" d="M220.7,126.9l-0.5-0.8c0.1-0.1,3.5-2,7.6-1.7c1.6,0.1,3.1,0.5,4.4,1.1l-0.4,0.8c-1.2-0.6-2.6-1-4.1-1
									C223.9,125.1,220.7,126.9,220.7,126.9z"/>
							</g>
							<g>
								<path class="st14" d="M256,123.2c-0.7,0-1.4,0-2-0.1c-10.8-2-21.6-17.1-22-18l0.1-0.3c0.1,0.2,11.7,15.5,22.1,17.4
									c1.6,0.2,3.4,0.1,5.3-0.2c6.2-0.9,12.3-3.9,13.8-5l0.7,0.1c-1.5,1.1-8,4.9-14.4,5.9C258.3,123.1,257.1,123.2,256,123.2z"/>
							</g>
							<g>
								<path class="st14" d="M258.9,118.4l-0.1-0.4c16-3.4,32.5-22.9,32.7-23.1l-0.1,1.2C290.8,97,275.3,114.9,258.9,118.4z"/>
							</g>
							<g>
								<path class="st12" d="M298.8,70.6l-0.1-0.7c-0.2-1.9-1.8-12.9-7.8-19.7l1.2,0.4c6.1,7.1,7.3,17.3,7.4,19.3l0.1,0.7
									L298.8,70.6z"/>
							</g>
							<g>
								<path class="st13" d="M245,90.9c-0.1,0-2.7,0.2-4-1.4c-0.6-0.8-0.8-1.8-0.6-3c0.2-0.9,0.7-1.5,1.4-2c1.5-1,3.7-0.6,3.8-0.6
									l0.2,0.4c0,0-2.4,0.1-3.6,0.9c-0.5,0.3-0.8,0.8-0.9,1.5c-0.2,0.9,0,1.7,0.5,2.3c1,1.3,3,1.5,3,1.5L245,90.9z"/>
							</g>
							<g>
								<path class="st13" d="M260.9,73.5l-0.4-0.4c0.1-0.1,7.3-9.6,18.7-4.4l0.2,0.5C268.6,64.3,260.9,73.4,260.9,73.5z"/>
							</g>
							<g>
								<path class="st13" d="M236.4,71.7c-0.1-0.1-8.7-6.2-13.3-0.8l-0.3-0.4c5.1-6,14,0.4,14.1,0.5L236.4,71.7z"/>
							</g>
							<g>
								<path class="st13" d="M259.8,97.9c-0.6,0-1.5,0-3-0.1c-1.4-0.1-3.1-0.1-4.6-0.2c-3.6-0.1-7.3-1-7.7-1.1l0.1-0.3
									c0.3,0.1,3.9,0.4,7.6,0.5c1.6,0,3.2,0.1,4.7,0.2c1.6,0.1,3.4,0.2,3.6,0.1c0.1-0.1,0.2-0.2,0.2-0.3l0.9,0
									c0,0.3-0.1,0.8-0.7,1.1C260.7,97.8,260.4,97.9,259.8,97.9z"/>
							</g>
							<g>
								<path class="st13" d="M253.7,104c-1.6,0-3.1-1.1-3.2-1.2l0.3-0.2c0,0,2.1,0.7,3.9,0.4l0.2,0.9
									C254.5,104,254.1,104,253.7,104z"/>
							</g>
							<g>
								<path class="st7" d="M275.9,83.9l-0.4-0.3c0.6-0.7,0.8-1.5,0.8-2.4c0-2.4-2.3-4.4-5.1-4.4c-2.8,0-5.1,2-5.1,4.4
									c0,0.7,0.4,1.8,0.8,2.5l-0.6-0.1c-0.5-0.7-0.7-1.5-0.7-2.4c0-2.7,2.5-4.9,5.6-4.9c3.1,0,5.6,2.2,5.6,4.9
									C276.8,82.2,276.5,83.1,275.9,83.9z"/>
							</g>
							<g>
								<path class="st7" d="M237,80.2c0,1-0.6,2-1.6,2.6l0.1,0c0.2-0.1,0.5-0.1,0.7-0.1c0,0-0.1,0.1,0,0.1c0.8-0.7,1.2-1.6,1.3-2.6
									c0-0.9-0.3-1.9-1-2.7c-1-1-2.4-1.7-4-1.8c-0.1,0-0.2,0-0.3,0c-2.8,0-5,1.7-5.1,4c-0.1,1.1,0.5,2.2,1.4,3l0.5,0.1
									c-0.8-0.7-1.5-2.2-1.5-3.1c0.1-2,2.2-3.5,4.7-3.5c0.1,0,0.2,0,0.3,0c1.5,0.1,2.9,0.6,3.7,1.6C236.7,78.6,237,79.4,237,80.2z
									"/>
							</g>
						</g>
						<circle class="st5" cx="233" cy="78.6" r="1.3"/>
						<ellipse class="st5" cx="273.3" cy="80" rx="1.2" ry="1.2"/>
					</g>
					<path class="st15" d="M266,75.6c0.5-0.2,1-0.2,1.6-0.3c0.6-0.1,1.2-0.2,1.8-0.2c3.4-0.2,6.6,0.1,9.3,2c0.3,0.2,0.7,0.6,1.1,0.6
						c0.7,0,0.7-1.1,0.5-1.5c-1.3-2.5-4.9-3.5-7.8-3.3c-1,0.1-2.1,0.3-3,0.6C268.4,74.1,267.1,74.8,266,75.6z"/>
					<path class="st15" d="M235.2,75.3c-0.3-0.2-0.7-0.2-1.1-0.2c-0.4,0-0.8-0.1-1.2-0.1c-2.3-0.2-4.4,0.1-6.3,1.4
						c-0.2,0.1-0.5,0.4-0.8,0.4c-0.5,0-0.5-0.7-0.4-1c0.9-1.7,3.3-2.4,5.2-2.2c0.7,0.1,1.4,0.2,2,0.4
						C233.6,74.3,234.4,74.8,235.2,75.3z"/>
					
						<ellipse transform="matrix(0.9913 -0.1319 0.1319 0.9913 -9.6628 37.0641)" class="st16" cx="274.9" cy="91.5" rx="8.6" ry="4.3"/>
					
						<ellipse transform="matrix(0.2381 -0.9712 0.9712 0.2381 90.2374 292.3055)" class="st16" cx="231.4" cy="88.6" rx="3.8" ry="7.5"/>
				</g>
			</g>
			<g>
				<g id="XMLID_133_">
					<g>
						<path class="st3" d="M309.3,160.9c-0.6-12.6-1.2-21.4-1.4-24.1c-0.1-1.2-1.2,0.3-0.4-0.2c0,0-0.1-1.2-0.1-1.2
							c-1-0.5-0.5-2-1.8-1.9c-3.3,0.1-8.1,2.5-10.4,5.1c-0.3,0.4-0.6,0.7-0.9,1c-0.4,0.5-3.9-10.4-4.3-10c-0.5,0.4-1.1,0.8-2.1,1.3
							c-1.4,0.7-2.7,1.5-4,2.2c-1.9,1.1-3.8,2.2-5.9,3.1c-2.4,1.1-4.8,2.2-7,3.3c-3.7,1.8-7.5,3.7-11.5,5.1
							c-2.9,1.1-5.5,1.6-7.8,1.6c-1.9,0-3.6-0.4-5.1-1.1c-2.9-1.4-5-3.7-7-6c-2.3-2.5-4.4-4.9-7.6-6c0.1,1.4,0.2,2.7,0.3,4.1
							c0.3,7.5,1.6,15.1,2.6,22.5c0.5,4.2,0.7,8.4,0.9,12.6v0c0.1,1.7,0.1,3.5,0.2,5.2c0.1,1.7,0.3,3.2,0.7,4.6
							c1.7,3.1,0,4.5-0.5,5.5c-1.3,2.3-3.2,4.1-4.7,6.3c-1,1.4-4.1,3.7-5.3,5.6c-0.4,3,0.2,7.6-2.6,7.7l-0.4,0.2
							c0.3,0.8,0.7,1.6,0.9,2.2c0.3,1,0.3,1.9,0.4,2.8c0.2,2,0.6,4.2,0.3,6.3c-0.4,2.4-2,1.3-3.1-0.2c-0.7-1-1.2-2.3-1.5-3.5
							c-0.2-0.6-0.1-1.8-0.5-2.1l0,0c-1.7,2.3-4.9,5.2-5.9,7.8c-0.3,0.9-0.7,1.9-1.1,2.8c-0.5,1.1-1.6,3.7-2.8,4.2
							c-1.9,0.8-1.6-2.4-1.4-3.9l-0.4,0c-0.3,1.8-3.3,8.5-4.3,3.7c0-0.2-0.1-0.4-0.1-0.5l-0.2,0c0,0.8-0.3,2.1-1.1,1.8
							c-0.5-0.2-0.8-1.2-0.9-2.3h0c-0.5-0.2-0.9-0.8-1.2-1.5c-2.5,3.2-3.8,10.6-3.4,14.5c0.3,3.1,2.1,5.4,5,6.8
							c3.7,1.7,7.8,1.9,11.7,2.7c4,0.9,7.7,2.3,11.5,3.8c8.2,3.2,16.4,5.8,24.9,8.1c4.5,1.2,9.3,0.8,13.8-0.1
							c3.7-0.7,7.1-2.2,10.2-4.2c0.1-0.3,0.2-0.5,0.5-0.8c6.2-7.2,12.9-14.7,17.5-23.4c0-0.3,0.1-0.7,0.3-1.1
							c1.4-2.3,2.9-4.5,4.5-6.6c0,0,0-0.1,0.1-0.1c2.5-5.3,3.7-11,4.1-16.9c0-0.1,0.1-0.3,0.1-0.4c-0.4-0.5-0.7-0.9-1-1.4
							c-0.1-0.1-0.2-0.3-0.2-0.4c1.7-5.5,11.2-14.2,9-39c0.2-0.7,0.4-1.4,0.6-2.2C309,163.4,309.2,162.2,309.3,160.9z"/>
						<path class="st3" d="M225.9,199.7c-0.4,3,0.2,7.6-2.6,7.7l-0.4,0.2c-0.4-1-0.9-2.1-0.9-2.9l0,0c-3.8-2.6-8.9-2.5-13.2-1.3
							c-0.6,0.5-1.3,1.2-1.9,1.9c-1.3,0-2.7-1.4-3.1-2.4c-0.4-1.4,0.9-2,1.7-3.2c2.4-3.6,3.8-8.1,5.4-12.1c1.6-4.1,3.5-8.1,5.4-12.1
							c0.9-1.9,1.8-3.5,2.8-5.3c0.8-1.5,2.2-1.8,1.8-3.8l-1.7-3.8c0.3-0.7,3.1-3,3.4-3.8c3.9-8.1,2.4-10.7,2.6-19.4
							c0-2,0.8-7.7,0.9-9.6c1.1,0,2.6,2.7,3.7,2.9c0.8,0.1,1.5,0.3,2.2,0.5c0.1,1.4,0.2,2.7,0.3,4.1c0.3,7.5,1.6,15.1,2.6,22.5
							c0.5,4.2,0.7,8.4,0.9,12.6v0c-0.6,2.3-1.7,5.7-2.1,7.5c-0.4,1.9-0.9,3.9-1.6,5.7c-1.7,4.2-4.1,8.2-5.7,12.4
							C226.1,198.6,226,199.1,225.9,199.7z"/>
						<path class="st6" d="M219.1,213.1c-1.7,2.3-4.9,5.2-5.9,7.8c-0.3,0.9-0.7,1.9-1.1,2.8c-0.5,1.1-1.6,3.7-2.8,4.2
							c-1.9,0.8-1.6-2.4-1.4-3.9l-0.4,0c-0.3,1.8-3.3,8.5-4.3,3.7c0-0.2-0.1-0.4-0.1-0.5l-0.2,0c0,0.8-0.3,2.1-1.1,1.8
							c-0.5-0.2-0.8-1.2-0.9-2.3h0c-0.5-0.2-0.9-0.8-1.2-1.5c-0.5-1.2-0.7-2.8-0.8-3.8c-0.2-2.7,0.3-5.4,1.7-7.7
							c0.8-1.4,2.1-3.3,3.1-4.6c0.7-0.8,1.9-2.4,3.1-3.7c0.6-0.7,1.3-1.4,1.9-1.9c4.4-1.2,9.4-1.3,13.2,1.3l0,0
							c0,0.8,0.4,1.9,0.9,2.9c0.3,0.8,0.7,1.6,0.9,2.2c0.3,1,0.3,1.9,0.4,2.8c0.2,2,0.6,4.2,0.3,6.3c-0.4,2.4-2,1.3-3.1-0.2
							c-0.7-1-1.2-2.3-1.5-3.5C219.5,214.6,219.6,213.4,219.1,213.1L219.1,213.1z"/>
					</g>
				</g>
				<path class="st9" d="M208.5,202.9c1,0.2,2.2,2.2,2.7,3.1c1.1,1.7,1.4,3.5,1.4,5.5c0,2.7-0.3,5.4-1.1,7.9
					c-0.5,1.6-4.4,6.9-2.3,7.8c1.1-0.5,1.7-2.5,2.3-3.5c1.1-1.9,2-3.9,3.2-5.7c0.7-1,1.3-2.1,2-3.1c0.5-0.6,1.6-1.6,2.4-1.2
					c0.8,0.4,1.2,2.4,1.5,3.1c1.2,2.2,3.6,4.3,3.7,0.2c0.1-2.1-0.5-4.1-1.1-6.2c-0.5-1.6-0.3-3.7-1-5.1c-0.8-1.8-3.9-2.9-5.6-3.1
					c-2.4-0.3-6.5-0.3-8.6,0.7c0.2,0.1,0.2-0.1,0.4-0.1"/>
			</g>
			<path class="st17" d="M289.9,234.7c5.2-8,11-16.5,11.1-26.3c-0.8-2.4-0.4-4.6,0.2-6.5c1-3.3,4.3-8.7,3.9-11.9
				c-0.6-5,1.7-6.4,2.8-11.6c1.4-6.2,1.5-21.8-0.3-35c-0.9-6.6,0.5-3-0.5-9.3c-0.2-1-0.7,0.7-1.5-0.4c3.3,29.7-17.5,66.6-10,48.2
				c-2.7,6.5-3.7,13.4-7.8,18.9c-2.7,3.7-5.5,5-9.1,8c1,1.4-2.6,0.8-2.8,2.6c-1.2,0.1-1.6,0.6-2.9-0.1c1.5,1.1,1.1,2.5,0.8,4.2
				c-0.1,0.7-0.8,1.3-0.9,2.1c0,0.1,0,0.3,0,0.4c-2.3,2.3-4.4,4.7-6.3,7.3c-0.6,0.8-5.9,9.3-6.7,7.5c-0.6-1.2-1.2-3.2-1.3-2.1
				c-1.1,0.3-3.2,2.7-4,2.4c-1.2-0.5-2.3,0.8-1.5,1.6c2.2,2,6.1,1,8.6,1.9c0.1,1.2,0.2,2.6-0.3,3.8c-0.9,2.3,1.4,4.2-0.4,5.9
				c-7.6,7.2-30.2-0.6-35.2-7.6c-2.3-3.1-5.6,8.7-9.3,7.5c-2.9-1-5.9-1.8-9-2.1c-6.2-0.7-9.5-5.7-7.9-11.8c0.9,0.9,1.7,0,2.6-0.3
				c1-0.3,2.1-0.3,3.1-0.2c2.1,0.1,4.2,0.4,5.9-1.3c1.8-1.8,5.3-10.6,7.5-10c1.8,0.5,4.6,1.6,5.9-0.3c0.1-0.2,0.2-0.4,0.3-0.5
				c0.6-0.7,0.9-1.6,1.1-2.6c0.7-3,0-6.4-0.5-9.5c-0.2-1.5-2.3-1-2.4,0.3c-0.1,1.8,0.6,3.6,0.7,5.4c0.1,0.8,0.1,4.6,0.2,5.4
				c0.1,2.7-4.1-1.2-4.5-3.5c-0.2-0.9-1.4-1.1-2-0.5c-1.3,1.2-8.3,14-9.1,13.2c-0.5-0.4-1.1-2.9-2.6-0.4l-1.1,1.3
				c-0.3,0-1-0.4-1.2-0.2c-1,0-2-0.4-2.8-1.2c-0.6-1-1.4-2.4-2.2,0.3c-2.9,9.7-3.7,18.2,7,19.4c7.9,0.9,17.3,5,25,7.1
				c1.4,0.4,2.2,1.1,3.5,1.6c0.1,0.4,1.5,0.4,1.9,0.6c3.2,1,5.1,2.1,8.2,2.4c4.4,2.8,11.7,3.2,16,1.9c2.8-0.8,6.2-1.2,8.9-2.1
				c3.5-1.3,6.3-3.7,9-6.2C282.6,247.2,286.1,240.7,289.9,234.7z"/>
			<path class="st17" d="M204.4,229.1c-0.9-1-2.8,0.2-1.9,1.4c0.6,0.9,1.5,1.2,2.6,1C206.6,231.1,205.9,228.8,204.4,229.1z"/>
			<path class="st17" d="M231.9,155.2c-2.5,3.1-1.6,14.3-2.5,19.2c-0.9,5.3-2,11-4.8,15.7c-1.7,2.7-5.4,4.4-6.8,7
				c-0.7,1.4,1.2,2.8-1.1,4.1c-0.8,0.5-3.7,0-4.7,0c5.1,0.8,9.7,3.3,11.4,5.9c2.5-3.7,1.9-6.9,3-10.6c0.6-2,2.2-4,3.3-6
				c2.4-4.3,4.3-9.6,4.8-14.5c1.2-10.6-2.4-20.6-2.2-31c-1.7,3.4-0.7,7,0,10.6"/>
			<path class="st17" d="M274.2,171.9c-2.7,6.3-9,11.6-15.6,13.4c-7.1,1.9-10.7,0.1-16.5-3c3.1,6,11,14.5,18.3,9.2
				c-2.1,1.5-4.3,1.8-6.4,3c4.7,5.3,14.8-2.8,18.1-6.2c5-5.2,5.6-11.7,5.1-18.6c-1.7,2.1-4,5.3-6.6,6.3"/>
			<g>
				<g>
					<g>
						<path class="st18" d="M205.9,204.8l0-0.5l-0.1,0.3l0,0l0,0L205.9,204.8c-0.3,0-0.7,0-0.8-0.4l-0.1-0.4l0.3-0.3l0.3,0.4l0-0.4
							c0.2,0,0.5,0,0.7,0.1l0.2,0.4v0.5L205.9,204.8z"/>
					</g>
					<g>
						<path class="st18" d="M223.4,206.4c-0.5-0.6-1.1-1-1.7-1.4c-3.2-2.2-7.9-2.6-12.8-1.2c-1,0.3-1.9,0.6-2.7,0.9l-0.4-0.9
							c0.9-0.4,1.8-0.7,2.8-1c5.2-1.5,10.2-1,13.6,1.3c0.7,0.4,1,1.3,1.6,2L223.4,206.4z"/>
					</g>
					<g>
						<path class="st18" d="M221.3,168c0-0.1-0.1-0.3-0.1-0.4c-0.1-0.3-0.1-0.6-0.1-0.8c-0.1,0.1-0.1,0.1-0.2,0.2
							c-0.5,0.6-0.8,1.2-1.3,1.8c-1.7,2-2.8,4.2-3.9,6.5c-0.4,0.8-0.7,1.6-1.1,2.4c-1.5,3.1-3,6.4-4.3,9.7c-0.3,0.8-0.6,1.6-0.9,2.5
							c-1.2,3.3-2.5,6.7-4.4,9.5c-0.2,0.3-0.5,0.6-0.8,0.9c-0.6,0.7-1.4,1.4-1,2.7c0.4,1.3,2,2.7,3.5,2.7h0.1v-1h-0.1
							c-1.1,0-2.3-1.2-2.6-2.1c-0.2-0.6,0.1-1,0.8-1.7c0.3-0.3,0.6-0.6,0.9-1c2-2.9,3.2-6.4,4.5-9.7c0.3-0.8,0.6-1.7,0.9-2.5
							c1.2-3.2,2.8-6.5,4.2-9.6c0.4-0.8,0.8-1.6,1.1-2.4c0.7-1.5,0.7-2,1.5-3.4l1.3-1.9c0.7-1.4-0.5,0.5,0.5-0.7l0.1-0.2
							C220.5,169.1,220.9,168.6,221.3,168C221.3,168.1,221.3,168.1,221.3,168z"/>
					</g>
					<g>
						<path class="st18" d="M222.9,207.9l-0.1-0.3c-0.1-0.2,0-0.4,0.1-0.8c0-0.1,0-0.2,0-0.2l1-0.1c0,0.1,0,0.2,0,0.3
							c1.1-0.5,1.3-2.4,1.4-5c0-0.7,0.1-1.5,0.2-2.1c0.1-0.6,0.2-1.2,0.4-1.6c0.9-2.3,1.9-4.5,3-6.6c0.9-1.9,1.9-3.8,2.7-5.8
							c0.8-1.9,1.2-3.9,1.6-5.6c0.2-1,0.6-2.4,1.1-3.9c0.4-1.3,0.8-2.6,1-3.6l1,0.2c-0.3,1.1-0.7,2.4-1,3.7c-0.4,1.5-0.9,2.9-1,3.8
							c-0.4,1.8-0.8,3.9-1.6,5.8c-0.8,2-1.8,4-2.7,5.9c-1,2.1-2.1,4.3-3,6.5c-0.1,0.4-0.2,0.8-0.3,1.3c-0.1,0.7-0.1,1.4-0.2,2.1
							c-0.1,2.8-0.3,6-3,6L222.9,207.9z"/>
					</g>
					<g>
						<path class="st18" d="M243,191.5c-3.8-2.6-6-5.4-7-9c-0.4-1.5-0.7-3.1-0.7-4.7c-0.1-1.7-0.1-3.4-0.2-5l0-0.1
							c-0.2-4.3-0.4-8.5-0.9-12.6c-0.3-2.1-0.6-4.2-0.8-6.3c-0.8-5.3-1.5-10.9-1.7-16.3c-0.1-1.7-0.1-2.9-0.3-4.1l0.2-0.4
							c0.1,1.2,0.9,2.8,1,4.4c0.2,5.4,1,10.9,1.7,16.2c0.3,2.1,0.6,4.2,0.9,6.3c0.5,4.1,0.7,8.3,0.9,12.6l0,0.2c0,1.7,0.1,3.4,0.2,5
							c0,1.6,0.3,3,0.7,4.5c1,3.4,2.6,6.7,6.3,9.2L243,191.5z"/>
					</g>
					<g>
						<path class="st18" d="M237.8,185.7l-0.1-1.2l-0.5,0.8c-0.4,0.6-0.9,1.3-1.3,2c-0.6,0.9-1.1,1.8-1.5,2.3
							c-1.2,1.7-2.5,3.1-4,4.7l-1.1,1.2c-0.9,1-2.5,2.9-3.9,4.5c0.1,0.4,0.2,0.9,0.2,1.3c1.4-1.7,3.4-4,4.4-5.1l1.1-1.2
							c1.4-1.6,2.8-3.1,4-4.8c0.4-0.5,0.9-1.4,1.5-2.3c0.5-0.7,0.9-1.4,1.3-2L237.8,185.7z"/>
					</g>
					<g>
						<path class="st18" d="M270,259.1c0.5-0.6,0.9-1.2,1.4-1.9c-2.7,1.5-5.5,2.6-8.4,3.2c-3.8,0.7-8.8,1.4-13.5,0.1
							c-9.5-2.7-17.4-5.2-24.9-8.1l-0.3-0.1c-3.8-1.5-7.3-2.9-11.3-3.7c-1.2-0.3-2.5-0.5-3.7-0.7c-2.6-0.4-5.4-0.9-7.8-2
							c-2.9-1.3-4.4-3.5-4.7-6.4c-0.3-3.6,0.8-10.9,3.3-14.1l0.2-0.3l-0.8-0.5c-0.1,0.1-0.1,0.2-0.1,0.2c-2.7,3.4-3.9,11-3.5,14.8
							c0.3,3.3,2.1,5.7,5.3,7.2c2.6,1.2,5.4,1.7,8.1,2.1c1.2,0.2,2.5,0.4,3.7,0.7c3.9,0.9,7.4,2.2,11.2,3.7l0.3,0.1
							c7.5,2.9,15.4,5.5,25,8.2c2.1,0.6,4.1,0.8,6.2,0.8c2.8,0,5.5-0.4,7.8-0.9C265.5,261,267.8,260.2,270,259.1z"/>
					</g>
					<g>
						<path class="st18" d="M289.3,179.4l-0.8-0.6c0.5-0.7,0.6-1.9,0.6-3c0-0.6,0-1.1,0.1-1.6l0.1-1c0.5-3.9,1.1-7.9,1.4-11.8
							c0.2-2.2,0.3-4.4,0.4-6.5c0-1.1,0.1-2.2,0.2-3.3c0-0.9,0.1-1.8,0.1-2.7c0-0.9,0.1-1.8,0.1-2.7c0-0.6,0-1.3,0-2
							c-0.1-1.6-0.1-3.5,0.5-4.9l0.4-0.9c-0.5,1.2,0.1,4.2,0.1,5.8c0,0.7,0,1.4,0,2c-0.1,0.9-0.1,1.8-0.1,2.7c0,0.9-0.1,1.8-0.1,2.7
							c-0.1,1.1-0.1,2.2-0.2,3.3c-0.1,2.1-0.2,4.4-0.4,6.6c-0.3,3.9-0.9,8-1.4,11.8l-0.1,1c-0.1,0.4-0.1,0.9-0.1,1.5
							C290,177,290,178.4,289.3,179.4z"/>
					</g>
					<g>
						<path class="st18" d="M279.3,230.6c-1,0-2.2-0.3-3.2-0.6c-0.7-0.2-1.3-0.4-1.8-0.5c-0.4,0-0.2-0.1-0.5-0.1l0.6-1.2
							c0.3,0-0.5,0.2,0,0.3c0.6,0.1,1.3,0.3,2,0.5c2.3,0.7,3.9,1,4.7-0.3c0.4-0.6,0.3-1.6,0.2-2.5l0-1c0.1-2.2,1.5-5.2,2-7.3l0,0.8
							c-0.5,2.1-1,4.4-1.1,6.6l0,1c0.1,1,0.1,2.2-0.4,3.1C281.3,230.3,280.3,230.6,279.3,230.6z"/>
					</g>
					<g>
						<path class="st18" d="M263,219.9c-0.1-0.4-0.3-0.8-0.4-1.1l-0.1-0.3c-0.5-1-1-2.1,0.4-3.3c0.6-0.5,1.3-1,1.9-1.5
							c1-0.7,2-1.5,2.9-2.4c2.2-2.4,4.2-5.1,6.2-7.8c0.5-0.7,1-1.4,1.5-2c1.9-2.5,3.6-5.5,4.9-8.7c0.3-0.7,0.6-1.4,0.8-2
							c0.7-1.7,1.3-3.4,2.5-5c0.3-0.5,0.7-1,1-1.5c1.2-1.8,2.5-3.7,4-5.3c0.6-0.6,1.1-1.2,1.6-1.7l1.4-0.8c-0.5,0.5-1.7,2.5-2.3,3.1
							c-1.4,1.6-2.7,3.4-3.9,5.2c-0.3,0.5-0.7,1-1,1.5c-1.1,1.6-1.7,3.2-2.4,4.8c-0.3,0.7-0.5,1.3-0.8,2c-1.4,3.2-3.1,6.3-5.1,8.9
							c-0.5,0.7-1,1.4-1.5,2c-2,2.7-4,5.4-6.3,7.9c-1,1-2,1.8-3.1,2.6c-0.6,0.5-1.3,0.9-1.9,1.4c-0.7,0.6-0.6,1-0.1,2.1l0.1,0.3
							c0.1,0.4,0.3,0.7,0.5,1.2L263,219.9z"/>
					</g>
					<g>
						<path class="st13" d="M224.5,212.6l0-0.5c-0.1-0.8-0.1-1.6-0.4-2.5c-0.2-0.6-0.5-1.3-0.8-2l-0.1-0.3c-0.2-0.6-0.5-1.1-0.6-1.7
							c-0.4-0.3-0.8-0.6-1.2-1c0.1,0.9,0.5,2,0.9,3l0.1,0.2c0.3,0.7,0.6,1.4,0.7,1.9c0.2,0.7,0.3,1.5,0.3,2.3l0,0.5
							c0,0.5,0.1,0.9,0.1,1.4c0.2,1.6,0.4,3.2,0.1,4.7c-0.1,0.6-0.3,0.9-0.5,1c-0.3,0.1-1-0.4-1.7-1.4c-0.6-0.9-1.1-2.1-1.5-3.3
							c-0.1-0.2-0.1-0.5-0.1-0.7c-0.1-0.7-0.2-1.4-0.6-1.6l-0.6,0.8c0.1,0.1,0.2,0.6,0.2,0.9c0,0.3,0.1,0.6,0.1,0.8
							c0.4,1.4,0.9,2.6,1.6,3.6c0.3,0.4,1.4,1.8,2.5,1.8c0.1,0,0.2,0,0.3,0c0.6-0.1,1.1-0.8,1.2-1.8c0.3-1.6,0.1-3.3-0.1-5
							C224.6,213.5,224.6,213,224.5,212.6z"/>
					</g>
					<g>
						<path class="st13" d="M208.7,228.6c-0.3,0-0.6-0.1-0.7-0.2c-0.7-0.6-0.9-2-0.6-4.4c0-0.2,0.1-0.4,0.1-0.6
							c0.3-1.8,1.4-6.7,3.7-8.5l0.4-0.2c-1.7,1.3-2.8,6.3-3.1,8.8c0,0.1,0,0.3-0.1,0.5c-0.3,2.2-0.1,3.3,0.2,3.5
							c0.1,0.1,0.3,0.1,0.5,0c1-0.4,2.1-3,2.6-4c0.4-0.9,0.8-1.9,1.1-2.8c0.7-1.8,2.4-3.8,4-5.6c0.7-0.8,1.4-1.6,1.9-2.3l0.2-0.3
							c0.3-0.3,0.6-0.3,0.7-0.1c0.4,0.2,0.2,0.7,0.1,0.8l-0.2-0.1l0.1,0.1c0,0-0.1,0.1-0.1,0.1l-0.1,0.1c-0.6,0.7-1.3,1.5-2,2.4
							c-1.5,1.7-3.2,3.6-3.8,5.3c-0.3,0.9-0.7,1.9-1.1,2.8c-0.8,1.9-1.9,4-3.1,4.5C209.2,228.5,208.9,228.6,208.7,228.6z"/>
					</g>
					<g>
						<path class="st13" d="M203.9,219.3c-1.2,2.6-1.7,5.3-1.3,7.8c0,0.1,0,0.2,0.1,0.3c0,0.1,0,0.2,0.1,0.3
							c0.1,0.5,0.4,2.1,1.5,2.1h0c1.8,0,3.5-4.7,3.7-5.8l-1-0.2c-0.3,1.5-2,4.9-2.8,5l0,0c-0.1,0-0.4-0.2-0.6-1.3
							c0-0.1,0-0.2-0.1-0.3c0-0.1,0-0.2,0-0.2c-0.3-2.4,0.1-4.9,1.3-7.3c0.3-0.6,2.1-4.1,3.2-6l0,0C207,213.8,204,219.3,203.9,219.3
							z"/>
					</g>
					<g>
						<path class="st13" d="M202,229.5c-0.1,0-0.3,0-0.4-0.1c-0.6-0.2-1-1-1.2-2.7c-0.1-0.7-0.2-1.6-0.2-2.6
							c-0.2-2.7,0.4-5.8,1.6-8.3c0,0,1.3-2.7,2.2-3l0.3-0.1c-0.3,0.1-1.1,2.4-1.6,3.5c-1.2,2.4-1.7,5.3-1.5,7.8
							c0.1,1,0.1,1.8,0.2,2.5c0.3,1.7,0.6,1.9,0.6,1.9c0.3-0.1,0.5-0.7,0.5-1.3c0-0.1,0-0.1,0-0.2l1-0.2c0,0.2,0,0.3,0,0.4
							c0,0.2,0,1.6-0.8,2.1C202.4,229.4,202.2,229.5,202,229.5z"/>
					</g>
					<g>
						<path class="st13" d="M207,204.3c-0.2,0.2-0.4,0.4-0.6,0.6c-0.8,0.9-1.6,1.8-2.2,2.6c-0.4,0.4-0.7,0.8-0.9,1.1
							c-1.2,1.4-2.5,3.4-3.2,4.6c-1.4,2.3-2,5.1-1.7,8c0.1,1.1,0.3,2.7,0.8,4c0.4,0.9,0.8,1.5,1.4,1.8l0.4-0.9
							c-0.3-0.2-0.6-0.6-0.9-1.3c-0.5-1.3-0.7-3.1-0.7-3.7c-0.2-2.7,0.3-5.3,1.6-7.4c0.8-1.3,2-3.2,3.1-4.5c0.3-0.3,0.6-0.7,1-1.2
							c0.6-0.8,1.4-1.7,2.1-2.6c0.5-0.6,1.2-1.4,1.9-1.9c0.1-0.1,0.2-0.2,0.3-0.2C208.5,203.7,207.8,204,207,204.3z"/>
					</g>
					<g>
						<path class="st18" d="M220.6,168c-0.2-0.5-0.4-1-0.8-1.6c-0.5-0.9-1-1.8-1.1-2.7c-0.2-1.5,0.7-2.3,1.6-3.2
							c0.4-0.4,0.8-0.8,1.1-1.3c1.1-1.6,3.2-6.6,3.2-8.5c0-0.5,0-0.9,0-1.4c0-0.9,0-1.9,0-2.8c0-6.1-0.1-12.5,1.2-18.3l1.5-3.5
							c-1.3,5.7-1.8,15.8-1.8,21.9c0,0.9,0,1.9,0,2.8c0,0.4,0,0.9,0,1.3c0.1,2-2.1,7.3-3.3,9.1c-0.4,0.6-0.8,1-1.3,1.4
							c-0.9,0.8-1.4,1.4-1.3,2.4c0.1,0.7,0.5,1.5,1,2.3c0.3,0.6,0.6,1.2,0.8,1.8L220.6,168z"/>
					</g>
					<g>
						<path class="st18" d="M300.2,203.3c0,0.2,0,0.3-0.1,0.5c-0.2,0.3-0.3,0.6-0.5,1c0.2,5.6,0.1,8.2-1.1,12.4
							c-1.3,4.9-3.9,8.9-6.8,13.4c-1.5,2.3-3.1,4.7-4.6,7.5c-3.3,6-13.4,20.4-18.3,20.8l0.1,1c5.7-0.4,16-15.7,19.1-21.3
							c1.5-2.7,3.1-5.1,4.6-7.4c3-4.6,5.6-8.6,7-13.7c1.3-4.8,1.3-7.6,1-14.6C300.4,203,300.3,203.2,300.2,203.3z"/>
					</g>
				</g>
			</g>
			<g>
				<path class="st17" d="M251.4,150.1c4.4,1,14.8-4.3,20.7-7.8c0.4-0.3,0.8-0.5,1.2-0.8c1.1-0.8,2.3-1.6,3.4-2.3
					c0.3-0.5,0.5-0.9,0.3-0.4c0,0,0,0.1,0,0.2c1.9-1.3,3.9-2.5,5.9-3.5c2.2-3.2,7.9,5.4,11.6,3.6c5.3-2.7,8.9-3.9,13.9-2.5
					c-0.9-2-6.5-4.9-7.7-6.3c0,0-3.2-1.9-4-1.5c-4.9,2.4-18.2,4.9-24.3,8c-5.7,2.9-16.4,9.1-24.5,5.2c-8-4-15.1-15.6-15.1-15.6
					l-4.3-1.2l-1,2.8C227.5,127.8,242.4,147.3,251.4,150.1z"/>
			</g>
		</g>
	</g>
	<g>
		<path class="st18" d="M255.1,208.7c-0.4,0.4-0.8,0.5-1.4,0.4c-2.3-0.2-5.9-3.9-8.4-7.2c-3.2-4.2-5.5-8.4-7.2-12.8
			c-0.3-0.8-0.7-1.8-1-2.9c-0.1,0.5-0.3,1-0.5,1.5c0.2,0.6,0.4,1.2,0.6,1.7c1.7,4.5,4.1,8.8,7.3,13c1.7,2.2,5.9,7.3,9.1,7.6
			c0.1,0,0.2,0,0.3,0c0.7,0,1.3-0.2,1.8-0.7L255.1,208.7z"/>
	</g>
	<g>
		<path class="st18" d="M240.6,221c-4.5-3.6-10.7-18.6-7-25.1l0.8,0.5c-3.3,5.6,1.9,20.9,6.6,24.7L240.6,221z"/>
	</g>
	<g>
		<path class="st18" d="M282,226.7l-0.6-0.8c3.5-2.7,7.4-5.7,9.9-8.5c4.6-5.3,8.3-12.8,11.5-19.4l0.4-0.8c0.5-1.1,0.8-1.8,1-2.7
			c0.4-2.3,0.9-4.2,1.4-6.2c0.7-2.9,1.4-5.6,1.8-9c1.1-9.7,1.2-20.1,0.2-30.9c-0.1-1.1-0.2-2.2-0.3-3.3c-0.2-2.6-0.4-5.3-0.8-8
			l-0.1-0.5c-0.1-0.9-0.3-2.2-0.8-2.6l0.6-0.7c0.8,0.7,1,2.1,1.1,3.3l0.1,0.4c0.4,2.7,0.6,5.4,0.8,8c0.1,1.1,0.2,2.2,0.3,3.3
			c1,10.9,1,21.4-0.2,31.1c-0.4,3.4-1.1,6.2-1.8,9.1c-0.5,1.9-1,3.9-1.4,6.1c-0.2,1.2-0.6,2-1,3l-0.4,0.8c-3.3,6.7-7,14.3-11.7,19.7
			C289.6,221,285.6,224.1,282,226.7z"/>
	</g>
	<path class="st19" d="M261.6,141.2c5.1-1.5,9.8-4.1,14.7-6.1c4-1.7,7.9-3.6,12.2-4.5c3.4-0.7,7.2-1.6,10.7-1c2.6,0.5,4.1,2.2,6,3.9
		c0.7,0.6,1.9,2.2,1.9,3"/>
	<path class="st6" d="M266.6,217.6c-1.3,1.4-3.5,2.5-5.3,2.8c-1.2,0.2-2.4,0.3-3.6,0.3c-0.6,0-1.2-0.2-1.8-0.2c-1,0-1.9,0-2.8-0.1
		c-0.7-0.1-1.2-0.2-1.6,0.4c-1.3,1.6,0.2,3.2,1.8,3.8c0.3,0.1,0.5,0.2,0.9,0.2c-0.8,1-2.1,1.5-2.8,2.7c-0.7,1.1-1.2,2.3-1.4,3.6
		c-0.3,2,0,3.8,0.5,5.7c0.3,1.2,1.1,3.5,2.3,4.1c0-0.1,0-0.3,0-0.4c0.3,0.8,0.2,2.2,1.2,2.6c1.4,0.6,1.7-0.8,2.2-1.8
		c0,1.1,0.2,1.8,1.4,1.8c1.4,0,2.2-0.7,3.2-1.6c0.4-0.4,1.5-1.1,1.4-1.8c-0.5,0.2-0.5,1.1-0.5,1.6c0.1,0.8,0.5,1.3,1.2,1.3
		c2,0,3.1-2.4,4.1-3.9c2.4-3.6,5.4-6.8,7.8-10.5c0.6-0.9,2.5-2.4,2.3-3.6c-0.1-0.5-0.6-1.1-0.8-1.5c-0.3-0.7-0.8-1.3-1.5-1.8
		c-1.4-1-3.1-1.7-4.7-2.3c-0.6-0.3-4.1-1.5-4.4-1"/>
	<path class="st9" d="M264.3,219c0.9,2.1,1.1,3.9,0.6,6.1c-0.6,2.8-1.5,5.5-2.5,8.2c-1.2,3-2.5,6.6-5.2,8.7
		c-0.6,0.5-1.1,1.1,0.1,1.3c1.4,0.2,2.5-1.8,3.6-2.5c0.2,0.6,0.5,1.2,1.1,1.6c1.2,0.7,2.7-1,3.3-1.8c1.3-1.6,2.1-3.6,3.5-5.2
		c1-1.1,2.1-2.2,3.1-3.2c0.9-0.9,1.8-1.9,2.6-2.9c0.7-0.9,1.1-2.1,1.4-3.2c0.5-1.9,0.5-2.4-0.7-3.8c-1.2-1.4-3.1-2.9-4.9-3.5
		c-0.9-0.3-1.8-0.5-2.8-0.6c-0.6-0.1-1.2-0.1-1.8-0.3"/>
	<g>
		<path class="st13" d="M262.5,243.7c-0.2,0-0.3,0-0.4-0.1c-0.4-0.2-0.5-0.7-0.7-1.3c-0.4-1.4-0.3-2.9,0.3-4.6
			c0.5-1.6,1.4-3.1,2.2-4.5c0.5-0.9,1.8-1.6,2.1-2.5l0.1,0.3c-0.4,0.8-0.9,1.7-1.4,2.7c-0.8,1.4-1.6,2.9-2.1,4.3
			c-0.5,1.5-0.6,2.8-0.3,4.1c0.1,0.3,0.2,0.6,0.2,0.7c0,0,0.1,0,0.6-0.2c0.5-0.2,1.1-0.7,1.7-1.4c0.6-0.8,1.1-1.6,1.6-2.5
			c0.6-1,1.2-2.1,2.1-3c0.7-0.8,3.3-3.7,5.4-6.8c1.3-1.9,2.1-3.6,2.4-4.8l1,0.2c-0.4,1.7-1.6,3.8-2.6,5.2c-2.1,3.1-4.7,6-5.4,6.9
			c-0.8,0.9-1.4,1.9-2,2.9c-0.5,0.9-1,1.8-1.7,2.6c-0.5,0.6-1.2,1.4-2.1,1.7C263.2,243.6,262.8,243.7,262.5,243.7z"/>
	</g>
	<g>
		<path class="st13" d="M257.4,244.1c-0.2,0-0.4,0-0.6-0.1c-0.7-0.3-1-1.2-1.1-2.6c0-0.1,0-0.3,0-0.4c0-0.7,0-1.4,0.1-2.1
			c0.2-1.6,0.8-3.2,1.3-4.7l0.5-1.4c0.3-1,0.7-2,1.2-3c0.2-0.4,0.5-0.7,0.7-1c0.3-0.4,1.4-0.7,1.6-1l0,0.4c-0.2,0.5-0.5,0.9-0.9,1.3
			c-0.2,0.3-0.5,0.6-0.6,0.9c-0.5,0.9-0.8,1.9-1.2,2.9l-0.5,1.4c-0.5,1.5-1.1,3-1.3,4.6c-0.1,0.6-0.2,1.3-0.1,1.9l0,0.1l0,0.1l0,0.2
			c0.1,0.9,0.3,1.6,0.6,1.7c0.2,0.1,0.6,0,1.1-0.4c1.5-1.1,2.4-3.3,3.1-5.2l0.9,0.3c-0.7,2-1.7,4.4-3.4,5.7
			C258.4,243.9,257.9,244.1,257.4,244.1z"/>
	</g>
	<g>
		<path class="st13" d="M254.3,244.2c-0.2,0-0.3,0-0.4-0.1c-0.9-0.4-1.2-1.7-1.4-2.8l-0.1-0.6c-0.3-2.1-0.1-4.6,0.4-6.9
			c0.2-0.9,0.6-1.8,1-2.7l0.2-0.5c0.6-1.3,2.2-2.5,3.4-3.5l-0.3,0.7c-1,0.9-1.6,2.1-2.2,3.3l-0.2,0.5c-0.4,0.8-0.7,1.7-0.9,2.5
			c-0.5,2.2-0.6,4.6-0.4,6.5l0.1,0.6c0.1,0.6,0.3,1.8,0.7,2c0.1,0.1,0.4,0,0.7-0.2c0.4-0.3,0.7-1,0.9-1.9c0.1-0.5,0.1-1.2,0.1-1.9
			v-0.1h1v0.1c0,0.8,0,1.5-0.1,2.1c-0.2,1.2-0.6,2.1-1.3,2.6C255,244,254.6,244.2,254.3,244.2z"/>
	</g>
	<g>
		<path class="st13" d="M252.4,241.1c-3.6-2.3-3.2-9.2-2-12.4c0.6-1.7,1.7-2.7,3-3.6c1.6-1.1,3.4-2,5.1-2.9c1.6-0.9,3.2-1.7,4.8-2.7
			c0.9-0.6,1.8-1.2,2.6-1.9l0.6,0.8c-0.8,0.7-1.7,1.3-2.7,1.9c-1.6,1-3.2,1.9-4.8,2.8c-1.7,0.9-3.4,1.8-5,2.9
			c-1.2,0.8-2.1,1.6-2.7,3.1c-1.2,3.3-1.2,9.4,1.6,11.2L252.4,241.1z"/>
	</g>
	<g>
		<path class="st13" d="M254,225c-0.9,0-1.8-0.4-2-0.5c-1.2-0.6-1.7-2-1.2-3.3c0.5-1.4,2.2-1.2,3.3-1.1c0.2,0,0.4,0.1,0.6,0.1
			c1.5,0.1,3.1,0.2,4.6,0.2c0.7,0,1.4-0.1,2.2-0.2c0.1,0,0.2,0,0.4-0.1c0.3-0.1,0.6-0.1,0.9-0.1l-0.1,1c-0.1,0-0.4,0-0.6,0.1
			c-0.2,0-0.3,0.1-0.5,0.1c-0.8,0.1-1.5,0.2-2.3,0.2c-1.6,0-3.2-0.1-4.7-0.2c-0.2,0-0.4,0-0.6-0.1c-1.1-0.1-2-0.2-2.3,0.4
			c-0.3,0.7-0.1,1.7,0.7,2.1c0.6,0.3,1.4,0.5,1.9,0.4l0.3,0.9C254.5,225,254.2,225,254,225z"/>
	</g>
	<g>
		<path class="st18" d="M279.8,229.5C279.8,229.5,279.8,229.5,279.8,229.5l-0.1,0.2l-0.4-0.7c0.1-1.3-0.8-2.9-2.6-4.7
			c-1.8-1.8-3.6-2.9-4.1-3.2c-3-1.9-8-4-9.3-2.4l-0.8-0.6c2.2-2.7,9.2,1.3,10.5,2.2c1.4,0.9,3,2.1,4.3,3.3c2,2,3,3.8,2.9,5.4
			l0.1,0.1C280.4,229.4,280,229.5,279.8,229.5z"/>
	</g>
	<g>
		<path class="st14" d="M262.6,140.2c-1.2,0.7-2.4,1.2-3.5,1.5c-10.1,3.1-17.9-3.8-22.6-10.1c-1.2-1.5-2.4-3.6-3.6-6
			c-2.7-5.4-5.2-7.3-7-12.2c-0.5-1.3-0.9-2.5-1.3-3.5c-2.4-6.2-4.8-20.4-5.4-25.3c-0.6-4.7-3.6-22.8-3.7-23l-0.9-1.8
			c0,0.2,3,20.3,3.6,25c0.6,4.9,3.1,19.3,5.5,25.5c0.4,1,0.8,2.2,1.3,3.5c1.8,4.9,4.3,6.8,7.1,12.3c1.2,2.5,2.5,4.6,3.7,6.2
			c4.1,5.4,10.4,11.3,18.4,11.3c1.7,0,3.4-0.2,5.2-0.8c1-0.3,2.1-0.8,3.3-1.4C262.6,140.9,262.5,140.6,262.6,140.2z"/>
	</g>
</g>
</svg>
