<?xml version="1.0" encoding="utf-8"?>
<!-- Generator: Adobe Illustrator 21.1.0, SVG Export Plug-In . SVG Version: 6.00 Build 0)  -->
<svg version="1.1" id="Layer_1" xmlns="http://www.w3.org/2000/svg" xmlns:xlink="http://www.w3.org/1999/xlink" x="0px" y="0px"
	 viewBox="0 0 380.5 495.5" style="enable-background:new 0 0 380.5 495.5;" xml:space="preserve">
<style type="text/css">
	.st0{fill:#019147;}
	.st1{fill:#FFDE4C;}
	.st2{opacity:0.4;fill:#028142;}
	.st3{fill:#FFFFFF;}
	.st4{fill:#D2DCE0;}
	.st5{fill:#868C8E;}
	.st6{fill:#66BFEB;}
	.st7{fill:#FFE6BD;}
	.st8{fill:#A3CD3A;}
	.st9{fill:#231F20;}
	.st10{fill:#FFDEAB;}
	.st11{fill:#693B17;}
	.st12{fill:#F7CC98;}
	.st13{fill:#D2DDE1;}
	.st14{fill:#8CB33E;}
	.st15{fill:#4CA7D3;}
	.st16{fill:#868B8D;}
	.st17{fill:#8E4C2B;}
	.st18{fill:#4E6430;}
	.st19{fill:#285779;}
	.st20{fill:#DAE1F2;}
	.st21{fill:#FCCFB7;}
</style>
<g>
	<g>
		<g id="XMLID_14_">
			<g>
				<path class="st0" d="M257.2,367.4L364,377.4c0,0-17.1,16.5-29,25.9c-13.4,9.8-58.6,9.8-58.6,9.8c-24.7,33.6-105,29.6-105,29.6
					c-16.2-6.7-18-13.1-11-20.4c8.9-8.5,42.4-18,42.4-18c-21-9.2-6.4-14.4-3.7-15.9C202,386.9,257.2,367.4,257.2,367.4z"/>
				<path class="st1" d="M257.2,367.4c0,0-55.2,19.5-58,21.1c-2.7,1.5-17.4,6.7,3.7,15.9c0,0-33.6,9.4-42.4,18
					c-7,7.3-5.2,13.7,11,20.4c0,0,80.3,4,105-29.6c0,0,45.2,0,58.6-9.8c11.9-9.5,29-25.9,29-25.9L257.2,367.4z M60.7,433.2
					l196.5-67.3l112.5,10.3l-91.2,91.6L60.7,433.2z"/>
				<path class="st0" d="M369.7,376.3l-112.5-10.3L60.7,433.2l217.8,34.6L369.7,376.3z M306.4,367.7l1.6,0.1l3-1.7l2.1,0.1l-3,1.9
					l1.4,0l3-1.7l2.2,0.1c0,0-3.1,2-2.9,2c0.2,0,1.4,0,1.4,0l3-1.9l2,0.2l-2.9,1.8h1.8l2.3-1.5l2.5,0.1l-3.1,1.8l1.5,0l3.1-1.8
					l2.1,0.1c0,0-3.1,2.1-3,2.1c0.1,0,1.2,0,1.2,0l2.9-1.8l2.4-0.1c0,0-2.8,2.1-2.7,2.1c0.1,0,1.4,0.1,1.4,0.1l2.8-1.8l2.6,0.1
					l-2.8,1.8l1.5,0l2.7-1.8l2.5,0.3c0,0-3.1,1.9-2.9,1.9c0.1,0,1.5,0.1,1.5,0.1l2.5-1.8h2.3l-2.8,2.1l1.3,0.2l2.8-2l2.3,0.1l-2.5,2
					l1.6,0.1l2.2-1.8l2.3,0c0,0-2.5,2-2.4,2s1.6,0,1.6,0l2.2-1.9l2.3,0.2l-2.2,2l1.5,0l2.2-1.8h2.4l-2.1,2.1l1.3-0.1l2.3-1.8
					l2.1,0.1c0,0-2.2,2.2-2.1,2.2c0.1,0,1.6,0,1.6,0l2.1-1.8h2.1l-2,2l1.6-0.1c0,0,2.1-1.7,2.2-1.7s2.4,0.2,2.4,0.2l-2.3,2.2
					l1.7-0.1l1.9-1.8l2.2,0.1l-1.8,2.1l1.4,0l1.9-1.8l2.1,0.1l-1.6,1.9l1.8,0.2l1.4-1.7l3.1,0.2l-99.4,111.8l-1.6-0.3l-11.1,11.4
					c0,0-5.6-0.8-5.8-0.8c0.1,0,10.7-11.4,10.7-11.4s-3.7-1-3.7-0.8c0,0.1-11.4,11.5-11.4,11.6c-0.2,0-5.3-1.2-5.3-1.2
					s11.4-11.2,11.1-11.1c-0.3,0-3.9-0.8-4.4-0.5c-0.5,0.3-10.9,10.9-11.1,10.9s-5.2-1.4-5.2-1.6c0.1-0.1,11.3-10.5,11.3-10.5
					l-3.7-0.7c0,0-10.8,10-10.9,10.1c-0.1,0-5.8-0.6-5.8-0.7c0.1,0,11.3-10.3,11.3-10.3s-4.4-0.4-4.4-0.4c0.1,0-11.4,10.2-11.6,10.1
					c-0.1-0.1-5.8-0.1-5.8-0.1l12.5-11.2c0,0-4-0.5-3.9-0.4c0.1,0-13.2,10.9-13.2,10.9l-5.9-0.5l14.1-11.3l-4-0.6l-13.2,11.2l-5-1.6
					l12.9-10.4c0,0-3.5-0.8-3.6-0.8c-0.1,0-12.5,10-12.5,10s-6-1-6-1.1c0.2,0,13.7-9.7,13.9-9.7c0.1,0-3.8-0.6-3.8-0.5
					c0,0.1-13.6,9.6-13.6,9.6l-4.8-0.9l13.7-9.8l-3.9-0.4l-13.8,9.5l-5-1l14.1-9.3l-3.8-0.5c0,0-14.2,9.4-14.3,9.4
					c-0.1,0-6.2-0.1-6.2-0.1c0.1,0,15.9-10.2,15.9-10.2s-3.5-0.5-3.7-0.5c0.1,0-15.1,10-15.1,10l-5.5-0.9c0,0,15.9-10,15.8-10
					c-0.1,0-3.9-0.5-3.9-0.5l-15.8,9.9l-4.4-0.9c0,0,15.9-9.8,15.8-9.8c-0.1,0-3.9-0.2-3.9-0.2l-15.4,8.9l-4.9-0.5l16.2-9.6
					l-3.8-0.5l-16.7,9.7l-5-1l17.6-9.6c0,0-3.7-0.5-3.8-0.5c-0.1,0.1-17.8,9.9-17.8,9.9l-4.1-1.3c0,0,17.6-9.5,17.4-9.5
					s-3.7-0.2-3.7-0.2l-15.7,8.7l-6-0.7c0.2,0,17.8-9.1,17.7-9c-0.1,0-3.5-0.4-3.5-0.4l-16,8.5l-5.5-0.9l17.4-8.6l-3.4-0.3
					l-17.7,8.6l-4.6-0.8l17.8-8.6l-4.1-0.6l-16.2,8.3c0,0-6.7-0.2-6.7-0.3c0.1-0.1,19.1-8.9,19.1-8.9l-3.7-0.2l-16.4,8.1
					c0,0-7-0.3-7-0.3c0.1,0,19.4-8.8,19.4-8.8l-3.3-0.3L82.6,463l-5-0.8l20.2-9l-3.5-0.4l-19.4,9.1l-4.7-1.1l20.1-8.8
					c0,0-2.8-0.2-3-0.2c-0.2,0-20,8.2-20,8.2l-3.1-1c0,0,19.4-8.2,19.3-8.2c-0.1,0-3.9-0.4-3.9-0.3c-0.1,0.1-17.8,7.4-17.8,7.4
					l-5.2-0.6l19-7.7l-2.2-0.6l-19.9,8.2l-5.8-0.8l21.2-7.9l-2.7-0.5c0,0-20.7,8.4-20.9,8.4c-0.2,0-5.1-0.6-5.1-0.6l21.8-8.5
					l-3.5-0.3l-20.6,8.1l-4.7-0.6l21.6-8.1l-3-0.5l-21,7.6c0,0-4.5-0.6-4.8-0.6c0.8-0.2,22-7.7,22-7.7s-3.1-0.6-3.1-0.5
					c0,0.1-20.1,7.5-20.1,7.5l-5.9-0.7l21.9-7.6l-2.3-0.1l-22.1,7.9c0,0-4.6-1.1-4.4-1.1c0.1,0,22.7-7.7,22.7-7.7l-3.7-0.2
					l-20.5,7.2l-3.9-1l21-7l-2.4-0.5c0,0-20.9,7.2-21,7.1C4,448.4,0,447.7,0,447.7l263.9-86.3l0.9,0.2l-3.9,2.1l1,0.1l4.3-1.8
					l1.8,0.1l-4,2l1.2,0.2l4-2l2,0.1c0,0-4.1,2-4,2.1c0.1,0.1,1.2,0.1,1.2,0.1l4.1-2l1.6,0.1l-3.1,2.2h1.4l3.5-2.1h1.7l-3.4,2.3
					c0,0,1.1,0,1.3,0c0.1,0,3.8-2,3.8-2l1.9,0.2l-3.7,2.1l1.3,0.1l3.5-1.9l2.2,0.1c0,0-3.9,2.2-3.7,2.2c0.1,0,1.3,0.1,1.3,0.1
					l3.7-2.2l2.5,0.2l-3.8,2.2h1.5l3.4-2c0,0,1.8,0.1,1.9,0.1c0,0-3,2.1-3,2.1l1.5,0l3-1.9c0,0,2.2,0,2.2,0s-3.3,2-3.3,2l1.2,0.1
					l3.6-1.9l2,0.2c0,0-3.5,2-3.3,2s1.5,0,1.5,0l3.2-1.7l2,0.2l-2.9,1.9l1,0.1l3.3-1.8h2.3l-3.6,2l1.8,0l3.2-1.6l2,0L306.4,367.7z"
					/>
			</g>
			<g>
			</g>
		</g>
	</g>
	<path class="st2" d="M256,373.8c-7.5-0.3-16.6,2.7-23.8,4.4c-4,0.9-13.1,3.7-14,8.8c-1.8,9.6,24,6.6,30.3,6.6
		c9.7,0.1,17.8,1.7,26.6,4.7c14.1,4.9,31.3,2.2,45.9,0.5c7.1-0.8,26.4-2.6,25.9-13.7c-0.4-8.7-17.5-9.2-24.1-10.9
		c-11-2.9-22.4-3.3-33.7-2.8c-6.7,0.3-13.3,1.5-19.7,1.8c-5,0.2-10.2-0.6-15,0.9"/>
	<g>
		<g>
			<g>
				<path class="st3" d="M269.7,379.1l-0.1,0.2c-27.1,11.8-31.9,3.4-31,0.6c1-2.8,10-8.5,10.4-8.6v0c2.3,0.9,4.5,1.4,7,0.9
					c-0.3,0.6-0.6,1.2-0.9,1.8c0,0,7.8,1.8,12.2,4C268.2,378.4,269,378.8,269.7,379.1z"/>
			</g>
			<g>
				<path class="st4" d="M244.6,374.5c0.3,0,12.5,0.8,15,8l9.5-3.5c0,0-11.2-4.4-12.9-4.7c-1.7-0.3-1.7-0.3-1.7-0.3l1.1-1.7
					c0,0-4.3-0.2-5.8-0.6c-1.5-0.4-2.1-0.5-2.1-0.5L244.6,374.5z"/>
			</g>
			<g>
				<path class="st5" d="M247.1,385.9c-4.2,0-6.4-1.2-7.6-2.3c-1.5-1.4-1.7-3-1.3-3.9c1.1-3,10.1-8.7,10.8-8.9l0.2,0.9l-0.1-0.5
					l0.1,0.5c-0.6,0.3-9.2,5.7-10.1,8.3c-0.2,0.7,0,1.9,1.1,2.9c1.9,1.8,8.5,4.9,29.2-4.1l0.4,0.9
					C258.9,384.5,251.8,385.9,247.1,385.9z"/>
			</g>
		</g>
		<g>
			<g>
				<path class="st3" d="M308.6,379.9c0.8,2.7,1.2,7.4,1.2,7.4s-1.4,1.7-10.4,2.8c-9.1,1.1-14.5-0.7-15.1-3.4
					c-0.5-2.2,1.9-7.4,2.8-9.3C294.2,376.6,304.2,380.1,308.6,379.9z"/>
			</g>
			<g>
				<path class="st4" d="M287.6,377.1c-0.2,0.3-1.3,4.6-1.3,4.6s10.1-0.1,13.8,1.7c3.7,1.8,7.6,4.8,7.6,4.8l1.7-0.8l-1.1-7.7
					c0,0-5.6-0.9-8.2-1.1C297.6,378.4,287.6,377.1,287.6,377.1z"/>
			</g>
			<g>
				<path class="st5" d="M294.4,391c-5.9,0-10-1.5-10.6-4.1c-0.5-2.3,1.8-7.5,2.8-9.6c0.2-0.4-0.1,0-0.1,0l1.3-0.2
					c0,0-0.1,0.2-0.3,0.6c-1.6,3.3-3.1,7.3-2.7,9c0.5,2.3,5.7,4.1,14.6,3.1c7.2-0.9,9.5-2.1,10-2.5c-0.1-1-0.5-4.8-1.2-7.1l-0.1-0.2
					c0-0.1-0.1-0.3-0.1-0.4l1,0c0.1,0.1,0-0.1,0.1,0.1l0.1,0.3c0.8,2.7,1.2,7.4,1.3,7.6l0,0.2l-0.1,0.2c-0.2,0.2-1.8,1.9-10.8,3
					C297.6,390.8,295.9,391,294.4,391z"/>
			</g>
		</g>
	</g>
	<g>
		<g>
			<g id="XMLID_12_">
				<g>
					<g>
						<path class="st6" d="M328.1,244L328.1,244c-0.4,0-1.9,2.1-1.9,2.1s-1.1,6.4-2,9.2c-0.9,2.8,5.9,2.3,6.9-4.2c0,0,1,10.3,0,13.1
							c-1,2.8-0.4,4.8,1.5,4.9c0.1,0,0.3,0,0.5-0.1c0,0,0.1,0.3,0.3,0.7l-0.3,0.2c0.2,25,10.8,78.9,11.6,82.7c0.8,3.8,4,13,4,13
							s-8.4,4.6-16.4,9c-8.6,8.2-9.8,6.2-14.2,6.6c-0.1,0-0.2,0-0.3,0c-4.4,0.2-14.4-3.3-21.6-2.5c-0.2,0-0.5,0-0.7,0.1
							c-7.4,1.2-23.2,5-26.2,2.6c-2.4-2-4-2.8-6.9-4.2c-0.7-0.4-1.5-0.7-2.3-1.2c-4.4-2.2-12.2-4-12.2-4c0.3-0.6,0.6-1.2,0.9-1.8
							c-2.4,0.5-4.7,0-7-0.9c-2.3-0.9-4.6-2.1-7.1-2.7c-5.2-1.4-7.4-6-7.4-6s1.6-1.8,4.2-4.8c3.6-4.8,7.4-35.8,8-41.8
							c0.6-6,4.7-43,6.2-56.3c0-0.1,0-0.2,0-0.4c0.1-1.1,0.2-2.2,0.3-3.4c0.1-1,0.2-2,0.3-3.1c0.1-1.7,0.3-3.5,0.4-5.3
							c0.9-13.1,1.6-29.5,2-39.2c0.5-12,3.5-47.6,4.9-53.9l-5.3-1c1.6-7.3,2.7-12.2,2.7-12.2v-0.2c1.4,0.1,3,0.4,4.5,1.1l0.4-0.2
							c1.2,2.5,2.6,4.8,3.9,6.5c5.2,6.9,13.7,14.4,24.8,11c10-3.1,28.1-20.2,31.5-23.9c3.1-3.4,9.6-5.5,15.4-3.9
							c0.3,0.5,1.9,3,3.5,7.8c1.1,3.3,2.3,7.6,3,13.2c2,14.4,10,67.9,10.6,72.5c0.6,4.6,1.6,22.4,1.6,22.4s-1.4,0.3-3.6,0.7
							C341.9,246.8,333.8,247.2,328.1,244z"/>
					</g>
					<g>
						<path class="st7" d="M342.7,267.4c-1.9,1.7-6.2,3-6.2,3l-0.1-0.1c-0.2,0.2-0.4,0.4-0.6,0.5c-1,0.7-1.9-0.3-2.4-1.1
							c-0.2-0.4-0.3-0.7-0.3-0.7c-0.2,0.1-0.3,0.1-0.5,0.1c-1.8-0.1-2.4-2.1-1.5-4.9c1-2.8,0-13.1,0-13.1c-1,6.5-7.7,7-6.9,4.2
							c0.9-2.8,2-9.2,2-9.2s1.6-2.1,1.9-2.1v0c5.7,3.3,13.7,2.8,18.3,2.2l0.1,0.8l1.8,7c0,0-0.1,3.9-0.6,7.6
							C347.3,265.2,342.8,267.5,342.7,267.4L342.7,267.4z"/>
					</g>
					<g>
						<path class="st8" d="M327.2,74.7c1-7.8,1.2-18.1-2.2-27.5c-9-20.2-27.5-29.2-42.4-30.5c-15.9-1.8-29.4,6.9-35.7,13
							c-6.2,6.1-8.9,22.7-8.9,22.7c0-2.7,0-15.2,4.8-24.1c5.3-10,15.8-21.9,32.4-26.2c16.6-4.3,35.4-0.4,50.7,14.9
							c15.3,15.3,16.3,39.7,14.9,50.3c-1.7,12.4-4.6,24.9-10.2,36.2c-1.6,3.3-3.5,6.6-5.3,9.9c-0.5,0.9-1,1.9-1.6,2.8l0.1,0.2
							c1.4-0.6,3.5-1,6-0.5c3.4,0.9-0.3,8-0.4,8.8c-0.1,0.8,4.5,2.5,6.6,4.3c2.1,1.8,2.7,4-0.5,8.2l-0.6,0.2
							c-1.6-4.8-3.2-7.3-3.5-7.8c-5.8-1.6-12.3,0.6-15.4,3.9c-3.4,3.6-21.5,20.7-31.5,23.9c-11,3.4-19.6-4.2-24.8-11
							c-1.3-1.8-2.6-4-3.9-6.5c-3.7-7.4-7-17.1-9-22.1c-2.6-6.7-5.2-22.2-5.8-27.2c-0.7-5.1-3.9-24.6-3.9-24.6l0.5,0
							c0.8,2.9,2,4.7,2.1,4.8l0.3,0c1.7,7.7,2.7,20.7,2.7,23c0,2.6,1.2,5.3,6.5,11.7c2.4,2.1,4.8,4,7.4,5.6l-0.9,1.4
							c0,0,11.8,22.2,23.2,24.2c1.9,0.2,3.9,0.1,5.9-0.2l-0.7-4.9c17.5-3.8,35.4-29.7,35.4-29.7l-1.2-1c5.6-7.1,6.6-13.6,6.7-14.1
							c0-0.2,0.6-2,1.2-4.9C326.4,79.9,326.8,77.5,327.2,74.7z"/>
					</g>
					<g>
						<path class="st3" d="M327.2,74.7c-0.3,2.8-0.8,5.2-1.2,7.1h0c-4.2-18.9-28.8-36.6-40.2-39c-15.4-3.5-27.9,1-36.6,6.5
							c-8,5.1-9.5,15.9-9.8,19.3c0.2,0.6,0.3,1.3,0.5,2.1l-0.3,0c-0.1-0.2-1.3-2-2.1-4.8c-1-3.3-1.5-8.1,0.4-13.4v0
							c0,0,2.7-16.6,8.9-22.7c6.2-6.1,19.7-14.8,35.7-13c14.9,1.3,33.4,10.3,42.4,30.5C328.4,56.6,328.2,67,327.2,74.7z"/>
					</g>
					<g>
						<g>
							<path class="st7" d="M303.7,89.6c0.5-0.2,4.2-1.7,5.9-5.7c0.3-0.6,0.3-0.6,0.3-0.6l2.3-2c0,0-4.3-6.6-14.8-6
								c-4.5,0.7-11.3,3.6-10.6,10c0.1,0,1.8-6.6,8.8-8.1c5.8-1.3,11.9,2.1,12.8,6.1C308.8,85.6,305.1,88.9,303.7,89.6z M262.7,87.3
								c0.2-0.4,0.9-2.2-0.6-5.4c-3-4.9-8.9-6.8-13.2-5c-4.4,1.8-4.4,6.1-4.4,6.1l2,0.7c0.9,3.4,4,4.9,4.4,5.1
								c-2-1.2-3.6-5.2-3.6-5.2c-0.8-3.1,3.3-6.8,9.1-5.2C263.5,80.7,262.8,86.5,262.7,87.3z M326,81.9L326,81.9
								c-0.6,2.9-1.1,4.7-1.1,4.9c-0.1,0.4-1.1,7-6.7,14.1c-4.3,5.5-11.3,11.3-22.7,14.8c-18.1,4.3-29.5,1.4-39-4.8
								c-2.6-1.7-5-3.6-7.4-5.6c-5.3-6.3-6.5-9.1-6.5-11.7c0-2.3-1-15.3-2.7-23c-0.1-0.7-0.3-1.4-0.5-2.1c0.3-3.4,1.8-14.2,9.8-19.3
								c8.7-5.4,21.1-10,36.6-6.5C297.2,45.3,321.8,62.9,326,81.9z M288.2,67.7c0,0,9.4-1.9,13.9-0.7c0,0-3.8-3.5-9-2.7
								C288.2,65.1,288.2,67.7,288.2,67.7z M300.2,88c0-1.4-1.4-2.5-3.1-2.5c-1.7,0-3.1,1.1-3.1,2.5c0,1.4,1.4,2.4,3.1,2.4
								C298.9,90.3,300.2,89.3,300.2,88z M260.3,66.2c0,0,0.2-2.6-3.7-3.1c-7.3-0.1-9.1,3.7-9.1,3.7c4.8-2.5,12.5-0.8,12.5-0.8
								L260.3,66.2z M258.7,86.6c0-1.4-1.3-2.5-3-2.5c-1.6,0-3,1.1-3,2.5c0,1.3,1.3,2.4,3,2.4C257.4,89.1,258.7,88,258.7,86.6z"/>
						</g>
					</g>
					<g>
						<path class="st8" d="M318.2,100.9l1.2,1c0,0-17.9,25.9-35.4,29.7l0.7,4.9c-2,0.3-4,0.4-5.9,0.2c-11.4-2.1-23.2-24.2-23.2-24.2
							l0.9-1.4c9.5,6.2,20.9,9.1,39,4.8C306.9,112.2,313.9,106.3,318.2,100.9z"/>
					</g>
					<g>
						<path class="st9" d="M302.1,66.9c-4.5-1.2-13.9,0.7-13.9,0.7s0-2.6,4.9-3.4C298.4,63.4,302.1,66.9,302.1,66.9z"/>
					</g>
					<g>
						<path class="st9" d="M256.7,63.1c3.9,0.5,3.7,3.1,3.7,3.1l-0.3-0.1c0,0-7.6-1.7-12.5,0.8C247.6,66.9,249.3,63,256.7,63.1z"/>
					</g>
					<g>
						<path class="st8" d="M255.7,139.9l-0.4,0.2c-1.5-0.8-3.1-1.1-4.5-1.1c-4.4-0.3-7.9,1.8-7.9,1.8c1.3-5.1,3.3-10.2,3.7-15.4
							c0.2-2.5,0.3-5,0.2-7.5C248.7,122.8,252,132.5,255.7,139.9z"/>
					</g>
					<g>
						<path class="st6" d="M242.3,244.3c-1.7-0.8-3.4-2-4.9-3.3c-0.9-0.7-1.7-1.4-2.4-2.1c-2.3-2.2-3.9-4.2-3.9-4.2s3.6-14,6.4-28.2
							c1.4-11.7,7.1-39.1,10.5-55.1l5.3,1c-1.4,6.3-4.3,41.9-4.9,53.9c-0.5,9.7-1.1,26.1-2,39.2C245.2,245.4,243.7,245,242.3,244.3z
							"/>
					</g>
					<g>
						<path class="st10" d="M245.9,253.9c-0.1,1.2-0.2,2.3-0.3,3.4c0,0.1,0,0.2,0,0.4l-0.2,0c-2.6,0.9-3.2-0.4-3.4-0.6l-0.3,0.1
							c-0.4-1.1-1.4-2.5-3-4.3c-0.3-0.3-0.3-0.3-0.3-0.3l0.6-4.5l0-0.3c1.2,0,2.5-0.8,3.4-3.5c1.4,0.7,2.9,1.1,4.2,1.2
							c-0.1,1.9-0.2,3.6-0.4,5.3C246.1,251.9,246,252.9,245.9,253.9z"/>
					</g>
					<g>
						<path class="st7" d="M241.6,257.2c0.6,1.7,0,2.6-1.5,3.1c-5.3,0-8.2-8.3-8.3-10.4c-0.1-2.2,3-10.7,3-10.7l0.2-0.3
							c0.7,0.7,1.5,1.4,2.4,2.1c-0.2,0.7-1.7,5-1.5,5.4c0.1,0.2,1.4,1.4,3,1.4l0,0.3l-0.6,4.5c0,0,0,0,0.3,0.3
							C240.3,254.6,241.2,256.1,241.6,257.2z"/>
					</g>
					<g>
						<path class="st10" d="M242.3,244.3c-0.9,2.6-2.2,3.4-3.4,3.5c-1.5,0-2.9-1.1-3-1.4c-0.2-0.4,1.3-4.7,1.5-5.4
							C238.9,242.3,240.6,243.5,242.3,244.3z"/>
					</g>
					<g>
						<g>
							<g id="XMLID_13_">
								<g>
									<path class="st3" d="M308.7,83.2c0.1,1.4,0.1,1.4,0.1,1.4s-2,3.8-4.6,4.8c-0.5,0.2-1.3,0.4-2.3,0.6c0.8-0.8,1.2-1.8,1.2-3
										c0-2.7-2.6-4.8-5.7-4.8c-3.1,0-5.7,2.2-5.7,4.8c0,1.1,0.4,2.1,1.1,2.8c-2.6-0.7-4.9-2.2-6-5.1c0,0,1.9-8,11.4-7.9
										C305.8,77.2,308.6,81.8,308.7,83.2z"/>
									<path class="st11" d="M303.1,86.9c0,1.1-0.4,2.1-1.2,3c-2.4,0.5-6.3,0.6-9.4-0.3c-0.7-0.8-0.8-1.6-0.8-2.7
										c0-2.7,2.6-4.8,5.7-4.8C300.6,82,303.1,84.2,303.1,86.9z"/>
									<path class="st3" d="M256.7,77.7c6.8,2.8,6.1,9.3,6.1,9.3s0,0-0.2,0.1c-1,0.5-1.9,1-2.8,1.3c0.7-0.8,1-1.7,1-2.6
										c0-2.4-2.5-4.2-5.2-4.2c-2.8,0-5.2,1.6-5.2,4c0,1.2,0.6,2.4,1.5,3.3c-0.6-0.2-1.2-0.6-1.7-0.9c-2.3-1.7-3.3-4.4-3.3-4.4
										C246.8,78.2,252.5,76.3,256.7,77.7z"/>
									<path class="st11" d="M260.8,85.8c0,1-0.4,1.9-1,2.6c-3.4,1.3-6,1.2-7.9,0.5c-1-0.9-1.5-2.1-1.5-3.3c0-2.4,2.5-4,5.2-4
										C258.3,81.6,260.8,83.3,260.8,85.8z"/>
								</g>
							</g>
						</g>
					</g>
					<g>
						<path class="st9" d="M312.3,81.3l-2.3,2c0,0,0,0-0.3,0.6c-1.8,4-5.4,5.5-5.9,5.7c1.3-0.7,5.1-4,4.7-6.3c-1-3.9-7-7.3-12.8-6.1
							c-7,1.5-8.7,8.1-8.8,8.1c-0.7-6.5,6.1-9.3,10.6-10C308,74.7,312.3,81.3,312.3,81.3z"/>
					</g>
					<g>
						<ellipse class="st9" cx="297.2" cy="87.9" rx="3.1" ry="2.4"/>
					</g>
					<g>
						<path class="st9" d="M262.7,87.3c0.1-0.7,0.8-6.6-6.3-9.1c-5.8-1.6-9.8,2.1-9.1,5.2c0,0,2,4.3,3.9,5.3
							c-0.4-0.2-3.8-1.7-4.7-5.1l-2-0.7c0,0,0-4.3,4.4-6.1c4.4-1.8,10.3,0.1,13.2,5C263.6,85,262.9,86.9,262.7,87.3z"/>
					</g>
					<g>
						<path class="st9" d="M255.8,84.2c1.6,0,3,1.1,3,2.5c0,1.3-1.3,2.4-3,2.4c-1.6,0-3-1.1-3-2.4C252.8,85.3,254.1,84.2,255.8,84.2
							z"/>
					</g>
				</g>
			</g>
			<g>
				<g>
					<path class="st12" d="M239.8,67.9c0,0,3.7-8.4,15.6-11.8c11.9-3.4,35.4-5.9,59.8,10.8c0,0,9.1,33.3-13.6,45.9
						c0,0,20.5-10.2,23.2-26.1c0.9-6.5,0.9-6.5,0.9-6.5s-8.3-21.1-24.8-30.2c-16.5-9.1-32.3-11.1-46.8-3.3
						C239.7,54.6,239.9,62.7,239.8,67.9z"/>
				</g>
			</g>
			<g>
				<path class="st13" d="M313.5,60c-0.3-0.3,1.9-6,1.1-7.8c-0.8-1.8-13.9-15.8-13.9-15.8s11.7,6.6,15,9.6c0,0,0.9-6,0.6-8
					c-0.4-2-18-22.5-43-20.4c0,0,8.5-3.7,26.4,3.5c14.6,8.8,15.7,11.1,18.4,14.4c2.7,3.3,9.3,15.9,9.8,23.5s-0.8,19.6-1.2,20.6
					c-0.4,1.1-0.4,1.7-0.4,1.7S319.7,67.2,313.5,60z"/>
			</g>
			<g>
				<path class="st13" d="M238.3,52.7c-0.1,0.6,6.5-11.8,16.2-18.9c0,0-10.4,5.1-15.3,12C239.1,45.9,238.6,49.8,238.3,52.7z"/>
			</g>
			<g>
				<path class="st14" d="M242.5,99.1c0.2,0.6,5.1,12.5,6.7,13.7c0,0,7,18.4,14.9,27.4c7.9,9,15.3,13.3,21.6,5.9
					c0,0-8.4,5.4-17.8-6.2c-9.4-11.7-14.4-25.4-14.4-25.4s8,3.9,9.3,4.8c1.3,0.9,18.3,16.6,34.8,3.3c0.2,0.2,12-8.5,13.7-6.5
					c1.7,2-11,18.5-29.6,25.7c0,0,17.6-1.5,31.1-14.6c1.3-0.9,0.7,1.2,0.2,2.1c-0.5,0.9-19.5,21.5-30.2,27.9c0,0,0.5,1.2,7.3-2.6
					c6.8-3.8,24.4-19.9,28.8-22.9c4.4-2.9,11.9-2.7,13.6-2c1.6,0.7,0.4,0.7,0.4,0.7l2,5.9c0,0,3.9-2.1,2.8-5
					c-1.1-2.8-6.6-5.5-7.4-5.5s-1.2,0.1-1.2,0.1s2.2-4.4,2.1-6.4c-0.1-2-0.5-4.8-6.5-3.3c0,0,10.6-21.8,13.7-36.7
					c3.1-14.9,4.4-32.3-2.2-47.2c-6.6-14.9-20.8-24.8-29.6-28.5c0,0,10.6,13.3,11.9,30.3l-0.5,1.3c0,0,14.4,15.7,8.2,46.5
					c-3.2,17.7-15.6,30.1-28.7,33.1c-13.1,3.1-36.9,8.4-54.6-18.2c0.2,0.4-0.6-1.4-0.6-1.4S242.2,98,242.5,99.1z"/>
			</g>
			<g>
				<path class="st14" d="M249.6,144.7c0,0-7.1-3.1-6-4c1.1-0.9,6.1-1.7,6.1-1.7s-2.2-13.8-2.4-14.2c-0.1-0.4,0.1-5.2,0.1-5.2
					l8.9,21l-5.5-1.4l-1.4,5.9"/>
			</g>
			<g>
				<path class="st15" d="M250.4,142.1c0,0,15.9,20.9,25.6,23.8c6.7,1.5,26.4-10.7,26.9-11.4c0.5-0.7,0.8-1.4,0.5-0.7
					c-0.4,0.7-1.7,49.2-1.4,55.2c0.2,6,1.1,29.1,1.2,29.5c0.1,0.4,1.2,39.3,0.5,57.1c-0.7,17.8,0.5,33.7,0.5,33.4
					c0-0.4,5.3-39.9,5.3-39.9s3.7,23.8,5.3,32.4c1.6,8.6,0.6,28.4,0.9,37.5s0.8,11.9-0.6,13.8c-1.4,1.9-2.6,4-2.2,5.1
					s6.5,4.8,11.1,3.2c4.9-1.8,12.3-9.3,15.7-10.7c3.4-1.4,9.3-5.1,9.4-5.7c0.1-0.6-0.5,0.3-0.6,0c-0.1-0.4-4.2-9.6-4-11.9
					c0.2-2.2,0.4-3.3,0.4-3.3s-7.8-40.1-9.3-54.5c-1.5-14.4-1.8-23.8-1.8-23.8l-1.2-1.9c0,0-2.4-0.7-2.2-1.9
					c0.1-1.2,1.3-11,1.2-11.7c-0.1-0.7-0.6-3.5-0.6-3.5s-3.3,5.1-5.4,4.5c-1.4-0.5-1.4-0.5-1.4-0.5s1.6-4.1,1.8-5.7
					c0.1-1.5,0-4.4,0-4.4l1.1-2.7l3.8,0.7c0,0-1.2-12.6-1.3-17.5c-0.1-4.8-3.5-38.2-3.4-39.5c0.1-1.3,0-3.5,0.1-5.1
					c0.1-1.5-0.6-7.5-0.5-8.3c0.1-0.7,5.8,17.2,6.7,22.1c0.9,4.8,0,11.1,0.6,12.7c0.6,1.7,0.7,3.3,0.7,3.3l1.9-3.3
					c0,0,0.7,10.3,1.2,14c0.5,3.8,0.5,6.2,0.2,7.9c-0.2,1.7,0,5.3,0.1,7.2c0.1,1.9,0.4,5.7,0.1,6.7c-0.2,1.1-0.1,1.8-0.1,1.8
					s9.4,1.7,13.4-0.7l-0.9-17c0,0-2-11.1-2.7-14.3c-0.7-3.2-7.1-52-8.1-57.7c-1.1-5.7-3.5-23.2-6.5-26.7c0,0-6-2.1-11,0.9
					c-5,3.1-20.3,16.7-25.9,20.6c-5.7,3.9-14.4,9.9-23,5.7c-8.6-4.2-16.2-16.7-16.2-16.7l-4.6-1.3L250.4,142.1z"/>
			</g>
			<g>
				<path class="st15" d="M248.4,173.4c0,0-3.9,27.8-4.4,30.3c-0.5,2.5-2.1-1.2-2.1-1.2l-1.4,39.9l6.7,3.2c0,0,0.8-29.7,0.9-32.4
					c0.1-2.7,1.5-38.2,1.5-38.6c0-0.4-1.3-1.8-1.3-1.8"/>
			</g>
			<g>
				<path class="st15" d="M275.3,231.5c0,0-4.3,73.6-4.9,86c-0.6,12.3-0.3,29.9-0.3,29.9s3.1-16.6,4-22.8s4-52.1,3.7-56.7
					C277.4,263.2,275.3,231.5,275.3,231.5z"/>
			</g>
			<g>
				<path class="st15" d="M257.4,286.6c-0.3,1.2-13.9,61.6-15.4,65.3c-1.5,3.7-4,10.5-4,10.5s13.2-30.8,16.3-39.7
					c3.1-8.9,4.6-26.2,5.2-28c0.6-1.8-2.2-9.6-2.2-9.6"/>
			</g>
			<g>
				<path class="st12" d="M332.7,245.8c0.2,0,2.4,3.3,2.3,6.3c-0.1,3-1.8,13.7-2.3,15c-0.5,1.3-0.6,2.1-0.3,2.1
					c0.4,0,1.6,1.9,2.7,1.7c1.1-0.2,1.9-0.8,1.9-0.8s0.6,0.3,2.5-0.9c1.9-1.2,2.2-1.2,2.4-1.3c0.2-0.1,1.8,0,2.9-1.5
					c1.1-1.5,3.6-7.5,3.6-7.7c0-0.2,0-3.8,0-4.4s-1.9-7.7-1.9-7.7s-9.3,0.8-13.4-0.9"/>
			</g>
			<g>
				<path class="st12" d="M238.1,242l-1.3,4.9c0,0,0.2,4.1-0.1,4.5c-0.2,0.5-1.7,6.5-0.3,7.6c1.4,1,3.3,1.5,4,1.4
					c0.7-0.1,2.5-2.6,2.5-2.6l1.9,0.2l1.5-12.5C246.4,245.4,239.3,243.6,238.1,242z"/>
			</g>
			<g>
				<g>
					<g>
						<path class="st16" d="M325.5,82c-4.1-18.5-28.3-36.2-39.8-38.7c-12.6-2.9-24.8-0.7-36.2,6.4c-7.6,4.8-9.2,14.8-9.6,18.9
							c0,0.6,0,1,0,1h-1c0,0,0-0.4,0.1-1.1c0.4-4.2,2.1-14.6,10-19.7c11.6-7.3,24-9.5,36.9-6.6c11.8,2.5,36.4,20.5,40.5,39.4
							L325.5,82z"/>
					</g>
				</g>
				<g>
					<g>
						<g>
							<path class="st16" d="M238.4,52.6l-0.9-0.3c3.4-9.3,13-17.2,13.1-17.3l-0.1,0.6C250.4,35.6,241.7,43.5,238.4,52.6z"/>
						</g>
					</g>
				</g>
				<g>
					<g>
						<path class="st16" d="M239.2,71c0,0-1.3-1.9-2.2-5c-0.9-3.2-1.6-8.2,0.4-13.7l0.9,0.3c-2,5.3-1.3,10.1-0.4,13.1
							c0.8,2.9,2,4.7,2,4.7L239.2,71z"/>
					</g>
				</g>
				<g>
					<path class="st17" d="M325.5,81.8c-0.4,2-0.8,3.4-1,4.2c-0.1,0.4-0.2,0.7-0.2,0.7c-0.2,1.2-1.4,7.3-6.6,13.8
						c-5.3,6.7-12.8,11.7-22.4,14.6c-15.9,3.8-27.8,2.3-38.7-4.7c-2.3-1.5-4.6-3.3-7.3-5.5c-5.4-6.4-6.4-8.9-6.4-11.4
						c0-2.2-1-15.2-2.7-23.1c-0.1-0.7-0.3-1.4-0.5-2c0-0.1,0-0.2-0.1-0.3l-0.9,0.4l0,0.1c0.2,0.6,0.3,1.3,0.5,2
						c1.7,7.9,2.7,20.8,2.7,22.9c0,2.7,1.1,5.4,6.7,12c2.7,2.4,5.1,4.2,7.4,5.7c7.1,4.6,14.7,6.9,23.5,6.9c4.9,0,10.1-0.7,15.9-2.1
						c9.8-3,17.5-8.1,22.9-15c5.3-6.8,6.6-13.1,6.8-14.3c0-0.1,0.1-0.3,0.2-0.6c0.2-0.7,0.5-2,0.9-3.6c-0.2-0.5-0.4-1.1-0.7-1.6
						C325.6,81.3,325.6,81.5,325.5,81.8z"/>
					<path class="st18" d="M327.7,74.8c1.3-10.5,0.5-20.1-2.3-27.7c-9.2-20.8-28.1-29.5-42.8-30.8c-19.3-2.2-33.4,10.5-36.1,13.1
						c-6.3,6.1-9,22.3-9.1,22.9l1,0.2c0-0.2,2.8-16.5,8.8-22.4c7.1-7,20.6-14.5,35.3-12.8c14.4,1.2,33,9.8,42,30.2
						c3.5,9.5,3.1,20,2.2,27.3c-0.3,2.6-0.7,4.8-1,6.3c0.3,0.5,0.5,1.1,0.7,1.6c0-0.2,0.1-0.4,0.1-0.7
						C326.8,80.4,327.3,77.9,327.7,74.8z"/>
				</g>
				<g>
					<path class="st18" d="M324.1,116.5l-0.8-0.5c0.4-0.6,0.7-1.2,1-1.8l1.2-2.2c1.6-2.8,3.2-5.7,4.6-8.7
						c4.9-9.9,8.2-21.7,10.1-36.1c1.4-10.7,0.2-34.9-14.8-49.9c-14-14-32.3-19.4-50.2-14.8c-19.1,4.9-28.8,19.8-32.1,25.9
						c-4.7,8.9-4.8,21.5-4.7,23.9v0.5h-1v-0.5c0-2.5,0-15.3,4.8-24.4c3.3-6.3,13.2-21.4,32.7-26.4c18.3-4.7,36.9,0.8,51.2,15
						c15.2,15.2,16.6,39,15.1,50.7c-2,14.5-5.3,26.4-10.2,36.4c-1.4,3-3.1,5.9-4.7,8.7l-1.2,2.2
						C324.8,115.3,324.4,115.9,324.1,116.5z"/>
				</g>
				<g>
					<path class="st18" d="M335.4,138.2l-0.4-1.3c3.1-3.9,2.5-5.8,0.6-7.5c-0.9-0.8-2.5-1.6-3.9-2.4c-2.2-1.1-3-1.6-2.9-2.4
						c0-0.2,0.1-0.5,0.4-1.1c0.6-1.6,2-5,1.2-6.5c-0.2-0.3-0.4-0.6-0.8-0.7c-2-0.4-3.9-0.2-5.7,0.5c-1.5,0.6-2.3,1.4-2.3,1.4
						l-0.7-0.7c0,0,0.9-0.9,2.6-1.6c2-0.8,4.1-0.9,6.3-0.5c0.7,0.2,1.2,0.6,1.5,1.2c1,1.9-0.4,5.4-1.2,7.3c-0.1,0.3-0.2,0.6-0.3,0.8
						c0.3,0.3,1.5,0.9,2.4,1.4c1.4,0.7,3,1.6,4,2.5C339,131,338.4,134.4,335.4,138.2z"/>
				</g>
				<g>
					<path class="st18" d="M278.9,158.8c-8.6,0-15.3-6.2-19.7-12.1c-1.3-1.7-2.6-3.9-3.9-6.6c-2.9-5.9-5.6-13.1-7.6-18.4
						c-0.5-1.4-1-2.7-1.4-3.8c-2.6-6.7-5.2-22.1-5.9-27.3c-0.6-5-3.8-26.5-3.9-26.7l0.9,2c0,0.2,3.3,19.6,3.9,24.6
						c0.7,5.2,3.3,20.5,5.8,27.1c0.4,1.1,0.9,2.4,1.4,3.8c1.9,5.3,4.6,12.5,7.5,18.3c1.3,2.6,2.6,4.8,3.8,6.5
						c5.1,6.8,13.4,14.2,24.2,10.9c9.7-3,27.6-19.7,31.3-23.7c3-3.3,9.6-5.8,15.9-4.1l0.4,0.1c0.3,0.1,0.6,0.2,0.9,0.3l-0.4,0.9
						c-0.3-0.1-0.6-0.2-0.8-0.3l-0.4-0.1c-5.9-1.6-12.1,0.8-14.9,3.8c-3.7,4-21.8,20.9-31.7,24C282.5,158.5,280.7,158.8,278.9,158.8
						z"/>
				</g>
				<g>
					<path class="st18" d="M249,144.6c-2.2-0.4-6.3-3.4-6.4-3.5l-0.3-0.2l0.1-0.3c0.4-1.5,0.8-3.1,1.3-4.6c1-3.5,2.1-7.1,2.4-10.8
						c0.2-2.5,0.3-5,0.2-7.5l1,0c0,2.5,0,5.1-0.2,7.6c-0.3,3.7-1.4,7.4-2.4,11c-0.4,1.4-0.8,2.8-1.2,4.2c0.9,0.7,4.1,2.8,5.8,3.1
						L249,144.6z"/>
				</g>
				<g>
					<path class="st18" d="M243.1,141.1l-0.5-0.8c0.1-0.1,3.7-2.1,8.2-1.8c1.7,0.1,3.3,0.5,4.7,1.2l-0.4,0.9c-1.3-0.6-2.8-1-4.3-1.1
						C246.5,139.2,243.1,141.1,243.1,141.1z"/>
				</g>
				<g>
					<path class="st18" d="M280.9,137.2c-0.7,0-1.5,0-2.2-0.1c-11.6-2.1-23.1-23.6-23.6-24.5l0.1-0.3c0.1,0.2,12.5,21.8,23.6,23.8
						c1.7,0.2,3.6,0.1,5.7-0.2c6.7-1,13.2-4.2,14.8-5.4l0.7,0.1c-1.6,1.2-8.5,5.3-15.4,6.3C283.4,137.1,282.1,137.2,280.9,137.2z"/>
				</g>
				<g>
					<path class="st18" d="M284.1,132l-0.1-0.5c17.1-3.7,34.8-29.7,35-30l-0.1,1.3C318.2,103.9,301.5,128.2,284.1,132z"/>
				</g>
				<g>
					<path class="st16" d="M326.8,75.5l-0.1-0.8c-0.2-2.1-2-13.8-8.3-21.1l1.3,0.4c6.5,7.6,7.8,18.5,8,20.6l0.1,0.8L326.8,75.5z"/>
				</g>
				<g>
					<path class="st17" d="M269.1,97.3c-0.1,0-2.9,0.2-4.3-1.5c-0.7-0.9-0.9-1.9-0.7-3.2c0.2-1,0.8-1.6,1.5-2.1
						c1.6-1.1,4-0.7,4.1-0.6l0.2,0.4c0,0-2.6,0.1-3.9,0.9c-0.5,0.4-0.9,0.9-1,1.6c-0.2,1,0,1.8,0.5,2.4c1,1.4,3.2,1.6,3.3,1.6
						L269.1,97.3z"/>
				</g>
				<g>
					<path class="st17" d="M286.1,78.6l-0.4-0.4c0.1-0.1,7.8-10.3,20-4.7l0.2,0.5C294.4,68.8,286.2,78.5,286.1,78.6z"/>
				</g>
				<g>
					<path class="st17" d="M259.9,76.8c-0.1-0.1-9.3-6.6-14.2-0.9l-0.3-0.4c5.4-6.5,15,0.4,15.1,0.5L259.9,76.8z"/>
				</g>
				<g>
					<path class="st17" d="M285,104.8c-0.7,0-1.6,0-3.2-0.1c-1.5-0.1-3.3-0.1-5-0.2c-3.9-0.1-7.8-1-8.2-1.1l0.1-0.4
						c0.3,0.1,4.1,0.4,8.1,0.5c1.7,0,3.5,0.1,5,0.2c1.7,0.1,3.6,0.2,3.9,0.1c0.1-0.1,0.2-0.3,0.2-0.3l1,0c0,0.3-0.2,0.8-0.7,1.2
						C286,104.7,285.7,104.8,285,104.8z"/>
				</g>
				<g>
					<path class="st17" d="M278.4,111.3c-1.7,0-3.4-1.2-3.4-1.3l0.4-0.3c0,0,2.3,0.8,4.1,0.4l0.2,1
						C279.3,111.3,278.8,111.3,278.4,111.3z"/>
				</g>
				<g>
					<path class="st9" d="M302.2,89.8l-0.4-0.3c0.6-0.8,0.9-1.7,0.9-2.6c0-2.6-2.5-4.7-5.5-4.7c-3,0-5.5,2.1-5.5,4.7
						c0,0.8,0.4,1.9,0.9,2.7l-0.6-0.1c-0.5-0.8-0.7-1.7-0.7-2.5c0-2.9,2.7-5.2,6-5.2c3.3,0,6,2.3,6,5.2
						C303.2,88,302.8,89,302.2,89.8z"/>
				</g>
				<g>
					<path class="st9" d="M260.6,85.9c0,1.1-0.7,2.1-1.7,2.8l0.1,0c0.2-0.1,0.6-0.1,0.8-0.2c0,0-0.1,0.1-0.1,0.1
						c0.8-0.8,1.3-1.7,1.4-2.7c0.1-1-0.3-2-1.1-2.8c-1-1.1-2.6-1.8-4.3-1.9c-0.1,0-0.2,0-0.3,0c-3,0-5.4,1.9-5.5,4.2
						c-0.1,1.1,0.5,2.4,1.5,3.3l0.6,0.1c-0.8-0.8-1.6-2.3-1.6-3.3c0.1-2.1,2.3-3.8,5-3.8c0.1,0,0.2,0,0.3,0c1.6,0.1,3.1,0.7,4,1.7
						C260.3,84.1,260.6,85,260.6,85.9z"/>
				</g>
				<g>
					<path class="st19" d="M246.9,246h-0.4c-1.4,0-2.9-0.5-4.4-1.2c-1.6-0.8-3.3-1.9-5-3.4c-0.8-0.7-1.6-1.4-2.4-2.2
						c-2.3-2.2-3.9-4.1-3.9-4.2l-0.2-0.2l0.1-0.2c0-0.1,3.6-14.2,6.4-28.2c1.3-11,6.5-36.1,10.6-55.1c1.6-7.3,2.7-12.2,2.7-12.2
						l1,0.2c0,0-1.1,4.9-2.7,12.2c-4.1,19-9.2,44-10.5,55c-2.6,13.1-5.9,26.1-6.4,28.1c0.4,0.5,1.8,2.2,3.7,3.9
						c0.8,0.8,1.6,1.5,2.4,2.1c1.7,1.4,3.3,2.5,4.8,3.2c1.4,0.7,2.8,1.1,4,1.1l0.4,0V246z"/>
				</g>
				<g>
					<path class="st19" d="M340.1,247.1c-4,0-8.6-0.6-12.2-2.7c-1.2-0.7-2.2-1.5-3-2.4l-0.1-0.2l0-0.2c0-0.1,0.4-6.6-0.4-9.9
						c-0.8-3.4-1.2-5-1.2-5l0-0.1l0-0.1c0.1-0.3,6.2-34.9,6.8-42l0.5-0.3c-0.6,6.9-6,40.3-6.4,42.4c0.1,0.4,0.5,2,1.2,4.9
						c0.7,3.1,0.5,8.7,0.4,9.9c0.8,0.8,1.6,1.4,2.7,2c5.6,3.2,13.7,2.7,18,2.1c1.5-0.2,2.6-0.4,3.2-0.6c-0.2-2.7-1-17.8-1.6-22
						c-0.3-2.1-2.1-14.6-4.3-29.1c-2.5-16.7-5.3-35.6-6.3-43.3c-0.6-4.7-1.7-9.1-3-13.1c-1.7-5-3.3-7.4-3.5-7.7l0.7-0.7l0.1,0.2
						c0.1,0.2,1.8,2.7,3.6,7.8c1.4,4,2.4,8.5,3.1,13.2c1.1,7.7,3.9,26.6,6.3,43.3c2.1,14.5,4,27,4.3,29.2c0.6,4.6,1.6,22.3,1.6,22.4
						l0,0.4l-0.4,0.1c-0.1,0-1.5,0.4-3.7,0.7C344.8,246.9,342.6,247.1,340.1,247.1z"/>
				</g>
				<g>
					<path class="st19" d="M324.5,218.3c0-0.3-2.4-26.9-2.4-34.7c0-7.9-1-22.5-2.8-28l0.3-0.8c1.8,5.6,3.4,20.8,3.4,28.8
						c0,7.7,2.4,34.3,2.4,34.6L324.5,218.3z"/>
				</g>
				<g>
					<path class="st19" d="M322.5,188c-3.4-5.2-7.1-19.7-7.2-20.3l0.3-0.4c0,0.1,3.5,13.4,6.8,18.4L322.5,188z"/>
				</g>
				<g>
					<path class="st19" d="M246.6,370.9c-1.9,0-3.6-0.5-5.1-1.1c-0.8-0.3-1.6-0.6-2.4-1c-1.5-0.6-3.1-1.3-4.7-1.7
						c-5.4-1.5-7.6-6.1-7.7-6.3l-0.1-0.3l0.2-0.2c0,0,1.6-1.8,4.2-4.8c3.3-4.5,7.1-33.7,7.9-41.6c0.3-3.3,1.7-16.1,3.2-29.5
						c1.1-10.4,2.3-20.9,2.9-26.8c0-0.1,0-0.1,0-0.2c0-0.1,0-0.2,0-0.2c0.1-1,0.2-2.1,0.3-3.4c0.1-1,0.2-2,0.3-3.1
						c0.1-1.7,0.3-3.5,0.4-5.3c0.7-10.2,1.3-22.3,1.7-32c0.1-2.7,0.2-5.1,0.3-7.2c0.5-11.6,3.4-47.5,4.9-54c0.2-0.8,0.3-1.1,0.5-1.2
						l0.6,0.8l-0.3-0.4l0.4,0.3c0,0-0.1,0.2-0.2,0.7c-1.4,6.3-4.4,42.6-4.9,53.8c-0.1,2.1-0.2,4.6-0.3,7.2c-0.4,9.7-1,21.8-1.7,32
						c-0.1,1.9-0.2,3.6-0.4,5.3c-0.1,1.1-0.2,2.1-0.3,3.1c-0.1,1.2-0.2,2.3-0.3,3.4c0,0.1,0,0.1,0,0.2c0,0.1,0,0.2,0,0.2
						c-0.6,5.8-1.8,16.3-2.9,26.7c-1.4,12.9-2.9,26.2-3.2,29.5c-0.5,5.6-4.4,37.1-8.1,42.1c-2,2.4-3.5,4-4,4.6c0.6,1,2.8,4.3,7,5.5
						c1.7,0.5,3.3,1.1,4.8,1.8c0.8,0.3,1.6,0.7,2.4,1c1.9,0.7,4.2,1.4,6.7,0.8c0.2,0,0.4-0.1,0.7-0.2l-0.5,0.9
						c-0.3,0.1,0.3,0.2,0.1,0.2C248,370.9,247.3,370.9,246.6,370.9z"/>
				</g>
				<g>
					<path class="st19" d="M273.1,382.7c-1.9,0-3.4-0.2-4.2-0.9c-2.4-1.9-4-2.8-6.8-4.2c-0.4-0.2-0.8-0.4-1.2-0.6
						c-0.3-0.2-0.7-0.4-1.1-0.6c-4.3-2.1-12-3.9-12.1-4l-0.6-0.1l0.3-0.6c0.3-0.6,0.6-1.2,0.9-1.8c8.2-17.9,11.7-51.7,11.7-52.1
						l0.6-0.2c0,0.3-3.1,34.6-11.4,52.7c-0.2,0.4-0.4,0.9-0.6,1.3c1.9,0.5,8,2,11.7,3.9c0.4,0.2,0.7,0.4,1.1,0.5
						c0.4,0.2,0.9,0.4,1.2,0.6c2.9,1.4,4.5,2.3,7,4.3c2.2,1.7,13-0.3,20.2-1.7c2.1-0.4,4.1-0.8,5.7-1l0.3,0c0.2,0,0.4,0,0.6,0
						c4.2-0.5,9.4,0.5,14,1.4c3.1,0.6,5.8,1.1,7.6,1.1l0.2,0.5l0-0.5l0.1,0c0.8-0.1,1.6-0.1,2.3,0c2.8,0,4.8,0.1,11.6-6.4l0.1-0.1
						c7-3.9,14.4-7.9,16.1-8.8c-0.6-1.8-3.2-9.3-3.9-12.7c-0.1-0.6-11.5-57.6-11.7-83.6l1.1,0.8c0.2,25.9,11.5,82.1,11.6,82.6
						c0.8,3.7,4,12.9,4,12.9l0.1,0.4l-0.4,0.2c0,0-8.4,4.6-16.4,9c-7.1,6.7-9.2,6.7-12.3,6.6c-0.7,0-1.4,0-2.2,0c-0.2,0-0.3,0-0.5,0
						c-1.8,0.1-4.5-0.4-7.7-1.1c-4.5-0.9-9.6-1.9-13.7-1.4c-0.2,0-0.3,0-0.5,0l-0.3,0c-1.5,0.3-3.5,0.6-5.6,1
						C284.1,381.4,277.5,382.7,273.1,382.7z"/>
				</g>
				<g>
					<path class="st19" d="M293.1,374.4c-1.1-8.6-3.3-40-4.2-56.7c-0.3-6.3-0.6-11.3-0.6-11.7l0.3-0.5c0.1,0.2,0.8,2.9,1.3,12.1
						c0.8,16.7,2.4,47.7,3.6,56.3L293.1,374.4z"/>
				</g>
				<g>
					<path class="st19" d="M335.1,367c-12.2-13.4-13.3-59.8-13.3-61.8l1,0c0,0.5,0.7,48.3,12.7,61.4L335.1,367z"/>
				</g>
				<g>
					<g>
						<path class="st17" d="M238.8,248.3c-1.7,0-3.2-1.3-3.3-1.7c-0.1-0.2-0.2-0.6,1.5-5.6l0.1-0.2v0c0,0,0,0.1,0,0.2h1l-0.1,0.2
							l0,0c-1.3,3.8-1.4,4.8-1.5,5c0.3,0.3,1.4,1.1,2.5,1.1c1.6,0,2.5-1.7,3-3.1c0.1-0.1,0.1-0.2,0.1-0.2l0.9,0.2
							c0,0.1-0.1,0.2-0.1,0.4c-1,3-2.7,3.7-3.8,3.7C238.9,248.3,238.8,248.3,238.8,248.3z"/>
					</g>
				</g>
				<g>
					<g>
						<path class="st17" d="M240.1,260.8c-5.6,0-8.6-8.7-8.8-10.9c-0.2-2.2,2.9-10.5,3-10.9l0.9,0.3c-0.9,2.3-3.1,8.8-2.9,10.5
							c0.1,2,2.9,10,7.8,10c0.6-0.2,1-0.5,1.2-0.9c0.2-0.4,0.2-0.9-0.1-1.6c-0.4-1.1-1.3-2.5-2.9-4.2l-0.5-0.4l0.6-4.8l1,0.1
							l-0.6,4.3l0.1,0.1c1.7,1.9,2.7,3.4,3.1,4.6c0.3,0.9,0.4,1.7,0,2.3c-0.3,0.6-0.9,1.1-1.9,1.4L240.1,260.8
							C240.1,260.8,240.1,260.8,240.1,260.8z"/>
					</g>
				</g>
				<g>
					<g>
						<path class="st17" d="M243.7,258.5c-1.3,0-1.9-0.7-2.1-1l0.6-0.8c0.1,0.1,0.1,0.1,0.2,0.2c0.3,0.3,0.8,1,2.8,0.3l0.3,0.9
							C244.8,258.4,244.2,258.5,243.7,258.5z"/>
					</g>
				</g>
				<g>
					<path class="st17" d="M246.1,254.4c-0.1,0-0.2,0-0.3,0c-0.4,0-1.1-0.2-2-0.6c-1.7-0.7-2.7-3.7-3.3-5.9c0-0.2-0.1-0.3-0.1-0.3
						l0.9-0.4c0,0,0.1,0.2,0.2,0.5c0.9,3.1,1.8,4.8,2.7,5.2c1,0.4,1.5,0.5,1.8,0.5c0.2,0,0.2,0,0.2,0l0,0.3l0.4,0.6
						C246.4,254.4,246.3,254.4,246.1,254.4z"/>
				</g>
				<g>
					<g>
						<path class="st17" d="M245.9,251.2L245.9,251.2c-0.3-0.2-1.2-1-1.7-1.9c-0.6-1.1-0.2-3.6-0.2-3.9l1,0.1
							c-0.1,0.9-0.2,2.7,0.1,3.3c0.4,0.7,1.2,1.4,1.4,1.6l0.2,0.2L245.9,251.2z"/>
					</g>
				</g>
				<g>
					<g>
						<path class="st17" d="M332.6,269.7c-0.8-0.1-1.5-0.4-1.9-1c-0.7-1-0.7-2.6,0-4.5c0.6-1.8,0.4-7.2,0.2-10.4
							c-0.9,1.9-2.4,3-3.7,3.4c-1.2,0.4-2.4,0.3-3-0.3c-0.4-0.4-0.6-1-0.4-1.7c0.8-2.8,2-9.1,2-9.2l0.1-0.2c1.7-2.3,2.1-2.3,2.3-2.3
							v0.5l0.1,0.5c-0.2,0.1-1,1-1.6,1.8c-0.2,0.9-1.2,6.5-2,9.2c-0.1,0.5,0,0.7,0.1,0.7c0.3,0.3,1,0.4,2,0.1
							c1.5-0.5,3.4-2.2,3.8-5.2l0.6-3.9l0.4,4c0,0.4,1,10.4,0,13.3c-0.5,1.6-0.6,2.9-0.1,3.7c0.2,0.4,0.6,0.6,1.1,0.6
							c0.1,0,0.1,0,0.2-0.1c1.6-0.7,4-5.5,4.3-7.4c0.4-2,0.5-5.5,0.5-5.5l0.5,0.2c0,0.1,0.4,3.3,0,5.4c-0.3,1.9-2.8,7.3-4.8,8.1
							C333.1,269.6,332.8,269.7,332.6,269.7z"/>
					</g>
				</g>
				<g>
					<g>
						<path class="st17" d="M335.1,271.5c-0.6,0-1.3-0.3-2.1-1.5c-0.2-0.4-0.4-0.7-0.4-0.7l0.9-0.4c0,0,0.1,0.3,0.3,0.6
							c0.9,1.4,1.5,1,1.7,0.9c0.2-0.1,0.4-0.3,0.5-0.4c1.6-1.5,4.1-5.1,4.5-5.7c0.1-0.8,1.4-5.9,1-8.1l0.5,0
							c0.4,2.5-0.6,8.1-0.6,8.4l-0.1,0.2c-0.1,0.2-2.9,4.3-4.7,6c-0.2,0.2-0.5,0.4-0.7,0.6C335.8,271.3,335.5,271.5,335.1,271.5z"/>
					</g>
				</g>
				<g>
					<g>
						<path class="st17" d="M336.6,270.8l-0.3-0.9c0,0,4.2-1.3,6-2.9c0.2-0.2,0.3-0.3,0.5-0.5c1.3-1.8,1.5-2.6,1.5-2.6
							c0,0,0.9-7.5,0.9-8.6l0.6,0c0,1.1-0.5,8.4-0.5,8.7c0,0.1-0.2,1.1-1.7,3.1c-0.2,0.2-0.3,0.4-0.6,0.6
							C341.1,269.5,336.8,270.8,336.6,270.8z"/>
					</g>
				</g>
				<g>
					<g>
						<path class="st17" d="M343,267.9l-0.4-0.9c0,0,4.3-2.2,4.8-5.5c0.4-3.4,0.6-7,0.6-7.5l-2.1-7.6l0.9-0.2l2.1,7.7l0,0.1
							c0,0-0.1,4-0.6,7.7C347.8,265.5,343.2,267.8,343,267.9z"/>
					</g>
				</g>
			</g>
			<circle class="st3" cx="256.3" cy="84.1" r="1.4"/>
			<circle class="st3" cx="299.5" cy="85.6" r="1.3"/>
		</g>
		<path class="st20" d="M291.7,80.9c0.5-0.2,1.1-0.2,1.7-0.3c0.7-0.1,1.3-0.2,2-0.2c3.6-0.3,7,0.1,9.9,2.2c0.3,0.2,0.8,0.6,1.2,0.6
			c0.8,0,0.8-1.2,0.6-1.6c-1.3-2.7-5.2-3.8-8.3-3.5c-1,0.1-2.2,0.3-3.2,0.7C294.1,79.3,292.8,80.1,291.7,80.9z"/>
		<path class="st20" d="M258.6,80.6c-0.3-0.2-0.8-0.2-1.1-0.2c-0.4-0.1-0.9-0.1-1.3-0.1c-2.5-0.2-4.7,0.1-6.7,1.5
			c-0.2,0.2-0.5,0.4-0.8,0.4c-0.5,0-0.5-0.8-0.4-1.1c0.9-1.8,3.5-2.5,5.6-2.4c0.7,0.1,1.5,0.2,2.2,0.4
			C256.9,79.5,257.8,80,258.6,80.6z"/>
		
			<ellipse transform="matrix(0.9913 -0.1317 0.1317 0.9913 -10.2688 40.502)" class="st21" cx="301.1" cy="97.9" rx="9.2" ry="4.6"/>
		
			<ellipse transform="matrix(0.2382 -0.9712 0.9712 0.2382 101.81 319.5702)" class="st21" cx="254.6" cy="94.9" rx="4.1" ry="8.1"/>
	</g>
</g>
</svg>
