<?xml version="1.0" encoding="utf-8"?>
<!-- Generator: Adobe Illustrator 21.1.0, SVG Export Plug-In . SVG Version: 6.00 Build 0)  -->
<svg version="1.1" id="Layer_1" xmlns="http://www.w3.org/2000/svg" xmlns:xlink="http://www.w3.org/1999/xlink" x="0px" y="0px"
	 viewBox="0 0 382.6 498.2" style="enable-background:new 0 0 382.6 498.2;" xml:space="preserve">
<style type="text/css">
	.st0{fill:#019147;}
	.st1{fill:#FFDE4C;}
	.st2{opacity:0.4;fill:#028142;}
	.st3{fill:#FFFFFF;}
	.st4{fill:#D2DCE0;}
	.st5{fill:#868C8E;}
	.st6{fill:#66BFEB;}
	.st7{fill:#A3CD3A;}
	.st8{fill:#FFE6BD;}
	.st9{fill:#231F20;}
	.st10{fill:#FFDEAB;}
	.st11{fill:#693B17;}
	.st12{fill:#F7CC98;}
	.st13{fill:#D2DDE1;}
	.st14{fill:#8CB33E;}
	.st15{fill:#4CA7D3;}
	.st16{fill:#868B8D;}
	.st17{fill:#8E4C2B;}
	.st18{fill:#4E6430;}
	.st19{fill:#285779;}
	.st20{fill:#DAE1F2;}
	.st21{fill:#FCCFB7;}
</style>
<g>
	<g>
		<g id="XMLID_63_">
			<g>
				<path class="st0" d="M366,379.5c0,0-17.2,16.5-29.2,26.1c-13.5,9.8-58.9,9.8-58.9,9.8c-24.8,33.7-105.5,29.7-105.5,29.7
					c-16.2-6.7-18.1-13.2-11-20.5c8.9-8.6,42.7-18.1,42.7-18.1c-21.2-9.2-6.4-14.4-3.7-16c2.7-1.5,58.3-21.2,58.3-21.2L366,379.5z"
					/>
				<path class="st1" d="M258.6,369.4c0,0-55.5,19.6-58.3,21.2c-2.7,1.5-17.5,6.7,3.7,16c0,0-33.7,9.5-42.7,18.1
					c-7,7.4-5.2,13.8,11,20.5c0,0,80.7,4,105.5-29.7c0,0,45.4,0,58.9-9.8c12-9.5,29.2-26.1,29.2-26.1L258.6,369.4z M280,470.4
					L61,435.6l197.6-67.6l113.2,10.4L280,470.4z"/>
				<path class="st0" d="M61,435.6l219,34.8l91.7-92.1l-113.2-10.4L61,435.6z M38.6,446.2l-22.2,8c0,0-4.6-1.2-4.4-1.2
					c0.1,0,22.8-7.7,22.8-7.7l-3.7-0.2l-20.6,7.2l-3.9-1l21.1-7.1l-2.4-0.5c0,0-21,7.2-21.1,7.1C4,450.8,0,450.2,0,450.2l265.4-86.8
					l0.9,0.2l-3.9,2.1l1,0.1l4.3-1.8l1.8,0.1l-4,2l1.2,0.2l4-2l2,0.1c0,0-4.1,2-4,2.1c0.1,0.1,1.3,0.1,1.3,0.1l4.1-2l1.6,0.1
					l-3.1,2.2h1.4l3.5-2.1h1.7l-3.5,2.3c0,0,1.1,0,1.3,0c0.1,0,3.8-2,3.8-2l1.9,0.2l-3.7,2.1l1.3,0.1l3.6-1.9l2.3,0.1
					c0,0-3.9,2.2-3.8,2.2c0.1,0,1.3,0.1,1.3,0.1l3.8-2.2l2.5,0.2l-3.8,2.2h1.5l3.4-2c0,0,1.8,0.1,1.9,0.1c0,0-3,2.1-3,2.1l1.5,0
					l3-1.9c0,0,2.2,0,2.3,0c0.1,0-3.3,2-3.3,2l1.2,0.1l3.6-1.9l2,0.2c0,0-3.5,2-3.3,2s1.5,0,1.5,0l3.2-1.7l2,0.2l-2.9,1.9l1.1,0.1
					l3.3-1.8h2.3l-3.7,2l1.8,0l3.3-1.6l2,0l-2.9,1.9l1.6,0.1l3-1.7l2.1,0.1l-3,1.9l1.4,0l3-1.7l2.2,0.1c0,0-3.2,2-2.9,2
					c0.2,0,1.4,0,1.4,0l3-1.9l2,0.2l-2.9,1.8h1.8l2.3-1.5l2.6,0.1l-3.1,1.8l1.5,0l3.1-1.8l2.1,0.1c0,0-3.1,2.2-3,2.2
					c0.1,0,1.2,0,1.2,0l2.9-1.8l2.5-0.1c0,0-2.8,2.1-2.7,2.1c0.1,0,1.4,0.1,1.4,0.1l2.8-1.8l2.6,0.1l-2.8,1.8l1.5,0l2.7-1.8l2.5,0.3
					c0,0-3.1,1.9-2.9,1.9c0.1,0,1.5,0.1,1.5,0.1l2.6-1.8h2.4l-2.8,2.1l1.3,0.2l2.8-2l2.3,0.1l-2.5,2l1.6,0.1l2.3-1.8l2.3,0
					c0,0-2.5,2-2.4,2c0.1,0,1.6,0,1.6,0l2.2-1.9l2.3,0.2l-2.2,2l1.5,0l2.2-1.8h2.5l-2.1,2.1l1.3-0.1l2.3-1.8l2.1,0.1
					c0,0-2.2,2.2-2.1,2.2c0.1,0,1.6,0,1.6,0l2.1-1.8h2.2l-2,2l1.6-0.1c0,0,2.1-1.7,2.3-1.7c0.1,0,2.4,0.2,2.4,0.2l-2.3,2.3l1.7-0.1
					l1.9-1.8l2.2,0.1l-1.8,2.2l1.4,0l1.9-1.8l2.1,0.1l-1.6,1.9l1.8,0.2l1.4-1.7l3.1,0.2l-99.9,112.5l-1.6-0.3L270,498.2
					c0,0-5.6-0.8-5.8-0.8c0.1,0,10.8-11.5,10.8-11.5s-3.8-1-3.7-0.8c0,0.1-11.5,11.6-11.5,11.6c-0.2,0-5.3-1.2-5.3-1.2
					s11.5-11.2,11.2-11.2c-0.3,0-3.9-0.8-4.4-0.5c-0.5,0.3-11,11-11.1,11s-5.2-1.4-5.2-1.6c0.1-0.1,11.4-10.6,11.4-10.6l-3.7-0.7
					c0,0-10.8,10.1-11,10.1c-0.1,0-5.9-0.6-5.8-0.7c0.1,0,11.3-10.4,11.3-10.4s-4.4-0.4-4.4-0.4c0.1,0-11.5,10.3-11.6,10.2
					c-0.1-0.1-5.8-0.1-5.8-0.1l12.5-11.3c0,0-4-0.5-3.9-0.4c0.1,0-13.3,11-13.3,11l-5.9-0.5l14.1-11.4l-4-0.6l-13.3,11.2l-5-1.6
					l13-10.4c0,0-3.5-0.8-3.6-0.8c-0.1,0-12.5,10.1-12.5,10.1s-6-1-6-1.1c0.2,0,13.8-9.7,13.9-9.7c0.1,0-3.9-0.6-3.8-0.5
					c0,0.1-13.7,9.6-13.7,9.6l-4.8-0.9l13.8-9.9l-3.9-0.4l-13.8,9.6l-5-1l14.2-9.4l-3.8-0.5c0,0-14.2,9.4-14.4,9.4
					c-0.1,0-6.2-0.1-6.2-0.1c0.1,0,16-10.2,16-10.2s-3.5-0.5-3.7-0.5c0.1,0-15.2,10-15.2,10l-5.5-0.9c0,0,16-10,15.9-10
					c-0.1,0-3.9-0.5-3.9-0.5l-15.9,9.9l-4.4-0.9c0,0,16-9.8,15.9-9.8s-4-0.2-4-0.2l-15.5,9l-5-0.5l16.3-9.7l-3.8-0.5l-16.8,9.7l-5-1
					l17.7-9.7c0,0-3.8-0.5-3.9-0.5c-0.1,0.1-17.9,10-17.9,10l-4.2-1.3c0,0,17.6-9.5,17.5-9.5c-0.2,0-3.7-0.2-3.7-0.2l-15.8,8.7
					l-6.1-0.7c0.2,0,17.9-9.1,17.8-9.1c-0.1,0-3.6-0.4-3.6-0.4l-16.1,8.5l-5.5-0.9l17.5-8.6l-3.4-0.3l-17.8,8.6l-4.6-0.8l17.9-8.7
					l-4.2-0.6l-16.2,8.3c0,0-6.7-0.2-6.7-0.3c0.1-0.1,19.2-9,19.2-9l-3.7-0.2l-16.4,8.1c0,0-7.2-0.3-7.1-0.3
					c0.1,0,19.5-8.8,19.5-8.8l-3.3-0.3L83,465.5l-5-0.8l20.3-9.1l-3.5-0.4l-19.5,9.2l-4.7-1.1l20.2-8.9c0,0-2.8-0.2-3-0.2
					c-0.2,0-20.1,8.3-20.1,8.3l-3.1-1c0,0,19.5-8.2,19.4-8.2c-0.1,0-3.9-0.4-4-0.3c-0.1,0.1-17.9,7.5-17.9,7.5l-5.2-0.6l19.1-7.8
					l-2.3-0.6l-20,8.2l-5.8-0.8l21.4-8l-2.7-0.5c0,0-20.9,8.4-21.1,8.4c-0.2,0-5.1-0.6-5.1-0.6l21.9-8.6l-3.5-0.3l-20.7,8.1
					l-4.8-0.6l21.7-8.2l-3-0.5L31,456c0,0-4.5-0.6-4.8-0.6c0.8-0.2,22.1-7.7,22.1-7.7s-3.1-0.6-3.1-0.5c0,0.1-20.2,7.5-20.2,7.5
					L19,454l22-7.7L38.6,446.2z"/>
			</g>
			<g>
			</g>
		</g>
	</g>
	<path class="st2" d="M257.4,375.8c-7.5-0.3-16.7,2.7-24,4.4c-4,0.9-13.1,3.8-14.1,8.9c-1.8,9.6,24.1,6.6,30.5,6.7
		c9.7,0.1,17.9,1.7,26.7,4.8c14.2,4.9,31.5,2.2,46.1,0.5c7.1-0.8,26.5-2.6,26.1-13.7c-0.4-8.7-17.6-9.2-24.3-11
		c-11.1-2.9-22.5-3.3-33.9-2.8c-6.7,0.3-13.4,1.5-19.8,1.8c-5.1,0.2-10.3-0.6-15.1,0.9"/>
	<g>
		<g>
			<path class="st3" d="M271,380.7l-0.1,0.2c-27.1,11.8-31.9,3.4-31,0.6c1-2.8,10-8.5,10.4-8.6v0c2.3,0.9,4.5,1.4,7,0.9
				c-0.3,0.6-0.6,1.2-0.9,1.8c0,0,7.8,1.8,12.2,4C269.5,380,270.3,380.4,271,380.7z"/>
		</g>
		<g>
			<path class="st4" d="M245.9,376.2c0.3,0,12.5,0.8,15,8l9.5-3.5c0,0-11.2-4.4-12.9-4.7c-1.7-0.3-1.7-0.3-1.7-0.3l1.1-1.7
				c0,0-4.3-0.2-5.8-0.6c-1.5-0.4-2.1-0.5-2.1-0.5L245.9,376.2z"/>
		</g>
		<g>
			<path class="st5" d="M248.4,387.5c-4.2,0-6.4-1.2-7.6-2.3c-1.5-1.4-1.7-3-1.3-3.9c1.1-3,10.1-8.7,10.8-8.9l0.2,0.9l-0.1-0.5
				l0.1,0.5c-0.6,0.3-9.2,5.7-10.1,8.3c-0.2,0.7,0,1.9,1.1,2.9c1.9,1.8,8.5,4.9,29.2-4.1l0.4,0.9
				C260.2,386.1,253.1,387.5,248.4,387.5z"/>
		</g>
	</g>
	<g>
		<g>
			<path class="st3" d="M309.7,381.4c0.8,2.7,1.2,7.4,1.2,7.4s-1.4,1.7-10.4,2.8c-9.1,1.1-14.5-0.7-15.1-3.4
				c-0.5-2.2,1.9-7.4,2.8-9.3C295.3,378.1,305.3,381.7,309.7,381.4z"/>
		</g>
		<g>
			<path class="st4" d="M288.8,378.6c-0.2,0.3-1.3,4.6-1.3,4.6s10.1-0.1,13.8,1.7c3.7,1.8,7.6,4.8,7.6,4.8l1.7-0.8l-1.1-7.7
				c0,0-5.6-0.9-8.2-1.1C298.8,379.9,288.8,378.6,288.8,378.6z"/>
		</g>
		<g>
			<path class="st5" d="M295.5,392.5c-5.9,0-10-1.5-10.6-4.1c-0.5-2.3,1.8-7.5,2.8-9.6c0.2-0.4-0.1,0-0.1,0l1.3-0.2
				c0,0-0.1,0.2-0.3,0.6c-1.6,3.3-3.1,7.3-2.7,9c0.5,2.3,5.7,4.1,14.6,3.1c7.2-0.9,9.5-2.1,10-2.5c-0.1-1-0.5-4.8-1.2-7.1l-0.1-0.2
				c0-0.1-0.1-0.3-0.1-0.4l1,0c0.1,0.1,0-0.1,0.1,0.1l0.1,0.3c0.8,2.7,1.2,7.4,1.3,7.6l0,0.2l-0.1,0.2c-0.2,0.2-1.8,1.9-10.8,3
				C298.8,392.4,297.1,392.5,295.5,392.5z"/>
		</g>
	</g>
	<g>
		<g>
			<g>
				<g id="XMLID_21_">
					<g>
						<g>
							<path class="st6" d="M346.5,354.6c-0.8-3.8-11.2-56.9-11.6-82.4c-1.6-1.2-3-2.7-4.3-4.5c-0.6-0.8,0-1.7,0.8-1.9
								c0-0.1,0-0.2,0-0.3c-0.4,0.3-0.8,0.6-1.3,0.9c-1.3,0.9-2.6-1-1.6-2.1c0.7-0.7,1.4-1.4,2.1-2.1c-0.5-0.2-0.9-0.7-0.9-1.3
								c-1,0.7-2.1,1.4-3.1,2c-1.1,0.7-2.7-0.7-1.8-1.8c0.7-1,1.5-1.9,2.2-2.7c-0.8-0.2-1.2-0.7-1-1.6c0,0,0,0,0,0
								c-0.7,0.5-1.3,0.9-2,1.3c-1.4,0.8-2.6-1-1.6-2.1c1.3-1.5,2.6-2.9,4-4.3c-0.5-0.4-0.6-1.3-0.2-1.9c-0.3-0.5-0.4-1.2,0.1-1.7
								c0.3-0.3,0.5-0.5,0.8-0.8c-0.2-0.5-0.2-1.1,0.2-1.5c0,0,0.1-0.1,0.1-0.1c-0.3-0.5-0.3-1.1,0.1-1.7c0,0,0.1-0.1,0.1-0.1
								c-1-0.1-1.8-1.3-0.8-2.2c0.1-0.1,0.3-0.2,0.4-0.3c-0.5-0.5-0.7-1.4-0.1-2c0.2-0.2,0.4-0.4,0.5-0.5c-0.6,0.1-1.3-0.3-1.4-0.9
								c0-0.2-0.1-0.4-0.1-0.6c0,0,0,0-0.1-0.1c-0.8,0.7-2.1,0.4-2.2-0.9c-0.2-2.5-0.1-4.7,0.3-7.2c0.1-0.4,0.3-0.6,0.5-0.8
								c0.1-1.1,0.2-2.1,0.2-3.2c0-0.1,0-0.2,0.1-0.3c0-0.2-0.1-0.3-0.1-0.5c-0.3-0.2-0.5-0.5-0.5-1v-2.1c-0.1-1.6,0-3.3,0-5
								c0-0.3,0.1-0.6,0.3-0.8c0-0.4,0.1-0.8,0.1-1.3c-0.2-0.3-0.2-0.7,0-1c-0.1-0.2-0.1-0.3-0.1-0.5c0-0.2,0-0.4,0-0.6
								c-0.3-0.2-0.5-0.6-0.5-1c-0.2-5.7-1.3-11.3-1.3-17c0-0.7,0.5-1.1,1.1-1.3c0-0.4-0.1-0.9-0.1-1.3c-0.3-1.3-0.7-2.6-1.1-3.8
								c-0.2-0.1-0.4-0.3-0.5-0.5c-2.7-6-5-11.9-6.2-18.4c-0.1-0.7,0.3-1.3,0.8-1.6c0-0.3-0.1-0.5-0.1-0.8c-0.1-1.4,1.8-1.7,2.5-0.7
								c0.3,0.4,0.5,0.8,0.8,1.3c-0.3-2.3-0.3-4.7,0-7c0.1-1,1.2-1.2,2-0.8c0-1.7-0.1-3.5,0-5.2c0.1-1.5,2.2-1.8,2.6-0.4
								c0.7,2.2,1.4,4.4,1.9,6.6c3.6-2.9,7.3-5.4,11.7-7c0.1,0,0.1,0,0.2,0c0.5-0.3,0.9-0.5,1.4-0.8c0-0.3-0.1-0.6-0.1-0.9
								c-0.8-5.5-1.9-9.9-3-13.2c-1.6-4.8-3.2-7.4-3.6-7.8c-5.8-1.6-12.4,0.6-15.5,4c-3.4,3.7-21.6,20.9-31.7,24
								c-11.1,3.4-19.7-4.2-24.9-11.1c-1.3-1.8-2.7-4.1-3.9-6.6l-0.4,0.2c-1.5-0.8-3.1-1.1-4.6-1.2v0.2c0,0-0.8,3.4-1.9,8.6
								c0.7,0,1.4,0.5,1.5,1.3c0,0,0,0.1,0,0.1c0.4,0.2,0.7,0.6,0.8,1.2c0,0.3,0,0.5,0,0.8c0.1,0.3,0.2,0.6,0.3,0.9l2.1,0.4
								c-1.4,6.3-3.7,42-4.2,54.1c-0.5,9.8-1.8,26.4-2.7,39.6c-0.1,1.9-0.2,3.7-0.4,5.4c-0.1,1.1-0.2,2.1-0.3,3.1
								c-0.1,1.2-0.2,2.4-0.3,3.4c0,0.1,0,0.2,0,0.4c-1.4,13.4-5.6,50.6-6.2,56.6c-0.6,6-4.4,37.2-8.1,42.1c-2.6,3-4.2,4.8-4.2,4.8
								s2.2,4.6,7.5,6c2.5,0.7,4.8,1.9,7.2,2.7c2.3,0.9,4.6,1.4,7,0.9c-0.3,0.6-0.6,1.2-0.9,1.8c0,0,7.9,1.8,12.3,4
								c0.9,0.4,1.6,0.8,2.3,1.2c2.9,1.4,4.5,2.3,6.9,4.3c3,2.4,18.9-1.4,26.4-2.6c0.2,0,0.5-0.1,0.7-0.1c7.2-0.9,17.3,2.7,21.7,2.5
								c0.1,0,0.2,0,0.3,0c4.4-0.4,5.6,1.6,14.3-6.6c8.1-4.4,16.5-9.1,16.5-9.1S347.4,358.4,346.5,354.6z"/>
						</g>
						<g>
							<path class="st7" d="M329,75.1c1-7.8,1.2-18.2-2.3-27.6c-9-20.3-27.6-29.4-42.6-30.7c-16-1.8-29.6,6.9-35.9,13.1
								c-6.3,6.1-9,22.8-9,22.8c0-2.7,0-15.3,4.8-24.3c5.4-10,15.9-22,32.6-26.3c16.7-4.3,35.6-0.4,51,15
								c15.4,15.4,16.4,39.9,15,50.6c-1.7,12.5-4.6,25.1-10.2,36.4c-1.6,3.4-3.5,6.6-5.4,9.9c-0.5,0.9-1.1,1.9-1.6,2.8l0.1,0.2
								c1.4-0.6,3.5-1,6-0.5c3.4,0.9-0.3,8.1-0.4,8.9c-0.1,0.8,4.6,2.5,6.7,4.3c2.1,1.8,2.7,4-0.5,8.2l-0.6,0.2
								c-1.6-4.8-3.2-7.4-3.6-7.8c-5.8-1.6-12.4,0.6-15.5,4c-3.4,3.7-21.6,20.9-31.7,24c-11.1,3.4-19.7-4.2-24.9-11.1
								c-1.3-1.8-2.7-4.1-3.9-6.6c-3.8-7.5-7.1-17.2-9-22.2c-2.6-6.8-5.2-22.3-5.9-27.4c-0.7-5.1-3.9-24.8-3.9-24.8l0.5,0
								c0.8,2.9,2,4.7,2.1,4.9l0.3,0c1.7,7.8,2.7,20.8,2.7,23.1c0,2.6,1.2,5.4,6.5,11.7c2.4,2.1,4.8,4,7.4,5.6l-0.9,1.4
								c0,0,11.9,22.3,23.3,24.4c1.9,0.2,3.9,0.1,5.9-0.2l-0.7-4.9c17.6-3.8,35.6-29.8,35.6-29.8l-1.2-1c5.6-7.1,6.6-13.7,6.7-14.2
								c0-0.2,0.6-2,1.2-5C328.2,80.4,328.6,77.9,329,75.1z"/>
						</g>
						<g>
							<path class="st3" d="M329,75.1c-0.3,2.8-0.8,5.2-1.2,7.2h0c-4.2-19-28.9-36.8-40.4-39.2c-15.5-3.5-28,1.1-36.8,6.5
								c-8.1,5.1-9.6,16-9.9,19.4c0.2,0.6,0.3,1.3,0.5,2.1l-0.3,0c-0.1-0.2-1.3-2-2.1-4.9c-1-3.4-1.5-8.2,0.4-13.5v0
								c0,0,2.7-16.7,9-22.8c6.3-6.1,19.8-14.9,35.9-13.1c15,1.3,33.6,10.3,42.6,30.7C330.2,56.9,330,67.3,329,75.1z"/>
						</g>
						<g>
							<g>
								<path class="st8" d="M305.4,90.1c0.5-0.2,4.2-1.7,5.9-5.7c0.3-0.6,0.3-0.6,0.3-0.6l2.3-2c0,0-4.3-6.6-14.9-6.1
									c-4.5,0.7-11.4,3.6-10.7,10.1c0.1,0,1.8-6.7,8.8-8.1c5.9-1.3,11.9,2.1,12.9,6.1C310.5,86.1,306.8,89.4,305.4,90.1z
									 M264.2,87.7c0.2-0.4,0.9-2.3-0.6-5.5c-3-4.9-8.9-6.8-13.3-5c-4.4,1.8-4.5,6.1-4.5,6.1l2,0.7c0.9,3.4,4.1,4.9,4.4,5.1
									c-2-1.2-3.6-5.3-3.6-5.3c-0.8-3.1,3.3-6.8,9.1-5.3C265,81.1,264.3,87,264.2,87.7z M327.8,82.3L327.8,82.3
									c-0.6,2.9-1.1,4.7-1.2,5c-0.1,0.4-1.1,7-6.7,14.2c-4.3,5.5-11.4,11.3-22.8,14.9c-18.2,4.3-29.7,1.4-39.2-4.8
									c-2.6-1.7-5-3.6-7.4-5.6c-5.4-6.4-6.5-9.1-6.5-11.7c0-2.4-1.1-15.3-2.7-23.1c-0.1-0.7-0.3-1.4-0.5-2.1
									c0.3-3.4,1.8-14.3,9.9-19.4c8.7-5.5,21.3-10,36.8-6.5C298.8,45.5,323.6,63.3,327.8,82.3z M289.8,68c0,0,9.4-1.9,14-0.7
									c0,0-3.8-3.5-9.1-2.7C289.8,65.4,289.8,68,289.8,68z M301.9,88.5c0-1.4-1.4-2.5-3.1-2.5c-1.7,0-3.1,1.1-3.1,2.5
									c0,1.4,1.4,2.4,3.1,2.4C300.6,90.8,301.9,89.8,301.9,88.5z M261.8,66.6c0,0,0.2-2.6-3.7-3.1c-7.4-0.1-9.1,3.7-9.1,3.7
									c4.9-2.5,12.5-0.8,12.5-0.8L261.8,66.6z M260.1,87.1c0-1.4-1.3-2.5-3-2.5c-1.6,0-3,1.1-3,2.5c0,1.3,1.3,2.5,3,2.5
									C258.8,89.6,260.1,88.5,260.1,87.1z"/>
							</g>
						</g>
						<g>
							<path class="st7" d="M319.9,101.4l1.2,1c0,0-18,26.1-35.6,29.8l0.7,4.9c-2,0.3-4,0.4-5.9,0.2c-11.5-2.1-23.3-24.4-23.3-24.4
								l0.9-1.4c9.6,6.2,21.1,9.1,39.2,4.8C308.5,112.8,315.6,106.9,319.9,101.4z"/>
						</g>
						<g>
							<path class="st9" d="M303.8,67.3c-4.5-1.2-14,0.7-14,0.7s0-2.6,4.9-3.4C300,63.8,303.8,67.3,303.8,67.3z"/>
						</g>
						<g>
							<path class="st9" d="M258.1,63.5c3.9,0.5,3.7,3.1,3.7,3.1l-0.3-0.1c0,0-7.7-1.7-12.5,0.8C249,67.2,250.7,63.4,258.1,63.5z"/>
						</g>
						<g>
							<path class="st7" d="M257.1,140.7l-0.4,0.2c-1.5-0.8-3.1-1.1-4.6-1.2c-4.4-0.3-8,1.8-8,1.8c1.3-5.1,3.3-10.2,3.7-15.5
								c0.2-2.5,0.3-5.1,0.2-7.6C250.1,123.5,253.4,133.2,257.1,140.7z"/>
						</g>
						<g>
							<path class="st10" d="M247,250.4c0.3,0.3,0.4,0.7,0.3,1.2c-0.5,2.6-1,5.1-1.4,7.7c0.2,0,0.5-0.1,0.8-0.2l0.2,0
								c0-0.1,0-0.2,0-0.4c0.1-1.1,0.2-2.2,0.3-3.4c0.1-1,0.2-2,0.3-3.1c0.1-1.7,0.3-3.5,0.4-5.4c-0.2,0-0.4,0-0.5-0.1
								C247.2,248,247.1,249.2,247,250.4z"/>
						</g>
						<g>
							<g>
								<g id="XMLID_22_">
									<g>
										<path class="st3" d="M310.4,83.7c0.1,1.4,0.1,1.4,0.1,1.4s-2,3.8-4.6,4.8c-0.5,0.2-1.3,0.4-2.3,0.6c0.8-0.8,1.2-1.8,1.2-3
											c0-2.7-2.6-4.9-5.7-4.9c-3.2,0-5.7,2.2-5.7,4.9c0,1.1,0.4,2.1,1.1,2.8c-2.6-0.7-4.9-2.2-6.1-5.1c0,0,1.9-8.1,11.5-8
											C307.4,77.6,310.3,82.3,310.4,83.7z"/>
										<path class="st11" d="M304.8,87.3c0,1.1-0.4,2.2-1.2,3c-2.4,0.5-6.3,0.6-9.5-0.3c-0.7-0.8-0.8-1.6-0.8-2.7
											c0-2.7,2.6-4.9,5.7-4.9C302.2,82.5,304.8,84.7,304.8,87.3z"/>
										<path class="st3" d="M258.1,78.1c6.8,2.8,6.1,9.3,6.1,9.3s0,0-0.2,0.1c-1,0.5-1.9,1-2.8,1.3c0.7-0.8,1-1.7,1-2.7
											c0-2.5-2.5-4.2-5.3-4.2c-2.8,0-5.3,1.6-5.3,4c0,1.2,0.6,2.4,1.5,3.3c-0.6-0.2-1.2-0.6-1.7-0.9c-2.3-1.7-3.4-4.5-3.4-4.5
											C248.2,78.6,253.9,76.7,258.1,78.1z"/>
										<path class="st11" d="M262.2,86.2c0,1-0.4,1.9-1,2.7c-3.4,1.3-6,1.2-8,0.5c-1-0.9-1.5-2.1-1.5-3.3c0-2.5,2.5-4,5.3-4
											C259.7,82,262.2,83.8,262.2,86.2z"/>
									</g>
								</g>
							</g>
						</g>
						<g>
							<path class="st9" d="M314,81.8l-2.3,2c0,0,0,0-0.3,0.6c-1.8,4-5.5,5.5-5.9,5.7c1.4-0.7,5.1-4,4.7-6.3c-1-4-7-7.4-12.9-6.1
								c-7.1,1.5-8.7,8.1-8.8,8.1c-0.7-6.5,6.1-9.4,10.7-10.1C309.7,75.1,314,81.8,314,81.8z"/>
						</g>
						<g>
							<ellipse class="st9" cx="298.8" cy="88.4" rx="3.1" ry="2.4"/>
						</g>
						<g>
							<path class="st9" d="M264.2,87.7c0.1-0.7,0.8-6.6-6.4-9.2c-5.8-1.6-9.9,2.2-9.1,5.3c0,0,2,4.3,4,5.3
								c-0.4-0.2-3.8-1.7-4.8-5.1l-2-0.7c0,0,0-4.3,4.5-6.1c4.4-1.8,10.3,0.1,13.3,5C265.1,85.5,264.4,87.4,264.2,87.7z"/>
						</g>
						<g>
							<path class="st9" d="M257.2,84.6c1.6,0,3,1.1,3,2.5c0,1.3-1.3,2.5-3,2.5c-1.6,0-3-1.1-3-2.5
								C254.2,85.8,255.5,84.6,257.2,84.6z"/>
						</g>
					</g>
				</g>
				<g>
					<g>
						<path class="st12" d="M241.1,68.3c0,0,3.7-8.4,15.7-11.9c12-3.4,35.6-5.9,60.1,10.9c0,0,9.1,33.4-13.6,46.1
							c0,0,20.6-10.2,23.4-26.2c1-6.5,1-6.5,1-6.5s-8.3-21.2-24.9-30.4c-16.6-9.1-32.5-11.1-47.1-3.3
							C241,54.9,241.3,63.1,241.1,68.3z"/>
					</g>
				</g>
				<g>
					<path class="st13" d="M315.2,60.4c-0.3-0.3,1.9-6,1.1-7.8c-0.8-1.8-14-15.9-14-15.9s11.7,6.6,15.1,9.6c0,0,0.9-6,0.6-8.1
						c-0.4-2-18.1-22.6-43.3-20.5c0,0,8.5-3.7,26.6,3.6c14.7,8.9,15.8,11.1,18.5,14.5c2.7,3.3,9.4,16,9.8,23.6
						c0.5,7.6-0.8,19.7-1.2,20.8c-0.4,1.1-0.4,1.7-0.4,1.7S321.5,67.6,315.2,60.4z"/>
				</g>
				<g>
					<path class="st13" d="M239.6,53c-0.1,0.6,6.5-11.9,16.2-19c0,0-10.4,5.1-15.4,12.1C240.4,46.1,239.9,50,239.6,53z"/>
				</g>
				<g>
					<path class="st14" d="M243.8,99.6c0.2,0.6,5.1,12.6,6.8,13.8c0,0,7,18.5,14.9,27.5c7.9,9,15.4,13.4,21.7,5.9
						c0,0-8.4,5.5-17.9-6.3c-9.5-11.7-14.5-25.5-14.5-25.5s8.1,3.9,9.4,4.9c1.3,0.9,18.4,16.7,35,3.3c0.2,0.2,12.1-8.5,13.8-6.5
						c1.7,2-11,18.6-29.8,25.8c0,0,17.7-1.5,31.3-14.7c1.3-0.9,0.7,1.2,0.2,2.1c-0.5,0.9-19.6,21.6-30.4,28.1c0,0,0.5,1.2,7.3-2.6
						c6.9-3.8,24.5-20,28.9-23c4.4-3,12-2.7,13.6-2c1.7,0.7,0.4,0.7,0.4,0.7l2,5.9c0,0,3.9-2.1,2.8-5c-1.1-2.8-6.6-5.6-7.5-5.6
						c-0.8,0-1.2,0.1-1.2,0.1s2.3-4.4,2.1-6.4c-0.1-2-0.5-4.9-6.5-3.3c0,0,10.7-21.9,13.8-36.9c3.1-14.9,4.4-32.5-2.3-47.4
						c-6.6-14.9-20.9-24.9-29.8-28.7c0,0,10.7,13.4,12,30.5l-0.5,1.3c0,0,14.5,15.8,8.3,46.7c-3.2,17.8-15.6,30.2-28.8,33.3
						c-13.2,3.1-37.1,8.4-54.9-18.3c0.2,0.4-0.6-1.4-0.6-1.4S243.5,98.5,243.8,99.6z"/>
				</g>
				<g>
					<path class="st14" d="M251,145.5c0,0-7.1-3.1-6-4c1.1-0.9,6.2-1.7,6.2-1.7s-2.3-13.9-2.4-14.2c-0.1-0.4,0.1-5.2,0.1-5.2
						l8.9,21.1l-5.5-1.4l-1.4,5.9"/>
				</g>
				<g>
					<path class="st15" d="M276.8,232.7c0,0-4.3,74-5,86.4c-0.6,12.4-0.3,30-0.3,30s3.1-16.7,4-22.9c0.9-6.2,4-52.4,3.7-57
						C279,264.6,276.8,232.7,276.8,232.7z"/>
				</g>
				<g>
					<path class="st15" d="M258.8,288.2c-0.3,1.2-13.9,62-15.5,65.7c-1.5,3.7-4,10.5-4,10.5s13.3-31,16.4-40
						c3.1-9,4.6-26.3,5.3-28.2c0.6-1.9-2.2-9.6-2.2-9.6"/>
				</g>
				<g>
					<g>
						<g>
							<path class="st16" d="M327.3,82.4c-4.1-18.6-28.4-36.4-40-38.9c-12.7-2.9-25-0.7-36.4,6.5c-7.6,4.8-9.3,14.9-9.6,19
								c0,0.6,0,1,0,1h-1c0,0,0-0.4,0.1-1.1c0.4-4.3,2.1-14.7,10.1-19.8c11.7-7.3,24.2-9.5,37.1-6.6c11.8,2.6,36.6,20.6,40.8,39.6
								L327.3,82.4z"/>
						</g>
					</g>
					<g>
						<g>
							<g>
								<path class="st16" d="M239.7,52.9l-0.9-0.3c3.4-9.4,13-17.3,13.1-17.4l-0.1,0.6C251.7,35.8,243,43.7,239.7,52.9z"/>
							</g>
						</g>
					</g>
					<g>
						<g>
							<path class="st16" d="M240.6,71.4c0,0-1.3-1.9-2.2-5c-0.9-3.2-1.6-8.2,0.4-13.8l0.9,0.3c-2,5.3-1.3,10.1-0.4,13.2
								c0.8,2.9,2,4.7,2,4.7L240.6,71.4z"/>
						</g>
					</g>
					<g>
						<path class="st17" d="M327.3,82.2c-0.4,2-0.8,3.5-1,4.3c-0.1,0.4-0.2,0.7-0.2,0.7c-0.2,1.2-1.4,7.3-6.6,13.9
							c-5.3,6.8-12.9,11.7-22.5,14.7c-16,3.8-28,2.3-38.9-4.7c-2.3-1.5-4.6-3.3-7.3-5.5c-5.4-6.4-6.4-9-6.4-11.4
							c0-2.2-1-15.3-2.7-23.2c-0.1-0.7-0.3-1.4-0.5-2c0-0.1,0-0.2-0.1-0.3l-0.9,0.4l0,0.1c0.2,0.6,0.3,1.3,0.5,2
							c1.7,7.9,2.7,20.9,2.7,23c0,2.7,1.1,5.4,6.7,12.1c2.8,2.4,5.1,4.2,7.5,5.7c7.2,4.6,14.8,6.9,23.7,6.9c4.9,0,10.2-0.7,16-2.1
							c9.8-3.1,17.6-8.1,23-15.1c5.4-6.8,6.6-13.2,6.8-14.4c0-0.1,0.1-0.3,0.2-0.6c0.2-0.7,0.5-2,0.9-3.6c-0.2-0.5-0.4-1.1-0.7-1.6
							C327.4,81.7,327.4,82,327.3,82.2z"/>
						<path class="st18" d="M329.5,75.2c1.3-10.5,0.5-20.2-2.3-27.9c-9.2-20.9-28.3-29.7-43-30.9c-19.4-2.2-33.6,10.6-36.3,13.2
							c-6.3,6.2-9,22.4-9.1,23.1l1,0.2c0-0.2,2.8-16.6,8.8-22.5c7.1-7,20.7-14.6,35.5-12.9c14.5,1.3,33.2,9.9,42.2,30.3
							c3.5,9.5,3.1,20.2,2.2,27.4c-0.3,2.6-0.7,4.8-1,6.4c0.3,0.5,0.5,1.1,0.7,1.6c0-0.2,0.1-0.4,0.1-0.7
							C328.6,80.8,329.1,78.3,329.5,75.2z"/>
					</g>
					<g>
						<path class="st18" d="M325.9,117.1l-0.8-0.5c0.4-0.6,0.7-1.2,1-1.8l1.2-2.2c1.6-2.8,3.2-5.8,4.7-8.7
							c4.9-9.9,8.2-21.8,10.2-36.3c1.4-10.8,0.2-35.1-14.9-50.2C313.2,3.4,294.8-2,276.8,2.6c-19.2,4.9-29,19.9-32.3,26.1
							c-4.8,9-4.8,21.6-4.8,24v0.5h-1v-0.5c0-2.5,0-15.3,4.9-24.5c3.4-6.3,13.3-21.5,32.9-26.6c18.4-4.7,37.1,0.8,51.4,15.1
							c15.3,15.3,16.7,39.2,15.1,51c-2,14.6-5.3,26.6-10.3,36.6c-1.5,3-3.1,5.9-4.7,8.8l-1.2,2.2
							C326.6,115.9,326.2,116.5,325.9,117.1z"/>
					</g>
					<g>
						<path class="st18" d="M337.3,139l-0.4-1.3c3.1-4,2.5-5.9,0.6-7.6c-1-0.8-2.5-1.6-3.9-2.4c-2.2-1.1-3.1-1.6-2.9-2.4
							c0-0.2,0.1-0.5,0.4-1.1c0.6-1.6,2-5,1.2-6.5c-0.2-0.3-0.5-0.6-0.8-0.7c-2-0.4-3.9-0.2-5.7,0.5c-1.5,0.6-2.3,1.4-2.3,1.4
							l-0.7-0.7c0,0,0.9-0.9,2.6-1.6c2-0.8,4.1-0.9,6.3-0.5c0.7,0.2,1.2,0.6,1.5,1.2c1,1.9-0.4,5.5-1.2,7.4
							c-0.1,0.3-0.2,0.6-0.3,0.8c0.3,0.3,1.5,1,2.4,1.4c1.4,0.7,3,1.6,4.1,2.5C340.8,131.8,340.3,135.1,337.3,139z"/>
					</g>
					<g>
						<path class="st18" d="M250.4,145.4c-2.2-0.4-6.3-3.4-6.5-3.5l-0.3-0.2l0.1-0.3c0.4-1.5,0.8-3.1,1.3-4.6
							c1-3.5,2.1-7.2,2.4-10.8c0.2-2.5,0.3-5,0.2-7.5l1,0c0,2.5,0,5.1-0.2,7.6c-0.3,3.8-1.4,7.5-2.4,11c-0.4,1.4-0.8,2.8-1.2,4.2
							c0.9,0.7,4.1,2.8,5.8,3.1L250.4,145.4z"/>
					</g>
					<g>
						<path class="st18" d="M244.4,141.9l-0.5-0.8c0.1-0.1,3.8-2.1,8.2-1.9c1.7,0.1,3.3,0.5,4.8,1.2l-0.4,0.9
							c-1.3-0.7-2.8-1-4.4-1.1C247.9,139.9,244.5,141.9,244.4,141.9z"/>
					</g>
					<g>
						<path class="st18" d="M282.4,137.9c-0.8,0-1.5,0-2.2-0.1c-11.6-2.1-23.2-23.7-23.7-24.6l0.1-0.3c0.1,0.2,12.6,21.9,23.7,24
							c1.7,0.2,3.7,0.1,5.8-0.2c6.7-1,13.3-4.2,14.9-5.4l0.7,0.1c-1.7,1.2-8.6,5.3-15.5,6.3C285,137.8,283.7,137.9,282.4,137.9z"/>
					</g>
					<g>
						<path class="st18" d="M285.6,132.7l-0.1-0.5c17.2-3.7,35-29.9,35.2-30.2l-0.1,1.3C319.9,104.5,303.2,128.9,285.6,132.7z"/>
					</g>
					<g>
						<path class="st16" d="M328.6,76l-0.1-0.8c-0.2-2.1-2-13.9-8.4-21.2l1.3,0.4c6.6,7.6,7.8,18.6,8,20.8l0.1,0.8L328.6,76z"/>
					</g>
					<g>
						<path class="st17" d="M270.6,97.8c-0.1,0-3,0.2-4.3-1.5c-0.7-0.9-0.9-2-0.7-3.2c0.2-1,0.8-1.6,1.5-2.1c1.7-1.1,4-0.7,4.1-0.6
							l0.2,0.4c0,0-2.6,0.1-3.9,0.9c-0.5,0.4-0.9,0.9-1,1.6c-0.2,1,0,1.8,0.5,2.4c1.1,1.4,3.3,1.6,3.3,1.6L270.6,97.8z"/>
					</g>
					<g>
						<path class="st17" d="M287.7,79.1l-0.4-0.4c0.1-0.1,7.8-10.3,20.1-4.8l0.2,0.5C296,69.2,287.8,79,287.7,79.1z"/>
					</g>
					<g>
						<path class="st17" d="M261.4,77.2c-0.1-0.1-9.4-6.7-14.3-0.9l-0.3-0.4c5.5-6.5,15,0.4,15.1,0.5L261.4,77.2z"/>
					</g>
					<g>
						<path class="st17" d="M286.5,105.3c-0.7,0-1.6,0-3.2-0.1c-1.5-0.1-3.3-0.1-5-0.2c-3.9-0.1-7.9-1-8.2-1.1l0.1-0.4
							c0.3,0.1,4.2,0.5,8.2,0.5c1.7,0,3.5,0.1,5,0.2c1.7,0.1,3.6,0.2,3.9,0.1c0.1-0.1,0.2-0.3,0.2-0.3l1,0c0,0.3-0.2,0.8-0.7,1.2
							C287.6,105.3,287.2,105.3,286.5,105.3z"/>
					</g>
					<g>
						<path class="st17" d="M280,111.9c-1.7,0-3.4-1.2-3.5-1.3l0.4-0.3c0,0,2.3,0.8,4.2,0.4l0.2,1
							C280.8,111.9,280.4,111.9,280,111.9z"/>
					</g>
					<g>
						<path class="st9" d="M303.9,90.3l-0.4-0.3c0.6-0.8,0.9-1.7,0.9-2.6c0-2.6-2.5-4.8-5.5-4.8c-3,0-5.5,2.1-5.5,4.8
							c0,0.8,0.5,2,0.9,2.7l-0.6-0.1c-0.5-0.8-0.7-1.7-0.7-2.5c0-2.9,2.7-5.3,6-5.3c3.3,0,6,2.4,6,5.3
							C304.9,88.5,304.5,89.5,303.9,90.3z"/>
					</g>
					<g>
						<path class="st9" d="M262,86.4c0,1.1-0.7,2.1-1.7,2.8l0.1,0c0.2-0.1,0.6-0.1,0.8-0.2c0,0-0.1,0.1-0.1,0.1
							c0.8-0.8,1.3-1.7,1.4-2.8c0.1-1-0.3-2-1.1-2.9c-1-1.1-2.6-1.8-4.4-1.9c-0.1,0-0.2,0-0.3,0c-3,0-5.4,1.9-5.5,4.3
							c-0.1,1.1,0.6,2.4,1.5,3.3l0.6,0.1c-0.8-0.8-1.6-2.4-1.6-3.3c0.1-2.1,2.3-3.8,5-3.8c0.1,0,0.2,0,0.3,0c1.6,0.1,3.1,0.7,4,1.7
							C261.7,84.6,262.1,85.5,262,86.4z"/>
					</g>
					<g>
						<path class="st19" d="M250.7,148.6c1.1-5.2,1.9-8.6,1.9-8.6l-1-0.2c0,0-0.8,3.5-1.9,8.8C250,148.5,250.4,148.5,250.7,148.6z"
							/>
					</g>
					<g>
						<path class="st19" d="M339.2,151.5c0,0.3,0.1,0.7,0.2,1.1c0.3-0.2,0.6-0.3,0.9-0.5c0-0.2-0.1-0.5-0.1-0.7
							c-0.7-4.8-1.7-9.3-3.1-13.3c-1.7-5.1-3.4-7.7-3.6-7.9l-0.1-0.2l-0.7,0.7c0.2,0.3,1.8,2.7,3.5,7.7
							C337.6,142.3,338.6,146.8,339.2,151.5z"/>
					</g>
					<g>
						<path class="st19" d="M294.7,376.5c-1.1-8.6-3.4-40.2-4.2-57c-0.3-6.3-0.6-11.3-0.6-11.7l0.3-0.5c0.1,0.2,0.9,2.9,1.3,12.2
							c0.9,16.8,2.4,48,3.6,56.6L294.7,376.5z"/>
					</g>
					<g>
						<path class="st19" d="M336.9,369c-12.3-13.5-13.4-60.1-13.4-62.1l1,0c0,0.5,0.7,48.5,12.8,61.7L336.9,369z"/>
					</g>
				</g>
				<circle class="st3" cx="257.7" cy="84.6" r="1.4"/>
				<circle class="st3" cx="301.1" cy="86.1" r="1.3"/>
			</g>
			<path class="st20" d="M293.3,81.4c0.5-0.3,1.1-0.2,1.7-0.3c0.7-0.1,1.3-0.2,2-0.2c3.7-0.3,7.1,0.1,10,2.2
				c0.3,0.2,0.8,0.6,1.2,0.6c0.8,0,0.8-1.2,0.6-1.6c-1.4-2.7-5.2-3.8-8.4-3.5c-1,0.1-2.2,0.3-3.2,0.7
				C295.8,79.7,294.4,80.5,293.3,81.4z"/>
			<path class="st20" d="M260,81.1c-0.3-0.2-0.8-0.2-1.1-0.2c-0.4-0.1-0.9-0.1-1.3-0.1c-2.5-0.2-4.8,0.1-6.7,1.5
				c-0.2,0.2-0.5,0.4-0.8,0.4c-0.5,0-0.5-0.8-0.4-1.1c0.9-1.8,3.5-2.6,5.6-2.4c0.7,0.1,1.5,0.2,2.2,0.4
				C258.4,80,259.3,80.5,260,81.1z"/>
			
				<ellipse transform="matrix(0.9913 -0.1317 0.1317 0.9913 -10.3257 40.7265)" class="st21" cx="302.8" cy="98.4" rx="9.2" ry="4.7"/>
			
				<ellipse transform="matrix(0.2382 -0.9712 0.9712 0.2382 102.3737 321.3376)" class="st21" cx="256" cy="95.4" rx="4.1" ry="8.1"/>
		</g>
		<g id="XMLID_19_">
			<g>
				<path class="st6" d="M255.1,143.6c0-0.8,0.7-1.3,1.4-1.3c-1.8-2.5-3.6-5.1-4.7-7.7c-3.3-0.9-5.7-0.2-5.9-0.2l-0.2,0.2
					c-0.9-1.3-1.8-2.3-2-2.5c-0.5-0.4-2.3,2.5-2.3,2.5l-0.5,0c-0.2-3.8-0.9-8-1.4-9.4c-0.7-1.9-1.9-7.6-2.3-8.8
					c0.5-1,0.8-1.8,0.7-2.2c-0.2-1.1-3-8.9-3.5-9.6c-0.6,0.2-1.3,0.4-1.8,0.7l0.1,0.2c0,0-1.6,10.2-6.5,17l-0.2-0.1
					c0,0-4.7-2.3-7-5.3l0.2-0.2c0-2-0.7-10.1-0.7-10.1c-0.3-0.3-0.5-0.6-0.8-1l-0.1,0.1c0,0-3.2,8.7-1.9,12c0.3,0.9,0.8,2.1,1.3,3.3
					c0,0-0.2,19.1,0.2,25.4c0.4,6.2,2.3,15.1,8.4,19.4c4.2,3,22.2,2.1,28.5-2.7l0.2,0c0.6-7.6,1-13.6,1.3-16.4
					C255.2,145.8,255.1,144.8,255.1,143.6z"/>
				<path class="st6" d="M266.4,159.4c-2.2-3-4.2-6.2-6-9.4c-0.7-0.8-1.4-1.6-2.1-2.3c1.2,4.6,4.2,8.5,7.5,12.2
					C266,159.7,266.2,159.5,266.4,159.4z"/>
				<path class="st6" d="M360.4,125.6c1.4-2.5,2.5-4.6,2.6-4.9c0.2-0.9-4.8-8.1-6.1-9.3c-0.2,0.5-0.5,0.9-0.7,1.3l0.8,0.3
					c-1.6,9.1-12,15.8-14.1,14.5c-0.9-0.6-1.5-2.4-1.9-4.2l0.2,0c0-0.6-0.1-5-0.5-6.8l-0.6,0c0,0-2.7,4.8-3.2,7
					c-0.6,2.3,1.6,6.8,1.7,7.4c0,0.3,0.1,0.4,0.1,1.1c-3.6-1-7.3-1.6-11-2.3c0.7,0.3,1.1,1.1,0.7,1.9c-3.2,5.8-8.2,10.2-13.9,13.3
					c-1.9,2.3-3.9,4.5-5.9,6.4c-2.2,2.6-4.5,5.1-7.1,7.4c-0.3,0.2-0.6,0.3-0.9,0.3c-1.8,1.7-3.7,3.4-5.7,4.9c0,0,0,0-0.1,0.1
					c0,0,0,0,0,0c-0.1,0.1-0.2,0.1-0.3,0.2c-0.5,0.3-0.9,0.3-1.3,0c-1.2,1-2.4,2-3.6,3c0,0-0.1,0.1-0.1,0.1c0,0,0,0,0,0
					c-0.1,0.1-0.2,0.1-0.3,0.2c-0.6,0.4-1.1,0.3-1.5-0.1c-0.6,0.2-1.2,0.3-1.8,0.5c0.2,0.9-0.4,2-1.6,1.7c-0.3-0.1-0.5-0.2-0.8-0.3
					c-0.3,0.3-0.7,0.4-1.2,0.3c-1.4-0.4-2.7-0.9-4-1.5c0.3,0.7,0.6,1.5,0.9,2.3c0.4,1.3-1.3,2.2-2.2,1.3c-1.4-1.3-2.8-2.6-4.1-4
					c-0.6-0.1-1.1-0.6-1.1-1.2c-1.3-1.4-2.5-2.9-3.6-4.3c-0.2,0.1-0.3,0.1-0.5,0.2c1.2,1.4,2.5,2.7,3.5,4.1c1.1,1.3-0.8,3.2-1.9,1.9
					c-5.2-6.5-12.5-12.7-14-21.2c-0.2,2.9-0.7,8.9-1.3,16.4c-1.4,17.8-3.4,44.1-4.1,57.9c20,9.1,41.9,10.7,63.5,13
					c6.9,0.7,12.8,1.8,19.7,1.7c-1.3-23.1-1.9-58.8-1.9-58.8l0.2-0.3c4.6,4.2,9.4,5.7,10.8,5.5c2.3-0.4,7.4-5.4,11.4-13.3
					c3.9-7.9,5.1-11.8,5.7-16c0.7-4.2,1.5-26.9,1.3-27.3L360.4,125.6z"/>
				<path class="st8" d="M243.1,90.3c0.7,1.5-2.3,4.5-2.9,5.8c-1,1.9-1.6,4-2.2,6.1c-0.5,1.7-0.9,1.8-2.7,2.2
					c-0.3,0.1-0.6,0.2-1,0.3c-0.6,0.2-1.3,0.4-1.8,0.7l0.1,0.2c0,0-1.6,10.2-6.5,17l-0.2-0.1c0,0-4.7-2.3-7-5.3l0.2-0.2
					c0-2-0.7-10.1-0.7-10.1c-0.3-0.3-0.5-0.6-0.8-1c-5.5-7.5-2.2-14.8-2-16.2c0.2-1.6,1-8.6,0.9-9.1c-0.1-0.5-1.9-5.1-0.9-7
					c1-1.8,2.8-0.6,2.8-0.6l0.3-0.1c-0.9-2.3-0.9-6.1,0.5-6.7c1.6-0.7,3.3,0.3,3.3,0.3l0.2,0c0.3-0.7,0.8-1.2,1.7-1.1
					c2.8,0.1,4.7,3.6,5.3,4.6c0.5,0,1,0.2,1.6,0.6c2.5,1.5,5.6,9,6.1,10.7c0.4,1.7,0.5,9,0.5,9l0,0.1
					C239.6,89.6,242.3,88.8,243.1,90.3z"/>
				<path class="st8" d="M344,89.2c-0.3-1.3-6.3-7.2-6.3-10.6c0-0.3,0-0.7,0.2-0.9c1.4-3,4.5-1.7,4.5-1.7l0.3,0.5
					c-0.3,0.1-0.5,0.4-0.7,0.6c-1.6,2.1,4.3,8.7,4.3,8.7s0.4,0.8,0.4,1.4c0.1,0.5,1.3,7,1.3,7.3l0.1,0.5c-1.2,0.3-2.2,0.6-3.1,0.9
					C345,94.8,344.4,90.4,344,89.2z"/>
				<path class="st8" d="M337.7,78.6c0,3.4,6,9.4,6.3,10.6c0.3,1.3,1,5.6,1,6.6c0.9-0.3,2-0.6,3.1-0.9l-0.1-0.5
					c0-0.3-1.2-6.8-1.3-7.3c-0.1-0.5-0.4-1.4-0.4-1.4s-5.9-6.6-4.3-8.7c0.2-0.3,0.4-0.5,0.7-0.6c1.8-1,5.1,0.4,7.7,2.6l0.1,0.2
					c0.3-0.2,0.8-0.2,1.3-0.2c2,0.4,6.6,7.3,7.3,10c0.7,2.7,1.4,14.6,0.6,16.9c-0.5,1.3-1.7,3.6-2.8,5.5c-0.2,0.5-0.5,0.9-0.7,1.3
					l0.8,0.3c-1.6,9.1-12,15.8-14.1,14.5c-0.9-0.6-1.5-2.4-1.9-4.2l0.2,0c0-0.6-0.1-5-0.5-6.8c0-0.3-0.1-0.5-0.2-0.6
					c-0.6-1.1-6.1-4.2-6.7-6c-0.6-1.8-4.9-7.5-5.8-10.1c-0.9-2.6,4.8-5,10,2.8l0.3,0.1c0.4-2,1.3-6.6,0.7-9.1
					c-0.8-3.4-4.9-9.9-1.8-14.8L337.7,78.6z"/>
			</g>
		</g>
		<path class="st15" d="M362.4,122c0.1-2.4-3.8-6.2-6-8c-0.1,4-3.1,6.7-5.2,9.6c-1.3,1.8-2.3,3.8-4.7,4c-1.6,0.1-4.3-0.9-5.2-2.1
			c-1.7-2.3,0.4-5.9,0-8.5c-2.8,0.8-5,4.7-4.9,7.5c0.1,3.2,2.3,5.2,1.7,8.2c-0.4-1.5-0.7-0.5-2.3-1.3c-1.4-0.7-4.5-1.6-6.1-1.6
			c-5.6,0.1-8.7,0.8-12.5,4.5c-3.3,3.3-6.5,6.1-9.9,9.4c-3.6,3.4-6.6,6.1-11.1,8.6c-4.2,2.4-8.7,5.6-13.5,6.3
			c-4.8,0.8-9.2,0.5-12.6-3.1c-1.1-1.2-4.1-2.2-4.9-3.6c-1.5-2.9-3.7-4.2-5.7-6.6c-2.6-3.2-2.2-8.1-6.1-9.6
			c-2.8-1.1-3.7-1.2-6.3-2.2c-0.2,0.4-0.6,0.7-0.8,1.1c-0.9-0.8-1.7-1.6-2.8-2c-0.9,1.1-1.5,2.4-2.8,3c-0.2-2.6,0.6-5.3,0-7.9
			c-0.5-2.3-1.7-4.7-2.6-6.8c-0.4-0.9-1.4-2.1-1.4-3c0-0.9,0.9-2,0.8-3.1c-0.2-1-1.9-3-2.4-4.2c-0.2-0.5-0.4-1-0.6-1.4l0.1-0.3
			c0,0-0.1,0.1-0.1,0.2c-0.3-0.8-0.6-1.5-0.9-2.3c-2.4,0.9-1.5,2.7-0.5,4.2c-2.8,4.9-2.9,12.1-7.2,16.1c3.3,1.7,3.1,6.3,4.2,9.5
			c0.6,1.9,1.3,3.8,1.7,5.7c0.8,3.2,1,6.5,1,9.9c0,2.9,0.2,6.3-1,9c-1.2,2.5-4.4,3.4-5.6,5.5c2.5,2.3,5.7,1.1,8.7,0.7
			c3.2-0.5,6.3-0.7,9.5-1.1c4.4-0.6,8.4-2.7,11.1-6.1c1.6-2.1,2.5-5.3,4.3-7.4c5.4,6,12.5,12.9,17.8,14.5c2.5,0.6,6.7-0.7,11.1-2.6
			c5.9-0.8,11.8-3.6,14.8-8c0.3-0.2,0.5-0.3,0.6-0.4c-0.1,2-0.2,3.9-0.2,6c0,1.9,0.3,3.7,0.7,5.4c-0.5,15.1-1,38.9-0.9,43
			c0.2,6,1.1,29.3,1.2,29.6c0.1,0.4,1.2,39.5,0.5,57.4c-0.7,17.9,0.5,33.9,0.5,33.6c0-0.4,5.3-40.1,5.3-40.1s3.7,24,5.3,32.6
			c1.7,8.7,0.6,28.6,0.9,37.7s0.8,12-0.6,13.9c-1.4,1.9-2.6,4-2.3,5.1c0.4,1.1,6.5,4.9,11.1,3.2c4.9-1.8,12.3-9.4,15.8-10.8
			c3.4-1.4,9.4-5.1,9.5-5.7c0.1-0.6-0.5,0.3-0.6,0c-0.1-0.4-4.3-9.7-4-11.9c0.2-2.3,0.4-3.3,0.4-3.3s-7.8-40.3-9.4-54.8
			c-1.5-14.3-1.8-23.7-1.8-23.9c-0.3-0.2-0.6-0.4-0.9-0.7c-0.1-1.4-0.3-2.8-0.5-3.9c0.4-12.1-0.9-22.3-1.1-33.2
			c0.1,0,0.2-0.1,0.4-0.1c-1-4-1.7-8-1.7-12.6c0-4.6,0-8.5,0.2-13c0.3-5.4,0.3-11.8-0.3-17.2c-0.6-4.8-0.9-8.8-0.6-13.7
			c3.8,1.5,8.3,4.5,12.7,4c2.1-0.2,3.2-1.8,4.2-3.5c1.1-1.9,2.3-3.6,3.8-5.4c1.3-1.6,3.2-3.4,3.8-5.4c0.6-1.8,0.2-3.8,1.1-5.7
			c1.8-4.1,2.5-8.2,3.1-12.5c0.5-3.3,0-6.4,0.2-9.7c0.2-3.4,1.4-6.5,0.7-9.9c-0.2-0.9-1.7-2.5-1.7-3.3
			C359.1,124.9,362.3,124.1,362.4,122z"/>
		<path class="st12" d="M230.9,70.5c-2.6,0.7,2.9,9.2,3.5,10.9c1.8,4.6-1.4,7.9-1.1,12.5c1.3-1.3,6-6.8,7.3-3
			c-1.8,2.3-2.3,5.2-3.9,7.7c-2.5,4-5.5,4.2-9,6.6c-1.7,1.2-1.5,1.1-1.4,3.4c0.1,1.8,0,3.3-0.5,5c-1.4,4.3-3.7,4.6-7.4,1.9
			c-0.5,2.1,2,3.8,3.6,4.6c1.7,0.9,2.1,3.4,4.2,1.5c3.2-2.9,4.9-10.3,5-14.4c1.6-0.9,4.5-2.3,5.6-3.8c1.3-1.8,1.4-4.6,2.5-6.6
			c0.9-1.6,2.9-3.3,3.4-5c1.3-3.9-3.1-2.5-5.3-2.6c0.9-2.7,0-8.1-1-10.6c-0.6-1.6-3.3-8.1-5.2-7.6"/>
		<path class="st12" d="M351.2,78.6c-2.4,1.3,1,5.8,1.7,7.5c0.9,2.3,2.1,5.7,1.8,8.1c-4.7,0.3-8.6,0-12.8,2.1
			c3.6,0.5,7.8-1.1,11.7-0.9c1.3,4.3,0.8,8.2-0.4,12.7c-1.6,6.1-3.1,9.5-9.9,9.3c-0.6,2-1.2,9.2,2.1,9.4c1.5,0.1,4.7-3.9,5.9-5.1
			c2.1-2.2,4.1-5.4,5.2-8.3c1.7-4.2,4.1-7.7,4.3-12.3c0.2-3.7,0.1-7.8-1.2-11c-0.8-1.9-6.4-11.6-8-10.4"/>
		<g>
			<g>
				<g>
					<path class="st17" d="M231.8,106.7l-0.4,0c0.2-0.5,0.2-1.4,0.9-1.8c0.6-0.3,1.3-0.6,1.9-0.8l1.1-0.3c1.6-0.4,1.8-0.5,2.2-1.9
						l0.2-0.6c0.6-1.8,1.1-3.7,2-5.5c0.2-0.4,0.6-0.9,1.1-1.6c0.8-1.1,2.3-3,1.9-3.8c-0.5-1-2.7-0.5-4.4,0.3l-0.3,0.2
						c-0.2,0.1-0.3,0.1-0.4,0.2c-1.7,1-3.5,2.9-3.5,5.1l0,0.6l-0.6-0.1c-0.7-0.1-3.6-0.2-4.4,0.4c0,0-0.3,0.4-0.3,0.5l-0.5,0
						c0-0.2,0.1-0.6,0.5-0.9c0.9-0.8,3.2-1,4.3-1c0.2-2.3,2.1-4.4,3.9-5.4c0.1-0.1,0.3-0.2,0.5-0.2l0.3-0.2c1.4-0.6,4.7-1.9,5.7,0.2
						c0.7,1.3-0.7,3.2-2,4.8c-0.4,0.6-0.8,1.1-1,1.4c-0.9,1.7-1.4,3.5-2,5.4l-0.2,0.6c-0.6,1.9-1.2,2.1-2.9,2.5l-1.1,0.3
						c-0.5,0.2-1.2,0.4-1.7,0.7C232.2,106.1,231.9,106.4,231.8,106.7z"/>
				</g>
			</g>
			<g>
				<path class="st17" d="M237.5,90.3c0-0.1-0.1-7.2-0.5-8.9c-0.5-1.8-3.6-9-5.8-10.4c-0.5-0.3-0.9-0.5-1.4-0.5
					c-0.5-0.1-1,0.1-1.3,0.4c-0.3,0.2-0.4,0.6-0.4,0.9c0.1,1.1,0.7,4.6,1.4,6c0.7,1.5,1.4,2.9,1.4,2.9l0.1,0.1l0,0.1
					c-0.1,1.7-0.4,6.3-0.2,7.4l-0.5,0.1c-0.3-1.3-0.3-6.4-0.3-7.3c-0.2-0.4-0.8-1.6-1.4-2.8c-0.8-1.7-1.4-5.2-1.5-6.4
					c0-0.6,0.2-1.2,0.7-1.7c0.5-0.5,1.3-0.7,2.1-0.6c0.6,0.1,1.2,0.3,1.8,0.7c2.7,1.6,5.8,9.3,6.3,11c0.5,1.8,0.6,8.8,0.6,9.1
					L237.5,90.3z"/>
			</g>
			<g>
				<path class="st17" d="M226.5,85.9l-0.5-0.1c0.1-2.5-1.5-11.1-2.1-11.9c-1-1.1-2.3-5.4-1.5-7.6c0.4-1,1.1-1.5,2.2-1.4
					c3.1,0.2,5.1,3.8,5.7,4.9c0.1,0.2,0.2,0.4,0.2,0.4l-0.9,0.4c0,0,0-0.1-0.1-0.3c-0.5-1-2.3-4.2-4.8-4.3c-0.6,0-1,0.2-1.2,0.8
					c-0.7,1.9,0.6,5.8,1.4,6.6C225.6,74.4,226.6,83.8,226.5,85.9z"/>
			</g>
			<g>
				<g>
					<path class="st17" d="M222,86.3l-0.5,0c0.2-3.2-1.8-10.6-2.9-12.6c-0.1-0.1-0.1-0.2-0.2-0.4l-0.1-0.2c-1-2.4-1-6.6,0.8-7.4
						c1.8-0.8,3.7,0.3,3.8,0.4l-0.5,0.8c0,0-1.5-0.9-2.8-0.3c-1,0.5-1.2,3.9-0.3,6.1l0.1,0.2c0,0.1,0.1,0.2,0.1,0.3
						C220.7,75.4,222.2,82.9,222,86.3z"/>
				</g>
			</g>
			<g>
				<path class="st17" d="M219.8,117.8l-1.2-0.8c0-1.8-0.6-8.8-0.7-9.9c-0.2-0.3-0.5-0.6-0.7-0.9c-4.8-6.5-3.1-12.9-2.3-15.6
					c0.1-0.4,0.2-0.8,0.2-1c0.2-1.9,1-8.4,0.9-8.9c0,0-0.1-0.2-0.1-0.4c-0.8-2.4-1.6-5.3-0.7-6.9c0.4-0.6,0.8-1,1.5-1.2
					c1.1-0.3,2,0.4,2.1,0.4l-0.5,0.8c0,0-0.7-0.4-1.3-0.3c-0.3,0.1-0.6,0.3-0.8,0.7c-0.7,1.4,0.4,4.9,0.8,6.1
					c0.1,0.3,0.2,0.5,0.2,0.6c0.1,0.6-0.9,9.1-0.9,9.2c0,0.3-0.1,0.6-0.3,1.1c-0.7,2.6-2.4,8.6,2.2,14.8c0.2,0.3,0.5,0.6,0.7,0.9
					l0.1,0.1l0,0.2C218.9,107.1,219.8,115.8,219.8,117.8z"/>
			</g>
			<g>
				<g>
					<path class="st17" d="M228.3,88.4c-1.9-0.5-5-0.6-9.1-0.1c-0.2,0-0.4,0-0.4,0l-0.1-0.7c0,0,0.2-0.3,0.4-0.3
						c4.3-0.5,7.5,0.2,9.5,0.8L228.3,88.4z"/>
				</g>
			</g>
			<g>
				<path class="st19" d="M224,125.7l-0.5-0.2c0.8-0.7,1.4-2.1,2.2-3.2c4.8-6.6,6.4-16.6,6.4-16.7l1,0.2c-0.1,0.4-1.7,10.4-6.6,17.2
					C225.6,124,224.8,125,224,125.7z"/>
			</g>
			<g>
				<g>
					<path class="st19" d="M225.7,122.9c-0.2-0.1-4.8-2.4-7.2-5.5c-0.6-0.7-1-1.5-1.2-2.2c-1.2-4.1,0.2-6.8,0.7-8l0.9,0.5
						c-0.4,1.1-1.7,3.6-0.6,7.2c0.2,0.6,0.6,1.3,1,1.9c2.3,2.9,6.8,5.2,6.9,5.2L225.7,122.9z"/>
				</g>
			</g>
			<g>
				<path class="st19" d="M219.2,128.4c0,0-1.4-3.7-2.7-7c-0.3-0.9-0.7-1.8-1-2.5l-0.3-0.8c-1.4-3.4,1.8-12,1.9-12.3l0.9,0.3
					c0,0.1-3.1,8.6-1.9,11.6l0.3,0.8c0.3,0.8,0.6,1.6,1,2.5c1.3,3.3,2.3,7.3,2.3,7.3L219.2,128.4z"/>
			</g>
			<g>
				<g>
					<path class="st19" d="M234.5,121.6l-0.4,0c0.4-0.5,1.4-2.9,2.6-5.3c0.7-1.4,0.7-1.8,0.7-1.9c-0.2-1-3-8.8-3.5-9.5l-0.1-0.1
						v-0.2h0.4l0.4-0.4l0.1,0.1l0,0c0.6,0.9,3.4,8.8,3.6,9.8c0.1,0.5-0.1,1.2-0.8,2.5C236.7,118.6,235.2,120.8,234.5,121.6z"/>
				</g>
			</g>
			<g>
				<path class="st19" d="M241.1,139.7l-0.2,0.1c0.2-1.1-0.5-3.1-0.6-5.1c-0.2-3.8-0.9-7.9-1.4-9.2c-0.4-1.1-0.9-3.3-1.4-5.2
					c-0.4-1.6-0.7-3.1-0.9-3.6l0.4-0.3v-0.6c0.4,0,0.5,0.3,0.5,0.5c0.2,0.6,0.6,2.1,1,3.7c0.5,1.9,1,4.1,1.3,5.1
					c0.5,1.5,1.3,5.8,1.5,9.5C241.4,136.7,241.4,138.4,241.1,139.7z"/>
			</g>
			<g>
				<g>
					<path class="st19" d="M248.6,139c-0.1-0.2-1.8-1.9-3.4-4.1c-1-1.4-1.6-2-1.8-2.3c-0.3,0.3-1.7,2.1-2.3,3.1l-0.3-1.3
						c0.6-0.9,1.7-2.6,2.4-2.7c0.2,0,0.4,0,0.6,0.1c0.1,0.1,0.4,0.2,2.2,2.6c1.3,1.8,2.8,3.9,2.9,4.4L248.6,139z"/>
				</g>
			</g>
			<g>
				<path class="st19" d="M235,168.3c-4.3,0-8.1-0.6-9.8-1.9c-7-4.9-8.4-15.5-8.6-19.8c-0.4-6.2-0.2-25.2-0.2-25.4l1,0
					c0,0.2-0.2,19.2,0.2,25.3c0.2,4.2,1.5,14.3,8.2,19c3.9,2.8,21.5,2.2,27.9-2.7l0.6,0.8C250.3,166.7,241.9,168.3,235,168.3z"/>
			</g>
			<g>
				<path class="st19" d="M255.2,136c-0.2-0.2-0.3-0.4-0.3-0.6c-2.8-1.5-5.9-2-9-1.4l-0.2,0l0,1c0,0,0.1,0,0.3,0
					c3.4-0.6,6.9,0.2,10,2.4C255.9,136.8,255.6,136.4,255.2,136z"/>
			</g>
			<g>
				<path class="st19" d="M331.9,148.1l-0.2,0.1c0.1-0.1,2.3-3.5,4.1-4l0.2,1C334.7,145.5,332.6,147.4,331.9,148.1z"/>
			</g>
			<g>
				<path class="st19" d="M335.9,157.6c-0.1-0.5-1.5-11.8,0.9-19.2c0.9-3.5,1.4-5.7,1.5-6.6c0-0.5,0-0.6,0-0.8l0-0.1
					c0-0.1-0.2-0.6-0.4-1.1c-0.7-1.8-1.8-4.7-1.3-6.6c0.5-2.3,3.4-7.8,3.6-7.9l0.5,1.3c0,0-2.6,4.7-3.1,6.9c-0.4,1.6,0.7,4.4,1.3,6
					c0.3,0.7,0.4,1.1,0.4,1.3c0.1,0.3,0.1,0.6,0.1,1.2c-0.1,1-0.6,3.1-1.5,6.8c-2.3,7.2-1.4,19.3-1.4,19.4L335.9,157.6z"/>
			</g>
			<g>
				<path class="st19" d="M343.7,128c-0.4,0-0.7-0.1-1-0.3c-0.9-0.6-1.6-2-2.1-4.5c0-0.1-1.3-6.1-0.2-6.3l0.2,1l-0.1-0.5l0.4,0.2
					c-0.1,0.4,0,2.9,0.6,5.4c0.6,2.8,1.3,3.7,1.7,3.9c0.3,0.2,1,0.2,2.2-0.4c3.8-1.6,9.9-7.1,11.1-13.8l1,0.2
					c-1.3,7-7.7,12.8-11.7,14.5C345.2,127.7,344.4,128,343.7,128z"/>
			</g>
			<g>
				<path class="st19" d="M354.2,137.7l-0.6,0.1c0.4-0.6,3.9-7.7,6.4-12.5c1.7-3.1,2.4-4.6,2.5-4.8c0-0.9-4.6-7.5-5.9-8.8
					c-0.1-0.1-0.1-0.1-0.1-0.1l0.2-0.3v-0.6c0.3,0,0.4,0.2,0.6,0.3c0.8,0.7,6.6,8.4,6.2,9.8c-0.2,0.6-2.2,4.3-2.6,5
					C358.4,130.3,354.6,137,354.2,137.7z"/>
			</g>
			<g>
				<g>
					<path class="st19" d="M342.1,182.8c-2,0-6.6-1.8-10.9-5.6c-3.2-2.8-5.7-6.3-7.5-10.4l0.9-0.4c1.7,3.9,4.1,7.3,7.2,10.1
						c4.7,4.2,9.3,5.6,10.4,5.4c2-0.3,7-5,11-13c4-7.9,5.1-11.8,5.7-15.9c0.7-4.4,1.4-26.4,1.3-27.1l0.9-0.3
						c0.3,0.7-0.7,24.2-1.3,27.6c-0.6,4.2-1.8,8.1-5.8,16.1c-3.9,7.8-9.1,13.1-11.7,13.5C342.3,182.8,342.2,182.8,342.1,182.8z"/>
				</g>
			</g>
			<g>
				<path class="st17" d="M341.7,123h-1c0-0.7-0.1-5-0.5-6.7c0-0.2-0.1-0.4-0.1-0.5c-0.2-0.3-1.3-1.2-2.3-1.9c-2.4-1.7-4-3-4.4-4.2
					c-0.2-0.8-1.4-2.6-2.5-4.3c-1.4-2.1-2.7-4.3-3.2-5.7c-0.4-1.1,0.1-2.2,1.3-2.8c2.2-1.1,6.2,0,9.6,5.2l-0.6,1
					c-3.5-5.4-7.3-5.9-8.6-5.3c-0.7,0.4-1,0.9-0.8,1.5c0.5,1.3,1.9,3.5,3.1,5.5c1.3,2,2.3,3.7,2.6,4.6c0.3,0.9,2.4,2.5,4,3.7
					c1.5,1.1,2.4,1.7,2.6,2.3c0.1,0.2,0.2,0.5,0.2,0.8C341.7,118.1,341.7,123,341.7,123z"/>
			</g>
			<g>
				<g>
					<path class="st17" d="M338.7,103.5l-0.9-0.3c0,0,0.1-0.4,0.2-1c0.3-1.4,1.3-6.3,0.7-8.9c-0.2-0.8-0.6-1.7-1-2.8
						c-1.4-3.5-3.4-9.6-0.3-13l0.3,1.2c-2.2,3.5-0.4,8.1,0.9,11.4c0.4,1.1,0.8,2.1,1,2.9c0.7,2.7-0.2,7.4-0.7,9.4
						C338.8,103.2,338.7,103.5,338.7,103.5z"/>
				</g>
			</g>
			<g>
				<g>
					<path class="st17" d="M345.3,96.3l-0.7-0.7l0.3,0.4l-0.5-0.1c0-1-0.6-5.3-0.9-6.5c-0.1-0.3-0.9-1.3-1.7-2.3
						c-2-2.5-4.7-6-4.7-8.4c0-0.5,0.1-0.9,0.3-1.2c1.3-2.7,4.1-2.2,5.3-1.7l-0.6,0.6c-0.1,0-2.6-1-3.8,1.5c-0.1,0.2-0.1,0.4-0.1,0.7
						c0,2.1,2.7,5.5,4.4,7.8c1.1,1.4,1.7,2.2,1.8,2.7c0.3,1.3,1,5.6,1,6.8C345.5,95.9,345.5,96.1,345.3,96.3z"/>
				</g>
			</g>
			<g>
				<path class="st17" d="M347.5,94.4c0-0.2-0.2-1.5-1.2-6.8l-0.1-0.4c-0.1-0.4-0.3-0.9-0.4-1.2c-1.1-1.3-6-7-4.3-9.2
					c0.2-0.3,0.5-0.6,0.9-0.8c2.2-1.2,5.8,0.6,8.2,2.6l-0.6,0.8c-2.8-2.3-5.7-3.3-7.1-2.5c-0.2,0.1-0.4,0.3-0.6,0.5
					c-0.9,1.2,2,5.4,4.3,8.1l0.1,0.1c0,0.1,0.4,0.9,0.5,1.5l0.1,0.4c1.2,6.7,1.2,6.9,1.2,7L347.5,94.4l0.5,0L347.5,94.4z"/>
			</g>
			<g>
				<path class="st17" d="M355.7,114.4l-0.4,0.3c0-0.1-0.3-1,0.1-1.8l0.3-0.6c0.1-0.2,0.2-0.3,0.3-0.5c0.1-0.2,0.3-0.5,0.4-0.7
					c1.3-2.4,2.4-4.4,2.7-5.4c0.7-2.1,0.2-13.8-0.6-16.6c-0.7-2.7-5.3-9.3-6.9-9.6c-0.4,0-0.8,0-1,0.1c-0.9,0.4-0.7,2.2,0.3,4.9
					c0.4,1.1,1.5,3.1,2.5,4.8c1,1.8,1.4,3.5,1.6,4.2l-0.5,0.1c-0.2-0.6-1.1-2.2-1.9-3.8c-1-1.8-2.1-3.7-2.5-4.9
					c-0.5-1.2-1.9-5,0.2-6.1c0.4-0.2,1-0.3,1.6-0.2c2.4,0.4,7,7.7,7.7,10.4c0.7,2.7,1.4,14.8,0.6,17.2c-0.6,1.6-2.2,4.4-2.8,5.6
					c-0.1,0.2-0.3,0.5-0.4,0.7c-0.1,0.2-0.2,0.4-0.3,0.5l-0.3,0.6C356,113.9,355.8,114.3,355.7,114.4z"/>
			</g>
			<g>
				<path class="st17" d="M348.2,112.8c-4.3-10.3,5.6-18.1,5.7-18.2l0.1,0.3c-0.1,0.1-8.9,8-4.9,17.6L348.2,112.8z"/>
			</g>
			<path class="st19" d="M241.1,315.8c0.3-3.3,1.8-16.7,3.3-29.7c1.9-17.5,3.8-35.1,5.1-52.7c0.4-5.2,0.7-10.4,1.1-15.5
				c1.2-15.9,2.3-31.8,3.5-47.6c0.3-4.4,0.7-8.8,1-13.2c0.3-3.7,1.6-8.5,0.3-12c-1.6,2.2-0.9,6.2-1,8.8c-0.2,3.6-0.6,7.1-0.8,10.7
				c-0.6,7.1-1.1,14.3-1.7,21.5c-1.2,14.4-1.7,28.8-2.9,43.2c-1,12.7-2.1,25.3-3.4,37.9c-0.4,3.5-0.8,7-1.2,10.5
				c-0.3,2.8-0.6,5.6-0.9,8.5c-1.5,13.5-2.9,26.3-3.3,29.7c-0.8,7.9-4.6,37.3-7.9,41.8c-2.6,3-4.2,4.8-4.2,4.8l-0.2,0.2l0.1,0.3
				c0.1,0.2,2.4,4.8,7.8,6.3c1.6,0.4,3.2,1.1,4.7,1.7c0.8,0.3,1.6,0.7,2.4,1c1.5,0.6,3.3,1.1,5.2,1.1c0.7,0,1.4-0.1,2.1-0.2
				c0.2-0.1-0.3-0.1-0.1-0.2l0.5-0.9c-0.2,0.1-0.5,0.1-0.7,0.2c-2.5,0.6-4.8-0.1-6.7-0.8c-0.8-0.3-1.6-0.6-2.4-1
				c-1.5-0.7-3.1-1.3-4.8-1.8c-4.2-1.1-6.4-4.5-7-5.5c0.5-0.6,2-2.2,4-4.6C236.8,353.1,240.6,321.4,241.1,315.8z"/>
			<g>
				<g>
					<path class="st17" d="M342.3,97.3l-0.2-0.4c0,0,1-1,2.7-1.6c1.1-0.4,2.1-0.7,3.1-0.9c2.7-0.6,5-0.9,7-0.7l-0.1,1
						c-1.9-0.1-4.1,0.1-6.7,0.7c-1,0.3-2,0.5-3.1,0.9C343.5,96.8,342.3,97.3,342.3,97.3z"/>
				</g>
			</g>
		</g>
		<g>
			<path class="st18" d="M333.7,130l-0.4-0.1c-6.3-1.7-13,0.8-16,4.1c-3.7,4-21.7,20.8-31.5,23.9c-10.8,3.3-19.2-4.1-24.4-10.9
				c-1.2-1.7-2.5-3.8-3.9-6.5c-2.9-5.8-5.6-13.1-7.6-18.4c-0.5-1.4-1-2.7-1.4-3.8c-2.3-6-4.6-18.9-5.6-25.3
				c-0.3,0.3-0.6,0.6-0.9,0.9c1,6.7,3.3,18.9,5.5,24.7c0.4,1.1,0.9,2.4,1.4,3.8c2,5.3,4.6,12.6,7.6,18.5c1.3,2.7,2.7,4.9,4,6.7
				c4.4,5.9,11.1,12.1,19.8,12.1c1.8,0,3.7-0.3,5.6-0.9c9.9-3.1,28.1-20.1,31.9-24.1c2.8-3.1,9.1-5.4,15-3.8l0.4,0.1
				c0.3,0.1,0.6,0.2,4.7,1.5l0.4-0.9C337.9,131.7,337.7,131.3,333.7,130z"/>
			<path class="st18" d="M241.6,89.2L241.6,89.2c0.2,0,0.3,0,0.5,0c0.1,0,0.1,0,0.1,0.1c0.1,0,0.2,0,0.3,0c-1-6.7-3.7-22.9-3.7-23.1
				l-0.9-2C237.9,64.4,240.5,82.1,241.6,89.2C241.5,89.2,241.5,89.2,241.6,89.2z"/>
		</g>
		<path class="st19" d="M351.1,367.5c0-0.1-3.2-9.3-4-13c-0.4-1.9-0.7-3.8-1.1-5.7c-0.9-4.8-1.8-9.6-2.7-14.5
			c-1.1-6.4-2.2-12.8-3.2-19.3c-1.1-6.8-2.1-13.7-2.9-20.6c-1.3-10.9-2-21.8-2.5-32.8c-0.1-3.1-0.2-6.2-0.3-9.2
			c-0.1-3.9-0.2-7.9-0.4-11.8c-0.1-1.6-0.1-3.2-0.2-4.8c-1.3-22.8-1.9-58.4-1.9-58.8l-1,0c0,0.4,0.6,36,1.9,58.8
			c0.2,4,1.4,35.2,1.6,38.2l0.1,0.2c1.1,27.5,11.6,79.8,11.7,80.3c0.7,3.4,3.3,10.9,3.9,12.7c-1.7,0.9-9.1,5-16.2,8.9l-0.1,0.1
			c-6.9,6.5-8.9,6.5-11.7,6.4c-0.7,0-1.4,0-2.3,0l-0.1,0l0,0.5l-0.2-0.5c-1.8,0.1-4.5-0.4-7.6-1.1c-4.6-0.9-9.8-1.9-14-1.4
			c-0.2,0-0.4,0-0.6,0l-0.3,0c-1.6,0.3-3.6,0.6-5.7,1c-7.2,1.4-18.1,3.4-20.3,1.7c-2.5-2-4.1-2.9-7-4.3c-0.4-0.2-0.8-0.4-1.3-0.6
			c-0.3-0.2-0.7-0.4-1.1-0.5c-3.8-1.9-9.8-3.4-11.8-3.9c0.2-0.4,0.4-0.8,0.6-1.3c8.4-18.2,11.4-52.6,11.4-53l-0.6,0.2
			c0,0.3-3.5,34.4-11.8,52.4c-0.3,0.6-0.6,1.2-0.9,1.8l-0.3,0.6l0.6,0.1c0.1,0,7.9,1.8,12.2,4c0.4,0.2,0.8,0.4,1.1,0.6
			c0.4,0.2,0.8,0.4,1.2,0.6c2.8,1.4,4.4,2.3,6.8,4.2c0.8,0.6,2.3,0.9,4.2,0.9c4.4,0,11.1-1.3,16.8-2.4c2.1-0.4,4.1-0.8,5.7-1l0.3,0
			c0.1,0,0.3,0,0.5,0c4.2-0.5,9.3,0.5,13.8,1.4c3.2,0.6,6,1.2,7.8,1.1c0.1,0,0.3,0,0.5,0c0.8-0.1,1.5-0.1,2.2,0
			c3,0,5.2,0.1,12.3-6.7c8-4.4,16.5-9,16.5-9l0.4-0.2L351.1,367.5z"/>
	</g>
</g>
</svg>
