<?xml version="1.0" encoding="utf-8"?>
<!-- Generator: Adobe Illustrator 21.1.0, SVG Export Plug-In . SVG Version: 6.00 Build 0)  -->
<svg version="1.1" id="Layer_1" xmlns="http://www.w3.org/2000/svg" xmlns:xlink="http://www.w3.org/1999/xlink" x="0px" y="0px"
	 viewBox="0 0 383.7 486.4" style="enable-background:new 0 0 383.7 486.4;" xml:space="preserve">
<style type="text/css">
	.st0{fill:#CF5657;}
	.st1{fill:#FCD62F;}
	.st2{opacity:0.5;}
	.st3{fill:#AC3734;}
	.st4{fill:#A64A30;}
	.st5{fill:#FFDEAB;}
	.st6{fill:#63ADDF;}
	.st7{fill:#59B747;}
	.st8{fill:#F9EE62;}
	.st9{fill:#FFFFFF;}
	.st10{fill:#461B12;}
	.st11{fill:#231F20;}
	.st12{fill:#F2DA4A;}
	.st13{fill:#8E3D21;}
	.st14{fill:none;stroke:#8E3D21;stroke-miterlimit:10;}
	.st15{fill:#8E3C21;}
	.st16{fill:#449D46;}
	.st17{fill:#F7E44F;}
	.st18{fill:#F0C08B;}
	.st19{fill:#4D95C4;}
	.st20{fill:#EEEDED;}
	.st21{fill:#FBC599;}
	.st22{fill:#6B5127;}
	.st23{fill:#9E8B35;}
	.st24{fill:#425E35;}
	.st25{fill:#074E7A;}
	.st26{fill:#ADAAAA;}
</style>
<g>
	<g>
		<g>
			<g id="XMLID_238_">
				<g>
					<path class="st0" d="M0,437.1l234.7-87l149.1,9.7L269,486.4L0,437.1z"/>
					<polygon class="st1" points="372.1,360.8 367.9,365.1 351,360.4 					"/>
					<path class="st1" d="M367.3,365.6c0.3,0-5.3,5.1-5.3,5.1l-9.4-3C352.6,367.7,366.9,365.6,367.3,365.6z"/>
					<path class="st1" d="M361.4,371c0.3-0.1-5.2,5.5-5.2,5.5l-11-3.3C345.2,373.2,361.1,371.1,361.4,371z"/>
					<polygon class="st1" points="355.2,377 348.8,383.7 347.9,383.3 337.2,379.5 					"/>
					<polygon class="st1" points="347.5,384.3 339.8,392 339.2,391.8 328.4,387.3 					"/>
					<polygon class="st0" points="347.5,364.6 240,447 75.6,425.4 241.7,354.6 					"/>
					<polygon class="st1" points="346.6,358.4 332.6,360.6 325.9,358.1 					"/>
					<polygon class="st1" points="338.9,392.6 329.7,401.6 328.8,401.1 318.2,395.8 					"/>
					<polygon class="st1" points="328,402.8 317.4,413.4 316.5,413 305.2,406.6 					"/>
					<polygon class="st1" points="320.6,356.6 307.1,358.2 301.1,355.7 					"/>
					<polygon class="st1" points="315.3,415.1 301,428.7 300.7,428.5 289.2,419.7 					"/>
					<polygon class="st1" points="299.2,430.4 281.8,447.3 269.5,435.8 					"/>
					<path class="st1" d="M278.7,354.6l18,0.4c-2.5,0.3-12.2,1.5-12.2,1.5L278.7,354.6z"/>
					<polygon class="st1" points="278.8,450.3 256.4,472.3 208.7,464.3 245,457 					"/>
					<path class="st1" d="M256.4,352.5l16.9,1.1c-0.5,0-8.1,0.8-11,1h0l-1.6-0.1L256.4,352.5z"/>
					<path class="st1" d="M260.6,354.4l1.6,0.1c-0.7,0-1.1,0.1-1.1,0.1L260.6,354.4z"/>
					<path class="st1" d="M236.4,351.5l14.3,0.1c-0.2,0-4.1,0.6-8.6,1.1l-0.3,0l-0.2,0.1c0,0,0,0,0,0c-6,0.8-12.8,1.7-12.8,1.7
						L236.4,351.5z"/>
					<polygon class="st1" points="226.7,355 229,357.2 216.8,358.7 					"/>
					<polygon class="st1" points="215.5,362.1 202.4,363.6 214,359.4 					"/>
					<path class="st1" d="M202.4,463.6c0.1,0.3-40-7.2-40-7.2l34.4-6.4C196.8,450,202.3,463.3,202.4,463.6z"/>
					<polygon class="st1" points="200,364.1 201.5,366.9 186.8,369.1 					"/>
					<polygon class="st1" points="184.8,371.2 186.4,374.1 170.7,376.5 					"/>
					<polygon class="st1" points="149.4,384.5 167.4,377.9 168.1,381.9 					"/>
					<polygon class="st1" points="154.7,443.5 156.2,455.5 121.1,449.6 					"/>
					<path class="st1" d="M146.5,386.3l-0.2,4.2c0,0-19.2,2.9-19.5,2.9L146.5,386.3z"/>
					<polygon class="st1" points="122.1,396.4 121,401.3 98.7,404.6 					"/>
					<polygon class="st1" points="115.6,438 114,448.9 83.8,443.5 					"/>
					<polygon class="st1" points="93.4,408 90.3,414.1 65.7,417.9 					"/>
					<polygon class="st1" points="83.2,433.1 78.7,442.9 52.3,438.7 					"/>
					<path class="st1" d="M241.7,354.6L75.6,425.4L240,447l107.5-82.4L241.7,354.6z M244.1,452.8l-128-18.6l-32.4-4.7l-18.8-2.7
						l176.6-74c0,0,0,0,0,0c0.2,0,0.3,0,0.5-0.1l18.5,1.7l0.5,0.2c0,0,0.4,0,1.1-0.1h0l92.8,8.6l-18.8,15.2l-19.4,15.7l-13.1,10.6
						l-16.1,13l-19.8,16L244.1,452.8z"/>
					<polygon class="st1" points="59.5,421.8 48,437.7 25,433.4 					"/>
				</g>
			</g>
		</g>
		<g class="st2">
			<g>
				<path class="st3" d="M326.2,365.3c1.2,0.5,34.3,5.4,20.2,14.2c-14,8.8-48.8,5.4-57.4,4.9c-8.6-0.5-8-1.2-23.6-3.7
					c-15.6-2.5-43.9-7.2-18.4-16.5c23.9-8.7,56.8-1.6,60.8-2.2C311.7,361.5,322.8,363.8,326.2,365.3z"/>
			</g>
		</g>
	</g>
	<g>
		<g>
			<path class="st4" d="M334.9,74.9c-0.7,0.4-3.3,1.8-3.4,3.3c-15.8,1.4-10-21-10-21c-14.1,6.7-17.8-6.2-17.8-6.2
				c-15.4,14.8-28.1-3.1-28.1-3.1s1.3,5.9-5.9,7.8c-5.5,0.6-8.6-3-10.3-6.9c-0.4,2.4-0.8,8.2-0.2,12.7c0.4,3.2-0.5,6.6-1.1,8.5l0,0
				c0,0.2-0.2,0.9-0.4,2.1c-0.2-0.8-1.2-4-4.8-4.6c-1.9-0.3-3.3,1.5-3.8,3.8c-12.6-11.5-1.6-18.5-1.6-18.5
				c-13.4-14.6,1.5-23.1,6.5-26.2c5.1-3.1,11.4-12.5,14.5-16.3c3.1-3.8,14.6-13.2,34.7-8.7C323.3,6.1,325.3,17,325.3,17
				c0.9-4.2-1.4-10.9-1.4-10.9s1.7-1.6,4.9,0.2c7.5,6,4.4,14,4.4,14l0,0.1c12.8-3,13.9,8.9,13.9,8.9c-2.8-0.1-9.4-0.1-9.4-0.1
				c21.1,12.8,14,26.6,11.1,30.3c-2.8,3.7-1.6,6.7-0.3,7.8c1.3,1.1,4.5,3.3,2.9,8.6c-2.1,6.4-9,6.8-9.6,6.8l-0.3-0.1
				c0.1-0.2,0.1-0.5,0.1-0.8c0.3-2.8-0.2-5.9-3.1-7.1C337.5,74.2,336.1,74.3,334.9,74.9z"/>
		</g>
		<g id="XMLID_237_">
			<g>
				<g>
					<g>
						<path class="st5" d="M349.1,257.9c-1,2.9-4.4,6.2-5.5,7l-0.7-0.5c-1.5,2.3-3.4,2.7-3.8,2.5l-0.3-0.2c-1.1,1.6-2.3,3-2.9,3.2
							c-1.4,0.4-2.3-2.2-2.5-2.8c-2.4,1.5-3.7,0.8-3.6-1c0.1-2.1,2-5.8,2.1-7.6c0.1-1.2,0-6.6,0-9.7c-2.1,3.5-3.9,4.7-5.2,4.8
							c-1.8,0.1-2.9-1.4-2.9-1.6c0-0.3,1.2-2,2.2-4.4c0.2-0.4,0.4-0.9,0.6-1.4c0.1-0.2,0.2-0.5,0.3-0.8c1.5-3.2,5.2-8.8,5.4-9.7
							c0.2-0.7-0.8-15.2-1.8-25c-0.3-3.1-0.7-5.7-1-7.3c-1.4-6.7-3.6-21.1-3.6-21.1l0-0.3c7.3,0.5,13.8-1.5,18.4-3.6l0.1,0.2
							c3.1,20.1-0.4,56.2-0.4,56.2c1.3,3.2,6.6,17.6,6.6,17.6S350.3,254.6,349.1,257.9z"/>
					</g>
				</g>
				<g>
					<g>
						<path class="st6" d="M331.3,322.8c1.7,15.5-1,21.6-1,21.6l-0.3,0.1c1.8,4.8,3.6,9.8,3.8,10.8c0.3,2-3.3,5.6-3.3,5.6l-0.5,0.1
							c0-0.5-0.1-1-0.3-1.5c-3-3.5-8.5-5.6-8.5-5.6l0-0.3c-5,0.5-13.4,0.3-17.6,0.1c-0.4,0.4-2.3,2-4.3,3.9l-0.2-0.2
							c-4.8-2.5-6.6-7.1-5.6-8.9c0.4-0.7,1.2-2.6,2.1-4.8c0.1-1.4,0.4-6.4-0.3-12.3c-0.8-7.1-1-24.6-1-24.6l0.5-0.1
							c-1.3-5.1-2.2-12.8-2.9-20.4c-1.1-12.1-1.6-23.9-1.6-23.9c-4.4-0.3-11.5-8.9-11.5-8.9l5.1-3.7c-1.3-5.5-1.1-23.2-1-24.5
							c4.6,0.7,9.7,1.3,12.2,1.2c4.3-0.2,11.2-1,15.3-1.4c0.6,0,1.3-0.1,2.2-0.2l0,0.6c0,0,1.3,23.7,5.9,24.7c4.6,1,7.1-2.3,7.1-2.3
							l0.4,0.2c-1,2.3-2.2,4.1-2.2,4.4c0,0.2,1.1,1.7,2.9,1.6c0.2,9,1.1,51.3,1.1,51.3S330,309.9,331.3,322.8z"/>
					</g>
				</g>
				<g>
					<g>
						<path class="st5" d="M269.1,72.5c2.7-1.9,6.1-1.3,6.1-1.3c2,0.4,1.7-0.1,1.4-0.7c-1.2-1.2-3.1-2.8-5.2-1.4
							C269.2,70.5,269.1,72.5,269.1,72.5z M331.4,78.3c0.2-1.5,2.8-2.9,3.4-3.3c1.2-0.7,2.6-0.7,3.8-0.1c2.9,1.3,3.4,4.3,3.1,7.1
							c0,0.3-0.1,0.5-0.1,0.8c-0.5,2-1.7,3.5-3.3,4.9c-1.6,1.4-4.3,2.3-6.3,1.6c-0.8-0.3-1.4-0.7-1.8-1.5l-0.3,0
							c-0.3,2.1-1.1,4.2-2.1,6c-2.2,3.8-5.7,7.5-9,10.3c-1.9,1.6-4,3.1-6.2,4.3c-0.9,0.5-1.9,1-2.8,1.4c-2.1,0.9-4.2,1.6-6.4,2.1
							c-7,1.6-14.5,1.4-21.5-0.5c-2-0.5-4-1.2-5.9-2c-1.5-0.6-2.9-1.3-4.3-2c-8.7-4.7-13.8-14-14.6-23.7c-0.1-1.3-0.2-2.5-0.2-3.7
							c0-3.2,0.4-6,0.8-7.8c0.2-1.1,0.4-1.9,0.4-2.1l0,0c0.6-1.9,1.5-5.3,1.1-8.5c-0.6-4.5-0.2-10.4,0.2-12.7
							c1.7,3.9,4.8,7.5,10.3,6.9c7.2-1.9,5.9-7.8,5.9-7.8s12.7,18,28.1,3.1c0,0,3.7,12.9,17.8,6.2C321.4,57.3,315.6,79.6,331.4,78.3
							z M307.7,73.7c1.7-0.1-0.9-2.5-2.7-3.2c-1.7-0.7-4.2,0.1-5,2.8C300,73.2,305.1,72.5,307.7,73.7z M307.5,85.1
							c0-2-1.2-3.6-2.6-3.6c-1.4,0-2.6,1.6-2.6,3.6s1.2,3.6,2.6,3.6C306.3,88.7,307.5,87.1,307.5,85.1z M276,82.6
							c0-1.9-1.1-3.4-2.5-3.4c-1.4,0-2.5,1.5-2.5,3.4c0,1.9,1.1,3.4,2.5,3.4C274.9,86.1,276,84.5,276,82.6z"/>
					</g>
				</g>
				<g>
					<g>
						<path class="st5" d="M245.6,247.7c-0.1,0.3,1,5.7,1,5.7s3.5,2.2,3.8,3.9c0.1,0.4,0,0.7-0.3,1c-1.7,1.7-7.2-1.1-8.3-2.1
							c-1-0.9-4.2-11.4-4-12.6c0.2-1.2,5.8-14.9,6.1-16.2c0.3-1.4,2.2-6.1,2.6-13.8c0.4-7.3,4.5-32.7,5-35.5
							c2.3,0.8,4.8,1.3,7.3,0.9c-0.1,3.5-0.2,6.3-0.2,7.9c0.1,7.5-3.1,17.7-3.1,20.4c0,1.4,1.1,3.3,3.1,5c-0.3,0.6-3.6,13.8-5.5,17
							c-0.4,2,0.1,3.9,0.4,5.8l-0.8,0.1c0.1,3.3-2.9,5.2-2.9,5.2s-0.5,3.9-1.7,5.8c-0.6,0.9-1.7,1.4-2.7,1.5L245.6,247.7z"/>
					</g>
				</g>
				<g>
					<g>
						<path class="st7" d="M346.9,165.1c0,0-11.8,10.4-24.6,8.4c0.5,3.8,1,8.5,1,8.5c0.9,0.1,1.7,0.2,2.6,0.3l0,0.3
							c0,0,2.2,14.4,3.6,21.1c0.3,1.6,0.7,4.2,1,7.3c-0.1,0.2-0.4,0.8-0.8,1.3c-0.3,0.4-0.7,1.1-1.3,1.8c-0.3,0.4-0.8,0.8-1.2,0.9
							c-1.1,0.4-5.1,1-7.7,1.1c-2.7,0.1-6.3,0.9-9.2,0.9c-2.9,0-14.6,0.7-17.6,0.6c-3-0.1-19.5-0.6-26.4-1.8c-2.9-0.5-5.3-1.7-7.1-3
							c-0.2-0.2-0.5-0.4-0.7-0.6c-2-1.7-3.1-3.6-3.1-5c0-2.6,3.2-12.9,3.1-20.4c0-1.6,0.1-4.4,0.2-7.9c0.1-2.1,0.2-4.5,0.3-7.1h0
							c-6.9,0.6-12.2-3.6-13.3-4.5c0.1-0.2,0.1-0.4,0.2-0.6c3.8-12.2,8.7-33.9,10.4-36.6c2.1-3.3,15.5-14.3,15.8-14.5l0.4,0.2
							c-1.1,2.8-2,6.6-2,11.2c0,0,5.9-4.2,9.6-2.7l0,0c0.9,1.4,2.1,2.7,4,3.7c-0.3,1.3-2.3,11.8-1.6,20.7c0,0,5.3,1.3,7.8,0.4
							c0,0,0.7-15.9,1.7-19.5v-0.1c2.8-0.3,5.6-1.2,8-2.6l0.2,0.3c0.8-0.4,7-3.6,12.5,3.9c0,0,3.6-5.5,3.4-12.5l0.3,0
							c0,0,16.7,8.5,20.8,15c3.6,6.5,5.2,19.5,6.7,23.6c0.6,1.6,1.8,4.5,3.1,7.6c0,0,0,0.1,0.1,0.2L346.9,165.1z"/>
					</g>
				</g>
				<g>
					<g>
						<path class="st6" d="M265.9,222.3c-0.1,1.8-1.9,17.9-2.8,18.7c-1,0.8-2.5,0.8-2.5,0.8h-0.1c0.5-9.6,1-17.9,1.2-20.2
							C262.8,221.8,264.3,222,265.9,222.3z"/>
					</g>
				</g>
				<g>
					<g>
						<path class="st8" d="M251.5,178c-4.6-1.6-8.1-4.5-8.1-4.5c0.7-1.3,1.5-3.5,2.4-6.2c1.1,1,6.4,5.2,13.3,4.5h0
							c-0.1,2.5-0.2,4.9-0.3,7.1C256.3,179.3,253.8,178.8,251.5,178z"/>
					</g>
				</g>
				<g>
					<g>
						<path class="st6" d="M260.6,241.8c0,0,1.5,0,2.5-0.8c0.9-0.8,2.6-16.8,2.8-18.7c1,0.2,2,0.3,3,0.5c-0.2,1.9-3,23.3-4.1,24.6
							c-1.1,1.3-3.9,1.1-3.9,1.1l-0.5,0C260.3,246.2,260.4,244,260.6,241.8L260.6,241.8z"/>
					</g>
				</g>
				<g>
					<g>
						<path class="st7" d="M261.7,221.6c-1.5-0.2-2.5-0.4-2.5-0.4s-0.2-7.9-0.2-8.2l0.2-0.3c1.8,1.4,4.2,2.6,7.1,3
							c6.9,1.2,23.4,1.8,26.4,1.8c3,0.1,14.6-0.6,17.6-0.6c2.9,0,6.5-0.9,9.2-0.9c2.7-0.1,6.6-0.7,7.7-1.1c0.4-0.1,0.9-0.5,1.2-0.9
							l0.7,8.4c0,0,0,0-1.3,0.2c-0.2,0-0.6,0.1-1.2,0.2c-2.1,0.3-6.3,0.8-10.1,1.3c-1.5,0.2-2.8,0.3-4,0.5c-0.9,0.1-1.6,0.2-2.2,0.2
							c-4,0.4-10.9,1.2-15.3,1.4c-2.5,0.1-7.6-0.5-12.2-1.2c-3.3-0.5-6.3-1-7.9-1.3c-1.4-0.2-3.7-0.6-6.2-1c-1-0.2-2-0.3-3-0.5
							C264.3,222,262.8,221.8,261.7,221.6z"/>
					</g>
				</g>
				<g>
					<g>
						<path class="st5" d="M251.8,244.2c1,1,3.9,4.2,3.5,5.3c-0.3,0.8-1,0.8-1.6,0.6c0.4,0.4,0.7,0.8,0.9,1.1c0.8,1,1.3,3.5-0.9,2.9
							l-0.1,0.1c0.6,0.7,0.9,1.4,0.8,1.9c-0.3,1.8-2.7,1.5-3.9,1.2h0c-0.3-1.7-3.8-3.9-3.8-3.9s-1.1-5.4-1-5.7l0-0.1
							c1-0.1,2.2-0.6,2.7-1.5c1.1-1.9,1.7-5.8,1.7-5.8s3-1.9,2.9-5.2l0.8-0.1c0.2,0.8,0.3,1.7,0.3,2.5
							C253.8,239.6,252.4,242.9,251.8,244.2z"/>
					</g>
				</g>
				<g>
					<g>
						<path class="st9" d="M289.5,362.9c-0.3,2.3-1.9,3.4-4.4,4.1c-3.5,0.9-31.6,0.8-34-0.1c-2.3-0.9-4.3-3.6-4.4-5.4
							c-0.1-1.8,5.6-5.6,9.6-8.2c1.5-1,3.7-2,5.8-2.8c3.6-1.4,7-2.5,7-2.5l0.1-0.2c4.5,2.4,16.9,8.3,17.7,8.8c0.6,0.4,1.5,1.8,2.2,3
							v0C289.5,360.9,289.6,362,289.5,362.9z"/>
					</g>
				</g>
				<g>
					<g>
						<path class="st5" d="M284.1,128c-1.8-1-3.1-2.4-4-3.7c-0.2-0.2-0.3-0.5-0.4-0.7c1.8-3.8,2.1-7.8,2.1-12l0-0.1
							c7,1.8,14.5,2.1,21.5,0.5l0,0.2c-0.5,2.7-1.1,5.9-0.6,8.6c0.2,0.9,0.3,2.3,0.8,3.1l0,0c-1,1.2-2.3,2.2-3.7,3.1
							c-2.4,1.4-5.2,2.3-8,2.6c-2.8,0.3-5.5-0.1-7.7-1.4C284.2,128,284.2,128,284.1,128z"/>
					</g>
				</g>
				<g>
					<g>
						<path class="st6" d="M269.2,348c0,0-3.5,1-7,2.5l0-0.1c-4.5-1.5-7.4-6.9-7.4-6.9s1.5-1.3,2.5-3c0.4-0.6,1.6-3.9,3.1-8
							c0.3-3.1-0.2-47.2-0.5-62.2c-0.1-5.6,0.1-13.7,0.5-21.6l0.5,0c0,0,2.8,0.2,3.9-1.1c1.1-1.3,3.9-22.7,4.1-24.6
							c2.5,0.4,4.9,0.8,6.2,1c1.6,0.3,4.6,0.8,7.9,1.3c-0.1,1.3-0.2,19,1,24.5l-5.1,3.7c0,0,7.1,8.6,11.5,8.9c0,0,0.4,11.8,1.6,23.9
							l-0.6,0c-0.7,3.6-2.3,16-2.3,16l-0.1,0c1.1,2,2.1,3.6,2.2,3.9c0.3,0.8,0.2,1.1-0.5,3.4c-0.7,2.3-0.3,38.1-0.4,40.3
							c1.8,2.9,3.6,5.7,4.2,6.4c1.2,1.3-4,5.7-5.1,6.6c0.1-0.9,0-2-0.3-3.3v0c-0.7-1.2-1.7-2.6-2.2-3c-0.8-0.5-13.2-6.5-17.7-8.8
							L269.2,348z"/>
					</g>
				</g>
				<g>
					<g>
						<path class="st9" d="M330,360.9c0.7,4.8-0.4,9-1,9.3c-0.7,0.3-11.2,2.6-23.6,2c-12.4-0.7-12.2-6.1-10.9-9.1
							c0.6-1.4,2.8-3.7,4.8-5.7c2-1.9,3.9-3.6,4.3-3.9c4.2,0.2,12.6,0.4,17.6-0.1l0,0.3c0,0,5.4,2.1,8.5,5.6
							C329.9,359.9,330,360.4,330,360.9z"/>
					</g>
				</g>
				<g>
					<g>
						<path class="st8" d="M270.5,127c0-4.6,0.9-8.3,2-11.2c1.3-3.5,3-5.7,3.5-6.3c1.9,0.8,3.9,1.5,5.9,2l0,0.1
							c0,4.2-0.4,8.2-2.1,12c0.1,0.2,0.3,0.5,0.4,0.7l0,0C276.3,122.8,270.5,127,270.5,127z"/>
					</g>
				</g>
				<g>
					<g>
						<path class="st8" d="M347.1,165c1.9,4.6,3.9,9.3,3.9,9.5c0,0.2-2.6,2.2-6.7,4.1c-4.6,2.1-11.1,4.1-18.4,3.6
							c-0.8,0-1.7-0.1-2.6-0.3c0,0-0.5-4.7-1-8.5c12.8,2.1,24.6-8.4,24.6-8.4L347.1,165z"/>
					</g>
				</g>
				<g>
					<g>
						<path class="st6" d="M326.9,241c0,2.1,0.1,3.8,0.1,4.5c-0.1,0.3-0.2,0.5-0.3,0.8c-0.2,0.5-0.4,1-0.6,1.4l-0.4-0.2
							c0,0-2.5,3.3-7.1,2.3c-4.6-1-5.9-24.7-5.9-24.7l0-0.6c1.2-0.1,2.6-0.3,4-0.5v0c0,0,1,17.8,4.3,18.8
							C323.2,243.3,326.4,241.4,326.9,241z"/>
					</g>
				</g>
				<g>
					<g>
						<path class="st6" d="M326.7,222.8c-0.1,0.6,0.1,11.6,0.2,18.2c-0.6,0.3-3.8,2.2-6,1.9c-3.3-1-4.3-18.8-4.3-18.8v0
							C320.4,223.7,324.6,223.1,326.7,222.8z"/>
					</g>
				</g>
				<g>
					<g>
						<path class="st8" d="M303.7,123.8L303.7,123.8c-0.5-0.8-0.7-2.2-0.9-3.1c-0.5-2.7,0-5.9,0.6-8.6l0-0.2
							c2.2-0.5,4.3-1.2,6.4-2.1c0.9-0.4,1.9-0.9,2.8-1.4c2.5,3.5,3.4,7.1,3.5,10.3c0.2,7-3.4,12.5-3.4,12.5
							c-5.5-7.6-11.7-4.3-12.5-3.9l-0.2-0.3C301.4,126,302.7,125,303.7,123.8z"/>
					</g>
				</g>
				<g>
					<g>
						<path class="st10" d="M305,70.5c1.7,0.7,4.4,3.1,2.7,3.2c-2.6-1.2-7.7-0.4-7.7-0.4C300.8,70.6,303.3,69.8,305,70.5z"/>
					</g>
				</g>
				<g>
					<g>
						<path class="st11" d="M304.9,81.4c1.4,0,2.6,1.6,2.6,3.6s-1.2,3.6-2.6,3.6c-1.4,0-2.6-1.6-2.6-3.6S303.5,81.4,304.9,81.4z"/>
					</g>
				</g>
				<g>
					<g>
						<path class="st8" d="M292,129.5L292,129.5c-1,3.6-1.7,19.5-1.7,19.5c-2.5,0.9-7.8-0.4-7.8-0.4c-0.7-8.9,1.4-19.4,1.6-20.7
							c0,0,0.1,0.1,0.1,0.1C286.5,129.3,289.2,129.8,292,129.5z"/>
					</g>
				</g>
				<g>
					<g>
						<path class="st10" d="M276.6,70.4c0.4,0.7,0.7,1.2-1.4,0.7c0,0-3.4-0.6-6.1,1.3c0,0,0.1-1.9,2.2-3.4
							C273.4,67.6,275.4,69.2,276.6,70.4z"/>
					</g>
				</g>
				<g>
					<g>
						<path class="st11" d="M273.5,79.2c1.4,0,2.5,1.5,2.5,3.4c0,1.9-1.1,3.4-2.5,3.4c-1.4,0-2.5-1.6-2.5-3.4
							C271.1,80.7,272.2,79.2,273.5,79.2z"/>
					</g>
				</g>
				<g>
					<g>
						<path class="st5" d="M249,71.4c0.5-2.4,1.9-4.2,3.8-3.8c3.5,0.6,4.5,3.7,4.8,4.6c-0.3,1.8-0.8,4.7-0.8,7.8h-0.3
							c-0.3,0.3-2.3,1.3-5-0.5C249,77.8,248.4,74.3,249,71.4z"/>
					</g>
				</g>
				<g>
					<path class="st12" d="M302.8,120.1c0.2-0.5,1.3-7.2,3.8-6.6c2.5,0.6,5.6,5.9,4.8,15.5l-0.1,1.2l1.4,0.8c0,0,3.9-4.7,3.4-12.3
						c-0.8-6.2-4.4-10.5-4.4-10.5s-5.8,3-8.7,3.6L302.8,120.1z"/>
				</g>
				<g>
					<path class="st12" d="M279.5,111.4c0,0-2.8,4.1-1,8.9c1.2,3.3,1.4,3.3,1.6,3c0.2-0.3,1.1-1.7,1.3-2.1c0.2-0.4,0.6-9.1,0.6-9.1"
						/>
				</g>
			</g>
		</g>
		<path class="st13" d="M316.8,18.5c0,7.9-4,16.6-11.2,20.5c-5.3,2.9-14.5,3.6-19.9,0.9c2.1,2.4,4.7,4.9,8,5.5
			c3.5,0.7,7.5-0.6,10.9-1.5c7.3-1.9,13.5-7.6,15.5-15c0.7-2.8,1.5-14.3-3.6-9.6"/>
		<path class="st13" d="M327.7,6.8c0,0,13.8,20.7-1.5,38.7c-11.5,9.6-21.1,7.1-23.7,2.7c0,0-7.3,9-15.1,8c0,0,9.7,3.8,16-5.5
			c0,0,7.1,14,18.8,5.6c0,0-7.3,20.8,8.8,22.2c0.8-0.1,2.3-4.9,7.8-3.7c3,0.8,3.5,3.8,3.2,7.5c0,0,5.8-0.5,8.7-4.9
			c2.4-3.7,1.1-7.2-2.3-10.9c-2.4-2.6-0.6-5.2,0.6-6.5c1.2-1.3,7.3-12.8-0.5-21.6c-6.3-7-11.3-8.8-11.3-8.8l10-0.2
			c0,0-0.8-11.4-12.4-9.5l-1.1,0.7C333.6,20.5,335.8,9.3,327.7,6.8z"/>
		<path class="st14" d="M316.5,19c-0.2,0.2,2.5,10.7-9.8,19.1c-11.1,5-15,5.4-20,2.3c0,0,3.6,5.7,14.1,4.7
			c10.6-1.1,20.5-13.5,19.4-23.2C319.4,16.6,317.6,18.1,316.5,19z"/>
		<path class="st15" d="M295.7,32.5c-0.3,0,5.4,1.5,8.4-0.9c3.1-2.4,2.8-4.8,1.7-4.4C304.6,27.6,300.7,33.2,295.7,32.5z"/>
		<path class="st15" d="M290.7,24.4c-0.2-0.1,4.5,4.2,7.7,1.5c1.8-2.3-0.8-2.3-1.9-1.7C295.5,24.7,292.3,25.4,290.7,24.4z"/>
		<path class="st15" d="M272.9,20.2c0,0-6,9.8-0.3,18.6c-0.1-0.2-4.9-0.3-5-9.4c-0.1-9.1,4-10.6,5.6-10.7
			C274.3,18.7,272.9,20.2,272.9,20.2z"/>
		<path class="st15" d="M265.2,23.1c0,0-8.9,15.9,3.4,24.9c0,0-4.5,0.3-7.9-5c-3.4-5.4-0.6-17.2,1.9-20
			C265.2,20,265.2,23.1,265.2,23.1z"/>
		<path class="st15" d="M253.6,37.1c0,0-3.5,6.8,1.1,14c1.3,1.9-2.4,7.6-2,9.6c0.4,2.1-3.4,0.4-4.3-0.9c-0.9-1.3-0.8-5.7-0.8-5.7
			s-9.1,9.2,1.5,17.1c0.4-0.2,2.1-5.2,5.2-3.1c2.3,1.6,3.8,4.1,3.8,4.1s1.1-4.4,1.2-6.2c0.2-1.8-0.8-14.4,0.5-16.1
			C259.7,49.7,254.6,40.6,253.6,37.1z"/>
		<path class="st16" d="M271.3,119.4c0.2-0.5-2.9,9.6-0.9,14c0.6-0.3,9.4-4.1,12.8-3c0,0,1.3-1.8,1-2.3c-0.4-0.5-4-3.7-4-3.7
			s-5.2-0.5-8.5,1.9C270.6,127,269.6,122.8,271.3,119.4z"/>
		<path class="st16" d="M295.5,129.3c0,0,11.1-1.4,15.8,2.8c4.7,4.7,7,6.5,9.3,3.9c2.2-2.6,2.7-13,2.7-13l-7-3.9
			c0,0-0.1,8.6-4.1,11.7c0,0-5.6-6.2-10-4.6C297.8,128,295.5,129.3,295.5,129.3z"/>
		<path class="st16" d="M260.4,141.8c-0.1-0.3-6.6,26.4-6.7,29.1l4.9,1C258.6,171.8,261.4,144.4,260.4,141.8z"/>
		<path class="st17" d="M254,172l-1.1,6.5c0,0,5.9-0.1,6-0.1c0.1,0,0.2-6.1,0.2-6.1S255.7,171.7,254,172z"/>
		<path class="st18" d="M253.7,253.5c0,0,1.2,0,1.2-0.9c0-0.9-1.9-3.3-1.7-3c0.1,0.2,2.2,1.3,2.3,0.4c0.1-0.9-3.3-5.7-3.3-5.7
			s2.1-5.4,2-7.2c-0.1-1.8-1.3-5.8-1.3-5.8s5.6-17.7,5.7-18.7c0,0-3.8-1.9-2.9-5.5c2-7.9,3.2-28.2,3.2-28.8c0,0-5.2,1.3-7,0.1
			l-0.5,2.3l5.6,2.6c0,0-2.6,18.9-3.9,23.5c-1.3,4.6-3.4,16.8-4,19.8c-0.6,3,0.2,7.7,0,8.7c-0.7,4.1-4.8,11.3-4.8,11.3
			s-1.3,9.1,6,11c0,0,3.2-0.8,3.6-0.7c0.4,0.1,0.7-0.4,0.7-0.4s0-2.5-1.3-3"/>
		<path class="st18" d="M326.1,181.8l0.2,2.9c0,0,13.9-0.3,14.1-0.3s1,19.9,1.1,26.9c0.1,7-0.9,21.4-0.8,23.2
			c0.1,1.8,6.6,14.2,6.5,15.1c-0.1,1-8.7,4.1-9.6,4.7c-1,0.6-6.1,11.9-5.6,13.1c0.5,1.2,2.5,0.1,2.5,0.1s1.7,2.7,2.7,1.6
			c1-1.2,2.3-2.5,2.3-2.5s2.6,0,3.2-0.9c0.6-0.9,1.6-1.6,1.6-1.6s0.7,0.4,1.2-0.1c0.4-0.6,5.4-8.7,5.3-10.9
			c-0.1-2.2-2.1-7.3-3.7-10.6c-1.6-3.3-3-8.2-3-8.2s1.3-21.9,1.5-28.9c0.2-5.4-0.3-21.5-2.1-26.7
			C343.4,178.6,335.1,183.1,326.1,181.8z"/>
		<path class="st16" d="M320.5,167.5c0.1,0.3-0.4,13-0.2,20.2c0.2,7.3-1.5,18.5-3.9,21.9c-2.4,3.3-7.9,5.9-7.9,5.9s-3.5,0.9-3.3,1
			s0.8,1,0.8,1s7.1,2.5,6.8,6.4c-0.3,3.9,0.1,0.8,0.1,0.8l16.2-2.6l-0.3-7.8l1.7-3c0,0-1.4-10.7-1.6-11.6c-0.2-0.9-1.2-7.3-1.2-7.8
			c0-0.4-1.6-9.7-1.8-9.9c-0.2-0.2-2.7,0.3-2.5,0c0.1-0.2-2.1-15.9-2.1-15.9L320.5,167.5z"/>
		<g id="XMLID_236_">
			<g>
				<path class="st19" d="M324.8,354.6c3.4-2.4-1.1-17.7-1.3-19.4s-2.1-5.9-1.9-7c0.2-1.2,2.2-6,1.8-9.1c-0.4-3-4.7-18.9-4.7-18.9
					s-1.7-7.4-1.7-7.9c0-0.4,2.7-2.2,2.7-3.1c0-0.9-0.3-10-0.8-16.8c-0.5-6.8-2.1-41.9-2.1-41.7c0,0.2-8.9,9.1-12.5,12.7
					c4.7-5.2,10.9-16.5,10.3-16.3c-0.7,0.2-25.1,1.3-29.7,1.1c-4.7-0.1-19.3-3.7-19.3-3.7s10.1,20.8,11.4,23.5
					c-1.6-2.6-13.9-21.8-14.8-23.5l0.8-2.6l1.5,0.4c0,0,22.8,3.9,31.2,3.9c8.4,0,31.6-3.4,31.6-3.4l-0.2,11.3l0,11.3
					c0,0-0.1,0.4-1.5,2.9c-2.7,4.5,1.7,5.6,1.7,5.6s-0.3,7.1-0.4,10.1c-0.1,3,0.4,21.5,0.7,26c0.3,4.5-0.3,15.6-0.3,15.6
					s3.6,7.3,4.4,13c0.8,5.7,0.5,19.3,0.5,20.4s-1.6,4.8-1.7,5.2s4.3,10.5,4.3,10.5s-1.6,2.8-1.8,3.2c-0.2,0.4-2.7,2-2.7,2l-3-2.8
					l-2.7-2.3C324.5,354.9,321.3,357,324.8,354.6z"/>
			</g>
			<g>
			</g>
		</g>
		<path class="st19" d="M286.8,260c0,0-0.5,19.2-0.8,21.4c-0.3,2.1-1.3,7.3-1,9.4c0.3,2.1,0.5,3.7,0.4,4.7c-0.1,1,0.6,13,0.9,14.8
			c0.3,1.9-0.8,1.9-1.4,7.3c-0.6,5.4-0.5,14.7-0.8,16.9c-0.3,2.2-0.2,5.3,0.2,5.8c0.4,0.5,2.3,4.8,2.2,5.2c-0.1,0.4-3.3,4.7-3.7,4.5
			c-0.4-0.2-7.3-2.3-7.6-2.4c-0.4-0.1-3.7,0.5-4.1,0.7c-0.4,0.1,14.8,6.3,17.1,8.8c2.2,2.5,3,4.9,3.2,4.6c0.2-0.3,3.7-4.6,3.7-4.6
			l-5.6-10.6l1-4.3l-0.1-9.6c0,0,0.4-22.1,0.9-23.7c0.5-1.6,0.1-2.2-0.1-2.6c-0.1-0.4-2.1-3.5-1.9-3.9c0.2-0.4,1.6-13.1,2.1-13.9
			c0.4-0.8,0.1-15.7,0-16.3c-0.1-0.6-0.4-10.1-0.4-10.1L286.8,260z"/>
		<path class="st20" d="M279.4,353.2c0,0.3,1.4,8.3-3.1,10.4c-4.5,2.1-23,1.2-23.8,1.2c-0.8,0-2.7,0.5-3,0.7
			c-0.3,0.2,2.4,1.3,2.7,1.3c0.3,0,34.5,0.7,36.3-1.3c1.8-1.9,1.5-6.8-0.5-8.4C286,355.6,279.4,353.2,279.4,353.2z"/>
		<path class="st20" d="M315.5,354.2c0.3,0.2,7.9,5.9,6.2,9.6c-1.6,3.6-18.5,7-18.5,7c-0.1-0.1,24.9,0.5,26.3-1.1
			c1.3-1.6,1.4-5.4,1.6-5.6c0.1-0.2-1.6-4.3-1.6-4.3s-4.9-4.7-6.7-5.4C320.9,353.7,315.5,354.2,315.5,354.2z"/>
		<path class="st18" d="M259.3,59.8c0.1,0.7,1.4-1.5,1.8-2.1c0.4-0.5,1.3-2,1.9-2.2c0.2,0,0.6,0.2,0.8,0.3c0.5,0.2,1,0.3,1.5,0.5
			c3.2,1.2,7.2,1.8,10.6,1c0.8-0.2,1.5-0.4,2.1-0.8c0.2-0.1,0.9-1.1,1-1.1c0.2,0,0.6,0.6,0.7,0.7c0.5,0.5,1.1,0.9,1.8,1.3
			c3.1,1.8,6.2,2.3,9.8,2.2c2.2,0,4.3-0.6,6.4-1.1c1.3-0.4,3.7-1,4.5-2.3c2.1,2.5,4.8,4.4,8,5.2c1.6,0.5,3.4,0.6,5.1,0.5
			c1.2-0.1,2.1-0.5,3.2-0.9c0,0.4-0.2,0.9-0.3,1.4c-0.1,0.9,0,1.7,0.1,2.6c0.2,1.9,0.4,4.1,1,6c0.6,2,2,3.4,3.5,4.9
			c0.7,0.8,1.5,1.5,2.4,2.2c0.4,0.3,0.8,0.7,1.2,1c0.4,0.3,0.9,0.3,1.1,0.8c0.2,0.5-0.1,1.5-0.2,2.1c-0.1,0.7-0.1,1.4-0.2,2.1
			c-0.3,2.8-0.8,5.5-1.7,8.2c-0.7,2.2-1.6,4.5-3,6.4c-0.7,0.9-1.4,1.9-2.2,2.7c-0.8,0.8-2.9,3.3-3.6,4.2c0.8-0.5,2.3-1.3,3-1.8
			c1.1-0.8,3-2.7,4-3.6c1.6-1.3,2.4-3.1,3.4-4.9c0.8-1.4,1.6-2.8,2.4-4.2c0.7-1.3,0.6-2.7,1-4c0.2,0.6,0.5,1.3,0.9,1.8
			c0.5,0.7,1.4,0.6,2.3,0.6c0.9,0,2.2,0,3-0.4c0.5-0.3,1-0.8,1.4-1.2c0.8-0.8,1.8-1.4,2.5-2.3c0.8-0.9,1.1-2.5,1.2-3.7
			c0.1-1.2,0.2-2.7,0-3.9c-0.4-2.4-2.4-3.5-4.8-3.3c-1.3,0.1-2.8,0.6-3.9,1.3c-1.2,0.7-1.3,1.1-1.8,2.2c-0.3,0.8-0.4,0.5-1.2,0.4
			c-0.7-0.1-1.4,0-2-0.3c-1.4-0.6-2.8-1.2-3.9-2.3c-0.9-1-1.9-1.8-2.4-3.1c-0.7-2.1-1.2-4.6-1.4-6.8c-0.2-1.8,0.1-4,0.5-5.8
			c0.2-0.8,0.5-1.5,0.6-2.2c0.1-0.3,0.3-1.1,0.1-1.1c0,0-6.2,2.6-9,2.3c-4-0.4-8.3-5.3-9.3-7.8c0,0-6.4,6.5-13.8,5.7
			c-7.4-0.8-14.2-9.5-14.2-9.5s0,7.8-4.4,8.3c-9,1-11.5-7.5-11.6-7.5C259.3,48.2,258.7,56.8,259.3,59.8z"/>
		<path class="st18" d="M282.2,111.6c0,0-0.7,7.6-2,10.4c-1.3,2.8-0.3,2.5-0.3,2.5s6.7,5.5,10.5,5.6c3.8,0.1,10.7-2.3,12.9-6.5
			l-0.4-5.5l0.4-6.1C303.4,111.9,289,114.4,282.2,111.6z"/>
		<ellipse class="st21" cx="311.3" cy="94.1" rx="6.9" ry="5.3"/>
		<ellipse transform="matrix(0.112 -0.9937 0.9937 0.112 149.6536 351.7283)" class="st21" cx="271.6" cy="92.1" rx="5" ry="6.5"/>
		<path class="st21" d="M287.7,87.4c-3.5-1.1-6.2,3-2.4,4.9c0.6,0.3,1.5,0.4,2.1,0.2c0.4-0.1,1.3-0.6,1.5-1.3
			c0.3-1.2,1.1-3.3-1.1-3.8"/>
		<g>
			<g>
				<path class="st10" d="M249.2,72.3c-0.2-0.2-0.4-0.3-0.5-0.5c-4.4-4-6.5-8-6.1-11.7c0.3-3.9,3-6.3,4.2-7.2
					c-4-4.5-5.7-8.8-5.1-12.9c1-6.9,8.2-11.3,11.7-13.4l0.4-0.3c3.8-2.3,8.3-8.3,11.7-12.7c1.1-1.4,2-2.6,2.7-3.5
					c1.2-1.4,12.3-13.9,35.2-8.9c15,3.3,20.1,10.1,21.7,13.6c0-3.8-1.5-8.4-1.6-8.5L323.3,6l0.2-0.2c0.1-0.1,1.9-1.8,5.4,0.1
					c7.7,6.2,4.7,14.5,4.6,14.6l-0.9-0.3c0.1-0.3,2.8-7.7-4.2-13.4c-2.2-1.2-3.5-0.7-4-0.4c0.5,1.4,2.1,7,1.3,10.8l-0.5,2.4
					l-0.4-2.4c0-0.1-2.2-10.7-21.7-15c-22.3-4.9-33.1,7.2-34.2,8.6c-0.7,0.9-1.7,2.1-2.7,3.5c-3.4,4.4-8,10.5-11.9,12.9l-0.4,0.3
					c-3.3,2.1-10.3,6.3-11.2,12.7c-0.6,3.9,1.2,8.1,5.2,12.5l0.4,0.4l-0.5,0.3c0,0-3.8,2.5-4.2,6.8c-0.3,3.5,1.7,7.2,5.9,11
					c0.2,0.2-0.1-0.1,0.1,0L249.2,72.3z"/>
			</g>
			<g>
				<path class="st10" d="M258,71.7l-1,0c0-0.2,0-0.3,0.2-0.9l0.2-0.8c1-3.3,1.4-6,1.1-8.3c-0.6-4.5-0.2-10.4,0.2-12.9l0-0.1
					l0.9,0.1l0,0.2l0,0c-0.4,2.4-0.8,8.1-0.2,12.6c0.3,2.4-0.1,5.3-1.1,8.7l-0.2,0.8C258.1,71.3,258,71.6,258,71.7z"/>
			</g>
			<g>
				<path class="st10" d="M330.1,78.8c-3.2,0-5.7-1-7.4-3.1c-4.2-5-2.7-14.5-2-17.6c-4.3,1.9-8,2.1-11.2,0.7
					c-3.8-1.7-5.5-5.3-6.1-6.8c-4.4,4-9,5.9-13.7,5.4c-6.7-0.6-11.6-5.6-13.6-7.9c-0.1,2-1.1,5.4-6.3,6.8c-4.9,0.5-8.6-2-10.9-7.2
					c-1.1-2.4-1.8-5.4-2.2-8.7c0-0.1,0-0.2,0-0.2l0.2-0.1c-0.5,0.2,0.2,0.2,0.2,0.4c0.4,3.2,1.7,5.9,2.8,8.3
					c2.2,4.9,5.5,7.1,9.9,6.6c6.6-1.8,5.5-7,5.5-7.3l-0.5-2.3l1.4,1.9c0.1,0.1,5.7,8,13.9,8.7c4.6,0.4,9.1-1.5,13.5-5.7l0.6-0.6
					l0.2,0.8c0,0,1.5,5,5.8,6.9c3.1,1.4,6.9,1,11.2-1.1l0.9-0.5l-0.3,1c0,0.1-3.1,12.2,1.6,17.7c1.8,2.1,4.4,3,7.9,2.7l0.1,0v1
					C331,78.8,330.6,78.8,330.1,78.8z"/>
			</g>
			<g>
				<path class="st10" d="M341.9,83.3v-1c0.1,0,7-0.3,9.1-6.5c1.4-4.6-1.2-6.7-2.5-7.8l-0.3-0.2c-1.5-1.3-2.8-4.7,0.2-8.5
					c0.7-1,4.4-6.1,3.1-12.8c-1.1-6.1-5.9-11.8-14.1-16.8l-1.5-0.9h1.7c0.1,0,5.8,0,8.8,0.1c-0.2-1.3-1.1-4.8-3.9-6.8
					c-2.3-1.7-5.4-2-9.3-1.1c-0.2,0-0.4,0.1-0.6,0.1l-0.2,0l-0.2-0.3l0.1-0.7c0.2-0.1,0.4-0.1,0.6-0.2c4.1-1,7.5-0.5,10.1,1.3
					c3.9,2.8,4.4,7.9,4.4,8.1l0,0.5l-0.5,0c-1.9-0.1-5.5-0.1-7.7-0.1c7.6,4.9,12,10.5,13.1,16.5c1.3,7.2-2.5,12.6-3.3,13.6
					c-2.9,3.7-1.2,6.4-0.3,7.2l0.3,0.2c1.4,1.2,4.4,3.6,2.8,8.8C349.6,83.1,342,83.3,341.9,83.3z"/>
			</g>
			<g>
				<path class="st22" d="M254.7,81.1c-0.9,0-2.1-0.3-3.4-1.1c-2.8-1.9-3.4-5.7-2.8-8.6c0.7-2.9,2.4-4.6,4.4-4.2
					c3.7,0.6,4.9,4,5.1,4.9c0,0.1,0,0.2,0,0.2l-0.9,0.3c0,0,0-0.1-0.1-0.3c-0.2-0.8-1.2-3.6-4.4-4.2c-1.6-0.3-2.8,1.5-3.3,3.5
					c-0.6,2.5-0.1,6,2.3,7.6c2.4,1.6,4.1,0.8,4.3,0.6l0.7,0.7C256.6,80.7,255.8,81.1,254.7,81.1z"/>
			</g>
			<g>
				<path class="st22" d="M256.6,74.7c-0.1-0.2-1.5-3.7-5-3l0-0.4c4.3-1.7,5.9,2.9,5.9,3L256.6,74.7z"/>
			</g>
			<g>
				<path class="st22" d="M253.7,76.9c-0.5-1.5-0.3-2.6,0.1-3.2c0.5-1,1.3-1.5,1.6-1.5l0.3,0.9c0,0-2.6,1.2-1.7,3.7L253.7,76.9z"/>
			</g>
			<g>
				<path class="st22" d="M293.8,113.5c-4,0-8-0.5-12-1.6c-2-0.5-4-1.2-6-2c-1.5-0.6-2.9-1.3-4.4-2c-8.3-4.5-13.9-13.5-14.9-24.1
					c-0.1-1.2-0.2-2.4-0.2-3.7c0-3.2,0.4-6.1,0.8-7.9c0.2-1.2,0.4-1.9,0.4-2.1l0-0.1l0.1-0.1l0.3,0.3h0.6c0,0-0.1,0.2,0,0.2
					c0,0.2-0.2,0.9-0.4,2c-0.3,1.8-0.7,4.6-0.8,7.8c0,1.3,0.1,2.5,0.2,3.6c1,10.3,6.3,19,14.4,23.3c1.4,0.8,2.9,1.4,4.3,2
					c1.9,0.8,3.9,1.4,5.8,1.9c7.2,1.9,14.5,2.1,21.2,0.5c2.2-0.5,4.3-1.2,6.3-2.1c1-0.4,2.1-1,2.9-1.4c8-4,12.2-8.4,15.5-15.6
					c0.9-1.9,1.5-4.1,2-6.1c2,1.9-1.6,7.6-2.6,9.4c-1.9,3.3-4.2,6.2-7.2,8.6c-3,2.4-5.5,3.8-7.3,4.8c-0.8,0.5-1.9,0.8-2.9,1.3
					c-2.1,0.9-4.3,1.6-6.5,2.1C300.3,113.1,297.1,113.5,293.8,113.5z"/>
			</g>
			<g>
				<path class="st22" d="M333.6,89.9c-0.6,0-1.2-0.1-1.8-0.3c-1-0.3-1.6-0.9-2-1.7l0.6-1c0.3,0.6,1.1,1.6,1.8,1.8
					c2,0.7,4.5-0.3,5.9-1.5c1.8-1.6,2.7-3,3.1-4.7c0.1-0.2,0.1-0.5,0.1-0.7c0.2-1.9,0.2-5.3-2.8-6.7c-1.1-0.5-2.3-0.5-3.4,0.1
					c-2.7,1.5-3.2,2.5-3.2,2.9l0,0.2h-1v-0.3c0.1-1.2,1.3-2.4,3.7-3.7c1.4-0.8,2.9-0.8,4.3-0.2c2.6,1.2,3.8,3.9,3.3,7.6
					c0,0.3-0.1,0.5-0.2,0.8c-0.5,2.3-2,3.8-3.4,5.1C337.4,89.1,335.5,89.9,333.6,89.9z"/>
			</g>
			<g>
				<path class="st22" d="M331.9,80.2c-0.4-0.6,0.8-1.6,0.8-1.6c0.4-0.4,1-0.6,1.4-0.8l0.2-0.1c1.9-0.8,3.9-0.8,5.4,0.7l-0.1,0.4
					c-1.5-0.8-3.4-0.8-5-0.2l-0.2,0.1c-0.4,0.2-0.9,0.3-1.1,0.6c-0.2,0.1-0.5,0.6-0.6,0.7l-0.5,0.3L331.9,80.2z"/>
			</g>
			<g>
				<path class="st22" d="M334.2,86l-0.3-0.1c0.8-0.2,1.3-1.7,1.6-2.5c0.2-0.8-0.1-1.9-0.5-2.5c-0.4-0.6-0.8-1.1-1.2-1.2
					c-0.1,0-0.2,0-0.3,0l-0.5-0.8c0.3-0.2,0.7-0.3,1-0.2c0.8,0.2,1.5,1.1,1.8,1.6c0.5,0.8,0.9,2.2,0.6,3.3
					C336.1,84.8,335.3,85.6,334.2,86z"/>
			</g>
			<g>
				<path class="st11" d="M273.5,86.6c-1.6,0-2.9-1.8-2.9-3.9c0-2.2,1.3-3.9,2.9-3.9c1.6,0,2.9,1.7,2.9,3.9
					C276.5,84.8,275.2,86.6,273.5,86.6z M273.5,79.7c-1.1,0-2,1.3-2,3c0,1.6,0.9,3,2,3c1.1,0,2-1.4,2-3
					C275.5,81,274.6,79.7,273.5,79.7z"/>
			</g>
			<g>
				<path class="st11" d="M304.9,89.2c-1.7,0-3.1-1.9-3.1-4.1c0-2.3,1.4-4.1,3.1-4.1c1.7,0,3.1,1.9,3.1,4.1
					C308,87.4,306.6,89.2,304.9,89.2z M304.9,81.9c-1.1,0-2.1,1.4-2.1,3.2s1,3.2,2.1,3.2c1.1,0,2.1-1.4,2.1-3.2
					S306.1,81.9,304.9,81.9z"/>
			</g>
			<g>
				<path class="st22" d="M286.2,93.1c-0.8,0-1.5-0.2-2.1-0.6c-1.1-0.8-2-2.5-1.4-3.9c0.5-1.3,1.7-1.9,3.4-1.9c1,0.1,2.3,0.5,3,1.3
					l-0.1,0.1c-0.4-0.5-2.2-0.3-2.9-0.4c-1.3,0-2.1,0.4-2.4,1.2c-0.4,1,0.3,2.2,1.1,2.8c0.6,0.4,1.8,0.9,2.6,0.7l0.1,0.5
					C287,93,286.6,93.1,286.2,93.1z"/>
			</g>
			<g>
				<path class="st22" d="M290.6,97.7c-1.6,0-3.2-0.1-4.7-0.2c-0.7,0-1.1-0.2-1.8-0.3c-0.5-0.1-1.8-1.1-2.3-1.1l0.6,0
					c0.5,0,1.1,0.1,1.6,0.2c0.6,0.1,1.2,0.2,1.9,0.2c1.9,0.1,3.7,0.2,5.6,0.2c1.9,0,3.5-0.2,4.8-0.5c0.2,0,0.4-0.1,0.7-0.2
					c0.2-0.1,0.4-0.2,0.6-0.2l0.2,0.9c-0.1,0-0.3,0.1-0.4,0.2c-0.3,0.1-0.5,0.2-0.8,0.3c-1.4,0.3-3.1,0.5-5,0.5
					C291.2,97.7,290.9,97.7,290.6,97.7z"/>
			</g>
			<g>
				<path class="st22" d="M298.8,97.1l-1-0.1c-0.1-0.1-0.7-0.7-0.9-0.8l0.2-0.4l-0.2-0.5c0.3-0.1,0.6,0.1,0.7,0.2
					C297.8,95.6,298.9,96.5,298.8,97.1z"/>
			</g>
			<g>
				<path class="st22" d="M291.5,103.3c-0.9,0-1.9-0.2-2.6-0.8l-0.3-0.7c0.5,0.5,2.7,0.7,4.1,0.4l0.2,1
					C292.4,103.2,291.9,103.3,291.5,103.3z"/>
			</g>
			<g>
				<path class="st22" d="M280.2,124.1h-0.7l-0.3-0.4l0.1-0.3l0.1,0l0-0.1c1.8-4,2.1-8,2.1-11.8h1c0,3.7-0.3,8-2.1,12.1L280.2,124.1
					z"/>
			</g>
			<g>
				<path class="st22" d="M303.2,124c-0.5-0.7-0.6-1.8-0.8-2.7l-0.1-0.5c-0.5-2.7,0-5.8,0.6-8.8l1,0.2c-0.6,2.9-1,5.9-0.6,8.4
					l0.1,0.5c0.1,0.8,0.3,1.8,0.6,2.4L303.2,124z"/>
			</g>
			<g>
				<path class="st23" d="M290.4,130.1c-2.4,0-4.6-0.5-6.4-1.6c0,0-0.1-0.1-0.2-0.1c-1.7-1-3-2.3-4-3.8c-0.1-0.1-0.2-0.3-0.3-0.4
					c-0.1-0.1-0.1-0.2-0.2-0.3c-1.8-3.3-1.7-6.5-1.7-6.6l0.2-0.1c0,0,0.7,3.2,2.3,6.2c0,0.1,0.1,0.2,0.2,0.3
					c0.1,0.1,0.1,0.2,0.2,0.4c0.9,1.5,2.2,2.7,3.8,3.6l0.1,0.1c2.1,1.2,4.6,1.6,7.4,1.4c2.7-0.3,5.4-1.2,7.8-2.5
					c1.4-0.8,2.6-1.8,3.6-3c0.5-0.6,1-1.1,1.5-1.6l0.6-0.3c-0.1,0.7-0.3,1.6-1.4,2.6c-1.2,1.1-2.3,2.3-3.8,3.1
					c-2.5,1.4-5.4,2.4-8.2,2.7C291.5,130,290.9,130.1,290.4,130.1z"/>
			</g>
			<g>
				<path class="st23" d="M271,126c0.1-3.6,0.8-6.9,1.9-10.1c1.2-3.2,2.6-5.2,3.3-6c-0.3-0.1-0.6-0.2-0.9-0.3c0,0,0,0-0.1-0.1
					c-0.7,0.9-2.1,2.9-3.2,6c-1.3,3.5-2,7.3-2,11.3l0,1l0.8-0.6c0.1,0,5.7-4,9.2-2.6l0.4-0.9C277.1,122.6,272.8,124.9,271,126z"/>
			</g>
			<g>
				<path class="st23" d="M313.2,108.5C313.2,108.5,313.2,108.5,313.2,108.5c-0.1,0.1-0.1,0.1-0.2,0.2c0,0-0.1,0-0.1,0.1
					c-0.2,0.1-0.4,0.2-0.5,0.3c2,3,3.1,6.3,3.2,9.8c0.2,5.4-2.1,10-2.9,11.6c-5.6-7.1-12-3.9-12.7-3.5l-0.2,0.2l0,0.5
					c1.1-0.6,7.4-3.1,12.5,4l0.4,0.6l0.4-0.6c0.1-0.2,3.7-5.7,3.5-12.7C316.4,115,315.3,111.6,313.2,108.5z"/>
			</g>
			<g>
				<path class="st23" d="M288,149.8c-2.5,0-5.4-0.7-5.6-0.7L282,149l0-0.4c-0.7-9.3,1.5-20.3,1.6-20.8l1,0c0,0,0,0.1,0,0.3
					c-0.1,0.4-2.2,11.1-1.6,20.2c1.1,0.2,4.8,0.9,6.9,0.4c0.1-2.4,0.7-15.9,1.7-19.2l0.9,0.3c-1,3.5-1.7,19.2-1.7,19.3l0,0.3
					l-0.3,0.1C289.8,149.7,288.9,149.8,288,149.8z"/>
			</g>
			<g>
				<path class="st23" d="M257.1,179.5c-1.8,0-3.7-0.4-5.7-1.1c-4.6-1.6-8.1-4.5-8.2-4.6l-0.3-0.3l0.2-0.4c0.6-1.2,1.4-3.2,2.3-6.1
					c0-0.1,0.1-0.2,0.1-0.3c0-0.1,0.1-0.2,0.1-0.3l0.9,0.3c0,0.1-0.1,0.2-0.1,0.3c0,0.1-0.1,0.2-0.1,0.3c-0.8,2.7-1.6,4.6-2.2,5.9
					c0.9,0.7,4,2.9,7.6,4.2c2.6,0.9,5,1.2,7.1,0.9c0,0,0.1,0,0.2,0v1h0c0,0,0,0-0.1,0C258.2,179.5,257.7,179.5,257.1,179.5z"/>
			</g>
			<g>
				<path class="st24" d="M246.4,166.9l-0.9-0.3c1.7-5.5,3.7-13.1,5.5-19.9c2.2-8.6,4-15.3,4.9-16.8c2.1-3.4,16.3-15,16.4-15.1
					l-0.3,1.4l0.1-0.5l-0.2,0.6c-0.6,0.5-13.2,11-15.1,14.1c-0.9,1.4-2.8,8.8-4.8,16.6C250.1,153.7,248.2,161.3,246.4,166.9z"/>
			</g>
			<g>
				<path class="st23" d="M257.7,172.4c-6.2,0-10.9-3.6-12.2-4.7l-0.2-0.2l0.7-0.7l0.2,0.2c1.4,1.2,6.4,5,12.9,4.4l0.1,1
					C258.6,172.4,258.1,172.4,257.7,172.4z"/>
			</g>
			<g>
				<path class="st24" d="M293.3,218.1c-0.2,0-0.4,0-0.5,0c-0.2,0-18.8-0.5-26.5-1.8c-3.4-0.6-5.9-2-7.3-3.1
					c-0.3-0.2-0.5-0.4-0.7-0.6c-2-1.7-3.2-3.7-3.2-5.3c0-1,0.4-3,1-5.6c0.9-4.3,2.2-10.1,2.1-14.8c0-1.6,0.1-4.5,0.2-7.9
					c0.1-1.8,0.2-3.9,0.3-6l0.1-1.1c0.3-5.5,1.4-27.4,1.7-28l0.2,0.2l0.2,0l0,0.5c-0.2,0.8-0.6,15.1-1.1,27.3l-0.1,1.1
					c-0.1,2.1-0.2,4.1-0.3,6c-0.1,3.4-0.2,6.3-0.2,7.8c0,4.8-1.2,10.7-2.1,15c-0.5,2.4-0.9,4.5-0.9,5.4c0,1.3,1.1,3.1,2.9,4.6
					c0.2,0.2,0.4,0.4,0.6,0.6c1.4,1,3.7,2.4,6.9,2.9c6.6,1.1,22.5,1.7,26.4,1.8c1.7,0,6.1-0.2,10-0.3c3.2-0.1,6.3-0.3,7.6-0.3
					c1.5,0,3.3-0.2,4.9-0.5c1.5-0.2,2.9-0.4,4.2-0.5c2.7-0.1,6.6-0.7,7.6-1.1c0.3-0.1,0.6-0.4,1-0.8c0.4-0.5,0.8-1,1-1.4l0.2-0.3
					c0.4-0.5,0.6-1,0.7-1.2l0.3,0.1h0.7l-0.1,0.3c-0.1,0.2-0.4,0.8-0.8,1.3l-0.2,0.3c-0.3,0.4-0.6,1-1.1,1.5
					c-0.3,0.4-0.8,0.9-1.4,1.1c-1.2,0.4-5.2,1-7.9,1.1c-1.2,0-2.6,0.2-4.1,0.4c-1.7,0.2-3.5,0.5-5.1,0.5c-1.3,0-4.3,0.1-7.5,0.3
					C299.1,217.9,295.2,218.1,293.3,218.1z"/>
			</g>
			<g>
				<path class="st24" d="M294.4,226.8c-2.3,0-6.1-0.4-11.5-1.2c-3.3-0.5-6.3-1-7.9-1.3c-1.4-0.2-3.7-0.6-6.2-1
					c-0.5-0.1-0.9-0.2-1.4-0.2c-0.5-0.1-1.1-0.2-1.6-0.3c-0.9-0.1-1.7-0.3-2.5-0.4c-0.6-0.1-1.2-0.2-1.7-0.3
					c-1.5-0.2-2.5-0.4-2.5-0.4l-0.4-0.1l0-0.4c0-0.3-0.2-7.9-0.2-8.2h1c0,0.2,0.1,4.9,0.2,7.7c0.4,0.1,1.2,0.2,2.1,0.3
					c0.5,0.1,1.1,0.2,1.7,0.3c0.8,0.1,1.6,0.3,2.5,0.4c0.5,0.1,1,0.2,1.6,0.3c0.5,0.1,0.9,0.1,1.4,0.2c2.5,0.4,4.9,0.8,6.2,1
					c1.6,0.3,4.6,0.8,7.9,1.3c6,0.9,10,1.3,12.1,1.2c3.5-0.2,8.6-0.7,12.7-1.2l2.6-0.3c0.4,0,0.9-0.1,1.4-0.1l0.8-0.1
					c0.8-0.1,1.8-0.2,2.8-0.3l1.2-0.1c3.9-0.5,8.1-1,10-1.3l0.6-0.1c0.3,0,0.5-0.1,0.6-0.1l0.8-0.2l-0.7-8l0.5-0.1h0.5l0.7,8.8
					l-1.7,0.3c-0.1,0-0.3,0.1-0.6,0.1l-0.6,0.1c-1.9,0.3-6.2,0.8-10.1,1.3l-1.2,0.1c-1,0.1-2,0.2-2.8,0.3l-0.8,0.1
					c-0.5,0.1-1,0.1-1.4,0.2l-2.6,0.3c-4.1,0.4-9.2,1-12.7,1.2C294.9,226.8,294.7,226.8,294.4,226.8z"/>
			</g>
			<g>
				<path class="st25" d="M262.1,222.1c-0.1,0-0.1,0-0.2,0l0,0c-0.3,0-0.5-0.1-0.8-0.1c-0.1,2.2-0.7,10.3-1.2,19.9l-0.1,1.9
					c-0.1,1.6-0.2,3.2-0.2,4.8c-0.4,8.9-0.6,16.6-0.5,21.7c0.3,15.7,0.8,59.2,0.5,62.2l0,0.2l1-0.1c0.3-3.2-0.2-48.3-0.5-62.3
					c-0.1-5.1,0.1-12.7,0.5-21.6c0-1.6,0.1-3.3,0.2-4.8l0.1-1.9C261.5,232.5,262,224.5,262.1,222.1
					C262.1,222.1,262.1,222.1,262.1,222.1z"/>
			</g>
			<g>
				<path class="st25" d="M261.9,350.8c-4.6-1.5-7.6-6.9-7.7-7.2l-0.2-0.3l0.3-0.3c0,0,1.4-1.3,2.4-2.9c0.2-0.3,0.8-1.7,3.1-8
					c2.8-7.7,6.5-18,6.6-18.5l0.1-0.1c-0.1,0.5-2.9,11.1-5.8,18.9c-2.7,7.3-3.1,7.9-3.2,8.1c-0.8,1.2-1.8,2.3-2.3,2.8
					c0.7,1.2,3.4,5.2,7,6.4L261.9,350.8z"/>
			</g>
			<g>
				<path class="st25" d="M289.7,361.4c0,0-0.4-0.7-0.9-1.6l0.8-0.5c0.5,0.9,0.9,1.6,0.9,1.6L289.7,361.4z"/>
			</g>
			<g>
				<path class="st25" d="M288.8,359.8c-1.3-2.1-1.9-2.7-2.1-2.9c-0.4-0.2-3.6-1.8-7-3.5c-3.9-1.9-8.3-4.1-10.7-5.3l-0.4-0.2
					c-1.2-0.6-1.3-0.7-1.4-0.9l0.4-0.2l0.4-0.3c0.1,0.1,0.6,0.4,1.1,0.6l0.4,0.2c2.3,1.2,6.7,3.4,10.6,5.3c4.1,2,6.7,3.3,7.1,3.5
					c0.3,0.2,1,0.8,2.4,3.2L288.8,359.8z"/>
			</g>
			<g>
				<path class="st25" d="M289.6,363.4l-0.6-0.8c0,0,0.1,0,0.2-0.1c2.4-2,5-4.6,5.1-5.7c0-0.1,0-0.2,0-0.2c-0.6-0.7-2.2-3.2-4.2-6.5
					l-0.1-0.2c-1.7-2.8-3.6-7.3-4-7.7l0.2,0.2c0.4,0.2,1.4,1.8,4.6,7l0.1,0.2c1.6,2.5,3.5,5.7,4.1,6.3c0.2,0.2,0.3,0.5,0.3,0.9
					c-0.2,1.9-4.2,5.4-5.4,6.4C289.6,363.4,289.6,363.4,289.6,363.4z"/>
			</g>
			<g>
				<path class="st25" d="M289.9,349.9L289.9,349.9c0-0.7,0-4.6,0-9.6c0-15.4,0-29.4,0.4-30.9l0.2-0.7c0.5-1.7,0.5-1.9,0.3-2.4
					c-0.1-0.2-0.7-1.2-1.3-2.3l-0.9-1.6c-2.1-3.6-3.6-7.8-4.1-9.4l0.4,0.4c0.5,1.7,3.2,6.3,4.5,8.5l0.9,1.6c0.8,1.5,1.3,2.2,1.3,2.4
					c0.4,0.9,0.2,1.3-0.3,3.1l-0.2,0.7c-0.4,1.5-0.4,19.7-0.4,30.6c0,5.2,0,8.9,0,9.5L289.9,349.9z"/>
			</g>
			<g>
				<path class="st25" d="M289.6,302.2l-1-0.1c0-0.1,2-14.2,2.6-17.8l0.7,1.9C291.3,289.8,289.6,302.1,289.6,302.2z"/>
			</g>
			<g>
				<path class="st25" d="M260.6,242.3v-1c0,0,1.3,0,2.2-0.7c0.7-1,2.3-15.3,2.5-17.9v0l1.1,0.1l0,0c0,0.2-1.7,17.5-2.9,18.5
					C262.3,242.3,260.7,242.3,260.6,242.3z"/>
			</g>
			<g>
				<path class="st25" d="M261.1,249c-0.2,0-0.3,0-0.3,0l0.1-1c0.7,0,2.7-0.1,3.5-1c1-1.3,3.6-20.9,3.9-24l0.9,0.2l0.1,0.2
					c0,0.3-2.8,22.8-4.1,24.4C264,248.9,261.9,249,261.1,249z"/>
			</g>
			<g>
				<path class="st25" d="M296,310.5c-0.2-0.7-1.4-3.1-1.6-3.9c-1.4-5.6-2.4-14.2-2.9-20.4c-1-10.7-1.4-21.3-1.5-23.5
					c-4.6-0.8-11.2-8.7-11.4-9l0.7-0.6c0.1,0.1,7,8.4,11.2,8.7l0.4,0l0,0.4c0,0.1,0.4,11.9,1.6,23.8c0.6,6.2,1.5,14.7,2.9,20.3
					c0.2,0.8,0.4,1.6,0.6,2.3L296,310.5z"/>
			</g>
			<g>
				<path class="st25" d="M296.1,344.1l-1-0.2c0,0,0-0.1,0-0.4c0.1-1,0.4-6.1-0.3-12.3c-0.8-7-0.9-27.3-0.9-27.5l0.9,2.8
					c0,0.2,0.2,17.5,1,24.5c0.7,6.3,0.4,11.5,0.3,12.4C296.2,343.9,296.1,344.1,296.1,344.1z"/>
			</g>
			<g>
				<path class="st25" d="M298.9,357.7c-2.9-1.5-5.1-3.9-5.9-6.5c-0.4-1.2-0.4-2.3,0-3c0.3-0.6,1.1-2.3,2.1-4.8
					c1.8-4.3,2.9-7.5,3-7.9l0.3-0.9c0,0.8-2.1,8.4-2.4,9.1c-0.7,1.8-1.7,4-2.1,4.9c-0.3,0.5-0.3,1.3,0,2.3c0.6,1.8,2.3,4.3,5.4,5.9
					L298.9,357.7z"/>
			</g>
			<g>
				<path class="st25" d="M312.8,354.2c-3.4,0-6.8-0.1-9.1-0.2c-2.5-0.1-2.7-0.3-2.8-0.3l0.3-0.4l0.2-0.4c0.1,0,0.9,0.1,2.4,0.2
					c4.4,0.3,12.7,0.4,17.5-0.1c0.9-0.1,2,0.1,2.6,0l0.1,0.6c-0.7,0.2-1.6,0.3-2.6,0.3C319,354.2,315.9,354.2,312.8,354.2z"/>
			</g>
			<g>
				<path class="st25" d="M329.9,360.5c-0.2-0.3-0.4-0.5-0.6-0.8c-2.9-3.3-8.9-5.5-9-5.5l1.1-0.9c0.2,0.1,5.6,2.2,8.6,5.7
					c0.2,0.3,0.4,0.6,0.6,0.8L329.9,360.5z"/>
			</g>
			<g>
				<path class="st26" d="M309.9,372.9c-1.5,0-3,0-4.5-0.1c-5.9-0.3-9.7-1.7-11.2-4.2c-1.3-2.1-0.6-4.4-0.1-5.5
					c0.6-1.3,2.2-3.2,4.9-5.9c1.8-1.7,3-2.6,3.6-3.1l0.2,0.1l1.2-0.2l-0.3,0.3c-0.6,0.6-2.3,2.1-4.1,3.7c-2.6,2.6-4.2,4.5-4.7,5.6
					c-0.4,1-1,2.9,0.1,4.6c1.3,2.2,4.9,3.5,10.4,3.8c12,0.6,22.5-1.5,23.3-1.9c0.4-0.4,1.4-4.4,0.7-8.8c0-0.5-0.1-0.9-0.3-1.5l0-0.1
					l1,1.1l-0.1-1.3c0.2,0.7,0.3,1.2,0.3,1.7c0.7,4.6-0.3,9.3-1.2,9.8C328.6,371,320.4,372.9,309.9,372.9z"/>
			</g>
			<g>
				<path class="st25" d="M330.9,361.2l-0.7-0.7c1.3-1.3,3.4-3.9,3.2-5.2c-0.2-1.1-2.8-8.1-3.7-10.7l-0.4-1.1
					c-1.6-4.4-2.5-9.1-2.6-9.9l0.5,0.8c0.1,0.8,1.6,4.9,3.1,8.8l0.4,1.1c2.5,6.7,3.6,10,3.8,10.9
					C334.6,357.3,331.2,360.8,330.9,361.2z"/>
			</g>
			<g>
				<path class="st25" d="M330.7,345.4l-0.8-1.2c0-0.1,2.6-6.2,1-21.4c-1.3-12.6-3.4-17.6-3.4-17.7l0-0.2c0,0-0.9-42.3-1.1-51.3
					v-0.3h1v0.3c0.2,8.7,1,49,1.1,51.2c0.3,0.7,2.2,5.9,3.5,17.9C333.5,338.2,330.8,345.1,330.7,345.4z"/>
			</g>
			<g>
				<path class="st25" d="M326.6,245.9c0,0,0-0.1,0-0.3c0-0.8,0-2.4-0.1-4.6c0-0.2-0.5-16.7-0.4-17.6l1.1-0.3
					c-0.1,0.6,0,9.6,0.2,17.8c0,2.1,0.1,3.8,0.1,4.5c0,0.2,0,0.4,0,0.4L326.6,245.9z"/>
			</g>
			<g>
				<path class="st25" d="M321.4,243.5c-0.2,0-0.4,0-0.5,0c-3.5-1.1-4.4-15.8-4.6-18.8l0.9-0.1c0.4,6.8,1.7,17.3,3.9,18
					c2,0.3,5.3-1.7,5.6-1.9l0.7,0.7c0,0,0,0-0.2,0.1C326.6,241.8,323.7,243.5,321.4,243.5z"/>
			</g>
			<g>
				<path class="st25" d="M320.4,250.6c-0.6,0-1.2-0.1-1.8-0.2c-4.8-1-6.1-22.9-6.2-25.3l0.9-0.1c0.5,9,2.4,23.8,5.5,24.5
					c4.3,0.9,7.5-3,7.5-3l-0.1,1.5C326,248,324,250.6,320.4,250.6z"/>
			</g>
			<g>
				<path class="st25" d="M295.6,258.5l-0.2-0.1c0.4-0.6,9.1-9.2,16.6-10.8l0.1,0.9C305.1,249.9,296.3,257.7,295.6,258.5z"/>
			</g>
			<g>
				<path class="st25" d="M283.4,225.5c-0.3,0-0.6-0.1-1-0.2c-0.1,2.5-0.2,19,1.1,24.4l0.4-0.1C282.7,244.5,283.3,228.2,283.4,225.5
					z"/>
			</g>
			<g>
				<path class="st25" d="M293.1,248.5c-0.7-5.2,1.5-21.6,1.6-22.3l1,0.2c0,0.2-2.9,17-2.2,22.1L293.1,248.5z"/>
			</g>
			<g>
				<path class="st24" d="M321.8,173.5c-0.2-1.6-0.4-2.9-0.6-3.8c-0.6-3.1-1.5-8.5-1.6-8.6l0.2-1.4c0,0.1,1.7,6.8,2.3,9.8
					c0.2,0.9,0.4,2.2,0.6,3.8L321.8,173.5z"/>
			</g>
			<g>
				<path class="st23" d="M328.2,182.8c-0.8,0-1.5,0-2.3-0.1c-0.8,0-1.6-0.1-2.6-0.3l-0.4-0.1l0-0.4c0,0-0.5-4.7-1-8.5l1-0.1
					c0.4,3.1,0.9,6.9,1,8.1c0.8,0.1,1.5,0.2,2.2,0.2c7.4,0.5,13.9-1.7,18.1-3.6c3.5-1.6,5.8-3.3,6.4-3.8c-0.3-0.7-1.6-3.9-2.9-6.9
					l-1-2.3l0.4-0.4l-0.4,0.2l0.9-0.4l1,2.5c2.7,6.5,3,7.2,3,7.4c0,0.8-4.2,3.2-7,4.5C340.6,180.8,334.8,182.8,328.2,182.8z"/>
			</g>
			<g>
				<path class="st24" d="M346.6,165c-1.6-3.7-2.6-6.2-3.1-7.6c-0.6-1.5-1.1-4.1-1.8-7.1c-1.2-5.5-2.6-12.2-4.9-16.4
					c-3.9-6.3-20.2-14.4-20.4-14.5l0-1.3c0.7,0.4,17.1,8.7,21.2,15.3c2.4,4.3,3.8,11.1,5,16.6c0.6,3,1.2,5.6,1.7,7
					c0.5,1.4,1.6,3.9,3.1,7.6L346.6,165z"/>
			</g>
			<g>
				<path class="st23" d="M325.6,174.2c-1.1,0-2.3-0.1-3.5-0.3l0.2-1c12.5,2,24.1-8.2,24.2-8.3l0.6,0.7
					C347.1,165.5,337.1,174.2,325.6,174.2z"/>
			</g>
			<g>
				<path class="st22" d="M326.5,254.2c-1.2,0-2-0.6-2.4-1c-0.1-0.1-0.7-0.7-0.7-1.1c0-0.2,0.1-0.5,0.6-1.4c0.4-0.8,1-1.9,1.6-3.2
					c0.2-0.4,0.4-0.9,0.6-1.4l0.3-0.8c0.8-1.7,2.2-4.2,3.4-6.1c0.9-1.5,1.9-3.1,1.9-3.5c0.1-0.9-0.7-14.8-1.9-24.8
					c-0.4-3.2-0.7-5.7-1-7.2c-1.4-6.6-3.6-21-3.6-21.1l1,0.1c0,0.1,2.2,14.2,3.6,20.8c0.3,1.6,0.7,4.1,1.1,7.3
					c1,9.4,2,24.3,1.8,25.1c-0.1,0.4-0.8,1.6-2.1,3.8c-1.1,1.9-2.6,4.3-3.3,6l-0.3,0.7c-0.2,0.6-0.4,1.1-0.6,1.5
					c-0.6,1.3-1.2,2.5-1.7,3.3c-0.2,0.3-0.4,0.7-0.5,0.9c0.2,0.3,1.1,1.2,2.3,1.1c1.1-0.1,2.7-0.9,4.8-4.5l0.3-0.5l0.3,0.8l0.3,0.1
					c-1.9,3.2-3.7,4.9-5.6,5C326.7,254.2,326.6,254.2,326.5,254.2z"/>
			</g>
			<g>
				<path class="st22" d="M331.3,268.5c-0.4,0-0.7-0.1-1-0.2c-0.6-0.4-1-1.1-0.9-2.1c0.1-1.2,0.6-2.7,1.1-4.2
					c0.4-1.3,0.9-2.6,0.9-3.3c0.1-1.2,0.1-6.3,0-9.4l0-0.3c0-1.3,0-2.3,0-2.4l0.2-0.5c0,0.1,0.7,1.5,0.8,2.8l0,0.3
					c0,3.3,0.1,8.2,0,9.5c0,0.9-0.5,2.2-1,3.6c-0.5,1.5-1,3-1.1,4c0,0.3,0,1,0.4,1.2c0.5,0.3,1.4,0,2.5-0.6c0.3-0.2,0.7-0.5,1.1-0.8
					c2.9-2.3,3.4-4.6,3.5-4.6l1.7-8.3l0.3-0.3l-1.1,8.8c0,0.1-0.6,2.6-3.8,5.1c-0.4,0.3-0.8,0.6-1.2,0.8
					C332.7,268.3,331.9,268.5,331.3,268.5z"/>
			</g>
			<g>
				<path class="st22" d="M335.7,270.5c-1,0-1.9-1.1-2.6-3.2l0-0.2h0.7h-0.2l0.4-0.2l0,0.1l0,0c0.6,1.7,1.3,2.7,1.9,2.5
					c0.2,0,0.8-0.4,2.7-3c1.4-2,2.7-4.2,2.7-4.2l0,0c0,0,2.2-6.9,2.2-10.2l0.5-0.2c0,3.4-1.7,10.5-1.8,10.8
					c-0.1,0.1-1.4,2.3-2.8,4.4c-2,2.7-2.7,3.2-3.2,3.4C336,270.5,335.9,270.5,335.7,270.5z"/>
			</g>
			<g>
				<path class="st22" d="M339.5,267.5c-0.2,0-0.4,0-0.5-0.1l0.4-0.9l-0.2,0.4l0.2-0.4c0.2,0,1.7-0.2,3.2-2.3c0,0,0.1-0.1,0.1-0.2
					c1.5-2.5,3.9-7.8,4.1-8.5l0.7-5.2l0.5,0l-0.3,5.6c-0.1,0.2-2.6,6-4.2,8.5c0,0-0.1,0.1-0.1,0.2l-0.1,0.1
					C342,266.8,340.4,267.5,339.5,267.5z"/>
			</g>
			<g>
				<path class="st22" d="M342.6,265.6l0.5-0.9l0,0c0,0,0.1-0.1,0.3-0.2c1.2-0.9,4.4-4.1,5.3-6.8c0.9-2.8,1.3-4.6,1.4-5.1
					c-0.5-1.4-5.3-14.4-6.6-17.4l0-0.1l0-0.1c0-0.4,3.1-36.1,0.1-55.9l1-0.3c3,19.3,0.1,53.8-0.1,56.1c1.4,3.4,6.5,17.3,6.6,17.5
					l0,0.1l0,0.1c0,0.1-0.3,2-1.5,5.3c-1,3-4.6,6.4-5.7,7.3C343.7,265.5,342.7,265.6,342.6,265.6z"/>
			</g>
			<g>
				<path class="st22" d="M252,244.9l-0.9-0.4l0.3-0.5c0.5-1,2-4.4,2-6.5c0-0.7-0.1-1.4-0.3-2.4c-0.1-0.3-0.1-0.6-0.2-0.9
					c-0.3-1.6-0.7-3.3-0.3-5.1l0-0.1c1.3-2.4,3.6-10.5,4.7-14.4c0.5-1.8,0.6-2.3,0.6-2.5l0.4,0.3l0.5,0.3l0.2-0.4
					c-0.1,0.2-0.4,1.2-0.7,2.5c-1.2,4.2-3.3,11.9-4.7,14.5c-0.3,1.6,0,3.2,0.3,4.7c0.1,0.3,0.1,0.6,0.2,0.9c0.2,1,0.3,1.8,0.3,2.6
					c0,2.2-1.4,5.6-2.1,6.9L252,244.9z"/>
			</g>
			<g>
				<path class="st22" d="M254.2,250.6c-0.2,0-0.5,0-0.7-0.1c-0.4-0.1-0.3-0.2-0.3-0.2l0-1c0,0,0.3,0.2,0.6,0.2
					c0.9,0.3,1-0.2,1.1-0.3c0.2-0.5-1.3-2.8-3.3-4.8c-0.2-0.2-0.3-0.3-0.3-0.3l0.7-0.7c0,0,0.1,0.1,0.3,0.3c1,1,4.1,4.3,3.5,5.8
					C255.5,250.3,254.9,250.6,254.2,250.6z"/>
			</g>
			<g>
				<path class="st22" d="M254.2,254.6c-0.2,0-0.5,0-0.7-0.1l0.2-0.9c0.3,0.1,0.8,0.1,0.9-0.1c0.3-0.4,0-1.4-0.5-2
					c-0.2-0.2-0.4-0.5-0.6-0.7l-0.3-0.3c-1.2-1.3-2.4-4-2.4-4l0.3,0.2c0,0,1.7,1.8,2.8,3.1l0.3,0.3c0.3,0.3,0.5,0.6,0.7,0.8
					c0.6,0.7,1.1,2.2,0.5,3.2C255.3,254.2,255,254.6,254.2,254.6z"/>
			</g>
			<g>
				<path class="st22" d="M252.1,257.9c-0.7,0-1.4-0.1-1.8-0.2l0.2-0.9c0.9,0.2,2.2,0.4,2.9-0.1c0.2-0.2,0.4-0.4,0.5-0.7
					c0.1-0.4-0.2-0.9-0.7-1.5c-1.1-1.4-3.1-2.8-3.1-2.8l-0.2-0.1l0-0.2c-0.1-1.2-0.5-2.9-0.6-3.2l0.2-0.5c0.2,0.4,1.2,2.2,1.4,3.4
					c0.5,0.4,2.1,1.6,3.1,2.9c0.7,0.9,1,1.7,0.9,2.3c-0.1,0.6-0.4,1.1-0.9,1.4C253.4,257.8,252.8,257.9,252.1,257.9z"/>
			</g>
			<g>
				<path class="st22" d="M247,253.1c-0.5-2.4-1-5-1-5.3l-0.5-0.1l-0.5-0.1c0,0.1-0.1,0.4,1,5.9l0,0.2l0.2,0.1
					c1.3,0.8,3.4,2.5,3.6,3.5c0,0.2,0,0.4-0.2,0.6c-1.4,1.4-6.6-1.2-7.6-2.1c-0.8-0.7-4.1-11-3.9-12.2c0.1-0.6,1.9-5.1,3.3-8.7
					c1.4-3.7,2.7-6.8,2.8-7.5c0.1-0.2,0.2-0.6,0.3-1.1c0.6-2.1,2-6.5,2.3-12.9c0.4-6.8,4-29.4,4.9-35c0,0-0.1,0-0.1,0
					c-0.3-0.1-0.6-0.2-0.8-0.3c0,0,0,0,0,0c-0.9,5.3-4.6,28.3-4.9,35.2c-0.3,6.3-1.6,10.6-2.3,12.6c-0.1,0.5-0.3,0.9-0.3,1.1
					c-0.1,0.6-1.5,4-2.8,7.4c-1.9,4.9-3.2,8.2-3.3,8.9c-0.2,1.4,3,11.9,4.2,13c0.7,0.6,4.4,2.7,7,2.7c0.8,0,1.5-0.2,1.9-0.7
					c0.4-0.4,0.5-0.9,0.4-1.4C250.6,255.5,247.8,253.6,247,253.1z"/>
			</g>
			<g>
				<path class="st22" d="M245.1,248c-0.9,0-1.9-0.2-2.3-0.9c-0.2-0.4-0.6-1.1,3.1-14.1c0.1-0.4,0.2-0.7,0.2-0.8l0.4-0.1
					c0,0.1,0.1,0.5-0.1,0.9c-3.2,11.1-3,13.3-2.9,13.6c0.2,0.3,0.9,0.5,1.9,0.4c0.8-0.1,1.9-0.5,2.4-1.3c1.1-1.8,1.6-5.6,1.6-5.6
					l0-0.2l0.2-0.1c0,0,3.5-1.9,3.4-4.9l0.2,0.1c0.1,3.1-2.2,5-2.9,5.5c-0.1,0.9-0.7,4.1-1.7,5.8c-0.6,1-1.7,1.6-3.1,1.7
					C245.4,248,245.3,248,245.1,248z"/>
			</g>
			<g>
				<path class="st25" d="M290,362.9l-1-0.1c0.1-0.9,0-1.9-0.3-3.1l0-0.1h1C290,360.8,290.1,361.9,290,362.9z"/>
			</g>
			<g>
				<path class="st26" d="M269,368.1c-8.2,0-16.7-0.3-18.1-0.8c-2.5-0.9-4.6-3.9-4.7-5.8c-0.1-1.8,3.5-4.5,9.8-8.6
					c1.3-0.9,3.3-1.9,5.9-2.9c3.6-1.4,6.3-2.3,6.3-2.3l1,0.7c0,0-3.5,1.1-7,2.4c-2.5,1-4.4,1.9-5.7,2.8c-2.8,1.9-9.5,6.2-9.4,7.8
					c0.1,1.6,1.9,4.2,4.1,5c2,0.7,29.9,1.1,33.7,0.1c2.6-0.7,3.8-1.8,4-3.7l1,0.1c-0.4,3-2.7,4-4.8,4.5
					C283.6,367.9,276.4,368.1,269,368.1z"/>
			</g>
		</g>
		<ellipse class="st9" cx="306" cy="83.6" rx="1.1" ry="1.5"/>
		<ellipse class="st9" cx="274.3" cy="81" rx="1" ry="1.4"/>
	</g>
</g>
</svg>
