<?xml version="1.0" encoding="utf-8"?>
<!-- Generator: Adobe Illustrator 21.1.0, SVG Export Plug-In . SVG Version: 6.00 Build 0)  -->
<svg version="1.1" id="Layer_1" xmlns="http://www.w3.org/2000/svg" xmlns:xlink="http://www.w3.org/1999/xlink" x="0px" y="0px"
	 viewBox="0 0 384 312.7" style="enable-background:new 0 0 384 312.7;" xml:space="preserve">
<style type="text/css">
	.st0{fill:#CF5657;}
	.st1{fill:#FCD62F;}
	.st2{opacity:0.5;}
	.st3{fill:#AC3734;}
	.st4{fill:#63ADDF;}
	.st5{fill:#FFFFFF;}
	.st6{fill:#4D95C4;}
	.st7{fill:#EEEDED;}
	.st8{fill:#074E7A;}
	.st9{fill:#ADAAAA;}
	.st10{fill:#F2DA4A;}
	.st11{fill:#F9EE62;}
	.st12{fill:#59B747;}
	.st13{fill:#FFDEAB;}
	.st14{fill:#A64A30;}
	.st15{fill:#8E3D21;}
	.st16{fill:#F0C08B;}
	.st17{fill:#449D46;}
	.st18{fill:#461B12;}
	.st19{fill:#6B5127;}
	.st20{fill:#9E8B35;}
	.st21{fill:#425E35;}
	.st22{fill:#231F20;}
</style>
<g>
	<g>
		<g>
			<g id="XMLID_168_">
				<g>
					<path class="st0" d="M0,263.3l234.8-87.1l149.2,9.7L269.2,312.7L0,263.3z"/>
					<polygon class="st1" points="372.4,186.9 368.1,191.3 351.2,186.6 					"/>
					<path class="st1" d="M367.6,191.8c0.3,0-5.3,5.1-5.3,5.1l-9.4-3C352.8,193.8,367.2,191.8,367.6,191.8z"/>
					<path class="st1" d="M361.7,197.2c0.3-0.1-5.2,5.5-5.2,5.5l-11-3.3C345.5,199.4,361.4,197.3,361.7,197.2z"/>
					<polygon class="st1" points="355.5,203.1 349.1,209.8 348.2,209.5 337.4,205.7 					"/>
					<polygon class="st1" points="347.8,210.5 340.1,218.2 339.5,218 328.7,213.5 					"/>
					<polygon class="st0" points="347.8,190.7 240.2,273.2 75.7,251.6 241.9,180.8 					"/>
					<polygon class="st1" points="346.9,184.5 332.9,186.7 326.2,184.3 					"/>
					<polygon class="st1" points="339.2,218.8 330,227.8 329.1,227.3 318.4,222 					"/>
					<polygon class="st1" points="328.2,229 317.6,239.6 316.8,239.2 305.5,232.8 					"/>
					<polygon class="st1" points="320.9,182.8 307.4,184.3 301.3,181.9 					"/>
					<polygon class="st1" points="315.6,241.3 301.2,254.9 300.9,254.7 289.5,245.9 					"/>
					<polygon class="st1" points="299.5,256.6 282,273.5 269.7,262 					"/>
					<path class="st1" d="M278.9,180.8l18,0.4c-2.5,0.3-12.2,1.5-12.2,1.5L278.9,180.8z"/>
					<polygon class="st1" points="279,276.5 256.6,298.5 208.9,290.6 245.2,283.3 					"/>
					<path class="st1" d="M256.6,178.6l16.9,1.1c-0.5,0-8.1,0.8-11,1h0l-1.6-0.1L256.6,178.6z"/>
					<path class="st1" d="M260.8,180.6l1.6,0.1c-0.7,0-1.1,0.1-1.1,0.1L260.8,180.6z"/>
					<path class="st1" d="M236.6,177.6l14.3,0.1c-0.2,0-4.1,0.6-8.6,1.1l-0.3,0l-0.2,0.1c0,0,0,0,0,0c-6,0.8-12.8,1.7-12.8,1.7
						L236.6,177.6z"/>
					<polygon class="st1" points="226.9,181.2 229.2,183.4 217,184.9 					"/>
					<polygon class="st1" points="214.2,185.6 215.7,188.3 202.5,189.8 					"/>
					<path class="st1" d="M202.5,289.9c0.1,0.3-40-7.2-40-7.2l34.4-6.4C196.9,276.2,202.4,289.5,202.5,289.9z"/>
					<polygon class="st1" points="200.1,190.3 201.7,193.1 186.9,195.2 					"/>
					<polygon class="st1" points="184.9,197.4 186.6,200.3 170.8,202.7 					"/>
					<polygon class="st1" points="149.5,210.7 167.5,204.1 168.3,208.1 					"/>
					<polygon class="st1" points="154.8,269.7 156.3,281.7 121.2,275.8 					"/>
					<path class="st1" d="M146.6,212.5l-0.2,4.2c0,0-19.2,2.9-19.5,2.9L146.6,212.5z"/>
					<polygon class="st1" points="122.2,222.6 121.1,227.5 98.8,230.8 					"/>
					<polygon class="st1" points="115.7,264.2 114.1,275.1 83.9,269.7 					"/>
					<polygon class="st1" points="93.5,234.2 90.4,240.3 65.7,244.1 					"/>
					<polygon class="st1" points="83.3,259.3 78.8,269.2 52.3,264.9 					"/>
					<path class="st1" d="M65,253l176.7-74.1c0,0,0,0,0,0c0.2,0,0.4,0,0.5-0.1l18.6,1.7l0.5,0.2c0,0,0.4,0,1.1-0.1h0l92.8,8.6
						l-18.8,15.2L317,220.3l-13.2,10.6l-16.1,13l-19.8,16l-23.7,19.1l-128.1-18.6l-32.5-4.7L65,253z M241.9,180.8L75.7,251.6
						l164.5,21.7l107.6-82.5L241.9,180.8z"/>
					<polygon class="st1" points="59.5,248 48,263.9 25.1,259.6 					"/>
				</g>
			</g>
		</g>
		<g class="st2">
			<g>
				<path class="st3" d="M326.5,191.1c1.2,0.5,34.3,5.4,20.3,14.3c-14,8.8-48.8,5.4-57.4,4.9c-8.6-0.5-8-1.2-23.6-3.7
					c-15.6-2.5-43.9-7.2-18.4-16.5c23.9-8.7,56.9-1.6,60.8-2.2C312,187.4,323.1,189.7,326.5,191.1z"/>
			</g>
		</g>
	</g>
	<g>
		<g>
			<g id="XMLID_167_">
				<g>
					<g>
						<path class="st4" d="M329.7,148.1c1.7,15.5-1,21.6-1,21.6l-0.3,0.1c1.8,4.8,3.6,9.8,3.8,10.8c0.3,2-3.3,5.6-3.3,5.6l-0.5,0.1
							c0-0.5-0.1-1-0.3-1.5c-3-3.5-8.5-5.6-8.5-5.6l0-0.3c-5,0.5-13.4,0.3-17.6,0.1c-0.4,0.4-2.3,2-4.3,3.9l-0.2-0.2
							c-4.8-2.5-6.6-7.1-5.6-8.9c0.4-0.7,1.2-2.6,2.1-4.8c0.1-1.4,0.4-6.4-0.3-12.4c-0.8-7.1-1-24.6-1-24.6l0.5-0.1
							c-1.3-5.1-2.2-12.8-2.9-20.4c-1.1-12.1-1.6-23.9-1.6-23.9c-4.4-0.3-11.5-8.9-11.5-8.9l5.1-3.7c-1.3-5.5-1.1-23.2-1-24.6
							c4.6,0.7,9.7,1.3,12.2,1.2c4.4-0.2,11.3-1,15.3-1.4c0.6,0,1.3-0.1,2.2-0.2l0,0.6c0,0,1.3,23.8,5.9,24.7c4.6,1,7.1-2.3,7.1-2.3
							l0.4,0.2c-1,2.3-2.2,4.1-2.2,4.4c0,0.2,1.1,1.7,2.9,1.6c0.2,9,1.1,51.3,1.1,51.3S328.4,135.3,329.7,148.1z"/>
					</g>
					<g>
						<path class="st4" d="M264.2,47.6c-0.1,1.8-1.9,17.9-2.8,18.7c-1,0.8-2.5,0.8-2.5,0.8h-0.1c0.5-9.6,1-17.9,1.2-20.2
							C261.2,47.1,262.6,47.3,264.2,47.6z"/>
					</g>
					<g>
						<path class="st4" d="M258.9,67.1c0,0,1.5,0,2.5-0.8c0.9-0.8,2.6-16.8,2.8-18.7c1,0.2,2,0.3,3,0.5c-0.2,1.9-3,23.4-4.1,24.6
							c-1.1,1.3-3.9,1.1-3.9,1.1l-0.5,0C258.6,71.5,258.7,69.3,258.9,67.1L258.9,67.1z"/>
					</g>
					<g>
						<path class="st5" d="M287.8,188.3c-0.3,2.3-1.9,3.4-4.4,4.1c-3.5,0.9-31.7,0.8-34-0.1c-2.3-0.8-4.3-3.6-4.4-5.4
							c-0.1-1.8,5.6-5.6,9.6-8.2c1.5-1,3.7-2,5.8-2.8c3.6-1.4,7.1-2.5,7.1-2.5l0.1-0.2c4.5,2.4,16.9,8.3,17.7,8.8
							c0.6,0.4,1.5,1.8,2.2,3v0C287.9,186.3,287.9,187.4,287.8,188.3z"/>
					</g>
					<g>
						<path class="st4" d="M267.5,173.4c0,0-3.5,1-7.1,2.5l0-0.1c-4.5-1.5-7.4-6.9-7.4-6.9s1.5-1.3,2.5-3c0.4-0.6,1.6-3.9,3.1-8
							c0.3-3.1-0.2-47.2-0.5-62.3c-0.1-5.6,0.1-13.7,0.5-21.7l0.5,0c0,0,2.8,0.2,3.9-1.1c1.1-1.3,3.9-22.7,4.1-24.6
							c2.5,0.4,4.9,0.8,6.2,1c1.6,0.3,4.6,0.8,7.9,1.3c-0.1,1.3-0.2,19,1,24.6l-5.1,3.7c0,0,7.1,8.6,11.5,8.9c0,0,0.4,11.8,1.6,23.9
							l-0.6,0c-0.7,3.6-2.3,16-2.3,16l-0.1,0c1.1,2,2.1,3.6,2.2,3.9c0.3,0.8,0.2,1.1-0.5,3.5c-0.7,2.3-0.3,38.2-0.4,40.3
							c1.8,2.9,3.6,5.7,4.2,6.4c1.2,1.3-4,5.7-5.1,6.6c0.1-0.9,0-2-0.3-3.3v0c-0.7-1.2-1.7-2.6-2.2-3c-0.8-0.5-13.2-6.5-17.7-8.8
							L267.5,173.4z"/>
					</g>
					<g>
						<path class="st5" d="M328.4,186.3c0.7,4.8-0.4,9-1,9.3c-0.7,0.3-11.2,2.6-23.6,2c-12.4-0.7-12.2-6.1-10.9-9.1
							c0.6-1.4,2.8-3.7,4.8-5.7c2-1.9,3.9-3.6,4.3-3.9c4.2,0.2,12.6,0.4,17.6-0.1l0,0.3c0,0,5.4,2.1,8.5,5.6
							C328.2,185.3,328.3,185.8,328.4,186.3z"/>
					</g>
					<g>
						<path class="st4" d="M325.3,66.3c0,2.1,0.1,3.8,0.1,4.5c-0.1,0.3-0.2,0.5-0.3,0.8c-0.2,0.5-0.4,1-0.6,1.4l-0.4-0.2
							c0,0-2.5,3.3-7.1,2.3c-4.6-1-5.9-24.7-5.9-24.7l0-0.6c1.2-0.1,2.6-0.3,4-0.5v0c0,0,1,17.8,4.3,18.8
							C321.5,68.6,324.8,66.7,325.3,66.3z"/>
					</g>
					<g>
						<path class="st4" d="M321.4,47.5c-0.1,0.6,3.8,12.3,3.9,18.9c-0.6,0.3-3.8,2.2-6,1.9c-3.3-1-4.3-18.8-4.3-18.8v0
							C318.8,49,319.3,47.7,321.4,47.5z"/>
					</g>
				</g>
			</g>
			<g id="XMLID_166_">
				<g>
					<path class="st6" d="M260.6,49.9l0.8-2.7l1.5,0.5c0,0,22.8,3.8,31.2,3.9c8.4,0,30.3-6,30.3-6l1,14.6l-0.2,10.6
						c0,0,0.5,0.2,0.3,3.5c-0.3,3.6,0.2,5,0.2,5s-0.3,7.1-0.4,10.1c-0.1,2.9,0.4,21.5,0.7,26c0.3,4.5-0.3,15.7-0.3,15.7
						s3.6,7.3,4.4,13c0.8,5.7,0.5,19.3,0.5,20.4s-1.6,4.8-1.7,5.2c-0.1,0.4,4.3,10.5,4.3,10.5s-1.6,2.8-1.8,3.2
						c-0.2,0.4-2.7,2-2.7,2l-3-2.8l-2.7-2.3c0,0-1,0.7-1.3,0.8c0.2-0.1,0.6-0.5,1.5-1.1c3.4-2.4-1.1-17.7-1.3-19.4
						c-0.1-1.7-2.1-5.9-1.9-7c0.2-1.2,2.2-6,1.8-9.1c-0.4-3-4.7-18.9-4.7-18.9s-1.7-7.4-1.7-7.9c0-0.5,2.7-2.2,2.7-3.1
						c0-0.9-0.3-10-0.8-16.8c-0.5-6.7-2.1-41.7-2.1-41.7c0,0.2-8.6,8.8-12.3,12.5c4.7-5.3,10.7-16.3,10.1-16.1
						c-0.7,0.2-25.1,1.3-29.8,1.1c-4.7-0.1-19.3-3.7-19.3-3.7s10.1,20.8,11.4,23.5C273.8,70.8,261.5,51.6,260.6,49.9z"/>
				</g>
				<g>
				</g>
			</g>
			<path class="st6" d="M285.1,85.3c0,0-0.5,19.2-0.8,21.4c-0.3,2.2-1.3,7.3-1,9.4c0.3,2.1,0.5,3.7,0.4,4.7c-0.1,1,0.6,13,0.9,14.8
				c0.3,1.9-0.8,1.9-1.4,7.3c-0.6,5.4-0.5,14.7-0.8,16.9c-0.3,2.2-0.2,5.3,0.2,5.8c0.4,0.5,2.3,4.8,2.2,5.2
				c-0.1,0.4-3.3,4.7-3.7,4.5c-0.4-0.2-7.3-2.3-7.6-2.4c-0.4-0.1-3.7,0.5-4.1,0.7c-0.4,0.1,14.8,6.3,17.1,8.8c2.2,2.5,3,4.9,3.2,4.6
				c0.2-0.3,3.7-4.6,3.7-4.6l-5.6-10.6l1-4.3l-0.1-9.6c0,0,0.4-22.1,0.9-23.7c0.5-1.6,0.1-2.2-0.1-2.6c-0.1-0.4-2.1-3.5-1.9-3.9
				c0.2-0.4,1.6-13.1,2.1-13.9c0.4-0.8,0.1-15.7,0-16.3c-0.1-0.6-0.4-10.2-0.4-10.2L285.1,85.3z"/>
			<path class="st7" d="M277.7,178.6c0,0.3,1.4,8.3-3.1,10.4c-4.5,2.1-23,1.2-23.8,1.2c-0.8,0-2.7,0.5-3,0.7
				c-0.3,0.2,2.4,1.3,2.7,1.3c0.3,0,34.5,0.7,36.3-1.3c1.8-1.9,1.5-6.8-0.5-8.4C284.3,181,277.7,178.6,277.7,178.6z"/>
			<path class="st7" d="M313.9,179.6c0.3,0.2,7.9,5.9,6.2,9.6c-1.6,3.6-18.5,7-18.6,7c-0.1-0.1,24.9,0.5,26.3-1.1
				c1.3-1.6,1.4-5.4,1.6-5.6c0.1-0.2-1.6-4.3-1.6-4.3s-4.9-4.7-6.7-5.4C319.3,179.1,313.9,179.6,313.9,179.6z"/>
			<g>
				<g>
					<path class="st8" d="M260.5,47.4c-0.1,0-0.1,0-0.2,0v0c-0.3,0-0.5-0.1-0.8-0.1c-0.1,2.2-0.7,10.3-1.2,19.9l-0.1,1.9
						c-0.1,1.6-0.2,3.2-0.2,4.9c-0.4,8.9-0.6,16.6-0.5,21.7c0.3,15.7,0.8,59.2,0.5,62.2l0,0.2l1-0.1c0.3-3.2-0.2-48.4-0.5-62.3
						c-0.1-5.1,0.1-12.7,0.5-21.6c0-1.6,0.1-3.3,0.2-4.8l0.1-1.9C259.8,57.8,260.3,49.8,260.5,47.4
						C260.5,47.4,260.5,47.4,260.5,47.4z"/>
				</g>
				<g>
					<path class="st8" d="M260.2,176.2c-4.6-1.5-7.6-6.9-7.7-7.2l-0.2-0.3l0.3-0.3c0,0,1.4-1.3,2.4-2.9c0.2-0.3,0.8-1.7,3.1-8
						c2.8-7.7,6.5-18,6.6-18.5l0.1-0.1c-0.1,0.5-2.9,11.2-5.8,18.9c-2.7,7.3-3.1,7.9-3.2,8.1c-0.8,1.2-1.8,2.3-2.3,2.8
						c0.7,1.2,3.4,5.2,7,6.4L260.2,176.2z"/>
				</g>
				<g>
					<path class="st8" d="M288,186.8c0,0-0.4-0.7-0.9-1.6l0.8-0.5c0.5,0.9,0.9,1.6,0.9,1.6L288,186.8z"/>
				</g>
				<g>
					<path class="st8" d="M287.1,185.2c-1.3-2.1-1.9-2.7-2.1-2.9c-0.4-0.2-3.6-1.8-7-3.5c-3.9-1.9-8.3-4.1-10.7-5.3l-0.4-0.2
						c-1.2-0.6-1.3-0.7-1.5-0.9l0.4-0.2l0.4-0.3c0.1,0.1,0.6,0.4,1.1,0.6l0.4,0.2c2.3,1.2,6.8,3.4,10.7,5.3c4.1,2,6.7,3.3,7.1,3.5
						c0.3,0.2,1,0.8,2.4,3.2L287.1,185.2z"/>
				</g>
				<g>
					<path class="st8" d="M287.9,188.8l-0.6-0.8c0,0,0.1,0,0.2-0.1c2.4-2,5-4.6,5.1-5.7c0-0.1,0-0.2,0-0.2c-0.6-0.7-2.2-3.2-4.2-6.5
						l-0.1-0.2c-1.7-2.8-3.6-7.3-4-7.7l0.2,0.2c0.4,0.2,1.4,1.8,4.7,7l0.1,0.2c1.6,2.5,3.5,5.7,4.1,6.4c0.2,0.2,0.3,0.5,0.3,0.9
						c-0.2,1.9-4.2,5.4-5.4,6.4C288,188.8,287.9,188.8,287.9,188.8z"/>
				</g>
				<g>
					<path class="st8" d="M288.2,175.3L288.2,175.3c0-0.7,0-4.6,0-9.6c0-15.4,0-29.4,0.4-30.9l0.2-0.7c0.5-1.7,0.5-1.9,0.3-2.4
						c-0.1-0.2-0.7-1.2-1.3-2.3l-0.9-1.6c-2.1-3.6-3.6-7.8-4.1-9.4l0.4,0.4c0.5,1.7,3.2,6.3,4.5,8.5l0.9,1.6
						c0.8,1.5,1.3,2.2,1.3,2.4c0.4,0.9,0.2,1.3-0.3,3.1l-0.2,0.7c-0.4,1.5-0.4,19.7-0.4,30.6c0,5.2,0,8.9,0,9.6L288.2,175.3z"/>
				</g>
				<g>
					<path class="st8" d="M287.9,127.6l-1-0.1c0-0.1,2-14.2,2.6-17.8l0.7,1.9C289.6,115.2,288,127.5,287.9,127.6z"/>
				</g>
				<g>
					<path class="st8" d="M258.9,67.6v-1c0,0,1.3,0,2.2-0.7c0.7-1,2.3-15.3,2.5-17.9v0l1.1,0.1l0,0c0,0.2-1.7,17.5-2.9,18.5
						C260.6,67.6,259,67.6,258.9,67.6z"/>
				</g>
				<g>
					<path class="st8" d="M259.4,74.4c-0.2,0-0.3,0-0.3,0l0.1-1c0.7,0,2.7-0.1,3.5-1c1-1.3,3.6-21,3.9-24.1l0.9,0.2l0.1,0.2
						c0,0.3-2.8,22.9-4.1,24.4C262.4,74.2,260.2,74.4,259.4,74.4z"/>
				</g>
				<g>
					<path class="st8" d="M294.4,135.9c-0.2-0.7-1.4-3.1-1.6-3.9c-1.4-5.6-2.4-14.2-2.9-20.4c-1-10.7-1.5-21.3-1.5-23.5
						c-4.6-0.8-11.2-8.7-11.5-9l0.8-0.6c0.1,0.1,7,8.4,11.2,8.7l0.4,0l0,0.4c0,0.1,0.4,11.9,1.6,23.8c0.6,6.2,1.5,14.7,2.9,20.3
						c0.2,0.8,0.4,1.6,0.6,2.3L294.4,135.9z"/>
				</g>
				<g>
					<path class="st8" d="M294.5,169.4l-1-0.2c0,0,0-0.1,0-0.4c0.1-1,0.4-6.1-0.3-12.3c-0.8-7-0.9-27.3-0.9-27.5l0.9,2.8
						c0,0.2,0.2,17.6,1,24.6c0.8,6.3,0.4,11.5,0.3,12.4C294.5,169.3,294.5,169.4,294.5,169.4z"/>
				</g>
				<g>
					<path class="st8" d="M297.3,183.1c-2.9-1.5-5.1-3.9-5.9-6.5c-0.4-1.2-0.4-2.3,0-3c0.3-0.6,1.1-2.3,2.1-4.8
						c1.8-4.3,2.9-7.5,3-7.9l0.3-0.9c0,0.8-2.1,8.4-2.4,9.2c-0.7,1.8-1.7,4-2.1,4.9c-0.3,0.5-0.3,1.3,0,2.3c0.6,1.8,2.3,4.3,5.4,5.9
						L297.3,183.1z"/>
				</g>
				<g>
					<path class="st8" d="M311.1,179.6c-3.4,0-6.8-0.1-9.1-0.2c-2.5-0.1-2.7-0.2-2.8-0.3l0.3-0.4l0.2-0.4c0.1,0,0.9,0.1,2.4,0.2
						c4.4,0.3,12.7,0.4,17.5-0.1c0.9-0.1,2,0.1,2.6,0l0.1,0.6c-0.7,0.2-1.6,0.3-2.6,0.4C317.3,179.6,314.2,179.6,311.1,179.6z"/>
				</g>
				<g>
					<path class="st8" d="M328.3,185.9c-0.2-0.3-0.4-0.5-0.6-0.8c-2.9-3.3-9-5.5-9-5.5l1.1-0.9c0.2,0.1,5.6,2.2,8.6,5.8
						c0.2,0.3,0.4,0.6,0.6,0.8L328.3,185.9z"/>
				</g>
				<g>
					<path class="st9" d="M308.3,198.3c-1.5,0-3,0-4.5-0.1c-5.9-0.3-9.7-1.7-11.2-4.2c-1.3-2.1-0.6-4.4-0.1-5.5
						c0.6-1.3,2.2-3.2,4.9-5.9c1.8-1.7,3-2.6,3.6-3.1l0.2,0.1l1.2-0.2l-0.3,0.3c-0.6,0.6-2.4,2.1-4.1,3.7c-2.6,2.6-4.2,4.5-4.7,5.6
						c-0.4,1-1,2.9,0.1,4.6c1.3,2.2,4.9,3.5,10.4,3.8c12,0.6,22.5-1.6,23.4-1.9c0.4-0.4,1.4-4.4,0.7-8.8c0-0.5-0.1-0.9-0.3-1.5
						l0-0.1l1,1.1l-0.1-1.3c0.2,0.7,0.3,1.2,0.3,1.7c0.7,4.6-0.3,9.3-1.2,9.8C327,196.4,318.8,198.3,308.3,198.3z"/>
				</g>
				<g>
					<path class="st8" d="M329.2,186.6l-0.7-0.7c1.3-1.3,3.4-3.9,3.2-5.2c-0.2-1.1-2.8-8.1-3.7-10.7l-0.4-1.1
						c-1.6-4.4-2.5-9.1-2.6-10l0.5,0.8c0.1,0.8,1.6,4.9,3.1,8.8l0.4,1.1c2.5,6.8,3.6,10,3.8,10.9C333,182.7,329.6,186.2,329.2,186.6
						z"/>
				</g>
				<g>
					<path class="st8" d="M329.1,170.7l-0.8-1.2c0-0.1,2.6-6.2,1-21.4c-1.3-12.6-3.4-17.6-3.4-17.7l0-0.2c0,0-0.5-42.8-0.7-51.8
						v-1.9l0.6,2.1V79c0.2,8.7,1,49,1.1,51.2c0.3,0.8,2.2,5.9,3.5,17.9C331.8,163.5,329.2,170.5,329.1,170.7z"/>
				</g>
				<g>
					<path class="st8" d="M319.2,70.4c-0.2,0-0.4,0-0.5,0c-3.5-1.1-4.4-15.8-4.6-18.9l0.9-0.1c0.4,6.8,1.7,17.4,3.9,18
						c2,0.3,6.2-2,6.6-2.3l-0.3,1.1c0,0,0,0-0.2,0.1C324.4,68.7,321.6,70.4,319.2,70.4z"/>
				</g>
				<g>
					<path class="st8" d="M319.1,77c-0.6,0-1.2-0.1-1.8-0.2c-4.8-1-6.1-22.9-6.3-25.4l0.9-0.1c0.5,9,2.4,23.8,5.5,24.5
						c4.3,0.9,8.1-3.3,8.2-3.3l-0.8,1.7C324.7,74.5,322.8,77,319.1,77z"/>
				</g>
				<g>
					<path class="st8" d="M294,83.8l-0.2-0.1c0.4-0.6,9.1-9.2,16.6-10.8l0.1,0.9C303.5,75.2,294.7,83,294,83.8z"/>
				</g>
				<g>
					<path class="st8" d="M281.8,50.8c-0.3,0-0.6-0.1-1-0.2c-0.1,2.5-0.2,19,1.1,24.4l0.4-0.1C281.1,69.8,281.6,53.5,281.8,50.8z"/>
				</g>
				<g>
					<path class="st8" d="M291.5,73.8c-0.7-5.2,1.5-21.6,1.6-22.3l1,0.2c0,0.2-2.9,17-2.2,22.1L291.5,73.8z"/>
				</g>
				<g>
					<path class="st8" d="M288.3,188.3l-1-0.1c0.1-0.9,0-1.9-0.3-3.1l0-0.1h1C288.3,186.2,288.4,187.3,288.3,188.3z"/>
				</g>
				<g>
					<path class="st9" d="M267.3,193.5c-8.2,0-16.7-0.3-18.1-0.8c-2.5-0.9-4.6-3.9-4.7-5.8c-0.1-1.8,3.5-4.5,9.8-8.7
						c1.3-0.9,3.3-1.9,5.9-2.9c3.6-1.4,6.3-2.3,6.3-2.3l1,0.8c0,0-3.5,1.1-7,2.4c-2.5,1-4.4,1.9-5.7,2.8c-2.8,1.9-9.5,6.2-9.4,7.8
						c0.1,1.6,1.9,4.2,4.1,5c2,0.7,30,1.1,33.7,0.1c2.6-0.7,3.8-1.8,4-3.7l1,0.1c-0.4,3-2.7,4-4.8,4.5
						C281.9,193.3,274.7,193.5,267.3,193.5z"/>
				</g>
			</g>
		</g>
		<g>
			<path class="st8" d="M325.8,81.8l-1.1,0.6c1-8.9,0.2-18.4,0-23.8l-0.1-2.1c-0.1-2.7-0.7-6.3-1.1-9.1l-0.3-2
				c-0.4-2.2-0.4-2.8-0.3-3.2l0.9-1l-0.1,0.2l0.1,1.2c0,0.3,0.2,1.9,0.3,2.5l0.3,2c0.5,2.9,1,6.6,1.1,9.3l0.1,2.1
				C326,64.8,326.7,73.5,325.8,81.8z"/>
		</g>
		<g>
			<g>
				<path class="st10" d="M247.6,50.5c5.4,5.1,8.6,17.5,8.6,17.5c-3.1,1.1-7,4.1-7.9,4.9c-0.1-0.8-0.2-1.5-0.3-2.2
					c-1.1-6.6-4.9-10.8-6.4-11.8C246.4,57.3,247.6,53.2,247.6,50.5z"/>
				<path class="st10" d="M249.3,81.1L249.3,81.1c-0.5-0.8-0.7-1.4-0.7-1.4l-0.4,0c0.1-1,0.2-1.9,0.2-2.8c2.5,0.4,13,0.5,13,0.5
					l-1.2,3.7L249.3,81.1z"/>
				<path class="st11" d="M308.9,64.2c1,1.2,2,2.4,2.8,3.3c1.4,1.7,2.3,2.7,2.3,2.7c0,1.1-0.5,3.5-2.4,6.8h0
					c-0.8,1.3-1.8,2.8-3.3,4.4c-3.9,3.8-10.8,5.5-15.6,6.2c-3.1,0.5-5.3,0.5-5.3,0.5s-1.4-4.5-3.6-9.8c-0.2-0.5-0.4-1.1-0.7-1.6
					l0.2-0.1C307.5,75.3,308.8,64.3,308.9,64.2L308.9,64.2z"/>
				<path class="st12" d="M324.2,37c0,0,3.4,17.9-12.3,30.3l-0.2,0.2c-0.8-0.9-1.8-2.1-2.8-3.3c-0.1-0.2-0.3-0.3-0.4-0.5l0,0
					c0,0,4.1-5.8,7.1-12.7c2.6-6,1.7-14.5,1-18.3L324.2,37z"/>
				<path class="st12" d="M308.5,63.7c0.1,0.2,0.3,0.3,0.4,0.5l-0.1,0.1c0,0-1.4,11-25.4,12.4l-0.2,0.1c0.2,0.5,0.5,1.1,0.7,1.6
					l-0.2,0.1c0,0-16.2,2.2-23.5,2.5l1.2-3.7c0,0-10.4-0.1-13-0.5c0-1.4,0-2.7-0.2-4c0.9-0.8,4.8-3.8,7.9-4.9c0,0-3.2-12.4-8.6-17.5
					c0-1.2-0.2-2.1-0.4-2.4c-0.8-1-2.6-3.2-6.8-11.7c-1.2-2.6-3.1-4.9-5.3-6.8l0.4-0.4c0,0,33.7-8.6,52.5-6
					c17.3,1.2,28.2,7.3,28.2,7.3s0.2,0.8,0.4,2c0.7,3.8,1.7,12.3-1,18.3C312.7,57.9,308.5,63.7,308.5,63.7L308.5,63.7z"/>
				<path class="st13" d="M300.3,129.6c0,0.6,0.1,1.2,0.2,2c-2.2,1.8-5.5,0.2-4.9-1.5c0.6-1.5,5.4-8.3,6.4-9.6
					C301.1,124,300.2,127.9,300.3,129.6z"/>
				<path class="st13" d="M320.2,136c1.4,2.3,1.1,3.5,0.9,4.4c-0.1,0.7-1.4,0.8-2.9-0.2c-0.1,1.4-1.1,4.1-3.4,2.8
					c-0.2-0.1-0.3-0.3-0.5-0.4l-0.1,0.1c0,0-0.6,2.6-3.5,1.1c-0.3-0.2-0.5-0.4-0.7-0.7l-0.2,0.2c0,0,0,0-1.1,0
					c-5.3-1.1-7.5-7.7-8.2-11.8c-0.1-0.8-0.2-1.4-0.2-2c-0.1-1.7,0.8-5.5,1.7-9c0,0,0,0,0,0c1-3.8,2.1-7.3,2.1-7.3l-0.6-2
					c-0.9-4-10.3-23.3-10.7-23.4v-0.1c4.8-0.7,11.7-2.4,15.6-6.2c1.4-1.6,2.5-3.1,3.3-4.4h0l0,0c4.2,17.8,1.1,35.6,2.5,37.2
					c3.7,3.5,4.4,9.4,4.8,11.6C319.3,128.2,318.8,133.7,320.2,136z"/>
				<path class="st13" d="M222.6,108.9c-1.4,0.2-3.4-1.4-4-2c2.2-0.4,4.6-1,7.1-1.9C225.5,105.9,224.1,108.6,222.6,108.9z"/>
				<path class="st13" d="M224,62.6c0.9-5.4,8.7-12.9,16.2-3.3l0.3-0.3c0.3-0.1,0.7-0.2,0.9-0.3c1.5,1,5.3,5.2,6.4,11.8
					c0.1,0.7,0.2,1.4,0.3,2.2c0.1,1.2,0.2,2.6,0.2,4c0,0.9-0.1,1.9-0.2,2.8c-0.6,5.2-2.8,10.9-7.7,16.1c-1.5,1.6-3.2,3.1-5.2,4.6
					c-3.2,2-6.5,3.5-9.6,4.7c-2.5,0.8-4.8,1.5-7.1,1.9c-9.1,1.8-15.9,0.5-15.9,0.5l0,0c2.5-1.7,4.7-3.7,6.5-5.4
					c3.4-3.2,3.6-0.9,9.4-3.5c7.1-3.8,5.7-9.9,5.5-13c-0.2-3.1,0.5-1.4,4-4.8c4.3-6-2.1-9.6-2.1-9.6l0.4-0.5
					C225.4,69.7,223.2,67.2,224,62.6z"/>
				<path class="st13" d="M268.1,128.9c2.2,5,1.3,8.8,0,9c-0.3,0.1-0.7-0.1-1.2-0.4l-0.1,0.1c0,0,0.2,0.4-1.1,1
					c-0.8,0.1-2-0.5-3.1-1.3l-0.3,0.3c-1.7,0.2-4.1-1.8-6.8-4.6c-0.3-0.3-0.6-0.8-0.9-1.2l-0.3,0.1c-2.9-2-3.2-5.2-3.1-8.2
					c0.1-3,1.1-11.8,1-12c-0.1-0.2-11.7-15.9-11.7-15.9l0-0.1c4.8-5.2,7-10.9,7.7-16.1l0.4,0c0,0,0.3,0.6,0.7,1.5
					c2,4.2,7.7,16.5,8.9,22.6c0,0,6.2,2.4,9.1,4.6c2.8,2.2,2.6,1.7,2.9,2.6c0.3,0.9,0.8,5.9,2.1,7.1c1.3,1.3,3.5,4.6,1.1,5.4
					c-2.3,0.8-5.1-0.4-6.4-3.9C266.9,122.5,267.1,127,268.1,128.9z"/>
				<path class="st14" d="M241.5,58.9c-0.3,0.1-0.6,0.2-0.9,0.3l-0.3,0.3c-7.5-9.7-15.3-2.2-16.2,3.3c-0.8,4.5,1.4,7.1,2.4,8
					l-0.4,0.5c0,0,6.3,3.6,2.1,9.6c-3.5,3.4-4.2,1.7-4,4.8c0.2,3.1,1.6,9.2-5.5,13c-5.8,2.5-6,0.3-9.4,3.5c-1.7,1.6-3.9,3.7-6.5,5.4
					c-2.4,1.5-5.2,2.7-8.1,2.6c-6.1,0-8.9-2.8-10.2-5.1c-0.5-0.7-3.7-0.4-5-0.3c-1.3,0-14.8,0.8-20.5-6.5c-5-5.9-7.1-7.9-9.5-10
					c-2.4-2.1-4.5-7.2-5-12.3c-0.5-5.1,0.4-9.7,3.1-13.1c2.7-3.4,4.6-4.6,4.8-13.2c0.1-4.7,1.2-9.2,3.3-13.4c0.6-1.2,1.3-2.3,2-3.5
					c3.1-4.8,6.9-8.8,11.2-12.4c1.2-1,2.5-1.9,3.7-2.8c1.5-1,3-2,4.6-2.9c3.6-2,7.6-3.3,11.7-4.1c3.8-0.8,7.7-1.2,11.5-0.3
					c2.3,0.6,4.7,1.5,6.8,2.6c-0.8-2.2-3.7-9-8.5-9.3c0,0,8.6-6.6,16.3,0.2c5.4,5.4,4.4,10.9,4.4,10.9s9.1-6.3,14.6,3.6
					c0,0-7.7-1.3-12.3,3.4c0,0,7.7,2.8,13.5,8.1c2.2,1.9,4.1,4.2,5.3,6.8c4.1,8.4,6,10.6,6.8,11.7c0.2,0.3,0.4,1.2,0.4,2.4
					C247.6,53.2,246.4,57.3,241.5,58.9z"/>
			</g>
			<path class="st15" d="M218.2,15.7c3-5.2-1.3-11.2-5.8-13.6c-2-1.1-4.6-1.1-6.8-0.7c-2,0.4-4.6,0.5-6.3,1.8c2.1,0,5.1,2.9,6.2,4.5
				c1.1,1.7,1,3.4,1,5.3c-1-1.7-5-3.3-7.1-2.9c-2.5,0.5,0.2,3.3-0.6,5c7.3,0,11.8,9,13.8,15c1.5,4.3,2.1,10.2,0,14.5
				c-0.5,1.1-1.5,1.9-2.2,2.9c-0.9,1.3-0.4,1.6,0.6,2.7c0.9,1,1.7,2,2.4,3.2c1.7,3.2,2.9,7.1,2.7,10.8c-0.2,3.4-1.4,7.7-4,10
				c-1.5,1.3-3.3,1.3-5,1.9c2.4,1.9,2.2,6.2,2.1,8.9c-0.2,5.5-2.7,11.3-6.9,15c-4.6,4-12.8,5.9-18.7,3.8c0.3,1.1,1.8,2.5,2.6,3.5
				c1.1,1.5,1.9,1.3,3.7,2c2.5,1,6.1,0.8,8.6-0.2c2.7-1.1,5.2-1.5,7.2-3.6c1.2-1.3,1.9-3.2,3.1-4.2c1.2-1,2.9-1.3,4.4-1.7
				c4.1-0.9,8.3-2.1,10.5-6c1-1.8,1.1-3.9,0.8-5.9c-0.2-1.6-0.6-3.2,0.6-4.5c0.8-0.9,2-1.2,2.7-2.3c0.8-1.2,1.8-2.6,1.5-4
				c-0.3-1.6-0.2-3.9-1.7-4.9c-1.7-1.3-2.8-2.5-2.9-4.8c-0.2-5.6,2.6-13.2,9.3-12.6c1.3,0.1,2.1,0.7,3.2,1.6c1.2,1,2,2.8,3.7,2.9
				c1.8,0.1,3.9-1.7,5-3c1.3-1.6,2.3-4.1,2.2-6.1c0-1.1-0.8-1.4-1.4-2.4c-0.9-1.5-1.6-3.1-2.5-4.6c-1.5-2.6-3.2-5.6-4.7-8.3
				c-1.5-2.7-3.1-4-5.4-6.1c-2.2-2-4.2-3.3-6.9-4.4c-2.3-0.9-4.3-2.3-6.6-2.2c4.4-3.7,8.6-3.5,13.9-3.8c-0.5-1.8-1.8-3.1-3.3-3.9
				c-1.5-0.7-2.8-1.5-4.5-1.3c-3.1,0.3-5.5,0.8-8.2,2.2c0.3,0,0.4-0.2,0.6-0.3"/>
			<path class="st15" d="M191,24c-0.9-0.1-1.1,1.2-0.8,2c0.5,1.1,1.9,1.9,2.9,2.6c1.5,1.1,3.1,1.9,4.4,3.2c2.3,2.2,1.6-2.1,1-3.4
				c-0.8-1.6-2-3.3-3.5-4.3c-0.5-0.3-1.4-0.8-2-0.9c-0.9-0.2-1.6,0.3-2.4,0.4"/>
			<path class="st15" d="M179.4,43.5c0.2,2.9,4,4.2,6,5.3c0.8,0.4,1.7,1,1,1.8c-0.6,0.8-2.2,0.5-3.1,0.6c-2.5,0.1-3.8-0.4-5.7-2.1
				c-1.4-1.2-2.7-2.7-2.9-4.6c-0.1-1.6,0.7-2.9,2.3-2.9c1.6,0,2.2,1.3,2.8,2.6"/>
			<path class="st15" d="M165.9,42.6c-1.6,3.9-1.9,7.9-0.7,12c1.1,3.7,2.4,7.2,3.9,10.7c1.1,2.7,2.6,4.9,4.9,6.8
				c1.1,0.8,3.3,1.9,3.6,3.3c-2.3,1.2-5.6-0.5-7.8-1.4c-2.9-1.2-4.7-2.7-6.4-5.2c-1.4-2-2.8-3.1-3.3-5.5c-0.5-2.2-1-4.4-1.3-6.7
				c-0.1-1.3-0.6-2.6-0.6-3.9c0-1.2,0.5-2.2,0.4-3.4c-0.3-2.2,0-3.7,0.9-5.8c0.8-1.7,2-3.4,3.8-3.9c2.2-0.6,2.7,1.3,2.6,3.2
				c-0.1,0.8-0.6,1.5-0.6,2.3"/>
			<path class="st16" d="M207.6,102.6c3.2,3.6,8.3,0.8,11.8-0.8c4-1.7,8.3-3.9,12.8-3.7c1.1,0,2,0.4,2.9,0.9c1,0.6,1.1,0.6,2.2-0.1
				c2.3-1.6,4.3-4.3,5.7-6.7c2.6-4.7,4.4-9.2,4.9-14.5c0.4-4.5-0.5-7.9-2.5-11.8c-1-2-1.8-3.9-3.4-5.4c-1.3-1.3-5.2-5-7.4-5.5
				c-2-0.5-2.4-0.7-4.3,0.2c-2.5,1.1-3.8,3.1-5.1,5.3c-1.3,2.3-1.3,4.2-0.7,6.9c0.5,2.3,2.8,4.4,4,6.2c1.2,1.8,0.8,4.6,0.2,6.7
				c-0.3,1.1-2.7,0.7-4.5,4.2c-0.8,1.6,0.1,3.9,0.1,5.7c0,2-0.8,4.5-2.3,5.8c-1.6,1.4-2.5,2-4.4,2.9c-1,0.5-2.9,0.8-3.9,1.1
				c-0.9,0.3-1.8,0.3-2.7,0.8c-0.8,0.4-2.5,2.5-3,2.5"/>
			<path class="st16" d="M240.7,96c3.9,1.4,4.7-3.3,7.4-4.7c2.8-1.4,5.4,2.3,6.2,4.6c1,2.7,2.6,5.2,3.6,8c0.3,0.9,0.7,1.7,1.1,2.5
				c0.4,1.1,0.3,2.2,0.5,3.4c0.8,5.6,3.2,11,4,16.6c0.3,2.5,0.5,4.8,2,6.9c0.6,0.8,1.3,1.4,1.8,2.3c0.3,0.5,0.4,2.1,1.2,1.6
				c0.7-0.4,1-2.8,0.9-3.4c-0.2-1.5-0.5-1.8-0.7-3.3c-0.4-2.6-1.4-7.1-1.2-9.8c0.9,1.5,3.4,3.5,5.4,3.1c2.7-0.5,1.1-3.2,0.2-5
				c-1.1-2-1.8-4-2.1-6.2c-0.3-2.1-1.6-3-3.3-4.1c-1.7-1-3.4-1.9-5.2-2.7c-1.5-0.7-3.3-1.3-3.8-3c-0.5-1.8-1.5-3.5-2.1-5.3
				c-0.8-2.1-1.3-4.3-2-6.4c-1-3-3-5.5-4.1-8.3c-0.5-1.1-1-2-1.3-3.1c-0.2-1-0.6-1.9-1.1-2.8c0.2,1.8-0.2,3.5-0.6,5.1
				c-0.4,2-0.9,4.2-1.7,6.1c-0.7,1.8-1.7,3.3-2.9,4.8c-0.5,0.6-2.2,2.5-1.5,3"/>
			<path class="st16" d="M294.3,88c-1.4,3.1,6.4,1.5,7.5,1.4c2.8,0,3.9,4.7,4.4,6.8c0.7,3.2,2,6.2,2.9,9.4c1,3.1,1.4,6.3,1.9,9.5
				c0.8,5.5,4.1,10.2,4.7,15.8c0.2,2.1,0.3,3.8,1.6,5.6c0.5,0.7,2.7,4.4,3.4,3c0.3-0.7-0.3-2.4-0.4-3.1c-0.2-1.5-0.7-2.8-0.8-4.3
				c-0.1-2.1,0.1-4.2-0.2-6.3c-0.3-2.1-0.9-4.7-1.9-6.6c-0.9-1.6-1.2-3-3-4.7c-0.7-0.7-0.3-2.4-0.3-3.3c0.1-1.3,0-2.3,0.1-3.5
				c0.1-2.6,0.4-5,0.2-7.5c-0.5-5.8-0.1-11.7-1.3-17.4c-0.4-2-0.8-3.7-0.9-5.7c-2.3,2.8-5.2,5.7-8.5,7.3c-1.7,0.8-3.5,1.3-5.2,2
				c-0.8,0.3-3.5,0.9-3.7,1.6"/>
			<path class="st17" d="M244.9,45.1c-0.1-0.1-0.1-0.3-0.1-0.4c1-0.2,1.2,0.7,1.8,1.3c1.1,1.3,2.7,2.2,4.2,2.9
				c3.4,1.6,6.3,4.2,9.7,5.9c2.6,1.3,5.4,1.9,8.3,1.7c1.1-0.1,2.2-0.6,3.3-0.4c0.6,1.3,0.8,2.9,1.6,4.3c1.1,2.3,2.3,4.4,3.6,6.6
				c2.4,3.8,4.4,8,6.4,12c-4.8,0.3-9.4,0.5-14.2,1.6c-3.3,0.7-6.2,0.9-9.6,0.6c0.2-0.6,0.8-1.2,1-1.9c0.2-0.6,0.1-1.2,0.3-1.8
				c-2.3,0.1-4.7-0.4-7-0.2c-1.1,0.1-2.2,0.3-3.3,0.3c-0.9,0-1.7-0.3-2.6-0.2c0.4-1.4-0.1-3,0.2-4.3c0.3-1,2.2-1.7,3.1-2.2
				c1.2-0.7,2.4-1.5,3.6-2.4c1-0.7,0.3-1,0.3-2.1c0-2.3-0.3-3.6-1.9-5.2c-0.9-1-0.4-1.9-1.2-2.9c-0.9-1.3-1.4-4-2.5-5.2
				c-0.4-0.5-1.2-1.2-1.5-1.8c-0.5-0.7-0.5,0.3-0.6,0.5c-0.5,1.5,1-1-0.1-2.3c-0.7-0.8-0.8-1.6-1.4-2.4c-0.2-0.4-0.6-0.7-0.9-1
				c-0.3-0.3-0.8-0.7-0.5-0.7"/>
			<path class="st17" d="M296,75.3c0-0.7,0.6-1.3,0.8-1.9c0.4-1.1,0.5-2.3,0.5-3.5c0.1-2.3-0.2-4.5-0.6-6.7
				c-0.8-3.9-1.2-7.9-3.4-11.3c-0.9-1.4-1.5-3-2.3-4.4c-0.8-1.4-2.1-2.6-2.8-4.1c-0.5-1.1-1.2-2.4-0.2-3.2c1.1-0.9,3.3-1,4.6-1.1
				c2.9-0.2,5.8,0.3,8.7,0.5c3,0.1,6,0,8.9,0.1c2,0.1,4.8-0.6,6.6,0.1c1,0.4,1.4,0.8,2.5,0.8c1,0,2-0.1,2.9,0.2
				c2.7,0.8,2.6,3.1,2.2,5.5c-0.5,3.3-1.8,6.7-2.8,9.8c-0.9,2.6-2.8,4.7-4.7,6.6c-1.2,1.2-2.8,3.3-4.4,3.9c-0.9,0.4-0.9-0.2-1.9-0.8
				c-0.7-0.5-1.1-1.1-1.8-1.6c0.3,2.6-3.4,5.6-5.2,6.9c-2.3,1.6-5,2.7-7.4,4.2"/>
			<path class="st10" d="M299.9,72.8c2.9,0,6.3,0.8,7.5,3.8c0.6,1.6,0.1,2.9-0.1,4.3c1.8-0.3,3.6-2.3,4.6-3.7
				c1.1-1.4,1.6-2.8,1.9-4.6c0.1-0.5,0.7-1.5,0.5-2c-0.2-1-1.9-2.1-2.6-2.8c-1.2-1.1-2.7-2.3-3.4-3.8c-0.5,2.2-1.8,4.5-3.7,5.9
				c-0.7,0.5-4,2.9-4.5,2.8"/>
			<g>
				<g>
					<path class="st18" d="M240.7,59.6l-0.2-0.9c0.3-0.1,0.6-0.2,0.9-0.3c5.3-1.7,5.7-6.5,5.7-7.9c0-1.2-0.2-2-0.3-2.1l-0.3-0.3
						c-0.9-1.2-2.8-3.8-6.5-11.4c-1-2.3-2.8-4.5-5.2-6.7c-5.7-5.2-13.3-8-13.4-8.1l-0.7-0.3l0.5-0.5c3.8-3.9,9.5-3.9,11.7-3.7
						c-1.5-2.4-3.4-3.8-5.5-4.3c-4-0.9-7.8,1.6-7.9,1.7l-0.9,0.7l0.2-1.1c0-0.1,0.8-5.3-4.3-10.5c-5.8-5.1-12.2-2.2-14.6-0.8
						c4.2,1.2,6.7,6.9,7.6,9.4c0.2,0.5,0.3,0.7,0.3,0.7l-0.9,0.3c0,0-0.1-0.3-0.2-0.7c-0.8-2.1-3.6-8.8-8.1-9l-1.3-0.1l1-0.8
						c0.1-0.1,9-6.8,16.9,0.2c4.2,4.3,4.7,8.5,4.6,10.4c1.4-0.8,4.5-2.1,7.8-1.3c2.7,0.6,4.9,2.5,6.7,5.6l0.5,0.9l-1-0.2
						c-0.1,0-6.9-1.1-11.3,2.8c2.1,0.9,8.1,3.6,13,8c2.5,2.2,4.3,4.6,5.4,7c3.7,7.5,5.5,10,6.4,11.2l0.3,0.4
						c0.3,0.5,0.5,1.5,0.5,2.7c0,1.6-0.5,6.9-6.4,8.8C241.3,59.4,241,59.5,240.7,59.6z"/>
				</g>
				<g>
					<path class="st18" d="M194.6,110.5C194.6,110.5,194.5,110.5,194.6,110.5c-5.1,0-8.7-1.8-10.7-5.3c-0.3-0.3-3-0.2-3.9-0.1
						l-0.7,0c-3.6,0.2-15.6,0.1-20.9-6.7c-5.2-6.1-7.3-8-9.5-9.9c-2.6-2.2-4.7-7.4-5.2-12.6c-0.5-5.5,0.6-10.1,3.2-13.4
						c0.3-0.4,0.6-0.8,0.9-1.1c2.2-2.6,3.6-4.3,3.8-11.8c0.1-4.7,1.2-9.3,3.4-13.6c0.6-1.2,1.3-2.3,2-3.5c3-4.6,6.7-8.7,11.3-12.5
						c1.1-0.9,2.3-1.8,3.8-2.9c1.6-1.1,3.1-2.1,4.6-2.9c3.4-1.9,7.3-3.3,11.9-4.2c3.5-0.7,7.6-1.3,11.7-0.3c2.3,0.6,4.7,1.5,6.9,2.6
						l0.3,0.1l-0.4,0.9l-0.3-0.1c-2.2-1.1-4.5-2-6.7-2.6c-3.9-0.9-7.9-0.4-11.3,0.3c-4.5,0.9-8.3,2.2-11.6,4.1
						c-1.5,0.9-3,1.8-4.5,2.9c-1.5,1.1-2.7,2-3.7,2.8c-4.6,3.7-8.2,7.7-11.1,12.3c-0.7,1.1-1.4,2.3-1.9,3.4
						c-2.1,4.2-3.2,8.6-3.3,13.2c-0.2,7.8-1.8,9.7-4,12.4c-0.3,0.3-0.6,0.7-0.9,1.1c-2.4,3.1-3.4,7.5-3,12.7c0.4,4.9,2.5,10,4.8,12
						c2.6,2.2,4.8,4.4,9.6,10c5,6.5,16.6,6.5,20,6.3l0.7,0c2.7-0.1,4.2-0.1,4.7,0.6c1.9,3.2,5.2,4.8,9.8,4.9c0,0,0.1,0,0.1,0
						c2.5,0,5-0.8,7.8-2.6c2.3-1.5,4.4-3.4,6-5l0.3-0.3c2-1.8,3-2,4.4-2.1c1.1-0.1,2.5-0.3,5.1-1.4c6-3.2,5.6-8.2,5.3-11.5
						c0-0.4-0.1-0.8-0.1-1.1c-0.1-2,0.1-2.3,1.3-3c0.6-0.4,1.5-0.9,2.9-2.2c1.1-1.6,1.6-3.2,1.2-4.7c-0.6-2.6-3.2-4.1-3.2-4.1
						l0.5-0.8c0.1,0.1,3,1.7,3.7,4.8c0.4,1.8-0.1,3.7-1.4,5.5c-1.5,1.4-2.5,2-3.1,2.4c-0.9,0.5-0.9,0.5-0.8,2.1c0,0.3,0,0.7,0.1,1.1
						c0.3,3.3,0.8,8.9-5.9,12.4c-2.7,1.2-4.3,1.4-5.4,1.5c-1.4,0.2-2.1,0.2-3.9,1.9l-0.3,0.3c-1.7,1.6-3.8,3.5-6.2,5.1
						C200,109.6,197.3,110.5,194.6,110.5z"/>
				</g>
				<g>
					<path class="st19" d="M227.1,71.2c0,0-0.6,0.1-1-0.2c-1.1-0.9-3.5-3.7-2.6-8.4c0.5-3.2,3.4-7.1,7.2-8.1c2.4-0.6,6-0.3,9.9,4.6
						l-0.4,0.1l0.5,0.2l-0.4,0l-0.4,0.4l0-0.1l0,0c-2.8-3.6-5.8-5-8.9-4.3c-3.4,0.9-6,4.4-6.5,7.3c-0.8,4.3,1.3,6.7,2.3,7.5
						c0.2,0.2,0.4,0.7,0.4,0.7L227.1,71.2z"/>
				</g>
				<g>
					<path class="st19" d="M229.7,68.5c-0.7-0.9-0.7-3.1-0.3-4.1c0.3-0.8,1.1-2.7,2.7-3.6c1.4-0.8,2.5-0.4,3.1,0
						c0.9,0.6,1.3,1.1,1.2,1.6l-1-0.1c0,0-0.3-0.4-0.8-0.7c-0.6-0.4-1.2-0.4-2,0.1c-0.9,0.5-1.7,1.7-2.2,3.1
						c-0.3,0.8-0.8,3.1-0.4,3.7L229.7,68.5z"/>
				</g>
				<g>
					<path class="st19" d="M208.8,108.3c-3.8,0-6.2-0.4-6.2-0.4l0.2-1c0.1,0,6.8,1.2,15.7-0.5c2.3-0.4,4.6-1,7-1.9
						c3.4-1.2,6.6-2.8,9.5-4.6c2-1.4,3.7-2.9,5.1-4.5c4.2-4.5,6.8-10,7.5-15.8c0.1-0.9,0.2-1.9,0.2-2.8c0-1.3,0-2.6-0.2-3.9
						c-0.1-0.8-0.2-1.5-0.3-2.1c-1.1-6.6-5.7-10.4-7-11.3c-0.7-0.5-0.8-0.8-0.2-0.5l0.3-0.4c0.2,0,0.6-0.1,0.9,0
						c1.4,1,5.1,4.7,6.9,12.1c0.1,0.6,0.2,1.3,0.3,2.2c0.2,1.4,0.2,2.7,0.2,4c0,0.9-0.1,1.9-0.2,2.9c-0.7,6-3.4,11.7-7.8,16.4
						c-1.5,1.6-3.3,3.2-5.3,4.6c-3,1.9-6.3,3.5-9.7,4.7c-2.4,0.8-4.8,1.5-7.2,1.9C214.9,108.1,211.5,108.3,208.8,108.3z"/>
				</g>
				<g>
					<path class="st19" d="M222.3,109.4c-1.4,0-3.2-1.3-4.1-2.1c-0.1-0.1-0.2-0.2-0.2-0.2l0.7-0.7c0,0,0.1,0.1,0.2,0.1
						c1.5,1.3,2.8,2,3.6,1.9c1.2-0.2,2.6-2.6,2.7-3.5l0-0.2c0,0,0,0.1,0,0.2l0.9-0.4c0,0.1,0.1,0.3,0,0.6c-0.2,1.1-1.6,4-3.5,4.2
						C222.6,109.4,222.4,109.4,222.3,109.4z"/>
				</g>
				<g>
					<path class="st19" d="M254,132.3c-3.1-2.2-3.4-5.6-3.3-8.6c0.1-1.8,0.5-5.6,0.7-8.4c0.1-1.6,0.3-3,0.3-3.4
						c-0.6-0.9-8.5-11.6-11.6-15.8l0.8-0.6c11.6,15.8,11.7,16,11.7,16c0.1,0.2,0.1,0.2-0.3,3.8c-0.3,2.8-0.6,6.6-0.7,8.4
						c-0.1,2.8,0.1,5.9,2.9,7.7L254,132.3z"/>
				</g>
				<g>
					<path class="st19" d="M262,138.1c-1.9,0-4.1-1.9-6.9-4.8c-0.4-0.4-0.7-0.8-1-1.4c-1.9-3.5-1.6-9.7-1.6-9.9l0.6-0.1
						c0,0.1,0.1,6.3,1.9,9.6c0.2,0.4,0.5,0.8,0.8,1.1c2.4,2.4,4.8,4.7,6.4,4.5l0.1,1C262.2,138.1,262.1,138.1,262,138.1z"/>
				</g>
				<g>
					<path class="st19" d="M265.5,139.1c-0.9,0-1.9-0.5-3.2-1.4c-1.6-1.2-3.3-3-4.3-4.2c-1.7-2-2.3-10.4-2.2-11.2l0-0.2l0.2-0.2
						l0.6,0.8l-0.3-0.4l-0.1-0.4c-0.1,0.8,1.2,9.4,2.5,11c1,1.2,2.6,2.9,4.2,4c1.6,1.2,2.4,1.3,2.8,1.2c0.6-0.3,0.7-0.5,0.7-0.5
						c0,0,0,0.1,0,0.2l0.9-0.4c0,0.1,0.1,0.3,0,0.6c-0.2,0.4-0.6,0.7-1.4,1C265.7,139.1,265.6,139.1,265.5,139.1z"/>
				</g>
				<g>
					<path class="st19" d="M266.4,119.5l0-1.2c0-0.6,0-1,0-1.1l-0.1-3.1l0.4-0.1l0.6,3.1c0,0.1,0,0.3,0,1.2l0,1.2L266.4,119.5z"/>
				</g>
				<g>
					<path class="st19" d="M267.9,138.4c-0.5,0-1-0.3-1.3-0.5c-1.6-1.1-3.8-3.7-4.7-5.5c-1.3-2.5-2-10.2-2-10.6l0.4-0.1
						c0,0.1,1.2,7.9,2.4,10.2c1,1.9,3,4.3,4.4,5.1c0.6,0.3,0.8,0.3,0.8,0.3c0.2,0,0.4-0.2,0.5-0.5c0.7-1.3,0.7-4.3-0.8-7.8
						c-0.9-1.8-1.2-6.2-1.2-9.5l1,0c0.1,4.5,0.5,7.8,1.1,9.1c1.7,3.8,1.6,7.1,0.8,8.7c-0.4,0.7-0.8,1-1.2,1
						C268.1,138.4,268,138.4,267.9,138.4z"/>
				</g>
				<g>
					<path class="st19" d="M271.9,124.2c-2,0-4.3-1.3-5.5-4.4l0.2-0.2l-0.1-0.4l0.2,0.2l0.5-0.2l0.2,0.3l-0.1,0.1
						c1.3,3.2,3.8,4.1,5.7,3.4c0.5-0.2,0.6-0.5,0.7-0.7c0.2-1-1-3-2-4c-1-1-1.5-3.6-2-6.1c-0.1-0.6-0.2-1-0.2-1.2
						c-0.1-0.5-0.1-0.5-0.9-1c-0.4-0.3-1-0.7-1.9-1.4c-2.8-2.1-8.9-4.5-8.9-4.5l-0.2-0.1l-0.1-0.3c-1.3-6.2-7.1-18.7-8.9-22.5
						l-0.7-1.5l0.5-1.2l1.1,2.2c1.8,3.7,7.5,16.1,8.9,22.4c1.2,0.5,6.4,2.6,8.9,4.5c0.9,0.7,1.5,1.1,1.9,1.4c0.9,0.6,1,0.7,1.2,1.4
						c0.1,0.3,0.2,0.8,0.3,1.4c0.3,1.7,0.8,4.7,1.7,5.6c1.1,1.1,2.6,3.3,2.2,4.9c-0.1,0.5-0.4,1.1-1.3,1.4
						C273,124.1,272.4,124.2,271.9,124.2z"/>
				</g>
				<g>
					<path class="st20" d="M256.6,67.8c-0.1-0.5-3.3-12.6-8.7-17.7l0.1,1.6c4.7,4.4,6.9,13.7,7.5,15.9c-2.5,1-5.4,3.1-7,4.3
						c0,0,0,0,0,0.1v0.2c0,0.3,0,0.7,0,1c1.4-1.1,5-3.8,7.8-4.8l0.4-0.1L256.6,67.8z"/>
				</g>
				<g>
					<path class="st20" d="M261.3,76.8c-0.1,0-9.7-0.1-12.5-0.5c0,0.3,0,0.6-0.1,1c2.6,0.3,9.7,0.4,11.9,0.5l-0.9,2.7l-10.5,0.1v0
						c0.2,0.3,0.4,0.6,0.5,1l10.7-0.1l1.5-4.6L261.3,76.8z"/>
				</g>
				<g>
					<path class="st21" d="M308.9,64l-0.8-0.6c0-0.1,4.1-5.9,7-12.6c2.6-6,1.6-14.6,1-18.1c-0.1-0.9-0.3-1.5-0.3-1.8
						c-1.5-0.8-12-6.1-27.8-7.2c-18.6-2.6-51.8,5.8-52.1,5.9l-1.4-1.2c0.3-0.1,34.9-8.2,53.6-5.7c17.2,1.2,28.2,7.3,28.4,7.4
						l0.2,0.1l0,0.2c0,0,0.2,0.8,0.4,2.1c0.7,4.4,1.6,12.6-1,18.6C313.1,58,309,63.9,308.9,64z"/>
				</g>
				<g>
					<path class="st21" d="M312.2,67.7l-0.6-0.8c14.3-11.4,12.4-27.6,12.1-29.6l-7.4-4.3l0.2-0.5l0.3-0.4l0.1,0l7.8,4.5l0,0.2
						C324.7,37.1,327.9,55.3,312.2,67.7z"/>
				</g>
				<g>
					<path class="st21" d="M260.1,81.5l0-1c7.3-0.3,23.3-2.5,23.5-2.5l0.1,1C283.6,79,267.4,81.2,260.1,81.5z"/>
				</g>
				<g>
					<path class="st21" d="M279.4,68.7c-0.3-0.1-0.5-0.2-0.8-0.3c-4.2-1.7-9.5-7-9.7-7.2l0.5-0.2c0.1,0,5.6,4.8,9.6,6.5
						c0.3,0.1,0.5,0.2,0.7,0.3L279.4,68.7z"/>
				</g>
				<g>
					<path class="st21" d="M308.9,63.4c-7.2-8.7-11.3-14.2-12.3-16.4l-0.3,0c1,2.3,4.6,8.4,11.8,17.1l0.2,0.2c0,0,0.1,0.1,0.1,0.1
						C308.6,64.1,308.8,63.8,308.9,63.4L308.9,63.4z"/>
					<path class="st22" d="M270,43.9l-0.1,0.2l0.1,0C270,44.1,270,44,270,43.9z"/>
					<path class="st21" d="M279.2,67.7c-0.4-0.7-1-1.5-1.5-2.2c-4.8-6-7.5-19.6-7.7-21.4l-0.1,0l-0.5-0.1
						c-0.2,0.7,2.2,15.5,7.5,22.2c0.5,0.7,1,1.4,1.5,2.1c1.6,2.5,3,5.6,4,8c0.4,0,0.7,0,1,0C282.4,73.8,280.9,70.5,279.2,67.7z"/>
					<path class="st20" d="M314.4,70c0,0-0.9-1.1-2.3-2.7c-0.6-0.7-1.2-1.4-1.9-2.3l-0.9-1c-0.1-0.1-0.1-0.2-0.2-0.3l-0.2-0.2
						c-0.2,0.3-0.3,0.6-0.5,0.9c0,0.1,0.1,0.1,0.1,0.2l0.9,1c0.7,0.8,1.4,1.6,1.9,2.3c1.1,1.3,1.9,2.3,2.2,2.6
						c-0.1,1.2-0.6,3.5-2.2,6.1l-0.2,0.2c-0.8,1.5-1.9,2.9-3.2,4.3c-3.8,3.7-10.4,5.3-15.4,6.1c-2.3,0.3-4.2,0.5-4.9,0.5
						c-0.4-1.2-1.7-5.1-3.4-9.4c-0.2-0.5-0.4-1.1-0.7-1.6c-0.1-0.1-0.1-0.3-0.2-0.4c-0.3,0-0.7,0-1,0c0.1,0.3,0.2,0.5,0.3,0.8
						c0.2,0.5,0.5,1,0.6,1.6c2.1,5.1,3.5,9.7,3.5,9.7l0.1,0.4l0.4,0c0.1,0,2.3-0.1,5.4-0.5c5.1-0.8,12-2.5,15.9-6.4
						c1.2-1.4,2.3-2.8,3.2-4.3l0.2-0.2c1.8-3,2.5-5.6,2.5-7v-0.2L314.4,70z"/>
				</g>
				<g>
					<path class="st20" d="M283.4,77.2l-0.1-1c23.4-1.3,25-11.9,25-12l1,0.1C309.3,64.8,307.6,75.8,283.4,77.2z"/>
				</g>
				<g>
					<path class="st19" d="M309.7,143.8h-1.1c-5.2-1.1-7.8-7-8.7-12.2c-0.1-0.7-0.2-1.4-0.2-2c-0.1-1.5,0.5-4.6,1.7-9.2l0.9,0.2
						c-1.2,4.5-1.8,7.6-1.7,8.9c0,0.6,0.1,1.2,0.2,1.9c0.8,4.9,3.2,10.4,7.8,11.4l1,0V143.8z"/>
				</g>
				<g>
					<path class="st19" d="M302.5,120.6l-0.9-0.3c0.9-3.3,1.8-6.5,2.1-7.2l-0.6-1.9c-0.9-3.8-9.9-22.4-10.6-23.2l0.3-0.2l0.2-0.6
						c1.1,0.3,10.4,20.9,11,23.8l0.6,2.1l0,0.1C304.5,113.3,303.5,116.8,302.5,120.6z"/>
				</g>
				<g>
					<path class="st19" d="M312.3,144.8c-0.6,0-1.2-0.2-1.9-0.5c-0.4-0.3-0.6-0.5-0.9-0.8c-4.3-4.4-4.7-12.9-4.7-13.3l0.5-0.1
						c0,0.1,1,8.6,5,12.7c0.2,0.2,0.4,0.4,0.7,0.6c0.7,0.4,1.4,0.5,1.9,0.3c0.6-0.3,0.8-1.1,0.8-1.1l0.9,0.2c0,0-0.3,1.2-1.4,1.7
						C313,144.7,312.7,144.8,312.3,144.8z"/>
				</g>
				<g>
					<path class="st19" d="M315.9,143.9c-0.4,0-0.8-0.1-1.4-0.4c-0.3-0.2-0.5-0.4-0.6-0.5c-4.2-3.8-4.5-13-4.5-13.1l0.5-0.1
						c0,0.1,0.8,8.9,4.7,12.4c0.1,0.2,0.3,0.3,0.4,0.4c0.5,0.3,1,0.3,1.4,0.1c0.8-0.4,1.2-1.8,1.3-2.6c0-0.3,0-0.4,0-0.5l0.8,0.5
						c0.1,0.2,0.3-0.3,0.2,0.1c-0.1,0.8-0.5,2.6-1.8,3.3C316.7,143.7,316.3,143.9,315.9,143.9z"/>
				</g>
				<g>
					<path class="st19" d="M320.2,141.4c-0.7,0-1.5-0.3-2.3-0.8c-0.7-0.5-1.3-1-1.8-1.7c-2.2-2.7-2.6-8.6-2.7-8.8l0.6-0.3
						c0,0,0.8,6.1,2.8,8.5c0.5,0.6,1,1.1,1.6,1.5c1,0.7,1.8,0.7,2.1,0.6l0.1-0.2c0.1-0.9,0.3-2-0.9-4c-1-1.7-1.1-5-1.2-7.6
						c0-1.1,0-2-0.1-2.7c-0.3-2.4-1.1-8-4.6-11.4c-0.6-0.7-0.6-2.7-0.5-7.5c0.2-6.9,0.5-18.5-2.2-29.9l0.9-0.2
						c2.7,11.5,2.4,23.2,2.2,30.2c-0.1,3.3-0.2,6.4,0.2,6.8c3.7,3.6,4.5,9.4,4.9,11.8c0.1,0.8,0.1,1.7,0.1,2.9c0,2.5,0.1,5.6,1,7.1
						c1.4,2.3,1.2,3.7,1,4.6l0,0.2c-0.1,0.4-0.3,0.6-0.6,0.8C320.7,141.4,320.5,141.4,320.2,141.4z"/>
				</g>
				<g>
					<path class="st19" d="M298.3,132.9c-0.8,0-1.6-0.3-2.2-0.7c-0.9-0.6-1.2-1.5-0.9-2.3c0.6-1.6,5-7.8,6.2-9.4l0,0l0.2-0.3
						c0.1-0.1,0.2-0.2,0.2-0.2l0.3,0.4l0,0l0,0l0.2-0.2l-0.2,0.5l0.2,0.2c-1.1,1.4-5.7,8-6.3,9.4c-0.2,0.5,0.4,1,0.6,1.1
						c0.9,0.6,2.4,0.7,3.5-0.2c0.1-0.1,0.1-0.1,0.2-0.2l0.4,0.9c0,0,0,0-0.1,0.1C300,132.6,299.1,132.9,298.3,132.9z"/>
				</g>
			</g>
		</g>
	</g>
</g>
</svg>
