<?xml version="1.0" encoding="utf-8"?>
<!-- Generator: Adobe Illustrator 19.2.0, SVG Export Plug-In . SVG Version: 6.00 Build 0)  -->
<svg version="1.1" id="Layer_1" xmlns="http://www.w3.org/2000/svg" xmlns:xlink="http://www.w3.org/1999/xlink" x="0px" y="0px"
	 viewBox="0 0 1024 768" style="enable-background:new 0 0 1024 768;" xml:space="preserve">
<style type="text/css">
	.st0{fill:url(#SVGID_1_);}
	.st1{fill:#622872;}
	.st2{fill:url(#SVGID_2_);}
	.st3{fill:#CA4977;}
	.st4{fill-rule:evenodd;clip-rule:evenodd;fill:#F6DFB4;}
	.st5{fill:#D2D3D4;}
	.st6{fill:#FFFFFF;}
	.st7{fill:#205B6A;}
	.st8{fill:url(#SVGID_3_);}
	.st9{fill:url(#SVGID_4_);}
	.st10{fill:url(#SVGID_5_);}
	.st11{fill:url(#SVGID_6_);}
	.st12{fill:url(#SVGID_7_);}
	.st13{fill:url(#SVGID_8_);}
	.st14{fill:url(#SVGID_9_);}
	.st15{fill:url(#SVGID_10_);}
	.st16{fill:url(#SVGID_11_);}
	.st17{fill:url(#SVGID_12_);}
	.st18{fill:url(#SVGID_13_);}
	.st19{fill:url(#SVGID_14_);}
	.st20{fill:url(#SVGID_15_);}
	.st21{fill:url(#SVGID_16_);}
	.st22{fill:url(#SVGID_17_);}
	.st23{fill:url(#SVGID_18_);}
	.st24{fill:url(#SVGID_19_);}
	.st25{fill:url(#SVGID_20_);}
	.st26{fill:url(#SVGID_21_);}
	.st27{fill:url(#SVGID_22_);}
	.st28{fill:url(#SVGID_23_);}
	.st29{fill:url(#SVGID_24_);}
	.st30{fill:url(#SVGID_25_);}
	.st31{fill:url(#SVGID_26_);}
	.st32{fill:url(#SVGID_27_);}
	.st33{fill:url(#SVGID_28_);}
	.st34{fill:#2B3C90;}
	.st35{fill:url(#SVGID_29_);}
	.st36{fill:#1D1A45;}
	.st37{fill:url(#SVGID_30_);}
	.st38{fill:url(#SVGID_31_);}
</style>
<g>
	<g>
		<g>
			<g>
				<linearGradient id="SVGID_1_" gradientUnits="userSpaceOnUse" x1="245.1853" y1="138.1426" x2="245.1853" y2="721.1336">
					<stop  offset="0" style="stop-color:#1F1A46"/>
					<stop  offset="0.1599" style="stop-color:#211E4C"/>
					<stop  offset="0.4318" style="stop-color:#26265D"/>
					<stop  offset="0.7806" style="stop-color:#2B337A"/>
					<stop  offset="0.9949" style="stop-color:#2B3C90"/>
				</linearGradient>
				<path class="st0" d="M395.4,266.9h-6.1c-1.8-28.2-25.9-59.6-71.7-93.4c-35-25.9-70.5-43.7-70.9-43.9c-1-0.5-2.2-0.5-3.1,0
					c-0.3,0.2-35.9,18-70.9,43.9c-45.7,33.8-69.8,65.2-71.7,93.4H95c-1.9,0-3.5,1.6-3.5,3.5v360.2h307.5V270.4
					C398.9,268.5,397.4,266.9,395.4,266.9z"/>
			</g>
		</g>
	</g>
</g>
<g>
	<path class="st1" d="M493.3,213.5c0-0.8,0.7-1.5,1.5-1.5c0.8,0,1.5,0.7,1.5,1.5c0,0.8-0.7,1.5-1.5,1.5
		C494,215,493.3,214.4,493.3,213.5z M493.3,221c0-0.8,0.7-1.5,1.5-1.5c0.8,0,1.5,0.7,1.5,1.5c0,0.8-0.7,1.5-1.5,1.5
		C494,222.5,493.3,221.8,493.3,221z"/>
	<path class="st1" d="M512.9,221c0,0.4-0.2,1.2-1.4,1.2c-1,0-1.6-0.3-2-0.6c-0.7,2.2-3.3,4.2-7.2,4.9l-1-1.4l0.1-0.2
		c4.7-0.9,6.4-2.8,6.8-4.6c-0.4-1.1-1.1-2.6-1.8-4l1.4-1.5h0.2c0.6,1.7,1.2,3.1,1.4,3.7c0.6,1.6,1,1.9,2.5,1.9
		C512.7,220.4,512.9,220.6,512.9,221z"/>
	<path class="st1" d="M520.5,221c0,0.4-0.2,1.2-1.4,1.2c-1,0-2.4-0.3-3.5-1.2c-0.8,0.8-1.9,1.2-3.6,1.2h-0.5l0.5-1.9h0.5
		c0.9,0,1.6-0.1,2-0.5c0.4-0.5,0.7-1.6,1.2-3.6l1.8-0.5l0.2,0.1c-0.3,1.5-0.7,2.7-1.2,3.7c0.5,0.3,1.4,0.7,3,0.7
		C520.3,220.4,520.5,220.6,520.5,221z M515.4,224.1l2,1.3l-1.2,1.8l-2-1.4L515.4,224.1z"/>
	<path class="st1" d="M528.5,209.1l-6.2,3.5c4.7,3.1,5.5,4.8,5.5,6.2c0,1.9-1.7,3.4-6.5,3.4h-2.3l0.5-1.9h1.8c2.5,0,4.5-0.5,5-1
		c0-1.9-2.5-3.6-5.6-5.7l-0.1-0.1l0.5-2.4l7.9-4.5l0.2,0.1L528.5,209.1z"/>
	<path class="st1" d="M536.4,204c-1.2,0.1-2.7,0.3-4.6,0.3l-0.1-1.3c0.3,0,0.7,0,1.1,0c-0.3-0.4-0.4-0.9-0.4-1.4
		c0-1.2,0.7-1.9,2-1.9c0.5,0,1.1,0.1,1.7,0.3l-0.3,1.2c-0.5-0.1-0.8-0.2-1.1-0.2c-0.6,0-0.9,0.4-0.9,0.9c0,0.4,0.2,0.7,0.5,1
		c0.8,0,1.5-0.1,2.2-0.2L536.4,204z M535,205.8l0.1,0.1l0,16.1l-1.7,0.4l-0.1-0.1v-16L535,205.8z"/>
	<path class="st1" d="M545.5,220.2c0,3.1-2.3,6.1-7.3,6.2l-1-1.4l0.1-0.2c3.4-0.1,5.7-1.3,6.5-3.3c-0.7,0.1-1.4,0.3-2.3,0.3
		c-2.1,0-3.1-1.1-3.1-2.8c0-2.2,1.6-4.6,3.5-4.6C544.1,214.5,545.5,217.3,545.5,220.2z M541.8,220c0.8,0,1.5-0.1,2.2-0.2
		c-0.1-1.7-1.1-3.5-2.2-3.5c-0.9,0-1.9,1.2-1.9,2.5C539.9,219.7,540.6,220,541.8,220z"/>
	<path class="st1" d="M553.8,222c0-1,0.2-2,0.4-2.7l1.5-0.5l0.2,0.1c-0.2,0.9-0.3,1.6-0.3,2.2c0,2.2,1.2,3.8,5.1,3.8
		c3.7,0,6.6-1,7-2.2c0-0.8-1.1-1.3-3.9-2l0.6-1.8c2.4,0.6,4.5,1.5,6.5,1.5c0.8,0,1,0.3,1,0.7c0,0.4-0.2,1.2-1.5,1.2h-0.9
		c-0.4,2.9-4,4.5-9.2,4.5C555.9,226.7,553.8,224.7,553.8,222z"/>
	<path class="st1" d="M579.4,221c0,0.4-0.2,1.2-1.4,1.2c-1,0-2.4-0.3-3.5-1.2c-0.8,0.8-1.9,1.2-3.6,1.2h-0.5l0.5-1.9h0.5
		c0.9,0,1.6-0.1,2-0.5c0.4-0.5,0.7-1.6,1.2-3.6l1.8-0.5l0.2,0.1c-0.3,1.5-0.7,2.7-1.2,3.7c0.5,0.3,1.4,0.7,3,0.7
		C579.3,220.4,579.4,220.6,579.4,221z M575.8,213.1l-2-1.4l1.2-1.8l2,1.3L575.8,213.1z"/>
	<path class="st1" d="M592.2,221c0,0.7-0.6,1.2-1.5,1.2c-1,0-1.8-0.2-2.4-0.8c-0.4,0.7-0.9,1.1-1.9,1.1c-1.4,0-3.2-0.7-4.8-1.8
		c-1,1.3-1.7,1.5-3.6,1.5l0.5-1.9c1,0,1.3-0.3,2.1-1.5c0.9-1.5,2-4.4,4.3-4.4c1.8,0,2.6,1.8,3.5,3.7c0.9,1.8,1.3,2.1,2.8,2.1
		C591.9,220.4,592.2,220.6,592.2,221z M587.3,220.1c-0.1-0.1-0.1-0.3-0.2-0.4c-1-2.4-1.6-3.3-2.2-3.3c-0.9,0-1.7,1.5-2.4,2.9
		c1.2,0.8,2.7,1.4,3.5,1.4C586.6,220.7,587,220.5,587.3,220.1z"/>
	<path class="st1" d="M600.3,221c0,0.4-0.2,1.2-1.4,1.2c-1.5,0-2.9-0.3-3.9-1.2c-0.8,0.8-1.8,1.2-3.3,1.2h-0.8l0.5-1.9h0.7
		c0.7,0,1.4-0.1,1.8-0.5c0.3-0.5,0.7-1.6,1.2-3.6l1.8-0.5l0.2,0.1c-0.3,1.5-0.7,2.7-1.1,3.7c0.6,0.3,1.5,0.7,3.4,0.7
		C600.1,220.4,600.3,220.6,600.3,221z M592.8,224.1l1.9,1.3l-1.2,1.8l-1.9-1.4L592.8,224.1z M596.3,224.1l1.9,1.3l-1.2,1.8l-1.9-1.4
		L596.3,224.1z"/>
	<path class="st1" d="M599.3,220.4c0.8,0,1.7,0,2.3-0.5c0.1-0.4,0.2-1,0.2-1.9v-11.7l1.7-0.4l0.2,0.1v11.9c0,3.5-1.8,4.4-4.8,4.4
		L599.3,220.4z"/>
	<path class="st1" d="M606.7,222.3v-16l1.8-0.5l0.1,0.1l0,16.1l-1.7,0.4L606.7,222.3z"/>
	<path class="st1" d="M617,222c0-1,0.2-2,0.4-2.7l1.5-0.5l0.2,0.1c-0.2,0.9-0.3,1.6-0.3,2.2c0,2.2,1.2,3.8,5.1,3.8
		c3.7,0,6.5-0.9,6.9-2.1c0-0.5-0.4-1.1-3.9-2l0.6-1.7c4.4,1.2,5.2,2,5.2,3.2c-0.3,2.9-4,4.5-9.2,4.5C619.2,226.7,617,224.7,617,222z
		 M620.1,230.3l1.2-1.8l1.9,1.3l-1.2,1.8L620.1,230.3z M623.6,230.3l1.2-1.8l1.9,1.3l-1.2,1.8L623.6,230.3z"/>
	<path class="st1" d="M639.1,221c0,0.4-0.2,1.2-1.4,1.2c-1.9,0-3.2-1-3.7-2.8c-1,0.6-2.6,1-5.2,1.2l-1.2-1.6c3.4-0.3,5.2-0.7,5.9-1
		c0.1-0.4,0.2-1.1,0.2-1.9v-9.8l1.7-0.4l0.2,0.1v10c0,2.7,0.5,4.5,2.7,4.5C639,220.3,639.1,220.6,639.1,221z"/>
	<path class="st1" d="M651,217.5l-0.5,1.7c-2,0.2-3.9,0.7-6.5,1.6c-3,1-4.6,1.4-6.3,1.4l0.5-1.9c1.5,0,2.8-0.2,5.4-1.1
		c1.6-0.5,2.8-0.8,3.8-1c-0.4-0.2-1-0.5-1.7-0.9c-1.9-1.1-2.9-1.4-4-1.4c-0.9,0-1.7,0.2-2.4,0.5l-0.1-0.1l0.7-1.7
		c0.6-0.3,1.4-0.5,2.1-0.5c1.1,0,2.2,0.5,4.3,1.6C648.5,216.9,649.8,217.4,651,217.5z M643.5,224.1l2,1.3l-1.2,1.8l-2-1.4
		L643.5,224.1z"/>
	<path class="st1" d="M649.2,225.1l0.1-0.2c4.6-0.8,6.7-3,6.7-4.3c-0.1-1-0.8-2.7-1.7-4.4l1.4-1.5h0.2c1,1.9,1.7,4,1.7,5.4
		c0,0.8-0.2,1.7-0.6,2.4c-0.9,1.7-3.4,3.3-6.7,3.9L649.2,225.1z"/>
	<path class="st1" d="M665.8,222c0-1,0.2-2,0.4-2.7l1.5-0.5l0.2,0.1c-0.2,0.9-0.3,1.6-0.3,2.2c0,2.2,1.2,3.8,5.1,3.8
		c3.7,0,6.5-0.9,6.9-2.1c0-0.5-0.4-1.1-3.9-2l0.6-1.7c4.4,1.2,5.2,2,5.2,3.2c-0.3,2.9-4,4.5-9.2,4.5
		C668,226.7,665.8,224.7,665.8,222z"/>
	<path class="st1" d="M687.9,221c0,0.4-0.2,1.2-1.4,1.2c-1.9,0-3.2-1-3.7-2.8c-1,0.6-2.6,1-5.2,1.2l-1.2-1.6c3.4-0.3,5.2-0.7,5.9-1
		c0.1-0.4,0.2-1.1,0.2-1.9v-9.8l1.7-0.4l0.2,0.1v10c0,2.7,0.5,4.5,2.7,4.5C687.8,220.3,687.9,220.6,687.9,221z"/>
	<path class="st1" d="M697.8,219.9l-0.6,1.7c-1.9,0.4-4.7,0.6-10.8,0.6l0.5-1.9c0.9,0,1.8,0,2.7,0c-0.6-0.9-1-2-1-3.1
		c0-2.5,2-4,4.6-4c1.2,0,2.4,0.4,3.2,0.8l-0.2,1.7l-0.1,0c-0.9-0.4-1.9-0.6-2.9-0.6c-1.6,0-2.6,0.8-2.6,2.1c0,0.9,0.5,2.1,1.4,3
		c2.1-0.1,3.9-0.2,5.6-0.4L697.8,219.9z"/>
	<path class="st1" d="M732.8,221c0,0.4-0.2,1.2-1.4,1.2c-1,0-2.3-0.2-3.3-1c-0.7,0.7-1.7,1-2.8,1c-1,0-2-0.2-2.7-0.6
		c-0.5,0.4-1.2,0.6-2.2,0.6c-0.6,0-1.3-0.2-1.9-0.6c-0.5,3.4-3.3,5.1-6.9,5.1c-3.7,0-5.7-2.1-5.7-4.9c0-1,0.2-2.1,0.4-2.7l1.5-0.5
		l0.2,0.1c-0.2,0.8-0.2,1.6-0.2,2.2c0,2.4,0.9,4,4.2,4c2.7,0,3.9-1,4.6-1.8c0.2-0.5,0.3-1.1,0.3-1.6c0-1.3-0.6-2.7-1.3-4.4l1.7-1.2
		h0.1c0.3,0.8,0.7,2.3,1.2,3.2c0.5,0.9,1.2,1.3,2,1.3c0.4,0,0.9-0.1,1.2-0.3c0.3-0.4,0.7-1.4,1.1-2.8l1.9-0.3l0.1,0.1
		c-0.4,1.2-0.7,2.2-1.1,3c0.5,0.1,1.1,0.3,1.7,0.3c0.6,0,1.2-0.1,1.6-0.4c0.2-0.3,0.4-1.1,0.4-2.2c0-0.4,0-0.8-0.1-1.2l1.7-0.6
		l0.2,0.1c0,0.4,0,0.7,0,1.1c0,1.1-0.1,1.9-0.3,2.6c0.5,0.3,1.4,0.7,2.9,0.7C732.6,220.4,732.8,220.6,732.8,221z"/>
	<path class="st1" d="M739.8,221c0,0.4-0.2,1.2-1.4,1.2c-1,0-2.4-0.2-3-1.4c-0.8,1.1-2.2,1.4-4,1.4l0.5-1.9c0.8,0,1.7,0,2.3-0.5
		c0.1-0.4,0.2-1,0.2-1.9v-11.7l1.7-0.4l0.2,0.1v11.8c0,2.4,1.1,2.6,2.7,2.6C739.7,220.4,739.8,220.6,739.8,221z"/>
	<path class="st1" d="M751.7,217.5l-0.5,1.7c-2,0.2-3.9,0.7-6.5,1.6c-3,1-4.6,1.4-6.3,1.4l0.5-1.9c1.5,0,2.8-0.2,5.4-1.1
		c1.6-0.5,2.8-0.8,3.8-1c-0.4-0.2-1-0.5-1.7-0.9c-1.9-1.1-2.9-1.4-4-1.4c-0.9,0-1.7,0.2-2.4,0.5l-0.1-0.1l0.7-1.7
		c0.6-0.3,1.4-0.5,2.1-0.5c1.1,0,2.2,0.5,4.3,1.6C749.2,216.9,750.5,217.5,751.7,217.5z M744.2,224.1l2,1.3l-1.2,1.8l-2-1.4
		L744.2,224.1z"/>
	<path class="st1" d="M757.2,204c-1.2,0.1-2.7,0.3-4.6,0.3l-0.1-1.3c0.3,0,0.7,0,1.1,0c-0.3-0.4-0.4-0.9-0.4-1.4
		c0-1.2,0.7-1.9,2-1.9c0.5,0,1.1,0.1,1.7,0.3l-0.3,1.2c-0.5-0.1-0.8-0.2-1.1-0.2c-0.6,0-0.9,0.4-0.9,0.9c0,0.4,0.2,0.7,0.5,1
		c0.8,0,1.5-0.1,2.2-0.2L757.2,204z M755.8,205.8l0.1,0.1l0,16.1l-1.7,0.4l-0.1-0.1v-16L755.8,205.8z"/>
	<path class="st1" d="M766.3,220.2c0,3.1-2.3,6.1-7.3,6.2l-1-1.4l0.1-0.2c3.4-0.1,5.7-1.3,6.5-3.3c-0.7,0.1-1.4,0.3-2.3,0.3
		c-2.1,0-3.1-1.1-3.1-2.8c0-2.2,1.6-4.6,3.5-4.6C764.9,214.5,766.3,217.3,766.3,220.2z M762.6,220c0.8,0,1.5-0.1,2.2-0.2
		c-0.1-1.7-1.1-3.5-2.2-3.5c-0.9,0-1.9,1.2-1.9,2.5C760.7,219.7,761.3,220,762.6,220z"/>
	<path class="st1" d="M774.3,222.1l0.3-1.8l0.1-0.1c0.7,0.2,2.1,0.2,2.6,0.2c1.6,0,3.5-0.3,4-0.9c-0.3-1.9-1.9-4-3.7-5.8l1-1.8h0.2
		c2.4,2.6,4.1,5,4.1,6.9c0,2.4-2,3.5-5.7,3.5C776.7,222.3,775.2,222.3,774.3,222.1z"/>
	<path class="st1" d="M795.5,221c0,0.4-0.2,1.2-1.5,1.2h-1.8c-0.8,2.3-3,4.1-7,4.2l-1-1.4l0.1-0.2c3-0.1,5.2-1.1,6.1-2.7h-0.7
		c-3,0-4.4-1.2-4.4-3.1c0-2.2,1.6-4.7,3.5-4.7c2.2,0,3.6,2.7,3.6,5.7v0.1h1.9C795.3,220.4,795.5,220.6,795.5,221z M791.1,220.4v-0.1
		c0-2.1-1.1-3.8-2.2-3.8c-0.9,0-1.9,1-1.9,2.6c0,0.9,0.8,1.4,3.1,1.4H791.1z"/>
	<path class="st1" d="M810.1,221c0,0.4-0.2,1.2-1.4,1.2c-3.2,0-4.7-0.8-5.5-2.3c-0.8,0.2-1.7,0.5-2.7,0.9c-3.1,1.1-4.5,1.4-6.4,1.4
		l0.5-1.9c1.6,0,2.9-0.2,5.4-1.1c1.5-0.5,2.7-0.8,3.8-1c-0.4-0.2-0.9-0.5-1.7-0.8c-1.9-1-2.9-1.4-4-1.4c-0.9,0-1.7,0.2-2.4,0.5
		l-0.1-0.1l0.7-1.8c0.6-0.3,1.4-0.5,2.1-0.5c1.1,0,2.2,0.5,4.2,1.6c2.4,1.2,3.6,1.7,4.7,1.8l-0.4,1.7c-0.6,0.1-1.2,0.1-1.8,0.3
		c0.7,0.7,1.9,0.9,4,0.9C809.9,220.4,810.1,220.6,810.1,221z M799.9,224.1l2,1.3l-1.2,1.8l-2-1.4L799.9,224.1z"/>
	<path class="st1" d="M829.3,221c0,0.4-0.2,1.2-1.4,1.2c-1,0-2.3-0.2-3.3-1c-0.7,0.7-1.7,1-2.9,1c-1,0-1.9-0.2-2.7-0.6
		c-0.5,0.4-1.2,0.6-2.2,0.6c-1.7,0-3-0.5-3.7-1.1c-0.9,0.7-2.2,1.1-4.4,1.1l0.5-1.9c1.5,0,2.5-0.1,3-0.5c0.3-0.4,0.6-1.3,1-2.5
		l2-0.3l0.1,0.1c-0.4,1-0.7,1.9-1.1,2.6c0.7,0.3,1.9,0.6,2.8,0.6c0.4,0,0.9-0.1,1.2-0.3c0.3-0.4,0.7-1.4,1.1-2.8l1.9-0.3l0.1,0.1
		c-0.4,1.2-0.7,2.2-1.1,2.9c0.5,0.2,1.1,0.3,1.7,0.3c0.6,0,1.2-0.1,1.6-0.4c0.2-0.3,0.4-1,0.4-2.2c0-0.4,0-0.8-0.1-1.3l1.7-0.6
		l0.2,0.1c0,0.4,0,0.7,0,1.1c0,1.1-0.1,1.9-0.3,2.6c0.5,0.3,1.4,0.7,2.9,0.7C829.1,220.4,829.3,220.6,829.3,221z"/>
	<path class="st1" d="M828.3,220.4c0.8,0,1.7,0,2.3-0.5c0.1-0.4,0.2-1,0.2-1.9v-11.7l1.7-0.4l0.2,0.1v11.9c0,3.5-1.8,4.4-4.8,4.4
		L828.3,220.4z"/>
	<path class="st1" d="M835.7,222.3v-16l1.8-0.5l0.1,0.1l0,16.1l-1.7,0.4L835.7,222.3z"/>
	<path class="st1" d="M862.1,221c0,0.4-0.2,1.2-1.5,1.2c-0.6,0-1.4-0.2-1.9-0.6c-0.5,3.4-3.3,5.1-6.9,5.1c-3.7,0-5.7-2.1-5.7-4.9
		c0-1,0.2-2.1,0.4-2.7l1.5-0.5l0.2,0.1c-0.2,0.8-0.2,1.6-0.2,2.2c0,2.4,0.9,4,4.2,4c2.7,0,3.9-1,4.6-1.8c0.8-1.8,0-3.6-1-6l1.7-1.2
		h0.1c0.3,0.8,0.7,2.3,1.2,3.2c0.5,1,1.2,1.4,2.2,1.4C861.8,220.4,862.1,220.6,862.1,221z M852.4,214.7l-2-1.4l1.2-1.8l2,1.3
		L852.4,214.7z"/>
	<path class="st1" d="M871.5,219.9c0,1.6-0.8,2.6-2.4,2.6c-1.2,0-3.1-0.6-4.8-1.8c-0.9,1.2-2,1.5-3.6,1.5l0.5-1.9
		c1.1,0,1.6-0.5,2.2-1.5c0.8-1.5,2-4.3,4.3-4.3S871.5,217.2,871.5,219.9z M867.5,216.4c-0.9,0-1.4,1.1-2.4,2.9
		c1.4,0.9,2.8,1.4,3.5,1.4c0.4,0,0.8-0.1,1-0.3C869.9,219.2,868.7,216.4,867.5,216.4z"/>
	<path class="st1" d="M879.7,221.7c0-1,0.2-2.1,0.4-2.7l1.5-0.5l0.2,0.1c-0.2,0.8-0.2,1.6-0.2,2.2c0,2.4,0.9,4,4.2,4
		c2,0,3.4-0.5,4.4-1.7c0.3-0.6,0.6-1.8,0.6-3.7v-13.1l1.7-0.4l0.2,0.1l0,13.2c0,5.4-2.5,7.5-7.2,7.5
		C881.6,226.7,879.7,224.6,879.7,221.7z"/>
	<path class="st1" d="M906.7,221c0,0.4-0.2,1.2-1.5,1.2c-1.1,0-1.9-0.3-2.5-1.3c-0.9,0.9-2.6,1.4-4.9,1.4c-0.5,0-1.9-0.1-2.8-0.3
		l0.3-1.8l0.1-0.1c0.8,0.2,2.1,0.2,2.6,0.2c1.5,0,3.1-0.3,3.9-0.9l-0.1-0.1c-0.4-0.8-2.2-4.3-3.2-6l1.4-1.5h0.2
		c0.7,1.5,2.4,5.4,2.8,6c0.9,1.9,1.4,2.3,2.7,2.3C906.5,220.4,906.7,220.6,906.7,221z"/>
	<path class="st1" d="M914.8,221c0,0.4-0.2,1.2-1.4,1.2c-1.5,0-2.9-0.3-3.9-1.2c-0.8,0.8-1.8,1.2-3.3,1.2h-0.8l0.5-1.9h0.7
		c0.7,0,1.4-0.1,1.8-0.5c0.3-0.5,0.7-1.6,1.2-3.6l1.8-0.5l0.2,0.1c-0.3,1.5-0.7,2.7-1.1,3.7c0.6,0.3,1.5,0.7,3.4,0.7
		C914.6,220.4,914.8,220.6,914.8,221z M909.1,213.1l-1.9-1.4l1.2-1.8l1.9,1.3L909.1,213.1z M912.5,213.1l-1.9-1.4l1.2-1.8l1.9,1.3
		L912.5,213.1z"/>
	<path class="st1" d="M924.7,219.9l-0.6,1.7c-1.9,0.4-4.7,0.6-10.8,0.6l0.5-1.9c0.9,0,1.8,0,2.7,0c-0.6-0.9-1-2-1-3.1
		c0-2.5,2-4,4.6-4c1.2,0,2.4,0.4,3.2,0.8l-0.2,1.7l-0.1,0c-0.9-0.4-1.9-0.6-2.9-0.6c-1.6,0-2.6,0.8-2.6,2.1c0,0.9,0.5,2.1,1.4,3
		c2.1-0.1,3.9-0.2,5.6-0.4L924.7,219.9z"/>
	<path class="st1" d="M930.5,204c-1.2,0.1-2.7,0.3-4.6,0.3l-0.1-1.3c0.3,0,0.7,0,1.1,0c-0.3-0.4-0.4-0.9-0.4-1.4
		c0-1.2,0.7-1.9,2-1.9c0.5,0,1.1,0.1,1.7,0.3l-0.3,1.2c-0.5-0.1-0.8-0.2-1.1-0.2c-0.6,0-0.9,0.4-0.9,0.9c0,0.4,0.2,0.7,0.5,1
		c0.8,0,1.5-0.1,2.2-0.2L930.5,204z M929.2,205.8l0.1,0.1l0,16.1l-1.7,0.4l-0.1-0.1v-16L929.2,205.8z"/>
</g>
<g>
	<path class="st1" d="M670,419.7c0-0.8,0.7-1.5,1.5-1.5c0.8,0,1.5,0.7,1.5,1.5c0,0.8-0.7,1.5-1.5,1.5
		C670.7,421.2,670,420.6,670,419.7z"/>
	<path class="st1" d="M692.6,417.1c0,1.2-0.4,2.4-1.5,3c-1.3,0.8-3.6,1.1-6.5,1.1H683c-5.2,0-8.1-1.1-8.1-4.4c0-1,0.2-2.1,0.4-2.7
		l1.4-0.5l0.2,0.1c-0.2,0.8-0.2,1.6-0.2,2.2c0,2.9,2.4,3.5,6.9,3.5h1.7c2.4,0,4.7-0.3,5.7-0.7c0.2-1.3-0.3-2.5-1.2-4.5l1.7-1.2h0.2
		C692.3,414.6,692.6,416.2,692.6,417.1z M682.8,411.9l-1.9-1.4l1.2-1.8l1.9,1.3L682.8,411.9z M686.1,411.9l-1.9-1.4l1.2-1.8l1.9,1.3
		L686.1,411.9z"/>
	<path class="st1" d="M695.6,421v-16l1.8-0.5l0.1,0.1l0,16.1l-1.7,0.4L695.6,421z"/>
	<path class="st1" d="M708.8,419.8c0,0.4-0.2,1.2-1.4,1.2c-1,0-1.6-0.3-2-0.6c-0.7,2.2-3.3,4.2-7.2,4.9l-1-1.4l0.1-0.2
		c4.7-0.9,6.4-2.8,6.8-4.6c-0.4-1.1-1.1-2.6-1.8-4l1.4-1.5h0.2c0.6,1.7,1.2,3.1,1.4,3.7c0.6,1.6,1,1.9,2.5,1.9
		C708.6,419.1,708.8,419.4,708.8,419.8z"/>
	<path class="st1" d="M718.3,418.7c0,1.6-0.8,2.6-2.4,2.6c-1.2,0-3.1-0.6-4.8-1.8c-0.9,1.2-2,1.5-3.6,1.5l0.5-1.9
		c1.1,0,1.6-0.5,2.2-1.5c0.8-1.5,2-4.3,4.3-4.3S718.3,415.9,718.3,418.7z M714.2,415.1c-0.9,0-1.4,1.1-2.4,2.9
		c1.4,0.9,2.8,1.4,3.5,1.4c0.4,0,0.8-0.1,1-0.3C716.6,418,715.5,415.1,714.2,415.1z"/>
	<path class="st1" d="M744.2,417.1c0,1.2-0.4,2.4-1.5,3c-1.3,0.8-3.6,1.1-6.5,1.1h-1.6c-5.2,0-8.1-1.1-8.1-4.4c0-1,0.2-2.1,0.4-2.7
		l1.4-0.5l0.2,0.1c-0.2,0.8-0.2,1.6-0.2,2.2c0,2.9,2.4,3.5,6.9,3.5h1.7c2.4,0,4.7-0.3,5.7-0.7c0.2-1.3-0.3-2.5-1.2-4.5l1.7-1.2h0.2
		C743.8,414.6,744.2,416.2,744.2,417.1z M734.3,411.9l-1.9-1.4l1.2-1.8l1.9,1.3L734.3,411.9z M735.8,409.2l-2-1.4l1.2-1.8l1.9,1.3
		L735.8,409.2z M735.8,410.5l1.2-1.8l1.9,1.3l-1.2,1.8L735.8,410.5z"/>
	<path class="st1" d="M759.7,419.8c0,0.4-0.2,1.2-1.5,1.2c-2.1,0-3.7-0.6-4.1-2.9c-1.8,2.2-4.4,3-7.2,3l-0.8-1.7l0.1-0.1
		c2.3,0,4.3-0.5,5.9-1.6c-1.3-2.5-3.4-4.6-6.1-7.1l0.7-1.9l0.2-0.1c3,2.7,5.4,6.1,6.4,8.1c0.3-0.3,0.5-0.6,0.7-1v-10.7l1.7-0.4
		l0.1,0.1v12.1c0,1.9,0.8,2.3,2.8,2.3C759.5,419.1,759.7,419.4,759.7,419.8z"/>
	<path class="st1" d="M758.7,419.1h0.7c1.2,0,2.1-0.1,2.5-0.3c0.5-1.2-0.2-2.9-1-4.7l1.5-1.2h0.2c0.7,1.7,1.2,3.3,1.2,4.3
		c0,1-0.4,2.2-1.2,2.9c-0.6,0.6-1.6,0.8-3.8,0.8h-0.7L758.7,419.1z M758.7,408.9l1.2-1.8l1.9,1.3l-1.2,1.8L758.7,408.9z
		 M760.1,406.1l1.2-1.8l1.9,1.3l-1.2,1.9L760.1,406.1z M762.1,408.9l1.2-1.8l1.9,1.3l-1.2,1.8L762.1,408.9z"/>
	<path class="st1" d="M772.2,420.7c0-1,0.2-2,0.4-2.7l1.5-0.5l0.2,0.1c-0.2,0.9-0.3,1.6-0.3,2.2c0,2.2,1.2,3.8,5.1,3.8
		c3.7,0,6.5-0.9,6.9-2.1c0-0.5-0.4-1.1-3.9-2l0.6-1.7c4.4,1.2,5.2,2,5.2,3.2c-0.3,2.9-4,4.5-9.2,4.5
		C774.4,425.5,772.2,423.4,772.2,420.7z M775.3,429.1l1.2-1.8l1.9,1.3l-1.2,1.8L775.3,429.1z M778.8,429.1l1.2-1.8l1.9,1.3l-1.2,1.8
		L778.8,429.1z"/>
	<path class="st1" d="M782.7,417.8c1-0.2,2-0.5,3-1c0.1-0.4,0.2-1.1,0.2-1.9V405l1.7-0.4l0.2,0v10c0,2.2-1,3.9-4,4.7L782.7,417.8z"
		/>
	<path class="st1" d="M805.1,419.8c0,0.4-0.2,1.2-1.4,1.2c-1,0-1.6-0.3-2-0.6c-0.7,2.2-3.3,4.2-7.2,4.9l-1-1.4l0.1-0.2
		c4.7-0.9,6.4-2.8,6.8-4.6c-0.4-1.1-1.1-2.6-1.8-4l1.4-1.5h0.2c0.6,1.7,1.2,3.1,1.4,3.7c0.6,1.6,1,1.9,2.5,1.9
		C804.9,419.1,805.1,419.4,805.1,419.8z"/>
	<path class="st1" d="M815.7,419.8c0,0.4-0.2,1.2-1.5,1.2h-1.5c-1.1,0-2.4-0.2-3.6-0.7c-1.2,0.5-2.8,0.7-4.3,0.7h-1.2l0.5-1.9h2.3
		c0.2,0,0.4,0,0.6,0c-0.8-0.7-1.4-1.6-1.4-2.6c0-2.1,1.8-4.3,3.8-4.3c1.7,0,3.2,1.9,3.2,3.7c0,1.4-0.5,2.4-1.3,3.2
		c0.5,0.1,1.1,0.1,1.7,0.1h1.7C815.5,419.1,815.7,419.4,815.7,419.8z M809.3,418.4c1.1-0.6,1.8-1.4,1.8-2.4c0-1-1-2.1-1.9-2.1
		c-1,0-2,1.1-2,2.2C807.2,417,808,417.9,809.3,418.4z M809.8,409.4l-2-1.4l1.2-1.8l2,1.3L809.8,409.4z"/>
	<path class="st1" d="M825.6,418.7l-0.6,1.7c-1.9,0.4-4.7,0.6-10.8,0.6l0.5-1.9c0.9,0,1.8,0,2.7,0c-0.6-0.9-1-2-1-3.1
		c0-2.5,2-4,4.6-4c1.2,0,2.4,0.4,3.2,0.8l-0.2,1.7l-0.1,0c-0.9-0.4-1.9-0.6-2.9-0.6c-1.6,0-2.6,0.8-2.6,2.1c0,0.9,0.5,2.1,1.4,3
		c2.1-0.1,3.9-0.2,5.6-0.4L825.6,418.7z M821.3,409.3l-2-1.4l1.2-1.8l2,1.3L821.3,409.3z"/>
	<path class="st1" d="M828.4,421v-16l1.8-0.5l0.1,0.1l0,16.1l-1.7,0.4L828.4,421z"/>
	<path class="st1" d="M838.6,420.7c0-1,0.2-2,0.4-2.7l1.5-0.5l0.2,0.1c-0.2,0.9-0.3,1.6-0.3,2.2c0,2.2,1.2,3.8,5.1,3.8
		c3.7,0,6.5-0.9,6.9-2.1c0-0.5-0.4-1.1-3.9-2l0.6-1.7c4.4,1.2,5.2,2,5.2,3.2c-0.3,2.9-4,4.5-9.2,4.5
		C840.8,425.5,838.6,423.4,838.6,420.7z M841.7,429.1l1.2-1.8l1.9,1.3l-1.2,1.8L841.7,429.1z M845.2,429.1l1.2-1.8l1.9,1.3l-1.2,1.8
		L845.2,429.1z"/>
	<path class="st1" d="M849.1,417.8c1-0.4,1.8-0.8,2.3-1.3c0-1.1-0.6-2.4-1.2-3.7l1.5-1.2h0.2c0.7,1.7,1.2,3.3,1.2,4.3
		c0,0.9-0.6,1.8-2.1,2.7l-1.2,0.2L849.1,417.8z M851.1,427.8l1.2-1.8l2,1.3l-1.2,1.8L851.1,427.8z"/>
	<path class="st1" d="M855.4,423.5l0-0.2c3.5-1,5.2-2.8,5.2-4c-0.1-1-0.8-2.7-1.7-4.4l1.4-1.5h0.2c1,1.9,1.8,4,1.8,5.4
		c0,1-0.3,2-0.9,2.8c-0.8,1.2-2.5,2.5-5,3.2L855.4,423.5z"/>
	<path class="st1" d="M870.1,412.3c0-0.8,0.7-1.5,1.5-1.5c0.8,0,1.5,0.7,1.5,1.5c0,0.8-0.7,1.5-1.5,1.5
		C870.8,413.8,870.1,413.1,870.1,412.3z M870.1,419.7c0-0.8,0.7-1.5,1.5-1.5c0.8,0,1.5,0.7,1.5,1.5c0,0.8-0.7,1.5-1.5,1.5
		C870.8,421.2,870.1,420.6,870.1,419.7z"/>
	<path class="st1" d="M880.7,420.5c0-1,0.2-2.1,0.4-2.7l1.5-0.5l0.2,0.1c-0.2,0.8-0.2,1.6-0.2,2.2c0,2.4,0.9,4,4.2,4
		c2,0,3.4-0.5,4.4-1.7c0.3-0.6,0.6-1.8,0.6-3.7v-13.1l1.7-0.4l0.2,0.1l0,13.2c0,5.4-2.5,7.5-7.2,7.5
		C882.6,425.5,880.7,423.4,880.7,420.5z"/>
	<path class="st1" d="M906.9,419.8c0,0.4-0.2,1.2-1.5,1.2h-1.8c-0.8,2.3-3,4.1-7,4.2l-1-1.4l0.1-0.2c3-0.1,5.2-1.1,6.1-2.7h-0.7
		c-3,0-4.4-1.2-4.4-3.1c0-2.2,1.6-4.7,3.5-4.7c2.2,0,3.6,2.7,3.6,5.7v0.1h1.9C906.7,419.1,906.9,419.4,906.9,419.8z M902.4,419.1
		V419c0-2.1-1.1-3.8-2.2-3.8c-0.9,0-1.9,1-1.9,2.6c0,0.9,0.8,1.4,3.1,1.4H902.4z"/>
	<path class="st1" d="M914.5,415.8c0,2.3-0.4,3.6-1.5,4.4c-1.3,0.7-3.1,0.8-7.6,0.8l0.5-1.9c4.6,0,6.1-0.2,6.8-0.5
		c0.1-0.3,0.1-0.8,0.2-1.5c-0.7,0.2-1.6,0.3-2.5,0.3c-2.1,0-3.1-1.1-3.1-2.8c0-2.2,1.6-4.6,3.5-4.6
		C913.1,410,914.5,412.9,914.5,415.8z M909.4,407.4l-1.9-1.4l1.2-1.8l1.9,1.3L909.4,407.4z M910.7,415.6c0.8,0,1.5-0.1,2.2-0.2
		c-0.1-1.7-1.1-3.5-2.2-3.5c-0.9,0-1.9,1.2-1.9,2.5C908.8,415.2,909.5,415.6,910.7,415.6z M912.8,407.4l-1.9-1.4l1.2-1.8l1.9,1.3
		L912.8,407.4z"/>
	<path class="st1" d="M920.6,402.7c-1.2,0.1-2.7,0.3-4.6,0.3l-0.1-1.3c0.3,0,0.7,0,1.1,0c-0.3-0.4-0.4-0.9-0.4-1.4
		c0-1.2,0.7-1.9,2-1.9c0.5,0,1.1,0.1,1.7,0.3l-0.3,1.2c-0.5-0.1-0.8-0.2-1.1-0.2c-0.6,0-0.9,0.4-0.9,0.9c0,0.4,0.2,0.7,0.5,1
		c0.8,0,1.5-0.1,2.2-0.2L920.6,402.7z M919.2,404.6l0.1,0.1l0,16.1l-1.7,0.4l-0.1-0.1v-16L919.2,404.6z"/>
	<path class="st1" d="M929.7,419c0,3.1-2.3,6.1-7.3,6.2l-1-1.4l0.1-0.2c3.4-0.1,5.7-1.3,6.5-3.3c-0.7,0.1-1.4,0.3-2.3,0.3
		c-2.1,0-3.1-1.1-3.1-2.8c0-2.2,1.6-4.6,3.5-4.6C928.3,413.2,929.7,416,929.7,419z M926,418.8c0.8,0,1.5-0.1,2.2-0.2
		c-0.1-1.7-1.1-3.5-2.2-3.5c-0.9,0-1.9,1.2-1.9,2.5C924.1,418.4,924.8,418.8,926,418.8z"/>
</g>
<linearGradient id="SVGID_2_" gradientUnits="userSpaceOnUse" x1="505.46" y1="324.0948" x2="1024" y2="324.0948">
	<stop  offset="0.1199" style="stop-color:#FFFFFF"/>
	<stop  offset="0.9969" style="stop-color:#FFF2D5"/>
</linearGradient>
<rect x="505.5" y="285.6" class="st2" width="518.5" height="77"/>
<g>
	<g>
		<path class="st3" d="M808.5,335.4c0-2.7,1.5-5.3,3.6-7.9l2.3,1.3c-1,1.4-1.9,2.8-1.9,3.9c0,1.5,1.8,1.3,1.8,3.4
			c0,1.3-1,2.8-2.8,2.8C809.5,338.9,808.5,337.6,808.5,335.4z"/>
		<path class="st3" d="M839.3,335.7c0,1.7-0.6,3.1-2.4,3.1c-1.3,0-2.2-0.2-2.9-0.5c-1.4,3.6-5.5,6.2-10.8,7.1l-2.4-3.3l0.3-0.4
			c5.7-1,9-3.3,10.1-5.6c-0.8-1.8-1.7-3.8-2.7-5.7l3.2-3.7h0.4l1.5,4.4c1,2.8,1.8,3.2,4.2,3.2C839,334.2,839.3,334.9,839.3,335.7z"
			/>
		<path class="st3" d="M851.4,335.7c0,1.7-0.6,3.1-2.4,3.1s-4.2-0.6-5.6-1.7c-1.4,1.1-3.2,1.7-5.8,1.7h-0.7l1-4.5h0.6
			c1.4,0,2.4-0.1,2.8-0.5c0.4-0.9,0.8-2.7,1.2-5l4.6-1.1l0.4,0.3c-0.5,2.2-1,4.1-1.7,5.7c1,0.4,2.4,0.7,4.1,0.7
			C851,334.2,851.4,334.9,851.4,335.7z M842.6,341.3l3.8,2.6l-2.4,3.6l-3.9-2.7L842.6,341.3z"/>
		<path class="st3" d="M863.5,320.6l-7.6,3.8c5.8,3.9,6.9,6.1,6.9,8.1c0,3.6-2.7,6.2-10.1,6.2H849l1-4.5h2.3c2.8,0,5.7-0.4,6.7-0.9
			c0-1.7-4.2-4.5-7.7-6.7l-0.2-0.3l1-5l12.5-6.4l0.3,0.2L863.5,320.6z"/>
		<path class="st3" d="M876.9,311.5c-1.8,0.2-4.2,0.4-7,0.5l-0.3-2.6c0.5,0,1.1,0,1.7,0c-0.5-0.6-0.8-1.5-0.8-2.3
			c0-1.8,1.2-3.1,3.2-3.1c0.8,0,1.7,0.2,2.7,0.6l-0.6,2.3c-0.6-0.2-1.2-0.3-1.5-0.3c-0.8,0-1.2,0.4-1.2,1.2c0,0.5,0.3,1,0.7,1.5
			c1.1-0.1,2.1-0.1,3-0.3L876.9,311.5z M875.1,313.8l0.4,0.2l-0.1,24.1l-4.1,0.9l-0.3-0.2v-23.9L875.1,313.8z"/>
		<path class="st3" d="M920.8,313.8l0.3,0.2v16.9c0,6-3,7.7-7.9,7.8H913c0,0-0.1,0-0.1,0h-0.3c-1.3-0.1-3-0.5-4.1-2.1
			c-1.2,1.5-2.9,2-6.1,2.1h-0.2c0,0-0.1,0-0.1,0h-0.2c-2.4-0.1-4.3-0.8-5.4-2.4c-1.2,0.4-2.2,0.6-3.3,0.6c-4,0-6.4-1.9-6.4-4.6
			c0-3,3-6.3,8.6-8.2v-1.7l4.2-1.6l0.3,0.1v10.8c0,1.8,0.6,2.4,3.2,2.5c1,0,2-0.1,2.7-0.5c0.1-0.6,0.3-1.4,0.3-2.7v-12.3l4.2-1.1
			l0.3,0.2V331c0,2.7,0.8,3.1,3.3,3.2c1,0,2-0.1,2.7-0.5c0.1-0.6,0.3-1.4,0.3-2.7v-16.2L920.8,313.8z M895.3,332.4v-0.7v-3.4
			c-2.5,0.6-4.5,1.7-5,2.8c0.4,1,1.9,1.5,3.2,1.5C894.1,332.6,894.7,332.5,895.3,332.4z M902.7,312.4c0-0.5,0.1-1.5,0.3-2.1l2.4-0.1
			c-0.1,0.6-0.1,1.2-0.1,1.5c0,0.9,0.3,1.3,0.9,1.3c0.7,0,1-0.5,1-2.6l2.3-0.2c0,0.7,0,1.2,0,1.5c0,0.9,0.4,1.2,1,1.2
			c0.7,0,0.9-0.5,0.9-1.3c0-0.7-0.2-1.4-0.4-2.1l2.5-0.6c0.3,0.9,0.5,1.8,0.5,2.8c0,2.1-1.1,3.7-3.5,3.7c-0.9,0-1.7-0.4-2.1-0.9
			c-0.5,0.6-1.4,0.9-2.4,0.9C903.5,315.6,902.7,314.1,902.7,312.4z M909.8,308.2h-3.2v-4.6h3.2V308.2z M930,314l-0.1,24.1l-4.1,0.9
			l-0.3-0.2v-23.9l4.2-1.1L930,314z"/>
	</g>
</g>
<path class="st4" d="M1024,42.8h-11.1v-6.6c0-1.7-1.1-3-2.6-3.5c1.4-1.1,2.3-2.9,2.3-4.8c0-3.4-2.8-6.2-6.2-6.2
	c-1,0-1.9,0.2-2.8,0.7c0.4-1.1,0.5-2.2,0.5-3.4c0-6.2-5-11.2-11.2-11.2c-6.2,0-11.2,5-11.2,11.2c0,1.2,0.2,2.4,0.5,3.4
	c-0.8-0.4-1.8-0.7-2.8-0.7c-3.4,0-6.2,2.8-6.2,6.2c0,1.9,0.9,3.6,2.3,4.8c-1.5,0.4-2.6,1.8-2.6,3.5v6.6h-10h-10v-6.6
	c0-1.7-1.1-3-2.6-3.5c1.4-1.1,2.3-2.9,2.3-4.8c0-3.4-2.8-6.2-6.2-6.2c-1,0-1.9,0.2-2.8,0.7c0.4-1.1,0.5-2.2,0.5-3.4
	c0-6.2-5-11.2-11.2-11.2c-6.2,0-11.2,5-11.2,11.2c0,1.2,0.2,2.4,0.5,3.4c-0.8-0.4-1.8-0.7-2.8-0.7c-3.4,0-6.2,2.8-6.2,6.2
	c0,1.9,0.9,3.6,2.3,4.8c-1.5,0.4-2.6,1.8-2.6,3.5v6.6h-10h-10v-6.6c0-1.7-1.1-3-2.6-3.5c1.4-1.1,2.3-2.9,2.3-4.8
	c0-3.4-2.8-6.2-6.2-6.2c-1,0-1.9,0.2-2.8,0.7c0.4-1.1,0.5-2.2,0.5-3.4c0-6.2-5-11.2-11.2-11.2c-6.2,0-11.2,5-11.2,11.2
	c0,1.2,0.2,2.4,0.5,3.4c-0.8-0.4-1.8-0.7-2.8-0.7c-3.4,0-6.2,2.8-6.2,6.2c0,1.9,0.9,3.6,2.3,4.8c-1.5,0.4-2.6,1.8-2.6,3.5v6.6h-10
	h-10v-6.6c0-1.7-1.1-3-2.6-3.5c1.4-1.1,2.3-2.9,2.3-4.8c0-3.4-2.8-6.2-6.2-6.2c-1,0-1.9,0.2-2.8,0.7c0.4-1.1,0.5-2.2,0.5-3.4
	c0-6.2-5-11.2-11.2-11.2c-6.2,0-11.2,5-11.2,11.2c0,1.2,0.2,2.4,0.5,3.4c-0.8-0.4-1.8-0.7-2.8-0.7c-3.4,0-6.2,2.8-6.2,6.2
	c0,1.9,0.9,3.6,2.3,4.8c-1.5,0.4-2.6,1.8-2.6,3.5v6.6h-10h-10v-6.6c0-1.7-1.1-3-2.6-3.5c1.4-1.1,2.3-2.9,2.3-4.8
	c0-3.4-2.8-6.2-6.2-6.2c-1,0-1.9,0.2-2.8,0.7c0.4-1.1,0.5-2.2,0.5-3.4c0-6.2-5-11.2-11.2-11.2c-6.2,0-11.2,5-11.2,11.2
	c0,1.2,0.2,2.4,0.5,3.4c-0.8-0.4-1.8-0.7-2.8-0.7c-3.4,0-6.2,2.8-6.2,6.2c0,1.9,0.9,3.6,2.3,4.8c-1.5,0.4-2.6,1.8-2.6,3.5v6.6h-10
	h-10v-6.6c0-1.7-1.1-3-2.6-3.5c1.4-1.1,2.3-2.9,2.3-4.8c0-3.4-2.8-6.2-6.2-6.2c-1,0-1.9,0.2-2.8,0.7c0.4-1.1,0.5-2.2,0.5-3.4
	c0-6.2-5-11.2-11.2-11.2c-6.2,0-11.2,5-11.2,11.2c0,1.2,0.2,2.4,0.5,3.4c-0.8-0.4-1.8-0.7-2.8-0.7c-3.4,0-6.2,2.8-6.2,6.2
	c0,1.9,0.9,3.6,2.3,4.8c-1.5,0.4-2.6,1.8-2.6,3.5v6.6h-10h-10v-6.6c0-1.7-1.1-3-2.6-3.5c1.4-1.1,2.3-2.9,2.3-4.8
	c0-3.4-2.8-6.2-6.2-6.2c-1,0-1.9,0.2-2.8,0.7c0.4-1.1,0.5-2.2,0.5-3.4c0-6.2-5-11.2-11.2-11.2c-6.2,0-11.2,5-11.2,11.2
	c0,1.2,0.2,2.4,0.5,3.4c-0.8-0.4-1.8-0.7-2.8-0.7c-3.4,0-6.2,2.8-6.2,6.2c0,1.9,0.9,3.6,2.3,4.8c-1.5,0.4-2.6,1.8-2.6,3.5v6.6h-10
	h-10v-6.6c0-1.7-1.1-3-2.6-3.5c1.4-1.1,2.3-2.9,2.3-4.8c0-3.4-2.8-6.2-6.2-6.2c-1,0-1.9,0.2-2.8,0.7c0.4-1.1,0.5-2.2,0.5-3.4
	c0-6.2-5-11.2-11.2-11.2c-6.2,0-11.2,5-11.2,11.2c0,1.2,0.2,2.4,0.5,3.4c-0.8-0.4-1.8-0.7-2.8-0.7c-3.4,0-6.2,2.8-6.2,6.2
	c0,1.9,0.9,3.6,2.3,4.8c-1.5,0.4-2.6,1.8-2.6,3.5v6.6h-10h-10v-6.6c0-1.7-1.1-3-2.6-3.5c1.4-1.1,2.3-2.9,2.3-4.8
	c0-3.4-2.8-6.2-6.2-6.2c-1,0-1.9,0.2-2.8,0.7c0.4-1.1,0.5-2.2,0.5-3.4c0-6.2-5-11.2-11.2-11.2c-6.2,0-11.2,5-11.2,11.2
	c0,1.2,0.2,2.4,0.5,3.4c-0.8-0.4-1.8-0.7-2.8-0.7c-3.4,0-6.2,2.8-6.2,6.2c0,1.9,0.9,3.6,2.3,4.8c-1.5,0.4-2.6,1.8-2.6,3.5v6.6h-10
	h-10v-6.6c0-1.7-1.1-3-2.6-3.5c1.4-1.1,2.3-2.9,2.3-4.8c0-3.4-2.8-6.2-6.2-6.2c-1,0-1.9,0.2-2.8,0.7c0.4-1.1,0.5-2.2,0.5-3.4
	c0-6.2-5-11.2-11.2-11.2c-6.2,0-11.2,5-11.2,11.2c0,1.2,0.2,2.4,0.5,3.4c-0.8-0.4-1.8-0.7-2.8-0.7c-3.4,0-6.2,2.8-6.2,6.2
	c0,1.9,0.9,3.6,2.3,4.8c-1.5,0.4-2.6,1.8-2.6,3.5v6.6h-10h-10v-6.6c0-1.7-1.1-3-2.6-3.5c1.4-1.1,2.3-2.9,2.3-4.8
	c0-3.4-2.8-6.2-6.2-6.2c-1,0-1.9,0.2-2.8,0.7c0.4-1.1,0.5-2.2,0.5-3.4c0-6.2-5-11.2-11.2-11.2c-6.2,0-11.2,5-11.2,11.2
	c0,1.2,0.2,2.4,0.5,3.4c-0.8-0.4-1.8-0.7-2.8-0.7c-3.4,0-6.2,2.8-6.2,6.2c0,1.9,0.9,3.6,2.3,4.8c-1.5,0.4-2.6,1.8-2.6,3.5v6.6h-10
	h-10v-6.6c0-1.7-1.1-3-2.6-3.5c1.4-1.1,2.3-2.9,2.3-4.8c0-3.4-2.8-6.2-6.2-6.2c-1,0-1.9,0.2-2.8,0.7c0.4-1.1,0.5-2.2,0.5-3.4
	c0-6.2-5-11.2-11.2-11.2c-6.2,0-11.2,5-11.2,11.2c0,1.2,0.2,2.4,0.5,3.4c-0.8-0.4-1.8-0.7-2.8-0.7c-3.4,0-6.2,2.8-6.2,6.2
	c0,1.9,0.9,3.6,2.3,4.8c-1.5,0.4-2.6,1.8-2.6,3.5v6.6h-10h-10v-6.6c0-1.7-1.1-3-2.6-3.5c1.4-1.1,2.3-2.9,2.3-4.8
	c0-3.4-2.8-6.2-6.2-6.2c-1,0-1.9,0.2-2.8,0.7c0.4-1.1,0.5-2.2,0.5-3.4c0-6.2-5-11.2-11.2-11.2c-6.2,0-11.2,5-11.2,11.2
	c0,1.2,0.2,2.4,0.5,3.4c-0.8-0.4-1.8-0.7-2.8-0.7c-3.4,0-6.2,2.8-6.2,6.2c0,1.9,0.9,3.6,2.3,4.8c-1.5,0.4-2.6,1.8-2.6,3.5v6.6h-10
	h-10v-6.6c0-1.7-1.1-3-2.6-3.5c1.4-1.1,2.3-2.9,2.3-4.8c0-3.4-2.8-6.2-6.2-6.2c-1,0-1.9,0.2-2.8,0.7c0.4-1.1,0.5-2.2,0.5-3.4
	c0-6.2-5-11.2-11.2-11.2c-6.2,0-11.2,5-11.2,11.2c0,1.2,0.2,2.4,0.5,3.4c-0.8-0.4-1.8-0.7-2.8-0.7c-3.4,0-6.2,2.8-6.2,6.2
	c0,1.9,0.9,3.6,2.3,4.8c-1.5,0.4-2.6,1.8-2.6,3.5v6.6h-10h-10v-6.6c0-1.7-1.1-3-2.6-3.5c1.4-1.1,2.3-2.9,2.3-4.8
	c0-3.4-2.8-6.2-6.2-6.2c-1,0-1.9,0.2-2.8,0.7c0.4-1.1,0.5-2.2,0.5-3.4c0-6.2-5-11.2-11.2-11.2c-6.2,0-11.2,5-11.2,11.2
	c0,1.2,0.2,2.4,0.5,3.4c-0.8-0.4-1.8-0.7-2.8-0.7c-3.4,0-6.2,2.8-6.2,6.2c0,1.9,0.9,3.6,2.3,4.8c-1.5,0.4-2.6,1.8-2.6,3.5v6.6h-10
	h-10v-6.6c0-1.7-1.1-3-2.6-3.5c1.4-1.1,2.3-2.9,2.3-4.8c0-3.4-2.8-6.2-6.2-6.2c-1,0-1.9,0.2-2.8,0.7c0.4-1.1,0.5-2.2,0.5-3.4
	c0-6.2-5-11.2-11.2-11.2c-6.2,0-11.2,5-11.2,11.2c0,1.2,0.2,2.4,0.5,3.4c-0.8-0.4-1.8-0.7-2.8-0.7c-3.4,0-6.2,2.8-6.2,6.2
	c0,1.9,0.9,3.6,2.3,4.8c-1.5,0.4-2.6,1.8-2.6,3.5v6.6h-10h-10v-6.6c0-1.7-1.1-3-2.6-3.5c1.4-1.1,2.3-2.9,2.3-4.8
	c0-3.4-2.8-6.2-6.2-6.2c-1,0-1.9,0.2-2.8,0.7c0.4-1.1,0.5-2.2,0.5-3.4c0-6.2-5-11.2-11.2-11.2c-6.2,0-11.2,5-11.2,11.2
	c0,1.2,0.2,2.4,0.5,3.4c-0.8-0.4-1.8-0.7-2.8-0.7c-3.4,0-6.2,2.8-6.2,6.2c0,1.9,0.9,3.6,2.3,4.8c-1.5,0.4-2.6,1.8-2.6,3.5v6.6H0V-1
	h1024V42.8z"/>
<g id="Layer_x0020_1_32_">
	<path class="st5" d="M34.9,718.9l43.9-1.7c0.3,0,0.6,0,1,0c0.7,0.1,1.3,0.4,1.8,0.9c0.5,0.5,0.9,1,0.9,1.7c0,0.2,0,0.5,0,0.8
		l-4.6,20.6c-0.2,0.9-0.6,1.7-1.3,2.2c-0.6,0.5-1.4,0.9-2.4,0.9L39,743.1c-1,0-1.7-0.3-2.4-0.9l0,0c-0.6-0.6-1.1-1.4-1.3-2.2
		l-4.1-17.7c0-0.1,0-0.1,0-0.2c-0.1-0.8,0.3-1.5,0.9-2.1c0.6-0.5,1.4-0.8,2.3-1C34.6,718.9,34.7,718.9,34.9,718.9z M76.9,720
		l-42,1.5c-0.1,0-0.2,0-0.3,0c-0.6,0.1-1.1,0.3-1.5,0.7c-0.3,0.3-0.6,0.7-0.5,1.1c0,0,0,0.1,0,0.1l3.8,16.5c0.1,0.6,0.4,1.2,0.9,1.6
		c0.4,0.3,0.8,0.5,1.4,0.5l34,1.2c0.6,0,1-0.2,1.4-0.5c0.4-0.4,0.7-0.9,0.9-1.6l4.3-19.3c0-0.1,0-0.3,0-0.4c0-0.3-0.2-0.7-0.5-0.9
		c-0.3-0.3-0.7-0.5-1.1-0.5C77.2,720,77.1,719.9,76.9,720z"/>
	<path class="st5" d="M41.9,723.6l12.9-1.4c0.1,0,0.3,0,0.4,0c0.3,0.1,0.6,0.2,0.8,0.4c0.2,0.2,0.4,0.5,0.4,0.8c0,0.1,0,0.2,0,0.3
		l-2.1,9.6c-0.1,0.4-0.3,0.8-0.6,1c-0.3,0.3-0.6,0.4-1.1,0.4h-8.9c-0.4,0-0.8-0.2-1.1-0.4h0c-0.3-0.3-0.5-0.6-0.6-1l-1.9-8.2
		c0,0,0-0.1,0-0.1c-0.1-0.4,0.1-0.7,0.4-1c0.3-0.2,0.7-0.4,1-0.5C41.8,723.6,41.8,723.6,41.9,723.6z M53.9,723.5l-12,1.3
		c0,0-0.1,0-0.1,0c-0.3,0-0.5,0.2-0.7,0.3c-0.2,0.1-0.3,0.3-0.2,0.5c0,0,0,0,0,0l1.8,7.6c0.1,0.3,0.2,0.5,0.4,0.7
		c0.2,0.1,0.4,0.2,0.6,0.2h8.3c0.3,0,0.5-0.1,0.6-0.2c0.2-0.2,0.3-0.4,0.4-0.7l2-8.9c0-0.1,0-0.1,0-0.2c0-0.2-0.1-0.3-0.2-0.4
		c-0.1-0.1-0.3-0.2-0.5-0.2C54.1,723.5,54,723.5,53.9,723.5z"/>
	<g id="_1849662416_32_">
		<path class="st6" d="M60.4,735.8l0.4-0.7l-0.7-0.4l0.4-0.7L59,733l-0.9,1.5l0,0c0.3,0.1,0.5,0.3,0.7,0.4l-0.4,0.7l0.7,0.4
			l-0.8,1.5l0.7,0.4c-0.2,0.5-0.6,1.1-0.9,1.5l0,0c0.2,0.1,0.4,0.2,0.5,0.3c0.3,0.1,0.2,0.1,0,0.5c-0.2,0.4-0.4,0.8-0.7,1.1l0.7,0.4
			c0,0.2-0.7,1.2-0.8,1.5l5.9,3.4l0.9-1.5l0.8,0.4l1.3-2.2l0.7,0.4l3-5.2c-0.1-0.1-0.7-0.4-0.7-0.5c0-0.2,0.4-0.6,0.4-0.7
			c-0.1-0.1-0.5-0.4-0.7-0.4l-1.3,2.2l-0.7-0.4l1.7-3l-1.5-0.9l-1.3,2.2l-0.7-0.4l1.7-2.9c-0.1-0.1-1.3-0.8-1.5-0.9l-1.7,3l-0.7-0.4
			c0-0.1,0.1-0.1,0.1-0.2c1.2-2.1,2.5-4.3,3.7-6.5l-1.5-0.8l-4.7,8.1C60.9,736.1,60.4,735.8,60.4,735.8L60.4,735.8z"/>
		<path class="st7" d="M58.2,739.5c-0.1,0.1-0.1,0.2-0.2,0.3l-0.7,1.1c0.1,0.1,0.2,0.1,0.4,0.2c0.1,0.1,0.2,0.1,0.3,0.2
			c-0.4,0.8-0.8,1.5-1.2,2.2c0.6,0.4,1.2,0.7,1.8,1.1l3.7,2.2c0.6,0.4,1.3,0.7,1.9,1.1c0.1-0.2,0.1-0.3,0.3-0.5
			c0.1-0.2,0.4-0.6,0.5-0.9c0.1-0.1,0.1-0.1,0.2-0.3c0.1-0.2,0.2-0.4,0.3-0.6c0.1,0.2,0.5,0.3,0.7,0.4c0.4-0.7,0.8-1.4,1.3-2.2
			c0.2,0.1,0.4,0.2,0.6,0.3c0.1,0.1,0.1,0.1,0.2,0c0.2-0.3,0.3-0.6,0.5-0.9c0.3-0.6,0.7-1.1,1-1.7l1.4-2.5c-0.2-0.1-0.6-0.3-0.7-0.4
			l-3,5.2l-0.7-0.4l-1.3,2.2l-0.8-0.4l-0.9,1.5l-5.9-3.4c0.1-0.3,0.8-1.3,0.8-1.5l-0.7-0.4c0.2-0.4,0.4-0.8,0.7-1.1
			c0.2-0.4,0.2-0.3,0-0.5C58.6,739.7,58.4,739.6,58.2,739.5z"/>
		<path class="st7" d="M60.5,733.9l-0.4,0.7l0.7,0.4l-0.4,0.7l0.7,0.4l4.7-8.1l-0.7-0.4c0,0,0,0,0,0l0,0c0,0,0,0,0,0l-3.8,6.6
			C61,734.1,60.7,734,60.5,733.9z"/>
		<path class="st7" d="M67.3,728.9l-3.9,6.6l0.7,0.4l1.7-3c0.2,0,1.4,0.8,1.5,0.9c0.2,0.2,1.6,0.9,1.9,1.1c0,0,0.1,0-0.1-0.1
			l-1.5-0.8c-0.4-0.2-0.3-0.1,0.1-0.9l-1.1-0.6c-0.1-0.1-0.2-0.1-0.3-0.2l1.7-2.9c-0.2-0.1-0.3-0.2-0.6-0.4
			C67.4,729,67.4,729,67.3,728.9z"/>
		<path class="st7" d="M69.2,735.9l0.4-0.7c-0.1-0.1-0.2-0.2-0.4-0.2c-0.3-0.2-1.7-0.9-1.9-1.1l-1.7,2.9l0.7,0.4l1.3-2.2L69.2,735.9
			z"/>
		<path class="st7" d="M58.1,734.5c-0.1,0.1-0.1,0.1-0.2,0.3c-0.1,0.1-0.1,0.3-0.2,0.4l0.7,0.4c-0.1,0.2-0.7,1.3-0.8,1.5l0.7,0.4
			l-0.6,1.1c-0.1,0.2-0.1,0.2-0.2,0.4l0.7,0.4c0.3-0.4,0.7-1,0.9-1.5l-0.7-0.4l0.8-1.5l-0.7-0.4l0.4-0.7
			C58.6,734.8,58.4,734.6,58.1,734.5z"/>
		<path class="st7" d="M58.1,734.5L59,733l1.5,0.8l0.2-0.4c0.1-0.1,0.1-0.2,0.2-0.4l-2-1.1c-0.3-0.2-0.2-0.2-0.5,0.2l-0.9,1.6
			c-0.1,0.2-0.2,0.2,0,0.3C57.6,734.2,58,734.5,58.1,734.5z"/>
		<path class="st7" d="M70.2,737.5c0.1,0,0,0,0.1-0.1c0,0,0.1-0.1,0.1-0.1c0-0.2,0.2-0.4,0.3-0.6l-1.5-0.8l-1.7,3l0.7,0.4l1.3-2.2
			C69.7,737.2,70.1,737.4,70.2,737.5z"/>
		<path class="st7" d="M67.3,728.9c0.1-0.2,0.3-0.5,0.4-0.7l-1.5-0.8l-0.4,0.7L67.3,728.9z"/>
		<path class="st7" d="M70.2,737.5c0,0.2-0.4,0.6-0.4,0.7c0,0.1,0.6,0.4,0.7,0.5c0.2,0.1,0.5,0.3,0.7,0.4l-1.4,2.5l1.5-2.5l-0.7-0.4
			c0.1-0.1,0.1-0.2,0.2-0.4c0.1-0.1,0.2-0.3,0.2-0.4c-0.8-0.5-0.8-0.3-0.6-0.6c0,0-0.1,0.1-0.1,0.1
			C70.2,737.6,70.3,737.5,70.2,737.5z"/>
	</g>
	<path class="st5" d="M94.9,735.7h-2.5l2.1-7.2l-4.3,7.2h-2.6l-0.5-7.3l-1.8,7.3h-2.6l2.9-10.9h3.5l0.5,7.7l4.6-7.7h3.5L94.9,735.7z
		 M104.4,735.7h-5.6c-0.8,0-1.3-0.2-1.7-0.6c-0.4-0.4-0.4-1-0.2-1.8c0.3-0.9,0.7-1.6,1.3-2c0.6-0.4,1.5-0.6,2.6-0.6h2.5
		c0.1-0.4,0.1-0.7-0.1-0.8c-0.2-0.2-0.6-0.2-1.3-0.2h-3.6l0.5-2h4.3c1.1,0,1.9,0.3,2.3,0.8c0.4,0.5,0.5,1.3,0.2,2.3L104.4,735.7z
		 M102.4,733.8l0.3-1.2h-2.2c-0.4,0-0.7,0-0.9,0.1c-0.2,0.1-0.3,0.3-0.3,0.5c-0.1,0.2-0.1,0.3,0,0.4c0,0,0.1,0.1,0.2,0.1
		c0.1,0,0.3,0,0.5,0H102.4z M113.2,735.7h-2.4l1.3-4.9c0.1-0.5,0.2-0.8,0-1c-0.1-0.1-0.4-0.2-0.9-0.2h-1.4l-1.6,6.1h-2.4l2.2-8.1h4
		c1.2,0,2,0.2,2.4,0.7c0.4,0.5,0.5,1.2,0.2,2.3L113.2,735.7z M121.9,735.7h-2.4l1.3-4.9c0.1-0.5,0.1-0.8,0-0.9
		c-0.1-0.1-0.2-0.1-0.3-0.2c-0.1,0-0.3-0.1-0.6-0.1l-1.4,0l-1.6,6.1h-2.4l2.9-10.9h2.4l-0.8,2.8h1.6c1.2,0,2,0.2,2.4,0.7
		c0.4,0.5,0.5,1.2,0.2,2.3L121.9,735.7z M131.1,735.7h-5.6c-0.8,0-1.3-0.2-1.7-0.6c-0.4-0.4-0.4-1-0.2-1.8c0.3-0.9,0.7-1.6,1.3-2
		c0.6-0.4,1.5-0.6,2.6-0.6h2.5c0.1-0.4,0.1-0.7-0.1-0.8c-0.2-0.2-0.6-0.2-1.3-0.2h-3.6l0.5-2h4.3c1.1,0,1.9,0.3,2.3,0.8
		c0.4,0.5,0.5,1.3,0.2,2.3L131.1,735.7z M129.2,733.8l0.3-1.2h-2.2c-0.4,0-0.7,0-0.9,0.1c-0.2,0.1-0.3,0.3-0.3,0.5
		c-0.1,0.2,0,0.3,0,0.4c0,0,0.1,0.1,0.2,0.1c0.1,0,0.3,0,0.5,0H129.2z M135,735.7h-2.5l2.9-10.9h2.5L135,735.7z M140.6,735.7h-2.1
		l0.6-2.2h2.1L140.6,735.7z M148.4,735.7h-2.9c-0.4,0-0.7,0-1-0.1c-0.3,0-0.5-0.1-0.8-0.2c-0.4-0.1-0.8-0.4-1-0.8
		c-0.1-0.2-0.2-0.4-0.3-0.6c-0.1-0.2-0.2-0.5-0.2-0.7c0-0.3,0-0.5,0-0.8c0-0.3,0.1-0.6,0.2-0.9c0.2-0.6,0.4-1.2,0.8-1.7
		c0.3-0.5,0.7-1,1.3-1.4c0.4-0.3,0.9-0.6,1.4-0.7c0.5-0.2,1.1-0.2,1.9-0.2h2.9l-0.5,2h-2.3c-0.5,0-0.9,0-1.2,0.1
		c-0.3,0.1-0.6,0.2-0.8,0.4c-0.4,0.3-0.7,0.8-0.9,1.6c-0.1,0.4-0.1,0.8-0.1,1.1c0.1,0.3,0.1,0.6,0.4,0.7l0.4,0.2c0.1,0,0.3,0,0.4,0
		c0.1,0,0.4,0,0.6,0h2.3L148.4,735.7z M158.5,731.7c-0.3,1.3-1,2.3-2,3.1c-1,0.8-2.1,1.1-3.4,1.1c-1.3,0-2.2-0.4-2.8-1.1
		c-0.6-0.8-0.7-1.8-0.3-3.1c0.3-1.3,1-2.3,2-3c1-0.8,2.1-1.1,3.4-1.1c1.3,0,2.2,0.4,2.8,1.1C158.7,729.4,158.8,730.4,158.5,731.7z
		 M156,731.7c0.2-0.7,0.1-1.2-0.1-1.6c-0.2-0.4-0.6-0.6-1.1-0.6c-0.5,0-1,0.2-1.4,0.6c-0.4,0.4-0.7,0.9-0.9,1.6
		c-0.1,0.4-0.1,0.7-0.1,0.9c0,0.3,0.1,0.5,0.2,0.7c0.2,0.4,0.6,0.6,1.1,0.6c0.6,0,1-0.2,1.4-0.6C155.5,732.9,155.8,732.4,156,731.7z
		 M169.6,735.7h-2.4l1.3-4.9c0.1-0.5,0.2-0.8,0.1-1c-0.1-0.2-0.4-0.2-0.9-0.2l-0.9,0l-1.6,6.1h-2.4l1.6-6.1h-2l-1.6,6.1h-2.4
		l2.2-8.1h8c1.2,0,2,0.2,2.4,0.7c0.4,0.5,0.5,1.2,0.2,2.3L169.6,735.7z"/>
	<path class="st5" d="M27.9,727.7l21.2-2.2c0.2,0,0.5,0,0.7,0c0.5,0.1,1,0.3,1.4,0.7c0.4,0.3,0.6,0.8,0.7,1.3c0,0.2,0,0.4,0,0.6
		l-3.7,9.6c-0.1,0.7-0.5,1.3-1,1.7c-0.5,0.4-1.1,0.7-1.8,0.7H30.8c-0.7,0-1.3-0.3-1.8-0.7h0c-0.5-0.4-0.8-1.1-1-1.7l-2.9-7.4
		c0-0.1,0-0.1,0-0.2c-0.1-0.6,0.2-1.2,0.7-1.6c0.5-0.4,1.1-0.6,1.7-0.8C27.7,727.7,27.8,727.7,27.9,727.7z M47.6,727.5l-19.8,2.1
		c-0.1,0-0.2,0-0.2,0c-0.4,0.1-0.9,0.3-1.2,0.5c-0.3,0.2-0.4,0.5-0.4,0.8c0,0,0,0.1,0,0.1l2.7,6.5c0.1,0.5,0.3,0.9,0.7,1.2
		c0.3,0.2,0.6,0.4,1,0.4h13.6c0.4,0,0.8-0.1,1-0.4c0.3-0.3,0.5-0.7,0.7-1.2l3.4-8.6c0-0.1,0-0.2,0-0.3c0-0.3-0.2-0.5-0.4-0.7
		c-0.2-0.2-0.5-0.4-0.8-0.4C47.9,727.5,47.7,727.5,47.6,727.5z"/>
	<path class="st5" d="M87.6,721.4l-0.5,1.7h-0.6l1.2-4.5H89c0.3,0,0.5,0,0.7,0.1c0.2,0.1,0.3,0.2,0.4,0.3c0.1,0.1,0.2,0.3,0.2,0.4
		c0,0.2,0,0.4-0.1,0.6c-0.1,0.2-0.1,0.4-0.3,0.6c-0.1,0.2-0.3,0.3-0.4,0.4c-0.2,0.1-0.4,0.2-0.6,0.3c-0.2,0.1-0.5,0.1-0.7,0.1H87.6z
		 M87.7,720.9h0.7c0.2,0,0.3,0,0.5-0.1c0.1,0,0.3-0.1,0.4-0.2c0.1-0.1,0.2-0.2,0.3-0.3c0.1-0.1,0.1-0.2,0.2-0.4
		c0.1-0.3,0.1-0.5-0.1-0.7c-0.1-0.2-0.4-0.2-0.7-0.2h-0.7L87.7,720.9z"/>
	<path id="_x31__32_" class="st5" d="M92.2,719.8c0.2,0,0.4,0,0.6,0.1c0.2,0.1,0.3,0.2,0.4,0.3c0.1,0.1,0.1,0.3,0.2,0.5
		c0,0.2,0,0.4-0.1,0.7c-0.1,0.3-0.2,0.5-0.3,0.7c-0.1,0.2-0.3,0.4-0.4,0.5c-0.2,0.1-0.4,0.3-0.6,0.3c-0.2,0.1-0.4,0.1-0.7,0.1
		c-0.2,0-0.4,0-0.6-0.1c-0.2-0.1-0.3-0.2-0.4-0.3c-0.1-0.1-0.1-0.3-0.2-0.5c0-0.2,0-0.4,0.1-0.7c0.1-0.3,0.2-0.5,0.3-0.7
		c0.1-0.2,0.3-0.4,0.4-0.5c0.2-0.1,0.4-0.3,0.6-0.3C91.8,719.9,92,719.8,92.2,719.8z M91.5,722.6c0.3,0,0.6-0.1,0.8-0.3
		c0.2-0.2,0.4-0.5,0.5-0.9c0.1-0.4,0.1-0.7,0-0.9c-0.1-0.2-0.3-0.3-0.6-0.3c-0.2,0-0.3,0-0.4,0.1c-0.1,0.1-0.3,0.1-0.4,0.2
		c-0.1,0.1-0.2,0.2-0.3,0.4c-0.1,0.1-0.1,0.3-0.2,0.5c0,0.2-0.1,0.4-0.1,0.5c0,0.1,0,0.3,0.1,0.4c0.1,0.1,0.1,0.2,0.2,0.2
		C91.2,722.6,91.3,722.6,91.5,722.6z"/>
	<path id="_x32__32_" class="st5" d="M94,719.9h0.4c0,0,0.1,0,0.1,0c0,0,0,0,0,0.1l0.1,2c0,0.1,0,0.1,0,0.2c0,0.1,0,0.1,0,0.2
		c0-0.1,0.1-0.1,0.1-0.2c0-0.1,0.1-0.1,0.1-0.2l1.2-2.1c0,0,0-0.1,0.1-0.1c0,0,0.1,0,0.1,0h0.2c0,0,0.1,0,0.1,0c0,0,0,0,0,0.1
		l0.1,2.1c0,0.1,0,0.1,0,0.2c0,0.1,0,0.1,0,0.2c0-0.1,0.1-0.1,0.1-0.2c0-0.1,0.1-0.1,0.1-0.2l1.2-2c0,0,0-0.1,0.1-0.1
		c0,0,0.1,0,0.1,0h0.4l-1.9,3.2h-0.4c-0.1,0-0.1,0-0.1-0.1l-0.1-2.2c0,0,0-0.1,0-0.1c0-0.1,0-0.1,0-0.1c0,0,0,0.1-0.1,0.1
		c0,0,0,0.1-0.1,0.1l-1.3,2.2c0,0.1-0.1,0.1-0.2,0.1h-0.4L94,719.9z"/>
	<path id="_x33__32_" class="st5" d="M100.5,719.8c0.2,0,0.4,0,0.5,0.1c0.1,0.1,0.3,0.2,0.3,0.3c0.1,0.1,0.1,0.3,0.2,0.4
		c0,0.2,0,0.4-0.1,0.6c0,0.1,0,0.1-0.1,0.2c0,0-0.1,0-0.1,0h-2.1c-0.1,0.2-0.1,0.4-0.1,0.5c0,0.1,0,0.3,0.1,0.4
		c0.1,0.1,0.1,0.2,0.3,0.2c0.1,0,0.2,0.1,0.4,0.1c0.1,0,0.3,0,0.4,0c0.1,0,0.2-0.1,0.3-0.1c0.1,0,0.2-0.1,0.2-0.1
		c0.1,0,0.1-0.1,0.1-0.1c0,0,0.1,0,0.1,0.1l0.1,0.2c-0.1,0.1-0.2,0.2-0.3,0.2c-0.1,0.1-0.2,0.1-0.3,0.2c-0.1,0-0.2,0.1-0.4,0.1
		c-0.1,0-0.2,0-0.4,0c-0.2,0-0.4,0-0.6-0.1c-0.2-0.1-0.3-0.2-0.4-0.3c-0.1-0.1-0.2-0.3-0.2-0.5c0-0.2,0-0.5,0.1-0.7
		c0.1-0.2,0.1-0.4,0.3-0.6c0.1-0.2,0.3-0.4,0.4-0.5c0.2-0.1,0.4-0.3,0.6-0.3C100.1,719.8,100.3,719.8,100.5,719.8z M100.4,720.2
		c-0.3,0-0.5,0.1-0.7,0.2c-0.2,0.2-0.4,0.4-0.5,0.6h1.7c0-0.1,0.1-0.3,0-0.4c0-0.1,0-0.2-0.1-0.3c0-0.1-0.1-0.1-0.2-0.2
		C100.6,720.2,100.5,720.2,100.4,720.2z"/>
	<path id="_x34__32_" class="st5" d="M101.7,723l0.9-3.2h0.3c0.1,0,0.1,0,0.1,0c0,0,0,0.1,0,0.1l-0.1,0.5c0.2-0.2,0.4-0.4,0.5-0.5
		c0.2-0.1,0.4-0.2,0.6-0.2c0.1,0,0.2,0,0.2,0c0.1,0,0.1,0,0.2,0.1l-0.2,0.4c0,0.1-0.1,0.1-0.1,0.1c0,0-0.1,0-0.1,0
		c-0.1,0-0.1,0-0.2,0c-0.2,0-0.4,0.1-0.5,0.2c-0.2,0.1-0.3,0.3-0.5,0.5l-0.5,2H101.7z"/>
	<path id="_x35__32_" class="st5" d="M106.3,719.8c0.2,0,0.4,0,0.5,0.1c0.1,0.1,0.3,0.2,0.3,0.3c0.1,0.1,0.1,0.3,0.2,0.4
		c0,0.2,0,0.4-0.1,0.6c0,0.1,0,0.1-0.1,0.2c0,0-0.1,0-0.1,0H105c-0.1,0.2-0.1,0.4-0.1,0.5c0,0.1,0,0.3,0.1,0.4
		c0.1,0.1,0.1,0.2,0.3,0.2c0.1,0,0.2,0.1,0.4,0.1c0.1,0,0.3,0,0.4,0c0.1,0,0.2-0.1,0.3-0.1c0.1,0,0.2-0.1,0.2-0.1
		c0.1,0,0.1-0.1,0.1-0.1c0,0,0.1,0,0.1,0.1l0.1,0.2c-0.1,0.1-0.2,0.2-0.3,0.2c-0.1,0.1-0.2,0.1-0.3,0.2c-0.1,0-0.2,0.1-0.4,0.1
		c-0.1,0-0.2,0-0.4,0c-0.2,0-0.4,0-0.6-0.1c-0.2-0.1-0.3-0.2-0.4-0.3c-0.1-0.1-0.2-0.3-0.2-0.5c0-0.2,0-0.5,0.1-0.7
		c0.1-0.2,0.2-0.4,0.3-0.6c0.1-0.2,0.3-0.4,0.4-0.5c0.2-0.1,0.4-0.3,0.6-0.3C105.9,719.8,106.1,719.8,106.3,719.8z M106.2,720.2
		c-0.3,0-0.5,0.1-0.7,0.2c-0.2,0.2-0.4,0.4-0.5,0.6h1.7c0-0.1,0-0.3,0-0.4c0-0.1,0-0.2-0.1-0.3c0-0.1-0.1-0.1-0.2-0.2
		C106.5,720.2,106.4,720.2,106.2,720.2z"/>
	<path id="_x36__32_" class="st5" d="M109.7,723c-0.1,0-0.1,0-0.1-0.1l0.1-0.4c-0.2,0.2-0.4,0.3-0.6,0.4c-0.2,0.1-0.4,0.1-0.6,0.1
		c-0.2,0-0.3,0-0.5-0.1c-0.1-0.1-0.2-0.2-0.3-0.3c-0.1-0.1-0.1-0.3-0.1-0.5c0-0.2,0-0.4,0.1-0.7c0.1-0.2,0.2-0.5,0.3-0.7
		c0.1-0.2,0.3-0.4,0.4-0.5c0.2-0.2,0.3-0.3,0.5-0.4c0.2-0.1,0.4-0.1,0.6-0.1c0.2,0,0.4,0,0.5,0.1c0.1,0.1,0.2,0.2,0.3,0.3l0.5-1.8
		h0.6l-1.2,4.6H109.7z M108.8,722.6c0.2,0,0.4,0,0.5-0.1c0.2-0.1,0.3-0.2,0.5-0.4l0.4-1.5c-0.1-0.1-0.2-0.2-0.3-0.3
		c-0.1-0.1-0.2-0.1-0.4-0.1c-0.3,0-0.6,0.1-0.8,0.3c-0.2,0.2-0.4,0.5-0.5,0.9c-0.1,0.2-0.1,0.4-0.1,0.5c0,0.1,0,0.3,0.1,0.4
		c0,0.1,0.1,0.2,0.2,0.2C108.5,722.6,108.6,722.6,108.8,722.6z"/>
	<path id="_x37__32_" class="st5" d="M112.2,723l1.2-4.6h0.6l-0.5,1.9c0.2-0.2,0.4-0.3,0.6-0.4c0.2-0.1,0.4-0.1,0.6-0.1
		c0.2,0,0.3,0,0.5,0.1c0.1,0.1,0.2,0.2,0.3,0.3c0.1,0.1,0.1,0.3,0.1,0.5c0,0.2,0,0.4-0.1,0.7c-0.1,0.2-0.2,0.5-0.3,0.7
		c-0.1,0.2-0.3,0.4-0.4,0.5c-0.2,0.1-0.3,0.3-0.5,0.3c-0.2,0.1-0.4,0.1-0.6,0.1c-0.2,0-0.4,0-0.5-0.1c-0.1-0.1-0.2-0.2-0.3-0.3
		l-0.1,0.3c0,0.1-0.1,0.1-0.2,0.1H112.2z M114.4,720.3c-0.2,0-0.4,0-0.5,0.1c-0.2,0.1-0.3,0.2-0.5,0.4l-0.4,1.5
		c0.1,0.1,0.1,0.2,0.3,0.3c0.1,0.1,0.2,0.1,0.4,0.1c0.3,0,0.6-0.1,0.8-0.3c0.2-0.2,0.4-0.5,0.5-0.9c0.1-0.2,0.1-0.4,0.1-0.5
		c0-0.1,0-0.3-0.1-0.4c0-0.1-0.1-0.2-0.2-0.2C114.6,720.3,114.5,720.3,114.4,720.3z"/>
	<path id="_x38__32_" class="st5" d="M116.3,724c0,0-0.1,0.1-0.1,0.1c0,0-0.1,0-0.1,0h-0.4l0.9-1.2l-0.5-3h0.5c0,0,0.1,0,0.1,0
		c0,0,0,0,0,0.1l0.3,2c0,0,0,0.1,0,0.1c0,0,0,0.1,0,0.1c0,0,0.1-0.1,0.1-0.1c0,0,0.1-0.1,0.1-0.1l1.4-2c0,0,0.1-0.1,0.1-0.1
		c0,0,0.1,0,0.1,0h0.4L116.3,724z"/>
	<path id="_x39__32_" class="st5" d="M118.9,722.7c0-0.1,0-0.1,0.1-0.2c0-0.1,0.1-0.1,0.1-0.1c0,0,0.1-0.1,0.1-0.1
		c0.1,0,0.1,0,0.2,0c0.1,0,0.1,0,0.1,0c0,0,0.1,0,0.1,0.1c0,0,0,0.1,0.1,0.1c0,0,0,0.1,0,0.2c0,0.1,0,0.1-0.1,0.2
		c0,0-0.1,0.1-0.1,0.1c0,0-0.1,0.1-0.1,0.1c-0.1,0-0.1,0-0.2,0c-0.1,0-0.1,0-0.1,0c0,0-0.1,0-0.1-0.1c0,0,0-0.1,0-0.1
		C118.9,722.8,118.9,722.8,118.9,722.7z M119.5,720.3c0-0.1,0-0.1,0.1-0.2c0,0,0.1-0.1,0.1-0.1c0,0,0.1-0.1,0.1-0.1
		c0.1,0,0.1,0,0.2,0c0.1,0,0.1,0,0.1,0c0,0,0.1,0,0.1,0.1c0,0,0,0.1,0.1,0.1c0,0,0,0.1,0,0.2c0,0.1,0,0.1-0.1,0.2
		c0,0-0.1,0.1-0.1,0.1c0,0-0.1,0.1-0.1,0.1c-0.1,0-0.1,0-0.2,0c-0.1,0-0.1,0-0.1,0c0,0-0.1,0-0.1-0.1c0,0,0-0.1,0-0.1
		C119.5,720.5,119.5,720.4,119.5,720.3z"/>
	<path class="st5" d="M126,738.1l-0.1,0.5h-2.3l-0.4,1.6h1.8l-0.1,0.5H123l-0.4,1.6h2.3l-0.1,0.5h-2.9l1.3-4.8H126z M126,740.6h1.6
		l-0.1,0.5h-1.6L126,740.6z M128.7,742.3h2.1l-0.1,0.5h-2.7l1.3-4.8h0.6L128.7,742.3z M133.4,739.5c0.2,0,0.4,0,0.5,0.1
		c0.2,0.1,0.3,0.2,0.4,0.3c0.1,0.1,0.1,0.3,0.2,0.5c0,0.2,0,0.4-0.1,0.6c0,0.1-0.1,0.2-0.1,0.2c0,0-0.1,0-0.1,0h-2.2
		c-0.1,0.2-0.1,0.4-0.1,0.6c0,0.2,0,0.3,0.1,0.4c0.1,0.1,0.2,0.2,0.3,0.2c0.1,0.1,0.3,0.1,0.4,0.1c0.1,0,0.3,0,0.4-0.1
		c0.1,0,0.2-0.1,0.3-0.1c0.1,0,0.2-0.1,0.2-0.1c0.1,0,0.1-0.1,0.1-0.1c0,0,0.1,0,0.1,0.1l0.1,0.2c-0.1,0.1-0.2,0.2-0.3,0.2
		c-0.1,0.1-0.2,0.1-0.4,0.2c-0.1,0-0.3,0.1-0.4,0.1c-0.1,0-0.3,0-0.4,0c-0.2,0-0.4,0-0.6-0.1c-0.2-0.1-0.3-0.2-0.4-0.3
		c-0.1-0.2-0.2-0.3-0.2-0.6c0-0.2,0-0.5,0.1-0.8c0.1-0.2,0.2-0.5,0.3-0.7c0.1-0.2,0.3-0.4,0.5-0.5c0.2-0.1,0.4-0.3,0.6-0.4
		C132.9,739.5,133.1,739.5,133.4,739.5z M133.3,739.9c-0.3,0-0.5,0.1-0.7,0.2c-0.2,0.2-0.4,0.4-0.5,0.7h1.8c0-0.1,0.1-0.3,0-0.4
		c0-0.1,0-0.2-0.1-0.3c-0.1-0.1-0.1-0.1-0.2-0.2C133.5,739.9,133.4,739.9,133.3,739.9z M137.1,742.9h-0.3c-0.1,0-0.1,0-0.1,0
		c0,0,0-0.1,0-0.1l0-0.3c-0.1,0.1-0.2,0.2-0.3,0.2c-0.1,0.1-0.2,0.1-0.3,0.2c-0.1,0-0.2,0.1-0.3,0.1c-0.1,0-0.2,0-0.4,0
		c-0.1,0-0.2,0-0.4-0.1c-0.1,0-0.2-0.1-0.3-0.2c-0.1-0.1-0.1-0.2-0.1-0.3c0-0.1,0-0.2,0-0.4c0-0.1,0.1-0.3,0.2-0.4
		c0.1-0.1,0.3-0.2,0.4-0.3c0.2-0.1,0.4-0.2,0.7-0.2c0.3-0.1,0.6-0.1,1-0.1l0.1-0.3c0.1-0.3,0.1-0.5,0-0.6c-0.1-0.1-0.2-0.2-0.4-0.2
		c-0.1,0-0.3,0-0.4,0.1c-0.1,0-0.2,0.1-0.3,0.1c-0.1,0-0.2,0.1-0.2,0.1c-0.1,0-0.1,0.1-0.2,0.1c0,0-0.1,0-0.1,0c0,0,0,0-0.1-0.1
		l-0.1-0.2c0.2-0.2,0.5-0.3,0.7-0.4c0.2-0.1,0.5-0.1,0.8-0.1c0.2,0,0.3,0,0.5,0.1c0.1,0.1,0.2,0.1,0.3,0.3c0.1,0.1,0.1,0.2,0.1,0.4
		c0,0.2,0,0.3-0.1,0.5L137.1,742.9z M135.6,742.5c0.1,0,0.2,0,0.3,0s0.2-0.1,0.3-0.1c0.1,0,0.2-0.1,0.3-0.1c0.1-0.1,0.2-0.1,0.3-0.2
		l0.2-0.7c-0.3,0-0.5,0-0.7,0.1c-0.2,0-0.4,0.1-0.5,0.1c-0.1,0.1-0.2,0.1-0.3,0.2c-0.1,0.1-0.1,0.2-0.1,0.3c0,0.1,0,0.2,0,0.2
		c0,0.1,0,0.1,0.1,0.2c0,0,0.1,0.1,0.1,0.1C135.5,742.5,135.6,742.5,135.6,742.5z M138,742.9l0.9-3.4h0.3c0.1,0,0.1,0,0.1,0
		c0,0,0,0.1,0,0.1l-0.1,0.6c0.2-0.2,0.4-0.4,0.6-0.6c0.2-0.1,0.4-0.2,0.6-0.2c0.1,0,0.2,0,0.2,0c0.1,0,0.1,0.1,0.2,0.1l-0.2,0.4
		c0,0.1-0.1,0.1-0.1,0.1c0,0-0.1,0-0.1,0c-0.1,0-0.1,0-0.3,0c-0.2,0-0.4,0.1-0.6,0.2c-0.2,0.1-0.3,0.3-0.5,0.5l-0.6,2.1H138z
		 M140.7,742.9l0.9-3.4h0.4c0.1,0,0.1,0,0.1,0.1L142,740c0.2-0.2,0.4-0.3,0.6-0.4c0.2-0.1,0.4-0.2,0.7-0.2c0.2,0,0.3,0,0.5,0.1
		c0.1,0.1,0.2,0.1,0.3,0.3c0.1,0.1,0.1,0.2,0.1,0.4c0,0.2,0,0.3-0.1,0.5l-0.6,2.1h-0.6l0.6-2.1c0.1-0.3,0.1-0.5,0-0.6
		c-0.1-0.1-0.2-0.2-0.5-0.2c-0.2,0-0.3,0-0.5,0.1c-0.2,0.1-0.3,0.2-0.5,0.3l-0.7,2.5H140.7z M145.9,739.5l-0.9,3.4h-0.6l0.9-3.4
		H145.9z M146.3,738.5c0,0.1,0,0.1-0.1,0.2c0,0-0.1,0.1-0.1,0.1c0,0-0.1,0.1-0.2,0.1c-0.1,0-0.1,0-0.2,0c-0.1,0-0.1,0-0.2,0
		c0,0-0.1-0.1-0.1-0.1c0,0,0-0.1-0.1-0.1c0,0,0-0.1,0-0.2c0-0.1,0-0.1,0.1-0.2c0-0.1,0.1-0.1,0.1-0.1c0,0,0.1-0.1,0.2-0.1
		c0.1,0,0.1,0,0.2,0c0.1,0,0.1,0,0.2,0c0,0,0.1,0.1,0.1,0.1c0,0,0,0.1,0.1,0.1C146.3,738.3,146.3,738.4,146.3,738.5z M146,742.9
		l0.9-3.4h0.4c0.1,0,0.1,0,0.1,0.1l-0.1,0.4c0.2-0.2,0.4-0.3,0.6-0.4c0.2-0.1,0.4-0.2,0.7-0.2c0.2,0,0.3,0,0.5,0.1
		c0.1,0.1,0.2,0.1,0.3,0.3c0.1,0.1,0.1,0.2,0.1,0.4c0,0.2,0,0.3-0.1,0.5l-0.6,2.1h-0.6l0.6-2.1c0.1-0.3,0.1-0.5,0-0.6
		c-0.1-0.1-0.2-0.2-0.5-0.2c-0.2,0-0.3,0-0.5,0.1c-0.2,0.1-0.3,0.2-0.5,0.3l-0.7,2.5H146z M151.8,739.5c0.1,0,0.3,0,0.4,0
		c0.1,0,0.2,0.1,0.3,0.1h0.9l-0.1,0.2c0,0.1-0.1,0.1-0.2,0.1l-0.4,0.1c0,0.1,0,0.3,0,0.5c0,0.2-0.1,0.3-0.2,0.4
		c-0.1,0.1-0.2,0.2-0.4,0.3c-0.1,0.1-0.3,0.2-0.5,0.2c-0.2,0-0.3,0.1-0.5,0.1c-0.2,0-0.3,0-0.4-0.1c-0.1,0-0.1,0.1-0.2,0.1
		c-0.1,0.1-0.1,0.1-0.1,0.2c0,0.1,0,0.1,0,0.2s0.1,0.1,0.2,0.1c0.1,0,0.2,0,0.4,0c0.1,0,0.3,0,0.4,0c0.1,0,0.3,0,0.4,0
		c0.1,0,0.2,0.1,0.3,0.1c0.1,0.1,0.2,0.1,0.2,0.2c0,0.1,0,0.2,0,0.4c0,0.1-0.1,0.3-0.2,0.4c-0.1,0.1-0.2,0.3-0.4,0.4
		c-0.2,0.1-0.3,0.2-0.6,0.3c-0.2,0.1-0.4,0.1-0.7,0.1c-0.2,0-0.5,0-0.6-0.1c-0.2,0-0.3-0.1-0.4-0.2c-0.1-0.1-0.2-0.2-0.2-0.3
		c0-0.1,0-0.2,0-0.3c0-0.2,0.1-0.3,0.3-0.4c0.1-0.1,0.3-0.2,0.5-0.3c-0.1,0-0.1-0.1-0.2-0.2c0-0.1,0-0.2,0-0.3c0,0,0-0.1,0.1-0.2
		c0-0.1,0.1-0.1,0.1-0.2c0-0.1,0.1-0.1,0.2-0.1c0.1,0,0.1-0.1,0.2-0.1c-0.1-0.1-0.2-0.2-0.3-0.4c-0.1-0.2-0.1-0.3,0-0.5
		c0-0.2,0.1-0.3,0.2-0.4c0.1-0.1,0.2-0.3,0.4-0.3c0.1-0.1,0.3-0.2,0.5-0.2C151.4,739.5,151.6,739.5,151.8,739.5z M151.9,743.1
		c0-0.1,0-0.2,0-0.2c0-0.1-0.1-0.1-0.2-0.1c-0.1,0-0.2,0-0.3-0.1c-0.1,0-0.2,0-0.3,0c-0.1,0-0.2,0-0.4,0c-0.1,0-0.2,0-0.3,0
		c-0.1,0.1-0.3,0.1-0.4,0.2c-0.1,0.1-0.2,0.2-0.2,0.3c0,0.1,0,0.1,0,0.2c0,0.1,0.1,0.1,0.1,0.2c0.1,0,0.2,0.1,0.3,0.1
		c0.1,0,0.3,0,0.4,0c0.2,0,0.3,0,0.4,0c0.1,0,0.3-0.1,0.4-0.1c0.1-0.1,0.2-0.1,0.3-0.2C151.8,743.2,151.8,743.1,151.9,743.1z
		 M151.3,741.2c0.1,0,0.2,0,0.3,0c0.1,0,0.2-0.1,0.3-0.1c0.1-0.1,0.1-0.1,0.2-0.2c0.1-0.1,0.1-0.2,0.1-0.3c0.1-0.2,0-0.4-0.1-0.5
		c-0.1-0.1-0.3-0.2-0.5-0.2c-0.2,0-0.4,0.1-0.6,0.2c-0.2,0.1-0.3,0.3-0.3,0.5c0,0.1,0,0.2,0,0.3c0,0.1,0,0.2,0.1,0.2
		c0,0.1,0.1,0.1,0.2,0.1C151.1,741.2,151.2,741.2,151.3,741.2z M159,738.1l-0.1,0.5h-1.5l-1.1,4.2h-0.6l1.1-4.2h-1.5l0.1-0.5H159z
		 M159.9,739.5c0.2,0,0.4,0,0.5,0.1c0.2,0.1,0.3,0.2,0.4,0.3c0.1,0.1,0.1,0.3,0.2,0.5c0,0.2,0,0.4-0.1,0.6c0,0.1,0,0.2-0.1,0.2
		c0,0-0.1,0-0.1,0h-2.2c-0.1,0.2-0.1,0.4-0.1,0.6c0,0.2,0,0.3,0.1,0.4c0.1,0.1,0.2,0.2,0.3,0.2c0.1,0.1,0.2,0.1,0.4,0.1
		c0.1,0,0.3,0,0.4-0.1c0.1,0,0.2-0.1,0.3-0.1c0.1,0,0.2-0.1,0.2-0.1c0.1,0,0.1-0.1,0.1-0.1c0,0,0.1,0,0.1,0.1l0.1,0.2
		c-0.1,0.1-0.2,0.2-0.3,0.2c-0.1,0.1-0.2,0.1-0.4,0.2c-0.1,0-0.3,0.1-0.4,0.1c-0.1,0-0.3,0-0.4,0c-0.2,0-0.4,0-0.6-0.1
		c-0.2-0.1-0.3-0.2-0.4-0.3c-0.1-0.2-0.2-0.3-0.2-0.6c0-0.2,0-0.5,0.1-0.8c0.1-0.2,0.2-0.5,0.3-0.7c0.1-0.2,0.3-0.4,0.5-0.5
		c0.2-0.1,0.4-0.3,0.6-0.4C159.4,739.5,159.6,739.5,159.9,739.5z M159.8,739.9c-0.3,0-0.5,0.1-0.7,0.2c-0.2,0.2-0.4,0.4-0.5,0.7h1.8
		c0-0.1,0-0.3,0-0.4c0-0.1,0-0.2-0.1-0.3c-0.1-0.1-0.1-0.1-0.2-0.2C160,739.9,159.9,739.9,159.8,739.9z M163.6,742.9h-0.3
		c-0.1,0-0.1,0-0.1,0c0,0,0-0.1,0-0.1l0-0.3c-0.1,0.1-0.2,0.2-0.3,0.2c-0.1,0.1-0.2,0.1-0.3,0.2c-0.1,0-0.2,0.1-0.3,0.1
		c-0.1,0-0.2,0-0.4,0c-0.1,0-0.2,0-0.4-0.1c-0.1,0-0.2-0.1-0.3-0.2c-0.1-0.1-0.1-0.2-0.1-0.3c0-0.1,0-0.2,0-0.4
		c0-0.1,0.1-0.3,0.2-0.4c0.1-0.1,0.3-0.2,0.4-0.3c0.2-0.1,0.4-0.2,0.7-0.2c0.3-0.1,0.6-0.1,1-0.1l0.1-0.3c0.1-0.3,0.1-0.5,0-0.6
		c-0.1-0.1-0.2-0.2-0.4-0.2c-0.1,0-0.3,0-0.4,0.1c-0.1,0-0.2,0.1-0.3,0.1c-0.1,0-0.2,0.1-0.2,0.1c-0.1,0-0.1,0.1-0.2,0.1
		c0,0-0.1,0-0.1,0c0,0,0,0-0.1-0.1l-0.1-0.2c0.2-0.2,0.5-0.3,0.7-0.4c0.2-0.1,0.5-0.1,0.7-0.1c0.2,0,0.3,0,0.5,0.1
		c0.1,0.1,0.2,0.1,0.3,0.3c0.1,0.1,0.1,0.2,0.1,0.4c0,0.2,0,0.3-0.1,0.5L163.6,742.9z M162.1,742.5c0.1,0,0.2,0,0.3,0
		c0.1,0,0.2-0.1,0.3-0.1c0.1,0,0.2-0.1,0.3-0.1c0.1-0.1,0.2-0.1,0.3-0.2l0.2-0.7c-0.3,0-0.5,0-0.7,0.1c-0.2,0-0.4,0.1-0.5,0.1
		c-0.1,0.1-0.2,0.1-0.3,0.2c-0.1,0.1-0.1,0.2-0.2,0.3c0,0.1,0,0.2,0,0.2c0,0.1,0,0.1,0.1,0.2c0,0,0.1,0.1,0.1,0.1
		C162,742.5,162.1,742.5,162.1,742.5z M164.5,742.9l0.9-3.4h0.3c0.1,0,0.1,0,0.1,0.1l0,0.3c0.2-0.2,0.3-0.3,0.5-0.4
		c0.2-0.1,0.4-0.1,0.6-0.1c0.2,0,0.4,0.1,0.5,0.2c0.1,0.1,0.2,0.3,0.2,0.5c0.1-0.1,0.2-0.2,0.3-0.3c0.1-0.1,0.2-0.2,0.3-0.2
		c0.1-0.1,0.2-0.1,0.3-0.1c0.1,0,0.2,0,0.3,0c0.2,0,0.3,0,0.5,0.1c0.1,0.1,0.2,0.1,0.3,0.2c0.1,0.1,0.1,0.2,0.1,0.4
		c0,0.2,0,0.3-0.1,0.5l-0.6,2.1h-0.6l0.6-2.1c0.1-0.3,0.1-0.5,0-0.6c-0.1-0.1-0.2-0.2-0.4-0.2c-0.1,0-0.2,0-0.3,0.1
		c-0.1,0-0.2,0.1-0.3,0.2c-0.1,0.1-0.2,0.2-0.2,0.3c-0.1,0.1-0.1,0.2-0.2,0.4l-0.6,2.1h-0.6l0.6-2.1c0.1-0.3,0.1-0.5,0-0.6
		c-0.1-0.1-0.2-0.2-0.4-0.2c-0.1,0-0.3,0-0.4,0.1c-0.1,0.1-0.3,0.2-0.4,0.3l-0.7,2.5H164.5z"/>
</g>
<g>
	<g>
		<g>
			<linearGradient id="SVGID_3_" gradientUnits="userSpaceOnUse" x1="226.7738" y1="209.4361" x2="226.7738" y2="294.3917">
				<stop  offset="0" style="stop-color:#9DB3CE"/>
				<stop  offset="1" style="stop-color:#91A8C6"/>
			</linearGradient>
			<path class="st8" d="M226.8,296.7c-25,0-45.4-20.4-45.4-45.4s20.4-45.4,45.4-45.4c25,0,45.4,20.4,45.4,45.4
				S251.8,296.7,226.8,296.7L226.8,296.7z"/>
			<linearGradient id="SVGID_4_" gradientUnits="userSpaceOnUse" x1="226.7738" y1="210.9365" x2="226.7738" y2="292.8463">
				<stop  offset="0" style="stop-color:#DCE8F1"/>
				<stop  offset="1" style="stop-color:#B0C1D6"/>
			</linearGradient>
			<circle class="st9" cx="226.8" cy="251.3" r="43.8"/>
			<linearGradient id="SVGID_5_" gradientUnits="userSpaceOnUse" x1="213.777" y1="212.239" x2="221.6419" y2="235.9692">
				<stop  offset="0" style="stop-color:#FBFEFF"/>
				<stop  offset="1" style="stop-color:#D6E4EE"/>
			</linearGradient>
			<path class="st10" d="M212.4,212.1c-16.1,5.3-21,16.6-23.5,24.2c-2.5,7.6,16.7,6.5,36.7-1.9c20-8.4,29.1-16.7,19.9-20.9
				C236.3,209.3,224.8,208,212.4,212.1z"/>
			
				<linearGradient id="SVGID_6_" gradientUnits="userSpaceOnUse" x1="-4416.835" y1="4315.7227" x2="-4408.9702" y2="4339.4531" gradientTransform="matrix(-1 0 0 -1 -4176.667 4606.8242)">
				<stop  offset="0" style="stop-color:#8CA3BD"/>
				<stop  offset="1" style="stop-color:#BECEE0"/>
			</linearGradient>
			<path class="st11" d="M241.6,291.3c16.1-5.3,21-16.6,23.5-24.2c2.5-7.6-16.7-6.5-36.7,1.9c-20,8.4-29.1,16.7-19.9,20.9
				C217.7,294,229.2,295.4,241.6,291.3z"/>
			<g>
				<linearGradient id="SVGID_7_" gradientUnits="userSpaceOnUse" x1="208.0276" y1="220.4276" x2="208.0276" y2="287.1528">
					<stop  offset="0" style="stop-color:#D8E0EB"/>
					<stop  offset="1" style="stop-color:#A0B2C4"/>
				</linearGradient>
				<path class="st12" d="M207.2,238.3c-1.7-0.6-3.3-0.3-5.3,0.7c-2.2,1.2-3.7,1.1-6,1.6c-1.8,0.4-2.7,1.6-3.1,3.3
					c-0.2,0.9-0.5,2.2-0.6,3.1c-0.4,2.9,1.6,7,2.6,9.6c1.3,3.2,3.2,6.8,6.2,8.6c8.2,5,18.6,4.9,22.3-5.3c2.3-6.4-0.8-11.8-6.3-15.1
					c-2.8-1.7-5.1-3.3-7.7-5.3C208.6,239,207.9,238.6,207.2,238.3z"/>
				<linearGradient id="SVGID_8_" gradientUnits="userSpaceOnUse" x1="233.6876" y1="220.4359" x2="233.6876" y2="287.1605">
					<stop  offset="0" style="stop-color:#D8E0EB"/>
					<stop  offset="1" style="stop-color:#A0B2C4"/>
				</linearGradient>
				<path class="st13" d="M251.8,235.9c1.5-0.5,2.5-1.5,1.9-3.5c-0.8-3.1-4.2-4.5-7-5.4c-1.5-0.5-3.1-0.6-4.7-1
					c-1.8-0.5-2.4-1.4-3.9-2.6c-6.1-4.7-15.7-3.5-20.9,1.9c-2.4,2.4-4.5,6.8-3.3,10.3c0.7,1.9,2.2,2.2,4,3c2.5,1.1,5.3,2.5,7.2,4.5
					c2.4,2.4,3.1,4.3,7,4c6-0.4,9.1-6.7,13.7-9.5C247.2,236.6,249.9,236.6,251.8,235.9z"/>
				<linearGradient id="SVGID_9_" gradientUnits="userSpaceOnUse" x1="234.0853" y1="220.4277" x2="234.0853" y2="287.1528">
					<stop  offset="0" style="stop-color:#D8E0EB"/>
					<stop  offset="1" style="stop-color:#A0B2C4"/>
				</linearGradient>
				<path class="st14" d="M239.2,254.3c-2.3-1.1-5.5-5-7.8-5.5c-2-0.5-3.7,1.4-4.7,3.3c-2.3,4-1,8.9,3.3,10.8
					c3.8,1.7,11.8,1.8,12.5-3.8C242.9,256,241.8,255.5,239.2,254.3z"/>
				<linearGradient id="SVGID_10_" gradientUnits="userSpaceOnUse" x1="260.0323" y1="220.4299" x2="260.0323" y2="287.1518">
					<stop  offset="0" style="stop-color:#D8E0EB"/>
					<stop  offset="1" style="stop-color:#A0B2C4"/>
				</linearGradient>
				<path class="st15" d="M260.1,272.5c2.5-1.3,7.2-11.4,2.7-12.5c-3.1-0.7-5.8,5-6.7,7C254.7,269.9,255.2,275,260.1,272.5z"/>
				<linearGradient id="SVGID_11_" gradientUnits="userSpaceOnUse" x1="209.6067" y1="220.4282" x2="209.6067" y2="287.1528">
					<stop  offset="0" style="stop-color:#D8E0EB"/>
					<stop  offset="1" style="stop-color:#A0B2C4"/>
				</linearGradient>
				<path class="st16" d="M216,274.2c-1-2-13.1-5.7-13.1-2c0,3.6,6.4,5.4,9.2,5.5C213.9,277.8,217.4,277,216,274.2z"/>
				<linearGradient id="SVGID_12_" gradientUnits="userSpaceOnUse" x1="258.3366" y1="218.2767" x2="257.523" y2="285.8054">
					<stop  offset="0" style="stop-color:#C7D3E4"/>
					<stop  offset="1" style="stop-color:#A0B2C4"/>
				</linearGradient>
				<path class="st17" d="M256,234c1.3,3.4,5.5,4.2,5.7-0.3c0.1-2.7-2.1-7.9-5.4-6.4C253.5,228.5,255.2,232,256,234z"/>
				<linearGradient id="SVGID_13_" gradientUnits="userSpaceOnUse" x1="267.4273" y1="218.3879" x2="266.6137" y2="285.9131">
					<stop  offset="0" style="stop-color:#C7D3E4"/>
					<stop  offset="1" style="stop-color:#A0B2C4"/>
				</linearGradient>
				<path class="st18" d="M266.8,254.3c2,1.4,2.3-3.1,2.1-4.2c-0.2-1.5,0-5.5-2.2-5.7C264,244.1,265.5,253.4,266.8,254.3z"/>
				<linearGradient id="SVGID_14_" gradientUnits="userSpaceOnUse" x1="187.7598" y1="220.4277" x2="187.7598" y2="287.1526">
					<stop  offset="0" style="stop-color:#D8E0EB"/>
					<stop  offset="1" style="stop-color:#A0B2C4"/>
				</linearGradient>
				<path class="st19" d="M189.3,251.1c0.7-1.3,1.1-7.5-1.4-7.3C183.3,244,187.1,255.2,189.3,251.1z"/>
				<linearGradient id="SVGID_15_" gradientUnits="userSpaceOnUse" x1="227.0443" y1="220.4258" x2="227.0443" y2="287.153">
					<stop  offset="0" style="stop-color:#D8E0EB"/>
					<stop  offset="1" style="stop-color:#A0B2C4"/>
				</linearGradient>
				<path class="st20" d="M231.9,269.5c0.6,1,0,2.2,0.4,3.2c0.9,2.4,3.7,3.9,4.7,6.3c1.4,3-4.1,6.2-6.4,6.8c-2.5,0.6-8.5,0.9-8.6-3
					c-0.1-3,2.2-5.3-0.3-8c-1.4-1.5-7.5-3.2-3.9-5.9c2-1.4,5.1-1.6,7.5-1.4C227.6,267.5,230.6,267.3,231.9,269.5z"/>
				<linearGradient id="SVGID_16_" gradientUnits="userSpaceOnUse" x1="197.1772" y1="220.4271" x2="197.1772" y2="287.153">
					<stop  offset="0" style="stop-color:#D8E0EB"/>
					<stop  offset="1" style="stop-color:#A0B2C4"/>
				</linearGradient>
				<path class="st21" d="M199.9,273.7c0.2-1.8-1.9-5.4-3.7-5.8c-3.7-0.9-0.8,5.6,0.6,6.5C198.1,275.3,199.7,275.3,199.9,273.7z"/>
			</g>
			<linearGradient id="SVGID_17_" gradientUnits="userSpaceOnUse" x1="211.8226" y1="258.4016" x2="211.6192" y2="249.248">
				<stop  offset="0" style="stop-color:#DCE8F1"/>
				<stop  offset="1" style="stop-color:#BECCDE"/>
			</linearGradient>
			<ellipse class="st22" cx="211.7" cy="253.9" rx="4.6" ry="4.9"/>
			<linearGradient id="SVGID_18_" gradientUnits="userSpaceOnUse" x1="240.978" y1="239.3848" x2="240.828" y2="232.6385">
				<stop  offset="0" style="stop-color:#DCE8F1"/>
				<stop  offset="1" style="stop-color:#BECCDE"/>
			</linearGradient>
			<ellipse class="st23" cx="240.9" cy="236.1" rx="3.4" ry="3.6"/>
			<linearGradient id="SVGID_19_" gradientUnits="userSpaceOnUse" x1="201.1556" y1="251.1826" x2="201.0057" y2="244.4369">
				<stop  offset="0" style="stop-color:#DCE8F1"/>
				<stop  offset="1" style="stop-color:#BECCDE"/>
			</linearGradient>
			<ellipse class="st24" cx="201.1" cy="247.9" rx="3.4" ry="3.6"/>
			<linearGradient id="SVGID_20_" gradientUnits="userSpaceOnUse" x1="226.9531" y1="216.3756" x2="222.8852" y2="213.1212">
				<stop  offset="0" style="stop-color:#EEF4F9"/>
				<stop  offset="1" style="stop-color:#D8E1EB"/>
			</linearGradient>
			<ellipse class="st25" cx="225" cy="214.8" rx="4.6" ry="2.1"/>
			<linearGradient id="SVGID_21_" gradientUnits="userSpaceOnUse" x1="240.9341" y1="219.4543" x2="238.4933" y2="215.1828">
				<stop  offset="0" style="stop-color:#EEF4F9"/>
				<stop  offset="1" style="stop-color:#D8E1EB"/>
			</linearGradient>
			<path class="st26" d="M244.3,218c-0.2,1.1-2.3,1.8-4.8,1.4c-2.5-0.3-4.4-1.6-4.3-2.7c0.2-1.1,2.3-1.8,4.8-1.4
				C242.5,215.6,244.4,216.8,244.3,218z"/>
			
				<linearGradient id="SVGID_22_" gradientUnits="userSpaceOnUse" x1="894.0513" y1="1625.1709" x2="890.8043" y2="1619.4886" gradientTransform="matrix(0.8733 -0.4871 0.4871 0.8733 -1361.3969 -761.039)">
				<stop  offset="0" style="stop-color:#EEF4F9"/>
				<stop  offset="1" style="stop-color:#D8E1EB"/>
			</linearGradient>
			<path class="st27" d="M213.9,218.8c0.6,1.4-1.5,3.6-4.7,4.8c-3.2,1.2-6.2,1.1-6.7-0.4c-0.6-1.4,1.5-3.6,4.7-4.8
				C210.4,217.3,213.4,217.4,213.9,218.8z"/>
			<linearGradient id="SVGID_23_" gradientUnits="userSpaceOnUse" x1="212.4087" y1="266.3242" x2="212.2938" y2="261.1541">
				<stop  offset="0" style="stop-color:#DCE8F1"/>
				<stop  offset="1" style="stop-color:#BECCDE"/>
			</linearGradient>
			<circle class="st28" cx="212.4" cy="263.8" r="2.7"/>
			<linearGradient id="SVGID_24_" gradientUnits="userSpaceOnUse" x1="232.7164" y1="282.4938" x2="232.5428" y2="274.6811">
				<stop  offset="0" style="stop-color:#DCE8F1"/>
				<stop  offset="1" style="stop-color:#B0C0D6"/>
			</linearGradient>
			<ellipse class="st29" cx="232.6" cy="278.7" rx="5.9" ry="4.1"/>
			
				<linearGradient id="SVGID_25_" gradientUnits="userSpaceOnUse" x1="115.4466" y1="1542.9471" x2="115.3412" y2="1538.2067" gradientTransform="matrix(1.1585 -0.7758 0.2782 0.4155 -308.9311 -269.0187)">
				<stop  offset="0" style="stop-color:#DCE8F1"/>
				<stop  offset="1" style="stop-color:#BECCDE"/>
			</linearGradient>
			<path class="st30" d="M257.5,278.8c0.4,0.6-1.1,2.3-3.4,3.8c-2.3,1.5-4.4,2.3-4.8,1.7c-0.4-0.6,1.1-2.3,3.4-3.8
				C254.9,279,257.1,278.2,257.5,278.8z"/>
			
				<linearGradient id="SVGID_26_" gradientUnits="userSpaceOnUse" x1="-1059.5411" y1="-3183.3596" x2="-1059.6465" y2="-3188.1006" gradientTransform="matrix(1.3035 0.4947 -0.1774 0.4675 1025.1677 2302.0078)">
				<stop  offset="0" style="stop-color:#DCE8F1"/>
				<stop  offset="1" style="stop-color:#BECCDE"/>
			</linearGradient>
			<path class="st31" d="M213.8,290.3c-0.2,0.6-2.5,0.4-5.1-0.6c-2.6-1-4.4-2.3-4.2-2.9c0.2-0.6,2.5-0.4,5.1,0.6
				C212.1,288.3,214,289.6,213.8,290.3z"/>
			<linearGradient id="SVGID_27_" gradientUnits="userSpaceOnUse" x1="250.5571" y1="220.4285" x2="250.5571" y2="287.1526">
				<stop  offset="0" style="stop-color:#D8E0EB"/>
				<stop  offset="1" style="stop-color:#A0B2C4"/>
			</linearGradient>
			<path class="st32" d="M258.7,249.8c-1.7-3.4-4.6-4.1-8.2-4.1c-2.5,0-5.5-0.8-7.5,1.1c-2.5,2.3,1.3,3.2,3.2,4.1
				c5.8,2.7,1.3,6.8,2.5,11.2c0.5,1.6,3.2,2.5,4.8,1.5c2-1.2,2.7-5.5,3.7-7.5C258.1,254.4,259.7,251.8,258.7,249.8z"/>
			<linearGradient id="SVGID_28_" gradientUnits="userSpaceOnUse" x1="203.0272" y1="220.4284" x2="203.0272" y2="287.152">
				<stop  offset="0" style="stop-color:#D8E0EB"/>
				<stop  offset="1" style="stop-color:#A0B2C4"/>
			</linearGradient>
			<path class="st33" d="M205.5,236.8c1.6,0.3,5.8,1.7,5.5-1.3c-0.1-1.1-1.6-1.9-2.1-2.9c-0.5-1-0.6-2.2-0.5-3.3
				c0.1-1.9,1.7-5.8-1.4-6.1c-2.9-0.3-3.6,3.4-4.9,5.3c-1.5,2.2-3.8,1.8-5.6,3.5c-2.3,2.2-1.7,5.1,1.6,4.3c1.1-0.3,2.1-0.9,3.2-0.8
				C202.7,235.5,204,236.5,205.5,236.8z"/>
		</g>
	</g>
	<g>
		<g>
			<g>
				<path class="st34" d="M153.6,248.5c0,0-0.5,3.2-1.2,3.9c-0.8,0.8-4,1.3-4,1.3s3.2,0.5,3.9,1.3c0.7,0.8,1.2,3.9,1.2,3.9
					s0.5-3.1,1.2-3.9c0.8-0.8,3.9-1.3,3.9-1.3s-3.2-0.5-3.9-1.3C154.1,251.6,153.6,248.5,153.6,248.5z"/>
			</g>
		</g>
		<g>
			<g>
				<path class="st34" d="M256.2,297.3c0,0-0.7,4.6-1.7,5.7c-1.1,1.2-5.9,1.9-5.9,1.9s4.7,0.8,5.8,1.9c1.1,1.1,1.8,5.7,1.8,5.7
					s0.7-4.5,1.8-5.6c1.1-1.1,5.8-1.9,5.8-1.9s-4.7-0.8-5.8-1.9C257,301.9,256.2,297.3,256.2,297.3z"/>
			</g>
		</g>
		<g>
			<g>
				<path class="st34" d="M192.8,354.9c0,0-0.4,2.9-1.1,3.6c-0.7,0.8-3.7,1.2-3.7,1.2s2.9,0.5,3.6,1.2c0.7,0.7,1.1,3.6,1.1,3.6
					s0.4-2.9,1.1-3.5c0.7-0.7,3.6-1.2,3.6-1.2s-2.9-0.5-3.6-1.2C193.3,357.7,192.8,354.9,192.8,354.9z"/>
			</g>
		</g>
		<g>
			<g>
				<path class="st34" d="M294.4,252.8c0,0-0.3,2.1-0.8,2.6c-0.5,0.5-2.6,0.8-2.6,0.8s2.1,0.3,2.6,0.8c0.5,0.5,0.8,2.6,0.8,2.6
					s0.3-2,0.8-2.5c0.5-0.5,2.6-0.9,2.6-0.9s-2.1-0.3-2.6-0.9C294.7,254.9,294.4,252.8,294.4,252.8z"/>
			</g>
		</g>
		<polygon class="st34" points="285.2,289.7 283.5,289.3 282.2,290.5 282.1,288.7 280.6,287.8 282.2,287.2 282.6,285.5 283.7,286.8 
			285.5,286.7 284.6,288.1 		"/>
		<polygon class="st34" points="143.3,301.9 141.6,301.5 140.2,302.6 140.1,300.9 138.6,300 140.3,299.3 140.6,297.6 141.8,299 
			143.5,298.8 142.6,300.3 		"/>
		<polygon class="st34" points="141.5,238.6 139.8,238.1 138.5,239.3 138.3,237.6 136.8,236.7 138.5,236 138.9,234.3 140,235.6 
			141.7,235.5 140.8,237 		"/>
		<polygon class="st34" points="303.6,235.5 301.9,235.1 300.6,236.3 300.5,234.5 299,233.6 300.6,233 301,231.2 302.1,232.6 
			303.9,232.4 303,233.9 		"/>
		<polygon class="st34" points="153.3,273.8 152.6,273.6 152.1,274.1 152,273.4 151.4,273 152.1,272.7 152.2,272 152.7,272.6 
			153.4,272.5 153.1,273.1 		"/>
		<polygon class="st34" points="207,316.7 205.3,316.3 204,317.4 203.9,315.7 202.4,314.8 204,314.1 204.4,312.4 205.5,313.8 
			207.3,313.6 206.3,315.1 		"/>
		<polygon class="st34" points="265.5,284 264.8,283.8 264.2,284.3 264.2,283.6 263.6,283.2 264.3,282.9 264.4,282.2 264.9,282.8 
			265.6,282.7 265.2,283.3 		"/>
		<polygon class="st34" points="292.7,270 292,269.8 291.4,270.3 291.4,269.6 290.7,269.2 291.4,268.9 291.6,268.2 292,268.8 
			292.8,268.7 292.4,269.3 		"/>
		<polygon class="st34" points="207.3,361.5 206.6,361.3 206,361.8 206,361.1 205.4,360.7 206,360.5 206.2,359.7 206.7,360.3 
			207.4,360.2 207,360.9 		"/>
		<polygon class="st34" points="246.5,356.4 245.8,356.2 245.3,356.7 245.2,356 244.6,355.6 245.3,355.3 245.4,354.6 245.9,355.2 
			246.6,355.1 246.2,355.7 		"/>
		<polygon class="st34" points="313.8,315.1 313.1,315 312.6,315.4 312.5,314.7 311.9,314.3 312.6,314.1 312.8,313.3 313.2,313.9 
			314,313.8 313.6,314.5 		"/>
		<polygon class="st34" points="199.6,326.9 198.8,326.7 198.3,327.2 198.2,326.5 197.6,326.1 198.3,325.8 198.5,325.1 198.9,325.7 
			199.7,325.6 199.3,326.2 		"/>
		<polygon class="st34" points="168.6,350.9 166.9,350.5 165.5,351.6 165.4,349.9 163.9,349 165.5,348.4 165.9,346.6 167.1,348 
			168.8,347.8 167.9,349.3 		"/>
		<polygon class="st34" points="289.2,323.4 288.4,323.2 287.9,323.7 287.8,322.9 287.2,322.6 287.9,322.3 288.1,321.6 288.5,322.1 
			289.3,322.1 288.9,322.7 		"/>
		<polygon class="st34" points="291.5,341.9 290.8,341.7 290.2,342.2 290.1,341.5 289.5,341.1 290.2,340.8 290.4,340.1 290.8,340.7 
			291.6,340.6 291.2,341.2 		"/>
		<polygon class="st34" points="229.9,270.5 229.2,270.3 228.6,270.8 228.6,270 228,269.7 228.6,269.4 228.8,268.7 229.3,269.2 
			230,269.2 229.6,269.8 		"/>
		<polygon class="st34" points="201.4,283.5 199.7,283.1 198.4,284.2 198.3,282.5 196.8,281.6 198.4,280.9 198.8,279.2 199.9,280.5 
			201.6,280.4 200.7,281.9 		"/>
		<polygon class="st34" points="231.3,282.5 230.6,282.3 230.1,282.8 230,282.1 229.4,281.7 230.1,281.4 230.2,280.7 230.7,281.3 
			231.5,281.2 231.1,281.8 		"/>
		<polygon class="st34" points="252.3,197.9 251.6,197.8 251,198.2 251,197.5 250.4,197.1 251,196.9 251.2,196.2 251.7,196.7 
			252.4,196.7 252,197.3 		"/>
		<g>
			<radialGradient id="SVGID_29_" cx="225.2948" cy="232.5169" r="163.9468" gradientUnits="userSpaceOnUse">
				<stop  offset="0" style="stop-color:#9EB4CB"/>
				<stop  offset="6.018852e-002" style="stop-color:#9BB0C9"/>
				<stop  offset="0.1276" style="stop-color:#91A5C4"/>
				<stop  offset="0.1986" style="stop-color:#8393BC"/>
				<stop  offset="0.272" style="stop-color:#717DB1"/>
				<stop  offset="0.3473" style="stop-color:#5964A5"/>
				<stop  offset="0.4231" style="stop-color:#3E4797"/>
				<stop  offset="0.4634" style="stop-color:#2E368F"/>
				<stop  offset="0.5676" style="stop-color:#2D3283"/>
				<stop  offset="0.7719" style="stop-color:#292967"/>
				<stop  offset="1" style="stop-color:#1D1A45"/>
			</radialGradient>
			<path class="st35" d="M281.2,307c0.4-0.9,0.7-1.8,0.9-2.8c1.1-7.6-7.5-15.1-19.2-16.8c-0.5-0.1-1-0.1-1.5-0.2
				c0.3-6.1-4.4-13.5-12.3-18.4c-6.5-4-13.6-5.3-18.9-3.9c-5.6-4.5-14.2-6.7-23.2-5.3c-14.7,2.3-25.1,13.3-23.4,24.5
				c0,0.1,0,0.2,0.1,0.3c-1.5-0.6-3-0.9-4.7-0.9c-7,0-12.6,5.5-12.6,12.3c0,0,0,0,0,0.1c-10.5,1-18.7,9.3-18.7,19.4
				c0,10.8,9.3,19.5,20.8,19.5c4.2,0,8-1.2,11.3-3.1c1.6,3.6,5,6.3,9.2,7.1c4.7,0.8,9.2-1.1,12-4.6c4.8,6.7,14.3,10.5,24.5,8.9
				c9.1-1.4,16.4-6.9,19.6-13.7c1.8,2.5,4.6,4.3,7.9,4.9c4.3,0.8,8.5-0.8,11.3-3.7c2.9,1.6,6.4,2.8,10.2,3.3
				c11.7,1.7,22.1-3.1,23.2-10.7C298.5,316.3,291.4,309.4,281.2,307z"/>
			<path class="st36" d="M188.7,286.1c0.1,0.8,0.3,1.5,0.6,2.3c-1.1-1.7-1.9-3.6-2.2-5.6c-1.5-9.8,7.6-19.3,20.4-21.4
				c11.8-1.9,16.7,1.1,21.6,7.8c-6.3-3.9-9.8-6-20-4.4C196.3,266.8,187.1,276.4,188.7,286.1z M248.3,270.5
				c-8.9-5.4-18.9-5.2-22.4,0.6c-0.8,1.3-1.2,2.9-1.2,4.5c0.2-1,0.5-1.9,1-2.8c3.3-5.4,12.8-5.7,21.2-0.5
				c8.4,5.1,12.4,13.7,9.1,19.1c-1.1,1.8-3,3-5.2,3.7c3.2-0.5,5.8-1.9,7.3-4.3C261.5,285,257.1,275.9,248.3,270.5z M264.1,289.8
				c-2.1-0.3-4.2-0.3-6.2-0.2c0.7,0.1,1.4,0.1,2,0.2c11.3,1.6,19.6,8.9,18.5,16.2c-0.1,0.6-0.3,1.2-0.5,1.8c1-1.2,1.7-2.6,2-4.1
				C280.9,297.5,273.8,291.2,264.1,289.8z M170.1,330.4c1.3,0,2.6-0.2,3.8-0.4c-2.1,0.8-4.3,1.3-6.7,1.3c-9.4,0-17.1-7.2-17.1-16
				c0-8.8,7.6-16,17.1-16c1,0,1.9,0.1,2.9,0.2c-8.9,0-16.1,6.9-16.1,15.5C153.9,323.4,161.1,330.4,170.1,330.4z M189.9,335.2
				c-5.3-0.9-8.9-7-8.8-12.1c-0.3,0.7-0.5,1.4-0.6,2.1c-1,5.8,2.9,11.3,8.7,12.3c5.8,1,11.4-2.8,12.4-8.6c0.1-0.5,0.1-1.1,0.1-1.6
				C199.8,331.9,195,336.1,189.9,335.2z M243.6,320.1c-0.2-1.3-0.6-2.5-1.1-3.7c0.1,0.2,0.1,0.5,0.2,0.7c1.5,9.7-6.5,19.1-18,20.9
				c-11.5,1.8-22-4.6-23.5-14.3c0-0.3-0.1-0.6-0.1-0.8c-0.1,1.3-0.1,2.6,0.1,3.9c1.5,9.7,12.3,16.1,24,14.3
				C236.9,339.2,245.2,329.8,243.6,320.1z M253.4,331.9c-3.3-0.6-6.1-2.4-7.9-4.9c1.6,3.1,4.5,5.4,8.2,6c5.1,0.9,9.9-1.7,12.2-6
				C263,330.7,258.3,332.8,253.4,331.9z M181.2,286.1c1.3,0,2.5,0.2,3.7,0.6c-1.8-1.3-3.9-2-6.3-2c-5.9,0-10.7,4.7-10.7,10.4
				c0,0.6,0.1,1.1,0.2,1.6C169.2,290.6,174.6,286.1,181.2,286.1z M280,308.7c8.2,2.9,13.5,8,12.7,13.1c-1,6.7-12.5,10.7-25.5,8.9
				c0,0,0,0,0,0c2,0.7,4.1,1.2,6.4,1.5c11.1,1.5,21-2.7,22.1-9.3C296.6,316.8,289.8,310.8,280,308.7z M203.3,323
				c-0.6-4.1,0.6-8.1,3.1-11.6c-4.5,3.8-6.9,9.1-6.1,14.6c1.4,9.1,11.5,15.1,22.4,13.4c3.6-0.6,6.9-1.9,9.6-3.8
				c-1.5,0.5-3.1,0.9-4.7,1.2C215.6,338.7,204.8,332.5,203.3,323z"/>
		</g>
		<g>
			<radialGradient id="SVGID_30_" cx="281.7838" cy="252.5034" r="68.5825" gradientUnits="userSpaceOnUse">
				<stop  offset="0" style="stop-color:#9EB4CB"/>
				<stop  offset="6.018852e-002" style="stop-color:#9BB0C9"/>
				<stop  offset="0.1276" style="stop-color:#91A5C4"/>
				<stop  offset="0.1986" style="stop-color:#8393BC"/>
				<stop  offset="0.272" style="stop-color:#717DB1"/>
				<stop  offset="0.3473" style="stop-color:#5964A5"/>
				<stop  offset="0.4231" style="stop-color:#3E4797"/>
				<stop  offset="0.4634" style="stop-color:#2E368F"/>
				<stop  offset="0.5676" style="stop-color:#2D3283"/>
				<stop  offset="0.7719" style="stop-color:#292967"/>
				<stop  offset="1" style="stop-color:#1D1A45"/>
			</radialGradient>
			<path class="st37" d="M305.2,283.7c0.2-0.4,0.3-0.8,0.4-1.2c0.5-3.2-3.1-6.3-8-7c-0.2,0-0.4,0-0.6-0.1c0.1-2.6-1.9-5.7-5.2-7.7
				c-2.7-1.7-5.7-2.2-7.9-1.6c-2.4-1.9-5.9-2.8-9.7-2.2c-6.1,1-10.5,5.6-9.8,10.2c0,0,0,0.1,0,0.1c-0.6-0.2-1.3-0.4-2-0.4
				c-2.9,0-5.3,2.3-5.3,5.2c0,0,0,0,0,0c-4.4,0.4-7.8,3.9-7.8,8.1c0,4.5,3.9,8.2,8.7,8.2c1.7,0,3.4-0.5,4.7-1.3
				c0.7,1.5,2.1,2.7,3.8,3c2,0.3,3.9-0.5,5-1.9c2,2.8,6,4.4,10.2,3.7c3.8-0.6,6.9-2.9,8.2-5.7c0.8,1,1.9,1.8,3.3,2.1
				c1.8,0.3,3.6-0.3,4.7-1.6c1.2,0.7,2.7,1.2,4.3,1.4c4.9,0.7,9.2-1.3,9.7-4.5C312.4,287.5,309.4,284.7,305.2,283.7z"/>
			<path class="st36" d="M266.5,274.9c0,0.3,0.1,0.6,0.2,0.9c-0.5-0.7-0.8-1.5-0.9-2.3c-0.6-4.1,3.2-8.1,8.5-8.9
				c4.9-0.8,7,0.5,9,3.3c-2.6-1.6-4.1-2.5-8.4-1.8C269.6,266.8,265.8,270.8,266.5,274.9z M291.4,268.4c-3.7-2.3-7.9-2.2-9.4,0.2
				c-0.3,0.6-0.5,1.2-0.5,1.9c0.1-0.4,0.2-0.8,0.4-1.2c1.4-2.3,5.4-2.4,8.9-0.2c3.5,2.2,5.2,5.7,3.8,8c-0.5,0.8-1.2,1.3-2.2,1.5
				c1.3-0.2,2.4-0.8,3.1-1.8C296.9,274.5,295.1,270.7,291.4,268.4z M298,276.5c-0.9-0.1-1.8-0.1-2.6-0.1c0.3,0,0.6,0.1,0.9,0.1
				c4.7,0.7,8.2,3.7,7.7,6.8c0,0.3-0.1,0.5-0.2,0.7c0.4-0.5,0.7-1.1,0.8-1.7C305,279.7,302.1,277.1,298,276.5z M258.7,293.4
				c0.6,0,1.1-0.1,1.6-0.2c-0.9,0.3-1.8,0.5-2.8,0.5c-3.9,0-7.1-3-7.1-6.7c0-3.7,3.2-6.7,7.1-6.7c0.4,0,0.8,0,1.2,0.1
				c-3.7,0-6.7,2.9-6.7,6.5C251.9,290.5,254.9,293.4,258.7,293.4z M267,295.5c-2.2-0.4-3.7-2.9-3.7-5.1c-0.1,0.3-0.2,0.6-0.3,0.9
				c-0.4,2.4,1.2,4.7,3.6,5.2c2.4,0.4,4.8-1.2,5.2-3.6c0-0.2,0-0.5,0.1-0.7C271.1,294.1,269.1,295.8,267,295.5z M289.5,289.1
				c-0.1-0.5-0.2-1.1-0.5-1.5c0,0.1,0.1,0.2,0.1,0.3c0.6,4.1-2.7,8-7.5,8.7c-4.8,0.8-9.2-1.9-9.8-6c0-0.1,0-0.2,0-0.3
				c-0.1,0.5-0.1,1.1,0,1.6c0.6,4.1,5.1,6.7,10,6C286.6,297.1,290.1,293.2,289.5,289.1z M293.5,294.1c-1.4-0.2-2.5-1-3.3-2
				c0.7,1.3,1.9,2.3,3.4,2.5c2.1,0.4,4.2-0.7,5.1-2.5C297.5,293.6,295.6,294.4,293.5,294.1z M263.3,274.9c0.5,0,1,0.1,1.5,0.2
				c-0.7-0.5-1.6-0.9-2.6-0.9c-2.5,0-4.5,2-4.5,4.4c0,0.2,0,0.5,0.1,0.7C258.3,276.8,260.6,274.9,263.3,274.9z M304.7,284.4
				c3.4,1.2,5.7,3.4,5.3,5.5c-0.4,2.8-5.2,4.5-10.7,3.7c0,0,0,0,0,0c0.8,0.3,1.7,0.5,2.7,0.6c4.7,0.6,8.8-1.1,9.2-3.9
				C311.6,287.8,308.7,285.2,304.7,284.4z M272.6,290.4c-0.3-1.7,0.2-3.4,1.3-4.8c-1.9,1.6-2.9,3.8-2.5,6.1c0.6,3.8,4.8,6.3,9.4,5.6
				c1.5-0.2,2.9-0.8,4-1.6c-0.6,0.2-1.3,0.4-2,0.5C277.7,296.9,273.2,294.3,272.6,290.4z"/>
		</g>
	</g>
</g>
<g>
	<g>
		<linearGradient id="SVGID_31_" gradientUnits="userSpaceOnUse" x1="759.4241" y1="141.1514" x2="959.6018" y2="141.1514">
			<stop  offset="0" style="stop-color:#FFFFFF;stop-opacity:0"/>
			<stop  offset="4.017906e-002" style="stop-color:#FDEBEE;stop-opacity:4.051906e-002"/>
			<stop  offset="0.1257" style="stop-color:#FAC6CE;stop-opacity:0.1267"/>
			<stop  offset="0.2187" style="stop-color:#F7A7B2;stop-opacity:0.2205"/>
			<stop  offset="0.3192" style="stop-color:#F58D9C;stop-opacity:0.3219"/>
			<stop  offset="0.4302" style="stop-color:#F3798A;stop-opacity:0.4338"/>
			<stop  offset="0.5573" style="stop-color:#F26C7E;stop-opacity:0.562"/>
			<stop  offset="0.7143" style="stop-color:#F16377;stop-opacity:0.7204"/>
			<stop  offset="0.9916" style="stop-color:#F16175"/>
		</linearGradient>
		<rect x="759.4" y="128.8" class="st38" width="200.2" height="24.7"/>
		<g>
			<g>
				<path class="st6" d="M899.6,145.7c-4.3,0-5.9-2-5.9-5.1c0-2.9,1.8-5.5,5.8-5.5c2.6,0,4.6,0.8,4.6,0.8v7.6h2.2v2.3H899.6z
					 M896,132.2c0-0.8,0.6-1.5,1.5-1.5c0.8,0,1.5,0.7,1.5,1.5c0,0.8-0.6,1.5-1.5,1.5C896.7,133.7,896,133,896,132.2z M901.4,137.8
					c0,0-0.8-0.4-2.1-0.4c-1.7,0-2.6,1.3-2.6,3c0,2,1,3.1,3.3,3.1h1.4V137.8z M899.7,132.2c0-0.8,0.6-1.5,1.5-1.5
					c0.8,0,1.5,0.7,1.5,1.5c0,0.8-0.6,1.5-1.5,1.5C900.3,133.7,899.7,133,899.7,132.2z"/>
				<path class="st6" d="M906,143.4h4.1v-8.1h2.9v10.3h-7V143.4z M907.9,150.5c-0.8,0-1.5-0.7-1.5-1.5c0-0.8,0.6-1.5,1.5-1.5
					c0.8,0,1.5,0.7,1.5,1.5C909.3,149.8,908.7,150.5,907.9,150.5z M911.5,150.5c-0.8,0-1.5-0.7-1.5-1.5c0-0.8,0.6-1.5,1.5-1.5
					c0.8,0,1.5,0.7,1.5,1.5C913,149.8,912.3,150.5,911.5,150.5z"/>
				<path class="st6" d="M913.2,151.1l0.2-2.3c0.5,0.2,1.1,0.3,1.8,0.3c1.5,0,2.4-0.7,2.4-3.1v-10.6h2.9v8.1h2.2v2.3h-2.2v0.1
					c0,2.8-0.9,5.5-5.4,5.5C914.3,151.3,913.7,151.2,913.2,151.1z"/>
				<path class="st6" d="M922.3,145.7v-2.3h1.9c0.6,0,1,0.1,1,0.1s-0.6-0.6-0.6-1.5c0-2.1,1.5-3.7,4.2-3.7c2.9,0,4,2,4,4.5v0.6h2.3
					v-0.3c0-4.6-1.8-6.8-6.2-6.8c-1.5,0-3.3,0.4-4.7,0.8l-0.3-2c1.6-0.5,3.6-0.9,5.3-0.9c5.5,0,8.6,2.6,8.6,9.1v0.1h1.6v2.3H922.3z
					 M930.4,142.8c0-1.6-0.6-2.7-1.9-2.7c-1,0-1.6,0.7-1.6,1.6c0,1.1,0.9,1.8,2.1,1.8h1.4V142.8z"/>
				<path class="st6" d="M939.1,143.4h8.5c0.1-0.5,0.1-1.1,0.1-1.7c0-2.8-1.1-4.2-4.3-4.2c-0.9,0-1.7,0.1-2.5,0.2v-2.3
					c0.9-0.1,1.9-0.2,2.8-0.2c5,0,6.9,2.2,6.9,6.4c0,1.1-0.1,2.5-0.4,4.1h-11.1V143.4z M942.8,149c0-0.8,0.7-1.5,1.5-1.5
					s1.5,0.7,1.5,1.5c0,0.8-0.7,1.5-1.5,1.5S942.8,149.9,942.8,149z"/>
			</g>
		</g>
		<g>
			<path class="st1" d="M729.4,133.2c0.1,0.4,0.2,0.8,0.2,1.1c0,0.9-0.6,1.7-1.9,2.2l-4.9,1.9c-1.5,0.6-2.8,1.1-2.8,2
				c0,0.1,0,0.1,0,0.2l-0.2,0.1c-0.1-0.4-0.2-0.8-0.2-1.1c0-0.9,0.5-1.7,1.9-2.3l4.9-1.9c1.7-0.7,2.8-1.1,2.8-2.2L729.4,133.2z"/>
			<path class="st1" d="M735.6,123.5v3.3h-12.2c-4.1,0-5.6-2-5.8-5h0.4c0.4,1.4,1.1,1.7,5.9,1.8h0.4c-1.9-1.7-2.8-3.9-2.8-6.4l0.1-1
				c0-1.6,1.3-2.9,3-2.9h10.5v3.1h-10.4v0.9c0,3.5,2.7,5.9,6.5,6.3H735.6z"/>
			<path class="st1" d="M744.4,116.5c0,4.1,3,7.1,6.7,7.1h1.4v3.3h-1.4c-5.5,0-10-5.2-10-10.3V95.3c0-4.2,2.1-5.8,5.4-5.9v0.5
				c-1.7,0.2-2.1,2.8-2.1,5.6c0,0.6,0,1.2,0,1.9v18V116.5z"/>
			<path class="st1" d="M789.8,117.6c0,3.3,2.5,5.9,6,5.9v3.3c-3.3,0-6-1.5-7.7-4.1c-1.5,2.4-4.4,4.1-7.5,4.1
				c-3.2,0-6.2-1.8-7.8-4.3c-1.7,2.6-4.2,4.3-7.9,4.3c-2.4,0-4.4-0.8-6.2-2.2c-1,1.7-2.2,2.1-3,2.2h-3.5v-3.3h2.4
				c0.5,0,0.9-0.4,1.1-1.1v-17.3h3.3v12c0,3.6,2.8,6.4,6,6.4c3.3,0,5.8-2.4,5.9-5.9v-12.6h3.3v11.6c0,3.7,2.7,6.8,6,6.8
				c3.2,0,6.2-2.2,6.2-5.9v-7.4c0-4.9,2.6-5.8,5.1-5.9v0.6c-1.8,0.3-1.8,3.6-1.8,7V117.6z M769.6,100.2l-2.8-2.8l2.8-2.9l2.9,2.9
				L769.6,100.2z M772.5,96.6l-2.8-2.8l2.8-2.9l2.8,2.9L772.5,96.6z M775.3,100.2l-2.8-2.8l2.8-2.9l2.8,2.9L775.3,100.2z"/>
			<path class="st1" d="M811.5,133.7c0.1,0.4,0.2,0.8,0.2,1.1c0,0.9-0.6,1.7-1.9,2.2l-4.9,1.9c-1.5,0.6-2.8,1.1-2.8,2
				c0,0.1,0,0.1,0,0.2l-0.2,0.1c-0.1-0.4-0.2-0.8-0.2-1.1c0-0.9,0.5-1.7,1.9-2.3l4.9-1.9c1.7-0.7,2.8-1.1,2.8-2.2L811.5,133.7z"/>
			<path class="st1" d="M825.4,126.8h-29.6v-3.3h4.6c-1.7-1.7-2.5-4.1-2.5-6.3c0-5.1,4.5-9.6,9.7-9.6h6.9c3.4,0,6.8,0,7-2.2h0.5
				c0,3.4-1.9,5.4-5.8,5.4h-8.2c-4.2,0-7.1,2.7-7.1,6.4s2.8,6.2,6.7,6.3h17.9V126.8z"/>
			<path class="st1" d="M835.3,81.1c0.3-0.2,0.7-0.3,1.1-0.3V81c-0.7,0.1-0.7,1.2-0.7,2.4v2c0,1.7-1.4,3.1-3.1,3.1
				c-1.9,0-3.4-1.1-3.4-2.8v-1.2c0-1.8,1.6-3.4,3.4-3.4H835.3z M832.7,82.2c-1.4,0-2.5,1-2.5,2.3v1.2c0,0.9,1,1.7,2.3,1.7
				c1,0,2.1-0.9,2.1-2.1v-2.5c0-0.2,0-0.5,0.1-0.6H832.7z"/>
			<path class="st1" d="M829,88.7c3.1,0.1,5.3,1.7,5.3,6v21.6c0,4-2.5,7.9-6,9.6c-1.2,0.6-2.2,0.9-3,0.9v-3.3
				c2.4-0.2,5.8-2.8,5.8-7.3v-20c0-3.5,0-7-2.1-7.2V88.7z"/>
			<path class="st1" d="M841.7,96.8c0-5.7-0.2-7.3-2-7.5v-0.4c3.5,0.1,5.2,2.2,5.2,6.2v31.8h-3.3V96.8z"/>
			<path class="st1" d="M868.8,81.2c-1.3,2.3-3.3,3.5-5.2,3.5c-1.4,0-2.8-0.7-3.7-1.8l0.1-0.1c0.7,0.9,1.8,1.4,3,1.4
				c1.7,0,3.6-1,4.9-3.4l0.3-0.6c-0.2,0-0.4,0.1-0.6,0.1c-1.8,0-3.1-1.7-3.1-3.1c0-0.4,0.1-0.8,0.3-1.1l0.6-1c0.6-1,1.7-1.6,2.8-1.6
				c0.5,0,1,0.1,1.5,0.4l-0.4,0.9c-0.4-0.2-0.8-0.3-1.2-0.3c-0.8,0-1.5,0.4-1.9,1.1l-0.5,1c-0.1,0.2-0.2,0.4-0.2,0.6
				c0,0.8,0.8,2,2.1,2c0.5,0,0.9-0.2,1.3-0.5l1.7-3.1l-1.4-0.8l0.4-0.9L872,75c0.3,0,0.7,0.1,1,0.3l-0.1,0.1c-0.1,0-0.2,0-0.2,0
				c-0.5,0-0.9,0.9-1.4,1.7l-0.9,1.6L868.8,81.2z"/>
			<path class="st1" d="M878.3,104.6c0.8-0.5,1.9-0.7,3.1-0.8v0.5c-2.1,0.3-2.1,3.7-2.1,7.2v6c0,5.2-4.3,9.3-9.4,9.3
				c-5.4,0-10.2-3.6-10.2-8.3v-3.6c0-5.5,4.8-10.3,10.3-10.3H878.3z M870.6,107.8c-4.3,0-7.4,3.2-7.4,7v3.6c0,2.6,2.9,5.1,6.8,5.1
				c3.3,0,6.2-2.8,6.2-6.1v-7.6c0-0.9,0-1.4,0.3-2H870.6z M866.2,100.3l-2.9-2.9l2.9-2.8l2.9,2.8L866.2,100.3z M872,100.3l-2.9-2.9
				l2.9-2.8l2.9,2.8L872,100.3z"/>
			<path class="st1" d="M917.1,126.8c-3.4,0-6.6-1.6-8.3-4.5c-1,2-4.5,4.5-8,4.5h-17.1v-3.3h10.9v-13.1c0-3.7-0.2-7.2-2.2-7.5v-0.5
				c3.4,0.2,5.5,1.8,5.5,6.2v14.9h2.9c3.8,0,6.8-3.3,6.8-7.7V95.2c0-3.8-0.1-7.1-2.1-7.4v-0.5c3.3,0.1,5.4,1.8,5.4,6.1v24.7
				c0.3,3.3,2.8,5.2,6.2,5.5V126.8z"/>
			<path class="st1" d="M950.5,92.9c0.1,0.4,0.2,0.8,0.2,1.1c0,0.9-0.6,1.7-1.9,2.2l-4.9,1.9c-1.5,0.6-2.8,1.1-2.8,2
				c0,0.1,0,0.1,0,0.2l-0.2,0.1c-0.1-0.4-0.2-0.8-0.2-1.1c0-0.9,0.5-1.7,1.9-2.3l4.9-1.9c1.7-0.7,2.8-1.1,2.8-2.2L950.5,92.9z"/>
			<path class="st1" d="M959.6,126.8H917v-3.3h2.8c0.6-0.3,0.9-1.1,0.9-2.5c0-3.4-0.8-6.6-3.2-8.8l0.4-0.3c2.2,2.1,3.7,4.7,4.4,7.3
				c0.7-8.2,8.8-14.5,19.3-14.5h6.9c6.1,0.5,11.2,6.1,11.1,12.4V126.8z M956.3,123.5V117c0-3.8-1.7-6.5-5.1-8.1
				c-1.4-0.6-3.3-0.9-6.2-0.9h-3.4c-11.1,0-18.8,6.2-18.8,14.5v1H956.3z"/>
		</g>
	</g>
</g>
</svg>
