<?xml version="1.0" encoding="utf-8"?>
<!-- Generator: Adobe Illustrator 19.2.0, SVG Export Plug-In . SVG Version: 6.00 Build 0)  -->
<svg version="1.1" id="Layer_1" xmlns="http://www.w3.org/2000/svg" xmlns:xlink="http://www.w3.org/1999/xlink" x="0px" y="0px"
	 viewBox="0 0 1024 768" style="enable-background:new 0 0 1024 768;" xml:space="preserve">
<style type="text/css">
	.st0{fill:url(#SVGID_1_);}
	.st1{fill:#622872;}
	.st2{fill:url(#SVGID_2_);}
	.st3{fill:#CA4977;}
	.st4{fill-rule:evenodd;clip-rule:evenodd;fill:#F6DFB4;}
	.st5{fill:#D2D3D4;}
	.st6{fill:#FFFFFF;}
	.st7{fill:#205B6A;}
	.st8{fill:url(#SVGID_3_);}
	.st9{fill:url(#SVGID_4_);}
	.st10{fill:url(#SVGID_5_);}
	.st11{fill:url(#SVGID_6_);}
	.st12{fill:url(#SVGID_7_);}
	.st13{fill:url(#SVGID_8_);}
	.st14{fill:url(#SVGID_9_);}
	.st15{fill:url(#SVGID_10_);}
	.st16{fill:url(#SVGID_11_);}
	.st17{fill:url(#SVGID_12_);}
	.st18{fill:url(#SVGID_13_);}
	.st19{fill:url(#SVGID_14_);}
	.st20{fill:url(#SVGID_15_);}
	.st21{fill:url(#SVGID_16_);}
	.st22{fill:url(#SVGID_17_);}
	.st23{fill:url(#SVGID_18_);}
	.st24{fill:url(#SVGID_19_);}
	.st25{fill:url(#SVGID_20_);}
	.st26{fill:url(#SVGID_21_);}
	.st27{fill:url(#SVGID_22_);}
	.st28{fill:url(#SVGID_23_);}
	.st29{fill:url(#SVGID_24_);}
	.st30{fill:url(#SVGID_25_);}
	.st31{fill:url(#SVGID_26_);}
	.st32{fill:url(#SVGID_27_);}
	.st33{fill:url(#SVGID_28_);}
	.st34{fill:#2B3C90;}
	.st35{fill:url(#SVGID_29_);}
	.st36{fill:#1D1A45;}
	.st37{fill:url(#SVGID_30_);}
	.st38{fill:url(#SVGID_31_);}
</style>
<g>
	<g>
		<g>
			<g>
				<linearGradient id="SVGID_1_" gradientUnits="userSpaceOnUse" x1="244.4263" y1="138.1426" x2="244.4263" y2="721.1336">
					<stop  offset="0" style="stop-color:#1F1A46"/>
					<stop  offset="0.1599" style="stop-color:#211E4C"/>
					<stop  offset="0.4318" style="stop-color:#26265D"/>
					<stop  offset="0.7806" style="stop-color:#2B337A"/>
					<stop  offset="0.9949" style="stop-color:#2B3C90"/>
				</linearGradient>
				<path class="st0" d="M394.7,266.9h-6.1c-1.8-28.2-25.9-59.6-71.7-93.4c-35-25.9-70.5-43.7-70.9-43.9c-1-0.5-2.2-0.5-3.1,0
					c-0.3,0.2-35.9,18-70.9,43.9c-45.7,33.8-69.8,65.2-71.7,93.4h-6.1c-1.9,0-3.5,1.6-3.5,3.5v360.2h307.5V270.4
					C398.2,268.5,396.6,266.9,394.7,266.9z"/>
			</g>
		</g>
	</g>
</g>
<g>
	<path class="st1" d="M734,213.5c0-0.8,0.7-1.5,1.5-1.5c0.8,0,1.5,0.7,1.5,1.5c0,0.8-0.7,1.5-1.5,1.5C734.7,215,734,214.4,734,213.5
		z M734,221c0-0.8,0.7-1.5,1.5-1.5c0.8,0,1.5,0.7,1.5,1.5c0,0.8-0.7,1.5-1.5,1.5C734.7,222.5,734,221.8,734,221z"/>
	<path class="st1" d="M750.1,200.9l5.7-1.1v1.2l-5.7,1.1V200.9z M750.1,203.4l5.7-1.1v1.2l-5.7,1.1V203.4z"/>
	<path class="st1" d="M757.7,221c0,0.4-0.2,1.2-1.5,1.2c-2.1,0-3.7-0.6-4.1-2.9c-1.8,2.2-4.4,3-7.2,3l-0.8-1.7l0.1-0.1
		c2.3,0,4.3-0.5,5.9-1.6c-1.3-2.5-3.4-4.6-6.1-7.1l0.7-1.9l0.2-0.1c3,2.7,5.4,6.1,6.4,8.1c0.3-0.3,0.5-0.6,0.7-1v-10.7l1.7-0.4
		l0.1,0.1v12.1c0,1.9,0.8,2.3,2.8,2.3C757.5,220.4,757.7,220.6,757.7,221z"/>
	<path class="st1" d="M760.7,214.2c0.7,1.7,1.2,3.3,1.2,4.3c0,1-0.4,2.2-1.2,2.9c-0.6,0.6-1.6,0.8-3.8,0.8h-0.7l0.5-1.9h0.7
		c1.2,0,2.1-0.1,2.5-0.3c0.5-1.2-0.2-2.9-1-4.7l1.5-1.2H760.7z M757.3,210.4c0.4,0,0.8,0,1.2,0c-0.3-0.4-0.5-1-0.5-1.5
		c0-1.3,0.8-2.1,2.2-2.1c0.6,0,1.2,0.1,1.8,0.4l-0.4,1.4c-0.5-0.2-0.9-0.3-1.2-0.3c-0.7,0-1,0.5-1,1c0,0.4,0.2,0.8,0.5,1.1
		c0.8,0,1.7-0.1,2.4-0.2l0.1,1.3c-1.3,0.2-3,0.3-5,0.4L757.3,210.4z"/>
	<path class="st1" d="M764.9,218.3v-12l1.7-0.4l0.1,0.1v12.1c0,1.9,0.8,2.3,2.8,2.3c0.8,0,1,0.3,1,0.6c0,0.4-0.2,1.2-1.5,1.2
		C766.7,222.2,764.9,221.4,764.9,218.3z"/>
	<path class="st1" d="M778.1,217c0,2.3-0.4,3.6-1.5,4.4c-1.3,0.7-3.1,0.8-7.6,0.8l0.5-1.9c4.6,0,6.1-0.2,6.8-0.5
		c0.1-0.3,0.1-0.8,0.2-1.5c-0.7,0.2-1.6,0.3-2.5,0.3c-2.1,0-3.1-1.1-3.1-2.8c0-2.2,1.6-4.6,3.5-4.6
		C776.7,211.3,778.1,214.1,778.1,217z M773.1,208.7l-1.9-1.4l1.2-1.8l1.9,1.3L773.1,208.7z M774.4,216.8c0.8,0,1.5-0.1,2.2-0.2
		c-0.1-1.7-1.1-3.5-2.2-3.5c-0.9,0-1.9,1.2-1.9,2.5C772.5,216.5,773.2,216.8,774.4,216.8z M776.4,208.7l-1.9-1.4l1.2-1.8l1.9,1.3
		L776.4,208.7z"/>
	<path class="st1" d="M790.9,236.1l5.7-1.1v1.2l-5.7,1.1V236.1z"/>
	<path class="st1" d="M799.4,231.2c-1.6,0.6-3.5,1.1-5.6,1.1c-4.5,0-7.6-2.1-7.6-5.5c0-2,1.1-3.6,3.3-5c-1.5-1.2-2.3-2.9-2.3-4.4
		c0-2.5,2-4,4.6-4c1.2,0,2.4,0.4,3.2,0.8l-0.2,1.7l-0.1,0c-0.9-0.4-1.9-0.6-2.9-0.6c-1.6,0-2.6,0.7-2.6,2.1c0,1.1,0.6,2.5,1.9,3.4
		c1.3-0.6,2.8-1.2,4.6-1.7l0.1,0l-0.1,1.9c-4.8,1.4-7.7,2.8-7.7,5.4c0,2.5,2.4,4,6.4,4c1.5,0,3.1-0.2,4.5-0.7l0.2,0.1L799.4,231.2z"
		/>
	<path class="st1" d="M809.7,221c0,0.4-0.2,1.2-1.5,1.2h-1.8c-0.8,2.3-3,4.1-7,4.2l-1-1.4l0.1-0.2c3-0.1,5.2-1.1,6.1-2.7H804
		c-3,0-4.4-1.2-4.4-3.1c0-2.2,1.6-4.7,3.5-4.7c2.2,0,3.6,2.7,3.6,5.7v0.1h1.9C809.5,220.4,809.7,220.6,809.7,221z M805.2,220.4v-0.1
		c0-2.1-1.1-3.8-2.2-3.8c-0.9,0-1.9,1-1.9,2.6c0,0.9,0.8,1.4,3.1,1.4H805.2z"/>
	<path class="st1" d="M817.7,209.1l-6.2,3.5c4.7,3.1,5.5,4.8,5.5,6.2c0,1.9-1.7,3.4-6.5,3.4h-2.3l0.5-1.9h1.8c2.5,0,4.5-0.5,5-1
		c0-1.9-2.5-3.6-5.6-5.7l-0.1-0.1l0.5-2.4l7.9-4.5l0.2,0.1L817.7,209.1z"/>
	<path class="st1" d="M828.2,221c0,0.4-0.2,1.2-1.4,1.2c-1,0-1.6-0.3-2-0.6c-0.7,2.2-3.3,4.2-7.2,4.9l-1-1.4l0.1-0.2
		c4.7-0.9,6.4-2.8,6.8-4.6c-0.4-1.1-1.1-2.6-1.8-4l1.4-1.5h0.2c0.6,1.7,1.2,3.1,1.4,3.7c0.6,1.6,1,1.9,2.5,1.9
		C828.1,220.4,828.2,220.6,828.2,221z"/>
	<path class="st1" d="M827.3,220.4c0.8,0,1.7,0,2.3-0.5c0.1-0.4,0.2-1,0.2-1.9v-11.7l1.7-0.4l0.2,0.1v11.9c0,3.5-1.8,4.4-4.8,4.4
		L827.3,220.4z"/>
	<path class="st1" d="M834.7,222.3v-16l1.8-0.5l0.1,0.1l0,16.1l-1.7,0.4L834.7,222.3z"/>
	<path class="st1" d="M861,221c0,0.4-0.2,1.2-1.5,1.2c-0.6,0-1.4-0.2-1.9-0.6c-0.5,3.4-3.3,5.1-6.9,5.1c-3.7,0-5.7-2.1-5.7-4.9
		c0-1,0.2-2.1,0.4-2.7l1.5-0.5l0.2,0.1c-0.2,0.8-0.2,1.6-0.2,2.2c0,2.4,0.9,4,4.2,4c2.7,0,3.9-1,4.6-1.8c0.8-1.8,0-3.6-1-6l1.7-1.2
		h0.1c0.3,0.8,0.7,2.3,1.2,3.2c0.5,1,1.2,1.4,2.2,1.4C860.7,220.4,861,220.6,861,221z M851.3,214.7l-2-1.4l1.2-1.8l2,1.3
		L851.3,214.7z"/>
	<path class="st1" d="M870.4,219.9c0,1.6-0.8,2.6-2.4,2.6c-1.2,0-3.1-0.6-4.8-1.8c-0.9,1.2-2,1.5-3.6,1.5l0.5-1.9
		c1.1,0,1.6-0.5,2.2-1.5c0.8-1.5,2-4.3,4.3-4.3S870.4,217.2,870.4,219.9z M866.4,216.4c-0.9,0-1.4,1.1-2.4,2.9
		c1.4,0.9,2.8,1.4,3.5,1.4c0.4,0,0.8-0.1,1-0.3C868.8,219.2,867.7,216.4,866.4,216.4z"/>
	<path class="st1" d="M878.6,221.7c0-1,0.2-2.1,0.4-2.7l1.5-0.5l0.2,0.1c-0.2,0.8-0.2,1.6-0.2,2.2c0,2.4,0.9,4,4.2,4
		c2,0,3.4-0.5,4.4-1.7c0.3-0.6,0.6-1.8,0.6-3.7v-13.1l1.7-0.4l0.2,0.1l0,13.2c0,5.4-2.5,7.5-7.2,7.5
		C880.5,226.7,878.6,224.6,878.6,221.7z"/>
	<path class="st1" d="M905.6,221c0,0.4-0.2,1.2-1.5,1.2c-1.1,0-1.9-0.3-2.5-1.3c-0.9,0.9-2.6,1.4-4.9,1.4c-0.5,0-1.9-0.1-2.8-0.3
		l0.3-1.8l0.1-0.1c0.8,0.2,2.1,0.2,2.6,0.2c1.5,0,3.1-0.3,3.9-0.9l-0.1-0.1c-0.4-0.8-2.2-4.3-3.2-6l1.4-1.5h0.2
		c0.7,1.5,2.4,5.4,2.8,6c0.9,1.9,1.4,2.3,2.7,2.3C905.4,220.4,905.6,220.6,905.6,221z"/>
	<path class="st1" d="M913.7,221c0,0.4-0.2,1.2-1.4,1.2c-1.5,0-2.9-0.3-3.9-1.2c-0.8,0.8-1.8,1.2-3.3,1.2h-0.8l0.5-1.9h0.7
		c0.7,0,1.4-0.1,1.8-0.5c0.3-0.5,0.7-1.6,1.2-3.6l1.8-0.5l0.2,0.1c-0.3,1.5-0.7,2.7-1.1,3.7c0.6,0.3,1.5,0.7,3.4,0.7
		C913.5,220.4,913.7,220.6,913.7,221z M908,213.1l-1.9-1.4l1.2-1.8l1.9,1.3L908,213.1z M911.4,213.1l-1.9-1.4l1.2-1.8l1.9,1.3
		L911.4,213.1z"/>
	<path class="st1" d="M923.6,219.9l-0.6,1.7c-1.9,0.4-4.7,0.6-10.8,0.6l0.5-1.9c0.9,0,1.8,0,2.7,0c-0.6-0.9-1-2-1-3.1
		c0-2.5,2-4,4.6-4c1.2,0,2.4,0.4,3.2,0.8l-0.2,1.7l-0.1,0c-0.9-0.4-1.9-0.6-2.9-0.6c-1.6,0-2.6,0.8-2.6,2.1c0,0.9,0.5,2.1,1.4,3
		c2.1-0.1,3.9-0.2,5.6-0.4L923.6,219.9z"/>
	<path class="st1" d="M929.5,204c-1.2,0.1-2.7,0.3-4.6,0.3l-0.1-1.3c0.3,0,0.7,0,1.1,0c-0.3-0.4-0.4-0.9-0.4-1.4
		c0-1.2,0.7-1.9,2-1.9c0.5,0,1.1,0.1,1.7,0.3l-0.3,1.2c-0.5-0.1-0.8-0.2-1.1-0.2c-0.6,0-0.9,0.4-0.9,0.9c0,0.4,0.2,0.7,0.5,1
		c0.8,0,1.5-0.1,2.2-0.2L929.5,204z M928.1,205.8l0.1,0.1l0,16.1l-1.7,0.4l-0.1-0.1v-16L928.1,205.8z"/>
</g>
<linearGradient id="SVGID_2_" gradientUnits="userSpaceOnUse" x1="504.701" y1="354.5948" x2="1023.2411" y2="354.5948">
	<stop  offset="0.1199" style="stop-color:#FFFFFF"/>
	<stop  offset="0.9969" style="stop-color:#FFF2D5"/>
</linearGradient>
<rect x="504.7" y="285.6" class="st2" width="518.5" height="138"/>
<g>
	<g>
		<path class="st3" d="M648.2,332.3c0-1.5,1.3-2.8,2.9-2.8c1.5,0,2.9,1.3,2.9,2.8c0,1.6-1.4,2.9-2.9,2.9
			C649.5,335.2,648.2,333.9,648.2,332.3z"/>
		<path class="st3" d="M655.6,332.3c0-1.5,1.3-2.8,2.9-2.8c1.5,0,2.9,1.3,2.9,2.8c0,1.6-1.4,2.9-2.9,2.9
			C657,335.2,655.6,333.9,655.6,332.3z"/>
		<path class="st3" d="M675.9,328.9c0,3.7-2.5,6.1-6.4,6.1c-3.8,0-6-1.8-6-5.1c0-1.8,0.8-3.9,3.5-7.2c-0.3-0.3-0.7-0.5-1-0.8
			l2.2-3.7l0.4-0.3C674,322.6,675.9,325.8,675.9,328.9z M672,328.7c0-1.1-0.9-2.4-2.4-3.9c-1.6,1.5-2.2,2.8-2.2,3.9
			c0,1.1,0.9,1.8,2.3,1.8C671.2,330.5,672,329.8,672,328.7z"/>
		<path class="st3" d="M697.5,331.7c0,1.7-0.6,3.1-2.4,3.1c-2.3,0-3.8-0.4-4.8-1.7c-1.7,1.3-4.4,2-7.5,2c-0.9,0-2.9-0.1-4.2-0.4
			l0.6-4.4l0.3-0.1c1.2,0.2,2.8,0.3,3.7,0.3c1.7,0,3.8-0.2,5.2-0.8c-0.8-1.5-2.7-5.3-4.2-8.1l3.2-3.7h0.4c0.9,2.2,3.3,7.8,3.8,9
			c1.3,3,2,3.4,4.4,3.4C697.2,330.2,697.5,330.9,697.5,331.7z"/>
		<path class="st3" d="M716.7,331.7c0,1.8-0.8,3.1-2.5,3.1c-1.5,0-2.7-0.4-3.7-1.3c-0.7,1.1-1.7,1.7-3.1,1.7c-1.5,0-4-0.8-6.4-2.5
			c-1.4,1.8-3.3,2-6,2l1-4.5c1.6,0,2.1-0.3,2.9-1.7c2-3.4,3.7-6.6,6.7-6.6c2.7,0,4,2.4,5.5,5.4c1.2,2.3,1.8,2.9,4,2.9
			C716.3,330.2,716.7,330.8,716.7,331.7z M708.5,330.3l-0.1-0.2c-1.1-2.6-2.1-3.9-2.8-3.9c-0.8,0-1.7,1.3-2.6,3.1
			c1.4,0.9,2.8,1.6,3.9,1.6C707.6,330.9,708.1,330.7,708.5,330.3z"/>
		<path class="st3" d="M735.3,325.8l-1.2,4.3c-2.5,0.3-5.9,1.1-9.6,2.4c-5,1.7-7.5,2.2-10.2,2.2l1-4.5c2.8,0,4.8-0.2,9.4-1.4
			c1.5-0.4,2.7-0.7,3.7-1c-0.5-0.2-1.1-0.5-1.7-0.8c-2.8-1.5-4.4-2-5.9-2c-1.6,0-2.9,0.3-4.1,0.7l-0.2-0.2l1.6-4
			c0.8-0.4,2.1-0.8,3.3-0.8c1.6,0,3.1,0.6,6.7,2.4C731.9,325.2,733.6,325.7,735.3,325.8z"/>
		<path class="st3" d="M770.1,331.7c0,1.7-0.5,3.1-2.4,3.1c-0.9,0-1.7-0.3-2.3-0.6c-1.3,5-5.5,7.3-11,7.3c-5.6,0-8.7-3-8.7-7.5
			c0-1.7,0.4-3.4,0.7-4.4l3.2-1.2l0.4,0.1c-0.2,1.3-0.3,2.4-0.3,3.4c0,3,1.3,5.1,5.6,5.1c3.2,0,5.3-1.2,6.2-2.5
			c0.4-2.2-0.7-4.9-2.1-7.8l3.9-2.8h0.2c0.3,0.8,1.3,3.9,1.7,4.8c0.5,1.2,1.5,1.6,3.3,1.6C769.7,330.2,770.1,330.9,770.1,331.7z
			 M755.5,323.3l-3.9-2.7l2.4-3.5l3.8,2.7L755.5,323.3z"/>
		<path class="st3" d="M789.3,331.7c0,1.8-0.8,3.1-2.5,3.1c-1.5,0-2.7-0.4-3.7-1.3c-0.7,1.1-1.7,1.7-3.1,1.7c-1.5,0-4-0.8-6.4-2.5
			c-1.4,1.8-3.3,2-6,2l1-4.5c1.6,0,2.1-0.3,2.9-1.7c2-3.4,3.7-6.6,6.7-6.6c2.7,0,4,2.4,5.5,5.4c1.2,2.3,1.8,2.9,4,2.9
			C788.9,330.2,789.3,330.8,789.3,331.7z M781.1,330.3l-0.1-0.2c-1.1-2.6-2.1-3.9-2.8-3.9c-0.8,0-1.7,1.3-2.6,3.1
			c1.4,0.9,2.8,1.6,3.9,1.6C780.3,330.9,780.7,330.7,781.1,330.3z"/>
		<path class="st3" d="M787.9,330.2c1,0,2.2-0.1,2.9-0.5c0.1-0.6,0.3-1.4,0.3-2.7v-16.2l4.2-1.1l0.3,0.2v16.9c0,6.3-3.2,7.8-8.6,7.8
			L787.9,330.2z"/>
		<path class="st3" d="M840.8,309.8l0.3,0.2v16.9c0,6-3,7.7-7.9,7.8H833c0,0-0.1,0-0.1,0h-0.3c-1.3-0.1-3-0.5-4.1-2.1
			c-1.2,1.5-2.9,2-6.1,2.1h-0.2c0,0-0.1,0-0.1,0h-0.2c-2.4-0.1-4.3-0.8-5.4-2.4c-1.2,0.4-2.2,0.6-3.3,0.6c-4,0-6.4-1.9-6.4-4.6
			c0-3,3-6.3,8.6-8.2v-1.7l4.2-1.6l0.3,0.1v10.8c0,1.8,0.6,2.4,3.2,2.5c1,0,2-0.1,2.7-0.5c0.1-0.6,0.3-1.4,0.3-2.7v-12.3l4.2-1.1
			l0.3,0.2v13.1c0,2.7,0.8,3.1,3.3,3.2c1,0,2-0.1,2.7-0.5c0.1-0.6,0.3-1.4,0.3-2.7v-16.2L840.8,309.8z M815.2,328.4v-0.7v-3.4
			c-2.5,0.6-4.5,1.7-5,2.8c0.4,1,1.9,1.5,3.2,1.5C814.1,328.6,814.7,328.5,815.2,328.4z M822.7,308.4c0-0.5,0.1-1.5,0.3-2.1l2.4-0.1
			c-0.1,0.6-0.1,1.2-0.1,1.5c0,0.9,0.3,1.3,0.9,1.3c0.7,0,1-0.5,1-2.6l2.3-0.2c0,0.7,0,1.2,0,1.5c0,0.9,0.4,1.2,1,1.2
			c0.7,0,0.9-0.5,0.9-1.3c0-0.7-0.2-1.4-0.4-2.1l2.5-0.6c0.3,0.9,0.5,1.8,0.5,2.8c0,2.1-1.1,3.7-3.5,3.7c-0.9,0-1.7-0.4-2.1-0.9
			c-0.5,0.6-1.4,0.9-2.4,0.9C823.5,311.6,822.7,310.1,822.7,308.4z M829.8,304.2h-3.2v-4.6h3.2V304.2z M850,310l-0.1,24.1l-4.1,0.9
			l-0.3-0.2v-23.9l4.2-1.1L850,310z"/>
		<path class="st3" d="M865.7,340.7c0,3.1,3.1,4.6,8.2,4.6c2.2,0,5.4-0.4,7.2-0.9l0.3,0.2l-1.3,3.9c-1.9,0.7-4.5,1.2-7.5,1.2
			c-6.9,0-11.3-2.9-11.3-8.4c0-4.7,3.8-8.4,7.6-11.6c-1.5-1.7-3.1-3.2-5-4.1l-0.2-0.4l1.4-4c2-1,4.6-1.5,7.2-1.5
			c2.7,0,5.4,0.6,7.6,1.8l0.1,0.4l-1,3.8c-1.5,1.3-3,2.5-4.4,3.6c2.1,0.6,4.6,0.8,7.5,0.8c1.1,0,1.4,0.6,1.4,1.4
			c0,1.7-0.6,3.1-2.4,3.1c-4.9,0-7.5-0.9-9.7-2.5C867.8,335.5,865.7,338,865.7,340.7z M871.7,327.6c1.3-1.1,2.6-2.1,3.5-3.1
			c-1.2-0.4-2.3-0.5-3.4-0.5c-1.3,0-2.4,0.2-3.5,0.5C869.4,325.2,870.5,326.3,871.7,327.6z"/>
		<path class="st3" d="M902.8,331.7c0,1.8-0.8,3.1-2.5,3.1c-1.5,0-2.7-0.4-3.7-1.3c-0.7,1.1-1.7,1.7-3.1,1.7c-1.5,0-4-0.8-6.4-2.5
			c-1.4,1.8-3.3,2-6,2l1-4.5c1.6,0,2.1-0.3,2.9-1.7c2-3.4,3.7-6.6,6.7-6.6c2.7,0,4,2.4,5.5,5.4c1.2,2.3,1.8,2.9,4,2.9
			C902.4,330.2,902.8,330.8,902.8,331.7z M894.6,330.3l-0.1-0.2c-1.1-2.6-2.1-3.9-2.8-3.9c-0.8,0-1.7,1.3-2.6,3.1
			c1.4,0.9,2.8,1.6,3.9,1.6C893.7,330.9,894.2,330.7,894.6,330.3z"/>
		<path class="st3" d="M928.6,328.4c0,4.3-3.3,6.4-7.8,6.4c-2,0-3.5-0.4-4.8-1c-0.9,0.6-2,1-3.4,1c-2.3,0-4.3-0.8-5.5-1.5
			c-1.4,1.1-3.5,1.5-6.7,1.5l1-4.5c2.3,0,3.3-0.1,4-0.4c0.3-0.6,0.6-2.5,0.9-4l4.9-0.8l0.1,0.1c-0.6,1.8-1.1,3.3-1.6,4.5
			c1,0.3,2.4,0.6,3.6,0.6c0.6,0,1-0.1,1.3-0.3c0.3-0.4,0.7-2.4,1.1-4.1l4.5-0.8l0.1,0.1c-0.5,1.8-1,3.4-1.6,4.7
			c0.9,0.3,1.8,0.4,2.7,0.4c1.3,0,2.5-0.1,3.2-0.5c0.2-1.4-0.9-4-1.8-6l3.9-2.9l0.2,0C927.9,323.5,928.6,326.2,928.6,328.4z"/>
		<path class="st3" d="M750.6,389.7c0,1.7-0.6,3.1-2.4,3.1c-2.3,0-3.8-0.4-4.8-1.7c-1.7,1.3-4.4,2-7.5,2c-0.9,0-2.9-0.1-4.2-0.4
			l0.6-4.4l0.3-0.1c1.2,0.2,2.8,0.3,3.7,0.3c1.7,0,3.8-0.2,5.2-0.8c-0.8-1.5-2.7-5.3-4.2-8.1l3.2-3.7h0.4c0.9,2.2,3.3,7.8,3.8,9
			c1.3,3,2,3.4,4.4,3.4C750.3,388.2,750.6,388.9,750.6,389.7z"/>
		<path class="st3" d="M769.8,389.7c0,1.8-0.8,3.1-2.5,3.1c-1.5,0-2.7-0.4-3.7-1.3c-0.7,1.1-1.7,1.7-3.1,1.7c-1.5,0-4-0.8-6.4-2.5
			c-1.4,1.8-3.3,2-6,2l1-4.5c1.6,0,2.1-0.3,2.9-1.7c2-3.4,3.7-6.6,6.7-6.6c2.7,0,4,2.4,5.5,5.4c1.2,2.3,1.8,2.9,4,2.9
			C769.4,388.2,769.8,388.8,769.8,389.7z M761.6,388.3l-0.1-0.2c-1.1-2.6-2.1-3.9-2.8-3.9c-0.8,0-1.7,1.3-2.6,3.1
			c1.4,0.9,2.8,1.6,3.9,1.6C760.7,388.9,761.2,388.7,761.6,388.3z"/>
		<path class="st3" d="M792.5,389.7c0,1.7-0.5,3.1-2.4,3.1c-5.8,0-7.9-1.4-9.3-4l-1.3,0.6c-5,2.5-8.2,3.3-12.2,3.3l1-4.5
			c3.6,0,5.7-0.4,9.9-1.9c1.2-0.4,2.1-0.7,2.8-1c-0.4-0.1-0.8-0.3-1.2-0.5c-2.9-1.3-4.5-1.8-6-1.8c-1.6,0-2.9,0.3-4.1,0.7l-0.2-0.1
			l1.6-4c0.8-0.4,2.1-0.8,3.3-0.8c1.2,0,2.7,0.4,5.5,1.7c3.8,1.7,6.1,2.3,8.6,2.3l-0.8,4c-1,0-1.9,0.1-3.1,0.5
			c1.2,0.7,3,0.9,6.5,0.9C792.2,388.2,792.5,388.9,792.5,389.7z"/>
		<path class="st3" d="M791.1,388.2c1,0,2.2-0.1,2.9-0.5c0.1-0.6,0.3-1.4,0.3-2.7v-16.2l4.2-1.1l0.3,0.2v16.9c0,6.3-3.2,7.8-8.6,7.8
			L791.1,388.2z"/>
		<path class="st3" d="M803.1,392.8v-23.9l4.2-1.1l0.4,0.2l-0.1,24.1l-4.1,0.9L803.1,392.8z"/>
		<path class="st3" d="M850.7,389.7c0,1.7-0.6,3.1-2.4,3.1c-1.9,0-3.6-0.6-4.7-2c-1.7,1.7-4.6,2.4-9.8,2.4h-2.2
			c-8,0-12.3-2.3-12.3-6.7c0-1.5,0.2-2.9,0.6-4.4l3.2-1.2l0.4,0.2c-0.2,1.1-0.3,2.1-0.3,3c0,3.7,2.9,4.7,9.9,4.7h2
			c2.8,0,5.2-0.5,5.9-0.9c0.1-0.6,0.3-1.4,0.3-2.7v-16.2l4.1-1.1l0.4,0.2v16.1c0,3.1,0.6,4.1,3.5,4.1
			C850.3,388.2,850.7,388.9,850.7,389.7z M829.2,380.1c0.5,0,1.1,0,1.7,0c-0.5-0.7-0.8-1.5-0.8-2.3c0-1.8,1.2-3.1,3.2-3.1
			c0.8,0,1.7,0.2,2.7,0.6l-0.6,2.3c-0.6-0.2-1.2-0.3-1.6-0.3c-0.8,0-1.3,0.3-1.3,1.1c0,0.6,0.3,1.2,0.8,1.6c1.1-0.1,2.2-0.1,3.1-0.3
			l0.2,2.4c-1.8,0.2-4.2,0.4-7.1,0.5L829.2,380.1z"/>
		<path class="st3" d="M849.2,388.2c1,0,2.2-0.1,2.9-0.5c0.1-0.6,0.3-1.4,0.3-2.7v-16.2l4.2-1.1l0.3,0.2v16.9c0,6.3-3.2,7.8-8.6,7.8
			L849.2,388.2z"/>
		<path class="st3" d="M873,389.1c0,4.9-3.8,9.9-11.9,10l-2.2-3.4l0.3-0.4c5-0.1,8.3-1.4,9.6-3.9c-0.9,0.1-1.8,0.2-2.9,0.2
			c-3.3,0-4.9-1.7-4.9-4.3c0-3.3,2.6-7.4,6-7.4C870.7,380,873,384.2,873,389.1z M866.8,387.8c0.9,0,1.7-0.1,2.5-0.2
			c-0.3-1.8-1.3-3.4-2.7-3.4c-1.3,0-2.2,1.4-2.2,2.5C864.4,387.5,865.1,387.8,866.8,387.8z"/>
		<path class="st3" d="M885.2,385.4v-16.5l4.1-1.1l0.4,0.2v17.1c0,2.4,1,3.2,3.6,3.2c1,0,1.4,0.5,1.4,1.4c0,1.8-0.7,3.1-2.4,3.1
			C887.5,392.7,885.2,390.6,885.2,385.4z"/>
		<path class="st3" d="M906.8,389.7c0,1.7-0.6,3.1-2.4,3.1s-4.2-0.6-5.6-1.7c-1.4,1.1-3.2,1.7-5.8,1.7h-0.7l1-4.5h0.6
			c1.4,0,2.4-0.1,2.8-0.5c0.4-0.9,0.8-2.7,1.2-5l4.6-1.1l0.4,0.3c-0.5,2.2-1,4.1-1.7,5.7c1,0.4,2.4,0.7,4.1,0.7
			C906.4,388.2,906.8,388.9,906.8,389.7z M900.7,378.6l-3.9-2.7l2.4-3.5l3.8,2.7L900.7,378.6z"/>
		<path class="st3" d="M905.3,388.2h0.4c1.3,0,2.9-0.1,3.5-0.3c0.2-1.4-0.9-3.8-2.1-6.2l3.6-2.9h0.4c1.2,2.6,2,5.7,2,7.4
			c0,1.9-0.6,3.5-1.9,4.8c-1.2,1.2-2.8,1.6-6.4,1.6h-0.4L905.3,388.2z M906.5,398.9l2.4-3.5l3.8,2.6l-2.4,3.6L906.5,398.9z"/>
		<path class="st3" d="M917.2,395.6l0.3-0.4c4.5-1.4,7.7-3.5,7.7-4.6c-0.1-1.2-1.3-4-2.6-6.2l3.2-3.6h0.4c1.6,3,2.4,6.4,2.4,8.6
			c0,1.8-0.6,3.5-1.3,4.6c-1.3,1.9-3.9,3.9-7.9,4.9L917.2,395.6z"/>
	</g>
</g>
<path class="st4" d="M1023.2,42.8h-11.1v-6.6c0-1.7-1.1-3-2.6-3.5c1.4-1.1,2.3-2.9,2.3-4.8c0-3.4-2.8-6.2-6.2-6.2
	c-1,0-1.9,0.2-2.8,0.7c0.4-1.1,0.5-2.2,0.5-3.4c0-6.2-5-11.2-11.2-11.2c-6.2,0-11.2,5-11.2,11.2c0,1.2,0.2,2.4,0.5,3.4
	c-0.8-0.4-1.8-0.7-2.8-0.7c-3.4,0-6.2,2.8-6.2,6.2c0,1.9,0.9,3.6,2.3,4.8c-1.5,0.4-2.6,1.8-2.6,3.5v6.6h-10h-10v-6.6
	c0-1.7-1.1-3-2.6-3.5c1.4-1.1,2.3-2.9,2.3-4.8c0-3.4-2.8-6.2-6.2-6.2c-1,0-1.9,0.2-2.8,0.7c0.4-1.1,0.5-2.2,0.5-3.4
	c0-6.2-5-11.2-11.2-11.2c-6.2,0-11.2,5-11.2,11.2c0,1.2,0.2,2.4,0.5,3.4c-0.8-0.4-1.8-0.7-2.8-0.7c-3.4,0-6.2,2.8-6.2,6.2
	c0,1.9,0.9,3.6,2.3,4.8c-1.5,0.4-2.6,1.8-2.6,3.5v6.6h-10h-10v-6.6c0-1.7-1.1-3-2.6-3.5c1.4-1.1,2.3-2.9,2.3-4.8
	c0-3.4-2.8-6.2-6.2-6.2c-1,0-1.9,0.2-2.8,0.7c0.4-1.1,0.5-2.2,0.5-3.4c0-6.2-5-11.2-11.2-11.2c-6.2,0-11.2,5-11.2,11.2
	c0,1.2,0.2,2.4,0.5,3.4c-0.8-0.4-1.8-0.7-2.8-0.7c-3.4,0-6.2,2.8-6.2,6.2c0,1.9,0.9,3.6,2.3,4.8c-1.5,0.4-2.6,1.8-2.6,3.5v6.6h-10
	h-10v-6.6c0-1.7-1.1-3-2.6-3.5c1.4-1.1,2.3-2.9,2.3-4.8c0-3.4-2.8-6.2-6.2-6.2c-1,0-1.9,0.2-2.8,0.7c0.4-1.1,0.5-2.2,0.5-3.4
	c0-6.2-5-11.2-11.2-11.2c-6.2,0-11.2,5-11.2,11.2c0,1.2,0.2,2.4,0.5,3.4c-0.8-0.4-1.8-0.7-2.8-0.7c-3.4,0-6.2,2.8-6.2,6.2
	c0,1.9,0.9,3.6,2.3,4.8c-1.5,0.4-2.6,1.8-2.6,3.5v6.6h-10h-10v-6.6c0-1.7-1.1-3-2.6-3.5c1.4-1.1,2.3-2.9,2.3-4.8
	c0-3.4-2.8-6.2-6.2-6.2c-1,0-1.9,0.2-2.8,0.7c0.4-1.1,0.5-2.2,0.5-3.4c0-6.2-5-11.2-11.2-11.2c-6.2,0-11.2,5-11.2,11.2
	c0,1.2,0.2,2.4,0.5,3.4c-0.8-0.4-1.8-0.7-2.8-0.7c-3.4,0-6.2,2.8-6.2,6.2c0,1.9,0.9,3.6,2.3,4.8c-1.5,0.4-2.6,1.8-2.6,3.5v6.6h-10
	h-10v-6.6c0-1.7-1.1-3-2.6-3.5c1.4-1.1,2.3-2.9,2.3-4.8c0-3.4-2.8-6.2-6.2-6.2c-1,0-1.9,0.2-2.8,0.7c0.4-1.1,0.5-2.2,0.5-3.4
	c0-6.2-5-11.2-11.2-11.2c-6.2,0-11.2,5-11.2,11.2c0,1.2,0.2,2.4,0.5,3.4c-0.8-0.4-1.8-0.7-2.8-0.7c-3.4,0-6.2,2.8-6.2,6.2
	c0,1.9,0.9,3.6,2.3,4.8c-1.5,0.4-2.6,1.8-2.6,3.5v6.6h-10h-10v-6.6c0-1.7-1.1-3-2.6-3.5c1.4-1.1,2.3-2.9,2.3-4.8
	c0-3.4-2.8-6.2-6.2-6.2c-1,0-1.9,0.2-2.8,0.7c0.4-1.1,0.5-2.2,0.5-3.4c0-6.2-5-11.2-11.2-11.2c-6.2,0-11.2,5-11.2,11.2
	c0,1.2,0.2,2.4,0.5,3.4c-0.8-0.4-1.8-0.7-2.8-0.7c-3.4,0-6.2,2.8-6.2,6.2c0,1.9,0.9,3.6,2.3,4.8c-1.5,0.4-2.6,1.8-2.6,3.5v6.6h-10
	h-10v-6.6c0-1.7-1.1-3-2.6-3.5c1.4-1.1,2.3-2.9,2.3-4.8c0-3.4-2.8-6.2-6.2-6.2c-1,0-1.9,0.2-2.8,0.7c0.4-1.1,0.5-2.2,0.5-3.4
	c0-6.2-5-11.2-11.2-11.2c-6.2,0-11.2,5-11.2,11.2c0,1.2,0.2,2.4,0.5,3.4c-0.8-0.4-1.8-0.7-2.8-0.7c-3.4,0-6.2,2.8-6.2,6.2
	c0,1.9,0.9,3.6,2.3,4.8c-1.5,0.4-2.6,1.8-2.6,3.5v6.6h-10h-10v-6.6c0-1.7-1.1-3-2.6-3.5c1.4-1.1,2.3-2.9,2.3-4.8
	c0-3.4-2.8-6.2-6.2-6.2c-1,0-1.9,0.2-2.8,0.7c0.4-1.1,0.5-2.2,0.5-3.4c0-6.2-5-11.2-11.2-11.2c-6.2,0-11.2,5-11.2,11.2
	c0,1.2,0.2,2.4,0.5,3.4c-0.8-0.4-1.8-0.7-2.8-0.7c-3.4,0-6.2,2.8-6.2,6.2c0,1.9,0.9,3.6,2.3,4.8c-1.5,0.4-2.6,1.8-2.6,3.5v6.6h-10
	h-10v-6.6c0-1.7-1.1-3-2.6-3.5c1.4-1.1,2.3-2.9,2.3-4.8c0-3.4-2.8-6.2-6.2-6.2c-1,0-1.9,0.2-2.8,0.7c0.4-1.1,0.5-2.2,0.5-3.4
	c0-6.2-5-11.2-11.2-11.2c-6.2,0-11.2,5-11.2,11.2c0,1.2,0.2,2.4,0.5,3.4c-0.8-0.4-1.8-0.7-2.8-0.7c-3.4,0-6.2,2.8-6.2,6.2
	c0,1.9,0.9,3.6,2.3,4.8c-1.5,0.4-2.6,1.8-2.6,3.5v6.6h-10h-10v-6.6c0-1.7-1.1-3-2.6-3.5c1.4-1.1,2.3-2.9,2.3-4.8
	c0-3.4-2.8-6.2-6.2-6.2c-1,0-1.9,0.2-2.8,0.7c0.4-1.1,0.5-2.2,0.5-3.4c0-6.2-5-11.2-11.2-11.2c-6.2,0-11.2,5-11.2,11.2
	c0,1.2,0.2,2.4,0.5,3.4c-0.8-0.4-1.8-0.7-2.8-0.7c-3.4,0-6.2,2.8-6.2,6.2c0,1.9,0.9,3.6,2.3,4.8c-1.5,0.4-2.6,1.8-2.6,3.5v6.6h-10
	h-10v-6.6c0-1.7-1.1-3-2.6-3.5c1.4-1.1,2.3-2.9,2.3-4.8c0-3.4-2.8-6.2-6.2-6.2c-1,0-1.9,0.2-2.8,0.7c0.4-1.1,0.5-2.2,0.5-3.4
	c0-6.2-5-11.2-11.2-11.2c-6.2,0-11.2,5-11.2,11.2c0,1.2,0.2,2.4,0.5,3.4c-0.8-0.4-1.8-0.7-2.8-0.7c-3.4,0-6.2,2.8-6.2,6.2
	c0,1.9,0.9,3.6,2.3,4.8c-1.5,0.4-2.6,1.8-2.6,3.5v6.6h-10h-10v-6.6c0-1.7-1.1-3-2.6-3.5c1.4-1.1,2.3-2.9,2.3-4.8
	c0-3.4-2.8-6.2-6.2-6.2c-1,0-1.9,0.2-2.8,0.7c0.4-1.1,0.5-2.2,0.5-3.4c0-6.2-5-11.2-11.2-11.2c-6.2,0-11.2,5-11.2,11.2
	c0,1.2,0.2,2.4,0.5,3.4c-0.8-0.4-1.8-0.7-2.8-0.7c-3.4,0-6.2,2.8-6.2,6.2c0,1.9,0.9,3.6,2.3,4.8c-1.5,0.4-2.6,1.8-2.6,3.5v6.6h-10
	h-10v-6.6c0-1.7-1.1-3-2.6-3.5c1.4-1.1,2.3-2.9,2.3-4.8c0-3.4-2.8-6.2-6.2-6.2c-1,0-1.9,0.2-2.8,0.7c0.4-1.1,0.5-2.2,0.5-3.4
	c0-6.2-5-11.2-11.2-11.2c-6.2,0-11.2,5-11.2,11.2c0,1.2,0.2,2.4,0.5,3.4c-0.8-0.4-1.8-0.7-2.8-0.7c-3.4,0-6.2,2.8-6.2,6.2
	c0,1.9,0.9,3.6,2.3,4.8c-1.5,0.4-2.6,1.8-2.6,3.5v6.6h-10h-10v-6.6c0-1.7-1.1-3-2.6-3.5c1.4-1.1,2.3-2.9,2.3-4.8
	c0-3.4-2.8-6.2-6.2-6.2c-1,0-1.9,0.2-2.8,0.7c0.4-1.1,0.5-2.2,0.5-3.4c0-6.2-5-11.2-11.2-11.2c-6.2,0-11.2,5-11.2,11.2
	c0,1.2,0.2,2.4,0.5,3.4c-0.8-0.4-1.8-0.7-2.8-0.7c-3.4,0-6.2,2.8-6.2,6.2c0,1.9,0.9,3.6,2.3,4.8c-1.5,0.4-2.6,1.8-2.6,3.5v6.6h-10
	h-10v-6.6c0-1.7-1.1-3-2.6-3.5c1.4-1.1,2.3-2.9,2.3-4.8c0-3.4-2.8-6.2-6.2-6.2c-1,0-1.9,0.2-2.8,0.7c0.4-1.1,0.5-2.2,0.5-3.4
	c0-6.2-5-11.2-11.2-11.2c-6.2,0-11.2,5-11.2,11.2c0,1.2,0.2,2.4,0.5,3.4c-0.8-0.4-1.8-0.7-2.8-0.7c-3.4,0-6.2,2.8-6.2,6.2
	c0,1.9,0.9,3.6,2.3,4.8c-1.5,0.4-2.6,1.8-2.6,3.5v6.6h-10h-10v-6.6c0-1.7-1.1-3-2.6-3.5c1.4-1.1,2.3-2.9,2.3-4.8
	c0-3.4-2.8-6.2-6.2-6.2c-1,0-1.9,0.2-2.8,0.7c0.4-1.1,0.5-2.2,0.5-3.4c0-6.2-5-11.2-11.2-11.2c-6.2,0-11.2,5-11.2,11.2
	c0,1.2,0.2,2.4,0.5,3.4c-0.8-0.4-1.8-0.7-2.8-0.7c-3.4,0-6.2,2.8-6.2,6.2c0,1.9,0.9,3.6,2.3,4.8c-1.5,0.4-2.6,1.8-2.6,3.5v6.6H-0.8
	V-1h1024V42.8z"/>
<g id="Layer_x0020_1_4_">
	<path class="st5" d="M34.1,718.2l43.9-1.7c0.3,0,0.6,0,1,0c0.7,0.1,1.3,0.4,1.8,0.9c0.5,0.5,0.9,1,0.9,1.7c0,0.2,0,0.5,0,0.8
		l-4.6,20.6c-0.2,0.9-0.6,1.7-1.3,2.2c-0.6,0.5-1.4,0.9-2.4,0.9l-35.3-1.2c-1,0-1.7-0.3-2.4-0.9l0,0c-0.6-0.6-1.1-1.4-1.3-2.2
		l-4.1-17.7c0-0.1,0-0.1,0-0.2c-0.1-0.8,0.3-1.5,0.9-2.1c0.6-0.5,1.4-0.8,2.3-1C33.8,718.2,34,718.2,34.1,718.2z M76.1,719.3
		l-42,1.5c-0.1,0-0.2,0-0.3,0c-0.6,0.1-1.1,0.3-1.5,0.7c-0.3,0.3-0.6,0.7-0.5,1.1c0,0,0,0.1,0,0.1l3.8,16.5c0.1,0.6,0.4,1.2,0.9,1.6
		c0.4,0.3,0.8,0.5,1.4,0.5l34,1.2c0.6,0,1-0.2,1.4-0.5c0.4-0.4,0.7-0.9,0.9-1.6l4.3-19.3c0-0.1,0-0.3,0-0.4c0-0.3-0.2-0.7-0.5-0.9
		c-0.3-0.3-0.7-0.5-1.1-0.5C76.5,719.3,76.3,719.3,76.1,719.3z"/>
	<path class="st5" d="M41.1,722.9l12.9-1.4c0.1,0,0.3,0,0.4,0c0.3,0.1,0.6,0.2,0.8,0.4c0.2,0.2,0.4,0.5,0.4,0.8c0,0.1,0,0.2,0,0.3
		l-2.1,9.6c-0.1,0.4-0.3,0.8-0.6,1c-0.3,0.3-0.6,0.4-1.1,0.4h-8.9c-0.4,0-0.8-0.2-1.1-0.4h0c-0.3-0.3-0.5-0.6-0.6-1l-1.9-8.2
		c0,0,0-0.1,0-0.1c-0.1-0.4,0.1-0.7,0.4-1c0.3-0.2,0.7-0.4,1-0.5C41,722.9,41.1,722.9,41.1,722.9z M53.1,722.8l-12,1.3
		c0,0-0.1,0-0.1,0c-0.3,0-0.5,0.2-0.7,0.3c-0.2,0.1-0.3,0.3-0.2,0.5c0,0,0,0,0,0l1.8,7.6c0.1,0.3,0.2,0.5,0.4,0.7
		c0.2,0.1,0.4,0.2,0.6,0.2h8.3c0.3,0,0.5-0.1,0.6-0.2c0.2-0.2,0.3-0.4,0.4-0.7l2-8.9c0-0.1,0-0.1,0-0.2c0-0.2-0.1-0.3-0.2-0.4
		c-0.1-0.1-0.3-0.2-0.5-0.2C53.3,722.8,53.2,722.8,53.1,722.8z"/>
	<g id="_1849662416_4_">
		<path class="st6" d="M59.6,735.1l0.4-0.7l-0.7-0.4l0.4-0.7l-1.5-0.8l-0.9,1.5l0,0c0.3,0.1,0.5,0.3,0.7,0.4l-0.4,0.7l0.7,0.4
			l-0.8,1.5l0.7,0.4c-0.2,0.5-0.6,1.1-0.9,1.5l0,0c0.2,0.1,0.4,0.2,0.5,0.3c0.3,0.1,0.2,0.1,0,0.5c-0.2,0.4-0.4,0.8-0.7,1.1l0.7,0.4
			c0,0.2-0.7,1.2-0.8,1.5l5.9,3.4l0.9-1.5l0.8,0.4l1.3-2.2l0.7,0.4l3-5.2c-0.1-0.1-0.7-0.4-0.7-0.5c0-0.2,0.4-0.6,0.4-0.7
			c-0.1-0.1-0.5-0.4-0.7-0.4l-1.3,2.2l-0.7-0.4l1.7-3l-1.5-0.9l-1.3,2.2l-0.7-0.4l1.7-2.9c-0.1-0.1-1.3-0.8-1.5-0.9l-1.7,3l-0.7-0.4
			c0-0.1,0.1-0.1,0.1-0.2c1.2-2.1,2.5-4.3,3.7-6.5l-1.5-0.8l-4.7,8.1C60.1,735.4,59.6,735.1,59.6,735.1L59.6,735.1z"/>
		<path class="st7" d="M57.5,738.8c-0.1,0.1-0.1,0.2-0.2,0.3l-0.7,1.1c0.1,0.1,0.2,0.1,0.4,0.2c0.1,0.1,0.2,0.1,0.3,0.2
			c-0.4,0.8-0.8,1.5-1.2,2.2c0.6,0.4,1.2,0.7,1.8,1.1l3.7,2.2c0.6,0.4,1.3,0.7,1.9,1.1c0.1-0.2,0.1-0.3,0.3-0.5
			c0.1-0.2,0.4-0.6,0.5-0.9c0.1-0.1,0.1-0.1,0.2-0.3c0.1-0.2,0.2-0.4,0.3-0.6c0.1,0.2,0.5,0.3,0.7,0.4c0.4-0.7,0.8-1.4,1.3-2.2
			c0.2,0.1,0.4,0.2,0.6,0.3c0.1,0.1,0.1,0.1,0.2,0c0.2-0.3,0.3-0.6,0.5-0.9c0.3-0.6,0.7-1.1,1-1.7l1.4-2.5c-0.2-0.1-0.6-0.3-0.7-0.4
			l-3,5.2l-0.7-0.4l-1.3,2.2l-0.8-0.4l-0.9,1.5l-5.9-3.4c0.1-0.3,0.8-1.3,0.8-1.5l-0.7-0.4c0.2-0.4,0.4-0.8,0.7-1.1
			c0.2-0.4,0.2-0.3,0-0.5C57.8,739,57.7,738.9,57.5,738.8z"/>
		<path class="st7" d="M59.7,733.2l-0.4,0.7l0.7,0.4l-0.4,0.7l0.7,0.4l4.7-8.1l-0.7-0.4c0,0,0,0,0,0l0,0c0,0,0,0,0,0l-3.8,6.6
			C60.2,733.4,60,733.3,59.7,733.2z"/>
		<path class="st7" d="M66.6,728.2l-3.9,6.6l0.7,0.4l1.7-3c0.2,0,1.4,0.8,1.5,0.9c0.2,0.2,1.6,0.9,1.9,1.1c0,0,0.1,0-0.1-0.1
			l-1.5-0.8c-0.4-0.2-0.3-0.1,0.1-0.9l-1.1-0.6c-0.1-0.1-0.2-0.1-0.3-0.2l1.7-2.9c-0.2-0.1-0.3-0.2-0.6-0.4
			C66.6,728.3,66.6,728.3,66.6,728.2z"/>
		<path class="st7" d="M68.4,735.2l0.4-0.7c-0.1-0.1-0.2-0.2-0.4-0.2c-0.3-0.2-1.7-0.9-1.9-1.1l-1.7,2.9l0.7,0.4l1.3-2.2L68.4,735.2
			z"/>
		<path class="st7" d="M57.4,733.8c-0.1,0.1-0.1,0.1-0.2,0.3c-0.1,0.1-0.1,0.3-0.2,0.4l0.7,0.4c-0.1,0.2-0.7,1.3-0.8,1.5l0.7,0.4
			l-0.6,1.1c-0.1,0.2-0.1,0.2-0.2,0.4l0.7,0.4c0.3-0.4,0.7-1,0.9-1.5l-0.7-0.4l0.8-1.5l-0.7-0.4l0.4-0.7
			C57.9,734.1,57.6,733.9,57.4,733.8z"/>
		<path class="st7" d="M57.4,733.8l0.9-1.5l1.5,0.8l0.2-0.4c0.1-0.1,0.1-0.2,0.2-0.4l-2-1.1c-0.3-0.2-0.2-0.2-0.5,0.2l-0.9,1.6
			c-0.1,0.2-0.2,0.2,0,0.3C56.9,733.5,57.3,733.8,57.4,733.8z"/>
		<path class="st7" d="M69.4,736.8c0.1,0,0,0,0.1-0.1c0,0,0.1-0.1,0.1-0.1c0-0.2,0.2-0.4,0.3-0.6l-1.5-0.8l-1.7,3l0.7,0.4l1.3-2.2
			C68.9,736.5,69.3,736.7,69.4,736.8z"/>
		<path class="st7" d="M66.6,728.2c0.1-0.2,0.3-0.5,0.4-0.7l-1.5-0.8l-0.4,0.7L66.6,728.2z"/>
		<path class="st7" d="M69.4,736.8c0,0.2-0.4,0.6-0.4,0.7c0,0.1,0.6,0.4,0.7,0.5c0.2,0.1,0.5,0.3,0.7,0.4l-1.4,2.5l1.5-2.5l-0.7-0.4
			c0.1-0.1,0.1-0.2,0.2-0.4c0.1-0.1,0.2-0.3,0.2-0.4c-0.8-0.5-0.8-0.3-0.6-0.6c0,0-0.1,0.1-0.1,0.1
			C69.5,736.9,69.6,736.8,69.4,736.8z"/>
	</g>
	<path class="st5" d="M94.2,735h-2.5l2.1-7.2l-4.3,7.2h-2.6l-0.5-7.3l-1.8,7.3H82l2.9-10.9h3.5l0.5,7.7l4.6-7.7h3.5L94.2,735z
		 M103.6,735H98c-0.8,0-1.3-0.2-1.7-0.6c-0.4-0.4-0.4-1-0.2-1.8c0.3-0.9,0.7-1.6,1.3-2c0.6-0.4,1.5-0.6,2.6-0.6h2.5
		c0.1-0.4,0.1-0.7-0.1-0.8c-0.2-0.2-0.6-0.2-1.3-0.2h-3.6l0.5-2h4.3c1.1,0,1.9,0.3,2.3,0.8c0.4,0.5,0.5,1.3,0.2,2.3L103.6,735z
		 M101.7,733.1l0.3-1.2h-2.2c-0.4,0-0.7,0-0.9,0.1c-0.2,0.1-0.3,0.3-0.3,0.5c-0.1,0.2-0.1,0.3,0,0.4c0,0,0.1,0.1,0.2,0.1
		c0.1,0,0.3,0,0.5,0H101.7z M112.4,735H110l1.3-4.9c0.1-0.5,0.2-0.8,0-1c-0.1-0.1-0.4-0.2-0.9-0.2H109l-1.6,6.1H105l2.2-8.1h4
		c1.2,0,2,0.2,2.4,0.7c0.4,0.5,0.5,1.2,0.2,2.3L112.4,735z M121.2,735h-2.4l1.3-4.9c0.1-0.5,0.1-0.8,0-0.9c-0.1-0.1-0.2-0.1-0.3-0.2
		c-0.1,0-0.3-0.1-0.6-0.1l-1.4,0l-1.6,6.1h-2.4l2.9-10.9h2.4l-0.8,2.8h1.6c1.2,0,2,0.2,2.4,0.7c0.4,0.5,0.5,1.2,0.2,2.3L121.2,735z
		 M130.4,735h-5.6c-0.8,0-1.3-0.2-1.7-0.6c-0.4-0.4-0.4-1-0.2-1.8c0.3-0.9,0.7-1.6,1.3-2c0.6-0.4,1.5-0.6,2.6-0.6h2.5
		c0.1-0.4,0.1-0.7-0.1-0.8c-0.2-0.2-0.6-0.2-1.3-0.2h-3.6l0.5-2h4.3c1.1,0,1.9,0.3,2.3,0.8c0.4,0.5,0.5,1.3,0.2,2.3L130.4,735z
		 M128.4,733.1l0.3-1.2h-2.2c-0.4,0-0.7,0-0.9,0.1c-0.2,0.1-0.3,0.3-0.3,0.5c-0.1,0.2,0,0.3,0,0.4c0,0,0.1,0.1,0.2,0.1
		c0.1,0,0.3,0,0.5,0H128.4z M134.3,735h-2.5l2.9-10.9h2.5L134.3,735z M139.9,735h-2.1l0.6-2.2h2.1L139.9,735z M147.7,735h-2.9
		c-0.4,0-0.7,0-1-0.1c-0.3,0-0.5-0.1-0.8-0.2c-0.4-0.1-0.8-0.4-1-0.8c-0.1-0.2-0.2-0.4-0.3-0.6c-0.1-0.2-0.2-0.5-0.2-0.7
		c0-0.3,0-0.5,0-0.8c0-0.3,0.1-0.6,0.2-0.9c0.2-0.6,0.4-1.2,0.8-1.7c0.3-0.5,0.7-1,1.3-1.4c0.4-0.3,0.9-0.6,1.4-0.7
		c0.5-0.2,1.1-0.2,1.9-0.2h2.9l-0.5,2H147c-0.5,0-0.9,0-1.2,0.1c-0.3,0.1-0.6,0.2-0.8,0.4c-0.4,0.3-0.7,0.8-0.9,1.6
		c-0.1,0.4-0.1,0.8-0.1,1.1c0.1,0.3,0.1,0.6,0.4,0.7l0.4,0.2c0.1,0,0.3,0,0.4,0c0.1,0,0.4,0,0.6,0h2.3L147.7,735z M157.7,731
		c-0.3,1.3-1,2.3-2,3.1c-1,0.8-2.1,1.1-3.4,1.1c-1.3,0-2.2-0.4-2.8-1.1c-0.6-0.8-0.7-1.8-0.3-3.1c0.3-1.3,1-2.3,2-3
		c1-0.8,2.1-1.1,3.4-1.1c1.3,0,2.2,0.4,2.8,1.1C158,728.7,158.1,729.7,157.7,731z M155.2,731c0.2-0.7,0.1-1.2-0.1-1.6
		c-0.2-0.4-0.6-0.6-1.1-0.6c-0.5,0-1,0.2-1.4,0.6c-0.4,0.4-0.7,0.9-0.9,1.6c-0.1,0.4-0.1,0.7-0.1,0.9c0,0.3,0.1,0.5,0.2,0.7
		c0.2,0.4,0.6,0.6,1.1,0.6c0.6,0,1-0.2,1.4-0.6C154.7,732.2,155.1,731.7,155.2,731z M168.9,735h-2.4l1.3-4.9c0.1-0.5,0.2-0.8,0.1-1
		c-0.1-0.2-0.4-0.2-0.9-0.2l-0.9,0l-1.6,6.1h-2.4l1.6-6.1h-2l-1.6,6.1h-2.4l2.2-8.1h8c1.2,0,2,0.2,2.4,0.7c0.4,0.5,0.5,1.2,0.2,2.3
		L168.9,735z"/>
	<path class="st5" d="M27.1,727l21.2-2.2c0.2,0,0.5,0,0.7,0c0.5,0.1,1,0.3,1.4,0.7c0.4,0.3,0.6,0.8,0.7,1.3c0,0.2,0,0.4,0,0.6
		l-3.7,9.6c-0.1,0.7-0.5,1.3-1,1.7c-0.5,0.4-1.1,0.7-1.8,0.7H30.1c-0.7,0-1.3-0.3-1.8-0.7h0c-0.5-0.4-0.8-1.1-1-1.7l-2.9-7.4
		c0-0.1,0-0.1,0-0.2c-0.1-0.6,0.2-1.2,0.7-1.6c0.5-0.4,1.1-0.6,1.7-0.8C26.9,727,27,727,27.1,727z M46.8,726.8l-19.8,2.1
		c-0.1,0-0.2,0-0.2,0c-0.4,0.1-0.9,0.3-1.2,0.5c-0.3,0.2-0.4,0.5-0.4,0.8c0,0,0,0.1,0,0.1l2.7,6.5c0.1,0.5,0.3,0.9,0.7,1.2
		c0.3,0.2,0.6,0.4,1,0.4h13.6c0.4,0,0.8-0.1,1-0.4c0.3-0.3,0.5-0.7,0.7-1.2l3.4-8.6c0-0.1,0-0.2,0-0.3c0-0.3-0.2-0.5-0.4-0.7
		c-0.2-0.2-0.5-0.4-0.8-0.4C47.1,726.8,47,726.8,46.8,726.8z"/>
	<path class="st5" d="M86.8,720.7l-0.5,1.7h-0.6l1.2-4.5h1.3c0.3,0,0.5,0,0.7,0.1c0.2,0.1,0.3,0.2,0.4,0.3c0.1,0.1,0.2,0.3,0.2,0.4
		c0,0.2,0,0.4-0.1,0.6c-0.1,0.2-0.1,0.4-0.3,0.6c-0.1,0.2-0.3,0.3-0.4,0.4c-0.2,0.1-0.4,0.2-0.6,0.3c-0.2,0.1-0.5,0.1-0.7,0.1H86.8z
		 M86.9,720.2h0.7c0.2,0,0.3,0,0.5-0.1c0.1,0,0.3-0.1,0.4-0.2c0.1-0.1,0.2-0.2,0.3-0.3c0.1-0.1,0.1-0.2,0.2-0.4
		c0.1-0.3,0.1-0.5-0.1-0.7c-0.1-0.2-0.4-0.2-0.7-0.2h-0.7L86.9,720.2z"/>
	<path id="_x31__4_" class="st5" d="M91.5,719.1c0.2,0,0.4,0,0.6,0.1c0.2,0.1,0.3,0.2,0.4,0.3c0.1,0.1,0.1,0.3,0.2,0.5
		c0,0.2,0,0.4-0.1,0.7c-0.1,0.3-0.2,0.5-0.3,0.7c-0.1,0.2-0.3,0.4-0.4,0.5c-0.2,0.1-0.4,0.3-0.6,0.3c-0.2,0.1-0.4,0.1-0.7,0.1
		c-0.2,0-0.4,0-0.6-0.1c-0.2-0.1-0.3-0.2-0.4-0.3c-0.1-0.1-0.1-0.3-0.2-0.5c0-0.2,0-0.4,0.1-0.7c0.1-0.3,0.2-0.5,0.3-0.7
		c0.1-0.2,0.3-0.4,0.4-0.5c0.2-0.1,0.4-0.3,0.6-0.3C91,719.2,91.2,719.1,91.5,719.1z M90.7,722c0.3,0,0.6-0.1,0.8-0.3
		c0.2-0.2,0.4-0.5,0.5-0.9c0.1-0.4,0.1-0.7,0-0.9c-0.1-0.2-0.3-0.3-0.6-0.3c-0.2,0-0.3,0-0.4,0.1c-0.1,0.1-0.3,0.1-0.4,0.2
		c-0.1,0.1-0.2,0.2-0.3,0.4c-0.1,0.1-0.1,0.3-0.2,0.5c0,0.2-0.1,0.4-0.1,0.5c0,0.1,0,0.3,0.1,0.4c0.1,0.1,0.1,0.2,0.2,0.2
		C90.4,721.9,90.6,722,90.7,722z"/>
	<path id="_x32__4_" class="st5" d="M93.3,719.2h0.4c0,0,0.1,0,0.1,0c0,0,0,0,0,0.1l0.1,2c0,0.1,0,0.1,0,0.2c0,0.1,0,0.1,0,0.2
		c0-0.1,0.1-0.1,0.1-0.2c0-0.1,0.1-0.1,0.1-0.2l1.2-2.1c0,0,0-0.1,0.1-0.1c0,0,0.1,0,0.1,0h0.2c0,0,0.1,0,0.1,0c0,0,0,0,0,0.1
		l0.1,2.1c0,0.1,0,0.1,0,0.2c0,0.1,0,0.1,0,0.2c0-0.1,0.1-0.1,0.1-0.2c0-0.1,0.1-0.1,0.1-0.2l1.2-2c0,0,0-0.1,0.1-0.1
		c0,0,0.1,0,0.1,0H98l-1.9,3.2h-0.4c-0.1,0-0.1,0-0.1-0.1l-0.1-2.2c0,0,0-0.1,0-0.1c0-0.1,0-0.1,0-0.1c0,0,0,0.1-0.1,0.1
		c0,0,0,0.1-0.1,0.1l-1.3,2.2c0,0.1-0.1,0.1-0.2,0.1h-0.4L93.3,719.2z"/>
	<path id="_x33__4_" class="st5" d="M99.7,719.1c0.2,0,0.4,0,0.5,0.1c0.1,0.1,0.3,0.2,0.3,0.3c0.1,0.1,0.1,0.3,0.2,0.4
		c0,0.2,0,0.4-0.1,0.6c0,0.1,0,0.1-0.1,0.2c0,0-0.1,0-0.1,0h-2.1c-0.1,0.2-0.1,0.4-0.1,0.5c0,0.1,0,0.3,0.1,0.4
		c0.1,0.1,0.1,0.2,0.3,0.2c0.1,0,0.2,0.1,0.4,0.1c0.1,0,0.3,0,0.4,0c0.1,0,0.2-0.1,0.3-0.1c0.1,0,0.2-0.1,0.2-0.1
		c0.1,0,0.1-0.1,0.1-0.1c0,0,0.1,0,0.1,0.1l0.1,0.2c-0.1,0.1-0.2,0.2-0.3,0.2c-0.1,0.1-0.2,0.1-0.3,0.2c-0.1,0-0.2,0.1-0.4,0.1
		c-0.1,0-0.2,0-0.4,0c-0.2,0-0.4,0-0.6-0.1c-0.2-0.1-0.3-0.2-0.4-0.3c-0.1-0.1-0.2-0.3-0.2-0.5c0-0.2,0-0.5,0.1-0.7
		c0.1-0.2,0.1-0.4,0.3-0.6c0.1-0.2,0.3-0.4,0.4-0.5c0.2-0.1,0.4-0.3,0.6-0.3C99.3,719.2,99.5,719.1,99.7,719.1z M99.7,719.5
		c-0.3,0-0.5,0.1-0.7,0.2c-0.2,0.2-0.4,0.4-0.5,0.6h1.7c0-0.1,0.1-0.3,0-0.4c0-0.1,0-0.2-0.1-0.3c0-0.1-0.1-0.1-0.2-0.2
		C99.9,719.6,99.8,719.5,99.7,719.5z"/>
	<path id="_x34__4_" class="st5" d="M100.9,722.3l0.9-3.2h0.3c0.1,0,0.1,0,0.1,0c0,0,0,0.1,0,0.1l-0.1,0.5c0.2-0.2,0.4-0.4,0.5-0.5
		c0.2-0.1,0.4-0.2,0.6-0.2c0.1,0,0.2,0,0.2,0c0.1,0,0.1,0,0.2,0.1l-0.2,0.4c0,0.1-0.1,0.1-0.1,0.1c0,0-0.1,0-0.1,0
		c-0.1,0-0.1,0-0.2,0c-0.2,0-0.4,0.1-0.5,0.2c-0.2,0.1-0.3,0.3-0.5,0.5l-0.5,2H100.9z"/>
	<path id="_x35__4_" class="st5" d="M105.6,719.1c0.2,0,0.4,0,0.5,0.1c0.1,0.1,0.3,0.2,0.3,0.3c0.1,0.1,0.1,0.3,0.2,0.4
		c0,0.2,0,0.4-0.1,0.6c0,0.1,0,0.1-0.1,0.2c0,0-0.1,0-0.1,0h-2.1c-0.1,0.2-0.1,0.4-0.1,0.5c0,0.1,0,0.3,0.1,0.4
		c0.1,0.1,0.1,0.2,0.3,0.2c0.1,0,0.2,0.1,0.4,0.1c0.1,0,0.3,0,0.4,0c0.1,0,0.2-0.1,0.3-0.1c0.1,0,0.2-0.1,0.2-0.1
		c0.1,0,0.1-0.1,0.1-0.1c0,0,0.1,0,0.1,0.1l0.1,0.2c-0.1,0.1-0.2,0.2-0.3,0.2c-0.1,0.1-0.2,0.1-0.3,0.2c-0.1,0-0.2,0.1-0.4,0.1
		c-0.1,0-0.2,0-0.4,0c-0.2,0-0.4,0-0.6-0.1c-0.2-0.1-0.3-0.2-0.4-0.3c-0.1-0.1-0.2-0.3-0.2-0.5c0-0.2,0-0.5,0.1-0.7
		c0.1-0.2,0.2-0.4,0.3-0.6c0.1-0.2,0.3-0.4,0.4-0.5c0.2-0.1,0.4-0.3,0.6-0.3C105.1,719.2,105.3,719.1,105.6,719.1z M105.5,719.5
		c-0.3,0-0.5,0.1-0.7,0.2c-0.2,0.2-0.4,0.4-0.5,0.6h1.7c0-0.1,0-0.3,0-0.4c0-0.1,0-0.2-0.1-0.3c0-0.1-0.1-0.1-0.2-0.2
		C105.7,719.6,105.6,719.5,105.5,719.5z"/>
	<path id="_x36__4_" class="st5" d="M109,722.3c-0.1,0-0.1,0-0.1-0.1l0.1-0.4c-0.2,0.2-0.4,0.3-0.6,0.4c-0.2,0.1-0.4,0.1-0.6,0.1
		c-0.2,0-0.3,0-0.5-0.1c-0.1-0.1-0.2-0.2-0.3-0.3c-0.1-0.1-0.1-0.3-0.1-0.5c0-0.2,0-0.4,0.1-0.7c0.1-0.2,0.2-0.5,0.3-0.7
		c0.1-0.2,0.3-0.4,0.4-0.5c0.2-0.2,0.3-0.3,0.5-0.4c0.2-0.1,0.4-0.1,0.6-0.1c0.2,0,0.4,0,0.5,0.1c0.1,0.1,0.2,0.2,0.3,0.3l0.5-1.8
		h0.6l-1.2,4.6H109z M108,721.9c0.2,0,0.4,0,0.5-0.1c0.2-0.1,0.3-0.2,0.5-0.4l0.4-1.5c-0.1-0.1-0.2-0.2-0.3-0.3
		c-0.1-0.1-0.2-0.1-0.4-0.1c-0.3,0-0.6,0.1-0.8,0.3c-0.2,0.2-0.4,0.5-0.5,0.9c-0.1,0.2-0.1,0.4-0.1,0.5c0,0.1,0,0.3,0.1,0.4
		c0,0.1,0.1,0.2,0.2,0.2C107.8,721.9,107.9,721.9,108,721.9z"/>
	<path id="_x37__4_" class="st5" d="M111.5,722.3l1.2-4.6h0.6l-0.5,1.9c0.2-0.2,0.4-0.3,0.6-0.4c0.2-0.1,0.4-0.1,0.6-0.1
		c0.2,0,0.3,0,0.5,0.1c0.1,0.1,0.2,0.2,0.3,0.3c0.1,0.1,0.1,0.3,0.1,0.5c0,0.2,0,0.4-0.1,0.7c-0.1,0.2-0.2,0.5-0.3,0.7
		c-0.1,0.2-0.3,0.4-0.4,0.5c-0.2,0.1-0.3,0.3-0.5,0.3c-0.2,0.1-0.4,0.1-0.6,0.1c-0.2,0-0.4,0-0.5-0.1c-0.1-0.1-0.2-0.2-0.3-0.3
		l-0.1,0.3c0,0.1-0.1,0.1-0.2,0.1H111.5z M113.6,719.6c-0.2,0-0.4,0-0.5,0.1c-0.2,0.1-0.3,0.2-0.5,0.4l-0.4,1.5
		c0.1,0.1,0.1,0.2,0.3,0.3c0.1,0.1,0.2,0.1,0.4,0.1c0.3,0,0.6-0.1,0.8-0.3c0.2-0.2,0.4-0.5,0.5-0.9c0.1-0.2,0.1-0.4,0.1-0.5
		c0-0.1,0-0.3-0.1-0.4c0-0.1-0.1-0.2-0.2-0.2C113.9,719.6,113.8,719.6,113.6,719.6z"/>
	<path id="_x38__4_" class="st5" d="M115.6,723.3c0,0-0.1,0.1-0.1,0.1c0,0-0.1,0-0.1,0h-0.4l0.9-1.2l-0.5-3h0.5c0,0,0.1,0,0.1,0
		c0,0,0,0,0,0.1l0.3,2c0,0,0,0.1,0,0.1c0,0,0,0.1,0,0.1c0,0,0.1-0.1,0.1-0.1c0,0,0.1-0.1,0.1-0.1l1.4-2c0,0,0.1-0.1,0.1-0.1
		c0,0,0.1,0,0.1,0h0.4L115.6,723.3z"/>
	<path id="_x39__4_" class="st5" d="M118.1,722c0-0.1,0-0.1,0.1-0.2c0-0.1,0.1-0.1,0.1-0.1c0,0,0.1-0.1,0.1-0.1c0.1,0,0.1,0,0.2,0
		c0.1,0,0.1,0,0.1,0c0,0,0.1,0,0.1,0.1c0,0,0,0.1,0.1,0.1c0,0,0,0.1,0,0.2c0,0.1,0,0.1-0.1,0.2c0,0-0.1,0.1-0.1,0.1
		c0,0-0.1,0.1-0.1,0.1c-0.1,0-0.1,0-0.2,0c-0.1,0-0.1,0-0.1,0c0,0-0.1,0-0.1-0.1c0,0,0-0.1,0-0.1C118.1,722.1,118.1,722.1,118.1,722
		z M118.8,719.7c0-0.1,0-0.1,0.1-0.2c0,0,0.1-0.1,0.1-0.1c0,0,0.1-0.1,0.1-0.1c0.1,0,0.1,0,0.2,0c0.1,0,0.1,0,0.1,0
		c0,0,0.1,0,0.1,0.1c0,0,0,0.1,0.1,0.1c0,0,0,0.1,0,0.2c0,0.1,0,0.1-0.1,0.2c0,0-0.1,0.1-0.1,0.1c0,0-0.1,0.1-0.1,0.1
		c-0.1,0-0.1,0-0.2,0c-0.1,0-0.1,0-0.1,0c0,0-0.1,0-0.1-0.1c0,0,0-0.1,0-0.1C118.7,719.8,118.7,719.7,118.8,719.7z"/>
	<path class="st5" d="M125.2,737.4l-0.1,0.5h-2.3l-0.4,1.6h1.8l-0.1,0.5h-1.8l-0.4,1.6h2.3l-0.1,0.5H121l1.3-4.8H125.2z
		 M125.2,739.9h1.6l-0.1,0.5h-1.6L125.2,739.9z M128,741.6h2.1l-0.1,0.5h-2.7l1.3-4.8h0.6L128,741.6z M132.6,738.8
		c0.2,0,0.4,0,0.5,0.1c0.2,0.1,0.3,0.2,0.4,0.3c0.1,0.1,0.1,0.3,0.2,0.5c0,0.2,0,0.4-0.1,0.6c0,0.1-0.1,0.2-0.1,0.2c0,0-0.1,0-0.1,0
		h-2.2c-0.1,0.2-0.1,0.4-0.1,0.6c0,0.2,0,0.3,0.1,0.4c0.1,0.1,0.2,0.2,0.3,0.2c0.1,0.1,0.3,0.1,0.4,0.1c0.1,0,0.3,0,0.4-0.1
		c0.1,0,0.2-0.1,0.3-0.1c0.1,0,0.2-0.1,0.2-0.1c0.1,0,0.1-0.1,0.1-0.1c0,0,0.1,0,0.1,0.1l0.1,0.2c-0.1,0.1-0.2,0.2-0.3,0.2
		c-0.1,0.1-0.2,0.1-0.4,0.2c-0.1,0-0.3,0.1-0.4,0.1c-0.1,0-0.3,0-0.4,0c-0.2,0-0.4,0-0.6-0.1c-0.2-0.1-0.3-0.2-0.4-0.3
		c-0.1-0.2-0.2-0.3-0.2-0.6c0-0.2,0-0.5,0.1-0.8c0.1-0.2,0.2-0.5,0.3-0.7c0.1-0.2,0.3-0.4,0.5-0.5c0.2-0.1,0.4-0.3,0.6-0.4
		C132.1,738.8,132.4,738.8,132.6,738.8z M132.5,739.2c-0.3,0-0.5,0.1-0.7,0.2c-0.2,0.2-0.4,0.4-0.5,0.7h1.8c0-0.1,0.1-0.3,0-0.4
		c0-0.1,0-0.2-0.1-0.3c-0.1-0.1-0.1-0.1-0.2-0.2C132.8,739.2,132.6,739.2,132.5,739.2z M136.3,742.2h-0.3c-0.1,0-0.1,0-0.1,0
		c0,0,0-0.1,0-0.1l0-0.3c-0.1,0.1-0.2,0.2-0.3,0.2c-0.1,0.1-0.2,0.1-0.3,0.2c-0.1,0-0.2,0.1-0.3,0.1c-0.1,0-0.2,0-0.4,0
		c-0.1,0-0.2,0-0.4-0.1c-0.1,0-0.2-0.1-0.3-0.2c-0.1-0.1-0.1-0.2-0.1-0.3c0-0.1,0-0.2,0-0.4c0-0.1,0.1-0.3,0.2-0.4
		c0.1-0.1,0.3-0.2,0.4-0.3c0.2-0.1,0.4-0.2,0.7-0.2c0.3-0.1,0.6-0.1,1-0.1l0.1-0.3c0.1-0.3,0.1-0.5,0-0.6c-0.1-0.1-0.2-0.2-0.4-0.2
		c-0.1,0-0.3,0-0.4,0.1c-0.1,0-0.2,0.1-0.3,0.1c-0.1,0-0.2,0.1-0.2,0.1c-0.1,0-0.1,0.1-0.2,0.1c0,0-0.1,0-0.1,0c0,0,0,0-0.1-0.1
		l-0.1-0.2c0.2-0.2,0.5-0.3,0.7-0.4c0.2-0.1,0.5-0.1,0.8-0.1c0.2,0,0.3,0,0.5,0.1c0.1,0.1,0.2,0.1,0.3,0.3c0.1,0.1,0.1,0.2,0.1,0.4
		c0,0.2,0,0.3-0.1,0.5L136.3,742.2z M134.9,741.8c0.1,0,0.2,0,0.3,0c0.1,0,0.2-0.1,0.3-0.1c0.1,0,0.2-0.1,0.3-0.1
		c0.1-0.1,0.2-0.1,0.3-0.2l0.2-0.7c-0.3,0-0.5,0-0.7,0.1c-0.2,0-0.4,0.1-0.5,0.1c-0.1,0.1-0.2,0.1-0.3,0.2c-0.1,0.1-0.1,0.2-0.1,0.3
		c0,0.1,0,0.2,0,0.2c0,0.1,0,0.1,0.1,0.2c0,0,0.1,0.1,0.1,0.1C134.7,741.8,134.8,741.8,134.9,741.8z M137.2,742.2l0.9-3.4h0.3
		c0.1,0,0.1,0,0.1,0c0,0,0,0.1,0,0.1l-0.1,0.6c0.2-0.2,0.4-0.4,0.6-0.6c0.2-0.1,0.4-0.2,0.6-0.2c0.1,0,0.2,0,0.2,0
		c0.1,0,0.1,0.1,0.2,0.1l-0.2,0.4c0,0.1-0.1,0.1-0.1,0.1c0,0-0.1,0-0.1,0c-0.1,0-0.1,0-0.3,0c-0.2,0-0.4,0.1-0.6,0.2
		c-0.2,0.1-0.3,0.3-0.5,0.5l-0.6,2.1H137.2z M139.9,742.2l0.9-3.4h0.4c0.1,0,0.1,0,0.1,0.1l-0.1,0.4c0.2-0.2,0.4-0.3,0.6-0.4
		c0.2-0.1,0.4-0.2,0.7-0.2c0.2,0,0.3,0,0.5,0.1c0.1,0.1,0.2,0.1,0.3,0.3c0.1,0.1,0.1,0.2,0.1,0.4c0,0.2,0,0.3-0.1,0.5l-0.6,2.1h-0.6
		l0.6-2.1c0.1-0.3,0.1-0.5,0-0.6c-0.1-0.1-0.2-0.2-0.5-0.2c-0.2,0-0.3,0-0.5,0.1c-0.2,0.1-0.3,0.2-0.5,0.3l-0.7,2.5H139.9z
		 M145.1,738.8l-0.9,3.4h-0.6l0.9-3.4H145.1z M145.6,737.8c0,0.1,0,0.1-0.1,0.2c0,0-0.1,0.1-0.1,0.1c0,0-0.1,0.1-0.2,0.1
		c-0.1,0-0.1,0-0.2,0c-0.1,0-0.1,0-0.2,0c0,0-0.1-0.1-0.1-0.1c0,0,0-0.1-0.1-0.1c0,0,0-0.1,0-0.2c0-0.1,0-0.1,0.1-0.2
		c0-0.1,0.1-0.1,0.1-0.1c0,0,0.1-0.1,0.2-0.1c0.1,0,0.1,0,0.2,0c0.1,0,0.1,0,0.2,0c0,0,0.1,0.1,0.1,0.1c0,0,0,0.1,0.1,0.1
		C145.6,737.7,145.6,737.7,145.6,737.8z M145.3,742.2l0.9-3.4h0.4c0.1,0,0.1,0,0.1,0.1l-0.1,0.4c0.2-0.2,0.4-0.3,0.6-0.4
		c0.2-0.1,0.4-0.2,0.7-0.2c0.2,0,0.3,0,0.5,0.1c0.1,0.1,0.2,0.1,0.3,0.3c0.1,0.1,0.1,0.2,0.1,0.4c0,0.2,0,0.3-0.1,0.5l-0.6,2.1h-0.6
		l0.6-2.1c0.1-0.3,0.1-0.5,0-0.6c-0.1-0.1-0.2-0.2-0.5-0.2c-0.2,0-0.3,0-0.5,0.1c-0.2,0.1-0.3,0.2-0.5,0.3l-0.7,2.5H145.3z
		 M151,738.8c0.1,0,0.3,0,0.4,0c0.1,0,0.2,0.1,0.3,0.1h0.9l-0.1,0.2c0,0.1-0.1,0.1-0.2,0.1l-0.4,0.1c0,0.1,0,0.3,0,0.5
		c0,0.2-0.1,0.3-0.2,0.4c-0.1,0.1-0.2,0.2-0.4,0.3c-0.1,0.1-0.3,0.2-0.5,0.2c-0.2,0-0.3,0.1-0.5,0.1c-0.2,0-0.3,0-0.4-0.1
		c-0.1,0-0.1,0.1-0.2,0.1c-0.1,0.1-0.1,0.1-0.1,0.2c0,0.1,0,0.1,0,0.2c0.1,0,0.1,0.1,0.2,0.1c0.1,0,0.2,0,0.4,0c0.1,0,0.3,0,0.4,0
		c0.1,0,0.3,0,0.4,0c0.1,0,0.2,0.1,0.3,0.1c0.1,0.1,0.2,0.1,0.2,0.2c0,0.1,0,0.2,0,0.4c0,0.1-0.1,0.3-0.2,0.4
		c-0.1,0.1-0.2,0.3-0.4,0.4c-0.2,0.1-0.3,0.2-0.6,0.3c-0.2,0.1-0.4,0.1-0.7,0.1c-0.2,0-0.5,0-0.6-0.1c-0.2,0-0.3-0.1-0.4-0.2
		c-0.1-0.1-0.2-0.2-0.2-0.3c0-0.1,0-0.2,0-0.3c0-0.2,0.1-0.3,0.3-0.4c0.1-0.1,0.3-0.2,0.5-0.3c-0.1,0-0.1-0.1-0.2-0.2
		c0-0.1,0-0.2,0-0.3c0,0,0-0.1,0.1-0.2c0-0.1,0.1-0.1,0.1-0.2c0-0.1,0.1-0.1,0.2-0.1c0.1,0,0.1-0.1,0.2-0.1
		c-0.1-0.1-0.2-0.2-0.3-0.4c-0.1-0.2-0.1-0.3,0-0.5c0-0.2,0.1-0.3,0.2-0.4c0.1-0.1,0.2-0.3,0.4-0.3c0.1-0.1,0.3-0.2,0.5-0.2
		C150.7,738.8,150.8,738.8,151,738.8z M151.1,742.4c0-0.1,0-0.2,0-0.2c0-0.1-0.1-0.1-0.2-0.1c-0.1,0-0.2,0-0.3-0.1
		c-0.1,0-0.2,0-0.3,0c-0.1,0-0.2,0-0.4,0c-0.1,0-0.2,0-0.3,0c-0.1,0.1-0.3,0.1-0.4,0.2c-0.1,0.1-0.2,0.2-0.2,0.3c0,0.1,0,0.1,0,0.2
		c0,0.1,0.1,0.1,0.1,0.2c0.1,0,0.2,0.1,0.3,0.1c0.1,0,0.3,0,0.4,0c0.2,0,0.3,0,0.4,0c0.1,0,0.3-0.1,0.4-0.1c0.1-0.1,0.2-0.1,0.3-0.2
		C151,742.5,151.1,742.5,151.1,742.4z M150.5,740.5c0.1,0,0.2,0,0.3,0c0.1,0,0.2-0.1,0.3-0.1c0.1-0.1,0.1-0.1,0.2-0.2
		c0.1-0.1,0.1-0.2,0.1-0.3c0.1-0.2,0-0.4-0.1-0.5c-0.1-0.1-0.3-0.2-0.5-0.2s-0.4,0.1-0.6,0.2c-0.2,0.1-0.3,0.3-0.3,0.5
		c0,0.1,0,0.2,0,0.3c0,0.1,0,0.2,0.1,0.2c0,0.1,0.1,0.1,0.2,0.1C150.3,740.5,150.4,740.5,150.5,740.5z M158.3,737.4l-0.1,0.5h-1.5
		l-1.1,4.2h-0.6l1.1-4.2h-1.5l0.1-0.5H158.3z M159.1,738.8c0.2,0,0.4,0,0.5,0.1c0.2,0.1,0.3,0.2,0.4,0.3c0.1,0.1,0.1,0.3,0.2,0.5
		c0,0.2,0,0.4-0.1,0.6c0,0.1,0,0.2-0.1,0.2c0,0-0.1,0-0.1,0h-2.2c-0.1,0.2-0.1,0.4-0.1,0.6c0,0.2,0,0.3,0.1,0.4
		c0.1,0.1,0.2,0.2,0.3,0.2c0.1,0.1,0.2,0.1,0.4,0.1c0.1,0,0.3,0,0.4-0.1c0.1,0,0.2-0.1,0.3-0.1c0.1,0,0.2-0.1,0.2-0.1
		c0.1,0,0.1-0.1,0.1-0.1c0,0,0.1,0,0.1,0.1l0.1,0.2c-0.1,0.1-0.2,0.2-0.3,0.2c-0.1,0.1-0.2,0.1-0.4,0.2c-0.1,0-0.3,0.1-0.4,0.1
		c-0.1,0-0.3,0-0.4,0c-0.2,0-0.4,0-0.6-0.1c-0.2-0.1-0.3-0.2-0.4-0.3c-0.1-0.2-0.2-0.3-0.2-0.6c0-0.2,0-0.5,0.1-0.8
		c0.1-0.2,0.2-0.5,0.3-0.7c0.1-0.2,0.3-0.4,0.5-0.5c0.2-0.1,0.4-0.3,0.6-0.4C158.6,738.8,158.9,738.8,159.1,738.8z M159,739.2
		c-0.3,0-0.5,0.1-0.7,0.2c-0.2,0.2-0.4,0.4-0.5,0.7h1.8c0-0.1,0-0.3,0-0.4c0-0.1,0-0.2-0.1-0.3c-0.1-0.1-0.1-0.1-0.2-0.2
		C159.3,739.2,159.1,739.2,159,739.2z M162.8,742.2h-0.3c-0.1,0-0.1,0-0.1,0c0,0,0-0.1,0-0.1l0-0.3c-0.1,0.1-0.2,0.2-0.3,0.2
		c-0.1,0.1-0.2,0.1-0.3,0.2c-0.1,0-0.2,0.1-0.3,0.1c-0.1,0-0.2,0-0.4,0c-0.1,0-0.2,0-0.4-0.1c-0.1,0-0.2-0.1-0.3-0.2
		c-0.1-0.1-0.1-0.2-0.1-0.3c0-0.1,0-0.2,0-0.4c0-0.1,0.1-0.3,0.2-0.4c0.1-0.1,0.3-0.2,0.4-0.3c0.2-0.1,0.4-0.2,0.7-0.2
		c0.3-0.1,0.6-0.1,1-0.1l0.1-0.3c0.1-0.3,0.1-0.5,0-0.6c-0.1-0.1-0.2-0.2-0.4-0.2c-0.1,0-0.3,0-0.4,0.1c-0.1,0-0.2,0.1-0.3,0.1
		c-0.1,0-0.2,0.1-0.2,0.1c-0.1,0-0.1,0.1-0.2,0.1c0,0-0.1,0-0.1,0c0,0,0,0-0.1-0.1l-0.1-0.2c0.2-0.2,0.5-0.3,0.7-0.4
		c0.2-0.1,0.5-0.1,0.7-0.1c0.2,0,0.3,0,0.5,0.1c0.1,0.1,0.2,0.1,0.3,0.3c0.1,0.1,0.1,0.2,0.1,0.4c0,0.2,0,0.3-0.1,0.5L162.8,742.2z
		 M161.4,741.8c0.1,0,0.2,0,0.3,0c0.1,0,0.2-0.1,0.3-0.1c0.1,0,0.2-0.1,0.3-0.1c0.1-0.1,0.2-0.1,0.3-0.2l0.2-0.7
		c-0.3,0-0.5,0-0.7,0.1c-0.2,0-0.4,0.1-0.5,0.1c-0.1,0.1-0.2,0.1-0.3,0.2c-0.1,0.1-0.1,0.2-0.2,0.3c0,0.1,0,0.2,0,0.2
		c0,0.1,0,0.1,0.1,0.2c0,0,0.1,0.1,0.1,0.1C161.2,741.8,161.3,741.8,161.4,741.8z M163.7,742.2l0.9-3.4h0.3c0.1,0,0.1,0,0.1,0.1
		l0,0.3c0.2-0.2,0.3-0.3,0.5-0.4c0.2-0.1,0.4-0.1,0.6-0.1c0.2,0,0.4,0.1,0.5,0.2c0.1,0.1,0.2,0.3,0.2,0.5c0.1-0.1,0.2-0.2,0.3-0.3
		c0.1-0.1,0.2-0.2,0.3-0.2c0.1-0.1,0.2-0.1,0.3-0.1c0.1,0,0.2,0,0.3,0c0.2,0,0.3,0,0.5,0.1c0.1,0.1,0.2,0.1,0.3,0.2
		c0.1,0.1,0.1,0.2,0.1,0.4c0,0.2,0,0.3-0.1,0.5l-0.6,2.1h-0.6l0.6-2.1c0.1-0.3,0.1-0.5,0-0.6c-0.1-0.1-0.2-0.2-0.4-0.2
		c-0.1,0-0.2,0-0.3,0.1c-0.1,0-0.2,0.1-0.3,0.2c-0.1,0.1-0.2,0.2-0.2,0.3c-0.1,0.1-0.1,0.2-0.2,0.4l-0.6,2.1h-0.6l0.6-2.1
		c0.1-0.3,0.1-0.5,0-0.6c-0.1-0.1-0.2-0.2-0.4-0.2c-0.1,0-0.3,0-0.4,0.1c-0.1,0.1-0.3,0.2-0.4,0.3l-0.7,2.5H163.7z"/>
</g>
<g>
	<g>
		<g>
			<linearGradient id="SVGID_3_" gradientUnits="userSpaceOnUse" x1="228.3327" y1="204.7591" x2="228.3327" y2="289.7147">
				<stop  offset="0" style="stop-color:#9DB3CE"/>
				<stop  offset="1" style="stop-color:#91A8C6"/>
			</linearGradient>
			<path class="st8" d="M228.3,292c-25,0-45.4-20.4-45.4-45.4c0-25,20.4-45.4,45.4-45.4c25,0,45.4,20.4,45.4,45.4
				C273.7,271.6,253.4,292,228.3,292L228.3,292z"/>
			<linearGradient id="SVGID_4_" gradientUnits="userSpaceOnUse" x1="228.3327" y1="206.2596" x2="228.3327" y2="288.1693">
				<stop  offset="0" style="stop-color:#DCE8F1"/>
				<stop  offset="1" style="stop-color:#B0C1D6"/>
			</linearGradient>
			<circle class="st9" cx="228.3" cy="246.6" r="43.8"/>
			<linearGradient id="SVGID_5_" gradientUnits="userSpaceOnUse" x1="215.3359" y1="207.5621" x2="223.2008" y2="231.2922">
				<stop  offset="0" style="stop-color:#FBFEFF"/>
				<stop  offset="1" style="stop-color:#D6E4EE"/>
			</linearGradient>
			<path class="st10" d="M213.9,207.4c-16.1,5.3-21,16.6-23.5,24.2c-2.5,7.6,16.7,6.5,36.7-1.9c20-8.4,29.1-16.7,19.9-20.9
				C237.8,204.6,226.3,203.3,213.9,207.4z"/>
			
				<linearGradient id="SVGID_6_" gradientUnits="userSpaceOnUse" x1="-4418.394" y1="4320.3994" x2="-4410.5288" y2="4344.1299" gradientTransform="matrix(-1 0 0 -1 -4176.667 4606.8242)">
				<stop  offset="0" style="stop-color:#8CA3BD"/>
				<stop  offset="1" style="stop-color:#BECEE0"/>
			</linearGradient>
			<path class="st11" d="M243.2,286.6c16.1-5.3,21-16.6,23.5-24.2c2.5-7.6-16.7-6.5-36.7,1.9c-20,8.4-29.1,16.7-19.9,20.9
				C219.3,289.4,230.7,290.7,243.2,286.6z"/>
			<g>
				<linearGradient id="SVGID_7_" gradientUnits="userSpaceOnUse" x1="209.5865" y1="215.7507" x2="209.5865" y2="282.4758">
					<stop  offset="0" style="stop-color:#D8E0EB"/>
					<stop  offset="1" style="stop-color:#A0B2C4"/>
				</linearGradient>
				<path class="st12" d="M208.8,233.7c-1.7-0.6-3.3-0.3-5.3,0.7c-2.2,1.2-3.7,1.1-6,1.6c-1.8,0.4-2.7,1.6-3.1,3.3
					c-0.2,0.9-0.5,2.2-0.6,3.1c-0.4,2.9,1.6,7,2.6,9.6c1.3,3.2,3.2,6.8,6.2,8.6c8.2,5,18.6,4.9,22.3-5.3c2.3-6.4-0.8-11.8-6.3-15.1
					c-2.8-1.7-5.1-3.3-7.7-5.3C210.1,234.3,209.4,233.9,208.8,233.7z"/>
				<linearGradient id="SVGID_8_" gradientUnits="userSpaceOnUse" x1="235.2465" y1="215.7589" x2="235.2465" y2="282.4835">
					<stop  offset="0" style="stop-color:#D8E0EB"/>
					<stop  offset="1" style="stop-color:#A0B2C4"/>
				</linearGradient>
				<path class="st13" d="M253.4,231.2c1.5-0.5,2.5-1.5,1.9-3.5c-0.8-3.1-4.2-4.5-7-5.4c-1.5-0.5-3.1-0.6-4.7-1
					c-1.8-0.5-2.4-1.4-3.9-2.6c-6.1-4.7-15.7-3.5-20.9,1.9c-2.4,2.4-4.5,6.8-3.3,10.3c0.7,1.9,2.2,2.2,4,3c2.5,1.1,5.3,2.5,7.2,4.5
					c2.4,2.4,3.1,4.3,7,4c6-0.4,9.1-6.7,13.7-9.5C248.7,231.9,251.5,231.9,253.4,231.2z"/>
				<linearGradient id="SVGID_9_" gradientUnits="userSpaceOnUse" x1="235.6442" y1="215.7508" x2="235.6442" y2="282.4759">
					<stop  offset="0" style="stop-color:#D8E0EB"/>
					<stop  offset="1" style="stop-color:#A0B2C4"/>
				</linearGradient>
				<path class="st14" d="M240.8,249.6c-2.3-1.1-5.5-5-7.8-5.5c-2-0.5-3.7,1.4-4.7,3.3c-2.3,4-1,8.9,3.3,10.8
					c3.8,1.7,11.8,1.8,12.5-3.8C244.4,251.3,243.3,250.9,240.8,249.6z"/>
				<linearGradient id="SVGID_10_" gradientUnits="userSpaceOnUse" x1="261.5912" y1="215.753" x2="261.5912" y2="282.4749">
					<stop  offset="0" style="stop-color:#D8E0EB"/>
					<stop  offset="1" style="stop-color:#A0B2C4"/>
				</linearGradient>
				<path class="st15" d="M261.6,267.9c2.5-1.3,7.2-11.4,2.7-12.5c-3.1-0.7-5.8,5-6.7,7C256.3,265.2,256.8,270.4,261.6,267.9z"/>
				<linearGradient id="SVGID_11_" gradientUnits="userSpaceOnUse" x1="211.1656" y1="215.7513" x2="211.1656" y2="282.4759">
					<stop  offset="0" style="stop-color:#D8E0EB"/>
					<stop  offset="1" style="stop-color:#A0B2C4"/>
				</linearGradient>
				<path class="st16" d="M217.5,269.5c-1-2-13.1-5.7-13.1-2c0,3.6,6.4,5.4,9.2,5.5C215.5,273.1,219,272.3,217.5,269.5z"/>
				<linearGradient id="SVGID_12_" gradientUnits="userSpaceOnUse" x1="259.8955" y1="213.5998" x2="259.0818" y2="281.1285">
					<stop  offset="0" style="stop-color:#C7D3E4"/>
					<stop  offset="1" style="stop-color:#A0B2C4"/>
				</linearGradient>
				<path class="st17" d="M257.5,229.3c1.3,3.4,5.5,4.2,5.7-0.3c0.1-2.7-2.1-7.9-5.4-6.4C255,223.8,256.8,227.3,257.5,229.3z"/>
				<linearGradient id="SVGID_13_" gradientUnits="userSpaceOnUse" x1="268.9862" y1="213.7109" x2="268.1726" y2="281.2362">
					<stop  offset="0" style="stop-color:#C7D3E4"/>
					<stop  offset="1" style="stop-color:#A0B2C4"/>
				</linearGradient>
				<path class="st18" d="M268.3,249.7c2,1.4,2.3-3.1,2.1-4.2c-0.2-1.5,0-5.5-2.2-5.7C265.6,239.5,267,248.8,268.3,249.7z"/>
				<linearGradient id="SVGID_14_" gradientUnits="userSpaceOnUse" x1="189.3187" y1="215.7508" x2="189.3187" y2="282.4756">
					<stop  offset="0" style="stop-color:#D8E0EB"/>
					<stop  offset="1" style="stop-color:#A0B2C4"/>
				</linearGradient>
				<path class="st19" d="M190.8,246.4c0.7-1.3,1.1-7.5-1.4-7.3C184.9,239.3,188.7,250.5,190.8,246.4z"/>
				<linearGradient id="SVGID_15_" gradientUnits="userSpaceOnUse" x1="228.6031" y1="215.7488" x2="228.6031" y2="282.476">
					<stop  offset="0" style="stop-color:#D8E0EB"/>
					<stop  offset="1" style="stop-color:#A0B2C4"/>
				</linearGradient>
				<path class="st20" d="M233.5,264.8c0.6,1,0,2.2,0.4,3.2c0.9,2.4,3.7,3.9,4.7,6.3c1.4,3-4.1,6.2-6.4,6.8c-2.5,0.6-8.5,0.9-8.6-3
					c-0.1-3,2.2-5.3-0.3-8c-1.4-1.5-7.5-3.2-3.9-5.9c2-1.4,5.1-1.6,7.5-1.4C229.2,262.9,232.2,262.6,233.5,264.8z"/>
				<linearGradient id="SVGID_16_" gradientUnits="userSpaceOnUse" x1="198.7361" y1="215.7501" x2="198.7361" y2="282.476">
					<stop  offset="0" style="stop-color:#D8E0EB"/>
					<stop  offset="1" style="stop-color:#A0B2C4"/>
				</linearGradient>
				<path class="st21" d="M201.5,269c0.2-1.8-1.9-5.4-3.7-5.8c-3.7-0.9-0.8,5.6,0.6,6.5C199.7,270.6,201.3,270.7,201.5,269z"/>
			</g>
			<linearGradient id="SVGID_17_" gradientUnits="userSpaceOnUse" x1="213.3815" y1="253.7246" x2="213.1781" y2="244.5711">
				<stop  offset="0" style="stop-color:#DCE8F1"/>
				<stop  offset="1" style="stop-color:#BECCDE"/>
			</linearGradient>
			<ellipse class="st22" cx="213.3" cy="249.2" rx="4.6" ry="4.9"/>
			<linearGradient id="SVGID_18_" gradientUnits="userSpaceOnUse" x1="242.5368" y1="234.7078" x2="242.3869" y2="227.9616">
				<stop  offset="0" style="stop-color:#DCE8F1"/>
				<stop  offset="1" style="stop-color:#BECCDE"/>
			</linearGradient>
			<ellipse class="st23" cx="242.5" cy="231.4" rx="3.4" ry="3.6"/>
			<linearGradient id="SVGID_19_" gradientUnits="userSpaceOnUse" x1="202.7145" y1="246.5057" x2="202.5646" y2="239.76">
				<stop  offset="0" style="stop-color:#DCE8F1"/>
				<stop  offset="1" style="stop-color:#BECCDE"/>
			</linearGradient>
			<ellipse class="st24" cx="202.6" cy="243.2" rx="3.4" ry="3.6"/>
			<linearGradient id="SVGID_20_" gradientUnits="userSpaceOnUse" x1="228.512" y1="211.6986" x2="224.4441" y2="208.4443">
				<stop  offset="0" style="stop-color:#EEF4F9"/>
				<stop  offset="1" style="stop-color:#D8E1EB"/>
			</linearGradient>
			<ellipse class="st25" cx="226.6" cy="210.2" rx="4.6" ry="2.1"/>
			<linearGradient id="SVGID_21_" gradientUnits="userSpaceOnUse" x1="242.493" y1="214.7773" x2="240.0522" y2="210.5059">
				<stop  offset="0" style="stop-color:#EEF4F9"/>
				<stop  offset="1" style="stop-color:#D8E1EB"/>
			</linearGradient>
			<path class="st26" d="M245.9,213.3c-0.2,1.1-2.3,1.8-4.8,1.4c-2.5-0.3-4.4-1.6-4.3-2.7c0.2-1.1,2.3-1.8,4.8-1.4
				C244.1,211,246,212.2,245.9,213.3z"/>
			
				<linearGradient id="SVGID_22_" gradientUnits="userSpaceOnUse" x1="897.6911" y1="1621.8455" x2="894.4441" y2="1616.1633" gradientTransform="matrix(0.8733 -0.4871 0.4871 0.8733 -1361.3969 -761.039)">
				<stop  offset="0" style="stop-color:#EEF4F9"/>
				<stop  offset="1" style="stop-color:#D8E1EB"/>
			</linearGradient>
			<path class="st27" d="M215.5,214.2c0.6,1.4-1.5,3.6-4.7,4.8c-3.2,1.2-6.2,1.1-6.7-0.4c-0.6-1.4,1.5-3.6,4.7-4.8
				C211.9,212.6,215,212.7,215.5,214.2z"/>
			<linearGradient id="SVGID_23_" gradientUnits="userSpaceOnUse" x1="213.9675" y1="261.6473" x2="213.8527" y2="256.4772">
				<stop  offset="0" style="stop-color:#DCE8F1"/>
				<stop  offset="1" style="stop-color:#BECCDE"/>
			</linearGradient>
			<circle class="st28" cx="213.9" cy="259.1" r="2.7"/>
			<linearGradient id="SVGID_24_" gradientUnits="userSpaceOnUse" x1="234.2753" y1="277.8169" x2="234.1016" y2="270.0041">
				<stop  offset="0" style="stop-color:#DCE8F1"/>
				<stop  offset="1" style="stop-color:#B0C0D6"/>
			</linearGradient>
			<ellipse class="st29" cx="234.2" cy="274" rx="5.9" ry="4.1"/>
			
				<linearGradient id="SVGID_25_" gradientUnits="userSpaceOnUse" x1="118.2419" y1="1536.9103" x2="118.1365" y2="1532.1698" gradientTransform="matrix(1.1585 -0.7758 0.2782 0.4155 -308.9311 -269.0187)">
				<stop  offset="0" style="stop-color:#DCE8F1"/>
				<stop  offset="1" style="stop-color:#BECCDE"/>
			</linearGradient>
			<path class="st30" d="M259,274.2c0.4,0.6-1.1,2.3-3.4,3.8c-2.3,1.5-4.4,2.3-4.8,1.7c-0.4-0.6,1.1-2.3,3.4-3.8
				C256.5,274.3,258.6,273.6,259,274.2z"/>
			
				<linearGradient id="SVGID_26_" gradientUnits="userSpaceOnUse" x1="-1059.6859" y1="-3193.2104" x2="-1059.7913" y2="-3197.9517" gradientTransform="matrix(1.3035 0.4947 -0.1774 0.4675 1025.1677 2302.0078)">
				<stop  offset="0" style="stop-color:#DCE8F1"/>
				<stop  offset="1" style="stop-color:#BECCDE"/>
			</linearGradient>
			<path class="st31" d="M215.3,285.6c-0.2,0.7-2.5,0.4-5.1-0.6c-2.6-1-4.4-2.3-4.2-2.9c0.2-0.6,2.5-0.4,5.1,0.6
				C213.7,283.6,215.6,284.9,215.3,285.6z"/>
			<linearGradient id="SVGID_27_" gradientUnits="userSpaceOnUse" x1="252.1159" y1="215.7516" x2="252.1159" y2="282.4757">
				<stop  offset="0" style="stop-color:#D8E0EB"/>
				<stop  offset="1" style="stop-color:#A0B2C4"/>
			</linearGradient>
			<path class="st32" d="M260.2,245.1c-1.7-3.4-4.6-4.1-8.2-4.1c-2.5,0-5.5-0.8-7.5,1.1c-2.5,2.3,1.3,3.2,3.2,4.1
				c5.8,2.7,1.3,6.8,2.5,11.2c0.5,1.6,3.2,2.5,4.8,1.5c2-1.2,2.7-5.5,3.7-7.5C259.6,249.7,261.2,247.2,260.2,245.1z"/>
			<linearGradient id="SVGID_28_" gradientUnits="userSpaceOnUse" x1="204.5861" y1="215.7514" x2="204.5861" y2="282.4751">
				<stop  offset="0" style="stop-color:#D8E0EB"/>
				<stop  offset="1" style="stop-color:#A0B2C4"/>
			</linearGradient>
			<path class="st33" d="M207.1,232.1c1.6,0.3,5.8,1.7,5.5-1.3c-0.1-1.1-1.6-1.9-2.1-2.9c-0.5-1-0.6-2.2-0.5-3.3
				c0.1-1.9,1.7-5.8-1.4-6.1c-2.9-0.3-3.6,3.4-4.9,5.3c-1.5,2.2-3.8,1.8-5.6,3.5c-2.3,2.2-1.7,5.1,1.6,4.3c1.1-0.3,2.1-0.9,3.2-0.8
				C204.3,230.8,205.6,231.9,207.1,232.1z"/>
		</g>
	</g>
	<g>
		<g>
			<g>
				<path class="st34" d="M155.2,243.8c0,0-0.5,3.2-1.2,3.9c-0.8,0.8-4,1.3-4,1.3s3.2,0.5,3.9,1.3c0.7,0.8,1.2,3.9,1.2,3.9
					s0.5-3.1,1.2-3.9c0.8-0.8,3.9-1.3,3.9-1.3s-3.2-0.5-3.9-1.3C155.7,246.9,155.2,243.8,155.2,243.8z"/>
			</g>
		</g>
		<g>
			<g>
				<path class="st34" d="M257.7,292.6c0,0-0.7,4.6-1.7,5.7c-1.1,1.2-5.9,1.9-5.9,1.9s4.7,0.8,5.8,1.9c1.1,1.1,1.8,5.7,1.8,5.7
					s0.7-4.5,1.8-5.6c1.1-1.1,5.8-1.9,5.8-1.9s-4.7-0.8-5.8-1.9C258.5,297.2,257.7,292.6,257.7,292.6z"/>
			</g>
		</g>
		<g>
			<g>
				<path class="st34" d="M194.3,350.2c0,0-0.4,2.9-1.1,3.6c-0.7,0.8-3.7,1.2-3.7,1.2s2.9,0.5,3.6,1.2c0.7,0.7,1.1,3.6,1.1,3.6
					s0.4-2.9,1.1-3.5c0.7-0.7,3.6-1.2,3.6-1.2s-2.9-0.5-3.6-1.2C194.8,353,194.3,350.2,194.3,350.2z"/>
			</g>
		</g>
		<g>
			<g>
				<path class="st34" d="M295.9,248.1c0,0-0.3,2.1-0.8,2.6c-0.5,0.5-2.6,0.8-2.6,0.8s2.1,0.3,2.6,0.8c0.5,0.5,0.8,2.6,0.8,2.6
					s0.3-2,0.8-2.5c0.5-0.5,2.6-0.9,2.6-0.9s-2.1-0.3-2.6-0.9C296.3,250.2,295.9,248.1,295.9,248.1z"/>
			</g>
		</g>
		<polygon class="st34" points="286.8,285.1 285.1,284.6 283.8,285.8 283.7,284 282.2,283.1 283.8,282.5 284.2,280.8 285.3,282.1 
			287.1,282 286.1,283.5 		"/>
		<polygon class="st34" points="144.8,297.3 143.1,296.8 141.8,298 141.7,296.2 140.2,295.3 141.8,294.7 142.2,293 143.3,294.3 
			145.1,294.2 144.1,295.6 		"/>
		<polygon class="st34" points="143,233.9 141.3,233.5 140,234.6 139.9,232.9 138.4,232 140,231.3 140.4,229.6 141.5,231 
			143.3,230.8 142.3,232.3 		"/>
		<polygon class="st34" points="305.2,230.9 303.5,230.4 302.2,231.6 302.1,229.8 300.6,228.9 302.2,228.3 302.6,226.6 303.7,227.9 
			305.5,227.8 304.5,229.3 		"/>
		<polygon class="st34" points="154.9,269.2 154.2,269 153.6,269.4 153.6,268.7 153,268.3 153.6,268.1 153.8,267.4 154.3,267.9 
			155,267.9 154.6,268.5 		"/>
		<polygon class="st34" points="208.6,312 206.9,311.6 205.5,312.7 205.4,311 203.9,310.1 205.6,309.4 205.9,307.7 207.1,309.1 
			208.8,308.9 207.9,310.4 		"/>
		<polygon class="st34" points="267.1,279.3 266.4,279.2 265.8,279.6 265.8,278.9 265.1,278.5 265.8,278.2 266,277.5 266.4,278.1 
			267.2,278 266.8,278.6 		"/>
		<polygon class="st34" points="294.2,265.3 293.5,265.1 293,265.6 292.9,264.9 292.3,264.5 293,264.2 293.1,263.5 293.6,264.1 
			294.3,264 293.9,264.6 		"/>
		<polygon class="st34" points="208.8,356.8 208.1,356.7 207.6,357.2 207.5,356.4 206.9,356 207.6,355.8 207.8,355.1 208.2,355.6 
			209,355.5 208.6,356.2 		"/>
		<polygon class="st34" points="248.1,351.7 247.4,351.5 246.8,352 246.8,351.3 246.2,350.9 246.8,350.6 247,349.9 247.5,350.5 
			248.2,350.4 247.8,351 		"/>
		<polygon class="st34" points="315.4,310.5 314.7,310.3 314.1,310.8 314.1,310 313.5,309.7 314.1,309.4 314.3,308.7 314.8,309.2 
			315.5,309.2 315.1,309.8 		"/>
		<polygon class="st34" points="201.1,322.2 200.4,322 199.9,322.5 199.8,321.8 199.2,321.4 199.9,321.1 200,320.4 200.5,321 
			201.2,320.9 200.8,321.6 		"/>
		<polygon class="st34" points="170.1,346.3 168.4,345.8 167.1,347 167,345.2 165.5,344.3 167.1,343.7 167.5,342 168.6,343.3 
			170.4,343.2 169.4,344.6 		"/>
		<polygon class="st34" points="290.7,318.7 290,318.5 289.5,319 289.4,318.3 288.8,317.9 289.5,317.6 289.6,316.9 290.1,317.5 
			290.8,317.4 290.4,318 		"/>
		<polygon class="st34" points="293,337.2 292.3,337 291.8,337.5 291.7,336.8 291.1,336.4 291.8,336.1 291.9,335.4 292.4,336 
			293.1,335.9 292.7,336.6 		"/>
		<polygon class="st34" points="231.5,265.8 230.7,265.6 230.2,266.1 230.1,265.4 229.5,265 230.2,264.7 230.4,264 230.8,264.6 
			231.6,264.5 231.2,265.1 		"/>
		<polygon class="st34" points="203,278.8 201.2,278.4 199.9,279.5 199.8,277.8 198.3,276.9 199.9,276.2 200.3,274.5 201.5,275.9 
			203.2,275.7 202.3,277.2 		"/>
		<polygon class="st34" points="232.9,277.8 232.2,277.6 231.6,278.1 231.6,277.4 231,277 231.6,276.7 231.8,276 232.3,276.6 
			233,276.5 232.6,277.1 		"/>
		<polygon class="st34" points="253.9,193.3 253.2,193.1 252.6,193.6 252.6,192.8 251.9,192.5 252.6,192.2 252.8,191.5 253.2,192.1 
			254,192 253.6,192.6 		"/>
		<g>
			<radialGradient id="SVGID_29_" cx="226.8537" cy="227.84" r="163.9468" gradientUnits="userSpaceOnUse">
				<stop  offset="0" style="stop-color:#9EB4CB"/>
				<stop  offset="6.018852e-002" style="stop-color:#9BB0C9"/>
				<stop  offset="0.1276" style="stop-color:#91A5C4"/>
				<stop  offset="0.1986" style="stop-color:#8393BC"/>
				<stop  offset="0.272" style="stop-color:#717DB1"/>
				<stop  offset="0.3473" style="stop-color:#5964A5"/>
				<stop  offset="0.4231" style="stop-color:#3E4797"/>
				<stop  offset="0.4634" style="stop-color:#2E368F"/>
				<stop  offset="0.5676" style="stop-color:#2D3283"/>
				<stop  offset="0.7719" style="stop-color:#292967"/>
				<stop  offset="1" style="stop-color:#1D1A45"/>
			</radialGradient>
			<path class="st35" d="M282.8,302.3c0.4-0.9,0.7-1.8,0.9-2.8c1.1-7.6-7.5-15.1-19.2-16.8c-0.5-0.1-1-0.1-1.5-0.2
				c0.3-6.1-4.4-13.5-12.3-18.4c-6.5-4-13.6-5.3-18.9-3.9c-5.6-4.5-14.2-6.7-23.2-5.3c-14.7,2.3-25.1,13.3-23.4,24.5
				c0,0.1,0,0.2,0.1,0.3c-1.5-0.6-3-0.9-4.7-0.9c-7,0-12.6,5.5-12.6,12.3c0,0,0,0,0,0.1c-10.5,1-18.7,9.3-18.7,19.4
				c0,10.8,9.3,19.5,20.8,19.5c4.2,0,8-1.2,11.3-3.1c1.6,3.6,5,6.3,9.2,7.1c4.7,0.8,9.2-1.1,12-4.6c4.8,6.7,14.3,10.5,24.5,8.9
				c9.1-1.4,16.4-6.9,19.6-13.7c1.8,2.5,4.6,4.3,7.9,4.9c4.3,0.8,8.5-0.8,11.3-3.7c2.9,1.6,6.4,2.8,10.2,3.3
				c11.7,1.7,22.1-3.1,23.2-10.7C300.1,311.6,293,304.7,282.8,302.3z"/>
			<path class="st36" d="M190.2,281.5c0.1,0.8,0.3,1.5,0.6,2.3c-1.1-1.7-1.9-3.6-2.2-5.6c-1.5-9.8,7.6-19.3,20.4-21.4
				c11.8-1.9,16.7,1.1,21.6,7.8c-6.3-3.9-9.8-6-20-4.4C197.8,262.1,188.7,271.7,190.2,281.5z M249.8,265.8
				c-8.9-5.4-18.9-5.2-22.4,0.6c-0.8,1.3-1.2,2.9-1.2,4.5c0.2-1,0.5-1.9,1-2.8c3.3-5.4,12.8-5.7,21.2-0.5
				c8.4,5.1,12.4,13.7,9.1,19.1c-1.1,1.8-3,3-5.2,3.7c3.2-0.5,5.8-1.9,7.3-4.3C263,280.3,258.7,271.2,249.8,265.8z M265.7,285.2
				c-2.1-0.3-4.2-0.3-6.2-0.2c0.7,0.1,1.4,0.1,2,0.2c11.3,1.6,19.6,8.9,18.5,16.2c-0.1,0.6-0.3,1.2-0.5,1.8c1-1.2,1.7-2.6,2-4.1
				C282.4,292.8,275.3,286.6,265.7,285.2z M171.6,325.7c1.3,0,2.6-0.2,3.8-0.4c-2.1,0.8-4.3,1.3-6.7,1.3c-9.4,0-17.1-7.2-17.1-16
				c0-8.8,7.6-16,17.1-16c1,0,1.9,0.1,2.9,0.2c-8.9,0-16.1,6.9-16.1,15.5C155.5,318.8,162.7,325.7,171.6,325.7z M191.4,330.5
				c-5.3-0.9-8.9-7-8.8-12.1c-0.3,0.7-0.5,1.4-0.6,2.1c-1,5.8,2.9,11.3,8.7,12.3c5.8,1,11.4-2.8,12.4-8.6c0.1-0.5,0.1-1.1,0.1-1.6
				C201.4,327.2,196.5,331.4,191.4,330.5z M245.2,315.4c-0.2-1.3-0.6-2.5-1.1-3.7c0.1,0.2,0.1,0.5,0.2,0.7c1.5,9.7-6.5,19.1-18,20.9
				c-11.5,1.8-22-4.6-23.5-14.3c0-0.3-0.1-0.6-0.1-0.8c-0.1,1.3-0.1,2.6,0.1,3.9c1.5,9.7,12.3,16.1,24,14.3
				C238.5,334.5,246.7,325.1,245.2,315.4z M254.9,327.2c-3.3-0.6-6.1-2.4-7.9-4.9c1.6,3.1,4.5,5.4,8.2,6c5.1,0.9,9.9-1.7,12.2-6
				C264.5,326,259.8,328.1,254.9,327.2z M182.7,281.4c1.3,0,2.5,0.2,3.7,0.6c-1.8-1.3-3.9-2-6.3-2c-5.9,0-10.7,4.7-10.7,10.4
				c0,0.6,0.1,1.1,0.2,1.6C170.8,285.9,176.2,281.4,182.7,281.4z M281.6,304c8.2,2.9,13.5,8,12.7,13.1c-1,6.7-12.5,10.7-25.5,8.9
				c0,0,0,0,0,0c2,0.7,4.1,1.2,6.4,1.5c11.1,1.5,21-2.7,22.1-9.3C298.2,312.1,291.3,306.1,281.6,304z M204.8,318.3
				c-0.6-4.1,0.6-8.1,3.1-11.6c-4.5,3.8-6.9,9.1-6.1,14.6c1.4,9.1,11.5,15.1,22.4,13.4c3.6-0.6,6.9-1.9,9.6-3.8
				c-1.5,0.5-3.1,0.9-4.7,1.2C217.2,334,206.3,327.8,204.8,318.3z"/>
		</g>
		<g>
			<radialGradient id="SVGID_30_" cx="283.3427" cy="247.8264" r="68.5825" gradientUnits="userSpaceOnUse">
				<stop  offset="0" style="stop-color:#9EB4CB"/>
				<stop  offset="6.018852e-002" style="stop-color:#9BB0C9"/>
				<stop  offset="0.1276" style="stop-color:#91A5C4"/>
				<stop  offset="0.1986" style="stop-color:#8393BC"/>
				<stop  offset="0.272" style="stop-color:#717DB1"/>
				<stop  offset="0.3473" style="stop-color:#5964A5"/>
				<stop  offset="0.4231" style="stop-color:#3E4797"/>
				<stop  offset="0.4634" style="stop-color:#2E368F"/>
				<stop  offset="0.5676" style="stop-color:#2D3283"/>
				<stop  offset="0.7719" style="stop-color:#292967"/>
				<stop  offset="1" style="stop-color:#1D1A45"/>
			</radialGradient>
			<path class="st37" d="M306.7,279c0.2-0.4,0.3-0.8,0.4-1.2c0.5-3.2-3.1-6.3-8-7c-0.2,0-0.4,0-0.6-0.1c0.1-2.6-1.9-5.7-5.2-7.7
				c-2.7-1.7-5.7-2.2-7.9-1.6c-2.4-1.9-5.9-2.8-9.7-2.2c-6.1,1-10.5,5.6-9.8,10.2c0,0,0,0.1,0,0.1c-0.6-0.2-1.3-0.4-2-0.4
				c-2.9,0-5.3,2.3-5.3,5.2c0,0,0,0,0,0c-4.4,0.4-7.8,3.9-7.8,8.1c0,4.5,3.9,8.2,8.7,8.2c1.7,0,3.4-0.5,4.7-1.3
				c0.7,1.5,2.1,2.7,3.8,3c2,0.3,3.9-0.5,5-1.9c2,2.8,6,4.4,10.2,3.7c3.8-0.6,6.9-2.9,8.2-5.7c0.8,1,1.9,1.8,3.3,2.1
				c1.8,0.3,3.6-0.3,4.7-1.6c1.2,0.7,2.7,1.2,4.3,1.4c4.9,0.7,9.2-1.3,9.7-4.5C314,282.9,311,280,306.7,279z"/>
			<path class="st36" d="M268,270.3c0,0.3,0.1,0.6,0.2,0.9c-0.5-0.7-0.8-1.5-0.9-2.3c-0.6-4.1,3.2-8.1,8.5-8.9c4.9-0.8,7,0.5,9,3.3
				c-2.6-1.6-4.1-2.5-8.4-1.8C271.2,262.2,267.4,266.2,268,270.3z M293,263.7c-3.7-2.3-7.9-2.2-9.4,0.2c-0.3,0.6-0.5,1.2-0.5,1.9
				c0.1-0.4,0.2-0.8,0.4-1.2c1.4-2.3,5.4-2.4,8.9-0.2c3.5,2.2,5.2,5.7,3.8,8c-0.5,0.8-1.2,1.3-2.2,1.5c1.3-0.2,2.4-0.8,3.1-1.8
				C298.5,269.8,296.7,266,293,263.7z M299.6,271.8c-0.9-0.1-1.8-0.1-2.6-0.1c0.3,0,0.6,0.1,0.9,0.1c4.7,0.7,8.2,3.7,7.7,6.8
				c0,0.3-0.1,0.5-0.2,0.7c0.4-0.5,0.7-1.1,0.8-1.7C306.6,275,303.6,272.4,299.6,271.8z M260.2,288.8c0.6,0,1.1-0.1,1.6-0.2
				c-0.9,0.3-1.8,0.5-2.8,0.5c-3.9,0-7.1-3-7.1-6.7c0-3.7,3.2-6.7,7.1-6.7c0.4,0,0.8,0,1.2,0.1c-3.7,0-6.7,2.9-6.7,6.5
				C253.5,285.9,256.5,288.8,260.2,288.8z M268.5,290.8c-2.2-0.4-3.7-2.9-3.7-5.1c-0.1,0.3-0.2,0.6-0.3,0.9
				c-0.4,2.4,1.2,4.7,3.6,5.2c2.4,0.4,4.8-1.2,5.2-3.6c0-0.2,0-0.5,0.1-0.7C272.7,289.4,270.6,291.2,268.5,290.8z M291,284.5
				c-0.1-0.5-0.2-1.1-0.5-1.5c0,0.1,0.1,0.2,0.1,0.3c0.6,4.1-2.7,8-7.5,8.7c-4.8,0.8-9.2-1.9-9.8-6c0-0.1,0-0.2,0-0.3
				c-0.1,0.5-0.1,1.1,0,1.6c0.6,4.1,5.1,6.7,10,6C288.2,292.4,291.7,288.5,291,284.5z M295.1,289.4c-1.4-0.2-2.5-1-3.3-2
				c0.7,1.3,1.9,2.3,3.4,2.5c2.1,0.4,4.2-0.7,5.1-2.5C299.1,288.9,297.1,289.8,295.1,289.4z M264.9,270.2c0.5,0,1,0.1,1.5,0.2
				c-0.7-0.5-1.6-0.9-2.6-0.9c-2.5,0-4.5,2-4.5,4.4c0,0.2,0,0.5,0.1,0.7C259.9,272.1,262.1,270.2,264.9,270.2z M306.2,279.7
				c3.4,1.2,5.7,3.4,5.3,5.5c-0.4,2.8-5.2,4.5-10.7,3.7c0,0,0,0,0,0c0.8,0.3,1.7,0.5,2.7,0.6c4.7,0.6,8.8-1.1,9.2-3.9
				C313.2,283.1,310.3,280.6,306.2,279.7z M274.1,285.7c-0.3-1.7,0.2-3.4,1.3-4.8c-1.9,1.6-2.9,3.8-2.5,6.1c0.6,3.8,4.8,6.3,9.4,5.6
				c1.5-0.2,2.9-0.8,4-1.6c-0.6,0.2-1.3,0.4-2,0.5C279.3,292.2,274.8,289.6,274.1,285.7z"/>
		</g>
	</g>
</g>
<g>
	<g>
		<linearGradient id="SVGID_31_" gradientUnits="userSpaceOnUse" x1="758.6652" y1="141.1514" x2="958.8428" y2="141.1514">
			<stop  offset="0" style="stop-color:#FFFFFF;stop-opacity:0"/>
			<stop  offset="4.017906e-002" style="stop-color:#FDEBEE;stop-opacity:4.051906e-002"/>
			<stop  offset="0.1257" style="stop-color:#FAC6CE;stop-opacity:0.1267"/>
			<stop  offset="0.2187" style="stop-color:#F7A7B2;stop-opacity:0.2205"/>
			<stop  offset="0.3192" style="stop-color:#F58D9C;stop-opacity:0.3219"/>
			<stop  offset="0.4302" style="stop-color:#F3798A;stop-opacity:0.4338"/>
			<stop  offset="0.5573" style="stop-color:#F26C7E;stop-opacity:0.562"/>
			<stop  offset="0.7143" style="stop-color:#F16377;stop-opacity:0.7204"/>
			<stop  offset="0.9916" style="stop-color:#F16175"/>
		</linearGradient>
		<rect x="758.7" y="128.8" class="st38" width="200.2" height="24.7"/>
		<g>
			<g>
				<path class="st6" d="M898.9,145.7c-4.3,0-5.9-2-5.9-5.1c0-2.9,1.8-5.5,5.8-5.5c2.6,0,4.6,0.8,4.6,0.8v7.6h2.2v2.3H898.9z
					 M895.3,132.2c0-0.8,0.6-1.5,1.5-1.5c0.8,0,1.5,0.7,1.5,1.5c0,0.8-0.6,1.5-1.5,1.5C895.9,133.7,895.3,133,895.3,132.2z
					 M900.6,137.8c0,0-0.8-0.4-2.1-0.4c-1.7,0-2.6,1.3-2.6,3c0,2,1,3.1,3.3,3.1h1.4V137.8z M898.9,132.2c0-0.8,0.6-1.5,1.5-1.5
					c0.8,0,1.5,0.7,1.5,1.5c0,0.8-0.6,1.5-1.5,1.5C899.6,133.7,898.9,133,898.9,132.2z"/>
				<path class="st6" d="M905.2,143.4h4.1v-8.1h2.9v10.3h-7V143.4z M907.1,150.5c-0.8,0-1.5-0.7-1.5-1.5c0-0.8,0.6-1.5,1.5-1.5
					c0.8,0,1.5,0.7,1.5,1.5C908.6,149.8,908,150.5,907.1,150.5z M910.8,150.5c-0.8,0-1.5-0.7-1.5-1.5c0-0.8,0.6-1.5,1.5-1.5
					c0.8,0,1.5,0.7,1.5,1.5C912.2,149.8,911.6,150.5,910.8,150.5z"/>
				<path class="st6" d="M912.4,151.1l0.2-2.3c0.5,0.2,1.1,0.3,1.8,0.3c1.5,0,2.4-0.7,2.4-3.1v-10.6h2.9v8.1h2.2v2.3h-2.2v0.1
					c0,2.8-0.9,5.5-5.4,5.5C913.6,151.3,912.9,151.2,912.4,151.1z"/>
				<path class="st6" d="M921.5,145.7v-2.3h1.9c0.6,0,1,0.1,1,0.1s-0.6-0.6-0.6-1.5c0-2.1,1.5-3.7,4.2-3.7c2.9,0,4,2,4,4.5v0.6h2.3
					v-0.3c0-4.6-1.8-6.8-6.2-6.8c-1.5,0-3.3,0.4-4.7,0.8l-0.3-2c1.6-0.5,3.6-0.9,5.3-0.9c5.5,0,8.6,2.6,8.6,9.1v0.1h1.6v2.3H921.5z
					 M929.6,142.8c0-1.6-0.6-2.7-1.9-2.7c-1,0-1.6,0.7-1.6,1.6c0,1.1,0.9,1.8,2.1,1.8h1.4V142.8z"/>
				<path class="st6" d="M938.4,143.4h8.5c0.1-0.5,0.1-1.1,0.1-1.7c0-2.8-1.1-4.2-4.3-4.2c-0.9,0-1.7,0.1-2.5,0.2v-2.3
					c0.9-0.1,1.9-0.2,2.8-0.2c5,0,6.9,2.2,6.9,6.4c0,1.1-0.1,2.5-0.4,4.1h-11.1V143.4z M942.1,149c0-0.8,0.7-1.5,1.5-1.5
					s1.5,0.7,1.5,1.5c0,0.8-0.7,1.5-1.5,1.5S942.1,149.9,942.1,149z"/>
			</g>
		</g>
		<g>
			<path class="st1" d="M728.7,133.2c0.1,0.4,0.2,0.8,0.2,1.1c0,0.9-0.6,1.7-1.9,2.2l-4.9,1.9c-1.5,0.6-2.8,1.1-2.8,2
				c0,0.1,0,0.1,0,0.2l-0.2,0.1c-0.1-0.4-0.2-0.8-0.2-1.1c0-0.9,0.5-1.7,1.9-2.3l4.9-1.9c1.7-0.7,2.8-1.1,2.8-2.2L728.7,133.2z"/>
			<path class="st1" d="M734.8,123.5v3.3h-12.2c-4.1,0-5.6-2-5.8-5h0.4c0.4,1.4,1.1,1.7,5.9,1.8h0.4c-1.9-1.7-2.8-3.9-2.8-6.4l0.1-1
				c0-1.6,1.3-2.9,3-2.9h10.5v3.1h-10.4v0.9c0,3.5,2.7,5.9,6.5,6.3H734.8z"/>
			<path class="st1" d="M743.6,116.5c0,4.1,3,7.1,6.7,7.1h1.4v3.3h-1.4c-5.5,0-10-5.2-10-10.3V95.3c0-4.2,2.1-5.8,5.4-5.9v0.5
				c-1.7,0.2-2.1,2.8-2.1,5.6c0,0.6,0,1.2,0,1.9v18V116.5z"/>
			<path class="st1" d="M789,117.6c0,3.3,2.5,5.9,6,5.9v3.3c-3.3,0-6-1.5-7.7-4.1c-1.5,2.4-4.4,4.1-7.5,4.1c-3.2,0-6.2-1.8-7.8-4.3
				c-1.7,2.6-4.2,4.3-7.9,4.3c-2.4,0-4.4-0.8-6.2-2.2c-1,1.7-2.2,2.1-3,2.2h-3.5v-3.3h2.4c0.5,0,0.9-0.4,1.1-1.1v-17.3h3.3v12
				c0,3.6,2.8,6.4,6,6.4c3.3,0,5.8-2.4,5.9-5.9v-12.6h3.3v11.6c0,3.7,2.7,6.8,6,6.8c3.2,0,6.2-2.2,6.2-5.9v-7.4
				c0-4.9,2.6-5.8,5.1-5.9v0.6c-1.8,0.3-1.8,3.6-1.8,7V117.6z M768.9,100.2l-2.8-2.8l2.8-2.9l2.9,2.9L768.9,100.2z M771.7,96.6
				l-2.8-2.8l2.8-2.9l2.8,2.9L771.7,96.6z M774.6,100.2l-2.8-2.8l2.8-2.9l2.8,2.9L774.6,100.2z"/>
			<path class="st1" d="M810.8,133.7c0.1,0.4,0.2,0.8,0.2,1.1c0,0.9-0.6,1.7-1.9,2.2l-4.9,1.9c-1.5,0.6-2.8,1.1-2.8,2
				c0,0.1,0,0.1,0,0.2l-0.2,0.1c-0.1-0.4-0.2-0.8-0.2-1.1c0-0.9,0.5-1.7,1.9-2.3l4.9-1.9c1.7-0.7,2.8-1.1,2.8-2.2L810.8,133.7z"/>
			<path class="st1" d="M824.6,126.8H795v-3.3h4.6c-1.7-1.7-2.5-4.1-2.5-6.3c0-5.1,4.5-9.6,9.7-9.6h6.9c3.4,0,6.8,0,7-2.2h0.5
				c0,3.4-1.9,5.4-5.8,5.4h-8.2c-4.2,0-7.1,2.7-7.1,6.4s2.8,6.2,6.7,6.3h17.9V126.8z"/>
			<path class="st1" d="M834.5,81.1c0.3-0.2,0.7-0.3,1.1-0.3V81c-0.7,0.1-0.7,1.2-0.7,2.4v2c0,1.7-1.4,3.1-3.1,3.1
				c-1.9,0-3.4-1.1-3.4-2.8v-1.2c0-1.8,1.6-3.4,3.4-3.4H834.5z M832,82.2c-1.4,0-2.5,1-2.5,2.3v1.2c0,0.9,1,1.7,2.3,1.7
				c1,0,2.1-0.9,2.1-2.1v-2.5c0-0.2,0-0.5,0.1-0.6H832z"/>
			<path class="st1" d="M828.2,88.7c3.1,0.1,5.3,1.7,5.3,6v21.6c0,4-2.5,7.9-6,9.6c-1.2,0.6-2.2,0.9-3,0.9v-3.3
				c2.4-0.2,5.8-2.8,5.8-7.3v-20c0-3.5,0-7-2.1-7.2V88.7z"/>
			<path class="st1" d="M841,96.8c0-5.7-0.2-7.3-2-7.5v-0.4c3.5,0.1,5.2,2.2,5.2,6.2v31.8H841V96.8z"/>
			<path class="st1" d="M868.1,81.2c-1.3,2.3-3.3,3.5-5.2,3.5c-1.4,0-2.8-0.7-3.7-1.8l0.1-0.1c0.7,0.9,1.8,1.4,3,1.4
				c1.7,0,3.6-1,4.9-3.4l0.3-0.6c-0.2,0-0.4,0.1-0.6,0.1c-1.8,0-3.1-1.7-3.1-3.1c0-0.4,0.1-0.8,0.3-1.1l0.6-1c0.6-1,1.7-1.6,2.8-1.6
				c0.5,0,1,0.1,1.5,0.4l-0.4,0.9c-0.4-0.2-0.8-0.3-1.2-0.3c-0.8,0-1.5,0.4-1.9,1.1l-0.5,1c-0.1,0.2-0.2,0.4-0.2,0.6
				c0,0.8,0.8,2,2.1,2c0.5,0,0.9-0.2,1.3-0.5l1.7-3.1l-1.4-0.8l0.4-0.9l2.2,1.2c0.3,0,0.7,0.1,1,0.3l-0.1,0.1c-0.1,0-0.2,0-0.2,0
				c-0.5,0-0.9,0.9-1.4,1.7l-0.9,1.6L868.1,81.2z"/>
			<path class="st1" d="M877.5,104.6c0.8-0.5,1.9-0.7,3.1-0.8v0.5c-2.1,0.3-2.1,3.7-2.1,7.2v6c0,5.2-4.3,9.3-9.4,9.3
				c-5.4,0-10.2-3.6-10.2-8.3v-3.6c0-5.5,4.8-10.3,10.3-10.3H877.5z M869.8,107.8c-4.3,0-7.4,3.2-7.4,7v3.6c0,2.6,2.9,5.1,6.8,5.1
				c3.3,0,6.2-2.8,6.2-6.1v-7.6c0-0.9,0-1.4,0.3-2H869.8z M865.4,100.3l-2.9-2.9l2.9-2.8l2.9,2.8L865.4,100.3z M871.2,100.3
				l-2.9-2.9l2.9-2.8l2.9,2.8L871.2,100.3z"/>
			<path class="st1" d="M916.4,126.8c-3.4,0-6.6-1.6-8.3-4.5c-1,2-4.5,4.5-8,4.5H883v-3.3h10.9v-13.1c0-3.7-0.2-7.2-2.2-7.5v-0.5
				c3.4,0.2,5.5,1.8,5.5,6.2v14.9h2.9c3.8,0,6.8-3.3,6.8-7.7V95.2c0-3.8-0.1-7.1-2.1-7.4v-0.5c3.3,0.1,5.4,1.8,5.4,6.1v24.7
				c0.3,3.3,2.8,5.2,6.2,5.5V126.8z"/>
			<path class="st1" d="M949.7,92.9c0.1,0.4,0.2,0.8,0.2,1.1c0,0.9-0.6,1.7-1.9,2.2l-4.9,1.9c-1.5,0.6-2.8,1.1-2.8,2
				c0,0.1,0,0.1,0,0.2l-0.2,0.1c-0.1-0.4-0.2-0.8-0.2-1.1c0-0.9,0.5-1.7,1.9-2.3l4.9-1.9c1.7-0.7,2.8-1.1,2.8-2.2L949.7,92.9z"/>
			<path class="st1" d="M958.8,126.8h-42.6v-3.3h2.8c0.6-0.3,0.9-1.1,0.9-2.5c0-3.4-0.8-6.6-3.2-8.8l0.4-0.3
				c2.2,2.1,3.7,4.7,4.4,7.3c0.7-8.2,8.8-14.5,19.3-14.5h6.9c6.1,0.5,11.2,6.1,11.1,12.4V126.8z M955.6,123.5V117
				c0-3.8-1.7-6.5-5.1-8.1c-1.4-0.6-3.3-0.9-6.2-0.9h-3.4c-11.1,0-18.8,6.2-18.8,14.5v1H955.6z"/>
		</g>
	</g>
</g>
</svg>
