<?xml version="1.0" encoding="utf-8"?>
<!-- Generator: Adobe Illustrator 19.2.0, SVG Export Plug-In . SVG Version: 6.00 Build 0)  -->
<svg version="1.1" id="Layer_1" xmlns="http://www.w3.org/2000/svg" xmlns:xlink="http://www.w3.org/1999/xlink" x="0px" y="0px"
	 viewBox="0 0 1024 768" style="enable-background:new 0 0 1024 768;" xml:space="preserve">
<style type="text/css">
	.st0{fill:url(#SVGID_1_);}
	.st1{fill:#622872;}
	.st2{fill:url(#SVGID_2_);}
	.st3{fill:#CA4977;}
	.st4{fill-rule:evenodd;clip-rule:evenodd;fill:#F6DFB4;}
	.st5{fill:#D2D3D4;}
	.st6{fill:#FFFFFF;}
	.st7{fill:#205B6A;}
	.st8{fill:url(#SVGID_3_);}
	.st9{fill:url(#SVGID_4_);}
	.st10{fill:url(#SVGID_5_);}
	.st11{fill:url(#SVGID_6_);}
	.st12{fill:url(#SVGID_7_);}
	.st13{fill:url(#SVGID_8_);}
	.st14{fill:url(#SVGID_9_);}
	.st15{fill:url(#SVGID_10_);}
	.st16{fill:url(#SVGID_11_);}
	.st17{fill:url(#SVGID_12_);}
	.st18{fill:url(#SVGID_13_);}
	.st19{fill:url(#SVGID_14_);}
	.st20{fill:url(#SVGID_15_);}
	.st21{fill:url(#SVGID_16_);}
	.st22{fill:url(#SVGID_17_);}
	.st23{fill:url(#SVGID_18_);}
	.st24{fill:url(#SVGID_19_);}
	.st25{fill:url(#SVGID_20_);}
	.st26{fill:url(#SVGID_21_);}
	.st27{fill:url(#SVGID_22_);}
	.st28{fill:url(#SVGID_23_);}
	.st29{fill:url(#SVGID_24_);}
	.st30{fill:url(#SVGID_25_);}
	.st31{fill:url(#SVGID_26_);}
	.st32{fill:url(#SVGID_27_);}
	.st33{fill:url(#SVGID_28_);}
	.st34{fill:#2B3C90;}
	.st35{fill:url(#SVGID_29_);}
	.st36{fill:#1D1A45;}
	.st37{fill:url(#SVGID_30_);}
	.st38{fill:url(#SVGID_31_);}
</style>
<g>
	<g>
		<g>
			<g>
				<linearGradient id="SVGID_1_" gradientUnits="userSpaceOnUse" x1="245.1853" y1="137.5353" x2="245.1853" y2="720.5262">
					<stop  offset="0" style="stop-color:#1F1A46"/>
					<stop  offset="0.1599" style="stop-color:#211E4C"/>
					<stop  offset="0.4318" style="stop-color:#26265D"/>
					<stop  offset="0.7806" style="stop-color:#2B337A"/>
					<stop  offset="0.9949" style="stop-color:#2B3C90"/>
				</linearGradient>
				<path class="st0" d="M395.4,266.3h-6.1c-1.8-28.2-25.9-59.6-71.7-93.4c-35-25.9-70.5-43.7-70.9-43.9c-1-0.5-2.2-0.5-3.1,0
					c-0.3,0.2-35.9,18-70.9,43.9c-45.7,33.8-69.8,65.2-71.7,93.4H95c-1.9,0-3.5,1.6-3.5,3.5V630h307.5V269.8
					C398.9,267.9,397.4,266.3,395.4,266.3z"/>
			</g>
		</g>
	</g>
</g>
<g>
	<path class="st1" d="M722.1,212.9c0-0.8,0.7-1.5,1.5-1.5c0.8,0,1.5,0.7,1.5,1.5c0,0.8-0.7,1.5-1.5,1.5
		C722.8,214.4,722.1,213.7,722.1,212.9z M722.1,220.3c0-0.8,0.7-1.5,1.5-1.5c0.8,0,1.5,0.7,1.5,1.5c0,0.8-0.7,1.5-1.5,1.5
		C722.8,221.9,722.1,221.2,722.1,220.3z"/>
	<path class="st1" d="M738.2,200.3l5.7-1.1v1.2l-5.7,1.1V200.3z M738.2,202.8l5.7-1.1v1.2l-5.7,1.1V202.8z"/>
	<path class="st1" d="M745.7,220.4c0,0.4-0.2,1.2-1.5,1.2c-2.1,0-3.7-0.6-4.1-2.9c-1.8,2.2-4.4,3-7.2,3l-0.8-1.7l0.1-0.1
		c2.3,0,4.3-0.5,5.9-1.6c-1.3-2.5-3.4-4.6-6.1-7.1l0.7-1.9l0.2-0.1c3,2.7,5.4,6.1,6.4,8.1c0.3-0.3,0.5-0.6,0.7-1v-10.7l1.7-0.4
		l0.1,0.1v12.1c0,1.9,0.8,2.3,2.8,2.3C745.5,219.7,745.7,220,745.7,220.4z"/>
	<path class="st1" d="M748.7,213.6c0.7,1.7,1.2,3.3,1.2,4.3c0,1-0.4,2.2-1.2,2.9c-0.6,0.6-1.6,0.8-3.8,0.8h-0.7l0.5-1.9h0.7
		c1.2,0,2.1-0.1,2.5-0.3c0.5-1.2-0.2-2.9-1-4.7l1.5-1.2H748.7z M745.4,209.8c0.4,0,0.8,0,1.2,0c-0.3-0.4-0.5-1-0.5-1.5
		c0-1.3,0.8-2.1,2.2-2.1c0.6,0,1.2,0.1,1.8,0.4l-0.4,1.4c-0.5-0.2-0.9-0.3-1.2-0.3c-0.7,0-1,0.5-1,1c0,0.4,0.2,0.8,0.5,1.1
		c0.8,0,1.7-0.1,2.4-0.2l0.1,1.3c-1.3,0.2-3,0.3-5,0.4L745.4,209.8z"/>
	<path class="st1" d="M753,217.7v-12l1.7-0.4l0.1,0.1v12.1c0,1.9,0.8,2.3,2.8,2.3c0.8,0,1,0.3,1,0.6c0,0.4-0.2,1.2-1.5,1.2
		C754.8,221.6,753,220.8,753,217.7z"/>
	<path class="st1" d="M766.2,216.4c0,2.3-0.4,3.6-1.5,4.4c-1.3,0.7-3.1,0.8-7.6,0.8l0.5-1.9c4.6,0,6.1-0.2,6.8-0.5
		c0.1-0.3,0.1-0.8,0.2-1.5c-0.7,0.2-1.6,0.3-2.5,0.3c-2.1,0-3.1-1.1-3.1-2.8c0-2.2,1.6-4.6,3.5-4.6
		C764.8,210.7,766.2,213.5,766.2,216.4z M761.2,208.1l-1.9-1.4l1.2-1.8l1.9,1.3L761.2,208.1z M762.5,216.2c0.8,0,1.5-0.1,2.2-0.2
		c-0.1-1.7-1.1-3.5-2.2-3.5c-0.9,0-1.9,1.2-1.9,2.5C760.6,215.9,761.3,216.2,762.5,216.2z M764.5,208.1l-1.9-1.4l1.2-1.8l1.9,1.3
		L764.5,208.1z"/>
	<path class="st1" d="M774.2,221.5l0.3-1.8l0.1-0.1c0.7,0.2,2.1,0.2,2.6,0.2c1.6,0,3.5-0.3,4-0.9c-0.3-1.9-1.9-4-3.7-5.8l1-1.8h0.2
		c2.4,2.6,4.1,5,4.1,6.9c0,2.4-2,3.5-5.7,3.5C776.6,221.7,775.2,221.7,774.2,221.5z"/>
	<path class="st1" d="M795.4,220.4c0,0.4-0.2,1.2-1.5,1.2h-1.8c-0.8,2.3-3,4.1-7,4.2l-1-1.4l0.1-0.2c3-0.1,5.2-1.1,6.1-2.7h-0.7
		c-3,0-4.4-1.2-4.4-3.1c0-2.2,1.6-4.7,3.5-4.7c2.2,0,3.6,2.7,3.6,5.7v0.1h1.9C795.2,219.7,795.4,220,795.4,220.4z M791,219.7v-0.1
		c0-2.1-1.1-3.8-2.2-3.8c-0.9,0-1.9,1-1.9,2.6c0,0.9,0.8,1.4,3.1,1.4H791z"/>
	<path class="st1" d="M810,220.4c0,0.4-0.2,1.2-1.4,1.2c-3.2,0-4.7-0.8-5.5-2.3c-0.8,0.2-1.7,0.5-2.7,0.9c-3.1,1.1-4.5,1.4-6.4,1.4
		l0.5-1.9c1.6,0,2.9-0.2,5.4-1.1c1.5-0.5,2.7-0.8,3.8-1c-0.4-0.2-0.9-0.5-1.7-0.8c-1.9-1-2.9-1.4-4-1.4c-0.9,0-1.7,0.2-2.4,0.5
		l-0.1-0.1l0.7-1.8c0.6-0.3,1.4-0.5,2.1-0.5c1.1,0,2.2,0.5,4.2,1.6c2.4,1.2,3.6,1.7,4.7,1.8l-0.4,1.7c-0.6,0.1-1.2,0.1-1.8,0.3
		c0.7,0.7,1.9,0.9,4,0.9C809.8,219.7,810,220,810,220.4z M799.9,223.5l2,1.3l-1.2,1.8l-2-1.4L799.9,223.5z"/>
	<path class="st1" d="M822.7,209c0,1.1-0.6,2.1-1.8,2.1c-0.6,0-1.2-0.2-1.4-0.6c-0.4,0.4-0.9,0.6-1.5,0.6c-1.5,0-1.8-1-1.8-1.9
		c0-0.3,0-0.7,0.2-1.2l1.1,0c-0.1,0.4-0.1,0.7-0.1,1c0,0.6,0.2,0.9,0.7,0.9c0.6,0,0.8-0.4,0.9-1.8l1.1-0.1c0,0.4,0,0.6,0,0.9
		c0,0.6,0.4,0.9,0.8,0.9c0.5,0,0.7-0.4,0.7-0.9c0-0.5-0.1-1-0.3-1.4l1.2-0.3C822.5,207.8,822.7,208.5,822.7,209z"/>
	<path class="st1" d="M829.2,220.4c0,0.4-0.2,1.2-1.4,1.2c-1,0-2.3-0.2-3.3-1c-0.7,0.7-1.7,1-2.9,1c-1,0-1.9-0.2-2.7-0.6
		c-0.5,0.4-1.2,0.6-2.2,0.6c-1.7,0-3-0.5-3.7-1.1c-0.9,0.7-2.2,1.1-4.4,1.1l0.5-1.9c1.5,0,2.5-0.1,3-0.5c0.3-0.4,0.6-1.3,1-2.5
		l2-0.3l0.1,0.1c-0.4,1-0.7,1.9-1.1,2.6c0.7,0.3,1.9,0.6,2.8,0.6c0.4,0,0.9-0.1,1.2-0.3c0.3-0.4,0.7-1.4,1.1-2.8l1.9-0.3l0.1,0.1
		c-0.4,1.2-0.7,2.2-1.1,2.9c0.5,0.2,1.1,0.3,1.7,0.3c0.6,0,1.2-0.1,1.6-0.4c0.2-0.3,0.4-1,0.4-2.2c0-0.4,0-0.8-0.1-1.3l1.7-0.6
		l0.2,0.1c0,0.4,0,0.7,0,1.1c0,1.1-0.1,1.9-0.3,2.6c0.5,0.3,1.4,0.7,2.9,0.7C829,219.7,829.2,220,829.2,220.4z"/>
	<path class="st1" d="M828.2,219.7c0.8,0,1.7,0,2.3-0.5c0.1-0.4,0.2-1,0.2-1.9v-11.7l1.7-0.4l0.2,0.1v11.9c0,3.5-1.8,4.4-4.8,4.4
		L828.2,219.7z"/>
	<path class="st1" d="M835.7,221.7v-16l1.8-0.5l0.1,0.1l0,16.1l-1.7,0.4L835.7,221.7z"/>
	<path class="st1" d="M862,220.4c0,0.4-0.2,1.2-1.5,1.2c-0.6,0-1.4-0.2-1.9-0.6c-0.5,3.4-3.3,5.1-6.9,5.1c-3.7,0-5.7-2.1-5.7-4.9
		c0-1,0.2-2.1,0.4-2.7l1.5-0.5l0.2,0.1c-0.2,0.8-0.2,1.6-0.2,2.2c0,2.4,0.9,4,4.2,4c2.7,0,3.9-1,4.6-1.8c0.8-1.8,0-3.6-1-6l1.7-1.2
		h0.1c0.3,0.8,0.7,2.3,1.2,3.2c0.5,1,1.2,1.4,2.2,1.4C861.7,219.7,862,220,862,220.4z M852.3,214.1l-2-1.4l1.2-1.8l2,1.3
		L852.3,214.1z"/>
	<path class="st1" d="M871.4,219.3c0,1.6-0.8,2.6-2.4,2.6c-1.2,0-3.1-0.6-4.8-1.8c-0.9,1.2-2,1.5-3.6,1.5l0.5-1.9
		c1.1,0,1.6-0.5,2.2-1.5c0.8-1.5,2-4.3,4.3-4.3S871.4,216.6,871.4,219.3z M867.4,215.8c-0.9,0-1.4,1.1-2.4,2.9
		c1.4,0.9,2.8,1.4,3.5,1.4c0.4,0,0.8-0.1,1-0.3C869.8,218.6,868.6,215.8,867.4,215.8z"/>
	<path class="st1" d="M879.6,221.1c0-1,0.2-2.1,0.4-2.7l1.5-0.5l0.2,0.1c-0.2,0.8-0.2,1.6-0.2,2.2c0,2.4,0.9,4,4.2,4
		c2,0,3.4-0.5,4.4-1.7c0.3-0.6,0.6-1.8,0.6-3.7v-13.1l1.7-0.4l0.2,0.1l0,13.2c0,5.4-2.5,7.5-7.2,7.5
		C881.5,226.1,879.6,224,879.6,221.1z"/>
	<path class="st1" d="M906.6,220.4c0,0.4-0.2,1.2-1.5,1.2c-1.1,0-1.9-0.3-2.5-1.3c-0.9,0.9-2.6,1.4-4.9,1.4c-0.5,0-1.9-0.1-2.8-0.3
		l0.3-1.8l0.1-0.1c0.8,0.2,2.1,0.2,2.6,0.2c1.5,0,3.1-0.3,3.9-0.9l-0.1-0.1c-0.4-0.8-2.2-4.3-3.2-6l1.4-1.5h0.2
		c0.7,1.5,2.4,5.4,2.8,6c0.9,1.9,1.4,2.3,2.7,2.3C906.4,219.7,906.6,220,906.6,220.4z"/>
	<path class="st1" d="M914.7,220.4c0,0.4-0.2,1.2-1.4,1.2c-1.5,0-2.9-0.3-3.9-1.2c-0.8,0.8-1.8,1.2-3.3,1.2h-0.8l0.5-1.9h0.7
		c0.7,0,1.4-0.1,1.8-0.5c0.3-0.5,0.7-1.6,1.2-3.6l1.8-0.5l0.2,0.1c-0.3,1.5-0.7,2.7-1.1,3.7c0.6,0.3,1.5,0.7,3.4,0.7
		C914.5,219.7,914.7,220,914.7,220.4z M909,212.5l-1.9-1.4l1.2-1.8l1.9,1.3L909,212.5z M912.4,212.5l-1.9-1.4l1.2-1.8l1.9,1.3
		L912.4,212.5z"/>
	<path class="st1" d="M924.6,219.3L924,221c-1.9,0.4-4.7,0.6-10.8,0.6l0.5-1.9c0.9,0,1.8,0,2.7,0c-0.6-0.9-1-2-1-3.1
		c0-2.5,2-4,4.6-4c1.2,0,2.4,0.4,3.2,0.8l-0.2,1.7l-0.1,0c-0.9-0.4-1.9-0.6-2.9-0.6c-1.6,0-2.6,0.8-2.6,2.1c0,0.9,0.5,2.1,1.4,3
		c2.1-0.1,3.9-0.2,5.6-0.4L924.6,219.3z"/>
	<path class="st1" d="M930.5,203.4c-1.2,0.1-2.7,0.3-4.6,0.3l-0.1-1.3c0.3,0,0.7,0,1.1,0c-0.3-0.4-0.4-0.9-0.4-1.4
		c0-1.2,0.7-1.9,2-1.9c0.5,0,1.1,0.1,1.7,0.3l-0.3,1.2c-0.5-0.1-0.8-0.2-1.1-0.2c-0.6,0-0.9,0.4-0.9,0.9c0,0.4,0.2,0.7,0.5,1
		c0.8,0,1.5-0.1,2.2-0.2L930.5,203.4z M929.1,205.2l0.1,0.1l0,16.1l-1.7,0.4l-0.1-0.1v-16L929.1,205.2z"/>
</g>
<linearGradient id="SVGID_2_" gradientUnits="userSpaceOnUse" x1="505.46" y1="323.4874" x2="1024" y2="323.4874">
	<stop  offset="0.1199" style="stop-color:#FFFFFF"/>
	<stop  offset="0.9969" style="stop-color:#FFF2D5"/>
</linearGradient>
<rect x="505.5" y="285" class="st2" width="518.5" height="77"/>
<g>
	<g>
		<path class="st3" d="M808.5,334.8c0-2.7,1.5-5.3,3.6-7.9l2.3,1.3c-1,1.4-1.9,2.8-1.9,3.9c0,1.5,1.8,1.3,1.8,3.4
			c0,1.3-1,2.8-2.8,2.8C809.5,338.3,808.5,337,808.5,334.8z"/>
		<path class="st3" d="M839.3,335c0,1.7-0.6,3.1-2.4,3.1c-1.3,0-2.2-0.2-2.9-0.5c-1.4,3.6-5.5,6.2-10.8,7.1l-2.4-3.3l0.3-0.4
			c5.7-1,9-3.3,10.1-5.6c-0.8-1.8-1.7-3.8-2.7-5.7l3.2-3.7h0.4l1.5,4.4c1,2.8,1.8,3.2,4.2,3.2C839,333.6,839.3,334.3,839.3,335z"/>
		<path class="st3" d="M851.4,335c0,1.7-0.6,3.1-2.4,3.1s-4.2-0.6-5.6-1.7c-1.4,1.1-3.2,1.7-5.8,1.7h-0.7l1-4.5h0.6
			c1.4,0,2.4-0.1,2.8-0.5c0.4-0.9,0.8-2.7,1.2-5l4.6-1.1l0.4,0.3c-0.5,2.2-1,4.1-1.7,5.7c1,0.4,2.4,0.7,4.1,0.7
			C851,333.6,851.4,334.3,851.4,335z M842.6,340.7l3.8,2.6L844,347l-3.9-2.7L842.6,340.7z"/>
		<path class="st3" d="M863.5,320l-7.6,3.8c5.8,3.9,6.9,6.1,6.9,8.1c0,3.6-2.7,6.2-10.1,6.2H849l1-4.5h2.3c2.8,0,5.7-0.4,6.7-0.9
			c0-1.7-4.2-4.5-7.7-6.7l-0.2-0.3l1-5l12.5-6.4l0.3,0.2L863.5,320z"/>
		<path class="st3" d="M876.9,310.9c-1.8,0.2-4.2,0.4-7,0.5l-0.3-2.6c0.5,0,1.1,0,1.7,0c-0.5-0.6-0.8-1.5-0.8-2.3
			c0-1.8,1.2-3.1,3.2-3.1c0.8,0,1.7,0.2,2.7,0.6l-0.6,2.3c-0.6-0.2-1.2-0.3-1.5-0.3c-0.8,0-1.2,0.4-1.2,1.2c0,0.5,0.3,1,0.7,1.5
			c1.1-0.1,2.1-0.1,3-0.3L876.9,310.9z M875.1,313.2l0.4,0.2l-0.1,24.1l-4.1,0.9l-0.3-0.2v-23.9L875.1,313.2z"/>
		<path class="st3" d="M920.8,313.2l0.3,0.2v16.9c0,6-3,7.7-7.9,7.8H913c0,0-0.1,0-0.1,0h-0.3c-1.3-0.1-3-0.5-4.1-2.1
			c-1.2,1.5-2.9,2-6.1,2.1h-0.2c0,0-0.1,0-0.1,0h-0.2c-2.4-0.1-4.3-0.8-5.4-2.4c-1.2,0.4-2.2,0.6-3.3,0.6c-4,0-6.4-1.9-6.4-4.6
			c0-3,3-6.3,8.6-8.2v-1.7l4.2-1.6l0.3,0.1v10.8c0,1.8,0.6,2.4,3.2,2.5c1,0,2-0.1,2.7-0.5c0.1-0.6,0.3-1.4,0.3-2.7v-12.3l4.2-1.1
			l0.3,0.2v13.1c0,2.7,0.8,3.1,3.3,3.2c1,0,2-0.1,2.7-0.5c0.1-0.6,0.3-1.4,0.3-2.7v-16.2L920.8,313.2z M895.3,331.8v-0.7v-3.4
			c-2.5,0.6-4.5,1.7-5,2.8c0.4,1,1.9,1.5,3.2,1.5C894.1,332,894.7,331.9,895.3,331.8z M902.7,311.8c0-0.5,0.1-1.5,0.3-2.1l2.4-0.1
			c-0.1,0.6-0.1,1.2-0.1,1.5c0,0.9,0.3,1.3,0.9,1.3c0.7,0,1-0.5,1-2.6l2.3-0.2c0,0.7,0,1.2,0,1.5c0,0.9,0.4,1.2,1,1.2
			c0.7,0,0.9-0.5,0.9-1.3c0-0.7-0.2-1.4-0.4-2.1l2.5-0.6c0.3,0.9,0.5,1.8,0.5,2.8c0,2.1-1.1,3.7-3.5,3.7c-0.9,0-1.7-0.4-2.1-0.9
			c-0.5,0.6-1.4,0.9-2.4,0.9C903.5,315,902.7,313.4,902.7,311.8z M909.8,307.6h-3.2V303h3.2V307.6z M930,313.4l-0.1,24.1l-4.1,0.9
			l-0.3-0.2v-23.9l4.2-1.1L930,313.4z"/>
	</g>
</g>
<path class="st4" d="M1024,42.2h-11.1v-6.6c0-1.7-1.1-3-2.6-3.5c1.4-1.1,2.3-2.9,2.3-4.8c0-3.4-2.8-6.2-6.2-6.2
	c-1,0-1.9,0.2-2.8,0.7c0.4-1.1,0.5-2.2,0.5-3.4c0-6.2-5-11.2-11.2-11.2c-6.2,0-11.2,5-11.2,11.2c0,1.2,0.2,2.4,0.5,3.4
	c-0.8-0.4-1.8-0.7-2.8-0.7c-3.4,0-6.2,2.8-6.2,6.2c0,1.9,0.9,3.6,2.3,4.8c-1.5,0.4-2.6,1.8-2.6,3.5v6.6h-10h-10v-6.6
	c0-1.7-1.1-3-2.6-3.5c1.4-1.1,2.3-2.9,2.3-4.8c0-3.4-2.8-6.2-6.2-6.2c-1,0-1.9,0.2-2.8,0.7c0.4-1.1,0.5-2.2,0.5-3.4
	c0-6.2-5-11.2-11.2-11.2c-6.2,0-11.2,5-11.2,11.2c0,1.2,0.2,2.4,0.5,3.4c-0.8-0.4-1.8-0.7-2.8-0.7c-3.4,0-6.2,2.8-6.2,6.2
	c0,1.9,0.9,3.6,2.3,4.8c-1.5,0.4-2.6,1.8-2.6,3.5v6.6h-10h-10v-6.6c0-1.7-1.1-3-2.6-3.5c1.4-1.1,2.3-2.9,2.3-4.8
	c0-3.4-2.8-6.2-6.2-6.2c-1,0-1.9,0.2-2.8,0.7c0.4-1.1,0.5-2.2,0.5-3.4c0-6.2-5-11.2-11.2-11.2c-6.2,0-11.2,5-11.2,11.2
	c0,1.2,0.2,2.4,0.5,3.4c-0.8-0.4-1.8-0.7-2.8-0.7c-3.4,0-6.2,2.8-6.2,6.2c0,1.9,0.9,3.6,2.3,4.8c-1.5,0.4-2.6,1.8-2.6,3.5v6.6h-10
	h-10v-6.6c0-1.7-1.1-3-2.6-3.5c1.4-1.1,2.3-2.9,2.3-4.8c0-3.4-2.8-6.2-6.2-6.2c-1,0-1.9,0.2-2.8,0.7c0.4-1.1,0.5-2.2,0.5-3.4
	c0-6.2-5-11.2-11.2-11.2c-6.2,0-11.2,5-11.2,11.2c0,1.2,0.2,2.4,0.5,3.4c-0.8-0.4-1.8-0.7-2.8-0.7c-3.4,0-6.2,2.8-6.2,6.2
	c0,1.9,0.9,3.6,2.3,4.8c-1.5,0.4-2.6,1.8-2.6,3.5v6.6h-10h-10v-6.6c0-1.7-1.1-3-2.6-3.5c1.4-1.1,2.3-2.9,2.3-4.8
	c0-3.4-2.8-6.2-6.2-6.2c-1,0-1.9,0.2-2.8,0.7c0.4-1.1,0.5-2.2,0.5-3.4c0-6.2-5-11.2-11.2-11.2c-6.2,0-11.2,5-11.2,11.2
	c0,1.2,0.2,2.4,0.5,3.4c-0.8-0.4-1.8-0.7-2.8-0.7c-3.4,0-6.2,2.8-6.2,6.2c0,1.9,0.9,3.6,2.3,4.8c-1.5,0.4-2.6,1.8-2.6,3.5v6.6h-10
	h-10v-6.6c0-1.7-1.1-3-2.6-3.5c1.4-1.1,2.3-2.9,2.3-4.8c0-3.4-2.8-6.2-6.2-6.2c-1,0-1.9,0.2-2.8,0.7c0.4-1.1,0.5-2.2,0.5-3.4
	c0-6.2-5-11.2-11.2-11.2c-6.2,0-11.2,5-11.2,11.2c0,1.2,0.2,2.4,0.5,3.4c-0.8-0.4-1.8-0.7-2.8-0.7c-3.4,0-6.2,2.8-6.2,6.2
	c0,1.9,0.9,3.6,2.3,4.8c-1.5,0.4-2.6,1.8-2.6,3.5v6.6h-10h-10v-6.6c0-1.7-1.1-3-2.6-3.5c1.4-1.1,2.3-2.9,2.3-4.8
	c0-3.4-2.8-6.2-6.2-6.2c-1,0-1.9,0.2-2.8,0.7c0.4-1.1,0.5-2.2,0.5-3.4c0-6.2-5-11.2-11.2-11.2c-6.2,0-11.2,5-11.2,11.2
	c0,1.2,0.2,2.4,0.5,3.4c-0.8-0.4-1.8-0.7-2.8-0.7c-3.4,0-6.2,2.8-6.2,6.2c0,1.9,0.9,3.6,2.3,4.8c-1.5,0.4-2.6,1.8-2.6,3.5v6.6h-10
	h-10v-6.6c0-1.7-1.1-3-2.6-3.5c1.4-1.1,2.3-2.9,2.3-4.8c0-3.4-2.8-6.2-6.2-6.2c-1,0-1.9,0.2-2.8,0.7c0.4-1.1,0.5-2.2,0.5-3.4
	c0-6.2-5-11.2-11.2-11.2c-6.2,0-11.2,5-11.2,11.2c0,1.2,0.2,2.4,0.5,3.4c-0.8-0.4-1.8-0.7-2.8-0.7c-3.4,0-6.2,2.8-6.2,6.2
	c0,1.9,0.9,3.6,2.3,4.8c-1.5,0.4-2.6,1.8-2.6,3.5v6.6h-10h-10v-6.6c0-1.7-1.1-3-2.6-3.5c1.4-1.1,2.3-2.9,2.3-4.8
	c0-3.4-2.8-6.2-6.2-6.2c-1,0-1.9,0.2-2.8,0.7c0.4-1.1,0.5-2.2,0.5-3.4c0-6.2-5-11.2-11.2-11.2c-6.2,0-11.2,5-11.2,11.2
	c0,1.2,0.2,2.4,0.5,3.4c-0.8-0.4-1.8-0.7-2.8-0.7c-3.4,0-6.2,2.8-6.2,6.2c0,1.9,0.9,3.6,2.3,4.8c-1.5,0.4-2.6,1.8-2.6,3.5v6.6h-10
	h-10v-6.6c0-1.7-1.1-3-2.6-3.5c1.4-1.1,2.3-2.9,2.3-4.8c0-3.4-2.8-6.2-6.2-6.2c-1,0-1.9,0.2-2.8,0.7c0.4-1.1,0.5-2.2,0.5-3.4
	c0-6.2-5-11.2-11.2-11.2c-6.2,0-11.2,5-11.2,11.2c0,1.2,0.2,2.4,0.5,3.4c-0.8-0.4-1.8-0.7-2.8-0.7c-3.4,0-6.2,2.8-6.2,6.2
	c0,1.9,0.9,3.6,2.3,4.8c-1.5,0.4-2.6,1.8-2.6,3.5v6.6h-10h-10v-6.6c0-1.7-1.1-3-2.6-3.5c1.4-1.1,2.3-2.9,2.3-4.8
	c0-3.4-2.8-6.2-6.2-6.2c-1,0-1.9,0.2-2.8,0.7c0.4-1.1,0.5-2.2,0.5-3.4c0-6.2-5-11.2-11.2-11.2c-6.2,0-11.2,5-11.2,11.2
	c0,1.2,0.2,2.4,0.5,3.4c-0.8-0.4-1.8-0.7-2.8-0.7c-3.4,0-6.2,2.8-6.2,6.2c0,1.9,0.9,3.6,2.3,4.8c-1.5,0.4-2.6,1.8-2.6,3.5v6.6h-10
	h-10v-6.6c0-1.7-1.1-3-2.6-3.5c1.4-1.1,2.3-2.9,2.3-4.8c0-3.4-2.8-6.2-6.2-6.2c-1,0-1.9,0.2-2.8,0.7c0.4-1.1,0.5-2.2,0.5-3.4
	c0-6.2-5-11.2-11.2-11.2c-6.2,0-11.2,5-11.2,11.2c0,1.2,0.2,2.4,0.5,3.4c-0.8-0.4-1.8-0.7-2.8-0.7c-3.4,0-6.2,2.8-6.2,6.2
	c0,1.9,0.9,3.6,2.3,4.8c-1.5,0.4-2.6,1.8-2.6,3.5v6.6h-10h-10v-6.6c0-1.7-1.1-3-2.6-3.5c1.4-1.1,2.3-2.9,2.3-4.8
	c0-3.4-2.8-6.2-6.2-6.2c-1,0-1.9,0.2-2.8,0.7c0.4-1.1,0.5-2.2,0.5-3.4c0-6.2-5-11.2-11.2-11.2c-6.2,0-11.2,5-11.2,11.2
	c0,1.2,0.2,2.4,0.5,3.4c-0.8-0.4-1.8-0.7-2.8-0.7c-3.4,0-6.2,2.8-6.2,6.2c0,1.9,0.9,3.6,2.3,4.8c-1.5,0.4-2.6,1.8-2.6,3.5v6.6h-10
	h-10v-6.6c0-1.7-1.1-3-2.6-3.5c1.4-1.1,2.3-2.9,2.3-4.8c0-3.4-2.8-6.2-6.2-6.2c-1,0-1.9,0.2-2.8,0.7c0.4-1.1,0.5-2.2,0.5-3.4
	c0-6.2-5-11.2-11.2-11.2c-6.2,0-11.2,5-11.2,11.2c0,1.2,0.2,2.4,0.5,3.4c-0.8-0.4-1.8-0.7-2.8-0.7c-3.4,0-6.2,2.8-6.2,6.2
	c0,1.9,0.9,3.6,2.3,4.8c-1.5,0.4-2.6,1.8-2.6,3.5v6.6h-10h-10v-6.6c0-1.7-1.1-3-2.6-3.5c1.4-1.1,2.3-2.9,2.3-4.8
	c0-3.4-2.8-6.2-6.2-6.2c-1,0-1.9,0.2-2.8,0.7c0.4-1.1,0.5-2.2,0.5-3.4c0-6.2-5-11.2-11.2-11.2c-6.2,0-11.2,5-11.2,11.2
	c0,1.2,0.2,2.4,0.5,3.4c-0.8-0.4-1.8-0.7-2.8-0.7c-3.4,0-6.2,2.8-6.2,6.2c0,1.9,0.9,3.6,2.3,4.8c-1.5,0.4-2.6,1.8-2.6,3.5v6.6h-10
	h-10v-6.6c0-1.7-1.1-3-2.6-3.5c1.4-1.1,2.3-2.9,2.3-4.8c0-3.4-2.8-6.2-6.2-6.2c-1,0-1.9,0.2-2.8,0.7c0.4-1.1,0.5-2.2,0.5-3.4
	c0-6.2-5-11.2-11.2-11.2c-6.2,0-11.2,5-11.2,11.2c0,1.2,0.2,2.4,0.5,3.4c-0.8-0.4-1.8-0.7-2.8-0.7c-3.4,0-6.2,2.8-6.2,6.2
	c0,1.9,0.9,3.6,2.3,4.8c-1.5,0.4-2.6,1.8-2.6,3.5v6.6h-10h-10v-6.6c0-1.7-1.1-3-2.6-3.5c1.4-1.1,2.3-2.9,2.3-4.8
	c0-3.4-2.8-6.2-6.2-6.2c-1,0-1.9,0.2-2.8,0.7c0.4-1.1,0.5-2.2,0.5-3.4c0-6.2-5-11.2-11.2-11.2c-6.2,0-11.2,5-11.2,11.2
	c0,1.2,0.2,2.4,0.5,3.4c-0.8-0.4-1.8-0.7-2.8-0.7c-3.4,0-6.2,2.8-6.2,6.2c0,1.9,0.9,3.6,2.3,4.8c-1.5,0.4-2.6,1.8-2.6,3.5v6.6H0
	V-1.6h1024V42.2z"/>
<g id="Layer_x0020_1_8_">
	<path class="st5" d="M34.9,718.4l43.9-1.7c0.3,0,0.6,0,1,0c0.7,0.1,1.3,0.4,1.8,0.9c0.5,0.5,0.9,1,0.9,1.7c0,0.2,0,0.5,0,0.8
		l-4.6,20.6c-0.2,0.9-0.6,1.7-1.3,2.2c-0.6,0.5-1.4,0.9-2.4,0.9L39,742.6c-1,0-1.7-0.3-2.4-0.9l0,0c-0.6-0.6-1.1-1.4-1.3-2.2
		l-4.1-17.7c0-0.1,0-0.1,0-0.2c-0.1-0.8,0.3-1.5,0.9-2.1c0.6-0.5,1.4-0.8,2.3-1C34.6,718.5,34.7,718.4,34.9,718.4z M76.9,719.5
		l-42,1.5c-0.1,0-0.2,0-0.3,0c-0.6,0.1-1.1,0.3-1.5,0.7c-0.3,0.3-0.6,0.7-0.5,1.1c0,0,0,0.1,0,0.1l3.8,16.5c0.1,0.6,0.4,1.2,0.9,1.6
		c0.4,0.3,0.8,0.5,1.4,0.5l34,1.2c0.6,0,1-0.2,1.4-0.5c0.4-0.4,0.7-0.9,0.9-1.6l4.3-19.3c0-0.1,0-0.3,0-0.4c0-0.3-0.2-0.7-0.5-0.9
		c-0.3-0.3-0.7-0.5-1.1-0.5C77.2,719.5,77.1,719.5,76.9,719.5z"/>
	<path class="st5" d="M41.9,723.1l12.9-1.4c0.1,0,0.3,0,0.4,0c0.3,0.1,0.6,0.2,0.8,0.4c0.2,0.2,0.4,0.5,0.4,0.8c0,0.1,0,0.2,0,0.3
		l-2.1,9.6c-0.1,0.4-0.3,0.8-0.6,1c-0.3,0.3-0.6,0.4-1.1,0.4h-8.9c-0.4,0-0.8-0.2-1.1-0.4h0c-0.3-0.3-0.5-0.6-0.6-1l-1.9-8.2
		c0,0,0-0.1,0-0.1c-0.1-0.4,0.1-0.7,0.4-1c0.3-0.2,0.7-0.4,1-0.5C41.8,723.1,41.8,723.1,41.9,723.1z M53.9,723l-12,1.3
		c0,0-0.1,0-0.1,0c-0.3,0-0.5,0.2-0.7,0.3c-0.2,0.1-0.3,0.3-0.2,0.5c0,0,0,0,0,0l1.8,7.6c0.1,0.3,0.2,0.5,0.4,0.7
		c0.2,0.1,0.4,0.2,0.6,0.2h8.3c0.3,0,0.5-0.1,0.6-0.2c0.2-0.2,0.3-0.4,0.4-0.7l2-8.9c0-0.1,0-0.1,0-0.2c0-0.2-0.1-0.3-0.2-0.4
		c-0.1-0.1-0.3-0.2-0.5-0.2C54.1,723,54,723,53.9,723z"/>
	<g id="_1849662416_8_">
		<path class="st6" d="M60.4,735.3l0.4-0.7l-0.7-0.4l0.4-0.7l-1.5-0.8l-0.9,1.5l0,0c0.3,0.1,0.5,0.3,0.7,0.4l-0.4,0.7l0.7,0.4
			l-0.8,1.5l0.7,0.4c-0.2,0.5-0.6,1.1-0.9,1.5l0,0c0.2,0.1,0.4,0.2,0.5,0.3c0.3,0.1,0.2,0.1,0,0.5c-0.2,0.4-0.4,0.8-0.7,1.1l0.7,0.4
			c0,0.2-0.7,1.2-0.8,1.5l5.9,3.4l0.9-1.5l0.8,0.4l1.3-2.2l0.7,0.4l3-5.2c-0.1-0.1-0.7-0.4-0.7-0.5c0-0.2,0.4-0.6,0.4-0.7
			c-0.1-0.1-0.5-0.4-0.7-0.4l-1.3,2.2l-0.7-0.4l1.7-3l-1.5-0.9l-1.3,2.2l-0.7-0.4l1.7-2.9c-0.1-0.1-1.3-0.8-1.5-0.9l-1.7,3l-0.7-0.4
			c0-0.1,0.1-0.1,0.1-0.2c1.2-2.1,2.5-4.3,3.7-6.5l-1.5-0.8l-4.7,8.1C60.9,735.7,60.4,735.3,60.4,735.3L60.4,735.3z"/>
		<path class="st7" d="M58.2,739c-0.1,0.1-0.1,0.2-0.2,0.3l-0.7,1.1c0.1,0.1,0.2,0.1,0.4,0.2c0.1,0.1,0.2,0.1,0.3,0.2
			c-0.4,0.8-0.8,1.5-1.2,2.2c0.6,0.4,1.2,0.7,1.8,1.1l3.7,2.2c0.6,0.4,1.3,0.7,1.9,1.1c0.1-0.2,0.1-0.3,0.3-0.5
			c0.1-0.2,0.4-0.6,0.5-0.9c0.1-0.1,0.1-0.1,0.2-0.3c0.1-0.2,0.2-0.4,0.3-0.6c0.1,0.2,0.5,0.3,0.7,0.4c0.4-0.7,0.8-1.4,1.3-2.2
			c0.2,0.1,0.4,0.2,0.6,0.3c0.1,0.1,0.1,0.1,0.2,0c0.2-0.3,0.3-0.6,0.5-0.9c0.3-0.6,0.7-1.1,1-1.7l1.4-2.5c-0.2-0.1-0.6-0.3-0.7-0.4
			l-3,5.2l-0.7-0.4l-1.3,2.2l-0.8-0.4l-0.9,1.5l-5.9-3.4c0.1-0.3,0.8-1.3,0.8-1.5l-0.7-0.4c0.2-0.4,0.4-0.8,0.7-1.1
			c0.2-0.4,0.2-0.3,0-0.5C58.6,739.2,58.4,739.1,58.2,739z"/>
		<path class="st7" d="M60.5,733.4l-0.4,0.7l0.7,0.4l-0.4,0.7l0.7,0.4l4.7-8.1l-0.7-0.4c0,0,0,0,0,0l0,0c0,0,0,0,0,0l-3.8,6.6
			C61,733.6,60.7,733.5,60.5,733.4z"/>
		<path class="st7" d="M67.3,728.5l-3.9,6.6l0.7,0.4l1.7-3c0.2,0,1.4,0.8,1.5,0.9c0.2,0.2,1.6,0.9,1.9,1.1c0,0,0.1,0-0.1-0.1
			l-1.5-0.8c-0.4-0.2-0.3-0.1,0.1-0.9l-1.1-0.6c-0.1-0.1-0.2-0.1-0.3-0.2l1.7-2.9c-0.2-0.1-0.3-0.2-0.6-0.4
			C67.4,728.5,67.4,728.5,67.3,728.5z"/>
		<path class="st7" d="M69.2,735.5l0.4-0.7c-0.1-0.1-0.2-0.2-0.4-0.2c-0.3-0.2-1.7-0.9-1.9-1.1l-1.7,2.9l0.7,0.4l1.3-2.2L69.2,735.5
			z"/>
		<path class="st7" d="M58.1,734c-0.1,0.1-0.1,0.1-0.2,0.3c-0.1,0.1-0.1,0.3-0.2,0.4l0.7,0.4c-0.1,0.2-0.7,1.3-0.8,1.5l0.7,0.4
			l-0.6,1.1c-0.1,0.2-0.1,0.2-0.2,0.4l0.7,0.4c0.3-0.4,0.7-1,0.9-1.5l-0.7-0.4l0.8-1.5l-0.7-0.4l0.4-0.7
			C58.6,734.3,58.4,734.1,58.1,734z"/>
		<path class="st7" d="M58.1,734l0.9-1.5l1.5,0.8l0.2-0.4c0.1-0.1,0.1-0.2,0.2-0.4l-2-1.1c-0.3-0.2-0.2-0.2-0.5,0.2l-0.9,1.6
			c-0.1,0.2-0.2,0.2,0,0.3C57.6,733.8,58,734,58.1,734z"/>
		<path class="st7" d="M70.2,737.1c0.1,0,0,0,0.1-0.1c0,0,0.1-0.1,0.1-0.1c0-0.2,0.2-0.4,0.3-0.6l-1.5-0.8l-1.7,3l0.7,0.4l1.3-2.2
			C69.7,736.7,70.1,736.9,70.2,737.1z"/>
		<path class="st7" d="M67.3,728.4c0.1-0.2,0.3-0.5,0.4-0.7l-1.5-0.8l-0.4,0.7L67.3,728.4z"/>
		<path class="st7" d="M70.2,737.1c0,0.2-0.4,0.6-0.4,0.7c0,0.1,0.6,0.4,0.7,0.5c0.2,0.1,0.5,0.3,0.7,0.4l-1.4,2.5l1.5-2.5l-0.7-0.4
			c0.1-0.1,0.1-0.2,0.2-0.4c0.1-0.1,0.2-0.3,0.2-0.4c-0.8-0.5-0.8-0.3-0.6-0.6c0,0-0.1,0.1-0.1,0.1
			C70.2,737.1,70.3,737.1,70.2,737.1z"/>
	</g>
	<path class="st5" d="M94.9,735.3h-2.5l2.1-7.2l-4.3,7.2h-2.6l-0.5-7.3l-1.8,7.3h-2.6l2.9-10.9h3.5l0.5,7.7l4.6-7.7h3.5L94.9,735.3z
		 M104.4,735.3h-5.6c-0.8,0-1.3-0.2-1.7-0.6c-0.4-0.4-0.4-1-0.2-1.8c0.3-0.9,0.7-1.6,1.3-2c0.6-0.4,1.5-0.6,2.6-0.6h2.5
		c0.1-0.4,0.1-0.7-0.1-0.8c-0.2-0.2-0.6-0.2-1.3-0.2h-3.6l0.5-2h4.3c1.1,0,1.9,0.3,2.3,0.8c0.4,0.5,0.5,1.3,0.2,2.3L104.4,735.3z
		 M102.4,733.3l0.3-1.2h-2.2c-0.4,0-0.7,0-0.9,0.1c-0.2,0.1-0.3,0.3-0.3,0.5c-0.1,0.2-0.1,0.3,0,0.4c0,0,0.1,0.1,0.2,0.1
		c0.1,0,0.3,0,0.5,0H102.4z M113.2,735.3h-2.4l1.3-4.9c0.1-0.5,0.2-0.8,0-1c-0.1-0.1-0.4-0.2-0.9-0.2h-1.4l-1.6,6.1h-2.4l2.2-8.1h4
		c1.2,0,2,0.2,2.4,0.7c0.4,0.5,0.5,1.2,0.2,2.3L113.2,735.3z M121.9,735.3h-2.4l1.3-4.9c0.1-0.5,0.1-0.8,0-0.9
		c-0.1-0.1-0.2-0.1-0.3-0.2c-0.1,0-0.3-0.1-0.6-0.1l-1.4,0l-1.6,6.1h-2.4l2.9-10.9h2.4l-0.8,2.8h1.6c1.2,0,2,0.2,2.4,0.7
		c0.4,0.5,0.5,1.2,0.2,2.3L121.9,735.3z M131.1,735.3h-5.6c-0.8,0-1.3-0.2-1.7-0.6c-0.4-0.4-0.4-1-0.2-1.8c0.3-0.9,0.7-1.6,1.3-2
		c0.6-0.4,1.5-0.6,2.6-0.6h2.5c0.1-0.4,0.1-0.7-0.1-0.8c-0.2-0.2-0.6-0.2-1.3-0.2h-3.6l0.5-2h4.3c1.1,0,1.9,0.3,2.3,0.8
		c0.4,0.5,0.5,1.3,0.2,2.3L131.1,735.3z M129.2,733.3l0.3-1.2h-2.2c-0.4,0-0.7,0-0.9,0.1c-0.2,0.1-0.3,0.3-0.3,0.5
		c-0.1,0.2,0,0.3,0,0.4c0,0,0.1,0.1,0.2,0.1c0.1,0,0.3,0,0.5,0H129.2z M135,735.3h-2.5l2.9-10.9h2.5L135,735.3z M140.6,735.3h-2.1
		l0.6-2.2h2.1L140.6,735.3z M148.4,735.3h-2.9c-0.4,0-0.7,0-1-0.1c-0.3,0-0.5-0.1-0.8-0.2c-0.4-0.1-0.8-0.4-1-0.8
		c-0.1-0.2-0.2-0.4-0.3-0.6c-0.1-0.2-0.2-0.5-0.2-0.7c0-0.3,0-0.5,0-0.8c0-0.3,0.1-0.6,0.2-0.9c0.2-0.6,0.4-1.2,0.8-1.7
		c0.3-0.5,0.7-1,1.3-1.4c0.4-0.3,0.9-0.6,1.4-0.7c0.5-0.2,1.1-0.2,1.9-0.2h2.9l-0.5,2h-2.3c-0.5,0-0.9,0-1.2,0.1
		c-0.3,0.1-0.6,0.2-0.8,0.4c-0.4,0.3-0.7,0.8-0.9,1.6c-0.1,0.4-0.1,0.8-0.1,1.1c0.1,0.3,0.1,0.6,0.4,0.7l0.4,0.2c0.1,0,0.3,0,0.4,0
		c0.1,0,0.4,0,0.6,0h2.3L148.4,735.3z M158.5,731.2c-0.3,1.3-1,2.3-2,3.1c-1,0.8-2.1,1.1-3.4,1.1c-1.3,0-2.2-0.4-2.8-1.1
		c-0.6-0.8-0.7-1.8-0.3-3.1c0.3-1.3,1-2.3,2-3c1-0.8,2.1-1.1,3.4-1.1c1.3,0,2.2,0.4,2.8,1.1C158.7,728.9,158.8,729.9,158.5,731.2z
		 M156,731.2c0.2-0.7,0.1-1.2-0.1-1.6c-0.2-0.4-0.6-0.6-1.1-0.6c-0.5,0-1,0.2-1.4,0.6c-0.4,0.4-0.7,0.9-0.9,1.6
		c-0.1,0.4-0.1,0.7-0.1,0.9c0,0.3,0.1,0.5,0.2,0.7c0.2,0.4,0.6,0.6,1.1,0.6c0.6,0,1-0.2,1.4-0.6C155.5,732.4,155.8,731.9,156,731.2z
		 M169.6,735.3h-2.4l1.3-4.9c0.1-0.5,0.2-0.8,0.1-1c-0.1-0.2-0.4-0.2-0.9-0.2l-0.9,0l-1.6,6.1h-2.4l1.6-6.1h-2l-1.6,6.1h-2.4
		l2.2-8.1h8c1.2,0,2,0.2,2.4,0.7c0.4,0.5,0.5,1.2,0.2,2.3L169.6,735.3z"/>
	<path class="st5" d="M27.9,727.2l21.2-2.2c0.2,0,0.5,0,0.7,0c0.5,0.1,1,0.3,1.4,0.7c0.4,0.3,0.6,0.8,0.7,1.3c0,0.2,0,0.4,0,0.6
		l-3.7,9.6c-0.1,0.7-0.5,1.3-1,1.7c-0.5,0.4-1.1,0.7-1.8,0.7H30.8c-0.7,0-1.3-0.3-1.8-0.7h0c-0.5-0.4-0.8-1.1-1-1.7l-2.9-7.4
		c0-0.1,0-0.1,0-0.2c-0.1-0.6,0.2-1.2,0.7-1.6c0.5-0.4,1.1-0.6,1.7-0.8C27.7,727.2,27.8,727.2,27.9,727.2z M47.6,727.1l-19.8,2.1
		c-0.1,0-0.2,0-0.2,0c-0.4,0.1-0.9,0.3-1.2,0.5c-0.3,0.2-0.4,0.5-0.4,0.8c0,0,0,0.1,0,0.1l2.7,6.5c0.1,0.5,0.3,0.9,0.7,1.2
		c0.3,0.2,0.6,0.4,1,0.4h13.6c0.4,0,0.8-0.1,1-0.4c0.3-0.3,0.5-0.7,0.7-1.2l3.4-8.6c0-0.1,0-0.2,0-0.3c0-0.3-0.2-0.5-0.4-0.7
		c-0.2-0.2-0.5-0.4-0.8-0.4C47.9,727.1,47.7,727.1,47.6,727.1z"/>
	<path class="st5" d="M87.6,720.9l-0.5,1.7h-0.6l1.2-4.5H89c0.3,0,0.5,0,0.7,0.1c0.2,0.1,0.3,0.2,0.4,0.3c0.1,0.1,0.2,0.3,0.2,0.4
		c0,0.2,0,0.4-0.1,0.6c-0.1,0.2-0.1,0.4-0.3,0.6c-0.1,0.2-0.3,0.3-0.4,0.4c-0.2,0.1-0.4,0.2-0.6,0.3c-0.2,0.1-0.5,0.1-0.7,0.1H87.6z
		 M87.7,720.4h0.7c0.2,0,0.3,0,0.5-0.1c0.1,0,0.3-0.1,0.4-0.2c0.1-0.1,0.2-0.2,0.3-0.3c0.1-0.1,0.1-0.2,0.2-0.4
		c0.1-0.3,0.1-0.5-0.1-0.7c-0.1-0.2-0.4-0.2-0.7-0.2h-0.7L87.7,720.4z"/>
	<path id="_x31__8_" class="st5" d="M92.2,719.3c0.2,0,0.4,0,0.6,0.1c0.2,0.1,0.3,0.2,0.4,0.3c0.1,0.1,0.1,0.3,0.2,0.5
		c0,0.2,0,0.4-0.1,0.7c-0.1,0.3-0.2,0.5-0.3,0.7c-0.1,0.2-0.3,0.4-0.4,0.5c-0.2,0.1-0.4,0.3-0.6,0.3c-0.2,0.1-0.4,0.1-0.7,0.1
		c-0.2,0-0.4,0-0.6-0.1c-0.2-0.1-0.3-0.2-0.4-0.3c-0.1-0.1-0.1-0.3-0.2-0.5c0-0.2,0-0.4,0.1-0.7c0.1-0.3,0.2-0.5,0.3-0.7
		c0.1-0.2,0.3-0.4,0.4-0.5c0.2-0.1,0.4-0.3,0.6-0.3C91.8,719.4,92,719.3,92.2,719.3z M91.5,722.2c0.3,0,0.6-0.1,0.8-0.3
		c0.2-0.2,0.4-0.5,0.5-0.9c0.1-0.4,0.1-0.7,0-0.9c-0.1-0.2-0.3-0.3-0.6-0.3c-0.2,0-0.3,0-0.4,0.1c-0.1,0.1-0.3,0.1-0.4,0.2
		c-0.1,0.1-0.2,0.2-0.3,0.4c-0.1,0.1-0.1,0.3-0.2,0.5c0,0.2-0.1,0.4-0.1,0.5c0,0.1,0,0.3,0.1,0.4c0.1,0.1,0.1,0.2,0.2,0.2
		C91.2,722.2,91.3,722.2,91.5,722.2z"/>
	<path id="_x32__8_" class="st5" d="M94,719.4h0.4c0,0,0.1,0,0.1,0c0,0,0,0,0,0.1l0.1,2c0,0.1,0,0.1,0,0.2c0,0.1,0,0.1,0,0.2
		c0-0.1,0.1-0.1,0.1-0.2c0-0.1,0.1-0.1,0.1-0.2l1.2-2.1c0,0,0-0.1,0.1-0.1c0,0,0.1,0,0.1,0h0.2c0,0,0.1,0,0.1,0c0,0,0,0,0,0.1
		l0.1,2.1c0,0.1,0,0.1,0,0.2c0,0.1,0,0.1,0,0.2c0-0.1,0.1-0.1,0.1-0.2c0-0.1,0.1-0.1,0.1-0.2l1.2-2c0,0,0-0.1,0.1-0.1
		c0,0,0.1,0,0.1,0h0.4l-1.9,3.2h-0.4c-0.1,0-0.1,0-0.1-0.1l-0.1-2.2c0,0,0-0.1,0-0.1c0-0.1,0-0.1,0-0.1c0,0,0,0.1-0.1,0.1
		c0,0,0,0.1-0.1,0.1l-1.3,2.2c0,0.1-0.1,0.1-0.2,0.1h-0.4L94,719.4z"/>
	<path id="_x33__8_" class="st5" d="M100.5,719.3c0.2,0,0.4,0,0.5,0.1c0.1,0.1,0.3,0.2,0.3,0.3c0.1,0.1,0.1,0.3,0.2,0.4
		c0,0.2,0,0.4-0.1,0.6c0,0.1,0,0.1-0.1,0.2c0,0-0.1,0-0.1,0h-2.1c-0.1,0.2-0.1,0.4-0.1,0.5c0,0.1,0,0.3,0.1,0.4
		c0.1,0.1,0.1,0.2,0.3,0.2c0.1,0,0.2,0.1,0.4,0.1c0.1,0,0.3,0,0.4,0c0.1,0,0.2-0.1,0.3-0.1c0.1,0,0.2-0.1,0.2-0.1
		c0.1,0,0.1-0.1,0.1-0.1c0,0,0.1,0,0.1,0.1l0.1,0.2c-0.1,0.1-0.2,0.2-0.3,0.2c-0.1,0.1-0.2,0.1-0.3,0.2c-0.1,0-0.2,0.1-0.4,0.1
		c-0.1,0-0.2,0-0.4,0c-0.2,0-0.4,0-0.6-0.1c-0.2-0.1-0.3-0.2-0.4-0.3c-0.1-0.1-0.2-0.3-0.2-0.5c0-0.2,0-0.5,0.1-0.7
		c0.1-0.2,0.1-0.4,0.3-0.6c0.1-0.2,0.3-0.4,0.4-0.5c0.2-0.1,0.4-0.3,0.6-0.3C100.1,719.4,100.3,719.3,100.5,719.3z M100.4,719.8
		c-0.3,0-0.5,0.1-0.7,0.2c-0.2,0.2-0.4,0.4-0.5,0.6h1.7c0-0.1,0.1-0.3,0-0.4c0-0.1,0-0.2-0.1-0.3c0-0.1-0.1-0.1-0.2-0.2
		C100.6,719.8,100.5,719.8,100.4,719.8z"/>
	<path id="_x34__8_" class="st5" d="M101.7,722.6l0.9-3.2h0.3c0.1,0,0.1,0,0.1,0c0,0,0,0.1,0,0.1l-0.1,0.5c0.2-0.2,0.4-0.4,0.5-0.5
		c0.2-0.1,0.4-0.2,0.6-0.2c0.1,0,0.2,0,0.2,0c0.1,0,0.1,0,0.2,0.1l-0.2,0.4c0,0.1-0.1,0.1-0.1,0.1c0,0-0.1,0-0.1,0
		c-0.1,0-0.1,0-0.2,0c-0.2,0-0.4,0.1-0.5,0.2c-0.2,0.1-0.3,0.3-0.5,0.5l-0.5,2H101.7z"/>
	<path id="_x35__8_" class="st5" d="M106.3,719.3c0.2,0,0.4,0,0.5,0.1c0.1,0.1,0.3,0.2,0.3,0.3c0.1,0.1,0.1,0.3,0.2,0.4
		c0,0.2,0,0.4-0.1,0.6c0,0.1,0,0.1-0.1,0.2c0,0-0.1,0-0.1,0H105c-0.1,0.2-0.1,0.4-0.1,0.5c0,0.1,0,0.3,0.1,0.4
		c0.1,0.1,0.1,0.2,0.3,0.2c0.1,0,0.2,0.1,0.4,0.1c0.1,0,0.3,0,0.4,0c0.1,0,0.2-0.1,0.3-0.1c0.1,0,0.2-0.1,0.2-0.1
		c0.1,0,0.1-0.1,0.1-0.1c0,0,0.1,0,0.1,0.1l0.1,0.2c-0.1,0.1-0.2,0.2-0.3,0.2c-0.1,0.1-0.2,0.1-0.3,0.2c-0.1,0-0.2,0.1-0.4,0.1
		c-0.1,0-0.2,0-0.4,0c-0.2,0-0.4,0-0.6-0.1c-0.2-0.1-0.3-0.2-0.4-0.3c-0.1-0.1-0.2-0.3-0.2-0.5c0-0.2,0-0.5,0.1-0.7
		c0.1-0.2,0.2-0.4,0.3-0.6c0.1-0.2,0.3-0.4,0.4-0.5c0.2-0.1,0.4-0.3,0.6-0.3C105.9,719.4,106.1,719.3,106.3,719.3z M106.2,719.8
		c-0.3,0-0.5,0.1-0.7,0.2c-0.2,0.2-0.4,0.4-0.5,0.6h1.7c0-0.1,0-0.3,0-0.4c0-0.1,0-0.2-0.1-0.3c0-0.1-0.1-0.1-0.2-0.2
		C106.5,719.8,106.4,719.8,106.2,719.8z"/>
	<path id="_x36__8_" class="st5" d="M109.7,722.6c-0.1,0-0.1,0-0.1-0.1l0.1-0.4c-0.2,0.2-0.4,0.3-0.6,0.4c-0.2,0.1-0.4,0.1-0.6,0.1
		c-0.2,0-0.3,0-0.5-0.1c-0.1-0.1-0.2-0.2-0.3-0.3c-0.1-0.1-0.1-0.3-0.1-0.5c0-0.2,0-0.4,0.1-0.7c0.1-0.2,0.2-0.5,0.3-0.7
		c0.1-0.2,0.3-0.4,0.4-0.5c0.2-0.2,0.3-0.3,0.5-0.4c0.2-0.1,0.4-0.1,0.6-0.1c0.2,0,0.4,0,0.5,0.1c0.1,0.1,0.2,0.2,0.3,0.3l0.5-1.8
		h0.6l-1.2,4.6H109.7z M108.8,722.2c0.2,0,0.4,0,0.5-0.1c0.2-0.1,0.3-0.2,0.5-0.4l0.4-1.5c-0.1-0.1-0.2-0.2-0.3-0.3
		c-0.1-0.1-0.2-0.1-0.4-0.1c-0.3,0-0.6,0.1-0.8,0.3c-0.2,0.2-0.4,0.5-0.5,0.9c-0.1,0.2-0.1,0.4-0.1,0.5c0,0.1,0,0.3,0.1,0.4
		c0,0.1,0.1,0.2,0.2,0.2C108.5,722.1,108.6,722.2,108.8,722.2z"/>
	<path id="_x37__8_" class="st5" d="M112.2,722.6l1.2-4.6h0.6l-0.5,1.9c0.2-0.2,0.4-0.3,0.6-0.4c0.2-0.1,0.4-0.1,0.6-0.1
		c0.2,0,0.3,0,0.5,0.1c0.1,0.1,0.2,0.2,0.3,0.3c0.1,0.1,0.1,0.3,0.1,0.5c0,0.2,0,0.4-0.1,0.7c-0.1,0.2-0.2,0.5-0.3,0.7
		c-0.1,0.2-0.3,0.4-0.4,0.5c-0.2,0.1-0.3,0.3-0.5,0.3c-0.2,0.1-0.4,0.1-0.6,0.1c-0.2,0-0.4,0-0.5-0.1c-0.1-0.1-0.2-0.2-0.3-0.3
		l-0.1,0.3c0,0.1-0.1,0.1-0.2,0.1H112.2z M114.4,719.8c-0.2,0-0.4,0-0.5,0.1c-0.2,0.1-0.3,0.2-0.5,0.4l-0.4,1.5
		c0.1,0.1,0.1,0.2,0.3,0.3c0.1,0.1,0.2,0.1,0.4,0.1c0.3,0,0.6-0.1,0.8-0.3c0.2-0.2,0.4-0.5,0.5-0.9c0.1-0.2,0.1-0.4,0.1-0.5
		c0-0.1,0-0.3-0.1-0.4c0-0.1-0.1-0.2-0.2-0.2C114.6,719.8,114.5,719.8,114.4,719.8z"/>
	<path id="_x38__8_" class="st5" d="M116.3,723.5c0,0-0.1,0.1-0.1,0.1c0,0-0.1,0-0.1,0h-0.4l0.9-1.2l-0.5-3h0.5c0,0,0.1,0,0.1,0
		c0,0,0,0,0,0.1l0.3,2c0,0,0,0.1,0,0.1c0,0,0,0.1,0,0.1c0,0,0.1-0.1,0.1-0.1c0,0,0.1-0.1,0.1-0.1l1.4-2c0,0,0.1-0.1,0.1-0.1
		c0,0,0.1,0,0.1,0h0.4L116.3,723.5z"/>
	<path id="_x39__8_" class="st5" d="M118.9,722.2c0-0.1,0-0.1,0.1-0.2c0-0.1,0.1-0.1,0.1-0.1c0,0,0.1-0.1,0.1-0.1c0.1,0,0.1,0,0.2,0
		c0.1,0,0.1,0,0.1,0c0,0,0.1,0,0.1,0.1c0,0,0,0.1,0.1,0.1c0,0,0,0.1,0,0.2c0,0.1,0,0.1-0.1,0.2c0,0-0.1,0.1-0.1,0.1
		c0,0-0.1,0.1-0.1,0.1c-0.1,0-0.1,0-0.2,0c-0.1,0-0.1,0-0.1,0c0,0-0.1,0-0.1-0.1c0,0,0-0.1,0-0.1
		C118.9,722.3,118.9,722.3,118.9,722.2z M119.5,719.9c0-0.1,0-0.1,0.1-0.2c0,0,0.1-0.1,0.1-0.1c0,0,0.1-0.1,0.1-0.1
		c0.1,0,0.1,0,0.2,0c0.1,0,0.1,0,0.1,0c0,0,0.1,0,0.1,0.1c0,0,0,0.1,0.1,0.1c0,0,0,0.1,0,0.2c0,0.1,0,0.1-0.1,0.2
		c0,0-0.1,0.1-0.1,0.1c0,0-0.1,0.1-0.1,0.1c-0.1,0-0.1,0-0.2,0c-0.1,0-0.1,0-0.1,0c0,0-0.1,0-0.1-0.1c0,0,0-0.1,0-0.1
		C119.5,720,119.5,719.9,119.5,719.9z"/>
	<path class="st5" d="M126,737.7l-0.1,0.5h-2.3l-0.4,1.6h1.8l-0.1,0.5H123l-0.4,1.6h2.3l-0.1,0.5h-2.9l1.3-4.8H126z M126,740.2h1.6
		l-0.1,0.5h-1.6L126,740.2z M128.7,741.9h2.1l-0.1,0.5h-2.7l1.3-4.8h0.6L128.7,741.9z M133.4,739c0.2,0,0.4,0,0.5,0.1
		c0.2,0.1,0.3,0.2,0.4,0.3c0.1,0.1,0.1,0.3,0.2,0.5c0,0.2,0,0.4-0.1,0.6c0,0.1-0.1,0.2-0.1,0.2c0,0-0.1,0-0.1,0h-2.2
		c-0.1,0.2-0.1,0.4-0.1,0.6c0,0.2,0,0.3,0.1,0.4c0.1,0.1,0.2,0.2,0.3,0.2c0.1,0.1,0.3,0.1,0.4,0.1c0.1,0,0.3,0,0.4-0.1
		c0.1,0,0.2-0.1,0.3-0.1c0.1,0,0.2-0.1,0.2-0.1c0.1,0,0.1-0.1,0.1-0.1c0,0,0.1,0,0.1,0.1l0.1,0.2c-0.1,0.1-0.2,0.2-0.3,0.2
		c-0.1,0.1-0.2,0.1-0.4,0.2c-0.1,0-0.3,0.1-0.4,0.1c-0.1,0-0.3,0-0.4,0c-0.2,0-0.4,0-0.6-0.1c-0.2-0.1-0.3-0.2-0.4-0.3
		c-0.1-0.2-0.2-0.3-0.2-0.6c0-0.2,0-0.5,0.1-0.8c0.1-0.2,0.2-0.5,0.3-0.7c0.1-0.2,0.3-0.4,0.5-0.5c0.2-0.1,0.4-0.3,0.6-0.4
		C132.9,739,133.1,739,133.4,739z M133.3,739.4c-0.3,0-0.5,0.1-0.7,0.2c-0.2,0.2-0.4,0.4-0.5,0.7h1.8c0-0.1,0.1-0.3,0-0.4
		c0-0.1,0-0.2-0.1-0.3c-0.1-0.1-0.1-0.1-0.2-0.2C133.5,739.5,133.4,739.4,133.3,739.4z M137.1,742.4h-0.3c-0.1,0-0.1,0-0.1,0
		c0,0,0-0.1,0-0.1l0-0.3c-0.1,0.1-0.2,0.2-0.3,0.2c-0.1,0.1-0.2,0.1-0.3,0.2c-0.1,0-0.2,0.1-0.3,0.1c-0.1,0-0.2,0-0.4,0
		c-0.1,0-0.2,0-0.4-0.1c-0.1,0-0.2-0.1-0.3-0.2c-0.1-0.1-0.1-0.2-0.1-0.3c0-0.1,0-0.2,0-0.4c0-0.1,0.1-0.3,0.2-0.4
		c0.1-0.1,0.3-0.2,0.4-0.3c0.2-0.1,0.4-0.2,0.7-0.2c0.3-0.1,0.6-0.1,1-0.1l0.1-0.3c0.1-0.3,0.1-0.5,0-0.6c-0.1-0.1-0.2-0.2-0.4-0.2
		c-0.1,0-0.3,0-0.4,0.1c-0.1,0-0.2,0.1-0.3,0.1c-0.1,0-0.2,0.1-0.2,0.1c-0.1,0-0.1,0.1-0.2,0.1c0,0-0.1,0-0.1,0c0,0,0,0-0.1-0.1
		l-0.1-0.2c0.2-0.2,0.5-0.3,0.7-0.4c0.2-0.1,0.5-0.1,0.8-0.1c0.2,0,0.3,0,0.5,0.1c0.1,0.1,0.2,0.1,0.3,0.3c0.1,0.1,0.1,0.2,0.1,0.4
		c0,0.2,0,0.3-0.1,0.5L137.1,742.4z M135.6,742.1c0.1,0,0.2,0,0.3,0s0.2-0.1,0.3-0.1c0.1,0,0.2-0.1,0.3-0.1c0.1-0.1,0.2-0.1,0.3-0.2
		l0.2-0.7c-0.3,0-0.5,0-0.7,0.1c-0.2,0-0.4,0.1-0.5,0.1c-0.1,0.1-0.2,0.1-0.3,0.2c-0.1,0.1-0.1,0.2-0.1,0.3c0,0.1,0,0.2,0,0.2
		c0,0.1,0,0.1,0.1,0.2c0,0,0.1,0.1,0.1,0.1C135.5,742,135.6,742.1,135.6,742.1z M138,742.4l0.9-3.4h0.3c0.1,0,0.1,0,0.1,0
		c0,0,0,0.1,0,0.1l-0.1,0.6c0.2-0.2,0.4-0.4,0.6-0.6c0.2-0.1,0.4-0.2,0.6-0.2c0.1,0,0.2,0,0.2,0c0.1,0,0.1,0.1,0.2,0.1l-0.2,0.4
		c0,0.1-0.1,0.1-0.1,0.1c0,0-0.1,0-0.1,0c-0.1,0-0.1,0-0.3,0c-0.2,0-0.4,0.1-0.6,0.2c-0.2,0.1-0.3,0.3-0.5,0.5l-0.6,2.1H138z
		 M140.7,742.4l0.9-3.4h0.4c0.1,0,0.1,0,0.1,0.1l-0.1,0.4c0.2-0.2,0.4-0.3,0.6-0.4c0.2-0.1,0.4-0.2,0.7-0.2c0.2,0,0.3,0,0.5,0.1
		c0.1,0.1,0.2,0.1,0.3,0.3c0.1,0.1,0.1,0.2,0.1,0.4c0,0.2,0,0.3-0.1,0.5l-0.6,2.1h-0.6l0.6-2.1c0.1-0.3,0.1-0.5,0-0.6
		c-0.1-0.1-0.2-0.2-0.5-0.2c-0.2,0-0.3,0-0.5,0.1c-0.2,0.1-0.3,0.2-0.5,0.3l-0.7,2.5H140.7z M145.9,739.1l-0.9,3.4h-0.6l0.9-3.4
		H145.9z M146.3,738c0,0.1,0,0.1-0.1,0.2c0,0-0.1,0.1-0.1,0.1c0,0-0.1,0.1-0.2,0.1c-0.1,0-0.1,0-0.2,0c-0.1,0-0.1,0-0.2,0
		c0,0-0.1-0.1-0.1-0.1c0,0,0-0.1-0.1-0.1c0,0,0-0.1,0-0.2c0-0.1,0-0.1,0.1-0.2c0-0.1,0.1-0.1,0.1-0.1c0,0,0.1-0.1,0.2-0.1
		c0.1,0,0.1,0,0.2,0c0.1,0,0.1,0,0.2,0c0,0,0.1,0.1,0.1,0.1c0,0,0,0.1,0.1,0.1C146.3,737.9,146.3,737.9,146.3,738z M146,742.4
		l0.9-3.4h0.4c0.1,0,0.1,0,0.1,0.1l-0.1,0.4c0.2-0.2,0.4-0.3,0.6-0.4c0.2-0.1,0.4-0.2,0.7-0.2c0.2,0,0.3,0,0.5,0.1
		c0.1,0.1,0.2,0.1,0.3,0.3c0.1,0.1,0.1,0.2,0.1,0.4c0,0.2,0,0.3-0.1,0.5l-0.6,2.1h-0.6l0.6-2.1c0.1-0.3,0.1-0.5,0-0.6
		c-0.1-0.1-0.2-0.2-0.5-0.2c-0.2,0-0.3,0-0.5,0.1c-0.2,0.1-0.3,0.2-0.5,0.3l-0.7,2.5H146z M151.8,739c0.1,0,0.3,0,0.4,0
		c0.1,0,0.2,0.1,0.3,0.1h0.9l-0.1,0.2c0,0.1-0.1,0.1-0.2,0.1l-0.4,0.1c0,0.1,0,0.3,0,0.5c0,0.2-0.1,0.3-0.2,0.4
		c-0.1,0.1-0.2,0.2-0.4,0.3c-0.1,0.1-0.3,0.2-0.5,0.2c-0.2,0-0.3,0.1-0.5,0.1c-0.2,0-0.3,0-0.4-0.1c-0.1,0-0.1,0.1-0.2,0.1
		c-0.1,0.1-0.1,0.1-0.1,0.2c0,0.1,0,0.1,0,0.2s0.1,0.1,0.2,0.1c0.1,0,0.2,0,0.4,0c0.1,0,0.3,0,0.4,0c0.1,0,0.3,0,0.4,0
		c0.1,0,0.2,0.1,0.3,0.1c0.1,0.1,0.2,0.1,0.2,0.2c0,0.1,0,0.2,0,0.4c0,0.1-0.1,0.3-0.2,0.4c-0.1,0.1-0.2,0.3-0.4,0.4
		c-0.2,0.1-0.3,0.2-0.6,0.3c-0.2,0.1-0.4,0.1-0.7,0.1c-0.2,0-0.5,0-0.6-0.1c-0.2,0-0.3-0.1-0.4-0.2c-0.1-0.1-0.2-0.2-0.2-0.3
		c0-0.1,0-0.2,0-0.3c0-0.2,0.1-0.3,0.3-0.4c0.1-0.1,0.3-0.2,0.5-0.3c-0.1,0-0.1-0.1-0.2-0.2c0-0.1,0-0.2,0-0.3c0,0,0-0.1,0.1-0.2
		c0-0.1,0.1-0.1,0.1-0.2c0-0.1,0.1-0.1,0.2-0.1c0.1,0,0.1-0.1,0.2-0.1c-0.1-0.1-0.2-0.2-0.3-0.4c-0.1-0.2-0.1-0.3,0-0.5
		c0-0.2,0.1-0.3,0.2-0.4c0.1-0.1,0.2-0.3,0.4-0.3c0.1-0.1,0.3-0.2,0.5-0.2C151.4,739,151.6,739,151.8,739z M151.9,742.6
		c0-0.1,0-0.2,0-0.2c0-0.1-0.1-0.1-0.2-0.1c-0.1,0-0.2,0-0.3-0.1c-0.1,0-0.2,0-0.3,0c-0.1,0-0.2,0-0.4,0c-0.1,0-0.2,0-0.3,0
		c-0.1,0.1-0.3,0.1-0.4,0.2c-0.1,0.1-0.2,0.2-0.2,0.3c0,0.1,0,0.1,0,0.2c0,0.1,0.1,0.1,0.1,0.2c0.1,0,0.2,0.1,0.3,0.1
		c0.1,0,0.3,0,0.4,0c0.2,0,0.3,0,0.4,0c0.1,0,0.3-0.1,0.4-0.1c0.1-0.1,0.2-0.1,0.3-0.2C151.8,742.8,151.8,742.7,151.9,742.6z
		 M151.3,740.8c0.1,0,0.2,0,0.3,0c0.1,0,0.2-0.1,0.3-0.1c0.1-0.1,0.1-0.1,0.2-0.2c0.1-0.1,0.1-0.2,0.1-0.3c0.1-0.2,0-0.4-0.1-0.5
		c-0.1-0.1-0.3-0.2-0.5-0.2c-0.2,0-0.4,0.1-0.6,0.2c-0.2,0.1-0.3,0.3-0.3,0.5c0,0.1,0,0.2,0,0.3c0,0.1,0,0.2,0.1,0.2
		c0,0.1,0.1,0.1,0.2,0.1C151.1,740.8,151.2,740.8,151.3,740.8z M159,737.6l-0.1,0.5h-1.5l-1.1,4.2h-0.6l1.1-4.2h-1.5l0.1-0.5H159z
		 M159.9,739c0.2,0,0.4,0,0.5,0.1c0.2,0.1,0.3,0.2,0.4,0.3c0.1,0.1,0.1,0.3,0.2,0.5c0,0.2,0,0.4-0.1,0.6c0,0.1,0,0.2-0.1,0.2
		c0,0-0.1,0-0.1,0h-2.2c-0.1,0.2-0.1,0.4-0.1,0.6c0,0.2,0,0.3,0.1,0.4c0.1,0.1,0.2,0.2,0.3,0.2c0.1,0.1,0.2,0.1,0.4,0.1
		c0.1,0,0.3,0,0.4-0.1c0.1,0,0.2-0.1,0.3-0.1c0.1,0,0.2-0.1,0.2-0.1c0.1,0,0.1-0.1,0.1-0.1c0,0,0.1,0,0.1,0.1l0.1,0.2
		c-0.1,0.1-0.2,0.2-0.3,0.2c-0.1,0.1-0.2,0.1-0.4,0.2c-0.1,0-0.3,0.1-0.4,0.1c-0.1,0-0.3,0-0.4,0c-0.2,0-0.4,0-0.6-0.1
		c-0.2-0.1-0.3-0.2-0.4-0.3c-0.1-0.2-0.2-0.3-0.2-0.6c0-0.2,0-0.5,0.1-0.8c0.1-0.2,0.2-0.5,0.3-0.7c0.1-0.2,0.3-0.4,0.5-0.5
		c0.2-0.1,0.4-0.3,0.6-0.4C159.4,739,159.6,739,159.9,739z M159.8,739.4c-0.3,0-0.5,0.1-0.7,0.2c-0.2,0.2-0.4,0.4-0.5,0.7h1.8
		c0-0.1,0-0.3,0-0.4c0-0.1,0-0.2-0.1-0.3c-0.1-0.1-0.1-0.1-0.2-0.2C160,739.5,159.9,739.4,159.8,739.4z M163.6,742.4h-0.3
		c-0.1,0-0.1,0-0.1,0c0,0,0-0.1,0-0.1l0-0.3c-0.1,0.1-0.2,0.2-0.3,0.2c-0.1,0.1-0.2,0.1-0.3,0.2c-0.1,0-0.2,0.1-0.3,0.1
		c-0.1,0-0.2,0-0.4,0c-0.1,0-0.2,0-0.4-0.1c-0.1,0-0.2-0.1-0.3-0.2c-0.1-0.1-0.1-0.2-0.1-0.3c0-0.1,0-0.2,0-0.4
		c0-0.1,0.1-0.3,0.2-0.4c0.1-0.1,0.3-0.2,0.4-0.3c0.2-0.1,0.4-0.2,0.7-0.2c0.3-0.1,0.6-0.1,1-0.1l0.1-0.3c0.1-0.3,0.1-0.5,0-0.6
		c-0.1-0.1-0.2-0.2-0.4-0.2c-0.1,0-0.3,0-0.4,0.1c-0.1,0-0.2,0.1-0.3,0.1c-0.1,0-0.2,0.1-0.2,0.1c-0.1,0-0.1,0.1-0.2,0.1
		c0,0-0.1,0-0.1,0c0,0,0,0-0.1-0.1l-0.1-0.2c0.2-0.2,0.5-0.3,0.7-0.4c0.2-0.1,0.5-0.1,0.7-0.1c0.2,0,0.3,0,0.5,0.1
		c0.1,0.1,0.2,0.1,0.3,0.3c0.1,0.1,0.1,0.2,0.1,0.4c0,0.2,0,0.3-0.1,0.5L163.6,742.4z M162.1,742.1c0.1,0,0.2,0,0.3,0
		c0.1,0,0.2-0.1,0.3-0.1c0.1,0,0.2-0.1,0.3-0.1c0.1-0.1,0.2-0.1,0.3-0.2l0.2-0.7c-0.3,0-0.5,0-0.7,0.1c-0.2,0-0.4,0.1-0.5,0.1
		c-0.1,0.1-0.2,0.1-0.3,0.2c-0.1,0.1-0.1,0.2-0.2,0.3c0,0.1,0,0.2,0,0.2c0,0.1,0,0.1,0.1,0.2c0,0,0.1,0.1,0.1,0.1
		C162,742,162.1,742.1,162.1,742.1z M164.5,742.4l0.9-3.4h0.3c0.1,0,0.1,0,0.1,0.1l0,0.3c0.2-0.2,0.3-0.3,0.5-0.4
		c0.2-0.1,0.4-0.1,0.6-0.1c0.2,0,0.4,0.1,0.5,0.2c0.1,0.1,0.2,0.3,0.2,0.5c0.1-0.1,0.2-0.2,0.3-0.3c0.1-0.1,0.2-0.2,0.3-0.2
		c0.1-0.1,0.2-0.1,0.3-0.1c0.1,0,0.2,0,0.3,0c0.2,0,0.3,0,0.5,0.1c0.1,0.1,0.2,0.1,0.3,0.2c0.1,0.1,0.1,0.2,0.1,0.4
		c0,0.2,0,0.3-0.1,0.5l-0.6,2.1h-0.6l0.6-2.1c0.1-0.3,0.1-0.5,0-0.6c-0.1-0.1-0.2-0.2-0.4-0.2c-0.1,0-0.2,0-0.3,0.1
		c-0.1,0-0.2,0.1-0.3,0.2c-0.1,0.1-0.2,0.2-0.2,0.3c-0.1,0.1-0.1,0.2-0.2,0.4l-0.6,2.1h-0.6l0.6-2.1c0.1-0.3,0.1-0.5,0-0.6
		c-0.1-0.1-0.2-0.2-0.4-0.2c-0.1,0-0.3,0-0.4,0.1c-0.1,0.1-0.3,0.2-0.4,0.3l-0.7,2.5H164.5z"/>
</g>
<g>
	<g>
		<g>
			<linearGradient id="SVGID_3_" gradientUnits="userSpaceOnUse" x1="227.6196" y1="201.8209" x2="227.6196" y2="286.7765">
				<stop  offset="0" style="stop-color:#9DB3CE"/>
				<stop  offset="1" style="stop-color:#91A8C6"/>
			</linearGradient>
			<path class="st8" d="M227.6,289.1c-25,0-45.4-20.4-45.4-45.4s20.4-45.4,45.4-45.4c25,0,45.4,20.4,45.4,45.4
				S252.6,289.1,227.6,289.1L227.6,289.1z"/>
			<linearGradient id="SVGID_4_" gradientUnits="userSpaceOnUse" x1="227.6196" y1="203.3214" x2="227.6196" y2="285.231">
				<stop  offset="0" style="stop-color:#DCE8F1"/>
				<stop  offset="1" style="stop-color:#B0C1D6"/>
			</linearGradient>
			<circle class="st9" cx="227.6" cy="243.7" r="43.8"/>
			<linearGradient id="SVGID_5_" gradientUnits="userSpaceOnUse" x1="214.6228" y1="204.6239" x2="222.4877" y2="228.354">
				<stop  offset="0" style="stop-color:#FBFEFF"/>
				<stop  offset="1" style="stop-color:#D6E4EE"/>
			</linearGradient>
			<path class="st10" d="M213.2,204.5c-16.1,5.3-21,16.6-23.5,24.2c-2.5,7.6,16.7,6.5,36.7-1.9c20-8.4,29.1-16.7,19.9-20.9
				C237.1,201.7,225.6,200.3,213.2,204.5z"/>
			
				<linearGradient id="SVGID_6_" gradientUnits="userSpaceOnUse" x1="-4417.6807" y1="4323.3379" x2="-4409.8159" y2="4347.0684" gradientTransform="matrix(-1 0 0 -1 -4176.667 4606.8242)">
				<stop  offset="0" style="stop-color:#8CA3BD"/>
				<stop  offset="1" style="stop-color:#BECEE0"/>
			</linearGradient>
			<path class="st11" d="M242.4,283.7c16.1-5.3,21-16.6,23.5-24.2c2.5-7.6-16.7-6.5-36.7,1.9c-20,8.4-29.1,16.7-19.9,20.9
				C218.5,286.4,230,287.8,242.4,283.7z"/>
			<g>
				<linearGradient id="SVGID_7_" gradientUnits="userSpaceOnUse" x1="208.8733" y1="212.8124" x2="208.8733" y2="279.5376">
					<stop  offset="0" style="stop-color:#D8E0EB"/>
					<stop  offset="1" style="stop-color:#A0B2C4"/>
				</linearGradient>
				<path class="st12" d="M208,230.7c-1.7-0.6-3.3-0.3-5.3,0.7c-2.2,1.2-3.7,1.1-6,1.6c-1.8,0.4-2.7,1.6-3.1,3.3
					c-0.2,0.9-0.5,2.2-0.6,3.1c-0.4,2.9,1.6,7,2.6,9.6c1.3,3.2,3.2,6.8,6.2,8.6c8.2,5,18.6,4.9,22.3-5.3c2.3-6.4-0.8-11.8-6.3-15.1
					c-2.8-1.7-5.1-3.3-7.7-5.3C209.4,231.4,208.7,231,208,230.7z"/>
				<linearGradient id="SVGID_8_" gradientUnits="userSpaceOnUse" x1="234.5334" y1="212.8207" x2="234.5334" y2="279.5453">
					<stop  offset="0" style="stop-color:#D8E0EB"/>
					<stop  offset="1" style="stop-color:#A0B2C4"/>
				</linearGradient>
				<path class="st13" d="M252.6,228.3c1.5-0.5,2.5-1.5,1.9-3.5c-0.8-3.1-4.2-4.5-7-5.4c-1.5-0.5-3.1-0.6-4.7-1
					c-1.8-0.5-2.4-1.4-3.9-2.6c-6.1-4.7-15.7-3.5-20.9,1.9c-2.4,2.4-4.5,6.8-3.3,10.3c0.7,1.9,2.2,2.2,4,3c2.5,1.1,5.3,2.5,7.2,4.5
					c2.4,2.4,3.1,4.3,7,4c6-0.4,9.1-6.7,13.7-9.5C248,229,250.7,228.9,252.6,228.3z"/>
				<linearGradient id="SVGID_9_" gradientUnits="userSpaceOnUse" x1="234.9311" y1="212.8125" x2="234.9311" y2="279.5377">
					<stop  offset="0" style="stop-color:#D8E0EB"/>
					<stop  offset="1" style="stop-color:#A0B2C4"/>
				</linearGradient>
				<path class="st14" d="M240,246.7c-2.3-1.1-5.5-5-7.8-5.5c-2-0.5-3.7,1.4-4.7,3.3c-2.3,4-1,8.9,3.3,10.8
					c3.8,1.7,11.8,1.8,12.5-3.8C243.7,248.4,242.6,247.9,240,246.7z"/>
				<linearGradient id="SVGID_10_" gradientUnits="userSpaceOnUse" x1="260.878" y1="212.8148" x2="260.878" y2="279.5367">
					<stop  offset="0" style="stop-color:#D8E0EB"/>
					<stop  offset="1" style="stop-color:#A0B2C4"/>
				</linearGradient>
				<path class="st15" d="M260.9,264.9c2.5-1.3,7.2-11.4,2.7-12.5c-3.1-0.7-5.8,5-6.7,7C255.6,262.3,256.1,267.4,260.9,264.9z"/>
				<linearGradient id="SVGID_11_" gradientUnits="userSpaceOnUse" x1="210.4525" y1="212.8131" x2="210.4525" y2="279.5377">
					<stop  offset="0" style="stop-color:#D8E0EB"/>
					<stop  offset="1" style="stop-color:#A0B2C4"/>
				</linearGradient>
				<path class="st16" d="M216.8,266.6c-1-2-13.1-5.7-13.1-2c0,3.6,6.4,5.4,9.2,5.5C214.8,270.1,218.3,269.4,216.8,266.6z"/>
				<linearGradient id="SVGID_12_" gradientUnits="userSpaceOnUse" x1="259.1823" y1="210.6615" x2="258.3687" y2="278.1902">
					<stop  offset="0" style="stop-color:#C7D3E4"/>
					<stop  offset="1" style="stop-color:#A0B2C4"/>
				</linearGradient>
				<path class="st17" d="M256.8,226.4c1.3,3.4,5.5,4.2,5.7-0.3c0.1-2.7-2.1-7.9-5.4-6.4C254.3,220.9,256,224.4,256.8,226.4z"/>
				<linearGradient id="SVGID_13_" gradientUnits="userSpaceOnUse" x1="268.273" y1="210.7727" x2="267.4594" y2="278.298">
					<stop  offset="0" style="stop-color:#C7D3E4"/>
					<stop  offset="1" style="stop-color:#A0B2C4"/>
				</linearGradient>
				<path class="st18" d="M267.6,246.7c2,1.4,2.3-3.1,2.1-4.2c-0.2-1.5,0-5.5-2.2-5.7C264.8,236.5,266.3,245.8,267.6,246.7z"/>
				<linearGradient id="SVGID_14_" gradientUnits="userSpaceOnUse" x1="188.6055" y1="212.8125" x2="188.6055" y2="279.5374">
					<stop  offset="0" style="stop-color:#D8E0EB"/>
					<stop  offset="1" style="stop-color:#A0B2C4"/>
				</linearGradient>
				<path class="st19" d="M190.1,243.5c0.7-1.3,1.1-7.5-1.4-7.3C184.1,236.4,187.9,247.6,190.1,243.5z"/>
				<linearGradient id="SVGID_15_" gradientUnits="userSpaceOnUse" x1="227.89" y1="212.8106" x2="227.89" y2="279.5378">
					<stop  offset="0" style="stop-color:#D8E0EB"/>
					<stop  offset="1" style="stop-color:#A0B2C4"/>
				</linearGradient>
				<path class="st20" d="M232.8,261.9c0.6,1,0,2.2,0.4,3.2c0.9,2.4,3.7,3.9,4.7,6.3c1.4,3-4.1,6.2-6.4,6.8c-2.5,0.6-8.5,0.9-8.6-3
					c-0.1-3,2.2-5.3-0.3-8c-1.4-1.5-7.5-3.2-3.9-5.9c2-1.4,5.1-1.6,7.5-1.4C228.4,259.9,231.5,259.6,232.8,261.9z"/>
				<linearGradient id="SVGID_16_" gradientUnits="userSpaceOnUse" x1="198.0229" y1="212.8119" x2="198.0229" y2="279.5378">
					<stop  offset="0" style="stop-color:#D8E0EB"/>
					<stop  offset="1" style="stop-color:#A0B2C4"/>
				</linearGradient>
				<path class="st21" d="M200.8,266.1c0.2-1.8-1.9-5.4-3.7-5.8c-3.7-0.9-0.8,5.6,0.6,6.5C199,267.7,200.5,267.7,200.8,266.1z"/>
			</g>
			<linearGradient id="SVGID_17_" gradientUnits="userSpaceOnUse" x1="212.6684" y1="250.7864" x2="212.4649" y2="241.6329">
				<stop  offset="0" style="stop-color:#DCE8F1"/>
				<stop  offset="1" style="stop-color:#BECCDE"/>
			</linearGradient>
			<ellipse class="st22" cx="212.6" cy="246.3" rx="4.6" ry="4.9"/>
			<linearGradient id="SVGID_18_" gradientUnits="userSpaceOnUse" x1="241.8237" y1="231.7696" x2="241.6738" y2="225.0234">
				<stop  offset="0" style="stop-color:#DCE8F1"/>
				<stop  offset="1" style="stop-color:#BECCDE"/>
			</linearGradient>
			<ellipse class="st23" cx="241.7" cy="228.5" rx="3.4" ry="3.6"/>
			<linearGradient id="SVGID_19_" gradientUnits="userSpaceOnUse" x1="202.0013" y1="243.5675" x2="201.8514" y2="236.8218">
				<stop  offset="0" style="stop-color:#DCE8F1"/>
				<stop  offset="1" style="stop-color:#BECCDE"/>
			</linearGradient>
			<ellipse class="st24" cx="201.9" cy="240.3" rx="3.4" ry="3.6"/>
			<linearGradient id="SVGID_20_" gradientUnits="userSpaceOnUse" x1="227.7989" y1="208.7604" x2="223.731" y2="205.506">
				<stop  offset="0" style="stop-color:#EEF4F9"/>
				<stop  offset="1" style="stop-color:#D8E1EB"/>
			</linearGradient>
			<ellipse class="st25" cx="225.9" cy="207.2" rx="4.6" ry="2.1"/>
			<linearGradient id="SVGID_21_" gradientUnits="userSpaceOnUse" x1="241.7798" y1="211.8391" x2="239.339" y2="207.5677">
				<stop  offset="0" style="stop-color:#EEF4F9"/>
				<stop  offset="1" style="stop-color:#D8E1EB"/>
			</linearGradient>
			<path class="st26" d="M245.1,210.4c-0.2,1.1-2.3,1.8-4.8,1.4c-2.5-0.3-4.4-1.6-4.3-2.7c0.2-1.1,2.3-1.8,4.8-1.4
				C243.4,208,245.3,209.2,245.1,210.4z"/>
			
				<linearGradient id="SVGID_22_" gradientUnits="userSpaceOnUse" x1="898.4996" y1="1618.932" x2="895.2526" y2="1613.2498" gradientTransform="matrix(0.8733 -0.4871 0.4871 0.8733 -1361.3969 -761.039)">
				<stop  offset="0" style="stop-color:#EEF4F9"/>
				<stop  offset="1" style="stop-color:#D8E1EB"/>
			</linearGradient>
			<path class="st27" d="M214.8,211.2c0.6,1.4-1.5,3.6-4.7,4.8c-3.2,1.2-6.2,1.1-6.7-0.4c-0.6-1.4,1.5-3.6,4.7-4.8
				C211.2,209.6,214.2,209.8,214.8,211.2z"/>
			<linearGradient id="SVGID_23_" gradientUnits="userSpaceOnUse" x1="213.2544" y1="258.7091" x2="213.1395" y2="253.539">
				<stop  offset="0" style="stop-color:#DCE8F1"/>
				<stop  offset="1" style="stop-color:#BECCDE"/>
			</linearGradient>
			<circle class="st28" cx="213.2" cy="256.2" r="2.7"/>
			<linearGradient id="SVGID_24_" gradientUnits="userSpaceOnUse" x1="233.5621" y1="274.8787" x2="233.3885" y2="267.0659">
				<stop  offset="0" style="stop-color:#DCE8F1"/>
				<stop  offset="1" style="stop-color:#B0C0D6"/>
			</linearGradient>
			<ellipse class="st29" cx="233.5" cy="271" rx="5.9" ry="4.1"/>
			
				<linearGradient id="SVGID_25_" gradientUnits="userSpaceOnUse" x1="118.9893" y1="1531.2343" x2="118.8839" y2="1526.4938" gradientTransform="matrix(1.1585 -0.7758 0.2782 0.4155 -308.9311 -269.0187)">
				<stop  offset="0" style="stop-color:#DCE8F1"/>
				<stop  offset="1" style="stop-color:#BECCDE"/>
			</linearGradient>
			<path class="st30" d="M258.3,271.2c0.4,0.6-1.1,2.3-3.4,3.8c-2.3,1.5-4.4,2.3-4.8,1.7c-0.4-0.6,1.1-2.3,3.4-3.8
				C255.8,271.4,257.9,270.6,258.3,271.2z"/>
			
				<linearGradient id="SVGID_26_" gradientUnits="userSpaceOnUse" x1="-1060.9119" y1="-3198.1982" x2="-1061.0172" y2="-3202.9395" gradientTransform="matrix(1.3035 0.4947 -0.1774 0.4675 1025.1677 2302.0078)">
				<stop  offset="0" style="stop-color:#DCE8F1"/>
				<stop  offset="1" style="stop-color:#BECCDE"/>
			</linearGradient>
			<path class="st31" d="M214.6,282.7c-0.2,0.6-2.5,0.4-5.1-0.6c-2.6-1-4.4-2.3-4.2-2.9c0.2-0.6,2.5-0.4,5.1,0.6
				C213,280.7,214.9,282,214.6,282.7z"/>
			<linearGradient id="SVGID_27_" gradientUnits="userSpaceOnUse" x1="251.4028" y1="212.8133" x2="251.4028" y2="279.5374">
				<stop  offset="0" style="stop-color:#D8E0EB"/>
				<stop  offset="1" style="stop-color:#A0B2C4"/>
			</linearGradient>
			<path class="st32" d="M259.5,242.2c-1.7-3.4-4.6-4.1-8.2-4.1c-2.5,0-5.5-0.8-7.5,1.1c-2.5,2.3,1.3,3.2,3.2,4.1
				c5.8,2.7,1.3,6.8,2.5,11.2c0.5,1.6,3.2,2.5,4.8,1.5c2-1.2,2.7-5.5,3.7-7.5C258.9,246.8,260.5,244.2,259.5,242.2z"/>
			<linearGradient id="SVGID_28_" gradientUnits="userSpaceOnUse" x1="203.8729" y1="212.8132" x2="203.8729" y2="279.5368">
				<stop  offset="0" style="stop-color:#D8E0EB"/>
				<stop  offset="1" style="stop-color:#A0B2C4"/>
			</linearGradient>
			<path class="st33" d="M206.3,229.2c1.6,0.3,5.8,1.7,5.5-1.3c-0.1-1.1-1.6-1.9-2.1-2.9c-0.5-1-0.6-2.2-0.5-3.3
				c0.1-1.9,1.7-5.8-1.4-6.1c-2.9-0.3-3.6,3.4-4.9,5.3c-1.5,2.2-3.8,1.8-5.6,3.5c-2.3,2.2-1.7,5.1,1.6,4.3c1.1-0.3,2.1-0.9,3.2-0.8
				C203.6,227.9,204.8,228.9,206.3,229.2z"/>
		</g>
	</g>
	<g>
		<g>
			<g>
				<path class="st34" d="M154.4,240.9c0,0-0.5,3.2-1.2,3.9c-0.8,0.8-4,1.3-4,1.3s3.2,0.5,3.9,1.3c0.7,0.8,1.2,3.9,1.2,3.9
					s0.5-3.1,1.2-3.9c0.8-0.8,3.9-1.3,3.9-1.3s-3.2-0.5-3.9-1.3C155,244,154.4,240.9,154.4,240.9z"/>
			</g>
		</g>
		<g>
			<g>
				<path class="st34" d="M257,289.7c0,0-0.7,4.6-1.7,5.7c-1.1,1.2-5.9,1.9-5.9,1.9s4.7,0.8,5.8,1.9c1.1,1.1,1.8,5.7,1.8,5.7
					s0.7-4.5,1.8-5.6c1.1-1.1,5.8-1.9,5.8-1.9s-4.7-0.8-5.8-1.9C257.8,294.3,257,289.7,257,289.7z"/>
			</g>
		</g>
		<g>
			<g>
				<path class="st34" d="M193.6,347.2c0,0-0.4,2.9-1.1,3.6c-0.7,0.8-3.7,1.2-3.7,1.2s2.9,0.5,3.6,1.2c0.7,0.7,1.1,3.6,1.1,3.6
					s0.4-2.9,1.1-3.5c0.7-0.7,3.6-1.2,3.6-1.2s-2.9-0.5-3.6-1.2C194.1,350.1,193.6,347.2,193.6,347.2z"/>
			</g>
		</g>
		<g>
			<g>
				<path class="st34" d="M295.2,245.2c0,0-0.3,2.1-0.8,2.6c-0.5,0.5-2.6,0.8-2.6,0.8s2.1,0.3,2.6,0.8c0.5,0.5,0.8,2.6,0.8,2.6
					s0.3-2,0.8-2.5c0.5-0.5,2.6-0.9,2.6-0.9s-2.1-0.3-2.6-0.9C295.6,247.2,295.2,245.2,295.2,245.2z"/>
			</g>
		</g>
		<polygon class="st34" points="286.1,282.1 284.4,281.7 283.1,282.9 283,281.1 281.5,280.2 283.1,279.6 283.5,277.8 284.6,279.2 
			286.3,279 285.4,280.5 		"/>
		<polygon class="st34" points="144.1,294.3 142.4,293.9 141.1,295 141,293.3 139.5,292.4 141.1,291.7 141.5,290 142.6,291.4 
			144.4,291.2 143.4,292.7 		"/>
		<polygon class="st34" points="142.3,231 140.6,230.5 139.3,231.7 139.2,229.9 137.7,229 139.3,228.4 139.7,226.7 140.8,228 
			142.6,227.9 141.6,229.4 		"/>
		<polygon class="st34" points="304.5,227.9 302.8,227.5 301.5,228.6 301.4,226.9 299.9,226 301.5,225.3 301.9,223.6 303,225 
			304.7,224.8 303.8,226.3 		"/>
		<polygon class="st34" points="154.2,266.2 153.5,266 152.9,266.5 152.9,265.8 152.2,265.4 152.9,265.1 153.1,264.4 153.6,265 
			154.3,264.9 153.9,265.5 		"/>
		<polygon class="st34" points="207.9,309.1 206.2,308.7 204.8,309.8 204.7,308.1 203.2,307.2 204.9,306.5 205.2,304.8 206.4,306.1 
			208.1,306 207.2,307.5 		"/>
		<polygon class="st34" points="266.4,276.4 265.6,276.2 265.1,276.7 265,276 264.4,275.6 265.1,275.3 265.3,274.6 265.7,275.2 
			266.5,275.1 266.1,275.7 		"/>
		<polygon class="st34" points="293.5,262.4 292.8,262.2 292.3,262.7 292.2,261.9 291.6,261.6 292.3,261.3 292.4,260.6 292.9,261.1 
			293.6,261.1 293.2,261.7 		"/>
		<polygon class="st34" points="208.1,353.9 207.4,353.7 206.9,354.2 206.8,353.5 206.2,353.1 206.9,352.8 207,352.1 207.5,352.7 
			208.2,352.6 207.8,353.2 		"/>
		<polygon class="st34" points="247.4,348.8 246.7,348.6 246.1,349.1 246.1,348.3 245.4,348 246.1,347.7 246.3,347 246.8,347.5 
			247.5,347.5 247.1,348.1 		"/>
		<polygon class="st34" points="314.7,307.5 314,307.3 313.4,307.8 313.4,307.1 312.7,306.7 313.4,306.4 313.6,305.7 314.1,306.3 
			314.8,306.2 314.4,306.9 		"/>
		<polygon class="st34" points="200.4,319.3 199.7,319.1 199.1,319.6 199.1,318.9 198.5,318.5 199.1,318.2 199.3,317.5 199.8,318.1 
			200.5,318 200.1,318.6 		"/>
		<polygon class="st34" points="169.4,343.3 167.7,342.9 166.4,344 166.3,342.3 164.8,341.4 166.4,340.7 166.8,339 167.9,340.4 
			169.7,340.2 168.7,341.7 		"/>
		<polygon class="st34" points="290,315.8 289.3,315.6 288.7,316.1 288.7,315.3 288.1,315 288.7,314.7 288.9,314 289.4,314.5 
			290.1,314.5 289.7,315.1 		"/>
		<polygon class="st34" points="292.3,334.3 291.6,334.1 291,334.6 291,333.9 290.4,333.5 291,333.2 291.2,332.5 291.7,333.1 
			292.4,333 292,333.6 		"/>
		<polygon class="st34" points="230.7,262.8 230,262.7 229.5,263.1 229.4,262.4 228.8,262 229.5,261.8 229.6,261.1 230.1,261.6 
			230.8,261.6 230.5,262.2 		"/>
		<polygon class="st34" points="202.2,275.9 200.5,275.4 199.2,276.6 199.1,274.8 197.6,273.9 199.2,273.3 199.6,271.6 200.7,272.9 
			202.5,272.8 201.6,274.3 		"/>
		<polygon class="st34" points="232.2,274.9 231.5,274.7 230.9,275.2 230.9,274.4 230.2,274.1 230.9,273.8 231.1,273.1 231.6,273.6 
			232.3,273.6 231.9,274.2 		"/>
		<polygon class="st34" points="253.2,190.3 252.4,190.2 251.9,190.6 251.8,189.9 251.2,189.5 251.9,189.3 252.1,188.5 252.5,189.1 
			253.3,189 252.9,189.7 		"/>
		<g>
			<radialGradient id="SVGID_29_" cx="226.1405" cy="224.9018" r="163.9468" gradientUnits="userSpaceOnUse">
				<stop  offset="0" style="stop-color:#9EB4CB"/>
				<stop  offset="6.018852e-002" style="stop-color:#9BB0C9"/>
				<stop  offset="0.1276" style="stop-color:#91A5C4"/>
				<stop  offset="0.1986" style="stop-color:#8393BC"/>
				<stop  offset="0.272" style="stop-color:#717DB1"/>
				<stop  offset="0.3473" style="stop-color:#5964A5"/>
				<stop  offset="0.4231" style="stop-color:#3E4797"/>
				<stop  offset="0.4634" style="stop-color:#2E368F"/>
				<stop  offset="0.5676" style="stop-color:#2D3283"/>
				<stop  offset="0.7719" style="stop-color:#292967"/>
				<stop  offset="1" style="stop-color:#1D1A45"/>
			</radialGradient>
			<path class="st35" d="M282.1,299.4c0.4-0.9,0.7-1.8,0.9-2.8c1.1-7.6-7.5-15.1-19.2-16.8c-0.5-0.1-1-0.1-1.5-0.2
				c0.3-6.1-4.4-13.5-12.3-18.4c-6.5-4-13.6-5.3-18.9-3.9c-5.6-4.5-14.2-6.7-23.2-5.3c-14.7,2.3-25.1,13.3-23.4,24.5
				c0,0.1,0,0.2,0.1,0.3c-1.5-0.6-3-0.9-4.7-0.9c-7,0-12.6,5.5-12.6,12.3c0,0,0,0,0,0.1c-10.5,1-18.7,9.3-18.7,19.4
				c0,10.8,9.3,19.5,20.8,19.5c4.2,0,8-1.2,11.3-3.1c1.6,3.6,5,6.3,9.2,7.1c4.7,0.8,9.2-1.1,12-4.6c4.8,6.7,14.3,10.5,24.5,8.9
				c9.1-1.4,16.4-6.9,19.6-13.7c1.8,2.5,4.6,4.3,7.9,4.9c4.3,0.8,8.5-0.8,11.3-3.7c2.9,1.6,6.4,2.8,10.2,3.3
				c11.7,1.7,22.1-3.1,23.2-10.7C299.4,308.7,292.3,301.8,282.1,299.4z"/>
			<path class="st36" d="M189.5,278.5c0.1,0.8,0.3,1.5,0.6,2.3c-1.1-1.7-1.9-3.6-2.2-5.6c-1.5-9.8,7.6-19.3,20.4-21.4
				c11.8-1.9,16.7,1.1,21.6,7.8c-6.3-3.9-9.8-6-20-4.4C197.1,259.2,188,268.7,189.5,278.5z M249.1,262.9c-8.9-5.4-18.9-5.2-22.4,0.6
				c-0.8,1.3-1.2,2.9-1.2,4.5c0.2-1,0.5-1.9,1-2.8c3.3-5.4,12.8-5.7,21.2-0.5c8.4,5.1,12.4,13.7,9.1,19.1c-1.1,1.8-3,3-5.2,3.7
				c3.2-0.5,5.8-1.9,7.3-4.3C262.3,277.4,258,268.3,249.1,262.9z M264.9,282.2c-2.1-0.3-4.2-0.3-6.2-0.2c0.7,0.1,1.4,0.1,2,0.2
				c11.3,1.6,19.6,8.9,18.5,16.2c-0.1,0.6-0.3,1.2-0.5,1.8c1-1.2,1.7-2.6,2-4.1C281.7,289.8,274.6,283.6,264.9,282.2z M170.9,322.8
				c1.3,0,2.6-0.2,3.8-0.4c-2.1,0.8-4.3,1.3-6.7,1.3c-9.4,0-17.1-7.2-17.1-16c0-8.8,7.6-16,17.1-16c1,0,1.9,0.1,2.9,0.2
				c-8.9,0-16.1,6.9-16.1,15.5C154.7,315.8,162,322.8,170.9,322.8z M190.7,327.6c-5.3-0.9-8.9-7-8.8-12.1c-0.3,0.7-0.5,1.4-0.6,2.1
				c-1,5.8,2.9,11.3,8.7,12.3c5.8,1,11.4-2.8,12.4-8.6c0.1-0.5,0.1-1.1,0.1-1.6C200.7,324.3,195.8,328.5,190.7,327.6z M244.5,312.5
				c-0.2-1.3-0.6-2.5-1.1-3.7c0.1,0.2,0.1,0.5,0.2,0.7c1.5,9.7-6.5,19.1-18,20.9c-11.5,1.8-22-4.6-23.5-14.3c0-0.3-0.1-0.6-0.1-0.8
				c-0.1,1.3-0.1,2.6,0.1,3.9c1.5,9.7,12.3,16.1,24,14.3C237.8,331.6,246,322.2,244.5,312.5z M254.2,324.3c-3.3-0.6-6.1-2.4-7.9-4.9
				c1.6,3.1,4.5,5.4,8.2,6c5.1,0.9,9.9-1.7,12.2-6C263.8,323.1,259.1,325.1,254.2,324.3z M182,278.4c1.3,0,2.5,0.2,3.7,0.6
				c-1.8-1.3-3.9-2-6.3-2c-5.9,0-10.7,4.7-10.7,10.4c0,0.6,0.1,1.1,0.2,1.6C170.1,283,175.5,278.4,182,278.4z M280.9,301.1
				c8.2,2.9,13.5,8,12.7,13.1c-1,6.7-12.5,10.7-25.5,8.9c0,0,0,0,0,0c2,0.7,4.1,1.2,6.4,1.5c11.1,1.5,21-2.7,22.1-9.3
				C297.4,309.2,290.6,303.2,280.9,301.1z M204.1,315.4c-0.6-4.1,0.6-8.1,3.1-11.6c-4.5,3.8-6.9,9.1-6.1,14.6
				c1.4,9.1,11.5,15.1,22.4,13.4c3.6-0.6,6.9-1.9,9.6-3.8c-1.5,0.5-3.1,0.9-4.7,1.2C216.5,331,205.6,324.9,204.1,315.4z"/>
		</g>
		<g>
			<radialGradient id="SVGID_30_" cx="282.6295" cy="244.8882" r="68.5825" gradientUnits="userSpaceOnUse">
				<stop  offset="0" style="stop-color:#9EB4CB"/>
				<stop  offset="6.018852e-002" style="stop-color:#9BB0C9"/>
				<stop  offset="0.1276" style="stop-color:#91A5C4"/>
				<stop  offset="0.1986" style="stop-color:#8393BC"/>
				<stop  offset="0.272" style="stop-color:#717DB1"/>
				<stop  offset="0.3473" style="stop-color:#5964A5"/>
				<stop  offset="0.4231" style="stop-color:#3E4797"/>
				<stop  offset="0.4634" style="stop-color:#2E368F"/>
				<stop  offset="0.5676" style="stop-color:#2D3283"/>
				<stop  offset="0.7719" style="stop-color:#292967"/>
				<stop  offset="1" style="stop-color:#1D1A45"/>
			</radialGradient>
			<path class="st37" d="M306,276c0.2-0.4,0.3-0.8,0.4-1.2c0.5-3.2-3.1-6.3-8-7c-0.2,0-0.4,0-0.6-0.1c0.1-2.6-1.9-5.7-5.2-7.7
				c-2.7-1.7-5.7-2.2-7.9-1.6c-2.4-1.9-5.9-2.8-9.7-2.2c-6.1,1-10.5,5.6-9.8,10.2c0,0,0,0.1,0,0.1c-0.6-0.2-1.3-0.4-2-0.4
				c-2.9,0-5.3,2.3-5.3,5.2c0,0,0,0,0,0c-4.4,0.4-7.8,3.9-7.8,8.1c0,4.5,3.9,8.2,8.7,8.2c1.7,0,3.4-0.5,4.7-1.3
				c0.7,1.5,2.1,2.7,3.8,3c2,0.3,3.9-0.5,5-1.9c2,2.8,6,4.4,10.2,3.7c3.8-0.6,6.9-2.9,8.2-5.7c0.8,1,1.9,1.8,3.3,2.1
				c1.8,0.3,3.6-0.3,4.7-1.6c1.2,0.7,2.7,1.2,4.3,1.4c4.9,0.7,9.2-1.3,9.7-4.5C313.3,279.9,310.3,277,306,276z"/>
			<path class="st36" d="M267.3,267.3c0,0.3,0.1,0.6,0.2,0.9c-0.5-0.7-0.8-1.5-0.9-2.3c-0.6-4.1,3.2-8.1,8.5-8.9
				c4.9-0.8,7,0.5,9,3.3c-2.6-1.6-4.1-2.5-8.4-1.8C270.5,259.2,266.7,263.2,267.3,267.3z M292.2,260.8c-3.7-2.3-7.9-2.2-9.4,0.2
				c-0.3,0.6-0.5,1.2-0.5,1.9c0.1-0.4,0.2-0.8,0.4-1.2c1.4-2.3,5.4-2.4,8.9-0.2c3.5,2.2,5.2,5.7,3.8,8c-0.5,0.8-1.2,1.3-2.2,1.5
				c1.3-0.2,2.4-0.8,3.1-1.8C297.8,266.8,296,263,292.2,260.8z M298.9,268.9c-0.9-0.1-1.8-0.1-2.6-0.1c0.3,0,0.6,0.1,0.9,0.1
				c4.7,0.7,8.2,3.7,7.7,6.8c0,0.3-0.1,0.5-0.2,0.7c0.4-0.5,0.7-1.1,0.8-1.7C305.9,272,302.9,269.5,298.9,268.9z M259.5,285.8
				c0.6,0,1.1-0.1,1.6-0.2c-0.9,0.3-1.8,0.5-2.8,0.5c-3.9,0-7.1-3-7.1-6.7c0-3.7,3.2-6.7,7.1-6.7c0.4,0,0.8,0,1.2,0.1
				c-3.7,0-6.7,2.9-6.7,6.5C252.8,282.9,255.8,285.8,259.5,285.8z M267.8,287.8c-2.2-0.4-3.7-2.9-3.7-5.1c-0.1,0.3-0.2,0.6-0.3,0.9
				c-0.4,2.4,1.2,4.7,3.6,5.2c2.4,0.4,4.8-1.2,5.2-3.6c0-0.2,0-0.5,0.1-0.7C272,286.5,269.9,288.2,267.8,287.8z M290.3,281.5
				c-0.1-0.5-0.2-1.1-0.5-1.5c0,0.1,0.1,0.2,0.1,0.3c0.6,4.1-2.7,8-7.5,8.7c-4.8,0.8-9.2-1.9-9.8-6c0-0.1,0-0.2,0-0.3
				c-0.1,0.5-0.1,1.1,0,1.6c0.6,4.1,5.1,6.7,10,6C287.5,289.5,290.9,285.6,290.3,281.5z M294.4,286.5c-1.4-0.2-2.5-1-3.3-2
				c0.7,1.3,1.9,2.3,3.4,2.5c2.1,0.4,4.2-0.7,5.1-2.5C298.4,286,296.4,286.8,294.4,286.5z M264.2,267.3c0.5,0,1,0.1,1.5,0.2
				c-0.7-0.5-1.6-0.9-2.6-0.9c-2.5,0-4.5,2-4.5,4.4c0,0.2,0,0.5,0.1,0.7C259.2,269.2,261.4,267.3,264.2,267.3z M305.5,276.8
				c3.4,1.2,5.7,3.4,5.3,5.5c-0.4,2.8-5.2,4.5-10.7,3.7c0,0,0,0,0,0c0.8,0.3,1.7,0.5,2.7,0.6c4.7,0.6,8.8-1.1,9.2-3.9
				C312.5,280.1,309.6,277.6,305.5,276.8z M273.4,282.7c-0.3-1.7,0.2-3.4,1.3-4.8c-1.9,1.6-2.9,3.8-2.5,6.1c0.6,3.8,4.8,6.3,9.4,5.6
				c1.5-0.2,2.9-0.8,4-1.6c-0.6,0.2-1.3,0.4-2,0.5C278.6,289.3,274,286.7,273.4,282.7z"/>
		</g>
	</g>
</g>
<g>
	<g>
		<linearGradient id="SVGID_31_" gradientUnits="userSpaceOnUse" x1="759.4241" y1="140.544" x2="959.6018" y2="140.544">
			<stop  offset="0" style="stop-color:#FFFFFF;stop-opacity:0"/>
			<stop  offset="4.017906e-002" style="stop-color:#FDEBEE;stop-opacity:4.051906e-002"/>
			<stop  offset="0.1257" style="stop-color:#FAC6CE;stop-opacity:0.1267"/>
			<stop  offset="0.2187" style="stop-color:#F7A7B2;stop-opacity:0.2205"/>
			<stop  offset="0.3192" style="stop-color:#F58D9C;stop-opacity:0.3219"/>
			<stop  offset="0.4302" style="stop-color:#F3798A;stop-opacity:0.4338"/>
			<stop  offset="0.5573" style="stop-color:#F26C7E;stop-opacity:0.562"/>
			<stop  offset="0.7143" style="stop-color:#F16377;stop-opacity:0.7204"/>
			<stop  offset="0.9916" style="stop-color:#F16175"/>
		</linearGradient>
		<rect x="759.4" y="128.2" class="st38" width="200.2" height="24.7"/>
		<g>
			<g>
				<path class="st6" d="M899.6,145.1c-4.3,0-5.9-2-5.9-5.1c0-2.9,1.8-5.5,5.8-5.5c2.6,0,4.6,0.8,4.6,0.8v7.6h2.2v2.3H899.6z
					 M896,131.6c0-0.8,0.6-1.5,1.5-1.5c0.8,0,1.5,0.7,1.5,1.5c0,0.8-0.6,1.5-1.5,1.5C896.7,133.1,896,132.4,896,131.6z M901.4,137.2
					c0,0-0.8-0.4-2.1-0.4c-1.7,0-2.6,1.3-2.6,3c0,2,1,3.1,3.3,3.1h1.4V137.2z M899.7,131.6c0-0.8,0.6-1.5,1.5-1.5
					c0.8,0,1.5,0.7,1.5,1.5c0,0.8-0.6,1.5-1.5,1.5C900.3,133.1,899.7,132.4,899.7,131.6z"/>
				<path class="st6" d="M906,142.8h4.1v-8.1h2.9v10.3h-7V142.8z M907.9,149.9c-0.8,0-1.5-0.7-1.5-1.5c0-0.8,0.6-1.5,1.5-1.5
					c0.8,0,1.5,0.7,1.5,1.5C909.3,149.2,908.7,149.9,907.9,149.9z M911.5,149.9c-0.8,0-1.5-0.7-1.5-1.5c0-0.8,0.6-1.5,1.5-1.5
					c0.8,0,1.5,0.7,1.5,1.5C913,149.2,912.3,149.9,911.5,149.9z"/>
				<path class="st6" d="M913.2,150.5l0.2-2.3c0.5,0.2,1.1,0.3,1.8,0.3c1.5,0,2.4-0.7,2.4-3.1v-10.6h2.9v8.1h2.2v2.3h-2.2v0.1
					c0,2.8-0.9,5.5-5.4,5.5C914.3,150.7,913.7,150.6,913.2,150.5z"/>
				<path class="st6" d="M922.3,145.1v-2.3h1.9c0.6,0,1,0.1,1,0.1s-0.6-0.6-0.6-1.5c0-2.1,1.5-3.7,4.2-3.7c2.9,0,4,2,4,4.5v0.6h2.3
					v-0.3c0-4.6-1.8-6.8-6.2-6.8c-1.5,0-3.3,0.4-4.7,0.8l-0.3-2c1.6-0.5,3.6-0.9,5.3-0.9c5.5,0,8.6,2.6,8.6,9.1v0.1h1.6v2.3H922.3z
					 M930.4,142.2c0-1.6-0.6-2.7-1.9-2.7c-1,0-1.6,0.7-1.6,1.6c0,1.1,0.9,1.8,2.1,1.8h1.4V142.2z"/>
				<path class="st6" d="M939.1,142.8h8.5c0.1-0.5,0.1-1.1,0.1-1.7c0-2.8-1.1-4.2-4.3-4.2c-0.9,0-1.7,0.1-2.5,0.2v-2.3
					c0.9-0.1,1.9-0.2,2.8-0.2c5,0,6.9,2.2,6.9,6.4c0,1.1-0.1,2.5-0.4,4.1h-11.1V142.8z M942.8,148.4c0-0.8,0.7-1.5,1.5-1.5
					s1.5,0.7,1.5,1.5c0,0.8-0.7,1.5-1.5,1.5S942.8,149.3,942.8,148.4z"/>
			</g>
		</g>
		<g>
			<path class="st1" d="M729.4,132.6c0.1,0.4,0.2,0.8,0.2,1.1c0,0.9-0.6,1.7-1.9,2.2l-4.9,1.9c-1.5,0.6-2.8,1.1-2.8,2
				c0,0.1,0,0.1,0,0.2l-0.2,0.1c-0.1-0.4-0.2-0.8-0.2-1.1c0-0.9,0.5-1.7,1.9-2.3l4.9-1.9c1.7-0.7,2.8-1.1,2.8-2.2L729.4,132.6z"/>
			<path class="st1" d="M735.6,122.9v3.3h-12.2c-4.1,0-5.6-2-5.8-5h0.4c0.4,1.4,1.1,1.7,5.9,1.8h0.4c-1.9-1.7-2.8-3.9-2.8-6.4l0.1-1
				c0-1.6,1.3-2.9,3-2.9h10.5v3.1h-10.4v0.9c0,3.5,2.7,5.9,6.5,6.3H735.6z"/>
			<path class="st1" d="M744.4,115.9c0,4.1,3,7.1,6.7,7.1h1.4v3.3h-1.4c-5.5,0-10-5.2-10-10.3V94.6c0-4.2,2.1-5.8,5.4-5.9v0.5
				c-1.7,0.2-2.1,2.8-2.1,5.6c0,0.6,0,1.2,0,1.9v18V115.9z"/>
			<path class="st1" d="M789.8,117c0,3.3,2.5,5.9,6,5.9v3.3c-3.3,0-6-1.5-7.7-4.1c-1.5,2.4-4.4,4.1-7.5,4.1c-3.2,0-6.2-1.8-7.8-4.3
				c-1.7,2.6-4.2,4.3-7.9,4.3c-2.4,0-4.4-0.8-6.2-2.2c-1,1.7-2.2,2.1-3,2.2h-3.5v-3.3h2.4c0.5,0,0.9-0.4,1.1-1.1v-17.3h3.3v12
				c0,3.6,2.8,6.4,6,6.4c3.3,0,5.8-2.4,5.9-5.9v-12.6h3.3v11.6c0,3.7,2.7,6.8,6,6.8c3.2,0,6.2-2.2,6.2-5.9v-7.4
				c0-4.9,2.6-5.8,5.1-5.9v0.6c-1.8,0.3-1.8,3.6-1.8,7V117z M769.6,99.6l-2.8-2.8l2.8-2.9l2.9,2.9L769.6,99.6z M772.5,96l-2.8-2.8
				l2.8-2.9l2.8,2.9L772.5,96z M775.3,99.6l-2.8-2.8l2.8-2.9l2.8,2.9L775.3,99.6z"/>
			<path class="st1" d="M811.5,133.1c0.1,0.4,0.2,0.8,0.2,1.1c0,0.9-0.6,1.7-1.9,2.2l-4.9,1.9c-1.5,0.6-2.8,1.1-2.8,2
				c0,0.1,0,0.1,0,0.2l-0.2,0.1c-0.1-0.4-0.2-0.8-0.2-1.1c0-0.9,0.5-1.7,1.9-2.3l4.9-1.9c1.7-0.7,2.8-1.1,2.8-2.2L811.5,133.1z"/>
			<path class="st1" d="M825.4,126.2h-29.6v-3.3h4.6c-1.7-1.7-2.5-4.1-2.5-6.3c0-5.1,4.5-9.6,9.7-9.6h6.9c3.4,0,6.8,0,7-2.2h0.5
				c0,3.4-1.9,5.4-5.8,5.4h-8.2c-4.2,0-7.1,2.7-7.1,6.4s2.8,6.2,6.7,6.3h17.9V126.2z"/>
			<path class="st1" d="M835.3,80.5c0.3-0.2,0.7-0.3,1.1-0.3v0.2c-0.7,0.1-0.7,1.2-0.7,2.4v2c0,1.7-1.4,3.1-3.1,3.1
				c-1.9,0-3.4-1.1-3.4-2.8v-1.2c0-1.8,1.6-3.4,3.4-3.4H835.3z M832.7,81.6c-1.4,0-2.5,1-2.5,2.3v1.2c0,0.9,1,1.7,2.3,1.7
				c1,0,2.1-0.9,2.1-2.1v-2.5c0-0.2,0-0.5,0.1-0.6H832.7z"/>
			<path class="st1" d="M829,88c3.1,0.1,5.3,1.7,5.3,6v21.6c0,4-2.5,7.9-6,9.6c-1.2,0.6-2.2,0.9-3,0.9v-3.3c2.4-0.2,5.8-2.8,5.8-7.3
				v-20c0-3.5,0-7-2.1-7.2V88z"/>
			<path class="st1" d="M841.7,96.2c0-5.7-0.2-7.3-2-7.5v-0.4c3.5,0.1,5.2,2.2,5.2,6.2v31.8h-3.3V96.2z"/>
			<path class="st1" d="M868.8,80.6c-1.3,2.3-3.3,3.5-5.2,3.5c-1.4,0-2.8-0.7-3.7-1.8l0.1-0.1c0.7,0.9,1.8,1.4,3,1.4
				c1.7,0,3.6-1,4.9-3.4l0.3-0.6c-0.2,0-0.4,0.1-0.6,0.1c-1.8,0-3.1-1.7-3.1-3.1c0-0.4,0.1-0.8,0.3-1.1l0.6-1c0.6-1,1.7-1.6,2.8-1.6
				c0.5,0,1,0.1,1.5,0.4l-0.4,0.9c-0.4-0.2-0.8-0.3-1.2-0.3c-0.8,0-1.5,0.4-1.9,1.1l-0.5,1c-0.1,0.2-0.2,0.4-0.2,0.6
				c0,0.8,0.8,2,2.1,2c0.5,0,0.9-0.2,1.3-0.5l1.7-3.1l-1.4-0.8l0.4-0.9l2.2,1.2c0.3,0,0.7,0.1,1,0.3l-0.1,0.1c-0.1,0-0.2,0-0.2,0
				c-0.5,0-0.9,0.9-1.4,1.7l-0.9,1.6L868.8,80.6z"/>
			<path class="st1" d="M878.3,104c0.8-0.5,1.9-0.7,3.1-0.8v0.5c-2.1,0.3-2.1,3.7-2.1,7.2v6c0,5.2-4.3,9.3-9.4,9.3
				c-5.4,0-10.2-3.6-10.2-8.3v-3.6c0-5.5,4.8-10.3,10.3-10.3H878.3z M870.6,107.2c-4.3,0-7.4,3.2-7.4,7v3.6c0,2.6,2.9,5.1,6.8,5.1
				c3.3,0,6.2-2.8,6.2-6.1v-7.6c0-0.9,0-1.4,0.3-2H870.6z M866.2,99.7l-2.9-2.9l2.9-2.8l2.9,2.8L866.2,99.7z M872,99.7l-2.9-2.9
				L872,94l2.9,2.8L872,99.7z"/>
			<path class="st1" d="M917.1,126.2c-3.4,0-6.6-1.6-8.3-4.5c-1,2-4.5,4.5-8,4.5h-17.1v-3.3h10.9v-13.1c0-3.7-0.2-7.2-2.2-7.5v-0.5
				c3.4,0.2,5.5,1.8,5.5,6.2v14.9h2.9c3.8,0,6.8-3.3,6.8-7.7V94.6c0-3.8-0.1-7.1-2.1-7.4v-0.5c3.3,0.1,5.4,1.8,5.4,6.1v24.7
				c0.3,3.3,2.8,5.2,6.2,5.5V126.2z"/>
			<path class="st1" d="M950.5,92.3c0.1,0.4,0.2,0.8,0.2,1.1c0,0.9-0.6,1.7-1.9,2.2l-4.9,1.9c-1.5,0.6-2.8,1.1-2.8,2
				c0,0.1,0,0.1,0,0.2l-0.2,0.1c-0.1-0.4-0.2-0.8-0.2-1.1c0-0.9,0.5-1.7,1.9-2.3l4.9-1.9c1.7-0.7,2.8-1.1,2.8-2.2L950.5,92.3z"/>
			<path class="st1" d="M959.6,126.2H917v-3.3h2.8c0.6-0.3,0.9-1.1,0.9-2.5c0-3.4-0.8-6.6-3.2-8.8l0.4-0.3c2.2,2.1,3.7,4.7,4.4,7.3
				c0.7-8.2,8.8-14.5,19.3-14.5h6.9c6.1,0.5,11.2,6.1,11.1,12.4V126.2z M956.3,122.9v-6.5c0-3.8-1.7-6.5-5.1-8.1
				c-1.4-0.6-3.3-0.9-6.2-0.9h-3.4c-11.1,0-18.8,6.2-18.8,14.5v1H956.3z"/>
		</g>
	</g>
</g>
</svg>
