<?xml version="1.0" encoding="utf-8"?>
<!-- Generator: Adobe Illustrator 19.2.0, SVG Export Plug-In . SVG Version: 6.00 Build 0)  -->
<svg version="1.1" id="Layer_1" xmlns="http://www.w3.org/2000/svg" xmlns:xlink="http://www.w3.org/1999/xlink" x="0px" y="0px"
	 viewBox="0 0 1024 768" style="enable-background:new 0 0 1024 768;" xml:space="preserve">
<style type="text/css">
	.st0{fill:url(#SVGID_1_);}
	.st1{fill:#622872;}
	.st2{fill:url(#SVGID_2_);}
	.st3{fill:#CA4977;}
	.st4{fill-rule:evenodd;clip-rule:evenodd;fill:#F6DFB4;}
	.st5{fill:#D2D3D4;}
	.st6{fill:#FFFFFF;}
	.st7{fill:#205B6A;}
	.st8{fill:url(#SVGID_3_);}
	.st9{fill:url(#SVGID_4_);}
	.st10{fill:url(#SVGID_5_);}
	.st11{fill:url(#SVGID_6_);}
	.st12{fill:url(#SVGID_7_);}
	.st13{fill:url(#SVGID_8_);}
	.st14{fill:url(#SVGID_9_);}
	.st15{fill:url(#SVGID_10_);}
	.st16{fill:url(#SVGID_11_);}
	.st17{fill:url(#SVGID_12_);}
	.st18{fill:url(#SVGID_13_);}
	.st19{fill:url(#SVGID_14_);}
	.st20{fill:url(#SVGID_15_);}
	.st21{fill:url(#SVGID_16_);}
	.st22{fill:url(#SVGID_17_);}
	.st23{fill:url(#SVGID_18_);}
	.st24{fill:url(#SVGID_19_);}
	.st25{fill:url(#SVGID_20_);}
	.st26{fill:url(#SVGID_21_);}
	.st27{fill:url(#SVGID_22_);}
	.st28{fill:url(#SVGID_23_);}
	.st29{fill:url(#SVGID_24_);}
	.st30{fill:url(#SVGID_25_);}
	.st31{fill:url(#SVGID_26_);}
	.st32{fill:url(#SVGID_27_);}
	.st33{fill:url(#SVGID_28_);}
	.st34{fill:#2B3C90;}
	.st35{fill:url(#SVGID_29_);}
	.st36{fill:#1D1A45;}
	.st37{fill:url(#SVGID_30_);}
	.st38{fill:url(#SVGID_31_);}
</style>
<g>
	<g>
		<g>
			<g>
				<linearGradient id="SVGID_1_" gradientUnits="userSpaceOnUse" x1="244.6099" y1="138.1426" x2="244.6099" y2="721.1336">
					<stop  offset="0" style="stop-color:#1F1A46"/>
					<stop  offset="0.1599" style="stop-color:#211E4C"/>
					<stop  offset="0.4318" style="stop-color:#26265D"/>
					<stop  offset="0.7806" style="stop-color:#2B337A"/>
					<stop  offset="0.9949" style="stop-color:#2B3C90"/>
				</linearGradient>
				<path class="st0" d="M394.9,266.9h-6.1c-1.8-28.2-25.9-59.6-71.7-93.4c-35-25.9-70.5-43.7-70.9-43.9c-1-0.5-2.2-0.5-3.1,0
					c-0.3,0.2-35.9,18-70.9,43.9c-45.7,33.8-69.8,65.2-71.7,93.4h-6.1c-1.9,0-3.5,1.6-3.5,3.5v360.2h307.5V270.4
					C398.4,268.5,396.8,266.9,394.9,266.9z"/>
			</g>
		</g>
	</g>
</g>
<g>
	<path class="st1" d="M734.5,213.5c0-0.8,0.7-1.5,1.5-1.5c0.8,0,1.5,0.7,1.5,1.5c0,0.8-0.7,1.5-1.5,1.5
		C735.2,215,734.5,214.4,734.5,213.5z M734.5,221c0-0.8,0.7-1.5,1.5-1.5c0.8,0,1.5,0.7,1.5,1.5c0,0.8-0.7,1.5-1.5,1.5
		C735.2,222.5,734.5,221.8,734.5,221z"/>
	<path class="st1" d="M750.6,200.9l5.7-1.1v1.2l-5.7,1.1V200.9z M750.6,203.4l5.7-1.1v1.2l-5.7,1.1V203.4z"/>
	<path class="st1" d="M758.2,221c0,0.4-0.2,1.2-1.5,1.2c-2.1,0-3.7-0.6-4.1-2.9c-1.8,2.2-4.4,3-7.2,3l-0.8-1.7l0.1-0.1
		c2.3,0,4.3-0.5,5.9-1.6c-1.3-2.5-3.4-4.6-6.1-7.1l0.7-1.9l0.2-0.1c3,2.7,5.4,6.1,6.4,8.1c0.3-0.3,0.5-0.6,0.7-1v-10.7l1.7-0.4
		l0.1,0.1v12.1c0,1.9,0.8,2.3,2.8,2.3C758,220.4,758.2,220.6,758.2,221z"/>
	<path class="st1" d="M761.2,214.2c0.7,1.7,1.2,3.3,1.2,4.3c0,1-0.4,2.2-1.2,2.9c-0.6,0.6-1.6,0.8-3.8,0.8h-0.7l0.5-1.9h0.7
		c1.2,0,2.1-0.1,2.5-0.3c0.5-1.2-0.2-2.9-1-4.7l1.5-1.2H761.2z M757.8,210.4c0.4,0,0.8,0,1.2,0c-0.3-0.4-0.5-1-0.5-1.5
		c0-1.3,0.8-2.1,2.2-2.1c0.6,0,1.2,0.1,1.8,0.4l-0.4,1.4c-0.5-0.2-0.9-0.3-1.2-0.3c-0.7,0-1,0.5-1,1c0,0.4,0.2,0.8,0.5,1.1
		c0.8,0,1.7-0.1,2.4-0.2l0.1,1.3c-1.3,0.2-3,0.3-5,0.4L757.8,210.4z"/>
	<path class="st1" d="M765.4,218.3v-12l1.7-0.4l0.1,0.1v12.1c0,1.9,0.8,2.3,2.8,2.3c0.8,0,1,0.3,1,0.6c0,0.4-0.2,1.2-1.5,1.2
		C767.2,222.2,765.4,221.4,765.4,218.3z"/>
	<path class="st1" d="M778.6,217c0,2.3-0.4,3.6-1.5,4.4c-1.3,0.7-3.1,0.8-7.6,0.8l0.5-1.9c4.6,0,6.1-0.2,6.8-0.5
		c0.1-0.3,0.1-0.8,0.2-1.5c-0.7,0.2-1.6,0.3-2.5,0.3c-2.1,0-3.1-1.1-3.1-2.8c0-2.2,1.6-4.6,3.5-4.6
		C777.2,211.3,778.6,214.1,778.6,217z M773.6,208.7l-1.9-1.4l1.2-1.8l1.9,1.3L773.6,208.7z M774.9,216.8c0.8,0,1.5-0.1,2.2-0.2
		c-0.1-1.7-1.1-3.5-2.2-3.5c-0.9,0-1.9,1.2-1.9,2.5C773,216.5,773.7,216.8,774.9,216.8z M776.9,208.7l-1.9-1.4l1.2-1.8l1.9,1.3
		L776.9,208.7z"/>
	<path class="st1" d="M791.4,236.1l5.7-1.1v1.2l-5.7,1.1V236.1z"/>
	<path class="st1" d="M799.9,231.2c-1.6,0.6-3.5,1.1-5.6,1.1c-4.5,0-7.6-2.1-7.6-5.5c0-2,1.1-3.6,3.3-5c-1.5-1.2-2.3-2.9-2.3-4.4
		c0-2.5,2-4,4.6-4c1.2,0,2.4,0.4,3.2,0.8l-0.2,1.7l-0.1,0c-0.9-0.4-1.9-0.6-2.9-0.6c-1.6,0-2.6,0.7-2.6,2.1c0,1.1,0.6,2.5,1.9,3.4
		c1.3-0.6,2.8-1.2,4.6-1.7l0.1,0l-0.1,1.9c-4.8,1.4-7.7,2.8-7.7,5.4c0,2.5,2.4,4,6.4,4c1.5,0,3.1-0.2,4.5-0.7l0.2,0.1L799.9,231.2z"
		/>
	<path class="st1" d="M810.2,221c0,0.4-0.2,1.2-1.5,1.2h-1.8c-0.8,2.3-3,4.1-7,4.2l-1-1.4l0.1-0.2c3-0.1,5.2-1.1,6.1-2.7h-0.7
		c-3,0-4.4-1.2-4.4-3.1c0-2.2,1.6-4.7,3.5-4.7c2.2,0,3.6,2.7,3.6,5.7v0.1h1.9C810,220.4,810.2,220.6,810.2,221z M805.7,220.4v-0.1
		c0-2.1-1.1-3.8-2.2-3.8c-0.9,0-1.9,1-1.9,2.6c0,0.9,0.8,1.4,3.1,1.4H805.7z"/>
	<path class="st1" d="M818.2,209.1l-6.2,3.5c4.7,3.1,5.5,4.8,5.5,6.2c0,1.9-1.7,3.4-6.5,3.4h-2.3l0.5-1.9h1.8c2.5,0,4.5-0.5,5-1
		c0-1.9-2.5-3.6-5.6-5.7l-0.1-0.1l0.5-2.4l7.9-4.5l0.2,0.1L818.2,209.1z"/>
	<path class="st1" d="M828.7,221c0,0.4-0.2,1.2-1.4,1.2c-1,0-1.6-0.3-2-0.6c-0.7,2.2-3.3,4.2-7.2,4.9l-1-1.4l0.1-0.2
		c4.7-0.9,6.4-2.8,6.8-4.6c-0.4-1.1-1.1-2.6-1.8-4l1.4-1.5h0.2c0.6,1.7,1.2,3.1,1.4,3.7c0.6,1.6,1,1.9,2.5,1.9
		C828.5,220.4,828.7,220.6,828.7,221z"/>
	<path class="st1" d="M827.8,220.4c0.8,0,1.7,0,2.3-0.5c0.1-0.4,0.2-1,0.2-1.9v-11.7l1.7-0.4l0.2,0.1v11.9c0,3.5-1.8,4.4-4.8,4.4
		L827.8,220.4z"/>
	<path class="st1" d="M835.2,222.3v-16l1.8-0.5l0.1,0.1l0,16.1l-1.7,0.4L835.2,222.3z"/>
	<path class="st1" d="M861.5,221c0,0.4-0.2,1.2-1.5,1.2c-0.6,0-1.4-0.2-1.9-0.6c-0.5,3.4-3.3,5.1-6.9,5.1c-3.7,0-5.7-2.1-5.7-4.9
		c0-1,0.2-2.1,0.4-2.7l1.5-0.5l0.2,0.1c-0.2,0.8-0.2,1.6-0.2,2.2c0,2.4,0.9,4,4.2,4c2.7,0,3.9-1,4.6-1.8c0.8-1.8,0-3.6-1-6l1.7-1.2
		h0.1c0.3,0.8,0.7,2.3,1.2,3.2c0.5,1,1.2,1.4,2.2,1.4C861.2,220.4,861.5,220.6,861.5,221z M851.8,214.7l-2-1.4l1.2-1.8l2,1.3
		L851.8,214.7z"/>
	<path class="st1" d="M870.9,219.9c0,1.6-0.8,2.6-2.4,2.6c-1.2,0-3.1-0.6-4.8-1.8c-0.9,1.2-2,1.5-3.6,1.5l0.5-1.9
		c1.1,0,1.6-0.5,2.2-1.5c0.8-1.5,2-4.3,4.3-4.3S870.9,217.2,870.9,219.9z M866.9,216.4c-0.9,0-1.4,1.1-2.4,2.9
		c1.4,0.9,2.8,1.4,3.5,1.4c0.4,0,0.8-0.1,1-0.3C869.3,219.2,868.1,216.4,866.9,216.4z"/>
	<path class="st1" d="M879.1,221.7c0-1,0.2-2.1,0.4-2.7l1.5-0.5l0.2,0.1c-0.2,0.8-0.2,1.6-0.2,2.2c0,2.4,0.9,4,4.2,4
		c2,0,3.4-0.5,4.4-1.7c0.3-0.6,0.6-1.8,0.6-3.7v-13.1l1.7-0.4l0.2,0.1l0,13.2c0,5.4-2.5,7.5-7.2,7.5
		C881,226.7,879.1,224.6,879.1,221.7z"/>
	<path class="st1" d="M906.1,221c0,0.4-0.2,1.2-1.5,1.2c-1.1,0-1.9-0.3-2.5-1.3c-0.9,0.9-2.6,1.4-4.9,1.4c-0.5,0-1.9-0.1-2.8-0.3
		l0.3-1.8l0.1-0.1c0.8,0.2,2.1,0.2,2.6,0.2c1.5,0,3.1-0.3,3.9-0.9l-0.1-0.1c-0.4-0.8-2.2-4.3-3.2-6l1.4-1.5h0.2
		c0.7,1.5,2.4,5.4,2.8,6c0.9,1.9,1.4,2.3,2.7,2.3C905.9,220.4,906.1,220.6,906.1,221z"/>
	<path class="st1" d="M914.2,221c0,0.4-0.2,1.2-1.4,1.2c-1.5,0-2.9-0.3-3.9-1.2c-0.8,0.8-1.8,1.2-3.3,1.2h-0.8l0.5-1.9h0.7
		c0.7,0,1.4-0.1,1.8-0.5c0.3-0.5,0.7-1.6,1.2-3.6l1.8-0.5l0.2,0.1c-0.3,1.5-0.7,2.7-1.1,3.7c0.6,0.3,1.5,0.7,3.4,0.7
		C914,220.4,914.2,220.6,914.2,221z M908.5,213.1l-1.9-1.4l1.2-1.8l1.9,1.3L908.5,213.1z M911.9,213.1l-1.9-1.4l1.2-1.8l1.9,1.3
		L911.9,213.1z"/>
	<path class="st1" d="M924.1,219.9l-0.6,1.7c-1.9,0.4-4.7,0.6-10.8,0.6l0.5-1.9c0.9,0,1.8,0,2.7,0c-0.6-0.9-1-2-1-3.1
		c0-2.5,2-4,4.6-4c1.2,0,2.4,0.4,3.2,0.8l-0.2,1.7l-0.1,0c-0.9-0.4-1.9-0.6-2.9-0.6c-1.6,0-2.6,0.8-2.6,2.1c0,0.9,0.5,2.1,1.4,3
		c2.1-0.1,3.9-0.2,5.6-0.4L924.1,219.9z"/>
	<path class="st1" d="M930,204c-1.2,0.1-2.7,0.3-4.6,0.3l-0.1-1.3c0.3,0,0.7,0,1.1,0c-0.3-0.4-0.4-0.9-0.4-1.4c0-1.2,0.7-1.9,2-1.9
		c0.5,0,1.1,0.1,1.7,0.3l-0.3,1.2c-0.5-0.1-0.8-0.2-1.1-0.2c-0.6,0-0.9,0.4-0.9,0.9c0,0.4,0.2,0.7,0.5,1c0.8,0,1.5-0.1,2.2-0.2
		L930,204z M928.6,205.8l0.1,0.1l0,16.1l-1.7,0.4l-0.1-0.1v-16L928.6,205.8z"/>
</g>
<linearGradient id="SVGID_2_" gradientUnits="userSpaceOnUse" x1="504.8846" y1="358.0948" x2="1023.4247" y2="358.0948">
	<stop  offset="0.1199" style="stop-color:#FFFFFF"/>
	<stop  offset="0.9969" style="stop-color:#FFF2D5"/>
</linearGradient>
<rect x="504.9" y="285.6" class="st2" width="518.5" height="145"/>
<g>
	<g>
		<path class="st3" d="M648.6,340.6c0-1.5,1.3-2.8,2.9-2.8c1.5,0,2.9,1.3,2.9,2.8c0,1.6-1.4,2.9-2.9,2.9
			C649.9,343.5,648.6,342.2,648.6,340.6z"/>
		<path class="st3" d="M656,340.6c0-1.5,1.3-2.8,2.9-2.8c1.5,0,2.9,1.3,2.9,2.8c0,1.6-1.4,2.9-2.9,2.9
			C657.3,343.5,656,342.2,656,340.6z"/>
		<path class="st3" d="M676.3,337.2c0,3.7-2.5,6.1-6.4,6.1c-3.8,0-6-1.8-6-5.1c0-1.8,0.8-3.9,3.5-7.2c-0.3-0.3-0.7-0.5-1-0.8
			l2.2-3.7l0.4-0.3C674.4,330.9,676.3,334.1,676.3,337.2z M672.4,337c0-1.1-0.9-2.4-2.4-3.9c-1.6,1.5-2.2,2.8-2.2,3.9
			c0,1.1,0.9,1.8,2.3,1.8C671.6,338.8,672.4,338.1,672.4,337z"/>
		<path class="st3" d="M697.9,340c0,1.7-0.6,3.1-2.4,3.1c-2.3,0-3.8-0.4-4.8-1.7c-1.7,1.3-4.4,2-7.5,2c-0.9,0-2.9-0.1-4.2-0.4
			l0.6-4.4l0.3-0.1c1.2,0.2,2.8,0.3,3.7,0.3c1.7,0,3.8-0.2,5.2-0.8c-0.8-1.5-2.7-5.3-4.2-8.1l3.2-3.7h0.4c0.9,2.2,3.3,7.8,3.8,9
			c1.3,3,2,3.4,4.4,3.4C697.6,338.5,697.9,339.2,697.9,340z"/>
		<path class="st3" d="M717.1,340c0,1.8-0.8,3.1-2.5,3.1c-1.5,0-2.7-0.4-3.7-1.3c-0.7,1.1-1.7,1.7-3.1,1.7c-1.5,0-4-0.8-6.4-2.5
			c-1.4,1.8-3.3,2-6,2l1-4.5c1.6,0,2.1-0.3,2.9-1.7c2-3.4,3.7-6.6,6.7-6.6c2.7,0,4,2.4,5.5,5.4c1.2,2.3,1.8,2.9,4,2.9
			C716.7,338.5,717.1,339.1,717.1,340z M708.9,338.6l-0.1-0.2c-1.1-2.6-2.1-3.9-2.8-3.9c-0.8,0-1.7,1.3-2.6,3.1
			c1.4,0.9,2.8,1.6,3.9,1.6C708,339.3,708.5,339,708.9,338.6z"/>
		<path class="st3" d="M735.6,334.1l-1.2,4.3c-2.5,0.3-5.9,1.1-9.6,2.4c-5,1.7-7.5,2.2-10.2,2.2l1-4.5c2.8,0,4.8-0.2,9.4-1.4
			c1.5-0.4,2.7-0.7,3.7-1c-0.5-0.2-1.1-0.5-1.7-0.8c-2.8-1.5-4.4-2-5.9-2c-1.6,0-2.9,0.3-4.1,0.7l-0.2-0.2l1.6-4
			c0.8-0.4,2.1-0.8,3.3-0.8c1.6,0,3.1,0.6,6.7,2.4C732.3,333.5,734,334,735.6,334.1z"/>
		<path class="st3" d="M770.5,340c0,1.7-0.5,3.1-2.4,3.1c-0.9,0-1.7-0.3-2.3-0.6c-1.3,5-5.5,7.3-11,7.3c-5.6,0-8.7-3-8.7-7.5
			c0-1.7,0.4-3.4,0.7-4.4l3.2-1.2l0.4,0.1c-0.2,1.3-0.3,2.4-0.3,3.4c0,3,1.3,5.1,5.6,5.1c3.2,0,5.3-1.2,6.2-2.5
			c0.4-2.2-0.7-4.9-2.1-7.8l3.9-2.8h0.2c0.3,0.8,1.3,3.9,1.7,4.8c0.5,1.2,1.5,1.6,3.3,1.6C770.1,338.5,770.5,339.2,770.5,340z
			 M755.8,331.6l-3.9-2.7l2.4-3.5l3.8,2.7L755.8,331.6z"/>
		<path class="st3" d="M789.7,340c0,1.8-0.8,3.1-2.5,3.1c-1.5,0-2.7-0.4-3.7-1.3c-0.7,1.1-1.7,1.7-3.1,1.7c-1.5,0-4-0.8-6.4-2.5
			c-1.4,1.8-3.3,2-6,2l1-4.5c1.6,0,2.1-0.3,2.9-1.7c2-3.4,3.7-6.6,6.7-6.6c2.7,0,4,2.4,5.5,5.4c1.2,2.3,1.8,2.9,4,2.9
			C789.3,338.5,789.7,339.1,789.7,340z M781.5,338.6l-0.1-0.2c-1.1-2.6-2.1-3.9-2.8-3.9c-0.8,0-1.7,1.3-2.6,3.1
			c1.4,0.9,2.8,1.6,3.9,1.6C780.6,339.3,781.1,339,781.5,338.6z"/>
		<path class="st3" d="M788.2,338.5c1,0,2.2-0.1,2.9-0.5c0.1-0.6,0.3-1.4,0.3-2.7v-16.2l4.2-1.1l0.3,0.2v16.9c0,6.3-3.2,7.8-8.6,7.8
			L788.2,338.5z"/>
		<path class="st3" d="M841.2,318.1l0.3,0.2v16.9c0,6-3,7.7-7.9,7.8h-0.3c0,0-0.1,0-0.1,0h-0.3c-1.3-0.1-3-0.5-4.1-2.1
			c-1.2,1.5-2.9,2-6.1,2.1h-0.2c0,0-0.1,0-0.1,0h-0.2c-2.4-0.1-4.3-0.8-5.4-2.4c-1.2,0.4-2.2,0.6-3.3,0.6c-4,0-6.4-1.9-6.4-4.6
			c0-3,3-6.3,8.6-8.2v-1.7l4.2-1.6l0.3,0.1v10.8c0,1.8,0.6,2.4,3.2,2.5c1,0,2-0.1,2.7-0.5c0.1-0.6,0.3-1.4,0.3-2.7v-12.3l4.2-1.1
			l0.3,0.2v13.1c0,2.7,0.8,3.1,3.3,3.2c1,0,2-0.1,2.7-0.5c0.1-0.6,0.3-1.4,0.3-2.7v-16.2L841.2,318.1z M815.6,336.7v-0.7v-3.4
			c-2.5,0.6-4.5,1.7-5,2.8c0.4,1,1.9,1.5,3.2,1.5C814.5,336.9,815.1,336.8,815.6,336.7z M823.1,316.7c0-0.5,0.1-1.5,0.3-2.1l2.4-0.1
			c-0.1,0.6-0.1,1.2-0.1,1.5c0,0.9,0.3,1.3,0.9,1.3c0.7,0,1-0.5,1-2.6l2.3-0.2c0,0.7,0,1.2,0,1.5c0,0.9,0.4,1.2,1,1.2
			c0.7,0,0.9-0.5,0.9-1.3c0-0.7-0.2-1.4-0.4-2.1l2.5-0.6c0.3,0.9,0.5,1.8,0.5,2.8c0,2.1-1.1,3.7-3.5,3.7c-0.9,0-1.7-0.4-2.1-0.9
			c-0.5,0.6-1.4,0.9-2.4,0.9C823.9,319.9,823.1,318.4,823.1,316.7z M830.2,312.5H827v-4.6h3.2V312.5z M850.4,318.3l-0.1,24.1
			l-4.1,0.9l-0.3-0.2v-23.9l4.2-1.1L850.4,318.3z"/>
		<path class="st3" d="M866.1,349c0,3.1,3.1,4.6,8.2,4.6c2.2,0,5.4-0.4,7.2-0.9l0.3,0.2l-1.3,3.9c-1.9,0.7-4.5,1.2-7.5,1.2
			c-6.9,0-11.3-2.9-11.3-8.4c0-4.7,3.8-8.4,7.6-11.6c-1.5-1.7-3.1-3.2-5-4.1l-0.2-0.4l1.4-4c2-1,4.6-1.5,7.2-1.5
			c2.7,0,5.4,0.6,7.6,1.8l0.1,0.4l-1,3.8c-1.5,1.3-3,2.5-4.4,3.6c2.1,0.6,4.6,0.8,7.5,0.8c1.1,0,1.4,0.6,1.4,1.4
			c0,1.7-0.6,3.1-2.4,3.1c-4.9,0-7.5-0.9-9.7-2.5C868.2,343.8,866.1,346.3,866.1,349z M872.1,335.9c1.3-1.1,2.6-2.1,3.5-3.1
			c-1.2-0.4-2.3-0.5-3.4-0.5c-1.3,0-2.4,0.2-3.5,0.5C869.8,333.5,870.9,334.6,872.1,335.9z"/>
		<path class="st3" d="M903.2,340c0,1.8-0.8,3.1-2.5,3.1c-1.5,0-2.7-0.4-3.7-1.3c-0.7,1.1-1.7,1.7-3.1,1.7c-1.5,0-4-0.8-6.4-2.5
			c-1.4,1.8-3.3,2-6,2l1-4.5c1.6,0,2.1-0.3,2.9-1.7c2-3.4,3.7-6.6,6.7-6.6c2.7,0,4,2.4,5.5,5.4c1.2,2.3,1.8,2.9,4,2.9
			C902.8,338.5,903.2,339.1,903.2,340z M894.9,338.6l-0.1-0.2c-1.1-2.6-2.1-3.9-2.8-3.9c-0.8,0-1.7,1.3-2.6,3.1
			c1.4,0.9,2.8,1.6,3.9,1.6C894.1,339.3,894.6,339,894.9,338.6z"/>
		<path class="st3" d="M929,336.7c0,4.3-3.3,6.4-7.8,6.4c-2,0-3.5-0.4-4.8-1c-0.9,0.6-2,1-3.4,1c-2.3,0-4.3-0.8-5.5-1.5
			c-1.4,1.1-3.5,1.5-6.7,1.5l1-4.5c2.3,0,3.3-0.1,4-0.4c0.3-0.6,0.6-2.5,0.9-4l4.9-0.8l0.1,0.1c-0.6,1.8-1.1,3.3-1.6,4.5
			c1,0.3,2.4,0.6,3.6,0.6c0.6,0,1-0.1,1.3-0.3c0.3-0.4,0.7-2.4,1.1-4.1l4.5-0.8l0.1,0.1c-0.5,1.8-1,3.4-1.6,4.7
			c0.9,0.3,1.8,0.4,2.7,0.4c1.3,0,2.5-0.1,3.2-0.5c0.2-1.4-0.9-4-1.8-6l3.9-2.9l0.2,0C928.2,331.8,929,334.5,929,336.7z"/>
		<path class="st3" d="M751,398c0,1.7-0.6,3.1-2.4,3.1c-2.3,0-3.8-0.4-4.8-1.7c-1.7,1.3-4.4,2-7.5,2c-0.9,0-2.9-0.1-4.2-0.4l0.6-4.4
			l0.3-0.1c1.2,0.2,2.8,0.3,3.7,0.3c1.7,0,3.8-0.2,5.2-0.8c-0.8-1.5-2.7-5.3-4.2-8.1l3.2-3.7h0.4c0.9,2.2,3.3,7.8,3.8,9
			c1.3,3,2,3.4,4.4,3.4C750.7,396.5,751,397.2,751,398z"/>
		<path class="st3" d="M770.2,398c0,1.8-0.8,3.1-2.5,3.1c-1.5,0-2.7-0.4-3.7-1.3c-0.7,1.1-1.7,1.7-3.1,1.7c-1.5,0-4-0.8-6.4-2.5
			c-1.4,1.8-3.3,2-6,2l1-4.5c1.6,0,2.1-0.3,2.9-1.7c2-3.4,3.7-6.6,6.7-6.6c2.7,0,4,2.4,5.5,5.4c1.2,2.3,1.8,2.9,4,2.9
			C769.8,396.5,770.2,397.1,770.2,398z M762,396.6l-0.1-0.2c-1.1-2.6-2.1-3.9-2.8-3.9c-0.8,0-1.7,1.3-2.6,3.1
			c1.4,0.9,2.8,1.6,3.9,1.6C761.1,397.3,761.6,397,762,396.6z"/>
		<path class="st3" d="M792.9,398c0,1.7-0.5,3.1-2.4,3.1c-5.8,0-7.9-1.4-9.3-4l-1.3,0.6c-5,2.5-8.2,3.3-12.2,3.3l1-4.5
			c3.6,0,5.7-0.4,9.9-1.9c1.2-0.4,2.1-0.7,2.8-1c-0.4-0.1-0.8-0.3-1.2-0.5c-2.9-1.3-4.5-1.8-6-1.8c-1.6,0-2.9,0.3-4.1,0.7l-0.2-0.1
			l1.6-4c0.8-0.4,2.1-0.8,3.3-0.8c1.2,0,2.7,0.4,5.5,1.7c3.8,1.7,6.1,2.3,8.6,2.3l-0.8,4c-1,0-1.9,0.1-3.1,0.5
			c1.2,0.7,3,0.9,6.5,0.9C792.6,396.5,792.9,397.2,792.9,398z"/>
		<path class="st3" d="M791.5,396.5c1,0,2.2-0.1,2.9-0.5c0.1-0.6,0.3-1.4,0.3-2.7v-16.2l4.2-1.1l0.3,0.2v16.9c0,6.3-3.2,7.8-8.6,7.8
			L791.5,396.5z"/>
		<path class="st3" d="M803.5,401.1v-23.9l4.2-1.1l0.4,0.2l-0.1,24.1l-4.1,0.9L803.5,401.1z"/>
		<path class="st3" d="M851.1,398c0,1.7-0.6,3.1-2.4,3.1c-1.9,0-3.6-0.6-4.7-2c-1.7,1.7-4.6,2.4-9.8,2.4h-2.2
			c-8,0-12.3-2.3-12.3-6.7c0-1.5,0.2-2.9,0.6-4.4l3.2-1.2l0.4,0.2c-0.2,1.1-0.3,2.1-0.3,3c0,3.7,2.9,4.7,9.9,4.7h2
			c2.8,0,5.2-0.5,5.9-0.9c0.1-0.6,0.3-1.4,0.3-2.7v-16.2l4.1-1.1l0.4,0.2v16.1c0,3.1,0.6,4.1,3.5,4.1
			C850.7,396.5,851.1,397.2,851.1,398z M829.6,388.4c0.5,0,1.1,0,1.7,0c-0.5-0.7-0.8-1.5-0.8-2.3c0-1.8,1.2-3.1,3.2-3.1
			c0.8,0,1.7,0.2,2.7,0.6l-0.6,2.3c-0.6-0.2-1.2-0.3-1.6-0.3c-0.8,0-1.3,0.3-1.3,1.1c0,0.6,0.3,1.2,0.8,1.6c1.1-0.1,2.2-0.1,3.1-0.3
			l0.2,2.4c-1.8,0.2-4.2,0.4-7.1,0.5L829.6,388.4z"/>
		<path class="st3" d="M849.6,396.5c1,0,2.2-0.1,2.9-0.5c0.1-0.6,0.3-1.4,0.3-2.7v-16.2l4.2-1.1l0.3,0.2v16.9c0,6.3-3.2,7.8-8.6,7.8
			L849.6,396.5z"/>
		<path class="st3" d="M873.3,397.4c0,4.9-3.8,9.9-11.9,10l-2.2-3.4l0.3-0.4c5-0.1,8.3-1.4,9.6-3.9c-0.9,0.1-1.8,0.2-2.9,0.2
			c-3.3,0-4.9-1.7-4.9-4.3c0-3.3,2.6-7.4,6-7.4C871,388.3,873.3,392.5,873.3,397.4z M867.2,396.1c0.9,0,1.7-0.1,2.5-0.2
			c-0.3-1.8-1.3-3.4-2.7-3.4c-1.3,0-2.2,1.4-2.2,2.5C864.8,395.8,865.5,396.1,867.2,396.1z"/>
		<path class="st3" d="M885.6,393.7v-16.5l4.1-1.1l0.4,0.2v17.1c0,2.4,1,3.2,3.6,3.2c1,0,1.4,0.5,1.4,1.4c0,1.8-0.7,3.1-2.4,3.1
			C887.9,401,885.6,398.9,885.6,393.7z"/>
		<path class="st3" d="M907.1,398c0,1.7-0.6,3.1-2.4,3.1s-4.2-0.6-5.6-1.7c-1.4,1.1-3.2,1.7-5.8,1.7h-0.7l1-4.5h0.6
			c1.4,0,2.4-0.1,2.8-0.5c0.4-0.9,0.8-2.7,1.2-5l4.6-1.1l0.4,0.3c-0.5,2.2-1,4.1-1.7,5.7c1,0.4,2.4,0.7,4.1,0.7
			C906.8,396.5,907.1,397.2,907.1,398z M901.1,386.9l-3.9-2.7l2.4-3.5l3.8,2.7L901.1,386.9z"/>
		<path class="st3" d="M905.7,396.5h0.4c1.3,0,2.9-0.1,3.5-0.3c0.2-1.4-0.9-3.8-2.1-6.2l3.6-2.9h0.4c1.2,2.6,2,5.7,2,7.4
			c0,1.9-0.6,3.5-1.9,4.8c-1.2,1.2-2.8,1.6-6.4,1.6h-0.4L905.7,396.5z M906.9,407.2l2.4-3.5l3.8,2.6l-2.4,3.6L906.9,407.2z"/>
		<path class="st3" d="M917.6,403.9l0.3-0.4c4.5-1.4,7.7-3.5,7.7-4.6c-0.1-1.2-1.3-4-2.6-6.2l3.2-3.6h0.4c1.6,3,2.4,6.4,2.4,8.6
			c0,1.8-0.6,3.5-1.3,4.6c-1.3,1.9-3.9,3.9-7.9,4.9L917.6,403.9z"/>
	</g>
</g>
<path class="st4" d="M1023.4,42.8h-11.1v-6.6c0-1.7-1.1-3-2.6-3.5c1.4-1.1,2.3-2.9,2.3-4.8c0-3.4-2.8-6.2-6.2-6.2
	c-1,0-1.9,0.2-2.8,0.7c0.4-1.1,0.5-2.2,0.5-3.4c0-6.2-5-11.2-11.2-11.2c-6.2,0-11.2,5-11.2,11.2c0,1.2,0.2,2.4,0.5,3.4
	c-0.8-0.4-1.8-0.7-2.8-0.7c-3.4,0-6.2,2.8-6.2,6.2c0,1.9,0.9,3.6,2.3,4.8c-1.5,0.4-2.6,1.8-2.6,3.5v6.6h-10h-10v-6.6
	c0-1.7-1.1-3-2.6-3.5c1.4-1.1,2.3-2.9,2.3-4.8c0-3.4-2.8-6.2-6.2-6.2c-1,0-1.9,0.2-2.8,0.7c0.4-1.1,0.5-2.2,0.5-3.4
	c0-6.2-5-11.2-11.2-11.2c-6.2,0-11.2,5-11.2,11.2c0,1.2,0.2,2.4,0.5,3.4c-0.8-0.4-1.8-0.7-2.8-0.7c-3.4,0-6.2,2.8-6.2,6.2
	c0,1.9,0.9,3.6,2.3,4.8c-1.5,0.4-2.6,1.8-2.6,3.5v6.6h-10h-10v-6.6c0-1.7-1.1-3-2.6-3.5c1.4-1.1,2.3-2.9,2.3-4.8
	c0-3.4-2.8-6.2-6.2-6.2c-1,0-1.9,0.2-2.8,0.7c0.4-1.1,0.5-2.2,0.5-3.4c0-6.2-5-11.2-11.2-11.2c-6.2,0-11.2,5-11.2,11.2
	c0,1.2,0.2,2.4,0.5,3.4c-0.8-0.4-1.8-0.7-2.8-0.7c-3.4,0-6.2,2.8-6.2,6.2c0,1.9,0.9,3.6,2.3,4.8c-1.5,0.4-2.6,1.8-2.6,3.5v6.6h-10
	h-10v-6.6c0-1.7-1.1-3-2.6-3.5c1.4-1.1,2.3-2.9,2.3-4.8c0-3.4-2.8-6.2-6.2-6.2c-1,0-1.9,0.2-2.8,0.7c0.4-1.1,0.5-2.2,0.5-3.4
	c0-6.2-5-11.2-11.2-11.2c-6.2,0-11.2,5-11.2,11.2c0,1.2,0.2,2.4,0.5,3.4c-0.8-0.4-1.8-0.7-2.8-0.7c-3.4,0-6.2,2.8-6.2,6.2
	c0,1.9,0.9,3.6,2.3,4.8c-1.5,0.4-2.6,1.8-2.6,3.5v6.6h-10h-10v-6.6c0-1.7-1.1-3-2.6-3.5c1.4-1.1,2.3-2.9,2.3-4.8
	c0-3.4-2.8-6.2-6.2-6.2c-1,0-1.9,0.2-2.8,0.7c0.4-1.1,0.5-2.2,0.5-3.4c0-6.2-5-11.2-11.2-11.2c-6.2,0-11.2,5-11.2,11.2
	c0,1.2,0.2,2.4,0.5,3.4c-0.8-0.4-1.8-0.7-2.8-0.7c-3.4,0-6.2,2.8-6.2,6.2c0,1.9,0.9,3.6,2.3,4.8c-1.5,0.4-2.6,1.8-2.6,3.5v6.6h-10
	h-10v-6.6c0-1.7-1.1-3-2.6-3.5c1.4-1.1,2.3-2.9,2.3-4.8c0-3.4-2.8-6.2-6.2-6.2c-1,0-1.9,0.2-2.8,0.7c0.4-1.1,0.5-2.2,0.5-3.4
	c0-6.2-5-11.2-11.2-11.2c-6.2,0-11.2,5-11.2,11.2c0,1.2,0.2,2.4,0.5,3.4c-0.8-0.4-1.8-0.7-2.8-0.7c-3.4,0-6.2,2.8-6.2,6.2
	c0,1.9,0.9,3.6,2.3,4.8c-1.5,0.4-2.6,1.8-2.6,3.5v6.6h-10h-10v-6.6c0-1.7-1.1-3-2.6-3.5c1.4-1.1,2.3-2.9,2.3-4.8
	c0-3.4-2.8-6.2-6.2-6.2c-1,0-1.9,0.2-2.8,0.7c0.4-1.1,0.5-2.2,0.5-3.4c0-6.2-5-11.2-11.2-11.2c-6.2,0-11.2,5-11.2,11.2
	c0,1.2,0.2,2.4,0.5,3.4c-0.8-0.4-1.8-0.7-2.8-0.7c-3.4,0-6.2,2.8-6.2,6.2c0,1.9,0.9,3.6,2.3,4.8c-1.5,0.4-2.6,1.8-2.6,3.5v6.6h-10
	h-10v-6.6c0-1.7-1.1-3-2.6-3.5c1.4-1.1,2.3-2.9,2.3-4.8c0-3.4-2.8-6.2-6.2-6.2c-1,0-1.9,0.2-2.8,0.7c0.4-1.1,0.5-2.2,0.5-3.4
	c0-6.2-5-11.2-11.2-11.2c-6.2,0-11.2,5-11.2,11.2c0,1.2,0.2,2.4,0.5,3.4c-0.8-0.4-1.8-0.7-2.8-0.7c-3.4,0-6.2,2.8-6.2,6.2
	c0,1.9,0.9,3.6,2.3,4.8c-1.5,0.4-2.6,1.8-2.6,3.5v6.6h-10h-10v-6.6c0-1.7-1.1-3-2.6-3.5c1.4-1.1,2.3-2.9,2.3-4.8
	c0-3.4-2.8-6.2-6.2-6.2c-1,0-1.9,0.2-2.8,0.7c0.4-1.1,0.5-2.2,0.5-3.4c0-6.2-5-11.2-11.2-11.2c-6.2,0-11.2,5-11.2,11.2
	c0,1.2,0.2,2.4,0.5,3.4c-0.8-0.4-1.8-0.7-2.8-0.7c-3.4,0-6.2,2.8-6.2,6.2c0,1.9,0.9,3.6,2.3,4.8c-1.5,0.4-2.6,1.8-2.6,3.5v6.6h-10
	h-10v-6.6c0-1.7-1.1-3-2.6-3.5c1.4-1.1,2.3-2.9,2.3-4.8c0-3.4-2.8-6.2-6.2-6.2c-1,0-1.9,0.2-2.8,0.7c0.4-1.1,0.5-2.2,0.5-3.4
	c0-6.2-5-11.2-11.2-11.2c-6.2,0-11.2,5-11.2,11.2c0,1.2,0.2,2.4,0.5,3.4c-0.8-0.4-1.8-0.7-2.8-0.7c-3.4,0-6.2,2.8-6.2,6.2
	c0,1.9,0.9,3.6,2.3,4.8c-1.5,0.4-2.6,1.8-2.6,3.5v6.6h-10h-10v-6.6c0-1.7-1.1-3-2.6-3.5c1.4-1.1,2.3-2.9,2.3-4.8
	c0-3.4-2.8-6.2-6.2-6.2c-1,0-1.9,0.2-2.8,0.7c0.4-1.1,0.5-2.2,0.5-3.4c0-6.2-5-11.2-11.2-11.2c-6.2,0-11.2,5-11.2,11.2
	c0,1.2,0.2,2.4,0.5,3.4c-0.8-0.4-1.8-0.7-2.8-0.7c-3.4,0-6.2,2.8-6.2,6.2c0,1.9,0.9,3.6,2.3,4.8c-1.5,0.4-2.6,1.8-2.6,3.5v6.6h-10
	h-10v-6.6c0-1.7-1.1-3-2.6-3.5c1.4-1.1,2.3-2.9,2.3-4.8c0-3.4-2.8-6.2-6.2-6.2c-1,0-1.9,0.2-2.8,0.7c0.4-1.1,0.5-2.2,0.5-3.4
	c0-6.2-5-11.2-11.2-11.2c-6.2,0-11.2,5-11.2,11.2c0,1.2,0.2,2.4,0.5,3.4c-0.8-0.4-1.8-0.7-2.8-0.7c-3.4,0-6.2,2.8-6.2,6.2
	c0,1.9,0.9,3.6,2.3,4.8c-1.5,0.4-2.6,1.8-2.6,3.5v6.6h-10h-10v-6.6c0-1.7-1.1-3-2.6-3.5c1.4-1.1,2.3-2.9,2.3-4.8
	c0-3.4-2.8-6.2-6.2-6.2c-1,0-1.9,0.2-2.8,0.7c0.4-1.1,0.5-2.2,0.5-3.4c0-6.2-5-11.2-11.2-11.2c-6.2,0-11.2,5-11.2,11.2
	c0,1.2,0.2,2.4,0.5,3.4c-0.8-0.4-1.8-0.7-2.8-0.7c-3.4,0-6.2,2.8-6.2,6.2c0,1.9,0.9,3.6,2.3,4.8c-1.5,0.4-2.6,1.8-2.6,3.5v6.6h-10
	h-10v-6.6c0-1.7-1.1-3-2.6-3.5c1.4-1.1,2.3-2.9,2.3-4.8c0-3.4-2.8-6.2-6.2-6.2c-1,0-1.9,0.2-2.8,0.7c0.4-1.1,0.5-2.2,0.5-3.4
	c0-6.2-5-11.2-11.2-11.2c-6.2,0-11.2,5-11.2,11.2c0,1.2,0.2,2.4,0.5,3.4c-0.8-0.4-1.8-0.7-2.8-0.7c-3.4,0-6.2,2.8-6.2,6.2
	c0,1.9,0.9,3.6,2.3,4.8c-1.5,0.4-2.6,1.8-2.6,3.5v6.6h-10h-10v-6.6c0-1.7-1.1-3-2.6-3.5c1.4-1.1,2.3-2.9,2.3-4.8
	c0-3.4-2.8-6.2-6.2-6.2c-1,0-1.9,0.2-2.8,0.7c0.4-1.1,0.5-2.2,0.5-3.4c0-6.2-5-11.2-11.2-11.2c-6.2,0-11.2,5-11.2,11.2
	c0,1.2,0.2,2.4,0.5,3.4c-0.8-0.4-1.8-0.7-2.8-0.7c-3.4,0-6.2,2.8-6.2,6.2c0,1.9,0.9,3.6,2.3,4.8c-1.5,0.4-2.6,1.8-2.6,3.5v6.6h-10
	h-10v-6.6c0-1.7-1.1-3-2.6-3.5c1.4-1.1,2.3-2.9,2.3-4.8c0-3.4-2.8-6.2-6.2-6.2c-1,0-1.9,0.2-2.8,0.7c0.4-1.1,0.5-2.2,0.5-3.4
	c0-6.2-5-11.2-11.2-11.2c-6.2,0-11.2,5-11.2,11.2c0,1.2,0.2,2.4,0.5,3.4c-0.8-0.4-1.8-0.7-2.8-0.7c-3.4,0-6.2,2.8-6.2,6.2
	c0,1.9,0.9,3.6,2.3,4.8c-1.5,0.4-2.6,1.8-2.6,3.5v6.6H61H51v-6.6c0-1.7-1.1-3-2.6-3.5c1.4-1.1,2.3-2.9,2.3-4.8
	c0-3.4-2.8-6.2-6.2-6.2c-1,0-1.9,0.2-2.8,0.7c0.4-1.1,0.5-2.2,0.5-3.4c0-6.2-5-11.2-11.2-11.2c-6.2,0-11.2,5-11.2,11.2
	c0,1.2,0.2,2.4,0.5,3.4c-0.8-0.4-1.8-0.7-2.8-0.7c-3.4,0-6.2,2.8-6.2,6.2c0,1.9,0.9,3.6,2.3,4.8c-1.5,0.4-2.6,1.8-2.6,3.5v6.6H-0.6
	V-1h1024V42.8z"/>
<g id="Layer_x0020_1_13_">
	<path class="st5" d="M34.3,718.4l43.9-1.7c0.3,0,0.6,0,1,0c0.7,0.1,1.3,0.4,1.8,0.9c0.5,0.5,0.9,1,0.9,1.7c0,0.2,0,0.5,0,0.8
		l-4.6,20.6c-0.2,0.9-0.6,1.7-1.3,2.2c-0.6,0.5-1.4,0.9-2.4,0.9l-35.3-1.2c-1,0-1.7-0.3-2.4-0.9l0,0c-0.6-0.6-1.1-1.4-1.3-2.2
		l-4.1-17.7c0-0.1,0-0.1,0-0.2c-0.1-0.8,0.3-1.5,0.9-2.1c0.6-0.5,1.4-0.8,2.3-1C34,718.4,34.2,718.4,34.3,718.4z M76.3,719.5
		l-42,1.5c-0.1,0-0.2,0-0.3,0c-0.6,0.1-1.1,0.3-1.5,0.7c-0.3,0.3-0.6,0.7-0.5,1.1c0,0,0,0.1,0,0.1l3.8,16.5c0.1,0.6,0.4,1.2,0.9,1.6
		c0.4,0.3,0.8,0.5,1.4,0.5l34,1.2c0.6,0,1-0.2,1.4-0.5c0.4-0.4,0.7-0.9,0.9-1.6l4.3-19.3c0-0.1,0-0.3,0-0.4c0-0.3-0.2-0.7-0.5-0.9
		c-0.3-0.3-0.7-0.5-1.1-0.5C76.7,719.5,76.5,719.5,76.3,719.5z"/>
	<path class="st5" d="M41.3,723.1l12.9-1.4c0.1,0,0.3,0,0.4,0c0.3,0.1,0.6,0.2,0.8,0.4c0.2,0.2,0.4,0.5,0.4,0.8c0,0.1,0,0.2,0,0.3
		l-2.1,9.6c-0.1,0.4-0.3,0.8-0.6,1c-0.3,0.3-0.6,0.4-1.1,0.4h-8.9c-0.4,0-0.8-0.2-1.1-0.4h0c-0.3-0.3-0.5-0.6-0.6-1l-1.9-8.2
		c0,0,0-0.1,0-0.1c-0.1-0.4,0.1-0.7,0.4-1c0.3-0.2,0.7-0.4,1-0.5C41.2,723.1,41.3,723.1,41.3,723.1z M53.3,723l-12,1.3
		c0,0-0.1,0-0.1,0c-0.3,0-0.5,0.2-0.7,0.3c-0.2,0.1-0.3,0.3-0.2,0.5c0,0,0,0,0,0l1.8,7.6c0.1,0.3,0.2,0.5,0.4,0.7
		c0.2,0.1,0.4,0.2,0.6,0.2h8.3c0.3,0,0.5-0.1,0.6-0.2c0.2-0.2,0.3-0.4,0.4-0.7l2-8.9c0-0.1,0-0.1,0-0.2c0-0.2-0.1-0.3-0.2-0.4
		c-0.1-0.1-0.3-0.2-0.5-0.2C53.5,723,53.4,723,53.3,723z"/>
	<g id="_1849662416_13_">
		<path class="st6" d="M59.8,735.3l0.4-0.7l-0.7-0.4l0.4-0.7l-1.5-0.8l-0.9,1.5l0,0c0.3,0.1,0.5,0.3,0.7,0.4l-0.4,0.7l0.7,0.4
			l-0.8,1.5l0.7,0.4c-0.2,0.5-0.6,1.1-0.9,1.5l0,0c0.2,0.1,0.4,0.2,0.5,0.3c0.3,0.1,0.2,0.1,0,0.5c-0.2,0.4-0.4,0.8-0.7,1.1l0.7,0.4
			c0,0.2-0.7,1.2-0.8,1.5l5.9,3.4l0.9-1.5l0.8,0.4l1.3-2.2l0.7,0.4l3-5.2c-0.1-0.1-0.7-0.4-0.7-0.5c0-0.2,0.4-0.6,0.4-0.7
			c-0.1-0.1-0.5-0.4-0.7-0.4l-1.3,2.2l-0.7-0.4l1.7-3l-1.5-0.9l-1.3,2.2l-0.7-0.4l1.7-2.9c-0.1-0.1-1.3-0.8-1.5-0.9l-1.7,3l-0.7-0.4
			c0-0.1,0.1-0.1,0.1-0.2c1.2-2.1,2.5-4.3,3.7-6.5l-1.5-0.8l-4.7,8.1C60.3,735.7,59.8,735.3,59.8,735.3L59.8,735.3z"/>
		<path class="st7" d="M57.7,739c-0.1,0.1-0.1,0.2-0.2,0.3l-0.7,1.1c0.1,0.1,0.2,0.1,0.4,0.2c0.1,0.1,0.2,0.1,0.3,0.2
			c-0.4,0.8-0.8,1.5-1.2,2.2c0.6,0.4,1.2,0.7,1.8,1.1l3.7,2.2c0.6,0.4,1.3,0.7,1.9,1.1c0.1-0.2,0.1-0.3,0.3-0.5
			c0.1-0.2,0.4-0.6,0.5-0.9c0.1-0.1,0.1-0.1,0.2-0.3c0.1-0.2,0.2-0.4,0.3-0.6c0.1,0.2,0.5,0.3,0.7,0.4c0.4-0.7,0.8-1.4,1.3-2.2
			c0.2,0.1,0.4,0.2,0.6,0.3c0.1,0.1,0.1,0.1,0.2,0c0.2-0.3,0.3-0.6,0.5-0.9c0.3-0.6,0.7-1.1,1-1.7l1.4-2.5c-0.2-0.1-0.6-0.3-0.7-0.4
			l-3,5.2l-0.7-0.4l-1.3,2.2l-0.8-0.4l-0.9,1.5l-5.9-3.4c0.1-0.3,0.8-1.3,0.8-1.5l-0.7-0.4c0.2-0.4,0.4-0.8,0.7-1.1
			c0.2-0.4,0.2-0.3,0-0.5C58,739.2,57.8,739.1,57.7,739z"/>
		<path class="st7" d="M59.9,733.4l-0.4,0.7l0.7,0.4l-0.4,0.7l0.7,0.4l4.7-8.1l-0.7-0.4c0,0,0,0,0,0l0,0c0,0,0,0,0,0l-3.8,6.6
			C60.4,733.6,60.2,733.5,59.9,733.4z"/>
		<path class="st7" d="M66.7,728.5l-3.9,6.6l0.7,0.4l1.7-3c0.2,0,1.4,0.8,1.5,0.9c0.2,0.2,1.6,0.9,1.9,1.1c0,0,0.1,0-0.1-0.1
			l-1.5-0.8c-0.4-0.2-0.3-0.1,0.1-0.9l-1.1-0.6c-0.1-0.1-0.2-0.1-0.3-0.2l1.7-2.9c-0.2-0.1-0.3-0.2-0.6-0.4
			C66.8,728.5,66.8,728.5,66.7,728.5z"/>
		<path class="st7" d="M68.6,735.5l0.4-0.7c-0.1-0.1-0.2-0.2-0.4-0.2c-0.3-0.2-1.7-0.9-1.9-1.1l-1.7,2.9l0.7,0.4l1.3-2.2L68.6,735.5
			z"/>
		<path class="st7" d="M57.6,734c-0.1,0.1-0.1,0.1-0.2,0.3c-0.1,0.1-0.1,0.3-0.2,0.4l0.7,0.4c-0.1,0.2-0.7,1.3-0.8,1.5l0.7,0.4
			l-0.6,1.1c-0.1,0.2-0.1,0.2-0.2,0.4l0.7,0.4c0.3-0.4,0.7-1,0.9-1.5l-0.7-0.4l0.8-1.5l-0.7-0.4l0.4-0.7
			C58.1,734.3,57.8,734.1,57.6,734z"/>
		<path class="st7" d="M57.6,734l0.9-1.5l1.5,0.8l0.2-0.4c0.1-0.1,0.1-0.2,0.2-0.4l-2-1.1c-0.3-0.2-0.2-0.2-0.5,0.2l-0.9,1.6
			c-0.1,0.2-0.2,0.2,0,0.3C57,733.7,57.4,734,57.6,734z"/>
		<path class="st7" d="M69.6,737c0.1,0,0,0,0.1-0.1c0,0,0.1-0.1,0.1-0.1c0-0.2,0.2-0.4,0.3-0.6l-1.5-0.8l-1.7,3l0.7,0.4l1.3-2.2
			C69.1,736.7,69.5,736.9,69.6,737z"/>
		<path class="st7" d="M66.7,728.4c0.1-0.2,0.3-0.5,0.4-0.7l-1.5-0.8l-0.4,0.7L66.7,728.4z"/>
		<path class="st7" d="M69.6,737c0,0.2-0.4,0.6-0.4,0.7c0,0.1,0.6,0.4,0.7,0.5c0.2,0.1,0.5,0.3,0.7,0.4l-1.4,2.5l1.5-2.5l-0.7-0.4
			c0.1-0.1,0.1-0.2,0.2-0.4c0.1-0.1,0.2-0.3,0.2-0.4c-0.8-0.5-0.8-0.3-0.6-0.6c0,0-0.1,0.1-0.1,0.1C69.6,737.1,69.7,737,69.6,737z"
			/>
	</g>
	<path class="st5" d="M94.3,735.3h-2.5l2.1-7.2l-4.3,7.2H87l-0.5-7.3l-1.8,7.3h-2.6l2.9-10.9h3.5l0.5,7.7l4.6-7.7h3.5L94.3,735.3z
		 M103.8,735.3h-5.6c-0.8,0-1.3-0.2-1.7-0.6c-0.4-0.4-0.4-1-0.2-1.8c0.3-0.9,0.7-1.6,1.3-2c0.6-0.4,1.5-0.6,2.6-0.6h2.5
		c0.1-0.4,0.1-0.7-0.1-0.8c-0.2-0.2-0.6-0.2-1.3-0.2h-3.6l0.5-2h4.3c1.1,0,1.9,0.3,2.3,0.8c0.4,0.5,0.5,1.3,0.2,2.3L103.8,735.3z
		 M101.8,733.3l0.3-1.2H100c-0.4,0-0.7,0-0.9,0.1c-0.2,0.1-0.3,0.3-0.3,0.5c-0.1,0.2-0.1,0.3,0,0.4c0,0,0.1,0.1,0.2,0.1
		c0.1,0,0.3,0,0.5,0H101.8z M112.6,735.3h-2.4l1.3-4.9c0.1-0.5,0.2-0.8,0-1c-0.1-0.1-0.4-0.2-0.9-0.2h-1.4l-1.6,6.1h-2.4l2.2-8.1h4
		c1.2,0,2,0.2,2.4,0.7c0.4,0.5,0.5,1.2,0.2,2.3L112.6,735.3z M121.3,735.3h-2.4l1.3-4.9c0.1-0.5,0.1-0.8,0-0.9
		c-0.1-0.1-0.2-0.1-0.3-0.2c-0.1,0-0.3-0.1-0.6-0.1l-1.4,0l-1.6,6.1h-2.4l2.9-10.9h2.4l-0.8,2.8h1.6c1.2,0,2,0.2,2.4,0.7
		c0.4,0.5,0.5,1.2,0.2,2.3L121.3,735.3z M130.6,735.3h-5.6c-0.8,0-1.3-0.2-1.7-0.6c-0.4-0.4-0.4-1-0.2-1.8c0.3-0.9,0.7-1.6,1.3-2
		c0.6-0.4,1.5-0.6,2.6-0.6h2.5c0.1-0.4,0.1-0.7-0.1-0.8c-0.2-0.2-0.6-0.2-1.3-0.2h-3.6l0.5-2h4.3c1.1,0,1.9,0.3,2.3,0.8
		c0.4,0.5,0.5,1.3,0.2,2.3L130.6,735.3z M128.6,733.3l0.3-1.2h-2.2c-0.4,0-0.7,0-0.9,0.1c-0.2,0.1-0.3,0.3-0.3,0.5
		c-0.1,0.2,0,0.3,0,0.4c0,0,0.1,0.1,0.2,0.1c0.1,0,0.3,0,0.5,0H128.6z M134.4,735.3h-2.5l2.9-10.9h2.5L134.4,735.3z M140.1,735.3
		H138l0.6-2.2h2.1L140.1,735.3z M147.9,735.3h-2.9c-0.4,0-0.7,0-1-0.1c-0.3,0-0.5-0.1-0.8-0.2c-0.4-0.1-0.8-0.4-1-0.8
		c-0.1-0.2-0.2-0.4-0.3-0.6c-0.1-0.2-0.2-0.5-0.2-0.7c0-0.3,0-0.5,0-0.8c0-0.3,0.1-0.6,0.2-0.9c0.2-0.6,0.4-1.2,0.8-1.7
		c0.3-0.5,0.7-1,1.3-1.4c0.4-0.3,0.9-0.6,1.4-0.7c0.5-0.2,1.1-0.2,1.9-0.2h2.9l-0.5,2h-2.3c-0.5,0-0.9,0-1.2,0.1
		c-0.3,0.1-0.6,0.2-0.8,0.4c-0.4,0.3-0.7,0.8-0.9,1.6c-0.1,0.4-0.1,0.8-0.1,1.1c0.1,0.3,0.1,0.6,0.4,0.7l0.4,0.2c0.1,0,0.3,0,0.4,0
		c0.1,0,0.4,0,0.6,0h2.3L147.9,735.3z M157.9,731.2c-0.3,1.3-1,2.3-2,3.1c-1,0.8-2.1,1.1-3.4,1.1c-1.3,0-2.2-0.4-2.8-1.1
		c-0.6-0.8-0.7-1.8-0.3-3.1c0.3-1.3,1-2.3,2-3c1-0.8,2.1-1.1,3.4-1.1c1.3,0,2.2,0.4,2.8,1.1C158.1,728.9,158.3,729.9,157.9,731.2z
		 M155.4,731.2c0.2-0.7,0.1-1.2-0.1-1.6c-0.2-0.4-0.6-0.6-1.1-0.6c-0.5,0-1,0.2-1.4,0.6c-0.4,0.4-0.7,0.9-0.9,1.6
		c-0.1,0.4-0.1,0.7-0.1,0.9c0,0.3,0.1,0.5,0.2,0.7c0.2,0.4,0.6,0.6,1.1,0.6c0.6,0,1-0.2,1.4-0.6
		C154.9,732.4,155.2,731.9,155.4,731.2z M169.1,735.3h-2.4l1.3-4.9c0.1-0.5,0.2-0.8,0.1-1c-0.1-0.2-0.4-0.2-0.9-0.2l-0.9,0l-1.6,6.1
		h-2.4l1.6-6.1h-2l-1.6,6.1h-2.4l2.2-8.1h8c1.2,0,2,0.2,2.4,0.7c0.4,0.5,0.5,1.2,0.2,2.3L169.1,735.3z"/>
	<path class="st5" d="M27.3,727.2l21.2-2.2c0.2,0,0.5,0,0.7,0c0.5,0.1,1,0.3,1.4,0.7c0.4,0.3,0.6,0.8,0.7,1.3c0,0.2,0,0.4,0,0.6
		l-3.7,9.6c-0.1,0.7-0.5,1.3-1,1.7c-0.5,0.4-1.1,0.7-1.8,0.7H30.3c-0.7,0-1.3-0.3-1.8-0.7h0c-0.5-0.4-0.8-1.1-1-1.7l-2.9-7.4
		c0-0.1,0-0.1,0-0.2c-0.1-0.6,0.2-1.2,0.7-1.6c0.5-0.4,1.1-0.6,1.7-0.8C27.1,727.2,27.2,727.2,27.3,727.2z M47,727.1l-19.8,2.1
		c-0.1,0-0.2,0-0.2,0c-0.4,0.1-0.9,0.3-1.2,0.5c-0.3,0.2-0.4,0.5-0.4,0.8c0,0,0,0.1,0,0.1l2.7,6.5c0.1,0.5,0.3,0.9,0.7,1.2
		c0.3,0.2,0.6,0.4,1,0.4h13.6c0.4,0,0.8-0.1,1-0.4c0.3-0.3,0.5-0.7,0.7-1.2l3.4-8.6c0-0.1,0-0.2,0-0.3c0-0.3-0.2-0.5-0.4-0.7
		c-0.2-0.2-0.5-0.4-0.8-0.4C47.3,727.1,47.2,727,47,727.1z"/>
	<path class="st5" d="M87,720.9l-0.5,1.7h-0.6l1.2-4.5h1.3c0.3,0,0.5,0,0.7,0.1c0.2,0.1,0.3,0.2,0.4,0.3c0.1,0.1,0.2,0.3,0.2,0.4
		c0,0.2,0,0.4-0.1,0.6c-0.1,0.2-0.1,0.4-0.3,0.6c-0.1,0.2-0.3,0.3-0.4,0.4c-0.2,0.1-0.4,0.2-0.6,0.3c-0.2,0.1-0.5,0.1-0.7,0.1H87z
		 M87.1,720.4h0.7c0.2,0,0.3,0,0.5-0.1c0.1,0,0.3-0.1,0.4-0.2c0.1-0.1,0.2-0.2,0.3-0.3c0.1-0.1,0.1-0.2,0.2-0.4
		c0.1-0.3,0.1-0.5-0.1-0.7c-0.1-0.2-0.4-0.2-0.7-0.2h-0.7L87.1,720.4z"/>
	<path id="_x31__13_" class="st5" d="M91.7,719.3c0.2,0,0.4,0,0.6,0.1c0.2,0.1,0.3,0.2,0.4,0.3c0.1,0.1,0.1,0.3,0.2,0.5
		c0,0.2,0,0.4-0.1,0.7c-0.1,0.3-0.2,0.5-0.3,0.7c-0.1,0.2-0.3,0.4-0.4,0.5c-0.2,0.1-0.4,0.3-0.6,0.3c-0.2,0.1-0.4,0.1-0.7,0.1
		c-0.2,0-0.4,0-0.6-0.1c-0.2-0.1-0.3-0.2-0.4-0.3c-0.1-0.1-0.1-0.3-0.2-0.5c0-0.2,0-0.4,0.1-0.7c0.1-0.3,0.2-0.5,0.3-0.7
		c0.1-0.2,0.3-0.4,0.4-0.5c0.2-0.1,0.4-0.3,0.6-0.3C91.2,719.4,91.4,719.3,91.7,719.3z M90.9,722.2c0.3,0,0.6-0.1,0.8-0.3
		c0.2-0.2,0.4-0.5,0.5-0.9c0.1-0.4,0.1-0.7,0-0.9c-0.1-0.2-0.3-0.3-0.6-0.3c-0.2,0-0.3,0-0.4,0.1c-0.1,0.1-0.3,0.1-0.4,0.2
		c-0.1,0.1-0.2,0.2-0.3,0.4c-0.1,0.1-0.1,0.3-0.2,0.5c0,0.2-0.1,0.4-0.1,0.5c0,0.1,0,0.3,0.1,0.4c0.1,0.1,0.1,0.2,0.2,0.2
		C90.6,722.1,90.7,722.2,90.9,722.2z"/>
	<path id="_x32__13_" class="st5" d="M93.4,719.4h0.4c0,0,0.1,0,0.1,0c0,0,0,0,0,0.1l0.1,2c0,0.1,0,0.1,0,0.2c0,0.1,0,0.1,0,0.2
		c0-0.1,0.1-0.1,0.1-0.2c0-0.1,0.1-0.1,0.1-0.2l1.2-2.1c0,0,0-0.1,0.1-0.1c0,0,0.1,0,0.1,0h0.2c0,0,0.1,0,0.1,0c0,0,0,0,0,0.1
		l0.1,2.1c0,0.1,0,0.1,0,0.2c0,0.1,0,0.1,0,0.2c0-0.1,0.1-0.1,0.1-0.2c0-0.1,0.1-0.1,0.1-0.2l1.2-2c0,0,0-0.1,0.1-0.1
		c0,0,0.1,0,0.1,0h0.4l-1.9,3.2h-0.4c-0.1,0-0.1,0-0.1-0.1l-0.1-2.2c0,0,0-0.1,0-0.1c0-0.1,0-0.1,0-0.1c0,0,0,0.1-0.1,0.1
		c0,0,0,0.1-0.1,0.1l-1.3,2.2c0,0.1-0.1,0.1-0.2,0.1h-0.4L93.4,719.4z"/>
	<path id="_x33__13_" class="st5" d="M99.9,719.3c0.2,0,0.4,0,0.5,0.1c0.1,0.1,0.3,0.2,0.3,0.3c0.1,0.1,0.1,0.3,0.2,0.4
		c0,0.2,0,0.4-0.1,0.6c0,0.1,0,0.1-0.1,0.2c0,0-0.1,0-0.1,0h-2.1c-0.1,0.2-0.1,0.4-0.1,0.5c0,0.1,0,0.3,0.1,0.4
		c0.1,0.1,0.1,0.2,0.3,0.2c0.1,0,0.2,0.1,0.4,0.1c0.1,0,0.3,0,0.4,0c0.1,0,0.2-0.1,0.3-0.1c0.1,0,0.2-0.1,0.2-0.1
		c0.1,0,0.1-0.1,0.1-0.1c0,0,0.1,0,0.1,0.1l0.1,0.2c-0.1,0.1-0.2,0.2-0.3,0.2c-0.1,0.1-0.2,0.1-0.3,0.2c-0.1,0-0.2,0.1-0.4,0.1
		c-0.1,0-0.2,0-0.4,0c-0.2,0-0.4,0-0.6-0.1c-0.2-0.1-0.3-0.2-0.4-0.3c-0.1-0.1-0.2-0.3-0.2-0.5c0-0.2,0-0.5,0.1-0.7
		c0.1-0.2,0.1-0.4,0.3-0.6c0.1-0.2,0.3-0.4,0.4-0.5c0.2-0.1,0.4-0.3,0.6-0.3C99.5,719.4,99.7,719.3,99.9,719.3z M99.8,719.7
		c-0.3,0-0.5,0.1-0.7,0.2c-0.2,0.2-0.4,0.4-0.5,0.6h1.7c0-0.1,0.1-0.3,0-0.4c0-0.1,0-0.2-0.1-0.3c0-0.1-0.1-0.1-0.2-0.2
		C100.1,719.8,100,719.7,99.8,719.7z"/>
	<path id="_x34__13_" class="st5" d="M101.1,722.6l0.9-3.2h0.3c0.1,0,0.1,0,0.1,0c0,0,0,0.1,0,0.1l-0.1,0.5c0.2-0.2,0.4-0.4,0.5-0.5
		c0.2-0.1,0.4-0.2,0.6-0.2c0.1,0,0.2,0,0.2,0c0.1,0,0.1,0,0.2,0.1l-0.2,0.4c0,0.1-0.1,0.1-0.1,0.1c0,0-0.1,0-0.1,0
		c-0.1,0-0.1,0-0.2,0c-0.2,0-0.4,0.1-0.5,0.2c-0.2,0.1-0.3,0.3-0.5,0.5l-0.5,2H101.1z"/>
	<path id="_x35__13_" class="st5" d="M105.8,719.3c0.2,0,0.4,0,0.5,0.1c0.1,0.1,0.3,0.2,0.3,0.3c0.1,0.1,0.1,0.3,0.2,0.4
		c0,0.2,0,0.4-0.1,0.6c0,0.1,0,0.1-0.1,0.2c0,0-0.1,0-0.1,0h-2.1c-0.1,0.2-0.1,0.4-0.1,0.5c0,0.1,0,0.3,0.1,0.4
		c0.1,0.1,0.1,0.2,0.3,0.2c0.1,0,0.2,0.1,0.4,0.1c0.1,0,0.3,0,0.4,0c0.1,0,0.2-0.1,0.3-0.1c0.1,0,0.2-0.1,0.2-0.1
		c0.1,0,0.1-0.1,0.1-0.1c0,0,0.1,0,0.1,0.1l0.1,0.2c-0.1,0.1-0.2,0.2-0.3,0.2c-0.1,0.1-0.2,0.1-0.3,0.2c-0.1,0-0.2,0.1-0.4,0.1
		c-0.1,0-0.2,0-0.4,0c-0.2,0-0.4,0-0.6-0.1c-0.2-0.1-0.3-0.2-0.4-0.3c-0.1-0.1-0.2-0.3-0.2-0.5c0-0.2,0-0.5,0.1-0.7
		c0.1-0.2,0.2-0.4,0.3-0.6c0.1-0.2,0.3-0.4,0.4-0.5c0.2-0.1,0.4-0.3,0.6-0.3C105.3,719.4,105.5,719.3,105.8,719.3z M105.7,719.7
		c-0.3,0-0.5,0.1-0.7,0.2c-0.2,0.2-0.4,0.4-0.5,0.6h1.7c0-0.1,0-0.3,0-0.4c0-0.1,0-0.2-0.1-0.3c0-0.1-0.1-0.1-0.2-0.2
		C105.9,719.8,105.8,719.7,105.7,719.7z"/>
	<path id="_x36__13_" class="st5" d="M109.2,722.6c-0.1,0-0.1,0-0.1-0.1l0.1-0.4c-0.2,0.2-0.4,0.3-0.6,0.4c-0.2,0.1-0.4,0.1-0.6,0.1
		c-0.2,0-0.3,0-0.5-0.1c-0.1-0.1-0.2-0.2-0.3-0.3c-0.1-0.1-0.1-0.3-0.1-0.5c0-0.2,0-0.4,0.1-0.7c0.1-0.2,0.2-0.5,0.3-0.7
		c0.1-0.2,0.3-0.4,0.4-0.5c0.2-0.2,0.3-0.3,0.5-0.4c0.2-0.1,0.4-0.1,0.6-0.1c0.2,0,0.4,0,0.5,0.1c0.1,0.1,0.2,0.2,0.3,0.3l0.5-1.8
		h0.6l-1.2,4.6H109.2z M108.2,722.2c0.2,0,0.4,0,0.5-0.1c0.2-0.1,0.3-0.2,0.5-0.4l0.4-1.5c-0.1-0.1-0.2-0.2-0.3-0.3
		c-0.1-0.1-0.2-0.1-0.4-0.1c-0.3,0-0.6,0.1-0.8,0.3c-0.2,0.2-0.4,0.5-0.5,0.9c-0.1,0.2-0.1,0.4-0.1,0.5c0,0.1,0,0.3,0.1,0.4
		c0,0.1,0.1,0.2,0.2,0.2C107.9,722.1,108.1,722.2,108.2,722.2z"/>
	<path id="_x37__13_" class="st5" d="M111.7,722.6l1.2-4.6h0.6l-0.5,1.9c0.2-0.2,0.4-0.3,0.6-0.4c0.2-0.1,0.4-0.1,0.6-0.1
		c0.2,0,0.3,0,0.5,0.1c0.1,0.1,0.2,0.2,0.3,0.3c0.1,0.1,0.1,0.3,0.1,0.5c0,0.2,0,0.4-0.1,0.7c-0.1,0.2-0.2,0.5-0.3,0.7
		c-0.1,0.2-0.3,0.4-0.4,0.5c-0.2,0.1-0.3,0.3-0.5,0.3c-0.2,0.1-0.4,0.1-0.6,0.1c-0.2,0-0.4,0-0.5-0.1c-0.1-0.1-0.2-0.2-0.3-0.3
		l-0.1,0.3c0,0.1-0.1,0.1-0.2,0.1H111.7z M113.8,719.8c-0.2,0-0.4,0-0.5,0.1c-0.2,0.1-0.3,0.2-0.5,0.4l-0.4,1.5
		c0.1,0.1,0.1,0.2,0.3,0.3c0.1,0.1,0.2,0.1,0.4,0.1c0.3,0,0.6-0.1,0.8-0.3c0.2-0.2,0.4-0.5,0.5-0.9c0.1-0.2,0.1-0.4,0.1-0.5
		c0-0.1,0-0.3-0.1-0.4c0-0.1-0.1-0.2-0.2-0.2C114.1,719.8,113.9,719.8,113.8,719.8z"/>
	<path id="_x38__13_" class="st5" d="M115.7,723.5c0,0-0.1,0.1-0.1,0.1c0,0-0.1,0-0.1,0h-0.4l0.9-1.2l-0.5-3h0.5c0,0,0.1,0,0.1,0
		c0,0,0,0,0,0.1l0.3,2c0,0,0,0.1,0,0.1c0,0,0,0.1,0,0.1c0,0,0.1-0.1,0.1-0.1c0,0,0.1-0.1,0.1-0.1l1.4-2c0,0,0.1-0.1,0.1-0.1
		c0,0,0.1,0,0.1,0h0.4L115.7,723.5z"/>
	<path id="_x39__13_" class="st5" d="M118.3,722.2c0-0.1,0-0.1,0.1-0.2c0-0.1,0.1-0.1,0.1-0.1c0,0,0.1-0.1,0.1-0.1
		c0.1,0,0.1,0,0.2,0c0.1,0,0.1,0,0.1,0c0,0,0.1,0,0.1,0.1c0,0,0,0.1,0.1,0.1c0,0,0,0.1,0,0.2c0,0.1,0,0.1-0.1,0.2
		c0,0-0.1,0.1-0.1,0.1c0,0-0.1,0.1-0.1,0.1c-0.1,0-0.1,0-0.2,0c-0.1,0-0.1,0-0.1,0c0,0-0.1,0-0.1-0.1c0,0,0-0.1,0-0.1
		C118.3,722.3,118.3,722.3,118.3,722.2z M118.9,719.9c0-0.1,0-0.1,0.1-0.2c0,0,0.1-0.1,0.1-0.1c0,0,0.1-0.1,0.1-0.1
		c0.1,0,0.1,0,0.2,0c0.1,0,0.1,0,0.1,0c0,0,0.1,0,0.1,0.1c0,0,0,0.1,0.1,0.1c0,0,0,0.1,0,0.2c0,0.1,0,0.1-0.1,0.2
		c0,0-0.1,0.1-0.1,0.1c0,0-0.1,0.1-0.1,0.1c-0.1,0-0.1,0-0.2,0c-0.1,0-0.1,0-0.1,0c0,0-0.1,0-0.1-0.1c0,0,0-0.1,0-0.1
		C118.9,720,118.9,719.9,118.9,719.9z"/>
	<path class="st5" d="M125.4,737.6l-0.1,0.5H123l-0.4,1.6h1.8l-0.1,0.5h-1.8l-0.4,1.6h2.3l-0.1,0.5h-2.9l1.3-4.8H125.4z
		 M125.4,740.2h1.6l-0.1,0.5h-1.6L125.4,740.2z M128.1,741.9h2.1l-0.1,0.5h-2.7l1.3-4.8h0.6L128.1,741.9z M132.8,739
		c0.2,0,0.4,0,0.5,0.1c0.2,0.1,0.3,0.2,0.4,0.3c0.1,0.1,0.1,0.3,0.2,0.5c0,0.2,0,0.4-0.1,0.6c0,0.1-0.1,0.2-0.1,0.2c0,0-0.1,0-0.1,0
		h-2.2c-0.1,0.2-0.1,0.4-0.1,0.6c0,0.2,0,0.3,0.1,0.4c0.1,0.1,0.2,0.2,0.3,0.2c0.1,0.1,0.3,0.1,0.4,0.1c0.1,0,0.3,0,0.4-0.1
		c0.1,0,0.2-0.1,0.3-0.1c0.1,0,0.2-0.1,0.2-0.1c0.1,0,0.1-0.1,0.1-0.1c0,0,0.1,0,0.1,0.1l0.1,0.2c-0.1,0.1-0.2,0.2-0.3,0.2
		c-0.1,0.1-0.2,0.1-0.4,0.2c-0.1,0-0.3,0.1-0.4,0.1c-0.1,0-0.3,0-0.4,0c-0.2,0-0.4,0-0.6-0.1c-0.2-0.1-0.3-0.2-0.4-0.3
		c-0.1-0.2-0.2-0.3-0.2-0.6c0-0.2,0-0.5,0.1-0.8c0.1-0.2,0.2-0.5,0.3-0.7c0.1-0.2,0.3-0.4,0.5-0.5c0.2-0.1,0.4-0.3,0.6-0.4
		C132.3,739,132.6,739,132.8,739z M132.7,739.4c-0.3,0-0.5,0.1-0.7,0.2c-0.2,0.2-0.4,0.4-0.5,0.7h1.8c0-0.1,0.1-0.3,0-0.4
		c0-0.1,0-0.2-0.1-0.3c-0.1-0.1-0.1-0.1-0.2-0.2C132.9,739.4,132.8,739.4,132.7,739.4z M136.5,742.4h-0.3c-0.1,0-0.1,0-0.1,0
		c0,0,0-0.1,0-0.1l0-0.3c-0.1,0.1-0.2,0.2-0.3,0.2c-0.1,0.1-0.2,0.1-0.3,0.2c-0.1,0-0.2,0.1-0.3,0.1c-0.1,0-0.2,0-0.4,0
		c-0.1,0-0.2,0-0.4-0.1c-0.1,0-0.2-0.1-0.3-0.2c-0.1-0.1-0.1-0.2-0.1-0.3c0-0.1,0-0.2,0-0.4c0-0.1,0.1-0.3,0.2-0.4
		c0.1-0.1,0.3-0.2,0.4-0.3c0.2-0.1,0.4-0.2,0.7-0.2c0.3-0.1,0.6-0.1,1-0.1l0.1-0.3c0.1-0.3,0.1-0.5,0-0.6c-0.1-0.1-0.2-0.2-0.4-0.2
		c-0.1,0-0.3,0-0.4,0.1c-0.1,0-0.2,0.1-0.3,0.1c-0.1,0-0.2,0.1-0.2,0.1c-0.1,0-0.1,0.1-0.2,0.1c0,0-0.1,0-0.1,0c0,0,0,0-0.1-0.1
		l-0.1-0.2c0.2-0.2,0.5-0.3,0.7-0.4c0.2-0.1,0.5-0.1,0.8-0.1c0.2,0,0.3,0,0.5,0.1c0.1,0.1,0.2,0.1,0.3,0.3c0.1,0.1,0.1,0.2,0.1,0.4
		c0,0.2,0,0.3-0.1,0.5L136.5,742.4z M135.1,742c0.1,0,0.2,0,0.3,0c0.1,0,0.2-0.1,0.3-0.1c0.1,0,0.2-0.1,0.3-0.1
		c0.1-0.1,0.2-0.1,0.3-0.2l0.2-0.7c-0.3,0-0.5,0-0.7,0.1c-0.2,0-0.4,0.1-0.5,0.1c-0.1,0.1-0.2,0.1-0.3,0.2c-0.1,0.1-0.1,0.2-0.1,0.3
		c0,0.1,0,0.2,0,0.2c0,0.1,0,0.1,0.1,0.2c0,0,0.1,0.1,0.1,0.1C134.9,742,135,742,135.1,742z M137.4,742.4l0.9-3.4h0.3
		c0.1,0,0.1,0,0.1,0c0,0,0,0.1,0,0.1l-0.1,0.6c0.2-0.2,0.4-0.4,0.6-0.6c0.2-0.1,0.4-0.2,0.6-0.2c0.1,0,0.2,0,0.2,0
		c0.1,0,0.1,0.1,0.2,0.1l-0.2,0.4c0,0.1-0.1,0.1-0.1,0.1c0,0-0.1,0-0.1,0c-0.1,0-0.1,0-0.3,0c-0.2,0-0.4,0.1-0.6,0.2
		c-0.2,0.1-0.3,0.3-0.5,0.5l-0.6,2.1H137.4z M140.1,742.4l0.9-3.4h0.4c0.1,0,0.1,0,0.1,0.1l-0.1,0.4c0.2-0.2,0.4-0.3,0.6-0.4
		c0.2-0.1,0.4-0.2,0.7-0.2c0.2,0,0.3,0,0.5,0.1c0.1,0.1,0.2,0.1,0.3,0.3c0.1,0.1,0.1,0.2,0.1,0.4c0,0.2,0,0.3-0.1,0.5l-0.6,2.1h-0.6
		l0.6-2.1c0.1-0.3,0.1-0.5,0-0.6c-0.1-0.1-0.2-0.2-0.5-0.2c-0.2,0-0.3,0-0.5,0.1c-0.2,0.1-0.3,0.2-0.5,0.3l-0.7,2.5H140.1z
		 M145.3,739l-0.9,3.4h-0.6l0.9-3.4H145.3z M145.7,738c0,0.1,0,0.1-0.1,0.2c0,0-0.1,0.1-0.1,0.1c0,0-0.1,0.1-0.2,0.1
		c-0.1,0-0.1,0-0.2,0c-0.1,0-0.1,0-0.2,0c0,0-0.1-0.1-0.1-0.1c0,0,0-0.1-0.1-0.1c0,0,0-0.1,0-0.2c0-0.1,0-0.1,0.1-0.2
		c0-0.1,0.1-0.1,0.1-0.1c0,0,0.1-0.1,0.2-0.1c0.1,0,0.1,0,0.2,0c0.1,0,0.1,0,0.2,0c0,0,0.1,0.1,0.1,0.1c0,0,0,0.1,0.1,0.1
		C145.8,737.9,145.8,737.9,145.7,738z M145.5,742.4l0.9-3.4h0.4c0.1,0,0.1,0,0.1,0.1l-0.1,0.4c0.2-0.2,0.4-0.3,0.6-0.4
		c0.2-0.1,0.4-0.2,0.7-0.2c0.2,0,0.3,0,0.5,0.1c0.1,0.1,0.2,0.1,0.3,0.3c0.1,0.1,0.1,0.2,0.1,0.4c0,0.2,0,0.3-0.1,0.5l-0.6,2.1h-0.6
		l0.6-2.1c0.1-0.3,0.1-0.5,0-0.6c-0.1-0.1-0.2-0.2-0.5-0.2c-0.2,0-0.3,0-0.5,0.1c-0.2,0.1-0.3,0.2-0.5,0.3l-0.7,2.5H145.5z
		 M151.2,739c0.1,0,0.3,0,0.4,0c0.1,0,0.2,0.1,0.3,0.1h0.9l-0.1,0.2c0,0.1-0.1,0.1-0.2,0.1l-0.4,0.1c0,0.1,0,0.3,0,0.5
		c0,0.2-0.1,0.3-0.2,0.4c-0.1,0.1-0.2,0.2-0.4,0.3c-0.1,0.1-0.3,0.2-0.5,0.2c-0.2,0-0.3,0.1-0.5,0.1c-0.2,0-0.3,0-0.4-0.1
		c-0.1,0-0.1,0.1-0.2,0.1c-0.1,0.1-0.1,0.1-0.1,0.2c0,0.1,0,0.1,0,0.2c0.1,0,0.1,0.1,0.2,0.1c0.1,0,0.2,0,0.4,0c0.1,0,0.3,0,0.4,0
		c0.1,0,0.3,0,0.4,0c0.1,0,0.2,0.1,0.3,0.1c0.1,0.1,0.2,0.1,0.2,0.2c0,0.1,0,0.2,0,0.4c0,0.1-0.1,0.3-0.2,0.4
		c-0.1,0.1-0.2,0.3-0.4,0.4c-0.2,0.1-0.3,0.2-0.6,0.3c-0.2,0.1-0.4,0.1-0.7,0.1c-0.2,0-0.5,0-0.6-0.1c-0.2,0-0.3-0.1-0.4-0.2
		c-0.1-0.1-0.2-0.2-0.2-0.3c0-0.1,0-0.2,0-0.3c0-0.2,0.1-0.3,0.3-0.4c0.1-0.1,0.3-0.2,0.5-0.3c-0.1,0-0.1-0.1-0.2-0.2
		c0-0.1,0-0.2,0-0.3c0,0,0-0.1,0.1-0.2c0-0.1,0.1-0.1,0.1-0.2c0-0.1,0.1-0.1,0.2-0.1c0.1,0,0.1-0.1,0.2-0.1
		c-0.1-0.1-0.2-0.2-0.3-0.4c-0.1-0.2-0.1-0.3,0-0.5c0-0.2,0.1-0.3,0.2-0.4c0.1-0.1,0.2-0.3,0.4-0.3c0.1-0.1,0.3-0.2,0.5-0.2
		C150.8,739,151,739,151.2,739z M151.3,742.6c0-0.1,0-0.2,0-0.2c0-0.1-0.1-0.1-0.2-0.1c-0.1,0-0.2,0-0.3-0.1c-0.1,0-0.2,0-0.3,0
		c-0.1,0-0.2,0-0.4,0c-0.1,0-0.2,0-0.3,0c-0.1,0.1-0.3,0.1-0.4,0.2c-0.1,0.1-0.2,0.2-0.2,0.3c0,0.1,0,0.1,0,0.2
		c0,0.1,0.1,0.1,0.1,0.2c0.1,0,0.2,0.1,0.3,0.1c0.1,0,0.3,0,0.4,0c0.2,0,0.3,0,0.4,0c0.1,0,0.3-0.1,0.4-0.1c0.1-0.1,0.2-0.1,0.3-0.2
		C151.2,742.7,151.3,742.7,151.3,742.6z M150.7,740.8c0.1,0,0.2,0,0.3,0c0.1,0,0.2-0.1,0.3-0.1c0.1-0.1,0.1-0.1,0.2-0.2
		c0.1-0.1,0.1-0.2,0.1-0.3c0.1-0.2,0-0.4-0.1-0.5c-0.1-0.1-0.3-0.2-0.5-0.2s-0.4,0.1-0.6,0.2c-0.2,0.1-0.3,0.3-0.3,0.5
		c0,0.1,0,0.2,0,0.3c0,0.1,0,0.2,0.1,0.2c0,0.1,0.1,0.1,0.2,0.1C150.5,740.7,150.6,740.8,150.7,740.8z M158.4,737.6l-0.1,0.5h-1.5
		l-1.1,4.2H155l1.1-4.2h-1.5l0.1-0.5H158.4z M159.3,739c0.2,0,0.4,0,0.5,0.1c0.2,0.1,0.3,0.2,0.4,0.3c0.1,0.1,0.1,0.3,0.2,0.5
		c0,0.2,0,0.4-0.1,0.6c0,0.1,0,0.2-0.1,0.2c0,0-0.1,0-0.1,0h-2.2c-0.1,0.2-0.1,0.4-0.1,0.6c0,0.2,0,0.3,0.1,0.4
		c0.1,0.1,0.2,0.2,0.3,0.2c0.1,0.1,0.2,0.1,0.4,0.1c0.1,0,0.3,0,0.4-0.1c0.1,0,0.2-0.1,0.3-0.1c0.1,0,0.2-0.1,0.2-0.1
		c0.1,0,0.1-0.1,0.1-0.1c0,0,0.1,0,0.1,0.1l0.1,0.2c-0.1,0.1-0.2,0.2-0.3,0.2c-0.1,0.1-0.2,0.1-0.4,0.2c-0.1,0-0.3,0.1-0.4,0.1
		c-0.1,0-0.3,0-0.4,0c-0.2,0-0.4,0-0.6-0.1c-0.2-0.1-0.3-0.2-0.4-0.3c-0.1-0.2-0.2-0.3-0.2-0.6c0-0.2,0-0.5,0.1-0.8
		c0.1-0.2,0.2-0.5,0.3-0.7c0.1-0.2,0.3-0.4,0.5-0.5c0.2-0.1,0.4-0.3,0.6-0.4C158.8,739,159.1,739,159.3,739z M159.2,739.4
		c-0.3,0-0.5,0.1-0.7,0.2c-0.2,0.2-0.4,0.4-0.5,0.7h1.8c0-0.1,0-0.3,0-0.4c0-0.1,0-0.2-0.1-0.3c-0.1-0.1-0.1-0.1-0.2-0.2
		C159.4,739.4,159.3,739.4,159.2,739.4z M163,742.4h-0.3c-0.1,0-0.1,0-0.1,0c0,0,0-0.1,0-0.1l0-0.3c-0.1,0.1-0.2,0.2-0.3,0.2
		c-0.1,0.1-0.2,0.1-0.3,0.2c-0.1,0-0.2,0.1-0.3,0.1c-0.1,0-0.2,0-0.4,0c-0.1,0-0.2,0-0.4-0.1c-0.1,0-0.2-0.1-0.3-0.2
		c-0.1-0.1-0.1-0.2-0.1-0.3c0-0.1,0-0.2,0-0.4c0-0.1,0.1-0.3,0.2-0.4c0.1-0.1,0.3-0.2,0.4-0.3c0.2-0.1,0.4-0.2,0.7-0.2
		c0.3-0.1,0.6-0.1,1-0.1l0.1-0.3c0.1-0.3,0.1-0.5,0-0.6c-0.1-0.1-0.2-0.2-0.4-0.2c-0.1,0-0.3,0-0.4,0.1c-0.1,0-0.2,0.1-0.3,0.1
		c-0.1,0-0.2,0.1-0.2,0.1c-0.1,0-0.1,0.1-0.2,0.1c0,0-0.1,0-0.1,0c0,0,0,0-0.1-0.1l-0.1-0.2c0.2-0.2,0.5-0.3,0.7-0.4
		c0.2-0.1,0.5-0.1,0.7-0.1c0.2,0,0.3,0,0.5,0.1c0.1,0.1,0.2,0.1,0.3,0.3c0.1,0.1,0.1,0.2,0.1,0.4c0,0.2,0,0.3-0.1,0.5L163,742.4z
		 M161.6,742c0.1,0,0.2,0,0.3,0c0.1,0,0.2-0.1,0.3-0.1c0.1,0,0.2-0.1,0.3-0.1c0.1-0.1,0.2-0.1,0.3-0.2l0.2-0.7c-0.3,0-0.5,0-0.7,0.1
		c-0.2,0-0.4,0.1-0.5,0.1c-0.1,0.1-0.2,0.1-0.3,0.2c-0.1,0.1-0.1,0.2-0.2,0.3c0,0.1,0,0.2,0,0.2c0,0.1,0,0.1,0.1,0.2
		c0,0,0.1,0.1,0.1,0.1C161.4,742,161.5,742,161.6,742z M163.9,742.4l0.9-3.4h0.3c0.1,0,0.1,0,0.1,0.1l0,0.3c0.2-0.2,0.3-0.3,0.5-0.4
		c0.2-0.1,0.4-0.1,0.6-0.1c0.2,0,0.4,0.1,0.5,0.2c0.1,0.1,0.2,0.3,0.2,0.5c0.1-0.1,0.2-0.2,0.3-0.3c0.1-0.1,0.2-0.2,0.3-0.2
		c0.1-0.1,0.2-0.1,0.3-0.1c0.1,0,0.2,0,0.3,0c0.2,0,0.3,0,0.5,0.1c0.1,0.1,0.2,0.1,0.3,0.2c0.1,0.1,0.1,0.2,0.1,0.4
		c0,0.2,0,0.3-0.1,0.5l-0.6,2.1h-0.6l0.6-2.1c0.1-0.3,0.1-0.5,0-0.6c-0.1-0.1-0.2-0.2-0.4-0.2c-0.1,0-0.2,0-0.3,0.1
		c-0.1,0-0.2,0.1-0.3,0.2c-0.1,0.1-0.2,0.2-0.2,0.3c-0.1,0.1-0.1,0.2-0.2,0.4l-0.6,2.1h-0.6l0.6-2.1c0.1-0.3,0.1-0.5,0-0.6
		c-0.1-0.1-0.2-0.2-0.4-0.2c-0.1,0-0.3,0-0.4,0.1c-0.1,0.1-0.3,0.2-0.4,0.3l-0.7,2.5H163.9z"/>
</g>
<g>
	<g>
		<g>
			<linearGradient id="SVGID_3_" gradientUnits="userSpaceOnUse" x1="227.2737" y1="202.6738" x2="227.2737" y2="287.6294">
				<stop  offset="0" style="stop-color:#9DB3CE"/>
				<stop  offset="1" style="stop-color:#91A8C6"/>
			</linearGradient>
			<path class="st8" d="M227.3,289.9c-25,0-45.4-20.4-45.4-45.4s20.4-45.4,45.4-45.4c25,0,45.4,20.4,45.4,45.4
				S252.3,289.9,227.3,289.9L227.3,289.9z"/>
			<linearGradient id="SVGID_4_" gradientUnits="userSpaceOnUse" x1="227.2737" y1="204.1743" x2="227.2737" y2="286.084">
				<stop  offset="0" style="stop-color:#DCE8F1"/>
				<stop  offset="1" style="stop-color:#B0C1D6"/>
			</linearGradient>
			<circle class="st9" cx="227.3" cy="244.5" r="43.8"/>
			<linearGradient id="SVGID_5_" gradientUnits="userSpaceOnUse" x1="214.2769" y1="205.4768" x2="222.1418" y2="229.2069">
				<stop  offset="0" style="stop-color:#FBFEFF"/>
				<stop  offset="1" style="stop-color:#D6E4EE"/>
			</linearGradient>
			<path class="st10" d="M212.9,205.3c-16.1,5.3-21,16.6-23.5,24.2c-2.5,7.6,16.7,6.5,36.7-1.9c20-8.4,29.1-16.7,19.9-20.9
				C236.8,202.5,225.3,201.2,212.9,205.3z"/>
			
				<linearGradient id="SVGID_6_" gradientUnits="userSpaceOnUse" x1="-4417.335" y1="4322.4849" x2="-4409.4697" y2="4346.2153" gradientTransform="matrix(-1 0 0 -1 -4176.667 4606.8242)">
				<stop  offset="0" style="stop-color:#8CA3BD"/>
				<stop  offset="1" style="stop-color:#BECEE0"/>
			</linearGradient>
			<path class="st11" d="M242.1,284.5c16.1-5.3,21-16.6,23.5-24.2c2.5-7.6-16.7-6.5-36.7,1.9c-20,8.4-29.1,16.7-19.9,20.9
				C218.2,287.3,229.7,288.6,242.1,284.5z"/>
			<g>
				<linearGradient id="SVGID_7_" gradientUnits="userSpaceOnUse" x1="208.5275" y1="213.6653" x2="208.5275" y2="280.3905">
					<stop  offset="0" style="stop-color:#D8E0EB"/>
					<stop  offset="1" style="stop-color:#A0B2C4"/>
				</linearGradient>
				<path class="st12" d="M207.7,231.6c-1.7-0.6-3.3-0.3-5.3,0.7c-2.2,1.2-3.7,1.1-6,1.6c-1.8,0.4-2.7,1.6-3.1,3.3
					c-0.2,0.9-0.5,2.2-0.6,3.1c-0.4,2.9,1.6,7,2.6,9.6c1.3,3.2,3.2,6.8,6.2,8.6c8.2,5,18.6,4.9,22.3-5.3c2.3-6.4-0.8-11.8-6.3-15.1
					c-2.8-1.7-5.1-3.3-7.7-5.3C209.1,232.2,208.4,231.8,207.7,231.6z"/>
				<linearGradient id="SVGID_8_" gradientUnits="userSpaceOnUse" x1="234.1876" y1="213.6736" x2="234.1876" y2="280.3982">
					<stop  offset="0" style="stop-color:#D8E0EB"/>
					<stop  offset="1" style="stop-color:#A0B2C4"/>
				</linearGradient>
				<path class="st13" d="M252.3,229.1c1.5-0.5,2.5-1.5,1.9-3.5c-0.8-3.1-4.2-4.5-7-5.4c-1.5-0.5-3.1-0.6-4.7-1
					c-1.8-0.5-2.4-1.4-3.9-2.6c-6.1-4.7-15.7-3.5-20.9,1.9c-2.4,2.4-4.5,6.8-3.3,10.3c0.7,1.9,2.2,2.2,4,3c2.5,1.1,5.3,2.5,7.2,4.5
					c2.4,2.4,3.1,4.3,7,4c6-0.4,9.1-6.7,13.7-9.5C247.7,229.8,250.4,229.8,252.3,229.1z"/>
				<linearGradient id="SVGID_9_" gradientUnits="userSpaceOnUse" x1="234.5853" y1="213.6655" x2="234.5853" y2="280.3906">
					<stop  offset="0" style="stop-color:#D8E0EB"/>
					<stop  offset="1" style="stop-color:#A0B2C4"/>
				</linearGradient>
				<path class="st14" d="M239.7,247.5c-2.3-1.1-5.5-5-7.8-5.5c-2-0.5-3.7,1.4-4.7,3.3c-2.3,4-1,8.9,3.3,10.8
					c3.8,1.7,11.8,1.8,12.5-3.8C243.4,249.2,242.3,248.8,239.7,247.5z"/>
				<linearGradient id="SVGID_10_" gradientUnits="userSpaceOnUse" x1="260.5322" y1="213.6677" x2="260.5322" y2="280.3896">
					<stop  offset="0" style="stop-color:#D8E0EB"/>
					<stop  offset="1" style="stop-color:#A0B2C4"/>
				</linearGradient>
				<path class="st15" d="M260.6,265.8c2.5-1.3,7.2-11.4,2.7-12.5c-3.1-0.7-5.8,5-6.7,7C255.2,263.1,255.7,268.3,260.6,265.8z"/>
				<linearGradient id="SVGID_11_" gradientUnits="userSpaceOnUse" x1="210.1066" y1="213.666" x2="210.1066" y2="280.3906">
					<stop  offset="0" style="stop-color:#D8E0EB"/>
					<stop  offset="1" style="stop-color:#A0B2C4"/>
				</linearGradient>
				<path class="st16" d="M216.5,267.4c-1-2-13.1-5.7-13.1-2c0,3.6,6.4,5.4,9.2,5.5C214.4,271,217.9,270.2,216.5,267.4z"/>
				<linearGradient id="SVGID_12_" gradientUnits="userSpaceOnUse" x1="258.8365" y1="211.5145" x2="258.0229" y2="279.0432">
					<stop  offset="0" style="stop-color:#C7D3E4"/>
					<stop  offset="1" style="stop-color:#A0B2C4"/>
				</linearGradient>
				<path class="st17" d="M256.5,227.2c1.3,3.4,5.5,4.2,5.7-0.3c0.1-2.7-2.1-7.9-5.4-6.4C254,221.7,255.7,225.3,256.5,227.2z"/>
				<linearGradient id="SVGID_13_" gradientUnits="userSpaceOnUse" x1="267.9272" y1="211.6256" x2="267.1136" y2="279.1509">
					<stop  offset="0" style="stop-color:#C7D3E4"/>
					<stop  offset="1" style="stop-color:#A0B2C4"/>
				</linearGradient>
				<path class="st18" d="M267.3,247.6c2,1.4,2.3-3.1,2.1-4.2c-0.2-1.5,0-5.5-2.2-5.7C264.5,237.4,266,246.7,267.3,247.6z"/>
				<linearGradient id="SVGID_14_" gradientUnits="userSpaceOnUse" x1="188.2597" y1="213.6655" x2="188.2597" y2="280.3903">
					<stop  offset="0" style="stop-color:#D8E0EB"/>
					<stop  offset="1" style="stop-color:#A0B2C4"/>
				</linearGradient>
				<path class="st19" d="M189.8,244.3c0.7-1.3,1.1-7.5-1.4-7.3C183.8,237.3,187.6,248.5,189.8,244.3z"/>
				<linearGradient id="SVGID_15_" gradientUnits="userSpaceOnUse" x1="227.5442" y1="213.6635" x2="227.5442" y2="280.3907">
					<stop  offset="0" style="stop-color:#D8E0EB"/>
					<stop  offset="1" style="stop-color:#A0B2C4"/>
				</linearGradient>
				<path class="st20" d="M232.4,262.7c0.6,1,0,2.2,0.4,3.2c0.9,2.4,3.7,3.9,4.7,6.3c1.4,3-4.1,6.2-6.4,6.8c-2.5,0.6-8.5,0.9-8.6-3
					c-0.1-3,2.2-5.3-0.3-8c-1.4-1.5-7.5-3.2-3.9-5.9c2-1.4,5.1-1.6,7.5-1.4C228.1,260.8,231.1,260.5,232.4,262.7z"/>
				<linearGradient id="SVGID_16_" gradientUnits="userSpaceOnUse" x1="197.6771" y1="213.6648" x2="197.6771" y2="280.3907">
					<stop  offset="0" style="stop-color:#D8E0EB"/>
					<stop  offset="1" style="stop-color:#A0B2C4"/>
				</linearGradient>
				<path class="st21" d="M200.4,267c0.2-1.8-1.9-5.4-3.7-5.8c-3.7-0.9-0.8,5.6,0.6,6.5C198.6,268.5,200.2,268.6,200.4,267z"/>
			</g>
			<linearGradient id="SVGID_17_" gradientUnits="userSpaceOnUse" x1="212.3225" y1="251.6393" x2="212.1191" y2="242.4858">
				<stop  offset="0" style="stop-color:#DCE8F1"/>
				<stop  offset="1" style="stop-color:#BECCDE"/>
			</linearGradient>
			<ellipse class="st22" cx="212.2" cy="247.1" rx="4.6" ry="4.9"/>
			<linearGradient id="SVGID_18_" gradientUnits="userSpaceOnUse" x1="241.4779" y1="232.6225" x2="241.328" y2="225.8763">
				<stop  offset="0" style="stop-color:#DCE8F1"/>
				<stop  offset="1" style="stop-color:#BECCDE"/>
			</linearGradient>
			<ellipse class="st23" cx="241.4" cy="229.3" rx="3.4" ry="3.6"/>
			<linearGradient id="SVGID_19_" gradientUnits="userSpaceOnUse" x1="201.6555" y1="244.4204" x2="201.5056" y2="237.6747">
				<stop  offset="0" style="stop-color:#DCE8F1"/>
				<stop  offset="1" style="stop-color:#BECCDE"/>
			</linearGradient>
			<ellipse class="st24" cx="201.6" cy="241.1" rx="3.4" ry="3.6"/>
			<linearGradient id="SVGID_20_" gradientUnits="userSpaceOnUse" x1="227.4531" y1="209.6133" x2="223.3851" y2="206.359">
				<stop  offset="0" style="stop-color:#EEF4F9"/>
				<stop  offset="1" style="stop-color:#D8E1EB"/>
			</linearGradient>
			<ellipse class="st25" cx="225.5" cy="208.1" rx="4.6" ry="2.1"/>
			<linearGradient id="SVGID_21_" gradientUnits="userSpaceOnUse" x1="241.434" y1="212.692" x2="238.9932" y2="208.4206">
				<stop  offset="0" style="stop-color:#EEF4F9"/>
				<stop  offset="1" style="stop-color:#D8E1EB"/>
			</linearGradient>
			<path class="st26" d="M244.8,211.2c-0.2,1.1-2.3,1.8-4.8,1.4c-2.5-0.3-4.4-1.6-4.3-2.7c0.2-1.1,2.3-1.8,4.8-1.4
				C243,208.9,244.9,210.1,244.8,211.2z"/>
			
				<linearGradient id="SVGID_22_" gradientUnits="userSpaceOnUse" x1="897.7821" y1="1619.5084" x2="894.5351" y2="1613.8262" gradientTransform="matrix(0.8733 -0.4871 0.4871 0.8733 -1361.3969 -761.039)">
				<stop  offset="0" style="stop-color:#EEF4F9"/>
				<stop  offset="1" style="stop-color:#D8E1EB"/>
			</linearGradient>
			<path class="st27" d="M214.4,212.1c0.6,1.4-1.5,3.6-4.7,4.8c-3.2,1.2-6.2,1.1-6.7-0.4c-0.6-1.4,1.5-3.6,4.7-4.8
				C210.9,210.5,213.9,210.7,214.4,212.1z"/>
			<linearGradient id="SVGID_23_" gradientUnits="userSpaceOnUse" x1="212.9086" y1="259.562" x2="212.7937" y2="254.3919">
				<stop  offset="0" style="stop-color:#DCE8F1"/>
				<stop  offset="1" style="stop-color:#BECCDE"/>
			</linearGradient>
			<circle class="st28" cx="212.9" cy="257" r="2.7"/>
			<linearGradient id="SVGID_24_" gradientUnits="userSpaceOnUse" x1="233.2163" y1="275.7316" x2="233.0427" y2="267.9188">
				<stop  offset="0" style="stop-color:#DCE8F1"/>
				<stop  offset="1" style="stop-color:#B0C0D6"/>
			</linearGradient>
			<ellipse class="st29" cx="233.1" cy="271.9" rx="5.9" ry="4.1"/>
			
				<linearGradient id="SVGID_25_" gradientUnits="userSpaceOnUse" x1="118.4429" y1="1532.2667" x2="118.3375" y2="1527.5262" gradientTransform="matrix(1.1585 -0.7758 0.2782 0.4155 -308.9311 -269.0187)">
				<stop  offset="0" style="stop-color:#DCE8F1"/>
				<stop  offset="1" style="stop-color:#BECCDE"/>
			</linearGradient>
			<path class="st30" d="M258,272.1c0.4,0.6-1.1,2.3-3.4,3.8c-2.3,1.5-4.4,2.3-4.8,1.7c-0.4-0.6,1.1-2.3,3.4-3.8
				C255.4,272.3,257.6,271.5,258,272.1z"/>
			
				<linearGradient id="SVGID_26_" gradientUnits="userSpaceOnUse" x1="-1060.9266" y1="-3196.3582" x2="-1061.032" y2="-3201.0994" gradientTransform="matrix(1.3035 0.4947 -0.1774 0.4675 1025.1677 2302.0078)">
				<stop  offset="0" style="stop-color:#DCE8F1"/>
				<stop  offset="1" style="stop-color:#BECCDE"/>
			</linearGradient>
			<path class="st31" d="M214.3,283.5c-0.2,0.6-2.5,0.4-5.1-0.6c-2.6-1-4.4-2.3-4.2-2.9c0.2-0.6,2.5-0.4,5.1,0.6
				C212.6,281.6,214.5,282.9,214.3,283.5z"/>
			<linearGradient id="SVGID_27_" gradientUnits="userSpaceOnUse" x1="251.057" y1="213.6662" x2="251.057" y2="280.3904">
				<stop  offset="0" style="stop-color:#D8E0EB"/>
				<stop  offset="1" style="stop-color:#A0B2C4"/>
			</linearGradient>
			<path class="st32" d="M259.2,243.1c-1.7-3.4-4.6-4.1-8.2-4.1c-2.5,0-5.5-0.8-7.5,1.1c-2.5,2.3,1.3,3.2,3.2,4.1
				c5.8,2.7,1.3,6.8,2.5,11.2c0.5,1.6,3.2,2.5,4.8,1.5c2-1.2,2.7-5.5,3.7-7.5C258.6,247.6,260.2,245.1,259.2,243.1z"/>
			<linearGradient id="SVGID_28_" gradientUnits="userSpaceOnUse" x1="203.5271" y1="213.6661" x2="203.5271" y2="280.3898">
				<stop  offset="0" style="stop-color:#D8E0EB"/>
				<stop  offset="1" style="stop-color:#A0B2C4"/>
			</linearGradient>
			<path class="st33" d="M206,230c1.6,0.3,5.8,1.7,5.5-1.3c-0.1-1.1-1.6-1.9-2.1-2.9c-0.5-1-0.6-2.2-0.5-3.3
				c0.1-1.9,1.7-5.8-1.4-6.1c-2.9-0.3-3.6,3.4-4.9,5.3c-1.5,2.2-3.8,1.8-5.6,3.5c-2.3,2.2-1.7,5.1,1.6,4.3c1.1-0.3,2.1-0.9,3.2-0.8
				C203.2,228.7,204.5,229.8,206,230z"/>
		</g>
	</g>
	<g>
		<g>
			<g>
				<path class="st34" d="M154.1,241.7c0,0-0.5,3.2-1.2,3.9c-0.8,0.8-4,1.3-4,1.3s3.2,0.5,3.9,1.3c0.7,0.8,1.2,3.9,1.2,3.9
					s0.5-3.1,1.2-3.9c0.8-0.8,3.9-1.3,3.9-1.3s-3.2-0.5-3.9-1.3C154.6,244.9,154.1,241.7,154.1,241.7z"/>
			</g>
		</g>
		<g>
			<g>
				<path class="st34" d="M256.7,290.5c0,0-0.7,4.6-1.7,5.7c-1.1,1.2-5.9,1.9-5.9,1.9s4.7,0.8,5.8,1.9c1.1,1.1,1.8,5.7,1.8,5.7
					s0.7-4.5,1.8-5.6c1.1-1.1,5.8-1.9,5.8-1.9s-4.7-0.8-5.8-1.9C257.5,295.1,256.7,290.5,256.7,290.5z"/>
			</g>
		</g>
		<g>
			<g>
				<path class="st34" d="M193.3,348.1c0,0-0.4,2.9-1.1,3.6c-0.7,0.8-3.7,1.2-3.7,1.2s2.9,0.5,3.6,1.2c0.7,0.7,1.1,3.6,1.1,3.6
					s0.4-2.9,1.1-3.5c0.7-0.7,3.6-1.2,3.6-1.2s-2.9-0.5-3.6-1.2C193.8,351,193.3,348.1,193.3,348.1z"/>
			</g>
		</g>
		<g>
			<g>
				<path class="st34" d="M294.9,246c0,0-0.3,2.1-0.8,2.6c-0.5,0.5-2.6,0.8-2.6,0.8s2.1,0.3,2.6,0.8c0.5,0.5,0.8,2.6,0.8,2.6
					s0.3-2,0.8-2.5c0.5-0.5,2.6-0.9,2.6-0.9s-2.1-0.3-2.6-0.9C295.2,248.1,294.9,246,294.9,246z"/>
			</g>
		</g>
		<polygon class="st34" points="285.7,283 284,282.5 282.7,283.7 282.6,282 281.1,281.1 282.7,280.4 283.1,278.7 284.2,280 
			286,279.9 285.1,281.4 		"/>
		<polygon class="st34" points="143.8,295.2 142.1,294.7 140.7,295.9 140.6,294.1 139.1,293.2 140.8,292.6 141.1,290.9 142.3,292.2 
			144,292.1 143.1,293.5 		"/>
		<polygon class="st34" points="142,231.8 140.3,231.4 139,232.5 138.8,230.8 137.3,229.9 139,229.3 139.4,227.5 140.5,228.9 
			142.2,228.7 141.3,230.2 		"/>
		<polygon class="st34" points="304.1,228.8 302.4,228.3 301.1,229.5 301,227.7 299.5,226.8 301.1,226.2 301.5,224.5 302.6,225.8 
			304.4,225.7 303.5,227.2 		"/>
		<polygon class="st34" points="153.8,267.1 153.1,266.9 152.6,267.4 152.5,266.6 151.9,266.3 152.6,266 152.7,265.3 153.2,265.8 
			153.9,265.8 153.6,266.4 		"/>
		<polygon class="st34" points="207.5,309.9 205.8,309.5 204.5,310.7 204.4,308.9 202.9,308 204.5,307.4 204.9,305.7 206,307 
			207.8,306.8 206.8,308.3 		"/>
		<polygon class="st34" points="266,277.2 265.3,277.1 264.7,277.5 264.7,276.8 264.1,276.4 264.8,276.2 264.9,275.4 265.4,276 
			266.1,276 265.7,276.6 		"/>
		<polygon class="st34" points="293.2,263.2 292.5,263 291.9,263.5 291.9,262.8 291.2,262.4 291.9,262.1 292.1,261.4 292.5,262 
			293.3,261.9 292.9,262.5 		"/>
		<polygon class="st34" points="207.8,354.8 207.1,354.6 206.5,355.1 206.5,354.3 205.9,354 206.5,353.7 206.7,353 207.2,353.5 
			207.9,353.5 207.5,354.1 		"/>
		<polygon class="st34" points="247,349.6 246.3,349.4 245.8,349.9 245.7,349.2 245.1,348.8 245.8,348.6 245.9,347.8 246.4,348.4 
			247.1,348.3 246.7,349 		"/>
		<polygon class="st34" points="314.3,308.4 313.6,308.2 313.1,308.7 313,307.9 312.4,307.6 313.1,307.3 313.3,306.6 313.7,307.1 
			314.5,307.1 314.1,307.7 		"/>
		<polygon class="st34" points="200.1,320.1 199.3,320 198.8,320.4 198.7,319.7 198.1,319.3 198.8,319.1 199,318.4 199.4,318.9 
			200.2,318.9 199.8,319.5 		"/>
		<polygon class="st34" points="169.1,344.2 167.4,343.7 166,344.9 165.9,343.1 164.4,342.2 166,341.6 166.4,339.9 167.6,341.2 
			169.3,341.1 168.4,342.6 		"/>
		<polygon class="st34" points="289.7,316.6 288.9,316.4 288.4,316.9 288.3,316.2 287.7,315.8 288.4,315.5 288.6,314.8 289,315.4 
			289.8,315.3 289.4,315.9 		"/>
		<polygon class="st34" points="292,335.1 291.2,335 290.7,335.4 290.6,334.7 290,334.3 290.7,334.1 290.9,333.3 291.3,333.9 
			292.1,333.8 291.7,334.5 		"/>
		<polygon class="st34" points="230.4,263.7 229.7,263.5 229.1,264 229.1,263.3 228.5,262.9 229.1,262.6 229.3,261.9 229.8,262.5 
			230.5,262.4 230.1,263 		"/>
		<polygon class="st34" points="201.9,276.7 200.2,276.3 198.9,277.4 198.8,275.7 197.3,274.8 198.9,274.1 199.3,272.4 200.4,273.8 
			202.1,273.6 201.2,275.1 		"/>
		<polygon class="st34" points="231.8,275.7 231.1,275.5 230.6,276 230.5,275.3 229.9,274.9 230.6,274.6 230.7,273.9 231.2,274.5 
			232,274.4 231.6,275.1 		"/>
		<polygon class="st34" points="252.8,191.2 252.1,191 251.5,191.5 251.5,190.8 250.9,190.4 251.5,190.1 251.7,189.4 252.2,190 
			252.9,189.9 252.5,190.5 		"/>
		<g>
			<radialGradient id="SVGID_29_" cx="225.7947" cy="225.7547" r="163.9468" gradientUnits="userSpaceOnUse">
				<stop  offset="0" style="stop-color:#9EB4CB"/>
				<stop  offset="6.018852e-002" style="stop-color:#9BB0C9"/>
				<stop  offset="0.1276" style="stop-color:#91A5C4"/>
				<stop  offset="0.1986" style="stop-color:#8393BC"/>
				<stop  offset="0.272" style="stop-color:#717DB1"/>
				<stop  offset="0.3473" style="stop-color:#5964A5"/>
				<stop  offset="0.4231" style="stop-color:#3E4797"/>
				<stop  offset="0.4634" style="stop-color:#2E368F"/>
				<stop  offset="0.5676" style="stop-color:#2D3283"/>
				<stop  offset="0.7719" style="stop-color:#292967"/>
				<stop  offset="1" style="stop-color:#1D1A45"/>
			</radialGradient>
			<path class="st35" d="M281.7,300.2c0.4-0.9,0.7-1.8,0.9-2.8c1.1-7.6-7.5-15.1-19.2-16.8c-0.5-0.1-1-0.1-1.5-0.2
				c0.3-6.1-4.4-13.5-12.3-18.4c-6.5-4-13.6-5.3-18.9-3.9c-5.6-4.5-14.2-6.7-23.2-5.3c-14.7,2.3-25.1,13.3-23.4,24.5
				c0,0.1,0,0.2,0.1,0.3c-1.5-0.6-3-0.9-4.7-0.9c-7,0-12.6,5.5-12.6,12.3c0,0,0,0,0,0.1c-10.5,1-18.7,9.3-18.7,19.4
				c0,10.8,9.3,19.5,20.8,19.5c4.2,0,8-1.2,11.3-3.1c1.6,3.6,5,6.3,9.2,7.1c4.7,0.8,9.2-1.1,12-4.6c4.8,6.7,14.3,10.5,24.5,8.9
				c9.1-1.4,16.4-6.9,19.6-13.7c1.8,2.5,4.6,4.3,7.9,4.9c4.3,0.8,8.5-0.8,11.3-3.7c2.9,1.6,6.4,2.8,10.2,3.3
				c11.7,1.7,22.1-3.1,23.2-10.7C299,309.5,291.9,302.6,281.7,300.2z"/>
			<path class="st36" d="M189.2,279.4c0.1,0.8,0.3,1.5,0.6,2.3c-1.1-1.7-1.9-3.6-2.2-5.6c-1.5-9.8,7.6-19.3,20.4-21.4
				c11.8-1.9,16.7,1.1,21.6,7.8c-6.3-3.9-9.8-6-20-4.4C196.8,260,187.6,269.6,189.2,279.4z M248.8,263.7c-8.9-5.4-18.9-5.2-22.4,0.6
				c-0.8,1.3-1.2,2.9-1.2,4.5c0.2-1,0.5-1.9,1-2.8c3.3-5.4,12.8-5.7,21.2-0.5c8.4,5.1,12.4,13.7,9.1,19.1c-1.1,1.8-3,3-5.2,3.7
				c3.2-0.5,5.8-1.9,7.3-4.3C262,278.2,257.6,269.2,248.8,263.7z M264.6,283.1c-2.1-0.3-4.2-0.3-6.2-0.2c0.7,0.1,1.4,0.1,2,0.2
				c11.3,1.6,19.6,8.9,18.5,16.2c-0.1,0.6-0.3,1.2-0.5,1.8c1-1.2,1.7-2.6,2-4.1C281.4,290.7,274.3,284.5,264.6,283.1z M170.6,323.6
				c1.3,0,2.6-0.2,3.8-0.4c-2.1,0.8-4.3,1.3-6.7,1.3c-9.4,0-17.1-7.2-17.1-16c0-8.8,7.6-16,17.1-16c1,0,1.9,0.1,2.9,0.2
				c-8.9,0-16.1,6.9-16.1,15.5C154.4,316.7,161.6,323.6,170.6,323.6z M190.4,328.4c-5.3-0.9-8.9-7-8.8-12.1
				c-0.3,0.7-0.5,1.4-0.6,2.1c-1,5.8,2.9,11.3,8.7,12.3c5.8,1,11.4-2.8,12.4-8.6c0.1-0.5,0.1-1.1,0.1-1.6
				C200.3,325.1,195.5,329.3,190.4,328.4z M244.1,313.3c-0.2-1.3-0.6-2.5-1.1-3.7c0.1,0.2,0.1,0.5,0.2,0.7c1.5,9.7-6.5,19.1-18,20.9
				c-11.5,1.8-22-4.6-23.5-14.3c0-0.3-0.1-0.6-0.1-0.8c-0.1,1.3-0.1,2.6,0.1,3.9c1.5,9.7,12.3,16.1,24,14.3
				C237.4,332.4,245.7,323,244.1,313.3z M253.9,325.1c-3.3-0.6-6.1-2.4-7.9-4.9c1.6,3.1,4.5,5.4,8.2,6c5.1,0.9,9.9-1.7,12.2-6
				C263.5,323.9,258.8,326,253.9,325.1z M181.7,279.3c1.3,0,2.5,0.2,3.7,0.6c-1.8-1.3-3.9-2-6.3-2c-5.9,0-10.7,4.7-10.7,10.4
				c0,0.6,0.1,1.1,0.2,1.6C169.7,283.8,175.1,279.3,181.7,279.3z M280.5,301.9c8.2,2.9,13.5,8,12.7,13.1c-1,6.7-12.5,10.7-25.5,8.9
				c0,0,0,0,0,0c2,0.7,4.1,1.2,6.4,1.5c11.1,1.5,21-2.7,22.1-9.3C297.1,310,290.3,304,280.5,301.9z M203.8,316.2
				c-0.6-4.1,0.6-8.1,3.1-11.6c-4.5,3.8-6.9,9.1-6.1,14.6c1.4,9.1,11.5,15.1,22.4,13.4c3.6-0.6,6.9-1.9,9.6-3.8
				c-1.5,0.5-3.1,0.9-4.7,1.2C216.1,331.9,205.3,325.7,203.8,316.2z"/>
		</g>
		<g>
			<radialGradient id="SVGID_30_" cx="282.2837" cy="245.7411" r="68.5825" gradientUnits="userSpaceOnUse">
				<stop  offset="0" style="stop-color:#9EB4CB"/>
				<stop  offset="6.018852e-002" style="stop-color:#9BB0C9"/>
				<stop  offset="0.1276" style="stop-color:#91A5C4"/>
				<stop  offset="0.1986" style="stop-color:#8393BC"/>
				<stop  offset="0.272" style="stop-color:#717DB1"/>
				<stop  offset="0.3473" style="stop-color:#5964A5"/>
				<stop  offset="0.4231" style="stop-color:#3E4797"/>
				<stop  offset="0.4634" style="stop-color:#2E368F"/>
				<stop  offset="0.5676" style="stop-color:#2D3283"/>
				<stop  offset="0.7719" style="stop-color:#292967"/>
				<stop  offset="1" style="stop-color:#1D1A45"/>
			</radialGradient>
			<path class="st37" d="M305.7,276.9c0.2-0.4,0.3-0.8,0.4-1.2c0.5-3.2-3.1-6.3-8-7c-0.2,0-0.4,0-0.6-0.1c0.1-2.6-1.9-5.7-5.2-7.7
				c-2.7-1.7-5.7-2.2-7.9-1.6c-2.4-1.9-5.9-2.8-9.7-2.2c-6.1,1-10.5,5.6-9.8,10.2c0,0,0,0.1,0,0.1c-0.6-0.2-1.3-0.4-2-0.4
				c-2.9,0-5.3,2.3-5.3,5.2c0,0,0,0,0,0c-4.4,0.4-7.8,3.9-7.8,8.1c0,4.5,3.9,8.2,8.7,8.2c1.7,0,3.4-0.5,4.7-1.3
				c0.7,1.5,2.1,2.7,3.8,3c2,0.3,3.9-0.5,5-1.9c2,2.8,6,4.4,10.2,3.7c3.8-0.6,6.9-2.9,8.2-5.7c0.8,1,1.9,1.8,3.3,2.1
				c1.8,0.3,3.6-0.3,4.7-1.6c1.2,0.7,2.7,1.2,4.3,1.4c4.9,0.7,9.2-1.3,9.7-4.5C312.9,280.8,309.9,277.9,305.7,276.9z"/>
			<path class="st36" d="M267,268.2c0,0.3,0.1,0.6,0.2,0.9c-0.5-0.7-0.8-1.5-0.9-2.3c-0.6-4.1,3.2-8.1,8.5-8.9c4.9-0.8,7,0.5,9,3.3
				c-2.6-1.6-4.1-2.5-8.4-1.8C270.1,260.1,266.3,264.1,267,268.2z M291.9,261.6c-3.7-2.3-7.9-2.2-9.4,0.2c-0.3,0.6-0.5,1.2-0.5,1.9
				c0.1-0.4,0.2-0.8,0.4-1.2c1.4-2.3,5.4-2.4,8.9-0.2c3.5,2.2,5.2,5.7,3.8,8c-0.5,0.8-1.2,1.3-2.2,1.5c1.3-0.2,2.4-0.8,3.1-1.8
				C297.4,267.7,295.6,263.9,291.9,261.6z M298.5,269.7c-0.9-0.1-1.8-0.1-2.6-0.1c0.3,0,0.6,0.1,0.9,0.1c4.7,0.7,8.2,3.7,7.7,6.8
				c0,0.3-0.1,0.5-0.2,0.7c0.4-0.5,0.7-1.1,0.8-1.7C305.5,272.9,302.6,270.3,298.5,269.7z M259.2,286.7c0.6,0,1.1-0.1,1.6-0.2
				c-0.9,0.3-1.8,0.5-2.8,0.5c-3.9,0-7.1-3-7.1-6.7c0-3.7,3.2-6.7,7.1-6.7c0.4,0,0.8,0,1.2,0.1c-3.7,0-6.7,2.9-6.7,6.5
				C252.4,283.8,255.4,286.7,259.2,286.7z M267.5,288.7c-2.2-0.4-3.7-2.9-3.7-5.1c-0.1,0.3-0.2,0.6-0.3,0.9
				c-0.4,2.4,1.2,4.7,3.6,5.2c2.4,0.4,4.8-1.2,5.2-3.6c0-0.2,0-0.5,0.1-0.7C271.6,287.3,269.6,289.1,267.5,288.7z M290,282.4
				c-0.1-0.5-0.2-1.1-0.5-1.5c0,0.1,0.1,0.2,0.1,0.3c0.6,4.1-2.7,8-7.5,8.7c-4.8,0.8-9.2-1.9-9.8-6c0-0.1,0-0.2,0-0.3
				c-0.1,0.5-0.1,1.1,0,1.6c0.6,4.1,5.1,6.7,10,6C287.1,290.4,290.6,286.4,290,282.4z M294,287.3c-1.4-0.2-2.5-1-3.3-2
				c0.7,1.3,1.9,2.3,3.4,2.5c2.1,0.4,4.2-0.7,5.1-2.5C298,286.8,296.1,287.7,294,287.3z M263.8,268.1c0.5,0,1,0.1,1.5,0.2
				c-0.7-0.5-1.6-0.9-2.6-0.9c-2.5,0-4.5,2-4.5,4.4c0,0.2,0,0.5,0.1,0.7C258.8,270,261.1,268.1,263.8,268.1z M305.2,277.6
				c3.4,1.2,5.7,3.4,5.3,5.5c-0.4,2.8-5.2,4.5-10.7,3.7c0,0,0,0,0,0c0.8,0.3,1.7,0.5,2.7,0.6c4.7,0.6,8.8-1.1,9.2-3.9
				C312.1,281,309.2,278.5,305.2,277.6z M273.1,283.6c-0.3-1.7,0.2-3.4,1.3-4.8c-1.9,1.6-2.9,3.8-2.5,6.1c0.6,3.8,4.8,6.3,9.4,5.6
				c1.5-0.2,2.9-0.8,4-1.6c-0.6,0.2-1.3,0.4-2,0.5C278.2,290.1,273.7,287.6,273.1,283.6z"/>
		</g>
	</g>
</g>
<g>
	<g>
		<linearGradient id="SVGID_31_" gradientUnits="userSpaceOnUse" x1="758.8488" y1="141.1514" x2="959.0264" y2="141.1514">
			<stop  offset="0" style="stop-color:#FFFFFF;stop-opacity:0"/>
			<stop  offset="4.017906e-002" style="stop-color:#FDEBEE;stop-opacity:4.051906e-002"/>
			<stop  offset="0.1257" style="stop-color:#FAC6CE;stop-opacity:0.1267"/>
			<stop  offset="0.2187" style="stop-color:#F7A7B2;stop-opacity:0.2205"/>
			<stop  offset="0.3192" style="stop-color:#F58D9C;stop-opacity:0.3219"/>
			<stop  offset="0.4302" style="stop-color:#F3798A;stop-opacity:0.4338"/>
			<stop  offset="0.5573" style="stop-color:#F26C7E;stop-opacity:0.562"/>
			<stop  offset="0.7143" style="stop-color:#F16377;stop-opacity:0.7204"/>
			<stop  offset="0.9916" style="stop-color:#F16175"/>
		</linearGradient>
		<rect x="758.8" y="128.8" class="st38" width="200.2" height="24.7"/>
		<g>
			<g>
				<path class="st6" d="M899.1,145.7c-4.3,0-5.9-2-5.9-5.1c0-2.9,1.8-5.5,5.8-5.5c2.6,0,4.6,0.8,4.6,0.8v7.6h2.2v2.3H899.1z
					 M895.4,132.2c0-0.8,0.6-1.5,1.5-1.5c0.8,0,1.5,0.7,1.5,1.5c0,0.8-0.6,1.5-1.5,1.5C896.1,133.7,895.4,133,895.4,132.2z
					 M900.8,137.8c0,0-0.8-0.4-2.1-0.4c-1.7,0-2.6,1.3-2.6,3c0,2,1,3.1,3.3,3.1h1.4V137.8z M899.1,132.2c0-0.8,0.6-1.5,1.5-1.5
					c0.8,0,1.5,0.7,1.5,1.5c0,0.8-0.6,1.5-1.5,1.5C899.7,133.7,899.1,133,899.1,132.2z"/>
				<path class="st6" d="M905.4,143.4h4.1v-8.1h2.9v10.3h-7V143.4z M907.3,150.5c-0.8,0-1.5-0.7-1.5-1.5c0-0.8,0.6-1.5,1.5-1.5
					c0.8,0,1.5,0.7,1.5,1.5C908.8,149.8,908.1,150.5,907.3,150.5z M911,150.5c-0.8,0-1.5-0.7-1.5-1.5c0-0.8,0.6-1.5,1.5-1.5
					c0.8,0,1.5,0.7,1.5,1.5C912.4,149.8,911.8,150.5,911,150.5z"/>
				<path class="st6" d="M912.6,151.1l0.2-2.3c0.5,0.2,1.1,0.3,1.8,0.3c1.5,0,2.4-0.7,2.4-3.1v-10.6h2.9v8.1h2.2v2.3h-2.2v0.1
					c0,2.8-0.9,5.5-5.4,5.5C913.7,151.3,913.1,151.2,912.6,151.1z"/>
				<path class="st6" d="M921.7,145.7v-2.3h1.9c0.6,0,1,0.1,1,0.1s-0.6-0.6-0.6-1.5c0-2.1,1.5-3.7,4.2-3.7c2.9,0,4,2,4,4.5v0.6h2.3
					v-0.3c0-4.6-1.8-6.8-6.2-6.8c-1.5,0-3.3,0.4-4.7,0.8l-0.3-2c1.6-0.5,3.6-0.9,5.3-0.9c5.5,0,8.6,2.6,8.6,9.1v0.1h1.6v2.3H921.7z
					 M929.8,142.8c0-1.6-0.6-2.7-1.9-2.7c-1,0-1.6,0.7-1.6,1.6c0,1.1,0.9,1.8,2.1,1.8h1.4V142.8z"/>
				<path class="st6" d="M938.6,143.4h8.5c0.1-0.5,0.1-1.1,0.1-1.7c0-2.8-1.1-4.2-4.3-4.2c-0.9,0-1.7,0.1-2.5,0.2v-2.3
					c0.9-0.1,1.9-0.2,2.8-0.2c5,0,6.9,2.2,6.9,6.4c0,1.1-0.1,2.5-0.4,4.1h-11.1V143.4z M942.3,149c0-0.8,0.7-1.5,1.5-1.5
					s1.5,0.7,1.5,1.5c0,0.8-0.7,1.5-1.5,1.5S942.3,149.9,942.3,149z"/>
			</g>
		</g>
		<g>
			<path class="st1" d="M728.8,133.2c0.1,0.4,0.2,0.8,0.2,1.1c0,0.9-0.6,1.7-1.9,2.2l-4.9,1.9c-1.5,0.6-2.8,1.1-2.8,2
				c0,0.1,0,0.1,0,0.2l-0.2,0.1c-0.1-0.4-0.2-0.8-0.2-1.1c0-0.9,0.5-1.7,1.9-2.3l4.9-1.9c1.7-0.7,2.8-1.1,2.8-2.2L728.8,133.2z"/>
			<path class="st1" d="M735,123.5v3.3h-12.2c-4.1,0-5.6-2-5.8-5h0.4c0.4,1.4,1.1,1.7,5.9,1.8h0.4c-1.9-1.7-2.8-3.9-2.8-6.4l0.1-1
				c0-1.6,1.3-2.9,3-2.9h10.5v3.1h-10.4v0.9c0,3.5,2.7,5.9,6.5,6.3H735z"/>
			<path class="st1" d="M743.8,116.5c0,4.1,3,7.1,6.7,7.1h1.4v3.3h-1.4c-5.5,0-10-5.2-10-10.3V95.3c0-4.2,2.1-5.8,5.4-5.9v0.5
				c-1.7,0.2-2.1,2.8-2.1,5.6c0,0.6,0,1.2,0,1.9v18V116.5z"/>
			<path class="st1" d="M789.2,117.6c0,3.3,2.5,5.9,6,5.9v3.3c-3.3,0-6-1.5-7.7-4.1c-1.5,2.4-4.4,4.1-7.5,4.1
				c-3.2,0-6.2-1.8-7.8-4.3c-1.7,2.6-4.2,4.3-7.9,4.3c-2.4,0-4.4-0.8-6.2-2.2c-1,1.7-2.2,2.1-3,2.2h-3.5v-3.3h2.4
				c0.5,0,0.9-0.4,1.1-1.1v-17.3h3.3v12c0,3.6,2.8,6.4,6,6.4c3.3,0,5.8-2.4,5.9-5.9v-12.6h3.3v11.6c0,3.7,2.7,6.8,6,6.8
				c3.2,0,6.2-2.2,6.2-5.9v-7.4c0-4.9,2.6-5.8,5.1-5.9v0.6c-1.8,0.3-1.8,3.6-1.8,7V117.6z M769.1,100.2l-2.8-2.8l2.8-2.9l2.9,2.9
				L769.1,100.2z M771.9,96.6l-2.8-2.8l2.8-2.9l2.8,2.9L771.9,96.6z M774.8,100.2l-2.8-2.8l2.8-2.9l2.8,2.9L774.8,100.2z"/>
			<path class="st1" d="M811,133.7c0.1,0.4,0.2,0.8,0.2,1.1c0,0.9-0.6,1.7-1.9,2.2l-4.9,1.9c-1.5,0.6-2.8,1.1-2.8,2
				c0,0.1,0,0.1,0,0.2l-0.2,0.1c-0.1-0.4-0.2-0.8-0.2-1.1c0-0.9,0.5-1.7,1.9-2.3l4.9-1.9c1.7-0.7,2.8-1.1,2.8-2.2L811,133.7z"/>
			<path class="st1" d="M824.8,126.8h-29.6v-3.3h4.6c-1.7-1.7-2.5-4.1-2.5-6.3c0-5.1,4.5-9.6,9.7-9.6h6.9c3.4,0,6.8,0,7-2.2h0.5
				c0,3.4-1.9,5.4-5.8,5.4h-8.2c-4.2,0-7.1,2.7-7.1,6.4s2.8,6.2,6.7,6.3h17.9V126.8z"/>
			<path class="st1" d="M834.7,81.1c0.3-0.2,0.7-0.3,1.1-0.3V81c-0.7,0.1-0.7,1.2-0.7,2.4v2c0,1.7-1.4,3.1-3.1,3.1
				c-1.9,0-3.4-1.1-3.4-2.8v-1.2c0-1.8,1.6-3.4,3.4-3.4H834.7z M832.1,82.2c-1.4,0-2.5,1-2.5,2.3v1.2c0,0.9,1,1.7,2.3,1.7
				c1,0,2.1-0.9,2.1-2.1v-2.5c0-0.2,0-0.5,0.1-0.6H832.1z"/>
			<path class="st1" d="M828.4,88.7c3.1,0.1,5.3,1.7,5.3,6v21.6c0,4-2.5,7.9-6,9.6c-1.2,0.6-2.2,0.9-3,0.9v-3.3
				c2.4-0.2,5.8-2.8,5.8-7.3v-20c0-3.5,0-7-2.1-7.2V88.7z"/>
			<path class="st1" d="M841.2,96.8c0-5.7-0.2-7.3-2-7.5v-0.4c3.5,0.1,5.2,2.2,5.2,6.2v31.8h-3.3V96.8z"/>
			<path class="st1" d="M868.2,81.2c-1.3,2.3-3.3,3.5-5.2,3.5c-1.4,0-2.8-0.7-3.7-1.8l0.1-0.1c0.7,0.9,1.8,1.4,3,1.4
				c1.7,0,3.6-1,4.9-3.4l0.3-0.6c-0.2,0-0.4,0.1-0.6,0.1c-1.8,0-3.1-1.7-3.1-3.1c0-0.4,0.1-0.8,0.3-1.1l0.6-1c0.6-1,1.7-1.6,2.8-1.6
				c0.5,0,1,0.1,1.5,0.4l-0.4,0.9c-0.4-0.2-0.8-0.3-1.2-0.3c-0.8,0-1.5,0.4-1.9,1.1l-0.5,1c-0.1,0.2-0.2,0.4-0.2,0.6
				c0,0.8,0.8,2,2.1,2c0.5,0,0.9-0.2,1.3-0.5l1.7-3.1l-1.4-0.8l0.4-0.9l2.2,1.2c0.3,0,0.7,0.1,1,0.3l-0.1,0.1c-0.1,0-0.2,0-0.2,0
				c-0.5,0-0.9,0.9-1.4,1.7l-0.9,1.6L868.2,81.2z"/>
			<path class="st1" d="M877.7,104.6c0.8-0.5,1.9-0.7,3.1-0.8v0.5c-2.1,0.3-2.1,3.7-2.1,7.2v6c0,5.2-4.3,9.3-9.4,9.3
				c-5.4,0-10.2-3.6-10.2-8.3v-3.6c0-5.5,4.8-10.3,10.3-10.3H877.7z M870,107.8c-4.3,0-7.4,3.2-7.4,7v3.6c0,2.6,2.9,5.1,6.8,5.1
				c3.3,0,6.2-2.8,6.2-6.1v-7.6c0-0.9,0-1.4,0.3-2H870z M865.6,100.3l-2.9-2.9l2.9-2.8l2.9,2.8L865.6,100.3z M871.4,100.3l-2.9-2.9
				l2.9-2.8l2.9,2.8L871.4,100.3z"/>
			<path class="st1" d="M916.5,126.8c-3.4,0-6.6-1.6-8.3-4.5c-1,2-4.5,4.5-8,4.5h-17.1v-3.3h10.9v-13.1c0-3.7-0.2-7.2-2.2-7.5v-0.5
				c3.4,0.2,5.5,1.8,5.5,6.2v14.9h2.9c3.8,0,6.8-3.3,6.8-7.7V95.2c0-3.8-0.1-7.1-2.1-7.4v-0.5c3.3,0.1,5.4,1.8,5.4,6.1v24.7
				c0.3,3.3,2.8,5.2,6.2,5.5V126.8z"/>
			<path class="st1" d="M949.9,92.9c0.1,0.4,0.2,0.8,0.2,1.1c0,0.9-0.6,1.7-1.9,2.2l-4.9,1.9c-1.5,0.6-2.8,1.1-2.8,2
				c0,0.1,0,0.1,0,0.2l-0.2,0.1c-0.1-0.4-0.2-0.8-0.2-1.1c0-0.9,0.5-1.7,1.9-2.3l4.9-1.9c1.7-0.7,2.8-1.1,2.8-2.2L949.9,92.9z"/>
			<path class="st1" d="M959,126.8h-42.6v-3.3h2.8c0.6-0.3,0.9-1.1,0.9-2.5c0-3.4-0.8-6.6-3.2-8.8l0.4-0.3c2.2,2.1,3.7,4.7,4.4,7.3
				c0.7-8.2,8.8-14.5,19.3-14.5h6.9c6.1,0.5,11.2,6.1,11.1,12.4V126.8z M955.8,123.5V117c0-3.8-1.7-6.5-5.1-8.1
				c-1.4-0.6-3.3-0.9-6.2-0.9h-3.4c-11.1,0-18.8,6.2-18.8,14.5v1H955.8z"/>
		</g>
	</g>
</g>
</svg>
