<?xml version="1.0" encoding="utf-8"?>
<!-- Generator: Adobe Illustrator 19.2.0, SVG Export Plug-In . SVG Version: 6.00 Build 0)  -->
<svg version="1.1" id="Layer_1" xmlns="http://www.w3.org/2000/svg" xmlns:xlink="http://www.w3.org/1999/xlink" x="0px" y="0px"
	 viewBox="0 0 1024 768" style="enable-background:new 0 0 1024 768;" xml:space="preserve">
<style type="text/css">
	.st0{fill:url(#SVGID_1_);}
	.st1{fill:#622872;}
	.st2{fill:url(#SVGID_2_);}
	.st3{fill:#CA4977;}
	.st4{fill-rule:evenodd;clip-rule:evenodd;fill:#F6DFB4;}
	.st5{fill:#D2D3D4;}
	.st6{fill:#FFFFFF;}
	.st7{fill:#205B6A;}
	.st8{fill:url(#SVGID_3_);}
	.st9{fill:url(#SVGID_4_);}
	.st10{fill:url(#SVGID_5_);}
	.st11{fill:url(#SVGID_6_);}
	.st12{fill:url(#SVGID_7_);}
	.st13{fill:url(#SVGID_8_);}
	.st14{fill:url(#SVGID_9_);}
	.st15{fill:url(#SVGID_10_);}
	.st16{fill:url(#SVGID_11_);}
	.st17{fill:url(#SVGID_12_);}
	.st18{fill:url(#SVGID_13_);}
	.st19{fill:url(#SVGID_14_);}
	.st20{fill:url(#SVGID_15_);}
	.st21{fill:url(#SVGID_16_);}
	.st22{fill:url(#SVGID_17_);}
	.st23{fill:url(#SVGID_18_);}
	.st24{fill:url(#SVGID_19_);}
	.st25{fill:url(#SVGID_20_);}
	.st26{fill:url(#SVGID_21_);}
	.st27{fill:url(#SVGID_22_);}
	.st28{fill:url(#SVGID_23_);}
	.st29{fill:url(#SVGID_24_);}
	.st30{fill:url(#SVGID_25_);}
	.st31{fill:url(#SVGID_26_);}
	.st32{fill:url(#SVGID_27_);}
	.st33{fill:url(#SVGID_28_);}
	.st34{fill:#2B3C90;}
	.st35{fill:url(#SVGID_29_);}
	.st36{fill:#1D1A45;}
	.st37{fill:url(#SVGID_30_);}
	.st38{fill:url(#SVGID_31_);}
</style>
<g>
	<g>
		<g>
			<g>
				<linearGradient id="SVGID_1_" gradientUnits="userSpaceOnUse" x1="244.6953" y1="138.1426" x2="244.6953" y2="721.1336">
					<stop  offset="0" style="stop-color:#1F1A46"/>
					<stop  offset="0.1599" style="stop-color:#211E4C"/>
					<stop  offset="0.4318" style="stop-color:#26265D"/>
					<stop  offset="0.7806" style="stop-color:#2B337A"/>
					<stop  offset="0.9949" style="stop-color:#2B3C90"/>
				</linearGradient>
				<path class="st0" d="M394.9,266.9h-6.1c-1.8-28.2-25.9-59.6-71.7-93.4c-35-25.9-70.5-43.7-70.9-43.9c-1-0.5-2.2-0.5-3.1,0
					c-0.3,0.2-35.9,18-70.9,43.9c-45.7,33.8-69.8,65.2-71.7,93.4h-6.1c-1.9,0-3.5,1.6-3.5,3.5v360.2h307.5V270.4
					C398.4,268.5,396.9,266.9,394.9,266.9z"/>
			</g>
		</g>
	</g>
</g>
<g>
	<path class="st1" d="M492.9,213.5c0-0.8,0.7-1.5,1.5-1.5c0.8,0,1.5,0.7,1.5,1.5c0,0.8-0.7,1.5-1.5,1.5
		C493.6,215,492.9,214.4,492.9,213.5z M492.9,221c0-0.8,0.7-1.5,1.5-1.5c0.8,0,1.5,0.7,1.5,1.5c0,0.8-0.7,1.5-1.5,1.5
		C493.6,222.5,492.9,221.8,492.9,221z"/>
	<path class="st1" d="M512.4,221c0,0.4-0.2,1.2-1.4,1.2c-1,0-1.6-0.3-2-0.6c-0.7,2.2-3.3,4.2-7.2,4.9l-1-1.4l0.1-0.2
		c4.7-0.9,6.4-2.8,6.8-4.6c-0.4-1.1-1.1-2.6-1.8-4l1.4-1.5h0.2c0.6,1.7,1.2,3.1,1.4,3.7c0.6,1.6,1,1.9,2.5,1.9
		C512.2,220.4,512.4,220.6,512.4,221z"/>
	<path class="st1" d="M520,221c0,0.4-0.2,1.2-1.4,1.2c-1,0-2.4-0.3-3.5-1.2c-0.8,0.8-1.9,1.2-3.6,1.2H511l0.5-1.9h0.5
		c0.9,0,1.6-0.1,2-0.5c0.4-0.5,0.7-1.6,1.2-3.6l1.8-0.5l0.2,0.1c-0.3,1.5-0.7,2.7-1.2,3.7c0.5,0.3,1.4,0.7,3,0.7
		C519.8,220.4,520,220.6,520,221z M514.9,224.1l2,1.3l-1.2,1.8l-2-1.4L514.9,224.1z"/>
	<path class="st1" d="M528,209.1l-6.2,3.5c4.7,3.1,5.5,4.8,5.5,6.2c0,1.9-1.7,3.4-6.5,3.4h-2.3l0.5-1.9h1.8c2.5,0,4.5-0.5,5-1
		c0-1.9-2.5-3.6-5.6-5.7l-0.1-0.1l0.5-2.4l7.9-4.5l0.2,0.1L528,209.1z"/>
	<path class="st1" d="M535.9,204c-1.2,0.1-2.7,0.3-4.6,0.3l-0.1-1.3c0.3,0,0.7,0,1.1,0c-0.3-0.4-0.4-0.9-0.4-1.4
		c0-1.2,0.7-1.9,2-1.9c0.5,0,1.1,0.1,1.7,0.3l-0.3,1.2c-0.5-0.1-0.8-0.2-1.1-0.2c-0.6,0-0.9,0.4-0.9,0.9c0,0.4,0.2,0.7,0.5,1
		c0.8,0,1.5-0.1,2.2-0.2L535.9,204z M534.5,205.8l0.1,0.1l0,16.1l-1.7,0.4l-0.1-0.1v-16L534.5,205.8z"/>
	<path class="st1" d="M545,220.2c0,3.1-2.3,6.1-7.3,6.2l-1-1.4l0.1-0.2c3.4-0.1,5.7-1.3,6.5-3.3c-0.7,0.1-1.4,0.3-2.3,0.3
		c-2.1,0-3.1-1.1-3.1-2.8c0-2.2,1.6-4.6,3.5-4.6C543.6,214.5,545,217.3,545,220.2z M541.3,220c0.8,0,1.5-0.1,2.2-0.2
		c-0.1-1.7-1.1-3.5-2.2-3.5c-0.9,0-1.9,1.2-1.9,2.5C539.4,219.7,540.1,220,541.3,220z"/>
	<path class="st1" d="M553.3,222c0-1,0.2-2,0.4-2.7l1.5-0.5l0.2,0.1c-0.2,0.9-0.3,1.6-0.3,2.2c0,2.2,1.2,3.8,5.1,3.8
		c3.7,0,6.6-1,7-2.2c0-0.8-1.1-1.3-3.9-2l0.6-1.8c2.4,0.6,4.5,1.5,6.5,1.5c0.8,0,1,0.3,1,0.7c0,0.4-0.2,1.2-1.5,1.2H569
		c-0.4,2.9-4,4.5-9.2,4.5C555.4,226.7,553.3,224.7,553.3,222z"/>
	<path class="st1" d="M578.9,221c0,0.4-0.2,1.2-1.4,1.2c-1,0-2.4-0.3-3.5-1.2c-0.8,0.8-1.9,1.2-3.6,1.2h-0.5l0.5-1.9h0.5
		c0.9,0,1.6-0.1,2-0.5c0.4-0.5,0.7-1.6,1.2-3.6l1.8-0.5l0.2,0.1c-0.3,1.5-0.7,2.7-1.2,3.7c0.5,0.3,1.4,0.7,3,0.7
		C578.8,220.4,578.9,220.6,578.9,221z M575.3,213.1l-2-1.4l1.2-1.8l2,1.3L575.3,213.1z"/>
	<path class="st1" d="M591.7,221c0,0.7-0.6,1.2-1.5,1.2c-1,0-1.8-0.2-2.4-0.8c-0.4,0.7-0.9,1.1-1.9,1.1c-1.4,0-3.2-0.7-4.8-1.8
		c-1,1.3-1.7,1.5-3.6,1.5l0.5-1.9c1,0,1.3-0.3,2.1-1.5c0.9-1.5,2-4.4,4.3-4.4c1.8,0,2.6,1.8,3.5,3.7c0.9,1.8,1.3,2.1,2.8,2.1
		C591.4,220.4,591.7,220.6,591.7,221z M586.8,220.1c-0.1-0.1-0.1-0.3-0.2-0.4c-1-2.4-1.6-3.3-2.2-3.3c-0.9,0-1.7,1.5-2.4,2.9
		c1.2,0.8,2.7,1.4,3.5,1.4C586.1,220.7,586.5,220.5,586.8,220.1z"/>
	<path class="st1" d="M599.8,221c0,0.4-0.2,1.2-1.4,1.2c-1.5,0-2.9-0.3-3.9-1.2c-0.8,0.8-1.8,1.2-3.3,1.2h-0.8l0.5-1.9h0.7
		c0.7,0,1.4-0.1,1.8-0.5c0.3-0.5,0.7-1.6,1.2-3.6l1.8-0.5l0.2,0.1c-0.3,1.5-0.7,2.7-1.1,3.7c0.6,0.3,1.5,0.7,3.4,0.7
		C599.6,220.4,599.8,220.6,599.8,221z M592.3,224.1l1.9,1.3l-1.2,1.8l-1.9-1.4L592.3,224.1z M595.8,224.1l1.9,1.3l-1.2,1.8l-1.9-1.4
		L595.8,224.1z"/>
	<path class="st1" d="M598.8,220.4c0.8,0,1.7,0,2.3-0.5c0.1-0.4,0.2-1,0.2-1.9v-11.7l1.7-0.4l0.2,0.1v11.9c0,3.5-1.8,4.4-4.8,4.4
		L598.8,220.4z"/>
	<path class="st1" d="M606.3,222.3v-16l1.8-0.5l0.1,0.1l0,16.1l-1.7,0.4L606.3,222.3z"/>
	<path class="st1" d="M616.5,222c0-1,0.2-2,0.4-2.7l1.5-0.5l0.2,0.1c-0.2,0.9-0.3,1.6-0.3,2.2c0,2.2,1.2,3.8,5.1,3.8
		c3.7,0,6.5-0.9,6.9-2.1c0-0.5-0.4-1.1-3.9-2l0.6-1.7c4.4,1.2,5.2,2,5.2,3.2c-0.3,2.9-4,4.5-9.2,4.5
		C618.7,226.7,616.5,224.7,616.5,222z M619.6,230.3l1.2-1.8l1.9,1.3l-1.2,1.8L619.6,230.3z M623.1,230.3l1.2-1.8l1.9,1.3l-1.2,1.8
		L623.1,230.3z"/>
	<path class="st1" d="M638.6,221c0,0.4-0.2,1.2-1.4,1.2c-1.9,0-3.2-1-3.7-2.8c-1,0.6-2.6,1-5.2,1.2L627,219c3.4-0.3,5.2-0.7,5.9-1
		c0.1-0.4,0.2-1.1,0.2-1.9v-9.8l1.7-0.4l0.2,0.1v10c0,2.7,0.5,4.5,2.7,4.5C638.5,220.3,638.6,220.6,638.6,221z"/>
	<path class="st1" d="M650.5,217.5l-0.5,1.7c-2,0.2-3.9,0.7-6.5,1.6c-3,1-4.6,1.4-6.3,1.4l0.5-1.9c1.5,0,2.8-0.2,5.4-1.1
		c1.6-0.5,2.8-0.8,3.8-1c-0.4-0.2-1-0.5-1.7-0.9c-1.9-1.1-2.9-1.4-4-1.4c-0.9,0-1.7,0.2-2.4,0.5l-0.1-0.1l0.7-1.7
		c0.6-0.3,1.4-0.5,2.1-0.5c1.1,0,2.2,0.5,4.3,1.6C648,216.9,649.3,217.4,650.5,217.5z M643,224.1l2,1.3l-1.2,1.8l-2-1.4L643,224.1z"
		/>
	<path class="st1" d="M648.7,225.1l0.1-0.2c4.6-0.8,6.7-3,6.7-4.3c-0.1-1-0.8-2.7-1.7-4.4l1.4-1.5h0.2c1,1.9,1.7,4,1.7,5.4
		c0,0.8-0.2,1.7-0.6,2.4c-0.9,1.7-3.4,3.3-6.7,3.9L648.7,225.1z"/>
	<path class="st1" d="M665.3,222c0-1,0.2-2,0.4-2.7l1.5-0.5l0.2,0.1c-0.2,0.9-0.3,1.6-0.3,2.2c0,2.2,1.2,3.8,5.1,3.8
		c3.7,0,6.5-0.9,6.9-2.1c0-0.5-0.4-1.1-3.9-2l0.6-1.7c4.4,1.2,5.2,2,5.2,3.2c-0.3,2.9-4,4.5-9.2,4.5
		C667.5,226.7,665.3,224.7,665.3,222z"/>
	<path class="st1" d="M687.4,221c0,0.4-0.2,1.2-1.4,1.2c-1.9,0-3.2-1-3.7-2.8c-1,0.6-2.6,1-5.2,1.2l-1.2-1.6c3.4-0.3,5.2-0.7,5.9-1
		c0.1-0.4,0.2-1.1,0.2-1.9v-9.8l1.7-0.4l0.2,0.1v10c0,2.7,0.5,4.5,2.7,4.5C687.3,220.3,687.4,220.6,687.4,221z"/>
	<path class="st1" d="M697.4,219.9l-0.6,1.7c-1.9,0.4-4.7,0.6-10.8,0.6l0.5-1.9c0.9,0,1.8,0,2.7,0c-0.6-0.9-1-2-1-3.1
		c0-2.5,2-4,4.6-4c1.2,0,2.4,0.4,3.2,0.8l-0.2,1.7l-0.1,0c-0.9-0.4-1.9-0.6-2.9-0.6c-1.6,0-2.6,0.8-2.6,2.1c0,0.9,0.5,2.1,1.4,3
		c2.1-0.1,3.9-0.2,5.6-0.4L697.4,219.9z"/>
	<path class="st1" d="M732.3,221c0,0.4-0.2,1.2-1.4,1.2c-1,0-2.3-0.2-3.3-1c-0.7,0.7-1.7,1-2.8,1c-1,0-2-0.2-2.7-0.6
		c-0.5,0.4-1.2,0.6-2.2,0.6c-0.6,0-1.3-0.2-1.9-0.6c-0.5,3.4-3.3,5.1-6.9,5.1c-3.7,0-5.7-2.1-5.7-4.9c0-1,0.2-2.1,0.4-2.7l1.5-0.5
		l0.2,0.1c-0.2,0.8-0.2,1.6-0.2,2.2c0,2.4,0.9,4,4.2,4c2.7,0,3.9-1,4.6-1.8c0.2-0.5,0.3-1.1,0.3-1.6c0-1.3-0.6-2.7-1.3-4.4l1.7-1.2
		h0.1c0.3,0.8,0.7,2.3,1.2,3.2c0.5,0.9,1.2,1.3,2,1.3c0.4,0,0.9-0.1,1.2-0.3c0.3-0.4,0.7-1.4,1.1-2.8l1.9-0.3l0.1,0.1
		c-0.4,1.2-0.7,2.2-1.1,3c0.5,0.1,1.1,0.3,1.7,0.3c0.6,0,1.2-0.1,1.6-0.4c0.2-0.3,0.4-1.1,0.4-2.2c0-0.4,0-0.8-0.1-1.2l1.7-0.6
		l0.2,0.1c0,0.4,0,0.7,0,1.1c0,1.1-0.1,1.9-0.3,2.6c0.5,0.3,1.4,0.7,2.9,0.7C732.2,220.4,732.3,220.6,732.3,221z"/>
	<path class="st1" d="M739.3,221c0,0.4-0.2,1.2-1.4,1.2c-1,0-2.4-0.2-3-1.4c-0.8,1.1-2.2,1.4-4,1.4l0.5-1.9c0.8,0,1.7,0,2.3-0.5
		c0.1-0.4,0.2-1,0.2-1.9v-11.7l1.7-0.4l0.2,0.1v11.8c0,2.4,1.1,2.6,2.7,2.6C739.2,220.4,739.3,220.6,739.3,221z"/>
	<path class="st1" d="M751.2,217.5l-0.5,1.7c-2,0.2-3.9,0.7-6.5,1.6c-3,1-4.6,1.4-6.3,1.4l0.5-1.9c1.5,0,2.8-0.2,5.4-1.1
		c1.6-0.5,2.8-0.8,3.8-1c-0.4-0.2-1-0.5-1.7-0.9c-1.9-1.1-2.9-1.4-4-1.4c-0.9,0-1.7,0.2-2.4,0.5l-0.1-0.1l0.7-1.7
		c0.6-0.3,1.4-0.5,2.1-0.5c1.1,0,2.2,0.5,4.3,1.6C748.7,216.9,750,217.5,751.2,217.5z M743.7,224.1l2,1.3l-1.2,1.8l-2-1.4
		L743.7,224.1z"/>
	<path class="st1" d="M756.7,204c-1.2,0.1-2.7,0.3-4.6,0.3L752,203c0.3,0,0.7,0,1.1,0c-0.3-0.4-0.4-0.9-0.4-1.4c0-1.2,0.7-1.9,2-1.9
		c0.5,0,1.1,0.1,1.7,0.3l-0.3,1.2c-0.5-0.1-0.8-0.2-1.1-0.2c-0.6,0-0.9,0.4-0.9,0.9c0,0.4,0.2,0.7,0.5,1c0.8,0,1.5-0.1,2.2-0.2
		L756.7,204z M755.3,205.8l0.1,0.1l0,16.1l-1.7,0.4l-0.1-0.1v-16L755.3,205.8z"/>
	<path class="st1" d="M765.8,220.2c0,3.1-2.3,6.1-7.3,6.2l-1-1.4l0.1-0.2c3.4-0.1,5.7-1.3,6.5-3.3c-0.7,0.1-1.4,0.3-2.3,0.3
		c-2.1,0-3.1-1.1-3.1-2.8c0-2.2,1.6-4.6,3.5-4.6C764.4,214.5,765.8,217.3,765.8,220.2z M762.1,220c0.8,0,1.5-0.1,2.2-0.2
		c-0.1-1.7-1.1-3.5-2.2-3.5c-0.9,0-1.9,1.2-1.9,2.5C760.2,219.7,760.9,220,762.1,220z"/>
	<path class="st1" d="M773.8,222.1l0.3-1.8l0.1-0.1c0.7,0.2,2.1,0.2,2.6,0.2c1.6,0,3.5-0.3,4-0.9c-0.3-1.9-1.9-4-3.7-5.8l1-1.8h0.2
		c2.4,2.6,4.1,5,4.1,6.9c0,2.4-2,3.5-5.7,3.5C776.2,222.3,774.8,222.3,773.8,222.1z"/>
	<path class="st1" d="M795,221c0,0.4-0.2,1.2-1.5,1.2h-1.8c-0.8,2.3-3,4.1-7,4.2l-1-1.4l0.1-0.2c3-0.1,5.2-1.1,6.1-2.7h-0.7
		c-3,0-4.4-1.2-4.4-3.1c0-2.2,1.6-4.7,3.5-4.7c2.2,0,3.6,2.7,3.6,5.7v0.1h1.9C794.8,220.4,795,220.6,795,221z M790.6,220.4v-0.1
		c0-2.1-1.1-3.8-2.2-3.8c-0.9,0-1.9,1-1.9,2.6c0,0.9,0.8,1.4,3.1,1.4H790.6z"/>
	<path class="st1" d="M809.6,221c0,0.4-0.2,1.2-1.4,1.2c-3.2,0-4.7-0.8-5.5-2.3c-0.8,0.2-1.7,0.5-2.7,0.9c-3.1,1.1-4.5,1.4-6.4,1.4
		l0.5-1.9c1.6,0,2.9-0.2,5.4-1.1c1.5-0.5,2.7-0.8,3.8-1c-0.4-0.2-0.9-0.5-1.7-0.8c-1.9-1-2.9-1.4-4-1.4c-0.9,0-1.7,0.2-2.4,0.5
		l-0.1-0.1l0.7-1.8c0.6-0.3,1.4-0.5,2.1-0.5c1.1,0,2.2,0.5,4.2,1.6c2.4,1.2,3.6,1.7,4.7,1.8l-0.4,1.7c-0.6,0.1-1.2,0.1-1.8,0.3
		c0.7,0.7,1.9,0.9,4,0.9C809.4,220.4,809.6,220.6,809.6,221z M799.5,224.1l2,1.3l-1.2,1.8l-2-1.4L799.5,224.1z"/>
	<path class="st1" d="M828.8,221c0,0.4-0.2,1.2-1.4,1.2c-1,0-2.3-0.2-3.3-1c-0.7,0.7-1.7,1-2.9,1c-1,0-1.9-0.2-2.7-0.6
		c-0.5,0.4-1.2,0.6-2.2,0.6c-1.7,0-3-0.5-3.7-1.1c-0.9,0.7-2.2,1.1-4.4,1.1l0.5-1.9c1.5,0,2.5-0.1,3-0.5c0.3-0.4,0.6-1.3,1-2.5
		l2-0.3l0.1,0.1c-0.4,1-0.7,1.9-1.1,2.6c0.7,0.3,1.9,0.6,2.8,0.6c0.4,0,0.9-0.1,1.2-0.3c0.3-0.4,0.7-1.4,1.1-2.8l1.9-0.3l0.1,0.1
		c-0.4,1.2-0.7,2.2-1.1,2.9c0.5,0.2,1.1,0.3,1.7,0.3c0.6,0,1.2-0.1,1.6-0.4c0.2-0.3,0.4-1,0.4-2.2c0-0.4,0-0.8-0.1-1.3l1.7-0.6
		l0.2,0.1c0,0.4,0,0.7,0,1.1c0,1.1-0.1,1.9-0.3,2.6c0.5,0.3,1.4,0.7,2.9,0.7C828.6,220.4,828.8,220.6,828.8,221z"/>
	<path class="st1" d="M827.8,220.4c0.8,0,1.7,0,2.3-0.5c0.1-0.4,0.2-1,0.2-1.9v-11.7l1.7-0.4l0.2,0.1v11.9c0,3.5-1.8,4.4-4.8,4.4
		L827.8,220.4z"/>
	<path class="st1" d="M835.3,222.3v-16l1.8-0.5l0.1,0.1l0,16.1l-1.7,0.4L835.3,222.3z"/>
	<path class="st1" d="M861.6,221c0,0.4-0.2,1.2-1.5,1.2c-0.6,0-1.4-0.2-1.9-0.6c-0.5,3.4-3.3,5.1-6.9,5.1c-3.7,0-5.7-2.1-5.7-4.9
		c0-1,0.2-2.1,0.4-2.7l1.5-0.5l0.2,0.1c-0.2,0.8-0.2,1.6-0.2,2.2c0,2.4,0.9,4,4.2,4c2.7,0,3.9-1,4.6-1.8c0.8-1.8,0-3.6-1-6l1.7-1.2
		h0.1c0.3,0.8,0.7,2.3,1.2,3.2c0.5,1,1.2,1.4,2.2,1.4C861.3,220.4,861.6,220.6,861.6,221z M851.9,214.7l-2-1.4l1.2-1.8l2,1.3
		L851.9,214.7z"/>
	<path class="st1" d="M871,219.9c0,1.6-0.8,2.6-2.4,2.6c-1.2,0-3.1-0.6-4.8-1.8c-0.9,1.2-2,1.5-3.6,1.5l0.5-1.9
		c1.1,0,1.6-0.5,2.2-1.5c0.8-1.5,2-4.3,4.3-4.3S871,217.2,871,219.9z M867,216.4c-0.9,0-1.4,1.1-2.4,2.9c1.4,0.9,2.8,1.4,3.5,1.4
		c0.4,0,0.8-0.1,1-0.3C869.4,219.2,868.2,216.4,867,216.4z"/>
	<path class="st1" d="M879.2,221.7c0-1,0.2-2.1,0.4-2.7l1.5-0.5l0.2,0.1c-0.2,0.8-0.2,1.6-0.2,2.2c0,2.4,0.9,4,4.2,4
		c2,0,3.4-0.5,4.4-1.7c0.3-0.6,0.6-1.8,0.6-3.7v-13.1l1.7-0.4l0.2,0.1l0,13.2c0,5.4-2.5,7.5-7.2,7.5
		C881.1,226.7,879.2,224.6,879.2,221.7z"/>
	<path class="st1" d="M906.2,221c0,0.4-0.2,1.2-1.5,1.2c-1.1,0-1.9-0.3-2.5-1.3c-0.9,0.9-2.6,1.4-4.9,1.4c-0.5,0-1.9-0.1-2.8-0.3
		l0.3-1.8l0.1-0.1c0.8,0.2,2.1,0.2,2.6,0.2c1.5,0,3.1-0.3,3.9-0.9l-0.1-0.1c-0.4-0.8-2.2-4.3-3.2-6l1.4-1.5h0.2
		c0.7,1.5,2.4,5.4,2.8,6c0.9,1.9,1.4,2.3,2.7,2.3C906,220.4,906.2,220.6,906.2,221z"/>
	<path class="st1" d="M914.3,221c0,0.4-0.2,1.2-1.4,1.2c-1.5,0-2.9-0.3-3.9-1.2c-0.8,0.8-1.8,1.2-3.3,1.2h-0.8l0.5-1.9h0.7
		c0.7,0,1.4-0.1,1.8-0.5c0.3-0.5,0.7-1.6,1.2-3.6l1.8-0.5l0.2,0.1c-0.3,1.5-0.7,2.7-1.1,3.7c0.6,0.3,1.5,0.7,3.4,0.7
		C914.1,220.4,914.3,220.6,914.3,221z M908.6,213.1l-1.9-1.4l1.2-1.8l1.9,1.3L908.6,213.1z M912,213.1l-1.9-1.4l1.2-1.8l1.9,1.3
		L912,213.1z"/>
	<path class="st1" d="M924.2,219.9l-0.6,1.7c-1.9,0.4-4.7,0.6-10.8,0.6l0.5-1.9c0.9,0,1.8,0,2.7,0c-0.6-0.9-1-2-1-3.1
		c0-2.5,2-4,4.6-4c1.2,0,2.4,0.4,3.2,0.8l-0.2,1.7l-0.1,0c-0.9-0.4-1.9-0.6-2.9-0.6c-1.6,0-2.6,0.8-2.6,2.1c0,0.9,0.5,2.1,1.4,3
		c2.1-0.1,3.9-0.2,5.6-0.4L924.2,219.9z"/>
	<path class="st1" d="M930.1,204c-1.2,0.1-2.7,0.3-4.6,0.3l-0.1-1.3c0.3,0,0.7,0,1.1,0c-0.3-0.4-0.4-0.9-0.4-1.4
		c0-1.2,0.7-1.9,2-1.9c0.5,0,1.1,0.1,1.7,0.3l-0.3,1.2c-0.5-0.1-0.8-0.2-1.1-0.2c-0.6,0-0.9,0.4-0.9,0.9c0,0.4,0.2,0.7,0.5,1
		c0.8,0,1.5-0.1,2.2-0.2L930.1,204z M928.7,205.8l0.1,0.1l0,16.1l-1.7,0.4l-0.1-0.1v-16L928.7,205.8z"/>
</g>
<g>
	<path class="st1" d="M669.5,419.7c0-0.8,0.7-1.5,1.5-1.5c0.8,0,1.5,0.7,1.5,1.5c0,0.8-0.7,1.5-1.5,1.5
		C670.2,421.2,669.5,420.6,669.5,419.7z"/>
	<path class="st1" d="M692.1,417.1c0,1.2-0.4,2.4-1.5,3c-1.3,0.8-3.6,1.1-6.5,1.1h-1.6c-5.2,0-8.1-1.1-8.1-4.4c0-1,0.2-2.1,0.4-2.7
		l1.4-0.5l0.2,0.1c-0.2,0.8-0.2,1.6-0.2,2.2c0,2.9,2.4,3.5,6.9,3.5h1.7c2.4,0,4.7-0.3,5.7-0.7c0.2-1.3-0.3-2.5-1.2-4.5l1.7-1.2h0.2
		C691.8,414.6,692.1,416.2,692.1,417.1z M682.3,411.9l-1.9-1.4l1.2-1.8l1.9,1.3L682.3,411.9z M685.6,411.9l-1.9-1.4l1.2-1.8l1.9,1.3
		L685.6,411.9z"/>
	<path class="st1" d="M695.1,421v-16l1.8-0.5l0.1,0.1l0,16.1l-1.7,0.4L695.1,421z"/>
	<path class="st1" d="M708.3,419.8c0,0.4-0.2,1.2-1.4,1.2c-1,0-1.6-0.3-2-0.6c-0.7,2.2-3.3,4.2-7.2,4.9l-1-1.4l0.1-0.2
		c4.7-0.9,6.4-2.8,6.8-4.6c-0.4-1.1-1.1-2.6-1.8-4l1.4-1.5h0.2c0.6,1.7,1.2,3.1,1.4,3.7c0.6,1.6,1,1.9,2.5,1.9
		C708.2,419.1,708.3,419.4,708.3,419.8z"/>
	<path class="st1" d="M717.8,418.7c0,1.6-0.8,2.6-2.4,2.6c-1.2,0-3.1-0.6-4.8-1.8c-0.9,1.2-2,1.5-3.6,1.5l0.5-1.9
		c1.1,0,1.6-0.5,2.2-1.5c0.8-1.5,2-4.3,4.3-4.3S717.8,415.9,717.8,418.7z M713.7,415.1c-0.9,0-1.4,1.1-2.4,2.9
		c1.4,0.9,2.8,1.4,3.5,1.4c0.4,0,0.8-0.1,1-0.3C716.1,418,715,415.1,713.7,415.1z"/>
	<path class="st1" d="M743.7,417.1c0,1.2-0.4,2.4-1.5,3c-1.3,0.8-3.6,1.1-6.5,1.1h-1.6c-5.2,0-8.1-1.1-8.1-4.4c0-1,0.2-2.1,0.4-2.7
		l1.4-0.5l0.2,0.1c-0.2,0.8-0.2,1.6-0.2,2.2c0,2.9,2.4,3.5,6.9,3.5h1.7c2.4,0,4.7-0.3,5.7-0.7c0.2-1.3-0.3-2.5-1.2-4.5l1.7-1.2h0.2
		C743.3,414.6,743.7,416.2,743.7,417.1z M733.8,411.9l-1.9-1.4l1.2-1.8l1.9,1.3L733.8,411.9z M735.3,409.2l-2-1.4l1.2-1.8l1.9,1.3
		L735.3,409.2z M735.3,410.5l1.2-1.8l1.9,1.3l-1.2,1.8L735.3,410.5z"/>
	<path class="st1" d="M759.2,419.8c0,0.4-0.2,1.2-1.5,1.2c-2.1,0-3.7-0.6-4.1-2.9c-1.8,2.2-4.4,3-7.2,3l-0.8-1.7l0.1-0.1
		c2.3,0,4.3-0.5,5.9-1.6c-1.3-2.5-3.4-4.6-6.1-7.1l0.7-1.9l0.2-0.1c3,2.7,5.4,6.1,6.4,8.1c0.3-0.3,0.5-0.6,0.7-1v-10.7l1.7-0.4
		l0.1,0.1v12.1c0,1.9,0.8,2.3,2.8,2.3C759,419.1,759.2,419.4,759.2,419.8z"/>
	<path class="st1" d="M758.2,419.1h0.7c1.2,0,2.1-0.1,2.5-0.3c0.5-1.2-0.2-2.9-1-4.7l1.5-1.2h0.2c0.7,1.7,1.2,3.3,1.2,4.3
		c0,1-0.4,2.2-1.2,2.9c-0.6,0.6-1.6,0.8-3.8,0.8h-0.7L758.2,419.1z M758.2,408.9l1.2-1.8l1.9,1.3l-1.2,1.8L758.2,408.9z
		 M759.7,406.1l1.2-1.8l1.9,1.3l-1.2,1.9L759.7,406.1z M761.6,408.9l1.2-1.8l1.9,1.3l-1.2,1.8L761.6,408.9z"/>
	<path class="st1" d="M771.7,420.7c0-1,0.2-2,0.4-2.7l1.5-0.5l0.2,0.1c-0.2,0.9-0.3,1.6-0.3,2.2c0,2.2,1.2,3.8,5.1,3.8
		c3.7,0,6.5-0.9,6.9-2.1c0-0.5-0.4-1.1-3.9-2l0.6-1.7c4.4,1.2,5.2,2,5.2,3.2c-0.3,2.9-4,4.5-9.2,4.5
		C773.9,425.5,771.7,423.4,771.7,420.7z M774.9,429.1l1.2-1.8l1.9,1.3l-1.2,1.8L774.9,429.1z M778.3,429.1l1.2-1.8l1.9,1.3l-1.2,1.8
		L778.3,429.1z"/>
	<path class="st1" d="M782.2,417.8c1-0.2,2-0.5,3-1c0.1-0.4,0.2-1.1,0.2-1.9V405l1.7-0.4l0.2,0v10c0,2.2-1,3.9-4,4.7L782.2,417.8z"
		/>
	<path class="st1" d="M804.6,419.8c0,0.4-0.2,1.2-1.4,1.2c-1,0-1.6-0.3-2-0.6c-0.7,2.2-3.3,4.2-7.2,4.9l-1-1.4l0.1-0.2
		c4.7-0.9,6.4-2.8,6.8-4.6c-0.4-1.1-1.1-2.6-1.8-4l1.4-1.5h0.2c0.6,1.7,1.2,3.1,1.4,3.7c0.6,1.6,1,1.9,2.5,1.9
		C804.4,419.1,804.6,419.4,804.6,419.8z"/>
	<path class="st1" d="M815.2,419.8c0,0.4-0.2,1.2-1.5,1.2h-1.5c-1.1,0-2.4-0.2-3.6-0.7c-1.2,0.5-2.8,0.7-4.3,0.7h-1.2l0.5-1.9h2.3
		c0.2,0,0.4,0,0.6,0c-0.8-0.7-1.4-1.6-1.4-2.6c0-2.1,1.8-4.3,3.8-4.3c1.7,0,3.2,1.9,3.2,3.7c0,1.4-0.5,2.4-1.3,3.2
		c0.5,0.1,1.1,0.1,1.7,0.1h1.7C815.1,419.1,815.2,419.4,815.2,419.8z M808.8,418.4c1.1-0.6,1.8-1.4,1.8-2.4c0-1-1-2.1-1.9-2.1
		c-1,0-2,1.1-2,2.2C806.7,417,807.5,417.9,808.8,418.4z M809.3,409.4l-2-1.4l1.2-1.8l2,1.3L809.3,409.4z"/>
	<path class="st1" d="M825.1,418.7l-0.6,1.7c-1.9,0.4-4.7,0.6-10.8,0.6l0.5-1.9c0.9,0,1.8,0,2.7,0c-0.6-0.9-1-2-1-3.1
		c0-2.5,2-4,4.6-4c1.2,0,2.4,0.4,3.2,0.8l-0.2,1.7l-0.1,0c-0.9-0.4-1.9-0.6-2.9-0.6c-1.6,0-2.6,0.8-2.6,2.1c0,0.9,0.5,2.1,1.4,3
		c2.1-0.1,3.9-0.2,5.6-0.4L825.1,418.7z M820.8,409.3l-2-1.4l1.2-1.8l2,1.3L820.8,409.3z"/>
	<path class="st1" d="M827.9,421v-16l1.8-0.5l0.1,0.1l0,16.1l-1.7,0.4L827.9,421z"/>
	<path class="st1" d="M838.1,420.7c0-1,0.2-2,0.4-2.7l1.5-0.5l0.2,0.1c-0.2,0.9-0.3,1.6-0.3,2.2c0,2.2,1.2,3.8,5.1,3.8
		c3.7,0,6.5-0.9,6.9-2.1c0-0.5-0.4-1.1-3.9-2l0.6-1.7c4.4,1.2,5.2,2,5.2,3.2c-0.3,2.9-4,4.5-9.2,4.5
		C840.3,425.5,838.1,423.4,838.1,420.7z M841.3,429.1l1.2-1.8l1.9,1.3l-1.2,1.8L841.3,429.1z M844.7,429.1l1.2-1.8l1.9,1.3l-1.2,1.8
		L844.7,429.1z"/>
	<path class="st1" d="M848.6,417.8c1-0.4,1.8-0.8,2.3-1.3c0-1.1-0.6-2.4-1.2-3.7l1.5-1.2h0.2c0.7,1.7,1.2,3.3,1.2,4.3
		c0,0.9-0.6,1.8-2.1,2.7l-1.2,0.2L848.6,417.8z M850.6,427.8l1.2-1.8l2,1.3l-1.2,1.8L850.6,427.8z"/>
	<path class="st1" d="M854.9,423.5l0-0.2c3.5-1,5.2-2.8,5.2-4c-0.1-1-0.8-2.7-1.7-4.4l1.4-1.5h0.2c1,1.9,1.8,4,1.8,5.4
		c0,1-0.3,2-0.9,2.8c-0.8,1.2-2.5,2.5-5,3.2L854.9,423.5z"/>
	<path class="st1" d="M869.6,412.3c0-0.8,0.7-1.5,1.5-1.5c0.8,0,1.5,0.7,1.5,1.5c0,0.8-0.7,1.5-1.5,1.5
		C870.3,413.8,869.6,413.1,869.6,412.3z M869.6,419.7c0-0.8,0.7-1.5,1.5-1.5c0.8,0,1.5,0.7,1.5,1.5c0,0.8-0.7,1.5-1.5,1.5
		C870.3,421.2,869.6,420.6,869.6,419.7z"/>
	<path class="st1" d="M880.2,420.5c0-1,0.2-2.1,0.4-2.7l1.5-0.5l0.2,0.1c-0.2,0.8-0.2,1.6-0.2,2.2c0,2.4,0.9,4,4.2,4
		c2,0,3.4-0.5,4.4-1.7c0.3-0.6,0.6-1.8,0.6-3.7v-13.1l1.7-0.4l0.2,0.1l0,13.2c0,5.4-2.5,7.5-7.2,7.5
		C882.2,425.5,880.2,423.4,880.2,420.5z"/>
	<path class="st1" d="M906.4,419.8c0,0.4-0.2,1.2-1.5,1.2h-1.8c-0.8,2.3-3,4.1-7,4.2l-1-1.4l0.1-0.2c3-0.1,5.2-1.1,6.1-2.7h-0.7
		c-3,0-4.4-1.2-4.4-3.1c0-2.2,1.6-4.7,3.5-4.7c2.2,0,3.6,2.7,3.6,5.7v0.1h1.9C906.2,419.1,906.4,419.4,906.4,419.8z M902,419.1V419
		c0-2.1-1.1-3.8-2.2-3.8c-0.9,0-1.9,1-1.9,2.6c0,0.9,0.8,1.4,3.1,1.4H902z"/>
	<path class="st1" d="M914,415.8c0,2.3-0.4,3.6-1.5,4.4c-1.3,0.7-3.1,0.8-7.6,0.8l0.5-1.9c4.6,0,6.1-0.2,6.8-0.5
		c0.1-0.3,0.1-0.8,0.2-1.5c-0.7,0.2-1.6,0.3-2.5,0.3c-2.1,0-3.1-1.1-3.1-2.8c0-2.2,1.6-4.6,3.5-4.6C912.6,410,914,412.9,914,415.8z
		 M908.9,407.4l-1.9-1.4l1.2-1.8l1.9,1.3L908.9,407.4z M910.3,415.6c0.8,0,1.5-0.1,2.2-0.2c-0.1-1.7-1.1-3.5-2.2-3.5
		c-0.9,0-1.9,1.2-1.9,2.5C908.3,415.2,909,415.6,910.3,415.6z M912.3,407.4l-1.9-1.4l1.2-1.8l1.9,1.3L912.3,407.4z"/>
	<path class="st1" d="M920.1,402.7c-1.2,0.1-2.7,0.3-4.6,0.3l-0.1-1.3c0.3,0,0.7,0,1.1,0c-0.3-0.4-0.4-0.9-0.4-1.4
		c0-1.2,0.7-1.9,2-1.9c0.5,0,1.1,0.1,1.7,0.3l-0.3,1.2c-0.5-0.1-0.8-0.2-1.1-0.2c-0.6,0-0.9,0.4-0.9,0.9c0,0.4,0.2,0.7,0.5,1
		c0.8,0,1.5-0.1,2.2-0.2L920.1,402.7z M918.7,404.6l0.1,0.1l0,16.1l-1.7,0.4L917,421v-16L918.7,404.6z"/>
	<path class="st1" d="M929.2,419c0,3.1-2.3,6.1-7.3,6.2l-1-1.4l0.1-0.2c3.4-0.1,5.7-1.3,6.5-3.3c-0.7,0.1-1.4,0.3-2.3,0.3
		c-2.1,0-3.1-1.1-3.1-2.8c0-2.2,1.6-4.6,3.5-4.6C927.8,413.2,929.2,416,929.2,419z M925.5,418.8c0.8,0,1.5-0.1,2.2-0.2
		c-0.1-1.7-1.1-3.5-2.2-3.5c-0.9,0-1.9,1.2-1.9,2.5C923.6,418.4,924.3,418.8,925.5,418.8z"/>
</g>
<linearGradient id="SVGID_2_" gradientUnits="userSpaceOnUse" x1="504.9701" y1="324.0948" x2="1023.5101" y2="324.0948">
	<stop  offset="0.1199" style="stop-color:#FFFFFF"/>
	<stop  offset="0.9969" style="stop-color:#FFF2D5"/>
</linearGradient>
<rect x="505" y="285.6" class="st2" width="518.5" height="77"/>
<g>
	<g>
		<path class="st3" d="M808,335.4c0-2.7,1.5-5.3,3.6-7.9l2.3,1.3c-1,1.4-1.9,2.8-1.9,3.9c0,1.5,1.8,1.3,1.8,3.4c0,1.3-1,2.8-2.8,2.8
			C809.1,338.9,808,337.6,808,335.4z"/>
		<path class="st3" d="M838.9,335.7c0,1.7-0.6,3.1-2.4,3.1c-1.3,0-2.2-0.2-2.9-0.5c-1.4,3.6-5.5,6.2-10.8,7.1l-2.4-3.3l0.3-0.4
			c5.7-1,9-3.3,10.1-5.6c-0.8-1.8-1.7-3.8-2.7-5.7l3.2-3.7h0.4l1.5,4.4c1,2.8,1.8,3.2,4.2,3.2C838.5,334.2,838.9,334.9,838.9,335.7z
			"/>
		<path class="st3" d="M850.9,335.7c0,1.7-0.6,3.1-2.4,3.1s-4.2-0.6-5.6-1.7c-1.4,1.1-3.2,1.7-5.8,1.7h-0.7l1-4.5h0.6
			c1.4,0,2.4-0.1,2.8-0.5c0.4-0.9,0.8-2.7,1.2-5l4.6-1.1l0.4,0.3c-0.5,2.2-1,4.1-1.7,5.7c1,0.4,2.4,0.7,4.1,0.7
			C850.6,334.2,850.9,334.9,850.9,335.7z M842.1,341.3l3.8,2.6l-2.4,3.6l-3.9-2.7L842.1,341.3z"/>
		<path class="st3" d="M863,320.6l-7.6,3.8c5.8,3.9,6.9,6.1,6.9,8.1c0,3.6-2.7,6.2-10.1,6.2h-3.6l1-4.5h2.3c2.8,0,5.7-0.4,6.7-0.9
			c0-1.7-4.2-4.5-7.7-6.7l-0.2-0.3l1-5l12.5-6.4l0.3,0.2L863,320.6z"/>
		<path class="st3" d="M876.4,311.5c-1.8,0.2-4.2,0.4-7,0.5l-0.3-2.6c0.5,0,1.1,0,1.7,0c-0.5-0.6-0.8-1.5-0.8-2.3
			c0-1.8,1.2-3.1,3.2-3.1c0.8,0,1.7,0.2,2.7,0.6l-0.6,2.3c-0.6-0.2-1.2-0.3-1.5-0.3c-0.8,0-1.2,0.4-1.2,1.2c0,0.5,0.3,1,0.7,1.5
			c1.1-0.1,2.1-0.1,3-0.3L876.4,311.5z M874.6,313.8l0.4,0.2l-0.1,24.1l-4.1,0.9l-0.3-0.2v-23.9L874.6,313.8z"/>
		<path class="st3" d="M920.4,313.8l0.3,0.2v16.9c0,6-3,7.7-7.9,7.8h-0.3c0,0-0.1,0-0.1,0h-0.3c-1.3-0.1-3-0.5-4.1-2.1
			c-1.2,1.5-2.9,2-6.1,2.1h-0.2c0,0-0.1,0-0.1,0h-0.2c-2.4-0.1-4.3-0.8-5.4-2.4c-1.2,0.4-2.2,0.6-3.3,0.6c-4,0-6.4-1.9-6.4-4.6
			c0-3,3-6.3,8.6-8.2v-1.7l4.2-1.6l0.3,0.1v10.8c0,1.8,0.6,2.4,3.2,2.5c1,0,2-0.1,2.7-0.5c0.1-0.6,0.3-1.4,0.3-2.7v-12.3l4.2-1.1
			l0.3,0.2V331c0,2.7,0.8,3.1,3.3,3.2c1,0,2-0.1,2.7-0.5c0.1-0.6,0.3-1.4,0.3-2.7v-16.2L920.4,313.8z M894.8,332.4v-0.7v-3.4
			c-2.5,0.6-4.5,1.7-5,2.8c0.4,1,1.9,1.5,3.2,1.5C893.6,332.6,894.2,332.5,894.8,332.4z M902.2,312.4c0-0.5,0.1-1.5,0.3-2.1l2.4-0.1
			c-0.1,0.6-0.1,1.2-0.1,1.5c0,0.9,0.3,1.3,0.9,1.3c0.7,0,1-0.5,1-2.6l2.3-0.2c0,0.7,0,1.2,0,1.5c0,0.9,0.4,1.2,1,1.2
			c0.7,0,0.9-0.5,0.9-1.3c0-0.7-0.2-1.4-0.4-2.1l2.5-0.6c0.3,0.9,0.5,1.8,0.5,2.8c0,2.1-1.1,3.7-3.5,3.7c-0.9,0-1.7-0.4-2.1-0.9
			c-0.5,0.6-1.4,0.9-2.4,0.9C903,315.6,902.2,314.1,902.2,312.4z M909.3,308.2h-3.2v-4.6h3.2V308.2z M929.5,314l-0.1,24.1l-4.1,0.9
			l-0.3-0.2v-23.9l4.2-1.1L929.5,314z"/>
	</g>
</g>
<path class="st4" d="M1023.5,42.8h-11.1v-6.6c0-1.7-1.1-3-2.6-3.5c1.4-1.1,2.3-2.9,2.3-4.8c0-3.4-2.8-6.2-6.2-6.2
	c-1,0-1.9,0.2-2.8,0.7c0.4-1.1,0.5-2.2,0.5-3.4c0-6.2-5-11.2-11.2-11.2c-6.2,0-11.2,5-11.2,11.2c0,1.2,0.2,2.4,0.5,3.4
	c-0.8-0.4-1.8-0.7-2.8-0.7c-3.4,0-6.2,2.8-6.2,6.2c0,1.9,0.9,3.6,2.3,4.8c-1.5,0.4-2.6,1.8-2.6,3.5v6.6h-10h-10v-6.6
	c0-1.7-1.1-3-2.6-3.5c1.4-1.1,2.3-2.9,2.3-4.8c0-3.4-2.8-6.2-6.2-6.2c-1,0-1.9,0.2-2.8,0.7c0.4-1.1,0.5-2.2,0.5-3.4
	c0-6.2-5-11.2-11.2-11.2c-6.2,0-11.2,5-11.2,11.2c0,1.2,0.2,2.4,0.5,3.4c-0.8-0.4-1.8-0.7-2.8-0.7c-3.4,0-6.2,2.8-6.2,6.2
	c0,1.9,0.9,3.6,2.3,4.8c-1.5,0.4-2.6,1.8-2.6,3.5v6.6h-10h-10v-6.6c0-1.7-1.1-3-2.6-3.5c1.4-1.1,2.3-2.9,2.3-4.8
	c0-3.4-2.8-6.2-6.2-6.2c-1,0-1.9,0.2-2.8,0.7c0.4-1.1,0.5-2.2,0.5-3.4c0-6.2-5-11.2-11.2-11.2c-6.2,0-11.2,5-11.2,11.2
	c0,1.2,0.2,2.4,0.5,3.4c-0.8-0.4-1.8-0.7-2.8-0.7c-3.4,0-6.2,2.8-6.2,6.2c0,1.9,0.9,3.6,2.3,4.8c-1.5,0.4-2.6,1.8-2.6,3.5v6.6h-10
	h-10v-6.6c0-1.7-1.1-3-2.6-3.5c1.4-1.1,2.3-2.9,2.3-4.8c0-3.4-2.8-6.2-6.2-6.2c-1,0-1.9,0.2-2.8,0.7c0.4-1.1,0.5-2.2,0.5-3.4
	c0-6.2-5-11.2-11.2-11.2c-6.2,0-11.2,5-11.2,11.2c0,1.2,0.2,2.4,0.5,3.4c-0.8-0.4-1.8-0.7-2.8-0.7c-3.4,0-6.2,2.8-6.2,6.2
	c0,1.9,0.9,3.6,2.3,4.8c-1.5,0.4-2.6,1.8-2.6,3.5v6.6h-10h-10v-6.6c0-1.7-1.1-3-2.6-3.5c1.4-1.1,2.3-2.9,2.3-4.8
	c0-3.4-2.8-6.2-6.2-6.2c-1,0-1.9,0.2-2.8,0.7c0.4-1.1,0.5-2.2,0.5-3.4c0-6.2-5-11.2-11.2-11.2c-6.2,0-11.2,5-11.2,11.2
	c0,1.2,0.2,2.4,0.5,3.4c-0.8-0.4-1.8-0.7-2.8-0.7c-3.4,0-6.2,2.8-6.2,6.2c0,1.9,0.9,3.6,2.3,4.8c-1.5,0.4-2.6,1.8-2.6,3.5v6.6h-10
	h-10v-6.6c0-1.7-1.1-3-2.6-3.5c1.4-1.1,2.3-2.9,2.3-4.8c0-3.4-2.8-6.2-6.2-6.2c-1,0-1.9,0.2-2.8,0.7c0.4-1.1,0.5-2.2,0.5-3.4
	c0-6.2-5-11.2-11.2-11.2c-6.2,0-11.2,5-11.2,11.2c0,1.2,0.2,2.4,0.5,3.4c-0.8-0.4-1.8-0.7-2.8-0.7c-3.4,0-6.2,2.8-6.2,6.2
	c0,1.9,0.9,3.6,2.3,4.8c-1.5,0.4-2.6,1.8-2.6,3.5v6.6h-10h-10v-6.6c0-1.7-1.1-3-2.6-3.5c1.4-1.1,2.3-2.9,2.3-4.8
	c0-3.4-2.8-6.2-6.2-6.2c-1,0-1.9,0.2-2.8,0.7c0.4-1.1,0.5-2.2,0.5-3.4c0-6.2-5-11.2-11.2-11.2c-6.2,0-11.2,5-11.2,11.2
	c0,1.2,0.2,2.4,0.5,3.4c-0.8-0.4-1.8-0.7-2.8-0.7c-3.4,0-6.2,2.8-6.2,6.2c0,1.9,0.9,3.6,2.3,4.8c-1.5,0.4-2.6,1.8-2.6,3.5v6.6h-10
	h-10v-6.6c0-1.7-1.1-3-2.6-3.5c1.4-1.1,2.3-2.9,2.3-4.8c0-3.4-2.8-6.2-6.2-6.2c-1,0-1.9,0.2-2.8,0.7c0.4-1.1,0.5-2.2,0.5-3.4
	c0-6.2-5-11.2-11.2-11.2c-6.2,0-11.2,5-11.2,11.2c0,1.2,0.2,2.4,0.5,3.4c-0.8-0.4-1.8-0.7-2.8-0.7c-3.4,0-6.2,2.8-6.2,6.2
	c0,1.9,0.9,3.6,2.3,4.8c-1.5,0.4-2.6,1.8-2.6,3.5v6.6h-10h-10v-6.6c0-1.7-1.1-3-2.6-3.5c1.4-1.1,2.3-2.9,2.3-4.8
	c0-3.4-2.8-6.2-6.2-6.2c-1,0-1.9,0.2-2.8,0.7c0.4-1.1,0.5-2.2,0.5-3.4c0-6.2-5-11.2-11.2-11.2c-6.2,0-11.2,5-11.2,11.2
	c0,1.2,0.2,2.4,0.5,3.4c-0.8-0.4-1.8-0.7-2.8-0.7c-3.4,0-6.2,2.8-6.2,6.2c0,1.9,0.9,3.6,2.3,4.8c-1.5,0.4-2.6,1.8-2.6,3.5v6.6h-10
	h-10v-6.6c0-1.7-1.1-3-2.6-3.5c1.4-1.1,2.3-2.9,2.3-4.8c0-3.4-2.8-6.2-6.2-6.2c-1,0-1.9,0.2-2.8,0.7c0.4-1.1,0.5-2.2,0.5-3.4
	c0-6.2-5-11.2-11.2-11.2c-6.2,0-11.2,5-11.2,11.2c0,1.2,0.2,2.4,0.5,3.4c-0.8-0.4-1.8-0.7-2.8-0.7c-3.4,0-6.2,2.8-6.2,6.2
	c0,1.9,0.9,3.6,2.3,4.8c-1.5,0.4-2.6,1.8-2.6,3.5v6.6h-10h-10v-6.6c0-1.7-1.1-3-2.6-3.5c1.4-1.1,2.3-2.9,2.3-4.8
	c0-3.4-2.8-6.2-6.2-6.2c-1,0-1.9,0.2-2.8,0.7c0.4-1.1,0.5-2.2,0.5-3.4c0-6.2-5-11.2-11.2-11.2c-6.2,0-11.2,5-11.2,11.2
	c0,1.2,0.2,2.4,0.5,3.4c-0.8-0.4-1.8-0.7-2.8-0.7c-3.4,0-6.2,2.8-6.2,6.2c0,1.9,0.9,3.6,2.3,4.8c-1.5,0.4-2.6,1.8-2.6,3.5v6.6h-10
	h-10v-6.6c0-1.7-1.1-3-2.6-3.5c1.4-1.1,2.3-2.9,2.3-4.8c0-3.4-2.8-6.2-6.2-6.2c-1,0-1.9,0.2-2.8,0.7c0.4-1.1,0.5-2.2,0.5-3.4
	c0-6.2-5-11.2-11.2-11.2c-6.2,0-11.2,5-11.2,11.2c0,1.2,0.2,2.4,0.5,3.4c-0.8-0.4-1.8-0.7-2.8-0.7c-3.4,0-6.2,2.8-6.2,6.2
	c0,1.9,0.9,3.6,2.3,4.8c-1.5,0.4-2.6,1.8-2.6,3.5v6.6h-10h-10v-6.6c0-1.7-1.1-3-2.6-3.5c1.4-1.1,2.3-2.9,2.3-4.8
	c0-3.4-2.8-6.2-6.2-6.2c-1,0-1.9,0.2-2.8,0.7c0.4-1.1,0.5-2.2,0.5-3.4c0-6.2-5-11.2-11.2-11.2c-6.2,0-11.2,5-11.2,11.2
	c0,1.2,0.2,2.4,0.5,3.4c-0.8-0.4-1.8-0.7-2.8-0.7c-3.4,0-6.2,2.8-6.2,6.2c0,1.9,0.9,3.6,2.3,4.8c-1.5,0.4-2.6,1.8-2.6,3.5v6.6h-10
	h-10v-6.6c0-1.7-1.1-3-2.6-3.5c1.4-1.1,2.3-2.9,2.3-4.8c0-3.4-2.8-6.2-6.2-6.2c-1,0-1.9,0.2-2.8,0.7c0.4-1.1,0.5-2.2,0.5-3.4
	c0-6.2-5-11.2-11.2-11.2c-6.2,0-11.2,5-11.2,11.2c0,1.2,0.2,2.4,0.5,3.4c-0.8-0.4-1.8-0.7-2.8-0.7c-3.4,0-6.2,2.8-6.2,6.2
	c0,1.9,0.9,3.6,2.3,4.8c-1.5,0.4-2.6,1.8-2.6,3.5v6.6h-10h-10v-6.6c0-1.7-1.1-3-2.6-3.5c1.4-1.1,2.3-2.9,2.3-4.8
	c0-3.4-2.8-6.2-6.2-6.2c-1,0-1.9,0.2-2.8,0.7c0.4-1.1,0.5-2.2,0.5-3.4c0-6.2-5-11.2-11.2-11.2c-6.2,0-11.2,5-11.2,11.2
	c0,1.2,0.2,2.4,0.5,3.4c-0.8-0.4-1.8-0.7-2.8-0.7c-3.4,0-6.2,2.8-6.2,6.2c0,1.9,0.9,3.6,2.3,4.8c-1.5,0.4-2.6,1.8-2.6,3.5v6.6h-10
	h-10v-6.6c0-1.7-1.1-3-2.6-3.5c1.4-1.1,2.3-2.9,2.3-4.8c0-3.4-2.8-6.2-6.2-6.2c-1,0-1.9,0.2-2.8,0.7c0.4-1.1,0.5-2.2,0.5-3.4
	c0-6.2-5-11.2-11.2-11.2c-6.2,0-11.2,5-11.2,11.2c0,1.2,0.2,2.4,0.5,3.4c-0.8-0.4-1.8-0.7-2.8-0.7c-3.4,0-6.2,2.8-6.2,6.2
	c0,1.9,0.9,3.6,2.3,4.8c-1.5,0.4-2.6,1.8-2.6,3.5v6.6h-10h-10v-6.6c0-1.7-1.1-3-2.6-3.5c1.4-1.1,2.3-2.9,2.3-4.8
	c0-3.4-2.8-6.2-6.2-6.2c-1,0-1.9,0.2-2.8,0.7c0.4-1.1,0.5-2.2,0.5-3.4c0-6.2-5-11.2-11.2-11.2c-6.2,0-11.2,5-11.2,11.2
	c0,1.2,0.2,2.4,0.5,3.4c-0.8-0.4-1.8-0.7-2.8-0.7c-3.4,0-6.2,2.8-6.2,6.2c0,1.9,0.9,3.6,2.3,4.8c-1.5,0.4-2.6,1.8-2.6,3.5v6.6H-0.5
	V-1h1024V42.8z"/>
<g id="Layer_x0020_1_15_">
	<path class="st5" d="M34.4,718.9l43.9-1.7c0.3,0,0.6,0,1,0c0.7,0.1,1.3,0.4,1.8,0.9c0.5,0.5,0.9,1,0.9,1.7c0,0.2,0,0.5,0,0.8
		l-4.6,20.6c-0.2,0.9-0.6,1.7-1.3,2.2c-0.6,0.5-1.4,0.9-2.4,0.9l-35.3-1.2c-1,0-1.7-0.3-2.4-0.9l0,0c-0.6-0.6-1.1-1.4-1.3-2.2
		l-4.1-17.7c0-0.1,0-0.1,0-0.2c-0.1-0.8,0.3-1.5,0.9-2.1c0.6-0.5,1.4-0.8,2.3-1C34.1,718.9,34.3,718.9,34.4,718.9z M76.4,720
		l-42,1.5c-0.1,0-0.2,0-0.3,0c-0.6,0.1-1.1,0.3-1.5,0.7c-0.3,0.3-0.6,0.7-0.5,1.1c0,0,0,0.1,0,0.1l3.8,16.5c0.1,0.6,0.4,1.2,0.9,1.6
		c0.4,0.3,0.8,0.5,1.4,0.5l34,1.2c0.6,0,1-0.2,1.4-0.5c0.4-0.4,0.7-0.9,0.9-1.6l4.3-19.3c0-0.1,0-0.3,0-0.4c0-0.3-0.2-0.7-0.5-0.9
		c-0.3-0.3-0.7-0.5-1.1-0.5C76.7,720,76.6,719.9,76.4,720z"/>
	<path class="st5" d="M41.4,723.6l12.9-1.4c0.1,0,0.3,0,0.4,0c0.3,0.1,0.6,0.2,0.8,0.4c0.2,0.2,0.4,0.5,0.4,0.8c0,0.1,0,0.2,0,0.3
		l-2.1,9.6c-0.1,0.4-0.3,0.8-0.6,1c-0.3,0.3-0.6,0.4-1.1,0.4h-8.9c-0.4,0-0.8-0.2-1.1-0.4h0c-0.3-0.3-0.5-0.6-0.6-1l-1.9-8.2
		c0,0,0-0.1,0-0.1c-0.1-0.4,0.1-0.7,0.4-1c0.3-0.2,0.7-0.4,1-0.5C41.3,723.6,41.4,723.6,41.4,723.6z M53.4,723.5l-12,1.3
		c0,0-0.1,0-0.1,0c-0.3,0-0.5,0.2-0.7,0.3c-0.2,0.1-0.3,0.3-0.2,0.5c0,0,0,0,0,0l1.8,7.6c0.1,0.3,0.2,0.5,0.4,0.7
		c0.2,0.1,0.4,0.2,0.6,0.2h8.3c0.3,0,0.5-0.1,0.6-0.2c0.2-0.2,0.3-0.4,0.4-0.7l2-8.9c0-0.1,0-0.1,0-0.2c0-0.2-0.1-0.3-0.2-0.4
		c-0.1-0.1-0.3-0.2-0.5-0.2C53.6,723.5,53.5,723.5,53.4,723.5z"/>
	<g id="_1849662416_15_">
		<path class="st6" d="M59.9,735.8l0.4-0.7l-0.7-0.4l0.4-0.7l-1.5-0.8l-0.9,1.5l0,0c0.3,0.1,0.5,0.3,0.7,0.4l-0.4,0.7l0.7,0.4
			l-0.8,1.5l0.7,0.4c-0.2,0.5-0.6,1.1-0.9,1.5l0,0c0.2,0.1,0.4,0.2,0.5,0.3c0.3,0.1,0.2,0.1,0,0.5c-0.2,0.4-0.4,0.8-0.7,1.1l0.7,0.4
			c0,0.2-0.7,1.2-0.8,1.5l5.9,3.4l0.9-1.5l0.8,0.4l1.3-2.2l0.7,0.4l3-5.2c-0.1-0.1-0.7-0.4-0.7-0.5c0-0.2,0.4-0.6,0.4-0.7
			c-0.1-0.1-0.5-0.4-0.7-0.4l-1.3,2.2l-0.7-0.4l1.7-3l-1.5-0.9l-1.3,2.2l-0.7-0.4l1.7-2.9c-0.1-0.1-1.3-0.8-1.5-0.9l-1.7,3l-0.7-0.4
			c0-0.1,0.1-0.1,0.1-0.2c1.2-2.1,2.5-4.3,3.7-6.5l-1.5-0.8l-4.7,8.1C60.4,736.1,59.9,735.8,59.9,735.8L59.9,735.8z"/>
		<path class="st7" d="M57.7,739.5c-0.1,0.1-0.1,0.2-0.2,0.3l-0.7,1.1c0.1,0.1,0.2,0.1,0.4,0.2c0.1,0.1,0.2,0.1,0.3,0.2
			c-0.4,0.8-0.8,1.5-1.2,2.2c0.6,0.4,1.2,0.7,1.8,1.1l3.7,2.2c0.6,0.4,1.3,0.7,1.9,1.1c0.1-0.2,0.1-0.3,0.3-0.5
			c0.1-0.2,0.4-0.6,0.5-0.9c0.1-0.1,0.1-0.1,0.2-0.3c0.1-0.2,0.2-0.4,0.3-0.6c0.1,0.2,0.5,0.3,0.7,0.4c0.4-0.7,0.8-1.4,1.3-2.2
			c0.2,0.1,0.4,0.2,0.6,0.3c0.1,0.1,0.1,0.1,0.2,0c0.2-0.3,0.3-0.6,0.5-0.9c0.3-0.6,0.7-1.1,1-1.7l1.4-2.5c-0.2-0.1-0.6-0.3-0.7-0.4
			l-3,5.2l-0.7-0.4l-1.3,2.2l-0.8-0.4l-0.9,1.5l-5.9-3.4c0.1-0.3,0.8-1.3,0.8-1.5l-0.7-0.4c0.2-0.4,0.4-0.8,0.7-1.1
			c0.2-0.4,0.2-0.3,0-0.5C58.1,739.7,57.9,739.6,57.7,739.5z"/>
		<path class="st7" d="M60,733.9l-0.4,0.7l0.7,0.4l-0.4,0.7l0.7,0.4l4.7-8.1l-0.7-0.4c0,0,0,0,0,0l0,0c0,0,0,0,0,0l-3.8,6.6
			C60.5,734.1,60.3,734,60,733.9z"/>
		<path class="st7" d="M66.8,728.9l-3.9,6.6l0.7,0.4l1.7-3c0.2,0,1.4,0.8,1.5,0.9c0.2,0.2,1.6,0.9,1.9,1.1c0,0,0.1,0-0.1-0.1
			l-1.5-0.8c-0.4-0.2-0.3-0.1,0.1-0.9l-1.1-0.6c-0.1-0.1-0.2-0.1-0.3-0.2l1.7-2.9c-0.2-0.1-0.3-0.2-0.6-0.4
			C66.9,729,66.9,729,66.8,728.9z"/>
		<path class="st7" d="M68.7,735.9l0.4-0.7c-0.1-0.1-0.2-0.2-0.4-0.2c-0.3-0.2-1.7-0.9-1.9-1.1l-1.7,2.9l0.7,0.4l1.3-2.2L68.7,735.9
			z"/>
		<path class="st7" d="M57.6,734.5c-0.1,0.1-0.1,0.1-0.2,0.3c-0.1,0.1-0.1,0.3-0.2,0.4l0.7,0.4c-0.1,0.2-0.7,1.3-0.8,1.5l0.7,0.4
			l-0.6,1.1c-0.1,0.2-0.1,0.2-0.2,0.4l0.7,0.4c0.3-0.4,0.7-1,0.9-1.5l-0.7-0.4l0.8-1.5l-0.7-0.4l0.4-0.7
			C58.1,734.8,57.9,734.6,57.6,734.5z"/>
		<path class="st7" d="M57.7,734.5l0.9-1.5l1.5,0.8l0.2-0.4c0.1-0.1,0.1-0.2,0.2-0.4l-2-1.1c-0.3-0.2-0.2-0.2-0.5,0.2l-0.9,1.6
			c-0.1,0.2-0.2,0.2,0,0.3C57.1,734.2,57.5,734.5,57.7,734.5z"/>
		<path class="st7" d="M69.7,737.5c0.1,0,0,0,0.1-0.1c0,0,0.1-0.1,0.1-0.1c0-0.2,0.2-0.4,0.3-0.6l-1.5-0.8l-1.7,3l0.7,0.4l1.3-2.2
			C69.2,737.2,69.6,737.4,69.7,737.5z"/>
		<path class="st7" d="M66.8,728.9c0.1-0.2,0.3-0.5,0.4-0.7l-1.5-0.8l-0.4,0.7L66.8,728.9z"/>
		<path class="st7" d="M69.7,737.5c0,0.2-0.4,0.6-0.4,0.7c0,0.1,0.6,0.4,0.7,0.5c0.2,0.1,0.5,0.3,0.7,0.4l-1.4,2.5l1.5-2.5l-0.7-0.4
			c0.1-0.1,0.1-0.2,0.2-0.4c0.1-0.1,0.2-0.3,0.2-0.4c-0.8-0.5-0.8-0.3-0.6-0.6c0,0-0.1,0.1-0.1,0.1
			C69.7,737.6,69.8,737.5,69.7,737.5z"/>
	</g>
	<path class="st5" d="M94.4,735.7h-2.5l2.1-7.2l-4.3,7.2h-2.6l-0.5-7.3l-1.8,7.3h-2.6l2.9-10.9h3.5l0.5,7.7l4.6-7.7h3.5L94.4,735.7z
		 M103.9,735.7h-5.6c-0.8,0-1.3-0.2-1.7-0.6c-0.4-0.4-0.4-1-0.2-1.8c0.3-0.9,0.7-1.6,1.3-2c0.6-0.4,1.5-0.6,2.6-0.6h2.5
		c0.1-0.4,0.1-0.7-0.1-0.8c-0.2-0.2-0.6-0.2-1.3-0.2h-3.6l0.5-2h4.3c1.1,0,1.9,0.3,2.3,0.8c0.4,0.5,0.5,1.3,0.2,2.3L103.9,735.7z
		 M101.9,733.8l0.3-1.2H100c-0.4,0-0.7,0-0.9,0.1c-0.2,0.1-0.3,0.3-0.3,0.5c-0.1,0.2-0.1,0.3,0,0.4c0,0,0.1,0.1,0.2,0.1
		c0.1,0,0.3,0,0.5,0H101.9z M112.7,735.7h-2.4l1.3-4.9c0.1-0.5,0.2-0.8,0-1c-0.1-0.1-0.4-0.2-0.9-0.2h-1.4l-1.6,6.1h-2.4l2.2-8.1h4
		c1.2,0,2,0.2,2.4,0.7c0.4,0.5,0.5,1.2,0.2,2.3L112.7,735.7z M121.4,735.7H119l1.3-4.9c0.1-0.5,0.1-0.8,0-0.9
		c-0.1-0.1-0.2-0.1-0.3-0.2c-0.1,0-0.3-0.1-0.6-0.1l-1.4,0l-1.6,6.1H114l2.9-10.9h2.4l-0.8,2.8h1.6c1.2,0,2,0.2,2.4,0.7
		c0.4,0.5,0.5,1.2,0.2,2.3L121.4,735.7z M130.7,735.7H125c-0.8,0-1.3-0.2-1.7-0.6c-0.4-0.4-0.4-1-0.2-1.8c0.3-0.9,0.7-1.6,1.3-2
		c0.6-0.4,1.5-0.6,2.6-0.6h2.5c0.1-0.4,0.1-0.7-0.1-0.8c-0.2-0.2-0.6-0.2-1.3-0.2h-3.6l0.5-2h4.3c1.1,0,1.9,0.3,2.3,0.8
		c0.4,0.5,0.5,1.3,0.2,2.3L130.7,735.7z M128.7,733.8l0.3-1.2h-2.2c-0.4,0-0.7,0-0.9,0.1c-0.2,0.1-0.3,0.3-0.3,0.5
		c-0.1,0.2,0,0.3,0,0.4c0,0,0.1,0.1,0.2,0.1c0.1,0,0.3,0,0.5,0H128.7z M134.5,735.7H132l2.9-10.9h2.5L134.5,735.7z M140.2,735.7H138
		l0.6-2.2h2.1L140.2,735.7z M147.9,735.7H145c-0.4,0-0.7,0-1-0.1c-0.3,0-0.5-0.1-0.8-0.2c-0.4-0.1-0.8-0.4-1-0.8
		c-0.1-0.2-0.2-0.4-0.3-0.6c-0.1-0.2-0.2-0.5-0.2-0.7c0-0.3,0-0.5,0-0.8c0-0.3,0.1-0.6,0.2-0.9c0.2-0.6,0.4-1.2,0.8-1.7
		c0.3-0.5,0.7-1,1.3-1.4c0.4-0.3,0.9-0.6,1.4-0.7c0.5-0.2,1.1-0.2,1.9-0.2h2.9l-0.5,2h-2.3c-0.5,0-0.9,0-1.2,0.1
		c-0.3,0.1-0.6,0.2-0.8,0.4c-0.4,0.3-0.7,0.8-0.9,1.6c-0.1,0.4-0.1,0.8-0.1,1.1c0.1,0.3,0.1,0.6,0.4,0.7l0.4,0.2c0.1,0,0.3,0,0.4,0
		c0.1,0,0.4,0,0.6,0h2.3L147.9,735.7z M158,731.7c-0.3,1.3-1,2.3-2,3.1c-1,0.8-2.1,1.1-3.4,1.1c-1.3,0-2.2-0.4-2.8-1.1
		c-0.6-0.8-0.7-1.8-0.3-3.1c0.3-1.3,1-2.3,2-3c1-0.8,2.1-1.1,3.4-1.1c1.3,0,2.2,0.4,2.8,1.1C158.2,729.4,158.3,730.4,158,731.7z
		 M155.5,731.7c0.2-0.7,0.1-1.2-0.1-1.6c-0.2-0.4-0.6-0.6-1.1-0.6c-0.5,0-1,0.2-1.4,0.6c-0.4,0.4-0.7,0.9-0.9,1.6
		c-0.1,0.4-0.1,0.7-0.1,0.9c0,0.3,0.1,0.5,0.2,0.7c0.2,0.4,0.6,0.6,1.1,0.6c0.6,0,1-0.2,1.4-0.6C155,732.9,155.3,732.4,155.5,731.7z
		 M169.2,735.7h-2.4l1.3-4.9c0.1-0.5,0.2-0.8,0.1-1c-0.1-0.2-0.4-0.2-0.9-0.2l-0.9,0l-1.6,6.1h-2.4l1.6-6.1h-2l-1.6,6.1h-2.4
		l2.2-8.1h8c1.2,0,2,0.2,2.4,0.7c0.4,0.5,0.5,1.2,0.2,2.3L169.2,735.7z"/>
	<path class="st5" d="M27.4,727.7l21.2-2.2c0.2,0,0.5,0,0.7,0c0.5,0.1,1,0.3,1.4,0.7c0.4,0.3,0.6,0.8,0.7,1.3c0,0.2,0,0.4,0,0.6
		l-3.7,9.6c-0.1,0.7-0.5,1.3-1,1.7c-0.5,0.4-1.1,0.7-1.8,0.7H30.3c-0.7,0-1.3-0.3-1.8-0.7h0c-0.5-0.4-0.8-1.1-1-1.7l-2.9-7.4
		c0-0.1,0-0.1,0-0.2c-0.1-0.6,0.2-1.2,0.7-1.6c0.5-0.4,1.1-0.6,1.7-0.8C27.2,727.7,27.3,727.7,27.4,727.7z M47.1,727.5l-19.8,2.1
		c-0.1,0-0.2,0-0.2,0c-0.4,0.1-0.9,0.3-1.2,0.5c-0.3,0.2-0.4,0.5-0.4,0.8c0,0,0,0.1,0,0.1l2.7,6.5c0.1,0.5,0.3,0.9,0.7,1.2
		c0.3,0.2,0.6,0.4,1,0.4h13.6c0.4,0,0.8-0.1,1-0.4c0.3-0.3,0.5-0.7,0.7-1.2l3.4-8.6c0-0.1,0-0.2,0-0.3c0-0.3-0.2-0.5-0.4-0.7
		c-0.2-0.2-0.5-0.4-0.8-0.4C47.4,727.5,47.2,727.5,47.1,727.5z"/>
	<path class="st5" d="M87.1,721.4l-0.5,1.7H86l1.2-4.5h1.3c0.3,0,0.5,0,0.7,0.1c0.2,0.1,0.3,0.2,0.4,0.3c0.1,0.1,0.2,0.3,0.2,0.4
		c0,0.2,0,0.4-0.1,0.6c-0.1,0.2-0.1,0.4-0.3,0.6c-0.1,0.2-0.3,0.3-0.4,0.4c-0.2,0.1-0.4,0.2-0.6,0.3c-0.2,0.1-0.5,0.1-0.7,0.1H87.1z
		 M87.2,720.9h0.7c0.2,0,0.3,0,0.5-0.1c0.1,0,0.3-0.1,0.4-0.2c0.1-0.1,0.2-0.2,0.3-0.3c0.1-0.1,0.1-0.2,0.2-0.4
		c0.1-0.3,0.1-0.5-0.1-0.7c-0.1-0.2-0.4-0.2-0.7-0.2h-0.7L87.2,720.9z"/>
	<path id="_x31__15_" class="st5" d="M91.7,719.8c0.2,0,0.4,0,0.6,0.1c0.2,0.1,0.3,0.2,0.4,0.3c0.1,0.1,0.1,0.3,0.2,0.5
		c0,0.2,0,0.4-0.1,0.7c-0.1,0.3-0.2,0.5-0.3,0.7c-0.1,0.2-0.3,0.4-0.4,0.5c-0.2,0.1-0.4,0.3-0.6,0.3c-0.2,0.1-0.4,0.1-0.7,0.1
		c-0.2,0-0.4,0-0.6-0.1c-0.2-0.1-0.3-0.2-0.4-0.3c-0.1-0.1-0.1-0.3-0.2-0.5c0-0.2,0-0.4,0.1-0.7c0.1-0.3,0.2-0.5,0.3-0.7
		c0.1-0.2,0.3-0.4,0.4-0.5c0.2-0.1,0.4-0.3,0.6-0.3C91.3,719.9,91.5,719.8,91.7,719.8z M91,722.6c0.3,0,0.6-0.1,0.8-0.3
		c0.2-0.2,0.4-0.5,0.5-0.9c0.1-0.4,0.1-0.7,0-0.9c-0.1-0.2-0.3-0.3-0.6-0.3c-0.2,0-0.3,0-0.4,0.1c-0.1,0.1-0.3,0.1-0.4,0.2
		c-0.1,0.1-0.2,0.2-0.3,0.4c-0.1,0.1-0.1,0.3-0.2,0.5c0,0.2-0.1,0.4-0.1,0.5c0,0.1,0,0.3,0.1,0.4c0.1,0.1,0.1,0.2,0.2,0.2
		C90.7,722.6,90.8,722.6,91,722.6z"/>
	<path id="_x32__15_" class="st5" d="M93.5,719.9H94c0,0,0.1,0,0.1,0c0,0,0,0,0,0.1l0.1,2c0,0.1,0,0.1,0,0.2c0,0.1,0,0.1,0,0.2
		c0-0.1,0.1-0.1,0.1-0.2c0-0.1,0.1-0.1,0.1-0.2l1.2-2.1c0,0,0-0.1,0.1-0.1c0,0,0.1,0,0.1,0H96c0,0,0.1,0,0.1,0c0,0,0,0,0,0.1
		l0.1,2.1c0,0.1,0,0.1,0,0.2c0,0.1,0,0.1,0,0.2c0-0.1,0.1-0.1,0.1-0.2c0-0.1,0.1-0.1,0.1-0.2l1.2-2c0,0,0-0.1,0.1-0.1
		c0,0,0.1,0,0.1,0h0.4l-1.9,3.2h-0.4c-0.1,0-0.1,0-0.1-0.1l-0.1-2.2c0,0,0-0.1,0-0.1c0-0.1,0-0.1,0-0.1c0,0,0,0.1-0.1,0.1
		c0,0,0,0.1-0.1,0.1l-1.3,2.2c0,0.1-0.1,0.1-0.2,0.1h-0.4L93.5,719.9z"/>
	<path id="_x33__15_" class="st5" d="M100,719.8c0.2,0,0.4,0,0.5,0.1c0.1,0.1,0.3,0.2,0.3,0.3c0.1,0.1,0.1,0.3,0.2,0.4
		c0,0.2,0,0.4-0.1,0.6c0,0.1,0,0.1-0.1,0.2c0,0-0.1,0-0.1,0h-2.1c-0.1,0.2-0.1,0.4-0.1,0.5c0,0.1,0,0.3,0.1,0.4
		c0.1,0.1,0.1,0.2,0.3,0.2c0.1,0,0.2,0.1,0.4,0.1c0.1,0,0.3,0,0.4,0c0.1,0,0.2-0.1,0.3-0.1c0.1,0,0.2-0.1,0.2-0.1
		c0.1,0,0.1-0.1,0.1-0.1c0,0,0.1,0,0.1,0.1l0.1,0.2c-0.1,0.1-0.2,0.2-0.3,0.2c-0.1,0.1-0.2,0.1-0.3,0.2c-0.1,0-0.2,0.1-0.4,0.1
		c-0.1,0-0.2,0-0.4,0c-0.2,0-0.4,0-0.6-0.1c-0.2-0.1-0.3-0.2-0.4-0.3c-0.1-0.1-0.2-0.3-0.2-0.5c0-0.2,0-0.5,0.1-0.7
		c0.1-0.2,0.1-0.4,0.3-0.6c0.1-0.2,0.3-0.4,0.4-0.5c0.2-0.1,0.4-0.3,0.6-0.3C99.6,719.8,99.8,719.8,100,719.8z M99.9,720.2
		c-0.3,0-0.5,0.1-0.7,0.2c-0.2,0.2-0.4,0.4-0.5,0.6h1.7c0-0.1,0.1-0.3,0-0.4c0-0.1,0-0.2-0.1-0.3c0-0.1-0.1-0.1-0.2-0.2
		C100.2,720.2,100,720.2,99.9,720.2z"/>
	<path id="_x34__15_" class="st5" d="M101.2,723l0.9-3.2h0.3c0.1,0,0.1,0,0.1,0c0,0,0,0.1,0,0.1l-0.1,0.5c0.2-0.2,0.4-0.4,0.5-0.5
		c0.2-0.1,0.4-0.2,0.6-0.2c0.1,0,0.2,0,0.2,0c0.1,0,0.1,0,0.2,0.1l-0.2,0.4c0,0.1-0.1,0.1-0.1,0.1c0,0-0.1,0-0.1,0
		c-0.1,0-0.1,0-0.2,0c-0.2,0-0.4,0.1-0.5,0.2c-0.2,0.1-0.3,0.3-0.5,0.5l-0.5,2H101.2z"/>
	<path id="_x35__15_" class="st5" d="M105.8,719.8c0.2,0,0.4,0,0.5,0.1c0.1,0.1,0.3,0.2,0.3,0.3c0.1,0.1,0.1,0.3,0.2,0.4
		c0,0.2,0,0.4-0.1,0.6c0,0.1,0,0.1-0.1,0.2c0,0-0.1,0-0.1,0h-2.1c-0.1,0.2-0.1,0.4-0.1,0.5c0,0.1,0,0.3,0.1,0.4
		c0.1,0.1,0.1,0.2,0.3,0.2c0.1,0,0.2,0.1,0.4,0.1c0.1,0,0.3,0,0.4,0c0.1,0,0.2-0.1,0.3-0.1c0.1,0,0.2-0.1,0.2-0.1
		c0.1,0,0.1-0.1,0.1-0.1c0,0,0.1,0,0.1,0.1l0.1,0.2c-0.1,0.1-0.2,0.2-0.3,0.2c-0.1,0.1-0.2,0.1-0.3,0.2c-0.1,0-0.2,0.1-0.4,0.1
		c-0.1,0-0.2,0-0.4,0c-0.2,0-0.4,0-0.6-0.1c-0.2-0.1-0.3-0.2-0.4-0.3c-0.1-0.1-0.2-0.3-0.2-0.5c0-0.2,0-0.5,0.1-0.7
		c0.1-0.2,0.2-0.4,0.3-0.6c0.1-0.2,0.3-0.4,0.4-0.5c0.2-0.1,0.4-0.3,0.6-0.3C105.4,719.8,105.6,719.8,105.8,719.8z M105.7,720.2
		c-0.3,0-0.5,0.1-0.7,0.2c-0.2,0.2-0.4,0.4-0.5,0.6h1.7c0-0.1,0-0.3,0-0.4c0-0.1,0-0.2-0.1-0.3c0-0.1-0.1-0.1-0.2-0.2
		C106,720.2,105.9,720.2,105.7,720.2z"/>
	<path id="_x36__15_" class="st5" d="M109.2,723c-0.1,0-0.1,0-0.1-0.1l0.1-0.4c-0.2,0.2-0.4,0.3-0.6,0.4c-0.2,0.1-0.4,0.1-0.6,0.1
		c-0.2,0-0.3,0-0.5-0.1c-0.1-0.1-0.2-0.2-0.3-0.3c-0.1-0.1-0.1-0.3-0.1-0.5c0-0.2,0-0.4,0.1-0.7c0.1-0.2,0.2-0.5,0.3-0.7
		c0.1-0.2,0.3-0.4,0.4-0.5c0.2-0.2,0.3-0.3,0.5-0.4c0.2-0.1,0.4-0.1,0.6-0.1c0.2,0,0.4,0,0.5,0.1c0.1,0.1,0.2,0.2,0.3,0.3l0.5-1.8
		h0.6l-1.2,4.6H109.2z M108.3,722.6c0.2,0,0.4,0,0.5-0.1c0.2-0.1,0.3-0.2,0.5-0.4l0.4-1.5c-0.1-0.1-0.2-0.2-0.3-0.3
		c-0.1-0.1-0.2-0.1-0.4-0.1c-0.3,0-0.6,0.1-0.8,0.3c-0.2,0.2-0.4,0.5-0.5,0.9c-0.1,0.2-0.1,0.4-0.1,0.5c0,0.1,0,0.3,0.1,0.4
		c0,0.1,0.1,0.2,0.2,0.2C108,722.6,108.1,722.6,108.3,722.6z"/>
	<path id="_x37__15_" class="st5" d="M111.7,723l1.2-4.6h0.6l-0.5,1.9c0.2-0.2,0.4-0.3,0.6-0.4c0.2-0.1,0.4-0.1,0.6-0.1
		c0.2,0,0.3,0,0.5,0.1c0.1,0.1,0.2,0.2,0.3,0.3c0.1,0.1,0.1,0.3,0.1,0.5c0,0.2,0,0.4-0.1,0.7c-0.1,0.2-0.2,0.5-0.3,0.7
		c-0.1,0.2-0.3,0.4-0.4,0.5c-0.2,0.1-0.3,0.3-0.5,0.3c-0.2,0.1-0.4,0.1-0.6,0.1c-0.2,0-0.4,0-0.5-0.1c-0.1-0.1-0.2-0.2-0.3-0.3
		l-0.1,0.3c0,0.1-0.1,0.1-0.2,0.1H111.7z M113.9,720.3c-0.2,0-0.4,0-0.5,0.1c-0.2,0.1-0.3,0.2-0.5,0.4l-0.4,1.5
		c0.1,0.1,0.1,0.2,0.3,0.3c0.1,0.1,0.2,0.1,0.4,0.1c0.3,0,0.6-0.1,0.8-0.3c0.2-0.2,0.4-0.5,0.5-0.9c0.1-0.2,0.1-0.4,0.1-0.5
		c0-0.1,0-0.3-0.1-0.4c0-0.1-0.1-0.2-0.2-0.2C114.1,720.3,114,720.3,113.9,720.3z"/>
	<path id="_x38__15_" class="st5" d="M115.8,724c0,0-0.1,0.1-0.1,0.1c0,0-0.1,0-0.1,0h-0.4l0.9-1.2l-0.5-3h0.5c0,0,0.1,0,0.1,0
		c0,0,0,0,0,0.1l0.3,2c0,0,0,0.1,0,0.1c0,0,0,0.1,0,0.1c0,0,0.1-0.1,0.1-0.1c0,0,0.1-0.1,0.1-0.1l1.4-2c0,0,0.1-0.1,0.1-0.1
		c0,0,0.1,0,0.1,0h0.4L115.8,724z"/>
	<path id="_x39__15_" class="st5" d="M118.4,722.7c0-0.1,0-0.1,0.1-0.2c0-0.1,0.1-0.1,0.1-0.1c0,0,0.1-0.1,0.1-0.1
		c0.1,0,0.1,0,0.2,0c0.1,0,0.1,0,0.1,0c0,0,0.1,0,0.1,0.1c0,0,0,0.1,0.1,0.1c0,0,0,0.1,0,0.2c0,0.1,0,0.1-0.1,0.2
		c0,0-0.1,0.1-0.1,0.1c0,0-0.1,0.1-0.1,0.1c-0.1,0-0.1,0-0.2,0c-0.1,0-0.1,0-0.1,0c0,0-0.1,0-0.1-0.1c0,0,0-0.1,0-0.1
		C118.4,722.8,118.4,722.8,118.4,722.7z M119,720.3c0-0.1,0-0.1,0.1-0.2c0,0,0.1-0.1,0.1-0.1c0,0,0.1-0.1,0.1-0.1c0.1,0,0.1,0,0.2,0
		c0.1,0,0.1,0,0.1,0c0,0,0.1,0,0.1,0.1c0,0,0,0.1,0.1,0.1c0,0,0,0.1,0,0.2c0,0.1,0,0.1-0.1,0.2c0,0-0.1,0.1-0.1,0.1
		c0,0-0.1,0.1-0.1,0.1c-0.1,0-0.1,0-0.2,0c-0.1,0-0.1,0-0.1,0c0,0-0.1,0-0.1-0.1c0,0,0-0.1,0-0.1C119,720.5,119,720.4,119,720.3z"/>
	<path class="st5" d="M125.5,738.1l-0.1,0.5h-2.3l-0.4,1.6h1.8l-0.1,0.5h-1.8l-0.4,1.6h2.3l-0.1,0.5h-2.9l1.3-4.8H125.5z
		 M125.5,740.6h1.6l-0.1,0.5h-1.6L125.5,740.6z M128.2,742.3h2.1l-0.1,0.5h-2.7l1.3-4.8h0.6L128.2,742.3z M132.9,739.5
		c0.2,0,0.4,0,0.5,0.1c0.2,0.1,0.3,0.2,0.4,0.3c0.1,0.1,0.1,0.3,0.2,0.5c0,0.2,0,0.4-0.1,0.6c0,0.1-0.1,0.2-0.1,0.2c0,0-0.1,0-0.1,0
		h-2.2c-0.1,0.2-0.1,0.4-0.1,0.6c0,0.2,0,0.3,0.1,0.4c0.1,0.1,0.2,0.2,0.3,0.2c0.1,0.1,0.3,0.1,0.4,0.1c0.1,0,0.3,0,0.4-0.1
		c0.1,0,0.2-0.1,0.3-0.1c0.1,0,0.2-0.1,0.2-0.1c0.1,0,0.1-0.1,0.1-0.1c0,0,0.1,0,0.1,0.1l0.1,0.2c-0.1,0.1-0.2,0.2-0.3,0.2
		c-0.1,0.1-0.2,0.1-0.4,0.2c-0.1,0-0.3,0.1-0.4,0.1c-0.1,0-0.3,0-0.4,0c-0.2,0-0.4,0-0.6-0.1c-0.2-0.1-0.3-0.2-0.4-0.3
		c-0.1-0.2-0.2-0.3-0.2-0.6c0-0.2,0-0.5,0.1-0.8c0.1-0.2,0.2-0.5,0.3-0.7c0.1-0.2,0.3-0.4,0.5-0.5c0.2-0.1,0.4-0.3,0.6-0.4
		C132.4,739.5,132.6,739.5,132.9,739.5z M132.8,739.9c-0.3,0-0.5,0.1-0.7,0.2c-0.2,0.2-0.4,0.4-0.5,0.7h1.8c0-0.1,0.1-0.3,0-0.4
		c0-0.1,0-0.2-0.1-0.3c-0.1-0.1-0.1-0.1-0.2-0.2C133,739.9,132.9,739.9,132.8,739.9z M136.6,742.9h-0.3c-0.1,0-0.1,0-0.1,0
		c0,0,0-0.1,0-0.1l0-0.3c-0.1,0.1-0.2,0.2-0.3,0.2c-0.1,0.1-0.2,0.1-0.3,0.2c-0.1,0-0.2,0.1-0.3,0.1c-0.1,0-0.2,0-0.4,0
		c-0.1,0-0.2,0-0.4-0.1c-0.1,0-0.2-0.1-0.3-0.2c-0.1-0.1-0.1-0.2-0.1-0.3c0-0.1,0-0.2,0-0.4c0-0.1,0.1-0.3,0.2-0.4
		c0.1-0.1,0.3-0.2,0.4-0.3c0.2-0.1,0.4-0.2,0.7-0.2c0.3-0.1,0.6-0.1,1-0.1l0.1-0.3c0.1-0.3,0.1-0.5,0-0.6c-0.1-0.1-0.2-0.2-0.4-0.2
		c-0.1,0-0.3,0-0.4,0.1c-0.1,0-0.2,0.1-0.3,0.1c-0.1,0-0.2,0.1-0.2,0.1c-0.1,0-0.1,0.1-0.2,0.1c0,0-0.1,0-0.1,0c0,0,0,0-0.1-0.1
		l-0.1-0.2c0.2-0.2,0.5-0.3,0.7-0.4c0.2-0.1,0.5-0.1,0.8-0.1c0.2,0,0.3,0,0.5,0.1c0.1,0.1,0.2,0.1,0.3,0.3c0.1,0.1,0.1,0.2,0.1,0.4
		c0,0.2,0,0.3-0.1,0.5L136.6,742.9z M135.2,742.5c0.1,0,0.2,0,0.3,0s0.2-0.1,0.3-0.1c0.1,0,0.2-0.1,0.3-0.1c0.1-0.1,0.2-0.1,0.3-0.2
		l0.2-0.7c-0.3,0-0.5,0-0.7,0.1c-0.2,0-0.4,0.1-0.5,0.1c-0.1,0.1-0.2,0.1-0.3,0.2c-0.1,0.1-0.1,0.2-0.1,0.3c0,0.1,0,0.2,0,0.2
		c0,0.1,0,0.1,0.1,0.2c0,0,0.1,0.1,0.1,0.1C135,742.5,135.1,742.5,135.2,742.5z M137.5,742.9l0.9-3.4h0.3c0.1,0,0.1,0,0.1,0
		c0,0,0,0.1,0,0.1l-0.1,0.6c0.2-0.2,0.4-0.4,0.6-0.6c0.2-0.1,0.4-0.2,0.6-0.2c0.1,0,0.2,0,0.2,0c0.1,0,0.1,0.1,0.2,0.1l-0.2,0.4
		c0,0.1-0.1,0.1-0.1,0.1c0,0-0.1,0-0.1,0c-0.1,0-0.1,0-0.3,0c-0.2,0-0.4,0.1-0.6,0.2c-0.2,0.1-0.3,0.3-0.5,0.5l-0.6,2.1H137.5z
		 M140.2,742.9l0.9-3.4h0.4c0.1,0,0.1,0,0.1,0.1l-0.1,0.4c0.2-0.2,0.4-0.3,0.6-0.4c0.2-0.1,0.4-0.2,0.7-0.2c0.2,0,0.3,0,0.5,0.1
		c0.1,0.1,0.2,0.1,0.3,0.3c0.1,0.1,0.1,0.2,0.1,0.4c0,0.2,0,0.3-0.1,0.5l-0.6,2.1h-0.6l0.6-2.1c0.1-0.3,0.1-0.5,0-0.6
		c-0.1-0.1-0.2-0.2-0.5-0.2c-0.2,0-0.3,0-0.5,0.1c-0.2,0.1-0.3,0.2-0.5,0.3l-0.7,2.5H140.2z M145.4,739.5l-0.9,3.4h-0.6l0.9-3.4
		H145.4z M145.8,738.5c0,0.1,0,0.1-0.1,0.2c0,0-0.1,0.1-0.1,0.1c0,0-0.1,0.1-0.2,0.1c-0.1,0-0.1,0-0.2,0c-0.1,0-0.1,0-0.2,0
		c0,0-0.1-0.1-0.1-0.1c0,0,0-0.1-0.1-0.1c0,0,0-0.1,0-0.2c0-0.1,0-0.1,0.1-0.2c0-0.1,0.1-0.1,0.1-0.1c0,0,0.1-0.1,0.2-0.1
		c0.1,0,0.1,0,0.2,0c0.1,0,0.1,0,0.2,0c0,0,0.1,0.1,0.1,0.1c0,0,0,0.1,0.1,0.1C145.8,738.3,145.8,738.4,145.8,738.5z M145.6,742.9
		l0.9-3.4h0.4c0.1,0,0.1,0,0.1,0.1l-0.1,0.4c0.2-0.2,0.4-0.3,0.6-0.4c0.2-0.1,0.4-0.2,0.7-0.2c0.2,0,0.3,0,0.5,0.1
		c0.1,0.1,0.2,0.1,0.3,0.3c0.1,0.1,0.1,0.2,0.1,0.4c0,0.2,0,0.3-0.1,0.5l-0.6,2.1h-0.6l0.6-2.1c0.1-0.3,0.1-0.5,0-0.6
		c-0.1-0.1-0.2-0.2-0.5-0.2c-0.2,0-0.3,0-0.5,0.1c-0.2,0.1-0.3,0.2-0.5,0.3l-0.7,2.5H145.6z M151.3,739.5c0.1,0,0.3,0,0.4,0
		c0.1,0,0.2,0.1,0.3,0.1h0.9l-0.1,0.2c0,0.1-0.1,0.1-0.2,0.1l-0.4,0.1c0,0.1,0,0.3,0,0.5c0,0.2-0.1,0.3-0.2,0.4
		c-0.1,0.1-0.2,0.2-0.4,0.3c-0.1,0.1-0.3,0.2-0.5,0.2c-0.2,0-0.3,0.1-0.5,0.1c-0.2,0-0.3,0-0.4-0.1c-0.1,0-0.1,0.1-0.2,0.1
		c-0.1,0.1-0.1,0.1-0.1,0.2c0,0.1,0,0.1,0,0.2s0.1,0.1,0.2,0.1c0.1,0,0.2,0,0.4,0c0.1,0,0.3,0,0.4,0c0.1,0,0.3,0,0.4,0
		c0.1,0,0.2,0.1,0.3,0.1c0.1,0.1,0.2,0.1,0.2,0.2c0,0.1,0,0.2,0,0.4c0,0.1-0.1,0.3-0.2,0.4c-0.1,0.1-0.2,0.3-0.4,0.4
		c-0.2,0.1-0.3,0.2-0.6,0.3c-0.2,0.1-0.4,0.1-0.7,0.1c-0.2,0-0.5,0-0.6-0.1c-0.2,0-0.3-0.1-0.4-0.2c-0.1-0.1-0.2-0.2-0.2-0.3
		c0-0.1,0-0.2,0-0.3c0-0.2,0.1-0.3,0.3-0.4c0.1-0.1,0.3-0.2,0.5-0.3c-0.1,0-0.1-0.1-0.2-0.2c0-0.1,0-0.2,0-0.3c0,0,0-0.1,0.1-0.2
		c0-0.1,0.1-0.1,0.1-0.2c0-0.1,0.1-0.1,0.2-0.1c0.1,0,0.1-0.1,0.2-0.1c-0.1-0.1-0.2-0.2-0.3-0.4c-0.1-0.2-0.1-0.3,0-0.5
		c0-0.2,0.1-0.3,0.2-0.4c0.1-0.1,0.2-0.3,0.4-0.3c0.1-0.1,0.3-0.2,0.5-0.2C150.9,739.5,151.1,739.5,151.3,739.5z M151.4,743.1
		c0-0.1,0-0.2,0-0.2c0-0.1-0.1-0.1-0.2-0.1c-0.1,0-0.2,0-0.3-0.1c-0.1,0-0.2,0-0.3,0c-0.1,0-0.2,0-0.4,0c-0.1,0-0.2,0-0.3,0
		c-0.1,0.1-0.3,0.1-0.4,0.2c-0.1,0.1-0.2,0.2-0.2,0.3c0,0.1,0,0.1,0,0.2c0,0.1,0.1,0.1,0.1,0.2c0.1,0,0.2,0.1,0.3,0.1
		c0.1,0,0.3,0,0.4,0c0.2,0,0.3,0,0.4,0c0.1,0,0.3-0.1,0.4-0.1c0.1-0.1,0.2-0.1,0.3-0.2C151.3,743.2,151.4,743.1,151.4,743.1z
		 M150.8,741.2c0.1,0,0.2,0,0.3,0c0.1,0,0.2-0.1,0.3-0.1c0.1-0.1,0.1-0.1,0.2-0.2c0.1-0.1,0.1-0.2,0.1-0.3c0.1-0.2,0-0.4-0.1-0.5
		c-0.1-0.1-0.3-0.2-0.5-0.2c-0.2,0-0.4,0.1-0.6,0.2c-0.2,0.1-0.3,0.3-0.3,0.5c0,0.1,0,0.2,0,0.3c0,0.1,0,0.2,0.1,0.2
		c0,0.1,0.1,0.1,0.2,0.1C150.6,741.2,150.7,741.2,150.8,741.2z M158.5,738.1l-0.1,0.5h-1.5l-1.1,4.2h-0.6l1.1-4.2h-1.5l0.1-0.5
		H158.5z M159.4,739.5c0.2,0,0.4,0,0.5,0.1c0.2,0.1,0.3,0.2,0.4,0.3c0.1,0.1,0.1,0.3,0.2,0.5c0,0.2,0,0.4-0.1,0.6
		c0,0.1,0,0.2-0.1,0.2c0,0-0.1,0-0.1,0h-2.2c-0.1,0.2-0.1,0.4-0.1,0.6c0,0.2,0,0.3,0.1,0.4c0.1,0.1,0.2,0.2,0.3,0.2
		c0.1,0.1,0.2,0.1,0.4,0.1c0.1,0,0.3,0,0.4-0.1c0.1,0,0.2-0.1,0.3-0.1c0.1,0,0.2-0.1,0.2-0.1c0.1,0,0.1-0.1,0.1-0.1
		c0,0,0.1,0,0.1,0.1l0.1,0.2c-0.1,0.1-0.2,0.2-0.3,0.2c-0.1,0.1-0.2,0.1-0.4,0.2c-0.1,0-0.3,0.1-0.4,0.1c-0.1,0-0.3,0-0.4,0
		c-0.2,0-0.4,0-0.6-0.1c-0.2-0.1-0.3-0.2-0.4-0.3c-0.1-0.2-0.2-0.3-0.2-0.6c0-0.2,0-0.5,0.1-0.8c0.1-0.2,0.2-0.5,0.3-0.7
		c0.1-0.2,0.3-0.4,0.5-0.5c0.2-0.1,0.4-0.3,0.6-0.4C158.9,739.5,159.1,739.5,159.4,739.5z M159.3,739.9c-0.3,0-0.5,0.1-0.7,0.2
		c-0.2,0.2-0.4,0.4-0.5,0.7h1.8c0-0.1,0-0.3,0-0.4c0-0.1,0-0.2-0.1-0.3c-0.1-0.1-0.1-0.1-0.2-0.2
		C159.5,739.9,159.4,739.9,159.3,739.9z M163.1,742.9h-0.3c-0.1,0-0.1,0-0.1,0c0,0,0-0.1,0-0.1l0-0.3c-0.1,0.1-0.2,0.2-0.3,0.2
		c-0.1,0.1-0.2,0.1-0.3,0.2c-0.1,0-0.2,0.1-0.3,0.1c-0.1,0-0.2,0-0.4,0c-0.1,0-0.2,0-0.4-0.1c-0.1,0-0.2-0.1-0.3-0.2
		c-0.1-0.1-0.1-0.2-0.1-0.3c0-0.1,0-0.2,0-0.4c0-0.1,0.1-0.3,0.2-0.4c0.1-0.1,0.3-0.2,0.4-0.3c0.2-0.1,0.4-0.2,0.7-0.2
		c0.3-0.1,0.6-0.1,1-0.1l0.1-0.3c0.1-0.3,0.1-0.5,0-0.6c-0.1-0.1-0.2-0.2-0.4-0.2c-0.1,0-0.3,0-0.4,0.1c-0.1,0-0.2,0.1-0.3,0.1
		c-0.1,0-0.2,0.1-0.2,0.1c-0.1,0-0.1,0.1-0.2,0.1c0,0-0.1,0-0.1,0c0,0,0,0-0.1-0.1l-0.1-0.2c0.2-0.2,0.5-0.3,0.7-0.4
		c0.2-0.1,0.5-0.1,0.7-0.1c0.2,0,0.3,0,0.5,0.1c0.1,0.1,0.2,0.1,0.3,0.3c0.1,0.1,0.1,0.2,0.1,0.4c0,0.2,0,0.3-0.1,0.5L163.1,742.9z
		 M161.7,742.5c0.1,0,0.2,0,0.3,0c0.1,0,0.2-0.1,0.3-0.1c0.1,0,0.2-0.1,0.3-0.1c0.1-0.1,0.2-0.1,0.3-0.2l0.2-0.7
		c-0.3,0-0.5,0-0.7,0.1c-0.2,0-0.4,0.1-0.5,0.1c-0.1,0.1-0.2,0.1-0.3,0.2c-0.1,0.1-0.1,0.2-0.2,0.3c0,0.1,0,0.2,0,0.2
		c0,0.1,0,0.1,0.1,0.2c0,0,0.1,0.1,0.1,0.1C161.5,742.5,161.6,742.5,161.7,742.5z M164,742.9l0.9-3.4h0.3c0.1,0,0.1,0,0.1,0.1l0,0.3
		c0.2-0.2,0.3-0.3,0.5-0.4c0.2-0.1,0.4-0.1,0.6-0.1c0.2,0,0.4,0.1,0.5,0.2c0.1,0.1,0.2,0.3,0.2,0.5c0.1-0.1,0.2-0.2,0.3-0.3
		c0.1-0.1,0.2-0.2,0.3-0.2c0.1-0.1,0.2-0.1,0.3-0.1c0.1,0,0.2,0,0.3,0c0.2,0,0.3,0,0.5,0.1c0.1,0.1,0.2,0.1,0.3,0.2
		c0.1,0.1,0.1,0.2,0.1,0.4c0,0.2,0,0.3-0.1,0.5l-0.6,2.1H168l0.6-2.1c0.1-0.3,0.1-0.5,0-0.6c-0.1-0.1-0.2-0.2-0.4-0.2
		c-0.1,0-0.2,0-0.3,0.1c-0.1,0-0.2,0.1-0.3,0.2c-0.1,0.1-0.2,0.2-0.2,0.3c-0.1,0.1-0.1,0.2-0.2,0.4l-0.6,2.1H166l0.6-2.1
		c0.1-0.3,0.1-0.5,0-0.6c-0.1-0.1-0.2-0.2-0.4-0.2c-0.1,0-0.3,0-0.4,0.1c-0.1,0.1-0.3,0.2-0.4,0.3l-0.7,2.5H164z"/>
</g>
<g>
	<g>
		<g>
			<linearGradient id="SVGID_3_" gradientUnits="userSpaceOnUse" x1="228.0962" y1="200.2938" x2="228.0962" y2="285.2494">
				<stop  offset="0" style="stop-color:#9DB3CE"/>
				<stop  offset="1" style="stop-color:#91A8C6"/>
			</linearGradient>
			<path class="st8" d="M228.1,287.5c-25,0-45.4-20.4-45.4-45.4c0-25,20.4-45.4,45.4-45.4c25,0,45.4,20.4,45.4,45.4
				C273.5,267.2,253.1,287.5,228.1,287.5L228.1,287.5z"/>
			<linearGradient id="SVGID_4_" gradientUnits="userSpaceOnUse" x1="228.0962" y1="201.7943" x2="228.0962" y2="283.7039">
				<stop  offset="0" style="stop-color:#DCE8F1"/>
				<stop  offset="1" style="stop-color:#B0C1D6"/>
			</linearGradient>
			<circle class="st9" cx="228.1" cy="242.1" r="43.8"/>
			<linearGradient id="SVGID_5_" gradientUnits="userSpaceOnUse" x1="215.0994" y1="203.0968" x2="222.9643" y2="226.8269">
				<stop  offset="0" style="stop-color:#FBFEFF"/>
				<stop  offset="1" style="stop-color:#D6E4EE"/>
			</linearGradient>
			<path class="st10" d="M213.7,202.9c-16.1,5.3-21,16.6-23.5,24.2c-2.5,7.6,16.7,6.5,36.7-1.9c20-8.4,29.1-16.7,19.9-20.9
				C237.6,200.2,226.1,198.8,213.7,202.9z"/>
			
				<linearGradient id="SVGID_6_" gradientUnits="userSpaceOnUse" x1="-4418.1572" y1="4324.8647" x2="-4410.2925" y2="4348.5952" gradientTransform="matrix(-1 0 0 -1 -4176.667 4606.8242)">
				<stop  offset="0" style="stop-color:#8CA3BD"/>
				<stop  offset="1" style="stop-color:#BECEE0"/>
			</linearGradient>
			<path class="st11" d="M242.9,282.1c16.1-5.3,21-16.6,23.5-24.2c2.5-7.6-16.7-6.5-36.7,1.9c-20,8.4-29.1,16.7-19.9,20.9
				C219,284.9,230.5,286.2,242.9,282.1z"/>
			<g>
				<linearGradient id="SVGID_7_" gradientUnits="userSpaceOnUse" x1="209.35" y1="211.2853" x2="209.35" y2="278.0105">
					<stop  offset="0" style="stop-color:#D8E0EB"/>
					<stop  offset="1" style="stop-color:#A0B2C4"/>
				</linearGradient>
				<path class="st12" d="M208.5,229.2c-1.7-0.6-3.3-0.3-5.3,0.7c-2.2,1.2-3.7,1.1-6,1.6c-1.8,0.4-2.7,1.6-3.1,3.3
					c-0.2,0.9-0.5,2.2-0.6,3.1c-0.4,2.9,1.6,7,2.6,9.6c1.3,3.2,3.2,6.8,6.2,8.6c8.2,5,18.6,4.9,22.3-5.3c2.3-6.4-0.8-11.8-6.3-15.1
					c-2.8-1.7-5.1-3.3-7.7-5.3C209.9,229.9,209.2,229.4,208.5,229.2z"/>
				<linearGradient id="SVGID_8_" gradientUnits="userSpaceOnUse" x1="235.01" y1="211.2936" x2="235.01" y2="278.0182">
					<stop  offset="0" style="stop-color:#D8E0EB"/>
					<stop  offset="1" style="stop-color:#A0B2C4"/>
				</linearGradient>
				<path class="st13" d="M253.1,226.7c1.5-0.5,2.5-1.5,1.9-3.5c-0.8-3.1-4.2-4.5-7-5.4c-1.5-0.5-3.1-0.6-4.7-1
					c-1.8-0.5-2.4-1.4-3.9-2.6c-6.1-4.7-15.7-3.5-20.9,1.9c-2.4,2.4-4.5,6.8-3.3,10.3c0.7,1.9,2.2,2.2,4,3c2.5,1.1,5.3,2.5,7.2,4.5
					c2.4,2.4,3.1,4.3,7,4c6-0.4,9.1-6.7,13.7-9.5C248.5,227.5,251.2,227.4,253.1,226.7z"/>
				<linearGradient id="SVGID_9_" gradientUnits="userSpaceOnUse" x1="235.4077" y1="211.2854" x2="235.4077" y2="278.0106">
					<stop  offset="0" style="stop-color:#D8E0EB"/>
					<stop  offset="1" style="stop-color:#A0B2C4"/>
				</linearGradient>
				<path class="st14" d="M240.5,245.1c-2.3-1.1-5.5-5-7.8-5.5c-2-0.5-3.7,1.4-4.7,3.3c-2.3,4-1,8.9,3.3,10.8
					c3.8,1.7,11.8,1.8,12.5-3.8C244.2,246.8,243.1,246.4,240.5,245.1z"/>
				<linearGradient id="SVGID_10_" gradientUnits="userSpaceOnUse" x1="261.3547" y1="211.2876" x2="261.3547" y2="278.0096">
					<stop  offset="0" style="stop-color:#D8E0EB"/>
					<stop  offset="1" style="stop-color:#A0B2C4"/>
				</linearGradient>
				<path class="st15" d="M261.4,263.4c2.5-1.3,7.2-11.4,2.7-12.5c-3.1-0.7-5.8,5-6.7,7C256.1,260.8,256.6,265.9,261.4,263.4z"/>
				<linearGradient id="SVGID_11_" gradientUnits="userSpaceOnUse" x1="210.9291" y1="211.286" x2="210.9291" y2="278.0106">
					<stop  offset="0" style="stop-color:#D8E0EB"/>
					<stop  offset="1" style="stop-color:#A0B2C4"/>
				</linearGradient>
				<path class="st16" d="M217.3,265c-1-2-13.1-5.7-13.1-2c0,3.6,6.4,5.4,9.2,5.5C215.3,268.6,218.7,267.9,217.3,265z"/>
				<linearGradient id="SVGID_12_" gradientUnits="userSpaceOnUse" x1="259.659" y1="209.1344" x2="258.8454" y2="276.6631">
					<stop  offset="0" style="stop-color:#C7D3E4"/>
					<stop  offset="1" style="stop-color:#A0B2C4"/>
				</linearGradient>
				<path class="st17" d="M257.3,224.9c1.3,3.4,5.5,4.2,5.7-0.3c0.1-2.7-2.1-7.9-5.4-6.4C254.8,219.3,256.5,222.9,257.3,224.9z"/>
				<linearGradient id="SVGID_13_" gradientUnits="userSpaceOnUse" x1="268.7497" y1="209.2456" x2="267.9361" y2="276.7709">
					<stop  offset="0" style="stop-color:#C7D3E4"/>
					<stop  offset="1" style="stop-color:#A0B2C4"/>
				</linearGradient>
				<path class="st18" d="M268.1,245.2c2,1.4,2.3-3.1,2.1-4.2c-0.2-1.5,0-5.5-2.2-5.7C265.3,235,266.8,244.3,268.1,245.2z"/>
				<linearGradient id="SVGID_14_" gradientUnits="userSpaceOnUse" x1="189.0822" y1="211.2854" x2="189.0822" y2="278.0103">
					<stop  offset="0" style="stop-color:#D8E0EB"/>
					<stop  offset="1" style="stop-color:#A0B2C4"/>
				</linearGradient>
				<path class="st19" d="M190.6,241.9c0.7-1.3,1.1-7.5-1.4-7.3C184.6,234.9,188.4,246.1,190.6,241.9z"/>
				<linearGradient id="SVGID_15_" gradientUnits="userSpaceOnUse" x1="228.3666" y1="211.2835" x2="228.3666" y2="278.0107">
					<stop  offset="0" style="stop-color:#D8E0EB"/>
					<stop  offset="1" style="stop-color:#A0B2C4"/>
				</linearGradient>
				<path class="st20" d="M233.2,260.3c0.6,1,0,2.2,0.4,3.2c0.9,2.4,3.7,3.9,4.7,6.3c1.4,3-4.1,6.2-6.4,6.8c-2.5,0.6-8.5,0.9-8.6-3
					c-0.1-3,2.2-5.3-0.3-8c-1.4-1.5-7.5-3.2-3.9-5.9c2-1.4,5.1-1.6,7.5-1.4C228.9,258.4,232,258.1,233.2,260.3z"/>
				<linearGradient id="SVGID_16_" gradientUnits="userSpaceOnUse" x1="198.4996" y1="211.2848" x2="198.4996" y2="278.0107">
					<stop  offset="0" style="stop-color:#D8E0EB"/>
					<stop  offset="1" style="stop-color:#A0B2C4"/>
				</linearGradient>
				<path class="st21" d="M201.2,264.6c0.2-1.8-1.9-5.4-3.7-5.8c-3.7-0.9-0.8,5.6,0.6,6.5C199.4,266.1,201,266.2,201.2,264.6z"/>
			</g>
			<linearGradient id="SVGID_17_" gradientUnits="userSpaceOnUse" x1="213.145" y1="249.2593" x2="212.9416" y2="240.1057">
				<stop  offset="0" style="stop-color:#DCE8F1"/>
				<stop  offset="1" style="stop-color:#BECCDE"/>
			</linearGradient>
			<ellipse class="st22" cx="213" cy="244.8" rx="4.6" ry="4.9"/>
			<linearGradient id="SVGID_18_" gradientUnits="userSpaceOnUse" x1="242.3004" y1="230.2425" x2="242.1504" y2="223.4963">
				<stop  offset="0" style="stop-color:#DCE8F1"/>
				<stop  offset="1" style="stop-color:#BECCDE"/>
			</linearGradient>
			<ellipse class="st23" cx="242.2" cy="226.9" rx="3.4" ry="3.6"/>
			<linearGradient id="SVGID_19_" gradientUnits="userSpaceOnUse" x1="202.478" y1="242.0403" x2="202.3281" y2="235.2946">
				<stop  offset="0" style="stop-color:#DCE8F1"/>
				<stop  offset="1" style="stop-color:#BECCDE"/>
			</linearGradient>
			<ellipse class="st24" cx="202.4" cy="238.7" rx="3.4" ry="3.6"/>
			<linearGradient id="SVGID_20_" gradientUnits="userSpaceOnUse" x1="228.2755" y1="207.2333" x2="224.2076" y2="203.9789">
				<stop  offset="0" style="stop-color:#EEF4F9"/>
				<stop  offset="1" style="stop-color:#D8E1EB"/>
			</linearGradient>
			<ellipse class="st25" cx="226.4" cy="205.7" rx="4.6" ry="2.1"/>
			<linearGradient id="SVGID_21_" gradientUnits="userSpaceOnUse" x1="242.2565" y1="210.312" x2="239.8157" y2="206.0406">
				<stop  offset="0" style="stop-color:#EEF4F9"/>
				<stop  offset="1" style="stop-color:#D8E1EB"/>
			</linearGradient>
			<path class="st26" d="M245.6,208.8c-0.2,1.1-2.3,1.8-4.8,1.4c-2.5-0.3-4.4-1.6-4.3-2.7c0.2-1.1,2.3-1.8,4.8-1.4
				C243.9,206.5,245.8,207.7,245.6,208.8z"/>
			
				<linearGradient id="SVGID_22_" gradientUnits="userSpaceOnUse" x1="899.6598" y1="1617.8304" x2="896.4128" y2="1612.1482" gradientTransform="matrix(0.8733 -0.4871 0.4871 0.8733 -1361.3969 -761.039)">
				<stop  offset="0" style="stop-color:#EEF4F9"/>
				<stop  offset="1" style="stop-color:#D8E1EB"/>
			</linearGradient>
			<path class="st27" d="M215.3,209.7c0.6,1.4-1.5,3.6-4.7,4.8c-3.2,1.2-6.2,1.1-6.7-0.4c-0.6-1.4,1.5-3.6,4.7-4.8
				C211.7,208.1,214.7,208.3,215.3,209.7z"/>
			<linearGradient id="SVGID_23_" gradientUnits="userSpaceOnUse" x1="213.7311" y1="257.182" x2="213.6162" y2="252.0119">
				<stop  offset="0" style="stop-color:#DCE8F1"/>
				<stop  offset="1" style="stop-color:#BECCDE"/>
			</linearGradient>
			<circle class="st28" cx="213.7" cy="254.6" r="2.7"/>
			<linearGradient id="SVGID_24_" gradientUnits="userSpaceOnUse" x1="234.0388" y1="273.3516" x2="233.8651" y2="265.5388">
				<stop  offset="0" style="stop-color:#DCE8F1"/>
				<stop  offset="1" style="stop-color:#B0C0D6"/>
			</linearGradient>
			<ellipse class="st29" cx="234" cy="269.5" rx="5.9" ry="4.1"/>
			
				<linearGradient id="SVGID_25_" gradientUnits="userSpaceOnUse" x1="119.8827" y1="1529.2271" x2="119.7774" y2="1524.4866" gradientTransform="matrix(1.1585 -0.7758 0.2782 0.4155 -308.9311 -269.0187)">
				<stop  offset="0" style="stop-color:#DCE8F1"/>
				<stop  offset="1" style="stop-color:#BECCDE"/>
			</linearGradient>
			<path class="st30" d="M258.8,269.7c0.4,0.6-1.1,2.3-3.4,3.8c-2.3,1.5-4.4,2.3-4.8,1.7c-0.4-0.6,1.1-2.3,3.4-3.8
				C256.2,269.9,258.4,269.1,258.8,269.7z"/>
			
				<linearGradient id="SVGID_26_" gradientUnits="userSpaceOnUse" x1="-1060.9808" y1="-3201.3918" x2="-1061.0862" y2="-3206.1331" gradientTransform="matrix(1.3035 0.4947 -0.1774 0.4675 1025.1677 2302.0078)">
				<stop  offset="0" style="stop-color:#DCE8F1"/>
				<stop  offset="1" style="stop-color:#BECCDE"/>
			</linearGradient>
			<path class="st31" d="M215.1,281.1c-0.2,0.7-2.5,0.4-5.1-0.6c-2.6-1-4.4-2.3-4.2-2.9c0.2-0.6,2.5-0.4,5.1,0.6
				C213.5,279.2,215.3,280.5,215.1,281.1z"/>
			<linearGradient id="SVGID_27_" gradientUnits="userSpaceOnUse" x1="251.8794" y1="211.2862" x2="251.8794" y2="278.0103">
				<stop  offset="0" style="stop-color:#D8E0EB"/>
				<stop  offset="1" style="stop-color:#A0B2C4"/>
			</linearGradient>
			<path class="st32" d="M260,240.7c-1.7-3.4-4.6-4.1-8.2-4.1c-2.5,0-5.5-0.8-7.5,1.1c-2.5,2.3,1.3,3.2,3.2,4.1
				c5.8,2.7,1.3,6.8,2.5,11.2c0.5,1.6,3.2,2.5,4.8,1.5c2-1.2,2.7-5.5,3.7-7.5C259.4,245.3,261,242.7,260,240.7z"/>
			<linearGradient id="SVGID_28_" gradientUnits="userSpaceOnUse" x1="204.3496" y1="211.2861" x2="204.3496" y2="278.0097">
				<stop  offset="0" style="stop-color:#D8E0EB"/>
				<stop  offset="1" style="stop-color:#A0B2C4"/>
			</linearGradient>
			<path class="st33" d="M206.8,227.6c1.6,0.3,5.8,1.7,5.5-1.3c-0.1-1.1-1.6-1.9-2.1-2.9c-0.5-1-0.6-2.2-0.5-3.3
				c0.1-1.9,1.7-5.8-1.4-6.1c-2.9-0.3-3.6,3.4-4.9,5.3c-1.5,2.2-3.8,1.8-5.6,3.5c-2.3,2.2-1.7,5.1,1.6,4.3c1.1-0.3,2.1-0.9,3.2-0.8
				C204.1,226.4,205.3,227.4,206.8,227.6z"/>
		</g>
	</g>
	<g>
		<g>
			<g>
				<path class="st34" d="M154.9,239.4c0,0-0.5,3.2-1.2,3.9c-0.8,0.8-4,1.3-4,1.3s3.2,0.5,3.9,1.3c0.7,0.8,1.2,3.9,1.2,3.9
					s0.5-3.1,1.2-3.9c0.8-0.8,3.9-1.3,3.9-1.3s-3.2-0.5-3.9-1.3C155.4,242.5,154.9,239.4,154.9,239.4z"/>
			</g>
		</g>
		<g>
			<g>
				<path class="st34" d="M257.5,288.2c0,0-0.7,4.6-1.7,5.7c-1.1,1.2-5.9,1.9-5.9,1.9s4.7,0.8,5.8,1.9c1.1,1.1,1.8,5.7,1.8,5.7
					s0.7-4.5,1.8-5.6c1.1-1.1,5.8-1.9,5.8-1.9s-4.7-0.8-5.8-1.9C258.3,292.7,257.5,288.2,257.5,288.2z"/>
			</g>
		</g>
		<g>
			<g>
				<path class="st34" d="M194.1,345.7c0,0-0.4,2.9-1.1,3.6c-0.7,0.8-3.7,1.2-3.7,1.2s2.9,0.5,3.6,1.2c0.7,0.7,1.1,3.6,1.1,3.6
					s0.4-2.9,1.1-3.5c0.7-0.7,3.6-1.2,3.6-1.2s-2.9-0.5-3.6-1.2C194.6,348.6,194.1,345.7,194.1,345.7z"/>
			</g>
		</g>
		<g>
			<g>
				<path class="st34" d="M295.7,243.7c0,0-0.3,2.1-0.8,2.6c-0.5,0.5-2.6,0.8-2.6,0.8s2.1,0.3,2.6,0.8c0.5,0.5,0.8,2.6,0.8,2.6
					s0.3-2,0.8-2.5c0.5-0.5,2.6-0.9,2.6-0.9s-2.1-0.3-2.6-0.9C296.1,245.7,295.7,243.7,295.7,243.7z"/>
			</g>
		</g>
		<polygon class="st34" points="286.6,280.6 284.9,280.2 283.6,281.3 283.4,279.6 281.9,278.7 283.6,278 283.9,276.3 285.1,277.7 
			286.8,277.5 285.9,279 		"/>
		<polygon class="st34" points="144.6,292.8 142.9,292.3 141.6,293.5 141.4,291.8 139.9,290.9 141.6,290.2 142,288.5 143.1,289.8 
			144.8,289.7 143.9,291.2 		"/>
		<polygon class="st34" points="142.8,229.4 141.1,229 139.8,230.2 139.7,228.4 138.2,227.5 139.8,226.9 140.2,225.2 141.3,226.5 
			143.1,226.3 142.1,227.8 		"/>
		<polygon class="st34" points="305,226.4 303.3,226 301.9,227.1 301.8,225.4 300.3,224.5 302,223.8 302.3,222.1 303.5,223.5 
			305.2,223.3 304.3,224.8 		"/>
		<polygon class="st34" points="154.7,264.7 154,264.5 153.4,265 153.3,264.3 152.7,263.9 153.4,263.6 153.6,262.9 154,263.5 
			154.8,263.4 154.4,264 		"/>
		<polygon class="st34" points="208.3,307.6 206.6,307.1 205.3,308.3 205.2,306.5 203.7,305.6 205.3,305 205.7,303.3 206.8,304.6 
			208.6,304.5 207.6,305.9 		"/>
		<polygon class="st34" points="266.8,274.9 266.1,274.7 265.6,275.2 265.5,274.4 264.9,274.1 265.6,273.8 265.7,273.1 266.2,273.6 
			266.9,273.6 266.5,274.2 		"/>
		<polygon class="st34" points="294,260.8 293.3,260.7 292.7,261.1 292.7,260.4 292,260 292.7,259.8 292.9,259 293.4,259.6 
			294.1,259.5 293.7,260.2 		"/>
		<polygon class="st34" points="208.6,352.4 207.9,352.2 207.4,352.7 207.3,352 206.7,351.6 207.4,351.3 207.5,350.6 208,351.2 
			208.7,351.1 208.3,351.7 		"/>
		<polygon class="st34" points="247.9,347.3 247.1,347.1 246.6,347.6 246.5,346.8 245.9,346.4 246.6,346.2 246.8,345.5 247.2,346 
			248,346 247.6,346.6 		"/>
		<polygon class="st34" points="315.2,306 314.5,305.8 313.9,306.3 313.9,305.6 313.2,305.2 313.9,304.9 314.1,304.2 314.5,304.8 
			315.3,304.7 314.9,305.3 		"/>
		<polygon class="st34" points="200.9,317.8 200.2,317.6 199.6,318.1 199.6,317.3 198.9,317 199.6,316.7 199.8,316 200.2,316.5 
			201,316.5 200.6,317.1 		"/>
		<polygon class="st34" points="169.9,341.8 168.2,341.4 166.9,342.5 166.7,340.8 165.2,339.9 166.9,339.2 167.3,337.5 168.4,338.8 
			170.1,338.7 169.2,340.2 		"/>
		<polygon class="st34" points="290.5,314.2 289.8,314.1 289.2,314.5 289.2,313.8 288.5,313.4 289.2,313.2 289.4,312.4 289.9,313 
			290.6,312.9 290.2,313.6 		"/>
		<polygon class="st34" points="292.8,332.8 292.1,332.6 291.5,333.1 291.5,332.3 290.8,331.9 291.5,331.7 291.7,331 292.2,331.5 
			292.9,331.5 292.5,332.1 		"/>
		<polygon class="st34" points="231.2,261.3 230.5,261.1 230,261.6 229.9,260.9 229.3,260.5 230,260.2 230.1,259.5 230.6,260.1 
			231.3,260 230.9,260.6 		"/>
		<polygon class="st34" points="202.7,274.4 201,273.9 199.7,275.1 199.6,273.3 198.1,272.4 199.7,271.8 200.1,270.1 201.2,271.4 
			203,271.2 202,272.7 		"/>
		<polygon class="st34" points="232.7,273.3 232,273.2 231.4,273.7 231.4,272.9 230.7,272.5 231.4,272.3 231.6,271.5 232,272.1 
			232.8,272 232.4,272.7 		"/>
		<polygon class="st34" points="253.6,188.8 252.9,188.6 252.4,189.1 252.3,188.4 251.7,188 252.4,187.7 252.5,187 253,187.6 
			253.7,187.5 253.3,188.1 		"/>
		<g>
			<radialGradient id="SVGID_29_" cx="226.6172" cy="223.3747" r="163.9468" gradientUnits="userSpaceOnUse">
				<stop  offset="0" style="stop-color:#9EB4CB"/>
				<stop  offset="6.018852e-002" style="stop-color:#9BB0C9"/>
				<stop  offset="0.1276" style="stop-color:#91A5C4"/>
				<stop  offset="0.1986" style="stop-color:#8393BC"/>
				<stop  offset="0.272" style="stop-color:#717DB1"/>
				<stop  offset="0.3473" style="stop-color:#5964A5"/>
				<stop  offset="0.4231" style="stop-color:#3E4797"/>
				<stop  offset="0.4634" style="stop-color:#2E368F"/>
				<stop  offset="0.5676" style="stop-color:#2D3283"/>
				<stop  offset="0.7719" style="stop-color:#292967"/>
				<stop  offset="1" style="stop-color:#1D1A45"/>
			</radialGradient>
			<path class="st35" d="M282.6,297.8c0.4-0.9,0.7-1.8,0.9-2.8c1.1-7.6-7.5-15.1-19.2-16.8c-0.5-0.1-1-0.1-1.5-0.2
				c0.3-6.1-4.4-13.5-12.3-18.4c-6.5-4-13.6-5.3-18.9-3.9c-5.6-4.5-14.2-6.7-23.2-5.3c-14.7,2.3-25.1,13.3-23.4,24.5
				c0,0.1,0,0.2,0.1,0.3c-1.5-0.6-3-0.9-4.7-0.9c-7,0-12.6,5.5-12.6,12.3c0,0,0,0,0,0.1c-10.5,1-18.7,9.3-18.7,19.4
				c0,10.8,9.3,19.5,20.8,19.5c4.2,0,8-1.2,11.3-3.1c1.6,3.6,5,6.3,9.2,7.1c4.7,0.8,9.2-1.1,12-4.6c4.8,6.7,14.3,10.5,24.5,8.9
				c9.1-1.4,16.4-6.9,19.6-13.7c1.8,2.5,4.6,4.3,7.9,4.9c4.3,0.8,8.5-0.8,11.3-3.7c2.9,1.6,6.4,2.8,10.2,3.3
				c11.7,1.7,22.1-3.1,23.2-10.7C299.9,307.1,292.7,300.3,282.6,297.8z"/>
			<path class="st36" d="M190,277c0.1,0.8,0.3,1.5,0.6,2.3c-1.1-1.7-1.9-3.6-2.2-5.6c-1.5-9.8,7.6-19.3,20.4-21.4
				c11.8-1.9,16.7,1.1,21.6,7.8c-6.3-3.9-9.8-6-20-4.4C197.6,257.7,188.5,267.2,190,277z M249.6,261.3c-8.9-5.4-18.9-5.2-22.4,0.6
				c-0.8,1.3-1.2,2.9-1.2,4.5c0.2-1,0.5-1.9,1-2.8c3.3-5.4,12.8-5.7,21.2-0.5c8.4,5.1,12.4,13.7,9.1,19.1c-1.1,1.8-3,3-5.2,3.7
				c3.2-0.5,5.8-1.9,7.3-4.3C262.8,275.9,258.5,266.8,249.6,261.3z M265.4,280.7c-2.1-0.3-4.2-0.3-6.2-0.2c0.7,0.1,1.4,0.1,2,0.2
				c11.3,1.6,19.6,8.9,18.5,16.2c-0.1,0.6-0.3,1.2-0.5,1.8c1-1.2,1.7-2.6,2-4.1C282.2,288.3,275.1,282.1,265.4,280.7z M171.4,321.2
				c1.3,0,2.6-0.2,3.8-0.4c-2.1,0.8-4.3,1.3-6.7,1.3c-9.4,0-17.1-7.2-17.1-16c0-8.8,7.6-16,17.1-16c1,0,1.9,0.1,2.9,0.2
				c-8.9,0-16.1,6.9-16.1,15.5C155.2,314.3,162.5,321.2,171.4,321.2z M191.2,326.1c-5.3-0.9-8.9-7-8.8-12.1
				c-0.3,0.7-0.5,1.4-0.6,2.1c-1,5.8,2.9,11.3,8.7,12.3c5.8,1,11.4-2.8,12.4-8.6c0.1-0.5,0.1-1.1,0.1-1.6
				C201.1,322.7,196.3,327,191.2,326.1z M245,310.9c-0.2-1.3-0.6-2.5-1.1-3.7c0.1,0.2,0.1,0.5,0.2,0.7c1.5,9.7-6.5,19.1-18,20.9
				c-11.5,1.8-22-4.6-23.5-14.3c0-0.3-0.1-0.6-0.1-0.8c-0.1,1.3-0.1,2.6,0.1,3.9c1.5,9.7,12.3,16.1,24,14.3
				C238.2,330,246.5,320.7,245,310.9z M254.7,322.7c-3.3-0.6-6.1-2.4-7.9-4.9c1.6,3.1,4.5,5.4,8.2,6c5.1,0.9,9.9-1.7,12.2-6
				C264.3,321.6,259.6,323.6,254.7,322.7z M182.5,276.9c1.3,0,2.5,0.2,3.7,0.6c-1.8-1.3-3.9-2-6.3-2c-5.9,0-10.7,4.7-10.7,10.4
				c0,0.6,0.1,1.1,0.2,1.6C170.5,281.5,176,276.9,182.5,276.9z M281.3,299.6c8.2,2.9,13.5,8,12.7,13.1c-1,6.7-12.5,10.7-25.5,8.9
				c0,0,0,0,0,0c2,0.7,4.1,1.2,6.4,1.5c11.1,1.5,21-2.7,22.1-9.3C297.9,307.7,291.1,301.7,281.3,299.6z M204.6,313.8
				c-0.6-4.1,0.6-8.1,3.1-11.6c-4.5,3.8-6.9,9.1-6.1,14.6c1.4,9.1,11.5,15.1,22.4,13.4c3.6-0.6,6.9-1.9,9.6-3.8
				c-1.5,0.5-3.1,0.9-4.7,1.2C217,329.5,206.1,323.3,204.6,313.8z"/>
		</g>
		<g>
			<radialGradient id="SVGID_30_" cx="283.1062" cy="243.3611" r="68.5825" gradientUnits="userSpaceOnUse">
				<stop  offset="0" style="stop-color:#9EB4CB"/>
				<stop  offset="6.018852e-002" style="stop-color:#9BB0C9"/>
				<stop  offset="0.1276" style="stop-color:#91A5C4"/>
				<stop  offset="0.1986" style="stop-color:#8393BC"/>
				<stop  offset="0.272" style="stop-color:#717DB1"/>
				<stop  offset="0.3473" style="stop-color:#5964A5"/>
				<stop  offset="0.4231" style="stop-color:#3E4797"/>
				<stop  offset="0.4634" style="stop-color:#2E368F"/>
				<stop  offset="0.5676" style="stop-color:#2D3283"/>
				<stop  offset="0.7719" style="stop-color:#292967"/>
				<stop  offset="1" style="stop-color:#1D1A45"/>
			</radialGradient>
			<path class="st37" d="M306.5,274.5c0.2-0.4,0.3-0.8,0.4-1.2c0.5-3.2-3.1-6.3-8-7c-0.2,0-0.4,0-0.6-0.1c0.1-2.6-1.9-5.7-5.2-7.7
				c-2.7-1.7-5.7-2.2-7.9-1.6c-2.4-1.9-5.9-2.8-9.7-2.2c-6.1,1-10.5,5.6-9.8,10.2c0,0,0,0.1,0,0.1c-0.6-0.2-1.3-0.4-2-0.4
				c-2.9,0-5.3,2.3-5.3,5.2c0,0,0,0,0,0c-4.4,0.4-7.8,3.9-7.8,8.1c0,4.5,3.9,8.2,8.7,8.2c1.7,0,3.4-0.5,4.7-1.3
				c0.7,1.5,2.1,2.7,3.8,3c2,0.3,3.9-0.5,5-1.9c2,2.8,6,4.4,10.2,3.7c3.8-0.6,6.9-2.9,8.2-5.7c0.8,1,1.9,1.8,3.3,2.1
				c1.8,0.3,3.6-0.3,4.7-1.6c1.2,0.7,2.7,1.2,4.3,1.4c4.9,0.7,9.2-1.3,9.7-4.5C313.7,278.4,310.8,275.5,306.5,274.5z"/>
			<path class="st36" d="M267.8,265.8c0,0.3,0.1,0.6,0.2,0.9c-0.5-0.7-0.8-1.5-0.9-2.3c-0.6-4.1,3.2-8.1,8.5-8.9
				c4.9-0.8,7,0.5,9,3.3c-2.6-1.6-4.1-2.5-8.4-1.8C271,257.7,267.2,261.7,267.8,265.8z M292.7,259.2c-3.7-2.3-7.9-2.2-9.4,0.2
				c-0.3,0.6-0.5,1.2-0.5,1.9c0.1-0.4,0.2-0.8,0.4-1.2c1.4-2.3,5.4-2.4,8.9-0.2c3.5,2.2,5.2,5.7,3.8,8c-0.5,0.8-1.2,1.3-2.2,1.5
				c1.3-0.2,2.4-0.8,3.1-1.8C298.2,265.3,296.4,261.5,292.7,259.2z M299.3,267.3c-0.9-0.1-1.8-0.1-2.6-0.1c0.3,0,0.6,0.1,0.9,0.1
				c4.7,0.7,8.2,3.7,7.7,6.8c0,0.3-0.1,0.5-0.2,0.7c0.4-0.5,0.7-1.1,0.8-1.7C306.3,270.5,303.4,267.9,299.3,267.3z M260,284.3
				c0.6,0,1.1-0.1,1.6-0.2c-0.9,0.3-1.8,0.5-2.8,0.5c-3.9,0-7.1-3-7.1-6.7c0-3.7,3.2-6.7,7.1-6.7c0.4,0,0.8,0,1.2,0.1
				c-3.7,0-6.7,2.9-6.7,6.5C253.2,281.4,256.3,284.3,260,284.3z M268.3,286.3c-2.2-0.4-3.7-2.9-3.7-5.1c-0.1,0.3-0.2,0.6-0.3,0.9
				c-0.4,2.4,1.2,4.7,3.6,5.2c2.4,0.4,4.8-1.2,5.2-3.6c0-0.2,0-0.5,0.1-0.7C272.4,284.9,270.4,286.7,268.3,286.3z M290.8,280
				c-0.1-0.5-0.2-1.1-0.5-1.5c0,0.1,0.1,0.2,0.1,0.3c0.6,4.1-2.7,8-7.5,8.7c-4.8,0.8-9.2-1.9-9.8-6c0-0.1,0-0.2,0-0.3
				c-0.1,0.5-0.1,1.1,0,1.6c0.6,4.1,5.1,6.7,10,6C288,288,291.4,284.1,290.8,280z M294.8,284.9c-1.4-0.2-2.5-1-3.3-2
				c0.7,1.3,1.9,2.3,3.4,2.5c2.1,0.4,4.2-0.7,5.1-2.5C298.9,284.4,296.9,285.3,294.8,284.9z M264.6,265.8c0.5,0,1,0.1,1.5,0.2
				c-0.7-0.5-1.6-0.9-2.6-0.9c-2.5,0-4.5,2-4.5,4.4c0,0.2,0,0.5,0.1,0.7C259.6,267.7,261.9,265.8,264.6,265.8z M306,275.2
				c3.4,1.2,5.7,3.4,5.3,5.5c-0.4,2.8-5.2,4.5-10.7,3.7c0,0,0,0,0,0c0.8,0.3,1.7,0.5,2.7,0.6c4.7,0.6,8.8-1.1,9.2-3.9
				C312.9,278.6,310.1,276.1,306,275.2z M273.9,281.2c-0.3-1.7,0.2-3.4,1.3-4.8c-1.9,1.6-2.9,3.8-2.5,6.1c0.6,3.8,4.8,6.3,9.4,5.6
				c1.5-0.2,2.9-0.8,4-1.6c-0.6,0.2-1.3,0.4-2,0.5C279.1,287.8,274.5,285.2,273.9,281.2z"/>
		</g>
	</g>
</g>
<g>
	<g>
		<linearGradient id="SVGID_31_" gradientUnits="userSpaceOnUse" x1="758.9342" y1="141.1514" x2="959.1119" y2="141.1514">
			<stop  offset="0" style="stop-color:#FFFFFF;stop-opacity:0"/>
			<stop  offset="4.017906e-002" style="stop-color:#FDEBEE;stop-opacity:4.051906e-002"/>
			<stop  offset="0.1257" style="stop-color:#FAC6CE;stop-opacity:0.1267"/>
			<stop  offset="0.2187" style="stop-color:#F7A7B2;stop-opacity:0.2205"/>
			<stop  offset="0.3192" style="stop-color:#F58D9C;stop-opacity:0.3219"/>
			<stop  offset="0.4302" style="stop-color:#F3798A;stop-opacity:0.4338"/>
			<stop  offset="0.5573" style="stop-color:#F26C7E;stop-opacity:0.562"/>
			<stop  offset="0.7143" style="stop-color:#F16377;stop-opacity:0.7204"/>
			<stop  offset="0.9916" style="stop-color:#F16175"/>
		</linearGradient>
		<rect x="758.9" y="128.8" class="st38" width="200.2" height="24.7"/>
		<g>
			<g>
				<path class="st6" d="M899.2,145.7c-4.3,0-5.9-2-5.9-5.1c0-2.9,1.8-5.5,5.8-5.5c2.6,0,4.6,0.8,4.6,0.8v7.6h2.2v2.3H899.2z
					 M895.5,132.2c0-0.8,0.6-1.5,1.5-1.5c0.8,0,1.5,0.7,1.5,1.5c0,0.8-0.6,1.5-1.5,1.5C896.2,133.7,895.5,133,895.5,132.2z
					 M900.9,137.8c0,0-0.8-0.4-2.1-0.4c-1.7,0-2.6,1.3-2.6,3c0,2,1,3.1,3.3,3.1h1.4V137.8z M899.2,132.2c0-0.8,0.6-1.5,1.5-1.5
					c0.8,0,1.5,0.7,1.5,1.5c0,0.8-0.6,1.5-1.5,1.5C899.8,133.7,899.2,133,899.2,132.2z"/>
				<path class="st6" d="M905.5,143.4h4.1v-8.1h2.9v10.3h-7V143.4z M907.4,150.5c-0.8,0-1.5-0.7-1.5-1.5c0-0.8,0.6-1.5,1.5-1.5
					c0.8,0,1.5,0.7,1.5,1.5C908.9,149.8,908.2,150.5,907.4,150.5z M911,150.5c-0.8,0-1.5-0.7-1.5-1.5c0-0.8,0.6-1.5,1.5-1.5
					c0.8,0,1.5,0.7,1.5,1.5C912.5,149.8,911.9,150.5,911,150.5z"/>
				<path class="st6" d="M912.7,151.1l0.2-2.3c0.5,0.2,1.1,0.3,1.8,0.3c1.5,0,2.4-0.7,2.4-3.1v-10.6h2.9v8.1h2.2v2.3h-2.2v0.1
					c0,2.8-0.9,5.5-5.4,5.5C913.8,151.3,913.2,151.2,912.7,151.1z"/>
				<path class="st6" d="M921.8,145.7v-2.3h1.9c0.6,0,1,0.1,1,0.1s-0.6-0.6-0.6-1.5c0-2.1,1.5-3.7,4.2-3.7c2.9,0,4,2,4,4.5v0.6h2.3
					v-0.3c0-4.6-1.8-6.8-6.2-6.8c-1.5,0-3.3,0.4-4.7,0.8l-0.3-2c1.6-0.5,3.6-0.9,5.3-0.9c5.5,0,8.6,2.6,8.6,9.1v0.1h1.6v2.3H921.8z
					 M929.9,142.8c0-1.6-0.6-2.7-1.9-2.7c-1,0-1.6,0.7-1.6,1.6c0,1.1,0.9,1.8,2.1,1.8h1.4V142.8z"/>
				<path class="st6" d="M938.6,143.4h8.5c0.1-0.5,0.1-1.1,0.1-1.7c0-2.8-1.1-4.2-4.3-4.2c-0.9,0-1.7,0.1-2.5,0.2v-2.3
					c0.9-0.1,1.9-0.2,2.8-0.2c5,0,6.9,2.2,6.9,6.4c0,1.1-0.1,2.5-0.4,4.1h-11.1V143.4z M942.3,149c0-0.8,0.7-1.5,1.5-1.5
					s1.5,0.7,1.5,1.5c0,0.8-0.7,1.5-1.5,1.5S942.3,149.9,942.3,149z"/>
			</g>
		</g>
		<g>
			<path class="st1" d="M728.9,133.2c0.1,0.4,0.2,0.8,0.2,1.1c0,0.9-0.6,1.7-1.9,2.2l-4.9,1.9c-1.5,0.6-2.8,1.1-2.8,2
				c0,0.1,0,0.1,0,0.2l-0.2,0.1c-0.1-0.4-0.2-0.8-0.2-1.1c0-0.9,0.5-1.7,1.9-2.3l4.9-1.9c1.7-0.7,2.8-1.1,2.8-2.2L728.9,133.2z"/>
			<path class="st1" d="M735.1,123.5v3.3h-12.2c-4.1,0-5.6-2-5.8-5h0.4c0.4,1.4,1.1,1.7,5.9,1.8h0.4c-1.9-1.7-2.8-3.9-2.8-6.4l0.1-1
				c0-1.6,1.3-2.9,3-2.9h10.5v3.1H724v0.9c0,3.5,2.7,5.9,6.5,6.3H735.1z"/>
			<path class="st1" d="M743.9,116.5c0,4.1,3,7.1,6.7,7.1h1.4v3.3h-1.4c-5.5,0-10-5.2-10-10.3V95.3c0-4.2,2.1-5.8,5.4-5.9v0.5
				c-1.7,0.2-2.1,2.8-2.1,5.6c0,0.6,0,1.2,0,1.9v18V116.5z"/>
			<path class="st1" d="M789.3,117.6c0,3.3,2.5,5.9,6,5.9v3.3c-3.3,0-6-1.5-7.7-4.1c-1.5,2.4-4.4,4.1-7.5,4.1
				c-3.2,0-6.2-1.8-7.8-4.3c-1.7,2.6-4.2,4.3-7.9,4.3c-2.4,0-4.4-0.8-6.2-2.2c-1,1.7-2.2,2.1-3,2.2h-3.5v-3.3h2.4
				c0.5,0,0.9-0.4,1.1-1.1v-17.3h3.3v12c0,3.6,2.8,6.4,6,6.4c3.3,0,5.8-2.4,5.9-5.9v-12.6h3.3v11.6c0,3.7,2.7,6.8,6,6.8
				c3.2,0,6.2-2.2,6.2-5.9v-7.4c0-4.9,2.6-5.8,5.1-5.9v0.6c-1.8,0.3-1.8,3.6-1.8,7V117.6z M769.2,100.2l-2.8-2.8l2.8-2.9l2.9,2.9
				L769.2,100.2z M772,96.6l-2.8-2.8l2.8-2.9l2.8,2.9L772,96.6z M774.8,100.2l-2.8-2.8l2.8-2.9l2.8,2.9L774.8,100.2z"/>
			<path class="st1" d="M811,133.7c0.1,0.4,0.2,0.8,0.2,1.1c0,0.9-0.6,1.7-1.9,2.2l-4.9,1.9c-1.5,0.6-2.8,1.1-2.8,2
				c0,0.1,0,0.1,0,0.2l-0.2,0.1c-0.1-0.4-0.2-0.8-0.2-1.1c0-0.9,0.5-1.7,1.9-2.3l4.9-1.9c1.7-0.7,2.8-1.1,2.8-2.2L811,133.7z"/>
			<path class="st1" d="M824.9,126.8h-29.6v-3.3h4.6c-1.7-1.7-2.5-4.1-2.5-6.3c0-5.1,4.5-9.6,9.7-9.6h6.9c3.4,0,6.8,0,7-2.2h0.5
				c0,3.4-1.9,5.4-5.8,5.4h-8.2c-4.2,0-7.1,2.7-7.1,6.4c0,3.6,2.8,6.2,6.7,6.3h17.9V126.8z"/>
			<path class="st1" d="M834.8,81.1c0.3-0.2,0.7-0.3,1.1-0.3V81c-0.7,0.1-0.7,1.2-0.7,2.4v2c0,1.7-1.4,3.1-3.1,3.1
				c-1.9,0-3.4-1.1-3.4-2.8v-1.2c0-1.8,1.6-3.4,3.4-3.4H834.8z M832.2,82.2c-1.4,0-2.5,1-2.5,2.3v1.2c0,0.9,1,1.7,2.3,1.7
				c1,0,2.1-0.9,2.1-2.1v-2.6c0-0.2,0-0.5,0.1-0.6H832.2z"/>
			<path class="st1" d="M828.5,88.7c3.1,0.1,5.3,1.7,5.3,6v21.6c0,4-2.5,7.9-6,9.6c-1.2,0.6-2.2,0.9-3,0.9v-3.3
				c2.4-0.2,5.8-2.8,5.8-7.3v-20c0-3.5,0-7-2.1-7.2V88.7z"/>
			<path class="st1" d="M841.2,96.8c0-5.7-0.2-7.3-2-7.5v-0.4c3.5,0.1,5.2,2.2,5.2,6.2v31.8h-3.3V96.8z"/>
			<path class="st1" d="M868.3,81.2c-1.3,2.3-3.3,3.5-5.2,3.5c-1.4,0-2.8-0.7-3.7-1.8l0.1-0.1c0.7,0.9,1.8,1.4,3,1.4
				c1.7,0,3.6-1,4.9-3.4l0.3-0.6c-0.2,0-0.4,0.1-0.6,0.1c-1.8,0-3.1-1.7-3.1-3.1c0-0.4,0.1-0.8,0.3-1.1l0.6-1c0.6-1,1.7-1.6,2.8-1.6
				c0.5,0,1,0.1,1.5,0.4l-0.4,0.9c-0.4-0.2-0.8-0.3-1.2-0.3c-0.8,0-1.5,0.4-1.9,1.1l-0.5,1c-0.1,0.2-0.2,0.4-0.2,0.6
				c0,0.8,0.8,2,2.1,2c0.5,0,0.9-0.2,1.3-0.5l1.7-3.1l-1.4-0.8l0.4-0.9l2.2,1.2c0.3,0,0.7,0.1,1,0.3l-0.1,0.1c-0.1,0-0.2,0-0.2,0
				c-0.5,0-0.9,0.9-1.4,1.7l-0.9,1.6L868.3,81.2z"/>
			<path class="st1" d="M877.8,104.6c0.8-0.5,1.9-0.7,3.1-0.8v0.5c-2.1,0.3-2.1,3.7-2.1,7.2v6c0,5.2-4.3,9.3-9.4,9.3
				c-5.4,0-10.2-3.6-10.2-8.3v-3.6c0-5.5,4.8-10.3,10.3-10.3H877.8z M870.1,107.8c-4.3,0-7.4,3.2-7.4,7v3.6c0,2.6,2.9,5.1,6.8,5.1
				c3.3,0,6.2-2.8,6.2-6.1v-7.6c0-0.9,0-1.4,0.3-2H870.1z M865.7,100.3l-2.9-2.9l2.9-2.8l2.9,2.8L865.7,100.3z M871.5,100.3
				l-2.9-2.9l2.9-2.8l2.9,2.8L871.5,100.3z"/>
			<path class="st1" d="M916.6,126.8c-3.4,0-6.6-1.6-8.3-4.5c-1,2-4.5,4.5-8,4.5h-17.1v-3.3h10.9v-13.1c0-3.7-0.2-7.2-2.2-7.5v-0.5
				c3.4,0.2,5.5,1.8,5.5,6.2v14.9h2.9c3.8,0,6.8-3.3,6.8-7.7V95.2c0-3.8-0.1-7.1-2.1-7.4v-0.5c3.3,0.1,5.4,1.8,5.4,6.1v24.7
				c0.3,3.3,2.8,5.2,6.2,5.5V126.8z"/>
			<path class="st1" d="M950,92.9c0.1,0.4,0.2,0.8,0.2,1.1c0,0.9-0.6,1.7-1.9,2.2l-4.9,1.9c-1.5,0.6-2.8,1.1-2.8,2
				c0,0.1,0,0.1,0,0.2l-0.2,0.1c-0.1-0.4-0.2-0.8-0.2-1.1c0-0.9,0.5-1.7,1.9-2.3l4.9-1.9c1.7-0.7,2.8-1.1,2.8-2.2L950,92.9z"/>
			<path class="st1" d="M959.1,126.8h-42.6v-3.3h2.8c0.6-0.3,0.9-1.1,0.9-2.5c0-3.4-0.8-6.6-3.2-8.8l0.4-0.3
				c2.2,2.1,3.7,4.7,4.4,7.3c0.7-8.2,8.8-14.5,19.3-14.5h6.9c6.1,0.5,11.2,6.1,11.1,12.4V126.8z M955.8,123.5V117
				c0-3.8-1.7-6.5-5.1-8.1c-1.4-0.6-3.3-0.9-6.2-0.9h-3.4c-11.1,0-18.8,6.2-18.8,14.5v1H955.8z"/>
		</g>
	</g>
</g>
</svg>
