<?xml version="1.0" encoding="utf-8"?>
<!-- Generator: Adobe Illustrator 19.2.0, SVG Export Plug-In . SVG Version: 6.00 Build 0)  -->
<svg version="1.1" id="Layer_1" xmlns="http://www.w3.org/2000/svg" xmlns:xlink="http://www.w3.org/1999/xlink" x="0px" y="0px"
	 viewBox="0 0 1024 768" style="enable-background:new 0 0 1024 768;" xml:space="preserve">
<style type="text/css">
	.st0{fill:url(#SVGID_1_);}
	.st1{fill:#622872;}
	.st2{fill:url(#SVGID_2_);}
	.st3{fill:#CA4977;}
	.st4{fill:url(#SVGID_3_);}
	.st5{fill-rule:evenodd;clip-rule:evenodd;fill:#F6DFB4;}
	.st6{fill:#D2D3D4;}
	.st7{fill:#FFFFFF;}
	.st8{fill:#205B6A;}
	.st9{fill:url(#SVGID_4_);}
	.st10{fill:url(#SVGID_5_);}
	.st11{fill:url(#SVGID_6_);}
	.st12{fill:url(#SVGID_7_);}
	.st13{fill:url(#SVGID_8_);}
	.st14{fill:url(#SVGID_9_);}
	.st15{fill:url(#SVGID_10_);}
	.st16{fill:url(#SVGID_11_);}
	.st17{fill:url(#SVGID_12_);}
	.st18{fill:url(#SVGID_13_);}
	.st19{fill:url(#SVGID_14_);}
	.st20{fill:url(#SVGID_15_);}
	.st21{fill:url(#SVGID_16_);}
	.st22{fill:url(#SVGID_17_);}
	.st23{fill:url(#SVGID_18_);}
	.st24{fill:url(#SVGID_19_);}
	.st25{fill:url(#SVGID_20_);}
	.st26{fill:url(#SVGID_21_);}
	.st27{fill:url(#SVGID_22_);}
	.st28{fill:url(#SVGID_23_);}
	.st29{fill:url(#SVGID_24_);}
	.st30{fill:url(#SVGID_25_);}
	.st31{fill:url(#SVGID_26_);}
	.st32{fill:url(#SVGID_27_);}
	.st33{fill:url(#SVGID_28_);}
	.st34{fill:url(#SVGID_29_);}
	.st35{fill:#2B3C90;}
	.st36{fill:url(#SVGID_30_);}
	.st37{fill:#1D1A45;}
	.st38{fill:url(#SVGID_31_);}
	.st39{fill:url(#SVGID_32_);}
</style>
<g>
	<g>
		<g>
			<g>
				<linearGradient id="SVGID_1_" gradientUnits="userSpaceOnUse" x1="242.6515" y1="138.1426" x2="242.6515" y2="721.1336">
					<stop  offset="0" style="stop-color:#1F1A46"/>
					<stop  offset="0.1599" style="stop-color:#211E4C"/>
					<stop  offset="0.4318" style="stop-color:#26265D"/>
					<stop  offset="0.7806" style="stop-color:#2B337A"/>
					<stop  offset="0.9949" style="stop-color:#2B3C90"/>
				</linearGradient>
				<path class="st0" d="M392.9,266.9h-6.1c-1.8-28.2-25.9-59.6-71.7-93.4c-35-25.9-70.5-43.7-70.9-43.9c-1-0.5-2.2-0.5-3.1,0
					c-0.3,0.2-35.9,18-70.9,43.9c-45.7,33.8-69.8,65.2-71.7,93.4h-6.1c-1.9,0-3.5,1.6-3.5,3.5v360.2h307.5V270.4
					C396.4,268.5,394.8,266.9,392.9,266.9z"/>
			</g>
		</g>
	</g>
</g>
<g>
	<path class="st1" d="M739.1,213.5c0-0.8,0.7-1.5,1.5-1.5c0.8,0,1.5,0.7,1.5,1.5c0,0.8-0.7,1.5-1.5,1.5
		C739.8,215,739.1,214.4,739.1,213.5z M739.1,221c0-0.8,0.7-1.5,1.5-1.5c0.8,0,1.5,0.7,1.5,1.5c0,0.8-0.7,1.5-1.5,1.5
		C739.8,222.5,739.1,221.8,739.1,221z"/>
	<path class="st1" d="M755.1,200.9l5.7-1.1v1.2l-5.7,1.1V200.9z M755.1,203.4l5.7-1.1v1.2l-5.7,1.1V203.4z"/>
	<path class="st1" d="M762.7,221c0,0.4-0.2,1.2-1.5,1.2c-2.1,0-3.7-0.6-4.1-2.9c-1.8,2.2-4.4,3-7.2,3l-0.8-1.7l0.1-0.1
		c2.3,0,4.3-0.5,5.9-1.6c-1.3-2.5-3.4-4.6-6.1-7.1l0.7-1.9l0.2-0.1c3,2.7,5.4,6.1,6.4,8.1c0.3-0.3,0.5-0.6,0.7-1v-10.7l1.7-0.4
		l0.1,0.1v12.1c0,1.9,0.8,2.3,2.8,2.3C762.5,220.4,762.7,220.6,762.7,221z"/>
	<path class="st1" d="M765.7,214.2c0.7,1.7,1.2,3.3,1.2,4.3c0,1-0.4,2.2-1.2,2.9c-0.6,0.6-1.6,0.8-3.8,0.8h-0.7l0.5-1.9h0.7
		c1.2,0,2.1-0.1,2.5-0.3c0.5-1.2-0.2-2.9-1-4.7l1.5-1.2H765.7z M762.4,210.4c0.4,0,0.8,0,1.2,0c-0.3-0.4-0.5-1-0.5-1.5
		c0-1.3,0.8-2.1,2.2-2.1c0.6,0,1.2,0.1,1.8,0.4l-0.4,1.4c-0.5-0.2-0.9-0.3-1.2-0.3c-0.7,0-1,0.5-1,1c0,0.4,0.2,0.8,0.5,1.1
		c0.8,0,1.7-0.1,2.4-0.2l0.1,1.3c-1.3,0.2-3,0.3-5,0.4L762.4,210.4z"/>
	<path class="st1" d="M770,218.3v-12l1.7-0.4l0.1,0.1v12.1c0,1.9,0.8,2.3,2.8,2.3c0.8,0,1,0.3,1,0.6c0,0.4-0.2,1.2-1.5,1.2
		C771.8,222.2,770,221.4,770,218.3z"/>
	<path class="st1" d="M783.2,217c0,2.3-0.4,3.6-1.5,4.4c-1.3,0.7-3.1,0.8-7.6,0.8l0.5-1.9c4.6,0,6.1-0.2,6.8-0.5
		c0.1-0.3,0.1-0.8,0.2-1.5c-0.7,0.2-1.6,0.3-2.5,0.3c-2.1,0-3.1-1.1-3.1-2.8c0-2.2,1.6-4.6,3.5-4.6
		C781.8,211.3,783.2,214.1,783.2,217z M778.1,208.7l-1.9-1.4l1.2-1.8l1.9,1.3L778.1,208.7z M779.5,216.8c0.8,0,1.5-0.1,2.2-0.2
		c-0.1-1.7-1.1-3.5-2.2-3.5c-0.9,0-1.9,1.2-1.9,2.5C777.5,216.5,778.2,216.8,779.5,216.8z M781.5,208.7l-1.9-1.4l1.2-1.8l1.9,1.3
		L781.5,208.7z"/>
	<path class="st1" d="M791.5,222c0-1,0.2-2,0.4-2.7l1.5-0.5l0.2,0.1c-0.2,0.9-0.3,1.6-0.3,2.2c0,2.2,1.2,3.8,5.1,3.8
		c3.7,0,6.6-1,7-2.2c0-0.8-1.1-1.3-3.9-2l0.6-1.8c2.4,0.6,4.5,1.5,6.5,1.5c0.8,0,1,0.3,1,0.7c0,0.4-0.2,1.2-1.5,1.2h-0.9
		c-0.4,2.9-4,4.5-9.2,4.5C793.6,226.7,791.5,224.7,791.5,222z M794.6,230.3l1.2-1.8l1.9,1.3l-1.2,1.8L794.6,230.3z M798,230.3
		l1.2-1.8l1.9,1.3l-1.2,1.8L798,230.3z"/>
	<path class="st1" d="M817.1,221c0,0.4-0.2,1.2-1.4,1.2c-1,0-2.4-0.3-3.5-1.2c-0.8,0.8-1.9,1.2-3.6,1.2h-0.5l0.5-1.9h0.5
		c0.9,0,1.6-0.1,2-0.5c0.4-0.5,0.7-1.6,1.2-3.6l1.8-0.5l0.2,0.1c-0.3,1.5-0.7,2.7-1.2,3.7c0.5,0.3,1.4,0.7,3,0.7
		C816.9,220.4,817.1,220.6,817.1,221z M813.5,213.1l-2-1.4l1.2-1.8l2,1.3L813.5,213.1z"/>
	<path class="st1" d="M825.2,221c0,0.4-0.2,1.2-1.4,1.2c-1.5,0-2.9-0.3-3.9-1.2c-0.8,0.8-1.8,1.2-3.3,1.2h-0.8l0.5-1.9h0.7
		c0.7,0,1.4-0.1,1.8-0.5c0.3-0.5,0.7-1.6,1.2-3.6l1.8-0.5l0.2,0.1c-0.3,1.5-0.7,2.7-1.1,3.7c0.6,0.3,1.5,0.7,3.4,0.7
		C825,220.4,825.2,220.6,825.2,221z M817.7,224.1l1.9,1.3l-1.2,1.8l-1.9-1.4L817.7,224.1z M821.2,224.1l1.9,1.3l-1.2,1.8l-1.9-1.4
		L821.2,224.1z"/>
	<path class="st1" d="M838,221c0,0.7-0.6,1.2-1.5,1.2c-1,0-1.8-0.2-2.4-0.8c-0.4,0.7-0.9,1.1-1.9,1.1c-1.4,0-3.2-0.7-4.8-1.8
		c-1,1.3-1.7,1.5-3.6,1.5l0.5-1.9c1,0,1.3-0.3,2.1-1.5c0.9-1.5,2-4.4,4.3-4.4c1.8,0,2.6,1.8,3.5,3.7c0.9,1.8,1.3,2.1,2.8,2.1
		C837.7,220.4,838,220.6,838,221z M833,220.1c-0.1-0.1-0.1-0.3-0.2-0.4c-1-2.4-1.6-3.3-2.2-3.3c-0.9,0-1.7,1.5-2.4,2.9
		c1.2,0.8,2.7,1.4,3.5,1.4C832.4,220.7,832.8,220.5,833,220.1z"/>
	<path class="st1" d="M837,220.4h0.7c1.2,0,2.1-0.1,2.5-0.3c0.5-1.2-0.2-2.9-1-4.7l1.5-1.2h0.2c0.7,1.7,1.2,3.3,1.2,4.3
		c0,1-0.4,2.2-1.2,2.9c-0.6,0.6-1.6,0.8-3.8,0.8h-0.7L837,220.4z M836.7,225.9l1.2-1.8l1.9,1.3l-1.2,1.8L836.7,225.9z M840.2,225.9
		l1.2-1.8l1.9,1.3l-1.2,1.8L840.2,225.9z"/>
	<path class="st1" d="M866.5,221c0,0.4-0.2,1.2-1.5,1.2c-0.6,0-1.4-0.2-1.9-0.6c-0.5,3.4-3.3,5.1-6.9,5.1c-3.7,0-5.7-2.1-5.7-4.9
		c0-1,0.2-2.1,0.4-2.7l1.5-0.5l0.2,0.1c-0.2,0.8-0.2,1.6-0.2,2.2c0,2.4,0.9,4,4.2,4c2.7,0,3.9-1,4.6-1.8c0.8-1.8,0-3.6-1-6l1.7-1.2
		h0.1c0.3,0.8,0.7,2.3,1.2,3.2c0.5,1,1.2,1.4,2.2,1.4C866.2,220.4,866.5,220.6,866.5,221z M856.8,214.7l-2-1.4l1.2-1.8l2,1.3
		L856.8,214.7z"/>
	<path class="st1" d="M876.4,219.9l-0.6,1.7c-1.9,0.4-4.7,0.6-10.8,0.6l0.5-1.9c0.9,0,1.8,0,2.7,0c-0.6-0.9-1-2-1-3.1
		c0-2.5,2-4,4.6-4c1.2,0,2.4,0.4,3.2,0.8l-0.2,1.7l-0.1,0c-0.9-0.4-1.9-0.6-2.9-0.6c-1.6,0-2.6,0.8-2.6,2.1c0,0.9,0.5,2.1,1.4,3
		c2.1-0.1,3.9-0.2,5.6-0.4L876.4,219.9z"/>
	<path class="st1" d="M898.6,221c0,0.7-0.6,1.2-1.5,1.2c-1.1,0-1.9-0.3-2.5-0.9c-0.6,0.8-1.2,1.2-1.9,1.2c-1.7,0-3.5-1.2-5.4-3.5
		c-0.3,0.3-0.6,0.7-0.8,1c-0.3,1.1,0,5.4,0.8,10.2l-1.6,0.8l-0.2-0.1c-0.6-4.2-0.9-7-0.9-8.4c0-2,0.4-3.1,1.6-4.5
		c1.6-1.9,3.8-3.4,5.2-3.4c1.3,0,2.1,0.8,3.5,3.7c0.9,1.8,1.3,2.1,2.8,2.1C898.3,220.4,898.6,220.5,898.6,221z M893.6,220
		c-0.1-0.1-0.1-0.2-0.2-0.3c-1.1-2.4-1.8-3.3-2.4-3.3c-0.6,0-1.6,0.6-2.6,1.4c1.4,1.8,2.9,2.9,3.9,2.9
		C892.8,220.7,893.2,220.4,893.6,220z"/>
	<path class="st1" d="M905.6,221c0,0.4-0.2,1.2-1.4,1.2c-1,0-2.4-0.2-3-1.4c-0.8,1.1-2.2,1.4-4,1.4l0.5-1.9c0.8,0,1.7,0,2.3-0.5
		c0.1-0.4,0.2-1,0.2-1.9v-11.7l1.7-0.4l0.2,0.1v11.8c0,2.4,1.1,2.6,2.7,2.6C905.4,220.4,905.6,220.6,905.6,221z"/>
	<path class="st1" d="M921.6,218.5c0,2.8-1.7,3.7-4.3,3.7c-1,0-1.9-0.2-2.7-0.6c-0.5,0.4-1.2,0.6-2.2,0.6c-1.7,0-3-0.5-3.7-1.1
		c-0.9,0.7-2.2,1.1-4.4,1.1l0.5-1.9c1.5,0,2.5-0.1,3-0.5c0.3-0.4,0.6-1.3,1-2.5l2-0.3l0.1,0.1c-0.4,1-0.7,1.9-1.1,2.6
		c0.7,0.3,1.9,0.6,2.8,0.6c0.4,0,0.9-0.1,1.2-0.3c0.3-0.4,0.7-1.4,1.1-2.8l1.9-0.3l0.1,0.1c-0.4,1.2-0.7,2.2-1.1,2.9
		c0.5,0.2,1.1,0.3,1.7,0.3c0.8,0,1.7-0.1,2.2-0.3c0.5-1.2-0.2-2.9-1-4.7l1.6-1.2l0.1,0C921.1,215.9,921.6,217.5,921.6,218.5z"/>
	<path class="st1" d="M927.7,204c-1.2,0.1-2.7,0.3-4.6,0.3L923,203c0.3,0,0.7,0,1.1,0c-0.3-0.4-0.4-0.9-0.4-1.4c0-1.2,0.7-1.9,2-1.9
		c0.5,0,1.1,0.1,1.7,0.3l-0.3,1.2c-0.5-0.1-0.8-0.2-1.1-0.2c-0.6,0-0.9,0.4-0.9,0.9c0,0.4,0.2,0.7,0.5,1c0.8,0,1.5-0.1,2.2-0.2
		L927.7,204z M926.3,205.8l0.1,0.1l0,16.1l-1.7,0.4l-0.1-0.1v-16L926.3,205.8z"/>
</g>
<linearGradient id="SVGID_2_" gradientUnits="userSpaceOnUse" x1="462.2299" y1="327.1734" x2="1021.4658" y2="327.1734">
	<stop  offset="0.1199" style="stop-color:#FFFFFF"/>
	<stop  offset="0.9969" style="stop-color:#FFF2D5"/>
</linearGradient>
<rect x="462.2" y="285.6" class="st2" width="559.2" height="83.2"/>
<g>
	<g>
		<path class="st3" d="M544.9,335.8c0-2.4,1.3-4.7,3.2-7l2,1.2c-0.9,1.2-1.7,2.5-1.7,3.4c0,1.3,1.6,1.1,1.6,3c0,1.2-0.9,2.5-2.5,2.5
			C545.9,338.9,544.9,337.7,544.9,335.8z"/>
		<path class="st3" d="M568,336c0,1.5-0.6,2.7-2.2,2.7c-2.3,0-4.1-0.6-5.2-2.1c-1,0.4-2,0.5-3,0.5c-3.5,0-5.7-1.7-5.7-4.1
			c0-2.7,2.7-5.6,7.7-7.3v-1.5l3.7-1.4l0.3,0.1v9.6c0,1.7,0.6,2.2,3,2.2C567.7,334.7,568,335.3,568,336z M559.6,333.1v-0.6v-3
			c-2.2,0.5-4,1.5-4.4,2.5c0.3,0.9,1.7,1.3,2.8,1.3C558.6,333.2,559.1,333.2,559.6,333.1z"/>
		<path class="st3" d="M572.4,326.4c1.1,2.3,1.8,5.1,1.8,6.6c0,1.7-0.5,3.2-1.7,4.3c-1.1,1-2.5,1.4-5.7,1.4h-1l0.9-4h1
			c1.2,0,2.6-0.1,3.1-0.3c0.2-1.2-0.7-3.4-1.8-5.5l3.2-2.6H572.4z M569.1,323.9l-3.3-2.3l2-3l3.1,2.1l1.4-2.1l3.3,2.2l-2,3.1
			l-3.1-2.2L569.1,323.9z"/>
		<path class="st3" d="M577.9,332.2v-14.7l3.7-1l0.3,0.2v15.2c0,2.2,0.9,2.8,3.2,2.8c0.9,0,1.3,0.5,1.3,1.3c0,1.6-0.6,2.7-2.1,2.7
			C580,338.7,577.9,336.8,577.9,332.2z"/>
		<path class="st3" d="M597.1,322.6l-6.8,3.4c5.2,3.5,6.1,5.4,6.1,7.2c0,3.2-2.4,5.5-9,5.5h-3.2l0.9-4h2.1c2.5,0,5.1-0.4,5.9-0.8
			c0-1.5-3.7-4-6.8-5.9l-0.2-0.2l0.9-4.5l11.1-5.7l0.3,0.2L597.1,322.6z"/>
		<path class="st3" d="M612.2,336c0,1.5-0.5,2.7-2.1,2.7c-1.1,0-1.9-0.2-2.6-0.5c-1.2,3.2-4.9,5.5-9.6,6.3l-2.1-2.9l0.2-0.3
			c5-0.9,8-3,9-5c-0.7-1.6-1.5-3.4-2.4-5.1l2.8-3.3h0.4l1.4,3.9c0.9,2.5,1.6,2.8,3.7,2.8C611.9,334.7,612.2,335.3,612.2,336z"/>
		<path class="st3" d="M611,334.7h0.3c1.2,0,2.6-0.1,3.1-0.3c0.2-1.2-0.8-3.4-1.8-5.5l3.2-2.6h0.3c1.1,2.3,1.8,5.1,1.8,6.6
			c0,1.7-0.6,3.1-1.7,4.3c-1.1,1-2.5,1.4-5.7,1.4h-0.4L611,334.7z M612,344.2l2.1-3.1l3.4,2.3l-2.1,3.2L612,344.2z"/>
		<path class="st3" d="M631.9,335.5c0,4.4-3.4,8.8-10.6,8.9l-1.9-3l0.2-0.4c4.4-0.1,7.4-1.3,8.5-3.4c-0.8,0.1-1.6,0.2-2.6,0.2
			c-3,0-4.4-1.5-4.4-3.8c0-3,2.3-6.6,5.3-6.6C629.9,327.4,631.9,331.1,631.9,335.5z M626.4,334.3c0.8,0,1.5-0.1,2.2-0.2
			c-0.3-1.6-1.2-3-2.4-3c-1.1,0-2,1.2-2,2.2C624.3,334,624.9,334.3,626.4,334.3z"/>
		<path class="st3" d="M672,316.5l0.3,0.2v15c0,5.3-2.6,6.8-7,7H665c0,0-0.1,0-0.1,0h-0.3c-1.2-0.1-2.7-0.5-3.6-1.8
			c-1.1,1.3-2.6,1.8-5.4,1.8h-0.2c0,0-0.1,0-0.1,0h-0.2c-2.2-0.1-3.8-0.7-4.8-2.1c-1,0.4-2,0.5-3,0.5c-3.5,0-5.7-1.7-5.7-4.1
			c0-2.7,2.7-5.6,7.7-7.3v-1.5l3.7-1.4l0.3,0.1v9.6c0,1.6,0.6,2.2,2.8,2.2c0.9,0,1.8-0.1,2.4-0.4c0.1-0.5,0.2-1.2,0.2-2.4V321l3.7-1
			l0.3,0.2v11.7c0,2.4,0.7,2.8,2.9,2.8c0.9,0,1.8-0.1,2.4-0.4c0.1-0.5,0.2-1.2,0.2-2.4v-14.4L672,316.5z M649.2,333.1v-0.6v-3
			c-2.2,0.5-4,1.5-4.4,2.5c0.3,0.9,1.7,1.3,2.8,1.3C648.2,333.2,648.8,333.2,649.2,333.1z M655.9,315.3c0-0.4,0.1-1.3,0.3-1.9
			l2.2-0.1c-0.1,0.5-0.1,1.1-0.1,1.4c0,0.8,0.3,1.1,0.8,1.1c0.6,0,0.9-0.4,0.9-2.3l2-0.2c0,0.6,0,1,0,1.3c0,0.8,0.4,1.1,0.9,1.1
			c0.6,0,0.8-0.4,0.8-1.2c0-0.6-0.2-1.2-0.3-1.8l2.2-0.5c0.3,0.8,0.5,1.6,0.5,2.5c0,1.9-1,3.3-3.1,3.3c-0.8,0-1.5-0.3-1.9-0.8
			c-0.5,0.5-1.2,0.8-2.1,0.8C656.6,318.2,655.9,316.8,655.9,315.3z M662.2,311.6h-2.8v-4.1h2.8V311.6z M680.1,316.7l-0.1,21.4
			l-3.7,0.8l-0.3-0.2v-21.2l3.7-1L680.1,316.7z"/>
		<path class="st3" d="M706,336c0,1.5-0.6,2.7-2.2,2.7c-2.3,0-4.1-0.6-5.2-2.1c-1,0.4-2,0.5-3,0.5c-3.5,0-5.7-1.7-5.7-4.1
			c0-2.7,2.7-5.6,7.7-7.3v-1.5l3.7-1.4l0.3,0.1v9.6c0,1.7,0.6,2.2,3,2.2C705.7,334.7,706,335.3,706,336z M694.9,320.6l-3.3-2.3l2-3
			l3.1,2.1l1.4-2.1l3.3,2.2l-2,3.1l-3.1-2.2L694.9,320.6z M697.7,333.1v-0.6v-3c-2.2,0.5-4,1.5-4.4,2.5c0.3,0.9,1.7,1.3,2.8,1.3
			C696.7,333.2,697.2,333.2,697.7,333.1z"/>
		<path class="st3" d="M723.1,336c0,1.6-0.7,2.7-2.2,2.7c-1.4,0-2.4-0.3-3.3-1.1c-0.6,1-1.5,1.5-2.7,1.5c-1.4,0-3.5-0.7-5.7-2.2
			c-1.3,1.6-2.9,1.8-5.3,1.8l0.9-4c1.4,0,1.8-0.2,2.6-1.5c1.8-3,3.3-5.8,6-5.8c2.4,0,3.6,2.1,4.9,4.8c1.1,2.1,1.6,2.6,3.5,2.6
			C722.7,334.7,723.1,335.3,723.1,336z M715.8,334.8l-0.1-0.2c-1-2.3-1.8-3.4-2.5-3.4c-0.7,0-1.5,1.2-2.3,2.8
			c1.2,0.8,2.5,1.4,3.5,1.4C715,335.4,715.4,335.1,715.8,334.8z"/>
		<path class="st3" d="M739.6,330.8l-1,3.8c-2.2,0.3-5.2,1-8.5,2.1c-4.4,1.5-6.7,2-9.1,2l0.9-4c2.5,0,4.3-0.2,8.4-1.2
			c1.3-0.4,2.4-0.6,3.3-0.9c-0.4-0.2-1-0.4-1.5-0.7c-2.5-1.3-3.9-1.8-5.3-1.8c-1.4,0-2.6,0.3-3.7,0.6l-0.2-0.2l1.4-3.5
			c0.7-0.4,1.9-0.7,2.9-0.7c1.4,0,2.7,0.5,6,2.1C736.6,330.2,738.1,330.7,739.6,330.8z"/>
		<path class="st3" d="M736.6,341.6l0.2-0.3c5.2-0.9,8.9-3.4,8.9-4.5c-0.1-1.1-1.2-3.6-2.3-5.5l2.9-3.2h0.4c1.4,2.6,2.1,5.7,2.1,7.7
			c0,1.2-0.3,2.5-0.9,3.7c-1.3,2.5-5,4.5-9.2,5.2L736.6,341.6z"/>
		<path class="st3" d="M762.9,335.5c0,4.4-3.4,8.8-10.6,8.9l-1.9-3l0.2-0.4c4.4-0.1,7.4-1.3,8.5-3.4c-0.8,0.1-1.6,0.2-2.6,0.2
			c-3,0-4.4-1.5-4.4-3.8c0-3,2.3-6.6,5.3-6.6C760.9,327.4,762.9,331.1,762.9,335.5z M757.4,334.3c0.8,0,1.5-0.1,2.2-0.2
			c-0.3-1.6-1.2-3-2.4-3c-1.1,0-2,1.2-2,2.2C755.3,334,755.9,334.3,757.4,334.3z"/>
		<path class="st3" d="M791.9,336c0,1.8-0.8,2.7-2.2,2.7c-1.4,0-2.4-0.3-3.3-1.2c-0.7,1-1.5,1.6-2.7,1.6c-1.9,0-4.1-1.2-6.5-3.8
			l-0.5,0.8c-0.2,2.2,0.8,8.3,1.5,12.5l-3.4,1.6l-0.3-0.2c-0.8-4.1-1.5-9.2-1.5-11.2c0-3,0.7-5.1,2.2-6.9c2-2.4,4.9-4.6,7.1-4.6
			c2.3,0,3.3,1.9,4.8,4.8c1.1,2,1.4,2.6,3.5,2.6C791.4,334.7,791.9,335.2,791.9,336z M784.6,334.7c0-0.1,0-0.1-0.1-0.2
			c-1.1-2.4-1.9-3.4-2.6-3.4c-0.7,0-1.7,0.7-2.7,1.7c1.5,1.6,2.9,2.5,4,2.5C783.9,335.4,784.3,335.1,784.6,334.7z"/>
		<path class="st3" d="M807.9,336c0,1.5-0.5,2.7-2.1,2.7c-2,0-3.8-1.2-5-2.6c-1.1,2-3.7,2.6-8.2,2.6h-2.9l0.9-4h3.3
			c2.9,0,4-0.4,4.5-0.9c-1-1.4-4.1-4-6.7-5.8l-0.2-0.2l0.9-4.5l11.1-5.7l0.3,0.2l-1.3,4.8l-6.8,3.4c2.6,2.1,4.1,3.6,5.6,5.1
			c1.7,1.8,3.4,3.6,5.3,3.6C807.6,334.7,807.9,335.3,807.9,336z"/>
		<path class="st3" d="M819.5,336c0,1.5-0.5,2.7-2.1,2.7c-2.4,0-4.6-0.5-5.8-1.5c-1.2,1-2.6,1.5-4.7,1.5h-1.1l0.9-4h0.7
			c0.8,0,1.8-0.1,2.2-0.4c0.3-0.8,0.7-2.4,1.1-4.5l4.1-1l0.3,0.2c-0.4,1.9-0.9,3.6-1.5,5c0.9,0.4,2.4,0.6,4.5,0.6
			C819.2,334.7,819.5,335.3,819.5,336z M813.3,341l3.3,2.2l-2,3.1l-3.1-2.2l-1.5,2.2l-3.3-2.3l2-3l3.2,2.2L813.3,341z"/>
		<path class="st3" d="M829.4,336c0,1.5-0.5,2.7-2.1,2.7c-1.2,0-2.9-0.3-4-1.8c-1.1,1.4-2.8,1.8-5.9,1.8l0.9-4
			c0.9,0,1.9-0.1,2.6-0.4c0.1-0.5,0.2-1.2,0.2-2.4v-14.4l3.7-1l0.3,0.2v15.2c0,2.5,0.7,2.8,3.2,2.8
			C829.1,334.7,829.4,335.3,829.4,336z"/>
		<path class="st3" d="M842.7,334.3l-1.2,3.6c-2.5,0.5-6.4,0.8-14.2,0.8l0.9-4h2.3c-0.5-1-0.8-2-0.8-3.1c0-4,3-6.2,6.7-6.2
			c1.5,0,3.2,0.4,4.6,1l-0.4,3.4l-0.1,0.1c-1-0.3-2.3-0.6-3.3-0.6c-1.9,0-3,0.9-3,2.7c0,0.8,0.4,1.8,1.1,2.7c2.6-0.1,5-0.3,7.2-0.5
			L842.7,334.3z"/>
		<path class="st3" d="M865.9,335.2c0,2.7-0.7,4-2.5,4c-1.2,0-2.6-0.2-4.1-0.2c-1,0-2,0.2-2.8,0.5c-0.5,2.3,0.6,6.8,1,9.2l-3.6,1.6
			l-0.3-0.2c-0.4-2.7-1.2-6.3-1.2-8.3c0-3,2.2-6.7,7-6.7c1.1,0,2.2,0.1,3.1,0.3c-0.2-2.2-1.8-4.2-3.4-4.2c-1.1,0-2,0.8-2.5,2.5
			l-1.7,0.2l-0.3-0.2c0.3-4,3-6.3,5.4-6.3C863.6,327.4,865.9,331.5,865.9,335.2z"/>
		<path class="st3" d="M887.2,336c0,1.6-0.6,2.7-2.1,2.7c-3.2,0-5.2-1.1-6-3.6c-2.6,2.8-6,3.7-9.3,3.7L868,335l0.1-0.2
			c2.5-0.1,5.1-0.4,7.2-1.3c-1.6-2.6-3.5-4.7-7-8l1.2-4.2l0.2-0.1c4,3.8,7,8.1,8.3,10.5c0.3-0.3,0.5-0.6,0.7-1v-13.2l3.7-1l0.3,0.2
			v15.2c0,2.2,0.9,2.8,3.2,2.8C886.9,334.7,887.2,335.2,887.2,336z"/>
		<path class="st3" d="M914.3,336c0,1.5-0.5,2.7-2.1,2.7c-1.5,0-3.5-0.5-4.8-1.4c-1.1,0.9-2.5,1.4-4.1,1.4h0h0
			c-1.8,0-3.1-0.4-4.2-0.9c-0.8,0.6-1.8,0.9-3,0.9c-2,0-3.8-0.7-4.9-1.4c-1.3,1-3.1,1.4-6,1.4l0.9-4c2.1,0,2.9-0.1,3.5-0.4
			c0.3-0.6,0.6-2.2,0.8-3.6l4.3-0.7l0.1,0.1c-0.5,1.6-1,2.9-1.4,4c0.9,0.3,2.1,0.5,3.2,0.5c0.5,0,0.9-0.1,1.2-0.3
			c0.3-0.4,0.6-2.2,1-3.7l4-0.7l0.1,0.1c-0.5,1.6-0.9,3-1.4,4.2c0.8,0.2,1.6,0.3,2.4,0.3c0.6,0,1.3-0.1,1.8-0.4
			c0.1-0.4,0.2-0.9,0.2-1.7c0-0.9-0.1-2-0.3-3l4-1.5l0.2,0.1c0.1,0.8,0.1,1.4,0.1,2.1c0,1.4-0.2,2.7-0.5,3.7
			c0.9,0.4,2.2,0.6,3.7,0.6C914,334.7,914.3,335.3,914.3,336z"/>
		<path class="st3" d="M913,334.7c0.9,0,1.9-0.1,2.6-0.4c0.1-0.5,0.2-1.2,0.2-2.4v-14.4l3.7-1l0.3,0.2v15c0,5.6-2.9,7-7.6,7
			L913,334.7z"/>
		<path class="st3" d="M923.7,338.7v-21.2l3.7-1l0.3,0.2l-0.1,21.4l-3.7,0.8L923.7,338.7z"/>
	</g>
</g>
<g>
	<path class="st1" d="M709.6,412.3c0-0.8,0.7-1.5,1.5-1.5c0.8,0,1.5,0.7,1.5,1.5c0,0.8-0.7,1.5-1.5,1.5
		C710.3,413.8,709.6,413.1,709.6,412.3z M709.6,419.7c0-0.8,0.7-1.5,1.5-1.5c0.8,0,1.5,0.7,1.5,1.5c0,0.8-0.7,1.5-1.5,1.5
		C710.3,421.2,709.6,420.6,709.6,419.7z"/>
	<path class="st1" d="M725.6,399.7l5.7-1.1v1.2l-5.7,1.1V399.7z M725.6,402.1l5.7-1.1v1.2l-5.7,1.1V402.1z"/>
	<path class="st1" d="M733.2,419.8c0,0.4-0.2,1.2-1.5,1.2c-2.1,0-3.7-0.6-4.1-2.9c-1.8,2.2-4.4,3-7.2,3l-0.8-1.7l0.1-0.1
		c2.3,0,4.3-0.5,5.9-1.6c-1.3-2.5-3.4-4.6-6.1-7.1l0.7-1.9l0.2-0.1c3,2.7,5.4,6.1,6.4,8.1c0.3-0.3,0.5-0.6,0.7-1v-10.7l1.7-0.4
		l0.1,0.1v12.1c0,1.9,0.8,2.3,2.8,2.3C733,419.1,733.2,419.4,733.2,419.8z"/>
	<path class="st1" d="M736.2,412.9c0.7,1.7,1.2,3.3,1.2,4.3c0,1-0.4,2.2-1.2,2.9c-0.6,0.6-1.6,0.8-3.8,0.8h-0.7l0.5-1.9h0.7
		c1.2,0,2.1-0.1,2.5-0.3c0.5-1.2-0.2-2.9-1-4.7l1.5-1.2H736.2z M732.9,409.2c0.4,0,0.8,0,1.2,0c-0.3-0.4-0.5-1-0.5-1.5
		c0-1.3,0.8-2.1,2.2-2.1c0.6,0,1.2,0.1,1.8,0.4l-0.4,1.4c-0.5-0.2-0.9-0.3-1.2-0.3c-0.7,0-1,0.5-1,1c0,0.4,0.2,0.8,0.5,1.1
		c0.8,0,1.7-0.1,2.4-0.2l0.1,1.3c-1.3,0.2-3,0.3-5,0.4L732.9,409.2z"/>
	<path class="st1" d="M740.5,417v-12l1.7-0.4l0.1,0.1v12.1c0,1.9,0.8,2.3,2.8,2.3c0.8,0,1,0.3,1,0.6c0,0.4-0.2,1.2-1.5,1.2
		C742.3,421,740.5,420.2,740.5,417z"/>
	<path class="st1" d="M753.7,415.8c0,2.3-0.4,3.6-1.5,4.4c-1.3,0.7-3.1,0.8-7.6,0.8l0.5-1.9c4.6,0,6.1-0.2,6.8-0.5
		c0.1-0.3,0.1-0.8,0.2-1.5c-0.7,0.2-1.6,0.3-2.5,0.3c-2.1,0-3.1-1.1-3.1-2.8c0-2.2,1.6-4.6,3.5-4.6
		C752.3,410,753.7,412.9,753.7,415.8z M748.7,407.4l-1.9-1.4l1.2-1.8l1.9,1.3L748.7,407.4z M750,415.6c0.8,0,1.5-0.1,2.2-0.2
		c-0.1-1.7-1.1-3.5-2.2-3.5c-0.9,0-1.9,1.2-1.9,2.5C748.1,415.2,748.8,415.6,750,415.6z M752,407.4l-1.9-1.4l1.2-1.8l1.9,1.3
		L752,407.4z"/>
	<path class="st1" d="M762,420.7c0-1,0.2-2,0.4-2.7l1.5-0.5l0.2,0.1c-0.2,0.9-0.3,1.6-0.3,2.2c0,2.2,1.2,3.8,5.1,3.8
		c3.7,0,6.5-0.9,6.9-2.1c0-0.5-0.4-1.1-3.9-2l0.6-1.7c4.4,1.2,5.2,2,5.2,3.2c-0.3,2.9-4,4.5-9.2,4.5
		C764.1,425.5,762,423.4,762,420.7z M765.1,429.1l1.2-1.8l1.9,1.3l-1.2,1.8L765.1,429.1z M768.5,429.1l1.2-1.8l1.9,1.3l-1.2,1.8
		L768.5,429.1z"/>
	<path class="st1" d="M772.5,417.8c1-0.2,2-0.5,3-1c0.1-0.4,0.2-1.1,0.2-1.9V405l1.7-0.4l0.2,0v10c0,2.2-1,3.9-4,4.7L772.5,417.8z"
		/>
	<path class="st1" d="M780.6,417v-12l1.7-0.4l0.1,0.1v12.1c0,1.9,0.8,2.3,2.8,2.3c0.8,0,1,0.3,1,0.6c0,0.4-0.2,1.2-1.5,1.2
		C782.4,421,780.6,420.2,780.6,417z"/>
	<path class="st1" d="M799,419.8c0,0.7-0.6,1.2-1.5,1.2c-1,0-1.8-0.2-2.4-0.8c-0.4,0.7-0.9,1.1-1.9,1.1c-1.4,0-3.2-0.7-4.8-1.8
		c-1,1.3-1.7,1.5-3.6,1.5l0.5-1.9c1,0,1.3-0.3,2.1-1.5c0.9-1.5,2-4.4,4.3-4.4c1.8,0,2.6,1.8,3.5,3.7c0.9,1.8,1.3,2.1,2.8,2.1
		C798.7,419.1,799,419.3,799,419.8z M794.1,418.8c-0.1-0.1-0.1-0.3-0.2-0.4c-1-2.4-1.6-3.3-2.2-3.3c-0.9,0-1.7,1.5-2.4,2.9
		c1.2,0.8,2.7,1.4,3.5,1.4C793.4,419.4,793.8,419.2,794.1,418.8z"/>
	<path class="st1" d="M815,417.2c0,2.8-1.7,3.7-4.3,3.7c-1,0-1.9-0.2-2.7-0.6c-0.5,0.4-1.2,0.6-2.2,0.6c-1.7,0-3-0.5-3.7-1.1
		c-0.9,0.7-2.2,1.1-4.4,1.1l0.5-1.9c1.5,0,2.5-0.1,3-0.5c0.3-0.4,0.6-1.3,1-2.5l2-0.3l0.1,0.1c-0.4,1-0.7,1.9-1.1,2.6
		c0.7,0.3,1.9,0.6,2.8,0.6c0.4,0,0.9-0.1,1.2-0.3c0.3-0.4,0.7-1.4,1.1-2.8l1.9-0.3l0.1,0.1c-0.4,1.2-0.7,2.2-1.1,2.9
		c0.5,0.2,1.1,0.3,1.7,0.3c0.8,0,1.7-0.1,2.2-0.3c0.5-1.2-0.2-2.9-1-4.7l1.6-1.2l0.1,0C814.5,414.6,815,416.2,815,417.2z
		 M806.9,411.7l-1.9-1.4l1.2-1.8l1.9,1.3L806.9,411.7z M808.4,409l-2-1.4l1.2-1.8l1.9,1.3L808.4,409z M808.4,410.4l1.2-1.8l1.9,1.3
		l-1.2,1.8L808.4,410.4z"/>
	<path class="st1" d="M839.4,419.8c0,0.4-0.2,1.2-1.5,1.2c-0.6,0-1.4-0.2-1.9-0.6c-0.5,3.4-3.3,5.1-6.9,5.1c-3.7,0-5.7-2.1-5.7-4.9
		c0-1,0.2-2.1,0.4-2.7l1.5-0.5l0.2,0.1c-0.2,0.8-0.2,1.6-0.2,2.2c0,2.4,0.9,4,4.2,4c2.7,0,3.9-1,4.6-1.8c0.8-1.8,0-3.6-1-6l1.7-1.2
		h0.1c0.3,0.8,0.7,2.3,1.2,3.2c0.5,1,1.2,1.4,2.2,1.4C839.1,419.1,839.4,419.4,839.4,419.8z M829.7,413.4l-2-1.4l1.2-1.8l2,1.3
		L829.7,413.4z"/>
	<path class="st1" d="M849.3,418.7l-0.6,1.7c-1.9,0.4-4.7,0.6-10.8,0.6l0.5-1.9c0.9,0,1.8,0,2.7,0c-0.6-0.9-1-2-1-3.1
		c0-2.5,2-4,4.6-4c1.2,0,2.4,0.4,3.2,0.8l-0.2,1.7l-0.1,0c-0.9-0.4-1.9-0.6-2.9-0.6c-1.6,0-2.6,0.8-2.6,2.1c0,0.9,0.5,2.1,1.4,3
		c2.1-0.1,3.9-0.2,5.6-0.4L849.3,418.7z"/>
	<path class="st1" d="M871.4,419.8c0,0.7-0.6,1.2-1.5,1.2c-1.1,0-1.9-0.3-2.5-0.9c-0.6,0.8-1.2,1.2-1.9,1.2c-1.7,0-3.5-1.2-5.4-3.5
		c-0.3,0.3-0.6,0.7-0.8,1c-0.3,1.1,0,5.4,0.8,10.2l-1.6,0.8l-0.2-0.1c-0.6-4.2-0.9-7-0.9-8.4c0-2,0.4-3.1,1.6-4.5
		c1.6-1.9,3.8-3.4,5.2-3.4c1.3,0,2.1,0.8,3.5,3.7c0.9,1.8,1.3,2.1,2.8,2.1C871.1,419.1,871.4,419.3,871.4,419.8z M866.4,418.7
		c-0.1-0.1-0.1-0.2-0.2-0.3c-1.1-2.4-1.8-3.3-2.4-3.3c-0.6,0-1.6,0.6-2.6,1.4c1.4,1.8,2.9,2.9,3.9,2.9
		C865.6,419.4,866.1,419.2,866.4,418.7z"/>
	<path class="st1" d="M878.4,419.8c0,0.4-0.2,1.2-1.4,1.2c-1,0-2.4-0.2-3-1.4c-0.8,1.1-2.2,1.4-4,1.4l0.5-1.9c0.8,0,1.7,0,2.3-0.5
		c0.1-0.4,0.2-1,0.2-1.9v-11.7l1.7-0.4l0.2,0.1v11.8c0,2.4,1.1,2.6,2.7,2.6C878.2,419.1,878.4,419.4,878.4,419.8z"/>
	<path class="st1" d="M894.4,417.2c0,2.8-1.7,3.7-4.3,3.7c-1,0-1.9-0.2-2.7-0.6c-0.5,0.4-1.2,0.6-2.2,0.6c-1.7,0-3-0.5-3.7-1.1
		c-0.9,0.7-2.2,1.1-4.4,1.1l0.5-1.9c1.5,0,2.5-0.1,3-0.5c0.3-0.4,0.6-1.3,1-2.5l2-0.3l0.1,0.1c-0.4,1-0.7,1.9-1.1,2.6
		c0.7,0.3,1.9,0.6,2.8,0.6c0.4,0,0.9-0.1,1.2-0.3c0.3-0.4,0.7-1.4,1.1-2.8l1.9-0.3l0.1,0.1c-0.4,1.2-0.7,2.2-1.1,2.9
		c0.5,0.2,1.1,0.3,1.7,0.3c0.8,0,1.7-0.1,2.2-0.3c0.5-1.2-0.2-2.9-1-4.7l1.6-1.2l0.1,0C893.9,414.6,894.4,416.2,894.4,417.2z"/>
	<path class="st1" d="M900.5,402.7c-1.2,0.1-2.7,0.3-4.6,0.3l-0.1-1.3c0.3,0,0.7,0,1.1,0c-0.3-0.4-0.4-0.9-0.4-1.4
		c0-1.2,0.7-1.9,2-1.9c0.5,0,1.1,0.1,1.7,0.3l-0.3,1.2c-0.5-0.1-0.8-0.2-1.1-0.2c-0.6,0-0.9,0.4-0.9,0.9c0,0.4,0.2,0.7,0.5,1
		c0.8,0,1.5-0.1,2.2-0.2L900.5,402.7z M899.2,404.6l0.1,0.1l0,16.1l-1.7,0.4l-0.1-0.1v-16L899.2,404.6z"/>
	<path class="st1" d="M921.8,419.8c0,0.7-0.6,1.2-1.5,1.2c-1.1,0-1.9-0.3-2.5-0.9c-0.6,0.8-1.2,1.2-1.9,1.2c-1.7,0-3.5-1.2-5.4-3.5
		c-0.3,0.3-0.6,0.7-0.8,1c-0.3,1.1,0,5.4,0.8,10.2l-1.6,0.8l-0.2-0.1c-0.6-4.2-0.9-7-0.9-8.4c0-2,0.4-3.1,1.6-4.5
		c1.6-1.9,3.8-3.4,5.2-3.4c1.3,0,2.1,0.8,3.5,3.7c0.9,1.8,1.3,2.1,2.8,2.1C921.5,419.1,921.8,419.3,921.8,419.8z M916.8,418.7
		c-0.1-0.1-0.1-0.2-0.2-0.3c-1.1-2.4-1.8-3.3-2.4-3.3c-0.6,0-1.6,0.6-2.6,1.4c1.4,1.8,2.9,2.9,3.9,2.9
		C916,419.4,916.5,419.2,916.8,418.7z"/>
	<path class="st1" d="M920.8,419.1h0.7c1.2,0,2.1-0.1,2.5-0.3c0.5-1.2-0.2-2.9-1-4.7l1.5-1.2h0.2c0.7,1.7,1.2,3.3,1.2,4.3
		c0,1-0.4,2.2-1.2,2.9c-0.6,0.6-1.6,0.8-3.8,0.8h-0.7L920.8,419.1z M920.8,408.9l1.2-1.8l1.9,1.3l-1.2,1.8L920.8,408.9z
		 M922.2,406.1l1.2-1.8l1.9,1.3l-1.2,1.9L922.2,406.1z M924.2,408.9l1.2-1.8l1.9,1.3l-1.2,1.8L924.2,408.9z"/>
</g>
<linearGradient id="SVGID_3_" gradientUnits="userSpaceOnUse" x1="462.2304" y1="512.1777" x2="1021.4662" y2="512.1777">
	<stop  offset="0.1199" style="stop-color:#FFFFFF"/>
	<stop  offset="0.9969" style="stop-color:#FFF2D5"/>
</linearGradient>
<rect x="462.2" y="470.6" class="st4" width="559.2" height="83.2"/>
<g>
	<g>
		<path class="st3" d="M544.2,521.4c0-1.3,1.2-2.5,2.6-2.5c1.4,0,2.6,1.2,2.6,2.5c0,1.4-1.2,2.6-2.6,2.6
			C545.4,523.9,544.2,522.8,544.2,521.4z"/>
		<path class="st3" d="M566.8,520.8c0,1.5-0.6,2.7-2.2,2.7c-2.3,0-4.1-0.6-5.2-2.1c-1,0.4-2,0.5-3,0.5c-3.5,0-5.7-1.7-5.7-4.1
			c0-2.7,2.7-5.6,7.7-7.3V509l3.7-1.4l0.3,0.1v9.6c0,1.7,0.6,2.2,3,2.2C566.5,519.5,566.8,520.1,566.8,520.8z M558.5,517.9v-0.6v-3
			c-2.2,0.5-4,1.5-4.4,2.5c0.3,0.9,1.7,1.3,2.8,1.3C557.5,518,558,518,558.5,517.9z"/>
		<path class="st3" d="M571.3,511.2c1.1,2.3,1.8,5.1,1.8,6.6c0,1.7-0.5,3.2-1.7,4.3c-1.1,1-2.5,1.4-5.7,1.4h-1l0.9-4h1
			c1.2,0,2.6-0.1,3.1-0.3c0.2-1.2-0.7-3.4-1.8-5.5l3.2-2.6H571.3z M568,508.7l-3.3-2.3l2-3l3.1,2.1l1.4-2.1l3.3,2.2l-2,3.1l-3.1-2.2
			L568,508.7z"/>
		<path class="st3" d="M576.7,517v-14.7l3.7-1l0.3,0.2v15.2c0,2.2,0.9,2.8,3.2,2.8c0.9,0,1.3,0.5,1.3,1.3c0,1.6-0.6,2.7-2.1,2.7
			C578.9,523.5,576.7,521.6,576.7,517z"/>
		<path class="st3" d="M595.9,507.4l-6.8,3.4c5.2,3.5,6.1,5.4,6.1,7.2c0,3.2-2.4,5.5-9,5.5h-3.2l0.9-4h2.1c2.5,0,5.1-0.4,5.9-0.8
			c0-1.5-3.7-4-6.8-5.9l-0.2-0.2l0.9-4.5l11.1-5.7l0.3,0.2L595.9,507.4z"/>
		<path class="st3" d="M611.1,520.8c0,1.5-0.5,2.7-2.1,2.7c-1.1,0-1.9-0.2-2.6-0.5c-1.2,3.2-4.9,5.5-9.6,6.3l-2.1-2.9l0.2-0.3
			c5-0.9,8-3,9-5c-0.7-1.6-1.5-3.4-2.4-5.1l2.8-3.3h0.4l1.4,3.9c0.9,2.5,1.6,2.8,3.7,2.8C610.8,519.5,611.1,520.1,611.1,520.8z"/>
		<path class="st3" d="M609.8,519.5h0.3c1.2,0,2.6-0.1,3.1-0.3c0.2-1.2-0.8-3.4-1.8-5.5l3.2-2.6h0.3c1.1,2.3,1.8,5.1,1.8,6.6
			c0,1.7-0.6,3.1-1.7,4.3c-1.1,1-2.5,1.4-5.7,1.4H609L609.8,519.5z M610.9,529l2.1-3.1l3.4,2.3l-2.1,3.2L610.9,529z"/>
		<path class="st3" d="M630.8,520.3c0,4.4-3.4,8.8-10.6,8.9l-1.9-3l0.2-0.4c4.4-0.1,7.4-1.3,8.5-3.4c-0.8,0.1-1.6,0.2-2.6,0.2
			c-3,0-4.4-1.5-4.4-3.8c0-3,2.3-6.6,5.3-6.6C628.7,512.2,630.8,515.9,630.8,520.3z M625.3,519.1c0.8,0,1.5-0.1,2.2-0.2
			c-0.3-1.6-1.2-3-2.4-3c-1.1,0-2,1.2-2,2.2C623.2,518.8,623.8,519.1,625.3,519.1z"/>
		<path class="st3" d="M670.9,501.3l0.3,0.2v15c0,5.3-2.6,6.8-7,7h-0.2c0,0-0.1,0-0.1,0h-0.3c-1.2-0.1-2.7-0.5-3.6-1.8
			c-1.1,1.3-2.6,1.8-5.4,1.8h-0.2c0,0-0.1,0-0.1,0h-0.2c-2.2-0.1-3.8-0.7-4.8-2.1c-1,0.4-2,0.5-3,0.5c-3.5,0-5.7-1.7-5.7-4.1
			c0-2.7,2.7-5.6,7.7-7.3V509l3.7-1.4l0.3,0.1v9.6c0,1.6,0.6,2.2,2.8,2.2c0.9,0,1.8-0.1,2.4-0.4c0.1-0.5,0.2-1.2,0.2-2.4v-10.9
			l3.7-1l0.3,0.2v11.7c0,2.4,0.7,2.8,2.9,2.8c0.9,0,1.8-0.1,2.4-0.4c0.1-0.5,0.2-1.2,0.2-2.4v-14.4L670.9,501.3z M648.1,517.9v-0.6
			v-3c-2.2,0.5-4,1.5-4.4,2.5c0.3,0.9,1.7,1.3,2.8,1.3C647.1,518,647.6,518,648.1,517.9z M654.7,500.1c0-0.4,0.1-1.3,0.3-1.9
			l2.2-0.1c-0.1,0.5-0.1,1.1-0.1,1.4c0,0.8,0.3,1.1,0.8,1.1c0.6,0,0.9-0.4,0.9-2.3l2-0.2c0,0.6,0,1,0,1.3c0,0.8,0.4,1.1,0.9,1.1
			c0.6,0,0.8-0.4,0.8-1.2c0-0.6-0.2-1.2-0.3-1.8l2.2-0.5c0.3,0.8,0.5,1.6,0.5,2.5c0,1.9-1,3.3-3.1,3.3c-0.8,0-1.5-0.3-1.9-0.8
			c-0.5,0.5-1.2,0.8-2.1,0.8C655.4,503,654.7,501.6,654.7,500.1z M661,496.4h-2.8v-4.1h2.8V496.4z M679,501.5l-0.1,21.4l-3.7,0.8
			l-0.3-0.2v-21.2l3.7-1L679,501.5z"/>
		<path class="st3" d="M704.9,520.8c0,1.5-0.6,2.7-2.2,2.7c-2.3,0-4.1-0.6-5.2-2.1c-1,0.4-2,0.5-3,0.5c-3.5,0-5.7-1.7-5.7-4.1
			c0-2.7,2.7-5.6,7.7-7.3V509l3.7-1.4l0.3,0.1v9.6c0,1.7,0.6,2.2,3,2.2C704.6,519.5,704.9,520.1,704.9,520.8z M693.8,505.4l-3.3-2.3
			l2-3l3.1,2.1l1.4-2.1l3.3,2.2l-2,3.1l-3.1-2.2L693.8,505.4z M696.6,517.9v-0.6v-3c-2.2,0.5-4,1.5-4.4,2.5c0.3,0.9,1.7,1.3,2.8,1.3
			C695.6,518,696.1,518,696.6,517.9z"/>
		<path class="st3" d="M722,520.8c0,1.6-0.7,2.7-2.2,2.7c-1.4,0-2.4-0.3-3.3-1.1c-0.6,1-1.5,1.5-2.7,1.5c-1.4,0-3.5-0.7-5.7-2.2
			c-1.3,1.6-2.9,1.8-5.3,1.8l0.9-4c1.4,0,1.8-0.2,2.6-1.5c1.8-3,3.3-5.8,6-5.8c2.4,0,3.6,2.1,4.9,4.8c1.1,2.1,1.6,2.6,3.5,2.6
			C721.6,519.5,722,520.1,722,520.8z M714.6,519.6l-0.1-0.2c-1-2.3-1.8-3.4-2.5-3.4c-0.7,0-1.5,1.2-2.3,2.8c1.2,0.8,2.5,1.4,3.5,1.4
			C713.9,520.2,714.3,519.9,714.6,519.6z"/>
		<path class="st3" d="M738.4,515.6l-1,3.8c-2.2,0.3-5.2,1-8.5,2.1c-4.4,1.5-6.7,2-9.1,2l0.9-4c2.5,0,4.3-0.2,8.4-1.2
			c1.3-0.4,2.4-0.6,3.3-0.9c-0.4-0.2-1-0.4-1.5-0.7c-2.5-1.3-3.9-1.8-5.3-1.8c-1.4,0-2.6,0.3-3.7,0.6l-0.2-0.2l1.4-3.5
			c0.7-0.4,1.9-0.7,2.9-0.7c1.4,0,2.7,0.5,6,2.1C735.4,515,736.9,515.5,738.4,515.6z"/>
		<path class="st3" d="M735.5,526.4l0.2-0.3c5.2-0.9,8.9-3.4,8.9-4.5c-0.1-1.1-1.2-3.6-2.3-5.5l2.9-3.2h0.4c1.4,2.6,2.1,5.7,2.1,7.7
			c0,1.2-0.3,2.5-0.9,3.7c-1.3,2.5-5,4.5-9.2,5.2L735.5,526.4z"/>
		<path class="st3" d="M761.8,520.3c0,4.4-3.4,8.8-10.6,8.9l-1.9-3l0.2-0.4c4.4-0.1,7.4-1.3,8.5-3.4c-0.8,0.1-1.6,0.2-2.6,0.2
			c-3,0-4.4-1.5-4.4-3.8c0-3,2.3-6.6,5.3-6.6C759.8,512.2,761.8,515.9,761.8,520.3z M756.3,519.1c0.8,0,1.5-0.1,2.2-0.2
			c-0.3-1.6-1.2-3-2.4-3c-1.1,0-2,1.2-2,2.2C754.2,518.8,754.8,519.1,756.3,519.1z"/>
		<path class="st3" d="M790.8,520.8c0,1.8-0.8,2.7-2.2,2.7c-1.4,0-2.4-0.3-3.3-1.2c-0.7,1-1.5,1.6-2.7,1.6c-1.9,0-4.1-1.2-6.5-3.8
			l-0.5,0.8c-0.2,2.2,0.8,8.3,1.5,12.5l-3.4,1.6l-0.3-0.2c-0.8-4.1-1.5-9.2-1.5-11.2c0-3,0.7-5.1,2.2-6.9c2-2.4,4.9-4.6,7.1-4.6
			c2.3,0,3.3,1.9,4.8,4.8c1.1,2,1.4,2.6,3.5,2.6C790.3,519.5,790.8,520,790.8,520.8z M783.5,519.5c0-0.1,0-0.1-0.1-0.2
			c-1.1-2.4-1.9-3.4-2.6-3.4c-0.7,0-1.7,0.7-2.7,1.7c1.5,1.6,2.9,2.5,4,2.5C782.7,520.2,783.1,519.9,783.5,519.5z"/>
		<path class="st3" d="M806.8,520.8c0,1.5-0.5,2.7-2.1,2.7c-2,0-3.8-1.2-5-2.6c-1.1,2-3.7,2.6-8.2,2.6h-2.9l0.9-4h3.3
			c2.9,0,4-0.4,4.5-0.9c-1-1.4-4.1-4-6.7-5.8l-0.2-0.2l0.9-4.5l11.1-5.7l0.3,0.2l-1.3,4.8l-6.8,3.4c2.6,2.1,4.1,3.6,5.6,5.1
			c1.7,1.8,3.4,3.6,5.3,3.6C806.5,519.5,806.8,520.1,806.8,520.8z"/>
		<path class="st3" d="M818.3,520.8c0,1.5-0.5,2.7-2.1,2.7c-2.4,0-4.6-0.5-5.8-1.5c-1.2,1-2.6,1.5-4.7,1.5h-1.1l0.9-4h0.7
			c0.8,0,1.8-0.1,2.2-0.4c0.3-0.8,0.7-2.4,1.1-4.5l4.1-1l0.3,0.2c-0.4,1.9-0.9,3.6-1.5,5c0.9,0.4,2.4,0.6,4.5,0.6
			C818.1,519.5,818.3,520.1,818.3,520.8z M812.1,525.8l3.3,2.2l-2,3.1l-3.1-2.2l-1.5,2.2l-3.3-2.3l2-3l3.2,2.2L812.1,525.8z"/>
		<path class="st3" d="M828.3,520.8c0,1.5-0.5,2.7-2.1,2.7c-1.2,0-2.9-0.3-4-1.8c-1.1,1.4-2.8,1.8-5.9,1.8l0.9-4
			c0.9,0,1.9-0.1,2.6-0.4c0.1-0.5,0.2-1.2,0.2-2.4v-14.4l3.7-1l0.3,0.2v15.2c0,2.5,0.7,2.8,3.2,2.8
			C828,519.5,828.3,520.1,828.3,520.8z"/>
		<path class="st3" d="M841.5,519.1l-1.2,3.6c-2.5,0.5-6.4,0.8-14.2,0.8l0.9-4h2.3c-0.5-1-0.8-2-0.8-3.1c0-4,3-6.2,6.7-6.2
			c1.5,0,3.2,0.4,4.6,1l-0.4,3.4l-0.1,0.1c-1-0.3-2.3-0.6-3.3-0.6c-1.9,0-3,0.9-3,2.7c0,0.8,0.4,1.8,1.1,2.7c2.6-0.1,5-0.3,7.2-0.5
			L841.5,519.1z"/>
		<path class="st3" d="M864.8,520c0,2.7-0.7,4-2.5,4c-1.2,0-2.6-0.2-4.1-0.2c-1,0-2,0.2-2.8,0.5c-0.5,2.3,0.6,6.8,1,9.2l-3.6,1.6
			l-0.3-0.2c-0.4-2.7-1.2-6.3-1.2-8.3c0-3,2.2-6.7,7-6.7c1.1,0,2.2,0.1,3.1,0.3c-0.2-2.2-1.8-4.2-3.4-4.2c-1.1,0-2,0.8-2.5,2.5
			l-1.7,0.2l-0.3-0.2c0.3-4,3-6.3,5.4-6.3C862.4,512.2,864.8,516.3,864.8,520z"/>
		<path class="st3" d="M886.1,520.8c0,1.6-0.6,2.7-2.1,2.7c-3.2,0-5.2-1.1-6-3.6c-2.6,2.8-6,3.7-9.3,3.7l-1.9-3.8l0.1-0.2
			c2.5-0.1,5.1-0.4,7.2-1.3c-1.6-2.6-3.5-4.7-7-8l1.2-4.2l0.2-0.1c4,3.8,7,8.1,8.3,10.5c0.3-0.3,0.5-0.6,0.7-1v-13.2l3.7-1l0.3,0.2
			v15.2c0,2.2,0.9,2.8,3.2,2.8C885.8,519.5,886.1,520,886.1,520.8z"/>
		<path class="st3" d="M913.2,520.8c0,1.5-0.5,2.7-2.1,2.7c-1.5,0-3.5-0.5-4.8-1.4c-1.1,0.9-2.5,1.4-4.1,1.4h0h0
			c-1.8,0-3.1-0.4-4.2-0.9c-0.8,0.6-1.8,0.9-3,0.9c-2,0-3.8-0.7-4.9-1.4c-1.3,1-3.1,1.4-6,1.4l0.9-4c2.1,0,2.9-0.1,3.5-0.4
			c0.3-0.6,0.6-2.2,0.8-3.6l4.3-0.7l0.1,0.1c-0.5,1.6-1,2.9-1.4,4c0.9,0.3,2.1,0.5,3.2,0.5c0.5,0,0.9-0.1,1.2-0.3
			c0.3-0.4,0.6-2.2,1-3.7l4-0.7l0.1,0.1c-0.5,1.6-0.9,3-1.4,4.2c0.8,0.2,1.6,0.3,2.4,0.3c0.6,0,1.3-0.1,1.8-0.4
			c0.1-0.4,0.2-0.9,0.2-1.7c0-0.9-0.1-2-0.3-3l4-1.5l0.2,0.1c0.1,0.8,0.1,1.4,0.1,2.1c0,1.4-0.2,2.7-0.5,3.7
			c0.9,0.4,2.2,0.6,3.7,0.6C912.8,519.5,913.2,520.1,913.2,520.8z"/>
		<path class="st3" d="M911.9,519.5c0.9,0,1.9-0.1,2.6-0.4c0.1-0.5,0.2-1.2,0.2-2.4v-14.4l3.7-1l0.3,0.2v15c0,5.6-2.9,7-7.6,7
			L911.9,519.5z"/>
		<path class="st3" d="M922.6,523.5v-21.2l3.7-1l0.3,0.2l-0.1,21.4l-3.7,0.8L922.6,523.5z"/>
	</g>
</g>
<path class="st5" d="M1023,42.8h-11.1v-6.6c0-1.7-1.1-3-2.6-3.5c1.4-1.1,2.3-2.9,2.3-4.8c0-3.4-2.8-6.2-6.2-6.2
	c-1,0-1.9,0.2-2.8,0.7c0.4-1.1,0.5-2.2,0.5-3.4c0-6.2-5-11.2-11.2-11.2c-6.2,0-11.2,5-11.2,11.2c0,1.2,0.2,2.4,0.5,3.4
	c-0.8-0.4-1.8-0.7-2.8-0.7c-3.4,0-6.2,2.8-6.2,6.2c0,1.9,0.9,3.6,2.3,4.8c-1.5,0.4-2.6,1.8-2.6,3.5v6.6h-10h-10v-6.6
	c0-1.7-1.1-3-2.6-3.5c1.4-1.1,2.3-2.9,2.3-4.8c0-3.4-2.8-6.2-6.2-6.2c-1,0-1.9,0.2-2.8,0.7c0.4-1.1,0.5-2.2,0.5-3.4
	c0-6.2-5-11.2-11.2-11.2c-6.2,0-11.2,5-11.2,11.2c0,1.2,0.2,2.4,0.5,3.4c-0.8-0.4-1.8-0.7-2.8-0.7c-3.4,0-6.2,2.8-6.2,6.2
	c0,1.9,0.9,3.6,2.3,4.8c-1.5,0.4-2.6,1.8-2.6,3.5v6.6h-10h-10v-6.6c0-1.7-1.1-3-2.6-3.5c1.4-1.1,2.3-2.9,2.3-4.8
	c0-3.4-2.8-6.2-6.2-6.2c-1,0-1.9,0.2-2.8,0.7c0.4-1.1,0.5-2.2,0.5-3.4c0-6.2-5-11.2-11.2-11.2c-6.2,0-11.2,5-11.2,11.2
	c0,1.2,0.2,2.4,0.5,3.4c-0.8-0.4-1.8-0.7-2.8-0.7c-3.4,0-6.2,2.8-6.2,6.2c0,1.9,0.9,3.6,2.3,4.8c-1.5,0.4-2.6,1.8-2.6,3.5v6.6h-10
	h-10v-6.6c0-1.7-1.1-3-2.6-3.5c1.4-1.1,2.3-2.9,2.3-4.8c0-3.4-2.8-6.2-6.2-6.2c-1,0-1.9,0.2-2.8,0.7c0.4-1.1,0.5-2.2,0.5-3.4
	c0-6.2-5-11.2-11.2-11.2c-6.2,0-11.2,5-11.2,11.2c0,1.2,0.2,2.4,0.5,3.4c-0.8-0.4-1.8-0.7-2.8-0.7c-3.4,0-6.2,2.8-6.2,6.2
	c0,1.9,0.9,3.6,2.3,4.8c-1.5,0.4-2.6,1.8-2.6,3.5v6.6h-10h-10v-6.6c0-1.7-1.1-3-2.6-3.5c1.4-1.1,2.3-2.9,2.3-4.8
	c0-3.4-2.8-6.2-6.2-6.2c-1,0-1.9,0.2-2.8,0.7c0.4-1.1,0.5-2.2,0.5-3.4c0-6.2-5-11.2-11.2-11.2c-6.2,0-11.2,5-11.2,11.2
	c0,1.2,0.2,2.4,0.5,3.4c-0.8-0.4-1.8-0.7-2.8-0.7c-3.4,0-6.2,2.8-6.2,6.2c0,1.9,0.9,3.6,2.3,4.8c-1.5,0.4-2.6,1.8-2.6,3.5v6.6h-10
	h-10v-6.6c0-1.7-1.1-3-2.6-3.5c1.4-1.1,2.3-2.9,2.3-4.8c0-3.4-2.8-6.2-6.2-6.2c-1,0-1.9,0.2-2.8,0.7c0.4-1.1,0.5-2.2,0.5-3.4
	c0-6.2-5-11.2-11.2-11.2c-6.2,0-11.2,5-11.2,11.2c0,1.2,0.2,2.4,0.5,3.4c-0.8-0.4-1.8-0.7-2.8-0.7c-3.4,0-6.2,2.8-6.2,6.2
	c0,1.9,0.9,3.6,2.3,4.8c-1.5,0.4-2.6,1.8-2.6,3.5v6.6h-10h-10v-6.6c0-1.7-1.1-3-2.6-3.5c1.4-1.1,2.3-2.9,2.3-4.8
	c0-3.4-2.8-6.2-6.2-6.2c-1,0-1.9,0.2-2.8,0.7c0.4-1.1,0.5-2.2,0.5-3.4c0-6.2-5-11.2-11.2-11.2c-6.2,0-11.2,5-11.2,11.2
	c0,1.2,0.2,2.4,0.5,3.4c-0.8-0.4-1.8-0.7-2.8-0.7c-3.4,0-6.2,2.8-6.2,6.2c0,1.9,0.9,3.6,2.3,4.8c-1.5,0.4-2.6,1.8-2.6,3.5v6.6h-10
	h-10v-6.6c0-1.7-1.1-3-2.6-3.5c1.4-1.1,2.3-2.9,2.3-4.8c0-3.4-2.8-6.2-6.2-6.2c-1,0-1.9,0.2-2.8,0.7c0.4-1.1,0.5-2.2,0.5-3.4
	c0-6.2-5-11.2-11.2-11.2c-6.2,0-11.2,5-11.2,11.2c0,1.2,0.2,2.4,0.5,3.4c-0.8-0.4-1.8-0.7-2.8-0.7c-3.4,0-6.2,2.8-6.2,6.2
	c0,1.9,0.9,3.6,2.3,4.8c-1.5,0.4-2.6,1.8-2.6,3.5v6.6h-10h-10v-6.6c0-1.7-1.1-3-2.6-3.5c1.4-1.1,2.3-2.9,2.3-4.8
	c0-3.4-2.8-6.2-6.2-6.2c-1,0-1.9,0.2-2.8,0.7c0.4-1.1,0.5-2.2,0.5-3.4c0-6.2-5-11.2-11.2-11.2c-6.2,0-11.2,5-11.2,11.2
	c0,1.2,0.2,2.4,0.5,3.4c-0.8-0.4-1.8-0.7-2.8-0.7c-3.4,0-6.2,2.8-6.2,6.2c0,1.9,0.9,3.6,2.3,4.8c-1.5,0.4-2.6,1.8-2.6,3.5v6.6h-10
	h-10v-6.6c0-1.7-1.1-3-2.6-3.5c1.4-1.1,2.3-2.9,2.3-4.8c0-3.4-2.8-6.2-6.2-6.2c-1,0-1.9,0.2-2.8,0.7c0.4-1.1,0.5-2.2,0.5-3.4
	c0-6.2-5-11.2-11.2-11.2c-6.2,0-11.2,5-11.2,11.2c0,1.2,0.2,2.4,0.5,3.4c-0.8-0.4-1.8-0.7-2.8-0.7c-3.4,0-6.2,2.8-6.2,6.2
	c0,1.9,0.9,3.6,2.3,4.8c-1.5,0.4-2.6,1.8-2.6,3.5v6.6h-10h-10v-6.6c0-1.7-1.1-3-2.6-3.5c1.4-1.1,2.3-2.9,2.3-4.8
	c0-3.4-2.8-6.2-6.2-6.2c-1,0-1.9,0.2-2.8,0.7c0.4-1.1,0.5-2.2,0.5-3.4c0-6.2-5-11.2-11.2-11.2c-6.2,0-11.2,5-11.2,11.2
	c0,1.2,0.2,2.4,0.5,3.4c-0.8-0.4-1.8-0.7-2.8-0.7c-3.4,0-6.2,2.8-6.2,6.2c0,1.9,0.9,3.6,2.3,4.8c-1.5,0.4-2.6,1.8-2.6,3.5v6.6h-10
	h-10v-6.6c0-1.7-1.1-3-2.6-3.5c1.4-1.1,2.3-2.9,2.3-4.8c0-3.4-2.8-6.2-6.2-6.2c-1,0-1.9,0.2-2.8,0.7c0.4-1.1,0.5-2.2,0.5-3.4
	c0-6.2-5-11.2-11.2-11.2c-6.2,0-11.2,5-11.2,11.2c0,1.2,0.2,2.4,0.5,3.4c-0.8-0.4-1.8-0.7-2.8-0.7c-3.4,0-6.2,2.8-6.2,6.2
	c0,1.9,0.9,3.6,2.3,4.8c-1.5,0.4-2.6,1.8-2.6,3.5v6.6h-10h-10v-6.6c0-1.7-1.1-3-2.6-3.5c1.4-1.1,2.3-2.9,2.3-4.8
	c0-3.4-2.8-6.2-6.2-6.2c-1,0-1.9,0.2-2.8,0.7c0.4-1.1,0.5-2.2,0.5-3.4c0-6.2-5-11.2-11.2-11.2c-6.2,0-11.2,5-11.2,11.2
	c0,1.2,0.2,2.4,0.5,3.4c-0.8-0.4-1.8-0.7-2.8-0.7c-3.4,0-6.2,2.8-6.2,6.2c0,1.9,0.9,3.6,2.3,4.8c-1.5,0.4-2.6,1.8-2.6,3.5v6.6h-10
	h-10v-6.6c0-1.7-1.1-3-2.6-3.5c1.4-1.1,2.3-2.9,2.3-4.8c0-3.4-2.8-6.2-6.2-6.2c-1,0-1.9,0.2-2.8,0.7c0.4-1.1,0.5-2.2,0.5-3.4
	c0-6.2-5-11.2-11.2-11.2c-6.2,0-11.2,5-11.2,11.2c0,1.2,0.2,2.4,0.5,3.4c-0.8-0.4-1.8-0.7-2.8-0.7c-3.4,0-6.2,2.8-6.2,6.2
	c0,1.9,0.9,3.6,2.3,4.8c-1.5,0.4-2.6,1.8-2.6,3.5v6.6h-10h-10v-6.6c0-1.7-1.1-3-2.6-3.5c1.4-1.1,2.3-2.9,2.3-4.8
	c0-3.4-2.8-6.2-6.2-6.2c-1,0-1.9,0.2-2.8,0.7c0.4-1.1,0.5-2.2,0.5-3.4c0-6.2-5-11.2-11.2-11.2c-6.2,0-11.2,5-11.2,11.2
	c0,1.2,0.2,2.4,0.5,3.4c-0.8-0.4-1.8-0.7-2.8-0.7c-3.4,0-6.2,2.8-6.2,6.2c0,1.9,0.9,3.6,2.3,4.8c-1.5,0.4-2.6,1.8-2.6,3.5v6.6h-10
	h-10v-6.6c0-1.7-1.1-3-2.6-3.5c1.4-1.1,2.3-2.9,2.3-4.8c0-3.4-2.8-6.2-6.2-6.2c-1,0-1.9,0.2-2.8,0.7c0.4-1.1,0.5-2.2,0.5-3.4
	c0-6.2-5-11.2-11.2-11.2c-6.2,0-11.2,5-11.2,11.2c0,1.2,0.2,2.4,0.5,3.4c-0.8-0.4-1.8-0.7-2.8-0.7c-3.4,0-6.2,2.8-6.2,6.2
	c0,1.9,0.9,3.6,2.3,4.8c-1.5,0.4-2.6,1.8-2.6,3.5v6.6h-10h-10v-6.6c0-1.7-1.1-3-2.6-3.5c1.4-1.1,2.3-2.9,2.3-4.8
	c0-3.4-2.8-6.2-6.2-6.2c-1,0-1.9,0.2-2.8,0.7c0.4-1.1,0.5-2.2,0.5-3.4c0-6.2-5-11.2-11.2-11.2c-6.2,0-11.2,5-11.2,11.2
	c0,1.2,0.2,2.4,0.5,3.4c-0.8-0.4-1.8-0.7-2.8-0.7c-3.4,0-6.2,2.8-6.2,6.2c0,1.9,0.9,3.6,2.3,4.8c-1.5,0.4-2.6,1.8-2.6,3.5v6.6H-1V-1
	h1024V42.8z"/>
<g id="Layer_x0020_1_35_">
	<path class="st6" d="M33.3,719l43.9-1.7c0.3,0,0.6,0,1,0c0.7,0.1,1.3,0.4,1.8,0.9c0.5,0.5,0.9,1,0.9,1.7c0,0.2,0,0.5,0,0.8
		l-4.6,20.6c-0.2,0.9-0.6,1.7-1.3,2.2c-0.6,0.5-1.4,0.9-2.4,0.9l-35.3-1.2c-1,0-1.7-0.3-2.4-0.9l0,0c-0.6-0.6-1.1-1.4-1.3-2.2
		l-4.1-17.7c0-0.1,0-0.1,0-0.2c-0.1-0.8,0.3-1.5,0.9-2.1c0.6-0.5,1.4-0.8,2.3-1C33.1,719.1,33.2,719,33.3,719z M75.3,720.1l-42,1.5
		c-0.1,0-0.2,0-0.3,0c-0.6,0.1-1.1,0.3-1.5,0.7c-0.3,0.3-0.6,0.7-0.5,1.1c0,0,0,0.1,0,0.1l3.8,16.5c0.1,0.6,0.4,1.2,0.9,1.6
		c0.4,0.3,0.8,0.5,1.4,0.5l34,1.2c0.6,0,1-0.2,1.4-0.5c0.4-0.4,0.7-0.9,0.9-1.6l4.3-19.3c0-0.1,0-0.3,0-0.4c0-0.3-0.2-0.7-0.5-0.9
		c-0.3-0.3-0.7-0.5-1.1-0.5C75.7,720.1,75.5,720.1,75.3,720.1z"/>
	<path class="st6" d="M40.4,723.7l12.9-1.4c0.1,0,0.3,0,0.4,0c0.3,0.1,0.6,0.2,0.8,0.4c0.2,0.2,0.4,0.5,0.4,0.8c0,0.1,0,0.2,0,0.3
		l-2.1,9.6c-0.1,0.4-0.3,0.8-0.6,1c-0.3,0.3-0.6,0.4-1.1,0.4h-8.9c-0.4,0-0.8-0.2-1.1-0.4h0c-0.3-0.3-0.5-0.6-0.6-1l-1.9-8.2
		c0,0,0-0.1,0-0.1c-0.1-0.4,0.1-0.7,0.4-1c0.3-0.2,0.7-0.4,1-0.5C40.2,723.7,40.3,723.7,40.4,723.7z M52.4,723.6l-12,1.3
		c0,0-0.1,0-0.1,0c-0.3,0-0.5,0.2-0.7,0.3c-0.2,0.1-0.3,0.3-0.2,0.5c0,0,0,0,0,0l1.8,7.6c0.1,0.3,0.2,0.5,0.4,0.7
		c0.2,0.1,0.4,0.2,0.6,0.2h8.3c0.3,0,0.5-0.1,0.6-0.2c0.2-0.2,0.3-0.4,0.4-0.7l2-8.9c0-0.1,0-0.1,0-0.2c0-0.2-0.1-0.3-0.2-0.4
		c-0.1-0.1-0.3-0.2-0.5-0.2C52.5,723.6,52.4,723.6,52.4,723.6z"/>
	<g id="_1849662416_35_">
		<path class="st7" d="M58.8,735.9l0.4-0.7l-0.7-0.4l0.4-0.7l-1.5-0.8l-0.9,1.5l0,0c0.3,0.1,0.5,0.3,0.7,0.4l-0.4,0.7l0.7,0.4
			l-0.8,1.5l0.7,0.4c-0.2,0.5-0.6,1.1-0.9,1.5l0,0c0.2,0.1,0.4,0.2,0.5,0.3c0.3,0.1,0.2,0.1,0,0.5c-0.2,0.4-0.4,0.8-0.7,1.1l0.7,0.4
			c0,0.2-0.7,1.2-0.8,1.5l5.9,3.4l0.9-1.5l0.8,0.4l1.3-2.2L66,744l3-5.2c-0.1-0.1-0.7-0.4-0.7-0.5c0-0.2,0.4-0.6,0.4-0.7
			c-0.1-0.1-0.5-0.4-0.7-0.4l-1.3,2.2l-0.7-0.4l1.7-3l-1.5-0.9l-1.3,2.2l-0.7-0.4l1.7-2.9c-0.1-0.1-1.3-0.8-1.5-0.9l-1.7,3l-0.7-0.4
			c0-0.1,0.1-0.1,0.1-0.2c1.2-2.1,2.5-4.3,3.7-6.5l-1.5-0.8l-4.7,8.1C59.3,736.3,58.9,735.9,58.8,735.9L58.8,735.9z"/>
		<path class="st8" d="M56.7,739.6c-0.1,0.1-0.1,0.2-0.2,0.3l-0.7,1.1c0.1,0.1,0.2,0.1,0.4,0.2c0.1,0.1,0.2,0.1,0.3,0.2
			c-0.4,0.8-0.8,1.5-1.2,2.2c0.6,0.4,1.2,0.7,1.8,1.1l3.7,2.2c0.6,0.4,1.3,0.7,1.9,1.1c0.1-0.2,0.1-0.3,0.3-0.5
			c0.1-0.2,0.4-0.6,0.5-0.9c0.1-0.1,0.1-0.1,0.2-0.3c0.1-0.2,0.2-0.4,0.3-0.6c0.1,0.2,0.5,0.3,0.7,0.4c0.4-0.7,0.8-1.4,1.3-2.2
			c0.2,0.1,0.4,0.2,0.6,0.3c0.1,0.1,0.1,0.1,0.2,0c0.2-0.3,0.3-0.6,0.5-0.9c0.3-0.6,0.7-1.1,1-1.7l1.4-2.5c-0.2-0.1-0.6-0.3-0.7-0.4
			l-3,5.2l-0.7-0.4l-1.3,2.2l-0.8-0.4l-0.9,1.5l-5.9-3.4c0.1-0.3,0.8-1.3,0.8-1.5l-0.7-0.4c0.2-0.4,0.4-0.8,0.7-1.1
			c0.2-0.4,0.2-0.3,0-0.5C57.1,739.8,56.9,739.7,56.7,739.6z"/>
		<path class="st8" d="M58.9,734l-0.4,0.7l0.7,0.4l-0.4,0.7l0.7,0.4l4.7-8.1l-0.7-0.4c0,0,0,0,0,0l0,0c0,0,0,0,0,0l-3.8,6.6
			C59.4,734.2,59.2,734.1,58.9,734z"/>
		<path class="st8" d="M65.8,729.1l-3.9,6.6l0.7,0.4l1.7-3c0.2,0,1.4,0.8,1.5,0.9c0.2,0.2,1.6,0.9,1.9,1.1c0,0,0.1,0-0.1-0.1
			l-1.5-0.8c-0.4-0.2-0.3-0.1,0.1-0.9l-1.1-0.6c-0.1-0.1-0.2-0.1-0.3-0.2l1.7-2.9c-0.2-0.1-0.3-0.2-0.6-0.4
			C65.9,729.1,65.9,729.1,65.8,729.1z"/>
		<path class="st8" d="M67.6,736.1l0.4-0.7c-0.1-0.1-0.2-0.2-0.4-0.2c-0.3-0.2-1.7-0.9-1.9-1.1l-1.7,2.9l0.7,0.4l1.3-2.2L67.6,736.1
			z"/>
		<path class="st8" d="M56.6,734.7c-0.1,0.1-0.1,0.1-0.2,0.3c-0.1,0.1-0.1,0.3-0.2,0.4l0.7,0.4c-0.1,0.2-0.7,1.3-0.8,1.5l0.7,0.4
			l-0.6,1.1c-0.1,0.2-0.1,0.2-0.2,0.4l0.7,0.4c0.3-0.4,0.7-1,0.9-1.5l-0.7-0.4l0.8-1.5l-0.7-0.4l0.4-0.7
			C57.1,734.9,56.9,734.7,56.6,734.7z"/>
		<path class="st8" d="M56.6,734.6l0.9-1.5l1.5,0.8l0.2-0.4c0.1-0.1,0.1-0.2,0.2-0.4l-2-1.1c-0.3-0.2-0.2-0.2-0.5,0.2L56,734
			c-0.1,0.2-0.2,0.2,0,0.3C56.1,734.4,56.5,734.6,56.6,734.6z"/>
		<path class="st8" d="M68.7,737.7c0.1,0,0,0,0.1-0.1c0,0,0.1-0.1,0.1-0.1c0-0.2,0.2-0.4,0.3-0.6l-1.5-0.8l-1.7,3l0.7,0.4l1.3-2.2
			C68.1,737.3,68.5,737.5,68.7,737.7z"/>
		<path class="st8" d="M65.8,729c0.1-0.2,0.3-0.5,0.4-0.7l-1.5-0.8l-0.4,0.7L65.8,729z"/>
		<path class="st8" d="M68.7,737.7c0,0.2-0.4,0.6-0.4,0.7c0,0.1,0.6,0.4,0.7,0.5c0.2,0.1,0.5,0.3,0.7,0.4l-1.4,2.5l1.5-2.5l-0.7-0.4
			c0.1-0.1,0.1-0.2,0.2-0.4c0.1-0.1,0.2-0.3,0.2-0.4c-0.8-0.5-0.8-0.3-0.6-0.6c0,0-0.1,0.1-0.1,0.1
			C68.7,737.7,68.8,737.7,68.7,737.7z"/>
	</g>
	<path class="st6" d="M93.4,735.9h-2.5l2.1-7.2l-4.3,7.2h-2.6l-0.5-7.3l-1.8,7.3h-2.6l2.9-10.9h3.5l0.5,7.7l4.6-7.7h3.5L93.4,735.9z
		 M102.8,735.9h-5.6c-0.8,0-1.3-0.2-1.7-0.6c-0.4-0.4-0.4-1-0.2-1.8c0.3-0.9,0.7-1.6,1.3-2c0.6-0.4,1.5-0.6,2.6-0.6h2.5
		c0.1-0.4,0.1-0.7-0.1-0.8c-0.2-0.2-0.6-0.2-1.3-0.2h-3.6l0.5-2h4.3c1.1,0,1.9,0.3,2.3,0.8c0.4,0.5,0.5,1.3,0.2,2.3L102.8,735.9z
		 M100.9,733.9l0.3-1.2H99c-0.4,0-0.7,0-0.9,0.1c-0.2,0.1-0.3,0.3-0.3,0.5c-0.1,0.2-0.1,0.3,0,0.4c0,0,0.1,0.1,0.2,0.1
		c0.1,0,0.3,0,0.5,0H100.9z M111.6,735.9h-2.4l1.3-4.9c0.1-0.5,0.2-0.8,0-1c-0.1-0.1-0.4-0.2-0.9-0.2h-1.4l-1.6,6.1h-2.4l2.2-8.1h4
		c1.2,0,2,0.2,2.4,0.7c0.4,0.5,0.5,1.2,0.2,2.3L111.6,735.9z M120.4,735.9H118l1.3-4.9c0.1-0.5,0.1-0.8,0-0.9
		c-0.1-0.1-0.2-0.1-0.3-0.2c-0.1,0-0.3-0.1-0.6-0.1l-1.4,0l-1.6,6.1H113l2.9-10.9h2.4l-0.8,2.8h1.6c1.2,0,2,0.2,2.4,0.7
		c0.4,0.5,0.5,1.2,0.2,2.3L120.4,735.9z M129.6,735.9H124c-0.8,0-1.3-0.2-1.7-0.6c-0.4-0.4-0.4-1-0.2-1.8c0.3-0.9,0.7-1.6,1.3-2
		c0.6-0.4,1.5-0.6,2.6-0.6h2.5c0.1-0.4,0.1-0.7-0.1-0.8c-0.2-0.2-0.6-0.2-1.3-0.2h-3.6l0.5-2h4.3c1.1,0,1.9,0.3,2.3,0.8
		c0.4,0.5,0.5,1.3,0.2,2.3L129.6,735.9z M127.7,733.9l0.3-1.2h-2.2c-0.4,0-0.7,0-0.9,0.1c-0.2,0.1-0.3,0.3-0.3,0.5
		c-0.1,0.2,0,0.3,0,0.4c0,0,0.1,0.1,0.2,0.1c0.1,0,0.3,0,0.5,0H127.7z M133.5,735.9H131l2.9-10.9h2.5L133.5,735.9z M139.1,735.9H137
		l0.6-2.2h2.1L139.1,735.9z M146.9,735.9H144c-0.4,0-0.7,0-1-0.1c-0.3,0-0.5-0.1-0.8-0.2c-0.4-0.1-0.8-0.4-1-0.8
		c-0.1-0.2-0.2-0.4-0.3-0.6c-0.1-0.2-0.2-0.5-0.2-0.7c0-0.3,0-0.5,0-0.8c0-0.3,0.1-0.6,0.2-0.9c0.2-0.6,0.4-1.2,0.8-1.7
		c0.3-0.5,0.7-1,1.3-1.4c0.4-0.3,0.9-0.6,1.4-0.7c0.5-0.2,1.1-0.2,1.9-0.2h2.9l-0.5,2h-2.3c-0.5,0-0.9,0-1.2,0.1
		c-0.3,0.1-0.6,0.2-0.8,0.4c-0.4,0.3-0.7,0.8-0.9,1.6c-0.1,0.4-0.1,0.8-0.1,1.1c0.1,0.3,0.1,0.6,0.4,0.7l0.4,0.2c0.1,0,0.3,0,0.4,0
		c0.1,0,0.4,0,0.6,0h2.3L146.9,735.9z M157,731.8c-0.3,1.3-1,2.3-2,3.1c-1,0.8-2.1,1.1-3.4,1.1c-1.3,0-2.2-0.4-2.8-1.1
		c-0.6-0.8-0.7-1.8-0.3-3.1c0.3-1.3,1-2.3,2-3c1-0.8,2.1-1.1,3.4-1.1c1.3,0,2.2,0.4,2.8,1.1C157.2,729.5,157.3,730.5,157,731.8z
		 M154.5,731.8c0.2-0.7,0.1-1.2-0.1-1.6c-0.2-0.4-0.6-0.6-1.1-0.6c-0.5,0-1,0.2-1.4,0.6c-0.4,0.4-0.7,0.9-0.9,1.6
		c-0.1,0.4-0.1,0.7-0.1,0.9c0,0.3,0.1,0.5,0.2,0.7c0.2,0.4,0.6,0.6,1.1,0.6c0.6,0,1-0.2,1.4-0.6C154,733,154.3,732.5,154.5,731.8z
		 M168.1,735.9h-2.4l1.3-4.9c0.1-0.5,0.2-0.8,0.1-1c-0.1-0.2-0.4-0.2-0.9-0.2l-0.9,0l-1.6,6.1h-2.4l1.6-6.1h-2l-1.6,6.1h-2.4
		l2.2-8.1h8c1.2,0,2,0.2,2.4,0.7c0.4,0.5,0.5,1.2,0.2,2.3L168.1,735.9z"/>
	<path class="st6" d="M26.3,727.8l21.2-2.2c0.2,0,0.5,0,0.7,0c0.5,0.1,1,0.3,1.4,0.7c0.4,0.3,0.6,0.8,0.7,1.3c0,0.2,0,0.4,0,0.6
		l-3.7,9.6c-0.1,0.7-0.5,1.3-1,1.7c-0.5,0.4-1.1,0.7-1.8,0.7H29.3c-0.7,0-1.3-0.3-1.8-0.7h0c-0.5-0.4-0.8-1.1-1-1.7l-2.9-7.4
		c0-0.1,0-0.1,0-0.2c-0.1-0.6,0.2-1.2,0.7-1.6c0.5-0.4,1.1-0.6,1.7-0.8C26.1,727.8,26.2,727.8,26.3,727.8z M46.1,727.7l-19.8,2.1
		c-0.1,0-0.2,0-0.2,0c-0.4,0.1-0.9,0.3-1.2,0.5c-0.3,0.2-0.4,0.5-0.4,0.8c0,0,0,0.1,0,0.1l2.7,6.5c0.1,0.5,0.3,0.9,0.7,1.2
		c0.3,0.2,0.6,0.4,1,0.4h13.6c0.4,0,0.8-0.1,1-0.4c0.3-0.3,0.5-0.7,0.7-1.2l3.4-8.6c0-0.1,0-0.2,0-0.3c0-0.3-0.2-0.5-0.4-0.7
		c-0.2-0.2-0.5-0.4-0.8-0.4C46.3,727.7,46.2,727.7,46.1,727.7z"/>
	<path class="st6" d="M86,721.5l-0.5,1.7H85l1.2-4.5h1.3c0.3,0,0.5,0,0.7,0.1c0.2,0.1,0.3,0.2,0.4,0.3c0.1,0.1,0.2,0.3,0.2,0.4
		c0,0.2,0,0.4-0.1,0.6c-0.1,0.2-0.1,0.4-0.3,0.6c-0.1,0.2-0.3,0.3-0.4,0.4c-0.2,0.1-0.4,0.2-0.6,0.3c-0.2,0.1-0.5,0.1-0.7,0.1H86z
		 M86.1,721h0.7c0.2,0,0.3,0,0.5-0.1c0.1,0,0.3-0.1,0.4-0.2c0.1-0.1,0.2-0.2,0.3-0.3c0.1-0.1,0.1-0.2,0.2-0.4
		c0.1-0.3,0.1-0.5-0.1-0.7c-0.1-0.2-0.4-0.2-0.7-0.2h-0.7L86.1,721z"/>
	<path id="_x31__35_" class="st6" d="M90.7,720c0.2,0,0.4,0,0.6,0.1c0.2,0.1,0.3,0.2,0.4,0.3c0.1,0.1,0.1,0.3,0.2,0.5
		c0,0.2,0,0.4-0.1,0.7c-0.1,0.3-0.2,0.5-0.3,0.7c-0.1,0.2-0.3,0.4-0.4,0.5c-0.2,0.1-0.4,0.3-0.6,0.3c-0.2,0.1-0.4,0.1-0.7,0.1
		c-0.2,0-0.4,0-0.6-0.1c-0.2-0.1-0.3-0.2-0.4-0.3c-0.1-0.1-0.1-0.3-0.2-0.5c0-0.2,0-0.4,0.1-0.7c0.1-0.3,0.2-0.5,0.3-0.7
		c0.1-0.2,0.3-0.4,0.4-0.5c0.2-0.1,0.4-0.3,0.6-0.3C90.3,720,90.5,720,90.7,720z M89.9,722.8c0.3,0,0.6-0.1,0.8-0.3
		c0.2-0.2,0.4-0.5,0.5-0.9c0.1-0.4,0.1-0.7,0-0.9c-0.1-0.2-0.3-0.3-0.6-0.3c-0.2,0-0.3,0-0.4,0.1c-0.1,0.1-0.3,0.1-0.4,0.2
		c-0.1,0.1-0.2,0.2-0.3,0.4c-0.1,0.1-0.1,0.3-0.2,0.5c0,0.2-0.1,0.4-0.1,0.5c0,0.1,0,0.3,0.1,0.4c0.1,0.1,0.1,0.2,0.2,0.2
		C89.7,722.8,89.8,722.8,89.9,722.8z"/>
	<path id="_x32__35_" class="st6" d="M92.5,720h0.4c0,0,0.1,0,0.1,0c0,0,0,0,0,0.1l0.1,2c0,0.1,0,0.1,0,0.2c0,0.1,0,0.1,0,0.2
		c0-0.1,0.1-0.1,0.1-0.2c0-0.1,0.1-0.1,0.1-0.2l1.2-2.1c0,0,0-0.1,0.1-0.1c0,0,0.1,0,0.1,0H95c0,0,0.1,0,0.1,0c0,0,0,0,0,0.1
		l0.1,2.1c0,0.1,0,0.1,0,0.2c0,0.1,0,0.1,0,0.2c0-0.1,0.1-0.1,0.1-0.2c0-0.1,0.1-0.1,0.1-0.2l1.2-2c0,0,0-0.1,0.1-0.1
		c0,0,0.1,0,0.1,0h0.4l-1.9,3.2h-0.4c-0.1,0-0.1,0-0.1-0.1l-0.1-2.2c0,0,0-0.1,0-0.1c0-0.1,0-0.1,0-0.1c0,0,0,0.1-0.1,0.1
		c0,0,0,0.1-0.1,0.1l-1.3,2.2c0,0.1-0.1,0.1-0.2,0.1h-0.4L92.5,720z"/>
	<path id="_x33__35_" class="st6" d="M99,719.9c0.2,0,0.4,0,0.5,0.1c0.1,0.1,0.3,0.2,0.3,0.3c0.1,0.1,0.1,0.3,0.2,0.4
		c0,0.2,0,0.4-0.1,0.6c0,0.1,0,0.1-0.1,0.2c0,0-0.1,0-0.1,0h-2.1c-0.1,0.2-0.1,0.4-0.1,0.5c0,0.1,0,0.3,0.1,0.4
		c0.1,0.1,0.1,0.2,0.3,0.2c0.1,0,0.2,0.1,0.4,0.1c0.1,0,0.3,0,0.4,0c0.1,0,0.2-0.1,0.3-0.1c0.1,0,0.2-0.1,0.2-0.1
		c0.1,0,0.1-0.1,0.1-0.1c0,0,0.1,0,0.1,0.1l0.1,0.2c-0.1,0.1-0.2,0.2-0.3,0.2c-0.1,0.1-0.2,0.1-0.3,0.2c-0.1,0-0.2,0.1-0.4,0.1
		c-0.1,0-0.2,0-0.4,0c-0.2,0-0.4,0-0.6-0.1c-0.2-0.1-0.3-0.2-0.4-0.3c-0.1-0.1-0.2-0.3-0.2-0.5c0-0.2,0-0.5,0.1-0.7
		c0.1-0.2,0.1-0.4,0.3-0.6c0.1-0.2,0.3-0.4,0.4-0.5c0.2-0.1,0.4-0.3,0.6-0.3C98.5,720,98.7,719.9,99,719.9z M98.9,720.4
		c-0.3,0-0.5,0.1-0.7,0.2c-0.2,0.2-0.4,0.4-0.5,0.6h1.7c0-0.1,0.1-0.3,0-0.4c0-0.1,0-0.2-0.1-0.3c0-0.1-0.1-0.1-0.2-0.2
		C99.1,720.4,99,720.4,98.9,720.4z"/>
	<path id="_x34__35_" class="st6" d="M100.1,723.2l0.9-3.2h0.3c0.1,0,0.1,0,0.1,0c0,0,0,0.1,0,0.1l-0.1,0.5c0.2-0.2,0.4-0.4,0.5-0.5
		c0.2-0.1,0.4-0.2,0.6-0.2c0.1,0,0.2,0,0.2,0c0.1,0,0.1,0,0.2,0.1l-0.2,0.4c0,0.1-0.1,0.1-0.1,0.1c0,0-0.1,0-0.1,0
		c-0.1,0-0.1,0-0.2,0c-0.2,0-0.4,0.1-0.5,0.2c-0.2,0.1-0.3,0.3-0.5,0.5l-0.5,2H100.1z"/>
	<path id="_x35__35_" class="st6" d="M104.8,719.9c0.2,0,0.4,0,0.5,0.1c0.1,0.1,0.3,0.2,0.3,0.3c0.1,0.1,0.1,0.3,0.2,0.4
		c0,0.2,0,0.4-0.1,0.6c0,0.1,0,0.1-0.1,0.2c0,0-0.1,0-0.1,0h-2.1c-0.1,0.2-0.1,0.4-0.1,0.5c0,0.1,0,0.3,0.1,0.4
		c0.1,0.1,0.1,0.2,0.3,0.2c0.1,0,0.2,0.1,0.4,0.1c0.1,0,0.3,0,0.4,0c0.1,0,0.2-0.1,0.3-0.1c0.1,0,0.2-0.1,0.2-0.1
		c0.1,0,0.1-0.1,0.1-0.1c0,0,0.1,0,0.1,0.1l0.1,0.2c-0.1,0.1-0.2,0.2-0.3,0.2c-0.1,0.1-0.2,0.1-0.3,0.2c-0.1,0-0.2,0.1-0.4,0.1
		c-0.1,0-0.2,0-0.4,0c-0.2,0-0.4,0-0.6-0.1c-0.2-0.1-0.3-0.2-0.4-0.3c-0.1-0.1-0.2-0.3-0.2-0.5c0-0.2,0-0.5,0.1-0.7
		c0.1-0.2,0.2-0.4,0.3-0.6c0.1-0.2,0.3-0.4,0.4-0.5c0.2-0.1,0.4-0.3,0.6-0.3C104.3,720,104.6,719.9,104.8,719.9z M104.7,720.4
		c-0.3,0-0.5,0.1-0.7,0.2c-0.2,0.2-0.4,0.4-0.5,0.6h1.7c0-0.1,0-0.3,0-0.4c0-0.1,0-0.2-0.1-0.3c0-0.1-0.1-0.1-0.2-0.2
		C104.9,720.4,104.8,720.4,104.7,720.4z"/>
	<path id="_x36__35_" class="st6" d="M108.2,723.2c-0.1,0-0.1,0-0.1-0.1l0.1-0.4c-0.2,0.2-0.4,0.3-0.6,0.4c-0.2,0.1-0.4,0.1-0.6,0.1
		c-0.2,0-0.3,0-0.5-0.1c-0.1-0.1-0.2-0.2-0.3-0.3c-0.1-0.1-0.1-0.3-0.1-0.5c0-0.2,0-0.4,0.1-0.7c0.1-0.2,0.2-0.5,0.3-0.7
		c0.1-0.2,0.3-0.4,0.4-0.5c0.2-0.2,0.3-0.3,0.5-0.4c0.2-0.1,0.4-0.1,0.6-0.1c0.2,0,0.4,0,0.5,0.1c0.1,0.1,0.2,0.2,0.3,0.3l0.5-1.8
		h0.6l-1.2,4.6H108.2z M107.2,722.8c0.2,0,0.4,0,0.5-0.1c0.2-0.1,0.3-0.2,0.5-0.4l0.4-1.5c-0.1-0.1-0.2-0.2-0.3-0.3
		c-0.1-0.1-0.2-0.1-0.4-0.1c-0.3,0-0.6,0.1-0.8,0.3c-0.2,0.2-0.4,0.5-0.5,0.9c-0.1,0.2-0.1,0.4-0.1,0.5c0,0.1,0,0.3,0.1,0.4
		c0,0.1,0.1,0.2,0.2,0.2C107,722.8,107.1,722.8,107.2,722.8z"/>
	<path id="_x37__35_" class="st6" d="M110.7,723.2l1.2-4.6h0.6l-0.5,1.9c0.2-0.2,0.4-0.3,0.6-0.4c0.2-0.1,0.4-0.1,0.6-0.1
		c0.2,0,0.3,0,0.5,0.1c0.1,0.1,0.2,0.2,0.3,0.3c0.1,0.1,0.1,0.3,0.1,0.5c0,0.2,0,0.4-0.1,0.7c-0.1,0.2-0.2,0.5-0.3,0.7
		c-0.1,0.2-0.3,0.4-0.4,0.5c-0.2,0.1-0.3,0.3-0.5,0.3c-0.2,0.1-0.4,0.1-0.6,0.1c-0.2,0-0.4,0-0.5-0.1c-0.1-0.1-0.2-0.2-0.3-0.3
		l-0.1,0.3c0,0.1-0.1,0.1-0.2,0.1H110.7z M112.9,720.4c-0.2,0-0.4,0-0.5,0.1c-0.2,0.1-0.3,0.2-0.5,0.4l-0.4,1.5
		c0.1,0.1,0.1,0.2,0.3,0.3c0.1,0.1,0.2,0.1,0.4,0.1c0.3,0,0.6-0.1,0.8-0.3c0.2-0.2,0.4-0.5,0.5-0.9c0.1-0.2,0.1-0.4,0.1-0.5
		c0-0.1,0-0.3-0.1-0.4c0-0.1-0.1-0.2-0.2-0.2C113.1,720.4,113,720.4,112.9,720.4z"/>
	<path id="_x38__35_" class="st6" d="M114.8,724.1c0,0-0.1,0.1-0.1,0.1c0,0-0.1,0-0.1,0h-0.4l0.9-1.2l-0.5-3h0.5c0,0,0.1,0,0.1,0
		c0,0,0,0,0,0.1l0.3,2c0,0,0,0.1,0,0.1c0,0,0,0.1,0,0.1c0,0,0.1-0.1,0.1-0.1c0,0,0.1-0.1,0.1-0.1l1.4-2c0,0,0.1-0.1,0.1-0.1
		c0,0,0.1,0,0.1,0h0.4L114.8,724.1z"/>
	<path id="_x39__35_" class="st6" d="M117.4,722.8c0-0.1,0-0.1,0.1-0.2c0-0.1,0.1-0.1,0.1-0.1c0,0,0.1-0.1,0.1-0.1
		c0.1,0,0.1,0,0.2,0c0.1,0,0.1,0,0.1,0c0,0,0.1,0,0.1,0.1c0,0,0,0.1,0.1,0.1c0,0,0,0.1,0,0.2c0,0.1,0,0.1-0.1,0.2
		c0,0-0.1,0.1-0.1,0.1c0,0-0.1,0.1-0.1,0.1c-0.1,0-0.1,0-0.2,0c-0.1,0-0.1,0-0.1,0c0,0-0.1,0-0.1-0.1c0,0,0-0.1,0-0.1
		C117.3,722.9,117.3,722.9,117.4,722.8z M118,720.5c0-0.1,0-0.1,0.1-0.2c0,0,0.1-0.1,0.1-0.1c0,0,0.1-0.1,0.1-0.1c0.1,0,0.1,0,0.2,0
		c0.1,0,0.1,0,0.1,0c0,0,0.1,0,0.1,0.1c0,0,0,0.1,0.1,0.1c0,0,0,0.1,0,0.2c0,0.1,0,0.1-0.1,0.2c0,0-0.1,0.1-0.1,0.1
		c0,0-0.1,0.1-0.1,0.1c-0.1,0-0.1,0-0.2,0c-0.1,0-0.1,0-0.1,0c0,0-0.1,0-0.1-0.1c0,0,0-0.1,0-0.1C118,720.6,118,720.5,118,720.5z"/>
	<path class="st6" d="M124.4,738.3l-0.1,0.5H122l-0.4,1.6h1.8l-0.1,0.5h-1.8l-0.4,1.6h2.3l-0.1,0.5h-2.9l1.3-4.8H124.4z
		 M124.4,740.8h1.6l-0.1,0.5h-1.6L124.4,740.8z M127.2,742.5h2.1l-0.1,0.5h-2.7l1.3-4.8h0.6L127.2,742.5z M131.8,739.6
		c0.2,0,0.4,0,0.5,0.1c0.2,0.1,0.3,0.2,0.4,0.3c0.1,0.1,0.1,0.3,0.2,0.5c0,0.2,0,0.4-0.1,0.6c0,0.1-0.1,0.2-0.1,0.2c0,0-0.1,0-0.1,0
		h-2.2c-0.1,0.2-0.1,0.4-0.1,0.6c0,0.2,0,0.3,0.1,0.4c0.1,0.1,0.2,0.2,0.3,0.2c0.1,0.1,0.3,0.1,0.4,0.1c0.1,0,0.3,0,0.4-0.1
		c0.1,0,0.2-0.1,0.3-0.1c0.1,0,0.2-0.1,0.2-0.1c0.1,0,0.1-0.1,0.1-0.1c0,0,0.1,0,0.1,0.1l0.1,0.2c-0.1,0.1-0.2,0.2-0.3,0.2
		c-0.1,0.1-0.2,0.1-0.4,0.2c-0.1,0-0.3,0.1-0.4,0.1c-0.1,0-0.3,0-0.4,0c-0.2,0-0.4,0-0.6-0.1c-0.2-0.1-0.3-0.2-0.4-0.3
		c-0.1-0.2-0.2-0.3-0.2-0.6c0-0.2,0-0.5,0.1-0.8c0.1-0.2,0.2-0.5,0.3-0.7c0.1-0.2,0.3-0.4,0.5-0.5c0.2-0.1,0.4-0.3,0.6-0.4
		C131.4,739.6,131.6,739.6,131.8,739.6z M131.7,740c-0.3,0-0.5,0.1-0.7,0.2c-0.2,0.2-0.4,0.4-0.5,0.7h1.8c0-0.1,0.1-0.3,0-0.4
		c0-0.1,0-0.2-0.1-0.3c-0.1-0.1-0.1-0.1-0.2-0.2C132,740.1,131.9,740,131.7,740z M135.5,743h-0.3c-0.1,0-0.1,0-0.1,0
		c0,0,0-0.1,0-0.1l0-0.3c-0.1,0.1-0.2,0.2-0.3,0.2c-0.1,0.1-0.2,0.1-0.3,0.2c-0.1,0-0.2,0.1-0.3,0.1c-0.1,0-0.2,0-0.4,0
		c-0.1,0-0.2,0-0.4-0.1c-0.1,0-0.2-0.1-0.3-0.2c-0.1-0.1-0.1-0.2-0.1-0.3c0-0.1,0-0.2,0-0.4c0-0.1,0.1-0.3,0.2-0.4
		c0.1-0.1,0.3-0.2,0.4-0.3c0.2-0.1,0.4-0.2,0.7-0.2c0.3-0.1,0.6-0.1,1-0.1l0.1-0.3c0.1-0.3,0.1-0.5,0-0.6c-0.1-0.1-0.2-0.2-0.4-0.2
		c-0.1,0-0.3,0-0.4,0.1c-0.1,0-0.2,0.1-0.3,0.1c-0.1,0-0.2,0.1-0.2,0.1c-0.1,0-0.1,0.1-0.2,0.1c0,0-0.1,0-0.1,0c0,0,0,0-0.1-0.1
		l-0.1-0.2c0.2-0.2,0.5-0.3,0.7-0.4c0.2-0.1,0.5-0.1,0.8-0.1c0.2,0,0.3,0,0.5,0.1c0.1,0.1,0.2,0.1,0.3,0.3c0.1,0.1,0.1,0.2,0.1,0.4
		c0,0.2,0,0.3-0.1,0.5L135.5,743z M134.1,742.7c0.1,0,0.2,0,0.3,0c0.1,0,0.2-0.1,0.3-0.1c0.1,0,0.2-0.1,0.3-0.1
		c0.1-0.1,0.2-0.1,0.3-0.2l0.2-0.7c-0.3,0-0.5,0-0.7,0.1c-0.2,0-0.4,0.1-0.5,0.1c-0.1,0.1-0.2,0.1-0.3,0.2c-0.1,0.1-0.1,0.2-0.1,0.3
		c0,0.1,0,0.2,0,0.2c0,0.1,0,0.1,0.1,0.2c0,0,0.1,0.1,0.1,0.1C134,742.6,134,742.7,134.1,742.7z M136.4,743l0.9-3.4h0.3
		c0.1,0,0.1,0,0.1,0c0,0,0,0.1,0,0.1l-0.1,0.6c0.2-0.2,0.4-0.4,0.6-0.6c0.2-0.1,0.4-0.2,0.6-0.2c0.1,0,0.2,0,0.2,0
		c0.1,0,0.1,0.1,0.2,0.1l-0.2,0.4c0,0.1-0.1,0.1-0.1,0.1c0,0-0.1,0-0.1,0c-0.1,0-0.1,0-0.3,0c-0.2,0-0.4,0.1-0.6,0.2
		c-0.2,0.1-0.3,0.3-0.5,0.5L137,743H136.4z M139.1,743l0.9-3.4h0.4c0.1,0,0.1,0,0.1,0.1l-0.1,0.4c0.2-0.2,0.4-0.3,0.6-0.4
		c0.2-0.1,0.4-0.2,0.7-0.2c0.2,0,0.3,0,0.5,0.1c0.1,0.1,0.2,0.1,0.3,0.3c0.1,0.1,0.1,0.2,0.1,0.4c0,0.2,0,0.3-0.1,0.5l-0.6,2.1h-0.6
		l0.6-2.1c0.1-0.3,0.1-0.5,0-0.6c-0.1-0.1-0.2-0.2-0.5-0.2c-0.2,0-0.3,0-0.5,0.1c-0.2,0.1-0.3,0.2-0.5,0.3l-0.7,2.5H139.1z
		 M144.4,739.7l-0.9,3.4h-0.6l0.9-3.4H144.4z M144.8,738.6c0,0.1,0,0.1-0.1,0.2c0,0-0.1,0.1-0.1,0.1c0,0-0.1,0.1-0.2,0.1
		c-0.1,0-0.1,0-0.2,0c-0.1,0-0.1,0-0.2,0c0,0-0.1-0.1-0.1-0.1c0,0,0-0.1-0.1-0.1c0,0,0-0.1,0-0.2c0-0.1,0-0.1,0.1-0.2
		c0-0.1,0.1-0.1,0.1-0.1c0,0,0.1-0.1,0.2-0.1c0.1,0,0.1,0,0.2,0c0.1,0,0.1,0,0.2,0c0,0,0.1,0.1,0.1,0.1c0,0,0,0.1,0.1,0.1
		C144.8,738.5,144.8,738.5,144.8,738.6z M144.5,743l0.9-3.4h0.4c0.1,0,0.1,0,0.1,0.1l-0.1,0.4c0.2-0.2,0.4-0.3,0.6-0.4
		c0.2-0.1,0.4-0.2,0.7-0.2c0.2,0,0.3,0,0.5,0.1c0.1,0.1,0.2,0.1,0.3,0.3c0.1,0.1,0.1,0.2,0.1,0.4c0,0.2,0,0.3-0.1,0.5l-0.6,2.1h-0.6
		l0.6-2.1c0.1-0.3,0.1-0.5,0-0.6c-0.1-0.1-0.2-0.2-0.5-0.2c-0.2,0-0.3,0-0.5,0.1c-0.2,0.1-0.3,0.2-0.5,0.3l-0.7,2.5H144.5z
		 M150.2,739.6c0.1,0,0.3,0,0.4,0c0.1,0,0.2,0.1,0.3,0.1h0.9l-0.1,0.2c0,0.1-0.1,0.1-0.2,0.1l-0.4,0.1c0,0.1,0,0.3,0,0.5
		c0,0.2-0.1,0.3-0.2,0.4c-0.1,0.1-0.2,0.2-0.4,0.3c-0.1,0.1-0.3,0.2-0.5,0.2c-0.2,0-0.3,0.1-0.5,0.1c-0.2,0-0.3,0-0.4-0.1
		c-0.1,0-0.1,0.1-0.2,0.1c-0.1,0.1-0.1,0.1-0.1,0.2c0,0.1,0,0.1,0,0.2c0.1,0,0.1,0.1,0.2,0.1c0.1,0,0.2,0,0.4,0c0.1,0,0.3,0,0.4,0
		c0.1,0,0.3,0,0.4,0c0.1,0,0.2,0.1,0.3,0.1c0.1,0.1,0.2,0.1,0.2,0.2c0,0.1,0,0.2,0,0.4c0,0.1-0.1,0.3-0.2,0.4
		c-0.1,0.1-0.2,0.3-0.4,0.4c-0.2,0.1-0.3,0.2-0.6,0.3c-0.2,0.1-0.4,0.1-0.7,0.1c-0.2,0-0.5,0-0.6-0.1c-0.2,0-0.3-0.1-0.4-0.2
		c-0.1-0.1-0.2-0.2-0.2-0.3c0-0.1,0-0.2,0-0.3c0-0.2,0.1-0.3,0.3-0.4c0.1-0.1,0.3-0.2,0.5-0.3c-0.1,0-0.1-0.1-0.2-0.2
		c0-0.1,0-0.2,0-0.3c0,0,0-0.1,0.1-0.2c0-0.1,0.1-0.1,0.1-0.2c0-0.1,0.1-0.1,0.2-0.1c0.1,0,0.1-0.1,0.2-0.1
		c-0.1-0.1-0.2-0.2-0.3-0.4c-0.1-0.2-0.1-0.3,0-0.5c0-0.2,0.1-0.3,0.2-0.4c0.1-0.1,0.2-0.3,0.4-0.3c0.1-0.1,0.3-0.2,0.5-0.2
		C149.9,739.6,150.1,739.6,150.2,739.6z M150.3,743.2c0-0.1,0-0.2,0-0.2c0-0.1-0.1-0.1-0.2-0.1c-0.1,0-0.2,0-0.3-0.1
		c-0.1,0-0.2,0-0.3,0c-0.1,0-0.2,0-0.4,0c-0.1,0-0.2,0-0.3,0c-0.1,0.1-0.3,0.1-0.4,0.2c-0.1,0.1-0.2,0.2-0.2,0.3c0,0.1,0,0.1,0,0.2
		c0,0.1,0.1,0.1,0.1,0.2c0.1,0,0.2,0.1,0.3,0.1c0.1,0,0.3,0,0.4,0c0.2,0,0.3,0,0.4,0c0.1,0,0.3-0.1,0.4-0.1c0.1-0.1,0.2-0.1,0.3-0.2
		C150.3,743.4,150.3,743.3,150.3,743.2z M149.8,741.4c0.1,0,0.2,0,0.3,0c0.1,0,0.2-0.1,0.3-0.1c0.1-0.1,0.1-0.1,0.2-0.2
		c0.1-0.1,0.1-0.2,0.1-0.3c0.1-0.2,0-0.4-0.1-0.5c-0.1-0.1-0.3-0.2-0.5-0.2s-0.4,0.1-0.6,0.2c-0.2,0.1-0.3,0.3-0.3,0.5
		c0,0.1,0,0.2,0,0.3c0,0.1,0,0.2,0.1,0.2c0,0.1,0.1,0.1,0.2,0.1C149.6,741.4,149.7,741.4,149.8,741.4z M157.5,738.3l-0.1,0.5h-1.5
		l-1.1,4.2H154l1.1-4.2h-1.5l0.1-0.5H157.5z M158.3,739.6c0.2,0,0.4,0,0.5,0.1c0.2,0.1,0.3,0.2,0.4,0.3c0.1,0.1,0.1,0.3,0.2,0.5
		c0,0.2,0,0.4-0.1,0.6c0,0.1,0,0.2-0.1,0.2c0,0-0.1,0-0.1,0h-2.2c-0.1,0.2-0.1,0.4-0.1,0.6c0,0.2,0,0.3,0.1,0.4
		c0.1,0.1,0.2,0.2,0.3,0.2c0.1,0.1,0.2,0.1,0.4,0.1c0.1,0,0.3,0,0.4-0.1c0.1,0,0.2-0.1,0.3-0.1c0.1,0,0.2-0.1,0.2-0.1
		c0.1,0,0.1-0.1,0.1-0.1c0,0,0.1,0,0.1,0.1l0.1,0.2c-0.1,0.1-0.2,0.2-0.3,0.2c-0.1,0.1-0.2,0.1-0.4,0.2c-0.1,0-0.3,0.1-0.4,0.1
		c-0.1,0-0.3,0-0.4,0c-0.2,0-0.4,0-0.6-0.1c-0.2-0.1-0.3-0.2-0.4-0.3c-0.1-0.2-0.2-0.3-0.2-0.6c0-0.2,0-0.5,0.1-0.8
		c0.1-0.2,0.2-0.5,0.3-0.7c0.1-0.2,0.3-0.4,0.5-0.5c0.2-0.1,0.4-0.3,0.6-0.4C157.9,739.6,158.1,739.6,158.3,739.6z M158.2,740
		c-0.3,0-0.5,0.1-0.7,0.2c-0.2,0.2-0.4,0.4-0.5,0.7h1.8c0-0.1,0-0.3,0-0.4c0-0.1,0-0.2-0.1-0.3c-0.1-0.1-0.1-0.1-0.2-0.2
		C158.5,740.1,158.4,740,158.2,740z M162,743h-0.3c-0.1,0-0.1,0-0.1,0c0,0,0-0.1,0-0.1l0-0.3c-0.1,0.1-0.2,0.2-0.3,0.2
		c-0.1,0.1-0.2,0.1-0.3,0.2c-0.1,0-0.2,0.1-0.3,0.1c-0.1,0-0.2,0-0.4,0c-0.1,0-0.2,0-0.4-0.1c-0.1,0-0.2-0.1-0.3-0.2
		c-0.1-0.1-0.1-0.2-0.1-0.3c0-0.1,0-0.2,0-0.4c0-0.1,0.1-0.3,0.2-0.4c0.1-0.1,0.3-0.2,0.4-0.3c0.2-0.1,0.4-0.2,0.7-0.2
		c0.3-0.1,0.6-0.1,1-0.1l0.1-0.3c0.1-0.3,0.1-0.5,0-0.6c-0.1-0.1-0.2-0.2-0.4-0.2c-0.1,0-0.3,0-0.4,0.1c-0.1,0-0.2,0.1-0.3,0.1
		c-0.1,0-0.2,0.1-0.2,0.1c-0.1,0-0.1,0.1-0.2,0.1c0,0-0.1,0-0.1,0c0,0,0,0-0.1-0.1l-0.1-0.2c0.2-0.2,0.5-0.3,0.7-0.4
		c0.2-0.1,0.5-0.1,0.7-0.1c0.2,0,0.3,0,0.5,0.1c0.1,0.1,0.2,0.1,0.3,0.3c0.1,0.1,0.1,0.2,0.1,0.4c0,0.2,0,0.3-0.1,0.5L162,743z
		 M160.6,742.7c0.1,0,0.2,0,0.3,0c0.1,0,0.2-0.1,0.3-0.1c0.1,0,0.2-0.1,0.3-0.1c0.1-0.1,0.2-0.1,0.3-0.2l0.2-0.7
		c-0.3,0-0.5,0-0.7,0.1c-0.2,0-0.4,0.1-0.5,0.1c-0.1,0.1-0.2,0.1-0.3,0.2c-0.1,0.1-0.1,0.2-0.2,0.3c0,0.1,0,0.2,0,0.2
		c0,0.1,0,0.1,0.1,0.2c0,0,0.1,0.1,0.1,0.1C160.5,742.6,160.5,742.7,160.6,742.7z M162.9,743l0.9-3.4h0.3c0.1,0,0.1,0,0.1,0.1l0,0.3
		c0.2-0.2,0.3-0.3,0.5-0.4c0.2-0.1,0.4-0.1,0.6-0.1c0.2,0,0.4,0.1,0.5,0.2c0.1,0.1,0.2,0.3,0.2,0.5c0.1-0.1,0.2-0.2,0.3-0.3
		c0.1-0.1,0.2-0.2,0.3-0.2c0.1-0.1,0.2-0.1,0.3-0.1c0.1,0,0.2,0,0.3,0c0.2,0,0.3,0,0.5,0.1c0.1,0.1,0.2,0.1,0.3,0.2
		c0.1,0.1,0.1,0.2,0.1,0.4c0,0.2,0,0.3-0.1,0.5l-0.6,2.1h-0.6l0.6-2.1c0.1-0.3,0.1-0.5,0-0.6c-0.1-0.1-0.2-0.2-0.4-0.2
		c-0.1,0-0.2,0-0.3,0.1c-0.1,0-0.2,0.1-0.3,0.2c-0.1,0.1-0.2,0.2-0.2,0.3c-0.1,0.1-0.1,0.2-0.2,0.4l-0.6,2.1h-0.6l0.6-2.1
		c0.1-0.3,0.1-0.5,0-0.6c-0.1-0.1-0.2-0.2-0.4-0.2c-0.1,0-0.3,0-0.4,0.1c-0.1,0.1-0.3,0.2-0.4,0.3l-0.7,2.5H162.9z"/>
</g>
<g>
	<g>
		<g>
			<linearGradient id="SVGID_4_" gradientUnits="userSpaceOnUse" x1="230.0962" y1="200.4947" x2="230.0962" y2="285.4503">
				<stop  offset="0" style="stop-color:#9DB3CE"/>
				<stop  offset="1" style="stop-color:#91A8C6"/>
			</linearGradient>
			<path class="st9" d="M230.1,287.7c-25,0-45.4-20.4-45.4-45.4s20.4-45.4,45.4-45.4c25,0,45.4,20.4,45.4,45.4
				S255.1,287.7,230.1,287.7L230.1,287.7z"/>
			<linearGradient id="SVGID_5_" gradientUnits="userSpaceOnUse" x1="230.0962" y1="201.9952" x2="230.0962" y2="283.9049">
				<stop  offset="0" style="stop-color:#DCE8F1"/>
				<stop  offset="1" style="stop-color:#B0C1D6"/>
			</linearGradient>
			<circle class="st10" cx="230.1" cy="242.3" r="43.8"/>
			<linearGradient id="SVGID_6_" gradientUnits="userSpaceOnUse" x1="217.0994" y1="203.2977" x2="224.9643" y2="227.0278">
				<stop  offset="0" style="stop-color:#FBFEFF"/>
				<stop  offset="1" style="stop-color:#D6E4EE"/>
			</linearGradient>
			<path class="st11" d="M215.7,203.1c-16.1,5.3-21,16.6-23.5,24.2c-2.5,7.6,16.7,6.5,36.7-1.9c20-8.4,29.1-16.7,19.9-20.9
				C239.6,200.4,228.1,199,215.7,203.1z"/>
			
				<linearGradient id="SVGID_7_" gradientUnits="userSpaceOnUse" x1="-4420.1572" y1="4324.6641" x2="-4412.2925" y2="4348.3945" gradientTransform="matrix(-1 0 0 -1 -4176.667 4606.8242)">
				<stop  offset="0" style="stop-color:#8CA3BD"/>
				<stop  offset="1" style="stop-color:#BECEE0"/>
			</linearGradient>
			<path class="st12" d="M244.9,282.3c16.1-5.3,21-16.6,23.5-24.2c2.5-7.6-16.7-6.5-36.7,1.9c-20,8.4-29.1,16.7-19.9,20.9
				C221,285.1,232.5,286.4,244.9,282.3z"/>
			<g>
				<linearGradient id="SVGID_8_" gradientUnits="userSpaceOnUse" x1="211.35" y1="211.4862" x2="211.35" y2="278.2114">
					<stop  offset="0" style="stop-color:#D8E0EB"/>
					<stop  offset="1" style="stop-color:#A0B2C4"/>
				</linearGradient>
				<path class="st13" d="M210.5,229.4c-1.7-0.6-3.3-0.3-5.3,0.7c-2.2,1.2-3.7,1.1-6,1.6c-1.8,0.4-2.7,1.6-3.1,3.3
					c-0.2,0.9-0.5,2.2-0.6,3.1c-0.4,2.9,1.6,7,2.6,9.6c1.3,3.2,3.2,6.8,6.2,8.6c8.2,5,18.6,4.9,22.3-5.3c2.3-6.4-0.8-11.8-6.3-15.1
					c-2.8-1.7-5.1-3.3-7.7-5.3C211.9,230.1,211.2,229.6,210.5,229.4z"/>
				<linearGradient id="SVGID_9_" gradientUnits="userSpaceOnUse" x1="237.01" y1="211.4945" x2="237.01" y2="278.2191">
					<stop  offset="0" style="stop-color:#D8E0EB"/>
					<stop  offset="1" style="stop-color:#A0B2C4"/>
				</linearGradient>
				<path class="st14" d="M255.1,226.9c1.5-0.5,2.5-1.5,1.9-3.5c-0.8-3.1-4.2-4.5-7-5.4c-1.5-0.5-3.1-0.6-4.7-1
					c-1.8-0.5-2.4-1.4-3.9-2.6c-6.1-4.7-15.7-3.5-20.9,1.9c-2.4,2.4-4.5,6.8-3.3,10.3c0.7,1.9,2.2,2.2,4,3c2.5,1.1,5.3,2.5,7.2,4.5
					c2.4,2.4,3.1,4.3,7,4c6-0.4,9.1-6.7,13.7-9.5C250.5,227.7,253.2,227.6,255.1,226.9z"/>
				<linearGradient id="SVGID_10_" gradientUnits="userSpaceOnUse" x1="237.4077" y1="211.4863" x2="237.4077" y2="278.2115">
					<stop  offset="0" style="stop-color:#D8E0EB"/>
					<stop  offset="1" style="stop-color:#A0B2C4"/>
				</linearGradient>
				<path class="st15" d="M242.5,245.3c-2.3-1.1-5.5-5-7.8-5.5c-2-0.5-3.7,1.4-4.7,3.3c-2.3,4-1,8.9,3.3,10.8
					c3.8,1.7,11.8,1.8,12.5-3.8C246.2,247,245.1,246.6,242.5,245.3z"/>
				<linearGradient id="SVGID_11_" gradientUnits="userSpaceOnUse" x1="263.3547" y1="211.4886" x2="263.3547" y2="278.2104">
					<stop  offset="0" style="stop-color:#D8E0EB"/>
					<stop  offset="1" style="stop-color:#A0B2C4"/>
				</linearGradient>
				<path class="st16" d="M263.4,263.6c2.5-1.3,7.2-11.4,2.7-12.5c-3.1-0.7-5.8,5-6.7,7C258.1,261,258.6,266.1,263.4,263.6z"/>
				<linearGradient id="SVGID_12_" gradientUnits="userSpaceOnUse" x1="212.9291" y1="211.4869" x2="212.9291" y2="278.2115">
					<stop  offset="0" style="stop-color:#D8E0EB"/>
					<stop  offset="1" style="stop-color:#A0B2C4"/>
				</linearGradient>
				<path class="st17" d="M219.3,265.2c-1-2-13.1-5.7-13.1-2c0,3.6,6.4,5.4,9.2,5.5C217.3,268.8,220.7,268.1,219.3,265.2z"/>
				<linearGradient id="SVGID_13_" gradientUnits="userSpaceOnUse" x1="261.659" y1="209.3353" x2="260.8454" y2="276.864">
					<stop  offset="0" style="stop-color:#C7D3E4"/>
					<stop  offset="1" style="stop-color:#A0B2C4"/>
				</linearGradient>
				<path class="st18" d="M259.3,225.1c1.3,3.4,5.5,4.2,5.7-0.3c0.1-2.7-2.1-7.9-5.4-6.4C256.8,219.5,258.5,223.1,259.3,225.1z"/>
				<linearGradient id="SVGID_14_" gradientUnits="userSpaceOnUse" x1="270.7497" y1="209.4465" x2="269.9361" y2="276.9718">
					<stop  offset="0" style="stop-color:#C7D3E4"/>
					<stop  offset="1" style="stop-color:#A0B2C4"/>
				</linearGradient>
				<path class="st19" d="M270.1,245.4c2,1.4,2.3-3.1,2.1-4.2c-0.2-1.5,0-5.5-2.2-5.7C267.3,235.2,268.8,244.5,270.1,245.4z"/>
				<linearGradient id="SVGID_15_" gradientUnits="userSpaceOnUse" x1="191.0822" y1="211.4863" x2="191.0822" y2="278.2112">
					<stop  offset="0" style="stop-color:#D8E0EB"/>
					<stop  offset="1" style="stop-color:#A0B2C4"/>
				</linearGradient>
				<path class="st20" d="M192.6,242.1c0.7-1.3,1.1-7.5-1.4-7.3C186.6,235.1,190.4,246.3,192.6,242.1z"/>
				<linearGradient id="SVGID_16_" gradientUnits="userSpaceOnUse" x1="230.3666" y1="211.4844" x2="230.3666" y2="278.2116">
					<stop  offset="0" style="stop-color:#D8E0EB"/>
					<stop  offset="1" style="stop-color:#A0B2C4"/>
				</linearGradient>
				<path class="st21" d="M235.2,260.5c0.6,1,0,2.2,0.4,3.2c0.9,2.4,3.7,3.9,4.7,6.3c1.4,3-4.1,6.2-6.4,6.8c-2.5,0.6-8.5,0.9-8.6-3
					c-0.1-3,2.2-5.3-0.3-8c-1.4-1.5-7.5-3.2-3.9-5.9c2-1.4,5.1-1.6,7.5-1.4C230.9,258.6,234,258.3,235.2,260.5z"/>
				<linearGradient id="SVGID_17_" gradientUnits="userSpaceOnUse" x1="200.4996" y1="211.4857" x2="200.4996" y2="278.2116">
					<stop  offset="0" style="stop-color:#D8E0EB"/>
					<stop  offset="1" style="stop-color:#A0B2C4"/>
				</linearGradient>
				<path class="st22" d="M203.2,264.8c0.2-1.8-1.9-5.4-3.7-5.8c-3.7-0.9-0.8,5.6,0.6,6.5C201.4,266.3,203,266.4,203.2,264.8z"/>
			</g>
			<linearGradient id="SVGID_18_" gradientUnits="userSpaceOnUse" x1="215.145" y1="249.4602" x2="214.9416" y2="240.3067">
				<stop  offset="0" style="stop-color:#DCE8F1"/>
				<stop  offset="1" style="stop-color:#BECCDE"/>
			</linearGradient>
			<ellipse class="st23" cx="215" cy="245" rx="4.6" ry="4.9"/>
			<linearGradient id="SVGID_19_" gradientUnits="userSpaceOnUse" x1="244.3004" y1="230.4434" x2="244.1504" y2="223.6972">
				<stop  offset="0" style="stop-color:#DCE8F1"/>
				<stop  offset="1" style="stop-color:#BECCDE"/>
			</linearGradient>
			<ellipse class="st24" cx="244.2" cy="227.1" rx="3.4" ry="3.6"/>
			<linearGradient id="SVGID_20_" gradientUnits="userSpaceOnUse" x1="204.478" y1="242.2413" x2="204.3281" y2="235.4956">
				<stop  offset="0" style="stop-color:#DCE8F1"/>
				<stop  offset="1" style="stop-color:#BECCDE"/>
			</linearGradient>
			<ellipse class="st25" cx="204.4" cy="238.9" rx="3.4" ry="3.6"/>
			<linearGradient id="SVGID_21_" gradientUnits="userSpaceOnUse" x1="230.2755" y1="207.4342" x2="226.2076" y2="204.1799">
				<stop  offset="0" style="stop-color:#EEF4F9"/>
				<stop  offset="1" style="stop-color:#D8E1EB"/>
			</linearGradient>
			<ellipse class="st26" cx="228.4" cy="205.9" rx="4.6" ry="2.1"/>
			<linearGradient id="SVGID_22_" gradientUnits="userSpaceOnUse" x1="244.2565" y1="210.5129" x2="241.8157" y2="206.2415">
				<stop  offset="0" style="stop-color:#EEF4F9"/>
				<stop  offset="1" style="stop-color:#D8E1EB"/>
			</linearGradient>
			<path class="st27" d="M247.6,209c-0.2,1.1-2.3,1.8-4.8,1.4c-2.5-0.3-4.4-1.6-4.3-2.7c0.2-1.1,2.3-1.8,4.8-1.4
				C245.9,206.7,247.8,207.9,247.6,209z"/>
			
				<linearGradient id="SVGID_23_" gradientUnits="userSpaceOnUse" x1="901.3087" y1="1618.9802" x2="898.0616" y2="1613.298" gradientTransform="matrix(0.8733 -0.4871 0.4871 0.8733 -1361.3969 -761.039)">
				<stop  offset="0" style="stop-color:#EEF4F9"/>
				<stop  offset="1" style="stop-color:#D8E1EB"/>
			</linearGradient>
			<path class="st28" d="M217.3,209.9c0.6,1.4-1.5,3.6-4.7,4.8c-3.2,1.2-6.2,1.1-6.7-0.4c-0.6-1.4,1.5-3.6,4.7-4.8
				C213.7,208.3,216.7,208.5,217.3,209.9z"/>
			<linearGradient id="SVGID_24_" gradientUnits="userSpaceOnUse" x1="215.7311" y1="257.3829" x2="215.6162" y2="252.2128">
				<stop  offset="0" style="stop-color:#DCE8F1"/>
				<stop  offset="1" style="stop-color:#BECCDE"/>
			</linearGradient>
			<circle class="st29" cx="215.7" cy="254.8" r="2.7"/>
			<linearGradient id="SVGID_25_" gradientUnits="userSpaceOnUse" x1="236.0388" y1="273.5525" x2="235.8651" y2="265.7397">
				<stop  offset="0" style="stop-color:#DCE8F1"/>
				<stop  offset="1" style="stop-color:#B0C0D6"/>
			</linearGradient>
			<ellipse class="st30" cx="236" cy="269.7" rx="5.9" ry="4.1"/>
			
				<linearGradient id="SVGID_26_" gradientUnits="userSpaceOnUse" x1="120.9945" y1="1531.7865" x2="120.8892" y2="1527.046" gradientTransform="matrix(1.1585 -0.7758 0.2782 0.4155 -308.9311 -269.0187)">
				<stop  offset="0" style="stop-color:#DCE8F1"/>
				<stop  offset="1" style="stop-color:#BECCDE"/>
			</linearGradient>
			<path class="st31" d="M260.8,269.9c0.4,0.6-1.1,2.3-3.4,3.8c-2.3,1.5-4.4,2.3-4.8,1.7c-0.4-0.6,1.1-2.3,3.4-3.8
				C258.2,270.1,260.4,269.3,260.8,269.9z"/>
			
				<linearGradient id="SVGID_27_" gradientUnits="userSpaceOnUse" x1="-1059.5885" y1="-3202.4353" x2="-1059.6938" y2="-3207.1765" gradientTransform="matrix(1.3035 0.4947 -0.1774 0.4675 1025.1677 2302.0078)">
				<stop  offset="0" style="stop-color:#DCE8F1"/>
				<stop  offset="1" style="stop-color:#BECCDE"/>
			</linearGradient>
			<path class="st32" d="M217.1,281.3c-0.2,0.6-2.5,0.4-5.1-0.6c-2.6-1-4.4-2.3-4.2-2.9c0.2-0.6,2.5-0.4,5.1,0.6
				C215.5,279.4,217.3,280.7,217.1,281.3z"/>
			<linearGradient id="SVGID_28_" gradientUnits="userSpaceOnUse" x1="253.8794" y1="211.4871" x2="253.8794" y2="278.2113">
				<stop  offset="0" style="stop-color:#D8E0EB"/>
				<stop  offset="1" style="stop-color:#A0B2C4"/>
			</linearGradient>
			<path class="st33" d="M262,240.9c-1.7-3.4-4.6-4.1-8.2-4.1c-2.5,0-5.5-0.8-7.5,1.1c-2.5,2.3,1.3,3.2,3.2,4.1
				c5.8,2.7,1.3,6.8,2.5,11.2c0.5,1.6,3.2,2.5,4.8,1.5c2-1.2,2.7-5.5,3.7-7.5C261.4,245.5,263,242.9,262,240.9z"/>
			<linearGradient id="SVGID_29_" gradientUnits="userSpaceOnUse" x1="206.3496" y1="211.487" x2="206.3496" y2="278.2107">
				<stop  offset="0" style="stop-color:#D8E0EB"/>
				<stop  offset="1" style="stop-color:#A0B2C4"/>
			</linearGradient>
			<path class="st34" d="M208.8,227.8c1.6,0.3,5.8,1.7,5.5-1.3c-0.1-1.1-1.6-1.9-2.1-2.9c-0.5-1-0.6-2.2-0.5-3.3
				c0.1-1.9,1.7-5.8-1.4-6.1c-2.9-0.3-3.6,3.4-4.9,5.3c-1.5,2.2-3.8,1.8-5.6,3.5c-2.3,2.2-1.7,5.1,1.6,4.3c1.1-0.3,2.1-0.9,3.2-0.8
				C206.1,226.6,207.3,227.6,208.8,227.8z"/>
		</g>
	</g>
	<g>
		<g>
			<g>
				<path class="st35" d="M156.9,239.6c0,0-0.5,3.2-1.2,3.9c-0.8,0.8-4,1.3-4,1.3s3.2,0.5,3.9,1.3c0.7,0.8,1.2,3.9,1.2,3.9
					s0.5-3.1,1.2-3.9c0.8-0.8,3.9-1.3,3.9-1.3s-3.2-0.5-3.9-1.3C157.4,242.7,156.9,239.6,156.9,239.6z"/>
			</g>
		</g>
		<g>
			<g>
				<path class="st35" d="M259.5,288.4c0,0-0.7,4.6-1.7,5.7c-1.1,1.2-5.9,1.9-5.9,1.9s4.7,0.8,5.8,1.9c1.1,1.1,1.8,5.7,1.8,5.7
					s0.7-4.5,1.8-5.6c1.1-1.1,5.8-1.9,5.8-1.9s-4.7-0.8-5.8-1.9C260.3,292.9,259.5,288.4,259.5,288.4z"/>
			</g>
		</g>
		<g>
			<g>
				<path class="st35" d="M196.1,345.9c0,0-0.4,2.9-1.1,3.6c-0.7,0.8-3.7,1.2-3.7,1.2s2.9,0.5,3.6,1.2c0.7,0.7,1.1,3.6,1.1,3.6
					s0.4-2.9,1.1-3.5c0.7-0.7,3.6-1.2,3.6-1.2s-2.9-0.5-3.6-1.2C196.6,348.8,196.1,345.9,196.1,345.9z"/>
			</g>
		</g>
		<g>
			<g>
				<path class="st35" d="M297.7,243.9c0,0-0.3,2.1-0.8,2.6c-0.5,0.5-2.6,0.8-2.6,0.8s2.1,0.3,2.6,0.8c0.5,0.5,0.8,2.6,0.8,2.6
					s0.3-2,0.8-2.5c0.5-0.5,2.6-0.9,2.6-0.9s-2.1-0.3-2.6-0.9C298.1,245.9,297.7,243.9,297.7,243.9z"/>
			</g>
		</g>
		<polygon class="st35" points="288.6,280.8 286.9,280.4 285.6,281.5 285.4,279.8 283.9,278.9 285.6,278.2 285.9,276.5 287.1,277.9 
			288.8,277.7 287.9,279.2 		"/>
		<polygon class="st35" points="146.6,293 144.9,292.5 143.6,293.7 143.4,292 141.9,291.1 143.6,290.4 144,288.7 145.1,290 
			146.8,289.9 145.9,291.4 		"/>
		<polygon class="st35" points="144.8,229.6 143.1,229.2 141.8,230.4 141.7,228.6 140.2,227.7 141.8,227.1 142.2,225.4 143.3,226.7 
			145.1,226.6 144.1,228 		"/>
		<polygon class="st35" points="307,226.6 305.3,226.2 303.9,227.3 303.8,225.6 302.3,224.7 304,224 304.3,222.3 305.5,223.7 
			307.2,223.5 306.3,225 		"/>
		<polygon class="st35" points="156.7,264.9 156,264.7 155.4,265.2 155.3,264.5 154.7,264.1 155.4,263.8 155.6,263.1 156,263.7 
			156.8,263.6 156.4,264.2 		"/>
		<polygon class="st35" points="210.3,307.8 208.6,307.3 207.3,308.5 207.2,306.7 205.7,305.8 207.3,305.2 207.7,303.5 208.8,304.8 
			210.6,304.7 209.6,306.1 		"/>
		<polygon class="st35" points="268.8,275.1 268.1,274.9 267.6,275.4 267.5,274.6 266.9,274.3 267.6,274 267.7,273.3 268.2,273.8 
			268.9,273.8 268.5,274.4 		"/>
		<polygon class="st35" points="296,261 295.3,260.9 294.7,261.3 294.7,260.6 294,260.2 294.7,260 294.9,259.2 295.4,259.8 
			296.1,259.7 295.7,260.4 		"/>
		<polygon class="st35" points="210.6,352.6 209.9,352.4 209.4,352.9 209.3,352.2 208.7,351.8 209.4,351.5 209.5,350.8 210,351.4 
			210.7,351.3 210.3,351.9 		"/>
		<polygon class="st35" points="249.9,347.5 249.1,347.3 248.6,347.8 248.5,347 247.9,346.6 248.6,346.4 248.8,345.7 249.2,346.2 
			250,346.2 249.6,346.8 		"/>
		<polygon class="st35" points="317.2,306.2 316.5,306 315.9,306.5 315.9,305.8 315.2,305.4 315.9,305.1 316.1,304.4 316.5,305 
			317.3,304.9 316.9,305.5 		"/>
		<polygon class="st35" points="202.9,318 202.2,317.8 201.6,318.3 201.6,317.5 200.9,317.2 201.6,316.9 201.8,316.2 202.2,316.7 
			203,316.7 202.6,317.3 		"/>
		<polygon class="st35" points="171.9,342 170.2,341.6 168.9,342.7 168.7,341 167.2,340.1 168.9,339.4 169.3,337.7 170.4,339 
			172.1,338.9 171.2,340.4 		"/>
		<polygon class="st35" points="292.5,314.4 291.8,314.3 291.2,314.7 291.2,314 290.5,313.6 291.2,313.4 291.4,312.6 291.9,313.2 
			292.6,313.1 292.2,313.8 		"/>
		<polygon class="st35" points="294.8,333 294.1,332.8 293.5,333.3 293.5,332.5 292.8,332.1 293.5,331.9 293.7,331.2 294.2,331.7 
			294.9,331.7 294.5,332.3 		"/>
		<polygon class="st35" points="233.2,261.5 232.5,261.3 232,261.8 231.9,261.1 231.3,260.7 232,260.4 232.1,259.7 232.6,260.3 
			233.3,260.2 232.9,260.8 		"/>
		<polygon class="st35" points="204.7,274.6 203,274.1 201.7,275.3 201.6,273.5 200.1,272.6 201.7,272 202.1,270.3 203.2,271.6 
			205,271.4 204,272.9 		"/>
		<polygon class="st35" points="234.7,273.5 234,273.4 233.4,273.9 233.4,273.1 232.7,272.7 233.4,272.5 233.6,271.7 234,272.3 
			234.8,272.2 234.4,272.9 		"/>
		<polygon class="st35" points="255.6,189 254.9,188.8 254.4,189.3 254.3,188.6 253.7,188.2 254.4,187.9 254.5,187.2 255,187.8 
			255.7,187.7 255.3,188.3 		"/>
		<g>
			<radialGradient id="SVGID_30_" cx="228.6172" cy="223.5756" r="163.9468" gradientUnits="userSpaceOnUse">
				<stop  offset="0" style="stop-color:#9EB4CB"/>
				<stop  offset="6.018852e-002" style="stop-color:#9BB0C9"/>
				<stop  offset="0.1276" style="stop-color:#91A5C4"/>
				<stop  offset="0.1986" style="stop-color:#8393BC"/>
				<stop  offset="0.272" style="stop-color:#717DB1"/>
				<stop  offset="0.3473" style="stop-color:#5964A5"/>
				<stop  offset="0.4231" style="stop-color:#3E4797"/>
				<stop  offset="0.4634" style="stop-color:#2E368F"/>
				<stop  offset="0.5676" style="stop-color:#2D3283"/>
				<stop  offset="0.7719" style="stop-color:#292967"/>
				<stop  offset="1" style="stop-color:#1D1A45"/>
			</radialGradient>
			<path class="st36" d="M284.6,298c0.4-0.9,0.7-1.8,0.9-2.8c1.1-7.6-7.5-15.1-19.2-16.8c-0.5-0.1-1-0.1-1.5-0.2
				c0.3-6.1-4.4-13.5-12.3-18.4c-6.5-4-13.6-5.3-18.9-3.9c-5.6-4.5-14.2-6.7-23.2-5.3c-14.7,2.3-25.1,13.3-23.4,24.5
				c0,0.1,0,0.2,0.1,0.3c-1.5-0.6-3-0.9-4.7-0.9c-7,0-12.6,5.5-12.6,12.3c0,0,0,0,0,0.1c-10.5,1-18.7,9.3-18.7,19.4
				c0,10.8,9.3,19.5,20.8,19.5c4.2,0,8-1.2,11.3-3.1c1.6,3.6,5,6.3,9.2,7.1c4.7,0.8,9.2-1.1,12-4.6c4.8,6.7,14.3,10.5,24.5,8.9
				c9.1-1.4,16.4-6.9,19.6-13.7c1.8,2.5,4.6,4.3,7.9,4.9c4.3,0.8,8.5-0.8,11.3-3.7c2.9,1.6,6.4,2.8,10.2,3.3
				c11.7,1.7,22.1-3.1,23.2-10.7C301.9,307.3,294.7,300.5,284.6,298z"/>
			<path class="st37" d="M192,277.2c0.1,0.8,0.3,1.5,0.6,2.3c-1.1-1.7-1.9-3.6-2.2-5.6c-1.5-9.8,7.6-19.3,20.4-21.4
				c11.8-1.9,16.7,1.1,21.6,7.8c-6.3-3.9-9.8-6-20-4.4C199.6,257.9,190.5,267.4,192,277.2z M251.6,261.5c-8.9-5.4-18.9-5.2-22.4,0.6
				c-0.8,1.3-1.2,2.9-1.2,4.5c0.2-1,0.5-1.9,1-2.8c3.3-5.4,12.8-5.7,21.2-0.5c8.4,5.1,12.4,13.7,9.1,19.1c-1.1,1.8-3,3-5.2,3.7
				c3.2-0.5,5.8-1.9,7.3-4.3C264.8,276.1,260.5,267,251.6,261.5z M267.4,280.9c-2.1-0.3-4.2-0.3-6.2-0.2c0.7,0.1,1.4,0.1,2,0.2
				c11.3,1.6,19.6,8.9,18.5,16.2c-0.1,0.6-0.3,1.2-0.5,1.8c1-1.2,1.7-2.6,2-4.1C284.2,288.5,277.1,282.3,267.4,280.9z M173.4,321.4
				c1.3,0,2.6-0.2,3.8-0.4c-2.1,0.8-4.3,1.3-6.7,1.3c-9.4,0-17.1-7.2-17.1-16c0-8.8,7.6-16,17.1-16c1,0,1.9,0.1,2.9,0.2
				c-8.9,0-16.1,6.9-16.1,15.5C157.2,314.5,164.5,321.4,173.4,321.4z M193.2,326.3c-5.3-0.9-8.9-7-8.8-12.1
				c-0.3,0.7-0.5,1.4-0.6,2.1c-1,5.8,2.9,11.3,8.7,12.3c5.8,1,11.4-2.8,12.4-8.6c0.1-0.5,0.1-1.1,0.1-1.6
				C203.1,322.9,198.3,327.2,193.2,326.3z M247,311.1c-0.2-1.3-0.6-2.5-1.1-3.7c0.1,0.2,0.1,0.5,0.2,0.7c1.5,9.7-6.5,19.1-18,20.9
				c-11.5,1.8-22-4.6-23.5-14.3c0-0.3-0.1-0.6-0.1-0.8c-0.1,1.3-0.1,2.6,0.1,3.9c1.5,9.7,12.3,16.1,24,14.3
				C240.2,330.2,248.5,320.9,247,311.1z M256.7,322.9c-3.3-0.6-6.1-2.4-7.9-4.9c1.6,3.1,4.5,5.4,8.2,6c5.1,0.9,9.9-1.7,12.2-6
				C266.3,321.8,261.6,323.8,256.7,322.9z M184.5,277.1c1.3,0,2.5,0.2,3.7,0.6c-1.8-1.3-3.9-2-6.3-2c-5.9,0-10.7,4.7-10.7,10.4
				c0,0.6,0.1,1.1,0.2,1.6C172.5,281.7,178,277.1,184.5,277.1z M283.3,299.8c8.2,2.9,13.5,8,12.7,13.1c-1,6.7-12.5,10.7-25.5,8.9
				c0,0,0,0,0,0c2,0.7,4.1,1.2,6.4,1.5c11.1,1.5,21-2.7,22.1-9.3C299.9,307.9,293.1,301.9,283.3,299.8z M206.6,314
				c-0.6-4.1,0.6-8.1,3.1-11.6c-4.5,3.8-6.9,9.1-6.1,14.6c1.4,9.1,11.5,15.1,22.4,13.4c3.6-0.6,6.9-1.9,9.6-3.8
				c-1.5,0.5-3.1,0.9-4.7,1.2C219,329.7,208.1,323.5,206.6,314z"/>
		</g>
		<g>
			<radialGradient id="SVGID_31_" cx="285.1062" cy="243.562" r="68.5825" gradientUnits="userSpaceOnUse">
				<stop  offset="0" style="stop-color:#9EB4CB"/>
				<stop  offset="6.018852e-002" style="stop-color:#9BB0C9"/>
				<stop  offset="0.1276" style="stop-color:#91A5C4"/>
				<stop  offset="0.1986" style="stop-color:#8393BC"/>
				<stop  offset="0.272" style="stop-color:#717DB1"/>
				<stop  offset="0.3473" style="stop-color:#5964A5"/>
				<stop  offset="0.4231" style="stop-color:#3E4797"/>
				<stop  offset="0.4634" style="stop-color:#2E368F"/>
				<stop  offset="0.5676" style="stop-color:#2D3283"/>
				<stop  offset="0.7719" style="stop-color:#292967"/>
				<stop  offset="1" style="stop-color:#1D1A45"/>
			</radialGradient>
			<path class="st38" d="M308.5,274.7c0.2-0.4,0.3-0.8,0.4-1.2c0.5-3.2-3.1-6.3-8-7c-0.2,0-0.4,0-0.6-0.1c0.1-2.6-1.9-5.7-5.2-7.7
				c-2.7-1.7-5.7-2.2-7.9-1.6c-2.4-1.9-5.9-2.8-9.7-2.2c-6.1,1-10.5,5.6-9.8,10.2c0,0,0,0.1,0,0.1c-0.6-0.2-1.3-0.4-2-0.4
				c-2.9,0-5.3,2.3-5.3,5.2c0,0,0,0,0,0c-4.4,0.4-7.8,3.9-7.8,8.1c0,4.5,3.9,8.2,8.7,8.2c1.7,0,3.4-0.5,4.7-1.3
				c0.7,1.5,2.1,2.7,3.8,3c2,0.3,3.9-0.5,5-1.9c2,2.8,6,4.4,10.2,3.7c3.8-0.6,6.9-2.9,8.2-5.7c0.8,1,1.9,1.8,3.3,2.1
				c1.8,0.3,3.6-0.3,4.7-1.6c1.2,0.7,2.7,1.2,4.3,1.4c4.9,0.7,9.2-1.3,9.7-4.5C315.7,278.6,312.8,275.7,308.5,274.7z"/>
			<path class="st37" d="M269.8,266c0,0.3,0.1,0.6,0.2,0.9c-0.5-0.7-0.8-1.5-0.9-2.3c-0.6-4.1,3.2-8.1,8.5-8.9c4.9-0.8,7,0.5,9,3.3
				c-2.6-1.6-4.1-2.5-8.4-1.8C273,257.9,269.2,261.9,269.8,266z M294.7,259.4c-3.7-2.3-7.9-2.2-9.4,0.2c-0.3,0.6-0.5,1.2-0.5,1.9
				c0.1-0.4,0.2-0.8,0.4-1.2c1.4-2.3,5.4-2.4,8.9-0.2c3.5,2.2,5.2,5.7,3.8,8c-0.5,0.8-1.2,1.3-2.2,1.5c1.3-0.2,2.4-0.8,3.1-1.8
				C300.2,265.5,298.4,261.7,294.7,259.4z M301.3,267.5c-0.9-0.1-1.8-0.1-2.6-0.1c0.3,0,0.6,0.1,0.9,0.1c4.7,0.7,8.2,3.7,7.7,6.8
				c0,0.3-0.1,0.5-0.2,0.7c0.4-0.5,0.7-1.1,0.8-1.7C308.3,270.7,305.4,268.1,301.3,267.5z M262,284.5c0.6,0,1.1-0.1,1.6-0.2
				c-0.9,0.3-1.8,0.5-2.8,0.5c-3.9,0-7.1-3-7.1-6.7c0-3.7,3.2-6.7,7.1-6.7c0.4,0,0.8,0,1.2,0.1c-3.7,0-6.7,2.9-6.7,6.5
				C255.2,281.6,258.3,284.5,262,284.5z M270.3,286.5c-2.2-0.4-3.7-2.9-3.7-5.1c-0.1,0.3-0.2,0.6-0.3,0.9c-0.4,2.4,1.2,4.7,3.6,5.2
				c2.4,0.4,4.8-1.2,5.2-3.6c0-0.2,0-0.5,0.1-0.7C274.4,285.1,272.4,286.9,270.3,286.5z M292.8,280.2c-0.1-0.5-0.2-1.1-0.5-1.5
				c0,0.1,0.1,0.2,0.1,0.3c0.6,4.1-2.7,8-7.5,8.7c-4.8,0.8-9.2-1.9-9.8-6c0-0.1,0-0.2,0-0.3c-0.1,0.5-0.1,1.1,0,1.6
				c0.6,4.1,5.1,6.7,10,6C290,288.2,293.4,284.3,292.8,280.2z M296.8,285.1c-1.4-0.2-2.5-1-3.3-2c0.7,1.3,1.9,2.3,3.4,2.5
				c2.1,0.4,4.2-0.7,5.1-2.5C300.9,284.6,298.9,285.5,296.8,285.1z M266.6,266c0.5,0,1,0.1,1.5,0.2c-0.7-0.5-1.6-0.9-2.6-0.9
				c-2.5,0-4.5,2-4.5,4.4c0,0.2,0,0.5,0.1,0.7C261.6,267.9,263.9,266,266.6,266z M308,275.4c3.4,1.2,5.7,3.4,5.3,5.5
				c-0.4,2.8-5.2,4.5-10.7,3.7c0,0,0,0,0,0c0.8,0.3,1.7,0.5,2.7,0.6c4.7,0.6,8.8-1.1,9.2-3.9C314.9,278.8,312.1,276.3,308,275.4z
				 M275.9,281.4c-0.3-1.7,0.2-3.4,1.3-4.8c-1.9,1.6-2.9,3.8-2.5,6.1c0.6,3.8,4.8,6.3,9.4,5.6c1.5-0.2,2.9-0.8,4-1.6
				c-0.6,0.2-1.3,0.4-2,0.5C281.1,288,276.5,285.4,275.9,281.4z"/>
		</g>
	</g>
</g>
<g>
	<g>
		<linearGradient id="SVGID_32_" gradientUnits="userSpaceOnUse" x1="758.4239" y1="141.1381" x2="958.6016" y2="141.1381">
			<stop  offset="0" style="stop-color:#FFFFFF;stop-opacity:0"/>
			<stop  offset="4.017906e-002" style="stop-color:#FDEBEE;stop-opacity:4.051906e-002"/>
			<stop  offset="0.1257" style="stop-color:#FAC6CE;stop-opacity:0.1267"/>
			<stop  offset="0.2187" style="stop-color:#F7A7B2;stop-opacity:0.2205"/>
			<stop  offset="0.3192" style="stop-color:#F58D9C;stop-opacity:0.3219"/>
			<stop  offset="0.4302" style="stop-color:#F3798A;stop-opacity:0.4338"/>
			<stop  offset="0.5573" style="stop-color:#F26C7E;stop-opacity:0.562"/>
			<stop  offset="0.7143" style="stop-color:#F16377;stop-opacity:0.7204"/>
			<stop  offset="0.9916" style="stop-color:#F16175"/>
		</linearGradient>
		<rect x="758.4" y="128.8" class="st39" width="200.2" height="24.7"/>
		<g>
			<g>
				<path class="st7" d="M898.6,145.7c-4.3,0-5.9-2-5.9-5.1c0-2.9,1.8-5.5,5.8-5.5c2.6,0,4.6,0.8,4.6,0.8v7.6h2.2v2.3H898.6z
					 M895,132.2c0-0.8,0.6-1.5,1.5-1.5c0.8,0,1.5,0.7,1.5,1.5c0,0.8-0.6,1.5-1.5,1.5C895.7,133.7,895,133,895,132.2z M900.4,137.8
					c0,0-0.8-0.4-2.1-0.4c-1.7,0-2.6,1.3-2.6,3c0,2,1,3.1,3.3,3.1h1.4V137.8z M898.7,132.2c0-0.8,0.6-1.5,1.5-1.5
					c0.8,0,1.5,0.7,1.5,1.5c0,0.8-0.6,1.5-1.5,1.5C899.3,133.7,898.7,133,898.7,132.2z"/>
				<path class="st7" d="M905,143.4h4.1v-8.1h2.9v10.3h-7V143.4z M906.9,150.5c-0.8,0-1.5-0.7-1.5-1.5c0-0.8,0.6-1.5,1.5-1.5
					c0.8,0,1.5,0.7,1.5,1.5C908.3,149.8,907.7,150.5,906.9,150.5z M910.5,150.5c-0.8,0-1.5-0.7-1.5-1.5c0-0.8,0.6-1.5,1.5-1.5
					c0.8,0,1.5,0.7,1.5,1.5C912,149.8,911.3,150.5,910.5,150.5z"/>
				<path class="st7" d="M912.2,151.1l0.2-2.3c0.5,0.2,1.1,0.3,1.8,0.3c1.5,0,2.4-0.7,2.4-3.1v-10.6h2.9v8.1h2.2v2.3h-2.2v0.1
					c0,2.8-0.9,5.5-5.4,5.5C913.3,151.3,912.7,151.2,912.2,151.1z"/>
				<path class="st7" d="M921.3,145.7v-2.3h1.9c0.6,0,1,0.1,1,0.1s-0.6-0.6-0.6-1.5c0-2.1,1.5-3.7,4.2-3.7c2.9,0,4,2,4,4.5v0.6h2.3
					v-0.3c0-4.6-1.8-6.8-6.2-6.8c-1.5,0-3.3,0.4-4.7,0.8l-0.3-2c1.6-0.5,3.6-0.9,5.3-0.9c5.5,0,8.6,2.6,8.6,9.1v0.1h1.6v2.3H921.3z
					 M929.4,142.8c0-1.6-0.6-2.7-1.9-2.7c-1,0-1.6,0.7-1.6,1.6c0,1.1,0.9,1.8,2.1,1.8h1.4V142.8z"/>
				<path class="st7" d="M938.1,143.4h8.5c0.1-0.5,0.1-1.1,0.1-1.7c0-2.8-1.1-4.2-4.3-4.2c-0.9,0-1.7,0.1-2.5,0.2v-2.3
					c0.9-0.1,1.9-0.2,2.8-0.2c5,0,6.9,2.2,6.9,6.4c0,1.1-0.1,2.5-0.4,4.1h-11.1V143.4z M941.8,149c0-0.8,0.7-1.5,1.5-1.5
					s1.5,0.7,1.5,1.5c0,0.8-0.7,1.5-1.5,1.5S941.8,149.9,941.8,149z"/>
			</g>
		</g>
		<g>
			<path class="st1" d="M728.4,133.2c0.1,0.4,0.2,0.8,0.2,1.1c0,0.9-0.6,1.7-1.9,2.2l-4.9,1.9c-1.5,0.6-2.8,1.1-2.8,2
				c0,0.1,0,0.1,0,0.2l-0.2,0.1c-0.1-0.4-0.2-0.8-0.2-1.1c0-0.9,0.5-1.7,1.9-2.3l4.9-1.9c1.7-0.7,2.8-1.1,2.8-2.2L728.4,133.2z"/>
			<path class="st1" d="M734.6,123.5v3.3h-12.2c-4.1,0-5.6-2-5.8-5h0.4c0.4,1.4,1.1,1.7,5.9,1.8h0.4c-1.9-1.7-2.8-3.9-2.8-6.4l0.1-1
				c0-1.6,1.3-2.9,3-2.9h10.5v3.1h-10.4v0.9c0,3.5,2.7,5.9,6.5,6.3H734.6z"/>
			<path class="st1" d="M743.4,116.5c0,4.1,3,7.1,6.7,7.1h1.4v3.3h-1.4c-5.5,0-10-5.2-10-10.3V95.2c0-4.2,2.1-5.8,5.4-5.9v0.5
				c-1.7,0.2-2.1,2.8-2.1,5.6c0,0.6,0,1.2,0,1.9v18V116.5z"/>
			<path class="st1" d="M788.8,117.6c0,3.3,2.5,5.9,6,5.9v3.3c-3.3,0-6-1.5-7.7-4.1c-1.5,2.4-4.4,4.1-7.5,4.1
				c-3.2,0-6.2-1.8-7.8-4.3c-1.7,2.6-4.2,4.3-7.9,4.3c-2.4,0-4.4-0.8-6.2-2.2c-1,1.7-2.2,2.1-3,2.2h-3.5v-3.3h2.4
				c0.5,0,0.9-0.4,1.1-1.1v-17.3h3.3v12c0,3.6,2.8,6.4,6,6.4c3.3,0,5.8-2.4,5.9-5.9v-12.6h3.3v11.6c0,3.7,2.7,6.8,6,6.8
				c3.2,0,6.2-2.2,6.2-5.9v-7.4c0-4.9,2.6-5.8,5.1-5.9v0.6c-1.8,0.3-1.8,3.6-1.8,7V117.6z M768.6,100.2l-2.8-2.8l2.8-2.9l2.9,2.9
				L768.6,100.2z M771.5,96.6l-2.8-2.8l2.8-2.9l2.8,2.9L771.5,96.6z M774.3,100.2l-2.8-2.8l2.8-2.9l2.8,2.9L774.3,100.2z"/>
			<path class="st1" d="M810.5,133.6c0.1,0.4,0.2,0.8,0.2,1.1c0,0.9-0.6,1.7-1.9,2.2l-4.9,1.9c-1.5,0.6-2.8,1.1-2.8,2
				c0,0.1,0,0.1,0,0.2l-0.2,0.1c-0.1-0.4-0.2-0.8-0.2-1.1c0-0.9,0.5-1.7,1.9-2.3l4.9-1.9c1.7-0.7,2.8-1.1,2.8-2.2L810.5,133.6z"/>
			<path class="st1" d="M824.4,126.8h-29.6v-3.3h4.6c-1.7-1.7-2.5-4.1-2.5-6.3c0-5.1,4.5-9.6,9.7-9.6h6.9c3.4,0,6.8,0,7-2.2h0.5
				c0,3.4-1.9,5.4-5.8,5.4h-8.2c-4.2,0-7.1,2.7-7.1,6.4s2.8,6.2,6.7,6.3h17.9V126.8z"/>
			<path class="st1" d="M834.3,81.1c0.3-0.2,0.7-0.3,1.1-0.3V81c-0.7,0.1-0.7,1.2-0.7,2.4v2c0,1.7-1.4,3.1-3.1,3.1
				c-1.9,0-3.4-1.1-3.4-2.8v-1.2c0-1.8,1.6-3.4,3.4-3.4H834.3z M831.7,82.2c-1.4,0-2.5,1-2.5,2.3v1.2c0,0.9,1,1.7,2.3,1.7
				c1,0,2.1-0.9,2.1-2.1v-2.5c0-0.2,0-0.5,0.1-0.6H831.7z"/>
			<path class="st1" d="M828,88.6c3.1,0.1,5.3,1.7,5.3,6v21.6c0,4-2.5,7.9-6,9.6c-1.2,0.6-2.2,0.9-3,0.9v-3.3
				c2.4-0.2,5.8-2.8,5.8-7.3v-20c0-3.5,0-7-2.1-7.2V88.6z"/>
			<path class="st1" d="M840.7,96.7c0-5.7-0.2-7.3-2-7.5v-0.4c3.5,0.1,5.2,2.2,5.2,6.2v31.8h-3.3V96.7z"/>
			<path class="st1" d="M867.8,81.2c-1.3,2.3-3.3,3.5-5.2,3.5c-1.4,0-2.8-0.7-3.7-1.8l0.1-0.1c0.7,0.9,1.8,1.4,3,1.4
				c1.7,0,3.6-1,4.9-3.4l0.3-0.6c-0.2,0-0.4,0.1-0.6,0.1c-1.8,0-3.1-1.7-3.1-3.1c0-0.4,0.1-0.8,0.3-1.1l0.6-1c0.6-1,1.7-1.6,2.8-1.6
				c0.5,0,1,0.1,1.5,0.4l-0.4,0.9c-0.4-0.2-0.8-0.3-1.2-0.3c-0.8,0-1.5,0.4-1.9,1.1l-0.5,1c-0.1,0.2-0.2,0.4-0.2,0.6
				c0,0.8,0.8,2,2.1,2c0.5,0,0.9-0.2,1.3-0.5l1.7-3.1l-1.4-0.8l0.4-0.9L871,75c0.3,0,0.7,0.1,1,0.3l-0.1,0.1c-0.1,0-0.2,0-0.2,0
				c-0.5,0-0.9,0.9-1.4,1.7l-0.9,1.6L867.8,81.2z"/>
			<path class="st1" d="M877.3,104.6c0.8-0.5,1.9-0.7,3.1-0.8v0.5c-2.1,0.3-2.1,3.7-2.1,7.2v6c0,5.2-4.3,9.3-9.4,9.3
				c-5.4,0-10.2-3.6-10.2-8.3v-3.6c0-5.5,4.8-10.3,10.3-10.3H877.3z M869.6,107.8c-4.3,0-7.4,3.2-7.4,7v3.6c0,2.6,2.9,5.1,6.8,5.1
				c3.3,0,6.2-2.8,6.2-6.1v-7.6c0-0.9,0-1.4,0.3-2H869.6z M865.2,100.3l-2.9-2.9l2.9-2.8l2.9,2.8L865.2,100.3z M871,100.3l-2.9-2.9
				l2.9-2.8l2.9,2.8L871,100.3z"/>
			<path class="st1" d="M916.1,126.8c-3.4,0-6.6-1.6-8.3-4.5c-1,2-4.5,4.5-8,4.5h-17.1v-3.3h10.9v-13.1c0-3.7-0.2-7.2-2.2-7.5v-0.5
				c3.4,0.2,5.5,1.8,5.5,6.2v14.9h2.9c3.8,0,6.8-3.3,6.8-7.7V95.2c0-3.8-0.1-7.1-2.1-7.4v-0.5c3.3,0.1,5.4,1.8,5.4,6.1v24.7
				c0.3,3.3,2.8,5.2,6.2,5.5V126.8z"/>
			<path class="st1" d="M949.5,92.9c0.1,0.4,0.2,0.8,0.2,1.1c0,0.9-0.6,1.7-1.9,2.2l-4.9,1.9c-1.5,0.6-2.8,1.1-2.8,2
				c0,0.1,0,0.1,0,0.2l-0.2,0.1c-0.1-0.4-0.2-0.8-0.2-1.1c0-0.9,0.5-1.7,1.9-2.3l4.9-1.9c1.7-0.7,2.8-1.1,2.8-2.2L949.5,92.9z"/>
			<path class="st1" d="M958.6,126.8H916v-3.3h2.8c0.6-0.3,0.9-1.1,0.9-2.5c0-3.4-0.8-6.6-3.2-8.8l0.4-0.3c2.2,2.1,3.7,4.7,4.4,7.3
				c0.7-8.2,8.8-14.5,19.3-14.5h6.9c6.1,0.5,11.2,6.1,11.1,12.4V126.8z M955.3,123.5V117c0-3.8-1.7-6.5-5.1-8.1
				c-1.4-0.6-3.3-0.9-6.2-0.9h-3.4c-11.1,0-18.8,6.2-18.8,14.5v1H955.3z"/>
		</g>
	</g>
</g>
</svg>
