<?xml version="1.0" encoding="utf-8"?>
<!-- Generator: Adobe Illustrator 22.1.0, SVG Export Plug-In . SVG Version: 6.00 Build 0)  -->
<svg version="1.1" id="Layer_1" xmlns="http://www.w3.org/2000/svg" xmlns:xlink="http://www.w3.org/1999/xlink" x="0px" y="0px"
	 viewBox="0 0 1024 768" style="enable-background:new 0 0 1024 768;" xml:space="preserve">
<style type="text/css">
	.st0{fill:url(#SVGID_1_);}
	.st1{fill:#632872;}
	.st2{fill:url(#SVGID_2_);}
	.st3{fill:url(#SVGID_3_);}
	.st4{fill:#CA4977;}
	.st5{fill-rule:evenodd;clip-rule:evenodd;fill:#F6DFB4;}
	.st6{fill:#D2D3D4;}
	.st7{fill:#FFFFFF;}
	.st8{fill:#205B6A;}
	.st9{fill:url(#SVGID_4_);}
	.st10{fill:url(#SVGID_5_);}
	.st11{fill:url(#SVGID_6_);}
	.st12{fill:url(#SVGID_7_);}
	.st13{fill:url(#SVGID_8_);}
	.st14{fill:url(#SVGID_9_);}
	.st15{fill:url(#SVGID_10_);}
	.st16{fill:url(#SVGID_11_);}
	.st17{fill:url(#SVGID_12_);}
	.st18{fill:url(#SVGID_13_);}
	.st19{fill:url(#SVGID_14_);}
	.st20{fill:url(#SVGID_15_);}
	.st21{fill:url(#SVGID_16_);}
	.st22{fill:url(#SVGID_17_);}
	.st23{fill:url(#SVGID_18_);}
	.st24{fill:url(#SVGID_19_);}
	.st25{fill:url(#SVGID_20_);}
	.st26{fill:url(#SVGID_21_);}
	.st27{fill:url(#SVGID_22_);}
	.st28{fill:url(#SVGID_23_);}
	.st29{fill:url(#SVGID_24_);}
	.st30{fill:url(#SVGID_25_);}
	.st31{fill:url(#SVGID_26_);}
	.st32{fill:url(#SVGID_27_);}
	.st33{fill:url(#SVGID_28_);}
	.st34{fill:url(#SVGID_29_);}
	.st35{fill:#2A3C90;}
	.st36{fill:url(#SVGID_30_);}
	.st37{fill:#1D1A45;}
	.st38{fill:url(#SVGID_31_);}
	.st39{fill:url(#SVGID_32_);}
</style>
<g>
	<g>
		<g>
			<g>
				<linearGradient id="SVGID_1_" gradientUnits="userSpaceOnUse" x1="245.1853" y1="139.1426" x2="245.1853" y2="722.1336">
					<stop  offset="0" style="stop-color:#1F1A46"/>
					<stop  offset="0.1588" style="stop-color:#211D4C"/>
					<stop  offset="0.4289" style="stop-color:#26265D"/>
					<stop  offset="0.7753" style="stop-color:#2A3379"/>
					<stop  offset="0.9949" style="stop-color:#2A3C90"/>
				</linearGradient>
				<path class="st0" d="M395.4,267.9h-6.1c-1.8-28.2-25.9-59.6-71.7-93.4c-35-25.9-70.5-43.7-70.9-43.9c-1-0.5-2.2-0.5-3.1,0
					c-0.3,0.2-35.9,18-70.9,43.9c-45.7,33.8-69.8,65.2-71.7,93.4H95c-1.9,0-3.5,1.6-3.5,3.5v360.2h307.5V271.4
					C398.9,269.5,397.4,267.9,395.4,267.9z"/>
			</g>
		</g>
	</g>
</g>
<path class="st1" d="M707.7,217.6c0-0.8,0.7-1.5,1.5-1.5c0.8,0,1.5,0.7,1.5,1.5c0,0.8-0.7,1.5-1.5,1.5
	C708.4,219.1,707.7,218.5,707.7,217.6z M707.7,225.1c0-0.8,0.7-1.5,1.5-1.5c0.8,0,1.5,0.7,1.5,1.5c0,0.8-0.7,1.5-1.5,1.5
	C708.4,226.6,707.7,225.9,707.7,225.1z"/>
<path class="st1" d="M712.6,225.9c0-1,0.2-2.1,0.4-2.7l1.5-0.5l0.2,0.1c-0.2,0.8-0.2,1.6-0.2,2.2c0,2.4,0.9,4,4.2,4
	c2,0,3.4-0.5,4.4-1.7c0.3-0.6,0.6-1.8,0.6-3.7v-13.1l1.7-0.4l0.2,0.1l0,13.2c0,5.4-2.5,7.5-7.2,7.5
	C714.5,230.8,712.6,228.7,712.6,225.9z"/>
<path class="st1" d="M738.7,225.1c0,0.4-0.2,1.2-1.5,1.2h-1.8c-0.8,2.3-3,4.1-7,4.2l-1-1.4l0.1-0.2c3-0.1,5.2-1.1,6.1-2.7H733
	c-3,0-4.4-1.2-4.4-3.1c0-2.2,1.6-4.7,3.5-4.7c2.2,0,3.6,2.7,3.6,5.7v0.1h1.9C738.6,224.5,738.7,224.7,738.7,225.1z M734.3,224.5
	v-0.1c0-2.1-1.1-3.8-2.2-3.8c-0.9,0-1.9,1-1.9,2.6c0,0.9,0.8,1.4,3.1,1.4H734.3z"/>
<path class="st1" d="M746.3,221.2c0,2.3-0.4,3.6-1.5,4.4c-1.3,0.7-3.1,0.8-7.6,0.8l0.5-1.9c4.6,0,6.1-0.2,6.8-0.5
	c0.1-0.3,0.1-0.8,0.2-1.5c-0.7,0.2-1.6,0.3-2.5,0.3c-2.1,0-3.1-1.1-3.1-2.8c0-2.2,1.6-4.6,3.5-4.6
	C744.9,215.4,746.3,218.2,746.3,221.2z M741.3,212.8l-1.9-1.4l1.2-1.8l1.9,1.3L741.3,212.8z M742.6,220.9c0.8,0,1.5-0.1,2.2-0.2
	c-0.1-1.7-1.1-3.5-2.2-3.5c-0.9,0-1.9,1.2-1.9,2.5C740.7,220.6,741.4,220.9,742.6,220.9z M744.6,212.8l-1.9-1.4l1.2-1.8l1.9,1.3
	L744.6,212.8z"/>
<path class="st1" d="M752.4,208.1c-1.2,0.1-2.7,0.3-4.6,0.3l-0.1-1.3c0.3,0,0.7,0,1.1,0c-0.3-0.4-0.4-0.9-0.4-1.4
	c0-1.2,0.7-1.9,2-1.9c0.5,0,1.1,0.1,1.7,0.3l-0.3,1.2c-0.5-0.1-0.8-0.2-1.1-0.2c-0.6,0-0.9,0.4-0.9,0.9c0,0.4,0.2,0.7,0.5,1
	c0.8,0,1.5-0.1,2.2-0.2L752.4,208.1z M751.1,210l0.1,0.1l0,16.1l-1.7,0.4l-0.1-0.1v-16L751.1,210z"/>
<path class="st1" d="M761.6,224.4c0,3.1-2.3,6.1-7.3,6.2l-1-1.4l0.1-0.2c3.4-0.1,5.7-1.3,6.5-3.3c-0.7,0.1-1.4,0.3-2.3,0.3
	c-2.1,0-3.1-1.1-3.1-2.8c0-2.2,1.6-4.6,3.5-4.6C760.2,218.6,761.6,221.4,761.6,224.4z M757.9,224.1c0.8,0,1.5-0.1,2.2-0.2
	c-0.1-1.7-1.1-3.5-2.2-3.5c-0.9,0-1.9,1.2-1.9,2.5C756,223.8,756.6,224.1,757.9,224.1z"/>
<path class="st1" d="M780.7,225.1c0,0.4-0.2,1.2-1.5,1.2c-1.9,0-3.3-0.4-3.9-1.9c-0.6,0.1-1.2,0.2-1.8,0.2c-2.5,0-4-1.1-4-2.7
	c0-1.8,1.9-4,5.5-5.1v-1.2l1.7-0.8l0.2,0v7.4c0,1.8,0.9,2.1,2.8,2.1C780.6,224.5,780.7,224.7,780.7,225.1z M772.5,213.4l-1.9-1.4
	l1.2-1.8l1.9,1.3L772.5,213.4z M775,222.6v-0.2v-3.6c-2.2,0.7-3.7,1.8-4,2.8c0.3,0.9,1.6,1.2,2.6,1.2
	C774.1,222.8,774.6,222.7,775,222.6z M775.8,213.4l-1.9-1.4l1.2-1.8l1.9,1.3L775.8,213.4z"/>
<path class="st1" d="M788.8,225.1c0,0.4-0.2,1.2-1.4,1.2c-1.5,0-2.9-0.3-3.9-1.2c-0.8,0.8-1.8,1.2-3.3,1.2h-0.8l0.5-1.9h0.7
	c0.7,0,1.4-0.1,1.8-0.5c0.3-0.5,0.7-1.6,1.2-3.6l1.8-0.5l0.2,0.1c-0.3,1.5-0.7,2.7-1.1,3.7c0.6,0.3,1.5,0.7,3.4,0.7
	C788.6,224.5,788.8,224.7,788.8,225.1z M781.3,228.2l1.9,1.3l-1.2,1.8l-1.9-1.4L781.3,228.2z M784.8,228.2l1.9,1.3l-1.2,1.8
	l-1.9-1.4L784.8,228.2z"/>
<path class="st1" d="M787.8,224.5h0.2c1.2,0,2.1-0.1,2.5-0.3c0.5-1.2-0.3-2.9-1.1-4.7l1.6-1.2h0.2c0.8,1.7,1.2,3.3,1.2,4.3
	c0,1-0.5,2.2-1.2,2.9c-0.6,0.6-1.6,0.8-3.8,0.8h-0.2L787.8,224.5z M788.9,214.2l1.2-1.8l2,1.3l-1.2,1.8L788.9,214.2z"/>
<path class="st1" d="M795.5,222.4v-12l1.7-0.4l0.1,0.1v12.1c0,1.9,0.8,2.3,2.8,2.3c0.8,0,1,0.3,1,0.6c0,0.4-0.2,1.2-1.5,1.2
	C797.4,226.3,795.5,225.5,795.5,222.4z"/>
<path class="st1" d="M809.3,225.1c0,0.4-0.2,1.2-1.4,1.2c-1.5,0-2.9-0.3-3.9-1.2c-0.8,0.8-1.8,1.2-3.3,1.2h-0.8l0.5-1.9h0.7
	c0.7,0,1.4-0.1,1.8-0.5c0.3-0.5,0.7-1.6,1.2-3.6l1.8-0.5l0.2,0.1c-0.3,1.5-0.7,2.7-1.1,3.7c0.6,0.3,1.5,0.7,3.4,0.7
	C809.1,224.5,809.3,224.7,809.3,225.1z M803.6,217.2l-1.9-1.4l1.2-1.8l1.9,1.3L803.6,217.2z M805,214.5l-2-1.4l1.2-1.8l1.9,1.3
	L805,214.5z M805,215.8l1.2-1.8l1.9,1.3l-1.2,1.8L805,215.8z"/>
<path class="st1" d="M808.3,224.5c0.8,0,1.7,0,2.3-0.5c0.1-0.4,0.2-1,0.2-1.9v-11.7l1.7-0.4l0.2,0.1v11.9c0,3.5-1.8,4.4-4.8,4.4
	L808.3,224.5z"/>
<path class="st1" d="M815.7,226.4v-16l1.8-0.5l0.1,0.1l0,16.1l-1.7,0.4L815.7,226.4z"/>
<path class="st1" d="M833.1,223c0,2-1.7,3.5-4,3.5c-2.1,0-3.4-1.1-3.4-3c0-1.2,0.6-2.6,2.2-4.7l-0.5-0.4l0.9-1.7l0.2-0.1
	C832,219.7,833.1,221.1,833.1,223z M827.8,214.6l-1.9-1.4l1.2-1.8l1.9,1.3L827.8,214.6z M831.3,223.1c0-1-0.8-2.1-2.1-3.2
	c-1.3,1.4-1.8,2.4-1.8,3.2c0,1,0.7,1.6,1.9,1.6C830.6,224.6,831.3,224,831.3,223.1z M831.1,214.6l-1.9-1.4l1.2-1.8l1.9,1.3
	L831.1,214.6z"/>
<path class="st1" d="M847,225.1c0,0.4-0.2,1.2-1.5,1.2c-1.1,0-1.9-0.3-2.5-1.3c-0.9,0.9-2.6,1.4-4.9,1.4c-0.5,0-1.9-0.1-2.8-0.3
	l0.3-1.8l0.1-0.1c0.8,0.2,2.1,0.2,2.6,0.2c1.5,0,3.1-0.3,3.9-0.9l-0.1-0.1c-0.4-0.8-2.2-4.3-3.2-6l1.4-1.5h0.2
	c0.7,1.5,2.4,5.4,2.8,6c0.9,1.9,1.4,2.3,2.7,2.3C846.8,224.5,847,224.7,847,225.1z"/>
<path class="st1" d="M861.5,225.1c0,0.4-0.2,1.2-1.4,1.2c-3.2,0-4.7-0.8-5.5-2.3c-0.8,0.2-1.7,0.5-2.7,0.9c-3.1,1.1-4.5,1.4-6.4,1.4
	l0.5-1.9c1.6,0,2.9-0.2,5.4-1.1c1.5-0.5,2.7-0.8,3.8-1c-0.4-0.2-0.9-0.5-1.7-0.8c-1.9-1-2.9-1.4-4-1.4c-0.9,0-1.7,0.2-2.4,0.5
	l-0.1-0.1l0.7-1.8c0.6-0.3,1.4-0.5,2.1-0.5c1.1,0,2.2,0.5,4.2,1.6c2.4,1.2,3.6,1.7,4.7,1.8l-0.4,1.7c-0.6,0.1-1.2,0.1-1.8,0.3
	c0.7,0.7,1.9,0.9,4,0.9C861.4,224.5,861.5,224.7,861.5,225.1z M851.4,228.2l2,1.3l-1.2,1.8l-2-1.4L851.4,228.2z"/>
<path class="st1" d="M880.8,225.1c0,0.4-0.2,1.2-1.4,1.2c-1,0-2.3-0.2-3.3-1c-0.7,0.7-1.7,1-2.9,1c-1,0-1.9-0.2-2.7-0.6
	c-0.5,0.4-1.2,0.6-2.2,0.6c-1.7,0-3-0.5-3.7-1.1c-0.9,0.7-2.2,1.1-4.4,1.1l0.5-1.9c1.5,0,2.5-0.1,3-0.5c0.3-0.4,0.6-1.3,1-2.5l2-0.3
	l0.1,0.1c-0.4,1-0.7,1.9-1.1,2.6c0.7,0.3,1.9,0.6,2.8,0.6c0.4,0,0.9-0.1,1.2-0.3c0.3-0.4,0.7-1.4,1.1-2.8l1.9-0.3l0.1,0.1
	c-0.4,1.2-0.7,2.2-1.1,2.9c0.5,0.2,1.1,0.3,1.7,0.3c0.6,0,1.2-0.1,1.6-0.4c0.2-0.3,0.4-1,0.4-2.2c0-0.4,0-0.8-0.1-1.3l1.7-0.6
	l0.2,0.1c0,0.4,0,0.7,0,1.1c0,1.1-0.1,1.9-0.3,2.6c0.5,0.3,1.4,0.7,2.9,0.7C880.6,224.5,880.8,224.7,880.8,225.1z"/>
<path class="st1" d="M887.8,225.1c0,0.4-0.2,1.2-1.4,1.2c-1,0-2.4-0.2-3-1.4c-0.8,1.1-2.2,1.4-4,1.4l0.5-1.9c0.8,0,1.7,0,2.3-0.5
	c0.1-0.4,0.2-1,0.2-1.9v-11.7l1.7-0.4l0.2,0.1v11.8c0,2.4,1.1,2.6,2.7,2.6C887.6,224.5,887.8,224.7,887.8,225.1z"/>
<path class="st1" d="M886.8,224.5c0.8,0,1.7,0,2.3-0.5c0.1-0.4,0.2-1,0.2-1.9v-11.7l1.7-0.4l0.2,0.1v11.9c0,3.5-1.8,4.4-4.8,4.4
	L886.8,224.5z"/>
<g>
	<path class="st1" d="M763.3,413.3c0-0.8,0.7-1.5,1.5-1.5c0.8,0,1.5,0.7,1.5,1.5c0,0.8-0.7,1.5-1.5,1.5
		C764,414.8,763.3,414.1,763.3,413.3z M763.3,420.7c0-0.8,0.7-1.5,1.5-1.5c0.8,0,1.5,0.7,1.5,1.5c0,0.8-0.7,1.5-1.5,1.5
		C764,422.2,763.3,421.6,763.3,420.7z"/>
	<path class="st1" d="M785.5,420.8c0,0.4-0.2,1.2-1.5,1.2c-1.1,0-1.9-0.3-2.5-1.3c-0.9,0.9-2.6,1.4-4.9,1.4c-0.5,0-1.9-0.1-2.8-0.3
		l0.3-1.8l0.1-0.1c0.8,0.2,2.1,0.2,2.6,0.2c1.5,0,3.1-0.3,3.9-0.9l-0.1-0.1c-0.4-0.8-2.2-4.3-3.2-6l1.4-1.5h0.2
		c0.7,1.5,2.4,5.4,2.8,6c0.9,1.9,1.4,2.3,2.7,2.3C785.2,420.1,785.5,420.4,785.5,420.8z"/>
	<path class="st1" d="M797.3,417.3l-0.5,1.7c-2,0.2-3.9,0.7-6.5,1.6c-3,1-4.6,1.4-6.3,1.4l0.5-1.9c1.5,0,2.8-0.2,5.4-1.1
		c1.6-0.5,2.8-0.8,3.8-1c-0.4-0.2-1-0.5-1.7-0.9c-1.9-1.1-2.9-1.4-4-1.4c-0.9,0-1.7,0.2-2.4,0.5l-0.1-0.1l0.7-1.7
		c0.6-0.3,1.4-0.5,2.1-0.5c1.1,0,2.2,0.5,4.3,1.6C794.8,416.7,796.1,417.2,797.3,417.3z M789.9,423.8l2,1.3l-1.2,1.8l-2-1.4
		L789.9,423.8z"/>
	<path class="st1" d="M799.7,418v-12l1.7-0.4l0.1,0.1v12.1c0,1.9,0.8,2.3,2.8,2.3c0.8,0,1,0.3,1,0.6c0,0.4-0.2,1.2-1.5,1.2
		C801.5,422,799.7,421.1,799.7,418z"/>
	<path class="st1" d="M821.3,418.2c0,2.8-1.7,3.7-4.3,3.7c-1,0-1.9-0.2-2.7-0.6c-0.5,0.4-1.2,0.6-2.2,0.6c-1.7,0-3-0.5-3.7-1.1
		c-0.9,0.7-2.2,1.1-4.4,1.1l0.5-1.9c1.5,0,2.5-0.1,3-0.5c0.3-0.4,0.6-1.3,1-2.5l2-0.3l0.1,0.1c-0.4,1-0.7,1.9-1.1,2.6
		c0.7,0.3,1.9,0.6,2.8,0.6c0.4,0,0.9-0.1,1.2-0.3c0.3-0.4,0.7-1.4,1.1-2.8l1.9-0.3l0.1,0.1c-0.4,1.2-0.7,2.2-1.1,2.9
		c0.5,0.2,1.1,0.3,1.7,0.3c0.8,0,1.7-0.1,2.2-0.3c0.5-1.2-0.2-2.9-1-4.7l1.6-1.2l0.1,0C820.8,415.6,821.3,417.2,821.3,418.2z"/>
	<path class="st1" d="M830.1,418v-12l1.7-0.4l0.1,0.1v12.1c0,1.9,0.8,2.3,2.8,2.3c0.8,0,1,0.3,1,0.6c0,0.4-0.2,1.2-1.5,1.2
		C831.9,422,830.1,421.1,830.1,418z"/>
	<path class="st1" d="M834.8,420.1h0.2c1.2,0,2.1-0.1,2.5-0.3c0.5-1.2-0.3-2.9-1.1-4.7l1.6-1.2h0.2c0.8,1.7,1.2,3.3,1.2,4.3
		c0,1-0.5,2.2-1.2,2.9c-0.6,0.6-1.6,0.8-3.8,0.8h-0.2L834.8,420.1z M835.9,409.8l1.2-1.8l2,1.3l-1.2,1.8L835.9,409.8z"/>
	<path class="st1" d="M845.6,403.7c-1.2,0.1-2.7,0.3-4.6,0.3l-0.1-1.3c0.3,0,0.7,0,1.1,0c-0.3-0.4-0.4-0.9-0.4-1.4
		c0-1.2,0.7-1.9,2-1.9c0.5,0,1.1,0.1,1.7,0.3l-0.3,1.2c-0.5-0.1-0.8-0.2-1.1-0.2c-0.6,0-0.9,0.4-0.9,0.9c0,0.4,0.2,0.7,0.5,1
		c0.8,0,1.5-0.1,2.2-0.2L845.6,403.7z M844.2,405.6l0.1,0.1l0,16.1l-1.7,0.4l-0.1-0.1v-16L844.2,405.6z"/>
	<path class="st1" d="M854.7,420c0,3.1-2.3,6.1-7.3,6.2l-1-1.4l0.1-0.2c3.4-0.1,5.7-1.3,6.5-3.3c-0.7,0.1-1.4,0.3-2.3,0.3
		c-2.1,0-3.1-1.1-3.1-2.8c0-2.2,1.6-4.6,3.5-4.6C853.4,414.2,854.7,417,854.7,420z M851,419.8c0.8,0,1.5-0.1,2.2-0.2
		c-0.1-1.7-1.1-3.5-2.2-3.5c-0.9,0-1.9,1.2-1.9,2.5C849.1,419.4,849.8,419.8,851,419.8z"/>
	<path class="st1" d="M863,421.5c0-1,0.2-2.1,0.4-2.7l1.5-0.5l0.2,0.1c-0.2,0.8-0.2,1.6-0.2,2.2c0,2.4,0.9,4,4.2,4
		c2,0,3.4-0.5,4.4-1.7c0.3-0.6,0.6-1.8,0.6-3.7v-13.1l1.7-0.4l0.2,0.1l0,13.2c0,5.4-2.5,7.5-7.2,7.5C865,426.5,863,424.4,863,421.5z
		"/>
	<path class="st1" d="M889.2,420.8c0,0.4-0.2,1.2-1.5,1.2H886c-0.8,2.3-3,4.1-7,4.2l-1-1.4l0.1-0.2c3-0.1,5.2-1.1,6.1-2.7h-0.7
		c-3,0-4.4-1.2-4.4-3.1c0-2.2,1.6-4.7,3.5-4.7c2.2,0,3.6,2.7,3.6,5.7v0.1h1.9C889,420.1,889.2,420.4,889.2,420.8z M884.8,420.1V420
		c0-2.1-1.1-3.8-2.2-3.8c-0.9,0-1.9,1-1.9,2.6c0,0.9,0.8,1.4,3.1,1.4H884.8z"/>
	<path class="st1" d="M896.8,416.8c0,2.3-0.4,3.6-1.5,4.4c-1.3,0.7-3.1,0.8-7.6,0.8l0.5-1.9c4.6,0,6.1-0.2,6.8-0.5
		c0.1-0.3,0.1-0.8,0.2-1.5c-0.7,0.2-1.6,0.3-2.5,0.3c-2.1,0-3.1-1.1-3.1-2.8c0-2.2,1.6-4.6,3.5-4.6
		C895.4,411,896.8,413.9,896.8,416.8z M891.8,408.4l-1.9-1.4l1.2-1.8l1.9,1.3L891.8,408.4z M893.1,416.6c0.8,0,1.5-0.1,2.2-0.2
		c-0.1-1.7-1.1-3.5-2.2-3.5c-0.9,0-1.9,1.2-1.9,2.5C891.2,416.2,891.8,416.6,893.1,416.6z M895.1,408.4l-1.9-1.4l1.2-1.8l1.9,1.3
		L895.1,408.4z"/>
	<path class="st1" d="M902.9,403.7c-1.2,0.1-2.7,0.3-4.6,0.3l-0.1-1.3c0.3,0,0.7,0,1.1,0c-0.3-0.4-0.4-0.9-0.4-1.4
		c0-1.2,0.7-1.9,2-1.9c0.5,0,1.1,0.1,1.7,0.3l-0.3,1.2c-0.5-0.1-0.8-0.2-1.1-0.2c-0.6,0-0.9,0.4-0.9,0.9c0,0.4,0.2,0.7,0.5,1
		c0.8,0,1.5-0.1,2.2-0.2L902.9,403.7z M901.5,405.6l0.1,0.1l0,16.1l-1.7,0.4l-0.1-0.1v-16L901.5,405.6z"/>
	<path class="st1" d="M924.2,420.8c0,0.7-0.6,1.2-1.5,1.2c-1.1,0-1.9-0.3-2.5-0.9c-0.6,0.8-1.2,1.2-1.9,1.2c-1.7,0-3.5-1.2-5.4-3.5
		c-0.3,0.3-0.6,0.7-0.8,1c-0.3,1.1,0,5.4,0.8,10.2l-1.6,0.8l-0.2-0.1c-0.6-4.2-0.9-7-0.9-8.4c0-2,0.4-3.1,1.6-4.5
		c1.6-1.9,3.8-3.4,5.2-3.4c1.3,0,2.1,0.8,3.5,3.7c0.9,1.8,1.3,2.1,2.8,2.1C923.9,420.1,924.2,420.3,924.2,420.8z M919.2,419.7
		c-0.1-0.1-0.1-0.2-0.2-0.3c-1.1-2.4-1.8-3.3-2.4-3.3c-0.6,0-1.6,0.6-2.6,1.4c1.4,1.8,2.9,2.9,3.9,2.9
		C918.4,420.4,918.8,420.2,919.2,419.7z"/>
	<path class="st1" d="M923.2,420.1h0.7c1.2,0,2.1-0.1,2.5-0.3c0.5-1.2-0.2-2.9-1-4.7l1.5-1.2h0.2c0.7,1.7,1.2,3.3,1.2,4.3
		c0,1-0.4,2.2-1.2,2.9c-0.6,0.6-1.6,0.8-3.8,0.8h-0.7L923.2,420.1z M923.2,409.9l1.2-1.8l1.9,1.3l-1.2,1.8L923.2,409.9z
		 M924.6,407.1l1.2-1.8l1.9,1.3l-1.2,1.9L924.6,407.1z M926.6,409.9l1.2-1.8l1.9,1.3l-1.2,1.8L926.6,409.9z"/>
</g>
<linearGradient id="SVGID_2_" gradientUnits="userSpaceOnUse" x1="505.46" y1="325.0948" x2="1024" y2="325.0948">
	<stop  offset="0.1199" style="stop-color:#FFFFFF"/>
	<stop  offset="0.9969" style="stop-color:#FFF2D5"/>
</linearGradient>
<rect x="505.5" y="286.6" class="st2" width="518.5" height="77"/>
<linearGradient id="SVGID_3_" gradientUnits="userSpaceOnUse" x1="505.46" y1="540.5991" x2="1024" y2="540.5991">
	<stop  offset="0.1199" style="stop-color:#FFFFFF"/>
	<stop  offset="0.9969" style="stop-color:#FFF2D5"/>
</linearGradient>
<rect x="505.5" y="471.6" class="st3" width="518.5" height="138"/>
<g>
	<g>
		<path class="st4" d="M808.6,336.4c0-2.7,1.5-5.3,3.6-7.9l2.3,1.3c-1,1.4-1.9,2.8-1.9,3.9c0,1.5,1.8,1.3,1.8,3.4
			c0,1.3-1,2.8-2.8,2.8C809.7,339.9,808.6,338.6,808.6,336.4z"/>
		<path class="st4" d="M839.5,336.7c0,1.7-0.6,3.1-2.4,3.1c-1.3,0-2.2-0.2-2.9-0.5c-1.4,3.6-5.5,6.2-10.8,7.1l-2.4-3.3l0.3-0.4
			c5.7-1,9-3.3,10.1-5.6c-0.8-1.8-1.7-3.8-2.7-5.7l3.2-3.7h0.4l1.5,4.4c1,2.8,1.8,3.2,4.2,3.2C839.1,335.2,839.5,335.9,839.5,336.7z
			"/>
		<path class="st4" d="M851.5,336.7c0,1.7-0.6,3.1-2.4,3.1s-4.2-0.6-5.6-1.7c-1.4,1.1-3.2,1.7-5.8,1.7h-0.7l1-4.5h0.6
			c1.4,0,2.4-0.1,2.8-0.5c0.4-0.9,0.8-2.7,1.2-5l4.6-1.1l0.4,0.3c-0.5,2.2-1,4.1-1.7,5.7c1,0.4,2.4,0.7,4.1,0.7
			C851.2,335.2,851.5,335.9,851.5,336.7z M842.7,342.3l3.8,2.6l-2.4,3.6l-3.9-2.7L842.7,342.3z"/>
		<path class="st4" d="M863.6,321.6l-7.6,3.8c5.8,3.9,6.9,6.1,6.9,8.1c0,3.6-2.7,6.2-10.1,6.2h-3.6l1-4.5h2.3c2.8,0,5.7-0.4,6.7-0.9
			c0-1.7-4.2-4.5-7.7-6.7l-0.2-0.3l1-5l12.5-6.4l0.3,0.2L863.6,321.6z"/>
		<path class="st4" d="M877,312.5c-1.8,0.2-4.2,0.4-7,0.5l-0.3-2.6c0.5,0,1.1,0,1.7,0c-0.5-0.6-0.8-1.5-0.8-2.3
			c0-1.8,1.2-3.1,3.2-3.1c0.8,0,1.7,0.2,2.7,0.6l-0.6,2.3c-0.6-0.2-1.2-0.3-1.5-0.3c-0.8,0-1.2,0.4-1.2,1.2c0,0.5,0.3,1,0.7,1.5
			c1.1-0.1,2.1-0.1,3-0.3L877,312.5z M875.3,314.8l0.4,0.2l-0.1,24.1l-4.1,0.9l-0.3-0.2v-23.9L875.3,314.8z"/>
		<path class="st4" d="M921,314.8l0.3,0.2v16.9c0,6-3,7.7-7.9,7.8h-0.3c0,0-0.1,0-0.1,0h-0.3c-1.3-0.1-3-0.5-4.1-2.1
			c-1.2,1.5-2.9,2-6.1,2.1h-0.2c0,0-0.1,0-0.1,0h-0.2c-2.4-0.1-4.3-0.8-5.4-2.4c-1.2,0.4-2.2,0.6-3.3,0.6c-4,0-6.4-1.9-6.4-4.6
			c0-3,3-6.3,8.6-8.2v-1.7l4.2-1.6l0.3,0.1v10.8c0,1.8,0.6,2.4,3.2,2.5c1,0,2-0.1,2.7-0.5c0.1-0.6,0.3-1.4,0.3-2.7v-12.3l4.2-1.1
			l0.3,0.2V332c0,2.7,0.8,3.1,3.3,3.2c1,0,2-0.1,2.7-0.5c0.1-0.6,0.3-1.4,0.3-2.7v-16.2L921,314.8z M895.4,333.4v-0.7v-3.4
			c-2.5,0.6-4.5,1.7-5,2.8c0.4,1,1.9,1.5,3.2,1.5C894.3,333.6,894.8,333.5,895.4,333.4z M902.8,313.4c0-0.5,0.1-1.5,0.3-2.1l2.4-0.1
			c-0.1,0.6-0.1,1.2-0.1,1.5c0,0.9,0.3,1.3,0.9,1.3c0.7,0,1-0.5,1-2.6l2.3-0.2c0,0.7,0,1.2,0,1.5c0,0.9,0.4,1.2,1,1.2
			c0.7,0,0.9-0.5,0.9-1.3c0-0.7-0.2-1.4-0.4-2.1l2.5-0.6c0.3,0.9,0.5,1.8,0.5,2.8c0,2.1-1.1,3.7-3.5,3.7c-0.9,0-1.7-0.4-2.1-0.9
			c-0.5,0.6-1.4,0.9-2.4,0.9C903.6,316.6,902.8,315.1,902.8,313.4z M909.9,309.2h-3.2v-4.6h3.2V309.2z M930.1,315l-0.1,24.1
			l-4.1,0.9l-0.3-0.2v-23.9l4.2-1.1L930.1,315z"/>
	</g>
</g>
<g>
	<g>
		<path class="st4" d="M696.4,523.6c0-1.3,0.3-2.8,0.6-4.1l3.7-1.3l0.4,0.2c-0.3,1.5-0.4,2.3-0.4,3.1c0,3.1,1.7,5.1,7.3,5.1
			c4.2,0,8.5-0.8,9.6-2.1c0-0.8-0.9-1.8-5.9-2.8l1.3-3.9c6.9,1.6,8.6,3.3,8.6,5.6c-0.2,4.8-6.4,7.7-14.4,7.7
			C699.8,531.2,696.4,527.9,696.4,523.6z"/>
		<path class="st4" d="M732.4,521.1c0,1.7-0.5,3.1-2.4,3.1c-2.9,0-4.9-1.3-6-3.9c-1.8,0.9-4.3,1.4-8.1,1.5l-3-3.7
			c3.9-0.1,8-0.7,9.6-1.4c0.2-0.7,0.3-1.8,0.3-2.7v-13.5l4.1-1.1l0.4,0.2V514c0,3.5,0.5,5.6,3.6,5.6
			C732.1,519.6,732.4,520.3,732.4,521.1z"/>
		<path class="st4" d="M747.3,519.1l-1.3,4.1c-2.8,0.5-7.2,0.9-16,0.9l1-4.5h2.6c-0.6-1.1-0.9-2.3-0.9-3.5c0-4.5,3.3-6.9,7.5-6.9
			c1.7,0,3.6,0.4,5.2,1.1l-0.5,3.8l-0.1,0.1c-1.2-0.4-2.6-0.7-3.7-0.7c-2.1,0-3.3,1-3.3,3c0,0.9,0.4,2.1,1.2,3.1
			c2.9-0.1,5.6-0.3,8.1-0.6L747.3,519.1z"/>
		<path class="st4" d="M756.1,502.6c-1.8,0.2-4.2,0.4-7,0.5l-0.3-2.6c0.5,0,1.1,0,1.7,0c-0.5-0.6-0.8-1.5-0.8-2.3
			c0-1.8,1.2-3.1,3.2-3.1c0.8,0,1.7,0.2,2.7,0.6l-0.6,2.3c-0.6-0.2-1.2-0.3-1.5-0.3c-0.8,0-1.2,0.4-1.2,1.2c0,0.5,0.3,1,0.7,1.5
			c1.1-0.1,2.1-0.1,3-0.3L756.1,502.6z M762.7,514.4c1.3,1.7,1.9,3.4,1.9,4.9c0,3.2-1.9,5.2-7.4,5.2h-5l0.3-4.4
			c2.4-1.3,4.6-2.8,6.2-5c-2.4-2.2-5.5-4.4-7.6-5.7l1.3-4.4l0.3-0.1c3,2.3,5.6,4.5,7.7,6.7c0.3-1,0.4-2.2,0.4-3.4
			c0-2.1-0.4-5-0.9-6.5l4-2l0.3,0.1c0.4,1.8,0.8,5,0.8,7.1C764.8,509.8,763.9,512.3,762.7,514.4z M760.6,517.1
			c-1.2,1.3-2.4,2.2-3.4,2.9h0.8c2.2,0,3.2-0.2,3.7-0.7C761.7,518.7,761.3,518,760.6,517.1z"/>
		<path class="st4" d="M769.4,524.5v-23.9l4.2-1.1l0.4,0.2l-0.1,24.1l-4.1,0.9L769.4,524.5z"/>
		<path class="st4" d="M810.8,523.5c-0.2,4.8-6.4,7.7-14.4,7.7c-7.5,0-10.9-3.3-10.9-7.6c0-1.3,0.3-2.8,0.6-4.1l3.7-1.3l0.4,0.2
			c-0.3,1.5-0.4,2.3-0.4,3.1c0,3.1,1.7,5.1,7.3,5.1c4.2,0,8.5-0.8,9.6-2.1c0-0.8-0.9-1.8-5.9-2.8l1.3-3.9
			C809.1,519.5,810.8,521.3,810.8,523.5z M798.5,533.8l3.7,2.5l-2.3,3.5l-3.5-2.5l-1.7,2.5l-3.7-2.6l2.3-3.4l3.6,2.4L798.5,533.8z"
			/>
		<path class="st4" d="M802.2,517.9c1.3-0.4,2.2-0.8,2.7-1.2c-0.3-1.8-1-3.4-2-5.3l3.6-2.9h0.5c1.2,2.8,2,5.1,2,6.7
			c0,2.2-0.8,3.6-3.3,4.9l-1.9-0.3L802.2,517.9z M804.7,534.6l2.4-3.5l3.8,2.6l-2.4,3.6L804.7,534.6z"/>
		<path class="st4" d="M811.8,527.4l0.3-0.4c4.5-1.4,7.7-3.5,7.7-4.6c-0.1-1.2-1.3-4-2.6-6.2l3.2-3.6h0.4c1.6,3,2.4,6.4,2.4,8.6
			c0,1.8-0.6,3.5-1.3,4.6c-1.3,1.9-3.9,3.9-7.9,4.9L811.8,527.4z"/>
		<path class="st4" d="M834.6,523.7c0-1.2,0.3-3.4,0.7-4.4l3.2-1.2l0.4,0.1c-0.2,0.9-0.3,2.2-0.3,3.4c0,3.4,1.8,5.1,5.6,5.1
			c2.7,0,5.1-0.9,6.2-2.5c0.4-1.8-0.3-4-2.1-7.8l3.9-2.8h0.2c1.1,2.4,1.9,5.8,1.9,7.8c0,5.9-4.4,9.8-11.1,9.8
			C837.9,531.2,834.6,528.3,834.6,523.7z M840.5,510.4l2.4-3.5l3.8,2.7l-2.4,3.6L840.5,510.4z"/>
		<path class="st4" d="M858.5,517.2v-16.5l4.1-1.1l0.4,0.2v17.1c0,2.4,1,3.2,3.6,3.2c1,0,1.4,0.5,1.4,1.4c0,1.8-0.7,3.1-2.4,3.1
			C860.9,524.5,858.5,522.3,858.5,517.2z"/>
		<path class="st4" d="M890.8,521.4c0,1.7-0.5,3.1-2.4,3.1c-5.8,0-7.9-1.4-9.3-4l-1.3,0.6c-5,2.5-8.2,3.3-12.2,3.3l1-4.5
			c3.6,0,5.7-0.4,9.9-1.9c1.2-0.4,2.1-0.7,2.8-1c-0.4-0.1-0.8-0.3-1.2-0.5c-2.9-1.3-4.5-1.8-6-1.8c-1.6,0-2.9,0.3-4.1,0.7l-0.2-0.1
			l1.6-4c0.8-0.4,2.1-0.8,3.3-0.8c1.2,0,2.7,0.4,5.5,1.7c3.8,1.7,6.1,2.3,8.6,2.3l-0.8,4c-1,0-1.9,0.1-3.1,0.5
			c1.2,0.7,3,0.9,6.5,0.9C890.5,520,890.8,520.7,890.8,521.4z"/>
		<path class="st4" d="M902.9,521.4c0,1.7-0.6,3.1-2.4,3.1s-4.2-0.6-5.6-1.7c-1.4,1.1-3.2,1.7-5.8,1.7h-0.7l1-4.5h0.6
			c1.4,0,2.4-0.1,2.8-0.5c0.4-0.9,0.8-2.7,1.2-5l4.6-1.1l0.4,0.3c-0.5,2.2-1,4.1-1.7,5.7c1,0.4,2.4,0.7,4.1,0.7
			C902.5,520,902.9,520.7,902.9,521.4z M894.1,527.1l3.8,2.6l-2.4,3.6l-3.9-2.7L894.1,527.1z"/>
		<path class="st4" d="M928.7,518.1c0,4.3-3.3,6.4-7.8,6.4c-2,0-3.5-0.4-4.8-1c-0.9,0.6-2,1-3.4,1c-2.3,0-4.3-0.8-5.5-1.5
			c-1.4,1.1-3.5,1.5-6.7,1.5l1-4.5c2.3,0,3.3-0.1,4-0.4c0.3-0.6,0.6-2.5,0.9-4l4.9-0.8l0.1,0.1c-0.6,1.8-1.1,3.3-1.6,4.5
			c1,0.3,2.4,0.6,3.6,0.6c0.6,0,1-0.1,1.3-0.3c0.3-0.4,0.7-2.4,1.1-4.1l4.5-0.8l0.1,0.1c-0.5,1.8-1,3.4-1.6,4.7
			c0.9,0.3,1.8,0.4,2.7,0.4c1.3,0,2.5-0.1,3.2-0.5c0.2-1.4-0.9-4-1.8-6l3.9-2.9l0.2,0C928,513.3,928.7,515.9,928.7,518.1z"/>
	</g>
</g>
<g>
	<path class="st1" d="M834.5,582.8c0-0.8,0.7-1.5,1.5-1.5c0.8,0,1.5,0.7,1.5,1.5c0,0.8-0.7,1.5-1.5,1.5
		C835.2,584.3,834.5,583.6,834.5,582.8z"/>
	<path class="st1" d="M857.1,580.2c0,1.2-0.4,2.4-1.5,3c-1.3,0.8-3.6,1.1-6.5,1.1h-1.6c-5.2,0-8.1-1.1-8.1-4.4c0-1,0.2-2.1,0.4-2.7
		l1.4-0.5l0.2,0.1c-0.2,0.8-0.2,1.6-0.2,2.2c0,2.9,2.4,3.5,6.9,3.5h1.7c2.4,0,4.7-0.3,5.7-0.7c0.2-1.3-0.3-2.5-1.2-4.5l1.7-1.2h0.2
		C856.7,577.7,857.1,579.2,857.1,580.2z M847.3,574.9l-1.9-1.4l1.2-1.8l1.9,1.3L847.3,574.9z M850.6,574.9l-1.9-1.4l1.2-1.8l1.9,1.3
		L850.6,574.9z"/>
	<path class="st1" d="M860.1,584.1v-16l1.8-0.5l0.1,0.1l0,16.1l-1.7,0.4L860.1,584.1z"/>
	<path class="st1" d="M873.3,582.8c0,0.4-0.2,1.2-1.4,1.2c-1,0-1.6-0.3-2-0.6c-0.7,2.2-3.3,4.2-7.2,4.9l-1-1.4l0.1-0.2
		c4.7-0.9,6.4-2.8,6.8-4.6c-0.4-1.1-1.1-2.6-1.8-4l1.4-1.5h0.2c0.6,1.7,1.2,3.1,1.4,3.7c0.6,1.6,1,1.9,2.5,1.9
		C873.1,582.2,873.3,582.4,873.3,582.8z"/>
	<path class="st1" d="M882.8,581.8c0,1.6-0.8,2.6-2.4,2.6c-1.2,0-3.1-0.6-4.8-1.8c-0.9,1.2-2,1.5-3.6,1.5l0.5-1.9
		c1.1,0,1.6-0.5,2.2-1.5c0.8-1.5,2-4.3,4.3-4.3S882.8,579,882.8,581.8z M878.7,578.2c-0.9,0-1.4,1.1-2.4,2.9
		c1.4,0.9,2.8,1.4,3.5,1.4c0.4,0,0.8-0.1,1-0.3C881.1,581,880,578.2,878.7,578.2z"/>
	<path class="st1" d="M908.6,580.2c0,1.2-0.4,2.4-1.5,3c-1.3,0.8-3.6,1.1-6.5,1.1H899c-5.2,0-8.1-1.1-8.1-4.4c0-1,0.2-2.1,0.4-2.7
		l1.4-0.5l0.2,0.1c-0.2,0.8-0.2,1.6-0.2,2.2c0,2.9,2.4,3.5,6.9,3.5h1.7c2.4,0,4.7-0.3,5.7-0.7c0.2-1.3-0.3-2.5-1.2-4.5l1.7-1.2h0.2
		C908.3,577.7,908.6,579.2,908.6,580.2z M898.8,574.9l-1.9-1.4l1.2-1.8l1.9,1.3L898.8,574.9z M900.2,572.2l-2-1.4l1.2-1.8l1.9,1.3
		L900.2,572.2z M900.2,573.6l1.2-1.8l1.9,1.3l-1.2,1.8L900.2,573.6z"/>
	<path class="st1" d="M924.2,582.8c0,0.4-0.2,1.2-1.5,1.2c-2.1,0-3.7-0.6-4.1-2.9c-1.8,2.2-4.4,3-7.2,3l-0.8-1.7l0.1-0.1
		c2.3,0,4.3-0.5,5.9-1.6c-1.3-2.5-3.4-4.6-6.1-7.1l0.7-1.9l0.2-0.1c3,2.7,5.4,6.1,6.4,8.1c0.3-0.3,0.5-0.6,0.7-1v-10.7l1.7-0.4
		l0.1,0.1v12.1c0,1.9,0.8,2.3,2.8,2.3C924,582.2,924.2,582.4,924.2,582.8z"/>
	<path class="st1" d="M923.2,582.2h0.7c1.2,0,2.1-0.1,2.5-0.3c0.5-1.2-0.2-2.9-1-4.7l1.5-1.2h0.2c0.7,1.7,1.2,3.3,1.2,4.3
		c0,1-0.4,2.2-1.2,2.9c-0.6,0.6-1.6,0.8-3.8,0.8h-0.7L923.2,582.2z M923.2,571.9l1.2-1.8l1.9,1.3l-1.2,1.8L923.2,571.9z
		 M924.6,569.2l1.2-1.8l1.9,1.3l-1.2,1.9L924.6,569.2z M926.6,571.9l1.2-1.8l1.9,1.3l-1.2,1.8L926.6,571.9z"/>
</g>
<path class="st5" d="M1024,43.8h-11.1v-6.6c0-1.7-1.1-3-2.6-3.5c1.4-1.1,2.3-2.9,2.3-4.8c0-3.4-2.8-6.2-6.2-6.2
	c-1,0-1.9,0.2-2.8,0.7c0.4-1.1,0.5-2.2,0.5-3.4c0-6.2-5-11.2-11.2-11.2c-6.2,0-11.2,5-11.2,11.2c0,1.2,0.2,2.4,0.5,3.4
	c-0.8-0.4-1.8-0.7-2.8-0.7c-3.4,0-6.2,2.8-6.2,6.2c0,1.9,0.9,3.6,2.3,4.8c-1.5,0.4-2.6,1.8-2.6,3.5v6.6h-10h-10v-6.6
	c0-1.7-1.1-3-2.6-3.5c1.4-1.1,2.3-2.9,2.3-4.8c0-3.4-2.8-6.2-6.2-6.2c-1,0-1.9,0.2-2.8,0.7c0.4-1.1,0.5-2.2,0.5-3.4
	c0-6.2-5-11.2-11.2-11.2c-6.2,0-11.2,5-11.2,11.2c0,1.2,0.2,2.4,0.5,3.4c-0.8-0.4-1.8-0.7-2.8-0.7c-3.4,0-6.2,2.8-6.2,6.2
	c0,1.9,0.9,3.6,2.3,4.8c-1.5,0.4-2.6,1.8-2.6,3.5v6.6h-10h-10v-6.6c0-1.7-1.1-3-2.6-3.5c1.4-1.1,2.3-2.9,2.3-4.8
	c0-3.4-2.8-6.2-6.2-6.2c-1,0-1.9,0.2-2.8,0.7c0.4-1.1,0.5-2.2,0.5-3.4c0-6.2-5-11.2-11.2-11.2c-6.2,0-11.2,5-11.2,11.2
	c0,1.2,0.2,2.4,0.5,3.4c-0.8-0.4-1.8-0.7-2.8-0.7c-3.4,0-6.2,2.8-6.2,6.2c0,1.9,0.9,3.6,2.3,4.8c-1.5,0.4-2.6,1.8-2.6,3.5v6.6h-10
	h-10v-6.6c0-1.7-1.1-3-2.6-3.5c1.4-1.1,2.3-2.9,2.3-4.8c0-3.4-2.8-6.2-6.2-6.2c-1,0-1.9,0.2-2.8,0.7c0.4-1.1,0.5-2.2,0.5-3.4
	c0-6.2-5-11.2-11.2-11.2c-6.2,0-11.2,5-11.2,11.2c0,1.2,0.2,2.4,0.5,3.4c-0.8-0.4-1.8-0.7-2.8-0.7c-3.4,0-6.2,2.8-6.2,6.2
	c0,1.9,0.9,3.6,2.3,4.8c-1.5,0.4-2.6,1.8-2.6,3.5v6.6h-10h-10v-6.6c0-1.7-1.1-3-2.6-3.5c1.4-1.1,2.3-2.9,2.3-4.8
	c0-3.4-2.8-6.2-6.2-6.2c-1,0-1.9,0.2-2.8,0.7c0.4-1.1,0.5-2.2,0.5-3.4c0-6.2-5-11.2-11.2-11.2c-6.2,0-11.2,5-11.2,11.2
	c0,1.2,0.2,2.4,0.5,3.4c-0.8-0.4-1.8-0.7-2.8-0.7c-3.4,0-6.2,2.8-6.2,6.2c0,1.9,0.9,3.6,2.3,4.8c-1.5,0.4-2.6,1.8-2.6,3.5v6.6h-10
	h-10v-6.6c0-1.7-1.1-3-2.6-3.5c1.4-1.1,2.3-2.9,2.3-4.8c0-3.4-2.8-6.2-6.2-6.2c-1,0-1.9,0.2-2.8,0.7c0.4-1.1,0.5-2.2,0.5-3.4
	c0-6.2-5-11.2-11.2-11.2c-6.2,0-11.2,5-11.2,11.2c0,1.2,0.2,2.4,0.5,3.4c-0.8-0.4-1.8-0.7-2.8-0.7c-3.4,0-6.2,2.8-6.2,6.2
	c0,1.9,0.9,3.6,2.3,4.8c-1.5,0.4-2.6,1.8-2.6,3.5v6.6h-10h-10v-6.6c0-1.7-1.1-3-2.6-3.5c1.4-1.1,2.3-2.9,2.3-4.8
	c0-3.4-2.8-6.2-6.2-6.2c-1,0-1.9,0.2-2.8,0.7c0.4-1.1,0.5-2.2,0.5-3.4c0-6.2-5-11.2-11.2-11.2c-6.2,0-11.2,5-11.2,11.2
	c0,1.2,0.2,2.4,0.5,3.4c-0.8-0.4-1.8-0.7-2.8-0.7c-3.4,0-6.2,2.8-6.2,6.2c0,1.9,0.9,3.6,2.3,4.8c-1.5,0.4-2.6,1.8-2.6,3.5v6.6h-10
	h-10v-6.6c0-1.7-1.1-3-2.6-3.5c1.4-1.1,2.3-2.9,2.3-4.8c0-3.4-2.8-6.2-6.2-6.2c-1,0-1.9,0.2-2.8,0.7c0.4-1.1,0.5-2.2,0.5-3.4
	c0-6.2-5-11.2-11.2-11.2c-6.2,0-11.2,5-11.2,11.2c0,1.2,0.2,2.4,0.5,3.4c-0.8-0.4-1.8-0.7-2.8-0.7c-3.4,0-6.2,2.8-6.2,6.2
	c0,1.9,0.9,3.6,2.3,4.8c-1.5,0.4-2.6,1.8-2.6,3.5v6.6h-10h-10v-6.6c0-1.7-1.1-3-2.6-3.5c1.4-1.1,2.3-2.9,2.3-4.8
	c0-3.4-2.8-6.2-6.2-6.2c-1,0-1.9,0.2-2.8,0.7c0.4-1.1,0.5-2.2,0.5-3.4c0-6.2-5-11.2-11.2-11.2c-6.2,0-11.2,5-11.2,11.2
	c0,1.2,0.2,2.4,0.5,3.4c-0.8-0.4-1.8-0.7-2.8-0.7c-3.4,0-6.2,2.8-6.2,6.2c0,1.9,0.9,3.6,2.3,4.8c-1.5,0.4-2.6,1.8-2.6,3.5v6.6h-10
	h-10v-6.6c0-1.7-1.1-3-2.6-3.5c1.4-1.1,2.3-2.9,2.3-4.8c0-3.4-2.8-6.2-6.2-6.2c-1,0-1.9,0.2-2.8,0.7c0.4-1.1,0.5-2.2,0.5-3.4
	c0-6.2-5-11.2-11.2-11.2c-6.2,0-11.2,5-11.2,11.2c0,1.2,0.2,2.4,0.5,3.4c-0.8-0.4-1.8-0.7-2.8-0.7c-3.4,0-6.2,2.8-6.2,6.2
	c0,1.9,0.9,3.6,2.3,4.8c-1.5,0.4-2.6,1.8-2.6,3.5v6.6h-10h-10v-6.6c0-1.7-1.1-3-2.6-3.5c1.4-1.1,2.3-2.9,2.3-4.8
	c0-3.4-2.8-6.2-6.2-6.2c-1,0-1.9,0.2-2.8,0.7c0.4-1.1,0.5-2.2,0.5-3.4c0-6.2-5-11.2-11.2-11.2c-6.2,0-11.2,5-11.2,11.2
	c0,1.2,0.2,2.4,0.5,3.4c-0.8-0.4-1.8-0.7-2.8-0.7c-3.4,0-6.2,2.8-6.2,6.2c0,1.9,0.9,3.6,2.3,4.8c-1.5,0.4-2.6,1.8-2.6,3.5v6.6h-10
	h-10v-6.6c0-1.7-1.1-3-2.6-3.5c1.4-1.1,2.3-2.9,2.3-4.8c0-3.4-2.8-6.2-6.2-6.2c-1,0-1.9,0.2-2.8,0.7c0.4-1.1,0.5-2.2,0.5-3.4
	c0-6.2-5-11.2-11.2-11.2c-6.2,0-11.2,5-11.2,11.2c0,1.2,0.2,2.4,0.5,3.4c-0.8-0.4-1.8-0.7-2.8-0.7c-3.4,0-6.2,2.8-6.2,6.2
	c0,1.9,0.9,3.6,2.3,4.8c-1.5,0.4-2.6,1.8-2.6,3.5v6.6h-10h-10v-6.6c0-1.7-1.1-3-2.6-3.5c1.4-1.1,2.3-2.9,2.3-4.8
	c0-3.4-2.8-6.2-6.2-6.2c-1,0-1.9,0.2-2.8,0.7c0.4-1.1,0.5-2.2,0.5-3.4c0-6.2-5-11.2-11.2-11.2c-6.2,0-11.2,5-11.2,11.2
	c0,1.2,0.2,2.4,0.5,3.4c-0.8-0.4-1.8-0.7-2.8-0.7c-3.4,0-6.2,2.8-6.2,6.2c0,1.9,0.9,3.6,2.3,4.8c-1.5,0.4-2.6,1.8-2.6,3.5v6.6h-10
	h-10v-6.6c0-1.7-1.1-3-2.6-3.5c1.4-1.1,2.3-2.9,2.3-4.8c0-3.4-2.8-6.2-6.2-6.2c-1,0-1.9,0.2-2.8,0.7c0.4-1.1,0.5-2.2,0.5-3.4
	c0-6.2-5-11.2-11.2-11.2c-6.2,0-11.2,5-11.2,11.2c0,1.2,0.2,2.4,0.5,3.4c-0.8-0.4-1.8-0.7-2.8-0.7c-3.4,0-6.2,2.8-6.2,6.2
	c0,1.9,0.9,3.6,2.3,4.8c-1.5,0.4-2.6,1.8-2.6,3.5v6.6h-10h-10v-6.6c0-1.7-1.1-3-2.6-3.5c1.4-1.1,2.3-2.9,2.3-4.8
	c0-3.4-2.8-6.2-6.2-6.2c-1,0-1.9,0.2-2.8,0.7c0.4-1.1,0.5-2.2,0.5-3.4c0-6.2-5-11.2-11.2-11.2c-6.2,0-11.2,5-11.2,11.2
	c0,1.2,0.2,2.4,0.5,3.4c-0.8-0.4-1.8-0.7-2.8-0.7c-3.4,0-6.2,2.8-6.2,6.2c0,1.9,0.9,3.6,2.3,4.8c-1.5,0.4-2.6,1.8-2.6,3.5v6.6h-10
	h-10v-6.6c0-1.7-1.1-3-2.6-3.5c1.4-1.1,2.3-2.9,2.3-4.8c0-3.4-2.8-6.2-6.2-6.2c-1,0-1.9,0.2-2.8,0.7c0.4-1.1,0.5-2.2,0.5-3.4
	c0-6.2-5-11.2-11.2-11.2c-6.2,0-11.2,5-11.2,11.2c0,1.2,0.2,2.4,0.5,3.4c-0.8-0.4-1.8-0.7-2.8-0.7c-3.4,0-6.2,2.8-6.2,6.2
	c0,1.9,0.9,3.6,2.3,4.8c-1.5,0.4-2.6,1.8-2.6,3.5v6.6h-10h-10v-6.6c0-1.7-1.1-3-2.6-3.5c1.4-1.1,2.3-2.9,2.3-4.8
	c0-3.4-2.8-6.2-6.2-6.2c-1,0-1.9,0.2-2.8,0.7c0.4-1.1,0.5-2.2,0.5-3.4c0-6.2-5-11.2-11.2-11.2c-6.2,0-11.2,5-11.2,11.2
	c0,1.2,0.2,2.4,0.5,3.4c-0.8-0.4-1.8-0.7-2.8-0.7c-3.4,0-6.2,2.8-6.2,6.2c0,1.9,0.9,3.6,2.3,4.8c-1.5,0.4-2.6,1.8-2.6,3.5v6.6H0V0
	h1024V43.8z"/>
<g id="Layer_x0020_1_26_">
	<path class="st6" d="M34.9,719.8l43.9-1.7c0.3,0,0.6,0,1,0c0.7,0.1,1.3,0.4,1.8,0.9c0.5,0.5,0.9,1,0.9,1.7c0,0.2,0,0.5,0,0.8
		l-4.6,20.6c-0.2,0.9-0.6,1.7-1.3,2.2c-0.6,0.5-1.4,0.9-2.4,0.9L39,744c-1,0-1.7-0.3-2.4-0.9l0,0c-0.6-0.6-1.1-1.4-1.3-2.2
		l-4.1-17.7c0-0.1,0-0.1,0-0.2c-0.1-0.8,0.3-1.5,0.9-2.1c0.6-0.5,1.4-0.8,2.3-1C34.6,719.9,34.7,719.8,34.9,719.8z M76.9,720.9
		l-42,1.5c-0.1,0-0.2,0-0.3,0c-0.6,0.1-1.1,0.3-1.5,0.7c-0.3,0.3-0.6,0.7-0.5,1.1c0,0,0,0.1,0,0.1l3.8,16.5c0.1,0.6,0.4,1.2,0.9,1.6
		c0.4,0.3,0.8,0.5,1.4,0.5l34,1.2c0.6,0,1-0.2,1.4-0.5c0.4-0.4,0.7-0.9,0.9-1.6l4.3-19.3c0-0.1,0-0.3,0-0.4c0-0.3-0.2-0.7-0.5-0.9
		c-0.3-0.3-0.7-0.5-1.1-0.5C77.2,720.9,77.1,720.9,76.9,720.9z"/>
	<path class="st6" d="M41.9,724.5l12.9-1.4c0.1,0,0.3,0,0.4,0c0.3,0.1,0.6,0.2,0.8,0.4c0.2,0.2,0.4,0.5,0.4,0.8c0,0.1,0,0.2,0,0.3
		l-2.1,9.6c-0.1,0.4-0.3,0.8-0.6,1c-0.3,0.3-0.6,0.4-1.1,0.4h-8.9c-0.4,0-0.8-0.2-1.1-0.4h0c-0.3-0.3-0.5-0.6-0.6-1l-1.9-8.2
		c0,0,0-0.1,0-0.1c-0.1-0.4,0.1-0.7,0.4-1c0.3-0.2,0.7-0.4,1-0.5C41.8,724.5,41.8,724.5,41.9,724.5z M53.9,724.4l-12,1.3
		c0,0-0.1,0-0.1,0c-0.3,0-0.5,0.2-0.7,0.3c-0.2,0.1-0.3,0.3-0.2,0.5c0,0,0,0,0,0l1.8,7.6c0.1,0.3,0.2,0.5,0.4,0.7
		c0.2,0.1,0.4,0.2,0.6,0.2h8.3c0.3,0,0.5-0.1,0.6-0.2c0.2-0.2,0.3-0.4,0.4-0.7l2-8.9c0-0.1,0-0.1,0-0.2c0-0.2-0.1-0.3-0.2-0.4
		c-0.1-0.1-0.3-0.2-0.5-0.2C54.1,724.4,54,724.4,53.9,724.4z"/>
	<g id="_1849662416_26_">
		<path class="st7" d="M60.4,736.7l0.4-0.7l-0.7-0.4l0.4-0.7L59,734l-0.9,1.5l0,0c0.3,0.1,0.5,0.3,0.7,0.4l-0.4,0.7l0.7,0.4
			l-0.8,1.5l0.7,0.4c-0.2,0.5-0.6,1.1-0.9,1.5l0,0c0.2,0.1,0.4,0.2,0.5,0.3c0.3,0.1,0.2,0.1,0,0.5c-0.2,0.4-0.4,0.8-0.7,1.1l0.7,0.4
			c0,0.2-0.7,1.2-0.8,1.5l5.9,3.4l0.9-1.5l0.8,0.4l1.3-2.2l0.7,0.4l3-5.2c-0.1-0.1-0.7-0.4-0.7-0.5c0-0.2,0.4-0.6,0.4-0.7
			c-0.1-0.1-0.5-0.4-0.7-0.4l-1.3,2.2l-0.7-0.4l1.7-3l-1.5-0.9l-1.3,2.2l-0.7-0.4l1.7-2.9c-0.1-0.1-1.3-0.8-1.5-0.9l-1.7,3l-0.7-0.4
			c0-0.1,0.1-0.1,0.1-0.2c1.2-2.1,2.5-4.3,3.7-6.5l-1.5-0.8l-4.7,8.1C60.9,737.1,60.4,736.7,60.4,736.7L60.4,736.7z"/>
		<path class="st8" d="M58.2,740.4c-0.1,0.1-0.1,0.2-0.2,0.3l-0.7,1.1c0.1,0.1,0.2,0.1,0.4,0.2c0.1,0.1,0.2,0.1,0.3,0.2
			c-0.4,0.8-0.8,1.5-1.2,2.2c0.6,0.4,1.2,0.7,1.8,1.1l3.7,2.2c0.6,0.4,1.3,0.7,1.9,1.1c0.1-0.2,0.1-0.3,0.3-0.5
			c0.1-0.2,0.4-0.6,0.5-0.9c0.1-0.1,0.1-0.1,0.2-0.3c0.1-0.2,0.2-0.4,0.3-0.6c0.1,0.2,0.5,0.3,0.7,0.4c0.4-0.7,0.8-1.4,1.3-2.2
			c0.2,0.1,0.4,0.2,0.6,0.3c0.1,0.1,0.1,0.1,0.2,0c0.2-0.3,0.3-0.6,0.5-0.9c0.3-0.6,0.7-1.1,1-1.7l1.4-2.5c-0.2-0.1-0.6-0.3-0.7-0.4
			l-3,5.2l-0.7-0.4l-1.3,2.2l-0.8-0.4l-0.9,1.5l-5.9-3.4c0.1-0.3,0.8-1.3,0.8-1.5l-0.7-0.4c0.2-0.4,0.4-0.8,0.7-1.1
			c0.2-0.4,0.2-0.3,0-0.5C58.6,740.6,58.4,740.5,58.2,740.4z"/>
		<path class="st8" d="M60.5,734.8l-0.4,0.7l0.7,0.4l-0.4,0.7l0.7,0.4l4.7-8.1l-0.7-0.4c0,0,0,0,0,0l0,0c0,0,0,0,0,0l-3.8,6.6
			C61,735,60.7,734.9,60.5,734.8z"/>
		<path class="st8" d="M67.3,729.9l-3.9,6.6l0.7,0.4l1.7-3c0.2,0,1.4,0.8,1.5,0.9c0.2,0.2,1.6,0.9,1.9,1.1c0,0,0.1,0-0.1-0.1
			l-1.5-0.8c-0.4-0.2-0.3-0.1,0.1-0.9l-1.1-0.6c-0.1-0.1-0.2-0.1-0.3-0.2l1.7-2.9c-0.2-0.1-0.3-0.2-0.6-0.4
			C67.4,729.9,67.4,729.9,67.3,729.9z"/>
		<path class="st8" d="M69.2,736.9l0.4-0.7c-0.1-0.1-0.2-0.2-0.4-0.2c-0.3-0.2-1.7-0.9-1.9-1.1l-1.7,2.9l0.7,0.4l1.3-2.2L69.2,736.9
			z"/>
		<path class="st8" d="M58.1,735.5c-0.1,0.1-0.1,0.1-0.2,0.3c-0.1,0.1-0.1,0.3-0.2,0.4l0.7,0.4c-0.1,0.2-0.7,1.3-0.8,1.5l0.7,0.4
			l-0.6,1.1c-0.1,0.2-0.1,0.2-0.2,0.4l0.7,0.4c0.3-0.4,0.7-1,0.9-1.5l-0.7-0.4l0.8-1.5l-0.7-0.4l0.4-0.7
			C58.6,735.7,58.4,735.5,58.1,735.5z"/>
		<path class="st8" d="M58.1,735.4L59,734l1.5,0.8l0.2-0.4c0.1-0.1,0.1-0.2,0.2-0.4l-2-1.1c-0.3-0.2-0.2-0.2-0.5,0.2l-0.9,1.6
			c-0.1,0.2-0.2,0.2,0,0.3C57.6,735.2,58,735.4,58.1,735.4z"/>
		<path class="st8" d="M70.2,738.5c0.1,0,0,0,0.1-0.1c0,0,0.1-0.1,0.1-0.1c0-0.2,0.2-0.4,0.3-0.6l-1.5-0.8l-1.7,3l0.7,0.4l1.3-2.2
			C69.7,738.1,70.1,738.3,70.2,738.5z"/>
		<path class="st8" d="M67.3,729.8c0.1-0.2,0.3-0.5,0.4-0.7l-1.5-0.8l-0.4,0.7L67.3,729.8z"/>
		<path class="st8" d="M70.2,738.5c0,0.2-0.4,0.6-0.4,0.7c0,0.1,0.6,0.4,0.7,0.5c0.2,0.1,0.5,0.3,0.7,0.4l-1.4,2.5l1.5-2.5l-0.7-0.4
			c0.1-0.1,0.1-0.2,0.2-0.4c0.1-0.1,0.2-0.3,0.2-0.4c-0.8-0.5-0.8-0.3-0.6-0.6c0,0-0.1,0.1-0.1,0.1
			C70.2,738.5,70.3,738.5,70.2,738.5z"/>
	</g>
	<path class="st6" d="M94.9,736.7h-2.5l2.1-7.2l-4.3,7.2h-2.6l-0.5-7.3l-1.8,7.3h-2.6l2.9-10.9h3.5l0.5,7.7l4.6-7.7h3.5L94.9,736.7z
		 M104.4,736.7h-5.6c-0.8,0-1.3-0.2-1.7-0.6c-0.4-0.4-0.4-1-0.2-1.8c0.3-0.9,0.7-1.6,1.3-2c0.6-0.4,1.5-0.6,2.6-0.6h2.5
		c0.1-0.4,0.1-0.7-0.1-0.8c-0.2-0.2-0.6-0.2-1.3-0.2h-3.6l0.5-2h4.3c1.1,0,1.9,0.3,2.3,0.8c0.4,0.5,0.5,1.3,0.2,2.3L104.4,736.7z
		 M102.4,734.7l0.3-1.2h-2.2c-0.4,0-0.7,0-0.9,0.1c-0.2,0.1-0.3,0.3-0.3,0.5c-0.1,0.2-0.1,0.3,0,0.4c0,0,0.1,0.1,0.2,0.1
		c0.1,0,0.3,0,0.5,0H102.4z M113.2,736.7h-2.4l1.3-4.9c0.1-0.5,0.2-0.8,0-1c-0.1-0.1-0.4-0.2-0.9-0.2h-1.4l-1.6,6.1h-2.4l2.2-8.1h4
		c1.2,0,2,0.2,2.4,0.7c0.4,0.5,0.5,1.2,0.2,2.3L113.2,736.7z M121.9,736.7h-2.4l1.3-4.9c0.1-0.5,0.1-0.8,0-0.9
		c-0.1-0.1-0.2-0.1-0.3-0.2c-0.1,0-0.3-0.1-0.6-0.1l-1.4,0l-1.6,6.1h-2.4l2.9-10.9h2.4l-0.8,2.8h1.6c1.2,0,2,0.2,2.4,0.7
		c0.4,0.5,0.5,1.2,0.2,2.3L121.9,736.7z M131.1,736.7h-5.6c-0.8,0-1.3-0.2-1.7-0.6c-0.4-0.4-0.4-1-0.2-1.8c0.3-0.9,0.7-1.6,1.3-2
		c0.6-0.4,1.5-0.6,2.6-0.6h2.5c0.1-0.4,0.1-0.7-0.1-0.8c-0.2-0.2-0.6-0.2-1.3-0.2h-3.6l0.5-2h4.3c1.1,0,1.9,0.3,2.3,0.8
		c0.4,0.5,0.5,1.3,0.2,2.3L131.1,736.7z M129.2,734.7l0.3-1.2h-2.2c-0.4,0-0.7,0-0.9,0.1c-0.2,0.1-0.3,0.3-0.3,0.5
		c-0.1,0.2,0,0.3,0,0.4c0,0,0.1,0.1,0.2,0.1c0.1,0,0.3,0,0.5,0H129.2z M135,736.7h-2.5l2.9-10.9h2.5L135,736.7z M140.6,736.7h-2.1
		l0.6-2.2h2.1L140.6,736.7z M148.4,736.7h-2.9c-0.4,0-0.7,0-1-0.1c-0.3,0-0.5-0.1-0.8-0.2c-0.4-0.1-0.8-0.4-1-0.8
		c-0.1-0.2-0.2-0.4-0.3-0.6c-0.1-0.2-0.2-0.5-0.2-0.7c0-0.3,0-0.5,0-0.8c0-0.3,0.1-0.6,0.2-0.9c0.2-0.6,0.4-1.2,0.8-1.7
		c0.3-0.5,0.7-1,1.3-1.4c0.4-0.3,0.9-0.6,1.4-0.7c0.5-0.2,1.1-0.2,1.9-0.2h2.9l-0.5,2h-2.3c-0.5,0-0.9,0-1.2,0.1
		c-0.3,0.1-0.6,0.2-0.8,0.4c-0.4,0.3-0.7,0.8-0.9,1.6c-0.1,0.4-0.1,0.8-0.1,1.1c0.1,0.3,0.1,0.6,0.4,0.7l0.4,0.2c0.1,0,0.3,0,0.4,0
		c0.1,0,0.4,0,0.6,0h2.3L148.4,736.7z M158.5,732.6c-0.3,1.3-1,2.3-2,3.1c-1,0.8-2.1,1.1-3.4,1.1c-1.3,0-2.2-0.4-2.8-1.1
		c-0.6-0.8-0.7-1.8-0.3-3.1c0.3-1.3,1-2.3,2-3c1-0.8,2.1-1.1,3.4-1.1c1.3,0,2.2,0.4,2.8,1.1C158.7,730.3,158.8,731.3,158.5,732.6z
		 M156,732.6c0.2-0.7,0.1-1.2-0.1-1.6c-0.2-0.4-0.6-0.6-1.1-0.6c-0.5,0-1,0.2-1.4,0.6c-0.4,0.4-0.7,0.9-0.9,1.6
		c-0.1,0.4-0.1,0.7-0.1,0.9c0,0.3,0.1,0.5,0.2,0.7c0.2,0.4,0.6,0.6,1.1,0.6c0.6,0,1-0.2,1.4-0.6C155.5,733.8,155.8,733.3,156,732.6z
		 M169.6,736.7h-2.4l1.3-4.9c0.1-0.5,0.2-0.8,0.1-1c-0.1-0.2-0.4-0.2-0.9-0.2l-0.9,0l-1.6,6.1h-2.4l1.6-6.1h-2l-1.6,6.1h-2.4
		l2.2-8.1h8c1.2,0,2,0.2,2.4,0.7c0.4,0.5,0.5,1.2,0.2,2.3L169.6,736.7z"/>
	<path class="st6" d="M27.9,728.6l21.2-2.2c0.2,0,0.5,0,0.7,0c0.5,0.1,1,0.3,1.4,0.7c0.4,0.3,0.6,0.8,0.7,1.3c0,0.2,0,0.4,0,0.6
		l-3.7,9.6c-0.1,0.7-0.5,1.3-1,1.7c-0.5,0.4-1.1,0.7-1.8,0.7H30.8c-0.7,0-1.3-0.3-1.8-0.7h0c-0.5-0.4-0.8-1.1-1-1.7l-2.9-7.4
		c0-0.1,0-0.1,0-0.2c-0.1-0.6,0.2-1.2,0.7-1.6c0.5-0.4,1.1-0.6,1.7-0.8C27.7,728.6,27.8,728.6,27.9,728.6z M47.6,728.5l-19.8,2.1
		c-0.1,0-0.2,0-0.2,0c-0.4,0.1-0.9,0.3-1.2,0.5c-0.3,0.2-0.4,0.5-0.4,0.8c0,0,0,0.1,0,0.1l2.7,6.5c0.1,0.5,0.3,0.9,0.7,1.2
		c0.3,0.2,0.6,0.4,1,0.4h13.6c0.4,0,0.8-0.1,1-0.4c0.3-0.3,0.5-0.7,0.7-1.2l3.4-8.6c0-0.1,0-0.2,0-0.3c0-0.3-0.2-0.5-0.4-0.7
		c-0.2-0.2-0.5-0.4-0.8-0.4C47.9,728.5,47.7,728.5,47.6,728.5z"/>
	<path class="st6" d="M87.6,722.3l-0.5,1.7h-0.6l1.2-4.5H89c0.3,0,0.5,0,0.7,0.1c0.2,0.1,0.3,0.2,0.4,0.3c0.1,0.1,0.2,0.3,0.2,0.4
		c0,0.2,0,0.4-0.1,0.6c-0.1,0.2-0.1,0.4-0.3,0.6c-0.1,0.2-0.3,0.3-0.4,0.4c-0.2,0.1-0.4,0.2-0.6,0.3c-0.2,0.1-0.5,0.1-0.7,0.1H87.6z
		 M87.7,721.8h0.7c0.2,0,0.3,0,0.5-0.1c0.1,0,0.3-0.1,0.4-0.2c0.1-0.1,0.2-0.2,0.3-0.3c0.1-0.1,0.1-0.2,0.2-0.4
		c0.1-0.3,0.1-0.5-0.1-0.7c-0.1-0.2-0.4-0.2-0.7-0.2h-0.7L87.7,721.8z"/>
	<path id="_x31__26_" class="st6" d="M92.2,720.8c0.2,0,0.4,0,0.6,0.1c0.2,0.1,0.3,0.2,0.4,0.3c0.1,0.1,0.1,0.3,0.2,0.5
		c0,0.2,0,0.4-0.1,0.7c-0.1,0.3-0.2,0.5-0.3,0.7c-0.1,0.2-0.3,0.4-0.4,0.5c-0.2,0.1-0.4,0.3-0.6,0.3c-0.2,0.1-0.4,0.1-0.7,0.1
		c-0.2,0-0.4,0-0.6-0.1c-0.2-0.1-0.3-0.2-0.4-0.3c-0.1-0.1-0.1-0.3-0.2-0.5c0-0.2,0-0.4,0.1-0.7c0.1-0.3,0.2-0.5,0.3-0.7
		c0.1-0.2,0.3-0.4,0.4-0.5c0.2-0.1,0.4-0.3,0.6-0.3C91.8,720.8,92,720.8,92.2,720.8z M91.5,723.6c0.3,0,0.6-0.1,0.8-0.3
		c0.2-0.2,0.4-0.5,0.5-0.9c0.1-0.4,0.1-0.7,0-0.9c-0.1-0.2-0.3-0.3-0.6-0.3c-0.2,0-0.3,0-0.4,0.1c-0.1,0.1-0.3,0.1-0.4,0.2
		c-0.1,0.1-0.2,0.2-0.3,0.4c-0.1,0.1-0.1,0.3-0.2,0.5c0,0.2-0.1,0.4-0.1,0.5c0,0.1,0,0.3,0.1,0.4c0.1,0.1,0.1,0.2,0.2,0.2
		C91.2,723.6,91.3,723.6,91.5,723.6z"/>
	<path id="_x32__26_" class="st6" d="M94,720.8h0.4c0,0,0.1,0,0.1,0c0,0,0,0,0,0.1l0.1,2c0,0.1,0,0.1,0,0.2c0,0.1,0,0.1,0,0.2
		c0-0.1,0.1-0.1,0.1-0.2c0-0.1,0.1-0.1,0.1-0.2l1.2-2.1c0,0,0-0.1,0.1-0.1c0,0,0.1,0,0.1,0h0.2c0,0,0.1,0,0.1,0c0,0,0,0,0,0.1
		l0.1,2.1c0,0.1,0,0.1,0,0.2c0,0.1,0,0.1,0,0.2c0-0.1,0.1-0.1,0.1-0.2c0-0.1,0.1-0.1,0.1-0.2l1.2-2c0,0,0-0.1,0.1-0.1
		c0,0,0.1,0,0.1,0h0.4l-1.9,3.2h-0.4c-0.1,0-0.1,0-0.1-0.1l-0.1-2.2c0,0,0-0.1,0-0.1c0-0.1,0-0.1,0-0.1c0,0,0,0.1-0.1,0.1
		c0,0,0,0.1-0.1,0.1l-1.3,2.2c0,0.1-0.1,0.1-0.2,0.1h-0.4L94,720.8z"/>
	<path id="_x33__26_" class="st6" d="M100.5,720.7c0.2,0,0.4,0,0.5,0.1c0.1,0.1,0.3,0.2,0.3,0.3c0.1,0.1,0.1,0.3,0.2,0.4
		c0,0.2,0,0.4-0.1,0.6c0,0.1,0,0.1-0.1,0.2c0,0-0.1,0-0.1,0h-2.1c-0.1,0.2-0.1,0.4-0.1,0.5c0,0.1,0,0.3,0.1,0.4
		c0.1,0.1,0.1,0.2,0.3,0.2c0.1,0,0.2,0.1,0.4,0.1c0.1,0,0.3,0,0.4,0c0.1,0,0.2-0.1,0.3-0.1c0.1,0,0.2-0.1,0.2-0.1
		c0.1,0,0.1-0.1,0.1-0.1c0,0,0.1,0,0.1,0.1l0.1,0.2c-0.1,0.1-0.2,0.2-0.3,0.2c-0.1,0.1-0.2,0.1-0.3,0.2c-0.1,0-0.2,0.1-0.4,0.1
		c-0.1,0-0.2,0-0.4,0c-0.2,0-0.4,0-0.6-0.1c-0.2-0.1-0.3-0.2-0.4-0.3c-0.1-0.1-0.2-0.3-0.2-0.5c0-0.2,0-0.5,0.1-0.7
		c0.1-0.2,0.1-0.4,0.3-0.6c0.1-0.2,0.3-0.4,0.4-0.5c0.2-0.1,0.4-0.3,0.6-0.3C100.1,720.8,100.3,720.7,100.5,720.7z M100.4,721.2
		c-0.3,0-0.5,0.1-0.7,0.2c-0.2,0.2-0.4,0.4-0.5,0.6h1.7c0-0.1,0.1-0.3,0-0.4c0-0.1,0-0.2-0.1-0.3c0-0.1-0.1-0.1-0.2-0.2
		C100.6,721.2,100.5,721.2,100.4,721.2z"/>
	<path id="_x34__26_" class="st6" d="M101.7,724l0.9-3.2h0.3c0.1,0,0.1,0,0.1,0c0,0,0,0.1,0,0.1l-0.1,0.5c0.2-0.2,0.4-0.4,0.5-0.5
		c0.2-0.1,0.4-0.2,0.6-0.2c0.1,0,0.2,0,0.2,0c0.1,0,0.1,0,0.2,0.1l-0.2,0.4c0,0.1-0.1,0.1-0.1,0.1c0,0-0.1,0-0.1,0
		c-0.1,0-0.1,0-0.2,0c-0.2,0-0.4,0.1-0.5,0.2c-0.2,0.1-0.3,0.3-0.5,0.5l-0.5,2H101.7z"/>
	<path id="_x35__26_" class="st6" d="M106.3,720.7c0.2,0,0.4,0,0.5,0.1c0.1,0.1,0.3,0.2,0.3,0.3c0.1,0.1,0.1,0.3,0.2,0.4
		c0,0.2,0,0.4-0.1,0.6c0,0.1,0,0.1-0.1,0.2c0,0-0.1,0-0.1,0H105c-0.1,0.2-0.1,0.4-0.1,0.5c0,0.1,0,0.3,0.1,0.4
		c0.1,0.1,0.1,0.2,0.3,0.2c0.1,0,0.2,0.1,0.4,0.1c0.1,0,0.3,0,0.4,0c0.1,0,0.2-0.1,0.3-0.1c0.1,0,0.2-0.1,0.2-0.1
		c0.1,0,0.1-0.1,0.1-0.1c0,0,0.1,0,0.1,0.1l0.1,0.2c-0.1,0.1-0.2,0.2-0.3,0.2c-0.1,0.1-0.2,0.1-0.3,0.2c-0.1,0-0.2,0.1-0.4,0.1
		c-0.1,0-0.2,0-0.4,0c-0.2,0-0.4,0-0.6-0.1c-0.2-0.1-0.3-0.2-0.4-0.3c-0.1-0.1-0.2-0.3-0.2-0.5c0-0.2,0-0.5,0.1-0.7
		c0.1-0.2,0.2-0.4,0.3-0.6c0.1-0.2,0.3-0.4,0.4-0.5c0.2-0.1,0.4-0.3,0.6-0.3C105.9,720.8,106.1,720.7,106.3,720.7z M106.2,721.2
		c-0.3,0-0.5,0.1-0.7,0.2c-0.2,0.2-0.4,0.4-0.5,0.6h1.7c0-0.1,0-0.3,0-0.4c0-0.1,0-0.2-0.1-0.3c0-0.1-0.1-0.1-0.2-0.2
		C106.5,721.2,106.4,721.2,106.2,721.2z"/>
	<path id="_x36__26_" class="st6" d="M109.7,724c-0.1,0-0.1,0-0.1-0.1l0.1-0.4c-0.2,0.2-0.4,0.3-0.6,0.4c-0.2,0.1-0.4,0.1-0.6,0.1
		c-0.2,0-0.3,0-0.5-0.1c-0.1-0.1-0.2-0.2-0.3-0.3c-0.1-0.1-0.1-0.3-0.1-0.5c0-0.2,0-0.4,0.1-0.7c0.1-0.2,0.2-0.5,0.3-0.7
		c0.1-0.2,0.3-0.4,0.4-0.5c0.2-0.2,0.3-0.3,0.5-0.4c0.2-0.1,0.4-0.1,0.6-0.1c0.2,0,0.4,0,0.5,0.1c0.1,0.1,0.2,0.2,0.3,0.3l0.5-1.8
		h0.6l-1.2,4.6H109.7z M108.8,723.6c0.2,0,0.4,0,0.5-0.1c0.2-0.1,0.3-0.2,0.5-0.4l0.4-1.5c-0.1-0.1-0.2-0.2-0.3-0.3
		c-0.1-0.1-0.2-0.1-0.4-0.1c-0.3,0-0.6,0.1-0.8,0.3c-0.2,0.2-0.4,0.5-0.5,0.9c-0.1,0.2-0.1,0.4-0.1,0.5c0,0.1,0,0.3,0.1,0.4
		c0,0.1,0.1,0.2,0.2,0.2C108.5,723.5,108.6,723.6,108.8,723.6z"/>
	<path id="_x37__26_" class="st6" d="M112.2,724l1.2-4.6h0.6l-0.5,1.9c0.2-0.2,0.4-0.3,0.6-0.4c0.2-0.1,0.4-0.1,0.6-0.1
		c0.2,0,0.3,0,0.5,0.1c0.1,0.1,0.2,0.2,0.3,0.3c0.1,0.1,0.1,0.3,0.1,0.5c0,0.2,0,0.4-0.1,0.7c-0.1,0.2-0.2,0.5-0.3,0.7
		c-0.1,0.2-0.3,0.4-0.4,0.5c-0.2,0.1-0.3,0.3-0.5,0.3c-0.2,0.1-0.4,0.1-0.6,0.1c-0.2,0-0.4,0-0.5-0.1c-0.1-0.1-0.2-0.2-0.3-0.3
		l-0.1,0.3c0,0.1-0.1,0.1-0.2,0.1H112.2z M114.4,721.2c-0.2,0-0.4,0-0.5,0.1c-0.2,0.1-0.3,0.2-0.5,0.4l-0.4,1.5
		c0.1,0.1,0.1,0.2,0.3,0.3c0.1,0.1,0.2,0.1,0.4,0.1c0.3,0,0.6-0.1,0.8-0.3c0.2-0.2,0.4-0.5,0.5-0.9c0.1-0.2,0.1-0.4,0.1-0.5
		c0-0.1,0-0.3-0.1-0.4c0-0.1-0.1-0.2-0.2-0.2C114.6,721.2,114.5,721.2,114.4,721.2z"/>
	<path id="_x38__26_" class="st6" d="M116.3,724.9c0,0-0.1,0.1-0.1,0.1c0,0-0.1,0-0.1,0h-0.4l0.9-1.2l-0.5-3h0.5c0,0,0.1,0,0.1,0
		c0,0,0,0,0,0.1l0.3,2c0,0,0,0.1,0,0.1c0,0,0,0.1,0,0.1c0,0,0.1-0.1,0.1-0.1c0,0,0.1-0.1,0.1-0.1l1.4-2c0,0,0.1-0.1,0.1-0.1
		c0,0,0.1,0,0.1,0h0.4L116.3,724.9z"/>
	<path id="_x39__26_" class="st6" d="M118.9,723.6c0-0.1,0-0.1,0.1-0.2c0-0.1,0.1-0.1,0.1-0.1c0,0,0.1-0.1,0.1-0.1
		c0.1,0,0.1,0,0.2,0c0.1,0,0.1,0,0.1,0c0,0,0.1,0,0.1,0.1c0,0,0,0.1,0.1,0.1c0,0,0,0.1,0,0.2c0,0.1,0,0.1-0.1,0.2
		c0,0-0.1,0.1-0.1,0.1c0,0-0.1,0.1-0.1,0.1c-0.1,0-0.1,0-0.2,0c-0.1,0-0.1,0-0.1,0c0,0-0.1,0-0.1-0.1c0,0,0-0.1,0-0.1
		C118.9,723.7,118.9,723.7,118.9,723.6z M119.5,721.3c0-0.1,0-0.1,0.1-0.2c0,0,0.1-0.1,0.1-0.1c0,0,0.1-0.1,0.1-0.1
		c0.1,0,0.1,0,0.2,0c0.1,0,0.1,0,0.1,0c0,0,0.1,0,0.1,0.1c0,0,0,0.1,0.1,0.1c0,0,0,0.1,0,0.2c0,0.1,0,0.1-0.1,0.2
		c0,0-0.1,0.1-0.1,0.1c0,0-0.1,0.1-0.1,0.1c-0.1,0-0.1,0-0.2,0c-0.1,0-0.1,0-0.1,0c0,0-0.1,0-0.1-0.1c0,0,0-0.1,0-0.1
		C119.5,721.4,119.5,721.3,119.5,721.3z"/>
	<path class="st6" d="M126,739.1l-0.1,0.5h-2.3l-0.4,1.6h1.8l-0.1,0.5H123l-0.4,1.6h2.3l-0.1,0.5h-2.9l1.3-4.8H126z M126,741.6h1.6
		l-0.1,0.5h-1.6L126,741.6z M128.7,743.3h2.1l-0.1,0.5h-2.7l1.3-4.8h0.6L128.7,743.3z M133.4,740.4c0.2,0,0.4,0,0.5,0.1
		c0.2,0.1,0.3,0.2,0.4,0.3c0.1,0.1,0.1,0.3,0.2,0.5c0,0.2,0,0.4-0.1,0.6c0,0.1-0.1,0.2-0.1,0.2c0,0-0.1,0-0.1,0h-2.2
		c-0.1,0.2-0.1,0.4-0.1,0.6c0,0.2,0,0.3,0.1,0.4c0.1,0.1,0.2,0.2,0.3,0.2c0.1,0.1,0.3,0.1,0.4,0.1c0.1,0,0.3,0,0.4-0.1
		c0.1,0,0.2-0.1,0.3-0.1c0.1,0,0.2-0.1,0.2-0.1c0.1,0,0.1-0.1,0.1-0.1c0,0,0.1,0,0.1,0.1l0.1,0.2c-0.1,0.1-0.2,0.2-0.3,0.2
		c-0.1,0.1-0.2,0.1-0.4,0.2c-0.1,0-0.3,0.1-0.4,0.1c-0.1,0-0.3,0-0.4,0c-0.2,0-0.4,0-0.6-0.1c-0.2-0.1-0.3-0.2-0.4-0.3
		c-0.1-0.2-0.2-0.3-0.2-0.6c0-0.2,0-0.5,0.1-0.8c0.1-0.2,0.2-0.5,0.3-0.7c0.1-0.2,0.3-0.4,0.5-0.5c0.2-0.1,0.4-0.3,0.6-0.4
		C132.9,740.4,133.1,740.4,133.4,740.4z M133.3,740.8c-0.3,0-0.5,0.1-0.7,0.2c-0.2,0.2-0.4,0.4-0.5,0.7h1.8c0-0.1,0.1-0.3,0-0.4
		c0-0.1,0-0.2-0.1-0.3c-0.1-0.1-0.1-0.1-0.2-0.2C133.5,740.9,133.4,740.8,133.3,740.8z M137.1,743.8h-0.3c-0.1,0-0.1,0-0.1,0
		c0,0,0-0.1,0-0.1l0-0.3c-0.1,0.1-0.2,0.2-0.3,0.2c-0.1,0.1-0.2,0.1-0.3,0.2c-0.1,0-0.2,0.1-0.3,0.1c-0.1,0-0.2,0-0.4,0
		c-0.1,0-0.2,0-0.4-0.1c-0.1,0-0.2-0.1-0.3-0.2c-0.1-0.1-0.1-0.2-0.1-0.3c0-0.1,0-0.2,0-0.4c0-0.1,0.1-0.3,0.2-0.4
		c0.1-0.1,0.3-0.2,0.4-0.3c0.2-0.1,0.4-0.2,0.7-0.2c0.3-0.1,0.6-0.1,1-0.1l0.1-0.3c0.1-0.3,0.1-0.5,0-0.6c-0.1-0.1-0.2-0.2-0.4-0.2
		c-0.1,0-0.3,0-0.4,0.1c-0.1,0-0.2,0.1-0.3,0.1c-0.1,0-0.2,0.1-0.2,0.1c-0.1,0-0.1,0.1-0.2,0.1c0,0-0.1,0-0.1,0c0,0,0,0-0.1-0.1
		l-0.1-0.2c0.2-0.2,0.5-0.3,0.7-0.4c0.2-0.1,0.5-0.1,0.8-0.1c0.2,0,0.3,0,0.5,0.1c0.1,0.1,0.2,0.1,0.3,0.3c0.1,0.1,0.1,0.2,0.1,0.4
		c0,0.2,0,0.3-0.1,0.5L137.1,743.8z M135.6,743.5c0.1,0,0.2,0,0.3,0s0.2-0.1,0.3-0.1c0.1,0,0.2-0.1,0.3-0.1c0.1-0.1,0.2-0.1,0.3-0.2
		l0.2-0.7c-0.3,0-0.5,0-0.7,0.1c-0.2,0-0.4,0.1-0.5,0.1c-0.1,0.1-0.2,0.1-0.3,0.2c-0.1,0.1-0.1,0.2-0.1,0.3c0,0.1,0,0.2,0,0.2
		c0,0.1,0,0.1,0.1,0.2c0,0,0.1,0.1,0.1,0.1C135.5,743.4,135.6,743.5,135.6,743.5z M138,743.8l0.9-3.4h0.3c0.1,0,0.1,0,0.1,0
		c0,0,0,0.1,0,0.1l-0.1,0.6c0.2-0.2,0.4-0.4,0.6-0.6c0.2-0.1,0.4-0.2,0.6-0.2c0.1,0,0.2,0,0.2,0c0.1,0,0.1,0.1,0.2,0.1l-0.2,0.4
		c0,0.1-0.1,0.1-0.1,0.1c0,0-0.1,0-0.1,0c-0.1,0-0.1,0-0.3,0c-0.2,0-0.4,0.1-0.6,0.2c-0.2,0.1-0.3,0.3-0.5,0.5l-0.6,2.1H138z
		 M140.7,743.8l0.9-3.4h0.4c0.1,0,0.1,0,0.1,0.1l-0.1,0.4c0.2-0.2,0.4-0.3,0.6-0.4c0.2-0.1,0.4-0.2,0.7-0.2c0.2,0,0.3,0,0.5,0.1
		c0.1,0.1,0.2,0.1,0.3,0.3c0.1,0.1,0.1,0.2,0.1,0.4c0,0.2,0,0.3-0.1,0.5l-0.6,2.1h-0.6l0.6-2.1c0.1-0.3,0.1-0.5,0-0.6
		c-0.1-0.1-0.2-0.2-0.5-0.2c-0.2,0-0.3,0-0.5,0.1c-0.2,0.1-0.3,0.2-0.5,0.3l-0.7,2.5H140.7z M145.9,740.5l-0.9,3.4h-0.6l0.9-3.4
		H145.9z M146.3,739.4c0,0.1,0,0.1-0.1,0.2c0,0-0.1,0.1-0.1,0.1c0,0-0.1,0.1-0.2,0.1c-0.1,0-0.1,0-0.2,0c-0.1,0-0.1,0-0.2,0
		c0,0-0.1-0.1-0.1-0.1c0,0,0-0.1-0.1-0.1c0,0,0-0.1,0-0.2c0-0.1,0-0.1,0.1-0.2c0-0.1,0.1-0.1,0.1-0.1c0,0,0.1-0.1,0.2-0.1
		c0.1,0,0.1,0,0.2,0c0.1,0,0.1,0,0.2,0c0,0,0.1,0.1,0.1,0.1c0,0,0,0.1,0.1,0.1C146.3,739.3,146.3,739.3,146.3,739.4z M146,743.8
		l0.9-3.4h0.4c0.1,0,0.1,0,0.1,0.1l-0.1,0.4c0.2-0.2,0.4-0.3,0.6-0.4c0.2-0.1,0.4-0.2,0.7-0.2c0.2,0,0.3,0,0.5,0.1
		c0.1,0.1,0.2,0.1,0.3,0.3c0.1,0.1,0.1,0.2,0.1,0.4c0,0.2,0,0.3-0.1,0.5l-0.6,2.1h-0.6l0.6-2.1c0.1-0.3,0.1-0.5,0-0.6
		c-0.1-0.1-0.2-0.2-0.5-0.2c-0.2,0-0.3,0-0.5,0.1c-0.2,0.1-0.3,0.2-0.5,0.3l-0.7,2.5H146z M151.8,740.4c0.1,0,0.3,0,0.4,0
		c0.1,0,0.2,0.1,0.3,0.1h0.9l-0.1,0.2c0,0.1-0.1,0.1-0.2,0.1l-0.4,0.1c0,0.1,0,0.3,0,0.5c0,0.2-0.1,0.3-0.2,0.4
		c-0.1,0.1-0.2,0.2-0.4,0.3c-0.1,0.1-0.3,0.2-0.5,0.2c-0.2,0-0.3,0.1-0.5,0.1c-0.2,0-0.3,0-0.4-0.1c-0.1,0-0.1,0.1-0.2,0.1
		c-0.1,0.1-0.1,0.1-0.1,0.2c0,0.1,0,0.1,0,0.2s0.1,0.1,0.2,0.1c0.1,0,0.2,0,0.4,0c0.1,0,0.3,0,0.4,0c0.1,0,0.3,0,0.4,0
		c0.1,0,0.2,0.1,0.3,0.1c0.1,0.1,0.2,0.1,0.2,0.2c0,0.1,0,0.2,0,0.4c0,0.1-0.1,0.3-0.2,0.4c-0.1,0.1-0.2,0.3-0.4,0.4
		c-0.2,0.1-0.3,0.2-0.6,0.3c-0.2,0.1-0.4,0.1-0.7,0.1c-0.2,0-0.5,0-0.6-0.1c-0.2,0-0.3-0.1-0.4-0.2c-0.1-0.1-0.2-0.2-0.2-0.3
		c0-0.1,0-0.2,0-0.3c0-0.2,0.1-0.3,0.3-0.4c0.1-0.1,0.3-0.2,0.5-0.3c-0.1,0-0.1-0.1-0.2-0.2c0-0.1,0-0.2,0-0.3c0,0,0-0.1,0.1-0.2
		c0-0.1,0.1-0.1,0.1-0.2c0-0.1,0.1-0.1,0.2-0.1c0.1,0,0.1-0.1,0.2-0.1c-0.1-0.1-0.2-0.2-0.3-0.4c-0.1-0.2-0.1-0.3,0-0.5
		c0-0.2,0.1-0.3,0.2-0.4c0.1-0.1,0.2-0.3,0.4-0.3c0.1-0.1,0.3-0.2,0.5-0.2C151.4,740.4,151.6,740.4,151.8,740.4z M151.9,744
		c0-0.1,0-0.2,0-0.2c0-0.1-0.1-0.1-0.2-0.1c-0.1,0-0.2,0-0.3-0.1c-0.1,0-0.2,0-0.3,0c-0.1,0-0.2,0-0.4,0c-0.1,0-0.2,0-0.3,0
		c-0.1,0.1-0.3,0.1-0.4,0.2c-0.1,0.1-0.2,0.2-0.2,0.3c0,0.1,0,0.1,0,0.2c0,0.1,0.1,0.1,0.1,0.2c0.1,0,0.2,0.1,0.3,0.1
		c0.1,0,0.3,0,0.4,0c0.2,0,0.3,0,0.4,0c0.1,0,0.3-0.1,0.4-0.1c0.1-0.1,0.2-0.1,0.3-0.2C151.8,744.2,151.8,744.1,151.9,744z
		 M151.3,742.2c0.1,0,0.2,0,0.3,0c0.1,0,0.2-0.1,0.3-0.1c0.1-0.1,0.1-0.1,0.2-0.2c0.1-0.1,0.1-0.2,0.1-0.3c0.1-0.2,0-0.4-0.1-0.5
		c-0.1-0.1-0.3-0.2-0.5-0.2c-0.2,0-0.4,0.1-0.6,0.2c-0.2,0.1-0.3,0.3-0.3,0.5c0,0.1,0,0.2,0,0.3c0,0.1,0,0.2,0.1,0.2
		c0,0.1,0.1,0.1,0.2,0.1C151.1,742.2,151.2,742.2,151.3,742.2z M159,739.1l-0.1,0.5h-1.5l-1.1,4.2h-0.6l1.1-4.2h-1.5l0.1-0.5H159z
		 M159.9,740.4c0.2,0,0.4,0,0.5,0.1c0.2,0.1,0.3,0.2,0.4,0.3c0.1,0.1,0.1,0.3,0.2,0.5c0,0.2,0,0.4-0.1,0.6c0,0.1,0,0.2-0.1,0.2
		c0,0-0.1,0-0.1,0h-2.2c-0.1,0.2-0.1,0.4-0.1,0.6c0,0.2,0,0.3,0.1,0.4c0.1,0.1,0.2,0.2,0.3,0.2c0.1,0.1,0.2,0.1,0.4,0.1
		c0.1,0,0.3,0,0.4-0.1c0.1,0,0.2-0.1,0.3-0.1c0.1,0,0.2-0.1,0.2-0.1c0.1,0,0.1-0.1,0.1-0.1c0,0,0.1,0,0.1,0.1l0.1,0.2
		c-0.1,0.1-0.2,0.2-0.3,0.2c-0.1,0.1-0.2,0.1-0.4,0.2c-0.1,0-0.3,0.1-0.4,0.1c-0.1,0-0.3,0-0.4,0c-0.2,0-0.4,0-0.6-0.1
		c-0.2-0.1-0.3-0.2-0.4-0.3c-0.1-0.2-0.2-0.3-0.2-0.6c0-0.2,0-0.5,0.1-0.8c0.1-0.2,0.2-0.5,0.3-0.7c0.1-0.2,0.3-0.4,0.5-0.5
		c0.2-0.1,0.4-0.3,0.6-0.4C159.4,740.4,159.6,740.4,159.9,740.4z M159.8,740.8c-0.3,0-0.5,0.1-0.7,0.2c-0.2,0.2-0.4,0.4-0.5,0.7h1.8
		c0-0.1,0-0.3,0-0.4c0-0.1,0-0.2-0.1-0.3c-0.1-0.1-0.1-0.1-0.2-0.2C160,740.9,159.9,740.8,159.8,740.8z M163.6,743.8h-0.3
		c-0.1,0-0.1,0-0.1,0c0,0,0-0.1,0-0.1l0-0.3c-0.1,0.1-0.2,0.2-0.3,0.2c-0.1,0.1-0.2,0.1-0.3,0.2c-0.1,0-0.2,0.1-0.3,0.1
		c-0.1,0-0.2,0-0.4,0c-0.1,0-0.2,0-0.4-0.1c-0.1,0-0.2-0.1-0.3-0.2c-0.1-0.1-0.1-0.2-0.1-0.3c0-0.1,0-0.2,0-0.4
		c0-0.1,0.1-0.3,0.2-0.4c0.1-0.1,0.3-0.2,0.4-0.3c0.2-0.1,0.4-0.2,0.7-0.2c0.3-0.1,0.6-0.1,1-0.1l0.1-0.3c0.1-0.3,0.1-0.5,0-0.6
		c-0.1-0.1-0.2-0.2-0.4-0.2c-0.1,0-0.3,0-0.4,0.1c-0.1,0-0.2,0.1-0.3,0.1c-0.1,0-0.2,0.1-0.2,0.1c-0.1,0-0.1,0.1-0.2,0.1
		c0,0-0.1,0-0.1,0c0,0,0,0-0.1-0.1l-0.1-0.2c0.2-0.2,0.5-0.3,0.7-0.4c0.2-0.1,0.5-0.1,0.7-0.1c0.2,0,0.3,0,0.5,0.1
		c0.1,0.1,0.2,0.1,0.3,0.3c0.1,0.1,0.1,0.2,0.1,0.4c0,0.2,0,0.3-0.1,0.5L163.6,743.8z M162.1,743.5c0.1,0,0.2,0,0.3,0
		c0.1,0,0.2-0.1,0.3-0.1c0.1,0,0.2-0.1,0.3-0.1c0.1-0.1,0.2-0.1,0.3-0.2l0.2-0.7c-0.3,0-0.5,0-0.7,0.1c-0.2,0-0.4,0.1-0.5,0.1
		c-0.1,0.1-0.2,0.1-0.3,0.2c-0.1,0.1-0.1,0.2-0.2,0.3c0,0.1,0,0.2,0,0.2c0,0.1,0,0.1,0.1,0.2c0,0,0.1,0.1,0.1,0.1
		C162,743.4,162.1,743.5,162.1,743.5z M164.5,743.8l0.9-3.4h0.3c0.1,0,0.1,0,0.1,0.1l0,0.3c0.2-0.2,0.3-0.3,0.5-0.4
		c0.2-0.1,0.4-0.1,0.6-0.1c0.2,0,0.4,0.1,0.5,0.2c0.1,0.1,0.2,0.3,0.2,0.5c0.1-0.1,0.2-0.2,0.3-0.3c0.1-0.1,0.2-0.2,0.3-0.2
		c0.1-0.1,0.2-0.1,0.3-0.1c0.1,0,0.2,0,0.3,0c0.2,0,0.3,0,0.5,0.1c0.1,0.1,0.2,0.1,0.3,0.2c0.1,0.1,0.1,0.2,0.1,0.4
		c0,0.2,0,0.3-0.1,0.5l-0.6,2.1h-0.6l0.6-2.1c0.1-0.3,0.1-0.5,0-0.6c-0.1-0.1-0.2-0.2-0.4-0.2c-0.1,0-0.2,0-0.3,0.1
		c-0.1,0-0.2,0.1-0.3,0.2c-0.1,0.1-0.2,0.2-0.2,0.3c-0.1,0.1-0.1,0.2-0.2,0.4l-0.6,2.1h-0.6l0.6-2.1c0.1-0.3,0.1-0.5,0-0.6
		c-0.1-0.1-0.2-0.2-0.4-0.2c-0.1,0-0.3,0-0.4,0.1c-0.1,0.1-0.3,0.2-0.4,0.3l-0.7,2.5H164.5z"/>
</g>
<g>
	<g>
		<g>
			<linearGradient id="SVGID_4_" gradientUnits="userSpaceOnUse" x1="226.7738" y1="204.1005" x2="226.7738" y2="289.0561">
				<stop  offset="0" style="stop-color:#9DB3CE"/>
				<stop  offset="1" style="stop-color:#91A8C6"/>
			</linearGradient>
			<path class="st9" d="M226.8,291.3c-25,0-45.4-20.4-45.4-45.4c0-25,20.4-45.4,45.4-45.4c25,0,45.4,20.4,45.4,45.4
				C272.2,271,251.8,291.3,226.8,291.3L226.8,291.3z"/>
			<linearGradient id="SVGID_5_" gradientUnits="userSpaceOnUse" x1="226.7738" y1="205.601" x2="226.7738" y2="287.5107">
				<stop  offset="0" style="stop-color:#DCE8F1"/>
				<stop  offset="1" style="stop-color:#B0C1D6"/>
			</linearGradient>
			<circle class="st10" cx="226.8" cy="246" r="43.8"/>
			<linearGradient id="SVGID_6_" gradientUnits="userSpaceOnUse" x1="213.777" y1="206.9035" x2="221.6419" y2="230.6336">
				<stop  offset="0" style="stop-color:#FBFEFF"/>
				<stop  offset="1" style="stop-color:#D6E4EE"/>
			</linearGradient>
			<path class="st11" d="M212.4,206.7c-16.1,5.3-21,16.6-23.5,24.2c-2.5,7.6,16.7,6.5,36.7-1.9c20-8.4,29.1-16.7,19.9-20.9
				C236.3,204,224.8,202.6,212.4,206.7z"/>
			
				<linearGradient id="SVGID_7_" gradientUnits="userSpaceOnUse" x1="-4416.835" y1="4321.0581" x2="-4408.9702" y2="4344.7886" gradientTransform="matrix(-1 0 0 -1 -4176.667 4606.8242)">
				<stop  offset="0" style="stop-color:#8CA3BD"/>
				<stop  offset="1" style="stop-color:#BECDDF"/>
			</linearGradient>
			<path class="st12" d="M241.6,285.9c16.1-5.3,21-16.6,23.5-24.2c2.5-7.6-16.7-6.5-36.7,1.9c-20,8.4-29.1,16.7-19.9,20.9
				C217.7,288.7,229.2,290,241.6,285.9z"/>
			<g>
				<linearGradient id="SVGID_8_" gradientUnits="userSpaceOnUse" x1="208.0276" y1="215.0921" x2="208.0276" y2="281.8173">
					<stop  offset="0" style="stop-color:#D9E1EB"/>
					<stop  offset="1" style="stop-color:#A0B2C4"/>
				</linearGradient>
				<path class="st13" d="M207.2,233c-1.7-0.6-3.3-0.3-5.3,0.7c-2.2,1.2-3.7,1.1-6,1.6c-1.8,0.4-2.7,1.6-3.1,3.3
					c-0.2,0.9-0.5,2.2-0.6,3.1c-0.4,2.9,1.6,7,2.6,9.6c1.3,3.2,3.2,6.8,6.2,8.6c8.2,5,18.6,4.9,22.3-5.3c2.3-6.4-0.8-11.8-6.3-15.1
					c-2.8-1.7-5.1-3.3-7.7-5.3C208.6,233.7,207.9,233.3,207.2,233z"/>
				<linearGradient id="SVGID_9_" gradientUnits="userSpaceOnUse" x1="233.6876" y1="215.1003" x2="233.6876" y2="281.8249">
					<stop  offset="0" style="stop-color:#D9E1EB"/>
					<stop  offset="1" style="stop-color:#A0B2C4"/>
				</linearGradient>
				<path class="st14" d="M251.8,230.5c1.5-0.5,2.5-1.5,1.9-3.5c-0.8-3.1-4.2-4.5-7-5.4c-1.5-0.5-3.1-0.6-4.7-1
					c-1.8-0.5-2.4-1.4-3.9-2.6c-6.1-4.7-15.7-3.5-20.9,1.9c-2.4,2.4-4.5,6.8-3.3,10.3c0.7,1.9,2.2,2.2,4,3c2.5,1.1,5.3,2.5,7.2,4.5
					c2.4,2.4,3.1,4.3,7,4c6-0.4,9.1-6.7,13.7-9.5C247.2,231.3,249.9,231.2,251.8,230.5z"/>
				<linearGradient id="SVGID_10_" gradientUnits="userSpaceOnUse" x1="234.0853" y1="215.0922" x2="234.0853" y2="281.8173">
					<stop  offset="0" style="stop-color:#D9E1EB"/>
					<stop  offset="1" style="stop-color:#A0B2C4"/>
				</linearGradient>
				<path class="st15" d="M239.2,248.9c-2.3-1.1-5.5-5-7.8-5.5c-2-0.5-3.7,1.4-4.7,3.3c-2.3,4-1,8.9,3.3,10.8
					c3.8,1.7,11.8,1.8,12.5-3.8C242.9,250.7,241.8,250.2,239.2,248.9z"/>
				<linearGradient id="SVGID_11_" gradientUnits="userSpaceOnUse" x1="260.0323" y1="215.0944" x2="260.0323" y2="281.8163">
					<stop  offset="0" style="stop-color:#D9E1EB"/>
					<stop  offset="1" style="stop-color:#A0B2C4"/>
				</linearGradient>
				<path class="st16" d="M260.1,267.2c2.5-1.3,7.2-11.4,2.7-12.5c-3.1-0.7-5.8,5-6.7,7C254.7,264.6,255.2,269.7,260.1,267.2z"/>
				<linearGradient id="SVGID_12_" gradientUnits="userSpaceOnUse" x1="209.6067" y1="215.0927" x2="209.6067" y2="281.8173">
					<stop  offset="0" style="stop-color:#D9E1EB"/>
					<stop  offset="1" style="stop-color:#A0B2C4"/>
				</linearGradient>
				<path class="st17" d="M216,268.9c-1-2-13.1-5.7-13.1-2c0,3.6,6.4,5.4,9.2,5.5C213.9,272.4,217.4,271.7,216,268.9z"/>
				<linearGradient id="SVGID_13_" gradientUnits="userSpaceOnUse" x1="258.3366" y1="212.9412" x2="257.523" y2="280.4699">
					<stop  offset="0" style="stop-color:#C8D4E4"/>
					<stop  offset="1" style="stop-color:#A0B2C4"/>
				</linearGradient>
				<path class="st18" d="M256,228.7c1.3,3.4,5.5,4.2,5.7-0.3c0.1-2.7-2.1-7.9-5.4-6.4C253.5,223.1,255.2,226.7,256,228.7z"/>
				<linearGradient id="SVGID_14_" gradientUnits="userSpaceOnUse" x1="267.4273" y1="213.0524" x2="266.6137" y2="280.5776">
					<stop  offset="0" style="stop-color:#C8D4E4"/>
					<stop  offset="1" style="stop-color:#A0B2C4"/>
				</linearGradient>
				<path class="st19" d="M266.8,249c2,1.4,2.3-3.1,2.1-4.2c-0.2-1.5,0-5.5-2.2-5.7C264,238.8,265.5,248.1,266.8,249z"/>
				<linearGradient id="SVGID_15_" gradientUnits="userSpaceOnUse" x1="187.7598" y1="215.0922" x2="187.7598" y2="281.817">
					<stop  offset="0" style="stop-color:#D9E1EB"/>
					<stop  offset="1" style="stop-color:#A0B2C4"/>
				</linearGradient>
				<path class="st20" d="M189.3,245.7c0.7-1.3,1.1-7.5-1.4-7.3C183.3,238.7,187.1,249.9,189.3,245.7z"/>
				<linearGradient id="SVGID_16_" gradientUnits="userSpaceOnUse" x1="227.0443" y1="215.0902" x2="227.0443" y2="281.8174">
					<stop  offset="0" style="stop-color:#D9E1EB"/>
					<stop  offset="1" style="stop-color:#A0B2C4"/>
				</linearGradient>
				<path class="st21" d="M231.9,264.1c0.6,1,0,2.2,0.4,3.2c0.9,2.4,3.7,3.9,4.7,6.3c1.4,3-4.1,6.2-6.4,6.8c-2.5,0.6-8.5,0.9-8.6-3
					c-0.1-3,2.2-5.3-0.3-8c-1.4-1.5-7.5-3.2-3.9-5.9c2-1.4,5.1-1.6,7.5-1.4C227.6,262.2,230.6,261.9,231.9,264.1z"/>
				<linearGradient id="SVGID_17_" gradientUnits="userSpaceOnUse" x1="197.1772" y1="215.0915" x2="197.1772" y2="281.8174">
					<stop  offset="0" style="stop-color:#D9E1EB"/>
					<stop  offset="1" style="stop-color:#A0B2C4"/>
				</linearGradient>
				<path class="st22" d="M199.9,268.4c0.2-1.8-1.9-5.4-3.7-5.8c-3.7-0.9-0.8,5.6,0.6,6.5C198.1,269.9,199.7,270,199.9,268.4z"/>
			</g>
			<linearGradient id="SVGID_18_" gradientUnits="userSpaceOnUse" x1="211.8226" y1="253.066" x2="211.6192" y2="243.9125">
				<stop  offset="0" style="stop-color:#DCE8F1"/>
				<stop  offset="1" style="stop-color:#BECCDE"/>
			</linearGradient>
			<path class="st23" d="M216.3,248.6c0,2.7-2.1,4.9-4.6,4.9c-2.5,0-4.6-2.2-4.6-4.9c0-2.7,2.1-4.9,4.6-4.9
				C214.3,243.7,216.3,245.9,216.3,248.6z"/>
			<linearGradient id="SVGID_19_" gradientUnits="userSpaceOnUse" x1="240.978" y1="234.0492" x2="240.828" y2="227.303">
				<stop  offset="0" style="stop-color:#DCE8F1"/>
				<stop  offset="1" style="stop-color:#BECCDE"/>
			</linearGradient>
			<path class="st24" d="M244.3,230.7c0,2-1.5,3.6-3.4,3.6c-1.9,0-3.4-1.6-3.4-3.6c0-2,1.5-3.6,3.4-3.6
				C242.8,227.2,244.3,228.8,244.3,230.7z"/>
			<linearGradient id="SVGID_20_" gradientUnits="userSpaceOnUse" x1="201.1556" y1="245.8471" x2="201.0057" y2="239.1014">
				<stop  offset="0" style="stop-color:#DCE8F1"/>
				<stop  offset="1" style="stop-color:#BECCDE"/>
			</linearGradient>
			<path class="st25" d="M204.5,242.5c0,2-1.5,3.6-3.4,3.6c-1.9,0-3.4-1.6-3.4-3.6c0-2,1.5-3.6,3.4-3.6
				C203,239,204.5,240.6,204.5,242.5z"/>
			<linearGradient id="SVGID_21_" gradientUnits="userSpaceOnUse" x1="226.9531" y1="211.04" x2="222.8852" y2="207.7857">
				<stop  offset="0" style="stop-color:#EEF4F9"/>
				<stop  offset="1" style="stop-color:#D8E1EB"/>
			</linearGradient>
			<path class="st26" d="M229.6,209.5c0,1.2-2.1,2.1-4.6,2.1c-2.5,0-4.6-0.9-4.6-2.1c0-1.2,2.1-2.1,4.6-2.1
				C227.6,207.4,229.6,208.4,229.6,209.5z"/>
			<linearGradient id="SVGID_22_" gradientUnits="userSpaceOnUse" x1="240.9341" y1="214.1187" x2="238.4933" y2="209.8473">
				<stop  offset="0" style="stop-color:#EEF4F9"/>
				<stop  offset="1" style="stop-color:#D8E1EB"/>
			</linearGradient>
			<path class="st27" d="M244.3,212.6c-0.2,1.1-2.3,1.8-4.8,1.4c-2.5-0.3-4.4-1.6-4.3-2.7c0.2-1.1,2.3-1.8,4.8-1.4
				C242.5,210.3,244.4,211.5,244.3,212.6z"/>
			
				<linearGradient id="SVGID_23_" gradientUnits="userSpaceOnUse" x1="896.6505" y1="1620.511" x2="893.4034" y2="1614.8287" gradientTransform="matrix(0.8733 -0.4871 0.4871 0.8733 -1361.3969 -761.039)">
				<stop  offset="0" style="stop-color:#EEF4F9"/>
				<stop  offset="1" style="stop-color:#D8E1EB"/>
			</linearGradient>
			<path class="st28" d="M213.9,213.5c0.6,1.4-1.5,3.6-4.7,4.8c-3.2,1.2-6.2,1.1-6.7-0.4c-0.6-1.4,1.5-3.6,4.7-4.8
				C210.4,211.9,213.4,212.1,213.9,213.5z"/>
			<linearGradient id="SVGID_24_" gradientUnits="userSpaceOnUse" x1="212.4087" y1="260.9887" x2="212.2938" y2="255.8186">
				<stop  offset="0" style="stop-color:#DCE8F1"/>
				<stop  offset="1" style="stop-color:#BECCDE"/>
			</linearGradient>
			<path class="st29" d="M215.1,258.5c0,1.5-1.2,2.7-2.7,2.7c-1.5,0-2.7-1.2-2.7-2.7c0-1.5,1.2-2.7,2.7-2.7
				C213.9,255.7,215.1,256.9,215.1,258.5z"/>
			<linearGradient id="SVGID_25_" gradientUnits="userSpaceOnUse" x1="232.7164" y1="277.1583" x2="232.5428" y2="269.3455">
				<stop  offset="0" style="stop-color:#DCE8F1"/>
				<stop  offset="1" style="stop-color:#B0C0D6"/>
			</linearGradient>
			<path class="st30" d="M238.5,273.3c0,2.3-2.6,4.1-5.9,4.1c-3.2,0-5.9-1.9-5.9-4.1c0-2.3,2.6-4.1,5.9-4.1
				C235.9,269.2,238.5,271,238.5,273.3z"/>
			
				<linearGradient id="SVGID_26_" gradientUnits="userSpaceOnUse" x1="117.5756" y1="1534.0812" x2="117.4703" y2="1529.3407" gradientTransform="matrix(1.1585 -0.7758 0.2782 0.4155 -308.9311 -269.0187)">
				<stop  offset="0" style="stop-color:#DCE8F1"/>
				<stop  offset="1" style="stop-color:#BECCDE"/>
			</linearGradient>
			<path class="st31" d="M257.5,273.5c0.4,0.6-1.1,2.3-3.4,3.8c-2.3,1.5-4.4,2.3-4.8,1.7c-0.4-0.6,1.1-2.3,3.4-3.8
				C254.9,273.7,257.1,272.9,257.5,273.5z"/>
			
				<linearGradient id="SVGID_27_" gradientUnits="userSpaceOnUse" x1="-1060.8989" y1="-3193.3357" x2="-1061.0043" y2="-3198.0769" gradientTransform="matrix(1.3035 0.4947 -0.1774 0.4675 1025.1677 2302.0078)">
				<stop  offset="0" style="stop-color:#DCE8F1"/>
				<stop  offset="1" style="stop-color:#BECCDE"/>
			</linearGradient>
			<path class="st32" d="M213.8,284.9c-0.2,0.6-2.5,0.4-5.1-0.6c-2.6-1-4.4-2.3-4.2-2.9c0.2-0.6,2.5-0.4,5.1,0.6
				C212.1,283,214,284.3,213.8,284.9z"/>
			<linearGradient id="SVGID_28_" gradientUnits="userSpaceOnUse" x1="250.5571" y1="215.093" x2="250.5571" y2="281.8171">
				<stop  offset="0" style="stop-color:#D9E1EB"/>
				<stop  offset="1" style="stop-color:#A0B2C4"/>
			</linearGradient>
			<path class="st33" d="M258.7,244.5c-1.7-3.4-4.6-4.1-8.2-4.1c-2.5,0-5.5-0.8-7.5,1.1c-2.5,2.3,1.3,3.2,3.2,4.1
				c5.8,2.7,1.3,6.8,2.5,11.2c0.5,1.6,3.2,2.5,4.8,1.5c2-1.2,2.7-5.5,3.7-7.5C258.1,249.1,259.7,246.5,258.7,244.5z"/>
			<linearGradient id="SVGID_29_" gradientUnits="userSpaceOnUse" x1="203.0272" y1="215.0928" x2="203.0272" y2="281.8165">
				<stop  offset="0" style="stop-color:#D9E1EB"/>
				<stop  offset="1" style="stop-color:#A0B2C4"/>
			</linearGradient>
			<path class="st34" d="M205.5,231.5c1.6,0.3,5.8,1.7,5.5-1.3c-0.1-1.1-1.6-1.9-2.1-2.9c-0.5-1-0.6-2.2-0.5-3.3
				c0.1-1.9,1.7-5.8-1.4-6.1c-2.9-0.3-3.6,3.4-4.9,5.3c-1.5,2.2-3.8,1.8-5.6,3.5c-2.3,2.2-1.7,5.1,1.6,4.3c1.1-0.3,2.1-0.9,3.2-0.8
				C202.7,230.2,204,231.2,205.5,231.5z"/>
		</g>
	</g>
	<g>
		<g>
			<g>
				<path class="st35" d="M153.6,243.2c0,0-0.5,3.2-1.2,3.9c-0.8,0.8-4,1.3-4,1.3s3.2,0.5,3.9,1.3c0.7,0.8,1.2,3.9,1.2,3.9
					s0.5-3.1,1.2-3.9c0.8-0.8,3.9-1.3,3.9-1.3s-3.2-0.5-3.9-1.3C154.1,246.3,153.6,243.2,153.6,243.2z"/>
			</g>
		</g>
		<g>
			<g>
				<path class="st35" d="M256.2,292c0,0-0.7,4.6-1.7,5.7c-1.1,1.2-5.9,1.9-5.9,1.9s4.7,0.8,5.8,1.9c1.1,1.1,1.8,5.7,1.8,5.7
					s0.7-4.5,1.8-5.6c1.1-1.1,5.8-1.9,5.8-1.9s-4.7-0.8-5.8-1.9C257,296.5,256.2,292,256.2,292z"/>
			</g>
		</g>
		<g>
			<g>
				<path class="st35" d="M192.8,349.5c0,0-0.4,2.9-1.1,3.6c-0.7,0.8-3.7,1.2-3.7,1.2s2.9,0.5,3.6,1.2c0.7,0.7,1.1,3.6,1.1,3.6
					s0.4-2.9,1.1-3.5c0.7-0.7,3.6-1.2,3.6-1.2s-2.9-0.5-3.6-1.2C193.3,352.4,192.8,349.5,192.8,349.5z"/>
			</g>
		</g>
		<g>
			<g>
				<path class="st35" d="M294.4,247.5c0,0-0.3,2.1-0.8,2.6c-0.5,0.5-2.6,0.8-2.6,0.8s2.1,0.3,2.6,0.8c0.5,0.5,0.8,2.6,0.8,2.6
					s0.3-2,0.8-2.5c0.5-0.5,2.6-0.9,2.6-0.9s-2.1-0.3-2.6-0.9C294.7,249.5,294.4,247.5,294.4,247.5z"/>
			</g>
		</g>
		<polygon class="st35" points="285.2,284.4 283.5,284 282.2,285.1 282.1,283.4 280.6,282.5 282.2,281.8 282.6,280.1 283.7,281.5 
			285.5,281.3 284.6,282.8 		"/>
		<polygon class="st35" points="143.3,296.6 141.6,296.2 140.2,297.3 140.1,295.6 138.6,294.7 140.3,294 140.6,292.3 141.8,293.6 
			143.5,293.5 142.6,295 		"/>
		<polygon class="st35" points="141.5,233.3 139.8,232.8 138.5,234 138.3,232.2 136.8,231.3 138.5,230.7 138.9,229 140,230.3 
			141.7,230.2 140.8,231.6 		"/>
		<polygon class="st35" points="303.6,230.2 301.9,229.8 300.6,230.9 300.5,229.2 299,228.3 300.6,227.6 301,225.9 302.1,227.3 
			303.9,227.1 303,228.6 		"/>
		<polygon class="st35" points="153.3,268.5 152.6,268.3 152.1,268.8 152,268.1 151.4,267.7 152.1,267.4 152.2,266.7 152.7,267.3 
			153.4,267.2 153.1,267.8 		"/>
		<polygon class="st35" points="207,311.4 205.3,310.9 204,312.1 203.9,310.3 202.4,309.4 204,308.8 204.4,307.1 205.5,308.4 
			207.3,308.3 206.3,309.7 		"/>
		<polygon class="st35" points="265.5,278.7 264.8,278.5 264.2,279 264.2,278.2 263.6,277.9 264.3,277.6 264.4,276.9 264.9,277.4 
			265.6,277.4 265.2,278 		"/>
		<polygon class="st35" points="292.7,264.6 292,264.5 291.4,265 291.4,264.2 290.7,263.8 291.4,263.6 291.6,262.9 292,263.4 
			292.8,263.4 292.4,264 		"/>
		<polygon class="st35" points="207.3,356.2 206.6,356 206,356.5 206,355.8 205.4,355.4 206,355.1 206.2,354.4 206.7,355 
			207.4,354.9 207,355.5 		"/>
		<polygon class="st35" points="246.5,351.1 245.8,350.9 245.3,351.4 245.2,350.6 244.6,350.3 245.3,350 245.4,349.3 245.9,349.8 
			246.6,349.8 246.2,350.4 		"/>
		<polygon class="st35" points="313.8,309.8 313.1,309.6 312.6,310.1 312.5,309.4 311.9,309 312.6,308.7 312.8,308 313.2,308.6 
			314,308.5 313.6,309.1 		"/>
		<polygon class="st35" points="199.6,321.6 198.8,321.4 198.3,321.9 198.2,321.1 197.6,320.8 198.3,320.5 198.5,319.8 198.9,320.3 
			199.7,320.3 199.3,320.9 		"/>
		<polygon class="st35" points="168.6,345.6 166.9,345.2 165.5,346.3 165.4,344.6 163.9,343.7 165.5,343 165.9,341.3 167.1,342.7 
			168.8,342.5 167.9,344 		"/>
		<polygon class="st35" points="289.2,318 288.4,317.9 287.9,318.3 287.8,317.6 287.2,317.2 287.9,317 288.1,316.2 288.5,316.8 
			289.3,316.8 288.9,317.4 		"/>
		<polygon class="st35" points="291.5,336.6 290.8,336.4 290.2,336.9 290.1,336.1 289.5,335.8 290.2,335.5 290.4,334.8 290.8,335.3 
			291.6,335.3 291.2,335.9 		"/>
		<polygon class="st35" points="229.9,265.1 229.2,264.9 228.6,265.4 228.6,264.7 228,264.3 228.6,264 228.8,263.3 229.3,263.9 
			230,263.8 229.6,264.4 		"/>
		<polygon class="st35" points="201.4,278.2 199.7,277.7 198.4,278.9 198.3,277.1 196.8,276.2 198.4,275.6 198.8,273.9 199.9,275.2 
			201.6,275.1 200.7,276.5 		"/>
		<polygon class="st35" points="231.3,277.2 230.6,277 230.1,277.5 230,276.7 229.4,276.3 230.1,276.1 230.2,275.4 230.7,275.9 
			231.5,275.9 231.1,276.5 		"/>
		<polygon class="st35" points="252.3,192.6 251.6,192.4 251,192.9 251,192.2 250.4,191.8 251,191.5 251.2,190.8 251.7,191.4 
			252.4,191.3 252,191.9 		"/>
		<g>
			<radialGradient id="SVGID_30_" cx="225.2948" cy="227.1814" r="163.9468" gradientUnits="userSpaceOnUse">
				<stop  offset="0" style="stop-color:#9EB4CB"/>
				<stop  offset="6.019257e-02" style="stop-color:#9AB0C9"/>
				<stop  offset="0.1276" style="stop-color:#91A5C4"/>
				<stop  offset="0.1986" style="stop-color:#8393BC"/>
				<stop  offset="0.272" style="stop-color:#717DB1"/>
				<stop  offset="0.3474" style="stop-color:#5964A5"/>
				<stop  offset="0.4231" style="stop-color:#3E4797"/>
				<stop  offset="0.4634" style="stop-color:#2E368F"/>
				<stop  offset="0.5676" style="stop-color:#2D3283"/>
				<stop  offset="0.7719" style="stop-color:#292967"/>
				<stop  offset="1" style="stop-color:#1D1A45"/>
			</radialGradient>
			<path class="st36" d="M281.2,301.6c0.4-0.9,0.7-1.8,0.9-2.8c1.1-7.6-7.5-15.1-19.2-16.8c-0.5-0.1-1-0.1-1.5-0.2
				c0.3-6.1-4.4-13.5-12.3-18.4c-6.5-4-13.6-5.3-18.9-3.9c-5.6-4.5-14.2-6.7-23.2-5.3c-14.7,2.3-25.1,13.3-23.4,24.5
				c0,0.1,0,0.2,0.1,0.3c-1.5-0.6-3-0.9-4.7-0.9c-7,0-12.6,5.5-12.6,12.3c0,0,0,0,0,0.1c-10.5,1-18.7,9.3-18.7,19.4
				c0,10.8,9.3,19.5,20.8,19.5c4.2,0,8-1.2,11.3-3.1c1.6,3.6,5,6.3,9.2,7.1c4.7,0.8,9.2-1.1,12-4.6c4.8,6.7,14.3,10.5,24.5,8.9
				c9.1-1.4,16.4-6.9,19.6-13.7c1.8,2.5,4.6,4.3,7.9,4.9c4.3,0.8,8.5-0.8,11.3-3.7c2.9,1.6,6.4,2.8,10.2,3.3
				c11.7,1.7,22.1-3.1,23.2-10.7C298.5,310.9,291.4,304.1,281.2,301.6z"/>
			<path class="st37" d="M188.7,280.8c0.1,0.8,0.3,1.5,0.6,2.3c-1.1-1.7-1.9-3.6-2.2-5.6c-1.5-9.8,7.6-19.3,20.4-21.4
				c11.8-1.9,16.7,1.1,21.6,7.8c-6.3-3.9-9.8-6-20-4.4C196.3,261.5,187.1,271,188.7,280.8z M248.3,265.2c-8.9-5.4-18.9-5.2-22.4,0.6
				c-0.8,1.3-1.2,2.9-1.2,4.5c0.2-1,0.5-1.9,1-2.8c3.3-5.4,12.8-5.7,21.2-0.5c8.4,5.1,12.4,13.7,9.1,19.1c-1.1,1.8-3,3-5.2,3.7
				c3.2-0.5,5.8-1.9,7.3-4.3C261.5,279.7,257.1,270.6,248.3,265.2z M264.1,284.5c-2.1-0.3-4.2-0.3-6.2-0.2c0.7,0.1,1.4,0.1,2,0.2
				c11.3,1.6,19.6,8.9,18.5,16.2c-0.1,0.6-0.3,1.2-0.5,1.8c1-1.2,1.7-2.6,2-4.1C280.9,292.1,273.8,285.9,264.1,284.5z M170.1,325
				c1.3,0,2.6-0.2,3.8-0.4c-2.1,0.8-4.3,1.3-6.7,1.3c-9.4,0-17.1-7.2-17.1-16c0-8.8,7.6-16,17.1-16c1,0,1.9,0.1,2.9,0.2
				c-8.9,0-16.1,6.9-16.1,15.5C153.9,318.1,161.1,325,170.1,325z M189.9,329.9c-5.3-0.9-8.9-7-8.8-12.1c-0.3,0.7-0.5,1.4-0.6,2.1
				c-1,5.8,2.9,11.3,8.7,12.3c5.8,1,11.4-2.8,12.4-8.6c0.1-0.5,0.1-1.1,0.1-1.6C199.8,326.5,195,330.8,189.9,329.9z M243.6,314.8
				c-0.2-1.3-0.6-2.5-1.1-3.7c0.1,0.2,0.1,0.5,0.2,0.7c1.5,9.7-6.5,19.1-18,20.9c-11.5,1.8-22-4.6-23.5-14.3c0-0.3-0.1-0.6-0.1-0.8
				c-0.1,1.3-0.1,2.6,0.1,3.9c1.5,9.7,12.3,16.1,24,14.3C236.9,333.9,245.2,324.5,243.6,314.8z M253.4,326.5
				c-3.3-0.6-6.1-2.4-7.9-4.9c1.6,3.1,4.5,5.4,8.2,6c5.1,0.9,9.9-1.7,12.2-6C263,325.4,258.3,327.4,253.4,326.5z M181.2,280.7
				c1.3,0,2.5,0.2,3.7,0.6c-1.8-1.3-3.9-2-6.3-2c-5.9,0-10.7,4.7-10.7,10.4c0,0.6,0.1,1.1,0.2,1.6
				C169.2,285.3,174.6,280.7,181.2,280.7z M280,303.4c8.2,2.9,13.5,8,12.7,13.1c-1,6.7-12.5,10.7-25.5,8.9c0,0,0,0,0,0
				c2,0.7,4.1,1.2,6.4,1.5c11.1,1.5,21-2.7,22.1-9.3C296.6,311.5,289.8,305.5,280,303.4z M203.3,317.6c-0.6-4.1,0.6-8.1,3.1-11.6
				c-4.5,3.8-6.9,9.1-6.1,14.6c1.4,9.1,11.5,15.1,22.4,13.4c3.6-0.6,6.9-1.9,9.6-3.8c-1.5,0.5-3.1,0.9-4.7,1.2
				C215.6,333.3,204.8,327.1,203.3,317.6z"/>
		</g>
		<g>
			<radialGradient id="SVGID_31_" cx="281.7838" cy="247.1678" r="68.5825" gradientUnits="userSpaceOnUse">
				<stop  offset="0" style="stop-color:#9EB4CB"/>
				<stop  offset="6.019257e-02" style="stop-color:#9AB0C9"/>
				<stop  offset="0.1276" style="stop-color:#91A5C4"/>
				<stop  offset="0.1986" style="stop-color:#8393BC"/>
				<stop  offset="0.272" style="stop-color:#717DB1"/>
				<stop  offset="0.3474" style="stop-color:#5964A5"/>
				<stop  offset="0.4231" style="stop-color:#3E4797"/>
				<stop  offset="0.4634" style="stop-color:#2E368F"/>
				<stop  offset="0.5676" style="stop-color:#2D3283"/>
				<stop  offset="0.7719" style="stop-color:#292967"/>
				<stop  offset="1" style="stop-color:#1D1A45"/>
			</radialGradient>
			<path class="st38" d="M305.2,278.3c0.2-0.4,0.3-0.8,0.4-1.2c0.5-3.2-3.1-6.3-8-7c-0.2,0-0.4,0-0.6-0.1c0.1-2.6-1.9-5.7-5.2-7.7
				c-2.7-1.7-5.7-2.2-7.9-1.6c-2.4-1.9-5.9-2.8-9.7-2.2c-6.1,1-10.5,5.6-9.8,10.2c0,0,0,0.1,0,0.1c-0.6-0.2-1.3-0.4-2-0.4
				c-2.9,0-5.3,2.3-5.3,5.2c0,0,0,0,0,0c-4.4,0.4-7.8,3.9-7.8,8.1c0,4.5,3.9,8.2,8.7,8.2c1.7,0,3.4-0.5,4.7-1.3
				c0.7,1.5,2.1,2.7,3.8,3c2,0.3,3.9-0.5,5-1.9c2,2.8,6,4.4,10.2,3.7c3.8-0.6,6.9-2.9,8.2-5.7c0.8,1,1.9,1.8,3.3,2.1
				c1.8,0.3,3.6-0.3,4.7-1.6c1.2,0.7,2.7,1.2,4.3,1.4c4.9,0.7,9.2-1.3,9.7-4.5C312.4,282.2,309.4,279.3,305.2,278.3z"/>
			<path class="st37" d="M266.5,269.6c0,0.3,0.1,0.6,0.2,0.9c-0.5-0.7-0.8-1.5-0.9-2.3c-0.6-4.1,3.2-8.1,8.5-8.9
				c4.9-0.8,7,0.5,9,3.3c-2.6-1.6-4.1-2.5-8.4-1.8C269.6,261.5,265.8,265.5,266.5,269.6z M291.4,263c-3.7-2.3-7.9-2.2-9.4,0.2
				c-0.3,0.6-0.5,1.2-0.5,1.9c0.1-0.4,0.2-0.8,0.4-1.2c1.4-2.3,5.4-2.4,8.9-0.2c3.5,2.2,5.2,5.7,3.8,8c-0.5,0.8-1.2,1.3-2.2,1.5
				c1.3-0.2,2.4-0.8,3.1-1.8C296.9,269.1,295.1,265.3,291.4,263z M298,271.1c-0.9-0.1-1.8-0.1-2.6-0.1c0.3,0,0.6,0.1,0.9,0.1
				c4.7,0.7,8.2,3.7,7.7,6.8c0,0.3-0.1,0.5-0.2,0.7c0.4-0.5,0.7-1.1,0.8-1.7C305,274.3,302.1,271.7,298,271.1z M258.7,288.1
				c0.6,0,1.1-0.1,1.6-0.2c-0.9,0.3-1.8,0.5-2.8,0.5c-3.9,0-7.1-3-7.1-6.7c0-3.7,3.2-6.7,7.1-6.7c0.4,0,0.8,0,1.2,0.1
				c-3.7,0-6.7,2.9-6.7,6.5C251.9,285.2,254.9,288.1,258.7,288.1z M267,290.1c-2.2-0.4-3.7-2.9-3.7-5.1c-0.1,0.3-0.2,0.6-0.3,0.9
				c-0.4,2.4,1.2,4.7,3.6,5.2c2.4,0.4,4.8-1.2,5.2-3.6c0-0.2,0-0.5,0.1-0.7C271.1,288.7,269.1,290.5,267,290.1z M289.5,283.8
				c-0.1-0.5-0.2-1.1-0.5-1.5c0,0.1,0.1,0.2,0.1,0.3c0.6,4.1-2.7,8-7.5,8.7c-4.8,0.8-9.2-1.9-9.8-6c0-0.1,0-0.2,0-0.3
				c-0.1,0.5-0.1,1.1,0,1.6c0.6,4.1,5.1,6.7,10,6C286.6,291.8,290.1,287.9,289.5,283.8z M293.5,288.7c-1.4-0.2-2.5-1-3.3-2
				c0.7,1.3,1.9,2.3,3.4,2.5c2.1,0.4,4.2-0.7,5.1-2.5C297.5,288.2,295.6,289.1,293.5,288.7z M263.3,269.6c0.5,0,1,0.1,1.5,0.2
				c-0.7-0.5-1.6-0.9-2.6-0.9c-2.5,0-4.5,2-4.5,4.4c0,0.2,0,0.5,0.1,0.7C258.3,271.5,260.6,269.6,263.3,269.6z M304.7,279
				c3.4,1.2,5.7,3.4,5.3,5.5c-0.4,2.8-5.2,4.5-10.7,3.7c0,0,0,0,0,0c0.8,0.3,1.7,0.5,2.7,0.6c4.7,0.6,8.8-1.1,9.2-3.9
				C311.6,282.4,308.7,279.9,304.7,279z M272.6,285c-0.3-1.7,0.2-3.4,1.3-4.8c-1.9,1.6-2.9,3.8-2.5,6.1c0.6,3.8,4.8,6.3,9.4,5.6
				c1.5-0.2,2.9-0.8,4-1.6c-0.6,0.2-1.3,0.4-2,0.5C277.7,291.6,273.2,289,272.6,285z"/>
		</g>
	</g>
</g>
<g>
	<g>
		<linearGradient id="SVGID_32_" gradientUnits="userSpaceOnUse" x1="759.4241" y1="142.1514" x2="959.6018" y2="142.1514">
			<stop  offset="0" style="stop-color:#FFFFFF;stop-opacity:0"/>
			<stop  offset="4.017906e-02" style="stop-color:#FDEBEE;stop-opacity:4.051906e-02"/>
			<stop  offset="0.1257" style="stop-color:#FAC6CE;stop-opacity:0.1267"/>
			<stop  offset="0.2187" style="stop-color:#F7A7B2;stop-opacity:0.2205"/>
			<stop  offset="0.3192" style="stop-color:#F58D9C;stop-opacity:0.3219"/>
			<stop  offset="0.4302" style="stop-color:#F3798A;stop-opacity:0.4338"/>
			<stop  offset="0.5573" style="stop-color:#F26C7E;stop-opacity:0.562"/>
			<stop  offset="0.7143" style="stop-color:#F16377;stop-opacity:0.7204"/>
			<stop  offset="0.9916" style="stop-color:#F16175"/>
		</linearGradient>
		<rect x="759.4" y="129.8" class="st39" width="200.2" height="24.7"/>
		<g>
			<g>
				<path class="st7" d="M899.6,146.7c-4.3,0-5.9-2-5.9-5.1c0-2.9,1.8-5.5,5.8-5.5c2.6,0,4.6,0.8,4.6,0.8v7.6h2.2v2.3H899.6z
					 M896,133.2c0-0.8,0.6-1.5,1.5-1.5c0.8,0,1.5,0.7,1.5,1.5c0,0.8-0.6,1.5-1.5,1.5C896.7,134.7,896,134,896,133.2z M901.4,138.8
					c0,0-0.8-0.4-2.1-0.4c-1.7,0-2.6,1.3-2.6,3c0,2,1,3.1,3.3,3.1h1.4V138.8z M899.7,133.2c0-0.8,0.6-1.5,1.5-1.5
					c0.8,0,1.5,0.7,1.5,1.5c0,0.8-0.6,1.5-1.5,1.5C900.3,134.7,899.7,134,899.7,133.2z"/>
				<path class="st7" d="M906,144.4h4.1v-8.1h2.9v10.3h-7V144.4z M907.9,151.5c-0.8,0-1.5-0.7-1.5-1.5c0-0.8,0.6-1.5,1.5-1.5
					c0.8,0,1.5,0.7,1.5,1.5C909.3,150.8,908.7,151.5,907.9,151.5z M911.5,151.5c-0.8,0-1.5-0.7-1.5-1.5c0-0.8,0.6-1.5,1.5-1.5
					c0.8,0,1.5,0.7,1.5,1.5C913,150.8,912.3,151.5,911.5,151.5z"/>
				<path class="st7" d="M913.2,152.1l0.2-2.3c0.5,0.2,1.1,0.3,1.8,0.3c1.5,0,2.4-0.7,2.4-3.1v-10.6h2.9v8.1h2.2v2.3h-2.2v0.1
					c0,2.8-0.9,5.5-5.4,5.5C914.3,152.3,913.7,152.2,913.2,152.1z"/>
				<path class="st7" d="M922.3,146.7v-2.3h1.9c0.6,0,1,0.1,1,0.1s-0.6-0.6-0.6-1.5c0-2.1,1.5-3.7,4.2-3.7c2.9,0,4,2,4,4.5v0.6h2.3
					v-0.3c0-4.6-1.8-6.8-6.2-6.8c-1.5,0-3.3,0.4-4.7,0.8l-0.3-2c1.6-0.5,3.6-0.9,5.3-0.9c5.5,0,8.6,2.6,8.6,9.1v0.1h1.6v2.3H922.3z
					 M930.4,143.8c0-1.6-0.6-2.7-1.9-2.7c-1,0-1.6,0.7-1.6,1.6c0,1.1,0.9,1.8,2.1,1.8h1.4V143.8z"/>
				<path class="st7" d="M939.1,144.4h8.5c0.1-0.5,0.1-1.1,0.1-1.7c0-2.8-1.1-4.2-4.3-4.2c-0.9,0-1.7,0.1-2.5,0.2v-2.3
					c0.9-0.1,1.9-0.2,2.8-0.2c5,0,6.9,2.2,6.9,6.4c0,1.1-0.1,2.5-0.4,4.1h-11.1V144.4z M942.8,150c0-0.8,0.7-1.5,1.5-1.5
					s1.5,0.7,1.5,1.5c0,0.8-0.7,1.5-1.5,1.5S942.8,150.9,942.8,150z"/>
			</g>
		</g>
		<g>
			<path class="st1" d="M729.4,134.2c0.1,0.4,0.2,0.8,0.2,1.1c0,0.9-0.6,1.7-1.9,2.2l-4.9,1.9c-1.5,0.6-2.8,1.1-2.8,2
				c0,0.1,0,0.1,0,0.2l-0.2,0.1c-0.1-0.4-0.2-0.8-0.2-1.1c0-0.9,0.5-1.7,1.9-2.3l4.9-1.9c1.7-0.7,2.8-1.1,2.8-2.2L729.4,134.2z"/>
			<path class="st1" d="M735.6,124.5v3.3h-12.2c-4.1,0-5.6-2-5.8-5h0.4c0.4,1.4,1.1,1.7,5.9,1.8h0.4c-1.9-1.7-2.8-3.9-2.8-6.4l0.1-1
				c0-1.6,1.3-2.9,3-2.9h10.5v3.1h-10.4v0.9c0,3.5,2.7,5.9,6.5,6.3H735.6z"/>
			<path class="st1" d="M744.4,117.5c0,4.1,3,7.1,6.7,7.1h1.4v3.3h-1.4c-5.5,0-10-5.2-10-10.3V96.3c0-4.2,2.1-5.8,5.4-5.9v0.5
				c-1.7,0.2-2.1,2.8-2.1,5.6c0,0.6,0,1.2,0,1.9v18V117.5z"/>
			<path class="st1" d="M789.8,118.6c0,3.3,2.5,5.9,6,5.9v3.3c-3.3,0-6-1.5-7.7-4.1c-1.5,2.4-4.4,4.1-7.5,4.1
				c-3.2,0-6.2-1.8-7.8-4.3c-1.7,2.6-4.2,4.3-7.9,4.3c-2.4,0-4.4-0.8-6.2-2.2c-1,1.7-2.2,2.1-3,2.2h-3.5v-3.3h2.4
				c0.5,0,0.9-0.4,1.1-1.1v-17.3h3.3v12c0,3.6,2.8,6.4,6,6.4c3.3,0,5.8-2.4,5.9-5.9v-12.6h3.3v11.6c0,3.7,2.7,6.8,6,6.8
				c3.2,0,6.2-2.2,6.2-5.9v-7.4c0-4.9,2.6-5.8,5.1-5.9v0.6c-1.8,0.3-1.8,3.6-1.8,7V118.6z M769.6,101.2l-2.8-2.8l2.8-2.9l2.9,2.9
				L769.6,101.2z M772.5,97.6l-2.8-2.8l2.8-2.9l2.8,2.9L772.5,97.6z M775.3,101.2l-2.8-2.8l2.8-2.9l2.8,2.9L775.3,101.2z"/>
			<path class="st1" d="M811.5,134.7c0.1,0.4,0.2,0.8,0.2,1.1c0,0.9-0.6,1.7-1.9,2.2l-4.9,1.9c-1.5,0.6-2.8,1.1-2.8,2
				c0,0.1,0,0.1,0,0.2l-0.2,0.1c-0.1-0.4-0.2-0.8-0.2-1.1c0-0.9,0.5-1.7,1.9-2.3l4.9-1.9c1.7-0.7,2.8-1.1,2.8-2.2L811.5,134.7z"/>
			<path class="st1" d="M825.4,127.8h-29.6v-3.3h4.6c-1.7-1.7-2.5-4.1-2.5-6.3c0-5.1,4.5-9.6,9.7-9.6h6.9c3.4,0,6.8,0,7-2.2h0.5
				c0,3.4-1.9,5.4-5.8,5.4h-8.2c-4.2,0-7.1,2.7-7.1,6.4s2.8,6.2,6.7,6.3h17.9V127.8z"/>
			<path class="st1" d="M835.3,82.1c0.3-0.2,0.7-0.3,1.1-0.3V82c-0.7,0.1-0.7,1.2-0.7,2.4v2c0,1.7-1.4,3.1-3.1,3.1
				c-1.9,0-3.4-1.1-3.4-2.8v-1.2c0-1.8,1.6-3.4,3.4-3.4H835.3z M832.7,83.2c-1.4,0-2.5,1-2.5,2.3v1.2c0,0.9,1,1.7,2.3,1.7
				c1,0,2.1-0.9,2.1-2.1v-2.5c0-0.2,0-0.5,0.1-0.6H832.7z"/>
			<path class="st1" d="M829,89.7c3.1,0.1,5.3,1.7,5.3,6v21.6c0,4-2.5,7.9-6,9.6c-1.2,0.6-2.2,0.9-3,0.9v-3.3
				c2.4-0.2,5.8-2.8,5.8-7.3v-20c0-3.5,0-7-2.1-7.2V89.7z"/>
			<path class="st1" d="M841.7,97.8c0-5.7-0.2-7.3-2-7.5v-0.4c3.5,0.1,5.2,2.2,5.2,6.2v31.8h-3.3V97.8z"/>
			<path class="st1" d="M868.8,82.2c-1.3,2.3-3.3,3.5-5.2,3.5c-1.4,0-2.8-0.7-3.7-1.8l0.1-0.1c0.7,0.9,1.8,1.4,3,1.4
				c1.7,0,3.6-1,4.9-3.4l0.3-0.6c-0.2,0-0.4,0.1-0.6,0.1c-1.8,0-3.1-1.7-3.1-3.1c0-0.4,0.1-0.8,0.3-1.1l0.6-1c0.6-1,1.7-1.6,2.8-1.6
				c0.5,0,1,0.1,1.5,0.4l-0.4,0.9c-0.4-0.2-0.8-0.3-1.2-0.3c-0.8,0-1.5,0.4-1.9,1.1l-0.5,1c-0.1,0.2-0.2,0.4-0.2,0.6
				c0,0.8,0.8,2,2.1,2c0.5,0,0.9-0.2,1.3-0.5l1.7-3.1l-1.4-0.8l0.4-0.9L872,76c0.3,0,0.7,0.1,1,0.3l-0.1,0.1c-0.1,0-0.2,0-0.2,0
				c-0.5,0-0.9,0.9-1.4,1.7l-0.9,1.6L868.8,82.2z"/>
			<path class="st1" d="M878.3,105.6c0.8-0.5,1.9-0.7,3.1-0.8v0.5c-2.1,0.3-2.1,3.7-2.1,7.2v6c0,5.2-4.3,9.3-9.4,9.3
				c-5.4,0-10.2-3.6-10.2-8.3v-3.6c0-5.5,4.8-10.3,10.3-10.3H878.3z M870.6,108.8c-4.3,0-7.4,3.2-7.4,7v3.6c0,2.6,2.9,5.1,6.8,5.1
				c3.3,0,6.2-2.8,6.2-6.1v-7.6c0-0.9,0-1.4,0.3-2H870.6z M866.2,101.3l-2.9-2.9l2.9-2.8l2.9,2.8L866.2,101.3z M872,101.3l-2.9-2.9
				l2.9-2.8l2.9,2.8L872,101.3z"/>
			<path class="st1" d="M917.1,127.8c-3.4,0-6.6-1.6-8.3-4.5c-1,2-4.5,4.5-8,4.5h-17.1v-3.3h10.9v-13.1c0-3.7-0.2-7.2-2.2-7.5v-0.5
				c3.4,0.2,5.5,1.8,5.5,6.2v14.9h2.9c3.8,0,6.8-3.3,6.8-7.7V96.2c0-3.8-0.1-7.1-2.1-7.4v-0.5c3.3,0.1,5.4,1.8,5.4,6.1v24.7
				c0.3,3.3,2.8,5.2,6.2,5.5V127.8z"/>
			<path class="st1" d="M950.5,93.9c0.1,0.4,0.2,0.8,0.2,1.1c0,0.9-0.6,1.7-1.9,2.2l-4.9,1.9c-1.5,0.6-2.8,1.1-2.8,2
				c0,0.1,0,0.1,0,0.2l-0.2,0.1c-0.1-0.4-0.2-0.8-0.2-1.1c0-0.9,0.5-1.7,1.9-2.3l4.9-1.9c1.7-0.7,2.8-1.1,2.8-2.2L950.5,93.9z"/>
			<path class="st1" d="M959.6,127.8H917v-3.3h2.8c0.6-0.3,0.9-1.1,0.9-2.5c0-3.4-0.8-6.6-3.2-8.8l0.4-0.3c2.2,2.1,3.7,4.7,4.4,7.3
				c0.7-8.2,8.8-14.5,19.3-14.5h6.9c6.1,0.5,11.2,6.1,11.1,12.4V127.8z M956.3,124.5V118c0-3.8-1.7-6.5-5.1-8.1
				c-1.4-0.6-3.3-0.9-6.2-0.9h-3.4c-11.1,0-18.8,6.2-18.8,14.5v1H956.3z"/>
		</g>
	</g>
</g>
<g>
	<path class="st1" d="M896.2,225.7c0-1,0.2-2.1,0.4-2.7l1.5-0.5l0.2,0.1c-0.2,0.8-0.2,1.6-0.2,2.2c0,2.4,0.9,4,4.2,4
		c2,0,3.4-0.5,4.4-1.7c0.3-0.6,0.6-1.8,0.6-3.7v-13.1l1.7-0.4l0.2,0.1l0,13.2c0,5.4-2.5,7.5-7.2,7.5
		C898.1,230.7,896.2,228.6,896.2,225.7z"/>
	<path class="st1" d="M920.7,225c0,0.4-0.2,1.2-1.4,1.2c-1,0-1.6-0.3-2-0.6c-0.7,2.2-3.3,4.2-7.2,4.9l-1-1.4l0.1-0.2
		c4.7-0.9,6.4-2.8,6.8-4.6c-0.4-1.1-1.1-2.6-1.8-4l1.4-1.5h0.2c0.6,1.7,1.2,3.1,1.4,3.7c0.6,1.6,1,1.9,2.5,1.9
		C920.5,224.4,920.7,224.6,920.7,225z M915.6,216l-2-1.4l1.2-1.8l2,1.3L915.6,216z"/>
	<path class="st1" d="M919.7,224.4h0.2c1.2,0,2.1-0.1,2.5-0.3c0.5-1.2-0.3-2.9-1.1-4.7l1.6-1.2h0.2c0.8,1.7,1.2,3.3,1.2,4.3
		c0,1-0.5,2.2-1.2,2.9c-0.6,0.6-1.6,0.8-3.8,0.8h-0.2L919.7,224.4z M920.8,214.1l1.2-1.8l2,1.3l-1.2,1.8L920.8,214.1z"/>
	<path class="st1" d="M930.5,208c-1.2,0.1-2.7,0.3-4.6,0.3l-0.1-1.3c0.3,0,0.7,0,1.1,0c-0.3-0.4-0.4-0.9-0.4-1.4
		c0-1.2,0.7-1.9,2-1.9c0.5,0,1.1,0.1,1.7,0.3l-0.3,1.2c-0.5-0.1-0.8-0.2-1.1-0.2c-0.6,0-0.9,0.4-0.9,0.9c0,0.4,0.2,0.7,0.5,1
		c0.8,0,1.5-0.1,2.2-0.2L930.5,208z M929.2,209.8l0.1,0.1l0,16.1l-1.7,0.4l-0.1-0.1v-16L929.2,209.8z"/>
</g>
</svg>
