<?xml version="1.0" encoding="utf-8"?>
<!-- Generator: Adobe Illustrator 21.1.0, SVG Export Plug-In . SVG Version: 6.00 Build 0)  -->
<svg version="1.1" id="Layer_1" xmlns="http://www.w3.org/2000/svg" xmlns:xlink="http://www.w3.org/1999/xlink" x="0px" y="0px"
	 viewBox="0 0 383 311.9" style="enable-background:new 0 0 383 311.9;" xml:space="preserve">
<style type="text/css">
	.st0{fill:#CF5657;}
	.st1{fill:#FCD62F;}
	.st2{opacity:0.5;}
	.st3{fill:#AC3734;}
	.st4{fill:#63ADDF;}
	.st5{fill:#FFFFFF;}
	.st6{fill:#4D95C4;}
	.st7{fill:#EEEDED;}
	.st8{fill:#074E7A;}
	.st9{fill:#ADAAAA;}
	.st10{fill:#F2DA4A;}
	.st11{fill:#F9EE62;}
	.st12{fill:#59B747;}
	.st13{fill:#FFDEAB;}
	.st14{fill:#A64A30;}
	.st15{fill:#8E3D21;}
	.st16{fill:#F0C08B;}
	.st17{fill:#449D46;}
	.st18{fill:#461B12;}
	.st19{fill:#6B5127;}
	.st20{fill:#9E8B35;}
	.st21{fill:#425E35;}
	.st22{fill:#231F20;}
</style>
<g>
	<g>
		<g>
			<g id="XMLID_223_">
				<g>
					<path class="st0" d="M0,262.6l234.2-86.9l148.8,9.7L268.5,311.9L0,262.6z"/>
					<polygon class="st1" points="371.4,186.5 367.2,190.8 350.3,186.1 					"/>
					<path class="st1" d="M366.6,191.3c0.3,0-5.3,5-5.3,5l-9.4-3C351.9,193.3,366.2,191.3,366.6,191.3z"/>
					<path class="st1" d="M360.7,196.7c0.3-0.1-5.2,5.5-5.2,5.5l-11-3.3C344.6,198.8,360.4,196.8,360.7,196.7z"/>
					<polygon class="st1" points="354.6,202.6 348.1,209.3 347.2,209 336.5,205.1 					"/>
					<polygon class="st1" points="346.9,210 339.2,217.7 338.6,217.4 327.8,213 					"/>
					<polygon class="st0" points="346.8,190.3 239.6,272.5 75.5,250.9 241.3,180.3 					"/>
					<polygon class="st1" points="345.9,184.1 332,186.2 325.3,183.8 					"/>
					<polygon class="st1" points="338.3,218.2 329.1,227.2 328.2,226.8 317.6,221.4 					"/>
					<polygon class="st1" points="327.4,228.4 316.8,239 316,238.5 304.7,232.2 					"/>
					<polygon class="st1" points="320,182.3 306.6,183.9 300.5,181.4 					"/>
					<polygon class="st1" points="314.7,240.7 300.4,254.2 300.1,254.1 288.7,245.3 					"/>
					<polygon class="st1" points="298.7,256 281.3,272.8 269,261.4 					"/>
					<path class="st1" d="M278.2,180.3l18,0.4c-2.5,0.3-12.1,1.5-12.1,1.5L278.2,180.3z"/>
					<polygon class="st1" points="278.3,275.8 255.9,297.7 208.3,289.8 244.5,282.5 					"/>
					<path class="st1" d="M272.8,179.2c-0.5,0-8.1,0.8-11,1h0l-1.6-0.1l-4.2-2L272.8,179.2z"/>
					<path class="st1" d="M260.1,180.1l1.6,0.1c-0.7,0-1.1,0.1-1.1,0.1L260.1,180.1z"/>
					<path class="st1" d="M235.9,177.2l14.2,0.1c-0.2,0-4.1,0.6-8.6,1.1l-0.3,0l-0.2,0.1c0,0,0,0,0,0c-6,0.8-12.8,1.7-12.8,1.7
						L235.9,177.2z"/>
					<polygon class="st1" points="226.3,180.7 228.6,182.9 216.4,184.4 					"/>
					<polygon class="st1" points="213.6,185.1 215.1,187.8 202,189.3 					"/>
					<path class="st1" d="M202,289.1c0.1,0.3-39.9-7.2-39.9-7.2l34.3-6.4C196.4,275.5,201.9,288.8,202,289.1z"/>
					<polygon class="st1" points="201.1,192.6 186.4,194.7 199.6,189.8 					"/>
					<polygon class="st1" points="184.5,196.9 186.1,199.8 170.3,202.1 					"/>
					<polygon class="st1" points="149.1,210.1 167,203.6 167.8,207.5 					"/>
					<polygon class="st1" points="154.4,269 155.9,281 120.9,275.1 					"/>
					<path class="st1" d="M146.2,211.9l-0.2,4.2c0,0-19.2,2.9-19.5,2.9L146.2,211.9z"/>
					<polygon class="st1" points="121.8,222 120.8,226.9 98.5,230.2 					"/>
					<polygon class="st1" points="115.4,263.5 113.8,274.4 83.6,269 					"/>
					<polygon class="st1" points="93.2,233.6 90.2,239.7 65.6,243.5 					"/>
					<polygon class="st1" points="83,258.6 78.6,268.5 52.2,264.2 					"/>
					<path class="st1" d="M241.3,180.3L75.5,250.9l164.1,21.6l107.3-82.3L241.3,180.3z M243.7,278.4l-127.8-18.5l-32.4-4.7
						l-18.7-2.7l176.2-73.9c0,0,0,0,0,0c0.2,0,0.4,0,0.5-0.1l18.5,1.7l0.5,0.2c0,0,0.4,0,1.1-0.1h0l92.6,8.5L335.6,204l-19.4,15.7
						l-13.1,10.6l-16,13l-19.8,16L243.7,278.4z"/>
					<polygon class="st1" points="59.4,247.4 47.9,263.2 25,259 					"/>
				</g>
			</g>
		</g>
		<g class="st2">
			<g>
				<path class="st3" d="M325.6,190.6c1.2,0.5,34.2,5.4,20.2,14.2c-14,8.8-48.7,5.4-57.3,4.9c-8.6-0.5-8-1.2-23.6-3.7
					c-15.6-2.5-43.8-7.2-18.3-16.5c23.8-8.7,56.7-1.6,60.6-2.2C311.2,186.9,322.2,189.2,325.6,190.6z"/>
			</g>
		</g>
	</g>
	<g>
		<g>
			<g id="XMLID_222_">
				<g>
					<g>
						<path class="st4" d="M328.9,147.7c1.6,15.5-1,21.6-1,21.6l-0.3,0.1c1.8,4.8,3.6,9.7,3.8,10.8c0.3,2-3.3,5.6-3.3,5.6l-0.5,0.1
							c0-0.5-0.1-1-0.3-1.5c-3-3.5-8.4-5.6-8.4-5.6l0-0.3c-5,0.5-13.4,0.3-17.5,0.1c-0.4,0.4-2.3,2-4.3,3.9l-0.2-0.2
							c-4.8-2.5-6.6-7.1-5.6-8.9c0.4-0.7,1.2-2.6,2.1-4.8c0.1-1.4,0.4-6.4-0.3-12.3c-0.8-7.1-1-24.5-1-24.5l0.5-0.1
							c-1.3-5-2.2-12.8-2.9-20.3c-1.1-12.1-1.6-23.8-1.6-23.8c-4.4-0.3-11.5-8.9-11.5-8.9l5.1-3.7c-1.3-5.5-1.1-23.2-1-24.5
							c4.6,0.7,9.7,1.3,12.2,1.2c4.3-0.2,11.2-1,15.3-1.4c0.6,0,1.3-0.1,2.2-0.2l0,0.6c0,0,1.3,23.7,5.9,24.7c4.6,1,7.1-2.3,7.1-2.3
							l0.4,0.2c-1,2.3-2.2,4.1-2.2,4.4c0,0.2,1.1,1.7,2.9,1.6c0.2,9,1.1,51.2,1.1,51.2S327.5,134.9,328.9,147.7z"/>
					</g>
					<g>
						<path class="st4" d="M263.5,47.5c-0.1,1.8-1.9,17.8-2.8,18.6c-1,0.8-2.5,0.8-2.5,0.8h-0.1c0.5-9.6,1-17.9,1.2-20.1
							C260.5,47,262,47.2,263.5,47.5z"/>
					</g>
					<g>
						<path class="st4" d="M258.2,66.9c0,0,1.5,0,2.5-0.8c0.9-0.8,2.6-16.8,2.8-18.6c1,0.2,2,0.3,3,0.5c-0.2,1.9-3,23.3-4.1,24.6
							c-1.1,1.3-3.9,1.1-3.9,1.1l-0.5,0C257.9,71.4,258.1,69.1,258.2,66.9L258.2,66.9z"/>
					</g>
					<g>
						<path class="st5" d="M287.1,187.8c-0.3,2.3-1.9,3.4-4.4,4.1c-3.5,0.9-31.6,0.8-33.9-0.1c-2.3-0.8-4.3-3.6-4.4-5.4
							c-0.1-1.8,5.6-5.6,9.6-8.2c1.5-1,3.7-2,5.8-2.8c3.6-1.4,7-2.4,7-2.4l0.1-0.2c4.5,2.4,16.8,8.3,17.7,8.8c0.6,0.4,1.5,1.8,2.2,3
							v0C287.1,185.8,287.2,186.9,287.1,187.8z"/>
					</g>
					<g>
						<path class="st4" d="M266.8,172.9c0,0-3.5,1-7,2.4l0-0.1c-4.5-1.5-7.4-6.9-7.4-6.9s1.5-1.3,2.5-3c0.4-0.6,1.6-3.9,3.1-8
							c0.3-3.1-0.2-47.1-0.5-62.1c-0.1-5.6,0.1-13.7,0.5-21.6l0.5,0c0,0,2.8,0.2,3.9-1.1c1.1-1.3,3.9-22.6,4.1-24.6
							c2.5,0.4,4.9,0.8,6.2,1c1.6,0.3,4.6,0.8,7.9,1.3c-0.1,1.3-0.2,19,1,24.5l-5.1,3.7c0,0,7.1,8.6,11.5,8.9c0,0,0.4,11.7,1.6,23.8
							l-0.6,0c-0.7,3.6-2.3,16-2.3,16l-0.1,0c1.1,2,2.1,3.6,2.2,3.9c0.3,0.8,0.2,1.1-0.5,3.4c-0.7,2.3-0.3,38.1-0.4,40.2
							c1.8,2.9,3.6,5.7,4.2,6.4c1.2,1.3-4,5.7-5.1,6.6c0.1-0.9,0-2-0.3-3.2v0c-0.7-1.2-1.6-2.6-2.2-3c-0.8-0.5-13.2-6.5-17.7-8.8
							L266.8,172.9z"/>
					</g>
					<g>
						<path class="st5" d="M327.5,185.8c0.7,4.8-0.4,9-1,9.3c-0.7,0.3-11.2,2.6-23.5,2c-12.3-0.7-12.2-6.1-10.9-9
							c0.6-1.4,2.8-3.7,4.8-5.7c2-1.9,3.9-3.6,4.3-3.9c4.2,0.2,12.5,0.4,17.5-0.1l0,0.3c0,0,5.4,2.1,8.4,5.6
							C327.4,184.8,327.5,185.3,327.5,185.8z"/>
					</g>
					<g>
						<path class="st4" d="M324.5,66.2c0,2.1,0.1,3.8,0.1,4.5c-0.1,0.3-0.2,0.5-0.3,0.8c-0.2,0.5-0.4,1-0.6,1.4l-0.4-0.2
							c0,0-2.5,3.3-7.1,2.3c-4.6-1-5.9-24.7-5.9-24.7l0-0.6c1.2-0.1,2.5-0.3,4-0.5v0c0,0,1,17.8,4.3,18.8
							C320.7,68.4,323.9,66.5,324.5,66.2z"/>
					</g>
					<g>
						<path class="st4" d="M320.5,47.3c-0.1,0.6,3.8,12.2,3.9,18.8c-0.6,0.3-3.8,2.2-6,1.9c-3.3-1-4.3-18.8-4.3-18.8v0
							C318,48.8,318.4,47.6,320.5,47.3z"/>
					</g>
				</g>
			</g>
			<g id="XMLID_221_">
				<g>
					<path class="st6" d="M327.9,169.3c-0.1,0.4,4.3,10.5,4.3,10.5s-1.6,2.8-1.8,3.2c-0.2,0.4-2.7,2-2.7,2l-3-2.8l-2.7-2.3
						c0,0-3.2,2.1,0.2-0.3c3.4-2.4-1.1-17.6-1.3-19.3s-2.1-5.8-1.9-7c0.2-1.2,2.2-6,1.8-9c-0.4-3-4.7-18.9-4.7-18.9
						s-1.6-7.4-1.6-7.9c0-0.4,2.7-2.2,2.7-3.1c0-0.9-0.3-10-0.8-16.7c-0.5-6.7-2.1-41.6-2.1-41.6c0,0.2-8.9,9.1-12.5,12.7
						c4.7-5.2,10.9-16.5,10.3-16.3c-0.7,0.2-25,1.3-29.7,1.1c-4.7-0.1-19.3-3.7-19.3-3.7s10,20.8,11.4,23.5
						c-1.6-2.6-13.8-21.8-14.8-23.4l0.8-2.6l1.5,0.4c0,0,22.7,3.9,31.1,3.9c8.4,0,30.2-6,30.2-6l1,14.5l-0.2,10.6
						c0,0,0.5,0.2,0.3,3.5c-0.3,3.6,0.2,4.9,0.2,4.9s-0.3,7.1-0.4,10.1c-0.1,3,0.4,21.5,0.7,26c0.3,4.5-0.3,15.6-0.3,15.6
						s3.6,7.3,4.4,12.9c0.8,5.7,0.5,19.3,0.5,20.4C329.5,165.3,328,169,327.9,169.3z"/>
				</g>
				<g>
				</g>
			</g>
			<path class="st6" d="M284.4,85.1c0,0-0.5,19.2-0.8,21.3c-0.3,2.1-1.3,7.3-1,9.4c0.3,2.1,0.5,3.7,0.4,4.7c-0.1,1,0.6,13,0.9,14.8
				c0.3,1.8-0.8,1.9-1.4,7.3c-0.6,5.4-0.5,14.7-0.8,16.9c-0.3,2.2-0.2,5.3,0.2,5.8c0.4,0.5,2.3,4.8,2.1,5.2
				c-0.1,0.4-3.3,4.7-3.7,4.5c-0.4-0.2-7.3-2.3-7.6-2.4c-0.4-0.1-3.7,0.5-4.1,0.7c-0.4,0.1,14.8,6.3,17,8.8c2.2,2.5,3,4.9,3.2,4.6
				c0.2-0.3,3.7-4.6,3.7-4.6l-5.6-10.6l1-4.3l-0.1-9.5c0,0,0.4-22.1,0.9-23.6c0.5-1.6,0.1-2.2-0.1-2.6c-0.1-0.4-2.1-3.5-1.9-3.9
				c0.2-0.4,1.6-13,2.1-13.8c0.4-0.8,0.1-15.7,0-16.3c-0.1-0.6-0.4-10.1-0.4-10.1L284.4,85.1z"/>
			<path class="st7" d="M277,178.1c0,0.3,1.4,8.3-3.1,10.4c-4.5,2.1-22.9,1.2-23.8,1.2s-2.7,0.5-3,0.7c-0.3,0.2,2.4,1.3,2.7,1.3
				s34.4,0.7,36.2-1.3c1.8-1.9,1.5-6.8-0.5-8.4C283.6,180.5,277,178.1,277,178.1z"/>
			<path class="st7" d="M313,179.1c0.3,0.2,7.8,5.9,6.2,9.6c-1.6,3.6-18.4,7-18.5,7c-0.1-0.1,24.9,0.5,26.2-1.1
				c1.3-1.6,1.4-5.4,1.6-5.6c0.1-0.2-1.6-4.3-1.6-4.3s-4.9-4.7-6.7-5.4C318.4,178.6,313,179.1,313,179.1z"/>
			<g>
				<g>
					<path class="st8" d="M259.8,47.3c-0.1,0-0.1,0-0.2,0v0c-0.3,0-0.5-0.1-0.8-0.1c-0.1,2.2-0.7,10.3-1.1,19.8l-0.1,1.9
						c-0.1,1.6-0.2,3.2-0.2,4.8c-0.4,8.9-0.6,16.6-0.5,21.6c0.3,15.7,0.8,59.1,0.5,62l0,0.2l1-0.1c0.3-3.2-0.2-48.3-0.5-62.2
						c-0.1-5,0.1-12.7,0.5-21.6c0-1.6,0.1-3.2,0.2-4.8l0.1-1.9C259.1,57.6,259.6,49.6,259.8,47.3C259.8,47.3,259.8,47.3,259.8,47.3z
						"/>
				</g>
				<g>
					<path class="st8" d="M259.6,175.7c-4.6-1.5-7.6-6.9-7.7-7.1l-0.2-0.3l0.3-0.3c0,0,1.4-1.3,2.4-2.9c0.2-0.3,0.8-1.7,3.1-7.9
						c2.8-7.7,6.5-18,6.6-18.4l0.1-0.1c-0.1,0.4-2.9,11.1-5.7,18.9c-2.7,7.3-3,7.9-3.2,8.1c-0.8,1.2-1.8,2.3-2.3,2.8
						c0.7,1.2,3.3,5.2,7,6.4L259.6,175.7z"/>
				</g>
				<g>
					<path class="st8" d="M287.3,186.3c0,0-0.4-0.7-0.9-1.6l0.8-0.5c0.5,0.9,0.9,1.6,0.9,1.6L287.3,186.3z"/>
				</g>
				<g>
					<path class="st8" d="M286.4,184.8c-1.3-2.1-1.9-2.7-2.1-2.9c-0.4-0.2-3.6-1.8-7-3.5c-3.9-1.9-8.3-4.1-10.7-5.3l-0.4-0.2
						c-1.2-0.6-1.3-0.7-1.4-0.9l0.4-0.2l0.4-0.3c0.1,0.1,0.6,0.4,1.1,0.6l0.4,0.2c2.3,1.2,6.7,3.4,10.6,5.3c4.1,2,6.7,3.3,7.1,3.5
						c0.3,0.2,1,0.8,2.4,3.2L286.4,184.8z"/>
				</g>
				<g>
					<path class="st8" d="M287.2,188.3l-0.5-0.8c0,0,0.1,0,0.2-0.1c2.4-1.9,5-4.6,5.1-5.7c0-0.1,0-0.2,0-0.2
						c-0.6-0.7-2.2-3.2-4.2-6.5l-0.1-0.2c-1.7-2.8-3.6-7.3-4-7.7l0.2,0.2c0.4,0.2,1.4,1.8,4.6,6.9l0.1,0.2c1.6,2.5,3.5,5.7,4.1,6.3
						c0.2,0.2,0.3,0.5,0.3,0.9c-0.2,1.9-4.2,5.4-5.4,6.4C287.2,188.3,287.2,188.3,287.2,188.3z"/>
				</g>
				<g>
					<path class="st8" d="M287.5,174.8L287.5,174.8c0-0.7,0-4.6,0-9.6c0-15.4,0-29.3,0.4-30.8l0.2-0.7c0.5-1.7,0.5-1.9,0.3-2.4
						c-0.1-0.2-0.7-1.2-1.3-2.3l-0.9-1.6c-2.1-3.6-3.5-7.8-4-9.4l0.4,0.4c0.5,1.7,3.2,6.3,4.5,8.5l0.9,1.6c0.8,1.5,1.3,2.2,1.3,2.4
						c0.4,0.9,0.2,1.3-0.3,3.1l-0.2,0.7c-0.4,1.5-0.4,19.7-0.4,30.5c0,5.2,0,8.9,0,9.5L287.5,174.8z"/>
				</g>
				<g>
					<path class="st8" d="M287.2,127.2l-1-0.1c0-0.1,2-14.2,2.6-17.7l0.7,1.9C288.8,114.8,287.2,127.1,287.2,127.2z"/>
				</g>
				<g>
					<path class="st8" d="M258.2,67.4v-1c0,0,1.3,0,2.2-0.7c0.7-1,2.3-15.2,2.5-17.9v0l1.1,0.1l0,0c0,0.2-1.7,17.4-2.9,18.5
						C259.9,67.4,258.3,67.4,258.2,67.4z"/>
				</g>
				<g>
					<path class="st8" d="M258.7,74.2c-0.2,0-0.3,0-0.3,0l0.1-1c0.7,0,2.7-0.1,3.5-1c1-1.3,3.6-20.9,3.9-24l0.9,0.2l0.1,0.2
						c0,0.3-2.8,22.8-4.1,24.3C261.7,74,259.6,74.2,258.7,74.2z"/>
				</g>
				<g>
					<path class="st8" d="M293.6,135.5c-0.2-0.7-1.4-3.1-1.6-3.9c-1.4-5.6-2.4-14.2-2.9-20.4c-1-10.7-1.4-21.2-1.5-23.4
						c-4.6-0.8-11.1-8.7-11.4-9l0.7-0.6c0.1,0.1,7,8.4,11.2,8.7l0.4,0l0,0.4c0,0.1,0.4,11.9,1.5,23.8c0.6,6.2,1.5,14.7,2.9,20.2
						c0.2,0.8,0.4,1.6,0.6,2.2L293.6,135.5z"/>
				</g>
				<g>
					<path class="st8" d="M293.7,169l-1-0.2c0,0,0-0.1,0-0.4c0.1-1,0.4-6.1-0.3-12.3c-0.8-7-0.9-27.3-0.9-27.4l0.9,2.8
						c0,0.2,0.2,17.5,1,24.5c0.7,6.3,0.4,11.4,0.3,12.4C293.7,168.8,293.7,169,293.7,169z"/>
				</g>
				<g>
					<path class="st8" d="M296.5,182.6c-2.9-1.5-5.1-3.9-5.8-6.5c-0.4-1.2-0.4-2.3,0-3c0.3-0.6,1.1-2.3,2.1-4.8
						c1.8-4.3,2.9-7.5,3-7.9l0.3-0.9c0,0.8-2.1,8.4-2.4,9.1c-0.7,1.8-1.7,4-2.1,4.8c-0.3,0.5-0.3,1.3,0,2.3c0.6,1.8,2.3,4.3,5.4,5.9
						L296.5,182.6z"/>
				</g>
				<g>
					<path class="st8" d="M310.3,179.2c-3.4,0-6.8-0.1-9.1-0.2c-2.5-0.1-2.7-0.2-2.8-0.3l0.3-0.4l0.2-0.4c0.1,0,0.9,0.1,2.4,0.2
						c4.3,0.3,12.6,0.4,17.5-0.1c0.9-0.1,2,0.1,2.6,0l0.1,0.6c-0.7,0.2-1.6,0.3-2.6,0.4C316.5,179.1,313.4,179.2,310.3,179.2z"/>
				</g>
				<g>
					<path class="st8" d="M327.5,185.4c-0.2-0.3-0.4-0.5-0.6-0.8c-2.9-3.3-8.9-5.5-9-5.5l1.1-0.9c0.2,0.1,5.6,2.2,8.6,5.7
						c0.2,0.3,0.4,0.6,0.6,0.8L327.5,185.4z"/>
				</g>
				<g>
					<path class="st9" d="M307.5,197.7c-1.5,0-3,0-4.5-0.1c-5.9-0.3-9.6-1.7-11.2-4.2c-1.3-2.1-0.6-4.3-0.1-5.5
						c0.5-1.2,2.2-3.2,4.9-5.9c1.7-1.7,3-2.6,3.6-3.1l0.2,0.1l1.2-0.2l-0.3,0.3c-0.6,0.6-2.3,2.1-4.1,3.7c-2.6,2.6-4.2,4.5-4.7,5.6
						c-0.4,1-1,2.9,0.1,4.6c1.3,2.2,4.9,3.5,10.4,3.8c12,0.6,22.5-1.5,23.3-1.9c0.4-0.4,1.4-4.4,0.7-8.8c0-0.5-0.1-0.9-0.3-1.5
						l0-0.1l1,1.1l-0.1-1.3c0.2,0.7,0.3,1.2,0.3,1.7c0.7,4.6-0.3,9.3-1.2,9.8C326.2,195.9,317.9,197.7,307.5,197.7z"/>
				</g>
				<g>
					<path class="st8" d="M328.4,186.1l-0.7-0.7c1.3-1.3,3.4-3.9,3.2-5.2c-0.2-1.1-2.8-8.1-3.7-10.7l-0.4-1.1
						c-1.6-4.3-2.5-9.1-2.6-9.9l0.5,0.8c0.1,0.8,1.6,4.8,3.1,8.8l0.4,1.1c2.5,6.7,3.6,10,3.8,10.9
						C332.2,182.3,328.8,185.7,328.4,186.1z"/>
				</g>
				<g>
					<path class="st8" d="M328.2,170.3l-0.8-1.2c0-0.1,2.6-6.2,1-21.3c-1.3-12.6-3.4-17.6-3.4-17.6l0-0.2c0,0-0.5-42.7-0.7-51.7
						v-1.9l0.6,2.1v0.3c0.2,8.7,1,48.9,1.1,51.1c0.3,0.7,2.2,5.8,3.5,17.8C331,163.1,328.3,170,328.2,170.3z"/>
				</g>
				<g>
					<path class="st8" d="M318.4,70.2c-0.2,0-0.4,0-0.5,0c-3.5-1.1-4.4-15.8-4.6-18.8l0.9-0.1c0.4,6.7,1.7,17.3,3.9,18
						c2,0.3,6.2-2,6.5-2.2l-0.3,1.1c0,0,0,0-0.2,0.1C323.6,68.5,320.7,70.2,318.4,70.2z"/>
				</g>
				<g>
					<path class="st8" d="M318.2,76.8c-0.6,0-1.2-0.1-1.8-0.2c-4.8-1-6.1-22.8-6.2-25.3l0.9-0.1c0.5,9,2.4,23.7,5.5,24.4
						c4.3,0.9,8.1-3.2,8.1-3.3l-0.8,1.7C323.9,74.3,321.9,76.8,318.2,76.8z"/>
				</g>
				<g>
					<path class="st8" d="M293.2,83.6l-0.2-0.1c0.4-0.6,9.1-9.2,16.5-10.7l0.1,0.9C302.7,75,293.9,82.8,293.2,83.6z"/>
				</g>
				<g>
					<path class="st8" d="M281,50.7c-0.3,0-0.6-0.1-1-0.2c-0.1,2.5-0.2,19,1.1,24.3l0.4-0.1C280.3,69.7,280.9,53.4,281,50.7z"/>
				</g>
				<g>
					<path class="st8" d="M290.7,73.6c-0.7-5.2,1.5-21.6,1.6-22.2l1,0.2c0,0.2-2.9,17-2.2,22L290.7,73.6z"/>
				</g>
				<g>
					<path class="st8" d="M287.6,187.8l-1-0.1c0.1-0.9,0-1.9-0.3-3.1l0-0.1h1C287.6,185.7,287.7,186.8,287.6,187.8z"/>
				</g>
				<g>
					<path class="st9" d="M266.6,193c-8.2,0-16.6-0.3-18-0.8c-2.5-0.9-4.6-3.9-4.7-5.8c-0.1-1.8,3.5-4.5,9.8-8.6
						c1.3-0.9,3.3-1.9,5.9-2.9c3.5-1.4,6.3-2.3,6.3-2.3l1,0.7c0,0-3.5,1.1-7,2.4c-2.5,1-4.4,1.9-5.7,2.8c-2.8,1.8-9.4,6.2-9.4,7.8
						c0.1,1.6,1.9,4.2,4.1,5c2,0.7,29.9,1.1,33.6,0.1c2.6-0.7,3.8-1.8,4-3.7l1,0.1c-0.4,3-2.7,4-4.7,4.5
						C281.2,192.8,274,193,266.6,193z"/>
				</g>
			</g>
		</g>
		<g>
			<path class="st8" d="M325,81.6l-1.1,0.6c1-8.9,0.2-18.3,0-23.7l-0.1-2.1c-0.1-2.7-0.6-6.2-1.1-9.1l-0.3-2
				c-0.4-2.2-0.4-2.8-0.3-3.2l0.9-1l-0.1,0.2l0.1,1.2c0,0.3,0.2,1.9,0.3,2.5l0.3,2c0.5,2.9,1,6.5,1.1,9.3l0.1,2.1
				C325.1,64.6,325.9,73.4,325,81.6z"/>
		</g>
		<g>
			<g>
				<path class="st10" d="M246.9,50.4c5.4,5,8.6,17.4,8.6,17.4c-3.1,1.1-7,4.1-7.9,4.9c-0.1-0.8-0.2-1.5-0.3-2.2
					c-1.1-6.6-4.9-10.8-6.4-11.8C245.7,57.1,246.9,53,246.9,50.4z"/>
				<path class="st10" d="M248.6,80.9L248.6,80.9c-0.5-0.8-0.7-1.4-0.7-1.4l-0.4,0c0.1-1,0.2-1.9,0.2-2.8c2.5,0.4,12.9,0.5,12.9,0.5
					l-1.2,3.7L248.6,80.9z"/>
				<path class="st11" d="M308.1,64.1c1,1.2,2,2.4,2.8,3.3c1.4,1.7,2.3,2.7,2.3,2.7c0,1.1-0.5,3.5-2.4,6.7h0
					c-0.8,1.3-1.8,2.8-3.2,4.4c-3.9,3.8-10.8,5.5-15.6,6.2c-3.1,0.5-5.3,0.5-5.3,0.5s-1.4-4.5-3.5-9.7c-0.2-0.5-0.4-1.1-0.7-1.6
					l0.2-0.1C306.7,75.1,308,64.1,308.1,64.1L308.1,64.1z"/>
				<path class="st12" d="M323.3,36.9c0,0,3.3,17.9-12.2,30.2l-0.2,0.2c-0.8-0.9-1.7-2.1-2.8-3.3c-0.1-0.2-0.3-0.3-0.4-0.5l0,0
					c0,0,4.1-5.8,7-12.7c2.6-6,1.6-14.5,1-18.3L323.3,36.9z"/>
				<path class="st12" d="M307.7,63.5c0.1,0.2,0.3,0.3,0.4,0.5l-0.1,0.1c0,0-1.4,11-25.4,12.4l-0.2,0.1c0.2,0.5,0.5,1.1,0.7,1.6
					l-0.2,0.1c0,0-16.1,2.2-23.5,2.5l1.2-3.7c0,0-10.4-0.1-12.9-0.5c0-1.4,0-2.7-0.2-4c0.9-0.8,4.8-3.8,7.9-4.9
					c0,0-3.2-12.4-8.6-17.4c0-1.2-0.2-2.1-0.4-2.4c-0.8-1-2.6-3.2-6.7-11.6c-1.2-2.6-3.1-4.8-5.3-6.8l0.4-0.4c0,0,33.6-8.5,52.4-5.9
					c17.3,1.2,28.1,7.3,28.1,7.3s0.2,0.8,0.4,2c0.7,3.8,1.6,12.3-1,18.3C311.8,57.7,307.7,63.5,307.7,63.5L307.7,63.5z"/>
				<path class="st13" d="M299.5,129.2c0,0.6,0.1,1.2,0.2,2c-2.2,1.8-5.5,0.2-4.8-1.5c0.6-1.5,5.4-8.3,6.4-9.6
					C300.3,123.7,299.4,127.5,299.5,129.2z"/>
				<path class="st13" d="M319.3,135.6c1.4,2.3,1.1,3.5,0.9,4.4c-0.1,0.7-1.4,0.8-2.9-0.2c-0.1,1.4-1.1,4.1-3.4,2.8
					c-0.2-0.1-0.3-0.3-0.5-0.4l-0.1,0.1c0,0-0.6,2.6-3.5,1.1c-0.3-0.2-0.5-0.4-0.7-0.7l-0.2,0.2c0,0,0,0-1.1,0
					c-5.3-1.1-7.5-7.7-8.2-11.8c-0.1-0.8-0.2-1.4-0.2-2c-0.1-1.7,0.8-5.5,1.7-9c0,0,0,0,0,0c1-3.8,2.1-7.3,2.1-7.3l-0.6-2
					c-0.9-4-10.2-23.2-10.7-23.4v-0.1c4.8-0.7,11.7-2.4,15.6-6.2c1.4-1.6,2.5-3.1,3.2-4.4h0l0,0c4.1,17.7,1.1,35.5,2.5,37.1
					c3.7,3.5,4.4,9.3,4.8,11.6C318.4,127.8,318,133.3,319.3,135.6z"/>
				<path class="st13" d="M222,108.6c-1.4,0.2-3.4-1.4-4-2c2.2-0.4,4.6-1,7.1-1.9C225,105.6,223.5,108.4,222,108.6z"/>
				<path class="st13" d="M223.4,62.5c0.9-5.4,8.7-12.9,16.2-3.2l0.3-0.3c0.3-0.1,0.7-0.2,0.9-0.3c1.5,1,5.3,5.2,6.4,11.8
					c0.1,0.7,0.2,1.4,0.3,2.2c0.1,1.2,0.2,2.6,0.2,4c0,0.9-0.1,1.9-0.2,2.8c-0.6,5.2-2.8,10.9-7.6,16.1c-1.5,1.6-3.2,3.1-5.2,4.6
					c-3.2,2-6.5,3.5-9.6,4.7c-2.4,0.8-4.8,1.5-7.1,1.9c-9.1,1.7-15.9,0.5-15.9,0.5l0,0c2.5-1.7,4.7-3.7,6.4-5.4
					c3.4-3.2,3.6-0.9,9.4-3.4c7.1-3.8,5.7-9.8,5.5-13c-0.2-3.1,0.5-1.4,4-4.8c4.3-5.9-2.1-9.6-2.1-9.6l0.4-0.5
					C224.8,69.5,222.6,67,223.4,62.5z"/>
				<path class="st13" d="M267.4,128.5c2.2,5,1.3,8.7,0,9c-0.3,0.1-0.7-0.1-1.2-0.4l-0.1,0.1c0,0,0.2,0.4-1.1,1
					c-0.8,0.1-2-0.5-3.1-1.3l-0.3,0.3c-1.7,0.2-4-1.8-6.8-4.6c-0.3-0.3-0.6-0.8-0.9-1.2l-0.3,0.1c-2.9-2-3.2-5.2-3.1-8.1
					c0.1-3,1.1-11.8,1-12c-0.1-0.2-11.6-15.9-11.6-15.9l0,0c4.8-5.2,7-10.9,7.6-16.1l0.4,0c0,0,0.3,0.6,0.7,1.5
					c2,4.2,7.7,16.4,8.9,22.5c0,0,6.2,2.4,9,4.6c2.8,2.2,2.6,1.7,2.9,2.6c0.3,0.9,0.8,5.8,2.1,7.1c1.3,1.3,3.5,4.6,1.1,5.4
					c-2.3,0.8-5.1-0.4-6.4-3.9C266.2,122.1,266.5,126.7,267.4,128.5z"/>
				<path class="st14" d="M240.9,58.7c-0.3,0.1-0.6,0.2-0.9,0.3l-0.3,0.3c-7.5-9.6-15.3-2.2-16.2,3.2c-0.8,4.5,1.4,7.1,2.4,8
					l-0.4,0.5c0,0,6.3,3.6,2.1,9.6c-3.5,3.4-4.2,1.7-4,4.8c0.2,3.1,1.6,9.2-5.5,13c-5.8,2.5-6,0.3-9.4,3.4c-1.7,1.6-3.9,3.7-6.4,5.4
					c-2.4,1.5-5.1,2.7-8.1,2.6c-6.1,0-8.9-2.8-10.2-5.1c-0.5-0.7-3.7-0.4-4.9-0.3c-1.3,0-14.8,0.8-20.4-6.5c-5-5.9-7.1-7.9-9.5-10
					c-2.4-2.1-4.5-7.2-5-12.3c-0.5-5.1,0.4-9.7,3.1-13c2.7-3.3,4.6-4.6,4.8-13.2c0.1-4.7,1.2-9.2,3.3-13.4c0.6-1.2,1.3-2.3,2-3.4
					c3.1-4.8,6.8-8.8,11.2-12.3c1.2-1,2.5-1.9,3.7-2.8c1.5-1,3-2,4.6-2.9c3.6-2,7.6-3.3,11.7-4.1c3.8-0.8,7.7-1.2,11.5-0.3
					c2.3,0.6,4.7,1.5,6.8,2.6c-0.8-2.2-3.7-9-8.5-9.3c0,0,8.6-6.6,16.2,0.2c5.4,5.4,4.4,10.9,4.4,10.9s9.1-6.3,14.6,3.6
					c0,0-7.7-1.3-12.3,3.4c0,0,7.6,2.8,13.5,8.1c2.2,1.9,4.1,4.2,5.3,6.8c4.1,8.4,6,10.6,6.7,11.6c0.2,0.3,0.4,1.2,0.4,2.4
					C246.9,53,245.7,57.1,240.9,58.7z"/>
			</g>
			<path class="st15" d="M217.7,15.7c3-5.2-1.3-11.2-5.8-13.6c-2-1.1-4.6-1.1-6.8-0.7c-2,0.4-4.6,0.5-6.3,1.8c2.1,0,5.1,2.9,6.2,4.5
				c1.1,1.7,1,3.4,1,5.3c-1-1.6-5-3.3-7.1-2.9c-2.5,0.5,0.2,3.3-0.6,5c7.3,0,11.8,9,13.8,15c1.5,4.3,2.1,10.2,0,14.4
				c-0.5,1.1-1.4,1.9-2.1,2.9c-0.9,1.3-0.4,1.6,0.6,2.7c0.9,1,1.7,2,2.3,3.2c1.7,3.2,2.9,7.1,2.6,10.8c-0.2,3.3-1.4,7.7-4,9.9
				c-1.5,1.3-3.2,1.3-4.9,1.9c2.4,1.9,2.2,6.2,2.1,8.9c-0.2,5.4-2.7,11.3-6.9,14.9c-4.6,4-12.7,5.9-18.6,3.8
				c0.3,1.1,1.8,2.5,2.5,3.5c1.1,1.5,1.9,1.3,3.7,2c2.5,1,6,0.8,8.6-0.2c2.7-1.1,5.2-1.5,7.2-3.6c1.2-1.3,1.9-3.2,3.1-4.2
				c1.2-1,2.9-1.3,4.4-1.7c4.1-0.9,8.2-2.1,10.4-6c1-1.8,1.1-3.9,0.8-5.9c-0.2-1.6-0.6-3.2,0.6-4.5c0.8-0.9,2-1.2,2.7-2.3
				c0.8-1.2,1.8-2.6,1.5-4c-0.3-1.6-0.2-3.9-1.7-4.9c-1.7-1.3-2.8-2.5-2.9-4.8c-0.2-5.6,2.6-13.2,9.2-12.6c1.3,0.1,2.1,0.7,3.2,1.6
				c1.2,1,2,2.8,3.7,2.9c1.8,0.1,3.9-1.7,5-3c1.3-1.6,2.2-4,2.2-6.1c0-1.1-0.8-1.4-1.4-2.4c-0.9-1.5-1.6-3.1-2.5-4.6
				c-1.5-2.6-3.2-5.6-4.7-8.2c-1.5-2.7-3-3.9-5.4-6c-2.2-1.9-4.2-3.3-6.9-4.4c-2.3-0.9-4.2-2.3-6.6-2.2c4.4-3.6,8.5-3.5,13.9-3.8
				c-0.5-1.8-1.8-3.1-3.3-3.9c-1.4-0.7-2.8-1.5-4.5-1.3c-3.1,0.3-5.5,0.8-8.2,2.2c0.3,0,0.4-0.2,0.6-0.3"/>
			<path class="st15" d="M190.5,23.9c-0.9-0.1-1.1,1.2-0.8,2c0.5,1.1,1.9,1.9,2.8,2.6c1.5,1.1,3.1,1.9,4.4,3.2
				c2.3,2.2,1.6-2.1,1-3.4c-0.8-1.6-2-3.3-3.5-4.3c-0.5-0.3-1.4-0.8-1.9-0.9c-0.9-0.2-1.6,0.3-2.4,0.4"/>
			<path class="st15" d="M178.9,43.4c0.2,2.9,3.9,4.2,6,5.3c0.8,0.4,1.6,1,1,1.8c-0.6,0.8-2.2,0.5-3.1,0.6c-2.4,0.1-3.8-0.4-5.7-2.1
				c-1.4-1.2-2.7-2.7-2.9-4.6c-0.1-1.6,0.7-2.9,2.3-2.9c1.6,0,2.2,1.3,2.8,2.6"/>
			<path class="st15" d="M165.4,42.5c-1.6,3.9-1.9,7.9-0.7,11.9c1.1,3.7,2.4,7.2,3.9,10.7c1.1,2.7,2.6,4.9,4.9,6.8
				c1.1,0.8,3.3,1.9,3.5,3.3c-2.3,1.2-5.6-0.5-7.8-1.4c-2.9-1.2-4.7-2.7-6.4-5.2c-1.4-2-2.8-3.1-3.3-5.5c-0.5-2.2-1-4.4-1.3-6.7
				c-0.1-1.3-0.6-2.6-0.6-3.9c0-1.2,0.5-2.2,0.4-3.4c-0.3-2.2,0-3.7,0.9-5.8c0.8-1.7,2-3.4,3.8-3.9c2.2-0.6,2.7,1.3,2.6,3.2
				c-0.1,0.8-0.6,1.5-0.6,2.3"/>
			<path class="st16" d="M207.1,102.3c3.2,3.6,8.2,0.8,11.8-0.8c4-1.7,8.3-3.9,12.7-3.7c1.1,0,2,0.4,2.9,0.9c1,0.6,1.1,0.6,2.2-0.1
				c2.3-1.6,4.3-4.2,5.7-6.7c2.6-4.7,4.4-9.1,4.9-14.5c0.4-4.5-0.5-7.8-2.5-11.8c-1-2-1.8-3.9-3.4-5.4c-1.3-1.3-5.1-4.9-7.4-5.5
				c-2-0.5-2.4-0.7-4.3,0.2c-2.5,1.1-3.8,3.1-5.1,5.3c-1.3,2.3-1.3,4.1-0.7,6.8c0.5,2.3,2.8,4.4,4,6.2c1.2,1.8,0.8,4.6,0.2,6.7
				c-0.3,1.1-2.7,0.7-4.5,4.2c-0.8,1.6,0.1,3.9,0.1,5.7c0,2-0.8,4.5-2.3,5.8c-1.6,1.4-2.5,2-4.4,2.9c-1,0.5-2.9,0.8-3.9,1.1
				c-0.9,0.3-1.8,0.3-2.7,0.8c-0.8,0.4-2.5,2.5-3,2.5"/>
			<path class="st16" d="M240.1,95.8c3.9,1.3,4.7-3.3,7.4-4.7c2.8-1.4,5.3,2.3,6.2,4.5c1,2.7,2.6,5.2,3.6,7.9
				c0.3,0.9,0.7,1.7,1.1,2.5c0.4,1.1,0.3,2.2,0.5,3.4c0.8,5.6,3.2,11,4,16.6c0.3,2.5,0.5,4.8,2,6.9c0.6,0.8,1.3,1.4,1.8,2.3
				c0.3,0.5,0.4,2.1,1.2,1.6c0.7-0.4,1-2.8,0.9-3.4c-0.2-1.5-0.5-1.8-0.7-3.3c-0.4-2.6-1.4-7.1-1.2-9.8c0.9,1.5,3.4,3.5,5.4,3.1
				c2.7-0.5,1.1-3.2,0.2-5c-1.1-2-1.8-4-2.1-6.2c-0.3-2-1.5-3-3.3-4c-1.7-1-3.4-1.9-5.2-2.7c-1.5-0.7-3.3-1.3-3.8-3
				c-0.5-1.8-1.5-3.5-2.1-5.3c-0.8-2.1-1.3-4.3-2-6.4c-1-3-3-5.5-4.1-8.3c-0.5-1.1-1-1.9-1.3-3.1c-0.2-1-0.6-1.9-1.1-2.8
				c0.2,1.7-0.2,3.4-0.6,5.1c-0.4,2-0.9,4.2-1.7,6.1c-0.7,1.8-1.7,3.3-2.9,4.8c-0.5,0.6-2.2,2.5-1.5,3"/>
			<path class="st16" d="M293.5,87.8c-1.4,3,6.4,1.4,7.5,1.4c2.8,0,3.9,4.6,4.3,6.8c0.7,3.2,1.9,6.2,2.9,9.4c1,3.1,1.4,6.3,1.9,9.5
				c0.8,5.5,4.1,10.2,4.7,15.8c0.2,2.1,0.3,3.8,1.6,5.5c0.5,0.7,2.7,4.4,3.3,3c0.3-0.7-0.3-2.4-0.4-3.1c-0.2-1.5-0.7-2.8-0.8-4.3
				c-0.1-2.1,0.1-4.2-0.2-6.3c-0.3-2.1-0.9-4.7-1.9-6.6c-0.9-1.6-1.2-3-3-4.6c-0.7-0.7-0.3-2.4-0.3-3.3c0.1-1.2,0-2.3,0.1-3.5
				c0.1-2.6,0.4-4.9,0.2-7.5c-0.5-5.8-0.1-11.7-1.3-17.4c-0.4-1.9-0.8-3.7-0.9-5.7c-2.3,2.8-5.2,5.7-8.5,7.2
				c-1.7,0.8-3.5,1.3-5.2,1.9c-0.8,0.3-3.4,0.9-3.7,1.6"/>
			<path class="st17" d="M244.3,45c-0.1-0.1-0.1-0.3-0.1-0.4c1-0.2,1.2,0.7,1.8,1.3c1.1,1.3,2.7,2.2,4.2,2.9
				c3.4,1.6,6.3,4.2,9.7,5.9c2.6,1.3,5.3,1.9,8.3,1.7c1.1-0.1,2.2-0.6,3.3-0.4c0.6,1.3,0.8,2.9,1.5,4.3c1.1,2.2,2.3,4.4,3.6,6.5
				c2.4,3.8,4.3,8,6.3,11.9c-4.8,0.3-9.4,0.5-14.2,1.5c-3.3,0.7-6.2,0.9-9.5,0.6c0.2-0.6,0.8-1.2,1-1.9c0.2-0.6,0.1-1.2,0.3-1.8
				c-2.3,0.1-4.7-0.4-7-0.2c-1.1,0.1-2.2,0.3-3.3,0.3c-0.9,0-1.7-0.3-2.5-0.2c0.4-1.4-0.1-3,0.2-4.3c0.3-1,2.2-1.7,3.1-2.2
				c1.2-0.7,2.4-1.5,3.6-2.4c1-0.7,0.3-1,0.3-2.1c0-2.3-0.3-3.5-1.9-5.2c-0.9-1-0.4-1.8-1.2-2.9c-0.9-1.3-1.4-4-2.5-5.2
				c-0.4-0.5-1.2-1.2-1.5-1.8c-0.5-0.7-0.5,0.3-0.6,0.5c-0.5,1.5,1-1-0.1-2.3c-0.7-0.8-0.8-1.6-1.4-2.4c-0.2-0.4-0.6-0.7-0.9-1
				c-0.3-0.3-0.8-0.7-0.5-0.7"/>
			<path class="st17" d="M295.2,75.1c0-0.7,0.6-1.3,0.8-1.9c0.4-1.1,0.5-2.3,0.5-3.5c0.1-2.2-0.2-4.5-0.6-6.6
				c-0.8-3.9-1.2-7.9-3.4-11.3c-0.9-1.4-1.5-3-2.3-4.4c-0.8-1.4-2.1-2.6-2.8-4.1c-0.5-1.1-1.2-2.4-0.2-3.2c1.1-0.9,3.3-1,4.6-1.1
				c2.9-0.2,5.7,0.3,8.6,0.5c3,0.1,5.9,0,8.9,0.1c2,0.1,4.8-0.6,6.6,0.1c1,0.4,1.3,0.8,2.5,0.8c1,0,2-0.1,2.9,0.2
				c2.7,0.8,2.6,3.1,2.2,5.5c-0.5,3.3-1.7,6.6-2.8,9.8c-0.9,2.6-2.7,4.7-4.7,6.6c-1.2,1.2-2.8,3.2-4.4,3.9c-0.9,0.4-0.9-0.2-1.9-0.8
				c-0.7-0.5-1.1-1.1-1.8-1.6c0.3,2.6-3.4,5.6-5.2,6.8c-2.3,1.6-5,2.7-7.4,4.2"/>
			<path class="st10" d="M299.1,72.6c2.9,0,6.3,0.8,7.4,3.8c0.6,1.6,0.1,2.9-0.1,4.3c1.8-0.3,3.6-2.3,4.6-3.7
				c1.1-1.4,1.6-2.8,1.9-4.5c0.1-0.5,0.7-1.5,0.5-2c-0.2-1-1.9-2.1-2.5-2.8c-1.2-1.1-2.7-2.3-3.4-3.8c-0.5,2.2-1.8,4.5-3.6,5.8
				c-0.7,0.5-4,2.9-4.4,2.8"/>
			<g>
				<g>
					<path class="st18" d="M240,59.4l-0.2-0.9c0.3-0.1,0.6-0.2,0.9-0.3c5.3-1.7,5.7-6.4,5.7-7.9c0-1.2-0.2-2-0.3-2.1l-0.3-0.3
						c-0.9-1.2-2.8-3.8-6.5-11.4c-1-2.3-2.8-4.5-5.2-6.6c-5.7-5.2-13.3-8-13.4-8l-0.7-0.3l0.5-0.5c3.8-3.9,9.4-3.8,11.7-3.7
						c-1.5-2.3-3.3-3.8-5.5-4.3c-4-0.9-7.8,1.6-7.9,1.7l-0.9,0.7l0.2-1.1c0-0.1,0.8-5.3-4.3-10.5c-5.8-5.1-12.2-2.2-14.6-0.8
						c4.2,1.2,6.7,6.9,7.6,9.4c0.2,0.5,0.3,0.7,0.3,0.7l-0.9,0.3c0,0-0.1-0.3-0.2-0.7c-0.8-2-3.6-8.7-8-9l-1.3-0.1l1-0.8
						c0.1-0.1,9-6.7,16.9,0.2c4.2,4.2,4.7,8.5,4.6,10.4c1.4-0.8,4.5-2.1,7.8-1.3c2.7,0.6,4.9,2.5,6.6,5.6l0.5,0.9l-1-0.2
						c-0.1,0-6.9-1.1-11.3,2.7c2.1,0.9,8.1,3.6,13,7.9c2.5,2.2,4.3,4.6,5.4,6.9c3.7,7.5,5.5,10,6.4,11.2l0.3,0.4
						c0.3,0.5,0.5,1.5,0.5,2.7c0,1.6-0.5,6.9-6.4,8.8C240.7,59.3,240.4,59.4,240,59.4z"/>
				</g>
				<g>
					<path class="st18" d="M194.1,110.2C194.1,110.2,194,110.2,194.1,110.2c-5.1,0-8.7-1.8-10.7-5.3c-0.3-0.3-3-0.2-3.8-0.1l-0.7,0
						c-3.6,0.2-15.6,0.1-20.8-6.7c-5.2-6.1-7.2-8-9.4-9.9c-2.6-2.2-4.7-7.4-5.1-12.6c-0.5-5.5,0.6-10.1,3.2-13.4
						c0.3-0.4,0.6-0.8,0.9-1.1c2.2-2.6,3.6-4.3,3.8-11.8c0.1-4.7,1.2-9.2,3.3-13.6c0.6-1.2,1.2-2.3,2-3.5c3-4.6,6.7-8.7,11.3-12.5
						c1.1-0.9,2.3-1.8,3.8-2.9c1.6-1.1,3.1-2.1,4.6-2.9c3.4-1.9,7.3-3.3,11.9-4.2c3.5-0.7,7.6-1.3,11.7-0.3c2.3,0.6,4.6,1.5,6.9,2.6
						l0.3,0.1l-0.4,0.9l-0.3-0.1c-2.2-1.1-4.5-2-6.7-2.6c-3.9-0.9-7.9-0.4-11.3,0.3c-4.5,0.9-8.2,2.2-11.6,4.1
						c-1.5,0.9-3,1.8-4.5,2.9c-1.5,1.1-2.6,2-3.7,2.8c-4.6,3.7-8.2,7.7-11.1,12.2c-0.7,1.1-1.4,2.3-1.9,3.4
						c-2.1,4.2-3.2,8.6-3.2,13.2c-0.2,7.8-1.8,9.7-4,12.4c-0.3,0.3-0.6,0.7-0.9,1.1c-2.4,3-3.4,7.4-3,12.7c0.4,4.9,2.5,9.9,4.8,11.9
						c2.6,2.2,4.8,4.4,9.6,10c5,6.4,16.6,6.5,20,6.3l0.7,0c2.7-0.1,4.2-0.1,4.7,0.6c1.9,3.2,5.2,4.8,9.8,4.9c0,0,0.1,0,0.1,0
						c2.5,0,5-0.8,7.8-2.6c2.3-1.5,4.4-3.4,6-5l0.3-0.3c2-1.8,3-2,4.4-2.1c1.1-0.1,2.5-0.3,5.1-1.4c6-3.2,5.6-8.2,5.3-11.4
						c0-0.4-0.1-0.8-0.1-1.1c-0.1-2,0.1-2.3,1.3-3c0.6-0.4,1.5-0.9,2.9-2.2c1.1-1.6,1.6-3.2,1.2-4.7c-0.6-2.6-3.2-4.1-3.2-4.1
						l0.5-0.8c0.1,0.1,3,1.7,3.7,4.7c0.4,1.8-0.1,3.6-1.4,5.5c-1.5,1.4-2.4,2-3.1,2.4c-0.9,0.5-0.9,0.5-0.8,2.1c0,0.3,0,0.7,0.1,1
						c0.3,3.3,0.8,8.9-5.9,12.4c-2.7,1.2-4.3,1.4-5.4,1.5c-1.4,0.2-2.1,0.2-3.9,1.9l-0.3,0.3c-1.7,1.6-3.8,3.5-6.2,5.1
						C199.5,109.3,196.8,110.2,194.1,110.2z"/>
				</g>
				<g>
					<path class="st19" d="M226.5,71c0,0-0.6,0.1-1-0.2c-1.1-0.9-3.5-3.6-2.6-8.4c0.5-3.2,3.4-7.1,7.2-8.1c2.4-0.6,6-0.3,9.9,4.6
						l-0.4,0.1l0.5,0.2l-0.4,0l-0.4,0.4l0-0.1l0,0c-2.8-3.6-5.8-5-8.9-4.3c-3.4,0.9-6,4.4-6.5,7.3c-0.8,4.3,1.3,6.7,2.3,7.5
						c0.2,0.2,0.4,0.7,0.4,0.7L226.5,71z"/>
				</g>
				<g>
					<path class="st19" d="M229.1,68.3c-0.7-0.9-0.7-3.1-0.3-4.1c0.3-0.8,1.1-2.7,2.7-3.6c1.4-0.8,2.5-0.4,3.1,0
						c0.9,0.6,1.3,1.1,1.2,1.6l-1-0.1c0,0-0.3-0.4-0.8-0.7c-0.6-0.4-1.2-0.4-2,0.1c-0.9,0.5-1.7,1.7-2.2,3.1
						c-0.3,0.8-0.8,3.1-0.4,3.7L229.1,68.3z"/>
				</g>
				<g>
					<path class="st19" d="M208.3,108c-3.8,0-6.2-0.4-6.2-0.4l0.2-1c0.1,0,6.8,1.2,15.7-0.5c2.3-0.4,4.6-1,7-1.9
						c3.4-1.2,6.6-2.8,9.5-4.6c2-1.4,3.7-2.9,5.1-4.5c4.2-4.5,6.8-10,7.5-15.8c0.1-0.9,0.2-1.9,0.2-2.8c0-1.3,0-2.6-0.2-3.9
						c-0.1-0.8-0.2-1.5-0.3-2.1c-1.1-6.5-5.7-10.4-7-11.3c-0.7-0.5-0.8-0.8-0.2-0.5l0.3-0.4c0.2,0,0.6-0.1,0.9,0
						c1.4,1,5.1,4.7,6.9,12c0.1,0.6,0.2,1.3,0.3,2.2c0.2,1.4,0.2,2.7,0.2,4c0,0.9-0.1,1.9-0.2,2.9c-0.7,6-3.4,11.7-7.8,16.3
						c-1.5,1.6-3.3,3.2-5.3,4.6c-3,1.9-6.3,3.5-9.7,4.7c-2.4,0.8-4.8,1.5-7.1,1.9C214.3,107.8,210.9,108,208.3,108z"/>
				</g>
				<g>
					<path class="st19" d="M221.7,109.1c-1.4,0-3.1-1.3-4.1-2.1c-0.1-0.1-0.2-0.2-0.2-0.2l0.7-0.7c0,0,0.1,0.1,0.2,0.1
						c1.5,1.3,2.8,2,3.6,1.9c1.2-0.2,2.6-2.6,2.6-3.5l0-0.2c0,0,0,0.1,0,0.2l0.9-0.4c0,0.1,0.1,0.3,0,0.6c-0.2,1.1-1.6,3.9-3.4,4.2
						C222,109.1,221.9,109.1,221.7,109.1z"/>
				</g>
				<g>
					<path class="st19" d="M253.3,131.9c-3.1-2.1-3.4-5.5-3.3-8.6c0.1-1.8,0.5-5.6,0.7-8.4c0.1-1.6,0.3-3,0.3-3.4
						c-0.6-0.9-8.5-11.6-11.5-15.7l0.8-0.6c11.6,15.7,11.7,15.9,11.7,16c0.1,0.2,0.1,0.2-0.3,3.8c-0.3,2.8-0.6,6.6-0.7,8.3
						c-0.1,2.8,0.1,5.8,2.9,7.7L253.3,131.9z"/>
				</g>
				<g>
					<path class="st19" d="M261.3,137.8c-1.9,0-4-1.8-6.9-4.8c-0.4-0.4-0.7-0.8-1-1.4c-1.9-3.5-1.6-9.7-1.6-9.9l0.6-0.1
						c0,0.1,0.1,6.3,1.9,9.6c0.2,0.4,0.5,0.8,0.8,1.1c2.4,2.4,4.8,4.7,6.4,4.5l0.1,1C261.5,137.8,261.4,137.8,261.3,137.8z"/>
				</g>
				<g>
					<path class="st19" d="M264.8,138.7c-0.9,0-1.9-0.5-3.2-1.4c-1.6-1.2-3.3-3-4.3-4.2c-1.7-2-2.3-10.3-2.2-11.1l0-0.2l0.2-0.2
						l0.6,0.8l-0.3-0.4l-0.1-0.4c-0.1,0.8,1.2,9.4,2.5,11c1,1.2,2.6,2.9,4.2,4c1.6,1.2,2.4,1.3,2.8,1.2c0.6-0.3,0.7-0.5,0.7-0.5
						s0,0.1,0,0.2l0.9-0.4c0,0.1,0.1,0.3,0,0.6c-0.2,0.4-0.6,0.7-1.4,1C265,138.7,264.9,138.7,264.8,138.7z"/>
				</g>
				<g>
					<path class="st19" d="M265.7,119.2l0-1.2c0-0.6,0-1,0-1.1l-0.1-3.1l0.4-0.1l0.6,3.1c0,0.1,0,0.3,0,1.2l0,1.2L265.7,119.2z"/>
				</g>
				<g>
					<path class="st19" d="M267.2,138c-0.5,0-0.9-0.3-1.3-0.5c-1.6-1.1-3.8-3.7-4.7-5.5c-1.3-2.5-2-10.2-2-10.5l0.4-0.1
						c0,0.1,1.2,7.9,2.4,10.2c1,1.9,3,4.3,4.4,5.1c0.6,0.3,0.8,0.3,0.8,0.3c0.2,0,0.4-0.2,0.5-0.5c0.7-1.3,0.7-4.3-0.8-7.8
						c-0.9-1.8-1.2-6.1-1.2-9.5l1,0c0.1,4.5,0.5,7.8,1.1,9c1.7,3.8,1.6,7.1,0.8,8.6c-0.4,0.7-0.8,1-1.2,1
						C267.4,138,267.3,138,267.2,138z"/>
				</g>
				<g>
					<path class="st19" d="M271.2,123.9c-2,0-4.3-1.3-5.5-4.4l0.2-0.2l-0.1-0.4l0.2,0.2l0.5-0.2l0.2,0.3l-0.1,0.1
						c1.3,3.2,3.8,4.1,5.7,3.4c0.5-0.2,0.6-0.5,0.7-0.7c0.2-1-1-3-2-3.9c-1-1-1.5-3.6-1.9-6.1c-0.1-0.6-0.2-1-0.2-1.2
						c-0.1-0.5-0.1-0.5-0.8-1c-0.4-0.3-1-0.7-1.9-1.4c-2.7-2.1-8.9-4.5-8.9-4.5l-0.2-0.1l-0.1-0.3c-1.3-6.1-7.1-18.7-8.9-22.4
						l-0.7-1.4l0.5-1.2l1.1,2.2c1.7,3.7,7.5,16,8.9,22.4c1.2,0.5,6.3,2.6,8.9,4.5c0.9,0.7,1.5,1.1,1.8,1.4c0.9,0.6,1,0.7,1.2,1.4
						c0.1,0.3,0.2,0.8,0.3,1.4c0.3,1.7,0.8,4.7,1.7,5.6c1.1,1.1,2.6,3.3,2.2,4.9c-0.1,0.5-0.4,1.1-1.3,1.3
						C272.2,123.8,271.7,123.9,271.2,123.9z"/>
				</g>
				<g>
					<path class="st20" d="M255.9,67.7c-0.1-0.5-3.3-12.6-8.7-17.6l0.1,1.6c4.6,4.4,6.9,13.7,7.5,15.8c-2.5,1-5.4,3.1-7,4.3
						c0,0,0,0,0,0.1v0.2c0,0.3,0,0.7,0,1c1.4-1.1,4.9-3.8,7.7-4.8l0.4-0.1L255.9,67.7z"/>
				</g>
				<g>
					<path class="st20" d="M260.7,76.6c-0.1,0-9.7-0.1-12.5-0.5c0,0.3,0,0.6-0.1,0.9c2.6,0.3,9.7,0.4,11.9,0.5l-0.9,2.7l-10.5,0.1v0
						c0.2,0.3,0.4,0.6,0.5,1l10.6-0.1l1.5-4.6L260.7,76.6z"/>
				</g>
				<g>
					<path class="st21" d="M308.1,63.8l-0.8-0.6c0-0.1,4.1-5.8,7-12.6c2.6-5.9,1.6-14.6,1-18c-0.1-0.9-0.3-1.5-0.3-1.8
						c-1.5-0.8-12-6.1-27.7-7.2c-18.5-2.6-51.6,5.8-52,5.9l-1.4-1.2c0.3-0.1,34.8-8.2,53.4-5.6c17.1,1.2,28.2,7.3,28.3,7.4l0.2,0.1
						l0,0.2c0,0,0.2,0.8,0.4,2.1c0.7,4.4,1.6,12.6-1,18.6C312.3,57.9,308.2,63.7,308.1,63.8z"/>
				</g>
				<g>
					<path class="st21" d="M311.4,67.6l-0.6-0.8c14.3-11.3,12.4-27.5,12.1-29.6l-7.4-4.3l0.2-0.5l0.3-0.4l0.1,0l7.7,4.5l0,0.2
						C323.8,37,327,55.2,311.4,67.6z"/>
				</g>
				<g>
					<path class="st21" d="M259.5,81.3l0-1c7.2-0.3,23.3-2.5,23.4-2.5l0.1,1C282.8,78.8,266.7,81,259.5,81.3z"/>
				</g>
				<g>
					<path class="st21" d="M278.7,68.6c-0.3-0.1-0.5-0.2-0.8-0.3c-4.2-1.7-9.5-7-9.7-7.2l0.5-0.2c0.1,0,5.5,4.8,9.6,6.5
						c0.3,0.1,0.5,0.2,0.7,0.3L278.7,68.6z"/>
				</g>
				<g>
					<path class="st21" d="M308.1,63.2c-7.2-8.6-11.3-14.1-12.3-16.4l-0.3,0c1,2.3,4.6,8.3,11.8,17l0.2,0.2c0,0,0.1,0.1,0.1,0.1
						C307.8,63.9,307.9,63.6,308.1,63.2L308.1,63.2z"/>
					<path class="st22" d="M269.3,43.8l-0.1,0.2l0.1,0C269.3,43.9,269.3,43.9,269.3,43.8z"/>
					<path class="st21" d="M278.5,67.6c-0.4-0.7-1-1.5-1.5-2.2c-4.8-6-7.5-19.5-7.7-21.4l-0.1,0l-0.5-0.1
						c-0.2,0.7,2.2,15.5,7.4,22.1c0.5,0.7,1,1.4,1.5,2.1c1.6,2.5,3,5.6,4,8c0.4,0,0.7,0,1,0C281.7,73.6,280.2,70.3,278.5,67.6z"/>
					<path class="st20" d="M313.6,69.8c0,0-0.9-1.1-2.3-2.7c-0.6-0.7-1.2-1.4-1.9-2.3l-0.9-1c-0.1-0.1-0.1-0.2-0.2-0.3l-0.2-0.2
						c-0.2,0.3-0.3,0.6-0.5,0.9c0,0.1,0.1,0.1,0.1,0.2l0.9,1c0.7,0.8,1.4,1.6,1.9,2.3c1.1,1.3,1.9,2.3,2.2,2.6
						c-0.1,1.2-0.6,3.4-2.2,6.1l-0.2,0.2c-0.8,1.4-1.9,2.9-3.2,4.3c-3.7,3.7-10.4,5.3-15.3,6.1c-2.3,0.3-4.2,0.5-4.9,0.5
						c-0.4-1.2-1.7-5.1-3.4-9.4c-0.2-0.5-0.4-1.1-0.7-1.6c-0.1-0.1-0.1-0.3-0.2-0.4c-0.3,0-0.7,0-1,0c0.1,0.3,0.2,0.5,0.3,0.8
						c0.2,0.5,0.5,1,0.6,1.6c2.1,5.1,3.5,9.7,3.5,9.7l0.1,0.4l0.4,0c0.1,0,2.3-0.1,5.4-0.5c5.1-0.8,11.9-2.5,15.9-6.3
						c1.2-1.4,2.3-2.8,3.2-4.2l0.2-0.2c1.8-3,2.4-5.6,2.4-7v-0.2L313.6,69.8z"/>
				</g>
				<g>
					<path class="st20" d="M282.7,77l-0.1-1c23.3-1.3,24.9-11.9,24.9-12l1,0.1C308.5,64.7,306.8,75.6,282.7,77z"/>
				</g>
				<g>
					<path class="st19" d="M308.9,143.4h-1.1c-5.1-1.1-7.8-7-8.7-12.2c-0.1-0.7-0.2-1.4-0.2-2c-0.1-1.5,0.5-4.5,1.7-9.2l0.9,0.2
						c-1.2,4.5-1.8,7.5-1.7,8.9c0,0.6,0.1,1.2,0.2,1.9c0.8,4.8,3.2,10.4,7.8,11.4l1,0V143.4z"/>
				</g>
				<g>
					<path class="st19" d="M301.7,120.3l-0.9-0.3c0.9-3.3,1.8-6.5,2-7.1l-0.6-1.8c-0.9-3.8-9.8-22.3-10.6-23.2l0.3-0.2l0.2-0.6
						c1.1,0.3,10.4,20.9,11,23.7l0.6,2.1l0,0.1C303.7,113,302.7,116.5,301.7,120.3z"/>
				</g>
				<g>
					<path class="st19" d="M311.5,144.4c-0.6,0-1.2-0.2-1.9-0.5c-0.4-0.3-0.6-0.5-0.9-0.8c-4.3-4.4-4.7-12.9-4.7-13.2l0.5-0.1
						c0,0.1,1,8.6,5,12.7c0.2,0.2,0.4,0.4,0.7,0.6c0.7,0.4,1.4,0.5,1.9,0.3c0.6-0.3,0.8-1.1,0.8-1.1l0.9,0.2c0,0-0.3,1.2-1.4,1.7
						C312.2,144.3,311.8,144.4,311.5,144.4z"/>
				</g>
				<g>
					<path class="st19" d="M315.1,143.5c-0.4,0-0.8-0.1-1.4-0.4c-0.3-0.2-0.5-0.4-0.6-0.5c-4.2-3.8-4.5-12.9-4.5-13l0.5-0.1
						c0,0.1,0.8,8.9,4.7,12.4c0.1,0.2,0.3,0.3,0.4,0.4c0.5,0.3,1,0.3,1.4,0.1c0.8-0.4,1.2-1.8,1.3-2.6c0-0.3,0-0.4,0-0.5l0.8,0.5
						c0.1,0.2,0.3-0.3,0.2,0.1c-0.1,0.8-0.5,2.6-1.8,3.3C315.8,143.4,315.5,143.5,315.1,143.5z"/>
				</g>
				<g>
					<path class="st19" d="M319.4,141.1c-0.7,0-1.5-0.3-2.3-0.8c-0.7-0.5-1.3-1-1.8-1.7c-2.2-2.7-2.6-8.6-2.6-8.8l0.6-0.3
						c0,0,0.8,6.1,2.8,8.5c0.5,0.6,1,1.1,1.6,1.5c1,0.7,1.8,0.7,2.1,0.6l0.1-0.2c0.1-0.9,0.3-1.9-0.9-3.9c-1-1.7-1.1-5-1.2-7.6
						c0-1.1,0-2-0.1-2.7c-0.3-2.4-1.1-8-4.6-11.3c-0.6-0.7-0.6-2.7-0.5-7.5c0.2-6.9,0.5-18.5-2.1-29.8l0.9-0.2
						c2.7,11.5,2.4,23.1,2.2,30.1c-0.1,3.3-0.2,6.3,0.2,6.8c3.7,3.6,4.5,9.4,4.9,11.8c0.1,0.8,0.1,1.7,0.1,2.9c0,2.5,0.1,5.6,1,7.1
						c1.4,2.3,1.2,3.7,1,4.6l0,0.2c-0.1,0.4-0.3,0.6-0.6,0.8C319.9,141,319.7,141.1,319.4,141.1z"/>
				</g>
				<g>
					<path class="st19" d="M297.5,132.5c-0.8,0-1.6-0.3-2.2-0.7c-0.9-0.6-1.2-1.5-0.9-2.3c0.6-1.6,5-7.8,6.2-9.4l0,0l0.2-0.3
						c0.1-0.1,0.2-0.2,0.2-0.2l0.3,0.4l0,0l0,0l0.2-0.2l-0.2,0.5l0.2,0.2c-1.1,1.4-5.7,8-6.3,9.4c-0.2,0.5,0.4,1,0.6,1.1
						c0.9,0.6,2.4,0.7,3.5-0.2c0.1-0.1,0.1-0.1,0.2-0.2l0.4,0.9c0,0,0,0-0.1,0.1C299.2,132.2,298.3,132.5,297.5,132.5z"/>
				</g>
			</g>
		</g>
	</g>
</g>
</svg>
