<?xml version="1.0" encoding="utf-8"?>
<!-- Generator: Adobe Illustrator 21.1.0, SVG Export Plug-In . SVG Version: 6.00 Build 0)  -->
<svg version="1.1" id="Layer_1" xmlns="http://www.w3.org/2000/svg" xmlns:xlink="http://www.w3.org/1999/xlink" x="0px" y="0px"
	 viewBox="0 0 121.5 121.5" style="enable-background:new 0 0 121.5 121.5;" xml:space="preserve">
<style type="text/css">
	.st0{clip-path:url(#SVGID_2_);}
	.st1{fill:#CF5657;}
	.st2{fill:#FCD62F;}
	.st3{opacity:0.5;}
	.st4{fill:#AC3734;}
	.st5{fill:#63ADDF;}
	.st6{fill:#A64A30;}
	.st7{fill:#FFDEAB;}
	.st8{fill:#FFFFFF;}
	.st9{fill:#59B747;}
	.st10{fill:#F9EE62;}
	.st11{fill:#449D46;}
	.st12{fill:#8E3D21;}
	.st13{fill:#F0C08B;}
	.st14{fill:#4D95C4;}
	.st15{fill:#EEEDED;}
	.st16{fill:#F2DA4A;}
	.st17{fill:#461B12;}
	.st18{fill:#6B5127;}
	.st19{fill:#9E8B35;}
	.st20{fill:#425E35;}
	.st21{fill:#074E7A;}
	.st22{fill:#ADAAAA;}
</style>
<g>
	<defs>
		<circle id="SVGID_1_" cx="60.8" cy="60.8" r="60.3"/>
	</defs>
	<use xlink:href="#SVGID_1_"  style="overflow:visible;fill:#FFFFFF;"/>
	<clipPath id="SVGID_2_">
		<use xlink:href="#SVGID_1_"  style="overflow:visible;"/>
	</clipPath>
	<g class="st0">
		<g>
			<g>
				<polygon class="st1" points="-76.7,62.9 99.1,114.2 346.9,50.2 190.8,32.5 				"/>
				<g id="XMLID_214_">
					<g>
						<polygon class="st2" points="336.5,49.7 329.7,51.5 319.4,48 						"/>
						<polygon class="st2" points="328.4,51.9 319.7,53.9 314.4,51.9 						"/>
						<path class="st2" d="M318.5,49.9L122.7,90.3l-39.9-8.9L-4,61.8l200.2-25.6L318.5,49.9z M124.8,87.4l187.4-37.6L196.1,37.2
							L7.3,61.8L124.8,87.4z"/>
						<polygon class="st2" points="317.7,54.4 308.8,56.4 303.2,54.3 						"/>
						<polygon class="st2" points="308.6,46.9 288.8,46.4 283.5,44.2 						"/>
						<polygon class="st2" points="307.2,56.9 295.5,59.6 289.8,56.6 						"/>
						<polygon class="st2" points="293.1,60.2 279.5,63.4 274.2,60.2 						"/>
						<polygon class="st2" points="280.6,43.3 259.3,42.5 252.6,40.8 						"/>
						<polygon class="st2" points="277.9,63.7 260.7,67.9 256.3,63.8 						"/>
						<polygon class="st2" points="257.4,68.6 236.3,73.5 233.2,68.7 						"/>
						<polygon class="st2" points="251.2,40.6 236.3,39.9 231.3,38.1 						"/>
						<polygon class="st2" points="233,74.5 205.9,80.9 204.2,74.9 						"/>
						<polygon class="st2" points="228.6,38.3 211,37.4 208.2,35.7 						"/>
						<polygon class="st2" points="205,35 186.7,34.6 192.1,33.4 						"/>
						<polygon class="st2" points="200.4,82.1 164.3,90.8 167.2,82.7 						"/>
						<polygon class="st2" points="186.1,34.4 182.4,35.9 171.6,35.9 						"/>
						<polygon class="st2" points="171,36.2 170.9,37.9 158.2,37.9 						"/>
						<polygon class="st2" points="157.9,38.3 156,40.2 141,40.1 						"/>
						<polygon class="st2" points="157.7,92.2 107.6,104.5 72.8,95.3 122.8,93.5 						"/>
						<polygon class="st2" points="141,40.1 138.9,41.9 123.8,42.5 						"/>
						<polygon class="st2" points="122.2,42.9 119.1,44.9 101.6,44.9 						"/>
						<polygon class="st2" points="100.1,45.2 95.8,47.3 75.9,47.2 						"/>
						<polygon class="st2" points="81.9,85.3 71,92.4 68.5,94 41.3,86.8 						"/>
						<polygon class="st2" points="74.5,47.7 68.6,50.3 44.5,51.3 						"/>
						<polygon class="st2" points="52.1,78.1 40,84.1 36.5,85.7 13.4,79.1 						"/>
						<polygon class="st2" points="43.4,51 34.7,54.2 7,54.7 						"/>
						<polygon class="st2" points="25.2,71.8 12.5,76.4 12.5,76.4 8.5,77.8 -11.6,72.8 						"/>
						<polygon class="st2" points="3,66.6 -12.1,70.9 -15.5,71.8 -32.9,67.2 						"/>
						<polygon class="st2" points="-2.3,58.4 -4.7,59 -33.2,66.1 -34,66.3 -49.9,62.2 						"/>
					</g>
					<g>
					</g>
				</g>
			</g>
			<g>
				<g>
					<g class="st3">
						<g>
							<path class="st4" d="M159.6,61.1c1.2,0.5,29.5,5.3,14.4,9.3c-7.5,2-23,10.9-41.3,14.1c-18.7,3.3-28.4,8.4-46.8,6.8
								c-63.5-5.8-85.4-25-80.6-27.9c11.2-6.9,47.5-9.5,74.4-12.4c25.1-2.7,57.7,5.7,61.7,5.8C145.4,56.9,156.3,59.7,159.6,61.1z"/>
						</g>
					</g>
					<g>
						<g id="XMLID_213_">
							<g>
								<g>
									<path class="st5" d="M84.5,36l0.5-0.3c0,0,27.8,4.8,35.6,9.3c0.3,0.8,10.7,8.5,18.4,5.7l0.1,0.2c0,0,6.9,5.5,8.2,13.4
										c0.3,1.7,0.3,3.5-0.1,5.5c-0.5,0.3-3.2,0-6.5-0.4l0.2-1.9c-9.9-13.3-39-18.2-39-18.2l-0.2,0.1c-1.5-1.7-2.9-3-3.4-3
										c-0.5,0-1.4,0.3-2.2,0.8l0,0c0,0,0.4,1.6,0.7,4l-0.1,0c0,0-4.3-1.6-6.7-3.1c0.2-0.4,2.4-3.5,1.8-4.6
										c-0.6-1.2-7.1-6.4-8.2-7L84.5,36z"/>
								</g>
								<g>
									<path class="st5" d="M140.7,69.4c3.2,0.4,6,0.6,6.5,0.4c-0.3,1.7-0.8,3.1-1.3,4.3l-0.9-0.4c0,0-6.5-1-10.5-1.6
										c-4-0.6-6.5-1.2-8.3-1.6c-1.8-0.4-6.3-1.4-9.1-1.8c-2.8-0.4-5.5-1.8-6.1-2s-2.2,0.8-3.6,0.8c-1.4,0-2.6-1.8-4.7-2.4
										c-2-0.6-4,0-5-0.4l-0.2,0c0.1-1.2,0.1-2.4,0.1-3.6l1.3,0c1.6,0.8,4.1-1.2,4.8-0.8c0.8,0.4,2.6,3.8,2.6,3.8l4.5-2.6
										c0,0,0,0,1.4,0.6c1.4,0.6,5.3,3.2,5.3,3.2s8.7,2.2,13.3,2.8C133.2,68.4,137.3,69,140.7,69.4z"/>
								</g>
								<g>
									<path class="st5" d="M96.9,69c0.3-1.4,0.5-2.8,0.6-4.3l0.2,0c1,0.4,3-0.2,5,0.4c2,0.6,3.3,2.4,4.7,2.4c1.4,0,3-1,3.6-0.8
										s3.2,1.6,6.1,2c2.8,0.4,7.3,1.4,9.1,1.8c1.8,0.4,4.2,1,8.3,1.6c4.1,0.6,10.5,1.6,10.5,1.6l0.9,0.4c-3,6.8-8.9,7.8-13.9,7.3
										c-6-0.6-14.3-0.6-16.8-0.3c-2.4,0.3-11.6,1.2-13.4,1.2c-1.7,0-8.9-2.9-9.8-3.3l-0.4,1.1c-0.5-0.2-1-0.4-1.5-0.6l-0.6-0.1
										c0.7-2.9,1.6-7.1,2.1-11.6l0.1,0c0.6,0.2,4.4,1,4.4,1L96.9,69z"/>
								</g>
								<g>
									<path class="st5" d="M101.7,49.4l0.2-0.1c0,0,29.1,4.8,39,18.2l-0.2,1.9c-3.5-0.4-7.5-1-9.9-1.3
										c-4.6-0.6-13.3-2.8-13.3-2.8s-3.8-2.6-5.3-3.2c-1.4-0.6-1.4-0.6-1.4-0.6l-4.5,2.6c0,0-1.8-3.4-2.6-3.8
										c-0.8-0.4-3.2,1.6-4.8,0.8l-1.3,0c0-3.7-0.4-7.2-0.8-9.7c-0.4-2.5-0.7-4-0.7-4l0,0c0.9-0.4,1.7-0.8,2.2-0.8
										C98.8,46.5,100.2,47.8,101.7,49.4z"/>
								</g>
								<g>
									<path class="st6" d="M102.3-130.6c0.6,1.5,1.2,3.8,1.2,6.3c0,5-2.6,10.5-13.7,11.9h0c-0.1-0.7-0.4-1.4-1-2
										c-2.1-2-4.9-1.9-7.6,1.6c-2.4,3.1-3.8,10.8-0.6,15.4c-0.7,7.6-7.9,14.1-12.2,16.2c-4.4,2.2-11.7,0.2-11.7,0.2
										s-2.6,4.5-10.3,5.1c-1.3,0.2-2.6,0.1-4,0c-8.1-0.9-16.7-6.6-16.7-6.6s1.6-0.9,2-3.7c0.7-4.7-2-9.5-4.6-12.6
										c-1.7-2-3.9-3.4-6.1-4.8c-4.8-3.2-8.4-7.5-9.7-13.2c-1.5-6.4-1.8-13.3-0.3-19.7c2.8-12,15.2-18.6,15.2-18.6
										c-5.3,0.8-12.8,5.3-12.8,5.3c2.7-15.1,16.6-13.9,16.6-13.9c-1.7-3.9-3.3-11.6,6.1-18.1c0,0-0.7,11.7,4.1,16.2
										c-0.4-0.4,1.8-3.6,2-3.8c4.4-6.7,12.8-9.8,20.5-11c4.5-0.7,9.3-0.9,13.8,0.1c6.4,1.4,11.1,6.3,14.8,11.4
										c1.1,1.4,2.1,3,2.8,4.7c1,2.4,4.8,4.1,7.2,4.7c5.6,1.3,10.1,1.5,14.9,4.3c5.4,3.1,9.8,11.4,6.7,17.4
										c-0.8,1.4-2,2.8-3.3,3.9C108.6-128.5,103.9-130,102.3-130.6z"/>
								</g>
								<g>
									<path class="st7" d="M89.7-112.4L89.7-112.4c11.1-1.4,13.8-6.9,13.8-11.9h0.4c0,3.8,0.1,11.5-0.1,15c-0.1,3-0.3,6.1,0.2,9
										c0.6,3.5,2.2,6.7,2.5,10.2c0.1,1.7-0.1,3.4-0.3,5.1c-0.7,5-3.1,9-6.9,12.3c-2.9,2.5-6.5,3.8-10.2,4.7
										c-15.4,3.2-19.8,0.3-19.8,0.3l-0.7-0.1L68-66.3l0-4.5c-3.9-4-10.2-0.6-15.4-1.3c-4.2-0.5-8.4-0.5-11.3-0.3l0.9-3.2l0-0.4
										c1.4,0.2,2.7,0.2,4,0c7.7-0.6,10.3-5.1,10.3-5.1s7.2,1.9,11.7-0.2c4.3-2.1,11.5-8.7,12.2-16.2c-3.2-4.7-1.8-12.4,0.6-15.4
										c2.7-3.5,5.5-3.6,7.6-1.6C89.3-113.8,89.6-113.1,89.7-112.4z"/>
								</g>
								<g>
									<path class="st8" d="M87.2,45.5c0.8,0.8,1.4,1.5,1.8,2c0.2,0.2,0.6,0.5,1,0.8c2.3,1.5,6.7,3.1,6.7,3.1l0.1,0
										c0.4,2.6,0.8,6.1,0.8,9.7c0,1.2,0,2.4-0.1,3.6c-0.1,1.5-0.3,2.9-0.6,4.3l-0.8,0c0,0-3.8-0.8-4.4-1l-0.1,0
										c-0.5,4.5-1.4,8.7-2.1,11.6l0.6,0.1c0.5,0.2,1.1,0.3,1.5,0.6c5.2,2.1,8.4,6.4,8.6,7.5c0.2,1.2-6.7,4.8-18.2,3.8
										c-11.5-1-11.5-8.7-11.1-11.9c0.2-1.4,0.4-5,0.5-9.1c0.2-5,0.1-10.9-0.3-14.8c-0.7-5.6,1.4-11.9,4.8-14.3
										c0.6-0.4,1.2-0.7,1.8-0.9c0.3-0.1,0.6-0.1,0.9-0.1C82.1,40.3,85.2,43.3,87.2,45.5z"/>
								</g>
								<g>
									<path class="st9" d="M73.3-5.2C75,0.1,76.8,5.3,76.8,5.3h1.4c1.5-0.1,3-0.3,4.4-0.5l0,0.1c0,0,0.3,0.6,1,1.5
										c0.4,5.7,3.4,20.1,3.4,21.2c0,1.2,0.5,0.6-0.1,1.2c-0.3,0.3,2.4,6.1,1,6.9c-1.4,0.7-2.3-0.1-3.1,0
										c-1.5,0.1-22.4-2-33.2-2.4c-10.8-0.3-34.8-5.4-34.8-5.4s0.6-5.2,0.6-5.6c0-0.3-2-4.3-1.3-6.9c0.7-2.6,1.5-23.7,2.1-28.1
										c0.6-4.5,3.3-22.8,3.3-24.9c0-2.1,3-13.2,5.4-18.2c2.5-5.1,6.1-6.7,6.1-6.7s1.6-1,3.8-1.6c1.9-0.5,3.8-5.3,7.4-5.3
										c7.6,0,18.2,2.9,22.3,3.9c1.5,0.4,4.8,5.7,6.5,6.6c2.9,1.4,2.3,1.3,3.3,2c1.4,1,3.9,2.7,3.9,2.7s12.4,20.6,20.4,33.8
										c-1,0.9-10.7,10.3-27.1,15.1L73.3-5.2z"/>
								</g>
								<g>
									<path class="st5" d="M91.9,43.7c0.6,1.1-1.6,4.2-1.8,4.6c-0.4-0.3-0.8-0.5-1-0.8c-0.4-0.4-1-1.2-1.8-2
										c0.1-0.6,0.5-2.8,0.2-3.7c-0.4-1-5.9-3.6-5.9-3.6L81.4,38l2.2-1.4C84.7,37.2,91.3,42.5,91.9,43.7z"/>
								</g>
								<g>
									<path class="st5" d="M87.4,41.8c0.3,0.9-0.1,3.1-0.2,3.7c-2-2.2-5.2-5.3-8.7-5.1c-0.3,0-0.6,0-0.9,0.1l3.8-2.5l0.1,0.1
										C81.5,38.2,87,40.8,87.4,41.8z"/>
								</g>
								<g>
									<path class="st9" d="M17.3,43.3c3,1.6-3.8-17.2-3.2-14.4l1.9-4c0,0,24.8,8,35.7,8.4c10.8,0.4,26.5-1.6,28-1.8
										c0.7-0.1,2.3-0.7,3.7-1.4c0.2,1.4,1,5,1.2,5.9l-0.8,0.6L81.4,38l-3.8,2.5c-0.7,0.2-1.3,0.5-1.8,0.9l-0.1-0.1
										c-0.3,0.1-2.5,2.1-5.4,10.3c-0.6,0-5.5-0.1-6.6-0.1c-5.8,0-14.9-9.3-22.6-9.5c-1.4,0-2.7-0.1-3.8-0.1
										c-0.9,0-2.2,8.5-3.2,8.3c-2.2-0.4-5.4-1.7-7.6-2.5C23.1,46.5,19.2,44.4,17.3,43.3z"/>
								</g>
								<g>
									<path class="st5" d="M34.2,50.3c1,0.2,1.9,0.3,2.8,0.3c1.1,0,3.4-0.2,4.8-0.2l0.8,0.4c0.2,0.6,1.5,12.3,2.9,13.4
										c1.4,1,11-4,11-4s7.4-1.6,8-4.2c0.5-2.3,1.6-2.5,1.1-4.5c1.2,0,2.1,0,2.7,0c4.1-0.2,6.7-1.3,7-1.4l0.1,0.1
										c-3.3,2.4-4.9,8.6-4.3,14.3c0.4,3.9,0.1,10.8-0.1,15.8c-1.8,0.2-4.2,0.1-6.3-0.1c-10.7-0.5-24-5.7-33.1-10.6
										c-2.6-1.4-4.9-2.9-6.7-4.3c-1.1-0.9-1.2-2.4-1.9-3.4c2.6-0.5,4.7-2,4.7-2l-0.6-10.9l0.2-0.5C29.6,49.3,32,50,34.2,50.3z"/>
								</g>
								<g>
									<path class="st10" d="M42.8-72.4c2.9-0.1,7.2-1,11.4-0.4c5.3,0.7,11.2,2.2,15.1,6.2c1.7,1.7,3.2,3.7,3.8,6.7l-0.2,1
										c-1.7-0.9-3.8-1.4-5.3-1.8c-4.1-1-14.5-4.8-22.1-4.8c-3.6,0-6.5,0.5-8.4,1l-0.1-0.2l1.8-7.4C38.9-72,40.5-72.2,42.8-72.4z"
										/>
								</g>
								<g>
									<path class="st5" d="M59.5,49.2c0.5,2,7,2.4,6.5,4.7c-0.6,2.6-7.5,7.1-7.5,7.1s-12.3-3.4-13.7-4.4
										c-1.4-1-3.4-13.7-3.6-14.3v-0.2C48.8,42.3,53.7,49.2,59.5,49.2z"/>
								</g>
							</g>
						</g>
						<g>
							<path class="st11" d="M74.4-57.9c-3.9-3.6-9.9-1.9-11.4,1.5c-2.4,5.3,0.2,12,1.9,17.1c2.4,7.3,6.1,12.1,10.9,17.9
								c2,2.4,3.5,5.3,5.6,7.7c0.8,0.9,3.1,2.3,3.2,3.6c0,0.1,0.3,0.4,0.4,0.4c-2.1,0.4-4,1.8-6,2.5c-2,0.7-4.1,0.9-5.9,1.7
								c-0.3,1.9,2.7,7.3,3.5,10c0.6,2.1,4.7,0,6.6-0.6c0.8,2.1,0.1,5.2,0.4,7.4c-6.5,0.3-8.1-3.6-10.9-8.7c-1.5-2.9-3.4-5-5.3-7.5
								C66-7,65.2-9.6,62.7-10.8c-2.3,4.4-2.8,10-2.8,15c0,4.3-0.5,8.5,0.2,12.7c0.5,3.2,1.6,6.7,2.7,9.7c1.3,3.2,1.7,13,4.1,14.4
								c-3.4,0-3.4,0.9-4.4,1.9c-2.2,2.2,0.6,7.1,2.9,8.7c-3.5-0.1-5.5-1.1-9.2-0.6c-4,0.6-10.1,0.1-14-0.3c-3.8-0.3-6.9,0.1-10.4-1
								c-3.2-1-9.8-4.7-13.1-5.6c-2-0.5-0.2-8.3-2-9.1c0-1.8,0.7,3.3,0.4,1.4c-0.4-2-1.3-2.7-2.2-4.5c-1.6-3.2,3-12.5,2.3-19.5
								c-0.4-3.7-0.2-6.7,0.8-10.4c0.9-3.5,0.3-6.5,0.3-10.2c0-4.2,1.2-8.3,1.1-12.7c-0.1-2.2,0.8-4.1,0.8-6.4c0-2,0.5-4.4,1.1-6.3
								c0.6-1.8,0.4-2.7,0.7-4.5c0.4-2.1,0.9-4.2,0.9-6.1c0-1.3,0.4-2.9,0.7-4.3c0.4-1.8,0.8-2.2,1.4-4.1c1.2-4,0.1-2.1,4.1-6.7
								c2.2-2.6,5.2-4,8.5-4.9c3.3-0.9,7.6-1,11.1-0.6c4.6,0.4,8.3,1.1,12.8,2.3c2.8,0.7,5.3,1.4,8.1,2.1c2.7,0.7,4.5,1.8,6.5,3.1"
								/>
						</g>
						<g>
							<path class="st12" d="M80-175.7c-4.3-2.5-11.7,1.9-15.2,4.4c-4.5,3.3-9,6.1-12.3,10.8c-3.2,4.6-7.4,9.3-9.4,14.5
								c-1.7,4.2-2.8,9.1-3,13.6c-0.4,7.4,4.3,19.6,13,18.9c4.7-0.4,9.6-0.9,14.3-1.5c3.4-0.5,7.5-1.4,9.6,2.1
								c1.8,3.1,1.3,6.6,1.1,10c-0.2,3.7,0.2,7.2-0.9,10.7c-2.3,7.4-8.7,13.8-17,13c-1.4-0.1-2.8-0.5-4.1-1
								c-2.7,6.5-10.8,5.3-15.9,3.8c-5.5-1.6-10-2.3-15.1-6c5.8-6.7,0.5-14.6-5-19.2c-2.7-2.2-5.7-2.8-8-5.4
								c-2.8-3-3.9-7.3-5.5-11.2c-1.2-2.8-1.2-8.9-0.9-12c0.4-3.9,0.7-3.7,1.3-7.5c1.1-6.4,11.3-16.3,17.4-18.4
								c-3.8,0.9-6.8,1.5-10,3.6c-1.9,1.3-3,1.8-5.2,2.4c-0.3-2,1.1-3.5,2.1-5.2c1.1-1.8,2.8-3.3,4.4-4.6c3.6-3,6.7-3.2,11-2.4
								c-0.4-1.7-1.9-3.3-2.5-5.1c-0.7-2.2,0.6-4.1,1.4-6.2c0.6-1.5,1.3-3.4,2.2-4.9c0.9-1.3,3-2.2,3.6-3.1c0,3.1,0.4,6.5,1.2,9.3
								c0.6,2.3,1.8,4.6,2.8,5.8c2.5-3.5,5.1-8.1,8.3-9.8c4-2.1,7.7-3.4,12.2-4c6.3-0.8,15.3-1.2,20.9,1.5c1.4,0.6,2.7,2,3.8,3"/>
						</g>
						<g>
							<path class="st12" d="M64-159.3c1.7-0.9,2.5,1.8,2.1,3.2c-0.4,1.6-2.1,3.3-3.2,4.5c-3.2,3.5-6.1,7.5-6.4,12.4
								c-0.3,4.6,1,10,3.6,13.8c2.7,4,6.1,4.6,10.4,5.5c-3.2,2.7-10.3,0.4-13.5-1.4c-4.9-2.8-7.7-7.7-8.4-13.3
								c-0.7-5.9,1.1-12.3,4.9-16.9c1.5-1.8,3-4,4.9-5.3c1.4-0.9,2.9-1.2,4.4-2c0.8-0.4,1.3-0.9,2.2-1"/>
						</g>
						<g>
							<path class="st12" d="M77.8-147.8c-5.6,3.3-3.4,13.7,0,17.8c1.2,1.5,4,2.9,6,2.7c1.3-0.1,4.1-1.2,4-2.7
								c-5.2-1.2-7.7-7.5-7.1-12.4c0.2-1.3,2.1-4.8,1.2-6c-1.1-1.3-4.2,0-5,1.1"/>
						</g>
						<g>
							<path class="st13" d="M103.9-113.8c-0.5,4.5-11.3,5.5-14.5,4.5c0.2-0.4,0-0.9,0.2-1.3c-7.8-0.3-8.7,9.1-7.5,15.1
								c-4.1,1.6-1.4,13.3,0.4,16.1c2,3.2,4.5,9.2,7.9,10.8c-1.5-0.4-2.5,1-4.2,1.2c-1.9,0.2-4.6,0.7-6.6,0.7c-1.9,0-5.1,0.3-7,0
								c-2.5-0.4-3.4-2.8-4.5,0.2c-3.3-4-7.4-4.2-12-5.2c-4.8-1.1-9.5-1.2-14.3-0.7c0.3-1,0.7-2.1,0.9-3.1c3.4-0.2,6-0.3,9.2-1.8
								c1.3-0.6,3.3-2.4,4-2.9c1.2-0.8,3.7,0.4,5.6,0.4c8.3,0,13.3-6.2,17-12c0.7-1.1,2-4.2,1.8-5.5c-0.3-1.6-1.6-3.3-1.6-5.4
								c0-2.9,1.7-8.6,3.6-10.7c2.3-2.7,5.1-2.6,7.3,0.2c1.3,1.6,2,0.5,4.1-0.3c1.8-0.7,3.7-0.7,5.3-1.8c2.4-1.7,4.4-4.1,4.3-8.3
								c0.8,1.8,2.2,10,1.1,11.2"/>
						</g>
						<g>
							<path class="st14" d="M75.5,52c0.1-0.6,0-0.6-0.1-1.2c-8.7,1.2-17.5,0.9-26.8,0.3c-8.2-0.5-19.7,0.1-27.5-6.4
								c-0.5,0.6-0.8,1.3-1.1,2.1c-2.7,7.7,3.7,18.6,10.1,21.7c3.9,1.9,6.3,3.9,10.6,5.3c4.2,1.3,8.9,4,13.5,4.4
								C53.6,66.7,66,57.9,75.5,52z"/>
						</g>
						<g>
							<path class="st14" d="M96.8,67.8c-0.6,0.4-1.4,3.1-1.1,4.5c0.4,2,1.7,2.5,3.4,3c5.5,1.5,11.1-0.6,16.7,0
								c5.2,0.5,10.3,0.9,15.5,0.9c2,0,3.4-0.4,5.3-1c2-0.6,3.5-0.4,5.6-0.6c1.1-0.2,2-0.7,3.2-0.7c0.3,2.3-4.3,5.9-6.2,6.8
								c-3.9,1.8-9.1,1.1-13.2,0.9c-4.6-0.2-9-0.6-13.7-0.6c-4.1,0-8.6,1.5-12.6,0.9c-2.9-0.5-9.9-1.5-10.1-4.4
								c0-0.7,1.3-8.7,1.8-9.1c0.5-0.4,5,0.8,4.8,1.1"/>
						</g>
						<g>
							<path class="st15" d="M79.1,42.8c4.3,1.4,4.8,13.3,4.9,16.9c0.2,5.1,0.4,10.2,0.4,15.4c0,3.4-0.6,6.9-0.2,10.2
								c0.3,2.9,2.2,3.7,4.1,5.3c-2.1,1.9-8.1,0.4-10.5-0.4c-2.8-1-6.1-3-7-6.1c-1.1-3.9,0.2-8.7,0.7-12.5c0.8-5.1-0.6-9.9-0.8-14.9
								c-0.3-6.1,1.8-13.2,8.8-13.2"/>
						</g>
						<g>
							<path class="st16" d="M54.2-71.5c-1.6,1.6-1.5,6,0.2,7.5c-3.8-0.9-14.4-2-17.4,0c1-2.4,1.8-5.1,1.9-7.8
								c2.6-0.1,5.8-0.6,8.5-0.6c1.4,0,7.1-0.2,6.6,0.5"/>
						</g>
						<g>
							<g>
								<g>
									<path class="st17" d="M105.8-129.4c-1.4,0-2.7-0.3-3.7-0.7l-0.1-0.1l0.2-1c0.1,0,0.2,0.1,0.2,0.1c3.8,1.5,8.1,0.4,12.6-3.3
										c1.3-1.1,2.5-2.4,3.2-3.7c2.9-5.6-1.1-13.6-6.5-16.8c-3.5-2-6.7-2.6-10.5-3.3c-1.4-0.3-2.8-0.5-4.3-0.9
										c-2.4-0.6-6.4-2.4-7.5-5c-0.6-1.5-1.5-3-2.7-4.6c-3.3-4.4-7.9-9.7-14.6-11.2c-3.7-0.9-8.2-0.9-13.6-0.1
										c-5.4,0.8-15.2,3.3-20.1,10.8c-0.7,0.9-1.9,3-1.9,3.4c0,0,0-0.1-0.1-0.2l-0.7,0.7l0,0h0c0,0,0,0,0,0
										c-4.2-3.9-4.3-12.6-4.3-15.6c-8.2,6.2-6.7,13.2-5.1,16.9c0.7,1.5,1.4,2.5,1.4,2.5l-0.8,0.6c0,0-0.8-1.1-1.5-2.7
										c-1.8-4.1-3.4-12,6.2-18.7l0.8-0.6l-0.1,1c0,0.1-0.6,10.5,3.3,15.2c0.3-0.7,0.8-1.6,1.9-3.1c5.1-7.8,15.2-10.3,20.8-11.2
										c5.5-0.8,10.1-0.8,13.9,0.1c7,1.6,11.8,7,15.1,11.5c1.3,1.7,2.2,3.3,2.9,4.8c0.9,2.1,4.5,3.8,6.8,4.4
										c1.5,0.4,2.9,0.6,4.3,0.9c3.8,0.7,7.1,1.4,10.8,3.5c5.8,3.3,10,12,6.8,18.1c-0.8,1.4-2,2.9-3.4,4
										C111.7-130.4,108.4-129.4,105.8-129.4z"/>
								</g>
							</g>
							<g>
								<g>
									<path class="st17" d="M44.5-75.3c-0.7,0-1.5-0.1-2.3-0.2c-8.1-0.9-16.6-6.5-16.9-6.7l-0.7-0.4l0.7-0.4
										c0.1,0,1.4-0.9,1.8-3.4c0.8-5.5-3.2-10.7-4.5-12.2c-1.5-1.8-3.5-3.1-5.4-4.3l-0.6-0.4c-5.3-3.5-8.7-8.1-9.9-13.5
										c-1.6-6.9-1.8-13.8-0.3-19.9c2.1-8.7,9.1-14.7,13-17.3c-4.7,1.5-9.8,4.5-9.8,4.6l-0.9,0.5l0.2-1.1
										c2.8-15.4,17-14.4,17.1-14.3l-0.1,1c-0.5-0.1-12.8-0.9-15.9,12.5c2.2-1.2,7.8-4.2,12-4.8l2.8-0.4l-2.5,1.3
										c-0.1,0.1-12.2,6.7-15,18.3c-1.4,6-1.3,12.7,0.3,19.5c1.2,5.1,4.4,9.5,9.5,12.9l0.6,0.4c2,1.3,4,2.6,5.6,4.5
										c1.7,2,5.5,7.2,4.7,13c-0.3,1.9-1.1,3-1.7,3.6c2,1.2,9.3,5.4,15.9,6.2c1.4,0.2,2.6,0.2,3.9,0c7.4-0.6,9.9-4.8,9.9-4.9
										l0.2-0.3l0.4,0.1c0.1,0,7.1,1.9,11.3-0.2c4.4-2.2,11.3-8.7,11.9-15.8c0-0.2,0-0.3,0-0.4l0.7,0.9c0,0.2,0.2-0.5,0.2-0.3
										c-0.7,7.6-7.7,14.2-12.5,16.6c-4,2-10.2,0.7-11.7,0.4c-0.8,1.1-3.7,4.5-10.5,5C45.7-75.3,45.1-75.3,44.5-75.3z"/>
								</g>
							</g>
							<g>
								<g>
									<path class="st17" d="M89.8-111.9l-0.1-1c9.1-1.5,13.3-4.9,13.3-11.4c0-2.6-0.7-4.9-1.2-6.1c-0.4-1.2-0.8-2-0.8-2l0.9-0.5
										c0,0,0.4,0.8,0.9,2.1c0.5,1.2,1.2,3.7,1.2,6.4C103.9-119.5,101.5-113.4,89.8-111.9z"/>
								</g>
							</g>
							<g>
								<g>
									<path class="st18" d="M76.4-66c-4.9,0-6.9-1-7.4-1.2l-0.2,0l-0.4,0.8l-0.5-1l0.5-1l1,0.4c0,0,4.6,2.7,19.5-0.4
										c4.3-1,7.5-2.5,10-4.6c3.8-3.2,6-7.1,6.7-12c0.2-1.6,0.5-3.3,0.3-5c-0.2-1.9-0.7-3.7-1.3-5.5c-0.5-1.5-1-3.1-1.2-4.7
										c-0.5-3-0.3-6.3-0.2-9.1c0.2-3.5,0.1-11.3,0.1-15c0-1.3,0-2.2,0-2.2h1c0,0,0,0.8,0,2.2c0,3.7,0.1,11.5-0.1,15.1
										c-0.1,2.8-0.3,6,0.2,8.9c0.2,1.5,0.7,3.1,1.2,4.5c0.6,1.8,1.2,3.7,1.3,5.7c0.2,1.8-0.1,3.5-0.3,5.2
										c-0.8,5.1-3.1,9.2-7.1,12.6c-2.6,2.2-6,3.8-10.4,4.8C83.6-66.3,79.5-66,76.4-66z"/>
								</g>
							</g>
							<g>
								<g>
									<path class="st18" d="M84.4-94.3c-0.9,0-1.9-0.3-2.8-1c-0.6-0.5-1.2-1.1-1.6-1.8c-3.4-4.9-1.9-12.9,0.6-16
										c1.5-1.9,3.2-3,4.8-3.1c1.3-0.1,2.5,0.4,3.6,1.4c0.6,0.6,1,1.4,1.2,2.3c0.3,1.8-0.6,3.6-0.6,3.7l-0.9-0.4
										c0,0,0.8-1.6,0.5-3.1c-0.1-0.7-0.4-1.3-0.9-1.7c-0.9-0.8-1.8-1.2-2.8-1.2c-1.3,0.1-2.8,1-4.1,2.7
										c-2.3,2.9-3.6,10.5-0.6,14.9c0.4,0.6,0.9,1.1,1.4,1.5c0.9,0.7,1.9,0.9,2.8,0.8c1.8-0.3,3.3-1.9,3.3-1.9l0.4,0.3
										c-0.1,0.1-1.4,2.2-3.5,2.6C85-94.4,84.7-94.3,84.4-94.3z"/>
								</g>
							</g>
							<g>
								<g>
									<path class="st18" d="M85.4-101c-1.3-7.4,2.4-9.9,2.5-10l0.5,0.8c-0.2,0.1-3.8,2.7-2.6,9.4L85.4-101z"/>
								</g>
							</g>
							<g>
								<g>
									<path class="st18" d="M86.7-104.4c-0.2-2.2-0.8-2.5-0.8-2.5l0.3-0.9c0.2,0.1,1.2,0.5,1.5,3.3L86.7-104.4z"/>
								</g>
							</g>
							<g>
								<g>
									<polygon class="st18" points="41.7,-72.3 41.2,-72.3 40.8,-72.5 41.7,-75.5 42.7,-75.4 									"/>
								</g>
							</g>
							<g>
								<g>
									<path class="st19" d="M72.4-58.8c-0.6-2.7-1.8-5-3.5-6.8c-3.8-3.9-9.7-5.1-15-5.8c-3.3-0.4-7.1-0.5-11.3-0.3
										c-1.7,0.1-2.9,0.2-3.5,0.3l-1.9,7.8l-0.9-0.2l2.1-8.5l0.3,0c0.1,0,1.5-0.2,3.9-0.3c4.2-0.2,8.1-0.1,11.4,0.3
										c5.5,0.7,11.6,2,15.6,6.1c1.9,1.9,3.3,4.8,4,7.8L72.4-58.8z"/>
								</g>
							</g>
							<g>
								<g>
									<path class="st20" d="M89.1,7.8c-1.1,0.1-2.3,0.5-3.4,0.9C86.9,8.5,88,8.2,89.1,7.8z"/>
								</g>
								<g>
									<path class="st20" d="M82.6-52c-0.1-0.1-1.5-2-3-3.1c-1.1-0.8-3.8-2.5-6.6-3.9c-1.4-0.7-3.5-1.7-5.3-2.1l-1.3-0.3
										c-4.7-1.2-14.4-3.8-21.6-3.8c-4,0-6.9,0.6-8.7,1.1c-2.2,0.6-3.3,1.2-3.4,1.3c-0.3,0.2-6.4,4.8-8.3,10.2
										c-1.9,5.4-3.1,18.4-3.1,20.8c0,1.6-1.5,12.7-2.6,20.1c-0.3,2.5-0.6,4.5-0.8,5.7c-0.3,2-0.6,7.1-0.9,12.5
										c-0.4,7.1-0.9,15.1-1.3,16.6c-0.4,1.6-1.2,3.7-1.8,5.3c-0.6,1.7-0.7,2-0.7,2.2c0,0.2,0,0.5,3.3,5.8l0.1,0.2l0.2,0
										c0.2,0.1,24.6,5.3,35.5,5.6c0.9,0,1.9,0,2.9,0c7.7,0,16.7-0.9,21.9-1.5c0.5-0.5,1.1-0.9,1.7-1.2c-5,0.6-17.4,1.9-26.5,1.6
										c-10.3-0.3-32.8-5-35.1-5.5c-1.4-2.2-2.8-4.5-3-5.1c0.1-0.3,0.4-1.1,0.7-1.9c0.6-1.6,1.4-3.8,1.8-5.4
										c0.4-1.6,0.9-9.3,1.3-16.8C18.3,1,18.6-4.1,18.8-6.1c0.2-1.2,0.4-3.2,0.8-5.7c1.1-7.8,2.6-18.6,2.6-20.2
										c0-2.3,1.2-15.2,3.1-20.4c1.8-5.2,7.9-9.7,7.9-9.7c0,0,1.1-0.6,3.2-1.1c1.7-0.5,4.5-1,8.4-1c7,0,16.7,2.5,21.3,3.7l1.3,0.3
										c1.4,0.4,3.1,1.1,5.1,2.1c2.8,1.4,5.5,3.1,6.5,3.9c1.4,1,2.8,2.8,2.8,2.8c0.1,0.2,10.3,18.4,18.3,31.9
										c0.3-0.2,0.6-0.4,0.8-0.5C93-33.6,82.8-51.8,82.6-52z"/>
								</g>
								<g>
									<path class="st20" d="M88.8,36.3c0-0.2,0-0.3,0-0.6c0-0.4-0.3-2.3-0.9-5.7c-0.9-5.3-2.2-12.6-2.5-16.3l0-0.2
										c0-0.3-0.6-3.8-0.7-4.4c-0.3,0.1-0.6,0-0.9,0.1c0.1,1,0.6,4,0.6,4.3l0,0.2c0.3,3.8,1.6,11.1,2.5,16.4
										c0.4,2.2,0.7,5,0.8,5.9C88.1,36.3,88.5,35.9,88.8,36.3z"/>
								</g>
								<g>
									<path class="st20" d="M71.4-16.5c-0.1-0.7-0.2-1.5-0.3-2.1c-0.3-1.8-0.5-3.4-0.7-4.3l-0.7-0.9c0.3,0.9,0.2,3.6,0.5,5.4
										c0.1,0.7,0.2,1.4,0.3,2.2c0.3,2.3,0.7,4.6,1.2,6.8c0.3,1.1,0.7,2.6,1.2,4.4c0.3-0.1,0.6-0.3,0.9-0.4
										c-0.5-1.7-0.9-3.2-1.2-4.2C72.1-11.9,71.7-14.2,71.4-16.5z"/>
								</g>
							</g>
							<g>
								<g>
									<path class="st20" d="M71.3,50.9c-0.8,0.1-1.5,0.2-2.3,0.2c-0.6,0-1.6,0-2.7,0c-3.8,0-10-0.2-16-0.4
										c-3.1-0.1-6.2-0.2-8.9-0.3l-1,0c-1,0-2-0.1-2.8-0.1c-0.9,0-1.9-0.1-2.8-0.3c-1.9-0.3-4.1-0.9-6.6-1.9
										c-3.6-1.4-6.8-3-8.4-3.9c-0.9-0.5-1.5-0.8-1.8-1l-0.5-6.5l-1,0.1l0.5,7l0.2,0.1c0,0,0.8,0.5,2,1.1c1.6,0.9,4.9,2.5,8.5,3.9
										c2.6,1,4.8,1.6,6.8,1.9c0.9,0.2,1.9,0.3,2.9,0.3c0.8,0,1.8,0,2.8,0.1l1.1,0c2.6,0.1,5.7,0.2,8.9,0.3c6,0.2,12.2,0.4,16,0.4
										c1.2,0,2.1,0,2.7,0c0.7,0,1.4-0.1,2.1-0.2C71.2,51.6,71.2,51.3,71.3,50.9z"/>
								</g>
							</g>
							<g>
								<g>
									<path class="st20" d="M69.7-19.8c0,0-2.9-2.7-4.6-4.4l0-0.4c1.6,1.6,5.2,4.1,5.2,4.1L69.7-19.8z"/>
								</g>
							</g>
							<g>
								<g>
									<path class="st20" d="M70-50.5l-0.3-0.3c1.3-6.2,4.7-7,4.9-7.1l0.9,0.4C75.3-57.4,71.1-56.2,70-50.5z"/>
								</g>
							</g>
							<g>
								<g>
									<polygon class="st21" points="84.9,35.2 77.3,40.2 77,40.4 77.6,41.2 81.7,38.4 85,36.3 85,35.2 									"/>
								</g>
								<g>
									<path class="st21" d="M85.1,35.2l-0.1,0v1.1l0.1-0.1c2.4,0.4,28,5,35.3,9.2l-1.4-1.5C111.2,39.4,86.2,35.4,85.1,35.2z"/>
								</g>
							</g>
							<g>
								<g>
									<path class="st21" d="M100.1,81.5c-2-0.6-7.2-2.4-9.9-3.5L90,79.2l1.9,0.3c1.7,0.7,5.1,2,7.6,2.8
										C99.6,82,99.9,81.7,100.1,81.5z"/>
								</g>
								<g>
									<path class="st21" d="M147.7,64.2c-1.3-8-7.9-13.1-8.1-13.3l-0.8,0.4c0.1,0.1,6.7,5.4,8,13.1c0.3,1.8,0.3,3.6-0.1,5.3
										c-0.3,1.5-0.7,2.9-1.3,4.2c-2.3,5.2-6.7,7.6-13.1,7.1c-0.1,0.3-0.2,0.7-0.3,1c7,0.7,11.8-1.9,14.3-7.6
										c0.6-1.4,1-2.9,1.3-4.4C148,68,148.1,66.1,147.7,64.2z"/>
								</g>
							</g>
							<g>
								<g>
									<path class="st21" d="M107.3,56.7c-0.1-0.1-0.5-0.6-1.2-1.4c-1.2-1.5-3-3.7-4.7-5.5c-2.4-2.7-3-2.8-3.1-2.8
										c-0.2,0-0.8,0.1-2,0.7c-1.5,0.8-2.6,1.7-2.8,1.9l-0.9-0.1c0-1,3.1-2.6,3.3-2.7c1.1-0.6,1.9-0.8,2.5-0.8c0.3,0,1,0,3.8,3.1
										c1.7,1.8,3.5,4.1,4.7,5.6c0.6,0.7,0.5,1.9,0.6,2L107.3,56.7z"/>
								</g>
							</g>
							<g>
								<g>
									<path class="st21" d="M141.3,67.5c-9.7-13-39.1-17.7-39.4-17.7l0.2-1c1.2,0.2,29.4,5,39.3,18.4L141.3,67.5z"/>
								</g>
							</g>
							<g>
								<g>
									<path class="st21" d="M90.9,79.2l-0.5-0.8c3-1.7,5-4.9,6-9.5c0.3-1.3,0.5-2.7,0.6-4.2c0.1-1.2,0.1-2.4,0.1-3.6
										c0-3.8-0.4-7.4-0.8-9.7c-0.4-2.4-0.7-4-0.7-4l0.9-0.2c0,0,0.4,1.6,0.8,4.1c0.4,2.4,0.8,6,0.8,9.8c0,1.2,0,2.4-0.1,3.6
										c-0.1,1.5-0.3,3-0.6,4.4C96.3,74,94.1,77.4,90.9,79.2z"/>
								</g>
							</g>
							<g>
								<g>
									<path class="st22" d="M91.8,79.7c-0.5-0.2-1-0.4-1.6-0.6L90,79.6l-0.6,0.5c0.5,0.2,1.5,0.3,1.9,0.5c5,2.1,8.1,6.2,8.3,7.1
										C99.4,88.7,93,92,82,91.1c-4.1-0.4-7.1-1.7-8.9-3.8c-1.5-1.9-2.1-4.5-1.8-7.6c0.2-1.6,0.4-5.3,0.5-9.1
										c0.1-2.8,0.3-9.9-0.3-14.8c-0.6-5.5,1.4-11.6,4.6-13.9c0.5-0.4,1.1-0.7,1.7-0.8c0.3-0.1,0.5-0.1,0.8-0.1
										c3.3-0.2,6.3,2.7,8.3,4.9c0.4,0.4,0.7,0.7,1,1.1c0.3,0.4,0.6,0.7,0.9,0.9c0.2,0.2,0.6,0.5,1.1,0.8c2.3,1.5,6.6,3,6.7,3.1
										l0-0.1c-0.1-0.3-0.2-0.6-0.3-0.9c0-0.1,0-0.2,0-0.2c-1.3-0.5-4.2-1.7-5.9-2.8c-0.4-0.3-0.7-0.5-0.9-0.7
										c-0.2-0.2-0.5-0.5-0.8-0.9c-0.3-0.3-0.6-0.7-1-1.1c-2.1-2.3-5.2-5.3-8.8-5.3c-0.1,0-0.2,0-0.3,0c-0.3,0-0.6,0-1,0.1
										c-0.7,0.2-1.4,0.5-2,1c-3.4,2.5-5.6,9-4.9,14.8c0.4,3.4,0.5,8.8,0.3,14.7c-0.1,4.4-0.3,7.8-0.5,9c-0.4,3.4,0.3,6.2,2,8.3
										c1.9,2.4,5.2,3.8,9.6,4.2c1.4,0.1,2.7,0.2,4,0.2c8.2,0,13.2-2.3,14.3-3.6c0.3-0.3,0.4-0.7,0.4-1
										C100.4,86.3,97.1,81.9,91.8,79.7z"/>
								</g>
							</g>
							<g>
								<g>
									<path class="st22" d="M88.4,83.5l-0.4-0.1c0,0,0.5-1.6,1-4c0.7-2.8,1.6-7,2.1-11.5c0.3-2.6,1-5.8,1-8.1l0.5,0.7
										c0,2.3-0.2,4.9-0.5,7.5c-0.5,4.5-1.4,8.8-2.1,11.7C89.3,82,88.4,83.4,88.4,83.5z"/>
								</g>
							</g>
							<g>
								<g>
									<path class="st22" d="M96,69.4c-0.4-0.1-3.9-0.8-4.5-1l0.3-0.9c0.4,0.2,2.8,0.7,4.4,1L96,69.4z"/>
								</g>
							</g>
							<g>
								<g>
									<path class="st21" d="M70.4,80c-1.1,0.1-2.3,0.1-3.5,0c-11.2-0.5-24.7-5.3-33.1-9.8c-2.6-1.4-4.9-2.9-6.6-4.2
										c-1-0.8-1.9-1.8-2.7-2.8c-4.8-6.3-3.7-15-3.2-17.5l0,0l0.1-0.1h-0.6l-0.3-0.3l-0.1,0.2l0,0.2c-0.5,2.6-1.6,11.5,3.4,18.2
										c0.8,1.1,1.8,2.1,2.9,3c1.8,1.4,4,2.9,6.7,4.3c8.5,4.6,22.2,9.4,33.6,9.9c0.7,0,1.4,0.1,2,0.1c0.5,0,0.9-0.1,1.3-0.1
										C70.3,80.6,70.3,80.3,70.4,80z"/>
								</g>
							</g>
							<g>
								<g>
									<path class="st21" d="M37.5,70.1c-3.7-7.5-2.7-18.8-2.6-19.2l0.8,0.2c0,0.1-1.2,11.7,2.4,19L37.5,70.1z"/>
								</g>
							</g>
							<g>
								<g>
									<path class="st21" d="M23.5,63.6l-0.3-0.9c0.1,0,0.1,0,0.2,0c2.1-0.4,4.6-1.9,5.3-2.4l-0.6-11l1,0.3l0.6,11.2l-0.2,0.2
										c-0.1,0.1-3.1,2.1-5.8,2.7C23.7,63.6,23.6,63.6,23.5,63.6z"/>
								</g>
							</g>
							<g>
								<g>
									<path class="st21" d="M65.2,52.2c0.4,2.2,0.5,8.5,0,10.7c-0.4,1.9-5.1,5.3-7.1,6.7c-4.9-1.4-12.4-3.6-13.4-4.3
										c-0.9-0.7-2.5-9.2-3-12c-0.1-0.7-0.5-1.6-0.5-1.9c-0.3,0-0.4,0-0.7-0.1c0.1,0.2,0.1,1.3,0.3,2.2c1.4,7.2,2.4,11.9,3.4,12.6
										c1.4,1,12.6,4.2,13.9,4.5l0.2,0.1l0.2-0.1c0.7-0.5,7.1-4.6,7.7-7.4c0.5-2.3,0.5-8.6,0.1-11C65.8,52.2,65.5,52.2,65.2,52.2z
										"/>
								</g>
							</g>
							<g>
								<g>
									<path class="st21" d="M87,42c0.2,0.5,0.1,1.7-0.1,2.6c0,0,0.1,0.1,0.1,0.1c0.2,0.3,0.5,0.5,0.7,0.8
										c0.1-0.4,0.6-2.8,0.2-3.9c-0.4-1-4-2.8-5.6-3.7c-0.2,0.1-0.3,0.2-0.5,0.3c-0.1,0.1-0.2,0.2-0.4,0.2l0,0.1
										C83.9,39.8,86.7,41.5,87,42z"/>
								</g>
							</g>
							<g>
								<g>
									<path class="st21" d="M92.3,43.4c-0.6-1.3-6.4-5.8-8-6.9c-0.3,0.2-0.5,0.4-0.8,0.6c1.5,0.9,7.4,5.8,7.9,6.7
										c0.1,0.3,0,1.4-1.5,3.7c0.3,0.2,0.5,0.4,0.8,0.6C92.2,45.9,92.7,44.3,92.3,43.4z"/>
								</g>
							</g>
							<g>
								<g>
									<path class="st21" d="M146.2,70.4c-0.9,0-2.4-0.2-5.4-0.6c-2.4-0.3-5.2-0.6-7.4-0.9c-1-0.1-1.9-0.3-2.6-0.4
										c-4.6-0.6-13.3-2.8-13.4-2.9l-0.2-0.1c0,0-3.8-2.6-5.2-3.2l-1.2-0.5l-4.7,2.8l-0.2-0.4c-0.8-1.6-2-3.4-2.4-3.6
										c-0.2,0-0.8,0.2-1.3,0.4c-1.1,0.4-3,0.7-4.2,0.1l-0.3-0.9c0.7,0.4,3.2,0.3,4.1-0.1c0.9-0.3,1.5-0.6,2.1-0.3
										c0.8,0.4,2,2.5,2.6,3.6l4.2-2.5l1.6,0.7c1.4,0.6,4.7,2.9,5.3,3.2c0.9,0.2,8.9,2.2,13.2,2.8c0.7,0.1,1.6,0.2,2.6,0.4
										c2.2,0.3,4.9,0.7,7.3,0.9c5,0.6,6,0.5,6.2,0.4l0.5,0.9C147.3,70.3,147,70.4,146.2,70.4z"/>
								</g>
							</g>
							<g>
								<g>
									<path class="st21" d="M144.9,74.2c0,0-6.5-1-10.5-1.6c-3.6-0.5-5.9-1.1-7.6-1.5l-0.7-0.2c-1.7-0.4-6.2-1.4-9.1-1.8
										c-2.2-0.3-4.3-1.3-5.5-1.8c-0.3-0.1-0.5-0.2-0.7-0.3c-0.2,0-0.7,0.2-1.1,0.3c-0.7,0.2-1.6,0.5-2.4,0.5
										c-0.9,0-1.7-0.6-2.5-1.1c-0.7-0.5-1.4-1-2.3-1.3c-1-0.3-2.1-0.3-3-0.2c-0.8,0-1.5,0-2.1-0.2l0.4-0.9c0.4,0.1,1,0.1,1.7,0.1
										c0.9,0,2.1-0.1,3.3,0.3c1,0.3,1.9,0.9,2.6,1.4c0.7,0.5,1.3,1,1.9,1c0.7,0,1.4-0.3,2.1-0.5c0.7-0.2,1.3-0.4,1.7-0.3
										c0.1,0,0.4,0.2,0.8,0.3c1.1,0.5,3.1,1.4,5.2,1.7c2.9,0.4,7.4,1.4,9.2,1.8l0.7,0.2c1.7,0.4,4,0.9,7.6,1.5
										c4.6,0.7,5.1,1.2,11.1,2.2L144.9,74.2z"/>
								</g>
							</g>
							<g>
								<path class="st8" d="M99.7,81.3c1.3-0.5,2.4-1.7,3.5-2.5c1.3-0.9,2.6-1.7,4-2.4c2.6-1.3,5.5-2,8.2-2.5
									c5.1-0.8,11.6-1.9,16,1.3c2.6,1.9,0.7,4.3-0.5,6.6c-1.2,2.2-1.3,4.6-3.1,6.5c-4,4.2-8.8,2.8-13.4,1.3
									c-1.9-0.6-15.7-5.4-14.4-7.8"/>
								<path class="st22" d="M121.4,91.6c-2.5,0-5-0.8-7.2-1.6c-1.4-0.5-13.6-4.6-14.7-7.4c-0.2-0.5-0.1-0.8,0-1.1l0.2,0.1
									l-0.3-0.9c0.7-0.3,1.5-0.9,2.2-1.5c0.4-0.3,0.8-0.7,1.3-1l0.1-0.1c1.3-0.8,2.5-1.7,4-2.4c2.3-1.2,5.1-2,8.3-2.5l0.3-0.1
									c5.1-0.8,11.5-1.8,16,1.5c2.6,1.9,1.2,4.3,0.1,6.3c-0.2,0.3-0.3,0.6-0.5,0.9c-0.4,0.8-0.7,1.6-1,2.4c-0.5,1.4-1,2.9-2.2,4.2
									C126.1,90.9,123.7,91.6,121.4,91.6z M99.9,81.7l0.6,0.3c0,0-0.1,0.1,0,0.2c0.7,1.8,9,5.1,14.1,6.8c5.1,1.7,9.3,2.7,12.9-1.1
									c1.1-1.1,1.5-2.4,2-3.8c0.3-0.8,0.6-1.7,1-2.6c0.2-0.3,0.3-0.6,0.5-0.9c1.3-2.3,1.9-3.7,0.1-5c-4.2-3.1-10.3-2.1-15.3-1.3
									l-0.3,0.1c-3.1,0.5-5.8,1.3-8.1,2.4c-1.4,0.7-2.6,1.5-3.9,2.3l-0.1,0.1c-0.4,0.3-0.8,0.6-1.2,0.9
									C101.5,80.8,100.8,81.4,99.9,81.7z"/>
							</g>
							<g>
								<path class="st15" d="M119.3,89.6c0,0,4.7-10,6.5-11.3c1.8-1.3,0.3-4.7-0.9-4.9c-1.2-0.2-16.1-1-23.9,8l-0.7,0.8
									C100.3,82.2,111.6,90.6,119.3,89.6z"/>
							</g>
						</g>
					</g>
				</g>
				<g>
					<g>
						<g id="XMLID_212_">
							<g>
								<path class="st7" d="M121.5,34.1c-0.1-0.7,1.5-0.5,2.3-0.8c-8.2-12.1-19.3-32.2-19.9-33.2c-4.6,3.2-11.1,6.8-19.2,8.2l0,0.1
									c0,0,0.3,0.6,1,1.5c2.7,4.3,11,16.6,19.1,23c1.9,1.5,3.7,2.9,5.3,4.3C115.6,35.4,124.4,49.6,121.5,34.1z"/>
							</g>
						</g>
						<path class="st13" d="M115.3,35.8c-2.4-2.8-4.7-5.8-7.1-8.8c-3.2-4.1-6.2-9-6.4-14.3c-0.1-2.3,0.7-4,1.4-6.2
							c0.4-1.2,0.6-2.4,0.5-3.7c-0.1-1-0.7-2.1-0.2-2.3L103,0.9c-1.6,1-5.2,2.8-7,3.5c-3.5,1.3-7.6,2.8-11.1,4
							c0.4,3,3.6,5.5,5.5,7.8c2.7,3.2,5.4,7.2,8.1,10.4c3.6,4.2,7.8,7.2,11.9,10.6C112,36.6,113.6,36.2,115.3,35.8z"/>
						<g>
							<g>
								<path class="st20" d="M74.8-1.8c0.3-0.1,0.6-0.2,0.9-0.3"/>
							</g>
							<g>
								<line class="st19" x1="75.7" y1="-1.3" x2="75.4" y2="-2.2"/>
							</g>
						</g>
					</g>
					<g>
						<g>
							<path class="st7" d="M122.6,30.6c-0.1,0.2,6.7,7.2,6.7,7.2s10.2-3.5,15.4-4.4c5.2-1,12.3-0.5,12.9,1.9
								c-0.2,0.9-1.6,1.6-3.4,1.5c-1.8-0.1-4-0.3-5.1-0.1c-1.1,0.2-4.6,1.8-4.6,1.8l-0.9,0.9c0,0,2.2,1.5,1.7,4.5
								c-0.5,3-0.8,4.1-0.7,5c0.2,0.8-0.1,4-1.5,5.3c-1.5,1.3-3.7,1.3-5.8,1.1c-2-0.2-2.8-0.5-3.3-1.3c-0.6-0.8-1.2-2.5-1.2-2.5
								s-3.4,0.4-4.8-0.4c-1.4-0.7-3.9-3.8-5.2-5c-1.3-1.1-2.8-2.4-2.8-2.4l-1.4-2.1"/>
							<path class="st13" d="M114.9,35.3c0,0,14.8,12.2,17.8,12.4c3,0.2,6.8-1.1,6.8-1.1s3.1,2.8,4.6,1.3c0,0,2.1,2.3,0.1,4.4
								c-2,2.2-3.5,2.6-3.5,2.6l-5.9-0.9c0,0-2.2-2.4-1.8-2.6c0.3-0.2-4.7,0.1-5.6-0.6c-1-0.7-5.1-5-5.1-5s-2.7-2.5-2.9-2.5
								s-8.1-6.5-8.1-6.5"/>
							<g>
								<path class="st18" d="M143.6,39.4l-0.4-0.9c0.6-0.3,1.2-0.6,1.8-0.9c1.4-0.7,2.9-1.4,4.6-1.5c0.6,0,1.4,0,2.2,0.1
									c1.5,0.1,3.1,0.3,4.1-0.2c0.3-0.2,0.7-0.4,0.7-0.7c-0.1-0.7-1.6-1.6-2.4-1.7c-2.6-0.5-5.4-0.3-8.1-0.1l-0.3,0
									c-2.4,0.1-4.5,0.7-7.2,1.5c-0.9,0.3-1.9,0.5-2.8,0.7c-2.1,0.5-4.2,1.3-6.2,1.9l0,0c-0.1,0-0.2,0-0.2,0l0,0
									c0,0-0.1,0-0.1,0.1l-1.1-0.7c0.1-0.1,0.8-0.3,0.9-0.3c2.1-0.9,4.3-1.5,6.5-2c0.9-0.2,1.9-0.5,2.8-0.7
									c2.7-0.8,4.9-1.4,7.4-1.5l0.3,0c2.7-0.2,5.7-0.3,8.4,0.2c1,0.2,3,1.3,3.2,2.6c0.1,0.5-0.1,1.2-1.2,1.7
									c-1.2,0.6-3,0.4-4.6,0.3c-0.8-0.1-1.5-0.1-2.1-0.1c-1.6,0.1-2.9,0.7-4.3,1.4C144.9,38.8,144.3,39.1,143.6,39.4z"/>
							</g>
							<g>
								<path class="st18" d="M144.5,49.4l0.3-0.8c0.1-0.4,0.1-0.9,0-1.4c0-0.3-0.1-0.7-0.1-1.1c0-0.6,0.2-1,0.3-1.4
									c0.1-0.3,0.2-0.6,0.3-0.9c0.2-1.6-1.2-4.4-2.4-5.3l0.9-0.2c1.4,1.1,2.7,3.7,2.4,5.7c-0.1,0.4-0.2,0.7-0.3,1.1
									c-0.1,0.4-0.3,0.7-0.3,1.1c0,0.3,0,0.6,0.1,0.9c0.1,0.5,0.1,1.1,0,1.6l0.1,0.1c-0.1,0.1-0.2,0.3-0.5,0.4L144.5,49.4z"/>
							</g>
							<g>
								<path class="st18" d="M139.8,55.5c-2.2,0-5.3-0.4-6.5-1.8c-0.6-0.6-0.7-1.4-0.4-2.2l0.9,0.3c-0.2,0.5-0.1,0.9,0.2,1.3
									c1.3,1.5,6,1.7,7.5,1.4c0.9-0.2,1.6-1.3,2.2-2.3c0.2-0.3,0.3-0.6,0.5-0.8c0.8-1.2,0.2-3.8-0.5-5l1,0.3
									c0.9,1.5,1.3,3.7,0.2,5.2c-0.2,0.2-0.3,0.5-0.5,0.8c-0.7,1.1-1.5,2.4-2.8,2.7C141.3,55.4,140.6,55.5,139.8,55.5z"/>
							</g>
							<g>
								<path class="st18" d="M138.3,52.3c-1.1,0-2.1-0.7-2.8-1.6l0.8-0.5c0.5,0.8,1.7,1.6,2.6,1l0.5,0.8
									C139.1,52.2,138.7,52.3,138.3,52.3z"/>
							</g>
							<path class="st18" d="M139.7,48.2c-2.2,2.3-5.5,3.1-8.6,3.1c-3.2,0-4.8-2.2-6.9-4.2c-3.7-3.7-8-6.3-12.1-9.5
								c-0.2-0.2-0.4-0.4-0.6-0.5c-1.8-1.5-3.9-3.1-5.8-4.5c-8.1-6.4-17.2-19-19.6-22.8c-0.3-0.5-0.5-0.8-0.7-1
								c-0.3,0.1-0.7,0.1-1,0.2c0.1,0.2,0.4,0.7,0.9,1.4C88.4,15,97,26.9,105,33.2c1.7,1.4,3.5,2.7,5.3,4c2.5,1.9,4.9,3.7,7.3,5.6
								c1.2,0.9,2.5,1.8,3.7,2.8c1.1,1,2.1,2.1,3.2,3.1c0.9,0.9,1.9,1.9,3,2.6c2.5,1.5,6,1.2,8.6,0c1.5-0.6,2.7-1.6,3.8-2.8
								C139.6,48.4,139.9,48.4,139.7,48.2z"/>
							<path class="st18" d="M127.4,35.9C127.4,35.8,127.4,35.8,127.4,35.9c-2-2.3-4.3-4.3-5.9-6.8c-1.6-2.5-3.2-5-4.7-7.5
								c-3-5-6-10.1-8.9-15.1c-1.2-2.1-2.4-4.2-3.6-6.4c-0.3,0.2-0.5,0.4-0.8,0.5c1.4,2.6,2.9,5.2,4.4,7.8c3,5.2,5.9,10.4,9.2,15.5
								c2.5,3.9,5.3,7.8,8.3,11.4c0.8,1,1.7,1.9,2.7,2.7c0.7,0.5,2.5,2.5,3.3,1.1C130.2,37.8,128.5,37.2,127.4,35.9z"/>
						</g>
					</g>
				</g>
				<path class="st10" d="M106.1-11c-0.5-0.6-1.9-2-2.8-4.5c-0.4-0.4-1.9-1.1-1.2-1.7c0.4-0.3-0.1-0.7-0.4-1.2
					c-0.2-0.1,0.2-0.4,0-0.6c-0.3-0.4-0.5-0.9-0.8-1.4C98-17.8,87.9-9.4,73.5-5.2l-0.2,0C75,0.1,76.8,5.3,76.8,5.3h1.4
					c1.5-0.1,3-0.3,4.4-0.5c8.1-1.4,15.6-1.4,20.2-4.6C107.3-3,110-5,110-5S107.3-8.6,106.1-11z"/>
				<path class="st16" d="M85.4-10C85.3-6.9,97.2,0.5,100.1,1.8C95,5.9,84.5,8.4,80,9.3c-2.9,0.6-2.5-3.9-4.2-6.7
					c-1.4-2.3-2.1-5.6-1.9-8.2c3.2-0.1,9.2-1.7,11.5-3.9"/>
				<path class="st19" d="M74.1-1.3c0.3-0.1,0.6-0.2,0.9-0.3c-0.5-1.4-0.9-2.8-1.2-4c-0.3,0.1-0.6,0.3-0.9,0.4
					C73.3-4,73.7-2.7,74.1-1.3z"/>
				<path class="st19" d="M108.4-8c-0.4-0.7-1-1.4-1.5-2.1c-1.8-2.9-3.7-5.9-5.5-8.9c0,0,1.7,3.3,1.6,3c0.1,0-0.8-1.5-0.8-1.6
					c-0.1-0.2-1.3-2.8-1.3-3c0-0.1-0.1-0.2-0.1-0.3C98.2-18.5,87.5-9.8,73-5.5l0.3,1c13.1-3.8,23.2-11.3,27-14.6
					c0.5,0.9,1,1.8,1.5,2.7c0.8,1.3,1.8,2.5,2.6,3.8c0.9,1.5,1.7,3,2.7,4.4c0.2,0.2,0.4,0.5,0.6,0.7l1.1,2.1c-0.7,0.7-3,3-6.5,5.6
					c-5.9,4.2-12.1,6.9-18.5,8c-1.5,0.3-2.9,0.4-4.2,0.5h-1.1c-0.4-1.2-1.9-5.6-3.3-10C75-1.4,75-1.5,75-1.6
					c-0.3,0.1-0.6,0.2-0.9,0.3c0,0.1,0.1,0.2,0.1,0.3c1.6,5.1,3.4,10.3,3.4,10.4l0.1,0.3l1.8,0c1.4-0.1,2.8-0.3,4.4-0.5
					c0,0.1,0.1-0.1,0.1,0.1c0.3-0.1,0.5,0,0.8-0.1c0,0,0-0.1,0-0.1l-0.2,0c0.4-0.1,0.8-0.2,1.1-0.3c1.1-0.4,2.1-0.5,3.3-0.6
					c4.7-1.5,9.3-4,13.7-7.1c4.4-3.1,7.1-5.9,7.2-6l0.1-0.2L108.4-8z"/>
			</g>
		</g>
	</g>
	<use xlink:href="#SVGID_1_"  style="overflow:visible;fill:none;stroke:#231F20;stroke-miterlimit:10;"/>
</g>
</svg>
