<?xml version="1.0" encoding="utf-8"?>
<!-- Generator: Adobe Illustrator 21.1.0, SVG Export Plug-In . SVG Version: 6.00 Build 0)  -->
<svg version="1.1" id="Layer_1" xmlns="http://www.w3.org/2000/svg" xmlns:xlink="http://www.w3.org/1999/xlink" x="0px" y="0px"
	 viewBox="0 0 121.5 121.5" style="enable-background:new 0 0 121.5 121.5;" xml:space="preserve">
<style type="text/css">
	.st0{clip-path:url(#SVGID_2_);}
	.st1{fill:#CF5657;}
	.st2{fill:#FCD62F;}
	.st3{opacity:0.5;}
	.st4{fill:#AC3734;}
	.st5{fill:#FFDEAB;}
	.st6{fill:#63ADDF;}
	.st7{fill:#A64A30;}
	.st8{fill:#F9EE62;}
	.st9{fill:#FFFFFF;}
	.st10{fill:#59B747;}
	.st11{fill:#449D46;}
	.st12{fill:#8E3D21;}
	.st13{fill:#F0C08B;}
	.st14{fill:#4D95C4;}
	.st15{fill:#EEEDED;}
	.st16{fill:#F2DA4A;}
	.st17{fill:#461B12;}
	.st18{fill:#6B5127;}
	.st19{fill:#9E8B35;}
	.st20{fill:#425E35;}
	.st21{fill:#074E7A;}
	.st22{fill:#ADAAAA;}
</style>
<g>
	<defs>
		<circle id="SVGID_1_" cx="60.8" cy="60.8" r="60.3"/>
	</defs>
	<use xlink:href="#SVGID_1_"  style="overflow:visible;fill:#FFFFFF;"/>
	<clipPath id="SVGID_2_">
		<use xlink:href="#SVGID_1_"  style="overflow:visible;"/>
	</clipPath>
	<g class="st0">
		<g>
			<g>
				<polygon class="st1" points="-79.5,76.1 99.4,128.2 351.5,63.2 192.7,45.1 				"/>
			</g>
			<g id="XMLID_211_">
				<g>
					<polygon class="st2" points="341,62.6 334,64.4 323.5,60.9 					"/>
					<polygon class="st2" points="332.8,64.9 323.9,66.9 318.4,64.9 					"/>
					<polygon class="st2" points="321.8,67.4 312.8,69.4 307.1,67.3 					"/>
					<polygon class="st2" points="312.6,59.8 292.5,59.3 287.1,57.1 					"/>
					<polygon class="st2" points="311.2,70 299.2,72.7 293.5,69.7 					"/>
					<polygon class="st2" points="296.8,73.3 283,76.6 277.6,73.3 					"/>
					<polygon class="st2" points="284.1,56.1 262.4,55.3 255.6,53.6 					"/>
					<polygon class="st2" points="259.4,77 281.3,76.8 263.8,81.1 					"/>
					<polygon class="st2" points="254.1,53.3 239.1,52.7 233.9,50.8 					"/>
					<polygon class="st2" points="235.9,82 260.5,81.8 239.1,86.9 					"/>
					<polygon class="st2" points="235.7,87.9 208.1,94.3 206.3,88.3 					"/>
					<polygon class="st2" points="231.2,51 213.3,50.2 210.5,48.4 					"/>
					<polygon class="st2" points="202.5,95.5 165.7,104.4 168.7,96.2 					"/>
					<polygon class="st2" points="194,46.1 207.2,47.6 188.6,47.2 					"/>
					<polygon class="st2" points="187.9,47.1 184.1,48.6 173.2,48.6 					"/>
					<polygon class="st2" points="172.6,48.9 172.5,50.6 159.6,50.7 					"/>
					<polygon class="st2" points="159.2,51 157.3,53 142.1,52.8 					"/>
					<polygon class="st2" points="159,105.8 108.1,118.4 72.7,109 123.5,107.1 					"/>
					<polygon class="st2" points="142,52.9 139.9,54.7 124.6,55.3 					"/>
					<polygon class="st2" points="122.9,55.7 119.8,57.8 101.9,57.8 					"/>
					<polygon class="st2" points="100.4,58 96.1,60.2 75.8,60 					"/>
					<polygon class="st2" points="81.9,98.9 70.8,106.1 68.3,107.7 40.7,100.4 					"/>
					<polygon class="st2" points="74.4,60.6 68.4,63.3 43.9,64.3 					"/>
					<polygon class="st2" points="51.6,91.5 39.3,97.6 35.8,99.3 12.3,92.6 					"/>
					<polygon class="st2" points="42.7,64 33.9,67.2 5.7,67.7 					"/>
					<polygon class="st2" points="24.3,85.1 11.3,89.8 7.3,91.2 -13.2,86.1 					"/>
					<path class="st2" d="M125.6,100.9l190.7-38.3L198.1,49.9L6,75L125.6,100.9z M-5.5,75l203.7-26l124.4,13.9l-199.3,41.1
						l-40.6-9.1L-5.5,75z"/>
					<polygon class="st2" points="1.6,79.8 -13.8,84.2 -17.1,85.1 -34.8,80.4 					"/>
					<polygon class="st2" points="-3.7,71.4 -6.2,72.1 -35.2,79.3 -36,79.5 -52.1,75.4 					"/>
				</g>
			</g>
		</g>
		<g class="st3">
			<g>
				<path class="st4" d="M161.3,74.1c1.2,0.5,30.1,5.4,14.7,9.4c-7.6,2-23.4,11.1-42,14.4c-19.1,3.3-28.9,8.6-47.6,6.9
					c-64.6-5.9-86.9-25.4-82-28.4c11.4-7,48.3-9.7,75.6-12.6c25.5-2.8,58.7,5.8,62.8,5.9C146.9,69.9,158,72.7,161.3,74.1z"/>
			</g>
		</g>
		<g>
			<g id="XMLID_210_">
				<g>
					<g>
						<path class="st5" d="M84,15.3c-0.6-1-1-1.5-1-1.5l0-0.1c8.2-1.4,14.9-5.1,19.5-8.4c0.8,1.5,22.3,40.5,27.9,42.8
							c5.2,2.1,14.9,7.3,14.9,7.3s8.2,9.7,4.9,18.6l-1.4,0.2c-1.3-8-8.3-13.6-8.3-13.6l-0.1-0.2c-7.9,2.8-18.5-5-18.7-5.8
							c-0.3-0.9-8.2-7.9-18.3-15.8C95.2,32.2,86.8,19.6,84,15.3z"/>
					</g>
					<g>
						<path class="st6" d="M84.9,45.4l0.5-0.3c0,0,28.3,4.9,36.2,9.4c0.3,0.8,10.9,8.6,18.7,5.8l0.1,0.2c0,0,7,5.5,8.3,13.6
							c0.3,1.7,0.3,3.6-0.1,5.6c-0.5,0.3-3.3,0-6.6-0.4l0.2-2c-10.1-13.6-39.7-18.5-39.7-18.5l-0.2,0.1c-1.5-1.7-2.9-3-3.5-3
							c-0.5,0-1.4,0.3-2.3,0.8l0,0c0,0,0.4,1.6,0.8,4.1l-0.1,0c0,0-4.4-1.6-6.8-3.1c0.2-0.4,2.4-3.5,1.8-4.7
							c-0.6-1.2-7.3-6.5-8.4-7.2L84.9,45.4z"/>
					</g>
					<g>
						<path class="st6" d="M142.1,79.4c3.3,0.4,6.1,0.6,6.6,0.4c-0.3,1.7-0.8,3.1-1.3,4.4l-0.9-0.4c0,0-6.6-1-10.7-1.6
							c-4.1-0.6-6.6-1.2-8.4-1.6c-1.9-0.4-6.4-1.4-9.3-1.8c-2.9-0.4-5.5-1.9-6.2-2.1c-0.6-0.2-2.3,0.8-3.7,0.8
							c-1.4,0-2.7-1.8-4.7-2.5c-2-0.6-4.1,0-5.1-0.4l-0.2,0c0.1-1.2,0.1-2.5,0.1-3.7l1.3,0c1.6,0.8,4.1-1.2,4.9-0.8
							c0.8,0.4,2.7,3.9,2.7,3.9l4.5-2.7c0,0,0,0,1.4,0.6c1.4,0.6,5.3,3.3,5.3,3.3s8.9,2.3,13.6,2.9
							C134.5,78.4,138.6,78.9,142.1,79.4z"/>
					</g>
					<g>
						<path class="st6" d="M97.5,78.9c0.3-1.4,0.5-2.9,0.6-4.4l0.2,0c1,0.4,3.1-0.2,5.1,0.4c2.1,0.6,3.3,2.5,4.7,2.5
							c1.4,0,3.1-1,3.7-0.8c0.6,0.2,3.3,1.6,6.2,2.1c2.9,0.4,7.4,1.4,9.3,1.8c1.8,0.4,4.3,1,8.4,1.6c4.1,0.6,10.7,1.6,10.7,1.6
							l0.9,0.4c-3,6.9-9,8-14.2,7.5c-6.1-0.6-14.6-0.6-17.1-0.3c-2.4,0.3-11.9,1.2-13.7,1.2c-1.7,0-9-2.9-9.9-3.3l-0.4,1.1
							c-0.5-0.2-1-0.4-1.6-0.6l-0.6-0.1c0.7-2.9,1.6-7.2,2.1-11.8l0.1,0c0.6,0.2,4.5,1,4.5,1L97.5,78.9z"/>
					</g>
					<g>
						<path class="st6" d="M102.4,59l0.2-0.1c0,0,29.6,4.9,39.7,18.5l-0.2,2c-3.5-0.4-7.6-1-10.1-1.3c-4.7-0.6-13.6-2.9-13.6-2.9
							s-3.9-2.7-5.3-3.3c-1.4-0.6-1.4-0.6-1.4-0.6l-4.5,2.7c0,0-1.8-3.5-2.7-3.9c-0.8-0.4-3.3,1.6-4.9,0.8l-1.3,0
							c0-3.8-0.4-7.3-0.8-9.9c-0.4-2.5-0.8-4.1-0.8-4.1l0,0c0.9-0.4,1.7-0.8,2.3-0.8C99.5,56,100.9,57.4,102.4,59z"/>
					</g>
					<g>
						<path class="st7" d="M103.2-128.8c0.6,1.6,1.2,3.9,1.2,6.4c0,5.1-2.7,10.7-14,12.1h0c-0.1-0.7-0.4-1.4-1.1-2
							c-2.1-2.1-5-1.9-7.8,1.6c-2.5,3.1-3.9,11-0.6,15.7c-0.7,7.7-8,14.3-12.4,16.5c-4.5,2.2-11.9,0.2-11.9,0.2s-2.6,4.6-10.5,5.2
							c-1.3,0.2-2.7,0.1-4-0.1c-8.2-1-17-6.7-17-6.7s1.6-1,2-3.8c0.7-4.8-2-9.6-4.6-12.8c-1.7-2-4-3.4-6.2-4.9
							c-4.9-3.3-8.5-7.6-9.9-13.4c-1.5-6.5-1.9-13.5-0.3-20.1C9-147,21.6-153.8,21.6-153.8c-5.4,0.8-13,5.4-13,5.4
							c2.8-15.4,16.9-14.2,16.9-14.2c-1.8-4-3.4-11.8,6.2-18.4c0,0-0.8,11.9,4.2,16.5c-0.4-0.4,1.8-3.7,2-3.9
							c4.5-6.8,13.1-10,20.8-11.2c4.6-0.7,9.5-0.9,14,0.1c6.5,1.5,11.3,6.4,15.1,11.6c1.1,1.5,2.2,3.1,2.8,4.8
							c1,2.4,4.9,4.2,7.3,4.8c5.7,1.3,10.2,1.5,15.2,4.4c5.5,3.2,10,11.6,6.8,17.7c-0.8,1.5-2,2.9-3.3,4
							C109.6-126.7,104.8-128.2,103.2-128.8z"/>
					</g>
					<g>
						<path class="st8" d="M102.5,5.3c-4.6,3.3-11.3,6.9-19.5,8.4c-1.4,0.2-2.9,0.4-4.4,0.5H77c0,0-1.8-5.3-3.5-10.7l0.2,0
							c16.6-4.8,27.7-15.2,28.7-16.1c2.9,4.8,5.1,8.4,6,9.4c1.3,2.5,1.3,2.5,1.3,2.5S107.1,2,102.5,5.3z"/>
					</g>
					<g>
						<path class="st5" d="M90.4-110.3L90.4-110.3c11.3-1.4,14-7.1,14-12.1h0.4c0,3.9,0.1,11.7-0.1,15.3c-0.1,3-0.3,6.2,0.2,9.2
							c0.6,3.6,2.3,6.8,2.6,10.4c0.1,1.7-0.1,3.5-0.3,5.2c-0.8,5.1-3.1,9.2-7,12.5c-2.9,2.5-6.7,3.9-10.4,4.8
							c-15.7,3.3-20.2,0.3-20.2,0.3l-0.7-0.1l-0.5,1.5l-0.1,0.1c-4-4.1-10.2-5.3-15.5-6c-4.3-0.5-8.6-0.5-11.5-0.3l1-3.2l0-0.4
							c1.4,0.2,2.7,0.2,4,0.1c7.9-0.6,10.5-5.2,10.5-5.2s7.4,2,11.9-0.2c4.4-2.2,11.7-8.8,12.4-16.5c-3.3-4.7-1.9-12.6,0.6-15.7
							c2.8-3.5,5.6-3.7,7.8-1.6C89.9-111.8,90.3-111.1,90.4-110.3z"/>
					</g>
					<g>
						<path class="st9" d="M87.7,55c0.8,0.8,1.4,1.6,1.8,2c0.2,0.2,0.6,0.5,1,0.8c2.4,1.5,6.8,3.1,6.8,3.1l0.1,0
							c0.4,2.6,0.8,6.2,0.8,9.9c0,1.2,0,2.4-0.1,3.7c-0.1,1.5-0.3,3-0.6,4.4l-0.8-0.1c0,0-3.9-0.8-4.5-1l-0.1,0
							c-0.5,4.6-1.4,8.9-2.1,11.8l0.6,0.1c0.5,0.2,1.1,0.3,1.6,0.6c5.3,2.2,8.5,6.5,8.7,7.7c0.2,1.2-6.8,4.9-18.5,3.9
							c-11.7-1-11.7-8.9-11.3-12.1c0.2-1.5,0.4-5.1,0.5-9.3c0.2-5.1,0.1-11-0.3-15c-0.7-5.7,1.4-12.1,4.8-14.6
							c0.6-0.4,1.2-0.7,1.9-0.9c0.3-0.1,0.6-0.1,0.9-0.1C82.4,49.7,85.6,52.8,87.7,55z"/>
					</g>
					<g>
						<path class="st10" d="M73.5,3.5C75.2,8.8,77,14.2,77,14.2h1.5c1.5-0.1,3-0.3,4.4-0.5l0,0.1c0,0,0.3,0.6,1,1.5
							c0.4,5.8,3.4,20.5,3.4,21.6c0,1.2,0,0-0.6,0.6c-0.3,0.3-1.7,1.1-3.2,1.9c-1.4,0.7-3,1.4-3.8,1.5C78.3,41,62.4,43,51.4,42.6
							c-11-0.3-35.4-5.5-35.4-5.5s-3.2-5-3.2-5.4c0-0.3,1.8-4.7,2.5-7.3c0.7-2.6,1.6-24.1,2.2-28.6c0.6-4.6,3.4-23.2,3.4-25.4
							c0-2.2,1.2-15,3.1-20.2c1.9-5.3,8.1-9.8,8.1-9.8s1.1-0.6,3.3-1.2c2-0.5,4.9-1,8.6-1c7.8,0,18.5,2.9,22.7,4
							c1.6,0.4,3.4,1.2,5.2,2.1c2.9,1.4,5.6,3.2,6.6,3.8c1.5,1.1,2.9,2.9,2.9,2.9s13.1,22.8,21.2,36.3c-1,1-12.1,11.3-28.7,16.1
							L73.5,3.5z"/>
					</g>
					<g>
						<path class="st6" d="M92.4,53.2c0.6,1.2-1.6,4.3-1.8,4.7c-0.4-0.3-0.8-0.5-1-0.8c-0.4-0.4-1.1-1.2-1.8-2
							c0.1-0.6,0.5-2.8,0.2-3.8c-0.4-1-6-3.7-6-3.7l-0.1-0.1L84,46C85.1,46.6,91.8,51.9,92.4,53.2z"/>
					</g>
					<g>
						<path class="st6" d="M87.9,51.3c0.3,0.9-0.1,3.2-0.2,3.8c-2.1-2.3-5.3-5.3-8.9-5.2c-0.3,0-0.6,0-0.9,0.1l3.9-2.6l0.1,0.1
							C81.9,47.6,87.5,50.3,87.9,51.3z"/>
					</g>
					<g>
						<path class="st10" d="M18.5,45.2c-1.3-0.7-2.1-1.2-2.1-1.2l-0.5-6.9c0,0,24.4,5.2,35.4,5.5c11,0.4,26.9-1.7,28.5-1.8
							c0.8-0.1,2.3-0.7,3.8-1.5c0.2,1.5,1,5.1,1.3,6L84,46l-2.2,1.4L77.9,50c-0.7,0.2-1.3,0.5-1.9,0.9L76,50.8
							c-0.3,0.1-3,1.3-7.1,1.4c-0.6,0-1.6,0-2.8,0c-5.9,0-17.5-0.5-25.3-0.7c-1.4,0-2.8-0.1-3.9-0.1c-0.9,0-1.9-0.1-2.9-0.3
							c-2.2-0.4-4.6-1.1-6.8-1.9C23.7,47.8,20.5,46.2,18.5,45.2z"/>
					</g>
					<g>
						<path class="st6" d="M34,51.1c1,0.2,2,0.3,2.9,0.3c1.1,0,2.5,0.1,3.9,0.1v0.2c0.2,0.6,2.3,13.6,3.7,14.6c1.4,1,14,4.5,14,4.5
							s7-4.5,7.6-7.2c0.5-2.3,0.5-9.3,0-11.4c1.2,0,2.1,0,2.8,0c4.1-0.2,6.8-1.3,7.1-1.4l0.1,0.1c-3.4,2.4-5.5,8.8-4.8,14.6
							c0.4,4,0.5,9.9,0.3,15c-1.9,0.2-3.9,0.3-6.1,0.2c-10.9-0.5-24.6-5-33.9-10c-2.7-1.4-5-2.9-6.8-4.3c-1.1-0.9-2.1-1.9-2.8-2.9
							c2.6-0.5,5.7-2.6,5.7-2.6L27,49.6l0.2-0.5C29.4,50,31.8,50.7,34,51.1z"/>
					</g>
					<g>
						<path class="st8" d="M41.1-69.6c2.9-0.1,7.2-0.2,11.5,0.3c5.4,0.7,11.6,1.9,15.5,6c1.7,1.8,3.1,4.1,3.7,7.2l-0.2,0.4
							c-1.8-0.9-3.6-1.7-5.2-2.1c-4.2-1.1-14.9-4-22.7-4c-3.7,0-6.6,0.5-8.6,1L35.2-61l2-8.3C37.2-69.3,38.7-69.5,41.1-69.6z"/>
					</g>
					<g>
						<path class="st9" d="M70.8,87.5c0.8,3.1-4.5,7.2-12.5,9.5c-8,2.3-19.1-5-20.4-5.2c-1.2-0.2-16.4-4.5-14.8-12.7
							c1.5-7.4,7.2-8.3,8.4-8.4c9.3,5,23,9.5,33.9,10v0.2C70,81.3,70,84.4,70.8,87.5z"/>
					</g>
					<g>
						<path class="st6" d="M66.1,52.3c0.5,2,0.5,9,0,11.4c-0.6,2.7-7.6,7.2-7.6,7.2s-12.5-3.5-14-4.5c-1.4-1-3.5-14-3.7-14.6v-0.2
							C48.6,51.8,60.2,52.2,66.1,52.3z"/>
					</g>
					<g>
						<path class="st6" d="M27,49.6l0.6,11.1c0,0-3.1,2.1-5.7,2.6c-5.5-7.3-3.5-17.4-3.4-18.2c2,1.1,5.2,2.7,8.6,4L27,49.6z"/>
					</g>
				</g>
			</g>
			<g>
				<path class="st11" d="M74.8-53.7c-3.9-3.7-10.2,1.6-11.8,5.2c-2.4,5.4,0.2,12.2,2,17.4c2.5,7.4,6.2,12.3,11.1,18.2
					c2.1,2.5,3.5,5.4,5.7,7.9c0.8,0.9,3.2,2.4,3.3,3.6c0,0.1,0.3,0.4,0.4,0.4c-2.1,0.4-4.1,1.8-6.1,2.5c-2,0.7-4.2,0.9-6,1.7
					c-0.3,1.9,2.8,7.4,3.6,10.2c0.6,2.1,4.8,0,6.8-0.6c0.9,2.2,0.1,5.2,0.4,7.5c-6.6,0.3-8.3-3.7-11-8.9c-1.5-2.9-3.5-5.1-5.4-7.6
					c-1.6-2.2-2.3-4.8-5-6C60.4,2.2,59.8,8,59.8,13c0,4.4-0.5,8.7,0.2,12.9c0.5,3.2,1.6,6.8,2.8,9.8c1.3,3.3,3.1,4.2,5.5,5.7
					c-3.5,0-5.6,1-6.6,4.5c-0.8,3,0.1,4.7,2.4,6.3c-3.6-0.1-7-1.4-10.8-0.8c-4.1,0.6-7.8,0.1-11.8-0.2c-3.9-0.3-6.8,0.1-10.4-1.1
					c-3.2-1-6.6-2.7-10-3.6c-2-0.5-3.6-1.2-5.4-2c0-1.8,1-3.7,0.6-5.6c-0.4-2-2-2.7-2.9-4.5c-1.6-3.3,1.1-8,1.9-11.3
					c0.9-3.7-0.3-7.2,0.7-10.9c0.9-3.6,1.3-7.8,1.3-11.5c0-4.3,1.2-8.5,1.1-12.9c-0.1-2.2,0.8-4.2,0.8-6.5c0-2.1,0.5-4.5,1.1-6.4
					c0.6-1.8,0.4-2.7,0.8-4.6c0.4-2.1,0.1-4.3,0.1-6.3c0-1.4,0-2.9,0.3-4.4c0.4-1.8,0.9-3.3,1.5-5.2c1.2-4.1-0.1-4.4,3.9-9.1
					c2.3-2.6,6.5-4.9,9.8-5.9c3.4-1,7.3-1.4,10.8-1.1c4.7,0.4,9,1.4,13.5,2.6c2.8,0.7,5.4,1.8,8.2,2.5c2.8,0.7,4.2,1.6,6.3,3"/>
			</g>
			<g>
				<path class="st12" d="M80.5-174.7c-4.4-2.5-11.9,1.9-15.5,4.5c-4.6,3.3-9.2,6.2-12.6,11c-3.3,4.7-7.5,9.4-9.6,14.7
					c-1.7,4.3-2.8,9.3-3,13.8c-0.4,7.5,4.4,19.9,13.3,19.2c4.8-0.4,9.8-0.9,14.5-1.6c3.4-0.5,7.6-1.4,9.7,2.2
					c1.8,3.1,1.3,6.7,1.1,10.2c-0.2,3.7,0.3,7.3-0.9,10.9c-2.4,7.5-8.9,14.1-17.3,13.3c-1.5-0.1-2.8-0.5-4.1-1.1
					c-2.8,6.7-11,5.4-16.1,3.8c-5.6-1.7-10.2-2.4-15.3-6.1c5.9-6.8,0.5-14.9-5-19.6c-2.7-2.3-5.7-2.9-8.1-5.4
					c-2.9-3.1-3.9-7.5-5.6-11.4c-1.2-2.8-1.2-9-0.9-12.2c0.4-4,0.7-3.8,1.4-7.7c1.1-6.5,11.5-16.6,17.7-18.7
					c-3.8,0.9-6.9,1.5-10.1,3.7c-1.9,1.3-3.1,1.8-5.2,2.4c-0.3-2,1.1-3.6,2.1-5.3c1.1-1.8,2.8-3.4,4.4-4.7c3.6-3,6.8-3.3,11.2-2.4
					c-0.4-1.7-2-3.4-2.5-5.2c-0.7-2.3,0.6-4.2,1.4-6.3c0.6-1.5,1.3-3.5,2.3-4.9c0.9-1.3,3-2.2,3.6-3.1c0,3.2,0.4,6.6,1.2,9.5
					c0.6,2.3,1.8,4.7,2.9,5.9c2.5-3.5,5.2-8.2,8.5-9.9c4.1-2.2,7.9-3.5,12.4-4.1c6.4-0.9,15.6-1.2,21.3,1.5c1.4,0.7,2.8,2,3.9,3.1"
					/>
			</g>
			<g>
				<path class="st12" d="M64.2-158c1.7-0.9,2.5,1.8,2.1,3.3c-0.4,1.7-2.1,3.3-3.2,4.6c-3.3,3.5-6.2,7.7-6.5,12.6
					c-0.3,4.7,1,10.1,3.7,14.1c2.7,4.1,6.2,4.7,10.6,5.6c-3.2,2.7-10.5,0.4-13.8-1.5c-5-2.9-7.8-7.9-8.5-13.5
					c-0.7-6,1.2-12.5,5-17.2c1.5-1.8,3.1-4,5-5.4c1.4-1,3-1.3,4.5-2c0.8-0.4,1.3-0.9,2.2-1"/>
			</g>
			<g>
				<path class="st12" d="M78.3-146.3c-5.7,3.3-3.4,14,0,18.1c1.3,1.5,4.1,2.9,6.1,2.8c1.4-0.1,4.1-1.2,4.1-2.8
					c-5.3-1.2-7.9-7.6-7.2-12.7c0.2-1.4,2.2-4.9,1.2-6.1c-1.1-1.4-4.3,0-5.1,1.1"/>
			</g>
			<g>
				<path class="st13" d="M104.8-111.7c-0.5,4.6-11.5,5.6-14.8,4.6c0.2-0.4,0-0.9,0.2-1.3c-8-0.4-8.8,9.3-7.6,15.3
					c-4.2,1.7-1.4,13.5,0.4,16.3c2.1,3.3,4.2,9.3,8,11c-1.5-0.4-3.9,0.7-5.6,0.9c-2,0.2-4,0.4-6.1,0.4c-2,0-4.1,0.2-6.1,0
					c-2.5-0.4-3.1-1.5-4.2,1.5c-3.3-4.1-8.4-4.7-13-6.1c-4.6-1.3-9.7-1.3-14.5-0.7c0.3-1,0.7-2.1,0.9-3.2c3.4-0.3,6.1-0.3,9.4-1.9
					c1.3-0.6,3.3-2.4,4-2.9c1.2-0.8,3.8,0.4,5.7,0.4c8.5,0,13.6-6.3,17.3-12.2c0.7-1.1,2-4.3,1.8-5.6c-0.3-1.6-1.6-3.4-1.6-5.5
					c0-2.9,1.7-8.7,3.6-10.9c2.4-2.8,5.1-2.6,7.4,0.2c1.3,1.6,2,0.5,4.1-0.3c1.8-0.7,3.8-0.7,5.4-1.9c2.4-1.7,4.5-4.2,4.4-8.4
					c0.8,1.9,2.3,10.1,1.1,11.4"/>
			</g>
			<g>
				<path class="st14" d="M75.1,51c0.7,4.3-6,5.1-8.9,5.6c-4,0.8-7.7,1.2-10.4,4.6c-3.2,3.9-3.4,13.1-0.7,17.3
					c-5.3,0.4-10.6-3.5-15.5-5c-4.4-1.4-7.1-2.4-11.1-4.3c-6.6-3.2-13-13.7-10.3-21.5c0.3-0.8,0.6-1.5,1.1-2.1
					c7.9,6.7,19.7,5.3,28,5.8c9.4,0.6,18.4,1,27.3-0.2c0.1,0.8,0.1,1.7-0.2,2.4"/>
			</g>
			<g>
				<path class="st14" d="M97.4,77.7c-0.6,0.4-1.4,3.2-1.1,4.6c0.4,2,1.7,2.6,3.5,3c5.6,1.5,11.3-0.6,17,0
					c5.3,0.5,10.4,0.9,15.8,0.9c2,0,3.5-0.5,5.4-1c2.1-0.6,3.6-0.4,5.7-0.7c1.2-0.2,2.1-0.7,3.2-0.7c0.3,2.3-4.4,6-6.3,6.9
					c-4,1.8-9.2,1.1-13.5,0.9c-4.7-0.2-9.1-0.6-13.9-0.6c-4.2,0-8.7,1.5-12.8,0.9c-3-0.5-10.1-1.5-10.2-4.5c0-0.7,1.3-8.9,1.8-9.2
					c0.5-0.4,5.1,0.8,4.9,1.1"/>
			</g>
			<g>
				<path class="st15" d="M30.1,71c-3.1-1.2-5.8,4-6.8,6.3c-1.7,3.6-0.1,5.6,2.7,8.3c3.2,3,5.7,3.9,8.4,5.3c2.6,1.4,6.7,2,10.4,3.9
					c-3-2.9-7.2-5.6-5.1-10c1.5-3.2,4.8-3.8,8-3.5c5.1,0.4,11.8,2.6,16.5,0.1c-3.7-1.2-8.1-1.4-11.9-2.5c-2.9-0.9-6.5-1.5-9.1-3
					c-3.6-2.2-11.4-5.1-14-5.2"/>
			</g>
			<g>
				<path class="st15" d="M79.4,52.3c4.4,1.4,4.9,13.6,5,17.2c0.2,5.2,0.4,10.4,0.4,15.6c0,3.4-0.6,7-0.2,10.4
					c0.3,2.9,2.2,3.7,4.2,5.4c-2.2,2-8.2,0.4-10.7-0.4c-2.9-1-6.2-3.1-7.1-6.2c-1.1-4,0.2-8.8,0.8-12.7c0.8-5.2-0.6-10.1-0.8-15.2
					C70.6,60.2,72.8,53,79.8,53"/>
			</g>
			<g>
				<path class="st13" d="M102,5.7c-0.5,0.2,0.1,1.3,0.2,2.3c0.1,1.3-0.1,2.6-0.5,3.7c-0.7,2.2-1.5,3.9-1.4,6.3
					c0.2,5.4,3.2,10.4,6.5,14.6c6.2,7.8,11.5,15.4,20.3,20.5c2.5,1.4,4.9,2.7,7.7,3.1c2.4,0.4,5.2,0.1,7.3,1.5
					c3.3,2.1,5.4,8.6,5.2,12.2c-0.3-2.9-5.1-8.9-7.9-9.6c-3.3-0.9-6.6,0.9-10.1-0.8c-6.5-3.3-12.1-8.8-17.3-13.7
					c-5.1-4.9-10.6-8.2-15.3-13.6c-2.8-3.2-5.5-7.2-8.2-10.5c-1.9-2.3-5.2-4.8-5.6-7.9c3.6-1.2,7.7-2.7,11.3-4
					c1.9-0.7,5.5-2.5,7.1-3.5"/>
			</g>
			<g>
				<path class="st16" d="M85.8-1.4c-0.1,3.1,7,9.1,10,10.4c-5,2.3-11.1,3.9-15.7,4.8c-3,0.6-2.3,0.3-4.1-2.5
					c-1.4-2.4-2.1-5.7-1.9-8.3c3.3-0.1,9.3-1.7,11.7-4"/>
			</g>
			<g>
				<path class="st16" d="M52.6-69.1c-1.6,1.6-1.8,5.6,0,7.2C48.7-62.9,38-64.7,35-61.4c1-2.4,2.4-5.2,2.6-7.9
					c2.7-0.1,5.3-0.6,8-0.6c1.4,0,7.3-0.2,6.7,0.6"/>
			</g>
			<g>
				<g>
					<g>
						<path class="st17" d="M106.7-127.6c-1.5,0-2.7-0.3-3.8-0.7l-0.1-0.1l0.2-1c0.1,0,0.2,0.1,0.2,0.1c3.8,1.6,8.3,0.4,12.8-3.4
							c1.3-1.1,2.5-2.5,3.2-3.8c3-5.7-1.1-13.9-6.6-17.1c-3.5-2-6.8-2.7-10.7-3.4c-1.4-0.3-2.8-0.5-4.4-0.9
							c-2.5-0.6-6.6-2.4-7.6-5.1c-0.6-1.5-1.5-3-2.8-4.7c-3.3-4.5-8-9.8-14.8-11.4c-3.8-0.9-8.3-0.9-13.8-0.1
							c-5.5,0.8-15.5,3.3-20.5,10.9c-0.7,1-2,3-2,3.5c0,0,0-0.1-0.1-0.2l-0.7,0.7l0,0l0,0c0,0,0,0,0,0c-4.2-3.9-4.4-12.8-4.4-15.8
							c-8.3,6.3-6.9,13.5-5.2,17.2c0.7,1.6,1.4,2.5,1.4,2.6l-0.8,0.6c0,0-0.8-1.1-1.5-2.8c-1.8-4.2-3.5-12.2,6.3-19l0.8-0.6l-0.1,1
							c0,0.1-0.6,10.6,3.4,15.4c0.3-0.7,0.8-1.7,1.9-3.2c5.2-7.9,15.5-10.5,21.2-11.4c5.6-0.8,10.3-0.8,14.2,0.1
							c7.1,1.6,12,7.1,15.4,11.7c1.3,1.7,2.3,3.3,2.9,4.9c0.9,2.1,4.6,3.9,6.9,4.5c1.5,0.4,2.9,0.6,4.3,0.9c3.9,0.7,7.3,1.4,11,3.5
							c5.9,3.4,10.2,12.2,7,18.4c-0.8,1.5-2,2.9-3.5,4.1C112.8-128.7,109.4-127.6,106.7-127.6z"/>
					</g>
				</g>
				<g>
					<g>
						<path class="st17" d="M44.4-72.5c-0.8,0-1.5-0.1-2.3-0.2c-8.2-1-16.8-6.6-17.2-6.8L24.2-80l0.7-0.4c0.1,0,1.4-0.9,1.8-3.4
							c0.8-5.6-3.3-10.9-4.5-12.4c-1.5-1.8-3.5-3.1-5.5-4.4l-0.6-0.4c-5.4-3.6-8.8-8.2-10.1-13.7c-1.7-7.1-1.8-14.1-0.3-20.3
							c2.1-8.9,9.3-14.9,13.2-17.6c-4.8,1.5-9.9,4.6-10,4.6l-0.9,0.6l0.2-1.1c2.8-15.7,17.3-14.6,17.4-14.6l-0.1,1
							c-0.6-0.1-13-0.9-16.1,12.7c2.2-1.3,7.9-4.3,12.3-4.9l2.8-0.4l-2.5,1.3c-0.1,0.1-12.5,6.8-15.2,18.6
							c-1.4,6.1-1.3,12.9,0.3,19.8c1.3,5.2,4.5,9.6,9.7,13.1l0.6,0.4c2,1.3,4.1,2.7,5.7,4.6c1.7,2,5.6,7.4,4.7,13.2
							c-0.3,1.9-1.1,3.1-1.7,3.7c2.1,1.3,9.4,5.5,16.2,6.3c1.4,0.2,2.7,0.2,3.9,0.1c7.5-0.6,10.1-4.9,10.1-4.9l0.2-0.3l0.4,0.1
							c0.1,0,7.2,1.9,11.5-0.2c4.5-2.2,11.4-8.8,12.1-16.1c0-0.2,0-0.3,0-0.4l0.7,0.9c0,0.2,0.2-0.5,0.2-0.3
							c-0.7,7.7-7.9,14.5-12.7,16.8c-4.1,2-10.3,0.7-11.9,0.4c-0.8,1.1-3.8,4.6-10.7,5.1C45.6-72.6,45-72.5,44.4-72.5z"/>
					</g>
				</g>
				<g>
					<g>
						<path class="st17" d="M90.5-109.8l-0.1-1c9.2-1.5,13.6-5,13.6-11.6c0-2.6-0.7-5-1.2-6.2c-0.4-1.2-0.9-2-0.9-2l0.9-0.5
							c0,0,0.4,0.8,0.9,2.1c0.5,1.2,1.3,3.8,1.3,6.5C104.9-117.5,102.4-111.3,90.5-109.8z"/>
					</g>
				</g>
				<g>
					<g>
						<path class="st18" d="M76.9-63.1c-5,0-7.1-1-7.5-1.3l-0.2,0l-0.4,1.1l-0.9-0.3l0.6-1.9l1.3,0.2c0,0,4.6,2.8,19.8-0.4
							c4.3-1,7.6-2.6,10.1-4.7c3.9-3.3,6.1-7.3,6.8-12.2c0.2-1.7,0.5-3.4,0.3-5.1c-0.2-1.9-0.8-3.8-1.3-5.6c-0.5-1.5-1-3.1-1.2-4.8
							c-0.5-3.1-0.3-6.4-0.2-9.3c0.2-3.6,0.1-11.5,0.1-15.3c0-1.3,0-2.2,0-2.2h1c0,0,0,0.9,0,2.2c0,3.8,0.1,11.7-0.1,15.3
							c-0.1,2.9-0.3,6.1,0.2,9.1c0.2,1.6,0.7,3.1,1.2,4.6c0.6,1.9,1.2,3.8,1.4,5.8c0.2,1.8-0.1,3.6-0.3,5.3
							c-0.8,5.2-3.1,9.3-7.2,12.8c-2.6,2.2-6.1,3.8-10.6,4.9C84.2-63.4,80-63.1,76.9-63.1z"/>
					</g>
				</g>
				<g>
					<g>
						<path class="st18" d="M85-91.9c-1,0-1.9-0.3-2.9-1c-0.7-0.5-1.2-1.1-1.6-1.8c-3.4-5-1.9-13.1,0.6-16.3c1.5-1.9,3.2-3,4.9-3.1
							c1.3-0.1,2.6,0.4,3.6,1.5c0.6,0.6,1,1.4,1.2,2.3c0.3,1.9-0.6,3.7-0.6,3.7l-0.9-0.4c0,0,0.8-1.6,0.5-3.1
							c-0.1-0.7-0.4-1.3-0.9-1.8c-0.9-0.9-1.8-1.2-2.9-1.2c-1.4,0.1-2.8,1-4.2,2.8c-2.4,3-3.7,10.7-0.6,15.1
							c0.4,0.6,0.9,1.1,1.4,1.6c0.9,0.7,1.9,0.9,2.9,0.8c1.8-0.3,3.4-2,3.4-2l0.4,0.3c-0.1,0.1-1.4,2.2-3.6,2.6
							C85.6-92,85.3-91.9,85-91.9z"/>
					</g>
				</g>
				<g>
					<g>
						<path class="st18" d="M86-98.7c-1.3-7.5,2.4-10,2.6-10.1l0.6,0.8c-0.2,0.1-3.8,2.7-2.6,9.6L86-98.7z"/>
					</g>
				</g>
				<g>
					<g>
						<path class="st18" d="M87.4-102.2c-0.2-2.2-0.8-2.5-0.8-2.5l0.3-0.9c0.2,0.1,1.3,0.5,1.5,3.4L87.4-102.2z"/>
					</g>
				</g>
				<g>
					<g>
						<polygon class="st18" points="41.6,-69.5 41.1,-69.5 40.6,-69.7 41.6,-72.9 42.5,-72.7 						"/>
					</g>
				</g>
				<g>
					<g>
						<path class="st19" d="M71.4-56c-0.6-2.8-1.8-5.1-3.6-6.9c-3.8-3.9-9.9-5.2-15.2-5.9c-3.3-0.4-7.2-0.5-11.4-0.3
							c-1.7,0.1-3,0.2-3.5,0.3l-2,8l-1-0.2l2.1-8.6l0.3,0c0.1,0,1.6-0.2,3.9-0.3c4.3-0.2,8.2-0.1,11.6,0.3c5.6,0.7,11.8,2,15.8,6.2
							c1.9,1.9,3.2,4.4,3.9,7.4L71.4-56z"/>
					</g>
				</g>
				<g>
					<g>
						<path class="st20" d="M80.8-48.7C81-48.4,93.6-26.4,101.6-13c0.3-0.2,0.5-0.4,0.8-0.6C94.4-27,81.8-49,81.6-49.2
							c-0.1-0.1-1.5-2-3-3c-1.1-0.8-3.8-2.5-6.6-3.9c-1.4-0.7-3.5-1.6-5.3-2.1l-1.3-0.3c-4.7-1.2-14.4-3.7-21.6-3.7
							c-4,0-7,0.6-8.7,1c-2.2,0.6-3.3,1.2-3.4,1.2c-0.3,0.2-6.4,4.7-8.3,10c-1.9,5.3-3.1,18.1-3.1,20.4c0,1.6-1.5,12.5-2.6,19.7
							c-0.3,2.4-0.6,4.4-0.8,5.6c-0.3,2-0.5,7-0.9,12.3c-0.4,6.9-0.9,14.8-1.3,16.3c-0.4,1.5-1.2,3.7-1.8,5.2
							c-0.6,1.6-0.7,2-0.7,2.2c0,0.2,0,0.5,3.3,5.7l0.1,0.2l0.2,0c0.2,0.1,24.6,5.2,35.5,5.5c0.9,0,1.9,0,2.9,0
							c9,0,19.8-1.2,24.1-1.7c0.8-0.1,1.3-0.1,1.6-0.2c1.1-0.1,3.1-1.1,4-1.5c1.2-0.6,2.7-1.4,3.2-1.9l0.1,0.1l0.3-0.1
							c0.3-0.1,0.3-0.4,0.3-1c0-0.4-0.3-2.2-0.9-5.6c-0.9-5.2-2.2-12.4-2.5-16l0-0.2c0-0.4,0-0.7,0-0.9h-1c0,0.3,0,0.6,0,1l0,0.2
							C83.7,19,85,26.2,86,31.5c0.5,2.5,0.9,5,0.9,5.4c-0.2,0.1-0.3,0.1-0.4,0.3c-0.2,0.2-1.4,0.9-3,1.8c-1.6,0.8-3,1.4-3.6,1.4
							c-0.2,0-0.8,0.1-1.6,0.2c-4.8,0.5-17.5,1.9-26.8,1.6c-10.3-0.3-32.8-5-35.1-5.4c-1.4-2.1-2.8-4.5-3-5c0.1-0.3,0.4-1.1,0.7-1.8
							c0.6-1.6,1.4-3.7,1.8-5.3c0.4-1.6,0.9-9.1,1.3-16.5c0.3-5.3,0.6-10.3,0.9-12.2c0.2-1.1,0.4-3.2,0.8-5.6
							c1.1-7.7,2.6-18.2,2.6-19.9c0-2.2,1.2-15,3.1-20.1c1.8-5.1,7.9-9.5,7.9-9.5c0,0,1.1-0.6,3.2-1.1c1.7-0.5,4.5-1,8.4-1
							c7,0,16.7,2.5,21.3,3.7l1.3,0.3c1.4,0.3,3.1,1,5.1,2c2.8,1.4,5.5,3.1,6.5,3.8C79.4-50.5,80.8-48.7,80.8-48.7z"/>
					</g>
					<g>
						<path class="st20" d="M108.8-3.6c-0.7-0.9-2.7-3.9-5.9-9.3c-0.1-0.2-0.3-0.5-0.4-0.7c-0.3,0.2-0.5,0.4-0.8,0.6
							c0.1,0.2,0.2,0.4,0.4,0.6c3.3,5.5,5.2,8.6,5.9,9.4l1.1,2.2c-0.7,0.7-3.1,3.1-6.8,5.7c-6.1,4.3-12.6,7.1-19.3,8.3
							c-1.5,0.3-3,0.4-4.4,0.5h-1.1c-0.4-1.2-2-5.8-3.4-10.3c0-0.1-0.1-0.2-0.1-0.4c-0.3,0.1-0.6,0.2-0.9,0.3C73,3.4,73,3.5,73,3.6
							c1.7,5.3,3.5,10.6,3.5,10.7l0.1,0.3l1.9,0c1.4-0.1,2.9-0.3,4.5-0.5c6.8-1.2,13.5-4,19.7-8.4c4.6-3.2,7.1-6,7.2-6.1l0.2-0.2
							L108.8-3.6z"/>
					</g>
					<g>
						<path class="st20" d="M71.4-5.3c-0.5-2.2-0.9-4.5-1.2-6.9c-0.1-0.8-0.2-1.5-0.3-2.2c-0.3-1.8-0.5-3.4-0.8-4.4l-0.7-0.9
							c0.3,0.9,0.2,3.7,0.5,5.5c0.1,0.7,0.2,1.4,0.3,2.2c0.3,2.4,0.7,4.7,1.3,7c0.4,1.8,1.3,4.9,2.5,8.4c0.3-0.1,0.6-0.2,0.9-0.3
							C72.7-0.5,71.9-3.5,71.4-5.3z"/>
					</g>
				</g>
				<g>
					<g>
						<path class="st20" d="M66.1,52.8c-3.9,0-10.2-0.2-16.3-0.4c-3.2-0.1-6.3-0.2-9-0.3l-1.1,0c-1,0-2-0.1-2.8-0.1
							c-1,0-2-0.1-3-0.3c-2-0.3-4.2-1-6.9-2c-3.7-1.4-7-3.1-8.7-4c-1.3-0.7-2.1-1.2-2.1-1.2L16,44.3l-0.6-7.1l1-0.1l0.5,6.6
							c0.3,0.2,0.9,0.5,1.8,1c1.6,0.9,4.9,2.6,8.6,4c2.6,1,4.8,1.6,6.7,1.9c0.9,0.2,1.9,0.3,2.8,0.3c0.8,0,1.8,0.1,2.8,0.1l1.1,0
							c2.7,0.1,5.8,0.2,9,0.3c6.1,0.2,12.4,0.4,16.3,0.4c1.2,0,2.1,0,2.8,0c2.5-0.1,4.9-0.6,6.9-1.4l0.2,0.4l0.4,0.4l-0.2,0.1
							c-2.1,0.8-4.7,1.4-7.3,1.5C68.2,52.8,67.2,52.8,66.1,52.8z"/>
					</g>
				</g>
				<g>
					<g>
						<path class="st20" d="M84.5,45.8c0,0,0-0.1-0.1-0.3c-0.2-0.9-1-4.5-1.2-6c-0.1-0.3-0.1-0.6-0.1-0.7h1c0,0.1,0,0.3,0.1,0.5
							c0.2,1.4,1,5,1.2,6c0,0.1,0,0.2,0,0.2L84.5,45.8z"/>
					</g>
				</g>
				<g>
					<g>
						<path class="st20" d="M69.4-11.7c0,0-3-2.8-4.6-4.5l0-0.4c1.7,1.7,5.3,4.1,5.3,4.2L69.4-11.7z"/>
					</g>
				</g>
				<g>
					<g>
						<path class="st20" d="M70.1-42.7l-0.3-0.3c1.3-6.3,5.4-7.7,5.6-7.7l0.3,0.9C75.6-49.7,71.3-48.4,70.1-42.7z"/>
					</g>
				</g>
				<g>
					<g>
						<path class="st19" d="M73.8,3.9L73.6,3c16.3-4.7,27.3-14.9,28.5-16l0.8,0.6l-0.1,0.1C101.5-11.2,90.4-0.9,73.8,3.9z"/>
					</g>
				</g>
				<g>
					<g>
						<path class="st18" d="M149.5,75.4l-0.6-1.2c3.9-8.5-3.1-17.6-3.8-18.5c-1-0.5-10-5.2-14.8-7.2c-5.9-2.5-27.3-41.4-28.2-43.1
							L102,5.4l0-0.2h1h-0.5l0.4-0.3c6.2,11.3,23.2,40.8,27.8,42.7c5.1,2.1,14.9,7.3,15,7.3l0.1,0.1C146.1,55.5,154.6,66,149.5,75.4
							z"/>
					</g>
				</g>
				<g>
					<g>
						<path class="st18" d="M136.7,61.4c-3.4,0-6.8-1.3-9.4-2.5c-3.1-1.5-5.9-3.6-6.1-4.3c-0.4-0.8-7.8-7.5-18.1-15.6
							c-8.1-6.4-16.4-18.6-19.5-23.5c-0.6-1-1-1.6-1-1.6l0.8-0.5c0,0,0.3,0.6,1,1.5c2.4,3.8,11.1,16.8,19.3,23.3
							c8.5,6.7,18,14.8,18.4,16c0.5,0.8,10.7,8.2,18.1,5.5c0.7-0.2,1.6-0.4,2.2-0.8l0.2,0.7c-0.6,0.4-1.3,0.8-2.1,1
							C139.3,61.2,138,61.4,136.7,61.4z"/>
					</g>
				</g>
				<g>
					<g>
						<polygon class="st20" points="85.3,44.5 77.6,49.6 77.3,49.8 77.9,50.6 82.1,47.9 85.4,45.7 85.4,44.6 						"/>
					</g>
					<g>
						<path class="st21" d="M85.5,44.6l-0.1,0v1.1l0.2-0.1c2.5,0.4,28.4,5.1,35.9,9.3l-1.4-1.5C112.1,48.8,86.7,44.8,85.5,44.6z"/>
					</g>
				</g>
				<g>
					<g>
						<path class="st21" d="M102.5,93c-1.7,0-7.6-2.3-10.1-3.3l-0.3-0.2l0.7-0.7c3.7,1.5,8.5,3.2,9.7,3.2c1.8,0,11.2-0.9,13.6-1.2
							c2.5-0.3,11-0.3,17.2,0.3c6.7,0.7,11.3-1.7,13.7-7.2c0.6-1.4,1-2.8,1.3-4.3c0.4-1.8,0.4-3.6,0.1-5.4c-1.3-7.8-8-13.2-8.1-13.3
							l0.8-0.4c0.3,0.2,7,5.4,8.3,13.5c0.3,1.9,0.3,3.9-0.1,5.7c-0.3,1.6-0.7,3.1-1.4,4.5c-2.5,5.9-7.5,8.5-14.7,7.8
							c-5.9-0.6-14.5-0.6-16.9-0.3C113.8,92.1,104.3,93,102.5,93z"/>
					</g>
				</g>
				<g>
					<g>
						<path class="st21" d="M108.1,66.5c-0.1-0.1-0.5-0.6-1.2-1.5c-1.2-1.5-3.1-3.8-4.8-5.6c-2.4-2.7-3.1-2.9-3.1-2.9
							c-0.2,0-0.8,0.1-2,0.7c-1.5,0.8-2.7,1.7-2.8,2l-1-0.1c0-1,3.2-2.7,3.3-2.7c1.1-0.6,1.9-0.8,2.5-0.8c0.3,0,1,0,3.8,3.2
							c1.7,1.9,3.6,4.1,4.8,5.6c0.6,0.7,0.5,1.9,0.6,2L108.1,66.5z"/>
					</g>
				</g>
				<g>
					<g>
						<path class="st21" d="M142.7,77.4c-9.8-13.3-39.8-18-40.1-18l0.2-1c1.2,0.2,29.9,5.1,40,18.7L142.7,77.4z"/>
					</g>
				</g>
				<g>
					<g>
						<path class="st21" d="M91.4,89.4l-0.5-0.9c3-1.7,5.1-5,6.1-9.7c0.3-1.3,0.5-2.8,0.6-4.3c0.1-1.2,0.1-2.4,0.1-3.6
							c0-3.9-0.4-7.5-0.8-9.8c-0.4-2.4-0.8-4-0.8-4.1l1-0.2c0,0,0.4,1.6,0.8,4.1c0.4,2.4,0.8,6.1,0.8,10c0,1.2-0.1,2.5-0.1,3.7
							c-0.1,1.6-0.3,3.1-0.6,4.5C96.9,84,94.7,87.5,91.4,89.4z"/>
					</g>
				</g>
				<g>
					<g>
						<path class="st22" d="M92.3,89.9c-0.5-0.2-1-0.4-1.6-0.6l-0.1,0.5l-0.1,0.5c0.5,0.2,1,0.3,1.5,0.5c5,2.1,8.3,6.3,8.4,7.3
							c-0.2,0.9-6.8,4.4-18,3.4c-4.2-0.4-7.3-1.7-9.1-3.9c-1.6-1.9-2.2-4.5-1.8-7.7c0.2-1.6,0.4-5.4,0.5-9.3
							c0.1-2.9,0.3-10.1-0.3-15.1c-0.6-5.6,1.4-11.8,4.6-14.1c0.5-0.4,1.1-0.7,1.7-0.8c0.3-0.1,0.5-0.1,0.8-0.1
							c3.4-0.2,6.5,2.8,8.5,5c0.4,0.4,0.7,0.8,1,1.1c0.3,0.4,0.6,0.7,0.9,0.9c0.2,0.2,0.6,0.5,1.1,0.9c2.4,1.5,6.7,3.1,6.9,3.2
							l0-0.1c-0.1-0.3-0.2-0.6-0.3-0.9c0-0.1,0-0.2,0-0.2c-1.3-0.5-4.2-1.7-6-2.8c-0.4-0.3-0.8-0.5-1-0.7c-0.2-0.2-0.5-0.5-0.8-0.9
							c-0.3-0.3-0.6-0.7-1-1.1c-2.1-2.3-5.3-5.3-8.9-5.3c-0.1,0-0.2,0-0.3,0c-0.3,0-0.7,0-1,0.1c-0.7,0.2-1.4,0.5-2,1
							c-3.5,2.5-5.7,9.1-5,15c0.4,3.5,0.5,8.9,0.3,14.9c-0.1,4.5-0.3,7.9-0.5,9.2c-0.4,3.4,0.3,6.3,2,8.4c2,2.4,5.2,3.9,9.7,4.3
							c1.4,0.1,2.8,0.2,4.1,0.2c8.3,0,13.4-2.4,14.6-3.7c0.3-0.3,0.4-0.7,0.4-1C101.1,96.6,97.7,92.1,92.3,89.9z"/>
					</g>
				</g>
				<g>
					<g>
						<path class="st22" d="M88.8,93.6l-0.4-0.1c0,0,0.5-1.6,1-4c0.7-2.8,1.6-7.2,2.1-11.7c0.3-2.7,1-5.9,1-8.2l0.5,0.7
							c0,2.4-0.2,4.9-0.5,7.6c-0.5,4.6-1.5,9-2.1,11.9C89.8,92.2,88.8,93.6,88.8,93.6z"/>
					</g>
				</g>
				<g>
					<g>
						<path class="st22" d="M96.6,79.3c-0.4-0.1-4-0.8-4.6-1l0.3-0.9c0.4,0.2,2.9,0.7,4.4,1L96.6,79.3z"/>
					</g>
				</g>
				<g>
					<g>
						<path class="st21" d="M67.5,81.2c-0.7,0-1.4,0-2.1-0.1c-11.6-0.5-25.5-5.4-34.1-10.1c-2.7-1.5-5-3-6.8-4.4
							c-1.1-0.9-2.1-1.9-2.9-3c-5.1-6.8-4-15.9-3.5-18.5l0-0.2l0.1-0.2l0.3,0.3H19L19,45.3l0,0c-0.5,2.6-1.6,11.4,3.3,17.8
							c0.8,1,1.7,2,2.7,2.8c1.7,1.4,4,2.8,6.7,4.3c8.6,4.6,22.3,9.5,33.7,10c2.1,0.1,4.1,0.1,6-0.2l0.2,0v1
							C70.3,81.1,68.9,81.2,67.5,81.2z"/>
					</g>
				</g>
				<g>
					<g>
						<path class="st21" d="M36.4,69.8c-3.7-7.6-3-18.3-2.9-18.8l1,0.1c0,0.1-1.1,11.3,2.5,18.7L36.4,69.8z"/>
					</g>
				</g>
				<g>
					<g>
						<path class="st21" d="M21.9,63.9L21.5,63c0.1,0,0.1,0,0.2,0c2.2-0.4,4.6-1.9,5.4-2.4l-0.6-11.2l1,0.3L28.1,61l-0.2,0.2
							c-0.1,0.1-3.2,2.2-5.9,2.7C22,63.9,21.9,63.9,21.9,63.9z"/>
					</g>
				</g>
				<g>
					<g>
						<path class="st21" d="M65.6,52.6c0.4,2.2,0.5,8.7,0,10.9c-0.5,2-5.2,5.4-7.2,6.8c-5-1.4-12.6-3.7-13.6-4.4
							c-0.9-0.7-2.6-9.4-3.1-12.2c-0.1-0.8-0.2-1.2-0.3-1.6c-0.4,0-0.7-0.1-1-0.2c0.1,0.2,0.2,1,0.4,1.9c1.4,7.4,2.4,12.1,3.5,12.9
							c1.5,1,12.8,4.2,14.1,4.6l0.2,0.1l0.2-0.1c0.7-0.5,7.2-4.7,7.8-7.5c0.5-2.3,0.5-8.7,0.1-11.1C66.3,52.6,65.9,52.7,65.6,52.6z"
							/>
					</g>
				</g>
				<g>
					<g>
						<path class="st21" d="M87.4,51.5c0.2,0.5,0.1,1.8-0.1,2.7c0,0,0.1,0.1,0.1,0.1c0.2,0.3,0.5,0.5,0.7,0.8c0.1-0.4,0.6-2.9,0.2-4
							c-0.4-1-4-2.9-5.7-3.7c-0.2,0.1-0.4,0.2-0.5,0.3c-0.1,0.1-0.2,0.2-0.4,0.3l0,0.1C84.2,49.3,87.2,50.9,87.4,51.5z"/>
					</g>
				</g>
				<g>
					<g>
						<path class="st21" d="M92.8,52.9c-0.6-1.3-6.5-5.9-8.1-7.1c-0.3,0.2-0.5,0.4-0.8,0.6c1.5,1,7.5,5.9,8,6.9
							c0.2,0.3,0,1.4-1.5,3.7c0.3,0.2,0.5,0.4,0.8,0.6C92.7,55.4,93.3,53.8,92.8,52.9z"/>
					</g>
				</g>
				<g>
					<g>
						<path class="st22" d="M71.3,87.4c-0.1-0.4-0.2-0.8-0.3-1.3c-0.5-2.1-1-4.2-3.4-5.2c-0.4,0.1-0.7,0.2-1.1,0.3
							c-0.1,0.1-0.3,0.2-0.4,0.2c-0.1,0-0.1,0-0.2,0.1c3.1,0.5,3.6,2.4,4.1,4.8c0.1,0.4,0.2,0.9,0.3,1.3c0.8,2.8-4.6,6.7-12.2,8.9
							C51.9,98.2,43.6,94,40,92.2c-1.2-0.6-1.7-0.9-2-0.9c-0.9-0.1-10-2.8-13.3-7.5c-1-1.5-1.4-3.1-1.1-4.7c1.5-7.3,7.3-8,8-8
							c0.1,0,0.1,0,0.1,0v-0.1c-0.6-0.1-1.1-0.4-1.5-0.7c-2.2,0.6-6.3,2.4-7.6,8.6c-0.4,1.9,0,3.7,1.2,5.4c3.5,5,12.8,7.7,14,7.9
							c0.2,0,1,0.4,1.8,0.8c3.3,1.7,9.5,4.8,15.3,4.8c1.2,0,2.4-0.1,3.6-0.5C66.8,95,72.2,90.8,71.3,87.4z"/>
					</g>
				</g>
				<g>
					<g>
						<path class="st21" d="M147.7,80.3c-0.9,0-2.5-0.2-5.5-0.6c-2.4-0.3-5.3-0.6-7.5-0.9c-1-0.1-1.9-0.3-2.7-0.4
							c-4.7-0.6-13.5-2.9-13.6-2.9l-0.2-0.1c0,0-3.9-2.7-5.3-3.2l-1.2-0.5l-4.8,2.8l-0.2-0.5c-0.9-1.6-2-3.5-2.5-3.7
							c-0.2-0.1-0.8,0.2-1.3,0.4c-1.1,0.4-3.1,0.7-4.3,0.1l-0.3-1c0.8,0.4,3.2,0.3,4.2-0.1c0.9-0.3,1.6-0.6,2.1-0.4
							c0.8,0.4,2,2.5,2.6,3.7l4.3-2.5l1.7,0.7c1.4,0.6,4.8,2.9,5.4,3.3c0.9,0.2,9,2.3,13.4,2.9c0.8,0.1,1.7,0.2,2.7,0.4
							c2.2,0.3,4.9,0.7,7.4,1c5.1,0.6,6.1,0.5,6.3,0.4l0.5,0.9C148.8,80.3,148.5,80.3,147.7,80.3z"/>
					</g>
				</g>
				<g>
					<g>
						<path class="st21" d="M146.4,84.3c0,0-6.6-1-10.7-1.6c-3.6-0.5-6-1.1-7.8-1.5l-0.7-0.2c-1.7-0.4-6.3-1.4-9.2-1.8
							c-2.3-0.3-4.4-1.3-5.6-1.8c-0.3-0.1-0.5-0.2-0.7-0.3c-0.2,0-0.7,0.2-1.1,0.3c-0.7,0.2-1.6,0.5-2.4,0.5c-0.9,0-1.7-0.6-2.5-1.2
							c-0.7-0.5-1.5-1-2.4-1.3c-1-0.3-2.1-0.3-3.1-0.3c-0.8,0-1.6,0-2.1-0.2l0.4-0.9c0.4,0.1,1,0.1,1.7,0.1c1,0,2.2-0.1,3.4,0.3
							c1.1,0.3,1.9,0.9,2.7,1.5c0.7,0.5,1.4,1,1.9,1c0.7,0,1.4-0.3,2.1-0.5c0.7-0.3,1.3-0.4,1.8-0.3c0.1,0,0.4,0.2,0.8,0.3
							c1.1,0.5,3.2,1.4,5.3,1.7c3,0.4,7.6,1.5,9.3,1.8l0.7,0.2c1.7,0.4,4.1,0.9,7.7,1.5c4.7,0.7,5.2,1.3,11.2,2.2L146.4,84.3z"/>
					</g>
				</g>
			</g>
		</g>
	</g>
	<use xlink:href="#SVGID_1_"  style="overflow:visible;fill:none;stroke:#231F20;stroke-miterlimit:10;"/>
</g>
</svg>
