<?xml version="1.0" encoding="utf-8"?>
<!-- Generator: Adobe Illustrator 21.1.0, SVG Export Plug-In . SVG Version: 6.00 Build 0)  -->
<svg version="1.1" id="Layer_1" xmlns="http://www.w3.org/2000/svg" xmlns:xlink="http://www.w3.org/1999/xlink" x="0px" y="0px"
	 viewBox="0 0 1024 768" style="enable-background:new 0 0 1024 768;" xml:space="preserve">
<style type="text/css">
	.st0{fill:url(#SVGID_1_);}
	.st1{fill:#622272;}
	.st2{fill:url(#SVGID_2_);}
	.st3{fill:#C94876;}
	.st4{fill-rule:evenodd;clip-rule:evenodd;fill:#F6DFB4;}
	.st5{fill:#D1D3D4;}
	.st6{fill:#FFFFFF;}
	.st7{fill:#1D5A69;}
	.st8{fill:url(#SVGID_3_);}
	.st9{fill:url(#SVGID_4_);}
	.st10{fill:#FF8A00;}
	.st11{filter:url(#Adobe_OpacityMaskFilter);}
	.st12{filter:url(#Adobe_OpacityMaskFilter_1_);}
	.st13{mask:url(#SVGID_5_);fill:url(#SVGID_6_);}
	.st14{fill:url(#SVGID_7_);}
</style>
<g>
	<g>
		<g>
			<linearGradient id="SVGID_1_" gradientUnits="userSpaceOnUse" x1="245.2364" y1="139.1745" x2="245.2364" y2="722.1655">
				<stop  offset="0.3212" style="stop-color:#1C75BC"/>
				<stop  offset="0.3967" style="stop-color:#247BBF"/>
				<stop  offset="0.517" style="stop-color:#3C8AC7"/>
				<stop  offset="0.667" style="stop-color:#61A4D5"/>
				<stop  offset="0.839" style="stop-color:#95C7E8"/>
				<stop  offset="1" style="stop-color:#CCECFC"/>
			</linearGradient>
			<path class="st0" d="M395.5,267.9h-6.1c-1.8-28.2-25.9-59.6-71.7-93.4c-35-25.9-70.5-43.7-70.9-43.9c-1-0.5-2.2-0.5-3.1,0
				c-0.3,0.2-35.9,18-70.9,43.9c-45.7,33.8-69.8,65.2-71.7,93.4H95c-1.9,0-3.5,1.6-3.5,3.5v360.2H399V271.4
				C399,269.5,397.4,267.9,395.5,267.9z"/>
		</g>
	</g>
</g>
<g>
	<path class="st1" d="M736.7,220.5c-0.8,0-1.5,0.7-1.5,1.5c0,0.8,0.7,1.5,1.5,1.5c0.8,0,1.5-0.7,1.5-1.5
		C738.2,221.2,737.5,220.5,736.7,220.5z"/>
	<path class="st1" d="M736.7,213c-0.8,0-1.5,0.7-1.5,1.5c0,0.8,0.7,1.5,1.5,1.5c0.8,0,1.5-0.7,1.5-1.5
		C738.2,213.7,737.5,213,736.7,213z"/>
	<polygon class="st1" points="756.9,200.9 751.2,202 751.2,203.2 756.9,202.1 	"/>
	<polygon class="st1" points="756.9,203.3 751.2,204.4 751.2,205.6 756.9,204.5 	"/>
	<path class="st1" d="M761.6,215.2l-1.5,1.2c0.8,1.8,1.5,3.5,1,4.7c-0.5,0.2-1.3,0.3-2.5,0.3h-0.7l0,0c0,0,0,0,0,0
		c-2,0-2.8-0.4-2.8-2.3V207l-0.1-0.1l-1.7,0.4V218c-0.2,0.4-0.5,0.7-0.7,1c-1-2-3.4-5.4-6.4-8.1l-0.2,0.1l-0.7,1.9
		c2.8,2.6,4.8,4.7,6.1,7.1c-1.6,1.1-3.6,1.5-5.9,1.6l-0.1,0.1l0.8,1.7c2.7,0,5.3-0.8,7.2-3c0.4,2.3,2,2.9,4.1,2.9c0,0,0,0,0,0l0,0
		h0.7c2.2,0,3.1-0.2,3.8-0.8c0.7-0.7,1.2-1.9,1.2-2.9c0-1-0.5-2.6-1.2-4.3H761.6z"/>
	<path class="st1" d="M761.1,211.4c-0.3-0.3-0.5-0.7-0.5-1.1c0-0.5,0.3-1,1-1c0.3,0,0.7,0.1,1.2,0.3l0.4-1.4
		c-0.6-0.2-1.3-0.4-1.8-0.4c-1.4,0-2.2,0.8-2.2,2.1c0,0.6,0.2,1.1,0.5,1.5c-0.4,0-0.8,0-1.2,0l0.1,1.4c2.1-0.1,3.7-0.2,5-0.4
		l-0.1-1.3C762.8,211.3,762,211.3,761.1,211.4z"/>
	<polygon class="st1" points="775.4,207.9 773.4,206.5 772.3,208.3 774.2,209.7 	"/>
	<path class="st1" d="M775.6,212.3c-1.9,0-3.5,2.4-3.5,4.6c0,1.7,1,2.8,3.1,2.8c1,0,1.8-0.1,2.5-0.3c0,0.6-0.1,1.2-0.2,1.5
		c-0.7,0.3-2.2,0.5-6.8,0.5l0,0c0,0,0,0,0,0c-2,0-2.8-0.4-2.8-2.3V207l-0.1-0.1l-1.7,0.4v12c0,3.1,1.8,4,4.2,4c0,0,0,0,0,0l0,0
		c4.5,0,6.3-0.1,7.6-0.8c1.1-0.8,1.5-2.1,1.5-4.4C779.3,215.1,777.9,212.3,775.6,212.3z M775.5,217.9c-1.2,0-1.9-0.4-1.9-1.2
		c0-1.3,1-2.5,1.9-2.5c1.1,0,2.1,1.7,2.2,3.5C777,217.8,776.4,217.9,775.5,217.9z"/>
	<polygon class="st1" points="778.8,207.9 776.8,206.5 775.6,208.3 777.5,209.7 	"/>
	<polygon class="st1" points="792,238.4 797.7,237.3 797.7,236.1 792,237.2 	"/>
	<path class="st1" d="M800,230.7c-1.3,0.4-3,0.7-4.5,0.7c-3.9,0-6.4-1.5-6.4-4c0-2.5,2.9-4,7.7-5.4l0.1-1.9l-0.1,0
		c-1.8,0.5-3.3,1.1-4.6,1.7c-1.3-1-1.9-2.3-1.9-3.4c0-1.4,1-2.1,2.6-2.1c0.9,0,2,0.3,2.9,0.6l0.1,0l0.2-1.7
		c-0.8-0.4-2.1-0.8-3.2-0.8c-2.6,0-4.6,1.5-4.6,4c0,1.6,0.9,3.3,2.3,4.4c-2.2,1.4-3.3,3-3.3,5c0,3.4,3.1,5.5,7.6,5.5
		c2.1,0,4-0.4,5.6-1.1l-0.3-1.3L800,230.7z"/>
	<path class="st1" d="M812.6,213.6l6.2-3.5l0.6-2.4l-0.2-0.1l-7.9,4.5l-0.5,2.4l0.1,0.1c3.1,2,5.6,3.8,5.6,5.7c-0.6,0.5-2.5,1-5,1
		h-1.8l0,0c0,0,0,0,0,0h-1.9v-0.1c0-3.1-1.5-5.7-3.6-5.7c-1.9,0-3.5,2.4-3.5,4.7c0,1.9,1.4,3.1,4.4,3.1h0.7c-1,1.6-3.2,2.5-6.1,2.7
		l-0.1,0.2l1,1.4c4-0.1,6.2-2,7-4.2h1.8c0,0,0,0,0,0l0,0h2.3c4.8,0,6.5-1.5,6.5-3.4C818.1,218.3,817.3,216.7,812.6,213.6z
		 M806.4,221.4h-1c-2.2,0-3.1-0.5-3.1-1.4c0-1.6,1-2.6,1.9-2.6c1.1,0,2.2,1.8,2.2,3.8V221.4z"/>
	<path class="st1" d="M830.8,207.3V219c0,0.9-0.1,1.5-0.2,1.9c-0.6,0.4-1.5,0.5-2.3,0.5l0,0c0,0,0,0,0,0c-1.6,0-1.9-0.3-2.5-1.9
		c-0.2-0.6-0.8-2-1.4-3.7h-0.2l-1.4,1.5c0.7,1.4,1.5,2.9,1.8,4c-0.5,1.9-2.2,3.7-6.8,4.6l-0.1,0.2l1,1.4c3.8-0.7,6.4-2.7,7.2-4.9
		c0.4,0.4,1.1,0.6,2,0.6v0c0,0,0,0,0,0c0,0,0,0,0,0c0,0,0,0,0,0c3,0,4.8-0.9,4.8-4.4V207l-0.2-0.1L830.8,207.3z"/>
	<polygon class="st1" points="835.8,207.3 835.8,223.3 835.9,223.4 837.6,223 837.7,207 837.5,206.9 	"/>
	<polygon class="st1" points="853.6,213.9 851.7,212.5 850.4,214.3 852.4,215.7 	"/>
	<path class="st1" d="M867.5,215.5c-2.2,0-3.4,2.9-4.3,4.3c-0.6,1.1-1.1,1.5-2.2,1.5l0,0c-0.1,0-0.1,0-0.2,0c-1,0-1.7-0.4-2.2-1.4
		c-0.5-0.9-0.9-2.4-1.2-3.2h-0.1l-1.7,1.2c1.1,2.4,1.8,4.2,1,6c-0.7,0.9-1.9,1.8-4.6,1.8c-3.3,0-4.2-1.6-4.2-4
		c0-0.6,0.1-1.4,0.2-2.2l-0.2-0.1l-1.5,0.5c-0.2,0.6-0.4,1.7-0.4,2.7c0,2.9,1.9,4.9,5.7,4.9c3.6,0,6.4-1.7,6.9-5.1
		c0.6,0.4,1.3,0.6,1.9,0.6c0,0,0,0,0,0l0,0c1.7,0,2.8-0.4,3.6-1.5c1.7,1.2,3.6,1.8,4.8,1.8c1.6,0,2.4-1,2.4-2.6
		C871.6,218.2,869.8,215.5,867.5,215.5z M869.7,221.4c-0.3,0.2-0.7,0.3-1,0.3c-0.7,0-2.1-0.5-3.5-1.4c1-1.8,1.5-2.9,2.4-2.9
		C868.8,217.4,869.9,220.3,869.7,221.4z"/>
	<path class="st1" d="M890.7,207.3v13.1c0,1.9-0.3,3.1-0.6,3.7c-1,1.2-2.4,1.7-4.4,1.7c-3.3,0-4.2-1.6-4.2-4c0-0.6,0.1-1.4,0.2-2.2
		l-0.2-0.1l-1.5,0.5c-0.2,0.6-0.4,1.7-0.4,2.7c0,2.9,1.9,4.9,5.7,4.9c4.7,0,7.2-2.1,7.2-7.5l0-13.2l-0.2-0.1L890.7,207.3z"/>
	<polygon class="st1" points="910.3,212.2 908.4,210.9 907.2,212.7 909.2,214.1 	"/>
	<polygon class="st1" points="913.7,212.2 911.8,210.9 910.6,212.7 912.5,214.1 	"/>
	<path class="st1" d="M919,221.3c-0.9-0.9-1.4-2-1.4-3c0-1.4,0.9-2.1,2.6-2.1c0.9,0,2,0.3,2.9,0.6l0.1,0l0.2-1.7
		c-0.8-0.4-2.1-0.8-3.2-0.8c-2.6,0-4.6,1.5-4.6,4c0,1,0.4,2.1,1,3.1c-0.8,0-1.7,0-2.6,0c-2,0-2.9-0.4-3.4-0.7
		c0.5-0.9,0.8-2.2,1.1-3.7l-0.2-0.1l-1.8,0.5c-0.5,2-0.8,3.1-1.2,3.6c-0.4,0.3-1.1,0.5-1.8,0.5h-0.7l0,0c0,0,0,0,0,0
		c-1.2,0-1.7-0.4-2.7-2.3c-0.3-0.7-2.1-4.5-2.8-6h-0.2l-1.4,1.5c1,1.7,2.8,5.2,3.2,6l0.1,0.1c-0.8,0.6-2.5,0.9-3.9,0.9
		c-0.6,0-1.8-0.1-2.6-0.2l-0.1,0.1l-0.3,1.8c0.9,0.2,2.3,0.3,2.8,0.3c2.4,0,4-0.5,4.9-1.4c0.7,1,1.4,1.3,2.5,1.3c0,0,0,0,0,0l0,0
		h0.8c1.5,0,2.6-0.4,3.3-1.2c1,0.9,2.5,1.2,3.9,1.2l0,0c0,0,0,0,0,0c0,0,0,0,0,0l0,0c6.1,0,8.9-0.2,10.8-0.6l0.6-1.7l-0.1-0.1
		C922.9,221.1,921,221.2,919,221.3z"/>
	<path class="st1" d="M930.5,203.8c-0.6,0.1-1.4,0.1-2.2,0.2c-0.3-0.3-0.5-0.6-0.5-1c0-0.5,0.3-0.9,0.9-0.9c0.3,0,0.7,0.1,1.1,0.2
		l0.3-1.2c-0.6-0.2-1.2-0.3-1.7-0.3c-1.2,0-2,0.7-2,1.9c0,0.5,0.2,1,0.4,1.4c-0.4,0-0.7,0-1.1,0l0.1,1.3c1.9-0.1,3.4-0.2,4.6-0.3
		L930.5,203.8z"/>
	<polygon class="st1" points="927.5,207.3 927.5,223.3 927.6,223.4 929.3,223 929.3,207 929.2,206.9 	"/>
</g>
<linearGradient id="SVGID_2_" gradientUnits="userSpaceOnUse" x1="505.5111" y1="359.1266" x2="1024.0511" y2="359.1266">
	<stop  offset="0.1199" style="stop-color:#FFFFFF"/>
	<stop  offset="0.9969" style="stop-color:#FEF1D4"/>
</linearGradient>
<rect x="505.5" y="286.6" class="st2" width="518.5" height="145"/>
<g>
	<path class="st3" d="M652.1,338.8c-1.6,0-2.9,1.3-2.9,2.8c0,1.6,1.3,2.9,2.9,2.9c1.5,0,2.9-1.3,2.9-2.9
		C655.1,340.1,653.7,338.8,652.1,338.8z"/>
	<path class="st3" d="M659.6,338.8c-1.6,0-2.9,1.3-2.9,2.8c0,1.6,1.3,2.9,2.9,2.9c1.5,0,2.9-1.3,2.9-2.9
		C662.5,340.1,661.1,338.8,659.6,338.8z"/>
	<path class="st3" d="M669.5,327.2l-0.4,0.3l-2.2,3.7c0.4,0.3,0.7,0.5,1,0.8c-2.7,3.3-3.5,5.5-3.5,7.2c0,3.2,2.2,5.1,6,5.1
		c3.9,0,6.4-2.4,6.4-6.1C676.9,335.1,675,331.9,669.5,327.2z M670.7,339.8c-1.4,0-2.3-0.7-2.3-1.8c0-1.1,0.6-2.3,2.2-3.9
		c1.5,1.5,2.4,2.8,2.4,3.9C673.1,339.2,672.2,339.8,670.7,339.8z"/>
	<path class="st3" d="M736.3,335.2c-1.7-0.1-3.4-0.7-7.3-2.6c-3.6-1.8-5.1-2.4-6.7-2.4c-1.2,0-2.4,0.4-3.3,0.8l-1.6,4l0.2,0.2
		c1.2-0.4,2.5-0.7,4.1-0.7c1.5,0,3.1,0.5,5.9,2c0.6,0.3,1.2,0.6,1.7,0.8c-1,0.3-2.2,0.5-3.7,1c-4.6,1.2-6.6,1.4-9.4,1.4l0,0
		c0,0,0,0,0,0c-2.1,0-2.8-0.5-4-2.9c-1.5-3-2.9-5.4-5.5-5.4c-3,0-4.8,3.2-6.7,6.6c-0.8,1.5-1.3,1.7-2.9,1.7l0,0c0,0,0,0,0,0
		c-2.4,0-3.1-0.4-4.4-3.4c-0.5-1.2-2.9-6.7-3.8-9h-0.4l-3.2,3.7c1.5,2.8,3.4,6.6,4.2,8.1c-1.4,0.6-3.5,0.8-5.2,0.8
		c-0.8,0-2.5-0.1-3.7-0.3l-0.3,0.1l-0.6,4.4c1.3,0.3,3.2,0.4,4.2,0.4c3.1,0,5.8-0.8,7.5-2c1,1.3,2.5,1.7,4.8,1.7c0,0,0,0,0,0l0,0
		c2.7,0,4.5-0.2,6-2c2.4,1.7,4.8,2.5,6.4,2.5c1.4,0,2.3-0.6,3.1-1.7c1,0.9,2.2,1.3,3.7,1.3c0,0,0,0,0,0l0,0c2.7,0,5.2-0.5,10.2-2.2
		c3.7-1.3,7.1-2.1,9.6-2.4L736.3,335.2z M707.8,340.3c-1,0-2.5-0.6-3.9-1.6c1-1.8,1.8-3.1,2.6-3.1c0.8,0,1.7,1.2,2.8,3.9l0.1,0.2
		C709.1,340,708.7,340.3,707.8,340.3z"/>
	<polygon class="st3" points="758.8,329.1 755,326.4 752.6,329.9 756.5,332.7 	"/>
	<path class="st3" d="M755.4,350.8c5.5,0,9.7-2.3,11-7.3c0.6,0.4,1.4,0.6,2.3,0.6c0,0,0,0,0,0l0,0c2.7,0,4.5-0.2,6-2
		c2.4,1.7,4.8,2.5,6.4,2.5c1.4,0,2.3-0.6,3.1-1.7c1,0.9,2.2,1.3,3.7,1.3c0,0,0,0,0,0l0,0c5.4,0,8.6-1.5,8.6-7.8v-16.9l-0.3-0.2
		l-4.2,1.1v16.2c0,1.3-0.1,2.1-0.3,2.7c-0.7,0.4-1.9,0.5-2.9,0.5l0,0c0,0,0,0,0,0c-2.1,0-2.8-0.5-4-2.9c-1.5-3-2.9-5.4-5.5-5.4
		c-3,0-4.8,3.2-6.7,6.6c-0.8,1.5-1.3,1.7-2.9,1.7l0,0c0,0-0.1,0-0.1,0c-1.8,0-2.8-0.4-3.3-1.6c-0.4-0.8-1.3-4-1.7-4.8h-0.2l-3.9,2.8
		c1.4,2.9,2.5,5.5,2.1,7.8c-0.9,1.3-3,2.5-6.2,2.5c-4.3,0-5.6-2.1-5.6-5.1c0-1,0.1-2.1,0.3-3.4l-0.4-0.1l-3.2,1.2
		c-0.3,1-0.7,2.7-0.7,4.4C746.7,347.7,749.8,350.8,755.4,350.8z M779.2,335.6c0.8,0,1.7,1.2,2.8,3.9l0.1,0.2
		c-0.4,0.4-0.8,0.6-1.7,0.6c-1,0-2.5-0.6-3.9-1.6C777.5,336.9,778.4,335.6,779.2,335.6z"/>
	<path class="st3" d="M827,321c1,0,1.8-0.3,2.4-0.9c0.4,0.5,1.2,0.9,2.1,0.9c2.3,0,3.5-1.6,3.5-3.7c0-1.1-0.3-2-0.5-2.8l-2.5,0.6
		c0.2,0.6,0.4,1.3,0.4,2.1c0,0.8-0.2,1.3-0.9,1.3c-0.6,0-1-0.3-1-1.2c0-0.3,0-0.8,0-1.5l-2.3,0.2c0,2.1-0.3,2.6-1,2.6
		c-0.6,0-0.9-0.4-0.9-1.3c0-0.4,0-1,0.1-1.5l-2.4,0.1c-0.2,0.6-0.3,1.7-0.3,2.1C823.7,319.4,824.5,321,827,321z"/>
	<rect x="827.6" y="309" class="st3" width="3.2" height="4.6"/>
	<polygon class="st3" points="850.9,343.5 851,319.3 850.6,319.1 846.5,320.2 846.5,344.1 846.8,344.3 	"/>
	<path class="st3" d="M823,344.1c0,0,0.1,0,0.1,0h0.2c3.2,0,4.9-0.6,6.1-2.1c1.1,1.5,2.8,2,4.1,2.1h0.3c0,0,0.1,0,0.1,0h0.3
		c5-0.1,7.9-1.8,7.9-7.8v-16.9l-0.3-0.2l-4.2,1.1v16.2c0,1.3-0.1,2.1-0.3,2.7c-0.7,0.3-1.7,0.5-2.7,0.5c-2.5,0-3.3-0.5-3.3-3.2
		v-13.1l-0.3-0.2l-4.2,1.1v12.3c0,1.3-0.1,2.1-0.3,2.7c-0.7,0.3-1.7,0.5-2.7,0.5c-2.6,0-3.2-0.6-3.2-2.5v-10.8l-0.3-0.1l-4.2,1.6
		v1.7c-5.7,1.9-8.6,5.2-8.6,8.2c0,2.8,2.4,4.6,6.4,4.6c1.2,0,2.2-0.2,3.3-0.6c1.1,1.6,3,2.3,5.4,2.4H823z M816.3,337.1v0.7
		c-0.5,0.1-1.1,0.1-1.8,0.1c-1.3,0-2.8-0.5-3.2-1.5c0.4-1.1,2.5-2.2,5-2.8V337.1z"/>
	<path class="st3" d="M929.6,337.7c0-2.2-0.8-4.9-1.7-7.4l-0.2,0l-3.9,2.9c0.9,1.9,2,4.6,1.8,6c-0.8,0.3-2,0.5-3.2,0.5
		c-0.9,0-1.8-0.1-2.7-0.4c0.5-1.3,1-2.9,1.6-4.7l-0.1-0.1l-4.5,0.8c-0.4,1.7-0.8,3.7-1.1,4.1c-0.3,0.2-0.7,0.3-1.3,0.3
		c-1.2,0-2.6-0.3-3.6-0.6c0.5-1.2,1-2.7,1.6-4.5l-0.1-0.1l-4.9,0.8c-0.2,1.5-0.6,3.4-0.9,4c-0.6,0.3-1.6,0.4-4,0.4l0,0c0,0,0,0,0,0
		c-2.1,0-2.8-0.5-4-2.9c-1.5-3-2.9-5.4-5.5-5.4c-3,0-4.8,3.2-6.7,6.6c-0.8,1.5-1.3,1.7-2.9,1.7l0,0c0,0,0,0,0,0
		c-2.9,0-5.5-0.1-7.5-0.8c1.3-1.1,2.8-2.3,4.4-3.6l1-3.8l-0.1-0.4c-2.2-1.3-4.9-1.8-7.6-1.8c-2.7,0-5.3,0.6-7.2,1.5l-1.4,4l0.2,0.4
		c1.9,1,3.5,2.5,5,4.1c-3.9,3.1-7.6,6.8-7.6,11.6c0,5.4,4.4,8.4,11.3,8.4c3,0,5.5-0.4,7.5-1.2l1.3-3.9l-0.3-0.2
		c-1.8,0.5-5,0.9-7.2,0.9c-5.1,0-8.2-1.5-8.2-4.6c0-2.7,2.1-5.3,5.8-8.5c2.2,1.6,4.9,2.5,9.7,2.5c0,0,0,0,0,0l0,0c2.7,0,4.5-0.2,6-2
		c2.4,1.7,4.8,2.5,6.4,2.5c1.4,0,2.3-0.6,3.1-1.7c1,0.9,2.2,1.3,3.7,1.3c0,0,0,0,0,0l0,0c3.3,0,5.3-0.4,6.7-1.5
		c1.2,0.8,3.2,1.5,5.5,1.5c1.4,0,2.5-0.3,3.4-1c1.3,0.6,2.7,1,4.8,1C926.3,344.1,929.6,342,929.6,337.7z M869.3,333.8
		c1.1-0.3,2.3-0.5,3.5-0.5c1.1,0,2.2,0.1,3.4,0.5c-0.9,1-2.2,2-3.5,3.1C871.5,335.6,870.4,334.6,869.3,333.8z M893.9,340.3
		c-1,0-2.5-0.6-3.9-1.6c1-1.8,1.8-3.1,2.6-3.1c0.8,0,1.7,1.2,2.8,3.9l0.1,0.2C895.2,340,894.7,340.3,893.9,340.3z"/>
	<path class="st3" d="M795.2,378.2v16.2c0,1.3-0.1,2.1-0.3,2.7c-0.7,0.4-1.9,0.5-2.9,0.5c-3.5,0-5.3-0.2-6.5-0.9
		c1.2-0.3,2.1-0.4,3.1-0.5l0.8-4c-2.5,0-4.8-0.6-8.6-2.3c-2.8-1.3-4.3-1.7-5.5-1.7c-1.2,0-2.4,0.4-3.3,0.8l-1.6,4l0.2,0.1
		c1.2-0.4,2.5-0.7,4.1-0.7c1.5,0,3.1,0.4,6,1.8c0.5,0.2,0.9,0.4,1.2,0.5c-0.8,0.3-1.7,0.5-2.8,1c-4.1,1.5-6.3,1.9-9.9,1.9l0,0
		c0,0,0,0,0,0c-2.1,0-2.8-0.5-4-2.9c-1.5-3-2.9-5.4-5.5-5.4c-3,0-4.8,3.2-6.7,6.6c-0.8,1.5-1.3,1.7-2.9,1.7l0,0c0,0,0,0,0,0
		c-2.4,0-3.1-0.4-4.4-3.4c-0.5-1.2-2.9-6.7-3.8-9h-0.4l-3.2,3.7c1.5,2.8,3.4,6.6,4.2,8.1c-1.4,0.6-3.5,0.8-5.2,0.8
		c-0.8,0-2.5-0.1-3.7-0.3l-0.3,0.1l-0.6,4.4c1.3,0.3,3.2,0.4,4.2,0.4c3.1,0,5.8-0.8,7.5-2c1,1.3,2.5,1.7,4.8,1.7c0,0,0,0,0,0l0,0
		c2.7,0,4.5-0.2,6-2c2.4,1.7,4.8,2.5,6.4,2.5c1.4,0,2.3-0.6,3.1-1.7c1,0.9,2.2,1.3,3.7,1.3c0,0,0,0,0,0l0,0c4,0,7.2-0.8,12.2-3.3
		l1.3-0.6c1.4,2.5,3.4,4,9.3,4l0,0c0,0,0,0,0,0c0,0,0,0,0,0c0,0,0,0,0,0c5.3,0,8.6-1.6,8.6-7.8v-16.9l-0.3-0.2L795.2,378.2z
		 M760.9,398.3c-1,0-2.5-0.6-3.9-1.6c1-1.8,1.8-3.1,2.6-3.1c0.8,0,1.7,1.2,2.8,3.9l0.1,0.2C762.2,398,761.8,398.3,760.9,398.3z"/>
	<polygon class="st3" points="804.1,378.2 804.1,402.1 804.4,402.3 808.6,401.5 808.7,377.3 808.3,377.1 	"/>
	<path class="st3" d="M830.5,392c2.8-0.1,5.3-0.3,7.1-0.5l-0.2-2.4c-0.9,0.1-2,0.2-3.1,0.3c-0.5-0.4-0.8-1-0.8-1.6
		c0-0.8,0.5-1.1,1.3-1.1c0.4,0,1,0.1,1.6,0.3l0.6-2.3c-0.9-0.4-1.9-0.6-2.7-0.6c-2,0-3.2,1.3-3.2,3.1c0,0.8,0.3,1.6,0.8,2.3
		c-0.6,0-1.2,0-1.7,0L830.5,392z"/>
	<path class="st3" d="M853.4,378.2v16.2c0,1.3-0.1,2.1-0.3,2.7c-0.7,0.4-1.9,0.5-2.9,0.5l0,0c0,0,0,0,0,0c-3,0-3.5-1-3.5-4.1v-16.1
		l-0.4-0.2l-4.1,1.1v16.2c0,1.3-0.1,2.1-0.3,2.7c-0.6,0.4-3.1,0.9-5.9,0.9h-2c-7.1,0-9.9-1-9.9-4.7c0-0.9,0.1-1.9,0.3-3l-0.4-0.2
		l-3.2,1.2c-0.4,1.5-0.6,2.8-0.6,4.4c0,4.4,4.3,6.7,12.3,6.7h2.2c5.2,0,8.2-0.8,9.8-2.4c1.1,1.4,2.8,2,4.7,2c0,0,0,0,0,0l0,0
		c5.4,0,8.6-1.5,8.6-7.8v-16.9l-0.3-0.2L853.4,378.2z"/>
	<path class="st3" d="M867.9,389.3c-3.4,0-6,4.1-6,7.4c0,2.6,1.6,4.3,4.9,4.3c1.1,0,2-0.1,2.9-0.2c-1.3,2.4-4.6,3.8-9.6,3.9
		l-0.3,0.4l2.2,3.4c8.1-0.1,11.9-5.1,11.9-10C874,393.5,871.7,389.3,867.9,389.3z M867.8,397.1c-1.7,0-2.4-0.3-2.4-1.1
		c0-1.1,1-2.5,2.2-2.5c1.3,0,2.4,1.6,2.7,3.4C869.5,397.1,868.7,397.1,867.8,397.1z"/>
	<polygon class="st3" points="904.1,384.4 900.3,381.7 897.9,385.2 901.8,388 	"/>
	<path class="st3" d="M911.7,388.2l-3.6,2.9c1.2,2.4,2.3,4.8,2.1,6.2c-0.5,0.2-2.2,0.3-3.5,0.3h-0.4v0c0,0,0,0,0,0
		c-1.7,0-3.1-0.3-4.1-0.7c0.7-1.6,1.2-3.5,1.7-5.7l-0.4-0.3l-4.6,1.1c-0.4,2.4-0.9,4.1-1.2,5c-0.5,0.3-1.5,0.5-2.8,0.5h-0.6
		c-2.6,0-3.6-0.7-3.6-3.2v-17.1l-0.4-0.2l-4.1,1.1v16.5c0,5.2,2.4,7.3,7.1,7.3h0.7c2.6,0,4.4-0.6,5.8-1.7c1.4,1.1,3.8,1.7,5.6,1.7
		c0,0,0,0,0,0v0h0.4c3.6,0,5.2-0.5,6.4-1.6c1.3-1.3,1.9-3,1.9-4.8c0-1.7-0.8-4.8-2-7.4H911.7z"/>
	<polygon class="st3" points="907.5,408.2 911.4,410.9 913.8,407.3 909.9,404.7 	"/>
	<path class="st3" d="M927.2,390h-0.4l-3.2,3.6c1.3,2.2,2.5,5,2.6,6.2c0,1.2-3.2,3.3-7.7,4.6l-0.3,0.4l2.2,3.3c4-1,6.6-3,7.9-4.9
		c0.7-1.1,1.3-2.8,1.3-4.6C929.7,396.5,928.8,393,927.2,390z"/>
</g>
<path class="st4" d="M1024.1,43.8H1013v-6.6c0-1.7-1.1-3-2.6-3.5c1.4-1.1,2.3-2.9,2.3-4.8c0-3.4-2.8-6.2-6.2-6.2
	c-1,0-1.9,0.2-2.8,0.7c0.4-1.1,0.5-2.2,0.5-3.4c0-6.2-5-11.2-11.2-11.2c-6.2,0-11.2,5-11.2,11.2c0,1.2,0.2,2.4,0.5,3.4
	c-0.8-0.4-1.8-0.7-2.8-0.7c-3.4,0-6.2,2.8-6.2,6.2c0,1.9,0.9,3.6,2.3,4.8c-1.5,0.4-2.6,1.8-2.6,3.5v6.6h-10h-10v-6.6
	c0-1.7-1.1-3-2.6-3.5c1.4-1.1,2.3-2.9,2.3-4.8c0-3.4-2.8-6.2-6.2-6.2c-1,0-1.9,0.2-2.8,0.7c0.4-1.1,0.5-2.2,0.5-3.4
	c0-6.2-5-11.2-11.2-11.2c-6.2,0-11.2,5-11.2,11.2c0,1.2,0.2,2.4,0.5,3.4c-0.8-0.4-1.8-0.7-2.8-0.7c-3.4,0-6.2,2.8-6.2,6.2
	c0,1.9,0.9,3.6,2.3,4.8c-1.5,0.4-2.6,1.8-2.6,3.5v6.6h-10h-10v-6.6c0-1.7-1.1-3-2.6-3.5c1.4-1.1,2.3-2.9,2.3-4.8
	c0-3.4-2.8-6.2-6.2-6.2c-1,0-1.9,0.2-2.8,0.7c0.4-1.1,0.5-2.2,0.5-3.4c0-6.2-5-11.2-11.2-11.2c-6.2,0-11.2,5-11.2,11.2
	c0,1.2,0.2,2.4,0.5,3.4c-0.8-0.4-1.8-0.7-2.8-0.7c-3.4,0-6.2,2.8-6.2,6.2c0,1.9,0.9,3.6,2.3,4.8c-1.5,0.4-2.6,1.8-2.6,3.5v6.6h-10
	h-10v-6.6c0-1.7-1.1-3-2.6-3.5c1.4-1.1,2.3-2.9,2.3-4.8c0-3.4-2.8-6.2-6.2-6.2c-1,0-1.9,0.2-2.8,0.7c0.4-1.1,0.5-2.2,0.5-3.4
	c0-6.2-5-11.2-11.2-11.2c-6.2,0-11.2,5-11.2,11.2c0,1.2,0.2,2.4,0.5,3.4c-0.8-0.4-1.8-0.7-2.8-0.7c-3.4,0-6.2,2.8-6.2,6.2
	c0,1.9,0.9,3.6,2.3,4.8c-1.5,0.4-2.6,1.8-2.6,3.5v6.6h-10h-10v-6.6c0-1.7-1.1-3-2.6-3.5c1.4-1.1,2.3-2.9,2.3-4.8
	c0-3.4-2.8-6.2-6.2-6.2c-1,0-1.9,0.2-2.8,0.7c0.4-1.1,0.5-2.2,0.5-3.4c0-6.2-5-11.2-11.2-11.2c-6.2,0-11.2,5-11.2,11.2
	c0,1.2,0.2,2.4,0.5,3.4c-0.8-0.4-1.8-0.7-2.8-0.7c-3.4,0-6.2,2.8-6.2,6.2c0,1.9,0.9,3.6,2.3,4.8c-1.5,0.4-2.6,1.8-2.6,3.5v6.6h-10
	h-10v-6.6c0-1.7-1.1-3-2.6-3.5c1.4-1.1,2.3-2.9,2.3-4.8c0-3.4-2.8-6.2-6.2-6.2c-1,0-1.9,0.2-2.8,0.7c0.4-1.1,0.5-2.2,0.5-3.4
	c0-6.2-5-11.2-11.2-11.2c-6.2,0-11.2,5-11.2,11.2c0,1.2,0.2,2.4,0.5,3.4c-0.8-0.4-1.8-0.7-2.8-0.7c-3.4,0-6.2,2.8-6.2,6.2
	c0,1.9,0.9,3.6,2.3,4.8c-1.5,0.4-2.6,1.8-2.6,3.5v6.6h-10h-10v-6.6c0-1.7-1.1-3-2.6-3.5c1.4-1.1,2.3-2.9,2.3-4.8
	c0-3.4-2.8-6.2-6.2-6.2c-1,0-1.9,0.2-2.8,0.7c0.4-1.1,0.5-2.2,0.5-3.4c0-6.2-5-11.2-11.2-11.2c-6.2,0-11.2,5-11.2,11.2
	c0,1.2,0.2,2.4,0.5,3.4c-0.8-0.4-1.8-0.7-2.8-0.7c-3.4,0-6.2,2.8-6.2,6.2c0,1.9,0.9,3.6,2.3,4.8c-1.5,0.4-2.6,1.8-2.6,3.5v6.6h-10
	h-10v-6.6c0-1.7-1.1-3-2.6-3.5c1.4-1.1,2.3-2.9,2.3-4.8c0-3.4-2.8-6.2-6.2-6.2c-1,0-1.9,0.2-2.8,0.7c0.4-1.1,0.5-2.2,0.5-3.4
	c0-6.2-5-11.2-11.2-11.2c-6.2,0-11.2,5-11.2,11.2c0,1.2,0.2,2.4,0.5,3.4c-0.8-0.4-1.8-0.7-2.8-0.7c-3.4,0-6.2,2.8-6.2,6.2
	c0,1.9,0.9,3.6,2.3,4.8c-1.5,0.4-2.6,1.8-2.6,3.5v6.6h-10h-10v-6.6c0-1.7-1.1-3-2.6-3.5c1.4-1.1,2.3-2.9,2.3-4.8
	c0-3.4-2.8-6.2-6.2-6.2c-1,0-1.9,0.2-2.8,0.7c0.4-1.1,0.5-2.2,0.5-3.4c0-6.2-5-11.2-11.2-11.2c-6.2,0-11.2,5-11.2,11.2
	c0,1.2,0.2,2.4,0.5,3.4c-0.8-0.4-1.8-0.7-2.8-0.7c-3.4,0-6.2,2.8-6.2,6.2c0,1.9,0.9,3.6,2.3,4.8c-1.5,0.4-2.6,1.8-2.6,3.5v6.6h-10
	h-10v-6.6c0-1.7-1.1-3-2.6-3.5c1.4-1.1,2.3-2.9,2.3-4.8c0-3.4-2.8-6.2-6.2-6.2c-1,0-1.9,0.2-2.8,0.7c0.4-1.1,0.5-2.2,0.5-3.4
	c0-6.2-5-11.2-11.2-11.2c-6.2,0-11.2,5-11.2,11.2c0,1.2,0.2,2.4,0.5,3.4c-0.8-0.4-1.8-0.7-2.8-0.7c-3.4,0-6.2,2.8-6.2,6.2
	c0,1.9,0.9,3.6,2.3,4.8c-1.5,0.4-2.6,1.8-2.6,3.5v6.6h-10h-10v-6.6c0-1.7-1.1-3-2.6-3.5c1.4-1.1,2.3-2.9,2.3-4.8
	c0-3.4-2.8-6.2-6.2-6.2c-1,0-1.9,0.2-2.8,0.7c0.4-1.1,0.5-2.2,0.5-3.4c0-6.2-5-11.2-11.2-11.2c-6.2,0-11.2,5-11.2,11.2
	c0,1.2,0.2,2.4,0.5,3.4c-0.8-0.4-1.8-0.7-2.8-0.7c-3.4,0-6.2,2.8-6.2,6.2c0,1.9,0.9,3.6,2.3,4.8c-1.5,0.4-2.6,1.8-2.6,3.5v6.6h-10
	h-10v-6.6c0-1.7-1.1-3-2.6-3.5c1.4-1.1,2.3-2.9,2.3-4.8c0-3.4-2.8-6.2-6.2-6.2c-1,0-1.9,0.2-2.8,0.7c0.4-1.1,0.5-2.2,0.5-3.4
	c0-6.2-5-11.2-11.2-11.2c-6.2,0-11.2,5-11.2,11.2c0,1.2,0.2,2.4,0.5,3.4c-0.8-0.4-1.8-0.7-2.8-0.7c-3.4,0-6.2,2.8-6.2,6.2
	c0,1.9,0.9,3.6,2.3,4.8c-1.5,0.4-2.6,1.8-2.6,3.5v6.6h-10h-10v-6.6c0-1.7-1.1-3-2.6-3.5c1.4-1.1,2.3-2.9,2.3-4.8
	c0-3.4-2.8-6.2-6.2-6.2c-1,0-1.9,0.2-2.8,0.7c0.4-1.1,0.5-2.2,0.5-3.4c0-6.2-5-11.2-11.2-11.2c-6.2,0-11.2,5-11.2,11.2
	c0,1.2,0.2,2.4,0.5,3.4c-0.8-0.4-1.8-0.7-2.8-0.7c-3.4,0-6.2,2.8-6.2,6.2c0,1.9,0.9,3.6,2.3,4.8c-1.5,0.4-2.6,1.8-2.6,3.5v6.6h-10
	h-10v-6.6c0-1.7-1.1-3-2.6-3.5c1.4-1.1,2.3-2.9,2.3-4.8c0-3.4-2.8-6.2-6.2-6.2c-1,0-1.9,0.2-2.8,0.7c0.4-1.1,0.5-2.2,0.5-3.4
	c0-6.2-5-11.2-11.2-11.2c-6.2,0-11.2,5-11.2,11.2c0,1.2,0.2,2.4,0.5,3.4c-0.8-0.4-1.8-0.7-2.8-0.7c-3.4,0-6.2,2.8-6.2,6.2
	c0,1.9,0.9,3.6,2.3,4.8c-1.5,0.4-2.6,1.8-2.6,3.5v6.6h-10h-10v-6.6c0-1.7-1.1-3-2.6-3.5c1.4-1.1,2.3-2.9,2.3-4.8
	c0-3.4-2.8-6.2-6.2-6.2c-1,0-1.9,0.2-2.8,0.7c0.4-1.1,0.5-2.2,0.5-3.4c0-6.2-5-11.2-11.2-11.2c-6.2,0-11.2,5-11.2,11.2
	c0,1.2,0.2,2.4,0.5,3.4c-0.8-0.4-1.8-0.7-2.8-0.7c-3.4,0-6.2,2.8-6.2,6.2c0,1.9,0.9,3.6,2.3,4.8c-1.5,0.4-2.6,1.8-2.6,3.5v6.6h-10
	h-10v-6.6c0-1.7-1.1-3-2.6-3.5c1.4-1.1,2.3-2.9,2.3-4.8c0-3.4-2.8-6.2-6.2-6.2c-1,0-1.9,0.2-2.8,0.7c0.4-1.1,0.5-2.2,0.5-3.4
	c0-6.2-5-11.2-11.2-11.2c-6.2,0-11.2,5-11.2,11.2c0,1.2,0.2,2.4,0.5,3.4c-0.8-0.4-1.8-0.7-2.8-0.7c-3.4,0-6.2,2.8-6.2,6.2
	c0,1.9,0.9,3.6,2.3,4.8c-1.5,0.4-2.6,1.8-2.6,3.5v6.6h-10h-10v-6.6c0-1.7-1.1-3-2.6-3.5c1.4-1.1,2.3-2.9,2.3-4.8
	c0-3.4-2.8-6.2-6.2-6.2c-1,0-1.9,0.2-2.8,0.7c0.4-1.1,0.5-2.2,0.5-3.4c0-6.2-5-11.2-11.2-11.2c-6.2,0-11.2,5-11.2,11.2
	c0,1.2,0.2,2.4,0.5,3.4c-0.8-0.4-1.8-0.7-2.8-0.7c-3.4,0-6.2,2.8-6.2,6.2c0,1.9,0.9,3.6,2.3,4.8c-1.5,0.4-2.6,1.8-2.6,3.5v6.6H0.1V0
	h1024V43.8z"/>
<g id="Layer_x0020_1_30_">
	<path class="st5" d="M34.9,719.4l43.9-1.7c0.3,0,0.6,0,1,0c0.7,0.1,1.3,0.4,1.8,0.9c0.5,0.5,0.9,1,0.9,1.7c0,0.2,0,0.5,0,0.8
		l-4.6,20.6c-0.2,0.9-0.6,1.7-1.3,2.2c-0.6,0.5-1.4,0.9-2.4,0.9l-35.3-1.2c-1,0-1.7-0.3-2.4-0.9l0,0c-0.6-0.6-1.1-1.4-1.3-2.2
		l-4.1-17.7c0-0.1,0-0.1,0-0.2c-0.1-0.8,0.3-1.5,0.9-2.1c0.6-0.5,1.4-0.8,2.3-1C34.7,719.5,34.8,719.5,34.9,719.4z M76.9,720.5
		l-42,1.5c-0.1,0-0.2,0-0.3,0c-0.6,0.1-1.1,0.3-1.5,0.7c-0.3,0.3-0.6,0.7-0.5,1.1c0,0,0,0.1,0,0.1l3.8,16.5c0.1,0.6,0.4,1.2,0.9,1.6
		c0.4,0.3,0.8,0.5,1.4,0.5l34,1.2c0.6,0,1-0.2,1.4-0.5c0.4-0.4,0.7-0.9,0.9-1.6l4.3-19.3c0-0.1,0-0.3,0-0.4c0-0.3-0.2-0.7-0.5-0.9
		c-0.3-0.3-0.7-0.5-1.1-0.5C77.3,720.5,77.1,720.5,76.9,720.5z"/>
	<path class="st5" d="M42,724.1l12.9-1.4c0.1,0,0.3,0,0.4,0c0.3,0.1,0.6,0.2,0.8,0.4c0.2,0.2,0.4,0.5,0.4,0.8c0,0.1,0,0.2,0,0.3
		l-2.1,9.6c-0.1,0.4-0.3,0.8-0.6,1c-0.3,0.2-0.6,0.4-1.1,0.4h-8.9c-0.4,0-0.8-0.2-1.1-0.4h0c-0.3-0.3-0.5-0.6-0.6-1l-1.9-8.2
		c0,0,0-0.1,0-0.1c-0.1-0.4,0.1-0.7,0.4-1c0.3-0.2,0.7-0.4,1-0.5C41.8,724.1,41.9,724.1,42,724.1z M53.9,724.1l-12,1.3
		c0,0-0.1,0-0.1,0c-0.3,0-0.5,0.2-0.7,0.3c-0.2,0.1-0.3,0.3-0.2,0.5c0,0,0,0,0,0l1.8,7.6c0.1,0.3,0.2,0.5,0.4,0.7
		c0.2,0.1,0.4,0.2,0.6,0.2h8.3c0.3,0,0.5-0.1,0.6-0.2c0.2-0.2,0.3-0.4,0.4-0.7l2-8.9c0-0.1,0-0.1,0-0.2c0-0.2-0.1-0.3-0.2-0.4
		c-0.1-0.1-0.3-0.2-0.5-0.2C54.1,724.1,54,724.1,53.9,724.1z"/>
	<g id="_1849662416_30_">
		<path class="st6" d="M60.4,736.3l0.4-0.7l-0.7-0.4l0.4-0.7l-1.5-0.8l-0.9,1.5l0,0c0.3,0.1,0.5,0.3,0.7,0.4l-0.4,0.7l0.7,0.4
			l-0.8,1.5l0.7,0.4c-0.2,0.5-0.6,1.1-0.9,1.5l0,0c0.2,0.1,0.4,0.2,0.5,0.3c0.3,0.1,0.2,0.1,0,0.5c-0.2,0.4-0.4,0.8-0.7,1.1l0.7,0.4
			c0,0.2-0.7,1.2-0.8,1.5l5.9,3.4l0.9-1.5l0.8,0.4l1.3-2.2l0.7,0.4l3-5.2c-0.1-0.1-0.7-0.4-0.7-0.5c0-0.2,0.4-0.6,0.4-0.7
			c-0.1-0.1-0.5-0.4-0.7-0.4l-1.3,2.2l-0.7-0.4l1.7-3l-1.5-0.9l-1.3,2.2l-0.7-0.4l1.7-2.9c-0.1-0.1-1.3-0.8-1.5-0.9l-1.7,3l-0.7-0.4
			c0-0.1,0.1-0.1,0.1-0.2c1.2-2.1,2.5-4.3,3.7-6.5l-1.5-0.8l-4.7,8.1C60.9,736.7,60.5,736.4,60.4,736.3L60.4,736.3z"/>
		<path class="st7" d="M58.3,740c-0.1,0.1-0.1,0.2-0.2,0.3l-0.7,1.1c0.1,0.1,0.2,0.1,0.4,0.2c0.1,0.1,0.2,0.1,0.3,0.2
			c-0.4,0.8-0.8,1.5-1.2,2.2c0.6,0.4,1.2,0.7,1.8,1.1l3.7,2.2c0.6,0.4,1.2,0.7,1.9,1.1c0.1-0.2,0.1-0.3,0.3-0.5
			c0.1-0.2,0.4-0.6,0.5-0.9c0.1-0.1,0.1-0.1,0.2-0.3c0.1-0.2,0.2-0.4,0.3-0.6c0.1,0.2,0.5,0.3,0.7,0.4c0.4-0.7,0.8-1.4,1.3-2.2
			c0.2,0.1,0.4,0.2,0.6,0.3c0.1,0.1,0.1,0.1,0.2,0c0.2-0.3,0.3-0.6,0.5-0.9c0.3-0.6,0.7-1.1,1-1.7l1.4-2.5c-0.2-0.1-0.6-0.3-0.7-0.4
			l-3,5.2l-0.7-0.4l-1.3,2.2l-0.8-0.4l-0.9,1.5l-5.9-3.4c0.1-0.3,0.8-1.3,0.8-1.5l-0.7-0.4c0.2-0.4,0.4-0.8,0.7-1.1
			c0.2-0.4,0.2-0.3,0-0.5C58.6,740.2,58.5,740.1,58.3,740z"/>
		<path class="st7" d="M60.5,734.4l-0.4,0.7l0.7,0.4l-0.4,0.7l0.7,0.4l4.7-8.1l-0.7-0.4c0,0,0,0,0,0l0,0c0,0,0,0,0,0l-3.8,6.6
			C61,734.7,60.8,734.6,60.5,734.4z"/>
		<path class="st7" d="M67.4,729.5l-3.9,6.6l0.7,0.4l1.7-3c0.2,0,1.4,0.8,1.5,0.9c0.2,0.2,1.6,0.9,1.9,1.1c0,0,0.1,0-0.1-0.1
			l-1.5-0.8c-0.4-0.2-0.3-0.1,0.1-0.9l-1.1-0.6c-0.1-0.1-0.2-0.1-0.3-0.2l1.7-2.9c-0.2-0.1-0.3-0.2-0.6-0.4
			C67.4,729.5,67.5,729.5,67.4,729.5z"/>
		<path class="st7" d="M69.2,736.5l0.4-0.7c-0.1-0.1-0.2-0.2-0.4-0.2c-0.3-0.2-1.7-0.9-1.9-1.1l-1.7,2.9l0.7,0.4l1.3-2.2L69.2,736.5
			z"/>
		<path class="st7" d="M58.2,735.1c-0.1,0.1-0.1,0.1-0.2,0.3c-0.1,0.1-0.1,0.3-0.2,0.4l0.7,0.4c-0.1,0.2-0.7,1.3-0.8,1.5l0.7,0.4
			l-0.6,1.1c-0.1,0.2-0.1,0.2-0.2,0.4l0.7,0.4c0.3-0.4,0.7-1,0.9-1.5l-0.7-0.4l0.8-1.5l-0.7-0.4l0.4-0.7
			C58.7,735.3,58.5,735.2,58.2,735.1z"/>
		<path class="st7" d="M58.2,735l0.9-1.5l1.5,0.8l0.2-0.4c0.1-0.1,0.1-0.2,0.2-0.4l-2-1.1c-0.3-0.2-0.2-0.2-0.5,0.2l-0.9,1.6
			c-0.1,0.2-0.2,0.2,0,0.3C57.7,734.8,58.1,735,58.2,735z"/>
		<path class="st7" d="M70.2,738.1c0.1,0,0,0,0.1-0.1c0,0,0.1-0.1,0.1-0.1c0-0.2,0.2-0.4,0.3-0.6l-1.5-0.8l-1.7,3l0.7,0.4l1.3-2.2
			C69.7,737.7,70.1,738,70.2,738.1z"/>
		<path class="st7" d="M67.4,729.4c0.1-0.2,0.3-0.5,0.4-0.7l-1.5-0.8l-0.4,0.7L67.4,729.4z"/>
		<path class="st7" d="M70.2,738.1c0,0.2-0.4,0.6-0.4,0.7c0,0.1,0.6,0.4,0.7,0.5c0.2,0.1,0.5,0.3,0.7,0.4l-1.4,2.5l1.5-2.5l-0.7-0.4
			c0.1-0.1,0.1-0.2,0.2-0.4c0.1-0.1,0.2-0.3,0.2-0.4c-0.8-0.5-0.8-0.3-0.6-0.6c0,0-0.1,0.1-0.1,0.1
			C70.3,738.1,70.4,738.1,70.2,738.1z"/>
	</g>
	<path class="st5" d="M95,736.3h-2.5l2.1-7.2l-4.3,7.2h-2.6l-0.5-7.3l-1.8,7.3h-2.6l2.9-10.9h3.5l0.5,7.7l4.6-7.7h3.5L95,736.3z
		 M104.4,736.3h-5.6c-0.8,0-1.3-0.2-1.7-0.6c-0.4-0.4-0.4-1-0.2-1.8c0.3-0.9,0.7-1.6,1.3-2c0.6-0.4,1.5-0.6,2.6-0.6h2.5
		c0.1-0.4,0.1-0.7-0.1-0.8c-0.2-0.2-0.6-0.2-1.3-0.2h-3.6l0.5-2h4.3c1.1,0,1.9,0.3,2.3,0.8c0.4,0.5,0.5,1.3,0.2,2.3L104.4,736.3z
		 M102.5,734.3l0.3-1.2h-2.2c-0.4,0-0.7,0-0.9,0.1c-0.2,0.1-0.3,0.3-0.3,0.5c-0.1,0.2-0.1,0.3,0,0.4c0,0,0.1,0.1,0.2,0.1
		c0.1,0,0.3,0,0.5,0H102.5z M113.2,736.3h-2.4l1.3-4.9c0.1-0.5,0.2-0.8,0-1c-0.1-0.1-0.4-0.2-0.9-0.2h-1.4l-1.6,6.1h-2.4l2.2-8.1h4
		c1.2,0,2,0.2,2.4,0.7c0.4,0.5,0.5,1.2,0.2,2.3L113.2,736.3z M122,736.3h-2.4l1.3-4.9c0.1-0.5,0.1-0.8,0-0.9
		c-0.1-0.1-0.2-0.1-0.3-0.2c-0.1,0-0.3-0.1-0.6-0.1l-1.4,0l-1.6,6.1h-2.4l2.9-10.9h2.4l-0.8,2.8h1.6c1.2,0,2,0.2,2.4,0.7
		c0.4,0.5,0.5,1.2,0.2,2.3L122,736.3z M131.2,736.3h-5.6c-0.8,0-1.3-0.2-1.7-0.6c-0.4-0.4-0.4-1-0.2-1.8c0.3-0.9,0.7-1.6,1.3-2
		c0.6-0.4,1.5-0.6,2.6-0.6h2.5c0.1-0.4,0.1-0.7-0.1-0.8c-0.2-0.2-0.6-0.2-1.3-0.2h-3.6l0.5-2h4.3c1.1,0,1.9,0.3,2.3,0.8
		c0.4,0.5,0.5,1.3,0.2,2.3L131.2,736.3z M129.2,734.3l0.3-1.2h-2.2c-0.4,0-0.7,0-0.9,0.1c-0.2,0.1-0.3,0.3-0.3,0.5
		c-0.1,0.2,0,0.3,0,0.4c0,0,0.1,0.1,0.2,0.1c0.1,0,0.3,0,0.5,0H129.2z M135.1,736.3h-2.5l2.9-10.9h2.5L135.1,736.3z M140.7,736.3
		h-2.1l0.6-2.2h2.1L140.7,736.3z M148.5,736.3h-2.9c-0.4,0-0.7,0-1-0.1c-0.3,0-0.5-0.1-0.8-0.2c-0.4-0.1-0.8-0.4-1-0.8
		c-0.1-0.2-0.2-0.4-0.3-0.6c-0.1-0.2-0.2-0.5-0.2-0.7c0-0.3,0-0.5,0-0.8c0-0.3,0.1-0.6,0.2-0.9c0.2-0.6,0.4-1.2,0.8-1.7
		c0.3-0.5,0.7-1,1.3-1.4c0.4-0.3,0.9-0.6,1.4-0.7c0.5-0.2,1.1-0.2,1.9-0.2h2.9l-0.5,2h-2.3c-0.5,0-0.9,0-1.2,0.1
		c-0.3,0.1-0.6,0.2-0.8,0.4c-0.4,0.3-0.7,0.8-0.9,1.6c-0.1,0.4-0.1,0.8-0.1,1.1c0.1,0.3,0.1,0.6,0.4,0.7l0.4,0.2c0.1,0,0.3,0,0.4,0
		c0.1,0,0.4,0,0.6,0h2.3L148.5,736.3z M158.5,732.2c-0.3,1.3-1,2.3-2,3.1c-1,0.8-2.1,1.1-3.4,1.1c-1.3,0-2.2-0.4-2.8-1.1
		c-0.6-0.8-0.7-1.8-0.3-3.1c0.3-1.3,1-2.3,2-3c1-0.8,2.1-1.1,3.4-1.1c1.3,0,2.2,0.4,2.8,1.1C158.8,729.9,158.9,730.9,158.5,732.2z
		 M156.1,732.2c0.2-0.7,0.1-1.2-0.1-1.6c-0.2-0.4-0.6-0.6-1.1-0.6c-0.5,0-1,0.2-1.4,0.6c-0.4,0.4-0.7,0.9-0.9,1.6
		c-0.1,0.4-0.1,0.7-0.1,0.9c0,0.3,0.1,0.5,0.2,0.7c0.2,0.4,0.6,0.6,1.1,0.6c0.6,0,1-0.2,1.4-0.6
		C155.6,733.4,155.9,732.9,156.1,732.2z M169.7,736.3h-2.4l1.3-4.9c0.1-0.5,0.2-0.8,0.1-1c-0.1-0.2-0.4-0.2-0.9-0.2l-0.9,0l-1.6,6.1
		h-2.4l1.6-6.1h-2l-1.6,6.1h-2.4l2.2-8.1h8c1.2,0,2,0.2,2.4,0.7c0.4,0.5,0.5,1.2,0.2,2.3L169.7,736.3z"/>
	<path class="st5" d="M27.9,728.2l21.2-2.2c0.2,0,0.5,0,0.7,0c0.5,0.1,1,0.3,1.4,0.7c0.4,0.3,0.6,0.8,0.7,1.3c0,0.2,0,0.4,0,0.6
		l-3.7,9.6c-0.1,0.7-0.5,1.3-1,1.7c-0.5,0.4-1.1,0.7-1.8,0.7H30.9c-0.7,0-1.3-0.3-1.8-0.7h0c-0.5-0.4-0.8-1.1-1-1.7l-2.9-7.4
		c0-0.1,0-0.1,0-0.2c-0.1-0.6,0.2-1.2,0.7-1.6c0.5-0.4,1.1-0.6,1.7-0.8C27.7,728.2,27.8,728.2,27.9,728.2z M47.7,728.1l-19.8,2.1
		c-0.1,0-0.2,0-0.2,0c-0.4,0.1-0.9,0.3-1.2,0.5c-0.3,0.2-0.4,0.5-0.4,0.8c0,0,0,0.1,0,0.1l2.7,6.5c0.1,0.5,0.3,0.9,0.7,1.2
		c0.3,0.2,0.6,0.4,1,0.4h13.6c0.4,0,0.8-0.1,1-0.4c0.3-0.3,0.5-0.7,0.7-1.2l3.4-8.6c0-0.1,0-0.2,0-0.3c0-0.3-0.2-0.5-0.4-0.7
		c-0.2-0.2-0.5-0.4-0.8-0.4C47.9,728.1,47.8,728.1,47.7,728.1z"/>
	<path class="st5" d="M87.6,721.9l-0.5,1.7h-0.6l1.2-4.5h1.3c0.3,0,0.5,0,0.7,0.1c0.2,0.1,0.3,0.2,0.4,0.3c0.1,0.1,0.2,0.3,0.2,0.4
		c0,0.2,0,0.4-0.1,0.6c-0.1,0.2-0.1,0.4-0.3,0.6c-0.1,0.2-0.3,0.3-0.4,0.4c-0.2,0.1-0.4,0.2-0.6,0.3c-0.2,0.1-0.5,0.1-0.7,0.1H87.6z
		 M87.7,721.4h0.7c0.2,0,0.3,0,0.5-0.1c0.1,0,0.3-0.1,0.4-0.2c0.1-0.1,0.2-0.2,0.3-0.3c0.1-0.1,0.1-0.2,0.2-0.4
		c0.1-0.3,0.1-0.5-0.1-0.7c-0.1-0.2-0.4-0.2-0.7-0.2h-0.7L87.7,721.4z"/>
	<path id="_x31__30_" class="st5" d="M92.3,720.4c0.2,0,0.4,0,0.6,0.1c0.2,0.1,0.3,0.2,0.4,0.3c0.1,0.1,0.1,0.3,0.2,0.5
		c0,0.2,0,0.4-0.1,0.7c-0.1,0.2-0.2,0.5-0.3,0.7c-0.1,0.2-0.3,0.4-0.4,0.5c-0.2,0.1-0.4,0.3-0.6,0.3c-0.2,0.1-0.4,0.1-0.7,0.1
		c-0.2,0-0.4,0-0.6-0.1c-0.2-0.1-0.3-0.2-0.4-0.3c-0.1-0.1-0.1-0.3-0.2-0.5c0-0.2,0-0.4,0.1-0.7c0.1-0.3,0.2-0.5,0.3-0.7
		c0.1-0.2,0.3-0.4,0.4-0.5c0.2-0.1,0.4-0.3,0.6-0.3C91.8,720.4,92.1,720.4,92.3,720.4z M91.5,723.2c0.3,0,0.6-0.1,0.8-0.3
		c0.2-0.2,0.4-0.5,0.5-0.9c0.1-0.4,0.1-0.7,0-0.9c-0.1-0.2-0.3-0.3-0.6-0.3c-0.2,0-0.3,0-0.4,0.1c-0.1,0.1-0.2,0.1-0.4,0.2
		c-0.1,0.1-0.2,0.2-0.3,0.4c-0.1,0.1-0.1,0.3-0.2,0.5c0,0.2-0.1,0.4-0.1,0.5c0,0.1,0,0.3,0.1,0.4c0.1,0.1,0.1,0.2,0.2,0.2
		C91.2,723.2,91.4,723.2,91.5,723.2z"/>
	<path id="_x32__30_" class="st5" d="M94.1,720.4h0.4c0,0,0.1,0,0.1,0c0,0,0,0,0,0.1l0.1,2c0,0.1,0,0.1,0,0.2c0,0.1,0,0.1,0,0.2
		c0-0.1,0.1-0.1,0.1-0.2c0-0.1,0.1-0.1,0.1-0.2l1.2-2.1c0,0,0-0.1,0.1-0.1c0,0,0.1,0,0.1,0h0.2c0,0,0.1,0,0.1,0c0,0,0,0,0,0.1
		l0.1,2.1c0,0.1,0,0.1,0,0.2c0,0.1,0,0.1,0,0.2c0-0.1,0.1-0.1,0.1-0.2c0-0.1,0.1-0.1,0.1-0.2l1.2-2c0,0,0-0.1,0.1-0.1
		c0,0,0.1,0,0.1,0h0.4l-1.9,3.2h-0.4c-0.1,0-0.1,0-0.1-0.1l-0.1-2.2c0,0,0-0.1,0-0.1c0-0.1,0-0.1,0-0.1c0,0,0,0.1-0.1,0.1
		c0,0,0,0.1-0.1,0.1l-1.3,2.2c0,0.1-0.1,0.1-0.2,0.1h-0.4L94.1,720.4z"/>
	<path id="_x33__30_" class="st5" d="M100.6,720.4c0.2,0,0.4,0,0.5,0.1c0.1,0.1,0.3,0.2,0.3,0.3c0.1,0.1,0.1,0.3,0.2,0.4
		c0,0.2,0,0.4-0.1,0.6c0,0.1,0,0.1-0.1,0.2c0,0-0.1,0-0.1,0h-2.1c-0.1,0.2-0.1,0.4-0.1,0.5c0,0.1,0,0.3,0.1,0.4
		c0.1,0.1,0.1,0.2,0.3,0.2c0.1,0,0.2,0.1,0.4,0.1c0.1,0,0.3,0,0.4,0c0.1,0,0.2-0.1,0.3-0.1c0.1,0,0.2-0.1,0.2-0.1
		c0.1,0,0.1-0.1,0.1-0.1c0,0,0.1,0,0.1,0.1l0.1,0.2c-0.1,0.1-0.2,0.2-0.3,0.2c-0.1,0.1-0.2,0.1-0.3,0.2c-0.1,0-0.2,0.1-0.4,0.1
		c-0.1,0-0.2,0-0.4,0c-0.2,0-0.4,0-0.6-0.1c-0.2-0.1-0.3-0.2-0.4-0.3c-0.1-0.1-0.2-0.3-0.2-0.5c0-0.2,0-0.5,0.1-0.7
		c0.1-0.2,0.1-0.4,0.3-0.6c0.1-0.2,0.3-0.4,0.4-0.5c0.2-0.1,0.4-0.3,0.6-0.3C100.1,720.4,100.3,720.4,100.6,720.4z M100.5,720.8
		c-0.3,0-0.5,0.1-0.7,0.2c-0.2,0.2-0.4,0.4-0.5,0.6h1.7c0-0.1,0.1-0.2,0-0.4c0-0.1,0-0.2-0.1-0.3c0-0.1-0.1-0.1-0.2-0.2
		C100.7,720.8,100.6,720.8,100.5,720.8z"/>
	<path id="_x34__30_" class="st5" d="M101.7,723.6l0.9-3.2h0.3c0.1,0,0.1,0,0.1,0c0,0,0,0.1,0,0.1l-0.1,0.5c0.2-0.2,0.4-0.4,0.5-0.5
		c0.2-0.1,0.4-0.2,0.6-0.2c0.1,0,0.2,0,0.2,0c0.1,0,0.1,0,0.2,0.1l-0.2,0.4c0,0.1-0.1,0.1-0.1,0.1c0,0-0.1,0-0.1,0
		c-0.1,0-0.1,0-0.2,0c-0.2,0-0.4,0.1-0.5,0.2c-0.2,0.1-0.3,0.3-0.5,0.5l-0.5,2H101.7z"/>
	<path id="_x35__30_" class="st5" d="M106.4,720.4c0.2,0,0.4,0,0.5,0.1c0.1,0.1,0.3,0.2,0.3,0.3c0.1,0.1,0.1,0.3,0.2,0.4
		c0,0.2,0,0.4-0.1,0.6c0,0.1,0,0.1-0.1,0.2c0,0-0.1,0-0.1,0H105c-0.1,0.2-0.1,0.4-0.1,0.5c0,0.1,0,0.3,0.1,0.4
		c0.1,0.1,0.1,0.2,0.3,0.2c0.1,0,0.2,0.1,0.4,0.1c0.1,0,0.3,0,0.4,0c0.1,0,0.2-0.1,0.3-0.1c0.1,0,0.2-0.1,0.2-0.1
		c0.1,0,0.1-0.1,0.1-0.1c0,0,0.1,0,0.1,0.1l0.1,0.2c-0.1,0.1-0.2,0.2-0.3,0.2c-0.1,0.1-0.2,0.1-0.3,0.2c-0.1,0-0.2,0.1-0.4,0.1
		c-0.1,0-0.2,0-0.4,0c-0.2,0-0.4,0-0.6-0.1c-0.2-0.1-0.3-0.2-0.4-0.3c-0.1-0.1-0.2-0.3-0.2-0.5c0-0.2,0-0.5,0.1-0.7
		c0.1-0.2,0.2-0.4,0.3-0.6c0.1-0.2,0.3-0.4,0.4-0.5c0.2-0.1,0.4-0.3,0.6-0.3C105.9,720.4,106.1,720.4,106.4,720.4z M106.3,720.8
		c-0.3,0-0.5,0.1-0.7,0.2c-0.2,0.2-0.4,0.4-0.5,0.6h1.7c0-0.1,0-0.2,0-0.4c0-0.1,0-0.2-0.1-0.3c0-0.1-0.1-0.1-0.2-0.2
		C106.5,720.8,106.4,720.8,106.3,720.8z"/>
	<path id="_x36__30_" class="st5" d="M109.8,723.6c-0.1,0-0.1,0-0.1-0.1l0.1-0.4c-0.2,0.2-0.4,0.3-0.6,0.4c-0.2,0.1-0.4,0.1-0.6,0.1
		c-0.2,0-0.3,0-0.5-0.1c-0.1-0.1-0.2-0.2-0.3-0.3c-0.1-0.1-0.1-0.3-0.1-0.5c0-0.2,0-0.4,0.1-0.7c0.1-0.2,0.2-0.5,0.3-0.7
		c0.1-0.2,0.3-0.4,0.4-0.5c0.2-0.2,0.3-0.3,0.5-0.4c0.2-0.1,0.4-0.1,0.6-0.1c0.2,0,0.4,0,0.5,0.1c0.1,0.1,0.2,0.2,0.3,0.3l0.5-1.8
		h0.6l-1.2,4.6H109.8z M108.8,723.2c0.2,0,0.4,0,0.5-0.1c0.2-0.1,0.3-0.2,0.5-0.4l0.4-1.5c-0.1-0.1-0.2-0.2-0.3-0.3
		c-0.1-0.1-0.2-0.1-0.4-0.1c-0.3,0-0.6,0.1-0.8,0.3c-0.2,0.2-0.4,0.5-0.5,0.9c-0.1,0.2-0.1,0.4-0.1,0.5c0,0.1,0,0.3,0.1,0.4
		c0,0.1,0.1,0.2,0.2,0.2C108.6,723.2,108.7,723.2,108.8,723.2z"/>
	<path id="_x37__30_" class="st5" d="M112.3,723.6l1.2-4.6h0.6l-0.5,1.9c0.2-0.2,0.4-0.3,0.6-0.4c0.2-0.1,0.4-0.1,0.6-0.1
		c0.2,0,0.3,0,0.5,0.1c0.1,0.1,0.2,0.2,0.3,0.3c0.1,0.1,0.1,0.3,0.1,0.5c0,0.2,0,0.4-0.1,0.7c-0.1,0.2-0.2,0.5-0.3,0.7
		c-0.1,0.2-0.3,0.4-0.4,0.5c-0.2,0.1-0.3,0.3-0.5,0.3c-0.2,0.1-0.4,0.1-0.6,0.1c-0.2,0-0.4,0-0.5-0.1c-0.1-0.1-0.2-0.2-0.3-0.3
		l-0.1,0.3c0,0.1-0.1,0.1-0.2,0.1H112.3z M114.4,720.8c-0.2,0-0.4,0-0.5,0.1c-0.2,0.1-0.3,0.2-0.5,0.4l-0.4,1.5
		c0.1,0.1,0.1,0.2,0.3,0.3c0.1,0.1,0.2,0.1,0.4,0.1c0.3,0,0.6-0.1,0.8-0.3c0.2-0.2,0.4-0.5,0.5-0.9c0.1-0.2,0.1-0.4,0.1-0.5
		c0-0.1,0-0.3-0.1-0.4c0-0.1-0.1-0.2-0.2-0.2C114.7,720.8,114.6,720.8,114.4,720.8z"/>
	<path id="_x38__30_" class="st5" d="M116.4,724.5c0,0-0.1,0.1-0.1,0.1c0,0-0.1,0-0.1,0h-0.4l0.9-1.2l-0.5-3h0.5c0,0,0.1,0,0.1,0
		c0,0,0,0,0,0.1l0.3,2c0,0,0,0.1,0,0.1c0,0,0,0.1,0,0.1c0,0,0.1-0.1,0.1-0.1c0,0,0.1-0.1,0.1-0.1l1.4-2c0,0,0.1-0.1,0.1-0.1
		c0,0,0.1,0,0.1,0h0.4L116.4,724.5z"/>
	<path id="_x39__30_" class="st5" d="M118.9,723.2c0-0.1,0-0.1,0.1-0.2c0-0.1,0.1-0.1,0.1-0.1c0,0,0.1-0.1,0.1-0.1
		c0.1,0,0.1,0,0.2,0c0.1,0,0.1,0,0.1,0c0,0,0.1,0,0.1,0.1c0,0,0,0.1,0.1,0.1c0,0,0,0.1,0,0.2c0,0.1,0,0.1-0.1,0.2
		c0,0-0.1,0.1-0.1,0.1c0,0-0.1,0.1-0.1,0.1c-0.1,0-0.1,0-0.2,0c-0.1,0-0.1,0-0.1,0c0,0-0.1,0-0.1-0.1c0,0,0-0.1,0-0.1
		C118.9,723.4,118.9,723.3,118.9,723.2z M119.6,720.9c0-0.1,0-0.1,0.1-0.2c0,0,0.1-0.1,0.1-0.1c0,0,0.1-0.1,0.1-0.1
		c0.1,0,0.1,0,0.2,0c0.1,0,0.1,0,0.1,0c0,0,0.1,0,0.1,0.1c0,0,0,0.1,0.1,0.1c0,0,0,0.1,0,0.2c0,0.1,0,0.1-0.1,0.2
		c0,0-0.1,0.1-0.1,0.1c0,0-0.1,0.1-0.1,0.1c-0.1,0-0.1,0-0.2,0c-0.1,0-0.1,0-0.1,0c0,0-0.1,0-0.1-0.1c0,0,0-0.1,0-0.1
		C119.5,721,119.6,721,119.6,720.9z"/>
	<path class="st5" d="M126,738.7l-0.1,0.5h-2.3l-0.4,1.6h1.8l-0.1,0.5H123l-0.4,1.6h2.3l-0.1,0.5h-2.9l1.3-4.8H126z M126,741.2h1.6
		l-0.1,0.5h-1.6L126,741.2z M128.8,742.9h2.1l-0.1,0.5H128l1.3-4.8h0.6L128.8,742.9z M133.4,740c0.2,0,0.4,0,0.5,0.1
		c0.2,0.1,0.3,0.2,0.4,0.3c0.1,0.1,0.1,0.3,0.2,0.5c0,0.2,0,0.4-0.1,0.6c0,0.1-0.1,0.2-0.1,0.2c0,0-0.1,0-0.1,0H132
		c-0.1,0.2-0.1,0.4-0.1,0.6c0,0.2,0,0.3,0.1,0.4c0.1,0.1,0.2,0.2,0.3,0.2c0.1,0.1,0.3,0.1,0.4,0.1c0.1,0,0.3,0,0.4-0.1
		c0.1,0,0.2-0.1,0.3-0.1c0.1,0,0.2-0.1,0.2-0.1c0.1,0,0.1-0.1,0.1-0.1c0,0,0.1,0,0.1,0.1l0.1,0.2c-0.1,0.1-0.2,0.2-0.3,0.2
		c-0.1,0.1-0.2,0.1-0.4,0.2c-0.1,0-0.3,0.1-0.4,0.1c-0.1,0-0.3,0-0.4,0c-0.2,0-0.4,0-0.6-0.1c-0.2-0.1-0.3-0.2-0.4-0.3
		c-0.1-0.2-0.2-0.3-0.2-0.6c0-0.2,0-0.5,0.1-0.8c0.1-0.2,0.2-0.5,0.3-0.7c0.1-0.2,0.3-0.4,0.5-0.5c0.2-0.1,0.4-0.3,0.6-0.4
		C133,740.1,133.2,740,133.4,740z M133.3,740.5c-0.3,0-0.5,0.1-0.7,0.2c-0.2,0.2-0.4,0.4-0.5,0.7h1.8c0-0.1,0.1-0.3,0-0.4
		c0-0.1,0-0.2-0.1-0.3c-0.1-0.1-0.1-0.1-0.2-0.2C133.6,740.5,133.5,740.5,133.3,740.5z M137.1,743.4h-0.3c-0.1,0-0.1,0-0.1,0
		c0,0,0-0.1,0-0.1l0-0.3c-0.1,0.1-0.2,0.2-0.3,0.2c-0.1,0.1-0.2,0.1-0.3,0.2c-0.1,0-0.2,0.1-0.3,0.1c-0.1,0-0.2,0-0.4,0
		c-0.1,0-0.2,0-0.4-0.1c-0.1,0-0.2-0.1-0.3-0.2c-0.1-0.1-0.1-0.2-0.1-0.3c0-0.1,0-0.2,0-0.4c0-0.1,0.1-0.3,0.2-0.4
		c0.1-0.1,0.3-0.2,0.4-0.3c0.2-0.1,0.4-0.2,0.7-0.2c0.3-0.1,0.6-0.1,1-0.1l0.1-0.3c0.1-0.3,0.1-0.5,0-0.6c-0.1-0.1-0.2-0.2-0.4-0.2
		c-0.1,0-0.3,0-0.4,0.1c-0.1,0-0.2,0.1-0.3,0.1c-0.1,0-0.2,0.1-0.2,0.1c-0.1,0-0.1,0.1-0.2,0.1c0,0-0.1,0-0.1,0c0,0,0,0-0.1-0.1
		l-0.1-0.2c0.2-0.2,0.5-0.3,0.7-0.4c0.2-0.1,0.5-0.1,0.8-0.1c0.2,0,0.3,0,0.5,0.1c0.1,0.1,0.2,0.1,0.3,0.3c0.1,0.1,0.1,0.2,0.1,0.4
		c0,0.2,0,0.3-0.1,0.5L137.1,743.4z M135.7,743.1c0.1,0,0.2,0,0.3,0s0.2-0.1,0.3-0.1c0.1,0,0.2-0.1,0.3-0.1c0.1-0.1,0.2-0.1,0.3-0.2
		l0.2-0.7c-0.3,0-0.5,0-0.7,0.1c-0.2,0-0.4,0.1-0.5,0.1c-0.1,0.1-0.2,0.1-0.3,0.2c-0.1,0.1-0.1,0.2-0.1,0.3c0,0.1,0,0.2,0,0.2
		c0,0.1,0,0.1,0.1,0.2c0,0,0.1,0.1,0.1,0.1C135.5,743.1,135.6,743.1,135.7,743.1z M138,743.4l0.9-3.4h0.3c0.1,0,0.1,0,0.1,0
		c0,0,0,0.1,0,0.1l-0.1,0.6c0.2-0.2,0.4-0.4,0.6-0.6c0.2-0.1,0.4-0.2,0.6-0.2c0.1,0,0.2,0,0.2,0c0.1,0,0.1,0.1,0.2,0.1l-0.2,0.4
		c0,0.1-0.1,0.1-0.1,0.1c0,0-0.1,0-0.1,0c-0.1,0-0.1,0-0.3,0c-0.2,0-0.4,0.1-0.6,0.2c-0.2,0.1-0.3,0.3-0.5,0.5l-0.6,2.1H138z
		 M140.7,743.4l0.9-3.4h0.4c0.1,0,0.1,0,0.1,0.1l-0.1,0.4c0.2-0.2,0.4-0.3,0.6-0.4c0.2-0.1,0.4-0.2,0.7-0.2c0.2,0,0.3,0,0.5,0.1
		c0.1,0.1,0.2,0.1,0.3,0.3c0.1,0.1,0.1,0.2,0.1,0.4c0,0.2,0,0.3-0.1,0.5l-0.6,2.1h-0.6l0.6-2.1c0.1-0.3,0.1-0.5,0-0.6
		c-0.1-0.1-0.2-0.2-0.5-0.2c-0.2,0-0.3,0-0.5,0.1c-0.2,0.1-0.3,0.2-0.5,0.3l-0.7,2.5H140.7z M146,740.1l-0.9,3.4h-0.6l0.9-3.4H146z
		 M146.4,739c0,0.1,0,0.1-0.1,0.2c0,0-0.1,0.1-0.1,0.1c0,0-0.1,0.1-0.2,0.1c-0.1,0-0.1,0-0.2,0c-0.1,0-0.1,0-0.2,0
		c0,0-0.1-0.1-0.1-0.1c0,0,0-0.1-0.1-0.1c0,0,0-0.1,0-0.2c0-0.1,0-0.1,0.1-0.2c0-0.1,0.1-0.1,0.1-0.1c0,0,0.1-0.1,0.2-0.1
		c0.1,0,0.1,0,0.2,0c0.1,0,0.1,0,0.2,0c0,0,0.1,0.1,0.1,0.1c0,0,0,0.1,0.1,0.1C146.4,738.9,146.4,739,146.4,739z M146.1,743.4
		l0.9-3.4h0.4c0.1,0,0.1,0,0.1,0.1l-0.1,0.4c0.2-0.2,0.4-0.3,0.6-0.4c0.2-0.1,0.4-0.2,0.7-0.2c0.2,0,0.3,0,0.5,0.1
		c0.1,0.1,0.2,0.1,0.3,0.3c0.1,0.1,0.1,0.2,0.1,0.4c0,0.2,0,0.3-0.1,0.5l-0.6,2.1h-0.6l0.6-2.1c0.1-0.3,0.1-0.5,0-0.6
		c-0.1-0.1-0.2-0.2-0.5-0.2c-0.2,0-0.3,0-0.5,0.1c-0.2,0.1-0.3,0.2-0.5,0.3l-0.7,2.5H146.1z M151.8,740c0.1,0,0.3,0,0.4,0
		c0.1,0,0.2,0.1,0.3,0.1h0.9l-0.1,0.2c0,0.1-0.1,0.1-0.2,0.1l-0.4,0.1c0,0.1,0,0.3,0,0.5c0,0.2-0.1,0.3-0.2,0.4
		c-0.1,0.1-0.2,0.2-0.4,0.3c-0.1,0.1-0.3,0.2-0.5,0.2c-0.2,0-0.3,0.1-0.5,0.1c-0.2,0-0.3,0-0.4-0.1c-0.1,0-0.1,0.1-0.2,0.1
		c-0.1,0.1-0.1,0.1-0.1,0.2c0,0.1,0,0.1,0,0.2c0.1,0,0.1,0.1,0.2,0.1c0.1,0,0.2,0,0.4,0c0.1,0,0.3,0,0.4,0c0.1,0,0.3,0,0.4,0
		c0.1,0,0.2,0.1,0.3,0.1c0.1,0.1,0.2,0.1,0.2,0.2c0,0.1,0,0.2,0,0.4c0,0.1-0.1,0.3-0.2,0.4c-0.1,0.1-0.2,0.3-0.4,0.4
		c-0.2,0.1-0.3,0.2-0.6,0.3c-0.2,0.1-0.4,0.1-0.7,0.1c-0.2,0-0.5,0-0.6-0.1c-0.2,0-0.3-0.1-0.4-0.2c-0.1-0.1-0.2-0.2-0.2-0.3
		c0-0.1,0-0.2,0-0.3c0-0.2,0.1-0.3,0.3-0.4c0.1-0.1,0.3-0.2,0.5-0.3c-0.1,0-0.1-0.1-0.2-0.2c0-0.1,0-0.2,0-0.3c0,0,0-0.1,0.1-0.2
		c0-0.1,0.1-0.1,0.1-0.2c0-0.1,0.1-0.1,0.2-0.1c0.1,0,0.1-0.1,0.2-0.1c-0.1-0.1-0.2-0.2-0.3-0.4c-0.1-0.2-0.1-0.3,0-0.5
		c0-0.2,0.1-0.3,0.2-0.4c0.1-0.1,0.2-0.3,0.4-0.3c0.1-0.1,0.3-0.2,0.5-0.2C151.5,740,151.6,740,151.8,740z M151.9,743.6
		c0-0.1,0-0.2,0-0.2c0-0.1-0.1-0.1-0.2-0.1c-0.1,0-0.2,0-0.3-0.1c-0.1,0-0.2,0-0.3,0c-0.1,0-0.2,0-0.4,0c-0.1,0-0.2,0-0.3,0
		c-0.1,0.1-0.3,0.1-0.4,0.2c-0.1,0.1-0.2,0.2-0.2,0.3c0,0.1,0,0.1,0,0.2c0,0.1,0.1,0.1,0.1,0.2c0.1,0,0.2,0.1,0.3,0.1
		c0.1,0,0.2,0,0.4,0c0.2,0,0.3,0,0.4,0c0.1,0,0.2-0.1,0.4-0.1c0.1-0.1,0.2-0.1,0.3-0.2C151.9,743.8,151.9,743.7,151.9,743.6z
		 M151.4,741.8c0.1,0,0.2,0,0.3,0c0.1,0,0.2-0.1,0.3-0.1c0.1-0.1,0.1-0.1,0.2-0.2c0.1-0.1,0.1-0.2,0.1-0.3c0.1-0.2,0-0.4-0.1-0.5
		c-0.1-0.1-0.3-0.2-0.5-0.2c-0.2,0-0.4,0.1-0.6,0.2c-0.2,0.1-0.3,0.3-0.3,0.5c0,0.1,0,0.2,0,0.3c0,0.1,0,0.2,0.1,0.2
		c0,0.1,0.1,0.1,0.2,0.1C151.1,741.8,151.2,741.8,151.4,741.8z M159.1,738.7l-0.1,0.5h-1.5l-1.1,4.2h-0.6l1.1-4.2h-1.5l0.1-0.5
		H159.1z M159.9,740c0.2,0,0.4,0,0.5,0.1c0.2,0.1,0.3,0.2,0.4,0.3c0.1,0.1,0.1,0.3,0.2,0.5c0,0.2,0,0.4-0.1,0.6c0,0.1,0,0.2-0.1,0.2
		c0,0-0.1,0-0.1,0h-2.2c-0.1,0.2-0.1,0.4-0.1,0.6c0,0.2,0,0.3,0.1,0.4c0.1,0.1,0.2,0.2,0.3,0.2c0.1,0.1,0.2,0.1,0.4,0.1
		c0.1,0,0.3,0,0.4-0.1c0.1,0,0.2-0.1,0.3-0.1c0.1,0,0.2-0.1,0.2-0.1c0.1,0,0.1-0.1,0.1-0.1c0,0,0.1,0,0.1,0.1l0.1,0.2
		c-0.1,0.1-0.2,0.2-0.3,0.2c-0.1,0.1-0.2,0.1-0.4,0.2c-0.1,0-0.3,0.1-0.4,0.1c-0.1,0-0.3,0-0.4,0c-0.2,0-0.4,0-0.6-0.1
		c-0.2-0.1-0.3-0.2-0.4-0.3c-0.1-0.2-0.2-0.3-0.2-0.6c0-0.2,0-0.5,0.1-0.8c0.1-0.2,0.2-0.5,0.3-0.7c0.1-0.2,0.3-0.4,0.5-0.5
		c0.2-0.1,0.4-0.3,0.6-0.4C159.5,740.1,159.7,740,159.9,740z M159.8,740.5c-0.3,0-0.5,0.1-0.7,0.2c-0.2,0.2-0.4,0.4-0.5,0.7h1.8
		c0-0.1,0-0.3,0-0.4c0-0.1,0-0.2-0.1-0.3c-0.1-0.1-0.1-0.1-0.2-0.2C160.1,740.5,160,740.5,159.8,740.5z M163.6,743.4h-0.3
		c-0.1,0-0.1,0-0.1,0c0,0,0-0.1,0-0.1l0-0.3c-0.1,0.1-0.2,0.2-0.3,0.2c-0.1,0.1-0.2,0.1-0.3,0.2c-0.1,0-0.2,0.1-0.3,0.1
		c-0.1,0-0.2,0-0.4,0c-0.1,0-0.2,0-0.4-0.1c-0.1,0-0.2-0.1-0.3-0.2c-0.1-0.1-0.1-0.2-0.1-0.3c0-0.1,0-0.2,0-0.4
		c0-0.1,0.1-0.3,0.2-0.4c0.1-0.1,0.3-0.2,0.4-0.3c0.2-0.1,0.4-0.2,0.7-0.2c0.3-0.1,0.6-0.1,1-0.1l0.1-0.3c0.1-0.3,0.1-0.5,0-0.6
		c-0.1-0.1-0.2-0.2-0.4-0.2c-0.1,0-0.3,0-0.4,0.1c-0.1,0-0.2,0.1-0.3,0.1c-0.1,0-0.2,0.1-0.2,0.1c-0.1,0-0.1,0.1-0.2,0.1
		c0,0-0.1,0-0.1,0c0,0,0,0-0.1-0.1l-0.1-0.2c0.2-0.2,0.5-0.3,0.7-0.4c0.2-0.1,0.5-0.1,0.7-0.1c0.2,0,0.3,0,0.5,0.1
		c0.1,0.1,0.2,0.1,0.3,0.3c0.1,0.1,0.1,0.2,0.1,0.4c0,0.2,0,0.3-0.1,0.5L163.6,743.4z M162.2,743.1c0.1,0,0.2,0,0.3,0
		c0.1,0,0.2-0.1,0.3-0.1c0.1,0,0.2-0.1,0.3-0.1c0.1-0.1,0.2-0.1,0.3-0.2l0.2-0.7c-0.3,0-0.5,0-0.7,0.1c-0.2,0-0.4,0.1-0.5,0.1
		c-0.1,0.1-0.2,0.1-0.3,0.2c-0.1,0.1-0.1,0.2-0.2,0.3c0,0.1,0,0.2,0,0.2c0,0.1,0,0.1,0.1,0.2c0,0,0.1,0.1,0.1,0.1
		C162,743.1,162.1,743.1,162.2,743.1z M164.5,743.4l0.9-3.4h0.3c0.1,0,0.1,0,0.1,0.1l0,0.3c0.2-0.2,0.3-0.3,0.5-0.4
		c0.2-0.1,0.4-0.1,0.6-0.1c0.2,0,0.4,0.1,0.5,0.2c0.1,0.1,0.2,0.3,0.2,0.5c0.1-0.1,0.2-0.2,0.3-0.3c0.1-0.1,0.2-0.2,0.3-0.2
		c0.1-0.1,0.2-0.1,0.3-0.1c0.1,0,0.2,0,0.3,0c0.2,0,0.3,0,0.5,0.1c0.1,0.1,0.2,0.1,0.3,0.2c0.1,0.1,0.1,0.2,0.1,0.4
		c0,0.2,0,0.3-0.1,0.5l-0.6,2.1h-0.6l0.6-2.1c0.1-0.3,0.1-0.5,0-0.6c-0.1-0.1-0.2-0.2-0.4-0.2c-0.1,0-0.2,0-0.3,0.1
		c-0.1,0-0.2,0.1-0.3,0.2c-0.1,0.1-0.2,0.2-0.2,0.3c-0.1,0.1-0.1,0.2-0.2,0.4l-0.6,2.1h-0.6l0.6-2.1c0.1-0.3,0.1-0.5,0-0.6
		c-0.1-0.1-0.2-0.2-0.4-0.2c-0.1,0-0.3,0-0.4,0.1c-0.1,0.1-0.3,0.2-0.4,0.3l-0.7,2.5H164.5z"/>
</g>
<g>
	<g>
		<linearGradient id="SVGID_3_" gradientUnits="userSpaceOnUse" x1="759.4564" y1="142.1417" x2="959.6342" y2="142.1417">
			<stop  offset="0" style="stop-color:#FFFFFF;stop-opacity:0"/>
			<stop  offset="4.209470e-02" style="stop-color:#FDEAED;stop-opacity:4.245090e-02"/>
			<stop  offset="0.1274" style="stop-color:#FAC5CD;stop-opacity:0.1284"/>
			<stop  offset="0.2201" style="stop-color:#F7A6B1;stop-opacity:0.222"/>
			<stop  offset="0.3205" style="stop-color:#F58C9B;stop-opacity:0.3232"/>
			<stop  offset="0.4313" style="stop-color:#F37889;stop-opacity:0.4349"/>
			<stop  offset="0.5581" style="stop-color:#F26B7D;stop-opacity:0.5628"/>
			<stop  offset="0.7149" style="stop-color:#F16276;stop-opacity:0.7209"/>
			<stop  offset="0.9916" style="stop-color:#F16074"/>
		</linearGradient>
		<rect x="759.5" y="129.8" class="st8" width="200.2" height="24.7"/>
		<g>
			<path class="st6" d="M911.3,134.7c0.8,0,1.5-0.7,1.5-1.5c0-0.8-0.6-1.5-1.5-1.5c-0.8,0-1.5,0.7-1.5,1.5
				C909.8,134,910.5,134.7,911.3,134.7z"/>
			<path class="st6" d="M907.6,134.7c0.8,0,1.5-0.7,1.5-1.5c0-0.8-0.6-1.5-1.5-1.5c-0.8,0-1.5,0.7-1.5,1.5
				C906.2,134,906.8,134.7,907.6,134.7z"/>
			<path class="st6" d="M920.3,144.4h-3.8h-0.3h-1.8v-7.6c0,0-2-0.8-4.6-0.8c-4,0-5.8,2.6-5.8,5.5c0,3.1,1.6,5.1,5.9,5.1h6.4h0.3
				h6.7v-10.3h-2.9V144.4z M911.5,144.4h-1.4c-2.3,0-3.3-1.1-3.3-3.1c0-1.7,1-3,2.6-3c1.3,0,2.1,0.4,2.1,0.4V144.4z"/>
			<path class="st6" d="M918,148.5c-0.8,0-1.5,0.7-1.5,1.5c0,0.8,0.6,1.5,1.5,1.5c0.8,0,1.5-0.7,1.5-1.5
				C919.5,149.2,918.9,148.5,918,148.5z"/>
			<path class="st6" d="M921.7,148.5c-0.8,0-1.5,0.7-1.5,1.5c0,0.8,0.6,1.5,1.5,1.5c0.8,0,1.5-0.7,1.5-1.5
				C923.2,149.2,922.5,148.5,921.7,148.5z"/>
			<path class="st6" d="M949.7,135.5l-2.8,0.4c0.4,1.7,0.6,3.7,0.6,5.9c0,0.7-0.1,1.8-0.2,2.6h-0.8c-1.9,0-2.4-0.6-2.4-2.4v-5.2
				h-2.8v5.3c0,1.6-0.4,2.5-1.6,2.5c-1.3,0-1.7-0.9-1.7-2.6v-4.4h-2.9v4c0,2.2-0.5,2.8-2,2.8h-0.4h-0.3h-1.8v-8.1h-2.9v10.6
				c0,2.4-0.9,3.1-2.4,3.1c-0.7,0-1.3-0.1-1.8-0.3l-0.2,2.3c0.5,0.1,1.2,0.2,1.8,0.2c4.5,0,5.4-2.7,5.4-5.5v-0.1h1.8h0.3h0.4
				c1.6,0,2.5-0.6,2.9-1.6c0.4,1.1,1.5,1.8,3.1,1.8c1.4,0,2.7-0.6,3.2-1.8c0.5,1.2,1.6,1.6,3.6,1.6h4.1c0.2-1.6,0.3-3.5,0.3-5.1
				C950.4,139.4,950.1,137.2,949.7,135.5z"/>
		</g>
		<g>
			<path class="st1" d="M736.3,148.4c0,1-1.1,1.5-2.8,2.2l-4.9,1.9c-1.3,0.5-1.9,1.3-1.9,2.3c0,0.3,0.1,0.7,0.2,1.1l0.2-0.1
				c0-0.1,0-0.1,0-0.2c0-0.9,1.3-1.4,2.8-2l4.9-1.9c1.3-0.5,1.9-1.3,1.9-2.2c0-0.4-0.1-0.7-0.2-1.1L736.3,148.4z"/>
			<path class="st1" d="M764.8,96.9c1.7,0,3.1-1.4,3.1-3.1v-2c0-1.2,0-2.3,0.7-2.4v-0.2c-0.4,0-0.8,0.1-1.1,0.3h-2.8
				c-1.8,0-3.4,1.6-3.4,3.4v1.2C761.4,95.8,763,96.9,764.8,96.9z M762.6,92.9c0-1.3,1-2.3,2.5-2.3h2c-0.1,0.2-0.1,0.4-0.1,0.6v2.5
				c0,1.2-1,2.1-2.1,2.1c-1.3,0-2.3-0.8-2.3-1.7V92.9z"/>
			<path class="st1" d="M790.8,79.1c0,0.3,0.1,0.7,0.2,1l0.9,2.5c0.1,0.2,0.1,0.5,0.1,0.8c0,1-0.9,2.1-2.1,2.1
				c-0.9,0-1.8-0.7-2.3-1.7l-1.5-3.8l-1,0.4l1.6,4.2c0.1,0.2,0.1,0.5,0.1,0.7c0,1-0.8,2.2-2.1,2.2c-0.9,0-1.8-0.6-2.2-1.7l-1.5-3.8
				l-1.1,0.4l1.7,4.4c0.6,1.2,1.7,1.8,2.8,1.8c1.5,0,3.1-1,3.4-2.6c0.6,0.4,1.3,0.6,2,0.6c1.8,0,3.2-1.6,3.2-3.3
				c0-0.4-0.1-0.7-0.2-1.1l-0.8-2c-0.3-0.8-0.6-1.5-0.6-2c0-0.3,0.1-0.5,0.3-0.7l0-0.1C791.2,77.8,790.8,78.3,790.8,79.1z"/>
			<path class="st1" d="M782.4,78.2c1.9,0,4-1.1,5.2-3.5l1.5-2.5l0.9-1.6c0.5-0.8,0.9-1.7,1.4-1.7c0.1,0,0.2,0,0.2,0l0.1-0.1
				c-0.4-0.2-0.7-0.3-1-0.3l-2.2-1.2c-0.5-0.3-1-0.4-1.5-0.4c-1.1,0-2.3,0.6-2.8,1.6l-0.6,1c-0.2,0.4-0.3,0.8-0.3,1.1
				c0,1.3,1.3,3.1,3.1,3.1c0.2,0,0.4,0,0.6-0.1l-0.3,0.6c-1.3,2.4-3.2,3.4-4.9,3.4c-1.2,0-2.3-0.5-3-1.4l-0.1,0.1
				C779.6,77.5,781,78.2,782.4,78.2z M786.6,72.7c-1.3,0-2.1-1.2-2.1-2c0-0.2,0.1-0.4,0.2-0.6l0.5-1c0.4-0.7,1.1-1.1,1.9-1.1
				c0.4,0,0.8,0.1,1.2,0.3l1.4,0.8l-1.7,3.1C787.6,72.5,787.1,72.7,786.6,72.7z"/>
			<polygon class="st1" points="806.5,98.3 803.7,95.4 800.9,98.3 803.7,101.1 			"/>
			<path class="st1" d="M829,89.6v0.4c2.1,0.2,2.1,3.7,2.1,7.2v20c0,4.5-3.4,7.1-5.8,7.3h-4.7v-6.1c0-5.7-4-11.3-10.4-11.8h-6.7
				c-6.7,0-12.2,2.7-15.3,6.4l-0.1,0.1V97.3c0-3.6-2.1-5.1-5.2-5.2v0.3c1.9,0.2,1.9,3.1,1.9,6v23.6c0,0.9,0.1,1.9,0.3,2.4h-5.4
				c-4.8,0-6.6-1.3-7.3-4.4V116c0-5.5-3.9-9.6-9.7-9.6h-2.5c-3.3,0-6.6,0-6.7-1.9h-0.3c0.1,1.4,0.5,2.7,1.2,3.5
				c0.7,0.9,1.5,1.6,4.2,1.6h4.2c2.6,0,4,0.9,4.8,2c0.8,1.1,1.2,1.7,1.6,5v8h-5.1V115h-3.6c-5.3,0-9.8,4.5-9.9,9.5h-3.3h-0.1h-8.8
				v-18h-3.3v21.2c0,11.5-6.9,18.9-15,18.9c-1.5,0-2.8-0.3-4.2-1l-0.3,0.6c2.1,0.8,4,1.2,5.9,1.2c4.7,0,8.6-1.8,11.7-5.4
				c3.6-3.8,5.1-8.5,5.1-14.3h8.8h0.1h25.1v-2.1c1.7,1.4,3.4,2,7.2,2.1v0h45.8v0c0.8,0,1.8-0.3,2.9-0.9c3.6-1.7,6-5.6,6-9.6V95.6
				C834.3,91.3,832.2,89.7,829,89.6z M760.9,124.5h-7c0-3.4,2.7-6.1,6.5-6.2h0.6V124.5z M817.3,124.5h-31.9c0-0.1-0.1-0.6-0.1-0.9
				c0-6.9,6-13.8,17.9-13.8h6.7c4.9,0.5,7.4,4.6,7.4,8.6V124.5z"/>
			<path class="st1" d="M839.8,89.8v0.4c1.7,0.3,2,1.8,2,7.5v30h3.3V96C845,92,843.3,89.9,839.8,89.8z"/>
			<path class="st1" d="M863.6,85.7c1.9,0,4-1.1,5.2-3.5l1.5-2.5l0.9-1.6c0.5-0.8,0.9-1.7,1.4-1.7c0.1,0,0.2,0,0.2,0l0.1-0.1
				c-0.4-0.2-0.7-0.3-1-0.3l-2.2-1.2c-0.5-0.3-1-0.4-1.5-0.4c-1.1,0-2.3,0.6-2.8,1.6l-0.6,1c-0.2,0.4-0.3,0.8-0.3,1.1
				c0,1.3,1.3,3.1,3.1,3.1c0.2,0,0.4,0,0.6-0.1l-0.3,0.6c-1.3,2.4-3.2,3.4-4.9,3.4c-1.2,0-2.3-0.5-3-1.4l-0.1,0.1
				C860.8,85,862.2,85.7,863.6,85.7z M867.8,80.1c-1.3,0-2.1-1.2-2.1-2c0-0.2,0.1-0.4,0.2-0.6l0.5-1c0.4-0.7,1.1-1.1,1.9-1.1
				c0.4,0,0.8,0.1,1.2,0.3l1.4,0.8l-1.7,3.1C868.8,80,868.3,80.1,867.8,80.1z"/>
			<polygon class="st1" points="869.1,98.4 872,101.3 874.9,98.4 872,95.6 			"/>
			<path class="st1" d="M870,105.6c-5.5,0-10.3,4.8-10.3,10.3v3.6c0,4.8,4.7,8.3,10.2,8.3c5.1,0,9.4-4.2,9.4-9.3v-6
				c0-3.5,0-7,2.1-7.2v-0.5c-1.1,0.1-2.3,0.3-3.1,0.8H870z M876.1,110.8v7.6c0,3.4-2.9,6.1-6.2,6.1c-3.9,0-6.8-2.5-6.8-5.1v-3.6
				c0-3.8,3.1-7,7.4-7h5.8C876.1,109.4,876.1,109.9,876.1,110.8z"/>
			<polygon class="st1" points="863.3,98.4 866.2,101.3 869.1,98.4 866.2,95.6 			"/>
			<path class="st1" d="M941.2,101.3c0-0.1,0-0.1,0-0.2c0-0.9,1.3-1.4,2.8-2l4.9-1.9c1.3-0.5,1.9-1.3,1.9-2.2c0-0.4-0.1-0.7-0.2-1.1
				l-0.2,0.1c0,1-1.1,1.5-2.8,2.2l-4.9,1.9c-1.3,0.5-1.9,1.3-1.9,2.3c0,0.3,0.1,0.7,0.2,1.1L941.2,101.3z"/>
			<path class="st1" d="M948.5,105.7h-6.9c-10.6,0-18.6,6.3-19.3,14.5c-0.7-2.6-2.2-5.2-4.4-7.3l-0.4,0.3c2.4,2.2,3.2,5.4,3.2,8.8
				c0,1.3-0.3,2.2-0.9,2.5h-2.7c-3.4-0.3-5.9-2.2-6.2-5.5V94.4c0-4.3-2.1-6-5.4-6.1v0.5c2,0.3,2.1,3.6,2.1,7.4v20.6
				c0,4.4-3,7.7-6.8,7.7h-2.9v-14.9c0-4.3-2.1-6-5.5-6.2v0.5c2,0.3,2.2,3.8,2.2,7.5v13.1h-10.9v3.3h17.1c3.5,0,7-2.5,8-4.5
				c1.7,2.9,4.8,4.5,8.2,4.5v0h42.6V118C959.7,111.8,954.6,106.2,948.5,105.7z M956.4,124.5h-33.5v-1c0-8.3,7.6-14.5,18.8-14.5h3.4
				c2.9,0,4.8,0.4,6.2,0.9c3.4,1.7,5.1,4.4,5.1,8.1V124.5z"/>
		</g>
	</g>
</g>
<g>
	
		<radialGradient id="SVGID_4_" cx="242.6075" cy="251.8626" r="54.2731" fx="231.4671" fy="235.819" gradientUnits="userSpaceOnUse">
		<stop  offset="0.1436" style="stop-color:#FFF75D"/>
		<stop  offset="0.5314" style="stop-color:#FFDE00"/>
		<stop  offset="0.9166" style="stop-color:#FF7D00"/>
	</radialGradient>
	<circle class="st9" cx="243.6" cy="254.4" r="48.7"/>
	<g>
		<path class="st10" d="M243.6,205.7c-26.9,0-48.7,21.8-48.7,48.7c0,26.9,21.8,48.7,48.7,48.7c26.9,0,48.7-21.8,48.7-48.7
			C292.3,227.5,270.5,205.7,243.6,205.7z M241.9,299.9c-25.1,0-45.5-20.4-45.5-45.5c0-25.1,20.4-45.5,45.5-45.5
			c25.1,0,45.5,20.4,45.5,45.5C287.4,279.6,267,299.9,241.9,299.9z"/>
		<path class="st10" d="M248.9,189.6c0,2.7-2,4.9-4.6,4.9l0,0c-2.5,0-4.6-2.2-4.6-4.9v-8.7c0-2.7,2-4.9,4.6-4.9l0,0
			c2.5,0,4.6,2.2,4.6,4.9V189.6z"/>
		<path class="st10" d="M248.9,322.8c0,2.7-2,4.9-4.6,4.9l0,0c-2.5,0-4.6-2.2-4.6-4.9v-8.7c0-2.7,2-4.9,4.6-4.9l0,0
			c2.5,0,4.6,2.2,4.6,4.9V322.8z"/>
		<path class="st10" d="M306.6,256.4c-2.7,0-4.9-2-4.9-4.6l0,0c0-2.5,2.2-4.6,4.9-4.6h8.7c2.7,0,4.9,2,4.9,4.6l0,0
			c0,2.5-2.2,4.6-4.9,4.6H306.6z"/>
		<path class="st10" d="M173.4,256.4c-2.7,0-4.9-2-4.9-4.6l0,0c0-2.5,2.2-4.6,4.9-4.6h8.7c2.7,0,4.9,2,4.9,4.6l0,0
			c0,2.5-2.2,4.6-4.9,4.6H173.4z"/>
		<path class="st10" d="M291.6,211.1c-1.9,1.9-4.9,2.1-6.7,0.3l0,0c-1.8-1.8-1.7-4.8,0.3-6.7l6.2-6.2c1.9-1.9,4.9-2.1,6.7-0.3l0,0
			c1.8,1.8,1.7,4.8-0.3,6.7L291.6,211.1z"/>
		<path class="st10" d="M197.4,305.3c-1.9,1.9-4.9,2.1-6.7,0.3l0,0c-1.8-1.8-1.7-4.8,0.3-6.7l6.2-6.2c1.9-1.9,4.9-2.1,6.7-0.3l0,0
			c1.8,1.8,1.7,4.8-0.3,6.7L197.4,305.3z"/>
		<path class="st10" d="M285.2,299.1c-1.9-1.9-2-4.9-0.3-6.7l0,0c1.8-1.8,4.8-1.7,6.7,0.3l6.2,6.2c1.9,1.9,2.1,4.9,0.3,6.7l0,0
			c-1.8,1.8-4.8,1.7-6.7-0.3L285.2,299.1z"/>
		<path class="st10" d="M191,204.9c-1.9-1.9-2-4.9-0.3-6.7l0,0c1.8-1.8,4.8-1.7,6.7,0.3l6.2,6.2c1.9,1.9,2.1,4.9,0.3,6.7l0,0
			c-1.8,1.8-4.8,1.7-6.7-0.3L191,204.9z"/>
	</g>
	<defs>
		<filter id="Adobe_OpacityMaskFilter" filterUnits="userSpaceOnUse" x="197.7" y="209.7" width="72.7" height="48.8">
			<feFlood  style="flood-color:white;flood-opacity:1" result="back"/>
			<feBlend  in="SourceGraphic" in2="back" mode="normal"/>
		</filter>
	</defs>
	<mask maskUnits="userSpaceOnUse" x="197.7" y="209.7" width="72.7" height="48.8" id="SVGID_5_">
		<g class="st11">
			<defs>
				<filter id="Adobe_OpacityMaskFilter_1_" filterUnits="userSpaceOnUse" x="197.7" y="209.7" width="72.7" height="48.8">
					<feFlood  style="flood-color:white;flood-opacity:1" result="back"/>
					<feBlend  in="SourceGraphic" in2="back" mode="normal"/>
				</filter>
			</defs>
			<mask maskUnits="userSpaceOnUse" x="197.7" y="209.7" width="72.7" height="48.8" id="SVGID_5_">
				<g class="st12">
				</g>
			</mask>
			
				<radialGradient id="SVGID_6_" cx="232.6474" cy="214.1287" r="50.6721" fx="249.8236" fy="188.0155" gradientUnits="userSpaceOnUse">
				<stop  offset="0.2627" style="stop-color:#FFFFFF"/>
				<stop  offset="0.7268" style="stop-color:#FFFFFF"/>
				<stop  offset="0.9716" style="stop-color:#000000"/>
			</radialGradient>
			<path class="st13" d="M212.4,220.5c9-9.2,32.2-15.4,48.6-6.2c16.4,9.2,11,26.7-15.4,25.7c-26.4-1-42.3,8.6-44.4,16.8
				C199.2,265,190.2,243.2,212.4,220.5z"/>
		</g>
	</mask>
	
		<radialGradient id="SVGID_7_" cx="232.6474" cy="214.1287" r="50.6721" fx="249.8236" fy="188.0155" gradientUnits="userSpaceOnUse">
		<stop  offset="0.2627" style="stop-color:#FFFFFF"/>
		<stop  offset="0.7268" style="stop-color:#FFF75D"/>
		<stop  offset="0.9716" style="stop-color:#FFDE00"/>
	</radialGradient>
	<path class="st14" d="M212.4,220.5c9-9.2,32.2-15.4,48.6-6.2c16.4,9.2,11,26.7-15.4,25.7c-26.4-1-42.3,8.6-44.4,16.8
		C199.2,265,190.2,243.2,212.4,220.5z"/>
</g>
</svg>
