<?xml version="1.0" encoding="utf-8"?>
<!-- Generator: Adobe Illustrator 21.1.0, SVG Export Plug-In . SVG Version: 6.00 Build 0)  -->
<svg version="1.1" id="Layer_1" xmlns="http://www.w3.org/2000/svg" xmlns:xlink="http://www.w3.org/1999/xlink" x="0px" y="0px"
	 viewBox="0 0 1024 768" style="enable-background:new 0 0 1024 768;" xml:space="preserve">
<style type="text/css">
	.st0{fill:url(#SVGID_1_);}
	.st1{fill:#622272;}
	.st2{fill:url(#SVGID_2_);}
	.st3{fill:#C94876;}
	.st4{fill-rule:evenodd;clip-rule:evenodd;fill:#F6DFB4;}
	.st5{fill:#D1D3D4;}
	.st6{fill:#FFFFFF;}
	.st7{fill:#1D5A69;}
	.st8{fill:url(#SVGID_3_);}
	.st9{fill:url(#SVGID_4_);}
	.st10{fill:#FF8A00;}
	.st11{filter:url(#Adobe_OpacityMaskFilter);}
	.st12{filter:url(#Adobe_OpacityMaskFilter_1_);}
	.st13{mask:url(#SVGID_5_);fill:url(#SVGID_6_);}
	.st14{fill:url(#SVGID_7_);}
</style>
<g>
	<g>
		<g>
			<linearGradient id="SVGID_1_" gradientUnits="userSpaceOnUse" x1="245.1855" y1="139.1707" x2="245.1855" y2="722.1617">
				<stop  offset="0.3212" style="stop-color:#1C75BC"/>
				<stop  offset="0.3967" style="stop-color:#247BBF"/>
				<stop  offset="0.517" style="stop-color:#3C8AC7"/>
				<stop  offset="0.667" style="stop-color:#61A4D5"/>
				<stop  offset="0.839" style="stop-color:#95C7E8"/>
				<stop  offset="1" style="stop-color:#CCECFC"/>
			</linearGradient>
			<path class="st0" d="M395.4,267.9h-6.1c-1.8-28.2-25.9-59.6-71.7-93.4c-35-25.9-70.5-43.7-70.9-43.9c-1-0.5-2.2-0.5-3.1,0
				c-0.3,0.2-35.9,18-70.9,43.9c-45.7,33.8-69.8,65.2-71.7,93.4H95c-1.9,0-3.5,1.6-3.5,3.5v360.2h307.5V271.4
				C398.9,269.5,397.4,267.9,395.4,267.9z"/>
		</g>
	</g>
</g>
<g>
	<path class="st1" d="M420,213c-0.8,0-1.5,0.7-1.5,1.5c0,0.8,0.7,1.5,1.5,1.5c0.8,0,1.5-0.7,1.5-1.5C421.5,213.7,420.9,213,420,213z
		"/>
	<path class="st1" d="M420,220.5c-0.8,0-1.5,0.7-1.5,1.5c0,0.8,0.7,1.5,1.5,1.5c0.8,0,1.5-0.7,1.5-1.5
		C421.5,221.2,420.9,220.5,420,220.5z"/>
	<polygon class="st1" points="461.4,209.4 459.4,208.1 458.2,209.9 460.2,211.3 	"/>
	<polygon class="st1" points="462.1,214 463.4,212.1 461.4,210.8 460.2,212.6 	"/>
	<polygon class="st1" points="459.9,212.1 458,210.8 456.8,212.6 458.7,214 	"/>
	<polygon class="st1" points="477.1,212.2 475.1,210.9 473.9,212.7 475.9,214.1 	"/>
	<polygon class="st1" points="473.7,212.2 471.8,210.9 470.6,212.7 472.5,214.1 	"/>
	<path class="st1" d="M479.7,207.3V219c0,0.9-0.1,1.5-0.2,1.9c-0.6,0.4-1.5,0.5-2.3,0.5c-2,0-2.9-0.4-3.4-0.7
		c0.5-0.9,0.8-2.2,1.1-3.7l-0.2-0.1l-1.8,0.5c-0.5,2-0.8,3.1-1.2,3.6c-0.4,0.3-1.1,0.5-1.8,0.5h-0.7c-1.5,0-2.4-0.4-2.9-0.7
		c0.2-0.7,0.3-1.6,0.3-2.6c0-0.3,0-0.7,0-1.1l-0.2-0.1l-1.7,0.6c0,0.5,0.1,0.9,0.1,1.3c0,1.1-0.2,1.8-0.4,2.2
		c-0.4,0.3-1,0.4-1.6,0.4c-0.6,0-1.2-0.1-1.7-0.3c0.4-0.8,0.7-1.8,1.1-2.9l-0.1-0.1l-1.9,0.3c-0.4,1.4-0.8,2.4-1.1,2.8
		c-0.3,0.2-0.8,0.3-1.2,0.3c-0.9,0-2.1-0.3-2.8-0.6c0.4-0.7,0.7-1.6,1.1-2.6l-0.1-0.1l-2,0.3c-0.4,1.3-0.7,2.1-1,2.5
		c-0.5,0.3-1.5,0.5-3,0.5h-3.1c0.7-0.6,1.2-1.8,1.2-2.6c0-1.2-0.6-2.3-2.8-4.5l-0.2,0l-1.2,1c-1.6,1.9-2.6,4.1-3,6.1h-1.2l0,0
		c0,0,0,0,0,0c-1.2,0-1.7-0.4-2.7-2.3c-0.3-0.7-2.1-4.5-2.8-6H434l-1.4,1.5c1,1.7,2.8,5.2,3.2,6l0.1,0.1c-0.8,0.6-2.5,0.9-3.9,0.9
		c-0.6,0-1.8-0.1-2.6-0.2l-0.1,0.1l-0.3,1.8c0.9,0.2,2.3,0.3,2.8,0.3c2.4,0,4-0.5,4.9-1.4c0.7,1,1.4,1.3,2.5,1.3c0,0,0,0,0,0l0,0
		h1.5c0.1,2.9,2,4.7,4.8,4.7c1.7,0,3.1-1.2,3.1-2.6c0-0.7-0.3-1.5-0.8-2.1h1.6c0,0,0,0,0,0c2.2,0,3.5-0.3,4.4-1.1
		c0.8,0.6,2.1,1.1,3.7,1.1c1,0,1.7-0.2,2.2-0.6c0.8,0.4,1.7,0.6,2.7,0.6c1.2,0,2.1-0.3,2.9-1c1,0.8,2.3,1,3.3,1v0h0.8
		c1.5,0,2.6-0.4,3.3-1.2c1,0.9,2.5,1.2,3.9,1.2v0c0,0,0,0,0,0c0,0,0,0,0,0c0,0,0,0,0,0c3,0,4.8-0.9,4.8-4.4V207l-0.2-0.1
		L479.7,207.3z M444.9,216.5c0.8,1,1.2,1.7,1.2,2.4c0,1.5-1.4,2.5-3.5,2.5C442.9,219.8,443.6,218.2,444.9,216.5z M445.7,226.1
		c-1.8,0-3-1.1-3.2-2.7c0.4-0.1,0.9-0.2,1.3-0.2c1.9,0,3.2,1,3.2,2.6C446.7,226,446.2,226.1,445.7,226.1z"/>
	<polygon class="st1" points="484.6,207.3 484.6,223.3 484.8,223.4 486.5,223 486.5,207 486.4,206.9 	"/>
	<path class="st1" d="M498.4,221.5c-0.5-0.5-0.9-1.3-0.9-1.9c0-1,0.6-1.6,1.6-1.6c0.6,0,1.3,0.2,1.9,0.4l0.5-1.7
		c-0.7-0.4-1.7-0.6-2.5-0.6c-1.8,0-3.3,1.3-3.3,3.2c0,0.8,0.3,1.6,0.7,2.3c-0.6,0-1.3,0.1-2,0.1l0.1,1.7c3.1-0.2,5-0.3,7.6-0.6
		l-0.2-1.7C501,221.3,499.8,221.4,498.4,221.5z"/>
	<path class="st1" d="M514.7,221.3c-0.9-0.9-1.4-2-1.4-3c0-1.4,0.9-2.1,2.6-2.1c0.9,0,2,0.3,2.9,0.6l0.1,0l0.2-1.7
		c-0.8-0.4-2.1-0.8-3.2-0.8c-2.6,0-4.6,1.5-4.6,4c0,1,0.4,2.1,1,3.1c-0.8,0-1.7,0-2.7,0c-2,0-2.8-0.4-2.8-2.3V207l-0.1-0.1l-1.7,0.4
		v12c0,3.1,1.8,4,4.2,4c0,0,0,0,0,0l0,0c6.1,0,8.9-0.2,10.8-0.6l0.6-1.7l-0.1-0.1C518.6,221.1,516.7,221.2,514.7,221.3z"/>
	<path class="st1" d="M526.7,213l-1,1.8c1.8,1.8,3.4,3.9,3.7,5.8c-0.5,0.6-2.4,0.9-4,0.9c-0.6,0-1.9-0.1-2.6-0.2l-0.1,0.1l-0.3,1.8
		c0.9,0.2,2.3,0.3,2.8,0.3c3.7,0,5.7-1.1,5.7-3.5c0-1.9-1.6-4.3-4.1-6.9H526.7z"/>
	<path class="st1" d="M542.5,203.8c-0.6,0.1-1.4,0.1-2.2,0.2c-0.3-0.3-0.5-0.6-0.5-1c0-0.5,0.3-0.9,0.9-0.9c0.3,0,0.7,0.1,1.1,0.2
		l0.3-1.2c-0.6-0.2-1.2-0.3-1.7-0.3c-1.2,0-2,0.7-2,1.9c0,0.5,0.2,1,0.4,1.4c-0.4,0-0.7,0-1.1,0l0.1,1.3c1.9-0.1,3.4-0.2,4.6-0.3
		L542.5,203.8z"/>
	<polygon class="st1" points="541.3,207 541.2,206.9 539.5,207.3 539.5,223.3 539.6,223.4 541.3,223 	"/>
	<path class="st1" d="M556.6,212.3c-1.9,0-3.5,2.4-3.5,4.6c0,1.7,1,2.8,3.1,2.8c1,0,1.8-0.1,2.5-0.3c0,0.6-0.1,1.2-0.2,1.5
		c-0.7,0.3-2.2,0.5-6.8,0.5l0,0c0,0,0,0,0,0c-1.6,0-1.9-0.3-2.5-1.9c-0.2-0.6-0.8-2-1.4-3.7h-0.2l-1.4,1.5c0.7,1.4,1.5,2.9,1.8,4
		c-0.5,1.9-2.2,3.7-6.8,4.6l-0.1,0.2l1,1.4c3.8-0.7,6.4-2.7,7.2-4.9c0.4,0.4,1.1,0.6,2,0.6c4.5,0,6.3-0.1,7.6-0.8
		c1.1-0.8,1.5-2.1,1.5-4.4C560.2,215.1,558.8,212.3,556.6,212.3z M556.5,217.9c-1.2,0-1.9-0.4-1.9-1.2c0-1.3,1-2.5,1.9-2.5
		c1.1,0,2.1,1.7,2.2,3.5C558,217.8,557.4,217.9,556.5,217.9z"/>
	<polygon class="st1" points="559.8,207.8 557.8,206.5 556.6,208.3 558.5,209.7 	"/>
	<polygon class="st1" points="556.4,207.8 554.4,206.5 553.3,208.3 555.2,209.7 	"/>
	<path class="st1" d="M564.1,204c-0.3-0.3-0.5-0.6-0.5-1c0-0.5,0.3-0.9,0.9-0.9c0.3,0,0.7,0.1,1.1,0.2l0.3-1.2
		c-0.6-0.2-1.2-0.3-1.7-0.3c-1.2,0-2,0.7-2,1.9c0,0.5,0.2,1,0.4,1.4c-0.4,0-0.7,0-1.1,0l0.1,1.3c1.9-0.1,3.4-0.2,4.6-0.3l-0.1-1.2
		C565.6,203.9,564.8,203.9,564.1,204z"/>
	<polygon class="st1" points="563.2,207.3 563.2,223.3 563.4,223.4 565.1,223 565.1,207 565,206.9 	"/>
	<path class="st1" d="M571.9,215.5c-1.9,0-3.5,2.4-3.5,4.6c0,1.7,1,2.8,3.1,2.8c0.9,0,1.7-0.1,2.3-0.3c-0.7,2-3.1,3.1-6.5,3.3
		l-0.1,0.2l1,1.4c5.1-0.1,7.3-3.1,7.3-6.2C575.5,218.3,574.1,215.5,571.9,215.5z M571.8,221c-1.2,0-1.9-0.4-1.9-1.2
		c0-1.3,1-2.5,1.9-2.5c1.1,0,2.1,1.7,2.2,3.5C573.3,221,572.6,221,571.8,221z"/>
	<polygon class="st1" points="614.6,212.1 612.7,210.8 611.5,212.6 613.4,214 	"/>
	<polygon class="st1" points="616.1,209.4 614.1,208.1 612.9,209.9 614.9,211.3 	"/>
	<polygon class="st1" points="616.8,214 618,212.1 616.1,210.8 614.9,212.6 	"/>
	<polygon class="st1" points="628.4,212.2 626.4,210.9 625.3,212.7 627.2,214.1 	"/>
	<polygon class="st1" points="631.8,212.2 629.8,210.9 628.6,212.7 630.5,214.1 	"/>
	<path class="st1" d="M634.3,207.3V219c0,0.9-0.1,1.5-0.2,1.9c-0.6,0.4-1.5,0.5-2.3,0.5c-2,0-2.9-0.4-3.4-0.7
		c0.5-0.9,0.8-2.2,1.1-3.7l-0.2-0.1l-1.8,0.5c-0.5,2-0.8,3.1-1.2,3.6c-0.4,0.3-1.1,0.5-1.8,0.5h-0.7c-1.5,0-2.4-0.4-2.9-0.7
		c0.2-0.7,0.3-1.6,0.3-2.6c0-0.3,0-0.7,0-1.1l-0.2-0.1l-1.7,0.6c0,0.5,0.1,0.9,0.1,1.3c0,1.1-0.2,1.8-0.4,2.2
		c-0.4,0.3-1,0.4-1.6,0.4c-0.6,0-1.2-0.1-1.7-0.3c0.4-0.8,0.7-1.8,1.1-2.9l-0.1-0.1l-1.9,0.3c-0.4,1.4-0.8,2.4-1.1,2.8
		c-0.3,0.2-0.8,0.3-1.2,0.3c-0.9,0-2.1-0.3-2.8-0.6c0.4-0.7,0.7-1.6,1.1-2.6l-0.1-0.1l-2,0.3c-0.4,1.3-0.7,2.1-1,2.5
		c-0.5,0.3-1.5,0.5-3,0.5h-3.1c0.7-0.6,1.2-1.8,1.2-2.6c0-1.2-0.6-2.3-2.8-4.5l-0.2,0l-1.2,1c-1.6,1.9-2.6,4.1-3,6.1h-1.2l0,0
		c0,0,0,0,0,0c-1.2,0-1.7-0.4-2.7-2.3c-0.3-0.7-2.1-4.5-2.8-6h-0.2l-1.4,1.5c1,1.7,2.8,5.2,3.2,6l0.1,0.1c-0.8,0.6-2.5,0.9-3.9,0.9
		c-0.6,0-1.8-0.1-2.6-0.2l-0.1,0.1l-0.3,1.8c0.9,0.2,2.3,0.3,2.8,0.3c2.4,0,4-0.5,4.9-1.4c0.7,1,1.4,1.3,2.5,1.3c0,0,0,0,0,0l0,0
		h1.5c0.1,2.9,2,4.7,4.8,4.7c1.7,0,3.1-1.2,3.1-2.6c0-0.7-0.3-1.5-0.8-2.1h1.6c0,0,0,0,0,0c2.2,0,3.5-0.3,4.4-1.1
		c0.8,0.6,2.1,1.1,3.7,1.1c1,0,1.7-0.2,2.2-0.6c0.8,0.4,1.7,0.6,2.7,0.6c1.2,0,2.1-0.3,2.9-1c1,0.8,2.3,1,3.3,1l0,0h0.8
		c1.5,0,2.6-0.4,3.3-1.2c1,0.9,2.5,1.2,3.9,1.2c0,0,0,0,0,0c0,0,0,0,0,0s0,0,0,0c3,0,4.8-0.9,4.8-4.4V207l-0.2-0.1L634.3,207.3z
		 M599.6,216.5c0.8,1,1.2,1.7,1.2,2.4c0,1.5-1.4,2.5-3.5,2.5C597.6,219.8,598.3,218.2,599.6,216.5z M600.4,226.1
		c-1.8,0-3-1.1-3.2-2.7c0.4-0.1,0.9-0.2,1.3-0.2c1.9,0,3.2,1,3.2,2.6C601.4,226,600.9,226.1,600.4,226.1z"/>
	<polygon class="st1" points="639.3,207.3 639.3,223.3 639.5,223.4 641.2,223 641.2,207 641.1,206.9 	"/>
	<polygon class="st1" points="653.4,208.4 651.5,207.1 650.3,208.9 652.2,210.3 	"/>
	<polygon class="st1" points="656.8,208.4 654.8,207.1 653.6,208.9 655.6,210.3 	"/>
	<polygon class="st1" points="689.8,226.9 691.8,228.3 693,226.4 691,225.1 	"/>
	<path class="st1" d="M689.5,215.2c-0.7,0-1.6,0.2-2.1,0.5l-0.7,1.7l0.1,0.1c0.7-0.2,1.5-0.5,2.4-0.5c1.1,0,2.1,0.3,4,1.4
		c0.7,0.4,1.2,0.7,1.7,0.9c-1,0.2-2.2,0.5-3.8,1c-2.6,0.8-3.9,1.1-5.4,1.1c-1.6,0-2.7-0.2-2.7-2.6V207l-0.2-0.1l-1.7,0.4V219
		c0,0.9-0.1,1.5-0.2,1.9c-0.6,0.4-1.5,0.5-2.3,0.5c-1.5,0-2.4-0.4-2.9-0.7c0.2-0.7,0.3-1.6,0.3-2.6c0-0.3,0-0.7,0-1.1l-0.2-0.1
		l-1.7,0.6c0,0.5,0.1,0.9,0.1,1.3c0,1.1-0.2,1.8-0.4,2.2c-0.4,0.3-1,0.4-1.6,0.4c-0.6,0-1.2-0.1-1.7-0.3c0.4-0.8,0.7-1.8,1.1-2.9
		l-0.1-0.1l-1.9,0.3c-0.4,1.4-0.8,2.4-1.1,2.8c-0.3,0.2-0.8,0.3-1.2,0.3c-0.9,0-2.1-0.3-2.8-0.6c0.4-0.7,0.7-1.6,1.1-2.6l-0.1-0.1
		l-2,0.3c-0.4,1.3-0.7,2.1-1,2.5c-0.5,0.3-1.5,0.5-3,0.5c-1.9,0-2.8-0.2-2.8-2.1v-7.4l-0.2,0l-1.7,0.8v1.2c-3.6,1.1-5.5,3.3-5.5,5.1
		c0,1.6,1.5,2.7,4,2.7c0.6,0,1.2-0.1,1.8-0.2c0.6,1.5,2,1.9,3.9,1.9c0,0,0,0,0,0l0,0c2.2,0,3.5-0.3,4.4-1.1c0.8,0.6,2.1,1.1,3.7,1.1
		c1,0,1.7-0.2,2.2-0.6c0.8,0.4,1.7,0.6,2.7,0.6c1.2,0,2.1-0.3,2.9-1c1,0.8,2.3,1,3.3,1l0,0c0,0,0,0,0,0c0,0,0,0,0,0c0,0,0,0,0,0
		c1.8,0,3.1-0.3,4-1.4c0.7,1.2,2.1,1.4,3,1.4v0c0,0,0,0,0,0c0,0,0,0,0,0c0,0,0,0,0,0c1.7,0,3.3-0.3,6.3-1.4c2.6-0.9,4.5-1.4,6.5-1.6
		l0.5-1.7c-1.2-0.1-2.5-0.6-4.6-1.8C691.7,215.6,690.6,215.2,689.5,215.2z M654.8,219.3v0.2c-0.5,0.1-0.9,0.1-1.4,0.1
		c-1,0-2.3-0.4-2.6-1.2c0.3-1,1.8-2.1,4-2.8V219.3z"/>
	<path class="st1" d="M743,215.2c-0.7,0-1.6,0.2-2.1,0.5l-0.7,1.7l0.1,0.1c0.7-0.2,1.5-0.5,2.4-0.5c1.1,0,2.1,0.3,4,1.4
		c0.7,0.4,1.2,0.7,1.7,0.9c-1,0.2-2.2,0.5-3.8,1c-2.6,0.8-3.9,1.1-5.4,1.1c-1.6,0-2.7-0.2-2.7-2.6V207l-0.2-0.1l-1.7,0.4V219
		c0,0.9-0.1,1.5-0.2,1.9c-0.6,0.4-1.5,0.5-2.3,0.5c-1.5,0-2.4-0.4-2.9-0.7c0.2-0.7,0.3-1.6,0.3-2.6c0-0.3,0-0.7,0-1.1l-0.2-0.1
		l-1.7,0.6c0,0.5,0.1,0.9,0.1,1.2c0,1.2-0.2,1.9-0.4,2.2c-0.4,0.3-1,0.4-1.6,0.4c-0.6,0-1.2-0.1-1.7-0.3c0.4-0.8,0.7-1.8,1.1-3
		l-0.1-0.1l-1.9,0.3c-0.5,1.4-0.8,2.4-1.1,2.8c-0.3,0.2-0.8,0.3-1.2,0.3c-0.9,0-1.6-0.4-2-1.3c-0.5-1-0.9-2.4-1.2-3.2h-0.1l-1.7,1.2
		c0.7,1.7,1.3,3.1,1.3,4.4c0,0.5-0.1,1.1-0.3,1.6c-0.7,0.9-1.9,1.8-4.6,1.8c-3.3,0-4.2-1.6-4.2-4c0-0.6,0.1-1.4,0.2-2.2l-0.2-0.1
		l-1.5,0.5c-0.2,0.6-0.4,1.7-0.4,2.7c0,2.9,1.9,4.9,5.7,4.9c3.6,0,6.4-1.7,6.9-5.1c0.6,0.4,1.3,0.6,1.9,0.6c1,0,1.7-0.2,2.2-0.6
		c0.7,0.4,1.7,0.6,2.7,0.6c1.2,0,2.1-0.3,2.8-1c1,0.8,2.3,1,3.3,1l0,0c0,0,0,0,0,0c0,0,0,0,0,0c0,0,0,0,0,0c1.8,0,3.1-0.3,4-1.4
		c0.7,1.2,2.1,1.4,3,1.4v0c0,0,0,0,0,0c0,0,0,0,0,0c0,0,0,0,0,0c1.7,0,3.3-0.3,6.3-1.4c2.6-0.9,4.5-1.4,6.5-1.6l0.5-1.7
		c-1.2-0.1-2.5-0.6-4.6-1.8C745.2,215.6,744.1,215.2,743,215.2z"/>
	<polygon class="st1" points="743.3,226.9 745.2,228.3 746.5,226.4 744.5,225.1 	"/>
	<polygon class="st1" points="754.3,207.3 754.3,223.3 754.4,223.4 756.1,223 756.1,207 756,206.9 	"/>
	<path class="st1" d="M755.1,204c-0.3-0.3-0.5-0.6-0.5-1c0-0.5,0.3-0.9,0.9-0.9c0.3,0,0.7,0.1,1.1,0.2l0.3-1.2
		c-0.6-0.2-1.2-0.3-1.7-0.3c-1.2,0-2,0.7-2,1.9c0,0.5,0.2,1,0.4,1.4c-0.4,0-0.7,0-1.1,0l0.1,1.3c1.9-0.1,3.4-0.2,4.6-0.3l-0.1-1.2
		C756.6,203.9,755.9,203.9,755.1,204z"/>
	<path class="st1" d="M762.9,215.5c-1.9,0-3.5,2.4-3.5,4.6c0,1.7,1,2.8,3.1,2.8c0.9,0,1.7-0.1,2.3-0.3c-0.7,2-3.1,3.1-6.5,3.3
		l-0.1,0.2l1,1.4c5.1-0.1,7.3-3.1,7.3-6.2C766.5,218.3,765.1,215.5,762.9,215.5z M762.8,221c-1.2,0-1.9-0.4-1.9-1.2
		c0-1.3,1-2.5,1.9-2.5c1.1,0,2.1,1.7,2.2,3.5C764.3,221,763.7,221,762.8,221z"/>
	<path class="st1" d="M778.9,213l-1,1.8c1.8,1.8,3.4,3.9,3.7,5.8c-0.5,0.6-2.4,0.9-4,0.9c-0.6,0-1.9-0.1-2.6-0.2l-0.1,0.1l-0.3,1.8
		c0.9,0.2,2.3,0.3,2.8,0.3c3.7,0,5.7-1.1,5.7-3.5c0-1.9-1.6-4.3-4.1-6.9H778.9z"/>
	<polygon class="st1" points="799,226.9 800.9,228.3 802.2,226.4 800.2,225.1 	"/>
	<path class="st1" d="M831,207.3V219c0,0.9-0.1,1.5-0.2,1.9c-0.6,0.4-1.5,0.5-2.3,0.5c-1.5,0-2.4-0.4-2.9-0.7
		c0.2-0.7,0.3-1.6,0.3-2.6c0-0.3,0-0.7,0-1.1l-0.2-0.1l-1.7,0.6c0,0.5,0.1,0.9,0.1,1.3c0,1.1-0.2,1.8-0.4,2.2
		c-0.4,0.3-1,0.4-1.6,0.4c-0.6,0-1.2-0.1-1.7-0.3c0.4-0.8,0.7-1.8,1.1-2.9l-0.1-0.1l-1.9,0.3c-0.4,1.4-0.8,2.4-1.1,2.8
		c-0.3,0.2-0.8,0.3-1.2,0.3c-0.9,0-2.1-0.3-2.8-0.6c0.4-0.7,0.7-1.6,1.1-2.6l-0.1-0.1l-2,0.3c-0.4,1.3-0.7,2.1-1,2.5
		c-0.5,0.3-1.5,0.5-3,0.5c-2.1,0-3.3-0.2-4-0.9c0.6-0.1,1.2-0.2,1.8-0.3l0.4-1.7c-1.1-0.1-2.3-0.5-4.7-1.8c-2-1.1-3.2-1.6-4.2-1.6
		c-0.7,0-1.6,0.2-2.1,0.5l-0.7,1.8l0.1,0.1c0.7-0.3,1.5-0.5,2.4-0.5c1.1,0,2.1,0.4,4,1.4c0.7,0.4,1.2,0.6,1.7,0.8
		c-1.1,0.2-2.3,0.5-3.8,1c-2.5,0.8-3.8,1.1-5.4,1.1l0,0c0,0,0,0,0,0h-1.9v-0.1c0-3.1-1.5-5.7-3.6-5.7c-1.9,0-3.5,2.4-3.5,4.7
		c0,1.9,1.4,3.1,4.4,3.1h0.7c-1,1.6-3.2,2.5-6.1,2.7l-0.1,0.2l1,1.4c4-0.1,6.2-2,7-4.2h1.8c0,0,0,0,0,0l0,0c1.8,0,3.3-0.3,6.4-1.4
		c1-0.4,1.9-0.6,2.7-0.9c0.8,1.5,2.2,2.3,5.4,2.3l0,0c0,0,0,0,0,0c0,0,0,0,0,0c0,0,0,0,0,0c2.2,0,3.5-0.3,4.4-1.1
		c0.8,0.6,2.1,1.1,3.7,1.1c1,0,1.7-0.2,2.2-0.6c0.8,0.4,1.7,0.6,2.7,0.6c1.2,0,2.1-0.3,2.9-1c1,0.8,2.3,1,3.3,1l0,0c0,0,0,0,0,0
		c0,0,0,0,0,0c0,0,0,0,0,0c3,0,4.8-0.9,4.8-4.4V207l-0.2-0.1L831,207.3z M791.3,221.4h-1c-2.2,0-3.1-0.5-3.1-1.4
		c0-1.6,1-2.6,1.9-2.6c1.1,0,2.2,1.8,2.2,3.8V221.4z"/>
	<polygon class="st1" points="836,207.3 836,223.3 836.1,223.4 837.8,223 837.9,207 837.7,206.9 	"/>
	<polygon class="st1" points="853.8,213.8 851.9,212.5 850.6,214.3 852.6,215.7 	"/>
	<path class="st1" d="M867.7,215.5c-2.2,0-3.4,2.9-4.3,4.3c-0.6,1.1-1.1,1.5-2.2,1.5l0,0c-0.1,0-0.1,0-0.2,0c-1,0-1.7-0.4-2.2-1.4
		c-0.5-0.9-0.9-2.4-1.2-3.2h-0.1l-1.7,1.2c1.1,2.4,1.8,4.2,1,6c-0.7,0.9-1.9,1.8-4.6,1.8c-3.3,0-4.2-1.6-4.2-4
		c0-0.6,0.1-1.4,0.2-2.2l-0.2-0.1l-1.5,0.5c-0.2,0.6-0.4,1.7-0.4,2.7c0,2.9,1.9,4.9,5.7,4.9c3.6,0,6.4-1.7,6.9-5.1
		c0.6,0.4,1.3,0.6,1.9,0.6c0,0,0,0,0,0l0,0c1.7,0,2.8-0.4,3.6-1.5c1.7,1.2,3.6,1.8,4.8,1.8c1.6,0,2.4-1,2.4-2.6
		C871.8,218.2,870,215.5,867.7,215.5z M869.9,221.4c-0.3,0.2-0.7,0.3-1,0.3c-0.7,0-2.1-0.5-3.5-1.4c1-1.8,1.5-2.9,2.4-2.9
		C869,217.4,870.1,220.3,869.9,221.4z"/>
	<path class="st1" d="M890.9,207.3v13.1c0,1.9-0.3,3.1-0.6,3.7c-1,1.2-2.4,1.7-4.4,1.7c-3.3,0-4.2-1.6-4.2-4c0-0.6,0.1-1.4,0.2-2.2
		l-0.2-0.1l-1.5,0.5c-0.2,0.6-0.4,1.7-0.4,2.7c0,2.9,1.9,4.9,5.7,4.9c4.7,0,7.2-2.1,7.2-7.5l0-13.2l-0.2-0.1L890.9,207.3z"/>
	<polygon class="st1" points="910.5,212.2 908.6,210.9 907.4,212.7 909.4,214.1 	"/>
	<polygon class="st1" points="913.9,212.2 912,210.9 910.8,212.7 912.7,214.1 	"/>
	<path class="st1" d="M919.2,221.3c-0.9-0.9-1.4-2-1.4-3c0-1.4,0.9-2.1,2.6-2.1c0.9,0,2,0.3,2.9,0.6l0.1,0l0.2-1.7
		c-0.8-0.4-2.1-0.8-3.2-0.8c-2.6,0-4.6,1.5-4.6,4c0,1,0.4,2.1,1,3.1c-0.8,0-1.7,0-2.6,0c-2,0-2.9-0.4-3.4-0.7
		c0.5-0.9,0.8-2.2,1.1-3.7l-0.2-0.1l-1.8,0.5c-0.5,2-0.8,3.1-1.2,3.6c-0.4,0.3-1.1,0.5-1.8,0.5H906l0,0c0,0,0,0,0,0
		c-1.2,0-1.7-0.4-2.7-2.3c-0.3-0.7-2.1-4.5-2.8-6h-0.2l-1.4,1.5c1,1.7,2.8,5.2,3.2,6l0.1,0.1c-0.8,0.6-2.5,0.9-3.9,0.9
		c-0.6,0-1.8-0.1-2.6-0.2l-0.1,0.1l-0.3,1.8c0.9,0.2,2.3,0.3,2.8,0.3c2.4,0,4-0.5,4.9-1.4c0.7,1,1.4,1.3,2.5,1.3c0,0,0,0,0,0l0,0
		h0.8c1.5,0,2.6-0.4,3.3-1.2c1,0.9,2.5,1.2,3.9,1.2c0,0,0,0,0,0c0,0,0,0,0,0c6.1,0,8.9-0.2,10.8-0.6l0.6-1.7l-0.1-0.1
		C923.1,221.1,921.2,221.2,919.2,221.3z"/>
	<path class="st1" d="M930.7,203.8c-0.6,0.1-1.4,0.1-2.2,0.2c-0.3-0.3-0.5-0.6-0.5-1c0-0.5,0.3-0.9,0.9-0.9c0.3,0,0.7,0.1,1.1,0.2
		l0.3-1.2c-0.6-0.2-1.2-0.3-1.7-0.3c-1.2,0-2,0.7-2,1.9c0,0.5,0.2,1,0.4,1.4c-0.4,0-0.7,0-1.1,0l0.1,1.3c1.9-0.1,3.4-0.2,4.6-0.3
		L930.7,203.8z"/>
	<polygon class="st1" points="927.7,207.3 927.7,223.3 927.8,223.4 929.5,223 929.5,207 929.4,206.9 	"/>
</g>
<linearGradient id="SVGID_2_" gradientUnits="userSpaceOnUse" x1="505.4598" y1="429.1229" x2="1023.9998" y2="429.1229">
	<stop  offset="0.1199" style="stop-color:#FFFFFF"/>
	<stop  offset="0.9969" style="stop-color:#FEF1D4"/>
</linearGradient>
<rect x="505.5" y="289.1" class="st2" width="518.5" height="280"/>
<g>
	<path class="st3" d="M546.8,339.2c1.6,0,2.5-1.3,2.5-2.5c0-1.9-1.6-1.7-1.6-3c0-0.9,0.8-2.2,1.7-3.4l-2-1.2c-1.9,2.3-3.2,4.6-3.2,7
		C544.2,338,545.1,339.2,546.8,339.2z"/>
	<path class="st3" d="M562.5,339.4h2c4.1,0,7.6-0.5,9.2-1.4c1.7-1,2.5-3.1,2.5-5c0-1.4-0.4-3.7-1.5-6.3h-0.4l-3.3,2.6
		c1.1,2.4,1.7,4.3,1.7,5.4c-1.2,0.4-4.1,0.7-7.1,0.7h-1.8c-6.3,0-8.8-0.9-8.8-4.2c0-0.8,0.1-1.7,0.3-2.7l-0.3-0.2l-2.8,1.1
		c-0.4,1.3-0.6,2.5-0.6,3.9C551.6,337.3,555.5,339.4,562.5,339.4z"/>
	<polygon class="st3" points="564,324.2 567.1,326.4 569.2,323.4 565.9,321.1 564.4,323.3 561.3,321.1 559.3,324.1 562.6,326.4 	"/>
	<path class="st3" d="M586.2,339h0.6c2.3,0,3.9-0.5,5.1-1.5c1.3,1,3.4,1.5,5,1.5c0,0,0,0,0,0l0,0h1.1c2,0,3.5-0.5,4.7-1.5
		c1.2,1,3.4,1.5,5.8,1.5l0,0h7.8c4.1,0,6.3-0.2,8.1-1.3c1.3,0.9,3.2,1.3,4.7,1.3c0,0,0,0,0,0l0,0c4.8,0,7.6-1.4,7.6-7v-15l-0.3-0.2
		l-3.7,1v14.4c0,1.1-0.1,1.9-0.2,2.4c-0.6,0.3-1.7,0.4-2.6,0.4c-1.2,0-2.3-0.2-3.1-0.4c0.2-0.6,0.3-1.2,0.3-1.9
		c0-2.6-1.8-5.6-4.9-5.6c-1.8,0-3.8,1.1-6.4,3.3l0.1-13.3l-0.3-0.2l-3.7,1v16c-0.4,0.4-0.8,0.7-1.2,1.2h-1.3l0,0c0,0,0,0,0,0
		c-2.1,0-3.6-0.3-4.5-0.6c0.6-1.4,1.1-3.1,1.5-5l-0.3-0.2l-4.1,1c-0.4,2.1-0.8,3.7-1.1,4.5c-0.4,0.3-1.4,0.4-2.2,0.4h-0.7l0,0
		c0,0,0,0,0,0c-1.5,0-2.7-0.3-3.6-0.6c0.6-1.4,1.1-3.1,1.5-5l-0.3-0.2l-4.1,1c-0.4,2.1-0.8,3.7-1.1,4.5c-0.4,0.3-1.3,0.4-2.5,0.4
		H587c-2.3,0-3.2-0.6-3.2-2.8v-15.2l-0.3-0.2l-3.7,1v14.7C579.8,337.1,581.9,339,586.2,339z M621.7,330.8c1.3,0,2.2,1.4,2.2,2.5
		c0,0.5-0.1,1-0.3,1.2c-0.8,0.4-2,0.4-6.5,0.4h-2.4C617.7,332.4,620.2,330.8,621.7,330.8z"/>
	<polygon class="st3" points="589.1,344.5 592.5,346.9 594.6,343.7 591.2,341.4 	"/>
	<polygon class="st3" points="602.5,344.5 605.6,346.7 607.6,343.6 604.3,341.4 602.9,343.6 599.7,341.4 597.7,344.4 601,346.7 	"/>
	<polygon class="st3" points="644.5,338.5 644.6,317.1 644.3,316.9 640.5,317.9 640.5,339.1 640.8,339.3 	"/>
	<path class="st3" d="M658.9,335.8c0-4.4-2-8.2-5.4-8.2c-3,0-5.3,3.6-5.3,6.6c0,2.3,1.4,3.8,4.4,3.8c1,0,1.8-0.1,2.6-0.2
		c-1.2,2.1-4.1,3.4-8.5,3.4l-0.2,0.4l1.9,3C655.5,344.7,658.9,340.2,658.9,335.8z M653.4,334.7c-1.5,0-2.1-0.3-2.1-1
		c0-1,0.9-2.2,2-2.2c1.2,0,2.1,1.4,2.4,3C654.9,334.6,654.2,334.7,653.4,334.7z"/>
	<path class="st3" d="M679.9,339.4h2c4.1,0,7.6-0.5,9.2-1.4c1.7-1,2.5-3.1,2.5-5c0-1.4-0.4-3.7-1.5-6.3h-0.4l-3.3,2.6
		c1.1,2.4,1.7,4.3,1.7,5.4c-1.2,0.4-4.1,0.7-7.1,0.7h-1.8c-6.3,0-8.8-0.9-8.8-4.2c0-0.8,0.1-1.7,0.3-2.7l-0.3-0.2l-2.8,1.1
		c-0.4,1.3-0.6,2.5-0.6,3.9C669,337.3,672.8,339.4,679.9,339.4z"/>
	<polygon class="st3" points="681.3,324.2 684.5,326.4 686.5,323.4 683.2,321.1 681.8,323.3 678.7,321.1 676.6,324.1 679.9,326.4 	
		"/>
	<polygon class="st3" points="701.1,338.5 701.2,317.1 700.9,316.9 697.2,317.9 697.2,339.1 697.4,339.3 	"/>
	<path class="st3" d="M714.9,339h2c0,0,0,0,0.1,0l0,0c3.2,0,4.8-0.4,5.9-1.8c1.1,1.5,2.8,1.8,4,1.8c1.9,0,3.2-0.3,4.3-1
		c2.1,0.9,3.9,1,7.3,1h3.4c4.1,0,6.3-0.2,8.1-1.3c1.3,0.9,3.2,1.3,4.7,1.3c0,0,0,0,0,0l0,0c4.8,0,7.6-1.4,7.6-7v-15l-0.3-0.2l-3.7,1
		v14.4c0,1.1-0.1,1.9-0.2,2.4c-0.6,0.3-1.7,0.4-2.6,0.4l0,0c0,0,0,0,0,0c-1.2,0-2.3-0.2-3.2-0.4c0.2-0.6,0.3-1.2,0.3-1.9
		c0-2.6-1.8-5.6-4.9-5.6c-2.9,0-6.2,2.8-11.6,7.9c-1,0-1.8-0.1-2.6-0.3c0.5-1,0.9-2.2,1.4-3.7l-0.1-0.1l-4.3,0.6
		c-0.3,1.4-0.5,2.6-0.8,3.3c-0.4,0.2-1.4,0.3-2.1,0.3l0,0c0,0,0,0,0,0c-2.4,0-3.2-0.4-3.2-2.8v-15.2l-0.3-0.2l-3.7,1v14.4
		c0,1.1-0.1,1.9-0.2,2.4c-0.6,0.3-1.7,0.4-2.6,0.4l0,0c0,0,0,0-0.1,0h-2.2c-0.2-4.1-2.3-7.4-5.4-7.4c-3,0-5.3,3.6-5.3,6.7
		c0,2.9,2,4.7,6.3,4.7c-1.4,1.5-4,2.2-7.9,2.3l-0.2,0.4l1.9,3C710.3,344.7,713.6,342.2,714.9,339z M747.3,330.8
		c1.3,0,2.1,1.4,2.1,2.5c0,0.5-0.1,1-0.3,1.2c-0.9,0.4-2,0.4-5.8,0.4h-3.1C743.3,332.4,745.8,330.8,747.3,330.8z M711.1,335
		c-2.3,0-3.2-0.4-3.2-1.3c0-1.1,0.9-2.2,2-2.2c1.2,0,2.3,1.6,2.4,3.6H711.1z"/>
	<polygon class="st3" points="770.1,338.5 770.2,317.1 769.9,316.9 766.2,317.9 766.2,339.1 766.4,339.3 	"/>
	<path class="st3" d="M784.5,335.8c0-4.4-2-8.2-5.4-8.2c-3,0-5.3,3.6-5.3,6.6c0,2.3,1.4,3.8,4.4,3.8c1,0,1.8-0.1,2.6-0.2
		c-1.2,2.1-4.1,3.4-8.5,3.4l-0.2,0.4l1.9,3C781.1,344.7,784.5,340.2,784.5,335.8z M779,334.7c-1.5,0-2.1-0.3-2.1-1
		c0-1,0.9-2.2,2-2.2c1.2,0,2.1,1.4,2.4,3C780.5,334.6,779.8,334.7,779,334.7z"/>
	<path class="st3" d="M799.8,337.4c1,0,2-0.2,3-0.5c1.1,1.5,2.8,2.1,5.2,2.1c0,0,0,0,0.1,0l0,0c3.2,0,4.8-0.4,5.9-1.8
		c1.1,1.5,2.8,1.8,4,1.8c4.8,0,7.6-1.4,7.6-7v-15l-0.3-0.2l-3.7,1v14.4c0,1.1-0.1,1.9-0.2,2.4c-0.6,0.3-1.7,0.4-2.6,0.4l0,0
		c0,0,0,0,0,0c-2.4,0-3.2-0.4-3.2-2.8v-15.2l-0.3-0.2l-3.7,1v14.4c0,1.1-0.1,1.9-0.2,2.4c-0.6,0.3-1.7,0.4-2.6,0.4l0,0c0,0,0,0,0,0
		c-2.4,0-3-0.5-3-2.2v-9.6l-0.3-0.1l-3.7,1.4v1.5c-5,1.7-7.7,4.6-7.7,7.3C794.1,335.8,796.3,337.4,799.8,337.4z M801.8,329.8v3v0.6
		c-0.5,0.1-1,0.1-1.6,0.1c-1.2,0-2.5-0.4-2.8-1.3C797.8,331.3,799.6,330.3,801.8,329.8z"/>
	<polygon class="st3" points="848.3,324.2 851.5,326.4 853.5,323.4 850.2,321.1 848.8,323.3 845.7,321.1 843.6,324.1 846.9,326.4 	
		"/>
	<path class="st3" d="M846.9,339.4h2c4.1,0,7.6-0.5,9.2-1.4c1.7-1,2.5-3.1,2.5-5c0-1.4-0.4-3.7-1.5-6.3h-0.4l-3.3,2.6
		c1.1,2.4,1.7,4.3,1.7,5.4c-1.2,0.4-4.1,0.7-7.1,0.7h-1.8c-6.3,0-8.8-0.9-8.8-4.2c0-0.8,0.1-1.7,0.3-2.7l-0.3-0.2l-2.8,1.1
		c-0.4,1.3-0.6,2.5-0.6,3.9C836,337.3,839.8,339.4,846.9,339.4z"/>
	<path class="st3" d="M870.5,339C870.5,339,870.5,339,870.5,339L870.5,339h1.1c2,0,3.5-0.5,4.7-1.5c1.2,1,3.4,1.5,5.8,1.5l0,0
		c0,0,0,0,0,0c0,0,0,0,0,0c0,0,0,0,0,0c3.5,0,6.4-0.7,10.8-2.9l1.2-0.6c1.2,2.2,3.1,3.5,8.2,3.5l0,0h1.1c2,0,3.5-0.5,4.7-1.5
		c1.2,1,3.4,1.5,5.8,1.5l0,0c0,0,0,0,0,0c0,0,0,0,0,0c0,0,0,0,0,0c4.7,0,7.6-1.4,7.6-7v-15l-0.3-0.2l-3.7,1v14.4
		c0,1.1-0.1,1.9-0.2,2.4c-0.6,0.3-1.7,0.4-2.6,0.4l0,0c0,0,0,0,0,0c-2.1,0-3.6-0.3-4.5-0.6c0.6-1.4,1.1-3.1,1.5-5l-0.3-0.2l-4.1,1
		c-0.4,2.1-0.8,3.7-1.1,4.5c-0.4,0.3-1.4,0.4-2.2,0.4h-0.7c-3.1,0-4.7-0.2-5.8-0.8c1-0.3,1.9-0.4,2.7-0.4l0.7-3.6
		c-2.2,0-4.3-0.5-7.6-2.1c-2.5-1.2-3.8-1.5-4.9-1.5c-1.1,0-2.2,0.3-2.9,0.7l-1.4,3.6l0.2,0.1c1.1-0.3,2.2-0.6,3.7-0.6
		c1.4,0,2.8,0.4,5.3,1.6c0.4,0.2,0.8,0.4,1.1,0.5c-0.7,0.2-1.5,0.5-2.5,0.9c-3.7,1.3-5.6,1.7-8.8,1.7c-2.1,0-3.6-0.3-4.5-0.6
		c0.6-1.4,1.1-3.1,1.5-5l-0.3-0.2l-4.1,1c-0.4,2.1-0.8,3.7-1.1,4.5c-0.4,0.3-1.4,0.4-2.2,0.4h-0.7c-2.3,0-3.2-0.6-3.2-2.8v-15.2
		l-0.3-0.2l-3.7,1v14.7C864.2,337.1,866.3,339,870.5,339z"/>
	<polygon class="st3" points="876.1,344.5 879.2,346.7 881.2,343.6 878,341.4 876.5,343.6 873.4,341.4 871.3,344.4 874.6,346.7 	"/>
	<polygon class="st3" points="909,323.9 912.1,326.1 914.2,323 910.9,320.8 909.4,322.9 906.3,320.8 904.3,323.8 907.6,326.1 	"/>
	<polygon class="st3" points="929.3,338.5 929.4,317.1 929,316.9 925.3,317.9 925.3,339.1 925.6,339.3 	"/>
	<path class="st3" d="M460.6,379.1c-1.8,2.3-3.1,4.6-3.1,7c0,1.9,0.9,3.1,2.5,3.1c1.5,0,2.4-1.3,2.4-2.5c0-1.9-1.5-1.7-1.5-3
		c0-0.9,0.7-2.2,1.6-3.4L460.6,379.1z"/>
	<polygon class="st3" points="481.9,372 484.8,374.2 486.8,371.1 483.7,368.9 482.3,371 479.3,368.9 477.4,371.9 480.5,374.2 	"/>
	<path class="st3" d="M483.7,376.8h-0.3l-3,2.6c1,2.1,1.9,4.3,1.7,5.5c-0.5,0.2-1.8,0.3-2.9,0.3h-0.9l0,0c0,0,0,0,0,0
		c-2.3,0-2.9-0.5-2.9-2.2v-9.6l-0.3-0.1l-3.5,1.4v1.5c-4.8,1.7-7.3,4.6-7.3,7.3c0,2.5,2.1,4.1,5.4,4.1c1,0,1.9-0.2,2.8-0.5
		c1,1.5,2.7,2.1,4.9,2.1c0,0,0,0,0.1,0l0,0h1c3,0,4.4-0.4,5.4-1.4c1.1-1.1,1.6-2.6,1.6-4.3C485.4,381.8,484.7,379,483.7,376.8z
		 M471.5,382.8v0.6c-0.5,0.1-0.9,0.1-1.5,0.1c-1.1,0-2.4-0.4-2.7-1.3c0.4-1,2.1-1.9,4.2-2.5V382.8z"/>
	<path class="st3" d="M494.8,389L494.8,389l3,0c6.3,0,8.5-2.3,8.5-5.5c0-1.8-0.9-3.7-5.8-7.2l6.4-3.4l1.2-4.8l-0.3-0.2l-10.5,5.7
		l-0.9,4.5l0.2,0.2c2.9,2,6.5,4.4,6.5,5.9c-0.8,0.4-3.2,0.8-5.6,0.8h-2c-2.2,0-3-0.6-3-2.8v-15.2l-0.3-0.2l-3.5,1v14.7
		C488.8,387.1,490.8,389,494.8,389C494.8,389,494.8,389,494.8,389z"/>
	<path class="st3" d="M506,391.6l-0.2,0.3l2,2.9c4.5-0.8,8-3.1,9.1-6.3c0.6,0.3,1.4,0.5,2.5,0.5c0,0,0,0,0,0l0,0h0.4
		c3,0,4.4-0.4,5.4-1.4c1.1-1.2,1.6-2.6,1.6-4.3c0-1.5-0.7-4.3-1.7-6.6h-0.3l-3.1,2.6c1,2.1,1.9,4.3,1.7,5.5
		c-0.5,0.2-1.8,0.3-2.9,0.3h-0.3l0,0c0,0,0,0,0,0c-2.1,0-2.7-0.4-3.6-2.8l-1.3-3.9H515l-2.7,3.3c0.8,1.7,1.6,3.5,2.2,5.1
		C513.6,388.7,510.8,390.8,506,391.6z"/>
	<polygon class="st3" points="521.3,394.5 524.5,396.9 526.5,393.7 523.3,391.4 	"/>
	<path class="st3" d="M540.2,385.8c0-4.4-1.9-8.2-5.1-8.2c-2.9,0-5,3.6-5,6.6c0,2.3,1.3,3.8,4.2,3.8c0.9,0,1.7-0.1,2.4-0.2
		c-1.1,2.1-3.9,3.4-8.1,3.4l-0.2,0.4l1.8,3C537,394.7,540.2,390.2,540.2,385.8z M534.9,384.7c-1.4,0-2-0.3-2-1c0-1,0.8-2.2,1.9-2.2
		c1.1,0,2,1.4,2.2,3C536.4,384.6,535.7,384.7,534.9,384.7z"/>
	<polygon class="st3" points="582.1,389.1 582.4,389.3 585.9,388.5 585.9,367.1 585.6,366.9 582.1,367.9 	"/>
	<path class="st3" d="M554.7,387.4c1,0,1.9-0.2,2.8-0.5c0.9,1.4,2.5,2,4.6,2.1h0.2c0,0,0.1,0,0.1,0h0.2c2.7,0,4.2-0.5,5.2-1.8
		c0.9,1.3,2.3,1.8,3.5,1.8h0.2c0,0,0.1,0,0.1,0h0.2c4.2-0.1,6.7-1.6,6.7-7v-15l-0.3-0.2l-3.5,1v14.4c0,1.1-0.1,1.9-0.2,2.4
		c-0.6,0.3-1.5,0.4-2.3,0.4c-2.1,0-2.8-0.4-2.8-2.8v-11.7l-0.3-0.2l-3.5,1v10.9c0,1.1-0.1,1.9-0.2,2.4c-0.6,0.3-1.5,0.4-2.3,0.4
		c-2.2,0-2.7-0.6-2.7-2.2v-9.6l-0.3-0.1l-3.5,1.4v1.5c-4.8,1.7-7.3,4.6-7.3,7.3C549.3,385.8,551.4,387.4,554.7,387.4z M556.6,379.8
		v3v0.6c-0.5,0.1-0.9,0.1-1.5,0.1c-1.1,0-2.4-0.4-2.7-1.3C552.8,381.3,554.5,380.3,556.6,379.8z"/>
	<path class="st3" d="M563.2,363.8c-0.2,0.6-0.3,1.5-0.3,1.9c0,1.5,0.7,2.8,2.8,2.8c0.8,0,1.6-0.3,2-0.8c0.3,0.4,1,0.8,1.8,0.8
		c2,0,2.9-1.4,2.9-3.3c0-1-0.2-1.8-0.5-2.5l-2.1,0.5c0.2,0.6,0.3,1.2,0.3,1.8c0,0.7-0.2,1.2-0.7,1.2c-0.5,0-0.8-0.3-0.8-1.1
		c0-0.3,0-0.7,0-1.3l-1.9,0.2c0,1.9-0.2,2.3-0.8,2.3c-0.5,0-0.7-0.3-0.7-1.1c0-0.3,0-0.9,0.1-1.4L563.2,363.8z"/>
	<rect x="566.2" y="357.8" class="st3" width="2.7" height="4.1"/>
	<polygon class="st3" points="600,371 601.4,368.8 604.3,371 606.3,367.9 603.2,365.6 601.8,367.8 598.8,365.6 596.9,368.7 	"/>
	<path class="st3" d="M613.6,387.2c2,1.5,4.1,2.2,5.4,2.2c1.2,0,2-0.5,2.6-1.5c0.9,0.8,1.8,1.1,3.1,1.1c0,0,0,0,0,0l0,0
		c2.3,0,4.4-0.4,8.6-2c3.1-1.1,6-1.9,8.1-2.1l1-3.8c-1.4-0.1-2.9-0.6-6.2-2.3c-3.1-1.6-4.3-2.1-5.7-2.1c-1,0-2.1,0.3-2.8,0.7
		l-1.3,3.5l0.2,0.2c1-0.3,2.1-0.6,3.5-0.6c1.3,0,2.6,0.4,5,1.8c0.5,0.3,1,0.5,1.5,0.7c-0.9,0.2-1.9,0.5-3.2,0.9
		c-3.9,1.1-5.6,1.2-7.9,1.2l0,0c0,0,0,0,0,0c-1.8,0-2.3-0.5-3.3-2.6c-1.3-2.7-2.4-4.8-4.7-4.8c-2.5,0-4,2.8-5.7,5.8
		c-0.7,1.3-1.1,1.5-2.4,1.5l0,0c0,0,0,0,0,0c-2.3,0-2.9-0.5-2.9-2.2v-9.6l-0.3-0.1l-3.5,1.4v1.5c-4.8,1.7-7.3,4.6-7.3,7.3
		c0,2.5,2.1,4.1,5.4,4.1c1,0,1.9-0.2,2.8-0.5c1,1.5,2.7,2.1,4.9,2.1c0,0,0,0,0.1,0l0,0C610.8,389,612.4,388.9,613.6,387.2z
		 M617.4,381.5c0.6,0,1.5,1.1,2.4,3.4l0.1,0.2c-0.3,0.4-0.7,0.6-1.4,0.6c-0.9,0-2.1-0.6-3.3-1.4C616,382.6,616.7,381.5,617.4,381.5z
		 M602.6,382.8v0.6c-0.5,0.1-0.9,0.1-1.5,0.1c-1.1,0-2.4-0.4-2.7-1.3c0.4-1,2.1-1.9,4.2-2.5V382.8z"/>
	<path class="st3" d="M639.8,391.6l-0.2,0.3l2,2.9c4-0.7,7.4-2.7,8.7-5.2c0.6-1.2,0.9-2.5,0.9-3.7c0-2-0.7-5.1-2-7.7h-0.3l-2.7,3.2
		c1.1,2,2.1,4.4,2.2,5.5C648.3,388.2,644.8,390.7,639.8,391.6z"/>
	<path class="st3" d="M659.5,377.7c-2.9,0-5,3.6-5,6.6c0,2.3,1.3,3.8,4.2,3.8c0.9,0,1.7-0.1,2.4-0.2c-1.1,2.1-3.9,3.4-8.1,3.4
		l-0.2,0.4l1.8,3c6.9-0.1,10.1-4.5,10.1-8.9C664.6,381.4,662.7,377.7,659.5,377.7z M659.4,384.7c-1.4,0-2-0.3-2-1
		c0-1,0.8-2.2,1.9-2.2c1.1,0,2,1.4,2.2,3C660.8,384.6,660.2,384.7,659.4,384.7z"/>
	<polygon class="st3" points="686.2,402.6 688.2,399.6 685.1,397.3 683.7,399.5 680.7,397.3 678.8,400.3 681.9,402.6 683.3,400.4 	
		"/>
	<path class="st3" d="M698.2,385h-0.5l0,0c0,0,0,0,0,0c-2.9,0-5.3-1-8.5-1.9l-1.1,3.8c3.3,0.9,4.2,1.4,4.2,2.2
		c-1,1.2-4.6,1.9-8.2,1.9c-4.8,0-6.2-1.8-6.2-4.6c0-0.7,0.1-1.4,0.3-2.8l-0.3-0.2l-3.1,1.1c-0.3,1.1-0.5,2.5-0.5,3.6
		c0,3.8,2.9,6.8,9.2,6.8c6.7,0,11.6-2.1,12.1-6h1.3c0,0,0,0,0,0l0,0h0.6c2.2,0,3.7-0.5,4.9-1.5c1.2,1,3.2,1.5,4.7,1.5h0.6
		c2.2,0,3.7-0.5,4.9-1.5c1.2,1,3.2,1.5,4.7,1.5c0,0,0,0,0,0l0,0c4.5,0,7.3-1.4,7.3-7v-15l-0.3-0.2l-3.5,1v14.4
		c0,1.1-0.1,1.9-0.2,2.4c-0.6,0.3-1.6,0.4-2.4,0.4l0,0c0,0,0,0,0,0c-1.4,0-2.6-0.3-3.4-0.6c0.6-1.4,1-3.1,1.5-5l-0.3-0.2l-3.9,1
		c-0.4,2.1-0.7,3.7-1,4.5c-0.4,0.3-1.2,0.4-2.4,0.4h-0.5c-1.4,0-2.6-0.3-3.4-0.6c0.6-1.4,1-3.1,1.5-5l-0.3-0.2l-3.9,1
		c-0.4,2.1-0.7,3.7-1,4.5C700.3,384.9,699.4,385,698.2,385z"/>
	<polygon class="st3" points="701.7,391.4 699.6,394.5 702.9,396.9 704.9,393.7 	"/>
	<polygon class="st3" points="711,374.1 714.2,376.5 716.2,373.3 713,370.9 	"/>
	<polygon class="st3" points="728.2,389.1 728.5,389.3 732,388.5 732,367.1 731.7,366.9 728.2,367.9 	"/>
	<path class="st3" d="M759.8,385c0.8-0.8,1.5-2.3,1.5-3.5c0-1.9-1.3-3.8-4.2-6l-0.2,0l-2.5,1.5c-1.7,2.3-3.1,5.3-3.7,8h-1.2
		c-2.2,0-3-0.6-3-2.8v-15.2l-0.3-0.2l-3.5,1v14.7c0,4.6,2,6.5,6,6.5c0,0,0,0,0,0l0,0h1.9c0.5,4.1,2.9,6.4,6.7,6.4
		c2.6,0,4.6-1.6,4.6-4.1c0-0.8-0.2-1.6-0.7-2.3h1.8c0,0,0,0,0,0l0,0h1c3,0,4.4-0.4,5.4-1.4c1.1-1.1,1.6-2.6,1.6-4.3
		c0-1.5-0.7-4.3-1.7-6.6h-0.3l-3,2.6c1,2.1,1.9,4.3,1.7,5.5c-0.5,0.2-1.8,0.3-2.9,0.3h-0.9l0,0c0,0,0,0,0,0H759.8z M756.4,379.3
		c0.9,1,1.2,1.8,1.2,2.7c0,2-1.5,3.2-3.6,3.3C754.5,383.2,755.2,381.1,756.4,379.3z M757.6,392c-1.8,0-3.2-1.1-3.6-3
		c0.4-0.1,0.9-0.2,1.3-0.2c2.2,0,3.6,1.4,3.6,2.8C758.6,391.8,758.1,392,757.6,392z"/>
	<polygon class="st3" points="770.2,396.7 772.2,393.6 769.1,391.4 767.7,393.6 764.7,391.4 762.8,394.4 765.9,396.7 767.3,394.5 	
		"/>
	<polygon class="st3" points="775.5,389.1 775.8,389.3 779.3,388.5 779.3,367.1 779,366.9 775.5,367.9 	"/>
	<path class="st3" d="M774.6,365.3c2.4-0.1,4.4-0.3,5.9-0.4l-0.2-2.2c-0.8,0.1-1.6,0.2-2.6,0.2c-0.4-0.4-0.6-0.8-0.6-1.3
		c0-0.6,0.4-1,1-1c0.3,0,0.8,0.1,1.3,0.3l0.5-2.1c-0.8-0.3-1.6-0.5-2.2-0.5c-1.7,0-2.7,1.1-2.7,2.8c0,0.7,0.3,1.4,0.7,2
		c-0.5,0-1,0-1.4,0L774.6,365.3z"/>
	<path class="st3" d="M799.5,389.4h1.9c4.4,0,6.9-0.7,8.3-2.1c0.9,1.2,2.4,1.8,4,1.8c0,0,0,0,0,0l0,0h1c1.9,0,3.3-0.5,4.4-1.5
		c1.2,1,3.2,1.5,5.5,1.5l0,0c0,0,0,0,0,0c0,0,0,0,0,0c0,0,0,0,0,0c3,0,4.5-0.5,5.6-1.8c1,1.5,2.6,1.8,3.8,1.8c0,0,0,0,0,0l0,0
		c7.4,0,11.1-0.3,13.5-0.8l1.1-3.6l-0.2-0.2c-2.2,0.3-4.4,0.4-6.9,0.5c-0.7-0.9-1-1.9-1-2.7c0-1.7,1.1-2.7,2.8-2.7
		c0.9,0,2.1,0.3,3.1,0.6l0.1-0.1l0.4-3.4c-1.3-0.6-3-1-4.4-1c-3.5,0-6.4,2.2-6.4,6.2c0,1.1,0.3,2.1,0.8,3.1h-2.2l0,0c0,0,0,0,0,0
		c-2.3,0-3-0.4-3-2.8v-15.2l-0.3-0.2l-3.5,1v14.4c0,1.1-0.1,1.9-0.2,2.4c-0.6,0.3-1.6,0.4-2.4,0.4l0,0c0,0,0,0,0,0
		c-2,0-3.4-0.3-4.3-0.6c0.6-1.4,1-3.1,1.4-5l-0.3-0.2l-3.9,1c-0.4,2.1-0.8,3.7-1.1,4.5c-0.4,0.3-1.3,0.4-2.1,0.4h-0.7l0,0
		c0,0,0,0,0,0c-2.5,0-3-0.9-3-3.6v-14.3l-0.3-0.2l-3.5,1v14.4c0,1.1-0.1,1.9-0.2,2.4c-0.5,0.4-2.6,0.8-5,0.8h-1.7
		c-6,0-8.4-0.9-8.4-4.2c0-0.8,0.1-1.7,0.3-2.7l-0.3-0.2l-2.7,1.1c-0.4,1.3-0.5,2.5-0.5,3.9C789.2,387.3,792.8,389.4,799.5,389.4z"/>
	<path class="st3" d="M797.8,380c2.4-0.1,4.4-0.3,6-0.4l-0.2-2.1c-0.8,0.1-1.7,0.2-2.6,0.2c-0.4-0.4-0.6-0.9-0.6-1.4
		c0-0.7,0.5-1,1.1-1c0.4,0,0.8,0.1,1.3,0.3l0.5-2c-0.8-0.4-1.6-0.5-2.2-0.5c-1.7,0-2.7,1.1-2.7,2.8c0,0.7,0.3,1.4,0.7,2
		c-0.5,0-1,0-1.4,0L797.8,380z"/>
	<polygon class="st3" points="818.9,394.5 821.9,396.7 823.8,393.6 820.7,391.4 819.4,393.6 816.3,391.4 814.4,394.4 817.5,396.7 	
		"/>
	<path class="st3" d="M860.3,384.2l1.6-0.2c0.5-1.7,1.4-2.5,2.4-2.5c1.6,0,3.1,2,3.3,4.2c-0.9-0.1-2-0.3-3-0.3
		c-4.6,0-6.7,3.6-6.7,6.7c0,2,0.8,5.5,1.2,8.3l0.3,0.2l3.4-1.6c-0.4-2.4-1.4-6.9-0.9-9.2c0.7-0.3,1.7-0.5,2.7-0.5
		c1.4,0,2.8,0.2,3.9,0.2c1.7,0,2.4-1.3,2.4-4c0-3.7-2.2-7.8-5.5-7.8c-2.3,0-4.9,2.4-5.2,6.3L860.3,384.2z"/>
	<path class="st3" d="M918.1,382.3c0,1.1-0.1,1.9-0.2,2.4c-0.6,0.3-1.6,0.4-2.4,0.4l0,0c0,0,0,0,0,0c-1.4,0-2.6-0.3-3.5-0.6
		c0.3-1.1,0.5-2.3,0.5-3.7c0-0.7,0-1.3-0.1-2.1l-0.2-0.1l-3.8,1.5c0.2,1.1,0.2,2.2,0.2,3c0,0.8-0.1,1.3-0.2,1.7
		c-0.5,0.3-1.2,0.4-1.7,0.4c-0.8,0-1.5-0.1-2.3-0.3c0.5-1.2,0.9-2.6,1.3-4.2l-0.1-0.1l-3.8,0.7c-0.4,1.5-0.7,3.3-0.9,3.7
		c-0.2,0.2-0.6,0.3-1.1,0.3c-1,0-2.2-0.2-3-0.5c0.4-1.1,0.9-2.4,1.4-4l-0.1-0.1l-4.1,0.7c-0.2,1.4-0.5,3-0.7,3.6
		c-0.5,0.3-1.4,0.4-3.3,0.4c-2.2,0-3-0.6-3-2.8v-15.2l-0.3-0.2l-3.5,1v13.2c-0.2,0.3-0.5,0.6-0.7,1c-1.2-2.4-4-6.7-7.8-10.5
		l-0.2,0.1l-1.2,4.2c3.3,3.2,5.2,5.4,6.7,8c-2,0.9-4.5,1.2-6.9,1.3l-0.1,0.2l1.8,3.8c3.1,0,6.4-0.8,8.8-3.7c0.8,2.5,2.6,3.6,5.6,3.6
		l0,0c0,0,0,0,0,0c0,0,0,0,0,0c0,0,0,0,0,0c2.7,0,4.4-0.4,5.6-1.4c1,0.7,2.7,1.4,4.7,1.4c1.2,0,2.1-0.3,2.9-0.9
		c1.1,0.5,2.3,0.9,4,0.9h0h0c1.5,0,2.9-0.4,3.9-1.4c1.2,0.9,3.1,1.4,4.6,1.4c0,0,0,0,0,0l0,0c4.5,0,7.3-1.4,7.3-7v-15l-0.3-0.2
		l-3.5,1V382.3z"/>
	<polygon class="st3" points="925.6,367.9 925.6,389.1 925.9,389.3 929.4,388.5 929.5,367.1 929.2,366.9 	"/>
	<path class="st3" d="M487.5,429.1c-1.9,2.3-3.2,4.6-3.2,7c0,1.9,1,3.1,2.6,3.1c1.6,0,2.5-1.3,2.5-2.5c0-1.9-1.6-1.7-1.6-3
		c0-0.9,0.8-2.2,1.7-3.4L487.5,429.1z"/>
	<polygon class="st3" points="500.4,428.9 502.6,425.7 499.2,423.3 497,426.5 	"/>
	<polygon class="st3" points="517.4,443.6 514.2,441.4 512.2,444.4 515.5,446.7 516.9,444.5 520,446.7 522.1,443.6 518.8,441.4 	"/>
	<path class="st3" d="M546.7,417.9v14.4c0,1.1-0.1,1.9-0.2,2.4c-0.6,0.3-1.7,0.4-2.6,0.4c-3.1,0-4.7-0.2-5.7-0.8
		c1-0.3,1.9-0.4,2.7-0.4l0.7-3.6c-2.2,0-4.3-0.5-7.6-2.1c-2.5-1.2-3.8-1.5-4.9-1.5c-1.1,0-2.2,0.3-2.9,0.7l-1.4,3.6l0.2,0.1
		c1.1-0.3,2.2-0.6,3.7-0.6c1.4,0,2.8,0.4,5.3,1.6c0.4,0.2,0.8,0.4,1.1,0.5c-0.7,0.2-1.5,0.5-2.5,0.9c-3.7,1.3-5.6,1.7-8.8,1.7l0,0
		c0,0,0,0,0,0c-2.1,0-3.6-0.3-4.5-0.6c0.6-1.4,1.1-3.1,1.5-5l-0.3-0.2l-4.1,1c-0.4,2.1-0.8,3.7-1.1,4.5c-0.4,0.3-1.4,0.4-2.2,0.4
		h-0.7l0,0c0,0-0.1,0-0.1,0c-1.6,0-2.5-0.4-3-1.4c-0.4-0.7-1.2-3.5-1.5-4.2h-0.2l-3.5,2.5c1.2,2.6,2.2,4.9,1.8,6.9
		c-0.8,1.2-2.7,2.2-5.5,2.2c-3.8,0-5-1.9-5-4.5c0-0.9,0.1-1.9,0.2-3l-0.4-0.1l-2.9,1.1c-0.3,0.9-0.6,2.4-0.6,3.9
		c0,4,2.8,6.7,7.8,6.7c4.9,0,8.6-2,9.8-6.5c0.6,0.4,1.3,0.6,2.1,0.6h1.1c2,0,3.5-0.5,4.7-1.5c1.2,1,3.4,1.5,5.8,1.5l0,0c0,0,0,0,0,0
		c0,0,0,0,0,0c0,0,0,0,0,0c3.5,0,6.4-0.7,10.8-2.9l1.2-0.6c1.2,2.2,3.1,3.5,8.2,3.5l0,0c0,0,0,0,0,0c0,0,0,0,0,0c0,0,0,0,0,0
		c4.7,0,7.6-1.4,7.6-7v-15l-0.3-0.2L546.7,417.9z"/>
	<path class="st3" d="M596.4,417.1l-0.3-0.2l-3.7,1v14.4c0,1.1-0.1,1.9-0.2,2.4c-0.6,0.3-1.7,0.4-2.6,0.4l0,0c0,0,0,0,0,0
		c-1.2,0-2.3-0.2-3.2-0.4c0.2-0.6,0.3-1.2,0.3-1.9c0-2.6-1.8-5.6-4.9-5.6c-2.9,0-6.2,2.8-11.6,7.9c-1,0-1.8-0.1-2.6-0.3
		c0.5-1,0.9-2.2,1.4-3.7l-0.1-0.1l-4.3,0.6c-0.3,1.4-0.5,2.6-0.8,3.3c-0.4,0.2-1.4,0.3-2.1,0.3c-2.3,0-3.2-0.6-3.2-2.8v-15.2
		l-0.3-0.2l-3.7,1v14.7c0,4.6,2.1,6.5,6.3,6.5c1.9,0,3.2-0.3,4.3-1c2.1,0.9,3.9,1,7.3,1h3.4c4.1,0,6.3-0.2,8.1-1.3
		c1.3,0.9,3.2,1.3,4.7,1.3c0,0,0,0,0,0l0,0c4.8,0,7.6-1.4,7.6-7V417.1z M583.3,434.6c-0.9,0.4-2,0.4-5.8,0.4h-3.1
		c3.1-2.7,5.6-4.2,7.1-4.2c1.3,0,2.1,1.4,2.1,2.5C583.5,433.9,583.4,434.3,583.3,434.6z"/>
	<polygon class="st3" points="600.3,439.1 600.5,439.3 604.2,438.5 604.3,417.1 604,416.9 600.3,417.9 	"/>
	<polygon class="st3" points="648.7,439.1 649,439.3 652.7,438.5 652.8,417.1 652.4,416.9 648.7,417.9 	"/>
	<path class="st3" d="M628.8,413.8c-0.2,0.6-0.3,1.5-0.3,1.9c0,1.5,0.7,2.8,2.9,2.8c0.9,0,1.6-0.3,2.1-0.8c0.4,0.4,1,0.8,1.9,0.8
		c2.1,0,3.1-1.4,3.1-3.3c0-1-0.2-1.8-0.5-2.5l-2.2,0.5c0.2,0.6,0.3,1.2,0.3,1.8c0,0.7-0.2,1.2-0.8,1.2c-0.5,0-0.9-0.3-0.9-1.1
		c0-0.3,0-0.7,0-1.3l-2,0.2c0,1.9-0.3,2.3-0.9,2.3c-0.5,0-0.8-0.3-0.8-1.1c0-0.3,0-0.9,0.1-1.4L628.8,413.8z"/>
	<rect x="632" y="407.8" class="st3" width="2.8" height="4.1"/>
	<path class="st3" d="M619.9,437.4c1,0,2-0.2,3-0.5c1,1.4,2.7,2,4.8,2.1h0.2c0,0,0.1,0,0.1,0h0.2c2.8,0,4.4-0.5,5.4-1.8
		c1,1.3,2.5,1.8,3.6,1.8h0.3c0,0,0.1,0,0.1,0h0.2c4.4-0.1,7-1.6,7-7v-15l-0.3-0.2l-3.7,1v14.4c0,1.1-0.1,1.9-0.2,2.4
		c-0.6,0.3-1.5,0.4-2.4,0.4c-2.2,0-2.9-0.4-2.9-2.8v-11.7l-0.3-0.2l-3.7,1v10.9c0,1.1-0.1,1.9-0.2,2.4c-0.6,0.3-1.5,0.4-2.4,0.4
		c-2.3,0-2.8-0.6-2.8-2.2v-9.6l-0.3-0.1l-3.7,1.4v1.5c-5,1.7-7.7,4.6-7.7,7.3C614.2,435.8,616.4,437.4,619.9,437.4z M621.9,429.8v3
		v0.6c-0.5,0.1-1,0.1-1.6,0.1c-1.2,0-2.5-0.4-2.8-1.3C617.8,431.3,619.7,430.3,621.9,429.8z"/>
	<path class="st3" d="M675,433.8c0-3-2.5-6.6-5.5-9.8h-0.3l-2.5,3.6c2.3,2.1,4.7,5.1,5.2,7c-0.8,0.4-3.1,0.6-4.6,0.6
		c-1.1,0-3-0.1-3.7-0.3l-0.2,0.1l-0.6,3.9c0.9,0.2,2.9,0.4,4.3,0.4C671.8,439.3,675,437.4,675,433.8z"/>
	<path class="st3" d="M678.3,432.5c0,4.6,2.1,6.5,6.3,6.5h0.6c2.3,0,3.9-0.5,5.1-1.5c1.3,1,3.4,1.5,5,1.5c7.8,0,11.7-0.3,14.2-0.8
		l1.2-3.6l-0.2-0.2c-2.3,0.3-4.6,0.4-7.2,0.5c-0.7-0.9-1.1-1.9-1.1-2.7c0-1.7,1.1-2.7,3-2.7c1,0,2.2,0.3,3.3,0.6l0.1-0.1l0.4-3.4
		c-1.4-0.6-3.1-1-4.6-1c-3.7,0-6.7,2.2-6.7,6.2c0,1.1,0.3,2.1,0.8,3.1h-2.3c-1.5,0-2.7-0.3-3.6-0.6c0.6-1.4,1.1-3.1,1.5-5l-0.3-0.2
		l-4.1,1c-0.4,2.1-0.8,3.7-1.1,4.5c-0.4,0.3-1.3,0.4-2.5,0.4h-0.6l0,0c0,0,0,0,0,0c-2.3,0-3.2-0.6-3.2-2.8v-15.2l-0.3-0.2l-3.7,1
		V432.5z"/>
	<polygon class="st3" points="693.1,443.7 689.7,441.4 687.5,444.5 691,446.9 	"/>
	<path class="st3" d="M743,438.1c0-0.7-0.2-1.4-0.8-2c1.2-0.2,2.1-0.5,2.9-0.9c0.9,2.3,2.7,3.5,5.3,3.5l0,0c0,0,0,0,0,0c0,0,0,0,0,0
		c0,0,0,0,0,0c7.8,0,11.7-0.3,14.2-0.8l1.2-3.6l-0.2-0.2c-2.3,0.3-4.6,0.4-7.2,0.5c-0.7-0.9-1.1-1.9-1.1-2.7c0-1.7,1.1-2.7,3-2.7
		c1,0,2.2,0.3,3.3,0.6l0.1-0.1l0.4-3.4c-1.4-0.6-3.1-1-4.6-1c-3.7,0-6.7,2.2-6.7,6.2c0,1.1,0.3,2.1,0.8,3.1h-2.2
		c-2.7,0-3.2-1.9-3.2-5v-13l-0.3-0.2l-3.7,1v12c0,0.8-0.1,1.8-0.3,2.4c-1.4,0.6-5.1,1.1-8.5,1.2l0,0c0,0,0,0,0,0l-1.1,3.4
		c4.4,1,5.2,1.9,5.2,2.5c-1,1.2-4.8,1.9-8.6,1.9c-5.1,0-6.5-1.8-6.5-4.6c0-0.7,0.1-1.4,0.4-2.8l-0.4-0.2l-3.3,1.1
		c-0.3,1.1-0.5,2.5-0.5,3.6c0,3.8,3.1,6.8,9.7,6.8C737.3,445,742.8,442.4,743,438.1z"/>
	<path class="st3" d="M779.5,435.8c0-4.4-2-8.2-5.4-8.2c-3,0-5.3,3.6-5.3,6.6c0,2.3,1.4,3.8,4.4,3.8c1,0,1.8-0.1,2.6-0.2
		c-1.2,2.1-4.1,3.4-8.5,3.4l-0.2,0.4l1.9,3C776.2,444.7,779.5,440.2,779.5,435.8z M774,434.7c-1.5,0-2.1-0.3-2.1-1
		c0-1,0.9-2.2,2-2.2c1.2,0,2.1,1.4,2.4,3C775.5,434.6,774.8,434.7,774,434.7z"/>
	<polygon class="st3" points="806.4,423.3 803,420.9 800.8,424.1 804.2,426.5 	"/>
	<polygon class="st3" points="813,444.5 816.1,446.7 818.2,443.6 814.9,441.4 813.5,443.6 810.3,441.4 808.3,444.4 811.5,446.7 	"/>
	<path class="st3" d="M844.3,434.6l-0.2-0.2c-2.3,0.3-4.6,0.4-7.2,0.5c-0.7-0.9-1.1-1.9-1.1-2.7c0-1.7,1.1-2.7,3-2.7
		c1,0,2.2,0.3,3.3,0.6l0.1-0.1l0.4-3.4c-1.4-0.6-3.1-1-4.6-1c-3.7,0-6.7,2.2-6.7,6.2c0,1.1,0.3,2.1,0.8,3.1h-2.3
		c-2.4,0-3.2-0.4-3.2-2.8v-15.2l-0.3-0.2l-3.7,1v14.4c0,1.1-0.1,1.9-0.2,2.4c-0.6,0.3-1.7,0.4-2.6,0.4l0,0c0,0,0,0,0,0
		c-2.1,0-3.6-0.3-4.5-0.6c0.6-1.4,1.1-3.1,1.5-5l-0.3-0.2l-4.1,1c-0.4,2.1-0.8,3.7-1.1,4.5c-0.4,0.3-1.4,0.4-2.2,0.4h-0.7l0,0
		c0,0,0,0,0,0c-1.5,0-2.7-0.3-3.6-0.6c0.6-1.4,1.1-3.1,1.5-5l-0.3-0.2l-4.1,1c-0.4,2.1-0.8,3.7-1.1,4.5c-0.4,0.3-1.3,0.4-2.5,0.4
		h-0.6c-2.3,0-3.2-0.6-3.2-2.8v-15.2l-0.3-0.2l-3.7,1v14.7c0,4.6,2.1,6.5,6.3,6.5h0.6c2.3,0,3.9-0.5,5.1-1.5c1.3,1,3.4,1.5,5,1.5
		c0,0,0,0,0,0l0,0h1.1c2,0,3.5-0.5,4.7-1.5c1.2,1,3.4,1.5,5.8,1.5l0,0c0,0,0,0,0,0c0,0,0,0,0,0c0,0,0,0,0,0c3.1,0,4.8-0.5,5.9-1.8
		c1.1,1.5,2.8,1.8,4,1.8c7.8,0,11.7-0.3,14.2-0.8L844.3,434.6z"/>
	<path class="st3" d="M860.9,439.3c1.5,0,2.9,0.2,4.1,0.2c1.8,0,2.5-1.3,2.5-4c0-3.7-2.4-7.8-5.8-7.8c-2.5,0-5.1,2.4-5.4,6.3
		l0.3,0.2l1.7-0.2c0.5-1.7,1.4-2.5,2.5-2.5c1.7,0,3.3,2,3.4,4.2c-0.9-0.1-2.1-0.3-3.1-0.3c-4.8,0-7,3.6-7,6.7c0,2,0.8,5.5,1.2,8.3
		l0.3,0.2l3.6-1.6c-0.4-2.4-1.5-6.9-1-9.2C858.9,439.5,860,439.3,860.9,439.3z"/>
	<path class="st3" d="M869.6,435.3l1.9,3.8c3.3,0,6.7-0.8,9.3-3.7c0.8,2.5,2.8,3.6,5.9,3.6l0,0c0,0,0,0,0,0c0,0,0,0,0,0c0,0,0,0,0,0
		c2.9,0,4.7-0.4,5.9-1.4c1.1,0.7,2.9,1.4,4.9,1.4c1.2,0,2.2-0.3,3-0.9c1.1,0.5,2.4,0.9,4.2,0.9h0h0c1.6,0,3-0.4,4.1-1.4
		c1.3,0.9,3.3,1.4,4.8,1.4c0,0,0,0,0,0l0,0c4.8,0,7.6-1.4,7.6-7v-15l-0.3-0.2l-3.7,1v14.4c0,1.1-0.1,1.9-0.2,2.4
		c-0.6,0.3-1.7,0.4-2.6,0.4l0,0c0,0,0,0,0,0c-1.5,0-2.8-0.3-3.7-0.6c0.3-1.1,0.5-2.3,0.5-3.7c0-0.7,0-1.3-0.1-2.1l-0.2-0.1l-4,1.5
		c0.2,1.1,0.3,2.2,0.3,3c0,0.8-0.1,1.3-0.2,1.7c-0.5,0.3-1.2,0.4-1.8,0.4c-0.8,0-1.6-0.1-2.4-0.3c0.5-1.2,0.9-2.6,1.4-4.2l-0.1-0.1
		l-4,0.7c-0.4,1.5-0.7,3.3-1,3.7c-0.3,0.2-0.6,0.3-1.2,0.3c-1.1,0-2.3-0.2-3.2-0.5c0.4-1.1,0.9-2.4,1.4-4l-0.1-0.1l-4.3,0.7
		c-0.2,1.4-0.5,3-0.8,3.6c-0.6,0.3-1.4,0.4-3.5,0.4c-2.3,0-3.2-0.6-3.2-2.8v-15.2l-0.3-0.2l-3.7,1v13.2c-0.2,0.3-0.5,0.6-0.7,1
		c-1.2-2.4-4.3-6.7-8.3-10.5l-0.2,0.1l-1.2,4.2c3.5,3.2,5.4,5.4,7,8c-2.1,0.9-4.8,1.2-7.2,1.3L869.6,435.3z"/>
	<polygon class="st3" points="929.3,438.5 929.4,417.1 929,416.9 925.3,417.9 925.3,439.1 925.6,439.3 	"/>
	<rect x="708.1" y="457.8" class="st3" width="2.8" height="4.1"/>
	<path class="st3" d="M696,487.4c1,0,2-0.2,3-0.5c1,1.4,2.7,2,4.8,2.1h0.2c0,0,0.1,0,0.1,0h0.2c2.8,0,4.4-0.5,5.4-1.8
		c1,1.3,2.5,1.8,3.6,1.8h0.3c0,0,0.1,0,0.1,0h0.2c4.4-0.1,7-1.6,7-7v-15l-0.3-0.2l-3.7,1v14.4c0,1.1-0.1,1.9-0.2,2.4
		c-0.6,0.3-1.5,0.4-2.4,0.4c-2.2,0-2.9-0.4-2.9-2.8v-11.7l-0.3-0.2l-3.7,1v10.9c0,1.1-0.1,1.9-0.2,2.4c-0.6,0.3-1.5,0.4-2.4,0.4
		c-2.3,0-2.8-0.6-2.8-2.2v-9.6l-0.3-0.1l-3.7,1.4v1.5c-5,1.7-7.7,4.6-7.7,7.3C690.3,485.8,692.4,487.4,696,487.4z M697.9,479.8v3
		v0.6c-0.5,0.1-1,0.1-1.6,0.1c-1.2,0-2.5-0.4-2.8-1.3C693.9,481.3,695.7,480.3,697.9,479.8z"/>
	<polygon class="st3" points="724.8,467.9 724.8,489.1 725,489.3 728.7,488.5 728.8,467.1 728.5,466.9 	"/>
	<path class="st3" d="M711.4,466.1c-0.5,0-0.9-0.3-0.9-1.1c0-0.3,0-0.7,0-1.3l-2,0.2c0,1.9-0.3,2.3-0.9,2.3c-0.5,0-0.8-0.3-0.8-1.1
		c0-0.3,0-0.9,0.1-1.4l-2.2,0.1c-0.2,0.6-0.3,1.5-0.3,1.9c0,1.5,0.7,2.8,2.9,2.8c0.9,0,1.6-0.3,2.1-0.8c0.4,0.4,1,0.8,1.9,0.8
		c2.1,0,3.1-1.4,3.1-3.3c0-1-0.2-1.8-0.5-2.5l-2.2,0.5c0.2,0.6,0.3,1.2,0.3,1.8C712.2,465.6,712,466.1,711.4,466.1z"/>
	<path class="st3" d="M740.2,485.1L740,489h4.5c4.9,0,6.6-1.8,6.6-4.6c0-1.3-0.6-2.8-1.7-4.4c1.1-1.8,1.9-4.1,1.9-6.8
		c0-1.8-0.4-4.6-0.7-6.3l-0.3-0.1l-3.6,1.8c0.4,1.3,0.8,3.9,0.8,5.8c0,1.1-0.1,2.1-0.4,3c-1.8-1.9-4.2-3.9-6.8-5.9l-0.2,0.1
		l-1.2,3.9c1.9,1.2,4.7,3.2,6.8,5.1C744.3,482.6,742.4,484,740.2,485.1z M747.5,482.5c0.6,0.7,1,1.4,1,1.9c-0.5,0.4-1.4,0.6-3.3,0.6
		h-0.7C745.3,484.5,746.4,483.6,747.5,482.5z"/>
	<polygon class="st3" points="759.3,467.1 759,466.9 755.3,467.9 755.3,489.1 755.5,489.3 759.2,488.5 	"/>
	<path class="st3" d="M754.3,498c2.5-0.1,4.7-0.3,6.2-0.4l-0.2-2.2c-0.8,0.1-1.8,0.2-2.7,0.2c-0.4-0.4-0.6-0.8-0.6-1.3
		c0-0.6,0.4-1,1.1-1c0.4,0,0.8,0.1,1.4,0.3l0.5-2.1c-0.8-0.3-1.7-0.5-2.4-0.5c-1.8,0-2.8,1.1-2.8,2.8c0,0.7,0.3,1.4,0.7,2
		c-0.5,0-1,0-1.4,0L754.3,498z"/>
	<path class="st3" d="M784,485C783.9,485,783.9,485,784,485c-2.5,0-3.1-0.5-3.1-2.2v-9.6l-0.3-0.1l-3.7,1.4v1.5
		c-5,1.7-7.7,4.6-7.7,7.3c0,2.5,2.2,4.1,5.7,4.1c1,0,2-0.2,3-0.5c1.1,1.5,2.8,2.1,5.2,2.1c0,0,0,0,0.1,0l0,0c4.8,0,7.6-1.4,7.6-7
		v-15l-0.3-0.2l-3.7,1v14.4c0,1.1-0.1,1.9-0.2,2.4C785.9,484.9,784.9,485,784,485L784,485z M776.9,482.8v0.6c-0.5,0.1-1,0.1-1.6,0.1
		c-1.2,0-2.5-0.4-2.8-1.3c0.4-1,2.2-1.9,4.4-2.5V482.8z"/>
	<path class="st3" d="M793.6,498c2.5-0.1,4.7-0.3,6.2-0.4l-0.2-2.2c-0.8,0.1-1.8,0.2-2.7,0.2c-0.4-0.4-0.6-0.8-0.6-1.3
		c0-0.6,0.4-1,1.1-1c0.4,0,0.8,0.1,1.4,0.3l0.5-2.1c-0.8-0.3-1.7-0.5-2.4-0.5c-1.8,0-2.8,1.1-2.8,2.8c0,0.7,0.3,1.4,0.7,2
		c-0.5,0-1,0-1.4,0L793.6,498z"/>
	<polygon class="st3" points="798.7,467.1 798.4,466.9 794.6,467.9 794.6,489.1 794.9,489.3 798.6,488.5 	"/>
	<path class="st3" d="M820.9,484.4c0-1.3-0.6-2.8-1.7-4.4c1.1-1.8,1.9-4.1,1.9-6.8c0-1.8-0.4-4.6-0.7-6.3l-0.3-0.1l-3.6,1.8
		c0.4,1.3,0.8,3.9,0.8,5.8c0,1.1-0.1,2.1-0.4,3c-1.8-1.9-4.2-3.9-6.8-5.9l-0.2,0.1l-1.2,3.9c1.9,1.2,4.7,3.2,6.8,5.1
		c-1.3,2-3.3,3.3-5.5,4.5l-0.2,3.9h4.5C819.2,489,820.9,487.3,820.9,484.4z M815,485h-0.7c0.9-0.6,2-1.4,3-2.6c0.6,0.7,1,1.4,1,1.9
		C817.8,484.8,816.9,485,815,485z"/>
	<polygon class="st3" points="840.3,478.9 842.4,475.7 839,473.3 836.9,476.5 	"/>
	<path class="st3" d="M847.3,479.4l-3.5,2.5c1.6,3.4,2.1,5.3,1.8,6.9c-1,1.4-3.1,2.2-5.5,2.2c-3.3,0-5-1.5-5-4.5c0-1,0.1-2.2,0.2-3
		l-0.4-0.1l-2.9,1.1c-0.3,0.9-0.6,2.8-0.6,3.9c0,4.1,3,6.7,7.8,6.7c6,0,9.9-3.5,9.9-8.7c0-1.8-0.8-4.7-1.7-6.9H847.3z"/>
	<path class="st3" d="M858,462.7c-0.8,0.1-1.7,0.2-2.7,0.2c-0.4-0.4-0.6-0.8-0.6-1.3c0-0.6,0.4-1,1.1-1c0.4,0,0.8,0.1,1.4,0.3
		l0.5-2.1c-0.8-0.3-1.7-0.5-2.4-0.5c-1.8,0-2.8,1.1-2.8,2.8c0,0.7,0.3,1.4,0.7,2c-0.5,0-1,0-1.5,0l0.2,2.3c2.5-0.1,4.7-0.3,6.2-0.4
		L858,462.7z"/>
	<polygon class="st3" points="852.9,489.1 853.1,489.3 856.8,488.5 856.9,467.1 856.6,466.9 852.9,467.9 	"/>
	<polygon class="st3" points="913.6,468.5 910.3,466.3 908.2,469.3 911.5,471.6 	"/>
	<path class="st3" d="M907.4,489c1.2,0,2.2-0.3,3-0.9c1.1,0.5,2.4,0.9,4.2,0.9c4,0,7-1.8,7-5.7c0-2-0.7-4.3-1.5-6.6l-0.2,0l-3.5,2.6
		c0.8,1.7,1.8,4.1,1.6,5.3c-0.7,0.3-1.8,0.4-2.9,0.4c-0.8,0-1.6-0.1-2.4-0.3c0.5-1.2,0.9-2.6,1.4-4.2l-0.1-0.1l-4,0.7
		c-0.4,1.5-0.7,3.3-1,3.7c-0.3,0.2-0.6,0.3-1.2,0.3c-1.1,0-2.3-0.2-3.2-0.5c0.4-1.1,0.9-2.4,1.4-4l-0.1-0.1l-4.3,0.7
		c-0.2,1.4-0.5,3-0.8,3.6c-0.6,0.3-1.4,0.4-3.5,0.4l0,0c0,0,0,0,0,0h-4.1c0.9-0.8,1.6-2.3,1.6-3.5c0-1.9-1.4-3.8-4.4-6l-0.3,0
		l-2.6,1.5c-1.8,2.3-3.3,5.3-3.9,8h-1.3l0,0c0,0,0,0,0,0c-2.1,0-2.8-0.4-3.9-3c-0.4-1-2.6-6-3.4-8h-0.4l-2.9,3.3
		c1.3,2.5,3,5.9,3.7,7.2c-1.2,0.5-3.1,0.7-4.6,0.7c-0.7,0-2.2-0.1-3.3-0.3l-0.2,0.1l-0.6,3.9c1.1,0.3,2.9,0.4,3.7,0.4
		c2.8,0,5.1-0.7,6.6-1.8c0.9,1.2,2.2,1.5,4.3,1.5c0,0,0,0,0,0l0,0h2c0.5,4.1,3.1,6.4,7,6.4c2.7,0,4.9-1.6,4.9-4.1
		c0-0.8-0.3-1.6-0.7-2.3h1.9c0,0,0,0,0,0l0,0c2.9,0,4.7-0.4,6-1.4C903.6,488.4,905.4,489,907.4,489z M889.7,479.3
		c0.9,1,1.3,1.8,1.3,2.7c0,2-1.6,3.2-3.7,3.3C887.7,483.2,888.5,481.1,889.7,479.3z M891,492c-1.9,0-3.4-1.1-3.8-3
		c0.4-0.1,0.9-0.2,1.4-0.2c2.3,0,3.8,1.4,3.8,2.8C892.1,491.8,891.6,492,891,492z"/>
	<polygon class="st3" points="909.8,476.2 911.3,474 914.4,476.2 916.5,473.1 913.2,470.9 911.7,473 908.6,470.9 906.6,473.9 	"/>
	<path class="st3" d="M924.3,465.3c2.5-0.1,4.7-0.3,6.2-0.4l-0.2-2.2c-0.8,0.1-1.7,0.2-2.7,0.2c-0.4-0.4-0.6-0.8-0.6-1.3
		c0-0.6,0.4-1,1.1-1c0.4,0,0.8,0.1,1.4,0.3l0.5-2.1c-0.8-0.3-1.7-0.5-2.4-0.5c-1.8,0-2.8,1.1-2.8,2.8c0,0.7,0.3,1.4,0.7,2
		c-0.5,0-1,0-1.5,0L924.3,465.3z"/>
	<polygon class="st3" points="925.3,489.1 925.6,489.3 929.3,488.5 929.4,467.1 929,466.9 925.3,467.9 	"/>
	<path class="st3" d="M568.1,534.4c-1.4,0-2.6,1.2-2.6,2.5c0,1.4,1.2,2.6,2.6,2.6c1.4,0,2.6-1.2,2.6-2.6
		C570.7,535.6,569.5,534.4,568.1,534.4z"/>
	<path class="st3" d="M589.7,517.9v14.4c0,1.1-0.1,1.9-0.2,2.4c-0.6,0.3-1.7,0.4-2.6,0.4l0,0c0,0,0,0,0,0c-2.4,0-3-0.5-3-2.2v-9.6
		l-0.3-0.1l-3.7,1.4v1.5c-5,1.7-7.7,4.6-7.7,7.3c0,2.5,2.2,4.1,5.7,4.1c1,0,2-0.2,3-0.5c1.1,1.5,2.8,2.1,5.2,2.1c0,0,0,0,0.1,0l0,0
		c4.8,0,7.6-1.4,7.6-7v-15l-0.3-0.2L589.7,517.9z M579.8,532.8v0.6c-0.5,0.1-1,0.1-1.6,0.1c-1.2,0-2.5-0.4-2.8-1.3
		c0.4-1,2.2-1.9,4.4-2.5V532.8z"/>
	<path class="st3" d="M634.5,533.4c0-2-0.7-4.3-1.5-6.6l-0.2,0l-3.5,2.6c0.8,1.7,1.8,4.1,1.6,5.3c-0.7,0.3-1.8,0.4-2.9,0.4
		c-0.8,0-1.6-0.1-2.4-0.3c0.5-1.2,0.9-2.6,1.4-4.2l-0.1-0.1l-4,0.7c-0.4,1.5-0.7,3.3-1,3.7c-0.3,0.2-0.6,0.3-1.2,0.3
		c-1.1,0-2.3-0.2-3.2-0.5c0.4-1.1,0.9-2.4,1.4-4l-0.1-0.1l-4.3,0.7c-0.2,1.4-0.5,3-0.8,3.6c-0.6,0.3-1.4,0.4-3.5,0.4l0,0
		c0,0,0,0-0.1,0H608c-0.2-4.1-2.3-7.4-5.4-7.4c-3,0-5.3,3.6-5.3,6.7c0,2.9,2,4.7,6.3,4.7c-1.4,1.5-4,2.2-7.9,2.3l-0.2,0.4l1.9,3
		c5.4,0,8.6-2.5,10-5.7h2c0,0,0,0,0.1,0l0,0c2.9,0,4.7-0.4,6-1.4c1.1,0.7,2.9,1.4,4.9,1.4c1.2,0,2.2-0.3,3-0.9
		c1.1,0.5,2.4,0.9,4.2,0.9C631.5,539,634.5,537.2,634.5,533.4z M603.6,535c-2.3,0-3.2-0.4-3.2-1.3c0-1.1,0.9-2.2,2-2.2
		c1.2,0,2.3,1.6,2.4,3.6H603.6z"/>
	<path class="st3" d="M642.5,528.4l-2.9,3.2c1.1,2,2.2,4.4,2.3,5.5c0,1.2-3.7,3.6-8.9,4.5l-0.2,0.3l2.1,2.9c4.2-0.7,7.8-2.7,9.2-5.2
		c0.7-1.2,0.9-2.5,0.9-3.7c0-2-0.7-5.1-2.1-7.7H642.5z"/>
	<path class="st3" d="M653.7,527.7c-3,0-5.3,3.6-5.3,6.6c0,2.3,1.4,3.8,4.4,3.8c1,0,1.8-0.1,2.6-0.2c-1.2,2.1-4.1,3.4-8.5,3.4
		l-0.2,0.4l1.9,3c7.2-0.1,10.6-4.5,10.6-8.9C659.1,531.4,657,527.7,653.7,527.7z M653.6,534.7c-1.5,0-2.1-0.3-2.1-1
		c0-1,0.9-2.2,2-2.2c1.2,0,2.1,1.4,2.4,3C655.1,534.6,654.4,534.7,653.6,534.7z"/>
	<path class="st3" d="M673.5,524.1l-0.3,0.2l-2,3.3c0.3,0.2,0.6,0.5,0.9,0.7c-2.4,2.9-3.1,4.9-3.1,6.4c0,2.9,2,4.5,5.3,4.5
		c3.5,0,5.7-2.1,5.7-5.4C680.1,531.1,678.4,528.2,673.5,524.1z M674.6,535.3c-1.2,0-2-0.6-2-1.6s0.6-2.1,2-3.5
		c1.4,1.3,2.2,2.5,2.2,3.5S675.9,535.3,674.6,535.3z"/>
	<polygon class="st3" points="700.1,544.5 703.5,546.9 705.6,543.7 702.2,541.4 	"/>
	<path class="st3" d="M715.8,534.9c-0.7-0.9-1.1-1.9-1.1-2.7c0-1.7,1.1-2.7,3-2.7c1,0,2.2,0.3,3.3,0.6l0.1-0.1l0.4-3.4
		c-1.4-0.6-3.1-1-4.6-1c-3.7,0-6.7,2.2-6.7,6.2c0,1.1,0.3,2.1,0.8,3.1h-2.3c-1.5,0-2.7-0.3-3.6-0.6c0.6-1.4,1.1-3.1,1.5-5l-0.3-0.2
		l-4.1,1c-0.4,2.1-0.8,3.7-1.1,4.5c-0.4,0.3-1.3,0.4-2.5,0.4H698l0,0c0,0,0,0,0,0c-2.1,0-2.8-0.4-3.9-3c-0.4-1-2.6-6-3.4-8h-0.4
		l-2.9,3.3c1.3,2.5,3,5.9,3.7,7.2c-1.2,0.5-3.1,0.7-4.6,0.7c-0.7,0-2.2-0.1-3.3-0.3l-0.2,0.1l-0.6,3.9c1.1,0.3,2.9,0.4,3.7,0.4
		c2.8,0,5.1-0.7,6.6-1.8c0.9,1.2,2.2,1.5,4.3,1.5c0,0,0,0,0,0l0,0h0.6c2.3,0,3.9-0.5,5.1-1.5c1.3,1,3.4,1.5,5,1.5c0,0,0,0,0,0l0,0
		c7.8,0,11.7-0.3,14.2-0.8l1.2-3.6l-0.2-0.2C720.8,534.7,718.4,534.8,715.8,534.9z"/>
	<polygon class="st3" points="733.8,517.9 733.8,539.1 734.1,539.3 737.8,538.5 737.8,517.1 737.5,516.9 	"/>
	<path class="st3" d="M801.8,527.7c-2.8,0-4.6,3.1-5.7,5.1c-1,1.9-1.4,2.3-2.7,2.3c-3.1,0-4.7-0.2-5.7-0.8c1-0.3,1.9-0.4,2.7-0.4
		l0.7-3.6c-2.2,0-4.3-0.5-7.6-2.1c-2.5-1.2-3.8-1.5-4.9-1.5c-1.1,0-2.2,0.3-2.9,0.7l-1.4,3.6l0.2,0.1c1.1-0.3,2.2-0.6,3.7-0.6
		c1.4,0,2.8,0.4,5.3,1.6c0.4,0.2,0.8,0.4,1.1,0.5c-0.7,0.2-1.5,0.5-2.5,0.9c-3.7,1.3-5.6,1.7-8.8,1.7l0,0c0,0,0,0,0,0
		c-1.9,0-2.5-0.5-3.5-2.6c-1.3-2.7-2.6-4.8-4.9-4.8c-2.7,0-4.2,2.8-6,5.8c-0.7,1.3-1.2,1.5-2.6,1.5l0,0c0,0,0,0,0,0
		c-2.1,0-2.8-0.4-3.9-3c-0.4-1-2.6-6-3.4-8h-0.4l-2.9,3.3c1.3,2.5,3,5.9,3.7,7.2c-1.2,0.5-3.1,0.7-4.6,0.7c-0.7,0-2.2-0.1-3.3-0.3
		l-0.2,0.1l-0.6,3.9c1.1,0.3,2.9,0.4,3.7,0.4c2.8,0,5.1-0.7,6.6-1.8c0.9,1.2,2.2,1.5,4.3,1.5c0,0,0,0,0,0l0,0c2.4,0,4-0.2,5.3-1.8
		c2.1,1.5,4.3,2.2,5.7,2.2c1.2,0,2.1-0.5,2.7-1.5c0.9,0.8,1.9,1.1,3.3,1.1c0,0,0,0,0,0l0,0c3.5,0,6.4-0.7,10.8-2.9l1.2-0.6
		c1.2,2.2,3.1,3.5,8.2,3.5l0,0c0,0,0,0,0,0c0,0,0,0,0,0c0,0,0,0,0,0c2.1,0,3.7-0.3,5-1.8c2.3,1.7,4.6,2.2,6.3,2.2
		c2.5,0,3.7-2,3.7-4.6C807.6,531.2,804.8,527.7,801.8,527.7z M765.7,535.7c-0.9,0-2.2-0.6-3.5-1.4c0.9-1.6,1.6-2.8,2.3-2.8
		c0.7,0,1.5,1.1,2.5,3.4l0.1,0.2C766.8,535.5,766.4,535.7,765.7,535.7z M802.9,535.5c-0.9,0-2.2-0.5-3.5-1.3
		c0.8-1.5,1.5-2.7,2.3-2.7c1.2,0,2.3,2.4,2.4,3.7C803.8,535.4,803.3,535.5,802.9,535.5z"/>
	<polygon class="st3" points="822.8,526.5 826.2,528.9 828.3,525.7 824.9,523.3 	"/>
	<path class="st3" d="M833.3,529.4l-3.5,2.5c1.6,3.4,2.1,5.3,1.8,6.9c-1,1.4-3.1,2.2-5.5,2.2c-3.3,0-5-1.5-5-4.5c0-1,0.1-2.2,0.2-3
		l-0.4-0.1l-2.9,1.1c-0.3,0.9-0.6,2.8-0.6,3.9c0,4.1,3,6.7,7.8,6.7c6,0,9.9-3.5,9.9-8.7c0-1.8-0.8-4.7-1.7-6.9H833.3z"/>
	<path class="st3" d="M841.2,512.9c-0.4-0.4-0.6-0.8-0.6-1.3c0-0.6,0.4-1,1.1-1c0.4,0,0.8,0.1,1.4,0.3l0.5-2.1
		c-0.8-0.3-1.7-0.5-2.4-0.5c-1.8,0-2.8,1.1-2.8,2.8c0,0.7,0.3,1.4,0.7,2c-0.5,0-1,0-1.5,0l0.2,2.3c2.5-0.1,4.7-0.3,6.2-0.4l-0.2-2.2
		C843.1,512.8,842.2,512.8,841.2,512.9z"/>
	<polygon class="st3" points="838.8,517.9 838.8,539.1 839.1,539.3 842.8,538.5 842.9,517.1 842.5,516.9 	"/>
	<path class="st3" d="M905.9,526.8l-3.5,2.6c0.8,1.7,1.8,4.1,1.6,5.3c-0.7,0.3-1.8,0.4-2.9,0.4c-0.8,0-1.6-0.1-2.4-0.3
		c0.5-1.2,0.9-2.6,1.4-4.2l-0.1-0.1l-4,0.7c-0.4,1.5-0.7,3.3-1,3.7c-0.3,0.2-0.6,0.3-1.2,0.3c-1.1,0-2.3-0.2-3.2-0.5
		c0.4-1.1,0.9-2.4,1.4-4l-0.1-0.1l-4.3,0.7c-0.2,1.4-0.5,3-0.8,3.6c-0.6,0.3-1.4,0.4-3.5,0.4l0,0c0,0,0,0,0,0h-4.1
		c0.9-0.8,1.6-2.3,1.6-3.5c0-1.9-1.4-3.8-4.4-6l-0.3,0l-2.6,1.5c-1.8,2.3-3.3,5.3-3.9,8h-1.3l0,0c0,0,0,0,0,0c-2.1,0-2.8-0.4-3.9-3
		c-0.4-1-2.6-6-3.4-8h-0.4l-2.9,3.3c1.3,2.5,3,5.9,3.7,7.2c-1.2,0.5-3.1,0.7-4.6,0.7c-0.7,0-2.2-0.1-3.3-0.3l-0.2,0.1l-0.6,3.9
		c1.1,0.3,2.9,0.4,3.7,0.4c2.8,0,5.1-0.7,6.6-1.8c0.9,1.2,2.2,1.5,4.3,1.5c0,0,0,0,0,0l0,0h2c0.5,4.1,3.1,6.4,7,6.4
		c2.7,0,4.9-1.6,4.9-4.1c0-0.8-0.3-1.6-0.7-2.3h1.9c0,0,0,0,0,0l0,0c2.9,0,4.7-0.4,6-1.4c1.1,0.7,2.9,1.4,4.9,1.4
		c1.2,0,2.2-0.3,3-0.9c1.1,0.5,2.4,0.9,4.2,0.9c4,0,7-1.8,7-5.7c0-2-0.7-4.3-1.5-6.6L905.9,526.8z M875.7,529.3
		c0.9,1,1.3,1.8,1.3,2.7c0,2-1.6,3.2-3.7,3.3C873.7,533.2,874.4,531.1,875.7,529.3z M876.9,542c-1.9,0-3.4-1.1-3.8-3
		c0.4-0.1,0.9-0.2,1.4-0.2c2.3,0,3.8,1.4,3.8,2.8C878,541.8,877.5,542,876.9,542z"/>
	<polygon class="st3" points="899.5,518.5 896.2,516.3 894.2,519.3 897.5,521.6 	"/>
	<polygon class="st3" points="895.8,526.2 897.2,524 900.4,526.2 902.4,523.1 899.2,520.9 897.7,523 894.6,520.9 892.5,523.9 	"/>
	<path class="st3" d="M913.7,512.9c-0.4-0.4-0.6-0.8-0.6-1.3c0-0.6,0.4-1,1.1-1c0.4,0,0.8,0.1,1.4,0.3l0.5-2.1
		c-0.8-0.3-1.7-0.5-2.4-0.5c-1.8,0-2.8,1.1-2.8,2.8c0,0.7,0.3,1.4,0.7,2c-0.5,0-1,0-1.5,0l0.2,2.3c2.5-0.1,4.7-0.3,6.2-0.4l-0.2-2.2
		C915.6,512.8,914.6,512.8,913.7,512.9z"/>
	<polygon class="st3" points="911.3,517.9 911.3,539.1 911.5,539.3 915.2,538.5 915.3,517.1 915,516.9 	"/>
	<path class="st3" d="M924.2,527.7c-3,0-5.3,3.6-5.3,6.6c0,2.3,1.4,3.8,4.4,3.8c1,0,1.8-0.1,2.6-0.2c-1.2,2.1-4.1,3.4-8.5,3.4
		l-0.2,0.4l1.9,3c7.2-0.1,10.6-4.5,10.6-8.9C929.6,531.4,927.6,527.7,924.2,527.7z M924.1,534.7c-1.5,0-2.1-0.3-2.1-1
		c0-1,0.9-2.2,2-2.2c1.2,0,2.1,1.4,2.4,3C925.6,534.6,924.9,534.7,924.1,534.7z"/>
</g>
<path class="st4" d="M1024,43.8h-11.1v-6.6c0-1.7-1.1-3-2.6-3.5c1.4-1.1,2.3-2.9,2.3-4.8c0-3.4-2.8-6.2-6.2-6.2
	c-1,0-1.9,0.2-2.8,0.7c0.4-1.1,0.5-2.2,0.5-3.4c0-6.2-5-11.2-11.2-11.2c-6.2,0-11.2,5-11.2,11.2c0,1.2,0.2,2.4,0.5,3.4
	c-0.8-0.4-1.8-0.7-2.8-0.7c-3.4,0-6.2,2.8-6.2,6.2c0,1.9,0.9,3.6,2.3,4.8c-1.5,0.4-2.6,1.8-2.6,3.5v6.6h-10h-10v-6.6
	c0-1.7-1.1-3-2.6-3.5c1.4-1.1,2.3-2.9,2.3-4.8c0-3.4-2.8-6.2-6.2-6.2c-1,0-1.9,0.2-2.8,0.7c0.4-1.1,0.5-2.2,0.5-3.4
	c0-6.2-5-11.2-11.2-11.2c-6.2,0-11.2,5-11.2,11.2c0,1.2,0.2,2.4,0.5,3.4c-0.8-0.4-1.8-0.7-2.8-0.7c-3.4,0-6.2,2.8-6.2,6.2
	c0,1.9,0.9,3.6,2.3,4.8c-1.5,0.4-2.6,1.8-2.6,3.5v6.6h-10h-10v-6.6c0-1.7-1.1-3-2.6-3.5c1.4-1.1,2.3-2.9,2.3-4.8
	c0-3.4-2.8-6.2-6.2-6.2c-1,0-1.9,0.2-2.8,0.7c0.4-1.1,0.5-2.2,0.5-3.4c0-6.2-5-11.2-11.2-11.2c-6.2,0-11.2,5-11.2,11.2
	c0,1.2,0.2,2.4,0.5,3.4c-0.8-0.4-1.8-0.7-2.8-0.7c-3.4,0-6.2,2.8-6.2,6.2c0,1.9,0.9,3.6,2.3,4.8c-1.5,0.4-2.6,1.8-2.6,3.5v6.6h-10
	h-10v-6.6c0-1.7-1.1-3-2.6-3.5c1.4-1.1,2.3-2.9,2.3-4.8c0-3.4-2.8-6.2-6.2-6.2c-1,0-1.9,0.2-2.8,0.7c0.4-1.1,0.5-2.2,0.5-3.4
	c0-6.2-5-11.2-11.2-11.2c-6.2,0-11.2,5-11.2,11.2c0,1.2,0.2,2.4,0.5,3.4c-0.8-0.4-1.8-0.7-2.8-0.7c-3.4,0-6.2,2.8-6.2,6.2
	c0,1.9,0.9,3.6,2.3,4.8c-1.5,0.4-2.6,1.8-2.6,3.5v6.6h-10h-10v-6.6c0-1.7-1.1-3-2.6-3.5c1.4-1.1,2.3-2.9,2.3-4.8
	c0-3.4-2.8-6.2-6.2-6.2c-1,0-1.9,0.2-2.8,0.7c0.4-1.1,0.5-2.2,0.5-3.4c0-6.2-5-11.2-11.2-11.2c-6.2,0-11.2,5-11.2,11.2
	c0,1.2,0.2,2.4,0.5,3.4c-0.8-0.4-1.8-0.7-2.8-0.7c-3.4,0-6.2,2.8-6.2,6.2c0,1.9,0.9,3.6,2.3,4.8c-1.5,0.4-2.6,1.8-2.6,3.5v6.6h-10
	h-10v-6.6c0-1.7-1.1-3-2.6-3.5c1.4-1.1,2.3-2.9,2.3-4.8c0-3.4-2.8-6.2-6.2-6.2c-1,0-1.9,0.2-2.8,0.7c0.4-1.1,0.5-2.2,0.5-3.4
	c0-6.2-5-11.2-11.2-11.2c-6.2,0-11.2,5-11.2,11.2c0,1.2,0.2,2.4,0.5,3.4c-0.8-0.4-1.8-0.7-2.8-0.7c-3.4,0-6.2,2.8-6.2,6.2
	c0,1.9,0.9,3.6,2.3,4.8c-1.5,0.4-2.6,1.8-2.6,3.5v6.6h-10h-10v-6.6c0-1.7-1.1-3-2.6-3.5c1.4-1.1,2.3-2.9,2.3-4.8
	c0-3.4-2.8-6.2-6.2-6.2c-1,0-1.9,0.2-2.8,0.7c0.4-1.1,0.5-2.2,0.5-3.4c0-6.2-5-11.2-11.2-11.2c-6.2,0-11.2,5-11.2,11.2
	c0,1.2,0.2,2.4,0.5,3.4c-0.8-0.4-1.8-0.7-2.8-0.7c-3.4,0-6.2,2.8-6.2,6.2c0,1.9,0.9,3.6,2.3,4.8c-1.5,0.4-2.6,1.8-2.6,3.5v6.6h-10
	h-10v-6.6c0-1.7-1.1-3-2.6-3.5c1.4-1.1,2.3-2.9,2.3-4.8c0-3.4-2.8-6.2-6.2-6.2c-1,0-1.9,0.2-2.8,0.7c0.4-1.1,0.5-2.2,0.5-3.4
	c0-6.2-5-11.2-11.2-11.2c-6.2,0-11.2,5-11.2,11.2c0,1.2,0.2,2.4,0.5,3.4c-0.8-0.4-1.8-0.7-2.8-0.7c-3.4,0-6.2,2.8-6.2,6.2
	c0,1.9,0.9,3.6,2.3,4.8c-1.5,0.4-2.6,1.8-2.6,3.5v6.6h-10h-10v-6.6c0-1.7-1.1-3-2.6-3.5c1.4-1.1,2.3-2.9,2.3-4.8
	c0-3.4-2.8-6.2-6.2-6.2c-1,0-1.9,0.2-2.8,0.7c0.4-1.1,0.5-2.2,0.5-3.4c0-6.2-5-11.2-11.2-11.2c-6.2,0-11.2,5-11.2,11.2
	c0,1.2,0.2,2.4,0.5,3.4c-0.8-0.4-1.8-0.7-2.8-0.7c-3.4,0-6.2,2.8-6.2,6.2c0,1.9,0.9,3.6,2.3,4.8c-1.5,0.4-2.6,1.8-2.6,3.5v6.6h-10
	h-10v-6.6c0-1.7-1.1-3-2.6-3.5c1.4-1.1,2.3-2.9,2.3-4.8c0-3.4-2.8-6.2-6.2-6.2c-1,0-1.9,0.2-2.8,0.7c0.4-1.1,0.5-2.2,0.5-3.4
	c0-6.2-5-11.2-11.2-11.2c-6.2,0-11.2,5-11.2,11.2c0,1.2,0.2,2.4,0.5,3.4c-0.8-0.4-1.8-0.7-2.8-0.7c-3.4,0-6.2,2.8-6.2,6.2
	c0,1.9,0.9,3.6,2.3,4.8c-1.5,0.4-2.6,1.8-2.6,3.5v6.6h-10h-10v-6.6c0-1.7-1.1-3-2.6-3.5c1.4-1.1,2.3-2.9,2.3-4.8
	c0-3.4-2.8-6.2-6.2-6.2c-1,0-1.9,0.2-2.8,0.7c0.4-1.1,0.5-2.2,0.5-3.4c0-6.2-5-11.2-11.2-11.2c-6.2,0-11.2,5-11.2,11.2
	c0,1.2,0.2,2.4,0.5,3.4c-0.8-0.4-1.8-0.7-2.8-0.7c-3.4,0-6.2,2.8-6.2,6.2c0,1.9,0.9,3.6,2.3,4.8c-1.5,0.4-2.6,1.8-2.6,3.5v6.6h-10
	h-10v-6.6c0-1.7-1.1-3-2.6-3.5c1.4-1.1,2.3-2.9,2.3-4.8c0-3.4-2.8-6.2-6.2-6.2c-1,0-1.9,0.2-2.8,0.7c0.4-1.1,0.5-2.2,0.5-3.4
	c0-6.2-5-11.2-11.2-11.2c-6.2,0-11.2,5-11.2,11.2c0,1.2,0.2,2.4,0.5,3.4c-0.8-0.4-1.8-0.7-2.8-0.7c-3.4,0-6.2,2.8-6.2,6.2
	c0,1.9,0.9,3.6,2.3,4.8c-1.5,0.4-2.6,1.8-2.6,3.5v6.6h-10h-10v-6.6c0-1.7-1.1-3-2.6-3.5c1.4-1.1,2.3-2.9,2.3-4.8
	c0-3.4-2.8-6.2-6.2-6.2c-1,0-1.9,0.2-2.8,0.7c0.4-1.1,0.5-2.2,0.5-3.4c0-6.2-5-11.2-11.2-11.2c-6.2,0-11.2,5-11.2,11.2
	c0,1.2,0.2,2.4,0.5,3.4c-0.8-0.4-1.8-0.7-2.8-0.7c-3.4,0-6.2,2.8-6.2,6.2c0,1.9,0.9,3.6,2.3,4.8c-1.5,0.4-2.6,1.8-2.6,3.5v6.6h-10
	h-10v-6.6c0-1.7-1.1-3-2.6-3.5c1.4-1.1,2.3-2.9,2.3-4.8c0-3.4-2.8-6.2-6.2-6.2c-1,0-1.9,0.2-2.8,0.7c0.4-1.1,0.5-2.2,0.5-3.4
	c0-6.2-5-11.2-11.2-11.2c-6.2,0-11.2,5-11.2,11.2c0,1.2,0.2,2.4,0.5,3.4c-0.8-0.4-1.8-0.7-2.8-0.7c-3.4,0-6.2,2.8-6.2,6.2
	c0,1.9,0.9,3.6,2.3,4.8c-1.5,0.4-2.6,1.8-2.6,3.5v6.6h-10h-10v-6.6c0-1.7-1.1-3-2.6-3.5c1.4-1.1,2.3-2.9,2.3-4.8
	c0-3.4-2.8-6.2-6.2-6.2c-1,0-1.9,0.2-2.8,0.7c0.4-1.1,0.5-2.2,0.5-3.4c0-6.2-5-11.2-11.2-11.2c-6.2,0-11.2,5-11.2,11.2
	c0,1.2,0.2,2.4,0.5,3.4c-0.8-0.4-1.8-0.7-2.8-0.7c-3.4,0-6.2,2.8-6.2,6.2c0,1.9,0.9,3.6,2.3,4.8c-1.5,0.4-2.6,1.8-2.6,3.5v6.6h-10
	h-10v-6.6c0-1.7-1.1-3-2.6-3.5c1.4-1.1,2.3-2.9,2.3-4.8c0-3.4-2.8-6.2-6.2-6.2c-1,0-1.9,0.2-2.8,0.7c0.4-1.1,0.5-2.2,0.5-3.4
	c0-6.2-5-11.2-11.2-11.2c-6.2,0-11.2,5-11.2,11.2c0,1.2,0.2,2.4,0.5,3.4c-0.8-0.4-1.8-0.7-2.8-0.7c-3.4,0-6.2,2.8-6.2,6.2
	c0,1.9,0.9,3.6,2.3,4.8c-1.5,0.4-2.6,1.8-2.6,3.5v6.6h-10h-10v-6.6c0-1.7-1.1-3-2.6-3.5c1.4-1.1,2.3-2.9,2.3-4.8
	c0-3.4-2.8-6.2-6.2-6.2c-1,0-1.9,0.2-2.8,0.7c0.4-1.1,0.5-2.2,0.5-3.4c0-6.2-5-11.2-11.2-11.2c-6.2,0-11.2,5-11.2,11.2
	c0,1.2,0.2,2.4,0.5,3.4c-0.8-0.4-1.8-0.7-2.8-0.7c-3.4,0-6.2,2.8-6.2,6.2c0,1.9,0.9,3.6,2.3,4.8c-1.5,0.4-2.6,1.8-2.6,3.5v6.6H0V0
	h1024V43.8z"/>
<g id="Layer_x0020_1_34_">
	<path class="st5" d="M34.9,720.1l43.9-1.7c0.3,0,0.6,0,1,0c0.7,0.1,1.3,0.4,1.8,0.9c0.5,0.5,0.9,1,0.9,1.7c0,0.2,0,0.5,0,0.8
		l-4.6,20.6c-0.2,0.9-0.6,1.7-1.3,2.2c-0.6,0.5-1.4,0.9-2.4,0.9L39,744.2c-1,0-1.7-0.3-2.4-0.9l0,0c-0.6-0.6-1.1-1.4-1.3-2.2
		l-4.1-17.7c0-0.1,0-0.1,0-0.2c-0.1-0.8,0.3-1.5,0.9-2.1c0.6-0.5,1.4-0.8,2.3-1C34.6,720.1,34.7,720.1,34.9,720.1z M76.9,721.1
		l-42,1.5c-0.1,0-0.2,0-0.3,0c-0.6,0.1-1.1,0.3-1.5,0.7c-0.3,0.3-0.6,0.7-0.5,1.1c0,0,0,0.1,0,0.1l3.8,16.5c0.1,0.6,0.4,1.2,0.9,1.6
		c0.4,0.3,0.8,0.5,1.4,0.5l34,1.2c0.6,0,1-0.2,1.4-0.5c0.4-0.4,0.7-0.9,0.9-1.6L79,723c0-0.1,0-0.3,0-0.4c0-0.3-0.2-0.7-0.5-0.9
		c-0.3-0.3-0.7-0.5-1.1-0.5C77.2,721.1,77.1,721.1,76.9,721.1z"/>
	<path class="st5" d="M41.9,724.7l12.9-1.4c0.1,0,0.3,0,0.4,0c0.3,0.1,0.6,0.2,0.8,0.4c0.2,0.2,0.4,0.5,0.4,0.8c0,0.1,0,0.2,0,0.3
		l-2.1,9.6c-0.1,0.4-0.3,0.8-0.6,1c-0.3,0.2-0.6,0.4-1.1,0.4h-8.9c-0.4,0-0.8-0.2-1.1-0.4h0c-0.3-0.3-0.5-0.6-0.6-1l-1.9-8.2
		c0,0,0-0.1,0-0.1c-0.1-0.4,0.1-0.7,0.4-1c0.3-0.2,0.7-0.4,1-0.5C41.8,724.8,41.8,724.7,41.9,724.7z M53.9,724.7l-12,1.3
		c0,0-0.1,0-0.1,0c-0.3,0-0.5,0.2-0.7,0.3c-0.2,0.1-0.3,0.3-0.2,0.5c0,0,0,0,0,0l1.8,7.6c0.1,0.3,0.2,0.5,0.4,0.7
		c0.2,0.1,0.4,0.2,0.6,0.2h8.3c0.3,0,0.5-0.1,0.6-0.2c0.2-0.2,0.3-0.4,0.4-0.7l2-8.9c0-0.1,0-0.1,0-0.2c0-0.2-0.1-0.3-0.2-0.4
		c-0.1-0.1-0.3-0.2-0.5-0.2C54.1,724.7,54,724.7,53.9,724.7z"/>
	<g id="_1849662416_34_">
		<path class="st6" d="M60.4,736.9l0.4-0.7l-0.7-0.4l0.4-0.7l-1.5-0.8l-0.9,1.5l0,0c0.3,0.1,0.5,0.3,0.7,0.4l-0.4,0.7l0.7,0.4
			l-0.8,1.5l0.7,0.4c-0.2,0.5-0.6,1.1-0.9,1.5l0,0c0.2,0.1,0.4,0.2,0.5,0.3c0.3,0.1,0.2,0.1,0,0.5c-0.2,0.4-0.4,0.8-0.7,1.1l0.7,0.4
			c0,0.2-0.7,1.2-0.8,1.5l5.9,3.4l0.9-1.5l0.8,0.4l1.3-2.2l0.7,0.4l3-5.2c-0.1-0.1-0.7-0.4-0.7-0.5c0-0.2,0.4-0.6,0.4-0.7
			c-0.1-0.1-0.5-0.4-0.7-0.4l-1.3,2.2l-0.7-0.4l1.7-3l-1.5-0.9l-1.3,2.2l-0.7-0.4l1.7-2.9c-0.1-0.1-1.3-0.8-1.5-0.9l-1.7,3l-0.7-0.4
			c0-0.1,0.1-0.1,0.1-0.2c1.2-2.1,2.5-4.3,3.7-6.5l-1.5-0.8l-4.7,8.1C60.9,737.3,60.4,737,60.4,736.9L60.4,736.9z"/>
		<path class="st7" d="M58.2,740.7c-0.1,0.1-0.1,0.2-0.2,0.3l-0.7,1.1c0.1,0.1,0.2,0.1,0.4,0.2c0.1,0.1,0.2,0.1,0.3,0.2
			c-0.4,0.8-0.8,1.5-1.2,2.2c0.6,0.4,1.2,0.7,1.8,1.1l3.7,2.2c0.6,0.4,1.2,0.7,1.9,1.1c0.1-0.2,0.1-0.3,0.3-0.5
			c0.1-0.2,0.4-0.6,0.5-0.9c0.1-0.1,0.1-0.1,0.2-0.3c0.1-0.2,0.2-0.4,0.3-0.6c0.1,0.2,0.5,0.3,0.7,0.4c0.4-0.7,0.8-1.4,1.3-2.2
			c0.2,0.1,0.4,0.2,0.6,0.3c0.1,0.1,0.1,0.1,0.2,0c0.2-0.3,0.3-0.6,0.5-0.9c0.3-0.6,0.7-1.1,1-1.7l1.4-2.5c-0.2-0.1-0.6-0.3-0.7-0.4
			l-3,5.2l-0.7-0.4l-1.3,2.2l-0.8-0.4l-0.9,1.5l-5.9-3.4c0.1-0.3,0.8-1.3,0.8-1.5l-0.7-0.4c0.2-0.4,0.4-0.8,0.7-1.1
			c0.2-0.4,0.2-0.3,0-0.5C58.6,740.9,58.4,740.7,58.2,740.7z"/>
		<path class="st7" d="M60.5,735l-0.4,0.7l0.7,0.4l-0.4,0.7l0.7,0.4l4.7-8.1l-0.7-0.4c0,0,0,0,0,0l0,0c0,0,0,0,0,0l-3.8,6.6
			C61,735.3,60.7,735.2,60.5,735z"/>
		<path class="st7" d="M67.3,730.1l-3.9,6.6l0.7,0.4l1.7-3c0.2,0,1.4,0.8,1.5,0.9c0.2,0.2,1.6,0.9,1.9,1.1c0,0,0.1,0-0.1-0.1
			l-1.5-0.8c-0.4-0.2-0.3-0.1,0.1-0.9l-1.1-0.6c-0.1-0.1-0.2-0.1-0.3-0.2l1.7-2.9c-0.2-0.1-0.3-0.2-0.6-0.4
			C67.4,730.1,67.4,730.2,67.3,730.1z"/>
		<path class="st7" d="M69.2,737.1l0.4-0.7c-0.1-0.1-0.2-0.2-0.4-0.2c-0.3-0.2-1.7-0.9-1.9-1.1l-1.7,2.9l0.7,0.4l1.3-2.2L69.2,737.1
			z"/>
		<path class="st7" d="M58.1,735.7c-0.1,0.1-0.1,0.1-0.2,0.3c-0.1,0.1-0.1,0.3-0.2,0.4l0.7,0.4c-0.1,0.2-0.7,1.3-0.8,1.5l0.7,0.4
			l-0.6,1.1c-0.1,0.2-0.1,0.2-0.2,0.4l0.7,0.4c0.3-0.4,0.7-1,0.9-1.5l-0.7-0.4l0.8-1.5l-0.7-0.4l0.4-0.7
			C58.6,735.9,58.4,735.8,58.1,735.7z"/>
		<path class="st7" d="M58.1,735.7l0.9-1.5l1.5,0.8l0.2-0.4c0.1-0.1,0.1-0.2,0.2-0.4l-2-1.1c-0.3-0.2-0.2-0.2-0.5,0.2l-0.9,1.6
			c-0.1,0.2-0.2,0.2,0,0.3C57.6,735.4,58,735.7,58.1,735.7z"/>
		<path class="st7" d="M70.2,738.7c0.1,0,0,0,0.1-0.1c0,0,0.1-0.1,0.1-0.1c0-0.2,0.2-0.4,0.3-0.6l-1.5-0.8l-1.7,3l0.7,0.4l1.3-2.2
			C69.7,738.3,70.1,738.6,70.2,738.7z"/>
		<path class="st7" d="M67.3,730.1c0.1-0.2,0.3-0.5,0.4-0.7l-1.5-0.8l-0.4,0.7L67.3,730.1z"/>
		<path class="st7" d="M70.2,738.7c0,0.2-0.4,0.6-0.4,0.7c0,0.1,0.6,0.4,0.7,0.5c0.2,0.1,0.5,0.3,0.7,0.4l-1.4,2.5l1.5-2.5l-0.7-0.4
			c0.1-0.1,0.1-0.2,0.2-0.4c0.1-0.1,0.2-0.3,0.2-0.4c-0.8-0.5-0.8-0.3-0.6-0.6c0,0-0.1,0.1-0.1,0.1
			C70.2,738.7,70.3,738.7,70.2,738.7z"/>
	</g>
	<path class="st5" d="M94.9,736.9h-2.5l2.1-7.2l-4.3,7.2h-2.6l-0.5-7.3l-1.8,7.3h-2.6l2.9-10.9h3.5l0.5,7.7l4.6-7.7h3.5L94.9,736.9z
		 M104.4,736.9h-5.6c-0.8,0-1.3-0.2-1.7-0.6c-0.4-0.4-0.4-1-0.2-1.8c0.3-0.9,0.7-1.6,1.3-2c0.6-0.4,1.5-0.6,2.6-0.6h2.5
		c0.1-0.4,0.1-0.7-0.1-0.8c-0.2-0.2-0.6-0.2-1.3-0.2h-3.6l0.5-2h4.3c1.1,0,1.9,0.3,2.3,0.8c0.4,0.5,0.5,1.3,0.2,2.3L104.4,736.9z
		 M102.4,735l0.3-1.2h-2.2c-0.4,0-0.7,0-0.9,0.1c-0.2,0.1-0.3,0.3-0.3,0.5c-0.1,0.2-0.1,0.3,0,0.4c0,0,0.1,0.1,0.2,0.1
		c0.1,0,0.3,0,0.5,0H102.4z M113.2,736.9h-2.4l1.3-4.9c0.1-0.5,0.2-0.8,0-1c-0.1-0.1-0.4-0.2-0.9-0.2h-1.4l-1.6,6.1h-2.4l2.2-8.1h4
		c1.2,0,2,0.2,2.4,0.7c0.4,0.5,0.5,1.2,0.2,2.3L113.2,736.9z M121.9,736.9h-2.4l1.3-4.9c0.1-0.5,0.1-0.8,0-0.9
		c-0.1-0.1-0.2-0.1-0.3-0.2c-0.1,0-0.3-0.1-0.6-0.1l-1.4,0l-1.6,6.1h-2.4l2.9-10.9h2.4l-0.8,2.8h1.6c1.2,0,2,0.2,2.4,0.7
		c0.4,0.5,0.5,1.2,0.2,2.3L121.9,736.9z M131.1,736.9h-5.6c-0.8,0-1.3-0.2-1.7-0.6c-0.4-0.4-0.4-1-0.2-1.8c0.3-0.9,0.7-1.6,1.3-2
		c0.6-0.4,1.5-0.6,2.6-0.6h2.5c0.1-0.4,0.1-0.7-0.1-0.8c-0.2-0.2-0.6-0.2-1.3-0.2h-3.6l0.5-2h4.3c1.1,0,1.9,0.3,2.3,0.8
		c0.4,0.5,0.5,1.3,0.2,2.3L131.1,736.9z M129.2,735l0.3-1.2h-2.2c-0.4,0-0.7,0-0.9,0.1c-0.2,0.1-0.3,0.3-0.3,0.5
		c-0.1,0.2,0,0.3,0,0.4c0,0,0.1,0.1,0.2,0.1c0.1,0,0.3,0,0.5,0H129.2z M135,736.9h-2.5l2.9-10.9h2.5L135,736.9z M140.6,736.9h-2.1
		l0.6-2.2h2.1L140.6,736.9z M148.4,736.9h-2.9c-0.4,0-0.7,0-1-0.1c-0.3,0-0.5-0.1-0.8-0.2c-0.4-0.1-0.8-0.4-1-0.8
		c-0.1-0.2-0.2-0.4-0.3-0.6c-0.1-0.2-0.2-0.5-0.2-0.7c0-0.3,0-0.5,0-0.8c0-0.3,0.1-0.6,0.2-0.9c0.2-0.6,0.4-1.2,0.8-1.7
		c0.3-0.5,0.7-1,1.3-1.4c0.4-0.3,0.9-0.6,1.4-0.7c0.5-0.2,1.1-0.2,1.9-0.2h2.9l-0.5,2h-2.3c-0.5,0-0.9,0-1.2,0.1
		c-0.3,0.1-0.6,0.2-0.8,0.4c-0.4,0.3-0.7,0.8-0.9,1.6c-0.1,0.4-0.1,0.8-0.1,1.1c0.1,0.3,0.1,0.6,0.4,0.7l0.4,0.2c0.1,0,0.3,0,0.4,0
		c0.1,0,0.4,0,0.6,0h2.3L148.4,736.9z M158.5,732.8c-0.3,1.3-1,2.3-2,3.1c-1,0.8-2.1,1.1-3.4,1.1c-1.3,0-2.2-0.4-2.8-1.1
		c-0.6-0.8-0.7-1.8-0.3-3.1c0.3-1.3,1-2.3,2-3c1-0.8,2.1-1.1,3.4-1.1c1.3,0,2.2,0.4,2.8,1.1C158.7,730.5,158.8,731.5,158.5,732.8z
		 M156,732.8c0.2-0.7,0.1-1.2-0.1-1.6c-0.2-0.4-0.6-0.6-1.1-0.6c-0.5,0-1,0.2-1.4,0.6c-0.4,0.4-0.7,0.9-0.9,1.6
		c-0.1,0.4-0.1,0.7-0.1,0.9c0,0.3,0.1,0.5,0.2,0.7c0.2,0.4,0.6,0.6,1.1,0.6c0.6,0,1-0.2,1.4-0.6C155.5,734.1,155.8,733.5,156,732.8z
		 M169.6,736.9h-2.4l1.3-4.9c0.1-0.5,0.2-0.8,0.1-1c-0.1-0.2-0.4-0.2-0.9-0.2l-0.9,0l-1.6,6.1h-2.4l1.6-6.1h-2l-1.6,6.1h-2.4
		l2.2-8.1h8c1.2,0,2,0.2,2.4,0.7c0.4,0.5,0.5,1.2,0.2,2.3L169.6,736.9z"/>
	<path class="st5" d="M27.9,728.8l21.2-2.2c0.2,0,0.5,0,0.7,0c0.5,0.1,1,0.3,1.4,0.7c0.4,0.3,0.6,0.8,0.7,1.3c0,0.2,0,0.4,0,0.6
		l-3.7,9.6c-0.1,0.7-0.5,1.3-1,1.7c-0.5,0.4-1.1,0.7-1.8,0.7H30.8c-0.7,0-1.3-0.3-1.8-0.7h0c-0.5-0.4-0.8-1.1-1-1.7l-2.9-7.4
		c0-0.1,0-0.1,0-0.2c-0.1-0.6,0.2-1.2,0.7-1.6c0.5-0.4,1.1-0.6,1.7-0.8C27.7,728.8,27.8,728.8,27.9,728.8z M47.6,728.7l-19.8,2.1
		c-0.1,0-0.2,0-0.2,0c-0.4,0.1-0.9,0.3-1.2,0.5c-0.3,0.2-0.4,0.5-0.4,0.8c0,0,0,0.1,0,0.1l2.7,6.5c0.1,0.5,0.3,0.9,0.7,1.2
		c0.3,0.2,0.6,0.4,1,0.4h13.6c0.4,0,0.8-0.1,1-0.4c0.3-0.3,0.5-0.7,0.7-1.2l3.4-8.6c0-0.1,0-0.2,0-0.3c0-0.3-0.2-0.5-0.4-0.7
		c-0.2-0.2-0.5-0.4-0.8-0.4C47.9,728.7,47.7,728.7,47.6,728.7z"/>
	<path class="st5" d="M87.6,722.5l-0.5,1.7h-0.6l1.2-4.5H89c0.3,0,0.5,0,0.7,0.1c0.2,0.1,0.3,0.2,0.4,0.3c0.1,0.1,0.2,0.3,0.2,0.4
		c0,0.2,0,0.4-0.1,0.6c-0.1,0.2-0.1,0.4-0.3,0.6c-0.1,0.2-0.3,0.3-0.4,0.4c-0.2,0.1-0.4,0.2-0.6,0.3c-0.2,0.1-0.5,0.1-0.7,0.1H87.6z
		 M87.7,722h0.7c0.2,0,0.3,0,0.5-0.1c0.1,0,0.3-0.1,0.4-0.2c0.1-0.1,0.2-0.2,0.3-0.3c0.1-0.1,0.1-0.2,0.2-0.4
		c0.1-0.3,0.1-0.5-0.1-0.7c-0.1-0.2-0.4-0.2-0.7-0.2h-0.7L87.7,722z"/>
	<path id="_x31__34_" class="st5" d="M92.2,721c0.2,0,0.4,0,0.6,0.1c0.2,0.1,0.3,0.2,0.4,0.3c0.1,0.1,0.1,0.3,0.2,0.5
		c0,0.2,0,0.4-0.1,0.7c-0.1,0.2-0.2,0.5-0.3,0.7c-0.1,0.2-0.3,0.4-0.4,0.5c-0.2,0.1-0.4,0.3-0.6,0.3c-0.2,0.1-0.4,0.1-0.7,0.1
		c-0.2,0-0.4,0-0.6-0.1c-0.2-0.1-0.3-0.2-0.4-0.3c-0.1-0.1-0.1-0.3-0.2-0.5c0-0.2,0-0.4,0.1-0.7c0.1-0.3,0.2-0.5,0.3-0.7
		c0.1-0.2,0.3-0.4,0.4-0.5c0.2-0.1,0.4-0.3,0.6-0.3C91.8,721,92,721,92.2,721z M91.5,723.8c0.3,0,0.6-0.1,0.8-0.3
		c0.2-0.2,0.4-0.5,0.5-0.9c0.1-0.4,0.1-0.7,0-0.9c-0.1-0.2-0.3-0.3-0.6-0.3c-0.2,0-0.3,0-0.4,0.1c-0.1,0.1-0.2,0.1-0.4,0.2
		c-0.1,0.1-0.2,0.2-0.3,0.4c-0.1,0.1-0.1,0.3-0.2,0.5c0,0.2-0.1,0.4-0.1,0.5c0,0.1,0,0.3,0.1,0.4c0.1,0.1,0.1,0.2,0.2,0.2
		C91.2,723.8,91.3,723.8,91.5,723.8z"/>
	<path id="_x32__34_" class="st5" d="M94,721h0.4c0,0,0.1,0,0.1,0c0,0,0,0,0,0.1l0.1,2c0,0.1,0,0.1,0,0.2c0,0.1,0,0.1,0,0.2
		c0-0.1,0.1-0.1,0.1-0.2c0-0.1,0.1-0.1,0.1-0.2l1.2-2.1c0,0,0-0.1,0.1-0.1c0,0,0.1,0,0.1,0h0.2c0,0,0.1,0,0.1,0c0,0,0,0,0,0.1
		l0.1,2.1c0,0.1,0,0.1,0,0.2c0,0.1,0,0.1,0,0.2c0-0.1,0.1-0.1,0.1-0.2c0-0.1,0.1-0.1,0.1-0.2l1.2-2c0,0,0-0.1,0.1-0.1
		c0,0,0.1,0,0.1,0h0.4l-1.9,3.2h-0.4c-0.1,0-0.1,0-0.1-0.1l-0.1-2.2c0,0,0-0.1,0-0.1c0-0.1,0-0.1,0-0.1c0,0,0,0.1-0.1,0.1
		c0,0,0,0.1-0.1,0.1l-1.3,2.2c0,0.1-0.1,0.1-0.2,0.1h-0.4L94,721z"/>
	<path id="_x33__34_" class="st5" d="M100.5,721c0.2,0,0.4,0,0.5,0.1c0.1,0.1,0.3,0.2,0.3,0.3c0.1,0.1,0.1,0.3,0.2,0.4
		c0,0.2,0,0.4-0.1,0.6c0,0.1,0,0.1-0.1,0.2c0,0-0.1,0-0.1,0h-2.1c-0.1,0.2-0.1,0.4-0.1,0.5c0,0.1,0,0.3,0.1,0.4
		c0.1,0.1,0.1,0.2,0.3,0.2c0.1,0,0.2,0.1,0.4,0.1c0.1,0,0.3,0,0.4,0c0.1,0,0.2-0.1,0.3-0.1c0.1,0,0.2-0.1,0.2-0.1
		c0.1,0,0.1-0.1,0.1-0.1c0,0,0.1,0,0.1,0.1l0.1,0.2c-0.1,0.1-0.2,0.2-0.3,0.2c-0.1,0.1-0.2,0.1-0.3,0.2c-0.1,0-0.2,0.1-0.4,0.1
		c-0.1,0-0.2,0-0.4,0c-0.2,0-0.4,0-0.6-0.1c-0.2-0.1-0.3-0.2-0.4-0.3c-0.1-0.1-0.2-0.3-0.2-0.5c0-0.2,0-0.5,0.1-0.7
		c0.1-0.2,0.1-0.4,0.3-0.6c0.1-0.2,0.3-0.4,0.4-0.5c0.2-0.1,0.4-0.3,0.6-0.3C100.1,721,100.3,721,100.5,721z M100.4,721.4
		c-0.3,0-0.5,0.1-0.7,0.2c-0.2,0.2-0.4,0.4-0.5,0.6h1.7c0-0.1,0.1-0.2,0-0.4c0-0.1,0-0.2-0.1-0.3c0-0.1-0.1-0.1-0.2-0.2
		C100.6,721.4,100.5,721.4,100.4,721.4z"/>
	<path id="_x34__34_" class="st5" d="M101.7,724.2l0.9-3.2h0.3c0.1,0,0.1,0,0.1,0c0,0,0,0.1,0,0.1l-0.1,0.5c0.2-0.2,0.4-0.4,0.5-0.5
		c0.2-0.1,0.4-0.2,0.6-0.2c0.1,0,0.2,0,0.2,0c0.1,0,0.1,0,0.2,0.1l-0.2,0.4c0,0.1-0.1,0.1-0.1,0.1c0,0-0.1,0-0.1,0
		c-0.1,0-0.1,0-0.2,0c-0.2,0-0.4,0.1-0.5,0.2c-0.2,0.1-0.3,0.3-0.5,0.5l-0.5,2H101.7z"/>
	<path id="_x35__34_" class="st5" d="M106.3,721c0.2,0,0.4,0,0.5,0.1c0.1,0.1,0.3,0.2,0.3,0.3c0.1,0.1,0.1,0.3,0.2,0.4
		c0,0.2,0,0.4-0.1,0.6c0,0.1,0,0.1-0.1,0.2c0,0-0.1,0-0.1,0H105c-0.1,0.2-0.1,0.4-0.1,0.5c0,0.1,0,0.3,0.1,0.4
		c0.1,0.1,0.1,0.2,0.3,0.2c0.1,0,0.2,0.1,0.4,0.1c0.1,0,0.3,0,0.4,0c0.1,0,0.2-0.1,0.3-0.1c0.1,0,0.2-0.1,0.2-0.1
		c0.1,0,0.1-0.1,0.1-0.1c0,0,0.1,0,0.1,0.1l0.1,0.2c-0.1,0.1-0.2,0.2-0.3,0.2c-0.1,0.1-0.2,0.1-0.3,0.2c-0.1,0-0.2,0.1-0.4,0.1
		c-0.1,0-0.2,0-0.4,0c-0.2,0-0.4,0-0.6-0.1c-0.2-0.1-0.3-0.2-0.4-0.3c-0.1-0.1-0.2-0.3-0.2-0.5c0-0.2,0-0.5,0.1-0.7
		c0.1-0.2,0.2-0.4,0.3-0.6c0.1-0.2,0.3-0.4,0.4-0.5c0.2-0.1,0.4-0.3,0.6-0.3C105.9,721,106.1,721,106.3,721z M106.2,721.4
		c-0.3,0-0.5,0.1-0.7,0.2c-0.2,0.2-0.4,0.4-0.5,0.6h1.7c0-0.1,0-0.2,0-0.4c0-0.1,0-0.2-0.1-0.3c0-0.1-0.1-0.1-0.2-0.2
		C106.5,721.4,106.4,721.4,106.2,721.4z"/>
	<path id="_x36__34_" class="st5" d="M109.7,724.2c-0.1,0-0.1,0-0.1-0.1l0.1-0.4c-0.2,0.2-0.4,0.3-0.6,0.4c-0.2,0.1-0.4,0.1-0.6,0.1
		c-0.2,0-0.3,0-0.5-0.1c-0.1-0.1-0.2-0.2-0.3-0.3c-0.1-0.1-0.1-0.3-0.1-0.5c0-0.2,0-0.4,0.1-0.7c0.1-0.2,0.2-0.5,0.3-0.7
		c0.1-0.2,0.3-0.4,0.4-0.5c0.2-0.2,0.3-0.3,0.5-0.4c0.2-0.1,0.4-0.1,0.6-0.1c0.2,0,0.4,0,0.5,0.1c0.1,0.1,0.2,0.2,0.3,0.3l0.5-1.8
		h0.6l-1.2,4.6H109.7z M108.8,723.8c0.2,0,0.4,0,0.5-0.1c0.2-0.1,0.3-0.2,0.5-0.4l0.4-1.5c-0.1-0.1-0.2-0.2-0.3-0.3
		c-0.1-0.1-0.2-0.1-0.4-0.1c-0.3,0-0.6,0.1-0.8,0.3c-0.2,0.2-0.4,0.5-0.5,0.9c-0.1,0.2-0.1,0.4-0.1,0.5c0,0.1,0,0.3,0.1,0.4
		c0,0.1,0.1,0.2,0.2,0.2C108.5,723.8,108.6,723.8,108.8,723.8z"/>
	<path id="_x37__34_" class="st5" d="M112.2,724.2l1.2-4.6h0.6l-0.5,1.9c0.2-0.2,0.4-0.3,0.6-0.4c0.2-0.1,0.4-0.1,0.6-0.1
		c0.2,0,0.3,0,0.5,0.1c0.1,0.1,0.2,0.2,0.3,0.3c0.1,0.1,0.1,0.3,0.1,0.5c0,0.2,0,0.4-0.1,0.7c-0.1,0.2-0.2,0.5-0.3,0.7
		c-0.1,0.2-0.3,0.4-0.4,0.5c-0.2,0.1-0.3,0.3-0.5,0.3c-0.2,0.1-0.4,0.1-0.6,0.1c-0.2,0-0.4,0-0.5-0.1c-0.1-0.1-0.2-0.2-0.3-0.3
		l-0.1,0.3c0,0.1-0.1,0.1-0.2,0.1H112.2z M114.4,721.4c-0.2,0-0.4,0-0.5,0.1c-0.2,0.1-0.3,0.2-0.5,0.4l-0.4,1.5
		c0.1,0.1,0.1,0.2,0.3,0.3c0.1,0.1,0.2,0.1,0.4,0.1c0.3,0,0.6-0.1,0.8-0.3c0.2-0.2,0.4-0.5,0.5-0.9c0.1-0.2,0.1-0.4,0.1-0.5
		c0-0.1,0-0.3-0.1-0.4c0-0.1-0.1-0.2-0.2-0.2C114.6,721.4,114.5,721.4,114.4,721.4z"/>
	<path id="_x38__34_" class="st5" d="M116.3,725.2c0,0-0.1,0.1-0.1,0.1c0,0-0.1,0-0.1,0h-0.4l0.9-1.2l-0.5-3h0.5c0,0,0.1,0,0.1,0
		c0,0,0,0,0,0.1l0.3,2c0,0,0,0.1,0,0.1c0,0,0,0.1,0,0.1c0,0,0.1-0.1,0.1-0.1c0,0,0.1-0.1,0.1-0.1l1.4-2c0,0,0.1-0.1,0.1-0.1
		c0,0,0.1,0,0.1,0h0.4L116.3,725.2z"/>
	<path id="_x39__34_" class="st5" d="M118.9,723.9c0-0.1,0-0.1,0.1-0.2c0-0.1,0.1-0.1,0.1-0.1c0,0,0.1-0.1,0.1-0.1
		c0.1,0,0.1,0,0.2,0c0.1,0,0.1,0,0.1,0c0,0,0.1,0,0.1,0.1c0,0,0,0.1,0.1,0.1c0,0,0,0.1,0,0.2c0,0.1,0,0.1-0.1,0.2
		c0,0-0.1,0.1-0.1,0.1c0,0-0.1,0.1-0.1,0.1c-0.1,0-0.1,0-0.2,0c-0.1,0-0.1,0-0.1,0c0,0-0.1,0-0.1-0.1c0,0,0-0.1,0-0.1
		C118.9,724,118.9,723.9,118.9,723.9z M119.5,721.5c0-0.1,0-0.1,0.1-0.2c0,0,0.1-0.1,0.1-0.1c0,0,0.1-0.1,0.1-0.1c0.1,0,0.1,0,0.2,0
		c0.1,0,0.1,0,0.1,0c0,0,0.1,0,0.1,0.1c0,0,0,0.1,0.1,0.1c0,0,0,0.1,0,0.2c0,0.1,0,0.1-0.1,0.2c0,0-0.1,0.1-0.1,0.1
		c0,0-0.1,0.1-0.1,0.1c-0.1,0-0.1,0-0.2,0c-0.1,0-0.1,0-0.1,0c0,0-0.1,0-0.1-0.1c0,0,0-0.1,0-0.1
		C119.5,721.6,119.5,721.6,119.5,721.5z"/>
	<path class="st5" d="M126,739.3l-0.1,0.5h-2.3l-0.4,1.6h1.8l-0.1,0.5H123l-0.4,1.6h2.3l-0.1,0.5h-2.9l1.3-4.8H126z M126,741.8h1.6
		l-0.1,0.5h-1.6L126,741.8z M128.7,743.5h2.1l-0.1,0.5h-2.7l1.3-4.8h0.6L128.7,743.5z M133.4,740.6c0.2,0,0.4,0,0.5,0.1
		c0.2,0.1,0.3,0.2,0.4,0.3c0.1,0.1,0.1,0.3,0.2,0.5c0,0.2,0,0.4-0.1,0.6c0,0.1-0.1,0.2-0.1,0.2c0,0-0.1,0-0.1,0h-2.2
		c-0.1,0.2-0.1,0.4-0.1,0.6c0,0.2,0,0.3,0.1,0.4c0.1,0.1,0.2,0.2,0.3,0.2c0.1,0.1,0.3,0.1,0.4,0.1c0.1,0,0.3,0,0.4-0.1
		c0.1,0,0.2-0.1,0.3-0.1c0.1,0,0.2-0.1,0.2-0.1c0.1,0,0.1-0.1,0.1-0.1c0,0,0.1,0,0.1,0.1l0.1,0.2c-0.1,0.1-0.2,0.2-0.3,0.2
		c-0.1,0.1-0.2,0.1-0.4,0.2c-0.1,0-0.3,0.1-0.4,0.1c-0.1,0-0.3,0-0.4,0c-0.2,0-0.4,0-0.6-0.1c-0.2-0.1-0.3-0.2-0.4-0.3
		c-0.1-0.2-0.2-0.3-0.2-0.6c0-0.2,0-0.5,0.1-0.8c0.1-0.2,0.2-0.5,0.3-0.7c0.1-0.2,0.3-0.4,0.5-0.5c0.2-0.1,0.4-0.3,0.6-0.4
		C132.9,740.7,133.1,740.6,133.4,740.6z M133.3,741.1c-0.3,0-0.5,0.1-0.7,0.2c-0.2,0.2-0.4,0.4-0.5,0.7h1.8c0-0.1,0.1-0.3,0-0.4
		c0-0.1,0-0.2-0.1-0.3c-0.1-0.1-0.1-0.1-0.2-0.2C133.5,741.1,133.4,741.1,133.3,741.1z M137.1,744.1h-0.3c-0.1,0-0.1,0-0.1,0
		c0,0,0-0.1,0-0.1l0-0.3c-0.1,0.1-0.2,0.2-0.3,0.2c-0.1,0.1-0.2,0.1-0.3,0.2c-0.1,0-0.2,0.1-0.3,0.1c-0.1,0-0.2,0-0.4,0
		c-0.1,0-0.2,0-0.4-0.1c-0.1,0-0.2-0.1-0.3-0.2c-0.1-0.1-0.1-0.2-0.1-0.3c0-0.1,0-0.2,0-0.4c0-0.1,0.1-0.3,0.2-0.4
		c0.1-0.1,0.3-0.2,0.4-0.3c0.2-0.1,0.4-0.2,0.7-0.2c0.3-0.1,0.6-0.1,1-0.1l0.1-0.3c0.1-0.3,0.1-0.5,0-0.6c-0.1-0.1-0.2-0.2-0.4-0.2
		c-0.1,0-0.3,0-0.4,0.1c-0.1,0-0.2,0.1-0.3,0.1c-0.1,0-0.2,0.1-0.2,0.1c-0.1,0-0.1,0.1-0.2,0.1c0,0-0.1,0-0.1,0c0,0,0,0-0.1-0.1
		l-0.1-0.2c0.2-0.2,0.5-0.3,0.7-0.4c0.2-0.1,0.5-0.1,0.8-0.1c0.2,0,0.3,0,0.5,0.1c0.1,0.1,0.2,0.1,0.3,0.3c0.1,0.1,0.1,0.2,0.1,0.4
		c0,0.2,0,0.3-0.1,0.5L137.1,744.1z M135.6,743.7c0.1,0,0.2,0,0.3,0s0.2-0.1,0.3-0.1c0.1,0,0.2-0.1,0.3-0.1c0.1-0.1,0.2-0.1,0.3-0.2
		l0.2-0.7c-0.3,0-0.5,0-0.7,0.1c-0.2,0-0.4,0.1-0.5,0.1c-0.1,0.1-0.2,0.1-0.3,0.2c-0.1,0.1-0.1,0.2-0.1,0.3c0,0.1,0,0.2,0,0.2
		c0,0.1,0,0.1,0.1,0.2c0,0,0.1,0.1,0.1,0.1C135.5,743.7,135.6,743.7,135.6,743.7z M138,744.1l0.9-3.4h0.3c0.1,0,0.1,0,0.1,0
		c0,0,0,0.1,0,0.1l-0.1,0.6c0.2-0.2,0.4-0.4,0.6-0.6c0.2-0.1,0.4-0.2,0.6-0.2c0.1,0,0.2,0,0.2,0c0.1,0,0.1,0.1,0.2,0.1l-0.2,0.4
		c0,0.1-0.1,0.1-0.1,0.1c0,0-0.1,0-0.1,0c-0.1,0-0.1,0-0.3,0c-0.2,0-0.4,0.1-0.6,0.2c-0.2,0.1-0.3,0.3-0.5,0.5l-0.6,2.1H138z
		 M140.7,744.1l0.9-3.4h0.4c0.1,0,0.1,0,0.1,0.1l-0.1,0.4c0.2-0.2,0.4-0.3,0.6-0.4c0.2-0.1,0.4-0.2,0.7-0.2c0.2,0,0.3,0,0.5,0.1
		c0.1,0.1,0.2,0.1,0.3,0.3c0.1,0.1,0.1,0.2,0.1,0.4c0,0.2,0,0.3-0.1,0.5l-0.6,2.1h-0.6l0.6-2.1c0.1-0.3,0.1-0.5,0-0.6
		c-0.1-0.1-0.2-0.2-0.5-0.2c-0.2,0-0.3,0-0.5,0.1c-0.2,0.1-0.3,0.2-0.5,0.3l-0.7,2.5H140.7z M145.9,740.7l-0.9,3.4h-0.6l0.9-3.4
		H145.9z M146.3,739.6c0,0.1,0,0.1-0.1,0.2c0,0-0.1,0.1-0.1,0.1c0,0-0.1,0.1-0.2,0.1c-0.1,0-0.1,0-0.2,0c-0.1,0-0.1,0-0.2,0
		c0,0-0.1-0.1-0.1-0.1c0,0,0-0.1-0.1-0.1c0,0,0-0.1,0-0.2c0-0.1,0-0.1,0.1-0.2c0-0.1,0.1-0.1,0.1-0.1c0,0,0.1-0.1,0.2-0.1
		c0.1,0,0.1,0,0.2,0c0.1,0,0.1,0,0.2,0c0,0,0.1,0.1,0.1,0.1c0,0,0,0.1,0.1,0.1C146.3,739.5,146.3,739.6,146.3,739.6z M146,744.1
		l0.9-3.4h0.4c0.1,0,0.1,0,0.1,0.1l-0.1,0.4c0.2-0.2,0.4-0.3,0.6-0.4c0.2-0.1,0.4-0.2,0.7-0.2c0.2,0,0.3,0,0.5,0.1
		c0.1,0.1,0.2,0.1,0.3,0.3c0.1,0.1,0.1,0.2,0.1,0.4c0,0.2,0,0.3-0.1,0.5l-0.6,2.1h-0.6l0.6-2.1c0.1-0.3,0.1-0.5,0-0.6
		c-0.1-0.1-0.2-0.2-0.5-0.2c-0.2,0-0.3,0-0.5,0.1c-0.2,0.1-0.3,0.2-0.5,0.3l-0.7,2.5H146z M151.8,740.6c0.1,0,0.3,0,0.4,0
		c0.1,0,0.2,0.1,0.3,0.1h0.9l-0.1,0.2c0,0.1-0.1,0.1-0.2,0.1l-0.4,0.1c0,0.1,0,0.3,0,0.5c0,0.2-0.1,0.3-0.2,0.4
		c-0.1,0.1-0.2,0.2-0.4,0.3c-0.1,0.1-0.3,0.2-0.5,0.2c-0.2,0-0.3,0.1-0.5,0.1c-0.2,0-0.3,0-0.4-0.1c-0.1,0-0.1,0.1-0.2,0.1
		c-0.1,0.1-0.1,0.1-0.1,0.2c0,0.1,0,0.1,0,0.2s0.1,0.1,0.2,0.1c0.1,0,0.2,0,0.4,0c0.1,0,0.3,0,0.4,0c0.1,0,0.3,0,0.4,0
		c0.1,0,0.2,0.1,0.3,0.1c0.1,0.1,0.2,0.1,0.2,0.2c0,0.1,0,0.2,0,0.4c0,0.1-0.1,0.3-0.2,0.4c-0.1,0.1-0.2,0.3-0.4,0.4
		c-0.2,0.1-0.3,0.2-0.6,0.3c-0.2,0.1-0.4,0.1-0.7,0.1c-0.2,0-0.5,0-0.6-0.1c-0.2,0-0.3-0.1-0.4-0.2c-0.1-0.1-0.2-0.2-0.2-0.3
		c0-0.1,0-0.2,0-0.3c0-0.2,0.1-0.3,0.3-0.4c0.1-0.1,0.3-0.2,0.5-0.3c-0.1,0-0.1-0.1-0.2-0.2c0-0.1,0-0.2,0-0.3c0,0,0-0.1,0.1-0.2
		c0-0.1,0.1-0.1,0.1-0.2c0-0.1,0.1-0.1,0.2-0.1c0.1,0,0.1-0.1,0.2-0.1c-0.1-0.1-0.2-0.2-0.3-0.4c-0.1-0.2-0.1-0.3,0-0.5
		c0-0.2,0.1-0.3,0.2-0.4c0.1-0.1,0.2-0.3,0.4-0.3c0.1-0.1,0.3-0.2,0.5-0.2C151.4,740.7,151.6,740.6,151.8,740.6z M151.9,744.2
		c0-0.1,0-0.2,0-0.2c0-0.1-0.1-0.1-0.2-0.1c-0.1,0-0.2,0-0.3-0.1c-0.1,0-0.2,0-0.3,0c-0.1,0-0.2,0-0.4,0c-0.1,0-0.2,0-0.3,0
		c-0.1,0.1-0.3,0.1-0.4,0.2c-0.1,0.1-0.2,0.2-0.2,0.3c0,0.1,0,0.1,0,0.2c0,0.1,0.1,0.1,0.1,0.2c0.1,0,0.2,0.1,0.3,0.1
		c0.1,0,0.2,0,0.4,0c0.2,0,0.3,0,0.4,0c0.1,0,0.2-0.1,0.4-0.1c0.1-0.1,0.2-0.1,0.3-0.2C151.8,744.4,151.8,744.3,151.9,744.2z
		 M151.3,742.4c0.1,0,0.2,0,0.3,0c0.1,0,0.2-0.1,0.3-0.1c0.1-0.1,0.1-0.1,0.2-0.2c0.1-0.1,0.1-0.2,0.1-0.3c0.1-0.2,0-0.4-0.1-0.5
		c-0.1-0.1-0.3-0.2-0.5-0.2c-0.2,0-0.4,0.1-0.6,0.2c-0.2,0.1-0.3,0.3-0.3,0.5c0,0.1,0,0.2,0,0.3c0,0.1,0,0.2,0.1,0.2
		c0,0.1,0.1,0.1,0.2,0.1C151.1,742.4,151.2,742.4,151.3,742.4z M159,739.3l-0.1,0.5h-1.5l-1.1,4.2h-0.6l1.1-4.2h-1.5l0.1-0.5H159z
		 M159.9,740.6c0.2,0,0.4,0,0.5,0.1c0.2,0.1,0.3,0.2,0.4,0.3c0.1,0.1,0.1,0.3,0.2,0.5c0,0.2,0,0.4-0.1,0.6c0,0.1,0,0.2-0.1,0.2
		c0,0-0.1,0-0.1,0h-2.2c-0.1,0.2-0.1,0.4-0.1,0.6c0,0.2,0,0.3,0.1,0.4c0.1,0.1,0.2,0.2,0.3,0.2c0.1,0.1,0.2,0.1,0.4,0.1
		c0.1,0,0.3,0,0.4-0.1c0.1,0,0.2-0.1,0.3-0.1c0.1,0,0.2-0.1,0.2-0.1c0.1,0,0.1-0.1,0.1-0.1c0,0,0.1,0,0.1,0.1l0.1,0.2
		c-0.1,0.1-0.2,0.2-0.3,0.2c-0.1,0.1-0.2,0.1-0.4,0.2c-0.1,0-0.3,0.1-0.4,0.1c-0.1,0-0.3,0-0.4,0c-0.2,0-0.4,0-0.6-0.1
		c-0.2-0.1-0.3-0.2-0.4-0.3c-0.1-0.2-0.2-0.3-0.2-0.6c0-0.2,0-0.5,0.1-0.8c0.1-0.2,0.2-0.5,0.3-0.7c0.1-0.2,0.3-0.4,0.5-0.5
		c0.2-0.1,0.4-0.3,0.6-0.4C159.4,740.7,159.6,740.6,159.9,740.6z M159.8,741.1c-0.3,0-0.5,0.1-0.7,0.2c-0.2,0.2-0.4,0.4-0.5,0.7h1.8
		c0-0.1,0-0.3,0-0.4c0-0.1,0-0.2-0.1-0.3c-0.1-0.1-0.1-0.1-0.2-0.2C160,741.1,159.9,741.1,159.8,741.1z M163.6,744.1h-0.3
		c-0.1,0-0.1,0-0.1,0c0,0,0-0.1,0-0.1l0-0.3c-0.1,0.1-0.2,0.2-0.3,0.2s-0.2,0.1-0.3,0.2c-0.1,0-0.2,0.1-0.3,0.1c-0.1,0-0.2,0-0.4,0
		c-0.1,0-0.2,0-0.4-0.1c-0.1,0-0.2-0.1-0.3-0.2c-0.1-0.1-0.1-0.2-0.1-0.3c0-0.1,0-0.2,0-0.4c0-0.1,0.1-0.3,0.2-0.4
		c0.1-0.1,0.3-0.2,0.4-0.3c0.2-0.1,0.4-0.2,0.7-0.2c0.3-0.1,0.6-0.1,1-0.1l0.1-0.3c0.1-0.3,0.1-0.5,0-0.6c-0.1-0.1-0.2-0.2-0.4-0.2
		c-0.1,0-0.3,0-0.4,0.1c-0.1,0-0.2,0.1-0.3,0.1c-0.1,0-0.2,0.1-0.2,0.1c-0.1,0-0.1,0.1-0.2,0.1c0,0-0.1,0-0.1,0c0,0,0,0-0.1-0.1
		l-0.1-0.2c0.2-0.2,0.5-0.3,0.7-0.4c0.2-0.1,0.5-0.1,0.7-0.1c0.2,0,0.3,0,0.5,0.1c0.1,0.1,0.2,0.1,0.3,0.3c0.1,0.1,0.1,0.2,0.1,0.4
		c0,0.2,0,0.3-0.1,0.5L163.6,744.1z M162.1,743.7c0.1,0,0.2,0,0.3,0c0.1,0,0.2-0.1,0.3-0.1c0.1,0,0.2-0.1,0.3-0.1
		c0.1-0.1,0.2-0.1,0.3-0.2l0.2-0.7c-0.3,0-0.5,0-0.7,0.1c-0.2,0-0.4,0.1-0.5,0.1c-0.1,0.1-0.2,0.1-0.3,0.2c-0.1,0.1-0.1,0.2-0.2,0.3
		c0,0.1,0,0.2,0,0.2c0,0.1,0,0.1,0.1,0.2c0,0,0.1,0.1,0.1,0.1C162,743.7,162.1,743.7,162.1,743.7z M164.5,744.1l0.9-3.4h0.3
		c0.1,0,0.1,0,0.1,0.1l0,0.3c0.2-0.2,0.3-0.3,0.5-0.4c0.2-0.1,0.4-0.1,0.6-0.1c0.2,0,0.4,0.1,0.5,0.2c0.1,0.1,0.2,0.3,0.2,0.5
		c0.1-0.1,0.2-0.2,0.3-0.3c0.1-0.1,0.2-0.2,0.3-0.2c0.1-0.1,0.2-0.1,0.3-0.1c0.1,0,0.2,0,0.3,0c0.2,0,0.3,0,0.5,0.1
		c0.1,0.1,0.2,0.1,0.3,0.2c0.1,0.1,0.1,0.2,0.1,0.4c0,0.2,0,0.3-0.1,0.5l-0.6,2.1h-0.6l0.6-2.1c0.1-0.3,0.1-0.5,0-0.6
		c-0.1-0.1-0.2-0.2-0.4-0.2c-0.1,0-0.2,0-0.3,0.1c-0.1,0-0.2,0.1-0.3,0.2c-0.1,0.1-0.2,0.2-0.2,0.3c-0.1,0.1-0.1,0.2-0.2,0.4
		l-0.6,2.1h-0.6l0.6-2.1c0.1-0.3,0.1-0.5,0-0.6c-0.1-0.1-0.2-0.2-0.4-0.2c-0.1,0-0.3,0-0.4,0.1c-0.1,0.1-0.3,0.2-0.4,0.3l-0.7,2.5
		H164.5z"/>
</g>
<g>
	<g>
		<linearGradient id="SVGID_3_" gradientUnits="userSpaceOnUse" x1="759.4056" y1="142.138" x2="959.5833" y2="142.138">
			<stop  offset="0" style="stop-color:#FFFFFF;stop-opacity:0"/>
			<stop  offset="4.209470e-02" style="stop-color:#FDEAED;stop-opacity:4.245090e-02"/>
			<stop  offset="0.1274" style="stop-color:#FAC5CD;stop-opacity:0.1284"/>
			<stop  offset="0.2201" style="stop-color:#F7A6B1;stop-opacity:0.222"/>
			<stop  offset="0.3205" style="stop-color:#F58C9B;stop-opacity:0.3232"/>
			<stop  offset="0.4313" style="stop-color:#F37889;stop-opacity:0.4349"/>
			<stop  offset="0.5581" style="stop-color:#F26B7D;stop-opacity:0.5628"/>
			<stop  offset="0.7149" style="stop-color:#F16276;stop-opacity:0.7209"/>
			<stop  offset="0.9916" style="stop-color:#F16074"/>
		</linearGradient>
		<rect x="759.4" y="129.8" class="st8" width="200.2" height="24.7"/>
		<g>
			<path class="st6" d="M911.2,134.7c0.8,0,1.5-0.7,1.5-1.5c0-0.8-0.6-1.5-1.5-1.5c-0.8,0-1.5,0.7-1.5,1.5
				C909.8,134,910.4,134.7,911.2,134.7z"/>
			<path class="st6" d="M907.6,134.7c0.8,0,1.5-0.7,1.5-1.5c0-0.8-0.6-1.5-1.5-1.5c-0.8,0-1.5,0.7-1.5,1.5
				C906.1,134,906.8,134.7,907.6,134.7z"/>
			<path class="st6" d="M918,148.5c-0.8,0-1.5,0.7-1.5,1.5c0,0.8,0.6,1.5,1.5,1.5c0.8,0,1.5-0.7,1.5-1.5
				C919.5,149.2,918.8,148.5,918,148.5z"/>
			<path class="st6" d="M920.3,144.4h-3.8h-0.3h-1.8v-7.6c0,0-2-0.8-4.6-0.8c-4,0-5.8,2.6-5.8,5.5c0,3.1,1.6,5.1,5.9,5.1h6.4h0.3
				h6.7v-10.3h-2.9V144.4z M911.5,144.4h-1.4c-2.3,0-3.3-1.1-3.3-3.1c0-1.7,1-3,2.6-3c1.3,0,2.1,0.4,2.1,0.4V144.4z"/>
			<path class="st6" d="M921.6,148.5c-0.8,0-1.5,0.7-1.5,1.5c0,0.8,0.6,1.5,1.5,1.5c0.8,0,1.5-0.7,1.5-1.5
				C923.1,149.2,922.5,148.5,921.6,148.5z"/>
			<path class="st6" d="M949.6,135.5l-2.8,0.4c0.4,1.7,0.6,3.7,0.6,5.9c0,0.7-0.1,1.8-0.2,2.6h-0.8c-1.9,0-2.4-0.6-2.4-2.4v-5.2
				h-2.8v5.3c0,1.6-0.4,2.5-1.6,2.5c-1.3,0-1.7-0.9-1.7-2.6v-4.4h-2.9v4c0,2.2-0.5,2.8-2,2.8h-0.4h-0.3h-1.8v-8.1h-2.9v10.6
				c0,2.4-0.9,3.1-2.4,3.1c-0.7,0-1.3-0.1-1.8-0.3l-0.2,2.3c0.5,0.1,1.2,0.2,1.8,0.2c4.5,0,5.4-2.7,5.4-5.5v-0.1h1.8h0.3h0.4
				c1.6,0,2.5-0.6,2.9-1.6c0.4,1.1,1.5,1.8,3.1,1.8c1.4,0,2.7-0.6,3.2-1.8c0.5,1.2,1.6,1.6,3.6,1.6h4.1c0.2-1.6,0.3-3.5,0.3-5.1
				C950.3,139.4,950,137.2,949.6,135.5z"/>
		</g>
		<g>
			<path class="st1" d="M736.3,148.4c0,1-1.1,1.5-2.8,2.2l-4.9,1.9c-1.3,0.5-1.9,1.3-1.9,2.3c0,0.3,0.1,0.7,0.2,1.1l0.2-0.1
				c0-0.1,0-0.1,0-0.2c0-0.9,1.3-1.4,2.8-2l4.9-1.9c1.3-0.5,1.9-1.3,1.9-2.2c0-0.4-0.1-0.7-0.2-1.1L736.3,148.4z"/>
			<path class="st1" d="M764.8,96.9c1.7,0,3.1-1.4,3.1-3.1v-2c0-1.2,0-2.3,0.7-2.4v-0.2c-0.4,0-0.8,0.1-1.1,0.3h-2.8
				c-1.8,0-3.4,1.6-3.4,3.4v1.2C761.4,95.8,762.9,96.9,764.8,96.9z M762.5,92.9c0-1.3,1-2.3,2.5-2.3h2c-0.1,0.2-0.1,0.4-0.1,0.6v2.5
				c0,1.2-1,2.1-2.1,2.1c-1.3,0-2.3-0.8-2.3-1.7V92.9z"/>
			<path class="st1" d="M790.7,79.1c0,0.3,0.1,0.7,0.2,1l0.9,2.5c0.1,0.2,0.1,0.5,0.1,0.8c0,1-0.9,2.1-2.1,2.1
				c-0.9,0-1.8-0.7-2.3-1.7l-1.5-3.8l-1,0.4l1.6,4.2c0.1,0.2,0.1,0.5,0.1,0.7c0,1-0.8,2.2-2.1,2.2c-0.9,0-1.8-0.6-2.2-1.7l-1.5-3.8
				l-1.1,0.4l1.7,4.4c0.6,1.2,1.7,1.8,2.8,1.8c1.5,0,3.1-1,3.4-2.6c0.6,0.4,1.3,0.6,2,0.6c1.8,0,3.2-1.6,3.2-3.3
				c0-0.4-0.1-0.7-0.2-1.1l-0.8-2c-0.3-0.8-0.6-1.5-0.6-2c0-0.3,0.1-0.5,0.3-0.7l0-0.1C791.2,77.8,790.7,78.3,790.7,79.1z"/>
			<path class="st1" d="M782.4,78.2c1.9,0,4-1.1,5.2-3.5l1.5-2.5l0.9-1.6c0.5-0.8,0.9-1.7,1.4-1.7c0.1,0,0.2,0,0.2,0l0.1-0.1
				c-0.4-0.2-0.7-0.3-1-0.3l-2.2-1.2c-0.5-0.3-1-0.4-1.5-0.4c-1.1,0-2.3,0.6-2.8,1.6l-0.6,1c-0.2,0.4-0.3,0.8-0.3,1.1
				c0,1.3,1.3,3.1,3.1,3.1c0.2,0,0.4,0,0.6-0.1l-0.3,0.6c-1.3,2.4-3.2,3.4-4.9,3.4c-1.2,0-2.3-0.5-3-1.4l-0.1,0.1
				C779.6,77.5,780.9,78.2,782.4,78.2z M786.6,72.7c-1.3,0-2.1-1.2-2.1-2c0-0.2,0.1-0.4,0.2-0.6l0.5-1c0.4-0.7,1.1-1.1,1.9-1.1
				c0.4,0,0.8,0.1,1.2,0.3l1.4,0.8l-1.7,3.1C787.5,72.5,787,72.7,786.6,72.7z"/>
			<polygon class="st1" points="806.5,98.3 803.6,95.4 800.8,98.3 803.6,101.1 			"/>
			<path class="st1" d="M829,89.6v0.4c2.1,0.2,2.1,3.7,2.1,7.2v20c0,4.5-3.4,7.1-5.8,7.3h-4.7v-6.1c0-5.7-4-11.3-10.4-11.8h-6.7
				c-6.7,0-12.2,2.7-15.3,6.4l-0.1,0.1V97.3c0-3.6-2.1-5.1-5.2-5.2v0.3c1.9,0.2,1.9,3.1,1.9,6v23.6c0,0.9,0.1,1.9,0.3,2.4h-5.4
				c-4.8,0-6.6-1.3-7.3-4.4V116c0-5.5-3.9-9.6-9.7-9.6h-2.5c-3.3,0-6.6,0-6.7-1.9h-0.3c0.1,1.4,0.5,2.7,1.2,3.5
				c0.7,0.9,1.5,1.6,4.2,1.6h4.2c2.6,0,4,0.9,4.8,2c0.8,1.1,1.2,1.7,1.6,5v8h-5.1V115h-3.6c-5.3,0-9.8,4.5-9.9,9.5h-3.3h-0.1h-8.8
				v-18h-3.3v21.2c0,11.5-6.9,18.9-15,18.9c-1.5,0-2.8-0.3-4.2-1l-0.3,0.6c2.1,0.8,4,1.2,5.9,1.2c4.7,0,8.6-1.8,11.7-5.4
				c3.6-3.8,5.1-8.5,5.1-14.3h8.8h0.1h25.1v-2.1c1.7,1.4,3.4,2,7.2,2.1v0h45.8v0c0.8,0,1.8-0.3,2.9-0.9c3.6-1.7,6-5.6,6-9.6V95.6
				C834.3,91.3,832.1,89.7,829,89.6z M760.8,124.5h-7c0-3.4,2.7-6.1,6.5-6.2h0.6V124.5z M817.3,124.5h-31.9c0-0.1-0.1-0.6-0.1-0.9
				c0-6.9,6-13.8,17.9-13.8h6.7c4.9,0.5,7.4,4.6,7.4,8.6V124.5z"/>
			<path class="st1" d="M839.8,89.8v0.4c1.7,0.3,2,1.8,2,7.5v30h3.3V96C845,92,843.2,89.9,839.8,89.8z"/>
			<path class="st1" d="M863.6,85.7c1.9,0,4-1.1,5.2-3.5l1.5-2.5l0.9-1.6c0.5-0.8,0.9-1.7,1.4-1.7c0.1,0,0.2,0,0.2,0l0.1-0.1
				c-0.4-0.2-0.7-0.3-1-0.3l-2.2-1.2c-0.5-0.3-1-0.4-1.5-0.4c-1.1,0-2.3,0.6-2.8,1.6l-0.6,1c-0.2,0.4-0.3,0.8-0.3,1.1
				c0,1.3,1.3,3.1,3.1,3.1c0.2,0,0.4,0,0.6-0.1l-0.3,0.6c-1.3,2.4-3.2,3.4-4.9,3.4c-1.2,0-2.3-0.5-3-1.4l-0.1,0.1
				C860.8,85,862.1,85.7,863.6,85.7z M867.8,80.1c-1.3,0-2.1-1.2-2.1-2c0-0.2,0.1-0.4,0.2-0.6l0.5-1c0.4-0.7,1.1-1.1,1.9-1.1
				c0.4,0,0.8,0.1,1.2,0.3l1.4,0.8l-1.7,3.1C868.7,80,868.2,80.1,867.8,80.1z"/>
			<polygon class="st1" points="869.1,98.4 872,101.3 874.9,98.4 872,95.6 			"/>
			<path class="st1" d="M870,105.6c-5.5,0-10.3,4.8-10.3,10.3v3.6c0,4.8,4.7,8.3,10.2,8.3c5.1,0,9.4-4.2,9.4-9.3v-6
				c0-3.5,0-7,2.1-7.2v-0.5c-1.1,0.1-2.3,0.3-3.1,0.8H870z M876.1,110.8v7.6c0,3.4-2.9,6.1-6.2,6.1c-3.9,0-6.8-2.5-6.8-5.1v-3.6
				c0-3.8,3.1-7,7.4-7h5.8C876.1,109.4,876.1,109.9,876.1,110.8z"/>
			<polygon class="st1" points="863.2,98.4 866.2,101.3 869,98.4 866.2,95.6 			"/>
			<path class="st1" d="M941.2,101.3c0-0.1,0-0.1,0-0.2c0-0.9,1.3-1.4,2.8-2l4.9-1.9c1.3-0.5,1.9-1.3,1.9-2.2c0-0.4-0.1-0.7-0.2-1.1
				l-0.2,0.1c0,1-1.1,1.5-2.8,2.2l-4.9,1.9c-1.3,0.5-1.9,1.3-1.9,2.3c0,0.3,0.1,0.7,0.2,1.1L941.2,101.3z"/>
			<path class="st1" d="M948.4,105.7h-6.9c-10.6,0-18.6,6.3-19.3,14.5c-0.7-2.6-2.2-5.2-4.4-7.3l-0.4,0.3c2.4,2.2,3.2,5.4,3.2,8.8
				c0,1.3-0.3,2.2-0.9,2.5h-2.7c-3.4-0.3-5.9-2.2-6.2-5.5V94.4c0-4.3-2.1-6-5.4-6.1v0.5c2,0.3,2.1,3.6,2.1,7.4v20.6
				c0,4.4-3,7.7-6.8,7.7h-2.9v-14.9c0-4.3-2.1-6-5.5-6.2v0.5c2,0.3,2.2,3.8,2.2,7.5v13.1h-10.9v3.3h17.1c3.5,0,7-2.5,8-4.5
				c1.7,2.9,4.8,4.5,8.2,4.5v0h42.6V118C959.7,111.8,954.5,106.2,948.4,105.7z M956.3,124.5h-33.5v-1c0-8.3,7.6-14.5,18.8-14.5h3.4
				c2.9,0,4.8,0.4,6.2,0.9c3.4,1.7,5.1,4.4,5.1,8.1V124.5z"/>
		</g>
	</g>
</g>
<g>
	
		<radialGradient id="SVGID_4_" cx="242.5566" cy="251.8589" r="54.2731" fx="231.4162" fy="235.8153" gradientUnits="userSpaceOnUse">
		<stop  offset="0.1436" style="stop-color:#FFF75D"/>
		<stop  offset="0.5314" style="stop-color:#FFDE00"/>
		<stop  offset="0.9166" style="stop-color:#FF7D00"/>
	</radialGradient>
	<circle class="st9" cx="243.6" cy="254.4" r="48.7"/>
	<g>
		<path class="st10" d="M243.6,205.7c-26.9,0-48.7,21.8-48.7,48.7c0,26.9,21.8,48.7,48.7,48.7c26.9,0,48.7-21.8,48.7-48.7
			C292.3,227.5,270.5,205.7,243.6,205.7z M241.9,299.9c-25.1,0-45.5-20.4-45.5-45.5c0-25.1,20.4-45.5,45.5-45.5
			c25.1,0,45.5,20.4,45.5,45.5C287.4,279.5,267,299.9,241.9,299.9z"/>
		<path class="st10" d="M248.9,189.6c0,2.7-2,4.9-4.6,4.9l0,0c-2.5,0-4.6-2.2-4.6-4.9v-8.7c0-2.7,2-4.9,4.6-4.9l0,0
			c2.5,0,4.6,2.2,4.6,4.9V189.6z"/>
		<path class="st10" d="M248.9,322.8c0,2.7-2,4.9-4.6,4.9l0,0c-2.5,0-4.6-2.2-4.6-4.9v-8.7c0-2.7,2-4.9,4.6-4.9l0,0
			c2.5,0,4.6,2.2,4.6,4.9V322.8z"/>
		<path class="st10" d="M306.6,256.4c-2.7,0-4.9-2-4.9-4.6l0,0c0-2.5,2.2-4.6,4.9-4.6h8.7c2.7,0,4.9,2,4.9,4.6l0,0
			c0,2.5-2.2,4.6-4.9,4.6H306.6z"/>
		<path class="st10" d="M173.3,256.4c-2.7,0-4.9-2-4.9-4.6l0,0c0-2.5,2.2-4.6,4.9-4.6h8.7c2.7,0,4.9,2,4.9,4.6l0,0
			c0,2.5-2.2,4.6-4.9,4.6H173.3z"/>
		<path class="st10" d="M291.6,211.1c-1.9,1.9-4.9,2.1-6.7,0.3l0,0c-1.8-1.8-1.7-4.8,0.3-6.7l6.2-6.2c1.9-1.9,4.9-2.1,6.7-0.3l0,0
			c1.8,1.8,1.7,4.8-0.3,6.7L291.6,211.1z"/>
		<path class="st10" d="M197.4,305.3c-1.9,1.9-4.9,2.1-6.7,0.3l0,0c-1.8-1.8-1.7-4.8,0.3-6.7l6.2-6.2c1.9-1.9,4.9-2.1,6.7-0.3l0,0
			c1.8,1.8,1.7,4.8-0.3,6.7L197.4,305.3z"/>
		<path class="st10" d="M285.1,299.1c-1.9-1.9-2-4.9-0.3-6.7l0,0c1.8-1.8,4.8-1.7,6.7,0.3l6.2,6.2c1.9,1.9,2.1,4.9,0.3,6.7l0,0
			c-1.8,1.8-4.8,1.7-6.7-0.3L285.1,299.1z"/>
		<path class="st10" d="M190.9,204.9c-1.9-1.9-2-4.9-0.3-6.7l0,0c1.8-1.8,4.8-1.7,6.7,0.3l6.2,6.2c1.9,1.9,2.1,4.9,0.3,6.7l0,0
			c-1.8,1.8-4.8,1.7-6.7-0.3L190.9,204.9z"/>
	</g>
	<defs>
		<filter id="Adobe_OpacityMaskFilter" filterUnits="userSpaceOnUse" x="197.7" y="209.7" width="72.7" height="48.8">
			<feFlood  style="flood-color:white;flood-opacity:1" result="back"/>
			<feBlend  in="SourceGraphic" in2="back" mode="normal"/>
		</filter>
	</defs>
	<mask maskUnits="userSpaceOnUse" x="197.7" y="209.7" width="72.7" height="48.8" id="SVGID_5_">
		<g class="st11">
			<defs>
				<filter id="Adobe_OpacityMaskFilter_1_" filterUnits="userSpaceOnUse" x="197.7" y="209.7" width="72.7" height="48.8">
					<feFlood  style="flood-color:white;flood-opacity:1" result="back"/>
					<feBlend  in="SourceGraphic" in2="back" mode="normal"/>
				</filter>
			</defs>
			<mask maskUnits="userSpaceOnUse" x="197.7" y="209.7" width="72.7" height="48.8" id="SVGID_5_">
				<g class="st12">
				</g>
			</mask>
			
				<radialGradient id="SVGID_6_" cx="232.5966" cy="214.125" r="50.6721" fx="249.7727" fy="188.0118" gradientUnits="userSpaceOnUse">
				<stop  offset="0.2627" style="stop-color:#FFFFFF"/>
				<stop  offset="0.7268" style="stop-color:#FFFFFF"/>
				<stop  offset="0.9716" style="stop-color:#000000"/>
			</radialGradient>
			<path class="st13" d="M212.4,220.5c9-9.2,32.2-15.4,48.6-6.2c16.4,9.2,11,26.7-15.4,25.7c-26.4-1-42.3,8.6-44.4,16.8
				C199.2,265,190.1,243.2,212.4,220.5z"/>
		</g>
	</mask>
	
		<radialGradient id="SVGID_7_" cx="232.5966" cy="214.125" r="50.6721" fx="249.7727" fy="188.0118" gradientUnits="userSpaceOnUse">
		<stop  offset="0.2627" style="stop-color:#FFFFFF"/>
		<stop  offset="0.7268" style="stop-color:#FFF75D"/>
		<stop  offset="0.9716" style="stop-color:#FFDE00"/>
	</radialGradient>
	<path class="st14" d="M212.4,220.5c9-9.2,32.2-15.4,48.6-6.2c16.4,9.2,11,26.7-15.4,25.7c-26.4-1-42.3,8.6-44.4,16.8
		C199.2,265,190.1,243.2,212.4,220.5z"/>
</g>
</svg>
