<?xml version="1.0" encoding="utf-8"?>
<!-- Generator: Adobe Illustrator 21.1.0, SVG Export Plug-In . SVG Version: 6.00 Build 0)  -->
<svg version="1.1" id="Layer_1" xmlns="http://www.w3.org/2000/svg" xmlns:xlink="http://www.w3.org/1999/xlink" x="0px" y="0px"
	 viewBox="0 0 1024 768" style="enable-background:new 0 0 1024 768;" xml:space="preserve">
<style type="text/css">
	.st0{fill:url(#SVGID_1_);}
	.st1{fill:#622272;}
	.st2{fill:url(#SVGID_2_);}
	.st3{fill:url(#SVGID_3_);}
	.st4{fill:#C94876;}
	.st5{fill-rule:evenodd;clip-rule:evenodd;fill:#F6DFB4;}
	.st6{fill:#D1D3D4;}
	.st7{fill:#FFFFFF;}
	.st8{fill:#1D5A69;}
	.st9{fill:url(#SVGID_4_);}
	.st10{fill:url(#SVGID_5_);}
	.st11{fill:#FF8A00;}
	.st12{filter:url(#Adobe_OpacityMaskFilter);}
	.st13{filter:url(#Adobe_OpacityMaskFilter_1_);}
	.st14{mask:url(#SVGID_6_);fill:url(#SVGID_7_);}
	.st15{fill:url(#SVGID_8_);}
</style>
<g>
	<g>
		<g>
			<linearGradient id="SVGID_1_" gradientUnits="userSpaceOnUse" x1="245.2062" y1="139.1571" x2="245.2062" y2="722.1481">
				<stop  offset="0.3212" style="stop-color:#1C75BC"/>
				<stop  offset="0.3967" style="stop-color:#247BBF"/>
				<stop  offset="0.517" style="stop-color:#3C8AC7"/>
				<stop  offset="0.667" style="stop-color:#61A4D5"/>
				<stop  offset="0.839" style="stop-color:#95C7E8"/>
				<stop  offset="1" style="stop-color:#CCECFC"/>
			</linearGradient>
			<path class="st0" d="M395.5,267.9h-6.1c-1.8-28.2-25.9-59.6-71.7-93.4c-35-25.9-70.5-43.7-70.9-43.9c-1-0.5-2.2-0.5-3.1,0
				c-0.3,0.2-35.9,18-70.9,43.9c-45.7,33.8-69.8,65.2-71.7,93.4H95c-1.9,0-3.5,1.6-3.5,3.5v360.2h307.5V271.4
				C398.9,269.5,397.4,267.9,395.5,267.9z"/>
		</g>
	</g>
</g>
<g>
	<path class="st1" d="M692.6,213c-0.8,0-1.5,0.7-1.5,1.5c0,0.8,0.7,1.5,1.5,1.5c0.8,0,1.5-0.7,1.5-1.5
		C694.1,213.7,693.4,213,692.6,213z"/>
	<path class="st1" d="M692.6,220.5c-0.8,0-1.5,0.7-1.5,1.5c0,0.8,0.7,1.5,1.5,1.5c0.8,0,1.5-0.7,1.5-1.5
		C694.1,221.1,693.4,220.5,692.6,220.5z"/>
	<polygon class="st1" points="712.8,203.3 707.1,204.4 707.1,205.6 712.8,204.5 	"/>
	<polygon class="st1" points="712.8,200.8 707.1,201.9 707.1,203.1 712.8,202.1 	"/>
	<path class="st1" d="M717.5,215.2l-1.5,1.2c0.8,1.8,1.5,3.5,1,4.7c-0.5,0.2-1.3,0.3-2.5,0.3h-0.7l0,0c0,0,0,0,0,0
		c-2,0-2.8-0.4-2.8-2.3v-12.1l-0.1-0.1l-1.7,0.4V218c-0.2,0.4-0.5,0.7-0.7,1c-1-2-3.4-5.4-6.4-8.1l-0.2,0.1l-0.7,1.9
		c2.8,2.6,4.8,4.7,6.1,7.1c-1.6,1.1-3.6,1.5-5.9,1.6l-0.1,0.1l0.8,1.7c2.7,0,5.3-0.8,7.2-3c0.4,2.3,2,2.9,4.1,2.9c0,0,0,0,0,0l0,0
		h0.7c2.2,0,3.1-0.2,3.8-0.8c0.7-0.7,1.2-1.9,1.2-2.9c0-1-0.5-2.6-1.2-4.3H717.5z"/>
	<path class="st1" d="M717,211.4c-0.3-0.3-0.5-0.7-0.5-1.1c0-0.5,0.3-1,1-1c0.3,0,0.7,0.1,1.2,0.3l0.4-1.4c-0.6-0.2-1.3-0.4-1.8-0.4
		c-1.4,0-2.2,0.8-2.2,2.1c0,0.6,0.2,1.1,0.5,1.5c-0.4,0-0.8,0-1.2,0l0.1,1.4c2.1-0.1,3.7-0.2,5-0.4l-0.1-1.3
		C718.7,211.2,717.9,211.3,717,211.4z"/>
	<path class="st1" d="M731.5,212.3c-1.9,0-3.5,2.4-3.5,4.6c0,1.7,1,2.8,3.1,2.8c1,0,1.8-0.1,2.5-0.3c0,0.6-0.1,1.2-0.2,1.5
		c-0.7,0.3-2.2,0.5-6.8,0.5l0,0c0,0,0,0,0,0c-2,0-2.8-0.4-2.8-2.3v-12.1l-0.1-0.1l-1.7,0.4v12c0,3.1,1.8,4,4.2,4c0,0,0,0,0,0l0,0
		c4.5,0,6.3-0.1,7.6-0.8c1.1-0.8,1.5-2.1,1.5-4.4C735.2,215.1,733.8,212.3,731.5,212.3z M731.4,217.8c-1.2,0-1.9-0.4-1.9-1.2
		c0-1.3,1-2.5,1.9-2.5c1.1,0,2.1,1.7,2.2,3.5C733,217.8,732.3,217.8,731.4,217.8z"/>
	<polygon class="st1" points="734.7,207.8 732.7,206.5 731.5,208.3 733.5,209.7 	"/>
	<polygon class="st1" points="731.3,207.8 729.4,206.5 728.2,208.3 730.1,209.7 	"/>
	<polygon class="st1" points="750.6,208.4 748.7,207.1 747.5,208.9 749.4,210.3 	"/>
	<polygon class="st1" points="747.3,208.4 745.3,207.1 744.1,208.9 746.1,210.3 	"/>
	<path class="st1" d="M778.9,215.5c-2.2,0-3.4,2.9-4.3,4.3c-0.6,1.1-1.1,1.5-2.2,1.5c-1.5,0-2.3-0.4-2.9-0.7
		c0.2-0.7,0.3-1.6,0.3-2.6c0-0.3,0-0.7,0-1.1l-0.2-0.1l-1.7,0.6c0,0.5,0.1,0.9,0.1,1.3c0,1.1-0.2,1.8-0.4,2.2
		c-0.4,0.3-1,0.4-1.6,0.4c-0.6,0-1.2-0.1-1.7-0.3c0.4-0.8,0.7-1.8,1.1-2.9l-0.1-0.1l-1.9,0.3c-0.4,1.4-0.8,2.4-1.1,2.8
		c-0.3,0.2-0.8,0.3-1.2,0.3c-0.9,0-2.1-0.3-2.8-0.6c0.4-0.7,0.7-1.6,1.1-2.6l-0.1-0.1l-2,0.3c-0.4,1.3-0.7,2.1-1,2.5
		c-0.5,0.3-1.5,0.5-3,0.5c-1.9,0-2.8-0.2-2.8-2.1v-7.4l-0.2,0l-1.7,0.8v1.2c-3.6,1.1-5.5,3.3-5.5,5.1c0,1.6,1.5,2.7,4,2.7
		c0.6,0,1.2-0.1,1.8-0.2c0.6,1.5,2,1.9,3.9,1.9c0,0,0,0,0,0l0,0c2.2,0,3.5-0.3,4.4-1.1c0.8,0.6,2.1,1.1,3.7,1.1c1,0,1.7-0.2,2.2-0.6
		c0.8,0.4,1.7,0.6,2.7,0.6c1.2,0,2.1-0.3,2.9-1c1,0.8,2.3,1,3.3,1v0c0,0,0,0,0,0c0,0,0,0,0,0c0,0,0,0,0,0c1.7,0,2.8-0.4,3.6-1.5
		c1.7,1.2,3.6,1.8,4.8,1.8c1.6,0,2.4-1,2.4-2.6C782.9,218.2,781.1,215.5,778.9,215.5z M748.6,219.3v0.2c-0.5,0.1-0.9,0.1-1.4,0.1
		c-1,0-2.3-0.4-2.6-1.2c0.3-1,1.8-2.1,4-2.8V219.3z M781,221.4c-0.3,0.2-0.7,0.3-1,0.3c-0.7,0-2.1-0.5-3.5-1.4
		c1-1.8,1.5-2.9,2.4-2.9C780.1,217.4,781.3,220.2,781,221.4z"/>
	<polygon class="st1" points="795.9,210.6 794,209.2 792.7,211.1 794.7,212.4 	"/>
	<path class="st1" d="M807.4,207.3V219c0,0.9-0.1,1.5-0.2,1.9c-0.6,0.4-1.5,0.5-2.2,0.5c-2.1,0-3.3-0.2-4-0.9
		c0.6-0.1,1.2-0.2,1.8-0.3l0.4-1.7c-1.1-0.1-2.3-0.5-4.7-1.8c-2-1.1-3.2-1.6-4.2-1.6c-0.7,0-1.6,0.2-2.1,0.5l-0.7,1.8l0.1,0.1
		c0.7-0.3,1.5-0.5,2.4-0.5c1.1,0,2.1,0.4,4,1.4c0.7,0.4,1.2,0.6,1.7,0.8c-1.1,0.2-2.3,0.5-3.8,1c-2.5,0.8-3.8,1.1-5.4,1.1
		c-2,0-2.8-0.4-2.8-2.3v-12.1l-0.1-0.1l-1.7,0.4v12c0,3.1,1.8,4,4.2,4c0,0,0,0,0,0l0,0c1.8,0,3.3-0.3,6.4-1.4c1-0.4,1.9-0.6,2.7-0.9
		c0.8,1.5,2.2,2.3,5.4,2.3l0,0c0,0,0,0,0,0c0,0,0,0,0,0c0,0,0,0,0,0c2.9,0,4.7-0.9,4.7-4.4v-11.9l-0.2-0.1L807.4,207.3z"/>
	<polygon class="st1" points="812.4,207.3 812.4,223.3 812.6,223.4 814.3,223 814.3,206.9 814.2,206.8 	"/>
	<polygon class="st1" points="829.1,209.6 827.2,208.3 825.9,210.1 827.9,211.5 	"/>
	<polygon class="st1" points="825.7,209.6 823.8,208.3 822.6,210.1 824.5,211.5 	"/>
	<path class="st1" d="M825.2,213.5l-0.2,0.1l-0.9,1.7l0.5,0.4c-1.6,2.1-2.2,3.5-2.2,4.7c0,1.9,1.3,3,3.4,3c2.3,0,4-1.5,4-3.5
		C829.8,218,828.7,216.6,825.2,213.5z M826,221.5c-1.2,0-1.9-0.6-1.9-1.6c0-0.8,0.4-1.8,1.8-3.2c1.3,1.2,2.1,2.2,2.1,3.2
		C828,220.9,827.3,221.5,826,221.5z"/>
	<polygon class="st1" points="846.9,226.9 848.9,228.3 850.1,226.4 848.1,225.1 	"/>
	<path class="st1" d="M886,207.3V219c0,0.9-0.1,1.5-0.2,1.9c-0.6,0.4-1.5,0.5-2.3,0.5l0,0c0,0,0,0,0,0c-1.6,0-2.7-0.2-2.7-2.6v-11.8
		l-0.2-0.1l-1.7,0.4V219c0,0.9-0.1,1.5-0.2,1.9c-0.6,0.4-1.5,0.5-2.3,0.5c-1.5,0-2.4-0.4-2.9-0.7c0.2-0.7,0.3-1.6,0.3-2.6
		c0-0.3,0-0.7,0-1.1l-0.2-0.1l-1.7,0.6c0,0.5,0.1,0.9,0.1,1.3c0,1.1-0.2,1.8-0.4,2.2c-0.4,0.3-1,0.4-1.6,0.4c-0.6,0-1.2-0.1-1.7-0.3
		c0.4-0.8,0.7-1.8,1.1-2.9l-0.1-0.1l-1.9,0.3c-0.4,1.4-0.8,2.4-1.1,2.8c-0.3,0.2-0.8,0.3-1.2,0.3c-0.9,0-2.1-0.3-2.8-0.6
		c0.4-0.7,0.7-1.6,1.1-2.6l-0.1-0.1l-2,0.3c-0.4,1.3-0.7,2.1-1,2.5c-0.5,0.3-1.5,0.5-3,0.5c-2.1,0-3.3-0.2-4-0.9
		c0.6-0.1,1.2-0.2,1.8-0.3l0.4-1.7c-1.1-0.1-2.3-0.5-4.7-1.8c-2-1.1-3.2-1.6-4.2-1.6c-0.7,0-1.6,0.2-2.1,0.5l-0.7,1.8l0.1,0.1
		c0.7-0.3,1.5-0.5,2.4-0.5c1.1,0,2.1,0.4,4,1.4c0.7,0.4,1.2,0.6,1.7,0.8c-1.1,0.2-2.3,0.5-3.8,1c-2.5,0.8-3.8,1.1-5.4,1.1l0,0
		c0,0,0,0,0,0c-1.2,0-1.7-0.4-2.7-2.3c-0.3-0.7-2.1-4.5-2.8-6h-0.2l-1.4,1.5c1,1.7,2.8,5.2,3.2,6l0.1,0.1c-0.8,0.6-2.5,0.9-3.9,0.9
		c-0.6,0-1.8-0.1-2.6-0.2l-0.1,0.1l-0.3,1.8c0.9,0.2,2.3,0.3,2.8,0.3c2.4,0,4-0.5,4.9-1.4c0.7,1,1.4,1.3,2.5,1.3c0,0,0,0,0,0l0,0
		c1.8,0,3.3-0.3,6.4-1.4c1-0.4,1.9-0.6,2.7-0.9c0.8,1.5,2.2,2.3,5.4,2.3l0,0c0,0,0,0,0,0c0,0,0,0,0,0c0,0,0,0,0,0
		c2.2,0,3.5-0.3,4.4-1.1c0.8,0.6,2.1,1.1,3.7,1.1c1,0,1.7-0.2,2.2-0.6c0.8,0.4,1.7,0.6,2.7,0.6c1.2,0,2.1-0.3,2.9-1
		c1,0.8,2.3,1,3.3,1l0,0c0,0,0,0,0,0c0,0,0,0,0,0c0,0,0,0,0,0c1.8,0,3.1-0.3,4-1.4c0.7,1.2,2.1,1.4,3,1.4v0c0,0,0,0,0,0c0,0,0,0,0,0
		s0,0,0,0c3,0,4.8-0.9,4.8-4.4v-11.9l-0.2-0.1L886,207.3z"/>
	<path class="st1" d="M909.1,206.9l-0.2-0.1l-1.7,0.4v13.1c0,1.9-0.3,3.1-0.6,3.7c-1,1.2-2.4,1.7-4.4,1.7c-3.3,0-4.2-1.6-4.2-4
		c0-0.6,0.1-1.4,0.2-2.2l-0.2-0.1l-1.5,0.5c-0.2,0.6-0.4,1.7-0.4,2.7c0,2.9,1.9,4.9,5.7,4.9c4.7,0,7.2-2.1,7.2-7.5L909.1,206.9z"/>
	<polygon class="st1" points="916.8,211.2 914.8,209.8 913.6,211.6 915.6,213 	"/>
	<polygon class="st1" points="924,210.6 922,209.3 920.8,211.1 922.8,212.5 	"/>
	<path class="st1" d="M923,215.2l-1.6,1.2c0.8,1.8,1.6,3.5,1.1,4.7c-0.5,0.2-1.3,0.3-2.5,0.3h-0.2l0,0c0,0,0,0,0,0
		c-1.6,0-1.9-0.3-2.5-1.9c-0.2-0.6-0.8-2-1.4-3.7h-0.2l-1.4,1.5c0.7,1.4,1.5,2.9,1.8,4c-0.5,1.9-2.2,3.7-6.8,4.6l-0.1,0.2l1,1.4
		c3.8-0.7,6.4-2.7,7.2-4.9c0.4,0.4,1.1,0.6,2,0.6h0.2c2.2,0,3.1-0.2,3.8-0.8c0.7-0.7,1.2-1.9,1.2-2.9c0-1-0.4-2.6-1.2-4.3H923z"/>
	<polygon class="st1" points="927.4,207.3 927.4,223.3 927.6,223.4 929.3,223 929.3,206.9 929.2,206.8 	"/>
	<path class="st1" d="M930.4,203.8c-0.6,0.1-1.4,0.1-2.2,0.2c-0.3-0.3-0.5-0.6-0.5-1c0-0.5,0.3-0.9,0.9-0.9c0.3,0,0.7,0.1,1.1,0.2
		l0.3-1.2c-0.6-0.2-1.2-0.3-1.7-0.3c-1.2,0-2,0.7-2,1.9c0,0.5,0.2,1,0.4,1.4c-0.4,0-0.7,0-1.1,0l0.1,1.3c1.9-0.1,3.4-0.2,4.6-0.3
		L930.4,203.8z"/>
</g>
<g>
	<path class="st1" d="M765,411.8c-0.8,0-1.5,0.7-1.5,1.5c0,0.8,0.7,1.5,1.5,1.5c0.8,0,1.5-0.7,1.5-1.5
		C766.6,412.5,765.9,411.8,765,411.8z"/>
	<path class="st1" d="M765,419.2c-0.8,0-1.5,0.7-1.5,1.5c0,0.8,0.7,1.5,1.5,1.5c0.8,0,1.5-0.7,1.5-1.5
		C766.6,419.9,765.9,419.2,765,419.2z"/>
	<path class="st1" d="M788.5,413.9c-0.7,0-1.6,0.2-2.1,0.5l-0.7,1.7l0.1,0.1c0.7-0.2,1.5-0.5,2.4-0.5c1.1,0,2.1,0.3,4,1.4
		c0.7,0.4,1.2,0.7,1.7,0.9c-1,0.2-2.2,0.5-3.8,1c-2.6,0.8-3.9,1.1-5.4,1.1l0,0c0,0,0,0,0,0c-1.2,0-1.7-0.4-2.7-2.3
		c-0.3-0.7-2.1-4.5-2.8-6H779l-1.4,1.5c1,1.7,2.8,5.2,3.2,6l0.1,0.1c-0.8,0.6-2.5,0.9-3.9,0.9c-0.6,0-1.8-0.1-2.6-0.2l-0.1,0.1
		l-0.3,1.8c0.9,0.2,2.3,0.3,2.8,0.3c2.4,0,4-0.5,4.9-1.4c0.7,1,1.4,1.3,2.5,1.3c0,0,0,0,0,0l0,0c1.7,0,3.3-0.3,6.3-1.4
		c2.6-0.9,4.5-1.4,6.5-1.6l0.5-1.7c-1.2-0.1-2.5-0.6-4.6-1.8C790.7,414.4,789.6,413.9,788.5,413.9z"/>
	<polygon class="st1" points="788.8,425.6 790.8,427 792,425.2 790,423.8 	"/>
	<path class="st1" d="M820.1,413.9l-1.6,1.2c0.8,1.8,1.5,3.5,1,4.7c-0.5,0.2-1.3,0.3-2.2,0.3c-0.6,0-1.2-0.1-1.7-0.3
		c0.4-0.8,0.7-1.8,1.1-2.9l-0.1-0.1l-1.9,0.3c-0.4,1.4-0.8,2.4-1.1,2.8c-0.3,0.2-0.8,0.3-1.2,0.3c-0.9,0-2.1-0.3-2.8-0.6
		c0.4-0.7,0.7-1.6,1.1-2.6l-0.1-0.1l-2,0.3c-0.4,1.3-0.7,2.1-1,2.5c-0.5,0.3-1.5,0.5-3,0.5c-2,0-2.8-0.4-2.8-2.3v-12.1l-0.1-0.1
		l-1.7,0.4v12c0,3.1,1.8,4,4.2,4c0,0,0,0,0,0l0,0c2.2,0,3.5-0.3,4.4-1.1c0.8,0.6,2.1,1.1,3.7,1.1c1,0,1.7-0.2,2.2-0.6
		c0.8,0.4,1.7,0.6,2.7,0.6c2.6,0,4.3-1,4.3-3.7c0-1-0.5-2.6-1.2-4.3L820.1,413.9z"/>
	<path class="st1" d="M838.2,413.9l-1.6,1.2c0.8,1.8,1.6,3.5,1.1,4.7c-0.5,0.2-1.3,0.3-2.5,0.3h-0.2l0,0c0,0,0,0,0,0
		c-2,0-2.8-0.4-2.8-2.3v-12.1l-0.1-0.1l-1.7,0.4v12c0,3.1,1.8,4,4.2,4c0,0,0,0,0,0l0,0h0.2c2.2,0,3.1-0.2,3.8-0.8
		c0.7-0.7,1.2-1.9,1.2-2.9c0-1-0.4-2.6-1.2-4.3H838.2z"/>
	<polygon class="st1" points="839.2,409.4 837.2,408 836,409.9 838,411.2 	"/>
	<polygon class="st1" points="842.6,406.1 842.6,422 842.8,422.1 844.5,421.8 844.5,405.7 844.4,405.6 	"/>
	<path class="st1" d="M843.4,402.7c-0.3-0.3-0.5-0.6-0.5-1c0-0.5,0.3-0.9,0.9-0.9c0.3,0,0.7,0.1,1.1,0.2l0.3-1.2
		c-0.6-0.2-1.2-0.3-1.7-0.3c-1.2,0-2,0.7-2,1.9c0,0.5,0.2,1,0.4,1.4c-0.4,0-0.7,0-1.1,0l0.1,1.3c1.9-0.1,3.4-0.2,4.6-0.3l-0.1-1.2
		C845,402.6,844.2,402.7,843.4,402.7z"/>
	<path class="st1" d="M851.2,414.2c-1.9,0-3.5,2.4-3.5,4.6c0,1.7,1,2.8,3.1,2.8c0.9,0,1.7-0.1,2.3-0.3c-0.7,2-3.1,3.1-6.5,3.3
		l-0.1,0.2l1,1.4c5.1-0.1,7.3-3.1,7.3-6.2C854.9,417.1,853.5,414.2,851.2,414.2z M851.2,419.8c-1.2,0-1.9-0.4-1.9-1.2
		c0-1.3,1-2.5,1.9-2.5c1.1,0,2.1,1.7,2.2,3.5C852.7,419.7,852,419.8,851.2,419.8z"/>
	<path class="st1" d="M874.2,406.1v13.1c0,1.9-0.3,3.1-0.6,3.7c-1,1.2-2.4,1.7-4.4,1.7c-3.3,0-4.2-1.6-4.2-4c0-0.6,0.1-1.4,0.2-2.2
		l-0.2-0.1l-1.5,0.5c-0.2,0.6-0.4,1.7-0.4,2.7c0,2.9,1.9,4.9,5.7,4.9c4.7,0,7.2-2.1,7.2-7.5l0-13.2l-0.2-0.1L874.2,406.1z"/>
	<polygon class="st1" points="896.5,406.6 894.5,405.2 893.3,407.1 895.2,408.4 	"/>
	<polygon class="st1" points="893.1,406.6 891.1,405.2 890,407.1 891.9,408.4 	"/>
	<path class="st1" d="M893.3,411.1c-1.9,0-3.5,2.4-3.5,4.6c0,1.7,1,2.8,3.1,2.8c1,0,1.8-0.1,2.5-0.3c0,0.6-0.1,1.2-0.2,1.5
		c-0.7,0.3-2.2,0.5-6.8,0.5l0,0c0,0,0,0,0,0h-1.9V420c0-3.1-1.5-5.7-3.6-5.7c-1.9,0-3.5,2.4-3.5,4.7c0,1.9,1.4,3.1,4.4,3.1h0.7
		c-1,1.6-3.2,2.5-6.1,2.7l-0.1,0.2l1,1.4c4-0.1,6.2-2,7-4.2h1.8c0,0,0,0,0,0l0,0c4.5,0,6.3-0.1,7.6-0.8c1.1-0.8,1.5-2.1,1.5-4.4
		C896.9,413.9,895.5,411.1,893.3,411.1z M884.9,420.1h-1c-2.2,0-3.1-0.5-3.1-1.4c0-1.6,1-2.6,1.9-2.6c1.1,0,2.2,1.8,2.2,3.8V420.1z
		 M893.2,416.6c-1.2,0-1.9-0.4-1.9-1.2c0-1.3,1-2.5,1.9-2.5c1.1,0,2.1,1.7,2.2,3.5C894.7,416.5,894.1,416.6,893.2,416.6z"/>
	<polygon class="st1" points="899.9,406.1 899.9,422 900.1,422.1 901.8,421.8 901.8,405.7 901.7,405.6 	"/>
	<path class="st1" d="M900.8,402.7c-0.3-0.3-0.5-0.6-0.5-1c0-0.5,0.3-0.9,0.9-0.9c0.3,0,0.7,0.1,1.1,0.2l0.3-1.2
		c-0.6-0.2-1.2-0.3-1.7-0.3c-1.2,0-2,0.7-2,1.9c0,0.5,0.2,1,0.4,1.4c-0.4,0-0.7,0-1.1,0l0.1,1.3c1.9-0.1,3.4-0.2,4.6-0.3l-0.1-1.2
		C902.3,402.6,901.5,402.7,900.8,402.7z"/>
	<polygon class="st1" points="927.9,406.7 926,405.3 924.8,407.1 926.7,408.5 	"/>
	<polygon class="st1" points="926.5,409.4 924.5,408.1 923.4,409.9 925.3,411.2 	"/>
	<path class="st1" d="M927.1,413.9l-1.5,1.2c0.8,1.8,1.5,3.5,1,4.7c-0.5,0.2-1.3,0.3-2.5,0.3h-0.7l0,0c0,0,0,0,0,0
		c-1.5,0-1.9-0.3-2.8-2.1c-1.4-2.9-2.1-3.7-3.5-3.7c-1.4,0-3.6,1.4-5.2,3.4c-1.2,1.4-1.6,2.5-1.6,4.5c0,1.4,0.3,4.2,0.9,8.4l0.2,0.1
		l1.6-0.8c-0.7-4.8-1.1-9.1-0.8-10.2c0.2-0.3,0.5-0.7,0.8-1c1.9,2.4,3.7,3.5,5.4,3.5c0.7,0,1.3-0.4,1.9-1.2c0.7,0.6,1.5,0.9,2.5,0.9
		c0,0,0,0,0,0l0,0h0.7c2.2,0,3.1-0.2,3.8-0.8c0.7-0.7,1.2-1.9,1.2-2.9c0-1-0.5-2.6-1.2-4.3H927.1z M918.1,420.4
		c-1,0-2.4-1.1-3.9-2.9c1-0.8,2.1-1.4,2.6-1.4c0.6,0,1.3,0.9,2.4,3.3c0,0.1,0.1,0.2,0.2,0.3C919,420.2,918.5,420.4,918.1,420.4z"/>
	<polygon class="st1" points="928,408.1 926.7,409.9 928.7,411.2 929.9,409.4 	"/>
</g>
<linearGradient id="SVGID_2_" gradientUnits="userSpaceOnUse" x1="505.481" y1="325.1092" x2="1024.021" y2="325.1092">
	<stop  offset="0.1199" style="stop-color:#FFFFFF"/>
	<stop  offset="0.9969" style="stop-color:#FEF1D4"/>
</linearGradient>
<rect x="505.5" y="286.6" class="st2" width="518.5" height="77"/>
<linearGradient id="SVGID_3_" gradientUnits="userSpaceOnUse" x1="505.481" y1="540.6135" x2="1024.021" y2="540.6135">
	<stop  offset="0.1199" style="stop-color:#FFFFFF"/>
	<stop  offset="0.9969" style="stop-color:#FEF1D4"/>
</linearGradient>
<rect x="505.5" y="471.6" class="st3" width="518.5" height="138"/>
<g>
	<path class="st4" d="M812.1,328.5c-2.1,2.6-3.6,5.2-3.6,7.9c0,2.2,1.1,3.5,2.9,3.5c1.8,0,2.8-1.5,2.8-2.8c0-2.2-1.8-1.9-1.8-3.4
		c0-1,0.9-2.4,1.9-3.9L812.1,328.5z"/>
	<polygon class="st4" points="840.2,345.9 844.1,348.6 846.4,345 842.6,342.4 	"/>
	<path class="st4" d="M852.2,322.4l-1,5l0.2,0.3c3.5,2.2,7.7,5,7.7,6.7c-1,0.5-3.8,0.9-6.7,0.9H850v0c0,0,0,0,0,0
		c-1.7,0-3.1-0.3-4.1-0.7c0.7-1.6,1.2-3.5,1.7-5.7l-0.4-0.3l-4.6,1.1c-0.4,2.4-0.9,4.1-1.2,5c-0.5,0.3-1.5,0.5-2.8,0.5h-0.6l0,0
		c0,0,0,0,0,0c-2.4,0-3.2-0.4-4.2-3.2l-1.5-4.4h-0.4l-3.2,3.7c0.9,1.9,1.9,4,2.7,5.7c-1.2,2.2-4.5,4.6-10.1,5.6l-0.3,0.4l2.4,3.3
		c5.3-0.9,9.5-3.5,10.8-7.1c0.8,0.3,1.7,0.5,2.9,0.5c0,0,0,0,0,0l0,0h0.7c2.6,0,4.4-0.6,5.8-1.7c1.4,1.1,3.8,1.7,5.6,1.7
		c0,0,0,0,0,0v0h3.6c7.5,0,10.1-2.6,10.1-6.2c0-2-1-4.2-6.9-8.1l7.6-3.8l1.5-5.4l-0.3-0.2L852.2,322.4z"/>
	<path class="st4" d="M873.7,310.3c-0.5-0.4-0.7-0.9-0.7-1.5c0-0.7,0.4-1.2,1.2-1.2c0.4,0,0.9,0.1,1.5,0.3l0.6-2.3
		c-0.9-0.4-1.9-0.6-2.7-0.6c-2.1,0-3.2,1.3-3.2,3.1c0,0.8,0.3,1.6,0.8,2.3c-0.6,0-1.2,0-1.7,0l0.3,2.6c2.8-0.1,5.3-0.3,7-0.5
		l-0.2-2.5C875.8,310.2,874.8,310.2,873.7,310.3z"/>
	<polygon class="st4" points="871,315.9 871,339.8 871.3,340 875.4,339.1 875.5,315 875.2,314.8 	"/>
	<path class="st4" d="M906,316.6c1,0,1.8-0.3,2.4-0.9c0.4,0.5,1.2,0.9,2.1,0.9c2.3,0,3.5-1.6,3.5-3.7c0-1.1-0.3-2-0.5-2.8l-2.5,0.6
		c0.2,0.6,0.4,1.3,0.4,2.1c0,0.8-0.2,1.3-0.9,1.3c-0.6,0-1-0.3-1-1.2c0-0.3,0-0.8,0-1.5l-2.3,0.2c0,2.1-0.3,2.6-1,2.6
		c-0.6,0-0.9-0.4-0.9-1.3c0-0.4,0-1,0.1-1.5l-2.4,0.1c-0.2,0.6-0.3,1.7-0.3,2.1C902.7,315.1,903.5,316.6,906,316.6z"/>
	<rect x="906.7" y="304.6" class="st4" width="3.2" height="4.6"/>
	<polygon class="st4" points="929.7,314.8 925.5,315.9 925.5,339.8 925.8,340 929.9,339.1 930,315 	"/>
	<path class="st4" d="M916.7,315.9v16.2c0,1.3-0.1,2.1-0.3,2.7c-0.7,0.3-1.7,0.5-2.7,0.5c-2.5,0-3.3-0.5-3.3-3.2v-13.1l-0.3-0.2
		l-4.2,1.1v12.3c0,1.3-0.1,2.1-0.3,2.7c-0.7,0.3-1.7,0.5-2.7,0.5c-2.6,0-3.2-0.6-3.2-2.5v-10.8l-0.3-0.1l-4.2,1.6v1.7
		c-5.7,1.9-8.6,5.2-8.6,8.2c0,2.8,2.4,4.6,6.4,4.6c1.2,0,2.2-0.2,3.3-0.6c1.1,1.6,3,2.3,5.4,2.4h0.2c0,0,0.1,0,0.1,0h0.2
		c3.2,0,4.9-0.6,6.1-2.1c1.1,1.5,2.8,2,4.1,2.1h0.3c0,0,0.1,0,0.1,0h0.3c5-0.1,7.9-1.8,7.9-7.8V315l-0.3-0.2L916.7,315.9z
		 M895.3,332.7v0.7c-0.5,0.1-1.1,0.1-1.8,0.1c-1.3,0-2.8-0.5-3.2-1.5c0.4-1.1,2.5-2.2,5-2.8V332.7z"/>
</g>
<g>
	<path class="st4" d="M738.9,519.5c-0.8-1-1.2-2.1-1.2-3.1c0-1.9,1.3-3,3.3-3c1.1,0,2.5,0.3,3.7,0.7l0.1-0.1l0.5-3.8
		c-1.6-0.6-3.5-1.1-5.2-1.1c-4.2,0-7.5,2.5-7.5,6.9c0,1.2,0.3,2.4,0.9,3.5H731c-3,0-3.6-2.1-3.6-5.6v-14.6l-0.4-0.2l-4.1,1.1v13.5
		c0,0.9-0.1,2-0.3,2.7c-1.6,0.7-5.7,1.3-9.6,1.4l0,0c0,0,0,0,0,0l-1.3,3.9c5,1.1,5.9,2.1,5.9,2.8c-1.2,1.3-5.4,2.1-9.6,2.1
		c-5.7,0-7.3-2-7.3-5.1c0-0.8,0.1-1.6,0.4-3.1l-0.4-0.2l-3.7,1.3c-0.3,1.3-0.6,2.8-0.6,4.1c0,4.3,3.5,7.6,10.9,7.6
		c7.9,0,14.2-2.9,14.4-7.7c0-0.8-0.2-1.6-0.9-2.3c1.3-0.3,2.4-0.6,3.3-1c1,2.6,3.1,3.9,5.9,3.9l0,0c0,0,0,0,0,0c0,0,0,0,0,0
		c0,0,0,0,0,0c8.7,0,13.1-0.4,15.9-0.9l1.3-4.1l-0.3-0.3C744.5,519.2,741.9,519.4,738.9,519.5z"/>
	<path class="st4" d="M764.1,499.6l-0.3-0.1l-4,2c0.4,1.5,0.9,4.4,0.9,6.5c0,1.3-0.1,2.4-0.4,3.4c-2.1-2.1-4.7-4.4-7.7-6.7l-0.3,0.1
		l-1.3,4.4c2.1,1.3,5.3,3.6,7.6,5.7c-1.5,2.2-3.7,3.7-6.2,5l-0.3,4.4h5c5.5,0,7.4-2,7.4-5.2c0-1.5-0.7-3.2-1.9-4.9
		c1.2-2.1,2.1-4.6,2.1-7.7C764.8,504.7,764.4,501.5,764.1,499.6z M758,520h-0.8c1-0.6,2.2-1.6,3.4-2.9c0.7,0.8,1.1,1.6,1.1,2.2
		C761.2,519.8,760.1,520,758,520z"/>
	<path class="st4" d="M755.9,500.1c-0.9,0.1-1.9,0.2-3,0.3c-0.5-0.4-0.7-0.9-0.7-1.5c0-0.7,0.4-1.2,1.2-1.2c0.4,0,0.9,0.1,1.5,0.3
		l0.6-2.3c-0.9-0.4-1.9-0.6-2.7-0.6c-2.1,0-3.2,1.3-3.2,3.1c0,0.8,0.3,1.6,0.8,2.3c-0.6,0-1.2,0-1.7,0l0.3,2.6
		c2.8-0.1,5.3-0.3,7-0.5L755.9,500.1z"/>
	<polygon class="st4" points="769.4,500.7 769.4,524.6 769.7,524.8 773.8,523.9 773.9,499.8 773.6,499.6 	"/>
	<path class="st4" d="M810.8,523.5c0-1.6-0.9-2.9-3.8-4.1c1.5-1.1,2-2.4,2-4.1c0-1.6-0.8-3.9-2-6.7h-0.5l-3.6,2.9
		c1,1.9,1.7,3.5,2,5.3c-0.5,0.4-1.5,0.8-2.7,1.2l0,0c0,0,0,0,0,0l-1.3,3.9c5,1.1,5.9,2.1,5.9,2.8c-1.2,1.3-5.4,2.1-9.6,2.1
		c-5.7,0-7.3-2-7.3-5.1c0-0.8,0.1-1.6,0.4-3.1l-0.4-0.2l-3.7,1.3c-0.3,1.3-0.6,2.8-0.6,4.1c0,4.3,3.5,7.6,10.9,7.6
		C804.4,531.2,810.7,528.3,810.8,523.5z"/>
	<polygon class="st4" points="796.9,536.3 793.3,533.8 791.1,537.2 794.7,539.8 796.4,537.3 799.9,539.8 802.2,536.4 798.5,533.8 	
		"/>
	<polygon class="st4" points="804.7,534.6 808.6,537.3 810.9,533.7 807.1,531.1 	"/>
	<path class="st4" d="M820.4,512.5l-3.2,3.6c1.3,2.2,2.5,5,2.6,6.2c0,1.2-3.2,3.3-7.7,4.6l-0.3,0.4l2.2,3.3c4-1,6.6-3,7.9-4.9
		c0.7-1.1,1.3-2.8,1.3-4.6c0-2.2-0.8-5.7-2.4-8.6H820.4z"/>
	<polygon class="st4" points="846.8,509.5 842.9,506.8 840.5,510.4 844.4,513.1 	"/>
	<path class="st4" d="M852.3,513.7l-3.9,2.8c1.8,3.8,2.4,6,2.1,7.8c-1.1,1.5-3.5,2.5-6.2,2.5c-3.7,0-5.6-1.7-5.6-5.1
		c0-1.2,0.1-2.5,0.3-3.4l-0.4-0.1l-3.2,1.2c-0.4,1-0.7,3.2-0.7,4.4c0,4.6,3.3,7.5,8.7,7.5c6.7,0,11.1-3.9,11.1-9.8
		c0-2-0.9-5.3-1.9-7.8H852.3z"/>
	<polygon class="st4" points="891.7,530.7 895.5,533.4 897.9,529.8 894.1,527.1 	"/>
	<path class="st4" d="M927,510.7l-0.2,0l-3.9,2.9c0.9,1.9,2,4.6,1.8,6c-0.8,0.3-2,0.5-3.2,0.5c-0.9,0-1.8-0.1-2.7-0.4
		c0.5-1.3,1-2.9,1.6-4.7l-0.1-0.1l-4.5,0.8c-0.4,1.7-0.8,3.7-1.1,4.1c-0.3,0.2-0.7,0.3-1.3,0.3c-1.2,0-2.6-0.3-3.6-0.6
		c0.5-1.2,1-2.7,1.6-4.5l-0.1-0.1l-4.9,0.8c-0.2,1.5-0.6,3.4-0.9,4c-0.6,0.3-1.6,0.4-4,0.4v0c0,0,0,0,0,0c-1.7,0-3.1-0.3-4.1-0.7
		c0.7-1.6,1.2-3.5,1.7-5.7l-0.4-0.3l-4.6,1.1c-0.4,2.4-0.9,4.1-1.2,5c-0.5,0.3-1.5,0.5-2.8,0.5h-0.6c-3.5,0-5.3-0.2-6.5-0.9
		c1.2-0.3,2.1-0.4,3.1-0.5l0.8-4c-2.5,0-4.8-0.6-8.6-2.3c-2.8-1.3-4.3-1.7-5.5-1.7c-1.2,0-2.4,0.4-3.3,0.8l-1.6,4l0.2,0.1
		c1.2-0.4,2.5-0.7,4.1-0.7c1.5,0,3.1,0.4,6,1.8c0.5,0.2,0.9,0.4,1.2,0.5c-0.8,0.3-1.7,0.5-2.8,1c-4.1,1.5-6.3,1.9-9.9,1.9
		c-2.6,0-3.6-0.7-3.6-3.2v-17.1l-0.4-0.2l-4.1,1.1v16.5c0,5.2,2.4,7.3,7.1,7.3c4,0,7.2-0.8,12.2-3.3l1.3-0.6c1.4,2.5,3.4,4,9.3,4
		l0,0h0.7c2.6,0,4.4-0.6,5.8-1.7c1.4,1.1,3.8,1.7,5.6,1.7c0,0,0,0,0,0v0c3.3,0,5.3-0.4,6.7-1.5c1.2,0.8,3.2,1.5,5.5,1.5
		c1.4,0,2.5-0.3,3.4-1c1.3,0.6,2.7,1,4.8,1c4.5,0,7.8-2.1,7.8-6.4C928.8,516,928,513.3,927,510.7z"/>
</g>
<g>
	<path class="st1" d="M835.9,581.3c-0.8,0-1.5,0.7-1.5,1.5c0,0.8,0.7,1.5,1.5,1.5c0.8,0,1.5-0.7,1.5-1.5
		C837.4,582,836.7,581.3,835.9,581.3z"/>
	<polygon class="st1" points="851.7,573.1 849.7,571.8 848.5,573.6 850.4,575 	"/>
	<polygon class="st1" points="848.3,573.1 846.3,571.8 845.2,573.6 847.1,575 	"/>
	<path class="st1" d="M855.6,576l-1.7,1.2c0.9,2,1.4,3.2,1.2,4.5c-1,0.4-3.2,0.7-5.7,0.7h-1.7c-4.4,0-6.9-0.6-6.9-3.5
		c0-0.6,0.1-1.3,0.2-2.2l-0.2-0.1l-1.4,0.5c-0.2,0.6-0.4,1.7-0.4,2.7c0,3.3,2.9,4.4,8.1,4.4h1.6c2.9,0,5.2-0.3,6.5-1.1
		c1.1-0.6,1.5-1.8,1.5-3c0-0.9-0.4-2.5-1.1-4.2H855.6z"/>
	<polygon class="st1" points="861.8,567.8 861.7,567.7 859.9,568.1 859.9,584.1 860.1,584.2 861.8,583.8 	"/>
	<path class="st1" d="M878.6,576.3c-2.2,0-3.4,2.9-4.3,4.3c-0.6,1.1-1.1,1.5-2.2,1.5c-1.6,0-1.9-0.3-2.5-1.9c-0.2-0.6-0.8-2-1.4-3.7
		H868l-1.4,1.5c0.7,1.4,1.5,2.9,1.8,4c-0.5,1.9-2.2,3.7-6.8,4.6l-0.1,0.2l1,1.4c3.8-0.7,6.4-2.7,7.2-4.9c0.4,0.4,1.1,0.6,2,0.6
		c1.7,0,2.8-0.4,3.6-1.5c1.7,1.2,3.6,1.8,4.8,1.8c1.6,0,2.4-1,2.4-2.6C882.6,579,880.8,576.3,878.6,576.3z M880.7,582.2
		c-0.3,0.2-0.7,0.3-1,0.3c-0.7,0-2.1-0.5-3.5-1.4c1-1.8,1.5-2.9,2.4-2.9C879.8,578.2,880.9,581,880.7,582.2z"/>
	<polygon class="st1" points="902,575 903.3,573.1 901.3,571.8 900.1,573.6 	"/>
	<polygon class="st1" points="899.8,573.1 897.9,571.8 896.7,573.6 898.7,575 	"/>
	<polygon class="st1" points="901.3,570.4 899.4,569 898.1,570.8 900.1,572.2 	"/>
	<path class="st1" d="M907.2,576l-1.7,1.2c0.9,2,1.4,3.2,1.2,4.5c-1,0.4-3.2,0.7-5.7,0.7h-1.7c-4.4,0-6.9-0.6-6.9-3.5
		c0-0.6,0.1-1.3,0.2-2.2l-0.2-0.1l-1.4,0.5c-0.2,0.6-0.4,1.7-0.4,2.7c0,3.3,2.9,4.4,8.1,4.4h1.6c2.9,0,5.2-0.3,6.5-1.1
		c1.1-0.6,1.5-1.8,1.5-3c0-0.9-0.4-2.5-1.1-4.2H907.2z"/>
	<polygon class="st1" points="926.2,571.4 924.2,570.1 923.1,571.9 925,573.3 	"/>
	<polygon class="st1" points="927.6,568.7 925.7,567.4 924.5,569.2 926.4,570.6 	"/>
	<path class="st1" d="M926.8,576l-1.5,1.2c0.8,1.8,1.5,3.5,1,4.7c-0.5,0.2-1.3,0.3-2.5,0.3h-0.7l0,0c0,0,0,0,0,0
		c-2,0-2.8-0.4-2.8-2.3v-12.1l-0.1-0.1l-1.7,0.4v10.7c-0.2,0.4-0.5,0.7-0.7,1c-1-2-3.4-5.4-6.4-8.1l-0.2,0.1l-0.7,1.9
		c2.8,2.6,4.8,4.7,6.1,7.1c-1.6,1.1-3.6,1.5-5.9,1.6l-0.1,0.1l0.8,1.7c2.7,0,5.3-0.8,7.2-3c0.4,2.3,2,2.9,4.1,2.9c0,0,0,0,0,0l0,0
		h0.7c2.2,0,3.1-0.2,3.8-0.8c0.7-0.7,1.2-1.9,1.2-2.9c0-1-0.5-2.6-1.2-4.3H926.8z"/>
	<polygon class="st1" points="927.7,570.1 926.4,571.9 928.4,573.3 929.6,571.4 	"/>
</g>
<path class="st5" d="M1024,43.8h-11.1v-6.6c0-1.7-1.1-3-2.6-3.5c1.4-1.1,2.3-2.9,2.3-4.8c0-3.4-2.8-6.2-6.2-6.2
	c-1,0-1.9,0.2-2.8,0.7c0.4-1.1,0.5-2.2,0.5-3.4c0-6.2-5-11.2-11.2-11.2c-6.2,0-11.2,5-11.2,11.2c0,1.2,0.2,2.4,0.5,3.4
	c-0.8-0.4-1.8-0.7-2.8-0.7c-3.4,0-6.2,2.8-6.2,6.2c0,1.9,0.9,3.6,2.3,4.8c-1.5,0.4-2.6,1.8-2.6,3.5v6.6h-10h-10v-6.6
	c0-1.7-1.1-3-2.6-3.5c1.4-1.1,2.3-2.9,2.3-4.8c0-3.4-2.8-6.2-6.2-6.2c-1,0-1.9,0.2-2.8,0.7c0.4-1.1,0.5-2.2,0.5-3.4
	c0-6.2-5-11.2-11.2-11.2c-6.2,0-11.2,5-11.2,11.2c0,1.2,0.2,2.4,0.5,3.4c-0.8-0.4-1.8-0.7-2.8-0.7c-3.4,0-6.2,2.8-6.2,6.2
	c0,1.9,0.9,3.6,2.3,4.8c-1.5,0.4-2.6,1.8-2.6,3.5v6.6h-10h-10v-6.6c0-1.7-1.1-3-2.6-3.5c1.4-1.1,2.3-2.9,2.3-4.8
	c0-3.4-2.8-6.2-6.2-6.2c-1,0-1.9,0.2-2.8,0.7c0.4-1.1,0.5-2.2,0.5-3.4c0-6.2-5-11.2-11.2-11.2c-6.2,0-11.2,5-11.2,11.2
	c0,1.2,0.2,2.4,0.5,3.4c-0.8-0.4-1.8-0.7-2.8-0.7c-3.4,0-6.2,2.8-6.2,6.2c0,1.9,0.9,3.6,2.3,4.8c-1.5,0.4-2.6,1.8-2.6,3.5v6.6h-10
	h-10v-6.6c0-1.7-1.1-3-2.6-3.5c1.4-1.1,2.3-2.9,2.3-4.8c0-3.4-2.8-6.2-6.2-6.2c-1,0-1.9,0.2-2.8,0.7c0.4-1.1,0.5-2.2,0.5-3.4
	c0-6.2-5-11.2-11.2-11.2c-6.2,0-11.2,5-11.2,11.2c0,1.2,0.2,2.4,0.5,3.4c-0.8-0.4-1.8-0.7-2.8-0.7c-3.4,0-6.2,2.8-6.2,6.2
	c0,1.9,0.9,3.6,2.3,4.8c-1.5,0.4-2.6,1.8-2.6,3.5v6.6h-10h-10v-6.6c0-1.7-1.1-3-2.6-3.5c1.4-1.1,2.3-2.9,2.3-4.8
	c0-3.4-2.8-6.2-6.2-6.2c-1,0-1.9,0.2-2.8,0.7c0.4-1.1,0.5-2.2,0.5-3.4c0-6.2-5-11.2-11.2-11.2c-6.2,0-11.2,5-11.2,11.2
	c0,1.2,0.2,2.4,0.5,3.4c-0.8-0.4-1.8-0.7-2.8-0.7c-3.4,0-6.2,2.8-6.2,6.2c0,1.9,0.9,3.6,2.3,4.8c-1.5,0.4-2.6,1.8-2.6,3.5v6.6h-10
	h-10v-6.6c0-1.7-1.1-3-2.6-3.5c1.4-1.1,2.3-2.9,2.3-4.8c0-3.4-2.8-6.2-6.2-6.2c-1,0-1.9,0.2-2.8,0.7c0.4-1.1,0.5-2.2,0.5-3.4
	c0-6.2-5-11.2-11.2-11.2c-6.2,0-11.2,5-11.2,11.2c0,1.2,0.2,2.4,0.5,3.4c-0.8-0.4-1.8-0.7-2.8-0.7c-3.4,0-6.2,2.8-6.2,6.2
	c0,1.9,0.9,3.6,2.3,4.8c-1.5,0.4-2.6,1.8-2.6,3.5v6.6h-10h-10v-6.6c0-1.7-1.1-3-2.6-3.5c1.4-1.1,2.3-2.9,2.3-4.8
	c0-3.4-2.8-6.2-6.2-6.2c-1,0-1.9,0.2-2.8,0.7c0.4-1.1,0.5-2.2,0.5-3.4c0-6.2-5-11.2-11.2-11.2c-6.2,0-11.2,5-11.2,11.2
	c0,1.2,0.2,2.4,0.5,3.4c-0.8-0.4-1.8-0.7-2.8-0.7c-3.4,0-6.2,2.8-6.2,6.2c0,1.9,0.9,3.6,2.3,4.8c-1.5,0.4-2.6,1.8-2.6,3.5v6.6h-10
	h-10v-6.6c0-1.7-1.1-3-2.6-3.5c1.4-1.1,2.3-2.9,2.3-4.8c0-3.4-2.8-6.2-6.2-6.2c-1,0-1.9,0.2-2.8,0.7c0.4-1.1,0.5-2.2,0.5-3.4
	c0-6.2-5-11.2-11.2-11.2c-6.2,0-11.2,5-11.2,11.2c0,1.2,0.2,2.4,0.5,3.4c-0.8-0.4-1.8-0.7-2.8-0.7c-3.4,0-6.2,2.8-6.2,6.2
	c0,1.9,0.9,3.6,2.3,4.8c-1.5,0.4-2.6,1.8-2.6,3.5v6.6h-10h-10v-6.6c0-1.7-1.1-3-2.6-3.5c1.4-1.1,2.3-2.9,2.3-4.8
	c0-3.4-2.8-6.2-6.2-6.2c-1,0-1.9,0.2-2.8,0.7c0.4-1.1,0.5-2.2,0.5-3.4c0-6.2-5-11.2-11.2-11.2c-6.2,0-11.2,5-11.2,11.2
	c0,1.2,0.2,2.4,0.5,3.4c-0.8-0.4-1.8-0.7-2.8-0.7c-3.4,0-6.2,2.8-6.2,6.2c0,1.9,0.9,3.6,2.3,4.8c-1.5,0.4-2.6,1.8-2.6,3.5v6.6h-10
	h-10v-6.6c0-1.7-1.1-3-2.6-3.5c1.4-1.1,2.3-2.9,2.3-4.8c0-3.4-2.8-6.2-6.2-6.2c-1,0-1.9,0.2-2.8,0.7c0.4-1.1,0.5-2.2,0.5-3.4
	c0-6.2-5-11.2-11.2-11.2c-6.2,0-11.2,5-11.2,11.2c0,1.2,0.2,2.4,0.5,3.4c-0.8-0.4-1.8-0.7-2.8-0.7c-3.4,0-6.2,2.8-6.2,6.2
	c0,1.9,0.9,3.6,2.3,4.8c-1.5,0.4-2.6,1.8-2.6,3.5v6.6h-10h-10v-6.6c0-1.7-1.1-3-2.6-3.5c1.4-1.1,2.3-2.9,2.3-4.8
	c0-3.4-2.8-6.2-6.2-6.2c-1,0-1.9,0.2-2.8,0.7c0.4-1.1,0.5-2.2,0.5-3.4c0-6.2-5-11.2-11.2-11.2c-6.2,0-11.2,5-11.2,11.2
	c0,1.2,0.2,2.4,0.5,3.4c-0.8-0.4-1.8-0.7-2.8-0.7c-3.4,0-6.2,2.8-6.2,6.2c0,1.9,0.9,3.6,2.3,4.8c-1.5,0.4-2.6,1.8-2.6,3.5v6.6h-10
	h-10v-6.6c0-1.7-1.1-3-2.6-3.5c1.4-1.1,2.3-2.9,2.3-4.8c0-3.4-2.8-6.2-6.2-6.2c-1,0-1.9,0.2-2.8,0.7c0.4-1.1,0.5-2.2,0.5-3.4
	c0-6.2-5-11.2-11.2-11.2c-6.2,0-11.2,5-11.2,11.2c0,1.2,0.2,2.4,0.5,3.4c-0.8-0.4-1.8-0.7-2.8-0.7c-3.4,0-6.2,2.8-6.2,6.2
	c0,1.9,0.9,3.6,2.3,4.8c-1.5,0.4-2.6,1.8-2.6,3.5v6.6h-10h-10v-6.6c0-1.7-1.1-3-2.6-3.5c1.4-1.1,2.3-2.9,2.3-4.8
	c0-3.4-2.8-6.2-6.2-6.2c-1,0-1.9,0.2-2.8,0.7c0.4-1.1,0.5-2.2,0.5-3.4c0-6.2-5-11.2-11.2-11.2c-6.2,0-11.2,5-11.2,11.2
	c0,1.2,0.2,2.4,0.5,3.4c-0.8-0.4-1.8-0.7-2.8-0.7c-3.4,0-6.2,2.8-6.2,6.2c0,1.9,0.9,3.6,2.3,4.8c-1.5,0.4-2.6,1.8-2.6,3.5v6.6h-10
	h-10v-6.6c0-1.7-1.1-3-2.6-3.5c1.4-1.1,2.3-2.9,2.3-4.8c0-3.4-2.8-6.2-6.2-6.2c-1,0-1.9,0.2-2.8,0.7c0.4-1.1,0.5-2.2,0.5-3.4
	c0-6.2-5-11.2-11.2-11.2c-6.2,0-11.2,5-11.2,11.2c0,1.2,0.2,2.4,0.5,3.4c-0.8-0.4-1.8-0.7-2.8-0.7c-3.4,0-6.2,2.8-6.2,6.2
	c0,1.9,0.9,3.6,2.3,4.8c-1.5,0.4-2.6,1.8-2.6,3.5v6.6h-10h-10v-6.6c0-1.7-1.1-3-2.6-3.5c1.4-1.1,2.3-2.9,2.3-4.8
	c0-3.4-2.8-6.2-6.2-6.2c-1,0-1.9,0.2-2.8,0.7c0.4-1.1,0.5-2.2,0.5-3.4c0-6.2-5-11.2-11.2-11.2c-6.2,0-11.2,5-11.2,11.2
	c0,1.2,0.2,2.4,0.5,3.4c-0.8-0.4-1.8-0.7-2.8-0.7c-3.4,0-6.2,2.8-6.2,6.2c0,1.9,0.9,3.6,2.3,4.8c-1.5,0.4-2.6,1.8-2.6,3.5v6.6h-10
	h-10v-6.6c0-1.7-1.1-3-2.6-3.5c1.4-1.1,2.3-2.9,2.3-4.8c0-3.4-2.8-6.2-6.2-6.2c-1,0-1.9,0.2-2.8,0.7c0.4-1.1,0.5-2.2,0.5-3.4
	c0-6.2-5-11.2-11.2-11.2c-6.2,0-11.2,5-11.2,11.2c0,1.2,0.2,2.4,0.5,3.4c-0.8-0.4-1.8-0.7-2.8-0.7c-3.4,0-6.2,2.8-6.2,6.2
	c0,1.9,0.9,3.6,2.3,4.8c-1.5,0.4-2.6,1.8-2.6,3.5v6.6h-10h-10v-6.6c0-1.7-1.1-3-2.6-3.5c1.4-1.1,2.3-2.9,2.3-4.8
	c0-3.4-2.8-6.2-6.2-6.2c-1,0-1.9,0.2-2.8,0.7c0.4-1.1,0.5-2.2,0.5-3.4c0-6.2-5-11.2-11.2-11.2c-6.2,0-11.2,5-11.2,11.2
	c0,1.2,0.2,2.4,0.5,3.4c-0.8-0.4-1.8-0.7-2.8-0.7c-3.4,0-6.2,2.8-6.2,6.2c0,1.9,0.9,3.6,2.3,4.8c-1.5,0.4-2.6,1.8-2.6,3.5v6.6H0V0
	h1024V43.8z"/>
<g id="Layer_x0020_1_5_">
	<path class="st6" d="M34.9,719.3l43.9-1.7c0.3,0,0.6,0,1,0c0.7,0.1,1.3,0.4,1.8,0.9c0.5,0.5,0.9,1,0.9,1.7c0,0.2,0,0.5,0,0.8
		l-4.6,20.6c-0.2,0.9-0.6,1.7-1.3,2.2c-0.6,0.5-1.4,0.9-2.4,0.9L39,743.5c-1,0-1.7-0.3-2.4-0.9l0,0c-0.6-0.6-1.1-1.4-1.3-2.2
		l-4.1-17.7c0-0.1,0-0.1,0-0.2c-0.1-0.8,0.3-1.5,0.9-2.1c0.6-0.5,1.4-0.8,2.3-1C34.6,719.3,34.8,719.3,34.9,719.3z M76.9,720.4
		l-42,1.5c-0.1,0-0.2,0-0.3,0c-0.6,0.1-1.1,0.3-1.5,0.7c-0.3,0.3-0.6,0.7-0.5,1.1c0,0,0,0.1,0,0.1l3.8,16.5c0.1,0.6,0.4,1.2,0.9,1.6
		c0.4,0.3,0.8,0.5,1.4,0.5l34,1.2c0.6,0,1-0.2,1.4-0.5c0.4-0.4,0.7-0.9,0.9-1.6l4.3-19.3c0-0.1,0-0.3,0-0.4c0-0.3-0.2-0.7-0.5-0.9
		c-0.3-0.3-0.7-0.5-1.1-0.5C77.2,720.3,77.1,720.3,76.9,720.4z"/>
	<path class="st6" d="M41.9,724l12.9-1.4c0.1,0,0.3,0,0.4,0c0.3,0.1,0.6,0.2,0.8,0.4c0.2,0.2,0.4,0.5,0.4,0.8c0,0.1,0,0.2,0,0.3
		l-2.1,9.6c-0.1,0.4-0.3,0.8-0.6,1c-0.3,0.2-0.6,0.4-1.1,0.4h-8.9c-0.4,0-0.8-0.2-1.1-0.4h0c-0.3-0.3-0.5-0.6-0.6-1l-1.9-8.2
		c0,0,0-0.1,0-0.1c-0.1-0.4,0.1-0.7,0.4-1c0.3-0.2,0.7-0.4,1-0.5C41.8,724,41.9,724,41.9,724z M53.9,723.9l-12,1.3c0,0-0.1,0-0.1,0
		c-0.3,0-0.5,0.2-0.7,0.3c-0.2,0.1-0.3,0.3-0.2,0.5c0,0,0,0,0,0l1.8,7.6c0.1,0.3,0.2,0.5,0.4,0.7c0.2,0.1,0.4,0.2,0.6,0.2h8.3
		c0.3,0,0.5-0.1,0.6-0.2c0.2-0.2,0.3-0.4,0.4-0.7l2-8.9c0-0.1,0-0.1,0-0.2c0-0.2-0.1-0.3-0.2-0.4c-0.1-0.1-0.3-0.2-0.5-0.2
		C54.1,723.9,54,723.9,53.9,723.9z"/>
	<g id="_1849662416_5_">
		<path class="st7" d="M60.4,736.2l0.4-0.7l-0.7-0.4l0.4-0.7l-1.5-0.8l-0.9,1.5l0,0c0.3,0.1,0.5,0.3,0.7,0.4l-0.4,0.7l0.7,0.4
			l-0.8,1.5l0.7,0.4c-0.2,0.5-0.6,1.1-0.9,1.5l0,0c0.2,0.1,0.4,0.2,0.5,0.3c0.3,0.1,0.2,0.1,0,0.5c-0.2,0.4-0.4,0.8-0.7,1.1l0.7,0.4
			c0,0.2-0.7,1.2-0.8,1.5l5.9,3.4l0.9-1.5l0.8,0.4l1.3-2.2l0.7,0.4l3-5.2c-0.1-0.1-0.7-0.4-0.7-0.5c0-0.2,0.4-0.6,0.4-0.7
			c-0.1-0.1-0.5-0.4-0.7-0.4l-1.3,2.2l-0.7-0.4l1.7-3l-1.5-0.9l-1.3,2.2l-0.7-0.4l1.7-2.9c-0.1-0.1-1.3-0.8-1.5-0.9l-1.7,3l-0.7-0.4
			c0-0.1,0.1-0.1,0.1-0.2c1.2-2.1,2.5-4.3,3.7-6.5l-1.5-0.8l-4.7,8.1C60.9,736.5,60.4,736.2,60.4,736.2L60.4,736.2z"/>
		<path class="st8" d="M58.2,739.9c-0.1,0.1-0.1,0.2-0.2,0.3l-0.7,1.1c0.1,0.1,0.2,0.1,0.4,0.2c0.1,0.1,0.2,0.1,0.3,0.2
			c-0.4,0.8-0.8,1.5-1.2,2.2c0.6,0.4,1.2,0.7,1.8,1.1l3.7,2.2c0.6,0.4,1.2,0.7,1.9,1.1c0.1-0.2,0.1-0.3,0.3-0.5
			c0.1-0.2,0.4-0.6,0.5-0.9c0.1-0.1,0.1-0.1,0.2-0.3c0.1-0.2,0.2-0.4,0.3-0.6c0.1,0.2,0.5,0.3,0.7,0.4c0.4-0.7,0.8-1.4,1.3-2.2
			c0.2,0.1,0.4,0.2,0.6,0.3c0.1,0.1,0.1,0.1,0.2,0c0.2-0.3,0.3-0.6,0.5-0.9c0.3-0.6,0.7-1.1,1-1.7l1.4-2.5c-0.2-0.1-0.6-0.3-0.7-0.4
			l-3,5.2l-0.7-0.4l-1.3,2.2l-0.8-0.4l-0.9,1.5l-5.9-3.4c0.1-0.3,0.8-1.3,0.8-1.5l-0.7-0.4c0.2-0.4,0.4-0.8,0.7-1.1
			c0.2-0.4,0.2-0.3,0-0.5C58.6,740.1,58.4,740,58.2,739.9z"/>
		<path class="st8" d="M60.5,734.3l-0.4,0.7l0.7,0.4l-0.4,0.7l0.7,0.4l4.7-8.1l-0.7-0.4c0,0,0,0,0,0l0,0c0,0,0,0,0,0l-3.8,6.6
			C61,734.5,60.8,734.4,60.5,734.3z"/>
		<path class="st8" d="M67.3,729.3l-3.9,6.6l0.7,0.4l1.7-3c0.2,0,1.4,0.8,1.5,0.9c0.2,0.2,1.6,0.9,1.9,1.1c0,0,0.1,0-0.1-0.1
			l-1.5-0.8c-0.4-0.2-0.3-0.1,0.1-0.9l-1.1-0.6c-0.1-0.1-0.2-0.1-0.3-0.2l1.7-2.9c-0.2-0.1-0.3-0.2-0.6-0.4
			C67.4,729.4,67.4,729.4,67.3,729.3z"/>
		<path class="st8" d="M69.2,736.3l0.4-0.7c-0.1-0.1-0.2-0.2-0.4-0.2c-0.3-0.2-1.7-0.9-1.9-1.1l-1.7,2.9l0.7,0.4l1.3-2.2L69.2,736.3
			z"/>
		<path class="st8" d="M58.2,734.9c-0.1,0.1-0.1,0.1-0.2,0.3c-0.1,0.1-0.1,0.3-0.2,0.4l0.7,0.4c-0.1,0.2-0.7,1.3-0.8,1.5l0.7,0.4
			l-0.6,1.1c-0.1,0.2-0.1,0.2-0.2,0.4l0.7,0.4c0.3-0.4,0.7-1,0.9-1.5l-0.7-0.4l0.8-1.5l-0.7-0.4l0.4-0.7
			C58.7,735.2,58.4,735,58.2,734.9z"/>
		<path class="st8" d="M58.2,734.9l0.9-1.5l1.5,0.8l0.2-0.4c0.1-0.1,0.1-0.2,0.2-0.4l-2-1.1c-0.3-0.2-0.2-0.2-0.5,0.2l-0.9,1.6
			c-0.1,0.2-0.2,0.2,0,0.3C57.6,734.6,58,734.9,58.2,734.9z"/>
		<path class="st8" d="M70.2,737.9c0.1,0,0,0,0.1-0.1c0,0,0.1-0.1,0.1-0.1c0-0.2,0.2-0.4,0.3-0.6l-1.5-0.8l-1.7,3l0.7,0.4l1.3-2.2
			C69.7,737.6,70.1,737.8,70.2,737.9z"/>
		<path class="st8" d="M67.3,729.3c0.1-0.2,0.3-0.5,0.4-0.7l-1.5-0.8l-0.4,0.7L67.3,729.3z"/>
		<path class="st8" d="M70.2,737.9c0,0.2-0.4,0.6-0.4,0.7c0,0.1,0.6,0.4,0.7,0.5c0.2,0.1,0.5,0.3,0.7,0.4l-1.4,2.5l1.5-2.5l-0.7-0.4
			c0.1-0.1,0.1-0.2,0.2-0.4c0.1-0.1,0.2-0.3,0.2-0.4c-0.8-0.5-0.8-0.3-0.6-0.6c0,0-0.1,0.1-0.1,0.1C70.2,738,70.3,737.9,70.2,737.9z
			"/>
	</g>
	<path class="st6" d="M94.9,736.1h-2.5l2.1-7.2l-4.3,7.2h-2.6l-0.5-7.3l-1.8,7.3h-2.6l2.9-10.9h3.5l0.5,7.7l4.6-7.7h3.5L94.9,736.1z
		 M104.4,736.1h-5.6c-0.8,0-1.3-0.2-1.7-0.6c-0.4-0.4-0.4-1-0.2-1.8c0.3-0.9,0.7-1.6,1.3-2c0.6-0.4,1.5-0.6,2.6-0.6h2.5
		c0.1-0.4,0.1-0.7-0.1-0.8c-0.2-0.2-0.6-0.2-1.3-0.2h-3.6l0.5-2h4.3c1.1,0,1.9,0.3,2.3,0.8c0.4,0.5,0.5,1.3,0.2,2.3L104.4,736.1z
		 M102.4,734.2l0.3-1.2h-2.2c-0.4,0-0.7,0-0.9,0.1c-0.2,0.1-0.3,0.3-0.3,0.5c-0.1,0.2-0.1,0.3,0,0.4c0,0,0.1,0.1,0.2,0.1
		c0.1,0,0.3,0,0.5,0H102.4z M113.2,736.1h-2.4l1.3-4.9c0.1-0.5,0.2-0.8,0-1c-0.1-0.1-0.4-0.2-0.9-0.2h-1.4l-1.6,6.1h-2.4l2.2-8.1h4
		c1.2,0,2,0.2,2.4,0.7c0.4,0.5,0.5,1.2,0.2,2.3L113.2,736.1z M121.9,736.1h-2.4l1.3-4.9c0.1-0.5,0.1-0.8,0-0.9
		c-0.1-0.1-0.2-0.1-0.3-0.2c-0.1,0-0.3-0.1-0.6-0.1l-1.4,0l-1.6,6.1h-2.4l2.9-10.9h2.4l-0.8,2.8h1.6c1.2,0,2,0.2,2.4,0.7
		c0.4,0.5,0.5,1.2,0.2,2.3L121.9,736.1z M131.2,736.1h-5.6c-0.8,0-1.3-0.2-1.7-0.6c-0.4-0.4-0.4-1-0.2-1.8c0.3-0.9,0.7-1.6,1.3-2
		c0.6-0.4,1.5-0.6,2.6-0.6h2.5c0.1-0.4,0.1-0.7-0.1-0.8c-0.2-0.2-0.6-0.2-1.3-0.2h-3.6l0.5-2h4.3c1.1,0,1.9,0.3,2.3,0.8
		c0.4,0.5,0.5,1.3,0.2,2.3L131.2,736.1z M129.2,734.2l0.3-1.2h-2.2c-0.4,0-0.7,0-0.9,0.1c-0.2,0.1-0.3,0.3-0.3,0.5
		c-0.1,0.2,0,0.3,0,0.4c0,0,0.1,0.1,0.2,0.1c0.1,0,0.3,0,0.5,0H129.2z M135,736.1h-2.5l2.9-10.9h2.5L135,736.1z M140.7,736.1h-2.1
		l0.6-2.2h2.1L140.7,736.1z M148.4,736.1h-2.9c-0.4,0-0.7,0-1-0.1c-0.3,0-0.5-0.1-0.8-0.2c-0.4-0.1-0.8-0.4-1-0.8
		c-0.1-0.2-0.2-0.4-0.3-0.6c-0.1-0.2-0.2-0.5-0.2-0.7c0-0.3,0-0.5,0-0.8c0-0.3,0.1-0.6,0.2-0.9c0.2-0.6,0.4-1.2,0.8-1.7
		c0.3-0.5,0.7-1,1.3-1.4c0.4-0.3,0.9-0.6,1.4-0.7c0.5-0.2,1.1-0.2,1.9-0.2h2.9l-0.5,2h-2.3c-0.5,0-0.9,0-1.2,0.1
		c-0.3,0.1-0.6,0.2-0.8,0.4c-0.4,0.3-0.7,0.8-0.9,1.6c-0.1,0.4-0.1,0.8-0.1,1.1c0.1,0.3,0.1,0.6,0.4,0.7l0.4,0.2c0.1,0,0.3,0,0.4,0
		c0.1,0,0.4,0,0.6,0h2.3L148.4,736.1z M158.5,732.1c-0.3,1.3-1,2.3-2,3.1c-1,0.8-2.1,1.1-3.4,1.1c-1.3,0-2.2-0.4-2.8-1.1
		c-0.6-0.8-0.7-1.8-0.3-3.1c0.3-1.3,1-2.3,2-3c1-0.8,2.1-1.1,3.4-1.1c1.3,0,2.2,0.4,2.8,1.1C158.7,729.8,158.9,730.8,158.5,732.1z
		 M156,732.1c0.2-0.7,0.1-1.2-0.1-1.6c-0.2-0.4-0.6-0.6-1.1-0.6c-0.5,0-1,0.2-1.4,0.6c-0.4,0.4-0.7,0.9-0.9,1.6
		c-0.1,0.4-0.1,0.7-0.1,0.9c0,0.3,0.1,0.5,0.2,0.7c0.2,0.4,0.6,0.6,1.1,0.6c0.6,0,1-0.2,1.4-0.6C155.5,733.3,155.8,732.7,156,732.1z
		 M169.7,736.1h-2.4l1.3-4.9c0.1-0.5,0.2-0.8,0.1-1c-0.1-0.2-0.4-0.2-0.9-0.2l-0.9,0l-1.6,6.1h-2.4l1.6-6.1h-2l-1.6,6.1h-2.4
		l2.2-8.1h8c1.2,0,2,0.2,2.4,0.7c0.4,0.5,0.5,1.2,0.2,2.3L169.7,736.1z"/>
	<path class="st6" d="M27.9,728l21.2-2.2c0.2,0,0.5,0,0.7,0c0.5,0.1,1,0.3,1.4,0.7c0.4,0.3,0.6,0.8,0.7,1.3c0,0.2,0,0.4,0,0.6
		l-3.7,9.6c-0.1,0.7-0.5,1.3-1,1.7c-0.5,0.4-1.1,0.7-1.8,0.7H30.9c-0.7,0-1.3-0.3-1.8-0.7h0c-0.5-0.4-0.8-1.1-1-1.7l-2.9-7.4
		c0-0.1,0-0.1,0-0.2c-0.1-0.6,0.2-1.2,0.7-1.6c0.5-0.4,1.1-0.6,1.7-0.8C27.7,728.1,27.8,728.1,27.9,728z M47.6,727.9L27.9,730
		c-0.1,0-0.2,0-0.2,0c-0.4,0.1-0.9,0.3-1.2,0.5c-0.3,0.2-0.4,0.5-0.4,0.8c0,0,0,0.1,0,0.1l2.7,6.5c0.1,0.5,0.3,0.9,0.7,1.2
		c0.3,0.2,0.6,0.4,1,0.4h13.6c0.4,0,0.8-0.1,1-0.4c0.3-0.3,0.5-0.7,0.7-1.2l3.4-8.6c0-0.1,0-0.2,0-0.3c0-0.3-0.2-0.5-0.4-0.7
		c-0.2-0.2-0.5-0.4-0.8-0.4C47.9,727.9,47.8,727.9,47.6,727.9z"/>
	<path class="st6" d="M87.6,721.8l-0.5,1.7h-0.6l1.2-4.5h1.3c0.3,0,0.5,0,0.7,0.1c0.2,0.1,0.3,0.2,0.4,0.3c0.1,0.1,0.2,0.3,0.2,0.4
		c0,0.2,0,0.4-0.1,0.6c-0.1,0.2-0.1,0.4-0.3,0.6c-0.1,0.2-0.3,0.3-0.4,0.4c-0.2,0.1-0.4,0.2-0.6,0.3c-0.2,0.1-0.5,0.1-0.7,0.1H87.6z
		 M87.7,721.3h0.7c0.2,0,0.3,0,0.5-0.1c0.1,0,0.3-0.1,0.4-0.2c0.1-0.1,0.2-0.2,0.3-0.3c0.1-0.1,0.1-0.2,0.2-0.4
		c0.1-0.3,0.1-0.5-0.1-0.7c-0.1-0.2-0.4-0.2-0.7-0.2h-0.7L87.7,721.3z"/>
	<path id="_x31__5_" class="st6" d="M92.3,720.2c0.2,0,0.4,0,0.6,0.1c0.2,0.1,0.3,0.2,0.4,0.3c0.1,0.1,0.1,0.3,0.2,0.5
		c0,0.2,0,0.4-0.1,0.7c-0.1,0.2-0.2,0.5-0.3,0.7c-0.1,0.2-0.3,0.4-0.4,0.5c-0.2,0.1-0.4,0.3-0.6,0.3c-0.2,0.1-0.4,0.1-0.7,0.1
		c-0.2,0-0.4,0-0.6-0.1c-0.2-0.1-0.3-0.2-0.4-0.3c-0.1-0.1-0.1-0.3-0.2-0.5c0-0.2,0-0.4,0.1-0.7c0.1-0.3,0.2-0.5,0.3-0.7
		c0.1-0.2,0.3-0.4,0.4-0.5c0.2-0.1,0.4-0.3,0.6-0.3C91.8,720.2,92,720.2,92.3,720.2z M91.5,723c0.3,0,0.6-0.1,0.8-0.3
		c0.2-0.2,0.4-0.5,0.5-0.9c0.1-0.4,0.1-0.7,0-0.9c-0.1-0.2-0.3-0.3-0.6-0.3c-0.2,0-0.3,0-0.4,0.1c-0.1,0.1-0.2,0.1-0.4,0.2
		c-0.1,0.1-0.2,0.2-0.3,0.4c-0.1,0.1-0.1,0.3-0.2,0.5c0,0.2-0.1,0.4-0.1,0.5c0,0.1,0,0.3,0.1,0.4c0.1,0.1,0.1,0.2,0.2,0.2
		C91.2,723,91.3,723,91.5,723z"/>
	<path id="_x32__5_" class="st6" d="M94,720.3h0.4c0,0,0.1,0,0.1,0c0,0,0,0,0,0.1l0.1,2c0,0.1,0,0.1,0,0.2c0,0.1,0,0.1,0,0.2
		c0-0.1,0.1-0.1,0.1-0.2c0-0.1,0.1-0.1,0.1-0.2l1.2-2.1c0,0,0-0.1,0.1-0.1c0,0,0.1,0,0.1,0h0.2c0,0,0.1,0,0.1,0c0,0,0,0,0,0.1
		l0.1,2.1c0,0.1,0,0.1,0,0.2c0,0.1,0,0.1,0,0.2c0-0.1,0.1-0.1,0.1-0.2c0-0.1,0.1-0.1,0.1-0.2l1.2-2c0,0,0-0.1,0.1-0.1
		c0,0,0.1,0,0.1,0h0.4l-1.9,3.2h-0.4c-0.1,0-0.1,0-0.1-0.1l-0.1-2.2c0,0,0-0.1,0-0.1c0-0.1,0-0.1,0-0.1c0,0,0,0.1-0.1,0.1
		c0,0,0,0.1-0.1,0.1l-1.3,2.2c0,0.1-0.1,0.1-0.2,0.1h-0.4L94,720.3z"/>
	<path id="_x33__5_" class="st6" d="M100.5,720.2c0.2,0,0.4,0,0.5,0.1c0.1,0.1,0.3,0.2,0.3,0.3c0.1,0.1,0.1,0.3,0.2,0.4
		c0,0.2,0,0.4-0.1,0.6c0,0.1,0,0.1-0.1,0.2c0,0-0.1,0-0.1,0h-2.1c-0.1,0.2-0.1,0.4-0.1,0.5c0,0.1,0,0.3,0.1,0.4
		c0.1,0.1,0.1,0.2,0.3,0.2c0.1,0,0.2,0.1,0.4,0.1c0.1,0,0.3,0,0.4,0c0.1,0,0.2-0.1,0.3-0.1c0.1,0,0.2-0.1,0.2-0.1
		c0.1,0,0.1-0.1,0.1-0.1c0,0,0.1,0,0.1,0.1l0.1,0.2c-0.1,0.1-0.2,0.2-0.3,0.2c-0.1,0.1-0.2,0.1-0.3,0.2c-0.1,0-0.2,0.1-0.4,0.1
		c-0.1,0-0.2,0-0.4,0c-0.2,0-0.4,0-0.6-0.1c-0.2-0.1-0.3-0.2-0.4-0.3c-0.1-0.1-0.2-0.3-0.2-0.5c0-0.2,0-0.5,0.1-0.7
		c0.1-0.2,0.1-0.4,0.3-0.6c0.1-0.2,0.3-0.4,0.4-0.5c0.2-0.1,0.4-0.3,0.6-0.3C100.1,720.2,100.3,720.2,100.5,720.2z M100.4,720.6
		c-0.3,0-0.5,0.1-0.7,0.2c-0.2,0.2-0.4,0.4-0.5,0.6h1.7c0-0.1,0.1-0.2,0-0.4c0-0.1,0-0.2-0.1-0.3c0-0.1-0.1-0.1-0.2-0.2
		C100.7,720.6,100.6,720.6,100.4,720.6z"/>
	<path id="_x34__5_" class="st6" d="M101.7,723.4l0.9-3.2h0.3c0.1,0,0.1,0,0.1,0c0,0,0,0.1,0,0.1l-0.1,0.5c0.2-0.2,0.4-0.4,0.5-0.5
		c0.2-0.1,0.4-0.2,0.6-0.2c0.1,0,0.2,0,0.2,0c0.1,0,0.1,0,0.2,0.1l-0.2,0.4c0,0.1-0.1,0.1-0.1,0.1c0,0-0.1,0-0.1,0
		c-0.1,0-0.1,0-0.2,0c-0.2,0-0.4,0.1-0.5,0.2c-0.2,0.1-0.3,0.3-0.5,0.5l-0.5,2H101.7z"/>
	<path id="_x35__5_" class="st6" d="M106.3,720.2c0.2,0,0.4,0,0.5,0.1c0.1,0.1,0.3,0.2,0.3,0.3c0.1,0.1,0.1,0.3,0.2,0.4
		c0,0.2,0,0.4-0.1,0.6c0,0.1,0,0.1-0.1,0.2c0,0-0.1,0-0.1,0H105c-0.1,0.2-0.1,0.4-0.1,0.5c0,0.1,0,0.3,0.1,0.4
		c0.1,0.1,0.1,0.2,0.3,0.2c0.1,0,0.2,0.1,0.4,0.1c0.1,0,0.3,0,0.4,0c0.1,0,0.2-0.1,0.3-0.1c0.1,0,0.2-0.1,0.2-0.1
		c0.1,0,0.1-0.1,0.1-0.1c0,0,0.1,0,0.1,0.1l0.1,0.2c-0.1,0.1-0.2,0.2-0.3,0.2c-0.1,0.1-0.2,0.1-0.3,0.2c-0.1,0-0.2,0.1-0.4,0.1
		c-0.1,0-0.2,0-0.4,0c-0.2,0-0.4,0-0.6-0.1c-0.2-0.1-0.3-0.2-0.4-0.3c-0.1-0.1-0.2-0.3-0.2-0.5c0-0.2,0-0.5,0.1-0.7
		c0.1-0.2,0.2-0.4,0.3-0.6c0.1-0.2,0.3-0.4,0.4-0.5c0.2-0.1,0.4-0.3,0.6-0.3C105.9,720.2,106.1,720.2,106.3,720.2z M106.2,720.6
		c-0.3,0-0.5,0.1-0.7,0.2c-0.2,0.2-0.4,0.4-0.5,0.6h1.7c0-0.1,0-0.2,0-0.4c0-0.1,0-0.2-0.1-0.3c0-0.1-0.1-0.1-0.2-0.2
		C106.5,720.6,106.4,720.6,106.2,720.6z"/>
	<path id="_x36__5_" class="st6" d="M109.7,723.4c-0.1,0-0.1,0-0.1-0.1l0.1-0.4c-0.2,0.2-0.4,0.3-0.6,0.4c-0.2,0.1-0.4,0.1-0.6,0.1
		c-0.2,0-0.3,0-0.5-0.1c-0.1-0.1-0.2-0.2-0.3-0.3c-0.1-0.1-0.1-0.3-0.1-0.5c0-0.2,0-0.4,0.1-0.7c0.1-0.2,0.2-0.5,0.3-0.7
		c0.1-0.2,0.3-0.4,0.4-0.5c0.2-0.2,0.3-0.3,0.5-0.4c0.2-0.1,0.4-0.1,0.6-0.1c0.2,0,0.4,0,0.5,0.1c0.1,0.1,0.2,0.2,0.3,0.3l0.5-1.8
		h0.6l-1.2,4.6H109.7z M108.8,723c0.2,0,0.4,0,0.5-0.1c0.2-0.1,0.3-0.2,0.5-0.4l0.4-1.5c-0.1-0.1-0.2-0.2-0.3-0.3
		c-0.1-0.1-0.2-0.1-0.4-0.1c-0.3,0-0.6,0.1-0.8,0.3c-0.2,0.2-0.4,0.5-0.5,0.9c-0.1,0.2-0.1,0.4-0.1,0.5c0,0.1,0,0.3,0.1,0.4
		c0,0.1,0.1,0.2,0.2,0.2C108.5,723,108.6,723,108.8,723z"/>
	<path id="_x37__5_" class="st6" d="M112.2,723.4l1.2-4.6h0.6l-0.5,1.9c0.2-0.2,0.4-0.3,0.6-0.4c0.2-0.1,0.4-0.1,0.6-0.1
		c0.2,0,0.3,0,0.5,0.1c0.1,0.1,0.2,0.2,0.3,0.3c0.1,0.1,0.1,0.3,0.1,0.5c0,0.2,0,0.4-0.1,0.7c-0.1,0.2-0.2,0.5-0.3,0.7
		c-0.1,0.2-0.3,0.4-0.4,0.5c-0.2,0.1-0.3,0.3-0.5,0.3c-0.2,0.1-0.4,0.1-0.6,0.1c-0.2,0-0.4,0-0.5-0.1c-0.1-0.1-0.2-0.2-0.3-0.3
		l-0.1,0.3c0,0.1-0.1,0.1-0.2,0.1H112.2z M114.4,720.6c-0.2,0-0.4,0-0.5,0.1c-0.2,0.1-0.3,0.2-0.5,0.4l-0.4,1.5
		c0.1,0.1,0.1,0.2,0.3,0.3c0.1,0.1,0.2,0.1,0.4,0.1c0.3,0,0.6-0.1,0.8-0.3c0.2-0.2,0.4-0.5,0.5-0.9c0.1-0.2,0.1-0.4,0.1-0.5
		c0-0.1,0-0.3-0.1-0.4c0-0.1-0.1-0.2-0.2-0.2C114.6,720.7,114.5,720.6,114.4,720.6z"/>
	<path id="_x38__5_" class="st6" d="M116.3,724.4c0,0-0.1,0.1-0.1,0.1c0,0-0.1,0-0.1,0h-0.4l0.9-1.2l-0.5-3h0.5c0,0,0.1,0,0.1,0
		c0,0,0,0,0,0.1l0.3,2c0,0,0,0.1,0,0.1c0,0,0,0.1,0,0.1c0,0,0.1-0.1,0.1-0.1c0,0,0.1-0.1,0.1-0.1l1.4-2c0,0,0.1-0.1,0.1-0.1
		c0,0,0.1,0,0.1,0h0.4L116.3,724.4z"/>
	<path id="_x39__5_" class="st6" d="M118.9,723.1c0-0.1,0-0.1,0.1-0.2c0-0.1,0.1-0.1,0.1-0.1c0,0,0.1-0.1,0.1-0.1c0.1,0,0.1,0,0.2,0
		c0.1,0,0.1,0,0.1,0c0,0,0.1,0,0.1,0.1c0,0,0,0.1,0.1,0.1c0,0,0,0.1,0,0.2c0,0.1,0,0.1-0.1,0.2c0,0-0.1,0.1-0.1,0.1
		c0,0-0.1,0.1-0.1,0.1c-0.1,0-0.1,0-0.2,0c-0.1,0-0.1,0-0.1,0c0,0-0.1,0-0.1-0.1c0,0,0-0.1,0-0.1
		C118.9,723.2,118.9,723.1,118.9,723.1z M119.5,720.7c0-0.1,0-0.1,0.1-0.2c0,0,0.1-0.1,0.1-0.1c0,0,0.1-0.1,0.1-0.1
		c0.1,0,0.1,0,0.2,0c0.1,0,0.1,0,0.1,0c0,0,0.1,0,0.1,0.1c0,0,0,0.1,0.1,0.1c0,0,0,0.1,0,0.2c0,0.1,0,0.1-0.1,0.2
		c0,0-0.1,0.1-0.1,0.1c0,0-0.1,0.1-0.1,0.1c-0.1,0-0.1,0-0.2,0c-0.1,0-0.1,0-0.1,0c0,0-0.1,0-0.1-0.1c0,0,0-0.1,0-0.1
		C119.5,720.8,119.5,720.8,119.5,720.7z"/>
	<path class="st6" d="M126,738.5l-0.1,0.5h-2.3l-0.4,1.6h1.8l-0.1,0.5H123l-0.4,1.6h2.3l-0.1,0.5h-2.9l1.3-4.8H126z M126,741h1.6
		l-0.1,0.5h-1.6L126,741z M128.7,742.7h2.1l-0.1,0.5H128l1.3-4.8h0.6L128.7,742.7z M133.4,739.9c0.2,0,0.4,0,0.5,0.1
		c0.2,0.1,0.3,0.2,0.4,0.3c0.1,0.1,0.1,0.3,0.2,0.5c0,0.2,0,0.4-0.1,0.6c0,0.1-0.1,0.2-0.1,0.2c0,0-0.1,0-0.1,0h-2.2
		c-0.1,0.2-0.1,0.4-0.1,0.6c0,0.2,0,0.3,0.1,0.4c0.1,0.1,0.2,0.2,0.3,0.2c0.1,0.1,0.3,0.1,0.4,0.1c0.1,0,0.3,0,0.4-0.1
		c0.1,0,0.2-0.1,0.3-0.1c0.1,0,0.2-0.1,0.2-0.1c0.1,0,0.1-0.1,0.1-0.1c0,0,0.1,0,0.1,0.1l0.1,0.2c-0.1,0.1-0.2,0.2-0.3,0.2
		c-0.1,0.1-0.2,0.1-0.4,0.2c-0.1,0-0.3,0.1-0.4,0.1c-0.1,0-0.3,0-0.4,0c-0.2,0-0.4,0-0.6-0.1c-0.2-0.1-0.3-0.2-0.4-0.3
		c-0.1-0.2-0.2-0.3-0.2-0.6c0-0.2,0-0.5,0.1-0.8c0.1-0.2,0.2-0.5,0.3-0.7c0.1-0.2,0.3-0.4,0.5-0.5c0.2-0.1,0.4-0.3,0.6-0.4
		C132.9,739.9,133.2,739.9,133.4,739.9z M133.3,740.3c-0.3,0-0.5,0.1-0.7,0.2c-0.2,0.2-0.4,0.4-0.5,0.7h1.8c0-0.1,0.1-0.3,0-0.4
		c0-0.1,0-0.2-0.1-0.3c-0.1-0.1-0.1-0.1-0.2-0.2C133.5,740.3,133.4,740.3,133.3,740.3z M137.1,743.3h-0.3c-0.1,0-0.1,0-0.1,0
		c0,0,0-0.1,0-0.1l0-0.3c-0.1,0.1-0.2,0.2-0.3,0.2c-0.1,0.1-0.2,0.1-0.3,0.2c-0.1,0-0.2,0.1-0.3,0.1c-0.1,0-0.2,0-0.4,0
		c-0.1,0-0.2,0-0.4-0.1c-0.1,0-0.2-0.1-0.3-0.2c-0.1-0.1-0.1-0.2-0.1-0.3c0-0.1,0-0.2,0-0.4c0-0.1,0.1-0.3,0.2-0.4
		c0.1-0.1,0.3-0.2,0.4-0.3c0.2-0.1,0.4-0.2,0.7-0.2c0.3-0.1,0.6-0.1,1-0.1l0.1-0.3c0.1-0.3,0.1-0.5,0-0.6c-0.1-0.1-0.2-0.2-0.4-0.2
		c-0.1,0-0.3,0-0.4,0.1c-0.1,0-0.2,0.1-0.3,0.1c-0.1,0-0.2,0.1-0.2,0.1c-0.1,0-0.1,0.1-0.2,0.1c0,0-0.1,0-0.1,0c0,0,0,0-0.1-0.1
		l-0.1-0.2c0.2-0.2,0.5-0.3,0.7-0.4c0.2-0.1,0.5-0.1,0.8-0.1c0.2,0,0.3,0,0.5,0.1c0.1,0.1,0.2,0.1,0.3,0.3c0.1,0.1,0.1,0.2,0.1,0.4
		c0,0.2,0,0.3-0.1,0.5L137.1,743.3z M135.7,742.9c0.1,0,0.2,0,0.3,0c0.1,0,0.2-0.1,0.3-0.1c0.1,0,0.2-0.1,0.3-0.1
		c0.1-0.1,0.2-0.1,0.3-0.2l0.2-0.7c-0.3,0-0.5,0-0.7,0.1c-0.2,0-0.4,0.1-0.5,0.1c-0.1,0.1-0.2,0.1-0.3,0.2c-0.1,0.1-0.1,0.2-0.1,0.3
		c0,0.1,0,0.2,0,0.2c0,0.1,0,0.1,0.1,0.2c0,0,0.1,0.1,0.1,0.1C135.5,742.9,135.6,742.9,135.7,742.9z M138,743.3l0.9-3.4h0.3
		c0.1,0,0.1,0,0.1,0c0,0,0,0.1,0,0.1l-0.1,0.6c0.2-0.2,0.4-0.4,0.6-0.6c0.2-0.1,0.4-0.2,0.6-0.2c0.1,0,0.2,0,0.2,0
		c0.1,0,0.1,0.1,0.2,0.1l-0.2,0.4c0,0.1-0.1,0.1-0.1,0.1c0,0-0.1,0-0.1,0c-0.1,0-0.1,0-0.3,0c-0.2,0-0.4,0.1-0.6,0.2
		c-0.2,0.1-0.3,0.3-0.5,0.5l-0.6,2.1H138z M140.7,743.3l0.9-3.4h0.4c0.1,0,0.1,0,0.1,0.1l-0.1,0.4c0.2-0.2,0.4-0.3,0.6-0.4
		c0.2-0.1,0.4-0.2,0.7-0.2c0.2,0,0.3,0,0.5,0.1c0.1,0.1,0.2,0.1,0.3,0.3c0.1,0.1,0.1,0.2,0.1,0.4c0,0.2,0,0.3-0.1,0.5l-0.6,2.1h-0.6
		l0.6-2.1c0.1-0.3,0.1-0.5,0-0.6c-0.1-0.1-0.2-0.2-0.5-0.2c-0.2,0-0.3,0-0.5,0.1c-0.2,0.1-0.3,0.2-0.5,0.3l-0.7,2.5H140.7z
		 M145.9,739.9l-0.9,3.4h-0.6l0.9-3.4H145.9z M146.3,738.9c0,0.1,0,0.1-0.1,0.2c0,0-0.1,0.1-0.1,0.1c0,0-0.1,0.1-0.2,0.1
		c-0.1,0-0.1,0-0.2,0c-0.1,0-0.1,0-0.2,0c0,0-0.1-0.1-0.1-0.1c0,0,0-0.1-0.1-0.1c0,0,0-0.1,0-0.2c0-0.1,0-0.1,0.1-0.2
		c0-0.1,0.1-0.1,0.1-0.1c0,0,0.1-0.1,0.2-0.1c0.1,0,0.1,0,0.2,0c0.1,0,0.1,0,0.2,0c0,0,0.1,0.1,0.1,0.1c0,0,0,0.1,0.1,0.1
		C146.4,738.7,146.4,738.8,146.3,738.9z M146.1,743.3l0.9-3.4h0.4c0.1,0,0.1,0,0.1,0.1l-0.1,0.4c0.2-0.2,0.4-0.3,0.6-0.4
		c0.2-0.1,0.4-0.2,0.7-0.2c0.2,0,0.3,0,0.5,0.1c0.1,0.1,0.2,0.1,0.3,0.3c0.1,0.1,0.1,0.2,0.1,0.4c0,0.2,0,0.3-0.1,0.5l-0.6,2.1h-0.6
		l0.6-2.1c0.1-0.3,0.1-0.5,0-0.6c-0.1-0.1-0.2-0.2-0.5-0.2c-0.2,0-0.3,0-0.5,0.1c-0.2,0.1-0.3,0.2-0.5,0.3l-0.7,2.5H146.1z
		 M151.8,739.9c0.1,0,0.3,0,0.4,0c0.1,0,0.2,0.1,0.3,0.1h0.9l-0.1,0.2c0,0.1-0.1,0.1-0.2,0.1l-0.4,0.1c0,0.1,0,0.3,0,0.5
		c0,0.2-0.1,0.3-0.2,0.4c-0.1,0.1-0.2,0.2-0.4,0.3c-0.1,0.1-0.3,0.2-0.5,0.2c-0.2,0-0.3,0.1-0.5,0.1c-0.2,0-0.3,0-0.4-0.1
		c-0.1,0-0.1,0.1-0.2,0.1c-0.1,0.1-0.1,0.1-0.1,0.2c0,0.1,0,0.1,0,0.2c0.1,0,0.1,0.1,0.2,0.1c0.1,0,0.2,0,0.4,0c0.1,0,0.3,0,0.4,0
		c0.1,0,0.3,0,0.4,0c0.1,0,0.2,0.1,0.3,0.1c0.1,0.1,0.2,0.1,0.2,0.2c0,0.1,0,0.2,0,0.4c0,0.1-0.1,0.3-0.2,0.4
		c-0.1,0.1-0.2,0.3-0.4,0.4c-0.2,0.1-0.3,0.2-0.6,0.3c-0.2,0.1-0.4,0.1-0.7,0.1c-0.2,0-0.5,0-0.6-0.1c-0.2,0-0.3-0.1-0.4-0.2
		c-0.1-0.1-0.2-0.2-0.2-0.3c0-0.1,0-0.2,0-0.3c0-0.2,0.1-0.3,0.3-0.4c0.1-0.1,0.3-0.2,0.5-0.3c-0.1,0-0.1-0.1-0.2-0.2
		c0-0.1,0-0.2,0-0.3c0,0,0-0.1,0.1-0.2c0-0.1,0.1-0.1,0.1-0.2c0-0.1,0.1-0.1,0.2-0.1c0.1,0,0.1-0.1,0.2-0.1
		c-0.1-0.1-0.2-0.2-0.3-0.4c-0.1-0.2-0.1-0.3,0-0.5c0-0.2,0.1-0.3,0.2-0.4c0.1-0.1,0.2-0.3,0.4-0.3c0.1-0.1,0.3-0.2,0.5-0.2
		C151.4,739.9,151.6,739.9,151.8,739.9z M151.9,743.5c0-0.1,0-0.2,0-0.2c0-0.1-0.1-0.1-0.2-0.1c-0.1,0-0.2,0-0.3-0.1
		c-0.1,0-0.2,0-0.3,0c-0.1,0-0.2,0-0.4,0c-0.1,0-0.2,0-0.3,0c-0.1,0.1-0.3,0.1-0.4,0.2c-0.1,0.1-0.2,0.2-0.2,0.3c0,0.1,0,0.1,0,0.2
		c0,0.1,0.1,0.1,0.1,0.2c0.1,0,0.2,0.1,0.3,0.1c0.1,0,0.2,0,0.4,0c0.2,0,0.3,0,0.4,0c0.1,0,0.2-0.1,0.4-0.1c0.1-0.1,0.2-0.1,0.3-0.2
		C151.8,743.6,151.9,743.5,151.9,743.5z M151.3,741.6c0.1,0,0.2,0,0.3,0c0.1,0,0.2-0.1,0.3-0.1c0.1-0.1,0.1-0.1,0.2-0.2
		c0.1-0.1,0.1-0.2,0.1-0.3c0.1-0.2,0-0.4-0.1-0.5c-0.1-0.1-0.3-0.2-0.5-0.2s-0.4,0.1-0.6,0.2c-0.2,0.1-0.3,0.3-0.3,0.5
		c0,0.1,0,0.2,0,0.3c0,0.1,0,0.2,0.1,0.2c0,0.1,0.1,0.1,0.2,0.1C151.1,741.6,151.2,741.6,151.3,741.6z M159,738.5l-0.1,0.5h-1.5
		l-1.1,4.2h-0.6l1.1-4.2h-1.5l0.1-0.5H159z M159.9,739.9c0.2,0,0.4,0,0.5,0.1c0.2,0.1,0.3,0.2,0.4,0.3c0.1,0.1,0.1,0.3,0.2,0.5
		c0,0.2,0,0.4-0.1,0.6c0,0.1,0,0.2-0.1,0.2c0,0-0.1,0-0.1,0h-2.2c-0.1,0.2-0.1,0.4-0.1,0.6c0,0.2,0,0.3,0.1,0.4
		c0.1,0.1,0.2,0.2,0.3,0.2c0.1,0.1,0.2,0.1,0.4,0.1c0.1,0,0.3,0,0.4-0.1c0.1,0,0.2-0.1,0.3-0.1c0.1,0,0.2-0.1,0.2-0.1
		c0.1,0,0.1-0.1,0.1-0.1c0,0,0.1,0,0.1,0.1l0.1,0.2c-0.1,0.1-0.2,0.2-0.3,0.2c-0.1,0.1-0.2,0.1-0.4,0.2c-0.1,0-0.3,0.1-0.4,0.1
		c-0.1,0-0.3,0-0.4,0c-0.2,0-0.4,0-0.6-0.1c-0.2-0.1-0.3-0.2-0.4-0.3c-0.1-0.2-0.2-0.3-0.2-0.6c0-0.2,0-0.5,0.1-0.8
		c0.1-0.2,0.2-0.5,0.3-0.7c0.1-0.2,0.3-0.4,0.5-0.5c0.2-0.1,0.4-0.3,0.6-0.4C159.4,739.9,159.7,739.9,159.9,739.9z M159.8,740.3
		c-0.3,0-0.5,0.1-0.7,0.2c-0.2,0.2-0.4,0.4-0.5,0.7h1.8c0-0.1,0-0.3,0-0.4c0-0.1,0-0.2-0.1-0.3c-0.1-0.1-0.1-0.1-0.2-0.2
		C160,740.3,159.9,740.3,159.8,740.3z M163.6,743.3h-0.3c-0.1,0-0.1,0-0.1,0c0,0,0-0.1,0-0.1l0-0.3c-0.1,0.1-0.2,0.2-0.3,0.2
		s-0.2,0.1-0.3,0.2c-0.1,0-0.2,0.1-0.3,0.1c-0.1,0-0.2,0-0.4,0c-0.1,0-0.2,0-0.4-0.1c-0.1,0-0.2-0.1-0.3-0.2
		c-0.1-0.1-0.1-0.2-0.1-0.3c0-0.1,0-0.2,0-0.4c0-0.1,0.1-0.3,0.2-0.4c0.1-0.1,0.3-0.2,0.4-0.3c0.2-0.1,0.4-0.2,0.7-0.2
		c0.3-0.1,0.6-0.1,1-0.1l0.1-0.3c0.1-0.3,0.1-0.5,0-0.6c-0.1-0.1-0.2-0.2-0.4-0.2c-0.1,0-0.3,0-0.4,0.1c-0.1,0-0.2,0.1-0.3,0.1
		c-0.1,0-0.2,0.1-0.2,0.1c-0.1,0-0.1,0.1-0.2,0.1c0,0-0.1,0-0.1,0c0,0,0,0-0.1-0.1l-0.1-0.2c0.2-0.2,0.5-0.3,0.7-0.4
		c0.2-0.1,0.5-0.1,0.7-0.1c0.2,0,0.3,0,0.5,0.1c0.1,0.1,0.2,0.1,0.3,0.3c0.1,0.1,0.1,0.2,0.1,0.4c0,0.2,0,0.3-0.1,0.5L163.6,743.3z
		 M162.2,742.9c0.1,0,0.2,0,0.3,0c0.1,0,0.2-0.1,0.3-0.1c0.1,0,0.2-0.1,0.3-0.1c0.1-0.1,0.2-0.1,0.3-0.2l0.2-0.7
		c-0.3,0-0.5,0-0.7,0.1c-0.2,0-0.4,0.1-0.5,0.1c-0.1,0.1-0.2,0.1-0.3,0.2c-0.1,0.1-0.1,0.2-0.2,0.3c0,0.1,0,0.2,0,0.2
		c0,0.1,0,0.1,0.1,0.2c0,0,0.1,0.1,0.1,0.1C162,742.9,162.1,742.9,162.2,742.9z M164.5,743.3l0.9-3.4h0.3c0.1,0,0.1,0,0.1,0.1l0,0.3
		c0.2-0.2,0.3-0.3,0.5-0.4c0.2-0.1,0.4-0.1,0.6-0.1c0.2,0,0.4,0.1,0.5,0.2c0.1,0.1,0.2,0.3,0.2,0.5c0.1-0.1,0.2-0.2,0.3-0.3
		c0.1-0.1,0.2-0.2,0.3-0.2c0.1-0.1,0.2-0.1,0.3-0.1c0.1,0,0.2,0,0.3,0c0.2,0,0.3,0,0.5,0.1c0.1,0.1,0.2,0.1,0.3,0.2
		c0.1,0.1,0.1,0.2,0.1,0.4c0,0.2,0,0.3-0.1,0.5l-0.6,2.1h-0.6l0.6-2.1c0.1-0.3,0.1-0.5,0-0.6c-0.1-0.1-0.2-0.2-0.4-0.2
		c-0.1,0-0.2,0-0.3,0.1c-0.1,0-0.2,0.1-0.3,0.2c-0.1,0.1-0.2,0.2-0.2,0.3c-0.1,0.1-0.1,0.2-0.2,0.4l-0.6,2.1h-0.6l0.6-2.1
		c0.1-0.3,0.1-0.5,0-0.6c-0.1-0.1-0.2-0.2-0.4-0.2c-0.1,0-0.3,0-0.4,0.1c-0.1,0.1-0.3,0.2-0.4,0.3l-0.7,2.5H164.5z"/>
</g>
<g>
	<g>
		<linearGradient id="SVGID_4_" gradientUnits="userSpaceOnUse" x1="759.4263" y1="142.1243" x2="959.6039" y2="142.1243">
			<stop  offset="0" style="stop-color:#FFFFFF;stop-opacity:0"/>
			<stop  offset="4.209470e-02" style="stop-color:#FDEAED;stop-opacity:4.245090e-02"/>
			<stop  offset="0.1274" style="stop-color:#FAC5CD;stop-opacity:0.1284"/>
			<stop  offset="0.2201" style="stop-color:#F7A6B1;stop-opacity:0.222"/>
			<stop  offset="0.3205" style="stop-color:#F58C9B;stop-opacity:0.3232"/>
			<stop  offset="0.4313" style="stop-color:#F37889;stop-opacity:0.4349"/>
			<stop  offset="0.5581" style="stop-color:#F26B7D;stop-opacity:0.5628"/>
			<stop  offset="0.7149" style="stop-color:#F16276;stop-opacity:0.7209"/>
			<stop  offset="0.9916" style="stop-color:#F16074"/>
		</linearGradient>
		<rect x="759.4" y="129.8" class="st9" width="200.2" height="24.7"/>
		<g>
			<path class="st7" d="M911.3,134.7c0.8,0,1.5-0.7,1.5-1.5c0-0.8-0.6-1.5-1.5-1.5c-0.8,0-1.5,0.7-1.5,1.5
				C909.8,134,910.5,134.7,911.3,134.7z"/>
			<path class="st7" d="M907.6,134.7c0.8,0,1.5-0.7,1.5-1.5c0-0.8-0.6-1.5-1.5-1.5c-0.8,0-1.5,0.7-1.5,1.5
				C906.2,134,906.8,134.7,907.6,134.7z"/>
			<path class="st7" d="M918,148.5c-0.8,0-1.5,0.7-1.5,1.5c0,0.8,0.6,1.5,1.5,1.5c0.8,0,1.5-0.7,1.5-1.5
				C919.5,149.2,918.9,148.5,918,148.5z"/>
			<path class="st7" d="M921.7,148.5c-0.8,0-1.5,0.7-1.5,1.5c0,0.8,0.6,1.5,1.5,1.5c0.8,0,1.5-0.7,1.5-1.5
				C923.1,149.2,922.5,148.5,921.7,148.5z"/>
			<path class="st7" d="M920.3,144.4h-3.8h-0.3h-1.8v-7.6c0,0-2-0.8-4.6-0.8c-4,0-5.8,2.6-5.8,5.5c0,3.1,1.6,5.1,5.9,5.1h6.4h0.3
				h6.7v-10.3h-2.9V144.4z M911.5,144.4h-1.4c-2.3,0-3.3-1.1-3.3-3.1c0-1.7,1-3,2.6-3c1.3,0,2.1,0.4,2.1,0.4V144.4z"/>
			<path class="st7" d="M949.6,135.5l-2.8,0.4c0.4,1.7,0.6,3.7,0.6,5.9c0,0.7-0.1,1.8-0.2,2.6h-0.8c-1.9,0-2.4-0.6-2.4-2.4v-5.2
				h-2.8v5.3c0,1.6-0.4,2.5-1.6,2.5c-1.3,0-1.7-0.9-1.7-2.6v-4.4h-2.9v4c0,2.2-0.5,2.8-2,2.8h-0.4h-0.3h-1.8v-8.1h-2.9v10.6
				c0,2.4-0.9,3.1-2.4,3.1c-0.7,0-1.3-0.1-1.8-0.3l-0.2,2.3c0.5,0.1,1.2,0.2,1.8,0.2c4.5,0,5.4-2.7,5.4-5.5v-0.1h1.8h0.3h0.4
				c1.6,0,2.5-0.6,2.9-1.6c0.4,1.1,1.5,1.8,3.1,1.8c1.4,0,2.7-0.6,3.2-1.8c0.5,1.2,1.6,1.6,3.6,1.6h4.1c0.2-1.6,0.3-3.5,0.3-5.1
				C950.3,139.4,950.1,137.2,949.6,135.5z"/>
		</g>
		<g>
			<path class="st1" d="M736.3,148.4c0,1-1.1,1.5-2.8,2.2l-4.9,1.9c-1.3,0.5-1.9,1.3-1.9,2.3c0,0.3,0.1,0.7,0.2,1.1l0.2-0.1
				c0-0.1,0-0.1,0-0.2c0-0.9,1.3-1.4,2.8-2l4.9-1.9c1.3-0.5,1.9-1.3,1.9-2.2c0-0.4-0.1-0.7-0.2-1.1L736.3,148.4z"/>
			<path class="st1" d="M764.8,96.9c1.7,0,3.1-1.4,3.1-3.1v-2c0-1.2,0-2.3,0.7-2.4v-0.2c-0.4,0-0.8,0.1-1.1,0.3h-2.8
				c-1.8,0-3.4,1.6-3.4,3.4v1.2C761.4,95.7,762.9,96.9,764.8,96.9z M762.5,92.9c0-1.3,1-2.3,2.5-2.3h2c-0.1,0.2-0.1,0.4-0.1,0.6v2.5
				c0,1.2-1,2.1-2.1,2.1c-1.3,0-2.3-0.8-2.3-1.7V92.9z"/>
			<path class="st1" d="M782.4,78.2c1.9,0,4-1.1,5.2-3.5l1.5-2.5l0.9-1.6c0.5-0.8,0.9-1.7,1.4-1.7c0.1,0,0.2,0,0.2,0l0.1-0.1
				c-0.4-0.2-0.7-0.3-1-0.3l-2.2-1.2c-0.5-0.3-1-0.4-1.5-0.4c-1.1,0-2.3,0.6-2.8,1.6l-0.6,1c-0.2,0.4-0.3,0.8-0.3,1.1
				c0,1.3,1.3,3.1,3.1,3.1c0.2,0,0.4,0,0.6-0.1l-0.3,0.6c-1.3,2.4-3.2,3.4-4.9,3.4c-1.2,0-2.3-0.5-3-1.4l-0.1,0.1
				C779.6,77.5,781,78.2,782.4,78.2z M786.6,72.6c-1.3,0-2.1-1.2-2.1-2c0-0.2,0.1-0.4,0.2-0.6l0.5-1c0.4-0.7,1.1-1.1,1.9-1.1
				c0.4,0,0.8,0.1,1.2,0.3l1.4,0.8l-1.7,3.1C787.5,72.5,787,72.6,786.6,72.6z"/>
			<path class="st1" d="M790.8,79.1c0,0.3,0.1,0.7,0.2,1l0.9,2.5c0.1,0.2,0.1,0.5,0.1,0.8c0,1-0.9,2.1-2.1,2.1
				c-0.9,0-1.8-0.7-2.3-1.7l-1.5-3.8l-1,0.4l1.6,4.2c0.1,0.2,0.1,0.5,0.1,0.7c0,1-0.8,2.2-2.1,2.2c-0.9,0-1.8-0.6-2.2-1.7l-1.5-3.8
				l-1.1,0.4l1.7,4.4c0.6,1.2,1.7,1.8,2.8,1.8c1.5,0,3.1-1,3.4-2.6c0.6,0.4,1.3,0.6,2,0.6c1.8,0,3.2-1.6,3.2-3.3
				c0-0.4-0.1-0.7-0.2-1.1l-0.8-2c-0.3-0.8-0.6-1.5-0.6-2c0-0.3,0.1-0.5,0.3-0.7l0-0.1C791.2,77.8,790.8,78.3,790.8,79.1z"/>
			<polygon class="st1" points="806.5,98.3 803.7,95.4 800.8,98.3 803.7,101.1 			"/>
			<path class="st1" d="M829,89.6v0.4c2.1,0.2,2.1,3.7,2.1,7.2v20c0,4.5-3.4,7.1-5.8,7.3h-4.7v-6.1c0-5.7-4-11.3-10.4-11.8h-6.7
				c-6.7,0-12.2,2.7-15.3,6.4l-0.1,0.1V97.3c0-3.6-2.1-5.1-5.2-5.2v0.3c1.9,0.2,1.9,3.1,1.9,6v23.6c0,0.9,0.1,1.9,0.3,2.4h-5.4
				c-4.8,0-6.6-1.3-7.3-4.4v-4.2c0-5.5-3.9-9.6-9.7-9.6h-2.5c-3.3,0-6.6,0-6.7-1.9h-0.3c0.1,1.4,0.5,2.7,1.2,3.5
				c0.7,0.9,1.5,1.6,4.2,1.6h4.2c2.6,0,4,0.9,4.8,2c0.8,1.1,1.2,1.7,1.6,5v8h-5.1V115h-3.6c-5.3,0-9.8,4.5-9.9,9.5h-3.3h-0.1h-8.8
				v-18h-3.3v21.2c0,11.5-6.9,18.9-15,18.9c-1.5,0-2.8-0.3-4.2-1l-0.3,0.6c2.1,0.8,4,1.2,5.9,1.2c4.7,0,8.6-1.8,11.7-5.4
				c3.6-3.8,5.1-8.5,5.1-14.3h8.8h0.1h25.1v-2.1c1.7,1.4,3.4,2,7.2,2.1v0h45.8v0c0.8,0,1.8-0.3,2.9-0.9c3.6-1.7,6-5.6,6-9.6V95.6
				C834.3,91.3,832.1,89.7,829,89.6z M760.8,124.5h-7c0-3.4,2.7-6.1,6.5-6.2h0.6V124.5z M817.3,124.5h-31.9c0-0.1-0.1-0.6-0.1-0.9
				c0-6.9,6-13.8,17.9-13.8h6.7c4.9,0.5,7.4,4.6,7.4,8.6V124.5z"/>
			<path class="st1" d="M839.8,89.8v0.4c1.7,0.3,2,1.8,2,7.5v30h3.3V96C845,92,843.3,89.9,839.8,89.8z"/>
			<path class="st1" d="M863.6,85.6c1.9,0,4-1.1,5.2-3.5l1.5-2.5l0.9-1.6c0.5-0.8,0.9-1.7,1.4-1.7c0.1,0,0.2,0,0.2,0l0.1-0.1
				c-0.4-0.2-0.7-0.3-1-0.3l-2.2-1.2c-0.5-0.3-1-0.4-1.5-0.4c-1.1,0-2.3,0.6-2.8,1.6l-0.6,1c-0.2,0.4-0.3,0.8-0.3,1.1
				c0,1.3,1.3,3.1,3.1,3.1c0.2,0,0.4,0,0.6-0.1l-0.3,0.6c-1.3,2.4-3.2,3.4-4.9,3.4c-1.2,0-2.3-0.5-3-1.4l-0.1,0.1
				C860.8,85,862.2,85.6,863.6,85.6z M867.8,80.1c-1.3,0-2.1-1.2-2.1-2c0-0.2,0.1-0.4,0.2-0.6l0.5-1c0.4-0.7,1.1-1.1,1.9-1.1
				c0.4,0,0.8,0.1,1.2,0.3l1.4,0.8l-1.7,3.1C868.7,80,868.2,80.1,867.8,80.1z"/>
			<path class="st1" d="M870,105.5c-5.5,0-10.3,4.8-10.3,10.3v3.6c0,4.8,4.7,8.3,10.2,8.3c5.1,0,9.4-4.2,9.4-9.3v-6
				c0-3.5,0-7,2.1-7.2v-0.5c-1.1,0.1-2.3,0.3-3.1,0.8H870z M876.1,110.8v7.6c0,3.4-2.9,6.1-6.2,6.1c-3.9,0-6.8-2.5-6.8-5.1v-3.6
				c0-3.8,3.1-7,7.4-7h5.8C876.1,109.4,876.1,109.9,876.1,110.8z"/>
			<polygon class="st1" points="869.1,98.4 872,101.3 874.9,98.4 872,95.6 			"/>
			<polygon class="st1" points="863.3,98.4 866.2,101.3 869.1,98.4 866.2,95.6 			"/>
			<path class="st1" d="M941.2,101.3c0-0.1,0-0.1,0-0.2c0-0.9,1.3-1.4,2.8-2l4.9-1.9c1.3-0.5,1.9-1.3,1.9-2.2c0-0.4-0.1-0.7-0.2-1.1
				l-0.2,0.1c0,1-1.1,1.5-2.8,2.2l-4.9,1.9c-1.3,0.5-1.9,1.3-1.9,2.3c0,0.3,0.1,0.7,0.2,1.1L941.2,101.3z"/>
			<path class="st1" d="M948.5,105.6h-6.9c-10.6,0-18.6,6.3-19.3,14.5c-0.7-2.6-2.2-5.2-4.4-7.3l-0.4,0.3c2.4,2.2,3.2,5.4,3.2,8.8
				c0,1.3-0.3,2.2-0.9,2.5h-2.7c-3.4-0.3-5.9-2.2-6.2-5.5V94.4c0-4.3-2.1-6-5.4-6.1v0.5c2,0.3,2.1,3.6,2.1,7.4v20.6
				c0,4.4-3,7.7-6.8,7.7h-2.9v-14.9c0-4.3-2.1-6-5.5-6.2v0.5c2,0.3,2.2,3.8,2.2,7.5v13.1h-10.9v3.3h17.1c3.5,0,7-2.5,8-4.5
				c1.7,2.9,4.8,4.5,8.2,4.5v0h42.6V118C959.7,111.8,954.5,106.2,948.5,105.6z M956.3,124.5h-33.5v-1c0-8.3,7.6-14.5,18.8-14.5h3.4
				c2.9,0,4.8,0.4,6.2,0.9c3.4,1.7,5.1,4.4,5.1,8.1V124.5z"/>
		</g>
	</g>
</g>
<g>
	
		<radialGradient id="SVGID_5_" cx="242.5773" cy="251.8452" r="54.2731" fx="231.4369" fy="235.8017" gradientUnits="userSpaceOnUse">
		<stop  offset="0.1436" style="stop-color:#FFF75D"/>
		<stop  offset="0.5314" style="stop-color:#FFDE00"/>
		<stop  offset="0.9166" style="stop-color:#FF7D00"/>
	</radialGradient>
	<circle class="st10" cx="243.6" cy="254.4" r="48.7"/>
	<g>
		<path class="st11" d="M243.6,205.7c-26.9,0-48.7,21.8-48.7,48.7c0,26.9,21.8,48.7,48.7,48.7c26.9,0,48.7-21.8,48.7-48.7
			C292.3,227.5,270.5,205.7,243.6,205.7z M241.9,299.9c-25.1,0-45.5-20.4-45.5-45.5c0-25.1,20.4-45.5,45.5-45.5
			c25.1,0,45.5,20.4,45.5,45.5C287.4,279.5,267,299.9,241.9,299.9z"/>
		<path class="st11" d="M248.9,189.6c0,2.7-2,4.9-4.6,4.9l0,0c-2.5,0-4.6-2.2-4.6-4.9v-8.7c0-2.7,2-4.9,4.6-4.9l0,0
			c2.5,0,4.6,2.2,4.6,4.9V189.6z"/>
		<path class="st11" d="M248.9,322.8c0,2.7-2,4.9-4.6,4.9l0,0c-2.5,0-4.6-2.2-4.6-4.9v-8.7c0-2.7,2-4.9,4.6-4.9l0,0
			c2.5,0,4.6,2.2,4.6,4.9V322.8z"/>
		<path class="st11" d="M306.6,256.4c-2.7,0-4.9-2-4.9-4.6l0,0c0-2.5,2.2-4.6,4.9-4.6h8.7c2.7,0,4.9,2,4.9,4.6l0,0
			c0,2.5-2.2,4.6-4.9,4.6H306.6z"/>
		<path class="st11" d="M173.4,256.4c-2.7,0-4.9-2-4.9-4.6l0,0c0-2.5,2.2-4.6,4.9-4.6h8.7c2.7,0,4.9,2,4.9,4.6l0,0
			c0,2.5-2.2,4.6-4.9,4.6H173.4z"/>
		<path class="st11" d="M291.6,211.1c-1.9,1.9-4.9,2.1-6.7,0.3l0,0c-1.8-1.8-1.7-4.8,0.3-6.7l6.2-6.2c1.9-1.9,4.9-2.1,6.7-0.3l0,0
			c1.8,1.8,1.7,4.8-0.3,6.7L291.6,211.1z"/>
		<path class="st11" d="M197.4,305.3c-1.9,1.9-4.9,2.1-6.7,0.3l0,0c-1.8-1.8-1.7-4.8,0.3-6.7l6.2-6.2c1.9-1.9,4.9-2.1,6.7-0.3l0,0
			c1.8,1.8,1.7,4.8-0.3,6.7L197.4,305.3z"/>
		<path class="st11" d="M285.1,299.1c-1.9-1.9-2-4.9-0.3-6.7l0,0c1.8-1.8,4.8-1.7,6.7,0.3l6.2,6.2c1.9,1.9,2.1,4.9,0.3,6.7l0,0
			c-1.8,1.8-4.8,1.7-6.7-0.3L285.1,299.1z"/>
		<path class="st11" d="M190.9,204.9c-1.9-1.9-2-4.9-0.3-6.7l0,0c1.8-1.8,4.8-1.7,6.7,0.3l6.2,6.2c1.9,1.9,2.1,4.9,0.3,6.7l0,0
			c-1.8,1.8-4.8,1.7-6.7-0.3L190.9,204.9z"/>
	</g>
	<defs>
		<filter id="Adobe_OpacityMaskFilter" filterUnits="userSpaceOnUse" x="197.7" y="209.7" width="72.7" height="48.8">
			<feFlood  style="flood-color:white;flood-opacity:1" result="back"/>
			<feBlend  in="SourceGraphic" in2="back" mode="normal"/>
		</filter>
	</defs>
	<mask maskUnits="userSpaceOnUse" x="197.7" y="209.7" width="72.7" height="48.8" id="SVGID_6_">
		<g class="st12">
			<defs>
				<filter id="Adobe_OpacityMaskFilter_1_" filterUnits="userSpaceOnUse" x="197.7" y="209.7" width="72.7" height="48.8">
					<feFlood  style="flood-color:white;flood-opacity:1" result="back"/>
					<feBlend  in="SourceGraphic" in2="back" mode="normal"/>
				</filter>
			</defs>
			<mask maskUnits="userSpaceOnUse" x="197.7" y="209.7" width="72.7" height="48.8" id="SVGID_6_">
				<g class="st13">
				</g>
			</mask>
			
				<radialGradient id="SVGID_7_" cx="232.6172" cy="214.1113" r="50.6721" fx="249.7934" fy="187.9982" gradientUnits="userSpaceOnUse">
				<stop  offset="0.2627" style="stop-color:#FFFFFF"/>
				<stop  offset="0.7268" style="stop-color:#FFFFFF"/>
				<stop  offset="0.9716" style="stop-color:#000000"/>
			</radialGradient>
			<path class="st14" d="M212.4,220.4c9-9.2,32.2-15.4,48.6-6.2c16.4,9.2,11,26.7-15.4,25.7c-26.4-1-42.3,8.6-44.4,16.8
				C199.2,265,190.1,243.2,212.4,220.4z"/>
		</g>
	</mask>
	
		<radialGradient id="SVGID_8_" cx="232.6172" cy="214.1113" r="50.6721" fx="249.7934" fy="187.9982" gradientUnits="userSpaceOnUse">
		<stop  offset="0.2627" style="stop-color:#FFFFFF"/>
		<stop  offset="0.7268" style="stop-color:#FFF75D"/>
		<stop  offset="0.9716" style="stop-color:#FFDE00"/>
	</radialGradient>
	<path class="st15" d="M212.4,220.4c9-9.2,32.2-15.4,48.6-6.2c16.4,9.2,11,26.7-15.4,25.7c-26.4-1-42.3,8.6-44.4,16.8
		C199.2,265,190.1,243.2,212.4,220.4z"/>
</g>
</svg>
