<?xml version="1.0" encoding="utf-8"?>
<!-- Generator: Adobe Illustrator 21.1.0, SVG Export Plug-In . SVG Version: 6.00 Build 0)  -->
<svg version="1.1" id="Layer_1" xmlns="http://www.w3.org/2000/svg" xmlns:xlink="http://www.w3.org/1999/xlink" x="0px" y="0px"
	 viewBox="0 0 1024 768" style="enable-background:new 0 0 1024 768;" xml:space="preserve">
<style type="text/css">
	.st0{fill:url(#SVGID_1_);}
	.st1{fill:#622272;}
	.st2{fill:url(#SVGID_2_);}
	.st3{fill:#C94876;}
	.st4{fill-rule:evenodd;clip-rule:evenodd;fill:#F6DFB4;}
	.st5{fill:#D1D3D4;}
	.st6{fill:#FFFFFF;}
	.st7{fill:#1D5A69;}
	.st8{fill:url(#SVGID_3_);}
	.st9{fill:url(#SVGID_4_);}
	.st10{fill:#FF8A00;}
	.st11{filter:url(#Adobe_OpacityMaskFilter);}
	.st12{filter:url(#Adobe_OpacityMaskFilter_1_);}
	.st13{mask:url(#SVGID_5_);fill:url(#SVGID_6_);}
	.st14{fill:url(#SVGID_7_);}
</style>
<g>
	<g>
		<g>
			<linearGradient id="SVGID_1_" gradientUnits="userSpaceOnUse" x1="245.21" y1="139.194" x2="245.21" y2="722.1849">
				<stop  offset="0.3212" style="stop-color:#1C75BC"/>
				<stop  offset="0.3967" style="stop-color:#247BBF"/>
				<stop  offset="0.517" style="stop-color:#3C8AC7"/>
				<stop  offset="0.667" style="stop-color:#61A4D5"/>
				<stop  offset="0.839" style="stop-color:#95C7E8"/>
				<stop  offset="1" style="stop-color:#CCECFC"/>
			</linearGradient>
			<path class="st0" d="M395.5,267.9h-6.1c-1.8-28.2-25.9-59.6-71.7-93.4c-35-25.9-70.5-43.7-70.9-43.9c-1-0.5-2.2-0.5-3.1,0
				c-0.3,0.2-35.9,18-70.9,43.9c-45.7,33.8-69.8,65.2-71.7,93.4H95c-1.9,0-3.5,1.6-3.5,3.5v360.2H399V271.4
				C399,269.5,397.4,267.9,395.5,267.9z"/>
		</g>
	</g>
</g>
<g>
	<path class="st1" d="M494.9,223.5c-0.8,0-1.5,0.7-1.5,1.5c0,0.8,0.7,1.5,1.5,1.5c0.8,0,1.5-0.7,1.5-1.5
		C496.4,224.2,495.8,223.5,494.9,223.5z"/>
	<path class="st1" d="M494.9,216.1c-0.8,0-1.5,0.7-1.5,1.5c0,0.8,0.7,1.5,1.5,1.5c0.8,0,1.5-0.7,1.5-1.5
		C496.4,216.7,495.8,216.1,494.9,216.1z"/>
	<polygon class="st1" points="514.2,229.9 516.1,231.3 517.3,229.4 515.4,228.1 	"/>
	<path class="st1" d="M521.1,215.2l-0.5,2.4l0.1,0.1c3.1,2,5.6,3.8,5.6,5.7c-0.6,0.5-2.5,1-5,1h-1.8c-1.6,0-2.4-0.4-3-0.7
		c0.5-0.9,0.8-2.2,1.2-3.7l-0.2-0.1l-1.8,0.5c-0.5,2-0.8,3.1-1.2,3.6c-0.4,0.3-1.1,0.5-2,0.5H512l0,0c0,0,0,0,0,0
		c-1.6,0-1.9-0.3-2.5-1.9c-0.2-0.6-0.8-2-1.4-3.7h-0.2l-1.4,1.5c0.7,1.4,1.5,2.9,1.8,4c-0.5,1.9-2.2,3.7-6.8,4.6l-0.1,0.2l1,1.4
		c3.8-0.7,6.4-2.7,7.2-4.9c0.4,0.4,1.1,0.6,2,0.6v0h0.5c1.7,0,2.8-0.4,3.6-1.2c1,0.9,2.4,1.2,3.5,1.2v0h2.3c4.8,0,6.5-1.5,6.5-3.4
		c0-1.5-0.8-3.2-5.5-6.2l6.2-3.5l0.6-2.4l-0.2-0.1L521.1,215.2z"/>
	<polygon class="st1" points="533.3,210.3 533.3,226.3 533.4,226.4 535.1,226 535.1,210 535,209.9 	"/>
	<path class="st1" d="M534.1,207c-0.3-0.3-0.5-0.6-0.5-1c0-0.5,0.3-0.9,0.9-0.9c0.3,0,0.7,0.1,1.1,0.2l0.3-1.2
		c-0.6-0.2-1.2-0.3-1.7-0.3c-1.2,0-2,0.7-2,1.9c0,0.5,0.2,1,0.4,1.4c-0.4,0-0.7,0-1.1,0l0.1,1.3c1.9-0.1,3.4-0.2,4.6-0.3l-0.1-1.2
		C535.6,206.9,534.8,207,534.1,207z"/>
	<path class="st1" d="M541.9,218.5c-1.9,0-3.5,2.4-3.5,4.6c0,1.7,1,2.8,3.1,2.8c0.9,0,1.7-0.1,2.3-0.3c-0.7,2-3.1,3.1-6.5,3.3
		l-0.1,0.2l1,1.4c5.1-0.1,7.3-3.1,7.3-6.2C545.5,221.3,544.1,218.5,541.9,218.5z M541.8,224.1c-1.2,0-1.9-0.4-1.9-1.2
		c0-1.3,1-2.5,1.9-2.5c1.1,0,2.1,1.7,2.2,3.5C543.3,224,542.6,224.1,541.8,224.1z"/>
	<polygon class="st1" points="577.1,215.3 575.1,214 573.9,215.8 575.8,217.2 	"/>
	<polygon class="st1" points="595.1,229.9 597.1,231.3 598.3,229.4 596.3,228.1 	"/>
	<polygon class="st1" points="591.7,229.9 593.6,231.3 594.8,229.4 592.9,228.1 	"/>
	<path class="st1" d="M601.8,210.3v11.7c0,0.9-0.1,1.5-0.2,1.9c-0.6,0.4-1.5,0.5-2.3,0.5c-2,0-2.9-0.4-3.4-0.7
		c0.5-0.9,0.8-2.2,1.1-3.7l-0.2-0.1l-1.8,0.5c-0.5,2-0.8,3.1-1.2,3.6c-0.4,0.3-1.1,0.5-1.8,0.5h-0.7l0,0c0,0,0,0,0,0
		c-1.5,0-1.9-0.3-2.8-2.1c-0.9-1.9-1.7-3.7-3.5-3.7c-2.2,0-3.4,2.9-4.3,4.4c-0.8,1.2-1.1,1.5-2.1,1.5l0,0c0,0,0,0,0,0
		c-1.6,0-2.4-0.4-3-0.7c0.5-0.9,0.8-2.2,1.2-3.7l-0.2-0.1l-1.8,0.5c-0.5,2-0.8,3.1-1.2,3.6c-0.4,0.3-1.1,0.5-2,0.5h-0.5
		c-2.1,0-4.2-0.9-6.5-1.5l-0.6,1.8c2.8,0.7,3.9,1.2,3.9,2c-0.4,1.2-3.4,2.2-7,2.2c-3.9,0-5.1-1.5-5.1-3.8c0-0.6,0.1-1.3,0.3-2.2
		l-0.2-0.1l-1.5,0.5c-0.2,0.6-0.4,1.6-0.4,2.7c0,2.7,2.2,4.7,6.5,4.7c5.2,0,8.8-1.6,9.2-4.5h0.9c0,0,0,0,0,0l0,0h0.5
		c1.7,0,2.8-0.4,3.6-1.2c1,0.9,2.4,1.2,3.5,1.2v0c0,0,0,0,0,0c0,0,0,0,0,0s0,0,0,0c1.9,0,2.7-0.3,3.6-1.5c1.5,1.1,3.4,1.8,4.8,1.8
		c1,0,1.5-0.4,1.9-1.1c0.6,0.6,1.4,0.8,2.4,0.8c0,0,0,0,0,0l0,0h0.8c1.5,0,2.6-0.4,3.3-1.2c1,0.9,2.5,1.2,3.9,1.2l0,0c0,0,0,0,0,0
		c0,0,0,0,0,0s0,0,0,0c3,0,4.8-0.9,4.8-4.4V210l-0.2-0.1L601.8,210.3z M586,224.7c-0.8,0-2.3-0.6-3.5-1.4c0.7-1.4,1.5-2.9,2.4-2.9
		c0.6,0,1.2,0.9,2.2,3.3c0.1,0.1,0.1,0.3,0.2,0.4C587,224.5,586.6,224.7,586,224.7z"/>
	<polygon class="st1" points="606.8,210.3 606.8,226.3 606.9,226.4 608.6,226 608.6,210 608.5,209.9 	"/>
	<polygon class="st1" points="623.6,234.4 625.5,235.8 626.8,233.9 624.8,232.6 	"/>
	<polygon class="st1" points="620.2,234.4 622.1,235.8 623.3,233.9 621.3,232.6 	"/>
	<path class="st1" d="M637.7,226.3c1.7,0,3.3-0.3,6.3-1.4c2.6-0.9,4.5-1.4,6.5-1.6l0.5-1.7c-1.2-0.1-2.5-0.6-4.6-1.8
		c-2.1-1.2-3.2-1.6-4.3-1.6c-0.7,0-1.6,0.2-2.1,0.5l-0.7,1.7l0.1,0.1c0.7-0.2,1.5-0.5,2.4-0.5c1.1,0,2.1,0.3,4,1.4
		c0.7,0.4,1.2,0.7,1.7,0.9c-1,0.2-2.2,0.5-3.8,1c-2.6,0.8-3.9,1.1-5.4,1.1c-2.2,0-2.7-1.8-2.7-4.5v-10l-0.2-0.1l-1.7,0.4v9.8
		c0,0.8-0.1,1.5-0.2,1.9c-0.6,0.3-2.5,0.7-5.9,1l0,0l-0.6,1.7c3.5,0.9,3.9,1.5,3.9,2c-0.4,1.2-3.2,2.1-6.9,2.1
		c-3.9,0-5.1-1.5-5.1-3.8c0-0.6,0.1-1.3,0.3-2.2l-0.2-0.1l-1.5,0.5c-0.2,0.6-0.4,1.6-0.4,2.7c0,2.7,2.2,4.7,6.5,4.7
		c5.2,0,8.8-1.6,9.2-4.5c0-0.7-0.3-1.3-1.5-1.9c1.2-0.2,2.1-0.5,2.8-0.9C634.5,225.3,635.8,226.3,637.7,226.3L637.7,226.3
		C637.7,226.3,637.7,226.3,637.7,226.3C637.7,226.3,637.7,226.3,637.7,226.3C637.7,226.3,637.7,226.3,637.7,226.3z"/>
	<polygon class="st1" points="642.3,229.9 644.3,231.3 645.5,229.4 643.6,228.1 	"/>
	<path class="st1" d="M655.7,218.8l-1.4,1.5c0.9,1.6,1.7,3.4,1.7,4.4c0,1.4-2.1,3.5-6.7,4.3l-0.1,0.2l1,1.4c3.3-0.6,5.8-2.2,6.7-3.9
		c0.4-0.8,0.6-1.7,0.6-2.4c0-1.4-0.7-3.5-1.7-5.4H655.7z"/>
	<path class="st1" d="M692.1,224.3c-0.9-0.9-1.4-2-1.4-3c0-1.4,0.9-2.1,2.6-2.1c0.9,0,2,0.3,2.9,0.6l0.1,0l0.2-1.7
		c-0.8-0.4-2.1-0.8-3.2-0.8c-2.6,0-4.6,1.5-4.6,4c0,1,0.4,2.1,1,3.1c-0.8,0-1.7,0-2.6,0c-2.2,0-2.7-1.8-2.7-4.5v-10l-0.2-0.1
		l-1.7,0.4v9.8c0,0.8-0.1,1.5-0.2,1.9c-0.6,0.3-2.5,0.7-5.9,1l0,0l-0.6,1.7c3.5,0.9,3.9,1.5,3.9,2c-0.4,1.2-3.2,2.1-6.9,2.1
		c-3.9,0-5.1-1.5-5.1-3.8c0-0.6,0.1-1.3,0.3-2.2l-0.2-0.1l-1.5,0.5c-0.2,0.6-0.4,1.6-0.4,2.7c0,2.7,2.2,4.7,6.5,4.7
		c5.2,0,8.8-1.6,9.2-4.5c0-0.7-0.3-1.3-1.5-1.9c1.2-0.2,2.1-0.5,2.8-0.9c0.5,1.9,1.8,2.8,3.7,2.8l0,0c0,0,0,0,0,0h0h0
		c6.1,0,8.9-0.2,10.8-0.6l0.6-1.7l-0.1-0.1C696,224.1,694.2,224.2,692.1,224.3z"/>
	<path class="st1" d="M742.8,218.2c-0.7,0-1.6,0.2-2.1,0.5l-0.7,1.7l0.1,0.1c0.7-0.2,1.5-0.5,2.4-0.5c1.1,0,2.1,0.3,4,1.4
		c0.7,0.4,1.2,0.7,1.7,0.9c-1,0.2-2.2,0.5-3.8,1c-2.6,0.8-3.9,1.1-5.4,1.1c-1.6,0-2.7-0.2-2.7-2.6V210l-0.2-0.1l-1.7,0.4v11.7
		c0,0.9-0.1,1.5-0.2,1.9c-0.6,0.4-1.5,0.5-2.3,0.5c-1.5,0-2.4-0.4-2.9-0.7c0.2-0.7,0.3-1.6,0.3-2.6c0-0.3,0-0.7,0-1.1l-0.2-0.1
		l-1.7,0.6c0,0.5,0.1,0.9,0.1,1.2c0,1.2-0.2,1.9-0.4,2.2c-0.4,0.3-1,0.4-1.6,0.4c-0.6,0-1.2-0.1-1.7-0.3c0.4-0.8,0.7-1.8,1.1-3
		l-0.1-0.1l-1.9,0.3c-0.5,1.4-0.8,2.4-1.1,2.8c-0.3,0.2-0.8,0.3-1.2,0.3c-0.9,0-1.6-0.4-2-1.3c-0.5-1-0.9-2.4-1.2-3.2h-0.1l-1.7,1.2
		c0.7,1.7,1.3,3.1,1.3,4.4c0,0.5-0.1,1.1-0.3,1.6c-0.7,0.9-1.9,1.8-4.6,1.8c-3.3,0-4.2-1.6-4.2-4c0-0.6,0.1-1.4,0.2-2.2l-0.2-0.1
		l-1.5,0.5c-0.2,0.6-0.4,1.7-0.4,2.7c0,2.9,1.9,4.9,5.7,4.9c3.6,0,6.4-1.7,6.9-5.1c0.6,0.4,1.3,0.6,1.9,0.6c1,0,1.7-0.2,2.2-0.6
		c0.7,0.4,1.7,0.6,2.7,0.6c1.2,0,2.1-0.3,2.8-1c1,0.8,2.3,1,3.3,1l0,0c0,0,0,0,0,0c0,0,0,0,0,0c0,0,0,0,0,0c1.8,0,3.1-0.3,4-1.4
		c0.7,1.2,2.1,1.4,3,1.4v0c0,0,0,0,0,0c0,0,0,0,0,0c0,0,0,0,0,0c1.7,0,3.3-0.3,6.3-1.4c2.6-0.9,4.5-1.4,6.5-1.6l0.5-1.7
		c-1.2-0.1-2.5-0.6-4.6-1.8C744.9,218.7,743.8,218.2,742.8,218.2z"/>
	<polygon class="st1" points="743,229.9 745,231.3 746.2,229.4 744.3,228.1 	"/>
	<path class="st1" d="M754.9,207c-0.3-0.3-0.5-0.6-0.5-1c0-0.5,0.3-0.9,0.9-0.9c0.3,0,0.7,0.1,1.1,0.2l0.3-1.2
		c-0.6-0.2-1.2-0.3-1.7-0.3c-1.2,0-2,0.7-2,1.9c0,0.5,0.2,1,0.4,1.4c-0.4,0-0.7,0-1.1,0l0.1,1.3c1.9-0.1,3.4-0.2,4.6-0.3l-0.1-1.2
		C756.4,206.9,755.6,207,754.9,207z"/>
	<polygon class="st1" points="754.1,210.3 754.1,226.3 754.2,226.4 755.9,226 755.9,210 755.8,209.9 	"/>
	<path class="st1" d="M762.7,218.5c-1.9,0-3.5,2.4-3.5,4.6c0,1.7,1,2.8,3.1,2.8c0.9,0,1.7-0.1,2.3-0.3c-0.7,2-3.1,3.1-6.5,3.3
		l-0.1,0.2l1,1.4c5.1-0.1,7.3-3.1,7.3-6.2C766.3,221.3,764.9,218.5,762.7,218.5z M762.6,224.1c-1.2,0-1.9-0.4-1.9-1.2
		c0-1.3,1-2.5,1.9-2.5c1.1,0,2.1,1.7,2.2,3.5C764.1,224,763.4,224.1,762.6,224.1z"/>
	<path class="st1" d="M778.6,216.1l-1,1.8c1.8,1.8,3.4,3.9,3.7,5.8c-0.5,0.6-2.4,0.9-4,0.9c-0.6,0-1.9-0.1-2.6-0.2l-0.1,0.1
		l-0.3,1.8c0.9,0.2,2.3,0.3,2.8,0.3c3.7,0,5.7-1.1,5.7-3.5c0-1.9-1.6-4.3-4.1-6.9H778.6z"/>
	<polygon class="st1" points="798.7,229.9 800.7,231.3 801.9,229.4 800,228.1 	"/>
	<path class="st1" d="M830.8,210.3v11.7c0,0.9-0.1,1.5-0.2,1.9c-0.6,0.4-1.5,0.5-2.3,0.5c-1.5,0-2.4-0.4-2.9-0.7
		c0.2-0.7,0.3-1.6,0.3-2.6c0-0.3,0-0.7,0-1.1l-0.2-0.1l-1.7,0.6c0,0.5,0.1,0.9,0.1,1.3c0,1.1-0.2,1.8-0.4,2.2
		c-0.4,0.3-1,0.4-1.6,0.4c-0.6,0-1.2-0.1-1.7-0.3c0.4-0.8,0.7-1.8,1.1-2.9l-0.1-0.1l-1.9,0.3c-0.4,1.4-0.8,2.4-1.1,2.8
		c-0.3,0.2-0.8,0.3-1.2,0.3c-0.9,0-2.1-0.3-2.8-0.6c0.4-0.7,0.7-1.6,1.1-2.6l-0.1-0.1l-2,0.3c-0.4,1.3-0.7,2.1-1,2.5
		c-0.5,0.3-1.5,0.5-3,0.5c-2.1,0-3.3-0.2-4-0.9c0.6-0.1,1.2-0.2,1.8-0.3l0.4-1.7c-1.1-0.1-2.3-0.5-4.7-1.8c-2-1.1-3.2-1.6-4.2-1.6
		c-0.7,0-1.6,0.2-2.1,0.5l-0.7,1.8l0.1,0.1c0.7-0.3,1.5-0.5,2.4-0.5c1.1,0,2.1,0.4,4,1.4c0.7,0.4,1.2,0.6,1.7,0.8
		c-1.1,0.2-2.3,0.5-3.8,1c-2.5,0.8-3.8,1.1-5.4,1.1l0,0c0,0,0,0,0,0h-1.9v-0.1c0-3.1-1.5-5.7-3.6-5.7c-1.9,0-3.5,2.4-3.5,4.7
		c0,1.9,1.4,3.1,4.4,3.1h0.7c-1,1.6-3.2,2.5-6.1,2.7l-0.1,0.2l1,1.4c4-0.1,6.2-2,7-4.2h1.8c0,0,0,0,0,0l0,0c1.8,0,3.3-0.3,6.4-1.4
		c1-0.4,1.9-0.6,2.7-0.9c0.8,1.5,2.2,2.3,5.4,2.3l0,0c0,0,0,0,0,0c0,0,0,0,0,0c0,0,0,0,0,0c2.2,0,3.5-0.3,4.4-1.1
		c0.8,0.6,2.1,1.1,3.7,1.1c1,0,1.7-0.2,2.2-0.6c0.8,0.4,1.7,0.6,2.7,0.6c1.2,0,2.1-0.3,2.9-1c1,0.8,2.3,1,3.3,1l0,0c0,0,0,0,0,0
		c0,0,0,0,0,0c0,0,0,0,0,0c3,0,4.8-0.9,4.8-4.4V210l-0.2-0.1L830.8,210.3z M791.1,224.4h-1c-2.2,0-3.1-0.5-3.1-1.4
		c0-1.6,1-2.6,1.9-2.6c1.1,0,2.2,1.8,2.2,3.8V224.4z"/>
	<polygon class="st1" points="835.8,210.3 835.8,226.3 835.9,226.4 837.6,226 837.6,210 837.5,209.9 	"/>
	<polygon class="st1" points="853.6,216.9 851.6,215.5 850.4,217.3 852.4,218.7 	"/>
	<path class="st1" d="M867.5,218.5c-2.2,0-3.4,2.9-4.3,4.3c-0.6,1.1-1.1,1.5-2.2,1.5l0,0c-0.1,0-0.1,0-0.2,0c-1,0-1.7-0.4-2.2-1.4
		c-0.5-0.9-0.9-2.4-1.2-3.2h-0.1l-1.7,1.2c1.1,2.4,1.8,4.2,1,6c-0.7,0.9-1.9,1.8-4.6,1.8c-3.3,0-4.2-1.6-4.2-4
		c0-0.6,0.1-1.4,0.2-2.2l-0.2-0.1l-1.5,0.5c-0.2,0.6-0.4,1.7-0.4,2.7c0,2.9,1.9,4.9,5.7,4.9c3.6,0,6.4-1.7,6.9-5.1
		c0.6,0.4,1.3,0.6,1.9,0.6c0,0,0,0,0,0l0,0c1.7,0,2.8-0.4,3.6-1.5c1.7,1.2,3.6,1.8,4.8,1.8c1.6,0,2.4-1,2.4-2.6
		C871.5,221.2,869.8,218.5,867.5,218.5z M869.7,224.4c-0.3,0.2-0.7,0.3-1,0.3c-0.7,0-2.1-0.5-3.5-1.4c1-1.8,1.5-2.9,2.4-2.9
		C868.7,220.4,869.9,223.3,869.7,224.4z"/>
	<path class="st1" d="M890.7,210.3v13.1c0,1.9-0.3,3.1-0.6,3.7c-1,1.2-2.4,1.7-4.4,1.7c-3.3,0-4.2-1.6-4.2-4c0-0.6,0.1-1.4,0.2-2.2
		l-0.2-0.1l-1.5,0.5c-0.2,0.6-0.4,1.7-0.4,2.7c0,2.9,1.9,4.9,5.7,4.9c4.7,0,7.2-2.1,7.2-7.5l0-13.2l-0.2-0.1L890.7,210.3z"/>
	<polygon class="st1" points="910.3,215.3 908.4,213.9 907.2,215.7 909.1,217.1 	"/>
	<polygon class="st1" points="913.7,215.3 911.8,213.9 910.5,215.7 912.5,217.1 	"/>
	<path class="st1" d="M919,224.3c-0.9-0.9-1.4-2-1.4-3c0-1.4,0.9-2.1,2.6-2.1c0.9,0,2,0.3,2.9,0.6l0.1,0l0.2-1.7
		c-0.8-0.4-2.1-0.8-3.2-0.8c-2.6,0-4.6,1.5-4.6,4c0,1,0.4,2.1,1,3.1c-0.8,0-1.7,0-2.6,0c-2,0-2.9-0.4-3.4-0.7
		c0.5-0.9,0.8-2.2,1.1-3.7l-0.2-0.1l-1.8,0.5c-0.5,2-0.8,3.1-1.2,3.6c-0.4,0.3-1.1,0.5-1.8,0.5h-0.7l0,0c0,0,0,0,0,0
		c-1.2,0-1.7-0.4-2.7-2.3c-0.3-0.7-2.1-4.5-2.8-6h-0.2l-1.4,1.5c1,1.7,2.8,5.2,3.2,6l0.1,0.1c-0.8,0.6-2.5,0.9-3.9,0.9
		c-0.6,0-1.8-0.1-2.6-0.2l-0.1,0.1l-0.3,1.8c0.9,0.2,2.3,0.3,2.8,0.3c2.4,0,4-0.5,4.9-1.4c0.7,1,1.4,1.3,2.5,1.3c0,0,0,0,0,0l0,0
		h0.8c1.5,0,2.6-0.4,3.3-1.2c1,0.9,2.5,1.2,3.9,1.2v0c0,0,0,0,0,0c0,0,0,0,0,0h0c6.1,0,8.9-0.2,10.8-0.6l0.6-1.7l-0.1-0.1
		C922.9,224.1,921,224.3,919,224.3z"/>
	<path class="st1" d="M930.5,206.8c-0.6,0.1-1.4,0.1-2.2,0.2c-0.3-0.3-0.5-0.6-0.5-1c0-0.5,0.3-0.9,0.9-0.9c0.3,0,0.7,0.1,1.1,0.2
		l0.3-1.2c-0.6-0.2-1.2-0.3-1.7-0.3c-1.2,0-2,0.7-2,1.9c0,0.5,0.2,1,0.4,1.4c-0.4,0-0.7,0-1.1,0l0.1,1.3c1.9-0.1,3.4-0.2,4.6-0.3
		L930.5,206.8z"/>
	<polygon class="st1" points="927.5,210.3 927.5,226.3 927.6,226.4 929.3,226 929.3,210 929.2,209.9 	"/>
</g>
<g>
	<path class="st1" d="M671.5,419.3c-0.8,0-1.5,0.7-1.5,1.5c0,0.8,0.7,1.5,1.5,1.5c0.8,0,1.5-0.7,1.5-1.5
		C673,420,672.3,419.3,671.5,419.3z"/>
	<polygon class="st1" points="683.9,411.1 682,409.8 680.8,411.6 682.7,412.9 	"/>
	<path class="st1" d="M691.3,414l-1.7,1.2c0.9,2,1.4,3.2,1.2,4.5c-1,0.4-3.2,0.7-5.7,0.7h-1.7c-4.4,0-6.9-0.6-6.9-3.5
		c0-0.6,0.1-1.3,0.2-2.2l-0.2-0.1l-1.4,0.5c-0.2,0.6-0.4,1.7-0.4,2.7c0,3.3,2.9,4.4,8.1,4.4h1.6c2.9,0,5.2-0.3,6.5-1.1
		c1.1-0.6,1.5-1.8,1.5-3c0-0.9-0.4-2.5-1.1-4.2H691.3z"/>
	<polygon class="st1" points="687.3,411.1 685.4,409.8 684.1,411.6 686.1,412.9 	"/>
	<polygon class="st1" points="697.5,405.7 697.3,405.6 695.6,406.1 695.6,422.1 695.7,422.2 697.4,421.8 	"/>
	<path class="st1" d="M714.2,414.3c-2.2,0-3.4,2.9-4.3,4.3c-0.6,1.1-1.1,1.5-2.2,1.5c-1.6,0-1.9-0.3-2.5-1.9c-0.2-0.6-0.8-2-1.4-3.7
		h-0.2l-1.4,1.5c0.7,1.4,1.5,2.9,1.8,4c-0.5,1.9-2.2,3.7-6.8,4.6l-0.1,0.2l1,1.4c3.8-0.7,6.4-2.7,7.2-4.9c0.4,0.4,1.1,0.6,2,0.6
		c1.7,0,2.8-0.4,3.6-1.5c1.7,1.2,3.6,1.8,4.8,1.8c1.6,0,2.4-1,2.4-2.6C718.2,417,716.5,414.3,714.2,414.3z M716.4,420.2
		c-0.3,0.2-0.7,0.3-1,0.3c-0.7,0-2.1-0.5-3.5-1.4c1-1.8,1.5-2.9,2.4-2.9C715.5,416.2,716.6,419,716.4,420.2z"/>
	<polygon class="st1" points="737.7,412.9 738.9,411.1 737,409.8 735.7,411.6 	"/>
	<polygon class="st1" points="735.5,411.1 733.5,409.8 732.3,411.6 734.3,412.9 	"/>
	<path class="st1" d="M742.8,414l-1.7,1.2c0.9,2,1.4,3.2,1.2,4.5c-1,0.4-3.2,0.7-5.7,0.7H735c-4.4,0-6.9-0.6-6.9-3.5
		c0-0.6,0.1-1.3,0.2-2.2l-0.2-0.1l-1.4,0.5c-0.2,0.6-0.4,1.7-0.4,2.7c0,3.3,2.9,4.4,8.1,4.4h1.6c2.9,0,5.2-0.3,6.5-1.1
		c1.1-0.6,1.5-1.8,1.5-3c0-0.9-0.4-2.5-1.1-4.2H742.8z"/>
	<polygon class="st1" points="736.9,408.4 735,407 733.8,408.8 735.7,410.2 	"/>
	<path class="st1" d="M762.4,414l-1.5,1.2c0.8,1.8,1.5,3.5,1,4.7c-0.5,0.2-1.3,0.3-2.5,0.3h-0.7l0,0c0,0,0,0,0,0
		c-2,0-2.8-0.4-2.8-2.3v-12.1l-0.1-0.1l-1.7,0.4v10.7c-0.2,0.4-0.5,0.7-0.7,1c-1-2-3.4-5.4-6.4-8.1l-0.2,0.1l-0.7,1.9
		c2.8,2.6,4.8,4.7,6.1,7.1c-1.6,1.1-3.6,1.5-5.9,1.6l-0.1,0.1l0.8,1.7c2.7,0,5.3-0.8,7.2-3c0.4,2.3,2,2.9,4.1,2.9c0,0,0,0,0,0l0,0
		h0.7c2.2,0,3.1-0.2,3.8-0.8c0.7-0.7,1.2-1.9,1.2-2.9c0-1-0.5-2.6-1.2-4.3H762.4z"/>
	<polygon class="st1" points="763.3,406.7 761.3,405.4 760.1,407.2 762.1,408.6 	"/>
	<polygon class="st1" points="762.1,409.9 764,411.3 765.3,409.4 763.3,408.1 	"/>
	<polygon class="st1" points="761.8,409.4 759.9,408.1 758.7,409.9 760.6,411.3 	"/>
	<polygon class="st1" points="778.7,430.2 780.7,431.5 781.9,429.7 780,428.4 	"/>
	<path class="st1" d="M785.5,419.7c1.6-0.9,2.2-2.3,2.2-4v-10l-0.2,0l-1.7,0.4v9.8c0,0.9-0.1,1.5-0.2,1.9c-0.9,0.6-2,0.8-3,1l0,0
		l-0.6,1.7c3.5,0.9,3.9,1.5,3.9,2c-0.4,1.2-3.2,2.1-6.9,2.1c-3.9,0-5.1-1.5-5.1-3.8c0-0.6,0.1-1.3,0.3-2.2l-0.2-0.1l-1.5,0.5
		c-0.2,0.6-0.4,1.6-0.4,2.7c0,2.7,2.2,4.7,6.5,4.7c5.2,0,8.8-1.6,9.2-4.5C787.9,421.1,787.4,420.5,785.5,419.7z"/>
	<polygon class="st1" points="775.3,430.2 777.3,431.5 778.4,429.7 776.5,428.4 	"/>
	<polygon class="st1" points="811,408.6 809,407.2 807.8,409.1 809.8,410.4 	"/>
	<polygon class="st1" points="822.5,408.5 820.5,407.2 819.3,409 821.3,410.4 	"/>
	<path class="st1" d="M819.8,420.1c-0.9-0.9-1.4-2-1.4-3c0-1.4,0.9-2.1,2.6-2.1c0.9,0,2,0.3,2.9,0.6l0.1,0l0.2-1.7
		c-0.8-0.4-2.1-0.8-3.2-0.8c-2.6,0-4.6,1.5-4.6,4c0,1,0.4,2.1,1,3.1c-0.8,0-1.7,0-2.7,0H813c-0.6,0-1.2,0-1.7-0.1
		c0.8-0.8,1.3-1.8,1.3-3.2c0-1.7-1.5-3.7-3.2-3.7c-2,0-3.8,2.3-3.8,4.3c0,1.1,0.6,1.9,1.4,2.6c-0.2,0-0.4,0-0.6,0h-2.3l0,0
		c0,0,0,0,0,0c-1.6,0-1.9-0.3-2.5-1.9c-0.2-0.6-0.8-2-1.4-3.7h-0.2l-1.4,1.5c0.7,1.4,1.5,2.9,1.8,4c-0.5,1.9-2.2,3.7-6.8,4.6
		l-0.1,0.2l1,1.4c3.8-0.7,6.4-2.7,7.2-4.9c0.4,0.4,1.1,0.6,2,0.6h1.2c1.6,0,3.1-0.2,4.3-0.7c1.2,0.4,2.4,0.7,3.6,0.7h1.5
		c0,0,0,0,0,0l0,0c6.1,0,8.9-0.2,10.8-0.6l0.6-1.7l-0.1-0.1C823.7,419.9,821.9,420,819.8,420.1z M809.3,419.5
		c-1.3-0.6-2.1-1.4-2.1-2.3c0-1,1-2.2,2-2.2c0.9,0,1.9,1,1.9,2.1C811.1,418.1,810.3,418.9,809.3,419.5z"/>
	<polygon class="st1" points="828.3,406.1 828.3,422.1 828.5,422.2 830.2,421.8 830.2,405.7 830.1,405.6 	"/>
	<path class="st1" d="M851.3,419.5c1.4-0.9,1.9-1.7,1.9-2.6c0-1-0.5-2.6-1.2-4.3h-0.2l-1.5,1.2c0.6,1.4,1.2,2.6,1.2,3.7
		c-0.5,0.4-1.3,0.9-2.3,1.3l0,0l-0.6,1.7c3.5,0.9,3.9,1.5,3.9,2c-0.4,1.2-3.2,2.1-6.9,2.1c-3.9,0-5.1-1.5-5.1-3.8
		c0-0.6,0.1-1.3,0.3-2.2l-0.2-0.1l-1.5,0.5c-0.2,0.6-0.4,1.6-0.4,2.7c0,2.7,2.2,4.7,6.5,4.7c5.2,0,8.8-1.6,9.2-4.5
		C854.3,421,853.7,420.3,851.3,419.5z"/>
	<polygon class="st1" points="845.1,430.2 847.1,431.5 848.3,429.7 846.4,428.4 	"/>
	<polygon class="st1" points="841.7,430.2 843.7,431.5 844.8,429.7 842.9,428.4 	"/>
	<polygon class="st1" points="851,428.8 853,430.2 854.2,428.4 852.3,427 	"/>
	<path class="st1" d="M860.2,414.6l-1.4,1.5c0.9,1.6,1.7,3.4,1.7,4.4c0,1.2-1.6,3-5.2,4l0,0.2l0.9,1.4c2.5-0.7,4.2-2,5-3.2
		c0.5-0.8,0.9-1.8,0.9-2.8c0-1.4-0.7-3.5-1.8-5.4H860.2z"/>
	<path class="st1" d="M871.6,411.8c-0.8,0-1.5,0.7-1.5,1.5c0,0.8,0.7,1.5,1.5,1.5s1.5-0.7,1.5-1.5
		C873.1,412.5,872.4,411.8,871.6,411.8z"/>
	<path class="st1" d="M871.6,419.3c-0.8,0-1.5,0.7-1.5,1.5c0,0.8,0.7,1.5,1.5,1.5s1.5-0.7,1.5-1.5
		C873.1,420,872.4,419.3,871.6,419.3z"/>
	<path class="st1" d="M891.7,406.1v13.1c0,1.9-0.3,3.1-0.6,3.7c-1,1.2-2.4,1.7-4.4,1.7c-3.3,0-4.2-1.6-4.2-4c0-0.6,0.1-1.4,0.2-2.2
		l-0.2-0.1l-1.5,0.5c-0.2,0.6-0.4,1.7-0.4,2.7c0,2.9,1.9,4.9,5.7,4.9c4.7,0,7.2-2.1,7.2-7.5l0-13.2l-0.2-0.1L891.7,406.1z"/>
	<polygon class="st1" points="910.6,406.6 908.6,405.3 907.4,407.1 909.4,408.5 	"/>
	<polygon class="st1" points="914,406.6 912,405.3 910.8,407.1 912.7,408.5 	"/>
	<path class="st1" d="M910.8,411.1c-1.9,0-3.5,2.4-3.5,4.6c0,1.7,1,2.8,3.1,2.8c1,0,1.8-0.1,2.5-0.3c0,0.6-0.1,1.2-0.2,1.5
		c-0.7,0.3-2.2,0.5-6.8,0.5l0,0c0,0,0,0,0,0h-1.9V420c0-3.1-1.5-5.7-3.6-5.7c-1.9,0-3.5,2.4-3.5,4.7c0,1.9,1.4,3.1,4.4,3.1h0.7
		c-1,1.6-3.2,2.5-6.1,2.7l-0.1,0.2l1,1.4c4-0.1,6.2-2,7-4.2h1.8c0,0,0,0,0,0l0,0c4.5,0,6.3-0.1,7.6-0.8c1.1-0.8,1.5-2.1,1.5-4.4
		C914.4,413.9,913,411.1,910.8,411.1z M902.4,420.2h-1c-2.2,0-3.1-0.5-3.1-1.4c0-1.6,1-2.6,1.9-2.6c1.1,0,2.2,1.8,2.2,3.8V420.2z
		 M910.7,416.6c-1.2,0-1.9-0.4-1.9-1.2c0-1.3,1-2.5,1.9-2.5c1.1,0,2.1,1.7,2.2,3.5C912.2,416.6,911.6,416.6,910.7,416.6z"/>
	<path class="st1" d="M918.2,402.8c-0.3-0.3-0.5-0.6-0.5-1c0-0.5,0.3-0.9,0.9-0.9c0.3,0,0.7,0.1,1.1,0.2l0.3-1.2
		c-0.6-0.2-1.2-0.3-1.7-0.3c-1.2,0-2,0.7-2,1.9c0,0.5,0.2,1,0.4,1.4c-0.4,0-0.7,0-1.1,0l0.1,1.3c1.9-0.1,3.4-0.2,4.6-0.3l-0.1-1.2
		C919.8,402.6,919,402.7,918.2,402.8z"/>
	<polygon class="st1" points="917.4,406.1 917.4,422.1 917.6,422.2 919.3,421.8 919.3,405.7 919.2,405.6 	"/>
	<path class="st1" d="M926,414.3c-1.9,0-3.5,2.4-3.5,4.6c0,1.7,1,2.8,3.1,2.8c0.9,0,1.7-0.1,2.3-0.3c-0.7,2-3.1,3.1-6.5,3.3
		l-0.1,0.2l1,1.4c5.1-0.1,7.3-3.1,7.3-6.2C929.7,417.1,928.3,414.3,926,414.3z M926,419.8c-1.2,0-1.9-0.4-1.9-1.2
		c0-1.3,1-2.5,1.9-2.5c1.1,0,2.1,1.7,2.2,3.5C927.5,419.8,926.8,419.8,926,419.8z"/>
</g>
<linearGradient id="SVGID_2_" gradientUnits="userSpaceOnUse" x1="505.4018" y1="325.1461" x2="1023.9418" y2="325.1461">
	<stop  offset="0.1199" style="stop-color:#FFFFFF"/>
	<stop  offset="0.9969" style="stop-color:#FEF1D4"/>
</linearGradient>
<rect x="505.4" y="286.6" class="st2" width="518.5" height="77"/>
<g>
	<path class="st3" d="M812.1,328.6c-2.1,2.6-3.6,5.2-3.6,7.9c0,2.2,1.1,3.5,2.9,3.5c1.8,0,2.8-1.5,2.8-2.8c0-2.2-1.8-1.9-1.8-3.4
		c0-1,0.9-2.4,1.9-3.9L812.1,328.6z"/>
	<polygon class="st3" points="840.2,345.9 844.1,348.6 846.4,345 842.6,342.4 	"/>
	<path class="st3" d="M852.2,322.4l-1,5l0.2,0.3c3.5,2.2,7.7,5,7.7,6.7c-1,0.5-3.8,0.9-6.7,0.9H850l0,0c0,0,0,0,0,0
		c-1.7,0-3.1-0.3-4.1-0.7c0.7-1.6,1.2-3.5,1.7-5.7l-0.4-0.3l-4.6,1.1c-0.4,2.4-0.9,4.1-1.2,5c-0.5,0.3-1.5,0.5-2.8,0.5h-0.6l0,0
		c0,0,0,0,0,0c-2.4,0-3.2-0.4-4.2-3.2l-1.5-4.4h-0.4l-3.2,3.7c0.9,1.9,1.9,4,2.7,5.7c-1.2,2.2-4.5,4.6-10.1,5.6l-0.3,0.4l2.4,3.3
		c5.3-0.9,9.5-3.5,10.8-7.1c0.8,0.3,1.7,0.5,2.9,0.5c0,0,0,0,0,0l0,0h0.7c2.6,0,4.4-0.6,5.8-1.7c1.4,1.1,3.8,1.7,5.6,1.7h3.6
		c7.5,0,10.1-2.6,10.1-6.2c0-2-1-4.2-6.9-8.1l7.6-3.8l1.5-5.4l-0.3-0.2L852.2,322.4z"/>
	<path class="st3" d="M873.7,310.4c-0.5-0.4-0.7-0.9-0.7-1.5c0-0.7,0.4-1.2,1.2-1.2c0.4,0,0.9,0.1,1.5,0.3l0.6-2.3
		c-0.9-0.4-1.9-0.6-2.7-0.6c-2.1,0-3.2,1.3-3.2,3.1c0,0.8,0.3,1.6,0.8,2.3c-0.6,0-1.2,0-1.7,0l0.3,2.6c2.8-0.1,5.3-0.3,7-0.5
		l-0.2-2.5C875.8,310.2,874.8,310.3,873.7,310.4z"/>
	<polygon class="st3" points="871,315.9 871,339.8 871.3,340 875.4,339.2 875.5,315 875.2,314.8 	"/>
	<path class="st3" d="M906,316.7c1,0,1.8-0.3,2.4-0.9c0.4,0.5,1.2,0.9,2.1,0.9c2.3,0,3.5-1.6,3.5-3.7c0-1.1-0.3-2-0.5-2.8l-2.5,0.6
		c0.2,0.6,0.4,1.3,0.4,2.1c0,0.8-0.2,1.3-0.9,1.3c-0.6,0-1-0.3-1-1.2c0-0.3,0-0.8,0-1.5l-2.3,0.2c0,2.1-0.3,2.6-1,2.6
		c-0.6,0-0.9-0.4-0.9-1.3c0-0.4,0-1,0.1-1.5l-2.4,0.1c-0.2,0.6-0.3,1.7-0.3,2.1C902.7,315.1,903.5,316.7,906,316.7z"/>
	<rect x="906.7" y="304.7" class="st3" width="3.2" height="4.6"/>
	<path class="st3" d="M916.7,315.9v16.2c0,1.3-0.1,2.1-0.3,2.7c-0.7,0.3-1.7,0.5-2.7,0.5c-2.5,0-3.3-0.5-3.3-3.2V319l-0.3-0.2
		l-4.2,1.1v12.3c0,1.3-0.1,2.1-0.3,2.7c-0.7,0.3-1.7,0.5-2.7,0.5c-2.6,0-3.2-0.6-3.2-2.5V322l-0.3-0.1l-4.2,1.6v1.7
		c-5.7,1.9-8.6,5.2-8.6,8.2c0,2.8,2.4,4.6,6.4,4.6c1.2,0,2.2-0.2,3.3-0.6c1.1,1.6,3,2.3,5.4,2.4h0.2c0,0,0.1,0,0.1,0h0.2
		c3.2,0,4.9-0.6,6.1-2.1c1.1,1.5,2.8,2,4.1,2.1h0.3c0,0,0.1,0,0.1,0h0.3c5-0.1,7.9-1.8,7.9-7.8V315l-0.3-0.2L916.7,315.9z
		 M895.3,332.8v0.7c-0.5,0.1-1.1,0.1-1.8,0.1c-1.3,0-2.8-0.5-3.2-1.5c0.4-1.1,2.5-2.2,5-2.8V332.8z"/>
	<polygon class="st3" points="929.7,314.8 925.5,315.9 925.5,339.8 925.8,340 929.9,339.2 930,315 	"/>
</g>
<path class="st4" d="M1024,43.8h-11.1v-6.6c0-1.7-1.1-3-2.6-3.5c1.4-1.1,2.3-2.9,2.3-4.8c0-3.4-2.8-6.2-6.2-6.2
	c-1,0-1.9,0.2-2.8,0.7c0.4-1.1,0.5-2.2,0.5-3.4c0-6.2-5-11.2-11.2-11.2c-6.2,0-11.2,5-11.2,11.2c0,1.2,0.2,2.4,0.5,3.4
	c-0.8-0.4-1.8-0.7-2.8-0.7c-3.4,0-6.2,2.8-6.2,6.2c0,1.9,0.9,3.6,2.3,4.8c-1.5,0.4-2.6,1.8-2.6,3.5v6.6h-10h-10v-6.6
	c0-1.7-1.1-3-2.6-3.5c1.4-1.1,2.3-2.9,2.3-4.8c0-3.4-2.8-6.2-6.2-6.2c-1,0-1.9,0.2-2.8,0.7c0.4-1.1,0.5-2.2,0.5-3.4
	c0-6.2-5-11.2-11.2-11.2c-6.2,0-11.2,5-11.2,11.2c0,1.2,0.2,2.4,0.5,3.4c-0.8-0.4-1.8-0.7-2.8-0.7c-3.4,0-6.2,2.8-6.2,6.2
	c0,1.9,0.9,3.6,2.3,4.8c-1.5,0.4-2.6,1.8-2.6,3.5v6.6h-10h-10v-6.6c0-1.7-1.1-3-2.6-3.5c1.4-1.1,2.3-2.9,2.3-4.8
	c0-3.4-2.8-6.2-6.2-6.2c-1,0-1.9,0.2-2.8,0.7c0.4-1.1,0.5-2.2,0.5-3.4c0-6.2-5-11.2-11.2-11.2c-6.2,0-11.2,5-11.2,11.2
	c0,1.2,0.2,2.4,0.5,3.4c-0.8-0.4-1.8-0.7-2.8-0.7c-3.4,0-6.2,2.8-6.2,6.2c0,1.9,0.9,3.6,2.3,4.8c-1.5,0.4-2.6,1.8-2.6,3.5v6.6h-10
	h-10v-6.6c0-1.7-1.1-3-2.6-3.5c1.4-1.1,2.3-2.9,2.3-4.8c0-3.4-2.8-6.2-6.2-6.2c-1,0-1.9,0.2-2.8,0.7c0.4-1.1,0.5-2.2,0.5-3.4
	c0-6.2-5-11.2-11.2-11.2c-6.2,0-11.2,5-11.2,11.2c0,1.2,0.2,2.4,0.5,3.4c-0.8-0.4-1.8-0.7-2.8-0.7c-3.4,0-6.2,2.8-6.2,6.2
	c0,1.9,0.9,3.6,2.3,4.8c-1.5,0.4-2.6,1.8-2.6,3.5v6.6h-10h-10v-6.6c0-1.7-1.1-3-2.6-3.5c1.4-1.1,2.3-2.9,2.3-4.8
	c0-3.4-2.8-6.2-6.2-6.2c-1,0-1.9,0.2-2.8,0.7c0.4-1.1,0.5-2.2,0.5-3.4c0-6.2-5-11.2-11.2-11.2c-6.2,0-11.2,5-11.2,11.2
	c0,1.2,0.2,2.4,0.5,3.4c-0.8-0.4-1.8-0.7-2.8-0.7c-3.4,0-6.2,2.8-6.2,6.2c0,1.9,0.9,3.6,2.3,4.8c-1.5,0.4-2.6,1.8-2.6,3.5v6.6h-10
	h-10v-6.6c0-1.7-1.1-3-2.6-3.5c1.4-1.1,2.3-2.9,2.3-4.8c0-3.4-2.8-6.2-6.2-6.2c-1,0-1.9,0.2-2.8,0.7c0.4-1.1,0.5-2.2,0.5-3.4
	c0-6.2-5-11.2-11.2-11.2c-6.2,0-11.2,5-11.2,11.2c0,1.2,0.2,2.4,0.5,3.4c-0.8-0.4-1.8-0.7-2.8-0.7c-3.4,0-6.2,2.8-6.2,6.2
	c0,1.9,0.9,3.6,2.3,4.8c-1.5,0.4-2.6,1.8-2.6,3.5v6.6h-10h-10v-6.6c0-1.7-1.1-3-2.6-3.5c1.4-1.1,2.3-2.9,2.3-4.8
	c0-3.4-2.8-6.2-6.2-6.2c-1,0-1.9,0.2-2.8,0.7c0.4-1.1,0.5-2.2,0.5-3.4c0-6.2-5-11.2-11.2-11.2c-6.2,0-11.2,5-11.2,11.2
	c0,1.2,0.2,2.4,0.5,3.4c-0.8-0.4-1.8-0.7-2.8-0.7c-3.4,0-6.2,2.8-6.2,6.2c0,1.9,0.9,3.6,2.3,4.8c-1.5,0.4-2.6,1.8-2.6,3.5v6.6h-10
	h-10v-6.6c0-1.7-1.1-3-2.6-3.5c1.4-1.1,2.3-2.9,2.3-4.8c0-3.4-2.8-6.2-6.2-6.2c-1,0-1.9,0.2-2.8,0.7c0.4-1.1,0.5-2.2,0.5-3.4
	c0-6.2-5-11.2-11.2-11.2c-6.2,0-11.2,5-11.2,11.2c0,1.2,0.2,2.4,0.5,3.4c-0.8-0.4-1.8-0.7-2.8-0.7c-3.4,0-6.2,2.8-6.2,6.2
	c0,1.9,0.9,3.6,2.3,4.8c-1.5,0.4-2.6,1.8-2.6,3.5v6.6h-10h-10v-6.6c0-1.7-1.1-3-2.6-3.5c1.4-1.1,2.3-2.9,2.3-4.8
	c0-3.4-2.8-6.2-6.2-6.2c-1,0-1.9,0.2-2.8,0.7c0.4-1.1,0.5-2.2,0.5-3.4c0-6.2-5-11.2-11.2-11.2c-6.2,0-11.2,5-11.2,11.2
	c0,1.2,0.2,2.4,0.5,3.4c-0.8-0.4-1.8-0.7-2.8-0.7c-3.4,0-6.2,2.8-6.2,6.2c0,1.9,0.9,3.6,2.3,4.8c-1.5,0.4-2.6,1.8-2.6,3.5v6.6h-10
	h-10v-6.6c0-1.7-1.1-3-2.6-3.5c1.4-1.1,2.3-2.9,2.3-4.8c0-3.4-2.8-6.2-6.2-6.2c-1,0-1.9,0.2-2.8,0.7c0.4-1.1,0.5-2.2,0.5-3.4
	c0-6.2-5-11.2-11.2-11.2c-6.2,0-11.2,5-11.2,11.2c0,1.2,0.2,2.4,0.5,3.4c-0.8-0.4-1.8-0.7-2.8-0.7c-3.4,0-6.2,2.8-6.2,6.2
	c0,1.9,0.9,3.6,2.3,4.8c-1.5,0.4-2.6,1.8-2.6,3.5v6.6h-10h-10v-6.6c0-1.7-1.1-3-2.6-3.5c1.4-1.1,2.3-2.9,2.3-4.8
	c0-3.4-2.8-6.2-6.2-6.2c-1,0-1.9,0.2-2.8,0.7c0.4-1.1,0.5-2.2,0.5-3.4c0-6.2-5-11.2-11.2-11.2c-6.2,0-11.2,5-11.2,11.2
	c0,1.2,0.2,2.4,0.5,3.4c-0.8-0.4-1.8-0.7-2.8-0.7c-3.4,0-6.2,2.8-6.2,6.2c0,1.9,0.9,3.6,2.3,4.8c-1.5,0.4-2.6,1.8-2.6,3.5v6.6h-10
	h-10v-6.6c0-1.7-1.1-3-2.6-3.5c1.4-1.1,2.3-2.9,2.3-4.8c0-3.4-2.8-6.2-6.2-6.2c-1,0-1.9,0.2-2.8,0.7c0.4-1.1,0.5-2.2,0.5-3.4
	c0-6.2-5-11.2-11.2-11.2c-6.2,0-11.2,5-11.2,11.2c0,1.2,0.2,2.4,0.5,3.4c-0.8-0.4-1.8-0.7-2.8-0.7c-3.4,0-6.2,2.8-6.2,6.2
	c0,1.9,0.9,3.6,2.3,4.8c-1.5,0.4-2.6,1.8-2.6,3.5v6.6h-10h-10v-6.6c0-1.7-1.1-3-2.6-3.5c1.4-1.1,2.3-2.9,2.3-4.8
	c0-3.4-2.8-6.2-6.2-6.2c-1,0-1.9,0.2-2.8,0.7c0.4-1.1,0.5-2.2,0.5-3.4c0-6.2-5-11.2-11.2-11.2c-6.2,0-11.2,5-11.2,11.2
	c0,1.2,0.2,2.4,0.5,3.4c-0.8-0.4-1.8-0.7-2.8-0.7c-3.4,0-6.2,2.8-6.2,6.2c0,1.9,0.9,3.6,2.3,4.8c-1.5,0.4-2.6,1.8-2.6,3.5v6.6h-10
	h-10v-6.6c0-1.7-1.1-3-2.6-3.5c1.4-1.1,2.3-2.9,2.3-4.8c0-3.4-2.8-6.2-6.2-6.2c-1,0-1.9,0.2-2.8,0.7c0.4-1.1,0.5-2.2,0.5-3.4
	c0-6.2-5-11.2-11.2-11.2c-6.2,0-11.2,5-11.2,11.2c0,1.2,0.2,2.4,0.5,3.4c-0.8-0.4-1.8-0.7-2.8-0.7c-3.4,0-6.2,2.8-6.2,6.2
	c0,1.9,0.9,3.6,2.3,4.8c-1.5,0.4-2.6,1.8-2.6,3.5v6.6h-10h-10v-6.6c0-1.7-1.1-3-2.6-3.5c1.4-1.1,2.3-2.9,2.3-4.8
	c0-3.4-2.8-6.2-6.2-6.2c-1,0-1.9,0.2-2.8,0.7c0.4-1.1,0.5-2.2,0.5-3.4c0-6.2-5-11.2-11.2-11.2c-6.2,0-11.2,5-11.2,11.2
	c0,1.2,0.2,2.4,0.5,3.4c-0.8-0.4-1.8-0.7-2.8-0.7c-3.4,0-6.2,2.8-6.2,6.2c0,1.9,0.9,3.6,2.3,4.8c-1.5,0.4-2.6,1.8-2.6,3.5v6.6h-10
	h-10v-6.6c0-1.7-1.1-3-2.6-3.5c1.4-1.1,2.3-2.9,2.3-4.8c0-3.4-2.8-6.2-6.2-6.2c-1,0-1.9,0.2-2.8,0.7c0.4-1.1,0.5-2.2,0.5-3.4
	c0-6.2-5-11.2-11.2-11.2c-6.2,0-11.2,5-11.2,11.2c0,1.2,0.2,2.4,0.5,3.4c-0.8-0.4-1.8-0.7-2.8-0.7c-3.4,0-6.2,2.8-6.2,6.2
	c0,1.9,0.9,3.6,2.3,4.8c-1.5,0.4-2.6,1.8-2.6,3.5v6.6h-10h-10v-6.6c0-1.7-1.1-3-2.6-3.5c1.4-1.1,2.3-2.9,2.3-4.8
	c0-3.4-2.8-6.2-6.2-6.2c-1,0-1.9,0.2-2.8,0.7c0.4-1.1,0.5-2.2,0.5-3.4c0-6.2-5-11.2-11.2-11.2c-6.2,0-11.2,5-11.2,11.2
	c0,1.2,0.2,2.4,0.5,3.4c-0.8-0.4-1.8-0.7-2.8-0.7c-3.4,0-6.2,2.8-6.2,6.2c0,1.9,0.9,3.6,2.3,4.8c-1.5,0.4-2.6,1.8-2.6,3.5v6.6H0V0.1
	h1024V43.8z"/>
<g id="Layer_x0020_1_6_">
	<path class="st5" d="M34.9,720.6l43.9-1.7c0.3,0,0.6,0,1,0c0.7,0.1,1.3,0.4,1.8,0.9c0.5,0.5,0.9,1,0.9,1.7c0,0.2,0,0.5,0,0.8
		l-4.6,20.6c-0.2,0.9-0.6,1.7-1.3,2.2c-0.6,0.5-1.4,0.9-2.4,0.9L39,744.7c-1,0-1.7-0.3-2.4-0.9l0,0c-0.6-0.6-1.1-1.4-1.3-2.2
		l-4.1-17.7c0-0.1,0-0.1,0-0.2c-0.1-0.8,0.3-1.5,0.9-2.1c0.6-0.5,1.4-0.8,2.3-1C34.6,720.6,34.8,720.6,34.9,720.6z M76.9,721.6
		l-42,1.5c-0.1,0-0.2,0-0.3,0c-0.6,0.1-1.1,0.3-1.5,0.7c-0.3,0.3-0.6,0.7-0.5,1.1c0,0,0,0.1,0,0.1l3.8,16.5c0.1,0.6,0.4,1.2,0.9,1.6
		c0.4,0.3,0.8,0.5,1.4,0.5l34,1.2c0.6,0,1-0.2,1.4-0.5c0.4-0.4,0.7-0.9,0.9-1.6l4.3-19.3c0-0.1,0-0.3,0-0.4c0-0.3-0.2-0.7-0.5-0.9
		c-0.3-0.3-0.7-0.5-1.1-0.5C77.3,721.6,77.1,721.6,76.9,721.6z"/>
	<path class="st5" d="M41.9,725.3l12.9-1.4c0.1,0,0.3,0,0.4,0c0.3,0.1,0.6,0.2,0.8,0.4c0.2,0.2,0.4,0.5,0.4,0.8c0,0.1,0,0.2,0,0.3
		l-2.1,9.6c-0.1,0.4-0.3,0.8-0.6,1c-0.3,0.2-0.6,0.4-1.1,0.4h-8.9c-0.4,0-0.8-0.2-1.1-0.4h0c-0.3-0.3-0.5-0.6-0.6-1l-1.9-8.2
		c0,0,0-0.1,0-0.1c-0.1-0.4,0.1-0.7,0.4-1c0.3-0.2,0.7-0.4,1-0.5C41.8,725.3,41.9,725.3,41.9,725.3z M53.9,725.2l-12,1.3
		c0,0-0.1,0-0.1,0c-0.3,0-0.5,0.2-0.7,0.3c-0.2,0.1-0.3,0.3-0.2,0.5c0,0,0,0,0,0l1.8,7.6c0.1,0.3,0.2,0.5,0.4,0.7
		c0.2,0.1,0.4,0.2,0.6,0.2h8.3c0.3,0,0.5-0.1,0.6-0.2c0.2-0.2,0.3-0.4,0.4-0.7l2-8.9c0-0.1,0-0.1,0-0.2c0-0.2-0.1-0.3-0.2-0.4
		c-0.1-0.1-0.3-0.2-0.5-0.2C54.1,725.2,54,725.2,53.9,725.2z"/>
	<g id="_1849662416_6_">
		<path class="st6" d="M60.4,737.4l0.4-0.7l-0.7-0.4l0.4-0.7l-1.5-0.8l-0.9,1.5l0,0c0.3,0.1,0.5,0.3,0.7,0.4l-0.4,0.7l0.7,0.4
			l-0.8,1.5l0.7,0.4c-0.2,0.5-0.6,1.1-0.9,1.5l0,0c0.2,0.1,0.4,0.2,0.5,0.3c0.3,0.1,0.2,0.1,0,0.5c-0.2,0.4-0.4,0.8-0.7,1.1l0.7,0.4
			c0,0.2-0.7,1.2-0.8,1.5l5.9,3.4l0.9-1.5l0.8,0.4l1.3-2.2l0.7,0.4l3-5.2c-0.1-0.1-0.7-0.4-0.7-0.5c0-0.2,0.4-0.6,0.4-0.7
			c-0.1-0.1-0.5-0.4-0.7-0.4l-1.3,2.2l-0.7-0.4l1.7-3l-1.5-0.9l-1.3,2.2l-0.7-0.4l1.7-2.9c-0.1-0.1-1.3-0.8-1.5-0.9l-1.7,3l-0.7-0.4
			c0-0.1,0.1-0.1,0.1-0.2c1.2-2.1,2.5-4.3,3.7-6.5l-1.5-0.8l-4.7,8.1C60.9,737.8,60.4,737.5,60.4,737.4L60.4,737.4z"/>
		<path class="st7" d="M58.3,741.2c-0.1,0.1-0.1,0.2-0.2,0.3l-0.7,1.1c0.1,0.1,0.2,0.1,0.4,0.2c0.1,0.1,0.2,0.1,0.3,0.2
			c-0.4,0.8-0.8,1.5-1.2,2.2c0.6,0.4,1.2,0.7,1.8,1.1l3.7,2.2c0.6,0.4,1.2,0.7,1.9,1.1c0.1-0.2,0.1-0.3,0.3-0.5
			c0.1-0.2,0.4-0.6,0.5-0.9c0.1-0.1,0.1-0.1,0.2-0.3c0.1-0.2,0.2-0.4,0.3-0.6c0.1,0.2,0.5,0.3,0.7,0.4c0.4-0.7,0.8-1.4,1.3-2.2
			c0.2,0.1,0.4,0.2,0.6,0.3c0.1,0.1,0.1,0.1,0.2,0c0.2-0.3,0.3-0.6,0.5-0.9c0.3-0.6,0.7-1.1,1-1.7l1.4-2.5c-0.2-0.1-0.6-0.3-0.7-0.4
			l-3,5.2l-0.7-0.4l-1.3,2.2l-0.8-0.4l-0.9,1.5L58,745c0.1-0.3,0.8-1.3,0.8-1.5l-0.7-0.4c0.2-0.4,0.4-0.8,0.7-1.1
			c0.2-0.4,0.2-0.3,0-0.5C58.6,741.4,58.4,741.3,58.3,741.2z"/>
		<path class="st7" d="M60.5,735.5l-0.4,0.7l0.7,0.4l-0.4,0.7l0.7,0.4l4.7-8.1l-0.7-0.4c0,0,0,0,0,0l0,0c0,0,0,0,0,0l-3.8,6.6
			C61,735.8,60.8,735.7,60.5,735.5z"/>
		<path class="st7" d="M67.3,730.6l-3.9,6.6l0.7,0.4l1.7-3c0.2,0,1.4,0.8,1.5,0.9c0.2,0.2,1.6,0.9,1.9,1.1c0,0,0.1,0-0.1-0.1
			l-1.5-0.8c-0.4-0.2-0.3-0.1,0.1-0.9l-1.1-0.6c-0.1-0.1-0.2-0.1-0.3-0.2l1.7-2.9c-0.2-0.1-0.3-0.2-0.6-0.4
			C67.4,730.6,67.4,730.7,67.3,730.6z"/>
		<path class="st7" d="M69.2,737.6l0.4-0.7c-0.1-0.1-0.2-0.2-0.4-0.2c-0.3-0.2-1.7-0.9-1.9-1.1l-1.7,2.9l0.7,0.4l1.3-2.2L69.2,737.6
			z"/>
		<path class="st7" d="M58.2,736.2c-0.1,0.1-0.1,0.1-0.2,0.3c-0.1,0.1-0.1,0.3-0.2,0.4l0.7,0.4c-0.1,0.2-0.7,1.3-0.8,1.5l0.7,0.4
			l-0.6,1.1c-0.1,0.2-0.1,0.2-0.2,0.4l0.7,0.4c0.3-0.4,0.7-1,0.9-1.5l-0.7-0.4l0.8-1.5l-0.7-0.4l0.4-0.7
			C58.7,736.5,58.4,736.3,58.2,736.2z"/>
		<path class="st7" d="M58.2,736.2l0.9-1.5l1.5,0.8l0.2-0.4c0.1-0.1,0.1-0.2,0.2-0.4l-2-1.1c-0.3-0.2-0.2-0.2-0.5,0.2l-0.9,1.6
			c-0.1,0.2-0.2,0.2,0,0.3C57.6,735.9,58,736.2,58.2,736.2z"/>
		<path class="st7" d="M70.2,739.2c0.1,0,0,0,0.1-0.1c0,0,0.1-0.1,0.1-0.1c0-0.2,0.2-0.4,0.3-0.6l-1.5-0.8l-1.7,3l0.7,0.4l1.3-2.2
			C69.7,738.9,70.1,739.1,70.2,739.2z"/>
		<path class="st7" d="M67.3,730.6c0.1-0.2,0.3-0.5,0.4-0.7l-1.5-0.8l-0.4,0.7L67.3,730.6z"/>
		<path class="st7" d="M70.2,739.2c0,0.2-0.4,0.6-0.4,0.7c0,0.1,0.6,0.4,0.7,0.5c0.2,0.1,0.5,0.3,0.7,0.4l-1.4,2.5l1.5-2.5l-0.7-0.4
			c0.1-0.1,0.1-0.2,0.2-0.4c0.1-0.1,0.2-0.3,0.2-0.4c-0.8-0.5-0.8-0.3-0.6-0.6c0,0-0.1,0.1-0.1,0.1
			C70.2,739.2,70.3,739.2,70.2,739.2z"/>
	</g>
	<path class="st5" d="M94.9,737.4h-2.5l2.1-7.2l-4.3,7.2h-2.6l-0.5-7.3l-1.8,7.3h-2.6l2.9-10.9h3.5l0.5,7.7l4.6-7.7h3.5L94.9,737.4z
		 M104.4,737.4h-5.6c-0.8,0-1.3-0.2-1.7-0.6c-0.4-0.4-0.4-1-0.2-1.8c0.3-0.9,0.7-1.6,1.3-2c0.6-0.4,1.5-0.6,2.6-0.6h2.5
		c0.1-0.4,0.1-0.7-0.1-0.8c-0.2-0.2-0.6-0.2-1.3-0.2h-3.6l0.5-2h4.3c1.1,0,1.9,0.3,2.3,0.8c0.4,0.5,0.5,1.3,0.2,2.3L104.4,737.4z
		 M102.4,735.5l0.3-1.2h-2.2c-0.4,0-0.7,0-0.9,0.1c-0.2,0.1-0.3,0.3-0.3,0.5c-0.1,0.2-0.1,0.3,0,0.4c0,0,0.1,0.1,0.2,0.1
		c0.1,0,0.3,0,0.5,0H102.4z M113.2,737.4h-2.4l1.3-4.9c0.1-0.5,0.2-0.8,0-1c-0.1-0.1-0.4-0.2-0.9-0.2h-1.4l-1.6,6.1h-2.4l2.2-8.1h4
		c1.2,0,2,0.2,2.4,0.7c0.4,0.5,0.5,1.2,0.2,2.3L113.2,737.4z M121.9,737.4h-2.4l1.3-4.9c0.1-0.5,0.1-0.8,0-0.9
		c-0.1-0.1-0.2-0.1-0.3-0.2c-0.1,0-0.3-0.1-0.6-0.1l-1.4,0l-1.6,6.1h-2.4l2.9-10.9h2.4l-0.8,2.8h1.6c1.2,0,2,0.2,2.4,0.7
		c0.4,0.5,0.5,1.2,0.2,2.3L121.9,737.4z M131.2,737.4h-5.6c-0.8,0-1.3-0.2-1.7-0.6c-0.4-0.4-0.4-1-0.2-1.8c0.3-0.9,0.7-1.6,1.3-2
		c0.6-0.4,1.5-0.6,2.6-0.6h2.5c0.1-0.4,0.1-0.7-0.1-0.8c-0.2-0.2-0.6-0.2-1.3-0.2h-3.6l0.5-2h4.3c1.1,0,1.9,0.3,2.3,0.8
		c0.4,0.5,0.5,1.3,0.2,2.3L131.2,737.4z M129.2,735.5l0.3-1.2h-2.2c-0.4,0-0.7,0-0.9,0.1c-0.2,0.1-0.3,0.3-0.3,0.5
		c-0.1,0.2,0,0.3,0,0.4c0,0,0.1,0.1,0.2,0.1c0.1,0,0.3,0,0.5,0H129.2z M135,737.4h-2.5l2.9-10.9h2.5L135,737.4z M140.7,737.4h-2.1
		l0.6-2.2h2.1L140.7,737.4z M148.5,737.4h-2.9c-0.4,0-0.7,0-1-0.1c-0.3,0-0.5-0.1-0.8-0.2c-0.4-0.1-0.8-0.4-1-0.8
		c-0.1-0.2-0.2-0.4-0.3-0.6c-0.1-0.2-0.2-0.5-0.2-0.7c0-0.3,0-0.5,0-0.8c0-0.3,0.1-0.6,0.2-0.9c0.2-0.6,0.4-1.2,0.8-1.7
		c0.3-0.5,0.7-1,1.3-1.4c0.4-0.3,0.9-0.6,1.4-0.7c0.5-0.2,1.1-0.2,1.9-0.2h2.9l-0.5,2h-2.3c-0.5,0-0.9,0-1.2,0.1
		c-0.3,0.1-0.6,0.2-0.8,0.4c-0.4,0.3-0.7,0.8-0.9,1.6c-0.1,0.4-0.1,0.8-0.1,1.1c0.1,0.3,0.1,0.6,0.4,0.7l0.4,0.2c0.1,0,0.3,0,0.4,0
		c0.1,0,0.4,0,0.6,0h2.3L148.5,737.4z M158.5,733.3c-0.3,1.3-1,2.3-2,3.1c-1,0.8-2.1,1.1-3.4,1.1c-1.3,0-2.2-0.4-2.8-1.1
		c-0.6-0.8-0.7-1.8-0.3-3.1c0.3-1.3,1-2.3,2-3c1-0.8,2.1-1.1,3.4-1.1c1.3,0,2.2,0.4,2.8,1.1C158.7,731,158.9,732.1,158.5,733.3z
		 M156,733.3c0.2-0.7,0.1-1.2-0.1-1.6c-0.2-0.4-0.6-0.6-1.1-0.6c-0.5,0-1,0.2-1.4,0.6c-0.4,0.4-0.7,0.9-0.9,1.6
		c-0.1,0.4-0.1,0.7-0.1,0.9c0,0.3,0.1,0.5,0.2,0.7c0.2,0.4,0.6,0.6,1.1,0.6c0.6,0,1-0.2,1.4-0.6C155.5,734.6,155.8,734,156,733.3z
		 M169.7,737.4h-2.4l1.3-4.9c0.1-0.5,0.2-0.8,0.1-1c-0.1-0.2-0.4-0.2-0.9-0.2l-0.9,0l-1.6,6.1h-2.4l1.6-6.1h-2l-1.6,6.1h-2.4
		l2.2-8.1h8c1.2,0,2,0.2,2.4,0.7c0.4,0.5,0.5,1.2,0.2,2.3L169.7,737.4z"/>
	<path class="st5" d="M27.9,729.3l21.2-2.2c0.2,0,0.5,0,0.7,0c0.5,0.1,1,0.3,1.4,0.7c0.4,0.3,0.6,0.8,0.7,1.3c0,0.2,0,0.4,0,0.6
		l-3.7,9.6c-0.1,0.7-0.5,1.3-1,1.7c-0.5,0.4-1.1,0.7-1.8,0.7H30.9c-0.7,0-1.3-0.3-1.8-0.7h0c-0.5-0.4-0.8-1.1-1-1.7l-2.9-7.4
		c0-0.1,0-0.1,0-0.2c-0.1-0.6,0.2-1.2,0.7-1.6c0.5-0.4,1.1-0.6,1.7-0.8C27.7,729.4,27.8,729.3,27.9,729.3z M47.6,729.2l-19.8,2.1
		c-0.1,0-0.2,0-0.2,0c-0.4,0.1-0.9,0.3-1.2,0.5c-0.3,0.2-0.4,0.5-0.4,0.8c0,0,0,0.1,0,0.1l2.7,6.5c0.1,0.5,0.3,0.9,0.7,1.2
		c0.3,0.2,0.6,0.4,1,0.4h13.6c0.4,0,0.8-0.1,1-0.4c0.3-0.3,0.5-0.7,0.7-1.2l3.4-8.6c0-0.1,0-0.2,0-0.3c0-0.3-0.2-0.5-0.4-0.7
		c-0.2-0.2-0.5-0.4-0.8-0.4C47.9,729.2,47.8,729.2,47.6,729.2z"/>
	<path class="st5" d="M87.6,723l-0.5,1.7h-0.6l1.2-4.5h1.3c0.3,0,0.5,0,0.7,0.1c0.2,0.1,0.3,0.2,0.4,0.3c0.1,0.1,0.2,0.3,0.2,0.4
		c0,0.2,0,0.4-0.1,0.6c-0.1,0.2-0.1,0.4-0.3,0.6c-0.1,0.2-0.3,0.3-0.4,0.4c-0.2,0.1-0.4,0.2-0.6,0.3c-0.2,0.1-0.5,0.1-0.7,0.1H87.6z
		 M87.7,722.6h0.7c0.2,0,0.3,0,0.5-0.1c0.1,0,0.3-0.1,0.4-0.2c0.1-0.1,0.2-0.2,0.3-0.3c0.1-0.1,0.1-0.2,0.2-0.4
		c0.1-0.3,0.1-0.5-0.1-0.7c-0.1-0.2-0.4-0.2-0.7-0.2h-0.7L87.7,722.6z"/>
	<path id="_x31__6_" class="st5" d="M92.3,721.5c0.2,0,0.4,0,0.6,0.1c0.2,0.1,0.3,0.2,0.4,0.3c0.1,0.1,0.1,0.3,0.2,0.5
		c0,0.2,0,0.4-0.1,0.7c-0.1,0.2-0.2,0.5-0.3,0.7c-0.1,0.2-0.3,0.4-0.4,0.5c-0.2,0.1-0.4,0.3-0.6,0.3c-0.2,0.1-0.4,0.1-0.7,0.1
		c-0.2,0-0.4,0-0.6-0.1c-0.2-0.1-0.3-0.2-0.4-0.3c-0.1-0.1-0.1-0.3-0.2-0.5c0-0.2,0-0.4,0.1-0.7c0.1-0.3,0.2-0.5,0.3-0.7
		c0.1-0.2,0.3-0.4,0.4-0.5c0.2-0.1,0.4-0.3,0.6-0.3C91.8,721.5,92,721.5,92.3,721.5z M91.5,724.3c0.3,0,0.6-0.1,0.8-0.3
		c0.2-0.2,0.4-0.5,0.5-0.9c0.1-0.4,0.1-0.7,0-0.9c-0.1-0.2-0.3-0.3-0.6-0.3c-0.2,0-0.3,0-0.4,0.1c-0.1,0.1-0.2,0.1-0.4,0.2
		c-0.1,0.1-0.2,0.2-0.3,0.4c-0.1,0.1-0.1,0.3-0.2,0.5c0,0.2-0.1,0.4-0.1,0.5c0,0.1,0,0.3,0.1,0.4c0.1,0.1,0.1,0.2,0.2,0.2
		C91.2,724.3,91.3,724.3,91.5,724.3z"/>
	<path id="_x32__6_" class="st5" d="M94,721.5h0.4c0,0,0.1,0,0.1,0c0,0,0,0,0,0.1l0.1,2c0,0.1,0,0.1,0,0.2c0,0.1,0,0.1,0,0.2
		c0-0.1,0.1-0.1,0.1-0.2c0-0.1,0.1-0.1,0.1-0.2l1.2-2.1c0,0,0-0.1,0.1-0.1c0,0,0.1,0,0.1,0h0.2c0,0,0.1,0,0.1,0c0,0,0,0,0,0.1
		l0.1,2.1c0,0.1,0,0.1,0,0.2c0,0.1,0,0.1,0,0.2c0-0.1,0.1-0.1,0.1-0.2c0-0.1,0.1-0.1,0.1-0.2l1.2-2c0,0,0-0.1,0.1-0.1
		c0,0,0.1,0,0.1,0h0.4l-1.9,3.2h-0.4c-0.1,0-0.1,0-0.1-0.1l-0.1-2.2c0,0,0-0.1,0-0.1c0-0.1,0-0.1,0-0.1c0,0,0,0.1-0.1,0.1
		c0,0,0,0.1-0.1,0.1l-1.3,2.2c0,0.1-0.1,0.1-0.2,0.1h-0.4L94,721.5z"/>
	<path id="_x33__6_" class="st5" d="M100.5,721.5c0.2,0,0.4,0,0.5,0.1c0.1,0.1,0.3,0.2,0.3,0.3c0.1,0.1,0.1,0.3,0.2,0.4
		c0,0.2,0,0.4-0.1,0.6c0,0.1,0,0.1-0.1,0.2c0,0-0.1,0-0.1,0h-2.1c-0.1,0.2-0.1,0.4-0.1,0.5c0,0.1,0,0.3,0.1,0.4
		c0.1,0.1,0.1,0.2,0.3,0.2c0.1,0,0.2,0.1,0.4,0.1c0.1,0,0.3,0,0.4,0c0.1,0,0.2-0.1,0.3-0.1c0.1,0,0.2-0.1,0.2-0.1
		c0.1,0,0.1-0.1,0.1-0.1c0,0,0.1,0,0.1,0.1l0.1,0.2c-0.1,0.1-0.2,0.2-0.3,0.2c-0.1,0.1-0.2,0.1-0.3,0.2c-0.1,0-0.2,0.1-0.4,0.1
		c-0.1,0-0.2,0-0.4,0c-0.2,0-0.4,0-0.6-0.1c-0.2-0.1-0.3-0.2-0.4-0.3c-0.1-0.1-0.2-0.3-0.2-0.5c0-0.2,0-0.5,0.1-0.7
		c0.1-0.2,0.1-0.4,0.3-0.6c0.1-0.2,0.3-0.4,0.4-0.5c0.2-0.1,0.4-0.3,0.6-0.3C100.1,721.5,100.3,721.5,100.5,721.5z M100.4,721.9
		c-0.3,0-0.5,0.1-0.7,0.2c-0.2,0.2-0.4,0.4-0.5,0.6h1.7c0-0.1,0.1-0.2,0-0.4c0-0.1,0-0.2-0.1-0.3c0-0.1-0.1-0.1-0.2-0.2
		C100.7,721.9,100.6,721.9,100.4,721.9z"/>
	<path id="_x34__6_" class="st5" d="M101.7,724.7l0.9-3.2h0.3c0.1,0,0.1,0,0.1,0c0,0,0,0.1,0,0.1l-0.1,0.5c0.2-0.2,0.4-0.4,0.5-0.5
		c0.2-0.1,0.4-0.2,0.6-0.2c0.1,0,0.2,0,0.2,0c0.1,0,0.1,0,0.2,0.1l-0.2,0.4c0,0.1-0.1,0.1-0.1,0.1c0,0-0.1,0-0.1,0
		c-0.1,0-0.1,0-0.2,0c-0.2,0-0.4,0.1-0.5,0.2c-0.2,0.1-0.3,0.3-0.5,0.5l-0.5,2H101.7z"/>
	<path id="_x35__6_" class="st5" d="M106.4,721.5c0.2,0,0.4,0,0.5,0.1c0.1,0.1,0.3,0.2,0.3,0.3c0.1,0.1,0.1,0.3,0.2,0.4
		c0,0.2,0,0.4-0.1,0.6c0,0.1,0,0.1-0.1,0.2c0,0-0.1,0-0.1,0H105c-0.1,0.2-0.1,0.4-0.1,0.5c0,0.1,0,0.3,0.1,0.4
		c0.1,0.1,0.1,0.2,0.3,0.2c0.1,0,0.2,0.1,0.4,0.1c0.1,0,0.3,0,0.4,0c0.1,0,0.2-0.1,0.3-0.1c0.1,0,0.2-0.1,0.2-0.1
		c0.1,0,0.1-0.1,0.1-0.1c0,0,0.1,0,0.1,0.1l0.1,0.2c-0.1,0.1-0.2,0.2-0.3,0.2c-0.1,0.1-0.2,0.1-0.3,0.2c-0.1,0-0.2,0.1-0.4,0.1
		c-0.1,0-0.2,0-0.4,0c-0.2,0-0.4,0-0.6-0.1c-0.2-0.1-0.3-0.2-0.4-0.3c-0.1-0.1-0.2-0.3-0.2-0.5c0-0.2,0-0.5,0.1-0.7
		c0.1-0.2,0.2-0.4,0.3-0.6c0.1-0.2,0.3-0.4,0.4-0.5c0.2-0.1,0.4-0.3,0.6-0.3C105.9,721.5,106.1,721.5,106.4,721.5z M106.3,721.9
		c-0.3,0-0.5,0.1-0.7,0.2c-0.2,0.2-0.4,0.4-0.5,0.6h1.7c0-0.1,0-0.2,0-0.4c0-0.1,0-0.2-0.1-0.3c0-0.1-0.1-0.1-0.2-0.2
		C106.5,721.9,106.4,721.9,106.3,721.9z"/>
	<path id="_x36__6_" class="st5" d="M109.8,724.7c-0.1,0-0.1,0-0.1-0.1l0.1-0.4c-0.2,0.2-0.4,0.3-0.6,0.4c-0.2,0.1-0.4,0.1-0.6,0.1
		c-0.2,0-0.3,0-0.5-0.1c-0.1-0.1-0.2-0.2-0.3-0.3c-0.1-0.1-0.1-0.3-0.1-0.5c0-0.2,0-0.4,0.1-0.7c0.1-0.2,0.2-0.5,0.3-0.7
		c0.1-0.2,0.3-0.4,0.4-0.5c0.2-0.2,0.3-0.3,0.5-0.4c0.2-0.1,0.4-0.1,0.6-0.1c0.2,0,0.4,0,0.5,0.1c0.1,0.1,0.2,0.2,0.3,0.3l0.5-1.8
		h0.6l-1.2,4.6H109.8z M108.8,724.3c0.2,0,0.4,0,0.5-0.1c0.2-0.1,0.3-0.2,0.5-0.4l0.4-1.5c-0.1-0.1-0.2-0.2-0.3-0.3
		c-0.1-0.1-0.2-0.1-0.4-0.1c-0.3,0-0.6,0.1-0.8,0.3c-0.2,0.2-0.4,0.5-0.5,0.9c-0.1,0.2-0.1,0.4-0.1,0.5c0,0.1,0,0.3,0.1,0.4
		c0,0.1,0.1,0.2,0.2,0.2C108.5,724.3,108.7,724.3,108.8,724.3z"/>
	<path id="_x37__6_" class="st5" d="M112.3,724.7l1.2-4.6h0.6l-0.5,1.9c0.2-0.2,0.4-0.3,0.6-0.4c0.2-0.1,0.4-0.1,0.6-0.1
		c0.2,0,0.3,0,0.5,0.1c0.1,0.1,0.2,0.2,0.3,0.3c0.1,0.1,0.1,0.3,0.1,0.5c0,0.2,0,0.4-0.1,0.7c-0.1,0.2-0.2,0.5-0.3,0.7
		c-0.1,0.2-0.3,0.4-0.4,0.5c-0.2,0.1-0.3,0.3-0.5,0.3c-0.2,0.1-0.4,0.1-0.6,0.1c-0.2,0-0.4,0-0.5-0.1c-0.1-0.1-0.2-0.2-0.3-0.3
		l-0.1,0.3c0,0.1-0.1,0.1-0.2,0.1H112.3z M114.4,721.9c-0.2,0-0.4,0-0.5,0.1c-0.2,0.1-0.3,0.2-0.5,0.4L113,724
		c0.1,0.1,0.1,0.2,0.3,0.3c0.1,0.1,0.2,0.1,0.4,0.1c0.3,0,0.6-0.1,0.8-0.3c0.2-0.2,0.4-0.5,0.5-0.9c0.1-0.2,0.1-0.4,0.1-0.5
		c0-0.1,0-0.3-0.1-0.4c0-0.1-0.1-0.2-0.2-0.2C114.7,722,114.5,721.9,114.4,721.9z"/>
	<path id="_x38__6_" class="st5" d="M116.3,725.7c0,0-0.1,0.1-0.1,0.1c0,0-0.1,0-0.1,0h-0.4l0.9-1.2l-0.5-3h0.5c0,0,0.1,0,0.1,0
		c0,0,0,0,0,0.1l0.3,2c0,0,0,0.1,0,0.1c0,0,0,0.1,0,0.1c0,0,0.1-0.1,0.1-0.1c0,0,0.1-0.1,0.1-0.1l1.4-2c0,0,0.1-0.1,0.1-0.1
		c0,0,0.1,0,0.1,0h0.4L116.3,725.7z"/>
	<path id="_x39__6_" class="st5" d="M118.9,724.4c0-0.1,0-0.1,0.1-0.2c0-0.1,0.1-0.1,0.1-0.1c0,0,0.1-0.1,0.1-0.1c0.1,0,0.1,0,0.2,0
		c0.1,0,0.1,0,0.1,0c0,0,0.1,0,0.1,0.1c0,0,0,0.1,0.1,0.1c0,0,0,0.1,0,0.2c0,0.1,0,0.1-0.1,0.2c0,0-0.1,0.1-0.1,0.1
		c0,0-0.1,0.1-0.1,0.1c-0.1,0-0.1,0-0.2,0c-0.1,0-0.1,0-0.1,0c0,0-0.1,0-0.1-0.1c0,0,0-0.1,0-0.1
		C118.9,724.5,118.9,724.4,118.9,724.4z M119.5,722c0-0.1,0-0.1,0.1-0.2c0,0,0.1-0.1,0.1-0.1c0,0,0.1-0.1,0.1-0.1c0.1,0,0.1,0,0.2,0
		c0.1,0,0.1,0,0.1,0c0,0,0.1,0,0.1,0.1c0,0,0,0.1,0.1,0.1c0,0,0,0.1,0,0.2c0,0.1,0,0.1-0.1,0.2c0,0-0.1,0.1-0.1,0.1
		c0,0-0.1,0.1-0.1,0.1c-0.1,0-0.1,0-0.2,0c-0.1,0-0.1,0-0.1,0c0,0-0.1,0-0.1-0.1c0,0,0-0.1,0-0.1C119.5,722.1,119.5,722.1,119.5,722
		z"/>
	<path class="st5" d="M126,739.8l-0.1,0.5h-2.3l-0.4,1.6h1.8l-0.1,0.5H123l-0.4,1.6h2.3l-0.1,0.5h-2.9l1.3-4.8H126z M126,742.3h1.6
		l-0.1,0.5h-1.6L126,742.3z M128.7,744h2.1l-0.1,0.5H128l1.3-4.8h0.6L128.7,744z M133.4,741.1c0.2,0,0.4,0,0.5,0.1
		c0.2,0.1,0.3,0.2,0.4,0.3c0.1,0.1,0.1,0.3,0.2,0.5c0,0.2,0,0.4-0.1,0.6c0,0.1-0.1,0.2-0.1,0.2c0,0-0.1,0-0.1,0h-2.2
		c-0.1,0.2-0.1,0.4-0.1,0.6c0,0.2,0,0.3,0.1,0.4c0.1,0.1,0.2,0.2,0.3,0.2c0.1,0.1,0.3,0.1,0.4,0.1c0.1,0,0.3,0,0.4-0.1
		c0.1,0,0.2-0.1,0.3-0.1c0.1,0,0.2-0.1,0.2-0.1c0.1,0,0.1-0.1,0.1-0.1c0,0,0.1,0,0.1,0.1l0.1,0.2c-0.1,0.1-0.2,0.2-0.3,0.2
		c-0.1,0.1-0.2,0.1-0.4,0.2c-0.1,0-0.3,0.1-0.4,0.1c-0.1,0-0.3,0-0.4,0c-0.2,0-0.4,0-0.6-0.1c-0.2-0.1-0.3-0.2-0.4-0.3
		c-0.1-0.2-0.2-0.3-0.2-0.6c0-0.2,0-0.5,0.1-0.8c0.1-0.2,0.2-0.5,0.3-0.7c0.1-0.2,0.3-0.4,0.5-0.5c0.2-0.1,0.4-0.3,0.6-0.4
		C132.9,741.2,133.2,741.1,133.4,741.1z M133.3,741.6c-0.3,0-0.5,0.1-0.7,0.2c-0.2,0.2-0.4,0.4-0.5,0.7h1.8c0-0.1,0.1-0.3,0-0.4
		c0-0.1,0-0.2-0.1-0.3c-0.1-0.1-0.1-0.1-0.2-0.2C133.5,741.6,133.4,741.6,133.3,741.6z M137.1,744.6h-0.3c-0.1,0-0.1,0-0.1,0
		c0,0,0-0.1,0-0.1l0-0.3c-0.1,0.1-0.2,0.2-0.3,0.2c-0.1,0.1-0.2,0.1-0.3,0.2c-0.1,0-0.2,0.1-0.3,0.1c-0.1,0-0.2,0-0.4,0
		c-0.1,0-0.2,0-0.4-0.1c-0.1,0-0.2-0.1-0.3-0.2c-0.1-0.1-0.1-0.2-0.1-0.3c0-0.1,0-0.2,0-0.4c0-0.1,0.1-0.3,0.2-0.4
		c0.1-0.1,0.3-0.2,0.4-0.3c0.2-0.1,0.4-0.2,0.7-0.2c0.3-0.1,0.6-0.1,1-0.1l0.1-0.3c0.1-0.3,0.1-0.5,0-0.6c-0.1-0.1-0.2-0.2-0.4-0.2
		c-0.1,0-0.3,0-0.4,0.1c-0.1,0-0.2,0.1-0.3,0.1c-0.1,0-0.2,0.1-0.2,0.1c-0.1,0-0.1,0.1-0.2,0.1c0,0-0.1,0-0.1,0c0,0,0,0-0.1-0.1
		l-0.1-0.2c0.2-0.2,0.5-0.3,0.7-0.4c0.2-0.1,0.5-0.1,0.8-0.1c0.2,0,0.3,0,0.5,0.1c0.1,0.1,0.2,0.1,0.3,0.3c0.1,0.1,0.1,0.2,0.1,0.4
		c0,0.2,0,0.3-0.1,0.5L137.1,744.6z M135.7,744.2c0.1,0,0.2,0,0.3,0c0.1,0,0.2-0.1,0.3-0.1c0.1,0,0.2-0.1,0.3-0.1
		c0.1-0.1,0.2-0.1,0.3-0.2l0.2-0.7c-0.3,0-0.5,0-0.7,0.1c-0.2,0-0.4,0.1-0.5,0.1c-0.1,0.1-0.2,0.1-0.3,0.2c-0.1,0.1-0.1,0.2-0.1,0.3
		c0,0.1,0,0.2,0,0.2c0,0.1,0,0.1,0.1,0.2c0,0,0.1,0.1,0.1,0.1C135.5,744.2,135.6,744.2,135.7,744.2z M138,744.6l0.9-3.4h0.3
		c0.1,0,0.1,0,0.1,0c0,0,0,0.1,0,0.1l-0.1,0.6c0.2-0.2,0.4-0.4,0.6-0.6c0.2-0.1,0.4-0.2,0.6-0.2c0.1,0,0.2,0,0.2,0
		c0.1,0,0.1,0.1,0.2,0.1l-0.2,0.4c0,0.1-0.1,0.1-0.1,0.1c0,0-0.1,0-0.1,0c-0.1,0-0.1,0-0.3,0c-0.2,0-0.4,0.1-0.6,0.2
		c-0.2,0.1-0.3,0.3-0.5,0.5l-0.6,2.1H138z M140.7,744.6l0.9-3.4h0.4c0.1,0,0.1,0,0.1,0.1l-0.1,0.4c0.2-0.2,0.4-0.3,0.6-0.4
		c0.2-0.1,0.4-0.2,0.7-0.2c0.2,0,0.3,0,0.5,0.1c0.1,0.1,0.2,0.1,0.3,0.3c0.1,0.1,0.1,0.2,0.1,0.4c0,0.2,0,0.3-0.1,0.5l-0.6,2.1h-0.6
		l0.6-2.1c0.1-0.3,0.1-0.5,0-0.6c-0.1-0.1-0.2-0.2-0.5-0.2c-0.2,0-0.3,0-0.5,0.1c-0.2,0.1-0.3,0.2-0.5,0.3l-0.7,2.5H140.7z
		 M145.9,741.2l-0.9,3.4h-0.6l0.9-3.4H145.9z M146.3,740.1c0,0.1,0,0.1-0.1,0.2c0,0-0.1,0.1-0.1,0.1c0,0-0.1,0.1-0.2,0.1
		c-0.1,0-0.1,0-0.2,0c-0.1,0-0.1,0-0.2,0c0,0-0.1-0.1-0.1-0.1c0,0,0-0.1-0.1-0.1c0,0,0-0.1,0-0.2c0-0.1,0-0.1,0.1-0.2
		c0-0.1,0.1-0.1,0.1-0.1c0,0,0.1-0.1,0.2-0.1c0.1,0,0.1,0,0.2,0c0.1,0,0.1,0,0.2,0c0,0,0.1,0.1,0.1,0.1c0,0,0,0.1,0.1,0.1
		C146.4,740,146.4,740.1,146.3,740.1z M146.1,744.6l0.9-3.4h0.4c0.1,0,0.1,0,0.1,0.1l-0.1,0.4c0.2-0.2,0.4-0.3,0.6-0.4
		c0.2-0.1,0.4-0.2,0.7-0.2c0.2,0,0.3,0,0.5,0.1c0.1,0.1,0.2,0.1,0.3,0.3c0.1,0.1,0.1,0.2,0.1,0.4c0,0.2,0,0.3-0.1,0.5l-0.6,2.1h-0.6
		l0.6-2.1c0.1-0.3,0.1-0.5,0-0.6c-0.1-0.1-0.2-0.2-0.5-0.2c-0.2,0-0.3,0-0.5,0.1c-0.2,0.1-0.3,0.2-0.5,0.3l-0.7,2.5H146.1z
		 M151.8,741.1c0.1,0,0.3,0,0.4,0c0.1,0,0.2,0.1,0.3,0.1h0.9l-0.1,0.2c0,0.1-0.1,0.1-0.2,0.1l-0.4,0.1c0,0.1,0,0.3,0,0.5
		c0,0.2-0.1,0.3-0.2,0.4c-0.1,0.1-0.2,0.2-0.4,0.3c-0.1,0.1-0.3,0.2-0.5,0.2c-0.2,0-0.3,0.1-0.5,0.1c-0.2,0-0.3,0-0.4-0.1
		c-0.1,0-0.1,0.1-0.2,0.1c-0.1,0.1-0.1,0.1-0.1,0.2c0,0.1,0,0.1,0,0.2s0.1,0.1,0.2,0.1c0.1,0,0.2,0,0.4,0c0.1,0,0.3,0,0.4,0
		c0.1,0,0.3,0,0.4,0c0.1,0,0.2,0.1,0.3,0.1c0.1,0.1,0.2,0.1,0.2,0.2c0,0.1,0,0.2,0,0.4c0,0.1-0.1,0.3-0.2,0.4
		c-0.1,0.1-0.2,0.3-0.4,0.4c-0.2,0.1-0.3,0.2-0.6,0.3c-0.2,0.1-0.4,0.1-0.7,0.1c-0.2,0-0.5,0-0.6-0.1c-0.2,0-0.3-0.1-0.4-0.2
		c-0.1-0.1-0.2-0.2-0.2-0.3c0-0.1,0-0.2,0-0.3c0-0.2,0.1-0.3,0.3-0.4c0.1-0.1,0.3-0.2,0.5-0.3c-0.1,0-0.1-0.1-0.2-0.2
		c0-0.1,0-0.2,0-0.3c0,0,0-0.1,0.1-0.2c0-0.1,0.1-0.1,0.1-0.2c0-0.1,0.1-0.1,0.2-0.1c0.1,0,0.1-0.1,0.2-0.1
		c-0.1-0.1-0.2-0.2-0.3-0.4c-0.1-0.2-0.1-0.3,0-0.5c0-0.2,0.1-0.3,0.2-0.4c0.1-0.1,0.2-0.3,0.4-0.3c0.1-0.1,0.3-0.2,0.5-0.2
		C151.4,741.2,151.6,741.1,151.8,741.1z M151.9,744.7c0-0.1,0-0.2,0-0.2c0-0.1-0.1-0.1-0.2-0.1c-0.1,0-0.2,0-0.3-0.1
		c-0.1,0-0.2,0-0.3,0c-0.1,0-0.2,0-0.4,0c-0.1,0-0.2,0-0.3,0c-0.1,0.1-0.3,0.1-0.4,0.2c-0.1,0.1-0.2,0.2-0.2,0.3c0,0.1,0,0.1,0,0.2
		c0,0.1,0.1,0.1,0.1,0.2c0.1,0,0.2,0.1,0.3,0.1c0.1,0,0.2,0,0.4,0c0.2,0,0.3,0,0.4,0c0.1,0,0.2-0.1,0.4-0.1c0.1-0.1,0.2-0.1,0.3-0.2
		C151.8,744.9,151.9,744.8,151.9,744.7z M151.3,742.9c0.1,0,0.2,0,0.3,0c0.1,0,0.2-0.1,0.3-0.1c0.1-0.1,0.1-0.1,0.2-0.2
		c0.1-0.1,0.1-0.2,0.1-0.3c0.1-0.2,0-0.4-0.1-0.5c-0.1-0.1-0.3-0.2-0.5-0.2c-0.2,0-0.4,0.1-0.6,0.2c-0.2,0.1-0.3,0.3-0.3,0.5
		c0,0.1,0,0.2,0,0.3c0,0.1,0,0.2,0.1,0.2c0,0.1,0.1,0.1,0.2,0.1C151.1,742.9,151.2,742.9,151.3,742.9z M159,739.8l-0.1,0.5h-1.5
		l-1.1,4.2h-0.6l1.1-4.2h-1.5l0.1-0.5H159z M159.9,741.1c0.2,0,0.4,0,0.5,0.1c0.2,0.1,0.3,0.2,0.4,0.3c0.1,0.1,0.1,0.3,0.2,0.5
		c0,0.2,0,0.4-0.1,0.6c0,0.1,0,0.2-0.1,0.2c0,0-0.1,0-0.1,0h-2.2c-0.1,0.2-0.1,0.4-0.1,0.6c0,0.2,0,0.3,0.1,0.4
		c0.1,0.1,0.2,0.2,0.3,0.2c0.1,0.1,0.2,0.1,0.4,0.1c0.1,0,0.3,0,0.4-0.1c0.1,0,0.2-0.1,0.3-0.1c0.1,0,0.2-0.1,0.2-0.1
		c0.1,0,0.1-0.1,0.1-0.1c0,0,0.1,0,0.1,0.1l0.1,0.2c-0.1,0.1-0.2,0.2-0.3,0.2c-0.1,0.1-0.2,0.1-0.4,0.2c-0.1,0-0.3,0.1-0.4,0.1
		c-0.1,0-0.3,0-0.4,0c-0.2,0-0.4,0-0.6-0.1c-0.2-0.1-0.3-0.2-0.4-0.3c-0.1-0.2-0.2-0.3-0.2-0.6c0-0.2,0-0.5,0.1-0.8
		c0.1-0.2,0.2-0.5,0.3-0.7c0.1-0.2,0.3-0.4,0.5-0.5c0.2-0.1,0.4-0.3,0.6-0.4C159.4,741.2,159.7,741.1,159.9,741.1z M159.8,741.6
		c-0.3,0-0.5,0.1-0.7,0.2c-0.2,0.2-0.4,0.4-0.5,0.7h1.8c0-0.1,0-0.3,0-0.4c0-0.1,0-0.2-0.1-0.3c-0.1-0.1-0.1-0.1-0.2-0.2
		C160,741.6,159.9,741.6,159.8,741.6z M163.6,744.6h-0.3c-0.1,0-0.1,0-0.1,0c0,0,0-0.1,0-0.1l0-0.3c-0.1,0.1-0.2,0.2-0.3,0.2
		c-0.1,0.1-0.2,0.1-0.3,0.2c-0.1,0-0.2,0.1-0.3,0.1c-0.1,0-0.2,0-0.4,0c-0.1,0-0.2,0-0.4-0.1c-0.1,0-0.2-0.1-0.3-0.2
		c-0.1-0.1-0.1-0.2-0.1-0.3c0-0.1,0-0.2,0-0.4c0-0.1,0.1-0.3,0.2-0.4c0.1-0.1,0.3-0.2,0.4-0.3c0.2-0.1,0.4-0.2,0.7-0.2
		c0.3-0.1,0.6-0.1,1-0.1l0.1-0.3c0.1-0.3,0.1-0.5,0-0.6c-0.1-0.1-0.2-0.2-0.4-0.2c-0.1,0-0.3,0-0.4,0.1c-0.1,0-0.2,0.1-0.3,0.1
		c-0.1,0-0.2,0.1-0.2,0.1c-0.1,0-0.1,0.1-0.2,0.1c0,0-0.1,0-0.1,0c0,0,0,0-0.1-0.1l-0.1-0.2c0.2-0.2,0.5-0.3,0.7-0.4
		c0.2-0.1,0.5-0.1,0.7-0.1c0.2,0,0.3,0,0.5,0.1c0.1,0.1,0.2,0.1,0.3,0.3c0.1,0.1,0.1,0.2,0.1,0.4c0,0.2,0,0.3-0.1,0.5L163.6,744.6z
		 M162.2,744.2c0.1,0,0.2,0,0.3,0c0.1,0,0.2-0.1,0.3-0.1c0.1,0,0.2-0.1,0.3-0.1c0.1-0.1,0.2-0.1,0.3-0.2l0.2-0.7
		c-0.3,0-0.5,0-0.7,0.1c-0.2,0-0.4,0.1-0.5,0.1c-0.1,0.1-0.2,0.1-0.3,0.2c-0.1,0.1-0.1,0.2-0.2,0.3c0,0.1,0,0.2,0,0.2
		c0,0.1,0,0.1,0.1,0.2c0,0,0.1,0.1,0.1,0.1C162,744.2,162.1,744.2,162.2,744.2z M164.5,744.6l0.9-3.4h0.3c0.1,0,0.1,0,0.1,0.1l0,0.3
		c0.2-0.2,0.3-0.3,0.5-0.4c0.2-0.1,0.4-0.1,0.6-0.1c0.2,0,0.4,0.1,0.5,0.2c0.1,0.1,0.2,0.3,0.2,0.5c0.1-0.1,0.2-0.2,0.3-0.3
		c0.1-0.1,0.2-0.2,0.3-0.2c0.1-0.1,0.2-0.1,0.3-0.1c0.1,0,0.2,0,0.3,0c0.2,0,0.3,0,0.5,0.1c0.1,0.1,0.2,0.1,0.3,0.2
		c0.1,0.1,0.1,0.2,0.1,0.4c0,0.2,0,0.3-0.1,0.5l-0.6,2.1h-0.6l0.6-2.1c0.1-0.3,0.1-0.5,0-0.6c-0.1-0.1-0.2-0.2-0.4-0.2
		c-0.1,0-0.2,0-0.3,0.1c-0.1,0-0.2,0.1-0.3,0.2c-0.1,0.1-0.2,0.2-0.2,0.3c-0.1,0.1-0.1,0.2-0.2,0.4l-0.6,2.1h-0.6l0.6-2.1
		c0.1-0.3,0.1-0.5,0-0.6c-0.1-0.1-0.2-0.2-0.4-0.2c-0.1,0-0.3,0-0.4,0.1c-0.1,0.1-0.3,0.2-0.4,0.3l-0.7,2.5H164.5z"/>
</g>
<g>
	<g>
		<linearGradient id="SVGID_3_" gradientUnits="userSpaceOnUse" x1="759.4301" y1="142.1612" x2="959.6078" y2="142.1612">
			<stop  offset="0" style="stop-color:#FFFFFF;stop-opacity:0"/>
			<stop  offset="4.209470e-02" style="stop-color:#FDEAED;stop-opacity:4.245090e-02"/>
			<stop  offset="0.1274" style="stop-color:#FAC5CD;stop-opacity:0.1284"/>
			<stop  offset="0.2201" style="stop-color:#F7A6B1;stop-opacity:0.222"/>
			<stop  offset="0.3205" style="stop-color:#F58C9B;stop-opacity:0.3232"/>
			<stop  offset="0.4313" style="stop-color:#F37889;stop-opacity:0.4349"/>
			<stop  offset="0.5581" style="stop-color:#F26B7D;stop-opacity:0.5628"/>
			<stop  offset="0.7149" style="stop-color:#F16276;stop-opacity:0.7209"/>
			<stop  offset="0.9916" style="stop-color:#F16074"/>
		</linearGradient>
		<rect x="759.4" y="129.8" class="st8" width="200.2" height="24.7"/>
		<g>
			<path class="st6" d="M907.6,134.7c0.8,0,1.5-0.7,1.5-1.5c0-0.8-0.6-1.5-1.5-1.5c-0.8,0-1.5,0.7-1.5,1.5
				C906.2,134.1,906.8,134.7,907.6,134.7z"/>
			<path class="st6" d="M911.3,134.7c0.8,0,1.5-0.7,1.5-1.5c0-0.8-0.6-1.5-1.5-1.5c-0.8,0-1.5,0.7-1.5,1.5
				C909.8,134.1,910.5,134.7,911.3,134.7z"/>
			<path class="st6" d="M918,148.5c-0.8,0-1.5,0.7-1.5,1.5c0,0.8,0.6,1.5,1.5,1.5c0.8,0,1.5-0.7,1.5-1.5
				C919.5,149.2,918.9,148.5,918,148.5z"/>
			<path class="st6" d="M920.3,144.4h-3.8h-0.3h-1.8v-7.6c0,0-2-0.8-4.6-0.8c-4,0-5.8,2.6-5.8,5.5c0,3.1,1.6,5.1,5.9,5.1h6.4h0.3
				h6.7v-10.3h-2.9V144.4z M911.5,144.4h-1.4c-2.3,0-3.3-1.1-3.3-3.1c0-1.7,1-3,2.6-3c1.3,0,2.1,0.4,2.1,0.4V144.4z"/>
			<path class="st6" d="M921.7,148.5c-0.8,0-1.5,0.7-1.5,1.5c0,0.8,0.6,1.5,1.5,1.5c0.8,0,1.5-0.7,1.5-1.5
				C923.1,149.2,922.5,148.5,921.7,148.5z"/>
			<path class="st6" d="M949.6,135.5l-2.8,0.4c0.4,1.7,0.6,3.7,0.6,5.9c0,0.7-0.1,1.8-0.2,2.6h-0.8c-1.9,0-2.4-0.6-2.4-2.4v-5.2
				h-2.8v5.3c0,1.6-0.4,2.5-1.6,2.5c-1.3,0-1.7-0.9-1.7-2.6v-4.4h-2.9v4c0,2.2-0.5,2.8-2,2.8h-0.4h-0.3h-1.8v-8.1h-2.9V147
				c0,2.4-0.9,3.1-2.4,3.1c-0.7,0-1.3-0.1-1.8-0.3l-0.2,2.3c0.5,0.1,1.2,0.2,1.8,0.2c4.5,0,5.4-2.7,5.4-5.5v-0.1h1.8h0.3h0.4
				c1.6,0,2.5-0.6,2.9-1.6c0.4,1.1,1.5,1.8,3.1,1.8c1.4,0,2.7-0.6,3.2-1.8c0.5,1.2,1.6,1.6,3.6,1.6h4.1c0.2-1.6,0.3-3.5,0.3-5.1
				C950.3,139.4,950.1,137.3,949.6,135.5z"/>
		</g>
		<g>
			<path class="st1" d="M736.3,148.5c0,1-1.1,1.5-2.8,2.2l-4.9,1.9c-1.3,0.5-1.9,1.3-1.9,2.3c0,0.3,0.1,0.7,0.2,1.1l0.2-0.1
				c0-0.1,0-0.1,0-0.2c0-0.9,1.3-1.4,2.8-2l4.9-1.9c1.3-0.5,1.9-1.3,1.9-2.2c0-0.4-0.1-0.7-0.2-1.1L736.3,148.5z"/>
			<path class="st1" d="M764.8,96.9c1.7,0,3.1-1.4,3.1-3.1v-2c0-1.2,0-2.3,0.7-2.4v-0.2c-0.4,0-0.8,0.1-1.1,0.3h-2.8
				c-1.8,0-3.4,1.6-3.4,3.4v1.2C761.4,95.8,763,96.9,764.8,96.9z M762.5,92.9c0-1.3,1-2.3,2.5-2.3h2c-0.1,0.2-0.1,0.4-0.1,0.6v2.5
				c0,1.2-1,2.1-2.1,2.1c-1.3,0-2.3-0.8-2.3-1.7V92.9z"/>
			<path class="st1" d="M790.8,79.1c0,0.3,0.1,0.7,0.2,1l0.9,2.5c0.1,0.2,0.1,0.5,0.1,0.8c0,1-0.9,2.1-2.1,2.1
				c-0.9,0-1.8-0.7-2.3-1.7l-1.5-3.8l-1,0.4l1.6,4.2c0.1,0.2,0.1,0.5,0.1,0.7c0,1-0.8,2.2-2.1,2.2c-0.9,0-1.8-0.6-2.2-1.7l-1.5-3.8
				l-1.1,0.4l1.7,4.4c0.6,1.2,1.7,1.8,2.8,1.8c1.5,0,3.1-1,3.4-2.6c0.6,0.4,1.3,0.6,2,0.6c1.8,0,3.2-1.6,3.2-3.3
				c0-0.4-0.1-0.7-0.2-1.1l-0.8-2c-0.3-0.8-0.6-1.5-0.6-2c0-0.3,0.1-0.5,0.3-0.7l0-0.1C791.2,77.8,790.8,78.3,790.8,79.1z"/>
			<path class="st1" d="M782.4,78.2c1.9,0,4-1.1,5.2-3.5l1.5-2.5l0.9-1.6c0.5-0.8,0.9-1.7,1.4-1.7c0.1,0,0.2,0,0.2,0l0.1-0.1
				c-0.4-0.2-0.7-0.3-1-0.3l-2.2-1.2c-0.5-0.3-1-0.4-1.5-0.4c-1.1,0-2.3,0.6-2.8,1.6l-0.6,1c-0.2,0.4-0.3,0.8-0.3,1.1
				c0,1.3,1.3,3.1,3.1,3.1c0.2,0,0.4,0,0.6-0.1l-0.3,0.6c-1.3,2.4-3.2,3.4-4.9,3.4c-1.2,0-2.3-0.5-3-1.4l-0.1,0.1
				C779.6,77.5,781,78.2,782.4,78.2z M786.6,72.7c-1.3,0-2.1-1.2-2.1-2c0-0.2,0.1-0.4,0.2-0.6l0.5-1c0.4-0.7,1.1-1.1,1.9-1.1
				c0.4,0,0.8,0.1,1.2,0.3l1.4,0.8l-1.7,3.1C787.5,72.5,787,72.7,786.6,72.7z"/>
			<polygon class="st1" points="806.5,98.3 803.7,95.4 800.8,98.3 803.7,101.1 			"/>
			<path class="st1" d="M829,89.7v0.4c2.1,0.2,2.1,3.7,2.1,7.2v20c0,4.5-3.4,7.1-5.8,7.3h-4.7v-6.1c0-5.7-4-11.3-10.4-11.8h-6.7
				c-6.7,0-12.2,2.7-15.3,6.4l-0.1,0.1V97.3c0-3.6-2.1-5.1-5.2-5.2v0.3c1.9,0.2,1.9,3.1,1.9,6v23.6c0,0.9,0.1,1.9,0.3,2.4h-5.4
				c-4.8,0-6.6-1.3-7.3-4.4V116c0-5.5-3.9-9.6-9.7-9.6h-2.5c-3.3,0-6.6,0-6.7-1.9h-0.3c0.1,1.4,0.5,2.7,1.2,3.5
				c0.7,0.9,1.5,1.6,4.2,1.6h4.2c2.6,0,4,0.9,4.8,2c0.8,1.1,1.2,1.7,1.6,5v8h-5.1v-9.5h-3.6c-5.3,0-9.8,4.5-9.9,9.5h-3.3h-0.1h-8.8
				v-18h-3.3v21.2c0,11.5-6.9,18.9-15,18.9c-1.5,0-2.8-0.3-4.2-1l-0.3,0.6c2.1,0.8,4,1.2,5.9,1.2c4.7,0,8.6-1.8,11.7-5.4
				c3.6-3.8,5.1-8.5,5.1-14.3h8.8h0.1h25.1v-2.1c1.7,1.4,3.4,2,7.2,2.1v0h45.8v0c0.8,0,1.8-0.3,2.9-0.9c3.6-1.7,6-5.6,6-9.6V95.6
				C834.3,91.4,832.1,89.8,829,89.7z M760.8,124.5h-7c0-3.4,2.7-6.1,6.5-6.2h0.6V124.5z M817.3,124.5h-31.9c0-0.1-0.1-0.6-0.1-0.9
				c0-6.9,6-13.8,17.9-13.8h6.7c4.9,0.5,7.4,4.6,7.4,8.6V124.5z"/>
			<path class="st1" d="M839.8,89.9v0.4c1.7,0.3,2,1.8,2,7.5v30h3.3V96C845,92,843.3,90,839.8,89.9z"/>
			<path class="st1" d="M863.6,85.7c1.9,0,4-1.1,5.2-3.5l1.5-2.5l0.9-1.6c0.5-0.8,0.9-1.7,1.4-1.7c0.1,0,0.2,0,0.2,0l0.1-0.1
				c-0.4-0.2-0.7-0.3-1-0.3l-2.2-1.2c-0.5-0.3-1-0.4-1.5-0.4c-1.1,0-2.3,0.6-2.8,1.6l-0.6,1c-0.2,0.4-0.3,0.8-0.3,1.1
				c0,1.3,1.3,3.1,3.1,3.1c0.2,0,0.4,0,0.6-0.1l-0.3,0.6c-1.3,2.4-3.2,3.4-4.9,3.4c-1.2,0-2.3-0.5-3-1.4l-0.1,0.1
				C860.8,85,862.2,85.7,863.6,85.7z M867.8,80.2c-1.3,0-2.1-1.2-2.1-2c0-0.2,0.1-0.4,0.2-0.6l0.5-1c0.4-0.7,1.1-1.1,1.9-1.1
				c0.4,0,0.8,0.1,1.2,0.3l1.4,0.8l-1.7,3.1C868.7,80,868.2,80.2,867.8,80.2z"/>
			<polygon class="st1" points="869.1,98.4 872,101.3 874.9,98.4 872,95.6 			"/>
			<polygon class="st1" points="863.3,98.4 866.2,101.3 869.1,98.4 866.2,95.6 			"/>
			<path class="st1" d="M870,105.6c-5.5,0-10.3,4.8-10.3,10.3v3.6c0,4.8,4.7,8.3,10.2,8.3c5.1,0,9.4-4.2,9.4-9.3v-6
				c0-3.5,0-7,2.1-7.2v-0.5c-1.1,0.1-2.3,0.3-3.1,0.8H870z M876.1,110.8v7.6c0,3.4-2.9,6.1-6.2,6.1c-3.9,0-6.8-2.5-6.8-5.1v-3.6
				c0-3.8,3.1-7,7.4-7h5.8C876.1,109.4,876.1,109.9,876.1,110.8z"/>
			<path class="st1" d="M941.2,101.3c0-0.1,0-0.1,0-0.2c0-0.9,1.3-1.4,2.8-2l4.9-1.9c1.3-0.5,1.9-1.3,1.9-2.2c0-0.4-0.1-0.7-0.2-1.1
				l-0.2,0.1c0,1-1.1,1.5-2.8,2.2l-4.9,1.9c-1.3,0.5-1.9,1.3-1.9,2.3c0,0.3,0.1,0.7,0.2,1.1L941.2,101.3z"/>
			<path class="st1" d="M948.5,105.7h-6.9c-10.6,0-18.6,6.3-19.3,14.5c-0.7-2.6-2.2-5.2-4.4-7.3l-0.4,0.3c2.4,2.2,3.2,5.4,3.2,8.8
				c0,1.3-0.3,2.2-0.9,2.5h-2.7c-3.4-0.3-5.9-2.2-6.2-5.5V94.4c0-4.3-2.1-6-5.4-6.1v0.5c2,0.3,2.1,3.6,2.1,7.4v20.6
				c0,4.4-3,7.7-6.8,7.7h-2.9v-14.9c0-4.3-2.1-6-5.5-6.2v0.5c2,0.3,2.2,3.8,2.2,7.5v13.1h-10.9v3.3h17.1c3.5,0,7-2.5,8-4.5
				c1.7,2.9,4.8,4.5,8.2,4.5v0h42.6v-9.7C959.7,111.8,954.5,106.2,948.5,105.7z M956.3,124.5h-33.5v-1c0-8.3,7.6-14.5,18.8-14.5h3.4
				c2.9,0,4.8,0.4,6.2,0.9c3.4,1.7,5.1,4.4,5.1,8.1V124.5z"/>
		</g>
	</g>
</g>
<g>
	
		<radialGradient id="SVGID_4_" cx="242.5811" cy="251.8821" r="54.2731" fx="231.4407" fy="235.8385" gradientUnits="userSpaceOnUse">
		<stop  offset="0.1436" style="stop-color:#FFF75D"/>
		<stop  offset="0.5314" style="stop-color:#FFDE00"/>
		<stop  offset="0.9166" style="stop-color:#FF7D00"/>
	</radialGradient>
	<circle class="st9" cx="243.6" cy="254.5" r="48.7"/>
	<g>
		<path class="st10" d="M243.6,205.7c-26.9,0-48.7,21.8-48.7,48.7c0,26.9,21.8,48.7,48.7,48.7c26.9,0,48.7-21.8,48.7-48.7
			C292.3,227.6,270.5,205.7,243.6,205.7z M241.9,299.9c-25.1,0-45.5-20.4-45.5-45.5c0-25.1,20.4-45.5,45.5-45.5
			c25.1,0,45.5,20.4,45.5,45.5C287.4,279.6,267,299.9,241.9,299.9z"/>
		<path class="st10" d="M248.9,189.6c0,2.7-2,4.9-4.6,4.9l0,0c-2.5,0-4.6-2.2-4.6-4.9v-8.7c0-2.7,2-4.9,4.6-4.9l0,0
			c2.5,0,4.6,2.2,4.6,4.9V189.6z"/>
		<path class="st10" d="M248.9,322.9c0,2.7-2,4.9-4.6,4.9l0,0c-2.5,0-4.6-2.2-4.6-4.9v-8.7c0-2.7,2-4.9,4.6-4.9l0,0
			c2.5,0,4.6,2.2,4.6,4.9V322.9z"/>
		<path class="st10" d="M306.6,256.4c-2.7,0-4.9-2-4.9-4.6l0,0c0-2.5,2.2-4.6,4.9-4.6h8.7c2.7,0,4.9,2,4.9,4.6l0,0
			c0,2.5-2.2,4.6-4.9,4.6H306.6z"/>
		<path class="st10" d="M173.4,256.4c-2.7,0-4.9-2-4.9-4.6l0,0c0-2.5,2.2-4.6,4.9-4.6h8.7c2.7,0,4.9,2,4.9,4.6l0,0
			c0,2.5-2.2,4.6-4.9,4.6H173.4z"/>
		<path class="st10" d="M291.6,211.1c-1.9,1.9-4.9,2.1-6.7,0.3l0,0c-1.8-1.8-1.7-4.8,0.3-6.7l6.2-6.2c1.9-1.9,4.9-2.1,6.7-0.3l0,0
			c1.8,1.8,1.7,4.8-0.3,6.7L291.6,211.1z"/>
		<path class="st10" d="M197.4,305.3c-1.9,1.9-4.9,2.1-6.7,0.3l0,0c-1.8-1.8-1.7-4.8,0.3-6.7l6.2-6.2c1.9-1.9,4.9-2.1,6.7-0.3l0,0
			c1.8,1.8,1.7,4.8-0.3,6.7L197.4,305.3z"/>
		<path class="st10" d="M285.1,299.1c-1.9-1.9-2-4.9-0.3-6.7l0,0c1.8-1.8,4.8-1.7,6.7,0.3l6.2,6.2c1.9,1.9,2.1,4.9,0.3,6.7l0,0
			c-1.8,1.8-4.8,1.7-6.7-0.3L285.1,299.1z"/>
		<path class="st10" d="M190.9,204.9c-1.9-1.9-2-4.9-0.3-6.7l0,0c1.8-1.8,4.8-1.7,6.7,0.3l6.2,6.2c1.9,1.9,2.1,4.9,0.3,6.7l0,0
			c-1.8,1.8-4.8,1.7-6.7-0.3L190.9,204.9z"/>
	</g>
	<defs>
		<filter id="Adobe_OpacityMaskFilter" filterUnits="userSpaceOnUse" x="197.7" y="209.8" width="72.7" height="48.8">
			<feFlood  style="flood-color:white;flood-opacity:1" result="back"/>
			<feBlend  in="SourceGraphic" in2="back" mode="normal"/>
		</filter>
	</defs>
	<mask maskUnits="userSpaceOnUse" x="197.7" y="209.8" width="72.7" height="48.8" id="SVGID_5_">
		<g class="st11">
			<defs>
				<filter id="Adobe_OpacityMaskFilter_1_" filterUnits="userSpaceOnUse" x="197.7" y="209.8" width="72.7" height="48.8">
					<feFlood  style="flood-color:white;flood-opacity:1" result="back"/>
					<feBlend  in="SourceGraphic" in2="back" mode="normal"/>
				</filter>
			</defs>
			<mask maskUnits="userSpaceOnUse" x="197.7" y="209.8" width="72.7" height="48.8" id="SVGID_5_">
				<g class="st12">
				</g>
			</mask>
			
				<radialGradient id="SVGID_6_" cx="232.621" cy="214.1482" r="50.6721" fx="249.7972" fy="188.035" gradientUnits="userSpaceOnUse">
				<stop  offset="0.2627" style="stop-color:#FFFFFF"/>
				<stop  offset="0.7268" style="stop-color:#FFFFFF"/>
				<stop  offset="0.9716" style="stop-color:#000000"/>
			</radialGradient>
			<path class="st13" d="M212.4,220.5c9-9.2,32.2-15.4,48.6-6.2c16.4,9.2,11,26.7-15.4,25.7c-26.4-1-42.3,8.6-44.4,16.8
				C199.2,265,190.1,243.3,212.4,220.5z"/>
		</g>
	</mask>
	<radialGradient id="SVGID_7_" cx="232.621" cy="214.1482" r="50.6721" fx="249.7972" fy="188.035" gradientUnits="userSpaceOnUse">
		<stop  offset="0.2627" style="stop-color:#FFFFFF"/>
		<stop  offset="0.7268" style="stop-color:#FFF75D"/>
		<stop  offset="0.9716" style="stop-color:#FFDE00"/>
	</radialGradient>
	<path class="st14" d="M212.4,220.5c9-9.2,32.2-15.4,48.6-6.2c16.4,9.2,11,26.7-15.4,25.7c-26.4-1-42.3,8.6-44.4,16.8
		C199.2,265,190.1,243.3,212.4,220.5z"/>
</g>
</svg>
