<?xml version="1.0" encoding="utf-8"?>
<!-- Generator: Adobe Illustrator 21.1.0, SVG Export Plug-In . SVG Version: 6.00 Build 0)  -->
<svg version="1.1" id="Layer_1" xmlns="http://www.w3.org/2000/svg" xmlns:xlink="http://www.w3.org/1999/xlink" x="0px" y="0px"
	 viewBox="0 0 1024 768" style="enable-background:new 0 0 1024 768;" xml:space="preserve">
<style type="text/css">
	.st0{fill:url(#SVGID_1_);}
	.st1{fill:#622272;}
	.st2{fill:url(#SVGID_2_);}
	.st3{fill:url(#SVGID_3_);}
	.st4{fill:#C94876;}
	.st5{fill-rule:evenodd;clip-rule:evenodd;fill:#F6DFB4;}
	.st6{fill:#D1D3D4;}
	.st7{fill:#FFFFFF;}
	.st8{fill:#1D5A69;}
	.st9{fill:url(#SVGID_4_);}
	.st10{fill:url(#SVGID_5_);}
	.st11{fill:#FF8A00;}
	.st12{filter:url(#Adobe_OpacityMaskFilter);}
	.st13{filter:url(#Adobe_OpacityMaskFilter_1_);}
	.st14{mask:url(#SVGID_6_);fill:url(#SVGID_7_);}
	.st15{fill:url(#SVGID_8_);}
</style>
<g>
	<g>
		<g>
			<linearGradient id="SVGID_1_" gradientUnits="userSpaceOnUse" x1="245.2026" y1="139.0445" x2="245.2026" y2="722.0355">
				<stop  offset="0.3212" style="stop-color:#1C75BC"/>
				<stop  offset="0.3967" style="stop-color:#247BBF"/>
				<stop  offset="0.517" style="stop-color:#3C8AC7"/>
				<stop  offset="0.667" style="stop-color:#61A4D5"/>
				<stop  offset="0.839" style="stop-color:#95C7E8"/>
				<stop  offset="1" style="stop-color:#CCECFC"/>
			</linearGradient>
			<path class="st0" d="M395.5,267.8h-6.1c-1.8-28.2-25.9-59.6-71.7-93.4c-35-25.9-70.5-43.7-70.9-43.9c-1-0.5-2.2-0.5-3.1,0
				c-0.3,0.2-35.9,18-70.9,43.9c-45.7,33.8-69.8,65.2-71.7,93.4H95c-1.9,0-3.5,1.6-3.5,3.5v360.2h307.5V271.3
				C398.9,269.4,397.4,267.8,395.5,267.8z"/>
		</g>
	</g>
</g>
<g>
	<path class="st1" d="M752.3,212.9c-0.8,0-1.5,0.7-1.5,1.5c0,0.8,0.7,1.5,1.5,1.5c0.8,0,1.5-0.7,1.5-1.5
		C753.8,213.6,753.1,212.9,752.3,212.9z"/>
	<path class="st1" d="M752.3,220.3c-0.8,0-1.5,0.7-1.5,1.5c0,0.8,0.7,1.5,1.5,1.5c0.8,0,1.5-0.7,1.5-1.5
		C753.8,221,753.1,220.3,752.3,220.3z"/>
	<polygon class="st1" points="772.6,200.7 766.8,201.8 766.8,203 772.6,202 	"/>
	<polygon class="st1" points="772.6,203.2 766.8,204.3 766.8,205.5 772.6,204.4 	"/>
	<path class="st1" d="M777.2,215.1l-1.5,1.2c0.8,1.8,1.5,3.5,1,4.7c-0.5,0.2-1.3,0.3-2.5,0.3h-0.7l0,0c0,0,0,0,0,0
		c-2,0-2.8-0.4-2.8-2.3v-12.1l-0.1-0.1l-1.7,0.4v10.7c-0.2,0.4-0.5,0.7-0.7,1c-1-2-3.4-5.4-6.4-8.1l-0.2,0.1l-0.7,1.9
		c2.8,2.6,4.8,4.7,6.1,7.1c-1.6,1.1-3.6,1.5-5.9,1.6l-0.1,0.1l0.8,1.7c2.7,0,5.3-0.8,7.2-3c0.4,2.3,2,2.9,4.1,2.9c0,0,0,0,0,0l0,0
		h0.7c2.2,0,3.1-0.2,3.8-0.8c0.7-0.7,1.2-1.9,1.2-2.9c0-1-0.5-2.6-1.2-4.3H777.2z"/>
	<path class="st1" d="M776.8,211.2c-0.3-0.3-0.5-0.7-0.5-1.1c0-0.5,0.3-1,1-1c0.3,0,0.7,0.1,1.2,0.3l0.4-1.4
		c-0.6-0.2-1.3-0.4-1.8-0.4c-1.4,0-2.2,0.8-2.2,2.1c0,0.6,0.2,1.1,0.5,1.5c-0.4,0-0.8,0-1.2,0l0.1,1.4c2.1-0.1,3.7-0.2,5-0.4
		l-0.1-1.3C778.4,211.1,777.6,211.2,776.8,211.2z"/>
	<polygon class="st1" points="794.4,207.7 792.4,206.4 791.2,208.2 793.2,209.6 	"/>
	<path class="st1" d="M791.2,212.2c-1.9,0-3.5,2.4-3.5,4.6c0,1.7,1,2.8,3.1,2.8c1,0,1.8-0.1,2.5-0.3c0,0.6-0.1,1.2-0.2,1.5
		c-0.7,0.3-2.2,0.5-6.8,0.5l0,0c0,0,0,0,0,0c-2,0-2.8-0.4-2.8-2.3v-12.1l-0.1-0.1l-1.7,0.4v12c0,3.1,1.8,4,4.2,4c0,0,0,0,0,0l0,0
		c4.5,0,6.3-0.1,7.6-0.8c1.1-0.8,1.5-2.1,1.5-4.4C794.9,215,793.5,212.2,791.2,212.2z M791.2,217.7c-1.2,0-1.9-0.4-1.9-1.2
		c0-1.3,1-2.5,1.9-2.5c1.1,0,2.1,1.7,2.2,3.5C792.7,217.7,792,217.7,791.2,217.7z"/>
	<polygon class="st1" points="791,207.7 789.1,206.4 787.9,208.2 789.8,209.6 	"/>
	<polygon class="st1" points="813.3,226.8 815.3,228.1 816.5,226.3 814.5,225 	"/>
	<path class="st1" d="M820.3,212l-0.5,2.4l0.1,0.1c3.1,2,5.6,3.8,5.6,5.7c-0.6,0.5-2.5,1-5,1h-1.8c-1.6,0-2.4-0.4-3-0.7
		c0.5-0.9,0.8-2.2,1.2-3.7l-0.2-0.1l-1.8,0.5c-0.5,2-0.8,3.1-1.2,3.6c-0.4,0.3-1.1,0.5-2,0.5h-0.5l0,0c0,0,0,0,0,0
		c-1.6,0-1.9-0.3-2.5-1.9c-0.2-0.6-0.8-2-1.4-3.7h-0.2l-1.4,1.5c0.7,1.4,1.5,2.9,1.8,4c-0.5,1.9-2.2,3.7-6.8,4.6l-0.1,0.2l1,1.4
		c3.8-0.7,6.4-2.7,7.2-4.9c0.4,0.4,1.1,0.6,2,0.6h0.5c1.7,0,2.8-0.4,3.6-1.2c1,0.9,2.4,1.2,3.5,1.2v0h2.3c4.8,0,6.5-1.5,6.5-3.4
		c0-1.5-0.8-3.2-5.5-6.2l6.2-3.5l0.6-2.4l-0.2-0.1L820.3,212z"/>
	<polygon class="st1" points="832.4,207.2 832.4,223.2 832.6,223.2 834.3,222.9 834.3,206.8 834.2,206.7 	"/>
	<path class="st1" d="M833.2,203.9c-0.3-0.3-0.5-0.6-0.5-1c0-0.5,0.3-0.9,0.9-0.9c0.3,0,0.7,0.1,1.1,0.2l0.3-1.2
		c-0.6-0.2-1.2-0.3-1.7-0.3c-1.2,0-2,0.7-2,1.9c0,0.5,0.2,1,0.4,1.4c-0.4,0-0.7,0-1.1,0l0.1,1.3c1.9-0.1,3.4-0.2,4.6-0.3l-0.1-1.2
		C834.8,203.7,834,203.8,833.2,203.9z"/>
	<path class="st1" d="M841,215.4c-1.9,0-3.5,2.4-3.5,4.6c0,1.7,1,2.8,3.1,2.8c0.9,0,1.7-0.1,2.3-0.3c-0.7,2-3.1,3.1-6.5,3.3
		l-0.1,0.2l1,1.4c5.1-0.1,7.3-3.1,7.3-6.2C844.7,218.2,843.3,215.4,841,215.4z M841,220.9c-1.2,0-1.9-0.4-1.9-1.2
		c0-1.3,1-2.5,1.9-2.5c1.1,0,2.1,1.7,2.2,3.5C842.5,220.8,841.8,220.9,841,220.9z"/>
	<path class="st1" d="M861.8,218c0,1.9,1.2,2.3,3.1,2.9c1.6,0.5,2.1,0.9,1.9,1.6c-0.9,1.2-3.7,2.5-7,2.5c-3.9,0-5.1-1.5-5.1-3.8
		c0-0.6,0.1-1.3,0.2-2.2l-0.2-0.1l-1.5,0.5c-0.2,0.6-0.4,1.6-0.4,2.7c0,2.7,2.2,4.7,6.5,4.7c4.9,0,9.3-2.5,9.3-5.5
		c0-0.8-0.4-1.4-2.8-2.2c-1.7-0.6-2.7-0.9-2.7-1.5c0-1.1,1.5-2.9,3.4-2.9c0.7,0,1.5,0.2,2.1,0.5l0.1-0.1l0.3-1.7
		c-0.6-0.4-1.5-0.6-2.5-0.6C863.8,212.9,861.8,215.8,861.8,218z"/>
	<polygon class="st1" points="859.5,230.5 861.4,231.9 862.7,230.1 860.7,228.7 	"/>
	<polygon class="st1" points="856.1,230.5 858,231.9 859.2,230.1 857.2,228.7 	"/>
	<polygon class="st1" points="881.5,226.8 883.4,228.1 884.6,226.3 882.6,225 	"/>
	<polygon class="st1" points="884.9,226.8 886.8,228.1 888.1,226.3 886.1,225 	"/>
	<path class="st1" d="M882,223.1c2.2,0,3.1-0.2,3.8-0.8c0.7-0.7,1.2-1.9,1.2-2.9c0-1-0.5-2.6-1.2-4.3h-0.2l-1.5,1.2
		c0.8,1.8,1.5,3.5,1,4.7c-0.5,0.2-1.3,0.3-2.5,0.3h-0.7l0,0c0,0,0,0,0,0c-1.2,0-1.7-0.4-2.7-2.3c-0.3-0.7-2.1-4.5-2.8-6h-0.2
		l-1.4,1.5c1,1.7,2.8,5.2,3.2,6l0.1,0.1c-0.8,0.6-2.5,0.9-3.9,0.9c-0.6,0-1.8-0.1-2.6-0.2l-0.1,0.1L871,223c0.9,0.2,2.3,0.3,2.8,0.3
		c2.4,0,4-0.5,4.9-1.4c0.7,1,1.4,1.3,2.5,1.3c0,0,0,0,0,0l0,0H882z"/>
	<path class="st1" d="M908,223.1L908,223.1L908,223.1c4.5,0,6.3-0.1,7.6-0.8c1.1-0.8,1.5-2.1,1.5-4.4c0-3-1.4-5.8-3.6-5.8
		c-1.9,0-3.5,2.4-3.5,4.6c0,1.7,1,2.8,3.1,2.8c1,0,1.8-0.1,2.5-0.3c0,0.6-0.1,1.2-0.2,1.5c-0.7,0.3-2.2,0.5-6.8,0.5l0,0c0,0,0,0,0,0
		c-2,0-4-0.5-5.4-1.2c1-0.8,2.1-1.6,3.2-2.6l0.6-1.8l-0.1-0.2c-1.3-0.9-2.9-1.2-4.5-1.2c-1.6,0-3.1,0.3-4.3,0.9l-0.8,2l0.1,0.2
		c1.4,0.8,2.4,1.7,3.3,2.7c-2.8,2-5.6,4.2-5.6,7.9c0,3.4,3,5.3,7.6,5.3c2.1,0,3.7-0.3,5-0.8l0.6-1.6l-0.2-0.1
		c-1.4,0.4-3.2,0.7-4.8,0.7c-3.9,0-6.3-1.3-6.3-3.8c0-2.6,1.9-4.1,4.9-6.4C903.3,222.3,905.5,223.1,908,223.1L908,223.1
		C908,223.1,908,223.1,908,223.1z M913.3,217.7c-1.2,0-1.9-0.4-1.9-1.2c0-1.3,1-2.5,1.9-2.5c1.1,0,2.1,1.7,2.2,3.5
		C914.8,217.7,914.2,217.7,913.3,217.7z M899,216.6c0.9-0.3,1.9-0.5,3.1-0.5c0.9,0,1.8,0.1,2.8,0.5c-0.8,0.9-1.9,1.7-3,2.5
		C900.8,218,899.9,217.1,899,216.6z"/>
	<polygon class="st1" points="915,207.7 913,206.4 911.8,208.2 913.8,209.6 	"/>
	<path class="st1" d="M922.4,215.6l-1.4,1.5c0.9,1.6,1.7,3.4,1.7,4.4c0,1.4-2.1,3.5-6.7,4.3l-0.1,0.2l1,1.4c3.3-0.6,5.8-2.2,6.7-3.9
		c0.4-0.8,0.6-1.7,0.6-2.4c0-1.4-0.7-3.5-1.7-5.4H922.4z"/>
	<polygon class="st1" points="927.3,207.2 927.3,223.2 927.4,223.2 929.1,222.9 929.1,206.8 929,206.7 	"/>
	<path class="st1" d="M930.3,203.7c-0.6,0.1-1.4,0.1-2.2,0.2c-0.3-0.3-0.5-0.6-0.5-1c0-0.5,0.3-0.9,0.9-0.9c0.3,0,0.7,0.1,1.1,0.2
		l0.3-1.2c-0.6-0.2-1.2-0.3-1.7-0.3c-1.2,0-2,0.7-2,1.9c0,0.5,0.2,1,0.4,1.4c-0.4,0-0.7,0-1.1,0l0.1,1.3c1.9-0.1,3.4-0.2,4.6-0.3
		L930.3,203.7z"/>
</g>
<g>
	<path class="st1" d="M700.4,419.1c-0.8,0-1.5,0.7-1.5,1.5c0,0.8,0.7,1.5,1.5,1.5c0.8,0,1.5-0.7,1.5-1.5
		C701.9,419.8,701.2,419.1,700.4,419.1z"/>
	<path class="st1" d="M700.4,411.7c-0.8,0-1.5,0.7-1.5,1.5c0,0.8,0.7,1.5,1.5,1.5c0.8,0,1.5-0.7,1.5-1.5
		C701.9,412.4,701.2,411.7,700.4,411.7z"/>
	<polygon class="st1" points="714.9,401.9 709.1,403 709.1,404.2 714.9,403.1 	"/>
	<polygon class="st1" points="714.9,399.5 709.1,400.6 709.1,401.8 714.9,400.7 	"/>
	<path class="st1" d="M719.1,410c-0.3-0.3-0.5-0.7-0.5-1.1c0-0.5,0.3-1,1-1c0.3,0,0.7,0.1,1.2,0.3l0.4-1.4c-0.6-0.2-1.3-0.4-1.8-0.4
		c-1.4,0-2.2,0.8-2.2,2.1c0,0.6,0.2,1.1,0.5,1.5c-0.4,0-0.8,0-1.2,0l0.1,1.4c2.1-0.1,3.7-0.2,5-0.4l-0.1-1.3
		C720.7,409.9,719.9,410,719.1,410z"/>
	<path class="st1" d="M719.5,413.8l-1.5,1.2c0.8,1.8,1.5,3.5,1,4.7c-0.5,0.2-1.3,0.3-2.5,0.3h-0.7l0,0c0,0,0,0,0,0
		c-2,0-2.8-0.4-2.8-2.3v-12.1l-0.1-0.1l-1.7,0.4v10.7c-0.2,0.4-0.5,0.7-0.7,1c-1-2-3.4-5.4-6.4-8.1l-0.2,0.1l-0.7,1.9
		c2.8,2.6,4.8,4.7,6.1,7.1c-1.6,1.1-3.6,1.5-5.9,1.6l-0.1,0.1l0.8,1.7c2.7,0,5.3-0.8,7.2-3c0.4,2.3,2,2.9,4.1,2.9c0,0,0,0,0,0l0,0
		h0.7c2.2,0,3.1-0.2,3.8-0.8c0.7-0.7,1.2-1.9,1.2-2.9c0-1-0.5-2.6-1.2-4.3H719.5z"/>
	<polygon class="st1" points="733.3,406.5 731.4,405.1 730.2,407 732.1,408.3 	"/>
	<path class="st1" d="M733.5,410.9c-1.9,0-3.5,2.4-3.5,4.6c0,1.7,1,2.8,3.1,2.8c1,0,1.8-0.1,2.5-0.3c0,0.6-0.1,1.2-0.2,1.5
		c-0.7,0.3-2.2,0.5-6.8,0.5l0,0c0,0,0,0,0,0c-2,0-2.8-0.4-2.8-2.3v-12.1l-0.1-0.1l-1.7,0.4v12c0,3.1,1.8,4,4.2,4c0,0,0,0,0,0l0,0
		c4.5,0,6.3-0.1,7.6-0.8c1.1-0.8,1.5-2.1,1.5-4.4C737.2,413.8,735.8,410.9,733.5,410.9z M733.5,416.5c-1.2,0-1.9-0.4-1.9-1.2
		c0-1.3,1-2.5,1.9-2.5c1.1,0,2.1,1.7,2.2,3.5C735,416.4,734.3,416.5,733.5,416.5z"/>
	<polygon class="st1" points="736.7,406.5 734.7,405.1 733.5,407 735.5,408.3 	"/>
	<polygon class="st1" points="749.3,407.1 747.3,405.7 746.1,407.6 748.1,408.9 	"/>
	<polygon class="st1" points="752.7,407.1 750.7,405.7 749.5,407.6 751.4,408.9 	"/>
	<polygon class="st1" points="769.6,425.5 771.5,426.9 772.8,425.1 770.8,423.7 	"/>
	<path class="st1" d="M771.7,413.8l-1.6,1.2c0.8,1.8,1.6,3.5,1.1,4.7c-0.5,0.2-1.3,0.3-2.5,0.3h-0.2l0,0c0,0,0,0,0,0
		c-1.8,0-3.8-0.4-5.1-1.1c1.2-1,2.2-2.1,3.1-2.8l0.5-1.8l-0.1-0.2c-1.3-0.9-3-1.2-4.6-1.2c-1.6,0-3.1,0.3-4.3,0.9l-0.9,2l0.1,0.2
		c1.4,0.7,2.4,1.6,3.3,2.7c-1.5,0.8-3.2,1.2-5.2,1.2c-1.9,0-2.8-0.2-2.8-2.1v-7.4l-0.2,0l-1.7,0.8v1.2c-3.6,1.1-5.5,3.3-5.5,5.1
		c0,1.6,1.5,2.7,4,2.7c0.6,0,1.2-0.1,1.8-0.2c0.6,1.5,2,1.9,3.9,1.9c0,0,0,0,0,0l0,0c3.1,0,5.3-0.8,7-1.9c1.6,1.2,3.8,1.9,6.1,1.9
		c0,0,0,0,0,0l0,0h0.2c2.2,0,3.1-0.2,3.8-0.8c0.7-0.7,1.2-1.9,1.2-2.9c0-1-0.4-2.6-1.2-4.3H771.7z M750.6,418v0.2
		c-0.5,0.1-0.9,0.1-1.4,0.1c-1,0-2.3-0.4-2.6-1.2c0.3-1,1.8-2.1,4-2.8V418z M759,415.3c0.9-0.3,2-0.5,3.1-0.5c0.9,0,1.8,0.1,2.8,0.5
		c-1,1-1.9,1.9-2.9,2.6C760.8,416.8,759.9,415.8,759,415.3z"/>
	<polygon class="st1" points="778.1,405.6 777.9,405.5 776.2,406 776.2,421.9 776.3,422 778,421.7 	"/>
	<path class="st1" d="M790.9,406v11.7c0,0.9-0.1,1.5-0.2,1.9c-0.6,0.4-1.5,0.5-2.3,0.5l0,0c0,0,0,0,0,0c-1.6,0-1.9-0.3-2.5-1.9
		c-0.2-0.6-0.8-2-1.4-3.7h-0.2l-1.4,1.5c0.7,1.4,1.5,2.9,1.8,4c-0.5,1.9-2.2,3.7-6.8,4.6l-0.1,0.2l1,1.4c3.8-0.7,6.4-2.7,7.2-4.9
		c0.4,0.4,1.1,0.6,2,0.6c3,0,4.8-0.9,4.8-4.4v-11.9l-0.2-0.1L790.9,406z"/>
	<polygon class="st1" points="795.9,406 795.9,421.9 796,422 797.7,421.7 797.7,405.6 797.6,405.5 	"/>
	<polygon class="st1" points="809.9,407.1 808,405.7 806.8,407.6 808.8,408.9 	"/>
	<polygon class="st1" points="813.3,407.1 811.4,405.7 810.2,407.6 812.1,408.9 	"/>
	<path class="st1" d="M831.9,412.2l6.2-3.5l0.6-2.4l-0.2-0.1l-7.9,4.5l-0.5,2.4l0.1,0.1c3.1,2,5.6,3.8,5.6,5.7c-0.6,0.5-2.5,1-5,1
		h-1.8c-1.8,0-3.8-0.4-5.1-1.1c1.2-1,2.2-2.1,3.1-2.8l0.5-1.8l-0.1-0.2c-1.3-0.9-3-1.2-4.6-1.2c-1.6,0-3.1,0.3-4.3,0.9l-0.9,2
		l0.1,0.2c1.4,0.7,2.4,1.6,3.3,2.7c-1.5,0.8-3.2,1.2-5.2,1.2c-1.9,0-2.8-0.2-2.8-2.1v-7.4l-0.2,0l-1.7,0.8v1.2
		c-3.6,1.1-5.5,3.3-5.5,5.1c0,1.6,1.5,2.7,4,2.7c0.6,0,1.2-0.1,1.8-0.2c0.6,1.5,2,1.9,3.9,1.9c0,0,0,0,0,0l0,0c3.1,0,5.3-0.8,7-1.9
		c1.6,1.2,3.8,1.9,6.1,1.9c0,0,0,0,0,0l0,0h2.3c4.8,0,6.5-1.5,6.5-3.4C837.4,417,836.6,415.3,831.9,412.2z M811.3,418v0.2
		c-0.5,0.1-0.9,0.1-1.4,0.1c-1,0-2.3-0.4-2.6-1.2c0.3-1,1.8-2.1,4-2.8V418z M819.7,415.3c0.9-0.3,2-0.5,3.1-0.5
		c0.9,0,1.8,0.1,2.8,0.5c-1,1-1.9,1.9-2.9,2.6C821.5,416.8,820.6,415.8,819.7,415.3z"/>
	<path class="st1" d="M857.1,406v11.7c0,0.9-0.1,1.5-0.2,1.9c-0.6,0.4-1.5,0.5-2.3,0.5l0,0c0,0,0,0,0,0c-1.6,0-2.7-0.2-2.7-2.6
		v-11.8l-0.2-0.1l-1.7,0.4v11.7c0,0.9-0.1,1.5-0.2,1.9c-0.6,0.4-1.5,0.5-2.3,0.5l0,0c0,0,0,0,0,0c-1.6,0-1.9-0.3-2.5-1.9
		c-0.2-0.6-0.8-2-1.4-3.7h-0.2l-1.4,1.5c0.7,1.4,1.5,2.9,1.8,4c-0.5,1.9-2.2,3.7-6.8,4.6l-0.1,0.2l1,1.4c3.8-0.7,6.4-2.7,7.2-4.9
		c0.4,0.4,1.1,0.6,2,0.6c1.8,0,3.1-0.3,4-1.4c0.7,1.2,2.1,1.4,3,1.4v0c0,0,0,0,0,0c0,0,0,0,0,0s0,0,0,0c3,0,4.8-0.9,4.8-4.4v-11.9
		l-0.2-0.1L857.1,406z"/>
	<path class="st1" d="M883.5,412.2l6.2-3.5l0.6-2.4l-0.2-0.1l-7.9,4.5l-0.5,2.4l0.1,0.1c3.1,2,5.6,3.8,5.6,5.7c-0.6,0.5-2.5,1-5,1
		h-1.8c-2,0-4-0.5-5.4-1.2c1-0.8,2.1-1.6,3.2-2.6l0.6-1.8l-0.1-0.2c-1.3-0.9-2.9-1.2-4.5-1.2c-1.6,0-3.1,0.3-4.3,0.9l-0.8,2l0.1,0.2
		c1.4,0.8,2.4,1.7,3.3,2.7c-2.8,2-5.6,4.2-5.6,7.9c0,3.4,3,5.3,7.6,5.3c2.1,0,3.7-0.3,5-0.8l0.6-1.6l-0.2-0.1
		c-1.4,0.4-3.2,0.7-4.8,0.7c-3.9,0-6.3-1.3-6.3-3.8c0-2.6,1.9-4.1,4.9-6.4c1.6,1.2,3.8,2,6.3,2v0h2.3c4.8,0,6.5-1.5,6.5-3.4
		C888.9,417,888.2,415.3,883.5,412.2z M871.2,415.3c0.9-0.3,1.9-0.5,3.1-0.5c0.9,0,1.8,0.1,2.8,0.5c-0.8,0.9-1.9,1.7-3,2.5
		C873,416.7,872.1,415.8,871.2,415.3z"/>
	<path class="st1" d="M895,414.4l-1.4,1.5c0.9,1.6,1.7,3.4,1.7,4.4c0,1.4-2.1,3.5-6.7,4.3l-0.1,0.2l1,1.4c3.3-0.6,5.8-2.2,6.7-3.9
		c0.4-0.8,0.6-1.7,0.6-2.4c0-1.4-0.7-3.5-1.7-5.4H895z"/>
	<polygon class="st1" points="899.9,406 899.9,421.9 900.1,422 901.8,421.7 901.8,405.6 901.7,405.5 	"/>
	<path class="st1" d="M900.8,402.6c-0.3-0.3-0.5-0.6-0.5-1c0-0.5,0.3-0.9,0.9-0.9c0.3,0,0.7,0.1,1.1,0.2l0.3-1.2
		c-0.6-0.2-1.2-0.3-1.7-0.3c-1.2,0-2,0.7-2,1.9c0,0.5,0.2,1,0.4,1.4c-0.4,0-0.7,0-1.1,0l0.1,1.3c1.9-0.1,3.4-0.2,4.6-0.3l-0.1-1.2
		C902.3,402.5,901.5,402.6,900.8,402.6z"/>
	<polygon class="st1" points="927.9,406.6 926,405.2 924.8,407 926.7,408.4 	"/>
	<polygon class="st1" points="926.5,409.3 924.5,407.9 923.4,409.8 925.3,411.1 	"/>
	<path class="st1" d="M927.1,413.8l-1.5,1.2c0.8,1.8,1.5,3.5,1,4.7c-0.5,0.2-1.3,0.3-2.5,0.3h-0.7l0,0c0,0,0,0,0,0
		c-1.5,0-1.9-0.3-2.8-2.1c-1.4-2.9-2.1-3.7-3.5-3.7c-1.4,0-3.6,1.4-5.2,3.4c-1.2,1.4-1.6,2.5-1.6,4.5c0,1.4,0.3,4.2,0.9,8.4l0.2,0.1
		l1.6-0.8c-0.7-4.8-1.1-9.1-0.8-10.2c0.2-0.3,0.5-0.7,0.8-1c1.9,2.4,3.7,3.5,5.4,3.5c0.7,0,1.3-0.4,1.9-1.2c0.7,0.6,1.5,0.9,2.5,0.9
		c0,0,0,0,0,0l0,0h0.7c2.2,0,3.1-0.2,3.8-0.8c0.7-0.7,1.2-1.9,1.2-2.9c0-1-0.5-2.6-1.2-4.3H927.1z M918.1,420.3
		c-1,0-2.4-1.1-3.9-2.9c1-0.8,2.1-1.4,2.6-1.4c0.6,0,1.3,0.9,2.4,3.3c0,0.1,0.1,0.2,0.2,0.3C919,420.1,918.5,420.3,918.1,420.3z"/>
	<polygon class="st1" points="928,407.9 926.7,409.8 928.7,411.1 929.9,409.3 	"/>
</g>
<linearGradient id="SVGID_2_" gradientUnits="userSpaceOnUse" x1="505.4774" y1="324.9967" x2="1024.0173" y2="324.9967">
	<stop  offset="0.1199" style="stop-color:#FFFFFF"/>
	<stop  offset="0.9969" style="stop-color:#FEF1D4"/>
</linearGradient>
<rect x="505.5" y="286.5" class="st2" width="518.5" height="77"/>
<linearGradient id="SVGID_3_" gradientUnits="userSpaceOnUse" x1="505.4774" y1="540.501" x2="1024.0173" y2="540.501">
	<stop  offset="0.1199" style="stop-color:#FFFFFF"/>
	<stop  offset="0.9969" style="stop-color:#FEF1D4"/>
</linearGradient>
<rect x="505.5" y="471.5" class="st3" width="518.5" height="138"/>
<g>
	<path class="st4" d="M812.1,328.4c-2.1,2.6-3.6,5.2-3.6,7.9c0,2.2,1.1,3.5,2.9,3.5c1.8,0,2.8-1.5,2.8-2.8c0-2.2-1.8-1.9-1.8-3.4
		c0-1,0.9-2.4,1.9-3.9L812.1,328.4z"/>
	<polygon class="st4" points="840.2,345.8 844,348.5 846.4,344.9 842.6,342.2 	"/>
	<path class="st4" d="M852.2,322.3l-1,5l0.2,0.3c3.5,2.2,7.7,5,7.7,6.7c-1,0.5-3.8,0.9-6.7,0.9H850v0c0,0,0,0,0,0
		c-1.7,0-3.1-0.3-4.1-0.7c0.7-1.6,1.2-3.5,1.7-5.7l-0.4-0.3l-4.6,1.1c-0.4,2.4-0.9,4.1-1.2,5c-0.5,0.3-1.5,0.5-2.8,0.5h-0.6l0,0
		c0,0,0,0,0,0c-2.4,0-3.2-0.4-4.2-3.2l-1.5-4.4h-0.4l-3.2,3.7c0.9,1.9,1.9,4,2.7,5.7c-1.2,2.2-4.5,4.6-10.1,5.6l-0.3,0.4l2.4,3.3
		c5.3-0.9,9.5-3.5,10.8-7.1c0.8,0.3,1.7,0.5,2.9,0.5c0,0,0,0,0,0l0,0h0.7c2.6,0,4.4-0.6,5.8-1.7c1.4,1.1,3.8,1.7,5.6,1.7
		c0,0,0,0,0,0v0h3.6c7.5,0,10.1-2.6,10.1-6.2c0-2-1-4.2-6.9-8.1l7.6-3.8l1.5-5.4l-0.3-0.2L852.2,322.3z"/>
	<polygon class="st4" points="871,315.8 871,339.7 871.3,339.9 875.4,339 875.5,314.9 875.2,314.7 	"/>
	<path class="st4" d="M873.7,310.2c-0.5-0.4-0.7-0.9-0.7-1.5c0-0.7,0.4-1.2,1.2-1.2c0.4,0,0.9,0.1,1.5,0.3l0.6-2.3
		c-0.9-0.4-1.9-0.6-2.7-0.6c-2.1,0-3.2,1.3-3.2,3.1c0,0.8,0.3,1.6,0.8,2.3c-0.6,0-1.2,0-1.7,0l0.3,2.6c2.8-0.1,5.3-0.3,7-0.5
		l-0.2-2.5C875.8,310.1,874.8,310.1,873.7,310.2z"/>
	<rect x="906.6" y="304.5" class="st4" width="3.2" height="4.6"/>
	<path class="st4" d="M906,316.5c1,0,1.8-0.3,2.4-0.9c0.4,0.5,1.2,0.9,2.1,0.9c2.3,0,3.5-1.6,3.5-3.7c0-1.1-0.3-2-0.5-2.8l-2.5,0.6
		c0.2,0.6,0.4,1.3,0.4,2.1c0,0.8-0.2,1.3-0.9,1.3c-0.6,0-1-0.3-1-1.2c0-0.3,0-0.8,0-1.5l-2.3,0.2c0,2.1-0.3,2.6-1,2.6
		c-0.6,0-0.9-0.4-0.9-1.3c0-0.4,0-1,0.1-1.5l-2.4,0.1c-0.2,0.6-0.3,1.7-0.3,2.1C902.7,315,903.5,316.5,906,316.5z"/>
	<polygon class="st4" points="929.6,314.7 925.5,315.8 925.5,339.7 925.8,339.9 929.9,339 930,314.9 	"/>
	<path class="st4" d="M916.7,315.8V332c0,1.3-0.1,2.1-0.3,2.7c-0.7,0.3-1.7,0.5-2.7,0.5c-2.5,0-3.3-0.5-3.3-3.2v-13.1l-0.3-0.2
		l-4.2,1.1V332c0,1.3-0.1,2.1-0.3,2.7c-0.7,0.3-1.7,0.5-2.7,0.5c-2.6,0-3.2-0.6-3.2-2.5v-10.8l-0.3-0.1l-4.2,1.6v1.7
		c-5.7,1.9-8.6,5.2-8.6,8.2c0,2.8,2.4,4.6,6.4,4.6c1.2,0,2.2-0.2,3.3-0.6c1.1,1.6,3,2.3,5.4,2.4h0.2c0,0,0.1,0,0.1,0h0.2
		c3.2,0,4.9-0.6,6.1-2.1c1.1,1.5,2.8,2,4.1,2.1h0.3c0,0,0.1,0,0.1,0h0.3c5-0.1,7.9-1.8,7.9-7.8v-16.9l-0.3-0.2L916.7,315.8z
		 M895.3,332.6v0.7c-0.5,0.1-1.1,0.1-1.8,0.1c-1.3,0-2.8-0.5-3.2-1.5c0.4-1.1,2.5-2.2,5-2.8V332.6z"/>
</g>
<g>
	<polygon class="st4" points="688.4,533 697,531.4 697,528.7 688.4,530.4 	"/>
	<polygon class="st4" points="706.6,529.5 703.1,527 700.8,530.4 704.5,533 706.1,530.5 709.6,533 711.9,529.6 708.3,527 	"/>
	<polygon class="st4" points="730.9,504 727.1,501.3 724.7,504.9 728.5,507.6 	"/>
	<path class="st4" d="M760.7,500.6v16.2c0,1.3-0.1,2.1-0.3,2.7c-0.7,0.4-1.9,0.5-2.9,0.5l0,0c0,0,0,0,0,0c-2.9,0-5.4-0.1-7.3-0.7
		c1.4-1.2,2.7-2.5,4.2-3.7l1-3.8l-0.1-0.4c-2.1-1.3-4.9-1.8-7.6-1.8c-2.7,0-5.3,0.6-7.3,1.5l-1.4,4l0.1,0.4c1.7,0.8,3.3,2.1,4.8,3.6
		c-2,0.7-4.2,1-7,1l0,0c0,0,0,0,0,0c-1.4,0-2.6-0.2-3.5-0.5c0.2-0.6,0.4-1.4,0.4-2.1c0-2.9-2-6.3-5.5-6.3c-2.1,0-4.3,1.3-7.2,3.7
		l0.1-14.9l-0.4-0.2l-4.1,1.1v18c-0.4,0.4-0.9,0.8-1.4,1.3h-1.5c-2.4,0-4-0.3-5.1-0.7c0.7-1.6,1.2-3.5,1.7-5.6l-0.4-0.3l-4.6,1.1
		c-0.4,2.4-0.9,4.1-1.3,5c-0.4,0.3-1.6,0.5-2.5,0.5h-0.8l0,0c0,0,0,0,0,0c-2.3,0-2.7-0.6-4-2.9c-1.7-3.3-2.8-5.4-5.4-5.4
		c-2.4,0-5.7,2.5-8,5.2c-1.7,2.1-2.5,4.4-2.5,7.7c0,2.2,0.8,8,1.7,12.6l0.3,0.2l3.8-1.8c-0.9-4.8-1.9-11.7-1.7-14.1l0.6-0.9
		c2.8,3,5.2,4.3,7.3,4.3c1.3,0,2.3-0.7,3.1-1.8c1,1,2.2,1.3,3.7,1.3c0,0,0,0,0,0l0,0h1.2c2.3,0,4-0.6,5.3-1.7
		c1.4,1.1,3.8,1.7,6.5,1.7l0,0h8.8c4.6,0,7.1-0.2,9.1-1.5c1.5,1,3.6,1.5,5.3,1.5c0,0,0,0,0,0l0,0c5,0,8.2-1.1,10.8-2.6
		c2.4,1.7,5.7,2.6,9.8,2.6c0,0,0,0,0,0l0,0c5.4,0,8.6-1.5,8.6-7.8v-16.9l-0.3-0.2L760.7,500.6z M692.6,520.6c-1.2,0-2.8-1-4.5-2.8
		c1.1-1.1,2.2-1.9,3-1.9c0.9,0,1.7,1.2,3,3.9c0,0.1,0.1,0.1,0.1,0.2C693.7,520.3,693.2,520.6,692.6,520.6z M729.9,519.4
		c-0.9,0.4-2.3,0.5-7.3,0.5h-2.7c3.5-3,6.2-4.7,7.9-4.7c1.5,0,2.4,1.6,2.4,2.8C730.2,518.6,730,519.1,729.9,519.4z M747.1,517.3
		c-1.2-1.3-2.3-2.4-3.5-3.2c1.1-0.3,2.2-0.5,3.5-0.5c1.1,0,2.3,0.2,3.5,0.5C749.4,515.5,748.2,516.5,747.1,517.3z"/>
	<polygon class="st4" points="769.6,500.6 769.6,524.4 769.8,524.7 774,523.8 774.1,499.7 773.7,499.5 	"/>
	<path class="st4" d="M811,523.4c0-1.6-0.9-2.9-3.8-4.1c1.5-1.1,2-2.4,2-4.1c0-1.6-0.8-3.9-2-6.7h-0.5l-3.6,2.9c1,1.9,1.7,3.5,2,5.3
		c-0.5,0.4-1.5,0.8-2.7,1.2l0,0c0,0,0,0,0,0l-1.3,3.9c5,1.1,5.9,2.1,5.9,2.8c-1.2,1.3-5.4,2.1-9.6,2.1c-5.7,0-7.3-2-7.3-5.1
		c0-0.8,0.1-1.6,0.4-3.1l-0.4-0.2l-3.7,1.3c-0.3,1.3-0.6,2.8-0.6,4.1c0,4.3,3.5,7.6,10.9,7.6C804.5,531.1,810.8,528.2,811,523.4z"/>
	<polygon class="st4" points="797.1,536.2 793.5,533.7 791.2,537.1 794.9,539.7 796.6,537.2 800.1,539.7 802.4,536.3 798.7,533.7 	
		"/>
	<polygon class="st4" points="804.9,534.5 808.7,537.2 811.1,533.6 807.3,531 	"/>
	<path class="st4" d="M820.6,512.4l-3.2,3.6c1.3,2.2,2.5,5,2.6,6.2c0,1.2-3.2,3.3-7.7,4.6l-0.3,0.4l2.2,3.3c4-1,6.6-3,7.9-4.9
		c0.7-1.1,1.3-2.8,1.3-4.6c0-2.2-0.8-5.7-2.4-8.6H820.6z"/>
	<polygon class="st4" points="846.9,509.4 843.1,506.7 840.7,510.3 844.5,513 	"/>
	<path class="st4" d="M852.5,513.6l-3.9,2.8c1.8,3.8,2.4,6,2.1,7.8c-1.1,1.5-3.5,2.5-6.2,2.5c-3.7,0-5.6-1.7-5.6-5.1
		c0-1.2,0.1-2.5,0.3-3.4l-0.4-0.1l-3.2,1.2c-0.4,1-0.7,3.2-0.7,4.4c0,4.6,3.3,7.5,8.7,7.5c6.7,0,11.1-3.9,11.1-9.8
		c0-2-0.9-5.3-1.9-7.8H852.5z"/>
	<polygon class="st4" points="891.9,530.6 895.7,533.3 898.1,529.7 894.3,527 	"/>
	<path class="st4" d="M927.2,510.6l-0.2,0l-3.9,2.9c0.9,1.9,2,4.6,1.8,6c-0.8,0.3-2,0.5-3.2,0.5c-0.9,0-1.8-0.1-2.7-0.4
		c0.5-1.3,1-2.9,1.6-4.7l-0.1-0.1l-4.5,0.8c-0.4,1.7-0.8,3.7-1.1,4.1c-0.3,0.2-0.7,0.3-1.3,0.3c-1.2,0-2.6-0.3-3.6-0.6
		c0.5-1.2,1-2.7,1.6-4.5l-0.1-0.1l-4.9,0.8c-0.2,1.5-0.6,3.4-0.9,4c-0.6,0.3-1.6,0.4-4,0.4v0c0,0,0,0,0,0c-1.7,0-3.1-0.3-4.1-0.7
		c0.7-1.6,1.2-3.5,1.7-5.7l-0.4-0.3l-4.6,1.1c-0.4,2.4-0.9,4.1-1.2,5c-0.5,0.3-1.5,0.5-2.8,0.5h-0.6c-3.5,0-5.3-0.2-6.5-0.9
		c1.2-0.3,2.1-0.4,3.1-0.5l0.8-4c-2.5,0-4.8-0.6-8.6-2.3c-2.8-1.3-4.3-1.7-5.5-1.7c-1.2,0-2.4,0.4-3.3,0.8l-1.6,4l0.2,0.1
		c1.2-0.4,2.5-0.7,4.1-0.7c1.5,0,3.1,0.4,6,1.8c0.5,0.2,0.9,0.4,1.2,0.5c-0.8,0.3-1.7,0.5-2.8,1c-4.1,1.5-6.3,1.9-9.9,1.9
		c-2.6,0-3.6-0.7-3.6-3.2v-17.1l-0.4-0.2l-4.1,1.1v16.5c0,5.2,2.4,7.3,7.1,7.3c4,0,7.2-0.8,12.2-3.3l1.3-0.6c1.4,2.5,3.4,4,9.3,4
		l0,0h0.7c2.6,0,4.4-0.6,5.8-1.7c1.4,1.1,3.8,1.7,5.6,1.7c0,0,0,0,0,0v0c3.3,0,5.3-0.4,6.7-1.5c1.2,0.8,3.2,1.5,5.5,1.5
		c1.4,0,2.5-0.3,3.4-1c1.3,0.6,2.7,1,4.8,1c4.5,0,7.8-2.1,7.8-6.4C928.9,515.8,928.2,513.2,927.2,510.6z"/>
</g>
<g>
	<path class="st1" d="M836.4,581.2c-0.8,0-1.5,0.7-1.5,1.5c0,0.8,0.7,1.5,1.5,1.5c0.8,0,1.5-0.7,1.5-1.5
		C837.9,581.9,837.2,581.2,836.4,581.2z"/>
	<polygon class="st1" points="852.2,573 850.2,571.7 849,573.5 850.9,574.8 	"/>
	<polygon class="st1" points="848.8,573 846.8,571.7 845.7,573.5 847.6,574.8 	"/>
	<path class="st1" d="M856.1,575.9l-1.7,1.2c0.9,2,1.4,3.2,1.2,4.5c-1,0.4-3.2,0.7-5.7,0.7h-1.7c-4.4,0-6.9-0.6-6.9-3.5
		c0-0.6,0.1-1.3,0.2-2.2l-0.2-0.1l-1.4,0.5c-0.2,0.6-0.4,1.7-0.4,2.7c0,3.3,2.9,4.4,8.1,4.4h1.6c2.9,0,5.2-0.3,6.5-1.1
		c1.1-0.6,1.5-1.8,1.5-3c0-0.9-0.4-2.5-1.1-4.2H856.1z"/>
	<polygon class="st1" points="862.3,567.6 862.2,567.5 860.4,568 860.4,584 860.6,584.1 862.3,583.7 	"/>
	<path class="st1" d="M879.1,576.2c-2.2,0-3.4,2.9-4.3,4.3c-0.6,1.1-1.1,1.5-2.2,1.5c-1.6,0-1.9-0.3-2.5-1.9c-0.2-0.6-0.8-2-1.4-3.7
		h-0.2l-1.4,1.5c0.7,1.4,1.5,2.9,1.8,4c-0.5,1.9-2.2,3.7-6.8,4.6l-0.1,0.2l1,1.4c3.8-0.7,6.4-2.7,7.2-4.9c0.4,0.4,1.1,0.6,2,0.6
		c1.7,0,2.8-0.4,3.6-1.5c1.7,1.2,3.6,1.8,4.8,1.8c1.6,0,2.4-1,2.4-2.6C883.1,578.9,881.3,576.2,879.1,576.2z M881.2,582.1
		c-0.3,0.2-0.7,0.3-1,0.3c-0.7,0-2.1-0.5-3.5-1.4c1-1.8,1.5-2.9,2.4-2.9C880.3,578.1,881.4,580.9,881.2,582.1z"/>
	<polygon class="st1" points="900.3,573 898.4,571.7 897.2,573.5 899.2,574.8 	"/>
	<polygon class="st1" points="902.5,574.8 903.8,573 901.8,571.7 900.6,573.5 	"/>
	<polygon class="st1" points="901.8,570.3 899.8,568.9 898.6,570.7 900.6,572.1 	"/>
	<path class="st1" d="M907.7,575.9l-1.7,1.2c0.9,2,1.4,3.2,1.2,4.5c-1,0.4-3.2,0.7-5.7,0.7h-1.7c-4.4,0-6.9-0.6-6.9-3.5
		c0-0.6,0.1-1.3,0.2-2.2l-0.2-0.1l-1.4,0.5c-0.2,0.6-0.4,1.7-0.4,2.7c0,3.3,2.9,4.4,8.1,4.4h1.6c2.9,0,5.2-0.3,6.5-1.1
		c1.1-0.6,1.5-1.8,1.5-3c0-0.9-0.4-2.5-1.1-4.2H907.7z"/>
	<polygon class="st1" points="928.1,568.6 926.2,567.3 925,569.1 926.9,570.5 	"/>
	<polygon class="st1" points="926.7,571.3 924.7,570 923.6,571.8 925.5,573.2 	"/>
	<polygon class="st1" points="928.2,570 926.9,571.8 928.9,573.2 930.1,571.3 	"/>
	<path class="st1" d="M927.3,575.9l-1.5,1.2c0.8,1.8,1.5,3.5,1,4.7c-0.5,0.2-1.3,0.3-2.5,0.3h-0.7l0,0c0,0,0,0,0,0
		c-2,0-2.8-0.4-2.8-2.3v-12.1l-0.1-0.1l-1.7,0.4v10.7c-0.2,0.4-0.5,0.7-0.7,1c-1-2-3.4-5.4-6.4-8.1l-0.2,0.1l-0.7,1.9
		c2.8,2.6,4.8,4.7,6.1,7.1c-1.6,1.1-3.6,1.5-5.9,1.6l-0.1,0.1l0.8,1.7c2.7,0,5.3-0.8,7.2-3c0.4,2.3,2,2.9,4.1,2.9c0,0,0,0,0,0l0,0
		h0.7c2.2,0,3.1-0.2,3.8-0.8c0.7-0.7,1.2-1.9,1.2-2.9c0-1-0.5-2.6-1.2-4.3H927.3z"/>
</g>
<path class="st5" d="M1024,43.8h-11.1v-6.6c0-1.7-1.1-3-2.6-3.5c1.4-1.1,2.3-2.9,2.3-4.8c0-3.4-2.8-6.2-6.2-6.2
	c-1,0-1.9,0.2-2.8,0.7c0.4-1.1,0.5-2.2,0.5-3.4c0-6.2-5-11.2-11.2-11.2c-6.2,0-11.2,5-11.2,11.2c0,1.2,0.2,2.4,0.5,3.4
	c-0.8-0.4-1.8-0.7-2.8-0.7c-3.4,0-6.2,2.8-6.2,6.2c0,1.9,0.9,3.6,2.3,4.8c-1.5,0.4-2.6,1.8-2.6,3.5v6.6h-10h-10v-6.6
	c0-1.7-1.1-3-2.6-3.5c1.4-1.1,2.3-2.9,2.3-4.8c0-3.4-2.8-6.2-6.2-6.2c-1,0-1.9,0.2-2.8,0.7c0.4-1.1,0.5-2.2,0.5-3.4
	c0-6.2-5-11.2-11.2-11.2c-6.2,0-11.2,5-11.2,11.2c0,1.2,0.2,2.4,0.5,3.4c-0.8-0.4-1.8-0.7-2.8-0.7c-3.4,0-6.2,2.8-6.2,6.2
	c0,1.9,0.9,3.6,2.3,4.8c-1.5,0.4-2.6,1.8-2.6,3.5v6.6h-10h-10v-6.6c0-1.7-1.1-3-2.6-3.5c1.4-1.1,2.3-2.9,2.3-4.8
	c0-3.4-2.8-6.2-6.2-6.2c-1,0-1.9,0.2-2.8,0.7c0.4-1.1,0.5-2.2,0.5-3.4c0-6.2-5-11.2-11.2-11.2c-6.2,0-11.2,5-11.2,11.2
	c0,1.2,0.2,2.4,0.5,3.4c-0.8-0.4-1.8-0.7-2.8-0.7c-3.4,0-6.2,2.8-6.2,6.2c0,1.9,0.9,3.6,2.3,4.8c-1.5,0.4-2.6,1.8-2.6,3.5v6.6h-10
	h-10v-6.6c0-1.7-1.1-3-2.6-3.5c1.4-1.1,2.3-2.9,2.3-4.8c0-3.4-2.8-6.2-6.2-6.2c-1,0-1.9,0.2-2.8,0.7c0.4-1.1,0.5-2.2,0.5-3.4
	c0-6.2-5-11.2-11.2-11.2c-6.2,0-11.2,5-11.2,11.2c0,1.2,0.2,2.4,0.5,3.4c-0.8-0.4-1.8-0.7-2.8-0.7c-3.4,0-6.2,2.8-6.2,6.2
	c0,1.9,0.9,3.6,2.3,4.8c-1.5,0.4-2.6,1.8-2.6,3.5v6.6h-10h-10v-6.6c0-1.7-1.1-3-2.6-3.5c1.4-1.1,2.3-2.9,2.3-4.8
	c0-3.4-2.8-6.2-6.2-6.2c-1,0-1.9,0.2-2.8,0.7c0.4-1.1,0.5-2.2,0.5-3.4c0-6.2-5-11.2-11.2-11.2c-6.2,0-11.2,5-11.2,11.2
	c0,1.2,0.2,2.4,0.5,3.4c-0.8-0.4-1.8-0.7-2.8-0.7c-3.4,0-6.2,2.8-6.2,6.2c0,1.9,0.9,3.6,2.3,4.8c-1.5,0.4-2.6,1.8-2.6,3.5v6.6h-10
	h-10v-6.6c0-1.7-1.1-3-2.6-3.5c1.4-1.1,2.3-2.9,2.3-4.8c0-3.4-2.8-6.2-6.2-6.2c-1,0-1.9,0.2-2.8,0.7c0.4-1.1,0.5-2.2,0.5-3.4
	c0-6.2-5-11.2-11.2-11.2c-6.2,0-11.2,5-11.2,11.2c0,1.2,0.2,2.4,0.5,3.4c-0.8-0.4-1.8-0.7-2.8-0.7c-3.4,0-6.2,2.8-6.2,6.2
	c0,1.9,0.9,3.6,2.3,4.8c-1.5,0.4-2.6,1.8-2.6,3.5v6.6h-10h-10v-6.6c0-1.7-1.1-3-2.6-3.5c1.4-1.1,2.3-2.9,2.3-4.8
	c0-3.4-2.8-6.2-6.2-6.2c-1,0-1.9,0.2-2.8,0.7c0.4-1.1,0.5-2.2,0.5-3.4c0-6.2-5-11.2-11.2-11.2c-6.2,0-11.2,5-11.2,11.2
	c0,1.2,0.2,2.4,0.5,3.4c-0.8-0.4-1.8-0.7-2.8-0.7c-3.4,0-6.2,2.8-6.2,6.2c0,1.9,0.9,3.6,2.3,4.8c-1.5,0.4-2.6,1.8-2.6,3.5v6.6h-10
	h-10v-6.6c0-1.7-1.1-3-2.6-3.5c1.4-1.1,2.3-2.9,2.3-4.8c0-3.4-2.8-6.2-6.2-6.2c-1,0-1.9,0.2-2.8,0.7c0.4-1.1,0.5-2.2,0.5-3.4
	c0-6.2-5-11.2-11.2-11.2c-6.2,0-11.2,5-11.2,11.2c0,1.2,0.2,2.4,0.5,3.4c-0.8-0.4-1.8-0.7-2.8-0.7c-3.4,0-6.2,2.8-6.2,6.2
	c0,1.9,0.9,3.6,2.3,4.8c-1.5,0.4-2.6,1.8-2.6,3.5v6.6h-10h-10v-6.6c0-1.7-1.1-3-2.6-3.5c1.4-1.1,2.3-2.9,2.3-4.8
	c0-3.4-2.8-6.2-6.2-6.2c-1,0-1.9,0.2-2.8,0.7c0.4-1.1,0.5-2.2,0.5-3.4c0-6.2-5-11.2-11.2-11.2c-6.2,0-11.2,5-11.2,11.2
	c0,1.2,0.2,2.4,0.5,3.4c-0.8-0.4-1.8-0.7-2.8-0.7c-3.4,0-6.2,2.8-6.2,6.2c0,1.9,0.9,3.6,2.3,4.8c-1.5,0.4-2.6,1.8-2.6,3.5v6.6h-10
	h-10v-6.6c0-1.7-1.1-3-2.6-3.5c1.4-1.1,2.3-2.9,2.3-4.8c0-3.4-2.8-6.2-6.2-6.2c-1,0-1.9,0.2-2.8,0.7c0.4-1.1,0.5-2.2,0.5-3.4
	c0-6.2-5-11.2-11.2-11.2c-6.2,0-11.2,5-11.2,11.2c0,1.2,0.2,2.4,0.5,3.4c-0.8-0.4-1.8-0.7-2.8-0.7c-3.4,0-6.2,2.8-6.2,6.2
	c0,1.9,0.9,3.6,2.3,4.8c-1.5,0.4-2.6,1.8-2.6,3.5v6.6h-10h-10v-6.6c0-1.7-1.1-3-2.6-3.5c1.4-1.1,2.3-2.9,2.3-4.8
	c0-3.4-2.8-6.2-6.2-6.2c-1,0-1.9,0.2-2.8,0.7c0.4-1.1,0.5-2.2,0.5-3.4c0-6.2-5-11.2-11.2-11.2c-6.2,0-11.2,5-11.2,11.2
	c0,1.2,0.2,2.4,0.5,3.4c-0.8-0.4-1.8-0.7-2.8-0.7c-3.4,0-6.2,2.8-6.2,6.2c0,1.9,0.9,3.6,2.3,4.8c-1.5,0.4-2.6,1.8-2.6,3.5v6.6h-10
	h-10v-6.6c0-1.7-1.1-3-2.6-3.5c1.4-1.1,2.3-2.9,2.3-4.8c0-3.4-2.8-6.2-6.2-6.2c-1,0-1.9,0.2-2.8,0.7c0.4-1.1,0.5-2.2,0.5-3.4
	c0-6.2-5-11.2-11.2-11.2c-6.2,0-11.2,5-11.2,11.2c0,1.2,0.2,2.4,0.5,3.4c-0.8-0.4-1.8-0.7-2.8-0.7c-3.4,0-6.2,2.8-6.2,6.2
	c0,1.9,0.9,3.6,2.3,4.8c-1.5,0.4-2.6,1.8-2.6,3.5v6.6h-10h-10v-6.6c0-1.7-1.1-3-2.6-3.5c1.4-1.1,2.3-2.9,2.3-4.8
	c0-3.4-2.8-6.2-6.2-6.2c-1,0-1.9,0.2-2.8,0.7c0.4-1.1,0.5-2.2,0.5-3.4c0-6.2-5-11.2-11.2-11.2c-6.2,0-11.2,5-11.2,11.2
	c0,1.2,0.2,2.4,0.5,3.4c-0.8-0.4-1.8-0.7-2.8-0.7c-3.4,0-6.2,2.8-6.2,6.2c0,1.9,0.9,3.6,2.3,4.8c-1.5,0.4-2.6,1.8-2.6,3.5v6.6h-10
	h-10v-6.6c0-1.7-1.1-3-2.6-3.5c1.4-1.1,2.3-2.9,2.3-4.8c0-3.4-2.8-6.2-6.2-6.2c-1,0-1.9,0.2-2.8,0.7c0.4-1.1,0.5-2.2,0.5-3.4
	c0-6.2-5-11.2-11.2-11.2c-6.2,0-11.2,5-11.2,11.2c0,1.2,0.2,2.4,0.5,3.4c-0.8-0.4-1.8-0.7-2.8-0.7c-3.4,0-6.2,2.8-6.2,6.2
	c0,1.9,0.9,3.6,2.3,4.8c-1.5,0.4-2.6,1.8-2.6,3.5v6.6h-10h-10v-6.6c0-1.7-1.1-3-2.6-3.5c1.4-1.1,2.3-2.9,2.3-4.8
	c0-3.4-2.8-6.2-6.2-6.2c-1,0-1.9,0.2-2.8,0.7c0.4-1.1,0.5-2.2,0.5-3.4c0-6.2-5-11.2-11.2-11.2c-6.2,0-11.2,5-11.2,11.2
	c0,1.2,0.2,2.4,0.5,3.4c-0.8-0.4-1.8-0.7-2.8-0.7c-3.4,0-6.2,2.8-6.2,6.2c0,1.9,0.9,3.6,2.3,4.8c-1.5,0.4-2.6,1.8-2.6,3.5v6.6h-10
	h-10v-6.6c0-1.7-1.1-3-2.6-3.5c1.4-1.1,2.3-2.9,2.3-4.8c0-3.4-2.8-6.2-6.2-6.2c-1,0-1.9,0.2-2.8,0.7c0.4-1.1,0.5-2.2,0.5-3.4
	c0-6.2-5-11.2-11.2-11.2c-6.2,0-11.2,5-11.2,11.2c0,1.2,0.2,2.4,0.5,3.4c-0.8-0.4-1.8-0.7-2.8-0.7c-3.4,0-6.2,2.8-6.2,6.2
	c0,1.9,0.9,3.6,2.3,4.8c-1.5,0.4-2.6,1.8-2.6,3.5v6.6h-10h-10v-6.6c0-1.7-1.1-3-2.6-3.5c1.4-1.1,2.3-2.9,2.3-4.8
	c0-3.4-2.8-6.2-6.2-6.2c-1,0-1.9,0.2-2.8,0.7c0.4-1.1,0.5-2.2,0.5-3.4c0-6.2-5-11.2-11.2-11.2c-6.2,0-11.2,5-11.2,11.2
	c0,1.2,0.2,2.4,0.5,3.4c-0.8-0.4-1.8-0.7-2.8-0.7c-3.4,0-6.2,2.8-6.2,6.2c0,1.9,0.9,3.6,2.3,4.8c-1.5,0.4-2.6,1.8-2.6,3.5v6.6H0V0
	h1024V43.8z"/>
<g id="Layer_x0020_1_12_">
	<path class="st6" d="M34.9,719.9l43.9-1.7c0.3,0,0.6,0,1,0c0.7,0.1,1.3,0.4,1.8,0.9c0.5,0.5,0.9,1,0.9,1.7c0,0.2,0,0.5,0,0.8
		l-4.6,20.6c-0.2,0.9-0.6,1.7-1.3,2.2c-0.6,0.5-1.4,0.9-2.4,0.9L39,744.1c-1,0-1.7-0.3-2.4-0.9l0,0c-0.6-0.6-1.1-1.4-1.3-2.2
		l-4.1-17.7c0-0.1,0-0.1,0-0.2c-0.1-0.8,0.3-1.5,0.9-2.1c0.6-0.5,1.4-0.8,2.3-1C34.6,719.9,34.8,719.9,34.9,719.9z M76.9,720.9
		l-42,1.5c-0.1,0-0.2,0-0.3,0c-0.6,0.1-1.1,0.3-1.5,0.7c-0.3,0.3-0.6,0.7-0.5,1.1c0,0,0,0.1,0,0.1l3.8,16.5c0.1,0.6,0.4,1.2,0.9,1.6
		c0.4,0.3,0.8,0.5,1.4,0.5l34,1.2c0.6,0,1-0.2,1.4-0.5c0.4-0.4,0.7-0.9,0.9-1.6l4.3-19.3c0-0.1,0-0.3,0-0.4c0-0.3-0.2-0.7-0.5-0.9
		c-0.3-0.3-0.7-0.5-1.1-0.5C77.2,720.9,77.1,720.9,76.9,720.9z"/>
	<path class="st6" d="M41.9,724.6l12.9-1.4c0.1,0,0.3,0,0.4,0c0.3,0.1,0.6,0.2,0.8,0.4c0.2,0.2,0.4,0.5,0.4,0.8c0,0.1,0,0.2,0,0.3
		l-2.1,9.6c-0.1,0.4-0.3,0.8-0.6,1c-0.3,0.2-0.6,0.4-1.1,0.4h-8.9c-0.4,0-0.8-0.2-1.1-0.4h0c-0.3-0.3-0.5-0.6-0.6-1l-1.9-8.2
		c0,0,0-0.1,0-0.1c-0.1-0.4,0.1-0.7,0.4-1c0.3-0.2,0.7-0.4,1-0.5C41.8,724.6,41.9,724.6,41.9,724.6z M53.9,724.5l-12,1.3
		c0,0-0.1,0-0.1,0c-0.3,0-0.5,0.2-0.7,0.3c-0.2,0.1-0.3,0.3-0.2,0.5c0,0,0,0,0,0l1.8,7.6c0.1,0.3,0.2,0.5,0.4,0.7
		c0.2,0.1,0.4,0.2,0.6,0.2h8.3c0.3,0,0.5-0.1,0.6-0.2c0.2-0.2,0.3-0.4,0.4-0.7l2-8.9c0-0.1,0-0.1,0-0.2c0-0.2-0.1-0.3-0.2-0.4
		c-0.1-0.1-0.3-0.2-0.5-0.2C54.1,724.5,54,724.5,53.9,724.5z"/>
	<g id="_1849662416_12_">
		<path class="st7" d="M60.4,736.8l0.4-0.7l-0.7-0.4l0.4-0.7L59,734l-0.9,1.5l0,0c0.3,0.1,0.5,0.3,0.7,0.4l-0.4,0.7l0.7,0.4
			l-0.8,1.5l0.7,0.4c-0.2,0.5-0.6,1.1-0.9,1.5l0,0c0.2,0.1,0.4,0.2,0.5,0.3c0.3,0.1,0.2,0.1,0,0.5c-0.2,0.4-0.4,0.8-0.7,1.1l0.7,0.4
			c0,0.2-0.7,1.2-0.8,1.5l5.9,3.4l0.9-1.5l0.8,0.4l1.3-2.2l0.7,0.4l3-5.2c-0.1-0.1-0.7-0.4-0.7-0.5c0-0.2,0.4-0.6,0.4-0.7
			c-0.1-0.1-0.5-0.4-0.7-0.4l-1.3,2.2l-0.7-0.4l1.7-3l-1.5-0.9l-1.3,2.2l-0.7-0.4l1.7-2.9c-0.1-0.1-1.3-0.8-1.5-0.9l-1.7,3l-0.7-0.4
			c0-0.1,0.1-0.1,0.1-0.2c1.2-2.1,2.5-4.3,3.7-6.5l-1.5-0.8l-4.7,8.1C60.9,737.1,60.4,736.8,60.4,736.8L60.4,736.8z"/>
		<path class="st8" d="M58.2,740.5c-0.1,0.1-0.1,0.2-0.2,0.3l-0.7,1.1c0.1,0.1,0.2,0.1,0.4,0.2c0.1,0.1,0.2,0.1,0.3,0.2
			c-0.4,0.8-0.8,1.5-1.2,2.2c0.6,0.4,1.2,0.7,1.8,1.1l3.7,2.2c0.6,0.4,1.2,0.7,1.9,1.1c0.1-0.2,0.1-0.3,0.3-0.5
			c0.1-0.2,0.4-0.6,0.5-0.9c0.1-0.1,0.1-0.1,0.2-0.3c0.1-0.2,0.2-0.4,0.3-0.6c0.1,0.2,0.5,0.3,0.7,0.4c0.4-0.7,0.8-1.4,1.3-2.2
			c0.2,0.1,0.4,0.2,0.6,0.3c0.1,0.1,0.1,0.1,0.2,0c0.2-0.3,0.3-0.6,0.5-0.9c0.3-0.6,0.7-1.1,1-1.7l1.4-2.5c-0.2-0.1-0.6-0.3-0.7-0.4
			l-3,5.2l-0.7-0.4l-1.3,2.2l-0.8-0.4l-0.9,1.5l-5.9-3.4c0.1-0.3,0.8-1.3,0.8-1.5l-0.7-0.4c0.2-0.4,0.4-0.8,0.7-1.1
			c0.2-0.4,0.2-0.3,0-0.5C58.6,740.7,58.4,740.6,58.2,740.5z"/>
		<path class="st8" d="M60.5,734.9l-0.4,0.7l0.7,0.4l-0.4,0.7l0.7,0.4l4.7-8.1l-0.7-0.4c0,0,0,0,0,0l0,0c0,0,0,0,0,0l-3.8,6.6
			C61,735.1,60.8,735,60.5,734.9z"/>
		<path class="st8" d="M67.3,729.9l-3.9,6.6l0.7,0.4l1.7-3c0.2,0,1.4,0.8,1.5,0.9c0.2,0.2,1.6,0.9,1.9,1.1c0,0,0.1,0-0.1-0.1
			l-1.5-0.8c-0.4-0.2-0.3-0.1,0.1-0.9l-1.1-0.6c-0.1-0.1-0.2-0.1-0.3-0.2l1.7-2.9c-0.2-0.1-0.3-0.2-0.6-0.4
			C67.4,729.9,67.4,730,67.3,729.9z"/>
		<path class="st8" d="M69.2,736.9l0.4-0.7c-0.1-0.1-0.2-0.2-0.4-0.2c-0.3-0.2-1.7-0.9-1.9-1.1l-1.7,2.9l0.7,0.4l1.3-2.2L69.2,736.9
			z"/>
		<path class="st8" d="M58.2,735.5c-0.1,0.1-0.1,0.1-0.2,0.3c-0.1,0.1-0.1,0.3-0.2,0.4l0.7,0.4c-0.1,0.2-0.7,1.3-0.8,1.5l0.7,0.4
			l-0.6,1.1c-0.1,0.2-0.1,0.2-0.2,0.4l0.7,0.4c0.3-0.4,0.7-1,0.9-1.5l-0.7-0.4l0.8-1.5l-0.7-0.4l0.4-0.7
			C58.7,735.8,58.4,735.6,58.2,735.5z"/>
		<path class="st8" d="M58.2,735.5L59,734l1.5,0.8l0.2-0.4c0.1-0.1,0.1-0.2,0.2-0.4l-2-1.1c-0.3-0.2-0.2-0.2-0.5,0.2l-0.9,1.6
			c-0.1,0.2-0.2,0.2,0,0.3C57.6,735.2,58,735.5,58.2,735.5z"/>
		<path class="st8" d="M70.2,738.5c0.1,0,0,0,0.1-0.1c0,0,0.1-0.1,0.1-0.1c0-0.2,0.2-0.4,0.3-0.6l-1.5-0.8l-1.7,3l0.7,0.4l1.3-2.2
			C69.7,738.2,70.1,738.4,70.2,738.5z"/>
		<path class="st8" d="M67.3,729.9c0.1-0.2,0.3-0.5,0.4-0.7l-1.5-0.8l-0.4,0.7L67.3,729.9z"/>
		<path class="st8" d="M70.2,738.5c0,0.2-0.4,0.6-0.4,0.7c0,0.1,0.6,0.4,0.7,0.5c0.2,0.1,0.5,0.3,0.7,0.4l-1.4,2.5l1.5-2.5l-0.7-0.4
			c0.1-0.1,0.1-0.2,0.2-0.4c0.1-0.1,0.2-0.3,0.2-0.4c-0.8-0.5-0.8-0.3-0.6-0.6c0,0-0.1,0.1-0.1,0.1
			C70.2,738.5,70.3,738.5,70.2,738.5z"/>
	</g>
	<path class="st6" d="M94.9,736.7h-2.5l2.1-7.2l-4.3,7.2h-2.6l-0.5-7.3l-1.8,7.3h-2.6l2.9-10.9h3.5l0.5,7.7l4.6-7.7h3.5L94.9,736.7z
		 M104.4,736.7h-5.6c-0.8,0-1.3-0.2-1.7-0.6c-0.4-0.4-0.4-1-0.2-1.8c0.3-0.9,0.7-1.6,1.3-2c0.6-0.4,1.5-0.6,2.6-0.6h2.5
		c0.1-0.4,0.1-0.7-0.1-0.8c-0.2-0.2-0.6-0.2-1.3-0.2h-3.6l0.5-2h4.3c1.1,0,1.9,0.3,2.3,0.8c0.4,0.5,0.5,1.3,0.2,2.3L104.4,736.7z
		 M102.4,734.8l0.3-1.2h-2.2c-0.4,0-0.7,0-0.9,0.1c-0.2,0.1-0.3,0.3-0.3,0.5c-0.1,0.2-0.1,0.3,0,0.4c0,0,0.1,0.1,0.2,0.1
		c0.1,0,0.3,0,0.5,0H102.4z M113.2,736.7h-2.4l1.3-4.9c0.1-0.5,0.2-0.8,0-1c-0.1-0.1-0.4-0.2-0.9-0.2h-1.4l-1.6,6.1h-2.4l2.2-8.1h4
		c1.2,0,2,0.2,2.4,0.7c0.4,0.5,0.5,1.2,0.2,2.3L113.2,736.7z M121.9,736.7h-2.4l1.3-4.9c0.1-0.5,0.1-0.8,0-0.9
		c-0.1-0.1-0.2-0.1-0.3-0.2c-0.1,0-0.3-0.1-0.6-0.1l-1.4,0l-1.6,6.1h-2.4l2.9-10.9h2.4l-0.8,2.8h1.6c1.2,0,2,0.2,2.4,0.7
		c0.4,0.5,0.5,1.2,0.2,2.3L121.9,736.7z M131.2,736.7h-5.6c-0.8,0-1.3-0.2-1.7-0.6c-0.4-0.4-0.4-1-0.2-1.8c0.3-0.9,0.7-1.6,1.3-2
		c0.6-0.4,1.5-0.6,2.6-0.6h2.5c0.1-0.4,0.1-0.7-0.1-0.8c-0.2-0.2-0.6-0.2-1.3-0.2h-3.6l0.5-2h4.3c1.1,0,1.9,0.3,2.3,0.8
		c0.4,0.5,0.5,1.3,0.2,2.3L131.2,736.7z M129.2,734.8l0.3-1.2h-2.2c-0.4,0-0.7,0-0.9,0.1c-0.2,0.1-0.3,0.3-0.3,0.5
		c-0.1,0.2,0,0.3,0,0.4c0,0,0.1,0.1,0.2,0.1c0.1,0,0.3,0,0.5,0H129.2z M135,736.7h-2.5l2.9-10.9h2.5L135,736.7z M140.7,736.7h-2.1
		l0.6-2.2h2.1L140.7,736.7z M148.4,736.7h-2.9c-0.4,0-0.7,0-1-0.1c-0.3,0-0.5-0.1-0.8-0.2c-0.4-0.1-0.8-0.4-1-0.8
		c-0.1-0.2-0.2-0.4-0.3-0.6c-0.1-0.2-0.2-0.5-0.2-0.7c0-0.3,0-0.5,0-0.8c0-0.3,0.1-0.6,0.2-0.9c0.2-0.6,0.4-1.2,0.8-1.7
		c0.3-0.5,0.7-1,1.3-1.4c0.4-0.3,0.9-0.6,1.4-0.7c0.5-0.2,1.1-0.2,1.9-0.2h2.9l-0.5,2h-2.3c-0.5,0-0.9,0-1.2,0.1
		c-0.3,0.1-0.6,0.2-0.8,0.4c-0.4,0.3-0.7,0.8-0.9,1.6c-0.1,0.4-0.1,0.8-0.1,1.1c0.1,0.3,0.1,0.6,0.4,0.7l0.4,0.2c0.1,0,0.3,0,0.4,0
		c0.1,0,0.4,0,0.6,0h2.3L148.4,736.7z M158.5,732.6c-0.3,1.3-1,2.3-2,3.1c-1,0.8-2.1,1.1-3.4,1.1c-1.3,0-2.2-0.4-2.8-1.1
		c-0.6-0.8-0.7-1.8-0.3-3.1c0.3-1.3,1-2.3,2-3c1-0.8,2.1-1.1,3.4-1.1c1.3,0,2.2,0.4,2.8,1.1C158.7,730.3,158.9,731.4,158.5,732.6z
		 M156,732.6c0.2-0.7,0.1-1.2-0.1-1.6c-0.2-0.4-0.6-0.6-1.1-0.6c-0.5,0-1,0.2-1.4,0.6c-0.4,0.4-0.7,0.9-0.9,1.6
		c-0.1,0.4-0.1,0.7-0.1,0.9c0,0.3,0.1,0.5,0.2,0.7c0.2,0.4,0.6,0.6,1.1,0.6c0.6,0,1-0.2,1.4-0.6C155.5,733.9,155.8,733.3,156,732.6z
		 M169.7,736.7h-2.4l1.3-4.9c0.1-0.5,0.2-0.8,0.1-1c-0.1-0.2-0.4-0.2-0.9-0.2l-0.9,0l-1.6,6.1h-2.4l1.6-6.1h-2l-1.6,6.1h-2.4
		l2.2-8.1h8c1.2,0,2,0.2,2.4,0.7c0.4,0.5,0.5,1.2,0.2,2.3L169.7,736.7z"/>
	<path class="st6" d="M27.9,728.6l21.2-2.2c0.2,0,0.5,0,0.7,0c0.5,0.1,1,0.3,1.4,0.7c0.4,0.3,0.6,0.8,0.7,1.3c0,0.2,0,0.4,0,0.6
		l-3.7,9.6c-0.1,0.7-0.5,1.3-1,1.7c-0.5,0.4-1.1,0.7-1.8,0.7H30.9c-0.7,0-1.3-0.3-1.8-0.7h0c-0.5-0.4-0.8-1.1-1-1.7l-2.9-7.4
		c0-0.1,0-0.1,0-0.2c-0.1-0.6,0.2-1.2,0.7-1.6c0.5-0.4,1.1-0.6,1.7-0.8C27.7,728.7,27.8,728.6,27.9,728.6z M47.6,728.5l-19.8,2.1
		c-0.1,0-0.2,0-0.2,0c-0.4,0.1-0.9,0.3-1.2,0.5c-0.3,0.2-0.4,0.5-0.4,0.8c0,0,0,0.1,0,0.1l2.7,6.5c0.1,0.5,0.3,0.9,0.7,1.2
		c0.3,0.2,0.6,0.4,1,0.4h13.6c0.4,0,0.8-0.1,1-0.4c0.3-0.3,0.5-0.7,0.7-1.2l3.4-8.6c0-0.1,0-0.2,0-0.3c0-0.3-0.2-0.5-0.4-0.7
		c-0.2-0.2-0.5-0.4-0.8-0.4C47.9,728.5,47.8,728.5,47.6,728.5z"/>
	<path class="st6" d="M87.6,722.3l-0.5,1.7h-0.6l1.2-4.5H89c0.3,0,0.5,0,0.7,0.1c0.2,0.1,0.3,0.2,0.4,0.3c0.1,0.1,0.2,0.3,0.2,0.4
		c0,0.2,0,0.4-0.1,0.6c-0.1,0.2-0.1,0.4-0.3,0.6c-0.1,0.2-0.3,0.3-0.4,0.4c-0.2,0.1-0.4,0.2-0.6,0.3c-0.2,0.1-0.5,0.1-0.7,0.1H87.6z
		 M87.7,721.9h0.7c0.2,0,0.3,0,0.5-0.1c0.1,0,0.3-0.1,0.4-0.2c0.1-0.1,0.2-0.2,0.3-0.3c0.1-0.1,0.1-0.2,0.2-0.4
		c0.1-0.3,0.1-0.5-0.1-0.7c-0.1-0.2-0.4-0.2-0.7-0.2h-0.7L87.7,721.9z"/>
	<path id="_x31__12_" class="st6" d="M92.3,720.8c0.2,0,0.4,0,0.6,0.1c0.2,0.1,0.3,0.2,0.4,0.3c0.1,0.1,0.1,0.3,0.2,0.5
		c0,0.2,0,0.4-0.1,0.7c-0.1,0.2-0.2,0.5-0.3,0.7c-0.1,0.2-0.3,0.4-0.4,0.5c-0.2,0.1-0.4,0.3-0.6,0.3c-0.2,0.1-0.4,0.1-0.7,0.1
		c-0.2,0-0.4,0-0.6-0.1c-0.2-0.1-0.3-0.2-0.4-0.3c-0.1-0.1-0.1-0.3-0.2-0.5c0-0.2,0-0.4,0.1-0.7c0.1-0.3,0.2-0.5,0.3-0.7
		c0.1-0.2,0.3-0.4,0.4-0.5c0.2-0.1,0.4-0.3,0.6-0.3C91.8,720.8,92,720.8,92.3,720.8z M91.5,723.6c0.3,0,0.6-0.1,0.8-0.3
		c0.2-0.2,0.4-0.5,0.5-0.9c0.1-0.4,0.1-0.7,0-0.9c-0.1-0.2-0.3-0.3-0.6-0.3c-0.2,0-0.3,0-0.4,0.1c-0.1,0.1-0.2,0.1-0.4,0.2
		c-0.1,0.1-0.2,0.2-0.3,0.4c-0.1,0.1-0.1,0.3-0.2,0.5c0,0.2-0.1,0.4-0.1,0.5c0,0.1,0,0.3,0.1,0.4c0.1,0.1,0.1,0.2,0.2,0.2
		C91.2,723.6,91.3,723.6,91.5,723.6z"/>
	<path id="_x32__12_" class="st6" d="M94,720.8h0.4c0,0,0.1,0,0.1,0c0,0,0,0,0,0.1l0.1,2c0,0.1,0,0.1,0,0.2c0,0.1,0,0.1,0,0.2
		c0-0.1,0.1-0.1,0.1-0.2c0-0.1,0.1-0.1,0.1-0.2l1.2-2.1c0,0,0-0.1,0.1-0.1c0,0,0.1,0,0.1,0h0.2c0,0,0.1,0,0.1,0c0,0,0,0,0,0.1
		l0.1,2.1c0,0.1,0,0.1,0,0.2c0,0.1,0,0.1,0,0.2c0-0.1,0.1-0.1,0.1-0.2c0-0.1,0.1-0.1,0.1-0.2l1.2-2c0,0,0-0.1,0.1-0.1
		c0,0,0.1,0,0.1,0h0.4l-1.9,3.2h-0.4c-0.1,0-0.1,0-0.1-0.1l-0.1-2.2c0,0,0-0.1,0-0.1c0-0.1,0-0.1,0-0.1c0,0,0,0.1-0.1,0.1
		c0,0,0,0.1-0.1,0.1l-1.3,2.2c0,0.1-0.1,0.1-0.2,0.1h-0.4L94,720.8z"/>
	<path id="_x33__12_" class="st6" d="M100.5,720.8c0.2,0,0.4,0,0.5,0.1c0.1,0.1,0.3,0.2,0.3,0.3c0.1,0.1,0.1,0.3,0.2,0.4
		c0,0.2,0,0.4-0.1,0.6c0,0.1,0,0.1-0.1,0.2c0,0-0.1,0-0.1,0h-2.1c-0.1,0.2-0.1,0.4-0.1,0.5c0,0.1,0,0.3,0.1,0.4
		c0.1,0.1,0.1,0.2,0.3,0.2c0.1,0,0.2,0.1,0.4,0.1c0.1,0,0.3,0,0.4,0c0.1,0,0.2-0.1,0.3-0.1c0.1,0,0.2-0.1,0.2-0.1
		c0.1,0,0.1-0.1,0.1-0.1c0,0,0.1,0,0.1,0.1l0.1,0.2c-0.1,0.1-0.2,0.2-0.3,0.2c-0.1,0.1-0.2,0.1-0.3,0.2c-0.1,0-0.2,0.1-0.4,0.1
		c-0.1,0-0.2,0-0.4,0c-0.2,0-0.4,0-0.6-0.1c-0.2-0.1-0.3-0.2-0.4-0.3c-0.1-0.1-0.2-0.3-0.2-0.5c0-0.2,0-0.5,0.1-0.7
		c0.1-0.2,0.1-0.4,0.3-0.6c0.1-0.2,0.3-0.4,0.4-0.5c0.2-0.1,0.4-0.3,0.6-0.3C100.1,720.8,100.3,720.8,100.5,720.8z M100.4,721.2
		c-0.3,0-0.5,0.1-0.7,0.2c-0.2,0.2-0.4,0.4-0.5,0.6h1.7c0-0.1,0.1-0.2,0-0.4c0-0.1,0-0.2-0.1-0.3c0-0.1-0.1-0.1-0.2-0.2
		C100.7,721.2,100.6,721.2,100.4,721.2z"/>
	<path id="_x34__12_" class="st6" d="M101.7,724l0.9-3.2h0.3c0.1,0,0.1,0,0.1,0c0,0,0,0.1,0,0.1l-0.1,0.5c0.2-0.2,0.4-0.4,0.5-0.5
		c0.2-0.1,0.4-0.2,0.6-0.2c0.1,0,0.2,0,0.2,0c0.1,0,0.1,0,0.2,0.1l-0.2,0.4c0,0.1-0.1,0.1-0.1,0.1c0,0-0.1,0-0.1,0
		c-0.1,0-0.1,0-0.2,0c-0.2,0-0.4,0.1-0.5,0.2c-0.2,0.1-0.3,0.3-0.5,0.5l-0.5,2H101.7z"/>
	<path id="_x35__12_" class="st6" d="M106.3,720.8c0.2,0,0.4,0,0.5,0.1c0.1,0.1,0.3,0.2,0.3,0.3c0.1,0.1,0.1,0.3,0.2,0.4
		c0,0.2,0,0.4-0.1,0.6c0,0.1,0,0.1-0.1,0.2c0,0-0.1,0-0.1,0H105c-0.1,0.2-0.1,0.4-0.1,0.5c0,0.1,0,0.3,0.1,0.4
		c0.1,0.1,0.1,0.2,0.3,0.2c0.1,0,0.2,0.1,0.4,0.1c0.1,0,0.3,0,0.4,0c0.1,0,0.2-0.1,0.3-0.1c0.1,0,0.2-0.1,0.2-0.1
		c0.1,0,0.1-0.1,0.1-0.1c0,0,0.1,0,0.1,0.1l0.1,0.2c-0.1,0.1-0.2,0.2-0.3,0.2c-0.1,0.1-0.2,0.1-0.3,0.2c-0.1,0-0.2,0.1-0.4,0.1
		c-0.1,0-0.2,0-0.4,0c-0.2,0-0.4,0-0.6-0.1c-0.2-0.1-0.3-0.2-0.4-0.3s-0.2-0.3-0.2-0.5c0-0.2,0-0.5,0.1-0.7c0.1-0.2,0.2-0.4,0.3-0.6
		c0.1-0.2,0.3-0.4,0.4-0.5c0.2-0.1,0.4-0.3,0.6-0.3C105.9,720.8,106.1,720.8,106.3,720.8z M106.2,721.2c-0.3,0-0.5,0.1-0.7,0.2
		c-0.2,0.2-0.4,0.4-0.5,0.6h1.7c0-0.1,0-0.2,0-0.4c0-0.1,0-0.2-0.1-0.3c0-0.1-0.1-0.1-0.2-0.2C106.5,721.2,106.4,721.2,106.2,721.2z
		"/>
	<path id="_x36__12_" class="st6" d="M109.7,724c-0.1,0-0.1,0-0.1-0.1l0.1-0.4c-0.2,0.2-0.4,0.3-0.6,0.4c-0.2,0.1-0.4,0.1-0.6,0.1
		c-0.2,0-0.3,0-0.5-0.1c-0.1-0.1-0.2-0.2-0.3-0.3c-0.1-0.1-0.1-0.3-0.1-0.5c0-0.2,0-0.4,0.1-0.7c0.1-0.2,0.2-0.5,0.3-0.7
		c0.1-0.2,0.3-0.4,0.4-0.5c0.2-0.2,0.3-0.3,0.5-0.4c0.2-0.1,0.4-0.1,0.6-0.1c0.2,0,0.4,0,0.5,0.1c0.1,0.1,0.2,0.2,0.3,0.3l0.5-1.8
		h0.6l-1.2,4.6H109.7z M108.8,723.6c0.2,0,0.4,0,0.5-0.1c0.2-0.1,0.3-0.2,0.5-0.4l0.4-1.5c-0.1-0.1-0.2-0.2-0.3-0.3
		c-0.1-0.1-0.2-0.1-0.4-0.1c-0.3,0-0.6,0.1-0.8,0.3c-0.2,0.2-0.4,0.5-0.5,0.9c-0.1,0.2-0.1,0.4-0.1,0.5c0,0.1,0,0.3,0.1,0.4
		c0,0.1,0.1,0.2,0.2,0.2C108.5,723.6,108.6,723.6,108.8,723.6z"/>
	<path id="_x37__12_" class="st6" d="M112.2,724l1.2-4.6h0.6l-0.5,1.9c0.2-0.2,0.4-0.3,0.6-0.4c0.2-0.1,0.4-0.1,0.6-0.1
		c0.2,0,0.3,0,0.5,0.1c0.1,0.1,0.2,0.2,0.3,0.3c0.1,0.1,0.1,0.3,0.1,0.5c0,0.2,0,0.4-0.1,0.7c-0.1,0.2-0.2,0.5-0.3,0.7
		c-0.1,0.2-0.3,0.4-0.4,0.5c-0.2,0.1-0.3,0.3-0.5,0.3c-0.2,0.1-0.4,0.1-0.6,0.1c-0.2,0-0.4,0-0.5-0.1c-0.1-0.1-0.2-0.2-0.3-0.3
		l-0.1,0.3c0,0.1-0.1,0.1-0.2,0.1H112.2z M114.4,721.2c-0.2,0-0.4,0-0.5,0.1c-0.2,0.1-0.3,0.2-0.5,0.4l-0.4,1.5
		c0.1,0.1,0.1,0.2,0.3,0.3c0.1,0.1,0.2,0.1,0.4,0.1c0.3,0,0.6-0.1,0.8-0.3c0.2-0.2,0.4-0.5,0.5-0.9c0.1-0.2,0.1-0.4,0.1-0.5
		c0-0.1,0-0.3-0.1-0.4c0-0.1-0.1-0.2-0.2-0.2C114.6,721.3,114.5,721.2,114.4,721.2z"/>
	<path id="_x38__12_" class="st6" d="M116.3,725c0,0-0.1,0.1-0.1,0.1c0,0-0.1,0-0.1,0h-0.4l0.9-1.2l-0.5-3h0.5c0,0,0.1,0,0.1,0
		c0,0,0,0,0,0.1l0.3,2c0,0,0,0.1,0,0.1c0,0,0,0.1,0,0.1c0,0,0.1-0.1,0.1-0.1c0,0,0.1-0.1,0.1-0.1l1.4-2c0,0,0.1-0.1,0.1-0.1
		c0,0,0.1,0,0.1,0h0.4L116.3,725z"/>
	<path id="_x39__12_" class="st6" d="M118.9,723.7c0-0.1,0-0.1,0.1-0.2c0-0.1,0.1-0.1,0.1-0.1c0,0,0.1-0.1,0.1-0.1
		c0.1,0,0.1,0,0.2,0c0.1,0,0.1,0,0.1,0c0,0,0.1,0,0.1,0.1c0,0,0,0.1,0.1,0.1c0,0,0,0.1,0,0.2c0,0.1,0,0.1-0.1,0.2
		c0,0-0.1,0.1-0.1,0.1c0,0-0.1,0.1-0.1,0.1c-0.1,0-0.1,0-0.2,0c-0.1,0-0.1,0-0.1,0c0,0-0.1,0-0.1-0.1c0,0,0-0.1,0-0.1
		C118.9,723.8,118.9,723.7,118.9,723.7z M119.5,721.3c0-0.1,0-0.1,0.1-0.2c0,0,0.1-0.1,0.1-0.1c0,0,0.1-0.1,0.1-0.1
		c0.1,0,0.1,0,0.2,0c0.1,0,0.1,0,0.1,0c0,0,0.1,0,0.1,0.1c0,0,0,0.1,0.1,0.1c0,0,0,0.1,0,0.2c0,0.1,0,0.1-0.1,0.2
		c0,0-0.1,0.1-0.1,0.1c0,0-0.1,0.1-0.1,0.1c-0.1,0-0.1,0-0.2,0c-0.1,0-0.1,0-0.1,0c0,0-0.1,0-0.1-0.1c0,0,0-0.1,0-0.1
		C119.5,721.4,119.5,721.4,119.5,721.3z"/>
	<path class="st6" d="M126,739.1l-0.1,0.5h-2.3l-0.4,1.6h1.8l-0.1,0.5H123l-0.4,1.6h2.3l-0.1,0.5h-2.9l1.3-4.8H126z M126,741.6h1.6
		l-0.1,0.5h-1.6L126,741.6z M128.7,743.3h2.1l-0.1,0.5h-2.7l1.3-4.8h0.6L128.7,743.3z M133.4,740.4c0.2,0,0.4,0,0.5,0.1
		c0.2,0.1,0.3,0.2,0.4,0.3c0.1,0.1,0.1,0.3,0.2,0.5c0,0.2,0,0.4-0.1,0.6c0,0.1-0.1,0.2-0.1,0.2c0,0-0.1,0-0.1,0h-2.2
		c-0.1,0.2-0.1,0.4-0.1,0.6c0,0.2,0,0.3,0.1,0.4c0.1,0.1,0.2,0.2,0.3,0.2c0.1,0.1,0.3,0.1,0.4,0.1c0.1,0,0.3,0,0.4-0.1
		c0.1,0,0.2-0.1,0.3-0.1c0.1,0,0.2-0.1,0.2-0.1c0.1,0,0.1-0.1,0.1-0.1c0,0,0.1,0,0.1,0.1l0.1,0.2c-0.1,0.1-0.2,0.2-0.3,0.2
		c-0.1,0.1-0.2,0.1-0.4,0.2c-0.1,0-0.3,0.1-0.4,0.1c-0.1,0-0.3,0-0.4,0c-0.2,0-0.4,0-0.6-0.1c-0.2-0.1-0.3-0.2-0.4-0.3
		c-0.1-0.2-0.2-0.3-0.2-0.6c0-0.2,0-0.5,0.1-0.8c0.1-0.2,0.2-0.5,0.3-0.7c0.1-0.2,0.3-0.4,0.5-0.5c0.2-0.1,0.4-0.3,0.6-0.4
		C132.9,740.5,133.2,740.4,133.4,740.4z M133.3,740.9c-0.3,0-0.5,0.1-0.7,0.2c-0.2,0.2-0.4,0.4-0.5,0.7h1.8c0-0.1,0.1-0.3,0-0.4
		c0-0.1,0-0.2-0.1-0.3c-0.1-0.1-0.1-0.1-0.2-0.2C133.5,740.9,133.4,740.9,133.3,740.9z M137.1,743.9h-0.3c-0.1,0-0.1,0-0.1,0
		c0,0,0-0.1,0-0.1l0-0.3c-0.1,0.1-0.2,0.2-0.3,0.2c-0.1,0.1-0.2,0.1-0.3,0.2c-0.1,0-0.2,0.1-0.3,0.1c-0.1,0-0.2,0-0.4,0
		c-0.1,0-0.2,0-0.4-0.1c-0.1,0-0.2-0.1-0.3-0.2c-0.1-0.1-0.1-0.2-0.1-0.3c0-0.1,0-0.2,0-0.4c0-0.1,0.1-0.3,0.2-0.4
		c0.1-0.1,0.3-0.2,0.4-0.3c0.2-0.1,0.4-0.2,0.7-0.2c0.3-0.1,0.6-0.1,1-0.1l0.1-0.3c0.1-0.3,0.1-0.5,0-0.6c-0.1-0.1-0.2-0.2-0.4-0.2
		c-0.1,0-0.3,0-0.4,0.1c-0.1,0-0.2,0.1-0.3,0.1c-0.1,0-0.2,0.1-0.2,0.1c-0.1,0-0.1,0.1-0.2,0.1c0,0-0.1,0-0.1,0c0,0,0,0-0.1-0.1
		l-0.1-0.2c0.2-0.2,0.5-0.3,0.7-0.4c0.2-0.1,0.5-0.1,0.8-0.1c0.2,0,0.3,0,0.5,0.1c0.1,0.1,0.2,0.1,0.3,0.3c0.1,0.1,0.1,0.2,0.1,0.4
		c0,0.2,0,0.3-0.1,0.5L137.1,743.9z M135.7,743.5c0.1,0,0.2,0,0.3,0s0.2-0.1,0.3-0.1c0.1,0,0.2-0.1,0.3-0.1c0.1-0.1,0.2-0.1,0.3-0.2
		l0.2-0.7c-0.3,0-0.5,0-0.7,0.1c-0.2,0-0.4,0.1-0.5,0.1c-0.1,0.1-0.2,0.1-0.3,0.2c-0.1,0.1-0.1,0.2-0.1,0.3c0,0.1,0,0.2,0,0.2
		c0,0.1,0,0.1,0.1,0.2c0,0,0.1,0.1,0.1,0.1C135.5,743.5,135.6,743.5,135.7,743.5z M138,743.9l0.9-3.4h0.3c0.1,0,0.1,0,0.1,0
		c0,0,0,0.1,0,0.1l-0.1,0.6c0.2-0.2,0.4-0.4,0.6-0.6c0.2-0.1,0.4-0.2,0.6-0.2c0.1,0,0.2,0,0.2,0c0.1,0,0.1,0.1,0.2,0.1l-0.2,0.4
		c0,0.1-0.1,0.1-0.1,0.1c0,0-0.1,0-0.1,0c-0.1,0-0.1,0-0.3,0c-0.2,0-0.4,0.1-0.6,0.2c-0.2,0.1-0.3,0.3-0.5,0.5l-0.6,2.1H138z
		 M140.7,743.9l0.9-3.4h0.4c0.1,0,0.1,0,0.1,0.1L142,741c0.2-0.2,0.4-0.3,0.6-0.4c0.2-0.1,0.4-0.2,0.7-0.2c0.2,0,0.3,0,0.5,0.1
		c0.1,0.1,0.2,0.1,0.3,0.3c0.1,0.1,0.1,0.2,0.1,0.4c0,0.2,0,0.3-0.1,0.5l-0.6,2.1h-0.6l0.6-2.1c0.1-0.3,0.1-0.5,0-0.6
		c-0.1-0.1-0.2-0.2-0.5-0.2c-0.2,0-0.3,0-0.5,0.1c-0.2,0.1-0.3,0.2-0.5,0.3l-0.7,2.5H140.7z M145.9,740.5l-0.9,3.4h-0.6l0.9-3.4
		H145.9z M146.3,739.4c0,0.1,0,0.1-0.1,0.2c0,0-0.1,0.1-0.1,0.1c0,0-0.1,0.1-0.2,0.1c-0.1,0-0.1,0-0.2,0c-0.1,0-0.1,0-0.2,0
		c0,0-0.1-0.1-0.1-0.1c0,0,0-0.1-0.1-0.1c0,0,0-0.1,0-0.2c0-0.1,0-0.1,0.1-0.2c0-0.1,0.1-0.1,0.1-0.1c0,0,0.1-0.1,0.2-0.1
		c0.1,0,0.1,0,0.2,0c0.1,0,0.1,0,0.2,0c0,0,0.1,0.1,0.1,0.1c0,0,0,0.1,0.1,0.1C146.4,739.3,146.4,739.4,146.3,739.4z M146.1,743.9
		l0.9-3.4h0.4c0.1,0,0.1,0,0.1,0.1l-0.1,0.4c0.2-0.2,0.4-0.3,0.6-0.4c0.2-0.1,0.4-0.2,0.7-0.2c0.2,0,0.3,0,0.5,0.1
		c0.1,0.1,0.2,0.1,0.3,0.3c0.1,0.1,0.1,0.2,0.1,0.4c0,0.2,0,0.3-0.1,0.5l-0.6,2.1h-0.6l0.6-2.1c0.1-0.3,0.1-0.5,0-0.6
		c-0.1-0.1-0.2-0.2-0.5-0.2c-0.2,0-0.3,0-0.5,0.1c-0.2,0.1-0.3,0.2-0.5,0.3l-0.7,2.5H146.1z M151.8,740.4c0.1,0,0.3,0,0.4,0
		c0.1,0,0.2,0.1,0.3,0.1h0.9l-0.1,0.2c0,0.1-0.1,0.1-0.2,0.1l-0.4,0.1c0,0.1,0,0.3,0,0.5c0,0.2-0.1,0.3-0.2,0.4
		c-0.1,0.1-0.2,0.2-0.4,0.3c-0.1,0.1-0.3,0.2-0.5,0.2c-0.2,0-0.3,0.1-0.5,0.1c-0.2,0-0.3,0-0.4-0.1c-0.1,0-0.1,0.1-0.2,0.1
		c-0.1,0.1-0.1,0.1-0.1,0.2c0,0.1,0,0.1,0,0.2c0.1,0,0.1,0.1,0.2,0.1c0.1,0,0.2,0,0.4,0c0.1,0,0.3,0,0.4,0c0.1,0,0.3,0,0.4,0
		c0.1,0,0.2,0.1,0.3,0.1c0.1,0.1,0.2,0.1,0.2,0.2c0,0.1,0,0.2,0,0.4c0,0.1-0.1,0.3-0.2,0.4c-0.1,0.1-0.2,0.3-0.4,0.4
		c-0.2,0.1-0.3,0.2-0.6,0.3c-0.2,0.1-0.4,0.1-0.7,0.1c-0.2,0-0.5,0-0.6-0.1c-0.2,0-0.3-0.1-0.4-0.2c-0.1-0.1-0.2-0.2-0.2-0.3
		c0-0.1,0-0.2,0-0.3c0-0.2,0.1-0.3,0.3-0.4c0.1-0.1,0.3-0.2,0.5-0.3c-0.1,0-0.1-0.1-0.2-0.2c0-0.1,0-0.2,0-0.3c0,0,0-0.1,0.1-0.2
		c0-0.1,0.1-0.1,0.1-0.2c0-0.1,0.1-0.1,0.2-0.1c0.1,0,0.1-0.1,0.2-0.1c-0.1-0.1-0.2-0.2-0.3-0.4c-0.1-0.2-0.1-0.3,0-0.5
		c0-0.2,0.1-0.3,0.2-0.4c0.1-0.1,0.2-0.3,0.4-0.3c0.1-0.1,0.3-0.2,0.5-0.2C151.4,740.5,151.6,740.4,151.8,740.4z M151.9,744
		c0-0.1,0-0.2,0-0.2c0-0.1-0.1-0.1-0.2-0.1c-0.1,0-0.2,0-0.3-0.1c-0.1,0-0.2,0-0.3,0c-0.1,0-0.2,0-0.4,0c-0.1,0-0.2,0-0.3,0
		c-0.1,0.1-0.3,0.1-0.4,0.2c-0.1,0.1-0.2,0.2-0.2,0.3c0,0.1,0,0.1,0,0.2c0,0.1,0.1,0.1,0.1,0.2c0.1,0,0.2,0.1,0.3,0.1
		c0.1,0,0.2,0,0.4,0c0.2,0,0.3,0,0.4,0c0.1,0,0.2-0.1,0.4-0.1c0.1-0.1,0.2-0.1,0.3-0.2C151.8,744.2,151.9,744.1,151.9,744z
		 M151.3,742.2c0.1,0,0.2,0,0.3,0c0.1,0,0.2-0.1,0.3-0.1c0.1-0.1,0.1-0.1,0.2-0.2c0.1-0.1,0.1-0.2,0.1-0.3c0.1-0.2,0-0.4-0.1-0.5
		c-0.1-0.1-0.3-0.2-0.5-0.2s-0.4,0.1-0.6,0.2c-0.2,0.1-0.3,0.3-0.3,0.5c0,0.1,0,0.2,0,0.3c0,0.1,0,0.2,0.1,0.2
		c0,0.1,0.1,0.1,0.2,0.1C151.1,742.2,151.2,742.2,151.3,742.2z M159,739.1l-0.1,0.5h-1.5l-1.1,4.2h-0.6l1.1-4.2h-1.5l0.1-0.5H159z
		 M159.9,740.4c0.2,0,0.4,0,0.5,0.1c0.2,0.1,0.3,0.2,0.4,0.3c0.1,0.1,0.1,0.3,0.2,0.5c0,0.2,0,0.4-0.1,0.6c0,0.1,0,0.2-0.1,0.2
		c0,0-0.1,0-0.1,0h-2.2c-0.1,0.2-0.1,0.4-0.1,0.6c0,0.2,0,0.3,0.1,0.4c0.1,0.1,0.2,0.2,0.3,0.2c0.1,0.1,0.2,0.1,0.4,0.1
		c0.1,0,0.3,0,0.4-0.1c0.1,0,0.2-0.1,0.3-0.1c0.1,0,0.2-0.1,0.2-0.1c0.1,0,0.1-0.1,0.1-0.1c0,0,0.1,0,0.1,0.1l0.1,0.2
		c-0.1,0.1-0.2,0.2-0.3,0.2c-0.1,0.1-0.2,0.1-0.4,0.2c-0.1,0-0.3,0.1-0.4,0.1c-0.1,0-0.3,0-0.4,0c-0.2,0-0.4,0-0.6-0.1
		c-0.2-0.1-0.3-0.2-0.4-0.3c-0.1-0.2-0.2-0.3-0.2-0.6c0-0.2,0-0.5,0.1-0.8c0.1-0.2,0.2-0.5,0.3-0.7c0.1-0.2,0.3-0.4,0.5-0.5
		c0.2-0.1,0.4-0.3,0.6-0.4C159.4,740.5,159.7,740.4,159.9,740.4z M159.8,740.9c-0.3,0-0.5,0.1-0.7,0.2c-0.2,0.2-0.4,0.4-0.5,0.7h1.8
		c0-0.1,0-0.3,0-0.4c0-0.1,0-0.2-0.1-0.3c-0.1-0.1-0.1-0.1-0.2-0.2C160,740.9,159.9,740.9,159.8,740.9z M163.6,743.9h-0.3
		c-0.1,0-0.1,0-0.1,0c0,0,0-0.1,0-0.1l0-0.3c-0.1,0.1-0.2,0.2-0.3,0.2c-0.1,0.1-0.2,0.1-0.3,0.2c-0.1,0-0.2,0.1-0.3,0.1
		c-0.1,0-0.2,0-0.4,0c-0.1,0-0.2,0-0.4-0.1c-0.1,0-0.2-0.1-0.3-0.2c-0.1-0.1-0.1-0.2-0.1-0.3c0-0.1,0-0.2,0-0.4
		c0-0.1,0.1-0.3,0.2-0.4c0.1-0.1,0.3-0.2,0.4-0.3c0.2-0.1,0.4-0.2,0.7-0.2c0.3-0.1,0.6-0.1,1-0.1l0.1-0.3c0.1-0.3,0.1-0.5,0-0.6
		c-0.1-0.1-0.2-0.2-0.4-0.2c-0.1,0-0.3,0-0.4,0.1c-0.1,0-0.2,0.1-0.3,0.1c-0.1,0-0.2,0.1-0.2,0.1c-0.1,0-0.1,0.1-0.2,0.1
		c0,0-0.1,0-0.1,0c0,0,0,0-0.1-0.1l-0.1-0.2c0.2-0.2,0.5-0.3,0.7-0.4c0.2-0.1,0.5-0.1,0.7-0.1c0.2,0,0.3,0,0.5,0.1
		c0.1,0.1,0.2,0.1,0.3,0.3c0.1,0.1,0.1,0.2,0.1,0.4c0,0.2,0,0.3-0.1,0.5L163.6,743.9z M162.2,743.5c0.1,0,0.2,0,0.3,0
		c0.1,0,0.2-0.1,0.3-0.1c0.1,0,0.2-0.1,0.3-0.1c0.1-0.1,0.2-0.1,0.3-0.2l0.2-0.7c-0.3,0-0.5,0-0.7,0.1c-0.2,0-0.4,0.1-0.5,0.1
		c-0.1,0.1-0.2,0.1-0.3,0.2c-0.1,0.1-0.1,0.2-0.2,0.3c0,0.1,0,0.2,0,0.2c0,0.1,0,0.1,0.1,0.2c0,0,0.1,0.1,0.1,0.1
		C162,743.5,162.1,743.5,162.2,743.5z M164.5,743.9l0.9-3.4h0.3c0.1,0,0.1,0,0.1,0.1l0,0.3c0.2-0.2,0.3-0.3,0.5-0.4
		c0.2-0.1,0.4-0.1,0.6-0.1c0.2,0,0.4,0.1,0.5,0.2c0.1,0.1,0.2,0.3,0.2,0.5c0.1-0.1,0.2-0.2,0.3-0.3c0.1-0.1,0.2-0.2,0.3-0.2
		c0.1-0.1,0.2-0.1,0.3-0.1c0.1,0,0.2,0,0.3,0c0.2,0,0.3,0,0.5,0.1c0.1,0.1,0.2,0.1,0.3,0.2c0.1,0.1,0.1,0.2,0.1,0.4
		c0,0.2,0,0.3-0.1,0.5l-0.6,2.1h-0.6l0.6-2.1c0.1-0.3,0.1-0.5,0-0.6c-0.1-0.1-0.2-0.2-0.4-0.2c-0.1,0-0.2,0-0.3,0.1
		c-0.1,0-0.2,0.1-0.3,0.2c-0.1,0.1-0.2,0.2-0.2,0.3c-0.1,0.1-0.1,0.2-0.2,0.4l-0.6,2.1h-0.6l0.6-2.1c0.1-0.3,0.1-0.5,0-0.6
		c-0.1-0.1-0.2-0.2-0.4-0.2c-0.1,0-0.3,0-0.4,0.1c-0.1,0.1-0.3,0.2-0.4,0.3l-0.7,2.5H164.5z"/>
</g>
<g>
	<g>
		<linearGradient id="SVGID_4_" gradientUnits="userSpaceOnUse" x1="759.4227" y1="142.0118" x2="959.6004" y2="142.0118">
			<stop  offset="0" style="stop-color:#FFFFFF;stop-opacity:0"/>
			<stop  offset="4.209470e-02" style="stop-color:#FDEAED;stop-opacity:4.245090e-02"/>
			<stop  offset="0.1274" style="stop-color:#FAC5CD;stop-opacity:0.1284"/>
			<stop  offset="0.2201" style="stop-color:#F7A6B1;stop-opacity:0.222"/>
			<stop  offset="0.3205" style="stop-color:#F58C9B;stop-opacity:0.3232"/>
			<stop  offset="0.4313" style="stop-color:#F37889;stop-opacity:0.4349"/>
			<stop  offset="0.5581" style="stop-color:#F26B7D;stop-opacity:0.5628"/>
			<stop  offset="0.7149" style="stop-color:#F16276;stop-opacity:0.7209"/>
			<stop  offset="0.9916" style="stop-color:#F16074"/>
		</linearGradient>
		<rect x="759.4" y="129.7" class="st9" width="200.2" height="24.7"/>
		<g>
			<path class="st7" d="M907.6,134.6c0.8,0,1.5-0.7,1.5-1.5c0-0.8-0.6-1.5-1.5-1.5c-0.8,0-1.5,0.7-1.5,1.5
				C906.2,133.9,906.8,134.6,907.6,134.6z"/>
			<path class="st7" d="M911.3,134.6c0.8,0,1.5-0.7,1.5-1.5c0-0.8-0.6-1.5-1.5-1.5c-0.8,0-1.5,0.7-1.5,1.5
				C909.8,133.9,910.4,134.6,911.3,134.6z"/>
			<path class="st7" d="M920.3,144.3h-3.8h-0.3h-1.8v-7.6c0,0-2-0.8-4.6-0.8c-4,0-5.8,2.6-5.8,5.5c0,3.1,1.6,5.1,5.9,5.1h6.4h0.3
				h6.7v-10.3h-2.9V144.3z M911.5,144.3h-1.4c-2.3,0-3.3-1.1-3.3-3.1c0-1.7,1-3,2.6-3c1.3,0,2.1,0.4,2.1,0.4V144.3z"/>
			<path class="st7" d="M921.7,148.4c-0.8,0-1.5,0.7-1.5,1.5c0,0.8,0.6,1.5,1.5,1.5c0.8,0,1.5-0.7,1.5-1.5
				C923.1,149,922.5,148.4,921.7,148.4z"/>
			<path class="st7" d="M918,148.4c-0.8,0-1.5,0.7-1.5,1.5c0,0.8,0.6,1.5,1.5,1.5c0.8,0,1.5-0.7,1.5-1.5
				C919.5,149,918.8,148.4,918,148.4z"/>
			<path class="st7" d="M949.6,135.4l-2.8,0.4c0.4,1.7,0.6,3.7,0.6,5.9c0,0.7-0.1,1.8-0.2,2.6h-0.8c-1.9,0-2.4-0.6-2.4-2.4v-5.2
				h-2.8v5.3c0,1.6-0.4,2.5-1.6,2.5c-1.3,0-1.7-0.9-1.7-2.6v-4.4h-2.9v4c0,2.2-0.5,2.8-2,2.8h-0.4h-0.3h-1.8v-8.1h-2.9v10.6
				c0,2.4-0.9,3.1-2.4,3.1c-0.7,0-1.3-0.1-1.8-0.3l-0.2,2.3c0.5,0.1,1.2,0.2,1.8,0.2c4.5,0,5.4-2.7,5.4-5.5v-0.1h1.8h0.3h0.4
				c1.6,0,2.5-0.6,2.9-1.6c0.4,1.1,1.5,1.8,3.1,1.8c1.4,0,2.7-0.6,3.2-1.8c0.5,1.2,1.6,1.6,3.6,1.6h4.1c0.2-1.6,0.3-3.5,0.3-5.1
				C950.3,139.3,950,137.1,949.6,135.4z"/>
		</g>
		<g>
			<path class="st1" d="M736.3,148.3c0,1-1.1,1.5-2.8,2.2l-4.9,1.9c-1.3,0.5-1.9,1.3-1.9,2.3c0,0.3,0.1,0.7,0.2,1.1l0.2-0.1
				c0-0.1,0-0.1,0-0.2c0-0.9,1.3-1.4,2.8-2l4.9-1.9c1.3-0.5,1.9-1.3,1.9-2.2c0-0.4-0.1-0.7-0.2-1.1L736.3,148.3z"/>
			<path class="st1" d="M764.8,96.8c1.7,0,3.1-1.4,3.1-3.1v-2c0-1.2,0-2.3,0.7-2.4V89c-0.4,0-0.8,0.1-1.1,0.3h-2.8
				c-1.8,0-3.4,1.6-3.4,3.4V94C761.4,95.6,762.9,96.8,764.8,96.8z M762.5,92.8c0-1.3,1-2.3,2.5-2.3h2c-0.1,0.2-0.1,0.4-0.1,0.6v2.5
				c0,1.2-1,2.1-2.1,2.1c-1.3,0-2.3-0.8-2.3-1.7V92.8z"/>
			<path class="st1" d="M782.4,78c1.9,0,4-1.1,5.2-3.5l1.5-2.5l0.9-1.6c0.5-0.8,0.9-1.7,1.4-1.7c0.1,0,0.2,0,0.2,0l0.1-0.1
				c-0.4-0.2-0.7-0.3-1-0.3l-2.2-1.2c-0.5-0.3-1-0.4-1.5-0.4c-1.1,0-2.3,0.6-2.8,1.6l-0.6,1c-0.2,0.4-0.3,0.8-0.3,1.1
				c0,1.3,1.3,3.1,3.1,3.1c0.2,0,0.4,0,0.6-0.1l-0.3,0.6c-1.3,2.4-3.2,3.4-4.9,3.4c-1.2,0-2.3-0.5-3-1.4l-0.1,0.1
				C779.6,77.4,780.9,78,782.4,78z M786.6,72.5c-1.3,0-2.1-1.2-2.1-2c0-0.2,0.1-0.4,0.2-0.6l0.5-1c0.4-0.7,1.1-1.1,1.9-1.1
				c0.4,0,0.8,0.1,1.2,0.3l1.4,0.8l-1.7,3.1C787.5,72.4,787,72.5,786.6,72.5z"/>
			<path class="st1" d="M790.8,79c0,0.3,0.1,0.7,0.2,1l0.9,2.5c0.1,0.2,0.1,0.5,0.1,0.8c0,1-0.9,2.1-2.1,2.1c-0.9,0-1.8-0.7-2.3-1.7
				l-1.5-3.8l-1,0.4l1.6,4.2c0.1,0.2,0.1,0.5,0.1,0.7c0,1-0.8,2.2-2.1,2.2c-0.9,0-1.8-0.6-2.2-1.7l-1.5-3.8l-1.1,0.4l1.7,4.4
				c0.6,1.2,1.7,1.8,2.8,1.8c1.5,0,3.1-1,3.4-2.6c0.6,0.4,1.3,0.6,2,0.6c1.8,0,3.2-1.6,3.2-3.3c0-0.4-0.1-0.7-0.2-1.1l-0.8-2
				c-0.3-0.8-0.6-1.5-0.6-2c0-0.3,0.1-0.5,0.3-0.7l0-0.1C791.2,77.7,790.8,78.2,790.8,79z"/>
			<polygon class="st1" points="806.5,98.2 803.7,95.3 800.8,98.2 803.7,101 			"/>
			<path class="st1" d="M829,89.5v0.4c2.1,0.2,2.1,3.7,2.1,7.2v20c0,4.5-3.4,7.1-5.8,7.3h-4.7v-6.1c0-5.7-4-11.3-10.4-11.8h-6.7
				c-6.7,0-12.2,2.7-15.3,6.4L788,113V97.2c0-3.6-2.1-5.1-5.2-5.2v0.3c1.9,0.2,1.9,3.1,1.9,6V122c0,0.9,0.1,1.9,0.3,2.4h-5.4
				c-4.8,0-6.6-1.3-7.3-4.4v-4.2c0-5.5-3.9-9.6-9.7-9.6h-2.5c-3.3,0-6.6,0-6.7-1.9h-0.3c0.1,1.4,0.5,2.7,1.2,3.5
				c0.7,0.9,1.5,1.6,4.2,1.6h4.2c2.6,0,4,0.9,4.8,2c0.8,1.1,1.2,1.7,1.6,5v8h-5.1v-9.5h-3.6c-5.3,0-9.8,4.5-9.9,9.5h-3.3h-0.1h-8.8
				v-18h-3.3v21.2c0,11.5-6.9,18.9-15,18.9c-1.5,0-2.8-0.3-4.2-1l-0.3,0.6c2.1,0.8,4,1.2,5.9,1.2c4.7,0,8.6-1.8,11.7-5.4
				c3.6-3.8,5.1-8.5,5.1-14.3h8.8h0.1h25.1v-2.1c1.7,1.4,3.4,2,7.2,2.1v0h45.8v0c0.8,0,1.8-0.3,2.9-0.9c3.6-1.7,6-5.6,6-9.6V95.5
				C834.3,91.2,832.1,89.6,829,89.5z M760.8,124.4h-7c0-3.4,2.7-6.1,6.5-6.2h0.6V124.4z M817.3,124.4h-31.9c0-0.1-0.1-0.6-0.1-0.9
				c0-6.9,6-13.8,17.9-13.8h6.7c4.9,0.5,7.4,4.6,7.4,8.6V124.4z"/>
			<path class="st1" d="M839.8,89.7v0.4c1.7,0.3,2,1.8,2,7.5v30h3.3V95.9C845,91.9,843.3,89.8,839.8,89.7z"/>
			<path class="st1" d="M863.6,85.5c1.9,0,4-1.1,5.2-3.5l1.5-2.5l0.9-1.6c0.5-0.8,0.9-1.7,1.4-1.7c0.1,0,0.2,0,0.2,0l0.1-0.1
				c-0.4-0.2-0.7-0.3-1-0.3l-2.2-1.2c-0.5-0.3-1-0.4-1.5-0.4c-1.1,0-2.3,0.6-2.8,1.6l-0.6,1c-0.2,0.4-0.3,0.8-0.3,1.1
				c0,1.3,1.3,3.1,3.1,3.1c0.2,0,0.4,0,0.6-0.1l-0.3,0.6c-1.3,2.4-3.2,3.4-4.9,3.4c-1.2,0-2.3-0.5-3-1.4l-0.1,0.1
				C860.8,84.8,862.2,85.5,863.6,85.5z M867.8,80c-1.3,0-2.1-1.2-2.1-2c0-0.2,0.1-0.4,0.2-0.6l0.5-1c0.4-0.7,1.1-1.1,1.9-1.1
				c0.4,0,0.8,0.1,1.2,0.3l1.4,0.8l-1.7,3.1C868.7,79.8,868.2,80,867.8,80z"/>
			<polygon class="st1" points="869.1,98.3 872,101.2 874.9,98.3 872,95.5 			"/>
			<polygon class="st1" points="863.3,98.3 866.2,101.2 869.1,98.3 866.2,95.5 			"/>
			<path class="st1" d="M870,105.4c-5.5,0-10.3,4.8-10.3,10.3v3.6c0,4.8,4.7,8.3,10.2,8.3c5.1,0,9.4-4.2,9.4-9.3v-6
				c0-3.5,0-7,2.1-7.2v-0.5c-1.1,0.1-2.3,0.3-3.1,0.8H870z M876.1,110.7v7.6c0,3.4-2.9,6.1-6.2,6.1c-3.9,0-6.8-2.5-6.8-5.1v-3.6
				c0-3.8,3.1-7,7.4-7h5.8C876.1,109.3,876.1,109.8,876.1,110.7z"/>
			<path class="st1" d="M941.2,101.2c0-0.1,0-0.1,0-0.2c0-0.9,1.3-1.4,2.8-2l4.9-1.9c1.3-0.5,1.9-1.3,1.9-2.2c0-0.4-0.1-0.7-0.2-1.1
				l-0.2,0.1c0,1-1.1,1.5-2.8,2.2l-4.9,1.9c-1.3,0.5-1.9,1.3-1.9,2.3c0,0.3,0.1,0.7,0.2,1.1L941.2,101.2z"/>
			<path class="st1" d="M948.5,105.5h-6.9c-10.6,0-18.6,6.3-19.3,14.5c-0.7-2.6-2.2-5.2-4.4-7.3l-0.4,0.3c2.4,2.2,3.2,5.4,3.2,8.8
				c0,1.3-0.3,2.2-0.9,2.5h-2.7c-3.4-0.3-5.9-2.2-6.2-5.5V94.3c0-4.3-2.1-6-5.4-6.1v0.5c2,0.3,2.1,3.6,2.1,7.4v20.6
				c0,4.4-3,7.7-6.8,7.7h-2.9v-14.9c0-4.3-2.1-6-5.5-6.2v0.5c2,0.3,2.2,3.8,2.2,7.5v13.1h-10.9v3.3h17.1c3.5,0,7-2.5,8-4.5
				c1.7,2.9,4.8,4.5,8.2,4.5v0h42.6v-9.7C959.7,111.6,954.5,106.1,948.5,105.5z M956.3,124.4h-33.5v-1c0-8.3,7.6-14.5,18.8-14.5h3.4
				c2.9,0,4.8,0.4,6.2,0.9c3.4,1.7,5.1,4.4,5.1,8.1V124.4z"/>
		</g>
	</g>
</g>
<g>
	
		<radialGradient id="SVGID_5_" cx="242.5737" cy="251.7327" r="54.2731" fx="231.4333" fy="235.6891" gradientUnits="userSpaceOnUse">
		<stop  offset="0.1436" style="stop-color:#FFF75D"/>
		<stop  offset="0.5314" style="stop-color:#FFDE00"/>
		<stop  offset="0.9166" style="stop-color:#FF7D00"/>
	</radialGradient>
	<circle class="st10" cx="243.6" cy="254.3" r="48.7"/>
	<g>
		<path class="st11" d="M243.6,205.6c-26.9,0-48.7,21.8-48.7,48.7c0,26.9,21.8,48.7,48.7,48.7c26.9,0,48.7-21.8,48.7-48.7
			C292.3,227.4,270.5,205.6,243.6,205.6z M241.9,299.8c-25.1,0-45.5-20.4-45.5-45.5c0-25.1,20.4-45.5,45.5-45.5
			c25.1,0,45.5,20.4,45.5,45.5C287.4,279.4,267,299.8,241.9,299.8z"/>
		<path class="st11" d="M248.9,189.5c0,2.7-2,4.9-4.6,4.9l0,0c-2.5,0-4.6-2.2-4.6-4.9v-8.7c0-2.7,2-4.9,4.6-4.9l0,0
			c2.5,0,4.6,2.2,4.6,4.9V189.5z"/>
		<path class="st11" d="M248.9,322.7c0,2.7-2,4.9-4.6,4.9l0,0c-2.5,0-4.6-2.2-4.6-4.9V314c0-2.7,2-4.9,4.6-4.9l0,0
			c2.5,0,4.6,2.2,4.6,4.9V322.7z"/>
		<path class="st11" d="M306.6,256.3c-2.7,0-4.9-2-4.9-4.6l0,0c0-2.5,2.2-4.6,4.9-4.6h8.7c2.7,0,4.9,2,4.9,4.6l0,0
			c0,2.5-2.2,4.6-4.9,4.6H306.6z"/>
		<path class="st11" d="M173.4,256.3c-2.7,0-4.9-2-4.9-4.6l0,0c0-2.5,2.2-4.6,4.9-4.6h8.7c2.7,0,4.9,2,4.9,4.6l0,0
			c0,2.5-2.2,4.6-4.9,4.6H173.4z"/>
		<path class="st11" d="M291.6,210.9c-1.9,1.9-4.9,2.1-6.7,0.3l0,0c-1.8-1.8-1.7-4.8,0.3-6.7l6.2-6.2c1.9-1.9,4.9-2.1,6.7-0.3l0,0
			c1.8,1.8,1.7,4.8-0.3,6.7L291.6,210.9z"/>
		<path class="st11" d="M197.4,305.1c-1.9,1.9-4.9,2.1-6.7,0.3l0,0c-1.8-1.8-1.7-4.8,0.3-6.7l6.2-6.2c1.9-1.9,4.9-2.1,6.7-0.3l0,0
			c1.8,1.8,1.7,4.8-0.3,6.7L197.4,305.1z"/>
		<path class="st11" d="M285.1,299c-1.9-1.9-2-4.9-0.3-6.7l0,0c1.8-1.8,4.8-1.7,6.7,0.3l6.2,6.2c1.9,1.9,2.1,4.9,0.3,6.7l0,0
			c-1.8,1.8-4.8,1.7-6.7-0.3L285.1,299z"/>
		<path class="st11" d="M190.9,204.8c-1.9-1.9-2-4.9-0.3-6.7l0,0c1.8-1.8,4.8-1.7,6.7,0.3l6.2,6.2c1.9,1.9,2.1,4.9,0.3,6.7l0,0
			c-1.8,1.8-4.8,1.7-6.7-0.3L190.9,204.8z"/>
	</g>
	<defs>
		<filter id="Adobe_OpacityMaskFilter" filterUnits="userSpaceOnUse" x="197.7" y="209.6" width="72.7" height="48.8">
			<feFlood  style="flood-color:white;flood-opacity:1" result="back"/>
			<feBlend  in="SourceGraphic" in2="back" mode="normal"/>
		</filter>
	</defs>
	<mask maskUnits="userSpaceOnUse" x="197.7" y="209.6" width="72.7" height="48.8" id="SVGID_6_">
		<g class="st12">
			<defs>
				<filter id="Adobe_OpacityMaskFilter_1_" filterUnits="userSpaceOnUse" x="197.7" y="209.6" width="72.7" height="48.8">
					<feFlood  style="flood-color:white;flood-opacity:1" result="back"/>
					<feBlend  in="SourceGraphic" in2="back" mode="normal"/>
				</filter>
			</defs>
			<mask maskUnits="userSpaceOnUse" x="197.7" y="209.6" width="72.7" height="48.8" id="SVGID_6_">
				<g class="st13">
				</g>
			</mask>
			
				<radialGradient id="SVGID_7_" cx="232.6137" cy="213.9988" r="50.6721" fx="249.7898" fy="187.8856" gradientUnits="userSpaceOnUse">
				<stop  offset="0.2627" style="stop-color:#FFFFFF"/>
				<stop  offset="0.7268" style="stop-color:#FFFFFF"/>
				<stop  offset="0.9716" style="stop-color:#000000"/>
			</radialGradient>
			<path class="st14" d="M212.4,220.3c9-9.2,32.2-15.4,48.6-6.2c16.4,9.2,11,26.7-15.4,25.7c-26.4-1-42.3,8.6-44.4,16.8
				C199.2,264.9,190.1,243.1,212.4,220.3z"/>
		</g>
	</mask>
	
		<radialGradient id="SVGID_8_" cx="232.6137" cy="213.9988" r="50.6721" fx="249.7898" fy="187.8856" gradientUnits="userSpaceOnUse">
		<stop  offset="0.2627" style="stop-color:#FFFFFF"/>
		<stop  offset="0.7268" style="stop-color:#FFF75D"/>
		<stop  offset="0.9716" style="stop-color:#FFDE00"/>
	</radialGradient>
	<path class="st15" d="M212.4,220.3c9-9.2,32.2-15.4,48.6-6.2c16.4,9.2,11,26.7-15.4,25.7c-26.4-1-42.3,8.6-44.4,16.8
		C199.2,264.9,190.1,243.1,212.4,220.3z"/>
</g>
</svg>
