<?xml version="1.0" encoding="utf-8"?>
<!-- Generator: Adobe Illustrator 21.1.0, SVG Export Plug-In . SVG Version: 6.00 Build 0)  -->
<svg version="1.1" id="Layer_1" xmlns="http://www.w3.org/2000/svg" xmlns:xlink="http://www.w3.org/1999/xlink" x="0px" y="0px"
	 viewBox="0 0 1024 768" style="enable-background:new 0 0 1024 768;" xml:space="preserve">
<style type="text/css">
	.st0{fill:url(#SVGID_1_);}
	.st1{fill:#622272;}
	.st2{fill:url(#SVGID_2_);}
	.st3{fill:#C94876;}
	.st4{fill-rule:evenodd;clip-rule:evenodd;fill:#F6DFB4;}
	.st5{fill:#D1D3D4;}
	.st6{fill:#FFFFFF;}
	.st7{fill:#1D5A69;}
	.st8{fill:url(#SVGID_3_);}
	.st9{fill:url(#SVGID_4_);}
	.st10{fill:#FF8A00;}
	.st11{filter:url(#Adobe_OpacityMaskFilter);}
	.st12{filter:url(#Adobe_OpacityMaskFilter_1_);}
	.st13{mask:url(#SVGID_5_);fill:url(#SVGID_6_);}
	.st14{fill:url(#SVGID_7_);}
</style>
<g>
	<g>
		<g>
			<linearGradient id="SVGID_1_" gradientUnits="userSpaceOnUse" x1="245.1993" y1="139.1219" x2="245.1993" y2="722.1129">
				<stop  offset="0.3212" style="stop-color:#1C75BC"/>
				<stop  offset="0.3967" style="stop-color:#247BBF"/>
				<stop  offset="0.517" style="stop-color:#3C8AC7"/>
				<stop  offset="0.667" style="stop-color:#61A4D5"/>
				<stop  offset="0.839" style="stop-color:#95C7E8"/>
				<stop  offset="1" style="stop-color:#CCECFC"/>
			</linearGradient>
			<path class="st0" d="M395.5,267.9h-6.1c-1.8-28.2-25.9-59.6-71.7-93.4c-35-25.9-70.5-43.7-70.9-43.9c-1-0.5-2.2-0.5-3.1,0
				c-0.3,0.2-35.9,18-70.9,43.9c-45.7,33.8-69.8,65.2-71.7,93.4H95c-1.9,0-3.5,1.6-3.5,3.5v360.2h307.5V271.4
				C398.9,269.4,397.4,267.9,395.5,267.9z"/>
		</g>
	</g>
</g>
<g>
	<path class="st1" d="M457.6,220.4c-0.8,0-1.5,0.7-1.5,1.5c0,0.8,0.7,1.5,1.5,1.5c0.8,0,1.5-0.7,1.5-1.5
		C459.2,221.1,458.5,220.4,457.6,220.4z"/>
	<path class="st1" d="M457.6,213c-0.8,0-1.5,0.7-1.5,1.5c0,0.8,0.7,1.5,1.5,1.5c0.8,0,1.5-0.7,1.5-1.5
		C459.2,213.7,458.5,213,457.6,213z"/>
	<polygon class="st1" points="469.1,206.9 469,206.8 467.2,207.3 467.2,223.3 467.4,223.3 469.1,223 	"/>
	<path class="st1" d="M470.2,203.7c-0.6,0.1-1.4,0.1-2.2,0.2c-0.3-0.3-0.5-0.6-0.5-1c0-0.5,0.3-0.9,0.9-0.9c0.3,0,0.7,0.1,1.1,0.2
		l0.3-1.2c-0.6-0.2-1.2-0.3-1.7-0.3c-1.2,0-2,0.7-2,1.9c0,0.5,0.2,1,0.4,1.4c-0.4,0-0.7,0-1.1,0l0.1,1.3c1.9-0.1,3.4-0.2,4.6-0.3
		L470.2,203.7z"/>
	<polygon class="st1" points="484.1,207.8 482.2,206.5 481,208.3 483,209.6 	"/>
	<polygon class="st1" points="487.5,207.8 485.6,206.5 484.4,208.3 486.3,209.6 	"/>
	<path class="st1" d="M484.4,212.3c-1.9,0-3.5,2.4-3.5,4.6c0,1.7,1,2.8,3.1,2.8c1,0,1.8-0.1,2.5-0.3c0,0.6-0.1,1.2-0.2,1.5
		c-0.7,0.3-2.2,0.5-6.8,0.5l0,0c0,0,0,0,0,0c-1.6,0-1.9-0.3-2.5-1.9c-0.2-0.6-0.8-2-1.4-3.7h-0.2l-1.4,1.5c0.7,1.4,1.5,2.9,1.8,4
		c-0.5,1.9-2.2,3.7-6.8,4.6l-0.1,0.2l1,1.4c3.8-0.7,6.4-2.7,7.2-4.9c0.4,0.4,1.1,0.6,2,0.6c4.5,0,6.3-0.1,7.6-0.8
		c1.1-0.8,1.5-2.1,1.5-4.4C488,215.1,486.6,212.3,484.4,212.3z M484.3,217.8c-1.2,0-1.9-0.4-1.9-1.2c0-1.3,1-2.5,1.9-2.5
		c1.1,0,2.1,1.7,2.2,3.5C485.8,217.7,485.1,217.8,484.3,217.8z"/>
	<path class="st1" d="M491.8,203.9c-0.3-0.3-0.5-0.6-0.5-1c0-0.5,0.3-0.9,0.9-0.9c0.3,0,0.7,0.1,1.1,0.2l0.3-1.2
		c-0.6-0.2-1.2-0.3-1.7-0.3c-1.2,0-2,0.7-2,1.9c0,0.5,0.2,1,0.4,1.4c-0.4,0-0.7,0-1.1,0l0.1,1.3c1.9-0.1,3.4-0.2,4.6-0.3l-0.1-1.2
		C493.4,203.8,492.6,203.9,491.8,203.9z"/>
	<polygon class="st1" points="491,207.3 491,223.3 491.1,223.3 492.9,223 492.9,206.9 492.8,206.8 	"/>
	<polygon class="st1" points="517.5,210.6 515.6,209.3 514.4,211.1 516.4,212.5 	"/>
	<polygon class="st1" points="517.8,211.1 519.8,212.5 521,210.6 519,209.3 	"/>
	<path class="st1" d="M518.2,215.1l-1.5,1.2c0.8,1.8,1.5,3.5,1,4.7c-0.5,0.2-1.3,0.3-2.5,0.3h-0.7l0,0c0,0,0,0,0,0
		c-1.5,0-1.9-0.3-2.8-2.1c-1.4-2.9-2.1-3.7-3.5-3.7c-1.4,0-3.6,1.4-5.2,3.4c-1.2,1.4-1.6,2.5-1.6,4.5c0,1.4,0.3,4.2,0.9,8.4l0.2,0.1
		l1.6-0.8c-0.7-4.8-1.1-9.1-0.8-10.2c0.2-0.3,0.5-0.7,0.8-1c1.9,2.4,3.7,3.5,5.4,3.5c0.7,0,1.3-0.4,1.9-1.2c0.7,0.6,1.5,0.9,2.5,0.9
		c0,0,0,0,0,0l0,0h0.7c2.2,0,3.1-0.2,3.8-0.8c0.7-0.7,1.2-1.9,1.2-2.9c0-1-0.5-2.6-1.2-4.3H518.2z M509.2,221.6
		c-1,0-2.4-1.1-3.9-2.9c1-0.8,2.1-1.4,2.6-1.4c0.6,0,1.3,0.9,2.4,3.3c0,0.1,0.1,0.2,0.2,0.3C510.1,221.4,509.6,221.6,509.2,221.6z"
		/>
	<polygon class="st1" points="519,207.9 517.1,206.5 515.8,208.3 517.8,209.7 	"/>
	<path class="st1" d="M540.9,219.3c-1.7-0.6-2.7-0.9-2.7-1.5c0-1.1,1.5-2.9,3.4-2.9c0.7,0,1.5,0.2,2.1,0.5l0.1-0.1l0.3-1.7
		c-0.6-0.4-1.5-0.6-2.5-0.6c-2.9,0-4.9,2.9-4.9,5.1c0,1.9,1.2,2.3,3.1,2.9c1.6,0.5,2.1,0.9,1.9,1.6c-0.9,1.2-3.7,2.5-7,2.5
		c-3.9,0-5.1-1.5-5.1-3.8c0-0.6,0.1-1.3,0.2-2.2l-0.2-0.1l-1.5,0.5c-0.2,0.6-0.4,1.6-0.4,2.7c0,2.7,2.2,4.7,6.5,4.7
		c4.9,0,9.3-2.5,9.3-5.5C543.7,220.6,543.3,220.1,540.9,219.3z"/>
	<polygon class="st1" points="531,230.6 533,232 534.2,230.1 532.2,228.8 	"/>
	<polygon class="st1" points="534.5,230.6 536.4,232 537.6,230.1 535.7,228.8 	"/>
	<path class="st1" d="M549.9,215.7l-1.4,1.5c0.9,1.6,1.7,3.4,1.7,4.4c0,1.4-2.1,3.5-6.7,4.3l-0.1,0.2l1,1.4c3.3-0.6,5.8-2.2,6.7-3.9
		c0.4-0.8,0.6-1.7,0.6-2.4c0-1.4-0.7-3.5-1.7-5.4H549.9z"/>
	<path class="st1" d="M579.3,215.2c-2.2,0-4.8,2.4-8.7,6.1c-0.9,0-1.5-0.1-2.1-0.3c0.5-0.8,0.9-1.8,1.3-2.9l-0.1-0.1l-1.9,0.3
		c-0.5,1.4-0.8,2.3-1.1,2.7c-0.3,0.2-1.1,0.3-1.8,0.3l0,0c0,0,0,0,0,0c-1.2,0-1.7-0.4-2.7-2.3c-0.3-0.7-2.1-4.5-2.8-6h-0.2l-1.4,1.5
		c1,1.7,2.8,5.2,3.2,6l0.1,0.1c-0.8,0.6-2.5,0.9-3.9,0.9c-0.6,0-1.8-0.1-2.6-0.2l-0.1,0.1l-0.3,1.8c0.9,0.2,2.3,0.3,2.8,0.3
		c2.4,0,4-0.5,4.9-1.4c0.7,1,1.4,1.3,2.5,1.3c0,0,0,0,0,0l0,0c1.2,0,2-0.2,2.7-0.7c1.5,0.6,2.9,0.7,5.3,0.7h2.7
		c3.3,0,5.1-0.2,6.2-1.1c0.8-0.6,1.4-1.7,1.4-3.1C582.8,217,581.2,215.2,579.3,215.2z M580.6,220.8c-0.8,0.4-2.1,0.5-5.6,0.5h-2.1
		c2.5-2.4,4.6-4.3,6.1-4.3c1.2,0,2,1.3,2,2.3C581.1,219.9,580.9,220.5,580.6,220.8z"/>
	<path class="st1" d="M617.2,221.2c-0.9-0.9-1.4-2-1.4-3c0-1.4,0.9-2.1,2.6-2.1c0.9,0,2,0.3,2.9,0.6l0.1,0l0.2-1.7
		c-0.8-0.4-2.1-0.8-3.2-0.8c-2.6,0-4.6,1.5-4.6,4c0,1,0.4,2.1,1,3.1c-0.8,0-1.7,0-2.6,0c-2.2,0-2.7-1.8-2.7-4.5v-10l-0.2-0.1
		l-1.7,0.4v9.8c0,0.8-0.1,1.5-0.2,1.9c-0.6,0.3-2.5,0.7-5.9,1l0,0l-0.6,1.7c3.5,0.9,3.9,1.5,3.9,2c-0.4,1.2-3.2,2.1-6.9,2.1
		c-3.9,0-5.1-1.5-5.1-3.8c0-0.6,0.1-1.3,0.3-2.2l-0.2-0.1l-1.5,0.5c-0.2,0.6-0.4,1.6-0.4,2.7c0,2.7,2.2,4.7,6.5,4.7
		c5.2,0,8.8-1.6,9.2-4.5c0-0.7-0.3-1.3-1.5-1.9c1.2-0.2,2.1-0.5,2.8-0.9c0.5,1.9,1.8,2.8,3.7,2.8v0c0,0,0,0,0,0h0l0,0
		c6.1,0,8.9-0.2,10.8-0.6l0.6-1.7l-0.1-0.1C621.1,221,619.3,221.2,617.2,221.2z"/>
	<path class="st1" d="M644,219.3c-1.7-0.6-2.7-0.9-2.7-1.5c0-1.1,1.5-2.9,3.4-2.9c0.7,0,1.5,0.2,2.1,0.5l0.1-0.1l0.3-1.7
		c-0.6-0.4-1.5-0.6-2.5-0.6c-2.9,0-4.9,2.9-4.9,5.1c0,1.9,1.2,2.3,3.1,2.9c1.6,0.5,2.1,0.9,1.9,1.6c-0.9,1.2-3.7,2.5-7,2.5
		c-3.9,0-5.1-1.5-5.1-3.8c0-0.6,0.1-1.3,0.2-2.2l-0.2-0.1l-1.5,0.5c-0.2,0.6-0.4,1.6-0.4,2.7c0,2.7,2.2,4.7,6.5,4.7
		c4.9,0,9.3-2.5,9.3-5.5C646.8,220.6,646.4,220.1,644,219.3z"/>
	<polygon class="st1" points="676.8,226.9 678.8,228.2 680,226.4 678,225.1 	"/>
	<polygon class="st1" points="680.3,226.9 682.2,228.2 683.4,226.4 681.5,225.1 	"/>
	<path class="st1" d="M686.9,207.3V219c0,0.9-0.1,1.5-0.2,1.9c-0.6,0.4-1.5,0.5-2.3,0.5c-2,0-2.9-0.4-3.4-0.7
		c0.5-0.9,0.8-2.2,1.1-3.7l-0.2-0.1l-1.8,0.5c-0.5,2-0.8,3.1-1.2,3.6c-0.4,0.3-1.1,0.5-1.8,0.5h-0.7c-1.5,0-2.4-0.4-2.9-0.7
		c0.2-0.7,0.3-1.6,0.3-2.6c0-0.3,0-0.7,0-1.1l-0.2-0.1l-1.7,0.6c0,0.5,0.1,0.9,0.1,1.3c0,1.1-0.2,1.8-0.4,2.2
		c-0.4,0.3-1,0.4-1.6,0.4c-0.6,0-1.2-0.1-1.7-0.3c0.4-0.8,0.7-1.8,1.1-2.9l-0.1-0.1l-1.9,0.3c-0.4,1.4-0.8,2.4-1.1,2.8
		c-0.3,0.2-0.8,0.3-1.2,0.3c-0.9,0-2.1-0.3-2.8-0.6c0.4-0.7,0.7-1.6,1.1-2.6l-0.1-0.1l-2,0.3c-0.4,1.3-0.7,2.1-1,2.5
		c-0.5,0.3-1.5,0.5-3,0.5c-1.6,0-1.9-0.3-2.5-1.9c-0.2-0.6-0.8-2-1.4-3.7H653l-1.4,1.5c0.7,1.4,1.5,2.9,1.8,4
		c-0.5,1.9-2.2,3.7-6.8,4.6l-0.1,0.2l1,1.4c3.8-0.7,6.4-2.7,7.2-4.9c0.4,0.4,1.1,0.6,2,0.6c2.2,0,3.5-0.3,4.4-1.1
		c0.8,0.6,2.1,1.1,3.7,1.1c1,0,1.7-0.2,2.2-0.6c0.8,0.4,1.7,0.6,2.7,0.6c1.2,0,2.1-0.3,2.9-1c1,0.8,2.3,1,3.3,1l0,0h0.8
		c1.5,0,2.6-0.4,3.3-1.2c1,0.9,2.5,1.2,3.9,1.2l0,0c0,0,0,0,0,0c0,0,0,0,0,0s0,0,0,0c3,0,4.8-0.9,4.8-4.4v-11.9l-0.2-0.1
		L686.9,207.3z"/>
	<polygon class="st1" points="691.9,207.3 691.9,223.3 692.1,223.3 693.8,223 693.8,206.9 693.7,206.8 	"/>
	<path class="st1" d="M711.1,218.1c0,1.9,1.2,2.3,3.1,2.9c1.6,0.5,2.1,0.9,1.9,1.6c-0.9,1.2-3.7,2.5-7,2.5c-3.9,0-5.1-1.5-5.1-3.8
		c0-0.6,0.1-1.3,0.2-2.2l-0.2-0.1l-1.5,0.5c-0.2,0.6-0.4,1.6-0.4,2.7c0,2.7,2.2,4.7,6.5,4.7c4.9,0,9.3-2.5,9.3-5.5
		c0-0.8-0.4-1.4-2.8-2.2c-1.7-0.6-2.7-0.9-2.7-1.5c0-1.1,1.5-2.9,3.4-2.9c0.7,0,1.5,0.2,2.1,0.5l0.1-0.1l0.3-1.7
		c-0.6-0.4-1.5-0.6-2.5-0.6C713.1,213,711.1,215.9,711.1,218.1z"/>
	<polygon class="st1" points="708.8,230.6 710.7,232 711.9,230.1 710,228.8 	"/>
	<polygon class="st1" points="705.3,230.6 707.3,232 708.4,230.1 706.5,228.8 	"/>
	<polygon class="st1" points="730.7,226.9 732.7,228.2 733.8,226.4 731.9,225.1 	"/>
	<path class="st1" d="M731.2,223.2c2.2,0,3.1-0.2,3.8-0.8c0.7-0.7,1.2-1.9,1.2-2.9c0-1-0.5-2.6-1.2-4.3h-0.2l-1.5,1.2
		c0.8,1.8,1.5,3.5,1,4.7c-0.5,0.2-1.3,0.3-2.5,0.3H731l0,0c0,0,0,0,0,0c-1.2,0-1.7-0.4-2.7-2.3c-0.3-0.7-2.1-4.5-2.8-6h-0.2
		l-1.4,1.5c1,1.7,2.8,5.2,3.2,6l0.1,0.1c-0.8,0.6-2.5,0.9-3.9,0.9c-0.6,0-1.8-0.1-2.6-0.2l-0.1,0.1l-0.3,1.8
		c0.9,0.2,2.3,0.3,2.8,0.3c2.4,0,4-0.5,4.9-1.4c0.7,1,1.4,1.3,2.5,1.3c0,0,0,0,0,0l0,0H731.2z"/>
	<polygon class="st1" points="734.1,226.9 736.1,228.2 737.3,226.4 735.4,225.1 	"/>
	<polygon class="st1" points="758.6,210.9 756.6,209.5 755.4,211.3 757.3,212.7 	"/>
	<polygon class="st1" points="755.2,210.9 753.2,209.5 752,211.3 754,212.7 	"/>
	<path class="st1" d="M755.5,215.5c-1.9,0-3.5,2.4-3.5,4.6c0,1.7,1,2.8,3.1,2.8c0.9,0,1.7-0.1,2.4-0.3c-0.1,0.4-0.2,0.7-0.3,1.1
		c-0.7,1.1-2.7,2.2-5.8,2.2c-3.9,0-5.1-1.5-5.1-3.8c0-0.6,0.1-1.3,0.3-2.2l-0.2-0.1l-1.5,0.5c-0.2,0.6-0.4,1.6-0.4,2.7
		c0,2.7,2.2,4.7,6.5,4.7c5.8,0,8.1-2.4,8.1-6.5C759.1,218.3,757.7,215.5,755.5,215.5z M755.4,221c-1.2,0-1.9-0.4-1.9-1.2
		c0-1.3,1-2.5,1.9-2.5c1.1,0,2.1,1.7,2.2,3.5C756.9,220.9,756.2,221,755.4,221z"/>
	<path class="st1" d="M776.2,212.3c-1.9,0-3.5,2.4-3.5,4.6c0,1.7,1,2.8,3.1,2.8c1,0,1.8-0.1,2.5-0.3c0,0.6-0.1,1.2-0.2,1.5
		c-0.7,0.3-2.2,0.5-6.8,0.5l0,0c0,0,0,0,0,0h-1.9v-0.1c0-3.1-1.5-5.7-3.6-5.7c-1.9,0-3.5,2.4-3.5,4.7c0,1.9,1.4,3.1,4.4,3.1h0.7
		c-1,1.6-3.2,2.5-6.1,2.7l-0.1,0.2l1,1.4c4-0.1,6.2-2,7-4.2h1.8c0,0,0,0,0,0l0,0c4.5,0,6.3-0.1,7.6-0.8c1.1-0.8,1.5-2.1,1.5-4.4
		C779.9,215.1,778.5,212.3,776.2,212.3z M767.8,221.3h-1c-2.2,0-3.1-0.5-3.1-1.4c0-1.6,1-2.6,1.9-2.6c1.1,0,2.2,1.8,2.2,3.8V221.3z
		 M776.1,217.8c-1.2,0-1.9-0.4-1.9-1.2c0-1.3,1-2.5,1.9-2.5c1.1,0,2.1,1.7,2.2,3.5C777.7,217.7,777,217.8,776.1,217.8z"/>
	<polygon class="st1" points="777.8,207.8 775.8,206.5 774.6,208.3 776.6,209.6 	"/>
	<polygon class="st1" points="811.4,212.2 809.4,210.9 808.2,212.7 810.2,214.1 	"/>
	<polygon class="st1" points="829.4,226.9 831.4,228.2 832.6,226.4 830.7,225.1 	"/>
	<polygon class="st1" points="826,226.9 828,228.2 829.1,226.4 827.2,225.1 	"/>
	<path class="st1" d="M836.1,207.3V219c0,0.9-0.1,1.5-0.2,1.9c-0.6,0.4-1.5,0.5-2.3,0.5c-2,0-2.9-0.4-3.4-0.7
		c0.5-0.9,0.8-2.2,1.1-3.7l-0.2-0.1l-1.8,0.5c-0.5,2-0.8,3.1-1.2,3.6c-0.4,0.3-1.1,0.5-1.8,0.5h-0.7l0,0c0,0,0,0,0,0
		c-1.5,0-1.9-0.3-2.8-2.1c-0.9-1.9-1.7-3.7-3.5-3.7c-2.2,0-3.4,2.9-4.3,4.4c-0.8,1.2-1.1,1.5-2.1,1.5l0,0c0,0,0,0,0,0
		c-1.6,0-2.4-0.4-3-0.7c0.5-0.9,0.8-2.2,1.2-3.7l-0.2-0.1l-1.8,0.5c-0.5,2-0.8,3.1-1.2,3.6c-0.4,0.3-1.1,0.5-2,0.5h-0.5
		c-2.1,0-4.2-0.9-6.5-1.5l-0.6,1.8c2.8,0.7,3.9,1.2,3.9,2c-0.4,1.2-3.4,2.2-7,2.2c-3.9,0-5.1-1.5-5.1-3.8c0-0.6,0.1-1.3,0.3-2.2
		l-0.2-0.1l-1.5,0.5c-0.2,0.6-0.4,1.6-0.4,2.7c0,2.7,2.2,4.7,6.5,4.7c5.2,0,8.8-1.6,9.2-4.5h0.9c0,0,0,0,0,0l0,0h0.5
		c1.7,0,2.8-0.4,3.6-1.2c1,0.9,2.4,1.2,3.5,1.2v0c0,0,0,0,0,0c0,0,0,0,0,0s0,0,0,0c1.9,0,2.7-0.3,3.6-1.5c1.5,1.1,3.4,1.8,4.8,1.8
		c1,0,1.5-0.4,1.9-1.1c0.6,0.6,1.4,0.8,2.4,0.8c0,0,0,0,0,0l0,0h0.8c1.5,0,2.6-0.4,3.3-1.2c1,0.9,2.5,1.2,3.9,1.2l0,0c0,0,0,0,0,0
		c0,0,0,0,0,0s0,0,0,0c3,0,4.8-0.9,4.8-4.4v-11.9l-0.2-0.1L836.1,207.3z M820.4,221.6c-0.8,0-2.3-0.6-3.5-1.4
		c0.7-1.4,1.5-2.9,2.4-2.9c0.6,0,1.2,0.9,2.2,3.3c0.1,0.1,0.1,0.3,0.2,0.4C821.4,221.5,821,221.6,820.4,221.6z"/>
	<polygon class="st1" points="841.1,207.3 841.1,223.3 841.3,223.3 843,223 843,206.9 842.9,206.8 	"/>
	<polygon class="st1" points="854.5,230.6 856.4,232 857.6,230.1 855.7,228.8 	"/>
	<path class="st1" d="M860.2,218.1c0,1.9,1.2,2.3,3.1,2.9c1.6,0.5,2.1,0.9,1.9,1.6c-0.9,1.2-3.7,2.5-7,2.5c-3.9,0-5.1-1.5-5.1-3.8
		c0-0.6,0.1-1.3,0.2-2.2l-0.2-0.1l-1.5,0.5c-0.2,0.6-0.4,1.6-0.4,2.7c0,2.7,2.2,4.7,6.5,4.7c4.9,0,9.3-2.5,9.3-5.5
		c0-0.8-0.4-1.4-2.8-2.2c-1.7-0.6-2.7-0.9-2.7-1.5c0-1.1,1.5-2.9,3.4-2.9c0.7,0,1.5,0.2,2.1,0.5l0.1-0.1l0.3-1.7
		c-0.6-0.4-1.5-0.6-2.5-0.6C862.3,213,860.2,215.9,860.2,218.1z"/>
	<polygon class="st1" points="857.9,230.6 859.9,232 861.1,230.1 859.2,228.8 	"/>
	<path class="st1" d="M880.4,223.2c2.2,0,3.1-0.2,3.8-0.8c0.7-0.7,1.2-1.9,1.2-2.9c0-1-0.5-2.6-1.2-4.3h-0.2l-1.5,1.2
		c0.8,1.8,1.5,3.5,1,4.7c-0.5,0.2-1.3,0.3-2.5,0.3h-0.7l0,0c0,0,0,0,0,0c-1.2,0-1.7-0.4-2.7-2.3c-0.3-0.7-2.1-4.5-2.8-6h-0.2
		l-1.4,1.5c1,1.7,2.8,5.2,3.2,6l0.1,0.1c-0.8,0.6-2.5,0.9-3.9,0.9c-0.6,0-1.8-0.1-2.6-0.2l-0.1,0.1l-0.3,1.8
		c0.9,0.2,2.3,0.3,2.8,0.3c2.4,0,4-0.5,4.9-1.4c0.7,1,1.4,1.3,2.5,1.3c0,0,0,0,0,0l0,0H880.4z"/>
	<polygon class="st1" points="879.9,226.9 881.8,228.2 883,226.4 881.1,225.1 	"/>
	<polygon class="st1" points="883.3,226.9 885.3,228.2 886.5,226.4 884.5,225.1 	"/>
	<polygon class="st1" points="922.1,210.6 920.1,209.2 918.9,211.1 920.9,212.4 	"/>
	<path class="st1" d="M921.3,215.2c-2.2,0-4.8,2.4-8.7,6.1c-0.9,0-1.5-0.1-2.1-0.3c0.5-0.8,0.9-1.8,1.3-2.9l-0.1-0.1l-1.9,0.3
		c-0.5,1.4-0.8,2.3-1.1,2.7c-0.3,0.2-1.1,0.3-1.8,0.3c-2,0-4-0.5-5.4-1.2c1-0.8,2.1-1.6,3.2-2.6l0.6-1.8l-0.1-0.2
		c-1.3-0.9-2.9-1.2-4.5-1.2c-1.6,0-3.1,0.3-4.3,0.9l-0.8,2l0.1,0.2c1.4,0.8,2.4,1.7,3.3,2.7c-2.8,2-5.6,4.2-5.6,7.9
		c0,3.4,3,5.3,7.6,5.3c2.1,0,3.7-0.3,5-0.8l0.6-1.6l-0.2-0.1c-1.4,0.4-3.2,0.7-4.8,0.7c-3.9,0-6.3-1.3-6.3-3.8
		c0-2.6,1.9-4.1,4.9-6.4c1.6,1.2,3.8,2,6.3,2v0c0,0,0,0,0,0c0,0,0,0,0,0c0,0,0,0,0,0c1.1,0,2-0.2,2.7-0.7c1.5,0.6,2.9,0.7,5.3,0.7
		h2.7c3.3,0,5.1-0.2,6.2-1.1c0.8-0.6,1.4-1.7,1.4-3.1C924.9,217,923.3,215.2,921.3,215.2z M897.4,216.7c0.9-0.3,1.9-0.5,3.1-0.5
		c0.9,0,1.8,0.1,2.8,0.5c-0.8,0.9-1.9,1.7-3,2.5C899.2,218,898.3,217.2,897.4,216.7z M922.7,220.8c-0.8,0.4-2.1,0.5-5.6,0.5H915
		c2.5-2.4,4.6-4.3,6.1-4.3c1.2,0,2,1.3,2,2.3C923.1,219.9,923,220.5,922.7,220.8z"/>
	<path class="st1" d="M930.7,203.7c-0.6,0.1-1.4,0.1-2.2,0.2c-0.3-0.3-0.5-0.6-0.5-1c0-0.5,0.3-0.9,0.9-0.9c0.3,0,0.7,0.1,1.1,0.2
		l0.3-1.2c-0.6-0.2-1.2-0.3-1.7-0.3c-1.2,0-2,0.7-2,1.9c0,0.5,0.2,1,0.4,1.4c-0.4,0-0.7,0-1.1,0l0.1,1.3c1.9-0.1,3.4-0.2,4.6-0.3
		L930.7,203.7z"/>
	<polygon class="st1" points="927.7,207.3 927.7,223.3 927.9,223.3 929.6,223 929.6,206.9 929.5,206.8 	"/>
</g>
<linearGradient id="SVGID_2_" gradientUnits="userSpaceOnUse" x1="505.4741" y1="409.7341" x2="1024.014" y2="409.7341">
	<stop  offset="0.1199" style="stop-color:#FFFFFF"/>
	<stop  offset="0.9969" style="stop-color:#FEF1D4"/>
</linearGradient>
<rect x="505.5" y="269.7" class="st2" width="518.5" height="280"/>
<g>
	<path class="st3" d="M629.4,383.9V367l-0.4-0.2l-4.1,1.1V384c0,1.3-0.1,2.2-0.3,2.8c-0.8,0.4-3.4,0.8-5.9,0.8h-2
		c-7.1,0-9.9-1-9.9-4.7c0-0.9,0.1-1.9,0.3-3l-0.4-0.2l-3.2,1.2c-0.4,1.5-0.6,2.8-0.6,4.4c0,4.4,4.3,6.7,12.3,6.7h2.2
		C626.6,392.1,629.4,389.7,629.4,383.9z"/>
	<path class="st3" d="M613.2,381.6c2.8-0.1,5.3-0.3,7.1-0.5l-0.2-2.4c-0.9,0.1-2,0.2-3.1,0.3c-0.5-0.4-0.8-1-0.8-1.6
		c0-0.8,0.5-1.1,1.3-1.1c0.4,0,1,0.1,1.6,0.3l0.6-2.3c-0.9-0.4-1.9-0.6-2.7-0.6c-2,0-3.2,1.3-3.2,3.1c0,0.8,0.3,1.6,0.8,2.3
		c-0.6,0-1.2,0-1.7,0L613.2,381.6z"/>
	<polygon class="st3" points="699.3,397 695.5,394.3 693.1,397.9 697,400.6 	"/>
	<path class="st3" d="M699.7,385.3c0-1.7-0.8-4.8-2-7.4h-0.4l-3.6,2.9c1.2,2.4,2.3,4.8,2.1,6.2c-0.5,0.2-2.2,0.3-3.5,0.3H692
		c-3.5,0-5.3-0.2-6.5-0.9c1.2-0.3,2.1-0.4,3.1-0.5l0.8-4c-2.5,0-4.8-0.6-8.6-2.3c-2.8-1.3-4.3-1.7-5.5-1.7c-1.2,0-2.4,0.4-3.3,0.8
		l-1.6,4l0.2,0.1c1.2-0.4,2.5-0.7,4.1-0.7c1.5,0,3.1,0.4,6,1.8c0.5,0.2,0.9,0.4,1.2,0.5c-0.8,0.3-1.7,0.5-2.8,1
		c-4.1,1.5-6.3,1.9-9.9,1.9l0,0c0,0,0,0,0,0c-2.1,0-2.8-0.5-4-2.9c-1.5-3-2.9-5.4-5.5-5.4c-3,0-4.8,3.2-6.7,6.6
		c-0.8,1.5-1.3,1.7-2.9,1.7l0,0c0,0,0,0,0,0c-2.4,0-3.1-0.4-4.4-3.4c-0.5-1.2-2.9-6.7-3.8-9h-0.4l-3.2,3.7c1.5,2.8,3.4,6.6,4.2,8.1
		c-1.4,0.6-3.5,0.8-5.2,0.8c-0.8,0-2.5-0.1-3.7-0.3l-0.3,0.1l-0.6,4.4c1.3,0.3,3.2,0.4,4.2,0.4c3.1,0,5.8-0.8,7.5-2
		c1,1.3,2.5,1.7,4.8,1.7c0,0,0,0,0,0l0,0c2.7,0,4.5-0.2,6-2c2.4,1.7,4.8,2.5,6.4,2.5c1.4,0,2.3-0.6,3.1-1.7c1,0.9,2.2,1.3,3.7,1.3
		c0,0,0,0,0,0l0,0c4,0,7.2-0.8,12.2-3.3l1.3-0.6c1.4,2.5,3.4,4,9.3,4l0,0h0.4c3.6,0,5.2-0.5,6.4-1.6
		C699.1,388.8,699.7,387.1,699.7,385.3z M660.7,387.9c-1,0-2.5-0.6-3.9-1.6c1-1.8,1.8-3.1,2.6-3.1c0.8,0,1.7,1.2,2.8,3.9l0.1,0.2
		C662,387.7,661.6,387.9,660.7,387.9z"/>
	<path class="st3" d="M715.5,388.1c0-5-2.3-9.2-6-9.2c-3.4,0-6,4.1-6,7.4c0,2.6,1.6,4.3,4.9,4.3c1.1,0,2-0.1,2.9-0.2
		c-1.3,2.4-4.6,3.8-9.6,3.9l-0.3,0.4l2.2,3.4C711.7,398,715.5,393,715.5,388.1z M709.3,386.8c-1.7,0-2.4-0.3-2.4-1.1
		c0-1.1,1-2.5,2.2-2.5c1.3,0,2.4,1.6,2.7,3.4C711,386.7,710.2,386.8,709.3,386.8z"/>
	<path class="st3" d="M761.3,394.3c0-0.9-0.3-1.8-0.8-2.6h2.1c0,0,0,0,0,0l0,0c3.6,0,5.4-0.5,6.7-2.1c1.2,1.7,3.1,2.1,4.5,2.1
		c0,0,0,0,0,0v0c5.4,0,8.6-1.5,8.6-7.8V367l-0.3-0.2l-4.2,1.1v16.2c0,1.3-0.1,2.1-0.3,2.7c-0.7,0.4-1.9,0.5-2.9,0.5v0c0,0,0,0,0,0
		c-2.7,0-3.6-0.4-3.6-3.2V367l-0.3-0.2l-4.2,1.1v16.2c0,1.3-0.1,2.1-0.3,2.7c-0.7,0.4-1.9,0.5-2.9,0.5l0,0c0,0,0,0,0,0h-4.6
		c1-0.9,1.8-2.6,1.8-4c0-2.2-1.6-4.2-5-6.8l-0.3,0l-2.9,1.7c-2.1,2.6-3.7,5.9-4.4,9h-1.5l0,0c0,0,0,0,0,0c-2.3,0-2.7-0.6-4-2.9
		c-1.7-3.3-2.8-5.4-5.4-5.4c-2.4,0-5.7,2.5-8,5.2c-1.7,2.1-2.5,4.4-2.5,7.7c0,2.2,0.8,8,1.7,12.6l0.3,0.2l3.8-1.8
		c-0.9-4.8-1.9-11.7-1.7-14.1l0.6-0.9c2.8,3,5.2,4.3,7.3,4.3c1.3,0,2.3-0.7,3.1-1.8c1,1,2.2,1.3,3.7,1.3c0,0,0,0,0,0l0,0h2.2
		c0.5,4.6,3.5,7.2,7.9,7.2C758.8,398.9,761.3,397.1,761.3,394.3z M738.4,387.9c-1.2,0-2.8-1-4.5-2.8c1.1-1.1,2.2-1.9,3-1.9
		c0.9,0,1.7,1.2,3,3.9c0,0.1,0.1,0.1,0.1,0.2C739.5,387.6,739,387.9,738.4,387.9z M754.9,380.7c1,1.2,1.5,2.1,1.5,3
		c0,2.2-1.8,3.6-4.2,3.7C752.6,385.2,753.4,382.8,754.9,380.7z M756.3,395c-2.1,0-3.8-1.2-4.2-3.4c0.5-0.1,1-0.2,1.5-0.2
		c2.6,0,4.3,1.6,4.3,3.2C757.5,394.8,756.9,395,756.3,395z"/>
	<polygon class="st3" points="791.1,391.1 791.2,367 790.9,366.8 786.7,367.9 786.7,391.7 787,392 	"/>
	<path class="st3" d="M813.1,381.6c2.8-0.1,5.3-0.3,7.1-0.5l-0.2-2.4c-0.9,0.1-2,0.2-3.1,0.3c-0.5-0.4-0.8-1-0.8-1.6
		c0-0.8,0.5-1.1,1.3-1.1c0.4,0,1,0.1,1.6,0.3l0.6-2.3c-0.9-0.4-1.9-0.6-2.7-0.6c-2,0-3.2,1.3-3.2,3.1c0,0.8,0.3,1.6,0.8,2.3
		c-0.6,0-1.2,0-1.7,0L813.1,381.6z"/>
	<path class="st3" d="M815.2,392.1h2.2c5.2,0,8.2-0.8,9.8-2.4c1.1,1.4,2.8,2,4.7,2c0,0,0,0,0,0l0,0h0.4c3.6,0,5.2-0.5,6.4-1.6
		c1.3-1.3,1.9-3,1.9-4.8c0-1.7-0.8-4.8-2-7.4h-0.4l-3.6,2.9c1.2,2.4,2.3,4.8,2.1,6.2c-0.5,0.2-2.2,0.3-3.5,0.3h-0.4l0,0c0,0,0,0,0,0
		c-3,0-3.5-1-3.5-4.1V367l-0.4-0.2l-4.1,1.1v16.2c0,1.3-0.1,2.1-0.3,2.7c-0.6,0.4-3.1,0.9-5.9,0.9h-2c-7.1,0-9.9-1-9.9-4.7
		c0-0.9,0.1-1.9,0.3-3l-0.4-0.2l-3.2,1.2c-0.4,1.5-0.6,2.8-0.6,4.4C802.9,389.8,807.2,392.1,815.2,392.1z"/>
	<polygon class="st3" points="839.7,371.5 835.9,368.8 833.5,372.4 837.4,375.1 	"/>
	<path class="st3" d="M864,388.4l1.3-0.6c1.4,2.5,3.4,4,9.3,4l0,0h0.7c2.6,0,4.4-0.6,5.8-1.7c1.4,1.1,3.8,1.7,5.6,1.7c0,0,0,0,0,0v0
		c3.3,0,5.3-0.4,6.7-1.5c1.2,0.8,3.2,1.5,5.5,1.5c1.4,0,2.5-0.3,3.4-1c1.3,0.6,2.7,1,4.8,1c4.5,0,7.8-2.1,7.8-6.4
		c0-2.2-0.8-4.9-1.7-7.4l-0.2,0l-3.9,2.9c0.9,1.9,2,4.6,1.8,6c-0.8,0.3-2,0.5-3.2,0.5c-0.9,0-1.8-0.1-2.7-0.4c0.5-1.3,1-2.9,1.6-4.7
		l-0.1-0.1l-4.5,0.8c-0.4,1.7-0.8,3.7-1.1,4.1c-0.3,0.2-0.7,0.3-1.3,0.3c-1.2,0-2.6-0.3-3.6-0.6c0.5-1.2,1-2.7,1.6-4.5l-0.1-0.1
		l-4.9,0.8c-0.2,1.5-0.6,3.4-0.9,4c-0.6,0.3-1.6,0.4-4,0.4v0c0,0,0,0,0,0c-1.7,0-3.1-0.3-4.1-0.7c0.7-1.6,1.2-3.5,1.7-5.7l-0.4-0.3
		l-4.6,1.1c-0.4,2.4-0.9,4.1-1.2,5c-0.5,0.3-1.5,0.5-2.8,0.5h-0.6c-3.5,0-5.3-0.2-6.5-0.9c1.2-0.3,2.1-0.4,3.1-0.5l0.8-4
		c-2.5,0-4.8-0.6-8.6-2.3c-2.8-1.3-4.3-1.7-5.5-1.7c-1.2,0-2.4,0.4-3.3,0.8l-1.6,4l0.2,0.1c1.2-0.4,2.5-0.7,4.1-0.7
		c1.5,0,3.1,0.4,6,1.8c0.5,0.2,0.9,0.4,1.2,0.5c-0.8,0.3-1.7,0.5-2.8,1c-4.1,1.5-6.3,1.9-9.9,1.9v0c0,0,0,0,0,0
		c-2.6,0-3.6-0.7-3.6-3.2V367l-0.4-0.2l-4.1,1.1v16.5c0,5.2,2.4,7.3,7.1,7.3c0,0,0,0,0,0v0C855.8,391.7,859,390.9,864,388.4z"/>
	<polygon class="st3" points="877.8,397.9 881.7,400.6 884.1,397 880.2,394.3 	"/>
	<path class="st3" d="M919.5,378.1c1.9-2.3,3.3-4.6,3.3-7.4c0-1.6-1-2.8-2.7-2.8c-1.7,0-2.6,1.3-2.6,2.4c0,1.1,0.5,1.6,1.2,2.2
		c0.4,0.3,0.5,0.6,0.5,1c0,1-0.9,2.2-1.7,3.4L919.5,378.1z"/>
	<path class="st3" d="M926,378.1c1.9-2.3,3.3-4.6,3.3-7.4c0-1.6-1-2.8-2.7-2.8c-1.7,0-2.6,1.3-2.6,2.4c0,1.1,0.5,1.6,1.2,2.2
		c0.4,0.3,0.5,0.6,0.5,1c0,1-0.9,2.2-1.7,3.4L926,378.1z"/>
	<path class="st3" d="M609.3,425.9V442c0,1.3-0.1,2.2-0.3,2.8c-0.8,0.4-3.4,0.8-5.9,0.8h-2c-7.1,0-9.9-1-9.9-4.7
		c0-0.9,0.1-1.9,0.3-3l-0.4-0.2l-3.2,1.2c-0.4,1.5-0.6,2.8-0.6,4.4c0,4.4,4.3,6.7,12.3,6.7h2.2c9.1,0,12-2.4,12-8.3V425l-0.4-0.2
		L609.3,425.9z"/>
	<path class="st3" d="M597.6,439.6c2.8-0.1,5.3-0.3,7.1-0.5l-0.2-2.4c-0.9,0.1-2,0.2-3.1,0.3c-0.5-0.4-0.8-1-0.8-1.6
		c0-0.8,0.5-1.1,1.3-1.1c0.4,0,1,0.1,1.6,0.3l0.6-2.3c-0.9-0.4-1.9-0.6-2.7-0.6c-2,0-3.2,1.3-3.2,3.1c0,0.8,0.3,1.6,0.8,2.3
		c-0.6,0-1.2,0-1.7,0L597.6,439.6z"/>
	<polygon class="st3" points="639.9,455.9 643.8,458.6 646.1,455 642.3,452.3 	"/>
	<path class="st3" d="M640.4,435.8c-1.2,0-2.4,0.4-3.3,0.8l-1.6,4l0.2,0.2c1.2-0.4,2.5-0.7,4.1-0.7c1.5,0,3.1,0.5,5.9,2
		c0.6,0.3,1.2,0.6,1.7,0.8c-1,0.3-2.2,0.5-3.7,1c-4.6,1.2-6.6,1.4-9.4,1.4l0,0c0,0,0,0,0,0c-2.4,0-3.1-0.4-4.4-3.4
		c-0.5-1.2-2.9-6.7-3.8-9h-0.4l-3.2,3.7c1.5,2.8,3.4,6.6,4.2,8.1c-1.4,0.6-3.5,0.8-5.2,0.8c-0.8,0-2.5-0.1-3.7-0.3l-0.3,0.1
		l-0.6,4.4c1.3,0.3,3.2,0.4,4.2,0.4c3.1,0,5.8-0.8,7.5-2c1,1.3,2.5,1.7,4.8,1.7c0,0,0,0,0,0l0,0c2.7,0,5.2-0.5,10.2-2.2
		c3.7-1.3,7.1-2.1,9.6-2.4l1.2-4.3c-1.7-0.1-3.4-0.7-7.3-2.6C643.5,436.3,642.1,435.8,640.4,435.8z"/>
	<path class="st3" d="M686.1,424.9v13.8c0,1.2-0.1,2.5-0.2,3.2c-1.2,0.7-2.9,1-4.4,1.3l0,0c0,0,0,0,0,0l-1.3,3.9
		c5,1.1,5.9,2.1,5.9,2.8c-1.2,1.3-5.4,2.1-9.6,2.1c-5.7,0-7.3-2-7.3-5.1c0-0.8,0.1-1.6,0.4-3.1l-0.4-0.2l-3.7,1.3
		c-0.3,1.3-0.6,2.8-0.6,4.1c0,4.3,3.5,7.6,10.9,7.6c7.9,0,14.2-2.9,14.4-7.7c0-1.3-0.6-2.4-2.3-3.4c2.2-1.4,2.8-3.5,2.8-6.1V424
		l-0.4-0.2L686.1,424.9z"/>
	<polygon class="st3" points="728.1,430.5 731.6,433 733.9,429.5 730.2,427 728.6,429.4 725.1,427 722.8,430.4 726.5,433 	"/>
	<path class="st3" d="M729.8,435.9l-3.6,2.9c1.2,2.4,2.2,4.8,2,6.2c-0.5,0.2-2.2,0.3-3.5,0.3h-1.1l0,0c0,0,0,0,0,0
		c-2.9,0-5.4-0.1-7.3-0.7c1.4-1.2,2.7-2.5,4.2-3.7l1-3.8l-0.1-0.4c-2.1-1.3-4.9-1.8-7.6-1.8c-2.7,0-5.3,0.6-7.3,1.5l-1.4,4l0.1,0.4
		c1.7,0.8,3.3,2.1,4.8,3.6c-2,0.7-4.2,1-7,1c-2.6,0-3.6-0.7-3.6-3.2V425l-0.4-0.2l-4.1,1.1v16.5c0,5.2,2.4,7.3,7.1,7.3
		c5,0,8.2-1.1,10.8-2.6c2.4,1.7,5.7,2.6,9.8,2.6c0,0,0,0,0,0l0,0h1.2c3.6,0,5.2-0.5,6.4-1.6c1.3-1.3,1.9-3,1.9-4.8
		c0-1.7-0.8-4.8-2-7.4H729.8z M713.2,442.6c-1.2-1.3-2.3-2.4-3.5-3.2c1.1-0.3,2.2-0.5,3.5-0.5c1.1,0,2.3,0.2,3.5,0.5
		C715.5,440.8,714.4,441.8,713.2,442.6z"/>
	<path class="st3" d="M741.9,436.9c-3.4,0-6,4.1-6,7.4c0,2.6,1.6,4.3,4.9,4.3c1.1,0,2-0.1,2.9-0.2c-1.3,2.4-4.6,3.8-9.6,3.9
		l-0.3,0.4l2.2,3.4c8.1-0.1,11.9-5.1,11.9-10C747.9,441.1,745.6,436.9,741.9,436.9z M741.7,444.8c-1.7,0-2.4-0.3-2.4-1.1
		c0-1.1,1-2.5,2.2-2.5c1.3,0,2.4,1.6,2.7,3.4C743.4,444.7,742.6,444.8,741.7,444.8z"/>
	<path class="st3" d="M769.5,439.6c2.8-0.1,5.3-0.3,7.1-0.5l-0.2-2.4c-0.9,0.1-2,0.2-3.1,0.3c-0.5-0.4-0.8-1-0.8-1.6
		c0-0.8,0.5-1.1,1.3-1.1c0.4,0,1,0.1,1.6,0.3l0.6-2.3c-0.9-0.4-1.9-0.6-2.7-0.6c-2,0-3.2,1.3-3.2,3.1c0,0.8,0.3,1.6,0.8,2.3
		c-0.6,0-1.2,0-1.7,0L769.5,439.6z"/>
	<path class="st3" d="M781.2,442.1c0,1.3-0.1,2.1-0.3,2.7c-0.6,0.4-3.1,0.9-5.9,0.9h-2c-7.1,0-9.9-1-9.9-4.7c0-0.9,0.1-1.9,0.3-3
		l-0.4-0.2l-3.2,1.2c-0.4,1.5-0.6,2.8-0.6,4.4c0,4.4,4.3,6.7,12.3,6.7h2.2c5.2,0,8.2-0.8,9.8-2.4c1.1,1.4,2.8,2,4.7,2c0,0,0,0,0,0
		l0,0c2.7,0,4.5-0.2,6-2c2.4,1.7,4.8,2.5,6.4,2.5c1.4,0,2.3-0.6,3.1-1.7c1,0.9,2.2,1.3,3.7,1.3c0,0,0,0,0,0l0,0
		c3.3,0,5.3-0.4,6.7-1.5c1.2,0.8,3.2,1.5,5.5,1.5c1.4,0,2.5-0.3,3.4-1c1.3,0.6,2.7,1,4.8,1c4.5,0,7.8-2.1,7.8-6.4
		c0-2.2-0.8-4.9-1.7-7.4l-0.2,0l-3.9,2.9c0.9,1.9,2,4.6,1.8,6c-0.8,0.3-2,0.5-3.2,0.5c-0.9,0-1.8-0.1-2.7-0.4c0.5-1.3,1-2.9,1.6-4.7
		l-0.1-0.1l-4.5,0.8c-0.4,1.7-0.8,3.7-1.1,4.1c-0.3,0.2-0.7,0.3-1.3,0.3c-1.2,0-2.6-0.3-3.6-0.6c0.5-1.2,1-2.7,1.6-4.5l-0.1-0.1
		l-4.9,0.8c-0.2,1.5-0.6,3.4-0.9,4c-0.6,0.3-1.6,0.4-4,0.4l0,0c0,0,0,0,0,0c-2.1,0-2.8-0.5-4-2.9c-1.5-3-2.9-5.4-5.5-5.4
		c-3,0-4.8,3.2-6.7,6.6c-0.8,1.5-1.3,1.7-2.9,1.7l0,0c0,0,0,0,0,0c-3,0-3.5-1-3.5-4.1V425l-0.4-0.2l-4.1,1.1V442.1z M798.7,441.2
		c0.8,0,1.7,1.2,2.8,3.9l0.1,0.2c-0.4,0.4-0.8,0.6-1.7,0.6c-1,0-2.5-0.6-3.9-1.6C797,442.5,797.9,441.2,798.7,441.2z"/>
	<polygon class="st3" points="839.8,425.9 839.8,449.7 840.1,450 844.2,449.1 844.3,425 844,424.8 	"/>
	<path class="st3" d="M882.4,425l-0.4-0.2l-4.1,1.1V442c0,1.3-0.1,2.2-0.3,2.8c-0.8,0.4-3.4,0.8-5.9,0.8h-2c-7.1,0-9.9-1-9.9-4.7
		c0-0.9,0.1-1.9,0.3-3l-0.4-0.2l-3.2,1.2c-0.4,1.5-0.6,2.8-0.6,4.4c0,4.4,4.3,6.7,12.3,6.7h2.2c9.1,0,12-2.4,12-8.3V425z"/>
	<path class="st3" d="M866.2,439.6c2.8-0.1,5.3-0.3,7.1-0.5l-0.2-2.4c-0.9,0.1-2,0.2-3.1,0.3c-0.5-0.4-0.8-1-0.8-1.6
		c0-0.8,0.5-1.1,1.3-1.1c0.4,0,1,0.1,1.6,0.3l0.6-2.3c-0.9-0.4-1.9-0.6-2.7-0.6c-2,0-3.2,1.3-3.2,3.1c0,0.8,0.3,1.6,0.8,2.3
		c-0.6,0-1.2,0-1.7,0L866.2,439.6z"/>
	<path class="st3" d="M892.7,437.7l-3.2,3.6c1.3,2.2,2.5,5,2.6,6.2c0,1.3-4.1,4.1-10,5.1l-0.3,0.4l2.4,3.3c4.7-0.8,8.8-3,10.3-5.8
		c0.8-1.3,1-2.8,1-4.2c0-2.2-0.8-5.7-2.4-8.6H892.7z"/>
	<polygon class="st3" points="912.4,452.3 910,455.9 913.9,458.6 916.2,455 	"/>
	<path class="st3" d="M925.9,435.9l-3.6,2.9c1.2,2.4,2.2,4.8,2,6.2c-0.5,0.2-2.2,0.3-3.5,0.3h-1.1v0c0,0,0,0,0,0
		c-1.7,0-3.1-0.3-4.1-0.7c0.7-1.6,1.2-3.5,1.7-5.7l-0.4-0.3l-4.6,1.1c-0.4,2.4-0.9,4.1-1.2,5c-0.5,0.3-1.5,0.5-2.8,0.5h-0.6v0
		c0,0,0,0,0,0c-2.6,0-3.6-0.7-3.6-3.2V425l-0.4-0.2l-4.1,1.1v16.5c0,5.2,2.4,7.3,7.1,7.3c0,0,0,0,0,0v0h0.7c2.6,0,4.4-0.6,5.8-1.7
		c1.4,1.1,3.8,1.7,5.6,1.7c0,0,0,0,0,0v0h1.2c3.6,0,5.2-0.5,6.4-1.6c1.3-1.3,1.9-3,1.9-4.8c0-1.7-0.8-4.8-2-7.4H925.9z"/>
	<polygon class="st3" points="924.7,429.4 921.2,427 918.9,430.4 922.6,433 924.2,430.5 927.7,433 930,429.5 926.3,427 	"/>
	<path class="st3" d="M760.8,483.9c-1.9,2.3-3.4,4.6-3.4,7.5c0,1.6,1,2.8,2.7,2.8c1.7,0,2.6-1.3,2.6-2.4c0-1.1-0.5-1.6-1.2-2.2
		c-0.3-0.3-0.5-0.6-0.5-1c0-1,0.8-2.2,1.7-3.4L760.8,483.9z"/>
	<path class="st3" d="M767.3,483.9c-1.9,2.3-3.3,4.6-3.3,7.5c0,1.6,1,2.8,2.7,2.8c1.7,0,2.6-1.3,2.6-2.4c0-1.1-0.5-1.6-1.2-2.2
		c-0.4-0.3-0.5-0.6-0.5-1c0-1,0.9-2.2,1.7-3.4L767.3,483.9z"/>
	<path class="st3" d="M797.8,483l-0.4-0.2l-4.1,1.1V500c0,1.3-0.1,2.2-0.3,2.8c-0.8,0.4-3.4,0.8-5.9,0.8h-2c-7.1,0-9.9-1-9.9-4.7
		c0-0.9,0.1-1.9,0.3-3l-0.4-0.2L772,497c-0.4,1.5-0.6,2.8-0.6,4.4c0,4.4,4.3,6.7,12.3,6.7h2.2c9.1,0,12-2.4,12-8.3V483z"/>
	<path class="st3" d="M781.5,497.6c2.8-0.1,5.3-0.3,7.1-0.5l-0.2-2.4c-0.9,0.1-2,0.2-3.1,0.3c-0.5-0.4-0.8-1-0.8-1.6
		c0-0.8,0.5-1.1,1.3-1.1c0.4,0,1,0.1,1.6,0.3l0.6-2.3c-0.9-0.4-1.9-0.6-2.7-0.6c-2,0-3.2,1.3-3.2,3.1c0,0.8,0.3,1.6,0.8,2.3
		c-0.6,0-1.2,0-1.7,0L781.5,497.6z"/>
	<polygon class="st3" points="820,512.8 816.5,510.3 814.2,513.7 817.9,516.3 819.5,513.8 823,516.3 825.3,512.9 821.7,510.3 	"/>
	<path class="st3" d="M835.2,503.1c-0.8-1-1.2-2.1-1.2-3.1c0-1.9,1.3-3,3.3-3c1.1,0,2.5,0.3,3.7,0.7l0.1-0.1l0.5-3.8
		c-1.6-0.6-3.5-1.1-5.2-1.1c-4.2,0-7.5,2.5-7.5,6.9c0,1.2,0.3,2.4,0.9,3.5h-2.6c-2.4,0-4-0.3-5.1-0.7c0.7-1.6,1.2-3.5,1.7-5.6
		l-0.4-0.3l-4.6,1.1c-0.4,2.4-0.9,4.1-1.3,5c-0.4,0.3-1.6,0.5-2.5,0.5h-0.8l0,0c0,0,0,0,0,0c-2.4,0-3.2-0.4-4.2-3.2l-1.5-4.4H808
		l-3.2,3.7c0.9,1.9,1.9,4,2.7,5.7c-1.2,2.2-4.5,4.6-10.1,5.6l-0.3,0.4l2.4,3.3c5.3-0.9,9.5-3.5,10.8-7.1c0.8,0.3,1.7,0.5,2.9,0.5
		c0,0,0,0,0,0l0,0h1.2c2.3,0,4-0.6,5.3-1.7c1.4,1.1,3.8,1.7,6.5,1.7l0,0c0,0,0,0,0,0c0,0,0,0,0,0c0,0,0,0,0,0
		c8.7,0,13.1-0.4,15.9-0.9l1.3-4.1l-0.3-0.3C840.7,502.8,838.1,503,835.2,503.1z"/>
	<polygon class="st3" points="833.2,486.7 837.1,489.4 839.4,485.8 835.6,483.2 	"/>
	<path class="st3" d="M873.8,483.9v16.2c0,1.3-0.1,2.1-0.3,2.7c-0.7,0.4-1.9,0.5-2.9,0.5l0,0c0,0,0,0,0,0c-2.7,0-3.4-0.6-3.4-2.5
		v-10.8l-0.3-0.1l-4.2,1.6v1.7c-5.7,1.9-8.6,5.2-8.6,8.2c0,2.8,2.4,4.6,6.4,4.6c1.2,0,2.2-0.2,3.3-0.6c1.2,1.7,3.2,2.4,5.8,2.4
		c0,0,0,0,0.1,0l0,0c5.4,0,8.6-1.5,8.6-7.8V483l-0.3-0.2L873.8,483.9z M862.7,500.7v0.7c-0.5,0.1-1.1,0.1-1.8,0.1
		c-1.3,0-2.8-0.5-3.2-1.5c0.4-1.1,2.5-2.2,5-2.8V500.7z"/>
	<path class="st3" d="M885.3,515c-0.5-0.4-0.7-0.9-0.7-1.5c0-0.7,0.4-1.2,1.2-1.2c0.4,0,0.9,0.1,1.5,0.3l0.6-2.3
		c-0.9-0.4-1.9-0.5-2.7-0.5c-2.1,0-3.2,1.3-3.2,3.1c0,0.8,0.3,1.6,0.8,2.2c-0.5,0-1.1,0-1.6,0l0.3,2.6c2.8-0.1,5.3-0.3,7-0.5
		l-0.2-2.5C887.4,514.9,886.4,514.9,885.3,515z"/>
	<polygon class="st3" points="887.2,483 886.8,482.8 882.6,483.9 882.6,507.7 882.9,508 887.1,507.1 	"/>
	<path class="st3" d="M911.6,482.8l-0.3-0.1l-4,2c0.4,1.5,0.9,4.4,0.9,6.5c0,1.3-0.1,2.4-0.4,3.4c-2.1-2.1-4.7-4.4-7.7-6.7l-0.3,0.1
		l-1.3,4.4c2.1,1.3,5.3,3.6,7.6,5.7c-1.5,2.2-3.7,3.7-6.2,5l-0.3,4.4h5c5.5,0,7.4-2,7.4-5.2c0-1.5-0.7-3.2-1.9-4.9
		c1.2-2.1,2.1-4.6,2.1-7.7C912.4,487.9,912,484.7,911.6,482.8z M905.5,503.2h-0.8c1-0.6,2.2-1.6,3.4-2.9c0.7,0.8,1.1,1.6,1.1,2.2
		C908.7,503,907.7,503.2,905.5,503.2z"/>
	<path class="st3" d="M922.2,494.9c-3.4,0-6,4.1-6,7.4c0,2.6,1.6,4.3,4.9,4.3c1.1,0,2-0.1,2.9-0.2c-1.3,2.4-4.6,3.8-9.6,3.9
		l-0.3,0.4l2.2,3.4c8.1-0.1,11.9-5.1,11.9-10C928.3,499.1,926,494.9,922.2,494.9z M922.1,502.8c-1.7,0-2.4-0.3-2.4-1.1
		c0-1.1,1-2.5,2.2-2.5c1.3,0,2.4,1.6,2.7,3.4C923.8,502.7,923,502.8,922.1,502.8z"/>
</g>
<g>
	<path class="st1" d="M802.1,315.6c-0.8,0-1.5,0.7-1.5,1.5c0,0.8,0.7,1.5,1.5,1.5c0.8,0,1.5-0.7,1.5-1.5
		C803.6,316.3,802.9,315.6,802.1,315.6z"/>
	<path class="st1" d="M802.1,323c-0.8,0-1.5,0.7-1.5,1.5c0,0.8,0.7,1.5,1.5,1.5c0.8,0,1.5-0.7,1.5-1.5
		C803.6,323.7,802.9,323,802.1,323z"/>
	<polygon class="st1" points="810.7,340.9 816.4,339.8 816.4,338.6 810.7,339.7 	"/>
	<path class="st1" d="M814,333.9c-4.1,0-6.9-1.8-6.9-4.8c0-3.9,4.4-7.8,11-7.9l0.5-1.9c-2.4,0-4.4-0.3-6.9-1
		c-1.4-0.4-2.2-0.6-3.1-0.6c-0.8,0-1.8,0.2-2.5,0.5l-0.7,1.8l0.1,0.1c0.8-0.2,1.9-0.5,3-0.5c1,0,1.8,0.1,3.4,0.6
		c0.3,0.1,0.6,0.2,0.8,0.2c-3.9,1.8-7.4,5.1-7.4,9.2c0,3.8,3.4,6.2,8.2,6.2c1.8,0,3.9-0.4,4.9-1l0.5-1.5l-0.1-0.2
		C817.2,333.6,815.6,333.9,814,333.9z"/>
	<polygon class="st1" points="830.4,314.8 828.4,313.4 827.2,315.3 829.2,316.6 	"/>
	<polygon class="st1" points="833.7,314.8 831.8,313.4 830.6,315.3 832.5,316.6 	"/>
	<polygon class="st1" points="840.8,312.3 838.8,311 837.6,312.8 839.6,314.2 	"/>
	<polygon class="st1" points="849.1,314.8 847.1,313.4 846,315.3 847.9,316.6 	"/>
	<polygon class="st1" points="852.5,314.8 850.5,313.4 849.3,315.3 851.2,316.6 	"/>
	<path class="st1" d="M868.2,317.7l-1.6,1.2c0.8,1.8,1.5,3.5,1,4.7c-0.5,0.2-1.3,0.3-2.2,0.3c-0.6,0-1.2-0.1-1.7-0.3
		c0.4-0.8,0.7-1.8,1.1-2.9l-0.1-0.1l-1.9,0.3c-0.4,1.4-0.8,2.4-1.1,2.8c-0.3,0.2-0.8,0.3-1.2,0.3c-0.9,0-2.1-0.3-2.8-0.6
		c0.4-0.7,0.7-1.6,1.1-2.6l-0.1-0.1l-2,0.3c-0.4,1.3-0.7,2.1-1,2.5c-0.5,0.3-1.5,0.5-3,0.5c-2,0-2.9-0.4-3.4-0.7
		c0.5-0.9,0.8-2.2,1.1-3.7l-0.2-0.1l-1.8,0.5c-0.5,2-0.8,3.1-1.2,3.6c-0.4,0.3-1.1,0.5-1.8,0.5h-0.7l0,0c0,0,0,0,0,0h-1.7
		c-0.6,0-1.2,0-1.7-0.1c0.8-0.8,1.3-1.8,1.3-3.2c0-1.7-1.5-3.7-3.2-3.7c-2,0-3.8,2.3-3.8,4.3c0,1.1,0.6,1.9,1.4,2.6
		c-0.2,0-0.4,0-0.6,0h-2.3c-2,0-2.9-0.4-3.4-0.7c0.5-0.9,0.8-2.2,1.1-3.7l-0.2-0.1l-1.8,0.5c-0.5,2-0.8,3.1-1.2,3.6
		c-0.4,0.3-1.1,0.5-1.8,0.5h-0.7l0,0c0,0,0,0,0,0c-2,0-2.8-0.4-2.8-2.3v-12.1l-0.1-0.1l-1.7,0.4v12c0,3.1,1.8,4,4.2,4c0,0,0,0,0,0
		l0,0h0.8c1.5,0,2.6-0.4,3.3-1.2c1,0.9,2.5,1.2,3.9,1.2v0h1.2c1.6,0,3.1-0.2,4.3-0.7c1.2,0.4,2.4,0.7,3.6,0.7h1.5c0,0,0,0,0,0l0,0
		h0.8c1.5,0,2.6-0.4,3.3-1.2c1,0.9,2.5,1.2,3.9,1.2v0c0,0,0,0,0,0c0,0,0,0,0,0c0,0,0,0,0,0c2.2,0,3.5-0.3,4.4-1.1
		c0.8,0.6,2.1,1.1,3.7,1.1c1,0,1.7-0.2,2.2-0.6c0.8,0.4,1.7,0.6,2.7,0.6c2.6,0,4.3-1,4.3-3.7c0-1-0.5-2.6-1.2-4.3L868.2,317.7z
		 M839.1,323.2c-1.3-0.6-2.1-1.4-2.1-2.3c0-1,1-2.2,2-2.2c0.9,0,1.9,1,1.9,2.1C840.9,321.8,840.2,322.7,839.1,323.2z"/>
	<path class="st1" d="M879.5,309.5l-0.2,0l-1.7,0.9c0.2,0.7,0.7,3,0.7,4.9c0,1.1-0.2,2.1-0.6,3c-1.3-1.5-3.2-3.1-5.4-4.9l-0.1,0.1
		l-0.7,1.9c1.7,1.2,3.9,2.8,5.5,4.5c-1.2,1.8-2.9,3.1-4.3,4.2l-0.1,1.8h3.2c3.2,0,4.4-0.9,4.4-3c0-1-0.5-2.1-1.2-3.2
		c0.7-1.4,1.3-3,1.3-5C880.2,313,879.8,310.5,879.5,309.5z M875.8,323.9h-0.9c0.8-0.6,2-1.5,3-2.9c0.6,0.8,0.9,1.6,0.9,2.3
		C878.4,323.7,877.6,323.9,875.8,323.9z"/>
	<polygon class="st1" points="883.4,309.9 883.4,325.8 883.5,325.9 885.2,325.5 885.2,309.5 885.1,309.4 	"/>
	<path class="st1" d="M897.1,324c-0.5-0.5-0.9-1.3-0.9-1.9c0-1,0.6-1.6,1.6-1.6c0.6,0,1.3,0.2,1.9,0.4l0.5-1.7
		c-0.7-0.4-1.7-0.6-2.5-0.6c-1.8,0-3.3,1.3-3.3,3.2c0,0.8,0.3,1.6,0.7,2.3c-0.6,0-1.3,0.1-2,0.1l0.1,1.7c3.1-0.2,5-0.3,7.6-0.6
		l-0.2-1.7C899.7,323.8,898.5,323.9,897.1,324z"/>
	<path class="st1" d="M913.4,323.8c-0.9-0.9-1.4-2-1.4-3c0-1.4,0.9-2.1,2.6-2.1c0.9,0,2,0.3,2.9,0.6l0.1,0l0.2-1.7
		c-0.8-0.4-2.1-0.8-3.2-0.8c-2.6,0-4.6,1.5-4.6,4c0,1,0.4,2.1,1,3.1c-0.8,0-1.7,0-2.7,0c-2,0-2.8-0.4-2.8-2.3v-12.1l-0.1-0.1
		l-1.7,0.4v12c0,3.1,1.8,4,4.2,4c0,0,0,0,0,0l0,0c6.1,0,8.9-0.2,10.8-0.6l0.6-1.7l-0.1-0.1C917.3,323.7,915.5,323.8,913.4,323.8z"/>
	<path class="st1" d="M925.6,315.6h-0.2l-1,1.8c1.8,1.8,3.4,3.9,3.7,5.8c-0.5,0.6-2.4,0.9-4,0.9c-0.6,0-1.9-0.1-2.6-0.2l-0.1,0.1
		l-0.3,1.8c0.9,0.2,2.3,0.3,2.8,0.3c3.7,0,5.7-1.1,5.7-3.5C929.7,320.5,928.1,318.1,925.6,315.6z"/>
</g>
<path class="st4" d="M1024,43.8h-11.1v-6.6c0-1.7-1.1-3-2.6-3.5c1.4-1.1,2.3-2.9,2.3-4.8c0-3.4-2.8-6.2-6.2-6.2
	c-1,0-1.9,0.2-2.8,0.7c0.4-1.1,0.5-2.2,0.5-3.4c0-6.2-5-11.2-11.2-11.2c-6.2,0-11.2,5-11.2,11.2c0,1.2,0.2,2.4,0.5,3.4
	c-0.8-0.4-1.8-0.7-2.8-0.7c-3.4,0-6.2,2.8-6.2,6.2c0,1.9,0.9,3.6,2.3,4.8c-1.5,0.4-2.6,1.8-2.6,3.5v6.6h-10h-10v-6.6
	c0-1.7-1.1-3-2.6-3.5c1.4-1.1,2.3-2.9,2.3-4.8c0-3.4-2.8-6.2-6.2-6.2c-1,0-1.9,0.2-2.8,0.7c0.4-1.1,0.5-2.2,0.5-3.4
	c0-6.2-5-11.2-11.2-11.2c-6.2,0-11.2,5-11.2,11.2c0,1.2,0.2,2.4,0.5,3.4c-0.8-0.4-1.8-0.7-2.8-0.7c-3.4,0-6.2,2.8-6.2,6.2
	c0,1.9,0.9,3.6,2.3,4.8c-1.5,0.4-2.6,1.8-2.6,3.5v6.6h-10h-10v-6.6c0-1.7-1.1-3-2.6-3.5c1.4-1.1,2.3-2.9,2.3-4.8
	c0-3.4-2.8-6.2-6.2-6.2c-1,0-1.9,0.2-2.8,0.7c0.4-1.1,0.5-2.2,0.5-3.4c0-6.2-5-11.2-11.2-11.2c-6.2,0-11.2,5-11.2,11.2
	c0,1.2,0.2,2.4,0.5,3.4c-0.8-0.4-1.8-0.7-2.8-0.7c-3.4,0-6.2,2.8-6.2,6.2c0,1.9,0.9,3.6,2.3,4.8c-1.5,0.4-2.6,1.8-2.6,3.5v6.6h-10
	h-10v-6.6c0-1.7-1.1-3-2.6-3.5c1.4-1.1,2.3-2.9,2.3-4.8c0-3.4-2.8-6.2-6.2-6.2c-1,0-1.9,0.2-2.8,0.7c0.4-1.1,0.5-2.2,0.5-3.4
	c0-6.2-5-11.2-11.2-11.2c-6.2,0-11.2,5-11.2,11.2c0,1.2,0.2,2.4,0.5,3.4c-0.8-0.4-1.8-0.7-2.8-0.7c-3.4,0-6.2,2.8-6.2,6.2
	c0,1.9,0.9,3.6,2.3,4.8c-1.5,0.4-2.6,1.8-2.6,3.5v6.6h-10h-10v-6.6c0-1.7-1.1-3-2.6-3.5c1.4-1.1,2.3-2.9,2.3-4.8
	c0-3.4-2.8-6.2-6.2-6.2c-1,0-1.9,0.2-2.8,0.7c0.4-1.1,0.5-2.2,0.5-3.4c0-6.2-5-11.2-11.2-11.2c-6.2,0-11.2,5-11.2,11.2
	c0,1.2,0.2,2.4,0.5,3.4c-0.8-0.4-1.8-0.7-2.8-0.7c-3.4,0-6.2,2.8-6.2,6.2c0,1.9,0.9,3.6,2.3,4.8c-1.5,0.4-2.6,1.8-2.6,3.5v6.6h-10
	h-10v-6.6c0-1.7-1.1-3-2.6-3.5c1.4-1.1,2.3-2.9,2.3-4.8c0-3.4-2.8-6.2-6.2-6.2c-1,0-1.9,0.2-2.8,0.7c0.4-1.1,0.5-2.2,0.5-3.4
	c0-6.2-5-11.2-11.2-11.2c-6.2,0-11.2,5-11.2,11.2c0,1.2,0.2,2.4,0.5,3.4c-0.8-0.4-1.8-0.7-2.8-0.7c-3.4,0-6.2,2.8-6.2,6.2
	c0,1.9,0.9,3.6,2.3,4.8c-1.5,0.4-2.6,1.8-2.6,3.5v6.6h-10h-10v-6.6c0-1.7-1.1-3-2.6-3.5c1.4-1.1,2.3-2.9,2.3-4.8
	c0-3.4-2.8-6.2-6.2-6.2c-1,0-1.9,0.2-2.8,0.7c0.4-1.1,0.5-2.2,0.5-3.4c0-6.2-5-11.2-11.2-11.2c-6.2,0-11.2,5-11.2,11.2
	c0,1.2,0.2,2.4,0.5,3.4c-0.8-0.4-1.8-0.7-2.8-0.7c-3.4,0-6.2,2.8-6.2,6.2c0,1.9,0.9,3.6,2.3,4.8c-1.5,0.4-2.6,1.8-2.6,3.5v6.6h-10
	h-10v-6.6c0-1.7-1.1-3-2.6-3.5c1.4-1.1,2.3-2.9,2.3-4.8c0-3.4-2.8-6.2-6.2-6.2c-1,0-1.9,0.2-2.8,0.7c0.4-1.1,0.5-2.2,0.5-3.4
	c0-6.2-5-11.2-11.2-11.2c-6.2,0-11.2,5-11.2,11.2c0,1.2,0.2,2.4,0.5,3.4c-0.8-0.4-1.8-0.7-2.8-0.7c-3.4,0-6.2,2.8-6.2,6.2
	c0,1.9,0.9,3.6,2.3,4.8c-1.5,0.4-2.6,1.8-2.6,3.5v6.6h-10h-10v-6.6c0-1.7-1.1-3-2.6-3.5c1.4-1.1,2.3-2.9,2.3-4.8
	c0-3.4-2.8-6.2-6.2-6.2c-1,0-1.9,0.2-2.8,0.7c0.4-1.1,0.5-2.2,0.5-3.4c0-6.2-5-11.2-11.2-11.2c-6.2,0-11.2,5-11.2,11.2
	c0,1.2,0.2,2.4,0.5,3.4c-0.8-0.4-1.8-0.7-2.8-0.7c-3.4,0-6.2,2.8-6.2,6.2c0,1.9,0.9,3.6,2.3,4.8c-1.5,0.4-2.6,1.8-2.6,3.5v6.6h-10
	h-10v-6.6c0-1.7-1.1-3-2.6-3.5c1.4-1.1,2.3-2.9,2.3-4.8c0-3.4-2.8-6.2-6.2-6.2c-1,0-1.9,0.2-2.8,0.7c0.4-1.1,0.5-2.2,0.5-3.4
	c0-6.2-5-11.2-11.2-11.2c-6.2,0-11.2,5-11.2,11.2c0,1.2,0.2,2.4,0.5,3.4c-0.8-0.4-1.8-0.7-2.8-0.7c-3.4,0-6.2,2.8-6.2,6.2
	c0,1.9,0.9,3.6,2.3,4.8c-1.5,0.4-2.6,1.8-2.6,3.5v6.6h-10h-10v-6.6c0-1.7-1.1-3-2.6-3.5c1.4-1.1,2.3-2.9,2.3-4.8
	c0-3.4-2.8-6.2-6.2-6.2c-1,0-1.9,0.2-2.8,0.7c0.4-1.1,0.5-2.2,0.5-3.4c0-6.2-5-11.2-11.2-11.2c-6.2,0-11.2,5-11.2,11.2
	c0,1.2,0.2,2.4,0.5,3.4c-0.8-0.4-1.8-0.7-2.8-0.7c-3.4,0-6.2,2.8-6.2,6.2c0,1.9,0.9,3.6,2.3,4.8c-1.5,0.4-2.6,1.8-2.6,3.5v6.6h-10
	h-10v-6.6c0-1.7-1.1-3-2.6-3.5c1.4-1.1,2.3-2.9,2.3-4.8c0-3.4-2.8-6.2-6.2-6.2c-1,0-1.9,0.2-2.8,0.7c0.4-1.1,0.5-2.2,0.5-3.4
	c0-6.2-5-11.2-11.2-11.2c-6.2,0-11.2,5-11.2,11.2c0,1.2,0.2,2.4,0.5,3.4c-0.8-0.4-1.8-0.7-2.8-0.7c-3.4,0-6.2,2.8-6.2,6.2
	c0,1.9,0.9,3.6,2.3,4.8c-1.5,0.4-2.6,1.8-2.6,3.5v6.6h-10h-10v-6.6c0-1.7-1.1-3-2.6-3.5c1.4-1.1,2.3-2.9,2.3-4.8
	c0-3.4-2.8-6.2-6.2-6.2c-1,0-1.9,0.2-2.8,0.7c0.4-1.1,0.5-2.2,0.5-3.4c0-6.2-5-11.2-11.2-11.2c-6.2,0-11.2,5-11.2,11.2
	c0,1.2,0.2,2.4,0.5,3.4c-0.8-0.4-1.8-0.7-2.8-0.7c-3.4,0-6.2,2.8-6.2,6.2c0,1.9,0.9,3.6,2.3,4.8c-1.5,0.4-2.6,1.8-2.6,3.5v6.6h-10
	h-10v-6.6c0-1.7-1.1-3-2.6-3.5c1.4-1.1,2.3-2.9,2.3-4.8c0-3.4-2.8-6.2-6.2-6.2c-1,0-1.9,0.2-2.8,0.7c0.4-1.1,0.5-2.2,0.5-3.4
	c0-6.2-5-11.2-11.2-11.2c-6.2,0-11.2,5-11.2,11.2c0,1.2,0.2,2.4,0.5,3.4c-0.8-0.4-1.8-0.7-2.8-0.7c-3.4,0-6.2,2.8-6.2,6.2
	c0,1.9,0.9,3.6,2.3,4.8c-1.5,0.4-2.6,1.8-2.6,3.5v6.6h-10h-10v-6.6c0-1.7-1.1-3-2.6-3.5c1.4-1.1,2.3-2.9,2.3-4.8
	c0-3.4-2.8-6.2-6.2-6.2c-1,0-1.9,0.2-2.8,0.7c0.4-1.1,0.5-2.2,0.5-3.4c0-6.2-5-11.2-11.2-11.2c-6.2,0-11.2,5-11.2,11.2
	c0,1.2,0.2,2.4,0.5,3.4c-0.8-0.4-1.8-0.7-2.8-0.7c-3.4,0-6.2,2.8-6.2,6.2c0,1.9,0.9,3.6,2.3,4.8c-1.5,0.4-2.6,1.8-2.6,3.5v6.6h-10
	h-10v-6.6c0-1.7-1.1-3-2.6-3.5c1.4-1.1,2.3-2.9,2.3-4.8c0-3.4-2.8-6.2-6.2-6.2c-1,0-1.9,0.2-2.8,0.7c0.4-1.1,0.5-2.2,0.5-3.4
	c0-6.2-5-11.2-11.2-11.2c-6.2,0-11.2,5-11.2,11.2c0,1.2,0.2,2.4,0.5,3.4c-0.8-0.4-1.8-0.7-2.8-0.7c-3.4,0-6.2,2.8-6.2,6.2
	c0,1.9,0.9,3.6,2.3,4.8c-1.5,0.4-2.6,1.8-2.6,3.5v6.6h-10h-10v-6.6c0-1.7-1.1-3-2.6-3.5c1.4-1.1,2.3-2.9,2.3-4.8
	c0-3.4-2.8-6.2-6.2-6.2c-1,0-1.9,0.2-2.8,0.7c0.4-1.1,0.5-2.2,0.5-3.4c0-6.2-5-11.2-11.2-11.2c-6.2,0-11.2,5-11.2,11.2
	c0,1.2,0.2,2.4,0.5,3.4c-0.8-0.4-1.8-0.7-2.8-0.7c-3.4,0-6.2,2.8-6.2,6.2c0,1.9,0.9,3.6,2.3,4.8c-1.5,0.4-2.6,1.8-2.6,3.5v6.6H0V0
	h1024V43.8z"/>
<g id="Layer_x0020_1_10_">
	<path class="st5" d="M34.9,719.8l43.9-1.7c0.3,0,0.6,0,1,0c0.7,0.1,1.3,0.4,1.8,0.9c0.5,0.5,0.9,1,0.9,1.7c0,0.2,0,0.5,0,0.8
		l-4.6,20.6c-0.2,0.9-0.6,1.7-1.3,2.2c-0.6,0.5-1.4,0.9-2.4,0.9L39,744c-1,0-1.7-0.3-2.4-0.9l0,0c-0.6-0.6-1.1-1.4-1.3-2.2
		l-4.1-17.7c0-0.1,0-0.1,0-0.2c-0.1-0.8,0.3-1.5,0.9-2.1c0.6-0.5,1.4-0.8,2.3-1C34.6,719.8,34.8,719.8,34.9,719.8z M76.9,720.9
		l-42,1.5c-0.1,0-0.2,0-0.3,0c-0.6,0.1-1.1,0.3-1.5,0.7c-0.3,0.3-0.6,0.7-0.5,1.1c0,0,0,0.1,0,0.1l3.8,16.5c0.1,0.6,0.4,1.2,0.9,1.6
		c0.4,0.3,0.8,0.5,1.4,0.5l34,1.2c0.6,0,1-0.2,1.4-0.5c0.4-0.4,0.7-0.9,0.9-1.6l4.3-19.3c0-0.1,0-0.3,0-0.4c0-0.3-0.2-0.7-0.5-0.9
		c-0.3-0.3-0.7-0.5-1.1-0.5C77.2,720.9,77.1,720.9,76.9,720.9z"/>
	<path class="st5" d="M41.9,724.5l12.9-1.4c0.1,0,0.3,0,0.4,0c0.3,0.1,0.6,0.2,0.8,0.4c0.2,0.2,0.4,0.5,0.4,0.8c0,0.1,0,0.2,0,0.3
		l-2.1,9.6c-0.1,0.4-0.3,0.8-0.6,1c-0.3,0.2-0.6,0.4-1.1,0.4h-8.9c-0.4,0-0.8-0.2-1.1-0.4h0c-0.3-0.3-0.5-0.6-0.6-1l-1.9-8.2
		c0,0,0-0.1,0-0.1c-0.1-0.4,0.1-0.7,0.4-1c0.3-0.2,0.7-0.4,1-0.5C41.8,724.5,41.9,724.5,41.9,724.5z M53.9,724.4l-12,1.3
		c0,0-0.1,0-0.1,0c-0.3,0-0.5,0.2-0.7,0.3c-0.2,0.1-0.3,0.3-0.2,0.5c0,0,0,0,0,0l1.8,7.6c0.1,0.3,0.2,0.5,0.4,0.7
		c0.2,0.1,0.4,0.2,0.6,0.2h8.3c0.3,0,0.5-0.1,0.6-0.2c0.2-0.2,0.3-0.4,0.4-0.7l2-8.9c0-0.1,0-0.1,0-0.2c0-0.2-0.1-0.3-0.2-0.4
		c-0.1-0.1-0.3-0.2-0.5-0.2C54.1,724.4,54,724.4,53.9,724.4z"/>
	<g id="_1849662416_10_">
		<path class="st6" d="M60.4,736.7l0.4-0.7l-0.7-0.4l0.4-0.7l-1.5-0.8l-0.9,1.5l0,0c0.3,0.1,0.5,0.3,0.7,0.4l-0.4,0.7l0.7,0.4
			l-0.8,1.5l0.7,0.4c-0.2,0.5-0.6,1.1-0.9,1.5l0,0c0.2,0.1,0.4,0.2,0.5,0.3c0.3,0.1,0.2,0.1,0,0.5c-0.2,0.4-0.4,0.8-0.7,1.1l0.7,0.4
			c0,0.2-0.7,1.2-0.8,1.5l5.9,3.4l0.9-1.5l0.8,0.4l1.3-2.2l0.7,0.4l3-5.2c-0.1-0.1-0.7-0.4-0.7-0.5c0-0.2,0.4-0.6,0.4-0.7
			c-0.1-0.1-0.5-0.4-0.7-0.4l-1.3,2.2l-0.7-0.4l1.7-3l-1.5-0.9l-1.3,2.2l-0.7-0.4l1.7-2.9c-0.1-0.1-1.3-0.8-1.5-0.9l-1.7,3l-0.7-0.4
			c0-0.1,0.1-0.1,0.1-0.2c1.2-2.1,2.5-4.3,3.7-6.5l-1.5-0.8l-4.7,8.1C60.9,737.1,60.4,736.7,60.4,736.7L60.4,736.7z"/>
		<path class="st7" d="M58.2,740.4c-0.1,0.1-0.1,0.2-0.2,0.3l-0.7,1.1c0.1,0.1,0.2,0.1,0.4,0.2c0.1,0.1,0.2,0.1,0.3,0.2
			c-0.4,0.8-0.8,1.5-1.2,2.2c0.6,0.4,1.2,0.7,1.8,1.1l3.7,2.2c0.6,0.4,1.2,0.7,1.9,1.1c0.1-0.2,0.1-0.3,0.3-0.5
			c0.1-0.2,0.4-0.6,0.5-0.9c0.1-0.1,0.1-0.1,0.2-0.3c0.1-0.2,0.2-0.4,0.3-0.6c0.1,0.2,0.5,0.3,0.7,0.4c0.4-0.7,0.8-1.4,1.3-2.2
			c0.2,0.1,0.4,0.2,0.6,0.3c0.1,0.1,0.1,0.1,0.2,0c0.2-0.3,0.3-0.6,0.5-0.9c0.3-0.6,0.7-1.1,1-1.7l1.4-2.5c-0.2-0.1-0.6-0.3-0.7-0.4
			l-3,5.2l-0.7-0.4l-1.3,2.2l-0.8-0.4l-0.9,1.5l-5.9-3.4c0.1-0.3,0.8-1.3,0.8-1.5l-0.7-0.4c0.2-0.4,0.4-0.8,0.7-1.1
			c0.2-0.4,0.2-0.3,0-0.5C58.6,740.6,58.4,740.5,58.2,740.4z"/>
		<path class="st7" d="M60.5,734.8l-0.4,0.7l0.7,0.4l-0.4,0.7l0.7,0.4l4.7-8.1l-0.7-0.4c0,0,0,0,0,0l0,0c0,0,0,0,0,0l-3.8,6.6
			C61,735,60.8,734.9,60.5,734.8z"/>
		<path class="st7" d="M67.3,729.9l-3.9,6.6l0.7,0.4l1.7-3c0.2,0,1.4,0.8,1.5,0.9c0.2,0.2,1.6,0.9,1.9,1.1c0,0,0.1,0-0.1-0.1
			l-1.5-0.8c-0.4-0.2-0.3-0.1,0.1-0.9l-1.1-0.6c-0.1-0.1-0.2-0.1-0.3-0.2l1.7-2.9c-0.2-0.1-0.3-0.2-0.6-0.4
			C67.4,729.9,67.4,729.9,67.3,729.9z"/>
		<path class="st7" d="M69.2,736.8l0.4-0.7c-0.1-0.1-0.2-0.2-0.4-0.2c-0.3-0.2-1.7-0.9-1.9-1.1l-1.7,2.9l0.7,0.4l1.3-2.2L69.2,736.8
			z"/>
		<path class="st7" d="M58.2,735.4c-0.1,0.1-0.1,0.1-0.2,0.3c-0.1,0.1-0.1,0.3-0.2,0.4l0.7,0.4c-0.1,0.2-0.7,1.3-0.8,1.5l0.7,0.4
			l-0.6,1.1c-0.1,0.2-0.1,0.2-0.2,0.4l0.7,0.4c0.3-0.4,0.7-1,0.9-1.5l-0.7-0.4l0.8-1.5l-0.7-0.4l0.4-0.7
			C58.7,735.7,58.4,735.5,58.2,735.4z"/>
		<path class="st7" d="M58.2,735.4l0.9-1.5l1.5,0.8l0.2-0.4c0.1-0.1,0.1-0.2,0.2-0.4l-2-1.1c-0.3-0.2-0.2-0.2-0.5,0.2l-0.9,1.6
			c-0.1,0.2-0.2,0.2,0,0.3C57.6,735.1,58,735.4,58.2,735.4z"/>
		<path class="st7" d="M70.2,738.4c0.1,0,0,0,0.1-0.1c0,0,0.1-0.1,0.1-0.1c0-0.2,0.2-0.4,0.3-0.6l-1.5-0.8l-1.7,3l0.7,0.4l1.3-2.2
			C69.7,738.1,70.1,738.3,70.2,738.4z"/>
		<path class="st7" d="M67.3,729.8c0.1-0.2,0.3-0.5,0.4-0.7l-1.5-0.8l-0.4,0.7L67.3,729.8z"/>
		<path class="st7" d="M70.2,738.4c0,0.2-0.4,0.6-0.4,0.7c0,0.1,0.6,0.4,0.7,0.5c0.2,0.1,0.5,0.3,0.7,0.4l-1.4,2.5l1.5-2.5l-0.7-0.4
			c0.1-0.1,0.1-0.2,0.2-0.4c0.1-0.1,0.2-0.3,0.2-0.4c-0.8-0.5-0.8-0.3-0.6-0.6c0,0-0.1,0.1-0.1,0.1
			C70.2,738.5,70.3,738.4,70.2,738.4z"/>
	</g>
	<path class="st5" d="M94.9,736.7h-2.5l2.1-7.2l-4.3,7.2h-2.6l-0.5-7.3l-1.8,7.3h-2.6l2.9-10.9h3.5l0.5,7.7l4.6-7.7h3.5L94.9,736.7z
		 M104.4,736.7h-5.6c-0.8,0-1.3-0.2-1.7-0.6c-0.4-0.4-0.4-1-0.2-1.8c0.3-0.9,0.7-1.6,1.3-2c0.6-0.4,1.5-0.6,2.6-0.6h2.5
		c0.1-0.4,0.1-0.7-0.1-0.8c-0.2-0.2-0.6-0.2-1.3-0.2h-3.6l0.5-2h4.3c1.1,0,1.9,0.3,2.3,0.8c0.4,0.5,0.5,1.3,0.2,2.3L104.4,736.7z
		 M102.4,734.7l0.3-1.2h-2.2c-0.4,0-0.7,0-0.9,0.1c-0.2,0.1-0.3,0.3-0.3,0.5c-0.1,0.2-0.1,0.3,0,0.4c0,0,0.1,0.1,0.2,0.1
		c0.1,0,0.3,0,0.5,0H102.4z M113.2,736.7h-2.4l1.3-4.9c0.1-0.5,0.2-0.8,0-1c-0.1-0.1-0.4-0.2-0.9-0.2h-1.4l-1.6,6.1h-2.4l2.2-8.1h4
		c1.2,0,2,0.2,2.4,0.7c0.4,0.5,0.5,1.2,0.2,2.3L113.2,736.7z M121.9,736.7h-2.4l1.3-4.9c0.1-0.5,0.1-0.8,0-0.9
		c-0.1-0.1-0.2-0.1-0.3-0.2c-0.1,0-0.3-0.1-0.6-0.1l-1.4,0l-1.6,6.1h-2.4l2.9-10.9h2.4l-0.8,2.8h1.6c1.2,0,2,0.2,2.4,0.7
		c0.4,0.5,0.5,1.2,0.2,2.3L121.9,736.7z M131.2,736.7h-5.6c-0.8,0-1.3-0.2-1.7-0.6c-0.4-0.4-0.4-1-0.2-1.8c0.3-0.9,0.7-1.6,1.3-2
		c0.6-0.4,1.5-0.6,2.6-0.6h2.5c0.1-0.4,0.1-0.7-0.1-0.8c-0.2-0.2-0.6-0.2-1.3-0.2h-3.6l0.5-2h4.3c1.1,0,1.9,0.3,2.3,0.8
		c0.4,0.5,0.5,1.3,0.2,2.3L131.2,736.7z M129.2,734.7l0.3-1.2h-2.2c-0.4,0-0.7,0-0.9,0.1c-0.2,0.1-0.3,0.3-0.3,0.5
		c-0.1,0.2,0,0.3,0,0.4c0,0,0.1,0.1,0.2,0.1c0.1,0,0.3,0,0.5,0H129.2z M135,736.7h-2.5l2.9-10.9h2.5L135,736.7z M140.7,736.7h-2.1
		l0.6-2.2h2.1L140.7,736.7z M148.4,736.7h-2.9c-0.4,0-0.7,0-1-0.1c-0.3,0-0.5-0.1-0.8-0.2c-0.4-0.1-0.8-0.4-1-0.8
		c-0.1-0.2-0.2-0.4-0.3-0.6c-0.1-0.2-0.2-0.5-0.2-0.7c0-0.3,0-0.5,0-0.8c0-0.3,0.1-0.6,0.2-0.9c0.2-0.6,0.4-1.2,0.8-1.7
		c0.3-0.5,0.7-1,1.3-1.4c0.4-0.3,0.9-0.6,1.4-0.7c0.5-0.2,1.1-0.2,1.9-0.2h2.9l-0.5,2h-2.3c-0.5,0-0.9,0-1.2,0.1
		c-0.3,0.1-0.6,0.2-0.8,0.4c-0.4,0.3-0.7,0.8-0.9,1.6c-0.1,0.4-0.1,0.8-0.1,1.1c0.1,0.3,0.1,0.6,0.4,0.7l0.4,0.2c0.1,0,0.3,0,0.4,0
		c0.1,0,0.4,0,0.6,0h2.3L148.4,736.7z M158.5,732.6c-0.3,1.3-1,2.3-2,3.1c-1,0.8-2.1,1.1-3.4,1.1c-1.3,0-2.2-0.4-2.8-1.1
		c-0.6-0.8-0.7-1.8-0.3-3.1c0.3-1.3,1-2.3,2-3c1-0.8,2.1-1.1,3.4-1.1c1.3,0,2.2,0.4,2.8,1.1C158.7,730.3,158.9,731.3,158.5,732.6z
		 M156,732.6c0.2-0.7,0.1-1.2-0.1-1.6c-0.2-0.4-0.6-0.6-1.1-0.6c-0.5,0-1,0.2-1.4,0.6c-0.4,0.4-0.7,0.9-0.9,1.6
		c-0.1,0.4-0.1,0.7-0.1,0.9c0,0.3,0.1,0.5,0.2,0.7c0.2,0.4,0.6,0.6,1.1,0.6c0.6,0,1-0.2,1.4-0.6C155.5,733.8,155.8,733.3,156,732.6z
		 M169.7,736.7h-2.4l1.3-4.9c0.1-0.5,0.2-0.8,0.1-1c-0.1-0.2-0.4-0.2-0.9-0.2l-0.9,0l-1.6,6.1h-2.4l1.6-6.1h-2l-1.6,6.1h-2.4
		l2.2-8.1h8c1.2,0,2,0.2,2.4,0.7c0.4,0.5,0.5,1.2,0.2,2.3L169.7,736.7z"/>
	<path class="st5" d="M27.9,728.6l21.2-2.2c0.2,0,0.5,0,0.7,0c0.5,0.1,1,0.3,1.4,0.7c0.4,0.3,0.6,0.8,0.7,1.3c0,0.2,0,0.4,0,0.6
		l-3.7,9.6c-0.1,0.7-0.5,1.3-1,1.7c-0.5,0.4-1.1,0.7-1.8,0.7H30.9c-0.7,0-1.3-0.3-1.8-0.7h0c-0.5-0.4-0.8-1.1-1-1.7l-2.9-7.4
		c0-0.1,0-0.1,0-0.2c-0.1-0.6,0.2-1.2,0.7-1.6c0.5-0.4,1.1-0.6,1.7-0.8C27.7,728.6,27.8,728.6,27.9,728.6z M47.6,728.5l-19.8,2.1
		c-0.1,0-0.2,0-0.2,0c-0.4,0.1-0.9,0.3-1.2,0.5c-0.3,0.2-0.4,0.5-0.4,0.8c0,0,0,0.1,0,0.1l2.7,6.5c0.1,0.5,0.3,0.9,0.7,1.2
		c0.3,0.2,0.6,0.4,1,0.4h13.6c0.4,0,0.8-0.1,1-0.4c0.3-0.3,0.5-0.7,0.7-1.2l3.4-8.6c0-0.1,0-0.2,0-0.3c0-0.3-0.2-0.5-0.4-0.7
		c-0.2-0.2-0.5-0.4-0.8-0.4C47.9,728.5,47.8,728.4,47.6,728.5z"/>
	<path class="st5" d="M87.6,722.3l-0.5,1.7h-0.6l1.2-4.5H89c0.3,0,0.5,0,0.7,0.1c0.2,0.1,0.3,0.2,0.4,0.3c0.1,0.1,0.2,0.3,0.2,0.4
		c0,0.2,0,0.4-0.1,0.6c-0.1,0.2-0.1,0.4-0.3,0.6c-0.1,0.2-0.3,0.3-0.4,0.4c-0.2,0.1-0.4,0.2-0.6,0.3c-0.2,0.1-0.5,0.1-0.7,0.1H87.6z
		 M87.7,721.8h0.7c0.2,0,0.3,0,0.5-0.1c0.1,0,0.3-0.1,0.4-0.2c0.1-0.1,0.2-0.2,0.3-0.3c0.1-0.1,0.1-0.2,0.2-0.4
		c0.1-0.3,0.1-0.5-0.1-0.7c-0.1-0.2-0.4-0.2-0.7-0.2h-0.7L87.7,721.8z"/>
	<path id="_x31__10_" class="st5" d="M92.3,720.7c0.2,0,0.4,0,0.6,0.1c0.2,0.1,0.3,0.2,0.4,0.3c0.1,0.1,0.1,0.3,0.2,0.5
		c0,0.2,0,0.4-0.1,0.7c-0.1,0.2-0.2,0.5-0.3,0.7c-0.1,0.2-0.3,0.4-0.4,0.5c-0.2,0.1-0.4,0.3-0.6,0.3c-0.2,0.1-0.4,0.1-0.7,0.1
		c-0.2,0-0.4,0-0.6-0.1c-0.2-0.1-0.3-0.2-0.4-0.3c-0.1-0.1-0.1-0.3-0.2-0.5c0-0.2,0-0.4,0.1-0.7c0.1-0.3,0.2-0.5,0.3-0.7
		c0.1-0.2,0.3-0.4,0.4-0.5c0.2-0.1,0.4-0.3,0.6-0.3C91.8,720.8,92,720.7,92.3,720.7z M91.5,723.6c0.3,0,0.6-0.1,0.8-0.3
		c0.2-0.2,0.4-0.5,0.5-0.9c0.1-0.4,0.1-0.7,0-0.9c-0.1-0.2-0.3-0.3-0.6-0.3c-0.2,0-0.3,0-0.4,0.1c-0.1,0.1-0.2,0.1-0.4,0.2
		c-0.1,0.1-0.2,0.2-0.3,0.4c-0.1,0.1-0.1,0.3-0.2,0.5c0,0.2-0.1,0.4-0.1,0.5c0,0.1,0,0.3,0.1,0.4c0.1,0.1,0.1,0.2,0.2,0.2
		C91.2,723.5,91.3,723.6,91.5,723.6z"/>
	<path id="_x32__10_" class="st5" d="M94,720.8h0.4c0,0,0.1,0,0.1,0c0,0,0,0,0,0.1l0.1,2c0,0.1,0,0.1,0,0.2c0,0.1,0,0.1,0,0.2
		c0-0.1,0.1-0.1,0.1-0.2c0-0.1,0.1-0.1,0.1-0.2l1.2-2.1c0,0,0-0.1,0.1-0.1c0,0,0.1,0,0.1,0h0.2c0,0,0.1,0,0.1,0c0,0,0,0,0,0.1
		l0.1,2.1c0,0.1,0,0.1,0,0.2c0,0.1,0,0.1,0,0.2c0-0.1,0.1-0.1,0.1-0.2c0-0.1,0.1-0.1,0.1-0.2l1.2-2c0,0,0-0.1,0.1-0.1
		c0,0,0.1,0,0.1,0h0.4l-1.9,3.2h-0.4c-0.1,0-0.1,0-0.1-0.1l-0.1-2.2c0,0,0-0.1,0-0.1c0-0.1,0-0.1,0-0.1c0,0,0,0.1-0.1,0.1
		c0,0,0,0.1-0.1,0.1l-1.3,2.2c0,0.1-0.1,0.1-0.2,0.1h-0.4L94,720.8z"/>
	<path id="_x33__10_" class="st5" d="M100.5,720.7c0.2,0,0.4,0,0.5,0.1c0.1,0.1,0.3,0.2,0.3,0.3c0.1,0.1,0.1,0.3,0.2,0.4
		c0,0.2,0,0.4-0.1,0.6c0,0.1,0,0.1-0.1,0.2c0,0-0.1,0-0.1,0h-2.1c-0.1,0.2-0.1,0.4-0.1,0.5c0,0.1,0,0.3,0.1,0.4
		c0.1,0.1,0.1,0.2,0.3,0.2c0.1,0,0.2,0.1,0.4,0.1c0.1,0,0.3,0,0.4,0c0.1,0,0.2-0.1,0.3-0.1c0.1,0,0.2-0.1,0.2-0.1
		c0.1,0,0.1-0.1,0.1-0.1c0,0,0.1,0,0.1,0.1l0.1,0.2c-0.1,0.1-0.2,0.2-0.3,0.2c-0.1,0.1-0.2,0.1-0.3,0.2c-0.1,0-0.2,0.1-0.4,0.1
		c-0.1,0-0.2,0-0.4,0c-0.2,0-0.4,0-0.6-0.1c-0.2-0.1-0.3-0.2-0.4-0.3c-0.1-0.1-0.2-0.3-0.2-0.5c0-0.2,0-0.5,0.1-0.7
		c0.1-0.2,0.1-0.4,0.3-0.6c0.1-0.2,0.3-0.4,0.4-0.5c0.2-0.1,0.4-0.3,0.6-0.3C100.1,720.8,100.3,720.7,100.5,720.7z M100.4,721.1
		c-0.3,0-0.5,0.1-0.7,0.2c-0.2,0.2-0.4,0.4-0.5,0.6h1.7c0-0.1,0.1-0.2,0-0.4c0-0.1,0-0.2-0.1-0.3c0-0.1-0.1-0.1-0.2-0.2
		C100.7,721.2,100.6,721.1,100.4,721.1z"/>
	<path id="_x34__10_" class="st5" d="M101.7,724l0.9-3.2h0.3c0.1,0,0.1,0,0.1,0c0,0,0,0.1,0,0.1l-0.1,0.5c0.2-0.2,0.4-0.4,0.5-0.5
		c0.2-0.1,0.4-0.2,0.6-0.2c0.1,0,0.2,0,0.2,0c0.1,0,0.1,0,0.2,0.1l-0.2,0.4c0,0.1-0.1,0.1-0.1,0.1c0,0-0.1,0-0.1,0
		c-0.1,0-0.1,0-0.2,0c-0.2,0-0.4,0.1-0.5,0.2c-0.2,0.1-0.3,0.3-0.5,0.5l-0.5,2H101.7z"/>
	<path id="_x35__10_" class="st5" d="M106.3,720.7c0.2,0,0.4,0,0.5,0.1c0.1,0.1,0.3,0.2,0.3,0.3c0.1,0.1,0.1,0.3,0.2,0.4
		c0,0.2,0,0.4-0.1,0.6c0,0.1,0,0.1-0.1,0.2c0,0-0.1,0-0.1,0H105c-0.1,0.2-0.1,0.4-0.1,0.5c0,0.1,0,0.3,0.1,0.4
		c0.1,0.1,0.1,0.2,0.3,0.2c0.1,0,0.2,0.1,0.4,0.1c0.1,0,0.3,0,0.4,0c0.1,0,0.2-0.1,0.3-0.1c0.1,0,0.2-0.1,0.2-0.1
		c0.1,0,0.1-0.1,0.1-0.1c0,0,0.1,0,0.1,0.1l0.1,0.2c-0.1,0.1-0.2,0.2-0.3,0.2c-0.1,0.1-0.2,0.1-0.3,0.2c-0.1,0-0.2,0.1-0.4,0.1
		c-0.1,0-0.2,0-0.4,0c-0.2,0-0.4,0-0.6-0.1c-0.2-0.1-0.3-0.2-0.4-0.3c-0.1-0.1-0.2-0.3-0.2-0.5c0-0.2,0-0.5,0.1-0.7
		c0.1-0.2,0.2-0.4,0.3-0.6c0.1-0.2,0.3-0.4,0.4-0.5c0.2-0.1,0.4-0.3,0.6-0.3C105.9,720.8,106.1,720.7,106.3,720.7z M106.2,721.1
		c-0.3,0-0.5,0.1-0.7,0.2c-0.2,0.2-0.4,0.4-0.5,0.6h1.7c0-0.1,0-0.2,0-0.4c0-0.1,0-0.2-0.1-0.3c0-0.1-0.1-0.1-0.2-0.2
		C106.5,721.2,106.4,721.1,106.2,721.1z"/>
	<path id="_x36__10_" class="st5" d="M109.7,724c-0.1,0-0.1,0-0.1-0.1l0.1-0.4c-0.2,0.2-0.4,0.3-0.6,0.4c-0.2,0.1-0.4,0.1-0.6,0.1
		c-0.2,0-0.3,0-0.5-0.1c-0.1-0.1-0.2-0.2-0.3-0.3c-0.1-0.1-0.1-0.3-0.1-0.5c0-0.2,0-0.4,0.1-0.7c0.1-0.2,0.2-0.5,0.3-0.7
		c0.1-0.2,0.3-0.4,0.4-0.5c0.2-0.2,0.3-0.3,0.5-0.4c0.2-0.1,0.4-0.1,0.6-0.1c0.2,0,0.4,0,0.5,0.1c0.1,0.1,0.2,0.2,0.3,0.3l0.5-1.8
		h0.6l-1.2,4.6H109.7z M108.8,723.6c0.2,0,0.4,0,0.5-0.1c0.2-0.1,0.3-0.2,0.5-0.4l0.4-1.5c-0.1-0.1-0.2-0.2-0.3-0.3
		c-0.1-0.1-0.2-0.1-0.4-0.1c-0.3,0-0.6,0.1-0.8,0.3c-0.2,0.2-0.4,0.5-0.5,0.9c-0.1,0.2-0.1,0.4-0.1,0.5c0,0.1,0,0.3,0.1,0.4
		c0,0.1,0.1,0.2,0.2,0.2C108.5,723.5,108.6,723.6,108.8,723.6z"/>
	<path id="_x37__10_" class="st5" d="M112.2,724l1.2-4.6h0.6l-0.5,1.9c0.2-0.2,0.4-0.3,0.6-0.4c0.2-0.1,0.4-0.1,0.6-0.1
		c0.2,0,0.3,0,0.5,0.1c0.1,0.1,0.2,0.2,0.3,0.3c0.1,0.1,0.1,0.3,0.1,0.5c0,0.2,0,0.4-0.1,0.7c-0.1,0.2-0.2,0.5-0.3,0.7
		c-0.1,0.2-0.3,0.4-0.4,0.5c-0.2,0.1-0.3,0.3-0.5,0.3c-0.2,0.1-0.4,0.1-0.6,0.1c-0.2,0-0.4,0-0.5-0.1c-0.1-0.1-0.2-0.2-0.3-0.3
		l-0.1,0.3c0,0.1-0.1,0.1-0.2,0.1H112.2z M114.4,721.2c-0.2,0-0.4,0-0.5,0.1c-0.2,0.1-0.3,0.2-0.5,0.4l-0.4,1.5
		c0.1,0.1,0.1,0.2,0.3,0.3c0.1,0.1,0.2,0.1,0.4,0.1c0.3,0,0.6-0.1,0.8-0.3c0.2-0.2,0.4-0.5,0.5-0.9c0.1-0.2,0.1-0.4,0.1-0.5
		c0-0.1,0-0.3-0.1-0.4c0-0.1-0.1-0.2-0.2-0.2C114.6,721.2,114.5,721.2,114.4,721.2z"/>
	<path id="_x38__10_" class="st5" d="M116.3,724.9c0,0-0.1,0.1-0.1,0.1c0,0-0.1,0-0.1,0h-0.4l0.9-1.2l-0.5-3h0.5c0,0,0.1,0,0.1,0
		c0,0,0,0,0,0.1l0.3,2c0,0,0,0.1,0,0.1c0,0,0,0.1,0,0.1c0,0,0.1-0.1,0.1-0.1c0,0,0.1-0.1,0.1-0.1l1.4-2c0,0,0.1-0.1,0.1-0.1
		c0,0,0.1,0,0.1,0h0.4L116.3,724.9z"/>
	<path id="_x39__10_" class="st5" d="M118.9,723.6c0-0.1,0-0.1,0.1-0.2c0-0.1,0.1-0.1,0.1-0.1c0,0,0.1-0.1,0.1-0.1
		c0.1,0,0.1,0,0.2,0c0.1,0,0.1,0,0.1,0c0,0,0.1,0,0.1,0.1c0,0,0,0.1,0.1,0.1c0,0,0,0.1,0,0.2c0,0.1,0,0.1-0.1,0.2
		c0,0-0.1,0.1-0.1,0.1c0,0-0.1,0.1-0.1,0.1c-0.1,0-0.1,0-0.2,0c-0.1,0-0.1,0-0.1,0c0,0-0.1,0-0.1-0.1c0,0,0-0.1,0-0.1
		C118.9,723.7,118.9,723.7,118.9,723.6z M119.5,721.3c0-0.1,0-0.1,0.1-0.2c0,0,0.1-0.1,0.1-0.1c0,0,0.1-0.1,0.1-0.1
		c0.1,0,0.1,0,0.2,0c0.1,0,0.1,0,0.1,0c0,0,0.1,0,0.1,0.1c0,0,0,0.1,0.1,0.1c0,0,0,0.1,0,0.2c0,0.1,0,0.1-0.1,0.2
		c0,0-0.1,0.1-0.1,0.1c0,0-0.1,0.1-0.1,0.1c-0.1,0-0.1,0-0.2,0c-0.1,0-0.1,0-0.1,0c0,0-0.1,0-0.1-0.1c0,0,0-0.1,0-0.1
		C119.5,721.4,119.5,721.3,119.5,721.3z"/>
	<path class="st5" d="M126,739l-0.1,0.5h-2.3l-0.4,1.6h1.8l-0.1,0.5H123l-0.4,1.6h2.3l-0.1,0.5h-2.9l1.3-4.8H126z M126,741.6h1.6
		l-0.1,0.5h-1.6L126,741.6z M128.7,743.3h2.1l-0.1,0.5h-2.7l1.3-4.8h0.6L128.7,743.3z M133.4,740.4c0.2,0,0.4,0,0.5,0.1
		c0.2,0.1,0.3,0.2,0.4,0.3c0.1,0.1,0.1,0.3,0.2,0.5c0,0.2,0,0.4-0.1,0.6c0,0.1-0.1,0.2-0.1,0.2c0,0-0.1,0-0.1,0h-2.2
		c-0.1,0.2-0.1,0.4-0.1,0.6c0,0.2,0,0.3,0.1,0.4c0.1,0.1,0.2,0.2,0.3,0.2c0.1,0.1,0.3,0.1,0.4,0.1c0.1,0,0.3,0,0.4-0.1
		c0.1,0,0.2-0.1,0.3-0.1c0.1,0,0.2-0.1,0.2-0.1c0.1,0,0.1-0.1,0.1-0.1c0,0,0.1,0,0.1,0.1l0.1,0.2c-0.1,0.1-0.2,0.2-0.3,0.2
		c-0.1,0.1-0.2,0.1-0.4,0.2c-0.1,0-0.3,0.1-0.4,0.1c-0.1,0-0.3,0-0.4,0c-0.2,0-0.4,0-0.6-0.1c-0.2-0.1-0.3-0.2-0.4-0.3
		c-0.1-0.2-0.2-0.3-0.2-0.6c0-0.2,0-0.5,0.1-0.8c0.1-0.2,0.2-0.5,0.3-0.7c0.1-0.2,0.3-0.4,0.5-0.5c0.2-0.1,0.4-0.3,0.6-0.4
		C132.9,740.4,133.1,740.4,133.4,740.4z M133.3,740.8c-0.3,0-0.5,0.1-0.7,0.2c-0.2,0.2-0.4,0.4-0.5,0.7h1.8c0-0.1,0.1-0.3,0-0.4
		c0-0.1,0-0.2-0.1-0.3c-0.1-0.1-0.1-0.1-0.2-0.2C133.5,740.8,133.4,740.8,133.3,740.8z M137.1,743.8h-0.3c-0.1,0-0.1,0-0.1,0
		c0,0,0-0.1,0-0.1l0-0.3c-0.1,0.1-0.2,0.2-0.3,0.2c-0.1,0.1-0.2,0.1-0.3,0.2c-0.1,0-0.2,0.1-0.3,0.1c-0.1,0-0.2,0-0.4,0
		c-0.1,0-0.2,0-0.4-0.1c-0.1,0-0.2-0.1-0.3-0.2c-0.1-0.1-0.1-0.2-0.1-0.3c0-0.1,0-0.2,0-0.4c0-0.1,0.1-0.3,0.2-0.4
		c0.1-0.1,0.3-0.2,0.4-0.3c0.2-0.1,0.4-0.2,0.7-0.2c0.3-0.1,0.6-0.1,1-0.1l0.1-0.3c0.1-0.3,0.1-0.5,0-0.6c-0.1-0.1-0.2-0.2-0.4-0.2
		c-0.1,0-0.3,0-0.4,0.1c-0.1,0-0.2,0.1-0.3,0.1c-0.1,0-0.2,0.1-0.2,0.1c-0.1,0-0.1,0.1-0.2,0.1c0,0-0.1,0-0.1,0c0,0,0,0-0.1-0.1
		l-0.1-0.2c0.2-0.2,0.5-0.3,0.7-0.4c0.2-0.1,0.5-0.1,0.8-0.1c0.2,0,0.3,0,0.5,0.1c0.1,0.1,0.2,0.1,0.3,0.3c0.1,0.1,0.1,0.2,0.1,0.4
		c0,0.2,0,0.3-0.1,0.5L137.1,743.8z M135.7,743.4c0.1,0,0.2,0,0.3,0c0.1,0,0.2-0.1,0.3-0.1c0.1,0,0.2-0.1,0.3-0.1
		c0.1-0.1,0.2-0.1,0.3-0.2l0.2-0.7c-0.3,0-0.5,0-0.7,0.1c-0.2,0-0.4,0.1-0.5,0.1c-0.1,0.1-0.2,0.1-0.3,0.2c-0.1,0.1-0.1,0.2-0.1,0.3
		c0,0.1,0,0.2,0,0.2c0,0.1,0,0.1,0.1,0.2c0,0,0.1,0.1,0.1,0.1C135.5,743.4,135.6,743.4,135.7,743.4z M138,743.8l0.9-3.4h0.3
		c0.1,0,0.1,0,0.1,0c0,0,0,0.1,0,0.1l-0.1,0.6c0.2-0.2,0.4-0.4,0.6-0.6c0.2-0.1,0.4-0.2,0.6-0.2c0.1,0,0.2,0,0.2,0
		c0.1,0,0.1,0.1,0.2,0.1l-0.2,0.4c0,0.1-0.1,0.1-0.1,0.1c0,0-0.1,0-0.1,0c-0.1,0-0.1,0-0.3,0c-0.2,0-0.4,0.1-0.6,0.2
		c-0.2,0.1-0.3,0.3-0.5,0.5l-0.6,2.1H138z M140.7,743.8l0.9-3.4h0.4c0.1,0,0.1,0,0.1,0.1l-0.1,0.4c0.2-0.2,0.4-0.3,0.6-0.4
		c0.2-0.1,0.4-0.2,0.7-0.2c0.2,0,0.3,0,0.5,0.1c0.1,0.1,0.2,0.1,0.3,0.3c0.1,0.1,0.1,0.2,0.1,0.4c0,0.2,0,0.3-0.1,0.5l-0.6,2.1h-0.6
		l0.6-2.1c0.1-0.3,0.1-0.5,0-0.6c-0.1-0.1-0.2-0.2-0.5-0.2c-0.2,0-0.3,0-0.5,0.1c-0.2,0.1-0.3,0.2-0.5,0.3l-0.7,2.5H140.7z
		 M145.9,740.4l-0.9,3.4h-0.6l0.9-3.4H145.9z M146.3,739.4c0,0.1,0,0.1-0.1,0.2c0,0-0.1,0.1-0.1,0.1c0,0-0.1,0.1-0.2,0.1
		c-0.1,0-0.1,0-0.2,0c-0.1,0-0.1,0-0.2,0c0,0-0.1-0.1-0.1-0.1c0,0,0-0.1-0.1-0.1c0,0,0-0.1,0-0.2c0-0.1,0-0.1,0.1-0.2
		c0-0.1,0.1-0.1,0.1-0.1c0,0,0.1-0.1,0.2-0.1c0.1,0,0.1,0,0.2,0c0.1,0,0.1,0,0.2,0c0,0,0.1,0.1,0.1,0.1c0,0,0,0.1,0.1,0.1
		C146.4,739.3,146.3,739.3,146.3,739.4z M146.1,743.8l0.9-3.4h0.4c0.1,0,0.1,0,0.1,0.1l-0.1,0.4c0.2-0.2,0.4-0.3,0.6-0.4
		c0.2-0.1,0.4-0.2,0.7-0.2c0.2,0,0.3,0,0.5,0.1c0.1,0.1,0.2,0.1,0.3,0.3c0.1,0.1,0.1,0.2,0.1,0.4c0,0.2,0,0.3-0.1,0.5l-0.6,2.1h-0.6
		l0.6-2.1c0.1-0.3,0.1-0.5,0-0.6c-0.1-0.1-0.2-0.2-0.5-0.2c-0.2,0-0.3,0-0.5,0.1c-0.2,0.1-0.3,0.2-0.5,0.3l-0.7,2.5H146.1z
		 M151.8,740.4c0.1,0,0.3,0,0.4,0c0.1,0,0.2,0.1,0.3,0.1h0.9l-0.1,0.2c0,0.1-0.1,0.1-0.2,0.1l-0.4,0.1c0,0.1,0,0.3,0,0.5
		c0,0.2-0.1,0.3-0.2,0.4c-0.1,0.1-0.2,0.2-0.4,0.3c-0.1,0.1-0.3,0.2-0.5,0.2c-0.2,0-0.3,0.1-0.5,0.1c-0.2,0-0.3,0-0.4-0.1
		c-0.1,0-0.1,0.1-0.2,0.1c-0.1,0.1-0.1,0.1-0.1,0.2c0,0.1,0,0.1,0,0.2c0.1,0,0.1,0.1,0.2,0.1c0.1,0,0.2,0,0.4,0c0.1,0,0.3,0,0.4,0
		c0.1,0,0.3,0,0.4,0c0.1,0,0.2,0.1,0.3,0.1c0.1,0.1,0.2,0.1,0.2,0.2c0,0.1,0,0.2,0,0.4c0,0.1-0.1,0.3-0.2,0.4
		c-0.1,0.1-0.2,0.3-0.4,0.4c-0.2,0.1-0.3,0.2-0.6,0.3c-0.2,0.1-0.4,0.1-0.7,0.1c-0.2,0-0.5,0-0.6-0.1c-0.2,0-0.3-0.1-0.4-0.2
		c-0.1-0.1-0.2-0.2-0.2-0.3c0-0.1,0-0.2,0-0.3c0-0.2,0.1-0.3,0.3-0.4c0.1-0.1,0.3-0.2,0.5-0.3c-0.1,0-0.1-0.1-0.2-0.2
		c0-0.1,0-0.2,0-0.3c0,0,0-0.1,0.1-0.2c0-0.1,0.1-0.1,0.1-0.2c0-0.1,0.1-0.1,0.2-0.1c0.1,0,0.1-0.1,0.2-0.1
		c-0.1-0.1-0.2-0.2-0.3-0.4c-0.1-0.2-0.1-0.3,0-0.5c0-0.2,0.1-0.3,0.2-0.4c0.1-0.1,0.2-0.3,0.4-0.3c0.1-0.1,0.3-0.2,0.5-0.2
		C151.4,740.4,151.6,740.4,151.8,740.4z M151.9,744c0-0.1,0-0.2,0-0.2c0-0.1-0.1-0.1-0.2-0.1c-0.1,0-0.2,0-0.3-0.1
		c-0.1,0-0.2,0-0.3,0c-0.1,0-0.2,0-0.4,0c-0.1,0-0.2,0-0.3,0c-0.1,0.1-0.3,0.1-0.4,0.2c-0.1,0.1-0.2,0.2-0.2,0.3c0,0.1,0,0.1,0,0.2
		c0,0.1,0.1,0.1,0.1,0.2c0.1,0,0.2,0.1,0.3,0.1c0.1,0,0.2,0,0.4,0c0.2,0,0.3,0,0.4,0c0.1,0,0.2-0.1,0.4-0.1c0.1-0.1,0.2-0.1,0.3-0.2
		C151.8,744.1,151.9,744.1,151.9,744z M151.3,742.2c0.1,0,0.2,0,0.3,0c0.1,0,0.2-0.1,0.3-0.1c0.1-0.1,0.1-0.1,0.2-0.2
		c0.1-0.1,0.1-0.2,0.1-0.3c0.1-0.2,0-0.4-0.1-0.5c-0.1-0.1-0.3-0.2-0.5-0.2s-0.4,0.1-0.6,0.2c-0.2,0.1-0.3,0.3-0.3,0.5
		c0,0.1,0,0.2,0,0.3c0,0.1,0,0.2,0.1,0.2c0,0.1,0.1,0.1,0.2,0.1C151.1,742.1,151.2,742.2,151.3,742.2z M159,739l-0.1,0.5h-1.5
		l-1.1,4.2h-0.6l1.1-4.2h-1.5l0.1-0.5H159z M159.9,740.4c0.2,0,0.4,0,0.5,0.1c0.2,0.1,0.3,0.2,0.4,0.3c0.1,0.1,0.1,0.3,0.2,0.5
		c0,0.2,0,0.4-0.1,0.6c0,0.1,0,0.2-0.1,0.2c0,0-0.1,0-0.1,0h-2.2c-0.1,0.2-0.1,0.4-0.1,0.6c0,0.2,0,0.3,0.1,0.4
		c0.1,0.1,0.2,0.2,0.3,0.2c0.1,0.1,0.2,0.1,0.4,0.1c0.1,0,0.3,0,0.4-0.1c0.1,0,0.2-0.1,0.3-0.1c0.1,0,0.2-0.1,0.2-0.1
		c0.1,0,0.1-0.1,0.1-0.1c0,0,0.1,0,0.1,0.1l0.1,0.2c-0.1,0.1-0.2,0.2-0.3,0.2c-0.1,0.1-0.2,0.1-0.4,0.2c-0.1,0-0.3,0.1-0.4,0.1
		c-0.1,0-0.3,0-0.4,0c-0.2,0-0.4,0-0.6-0.1c-0.2-0.1-0.3-0.2-0.4-0.3c-0.1-0.2-0.2-0.3-0.2-0.6c0-0.2,0-0.5,0.1-0.8
		c0.1-0.2,0.2-0.5,0.3-0.7c0.1-0.2,0.3-0.4,0.5-0.5c0.2-0.1,0.4-0.3,0.6-0.4C159.4,740.4,159.6,740.4,159.9,740.4z M159.8,740.8
		c-0.3,0-0.5,0.1-0.7,0.2c-0.2,0.2-0.4,0.4-0.5,0.7h1.8c0-0.1,0-0.3,0-0.4c0-0.1,0-0.2-0.1-0.3c-0.1-0.1-0.1-0.1-0.2-0.2
		C160,740.8,159.9,740.8,159.8,740.8z M163.6,743.8h-0.3c-0.1,0-0.1,0-0.1,0c0,0,0-0.1,0-0.1l0-0.3c-0.1,0.1-0.2,0.2-0.3,0.2
		c-0.1,0.1-0.2,0.1-0.3,0.2c-0.1,0-0.2,0.1-0.3,0.1c-0.1,0-0.2,0-0.4,0c-0.1,0-0.2,0-0.4-0.1c-0.1,0-0.2-0.1-0.3-0.2
		c-0.1-0.1-0.1-0.2-0.1-0.3c0-0.1,0-0.2,0-0.4c0-0.1,0.1-0.3,0.2-0.4c0.1-0.1,0.3-0.2,0.4-0.3c0.2-0.1,0.4-0.2,0.7-0.2
		c0.3-0.1,0.6-0.1,1-0.1l0.1-0.3c0.1-0.3,0.1-0.5,0-0.6c-0.1-0.1-0.2-0.2-0.4-0.2c-0.1,0-0.3,0-0.4,0.1c-0.1,0-0.2,0.1-0.3,0.1
		c-0.1,0-0.2,0.1-0.2,0.1c-0.1,0-0.1,0.1-0.2,0.1c0,0-0.1,0-0.1,0c0,0,0,0-0.1-0.1l-0.1-0.2c0.2-0.2,0.5-0.3,0.7-0.4
		c0.2-0.1,0.5-0.1,0.7-0.1c0.2,0,0.3,0,0.5,0.1c0.1,0.1,0.2,0.1,0.3,0.3c0.1,0.1,0.1,0.2,0.1,0.4c0,0.2,0,0.3-0.1,0.5L163.6,743.8z
		 M162.2,743.4c0.1,0,0.2,0,0.3,0c0.1,0,0.2-0.1,0.3-0.1c0.1,0,0.2-0.1,0.3-0.1c0.1-0.1,0.2-0.1,0.3-0.2l0.2-0.7
		c-0.3,0-0.5,0-0.7,0.1c-0.2,0-0.4,0.1-0.5,0.1c-0.1,0.1-0.2,0.1-0.3,0.2c-0.1,0.1-0.1,0.2-0.2,0.3c0,0.1,0,0.2,0,0.2
		c0,0.1,0,0.1,0.1,0.2c0,0,0.1,0.1,0.1,0.1C162,743.4,162.1,743.4,162.2,743.4z M164.5,743.8l0.9-3.4h0.3c0.1,0,0.1,0,0.1,0.1l0,0.3
		c0.2-0.2,0.3-0.3,0.5-0.4c0.2-0.1,0.4-0.1,0.6-0.1c0.2,0,0.4,0.1,0.5,0.2c0.1,0.1,0.2,0.3,0.2,0.5c0.1-0.1,0.2-0.2,0.3-0.3
		c0.1-0.1,0.2-0.2,0.3-0.2c0.1-0.1,0.2-0.1,0.3-0.1c0.1,0,0.2,0,0.3,0c0.2,0,0.3,0,0.5,0.1c0.1,0.1,0.2,0.1,0.3,0.2
		c0.1,0.1,0.1,0.2,0.1,0.4c0,0.2,0,0.3-0.1,0.5l-0.6,2.1h-0.6l0.6-2.1c0.1-0.3,0.1-0.5,0-0.6c-0.1-0.1-0.2-0.2-0.4-0.2
		c-0.1,0-0.2,0-0.3,0.1c-0.1,0-0.2,0.1-0.3,0.2c-0.1,0.1-0.2,0.2-0.2,0.3c-0.1,0.1-0.1,0.2-0.2,0.4l-0.6,2.1h-0.6l0.6-2.1
		c0.1-0.3,0.1-0.5,0-0.6c-0.1-0.1-0.2-0.2-0.4-0.2c-0.1,0-0.3,0-0.4,0.1c-0.1,0.1-0.3,0.2-0.4,0.3l-0.7,2.5H164.5z"/>
</g>
<g>
	<g>
		<linearGradient id="SVGID_3_" gradientUnits="userSpaceOnUse" x1="759.4194" y1="142.0891" x2="959.5971" y2="142.0891">
			<stop  offset="0" style="stop-color:#FFFFFF;stop-opacity:0"/>
			<stop  offset="4.209470e-02" style="stop-color:#FDEAED;stop-opacity:4.245090e-02"/>
			<stop  offset="0.1274" style="stop-color:#FAC5CD;stop-opacity:0.1284"/>
			<stop  offset="0.2201" style="stop-color:#F7A6B1;stop-opacity:0.222"/>
			<stop  offset="0.3205" style="stop-color:#F58C9B;stop-opacity:0.3232"/>
			<stop  offset="0.4313" style="stop-color:#F37889;stop-opacity:0.4349"/>
			<stop  offset="0.5581" style="stop-color:#F26B7D;stop-opacity:0.5628"/>
			<stop  offset="0.7149" style="stop-color:#F16276;stop-opacity:0.7209"/>
			<stop  offset="0.9916" style="stop-color:#F16074"/>
		</linearGradient>
		<rect x="759.4" y="129.7" class="st8" width="200.2" height="24.7"/>
		<g>
			<path class="st6" d="M907.6,134.6c0.8,0,1.5-0.7,1.5-1.5c0-0.8-0.6-1.5-1.5-1.5c-0.8,0-1.5,0.7-1.5,1.5
				C906.2,134,906.8,134.6,907.6,134.6z"/>
			<path class="st6" d="M911.3,134.6c0.8,0,1.5-0.7,1.5-1.5c0-0.8-0.6-1.5-1.5-1.5c-0.8,0-1.5,0.7-1.5,1.5
				C909.8,134,910.4,134.6,911.3,134.6z"/>
			<path class="st6" d="M918,148.5c-0.8,0-1.5,0.7-1.5,1.5c0,0.8,0.6,1.5,1.5,1.5c0.8,0,1.5-0.7,1.5-1.5
				C919.5,149.1,918.8,148.5,918,148.5z"/>
			<path class="st6" d="M921.7,148.5c-0.8,0-1.5,0.7-1.5,1.5c0,0.8,0.6,1.5,1.5,1.5c0.8,0,1.5-0.7,1.5-1.5
				C923.1,149.1,922.5,148.5,921.7,148.5z"/>
			<path class="st6" d="M920.3,144.4h-3.8h-0.3h-1.8v-7.6c0,0-2-0.8-4.6-0.8c-4,0-5.8,2.6-5.8,5.5c0,3.1,1.6,5.1,5.9,5.1h6.4h0.3
				h6.7v-10.3h-2.9V144.4z M911.5,144.4h-1.4c-2.3,0-3.3-1.1-3.3-3.1c0-1.7,1-3,2.6-3c1.3,0,2.1,0.4,2.1,0.4V144.4z"/>
			<path class="st6" d="M949.6,135.4l-2.8,0.4c0.4,1.7,0.6,3.7,0.6,5.9c0,0.7-0.1,1.8-0.2,2.6h-0.8c-1.9,0-2.4-0.6-2.4-2.4v-5.2
				h-2.8v5.3c0,1.6-0.4,2.5-1.6,2.5c-1.3,0-1.7-0.9-1.7-2.6v-4.4h-2.9v4c0,2.2-0.5,2.8-2,2.8h-0.4h-0.3h-1.8v-8.1h-2.9v10.6
				c0,2.4-0.9,3.1-2.4,3.1c-0.7,0-1.3-0.1-1.8-0.3l-0.2,2.3c0.5,0.1,1.2,0.2,1.8,0.2c4.5,0,5.4-2.7,5.4-5.5v-0.1h1.8h0.3h0.4
				c1.6,0,2.5-0.6,2.9-1.6c0.4,1.1,1.5,1.8,3.1,1.8c1.4,0,2.7-0.6,3.2-1.8c0.5,1.2,1.6,1.6,3.6,1.6h4.1c0.2-1.6,0.3-3.5,0.3-5.1
				C950.3,139.3,950,137.2,949.6,135.4z"/>
		</g>
		<g>
			<path class="st1" d="M736.3,148.4c0,1-1.1,1.5-2.8,2.2l-4.9,1.9c-1.3,0.5-1.9,1.3-1.9,2.3c0,0.3,0.1,0.7,0.2,1.1l0.2-0.1
				c0-0.1,0-0.1,0-0.2c0-0.9,1.3-1.4,2.8-2l4.9-1.9c1.3-0.5,1.9-1.3,1.9-2.2c0-0.4-0.1-0.7-0.2-1.1L736.3,148.4z"/>
			<path class="st1" d="M764.8,96.9c1.7,0,3.1-1.4,3.1-3.1v-2c0-1.2,0-2.3,0.7-2.4v-0.2c-0.4,0-0.8,0.1-1.1,0.3h-2.8
				c-1.8,0-3.4,1.6-3.4,3.4V94C761.4,95.7,762.9,96.9,764.8,96.9z M762.5,92.8c0-1.3,1-2.3,2.5-2.3h2c-0.1,0.2-0.1,0.4-0.1,0.6v2.5
				c0,1.2-1,2.1-2.1,2.1c-1.3,0-2.3-0.8-2.3-1.7V92.8z"/>
			<path class="st1" d="M782.4,78.1c1.9,0,4-1.1,5.2-3.5l1.5-2.5l0.9-1.6c0.5-0.8,0.9-1.7,1.4-1.7c0.1,0,0.2,0,0.2,0l0.1-0.1
				c-0.4-0.2-0.7-0.3-1-0.3l-2.2-1.2c-0.5-0.3-1-0.4-1.5-0.4c-1.1,0-2.3,0.6-2.8,1.6l-0.6,1c-0.2,0.4-0.3,0.8-0.3,1.1
				c0,1.3,1.3,3.1,3.1,3.1c0.2,0,0.4,0,0.6-0.1l-0.3,0.6c-1.3,2.4-3.2,3.4-4.9,3.4c-1.2,0-2.3-0.5-3-1.4l-0.1,0.1
				C779.6,77.4,780.9,78.1,782.4,78.1z M786.6,72.6c-1.3,0-2.1-1.2-2.1-2c0-0.2,0.1-0.4,0.2-0.6l0.5-1c0.4-0.7,1.1-1.1,1.9-1.1
				c0.4,0,0.8,0.1,1.2,0.3l1.4,0.8l-1.7,3.1C787.5,72.4,787,72.6,786.6,72.6z"/>
			<path class="st1" d="M790.8,79c0,0.3,0.1,0.7,0.2,1l0.9,2.5c0.1,0.2,0.1,0.5,0.1,0.8c0,1-0.9,2.1-2.1,2.1c-0.9,0-1.8-0.7-2.3-1.7
				l-1.5-3.8l-1,0.4l1.6,4.2c0.1,0.2,0.1,0.5,0.1,0.7c0,1-0.8,2.2-2.1,2.2c-0.9,0-1.8-0.6-2.2-1.7l-1.5-3.8l-1.1,0.4l1.7,4.4
				c0.6,1.2,1.7,1.8,2.8,1.8c1.5,0,3.1-1,3.4-2.6c0.6,0.4,1.3,0.6,2,0.6c1.8,0,3.2-1.6,3.2-3.3c0-0.4-0.1-0.7-0.2-1.1l-0.8-2
				c-0.3-0.8-0.6-1.5-0.6-2c0-0.3,0.1-0.5,0.3-0.7l0-0.1C791.2,77.7,790.8,78.3,790.8,79z"/>
			<polygon class="st1" points="806.5,98.3 803.7,95.4 800.8,98.3 803.7,101 			"/>
			<path class="st1" d="M829,89.6V90c2.1,0.2,2.1,3.7,2.1,7.2v20c0,4.5-3.4,7.1-5.8,7.3h-4.7v-6.1c0-5.7-4-11.3-10.4-11.8h-6.7
				c-6.7,0-12.2,2.7-15.3,6.4l-0.1,0.1V97.2c0-3.6-2.1-5.1-5.2-5.2v0.3c1.9,0.2,1.9,3.1,1.9,6V122c0,0.9,0.1,1.9,0.3,2.4h-5.4
				c-4.8,0-6.6-1.3-7.3-4.4v-4.2c0-5.5-3.9-9.6-9.7-9.6h-2.5c-3.3,0-6.6,0-6.7-1.9h-0.3c0.1,1.4,0.5,2.7,1.2,3.5
				c0.7,0.9,1.5,1.6,4.2,1.6h4.2c2.6,0,4,0.9,4.8,2c0.8,1.1,1.2,1.7,1.6,5v8h-5.1V115h-3.6c-5.3,0-9.8,4.5-9.9,9.5h-3.3h-0.1h-8.8
				v-18h-3.3v21.2c0,11.5-6.9,18.9-15,18.9c-1.5,0-2.8-0.3-4.2-1l-0.3,0.6c2.1,0.8,4,1.2,5.9,1.2c4.7,0,8.6-1.8,11.7-5.4
				c3.6-3.8,5.1-8.5,5.1-14.3h8.8h0.1h25.1v-2.1c1.7,1.4,3.4,2,7.2,2.1v0h45.8v0c0.8,0,1.8-0.3,2.9-0.9c3.6-1.7,6-5.6,6-9.6V95.6
				C834.3,91.3,832.1,89.7,829,89.6z M760.8,124.5h-7c0-3.4,2.7-6.1,6.5-6.2h0.6V124.5z M817.3,124.5h-31.9c0-0.1-0.1-0.6-0.1-0.9
				c0-6.9,6-13.8,17.9-13.8h6.7c4.9,0.5,7.4,4.6,7.4,8.6V124.5z"/>
			<path class="st1" d="M839.8,89.8v0.4c1.7,0.3,2,1.8,2,7.5v30h3.3V96C845,91.9,843.3,89.9,839.8,89.8z"/>
			<path class="st1" d="M863.6,85.6c1.9,0,4-1.1,5.2-3.5l1.5-2.5l0.9-1.6c0.5-0.8,0.9-1.7,1.4-1.7c0.1,0,0.2,0,0.2,0l0.1-0.1
				c-0.4-0.2-0.7-0.3-1-0.3l-2.2-1.2c-0.5-0.3-1-0.4-1.5-0.4c-1.1,0-2.3,0.6-2.8,1.6l-0.6,1c-0.2,0.4-0.3,0.8-0.3,1.1
				c0,1.3,1.3,3.1,3.1,3.1c0.2,0,0.4,0,0.6-0.1l-0.3,0.6c-1.3,2.4-3.2,3.4-4.9,3.4c-1.2,0-2.3-0.5-3-1.4l-0.1,0.1
				C860.8,84.9,862.2,85.6,863.6,85.6z M867.8,80.1c-1.3,0-2.1-1.2-2.1-2c0-0.2,0.1-0.4,0.2-0.6l0.5-1c0.4-0.7,1.1-1.1,1.9-1.1
				c0.4,0,0.8,0.1,1.2,0.3l1.4,0.8l-1.7,3.1C868.7,79.9,868.2,80.1,867.8,80.1z"/>
			<polygon class="st1" points="869.1,98.4 872,101.3 874.9,98.4 872,95.5 			"/>
			<polygon class="st1" points="863.3,98.4 866.2,101.3 869,98.4 866.2,95.5 			"/>
			<path class="st1" d="M870,105.5c-5.5,0-10.3,4.8-10.3,10.3v3.6c0,4.8,4.7,8.3,10.2,8.3c5.1,0,9.4-4.2,9.4-9.3v-6
				c0-3.5,0-7,2.1-7.2v-0.5c-1.1,0.1-2.3,0.3-3.1,0.8H870z M876.1,110.7v7.6c0,3.4-2.9,6.1-6.2,6.1c-3.9,0-6.8-2.5-6.8-5.1v-3.6
				c0-3.8,3.1-7,7.4-7h5.8C876.1,109.3,876.1,109.9,876.1,110.7z"/>
			<path class="st1" d="M941.2,101.2c0-0.1,0-0.1,0-0.2c0-0.9,1.3-1.4,2.8-2l4.9-1.9c1.3-0.5,1.9-1.3,1.9-2.2c0-0.4-0.1-0.7-0.2-1.1
				l-0.2,0.1c0,1-1.1,1.5-2.8,2.2l-4.9,1.9c-1.3,0.5-1.9,1.3-1.9,2.3c0,0.3,0.1,0.7,0.2,1.1L941.2,101.2z"/>
			<path class="st1" d="M948.5,105.6h-6.9c-10.6,0-18.6,6.3-19.3,14.5c-0.7-2.6-2.2-5.2-4.4-7.3l-0.4,0.3c2.4,2.2,3.2,5.4,3.2,8.8
				c0,1.3-0.3,2.2-0.9,2.5h-2.7c-3.4-0.3-5.9-2.2-6.2-5.5V94.3c0-4.3-2.1-6-5.4-6.1v0.5c2,0.3,2.1,3.6,2.1,7.4v20.6
				c0,4.4-3,7.7-6.8,7.7h-2.9v-14.9c0-4.3-2.1-6-5.5-6.2v0.5c2,0.3,2.2,3.8,2.2,7.5v13.1h-10.9v3.3h17.1c3.5,0,7-2.5,8-4.5
				c1.7,2.9,4.8,4.5,8.2,4.5v0h42.6V118C959.7,111.7,954.5,106.1,948.5,105.6z M956.3,124.5h-33.5v-1c0-8.3,7.6-14.5,18.8-14.5h3.4
				c2.9,0,4.8,0.4,6.2,0.9c3.4,1.7,5.1,4.4,5.1,8.1V124.5z"/>
		</g>
	</g>
</g>
<g>
	<radialGradient id="SVGID_4_" cx="242.5704" cy="251.81" r="54.2731" fx="231.43" fy="235.7665" gradientUnits="userSpaceOnUse">
		<stop  offset="0.1436" style="stop-color:#FFF75D"/>
		<stop  offset="0.5314" style="stop-color:#FFDE00"/>
		<stop  offset="0.9166" style="stop-color:#FF7D00"/>
	</radialGradient>
	<circle class="st9" cx="243.6" cy="254.4" r="48.7"/>
	<g>
		<path class="st10" d="M243.6,205.7c-26.9,0-48.7,21.8-48.7,48.7c0,26.9,21.8,48.7,48.7,48.7c26.9,0,48.7-21.8,48.7-48.7
			C292.3,227.5,270.5,205.7,243.6,205.7z M241.9,299.9c-25.1,0-45.5-20.4-45.5-45.5c0-25.1,20.4-45.5,45.5-45.5
			c25.1,0,45.5,20.4,45.5,45.5C287.4,279.5,267,299.9,241.9,299.9z"/>
		<path class="st10" d="M248.9,189.6c0,2.7-2,4.9-4.6,4.9l0,0c-2.5,0-4.6-2.2-4.6-4.9v-8.7c0-2.7,2-4.9,4.6-4.9l0,0
			c2.5,0,4.6,2.2,4.6,4.9V189.6z"/>
		<path class="st10" d="M248.9,322.8c0,2.7-2,4.9-4.6,4.9l0,0c-2.5,0-4.6-2.2-4.6-4.9v-8.7c0-2.7,2-4.9,4.6-4.9l0,0
			c2.5,0,4.6,2.2,4.6,4.9V322.8z"/>
		<path class="st10" d="M306.6,256.4c-2.7,0-4.9-2-4.9-4.6l0,0c0-2.5,2.2-4.6,4.9-4.6h8.7c2.7,0,4.9,2,4.9,4.6l0,0
			c0,2.5-2.2,4.6-4.9,4.6H306.6z"/>
		<path class="st10" d="M173.4,256.4c-2.7,0-4.9-2-4.9-4.6l0,0c0-2.5,2.2-4.6,4.9-4.6h8.7c2.7,0,4.9,2,4.9,4.6l0,0
			c0,2.5-2.2,4.6-4.9,4.6H173.4z"/>
		<path class="st10" d="M291.6,211c-1.9,1.9-4.9,2.1-6.7,0.3l0,0c-1.8-1.8-1.7-4.8,0.3-6.7l6.2-6.2c1.9-1.9,4.9-2.1,6.7-0.3l0,0
			c1.8,1.8,1.7,4.8-0.3,6.7L291.6,211z"/>
		<path class="st10" d="M197.4,305.2c-1.9,1.9-4.9,2.1-6.7,0.3l0,0c-1.8-1.8-1.7-4.8,0.3-6.7l6.2-6.2c1.9-1.9,4.9-2.1,6.7-0.3l0,0
			c1.8,1.8,1.7,4.8-0.3,6.7L197.4,305.2z"/>
		<path class="st10" d="M285.1,299.1c-1.9-1.9-2-4.9-0.3-6.7l0,0c1.8-1.8,4.8-1.7,6.7,0.3l6.2,6.2c1.9,1.9,2.1,4.9,0.3,6.7l0,0
			c-1.8,1.8-4.8,1.7-6.7-0.3L285.1,299.1z"/>
		<path class="st10" d="M190.9,204.8c-1.9-1.9-2-4.9-0.3-6.7l0,0c1.8-1.8,4.8-1.7,6.7,0.3l6.2,6.2c1.9,1.9,2.1,4.9,0.3,6.7l0,0
			c-1.8,1.8-4.8,1.7-6.7-0.3L190.9,204.8z"/>
	</g>
	<defs>
		<filter id="Adobe_OpacityMaskFilter" filterUnits="userSpaceOnUse" x="197.7" y="209.7" width="72.7" height="48.8">
			<feFlood  style="flood-color:white;flood-opacity:1" result="back"/>
			<feBlend  in="SourceGraphic" in2="back" mode="normal"/>
		</filter>
	</defs>
	<mask maskUnits="userSpaceOnUse" x="197.7" y="209.7" width="72.7" height="48.8" id="SVGID_5_">
		<g class="st11">
			<defs>
				<filter id="Adobe_OpacityMaskFilter_1_" filterUnits="userSpaceOnUse" x="197.7" y="209.7" width="72.7" height="48.8">
					<feFlood  style="flood-color:white;flood-opacity:1" result="back"/>
					<feBlend  in="SourceGraphic" in2="back" mode="normal"/>
				</filter>
			</defs>
			<mask maskUnits="userSpaceOnUse" x="197.7" y="209.7" width="72.7" height="48.8" id="SVGID_5_">
				<g class="st12">
				</g>
			</mask>
			
				<radialGradient id="SVGID_6_" cx="232.6104" cy="214.0761" r="50.6721" fx="249.7865" fy="187.963" gradientUnits="userSpaceOnUse">
				<stop  offset="0.2627" style="stop-color:#FFFFFF"/>
				<stop  offset="0.7268" style="stop-color:#FFFFFF"/>
				<stop  offset="0.9716" style="stop-color:#000000"/>
			</radialGradient>
			<path class="st13" d="M212.4,220.4c9-9.2,32.2-15.4,48.6-6.2c16.4,9.2,11,26.7-15.4,25.7c-26.4-1-42.3,8.6-44.4,16.8
				C199.2,264.9,190.1,243.2,212.4,220.4z"/>
		</g>
	</mask>
	
		<radialGradient id="SVGID_7_" cx="232.6104" cy="214.0761" r="50.6721" fx="249.7865" fy="187.963" gradientUnits="userSpaceOnUse">
		<stop  offset="0.2627" style="stop-color:#FFFFFF"/>
		<stop  offset="0.7268" style="stop-color:#FFF75D"/>
		<stop  offset="0.9716" style="stop-color:#FFDE00"/>
	</radialGradient>
	<path class="st14" d="M212.4,220.4c9-9.2,32.2-15.4,48.6-6.2c16.4,9.2,11,26.7-15.4,25.7c-26.4-1-42.3,8.6-44.4,16.8
		C199.2,264.9,190.1,243.2,212.4,220.4z"/>
</g>
</svg>
