<?xml version="1.0" encoding="utf-8"?>
<!-- Generator: Adobe Illustrator 21.1.0, SVG Export Plug-In . SVG Version: 6.00 Build 0)  -->
<svg version="1.1" id="Layer_1" xmlns="http://www.w3.org/2000/svg" xmlns:xlink="http://www.w3.org/1999/xlink" x="0px" y="0px"
	 viewBox="0 0 1024 768" style="enable-background:new 0 0 1024 768;" xml:space="preserve">
<style type="text/css">
	.st0{fill:url(#SVGID_1_);}
	.st1{fill:#622272;}
	.st2{fill:url(#SVGID_2_);}
	.st3{fill:#C94876;}
	.st4{fill-rule:evenodd;clip-rule:evenodd;fill:#F6DFB4;}
	.st5{fill:#D1D3D4;}
	.st6{fill:#FFFFFF;}
	.st7{fill:#1D5A69;}
	.st8{fill:url(#SVGID_3_);}
	.st9{fill:url(#SVGID_4_);}
	.st10{fill:#FF8A00;}
	.st11{filter:url(#Adobe_OpacityMaskFilter);}
	.st12{filter:url(#Adobe_OpacityMaskFilter_1_);}
	.st13{mask:url(#SVGID_5_);fill:url(#SVGID_6_);}
	.st14{fill:url(#SVGID_7_);}
</style>
<g>
	<g>
		<g>
			<linearGradient id="SVGID_1_" gradientUnits="userSpaceOnUse" x1="245.2461" y1="139.1452" x2="245.2461" y2="722.1362">
				<stop  offset="0.3212" style="stop-color:#1C75BC"/>
				<stop  offset="0.3967" style="stop-color:#247BBF"/>
				<stop  offset="0.517" style="stop-color:#3C8AC7"/>
				<stop  offset="0.667" style="stop-color:#61A4D5"/>
				<stop  offset="0.839" style="stop-color:#95C7E8"/>
				<stop  offset="1" style="stop-color:#CCECFC"/>
			</linearGradient>
			<path class="st0" d="M395.5,267.9h-6.1c-1.8-28.2-25.9-59.6-71.7-93.4c-35-25.9-70.5-43.7-70.9-43.9c-1-0.5-2.2-0.5-3.1,0
				c-0.3,0.2-35.9,18-70.9,43.9c-45.7,33.8-69.8,65.2-71.7,93.4H95c-1.9,0-3.5,1.6-3.5,3.5v360.2H399V271.4
				C399,269.5,397.4,267.9,395.5,267.9z"/>
		</g>
	</g>
</g>
<g>
	<path class="st1" d="M420.1,220.4c-0.8,0-1.5,0.7-1.5,1.5c0,0.8,0.7,1.5,1.5,1.5c0.8,0,1.5-0.7,1.5-1.5
		C421.6,221.1,420.9,220.4,420.1,220.4z"/>
	<path class="st1" d="M420.1,213c-0.8,0-1.5,0.7-1.5,1.5c0,0.8,0.7,1.5,1.5,1.5c0.8,0,1.5-0.7,1.5-1.5
		C421.6,213.7,420.9,213,420.1,213z"/>
	<polygon class="st1" points="462.2,214 463.4,212.1 461.5,210.8 460.2,212.6 	"/>
	<polygon class="st1" points="461.4,209.4 459.5,208.1 458.3,209.9 460.2,211.3 	"/>
	<polygon class="st1" points="460,212.1 458,210.8 456.9,212.6 458.8,214 	"/>
	<polygon class="st1" points="477.1,212.2 475.2,210.9 474,212.7 475.9,214.1 	"/>
	<polygon class="st1" points="473.8,212.2 471.8,210.9 470.6,212.7 472.6,214.1 	"/>
	<path class="st1" d="M479.7,207.3V219c0,0.9-0.1,1.5-0.2,1.9c-0.6,0.4-1.5,0.5-2.3,0.5c-2,0-2.9-0.4-3.4-0.7
		c0.5-0.9,0.8-2.2,1.1-3.7l-0.2-0.1l-1.8,0.5c-0.5,2-0.8,3.1-1.2,3.6c-0.4,0.3-1.1,0.5-1.8,0.5h-0.7c-1.5,0-2.4-0.4-2.9-0.7
		c0.2-0.7,0.3-1.6,0.3-2.6c0-0.3,0-0.7,0-1.1l-0.2-0.1l-1.7,0.6c0,0.5,0.1,0.9,0.1,1.3c0,1.1-0.2,1.8-0.4,2.2
		c-0.4,0.3-1,0.4-1.6,0.4c-0.6,0-1.2-0.1-1.7-0.3c0.4-0.8,0.7-1.8,1.1-2.9l-0.1-0.1l-1.9,0.3c-0.4,1.4-0.8,2.4-1.1,2.8
		c-0.3,0.2-0.8,0.3-1.2,0.3c-0.9,0-2.1-0.3-2.8-0.6c0.4-0.7,0.7-1.6,1.1-2.6L456,218l-2,0.3c-0.4,1.3-0.7,2.1-1,2.5
		c-0.5,0.3-1.5,0.5-3,0.5h-3.1c0.7-0.6,1.2-1.8,1.2-2.6c0-1.2-0.6-2.3-2.8-4.5l-0.2,0l-1.2,1c-1.6,1.9-2.6,4.1-3,6.1h-1.2l0,0
		c0,0,0,0,0,0c-1.2,0-1.7-0.4-2.7-2.3c-0.3-0.7-2.1-4.5-2.8-6H434l-1.4,1.5c1,1.7,2.8,5.2,3.2,6l0.1,0.1c-0.8,0.6-2.5,0.9-3.9,0.9
		c-0.6,0-1.8-0.1-2.6-0.2l-0.1,0.1l-0.3,1.8c0.9,0.2,2.3,0.3,2.8,0.3c2.4,0,4-0.5,4.9-1.4c0.7,1,1.4,1.3,2.5,1.3c0,0,0,0,0,0l0,0
		h1.5c0.1,2.9,2,4.7,4.8,4.7c1.7,0,3.1-1.2,3.1-2.6c0-0.7-0.3-1.5-0.8-2.1h1.6c0,0,0,0,0,0c2.2,0,3.5-0.3,4.4-1.1
		c0.8,0.6,2.1,1.1,3.7,1.1c1,0,1.7-0.2,2.2-0.6c0.8,0.4,1.7,0.6,2.7,0.6c1.2,0,2.1-0.3,2.9-1c1,0.8,2.3,1,3.3,1v0h0.8
		c1.5,0,2.6-0.4,3.3-1.2c1,0.9,2.5,1.2,3.9,1.2v0c0,0,0,0,0,0c0,0,0,0,0,0c0,0,0,0,0,0c3,0,4.8-0.9,4.8-4.4v-11.9l-0.2-0.1
		L479.7,207.3z M445,216.5c0.8,1,1.2,1.7,1.2,2.4c0,1.5-1.4,2.5-3.5,2.5C442.9,219.8,443.7,218.2,445,216.5z M445.8,226.1
		c-1.8,0-3-1.1-3.2-2.7c0.4-0.1,0.9-0.2,1.3-0.2c1.9,0,3.2,1,3.2,2.6C446.8,225.9,446.3,226.1,445.8,226.1z"/>
	<polygon class="st1" points="484.7,207.3 484.7,223.3 484.8,223.4 486.6,223 486.6,206.9 486.5,206.8 	"/>
	<path class="st1" d="M498.4,221.4c-0.5-0.5-0.9-1.3-0.9-1.9c0-1,0.6-1.6,1.6-1.6c0.6,0,1.3,0.2,1.9,0.4l0.5-1.7
		c-0.7-0.4-1.7-0.6-2.5-0.6c-1.8,0-3.3,1.3-3.3,3.2c0,0.8,0.3,1.6,0.7,2.3c-0.6,0-1.3,0.1-2,0.1l0.1,1.7c3.1-0.2,5-0.3,7.6-0.6
		l-0.2-1.7C501.1,221.2,499.8,221.3,498.4,221.4z"/>
	<path class="st1" d="M514.7,221.3c-0.9-0.9-1.4-2-1.4-3c0-1.4,0.9-2.1,2.6-2.1c0.9,0,2,0.3,2.9,0.6l0.1,0l0.2-1.7
		c-0.8-0.4-2.1-0.8-3.2-0.8c-2.6,0-4.6,1.5-4.6,4c0,1,0.4,2.1,1,3.1c-0.8,0-1.7,0-2.7,0c-2,0-2.8-0.4-2.8-2.3v-12.1l-0.1-0.1
		l-1.7,0.4v12c0,3.1,1.8,4,4.2,4c0,0,0,0,0,0l0,0c6.1,0,8.9-0.2,10.8-0.6l0.6-1.7l-0.1-0.1C518.6,221.1,516.8,221.2,514.7,221.3z"/>
	<path class="st1" d="M526.8,213l-1,1.8c1.8,1.8,3.4,3.9,3.7,5.8c-0.5,0.6-2.4,0.9-4,0.9c-0.6,0-1.9-0.1-2.6-0.2l-0.1,0.1l-0.3,1.8
		c0.9,0.2,2.3,0.3,2.8,0.3c3.7,0,5.7-1.1,5.7-3.5c0-1.9-1.6-4.3-4.1-6.9H526.8z"/>
	<path class="st1" d="M542.5,203.8c-0.6,0.1-1.4,0.1-2.2,0.2c-0.3-0.3-0.5-0.6-0.5-1c0-0.5,0.3-0.9,0.9-0.9c0.3,0,0.7,0.1,1.1,0.2
		l0.3-1.2c-0.6-0.2-1.2-0.3-1.7-0.3c-1.2,0-2,0.7-2,1.9c0,0.5,0.2,1,0.4,1.4c-0.4,0-0.7,0-1.1,0l0.1,1.3c1.9-0.1,3.4-0.2,4.6-0.3
		L542.5,203.8z"/>
	<polygon class="st1" points="541.4,206.9 541.3,206.8 539.5,207.3 539.5,223.3 539.7,223.4 541.4,223 	"/>
	<polygon class="st1" points="559.8,207.8 557.9,206.5 556.7,208.3 558.6,209.7 	"/>
	<path class="st1" d="M556.7,212.3c-1.9,0-3.5,2.4-3.5,4.6c0,1.7,1,2.8,3.1,2.8c1,0,1.8-0.1,2.5-0.3c0,0.6-0.1,1.2-0.2,1.5
		c-0.7,0.3-2.2,0.5-6.8,0.5l0,0c0,0,0,0,0,0c-1.6,0-1.9-0.3-2.5-1.9c-0.2-0.6-0.8-2-1.4-3.7h-0.2l-1.4,1.5c0.7,1.4,1.5,2.9,1.8,4
		c-0.5,1.9-2.2,3.7-6.8,4.6l-0.1,0.2l1,1.4c3.8-0.7,6.4-2.7,7.2-4.9c0.4,0.4,1.1,0.6,2,0.6c4.5,0,6.3-0.1,7.6-0.8
		c1.1-0.8,1.5-2.1,1.5-4.4C560.3,215.1,558.9,212.3,556.7,212.3z M556.6,217.8c-1.2,0-1.9-0.4-1.9-1.2c0-1.3,1-2.5,1.9-2.5
		c1.1,0,2.1,1.7,2.2,3.5C558.1,217.8,557.4,217.8,556.6,217.8z"/>
	<polygon class="st1" points="556.4,207.8 554.5,206.5 553.3,208.3 555.3,209.7 	"/>
	<path class="st1" d="M564.1,204c-0.3-0.3-0.5-0.6-0.5-1c0-0.5,0.3-0.9,0.9-0.9c0.3,0,0.7,0.1,1.1,0.2l0.3-1.2
		c-0.6-0.2-1.2-0.3-1.7-0.3c-1.2,0-2,0.7-2,1.9c0,0.5,0.2,1,0.4,1.4c-0.4,0-0.7,0-1.1,0l0.1,1.3c1.9-0.1,3.4-0.2,4.6-0.3l-0.1-1.2
		C565.7,203.8,564.9,203.9,564.1,204z"/>
	<polygon class="st1" points="563.3,207.3 563.3,223.3 563.4,223.4 565.1,223 565.2,206.9 565.1,206.8 	"/>
	<path class="st1" d="M571.9,215.5c-1.9,0-3.5,2.4-3.5,4.6c0,1.7,1,2.8,3.1,2.8c0.9,0,1.7-0.1,2.3-0.3c-0.7,2-3.1,3.1-6.5,3.3
		l-0.1,0.2l1,1.4c5.1-0.1,7.3-3.1,7.3-6.2C575.6,218.3,574.2,215.5,571.9,215.5z M571.8,221c-1.2,0-1.9-0.4-1.9-1.2
		c0-1.3,1-2.5,1.9-2.5c1.1,0,2.1,1.7,2.2,3.5C573.4,221,572.7,221,571.8,221z"/>
	<polygon class="st1" points="616.9,214 618.1,212.1 616.1,210.8 614.9,212.6 	"/>
	<polygon class="st1" points="614.7,212.1 612.7,210.8 611.5,212.6 613.5,214 	"/>
	<polygon class="st1" points="616.1,209.4 614.2,208.1 613,209.9 614.9,211.3 	"/>
	<polygon class="st1" points="631.8,212.2 629.9,210.9 628.7,212.7 630.6,214.1 	"/>
	<polygon class="st1" points="628.4,212.2 626.5,210.9 625.3,212.7 627.3,214.1 	"/>
	<path class="st1" d="M634.4,207.3V219c0,0.9-0.1,1.5-0.2,1.9c-0.6,0.4-1.5,0.5-2.3,0.5c-2,0-2.9-0.4-3.4-0.7
		c0.5-0.9,0.8-2.2,1.1-3.7l-0.2-0.1l-1.8,0.5c-0.5,2-0.8,3.1-1.2,3.6c-0.4,0.3-1.1,0.5-1.8,0.5h-0.7c-1.5,0-2.4-0.4-2.9-0.7
		c0.2-0.7,0.3-1.6,0.3-2.6c0-0.3,0-0.7,0-1.1l-0.2-0.1l-1.7,0.6c0,0.5,0.1,0.9,0.1,1.3c0,1.1-0.2,1.8-0.4,2.2
		c-0.4,0.3-1,0.4-1.6,0.4c-0.6,0-1.2-0.1-1.7-0.3c0.4-0.8,0.7-1.8,1.1-2.9l-0.1-0.1l-1.9,0.3c-0.4,1.4-0.8,2.4-1.1,2.8
		c-0.3,0.2-0.8,0.3-1.2,0.3c-0.9,0-2.1-0.3-2.8-0.6c0.4-0.7,0.7-1.6,1.1-2.6l-0.1-0.1l-2,0.3c-0.4,1.3-0.7,2.1-1,2.5
		c-0.5,0.3-1.5,0.5-3,0.5h-3.1c0.7-0.6,1.2-1.8,1.2-2.6c0-1.2-0.6-2.3-2.8-4.5l-0.2,0l-1.2,1c-1.6,1.9-2.6,4.1-3,6.1h-1.2l0,0
		c0,0,0,0,0,0c-1.2,0-1.7-0.4-2.7-2.3c-0.3-0.7-2.1-4.5-2.8-6h-0.2l-1.4,1.5c1,1.7,2.8,5.2,3.2,6l0.1,0.1c-0.8,0.6-2.5,0.9-3.9,0.9
		c-0.6,0-1.8-0.1-2.6-0.2l-0.1,0.1l-0.3,1.8c0.9,0.2,2.3,0.3,2.8,0.3c2.4,0,4-0.5,4.9-1.4c0.7,1,1.4,1.3,2.5,1.3c0,0,0,0,0,0l0,0
		h1.5c0.1,2.9,2,4.7,4.8,4.7c1.7,0,3.1-1.2,3.1-2.6c0-0.7-0.3-1.5-0.8-2.1h1.6c0,0,0,0,0,0c2.2,0,3.5-0.3,4.4-1.1
		c0.8,0.6,2.1,1.1,3.7,1.1c1,0,1.7-0.2,2.2-0.6c0.8,0.4,1.7,0.6,2.7,0.6c1.2,0,2.1-0.3,2.9-1c1,0.8,2.3,1,3.3,1l0,0h0.8
		c1.5,0,2.6-0.4,3.3-1.2c1,0.9,2.5,1.2,3.9,1.2l0,0c0,0,0,0,0,0c0,0,0,0,0,0s0,0,0,0c3,0,4.8-0.9,4.8-4.4v-11.9l-0.2-0.1
		L634.4,207.3z M599.7,216.5c0.8,1,1.2,1.7,1.2,2.4c0,1.5-1.4,2.5-3.5,2.5C597.6,219.8,598.4,218.2,599.7,216.5z M600.5,226.1
		c-1.8,0-3-1.1-3.2-2.7c0.4-0.1,0.9-0.2,1.3-0.2c1.9,0,3.2,1,3.2,2.6C601.5,225.9,601,226.1,600.5,226.1z"/>
	<polygon class="st1" points="639.4,207.3 639.4,223.3 639.5,223.4 641.2,223 641.3,206.9 641.1,206.8 	"/>
	<polygon class="st1" points="653.5,208.4 651.5,207.1 650.3,208.9 652.3,210.3 	"/>
	<polygon class="st1" points="656.9,208.4 654.9,207.1 653.7,208.9 655.6,210.3 	"/>
	<path class="st1" d="M689.6,215.2c-0.7,0-1.6,0.2-2.1,0.5l-0.7,1.7l0.1,0.1c0.7-0.2,1.5-0.5,2.4-0.5c1.1,0,2.1,0.3,4,1.4
		c0.7,0.4,1.2,0.7,1.7,0.9c-1,0.2-2.2,0.5-3.8,1c-2.6,0.8-3.9,1.1-5.4,1.1c-1.6,0-2.7-0.2-2.7-2.6v-11.8l-0.2-0.1l-1.7,0.4V219
		c0,0.9-0.1,1.5-0.2,1.9c-0.6,0.4-1.5,0.5-2.3,0.5c-1.5,0-2.4-0.4-2.9-0.7c0.2-0.7,0.3-1.6,0.3-2.6c0-0.3,0-0.7,0-1.1l-0.2-0.1
		l-1.7,0.6c0,0.5,0.1,0.9,0.1,1.3c0,1.1-0.2,1.8-0.4,2.2c-0.4,0.3-1,0.4-1.6,0.4c-0.6,0-1.2-0.1-1.7-0.3c0.4-0.8,0.7-1.8,1.1-2.9
		l-0.1-0.1l-1.9,0.3c-0.4,1.4-0.8,2.4-1.1,2.8c-0.3,0.2-0.8,0.3-1.2,0.3c-0.9,0-2.1-0.3-2.8-0.6c0.4-0.7,0.7-1.6,1.1-2.6l-0.1-0.1
		l-2,0.3c-0.4,1.3-0.7,2.1-1,2.5c-0.5,0.3-1.5,0.5-3,0.5c-1.9,0-2.8-0.2-2.8-2.1v-7.4l-0.2,0l-1.7,0.8v1.2c-3.6,1.1-5.5,3.3-5.5,5.1
		c0,1.6,1.5,2.7,4,2.7c0.6,0,1.2-0.1,1.8-0.2c0.6,1.5,2,1.9,3.9,1.9c0,0,0,0,0,0l0,0c2.2,0,3.5-0.3,4.4-1.1c0.8,0.6,2.1,1.1,3.7,1.1
		c1,0,1.7-0.2,2.2-0.6c0.8,0.4,1.7,0.6,2.7,0.6c1.2,0,2.1-0.3,2.9-1c1,0.8,2.3,1,3.3,1l0,0c0,0,0,0,0,0c0,0,0,0,0,0c0,0,0,0,0,0
		c1.8,0,3.1-0.3,4-1.4c0.7,1.2,2.1,1.4,3,1.4v0c0,0,0,0,0,0c0,0,0,0,0,0c0,0,0,0,0,0c1.7,0,3.3-0.3,6.3-1.4c2.6-0.9,4.5-1.4,6.5-1.6
		l0.5-1.7c-1.2-0.1-2.5-0.6-4.6-1.8C691.8,215.6,690.7,215.2,689.6,215.2z M654.8,219.3v0.2c-0.5,0.1-0.9,0.1-1.4,0.1
		c-1,0-2.3-0.4-2.6-1.2c0.3-1,1.8-2.1,4-2.8V219.3z"/>
	<polygon class="st1" points="689.9,226.9 691.8,228.2 693.1,226.4 691.1,225.1 	"/>
	<path class="st1" d="M743.1,215.2c-0.7,0-1.6,0.2-2.1,0.5l-0.7,1.7l0.1,0.1c0.7-0.2,1.5-0.5,2.4-0.5c1.1,0,2.1,0.3,4,1.4
		c0.7,0.4,1.2,0.7,1.7,0.9c-1,0.2-2.2,0.5-3.8,1c-2.6,0.8-3.9,1.1-5.4,1.1c-1.6,0-2.7-0.2-2.7-2.6v-11.8l-0.2-0.1l-1.7,0.4V219
		c0,0.9-0.1,1.5-0.2,1.9c-0.6,0.4-1.5,0.5-2.3,0.5c-1.5,0-2.4-0.4-2.9-0.7c0.2-0.7,0.3-1.6,0.3-2.6c0-0.3,0-0.7,0-1.1l-0.2-0.1
		l-1.7,0.6c0,0.5,0.1,0.9,0.1,1.2c0,1.2-0.2,1.9-0.4,2.2c-0.4,0.3-1,0.4-1.6,0.4c-0.6,0-1.2-0.1-1.7-0.3c0.4-0.8,0.7-1.8,1.1-3
		l-0.1-0.1l-1.9,0.3c-0.5,1.4-0.8,2.4-1.1,2.8c-0.3,0.2-0.8,0.3-1.2,0.3c-0.9,0-1.6-0.4-2-1.3c-0.5-1-0.9-2.4-1.2-3.2h-0.1l-1.7,1.2
		c0.7,1.7,1.3,3.1,1.3,4.4c0,0.5-0.1,1.1-0.3,1.6c-0.7,0.9-1.9,1.8-4.6,1.8c-3.3,0-4.2-1.6-4.2-4c0-0.6,0.1-1.4,0.2-2.2l-0.2-0.1
		l-1.5,0.5c-0.2,0.6-0.4,1.7-0.4,2.7c0,2.9,1.9,4.9,5.7,4.9c3.6,0,6.4-1.7,6.9-5.1c0.6,0.4,1.3,0.6,1.9,0.6c1,0,1.7-0.2,2.2-0.6
		c0.7,0.4,1.7,0.6,2.7,0.6c1.2,0,2.1-0.3,2.8-1c1,0.8,2.3,1,3.3,1l0,0c0,0,0,0,0,0c0,0,0,0,0,0c0,0,0,0,0,0c1.8,0,3.1-0.3,4-1.4
		c0.7,1.2,2.1,1.4,3,1.4v0c0,0,0,0,0,0c0,0,0,0,0,0c0,0,0,0,0,0c1.7,0,3.3-0.3,6.3-1.4c2.6-0.9,4.5-1.4,6.5-1.6l0.5-1.7
		c-1.2-0.1-2.5-0.6-4.6-1.8C745.2,215.6,744.1,215.2,743.1,215.2z"/>
	<polygon class="st1" points="743.3,226.9 745.3,228.2 746.5,226.4 744.5,225.1 	"/>
	<path class="st1" d="M755.2,204c-0.3-0.3-0.5-0.6-0.5-1c0-0.5,0.3-0.9,0.9-0.9c0.3,0,0.7,0.1,1.1,0.2l0.3-1.2
		c-0.6-0.2-1.2-0.3-1.7-0.3c-1.2,0-2,0.7-2,1.9c0,0.5,0.2,1,0.4,1.4c-0.4,0-0.7,0-1.1,0l0.1,1.3c1.9-0.1,3.4-0.2,4.6-0.3l-0.1-1.2
		C756.7,203.8,755.9,203.9,755.2,204z"/>
	<polygon class="st1" points="754.3,207.3 754.3,223.3 754.5,223.4 756.2,223 756.2,206.9 756.1,206.8 	"/>
	<path class="st1" d="M763,215.5c-1.9,0-3.5,2.4-3.5,4.6c0,1.7,1,2.8,3.1,2.8c0.9,0,1.7-0.1,2.3-0.3c-0.7,2-3.1,3.1-6.5,3.3
		l-0.1,0.2l1,1.4c5.1-0.1,7.3-3.1,7.3-6.2C766.6,218.3,765.2,215.5,763,215.5z M762.9,221c-1.2,0-1.9-0.4-1.9-1.2
		c0-1.3,1-2.5,1.9-2.5c1.1,0,2.1,1.7,2.2,3.5C764.4,221,763.7,221,762.9,221z"/>
	<path class="st1" d="M778.9,213l-1,1.8c1.8,1.8,3.4,3.9,3.7,5.8c-0.5,0.6-2.4,0.9-4,0.9c-0.6,0-1.9-0.1-2.6-0.2l-0.1,0.1l-0.3,1.8
		c0.9,0.2,2.3,0.3,2.8,0.3c3.7,0,5.7-1.1,5.7-3.5c0-1.9-1.6-4.3-4.1-6.9H778.9z"/>
	<polygon class="st1" points="799,226.9 801,228.2 802.2,226.4 800.2,225.1 	"/>
	<path class="st1" d="M831.1,207.3V219c0,0.9-0.1,1.5-0.2,1.9c-0.6,0.4-1.5,0.5-2.3,0.5c-1.5,0-2.4-0.4-2.9-0.7
		c0.2-0.7,0.3-1.6,0.3-2.6c0-0.3,0-0.7,0-1.1l-0.2-0.1l-1.7,0.6c0,0.5,0.1,0.9,0.1,1.3c0,1.1-0.2,1.8-0.4,2.2
		c-0.4,0.3-1,0.4-1.6,0.4c-0.6,0-1.2-0.1-1.7-0.3c0.4-0.8,0.7-1.8,1.1-2.9l-0.1-0.1l-1.9,0.3c-0.4,1.4-0.8,2.4-1.1,2.8
		c-0.3,0.2-0.8,0.3-1.2,0.3c-0.9,0-2.1-0.3-2.8-0.6c0.4-0.7,0.7-1.6,1.1-2.6l-0.1-0.1l-2,0.3c-0.4,1.3-0.7,2.1-1,2.5
		c-0.5,0.3-1.5,0.5-3,0.5c-2.1,0-3.3-0.2-4-0.9c0.6-0.1,1.2-0.2,1.8-0.3l0.4-1.7c-1.1-0.1-2.3-0.5-4.7-1.8c-2-1.1-3.2-1.6-4.2-1.6
		c-0.7,0-1.6,0.2-2.1,0.5l-0.7,1.8l0.1,0.1c0.7-0.3,1.5-0.5,2.4-0.5c1.1,0,2.1,0.4,4,1.4c0.7,0.4,1.2,0.6,1.7,0.8
		c-1.1,0.2-2.3,0.5-3.8,1c-2.5,0.8-3.8,1.1-5.4,1.1l0,0c0,0,0,0,0,0h-1.9v-0.1c0-3.1-1.5-5.7-3.6-5.7c-1.9,0-3.5,2.4-3.5,4.7
		c0,1.9,1.4,3.1,4.4,3.1h0.7c-1,1.6-3.2,2.5-6.1,2.7l-0.1,0.2l1,1.4c4-0.1,6.2-2,7-4.2h1.8c0,0,0,0,0,0l0,0c1.8,0,3.3-0.3,6.4-1.4
		c1-0.4,1.9-0.6,2.7-0.9c0.8,1.5,2.2,2.3,5.4,2.3l0,0c0,0,0,0,0,0c0,0,0,0,0,0c0,0,0,0,0,0c2.2,0,3.5-0.3,4.4-1.1
		c0.8,0.6,2.1,1.1,3.7,1.1c1,0,1.7-0.2,2.2-0.6c0.8,0.4,1.7,0.6,2.7,0.6c1.2,0,2.1-0.3,2.9-1c1,0.8,2.3,1,3.3,1l0,0c0,0,0,0,0,0
		c0,0,0,0,0,0c0,0,0,0,0,0c3,0,4.8-0.9,4.8-4.4v-11.9l-0.2-0.1L831.1,207.3z M791.4,221.4h-1c-2.2,0-3.1-0.5-3.1-1.4
		c0-1.6,1-2.6,1.9-2.6c1.1,0,2.2,1.8,2.2,3.8V221.4z"/>
	<polygon class="st1" points="836.1,207.3 836.1,223.3 836.2,223.4 837.9,223 837.9,206.9 837.8,206.8 	"/>
	<polygon class="st1" points="853.9,213.8 851.9,212.5 850.7,214.3 852.7,215.7 	"/>
	<path class="st1" d="M867.8,215.5c-2.2,0-3.4,2.9-4.3,4.3c-0.6,1.1-1.1,1.5-2.2,1.5l0,0c-0.1,0-0.1,0-0.2,0c-1,0-1.7-0.4-2.2-1.4
		c-0.5-0.9-0.9-2.4-1.2-3.2h-0.1l-1.7,1.2c1.1,2.4,1.8,4.2,1,6c-0.7,0.9-1.9,1.8-4.6,1.8c-3.3,0-4.2-1.6-4.2-4
		c0-0.6,0.1-1.4,0.2-2.2l-0.2-0.1l-1.5,0.5c-0.2,0.6-0.4,1.7-0.4,2.7c0,2.9,1.9,4.9,5.7,4.9c3.6,0,6.4-1.7,6.9-5.1
		c0.6,0.4,1.3,0.6,1.9,0.6c0,0,0,0,0,0l0,0c1.7,0,2.8-0.4,3.6-1.5c1.7,1.2,3.6,1.8,4.8,1.8c1.6,0,2.4-1,2.4-2.6
		C871.8,218.2,870,215.5,867.8,215.5z M869.9,221.4c-0.3,0.2-0.7,0.3-1,0.3c-0.7,0-2.1-0.5-3.5-1.4c1-1.8,1.5-2.9,2.4-2.9
		C869,217.4,870.2,220.2,869.9,221.4z"/>
	<path class="st1" d="M891,207.3v13.1c0,1.9-0.3,3.1-0.6,3.7c-1,1.2-2.4,1.7-4.4,1.7c-3.3,0-4.2-1.6-4.2-4c0-0.6,0.1-1.4,0.2-2.2
		l-0.2-0.1l-1.5,0.5c-0.2,0.6-0.4,1.7-0.4,2.7c0,2.9,1.9,4.9,5.7,4.9c4.7,0,7.2-2.1,7.2-7.5l0-13.2l-0.2-0.1L891,207.3z"/>
	<polygon class="st1" points="914,212.2 912,210.9 910.8,212.7 912.8,214.1 	"/>
	<polygon class="st1" points="910.6,212.2 908.7,210.9 907.5,212.7 909.4,214.1 	"/>
	<path class="st1" d="M919.2,221.3c-0.9-0.9-1.4-2-1.4-3c0-1.4,0.9-2.1,2.6-2.1c0.9,0,2,0.3,2.9,0.6l0.1,0l0.2-1.7
		c-0.8-0.4-2.1-0.8-3.2-0.8c-2.6,0-4.6,1.5-4.6,4c0,1,0.4,2.1,1,3.1c-0.8,0-1.7,0-2.6,0c-2,0-2.9-0.4-3.4-0.7
		c0.5-0.9,0.8-2.2,1.1-3.7l-0.2-0.1l-1.8,0.5c-0.5,2-0.8,3.1-1.2,3.6c-0.4,0.3-1.1,0.5-1.8,0.5H906l0,0c0,0,0,0,0,0
		c-1.2,0-1.7-0.4-2.7-2.3c-0.3-0.7-2.1-4.5-2.8-6h-0.2l-1.4,1.5c1,1.7,2.8,5.2,3.2,6l0.1,0.1c-0.8,0.6-2.5,0.9-3.9,0.9
		c-0.6,0-1.8-0.1-2.6-0.2l-0.1,0.1l-0.3,1.8c0.9,0.2,2.3,0.3,2.8,0.3c2.4,0,4-0.5,4.9-1.4c0.7,1,1.4,1.3,2.5,1.3c0,0,0,0,0,0l0,0
		h0.8c1.5,0,2.6-0.4,3.3-1.2c1,0.9,2.5,1.2,3.9,1.2l0,0c0,0,0,0,0,0c0,0,0,0,0,0l0,0c6.1,0,8.9-0.2,10.8-0.6l0.6-1.7l-0.1-0.1
		C923.2,221.1,921.3,221.2,919.2,221.3z"/>
	<polygon class="st1" points="927.7,207.3 927.7,223.3 927.9,223.4 929.6,223 929.6,206.9 929.5,206.8 	"/>
	<path class="st1" d="M930.7,203.8c-0.6,0.1-1.4,0.1-2.2,0.2c-0.3-0.3-0.5-0.6-0.5-1c0-0.5,0.3-0.9,0.9-0.9c0.3,0,0.7,0.1,1.1,0.2
		l0.3-1.2c-0.6-0.2-1.2-0.3-1.7-0.3c-1.2,0-2,0.7-2,1.9c0,0.5,0.2,1,0.4,1.4c-0.4,0-0.7,0-1.1,0l0.1,1.3c1.9-0.1,3.4-0.2,4.6-0.3
		L930.7,203.8z"/>
</g>
<linearGradient id="SVGID_2_" gradientUnits="userSpaceOnUse" x1="505.5203" y1="429.0973" x2="1024.0603" y2="429.0973">
	<stop  offset="0.1199" style="stop-color:#FFFFFF"/>
	<stop  offset="0.9969" style="stop-color:#FEF1D4"/>
</linearGradient>
<rect x="505.5" y="289.1" class="st2" width="518.5" height="280"/>
<g>
	<path class="st3" d="M546.8,339.2c1.6,0,2.5-1.3,2.5-2.5c0-1.9-1.6-1.7-1.6-3c0-0.9,0.8-2.2,1.7-3.4l-2-1.2c-1.9,2.3-3.2,4.6-3.2,7
		C544.2,338,545.2,339.2,546.8,339.2z"/>
	<polygon class="st3" points="564.1,324.2 567.2,326.4 569.2,323.3 565.9,321.1 564.5,323.2 561.4,321.1 559.4,324.1 562.6,326.4 	
		"/>
	<path class="st3" d="M562.6,339.4h2c4.1,0,7.6-0.5,9.2-1.4c1.7-1,2.5-3.1,2.5-5c0-1.4-0.4-3.7-1.5-6.3h-0.4l-3.3,2.6
		c1.1,2.4,1.7,4.3,1.7,5.4c-1.2,0.4-4.1,0.7-7.1,0.7H564c-6.3,0-8.8-0.9-8.8-4.2c0-0.8,0.1-1.7,0.3-2.7l-0.3-0.2l-2.8,1.1
		c-0.4,1.3-0.6,2.5-0.6,3.9C551.7,337.3,555.5,339.4,562.6,339.4z"/>
	<path class="st3" d="M586.2,339h0.6c2.3,0,3.9-0.5,5.1-1.5c1.3,1,3.4,1.5,5,1.5c0,0,0,0,0,0l0,0h1.1c2,0,3.5-0.5,4.7-1.5
		c1.2,1,3.4,1.5,5.8,1.5l0,0h7.8c4.1,0,6.3-0.2,8.1-1.3c1.3,0.9,3.2,1.3,4.7,1.3c0,0,0,0,0,0v0c4.8,0,7.6-1.4,7.6-7v-15l-0.3-0.2
		l-3.7,1v14.4c0,1.1-0.1,1.9-0.2,2.4c-0.6,0.3-1.7,0.4-2.6,0.4v0c0,0,0,0,0,0c-1.2,0-2.3-0.2-3.1-0.4c0.2-0.6,0.3-1.2,0.3-1.9
		c0-2.6-1.8-5.6-4.9-5.6c-1.8,0-3.8,1.1-6.4,3.3l0.1-13.3l-0.3-0.2l-3.7,1v16c-0.4,0.4-0.8,0.7-1.2,1.2h-1.3v0c0,0,0,0,0,0
		c-2.1,0-3.6-0.3-4.5-0.6c0.6-1.4,1.1-3.1,1.5-5l-0.3-0.2l-4.1,1c-0.4,2.1-0.8,3.7-1.1,4.5c-0.4,0.3-1.4,0.4-2.2,0.4h-0.7l0,0
		c0,0,0,0,0,0c-1.5,0-2.7-0.3-3.6-0.6c0.6-1.4,1.1-3.1,1.5-5l-0.3-0.2l-4.1,1c-0.4,2.1-0.8,3.7-1.1,4.5c-0.4,0.3-1.3,0.4-2.5,0.4
		h-0.6c-2.3,0-3.2-0.6-3.2-2.8V317l-0.3-0.2l-3.7,1v14.7C579.9,337.1,582,339,586.2,339z M621.7,330.8c1.3,0,2.2,1.4,2.2,2.5
		c0,0.5-0.1,1-0.3,1.2c-0.8,0.4-2,0.4-6.5,0.4h-2.4C617.8,332.4,620.2,330.8,621.7,330.8z"/>
	<polygon class="st3" points="589.1,344.5 592.5,346.9 594.6,343.7 591.3,341.4 	"/>
	<polygon class="st3" points="602.5,344.5 605.6,346.7 607.7,343.6 604.4,341.4 603,343.5 599.8,341.4 597.8,344.4 601,346.7 	"/>
	<polygon class="st3" points="644.5,338.5 644.6,317 644.3,316.8 640.6,317.8 640.6,339 640.9,339.2 	"/>
	<path class="st3" d="M658.9,335.8c0-4.4-2-8.2-5.4-8.2c-3,0-5.3,3.6-5.3,6.6c0,2.3,1.4,3.8,4.4,3.8c1,0,1.8-0.1,2.6-0.2
		c-1.2,2.1-4.1,3.4-8.5,3.4l-0.2,0.4l1.9,3C655.6,344.6,658.9,340.2,658.9,335.8z M653.4,334.6c-1.5,0-2.1-0.3-2.1-1
		c0-1,0.9-2.2,2-2.2c1.2,0,2.1,1.4,2.4,3C654.9,334.6,654.2,334.6,653.4,334.6z"/>
	<path class="st3" d="M679.9,339.4h2c4.1,0,7.6-0.5,9.2-1.4c1.7-1,2.5-3.1,2.5-5c0-1.4-0.4-3.7-1.5-6.3h-0.4l-3.3,2.6
		c1.1,2.4,1.7,4.3,1.7,5.4c-1.2,0.4-4.1,0.7-7.1,0.7h-1.8c-6.3,0-8.8-0.9-8.8-4.2c0-0.8,0.1-1.7,0.3-2.7l-0.3-0.2l-2.8,1.1
		c-0.4,1.3-0.6,2.5-0.6,3.9C669,337.3,672.9,339.4,679.9,339.4z"/>
	<polygon class="st3" points="681.4,324.2 684.5,326.4 686.6,323.3 683.3,321.1 681.8,323.2 678.7,321.1 676.7,324.1 680,326.4 	"/>
	<polygon class="st3" points="701.2,338.5 701.3,317 701,316.8 697.2,317.8 697.2,339 697.5,339.2 	"/>
	<path class="st3" d="M714.9,339h2c0,0,0,0,0.1,0l0,0c3.2,0,4.8-0.4,5.9-1.8c1.1,1.5,2.8,1.8,4,1.8c0,0,0,0,0,0v0
		c1.9,0,3.2-0.3,4.3-1c2.1,0.9,3.9,1,7.3,1h3.4c4.1,0,6.3-0.2,8.1-1.3c1.3,0.9,3.2,1.3,4.7,1.3c0,0,0,0,0,0v0c4.8,0,7.6-1.4,7.6-7
		v-15l-0.3-0.2l-3.7,1v14.4c0,1.1-0.1,1.9-0.2,2.4c-0.6,0.3-1.7,0.4-2.6,0.4l0,0c0,0,0,0,0,0c-1.2,0-2.3-0.2-3.2-0.4
		c0.2-0.6,0.3-1.2,0.3-1.9c0-2.6-1.8-5.6-4.9-5.6c-2.9,0-6.2,2.8-11.6,7.9c-1,0-1.8-0.1-2.6-0.3c0.5-1,0.9-2.2,1.4-3.7l-0.1-0.1
		l-4.3,0.6c-0.3,1.4-0.5,2.6-0.8,3.3c-0.4,0.2-1.4,0.3-2.1,0.3v0c0,0,0,0,0,0c-2.4,0-3.2-0.4-3.2-2.8V317l-0.3-0.2l-3.7,1v14.4
		c0,1.1-0.1,1.9-0.2,2.4c-0.6,0.3-1.7,0.4-2.6,0.4l0,0c0,0,0,0-0.1,0h-2.2c-0.2-4.1-2.3-7.4-5.4-7.4c-3,0-5.3,3.6-5.3,6.7
		c0,2.9,2,4.7,6.3,4.7c-1.4,1.5-4,2.2-7.9,2.3l-0.2,0.4l1.9,3C710.4,344.7,713.6,342.2,714.9,339z M747.3,330.8
		c1.3,0,2.1,1.4,2.1,2.5c0,0.5-0.1,1-0.3,1.2c-0.9,0.4-2,0.4-5.8,0.4h-3.1C743.3,332.4,745.8,330.8,747.3,330.8z M711.2,335
		c-2.3,0-3.2-0.4-3.2-1.3c0-1.1,0.9-2.2,2-2.2c1.2,0,2.3,1.6,2.4,3.6H711.2z"/>
	<polygon class="st3" points="770.2,338.5 770.3,317 769.9,316.8 766.2,317.8 766.2,339 766.5,339.2 	"/>
	<path class="st3" d="M784.6,335.8c0-4.4-2-8.2-5.4-8.2c-3,0-5.3,3.6-5.3,6.6c0,2.3,1.4,3.8,4.4,3.8c1,0,1.8-0.1,2.6-0.2
		c-1.2,2.1-4.1,3.4-8.5,3.4l-0.2,0.4l1.9,3C781.2,344.6,784.6,340.2,784.6,335.8z M779.1,334.6c-1.5,0-2.1-0.3-2.1-1
		c0-1,0.9-2.2,2-2.2c1.2,0,2.1,1.4,2.4,3C780.6,334.6,779.9,334.6,779.1,334.6z"/>
	<path class="st3" d="M799.9,337.4c1,0,2-0.2,3-0.5c1.1,1.5,2.8,2.1,5.2,2.1c0,0,0,0,0.1,0l0,0c3.2,0,4.8-0.4,5.9-1.8
		c1.1,1.5,2.8,1.8,4,1.8c0,0,0,0,0,0v0c4.8,0,7.6-1.4,7.6-7v-15l-0.3-0.2l-3.7,1v14.4c0,1.1-0.1,1.9-0.2,2.4
		c-0.6,0.3-1.7,0.4-2.6,0.4v0c0,0,0,0,0,0c-2.4,0-3.2-0.4-3.2-2.8V317l-0.3-0.2l-3.7,1v14.4c0,1.1-0.1,1.9-0.2,2.4
		c-0.6,0.3-1.7,0.4-2.6,0.4l0,0c0,0,0,0,0,0c-2.4,0-3-0.5-3-2.2v-9.6l-0.3-0.1l-3.7,1.4v1.5c-5,1.7-7.7,4.6-7.7,7.3
		C794.2,335.8,796.4,337.4,799.9,337.4z M801.9,329.8v3v0.6c-0.5,0.1-1,0.1-1.6,0.1c-1.2,0-2.5-0.4-2.8-1.3
		C797.8,331.2,799.7,330.3,801.9,329.8z"/>
	<path class="st3" d="M846.9,339.4h2c4.1,0,7.6-0.5,9.2-1.4c1.7-1,2.5-3.1,2.5-5c0-1.4-0.4-3.7-1.5-6.3h-0.4l-3.3,2.6
		c1.1,2.4,1.7,4.3,1.7,5.4c-1.2,0.4-4.1,0.7-7.1,0.7h-1.8c-6.3,0-8.8-0.9-8.8-4.2c0-0.8,0.1-1.7,0.3-2.7l-0.3-0.2l-2.8,1.1
		c-0.4,1.3-0.6,2.5-0.6,3.9C836,337.3,839.9,339.4,846.9,339.4z"/>
	<polygon class="st3" points="848.4,324.2 851.5,326.4 853.6,323.3 850.3,321.1 848.8,323.2 845.7,321.1 843.7,324.1 847,326.4 	"/>
	<path class="st3" d="M870.6,339C870.6,339,870.6,339,870.6,339L870.6,339h1.1c2,0,3.5-0.5,4.7-1.5c1.2,1,3.4,1.5,5.8,1.5l0,0
		c0,0,0,0,0,0c0,0,0,0,0,0c0,0,0,0,0,0c3.5,0,6.4-0.7,10.8-2.9l1.2-0.6c1.2,2.2,3.1,3.5,8.2,3.5l0,0h1.1c2,0,3.5-0.5,4.7-1.5
		c1.2,1,3.4,1.5,5.8,1.5l0,0c0,0,0,0,0,0c0,0,0,0,0,0c0,0,0,0,0,0c4.7,0,7.6-1.4,7.6-7v-15l-0.3-0.2l-3.7,1v14.4
		c0,1.1-0.1,1.9-0.2,2.4c-0.6,0.3-1.7,0.4-2.6,0.4v0c0,0,0,0,0,0c-2.1,0-3.6-0.3-4.5-0.6c0.6-1.4,1.1-3.1,1.5-5l-0.3-0.2l-4.1,1
		c-0.4,2.1-0.8,3.7-1.1,4.5c-0.4,0.3-1.4,0.4-2.2,0.4h-0.7c-3.1,0-4.7-0.2-5.8-0.8c1-0.3,1.9-0.4,2.7-0.4l0.7-3.6
		c-2.2,0-4.3-0.5-7.6-2.1c-2.5-1.2-3.8-1.5-4.9-1.5c-1.1,0-2.2,0.3-2.9,0.7l-1.4,3.6l0.2,0.1c1.1-0.3,2.2-0.6,3.7-0.6
		c1.4,0,2.8,0.4,5.3,1.6c0.4,0.2,0.8,0.4,1.1,0.5c-0.7,0.2-1.5,0.5-2.5,0.9c-3.7,1.3-5.6,1.7-8.8,1.7v0c0,0,0,0,0,0
		c-2.1,0-3.6-0.3-4.5-0.6c0.6-1.4,1.1-3.1,1.5-5l-0.3-0.2l-4.1,1c-0.4,2.1-0.8,3.7-1.1,4.5c-0.4,0.3-1.4,0.4-2.2,0.4h-0.7v0
		c0,0,0,0,0,0c-2.3,0-3.2-0.6-3.2-2.8V317l-0.3-0.2l-3.7,1v14.7C864.2,337.1,866.4,339,870.6,339z"/>
	<polygon class="st3" points="876.1,344.5 879.2,346.7 881.3,343.6 878,341.4 876.6,343.5 873.4,341.4 871.4,344.4 874.7,346.7 	"/>
	<polygon class="st3" points="909,323.8 912.2,326.1 914.2,323 910.9,320.7 909.5,322.9 906.4,320.7 904.3,323.8 907.6,326.1 	"/>
	<polygon class="st3" points="929.3,338.5 929.4,317 929.1,316.8 925.4,317.8 925.4,339 925.6,339.2 	"/>
	<path class="st3" d="M460.6,379.1c-1.8,2.3-3.1,4.6-3.1,7c0,1.9,0.9,3.1,2.5,3.1c1.5,0,2.4-1.3,2.4-2.5c0-1.9-1.5-1.7-1.5-3
		c0-0.9,0.7-2.2,1.6-3.4L460.6,379.1z"/>
	<path class="st3" d="M483.7,376.7h-0.3l-3,2.6c1,2.1,1.9,4.3,1.7,5.5c-0.5,0.2-1.8,0.3-2.9,0.3h-0.9l0,0c0,0,0,0,0,0
		c-2.3,0-2.9-0.5-2.9-2.2v-9.6l-0.3-0.1l-3.5,1.4v1.5c-4.8,1.7-7.3,4.6-7.3,7.3c0,2.5,2.1,4.1,5.4,4.1c1,0,1.9-0.2,2.8-0.5
		c1,1.5,2.7,2.1,4.9,2.1c0,0,0,0,0.1,0l0,0h1c3,0,4.4-0.4,5.4-1.4c1.1-1.1,1.6-2.6,1.6-4.3C485.4,381.8,484.7,379,483.7,376.7z
		 M471.5,382.8v0.6c-0.5,0.1-0.9,0.1-1.5,0.1c-1.1,0-2.4-0.4-2.7-1.3c0.4-1,2.1-1.9,4.2-2.5V382.8z"/>
	<polygon class="st3" points="481.9,372 484.9,374.2 486.8,371.1 483.7,368.9 482.3,371 479.4,368.9 477.5,371.9 480.6,374.2 	"/>
	<path class="st3" d="M494.9,389L494.9,389l3,0c6.3,0,8.5-2.3,8.5-5.5c0-1.8-0.9-3.7-5.8-7.2l6.4-3.4l1.2-4.8l-0.3-0.2l-10.5,5.7
		l-0.9,4.5l0.2,0.2c2.9,2,6.5,4.4,6.5,5.9c-0.8,0.4-3.2,0.8-5.6,0.8h-2c-2.2,0-3-0.6-3-2.8V367l-0.3-0.2l-3.5,1v14.7
		C488.9,387.1,490.9,389,494.9,389C494.9,389,494.9,389,494.9,389z"/>
	<path class="st3" d="M506.1,391.6l-0.2,0.3l2,2.9c4.5-0.8,8-3.1,9.1-6.3c0.6,0.3,1.4,0.5,2.5,0.5c0,0,0,0,0,0l0,0h0.4
		c3,0,4.4-0.4,5.4-1.4c1.1-1.2,1.6-2.6,1.6-4.3c0-1.5-0.7-4.3-1.7-6.6h-0.3l-3.1,2.6c1,2.1,1.9,4.3,1.7,5.5
		c-0.5,0.2-1.8,0.3-2.9,0.3h-0.3l0,0c0,0,0,0,0,0c-2.1,0-2.7-0.4-3.6-2.8l-1.3-3.9h-0.4l-2.7,3.3c0.8,1.7,1.6,3.5,2.2,5.1
		C513.6,388.6,510.8,390.7,506.1,391.6z"/>
	<polygon class="st3" points="521.3,394.5 524.6,396.9 526.6,393.7 523.4,391.4 	"/>
	<path class="st3" d="M540.2,385.8c0-4.4-1.9-8.2-5.1-8.2c-2.9,0-5,3.6-5,6.6c0,2.3,1.3,3.8,4.2,3.8c0.9,0,1.7-0.1,2.4-0.2
		c-1.1,2.1-3.9,3.4-8.1,3.4l-0.2,0.4l1.8,3C537,394.6,540.2,390.2,540.2,385.8z M535,384.6c-1.4,0-2-0.3-2-1c0-1,0.8-2.2,1.9-2.2
		c1.1,0,2,1.4,2.2,3C536.4,384.6,535.8,384.6,535,384.6z"/>
	<polygon class="st3" points="582.2,389 582.4,389.2 585.9,388.5 586,367 585.7,366.8 582.2,367.8 	"/>
	<path class="st3" d="M563.2,363.7c-0.2,0.6-0.3,1.5-0.3,1.9c0,1.5,0.7,2.8,2.8,2.8c0.8,0,1.6-0.3,2-0.8c0.3,0.4,1,0.8,1.8,0.8
		c2,0,2.9-1.4,2.9-3.3c0-1-0.2-1.8-0.5-2.5l-2.1,0.5c0.2,0.6,0.3,1.2,0.3,1.8c0,0.7-0.2,1.2-0.7,1.2c-0.5,0-0.8-0.3-0.8-1.1
		c0-0.3,0-0.7,0-1.3l-1.9,0.2c0,1.9-0.2,2.3-0.8,2.3c-0.5,0-0.7-0.3-0.7-1.1c0-0.3,0-0.9,0.1-1.4L563.2,363.7z"/>
	<rect x="566.3" y="357.8" class="st3" width="2.7" height="4.1"/>
	<path class="st3" d="M554.8,387.4c1,0,1.9-0.2,2.8-0.5c0.9,1.4,2.5,2,4.6,2.1h0.2c0,0,0.1,0,0.1,0h0.2c2.7,0,4.2-0.5,5.2-1.8
		c0.9,1.3,2.3,1.8,3.5,1.8h0.2c0,0,0.1,0,0.1,0h0.2c4.2-0.1,6.7-1.6,6.7-7v-15l-0.3-0.2l-3.5,1v14.4c0,1.1-0.1,1.9-0.2,2.4
		c-0.6,0.3-1.5,0.4-2.3,0.4c-2.1,0-2.8-0.4-2.8-2.8v-11.7l-0.3-0.2l-3.5,1v10.9c0,1.1-0.1,1.9-0.2,2.4c-0.6,0.3-1.5,0.4-2.3,0.4
		c-2.2,0-2.7-0.6-2.7-2.2v-9.6l-0.3-0.1l-3.5,1.4v1.5c-4.8,1.7-7.3,4.6-7.3,7.3C549.4,385.8,551.4,387.4,554.8,387.4z M556.7,379.8
		v3v0.6c-0.5,0.1-0.9,0.1-1.5,0.1c-1.1,0-2.4-0.4-2.7-1.3C552.8,381.2,554.6,380.3,556.7,379.8z"/>
	<polygon class="st3" points="600.1,370.9 601.4,368.7 604.4,370.9 606.3,367.9 603.2,365.6 601.8,367.8 598.9,365.6 597,368.6 	"/>
	<path class="st3" d="M613.6,387.2c2,1.5,4.1,2.2,5.4,2.2c1.2,0,2-0.5,2.6-1.5c0.9,0.8,1.8,1.1,3.1,1.1c0,0,0,0,0,0l0,0
		c2.3,0,4.4-0.4,8.6-2c3.1-1.1,6-1.9,8.1-2.1l1-3.8c-1.4-0.1-2.9-0.6-6.2-2.3c-3.1-1.6-4.3-2.1-5.7-2.1c-1,0-2.1,0.3-2.8,0.7
		l-1.3,3.5l0.2,0.2c1-0.3,2.1-0.6,3.5-0.6c1.3,0,2.6,0.4,5,1.8c0.5,0.3,1,0.5,1.5,0.7c-0.9,0.2-1.9,0.5-3.2,0.9
		c-3.9,1.1-5.6,1.2-7.9,1.2l0,0c0,0,0,0,0,0c-1.8,0-2.3-0.5-3.3-2.6c-1.3-2.7-2.4-4.8-4.7-4.8c-2.5,0-4,2.8-5.7,5.8
		c-0.7,1.3-1.1,1.5-2.4,1.5l0,0c0,0,0,0,0,0c-2.3,0-2.9-0.5-2.9-2.2v-9.6l-0.3-0.1l-3.5,1.4v1.5c-4.8,1.7-7.3,4.6-7.3,7.3
		c0,2.5,2.1,4.1,5.4,4.1c1,0,1.9-0.2,2.8-0.5c1,1.5,2.7,2.1,4.9,2.1c0,0,0,0,0.1,0l0,0C610.8,389,612.4,388.9,613.6,387.2z
		 M617.4,381.5c0.6,0,1.5,1.1,2.4,3.4l0.1,0.2c-0.3,0.4-0.7,0.6-1.4,0.6c-0.9,0-2.1-0.6-3.3-1.4C616,382.6,616.7,381.5,617.4,381.5z
		 M602.7,382.8v0.6c-0.5,0.1-0.9,0.1-1.5,0.1c-1.1,0-2.4-0.4-2.7-1.3c0.4-1,2.1-1.9,4.2-2.5V382.8z"/>
	<path class="st3" d="M639.9,391.6l-0.2,0.3l2,2.9c4-0.7,7.4-2.7,8.7-5.2c0.6-1.2,0.9-2.5,0.9-3.7c0-2-0.7-5.1-2-7.7h-0.3l-2.7,3.2
		c1.1,2,2.1,4.4,2.2,5.5C648.4,388.2,644.9,390.7,639.9,391.6z"/>
	<path class="st3" d="M659.6,377.7c-2.9,0-5,3.6-5,6.6c0,2.3,1.3,3.8,4.2,3.8c0.9,0,1.7-0.1,2.4-0.2c-1.1,2.1-3.9,3.4-8.1,3.4
		l-0.2,0.4l1.8,3c6.9-0.1,10.1-4.5,10.1-8.9C664.7,381.4,662.7,377.7,659.6,377.7z M659.5,384.6c-1.4,0-2-0.3-2-1
		c0-1,0.8-2.2,1.9-2.2c1.1,0,2,1.4,2.2,3C660.9,384.6,660.2,384.6,659.5,384.6z"/>
	<polygon class="st3" points="686.3,402.6 688.2,399.5 685.1,397.3 683.8,399.5 680.8,397.3 678.8,400.3 681.9,402.6 683.3,400.4 	
		"/>
	<polygon class="st3" points="701.7,391.4 699.7,394.5 702.9,396.9 704.9,393.7 	"/>
	<path class="st3" d="M698.3,385h-0.5l0,0c0,0,0,0,0,0c-2.9,0-5.3-1-8.5-1.9l-1.1,3.8c3.3,0.9,4.2,1.4,4.2,2.2
		c-1,1.2-4.6,1.9-8.2,1.9c-4.8,0-6.2-1.8-6.2-4.6c0-0.7,0.1-1.4,0.3-2.8l-0.3-0.2l-3.1,1.1c-0.3,1.1-0.5,2.5-0.5,3.6
		c0,3.8,2.9,6.8,9.2,6.8c6.7,0,11.6-2.1,12.1-6h1.3c0,0,0,0,0,0l0,0h0.6c2.2,0,3.7-0.5,4.9-1.5c1.2,1,3.2,1.5,4.7,1.5c0,0,0,0,0,0v0
		h0.6c2.2,0,3.7-0.5,4.9-1.5c1.2,1,3.2,1.5,4.7,1.5c0,0,0,0,0,0l0,0c4.5,0,7.3-1.4,7.3-7v-15l-0.3-0.2l-3.5,1v14.4
		c0,1.1-0.1,1.9-0.2,2.4c-0.6,0.3-1.6,0.4-2.4,0.4l0,0c0,0,0,0,0,0c-1.4,0-2.6-0.3-3.4-0.6c0.6-1.4,1-3.1,1.5-5l-0.3-0.2l-3.9,1
		c-0.4,2.1-0.7,3.7-1,4.5c-0.4,0.3-1.2,0.4-2.4,0.4h-0.5v0c0,0,0,0,0,0c-1.4,0-2.6-0.3-3.4-0.6c0.6-1.4,1-3.1,1.5-5l-0.3-0.2l-3.9,1
		c-0.4,2.1-0.7,3.7-1,4.5C700.3,384.9,699.5,385,698.3,385z"/>
	<polygon class="st3" points="711,374 714.3,376.5 716.3,373.3 713,370.9 	"/>
	<polygon class="st3" points="728.3,389 728.5,389.2 732,388.5 732.1,367 731.8,366.8 728.3,367.8 	"/>
	<path class="st3" d="M759.9,385c0.9-0.8,1.5-2.3,1.5-3.5c0-1.9-1.3-3.8-4.2-6l-0.2,0l-2.5,1.5c-1.7,2.3-3.1,5.3-3.7,8h-1.2
		c-2.2,0-3-0.6-3-2.8V367l-0.3-0.2l-3.5,1v14.7c0,4.6,2,6.5,6,6.5c0,0,0,0,0,0v0h1.9c0.5,4.1,2.9,6.4,6.7,6.4c2.6,0,4.6-1.6,4.6-4.1
		c0-0.8-0.2-1.6-0.7-2.3h1.8c0,0,0,0,0,0v0h1c3,0,4.4-0.4,5.4-1.4c1.1-1.1,1.6-2.6,1.6-4.3c0-1.5-0.7-4.3-1.7-6.6h-0.3l-3,2.6
		c1,2.1,1.9,4.3,1.7,5.5c-0.5,0.2-1.8,0.3-2.9,0.3h-0.9l0,0c0,0,0,0,0,0H759.9z M756.5,379.3c0.9,1,1.2,1.8,1.2,2.7
		c0,2-1.5,3.2-3.6,3.3C754.5,383.2,755.2,381.1,756.5,379.3z M757.6,391.9c-1.8,0-3.2-1.1-3.6-3c0.4-0.1,0.9-0.2,1.3-0.2
		c2.2,0,3.6,1.4,3.6,2.8C758.7,391.8,758.2,391.9,757.6,391.9z"/>
	<polygon class="st3" points="770.3,396.7 772.2,393.6 769.1,391.4 767.8,393.5 764.8,391.4 762.8,394.4 765.9,396.7 767.3,394.5 	
		"/>
	<path class="st3" d="M774.6,365.3c2.4-0.1,4.4-0.3,5.9-0.4l-0.2-2.2c-0.8,0.1-1.6,0.2-2.6,0.2c-0.4-0.4-0.6-0.8-0.6-1.3
		c0-0.6,0.4-1,1-1c0.3,0,0.8,0.1,1.3,0.3l0.5-2.1c-0.8-0.3-1.6-0.5-2.2-0.5c-1.7,0-2.7,1.1-2.7,2.8c0,0.7,0.3,1.4,0.7,2
		c-0.5,0-1,0-1.4,0L774.6,365.3z"/>
	<polygon class="st3" points="775.6,389 775.8,389.2 779.3,388.5 779.4,367 779.1,366.8 775.6,367.8 	"/>
	<path class="st3" d="M799.6,389.4h1.9c4.4,0,6.9-0.7,8.3-2.1c0.9,1.2,2.4,1.8,4,1.8c0,0,0,0,0,0l0,0h1c1.9,0,3.3-0.5,4.4-1.5
		c1.2,1,3.2,1.5,5.5,1.5l0,0c0,0,0,0,0,0c0,0,0,0,0,0c0,0,0,0,0,0c3,0,4.5-0.5,5.6-1.8c1,1.5,2.6,1.8,3.8,1.8c0,0,0,0,0,0v0
		c7.4,0,11.1-0.3,13.5-0.8l1.1-3.6l-0.2-0.2c-2.2,0.3-4.4,0.4-6.9,0.5c-0.7-0.9-1-1.9-1-2.7c0-1.7,1.1-2.7,2.8-2.7
		c0.9,0,2.1,0.3,3.1,0.6l0.1-0.1l0.4-3.4c-1.3-0.6-3-1-4.4-1c-3.5,0-6.4,2.2-6.4,6.2c0,1.1,0.3,2.1,0.8,3.1h-2.2v0c0,0,0,0,0,0
		c-2.3,0-3-0.4-3-2.8V367l-0.3-0.2l-3.5,1v14.4c0,1.1-0.1,1.9-0.2,2.4c-0.6,0.3-1.6,0.4-2.4,0.4l0,0c0,0,0,0,0,0
		c-2,0-3.4-0.3-4.3-0.6c0.6-1.4,1-3.1,1.4-5l-0.3-0.2l-3.9,1c-0.4,2.1-0.8,3.7-1.1,4.5c-0.4,0.3-1.3,0.4-2.1,0.4h-0.7l0,0
		c0,0,0,0,0,0c-2.5,0-3-0.9-3-3.6V367l-0.3-0.2l-3.5,1v14.4c0,1.1-0.1,1.9-0.2,2.4c-0.5,0.4-2.6,0.8-5,0.8h-1.7
		c-6,0-8.4-0.9-8.4-4.2c0-0.8,0.1-1.7,0.3-2.7l-0.3-0.2l-2.7,1.1c-0.4,1.3-0.5,2.5-0.5,3.9C789.2,387.3,792.9,389.4,799.6,389.4z"/>
	<path class="st3" d="M797.8,380c2.4-0.1,4.4-0.3,6-0.4l-0.2-2.1c-0.8,0.1-1.7,0.2-2.6,0.2c-0.4-0.4-0.6-0.9-0.6-1.4
		c0-0.7,0.5-1,1.1-1c0.4,0,0.8,0.1,1.3,0.3l0.5-2c-0.8-0.4-1.6-0.5-2.2-0.5c-1.7,0-2.7,1.1-2.7,2.8c0,0.7,0.3,1.4,0.7,2
		c-0.5,0-1,0-1.4,0L797.8,380z"/>
	<polygon class="st3" points="819,394.5 821.9,396.7 823.9,393.6 820.8,391.4 819.4,393.5 816.4,391.4 814.5,394.4 817.6,396.7 	"/>
	<path class="st3" d="M860.4,384.2l1.6-0.2c0.5-1.7,1.4-2.5,2.4-2.5c1.6,0,3.1,2,3.3,4.2c-0.9-0.1-2-0.3-3-0.3
		c-4.6,0-6.7,3.6-6.7,6.7c0,2,0.8,5.5,1.2,8.3l0.3,0.2l3.4-1.6c-0.4-2.4-1.4-6.9-0.9-9.2c0.7-0.3,1.7-0.5,2.7-0.5
		c1.4,0,2.8,0.2,3.9,0.2c1.7,0,2.4-1.3,2.4-4c0-3.7-2.2-7.8-5.5-7.8c-2.3,0-4.9,2.4-5.2,6.3L860.4,384.2z"/>
	<path class="st3" d="M918.2,382.2c0,1.1-0.1,1.9-0.2,2.4c-0.6,0.3-1.6,0.4-2.4,0.4l0,0c0,0,0,0,0,0c-1.4,0-2.6-0.3-3.5-0.6
		c0.3-1.1,0.5-2.3,0.5-3.7c0-0.7,0-1.3-0.1-2.1l-0.2-0.1l-3.8,1.5c0.2,1.1,0.2,2.2,0.2,3c0,0.8-0.1,1.3-0.2,1.7
		c-0.5,0.3-1.2,0.4-1.7,0.4c-0.8,0-1.5-0.1-2.3-0.3c0.5-1.2,0.9-2.6,1.3-4.2l-0.1-0.1l-3.8,0.7c-0.4,1.5-0.7,3.3-0.9,3.7
		c-0.2,0.2-0.6,0.3-1.1,0.3c-1,0-2.2-0.2-3-0.5c0.4-1.1,0.9-2.4,1.4-4l-0.1-0.1l-4.1,0.7c-0.2,1.4-0.5,3-0.7,3.6
		c-0.5,0.3-1.4,0.4-3.3,0.4c-2.2,0-3-0.6-3-2.8V367l-0.3-0.2l-3.5,1V381c-0.2,0.3-0.5,0.6-0.7,1c-1.2-2.4-4-6.7-7.8-10.5l-0.2,0.1
		l-1.2,4.2c3.3,3.2,5.2,5.4,6.7,8c-2,0.9-4.5,1.2-6.9,1.3l-0.1,0.2l1.8,3.8c3.1,0,6.4-0.8,8.8-3.7c0.8,2.5,2.6,3.6,5.6,3.6l0,0
		c0,0,0,0,0,0c0,0,0,0,0,0c0,0,0,0,0,0c2.7,0,4.4-0.4,5.6-1.4c1,0.7,2.7,1.4,4.7,1.4c1.2,0,2.1-0.3,2.9-0.9c1.1,0.5,2.3,0.9,4,0.9h0
		h0c1.5,0,2.9-0.4,3.9-1.4c1.2,0.9,3.1,1.4,4.6,1.4c0,0,0,0,0,0l0,0c4.5,0,7.3-1.4,7.3-7v-15l-0.3-0.2l-3.5,1V382.2z"/>
	<polygon class="st3" points="925.7,367.8 925.7,389 925.9,389.2 929.4,388.5 929.5,367 929.2,366.8 	"/>
	<path class="st3" d="M487.6,429.1c-1.9,2.3-3.2,4.6-3.2,7c0,1.9,1,3.1,2.6,3.1c1.6,0,2.5-1.3,2.5-2.5c0-1.9-1.6-1.7-1.6-3
		c0-0.9,0.8-2.2,1.7-3.4L487.6,429.1z"/>
	<polygon class="st3" points="500.5,428.9 502.6,425.7 499.2,423.3 497.1,426.4 	"/>
	<polygon class="st3" points="517.4,443.5 514.3,441.4 512.2,444.4 515.5,446.7 517,444.5 520.1,446.7 522.1,443.6 518.9,441.4 	"/>
	<path class="st3" d="M546.8,417.8v14.4c0,1.1-0.1,1.9-0.2,2.4c-0.6,0.3-1.7,0.4-2.6,0.4c-3.1,0-4.7-0.2-5.7-0.8
		c1-0.3,1.9-0.4,2.7-0.4l0.7-3.6c-2.2,0-4.3-0.5-7.6-2.1c-2.5-1.2-3.8-1.5-4.9-1.5c-1.1,0-2.2,0.3-2.9,0.7l-1.4,3.6l0.2,0.1
		c1.1-0.3,2.2-0.6,3.7-0.6c1.4,0,2.8,0.4,5.3,1.6c0.4,0.2,0.8,0.4,1.1,0.5c-0.7,0.2-1.5,0.5-2.5,0.9c-3.7,1.3-5.6,1.7-8.8,1.7v0
		c0,0,0,0,0,0c-2.1,0-3.6-0.3-4.5-0.6c0.6-1.4,1.1-3.1,1.5-5l-0.3-0.2l-4.1,1c-0.4,2.1-0.8,3.7-1.1,4.5c-0.4,0.3-1.4,0.4-2.2,0.4
		h-0.7l0,0c0,0-0.1,0-0.1,0c-1.6,0-2.5-0.4-3-1.4c-0.4-0.7-1.2-3.5-1.5-4.2h-0.2l-3.5,2.5c1.2,2.6,2.2,4.9,1.8,6.9
		c-0.8,1.2-2.7,2.2-5.5,2.2c-3.8,0-5-1.9-5-4.5c0-0.9,0.1-1.9,0.2-3l-0.4-0.1l-2.9,1.1c-0.3,0.9-0.6,2.4-0.6,3.9
		c0,4,2.8,6.7,7.8,6.7c4.9,0,8.6-2,9.8-6.5c0.6,0.4,1.3,0.6,2.1,0.6h1.1c2,0,3.5-0.5,4.7-1.5c1.2,1,3.4,1.5,5.8,1.5l0,0c0,0,0,0,0,0
		c0,0,0,0,0,0c0,0,0,0,0,0c3.5,0,6.4-0.7,10.8-2.9l1.2-0.6c1.2,2.2,3.1,3.5,8.2,3.5l0,0c0,0,0,0,0,0c0,0,0,0,0,0c0,0,0,0,0,0
		c4.7,0,7.6-1.4,7.6-7v-15l-0.3-0.2L546.8,417.8z"/>
	<path class="st3" d="M596.4,417l-0.3-0.2l-3.7,1v14.4c0,1.1-0.1,1.9-0.2,2.4c-0.6,0.3-1.7,0.4-2.6,0.4l0,0c0,0,0,0,0,0
		c-1.2,0-2.3-0.2-3.2-0.4c0.2-0.6,0.3-1.2,0.3-1.9c0-2.6-1.8-5.6-4.9-5.6c-2.9,0-6.2,2.8-11.6,7.9c-1,0-1.8-0.1-2.6-0.3
		c0.5-1,0.9-2.2,1.4-3.7l-0.1-0.1l-4.3,0.6c-0.3,1.4-0.5,2.6-0.8,3.3c-0.4,0.2-1.4,0.3-2.1,0.3c-2.3,0-3.2-0.6-3.2-2.8V417l-0.3-0.2
		l-3.7,1v14.7c0,4.6,2.1,6.5,6.3,6.5c1.9,0,3.2-0.3,4.3-1c2.1,0.9,3.9,1,7.3,1h3.4c4.1,0,6.3-0.2,8.1-1.3c1.3,0.9,3.2,1.3,4.7,1.3
		c0,0,0,0,0,0l0,0c4.8,0,7.6-1.4,7.6-7V417z M583.3,434.6c-0.9,0.4-2,0.4-5.8,0.4h-3.1c3.1-2.7,5.6-4.2,7.1-4.2
		c1.3,0,2.1,1.4,2.1,2.5C583.6,433.9,583.5,434.3,583.3,434.6z"/>
	<polygon class="st3" points="600.3,439 600.6,439.2 604.3,438.5 604.4,417 604.1,416.8 600.3,417.8 	"/>
	<path class="st3" d="M628.9,413.7c-0.2,0.6-0.3,1.5-0.3,1.9c0,1.5,0.7,2.8,2.9,2.8c0.9,0,1.6-0.3,2.1-0.8c0.4,0.4,1,0.8,1.9,0.8
		c2.1,0,3.1-1.4,3.1-3.3c0-1-0.2-1.8-0.5-2.5l-2.2,0.5c0.2,0.6,0.3,1.2,0.3,1.8c0,0.7-0.2,1.2-0.8,1.2c-0.5,0-0.9-0.3-0.9-1.1
		c0-0.3,0-0.7,0-1.3l-2,0.2c0,1.9-0.3,2.3-0.9,2.3c-0.5,0-0.8-0.3-0.8-1.1c0-0.3,0-0.9,0.1-1.4L628.9,413.7z"/>
	<rect x="632.1" y="407.8" class="st3" width="2.8" height="4.1"/>
	<path class="st3" d="M620,437.4c1,0,2-0.2,3-0.5c1,1.4,2.7,2,4.8,2.1h0.2c0,0,0.1,0,0.1,0h0.2c2.8,0,4.4-0.5,5.4-1.8
		c1,1.3,2.5,1.8,3.6,1.8h0.3c0,0,0.1,0,0.1,0h0.2c4.4-0.1,7-1.6,7-7v-15l-0.3-0.2l-3.7,1v14.4c0,1.1-0.1,1.9-0.2,2.4
		c-0.6,0.3-1.5,0.4-2.4,0.4c-2.2,0-2.9-0.4-2.9-2.8v-11.7l-0.3-0.2l-3.7,1v10.9c0,1.1-0.1,1.9-0.2,2.4c-0.6,0.3-1.5,0.4-2.4,0.4
		c-2.3,0-2.8-0.6-2.8-2.2v-9.6l-0.3-0.1l-3.7,1.4v1.5c-5,1.7-7.7,4.6-7.7,7.3C614.3,435.8,616.4,437.4,620,437.4z M621.9,429.8v3
		v0.6c-0.5,0.1-1,0.1-1.6,0.1c-1.2,0-2.5-0.4-2.8-1.3C617.9,431.2,619.7,430.3,621.9,429.8z"/>
	<polygon class="st3" points="648.8,439 649,439.2 652.7,438.5 652.8,417 652.5,416.8 648.8,417.8 	"/>
	<path class="st3" d="M675,433.8c0-3-2.5-6.6-5.5-9.8h-0.3l-2.5,3.6c2.3,2.1,4.7,5.1,5.2,7c-0.8,0.4-3.1,0.6-4.6,0.6
		c-1.1,0-3-0.1-3.7-0.3l-0.2,0.1l-0.6,3.9c0.9,0.2,2.9,0.4,4.3,0.4C671.8,439.3,675,437.4,675,433.8z"/>
	<polygon class="st3" points="693.1,443.7 689.7,441.4 687.6,444.5 691,446.9 	"/>
	<path class="st3" d="M685.3,439c2.3,0,3.9-0.5,5.1-1.5c1.3,1,3.4,1.5,5,1.5c7.8,0,11.7-0.3,14.2-0.8l1.2-3.6l-0.2-0.2
		c-2.3,0.3-4.6,0.4-7.2,0.5c-0.7-0.9-1.1-1.9-1.1-2.7c0-1.7,1.1-2.7,3-2.7c1,0,2.2,0.3,3.3,0.6l0.1-0.1l0.4-3.4
		c-1.4-0.6-3.1-1-4.6-1c-3.7,0-6.7,2.2-6.7,6.2c0,1.1,0.3,2.1,0.8,3.1h-2.3c-1.5,0-2.7-0.3-3.6-0.6c0.6-1.4,1.1-3.1,1.5-5l-0.3-0.2
		l-4.1,1c-0.4,2.1-0.8,3.7-1.1,4.5c-0.4,0.3-1.3,0.4-2.5,0.4h-0.6v0c0,0,0,0,0,0c-2.3,0-3.2-0.6-3.2-2.8V417l-0.3-0.2l-3.7,1v14.7
		c0,4.6,2.1,6.5,6.3,6.5c0,0,0,0,0,0v0H685.3z"/>
	<path class="st3" d="M743.1,438.1c0-0.7-0.2-1.4-0.8-2c1.2-0.2,2.1-0.5,2.9-0.9c0.9,2.3,2.7,3.5,5.3,3.5l0,0c0,0,0,0,0,0
		c0,0,0,0,0,0c0,0,0,0,0,0c7.8,0,11.7-0.3,14.2-0.8l1.2-3.6l-0.2-0.2c-2.3,0.3-4.6,0.4-7.2,0.5c-0.7-0.9-1.1-1.9-1.1-2.7
		c0-1.7,1.1-2.7,3-2.7c1,0,2.2,0.3,3.3,0.6l0.1-0.1l0.4-3.4c-1.4-0.6-3.1-1-4.6-1c-3.7,0-6.7,2.2-6.7,6.2c0,1.1,0.3,2.1,0.8,3.1
		h-2.2c-2.7,0-3.2-1.9-3.2-5v-13l-0.3-0.2l-3.7,1v12c0,0.8-0.1,1.8-0.3,2.4c-1.4,0.6-5.1,1.1-8.5,1.2l0,0c0,0,0,0,0,0l-1.1,3.4
		c4.4,1,5.2,1.9,5.2,2.5c-1,1.2-4.8,1.9-8.6,1.9c-5.1,0-6.5-1.8-6.5-4.6c0-0.7,0.1-1.4,0.4-2.8l-0.4-0.2l-3.3,1.1
		c-0.3,1.1-0.5,2.5-0.5,3.6c0,3.8,3.1,6.8,9.7,6.8C737.3,445,742.9,442.4,743.1,438.1z"/>
	<path class="st3" d="M779.6,435.8c0-4.4-2-8.2-5.4-8.2c-3,0-5.3,3.6-5.3,6.6c0,2.3,1.4,3.8,4.4,3.8c1,0,1.8-0.1,2.6-0.2
		c-1.2,2.1-4.1,3.4-8.5,3.4l-0.2,0.4l1.9,3C776.2,444.6,779.6,440.2,779.6,435.8z M774.1,434.6c-1.5,0-2.1-0.3-2.1-1
		c0-1,0.9-2.2,2-2.2c1.2,0,2.1,1.4,2.4,3C775.6,434.6,774.9,434.6,774.1,434.6z"/>
	<polygon class="st3" points="806.4,423.3 803,420.9 800.9,424 804.3,426.5 	"/>
	<polygon class="st3" points="813.1,444.5 816.2,446.7 818.2,443.6 815,441.4 813.5,443.5 810.4,441.4 808.3,444.4 811.6,446.7 	"/>
	<path class="st3" d="M844.4,434.6l-0.2-0.2c-2.3,0.3-4.6,0.4-7.2,0.5c-0.7-0.9-1.1-1.9-1.1-2.7c0-1.7,1.1-2.7,3-2.7
		c1,0,2.2,0.3,3.3,0.6l0.1-0.1l0.4-3.4c-1.4-0.6-3.1-1-4.6-1c-3.7,0-6.7,2.2-6.7,6.2c0,1.1,0.3,2.1,0.8,3.1h-2.3
		c-2.4,0-3.2-0.4-3.2-2.8V417l-0.3-0.2l-3.7,1v14.4c0,1.1-0.1,1.9-0.2,2.4c-0.6,0.3-1.7,0.4-2.6,0.4v0c0,0,0,0,0,0
		c-2.1,0-3.6-0.3-4.5-0.6c0.6-1.4,1.1-3.1,1.5-5l-0.3-0.2l-4.1,1c-0.4,2.1-0.8,3.7-1.1,4.5c-0.4,0.3-1.4,0.4-2.2,0.4h-0.7l0,0
		c0,0,0,0,0,0c-1.5,0-2.7-0.3-3.6-0.6c0.6-1.4,1.1-3.1,1.5-5l-0.3-0.2l-4.1,1c-0.4,2.1-0.8,3.7-1.1,4.5c-0.4,0.3-1.3,0.4-2.5,0.4
		h-0.6c-2.3,0-3.2-0.6-3.2-2.8V417l-0.3-0.2l-3.7,1v14.7c0,4.6,2.1,6.5,6.3,6.5h0.6c2.3,0,3.9-0.5,5.1-1.5c1.3,1,3.4,1.5,5,1.5
		c0,0,0,0,0,0l0,0h1.1c2,0,3.5-0.5,4.7-1.5c1.2,1,3.4,1.5,5.8,1.5l0,0c0,0,0,0,0,0c0,0,0,0,0,0c0,0,0,0,0,0c3.1,0,4.8-0.5,5.9-1.8
		c1.1,1.5,2.8,1.8,4,1.8c7.8,0,11.7-0.3,14.2-0.8L844.4,434.6z"/>
	<path class="st3" d="M861,439.2c1.5,0,2.9,0.2,4.1,0.2c1.8,0,2.5-1.3,2.5-4c0-3.7-2.4-7.8-5.8-7.8c-2.5,0-5.1,2.4-5.4,6.3l0.3,0.2
		l1.7-0.2c0.5-1.7,1.4-2.5,2.5-2.5c1.7,0,3.3,2,3.4,4.2c-0.9-0.1-2.1-0.3-3.1-0.3c-4.8,0-7,3.6-7,6.7c0,2,0.8,5.5,1.2,8.3l0.3,0.2
		l3.6-1.6c-0.4-2.4-1.5-6.9-1-9.2C859,439.4,860,439.2,861,439.2z"/>
	<path class="st3" d="M869.7,435.3l1.9,3.8c3.3,0,6.7-0.8,9.3-3.7c0.8,2.5,2.8,3.6,5.9,3.6l0,0c0,0,0,0,0,0c0,0,0,0,0,0c0,0,0,0,0,0
		c2.9,0,4.7-0.4,5.9-1.4c1.1,0.7,2.9,1.4,4.9,1.4c1.2,0,2.2-0.3,3-0.9c1.1,0.5,2.4,0.9,4.2,0.9h0h0c1.6,0,3-0.4,4.1-1.4
		c1.3,0.9,3.3,1.4,4.8,1.4c0,0,0,0,0,0v0c4.8,0,7.6-1.4,7.6-7v-15l-0.3-0.2l-3.7,1v14.4c0,1.1-0.1,1.9-0.2,2.4
		c-0.6,0.3-1.7,0.4-2.6,0.4l0,0c0,0,0,0,0,0c-1.5,0-2.8-0.3-3.7-0.6c0.3-1.1,0.5-2.3,0.5-3.7c0-0.7,0-1.3-0.1-2.1l-0.2-0.1l-4,1.5
		c0.2,1.1,0.3,2.2,0.3,3c0,0.8-0.1,1.3-0.2,1.7c-0.5,0.3-1.2,0.4-1.8,0.4c-0.8,0-1.6-0.1-2.4-0.3c0.5-1.2,0.9-2.6,1.4-4.2l-0.1-0.1
		l-4,0.7c-0.4,1.5-0.7,3.3-1,3.7c-0.3,0.2-0.6,0.3-1.2,0.3c-1.1,0-2.3-0.2-3.2-0.5c0.4-1.1,0.9-2.4,1.4-4l-0.1-0.1l-4.3,0.7
		c-0.2,1.4-0.5,3-0.8,3.6c-0.6,0.3-1.4,0.4-3.5,0.4c-2.3,0-3.2-0.6-3.2-2.8V417l-0.3-0.2l-3.7,1V431c-0.2,0.3-0.5,0.6-0.7,1
		c-1.2-2.4-4.3-6.7-8.3-10.5l-0.2,0.1l-1.2,4.2c3.5,3.2,5.4,5.4,7,8c-2.1,0.9-4.8,1.2-7.2,1.3L869.7,435.3z"/>
	<polygon class="st3" points="929.3,438.5 929.4,417 929.1,416.8 925.4,417.8 925.4,439 925.6,439.2 	"/>
	<path class="st3" d="M696,487.4c1,0,2-0.2,3-0.5c1,1.4,2.7,2,4.8,2.1h0.2c0,0,0.1,0,0.1,0h0.2c2.8,0,4.4-0.5,5.4-1.8
		c1,1.3,2.5,1.8,3.6,1.8h0.3c0,0,0.1,0,0.1,0h0.2c4.4-0.1,7-1.6,7-7v-15l-0.3-0.2l-3.7,1v14.4c0,1.1-0.1,1.9-0.2,2.4
		c-0.6,0.3-1.5,0.4-2.4,0.4c-2.2,0-2.9-0.4-2.9-2.8v-11.7l-0.3-0.2l-3.7,1v10.9c0,1.1-0.1,1.9-0.2,2.4c-0.6,0.3-1.5,0.4-2.4,0.4
		c-2.3,0-2.8-0.6-2.8-2.2v-9.6l-0.3-0.1l-3.7,1.4v1.5c-5,1.7-7.7,4.6-7.7,7.3C690.3,485.8,692.5,487.4,696,487.4z M698,479.8v3v0.6
		c-0.5,0.1-1,0.1-1.6,0.1c-1.2,0-2.5-0.4-2.8-1.3C694,481.2,695.8,480.3,698,479.8z"/>
	<polygon class="st3" points="724.8,467.8 724.8,489 725.1,489.2 728.8,488.5 728.9,467 728.6,466.8 	"/>
	<rect x="708.1" y="457.8" class="st3" width="2.8" height="4.1"/>
	<path class="st3" d="M711.5,466.1c-0.5,0-0.9-0.3-0.9-1.1c0-0.3,0-0.7,0-1.3l-2,0.2c0,1.9-0.3,2.3-0.9,2.3c-0.5,0-0.8-0.3-0.8-1.1
		c0-0.3,0-0.9,0.1-1.4l-2.2,0.1c-0.2,0.6-0.3,1.5-0.3,1.9c0,1.5,0.7,2.8,2.9,2.8c0.9,0,1.6-0.3,2.1-0.8c0.4,0.4,1,0.8,1.9,0.8
		c2.1,0,3.1-1.4,3.1-3.3c0-1-0.2-1.8-0.5-2.5l-2.2,0.5c0.2,0.6,0.3,1.2,0.3,1.8C712.2,465.6,712.1,466.1,711.5,466.1z"/>
	<path class="st3" d="M740.3,485.1l-0.2,3.9h4.5c4.9,0,6.6-1.8,6.6-4.6c0-1.3-0.6-2.8-1.7-4.4c1.1-1.8,1.9-4.1,1.9-6.8
		c0-1.8-0.4-4.6-0.7-6.3l-0.3-0.1l-3.6,1.8c0.4,1.3,0.8,3.9,0.8,5.8c0,1.1-0.1,2.1-0.4,3c-1.8-1.9-4.2-3.9-6.8-5.9l-0.2,0.1
		l-1.2,3.9c1.9,1.2,4.7,3.2,6.8,5.1C744.4,482.6,742.4,483.9,740.3,485.1z M747.5,482.5c0.6,0.7,1,1.4,1,1.9
		c-0.5,0.4-1.4,0.6-3.3,0.6h-0.7C745.4,484.4,746.5,483.6,747.5,482.5z"/>
	<path class="st3" d="M754.3,497.9c2.5-0.1,4.7-0.3,6.2-0.4l-0.2-2.2c-0.8,0.1-1.8,0.2-2.7,0.2c-0.4-0.4-0.6-0.8-0.6-1.3
		c0-0.6,0.4-1,1.1-1c0.4,0,0.8,0.1,1.4,0.3l0.5-2.1c-0.8-0.3-1.7-0.5-2.4-0.5c-1.8,0-2.8,1.1-2.8,2.8c0,0.7,0.3,1.4,0.7,2
		c-0.5,0-1,0-1.4,0L754.3,497.9z"/>
	<polygon class="st3" points="759.4,467 759.1,466.8 755.3,467.8 755.3,489 755.6,489.2 759.3,488.5 	"/>
	<path class="st3" d="M784,485C784,485,784,485,784,485c-2.5,0-3.1-0.5-3.1-2.2v-9.6l-0.3-0.1l-3.7,1.4v1.5c-5,1.7-7.7,4.6-7.7,7.3
		c0,2.5,2.2,4.1,5.7,4.1c1,0,2-0.2,3-0.5c1.1,1.5,2.8,2.1,5.2,2.1c0,0,0,0,0.1,0l0,0c4.8,0,7.6-1.4,7.6-7v-15l-0.3-0.2l-3.7,1v14.4
		c0,1.1-0.1,1.9-0.2,2.4C785.9,484.9,784.9,485,784,485L784,485z M776.9,482.8v0.6c-0.5,0.1-1,0.1-1.6,0.1c-1.2,0-2.5-0.4-2.8-1.3
		c0.4-1,2.2-1.9,4.4-2.5V482.8z"/>
	<polygon class="st3" points="798.7,467 798.4,466.8 794.7,467.8 794.7,489 795,489.2 798.6,488.5 	"/>
	<path class="st3" d="M793.7,497.9c2.5-0.1,4.7-0.3,6.2-0.4l-0.2-2.2c-0.8,0.1-1.8,0.2-2.7,0.2c-0.4-0.4-0.6-0.8-0.6-1.3
		c0-0.6,0.4-1,1.1-1c0.4,0,0.8,0.1,1.4,0.3l0.5-2.1c-0.8-0.3-1.7-0.5-2.4-0.5c-1.8,0-2.8,1.1-2.8,2.8c0,0.7,0.3,1.4,0.7,2
		c-0.5,0-1,0-1.4,0L793.7,497.9z"/>
	<path class="st3" d="M821,484.4c0-1.3-0.6-2.8-1.7-4.4c1.1-1.8,1.9-4.1,1.9-6.8c0-1.8-0.4-4.6-0.7-6.3l-0.3-0.1l-3.6,1.8
		c0.4,1.3,0.8,3.9,0.8,5.8c0,1.1-0.1,2.1-0.4,3c-1.8-1.9-4.2-3.9-6.8-5.9l-0.2,0.1l-1.2,3.9c1.9,1.2,4.7,3.2,6.8,5.1
		c-1.3,2-3.3,3.3-5.5,4.5l-0.2,3.9h4.5C819.2,489,821,487.3,821,484.4z M815.1,485h-0.7c0.9-0.6,2-1.4,3-2.6c0.6,0.7,1,1.4,1,1.9
		C817.9,484.8,817,485,815.1,485z"/>
	<path class="st3" d="M847.4,479.4l-3.5,2.5c1.6,3.4,2.1,5.3,1.8,6.9c-1,1.4-3.1,2.2-5.5,2.2c-3.3,0-5-1.5-5-4.5c0-1,0.1-2.2,0.2-3
		l-0.4-0.1l-2.9,1.1c-0.3,0.9-0.6,2.8-0.6,3.9c0,4.1,3,6.7,7.8,6.7c6,0,9.9-3.5,9.9-8.7c0-1.8-0.8-4.7-1.7-6.9H847.4z"/>
	<polygon class="st3" points="840.3,478.9 842.4,475.7 839.1,473.3 836.9,476.4 	"/>
	<path class="st3" d="M858,462.6c-0.8,0.1-1.7,0.2-2.7,0.2c-0.4-0.4-0.6-0.8-0.6-1.3c0-0.6,0.4-1,1.1-1c0.4,0,0.8,0.1,1.4,0.3
		l0.5-2.1c-0.8-0.3-1.7-0.5-2.4-0.5c-1.8,0-2.8,1.1-2.8,2.8c0,0.7,0.3,1.4,0.7,2c-0.5,0-1,0-1.5,0l0.2,2.3c2.5-0.1,4.7-0.3,6.2-0.4
		L858,462.6z"/>
	<polygon class="st3" points="856.9,488.5 857,467 856.7,466.8 852.9,467.8 852.9,489 853.2,489.2 	"/>
	<polygon class="st3" points="909.9,476.2 911.3,473.9 914.5,476.2 916.5,473.1 913.3,470.8 911.8,473 908.7,470.8 906.6,473.8 	"/>
	<polygon class="st3" points="913.6,468.5 910.4,466.3 908.3,469.3 911.6,471.6 	"/>
	<path class="st3" d="M907.5,489c1.2,0,2.2-0.3,3-0.9c1.1,0.5,2.4,0.9,4.2,0.9c4,0,7-1.8,7-5.7c0-2-0.7-4.3-1.5-6.6l-0.2,0l-3.5,2.6
		c0.8,1.7,1.8,4.1,1.6,5.3c-0.7,0.3-1.8,0.4-2.9,0.4c-0.8,0-1.6-0.1-2.4-0.3c0.5-1.2,0.9-2.6,1.4-4.2l-0.1-0.1l-4,0.7
		c-0.4,1.5-0.7,3.3-1,3.7c-0.3,0.2-0.6,0.3-1.2,0.3c-1.1,0-2.3-0.2-3.2-0.5c0.4-1.1,0.9-2.4,1.4-4l-0.1-0.1l-4.3,0.7
		c-0.2,1.4-0.5,3-0.8,3.6c-0.6,0.3-1.4,0.4-3.5,0.4l0,0c0,0,0,0,0,0h-4.1c0.9-0.8,1.6-2.3,1.6-3.5c0-1.9-1.4-3.8-4.4-6l-0.3,0
		l-2.6,1.5c-1.8,2.3-3.3,5.3-3.9,8h-1.3l0,0c0,0,0,0,0,0c-2.1,0-2.8-0.4-3.9-3c-0.4-1-2.6-6-3.4-8h-0.4l-2.9,3.3
		c1.3,2.5,3,5.9,3.7,7.2c-1.2,0.5-3.1,0.7-4.6,0.7c-0.7,0-2.2-0.1-3.3-0.3l-0.2,0.1L867,489c1.1,0.3,2.9,0.4,3.7,0.4
		c2.8,0,5.1-0.7,6.6-1.8c0.9,1.2,2.2,1.5,4.3,1.5c0,0,0,0,0,0l0,0h2c0.5,4.1,3.1,6.4,7,6.4c2.7,0,4.9-1.6,4.9-4.1
		c0-0.8-0.3-1.6-0.7-2.3h1.9c0,0,0,0,0,0l0,0c2.9,0,4.7-0.4,6-1.4C903.7,488.3,905.5,489,907.5,489z M889.8,479.3
		c0.9,1,1.3,1.8,1.3,2.7c0,2-1.6,3.2-3.7,3.3C887.8,483.2,888.5,481.1,889.8,479.3z M891,491.9c-1.9,0-3.4-1.1-3.8-3
		c0.4-0.1,0.9-0.2,1.4-0.2c2.3,0,3.8,1.4,3.8,2.8C892.1,491.8,891.6,491.9,891,491.9z"/>
	<polygon class="st3" points="925.4,489 925.6,489.2 929.3,488.5 929.4,467 929.1,466.8 925.4,467.8 	"/>
	<path class="st3" d="M924.4,465.3c2.5-0.1,4.7-0.3,6.2-0.4l-0.2-2.2c-0.8,0.1-1.7,0.2-2.7,0.2c-0.4-0.4-0.6-0.8-0.6-1.3
		c0-0.6,0.4-1,1.1-1c0.4,0,0.8,0.1,1.4,0.3l0.5-2.1c-0.8-0.3-1.7-0.5-2.4-0.5c-1.8,0-2.8,1.1-2.8,2.8c0,0.7,0.3,1.4,0.7,2
		c-0.5,0-1,0-1.5,0L924.4,465.3z"/>
	<path class="st3" d="M568.2,534.3c-1.4,0-2.6,1.2-2.6,2.5c0,1.4,1.2,2.6,2.6,2.6c1.4,0,2.6-1.2,2.6-2.6
		C570.8,535.5,569.6,534.3,568.2,534.3z"/>
	<path class="st3" d="M589.8,517.8v14.4c0,1.1-0.1,1.9-0.2,2.4c-0.6,0.3-1.7,0.4-2.6,0.4l0,0c0,0,0,0,0,0c-2.4,0-3-0.5-3-2.2v-9.6
		l-0.3-0.1l-3.7,1.4v1.5c-5,1.7-7.7,4.6-7.7,7.3c0,2.5,2.2,4.1,5.7,4.1c1,0,2-0.2,3-0.5c1.1,1.5,2.8,2.1,5.2,2.1c0,0,0,0,0.1,0l0,0
		c4.8,0,7.6-1.4,7.6-7v-15l-0.3-0.2L589.8,517.8z M579.9,532.8v0.6c-0.5,0.1-1,0.1-1.6,0.1c-1.2,0-2.5-0.4-2.8-1.3
		c0.4-1,2.2-1.9,4.4-2.5V532.8z"/>
	<path class="st3" d="M634.6,533.4c0-2-0.7-4.3-1.5-6.6l-0.2,0l-3.5,2.6c0.8,1.7,1.8,4.1,1.6,5.3c-0.7,0.3-1.8,0.4-2.9,0.4
		c-0.8,0-1.6-0.1-2.4-0.3c0.5-1.2,0.9-2.6,1.4-4.2l-0.1-0.1l-4,0.7c-0.4,1.5-0.7,3.3-1,3.7c-0.3,0.2-0.6,0.3-1.2,0.3
		c-1.1,0-2.3-0.2-3.2-0.5c0.4-1.1,0.9-2.4,1.4-4l-0.1-0.1l-4.3,0.7c-0.2,1.4-0.5,3-0.8,3.6c-0.6,0.3-1.4,0.4-3.5,0.4l0,0
		c0,0,0,0-0.1,0h-2.2c-0.2-4.1-2.3-7.4-5.4-7.4c-3,0-5.3,3.6-5.3,6.7c0,2.9,2,4.7,6.3,4.7c-1.4,1.5-4,2.2-7.9,2.3l-0.2,0.4l1.9,3
		c5.4,0,8.6-2.5,10-5.7h2c0,0,0,0,0.1,0l0,0c2.9,0,4.7-0.4,6-1.4c1.1,0.7,2.9,1.4,4.9,1.4c1.2,0,2.2-0.3,3-0.9
		c1.1,0.5,2.4,0.9,4.2,0.9C631.6,539,634.6,537.2,634.6,533.4z M603.6,535c-2.3,0-3.2-0.4-3.2-1.3c0-1.1,0.9-2.2,2-2.2
		c1.2,0,2.3,1.6,2.4,3.6H603.6z"/>
	<path class="st3" d="M642.5,528.3l-2.9,3.2c1.1,2,2.2,4.4,2.3,5.5c0,1.2-3.7,3.6-8.9,4.5l-0.2,0.3l2.1,2.9c4.2-0.7,7.8-2.7,9.2-5.2
		c0.7-1.2,0.9-2.5,0.9-3.7c0-2-0.7-5.1-2.1-7.7H642.5z"/>
	<path class="st3" d="M653.7,527.7c-3,0-5.3,3.6-5.3,6.6c0,2.3,1.4,3.8,4.4,3.8c1,0,1.8-0.1,2.6-0.2c-1.2,2.1-4.1,3.4-8.5,3.4
		l-0.2,0.4l1.9,3c7.2-0.1,10.6-4.5,10.6-8.9C659.1,531.4,657.1,527.7,653.7,527.7z M653.6,534.6c-1.5,0-2.1-0.3-2.1-1
		c0-1,0.9-2.2,2-2.2c1.2,0,2.1,1.4,2.4,3C655.1,534.6,654.4,534.6,653.6,534.6z"/>
	<path class="st3" d="M673.6,524l-0.3,0.2l-2,3.3c0.3,0.2,0.6,0.5,0.9,0.7c-2.4,2.9-3.1,4.9-3.1,6.4c0,2.9,2,4.5,5.3,4.5
		c3.5,0,5.7-2.1,5.7-5.4C680.2,531,678.5,528.2,673.6,524z M674.6,535.2c-1.2,0-2-0.6-2-1.6s0.6-2.1,2-3.5c1.4,1.3,2.2,2.5,2.2,3.5
		S676,535.2,674.6,535.2z"/>
	<polygon class="st3" points="700.1,544.5 703.5,546.9 705.7,543.7 702.3,541.4 	"/>
	<path class="st3" d="M715.9,534.9c-0.7-0.9-1.1-1.9-1.1-2.7c0-1.7,1.1-2.7,3-2.7c1,0,2.2,0.3,3.3,0.6l0.1-0.1l0.4-3.4
		c-1.4-0.6-3.1-1-4.6-1c-3.7,0-6.7,2.2-6.7,6.2c0,1.1,0.3,2.1,0.8,3.1h-2.3v0c0,0,0,0,0,0c-1.5,0-2.7-0.3-3.6-0.6
		c0.6-1.4,1.1-3.1,1.5-5l-0.3-0.2l-4.1,1c-0.4,2.1-0.8,3.7-1.1,4.5c-0.4,0.3-1.3,0.4-2.5,0.4h-0.6l0,0c0,0,0,0,0,0
		c-2.1,0-2.8-0.4-3.9-3c-0.4-1-2.6-6-3.4-8h-0.4l-2.9,3.3c1.3,2.5,3,5.9,3.7,7.2c-1.2,0.5-3.1,0.7-4.6,0.7c-0.7,0-2.2-0.1-3.3-0.3
		l-0.2,0.1l-0.6,3.9c1.1,0.3,2.9,0.4,3.7,0.4c2.8,0,5.1-0.7,6.6-1.8c0.9,1.2,2.2,1.5,4.3,1.5c0,0,0,0,0,0l0,0h0.6
		c2.3,0,3.9-0.5,5.1-1.5c1.3,1,3.4,1.5,5,1.5c0,0,0,0,0,0v0c7.8,0,11.7-0.3,14.2-0.8l1.2-3.6l-0.2-0.2
		C720.9,534.7,718.5,534.8,715.9,534.9z"/>
	<polygon class="st3" points="733.9,517.8 733.9,539 734.1,539.2 737.8,538.5 737.9,517 737.6,516.8 	"/>
	<path class="st3" d="M801.8,527.7c-2.8,0-4.6,3.1-5.7,5.1c-1,1.9-1.4,2.3-2.7,2.3c-3.1,0-4.7-0.2-5.7-0.8c1-0.3,1.9-0.4,2.7-0.4
		l0.7-3.6c-2.2,0-4.3-0.5-7.6-2.1c-2.5-1.2-3.8-1.5-4.9-1.5c-1.1,0-2.2,0.3-2.9,0.7l-1.4,3.6l0.2,0.1c1.1-0.3,2.2-0.6,3.7-0.6
		c1.4,0,2.8,0.4,5.3,1.6c0.4,0.2,0.8,0.4,1.1,0.5c-0.7,0.2-1.5,0.5-2.5,0.9c-3.7,1.3-5.6,1.7-8.8,1.7l0,0c0,0,0,0,0,0
		c-1.9,0-2.5-0.5-3.5-2.6c-1.3-2.7-2.6-4.8-4.9-4.8c-2.7,0-4.2,2.8-6,5.8c-0.7,1.3-1.2,1.5-2.6,1.5l0,0c0,0,0,0,0,0
		c-2.1,0-2.8-0.4-3.9-3c-0.4-1-2.6-6-3.4-8h-0.4l-2.9,3.3c1.3,2.5,3,5.9,3.7,7.2c-1.2,0.5-3.1,0.7-4.6,0.7c-0.7,0-2.2-0.1-3.3-0.3
		l-0.2,0.1l-0.6,3.9c1.1,0.3,2.9,0.4,3.7,0.4c2.8,0,5.1-0.7,6.6-1.8c0.9,1.2,2.2,1.5,4.3,1.5c0,0,0,0,0,0l0,0c2.4,0,4-0.2,5.3-1.8
		c2.1,1.5,4.3,2.2,5.7,2.2c1.2,0,2.1-0.5,2.7-1.5c0.9,0.8,1.9,1.1,3.3,1.1c0,0,0,0,0,0l0,0c3.5,0,6.4-0.7,10.8-2.9l1.2-0.6
		c1.2,2.2,3.1,3.5,8.2,3.5l0,0c0,0,0,0,0,0c0,0,0,0,0,0c0,0,0,0,0,0c2.1,0,3.7-0.3,5-1.8c2.3,1.7,4.6,2.2,6.3,2.2
		c2.5,0,3.7-2,3.7-4.6C807.7,531.1,804.8,527.7,801.8,527.7z M765.7,535.7c-0.9,0-2.2-0.6-3.5-1.4c0.9-1.6,1.6-2.8,2.3-2.8
		c0.7,0,1.5,1.1,2.5,3.4l0.1,0.2C766.9,535.4,766.5,535.7,765.7,535.7z M803,535.5c-0.9,0-2.2-0.5-3.5-1.3c0.8-1.5,1.5-2.7,2.3-2.7
		c1.2,0,2.3,2.4,2.4,3.7C803.8,535.4,803.4,535.5,803,535.5z"/>
	<polygon class="st3" points="822.9,526.4 826.3,528.9 828.4,525.7 825,523.3 	"/>
	<path class="st3" d="M833.3,529.4l-3.5,2.5c1.6,3.4,2.1,5.3,1.8,6.9c-1,1.4-3.1,2.2-5.5,2.2c-3.3,0-5-1.5-5-4.5c0-1,0.1-2.2,0.2-3
		l-0.4-0.1l-2.9,1.1c-0.3,0.9-0.6,2.8-0.6,3.9c0,4.1,3,6.7,7.8,6.7c6,0,9.9-3.5,9.9-8.7c0-1.8-0.8-4.7-1.7-6.9H833.3z"/>
	<path class="st3" d="M841.3,512.9c-0.4-0.4-0.6-0.8-0.6-1.3c0-0.6,0.4-1,1.1-1c0.4,0,0.8,0.1,1.4,0.3l0.5-2.1
		c-0.8-0.3-1.7-0.5-2.4-0.5c-1.8,0-2.8,1.1-2.8,2.8c0,0.7,0.3,1.4,0.7,2c-0.5,0-1,0-1.5,0l0.2,2.3c2.5-0.1,4.7-0.3,6.2-0.4l-0.2-2.2
		C843.2,512.7,842.3,512.8,841.3,512.9z"/>
	<polygon class="st3" points="838.9,517.8 838.9,539 839.2,539.2 842.8,538.5 842.9,517 842.6,516.8 	"/>
	<polygon class="st3" points="895.9,526.2 897.3,523.9 900.4,526.2 902.5,523.1 899.2,520.8 897.7,523 894.6,520.8 892.6,523.8 	"/>
	<path class="st3" d="M905.9,526.7l-3.5,2.6c0.8,1.7,1.8,4.1,1.6,5.3c-0.7,0.3-1.8,0.4-2.9,0.4c-0.8,0-1.6-0.1-2.4-0.3
		c0.5-1.2,0.9-2.6,1.4-4.2l-0.1-0.1l-4,0.7c-0.4,1.5-0.7,3.3-1,3.7c-0.3,0.2-0.6,0.3-1.2,0.3c-1.1,0-2.3-0.2-3.2-0.5
		c0.4-1.1,0.9-2.4,1.4-4l-0.1-0.1l-4.3,0.7c-0.2,1.4-0.5,3-0.8,3.6c-0.6,0.3-1.4,0.4-3.5,0.4l0,0c0,0,0,0,0,0h-4.1
		c0.9-0.8,1.6-2.3,1.6-3.5c0-1.9-1.4-3.8-4.4-6l-0.3,0l-2.6,1.5c-1.8,2.3-3.3,5.3-3.9,8h-1.3l0,0c0,0,0,0,0,0c-2.1,0-2.8-0.4-3.9-3
		c-0.4-1-2.6-6-3.4-8h-0.4l-2.9,3.3c1.3,2.5,3,5.9,3.7,7.2c-1.2,0.5-3.1,0.7-4.6,0.7c-0.7,0-2.2-0.1-3.3-0.3l-0.2,0.1l-0.6,3.9
		c1.1,0.3,2.9,0.4,3.7,0.4c2.8,0,5.1-0.7,6.6-1.8c0.9,1.2,2.2,1.5,4.3,1.5c0,0,0,0,0,0l0,0h2c0.5,4.1,3.1,6.4,7,6.4
		c2.7,0,4.9-1.6,4.9-4.1c0-0.8-0.3-1.6-0.7-2.3h1.9c0,0,0,0,0,0l0,0c2.9,0,4.7-0.4,6-1.4c1.1,0.7,2.9,1.4,4.9,1.4
		c1.2,0,2.2-0.3,3-0.9c1.1,0.5,2.4,0.9,4.2,0.9c4,0,7-1.8,7-5.7c0-2-0.7-4.3-1.5-6.6L905.9,526.7z M875.8,529.3
		c0.9,1,1.3,1.8,1.3,2.7c0,2-1.6,3.2-3.7,3.3C873.7,533.2,874.5,531.1,875.8,529.3z M877,541.9c-1.9,0-3.4-1.1-3.8-3
		c0.4-0.1,0.9-0.2,1.4-0.2c2.3,0,3.8,1.4,3.8,2.8C878.1,541.8,877.6,541.9,877,541.9z"/>
	<polygon class="st3" points="899.6,518.5 896.3,516.3 894.3,519.3 897.6,521.6 	"/>
	<polygon class="st3" points="911.3,517.8 911.3,539 911.6,539.2 915.3,538.5 915.4,517 915.1,516.8 	"/>
	<path class="st3" d="M913.7,512.9c-0.4-0.4-0.6-0.8-0.6-1.3c0-0.6,0.4-1,1.1-1c0.4,0,0.8,0.1,1.4,0.3l0.5-2.1
		c-0.8-0.3-1.7-0.5-2.4-0.5c-1.8,0-2.8,1.1-2.8,2.8c0,0.7,0.3,1.4,0.7,2c-0.5,0-1,0-1.5,0l0.2,2.3c2.5-0.1,4.7-0.3,6.2-0.4l-0.2-2.2
		C915.6,512.7,914.7,512.8,913.7,512.9z"/>
	<path class="st3" d="M924.3,527.7c-3,0-5.3,3.6-5.3,6.6c0,2.3,1.4,3.8,4.4,3.8c1,0,1.8-0.1,2.6-0.2c-1.2,2.1-4.1,3.4-8.5,3.4
		l-0.2,0.4l1.9,3c7.2-0.1,10.6-4.5,10.6-8.9C929.7,531.4,927.6,527.7,924.3,527.7z M924.2,534.6c-1.5,0-2.1-0.3-2.1-1
		c0-1,0.9-2.2,2-2.2c1.2,0,2.1,1.4,2.4,3C925.7,534.6,925,534.6,924.2,534.6z"/>
</g>
<path class="st4" d="M1024.1,43.8H1013v-6.6c0-1.7-1.1-3-2.6-3.5c1.4-1.1,2.3-2.9,2.3-4.8c0-3.4-2.8-6.2-6.2-6.2
	c-1,0-1.9,0.2-2.8,0.7c0.4-1.1,0.5-2.2,0.5-3.4c0-6.2-5-11.2-11.2-11.2c-6.2,0-11.2,5-11.2,11.2c0,1.2,0.2,2.4,0.5,3.4
	c-0.8-0.4-1.8-0.7-2.8-0.7c-3.4,0-6.2,2.8-6.2,6.2c0,1.9,0.9,3.6,2.3,4.8c-1.5,0.4-2.6,1.8-2.6,3.5v6.6h-10h-10v-6.6
	c0-1.7-1.1-3-2.6-3.5c1.4-1.1,2.3-2.9,2.3-4.8c0-3.4-2.8-6.2-6.2-6.2c-1,0-1.9,0.2-2.8,0.7c0.4-1.1,0.5-2.2,0.5-3.4
	c0-6.2-5-11.2-11.2-11.2c-6.2,0-11.2,5-11.2,11.2c0,1.2,0.2,2.4,0.5,3.4c-0.8-0.4-1.8-0.7-2.8-0.7c-3.4,0-6.2,2.8-6.2,6.2
	c0,1.9,0.9,3.6,2.3,4.8c-1.5,0.4-2.6,1.8-2.6,3.5v6.6h-10h-10v-6.6c0-1.7-1.1-3-2.6-3.5c1.4-1.1,2.3-2.9,2.3-4.8
	c0-3.4-2.8-6.2-6.2-6.2c-1,0-1.9,0.2-2.8,0.7c0.4-1.1,0.5-2.2,0.5-3.4c0-6.2-5-11.2-11.2-11.2c-6.2,0-11.2,5-11.2,11.2
	c0,1.2,0.2,2.4,0.5,3.4c-0.8-0.4-1.8-0.7-2.8-0.7c-3.4,0-6.2,2.8-6.2,6.2c0,1.9,0.9,3.6,2.3,4.8c-1.5,0.4-2.6,1.8-2.6,3.5v6.6h-10
	h-10v-6.6c0-1.7-1.1-3-2.6-3.5c1.4-1.1,2.3-2.9,2.3-4.8c0-3.4-2.8-6.2-6.2-6.2c-1,0-1.9,0.2-2.8,0.7c0.4-1.1,0.5-2.2,0.5-3.4
	c0-6.2-5-11.2-11.2-11.2c-6.2,0-11.2,5-11.2,11.2c0,1.2,0.2,2.4,0.5,3.4c-0.8-0.4-1.8-0.7-2.8-0.7c-3.4,0-6.2,2.8-6.2,6.2
	c0,1.9,0.9,3.6,2.3,4.8c-1.5,0.4-2.6,1.8-2.6,3.5v6.6h-10h-10v-6.6c0-1.7-1.1-3-2.6-3.5c1.4-1.1,2.3-2.9,2.3-4.8
	c0-3.4-2.8-6.2-6.2-6.2c-1,0-1.9,0.2-2.8,0.7c0.4-1.1,0.5-2.2,0.5-3.4c0-6.2-5-11.2-11.2-11.2c-6.2,0-11.2,5-11.2,11.2
	c0,1.2,0.2,2.4,0.5,3.4c-0.8-0.4-1.8-0.7-2.8-0.7c-3.4,0-6.2,2.8-6.2,6.2c0,1.9,0.9,3.6,2.3,4.8c-1.5,0.4-2.6,1.8-2.6,3.5v6.6h-10
	h-10v-6.6c0-1.7-1.1-3-2.6-3.5c1.4-1.1,2.3-2.9,2.3-4.8c0-3.4-2.8-6.2-6.2-6.2c-1,0-1.9,0.2-2.8,0.7c0.4-1.1,0.5-2.2,0.5-3.4
	c0-6.2-5-11.2-11.2-11.2c-6.2,0-11.2,5-11.2,11.2c0,1.2,0.2,2.4,0.5,3.4c-0.8-0.4-1.8-0.7-2.8-0.7c-3.4,0-6.2,2.8-6.2,6.2
	c0,1.9,0.9,3.6,2.3,4.8c-1.5,0.4-2.6,1.8-2.6,3.5v6.6h-10h-10v-6.6c0-1.7-1.1-3-2.6-3.5c1.4-1.1,2.3-2.9,2.3-4.8
	c0-3.4-2.8-6.2-6.2-6.2c-1,0-1.9,0.2-2.8,0.7c0.4-1.1,0.5-2.2,0.5-3.4c0-6.2-5-11.2-11.2-11.2c-6.2,0-11.2,5-11.2,11.2
	c0,1.2,0.2,2.4,0.5,3.4c-0.8-0.4-1.8-0.7-2.8-0.7c-3.4,0-6.2,2.8-6.2,6.2c0,1.9,0.9,3.6,2.3,4.8c-1.5,0.4-2.6,1.8-2.6,3.5v6.6h-10
	h-10v-6.6c0-1.7-1.1-3-2.6-3.5c1.4-1.1,2.3-2.9,2.3-4.8c0-3.4-2.8-6.2-6.2-6.2c-1,0-1.9,0.2-2.8,0.7c0.4-1.1,0.5-2.2,0.5-3.4
	c0-6.2-5-11.2-11.2-11.2c-6.2,0-11.2,5-11.2,11.2c0,1.2,0.2,2.4,0.5,3.4c-0.8-0.4-1.8-0.7-2.8-0.7c-3.4,0-6.2,2.8-6.2,6.2
	c0,1.9,0.9,3.6,2.3,4.8c-1.5,0.4-2.6,1.8-2.6,3.5v6.6h-10h-10v-6.6c0-1.7-1.1-3-2.6-3.5c1.4-1.1,2.3-2.9,2.3-4.8
	c0-3.4-2.8-6.2-6.2-6.2c-1,0-1.9,0.2-2.8,0.7c0.4-1.1,0.5-2.2,0.5-3.4c0-6.2-5-11.2-11.2-11.2c-6.2,0-11.2,5-11.2,11.2
	c0,1.2,0.2,2.4,0.5,3.4c-0.8-0.4-1.8-0.7-2.8-0.7c-3.4,0-6.2,2.8-6.2,6.2c0,1.9,0.9,3.6,2.3,4.8c-1.5,0.4-2.6,1.8-2.6,3.5v6.6h-10
	h-10v-6.6c0-1.7-1.1-3-2.6-3.5c1.4-1.1,2.3-2.9,2.3-4.8c0-3.4-2.8-6.2-6.2-6.2c-1,0-1.9,0.2-2.8,0.7c0.4-1.1,0.5-2.2,0.5-3.4
	c0-6.2-5-11.2-11.2-11.2c-6.2,0-11.2,5-11.2,11.2c0,1.2,0.2,2.4,0.5,3.4c-0.8-0.4-1.8-0.7-2.8-0.7c-3.4,0-6.2,2.8-6.2,6.2
	c0,1.9,0.9,3.6,2.3,4.8c-1.5,0.4-2.6,1.8-2.6,3.5v6.6h-10h-10v-6.6c0-1.7-1.1-3-2.6-3.5c1.4-1.1,2.3-2.9,2.3-4.8
	c0-3.4-2.8-6.2-6.2-6.2c-1,0-1.9,0.2-2.8,0.7c0.4-1.1,0.5-2.2,0.5-3.4c0-6.2-5-11.2-11.2-11.2c-6.2,0-11.2,5-11.2,11.2
	c0,1.2,0.2,2.4,0.5,3.4c-0.8-0.4-1.8-0.7-2.8-0.7c-3.4,0-6.2,2.8-6.2,6.2c0,1.9,0.9,3.6,2.3,4.8c-1.5,0.4-2.6,1.8-2.6,3.5v6.6h-10
	h-10v-6.6c0-1.7-1.1-3-2.6-3.5c1.4-1.1,2.3-2.9,2.3-4.8c0-3.4-2.8-6.2-6.2-6.2c-1,0-1.9,0.2-2.8,0.7c0.4-1.1,0.5-2.2,0.5-3.4
	c0-6.2-5-11.2-11.2-11.2c-6.2,0-11.2,5-11.2,11.2c0,1.2,0.2,2.4,0.5,3.4c-0.8-0.4-1.8-0.7-2.8-0.7c-3.4,0-6.2,2.8-6.2,6.2
	c0,1.9,0.9,3.6,2.3,4.8c-1.5,0.4-2.6,1.8-2.6,3.5v6.6h-10h-10v-6.6c0-1.7-1.1-3-2.6-3.5c1.4-1.1,2.3-2.9,2.3-4.8
	c0-3.4-2.8-6.2-6.2-6.2c-1,0-1.9,0.2-2.8,0.7c0.4-1.1,0.5-2.2,0.5-3.4c0-6.2-5-11.2-11.2-11.2c-6.2,0-11.2,5-11.2,11.2
	c0,1.2,0.2,2.4,0.5,3.4c-0.8-0.4-1.8-0.7-2.8-0.7c-3.4,0-6.2,2.8-6.2,6.2c0,1.9,0.9,3.6,2.3,4.8c-1.5,0.4-2.6,1.8-2.6,3.5v6.6h-10
	h-10v-6.6c0-1.7-1.1-3-2.6-3.5c1.4-1.1,2.3-2.9,2.3-4.8c0-3.4-2.8-6.2-6.2-6.2c-1,0-1.9,0.2-2.8,0.7c0.4-1.1,0.5-2.2,0.5-3.4
	c0-6.2-5-11.2-11.2-11.2c-6.2,0-11.2,5-11.2,11.2c0,1.2,0.2,2.4,0.5,3.4c-0.8-0.4-1.8-0.7-2.8-0.7c-3.4,0-6.2,2.8-6.2,6.2
	c0,1.9,0.9,3.6,2.3,4.8c-1.5,0.4-2.6,1.8-2.6,3.5v6.6h-10h-10v-6.6c0-1.7-1.1-3-2.6-3.5c1.4-1.1,2.3-2.9,2.3-4.8
	c0-3.4-2.8-6.2-6.2-6.2c-1,0-1.9,0.2-2.8,0.7c0.4-1.1,0.5-2.2,0.5-3.4c0-6.2-5-11.2-11.2-11.2c-6.2,0-11.2,5-11.2,11.2
	c0,1.2,0.2,2.4,0.5,3.4c-0.8-0.4-1.8-0.7-2.8-0.7c-3.4,0-6.2,2.8-6.2,6.2c0,1.9,0.9,3.6,2.3,4.8c-1.5,0.4-2.6,1.8-2.6,3.5v6.6h-10
	h-10v-6.6c0-1.7-1.1-3-2.6-3.5c1.4-1.1,2.3-2.9,2.3-4.8c0-3.4-2.8-6.2-6.2-6.2c-1,0-1.9,0.2-2.8,0.7c0.4-1.1,0.5-2.2,0.5-3.4
	c0-6.2-5-11.2-11.2-11.2c-6.2,0-11.2,5-11.2,11.2c0,1.2,0.2,2.4,0.5,3.4c-0.8-0.4-1.8-0.7-2.8-0.7c-3.4,0-6.2,2.8-6.2,6.2
	c0,1.9,0.9,3.6,2.3,4.8c-1.5,0.4-2.6,1.8-2.6,3.5v6.6h-10h-10v-6.6c0-1.7-1.1-3-2.6-3.5c1.4-1.1,2.3-2.9,2.3-4.8
	c0-3.4-2.8-6.2-6.2-6.2c-1,0-1.9,0.2-2.8,0.7c0.4-1.1,0.5-2.2,0.5-3.4c0-6.2-5-11.2-11.2-11.2c-6.2,0-11.2,5-11.2,11.2
	c0,1.2,0.2,2.4,0.5,3.4c-0.8-0.4-1.8-0.7-2.8-0.7c-3.4,0-6.2,2.8-6.2,6.2c0,1.9,0.9,3.6,2.3,4.8c-1.5,0.4-2.6,1.8-2.6,3.5v6.6H0.1V0
	h1024V43.8z"/>
<g id="Layer_x0020_1_17_">
	<path class="st5" d="M34.9,720l43.9-1.7c0.3,0,0.6,0,1,0c0.7,0.1,1.3,0.4,1.8,0.9c0.5,0.5,0.9,1,0.9,1.7c0,0.2,0,0.5,0,0.8
		L78,742.3c-0.2,0.9-0.6,1.7-1.3,2.2c-0.6,0.5-1.4,0.9-2.4,0.9l-35.3-1.2c-1,0-1.7-0.3-2.4-0.9l0,0c-0.6-0.6-1.1-1.4-1.3-2.2
		l-4.1-17.7c0-0.1,0-0.1,0-0.2c-0.1-0.8,0.3-1.5,0.9-2.1c0.6-0.5,1.4-0.8,2.3-1C34.7,720.1,34.8,720,34.9,720z M76.9,721.1l-42,1.5
		c-0.1,0-0.2,0-0.3,0c-0.6,0.1-1.1,0.3-1.5,0.7c-0.3,0.3-0.6,0.7-0.5,1.1c0,0,0,0.1,0,0.1l3.8,16.5c0.1,0.6,0.4,1.2,0.9,1.6
		c0.4,0.3,0.8,0.5,1.4,0.5l34,1.2c0.6,0,1-0.2,1.4-0.5c0.4-0.4,0.7-0.9,0.9-1.6l4.3-19.3c0-0.1,0-0.3,0-0.4c0-0.3-0.2-0.7-0.5-0.9
		c-0.3-0.3-0.7-0.5-1.1-0.5C77.3,721.1,77.1,721.1,76.9,721.1z"/>
	<path class="st5" d="M42,724.7l12.9-1.4c0.1,0,0.3,0,0.4,0c0.3,0.1,0.6,0.2,0.8,0.4c0.2,0.2,0.4,0.5,0.4,0.8c0,0.1,0,0.2,0,0.3
		l-2.1,9.6c-0.1,0.4-0.3,0.8-0.6,1c-0.3,0.2-0.6,0.4-1.1,0.4h-8.9c-0.4,0-0.8-0.2-1.1-0.4h0c-0.3-0.3-0.5-0.6-0.6-1l-1.9-8.2
		c0,0,0-0.1,0-0.1c-0.1-0.4,0.1-0.7,0.4-1c0.3-0.2,0.7-0.4,1-0.5C41.8,724.7,41.9,724.7,42,724.7z M54,724.7l-12,1.3
		c0,0-0.1,0-0.1,0c-0.3,0-0.5,0.2-0.7,0.3c-0.2,0.1-0.3,0.3-0.2,0.5c0,0,0,0,0,0l1.8,7.6c0.1,0.3,0.2,0.5,0.4,0.7
		c0.2,0.1,0.4,0.2,0.6,0.2h8.3c0.3,0,0.5-0.1,0.6-0.2c0.2-0.2,0.3-0.4,0.4-0.7l2-8.9c0-0.1,0-0.1,0-0.2c0-0.2-0.1-0.3-0.2-0.4
		c-0.1-0.1-0.3-0.2-0.5-0.2C54.1,724.6,54,724.6,54,724.7z"/>
	<g id="_1849662416_17_">
		<path class="st6" d="M60.4,736.9l0.4-0.7l-0.7-0.4l0.4-0.7l-1.5-0.8l-0.9,1.5l0,0c0.3,0.1,0.5,0.3,0.7,0.4l-0.4,0.7l0.7,0.4
			l-0.8,1.5l0.7,0.4c-0.2,0.5-0.6,1.1-0.9,1.5l0,0c0.2,0.1,0.4,0.2,0.5,0.3c0.3,0.1,0.2,0.1,0,0.5c-0.2,0.4-0.4,0.8-0.7,1.1l0.7,0.4
			c0,0.2-0.7,1.2-0.8,1.5l5.9,3.4l0.9-1.5l0.8,0.4l1.3-2.2l0.7,0.4l3-5.2c-0.1-0.1-0.7-0.4-0.7-0.5c0-0.2,0.4-0.6,0.4-0.7
			c-0.1-0.1-0.5-0.4-0.7-0.4l-1.3,2.2l-0.7-0.4l1.7-3l-1.5-0.9l-1.3,2.2l-0.7-0.4l1.7-2.9c-0.1-0.1-1.3-0.8-1.5-0.9l-1.7,3l-0.7-0.4
			c0-0.1,0.1-0.1,0.1-0.2c1.2-2.1,2.5-4.3,3.7-6.5l-1.5-0.8l-4.7,8.1C60.9,737.3,60.5,737,60.4,736.9L60.4,736.9z"/>
		<path class="st7" d="M58.3,740.6c-0.1,0.1-0.1,0.2-0.2,0.3l-0.7,1.1c0.1,0.1,0.2,0.1,0.4,0.2c0.1,0.1,0.2,0.1,0.3,0.2
			c-0.4,0.8-0.8,1.5-1.2,2.2c0.6,0.4,1.2,0.7,1.8,1.1l3.7,2.2c0.6,0.4,1.2,0.7,1.9,1.1c0.1-0.2,0.1-0.3,0.3-0.5
			c0.1-0.2,0.4-0.6,0.5-0.9c0.1-0.1,0.1-0.1,0.2-0.3c0.1-0.2,0.2-0.4,0.3-0.6c0.1,0.2,0.5,0.3,0.7,0.4c0.4-0.7,0.8-1.4,1.3-2.2
			c0.2,0.1,0.4,0.2,0.6,0.3c0.1,0.1,0.1,0.1,0.2,0c0.2-0.3,0.3-0.6,0.5-0.9c0.3-0.6,0.7-1.1,1-1.7l1.4-2.5c-0.2-0.1-0.6-0.3-0.7-0.4
			l-3,5.2l-0.7-0.4l-1.3,2.2l-0.8-0.4l-0.9,1.5l-5.9-3.4c0.1-0.3,0.8-1.3,0.8-1.5l-0.7-0.4c0.2-0.4,0.4-0.8,0.7-1.1
			c0.2-0.4,0.2-0.3,0-0.5C58.6,740.8,58.5,740.7,58.3,740.6z"/>
		<path class="st7" d="M60.5,735l-0.4,0.7l0.7,0.4l-0.4,0.7l0.7,0.4l4.7-8.1l-0.7-0.4c0,0,0,0,0,0l0,0c0,0,0,0,0,0l-3.8,6.6
			C61,735.2,60.8,735.1,60.5,735z"/>
		<path class="st7" d="M67.4,730.1l-3.9,6.6l0.7,0.4l1.7-3c0.2,0,1.4,0.8,1.5,0.9c0.2,0.2,1.6,0.9,1.9,1.1c0,0,0.1,0-0.1-0.1
			l-1.5-0.8c-0.4-0.2-0.3-0.1,0.1-0.9l-1.1-0.6c-0.1-0.1-0.2-0.1-0.3-0.2l1.7-2.9c-0.2-0.1-0.3-0.2-0.6-0.4
			C67.4,730.1,67.5,730.1,67.4,730.1z"/>
		<path class="st7" d="M69.2,737.1l0.4-0.7c-0.1-0.1-0.2-0.2-0.4-0.2c-0.3-0.2-1.7-0.9-1.9-1.1l-1.7,2.9l0.7,0.4l1.3-2.2L69.2,737.1
			z"/>
		<path class="st7" d="M58.2,735.7c-0.1,0.1-0.1,0.1-0.2,0.3c-0.1,0.1-0.1,0.3-0.2,0.4l0.7,0.4c-0.1,0.2-0.7,1.3-0.8,1.5l0.7,0.4
			l-0.6,1.1c-0.1,0.2-0.1,0.2-0.2,0.4l0.7,0.4c0.3-0.4,0.7-1,0.9-1.5l-0.7-0.4l0.8-1.5l-0.7-0.4l0.4-0.7
			C58.7,735.9,58.5,735.7,58.2,735.7z"/>
		<path class="st7" d="M58.2,735.6l0.9-1.5l1.5,0.8l0.2-0.4c0.1-0.1,0.1-0.2,0.2-0.4l-2-1.1c-0.3-0.2-0.2-0.2-0.5,0.2l-0.9,1.6
			c-0.1,0.2-0.2,0.2,0,0.3C57.7,735.4,58.1,735.6,58.2,735.6z"/>
		<path class="st7" d="M70.3,738.7c0.1,0,0,0,0.1-0.1c0,0,0.1-0.1,0.1-0.1c0-0.2,0.2-0.4,0.3-0.6l-1.5-0.8l-1.7,3l0.7,0.4l1.3-2.2
			C69.7,738.3,70.1,738.5,70.3,738.7z"/>
		<path class="st7" d="M67.4,730c0.1-0.2,0.3-0.5,0.4-0.7l-1.5-0.8l-0.4,0.7L67.4,730z"/>
		<path class="st7" d="M70.3,738.7c0,0.2-0.4,0.6-0.4,0.7c0,0.1,0.6,0.4,0.7,0.5c0.2,0.1,0.5,0.3,0.7,0.4l-1.4,2.5l1.5-2.5l-0.7-0.4
			c0.1-0.1,0.1-0.2,0.2-0.4c0.1-0.1,0.2-0.3,0.2-0.4c-0.8-0.5-0.8-0.3-0.6-0.6c0,0-0.1,0.1-0.1,0.1
			C70.3,738.7,70.4,738.7,70.3,738.7z"/>
	</g>
	<path class="st5" d="M95,736.9h-2.5l2.1-7.2l-4.3,7.2h-2.6l-0.5-7.3l-1.8,7.3h-2.6l2.9-10.9h3.5l0.5,7.7l4.6-7.7h3.5L95,736.9z
		 M104.4,736.9h-5.6c-0.8,0-1.3-0.2-1.7-0.6c-0.4-0.4-0.4-1-0.2-1.8c0.3-0.9,0.7-1.6,1.3-2c0.6-0.4,1.5-0.6,2.6-0.6h2.5
		c0.1-0.4,0.1-0.7-0.1-0.8c-0.2-0.2-0.6-0.2-1.3-0.2h-3.6l0.5-2h4.3c1.1,0,1.9,0.3,2.3,0.8c0.4,0.5,0.5,1.3,0.2,2.3L104.4,736.9z
		 M102.5,734.9l0.3-1.2h-2.2c-0.4,0-0.7,0-0.9,0.1c-0.2,0.1-0.3,0.3-0.3,0.5c-0.1,0.2-0.1,0.3,0,0.4c0,0,0.1,0.1,0.2,0.1
		c0.1,0,0.3,0,0.5,0H102.5z M113.2,736.9h-2.4l1.3-4.9c0.1-0.5,0.2-0.8,0-1c-0.1-0.1-0.4-0.2-0.9-0.2h-1.4l-1.6,6.1h-2.4l2.2-8.1h4
		c1.2,0,2,0.2,2.4,0.7c0.4,0.5,0.5,1.2,0.2,2.3L113.2,736.9z M122,736.9h-2.4l1.3-4.9c0.1-0.5,0.1-0.8,0-0.9
		c-0.1-0.1-0.2-0.1-0.3-0.2c-0.1,0-0.3-0.1-0.6-0.1l-1.4,0l-1.6,6.1h-2.4l2.9-10.9h2.4l-0.8,2.8h1.6c1.2,0,2,0.2,2.4,0.7
		c0.4,0.5,0.5,1.2,0.2,2.3L122,736.9z M131.2,736.9h-5.6c-0.8,0-1.3-0.2-1.7-0.6c-0.4-0.4-0.4-1-0.2-1.8c0.3-0.9,0.7-1.6,1.3-2
		c0.6-0.4,1.5-0.6,2.6-0.6h2.5c0.1-0.4,0.1-0.7-0.1-0.8c-0.2-0.2-0.6-0.2-1.3-0.2h-3.6l0.5-2h4.3c1.1,0,1.9,0.3,2.3,0.8
		c0.4,0.5,0.5,1.3,0.2,2.3L131.2,736.9z M129.3,734.9l0.3-1.2h-2.2c-0.4,0-0.7,0-0.9,0.1c-0.2,0.1-0.3,0.3-0.3,0.5
		c-0.1,0.2,0,0.3,0,0.4c0,0,0.1,0.1,0.2,0.1c0.1,0,0.3,0,0.5,0H129.3z M135.1,736.9h-2.5l2.9-10.9h2.5L135.1,736.9z M140.7,736.9
		h-2.1l0.6-2.2h2.1L140.7,736.9z M148.5,736.9h-2.9c-0.4,0-0.7,0-1-0.1c-0.3,0-0.5-0.1-0.8-0.2c-0.4-0.1-0.8-0.4-1-0.8
		c-0.1-0.2-0.2-0.4-0.3-0.6c-0.1-0.2-0.2-0.5-0.2-0.7c0-0.3,0-0.5,0-0.8c0-0.3,0.1-0.6,0.2-0.9c0.2-0.6,0.4-1.2,0.8-1.7
		c0.3-0.5,0.7-1,1.3-1.4c0.4-0.3,0.9-0.6,1.4-0.7c0.5-0.2,1.1-0.2,1.9-0.2h2.9l-0.5,2h-2.3c-0.5,0-0.9,0-1.2,0.1
		c-0.3,0.1-0.6,0.2-0.8,0.4c-0.4,0.3-0.7,0.8-0.9,1.6c-0.1,0.4-0.1,0.8-0.1,1.1c0.1,0.3,0.1,0.6,0.4,0.7l0.4,0.2c0.1,0,0.3,0,0.4,0
		c0.1,0,0.4,0,0.6,0h2.3L148.5,736.9z M158.6,732.8c-0.3,1.3-1,2.3-2,3.1c-1,0.8-2.1,1.1-3.4,1.1c-1.3,0-2.2-0.4-2.8-1.1
		c-0.6-0.8-0.7-1.8-0.3-3.1c0.3-1.3,1-2.3,2-3c1-0.8,2.1-1.1,3.4-1.1c1.3,0,2.2,0.4,2.8,1.1C158.8,730.5,158.9,731.5,158.6,732.8z
		 M156.1,732.8c0.2-0.7,0.1-1.2-0.1-1.6c-0.2-0.4-0.6-0.6-1.1-0.6c-0.5,0-1,0.2-1.4,0.6c-0.4,0.4-0.7,0.9-0.9,1.6
		c-0.1,0.4-0.1,0.7-0.1,0.9c0,0.3,0.1,0.5,0.2,0.7c0.2,0.4,0.6,0.6,1.1,0.6c0.6,0,1-0.2,1.4-0.6C155.6,734,155.9,733.5,156.1,732.8z
		 M169.7,736.9h-2.4l1.3-4.9c0.1-0.5,0.2-0.8,0.1-1c-0.1-0.2-0.4-0.2-0.9-0.2l-0.9,0l-1.6,6.1h-2.4l1.6-6.1h-2l-1.6,6.1h-2.4
		l2.2-8.1h8c1.2,0,2,0.2,2.4,0.7c0.4,0.5,0.5,1.2,0.2,2.3L169.7,736.9z"/>
	<path class="st5" d="M27.9,728.8l21.2-2.2c0.2,0,0.5,0,0.7,0c0.5,0.1,1,0.3,1.4,0.7c0.4,0.3,0.6,0.8,0.7,1.3c0,0.2,0,0.4,0,0.6
		l-3.7,9.6c-0.1,0.7-0.5,1.3-1,1.7c-0.5,0.4-1.1,0.7-1.8,0.7H30.9c-0.7,0-1.3-0.3-1.8-0.7h0c-0.5-0.4-0.8-1.1-1-1.7l-2.9-7.4
		c0-0.1,0-0.1,0-0.2c-0.1-0.6,0.2-1.2,0.7-1.6c0.5-0.4,1.1-0.6,1.7-0.8C27.7,728.8,27.8,728.8,27.9,728.8z M47.7,728.7l-19.8,2.1
		c-0.1,0-0.2,0-0.2,0c-0.4,0.1-0.9,0.3-1.2,0.5c-0.3,0.2-0.4,0.5-0.4,0.8c0,0,0,0.1,0,0.1l2.7,6.5c0.1,0.5,0.3,0.9,0.7,1.2
		c0.3,0.2,0.6,0.4,1,0.4h13.6c0.4,0,0.8-0.1,1-0.4c0.3-0.3,0.5-0.7,0.7-1.2l3.4-8.6c0-0.1,0-0.2,0-0.3c0-0.3-0.2-0.5-0.4-0.7
		c-0.2-0.2-0.5-0.4-0.8-0.4C47.9,728.7,47.8,728.7,47.7,728.7z"/>
	<path class="st5" d="M87.6,722.5l-0.5,1.7h-0.6l1.2-4.5h1.3c0.3,0,0.5,0,0.7,0.1c0.2,0.1,0.3,0.2,0.4,0.3c0.1,0.1,0.2,0.3,0.2,0.4
		c0,0.2,0,0.4-0.1,0.6c-0.1,0.2-0.1,0.4-0.3,0.6c-0.1,0.2-0.3,0.3-0.4,0.4c-0.2,0.1-0.4,0.2-0.6,0.3c-0.2,0.1-0.5,0.1-0.7,0.1H87.6z
		 M87.7,722h0.7c0.2,0,0.3,0,0.5-0.1c0.1,0,0.3-0.1,0.4-0.2c0.1-0.1,0.2-0.2,0.3-0.3c0.1-0.1,0.1-0.2,0.2-0.4
		c0.1-0.3,0.1-0.5-0.1-0.7c-0.1-0.2-0.4-0.2-0.7-0.2h-0.7L87.7,722z"/>
	<path id="_x31__17_" class="st5" d="M92.3,721c0.2,0,0.4,0,0.6,0.1c0.2,0.1,0.3,0.2,0.4,0.3c0.1,0.1,0.1,0.3,0.2,0.5
		c0,0.2,0,0.4-0.1,0.7c-0.1,0.2-0.2,0.5-0.3,0.7c-0.1,0.2-0.3,0.4-0.4,0.5c-0.2,0.1-0.4,0.3-0.6,0.3c-0.2,0.1-0.4,0.1-0.7,0.1
		c-0.2,0-0.4,0-0.6-0.1c-0.2-0.1-0.3-0.2-0.4-0.3c-0.1-0.1-0.1-0.3-0.2-0.5c0-0.2,0-0.4,0.1-0.7c0.1-0.3,0.2-0.5,0.3-0.7
		c0.1-0.2,0.3-0.4,0.4-0.5c0.2-0.1,0.4-0.3,0.6-0.3C91.8,721,92.1,721,92.3,721z M91.5,723.8c0.3,0,0.6-0.1,0.8-0.3
		c0.2-0.2,0.4-0.5,0.5-0.9c0.1-0.4,0.1-0.7,0-0.9c-0.1-0.2-0.3-0.3-0.6-0.3c-0.2,0-0.3,0-0.4,0.1c-0.1,0.1-0.2,0.1-0.4,0.2
		c-0.1,0.1-0.2,0.2-0.3,0.4c-0.1,0.1-0.1,0.3-0.2,0.5c0,0.2-0.1,0.4-0.1,0.5c0,0.1,0,0.3,0.1,0.4c0.1,0.1,0.1,0.2,0.2,0.2
		C91.2,723.8,91.4,723.8,91.5,723.8z"/>
	<path id="_x32__17_" class="st5" d="M94.1,721h0.4c0,0,0.1,0,0.1,0c0,0,0,0,0,0.1l0.1,2c0,0.1,0,0.1,0,0.2c0,0.1,0,0.1,0,0.2
		c0-0.1,0.1-0.1,0.1-0.2c0-0.1,0.1-0.1,0.1-0.2l1.2-2.1c0,0,0-0.1,0.1-0.1c0,0,0.1,0,0.1,0h0.2c0,0,0.1,0,0.1,0c0,0,0,0,0,0.1
		l0.1,2.1c0,0.1,0,0.1,0,0.2c0,0.1,0,0.1,0,0.2c0-0.1,0.1-0.1,0.1-0.2c0-0.1,0.1-0.1,0.1-0.2l1.2-2c0,0,0-0.1,0.1-0.1
		c0,0,0.1,0,0.1,0h0.4l-1.9,3.2h-0.4c-0.1,0-0.1,0-0.1-0.1l-0.1-2.2c0,0,0-0.1,0-0.1c0-0.1,0-0.1,0-0.1c0,0,0,0.1-0.1,0.1
		c0,0,0,0.1-0.1,0.1l-1.3,2.2c0,0.1-0.1,0.1-0.2,0.1h-0.4L94.1,721z"/>
	<path id="_x33__17_" class="st5" d="M100.6,721c0.2,0,0.4,0,0.5,0.1c0.1,0.1,0.3,0.2,0.3,0.3c0.1,0.1,0.1,0.3,0.2,0.4
		c0,0.2,0,0.4-0.1,0.6c0,0.1,0,0.1-0.1,0.2c0,0-0.1,0-0.1,0h-2.1c-0.1,0.2-0.1,0.4-0.1,0.5c0,0.1,0,0.3,0.1,0.4
		c0.1,0.1,0.1,0.2,0.3,0.2c0.1,0,0.2,0.1,0.4,0.1c0.1,0,0.3,0,0.4,0c0.1,0,0.2-0.1,0.3-0.1c0.1,0,0.2-0.1,0.2-0.1
		c0.1,0,0.1-0.1,0.1-0.1c0,0,0.1,0,0.1,0.1l0.1,0.2c-0.1,0.1-0.2,0.2-0.3,0.2c-0.1,0.1-0.2,0.1-0.3,0.2c-0.1,0-0.2,0.1-0.4,0.1
		c-0.1,0-0.2,0-0.4,0c-0.2,0-0.4,0-0.6-0.1c-0.2-0.1-0.3-0.2-0.4-0.3c-0.1-0.1-0.2-0.3-0.2-0.5c0-0.2,0-0.5,0.1-0.7
		c0.1-0.2,0.1-0.4,0.3-0.6c0.1-0.2,0.3-0.4,0.4-0.5c0.2-0.1,0.4-0.3,0.6-0.3C100.1,721,100.3,721,100.6,721z M100.5,721.4
		c-0.3,0-0.5,0.1-0.7,0.2c-0.2,0.2-0.4,0.4-0.5,0.6h1.7c0-0.1,0.1-0.2,0-0.4c0-0.1,0-0.2-0.1-0.3c0-0.1-0.1-0.1-0.2-0.2
		C100.7,721.4,100.6,721.4,100.5,721.4z"/>
	<path id="_x34__17_" class="st5" d="M101.7,724.2l0.9-3.2h0.3c0.1,0,0.1,0,0.1,0c0,0,0,0.1,0,0.1l-0.1,0.5c0.2-0.2,0.4-0.4,0.5-0.5
		c0.2-0.1,0.4-0.2,0.6-0.2c0.1,0,0.2,0,0.2,0c0.1,0,0.1,0,0.2,0.1l-0.2,0.4c0,0.1-0.1,0.1-0.1,0.1c0,0-0.1,0-0.1,0
		c-0.1,0-0.1,0-0.2,0c-0.2,0-0.4,0.1-0.5,0.2c-0.2,0.1-0.3,0.3-0.5,0.5l-0.5,2H101.7z"/>
	<path id="_x35__17_" class="st5" d="M106.4,721c0.2,0,0.4,0,0.5,0.1c0.1,0.1,0.3,0.2,0.3,0.3c0.1,0.1,0.1,0.3,0.2,0.4
		c0,0.2,0,0.4-0.1,0.6c0,0.1,0,0.1-0.1,0.2c0,0-0.1,0-0.1,0H105c-0.1,0.2-0.1,0.4-0.1,0.5c0,0.1,0,0.3,0.1,0.4
		c0.1,0.1,0.1,0.2,0.3,0.2c0.1,0,0.2,0.1,0.4,0.1c0.1,0,0.3,0,0.4,0c0.1,0,0.2-0.1,0.3-0.1c0.1,0,0.2-0.1,0.2-0.1
		c0.1,0,0.1-0.1,0.1-0.1c0,0,0.1,0,0.1,0.1l0.1,0.2c-0.1,0.1-0.2,0.2-0.3,0.2c-0.1,0.1-0.2,0.1-0.3,0.2c-0.1,0-0.2,0.1-0.4,0.1
		c-0.1,0-0.2,0-0.4,0c-0.2,0-0.4,0-0.6-0.1c-0.2-0.1-0.3-0.2-0.4-0.3c-0.1-0.1-0.2-0.3-0.2-0.5c0-0.2,0-0.5,0.1-0.7
		c0.1-0.2,0.2-0.4,0.3-0.6c0.1-0.2,0.3-0.4,0.4-0.5c0.2-0.1,0.4-0.3,0.6-0.3C105.9,721,106.2,721,106.4,721z M106.3,721.4
		c-0.3,0-0.5,0.1-0.7,0.2c-0.2,0.2-0.4,0.4-0.5,0.6h1.7c0-0.1,0-0.2,0-0.4c0-0.1,0-0.2-0.1-0.3c0-0.1-0.1-0.1-0.2-0.2
		C106.5,721.4,106.4,721.4,106.3,721.4z"/>
	<path id="_x36__17_" class="st5" d="M109.8,724.2c-0.1,0-0.1,0-0.1-0.1l0.1-0.4c-0.2,0.2-0.4,0.3-0.6,0.4c-0.2,0.1-0.4,0.1-0.6,0.1
		c-0.2,0-0.3,0-0.5-0.1c-0.1-0.1-0.2-0.2-0.3-0.3c-0.1-0.1-0.1-0.3-0.1-0.5c0-0.2,0-0.4,0.1-0.7c0.1-0.2,0.2-0.5,0.3-0.7
		c0.1-0.2,0.3-0.4,0.4-0.5c0.2-0.2,0.3-0.3,0.5-0.4c0.2-0.1,0.4-0.1,0.6-0.1c0.2,0,0.4,0,0.5,0.1c0.1,0.1,0.2,0.2,0.3,0.3l0.5-1.8
		h0.6l-1.2,4.6H109.8z M108.8,723.8c0.2,0,0.4,0,0.5-0.1c0.2-0.1,0.3-0.2,0.5-0.4l0.4-1.5c-0.1-0.1-0.2-0.2-0.3-0.3
		c-0.1-0.1-0.2-0.1-0.4-0.1c-0.3,0-0.6,0.1-0.8,0.3c-0.2,0.2-0.4,0.5-0.5,0.9c-0.1,0.2-0.1,0.4-0.1,0.5c0,0.1,0,0.3,0.1,0.4
		c0,0.1,0.1,0.2,0.2,0.2C108.6,723.8,108.7,723.8,108.8,723.8z"/>
	<path id="_x37__17_" class="st5" d="M112.3,724.2l1.2-4.6h0.6l-0.5,1.9c0.2-0.2,0.4-0.3,0.6-0.4c0.2-0.1,0.4-0.1,0.6-0.1
		c0.2,0,0.3,0,0.5,0.1c0.1,0.1,0.2,0.2,0.3,0.3c0.1,0.1,0.1,0.3,0.1,0.5c0,0.2,0,0.4-0.1,0.7c-0.1,0.2-0.2,0.5-0.3,0.7
		c-0.1,0.2-0.3,0.4-0.4,0.5c-0.2,0.1-0.3,0.3-0.5,0.3c-0.2,0.1-0.4,0.1-0.6,0.1c-0.2,0-0.4,0-0.5-0.1c-0.1-0.1-0.2-0.2-0.3-0.3
		l-0.1,0.3c0,0.1-0.1,0.1-0.2,0.1H112.3z M114.5,721.4c-0.2,0-0.4,0-0.5,0.1c-0.2,0.1-0.3,0.2-0.5,0.4l-0.4,1.5
		c0.1,0.1,0.1,0.2,0.3,0.3c0.1,0.1,0.2,0.1,0.4,0.1c0.3,0,0.6-0.1,0.8-0.3c0.2-0.2,0.4-0.5,0.5-0.9c0.1-0.2,0.1-0.4,0.1-0.5
		c0-0.1,0-0.3-0.1-0.4c0-0.1-0.1-0.2-0.2-0.2C114.7,721.4,114.6,721.4,114.5,721.4z"/>
	<path id="_x38__17_" class="st5" d="M116.4,725.1c0,0-0.1,0.1-0.1,0.1c0,0-0.1,0-0.1,0h-0.4l0.9-1.2l-0.5-3h0.5c0,0,0.1,0,0.1,0
		c0,0,0,0,0,0.1l0.3,2c0,0,0,0.1,0,0.1c0,0,0,0.1,0,0.1c0,0,0.1-0.1,0.1-0.1c0,0,0.1-0.1,0.1-0.1l1.4-2c0,0,0.1-0.1,0.1-0.1
		c0,0,0.1,0,0.1,0h0.4L116.4,725.1z"/>
	<path id="_x39__17_" class="st5" d="M118.9,723.8c0-0.1,0-0.1,0.1-0.2c0-0.1,0.1-0.1,0.1-0.1c0,0,0.1-0.1,0.1-0.1
		c0.1,0,0.1,0,0.2,0c0.1,0,0.1,0,0.1,0c0,0,0.1,0,0.1,0.1c0,0,0,0.1,0.1,0.1c0,0,0,0.1,0,0.2c0,0.1,0,0.1-0.1,0.2
		c0,0-0.1,0.1-0.1,0.1c0,0-0.1,0.1-0.1,0.1c-0.1,0-0.1,0-0.2,0c-0.1,0-0.1,0-0.1,0c0,0-0.1,0-0.1-0.1c0,0,0-0.1,0-0.1
		C118.9,723.9,118.9,723.9,118.9,723.8z M119.6,721.5c0-0.1,0-0.1,0.1-0.2c0,0,0.1-0.1,0.1-0.1c0,0,0.1-0.1,0.1-0.1
		c0.1,0,0.1,0,0.2,0c0.1,0,0.1,0,0.1,0c0,0,0.1,0,0.1,0.1c0,0,0,0.1,0.1,0.1c0,0,0,0.1,0,0.2c0,0.1,0,0.1-0.1,0.2
		c0,0-0.1,0.1-0.1,0.1c0,0-0.1,0.1-0.1,0.1c-0.1,0-0.1,0-0.2,0c-0.1,0-0.1,0-0.1,0c0,0-0.1,0-0.1-0.1c0,0,0-0.1,0-0.1
		C119.6,721.6,119.6,721.5,119.6,721.5z"/>
	<path class="st5" d="M126,739.3l-0.1,0.5h-2.3l-0.4,1.6h1.8l-0.1,0.5h-1.8l-0.4,1.6h2.3l-0.1,0.5h-2.9l1.3-4.8H126z M126,741.8h1.6
		l-0.1,0.5h-1.6L126,741.8z M128.8,743.5h2.1l-0.1,0.5H128l1.3-4.8h0.6L128.8,743.5z M133.4,740.6c0.2,0,0.4,0,0.5,0.1
		c0.2,0.1,0.3,0.2,0.4,0.3c0.1,0.1,0.1,0.3,0.2,0.5c0,0.2,0,0.4-0.1,0.6c0,0.1-0.1,0.2-0.1,0.2c0,0-0.1,0-0.1,0H132
		c-0.1,0.2-0.1,0.4-0.1,0.6c0,0.2,0,0.3,0.1,0.4c0.1,0.1,0.2,0.2,0.3,0.2c0.1,0.1,0.3,0.1,0.4,0.1c0.1,0,0.3,0,0.4-0.1
		c0.1,0,0.2-0.1,0.3-0.1c0.1,0,0.2-0.1,0.2-0.1c0.1,0,0.1-0.1,0.1-0.1c0,0,0.1,0,0.1,0.1l0.1,0.2c-0.1,0.1-0.2,0.2-0.3,0.2
		c-0.1,0.1-0.2,0.1-0.4,0.2c-0.1,0-0.3,0.1-0.4,0.1c-0.1,0-0.3,0-0.4,0c-0.2,0-0.4,0-0.6-0.1c-0.2-0.1-0.3-0.2-0.4-0.3
		c-0.1-0.2-0.2-0.3-0.2-0.6c0-0.2,0-0.5,0.1-0.8c0.1-0.2,0.2-0.5,0.3-0.7c0.1-0.2,0.3-0.4,0.5-0.5c0.2-0.1,0.4-0.3,0.6-0.4
		C133,740.6,133.2,740.6,133.4,740.6z M133.3,741c-0.3,0-0.5,0.1-0.7,0.2c-0.2,0.2-0.4,0.4-0.5,0.7h1.8c0-0.1,0.1-0.3,0-0.4
		c0-0.1,0-0.2-0.1-0.3c-0.1-0.1-0.1-0.1-0.2-0.2C133.6,741.1,133.5,741,133.3,741z M137.1,744h-0.3c-0.1,0-0.1,0-0.1,0
		c0,0,0-0.1,0-0.1l0-0.3c-0.1,0.1-0.2,0.2-0.3,0.2c-0.1,0.1-0.2,0.1-0.3,0.2c-0.1,0-0.2,0.1-0.3,0.1c-0.1,0-0.2,0-0.4,0
		c-0.1,0-0.2,0-0.4-0.1c-0.1,0-0.2-0.1-0.3-0.2c-0.1-0.1-0.1-0.2-0.1-0.3c0-0.1,0-0.2,0-0.4c0-0.1,0.1-0.3,0.2-0.4
		c0.1-0.1,0.3-0.2,0.4-0.3c0.2-0.1,0.4-0.2,0.7-0.2c0.3-0.1,0.6-0.1,1-0.1l0.1-0.3c0.1-0.3,0.1-0.5,0-0.6c-0.1-0.1-0.2-0.2-0.4-0.2
		c-0.1,0-0.3,0-0.4,0.1c-0.1,0-0.2,0.1-0.3,0.1c-0.1,0-0.2,0.1-0.2,0.1c-0.1,0-0.1,0.1-0.2,0.1c0,0-0.1,0-0.1,0c0,0,0,0-0.1-0.1
		l-0.1-0.2c0.2-0.2,0.5-0.3,0.7-0.4c0.2-0.1,0.5-0.1,0.8-0.1c0.2,0,0.3,0,0.5,0.1c0.1,0.1,0.2,0.1,0.3,0.3c0.1,0.1,0.1,0.2,0.1,0.4
		c0,0.2,0,0.3-0.1,0.5L137.1,744z M135.7,743.7c0.1,0,0.2,0,0.3,0s0.2-0.1,0.3-0.1c0.1,0,0.2-0.1,0.3-0.1c0.1-0.1,0.2-0.1,0.3-0.2
		l0.2-0.7c-0.3,0-0.5,0-0.7,0.1c-0.2,0-0.4,0.1-0.5,0.1c-0.1,0.1-0.2,0.1-0.3,0.2c-0.1,0.1-0.1,0.2-0.1,0.3c0,0.1,0,0.2,0,0.2
		c0,0.1,0,0.1,0.1,0.2c0,0,0.1,0.1,0.1,0.1C135.6,743.6,135.6,743.7,135.7,743.7z M138,744l0.9-3.4h0.3c0.1,0,0.1,0,0.1,0
		c0,0,0,0.1,0,0.1l-0.1,0.6c0.2-0.2,0.4-0.4,0.6-0.6c0.2-0.1,0.4-0.2,0.6-0.2c0.1,0,0.2,0,0.2,0c0.1,0,0.1,0.1,0.2,0.1l-0.2,0.4
		c0,0.1-0.1,0.1-0.1,0.1c0,0-0.1,0-0.1,0c-0.1,0-0.1,0-0.3,0c-0.2,0-0.4,0.1-0.6,0.2c-0.2,0.1-0.3,0.3-0.5,0.5l-0.6,2.1H138z
		 M140.7,744l0.9-3.4h0.4c0.1,0,0.1,0,0.1,0.1l-0.1,0.4c0.2-0.2,0.4-0.3,0.6-0.4c0.2-0.1,0.4-0.2,0.7-0.2c0.2,0,0.3,0,0.5,0.1
		c0.1,0.1,0.2,0.1,0.3,0.3c0.1,0.1,0.1,0.2,0.1,0.4c0,0.2,0,0.3-0.1,0.5l-0.6,2.1h-0.6l0.6-2.1c0.1-0.3,0.1-0.5,0-0.6
		c-0.1-0.1-0.2-0.2-0.5-0.2c-0.2,0-0.3,0-0.5,0.1c-0.2,0.1-0.3,0.2-0.5,0.3l-0.7,2.5H140.7z M146,740.7l-0.9,3.4h-0.6l0.9-3.4H146z
		 M146.4,739.6c0,0.1,0,0.1-0.1,0.2c0,0-0.1,0.1-0.1,0.1c0,0-0.1,0.1-0.2,0.1c-0.1,0-0.1,0-0.2,0c-0.1,0-0.1,0-0.2,0
		c0,0-0.1-0.1-0.1-0.1c0,0,0-0.1-0.1-0.1c0,0,0-0.1,0-0.2c0-0.1,0-0.1,0.1-0.2c0-0.1,0.1-0.1,0.1-0.1c0,0,0.1-0.1,0.2-0.1
		c0.1,0,0.1,0,0.2,0c0.1,0,0.1,0,0.2,0c0,0,0.1,0.1,0.1,0.1c0,0,0,0.1,0.1,0.1C146.4,739.5,146.4,739.5,146.4,739.6z M146.1,744
		l0.9-3.4h0.4c0.1,0,0.1,0,0.1,0.1l-0.1,0.4c0.2-0.2,0.4-0.3,0.6-0.4c0.2-0.1,0.4-0.2,0.7-0.2c0.2,0,0.3,0,0.5,0.1
		c0.1,0.1,0.2,0.1,0.3,0.3c0.1,0.1,0.1,0.2,0.1,0.4c0,0.2,0,0.3-0.1,0.5l-0.6,2.1h-0.6l0.6-2.1c0.1-0.3,0.1-0.5,0-0.6
		c-0.1-0.1-0.2-0.2-0.5-0.2c-0.2,0-0.3,0-0.5,0.1c-0.2,0.1-0.3,0.2-0.5,0.3l-0.7,2.5H146.1z M151.8,740.6c0.1,0,0.3,0,0.4,0
		c0.1,0,0.2,0.1,0.3,0.1h0.9l-0.1,0.2c0,0.1-0.1,0.1-0.2,0.1l-0.4,0.1c0,0.1,0,0.3,0,0.5c0,0.2-0.1,0.3-0.2,0.4
		c-0.1,0.1-0.2,0.2-0.4,0.3c-0.1,0.1-0.3,0.2-0.5,0.2c-0.2,0-0.3,0.1-0.5,0.1c-0.2,0-0.3,0-0.4-0.1c-0.1,0-0.1,0.1-0.2,0.1
		c-0.1,0.1-0.1,0.1-0.1,0.2c0,0.1,0,0.1,0,0.2c0.1,0,0.1,0.1,0.2,0.1c0.1,0,0.2,0,0.4,0c0.1,0,0.3,0,0.4,0c0.1,0,0.3,0,0.4,0
		c0.1,0,0.2,0.1,0.3,0.1c0.1,0.1,0.2,0.1,0.2,0.2c0,0.1,0,0.2,0,0.4c0,0.1-0.1,0.3-0.2,0.4c-0.1,0.1-0.2,0.3-0.4,0.4
		c-0.2,0.1-0.3,0.2-0.6,0.3c-0.2,0.1-0.4,0.1-0.7,0.1c-0.2,0-0.5,0-0.6-0.1c-0.2,0-0.3-0.1-0.4-0.2c-0.1-0.1-0.2-0.2-0.2-0.3
		c0-0.1,0-0.2,0-0.3c0-0.2,0.1-0.3,0.3-0.4c0.1-0.1,0.3-0.2,0.5-0.3c-0.1,0-0.1-0.1-0.2-0.2c0-0.1,0-0.2,0-0.3c0,0,0-0.1,0.1-0.2
		c0-0.1,0.1-0.1,0.1-0.2c0-0.1,0.1-0.1,0.2-0.1c0.1,0,0.1-0.1,0.2-0.1c-0.1-0.1-0.2-0.2-0.3-0.4c-0.1-0.2-0.1-0.3,0-0.5
		c0-0.2,0.1-0.3,0.2-0.4c0.1-0.1,0.2-0.3,0.4-0.3c0.1-0.1,0.3-0.2,0.5-0.2C151.5,740.6,151.7,740.6,151.8,740.6z M151.9,744.2
		c0-0.1,0-0.2,0-0.2c0-0.1-0.1-0.1-0.2-0.1c-0.1,0-0.2,0-0.3-0.1c-0.1,0-0.2,0-0.3,0c-0.1,0-0.2,0-0.4,0c-0.1,0-0.2,0-0.3,0
		c-0.1,0.1-0.3,0.1-0.4,0.2c-0.1,0.1-0.2,0.2-0.2,0.3c0,0.1,0,0.1,0,0.2c0,0.1,0.1,0.1,0.1,0.2c0.1,0,0.2,0.1,0.3,0.1
		c0.1,0,0.2,0,0.4,0c0.2,0,0.3,0,0.4,0c0.1,0,0.2-0.1,0.4-0.1c0.1-0.1,0.2-0.1,0.3-0.2C151.9,744.4,151.9,744.3,151.9,744.2z
		 M151.4,742.4c0.1,0,0.2,0,0.3,0c0.1,0,0.2-0.1,0.3-0.1c0.1-0.1,0.1-0.1,0.2-0.2c0.1-0.1,0.1-0.2,0.1-0.3c0.1-0.2,0-0.4-0.1-0.5
		c-0.1-0.1-0.3-0.2-0.5-0.2c-0.2,0-0.4,0.1-0.6,0.2c-0.2,0.1-0.3,0.3-0.3,0.5c0,0.1,0,0.2,0,0.3c0,0.1,0,0.2,0.1,0.2
		c0,0.1,0.1,0.1,0.2,0.1C151.2,742.4,151.2,742.4,151.4,742.4z M159.1,739.3l-0.1,0.5h-1.5l-1.1,4.2h-0.6l1.1-4.2h-1.5l0.1-0.5
		H159.1z M159.9,740.6c0.2,0,0.4,0,0.5,0.1c0.2,0.1,0.3,0.2,0.4,0.3c0.1,0.1,0.1,0.3,0.2,0.5c0,0.2,0,0.4-0.1,0.6
		c0,0.1,0,0.2-0.1,0.2c0,0-0.1,0-0.1,0h-2.2c-0.1,0.2-0.1,0.4-0.1,0.6c0,0.2,0,0.3,0.1,0.4c0.1,0.1,0.2,0.2,0.3,0.2
		c0.1,0.1,0.2,0.1,0.4,0.1c0.1,0,0.3,0,0.4-0.1c0.1,0,0.2-0.1,0.3-0.1c0.1,0,0.2-0.1,0.2-0.1c0.1,0,0.1-0.1,0.1-0.1
		c0,0,0.1,0,0.1,0.1l0.1,0.2c-0.1,0.1-0.2,0.2-0.3,0.2c-0.1,0.1-0.2,0.1-0.4,0.2c-0.1,0-0.3,0.1-0.4,0.1c-0.1,0-0.3,0-0.4,0
		c-0.2,0-0.4,0-0.6-0.1c-0.2-0.1-0.3-0.2-0.4-0.3c-0.1-0.2-0.2-0.3-0.2-0.6c0-0.2,0-0.5,0.1-0.8c0.1-0.2,0.2-0.5,0.3-0.7
		c0.1-0.2,0.3-0.4,0.5-0.5c0.2-0.1,0.4-0.3,0.6-0.4C159.5,740.6,159.7,740.6,159.9,740.6z M159.8,741c-0.3,0-0.5,0.1-0.7,0.2
		c-0.2,0.2-0.4,0.4-0.5,0.7h1.8c0-0.1,0-0.3,0-0.4c0-0.1,0-0.2-0.1-0.3c-0.1-0.1-0.1-0.1-0.2-0.2C160.1,741.1,160,741,159.8,741z
		 M163.6,744h-0.3c-0.1,0-0.1,0-0.1,0c0,0,0-0.1,0-0.1l0-0.3c-0.1,0.1-0.2,0.2-0.3,0.2c-0.1,0.1-0.2,0.1-0.3,0.2
		c-0.1,0-0.2,0.1-0.3,0.1c-0.1,0-0.2,0-0.4,0c-0.1,0-0.2,0-0.4-0.1c-0.1,0-0.2-0.1-0.3-0.2c-0.1-0.1-0.1-0.2-0.1-0.3
		c0-0.1,0-0.2,0-0.4c0-0.1,0.1-0.3,0.2-0.4c0.1-0.1,0.3-0.2,0.4-0.3c0.2-0.1,0.4-0.2,0.7-0.2c0.3-0.1,0.6-0.1,1-0.1l0.1-0.3
		c0.1-0.3,0.1-0.5,0-0.6c-0.1-0.1-0.2-0.2-0.4-0.2c-0.1,0-0.3,0-0.4,0.1c-0.1,0-0.2,0.1-0.3,0.1c-0.1,0-0.2,0.1-0.2,0.1
		c-0.1,0-0.1,0.1-0.2,0.1c0,0-0.1,0-0.1,0c0,0,0,0-0.1-0.1l-0.1-0.2c0.2-0.2,0.5-0.3,0.7-0.4c0.2-0.1,0.5-0.1,0.7-0.1
		c0.2,0,0.3,0,0.5,0.1c0.1,0.1,0.2,0.1,0.3,0.3c0.1,0.1,0.1,0.2,0.1,0.4c0,0.2,0,0.3-0.1,0.5L163.6,744z M162.2,743.7
		c0.1,0,0.2,0,0.3,0c0.1,0,0.2-0.1,0.3-0.1c0.1,0,0.2-0.1,0.3-0.1c0.1-0.1,0.2-0.1,0.3-0.2l0.2-0.7c-0.3,0-0.5,0-0.7,0.1
		c-0.2,0-0.4,0.1-0.5,0.1c-0.1,0.1-0.2,0.1-0.3,0.2c-0.1,0.1-0.1,0.2-0.2,0.3c0,0.1,0,0.2,0,0.2c0,0.1,0,0.1,0.1,0.2
		c0,0,0.1,0.1,0.1,0.1C162.1,743.6,162.1,743.7,162.2,743.7z M164.5,744l0.9-3.4h0.3c0.1,0,0.1,0,0.1,0.1l0,0.3
		c0.2-0.2,0.3-0.3,0.5-0.4c0.2-0.1,0.4-0.1,0.6-0.1c0.2,0,0.4,0.1,0.5,0.2c0.1,0.1,0.2,0.3,0.2,0.5c0.1-0.1,0.2-0.2,0.3-0.3
		c0.1-0.1,0.2-0.2,0.3-0.2c0.1-0.1,0.2-0.1,0.3-0.1c0.1,0,0.2,0,0.3,0c0.2,0,0.3,0,0.5,0.1c0.1,0.1,0.2,0.1,0.3,0.2
		c0.1,0.1,0.1,0.2,0.1,0.4c0,0.2,0,0.3-0.1,0.5l-0.6,2.1h-0.6l0.6-2.1c0.1-0.3,0.1-0.5,0-0.6c-0.1-0.1-0.2-0.2-0.4-0.2
		c-0.1,0-0.2,0-0.3,0.1c-0.1,0-0.2,0.1-0.3,0.2c-0.1,0.1-0.2,0.2-0.2,0.3c-0.1,0.1-0.1,0.2-0.2,0.4l-0.6,2.1h-0.6l0.6-2.1
		c0.1-0.3,0.1-0.5,0-0.6c-0.1-0.1-0.2-0.2-0.4-0.2c-0.1,0-0.3,0-0.4,0.1c-0.1,0.1-0.3,0.2-0.4,0.3l-0.7,2.5H164.5z"/>
</g>
<g>
	<g>
		<linearGradient id="SVGID_3_" gradientUnits="userSpaceOnUse" x1="759.4661" y1="142.1124" x2="959.6439" y2="142.1124">
			<stop  offset="0" style="stop-color:#FFFFFF;stop-opacity:0"/>
			<stop  offset="4.209470e-02" style="stop-color:#FDEAED;stop-opacity:4.245090e-02"/>
			<stop  offset="0.1274" style="stop-color:#FAC5CD;stop-opacity:0.1284"/>
			<stop  offset="0.2201" style="stop-color:#F7A6B1;stop-opacity:0.222"/>
			<stop  offset="0.3205" style="stop-color:#F58C9B;stop-opacity:0.3232"/>
			<stop  offset="0.4313" style="stop-color:#F37889;stop-opacity:0.4349"/>
			<stop  offset="0.5581" style="stop-color:#F26B7D;stop-opacity:0.5628"/>
			<stop  offset="0.7149" style="stop-color:#F16276;stop-opacity:0.7209"/>
			<stop  offset="0.9916" style="stop-color:#F16074"/>
		</linearGradient>
		<rect x="759.5" y="129.8" class="st8" width="200.2" height="24.7"/>
		<g>
			<path class="st6" d="M907.7,134.7c0.8,0,1.5-0.7,1.5-1.5c0-0.8-0.6-1.5-1.5-1.5c-0.8,0-1.5,0.7-1.5,1.5
				C906.2,134,906.8,134.7,907.7,134.7z"/>
			<path class="st6" d="M911.3,134.7c0.8,0,1.5-0.7,1.5-1.5c0-0.8-0.6-1.5-1.5-1.5c-0.8,0-1.5,0.7-1.5,1.5
				C909.9,134,910.5,134.7,911.3,134.7z"/>
			<path class="st6" d="M921.7,148.5c-0.8,0-1.5,0.7-1.5,1.5c0,0.8,0.6,1.5,1.5,1.5c0.8,0,1.5-0.7,1.5-1.5
				C923.2,149.1,922.5,148.5,921.7,148.5z"/>
			<path class="st6" d="M920.3,144.4h-3.8h-0.3h-1.8v-7.6c0,0-2-0.8-4.6-0.8c-4,0-5.8,2.6-5.8,5.5c0,3.1,1.6,5.1,5.9,5.1h6.4h0.3
				h6.7v-10.3h-2.9V144.4z M911.5,144.4h-1.4c-2.3,0-3.3-1.1-3.3-3.1c0-1.7,1-3,2.6-3c1.3,0,2.1,0.4,2.1,0.4V144.4z"/>
			<path class="st6" d="M918.1,148.5c-0.8,0-1.5,0.7-1.5,1.5c0,0.8,0.6,1.5,1.5,1.5c0.8,0,1.5-0.7,1.5-1.5
				C919.5,149.1,918.9,148.5,918.1,148.5z"/>
			<path class="st6" d="M949.7,135.5l-2.8,0.4c0.4,1.7,0.6,3.7,0.6,5.9c0,0.7-0.1,1.8-0.2,2.6h-0.8c-1.9,0-2.4-0.6-2.4-2.4v-5.2
				h-2.8v5.3c0,1.6-0.4,2.5-1.6,2.5c-1.3,0-1.7-0.9-1.7-2.6v-4.4h-2.9v4c0,2.2-0.5,2.8-2,2.8h-0.4h-0.3h-1.8v-8.1h-2.9v10.6
				c0,2.4-0.9,3.1-2.4,3.1c-0.7,0-1.3-0.1-1.8-0.3l-0.2,2.3c0.5,0.1,1.2,0.2,1.8,0.2c4.5,0,5.4-2.7,5.4-5.5v-0.1h1.8h0.3h0.4
				c1.6,0,2.5-0.6,2.9-1.6c0.4,1.1,1.5,1.8,3.1,1.8c1.4,0,2.7-0.6,3.2-1.8c0.5,1.2,1.6,1.6,3.6,1.6h4.1c0.2-1.6,0.3-3.5,0.3-5.1
				C950.4,139.4,950.1,137.2,949.7,135.5z"/>
		</g>
		<g>
			<path class="st1" d="M736.3,148.4c0,1-1.1,1.5-2.8,2.2l-4.9,1.9c-1.3,0.5-1.9,1.3-1.9,2.3c0,0.3,0.1,0.7,0.2,1.1l0.2-0.1
				c0-0.1,0-0.1,0-0.2c0-0.9,1.3-1.4,2.8-2l4.9-1.9c1.3-0.5,1.9-1.3,1.9-2.2c0-0.4-0.1-0.7-0.2-1.1L736.3,148.4z"/>
			<path class="st1" d="M764.8,96.9c1.7,0,3.1-1.4,3.1-3.1v-2c0-1.2,0-2.3,0.7-2.4v-0.2c-0.4,0-0.8,0.1-1.1,0.3h-2.8
				c-1.8,0-3.4,1.6-3.4,3.4v1.2C761.4,95.7,763,96.9,764.8,96.9z M762.6,92.9c0-1.3,1-2.3,2.5-2.3h2c-0.1,0.2-0.1,0.4-0.1,0.6v2.5
				c0,1.2-1,2.1-2.1,2.1c-1.3,0-2.3-0.8-2.3-1.7V92.9z"/>
			<path class="st1" d="M790.8,79.1c0,0.3,0.1,0.7,0.2,1l0.9,2.5c0.1,0.2,0.1,0.5,0.1,0.8c0,1-0.9,2.1-2.1,2.1
				c-0.9,0-1.8-0.7-2.3-1.7l-1.5-3.8l-1,0.4l1.6,4.2c0.1,0.2,0.1,0.5,0.1,0.7c0,1-0.8,2.2-2.1,2.2c-0.9,0-1.8-0.6-2.2-1.7l-1.5-3.8
				l-1.1,0.4l1.7,4.4c0.6,1.2,1.7,1.8,2.8,1.8c1.5,0,3.1-1,3.4-2.6c0.6,0.4,1.3,0.6,2,0.6c1.8,0,3.2-1.6,3.2-3.3
				c0-0.4-0.1-0.7-0.2-1.1l-0.8-2c-0.3-0.8-0.6-1.5-0.6-2c0-0.3,0.1-0.5,0.3-0.7l0-0.1C791.3,77.8,790.8,78.3,790.8,79.1z"/>
			<path class="st1" d="M782.4,78.1c1.9,0,4-1.1,5.2-3.5l1.5-2.5l0.9-1.6c0.5-0.8,0.9-1.7,1.4-1.7c0.1,0,0.2,0,0.2,0l0.1-0.1
				c-0.4-0.2-0.7-0.3-1-0.3l-2.2-1.2c-0.5-0.3-1-0.4-1.5-0.4c-1.1,0-2.3,0.6-2.8,1.6l-0.6,1c-0.2,0.4-0.3,0.8-0.3,1.1
				c0,1.3,1.3,3.1,3.1,3.1c0.2,0,0.4,0,0.6-0.1l-0.3,0.6c-1.3,2.4-3.2,3.4-4.9,3.4c-1.2,0-2.3-0.5-3-1.4l-0.1,0.1
				C779.6,77.5,781,78.1,782.4,78.1z M786.6,72.6c-1.3,0-2.1-1.2-2.1-2c0-0.2,0.1-0.4,0.2-0.6l0.5-1c0.4-0.7,1.1-1.1,1.9-1.1
				c0.4,0,0.8,0.1,1.2,0.3l1.4,0.8l-1.7,3.1C787.6,72.5,787.1,72.6,786.6,72.6z"/>
			<polygon class="st1" points="806.6,98.3 803.7,95.4 800.9,98.3 803.7,101.1 			"/>
			<path class="st1" d="M829,89.6V90c2.1,0.2,2.1,3.7,2.1,7.2v20c0,4.5-3.4,7.1-5.8,7.3h-4.7v-6.1c0-5.7-4-11.3-10.4-11.8h-6.7
				c-6.7,0-12.2,2.7-15.3,6.4l-0.1,0.1V97.3c0-3.6-2.1-5.1-5.2-5.2v0.3c1.9,0.2,1.9,3.1,1.9,6v23.6c0,0.9,0.1,1.9,0.3,2.4h-5.4
				c-4.8,0-6.6-1.3-7.3-4.4v-4.2c0-5.5-3.9-9.6-9.7-9.6h-2.5c-3.3,0-6.6,0-6.7-1.9h-0.3c0.1,1.4,0.5,2.7,1.2,3.5
				c0.7,0.9,1.5,1.6,4.2,1.6h4.2c2.6,0,4,0.9,4.8,2c0.8,1.1,1.2,1.7,1.6,5v8h-5.1V115h-3.6c-5.3,0-9.8,4.5-9.9,9.5h-3.3h-0.1h-8.8
				v-18h-3.3v21.2c0,11.5-6.9,18.9-15,18.9c-1.5,0-2.8-0.3-4.2-1l-0.3,0.6c2.1,0.8,4,1.2,5.9,1.2c4.7,0,8.6-1.8,11.7-5.4
				c3.6-3.8,5.1-8.5,5.1-14.3h8.8h0.1h25.1v-2.1c1.7,1.4,3.4,2,7.2,2.1v0h45.8v0c0.8,0,1.8-0.3,2.9-0.9c3.6-1.7,6-5.6,6-9.6V95.6
				C834.4,91.3,832.2,89.7,829,89.6z M760.9,124.5h-7c0-3.4,2.7-6.1,6.5-6.2h0.6V124.5z M817.3,124.5h-31.9c0-0.1-0.1-0.6-0.1-0.9
				c0-6.9,6-13.8,17.9-13.8h6.7c4.9,0.5,7.4,4.6,7.4,8.6V124.5z"/>
			<path class="st1" d="M839.8,89.8v0.4c1.7,0.3,2,1.8,2,7.5v30h3.3V96C845,92,843.3,89.9,839.8,89.8z"/>
			<path class="st1" d="M863.6,85.6c1.9,0,4-1.1,5.2-3.5l1.5-2.5l0.9-1.6c0.5-0.8,0.9-1.7,1.4-1.7c0.1,0,0.2,0,0.2,0l0.1-0.1
				c-0.4-0.2-0.7-0.3-1-0.3l-2.2-1.2c-0.5-0.3-1-0.4-1.5-0.4c-1.1,0-2.3,0.6-2.8,1.6l-0.6,1c-0.2,0.4-0.3,0.8-0.3,1.1
				c0,1.3,1.3,3.1,3.1,3.1c0.2,0,0.4,0,0.6-0.1l-0.3,0.6c-1.3,2.4-3.2,3.4-4.9,3.4c-1.2,0-2.3-0.5-3-1.4l-0.1,0.1
				C860.8,84.9,862.2,85.6,863.6,85.6z M867.8,80.1c-1.3,0-2.1-1.2-2.1-2c0-0.2,0.1-0.4,0.2-0.6l0.5-1c0.4-0.7,1.1-1.1,1.9-1.1
				c0.4,0,0.8,0.1,1.2,0.3l1.4,0.8l-1.7,3.1C868.8,79.9,868.3,80.1,867.8,80.1z"/>
			<path class="st1" d="M870,105.5c-5.5,0-10.3,4.8-10.3,10.3v3.6c0,4.8,4.7,8.3,10.2,8.3c5.1,0,9.4-4.2,9.4-9.3v-6
				c0-3.5,0-7,2.1-7.2v-0.5c-1.1,0.1-2.3,0.3-3.1,0.8H870z M876.1,110.8v7.6c0,3.4-2.9,6.1-6.2,6.1c-3.9,0-6.8-2.5-6.8-5.1v-3.6
				c0-3.8,3.1-7,7.4-7h5.8C876.1,109.4,876.1,109.9,876.1,110.8z"/>
			<polygon class="st1" points="869.1,98.4 872,101.3 874.9,98.4 872,95.6 			"/>
			<polygon class="st1" points="863.3,98.4 866.2,101.3 869.1,98.4 866.2,95.6 			"/>
			<path class="st1" d="M941.2,101.3c0-0.1,0-0.1,0-0.2c0-0.9,1.3-1.4,2.8-2l4.9-1.9c1.3-0.5,1.9-1.3,1.9-2.2c0-0.4-0.1-0.7-0.2-1.1
				l-0.2,0.1c0,1-1.1,1.5-2.8,2.2l-4.9,1.9c-1.3,0.5-1.9,1.3-1.9,2.3c0,0.3,0.1,0.7,0.2,1.1L941.2,101.3z"/>
			<path class="st1" d="M948.5,105.6h-6.9c-10.6,0-18.6,6.3-19.3,14.5c-0.7-2.6-2.2-5.2-4.4-7.3l-0.4,0.3c2.4,2.2,3.2,5.4,3.2,8.8
				c0,1.3-0.3,2.2-0.9,2.5h-2.7c-3.4-0.3-5.9-2.2-6.2-5.5V94.4c0-4.3-2.1-6-5.4-6.1v0.5c2,0.3,2.1,3.6,2.1,7.4v20.6
				c0,4.4-3,7.7-6.8,7.7H898v-14.9c0-4.3-2.1-6-5.5-6.2v0.5c2,0.3,2.2,3.8,2.2,7.5v13.1h-10.9v3.3h17.1c3.5,0,7-2.5,8-4.5
				c1.7,2.9,4.8,4.5,8.2,4.5v0h42.6V118C959.7,111.7,954.6,106.2,948.5,105.6z M956.4,124.5h-33.5v-1c0-8.3,7.6-14.5,18.8-14.5h3.4
				c2.9,0,4.8,0.4,6.2,0.9c3.4,1.7,5.1,4.4,5.1,8.1V124.5z"/>
		</g>
	</g>
</g>
<g>
	
		<radialGradient id="SVGID_4_" cx="242.6172" cy="251.8333" r="54.2731" fx="231.4768" fy="235.7897" gradientUnits="userSpaceOnUse">
		<stop  offset="0.1436" style="stop-color:#FFF75D"/>
		<stop  offset="0.5314" style="stop-color:#FFDE00"/>
		<stop  offset="0.9166" style="stop-color:#FF7D00"/>
	</radialGradient>
	<circle class="st9" cx="243.6" cy="254.4" r="48.7"/>
	<g>
		<path class="st10" d="M243.6,205.7c-26.9,0-48.7,21.8-48.7,48.7c0,26.9,21.8,48.7,48.7,48.7c26.9,0,48.7-21.8,48.7-48.7
			C292.4,227.5,270.5,205.7,243.6,205.7z M241.9,299.9c-25.1,0-45.5-20.4-45.5-45.5c0-25.1,20.4-45.5,45.5-45.5
			c25.1,0,45.5,20.4,45.5,45.5C287.4,279.5,267,299.9,241.9,299.9z"/>
		<path class="st10" d="M248.9,189.6c0,2.7-2,4.9-4.6,4.9l0,0c-2.5,0-4.6-2.2-4.6-4.9v-8.7c0-2.7,2-4.9,4.6-4.9l0,0
			c2.5,0,4.6,2.2,4.6,4.9V189.6z"/>
		<path class="st10" d="M248.9,322.8c0,2.7-2,4.9-4.6,4.9l0,0c-2.5,0-4.6-2.2-4.6-4.9v-8.7c0-2.7,2-4.9,4.6-4.9l0,0
			c2.5,0,4.6,2.2,4.6,4.9V322.8z"/>
		<path class="st10" d="M306.6,256.4c-2.7,0-4.9-2-4.9-4.6l0,0c0-2.5,2.2-4.6,4.9-4.6h8.7c2.7,0,4.9,2,4.9,4.6l0,0
			c0,2.5-2.2,4.6-4.9,4.6H306.6z"/>
		<path class="st10" d="M173.4,256.4c-2.7,0-4.9-2-4.9-4.6l0,0c0-2.5,2.2-4.6,4.9-4.6h8.7c2.7,0,4.9,2,4.9,4.6l0,0
			c0,2.5-2.2,4.6-4.9,4.6H173.4z"/>
		<path class="st10" d="M291.6,211c-1.9,1.9-4.9,2.1-6.7,0.3l0,0c-1.8-1.8-1.7-4.8,0.3-6.7l6.2-6.2c1.9-1.9,4.9-2.1,6.7-0.3l0,0
			c1.8,1.8,1.7,4.8-0.3,6.7L291.6,211z"/>
		<path class="st10" d="M197.4,305.2c-1.9,1.9-4.9,2.1-6.7,0.3l0,0c-1.8-1.8-1.7-4.8,0.3-6.7l6.2-6.2c1.9-1.9,4.9-2.1,6.7-0.3l0,0
			c1.8,1.8,1.7,4.8-0.3,6.7L197.4,305.2z"/>
		<path class="st10" d="M285.2,299.1c-1.9-1.9-2-4.9-0.3-6.7l0,0c1.8-1.8,4.8-1.7,6.7,0.3l6.2,6.2c1.9,1.9,2.1,4.9,0.3,6.7l0,0
			c-1.8,1.8-4.8,1.7-6.7-0.3L285.2,299.1z"/>
		<path class="st10" d="M191,204.9c-1.9-1.9-2-4.9-0.3-6.7l0,0c1.8-1.8,4.8-1.7,6.7,0.3l6.2,6.2c1.9,1.9,2.1,4.9,0.3,6.7l0,0
			c-1.8,1.8-4.8,1.7-6.7-0.3L191,204.9z"/>
	</g>
	<defs>
		<filter id="Adobe_OpacityMaskFilter" filterUnits="userSpaceOnUse" x="197.7" y="209.7" width="72.7" height="48.8">
			<feFlood  style="flood-color:white;flood-opacity:1" result="back"/>
			<feBlend  in="SourceGraphic" in2="back" mode="normal"/>
		</filter>
	</defs>
	<mask maskUnits="userSpaceOnUse" x="197.7" y="209.7" width="72.7" height="48.8" id="SVGID_5_">
		<g class="st11">
			<defs>
				<filter id="Adobe_OpacityMaskFilter_1_" filterUnits="userSpaceOnUse" x="197.7" y="209.7" width="72.7" height="48.8">
					<feFlood  style="flood-color:white;flood-opacity:1" result="back"/>
					<feBlend  in="SourceGraphic" in2="back" mode="normal"/>
				</filter>
			</defs>
			<mask maskUnits="userSpaceOnUse" x="197.7" y="209.7" width="72.7" height="48.8" id="SVGID_5_">
				<g class="st12">
				</g>
			</mask>
			
				<radialGradient id="SVGID_6_" cx="232.6571" cy="214.0994" r="50.6721" fx="249.8333" fy="187.9862" gradientUnits="userSpaceOnUse">
				<stop  offset="0.2627" style="stop-color:#FFFFFF"/>
				<stop  offset="0.7268" style="stop-color:#FFFFFF"/>
				<stop  offset="0.9716" style="stop-color:#000000"/>
			</radialGradient>
			<path class="st13" d="M212.4,220.4c9-9.2,32.2-15.4,48.6-6.2c16.4,9.2,11,26.7-15.4,25.7c-26.4-1-42.3,8.6-44.4,16.8
				C199.3,265,190.2,243.2,212.4,220.4z"/>
		</g>
	</mask>
	
		<radialGradient id="SVGID_7_" cx="232.6571" cy="214.0994" r="50.6721" fx="249.8333" fy="187.9862" gradientUnits="userSpaceOnUse">
		<stop  offset="0.2627" style="stop-color:#FFFFFF"/>
		<stop  offset="0.7268" style="stop-color:#FFF75D"/>
		<stop  offset="0.9716" style="stop-color:#FFDE00"/>
	</radialGradient>
	<path class="st14" d="M212.4,220.4c9-9.2,32.2-15.4,48.6-6.2c16.4,9.2,11,26.7-15.4,25.7c-26.4-1-42.3,8.6-44.4,16.8
		C199.3,265,190.2,243.2,212.4,220.4z"/>
</g>
</svg>
