<?xml version="1.0" encoding="utf-8"?>
<!-- Generator: Adobe Illustrator 21.1.0, SVG Export Plug-In . SVG Version: 6.00 Build 0)  -->
<svg version="1.1" id="Layer_1" xmlns="http://www.w3.org/2000/svg" xmlns:xlink="http://www.w3.org/1999/xlink" x="0px" y="0px"
	 viewBox="0 0 1024 768" style="enable-background:new 0 0 1024 768;" xml:space="preserve">
<style type="text/css">
	.st0{fill:url(#SVGID_1_);}
	.st1{fill:#622272;}
	.st2{fill:url(#SVGID_2_);}
	.st3{fill:url(#SVGID_3_);}
	.st4{fill:#C94876;}
	.st5{fill-rule:evenodd;clip-rule:evenodd;fill:#F6DFB4;}
	.st6{fill:#D1D3D4;}
	.st7{fill:#FFFFFF;}
	.st8{fill:#1D5A69;}
	.st9{fill:url(#SVGID_4_);}
	.st10{fill:url(#SVGID_5_);}
	.st11{fill:#FF8A00;}
	.st12{filter:url(#Adobe_OpacityMaskFilter);}
	.st13{filter:url(#Adobe_OpacityMaskFilter_1_);}
	.st14{mask:url(#SVGID_6_);fill:url(#SVGID_7_);}
	.st15{fill:url(#SVGID_8_);}
</style>
<g>
	<g>
		<g>
			<linearGradient id="SVGID_1_" gradientUnits="userSpaceOnUse" x1="245.1473" y1="139.1853" x2="245.1473" y2="722.1763">
				<stop  offset="0.3212" style="stop-color:#1C75BC"/>
				<stop  offset="0.3967" style="stop-color:#247BBF"/>
				<stop  offset="0.517" style="stop-color:#3C8AC7"/>
				<stop  offset="0.667" style="stop-color:#61A4D5"/>
				<stop  offset="0.839" style="stop-color:#95C7E8"/>
				<stop  offset="1" style="stop-color:#CCECFC"/>
			</linearGradient>
			<path class="st0" d="M395.4,267.9h-6.1c-1.8-28.2-25.9-59.6-71.7-93.4c-35-25.9-70.5-43.7-70.9-43.9c-1-0.5-2.2-0.5-3.1,0
				c-0.3,0.2-35.9,18-70.9,43.9c-45.7,33.8-69.8,65.2-71.7,93.4h-6.1c-1.9,0-3.5,1.6-3.5,3.5v360.2h307.5V271.4
				C398.9,269.5,397.3,267.9,395.4,267.9z"/>
		</g>
	</g>
</g>
<g>
	<path class="st1" d="M752.4,220.5c-0.8,0-1.5,0.7-1.5,1.5c0,0.8,0.7,1.5,1.5,1.5c0.8,0,1.5-0.7,1.5-1.5
		C753.9,221.2,753.2,220.5,752.4,220.5z"/>
	<path class="st1" d="M752.4,213c-0.8,0-1.5,0.7-1.5,1.5c0,0.8,0.7,1.5,1.5,1.5c0.8,0,1.5-0.7,1.5-1.5
		C753.9,213.7,753.2,213,752.4,213z"/>
	<polygon class="st1" points="772.7,203.3 766.9,204.4 766.9,205.6 772.7,204.5 	"/>
	<polygon class="st1" points="772.7,200.9 766.9,202 766.9,203.2 772.7,202.1 	"/>
	<path class="st1" d="M777.3,215.2l-1.5,1.2c0.8,1.8,1.5,3.5,1,4.7c-0.5,0.2-1.3,0.3-2.5,0.3h-0.7l0,0c0,0,0,0,0,0
		c-2,0-2.8-0.4-2.8-2.3V207l-0.1-0.1l-1.7,0.4V218c-0.2,0.4-0.5,0.7-0.7,1c-1-2-3.4-5.4-6.4-8.1l-0.2,0.1l-0.7,1.9
		c2.8,2.6,4.8,4.7,6.1,7.1c-1.6,1.1-3.6,1.5-5.9,1.6l-0.1,0.1l0.8,1.7c2.7,0,5.3-0.8,7.2-3c0.4,2.3,2,2.9,4.1,2.9c0,0,0,0,0,0l0,0
		h0.7c2.2,0,3.1-0.2,3.8-0.8c0.7-0.7,1.2-1.9,1.2-2.9c0-1-0.5-2.6-1.2-4.3H777.3z"/>
	<path class="st1" d="M776.9,211.4c-0.3-0.3-0.5-0.7-0.5-1.1c0-0.5,0.3-1,1-1c0.3,0,0.7,0.1,1.2,0.3l0.4-1.4
		c-0.6-0.2-1.3-0.4-1.8-0.4c-1.4,0-2.2,0.8-2.2,2.1c0,0.6,0.2,1.1,0.5,1.5c-0.4,0-0.8,0-1.2,0l0.1,1.4c2.1-0.1,3.7-0.2,5-0.4
		l-0.1-1.3C778.5,211.3,777.7,211.3,776.9,211.4z"/>
	<path class="st1" d="M791.3,212.3c-1.9,0-3.5,2.4-3.5,4.6c0,1.7,1,2.8,3.1,2.8c1,0,1.8-0.1,2.5-0.3c0,0.6-0.1,1.2-0.2,1.5
		c-0.7,0.3-2.2,0.5-6.8,0.5l0,0c0,0,0,0,0,0c-2,0-2.8-0.4-2.8-2.3V207l-0.1-0.1l-1.7,0.4v12c0,3.1,1.8,4,4.2,4c0,0,0,0,0,0l0,0
		c4.5,0,6.3-0.1,7.6-0.8c1.1-0.8,1.5-2.1,1.5-4.4C795,215.1,793.6,212.3,791.3,212.3z M791.3,217.9c-1.2,0-1.9-0.4-1.9-1.2
		c0-1.3,1-2.5,1.9-2.5c1.1,0,2.1,1.7,2.2,3.5C792.8,217.8,792.1,217.9,791.3,217.9z"/>
	<polygon class="st1" points="794.5,207.9 792.6,206.5 791.3,208.3 793.3,209.7 	"/>
	<polygon class="st1" points="791.1,207.9 789.2,206.5 788,208.3 789.9,209.7 	"/>
	<polygon class="st1" points="813.4,226.9 815.4,228.3 816.6,226.4 814.6,225.1 	"/>
	<path class="st1" d="M820.4,212.2l-0.5,2.4l0.1,0.1c3.1,2,5.6,3.8,5.6,5.7c-0.6,0.5-2.5,1-5,1h-1.8c-1.6,0-2.4-0.4-3-0.7
		c0.5-0.9,0.8-2.2,1.2-3.7l-0.2-0.1l-1.8,0.5c-0.5,2-0.8,3.1-1.2,3.6c-0.4,0.3-1.1,0.5-2,0.5h-0.5l0,0c0,0,0,0,0,0
		c-1.6,0-1.9-0.3-2.5-1.9c-0.2-0.6-0.8-2-1.4-3.7H807l-1.4,1.5c0.7,1.4,1.5,2.9,1.8,4c-0.5,1.9-2.2,3.7-6.8,4.6l-0.1,0.2l1,1.4
		c3.8-0.7,6.4-2.7,7.2-4.9c0.4,0.4,1.1,0.6,2,0.6h0.5c1.7,0,2.8-0.4,3.6-1.2c1,0.9,2.4,1.2,3.5,1.2v0h2.3c4.8,0,6.5-1.5,6.5-3.4
		c0-1.5-0.8-3.2-5.5-6.2l6.2-3.5l0.6-2.4l-0.2-0.1L820.4,212.2z"/>
	<polygon class="st1" points="832.5,207.3 832.5,223.3 832.7,223.4 834.4,223 834.4,207 834.3,206.9 	"/>
	<path class="st1" d="M833.3,204c-0.3-0.3-0.5-0.6-0.5-1c0-0.5,0.3-0.9,0.9-0.9c0.3,0,0.7,0.1,1.1,0.2l0.3-1.2
		c-0.6-0.2-1.2-0.3-1.7-0.3c-1.2,0-2,0.7-2,1.9c0,0.5,0.2,1,0.4,1.4c-0.4,0-0.7,0-1.1,0l0.1,1.3c1.9-0.1,3.4-0.2,4.6-0.3l-0.1-1.2
		C834.9,203.9,834.1,203.9,833.3,204z"/>
	<path class="st1" d="M841.1,215.5c-1.9,0-3.5,2.4-3.5,4.6c0,1.7,1,2.8,3.1,2.8c0.9,0,1.7-0.1,2.3-0.3c-0.7,2-3.1,3.1-6.5,3.3
		l-0.1,0.2l1,1.4c5.1-0.1,7.3-3.1,7.3-6.2C844.8,218.3,843.4,215.5,841.1,215.5z M841.1,221.1c-1.2,0-1.9-0.4-1.9-1.2
		c0-1.3,1-2.5,1.9-2.5c1.1,0,2.1,1.7,2.2,3.5C842.6,221,841.9,221.1,841.1,221.1z"/>
	<path class="st1" d="M861.9,218.2c0,1.9,1.2,2.3,3.1,2.9c1.6,0.5,2.1,0.9,1.9,1.6c-0.9,1.2-3.7,2.5-7,2.5c-3.9,0-5.1-1.5-5.1-3.8
		c0-0.6,0.1-1.3,0.2-2.2l-0.2-0.1l-1.5,0.5c-0.2,0.6-0.4,1.6-0.4,2.7c0,2.7,2.2,4.7,6.5,4.7c4.9,0,9.3-2.5,9.3-5.5
		c0-0.8-0.4-1.4-2.8-2.2c-1.7-0.6-2.7-0.9-2.7-1.5c0-1.1,1.5-2.9,3.4-2.9c0.7,0,1.5,0.2,2.1,0.5l0.1-0.1l0.3-1.7
		c-0.6-0.4-1.5-0.6-2.5-0.6C863.9,213,861.9,215.9,861.9,218.2z"/>
	<polygon class="st1" points="859.6,230.7 861.6,232.1 862.8,230.2 860.8,228.9 	"/>
	<polygon class="st1" points="856.2,230.7 858.1,232.1 859.3,230.2 857.4,228.9 	"/>
	<path class="st1" d="M882.1,223.3c2.2,0,3.1-0.2,3.8-0.8c0.7-0.7,1.2-1.9,1.2-2.9c0-1-0.5-2.6-1.2-4.3h-0.2l-1.5,1.2
		c0.8,1.8,1.5,3.5,1,4.7c-0.5,0.2-1.3,0.3-2.5,0.3h-0.7l0,0c0,0,0,0,0,0c-1.2,0-1.7-0.4-2.7-2.3c-0.3-0.7-2.1-4.5-2.8-6h-0.2
		l-1.4,1.5c1,1.7,2.8,5.2,3.2,6l0.1,0.1c-0.8,0.6-2.5,0.9-3.9,0.9c-0.6,0-1.8-0.1-2.6-0.2l-0.1,0.1l-0.3,1.8
		c0.9,0.2,2.3,0.3,2.8,0.3c2.4,0,4-0.5,4.9-1.4c0.7,1,1.4,1.3,2.5,1.3c0,0,0,0,0,0l0,0H882.1z"/>
	<polygon class="st1" points="885,226.9 886.9,228.3 888.2,226.4 886.2,225.1 	"/>
	<polygon class="st1" points="881.6,226.9 883.5,228.3 884.7,226.4 882.7,225.1 	"/>
	<path class="st1" d="M908.1,223.3L908.1,223.3L908.1,223.3c4.5,0,6.3-0.1,7.6-0.8c1.1-0.8,1.5-2.1,1.5-4.4c0-3-1.4-5.8-3.6-5.8
		c-1.9,0-3.5,2.4-3.5,4.6c0,1.7,1,2.8,3.1,2.8c1,0,1.8-0.1,2.5-0.3c0,0.6-0.1,1.2-0.2,1.5c-0.7,0.3-2.2,0.5-6.8,0.5l0,0c0,0,0,0,0,0
		c-2,0-4-0.5-5.4-1.2c1-0.8,2.1-1.6,3.2-2.6l0.6-1.8l-0.1-0.2c-1.3-0.9-2.9-1.2-4.5-1.2c-1.6,0-3.1,0.3-4.3,0.9l-0.8,2l0.1,0.2
		c1.4,0.8,2.4,1.7,3.3,2.7c-2.8,2-5.6,4.2-5.6,7.9c0,3.4,3,5.3,7.6,5.3c2.1,0,3.7-0.3,5-0.8l0.6-1.6l-0.2-0.1
		c-1.4,0.4-3.2,0.7-4.8,0.7c-3.9,0-6.3-1.3-6.3-3.8c0-2.6,1.9-4.1,4.9-6.4C903.4,222.5,905.6,223.3,908.1,223.3L908.1,223.3
		C908.1,223.3,908.1,223.3,908.1,223.3z M913.4,217.9c-1.2,0-1.9-0.4-1.9-1.2c0-1.3,1-2.5,1.9-2.5c1.1,0,2.1,1.7,2.2,3.5
		C915,217.8,914.3,217.9,913.4,217.9z M899.1,216.7c0.9-0.3,1.9-0.5,3.1-0.5c0.9,0,1.8,0.1,2.8,0.5c-0.8,0.9-1.9,1.7-3,2.5
		C900.9,218.1,900,217.2,899.1,216.7z"/>
	<polygon class="st1" points="915.1,207.9 913.1,206.5 911.9,208.3 913.9,209.7 	"/>
	<path class="st1" d="M922.5,215.8l-1.4,1.5c0.9,1.6,1.7,3.4,1.7,4.4c0,1.4-2.1,3.5-6.7,4.3l-0.1,0.2l1,1.4c3.3-0.6,5.8-2.2,6.7-3.9
		c0.4-0.8,0.6-1.7,0.6-2.4c0-1.4-0.7-3.5-1.7-5.4H922.5z"/>
	<polygon class="st1" points="927.4,207.3 927.4,223.3 927.5,223.4 929.2,223 929.3,207 929.1,206.9 	"/>
	<path class="st1" d="M930.4,203.8c-0.6,0.1-1.4,0.1-2.2,0.2c-0.3-0.3-0.5-0.6-0.5-1c0-0.5,0.3-0.9,0.9-0.9c0.3,0,0.7,0.1,1.1,0.2
		l0.3-1.2c-0.6-0.2-1.2-0.3-1.7-0.3c-1.2,0-2,0.7-2,1.9c0,0.5,0.2,1,0.4,1.4c-0.4,0-0.7,0-1.1,0l0.1,1.3c1.9-0.1,3.4-0.2,4.6-0.3
		L930.4,203.8z"/>
</g>
<g>
	<path class="st1" d="M704.6,419.2c-0.8,0-1.5,0.7-1.5,1.5c0,0.8,0.7,1.5,1.5,1.5c0.8,0,1.5-0.7,1.5-1.5
		C706.2,419.9,705.5,419.2,704.6,419.2z"/>
	<path class="st1" d="M704.6,411.8c-0.8,0-1.5,0.7-1.5,1.5c0,0.8,0.7,1.5,1.5,1.5c0.8,0,1.5-0.7,1.5-1.5
		C706.2,412.5,705.5,411.8,704.6,411.8z"/>
	<polygon class="st1" points="724.9,399.6 719.2,400.7 719.2,401.9 724.9,400.9 	"/>
	<polygon class="st1" points="724.9,402.1 719.2,403.2 719.2,404.4 724.9,403.3 	"/>
	<path class="st1" d="M729.1,410.2c-0.3-0.3-0.5-0.7-0.5-1.1c0-0.5,0.3-1,1-1c0.3,0,0.7,0.1,1.2,0.3l0.4-1.4
		c-0.6-0.2-1.3-0.4-1.8-0.4c-1.4,0-2.2,0.8-2.2,2.1c0,0.6,0.2,1.1,0.5,1.5c-0.4,0-0.8,0-1.2,0l0.1,1.4c2.1-0.1,3.7-0.2,5-0.4
		l-0.1-1.3C730.8,410,729.9,410.1,729.1,410.2z"/>
	<path class="st1" d="M729.5,414l-1.5,1.2c0.8,1.8,1.5,3.5,1,4.7c-0.5,0.2-1.3,0.3-2.5,0.3h-0.7l0,0c0,0,0,0,0,0
		c-2,0-2.8-0.4-2.8-2.3v-12.1l-0.1-0.1l-1.7,0.4v10.7c-0.2,0.4-0.5,0.7-0.7,1c-1-2-3.4-5.4-6.4-8.1l-0.2,0.1l-0.7,1.9
		c2.8,2.6,4.8,4.7,6.1,7.1c-1.6,1.1-3.6,1.5-5.9,1.6l-0.1,0.1l0.8,1.7c2.7,0,5.3-0.8,7.2-3c0.4,2.3,2,2.9,4.1,2.9c0,0,0,0,0,0l0,0
		h0.7c2.2,0,3.1-0.2,3.8-0.8c0.7-0.7,1.2-1.9,1.2-2.9c0-1-0.5-2.6-1.2-4.3H729.5z"/>
	<path class="st1" d="M743.6,411.1c-1.9,0-3.5,2.4-3.5,4.6c0,1.7,1,2.8,3.1,2.8c1,0,1.8-0.1,2.5-0.3c0,0.6-0.1,1.2-0.2,1.5
		c-0.7,0.3-2.2,0.5-6.8,0.5l0,0c0,0,0,0,0,0c-2,0-2.8-0.4-2.8-2.3v-12.1l-0.1-0.1l-1.7,0.4v12c0,3.1,1.8,4,4.2,4c0,0,0,0,0,0l0,0
		c4.5,0,6.3-0.1,7.6-0.8c1.1-0.8,1.5-2.1,1.5-4.4C747.2,413.9,745.8,411.1,743.6,411.1z M743.5,416.6c-1.2,0-1.9-0.4-1.9-1.2
		c0-1.3,1-2.5,1.9-2.5c1.1,0,2.1,1.7,2.2,3.5C745,416.6,744.3,416.6,743.5,416.6z"/>
	<polygon class="st1" points="746.7,406.6 744.8,405.3 743.6,407.1 745.5,408.5 	"/>
	<polygon class="st1" points="743.4,406.6 741.4,405.3 740.2,407.1 742.2,408.5 	"/>
	<path class="st1" d="M768.8,419.7c1.6-0.9,2.2-2.3,2.2-4v-10l-0.2,0l-1.7,0.4v9.8c0,0.9-0.1,1.5-0.2,1.9c-0.9,0.6-2,0.8-3,1l0,0
		l-0.6,1.7c3.5,0.9,3.9,1.5,3.9,2c-0.4,1.2-3.2,2.1-6.9,2.1c-3.9,0-5.1-1.5-5.1-3.8c0-0.6,0.1-1.3,0.3-2.2l-0.2-0.1l-1.5,0.5
		c-0.2,0.6-0.4,1.6-0.4,2.7c0,2.7,2.2,4.7,6.5,4.7c5.2,0,8.8-1.6,9.2-4.5C771.2,421.1,770.7,420.5,768.8,419.7z"/>
	<path class="st1" d="M777.8,414.3c-1.9,0-3.5,2.4-3.5,4.6c0,1.7,1,2.8,3.1,2.8c0.9,0,1.7-0.1,2.3-0.3c-0.7,2-3.1,3.1-6.5,3.3
		l-0.1,0.2l1,1.4c5.1-0.1,7.3-3.1,7.3-6.2C781.4,417.1,780,414.3,777.8,414.3z M777.7,419.8c-1.2,0-1.9-0.4-1.9-1.2
		c0-1.3,1-2.5,1.9-2.5c1.1,0,2.1,1.7,2.2,3.5C779.2,419.8,778.5,419.8,777.7,419.8z"/>
	<path class="st1" d="M787.3,405.9c-0.6,0.1-1.4,0.1-2.2,0.2c-0.3-0.3-0.5-0.6-0.5-1c0-0.5,0.3-0.9,0.9-0.9c0.3,0,0.7,0.1,1.1,0.2
		l0.3-1.2c-0.6-0.2-1.2-0.3-1.7-0.3c-1.2,0-2,0.7-2,1.9c0,0.5,0.2,1,0.4,1.4c-0.4,0-0.7,0-1.1,0l0.1,1.3c1.9-0.1,3.4-0.2,4.6-0.3
		L787.3,405.9z"/>
	<path class="st1" d="M792.1,405.7l-0.2,0l-1.7,0.9c0.2,0.7,0.7,3,0.7,4.9c0,1.1-0.2,2.1-0.6,3c-1.3-1.5-3.2-3.1-5.4-4.9l-0.1,0.1
		l-0.7,1.9c1.7,1.2,3.9,2.8,5.5,4.5c-1.2,1.8-2.9,3.1-4.3,4.2l-0.1,1.8h3.2c3.2,0,4.4-0.9,4.4-3c0-1-0.5-2.1-1.2-3.2
		c0.7-1.4,1.3-3,1.3-5C792.7,409.3,792.3,406.8,792.1,405.7z M788.4,420.2h-0.9c0.8-0.6,2-1.5,3-2.9c0.6,0.8,0.9,1.6,0.9,2.3
		C790.9,420,790.2,420.2,788.4,420.2z"/>
	<polygon class="st1" points="795.9,406.1 795.9,422.1 796.1,422.2 797.8,421.8 797.8,405.7 797.7,405.6 	"/>
	<polygon class="st1" points="813.4,407.2 811.4,405.9 810.2,407.7 812.2,409.1 	"/>
	<polygon class="st1" points="810,407.2 808.1,405.9 806.9,407.7 808.8,409.1 	"/>
	<path class="st1" d="M832,412.4l6.2-3.5l0.6-2.4l-0.2-0.1l-7.9,4.5l-0.5,2.4l0.1,0.1c3.1,2,5.6,3.8,5.6,5.7c-0.6,0.5-2.5,1-5,1
		h-1.8c-1.8,0-3.8-0.4-5.1-1.1c1.2-1,2.2-2.1,3.1-2.8l0.5-1.8l-0.1-0.2c-1.3-0.9-3-1.2-4.6-1.2c-1.6,0-3.1,0.3-4.3,0.9l-0.9,2
		l0.1,0.2c1.4,0.7,2.4,1.6,3.3,2.7c-1.5,0.8-3.2,1.2-5.2,1.2c-1.9,0-2.8-0.2-2.8-2.1v-7.4l-0.2,0l-1.7,0.8v1.2
		c-3.6,1.1-5.5,3.3-5.5,5.1c0,1.6,1.5,2.7,4,2.7c0.6,0,1.2-0.1,1.8-0.2c0.6,1.5,2,1.9,3.9,1.9c0,0,0,0,0,0l0,0c3.1,0,5.3-0.8,7-1.9
		c1.6,1.2,3.8,1.9,6.1,1.9c0,0,0,0,0,0l0,0h2.3c4.8,0,6.5-1.5,6.5-3.4C837.5,417.1,836.7,415.4,832,412.4z M811.3,418.1v0.2
		c-0.5,0.1-0.9,0.1-1.4,0.1c-1,0-2.3-0.4-2.6-1.2c0.3-1,1.8-2.1,4-2.8V418.1z M819.7,415.5c0.9-0.3,2-0.5,3.1-0.5
		c0.9,0,1.8,0.1,2.8,0.5c-1,1-1.9,1.9-2.9,2.6C821.6,416.9,820.6,415.9,819.7,415.5z"/>
	<path class="st1" d="M857.2,406.1v11.7c0,0.9-0.1,1.5-0.2,1.9c-0.6,0.4-1.5,0.5-2.3,0.5l0,0c0,0,0,0,0,0c-1.6,0-2.7-0.2-2.7-2.6
		v-11.8l-0.2-0.1l-1.7,0.4v11.7c0,0.9-0.1,1.5-0.2,1.9c-0.6,0.4-1.5,0.5-2.3,0.5l0,0c0,0,0,0,0,0c-1.6,0-1.9-0.3-2.5-1.9
		c-0.2-0.6-0.8-2-1.4-3.7h-0.2l-1.4,1.5c0.7,1.4,1.5,2.9,1.8,4c-0.5,1.9-2.2,3.7-6.8,4.6l-0.1,0.2l1,1.4c3.8-0.7,6.4-2.7,7.2-4.9
		c0.4,0.4,1.1,0.6,2,0.6c1.8,0,3.1-0.3,4-1.4c0.7,1.2,2.1,1.4,3,1.4v0c0,0,0,0,0,0c0,0,0,0,0,0s0,0,0,0c3,0,4.8-0.9,4.8-4.4v-11.9
		l-0.2-0.1L857.2,406.1z"/>
	<path class="st1" d="M883.5,412.4l6.2-3.5l0.6-2.4l-0.2-0.1l-7.9,4.5l-0.5,2.4l0.1,0.1c3.1,2,5.6,3.8,5.6,5.7c-0.6,0.5-2.5,1-5,1
		h-1.8c-2,0-4-0.5-5.4-1.2c1-0.8,2.1-1.6,3.2-2.6l0.6-1.8l-0.1-0.2c-1.3-0.9-2.9-1.2-4.5-1.2c-1.6,0-3.1,0.3-4.3,0.9l-0.8,2l0.1,0.2
		c1.4,0.8,2.4,1.7,3.3,2.7c-2.8,2-5.6,4.2-5.6,7.9c0,3.4,3,5.3,7.6,5.3c2.1,0,3.7-0.3,5-0.8l0.6-1.6l-0.2-0.1
		c-1.4,0.4-3.2,0.7-4.8,0.7c-3.9,0-6.3-1.3-6.3-3.8c0-2.6,1.9-4.1,4.9-6.4c1.6,1.2,3.8,2,6.3,2v0h2.3c4.8,0,6.5-1.5,6.5-3.4
		C889,417.1,888.2,415.4,883.5,412.4z M871.2,415.5c0.9-0.3,1.9-0.5,3.1-0.5c0.9,0,1.8,0.1,2.8,0.5c-0.8,0.9-1.9,1.7-3,2.5
		C873,416.9,872.1,416,871.2,415.5z"/>
	<path class="st1" d="M895.1,414.5l-1.4,1.5c0.9,1.6,1.7,3.4,1.7,4.4c0,1.4-2.1,3.5-6.7,4.3l-0.1,0.2l1,1.4c3.3-0.6,5.8-2.2,6.7-3.9
		c0.4-0.8,0.6-1.7,0.6-2.4c0-1.4-0.7-3.5-1.7-5.4H895.1z"/>
	<path class="st1" d="M900.8,402.8c-0.3-0.3-0.5-0.6-0.5-1c0-0.5,0.3-0.9,0.9-0.9c0.3,0,0.7,0.1,1.1,0.2l0.3-1.2
		c-0.6-0.2-1.2-0.3-1.7-0.3c-1.2,0-2,0.7-2,1.9c0,0.5,0.2,1,0.4,1.4c-0.4,0-0.7,0-1.1,0l0.1,1.3c1.9-0.1,3.4-0.2,4.6-0.3l-0.1-1.2
		C902.3,402.6,901.6,402.7,900.8,402.8z"/>
	<polygon class="st1" points="900,406.1 900,422.1 900.1,422.2 901.8,421.8 901.9,405.7 901.7,405.6 	"/>
	<polygon class="st1" points="926.5,409.4 924.6,408.1 923.4,409.9 925.4,411.3 	"/>
	<polygon class="st1" points="928,406.7 926.1,405.4 924.8,407.2 926.8,408.6 	"/>
	<path class="st1" d="M927.2,414l-1.5,1.2c0.8,1.8,1.5,3.5,1,4.7c-0.5,0.2-1.3,0.3-2.5,0.3h-0.7l0,0c0,0,0,0,0,0
		c-1.5,0-1.9-0.3-2.8-2.1c-1.4-2.9-2.1-3.7-3.5-3.7c-1.4,0-3.6,1.4-5.2,3.4c-1.2,1.4-1.6,2.5-1.6,4.5c0,1.4,0.3,4.2,0.9,8.4l0.2,0.1
		l1.6-0.8c-0.7-4.8-1.1-9.1-0.8-10.2c0.2-0.3,0.5-0.7,0.8-1c1.9,2.4,3.7,3.5,5.4,3.5c0.7,0,1.3-0.4,1.9-1.2c0.7,0.6,1.5,0.9,2.5,0.9
		c0,0,0,0,0,0l0,0h0.7c2.2,0,3.1-0.2,3.8-0.8c0.7-0.7,1.2-1.9,1.2-2.9c0-1-0.5-2.6-1.2-4.3H927.2z M918.2,420.5
		c-1,0-2.4-1.1-3.9-2.9c1-0.8,2.1-1.4,2.6-1.4c0.6,0,1.3,0.9,2.4,3.3c0,0.1,0.1,0.2,0.2,0.3C919.1,420.2,918.6,420.5,918.2,420.5z"
		/>
	<polygon class="st1" points="928,408.1 926.8,409.9 928.7,411.3 930,409.4 	"/>
</g>
<linearGradient id="SVGID_2_" gradientUnits="userSpaceOnUse" x1="505.422" y1="325.1375" x2="1023.962" y2="325.1375">
	<stop  offset="0.1199" style="stop-color:#FFFFFF"/>
	<stop  offset="0.9969" style="stop-color:#FEF1D4"/>
</linearGradient>
<rect x="505.4" y="286.6" class="st2" width="518.5" height="77"/>
<linearGradient id="SVGID_3_" gradientUnits="userSpaceOnUse" x1="505.422" y1="540.6418" x2="1023.962" y2="540.6418">
	<stop  offset="0.1199" style="stop-color:#FFFFFF"/>
	<stop  offset="0.9969" style="stop-color:#FEF1D4"/>
</linearGradient>
<rect x="505.4" y="471.6" class="st3" width="518.5" height="138"/>
<g>
	<path class="st4" d="M812.2,328.6c-2.1,2.6-3.6,5.2-3.6,7.9c0,2.2,1.1,3.5,2.9,3.5c1.8,0,2.8-1.5,2.8-2.8c0-2.2-1.8-1.9-1.8-3.4
		c0-1,0.9-2.4,1.9-3.9L812.2,328.6z"/>
	<polygon class="st4" points="840.3,345.9 844.1,348.6 846.5,345 842.7,342.4 	"/>
	<path class="st4" d="M852.2,322.4l-1,5l0.2,0.3c3.5,2.2,7.7,5,7.7,6.7c-1,0.5-3.8,0.9-6.7,0.9h-2.3v0c0,0,0,0,0,0
		c-1.7,0-3.1-0.3-4.1-0.7c0.7-1.6,1.2-3.5,1.7-5.7l-0.4-0.3l-4.6,1.1c-0.4,2.4-0.9,4.1-1.2,5c-0.5,0.3-1.5,0.5-2.8,0.5H838l0,0
		c0,0,0,0,0,0c-2.4,0-3.2-0.4-4.2-3.2l-1.5-4.4h-0.4l-3.2,3.7c0.9,1.9,1.9,4,2.7,5.7c-1.2,2.2-4.5,4.6-10.1,5.6l-0.3,0.4l2.4,3.3
		c5.3-0.9,9.5-3.5,10.8-7.1c0.8,0.3,1.7,0.5,2.9,0.5c0,0,0,0,0,0l0,0h0.7c2.6,0,4.4-0.6,5.8-1.7c1.4,1.1,3.8,1.7,5.6,1.7
		c0,0,0,0,0,0v0h3.6c7.5,0,10.1-2.6,10.1-6.2c0-2-1-4.2-6.9-8.1l7.6-3.8l1.5-5.4l-0.3-0.2L852.2,322.4z"/>
	<polygon class="st4" points="871,315.9 871,339.8 871.3,340 875.5,339.1 875.6,315 875.2,314.8 	"/>
	<path class="st4" d="M873.7,310.3c-0.5-0.4-0.7-0.9-0.7-1.5c0-0.7,0.4-1.2,1.2-1.2c0.4,0,0.9,0.1,1.5,0.3l0.6-2.3
		c-0.9-0.4-1.9-0.6-2.7-0.6c-2.1,0-3.2,1.3-3.2,3.1c0,0.8,0.3,1.6,0.8,2.3c-0.6,0-1.2,0-1.7,0l0.3,2.6c2.8-0.1,5.3-0.3,7-0.5
		l-0.2-2.5C875.9,310.2,874.8,310.3,873.7,310.3z"/>
	<path class="st4" d="M906.1,316.6c1,0,1.8-0.3,2.4-0.9c0.4,0.5,1.2,0.9,2.1,0.9c2.3,0,3.5-1.6,3.5-3.7c0-1.1-0.3-2-0.5-2.8
		l-2.5,0.6c0.2,0.6,0.4,1.3,0.4,2.1c0,0.8-0.2,1.3-0.9,1.3c-0.6,0-1-0.3-1-1.2c0-0.3,0-0.8,0-1.5l-2.3,0.2c0,2.1-0.3,2.6-1,2.6
		c-0.6,0-0.9-0.4-0.9-1.3c0-0.4,0-1,0.1-1.5l-2.4,0.1c-0.2,0.6-0.3,1.7-0.3,2.1C902.8,315.1,903.6,316.6,906.1,316.6z"/>
	<rect x="906.7" y="304.7" class="st4" width="3.2" height="4.6"/>
	<path class="st4" d="M916.8,315.9v16.2c0,1.3-0.1,2.1-0.3,2.7c-0.7,0.3-1.7,0.5-2.7,0.5c-2.5,0-3.3-0.5-3.3-3.2V319l-0.3-0.2
		l-4.2,1.1v12.3c0,1.3-0.1,2.1-0.3,2.7c-0.7,0.3-1.7,0.5-2.7,0.5c-2.6,0-3.2-0.6-3.2-2.5V322l-0.3-0.1l-4.2,1.6v1.7
		c-5.7,1.9-8.6,5.2-8.6,8.2c0,2.8,2.4,4.6,6.4,4.6c1.2,0,2.2-0.2,3.3-0.6c1.1,1.6,3,2.3,5.4,2.4h0.2c0,0,0.1,0,0.1,0h0.2
		c3.2,0,4.9-0.6,6.1-2.1c1.1,1.5,2.8,2,4.1,2.1h0.3c0,0,0.1,0,0.1,0h0.3c5-0.1,7.9-1.8,7.9-7.8V315l-0.3-0.2L916.8,315.9z
		 M895.3,332.8v0.7c-0.5,0.1-1.1,0.1-1.8,0.1c-1.3,0-2.8-0.5-3.2-1.5c0.4-1.1,2.5-2.2,5-2.8V332.8z"/>
	<polygon class="st4" points="929.7,314.8 925.5,315.9 925.5,339.8 925.8,340 930,339.1 930.1,315 	"/>
</g>
<g>
	<polygon class="st4" points="688.6,533.2 697.2,531.5 697.2,528.8 688.6,530.5 	"/>
	<polygon class="st4" points="706.8,529.6 703.3,527.2 701,530.6 704.7,533.2 706.3,530.7 709.8,533.2 712.1,529.7 708.4,527.2 	"/>
	<polygon class="st4" points="731.1,504.1 727.3,501.5 724.9,505 728.7,507.7 	"/>
	<path class="st4" d="M760.9,500.7v16.2c0,1.3-0.1,2.1-0.3,2.7c-0.7,0.4-1.9,0.5-2.9,0.5l0,0c0,0,0,0,0,0c-2.9,0-5.4-0.1-7.3-0.7
		c1.4-1.2,2.7-2.5,4.2-3.7l1-3.8l-0.1-0.4c-2.1-1.3-4.9-1.8-7.6-1.8c-2.7,0-5.3,0.6-7.3,1.5l-1.4,4l0.1,0.4c1.7,0.8,3.3,2.1,4.8,3.6
		c-2,0.7-4.2,1-7,1l0,0c0,0,0,0,0,0c-1.4,0-2.6-0.2-3.5-0.5c0.2-0.6,0.4-1.4,0.4-2.1c0-2.9-2-6.3-5.5-6.3c-2.1,0-4.3,1.3-7.2,3.7
		l0.1-14.9l-0.4-0.2l-4.1,1.1v18c-0.4,0.4-0.9,0.8-1.4,1.3H714c-2.4,0-4-0.3-5.1-0.7c0.7-1.6,1.2-3.5,1.7-5.6l-0.4-0.3l-4.6,1.1
		c-0.4,2.4-0.9,4.1-1.3,5c-0.4,0.3-1.6,0.5-2.5,0.5H701l0,0c0,0,0,0,0,0c-2.3,0-2.7-0.6-4-2.9c-1.7-3.3-2.8-5.4-5.4-5.4
		c-2.4,0-5.7,2.5-8,5.2c-1.7,2.1-2.5,4.4-2.5,7.7c0,2.2,0.8,8,1.7,12.6l0.3,0.2l3.8-1.8c-0.9-4.8-1.9-11.7-1.7-14.1l0.6-0.9
		c2.8,3,5.2,4.3,7.3,4.3c1.3,0,2.3-0.7,3.1-1.8c1,1,2.2,1.3,3.7,1.3c0,0,0,0,0,0l0,0h1.2c2.3,0,4-0.6,5.3-1.7
		c1.4,1.1,3.8,1.7,6.5,1.7l0,0h8.8c4.6,0,7.1-0.2,9.1-1.5c1.5,1,3.6,1.5,5.3,1.5c0,0,0,0,0,0l0,0c5,0,8.2-1.1,10.8-2.6
		c2.4,1.7,5.7,2.6,9.8,2.6c0,0,0,0,0,0l0,0c5.4,0,8.6-1.5,8.6-7.8v-16.9l-0.3-0.2L760.9,500.7z M692.8,520.8c-1.2,0-2.8-1-4.5-2.8
		c1.1-1.1,2.2-1.9,3-1.9c0.9,0,1.7,1.2,3,3.9c0,0.1,0.1,0.1,0.1,0.2C693.9,520.5,693.4,520.8,692.8,520.8z M730,519.6
		c-0.9,0.4-2.3,0.5-7.3,0.5H720c3.5-3,6.2-4.7,7.9-4.7c1.5,0,2.4,1.6,2.4,2.8C730.4,518.8,730.2,519.3,730,519.6z M747.3,517.5
		c-1.2-1.3-2.3-2.4-3.5-3.2c1.1-0.3,2.2-0.5,3.5-0.5c1.1,0,2.3,0.2,3.5,0.5C749.6,515.6,748.4,516.7,747.3,517.5z"/>
	<polygon class="st4" points="769.8,500.7 769.8,524.6 770,524.8 774.2,523.9 774.3,499.8 773.9,499.6 	"/>
	<path class="st4" d="M811.2,523.5c0-1.6-0.9-2.9-3.8-4.1c1.5-1.1,2-2.4,2-4.1c0-1.6-0.8-3.9-2-6.7h-0.5l-3.6,2.9
		c1,1.9,1.7,3.5,2,5.3c-0.5,0.4-1.5,0.8-2.7,1.2l0,0c0,0,0,0,0,0l-1.3,3.9c5,1.1,5.9,2.1,5.9,2.8c-1.2,1.3-5.4,2.1-9.6,2.1
		c-5.7,0-7.3-2-7.3-5.1c0-0.8,0.1-1.6,0.4-3.1l-0.4-0.2l-3.7,1.3c-0.3,1.3-0.6,2.8-0.6,4.1c0,4.3,3.5,7.6,10.9,7.6
		C804.7,531.2,811,528.3,811.2,523.5z"/>
	<polygon class="st4" points="797.3,536.3 793.7,533.9 791.4,537.3 795.1,539.9 796.8,537.4 800.2,539.9 802.5,536.4 798.9,533.9 	
		"/>
	<polygon class="st4" points="805.1,534.6 808.9,537.3 811.3,533.7 807.5,531.1 	"/>
	<path class="st4" d="M820.8,512.5l-3.2,3.6c1.3,2.2,2.5,5,2.6,6.2c0,1.2-3.2,3.3-7.7,4.6l-0.3,0.4l2.2,3.3c4-1,6.6-3,7.9-4.9
		c0.7-1.1,1.3-2.8,1.3-4.6c0-2.2-0.8-5.7-2.4-8.6H820.8z"/>
	<path class="st4" d="M852.7,513.7l-3.9,2.8c1.8,3.8,2.4,6,2.1,7.8c-1.1,1.5-3.5,2.5-6.2,2.5c-3.7,0-5.6-1.7-5.6-5.1
		c0-1.2,0.1-2.5,0.3-3.4l-0.4-0.1l-3.2,1.2c-0.4,1-0.7,3.2-0.7,4.4c0,4.6,3.3,7.5,8.7,7.5c6.7,0,11.1-3.9,11.1-9.8
		c0-2-0.9-5.3-1.9-7.8H852.7z"/>
	<polygon class="st4" points="847.1,509.5 843.3,506.9 840.9,510.4 844.7,513.1 	"/>
	<polygon class="st4" points="892,530.7 895.9,533.4 898.3,529.8 894.5,527.2 	"/>
	<path class="st4" d="M927.4,510.8l-0.2,0l-3.9,2.9c0.9,1.9,2,4.6,1.8,6c-0.8,0.3-2,0.5-3.2,0.5c-0.9,0-1.8-0.1-2.7-0.4
		c0.5-1.3,1-2.9,1.6-4.7l-0.1-0.1l-4.5,0.8c-0.4,1.7-0.8,3.7-1.1,4.1c-0.3,0.2-0.7,0.3-1.3,0.3c-1.2,0-2.6-0.3-3.6-0.6
		c0.5-1.2,1-2.7,1.6-4.5l-0.1-0.1l-4.9,0.8c-0.2,1.5-0.6,3.4-0.9,4c-0.6,0.3-1.6,0.4-4,0.4v0c0,0,0,0,0,0c-1.7,0-3.1-0.3-4.1-0.7
		c0.7-1.6,1.2-3.5,1.7-5.7l-0.4-0.3l-4.6,1.1c-0.4,2.4-0.9,4.1-1.2,5c-0.5,0.3-1.5,0.5-2.8,0.5h-0.6c-3.5,0-5.3-0.2-6.5-0.9
		c1.2-0.3,2.1-0.4,3.1-0.5l0.8-4c-2.5,0-4.8-0.6-8.6-2.3c-2.8-1.3-4.3-1.7-5.5-1.7c-1.2,0-2.4,0.4-3.3,0.8l-1.6,4l0.2,0.1
		c1.2-0.4,2.5-0.7,4.1-0.7c1.5,0,3.1,0.4,6,1.8c0.5,0.2,0.9,0.4,1.2,0.5c-0.8,0.3-1.7,0.5-2.8,1c-4.1,1.5-6.3,1.9-9.9,1.9
		c-2.6,0-3.6-0.7-3.6-3.2v-17.1l-0.4-0.2l-4.1,1.1v16.5c0,5.2,2.4,7.3,7.1,7.3c4,0,7.2-0.8,12.2-3.3l1.3-0.6c1.4,2.5,3.4,4,9.3,4
		l0,0h0.7c2.6,0,4.4-0.6,5.8-1.7c1.4,1.1,3.8,1.7,5.6,1.7c0,0,0,0,0,0v0c3.3,0,5.3-0.4,6.7-1.5c1.2,0.8,3.2,1.5,5.5,1.5
		c1.4,0,2.5-0.3,3.4-1c1.3,0.6,2.7,1,4.8,1c4.5,0,7.8-2.1,7.8-6.4C929.1,516,928.4,513.3,927.4,510.8z"/>
</g>
<g>
	<path class="st1" d="M836.2,581.3c-0.8,0-1.5,0.7-1.5,1.5c0,0.8,0.7,1.5,1.5,1.5c0.8,0,1.5-0.7,1.5-1.5
		C837.8,582,837.1,581.3,836.2,581.3z"/>
	<polygon class="st1" points="852,573.1 850.1,571.8 848.9,573.6 850.8,575 	"/>
	<polygon class="st1" points="848.6,573.1 846.7,571.8 845.5,573.6 847.5,575 	"/>
	<path class="st1" d="M856,576l-1.7,1.2c0.9,2,1.4,3.2,1.2,4.5c-1,0.4-3.2,0.7-5.7,0.7h-1.7c-4.4,0-6.9-0.6-6.9-3.5
		c0-0.6,0.1-1.3,0.2-2.2l-0.2-0.1l-1.4,0.5c-0.2,0.6-0.4,1.7-0.4,2.7c0,3.3,2.9,4.4,8.1,4.4h1.6c2.9,0,5.2-0.3,6.5-1.1
		c1.1-0.6,1.5-1.8,1.5-3c0-0.9-0.4-2.5-1.1-4.2H856z"/>
	<polygon class="st1" points="862.2,567.8 862.1,567.7 860.3,568.1 860.3,584.1 860.4,584.2 862.1,583.8 	"/>
	<path class="st1" d="M878.9,576.4c-2.2,0-3.4,2.9-4.3,4.3c-0.6,1.1-1.1,1.5-2.2,1.5c-1.6,0-1.9-0.3-2.5-1.9c-0.2-0.6-0.8-2-1.4-3.7
		h-0.2l-1.4,1.5c0.7,1.4,1.5,2.9,1.8,4c-0.5,1.9-2.2,3.7-6.8,4.6l-0.1,0.2l1,1.4c3.8-0.7,6.4-2.7,7.2-4.9c0.4,0.4,1.1,0.6,2,0.6
		c1.7,0,2.8-0.4,3.6-1.5c1.7,1.2,3.6,1.8,4.8,1.8c1.6,0,2.4-1,2.4-2.6C883,579,881.2,576.4,878.9,576.4z M881.1,582.2
		c-0.3,0.2-0.7,0.3-1,0.3c-0.7,0-2.1-0.5-3.5-1.4c1-1.8,1.5-2.9,2.4-2.9C880.2,578.2,881.3,581.1,881.1,582.2z"/>
	<polygon class="st1" points="901.7,570.4 899.7,569.1 898.5,570.9 900.5,572.3 	"/>
	<polygon class="st1" points="900.2,573.1 898.2,571.8 897.1,573.6 899,575 	"/>
	<polygon class="st1" points="902.4,575 903.6,573.1 901.7,571.8 900.5,573.6 	"/>
	<path class="st1" d="M907.5,576l-1.7,1.2c0.9,2,1.4,3.2,1.2,4.5c-1,0.4-3.2,0.7-5.7,0.7h-1.7c-4.4,0-6.9-0.6-6.9-3.5
		c0-0.6,0.1-1.3,0.2-2.2l-0.2-0.1l-1.4,0.5c-0.2,0.6-0.4,1.7-0.4,2.7c0,3.3,2.9,4.4,8.1,4.4h1.6c2.9,0,5.2-0.3,6.5-1.1
		c1.1-0.6,1.5-1.8,1.5-3c0-0.9-0.4-2.5-1.1-4.2H907.5z"/>
	<polygon class="st1" points="928,568.7 926.1,567.4 924.8,569.2 926.8,570.6 	"/>
	<polygon class="st1" points="926.5,571.5 924.6,570.1 923.4,572 925.4,573.3 	"/>
	<polygon class="st1" points="928,570.1 926.8,572 928.7,573.3 930,571.5 	"/>
	<path class="st1" d="M927.2,576l-1.5,1.2c0.8,1.8,1.5,3.5,1,4.7c-0.5,0.2-1.3,0.3-2.5,0.3h-0.7l0,0c0,0,0,0,0,0
		c-2,0-2.8-0.4-2.8-2.3v-12.1l-0.1-0.1l-1.7,0.4v10.7c-0.2,0.4-0.5,0.7-0.7,1c-1-2-3.4-5.4-6.4-8.1l-0.2,0.1l-0.7,1.9
		c2.8,2.6,4.8,4.7,6.1,7.1c-1.6,1.1-3.6,1.5-5.9,1.6l-0.1,0.1l0.8,1.7c2.7,0,5.3-0.8,7.2-3c0.4,2.3,2,2.9,4.1,2.9c0,0,0,0,0,0l0,0
		h0.7c2.2,0,3.1-0.2,3.8-0.8c0.7-0.7,1.2-1.9,1.2-2.9c0-1-0.5-2.6-1.2-4.3H927.2z"/>
</g>
<path class="st5" d="M1024,43.8h-11.1v-6.6c0-1.7-1.1-3-2.6-3.5c1.4-1.1,2.3-2.9,2.3-4.8c0-3.4-2.8-6.2-6.2-6.2
	c-1,0-1.9,0.2-2.8,0.7c0.4-1.1,0.5-2.2,0.5-3.4c0-6.2-5-11.2-11.2-11.2c-6.2,0-11.2,5-11.2,11.2c0,1.2,0.2,2.4,0.5,3.4
	c-0.8-0.4-1.8-0.7-2.8-0.7c-3.4,0-6.2,2.8-6.2,6.2c0,1.9,0.9,3.6,2.3,4.8c-1.5,0.4-2.6,1.8-2.6,3.5v6.6h-10h-10v-6.6
	c0-1.7-1.1-3-2.6-3.5c1.4-1.1,2.3-2.9,2.3-4.8c0-3.4-2.8-6.2-6.2-6.2c-1,0-1.9,0.2-2.8,0.7c0.4-1.1,0.5-2.2,0.5-3.4
	c0-6.2-5-11.2-11.2-11.2c-6.2,0-11.2,5-11.2,11.2c0,1.2,0.2,2.4,0.5,3.4c-0.8-0.4-1.8-0.7-2.8-0.7c-3.4,0-6.2,2.8-6.2,6.2
	c0,1.9,0.9,3.6,2.3,4.8c-1.5,0.4-2.6,1.8-2.6,3.5v6.6h-10h-10v-6.6c0-1.7-1.1-3-2.6-3.5c1.4-1.1,2.3-2.9,2.3-4.8
	c0-3.4-2.8-6.2-6.2-6.2c-1,0-1.9,0.2-2.8,0.7c0.4-1.1,0.5-2.2,0.5-3.4c0-6.2-5-11.2-11.2-11.2c-6.2,0-11.2,5-11.2,11.2
	c0,1.2,0.2,2.4,0.5,3.4c-0.8-0.4-1.8-0.7-2.8-0.7c-3.4,0-6.2,2.8-6.2,6.2c0,1.9,0.9,3.6,2.3,4.8c-1.5,0.4-2.6,1.8-2.6,3.5v6.6h-10
	h-10v-6.6c0-1.7-1.1-3-2.6-3.5c1.4-1.1,2.3-2.9,2.3-4.8c0-3.4-2.8-6.2-6.2-6.2c-1,0-1.9,0.2-2.8,0.7c0.4-1.1,0.5-2.2,0.5-3.4
	c0-6.2-5-11.2-11.2-11.2c-6.2,0-11.2,5-11.2,11.2c0,1.2,0.2,2.4,0.5,3.4c-0.8-0.4-1.8-0.7-2.8-0.7c-3.4,0-6.2,2.8-6.2,6.2
	c0,1.9,0.9,3.6,2.3,4.8c-1.5,0.4-2.6,1.8-2.6,3.5v6.6h-10h-10v-6.6c0-1.7-1.1-3-2.6-3.5c1.4-1.1,2.3-2.9,2.3-4.8
	c0-3.4-2.8-6.2-6.2-6.2c-1,0-1.9,0.2-2.8,0.7c0.4-1.1,0.5-2.2,0.5-3.4c0-6.2-5-11.2-11.2-11.2c-6.2,0-11.2,5-11.2,11.2
	c0,1.2,0.2,2.4,0.5,3.4c-0.8-0.4-1.8-0.7-2.8-0.7c-3.4,0-6.2,2.8-6.2,6.2c0,1.9,0.9,3.6,2.3,4.8c-1.5,0.4-2.6,1.8-2.6,3.5v6.6h-10
	h-10v-6.6c0-1.7-1.1-3-2.6-3.5c1.4-1.1,2.3-2.9,2.3-4.8c0-3.4-2.8-6.2-6.2-6.2c-1,0-1.9,0.2-2.8,0.7c0.4-1.1,0.5-2.2,0.5-3.4
	c0-6.2-5-11.2-11.2-11.2c-6.2,0-11.2,5-11.2,11.2c0,1.2,0.2,2.4,0.5,3.4c-0.8-0.4-1.8-0.7-2.8-0.7c-3.4,0-6.2,2.8-6.2,6.2
	c0,1.9,0.9,3.6,2.3,4.8c-1.5,0.4-2.6,1.8-2.6,3.5v6.6h-10h-10v-6.6c0-1.7-1.1-3-2.6-3.5c1.4-1.1,2.3-2.9,2.3-4.8
	c0-3.4-2.8-6.2-6.2-6.2c-1,0-1.9,0.2-2.8,0.7c0.4-1.1,0.5-2.2,0.5-3.4c0-6.2-5-11.2-11.2-11.2c-6.2,0-11.2,5-11.2,11.2
	c0,1.2,0.2,2.4,0.5,3.4c-0.8-0.4-1.8-0.7-2.8-0.7c-3.4,0-6.2,2.8-6.2,6.2c0,1.9,0.9,3.6,2.3,4.8c-1.5,0.4-2.6,1.8-2.6,3.5v6.6h-10
	h-10v-6.6c0-1.7-1.1-3-2.6-3.5c1.4-1.1,2.3-2.9,2.3-4.8c0-3.4-2.8-6.2-6.2-6.2c-1,0-1.9,0.2-2.8,0.7c0.4-1.1,0.5-2.2,0.5-3.4
	c0-6.2-5-11.2-11.2-11.2c-6.2,0-11.2,5-11.2,11.2c0,1.2,0.2,2.4,0.5,3.4c-0.8-0.4-1.8-0.7-2.8-0.7c-3.4,0-6.2,2.8-6.2,6.2
	c0,1.9,0.9,3.6,2.3,4.8c-1.5,0.4-2.6,1.8-2.6,3.5v6.6h-10h-10v-6.6c0-1.7-1.1-3-2.6-3.5c1.4-1.1,2.3-2.9,2.3-4.8
	c0-3.4-2.8-6.2-6.2-6.2c-1,0-1.9,0.2-2.8,0.7c0.4-1.1,0.5-2.2,0.5-3.4c0-6.2-5-11.2-11.2-11.2c-6.2,0-11.2,5-11.2,11.2
	c0,1.2,0.2,2.4,0.5,3.4c-0.8-0.4-1.8-0.7-2.8-0.7c-3.4,0-6.2,2.8-6.2,6.2c0,1.9,0.9,3.6,2.3,4.8c-1.5,0.4-2.6,1.8-2.6,3.5v6.6h-10
	h-10v-6.6c0-1.7-1.1-3-2.6-3.5c1.4-1.1,2.3-2.9,2.3-4.8c0-3.4-2.8-6.2-6.2-6.2c-1,0-1.9,0.2-2.8,0.7c0.4-1.1,0.5-2.2,0.5-3.4
	c0-6.2-5-11.2-11.2-11.2c-6.2,0-11.2,5-11.2,11.2c0,1.2,0.2,2.4,0.5,3.4c-0.8-0.4-1.8-0.7-2.8-0.7c-3.4,0-6.2,2.8-6.2,6.2
	c0,1.9,0.9,3.6,2.3,4.8c-1.5,0.4-2.6,1.8-2.6,3.5v6.6h-10h-10v-6.6c0-1.7-1.1-3-2.6-3.5c1.4-1.1,2.3-2.9,2.3-4.8
	c0-3.4-2.8-6.2-6.2-6.2c-1,0-1.9,0.2-2.8,0.7c0.4-1.1,0.5-2.2,0.5-3.4c0-6.2-5-11.2-11.2-11.2c-6.2,0-11.2,5-11.2,11.2
	c0,1.2,0.2,2.4,0.5,3.4c-0.8-0.4-1.8-0.7-2.8-0.7c-3.4,0-6.2,2.8-6.2,6.2c0,1.9,0.9,3.6,2.3,4.8c-1.5,0.4-2.6,1.8-2.6,3.5v6.6h-10
	h-10v-6.6c0-1.7-1.1-3-2.6-3.5c1.4-1.1,2.3-2.9,2.3-4.8c0-3.4-2.8-6.2-6.2-6.2c-1,0-1.9,0.2-2.8,0.7c0.4-1.1,0.5-2.2,0.5-3.4
	c0-6.2-5-11.2-11.2-11.2c-6.2,0-11.2,5-11.2,11.2c0,1.2,0.2,2.4,0.5,3.4c-0.8-0.4-1.8-0.7-2.8-0.7c-3.4,0-6.2,2.8-6.2,6.2
	c0,1.9,0.9,3.6,2.3,4.8c-1.5,0.4-2.6,1.8-2.6,3.5v6.6h-10h-10v-6.6c0-1.7-1.1-3-2.6-3.5c1.4-1.1,2.3-2.9,2.3-4.8
	c0-3.4-2.8-6.2-6.2-6.2c-1,0-1.9,0.2-2.8,0.7c0.4-1.1,0.5-2.2,0.5-3.4c0-6.2-5-11.2-11.2-11.2c-6.2,0-11.2,5-11.2,11.2
	c0,1.2,0.2,2.4,0.5,3.4c-0.8-0.4-1.8-0.7-2.8-0.7c-3.4,0-6.2,2.8-6.2,6.2c0,1.9,0.9,3.6,2.3,4.8c-1.5,0.4-2.6,1.8-2.6,3.5v6.6h-10
	h-10v-6.6c0-1.7-1.1-3-2.6-3.5c1.4-1.1,2.3-2.9,2.3-4.8c0-3.4-2.8-6.2-6.2-6.2c-1,0-1.9,0.2-2.8,0.7c0.4-1.1,0.5-2.2,0.5-3.4
	c0-6.2-5-11.2-11.2-11.2c-6.2,0-11.2,5-11.2,11.2c0,1.2,0.2,2.4,0.5,3.4c-0.8-0.4-1.8-0.7-2.8-0.7c-3.4,0-6.2,2.8-6.2,6.2
	c0,1.9,0.9,3.6,2.3,4.8c-1.5,0.4-2.6,1.8-2.6,3.5v6.6h-10h-10v-6.6c0-1.7-1.1-3-2.6-3.5c1.4-1.1,2.3-2.9,2.3-4.8
	c0-3.4-2.8-6.2-6.2-6.2c-1,0-1.9,0.2-2.8,0.7c0.4-1.1,0.5-2.2,0.5-3.4c0-6.2-5-11.2-11.2-11.2c-6.2,0-11.2,5-11.2,11.2
	c0,1.2,0.2,2.4,0.5,3.4c-0.8-0.4-1.8-0.7-2.8-0.7c-3.4,0-6.2,2.8-6.2,6.2c0,1.9,0.9,3.6,2.3,4.8c-1.5,0.4-2.6,1.8-2.6,3.5v6.6h-10
	h-10v-6.6c0-1.7-1.1-3-2.6-3.5c1.4-1.1,2.3-2.9,2.3-4.8c0-3.4-2.8-6.2-6.2-6.2c-1,0-1.9,0.2-2.8,0.7c0.4-1.1,0.5-2.2,0.5-3.4
	c0-6.2-5-11.2-11.2-11.2c-6.2,0-11.2,5-11.2,11.2c0,1.2,0.2,2.4,0.5,3.4c-0.8-0.4-1.8-0.7-2.8-0.7c-3.4,0-6.2,2.8-6.2,6.2
	c0,1.9,0.9,3.6,2.3,4.8c-1.5,0.4-2.6,1.8-2.6,3.5v6.6h-10h-10v-6.6c0-1.7-1.1-3-2.6-3.5c1.4-1.1,2.3-2.9,2.3-4.8
	c0-3.4-2.8-6.2-6.2-6.2c-1,0-1.9,0.2-2.8,0.7c0.4-1.1,0.5-2.2,0.5-3.4c0-6.2-5-11.2-11.2-11.2c-6.2,0-11.2,5-11.2,11.2
	c0,1.2,0.2,2.4,0.5,3.4C20,23,19,22.8,18,22.8c-3.4,0-6.2,2.8-6.2,6.2c0,1.9,0.9,3.6,2.3,4.8c-1.5,0.4-2.6,1.8-2.6,3.5v6.6H0V0h1024
	V43.8z"/>
<g id="Layer_x0020_1_22_">
	<path class="st6" d="M34.8,720.3l43.9-1.7c0.3,0,0.6,0,1,0c0.7,0.1,1.3,0.4,1.8,0.9c0.5,0.5,0.9,1,0.9,1.7c0,0.2,0,0.5,0,0.8
		l-4.6,20.6c-0.2,0.9-0.6,1.7-1.3,2.2c-0.6,0.5-1.4,0.9-2.4,0.9L39,744.5c-1,0-1.7-0.3-2.4-0.9l0,0c-0.6-0.6-1.1-1.4-1.3-2.2
		l-4.1-17.7c0-0.1,0-0.1,0-0.2c-0.1-0.8,0.3-1.5,0.9-2.1c0.6-0.5,1.4-0.8,2.3-1C34.6,720.3,34.7,720.3,34.8,720.3z M76.8,721.4
		l-42,1.5c-0.1,0-0.2,0-0.3,0c-0.6,0.1-1.1,0.3-1.5,0.7c-0.3,0.3-0.6,0.7-0.5,1.1c0,0,0,0.1,0,0.1l3.8,16.5c0.1,0.6,0.4,1.2,0.9,1.6
		c0.4,0.3,0.8,0.5,1.4,0.5l34,1.2c0.6,0,1-0.2,1.4-0.5c0.4-0.4,0.7-0.9,0.9-1.6l4.3-19.3c0-0.1,0-0.3,0-0.4c0-0.3-0.2-0.7-0.5-0.9
		c-0.3-0.3-0.7-0.5-1.1-0.5C77.2,721.4,77,721.4,76.8,721.4z"/>
	<path class="st6" d="M41.9,725l12.9-1.4c0.1,0,0.3,0,0.4,0c0.3,0.1,0.6,0.2,0.8,0.4c0.2,0.2,0.4,0.5,0.4,0.8c0,0.1,0,0.2,0,0.3
		l-2.1,9.6c-0.1,0.4-0.3,0.8-0.6,1c-0.3,0.2-0.6,0.4-1.1,0.4h-8.9c-0.4,0-0.8-0.2-1.1-0.4h0c-0.3-0.3-0.5-0.6-0.6-1l-1.9-8.2
		c0,0,0-0.1,0-0.1c-0.1-0.4,0.1-0.7,0.4-1c0.3-0.2,0.7-0.4,1-0.5C41.7,725,41.8,725,41.9,725z M53.9,724.9l-12,1.3c0,0-0.1,0-0.1,0
		c-0.3,0-0.5,0.2-0.7,0.3c-0.2,0.1-0.3,0.3-0.2,0.5c0,0,0,0,0,0l1.8,7.6c0.1,0.3,0.2,0.5,0.4,0.7c0.2,0.1,0.4,0.2,0.6,0.2h8.3
		c0.3,0,0.5-0.1,0.6-0.2c0.2-0.2,0.3-0.4,0.4-0.7l2-8.9c0-0.1,0-0.1,0-0.2c0-0.2-0.1-0.3-0.2-0.4c-0.1-0.1-0.3-0.2-0.5-0.2
		C54,724.9,53.9,724.9,53.9,724.9z"/>
	<g id="_1849662416_22_">
		<path class="st7" d="M60.3,737.2l0.4-0.7L60,736l0.4-0.7l-1.5-0.8l-0.9,1.5l0,0c0.3,0.1,0.5,0.3,0.7,0.4l-0.4,0.7l0.7,0.4
			l-0.8,1.5l0.7,0.4c-0.2,0.5-0.6,1.1-0.9,1.5l0,0c0.2,0.1,0.4,0.2,0.5,0.3c0.3,0.1,0.2,0.1,0,0.5c-0.2,0.4-0.4,0.8-0.7,1.1l0.7,0.4
			c0,0.2-0.7,1.2-0.8,1.5l5.9,3.4l0.9-1.5l0.8,0.4l1.3-2.2l0.7,0.4l3-5.2c-0.1-0.1-0.7-0.4-0.7-0.5c0-0.2,0.4-0.6,0.4-0.7
			c-0.1-0.1-0.5-0.4-0.7-0.4l-1.3,2.2l-0.7-0.4l1.7-3l-1.5-0.9l-1.3,2.2l-0.7-0.4l1.7-2.9c-0.1-0.1-1.3-0.8-1.5-0.9l-1.7,3l-0.7-0.4
			c0-0.1,0.1-0.1,0.1-0.2c1.2-2.1,2.5-4.3,3.7-6.5l-1.5-0.8l-4.7,8.1C60.8,737.6,60.4,737.2,60.3,737.2L60.3,737.2z"/>
		<path class="st8" d="M58.2,740.9c-0.1,0.1-0.1,0.2-0.2,0.3l-0.7,1.1c0.1,0.1,0.2,0.1,0.4,0.2c0.1,0.1,0.2,0.1,0.3,0.2
			c-0.4,0.8-0.8,1.5-1.2,2.2c0.6,0.4,1.2,0.7,1.8,1.1l3.7,2.2c0.6,0.4,1.2,0.7,1.9,1.1c0.1-0.2,0.1-0.3,0.3-0.5
			c0.1-0.2,0.4-0.6,0.5-0.9c0.1-0.1,0.1-0.1,0.2-0.3c0.1-0.2,0.2-0.4,0.3-0.6c0.1,0.2,0.5,0.3,0.7,0.4c0.4-0.7,0.8-1.4,1.3-2.2
			c0.2,0.1,0.4,0.2,0.6,0.3c0.1,0.1,0.1,0.1,0.2,0c0.2-0.3,0.3-0.6,0.5-0.9c0.3-0.6,0.7-1.1,1-1.7l1.4-2.5c-0.2-0.1-0.6-0.3-0.7-0.4
			l-3,5.2l-0.7-0.4l-1.3,2.2l-0.8-0.4l-0.9,1.5l-5.9-3.4c0.1-0.3,0.8-1.3,0.8-1.5l-0.7-0.4c0.2-0.4,0.4-0.8,0.7-1.1
			c0.2-0.4,0.2-0.3,0-0.5C58.5,741.1,58.4,741,58.2,740.9z"/>
		<path class="st8" d="M60.4,735.3L60,736l0.7,0.4l-0.4,0.7l0.7,0.4l4.7-8.1l-0.7-0.4c0,0,0,0,0,0l0,0c0,0,0,0,0,0l-3.8,6.6
			C60.9,735.5,60.7,735.4,60.4,735.3z"/>
		<path class="st8" d="M67.3,730.4l-3.9,6.6l0.7,0.4l1.7-3c0.2,0,1.4,0.8,1.5,0.9c0.2,0.2,1.6,0.9,1.9,1.1c0,0,0.1,0-0.1-0.1
			l-1.5-0.8c-0.4-0.2-0.3-0.1,0.1-0.9l-1.1-0.6c-0.1-0.1-0.2-0.1-0.3-0.2l1.7-2.9c-0.2-0.1-0.3-0.2-0.6-0.4
			C67.4,730.4,67.4,730.4,67.3,730.4z"/>
		<path class="st8" d="M69.1,737.4l0.4-0.7c-0.1-0.1-0.2-0.2-0.4-0.2c-0.3-0.2-1.7-0.9-1.9-1.1l-1.7,2.9l0.7,0.4l1.3-2.2L69.1,737.4
			z"/>
		<path class="st8" d="M58.1,735.9c-0.1,0.1-0.1,0.1-0.2,0.3c-0.1,0.1-0.1,0.3-0.2,0.4l0.7,0.4c-0.1,0.2-0.7,1.3-0.8,1.5l0.7,0.4
			l-0.6,1.1c-0.1,0.2-0.1,0.2-0.2,0.4l0.7,0.4c0.3-0.4,0.7-1,0.9-1.5l-0.7-0.4l0.8-1.5l-0.7-0.4l0.4-0.7
			C58.6,736.2,58.4,736,58.1,735.9z"/>
		<path class="st8" d="M58.1,735.9l0.9-1.5l1.5,0.8l0.2-0.4c0.1-0.1,0.1-0.2,0.2-0.4l-2-1.1c-0.3-0.2-0.2-0.2-0.5,0.2l-0.9,1.6
			c-0.1,0.2-0.2,0.2,0,0.3C57.6,735.6,58,735.9,58.1,735.9z"/>
		<path class="st8" d="M70.2,739c0.1,0,0,0,0.1-0.1c0,0,0.1-0.1,0.1-0.1c0-0.2,0.2-0.4,0.3-0.6l-1.5-0.8l-1.7,3l0.7,0.4l1.3-2.2
			C69.6,738.6,70,738.8,70.2,739z"/>
		<path class="st8" d="M67.3,730.3c0.1-0.2,0.3-0.5,0.4-0.7l-1.5-0.8l-0.4,0.7L67.3,730.3z"/>
		<path class="st8" d="M70.2,739c0,0.2-0.4,0.6-0.4,0.7c0,0.1,0.6,0.4,0.7,0.5c0.2,0.1,0.5,0.3,0.7,0.4l-1.4,2.5l1.5-2.5l-0.7-0.4
			c0.1-0.1,0.1-0.2,0.2-0.4c0.1-0.1,0.2-0.3,0.2-0.4c-0.8-0.5-0.8-0.3-0.6-0.6c0,0-0.1,0.1-0.1,0.1C70.2,739,70.3,738.9,70.2,739z"
			/>
	</g>
	<path class="st6" d="M94.9,737.2h-2.5l2.1-7.2l-4.3,7.2h-2.6l-0.5-7.3l-1.8,7.3h-2.6l2.9-10.9h3.5l0.5,7.7l4.6-7.7h3.5L94.9,737.2z
		 M104.3,737.2h-5.6c-0.8,0-1.3-0.2-1.7-0.6c-0.4-0.4-0.4-1-0.2-1.8c0.3-0.9,0.7-1.6,1.3-2c0.6-0.4,1.5-0.6,2.6-0.6h2.5
		c0.1-0.4,0.1-0.7-0.1-0.8c-0.2-0.2-0.6-0.2-1.3-0.2h-3.6l0.5-2h4.3c1.1,0,1.9,0.3,2.3,0.8c0.4,0.5,0.5,1.3,0.2,2.3L104.3,737.2z
		 M102.4,735.2l0.3-1.2h-2.2c-0.4,0-0.7,0-0.9,0.1c-0.2,0.1-0.3,0.3-0.3,0.5c-0.1,0.2-0.1,0.3,0,0.4c0,0,0.1,0.1,0.2,0.1
		c0.1,0,0.3,0,0.5,0H102.4z M113.1,737.2h-2.4l1.3-4.9c0.1-0.5,0.2-0.8,0-1c-0.1-0.1-0.4-0.2-0.9-0.2h-1.4l-1.6,6.1h-2.4l2.2-8.1h4
		c1.2,0,2,0.2,2.4,0.7c0.4,0.5,0.5,1.2,0.2,2.3L113.1,737.2z M121.9,737.2h-2.4l1.3-4.9c0.1-0.5,0.1-0.8,0-0.9
		c-0.1-0.1-0.2-0.1-0.3-0.2c-0.1,0-0.3-0.1-0.6-0.1l-1.4,0l-1.6,6.1h-2.4l2.9-10.9h2.4L119,729h1.6c1.2,0,2,0.2,2.4,0.7
		c0.4,0.5,0.5,1.2,0.2,2.3L121.9,737.2z M131.1,737.2h-5.6c-0.8,0-1.3-0.2-1.7-0.6c-0.4-0.4-0.4-1-0.2-1.8c0.3-0.9,0.7-1.6,1.3-2
		c0.6-0.4,1.5-0.6,2.6-0.6h2.5c0.1-0.4,0.1-0.7-0.1-0.8c-0.2-0.2-0.6-0.2-1.3-0.2h-3.6l0.5-2h4.3c1.1,0,1.9,0.3,2.3,0.8
		c0.4,0.5,0.5,1.3,0.2,2.3L131.1,737.2z M129.2,735.2l0.3-1.2h-2.2c-0.4,0-0.7,0-0.9,0.1c-0.2,0.1-0.3,0.3-0.3,0.5
		c-0.1,0.2,0,0.3,0,0.4c0,0,0.1,0.1,0.2,0.1c0.1,0,0.3,0,0.5,0H129.2z M135,737.2h-2.5l2.9-10.9h2.5L135,737.2z M140.6,737.2h-2.1
		l0.6-2.2h2.1L140.6,737.2z M148.4,737.2h-2.9c-0.4,0-0.7,0-1-0.1c-0.3,0-0.5-0.1-0.8-0.2c-0.4-0.1-0.8-0.4-1-0.8
		c-0.1-0.2-0.2-0.4-0.3-0.6c-0.1-0.2-0.2-0.5-0.2-0.7c0-0.3,0-0.5,0-0.8c0-0.3,0.1-0.6,0.2-0.9c0.2-0.6,0.4-1.2,0.8-1.7
		c0.3-0.5,0.7-1,1.3-1.4c0.4-0.3,0.9-0.6,1.4-0.7c0.5-0.2,1.1-0.2,1.9-0.2h2.9l-0.5,2h-2.3c-0.5,0-0.9,0-1.2,0.1
		c-0.3,0.1-0.6,0.2-0.8,0.4c-0.4,0.3-0.7,0.8-0.9,1.6c-0.1,0.4-0.1,0.8-0.1,1.1c0.1,0.3,0.1,0.6,0.4,0.7l0.4,0.2c0.1,0,0.3,0,0.4,0
		c0.1,0,0.4,0,0.6,0h2.3L148.4,737.2z M158.5,733.1c-0.3,1.3-1,2.3-2,3.1c-1,0.8-2.1,1.1-3.4,1.1c-1.3,0-2.2-0.4-2.8-1.1
		c-0.6-0.8-0.7-1.8-0.3-3.1c0.3-1.3,1-2.3,2-3c1-0.8,2.1-1.1,3.4-1.1c1.3,0,2.2,0.4,2.8,1.1C158.7,730.8,158.8,731.8,158.5,733.1z
		 M156,733.1c0.2-0.7,0.1-1.2-0.1-1.6c-0.2-0.4-0.6-0.6-1.1-0.6c-0.5,0-1,0.2-1.4,0.6c-0.4,0.4-0.7,0.9-0.9,1.6
		c-0.1,0.4-0.1,0.7-0.1,0.9c0,0.3,0.1,0.5,0.2,0.7c0.2,0.4,0.6,0.6,1.1,0.6c0.6,0,1-0.2,1.4-0.6C155.5,734.3,155.8,733.8,156,733.1z
		 M169.6,737.2h-2.4l1.3-4.9c0.1-0.5,0.2-0.8,0.1-1c-0.1-0.2-0.4-0.2-0.9-0.2l-0.9,0l-1.6,6.1h-2.4l1.6-6.1h-2l-1.6,6.1h-2.4
		l2.2-8.1h8c1.2,0,2,0.2,2.4,0.7c0.4,0.5,0.5,1.2,0.2,2.3L169.6,737.2z"/>
	<path class="st6" d="M27.8,729.1l21.2-2.2c0.2,0,0.5,0,0.7,0c0.5,0.1,1,0.3,1.4,0.7c0.4,0.3,0.6,0.8,0.7,1.3c0,0.2,0,0.4,0,0.6
		l-3.7,9.6c-0.1,0.7-0.5,1.3-1,1.7c-0.5,0.4-1.1,0.7-1.8,0.7H30.8c-0.7,0-1.3-0.3-1.8-0.7h0c-0.5-0.4-0.8-1.1-1-1.7l-2.9-7.4
		c0-0.1,0-0.1,0-0.2c-0.1-0.6,0.2-1.2,0.7-1.6c0.5-0.4,1.1-0.6,1.7-0.8C27.6,729.1,27.7,729.1,27.8,729.1z M47.6,729L27.8,731
		c-0.1,0-0.2,0-0.2,0c-0.4,0.1-0.9,0.3-1.2,0.5c-0.3,0.2-0.4,0.5-0.4,0.8c0,0,0,0.1,0,0.1l2.7,6.5c0.1,0.5,0.3,0.9,0.7,1.2
		c0.3,0.2,0.6,0.4,1,0.4h13.6c0.4,0,0.8-0.1,1-0.4c0.3-0.3,0.5-0.7,0.7-1.2l3.4-8.6c0-0.1,0-0.2,0-0.3c0-0.3-0.2-0.5-0.4-0.7
		c-0.2-0.2-0.5-0.4-0.8-0.4C47.8,729,47.7,728.9,47.6,729z"/>
	<path class="st6" d="M87.5,722.8l-0.5,1.7h-0.6l1.2-4.5H89c0.3,0,0.5,0,0.7,0.1c0.2,0.1,0.3,0.2,0.4,0.3c0.1,0.1,0.2,0.3,0.2,0.4
		c0,0.2,0,0.4-0.1,0.6c-0.1,0.2-0.1,0.4-0.3,0.6c-0.1,0.2-0.3,0.3-0.4,0.4c-0.2,0.1-0.4,0.2-0.6,0.3c-0.2,0.1-0.5,0.1-0.7,0.1H87.5z
		 M87.6,722.3h0.7c0.2,0,0.3,0,0.5-0.1c0.1,0,0.3-0.1,0.4-0.2c0.1-0.1,0.2-0.2,0.3-0.3c0.1-0.1,0.1-0.2,0.2-0.4
		c0.1-0.3,0.1-0.5-0.1-0.7c-0.1-0.2-0.4-0.2-0.7-0.2h-0.7L87.6,722.3z"/>
	<path id="_x31__22_" class="st6" d="M92.2,721.2c0.2,0,0.4,0,0.6,0.1c0.2,0.1,0.3,0.2,0.4,0.3c0.1,0.1,0.1,0.3,0.2,0.5
		c0,0.2,0,0.4-0.1,0.7c-0.1,0.2-0.2,0.5-0.3,0.7c-0.1,0.2-0.3,0.4-0.4,0.5c-0.2,0.1-0.4,0.3-0.6,0.3c-0.2,0.1-0.4,0.1-0.7,0.1
		c-0.2,0-0.4,0-0.6-0.1c-0.2-0.1-0.3-0.2-0.4-0.3c-0.1-0.1-0.1-0.3-0.2-0.5c0-0.2,0-0.4,0.1-0.7c0.1-0.3,0.2-0.5,0.3-0.7
		c0.1-0.2,0.3-0.4,0.4-0.5c0.2-0.1,0.4-0.3,0.6-0.3C91.8,721.3,92,721.2,92.2,721.2z M91.4,724.1c0.3,0,0.6-0.1,0.8-0.3
		c0.2-0.2,0.4-0.5,0.5-0.9c0.1-0.4,0.1-0.7,0-0.9c-0.1-0.2-0.3-0.3-0.6-0.3c-0.2,0-0.3,0-0.4,0.1c-0.1,0.1-0.2,0.1-0.4,0.2
		c-0.1,0.1-0.2,0.2-0.3,0.4c-0.1,0.1-0.1,0.3-0.2,0.5c0,0.2-0.1,0.4-0.1,0.5c0,0.1,0,0.3,0.1,0.4c0.1,0.1,0.1,0.2,0.2,0.2
		C91.2,724,91.3,724.1,91.4,724.1z"/>
	<path id="_x32__22_" class="st6" d="M94,721.3h0.4c0,0,0.1,0,0.1,0c0,0,0,0,0,0.1l0.1,2c0,0.1,0,0.1,0,0.2c0,0.1,0,0.1,0,0.2
		c0-0.1,0.1-0.1,0.1-0.2c0-0.1,0.1-0.1,0.1-0.2l1.2-2.1c0,0,0-0.1,0.1-0.1c0,0,0.1,0,0.1,0h0.2c0,0,0.1,0,0.1,0c0,0,0,0,0,0.1
		l0.1,2.1c0,0.1,0,0.1,0,0.2c0,0.1,0,0.1,0,0.2c0-0.1,0.1-0.1,0.1-0.2c0-0.1,0.1-0.1,0.1-0.2l1.2-2c0,0,0-0.1,0.1-0.1
		c0,0,0.1,0,0.1,0h0.4l-1.9,3.2h-0.4c-0.1,0-0.1,0-0.1-0.1l-0.1-2.2c0,0,0-0.1,0-0.1c0-0.1,0-0.1,0-0.1c0,0,0,0.1-0.1,0.1
		c0,0,0,0.1-0.1,0.1l-1.3,2.2c0,0.1-0.1,0.1-0.2,0.1h-0.4L94,721.3z"/>
	<path id="_x33__22_" class="st6" d="M100.5,721.2c0.2,0,0.4,0,0.5,0.1c0.1,0.1,0.3,0.2,0.3,0.3c0.1,0.1,0.1,0.3,0.2,0.4
		c0,0.2,0,0.4-0.1,0.6c0,0.1,0,0.1-0.1,0.2c0,0-0.1,0-0.1,0h-2.1c-0.1,0.2-0.1,0.4-0.1,0.5c0,0.1,0,0.3,0.1,0.4
		c0.1,0.1,0.1,0.2,0.3,0.2c0.1,0,0.2,0.1,0.4,0.1c0.1,0,0.3,0,0.4,0c0.1,0,0.2-0.1,0.3-0.1c0.1,0,0.2-0.1,0.2-0.1
		c0.1,0,0.1-0.1,0.1-0.1c0,0,0.1,0,0.1,0.1l0.1,0.2c-0.1,0.1-0.2,0.2-0.3,0.2c-0.1,0.1-0.2,0.1-0.3,0.2c-0.1,0-0.2,0.1-0.4,0.1
		c-0.1,0-0.2,0-0.4,0c-0.2,0-0.4,0-0.6-0.1c-0.2-0.1-0.3-0.2-0.4-0.3c-0.1-0.1-0.2-0.3-0.2-0.5c0-0.2,0-0.5,0.1-0.7
		c0.1-0.2,0.1-0.4,0.3-0.6c0.1-0.2,0.3-0.4,0.4-0.5c0.2-0.1,0.4-0.3,0.6-0.3C100,721.3,100.2,721.2,100.5,721.2z M100.4,721.6
		c-0.3,0-0.5,0.1-0.7,0.2c-0.2,0.2-0.4,0.4-0.5,0.6h1.7c0-0.1,0.1-0.2,0-0.4c0-0.1,0-0.2-0.1-0.3c0-0.1-0.1-0.1-0.2-0.2
		C100.6,721.7,100.5,721.6,100.4,721.6z"/>
	<path id="_x34__22_" class="st6" d="M101.6,724.5l0.9-3.2h0.3c0.1,0,0.1,0,0.1,0c0,0,0,0.1,0,0.1l-0.1,0.5c0.2-0.2,0.4-0.4,0.5-0.5
		c0.2-0.1,0.4-0.2,0.6-0.2c0.1,0,0.2,0,0.2,0c0.1,0,0.1,0,0.2,0.1l-0.2,0.4c0,0.1-0.1,0.1-0.1,0.1c0,0-0.1,0-0.1,0
		c-0.1,0-0.1,0-0.2,0c-0.2,0-0.4,0.1-0.5,0.2c-0.2,0.1-0.3,0.3-0.5,0.5l-0.5,2H101.6z"/>
	<path id="_x35__22_" class="st6" d="M106.3,721.2c0.2,0,0.4,0,0.5,0.1c0.1,0.1,0.3,0.2,0.3,0.3c0.1,0.1,0.1,0.3,0.2,0.4
		c0,0.2,0,0.4-0.1,0.6c0,0.1,0,0.1-0.1,0.2c0,0-0.1,0-0.1,0h-2.1c-0.1,0.2-0.1,0.4-0.1,0.5c0,0.1,0,0.3,0.1,0.4
		c0.1,0.1,0.1,0.2,0.3,0.2c0.1,0,0.2,0.1,0.4,0.1c0.1,0,0.3,0,0.4,0c0.1,0,0.2-0.1,0.3-0.1c0.1,0,0.2-0.1,0.2-0.1
		c0.1,0,0.1-0.1,0.1-0.1c0,0,0.1,0,0.1,0.1l0.1,0.2c-0.1,0.1-0.2,0.2-0.3,0.2c-0.1,0.1-0.2,0.1-0.3,0.2c-0.1,0-0.2,0.1-0.4,0.1
		c-0.1,0-0.2,0-0.4,0c-0.2,0-0.4,0-0.6-0.1c-0.2-0.1-0.3-0.2-0.4-0.3c-0.1-0.1-0.2-0.3-0.2-0.5c0-0.2,0-0.5,0.1-0.7
		c0.1-0.2,0.2-0.4,0.3-0.6c0.1-0.2,0.3-0.4,0.4-0.5c0.2-0.1,0.4-0.3,0.6-0.3C105.8,721.3,106.1,721.2,106.3,721.2z M106.2,721.6
		c-0.3,0-0.5,0.1-0.7,0.2c-0.2,0.2-0.4,0.4-0.5,0.6h1.7c0-0.1,0-0.2,0-0.4c0-0.1,0-0.2-0.1-0.3c0-0.1-0.1-0.1-0.2-0.2
		C106.4,721.7,106.3,721.6,106.2,721.6z"/>
	<path id="_x36__22_" class="st6" d="M109.7,724.5c-0.1,0-0.1,0-0.1-0.1l0.1-0.4c-0.2,0.2-0.4,0.3-0.6,0.4c-0.2,0.1-0.4,0.1-0.6,0.1
		c-0.2,0-0.3,0-0.5-0.1c-0.1-0.1-0.2-0.2-0.3-0.3c-0.1-0.1-0.1-0.3-0.1-0.5c0-0.2,0-0.4,0.1-0.7c0.1-0.2,0.2-0.5,0.3-0.7
		c0.1-0.2,0.3-0.4,0.4-0.5c0.2-0.2,0.3-0.3,0.5-0.4c0.2-0.1,0.4-0.1,0.6-0.1c0.2,0,0.4,0,0.5,0.1c0.1,0.1,0.2,0.2,0.3,0.3l0.5-1.8
		h0.6l-1.2,4.6H109.7z M108.7,724.1c0.2,0,0.4,0,0.5-0.1c0.2-0.1,0.3-0.2,0.5-0.4l0.4-1.5c-0.1-0.1-0.2-0.2-0.3-0.3
		c-0.1-0.1-0.2-0.1-0.4-0.1c-0.3,0-0.6,0.1-0.8,0.3c-0.2,0.2-0.4,0.5-0.5,0.9c-0.1,0.2-0.1,0.4-0.1,0.5c0,0.1,0,0.3,0.1,0.4
		c0,0.1,0.1,0.2,0.2,0.2C108.5,724,108.6,724.1,108.7,724.1z"/>
	<path id="_x37__22_" class="st6" d="M112.2,724.5l1.2-4.6h0.6l-0.5,1.9c0.2-0.2,0.4-0.3,0.6-0.4c0.2-0.1,0.4-0.1,0.6-0.1
		c0.2,0,0.3,0,0.5,0.1c0.1,0.1,0.2,0.2,0.3,0.3c0.1,0.1,0.1,0.3,0.1,0.5c0,0.2,0,0.4-0.1,0.7c-0.1,0.2-0.2,0.5-0.3,0.7
		c-0.1,0.2-0.3,0.4-0.4,0.5c-0.2,0.1-0.3,0.3-0.5,0.3c-0.2,0.1-0.4,0.1-0.6,0.1c-0.2,0-0.4,0-0.5-0.1c-0.1-0.1-0.2-0.2-0.3-0.3
		l-0.1,0.3c0,0.1-0.1,0.1-0.2,0.1H112.2z M114.4,721.7c-0.2,0-0.4,0-0.5,0.1c-0.2,0.1-0.3,0.2-0.5,0.4l-0.4,1.5
		c0.1,0.1,0.1,0.2,0.3,0.3c0.1,0.1,0.2,0.1,0.4,0.1c0.3,0,0.6-0.1,0.8-0.3c0.2-0.2,0.4-0.5,0.5-0.9c0.1-0.2,0.1-0.4,0.1-0.5
		c0-0.1,0-0.3-0.1-0.4c0-0.1-0.1-0.2-0.2-0.2C114.6,721.7,114.5,721.7,114.4,721.7z"/>
	<path id="_x38__22_" class="st6" d="M116.3,725.4c0,0-0.1,0.1-0.1,0.1c0,0-0.1,0-0.1,0h-0.4l0.9-1.2l-0.5-3h0.5c0,0,0.1,0,0.1,0
		c0,0,0,0,0,0.1l0.3,2c0,0,0,0.1,0,0.1c0,0,0,0.1,0,0.1c0,0,0.1-0.1,0.1-0.1c0,0,0.1-0.1,0.1-0.1l1.4-2c0,0,0.1-0.1,0.1-0.1
		c0,0,0.1,0,0.1,0h0.4L116.3,725.4z"/>
	<path id="_x39__22_" class="st6" d="M118.8,724.1c0-0.1,0-0.1,0.1-0.2c0-0.1,0.1-0.1,0.1-0.1c0,0,0.1-0.1,0.1-0.1
		c0.1,0,0.1,0,0.2,0c0.1,0,0.1,0,0.1,0c0,0,0.1,0,0.1,0.1c0,0,0,0.1,0.1,0.1c0,0,0,0.1,0,0.2c0,0.1,0,0.1-0.1,0.2
		c0,0-0.1,0.1-0.1,0.1c0,0-0.1,0.1-0.1,0.1c-0.1,0-0.1,0-0.2,0c-0.1,0-0.1,0-0.1,0c0,0-0.1,0-0.1-0.1c0,0,0-0.1,0-0.1
		C118.8,724.2,118.8,724.2,118.8,724.1z M119.5,721.8c0-0.1,0-0.1,0.1-0.2c0,0,0.1-0.1,0.1-0.1c0,0,0.1-0.1,0.1-0.1
		c0.1,0,0.1,0,0.2,0c0.1,0,0.1,0,0.1,0c0,0,0.1,0,0.1,0.1c0,0,0,0.1,0.1,0.1c0,0,0,0.1,0,0.2c0,0.1,0,0.1-0.1,0.2
		c0,0-0.1,0.1-0.1,0.1c0,0-0.1,0.1-0.1,0.1c-0.1,0-0.1,0-0.2,0c-0.1,0-0.1,0-0.1,0c0,0-0.1,0-0.1-0.1c0,0,0-0.1,0-0.1
		C119.5,721.9,119.5,721.8,119.5,721.8z"/>
	<path class="st6" d="M125.9,739.5l-0.1,0.5h-2.3l-0.4,1.6h1.8l-0.1,0.5H123l-0.4,1.6h2.3l-0.1,0.5h-2.9l1.3-4.8H125.9z
		 M125.9,742.1h1.6l-0.1,0.5h-1.6L125.9,742.1z M128.7,743.8h2.1l-0.1,0.5h-2.7l1.3-4.8h0.6L128.7,743.8z M133.3,740.9
		c0.2,0,0.4,0,0.5,0.1c0.2,0.1,0.3,0.2,0.4,0.3c0.1,0.1,0.1,0.3,0.2,0.5c0,0.2,0,0.4-0.1,0.6c0,0.1-0.1,0.2-0.1,0.2c0,0-0.1,0-0.1,0
		h-2.2c-0.1,0.2-0.1,0.4-0.1,0.6c0,0.2,0,0.3,0.1,0.4c0.1,0.1,0.2,0.2,0.3,0.2c0.1,0.1,0.3,0.1,0.4,0.1c0.1,0,0.3,0,0.4-0.1
		c0.1,0,0.2-0.1,0.3-0.1c0.1,0,0.2-0.1,0.2-0.1c0.1,0,0.1-0.1,0.1-0.1c0,0,0.1,0,0.1,0.1l0.1,0.2c-0.1,0.1-0.2,0.2-0.3,0.2
		c-0.1,0.1-0.2,0.1-0.4,0.2c-0.1,0-0.3,0.1-0.4,0.1c-0.1,0-0.3,0-0.4,0c-0.2,0-0.4,0-0.6-0.1c-0.2-0.1-0.3-0.2-0.4-0.3
		c-0.1-0.2-0.2-0.3-0.2-0.6c0-0.2,0-0.5,0.1-0.8c0.1-0.2,0.2-0.5,0.3-0.7c0.1-0.2,0.3-0.4,0.5-0.5c0.2-0.1,0.4-0.3,0.6-0.4
		C132.9,740.9,133.1,740.9,133.3,740.9z M133.2,741.3c-0.3,0-0.5,0.1-0.7,0.2c-0.2,0.2-0.4,0.4-0.5,0.7h1.8c0-0.1,0.1-0.3,0-0.4
		c0-0.1,0-0.2-0.1-0.3c-0.1-0.1-0.1-0.1-0.2-0.2C133.5,741.3,133.4,741.3,133.2,741.3z M137,744.3h-0.3c-0.1,0-0.1,0-0.1,0
		c0,0,0-0.1,0-0.1l0-0.3c-0.1,0.1-0.2,0.2-0.3,0.2c-0.1,0.1-0.2,0.1-0.3,0.2c-0.1,0-0.2,0.1-0.3,0.1c-0.1,0-0.2,0-0.4,0
		c-0.1,0-0.2,0-0.4-0.1c-0.1,0-0.2-0.1-0.3-0.2c-0.1-0.1-0.1-0.2-0.1-0.3c0-0.1,0-0.2,0-0.4c0-0.1,0.1-0.3,0.2-0.4
		c0.1-0.1,0.3-0.2,0.4-0.3c0.2-0.1,0.4-0.2,0.7-0.2c0.3-0.1,0.6-0.1,1-0.1l0.1-0.3c0.1-0.3,0.1-0.5,0-0.6c-0.1-0.1-0.2-0.2-0.4-0.2
		c-0.1,0-0.3,0-0.4,0.1c-0.1,0-0.2,0.1-0.3,0.1c-0.1,0-0.2,0.1-0.2,0.1c-0.1,0-0.1,0.1-0.2,0.1c0,0-0.1,0-0.1,0c0,0,0,0-0.1-0.1
		l-0.1-0.2c0.2-0.2,0.5-0.3,0.7-0.4c0.2-0.1,0.5-0.1,0.8-0.1c0.2,0,0.3,0,0.5,0.1c0.1,0.1,0.2,0.1,0.3,0.3c0.1,0.1,0.1,0.2,0.1,0.4
		c0,0.2,0,0.3-0.1,0.5L137,744.3z M135.6,743.9c0.1,0,0.2,0,0.3,0c0.1,0,0.2-0.1,0.3-0.1c0.1,0,0.2-0.1,0.3-0.1
		c0.1-0.1,0.2-0.1,0.3-0.2l0.2-0.7c-0.3,0-0.5,0-0.7,0.1c-0.2,0-0.4,0.1-0.5,0.1c-0.1,0.1-0.2,0.1-0.3,0.2c-0.1,0.1-0.1,0.2-0.1,0.3
		c0,0.1,0,0.2,0,0.2c0,0.1,0,0.1,0.1,0.2c0,0,0.1,0.1,0.1,0.1C135.5,743.9,135.5,743.9,135.6,743.9z M137.9,744.3l0.9-3.4h0.3
		c0.1,0,0.1,0,0.1,0c0,0,0,0.1,0,0.1l-0.1,0.6c0.2-0.2,0.4-0.4,0.6-0.6c0.2-0.1,0.4-0.2,0.6-0.2c0.1,0,0.2,0,0.2,0
		c0.1,0,0.1,0.1,0.2,0.1l-0.2,0.4c0,0.1-0.1,0.1-0.1,0.1c0,0-0.1,0-0.1,0c-0.1,0-0.1,0-0.3,0c-0.2,0-0.4,0.1-0.6,0.2
		c-0.2,0.1-0.3,0.3-0.5,0.5l-0.6,2.1H137.9z M140.6,744.3l0.9-3.4h0.4c0.1,0,0.1,0,0.1,0.1l-0.1,0.4c0.2-0.2,0.4-0.3,0.6-0.4
		c0.2-0.1,0.4-0.2,0.7-0.2c0.2,0,0.3,0,0.5,0.1c0.1,0.1,0.2,0.1,0.3,0.3c0.1,0.1,0.1,0.2,0.1,0.4c0,0.2,0,0.3-0.1,0.5l-0.6,2.1h-0.6
		l0.6-2.1c0.1-0.3,0.1-0.5,0-0.6c-0.1-0.1-0.2-0.2-0.5-0.2c-0.2,0-0.3,0-0.5,0.1c-0.2,0.1-0.3,0.2-0.5,0.3l-0.7,2.5H140.6z
		 M145.9,740.9l-0.9,3.4h-0.6l0.9-3.4H145.9z M146.3,739.9c0,0.1,0,0.1-0.1,0.2c0,0-0.1,0.1-0.1,0.1c0,0-0.1,0.1-0.2,0.1
		c-0.1,0-0.1,0-0.2,0c-0.1,0-0.1,0-0.2,0c0,0-0.1-0.1-0.1-0.1c0,0,0-0.1-0.1-0.1c0,0,0-0.1,0-0.2c0-0.1,0-0.1,0.1-0.2
		c0-0.1,0.1-0.1,0.1-0.1c0,0,0.1-0.1,0.2-0.1c0.1,0,0.1,0,0.2,0c0.1,0,0.1,0,0.2,0c0,0,0.1,0.1,0.1,0.1c0,0,0,0.1,0.1,0.1
		C146.3,739.8,146.3,739.8,146.3,739.9z M146,744.3l0.9-3.4h0.4c0.1,0,0.1,0,0.1,0.1l-0.1,0.4c0.2-0.2,0.4-0.3,0.6-0.4
		c0.2-0.1,0.4-0.2,0.7-0.2c0.2,0,0.3,0,0.5,0.1c0.1,0.1,0.2,0.1,0.3,0.3c0.1,0.1,0.1,0.2,0.1,0.4c0,0.2,0,0.3-0.1,0.5l-0.6,2.1h-0.6
		l0.6-2.1c0.1-0.3,0.1-0.5,0-0.6c-0.1-0.1-0.2-0.2-0.5-0.2c-0.2,0-0.3,0-0.5,0.1c-0.2,0.1-0.3,0.2-0.5,0.3l-0.7,2.5H146z
		 M151.7,740.9c0.1,0,0.3,0,0.4,0c0.1,0,0.2,0.1,0.3,0.1h0.9l-0.1,0.2c0,0.1-0.1,0.1-0.2,0.1l-0.4,0.1c0,0.1,0,0.3,0,0.5
		c0,0.2-0.1,0.3-0.2,0.4c-0.1,0.1-0.2,0.2-0.4,0.3c-0.1,0.1-0.3,0.2-0.5,0.2c-0.2,0-0.3,0.1-0.5,0.1c-0.2,0-0.3,0-0.4-0.1
		c-0.1,0-0.1,0.1-0.2,0.1c-0.1,0.1-0.1,0.1-0.1,0.2c0,0.1,0,0.1,0,0.2c0.1,0,0.1,0.1,0.2,0.1c0.1,0,0.2,0,0.4,0c0.1,0,0.3,0,0.4,0
		c0.1,0,0.3,0,0.4,0c0.1,0,0.2,0.1,0.3,0.1c0.1,0.1,0.2,0.1,0.2,0.2c0,0.1,0,0.2,0,0.4c0,0.1-0.1,0.3-0.2,0.4
		c-0.1,0.1-0.2,0.3-0.4,0.4c-0.2,0.1-0.3,0.2-0.6,0.3c-0.2,0.1-0.4,0.1-0.7,0.1c-0.2,0-0.5,0-0.6-0.1c-0.2,0-0.3-0.1-0.4-0.2
		c-0.1-0.1-0.2-0.2-0.2-0.3c0-0.1,0-0.2,0-0.3c0-0.2,0.1-0.3,0.3-0.4c0.1-0.1,0.3-0.2,0.5-0.3c-0.1,0-0.1-0.1-0.2-0.2
		c0-0.1,0-0.2,0-0.3c0,0,0-0.1,0.1-0.2c0-0.1,0.1-0.1,0.1-0.2c0-0.1,0.1-0.1,0.2-0.1c0.1,0,0.1-0.1,0.2-0.1
		c-0.1-0.1-0.2-0.2-0.3-0.4c-0.1-0.2-0.1-0.3,0-0.5c0-0.2,0.1-0.3,0.2-0.4c0.1-0.1,0.2-0.3,0.4-0.3c0.1-0.1,0.3-0.2,0.5-0.2
		C151.4,740.9,151.6,740.9,151.7,740.9z M151.8,744.5c0-0.1,0-0.2,0-0.2c0-0.1-0.1-0.1-0.2-0.1c-0.1,0-0.2,0-0.3-0.1
		c-0.1,0-0.2,0-0.3,0c-0.1,0-0.2,0-0.4,0c-0.1,0-0.2,0-0.3,0c-0.1,0.1-0.3,0.1-0.4,0.2c-0.1,0.1-0.2,0.2-0.2,0.3c0,0.1,0,0.1,0,0.2
		c0,0.1,0.1,0.1,0.1,0.2c0.1,0,0.2,0.1,0.3,0.1c0.1,0,0.2,0,0.4,0c0.2,0,0.3,0,0.4,0c0.1,0,0.2-0.1,0.4-0.1c0.1-0.1,0.2-0.1,0.3-0.2
		C151.8,744.6,151.8,744.6,151.8,744.5z M151.3,742.7c0.1,0,0.2,0,0.3,0c0.1,0,0.2-0.1,0.3-0.1c0.1-0.1,0.1-0.1,0.2-0.2
		c0.1-0.1,0.1-0.2,0.1-0.3c0.1-0.2,0-0.4-0.1-0.5c-0.1-0.1-0.3-0.2-0.5-0.2s-0.4,0.1-0.6,0.2c-0.2,0.1-0.3,0.3-0.3,0.5
		c0,0.1,0,0.2,0,0.3c0,0.1,0,0.2,0.1,0.2c0,0.1,0.1,0.1,0.2,0.1C151.1,742.6,151.2,742.7,151.3,742.7z M159,739.5l-0.1,0.5h-1.5
		l-1.1,4.2h-0.6l1.1-4.2h-1.5l0.1-0.5H159z M159.8,740.9c0.2,0,0.4,0,0.5,0.1c0.2,0.1,0.3,0.2,0.4,0.3c0.1,0.1,0.1,0.3,0.2,0.5
		c0,0.2,0,0.4-0.1,0.6c0,0.1,0,0.2-0.1,0.2c0,0-0.1,0-0.1,0h-2.2c-0.1,0.2-0.1,0.4-0.1,0.6c0,0.2,0,0.3,0.1,0.4
		c0.1,0.1,0.2,0.2,0.3,0.2c0.1,0.1,0.2,0.1,0.4,0.1c0.1,0,0.3,0,0.4-0.1c0.1,0,0.2-0.1,0.3-0.1c0.1,0,0.2-0.1,0.2-0.1
		c0.1,0,0.1-0.1,0.1-0.1c0,0,0.1,0,0.1,0.1l0.1,0.2c-0.1,0.1-0.2,0.2-0.3,0.2c-0.1,0.1-0.2,0.1-0.4,0.2c-0.1,0-0.3,0.1-0.4,0.1
		c-0.1,0-0.3,0-0.4,0c-0.2,0-0.4,0-0.6-0.1c-0.2-0.1-0.3-0.2-0.4-0.3c-0.1-0.2-0.2-0.3-0.2-0.6c0-0.2,0-0.5,0.1-0.8
		c0.1-0.2,0.2-0.5,0.3-0.7c0.1-0.2,0.3-0.4,0.5-0.5c0.2-0.1,0.4-0.3,0.6-0.4C159.4,740.9,159.6,740.9,159.8,740.9z M159.7,741.3
		c-0.3,0-0.5,0.1-0.7,0.2c-0.2,0.2-0.4,0.4-0.5,0.7h1.8c0-0.1,0-0.3,0-0.4c0-0.1,0-0.2-0.1-0.3c-0.1-0.1-0.1-0.1-0.2-0.2
		C160,741.3,159.9,741.3,159.7,741.3z M163.5,744.3h-0.3c-0.1,0-0.1,0-0.1,0c0,0,0-0.1,0-0.1l0-0.3c-0.1,0.1-0.2,0.2-0.3,0.2
		s-0.2,0.1-0.3,0.2c-0.1,0-0.2,0.1-0.3,0.1c-0.1,0-0.2,0-0.4,0c-0.1,0-0.2,0-0.4-0.1c-0.1,0-0.2-0.1-0.3-0.2
		c-0.1-0.1-0.1-0.2-0.1-0.3c0-0.1,0-0.2,0-0.4c0-0.1,0.1-0.3,0.2-0.4c0.1-0.1,0.3-0.2,0.4-0.3c0.2-0.1,0.4-0.2,0.7-0.2
		c0.3-0.1,0.6-0.1,1-0.1l0.1-0.3c0.1-0.3,0.1-0.5,0-0.6c-0.1-0.1-0.2-0.2-0.4-0.2c-0.1,0-0.3,0-0.4,0.1c-0.1,0-0.2,0.1-0.3,0.1
		c-0.1,0-0.2,0.1-0.2,0.1c-0.1,0-0.1,0.1-0.2,0.1c0,0-0.1,0-0.1,0c0,0,0,0-0.1-0.1l-0.1-0.2c0.2-0.2,0.5-0.3,0.7-0.4
		c0.2-0.1,0.5-0.1,0.7-0.1c0.2,0,0.3,0,0.5,0.1c0.1,0.1,0.2,0.1,0.3,0.3c0.1,0.1,0.1,0.2,0.1,0.4c0,0.2,0,0.3-0.1,0.5L163.5,744.3z
		 M162.1,743.9c0.1,0,0.2,0,0.3,0c0.1,0,0.2-0.1,0.3-0.1c0.1,0,0.2-0.1,0.3-0.1c0.1-0.1,0.2-0.1,0.3-0.2l0.2-0.7
		c-0.3,0-0.5,0-0.7,0.1c-0.2,0-0.4,0.1-0.5,0.1c-0.1,0.1-0.2,0.1-0.3,0.2c-0.1,0.1-0.1,0.2-0.2,0.3c0,0.1,0,0.2,0,0.2
		c0,0.1,0,0.1,0.1,0.2c0,0,0.1,0.1,0.1,0.1C162,743.9,162,743.9,162.1,743.9z M164.4,744.3l0.9-3.4h0.3c0.1,0,0.1,0,0.1,0.1l0,0.3
		c0.2-0.2,0.3-0.3,0.5-0.4c0.2-0.1,0.4-0.1,0.6-0.1c0.2,0,0.4,0.1,0.5,0.2c0.1,0.1,0.2,0.3,0.2,0.5c0.1-0.1,0.2-0.2,0.3-0.3
		c0.1-0.1,0.2-0.2,0.3-0.2c0.1-0.1,0.2-0.1,0.3-0.1c0.1,0,0.2,0,0.3,0c0.2,0,0.3,0,0.5,0.1c0.1,0.1,0.2,0.1,0.3,0.2
		c0.1,0.1,0.1,0.2,0.1,0.4c0,0.2,0,0.3-0.1,0.5l-0.6,2.1h-0.6l0.6-2.1c0.1-0.3,0.1-0.5,0-0.6c-0.1-0.1-0.2-0.2-0.4-0.2
		c-0.1,0-0.2,0-0.3,0.1c-0.1,0-0.2,0.1-0.3,0.2c-0.1,0.1-0.2,0.2-0.2,0.3c-0.1,0.1-0.1,0.2-0.2,0.4l-0.6,2.1h-0.6l0.6-2.1
		c0.1-0.3,0.1-0.5,0-0.6c-0.1-0.1-0.2-0.2-0.4-0.2c-0.1,0-0.3,0-0.4,0.1c-0.1,0.1-0.3,0.2-0.4,0.3l-0.7,2.5H164.4z"/>
</g>
<g>
	<g>
		<linearGradient id="SVGID_4_" gradientUnits="userSpaceOnUse" x1="759.3673" y1="142.1526" x2="959.545" y2="142.1526">
			<stop  offset="0" style="stop-color:#FFFFFF;stop-opacity:0"/>
			<stop  offset="4.209470e-02" style="stop-color:#FDEAED;stop-opacity:4.245090e-02"/>
			<stop  offset="0.1274" style="stop-color:#FAC5CD;stop-opacity:0.1284"/>
			<stop  offset="0.2201" style="stop-color:#F7A6B1;stop-opacity:0.222"/>
			<stop  offset="0.3205" style="stop-color:#F58C9B;stop-opacity:0.3232"/>
			<stop  offset="0.4313" style="stop-color:#F37889;stop-opacity:0.4349"/>
			<stop  offset="0.5581" style="stop-color:#F26B7D;stop-opacity:0.5628"/>
			<stop  offset="0.7149" style="stop-color:#F16276;stop-opacity:0.7209"/>
			<stop  offset="0.9916" style="stop-color:#F16074"/>
		</linearGradient>
		<rect x="759.4" y="129.8" class="st9" width="200.2" height="24.7"/>
		<g>
			<path class="st7" d="M907.6,134.7c0.8,0,1.5-0.7,1.5-1.5c0-0.8-0.6-1.5-1.5-1.5c-0.8,0-1.5,0.7-1.5,1.5
				C906.1,134,906.7,134.7,907.6,134.7z"/>
			<path class="st7" d="M911.2,134.7c0.8,0,1.5-0.7,1.5-1.5c0-0.8-0.6-1.5-1.5-1.5c-0.8,0-1.5,0.7-1.5,1.5
				C909.8,134,910.4,134.7,911.2,134.7z"/>
			<path class="st7" d="M920.2,144.4h-3.8h-0.3h-1.8v-7.6c0,0-2-0.8-4.6-0.8c-4,0-5.8,2.6-5.8,5.5c0,3.1,1.6,5.1,5.9,5.1h6.4h0.3
				h6.7v-10.3h-2.9V144.4z M911.4,144.4H910c-2.3,0-3.3-1.1-3.3-3.1c0-1.7,1-3,2.6-3c1.3,0,2.1,0.4,2.1,0.4V144.4z"/>
			<path class="st7" d="M918,148.5c-0.8,0-1.5,0.7-1.5,1.5c0,0.8,0.6,1.5,1.5,1.5c0.8,0,1.5-0.7,1.5-1.5
				C919.4,149.2,918.8,148.5,918,148.5z"/>
			<path class="st7" d="M921.6,148.5c-0.8,0-1.5,0.7-1.5,1.5c0,0.8,0.6,1.5,1.5,1.5c0.8,0,1.5-0.7,1.5-1.5
				C923.1,149.2,922.4,148.5,921.6,148.5z"/>
			<path class="st7" d="M949.6,135.5l-2.8,0.4c0.4,1.7,0.6,3.7,0.6,5.9c0,0.7-0.1,1.8-0.2,2.6h-0.8c-1.9,0-2.4-0.6-2.4-2.4v-5.2
				h-2.8v5.3c0,1.6-0.4,2.5-1.6,2.5c-1.3,0-1.7-0.9-1.7-2.6v-4.4h-2.9v4c0,2.2-0.5,2.8-2,2.8h-0.4h-0.3h-1.8v-8.1h-2.9V147
				c0,2.4-0.9,3.1-2.4,3.1c-0.7,0-1.3-0.1-1.8-0.3l-0.2,2.3c0.5,0.1,1.2,0.2,1.8,0.2c4.5,0,5.4-2.7,5.4-5.5v-0.1h1.8h0.3h0.4
				c1.6,0,2.5-0.6,2.9-1.6c0.4,1.1,1.5,1.8,3.1,1.8c1.4,0,2.7-0.6,3.2-1.8c0.5,1.2,1.6,1.6,3.6,1.6h4.1c0.2-1.6,0.3-3.5,0.3-5.1
				C950.3,139.4,950,137.3,949.6,135.5z"/>
		</g>
		<g>
			<path class="st1" d="M736.2,148.4c0,1-1.1,1.5-2.8,2.2l-4.9,1.9c-1.3,0.5-1.9,1.3-1.9,2.3c0,0.3,0.1,0.7,0.2,1.1l0.2-0.1
				c0-0.1,0-0.1,0-0.2c0-0.9,1.3-1.4,2.8-2l4.9-1.9c1.3-0.5,1.9-1.3,1.9-2.2c0-0.4-0.1-0.7-0.2-1.1L736.2,148.4z"/>
			<path class="st1" d="M764.8,96.9c1.7,0,3.1-1.4,3.1-3.1v-2c0-1.2,0-2.3,0.7-2.4v-0.2c-0.4,0-0.8,0.1-1.1,0.3h-2.8
				c-1.8,0-3.4,1.6-3.4,3.4v1.2C761.3,95.8,762.9,96.9,764.8,96.9z M762.5,92.9c0-1.3,1-2.3,2.5-2.3h2c-0.1,0.2-0.1,0.4-0.1,0.6v2.5
				c0,1.2-1,2.1-2.1,2.1c-1.3,0-2.3-0.8-2.3-1.7V92.9z"/>
			<path class="st1" d="M790.7,79.1c0,0.3,0.1,0.7,0.2,1l0.9,2.5c0.1,0.2,0.1,0.5,0.1,0.8c0,1-0.9,2.1-2.1,2.1
				c-0.9,0-1.8-0.7-2.3-1.7l-1.5-3.8l-1,0.4l1.6,4.2c0.1,0.2,0.1,0.5,0.1,0.7c0,1-0.8,2.2-2.1,2.2c-0.9,0-1.8-0.6-2.2-1.7l-1.5-3.8
				l-1.1,0.4l1.7,4.4c0.6,1.2,1.7,1.8,2.8,1.8c1.5,0,3.1-1,3.4-2.6c0.6,0.4,1.3,0.6,2,0.6c1.8,0,3.2-1.6,3.2-3.3
				c0-0.4-0.1-0.7-0.2-1.1l-0.8-2c-0.3-0.8-0.6-1.5-0.6-2c0-0.3,0.1-0.5,0.3-0.7l0-0.1C791.2,77.8,790.7,78.3,790.7,79.1z"/>
			<path class="st1" d="M782.3,78.2c1.9,0,4-1.1,5.2-3.5l1.5-2.5l0.9-1.6c0.5-0.8,0.9-1.7,1.4-1.7c0.1,0,0.2,0,0.2,0l0.1-0.1
				c-0.4-0.2-0.7-0.3-1-0.3l-2.2-1.2c-0.5-0.3-1-0.4-1.5-0.4c-1.1,0-2.3,0.6-2.8,1.6l-0.6,1c-0.2,0.4-0.3,0.8-0.3,1.1
				c0,1.3,1.3,3.1,3.1,3.1c0.2,0,0.4,0,0.6-0.1l-0.3,0.6c-1.3,2.4-3.2,3.4-4.9,3.4c-1.2,0-2.3-0.5-3-1.4l-0.1,0.1
				C779.5,77.5,780.9,78.2,782.3,78.2z M786.5,72.7c-1.3,0-2.1-1.2-2.1-2c0-0.2,0.1-0.4,0.2-0.6l0.5-1c0.4-0.7,1.1-1.1,1.9-1.1
				c0.4,0,0.8,0.1,1.2,0.3l1.4,0.8l-1.7,3.1C787.5,72.5,787,72.7,786.5,72.7z"/>
			<polygon class="st1" points="806.5,98.3 803.6,95.4 800.8,98.3 803.6,101.1 			"/>
			<path class="st1" d="M828.9,89.7v0.4c2.1,0.2,2.1,3.7,2.1,7.2v20c0,4.5-3.4,7.1-5.8,7.3h-4.7v-6.1c0-5.7-4-11.3-10.4-11.8h-6.7
				c-6.7,0-12.2,2.7-15.3,6.4l-0.1,0.1V97.3c0-3.6-2.1-5.1-5.2-5.2v0.3c1.9,0.2,1.9,3.1,1.9,6v23.6c0,0.9,0.1,1.9,0.3,2.4h-5.4
				c-4.8,0-6.6-1.3-7.3-4.4V116c0-5.5-3.9-9.6-9.7-9.6h-2.5c-3.3,0-6.6,0-6.7-1.9h-0.3c0.1,1.4,0.5,2.7,1.2,3.5
				c0.7,0.9,1.5,1.6,4.2,1.6h4.2c2.6,0,4,0.9,4.8,2c0.8,1.1,1.2,1.7,1.6,5v8H764V115h-3.6c-5.3,0-9.8,4.5-9.9,9.5h-3.3h-0.1h-8.8
				v-18h-3.3v21.2c0,11.5-6.9,18.9-15,18.9c-1.5,0-2.8-0.3-4.2-1l-0.3,0.6c2.1,0.8,4,1.2,5.9,1.2c4.7,0,8.6-1.8,11.7-5.4
				c3.6-3.8,5.1-8.5,5.1-14.3h8.8h0.1h25.1v-2.1c1.7,1.4,3.4,2,7.2,2.1v0h45.8v0c0.8,0,1.8-0.3,2.9-0.9c3.6-1.7,6-5.6,6-9.6V95.6
				C834.3,91.4,832.1,89.8,828.9,89.7z M760.8,124.5h-7c0-3.4,2.7-6.1,6.5-6.2h0.6V124.5z M817.2,124.5h-31.9c0-0.1-0.1-0.6-0.1-0.9
				c0-6.9,6-13.8,17.9-13.8h6.7c4.9,0.5,7.4,4.6,7.4,8.6V124.5z"/>
			<path class="st1" d="M839.7,89.9v0.4c1.7,0.3,2,1.8,2,7.5v30h3.3V96C844.9,92,843.2,89.9,839.7,89.9z"/>
			<path class="st1" d="M863.5,85.7c1.9,0,4-1.1,5.2-3.5l1.5-2.5l0.9-1.6c0.5-0.8,0.9-1.7,1.4-1.7c0.1,0,0.2,0,0.2,0l0.1-0.1
				c-0.4-0.2-0.7-0.3-1-0.3l-2.2-1.2c-0.5-0.3-1-0.4-1.5-0.4c-1.1,0-2.3,0.6-2.8,1.6l-0.6,1c-0.2,0.4-0.3,0.8-0.3,1.1
				c0,1.3,1.3,3.1,3.1,3.1c0.2,0,0.4,0,0.6-0.1l-0.3,0.6c-1.3,2.4-3.2,3.4-4.9,3.4c-1.2,0-2.3-0.5-3-1.4l-0.1,0.1
				C860.7,85,862.1,85.7,863.5,85.7z M867.7,80.2c-1.3,0-2.1-1.2-2.1-2c0-0.2,0.1-0.4,0.2-0.6l0.5-1c0.4-0.7,1.1-1.1,1.9-1.1
				c0.4,0,0.8,0.1,1.2,0.3l1.4,0.8l-1.7,3.1C868.7,80,868.2,80.2,867.7,80.2z"/>
			<polygon class="st1" points="869,98.4 871.9,101.3 874.8,98.4 871.9,95.6 			"/>
			<polygon class="st1" points="863.2,98.4 866.1,101.3 869,98.4 866.1,95.6 			"/>
			<path class="st1" d="M869.9,105.6c-5.5,0-10.3,4.8-10.3,10.3v3.6c0,4.8,4.7,8.3,10.2,8.3c5.1,0,9.4-4.2,9.4-9.3v-6
				c0-3.5,0-7,2.1-7.2v-0.5c-1.1,0.1-2.3,0.3-3.1,0.8H869.9z M876,110.8v7.6c0,3.4-2.9,6.1-6.2,6.1c-3.9,0-6.8-2.5-6.8-5.1v-3.6
				c0-3.8,3.1-7,7.4-7h5.8C876,109.4,876,109.9,876,110.8z"/>
			<path class="st1" d="M941.1,101.3c0-0.1,0-0.1,0-0.2c0-0.9,1.3-1.4,2.8-2l4.9-1.9c1.3-0.5,1.9-1.3,1.9-2.2c0-0.4-0.1-0.7-0.2-1.1
				l-0.2,0.1c0,1-1.1,1.5-2.8,2.2l-4.9,1.9c-1.3,0.5-1.9,1.3-1.9,2.3c0,0.3,0.1,0.7,0.2,1.1L941.1,101.3z"/>
			<path class="st1" d="M948.4,105.7h-6.9c-10.6,0-18.6,6.3-19.3,14.5c-0.7-2.6-2.2-5.2-4.4-7.3l-0.4,0.3c2.4,2.2,3.2,5.4,3.2,8.8
				c0,1.3-0.3,2.2-0.9,2.5h-2.7c-3.4-0.3-5.9-2.2-6.2-5.5V94.4c0-4.3-2.1-6-5.4-6.1v0.5c2,0.3,2.1,3.6,2.1,7.4v20.6
				c0,4.4-3,7.7-6.8,7.7h-2.9v-14.9c0-4.3-2.1-6-5.5-6.2v0.5c2,0.3,2.2,3.8,2.2,7.5v13.1h-10.9v3.3h17.1c3.5,0,7-2.5,8-4.5
				c1.7,2.9,4.8,4.5,8.2,4.5v0h42.6v-9.7C959.6,111.8,954.5,106.2,948.4,105.7z M956.3,124.5h-33.5v-1c0-8.3,7.6-14.5,18.8-14.5h3.4
				c2.9,0,4.8,0.4,6.2,0.9c3.4,1.7,5.1,4.4,5.1,8.1V124.5z"/>
		</g>
	</g>
</g>
<g>
	
		<radialGradient id="SVGID_5_" cx="242.5183" cy="251.8735" r="54.2731" fx="231.3779" fy="235.8299" gradientUnits="userSpaceOnUse">
		<stop  offset="0.1436" style="stop-color:#FFF75D"/>
		<stop  offset="0.5314" style="stop-color:#FFDE00"/>
		<stop  offset="0.9166" style="stop-color:#FF7D00"/>
	</radialGradient>
	<circle class="st10" cx="243.5" cy="254.4" r="48.7"/>
	<g>
		<path class="st11" d="M243.5,205.7c-26.9,0-48.7,21.8-48.7,48.7c0,26.9,21.8,48.7,48.7,48.7c26.9,0,48.7-21.8,48.7-48.7
			C292.3,227.5,270.4,205.7,243.5,205.7z M241.8,299.9c-25.1,0-45.5-20.4-45.5-45.5c0-25.1,20.4-45.5,45.5-45.5
			c25.1,0,45.5,20.4,45.5,45.5C287.3,279.6,266.9,299.9,241.8,299.9z"/>
		<path class="st11" d="M248.8,189.6c0,2.7-2,4.9-4.6,4.9l0,0c-2.5,0-4.6-2.2-4.6-4.9v-8.7c0-2.7,2-4.9,4.6-4.9l0,0
			c2.5,0,4.6,2.2,4.6,4.9V189.6z"/>
		<path class="st11" d="M248.8,322.9c0,2.7-2,4.9-4.6,4.9l0,0c-2.5,0-4.6-2.2-4.6-4.9v-8.7c0-2.7,2-4.9,4.6-4.9l0,0
			c2.5,0,4.6,2.2,4.6,4.9V322.9z"/>
		<path class="st11" d="M306.5,256.4c-2.7,0-4.9-2-4.9-4.6l0,0c0-2.5,2.2-4.6,4.9-4.6h8.7c2.7,0,4.9,2,4.9,4.6l0,0
			c0,2.5-2.2,4.6-4.9,4.6H306.5z"/>
		<path class="st11" d="M173.3,256.4c-2.7,0-4.9-2-4.9-4.6l0,0c0-2.5,2.2-4.6,4.9-4.6h8.7c2.7,0,4.9,2,4.9,4.6l0,0
			c0,2.5-2.2,4.6-4.9,4.6H173.3z"/>
		<path class="st11" d="M291.5,211.1c-1.9,1.9-4.9,2.1-6.7,0.3l0,0c-1.8-1.8-1.7-4.8,0.3-6.7l6.2-6.2c1.9-1.9,4.9-2.1,6.7-0.3l0,0
			c1.8,1.8,1.7,4.8-0.3,6.7L291.5,211.1z"/>
		<path class="st11" d="M197.3,305.3c-1.9,1.9-4.9,2.1-6.7,0.3l0,0c-1.8-1.8-1.7-4.8,0.3-6.7l6.2-6.2c1.9-1.9,4.9-2.1,6.7-0.3l0,0
			c1.8,1.8,1.7,4.8-0.3,6.7L197.3,305.3z"/>
		<path class="st11" d="M285.1,299.1c-1.9-1.9-2-4.9-0.3-6.7l0,0c1.8-1.8,4.8-1.7,6.7,0.3l6.2,6.2c1.9,1.9,2.1,4.9,0.3,6.7l0,0
			c-1.8,1.8-4.8,1.7-6.7-0.3L285.1,299.1z"/>
		<path class="st11" d="M190.9,204.9c-1.9-1.9-2-4.9-0.3-6.7l0,0c1.8-1.8,4.8-1.7,6.7,0.3l6.2,6.2c1.9,1.9,2.1,4.9,0.3,6.7l0,0
			c-1.8,1.8-4.8,1.7-6.7-0.3L190.9,204.9z"/>
	</g>
	<defs>
		<filter id="Adobe_OpacityMaskFilter" filterUnits="userSpaceOnUse" x="197.6" y="209.8" width="72.7" height="48.8">
			<feFlood  style="flood-color:white;flood-opacity:1" result="back"/>
			<feBlend  in="SourceGraphic" in2="back" mode="normal"/>
		</filter>
	</defs>
	<mask maskUnits="userSpaceOnUse" x="197.6" y="209.8" width="72.7" height="48.8" id="SVGID_6_">
		<g class="st12">
			<defs>
				<filter id="Adobe_OpacityMaskFilter_1_" filterUnits="userSpaceOnUse" x="197.6" y="209.8" width="72.7" height="48.8">
					<feFlood  style="flood-color:white;flood-opacity:1" result="back"/>
					<feBlend  in="SourceGraphic" in2="back" mode="normal"/>
				</filter>
			</defs>
			<mask maskUnits="userSpaceOnUse" x="197.6" y="209.8" width="72.7" height="48.8" id="SVGID_6_">
				<g class="st13">
				</g>
			</mask>
			
				<radialGradient id="SVGID_7_" cx="232.5583" cy="214.1395" r="50.6721" fx="249.7345" fy="188.0264" gradientUnits="userSpaceOnUse">
				<stop  offset="0.2627" style="stop-color:#FFFFFF"/>
				<stop  offset="0.7268" style="stop-color:#FFFFFF"/>
				<stop  offset="0.9716" style="stop-color:#000000"/>
			</radialGradient>
			<path class="st14" d="M212.3,220.5c9-9.2,32.2-15.4,48.6-6.2c16.4,9.2,11,26.7-15.4,25.7c-26.4-1-42.3,8.6-44.4,16.8
				C199.2,265,190.1,243.3,212.3,220.5z"/>
		</g>
	</mask>
	
		<radialGradient id="SVGID_8_" cx="232.5583" cy="214.1395" r="50.6721" fx="249.7345" fy="188.0264" gradientUnits="userSpaceOnUse">
		<stop  offset="0.2627" style="stop-color:#FFFFFF"/>
		<stop  offset="0.7268" style="stop-color:#FFF75D"/>
		<stop  offset="0.9716" style="stop-color:#FFDE00"/>
	</radialGradient>
	<path class="st15" d="M212.3,220.5c9-9.2,32.2-15.4,48.6-6.2c16.4,9.2,11,26.7-15.4,25.7c-26.4-1-42.3,8.6-44.4,16.8
		C199.2,265,190.1,243.3,212.3,220.5z"/>
</g>
</svg>
